<svg id="Layer_1" data-name="Layer 1" xmlns="http://www.w3.org/2000/svg" viewBox="0 0 276.7 208.92"><defs><style>.cls-1{fill-rule:evenodd;}</style></defs><path class="cls-1" d="M176.4,192.48a757.73,757.73,0,0,0-15.12,82.44c-1.2,9-2.28,18.12-3.12,27.36q-4,43,14.52,79l17,14.64A41,41,0,0,0,208,397.56a79.29,79.29,0,0,0,29.76-10.32c25.32-15.12,40.2-37.56,44.88-67.44a325.09,325.09,0,0,0-5-126.6l-3.72.24a18.36,18.36,0,0,0-2.52,17.88,7.21,7.21,0,0,1,2.76,3A295.93,295.93,0,0,1,274,315.6q-6.66,37.8-39.6,56.16a79,79,0,0,1-15.72,6.84c-16.32,4.92-29.76,1.56-40.32-10.32a21.42,21.42,0,0,1-4.44-8.28,213.83,213.83,0,0,1-1.68-104.16,207.33,207.33,0,0,0,4.8-63.48Zm235.44,70.2q9,62.28,14.88,125l-.24.6c-1.92,1.08-2.88.24-3-2.28l-.48.12a8.38,8.38,0,0,0,1,5.64,7.62,7.62,0,0,1,3,1.32c.6,4.2,2.52,6.6,6,7.08a2.87,2.87,0,0,0,1.2-2.52A840.4,840.4,0,0,0,422,274.32a227.42,227.42,0,0,1-3-46.92q.72-18.18-7.2-31a383.08,383.08,0,0,0-11.76,46.92A538,538,0,0,1,360.6,368c-2.4-15.72-4.44-31.56-6.24-47.52a942.09,942.09,0,0,0-22.68-125.16,55.79,55.79,0,0,0-9.6,24.12q-10.62,63.72-23.52,127.08a141,141,0,0,1-9.84,30.72c-4.08,9.24-4.32,17.16-.84,24a221.69,221.69,0,0,0,17.88-52.2q13-62.46,24.84-125.28l2.52,12A974.68,974.68,0,0,1,349.8,362.4c.84,11.88,3.48,22.2,7.92,30.72a62.55,62.55,0,0,0,13.68-20.76,682.25,682.25,0,0,0,38.28-125Z" transform="translate(-157.46 -192.36)"/></svg>