<svg id="Layer_1" data-name="Layer 1" xmlns="http://www.w3.org/2000/svg" viewBox="0 0 223.8 207.3"><defs><style>.cls-1{fill-rule:evenodd;}</style></defs><path class="cls-1" d="M221.52,199q-3.42,34.38-4.08,69.48-1.26,64.26-2,128.16a2.84,2.84,0,0,0,3.72,1.68,2.59,2.59,0,0,0,.72-1.68q2.52-34.74,4.32-69.6a954.33,954.33,0,0,0-1.8-128.4C221.76,198.48,221.52,198.6,221.52,199ZM395.4,195.6l-6.84.6a67.06,67.06,0,0,0-36.12,22.32,133.49,133.49,0,0,0-23.28,38.88A139.76,139.76,0,0,0,320,302.28,154.15,154.15,0,0,0,325,347.4c4.08,15.48,12.48,27.6,25.32,36.36a70.79,70.79,0,0,0,41.52,12.48,68.22,68.22,0,0,0,37.68-11.4l2.4,18c5-8,7.44-17.64,7.32-29-.12-4.44-.36-8.76-.72-13.08-.6-5.64-.84-11.16-1-16.8a26.44,26.44,0,0,0-18.24-1,50.88,50.88,0,0,0-15,7.2l.24,6.36,25.08-.12-.48,9.12c-6.6,5.64-14.64,9.6-24.24,12a98.78,98.78,0,0,1-22.08,3,51.09,51.09,0,0,1-14-1.68,40.87,40.87,0,0,1-12-5.64,54.1,54.1,0,0,1-21-27,116.21,116.21,0,0,1-4-66.48C338,252.24,353,232.2,376.92,219.36A62.59,62.59,0,0,1,407.16,212a103.23,103.23,0,0,1,28.44,4.2c-3.12-7.44-8.64-13-16.68-16.44A52.23,52.23,0,0,0,395.4,195.6Z" transform="translate(-215.4 -195.54)"/></svg>