<svg id="Layer_1" data-name="Layer 1" xmlns="http://www.w3.org/2000/svg" viewBox="0 0 229.58 209.66"><defs><style>.cls-1{fill-rule:evenodd;}</style></defs><path class="cls-1" d="M219.36,194.64c-2.52,17.16-4.44,35-5.64,53.4-1.2,18.72-1.56,37.44-1.08,56a391.92,391.92,0,0,1-3.12,64c-1.68,12.6-.12,23,4.56,31.56a558.91,558.91,0,0,0,6.6-77q.9-65-.48-128.28C219.6,194.4,219.36,194.52,219.36,194.64Zm186.36,177.6q-5,3.78-9.36-2.88c-2.76,2.28-4.08,5.76-3.84,10.44a12.71,12.71,0,0,0,1.08,4.32,20.33,20.33,0,0,0,6.24,7.68l14.4-1.44a50.75,50.75,0,0,0,11.28-25.8,235.32,235.32,0,0,0-2-76.68c-7.44,13.8-9.12,29-4.92,45.48C422.76,350,418.56,363,405.72,372.24ZM424.8,235.68a1.06,1.06,0,0,0-1.2.48c-5.52,9.84-5.52,19.2.12,28l.72-1A38.72,38.72,0,0,0,424.8,235.68Zm-17.88-44.4-87.72,7.56-.36.84a14.85,14.85,0,0,0-.6,5.64l.24.84.24.84.24.84a20.19,20.19,0,0,0,9.48,2l47.76-.72a147,147,0,0,0-3.72,31.08c-.84,43.08-2.28,86-4.08,129-.6,12.24,1.32,22.8,5.52,31.68a2.11,2.11,0,0,0,.72-1.56q2.34-34.56,3.48-69.84c1.2-40.68,1.32-80.88.36-120.36,19.2-.24,38.28-.36,57.36-.24a12.48,12.48,0,0,0,1-13.8l-1.2-1.68-2.64-.36A156.56,156.56,0,0,0,406.92,191.28Z" transform="translate(-208.86 -191.27)"/></svg>