<svg id="Layer_1" data-name="Layer 1" xmlns="http://www.w3.org/2000/svg" viewBox="0 0 425.36 431.74"><defs><style>.cls-1{fill-rule:evenodd;}</style></defs><path class="cls-1" d="M169.08,90.6l-6,2.16a29.55,29.55,0,0,0-2,11.88c.12,3.48,1.44,5.76,4,7.08l2.4-.48,2.16-8.4A69.16,69.16,0,0,1,167.88,133l.24.12c10.32-12.48,11.28-25.68,2.76-39.72Zm-54.36-3.48c-.84,41.4-1.08,83.16-.72,125q.36,65-2.76,129.12Q108.18,405.9,100.92,470c-1.08,9.84.6,17.88,5.16,24a2.23,2.23,0,0,0,.84-1.44q4.5-42.3,6.84-85.08l3.48-64.08q3.24-64.08,3.6-129.12C121,171,119.52,128.16,116.28,86,115.32,85.92,114.84,86.28,114.72,87.12ZM499,112.56A65.25,65.25,0,0,0,459.12,143a219.39,219.39,0,0,0-17.28,35.88,488.59,488.59,0,0,0-29.16,124.32c-2.16,21.36-4.44,42.72-7,64A291.68,291.68,0,0,0,417.24,491q9.9,31.32,43.56,25.92a55,55,0,0,0,31.08-15.84c12.48-12.6,16.8-26.28,13-41.16a5.4,5.4,0,0,0-2.28,1.68,122.8,122.8,0,0,0-10.2,14.28q-18.36,29.34-52.2,21.84a7.48,7.48,0,0,1-4.68-3A121.75,121.75,0,0,1,413,426.12c-.48-21.24,0-42.72,1.32-64.2,1.08-15.24,2.4-30.48,4.08-45.72a245.53,245.53,0,0,0,68.88.72l.72-1.68a14.51,14.51,0,0,0-.72-13l-.84-.72-2.64-1a419.35,419.35,0,0,1-64,2.64c2.76-22.56,6.12-45,10.32-67.2A215.61,215.61,0,0,1,470,145q21.42-29,51.12-11.28l1.08.36,2.4.84.6.12.36-1.68.36-2.4v-.72l-.24-.84C520.8,117.72,511.8,112.2,499,112.56Zm-77.52-8.76a755.77,755.77,0,0,0-34.2,110.52Q373,276.78,357.84,338.76,342.9,400.32,324,460.56l-1.44-4.44q-20.34-61-37.08-123-16.56-61.92-31.8-124T221,86c-.84-.12-1.2.24-1.32,1.08a82.2,82.2,0,0,0,2.4,26.4l31,123q15.48,62.28,32.52,124l34,122.76c-2.52,7.92-.48,13.56,5.88,16.8a71.49,71.49,0,0,0,1.8-14.16q9.9-35.46,19.32-71.64,16-62.28,31-124.08,14.94-62.1,30.72-124.08a261.82,261.82,0,0,1,10-31.2c4.32-10.92,5.76-21.36,4.44-31.56A1.06,1.06,0,0,0,421.44,103.8Z" transform="translate(-100.6 -86.02)"/></svg>