<svg id="Layer_1" data-name="Layer 1" xmlns="http://www.w3.org/2000/svg" viewBox="0 0 224.01 207.72"><defs><style>.cls-1{fill-rule:evenodd;}</style></defs><path class="cls-1" d="M275.52,196.08a53.94,53.94,0,0,0,1,28,.71.71,0,0,0,.6-.24c5.4-9,5.16-18.48-.6-28.2C275.88,195.48,275.64,195.72,275.52,196.08ZM214,206.52c.6,14,.6,28.2,0,42.24q-2.34,64.62-7,128.88c-.84,10.2,1.32,17.88,6.24,23.28a593.29,593.29,0,0,0,6-79.44q.72-65-1.2-128.28C215.16,196.32,213.84,200.76,214,206.52Zm215.16-9.24L428,195.36,324.72,201l-.36,9a173.79,173.79,0,0,0,48.84,5c-2,41.88-3.72,83.88-4.8,126L368,365.4c-.12,11.88,1.08,22.32,3.72,31.56a294.14,294.14,0,0,0,6.48-52.56c.36-12.72.72-25.44.84-38.16q.72-45.54-1.56-91.08l51.24-4.44A12.9,12.9,0,0,0,429.12,197.28Z" transform="translate(-206.82 -193.2)"/></svg>