<svg id="Layer_1" data-name="Layer 1" xmlns="http://www.w3.org/2000/svg" viewBox="0 0 479.04 455.56"><defs><style>.cls-1{fill-rule:evenodd;}</style></defs><path class="cls-1" d="M199.32,106.56q1.44,8.82,2.52,9v-.84q5.22,10.62,11.16,25.92a288.21,288.21,0,0,1,20.52,125.64c-.84,15.84-2,31.56-3.48,47.28a402.73,402.73,0,0,1-31.56,123.36q-15.12,34.74-48.84,51.36A46.48,46.48,0,0,1,131.88,493q-35.82,2-50.28-31.32C75.24,446.88,69.72,432,64.8,416.76a206.74,206.74,0,0,1-9.72-51.36A955.17,955.17,0,0,1,55.44,237a396.3,396.3,0,0,1,29-124.44c7.8-19,20.64-32.16,38.28-39.72l21.12-.36C163,72.12,179,77.64,192.12,88.8l.24.72.24.84.12.84.12.84A29.13,29.13,0,0,1,199.32,106.56ZM191.16,76.2q-28.08-22.68-66.72-18.6a25.52,25.52,0,0,0-17,8.16A160.21,160.21,0,0,0,69.24,129.6,459.7,459.7,0,0,0,48,257.4a1233.29,1233.29,0,0,0,3.12,128.28,224.72,224.72,0,0,0,28.44,93.84,57.76,57.76,0,0,0,16.08,18.36q36.54,27.36,72.24-4.08,38.7-34.38,51.12-85.68a897.91,897.91,0,0,0,21.12-127.56,307.24,307.24,0,0,0-13.56-124.08c-3.36-10.32-6.36-20.76-9.12-31.32-3.72-14-9.48-26-17.28-35.88-.84.12-1.44-.36-1.68-1.44A21,21,0,0,0,191.16,76.2ZM364.08,285.72,364,285l-.48-.84-1-.84h-.72q-9.18-46.26-19.8-92.16Q327.42,128.88,316.32,66.6c-1.32.12-2,.84-2,2.4a256.29,256.29,0,0,0,9.12,68.64A1261.56,1261.56,0,0,1,350.64,262l3.48,21c-13.68-.6-27.48-.84-41.4-1a61,61,0,0,0-31.8,6.48l-1.68,1,.48-3.24q10.8-62.64,20.88-125.52,5.22-31.5,11.28-62.88a97.1,97.1,0,0,0,1.44-32c-.6.12-.84.24-.84.48Q298.62,125.1,290.16,185.4q-8.82,63.18-21,125.88A1290.1,1290.1,0,0,1,238,437.88c-3.24,10.56-6.72,20.88-10.56,31-4.68,12.24-4.44,22.68.72,31.2,9-29.16,17.4-58.8,25.08-88.68q14.22-55.44,24.12-111.48l.6.72.72.84a244.74,244.74,0,0,1,77.88-4.92q7.92,45.9,16.8,91.56,12.42,63.36,28.2,123.84a4.18,4.18,0,0,0,2.64-4.56A413.84,413.84,0,0,0,393.24,433Q378.3,371,366.6,308.16l-3.24-16.68A15.23,15.23,0,0,0,364.08,285.72ZM524.4,82.56l2.16-7.08-1.8-6L397.92,63.72l-6.24.12-6.36.36-17.4,2.4-.48,6.48L451,78.48q-2.7,55.26-1.08,111.48c.12,5.4.24,10.68.12,16.08l-.36,16.08c-1.08,43.08-2.4,86-4.2,129.12a1264.21,1264.21,0,0,0,3.24,153.84,32.91,32.91,0,0,0,1.56,7.44,212,212,0,0,0,4.92-47.64l-.12-7.32-.48-32.28c-.6-43,0-85.92,1.56-129q4.14-108.9-1.56-217.56Z" transform="translate(-47.52 -56.96)"/></svg>