<svg id="Layer_1" data-name="Layer 1" xmlns="http://www.w3.org/2000/svg" viewBox="0 0 501.84 326.3"><defs><style>.cls-1{fill-rule:evenodd;}</style></defs><path class="cls-1" d="M103.08,152.16a94.23,94.23,0,0,0-22,28.44A280.25,280.25,0,0,0,51,301Q49.38,366.48,87.6,418.8q33.3,45.72,89.28,26c6.12-3,12.12-6.24,18-9.6q41.94-24.3,58.68-67a188.9,188.9,0,0,0,7.68-23.76A214.56,214.56,0,0,0,255,218,277.55,277.55,0,0,0,233.4,172c-16.68-28.2-41.16-44-73.2-47.52A116,116,0,0,0,103.08,152.16Zm90.6-1.92A116.37,116.37,0,0,1,224.76,180a211.32,211.32,0,0,1,22.92,41.4A137.89,137.89,0,0,1,258.12,263a230.37,230.37,0,0,1-.12,45.48,313.17,313.17,0,0,1-8.16,46.8,87.56,87.56,0,0,1-21.36,38.52,139.84,139.84,0,0,1-33.36,26,126.23,126.23,0,0,1-39.12,14c-16.68,3-31.8-.24-45.36-9.84A118.1,118.1,0,0,1,79.2,391a121.76,121.76,0,0,1-16.92-44A278.7,278.7,0,0,1,58,307a274.4,274.4,0,0,1,1.92-39.72,313.88,313.88,0,0,1,7.56-39.48A138.54,138.54,0,0,1,85.56,186.6a103.2,103.2,0,0,1,32.4-32,134.73,134.73,0,0,1,42.24-17l1.32,3.72,19.8,4.8Zm169,130.32-56.88,6.6,33.48-142,17.88,105.24Zm10,12,.24-.84a10.85,10.85,0,0,0-1.08-11.4l-1.8.12L365,256.08q-12.78-63.18-22.8-125.16a14.9,14.9,0,0,0-3.24,7,42.1,42.1,0,0,0-2.4-10.2c-9.24,37.08-18.12,75-26.88,113.76Q295.5,303.9,281,366.36a221.26,221.26,0,0,1-12.72,38c-5,11.28-5.4,21.72-1,31.2A119.32,119.32,0,0,0,278,407.52c8.88-36.84,17.4-73.68,25.56-110.76a374.43,374.43,0,0,0,61.32-3.12q7,41.22,12.6,82.8a288.7,288.7,0,0,0,15.36,61.92,3.47,3.47,0,0,0,2.28-3.72,362.26,362.26,0,0,0-5.88-53q-8.1-44.64-16.92-89ZM551.52,132.72l-.6-1.8Q496.2,210.84,443,291.6l-6,8.16-5.16,6.12-1.56,2a878.52,878.52,0,0,0-4.44-179.4q-2.52,119-2.28,238.44l-.48,16L422,398.76,421,411.36A55.79,55.79,0,0,0,422.4,428a48.43,48.43,0,0,0,3.72,10.32,610.78,610.78,0,0,0,4.2-112.8,334,334,0,0,0,41.52-62.16A569.68,569.68,0,0,0,535,443.4a15.62,15.62,0,0,0,2.16,2.76A1134,1134,0,0,0,473.4,260.64a837.64,837.64,0,0,1,71.16-102.36C552.12,151,554.52,142.44,551.52,132.72Z" transform="translate(-50.93 -124.44)"/></svg>