<svg id="Layer_1" data-name="Layer 1" xmlns="http://www.w3.org/2000/svg" viewBox="0 0 295.65 206.16"><defs><style>.cls-1{fill-rule:evenodd;}</style></defs><path class="cls-1" d="M288.84,242.4q13.14,65.7-22.08,122a17.07,17.07,0,0,1-8.16,7c-17.64,7.32-35.88,8.52-55,3.48a28.89,28.89,0,0,1-11.16-5.64q-29-23.76-30.36-63.72A119.61,119.61,0,0,1,175.8,245.4q19.44-37.44,64.44-38.64c15.12-1.32,28.32,2,39.72,10.32A90.65,90.65,0,0,1,288.84,242.4ZM185.4,213.24a58.15,58.15,0,0,0-19.92,27.48q-21.78,61.92,4.08,122.64A39.62,39.62,0,0,0,181.68,379c18.36,14.28,40,19.08,65,14.4,14-2.52,24.36-10.08,30.72-22.68a227.07,227.07,0,0,0,22.08-67.44q8.82-53.1-15.48-98.4l-1.56.12-1.32.12-.6-.72q-17.1-12.06-39.24-12.24A99,99,0,0,0,185.4,213.24Zm184.68-15.12a76.73,76.73,0,0,0-39.72,23.76,97.26,97.26,0,0,0-21.84,39.36,177.86,177.86,0,0,0-6.72,45.84,132.28,132.28,0,0,0,7.2,45.48,64.25,64.25,0,0,0,27.84,34.68,73.93,73.93,0,0,0,43.56,10.92A63.1,63.1,0,0,0,423,379.92c11.64-11.28,16-24.48,12.84-39.72l7.32.48q-5.58,28.08,3.6,53.28,9.18-33.12-.84-67.44l-30,.48.36,9.12,14.64,3.6C426.84,360.24,414,373,392.28,377.64a81.05,81.05,0,0,1-37.92-.72c-18-4.44-30-14.76-36.12-30.84a117.89,117.89,0,0,1-7.32-49.44,126.83,126.83,0,0,1,7.56-35.4,66.19,66.19,0,0,1,22.92-30.72,84.08,84.08,0,0,1,56.88-16.68,67.7,67.7,0,0,1,33.36,11c3.48,2.4,7,5,10.44,7.8-1.56-15.36-11-26-28.2-32.16A75.8,75.8,0,0,0,370.08,198.12Z" transform="translate(-155.51 -192.12)"/></svg>