<svg id="Layer_1" data-name="Layer 1" xmlns="http://www.w3.org/2000/svg" viewBox="0 0 558.24 547.81"><defs><style>.cls-1{fill-rule:evenodd;}</style></defs><path class="cls-1" d="M404.64,433.92l.24,2.52c0,5.16-6.12,15.84-18.24,31.92,3.12,7.32,7.68,19.8,13.68,37.56q11.52,34,11.52,40.32l-.24,3.24c-.12,0-.36.12-.48.48a1.6,1.6,0,0,0-.36.84c-4.68-8.16-10.56-23.88-17.88-47.16-4.68-15.12-7.8-25.56-9.12-31.44-6.48,8.4-13.56,17-21.12,26l-.72-.12-.12,1-6.48,50H354a23.53,23.53,0,0,1-.36-4.8c0-3.48,1.44-19,4.2-46.32q4.5-43.38,7.2-63.36a35.93,35.93,0,0,1,1.08,10.2c0,10.2-1.08,24.72-3.12,43.68,3-5.88,8.64-14.52,17.16-25.92,9.84-13.2,17.76-23.16,23.88-29.76ZM274.56,182.64,254,315.6l-.24,2.28L262,317l6.48-1.08c15-2.28,25.32-3.24,30.84-3q-13.5-108.18-15-194.76ZM187.2,142a273.26,273.26,0,0,0-14.28-37.2c-3.6-7.8-6.72-13.92-9.36-18.6a102.65,102.65,0,0,0-12.84-18.72A46.84,46.84,0,0,1,145,58.32a46.54,46.54,0,0,0-6-9.6q-9.72-11.16-36.36-15.48c-14.4,2.4-25.44,5.88-33,10.44C63.36,47.4,59,52.08,56.52,58c-1.2,2.76-2.52,7.92-3.84,15.72-1.2,6.6-3,11.64-5.28,15.12a594.91,594.91,0,0,0-15.72,60Q20.52,199.74,20.52,268.44c0,20.4.72,43.44,2.16,69.24s3.24,47.76,5.52,65.88q4.5,37.44,8.28,56.52c3.24,17.28,7.32,31,12.24,40.92q8.1,16.92,21.24,24.84c9,5.64,20.52,8.4,34.44,8.4,20.76,0,42.72-16.44,66.12-49.32a339.52,339.52,0,0,0,21.36-34.68L201,432.48c5.88-9.84,9.48-25.92,11-48.36.6-9.12,1-26.76,1-53l.36-40.56a276.48,276.48,0,0,0-.48-27.84q-1.8-23-15.6-82.68C193.8,165,190.44,152.28,187.2,142Zm15.24,32.64c8.88,36.36,13.92,64.32,15.24,84.12.6,8.16.72,18.6.6,31.44l-.48,41.16c0,20.52-.72,39.12-2,55.68-2,24.12-5.52,41.76-10.32,53.16q-16,37.62-47,72.48c-9.36,10.56-18.12,18.84-26.4,25-8.64,6.48-15.6,9.72-21,9.72-21.72,0-38.76-4.92-51.36-14.76-10.32-8.16-17.88-20.16-22.8-36-3.24-10.44-5.76-25.56-7.56-45.24-2-21.24-3.84-35.28-5.52-42.12q-4.68-19.62-6.48-66.72-1.08-28.26-1.08-73.2,0-71.64,11.64-126.12,30.78-144.54,76.08-119C124.44,26.64,137.76,31.2,144,38a48.42,48.42,0,0,1,6,9.6A56,56,0,0,0,156.36,58c8.52,9.6,16,22.56,22.56,38.88C183.6,109,188,121.8,192,135.6,195.36,146.88,198.84,159.84,202.44,174.6Zm86-88.2c0,1.32-.48,5.16-1.32,11.76.84,12.6,1.68,27.12,2.4,43.32l2.52,58.2q3.42,69.12,11.16,113.88a2.93,2.93,0,0,1,1.68,1.44v3a21.64,21.64,0,0,1-.12,3.6l-.12.12,7.92,51.48c3.48,24.6,6.84,44,10,58.56q4.86,23,13,65.4c5.76,30.6,8.64,47.52,8.64,50.64a10.76,10.76,0,0,1-.48,3.72,8.7,8.7,0,0,1-2.16,3Q317.22,449,301.44,330.12l-.84-6.24c-3.48.72-14.64,2-33.24,4l-4.56.24-5.16.84-5.52-.24Q244.56,376.74,233,430.2,221.88,482,205.68,544.32a7.8,7.8,0,0,1-1.56-3.36,15.54,15.54,0,0,1-.36-3.72q0-2.52,19.68-93.24,21.42-98.46,26.88-134l16.44-113.64c5.88-41.64,11.76-76.44,17.64-104.64.24-4.32.72-7,1.56-7.92l.12-.36c.12.24.6.48,1.32.72A2.5,2.5,0,0,1,288.48,86.4Zm-.84-55.68c0-4.32-2.4-8.16-7.08-11.52C274.68,15,266.4,13.32,256,14q0,18.36-.36,29.88l5.28-.84c8.88.72,15.84-.6,21-4.08Q287.64,35,287.64,30.72Zm-8.64,17A48,48,0,0,1,269.16,50l-9.36,1.08L255.24,51v.24a216.74,216.74,0,0,1-5.16,37.56,3.5,3.5,0,0,1-1-1.68,12.54,12.54,0,0,1-.12-2.64c0-4.8.6-16,1.8-33.6h-1.08l-.6-1a9.84,9.84,0,0,1-.12-2.28,16.16,16.16,0,0,1,.12-2.64l.12-.6,2-.24c1.2-16.92,2.28-28.2,3.36-33.84v.12c.36-2.28,2.16-3.6,5.52-3.72s7.56,1,12.24,3.24a37.88,37.88,0,0,1,12.12,8.52c3.72,4,5.52,7.8,5.52,11.64C290,39,286.32,44.88,279,47.76ZM391.08,314a72.16,72.16,0,0,1,1.08,13.8,12.77,12.77,0,0,1-1.08,5.64v38.16c8.76-.48,14.4-1.32,16.68-2.64l1.92-1.2a4.43,4.43,0,0,1,2.52-.48c1.56-26.52,2.4-43,2.4-49.08a10.92,10.92,0,0,1,.24-2.52l.84-1c1.32,1.8,2,5.52,2.4,11.28,0,4.32-.72,18.72-2.28,43.32-1.8,28.68-3.48,48.12-5,58.56l-1.08.24c-.6-1.08-.84-3.24-.84-6.48l2.76-44.28c-2,1.2-5.52,1.8-10.56,1.8l-10-.24v1.56L389.4,403.8A216.17,216.17,0,0,1,387,426a3.42,3.42,0,0,1-1.56-1.68,8.7,8.7,0,0,1-.36-3c0-17.4,1.08-31.8,3.24-43.44v-47c.72-3.36,1.2-9,1.56-16.8ZM357.24,232l-.36,4.08c-.12,0-.36.12-.72.48l-1.08,1a28.14,28.14,0,0,0-2.4-6.6c-1.8-3.6-4.8-5.4-9.24-5.4l-12.72.36a24.87,24.87,0,0,0-4.56,7.08,20.14,20.14,0,0,0-2.28,8.52c0,2,1.8,4.68,5.28,8.16l11.52,10.68c11.16,10.56,16.8,20.64,16.8,30.12a30,30,0,0,1-4.08,15.84q-6.3,10.44-20.52,10.44L322,316.44c-3.84-1.68-7.2-6-10.08-13.08-2.52-6-3.72-11-3.72-15.12,0-4.8.72-8.76,2.28-11.88h1.08c.6,3.6,1.2,8.88,1.92,16A29.66,29.66,0,0,0,322.32,308h10.2q13.14-4.32,17.28-7.2a12.18,12.18,0,0,0,4.92-10.08c0-4-1.68-8.16-5.16-12.36A147,147,0,0,0,338,267c-5.52-4.92-9.36-8.76-11.64-11.76-3.48-4.56-5.16-9.12-5.16-13.8a40.58,40.58,0,0,1,2.4-12.6c1.8-5.28,4-8.88,6.48-10.68,11.28-1.32,19.2.48,23.64,5.4A12.23,12.23,0,0,1,357.24,232Zm-5.76-105.48c-1.32,1.44-4.2,1.8-8.88,1v.84l-7.92.36-8.28.72h-9q0,20-1.08,31.32l-.6.6-.72.84-2.16-.24a23.38,23.38,0,0,1-.24-3.72l1-29.16-3.48-.48a13.93,13.93,0,0,1-.24-3.24l-.12-1.2c.12-.48.48-.84,1.2-1.2a9.45,9.45,0,0,1,2.76-.84c0-2.28.24-6,.72-11.4l.72-7.92-.6-.48a4.47,4.47,0,0,1-.6-2.64,2.89,2.89,0,0,1,.48-1.8L316,96.12l.36-1.92.12,1.44.72-.6c15.72-.84,25.2-1,28.32-.6,1.56.12,2.4.48,2.64,1l.12,2a4.88,4.88,0,0,1-1.2,3.12l-1.2,1.68c-16.44,0-26,.24-28.8.6l.36,18.72,9.48-.84c12.24-1.32,19.92-1.44,23.16-.48,1.2.36,1.92,1,2,1.68v1.8A4.39,4.39,0,0,1,351.48,126.48Zm59.64,30.12q-1.44.72-7.2,1.44c-7.8,1.08-15.72,2.52-23.64,4.32l.24,4.68c0,13.32-.84,33.6-2.64,60.84s-2.52,45.12-2.52,53.52L377.52,331l-.72,16.2-1.44,24V420.6l-1.08,3.24-1.44.36a28.73,28.73,0,0,1-1.44-5.76,43.35,43.35,0,0,1-.36-5.28,9.2,9.2,0,0,1,.12-2.16l.36-.6V366.48c.48-5.4,1-12.6,1.56-21.6l.6-14.52-2.16-49.44q0-27.18,2.28-71.64c1.2-22.68,2.4-38.16,3.6-46.32l-14.76,4-25.8,6.84c-15,3.84-23.4,5.76-25.08,5.76l-5.28-.24-3.12-.36-.24-1.08a7,7,0,0,1-.36-2.52c0-1.08,5.76-3.24,17.28-6.6,10.92-3.24,23.52-6.36,37.8-9.6q55.08-12.42,55.08-6.48Q412.92,155.7,411.12,156.6ZM375.36,23.52c-1-1.32-3.48-2.88-7.68-4.56-3.72-1.44-6-2.16-7-2.16-18.84,0-32.4,5.28-40.56,16a31.1,31.1,0,0,0-6.48,13.68l46-1,.84-.6,15.36.36,1.56,2A5.54,5.54,0,0,1,378,50a10.5,10.5,0,0,1-.24,2.4l-.6.84h-9.24l-8,.24H328.56L313.2,53q.18,13,6.12,19.44C325.68,79.56,337.56,83,354.72,83a55.55,55.55,0,0,0,24.84-5.4,53.46,53.46,0,0,0,10.32-6.48l.6,1.08a12.73,12.73,0,0,1,.24,2.52c0,3.48-1.92,6.84-5.88,10.2C379.32,89.64,371.4,92,361,92c-22.92,0-38-5.64-45.48-16.8a31,31,0,0,1-4.8-13.32c-.12-1.8-.24-5-.24-9.84a35.79,35.79,0,0,1,10.2-25.2A53.63,53.63,0,0,1,343.32,12.6c8.52-3,16.08-3.72,22.56-2.16,6.84,1.56,10.2,5.28,10.2,11.16a5.49,5.49,0,0,1-.12,1.92Zm190.8,19c-.12,0-.36.12-.48.48l-.12.84a71.12,71.12,0,0,0-18.24-12.72C531.84,23.16,514,19.2,493.56,19.2c-13.92,0-24.72,7.8-32.28,23.28a80.11,80.11,0,0,0-7.2,24.36q0,27.9,18.84,67c4.56,9.48,10.92,21.6,19.2,36.36l22.2,39.48c18.6,34,32.4,64.08,41.28,90.6a342.57,342.57,0,0,1,18.84,111.12c0,13.08-1.08,23.88-3.12,32.52-.84,3.48-4.92,16-12.24,37.68q-7,20.52-41.88,45.72a228.41,228.41,0,0,1-25.92,16.32C483.36,547.8,478,550,475.2,550c-20.76,0-36.24-7.08-46.56-21.36a53.77,53.77,0,0,1-7.68-15c-1.2-3.72-1.8-6.24-1.8-7.68a27.26,27.26,0,0,1,2.28-11.4A90.13,90.13,0,0,0,427,482.28h.84l.24.48v2c0,1.56-.72,5-2.28,10.56s-2.28,8.76-2.28,9.72,1,3.12,2.88,6.6A67.83,67.83,0,0,0,433.8,523c8.16,10.2,16,15.36,23.52,15.36q57.06,0,89-49.2a149.13,149.13,0,0,0,18.72-41.88c3.72-13.2,5.64-25.2,5.64-36.12,0-35.16-6.24-70.44-18.72-106.08q-13.14-37.26-41.16-88.32l-22.08-39.48c-8-14.76-14.52-27.24-19.2-37.56q-18.72-40.86-18.72-72.6c0-22.92,6-39.24,18-48.72,10-7.8,23.16-10.68,39.84-8.64A107.52,107.52,0,0,1,548.28,23c12.12,6.72,18.12,12.36,18.12,17C566.4,41.88,566.28,42.6,566.16,42.48Z" transform="translate(-16.2 -6.71)"/></svg>