<svg id="Layer_1" data-name="Layer 1" xmlns="http://www.w3.org/2000/svg" viewBox="0 0 515.34 345.48"><defs><style>.cls-1{fill-rule:evenodd;}</style></defs><path class="cls-1" d="M190.08,150.72q37.26,56.7,31.44,124.2a625.73,625.73,0,0,1-8.76,63.72c-4.68,25-14.28,47-29,66.12q-34.74,17.82-69.6,1A43.24,43.24,0,0,1,98.88,393.6q-41-51.12-46.8-116.76A236.69,236.69,0,0,1,74.4,152.4q18.9-40,66.24-39.24a76.4,76.4,0,0,1,12.72,2.28,58.23,58.23,0,0,1,25.68,15A123.16,123.16,0,0,0,190.08,150.72Zm-9-26.76c-11.64-15.72-27.72-23.4-48-22.8q-46.8,3.06-64.56,44.4a271.47,271.47,0,0,0-21.6,127.32A266.91,266.91,0,0,0,80.64,386.52q24.48,43.92,76.2,40.2Q179.7,425.1,193.56,408a86.62,86.62,0,0,0,15.12-28.92,467,467,0,0,0,19.68-127.92,164.76,164.76,0,0,0-11.16-62q-8.82-22.5-18.36-45c-4-9.48-9.72-16.2-17-19.92A1,1,0,0,1,181.08,124ZM388.2,158.52l-13,125.88q-6.3,62.1-14.28,123.36-9.9-47-22.56-93.36c-4.32-16-8.4-31.8-12.36-47.52a402.08,402.08,0,0,0-20.28-61.2c-3,23.52-5.28,47.64-6.6,72.24a1177,1177,0,0,1-13.68,123.84l-8.4-51.12q-10.08-63-21.72-125.76T227.52,100.44c-1.44,14.28-.12,29.4,3.84,45.48l11.76,47q9.9,38.7,16.8,78.12,10.8,62.46,16.68,125.4c1.08,11.88,4.32,22.08,9.6,30.72a285.15,285.15,0,0,0,13.08-70.56c2.4-41.4,5.4-82.8,9.12-124a361.17,361.17,0,0,0,10.8,42.12,927.81,927.81,0,0,1,31.2,125.28c2,12,6,22.08,11.88,30.36A198.64,198.64,0,0,0,373.44,377q4.5-63.18,11.28-126,6.84-62.64,17.52-124.56c1.8-10.2,0-17.64-5.28-22.32A483.83,483.83,0,0,0,388.2,158.52Zm168.12-50.28c-3.84,21-7,42.48-9.36,64.2a1170.67,1170.67,0,0,0-6.72,124.92,783.76,783.76,0,0,1-10,124.2c-8.28-24.6-15.6-49.8-21.84-75.36q-15.3-62.46-28.56-125.28l-27-124.8q-.72,0-.72.36c-4.2,35.88-7,72-8.16,108.6q-2,62.82-6.72,125c-.84,10.44-1.92,20.88-3.36,31.44a535.71,535.71,0,0,0-4.8,62.64,131.82,131.82,0,0,0,10-43q4.5-62.46,7.68-125,3.42-62.46,7.2-124.68l12.12,60.12q12.78,62.64,27.12,125.16a1114.11,1114.11,0,0,0,36.6,124.8c9.48-15.6,14.4-33.48,14.52-53.64.36-41.4,1.32-82.68,2.64-124.08A846.68,846.68,0,0,1,560.52,139.2C562.8,126.6,561.48,116.28,556.32,108.24Z" transform="translate(-46.26 -96.12)"/></svg>