<svg id="Layer_1" data-name="Layer 1" xmlns="http://www.w3.org/2000/svg" viewBox="0 0 296.12 204.48"><defs><style>.cls-1{fill-rule:evenodd;}</style></defs><path class="cls-1" d="M219.72,198.6q-37.62,9.54-49.32,47.52a272.5,272.5,0,0,0-10.68,54.36,115.44,115.44,0,0,0,11.52,62.16,63.56,63.56,0,0,0,26.4,28.08c13.8,7.92,28.68,9.36,44.76,4.32q43-13.32,55.44-57.72,16-56.7-10.2-108.72a45.92,45.92,0,0,0-11.28-14.4Q252.6,193.86,219.72,198.6Zm30,15.12a14.13,14.13,0,0,0,8,8.16q33.3,14.94,38.28,52.2A125.51,125.51,0,0,1,290.52,331c-11.4,34.44-35.64,51.12-72.72,49.8a34.82,34.82,0,0,1-11.76-2.4q-28.26-11.7-34.8-41.28a164.54,164.54,0,0,1-.24-69.72c7.32-34.68,28.68-52.92,63.84-54.72l14,1Zm120.84,93.12a135.68,135.68,0,0,0-23.28-39c-12.12-14.28-14-28.32-5.52-42.12,8-13.08,18.72-15.12,31.92-6,2.76-3.84,2.52-7.92-.6-12.12-6.72-9.48-15.12-10.8-25.08-4.08q-35.1,23.76-8.88,59,27.54,37.08,24.12,79.8c-1,11.88-6.6,21-17,27.12a59.73,59.73,0,0,1-35.88,8.16,54.64,54.64,0,0,1-9.72-1.56c-3.36,6.12-2.4,10.8,2.76,13.8,11.64,6.84,23.76,7.2,36.36.84,25.68-13.08,37.32-34.44,34.8-64.32A91.27,91.27,0,0,0,370.56,306.84ZM394.8,199q-4.68,34.38-6,69.72Q386.28,332.76,386,397c.48,1.92,1.56,2.64,3.36,2.16a158.55,158.55,0,0,0,4.2-35.76c.12-12.24.48-24.36,1.08-36.48L396,296.76c16.92,0,33.84-.36,51-1.2.12,13.32.36,26.76.84,40.2A208.34,208.34,0,0,1,446.4,368c-1.44,12.24,0,22.8,4.32,31.8a15.55,15.55,0,0,0,3.6-9.6q1.62-33.3.72-66.6C454,280.32,453.6,237.48,454,195.36c-2.76,2.52-4.32,6.36-4.56,11.28q-2.16,36.9-2.4,73.92l-17.28-.48a125,125,0,0,0-33.36,3.84c.6-28.68.24-57.12-.84-85.32Q394.8,198.78,394.8,199Z" transform="translate(-159.24 -195.36)"/></svg>