<svg id="Layer_1" data-name="Layer 1" xmlns="http://www.w3.org/2000/svg" xmlns:xlink="http://www.w3.org/1999/xlink" viewBox="0 0 578.4 593.04"><defs><style>.cls-1{fill:none;}.cls-2{clip-path:url(#clip-path);}.cls-3{fill-rule:evenodd;}</style><clipPath id="clip-path" transform="translate(-9.48 1.08)"><rect class="cls-1" x="9.48" width="578.52" height="592.08"/></clipPath></defs><g class="cls-2"><path class="cls-3" d="M259.08,546.72c-8.52,1.8-15.36,4.08-20.52,7.08-5.52,14.88-11.28,26.76-17.16,35.64l-1-2.16-.12-3c0-1.32,4.2-12.84,12.6-34.32q10.44-26.46,21.48-53.28l11.4,40.44.72-.12.84,1.32a5.69,5.69,0,0,1,.48,2.76,5,5,0,0,1-.36,1.92l1.56,5.64c6.48,22.44,9.72,34.8,9.72,36.84l-.36,2.4-1.08,1.56c-5.76-9.24-10.44-22.08-14.16-38.4l-1.08-4.92Zm-5.28-35.16q-3.06,7.38-7.2,19.08l-4.08,11.76,18-4.08L259,530.88C257.16,523.08,255.48,516.6,253.8,511.56Zm56.52-100.8q-.54,22.5-5,65.88l3.24-.6,10.08-.6a10.33,10.33,0,0,1,1-4.2l2.16,3.72,5.4-.48c9-7.2,14.76-12.36,17.16-15.48a24.86,24.86,0,0,0,4.56-15.12,32.15,32.15,0,0,0-4.68-17.28q-5.22-8.28-17.28-16.2l-10,.12Zm-5-11.52,21.84.24c10.92,4.44,18.24,11.4,22,21,2.28,5.76,3.48,13.68,3.48,23.64a79.09,79.09,0,0,1-.48,10.8,28.26,28.26,0,0,1-2.88,9c-3,5.64-10.32,12.84-22,21.72,5.16,10.08,12.6,24.84,22.08,44.16,15.48,30.12,25.32,45.12,29.28,45.12,1.08,0,1.68-.36,1.92-1.08s.6-1.08.72-1.08l1.32,2.4a12.08,12.08,0,0,1,.36,3.24,16.26,16.26,0,0,1-.72,4.92,9.31,9.31,0,0,1-2.28,4.32c-11.16-6.72-24.48-25.92-40.2-57.72-5.88-11.76-10.92-23.16-15.24-34.08L321,486.36l-6.36.6q-6.66.72-7.2,1.08l-3.36-.12-1.92,17.16C297,547.92,293,575.88,290,588.72a4.49,4.49,0,0,1-2.76-3.12,19.73,19.73,0,0,1-.12-3.24c0-1.8,1.44-13.56,4.44-35.16,3.24-23,6-42,8.52-57l.12-2.4-2-.12a6,6,0,0,1-1.08-2.16,17.67,17.67,0,0,1-.24-3c0-2.64.6-4.44,1.92-5.28l2.16-.12,2.28-33.6c1-12.6,2.16-23.4,3.48-32.52l-.36.12-2.52-.24a34.51,34.51,0,0,1-.48-5.64,14.22,14.22,0,0,1,.6-3.84A4.45,4.45,0,0,1,305.28,399.24Zm-12.36-92L290.64,311v79.8q29.88-.72,39.6-14.4a24.44,24.44,0,0,0,4.44-11.52,74,74,0,0,0,.36-9.24,77,77,0,0,0-4.68-25.56q-5.94-17.46-16.2-19.08a43.59,43.59,0,0,1-9.36-2.16A58.07,58.07,0,0,0,292.92,307.2Zm-5.52-4.32c0-2.28.48-3.84,1.44-4.56s2.64-.84,5-.36q4.68.9,24.12,6.84a33.08,33.08,0,0,1,9.12,8q3.78,4.5,4.68,7.92c2.52,9.24,4.44,16.08,6,20.64.36,1.32.48,6.24.48,14.76l-.12,9.36A41,41,0,0,1,334.68,380c-5.64,12.84-17.64,19.2-35.88,19.2L289,399a27.89,27.89,0,0,1-1.8,5.4c-1.32-1.32-1.92-3.6-1.92-6.84a34.56,34.56,0,0,1,.72-5.88A50.77,50.77,0,0,1,287.4,385V305.4l.12-.6ZM224.88,87.24Q217.14,72.3,214.8,66.36c-2.16-5.88-8.16-12.36-17.88-19.68C186,38.4,175.08,33.24,164,31.08Q106.8,19.92,72,91.32q-11.52,23.4-19.8,54.48c-1.32,5.4-4,16.92-7.8,34.56q-5.22,26.28-17.28,80.76c-6.6,32.28-10.56,59.28-11.64,80.76V404.4c-.72,5.88-1.08,14.88-1.08,26.76,0,13.44,1.8,28.44,5.4,45.12a253.41,253.41,0,0,0,15.36,48.36c7.08,16.2,15,29,23.76,38.28,9.72,10.44,19.92,15.72,30.36,15.72,35.16,0,65.64-9.12,91.2-27.24q32.4-22.86,53.28-64.44c11.16-22.32,19.56-47.64,25-76A322.89,322.89,0,0,0,265,349.32q0-47.52-2.76-78c-2-22-6.12-49.92-12.48-84L242.64,147c-3-16-6-29.28-9.12-40Q231.54,100.38,224.88,87.24Zm-20-52.44c0-.6.48-1,1.32-1,3.36,0,9.48,10.08,18.24,30.36,8.52,19.44,14.28,35.76,17.28,49.08,2.4,10.44,5,23.52,7.8,39.24L256.32,192q7.92,45.18,10.8,81,2.7,32.4,2.64,76.92c0,6.36.24,17.76.6,34.32a135.57,135.57,0,0,1-.72,18.72c-.72,5-2.64,12.72-5.64,23.16l-14.28,47.52c-5.28,17.88-18.84,38.52-40.8,61.68A261,261,0,0,1,175.8,565c-24.12,18-45.84,27-65.4,27q-56.88,0-83.64-68.16A249.31,249.31,0,0,1,12.84,470a250.38,250.38,0,0,1-3.36-38.88q0-21.06,1.08-31.68V337.8c.6-23.28,4.8-52.68,12.36-88.08q13.86-59.4,19.32-88.08Q51.42,113.4,72.48,74A151.84,151.84,0,0,1,86.4,52.2a154.19,154.19,0,0,1,20.16-21.84C124,14.52,144.12,10.56,166.8,18.6a160.8,160.8,0,0,1,22.8,10.92c7.56,4.2,12.12,6.36,13.92,6.36C204.36,35.88,204.84,35.52,204.84,34.8ZM323,18.72q-2.16,9.72-2.16,14.4l.72,10.8a7,7,0,0,1,.36,2.52v1.08l.6,10.8c1.08,17.28,1.68,28.08,1.68,32.4l-.36,13.8-.6.48-.72,1c-3.48-3.24-4.92-8.76-4.44-16.56,1.32-9,1.8-15.48,1.68-19.44L318.72,48.6c-3.36.72-7.08,2.52-11.28,5.4l-6.72.24-7.44.84L280,56.16c-1.08,23.64-2.4,39.12-4,46.2a8.1,8.1,0,0,1-1.44-4.08l-.12-4.56.6-18L276.12,55l-.36-.72a9,9,0,0,1-.24-2.4,4.4,4.4,0,0,1,1.08-3.24v-.36l-.36-23c-.12-9.24,1-16.56,3.24-21.72a11.07,11.07,0,0,1,2.64,3.12l1,2q0,3.78-2.16,22.32l-.6,16c3.12-.84,7.8-1.32,14-1.68l15.72-1.56,8.16-1.2-.6-9.12c-.36-7.8-.48-13.92-.36-18.12.12-7.68,1.56-13.08,4.2-16.32a13,13,0,0,1,2.76,3,5.19,5.19,0,0,1,1.08,2.52C325.32,7.44,324.6,12.24,323,18.72ZM485.76,229.56a2,2,0,0,1-2,1.68c-2.76,0-9.6-2-20.76-6.24l-16-6.24c-11.64,0-24.24,6-37.8,17.88a115,115,0,0,0-22,24.84c-3.24,5.16-5.76,12.48-7.44,22.08-1,5.4-2.16,12.84-3.72,22.56-.6,3.36-2.28,14.88-4.8,34.68A145,145,0,0,0,388,339l10.68-2.64a34.28,34.28,0,0,1,9.72-1,88.16,88.16,0,0,1,16.44,3c19.8-.24,30.12-.48,30.84-.84l7.92.24,1.2,2.28a10.8,10.8,0,0,1,.36,3,7.41,7.41,0,0,1-1.8,5.28l-4.44.36-5.4.72-28.68-.24a31.54,31.54,0,0,0-5.64-1.56l-6.72-1.2L398.28,348l-16.2,2.52a36.28,36.28,0,0,0-7.8,2.28c-1.2.6-2.4,1.2-3.72,1.8h-1c-2.64,21.36-4,35.28-4,41.64a191.67,191.67,0,0,0,2,23.52L371,444.12a92.39,92.39,0,0,0,1.56,11.4,19.12,19.12,0,0,0,8.64,11.16l5.88,5a86.27,86.27,0,0,0,9.12,7.44c9.48,6.36,20.76,9.6,34,9.6,22,0,40.8-8.64,56.76-25.92A107.63,107.63,0,0,0,512.28,416l1.08-.24,1.2,2.28a9.69,9.69,0,0,1,.36,3q0,2.7-4.68,14A162.3,162.3,0,0,1,496.32,462q-24.66,38-55.8,37.92c-19,0-35.4-4.44-49.2-13.2-14.88-9.48-23-22.08-24.6-37.68l-3-25.44a249.84,249.84,0,0,1-1.92-26.88c0-13.32,1.68-32.28,4.92-56.64l7-53.4c2.76-12.12,5.52-21.12,8.28-27.12a74.45,74.45,0,0,1,21.72-27.24c14.4-11.4,26.28-19.2,35.76-23.52,2.28-1.08,10.44.84,24.72,5.88s21.6,8.88,21.6,11.28ZM379.68,104c0,1.32-2.76,14.76-8.16,40.32L359.4,202.2l-10.32,49.56c-4.56,18.84-10.08,35.16-16.56,48.72-3.6-7.32-6.72-16.92-9.48-28.68l-6.12-30.6a269,269,0,0,1-4.2-29.4c-.6-6.12-1.32-16.32-2.28-30.6h-.6c-3.24,27.24-6,47.52-8.52,60.84q-6.3,33.84-16.68,60.6c-1.8-11.16-3.36-27-4.56-47.52-1.32-24.48-2.4-40.44-3.24-48-.36-3.12-3.24-18.36-8.64-45.6-4.68-23.88-7.08-40.56-7.08-49.8a28,28,0,0,1,.72-5.28,17.63,17.63,0,0,1,1.68-5.64,6.18,6.18,0,0,1,2.64,6.12l-1.2,6c0,2.28,1.08,10.08,3.36,23.52L275.76,181q10.8,67.86,10.8,100.8v.36q8.1-27.54,14.4-66.72,6.48-44.82,10.2-67c2,3.72,3.24,9.24,3.6,16.44q.18,6.12,0,17.64c0,3.48.72,9.24,2.16,17.4s2.16,14,2.16,17.52c-.24,9,1.2,20.52,4.44,34.68,1.8,7.92,4.56,19.32,8.28,34.32h.48Q340.2,265.74,347,235c2.76-12.6,6.36-31,10.68-55.08q6.3-35.46,9.36-49c3.48-15.72,7.2-26.76,10.92-33.36A11.24,11.24,0,0,1,379.68,104ZM411.36,1.92l1.08-.84c1.56,5.4,2.52,13.56,3.12,24.24.72,13.44,1.32,21.6,1.68,24.6.84,5.52,3.24,15,7.32,28.56l5.64,19.8a6.56,6.56,0,0,1-.48,2.88l-1.08,1.56c-6.36-11.16-10.68-25-13-41.28-.84-5.88-1.68-13-2.28-21.48l-1.56-21-.48-.6L400.56,58.8C396,75.24,391,88.68,385.32,99.36c-4.08-11.16-6.36-24.6-7-40.56,0-18.36-.12-32.28-.36-41.52-2.16,5.64-4.68,13-7.44,22l-7,22.32c-6,17.76-13.32,32.4-22.08,44l-.72-1.2a9.06,9.06,0,0,1-.36-2.76c0-1.8,4.68-14.88,14.16-39.12,9.24-23.64,17.64-44.4,25.32-62.52.84,1,1.44,3.72,1.68,8.4v8.16c0,2.76.48,13.08,1.56,31.08,1.08,19.8,2,32.64,2.76,38.52A273.21,273.21,0,0,0,400.56,44.4Q404.34,30.36,411.36,1.92Zm30.12,101a26.8,26.8,0,0,1,.72,5.64c0,6.6-1.92,23.88-5.76,51.72s-6.48,43.44-7.8,47.4c-6.12-10.32-11.4-24.6-16-43L407,142.2a189.15,189.15,0,0,0-7.68-23.28h-.72c-1.8,9.72-3.84,24.24-6.36,43.8-2.64,17.4-6,31.92-10.2,43.56a5,5,0,0,1-1.32-2.16,19.84,19.84,0,0,1-.24-3.24c0-2,1.44-10.56,4.44-25.44l5.28-26.52,3.6-25.92c1.56-10.8,3.48-19.32,5.88-25.44q10.62,46.26,28.08,99v.24a914.07,914.07,0,0,0,10.08-97.92l.48-.48,1.08-1.2A15,15,0,0,1,441.48,103ZM587.76,52.44c-.36,2-1.32,3.12-2.88,3.36a31,31,0,0,0-5.16-7.56,77.52,77.52,0,0,0-11.52-11C556.08,27.72,543.36,23,529.8,23c-11.4,0-19.44.24-24.24.6-7.2.6-13.08,1.8-17.52,3.84A31.69,31.69,0,0,0,475.2,37.56c-3.6,4.68-7,11-10.08,19.32-1.44,4.08-3,9.84-4.8,17.4-2.16,9-3.24,15.48-3.24,19.2q0,28.08,33.36,94.92,23.4,47,46.44,82.8,20,31.14,33.24,85.32,12.42,50.76,12.48,91.68A205,205,0,0,1,580,480a198.12,198.12,0,0,1-12.48,45.48q-24.66,58.5-80.4,61.08l-28.92-.36q-33.48-7.2-53.64-29.52a76,76,0,0,1-12.36-18.36c-2.52-5.76-3.84-10.8-3.84-15.12,0-3.48.12-5.88.24-7,.6-3.72,1.8-5.76,3.84-6.36,0,12.6,3.6,23.4,10.92,32.16q15.48,18.54,54.84,31.2l30-.24c34.44-2,59.4-20.28,74.88-55a167.12,167.12,0,0,0,12-40.56,176.5,176.5,0,0,0,2.64-29.28q0-60.66-19.56-115.08-13.5-37.26-43.2-86l-23-37.44c-8.4-14-15.12-26.28-20-36.72q-19.62-41-19.68-79.44c0-17,3-32.76,9.12-47.16q14.76-35.46,48.48-36,32.58-3.78,58,14a67.5,67.5,0,0,1,15,14c3.48,4.32,5.16,7.44,5.16,9.48Z" transform="translate(-9.48 1.08)"/></g></svg>