<svg id="Layer_1" data-name="Layer 1" xmlns="http://www.w3.org/2000/svg" xmlns:xlink="http://www.w3.org/1999/xlink" viewBox="0 0 526.44 589.02"><defs><style>.cls-1{fill:none;}.cls-2{clip-path:url(#clip-path);}.cls-3{fill-rule:evenodd;}</style><clipPath id="clip-path" transform="translate(-12.96 -0.78)"><rect class="cls-1" x="12.96" width="526.56" height="589.92"/></clipPath></defs><g class="cls-2"><path class="cls-3" d="M292.08,496.8l-.36,2.64-1.56,1.8h-.72l-1.56-3.36a51.69,51.69,0,0,0-5.52-6.12h-14c-12.84-1.08-24,6.12-33.72,21.6a87,87,0,0,0-6.36,12.48l17.28-1.56,21.6-1.32,11.76-.6.24,1.2.24,2.52v2.28c-.36.6-1.32,1.2-3,1.56-3.24.72-13.92,1.68-31.92,3l-13.08.6-6.36,1a32.67,32.67,0,0,0-1.92,9.48,38.24,38.24,0,0,0,1.32,8.28,57,57,0,0,0,5.16,12.36c6.36,10.8,15.72,16.2,27.84,16.2,12.48,0,22.92-2.4,31.44-7.32a39.73,39.73,0,0,0,7.2-5.28l3.12-3.12L297,569.64a47.16,47.16,0,0,1-5.76,8.4c-6.6,7.8-14.64,11.76-24,11.76-19.08,0-32.52-6-40.32-18.12a41.27,41.27,0,0,1-6.84-23.16,71.45,71.45,0,0,1,1.68-15.24l-.84-.6a1.72,1.72,0,0,1-.6-1.32,4.37,4.37,0,0,1,0-1.8,3.77,3.77,0,0,1,2.16-2.16l.84-.36a80.13,80.13,0,0,1,5.76-13.8c7.2-13.68,17.4-23.4,30.48-29l6.12.12,16.92.48a51.37,51.37,0,0,1,6.6,6.12C291.12,493.08,292.08,495,292.08,496.8Zm-165-96.72.48-.48,1.08-1.2c4,14.76,7.92,35.28,11.64,61.56,4.44,30.6,7.68,51,9.72,61.08v45.48l1.08,3.72c4.92-10.92,9.84-25.56,14.64-44l4-22.56q2.34-14.22,6.84-21.6,3.06,19.62,6.12,44.28l5.28,45v.36q11-33.48,20.88-88l7.92-44.16c3.12-17.16,6-31.32,8.52-42.72a15.64,15.64,0,0,1,1.92,8c0,8.76-5.16,37.56-15.48,86.64C201,541.8,193.32,573,188.4,585.12c-4.44-9.36-7.44-22.56-8.76-39.6l-1.56-20.88A151.73,151.73,0,0,0,175,504a253.47,253.47,0,0,1-26.28,82,39.37,39.37,0,0,1-1.32-6.6l-1.08-7.2V526.68c-2.52-12.36-5.76-32.28-9.48-59.76-3.72-27-7-47.16-9.72-60.36ZM72.84,416.4l-6.12,26.16,3-1.44a92.92,92.92,0,0,1,18-5.88,38.61,38.61,0,0,0,9.48-3.48l7.44-4a7.54,7.54,0,0,1,4-1.08Q98,357.6,97.44,323.16L91,343.44c-6.12,19.08-10,32.28-11.4,39.84Zm76.68-97,.24,9.12c0,4.32-1.08,13.44-3.36,27.24l-4.2,24,23.28-.6,5.52.24,4,.6,24-.24a8.14,8.14,0,0,1,2,2.28,5.28,5.28,0,0,1,.72,3,9.69,9.69,0,0,1-.36,3L200,390l-13.32-.12-13.44-.6c-17.88.72-28.92.36-33.12-1-1.56-.36-2.52-1.08-2.64-1.92l.36-2.16c0-6.84,1.56-21.36,4.56-43.44s5-33.24,6-33.84A124.29,124.29,0,0,1,149.52,319.44Zm-49.68-9q7,63.9,17.16,135.6,2.88,20,13.8,79.08c6.72,35.88,10.08,54.36,10.08,55.32,0,3.6-1,6-3,7.2q-11.16-50.4-23.76-125.76c-1.56-9.48-3-18.48-4.32-27.24l-3.48,2.64c-3.6,2.52-7.68,4.92-12.12,7.44C81.84,451.56,72,455,64.92,455l-1.44-.12a1152.78,1152.78,0,0,1-44,129.36c-1.56-1.8-2.4-4.56-2.4-8.16,0-1.56,6.12-19.92,18.36-54.84q20.16-58,25.44-79.32c2.16-8.52,4.68-19.68,7.44-33.48l6.84-33.6c5.88-26.52,13-48.36,21.48-65.52a3.94,3.94,0,0,1,2.16,2.4ZM268,209.16a26.35,26.35,0,0,1-1.08,8.16V274q-4.32,29.7-9.48,88.92C253.68,398.4,248,428,240.72,451.8l-.36.72,31.56-3.36c14.52-1.8,24.48-2.52,29.88-2.28l27.36-.24.24-4.08.84-.24a63.14,63.14,0,0,0,1.08,6.36,31,31,0,0,1,.84,5.4,13,13,0,0,1-.6,4.2c-.6,1.44-1.44,1.92-2.64,1.56L315,459.48l-14.28-.72c-15.36-1.08-29-.48-41.16,1.92a95.77,95.77,0,0,0-10.2,2.76l-3.84,1.32-9.12-.24a18.14,18.14,0,0,1-1.68-8.52c0-.84,2.64-13.68,7.8-38.52,5.64-26.88,9.24-45.36,10.56-55.32,1-10.08,2.64-25.44,5-46.2,2.4-20.28,4.08-35.76,5-46.32V213l.24-7.08c.24-2.76,1.2-4.44,3-4.92A17.33,17.33,0,0,1,268,209.16Zm66.36-70.56.24,12.72c0,7.2-.12,11.4-.24,12.6a25.77,25.77,0,0,1-5.16,13.2c-7.68,10-25.08,17-52.2,21a13.08,13.08,0,0,1-3.12-3.36,3.5,3.5,0,0,1-.72-1.8l.12-1.56a4.13,4.13,0,0,1-1-2.16c0-7,1.68-20.52,5.16-40.68,3.24-19.08,4.56-32.88,4.08-41.4h1l.12-.84c23.88-1.2,39.6,4.44,46.92,16.8A36.77,36.77,0,0,1,334.32,138.6Zm-27.24-23.16-9-1.08-8-.48a14.7,14.7,0,0,1-5.64-1.44l.36,10.2c0,5-1.44,17.64-4.2,37.92l-4.2,28.92h.6q32.94,0,46.8-16.56a33.37,33.37,0,0,0,8.16-21.84Q331.92,119.94,307.08,115.44ZM199.32,208.32c0,7.32-1.32,21-3.84,41.28-2.28,19.32-4.08,31-5.16,34.68-1.08-1.08-1.56-3.24-1.56-6.24,0-5.88.6-16,1.92-30.48q2.88-31.68,7.56-45.72A15,15,0,0,1,199.32,208.32Zm-22.08-94.56a102.09,102.09,0,0,0-11.28-29c-1.44-2.52-6.72-12.36-15.72-29.4-6.24-11.88-11.76-21.12-16.68-28a.87.87,0,0,1,.48-.72c.36-.12,1-.36,1.92-.72Q101.58,5,75.48,21.48,54.24,34.62,39.36,71.88q-11.16,27.54-17.52,65c-3,17.76-4.56,30.84-4.56,39.24l.48,18.36a194,194,0,0,0,5.76,37.68Q37.74,286,78.24,286.08q26.46,0,48.24-18.72c11.88-10.32,22.44-24.72,31.44-43.08a229.11,229.11,0,0,0,17.16-47.76c3.48-14,5.28-25.08,5.28-33A134.07,134.07,0,0,0,177.24,113.76Zm7.92,29.16c0,15.48-2.64,32.64-7.92,51.24a245,245,0,0,1-21,51c-9,16.44-18.72,29.52-29.16,39.12-11.4,10.44-22.32,15.6-32.88,15.6-34.44,0-58.08-16.2-70.68-48.72Q12.9,223.8,13,176.4c0-10.08,1.44-23.52,4.32-40.44a390.35,390.35,0,0,1,13.92-56q10.62-31.86,24.48-51C66.72,13.8,78.84,5.28,92,3.48c20-7.32,38.16.24,54.12,22.92a169.66,169.66,0,0,1,15,27.12c2.52,5.64,5,11.88,7.8,18.72,7.32,15.84,12,28.2,13.92,37.08C184.44,116.64,185.16,127.8,185.16,142.92Zm70.2-10.08a41.33,41.33,0,0,0-7-11.88c-8-9.6-19-13.32-32.88-11.28V111c0,3.72-1.68,17.28-4.92,40.68l-4.2,31.08,3-1.2L229,174c18.84-8.4,28.2-19.68,28.2-34A23.5,23.5,0,0,0,255.36,132.84Zm-44.28-28.08.12-.36c18.84-5,32.64-1.2,41.16,11.4a45.66,45.66,0,0,1,6.24,14.76,44.45,44.45,0,0,1,1.32,9.48c0,3.72-1,8.16-3,13.44a68.44,68.44,0,0,1-9.12,17c-10.44,13.8-23.76,20.76-40.08,20.76l-4.32-.12-2.28-.12-.24-1.08a15.28,15.28,0,0,1-.24-2.64c0-.6.48-1.32,1.56-2.16L206.76,152l5.64-41.88-1,.24-.24-.84A12.73,12.73,0,0,1,211,107,10.45,10.45,0,0,1,211.08,104.76ZM409,138.84a103.57,103.57,0,0,0-17.52,22.44Q385,173,385,181.44q0,37.26,27.6,82.08c13.32,21.36,34.32,48.24,63.24,80.52q39.24,43.74,53,83.52a179.68,179.68,0,0,1,8.52,38,335.38,335.38,0,0,1,2,39.6c0,29.16-16.08,51-48.12,65.76a174,174,0,0,1-39.36,12,169,169,0,0,1-31.08,3.24q-44.82,0-75.72-41.64a147.25,147.25,0,0,1-16.92-29c-3.48-7.92-5.28-12.72-5.28-14.4a26.1,26.1,0,0,1,.84-7.68,18.59,18.59,0,0,1,4.56-7.32l-2.16,4.08q9,34.74,40,59.76a112,112,0,0,0,25.56,15.84c8.28,3.72,15.24,5.52,21.12,5.52q56.16,0,88-19.44,33.48-20.7,33.48-59.76,0-42.48-26.76-90.6a316.06,316.06,0,0,0-45.48-62,392.12,392.12,0,0,1-55-74q-26.1-45.72-26.16-77.28c0-14.16,2.4-25.56,7.32-34.2q9.36-16.56,37.56-36.84c14.28-10.2,28.2-15,41.52-14.28,10.8.6,21,4.8,30.48,12.6a82.66,82.66,0,0,1,19,22.32c4.32,7.2,6.48,12.24,6.48,15l-.36,3-.72,2.28-1.08.24c-8.28-18.6-17.4-31.32-27.36-38-7.32-4.92-17-7.44-28.92-7.44a68.35,68.35,0,0,0-30.36,7.56A101.77,101.77,0,0,0,409,138.84Zm-50-123.6c0,3.84-8.28,10-25,18.36-17.64,8.16-27.6,13-29.64,14.28C286.08,59.52,267.12,72,247.44,85.56q22.68.18,61.92,0c29.76.36,44.88.72,45.48,1.08l20.88.48a11.12,11.12,0,0,1,1.92,6.48,9.46,9.46,0,0,1-.48,3.36l-1.44,3.12-11-.6-10.92-1-22.44-.36-23-.72L281.16,97l-10.56.48a5.53,5.53,0,0,0,2.52.84H269.4c-24.36-.12-39-1-43.92-2.76-1.92-.6-2.76-1.56-2.52-2.64a9.07,9.07,0,0,0,1-3q0-5.4,43.44-32.28,41.94-25.92,66.72-37.08l-11.64-.24L310,19.44,275.28,19c-20.88-1.44-33.48-2.64-37.8-3.48-2.52-.36-4.08-1-4.8-1.68A4.23,4.23,0,0,1,232,11c0-1.8.24-2.88.72-3.36.6-.72,2.28-1.08,4.8-1.08l38.4,2L311,9.72h41.64C356.88,9.6,358.92,11.52,358.92,15.24Z" transform="translate(-12.96 -0.78)"/></g></svg>