<svg id="Layer_1" data-name="Layer 1" xmlns="http://www.w3.org/2000/svg" viewBox="0 0 488.42 399.84"><defs><style>.cls-1{fill-rule:evenodd;}</style></defs><path class="cls-1" d="M251.64,123.12q-18-37.8-62.16-35.4c-34,6.6-63,22.56-87.12,47.64A298.64,298.64,0,0,0,32,253a215.51,215.51,0,0,0-8.4,94.56,202.37,202.37,0,0,0,37.08,93.24q28.62,39.06,76.8,42.72,86.76,6.66,142.92-59.28Q327.06,369.48,321,299.28a223.16,223.16,0,0,0-4.92-31.92c-4.44-20.52-10-40.92-16.32-61.08A211.54,211.54,0,0,0,251.88,124ZM219,102.48a56.54,56.54,0,0,1,16.92,10.08c-2.76,5.88-1.68,10.8,3.12,15a133.56,133.56,0,0,1,29.64,36.72,438.5,438.5,0,0,1,44.64,120,112.52,112.52,0,0,1,1.44,39.12q-8.46,65.7-60.36,109.32-51.66,43.38-118.8,37a83.44,83.44,0,0,1-29.88-8.76q-43.2-22.14-63.48-66.84-27.54-60.66-8-125A333.49,333.49,0,0,1,93.84,156.48q43-53.46,110.76-58A75.34,75.34,0,0,1,219,102.48Zm157.08-.24c24.6-5.64,47.88-2,69.6,10.8q57.06,33.3,47.16,97-6.48,40.86-39.6,65.52l-1.92,1.68A347.17,347.17,0,0,1,353.76,327l14.76-108A817.75,817.75,0,0,0,376,102.12ZM388.56,87a20.6,20.6,0,0,0-12.12,3.12l-1.2.84-.24.72-.36,1.08a12.88,12.88,0,0,0-2.4,6.72q-2.88,34.38-6.6,69L351.84,295.2a1090.65,1090.65,0,0,1-21.6,127.68,133.48,133.48,0,0,1-7.68,23.4c-6.12,13.8-7.92,27.36-5.16,40.44,4.92-3.72,8.28-9,10-15.84q14.94-62.1,23.76-125.52l.36-2a14.05,14.05,0,0,0,7.44-.6A315.94,315.94,0,0,0,436.32,304,132.2,132.2,0,0,0,444,336.84q22.14,59.58,47.28,118.92a115,115,0,0,0,16.8,28.56,7.35,7.35,0,0,0,1.44-8.16l-25.92-63q-23-55.62-43-112.2c5.28-3.72,10.44-7.56,15.6-11.76q48.42-39.06,46.08-101.76a81.43,81.43,0,0,0-10.2-37.2Q458.46,89.58,388.56,86.88Z" transform="translate(-21.74 -86.88)"/></svg>