<svg id="Layer_1" data-name="Layer 1" xmlns="http://www.w3.org/2000/svg" viewBox="0 0 366.3 346.57"><defs><style>.cls-1{fill-rule:evenodd;}</style></defs><path class="cls-1" d="M211.44,140.16q56.16,41,53.4,110.4A254.71,254.71,0,0,1,232.92,365c-16.2,29.64-41.28,47.76-75.12,54.6-29.4,5.76-51-4.2-65-29.88Q60.9,331.26,66.24,263.88q1.08-12.24,1.44-24.48C69,200.76,82,167.28,106.8,138.84l.36-.84.48-1.56,1.08-1a93.69,93.69,0,0,1,34.68-22.92,65.51,65.51,0,0,1,32.16,4.32l.36.72,1,1.68a172.87,172.87,0,0,1,20.76,11.4ZM175.8,100.92l-2-.48a83.12,83.12,0,0,0-29.88-4.92,115.89,115.89,0,0,0-51.6,41.4A100.41,100.41,0,0,0,79,163.2,384.53,384.53,0,0,0,59.4,290a278.39,278.39,0,0,0,4.44,46.8A329.62,329.62,0,0,0,78.6,390.48q10.26,27.72,36.24,40.92,37.26,18.9,75.24-2.52a106.75,106.75,0,0,0,33.36-29.16A251.94,251.94,0,0,0,272.64,277a199.64,199.64,0,0,0-10.08-92.16c-10.92-30.84-30.12-54.48-57.48-71.16a81.85,81.85,0,0,1-11.88-6.48A57.5,57.5,0,0,0,178,99.84l-1.32.72Zm244.08,1.56a737.76,737.76,0,0,1-93.6-1.56h-.48l-1.08.12-3.84,1.2-.48,1.68-.12.84-.12,1.56v2.52l.12.72v.84a258.44,258.44,0,0,0-1.92,42.6q2.16,64.26-1,128.16c-2.16,43.32-6.36,86.16-12.48,128.76-1.8,12.84,0,23.52,5.64,32.16l1-.84q3.42-24.3,6.12-49.32c4.44-42.48,7.32-85.2,8.88-128.28l.72-25c15.24,8.28,32.16,11.52,50.76,10a13.28,13.28,0,0,0,1.44-3.24l.12-.84.36-3.24-.12-2.4a11.09,11.09,0,0,0-1.8-4.8.91.91,0,0,0-.84-.48,355.94,355.94,0,0,1-49.68-6.6c.6-30.84.72-61.68.12-92.52a95,95,0,0,0-2.52-21,458.15,458.15,0,0,0,97.56,6.6l1.32-1.68.48-.84.36-.72a15,15,0,0,0,.84-5.64v-.84a22.29,22.29,0,0,0-.72-4.08,5.78,5.78,0,0,0-3.36-4.08Z" transform="translate(-59.36 -95.51)"/></svg>