<svg id="Layer_1" data-name="Layer 1" xmlns="http://www.w3.org/2000/svg" viewBox="0 0 298.42 264.74"><defs><style>.cls-1{fill-rule:evenodd;}</style></defs><path class="cls-1" d="M274.92,156.36a308.35,308.35,0,0,1,1.92,65.76A550.39,550.39,0,0,1,261.6,316a113.6,113.6,0,0,1-28.44,51.48,35,35,0,0,1-10.08,7.32Q180.42,394,157.2,353.64a152.21,152.21,0,0,1-20.52-78.72,729.62,729.62,0,0,1,11.88-125.76,6.31,6.31,0,0,0,2.16-3.36v-.72a20.8,20.8,0,0,0-4.08-10.56,258.66,258.66,0,0,0-13.44,66.12,565.29,565.29,0,0,0,4.56,127.44q5.4,36.54,34.56,59.64,30.42,24.12,60.36-2.16,26.46-23.4,36.36-58.68a435.71,435.71,0,0,0,12.12-58.2,418.79,418.79,0,0,0-1.44-126.12l-3.48.84C274,148.2,273.48,152.52,274.92,156.36Zm136.32-8.16-7-5c-15.48-5.88-30-4.08-43.32,5.16-14.16,9.84-20.16,23.4-17.88,40.56,2,15.72,10,28.56,23.64,38.52a248.23,248.23,0,0,1,34.8,30.6c10.56,11.16,16.44,24.12,17.64,38.64a84.08,84.08,0,0,1-9,45.84c-7.56,14.76-18.72,22.68-33.72,23.76a88,88,0,0,1-44.64-7.44,105,105,0,0,1-29.64-20,29.64,29.64,0,0,0-4.92,14.76c-.12,2,.24,3.12,1.32,3.48l-.36-2.88c10.2,13,23.64,23.4,40.56,31.32q32.94,15.3,59.4-9.72a103.62,103.62,0,0,0,25.08-36.12,79.79,79.79,0,0,0,5.4-18.24,80.87,80.87,0,0,0-8.4-53.16,109,109,0,0,0-25.56-31.8,381.45,381.45,0,0,1-32.76-31.08,34.24,34.24,0,0,1-9.48-22.2c-.6-12,5.64-20.16,19-24.6,17.64-5.64,33-1.56,46.08,12a14.06,14.06,0,0,0,.12-13.44A38.72,38.72,0,0,0,411.24,148.2Z" transform="translate(-131.53 -134.52)"/></svg>