<svg id="Layer_1" data-name="Layer 1" xmlns="http://www.w3.org/2000/svg" viewBox="0 0 267.48 281.04"><defs><style>.cls-1{fill-rule:evenodd;}</style></defs><path class="cls-1" d="M268.92,155.52a634.2,634.2,0,0,1-.12,101.28q-5.58,70.74-49.08,127.08a22,22,0,0,1-9.48,7.08q-33.66,13-54.48-17a143.9,143.9,0,0,1-7.92-13A85.48,85.48,0,0,1,137,323.52a776.11,776.11,0,0,1,4.44-128.28,529.35,529.35,0,0,0,3.72-64h-.36a879.24,879.24,0,0,0-13.08,106.2c-.6,10.56-1.56,21.12-2.88,31.56a196.62,196.62,0,0,0,10.68,93.36Q152.34,397,186,409.92q11.52,4.32,20.52-2.52,37.8-29,54.36-75.24A297.8,297.8,0,0,0,278.16,237c.36-21.24,1.08-42.6,2.16-64,.6-12.72-1.92-23.28-7.56-31.56A20.24,20.24,0,0,0,268.92,155.52Zm107.88,95.4c-17.4,15.72-38,21.48-62.16,17.28A1148.5,1148.5,0,0,0,313,151.32q27-4.14,50.4,7.56,35.28,34.2,20.52,81A25.43,25.43,0,0,1,376.8,250.92ZM365.28,145.8a67.12,67.12,0,0,0-44.76-5L312.36,143l-.48-1.44-.48,1.68-1.32,1.2q.9,77.58-5.64,155.16A770,770,0,0,0,303,412.32q14.94-61.92,11-128.76a64.3,64.3,0,0,0,38.64.72,50.27,50.27,0,0,0,32.76-27.48l2.16-4.8,1-2.64.84-2.64,1-2.76a100.74,100.74,0,0,0,4-20.76q3.24-33.66-15.6-61.32A107.32,107.32,0,0,0,365.28,145.8Z" transform="translate(-127.32 -131.28)"/></svg>