<svg id="Layer_1" data-name="Layer 1" xmlns="http://www.w3.org/2000/svg" viewBox="0 0 574.08 523.89"><defs><style>.cls-1{fill-rule:evenodd;}</style></defs><path class="cls-1" d="M141,31.44q0,16.2-5.4,83.64l-5.4,66.24V245.4L127,278.76v122.4a302.59,302.59,0,0,1-4.68,40.68,319.76,319.76,0,0,1-10.92,45.72q-17.1,52.38-41,52.44-15.48,0-24.48-7.56c-4.92-4.08-8.76-10.2-11.52-18.24-1.44-4.2-3.12-11.76-5.16-22.68-1.8-9.72-3.6-16.68-5.64-21.12v-43L20.28,399a250.43,250.43,0,0,1-2.16-28.8q0-25.38,4.92-78.6t4.8-88.08q7-142,14.88-179.4a6.67,6.67,0,0,1,2.88,3.6l.12,4.08q0,4.14-6,86.64T33.84,222.6c0,1.68-1.8,23.88-5.4,66.48S23,358.8,23,370.56a217.44,217.44,0,0,0,1.32,24.6c.48,4.44,1.8,13.56,4.08,27.36V465.6l2.76,16.92a170.59,170.59,0,0,0,4.68,20.16c4.8,16,11.4,24,19.92,24q40.68,0,55.32-58.32c2.88-11.28,5.28-25.8,7.2-43.68,1.68-16.2,2.88-25.44,3.72-27.6V273.84l1.68-16.2,1.56-16.32V176.4q2.88-50.4,5.16-78.12,3.78-43.56,8.64-75.24A16.42,16.42,0,0,1,141,31.44ZM240.84,103a154.21,154.21,0,0,1,2.76,28.44c0,13.08-3.12,24.12-9.48,33.12-9.6,13.32-26.4,23.16-50.28,29.28l-11.64-.24c-.36,24.48-1.44,47.16-3.12,68.16s-4.32,45.6-8.28,74.16L149.4,419q-7.2,56.52-12.48,118.44c-2.76-1.56-4.08-5.16-4.08-10.56q0-11.7,5.4-59.76l12-102.24q13.68-118.26,16.56-172.08a9.67,9.67,0,0,1-1.44-5.52,13.77,13.77,0,0,1,.72-4.44,6.35,6.35,0,0,1,1.2-2.4l.24-11.4a277.14,277.14,0,0,0-1.08-28.32V89.52c-1.2-5.64-2.52-16.68-3.84-33.36-1.08-14-1.56-22.92-1.56-26.64a12.19,12.19,0,0,1,.72-4.08,5.18,5.18,0,0,1,1.68-2.76l.24.6.84-2.16c25.08,4.92,43.08,12.72,54,23.64,7,7.08,11.76,16.8,14.28,29.4A236.28,236.28,0,0,1,240.84,103Zm-13.68-26.4c-2.28-7.56-4-12.12-4.92-13.8-2.88-5.16-7.68-9.48-14.52-13A148.07,148.07,0,0,0,171.6,37.08a15.45,15.45,0,0,1-4.68-1.44,174.37,174.37,0,0,1,1.8,18.12c.6,16,1.44,26.64,2.52,31.8v50.28c.72,7.56,1.08,18.84,1.08,33.72v11c3.72.48,8.76.36,15.36-.36,8.64-1,14.4-2.28,17.28-4.08a97.3,97.3,0,0,0,9.36-6.48l9.6-7.8a48.49,48.49,0,0,0,10.68-14.52c2.76-5.88,4.2-11.28,4.2-16.44,0-6.36-1.44-15.72-4.44-28.08Q231.3,90.06,227.16,76.56Zm51-34,.24,13.2a86.1,86.1,0,0,0,1,12.72c.48,2.88,1,10.56,1.56,23,.36,11.4.6,20.4.6,26.76l-.12,16.44c-.12,10.68-.48,18.84-1,24.6v12.36a4.12,4.12,0,0,1,.84,2.28l9.36,1.32,6,.84q28.62,0,40.68-18.36c4.32-6.6,6.48-13.32,6.48-19.92,0-5.4-3-15.72-9.12-31.2L323.16,79.8C317.88,67.68,307.44,56,292,44.88L277.32,34.56l-.12-.12A54.4,54.4,0,0,1,278.16,42.6ZM270.48,20l1.8,2.16c1.2-1.68,3.36-1.92,6.6-.84,4.44,1.56,10.2,5.64,17.52,12.24a171.08,171.08,0,0,1,19,20.28c6.24,7.56,10.44,13.8,12.48,18.6C330.6,80.76,335,92,341.28,106.2c4.92,12.12,7.32,22.68,7.32,31.68a65.75,65.75,0,0,1-6.36,27.24c-7.56,16.2-20,24.36-37.2,24.36l-24.6-2.16V245.4l-1.08,4.08v50.4c-1.2,14.28-2.4,34.32-3.72,59.88-1.32,28.92-2.4,49.08-3.24,60.72q-5.22,72-20.88,121.32c-.84-1.08-1.44-4.32-1.8-9.6l-.12-7.8c0-1.56,1.44-10.2,4.32-25.68,3-16.44,5.16-26.88,6.48-31.56,2.16-7.32,3.72-16.92,4.56-28.56l1.92-29q1.62-21.42,4-57.24l3.6-57.12V244.92l1.2-4.08V185.16a5.81,5.81,0,0,1-.84-2.16,16.85,16.85,0,0,1-.36-4.08,11,11,0,0,1,.48-4,4.21,4.21,0,0,1,.72-1.68V154.8c.72-8.16,1.08-20.52,1.08-37,0-22.44-1.32-41.28-3.84-56.4L270.24,45.6A141.47,141.47,0,0,1,269,26,12.32,12.32,0,0,1,270.48,20Zm152,7.44c2.76,3.24,4.08,7.44,4.08,12.84l-.24,5.28a6.11,6.11,0,0,1-3.36,5,15.39,15.39,0,0,1-1.32-4.2,32.53,32.53,0,0,0-1.8-6.48q-3.24-8.28-13.32-8.28l-10.8.24c-9.6,5.16-15.36,11.28-17.4,18.36a52.28,52.28,0,0,0-1.32,9,53.9,53.9,0,0,1-1.32,9.24v46.2q1.08,4.14,1.08,12.6,0,23.94-3.84,74.52L370.44,236l.72.72c21.72-1.32,40-3.12,54.84-5.16,3.24-.36,5-.12,5.64.72q.36.54.36,5.4a11.13,11.13,0,0,1-2.4,7c-10.44.72-19,1.92-25.8,3.72-4.44,1.08-13.2,1.68-26.16,1.68l-8.16-.84c-.72,10.92-1.2,18.6-1.32,23q-.54,18.54-5.28,81c-3,40-4.44,60.6-4.44,62a26.75,26.75,0,0,0,.36,4l.72,3.72v58.56q.36,2.7.72,11.52a52.76,52.76,0,0,0,1.44,11.16c1.08,4.32,3.84,8.88,8,13.8q7.38,8.64,14.4,8.64,28.8,0,48.48-43a198.12,198.12,0,0,0,10.68-29.88c2.28-8,3.36-12.84,3.36-14.4a34.24,34.24,0,0,1,.12-4.32c.36-1.56,1.2-2.28,2.28-2.28,3.24,0,5.16,1.56,5.76,4.56a12,12,0,0,1-.12,5c0,1.56-1.56,7.08-4.56,16.56a292.66,292.66,0,0,1-13.2,33.36q-22.5,47.7-47.4,47.64c-12.6,0-22.44-7.32-29.28-22a63.2,63.2,0,0,1-5.4-17.52c-.84-5.64-1-10-.24-13.08v-60a48.74,48.74,0,0,1-1.08-11.76q0-29.7,8.64-164.16l8.64-131.64V63a64.44,64.44,0,0,0,1.8-11.52,70.37,70.37,0,0,1,1.8-11.64c2.64-9.12,9.84-16.32,21.6-21.48C408.84,19,417.72,22,422.52,27.48ZM581.88,162.36a240.08,240.08,0,0,0-18-51q-29.34-61-79.44-77.28l.48,5.28L485,59.28c.72,9,1.08,21.48,1.08,37.32L486,123.12c-.36,8-1.32,18.12-3.12,30.36V267.12L484,271.2v62.28c-2,47.88-3.72,81.84-5.16,101.64-2.28,31.32-5.28,59.64-9.24,85,1.08,1.56,3.72,2.28,7.68,2.28,9.72,0,21.72-5.52,35.88-16.44q15.84-12.24,22-20.88a92.38,92.38,0,0,0,10.32-19.56l7.32-21q5.4-16.38,11.52-40.32l10.08-40.08q7.2-27.9,10.56-78,2.34-37.62,2.4-82.56C587.28,191.64,585.48,178,581.88,162.36Zm-26.16-81L561,93.48c2,5,4,9,5.52,12,9.72,18.36,16.44,34.92,20.28,49.68,3.6,14,5.4,29.88,5.4,47.76q0,42.66-4,89.28c-3.36,41.16-8.64,78-15.72,110.28q-13.5,60.3-34.2,93.6-24.66,39.6-58.92,39.6c-5.4,0-9.48-.72-12-2.16l-.48,2.88c-1.44-.36-2.4-2.28-2.76-5.88l-.24-4v-4l6.72-80.52c4.68-55.44,7.56-93,8.4-112.68V276c-.48-9.24-.72-22.44-.84-39.84L478,210.6c0-10.56.6-31,1.68-61.2s1.56-48.24,1.56-53.64l-1.56-31.32C478.56,45.6,478,33.36,478,28a9.41,9.41,0,0,1,.84-4,4.39,4.39,0,0,1,1.68-2.4l.24.6c2-6.72,9.6-5.52,22.68,3.48,9.72,6.84,21.48,17.16,35.52,31.2A81.21,81.21,0,0,1,555.72,81.36Z" transform="translate(-18.12 -17.91)"/></svg>