<svg id="Layer_1" data-name="Layer 1" xmlns="http://www.w3.org/2000/svg" viewBox="0 0 233.33 204.08"><defs><style>.cls-1{fill-rule:evenodd;}</style></defs><path class="cls-1" d="M267.84,296.52q4,37.08-13,66.84A35.31,35.31,0,0,1,233.64,380c-10.08,3.12-19.68,2.52-28.68-1.92q-14.94-7.56-14-25.2a331.22,331.22,0,0,1,4.32-37.8,85.55,85.55,0,0,0,1.2-21.48c-7.08,12.12-11.64,25.92-13.68,41.52a85.92,85.92,0,0,0,6.48,46.56,46.05,46.05,0,0,0,5,9.24,64.38,64.38,0,0,0,38.4,5.76c14.76-2.52,25.32-10.32,31.56-23.64a97.19,97.19,0,0,0,7.68-62.4A71,71,0,0,0,267.84,296.52Zm100.44-5.76.48,1.8c24.36,7.08,38,23.4,41,48.72,1.56,13-3,22.92-13.68,29.76-18.6,12-39,16.44-61.44,13.44.84-6.12,1.32-12.6,1.68-19.2,1.08-23.64,2-47.28,2.76-70.68l18-.72A29.81,29.81,0,0,0,368.28,290.76Zm9.72-6.24c12.36-11,17.52-25,15.72-41.88s-10.32-29.4-25.08-37.08A55.15,55.15,0,0,0,342,199.32l-.84.12a6.46,6.46,0,0,1-1.08-3l-5,85.32-.72.24-.6.72.6,11.28c-3.36,32-5.16,63.84-5.4,95.64a18.78,18.78,0,0,0,1.2,7.32c21.72,6.36,42.48,4.2,62-6.48a38.74,38.74,0,0,0,19.92-24.84c6.48-22.44,3.12-43.32-10-62.4l-4.32-5.52A50.71,50.71,0,0,0,381,285Zm10.56-38.76c-.72,17.4-9.36,28.68-26,33.84a55.83,55.83,0,0,1-23,2.64l2-74.64a52.78,52.78,0,0,1,34.92,15A40.72,40.72,0,0,1,388.56,245.76Z" transform="translate(-181.95 -196.44)"/></svg>