<svg id="Layer_1" data-name="Layer 1" xmlns="http://www.w3.org/2000/svg" viewBox="0 0 273.5 213.96"><defs><style>.cls-1{fill-rule:evenodd;}</style></defs><path class="cls-1" d="M267,297.36c-.6,15.12-1.92,30.36-4,45.6-2.52,17.4-10.8,29.28-25,35.64-15.24,6.84-27.36,3.48-36.24-10.08a51.62,51.62,0,0,1-8.16-20.76,138.84,138.84,0,0,1-.12-46.2,42.64,42.64,0,0,0,.36-5.52c-7.2,11.28-10.92,25.44-11.28,42.6a65.85,65.85,0,0,0,11.16,38.28q17.82,27,45.72,14.88a43.82,43.82,0,0,0,22.8-22.2,115.17,115.17,0,0,0,10.8-44.76,113.29,113.29,0,0,0-1.08-18A16.37,16.37,0,0,0,267,297.36Zm94.8-83.28,7,4.56c-8.4-24.12-22.68-24.84-42.72-1.92-9,10.44-12.36,22.56-10.08,36.48a88.74,88.74,0,0,0,24.6,49.32,93,93,0,0,1,19.8,30.84c4.92,12.24,3.6,23.28-4.08,33q-15.84,20-40.32,10.44-11.88-4.5-22.68-9.36,5.58,39.78,51.12,28.08c14.4-3.6,22.32-12.72,23.76-27.48A96,96,0,0,0,355.8,310q-13.68-23.94-28.56-47.4c-8.4-13.08-7.8-26,1.68-38.64,7.92-10.44,18.24-14,31.08-10.56ZM394,196.44q-4,54.54-4.32,110.4a445,445,0,0,1-5.16,64.68c-1.92,12.12-.72,22.8,3.48,31.92a531.91,531.91,0,0,0,8.4-78.72l.72-29.16a458.22,458.22,0,0,1,51.6-3.12q-.72,41.22-3.24,82.2c-.72,12.36.84,23,4.8,32.28a3,3,0,0,0,2.28-3q2.52-41.22,3.24-82.8,1.08-65-1-128.16a232,232,0,0,0-5.76,52.8l-.12,34.2a155.2,155.2,0,0,0-36.6-1.2,68.6,68.6,0,0,0-15.24,3.6c.12-28.8-.84-57.48-2.64-85.92Z" transform="translate(-182.63 -192.96)"/></svg>