<svg id="Layer_1" data-name="Layer 1" xmlns="http://www.w3.org/2000/svg" viewBox="0 0 258.05 201.19"><defs><style>.cls-1{fill-rule:evenodd;}</style></defs><path class="cls-1" d="M196.2,289.44A260.25,260.25,0,0,0,188,364c.6,18.36,10.2,29.76,28.8,34.08q40.86,9.18,55.68-30.36A118.61,118.61,0,0,0,275.4,292c-3.48,10.68-4.32,23.16-2.76,37.2,1.8,16.2-2.52,30-12.84,41.64q-16.2,18.36-40.32,13.68c-16.56-3.36-24.84-13.8-24.72-31.44.12-14.76.72-29.64,1.8-44.52A101.4,101.4,0,0,0,196.2,289.44ZM394.44,392.76A80.51,80.51,0,0,0,430.68,367a67.74,67.74,0,0,0,15.24-42.84c.12-14.28-.36-28.56-1.32-42.84-1.08-16-7.44-29.64-19-41a130.77,130.77,0,0,0-38-26.52,132.83,132.83,0,0,0-42.36-11.4,58.89,58.89,0,0,0-17.76,1.2l-.12-3.84a394.75,394.75,0,0,0-9.36,93.6q.72,47.88.6,95.76a13.25,13.25,0,0,0,2.4,7.68,112.9,112.9,0,0,0,51.48,2.16A114.55,114.55,0,0,0,394.44,392.76Zm43-104a114.67,114.67,0,0,1-1.68,46.08C432,349.92,423,361.2,408.6,368.52a131.11,131.11,0,0,1-45.12,13.56,122.43,122.43,0,0,1-39.12-1.68,1119,1119,0,0,0,4.44-137.52l-.84-28.2a194.05,194.05,0,0,1,60,13.44,100.34,100.34,0,0,1,32.16,20.64A88.13,88.13,0,0,1,437.4,288.72Z" transform="translate(-187.89 -199.68)"/></svg>