<svg id="Layer_1" data-name="Layer 1" xmlns="http://www.w3.org/2000/svg" viewBox="0 0 261.31 198.74"><defs><style>.cls-1{fill-rule:evenodd;}</style></defs><path class="cls-1" d="M264.84,298.44a276.46,276.46,0,0,1-5.52,56c-4.2,20.76-17.28,30.36-39,28.8A38.2,38.2,0,0,1,198,374.52q-14-11.52-11.52-31a295.59,295.59,0,0,0,2.16-47.88c-5.28,16.2-7.44,33.72-6.6,52.56a104,104,0,0,0,2.4,18.24c5.64,24.6,22.44,34.92,50.4,31.2,10.8-2.76,18.36-9.12,22.8-19.32a172.87,172.87,0,0,0,14.52-58.68C272.76,309.72,270.36,302.64,264.84,298.44Zm145.32,76c-8.88,5.28-17.88,4.8-27-1.32a5.45,5.45,0,0,0-.84,6.6c8.64,16.92,20.16,19.2,34.68,7.08,11-9.24,16.68-22.08,16.8-38.52a373.11,373.11,0,0,0-3.6-56.64A146,146,0,0,0,429,335C431,352.8,424.68,365.88,410.16,374.4ZM430.56,271a50.49,50.49,0,0,0,1.8-33.6c-6.6,10.56-7.2,21.84-2,33.84ZM441,199.68l-137.16,5.4-.24.84a9.36,9.36,0,0,0,1.32,8.16,6.18,6.18,0,0,0,3.48,1.56L362,217.56a69.19,69.19,0,0,0-3.36,20.88q-.9,64.08-6.24,128c-1.08,12.12.36,22.68,4.2,31.8a498.07,498.07,0,0,0,7.2-57.48,1111.83,1111.83,0,0,0,.6-123.24q37.44.18,75.72-3.24l1-1A12.12,12.12,0,0,0,441,199.68Z" transform="translate(-181.86 -199.68)"/></svg>