<svg id="Layer_1" data-name="Layer 1" xmlns="http://www.w3.org/2000/svg" viewBox="0 0 367.8 495.88"><defs><style>.cls-1{fill-rule:evenodd;}</style></defs><path class="cls-1" d="M107.16,65.76c0-6.24.48-9.6,1.32-10s1.8,1.44,3,5.4a100,100,0,0,1,4.32,28.92c0,9.72.36,24.24,1.08,43.44q0,28.8-2.16,72.72-1.44,27.36-4.32,70.44v51.84c-1.8,14.28-3.48,31.8-5.16,52.56L101,433.8q-5.4,64.26-15,105.84A8.42,8.42,0,0,1,81.72,534l-.48-3.6c0-8.52,1.8-27,5.52-55.2l6.6-49.2,6-51.48c2.28-20.16,3.72-37.32,4.56-51.6V271l4.32-68c1.44-27.24,2.16-50.16,2.16-69,0-5.16-.48-17.64-1.56-37.68Zm85.56-2.64c2,4.44,3,10.2,3,17.4V87a17.68,17.68,0,0,1-1.32,6c-2,4.2-7.2,8.88-15.48,13.92a5,5,0,0,1-3.24-4,20.91,20.91,0,0,1-.36-5c0-3.72.6-6.12,1.8-7.44s5-4.8,11.64-10.44l-.36-1.56-.24-.84-1.92,2.16q-1.26,1.44-1.8,1.44c-4,0-6.36-1.68-7.44-5.16l-.6-5.76c0-4.68,1.08-8.4,3.12-11,1.8-2.52,4.08-3.36,6.6-2.76S190.92,59.4,192.72,63.12ZM380.88,78.48V99.36c.48,11.88,1.56,25.32,3.24,40.56V191q.54,35.1,12.24,87c2,9.24,5.64,23.88,10.68,43.92,4.68,19,8.16,33.48,10.32,43.44,8.52,38.64,14.4,66.48,17.88,83.64q13.86,69.12,13.8,91l-.12,6.6c-.48,3-1.68,4.68-3.72,5q-7.92-32.4-17.64-88.92-10.8-63.54-16.44-88.92c-2.28-10.08-5.76-24.6-10.56-43.44-5.28-20.4-9-35.16-11-44.28q-12.06-52.74-11.88-89v-50.4a186.39,186.39,0,0,1-2.4-22.32l-1.44-23.16c-3.72,13.68-8.16,32-13.44,55l-13.08,55.56q-16.56,66.24-37.92,111.48c-4-7.56-6.36-17.16-7.32-28.68-.6-13-1.32-22.8-2.4-29.4a557.12,557.12,0,0,1-6.48-57.48c-1.32-27-2.52-46.32-3.6-57.84a422.65,422.65,0,0,0-8.88-58.32l-.24-.48-.48-.84c-7.8,33-15.84,70.44-24.24,112.08q-6.12,30.6-22.08,113.4l-11.52,61.92q-7.38,39.78-13,65.88c-10.68,50.28-20.4,82.8-29.16,97.32a16.05,16.05,0,0,1-2.64-9.24c0-1.56,4-18.12,12-49.68,8.88-35.16,14.4-58.32,16.68-69.24l11.4-59c4.68-24.72,8.64-44.52,11.88-59.52,3.36-15.48,7.32-35.52,11.76-59.88,6.12-32.88,9.72-52.8,11-59.64Q266,103.74,283.44,57.36c3.6,3,5.16,7.8,4.56,14.28l-1,7.92a25.26,25.26,0,0,0-.12,7.32c2.52,13.8,4.08,23.88,4.68,30l2.76,29.52,3.12,30.6,7.08,59.4c2.88,24.12,4.8,43.92,5.88,59.52q16.92-51.3,34.8-118.2L376,58.68C379,63.84,380.64,70.44,380.88,78.48Z" transform="translate(-81.24 -55.75)"/></svg>