<svg id="Layer_1" data-name="Layer 1" xmlns="http://www.w3.org/2000/svg" viewBox="0 0 262.53 212.36"><defs><style>.cls-1{fill-rule:evenodd;}</style></defs><path class="cls-1" d="M270.84,310.8c4,28.44-1.8,53.88-17.28,76.08-14.88,5.16-30.24,5.64-46.2,1.68a17.62,17.62,0,0,1-7.44-3.84c-11.4-9.72-14.76-22.92-10.2-39.36a152.1,152.1,0,0,0,5.16-55,280.36,280.36,0,0,0-12.72,81.12c-.12,11.76,5,20.52,15.36,26.16a77.18,77.18,0,0,0,26.88,8.88q30.78,4.5,43.56-22a108.31,108.31,0,0,0,10.44-38.4,188,188,0,0,0-4-59.4C270.72,293.28,269.52,301.32,270.84,310.8Zm167-109A799.13,799.13,0,0,0,390.24,324.6l-8.64,30.24a97.51,97.51,0,0,0-3.24,17.76q-4.5-30.06-11.52-60.12a401,401,0,0,0-47.28-117.6c-.72-.12-1.08.12-1.2.84-1.56,10.2,1.2,19.32,8,27.48a324.07,324.07,0,0,1,22.08,57q16.74,59,30.36,117.24l1.32-.84.84,3a2.33,2.33,0,0,0,1.2-1.44c3.48-15,6.84-30.12,10-45.12a554.35,554.35,0,0,1,40.2-120.36A151.87,151.87,0,0,1,440,218.16c5.16-8.76,6-16.44,2.64-23A24.09,24.09,0,0,0,437.88,201.84Z" transform="translate(-182.16 -194.85)"/></svg>