<svg id="Layer_1" data-name="Layer 1" xmlns="http://www.w3.org/2000/svg" viewBox="0 0 245.9 212.4"><defs><style>.cls-1{fill-rule:evenodd;}</style></defs><path class="cls-1" d="M208.8,341.4a21.82,21.82,0,0,1,9.24-1.68l16.8,30.6q-18.18,20.34-40.68,6.84a32.24,32.24,0,0,1-5.88-4.08Q188.82,350.22,208.8,341.4Zm.84-21.6,2.76,7.08-6.72.48c-13.56,10-20.52,23.4-20.88,40.2-.36,19.08,8.4,28.56,26.28,28.32,11.88-.24,21.6-5.16,28.92-14.76l11.64,16.56q-14-51.48-45.48-101.4C204.36,302.76,205.44,310.56,209.64,319.8Zm214.08-95.64q8.82-15.48,6.48-31A438.62,438.62,0,0,0,389.76,285l-27.24,87.84a351.37,351.37,0,0,0-8.4-58.56q-14.4-62.1-34.56-122.4c-1.56.24-2,1.32-1.68,3.12q7.74,41.94,18.36,83.16c9.24,36.36,17.16,73,23.64,109.56a31.63,31.63,0,0,0,1.92,11.64l.24,1.08h.24l1.92,3.84q4.5-14.22,7.92-29.16a899.5,899.5,0,0,1,37.8-121.8A232.26,232.26,0,0,1,423.72,224.16Z" transform="translate(-184.79 -191.88)"/></svg>