<svg id="Layer_1" data-name="Layer 1" xmlns="http://www.w3.org/2000/svg" xmlns:xlink="http://www.w3.org/1999/xlink" viewBox="0 0 546.48 593.88"><defs><style>.cls-1{fill:none;}.cls-2{clip-path:url(#clip-path);}.cls-3{fill-rule:evenodd;}</style><clipPath id="clip-path" transform="translate(-2.16 0.84)"><rect class="cls-1" x="2.16" width="546.6" height="593.16"/></clipPath></defs><g class="cls-2"><path class="cls-3" d="M349.68,564.48c0-17.4,8.64-31.08,25.8-40.8,17.64.36,29,1.92,34.44,4.68,2,1,3.36,2.16,3.84,3.72a11.54,11.54,0,0,1,.36,3.6,7.59,7.59,0,0,1-.6,3.12,5.4,5.4,0,0,1-1.8,1.92,22.45,22.45,0,0,0-7.08-4.2,21.21,21.21,0,0,0-6.48-1.68l-23,.24a48.16,48.16,0,0,0-15.24,13.32L374.4,548v-.48l4.44.24,5.28.6c8.28-.72,13.8.12,16.56,2.64a4.25,4.25,0,0,1,1.56,4.2V559c-.12,1.08-.72,1.56-1.92,1.56l-9.48-.72-7.8-1.2-4.56.24-5.16.6-19-.24a18.92,18.92,0,0,0-.84,5.64c0,.72.72,1.92,2,3.72a32.37,32.37,0,0,0,5.64,5.88c6,4.92,12.24,7.44,18.6,7.44,12.72,0,22-.84,27.84-2.64a31.3,31.3,0,0,0,7.8-3.6,9.12,9.12,0,0,1,1.92,6.12c0,2.52-1.32,4.92-4,7-3.72,2.88-9.12,4.32-16.32,4.32-22.08,0-36.48-4.2-43.32-12.72a17.55,17.55,0,0,1-4-9.6Zm-44-36A2.69,2.69,0,0,1,307,530.4c0,2.28-4,6.12-12,11.52l-16.08,10.44c-2.76,2.16-7.44,6.24-13.8,12.12-7.08,6.6-10.56,10.32-10.56,11,0,1.08.12,1.68.36,1.56l.36-.6,18.48,1.08,5.64.36,6.24.72,33.84.6,1.2,2.4a14.76,14.76,0,0,1,0,6.48l-1.2,2.4a1.64,1.64,0,0,1-1.32-.48l-16.56-.36-17-.72-13-1.08q-17.1-2.34-22.32-1.08l-3.72,1.2-6.36.72-3.24-.12-1.32-.24a31.45,31.45,0,0,1-.48-5.16l21.36-19.8c15.72-14.28,25.92-23.88,30.6-28.56l-35.64-.6c-.36-.36-1.8-.6-4.32-.84a39.07,39.07,0,0,0-8.28-.24,31.45,31.45,0,0,1-.48-5.16c0-2.64.6-4.44,1.8-5.28,2.16-1.56,6.48-1.32,12.84.72l46.8.6ZM287.4,403.32c-4.92-7.92-13.2-13.44-25.08-16.68-.72,10.2-2.64,27.6-5.76,52.08a14.73,14.73,0,0,1,3-1L273,435.24A83.72,83.72,0,0,0,286.56,432q6.12-2.52,6.12-6.48C292.68,416.52,290.88,409.08,287.4,403.32ZM261.12,375a4.67,4.67,0,0,1,3.72-.36c3.72.84,8.16,4,13.2,9.12a69.4,69.4,0,0,1,13.2,18.72c4,8.16,6,16,6,23.4a22,22,0,0,1-4.32,12.84c-4.2,6.12-10.68,9.24-19.2,9.24l-17.88-.24-.36-.36-.48,3.36-1.32.24a11.58,11.58,0,0,1-1.32-6.12c0-4,.48-10.32,1.32-18.84q1.08-10.26,2.16-17.28c.24-1.56.36-7.68.36-18.48,0-7.32,1.2-13,3.72-16.68Zm-88.56,5.76.24,5.64.12,15.48c0,27.48-1.44,57.72-4.44,91-1.92,22.68-4.8,49.32-8.76,80.16l3-2.16,15.48-9.72c16.32-10.44,27.24-21.12,32.64-32,6.12-12.48,10.08-22.2,11.88-29s2.64-15.6,2.64-26.52a178.69,178.69,0,0,0-1.8-26,161.25,161.25,0,0,0-6.48-26.28c-2-5.88-3.6-10.08-4.8-12.6a47.81,47.81,0,0,0-9.84-13.44,33.69,33.69,0,0,0-10.08-6.24q-2.34-1.08-10.8-4a36.45,36.45,0,0,1-8.76-4Zm-3.12-9.12a5.34,5.34,0,0,1,1.08-2.4q33.84.18,49.08,43c6.36,18.12,9.6,38.52,9.6,61.08A135.48,135.48,0,0,1,215.28,534q-18.18,36.9-55.08,49.2l-1.68-1.08-.24,1.92h-1.56l-.48-5.16-.12-1.2.12-.24-.12-1.92c0-13.56,2-41,6-82.68l7-69.48V374.64A10.8,10.8,0,0,1,169.44,371.64Zm-7.92-110.4,5-4a63.5,63.5,0,0,0,6.36-5.28,16.81,16.81,0,0,0-4.8-5.16q-3.42-2-12.6-4.32c-.24,5.4-.84,11.64-1.68,18.84ZM154.8,231.6l7.8.36c6.84,4,11.16,7.2,12.84,9.84,1.2,1.8,1.8,5,1.8,9.6,0,4.92-.48,8.16-1.32,9.72a29.21,29.21,0,0,1-4.8,4.8l6.72,9c6.12,8.64,9.12,14.76,9.12,18.24a9.2,9.2,0,0,1-.48,3.24L185,298.56c-5.64-6.6-9.72-11.64-12.12-15.12a51.89,51.89,0,0,1-7.32-13.2l-3,2H152.4c-2.16,15.6-3.36,24.6-3.6,26.88l-.6.48-1,.84c-1.32-1.68-1.92-4.32-1.92-7.8,0-8,.36-15.84,1-23.4l-.48-.72a6.8,6.8,0,0,1-.48-3l.12-3.48.12-1.44,1.56-.24c1.32-11.52,3.12-21.12,5.52-28.8l1.08,1.32A2.93,2.93,0,0,1,154.8,231.6ZM97.8,32.16,90.12,71.28l-17.28,84.6c-3.72,18-7.8,42.12-12,72.24L52.32,287l20.16-3.6c20.64-4.08,32.88-5.88,36.6-5.52l.24.12q-3.6-51.66-5.4-85.32V134.16c-.72-9.12-1.92-27.72-3.48-55.8C99.12,57.84,98.28,42.36,97.8,32.16Zm3.84-30.48c2.52-4.8,3.36-.12,2.28,14l1.92,18.6c.84,7.8,1.2,14,1.32,18.72.24,9.48.72,21.72,1.44,36.84l1.8,37.8v58.44c1.32,28,3.36,60.48,5.88,97.56l7.08,97.92q2,27.18,13.68,112.08Q148.38,574.5,148.32,577a18.61,18.61,0,0,1-2.76,9.24c-3.72-5.76-6.24-13.68-7.8-23.88L135,537.48c-2.88-21.48-4.92-37.92-6.24-49.44L122.28,439c-2.76-20.52-4.56-37-5.4-49.2l-6.72-98.16a34.8,34.8,0,0,1-9.48,5.88c-11.16,5-26,7.56-44.4,7.56l-6.84-.24q-6.12,37.08-20,141.6Q17.16,537.66,6,591.6a5.07,5.07,0,0,1-3.6-4,36.11,36.11,0,0,1-.24-4.92q0-5,17.64-121.68Q39.42,330.72,44.4,290.52q7.74-64.62,23.4-146Q77.7,92.82,97.92-.84A12,12,0,0,1,101,2.76ZM274.2,168.84a203.85,203.85,0,0,0-12,32.88c-1.32,4.92-4,15.84-7.92,32.88a331.17,331.17,0,0,1-9,32.64,149.68,149.68,0,0,1-15,32.16,34.51,34.51,0,0,1-.48-5.64c0-1.8,3.12-12,9.48-30.6,7.08-20.52,11.16-33.48,12.48-39.12,3.12-13.8,6.12-25.2,8.88-34.44A218.67,218.67,0,0,1,274.2,155c3.72,7.32,5.88,16.68,6.6,28.32l1.32,29.28c.72,7.8,1.32,17.52,1.92,29.16L285.36,271v.24a229.23,229.23,0,0,0,9.48-30.12q5.58-21.78,8.64-30.24l10.32-30.72c4.2-12.12,7.8-21.6,11-28.32Q330.06,175,339.24,232c5.88,36.12,8.88,55.8,8.88,59.28a9.05,9.05,0,0,1-.48,3.36,11.16,11.16,0,0,1-1.92,2.64q-7.92-26.82-13.08-64.56c-3.24-28.44-6-49.92-8-64.32l-.6-.6q-8.64,25.92-20.4,63.48l-19.92,63.84h-1.56c-.48-11.16-1.8-31.92-4.08-62.4-1.92-26.64-3-47.76-3.24-63.24ZM202.44,212l1.32-.72a14.93,14.93,0,0,1,1.32,3.36l.36,3.48c0,3.12-.6,5.4-1.92,7L138,224.88c-.84-2.16-1.32-5.88-1.32-11,0-3.48,1.68-22.2,4.92-56.4q5.4-56.88,9.12-83.52c1.08,2.64,1.68,7,1.68,13q0,12.6-6,70.32l-6,56.28v.6l9-.84,52.2-.24ZM265,71.28l-.72,10.2c-1.8,24.48-3.36,42.72-4.68,54.6,14.28,2.28,25.2,0,32.76-6.72a24.86,24.86,0,0,0,6.12-8.4,15.06,15.06,0,0,0,1.44-5.4q0-18.18-9.72-36l-6.72-11-.12-.36a24.9,24.9,0,0,1-12.84,3.24Zm-.72-56a18.4,18.4,0,0,1,2.4-8.52q16.56,8.1,24.12,16.56a46.34,46.34,0,0,1,4.68,11.52,52,52,0,0,1,.72,10A27.94,27.94,0,0,1,291,60.6L289.92,62c3.48,5,6.36,11.88,8.88,20.64C302,94.32,303.72,105,303.72,115a45.19,45.19,0,0,1-2.88,17c-4.2,10.2-12.24,15.24-23.88,15.24l-18.6-.24-.12.72-1.32.24a23.7,23.7,0,0,1-1-3.12l-.12-.36-.24-2.28v-1.56c0-18.84.72-41.4,2.16-67.44,1.68-30,3.84-49,6.6-57Zm4.32,5.64-.6-.36v2.16c0,4.44-.72,16.92-2.16,37.68a43.62,43.62,0,0,0,15.6-4.44,2.83,2.83,0,0,1,1.2-1.56l.72.48.84-.48c5.4-3.48,8.16-6.6,8.16-9.6,0-7.8-4.68-14-14-19C273.6,23.52,270.36,22,268.56,20.88ZM526.8,72a10,10,0,0,1-4.68,6.72,20.28,20.28,0,0,1-2.88-6.48l-1.68-7A22.86,22.86,0,0,0,508.08,52a254.29,254.29,0,0,0-22.92-13.44q-17.28-9-23.4-9c-14,0-24.48,4.92-31.32,14.64-5.64,7.8-8.52,18-8.52,30.36,0,21.24,7.56,47,22.56,77.64q7.38,15.12,20.52,38.16L485,226q13.14,24.3,29.28,49.92c10.92,17.4,17.52,28.08,19.8,32.16a116.41,116.41,0,0,1,11,28.68c2.28,10.32,3.48,23.52,3.48,39.72a138.42,138.42,0,0,1-4.2,32.64,149.55,149.55,0,0,1-14.88,37.68c-16.92,29.76-41.88,50-75.12,60.72l-34.08-.24q-58.5,7-79-36.6c-4.68-9.84-7.68-21.48-9.24-35a250,250,0,0,1-1.08-26,129.71,129.71,0,0,1,.6-15.48c1.2-7.08,4.08-11.76,8.52-14a15.18,15.18,0,0,1,2,4.2,14.77,14.77,0,0,1,.72,4.32,17.86,17.86,0,0,1-2.76,9.12c-1.8,3.12-2.64,7.2-2.64,12.36q0,43.92,20.76,63.84t62,16l34.08-.24q41.94-11.52,67.2-51.24a140.21,140.21,0,0,0,15.6-33.6c3.24-10.68,4.92-20.28,4.92-28.8a124.76,124.76,0,0,0-6-39.36c-3.24-9.72-8.4-20.4-15.6-32.28-9.24-14.28-16.56-25.68-21.72-34.2a397.12,397.12,0,0,1-24.36-45q-8.1-17.46-21.24-41.76c-9.84-18.24-16.2-30.24-19-35.88a202.84,202.84,0,0,1-13.56-34.68,144.31,144.31,0,0,1-5.28-38.64c0-25.8,5.88-43.68,17.52-53.52,9.72-8.16,22.44-10.2,38.28-6,13.8,3.6,26.64,10.68,38.28,21.24s17.4,20.16,17.4,28.8C526.92,68.76,526.92,71.16,526.8,72Z" transform="translate(-2.16 0.84)"/></g></svg>