<svg id="Layer_1" data-name="Layer 1" xmlns="http://www.w3.org/2000/svg" viewBox="0 0 477.4 330.96"><defs><style>.cls-1{fill-rule:evenodd;}</style></defs><path class="cls-1" d="M158.28,125.88l10.44,76.68c2.4,17.88,5,35.64,8,53.4a329.41,329.41,0,0,0-67.92,8q11-38.16,24.24-75.84A429.64,429.64,0,0,1,151.8,143.4,86.34,86.34,0,0,0,158.28,125.88Zm1.32-28a54.05,54.05,0,0,0-9.36,15.72A1247.65,1247.65,0,0,0,109,236.88Q91.86,298.26,73.2,359a207.79,207.79,0,0,1-15.6,37.32c-6.36,11.64-6.36,21.72-.24,30.36A752.54,752.54,0,0,0,96.12,311.4c2.76-11.52,5.76-22.92,9-34.32a179.29,179.29,0,0,1,32.28-1.44,123.21,123.21,0,0,0,42-4.8L200.88,392a93.16,93.16,0,0,0,10.68,30.6,5.36,5.36,0,0,0,2.28-4.8,337.94,337.94,0,0,0-8-63.84Q191.94,291.72,179,229a420.5,420.5,0,0,1-8-63.72,225.06,225.06,0,0,0-10.68-59.4Q160.14,101.88,159.6,97.92Zm138,77.64A83.55,83.55,0,0,1,294.36,219a60.08,60.08,0,0,1-29.76,34.56,88.51,88.51,0,0,1-26.16,8.76l9-151.8c17.16.6,29.28,8.52,36.6,23.76A168.19,168.19,0,0,1,297.6,175.56Zm-51.36-71a1.36,1.36,0,0,0-.84,1.08,781.19,781.19,0,0,0-13.56,126.6c-1.08,42.84-3.24,85.68-6.6,128.28a285.5,285.5,0,0,1-4.32,32c-2.52,12.6-1.32,23.16,3.84,31.68a508,508,0,0,0,10.08-79.44l2.88-65.28,7.56-.6a61.26,61.26,0,0,0,19.8-7.68A73.62,73.62,0,0,0,268,293.88q17.82,61.74,31.56,122.28c1.56,5.64,4.08,10,7.8,12.72a15.74,15.74,0,0,0,2.52-11.4c-1.8-11.4-4.2-22.56-7.08-33.6q-14.76-58.14-33.6-115.2,38-25.38,35.52-72.72a265.58,265.58,0,0,0-10.44-61.32C287.64,112,273,99.84,250.56,98.28a2.88,2.88,0,0,0-3.72,2.4Zm192.36,21a329.62,329.62,0,0,0-1.8,40.68q1.08,64.62.12,129A754.39,754.39,0,0,1,429,391.68c-1.8,12.12-.48,22.8,4,32.28a189.61,189.61,0,0,0,8.76-52.44l2.64-100.92a359.56,359.56,0,0,1,76.92,2.76l-.12,11c-.48,42.84-2.76,85.32-6.84,127.68l.36.84.72,1.56q-2.16,9.9,5.4,12.24a314.85,314.85,0,0,0,6.6-50.28c2-42.6,3-85.44,2.76-128.28q-.18-65.34-1.44-128.28c-5.16,10.56-7.56,22.68-7.44,36.24q.54,49.14.12,98.52h-1.08L474,251.16c-6.84.6-13.92,1.44-21.12,2.64a22.34,22.34,0,0,0-8.28,3.12L445,242.4c.84-43.56.24-86.28-2-128.16A20.34,20.34,0,0,0,438.6,125.52Zm-26.16,9.24c-2.16-15-11.88-23.52-29.28-25.68-11.16,2-19.8,7.68-25.8,17.16a215.68,215.68,0,0,0-26.76,61.92,412.59,412.59,0,0,0-12.72,127.92c.6,10.92,1,21.72,1.2,32.4.6,33,14.52,57.12,41.76,72.6a11.21,11.21,0,0,0,9.72,1c11.76-4.44,21.12-12.48,28.2-24.12,4.92-8.28,4.44-14.76-1.56-19.68a146.63,146.63,0,0,1-17.76,21.6,7.87,7.87,0,0,1-6.84,2.64c-22-2.76-35-15.12-39.48-37.32A439.9,439.9,0,0,1,327,237.24a217.23,217.23,0,0,1,34.08-98,22.71,22.71,0,0,1,13.8-10.2c13.56-3.48,26-1.32,37.44,6.6Z" transform="translate(-52.8 -97.92)"/></svg>