<svg id="Layer_1" data-name="Layer 1" xmlns="http://www.w3.org/2000/svg" viewBox="0 0 525.36 526.45"><defs><style>.cls-1{fill-rule:evenodd;}</style></defs><path class="cls-1" d="M264.84,379.8c1,5.88,2,13.44,3.24,22.56q4,31.14,4,42.12c0,10.92-1.32,29.76-3.84,56.76l-2.76,28.08c1.08-1.08,3-1.56,5.76-1.56,11,0,24.48-4.8,40.32-14.52a149.62,149.62,0,0,0,16-10.92c4.2-3.36,7-5.76,8.16-7.32,3-3.6,5.76-9.84,8.4-18.84,2.52-8.4,3.84-15.12,3.84-20,0-3.72-1.32-11.28-3.84-22.8q-4.14-19.26-7.56-22.68A102.24,102.24,0,0,0,322.92,399a77,77,0,0,0-19.44-10.32A189.49,189.49,0,0,0,264.84,379.8Zm-6.12-12a10,10,0,0,1,1.92-3.24c41.16,3.6,68.52,17.16,82.32,40.68a75,75,0,0,1,9.36,28.44,199.22,199.22,0,0,1,1,22.44c0,3.48-1.32,11-3.84,22.8-2.88,13.2-5.52,21.6-7.8,25.08-1.8,2.76-4.92,6.12-9.6,10.32l-15.36,13.2q-4.14,3.78-23.4,10.44c-12.24,4.2-19.8,6.36-22.8,6.36q-4.86,0-6.48-2.88l-.6,3.72c-1.44-1.2-2.4-3.84-2.88-8l-.36-6.24c0-8.52,1.08-22.92,3.24-43s3.24-34.44,3.24-43.08a313.71,313.71,0,0,0-3.72-48C261.36,389,260.4,383,259.8,379a2,2,0,0,1-1.32-.72c-.36-.6-.48-2.64-.48-6.12A13.59,13.59,0,0,1,258.72,367.8ZM160.92,66.24c-4.32,25.8-12.6,62.16-25,109.32q-14.58,55.8-32,116L97.2,318.12l24.36.72,14.88-.72,27-.6c14.4-2.4,24.6-3,30.48-1.68-7.2-35.4-12.72-63.84-16.44-85.08Q167,171.54,162.36,124.56V74.4Zm2.76-39.84a25.79,25.79,0,0,1,.84,7.2v1.8a77,77,0,0,1,2.16,12l.84,10.8a81.85,81.85,0,0,0,1.32,10.32V118c.12,28.8,4.2,63.84,12.48,105.24,2.52,12.6,6.24,30.24,11.4,52.92,5.4,24.36,9.24,41.64,11.28,52,1.32,6.48,5.16,24,11.4,52.68,4.8,22.08,8.4,39.72,10.68,52.8q17.28,99.18,17.28,104.76a40.22,40.22,0,0,1-.24,5.28c-.48,2.52-1.68,4.2-3.48,4.8Q229,507,217.56,442.68q-16.38-90.36-19.44-106.2L197.4,333l-11.16.48-12,.84-5,.36-5.76.72-13.8.36-14.28.72-15.48-.84-27-.48L67.2,438.84Q45.06,528.66,36.84,549.48a6.8,6.8,0,0,1-3.12-4.56,37.88,37.88,0,0,1-.12-4.56q0-8.82,27.72-115.32,35.46-136.44,38.76-150.6c3.84-16,9.72-37.92,17.76-66.12Q131.7,159,136.08,142.2q7.56-29.88,14.64-66.48c1.8-9.6,3.6-20.64,5.16-33.24l1.08-7.2a31.29,31.29,0,0,1,.24-4.8A6.35,6.35,0,0,1,158.52,28c1.08-3.48,2-5,3.12-4.92C162.48,23.16,163.2,24.24,163.68,26.4Zm36,7.44c-.24,6.84-.72,14.16-1.44,21.84q-1.26,12.42-4,28.44v19.2A70,70,0,0,0,203.76,99c.36-.84.72-1.2,1.08-1.32l.12.6q9-5,12.6-10.8c2.4-3.72,3.6-9.6,3.6-17.52q0-13.14-3.24-20.52C214.56,41.76,208.44,36.6,199.68,33.84Zm6.24-9.72c8,6.72,13.44,14.4,16.08,23.16,1.56,5.28,2.4,12.84,2.4,22.68,0,7.2-1.56,14.88-4.56,23.16-3,8-6.84,13.56-11.76,16.68,2.52,9.72,5.52,21.72,8.88,36,5.64,24.12,8.52,38.28,8.52,42.24l-.24,3-1.08,2.28c-3.48-7.56-7.92-24-13.56-49.32-3.24-14.64-5.4-25.44-6.6-32.4l-5.88,1-3.84-.24v19.56l-1.56,29.64C192,173.88,191,184.08,190,192l-1.08.24a11.36,11.36,0,0,1-1-3.6,28.47,28.47,0,0,1-.12-3.72c0-10.92.12-20.4.48-28.32.6-10.92,1.44-20.64,2.76-29.28V79.56c.36-2.52,1.2-12.12,2.4-28.56a115.49,115.49,0,0,1,3.12-21l-.12-.72a6.48,6.48,0,0,1,.72-3.24l.84-1.2.36-.72.24.24.6-.6Zm92.64,3,1.08-1.2q5.76,35.46,11.28,73.44c7.32,50.28,10.92,81.6,10.92,93.72l-.24,3.24-.48.48-.84.84c-3.48-18.48-7-43.08-10.68-73.68q-6.66-55.62-9.72-75.24l-.72-1.32-13.32,72.72q-7.92,43.2-13,73.2a28.44,28.44,0,0,1-2.52-8.88l-1.56-9.84V92L265.56,67.2c-1.32-10.08-2.28-18.36-2.64-24.72-2.52,16.92-5.64,42.48-9.48,76.44-4,30.12-9.12,55.56-15.24,76.56a6.44,6.44,0,0,1-1.56-2.64,22.91,22.91,0,0,1-.24-3.36c0-5.52,2.16-19.8,6.48-42.72l7.56-40.44,2.16-20.76a153.4,153.4,0,0,1,3.24-20.64,66.7,66.7,0,0,0,1.44-10.08l1.2-11.16c1.08-9,3-15.12,5.76-18.48,1.08,9.24,3.6,30.12,7.8,62.52v82.56a11,11,0,0,1,1.08,4.92h.24q3.42-28.8,11.52-73.44l13.2-74.16Zm57.12,182.16a10.91,10.91,0,0,1,.84,4.2c0,1.56-1.68,10.8-4.92,28l-7,36.6L339,310c-2.76,12.84-5.88,23.4-9.6,31.68q-18-32-36.12-58.56a583.27,583.27,0,0,0-45-57.6c-1.32,12.6-2.76,31.8-4.56,57.6-1.92,23.16-5.16,42.72-9.6,58.56-1.2-1.08-2.16-2.88-2.76-5.64l-.48-3.72q7.74-93.42,15.72-124.56,57.06,63.54,81.72,113.64A281,281,0,0,0,335.64,290l5.4-33.6c4.2-27,8.52-43.8,12.72-50.64A8,8,0,0,1,355.68,209.28Zm25.44-167-.48.36-2,.48c-1.68-1.08-3.48-2.16-5.28-3.12a23,23,0,0,0-11.4-3.12q-17.1,0-24.84,63.72l-.72,6.12L358.08,108l7.44-.84a4.46,4.46,0,0,0,2.28-1.08l1.32,2a8.37,8.37,0,0,1,.36,2.88,8.21,8.21,0,0,1-.6,3.24l-1.8,2.4H357.6l-.6-.6-21.6-.48c-1.56,16.2-2.52,32.52-2.76,49l-.12,4.68a46.55,46.55,0,0,0,1,8.76c1.8,8,6,12.12,12.48,12.12l10.32-.24c10.2-7.32,16.56-13.56,19.2-18.6,1.8-3.48,2.64-9.24,2.64-17.4a14.15,14.15,0,0,1,.24-2.64v-.6l.48-.48,1-1a8.77,8.77,0,0,1,3.36,4.68,15.54,15.54,0,0,1,.36,3.72c0,7.32-2.4,14.52-7.08,21.84A75.06,75.06,0,0,1,357,199c-13.44,1.56-22.08-3.12-25.8-13.92a41.74,41.74,0,0,1-2-12.48l.24-8.16c0-10,.72-22.92,2.28-38.88l1-11.16-1.44-2.16a4.47,4.47,0,0,1-.72-1.8,8.76,8.76,0,0,1,.84-3.72q.9-2.16,2.16-2.52l.12.12,1.2-17.64a171.49,171.49,0,0,1,1.92-19.8,66.81,66.81,0,0,1,6-19.2q1.8-3.42,4.68-10.44a18.91,18.91,0,0,1,10-8.52c4.8-1.92,10.08-1.32,16,1.8,5.4,2.88,8,5.76,8,8.52ZM448.8,61.92a128.26,128.26,0,0,0-17.4-9.36c-1.2-.48-5.52-2.16-13.08-5-4-1.44-6.72-2.88-8.16-4.2l-.24-.24-1,7.56c-1.08,8.64-1.56,13.56-1.56,14.88a162.43,162.43,0,0,0,1.08,21.84v64c.72,4.44,1.08,11.16,1.08,20.4a128.45,128.45,0,0,1-1.08,19.44V274.8l-1.08,4.08v62.4c-1.2,12.84-2.16,29.52-2.76,50.28l-1.56,51.24c-.84,21.84-1.8,38.64-2.76,50.4-.48,5.88-.84,14.52-1,25.92l-.6,6.24h1.8q27,0,72.72-52a478.3,478.3,0,0,0,32.88-41.64q13.86-20,19.44-31.68Q546.66,355.62,551,332.4a178.9,178.9,0,0,0,2.4-26.28V272.64c0-24.84-1.44-43.8-4.2-57q-4.86-22.86-22.8-64A234.72,234.72,0,0,0,510.84,122,186.57,186.57,0,0,0,487.2,91.68,162.53,162.53,0,0,0,469.68,76.8C462.48,71.28,455.52,66.36,448.8,61.92Zm107.76,151.8a150.52,150.52,0,0,1,2.4,24.36v34.56q0,43-4,64.08-4.86,27.54-23.4,71.4c-4.8,11.4-13.2,25.08-25.2,40.92a465.88,465.88,0,0,1-37.56,43.44q-20.52,21.24-37.8,34.44c-12.24,9.48-21,14.16-26.4,14.16l-9.24-.36v-.12l-1.08,2.28c-.6-1-1.08-4.32-1.56-10.08-.36-4.56-.6-8-.6-10.56s1.44-28.56,4.2-78.6q4.5-83.16,5.64-107.76V272.64l1.08-4.08v-82.8a70.34,70.34,0,0,0,1.08-14.16,70.87,70.87,0,0,0-1.08-14.28V92.52A283,283,0,0,1,402,63.72c0-9.72,0-15.36.12-16.68.72-9.24,2.88-14.76,6.36-16.44l.24.36a2.46,2.46,0,0,1,1.8-1.2q2.7-.9,8.64,1.8l13.32,6.84c6.84,3.6,12.48,6.36,17,8.4,11.4,8,18.84,13.44,22.56,16.2,8.28,6.24,14.4,11.52,18.36,15.72a213.28,213.28,0,0,1,41.16,64.8c8.28,20.16,13.92,34.56,16.92,43.08A180.84,180.84,0,0,1,556.56,213.72Z" transform="translate(-33.6 -23.03)"/></svg>