<svg id="Layer_1" data-name="Layer 1" xmlns="http://www.w3.org/2000/svg" viewBox="0 0 240.01 208.32"><defs><style>.cls-1{fill-rule:evenodd;}</style></defs><path class="cls-1" d="M242.4,368.52a38.76,38.76,0,0,1-19.8,6c-17.88,1.44-23.64-7.44-17-26.52,3.12-9,9.48-14.76,19.2-17.16l4,2Zm-34.56-85.8a5.31,5.31,0,0,0-2.4,4.08,12.63,12.63,0,0,0,1.08,7.32l.84.6,2.64.72c4,7.08,7.8,14.16,11.28,21.36l-2.64-.24q-27.9,16.74-24.24,50c2.28,20.28,13.56,28.56,34,24.6,9.12-1.8,15.24-4.92,18.24-9.6,3.12,9.6,7.2,17.28,12.36,23.16a10.21,10.21,0,0,0,1.08-7.92,409.31,409.31,0,0,0-48.48-113.76Zm223.44,102-91.8,3.48c-.12-20.88.36-41.76,1.32-62.76q3.06-65.16,1.68-129l-.48.12c-2.88,23.88-4.56,48.12-5.16,73l-2.76,129,1.68-.36.6,1.44a411.68,411.68,0,0,0,94.92,1.32l.72-.84A13.78,13.78,0,0,0,431.28,384.72Z" transform="translate(-193.99 -196.44)"/></svg>