<svg id="Layer_1" data-name="Layer 1" xmlns="http://www.w3.org/2000/svg" viewBox="0 0 384.82 353.04"><defs><style>.cls-1{fill-rule:evenodd;}</style></defs><path class="cls-1" d="M192,173.88c6.6,30.36,13,60.84,19.2,91.2-14-5.64-29.16-7.32-45.6-5l-28.08,1.8-4.32-.12,9-27.36q19.62-58,35.64-117.12C183.24,135.84,187.92,154.8,192,173.88ZM177.48,98.4l-.24,1-1.32,3.6q-17.46,47.34-33.12,96.36-19.62,61.2-35.64,123.48A514.82,514.82,0,0,1,75,413.4c-4.32,9.48-3.36,16.8,2.88,22.2a369.27,369.27,0,0,0,28.68-78.36q10.08-41.58,22.68-82.44l1.68.36A519.89,519.89,0,0,1,214.56,282L218,299,242.4,422.4l-.48-1.32a43.61,43.61,0,0,1-2.76-8.16,66.42,66.42,0,0,0,9.24,30.84,3,3,0,0,0,1.8-3.24,421.08,421.08,0,0,0-13-94.32q-15.66-62.1-28.32-124.56-6.3-31.5-11.4-63.12a254.89,254.89,0,0,0-11.88-47.28,12.73,12.73,0,0,0-4.8-12.48l-.72-1.56-.84.36-.72-.36A1.82,1.82,0,0,0,177.48,98.4ZM352.92,352.2a217.58,217.58,0,0,0-50.28-114.84,150.22,150.22,0,0,1-25.68-43Q262,156.6,289.44,132.6a33,33,0,0,1,28.32-7.92c10.2,1.68,17.64,7.08,22.56,16.32,4.92-7.8,4-15.36-2.88-22.44a52.28,52.28,0,0,0-12.24-9.48c-15.48-6.12-29-3.6-40.68,7.68A64.42,64.42,0,0,0,265.32,155a81.28,81.28,0,0,0,6.6,45.48,288.49,288.49,0,0,0,21.24,38.76c7.92,12.36,15.6,24.84,23.16,37.32a198.42,198.42,0,0,1,19,41.76A215,215,0,0,1,344,362.88c1.32,15.84-2.88,29.88-12.72,42.24C320.16,418.92,306.72,424,291,420c-9.72-2.4-16.8-8.16-21.48-17.16l.36-.72a2.07,2.07,0,0,0-.12-1.2l-1.32-1.8-2-3.6-3.12-.24c-5.28,15-1.44,28.68,11.52,40.8a29.6,29.6,0,0,0,21.48,8.52,47.93,47.93,0,0,0,24.12-8.76,65.73,65.73,0,0,0,14.88-14.52,97.41,97.41,0,0,0,11-18.6,91.37,91.37,0,0,0,6.12-20.52A100.54,100.54,0,0,0,352.92,352.2ZM377.4,106.68c-1.56,17.4-2.4,35.28-2.52,53.52l-.36,129.12a901.75,901.75,0,0,1-7.92,117.24l.72,2,1.2-3.6c.12-.48.24-.36.24.36a55.48,55.48,0,0,1-.6,7.8,29.39,29.39,0,0,1-2.4,12.12c-.6,7.8,1.56,13.56,6.48,17.16a209.88,209.88,0,0,0,6.6-47.16l2.52-103.68.12.12c20.28-2.52,40.8-4.44,61.32-5.88l-1,19.08c-2,42.6-5.4,84.48-10,125.88a3,3,0,0,1-.48-1.68A96.05,96.05,0,0,1,434,406.44c-7.08,16.08-6.24,30.72,2.64,43.8a9.63,9.63,0,0,0,3.72-6.36,357.29,357.29,0,0,0,4.32-42.24l4.92-116.28,1.68-.12.6-1c3.24-6.36,2.76-12.24-1.2-17.76h-.12q2.52-61,3.36-122.28a77.28,77.28,0,0,1,1.92-15.84c2.28-9.36,1.56-17.28-2.4-23.64a4.57,4.57,0,0,0-2.76,3.72,415,415,0,0,0-5.52,68.28c-.12,30-.6,60-1.68,90a281.73,281.73,0,0,0-61.8,9.24l.24-8.88,1.44-64.92a619.14,619.14,0,0,0-5.16-95.88C377.64,106.44,377.4,106.56,377.4,106.68Z" transform="translate(-72.35 -97.2)"/></svg>