<svg id="Layer_1" data-name="Layer 1" xmlns="http://www.w3.org/2000/svg" xmlns:xlink="http://www.w3.org/1999/xlink" viewBox="0 0 496.08 591.8"><defs><style>.cls-1{fill:none;}.cls-2{clip-path:url(#clip-path);}.cls-3{fill-rule:evenodd;}</style><clipPath id="clip-path" transform="translate(-6.48 0.2)"><rect class="cls-1" x="6.48" width="496.2" height="591.72"/></clipPath></defs><g class="cls-2"><path class="cls-3" d="M233.52,581.28l8.16.12.48,1.08.12,2.52a8.81,8.81,0,0,1-.24,2.88l-.12.48h-4.68a125.35,125.35,0,0,0-13.2.36l-3.6.24c-2.4.36-3.72.6-4,.84-3.72-2-5.76-7-6-14.52.36-8.88.6-15.12.6-18.6a33.05,33.05,0,0,1,.24-4.68,3.84,3.84,0,0,1,2.16-3.12,9.54,9.54,0,0,1,.24,3.84l-.48,4,.48,11,.6,15.24,4.44-1,5.28-1ZM208.8,515.4l.12,11v.24c3.72,0,6.6-.6,8.64-1.92q2.16-1.26,2.16-2.52c0-1.56-.84-3.24-2.64-5.28-1.68-1.8-2.88-2.76-3.6-2.76a2.72,2.72,0,0,0-2.4,1.08l-.84,1.68A4.49,4.49,0,0,1,208.8,515.4Zm-.72-7.68.12,1.2a2.36,2.36,0,0,1,1.8-1.56c1.32-.24,3,.48,4.8,2.16a21.41,21.41,0,0,1,4.92,5.88,14.51,14.51,0,0,1,2.16,7.08,13,13,0,0,1-.72,4.56,14.17,14.17,0,0,1-3.6,5.4,37.42,37.42,0,0,1-7.56,1.08l-1.2-.24-.24,3.84a131,131,0,0,1-1.32,15.24l-1.08.36a35.45,35.45,0,0,1-.48-7l.6-15.12-.24-.72a8.66,8.66,0,0,1-.36-4.08l.48-.72.36.24.48-17.64Zm18.84-31.56-1.56,1.8h-.72a18.86,18.86,0,0,0,0-3.72c-.36-1.44-2.4-2.16-6-2.16a9.16,9.16,0,0,0-2.52,1.2L213.24,475c1.44,2.52,5.16,6.36,11.16,11.4q7.2,6.12,7.2,10.8a9.17,9.17,0,0,1-1.8,5.76c-2,2.28-5.4,3.48-10.08,3.48-5.4,0-9.24-1.92-11.28-5.64a15.69,15.69,0,0,1-1.68-7.32,45.68,45.68,0,0,1,.24-4.92l1.08-.24,3,6.12c1.8,3.48,3.24,5.28,4.32,5.28l5.64-.84c3.6-.72,5.88-1.56,6.84-2.4a58.32,58.32,0,0,0-14.76-11.88,2.73,2.73,0,0,1-1.8-2,55.1,55.1,0,0,1-.24-6.48c0-3.48.84-6.12,2.52-8a7.61,7.61,0,0,1,5.64-2.4,8.74,8.74,0,0,1,5.52,2.28,8.11,8.11,0,0,1,2.16,8.28Zm-4.2-43.32L218,448c-2,6.6-3.84,11.76-5.4,15.72l-1.08.24a133.79,133.79,0,0,1-2.16-16.2c-.6-7.56-1.44-13-2.4-16.32-1.32,2.52-4,8.4-7.8,17.76-3.48,8.4-6.48,14.76-9.24,19.08l-.36-.72a7.5,7.5,0,0,1-.12-2c0-3.24,2.76-11.28,8.28-24l9-19.56c3.12,3.72,4.92,8.88,5.4,15.6a117.11,117.11,0,0,1,0,16.08l4.92-14.28,5.4-16a156.33,156.33,0,0,1,6.12,18.72l5.16,21.84-.36.48-.72.84c-2.64-3.72-4.8-8.88-6.48-15.72q-.9-3.24-3.24-16.2ZM272,439.2,260.88,432l-2.76-2,2,47.4.84,20.28,1.92-.12c11.88,0,19.56-4.68,23.28-14.16,1.32-3.48,2-8.76,2-15.72Q288.24,450.9,272,439.2Zm-16.2-12.6.12-3,.12-1.08c13.8.48,23.64,6.6,29.64,18.36,4,7.56,5.88,16.44,5.88,26.4A84.8,84.8,0,0,1,289.44,488c-3.12,12.24-9.12,18.36-17.88,18.36l-10.2-.48c.6,17.4,1,29.4,1,35.88l-.12,22.68a156.7,156.7,0,0,1-2.28,23.88l-.72.48-1.2.6a11.82,11.82,0,0,1-1-3.36,24.37,24.37,0,0,1-.12-3.48L258,562.32,259.08,542l-.84-20-.84-17.16-1.08-.6a1.8,1.8,0,0,1-.72-1.8l.24-1.44a16.16,16.16,0,0,1,.12-2.64l.12-.6h1.08l-.24-6.48-1.08-49.08.24-9.36.48-4.44A2.88,2.88,0,0,1,255.84,426.6Zm-51.6-99.48,4.92,13.68c-1.68-5.16-3.12-9.24-4.44-12.36Zm6-24.48c2.88-1.08,8.88-1.08,17.88,0l26.4.6.6.84a11.13,11.13,0,0,1,.12,2.4,8.56,8.56,0,0,1-.24,2.28l-.84.6H231.6l.72,9h1.44v.72l-1.44-.24.24,9.12.12,25.2L232.56,380c-.12,18.36-.48,32.52-1,42.48l-.36.48-.72.84c-.48-8.4-.72-20.64-.84-36.6l-.24-23.52c0-1.08.24-1.68.6-1.68l.48.36v-52l-.24-1.08-22-.24-.36-.72a7.5,7.5,0,0,1-.12-2A3.6,3.6,0,0,1,210.24,302.64Zm23.88-46,1.32,1.56a9.39,9.39,0,0,1,1.56,2.4v4.92l-.36.48-.72.84L233,263.16l-12.48.24c-1.8,1.8-3.84,7.56-6.24,17.52a7.43,7.43,0,0,0,2.28,5.16l5,4.44H233l3.24-3a11.51,11.51,0,0,1,3.24-2.76l.6,1.2.12,2.52a6.54,6.54,0,0,1-2.16,5,65,65,0,0,1-5.4,4l-11.28-.24a10.09,10.09,0,0,1-8.16-7.2c-.72-2-1.08-5.28-1.08-9.84,0-2.28.84-6.12,2.52-11.64q3.06-9.72,6.12-12.24Zm-64,163.92-.24-2.64c0-2.4,1.44-8.28,4.2-17.76,2.28-7.32,3.72-12,4.44-13.92,2.76,3.24,5.28,7.8,7.68,13.8l5,13.56c1.08-2.4,2.16-8,3-17,.72-7.8,2.4-13.08,4.92-15.72a2.79,2.79,0,0,1,1.56.84,4.47,4.47,0,0,1,.6,2.64c0,3.72-1.08,9.48-3.12,17.28a173.55,173.55,0,0,0-4.44,20l-.48.48-.6.84c-2.76-2.64-5.16-7.08-7.2-13.2-2.28-7.32-4.2-12.12-5.88-14.64h-1.08L176,409a50.27,50.27,0,0,1-5,12.72A1.92,1.92,0,0,1,170.16,420.6Zm-1.32-56c0,2.64,1.32,5.52,4.08,8.76s5.88,5,8.88,5a12.58,12.58,0,0,0,8.64-3.48c2.4-2.4,4.32-3.6,5.76-3.48l.6.84a9,9,0,0,1,.24,2.4c-4.32,7.08-7.92,10.56-10.92,10.56-13,0-19.44-6.84-19.44-20.64a39.76,39.76,0,0,1,2.76-15c2.52-6.36,6.72-10.8,12.36-13.08l7.92.24L191,338a5.54,5.54,0,0,1,.6,2.76l-.12,2.16-2,.24-7.92.36a26.74,26.74,0,0,0-10.08,10.32A22.34,22.34,0,0,0,168.84,364.56ZM172,223.32l.12,7.56c0,11.64-.36,23.4-1,35.28l.6-.36c3.72-1.8,6.72-3.24,8.88-4.32,8.52-4.8,12.84-10.92,12.84-18.48a23,23,0,0,0-4.2-12.84q-5.94-8.82-17.28-7.92Zm-1.44-7.08a5,5,0,0,1,2.52-.48q4.14,0,9.36,3.6a34,34,0,0,1,9.24,9.72A24.84,24.84,0,0,1,196,242.76a32.12,32.12,0,0,1-4.32,16.8,26.19,26.19,0,0,1-10.08,9.72c3.72,7.56,6.84,17.28,9.48,29,3.72,16.08,7.08,27.48,10.32,34.08V338l-.48.48-.6,1c-3.48-9.24-8.28-23.16-14.16-42-4.44-13.8-7.08-22.68-8.16-26.64l-5.88,1.8-1.32-.72-1.08,14.28a530.37,530.37,0,0,1-7.08,54.36h-.72a22,22,0,0,1-.6-6.12,171.16,171.16,0,0,1,1.2-18.36l2.64-23.76q3.6-35.46,3.72-72v-1.8a10.5,10.5,0,0,1,.24-2.4l.36-.48h.72ZM106.44,39.72q-7.74,53.82-35.28,215l-6.84,40c8.88-2.64,30.36-4.44,64.44-5.28v-.6L132,289c-1.68-14.76-3.24-35.28-4.8-61.56q-2.7-47.34-7.08-72.84-2.34-14.22-4-35.64l-2.52-36.6c-.24-4-2.28-16.32-6.24-37.2Zm.84-33.24c1.32-1.08,2,1.56,2,7.68v2.16q4.5,18.18,9.72,47.52l3.24,37c1.32,16,2.4,28.32,3.24,37l6.24,73.44q3.78,45,7.92,74.16Q153,380,162.36,433.08c2.28,13.08,8.28,41.76,17.76,86q12.6,58.5,12.6,61.68a15.71,15.71,0,0,1-.72,4.92,8,8,0,0,1-2.52,4.08c-5.16-10-9.24-22.08-12.24-36.48-2.88-16.2-5.28-28.2-7.08-36.12q-7.74-33.3-14.28-72.24c-3.48-20.52-7.44-44.52-11.64-72.12l-9.84-66.36h-1l-4.68.72-11.52.36-12.24.72-4.56.36c-3.12.36-4.8.6-5.16.72l-7.8.36-8.52.72-14,1.08a9.34,9.34,0,0,1-3.36-.6Q29.34,497,10.32,591.6c-1.44-1.08-2.52-3.12-3.24-6.36a33.57,33.57,0,0,1-.6-5.76q0-6.84,18.36-107.64l33.6-184.68q5.22-29.52,12.12-72.6L82,141.24q6.12-39.6,12.24-73.08a230.34,230.34,0,0,1,8.4-50.4v-.12a57.93,57.93,0,0,1-.84-7.68c0-12.6,1.68-13.44,4.92-2.76Zm109.8,172.08.48,8.64a243,243,0,0,1-1.68,24.48c1.92-4,4.92-9.6,8.88-16.68,6.84-11.88,12.36-21,16.56-27.24l1.68,1.32a6.09,6.09,0,0,1,.36,2.64c0,1.68-3.72,9-11.28,22l-3.48,6,6.6,22.44c4.68,17.16,7.08,27.48,7.08,31.2l-.12,2.52-.24,1.08-1.08.24q-4.68-12.6-8.64-26.64c-3.48-11.88-5.4-20.88-5.76-27.12q-6.66,11-11.88,18.72c-2.52,19.44-4,30.72-4.32,34h-.84a39.89,39.89,0,0,1-.48-7.68c3.6-44.76,5.4-70.08,5.4-75.72a21.43,21.43,0,0,1,.48-5.76h.84A98.69,98.69,0,0,1,217.08,178.56Zm-22.92-49.32a11.72,11.72,0,0,1,4,9.36l-.12,2.76-.48,2-1.08.24a19,19,0,0,0-.72-5.64c-.84-3-3-4.56-6.24-4.56-5.52,0-9.48,1-11.88,3a5,5,0,0,0-2.28,4.08c0,2.52,1.44,5.64,4.2,9.12,1.8,2,4.92,5.64,9.36,10.56,9,10.44,13.56,21.36,13.56,32.52a25.28,25.28,0,0,1-3.6,12.12c-3,5.64-6.84,8.4-11.64,8.4-10.92,0-18.48-3.12-22.56-9.48A20,20,0,0,1,161.28,192a22.59,22.59,0,0,1,1.32-8.52l1.08-.24a15.09,15.09,0,0,1,.24,4.8l-.48,4.44c0,2.16,1.8,5,5.4,8.52,3.6,3.72,6.48,5.52,8.64,5.52,9.24,0,15.72-2.16,19.56-6.6a11.25,11.25,0,0,0,3.24-7.68,27.69,27.69,0,0,0-4.2-14.28,98.38,98.38,0,0,0-9.36-11.52,93.09,93.09,0,0,1-9.36-11.64,28.6,28.6,0,0,1-4.2-14.64q0-6.66,4-10.44a12.28,12.28,0,0,1,8.52-3.6A11.39,11.39,0,0,1,194.16,129.24Zm15-45.6c9,3.24,14,5.28,15.12,6.24A4,4,0,0,1,226,92.76a37,37,0,0,1,.24,5l-.12,5.4a5.67,5.67,0,0,1-1.68,3.12,26.63,26.63,0,0,1,4.32,6q2.52,4.68,6.12,16.2l-.48.48-1.08.6-10.92-15L216.72,107l-6.48-.48-1.68-.24-.12,1.2c-1.32,10.08-2.52,16.32-3.6,18.84H204a13.1,13.1,0,0,1-.48-4.08L205.08,106l-1.32-.12a8.81,8.81,0,0,1-.24-2.88,18.62,18.62,0,0,1,.12-2.76l.12-.6,1.92.36c.72-8,1.08-12.84,1.08-14.64A8.56,8.56,0,0,1,207,83l.24-.48h.84l1,1.92v-.36Zm.6,3.84.24,3.6-.72,9.36H210l12.12-.36a4.4,4.4,0,0,0,1.92-2.4,56.4,56.4,0,0,0-9.72-7.32ZM188.28,41.4c0-2.52.36-4.08,1.2-4.56,11.88,1,19.68,3.6,23.4,8,1.68,2,2.52,5.16,2.52,9.6,0,3.6-.36,5.88-1,7l-6.6,6.72-17.4-.24-1,21.36-.48.48-.72.84c-.72-1.92-1.08-5.28-1.08-10.2l.48-13.92a5.47,5.47,0,0,1-.48-2.64l.12-2,.24-1,.24.24.48-17.64.12-.72Zm3.36,4.08-.84,16L207,61.2a11.51,11.51,0,0,0,4.56-3.12,6.2,6.2,0,0,0,1.68-3.36c0-.84-.72-2-2.28-3.6a23.29,23.29,0,0,0-5.52-4.68c-5.16-3.12-9.72-3.84-13.8-2.28Zm235.8,56.4a61.68,61.68,0,0,1,2.16,14.88l-.24,7a10.73,10.73,0,0,1-4.08,7c-1.56-3.24-2.76-8.4-3.72-15.48s-2.16-12.48-3.84-16.08Q409.08,80.4,368.64,69.6q-25.92-11.7-37.2,13.8-6.84,15.48-6.84,38.16,0,19.26,18.72,47.16c3.12,4.56,9.48,13.56,19.2,26.88,9.24,12.48,16.56,22.92,22.08,31.44,18.12,27.72,31.92,55.68,41.28,84.12q18.9,56.52,18.84,124.08c0,20-.24,32.52-.84,37.56Q441.72,491,432,513.12c-8.4,19.32-21.36,37.08-39,53.52a131.9,131.9,0,0,1-21.84,16.8c-7.08,4.2-13,6.36-17.4,6.36q-15.12,0-35.28-10.8C306,572.28,297.84,565.8,294,559.68a51.87,51.87,0,0,1-6.72-15.12,66.4,66.4,0,0,1-1.68-15.72c0-6.24.36-10.92,1.2-14.16,1.68-6.6,5-11,10.2-13.44a12.06,12.06,0,0,1,2.88,4.68,13,13,0,0,1,.84,3.84,12.6,12.6,0,0,1-4.08,9.84,11.71,11.71,0,0,0-4.32,9.24c0,8.76,8.28,18.6,25,29.28a155.84,155.84,0,0,0,18.6,10.08c5.88,2.64,9.72,4,11.64,4,20,0,37.56-9.48,52.32-28.32a177.38,177.38,0,0,0,14.88-22.92l9.72-17.52c5.16-7.8,8.88-19,11.16-33.72a215.31,215.31,0,0,0,2.64-35.28q0-65.16-18.84-118.56c-9.24-26-22.92-52.56-41.28-79.56-4-5.88-11.4-16.08-22.08-30.84-8.64-11.88-15-21.12-19.2-27.84q-18.72-30.24-18.72-56c.12-16.68,2.4-31.56,6.84-44.88Q338.28,36.9,370.32,52.8,403.26,54.24,419,81A76.15,76.15,0,0,1,427.44,101.88Zm-72-57.12-.6,1.8.24.36c-.12.36-.84.48-1.92.48-1.68,0-10-3.12-24.72-9.36L302.88,27.36l-4.68-1.44c-24.36,8.88-40.8,15.72-49.44,20.64a10.22,10.22,0,0,1-3.48-3.24,4.73,4.73,0,0,1-.6-2.4c0-5,11.76-11.76,35.16-20l-13.2-3.48c-11.64-3.24-17.52-7-17.52-11,0-2.28,1.68-3.36,4.92-3.24,2.76.12,7.2,1.08,13.32,3l19.08,6,10.2,3.12c6.24-2,13.8-4.44,22.56-7.08,13.2-4,21.6-6.6,25.08-7.92l1.32,2.52A12.08,12.08,0,0,1,346,6q0,2-11.16,6.48-5.58,2.34-20.52,7.56,8.1,3.06,20.16,8.28Q355.68,37.86,355.68,42ZM481.56,46v-.48c8.4.6,14.28,2,17.52,4.2a7.48,7.48,0,0,1,3.48,6.48,8.81,8.81,0,0,1-.24,2.88l-.48.48-.84.84c-8.16-4-12.36-6-12.72-6l-5.64.48-11.4,1c-8.28,5.4-13.8,14.64-16.44,27.6,15.48,0,25.2.48,29,1.56,1.56.36,2.52,1,2.64,1.68a5,5,0,0,1-.12,1.8,8.37,8.37,0,0,1-.36,2.88l-1.2,1.8-7.56-.84L454,92.52l-.48-.24c-.36,3.72-.6,7.8-.6,12.24q0,4,7.2,9.36c5.28,4,10.56,6,16,6,8.88,0,15.48-1.56,19.92-4.8,3-2.16,4.32-4.2,4.2-6.24l1.08-.36,1.08,2.28.24,3c0,3.24-1.44,6.36-4.2,9.36-3.6,3.72-8.52,5.64-14.64,5.64-22.8,0-34.2-8-34.2-24,0-12,1.08-22.32,3.24-31.08,3.48-14,9.36-23.16,17.88-27.12Z" transform="translate(-6.48 0.2)"/></g></svg>