<svg id="Layer_1" data-name="Layer 1" xmlns="http://www.w3.org/2000/svg" viewBox="0 0 284.79 224.64"><defs><style>.cls-1{fill-rule:evenodd;}</style></defs><path class="cls-1" d="M164,129a690.55,690.55,0,0,0,9,75.84l4.2,23.76a232,232,0,0,0-44.88,2.88c7.32-21.36,15.24-42.48,24-63.24q8.46-20,7.56-38.88a.71.71,0,0,0-.6.24A250.87,250.87,0,0,0,142.44,174Q132,203.52,122.52,233.64A5.51,5.51,0,0,0,121,237l-.12,1.92c-6.12,19.32-11.76,38.64-17.16,58.2-2.76,10.32-6,20.4-9.6,30.24-3.48,9.48-2.16,16.8,3.84,21.72,5.16-19.68,10.68-39.6,16.32-59.88,4.2-15,8.76-29.76,13.68-44.52l52.56,1.68c4.92,27.6,10.2,55.2,15.6,82.68-1.8-.48-2.52.12-2,1.92,2.28,7.8,5.88,13.32,10.8,16.8a8,8,0,0,0,1.44-6.48c-5.88-28.92-10.92-58.08-15.36-87.72l-1.2-7.8A5,5,0,0,0,191,243.6c1.8-5.16,1.08-9.84-2.16-13.8l-1.68-.48h-.12Q178.26,178,165,128.52C164.28,128.4,163.92,128.52,164,129Zm74,.12a520.61,520.61,0,0,0-10.92,100.8c-.12,10.68-.48,21.48-1.08,32.16l-1.56,32-.24,4.08a61.4,61.4,0,0,1-3.48,15.6c-5.16,13.56-3.72,25.56,4.32,36.12a239.92,239.92,0,0,0,10.8-82.08q-.36-11,.36-22L270,247.56a10.6,10.6,0,0,0,3-9.48l-.72-4.08-.24-1-.6-.84-.6-.72-33.6-.6,1.92-88.68L293,148a16.44,16.44,0,0,0,.24-12.84l-1.08-2.52a145.61,145.61,0,0,0-52-4.56Zm135.24,9.72c-19.08-1.56-37.92-3.6-56.76-6.24H316l-1.56.48-1.08.6-.24.84a22.29,22.29,0,0,0-.72,4.08l.12,2.4a6.82,6.82,0,0,0,2.16,4.08l.6.36c-.6,16.44-1.2,33.24-1.56,50.16q-1.62,64.26-4.68,128.28l-.36.12a9.35,9.35,0,0,0-.48,7.2c-3.24,9-2.16,16,3.48,20.88a83.21,83.21,0,0,0,6.24-30.84q.36-37.08,2.76-73.8a107.94,107.94,0,0,0,31.08-.12,2.6,2.6,0,0,0,2.76,1.68l.72-1c3.36-6.6,2.76-12.84-1.8-18.6l-31.92,5.28.36-5.16a356.48,356.48,0,0,0-3.24-83.28,488.5,488.5,0,0,0,55.32,9.36l1.44-1.8a10.3,10.3,0,0,0,1.32-4,18.39,18.39,0,0,0,.12-5.76,10.09,10.09,0,0,0-2-4.8Z" transform="translate(-92.18 -127.44)"/></svg>