<svg id="Layer_1" data-name="Layer 1" xmlns="http://www.w3.org/2000/svg" viewBox="0 0 454.44 505.8"><defs><style>.cls-1{fill-rule:evenodd;}</style></defs><path class="cls-1" d="M215.4,422.52a4,4,0,0,1,3.84-3.48c.6,1.08,1.08,4.44,1.44,10.32l.36,10c0,8.28-.72,19.44-2.16,33.24l-3.48,34.08v.6l2.76-.36,4.8-.48a113,113,0,0,1,28,3.12,47.23,47.23,0,0,1,9,3.12l16-.24a5.8,5.8,0,0,1,1.56-2.52c1.68,1.2,2.64,2.4,2.88,3.72l.12,4.08a17.85,17.85,0,0,1-.6,4.32,9.5,9.5,0,0,1-1.8,3.84c-8.52.6-14.76.72-19,.24a22.21,22.21,0,0,1-7.56-2.28,33.94,33.94,0,0,0-7.08-2.76,88.7,88.7,0,0,0-17.4-1.32,38.59,38.59,0,0,0-5.28,0,30.53,30.53,0,0,0-10.68,2.88,4.75,4.75,0,0,1-3.36-3,26.46,26.46,0,0,1-.12-3.72L211.32,480c2.52-25.8,3.84-43.56,3.84-53.4A25.41,25.41,0,0,1,215.4,422.52Zm56.88-118c-.72,2-1.92,3.24-3.48,3.48a25.39,25.39,0,0,0-3.72-8.88q-4.86-7.92-15.48-7.92c-8.28,0-13.8,1.68-16.56,4.92a9.19,9.19,0,0,0-2.16,6.48c0,4,2.4,7.8,7.08,11.52,2.76,2.28,8,5.76,15.6,10.68q10.26,7.38,15.48,15.48c4.68,7.32,7.08,15.84,7.08,25.68l-.48,7.68a85.5,85.5,0,0,1-3.48,15.84q-7.74,22.68-26.64,22.68-22.14,0-28.44-16.56a34.4,34.4,0,0,1-2.28-11.4l.36-5.4c0-3.84,0-6.24.12-7.32.36-3.6,1.08-5.88,2.28-7,.84,1.8,1.44,4.8,1.68,9.24a106,106,0,0,0,1.2,11.4c1.8,9.24,7.8,13.8,18,13.8,12.24,0,21.36-5.4,27.48-16.2a55,55,0,0,0,4.32-11.28l1-5.4a28.92,28.92,0,0,0-7.08-19.68q-4.14-4.5-15.48-11.52c-7.56-4.56-12.72-8.52-15.6-11.88-4.68-5.4-7.08-12.24-7.08-20.28,0-9.72,2.4-16.8,7.32-21.12,4.2-3.72,9.6-5.16,16.2-4.08a30.44,30.44,0,0,1,16.08,7.92c4.92,4.44,7.32,9.36,7.32,14.64A16.56,16.56,0,0,1,272.28,304.56ZM132.6,175.44q-28.08,77-39.72,114.6a200.38,200.38,0,0,1,26.4,2.28l17.4,2.76c19.8-.72,34-2.64,42.24-5.64a21,21,0,0,0,6.36-3.36l.36-.36-5.52-64q-8.46-100.62-8-162.48Q160.2,99.78,132.6,175.44Zm107.52,16.2-1,10.68c-.48,4.68-.72,8-.72,10.32,0,4.32.12,10.8.48,19.32l.6,19.56c3.36-7.68,7.32-20,11.88-37.2,4.68-17.4,8.88-30.36,12.6-39q3.24,8.64,4.32,22.32c.36,5.16.84,12.6,1.32,22.32.12,1.2,1.68,8.4,4.92,21.6,3.24,13,4.8,20.64,4.8,22.92,0,3.36-.84,6-2.4,7.8-4.8-10-8.28-22.08-10.56-36.6-1.08-6.72-2.28-19-3.84-36.84l-.24-.48c-3.6,14.28-7,26.16-10,35.52a268.57,268.57,0,0,1-14.28,36.24c-2.28-9.24-3.6-20.88-4.2-35l-1.44-35.16-.24-.48c-2.16,4.92-4.32,11-6.6,18.12l-5.4,18.24c-4.68,14.76-10.44,27-17.28,36.48a6.59,6.59,0,0,1-3.36-4,13.25,13.25,0,0,1-.72-4.44c0-.36,2.64-6.36,8-17.88,5.88-12.6,9.72-21.84,11.52-27.6q4.86-15.66,7.56-23.4a148.24,148.24,0,0,1,8.88-20.76C238.68,177.48,240.48,183.36,240.12,191.64ZM184,156c1,17.16,2.28,32.28,4.08,45.36q4.68,34.2,7.08,88.92l4.08,89.52v54.36c.72,9.72,1.08,24.24,1.08,43.44l-.12,22.8a135.59,135.59,0,0,1-2.64,23c-3,.6-5-.72-6.12-3.84a21.33,21.33,0,0,1-.84-6.72q3.24-34.74,3.24-38.52c0-14.88-.36-26.16-1.08-33.72v-55.2q-1.62-34-5.28-79.32c-5.16,2-16.8,4.2-34.8,6.48l-8.52-.12-9.12-.6-16.44-2.4a133.73,133.73,0,0,0-18.48-1.92l-6.72.24-1.92,2.4a12.24,12.24,0,0,1-4.08-2.4L73.8,350.28Q61.2,389.52,55.2,409C48.36,431.4,43,451,39,467.4l-7.2,29.16c-3.24,11.64-6.72,20.88-10.68,28-.84-1.08-1.44-3.36-2-6.72a36.65,36.65,0,0,1-.72-6.24q0-16.2,33-121.32Q64.86,347,91.44,266.4,115.2,193.32,134.76,144c2.76-7.08,6.36-17.28,10.8-30.36,5.76-17.4,9.24-27.84,10.56-31.32q2.34-6.66,7.56-31.32c2.64-12.6,6-22.32,10.08-29q6.3,31.86,8.4,88.92ZM236.28,27.36c4,1.44,6.24,2.64,7.08,3.48a15.52,15.52,0,0,1,5.4,10.08,87.24,87.24,0,0,1,.36,10.56,58.89,58.89,0,0,1-.6,9.84A21.94,21.94,0,0,1,244,72.12c-6.24,7.92-18.72,13-37.44,15-1.8,12.12-2.76,18.36-2.76,18.72l.12,32c-.36,12.84-1.92,23.52-4.68,31.8-1.32-.48-2.28-1.68-2.88-3.72a14.51,14.51,0,0,1-.72-4.56q0-28.08,6-74.16l.24-1.68a11.25,11.25,0,0,1-.84-4.68,16,16,0,0,1,.6-4.08,8.13,8.13,0,0,1,1.68-3l4.32-32.16a37.27,37.27,0,0,0-1.08-6,40.18,40.18,0,0,1-1.08-6.12,10.4,10.4,0,0,1,1.8-6.48l1.2,1c2.52-1.8,7.68-1.92,15.36-.36A70.36,70.36,0,0,1,236.28,27.36Zm7.32,18.72a8.11,8.11,0,0,0-3.84-4c-4.2-2.28-13.32-4.44-27.36-6.24v5.4c0,4.08-1.32,14.76-3.84,32.16,13.08-.84,22.68-3.84,28.8-9.24,4.56-4,6.84-8.4,6.84-13.44A14.18,14.18,0,0,0,243.6,46.08ZM413.4,56.52c12.72,7.08,21.48,12.72,26.16,16.8,16,16.32,25.68,29,29.4,38a51.79,51.79,0,0,1,3.48,15.12c.24,3.12.36,9.24.36,18.24a299.58,299.58,0,0,1-2.4,40.8c-2.28,15.36-6.24,29-12.12,41-2.88,6.12-9.84,12.84-20.88,20.28a142.51,142.51,0,0,1-37.92,18.48l-41.76,15.6c-21.72,7.8-37.2,11.88-46.2,12v132c-.84,11.64-1.32,28.92-1.56,51.6-.6,20.28-2.64,37.44-6,51.24q-4.32-4.14-4.32-11.88,0-34,5.4-97.44V274.8c1-13.08,2.76-34,5.4-62.4,2.64-27.72,4.44-48.84,5.52-63.24v-78c.36-4.68.48-11.52.36-20.28L316,37.08c0-4.2.6-7.2,1.92-9,1-1.32,2-1.08,3.12.84,2.52-3,7.32-4.08,14.52-3.48,9.12.84,21.6,4.56,37.32,11.16A382,382,0,0,1,413.4,56.52Zm-58.44-8C341,45,330.6,43.32,323.52,43.32V53.64a195.91,195.91,0,0,1-1.08,24V154.8c-.72,14.76-2.4,35.52-5.16,62.28-2.88,29.16-4.8,49.8-5.64,62.16,2.76-2,7.08-4.08,13-6.24,3.24-1.2,16.2-5.16,38.76-11.76,19.08-5.76,34.32-11.16,45.84-16.08,16.68-7.08,29.28-14.88,37.92-23.16,9.72-9.24,15.72-21.72,18-37.2a161.06,161.06,0,0,0,1.44-20.4l-.24-19.8c0-17.64-6.36-33.6-19.2-47.88-10.68-11.88-25.32-22.2-44-31.2A249.92,249.92,0,0,0,355,48.48Z" transform="translate(-18.36 -21.96)"/></svg>