<svg id="Layer_1" data-name="Layer 1" xmlns="http://www.w3.org/2000/svg" viewBox="0 0 394.97 419.16"><defs><style>.cls-1{fill-rule:evenodd;}</style></defs><path class="cls-1" d="M124.08,90.84a108.61,108.61,0,0,0-3.36,20.76q-4,64.08-7.32,128.4c-2.16,42.84-4.92,85.68-8.4,128.28q-5,63.54-7.32,127.44a4.15,4.15,0,0,0,4.08,2.64l1-1.44a87,87,0,0,0,3.84-22.44q2.7-64.26,6.48-128.4t8.52-128.28c3-42.84,4.2-85.32,3.36-127.44C124.44,90.48,124.2,90.6,124.08,90.84Zm182.4,11.4-.24-.72-.84-1.68c-3.48,1.56-5.64,4.44-6.48,8.76q-12.42,61.92-27.6,123.6a474.68,474.68,0,0,1-17.76,57c-3.6-23.4-7-46.68-10-70.08q-8.1-63.36-18.24-126l-1.2.72c-1.32.12-2,1-2.4,2.4q-11.88,62.28-26,124.56c-7.08,31-14.16,61.8-21.48,92.64q-14.94,63.18-33.48,125a203.91,203.91,0,0,0-9,62.88q1.26,0,1.44-.36,7.38-22.86,13.68-46.44l13.32-48.48q17.1-61.74,29-124.56t26.88-125a303.47,303.47,0,0,0,7-40.44,327,327,0,0,0,4.44,35.76A1144.75,1144.75,0,0,1,244.2,278.16c.84,10.68,1.56,21.24,1.92,31.68.36,10,3.24,17.28,8.52,22a74.85,74.85,0,0,0,1.92-20.64q13.68-41.58,23.88-84.24C289,190.8,296.76,154.56,303.6,118.2a88.09,88.09,0,0,0,1.32,12.48q9.72,63,18.12,126.12c4.2,31.8,8.16,63.6,12.12,95.4q7.74,63.54,16.92,126.72c1.8,12,5.76,22.2,12.12,30.6a5.16,5.16,0,0,0,2.16-4.08,85,85,0,0,0-1.92-23.88q-13.86-62.46-22.32-126C336.48,313.2,331.2,271,326,228.6c-5.16-41.64-11.76-82.68-20-123.24Zm145.08,25.68q37.44,41.4,35.52,98.52a96.07,96.07,0,0,1-13.32,46.08c-15.84,26.76-39.6,39.12-71.16,37.32l1.2-77.16q1.26-60.12.36-118.92a92.37,92.37,0,0,1,37,6.84A27.93,27.93,0,0,1,451.56,127.92ZM400.92,105l-.48,3.24a13.49,13.49,0,0,0,.48,4.92l.36.72h1.32a729.82,729.82,0,0,0-5.76,89.88l-.48,129.12q-.18,64.8-5.16,129c-.6,8-1.32,16.08-2.4,24.12-1.32,10,.6,17.76,5.64,23.16a45.66,45.66,0,0,0,4.68-19.08c1.56-42.6,2.52-85.44,2.88-128.28l.36-38.64q30.06,4.5,54-13.32a64.05,64.05,0,0,0,18.24-21q26.46-48.42,14.16-104A326,326,0,0,0,480,152.64q-16.74-51.3-72-49.32a11.11,11.11,0,0,0-6.12,1.08Z" transform="translate(-97.68 -90.36)"/></svg>