<svg id="Layer_1" data-name="Layer 1" xmlns="http://www.w3.org/2000/svg" viewBox="0 0 343.74 447.86"><defs><style>.cls-1{fill-rule:evenodd;}</style></defs><path class="cls-1" d="M277.56,286.68l-.24-3.6a495.64,495.64,0,0,0-30,60.36,487.17,487.17,0,0,1-21.48,44.4,91.83,91.83,0,0,0-8.4,21.48A755.17,755.17,0,0,0,212,283.8q-2.16,70-2.76,140.52c-.12,16.44-1,32.76-2.52,49.2A53.84,53.84,0,0,0,209.88,497a140.42,140.42,0,0,0,5.52-43c-.72-25.08,7-47.88,22.92-68.64A829.23,829.23,0,0,0,284,502.68c1.8-22.44-3.72-45.6-16.56-69.72a504.22,504.22,0,0,1-25.2-55.56l30-64.44A53.58,53.58,0,0,0,277.56,286.68ZM127.08,408.6a157.31,157.31,0,0,0,18.72,43q14,22.5,26.76,46.08l.36-13.08,3.48,5.64a516,516,0,0,0,4.8-75.84L181,403.68a229.38,229.38,0,0,0-9.48,72.6A70.73,70.73,0,0,0,160.32,453a315,315,0,0,1-18.48-28.68A134.57,134.57,0,0,0,127,403.44c-4.56,8-7.56,19.44-9.12,34.44a232.19,232.19,0,0,0,.12,46.56,43.09,43.09,0,0,0,2.52,10.92,383.92,383.92,0,0,0,6.84-76Zm4.8-110.52A25.92,25.92,0,0,1,145.32,294a24.19,24.19,0,0,1,16,8l-6.6,13-22.92,4.8Zm-1.2-11.28-6.12,33.6a221.48,221.48,0,0,0-5,39.72c-.36,11.16.6,21,3.12,29.4l8-54.24L147,332.64a230.51,230.51,0,0,0,19.68,48.6c3.24,5.88,6.36,9,9.12,9.36a166.59,166.59,0,0,0-19.2-53.88l-4-7.08a37.8,37.8,0,0,0,13.56-24.12,20.4,20.4,0,0,0-3.84-16,18.58,18.58,0,0,0-11.88-7.08,43.49,43.49,0,0,0-12.48,0l-6.6,7ZM94.8,61.44Q89.94,117.06,88.68,174,87.24,238.62,85,303T82.32,432.12a241.75,241.75,0,0,1-2.16,32.28c-1.56,12.12.12,22.8,4.8,31.8a3.06,3.06,0,0,0,1.32-2.4q3.06-54.9,4.2-110.4l2.64-129c.84-43.08,2.4-86,4.56-129.12A390.42,390.42,0,0,0,95.76,61.2C95.16,61.08,94.92,61.08,94.8,61.44Zm82,110.52-.6-.6-42.24.72a750,750,0,0,0-2,101.28,1.41,1.41,0,0,0,1.2,1.32l4.2-53.64,36.12-.72c2.64-5,2-9.48-1.68-13.44a80.15,80.15,0,0,0-34.44,2.52l-1-27L176.88,184C180.12,179.88,180,175.92,176.76,172ZM198.6,59.88c-14.52-1.68-29.16-2.76-43.92-3.36A144.08,144.08,0,0,0,129,58.92a7.29,7.29,0,0,0-4.08,2.28,21,21,0,0,0-.6,4.8,18.63,18.63,0,0,0,.48,2.52l.36.72.84,1.68a284.1,284.1,0,0,1,42.84-1.44,31.88,31.88,0,0,0-2.16,13.08,429.59,429.59,0,0,1-2.88,58.32c-1.32,10.44.24,18.84,4.68,25L169,165a507.43,507.43,0,0,0,2.88-95.4c9,.6,17.88,1.56,26.76,2.88a9,9,0,0,0,2.16-7.32l-.36-2.4-.24-.84-.84-1.56A.87.87,0,0,0,198.6,59.88Zm158.52-.36a48.38,48.38,0,0,0-28.8,16.08c-13.8,15.48-20,33.84-18.84,54.84a117.19,117.19,0,0,0,11.4,43.68q28.8,59.94,61.92,118.56a233.69,233.69,0,0,1,30.84,116.16,102.59,102.59,0,0,1-14.16,53.4c-11.16,19.08-27.72,26.64-49.92,22.92a25.21,25.21,0,0,1-10.8-4.44q-43-31.14-54.72-83c-5.28,13.2-4,27.36,3.84,42.6C292.32,449,297,457.68,302,466.2c16,27.6,39.48,40.2,70.8,37.92a110.7,110.7,0,0,1,12.24-7.8,36.51,36.51,0,0,0,14.28-14q32.58-57.06,16.32-122.16a433.25,433.25,0,0,0-46-112.68,301.51,301.51,0,0,0-17.52-26.76,188.09,188.09,0,0,1-35-87.36c-2.28-17.4,2.88-32.16,15.36-44.28q23.22-22.5,52.92-6.84c18.36,9.72,30.48,23.64,36.12,41.76a21.47,21.47,0,0,0,.12-16.8C410.52,78,389,62,357.12,59.52Z" transform="translate(-79.59 -56.52)"/></svg>