<svg id="Layer_1" data-name="Layer 1" xmlns="http://www.w3.org/2000/svg" viewBox="0 0 221.83 205.32"><defs><style>.cls-1{fill-rule:evenodd;}</style></defs><path class="cls-1" d="M222.72,334.68a140.59,140.59,0,0,0,.72-42.48A145.52,145.52,0,0,0,214,336a307.71,307.71,0,0,0,.24,47c.84,9.24,5.76,12.12,14.76,8.88,17.16-6.12,24.24-17.16,21.24-32.88Q239,376.5,220,377.4A222.93,222.93,0,0,1,222.72,334.68Zm8.88-81.12c-6.84,4.92-8.52,11.52-4.92,19.8l1.2-.24c6.12-5.64,7.44-12.24,4-19.56ZM426.48,232c7.08-12.84,9.72-25.56,8-38.16A99.37,99.37,0,0,0,420.72,217,846,846,0,0,0,377.16,339.6a154.54,154.54,0,0,0-5.76,45c-2.76-21.36-6.12-42.84-10.32-64.44A695,695,0,0,0,325.2,197.52c-1.32-.12-1.92.48-1.68,1.8q7.2,38.52,17.52,77.52,16.2,61,28.32,122.28a3.65,3.65,0,0,0,3-1.8l.24,1.8c.84-.24,1.2-.6,1.32-1a792.43,792.43,0,0,1,27-106.92A361.94,361.94,0,0,1,426.48,232Z" transform="translate(-213.18 -193.8)"/></svg>