<svg id="Layer_1" data-name="Layer 1" xmlns="http://www.w3.org/2000/svg" viewBox="0 0 509.64 576"><defs><style>.cls-1{fill-rule:evenodd;}</style></defs><path class="cls-1" d="M156.6,480.24a6.18,6.18,0,0,1,.36,2.52,5,5,0,0,1-.48,2.52l-1.2,1.08-14,.36-14,.72-23.76.6L105,515.52a5.89,5.89,0,0,1,3.24-.72l31.68-.6.84-.48,11,.24.72,1a4.91,4.91,0,0,1,.36,2.28,5.17,5.17,0,0,1-.36,2.4l-.72.84-5.4.48-5.64,1H108.24l-3-.48V524l-.6,20.52L103.32,576a27.92,27.92,0,0,1-2-3.24c-1.08-2.16-1.68-3.6-1.68-4.44a7.35,7.35,0,0,1-.12-2.16c.12-.6.72-.84,2-.72,0-9.24.36-16,1.08-20.28V502.08l-.84-1.8a14.15,14.15,0,0,1-.24-2.64c0-3.84.12-7.56.36-11l-.12-1.8a16.16,16.16,0,0,1,.12-2.64l.12-.6,6.84-.84,17.76-1.32v-.6l28.68.24Zm95.64-3.36a2.74,2.74,0,0,1,1.68,2l-.24,1.44a11.14,11.14,0,0,1-.36,3.48,2.22,2.22,0,0,1-2.4,1.44l-5.52-.36c-2.4-.24-3.6-.48-3.72-.72l-7-.36-7.2-.72-7.32.24-7.56.6-9.72-.48V484a154,154,0,0,1-1.08,15.6l-1.2,9.72H201l2.52.12,42.24.24,1.08,1.8a8.06,8.06,0,0,1,.36,2.76,7.26,7.26,0,0,1-.48,2.88l-.6,1.56-45.84-.36-.6-.84v48.48a12.81,12.81,0,0,0-1,4.32l-.36,5.4-.48.48-.84,1a13.4,13.4,0,0,1-1.44-4.68l-.24-4.44a31.15,31.15,0,0,1,1.08-9.36V508.32c.6-2.4,1.08-8.16,1.32-17.4.12-5.16.84-9,2.16-11.76.12-1.44.36-2.4.84-2.76,1.56-1.32,5.28-2,11.4-2.16,0-.12,2.76-.24,8.28-.24l8.76.48C241.32,474.24,249,475.08,252.24,476.88Zm.36-150c0,2.28-6.72,14.28-20,36,5.4,14.52,14.4,34.56,27.12,59.88l13.44,26.52q5.76,11.34,5.76,13.32a10.09,10.09,0,0,1-1.44,5.4v.24C272,461.4,262.92,445,250.2,419.16c-12.12-24.24-19-41.28-20.76-51.12-12.36,19.8-22.56,35.52-30.84,47.16l-.36,2.28C195,439,191,456.72,186.12,470.64a4.25,4.25,0,0,1-1.2-1.92,9.18,9.18,0,0,1-.36-3c0-3,2-14.88,6-35.64,4.2-22.32,6.6-35.16,7-38.64l1.68-37.08c.72-15,1.92-26.64,3.48-35.16l1.56,2.4a9.16,9.16,0,0,1,.6,3.24l-1,18.48-1,18.48a359.38,359.38,0,0,1-2.76,41.76c3.48-6.6,8.88-16.44,16.44-29.4q21.42-36.72,33.24-52.08a5.16,5.16,0,0,1,2,1.8A5.28,5.28,0,0,1,252.6,326.88Zm57.24-67.8-13.92,1L294,311l-.24,3.36-1.08,3.12h-1.92a39.45,39.45,0,0,1-.6-6.48c0-21.72,1.08-38.64,3.12-50.88h-.6l-10,.24L272.4,260c-7.8-.24-13,.84-15.48,3.36l-9.72-.24-.84-2-.24-2.88a13.58,13.58,0,0,1,.24-2.76,5.75,5.75,0,0,1,1.32-1.8l9.72-1.08,22.2-1.68c2.4-.72,7-1.2,13.56-1.56l16.8-.84,13.56-1.08v-.6h10.8a10.69,10.69,0,0,1,2,2,6.61,6.61,0,0,1,.6,3c0,2.52-.72,4.2-2.16,5.28l-5.28.36-5.52.72ZM95.52,418.68c14.4-1.08,24.12-2.64,29-4.68,3.48-1.44,5.28-3.6,5.28-6.48,0-7.8-12.12-12-36.24-12.84a47.6,47.6,0,0,1,1.8,11.76Zm-3.48-24a6.33,6.33,0,0,1-1.56-.72c-.24-.24-.36-1-.36-2.28s.12-1.92.48-2.28a7.09,7.09,0,0,1,1.44-.72l9.72-.24c13.2,1.44,22.08,4.08,26.64,7.8,3.12,2.52,4.68,6.36,4.68,11.64,0,4-1.92,7.68-5.88,11.4a20.91,20.91,0,0,1-9.6,5.4,148.14,148.14,0,0,1,11.16,14.4q9.36,13.14,18.72,28.8l-.24,2.64-.6,1.8c-5.4-5-13-14.4-22.92-28.2-7.08-9.72-11.28-16-12.84-18.6l-14.76-.24-.6-1v-.12c-.24,6.12-.72,12.36-1.32,18.48C93.12,452.4,92.4,461.88,92,471L91,472.32a12.8,12.8,0,0,1-3-7.08l.48-3.24c.36,0,.48.12.6.48l.24.84c1.56-15.24,2.52-27.12,2.64-35.64L91.68,397a3.79,3.79,0,0,1,.48-2.28Zm-36.6-383C59.16,31.32,61.08,55.8,61,85.08l-.72,37.08c-.36,15.72-.48,27.84-.48,36.36v93.24a26.35,26.35,0,0,1,1.08,8.16q0,95.76-.24,119.28c-.6,45-2.4,84.84-5.16,119.4V544q-1.26,5-1.08,18.72c.12,8.4-.6,14.52-1.92,18.36-2.88-1.08-4.32-3.24-4.32-6.72,0-1.56.24-6.6.84-15.12.6-9.24,1.08-16.56,1.68-22.2V491.52c1.08-11.4,2-29.4,2.64-54,.6-24.12,1.56-42.12,2.76-54V261L55,257.76V154c.48-8.52.84-21,1.08-37.2l.24-24.12Q53,24.78,53,17.16C53,14.52,53.88,12.72,55.44,11.64ZM184.32,163.56q0,7.38-12.36,88.68C163.32,309,156.6,349.68,151.8,374c-2.88-5.88-5.52-13.8-8-23.52l-6-25.92-6.6-24.72L124.44,275l-12.12-49.56c-4.8-19.08-9.6-35.88-14.4-50.16h-.24c-.6,10.44-1.2,26.88-1.92,49.08l-1.92,49.8c-2.16,39-6.24,72.12-12.36,99.12A5.29,5.29,0,0,1,80,372a5.4,5.4,0,0,1-.48-2.76q0-16.92,4.68-55.08c3.48-29.16,5.52-46.44,5.88-52.08.36-6.12,1-23.88,1.68-53.52.48-21.72,1.8-39.6,4-53.52q16.74,39.78,31.32,96.36,8.28,32.76,23.4,98.28c3.24-17.88,8.4-51.12,15.36-99.48,6.12-42.84,11.64-75.36,16.32-97.56C183.6,155.16,184.32,158.76,184.32,163.56ZM210.24,12.72l1.32,2.4a9.16,9.16,0,0,1,.6,3.24,8.21,8.21,0,0,1-.6,3.24l-1.32,2.52-17.64.48-18.36.84-29,.48a108.2,108.2,0,0,1,2.4,18.84Q148,51.6,148,75q-1.08,47.88-1.32,73l-.6.6-1,.84q-.9-23.94-.84-76.08V47.4l-2-12.84-1.44-8.64h-1.08l-9.36.84-9.12.84H94.68C85.08,28.44,79,27.48,76.2,25a4.45,4.45,0,0,1-1.44-2.76L75,20.64l-.24-3a1.17,1.17,0,0,1,.72-1.44l13.32-.48,33.48-1.08,18.48-1.08,33.72-.6.84-.48ZM293.4,100c2.76,2.52,4.08,5,4.08,7.44l.36.48q.18.36-1.44.36a4.41,4.41,0,0,1-1.92-.6l-2.4-1.56q-4.32-2.16-12.24-2.16-32.22,0-46.8,38.16a128.8,128.8,0,0,0-8.4,40.92,51.05,51.05,0,0,0,1.56,9.12A112.19,112.19,0,0,0,232,209.4c7.2,16.32,16.8,24.48,28.68,24.48q21.6,0,36.36-9.36a52.57,52.57,0,0,0,11.64-10.8l.72-.24.36-.36c.12-.12.24.48.24,1.56,0,1.56-.72,3.72-2.16,6.72a43.61,43.61,0,0,1-6.48,9.84C293.88,239.76,285,244,274.8,244q-32,0-45.84-29.4a79.17,79.17,0,0,1-6.36-20.76,58.73,58.73,0,0,1-1.2-10.44q0-29,10.08-50.76Q248.22,96.78,288,95.76Zm92,236.76-.24,4.08.48.24-1.56.24-9.24-3.72c-6.48-2.52-11.76-3.84-15.72-3.84-33.72,0-55.68,16.56-65.64,49.8A140.44,140.44,0,0,0,288,419.16c-.12,6.84-.12,13.2.24,19.2l.6,11,3.84-.72L297,449a4.36,4.36,0,0,1-2,.84l2.52-.12,27.12-1,8.28-.24,12.24-.6c0-.12.6-.24,1.92-.36,2-.12,6.48-.24,13.2-.24l2,1.8A4.61,4.61,0,0,1,363,452a6,6,0,0,1-.72,3.12,4.18,4.18,0,0,1-2,2l-17.76.84-19,1H297l-7.56-.48-.24-.24.48,12.12v59.28A98.36,98.36,0,0,1,293,542,79.83,79.83,0,0,0,297.48,556c4.92,10.92,14.4,17.76,28.2,20.52,22.92-3.36,39.6-9.84,50-19.56,7.2-6.6,11.28-14.52,12.12-23.76l-.12-.36q.18-.36,1.8-.36c1.44,0,2.4,1.56,2.76,4.56a21.13,21.13,0,0,1,.24,4.8q0,18.9-28.44,34.2a149.31,149.31,0,0,1-20.28,8.64c-5.64,2-9.24,3-10.56,3-19.2,0-32.76-8.52-40.8-25.56a72.5,72.5,0,0,1-5.52-17.88l-1.08-9.12V470.16c.12-4.2,0-10.56-.36-18.84L285,438.48q0-40.86,7.56-65.88,13.86-46.8,52.56-48.36c14.76.6,25.56,2.28,32.4,4.92Q385.44,332.22,385.44,336.72Zm34-9.48c1.32-2.76,9-1.8,23.16,2.88q12.42,4.14,33.84,12.6a57.49,57.49,0,0,1,20.88,15.12c3.6,4.08,8.52,10.44,14.76,19.2,4.92,6.24,9.6,18.12,14.28,35.52q6.84,25,6.84,40c0,15.36-4.8,31.44-14.28,48.12-8.28,14.52-19.56,28.68-33.6,42.24-12.6,12.12-25.44,22.2-38.76,30-12.84,7.56-22.8,11.4-30,11.4L407.4,584l-.36-.48-.6.36-1.2.72c-.72-1.68-1.08-4.56-1.08-8.52,0-7.08.84-17.52,2.64-31.08s2.76-24.48,2.76-32.64c1.8-8,2.52-18.24,2.16-30.84q-1.08-21.24-1.08-31.68c.6-8.76,1-19.32,1.2-31.92l.6-31.8c.6-25.44,2.52-46,5.52-61.56A11.29,11.29,0,0,1,419.4,327.24Zm.72,3.84q0,24.12-3.72,111c-2.52,62-5.28,105.84-8,131.4,20.76-2.4,34.44-6.24,40.8-11.64a90,90,0,0,0,6.48-7.2,33.88,33.88,0,0,1,8.88-7.68,195.65,195.65,0,0,0,19.8-13.68,138.64,138.64,0,0,0,18-16.56c3.72-4.2,9.12-14.4,16.08-30.36,7.32-16.92,11-28.44,11-34.56,0-7.2-2.64-19.56-8-37.08-5.16-17.16-9.48-28.08-12.84-32.76-5.88-8.4-10.68-14.28-14.16-17.76a47.71,47.71,0,0,0-20.52-12.36c-5.64-1.32-15-4.44-28.32-9.36-14.52-5.4-23-9.72-25.56-12.72ZM374.76,124l-1,15.72q0,7.56-3.6,51.12L366,240.12l-2.52-2.28A2.89,2.89,0,0,1,363,236q0-12.06,4.8-69.36l.24-2.16-30-.24-5.88-.48-.36,5.28-4.8,71-.6.48-1.32.6c-.72-3.24-1.08-8-1.08-14.64,0-11.64,1.08-33.84,3.36-66.84-.6-.6-1-1.08-1-1.56a6.18,6.18,0,0,1,.36-2.52l.48-.84h.36l.12-1.32c2.52-38,4.44-57.48,5.76-58.44l.72,1.2a8.06,8.06,0,0,1,.36,2.76c0,15.72-.6,34.56-1.92,56.52l6,.6,30.12.24c2.76-31.44,4.68-51.12,5.88-58.92.72,2.16,1.08,5.76,1.08,10.92Zm63.84-19.2q-29.7,0-42,40.56a80.31,80.31,0,0,0-2.4,9.24l5.64-.72,26.52-2.52c3.24.36,5.4.72,6.48,1.32a3.3,3.3,0,0,1,1.8,3.24c0,3-.48,4.56-1.56,4.8l-7.32-.24-6.72.24-5.16.6L404,162.36l-7,.84a9.36,9.36,0,0,1-4.56-.84A145.25,145.25,0,0,0,390,189.48c0,10,1.08,18.24,3.36,24.84,4.2,13.08,12.12,19.56,23.76,19.56,10.08,0,17.76-1.8,23-5.52a18.59,18.59,0,0,0,4.44-4.2l1.68-2.64a8.52,8.52,0,0,1,2.52,3.12l.48,1.68c0,2.88-2,6.36-6.24,10.32a26.09,26.09,0,0,1-18.84,7.56c-18.48,0-30.24-8.4-35.16-25.08a70.69,70.69,0,0,1-2.52-18.36l.24-10.8a153.56,153.56,0,0,1,3.84-33.6l.12-1,.12-.6h.24a119.18,119.18,0,0,1,4.32-15.12q11.16-33.66,32-43.08c7.32.24,12.24,1.08,14.52,2.52a4,4,0,0,1,1.92,3.72,6.31,6.31,0,0,1-.36,2.4l-.48,1.32-1.68-1A4.43,4.43,0,0,0,438.6,104.76ZM557.76,170c0,22.2-10.2,41.4-30.72,57.36a106.43,106.43,0,0,1-26,15c-8.52,3.36-16,5-22.2,5l-3.6-.12-1.56-.12-.36-2a19.53,19.53,0,0,1-.12-2.88c0-1.56,4.2-4.08,12.72-7.32,13.32-5.16,22.56-9,28-11.76q40.68-20.52,40.68-53.4c0-15.6-4-28-12-37.2Q524.7,112.08,479,105.84l-.36,2.52a115.71,115.71,0,0,0-1.2,14.28l.24,23.88L475,183.36c-1.8,25.08-2.64,40.44-2.64,45.84l.12,3.24a2.5,2.5,0,0,0,2,1.44c-.84.84-1.44,2.64-2,5.16l-1.44,5.4a13.84,13.84,0,0,1-1.8-6.36c-.12-1.08-.12-3.6-.12-7.44,0-4.2.36-14.88,1.08-31.8.84-19.2,1.68-31.32,2.4-36.24.6-4.2,1-15.72,1.32-34.68.36-14.52,1.92-25.56,4.68-32.88l.84.84a2.84,2.84,0,0,1,.48,1.92q48.78,3.06,67.08,29.76Q557.76,143.4,557.76,170Z" transform="translate(-48.12 -11.64)"/></svg>