<svg id="Layer_1" data-name="Layer 1" xmlns="http://www.w3.org/2000/svg" viewBox="0 0 193.79 206.35"><defs><style>.cls-1{fill-rule:evenodd;}</style></defs><path class="cls-1" d="M223.56,297c-1.56,13-3.72,25.92-6.24,38.76-4.2,21,0,38.88,12.6,53.88a20.92,20.92,0,0,0,16-1.68c10.44-9.24,13.32-19.44,8.4-30.84a58.89,58.89,0,0,1-11.88,16c-4.68,2.76-9,2.64-13-.24a24.63,24.63,0,0,1-4.92-20.16,230.26,230.26,0,0,0,1.92-59.4A3.91,3.91,0,0,0,223.56,297Zm4.56-40.2.12-.12C229.8,260.4,229.68,260.4,228.12,256.8Zm-1.68-8.88c-4.44,6.84-4.56,13.92-.6,21l1,.72,2.88,1.56,1-1.08c6.24-8.52,6.24-16.68-.12-24.36a4,4,0,0,0-3.48,1.32Zm150.12,44q31.5,18.36,22.68,56.64c-2,9.24-7.2,16.08-15.36,20.28a93.57,93.57,0,0,1-54,10c2-17,3.6-34.2,4.8-51.36l2.16-34.92c12.36,3.48,23.64,2.16,33.72-4.2Zm2.88-10.68c10.08-11.88,14.64-25.8,13.8-41.64-.84-16.56-7.92-30-21.12-40.2-10.56-8.16-21.6-9.12-33.24-2.76l-2-3.24c-4.2,29.64-7.08,60-8.76,90.84q-2.52,47.52-4.08,95.28a11.92,11.92,0,0,0-.36,12.6l1.08,1.8,1.8,4.92,1.32-4q32.76,8.64,57.48-11.52,22.5-18.36,24.12-48.24,1.62-31.86-23.52-49.8A45.27,45.27,0,0,0,379.44,281.28Zm-.48-16.2c-11.64,12.36-25.44,17.16-41.52,14.16,1.08-24.36,1.8-48.84,2-73.2,18.84-3.24,33.36,3.24,43.32,19.44C391.56,239.76,390.36,253,379,265.08Z" transform="translate(-215.74 -192.53)"/></svg>