<svg id="Layer_1" data-name="Layer 1" xmlns="http://www.w3.org/2000/svg" viewBox="0 0 192.49 323.16"><defs><style>.cls-1{fill-rule:evenodd;}</style></defs><path class="cls-1" d="M159.6,139.92c.84,42.84,1,85.92.36,129q-.9,65-6.12,129c-1.08,12.24.48,22.8,4.68,31.8,2.28-21.6,4-43.56,4.92-65.76,1.8-42.84,2.88-85.8,3.48-129.12s-.36-86-3-128.28C160.8,116.4,159.36,127.56,159.6,139.92Zm83-22.44.36,3.24,1.32,1.44q.18,44.82-1.92,89.64Q239,284,236.4,356.16l-.84,16L235,380l-.72,8-1.68,16a51.76,51.76,0,0,0,0,10.56A20.16,20.16,0,0,0,238.32,427q7.74-92.34,10.8-185c17.4,4.2,35.52,4.56,54.36,1.32a30.64,30.64,0,0,0,8-2.16c3-4.68,2.88-9.24-.6-13.56L309.48,226a149.31,149.31,0,0,1-59.64,3.36,784.51,784.51,0,0,0-1.92-106.2,315.3,315.3,0,0,0,96.72,4.08,11.79,11.79,0,0,0,1.08-8l-.72-3.24-.6-1.68-.36-.36a724,724,0,0,1-99.48-1.32Z" transform="translate(-153.51 -106.56)"/></svg>