<svg id="Layer_1" data-name="Layer 1" xmlns="http://www.w3.org/2000/svg" viewBox="0 0 238.57 413.4"><defs><style>.cls-1{fill-rule:evenodd;}</style></defs><path class="cls-1" d="M148.56,421.56q-1.26,19.62-2.16,39.6a224.09,224.09,0,0,0,1.2,36.48l.6-4.08a74,74,0,0,0,16.2,2.88L184,498.12c6.6.36,13.08.48,19.44.24l-.36-10-54-2.88c2.28-21.72,3.72-43.44,4.44-65.16.48-13.08.6-26,.48-39.12A308,308,0,0,0,148.56,421.56Zm18.12-168.24L174,257.4c8,3.24,13.68,9.36,16.92,18.12l.84,2.64q-12.6,18.9-36,19.8l.48-41.52Zm-14.28,4,2.28-.24-4,40.92H149l1.08,8.16a245.37,245.37,0,0,0-4.44,61.32,13.75,13.75,0,0,0,1.8,7l7.8-67.92,15-1.8A284.16,284.16,0,0,0,190.2,379.8a282.51,282.51,0,0,0-18-75.6c9.48-2,15.72-7.2,18.84-15.48a30.48,30.48,0,0,0-.12-22.08,31.49,31.49,0,0,0-15.72-17.4,58.55,58.55,0,0,0-10.68-4.32l-8.4,2.64-4.68,5.16-.12,2.4Zm-40.32-49q-.9,64.62-5.52,128.28c-3.24,42.84-6.36,85.92-9.24,129-.84,12.24,1.2,22.8,6,31.68a10.35,10.35,0,0,0,2.52-6.48l.72-18.6q1.44-64.44,5.88-128.4,4.5-64.26,5.76-129,1.26-65-3.24-128.16A84.81,84.81,0,0,0,111.24,115C112.2,146,112.44,177.24,112.08,208.32Zm80.76-101.88a791,791,0,0,0-4.32,109Q174.3,158,161.64,100.56q-.54-4.86-1.44-9.36l-.6,4.32a2.35,2.35,0,0,0-.84,2.4l.24,2.88c-1.8,16.2-3,32.76-3.36,49.68a578.3,578.3,0,0,1-5,61.44c-1.32,9.48-.48,17.4,2.76,23.52A83.52,83.52,0,0,0,158.52,207c.24-27.72,1.32-55.32,3.36-83q2,13.5,5,27c4.2,19,8.28,37.92,12.12,57,2.28,11.64,5.64,21.72,10.08,30.12l1.08-4.32a12.51,12.51,0,0,0,3.12-8.64c.36-43.32,1.2-86,2.76-128.28A21.61,21.61,0,0,0,192.84,106.44ZM331.2,94.2c-4.92,8.52-9.6,17.16-13.8,25.92q-28.08,57.42-57.48,113.76a72.06,72.06,0,0,1-8.76,13.2q-10.26,12.06-13.32,25.56l2-51.24q2.52-64.08-.72-127.56l-.84-.72-1.08-.84c-1.2,0-1.8.72-1.92,2.16-.72,16.68-1.2,33.48-1.56,50.28q-1.26,64.08-3,128.28c-1.32,43.08-2.88,86-4.8,129.12-1,21.6-2.52,43.2-4.56,64.8-1.2,12.6.72,23.28,5.88,32l.36-.36c4-8.52,4.56-17.52,1.8-27.24a218.44,218.44,0,0,0,2.16-25.2q1.44-64.26,4.32-128.28l1.08-26.4c.72-.12,1.2-.24,1.44-.6q13.5-23.4,26.28-47.28l12.72-24.24A364,364,0,0,0,283,279.6q11,62.82,22.56,125.52L317.76,469A119.67,119.67,0,0,0,328,500a3.07,3.07,0,0,0,2.16-2.76,94.54,94.54,0,0,0-3.24-38.4,922,922,0,0,1-27.72-124.44c-6.12-40.2-12.48-80-19.32-119.52q22-42.3,42.6-85.68a89.1,89.1,0,0,1,7.92-13.56c5.88-8.4,7-16.08,3-22.92l-.12.24Z" transform="translate(-97.14 -86.64)"/></svg>