<svg id="Layer_1" data-name="Layer 1" xmlns="http://www.w3.org/2000/svg" viewBox="0 0 78.48 112.66"><defs><style>.cls-1{fill-rule:evenodd;}</style></defs><path class="cls-1" d="M293.76,288l-1.56.24a53.79,53.79,0,0,0-31,28.8,76.2,76.2,0,0,0-6.72,22.32l-1.8.48,1,8.88a70.3,70.3,0,0,0,8.64,34.8A90.86,90.86,0,0,0,272.16,398a65.36,65.36,0,0,0,40.08-1.56c10.92-3.84,17-11.4,18.6-22.68l.36-4.44A73.27,73.27,0,0,1,272.76,385a37.89,37.89,0,0,1-13.32-26.16l-1.32-10.32,61.44-1.92a10.2,10.2,0,0,0,1.32-4.08,13.63,13.63,0,0,0-.12-4.92,15.24,15.24,0,0,0-2-4.8,252.85,252.85,0,0,0-60.84,5.88,48.2,48.2,0,0,1,19.2-31.44c15.72-11.64,30.24-10.2,43.8,4.44l4.32-2.16-10-13.8c-3.24-1.56-6.48-3.36-9.72-5.28A17,17,0,0,0,293.76,288Z" transform="translate(-252.72 -287.8)"/></svg>