<svg id="Layer_1" data-name="Layer 1" xmlns="http://www.w3.org/2000/svg" viewBox="0 0 255.49 204.27"><defs><style>.cls-1{fill-rule:evenodd;}</style></defs><path class="cls-1" d="M220.8,287.64c-15.48,8.28-25.56,20.88-30.24,37.92a86.92,86.92,0,0,0,0,45.72,80.42,80.42,0,0,0,10.2,23.52,44.15,44.15,0,0,0,34.2,3.48,39.19,39.19,0,0,0,24.12-19.44,8.63,8.63,0,0,0-.24-9.12c-9,8.4-20.52,13.8-34.8,16.32-12.24,2.16-20.64-2.16-25.2-13.08a62.26,62.26,0,0,1-5-28l51.6-2.52a9.72,9.72,0,0,0,1.68-5,9.13,9.13,0,0,0-.72-4.32l-1.2-2.76-49.8,4.2c2.16-15.12,10-25.56,23.4-31.44a30.08,30.08,0,0,1,25.68.48l3.72,5.52c2.76-1.44,3.36-4,2-7.44a17.56,17.56,0,0,0-10-10.68Zm155.52,105a603.85,603.85,0,0,0-10.92-74.76A635,635,0,0,0,327.12,197c-2.16,4.44-2.16,9.36.12,15a618.69,618.69,0,0,1,33.84,123.84,571.93,571.93,0,0,0,13.32,60.48A3.63,3.63,0,0,0,376.32,392.64Zm6.6-26.52c-6.12,10.68-7.68,21.24-4.68,31.56a171.69,171.69,0,0,0,18.48-42.12q17.64-61.38,37.08-122.16a103,103,0,0,1,5.76-14.64c4.2-8.76,4.56-16.44,1-22.8a310.91,310.91,0,0,0-12.72,33.36L389.28,351.6A74.09,74.09,0,0,1,382.92,366.12Z" transform="translate(-187.5 -195.96)"/></svg>