<svg id="Layer_1" data-name="Layer 1" xmlns="http://www.w3.org/2000/svg" viewBox="0 0 419.43 396.07"><defs><style>.cls-1{fill-rule:evenodd;}</style></defs><path class="cls-1" d="M298.68,254l6.6,4.92a33,33,0,0,1,5.64,5q43.38,49.14,32.76,115.56a59.64,59.64,0,0,1-8.52,22.68q-28.62,45.18-81.72,44.52a677,677,0,0,0,7.2-108.24c-.36-23.64-.36-47.16,0-70.68l5.76-.36a44.7,44.7,0,0,0,24.12-11.64A42.69,42.69,0,0,1,298.68,254Zm23.88-118.8q14.94,56.7-24.12,100.2a8.38,8.38,0,0,0-5.76,2.4,53.78,53.78,0,0,1-31.8,14.52l1.32-43A809.42,809.42,0,0,0,258,92.16l13.56-.48C298.56,94.2,315.48,108.72,322.56,135.24ZM252.84,87.12a10.77,10.77,0,0,0,1.08,4l1,1.68h.36c-.84,15.48-1.08,31.08-.72,46.92.84,37.56,1.32,75.36,1.2,113.4A5.36,5.36,0,0,0,253.8,256a11.91,11.91,0,0,0,.24,8.16,5.8,5.8,0,0,0,1.68,2.4v2.16q-.18,65-4.32,129a258.92,258.92,0,0,1-4.2,32.16A66.55,66.55,0,0,0,246,446.4l-2.76-.24a9.26,9.26,0,0,0-1.92,4.92A22.35,22.35,0,0,0,242.4,460c2.52.84,5,1.68,7.56,2.28v.12l.24-.12A62.23,62.23,0,0,0,283,461c32.28-9.72,52.92-30,61.68-61.08A179.53,179.53,0,0,0,347,308.4q-9.54-41.4-43.2-64a79.37,79.37,0,0,0,18.72-28.68c11.4-29.4,13-59.64,4.44-90.48-7.8-28.44-26.16-44.64-55.32-48.72a66,66,0,0,0-13.08,2.52,10.22,10.22,0,0,0-5,3.24A16,16,0,0,0,252.84,87.12Zm-53.52-4.56c-13.2-8.76-27.84-11.64-43.8-8.64a88.25,88.25,0,0,0-41.64,20A79.87,79.87,0,0,0,90,129.48c-5,14.76-9.6,29.76-13.8,44.88-2.76,10.2-5,20.52-7.08,31-2.52,13.08-4.44,26.28-5.76,39.48s-2,26.64-2.16,40.2c-.12,15.48-.12,31,0,46.56a220.75,220.75,0,0,0,4.2,41.64,309.13,309.13,0,0,0,10.92,40.08A81.68,81.68,0,0,0,100,448.56a66.7,66.7,0,0,0,42.6,17.52,66.52,66.52,0,0,0,44-12.72c15.24-10.92,21.48-24.48,18.84-40.68A23.49,23.49,0,0,0,204,408.6q-17.64,29-49.92,38.16a48.29,48.29,0,0,1-31.32-1.44,66.1,66.1,0,0,1-32.28-26.64A157,157,0,0,1,80.76,401a115.88,115.88,0,0,1-5.88-15.12,118.3,118.3,0,0,1-3.6-16,368.44,368.44,0,0,1-3.84-40.08c-.84-19.8-.6-39.48.48-59.28a337,337,0,0,1,87-8,13.71,13.71,0,0,0,1.68-9.72,12.44,12.44,0,0,0-2.4-5.28,174.82,174.82,0,0,0-85.56,11.28Q67.92,172.8,119,108a56.58,56.58,0,0,1,31.08-20,61.09,61.09,0,0,1,42.24,4,64.83,64.83,0,0,1,9.24,5.52l5.4,10.08,2.16.6c1.8-8.28-.72-15.72-7.8-22.56A7.06,7.06,0,0,1,199.32,82.56ZM465.12,289.8a236.31,236.31,0,0,1,5.16,94.56q-5.76,39.78-40.92,55.8a334.09,334.09,0,0,0-38.88,8.16q5.22-52.2,6.84-104.88,1.08-39.78,1-79.32a47,47,0,0,0,15.6-6.72,79.31,79.31,0,0,0,11.52-9.24,40.85,40.85,0,0,0,14.76-.24A85.3,85.3,0,0,1,465.12,289.8ZM438,103.56c16.68,17.4,23.76,38.88,21,64.44-4.32,40-24.6,67.2-60.84,81.48l-.48-35.16c-.84-41.4-1.92-82.2-3.24-122.64a65.38,65.38,0,0,1,30.84,3.72A32.25,32.25,0,0,1,438,103.56ZM391.32,84a13.15,13.15,0,0,0-.72,3.12,7.62,7.62,0,0,0,.48,3.24l.48,1.68,1.2-.24a421,421,0,0,0-2.64,54.36c.6,36.6,1,73.32,1.32,110a19.86,19.86,0,0,0-.36,3.84l.36,2,.12,13.08c.24,43.32-1.08,86.28-4,129.12-.84,10.8-2,21.48-3.72,32.16a63,63,0,0,0-.84,14l-3.72,1.08a17.78,17.78,0,0,0-2,6.48,11.42,11.42,0,0,0,3.12,9l5.76-1,1.32,2.76a1.68,1.68,0,0,0,1-1.32l.24-1.92,34.44-6.48a42.32,42.32,0,0,0,18.84-9q33.66-27.72,35.76-72.6c.36-9.12,1.08-18.24,1.92-27.48q6.84-67.86-38.64-114.6l-3.72-.24v.12h-.36q36.9-47.16,23.4-109.08Q451,83,405.84,78.48a27.68,27.68,0,0,1-6.48,1.92A29.61,29.61,0,0,0,391.8,83Z" transform="translate(-61.11 -72.77)"/></svg>