<svg id="Layer_1" data-name="Layer 1" xmlns="http://www.w3.org/2000/svg" viewBox="0 0 458.13 447.24"><defs><style>.cls-1{fill-rule:evenodd;}</style></defs><path class="cls-1" d="M329.16,306c18.6-2.64,30.6,5.52,35.88,24.36-8,13.08-19.56,21.12-34.68,24.12C330.48,338.28,330,322.08,329.16,306ZM227,349.92l7.92-18c5.16-11.28,7.32-22.32,6.36-33.12l13.8,47.64Zm13.2-55.2-24.12,56.52L208.8,354l2.28,6.36Q200.82,387,190.08,416c-2,5.88-1.08,10.92,3.12,15.36l28.68-69.6,37.44-.72q11.34,39.42,21.12,79.56A142.76,142.76,0,0,0,298.68,484a18.78,18.78,0,0,0,1.2-15.24c-11.64-35.76-22.56-72-32.52-108.72l8-1.44a12.67,12.67,0,0,0,1.56-8l-.24-1.68-.6-1.68-1.8-3.24-11.88,1.56-22.2-56.16ZM238.32,63c-1.8,27.72-3,55.56-3.36,83.64-.6,43.2-.72,86.28-.12,129.12a1.63,1.63,0,1,0,3.12.72v-.72q51.3,1.62,102.12,1.08a17.29,17.29,0,0,0,2-11.4,10.09,10.09,0,0,0-2-4.8,1.35,1.35,0,0,0-1.32-.36A36.75,36.75,0,0,1,323.64,259q-42.66.54-84.48,4.32,3.06-35.64,3.6-72c.6-43.32-.48-86.4-3.12-129C238.8,62,238.32,62.28,238.32,63ZM213.6,88.44q-8.1-39.24-51.24-36.72a181.35,181.35,0,0,0-19,3.6,63.52,63.52,0,0,0-36.12,23.52,249.33,249.33,0,0,0-45.72,99,555,555,0,0,0-9.36,56.52c-1.32,12-2.28,23.88-2.88,35.76l-.48,1.32a11.33,11.33,0,0,0,.24,7.2A508.83,508.83,0,0,0,54,363a241.92,241.92,0,0,0,48.24,113.88A51.06,51.06,0,0,0,129,495.24c28.92,8.28,55,2.16,78.12-18.6a36.69,36.69,0,0,1,13.2-7.68c15.84-5.16,20.88-14.28,15-27.12a104.87,104.87,0,0,0-36,19.32A89.46,89.46,0,0,1,163.44,479q-31.86,7.74-53.4-15.72a160.08,160.08,0,0,1-33.36-54.48A325.26,325.26,0,0,1,56.76,282l.12-.72c27.36-9,55.8-11.76,85.44-8.52l.6-.6c3.24-6.12,2.4-11-2.28-14.76A207.71,207.71,0,0,0,57.48,267l.72-17.64a371.35,371.35,0,0,1,25-117.48C96,98.52,119.64,77.88,153.84,70q41.4-9.72,59.4,24.48A12.65,12.65,0,0,0,213.6,88.44Zm153.72,230.4c-4.44-17.28-15.48-25.92-32.88-25.92-10.08,0-13.92,4.68-11.4,14.16l2.16-.48q-4.32,74.16-12.6,148.56a31.19,31.19,0,0,0,6.6,23.52,610,610,0,0,0,11-109.56l10.2-2.16a621,621,0,0,0,35.64,120.36q-3.78-62.1-29.64-122.76l7.2-4Q374.16,344.94,367.32,318.84Zm45.6-244.2q-4.68,2.88-5,9.72c-1.32,27.48-2.28,55.2-2.88,82.92q-1.08,64.26-4.8,128.16c-2.52,43.08-4.44,86-5.76,129.12a219.63,219.63,0,0,1-3.36,32.16c-1.2,7.32-.72,13.32,1.56,18.12a13.35,13.35,0,0,0-.36,8.64,11,11,0,0,0,10.92,4.2H406a173.6,173.6,0,0,0,38.64,1.2,416.92,416.92,0,0,1,44-1.2q24.84.54,15.12-20.16l-3.36.24A115.63,115.63,0,0,1,476.16,471l-16.8.48L399,475.08a41,41,0,0,0,2.28-14q-.36-64.44,3.36-128.28c2.4-42.84,4.08-85.92,4.92-129s2.52-85.56,5.16-127.44l-.72-.84Z" transform="translate(-48.37 -51.57)"/></svg>