<svg id="Layer_1" data-name="Layer 1" xmlns="http://www.w3.org/2000/svg" xmlns:xlink="http://www.w3.org/1999/xlink" viewBox="0 0 578.64 593.05"><defs><style>.cls-1{fill:none;}.cls-2{clip-path:url(#clip-path);}.cls-3{fill-rule:evenodd;}</style><clipPath id="clip-path" transform="translate(-4.32 -0.71)"><rect class="cls-1" x="4.32" width="578.76" height="593.88"/></clipPath></defs><g class="cls-2"><path class="cls-3" d="M257.16,457.32q0,14.76-8.88,118.92l8-.6,7.32.24,7.92.6,5.64.36,6.24.72,9.48-.72a5.65,5.65,0,0,0,2.4-1.2,6.48,6.48,0,0,1,4.44,4.2,8.77,8.77,0,0,1,.72,3.6,7,7,0,0,1-1.92,5.28l-7.92-.24-8.28-.6-11.88-1.08-7.32.24-7.92.6-10.2-.36c-1-2-1.44-4.92-1.44-8.88q0-7.2,4.32-57.6c3-36.6,5.64-62.28,7.68-76.92C256.68,446.64,257.16,451.08,257.16,457.32Zm1.08-83.52,13-7.2c12.6-7.32,19-14.52,19-21.48A35.65,35.65,0,0,0,288,333.84c-2.28-6.72-5.52-10.08-10-10.08A47.42,47.42,0,0,0,265,325.44l-2.64,1-4.44,47.4v.12Zm2.4-58.56L261,314l.24.6c2-1.32,4.68-1.8,8.16-1.44q15.12-5,21.24,11.52A55.71,55.71,0,0,1,294,345a71.3,71.3,0,0,1-.6,10.44,21.18,21.18,0,0,1-3.48,8.64c-2.52,4-7.56,8.28-15.12,13.08L283.44,411c4.92,19.08,7.32,29.4,7.32,30.72a9.05,9.05,0,0,1-.48,3.36,9.22,9.22,0,0,1-2,2.64c-1.8-4.8-5.16-16.68-10.08-35.52-4.44-17.4-6.84-28.2-7.32-32.64l-5.52,3.24-4.2.48-4.2.6-5.4,55.92-.6.48-1.08,1a12.2,12.2,0,0,1-1.56-3.36,28.86,28.86,0,0,1-.24-3.72q0-12.78,3.6-54c2-23.88,4.32-42,6.6-54.24l-.24-.6a17.67,17.67,0,0,1-.24-3,10,10,0,0,1,1.68-5.88ZM126.48,41.76Q122,78.84,107.4,162.6,88.14,274.74,81.48,302.16L73.8,332.4a37.58,37.58,0,0,1,4.32-2.64c5.64-2.76,17.4-6.48,35.52-11.16a174.7,174.7,0,0,0,23.88-8l15.24-6.72a24.78,24.78,0,0,1,4.32-1.32q-5.76-40.86-17.16-137.64Q129.3,76.68,126.48,41.76Zm0-34.44q.9-5.76,2.16-6.48c2.16-1.2,3.24,6.12,3.24,21.84q0,81.18,37.92,318.12l26,158.28q11.88,71.82,11.88,81.24c0,3.6-.12,5.88-.24,7-.6,3.72-2,5.88-4.2,6.48q-7.74-29.16-13.56-70.92-5.76-47.7-9.12-71.64-3.42-23.4-11.28-70.8-6.48-39.24-10.08-62.52a39.77,39.77,0,0,1-8.76,5.4c-6.12,3-15.72,6.6-29,10.8-18.36,5.76-28.8,9.12-31.56,10.08-10.56,3.84-17.28,7.32-20,10.44l-1.8-1c-7.08,26.28-15.72,56.52-25.8,90.48-4.92,16.68-10.68,40.44-17,71.4-7.08,33.72-12.36,57.36-16,70.68a9.83,9.83,0,0,1-4.32-4.8,13.31,13.31,0,0,1-.6-4.08q0-31.32,35.16-159.48c7.2-26.28,15.36-55.08,24.48-86.16L75.72,291.6Q89,238.86,102.12,148.68L112.56,77.4q6.12-40.5,12.24-70.68L126.36,8Zm172.44,200.4c.12,18.72.36,29,.48,31,.36,4.92,1.68,15.12,3.84,30.84A208.43,208.43,0,0,1,305.88,299l-.24,4.44-.6.48-1.08.84q-7.38-20.34-8.28-50.76c.24-22.68-.12-39.72-1.2-51.12l-.24-.48c-1.32,6.6-2.88,15.36-4.44,26.28L286,256.8c-3.24,22.44-6.72,37.32-10.68,44.76-.6-8.52-1.92-24.36-4.2-47.76-1.92-20.52-3.24-36.84-3.84-48.72l-.84-1.32c-1.8,9.84-4.8,25.8-9.24,47.76-4.2,21.24-7.32,37.2-9.12,47.88h-1.68a73,73,0,0,1-.6-10.92c0-4.2,2.76-20.4,8.16-48.6,5.88-30.84,10.8-52,14.64-63.12,3.72,31.2,6.6,65.76,8.4,103.68l.24.24,7.68-51.12c3.24-21,6.72-38.28,10.44-52.08Q298.74,189,298.92,207.72ZM236.28,14.4a26.11,26.11,0,0,1,.6,5c0,5.64-.84,17.4-2.64,35.4-1.8,18.48-2.76,28.56-2.76,30.36-.36,14.64-.72,36.48-1.08,65.4,0,24.84.36,48.48,1.08,70.68L234.72,301v63.36l.6-.84c.36-.24.48.24.48,1.32l-.12,3,.12,2.28v98.16c-1.8,7.8-2.88,18-3.24,30.72-.72,18.72-1.2,29.28-1.32,31.8-.6,6.72-1.2,17-1.8,31.08-1.08,12.24-3.72,22.68-7.68,31.2a10.91,10.91,0,0,1-4.32-9.24c0-15.6,1.44-36.48,4.32-62.76q2.52-23.58,7.56-59V376.8a18.61,18.61,0,0,1-.36-6.6l.36-5.64c0-1.08-.24-1.56-.6-1.32l-.48.6V294q-.18-45.54-2.28-79c-1.32-22.08-2-43.56-2-64.56q0-17.28,4.2-76.44c3-39.48,4.92-61.2,6-65.16A26.48,26.48,0,0,1,236.28,14.4ZM377.64,201a6.44,6.44,0,0,1-3.84,4.44l-3.72-3.84-8.76-8.4a44,44,0,0,0-8.4-1.32c-7.8,0-14.76,7.08-20.88,21.36a103.8,103.8,0,0,0-5.4,16,47.17,47.17,0,0,0-1.8,9.72l-.36,23a128.4,128.4,0,0,1-2.88,23v58.56l-2.4,27.6,33-1.92a11.36,11.36,0,0,1,1.8,6.12,10.62,10.62,0,0,1-.48,3.48L351.6,382l-22,1.32-6.12.84a13.4,13.4,0,0,1-5.4-.84l-1.92,16.2v43.08q-.72,15.66-1.44,44.64L314,515.64l-.6,9.48a149.23,149.23,0,0,0,.48,19.8c2,18.84,8.28,28.32,18.48,28.32,18.12,0,30.12-7,36-21a47.49,47.49,0,0,0,3.36-14.76l.12-7.32a8.39,8.39,0,0,1,.48-3.24,19,19,0,0,1,2-3.24,10,10,0,0,1,3.36,6.48l.12,7.32a54.65,54.65,0,0,1-6.48,26.28c-6.48,12.12-17,19.68-31.68,22.8-15,2-24.48-7.8-28.68-29.4a146.88,146.88,0,0,1-2.16-24.72l.24-15.72.72-30.72c.48-21,1-37.32,1.44-48.84V394.08a280.31,280.31,0,0,0,3.24-28L316.68,338V279.6c1.08-6.36,2-16.56,2.64-30.84.6-14,1.56-24.24,2.76-30.6q3.78-20.34,17.64-31c11-8.28,20.52-10.08,28.56-5.52a18.86,18.86,0,0,1,7.2,7.2,15.79,15.79,0,0,1,2.4,7.68A25.35,25.35,0,0,1,377.64,201Zm93.6-136.68a120.11,120.11,0,0,0-24.36-17.76,153.84,153.84,0,0,0-21-9.36l-16.44-5.4c-5.16-1.8-8.64-3.48-10.68-5.16V127c.36,2.64.72,6.72,1.08,12.12s.72,9.48,1.08,12.24v59.16c.72,10.92,1.08,27.24,1.08,49.08l-.24,57.36c-.48,19.44-1.8,40-4.08,61.44v55.2l-1.08,4.08v66.6c-1,9.48-2,23.64-3.24,42.72q-.9,11.52-2.16,21.24l2-.12c1.92,0,8-2,18.24-6l17-7c4.8-1.8,11.88-4.44,21.12-7.68,7.32-2.64,12.24-4.92,14.52-6.72a133,133,0,0,0,19.44-18.36c8.52-9.48,13.56-14.88,15.24-16.44q22-20.16,33.84-35.28c9.72-12.36,16.2-24.12,19.2-35.4L566,383c3.24-12.12,5.4-21,6.24-26.76a144.28,144.28,0,0,0,1.44-22.44l-.24-39,.12-35.64A185.46,185.46,0,0,0,571,229.8c-3.48-18.84-13.44-44.4-29.88-76.92q-16.38-32.22-52.56-70.56Q474.84,67.56,471.24,64.32Zm100.8,136c4.56,12.36,7.32,22.08,8.4,29.16,1,5.76,1.2,13.92.72,24.36-.84,17.52-1.2,31.32-1.2,41.4l.36,37.8a200.44,200.44,0,0,1-1.44,26,305.22,305.22,0,0,1-6.48,31.8c-2.64,10.56-7.56,28.92-14.88,55-3.36,12.24-9.84,24.84-19.44,37.92-8.52,11.64-20,24.24-34.44,37.56-1.44,1.44-7.2,7.68-17.28,18.84-7.44,8.16-14.4,14.28-20.76,18.48s-18.84,9.84-37.2,16.92c-19.56,7.56-33.12,11.52-40.68,11.76l-.36,1.44a4,4,0,0,1-3.48-3.36,22.34,22.34,0,0,1-.36-5c0-2.52,1.08-14.88,3.12-37.08l4.44-45.72v-66.6a35.67,35.67,0,0,1,1.08-4.92V372.48c2.28-25.08,3.72-45,4.2-60,.12-5.64.24-23.28.24-52.92,0-18.84-.36-33.12-1.2-42.84v-60c-.36-4.2-.84-16.68-1.32-37.56-.6-19.68-.84-34.08-.84-43.32,0-16.32.12-27.12.36-32.52A208.26,208.26,0,0,1,395.28,21a10.5,10.5,0,0,1-.36-2.88c0-4.2,1.08-6.6,3.24-7.32q2.7-.9,9.72,1.8l16.68,7.32c8.64,4,16.56,7.08,23.88,9.6a131.63,131.63,0,0,1,25,18.72l19,19.44C506.64,82.56,517.68,95,525.48,105c11.16,14,19.08,27.12,24,39C561.24,172.68,568.8,191.52,572,200.28Zm.84-150.12a9.69,9.69,0,0,1,.36,3,7,7,0,0,1-1.92,5.28l-5.76-.24-6.12-.6-32.16-.36a24,24,0,0,0-.6,4.44c0,3.6,1.56,7.44,4.8,11.4C536.28,79,543.24,82,552.36,82c11.16,0,19.08-1.08,23.64-3.24l3.48-2.4L581.4,75l1.2,2.16a10.8,10.8,0,0,1,.36,3c0,2.52-1.32,5.16-4,7.8a17.63,17.63,0,0,1-13.08,5.16c-19.8,0-32.76-4.92-39.12-14.64a22.76,22.76,0,0,1-3.72-10.56L523,61.8l.12-4.68h-1A6.37,6.37,0,0,1,521,54.84a17.67,17.67,0,0,1-.24-3c0-2.52.6-4.32,1.8-5.28H525a46.72,46.72,0,0,1,6.84-14.4,49.54,49.54,0,0,1,19.44-16.68c7.2-3.6,13.68-5,19.56-4.44s8.88,3,8.88,7.44l-.12,4.32a.92.92,0,0,1-1.2.72L575,22.68l-7-.72c-14.52,0-25.68,5.88-33.48,17.76a63.94,63.94,0,0,0-3.72,6.84c19.32.24,29.16.48,29.64.84l11.16.48Z" transform="translate(-4.32 -0.71)"/></g></svg>