<svg id="Layer_1" data-name="Layer 1" xmlns="http://www.w3.org/2000/svg" viewBox="0 0 429.61 481.56"><defs><style>.cls-1{fill-rule:evenodd;}</style></defs><path class="cls-1" d="M161.64,51.72q-11,38.88-20.16,78.36-14.58,62.28-25.56,125.28-11.16,63.18-24.84,126Q77.58,443.82,63.36,504.6C61,512.88,62,519.72,66.6,524.88c8-27.72,15.12-56,21-85L113,314.64l1.32-7,88.56-3.48.24-.24,7.08,37.92q9,46.62,16.08,93.84c3.12,21.12,5.64,42.36,7.56,63.6,1.08,12,4.44,22.2,10.2,30.72a2.45,2.45,0,0,0,1.56-2.4,299.44,299.44,0,0,0-4.8-54.48c-2.64-14.52-4.92-29.28-6.84-44q-8.28-63.36-20.88-125.88t-24-125.4Q177.6,114.66,166.92,52q-4.32,17.1-.72,37.44,11,63.18,21.48,126.6c4,24.36,8.28,48.6,12.72,72.84l-2.4-.36a724.49,724.49,0,0,0-80.88,5.28l14.64-72.84q12.42-62.82,27.36-125A198.62,198.62,0,0,0,165,48.48C163.2,48.6,162.12,49.68,161.64,51.72ZM343.92,118.2a284.87,284.87,0,0,1,12.48,59.64c2.76,27.24-1.2,53.16-11.88,77.52q-19.8,45.18-69.36,36.6l-1.08.24-2.16.48q.72-57.06,4-113.76a1048.7,1048.7,0,0,0,.24-116.52C310.56,66.84,333.24,85.44,343.92,118.2ZM273.36,53.28a18.56,18.56,0,0,0-.12,5.76l.6,1.8c-1.92,19.8-3,39.84-3.24,60.36q-.54,64.8-2.76,129.12l-4.44,129c-1.56,42.84-3.24,85.56-5.28,128.28l-.12.12-1.2-3.12c-1.8,9.24-.12,16.8,5,22.44a4.65,4.65,0,0,0,1.56-3.24q3.24-43.2,5.16-86.88,2.7-62.64,3.24-125.52a71.28,71.28,0,0,0,25.8,1.32,33.06,33.06,0,0,0,11.52-3.48q44.46-22.14,50.76-71.76A314.9,314.9,0,0,0,350,110.4q-16.2-56.16-74-60.84A4.24,4.24,0,0,0,273.36,53.28ZM460,54.36A81.23,81.23,0,0,0,424.2,65.28a71.13,71.13,0,0,0-18.36,15.36c-18.36,21.48-29.16,46.8-32.4,75.72-4.68,41.64-7.2,83.64-7.8,126.12A1283.34,1283.34,0,0,0,370.2,411.6a266.88,266.88,0,0,0,26.52,95.16,21.39,21.39,0,0,0,12.48,11c26.52,9.24,48.84,3.72,67.2-16.44q20.88-22.86,13.32-49.2h-1a28.68,28.68,0,0,1-7.44,2.52l-.48-.12a1.57,1.57,0,0,1-1-1.92q.54-2-.72-1.08l-.24.6.12,1.56a13.68,13.68,0,0,0,1.8,4.08l.48.84,1.44.48,1.44.84-.12.24q-18.9,47.88-70.32,40.08A9.11,9.11,0,0,1,407,496q-29.88-50.58-32.16-111.12c-1.08-26-1.68-52.2-1.8-78.24a159.66,159.66,0,0,0,64.44.24,13.67,13.67,0,0,0,2.28-5.64,12.3,12.3,0,0,0-3.6-11.4h-3l-4.56-.48a169.58,169.58,0,0,1-55.56,4.44c-.12-12.72,0-25.44.24-38a596.75,596.75,0,0,1,15-125.88A70.31,70.31,0,0,1,411,91.2q31-27,70.32-19.8c1.68-3.84,1.2-7.44-1.56-10.92L475.68,56l-1.68-.6A34.23,34.23,0,0,0,460,54.36Z" transform="translate(-62.12 -48.48)"/></svg>