<svg id="Layer_1" data-name="Layer 1" xmlns="http://www.w3.org/2000/svg" viewBox="0 0 370.69 377.16"><defs><style>.cls-1{fill-rule:evenodd;}</style></defs><path class="cls-1" d="M164.64,115.2Q178,177.84,186.36,241.44l5.76,43a559.34,559.34,0,0,1-76.44-2.76l8.88-36.84a1069.27,1069.27,0,0,1,36-122.76c1.32-3.72,2.4-7.32,3.36-10.92Zm1.44-31.8-.6.12-1,2.64-.6-2.28a64.75,64.75,0,0,0-1.08,7q-19.62,54.36-34.44,111l-16,61.32q-16,62.1-31.44,124.2a217.48,217.48,0,0,1-13,37C62.64,436,62.16,446.16,66.6,455a108.11,108.11,0,0,0,8.28-21.84q8.28-32.58,17.52-64.56,11-38,20.52-76.08A245.18,245.18,0,0,0,194,299.88l9,68.4c2.76,21.24,5.16,42.36,7.44,63.48,1,9.72,4.08,17,9.24,22.2a5,5,0,0,0,1.2-3.84c-4.08-38.28-9-76.44-14.64-114.72l-5.4-37.08.6-1.44.6-4.08.12-2.4a7.75,7.75,0,0,0-3.12-6.48h-.36L188.16,208.8A1134.77,1134.77,0,0,0,166.32,93.6,71.54,71.54,0,0,0,166.08,83.4Zm97.2,13.8c-1.2,18.84-1.8,38.88-1.92,60q-.18,64.62-1.8,129.12-1.26,48.42-5.16,96.48c-1,12.24.6,22.8,4.8,31.68a395.23,395.23,0,0,0,4.56-59.16q.36-64.8,1.8-129.12c.48-21.72,1.32-43.32,2.64-64.92A230.88,230.88,0,0,0,263.28,97.2Zm163,64.92c.36,42.84-.12,85.56-1.2,128.28q-1.62,64.8-8.64,128.88l-.36,5a217.89,217.89,0,0,0-6.84-24.48q-20.34-60.66-39.12-122.16L351.6,216.6q-19.08-62.1-37.2-123l-1.08,1.32L313.08,89a170.57,170.57,0,0,0-5.4,51.48q2.52,64.08,1,128.16Q307,332.94,304.32,397.8c-.48,10.8-1.44,21.6-2.88,32.28-1.32,9.72.36,17.76,4.8,23.88a1.52,1.52,0,0,0,.84-1.32q4.5-53.28,6.48-107c1.56-42.72,2.28-85.44,2.4-128.28q.18-50.4-1.68-99.72,15.48,56.34,33.6,112.92c4.92,15.24,9.48,30.36,13.92,45.6L398,399.84c3.12,10.44,5.88,21,8.4,31.44,2.76,11.76,6.84,21.48,12.36,29.28a10.94,10.94,0,0,0,2-8.16l-.48-3.48a602.45,602.45,0,0,0,8.88-84.72c1.56-42.84,2.4-85.92,2.76-129q.36-65.16,2.28-128.28C428.64,124,426,142.32,426.24,162.12Z" transform="translate(-63.59 -83.4)"/></svg>