<svg id="Layer_1" data-name="Layer 1" xmlns="http://www.w3.org/2000/svg" viewBox="0 0 396.22 416.78"><defs><style>.cls-1{fill-rule:evenodd;}</style></defs><path class="cls-1" d="M215.76,174.48c7.32,30.36,14.52,60.6,21.6,91a547,547,0,0,0-90.48,15.84l6.24-25.56q15.3-62.1,34.44-123.6A199,199,0,0,0,197,79.56a493.75,493.75,0,0,0,12.24,68.88ZM196.32,72a1136.8,1136.8,0,0,1-31.44,122.76c-6.36,20.16-12.6,40.44-18.48,60.84q-17.64,61.38-33,123.84-7.56,30.78-17.16,61.08c-5.16,16.32-6.48,31.8-4.2,46.56a48.48,48.48,0,0,0,5.52-14.28Q112,410.7,128.88,349c5-18.12,9.84-36.24,14.52-54.36a61.39,61.39,0,0,0,27.6-4.8,466.07,466.07,0,0,1,69.36-10.92L245,299.16q14.22,63,31.68,125.52A406.9,406.9,0,0,0,299.28,486a6.55,6.55,0,0,0,2-5.64,178.22,178.22,0,0,0-8.4-38.52Q272.94,381,257,318.6L247,277.68v-.12a12.59,12.59,0,0,0-.72-13l-2.4.24c-5.64-23.4-11.16-46.92-16.32-70.44q-14-62.64-30.36-124.08c-.6-.12-1,.24-1,.84Zm261,20.76A143.66,143.66,0,0,0,417.6,82.44,141.72,141.72,0,0,0,394,82a137.17,137.17,0,0,0-32,25A139.06,139.06,0,0,0,335,147.84,247.45,247.45,0,0,0,316.68,217q-6.48,57.6-9.36,115.68a382.65,382.65,0,0,0,1.2,53.76A90,90,0,0,0,312.6,406l1.2,3.72,1.32,3.48,1.44,3.6a81.45,81.45,0,0,0,7.32,13.08,111.75,111.75,0,0,0,33.84,32.4,67.37,67.37,0,0,0,46.68,9,106.52,106.52,0,0,0,42.72-16.92,244.46,244.46,0,0,0,34-27.72,19.57,19.57,0,0,0,6-16.68,31.46,31.46,0,0,0-1.68-7.56,259.51,259.51,0,0,1-52.68,43.92,67.32,67.32,0,0,1-34.08,10.2,75.92,75.92,0,0,1-36.24-8A80.13,80.13,0,0,1,342,434.16a79.13,79.13,0,0,1-14.76-19.56,101.8,101.8,0,0,1-7.68-19.2l-1.32-4.92-1.2-4.8-1.08-4.8a121.7,121.7,0,0,1-2.4-29.52l2.88-79.8a235.36,235.36,0,0,0,64.8,6.84,6.16,6.16,0,0,0,1.2-2.88,32.71,32.71,0,0,0,.36-6.84,5.45,5.45,0,0,0-1-2.76l-1.92-2-63-1.8A318.24,318.24,0,0,1,342,157.8a148.61,148.61,0,0,1,31.68-46.92,50.87,50.87,0,0,1,32.76-15,136.54,136.54,0,0,1,25.2,1.32,90.91,90.91,0,0,1,18.24,5l7.8,3.48,1.92,1.2,2.16,1.92,1,.6a8,8,0,0,1,2.52,1.08c1.8-1.08,2-3.12,1-5.88a31.11,31.11,0,0,0-8.16-11Z" transform="translate(-90.96 -70.3)"/></svg>