<svg id="Layer_1" data-name="Layer 1" xmlns="http://www.w3.org/2000/svg" viewBox="0 0 298.04 207.64"><defs><style>.cls-1{fill-rule:evenodd;}</style></defs><path class="cls-1" d="M232.68,200a231.41,231.41,0,0,0-28.92,2.88A32.52,32.52,0,0,0,181,217.68q-32.22,48.06-26.28,106.92a105.17,105.17,0,0,0,15.12,44.52q26.46,43.56,79.08,33.24c15.72-3.12,28.68-10.56,38.88-22.44,8.28-9.84,8.88-18.48,1.68-26a4.24,4.24,0,0,0-1.92,2.4,16.1,16.1,0,0,1-2.52,5.4c-18.36,23.4-43.2,31.2-74.76,23.4a48.58,48.58,0,0,1-25.8-15.72q-25-29-23.76-67.56a225.81,225.81,0,0,0,58.44,1.44l.72-.84c3-4.32,3.12-8.64.36-12.84-19.8.12-39.36.72-58.68,1.56l.24-1.2a132.27,132.27,0,0,1,22.92-58.8,27.21,27.21,0,0,1,18.12-11.76c9.48-1.8,19-3.24,28.68-4.44,24.36-3,42,4.92,53.16,23.76,2.28-3.24,2.52-6.72,1-10.68q-13.32-32.76-52.92-28.08Zm118.08,4.8-.6-8.16A247.33,247.33,0,0,0,325.68,273q-3.78,23.58-8.64,46.8c-3.36,15.48-6.48,31-9.24,46.44-1.92,10.68-3.36,21.36-4.32,31.92l.24.48q21.06-35.1,27-84.72a637.81,637.81,0,0,1,11.52-66.84c1.32-5.88,2.88-11.52,4.68-17a62.39,62.39,0,0,0,3.36-15.6L376.68,326l1.68-2.28a604.51,604.51,0,0,0,26.28-96.6A1372.79,1372.79,0,0,0,447.48,396.6c1,3,2.4,5,4.32,6a1014.93,1014.93,0,0,0-30.48-138.36,559.92,559.92,0,0,1-15.24-66.12L376,299.52A533.69,533.69,0,0,0,352.8,198Z" transform="translate(-153.76 -196.68)"/></svg>