<svg id="Layer_1" data-name="Layer 1" xmlns="http://www.w3.org/2000/svg" viewBox="0 0 530.68 502.2"><defs><style>.cls-1{fill-rule:evenodd;}</style></defs><path class="cls-1" d="M222.12,103.92A135.46,135.46,0,0,0,175.44,72.6q-50-20.34-91.2,11.88a29.32,29.32,0,0,0-8.4,10.92A288.44,288.44,0,0,0,58.92,146a406.13,406.13,0,0,0-9.36,61.44,667.94,667.94,0,0,0-.12,91.68,978.68,978.68,0,0,0,115.32-2.52c2.28,2.88,2.52,6.12,1,9.6l-.36.84A699.5,699.5,0,0,1,50,308.28c.84,9.24,1.8,18.36,2.88,27.6A985,985,0,0,0,76.8,462.24c9,35.52,31.56,56.88,67.44,64.2a93.63,93.63,0,0,0,35.16.24c31.08-5.88,54.6-21.84,70.8-48q-2.7,33.84-36.72,49.8c-29.64,13.92-59.64,15.84-90.24,5.64a38.23,38.23,0,0,1-13-7.2c-25.32-20.52-40.44-47-45.6-79.68L54.6,382.8c-4-24.84-7-49.68-9-74.76l-.36-.12a15.67,15.67,0,0,1-.24-7.8c-1.08-15.12-1.68-30.24-1.92-45.48a443,443,0,0,1,15.24-125.4A307.63,307.63,0,0,1,72,90.12q14.76-34.38,54.6-37.56l7.56-1.2q58.86,1.26,88.2,48A3.79,3.79,0,0,1,222.12,103.92Zm199.2-4.08Q398.1,64.56,352.2,78.24c-20,5.88-34.8,18.36-44.4,37.2a412.4,412.4,0,0,0-36.72,104.4A640.81,640.81,0,0,0,259.92,300a289.6,289.6,0,0,0,87.48-7.8,76.91,76.91,0,0,1,28.68,2.16,1.39,1.39,0,0,1,.84.6l.24.72a10,10,0,0,1,.84,4.92,12.88,12.88,0,0,1-1.08,4.08,554.85,554.85,0,0,0-79.44,4,125.64,125.64,0,0,1-38-1.2c-.84,12.6-1.2,25.32-1.2,38.16-.12,21.12.12,42.48.6,64.08a247.23,247.23,0,0,0,20.52,93.48,51.51,51.51,0,0,0,13.56,18.72c14,12.36,30.36,16.8,49.08,13.08q52.2-10.26,82.8-53.88a64,64,0,0,1,12.72-13.32c1.56,12.6-3.12,23.88-13.8,34.08L407.88,517q-41,39.42-97.44,28.92a32.32,32.32,0,0,1-15-6.84,80.39,80.39,0,0,1-28.56-44A455,455,0,0,1,253.2,371c.6-21.48,1.68-43,3.24-64.2L253.2,306l-.24-.72a4.63,4.63,0,0,1-.36-2.52,6,6,0,0,1,1-3.24l3.48.36c1.56-19.32,3.6-38.52,6.12-57.72a421.67,421.67,0,0,1,12-59.52,360,360,0,0,1,30.48-76.08q19.08-35.1,58-42.12c30.84-3.72,50,7.92,57.72,34.68Zm50.88-25.2A1018.83,1018.83,0,0,1,472,203q-4.14,63.9-6.84,128.16c-1.8,42.84-4.32,85.56-7.8,128.16-2,25.8-4.92,51.6-8.4,77.16A866.48,866.48,0,0,1,571,539c3.36,4.44,3.6,9.36.72,14.52a829.77,829.77,0,0,0-129.24,0,366.06,366.06,0,0,1,4.32-64.32A1081.52,1081.52,0,0,0,459.6,361.32c1.8-42.72,3.72-85.44,6-128.28q3.24-63.54,3-127.56A112.19,112.19,0,0,1,472.2,74.64Z" transform="translate(-42.99 -51.36)"/></svg>