<svg id="Layer_1" data-name="Layer 1" xmlns="http://www.w3.org/2000/svg" viewBox="0 0 550.95 454.52"><defs><style>.cls-1{fill-rule:evenodd;}</style></defs><path class="cls-1" d="M200.16,102.48Q170.28,65,119,69q-35.64,9.36-55,41.4a104.62,104.62,0,0,0-10.44,23A424.83,424.83,0,0,0,34.2,239.16a1016.94,1016.94,0,0,0,.6,128.28,484.37,484.37,0,0,0,15.6,94.68Q65.34,517.38,124,523A47.66,47.66,0,0,0,140,521.64a102.37,102.37,0,0,0,47.88-28.44c13.68-14,19.32-29.76,16.92-47A118.37,118.37,0,0,1,177,489.24q-33.3,33.48-79.8,14.4A62.85,62.85,0,0,1,69,481.08,142.67,142.67,0,0,1,44.28,415a963.59,963.59,0,0,1-6-112,680.12,680.12,0,0,0,93.72-.72l.36-.84a8,8,0,0,0-1.08-8.88q-47.16.18-93,3.6l.24-9.6q.9-47.88,5-95A164.46,164.46,0,0,1,67.8,118q28.62-46.26,84.12-34.8,29.34,6.3,48.84,25.32A5.22,5.22,0,0,0,200.16,102.48ZM411.48,85.56q-16.38,19.26-31.32,40.8-22.5,32.58-41.76,66.72-31.5,56-66.12,109.92a63.7,63.7,0,0,0-8.88,21.12L266,209.76c1.08-43.08,2.4-85.56,3.72-127.44A672.11,672.11,0,0,0,260.64,187c-.6,42.84-1.32,85.68-2.16,128.28a643.18,643.18,0,0,1-4.32,64.68c-4.92,42.6-8.76,85.2-11.76,127.68a3,3,0,0,0,3.84,1.56c2.76-13.92,5-28.2,7-42.72A1156.38,1156.38,0,0,0,263,338.76v-1.32a163.2,163.2,0,0,0,18.6-29.52,233.78,233.78,0,0,1,11.52-20.76l12.24-19.92a46.4,46.4,0,0,0,1.44,10,539.55,539.55,0,0,0,40.8,115.68q28.8,59.22,56.64,118.56a4.31,4.31,0,0,0,2.64,2.16c4.32-8,3.48-16.32-2.4-25a153.38,153.38,0,0,1-13.8-25q-13.5-31.14-29.16-61.2a490.25,490.25,0,0,1-35.88-88.68c-5.4-18.12-11-35.52-16.92-52.32,7.56-13.08,14.88-26.28,21.84-39.6a694.2,694.2,0,0,1,69.6-107.52C407.52,105,411.36,95.4,411.48,85.56Zm159,9.84c-16.56-10.68-35.76-14-57.48-9.84a151.15,151.15,0,0,0-64.44,39.36,47.89,47.89,0,0,0-10.2,15.24,458.84,458.84,0,0,0-34,126.6,414.4,414.4,0,0,0,4.32,125.4,226.24,226.24,0,0,0,20.76,61.2c9.36,18.6,23.64,32.52,43,42a101.73,101.73,0,0,0,34.44,10.08,46.75,46.75,0,0,0,22-2.76q36.18-13.86,52-49.44c4.08-9.36,3.36-16.08-2-20.28a245,245,0,0,1-16.92,28.32q-19.44,28.26-53.64,26c-40.44-2.52-67.32-22.56-80.4-60.12a332.18,332.18,0,0,1-18.24-127l.48-7.8,1.32.24,101.64,4,.24.72.36.72,1.08.72,1.56.48a7.57,7.57,0,0,0,2.88-5.4,11.35,11.35,0,0,0-2.76-8.88l-1-.84a2.66,2.66,0,0,0-1.32-.6,165.5,165.5,0,0,0-34.68-1.92A314.37,314.37,0,0,1,410.64,283,614.83,614.83,0,0,1,428.52,175.8c6.6-25.8,21.36-46.32,44.16-61.32A93.86,93.86,0,0,1,509,100q36.72-6.66,68.16,4.2a24.53,24.53,0,0,1-3-4L573,98.4,572.16,97l-.48-.84Z" transform="translate(-32.46 -68.62)"/></svg>