<svg id="Layer_1" data-name="Layer 1" xmlns="http://www.w3.org/2000/svg" viewBox="0 0 298.62 219.13"><defs><style>.cls-1{fill-rule:evenodd;}</style></defs><path class="cls-1" d="M188.76,204.48a113.61,113.61,0,0,0-23,39.12,171.64,171.64,0,0,0-9.6,45.72,181.91,181.91,0,0,0,2.64,46.32,116.13,116.13,0,0,0,17.4,43.44c9.36,14.52,22.92,20.88,40.56,19.08a116.57,116.57,0,0,0,42.84-11.88c16.2-8,23.76-20.52,22.56-37.32a4.63,4.63,0,0,0-.72-2.4h-3.24A54.56,54.56,0,0,1,263.52,364a83,83,0,0,1-20.28,12.24,80.5,80.5,0,0,1-31,6.6l-17.4-1.08a108.53,108.53,0,0,1-31-55.92,119,119,0,0,1-2.64-29.88,364.86,364.86,0,0,1,65.76-4.2,12.7,12.7,0,0,0,1.92-6.24l-.24-2.88-.84-3-1.08-2a132,132,0,0,0-59.52,5.4l-5.16,1.56a109.55,109.55,0,0,1,19.08-55.8A40.64,40.64,0,0,1,202,213a101.76,101.76,0,0,1,34-5.52,93.61,93.61,0,0,1,49,14.16q1.62-11.34-11.88-18a118,118,0,0,0-40-11,65.77,65.77,0,0,0-35.52,6.72A92.91,92.91,0,0,0,188.76,204.48Zm204.6,20.64q.54-34.56-37.32-33.84C343,197,336.24,207.72,335.76,223.2a48.26,48.26,0,0,0,6.12,26.16l26.76,48.24a161.5,161.5,0,0,1,10.56,23.28q11.16,30.24-2.28,57.36C359,386.16,341,386,322.68,378c-7.08-3.12-10.8-8.76-11-16.8-.36-11.4-2.28-21.48-5.88-30-4.68,10-5.88,20.76-3.84,32.52a42.06,42.06,0,0,0,7.92,18.36q19.08,24.66,53,19.08c12.36-2,19.92-9.12,22.92-21.36q8.82-36.9-3.6-73.8a131.88,131.88,0,0,0-27.36-47q-16.74-18.9-8.64-42.12C350.4,204.6,360,201,375,205.92a27.87,27.87,0,0,1,13.2,13.56,16.06,16.06,0,0,0,4.92,6.48ZM451,282c.12-29.4-.48-58.56-1.56-87.48-4.08,9.24-5.88,19.8-5.52,31.68q.72,27.9.36,55.44l-13.44-.24a79.66,79.66,0,0,0-22.08,1C409.32,264,410,245.52,411,227a118.37,118.37,0,0,0-2.4-32.52c-3.72,7.68-5.52,16.68-5.4,27.12q0,64.8-2.64,129.12c-.48,10.8-1.44,21.48-2.88,32.16-1.32,9.84.24,17.64,4.68,23.52a819.93,819.93,0,0,0,5.28-82.8l.6-27.84a254.61,254.61,0,0,0,35.76.36c-.48,19.44-1.44,38.88-2.76,58.32q-.9,12.06-2.52,24.12c-1.56,12.12-.12,22.8,4.44,31.8a798.42,798.42,0,0,0,7.2-87.6l.48-27.12,1.8-.24a14.24,14.24,0,0,0,1.32-9.72l-.12-.84-1.2-2.4a1.93,1.93,0,0,0-.84-.48Z" transform="translate(-155.67 -191.27)"/></svg>