<svg id="Layer_1" data-name="Layer 1" xmlns="http://www.w3.org/2000/svg" viewBox="0 0 125.97 188.78"><defs><style>.cls-1{fill-rule:evenodd;}</style></defs><path class="cls-1" d="M353.76,339.12c-7.2,11.64-17.16,20.76-29.88,27.6a55,55,0,0,1-36.12,6,55.65,55.65,0,0,1-28.44-13.2,59.76,59.76,0,0,1-17.76-26.64,87.08,87.08,0,0,1-4.2-26.64q0-7,.36-14a130.81,130.81,0,0,0,63.12-4.32,9.82,9.82,0,0,0,1.44-6.24,10.32,10.32,0,0,0-1.92-5,230.27,230.27,0,0,1-61.44,6.6q5.58-37.62,35.64-58.8c14.4-10.2,30.36-13.56,47.76-10.08a64.43,64.43,0,0,1,34,18.36c-.6-16.2-10-26.52-28.2-31.08a67.56,67.56,0,0,0-44.16,3.72,71.71,71.71,0,0,0-33.12,28,105.31,105.31,0,0,0-15.24,39.12,300.89,300.89,0,0,0-4.44,44.16c-.36,16.32,4.32,30.84,14.28,43.56a73.22,73.22,0,0,0,36.36,25.2,59.53,59.53,0,0,0,46-3.72c15-7.44,24.6-18.84,28.92-34.32C357.72,343.44,356.76,340.68,353.76,339.12Z" transform="translate(-231.1 -199.5)"/></svg>