<svg id="Layer_1" data-name="Layer 1" xmlns="http://www.w3.org/2000/svg" viewBox="0 0 455.72 315.37"><defs><style>.cls-1{fill-rule:evenodd;}</style></defs><path class="cls-1" d="M92.76,376.68c2.4-42.6,4.56-85.44,6.6-128.28,1.8-40.92,1.8-81.48,0-121.44q62.64,2.7,83.88,59.52a303.08,303.08,0,0,1,16.08,60.84q10.62,66.06-22.68,122.76a59.24,59.24,0,0,1-11.28,14.16c-21,19.56-46.2,26.28-75.6,20.4A240,240,0,0,0,92.76,376.68Zm6.36-261-1.2.72L97.44,118a15.5,15.5,0,0,0-.12,5.76l.12.72.36,1.2q-4.14,50.22-4.92,101.16c-.6,43.32-3,86.28-7,129.12-1,10.8-2.4,21.48-4.2,32-1.8,10.92-1,20.4,2.76,28.2l.24,1.56a5.12,5.12,0,0,0,2.4,3.24,94.65,94.65,0,0,0,39.24,2.16,73.05,73.05,0,0,0,30.48-11.88,84.88,84.88,0,0,0,28.8-32.88q29.34-58.5,20.52-124.92a489.2,489.2,0,0,0-12.84-63.6Q174.06,119.46,101.76,115Zm119.4,36.72A1132.19,1132.19,0,0,1,278,260.64q-12.6,48.6-28.44,96.12a319.11,319.11,0,0,1-12,30.72c-6.24,13.92-7.2,26.76-2.76,38.64a78.23,78.23,0,0,0,9.84-21.24q18.36-61.2,35-123.24T316.44,158.4c3.6-11,5-21.48,4.2-31.44-.48-.12-.72-.12-.84.24a660.31,660.31,0,0,0-34.68,105l-3.72,15.36a36.09,36.09,0,0,0-4.2-14q-29.7-56.7-64.56-110.4c-1.32-.24-1.92.36-2,1.68A50.65,50.65,0,0,0,218.52,152.4Zm264.24-19.56q-37.8,28.44-45.12,77.52a623.93,623.93,0,0,0-6.36,110.88,298.15,298.15,0,0,0,11,71.4,132,132,0,0,0,5.52,15A142.43,142.43,0,0,0,455,421.8a13.63,13.63,0,0,0,7.8,6.36,53.42,53.42,0,0,0,13.8,2.16,48.43,48.43,0,0,0,14.88-2A68.08,68.08,0,0,0,524,407.76,47.88,47.88,0,0,0,536.52,376a19.77,19.77,0,0,0-2.4-10.44l-3,1.44-1.44-5.16c-.84,13.08-7.56,25-20.4,35.64-12.48,10.44-26.76,14.16-42.72,11.4-6.36-1-10.44-4.92-12.12-11.76L449,375c-1.8-7.2-3.48-14.52-4.8-22.08A313.05,313.05,0,0,1,439.68,300V284.4l56.52-6.24c3.12-5.88,2.76-11.64-1.08-17l-54.6,9q-2-64.62,36.72-115.2c2.64-3.48,6.36-4.8,11.28-4A112.37,112.37,0,0,1,532,168q-3.78-22.14-30.6-31A99.3,99.3,0,0,0,482.76,132.84Zm-72,17.76Q384.48,210.18,356,267.84l-.36.72a67.36,67.36,0,0,0-9.48,15.36l1.92-31.08a1275.1,1275.1,0,0,0,1-128.4c-4.68,11.76-7.08,25.08-7,39.84a1155.35,1155.35,0,0,1-6.36,127.32c-4.44,43.08-7.2,85.92-8.16,128.28,2.76.6,4.44-.72,4.92-4,1.8-11.88,3.48-23.64,4.92-35.52q3.78-35.1,6.84-70.56c2.76-1.44,5-4.2,7-8.16L372.36,258a104.23,104.23,0,0,0,6.6,35.28,998,998,0,0,1,31.2,105.84c2.76,11.88,7.8,21.36,15.12,28.68l.84-1.68a90.33,90.33,0,0,0,1.68-23.52l-.84,1a8.21,8.21,0,0,1-1.92,3.12,72.86,72.86,0,0,1-4.08-8.76c-3.12-8.4-6-16.92-8.52-25.56Q394.8,312.42,373.8,255.12c10.68-22.8,21-45.84,31.2-69.12a171,171,0,0,1,11-21.36c7.56-12.36,10.8-24.84,9.84-37.44A77.16,77.16,0,0,0,410.76,150.6Z" transform="translate(-80.81 -114.96)"/></svg>