<svg id="Layer_1" data-name="Layer 1" xmlns="http://www.w3.org/2000/svg" viewBox="0 0 466.21 354.88"><defs><style>.cls-1{fill-rule:evenodd;}</style></defs><path class="cls-1" d="M64.44,111.72,80.88,113a31,31,0,0,1,16.32,6.48q42.12,32.76,54,85.68,14.4,65-6.6,127.56a236.69,236.69,0,0,1-13.92,32.52q-20.34,38.88-62.16,51c-7.56,2.28-11.88,2.16-13.08-.36l-.12-.48a13.31,13.31,0,0,0-3.6,2,28.05,28.05,0,0,0-5.4-.84c1.56-9.36,2.64-18.84,3.48-28.44Q55,324.3,56.64,259.8c.6-21.48,2-42.72,4.56-64a499.48,499.48,0,0,0,2.88-84.48ZM62.76,100l-.24,1a9.42,9.42,0,0,0-.6,2.64v1.32c-2,12.84-3.84,25.92-5.16,39.48-4.44,42.6-7.32,85.32-8.64,128.4q-2,63.9-8.64,126.6a156.42,156.42,0,0,1-3.24,20.4l-.36,2.16a12.6,12.6,0,0,0-1,4.2,18.85,18.85,0,0,0,1.92,9.24,17.19,17.19,0,0,0,4.32,6.24l1.2-5A76.59,76.59,0,0,0,74,433.2q35.28-11.52,55.08-43.32,34.56-55.8,36-122A249.76,249.76,0,0,0,136.2,143.76C124,120.6,105.84,105.24,81.72,97.92c-7-2.64-13-2.4-18.12.84L63,99.84ZM197,128.88c-5.16,41.4-9.72,83.16-13.44,125q-5.58,63.54-9,127.56c-1.32,25.32,6.6,46.44,24,63.36l12.36-.72A31.42,31.42,0,0,0,229.32,436a171,171,0,0,0,48.36-77.4A267.12,267.12,0,0,0,289,295.08c2.28-42.24,2.88-84.72,1.56-127.32a138.66,138.66,0,0,1,2.64-32.16c2-10,0-17.28-5.88-22A40.71,40.71,0,0,0,283,128.76q.54,38.7,2.4,78.72a458.47,458.47,0,0,1-11.52,127.2,314.94,314.94,0,0,1-15.84,49q-16.74,40-58.68,43.32c-12.36-13.2-18-29.4-17-48.48Q185.16,314,191,250.2c2.28-26.64,5.64-53,9.84-79.2a328.18,328.18,0,0,0,4.2-63.6C200.76,113.28,198.12,120.36,197,128.88ZM366.6,114.36a51.5,51.5,0,0,0-35-4.56A2096.26,2096.26,0,0,0,318,319.8a489,489,0,0,1-9.36,87.6,74.06,74.06,0,0,0,1.8,37,33.74,33.74,0,0,0,1.2,3.72A553,553,0,0,0,326.4,319.2c0-15.84.36-31.56,1.2-47.28a35.9,35.9,0,0,0,26.88-.72l6-2.64a65.51,65.51,0,0,0,29.4-33.84,132.41,132.41,0,0,0,8.88-41.4,145.23,145.23,0,0,0-4.44-44.4Q388.2,125.16,366.6,114.36Zm22.32,43.56q11.34,36.54-6.48,70.2c-11.88,22.2-29.76,31.44-53.88,27.6l1.2-17.52q4.14-59.76,2.28-118.56h3.24c13.2-2,24.24.48,33,7.56A61.84,61.84,0,0,1,388.92,157.92Zm68.88-52.08c-25.56,17.52-41.16,42.6-46.56,75.36a1634.08,1634.08,0,0,0-20.76,204A85.79,85.79,0,0,0,393.12,410a89.06,89.06,0,0,0,9.12,22.44l4.32,7,.84,1.32,1,1,.84,1.08a18.5,18.5,0,0,0,4.32,3.24A35.26,35.26,0,0,0,436,450.72c22.2-3.12,39-15.24,50.64-36.48,6.6-11.88,7.56-24.24,2.64-37.08l-3.6,4.92-1.8,1.32A80.59,80.59,0,0,1,455,425.88c-9.84,7.56-20.64,10-32.28,7.2a21.21,21.21,0,0,1-12.12-7.92,61.57,61.57,0,0,1-9-16.56L400,403.32l-.6-2.52-.6-2.76-.36-2.76a82.66,82.66,0,0,1-.6-14.4q2.88-52.38,8-104.4l51.48,3a14.63,14.63,0,0,0,1.44-10.56,5.53,5.53,0,0,0-1.56-3.12l-50-1.8q-5.58-74.34,37.08-130.2A62,62,0,0,1,455,122.88a81.81,81.81,0,0,1,44.28,15.36l1,.36.84-2.28c-5.88-16.92-17.88-26.64-35.76-29.4Z" transform="translate(-34.91 -96.12)"/></svg>