<svg id="Layer_1" data-name="Layer 1" xmlns="http://www.w3.org/2000/svg" viewBox="0 0 555.28 589.92"><defs><style>.cls-1{fill-rule:evenodd;}</style></defs><path class="cls-1" d="M406.08,544.92,406,545a15.64,15.64,0,0,0-2.4,10c.6,10.44.84,20.88,1,31.56a259.88,259.88,0,0,0,51.12,0,10.39,10.39,0,0,0-.6-11.28,269.83,269.83,0,0,1-46.2-.36v-.72A72.24,72.24,0,0,0,406.08,544.92Zm-61.92,20.64,15.12,27.6a7.66,7.66,0,0,0,1.44-8.64,270.5,270.5,0,0,0-11.64-24.6l-16.8-27.72-33.36,45.48-1.8.84-.6,7.56,17.4-19.8a63.74,63.74,0,0,0,26.52.24Zm-4.8-9.72-19.08,2.4,12.48-15.72ZM327,415.32l-13.92,52.2-25-49-9.72,61.2,11.4-47.16,22.8,48.72a86.54,86.54,0,0,0,7.8-16.08,117.86,117.86,0,0,0,7.44-37.08A63,63,0,0,0,327,415.32ZM282.72,238.56Q294.6,300.66,309,362c4.68-5.16,7.92-11.64,9.84-19.44A442.7,442.7,0,0,1,338,283.8q9.54-23.94,7.2-46.8-18.18,52.92-34.92,107.16l-.24-.84A799.73,799.73,0,0,0,283.8,237C282.84,236.88,282.48,237.48,282.72,238.56ZM63.48,24.72A61.63,61.63,0,0,1,94.92,50.88a386.19,386.19,0,0,1,38.16,84.24A422.68,422.68,0,0,1,153,264.36,750.26,750.26,0,0,1,142.68,387.6,497.75,497.75,0,0,1,116,484.32a141.24,141.24,0,0,1-29.16,47.16A75.6,75.6,0,0,1,43.68,555a46.44,46.44,0,0,0-10.2,3.24c1.32-10.56,2.16-21.24,2.76-32.16Q39.3,461.82,39.6,397c.24-43.08,1.44-86,3.48-129.12s2.16-86,.6-129.12C42.12,97.44,41.28,56.52,41.4,16,48.72,19,56,21.84,63.48,24.72ZM45.6,8a6.05,6.05,0,0,0-3.36-.48,2.71,2.71,0,0,0-2.52,1.32,5.94,5.94,0,0,0-.72,6h.12a1086.54,1086.54,0,0,0-3.36,126.6L36.48,174c.6,43.08.36,86.16-.48,129.12s-1.8,86-2.88,129q-1.62,65-9,128.88a42.46,42.46,0,0,0,0,11,24.82,24.82,0,0,0,1.32,8.4l1.08-.24a27.55,27.55,0,0,0,2.76,4.8l1.08-5.64q56.52-12.24,81.36-64.56a448.26,448.26,0,0,0,37.92-121.68A771.37,771.37,0,0,0,159.24,265a460.46,460.46,0,0,0-10.68-95.52A445.27,445.27,0,0,0,103.8,50.52C91.68,28.44,73,14.52,47.88,8.64ZM255.84,194.52q-3.06,64.44-4.92,129.12t-2.28,129a817.32,817.32,0,0,1-6.36,95.76c-1.56,11.88-.36,22.56,3.36,32.28a187.72,187.72,0,0,0,6.84-44.4c1.56-43.08,2.28-86,2.4-129.12s1.56-86.16,4.08-129l2.28-32.4a925.37,925.37,0,0,0,2-127.56Q257.88,154.92,255.84,194.52Zm-69.12-6.72,3.6-61.68c17.64,3.72,25,15.24,21.72,34.56C209.64,175.2,201.24,184.32,186.72,187.8ZM190,117.6l-1.44-1.8c-.36-.12-.6-.12-.72.24-1.92,19.08-3.72,38.16-5.52,57.36Q176.52,237.66,175.8,301l1-1.08A512.86,512.86,0,0,0,183,246.6l3.12-47.52,2.16.12a10.68,10.68,0,0,1,4.2-2.76l3-1.32a389.72,389.72,0,0,0,35,106.32,2.12,2.12,0,0,0,1.08-2.64q-18.18-52-32.88-105.48a26.84,26.84,0,0,0,6.72-6.12c9.12-11,13.2-24,12.24-38.76-1.2-17.76-10.32-28.2-27.24-31.32ZM270.6,53.52a202.81,202.81,0,0,0-31.2-48.6c-1-.12-1.44.48-1.44,1.56a25.85,25.85,0,0,0,4.2,13.92,277.34,277.34,0,0,0,27,35.64L257.76,76.2c-4.8,8.64-9.84,17-15.24,25.08-5.88,8.76-6,16-.6,21.36C257.16,92,273.6,61.92,291,32.28c5.64-9.72,8.64-19.32,9-29C290,19.68,280.32,36.48,270.6,53.52Zm83.52,360.12a129.79,129.79,0,0,1-19.2-60.24c-.6.12-.84.24-.84.48a147,147,0,0,1-29.76,51.72c-5.52-17.52-11.4-34-17.52-49.44-3.24,10.44-7.08,21-11.4,31.56-4.68,11.4-6.6,22.32-5.88,32.76a218,218,0,0,0,18.36-46.8,294.17,294.17,0,0,0,14.64,44.64l2.28-.24a109.29,109.29,0,0,0,27.72-45,174,174,0,0,0,16.2,51.12,2.76,2.76,0,0,0,3.6,1.68,10.28,10.28,0,0,0,2.4-11.4Zm88.32-346.2c-.72-2.88-2.4-4.44-5-4.8A33.5,33.5,0,0,0,417,59.28l-2.16.6-.6-1.68-1.8,5.88.36.6.6.24-6.36,55a2.55,2.55,0,0,0-2,2.16,12.24,12.24,0,0,0,.48,5.52,9.68,9.68,0,0,0,2,2.88l-1.8,52,6.48-52.56,16.68-8.52a163.62,163.62,0,0,0,26.52,61.92C452.16,162,443.64,141,429.84,120.48q23-18.72,14.52-46.8Zm.72,16c-.6,20-10.68,32.16-30.24,36.48,1.32-18.36,1.92-36.72,1.92-55.08,11.64-.24,20.64,3.72,27.24,12v2.52a4.22,4.22,0,0,0,.36,2.4Zm39-58.56c-11.88-11.16-27.48-14.4-47-10a52.82,52.82,0,0,0-16.44,9.6c-25.32,21.72-40.08,49.08-44.4,82.32a1083.47,1083.47,0,0,0-9.12,123.48q-.54,31.86.36,63.36a680.47,680.47,0,0,0,15.72,128,562.88,562.88,0,0,0,18.6,64.92c7,19.8,20.4,31.8,40.32,36.24a27,27,0,0,0,18.6-2.28A128,128,0,0,0,486,501.84C499.2,490,505.08,476,503.76,460.2l-1.08.12-1.56.24L500,461q-3.42,5.58-6.48,11.52a51.94,51.94,0,0,1-13.08,15.84,210.54,210.54,0,0,0-16.2,14.88q-38,14.76-53.64-20.64a346.62,346.62,0,0,1-14.16-36.72A466,466,0,0,1,373.32,319.8c-.84-17.76-1.32-35.52-1.68-53.4a211,211,0,0,1,58.8-4.2l.72-1a11.43,11.43,0,0,0-1-12.84,34.83,34.83,0,0,1-11.16.12c-17.88-2.76-33.72-.6-47.52,6.72L371.4,224A707.14,707.14,0,0,1,382.92,98.4a100.86,100.86,0,0,1,26.52-52.68C430,24,454.56,19.44,483,32.16,484.8,29.52,484.44,27.12,482.16,24.84Zm96.48,25.68c-8-27.48-27-40.8-57-40.2l-7.32,2.76a11.6,11.6,0,0,0-5,2.88Q486.78,38.1,487,71.4a194,194,0,0,0,10.44,63.48q13.68,39.6,25.68,79.92,17.82,60.3,33.6,121.56a415.62,415.62,0,0,1,12.24,123.12c-.72,14.4-1.2,28.68-1.56,43q-.9,39.24-32.76,60.12a98.71,98.71,0,0,1-47.28,7.8c-9.24-7.56-12.24-16.92-9.12-28.32q3.6-13.32-3.6-22a126.38,126.38,0,0,0-4.32,27.6,40.21,40.21,0,0,0,8.64,27.12c10.08,12.72,23.64,15.48,40.56,8.28a111.84,111.84,0,0,0,21-9,37.71,37.71,0,0,0,18.72-21.84,312.45,312.45,0,0,0,17.52-103.32A491.51,491.51,0,0,0,561.6,325.8q-15.3-60.3-32-120.36a164.82,164.82,0,0,0-11.52-30,246.31,246.31,0,0,1-24.84-86c-2.28-22.8,2.88-42.84,15.24-60.12,19.56-8,36.84-4.8,52,9.48A202.92,202.92,0,0,1,577.92,57.6,9.09,9.09,0,0,0,578.64,50.52Z" transform="translate(-23.76 -3.24)"/></svg>