<svg id="Layer_1" data-name="Layer 1" xmlns="http://www.w3.org/2000/svg" viewBox="0 0 307.35 213.63"><defs><style>.cls-1{fill-rule:evenodd;}</style></defs><path class="cls-1" d="M230.16,256.8a153.55,153.55,0,0,1,11.16,43.92,85.12,85.12,0,0,1-6.6,43.44,68.36,68.36,0,0,1-29.52,33.12,69.45,69.45,0,0,1-45,8.76A887.93,887.93,0,0,0,162,212.88c13.92-6.6,27.72-4.08,41.52,7.44A94.92,94.92,0,0,1,230.16,256.8Zm-73.92,29.28c.72,14.28,1.08,28.56,1,42.72s-.48,28.32-1.08,42.36l-.72,14.16-3.6-.84a22.09,22.09,0,0,0,0,17.88q27.18,9.18,52.44-5.88a136.25,136.25,0,0,0,19.08-14.28,78.61,78.61,0,0,0,7-7.2,52.93,52.93,0,0,0,5.16-7.92,124.11,124.11,0,0,0,13.44-68.4A157.28,157.28,0,0,0,223.08,224a73.65,73.65,0,0,0-36.84-29.4c-10.08-3.72-18.36-3.12-24.72,1.56a168.11,168.11,0,0,0-6.24,44.4C155.16,255.72,155.52,270.84,156.24,286.08ZM342,213.24a636.34,636.34,0,0,1,4.8,127.44A38.89,38.89,0,0,1,342.72,356c-12,23.64-31.8,32.4-59.4,26.52a16.76,16.76,0,0,1-6-7.2,59.25,59.25,0,0,1-5.28-22.8,574.74,574.74,0,0,1,4.44-89.88,341,341,0,0,0,2.16-64.32c-4,6.36-6.36,14.16-7.32,23.28Q266.46,271.5,265,322.56a200.64,200.64,0,0,0,8.16,64A10.18,10.18,0,0,0,278,393c17.16,9.84,34.68,9.48,52.8-1.2a74,74,0,0,0,12.72-14,34.62,34.62,0,0,0,5.88-14.64,466.93,466.93,0,0,0,2.16-128,122.12,122.12,0,0,1-.84-16.2c0-8.88-2.28-15.12-6.84-18.6A23.53,23.53,0,0,0,342,213.24Zm87.12,182.88,2.16,2.64a22.71,22.71,0,0,0,17-2.4A274.41,274.41,0,0,0,451.8,295a734,734,0,0,1-8,87.36L432.6,381,428,376.08C424.08,383.16,424.44,389.76,429.12,396.12Zm23.76-158.28c-.6-.12-1,.12-1.08.48-4.44,11.16-4.44,21.24,0,30.36l.6-.84A50.22,50.22,0,0,0,452.88,237.84ZM372,210c13.68,0,27.48-.12,41.28-.36q-4.5,47.7-5.28,96.36a516,516,0,0,1-4.68,64c-1.56,12.12-.24,22.8,4.2,31.8a37.46,37.46,0,0,0,5.64-18.48l2.4-56.88c1.68-39.24,1.56-78.24-.24-116.76l40.56-1.32a11.67,11.67,0,0,0-.6-12l-1-1-1.44-.36c-9.48-.36-19.08-.6-28.68-.72a175.56,175.56,0,0,0-52.2,5.16l-.36.84a13.27,13.27,0,0,0,.12,8.88Z" transform="translate(-149.91 -192.22)"/></svg>