<svg id="Layer_1" data-name="Layer 1" xmlns="http://www.w3.org/2000/svg" viewBox="0 0 378.19 320.94"><defs><style>.cls-1{fill-rule:evenodd;}</style></defs><path class="cls-1" d="M171.6,167.64a261.52,261.52,0,0,1,30.48,126.72,187.07,187.07,0,0,1-29.16,99l-8,5.16c-18.6,11.64-39.36,15.6-62.16,12.12.84-12,1.2-24.12,1.08-36.48-.6-43.08.36-85.8,3.12-128.28,2.52-39.48,3.24-78.72,1.92-118a44.66,44.66,0,0,1,25.44,4.2A80,80,0,0,1,171.6,167.64Zm-66.12-49.08-.6,3.24a80.75,80.75,0,0,0-2.28,22.92q1.62,65-2.16,129.24T94.32,402.84c-.48,12.6,1.56,23,6.12,31.44l1-7.92.84,1.08a149.33,149.33,0,0,0,37.32.12A41.82,41.82,0,0,0,163,417.12q34.92-31.14,41.16-78.84a387.33,387.33,0,0,0-4.2-127.8q-13.5-68.22-75-97.08a30.49,30.49,0,0,0-17,3.72V117l-1.32-1-.72,2.28ZM244.8,125a111,111,0,0,0-5,33.24q0,64.26-3.72,128.28-2.7,48.24-5,96.48-.9,18.36,5.4,31.68a88.42,88.42,0,0,0,4.44-29.16c-.6-42.84-.12-85.68,1.68-128.28Q245.22,193,247,129.12l-.24-.84A6.35,6.35,0,0,0,244.8,125Zm161.76,38a270.88,270.88,0,0,0-29,101l-.6.24a22.63,22.63,0,0,0-1.08,10.56,7.24,7.24,0,0,0,.72,2.28A811.16,811.16,0,0,0,375.12,361,160.73,160.73,0,0,0,386,413.88c5.64,14.52,16.08,19.68,31.32,15.24a103.59,103.59,0,0,0,31.08-14.52q23.22-15.84,14.76-37.44a144.12,144.12,0,0,1-16,17.28,76.26,76.26,0,0,1-27.84,16.08c-18.72,5.88-29.4-.48-31.92-19.2A565.84,565.84,0,0,1,383,281.88l1.32-.72.6-.6.36-.72.24-.84c0-.6,0-.84.12-.84a177,177,0,0,1,51.84-4.32,14.24,14.24,0,0,0,1.32-9.72,8.28,8.28,0,0,0-4.32-5.64l-6.48-.72-6-.72a122.79,122.79,0,0,0-37.56,4.8,241.5,241.5,0,0,1,26.88-90.6q14.76-28.08,44.88-20.76a35.48,35.48,0,0,1,9.84,7.44,16.65,16.65,0,0,0,6.36,4.44l-.12-.84c-3.24-17.76-14.64-27-34-27.6C424.32,139.32,413.76,149,406.56,163.08Zm-43.2-28.2Q357.6,177.54,355.8,221q-2.52,63.9-6,127.44a161.29,161.29,0,0,0-2.28,20.28l-.6,8.52a590.13,590.13,0,0,0-14.4-72.72C327,283.8,322.2,262.8,318.12,241.8q-12.06-63-27.84-124.68a7.82,7.82,0,0,0-2.88,6L287,118.2c-3,6.84-4.44,14.88-4.32,23.88q.54,64.44-2.88,128.28-3.6,64.26-11.76,128c-1.56,12.6-.12,23,4.32,31.56a375.8,375.8,0,0,0,7.8-55.08q4.14-64.08,7.92-128.28a981.93,981.93,0,0,0-.48-120.36q6.12,40.14,14.52,79.68,7.2,34.74,16.08,69.12a857.13,857.13,0,0,1,23,125.64c1.32,11.64,4.2,21.84,8.88,30.6a2.45,2.45,0,0,0,1.08-2.4v-.6l.24.36c1.92-13.56,3.12-27.72,3.72-42.24,1.56-42.72,3.6-85.44,5.88-128.28q3.42-64.8,6.12-127.44A4.85,4.85,0,0,0,363.36,134.88Z" transform="translate(-94.25 -113.34)"/></svg>