<svg id="Layer_1" data-name="Layer 1" xmlns="http://www.w3.org/2000/svg" viewBox="0 0 576.36 592"><defs><style>.cls-1{fill-rule:evenodd;}</style></defs><path class="cls-1" d="M402,515.88q-1.44-4.14-1.44-13.32c0-11.16.48-25.8,1.56-43.8,1.2-21,2.52-32.16,3.84-33.24,1.08,2.76,1.68,7.2,1.68,13.44q0,12.78-4.32,76.68Zm158-1.68c6.36-2.28,12-1.92,17,.84s7.8,7.44,7.8,13.8l-.24,3.24c-.12,0-.36.12-.6.48l-.84,1a5.49,5.49,0,0,1-2.16-3.36l-1.2-4.56c-1.92-4-7.32-5.88-16.08-5.88-9.24,0-16.32,7.08-21,21.12-.72,2-1.32,4.2-1.92,6.48,6.36,0,14.76-1,25.2-2.76,2.28-.36,3.84-.36,4.56,0,.84.6,1.32,1.92,1.32,4.08v1.68a3.36,3.36,0,0,1-2,2.28q-5.22,2.7-23.4,3.6L539,556l-.72,6.72c0,4,1.68,8.16,4.92,12.72,4.2,5.76,9.48,8.64,16,8.64q14.94,0,20.52-5.76a8,8,0,0,0,2.28-4.44,5.56,5.56,0,0,0-.36-3l.48-.48,1.08-1.2a8.5,8.5,0,0,1,1.32,3.36l.36,3.6a17.87,17.87,0,0,1-2.64,9.36c-3,5-7.68,7.56-14.16,7.56-14.88,0-24.72-4.44-29.64-13.2-2.28-4-3.36-9.72-3.36-17.16,0-13.56,2.64-24.84,7.8-33.6C547.32,521.52,553,516.6,560,514.2Zm-413.4-43.8c12.12-1.08,20.88-3.6,26.52-7.56,4.2-3.24,6.36-7,6.36-11.4-8.4-13.2-18.24-19-29.52-17.4-.36,5.76-1.32,17.16-3.12,34.2Zm189.6-13.08.36,22.92a321.13,321.13,0,0,1-3.6,45.6q-10.26,65-46.32,65-30.6,0-45.24-30.36A102.52,102.52,0,0,1,234.36,539a58.51,58.51,0,0,1-1.56-11,68,68,0,0,1,1.08-13.8V466.32c1.2-8.76,2.16-15.48,2.88-20,1.32-8.28,3.6-14.52,6.84-18.6l1.32,2.28a9.69,9.69,0,0,1,.36,3c0,3.72-2.52,16.8-7.56,39.36v47a41.68,41.68,0,0,0-1.08,9c0,1.2.72,4.32,2.28,9.24a115.74,115.74,0,0,0,6.84,17.52c8.28,16.44,17.88,24.6,29,24.6,20.64,0,35.64-8.64,44.88-25.92q9.36-17.46,11.16-48.24c.6-11.28,1.08-24.24,1.32-38.88l.48-39a154.09,154.09,0,0,1,3.48,16ZM148.08,423c23.64,3.12,35.52,12.72,35.52,28.92,0,7.2-1.32,12.84-4.08,16.8a22.44,22.44,0,0,1-6.12,6c3.24,4,7.44,9.6,12.6,16.68,9.24,12.48,13.8,19.68,13.8,21.72a6.88,6.88,0,0,1-1.92,5.16L180.6,496.56c-6.84-8.88-11.4-15.12-13.44-18.6a60.44,60.44,0,0,1-14.76,3.6l-7-.24c-1.92,16.8-3.72,28.2-5.4,34.32l-.6.48-1.08.84a12.2,12.2,0,0,1-1.56-3.36,15.54,15.54,0,0,1-.36-3.72c0-3,1.08-10.08,3.24-21l1.56-7.68h-.12A6,6,0,0,1,140,479a9.69,9.69,0,0,1-.36-3c0-2.64.6-4.44,1.92-5.4h1.2l.24-3.72c0-13.08,0-20.4.12-22.08a58.2,58.2,0,0,1,2.16-12.72l-.12-2.64a7.71,7.71,0,0,1,.84-3.72A11.76,11.76,0,0,1,148.08,423Zm-22.2-247.32c0-3.24,1.92-5.28,5.64-6.36q5.22-1.44,13,.36a41.21,41.21,0,0,1,14.28,6.12c4.68,3.24,7.92,6.84,9.72,11l2.76,12.84a77.75,77.75,0,0,1,1.2,13.08,38.25,38.25,0,0,1-9.24,25.56q-5,5.76-15.12,13c4.08,11.16,9.36,26.76,15.72,47,7.92,25.2,11.88,39.12,11.88,41.88,0,2.28-.48,3.84-1.56,4.92q-7-14.58-19.44-54.48c-5.4-17.76-9-30-10.56-36.6l-12.24,7.8a10.53,10.53,0,0,1-3.12-2.88v4.32l.48,16.92c0,5.76-1,17.4-3,34.92-1.92,17.16-3.24,27.12-4.08,29.76a8.18,8.18,0,0,1-1.44-3.12l-.24-3.48c0-5.64.72-14.16,2.28-25.68a252.14,252.14,0,0,0,2.4-26.76V260.28q.18-15.12.72-25.56V186.84l.36-8.64A9.14,9.14,0,0,1,125.88,175.68Zm4.44,6.24a29.6,29.6,0,0,1-1.08,9v47c-.36,4.2-.6,10.08-.48,17.4.84-1.32,2.76-3,5.76-4.8l9.24-5.4a3.65,3.65,0,0,1,1.44-1.56l.12.6,3.36-2.16q20.52-13.32,20.52-29.52a60.91,60.91,0,0,0-3.12-17.76c-3.48-10.68-8.76-16.08-15.84-16.08l-18.84.24-1.08,1.32ZM31.44,25.68V40.32L30.6,57.84,29.28,84.12c-.12,5.64.12,14.16.48,25.44l.6,17.16c0,16.08-1.2,38-3.72,66-.84,9-1,22.32-.48,39.84l1,25.56q0,21.42-1.08,32v51.12L25,345.36v64.2c-1.2,11.16-2,25.92-2.64,44.28L21,498l-.48,22c-.12,9-.6,16.2-1.2,21.84q-.9,7.74-2.16,22.32l-.48,3.12h.6c18.24,0,34.32-7.32,48.12-21.84a91.24,91.24,0,0,0,17.52-26c4-9,7.2-17.16,9.72-24.6a169.54,169.54,0,0,0,6.24-25.68c4.92-31.56,7.56-51.24,8-59,.24-3.72.24-9,.12-15.6q-.36-15.66-.36-25.2,0-36-4-88.92-4.86-59.22-6.84-88.92c-.84-13.08-2.4-27.84-4.92-44-1.92-12.6-4.56-27.72-8-45.12a127.46,127.46,0,0,0-6.84-22.08c-2-5.28-5.4-12.84-10-22.56A80.94,80.94,0,0,0,40.8,26.28l-9.72-6.6ZM68.76,44.4q10.8,20.7,18,47.88c4.08,20.52,7,35.88,8.64,46.2,2.76,17,4.56,32.4,5.4,46.2l6.72,92.52q4.14,56,4.08,92.52c0,25.8-.12,41.28-.48,46.2-.72,10.08-3.48,30.36-8.16,61Q95.58,525.3,67.68,555a91,91,0,0,1-25.44,19.56c-8.76,4.32-17,6.48-25.08,6.48a8.21,8.21,0,0,1-3.24-.6l-1.68,4.68c-1.2-2.76-1.8-6.72-1.8-12.12q0-3.06,4-70.32,4.5-75.24,5.76-98.52V340.8l1.08-4.08V285.6l1.08-4.08V233.64a225.89,225.89,0,0,1-.84-35.76c.48-9.6,1.44-21.48,3-35.64q.54-14.58.36-42.84l-.36-27.24c0-2.16.24-6.6.6-13.2.48-8,1-14.28,1.56-18.84V15.24c0-5.64,2.16-8.28,6.48-8.16s9.84,3.24,16,9.36C56,23.28,62.64,32.52,68.76,44.4Zm89.4-40.92a141.31,141.31,0,0,1,1.56,19.92V43.32c0,4.92-.24,12.24-.6,22.2-.6,13.08-1.2,21-2,24H155.4a75.85,75.85,0,0,1-.48-8.52A27.78,27.78,0,0,1,156,72.48V46.32l-11.28.48L133,47.64l-5,.36-5.76.72L111.24,50l-4.8.84.24,5.28L106,69l-1.68,19.2c-.12,0-.24.12-.6.48l-1,.84a11.39,11.39,0,0,1-1.68-4.8L100.8,80l1.08-12.12L103,55.8l-.36-5.88a4.45,4.45,0,0,1-1.56-2l-.24-3.36v-3a2.27,2.27,0,0,1,1-1.2c-.6-8-1-12.6-1-13.44a70.5,70.5,0,0,1,.12-12.36c.72-7.68,2.88-12.12,6.36-13.2l1.2,2.28a9.69,9.69,0,0,1,.36,3l-2.16,9.84-2.16,10.44,1,12.36,17.76-2.4L134,35.76l21.72-.6v-.48l.24.24V6.72a5.81,5.81,0,0,1,.84-2.16C157.32,3.84,157.8,3.48,158.16,3.48ZM185.4,69.24c4.68-23.16,16.8-44.88,36.36-64.92,30.48-4.2,49.8,14.4,58.08,56q4.14,20.34,4.32,47.52c.12,9.48,0,19.56-.48,30.24a1290.19,1290.19,0,0,1-7.8,145.32Q260,426,220.08,426c-16.44,0-27.12-15.24-32.28-45.6a225.89,225.89,0,0,1-3-32.16l-.12-16.08V289.92a17.28,17.28,0,0,1-1.08-4.08V181.2c-.48-6.6-.84-16-1-28.32L182.52,134c-.24-14.88-.24-25.92-.12-33A183.67,183.67,0,0,1,185.4,69.24Zm79.2-27.6-1.68,1.44a18.15,18.15,0,0,1-2.52-4.32L257,32.64c-3.24-5.4-6.84-8-10.92-8-1.68,0-2.64-.6-3-1.8v-3Q220.44,10.08,205,37.92a121.92,121.92,0,0,0-9.24,21.84c-1.44,4.44-2.88,9.12-4.32,14.16a166.63,166.63,0,0,0-3.72,30.48q-.36,7-.36,30.24l.24,16.56c.12,10.68.48,19,.84,24.84V280.68a35.67,35.67,0,0,1,1.08,4.92V327l1.44,25.08a236.6,236.6,0,0,0,3.48,28.32c4.44,21.72,12.48,32.64,24.36,32.64,14.64,0,25.92-11.28,34-33.84a150.85,150.85,0,0,0,6.12-23.4l1.56-10.68,6.12-34.56a329.17,329.17,0,0,0,4.68-34.44l5.52-70.8c1.44-21.72,2.16-44.16,2.16-67.2V112.56a173.44,173.44,0,0,0-.84-19.2q-1.8-16.74-12.24-53.28ZM425.4,266a13.83,13.83,0,0,1,.36,3.6q0,9.54-7.8,67.2-8.82,64.8-15.24,87-15.66-57.06-18.84-143.64h-.36q-2.52,22-6.36,71-3.42,46.08-6.84,72.6l-.72.48-1.2.6c-.72-1.56-1.08-4.56-1.08-8.88,0-2.16,1.32-14.76,3.84-37.92,2.52-22.92,3.84-36.72,3.72-41.64a183.1,183.1,0,0,1,.72-19.92,138,138,0,0,1,2.52-19.92l2.28-19.92c1-8.52,2.64-14.52,5-17.88l8.28,75.36q4.86,43.56,9.36,76.92c2-12.12,5-36.6,9-73.68q4.86-46.62,11.52-74.28A5.93,5.93,0,0,1,425.4,266Zm4.8-170.28a15.36,15.36,0,0,1,2.16,7l-.12,6.12c0,4.92-.48,8.28-1.56,10.2-1-1-1.56-2.88-1.92-5.76l-.84-8.28c-1.32-7.08-5.64-10.56-13.2-10.56l-8.4.24c-4,4.44-6.6,8.28-7.68,11.52a38.6,38.6,0,0,0-1,10c0,4.56,1.56,10.56,4.68,17.88,1.92,4.44,5.4,12.12,10.44,22.8,10.08,22.92,15.12,46,15.12,68.88,0,9.12-.36,15.12-1.2,17.88-1.56,5-5.64,11.16-12.36,18.24l-5.64-.24-6.24-.6c-7-.6-11.88-5.4-14.64-14.4A54.63,54.63,0,0,1,386,237l-.36-4.68a74.63,74.63,0,0,1,.36-9c.36-3.84,1.32-6.84,2.88-8.88,1.44.84,2.16,2.52,2.16,4.8a35.8,35.8,0,0,1-1.08,6.12,40.18,40.18,0,0,0-1.08,6.12c0,5.16.36,9,1.2,11.4,2,6.6,6.6,10,13.44,10l10.08-.24c4.2-2.64,7.2-6.84,9-12.72a44.49,44.49,0,0,0,2-13.8,129.44,129.44,0,0,0-4.68-33.6,255.32,255.32,0,0,0-10.44-29.28c-6.36-15.24-9.84-23.64-10.44-25.32-3.24-8.76-4.8-16-4.8-21.72,0-8.28.24-13.2.84-14.88,1.08-3.36,4.56-8.64,10.56-15.72C418.56,87,426.72,90.36,430.2,95.76ZM383.88,17.64l-1.44,1.56a3.45,3.45,0,0,1-2.76-2.76l-.24-3.36a19.78,19.78,0,0,1,1-5.28c.84-3,2-4.56,3.72-4.56,3.24,0,5.16,3.12,5.76,9.48a45.06,45.06,0,0,1-.12,9.84q0,3.42-5.88,85.68c-4.44,60.24-7.08,99.72-8.16,118.32q-2.7,50.58-9.24,101.52c-4.44,34.92-10.2,68.64-17,101.16-5.16-11.28-8.4-25.44-9.72-42.36-.84-19.2-1.56-33.36-2.4-42.6l-4.44-41.64c-2-17.64-3.24-31.92-3.72-42.72-.36,31.8-1.92,59.76-4.92,83.76-3.72,30.36-10,58.08-18.6,83.4a7.64,7.64,0,0,1-1.92-4.08V376.8a179.64,179.64,0,0,0,0-34.08V296.4l-5.16-68.28q-3.42-41.58-4.08-68l-5.64-62.16q-5.58-60.3-5.64-73v-11q.54-9.18,4-10.44l10.2,144.36q6.12,86.94,11.28,143.76v46.2a296.46,296.46,0,0,1,0,43.8v18.24c2.76-13.2,5.52-30.6,8.4-52.32q5.4-40.68,7.2-52.2V215.76a8.89,8.89,0,0,1,2.52-4.8c5.4,28,9.84,61.32,13.56,100.08q3.24,33.66,8.28,100.44l.36.24q14.76-74.34,22.32-190.92l5.88-95.64q3.42-56,7.8-95.4v-13C384.72,16.8,384.36,17,383.88,17.64Zm104.4,16.44-.48.48-.84.84A97.92,97.92,0,0,0,478.68,22c-5.88-8-11.76-12-17.76-12-9.6,0-16.32,11.88-20.16,35.52a225.75,225.75,0,0,0-3.12,36.12c0,6.72.36,11.76,1.08,15v48.72l1.56,23.76.6,16.32q0,13.32-.72,33.12l.24.48a11.52,11.52,0,0,0,4.08,1.92l15.36,1.68,12.12.48,3-.24,1.32,2a8.06,8.06,0,0,1,.36,2.76l.24,3.48c-.12,1-.72,1.44-1.92,1.44l-8.88-.72-7.32-1.2c-9.24.36-15.6-.84-19.08-3.36q-.9,20-2.52,45.36-3.78,58.5-3.84,87.24l-.12,9.6A139.4,139.4,0,0,0,434.64,388c2.76,17.4,8.64,26.16,17.64,26.16l12.24-.24a83,83,0,0,0,19.56-27.24,75.67,75.67,0,0,0,6.6-29.28c1.68.36,2.76,1.92,3.12,4.44l.12,5.64c0,8-2.88,18.24-8.52,30.84-6.6,14.28-13.68,22.56-21.24,24.72-16.2,3.36-26.64-5-31.44-25.08a114.93,114.93,0,0,1-2.64-23V360.24q0-29.16,3.84-87.6c1.2-19.2,2.16-36,2.76-50.52l-.12-1.44.24-2.4.12-.12c.48-13.2.72-24.24.72-33.24l-.6-14.64-1.56-21.72V99.84c-.72-3.72-1.08-10-1.08-18.6,0-7.56.6-17.64,1.68-30.48,1.2-14,2.4-23,3.72-27.24q5.22-16.38,14-20.88C458.76.12,464,.6,469.8,4A40.24,40.24,0,0,1,483,17c3.72,5.52,5.52,10.2,5.52,14.16A8.81,8.81,0,0,1,488.28,34.08Zm63.36-8.64A64.13,64.13,0,0,1,563,43a163.26,163.26,0,0,1,6.36,17.4c3,9.12,5.4,20.4,7.08,34l3.84,35.88c.48,3.72,1.68,25.32,3.48,64.8,2,40.68,3,65.52,3,74.28q0,52.74-1.32,77.4-2.34,48.78-10.68,86.88-22.14,102.06-90.48,150.72l-.12.84-.36-.36-.72.36a9.71,9.71,0,0,1-1.92-6.48l.12-.84-.12-.72c0-8.52,2.52-41.28,7.44-98q6.84-80.82,10-107.4V310a35.67,35.67,0,0,1,1.08-4.92V226.32c2.28-24.72,3.72-41.4,4.08-49.92.12-4,.24-17.64.24-41,0-13.2-.72-32.52-2.16-57.84S499.68,33,499.68,20.28l-.24-4.56A5.36,5.36,0,0,1,497.52,12a3.73,3.73,0,0,1,2.88-3.84,3.87,3.87,0,0,1,2.16-2.52l.24,2c4.2-.36,10.68,1,19.68,4,6.24,2.16,12.36,4.68,18.36,7.44C546.6,21.84,550.2,24,551.64,25.44ZM547.32,36c-1.44-1.44-5-3.12-10.68-5l-16.92-5.52a86.88,86.88,0,0,1-16-6.6q5,63.18,5,116.16c0,25.2,0,40-.12,44.28-.36,10.68-1.8,27.72-4.2,51.12V310L503.4,314v61.68q-.36,3.78-7.92,104.76-4,51.12-8.88,88.32l1.68-.12c2.4,0,8.4-5.28,17.88-15.72q11.16-12.24,18.36-22c12.36-16.08,20.16-28.56,23.28-37.32,2.64-7.32,6.12-19.8,10.56-37.56,4.08-16.2,7.92-28.56,11.4-37.08,3.24-8.16,6.24-30.6,8.76-67.44q3.42-47.88,3.36-82.8,0-13.5-3-72.72c-1.92-38-3.12-58.2-3.48-60.24-.48-2.64-1.68-13.8-3.72-33.6-1.32-13.68-3.6-24.72-6.6-33-2.28-6.84-4.2-12.12-5.88-16A52.73,52.73,0,0,0,547.32,36Z" transform="translate(-10.44 -1.04)"/></svg>