<svg id="Layer_1" data-name="Layer 1" xmlns="http://www.w3.org/2000/svg" viewBox="0 0 311.44 208.08"><defs><style>.cls-1{fill-rule:evenodd;}</style></defs><path class="cls-1" d="M159,382.2a1085.33,1085.33,0,0,0,1.08-176.64c15.72,1.56,28.32,8.88,37.8,22.2a97.23,97.23,0,0,1,16.8,38.88,147.39,147.39,0,0,1,1.44,47,126.11,126.11,0,0,1-13.44,42.24c-7.56,14.4-19.32,22.92-35.52,25.68Zm-3.36-183.36a25.2,25.2,0,0,0-1.08,8.52,1154.67,1154.67,0,0,1-1.68,128.88,420.15,420.15,0,0,0-.84,45.84l-1.08-.84-1.08-.48-2.64-.12a14.46,14.46,0,0,0-3,10.68,5.43,5.43,0,0,0,2.88,4.68l5.88,2.16.12,2.28,1.08-1.92q27.9,8.1,46.8-18.12,28.26-39.42,23.4-89.16a251.59,251.59,0,0,0-14.64-63.12c-7.92-21.24-23-33.24-45.24-35.76l-3.24.36-2.16.36-2.76,1.2-.6,3.24Zm93.24-1.56c-4.44,39.72-7.44,80-9.24,120.84a166.28,166.28,0,0,0,4.92,47.64q9,35.28,45.72,27.24a15.58,15.58,0,0,0,7.92-4.68q22.68-26.28,24.36-62.76c1.56-31.8,2.88-63.72,4.2-95.76.48-12.12-1.8-22.68-7-31.68a4.57,4.57,0,0,0-2.52,4,236.19,236.19,0,0,0-.24,26,513.52,513.52,0,0,1-8.88,127.44c-2.28,11.4-9.24,18-20.88,19.92a28,28,0,0,1-17.52-2.4q-27.9-13.68-24.36-47.76a864.31,864.31,0,0,0,4.08-128ZM351.48,196a57.19,57.19,0,0,0,3,21.48,672.28,672.28,0,0,1,28.56,122l4,31.08c1.32,11.88,4.68,21.72,10,29.64l1-1.8a1260,1260,0,0,0,39.36-121.56c3.48-12.72,7.56-25.2,12.24-37.56,6.12-16.08,7.68-31.68,4.44-46.92-.48.12-.72.24-.84.48-7.32,19.8-13.8,40.32-19.44,61.32q-16.74,61.74-36,122.16Q387.06,315.48,373.8,255c-4.92-22.2-12.12-42.48-21.84-60.72A3,3,0,0,0,351.48,196Z" transform="translate(-144.17 -192.36)"/></svg>