<svg id="Layer_1" data-name="Layer 1" xmlns="http://www.w3.org/2000/svg" viewBox="0 0 560.9 562.23"><defs><style>.cls-1{fill-rule:evenodd;}</style></defs><path class="cls-1" d="M122.64,71.4c6.6,8.76,12.36,19.68,17.28,32.64,2.28,5.88,6,17.52,11.4,34.8,11.64,38,18.48,61.56,20.52,70.32a280.09,280.09,0,0,1,7.32,64.8A605.77,605.77,0,0,1,174,353.28c-4.2,31.08-10.08,56.4-17.88,76-3.24,8.16-8,20.88-14.4,38-6.12,15.36-12.24,28.44-18.6,39.12a170.84,170.84,0,0,1-11.4,16.08A234.3,234.3,0,0,1,90.48,546.6q-32.22,31.14-60.12,31.2c-8.76,0-14.16-1.2-16.2-3.72a3.68,3.68,0,0,1-1-2.88l.36-2a48.22,48.22,0,0,1,.24-5.28V559.2c1-27.6,2-44.88,3.24-52v-86a35.67,35.67,0,0,1,1.08-4.92v-69c1.56-5.4,2.4-13.2,2.28-23.52-.12-11.4.24-19.2,1-23.4V243.6q4.86-82.26,12.24-147v-56c.12-4.2.24-7.32.48-9.48V30.6c-4-2.28-5.88-4.2-5.88-5.76,0-5.52,9.6-5.16,28.68,1.2Q71.46,30.9,87.12,37.92c9.48,4.44,17,9.72,22.68,16A183.27,183.27,0,0,1,122.64,71.4ZM109,70a102.14,102.14,0,0,0-7.68-8.76C94.2,54.12,86.64,49.32,78.48,47A283.11,283.11,0,0,1,50.4,37.8c-4.2-1.56-7.8-3.12-10.8-4.44l-.36,3.36-1.32,7.92v56.88q-4,32.76-7,73-2,26.82-4.68,73.08v57.72c-.84,4.44-1.2,12-1.08,22.92.12,9.72-.6,17.52-2.16,23.16V421.2L22,425.28v88.44c-1.8,7.32-2.88,16.68-3.12,28.2l-.48,19.8a151.43,151.43,0,0,0,32.52-7.2,119,119,0,0,0,15-5.64,123.29,123.29,0,0,0,14.76-9.72A160.61,160.61,0,0,0,101,520.44,133.39,133.39,0,0,0,116.4,501c6.6-10.32,12.84-22.8,18.84-37.32l14.64-38.16c6.84-17.76,12.72-42.24,17.4-73.44q6.48-43.56,6.48-78.24a303.94,303.94,0,0,0-7.08-64.56q-6.84-31.32-21.12-66.12c-4.92-14.52-8.88-25.44-11.76-32.64A120.84,120.84,0,0,0,114.72,77.4ZM192.72,203.4l.72,14.76-.36,14.28,8.28-.72,9.72.48,7.68.36-.12-7.32c0-12.36,0-19.92.12-22.8.36-9,1.08-16,2.28-20.64a40.63,40.63,0,0,1,1.56,7.8l.36,7.68V259.8A94.93,94.93,0,0,1,225.6,276a149.41,149.41,0,0,1,.84,15.84l-1.08,10.8c-.84,5.88-1.44,9.12-1.8,10-2.52-5.16-4-12.24-4.08-21.48.36-10.44.36-17.88.24-22.44L219,243.84H200.28l-7.68-.36-1.44,23.28c-1.44,24.12-2.52,37.68-3.12,40.68l-1.32.24c-1.08-1.92-1.68-4.8-1.68-8.52l1.8-36.6c1.2-27,1.8-48.72,1.8-65.28l.12-9c.24-4.08,1-6.36,2-6.72C191.52,186.84,192.12,194.16,192.72,203.4Zm-7.32-168a464.44,464.44,0,0,1-3.12,53.52,98.27,98.27,0,0,0,20.28-3.24l.12-.72H204l.24.24A54.47,54.47,0,0,0,220,77.76c7.56-5.4,11.28-11.16,11.28-17,0-8-8-15.48-24.12-22.08-2.76-1.08-8.4-3.12-16.68-6l-5.28-1.92Zm-2.16-10c20.64,3.24,34.68,7.92,42.12,14.28,5.64,4.8,8.52,11.88,8.52,21.12a23.79,23.79,0,0,1-2.52,9.36,46.45,46.45,0,0,1-7.8,12.12A44.93,44.93,0,0,1,210.12,92.4L237.6,126l30.12,36.72-.24,2.64-1.08,1.92c-5.52-4.68-17-17.28-34.44-37.68-13.92-16.2-22.92-28-27-35a50.12,50.12,0,0,1-16.68,2.64L181.2,97q-7.74,57.42-9.12,71.64a9.31,9.31,0,0,1-1.92-2.88l-.48-1.92c0-1.08,2-19.56,6.24-55.44l1.44-13.2a13.12,13.12,0,0,1-.12-2.4,7.88,7.88,0,0,1,.24-2.28l.48-.6c2.76-26.52,4.2-46.32,4.2-59.52a6.15,6.15,0,0,1,.84-3.6l.12-.48ZM440.88,391.92a57.19,57.19,0,0,1,2.4-15.36A59.75,59.75,0,0,1,453,357.24c12.12-15.72,31.08-23.52,56.64-23.16,10,.12,18.48,2.64,25.56,7.8a104.54,104.54,0,0,1,9.12,7.56,113.8,113.8,0,0,0,10.56,8.4q6.3,6.12,9.36,16.56a60.64,60.64,0,0,1,2.52,17.52,69.68,69.68,0,0,1-8,26.88c-9,16.92-22.92,25.32-41.52,25.32-32,0-54.36-8.16-66.72-24.48A45,45,0,0,1,440.88,391.92Zm12.48-27.36-6.72,14.76a35.53,35.53,0,0,0-2.52,13.32c0,2,.84,5.16,2.52,9.12a55,55,0,0,0,8.16,14q14.58,18.36,38.88,18.36,43.56,0,60.6-20.28,8.64-10.26,8.64-22c0-10.68-3.6-19.2-10.68-25.56-6.72-5.88-20.76-13.2-42-22.08-5.4-2.28-15.36-.36-30,5.52C466.8,355.2,457.8,360.12,453.36,364.56Zm-64.44,9.12-2.64,34.08A652,652,0,0,1,375,479.64q-23.22,103.5-68.88,103.56l-27.84-1.44c-8-1.2-14.52-3.48-19.56-6.72-5.28-3.48-9.72-8.64-13.44-15.6-3.72-6.72-7-16-10-27.84-3.72-29.64-5.52-47.4-5.52-53.16q0-11,1.08-15.84V380.52q.36-77,10-121.32c10.32-47.88,28.8-73.2,55.56-75.72q54.72-11.16,78.36,74.4,8.1,29.34,11.76,67.68C388.08,342.6,388.92,358.68,388.92,373.68ZM358.68,233.52C352,223.2,345.12,215.76,338,211.08l-6.6-5.16a80.62,80.62,0,0,0-7.92-5.64c-5.16-2.88-9-4.68-11.52-5.28a8.29,8.29,0,0,0-5.4,0,41,41,0,0,1-4.92,2.64,30.86,30.86,0,0,1-9.84,2c-2.28.12-3.84-.12-4.44-.84l-.72-2.16q-15.66,9-24.12,21.24a69,69,0,0,0-10.08,23.76c-.36,1.8-1.8,10-4.08,24.6-1.56,9.72-3.6,17.64-6.36,23.52-2.4,12.6-4,28.44-4.56,47.76l-1.08,47.88v82A44,44,0,0,0,235.32,478a194.86,194.86,0,0,0,6.36,51.12c7.56,26.76,20.16,39.6,37.92,38.76l27.6-.24q38-6.12,60.24-86.28a470.13,470.13,0,0,0,12.48-62.64c2.4-18.24,3.6-33.24,3.6-44.88,0-6.6-1.68-23.88-4.92-51.6-3-25.56-4.8-39.36-5.28-41.64-2-10.2-3.6-18.12-4.92-23.52C365.88,247.32,362.64,239.52,358.68,233.52Zm-3.6-107.64h.6l.84.72-1.92,9.24a48.15,48.15,0,0,1-4.68,13.32c-6,11.4-15.84,17-29.64,17-20.16,0-34.2-6.72-42-20A46.9,46.9,0,0,1,272,121.8c0-20.52,4-38.16,11.76-52.92,6.6-12.36,15.24-21.72,25.92-28.32,9.24-5.64,17.76-8,25.8-7.44,7.8.72,11.76,4,11.76,9.72a5.44,5.44,0,0,1-.36,2.52c-.24.36-.6.48-1.2.6a18.46,18.46,0,0,0-4.2-2.76c-1.32-.6-4.8-1-10.44-1-22,0-37.92,12.72-47.64,38.16A103.17,103.17,0,0,0,280,91.2l34.2-1.32,13.68-.6.48,4.08a7.69,7.69,0,0,1-4.44,4.2c-3.48,1.32-9,2-16.68,2l-28.08-.24L278,98.88a129.71,129.71,0,0,0-2.76,21.6,25.8,25.8,0,0,0,1.92,8.88,44.28,44.28,0,0,0,6.6,11.88c7.68,10,18.24,14.88,31.56,14.88,14.28,0,24.6-4.44,31.08-13.2a62.17,62.17,0,0,0,5.4-10.32C353.4,128.76,354.48,126.48,355.08,125.88Zm219-90.6c0,1.32-1.68,6.48-4.92,15.48L557,83.76c-13.08,36.48-22.92,68.64-29.28,96.48l-16.68,71.64q-9.72,40.32-18.24,72c-7.68-12.72-14.4-29.4-20.28-49.92l-7.08-25.68c-2.88-10.08-5.64-18.72-8.28-25.8-2.4,9.6-5.76,25-10.2,46.2-4.44,19-9.36,34.44-14.76,46.32q-4.86-20.88-13.56-68.28-8.28-45.72-14-68.88l-21.12-70Q366.06,50.28,366,41.4a21.27,21.27,0,0,1,.12-2.88l.36-2.76.48-.48a2.29,2.29,0,0,1,1.2-.6,1345.61,1345.61,0,0,1,65.4,262.2c4.32-12.12,8.4-28.56,12.24-49.08,5-26.16,8.52-42.84,10.32-50,4.44,11.88,10.32,29.64,17.76,53.4q11.88,38.34,17.64,54.36c4-16.08,9-38.28,14.88-66.48C513.24,207,518,184.8,521,172.2Q539.4,93.36,564,39l.36-.6a34.21,34.21,0,0,0-6,.12l-4.92.72a64.25,64.25,0,0,0,8.4-5l10.08-6.6A15.55,15.55,0,0,1,574.08,35.28Z" transform="translate(-13.18 -20.97)"/></svg>