<svg id="Layer_1" data-name="Layer 1" xmlns="http://www.w3.org/2000/svg" viewBox="0 0 476.22 356.82"><defs><style>.cls-1{fill-rule:evenodd;}</style></defs><path class="cls-1" d="M83.64,114.48l6-1q36,3.42,58.08,33.12a150.36,150.36,0,0,1,23,46,277.91,277.91,0,0,1,11.76,67.92,276.16,276.16,0,0,1-1,39.84,228.26,228.26,0,0,1-5.76,33.36,98.07,98.07,0,0,1-8.16,21.84,109.91,109.91,0,0,1-25.56,32.76,160.71,160.71,0,0,1-39.36,25.56A177.86,177.86,0,0,1,75.6,423.6Q75.42,268.8,83.4,114Zm5.64-14.64-2,1.44a13.32,13.32,0,0,0-4.2,4l-.24-4.56c-4.32,6.12-6.72,13.8-7.32,22.92-2.64,42.84-4.2,85.8-4.68,129.12-.36,43.08-1.68,86-3.72,129a571.93,571.93,0,0,0,.36,64.2,3.17,3.17,0,0,0,4,1.32l.84-1.68,1-3.84A138.06,138.06,0,0,0,143,405.6a109.84,109.84,0,0,0,18.48-22.92q34-56.34,28.44-122.52A315,315,0,0,0,154,138a41.16,41.16,0,0,0-12-14,238.21,238.21,0,0,0-41.88-24.6A19.4,19.4,0,0,0,89.28,99.84Zm129,9.48c-1.44,17.16-2.76,34.44-3.84,52q-4.14,63.9-7,128.16-2.7,64.08-7.08,128.16c-.72,10.2,1.32,18,6.24,23.4a479.55,479.55,0,0,0,5-59.28c1.08-42.84,2.64-85.56,4.92-128.16.6-10.8,1.44-21.6,2.4-32.4a603,603,0,0,0,.12-112.08C218.52,109.2,218.28,109.2,218.28,109.32ZM359.4,367l-1.2-1.68L353.88,368,353,379.32c-10.68,16-25.56,25-44.52,26.88-19.32,1.56-33.72-6.84-43.08-25q-23.22-44.82-20.16-97.32a453.45,453.45,0,0,1,13.2-85,178.92,178.92,0,0,1,5.76-18.84l7.08-18.6a64.17,64.17,0,0,1,14.88-22,51.15,51.15,0,0,1,25.68-13.68,107.53,107.53,0,0,1,13.92-1.68L337.08,135c-.12-19.68-9.48-26.76-28.08-21.36q-36,10.62-47.64,47a448.14,448.14,0,0,0-21.48,154.08,234.83,234.83,0,0,0,15.24,76.44,45.62,45.62,0,0,0,7.2,12.12l6.36,6.84a65.78,65.78,0,0,0,23.4,14.4,38.8,38.8,0,0,0,20.28,1.56,65.72,65.72,0,0,0,28.44-12.36,69.4,69.4,0,0,0,14.52-14.52c-3,17.76-2.64,34.2,1.32,49.44a234.89,234.89,0,0,0,8.76-73.08,116.49,116.49,0,0,0-6.24-34.2c-10.92,2-22.08,4-33.72,5.52v8.88a51.16,51.16,0,0,0,31.44-.24Zm74.16-210c.36,34.68-.48,69.24-2.76,103.56a240.73,240.73,0,0,0-38.52,7.8c1.08-28,1.8-56,2.16-84,.36-22.2.36-43.56,0-64.2-.6-.12-.84,0-1,.36a671,671,0,0,0-8.4,105.24c-.12,43.08-1.44,86.16-4.08,129-1.32,21.72-3.48,43.2-6.48,64.68-1.8,12.24-.12,22.92,4.8,31.92a15.37,15.37,0,0,0,4-9.6q4.5-64.08,7.2-128.4l1.44-32.16L425.28,278l4.2-.84-.6,7.32c-3.6,42.84-8.64,85.56-15.24,127.92-1.8,11.88-.84,22.68,3,32.4A10.57,10.57,0,0,0,421,436.2c1.32-20.76,3-41.4,5.16-61.92q5.22-49.5,9-99.24,6.84-4.5,1.08-14.76L437,247a1038.45,1038.45,0,0,0,.48-128.16A160.6,160.6,0,0,0,433.56,157Zm94.56-41.4a516.32,516.32,0,0,1-76,3.72A16.3,16.3,0,0,0,451.08,130a4.59,4.59,0,0,0,1.8,2.4L496,133.68c-.84,5.52-1.56,11.16-2,17-3.24,42.48-5.4,85.2-6.72,128.28s-3.12,86-5.88,129c-.36,5.28-1.08,10.56-1.92,16-2.28,12.6-.84,23.16,4.08,31.68a48.48,48.48,0,0,0,4.92-19.44q3.06-64.08,5.64-128.28c.72-18.84,1.56-37.68,2.52-56.76,2-39.24,2.64-78.48,1.8-117.48a414.29,414.29,0,0,0,42.24-3.24,11.38,11.38,0,0,0,1.2-10.56,13.28,13.28,0,0,0-1.44-3.24.91.91,0,0,0-.84-.48Z" transform="translate(-66.35 -98.82)"/></svg>