<svg id="Layer_1" data-name="Layer 1" xmlns="http://www.w3.org/2000/svg" viewBox="0 0 304.93 214.8"><defs><style>.cls-1{fill-rule:evenodd;}</style></defs><path class="cls-1" d="M280.56,285.48l6.24-12.12a32.41,32.41,0,0,0,17.88-1.2l2.4-1.08L320,292c-1.8-18.6-8.4-36.48-20-53.52q-21.06,14.94-20.16,40.32A63.85,63.85,0,0,0,280.56,285.48Zm14.52-24.12a31.19,31.19,0,0,0,5.52-11.88,87.59,87.59,0,0,0,3,12.6A33.63,33.63,0,0,0,295.08,261.36ZM158.64,377.28q7.74-84.78,8.4-169.56c15.84-.12,28.44,6,37.92,18.6A97.24,97.24,0,0,1,222.84,268a142.49,142.49,0,0,1,.84,45.72,134.72,134.72,0,0,1-14,45c-8.16,15.72-21,22.92-38.4,21.72A51,51,0,0,1,158.64,377.28Zm2.64-185.64a1.82,1.82,0,0,0-1.32,1.44,33.79,33.79,0,0,0-1.56,13A600.53,600.53,0,0,1,156.6,310c-2.28,21.24-4.2,42.48-6,64q-1.62,18.36,5,30.6a6.38,6.38,0,0,0,1.8-4.08l.24-5c16,6.84,29.88,4.68,41.76-6.24a61.44,61.44,0,0,0,14.28-19.92q26.46-59.58,10-124.56-10.26-40.14-48.36-52a31.63,31.63,0,0,0-7.44,1l-4.68,1.68Zm160.2,19.68A58.16,58.16,0,0,1,335,226,90.44,90.44,0,0,1,349,270.24a169,169,0,0,1-13.68,77.28q-16.92,39.24-61,31.32-24.12-23-26.64-57.36a208.48,208.48,0,0,1,3.72-58c6.6-32.52,25.68-53.16,57-61.68a1.59,1.59,0,0,1,1.92,1.92l-.24,2.4V207a13.5,13.5,0,0,0,5.88,3.24Zm-10.92-21-7.56-.6q-41.4,14.4-53.52,57.12A260.91,260.91,0,0,0,240,303.72q-2.7,54.18,33.24,91.8l6.6.48c31.32,1.8,52.08-11.4,62-39.84a247.33,247.33,0,0,0,13-100.32c-2.16-29.88-15.72-51.48-40.68-65ZM403.2,201.6a126.4,126.4,0,0,0-30.12,60.72,489.66,489.66,0,0,0-8.52,62.52q-2.88,41.58,26.16,66.36c16.2,4,30.24,1,42.36-9.24,7.92-6.6,12.72-14,14.52-22.44-.6,10.68-.84,21.36-.6,32a25,25,0,0,0,2.64,10.56,230.83,230.83,0,0,0,3.84-78.72l-.12-.36A38.4,38.4,0,0,0,429,326.88l-.36.48.36,7.92,20.4,2.64-1.08,11.64a39,39,0,0,0-1.08-7.08q-15.12,35.1-55.44,30.84a19.14,19.14,0,0,1-8.52-8.64,110.55,110.55,0,0,1-10.56-56A201.7,201.7,0,0,1,400,220a9.15,9.15,0,0,1,6.24-4.68c16.44-3.6,31.68-2.52,45.6,3.36a7.73,7.73,0,0,0-1.2-7.32c-8.88-12-21.6-16.8-38.28-14.28A13.41,13.41,0,0,0,403.2,201.6Z" transform="translate(-150.28 -189.72)"/></svg>