<svg id="Layer_1" data-name="Layer 1" xmlns="http://www.w3.org/2000/svg" viewBox="0 0 305.26 214.8"><defs><style>.cls-1{fill-rule:evenodd;}</style></defs><path class="cls-1" d="M158,323.52q4.14-58.86,2.76-117c18,.12,31.32,7.68,40,22.92,13.8,20.52,20.76,43.44,21,69a192.63,192.63,0,0,1-1.08,23.64,89.8,89.8,0,0,1-19.08,47.76c-12.48,15.72-27.24,20.16-44.4,13.08a124.72,124.72,0,0,0,.48-19A378.31,378.31,0,0,1,158,323.52Zm2.16-128.16a1806.94,1806.94,0,0,0-11.64,183l-.24,5.4-.24,3.48a6.29,6.29,0,0,0,.36,3l3.12,9.84,1.56,4.44,1.56-5.76a42.31,42.31,0,0,0,35.16.12l3.12-1.56,3.12-2,2.76-2.28a43.1,43.1,0,0,0,7.68-9.24,156.7,156.7,0,0,0,23-82.8q.18-61.92-46-99.6a31.35,31.35,0,0,0-18-7.08ZM306,209.16a137.67,137.67,0,0,0,7.92,15.72q36.36,59.76,12.12,125-15.12,40.86-57.6,30.72a68.6,68.6,0,0,1-16.92-36.24,250.6,250.6,0,0,1,7.68-109.8c5.28-18,16.32-28.92,33-32.76a15.34,15.34,0,0,1,5.16,1.68A46.54,46.54,0,0,1,306,209.16Zm-20.28-19.44c-14,5.52-23.52,16.08-28.68,31.56a294.19,294.19,0,0,0-13.44,125.4q3.78,34,29.64,53.16c17.64,3.72,32-1.32,43.44-15q27.9-33.48,28.44-78.6c.48-39.72-10.8-75.6-34-107.88h-2.4l-.84.84-.84.72-.24.36-.72-.72A27.54,27.54,0,0,0,285.72,189.72ZM447.6,283.56c-1.56,32.76-2.88,65.76-4.08,98.76l-3.6,3.24a22.84,22.84,0,0,1-20.76-3.24,75.79,75.79,0,0,0-4.08-11.4c-1.44-1.68-2.76-1.92-4.08-.84a14.57,14.57,0,0,0-1.8,9c1.56,17.52,11.28,25.2,28.92,22.92,4.44-.6,7.08-2.88,7.68-7a396,396,0,0,0,2.52-111.72C448,283.2,447.72,283.2,447.6,283.56Zm4.2-47.28h-.48a4.26,4.26,0,0,0-3,2.4c-3.24,10.2-2.76,19.08,1.32,26.76l.6-.84A46.91,46.91,0,0,0,451.8,236.28Zm-1.08-35.88c-22-.36-43.68-1.68-65.4-4A242.9,242.9,0,0,0,348,197.52a6.72,6.72,0,0,0-1.92,5.4v1.68l.12.72.12.84.12.84.72,1.68,45.6,2.88L390,334.68A321.82,321.82,0,0,1,387.6,367c-1.56,12.48.12,23,5,31.56a40,40,0,0,0,4-17l1.08-50.28q1.62-60.12-1.56-119.4l54.6,1.68a9.78,9.78,0,0,0,2.28-7l-.12-.84v-.84l-.12-.84-.48-1.56-.72-1.68A1.09,1.09,0,0,0,450.72,200.4Z" transform="translate(-148.04 -189.72)"/></svg>