<svg id="Layer_1" data-name="Layer 1" xmlns="http://www.w3.org/2000/svg" viewBox="0 0 313.26 219.14"><defs><style>.cls-1{fill-rule:evenodd;}</style></defs><path class="cls-1" d="M300.36,274.68A51.91,51.91,0,0,0,303,268l1.68,5.88Zm4.32-22L301,255.36l-19.08,25.56-5.76,26.64,2.16.48,12.36-19.2,18.84-3.24,15.72,22.56.84-1.8-8.64-23.88a5.67,5.67,0,0,0,1.68-3.12,6.42,6.42,0,0,0-1.2-5l-4.8-.84-8.4-15Zm-144.12-47.4q14.22-3.24,23.4,6.48,39.78,41.76,33.36,101a104.3,104.3,0,0,1-8.52,31q-15.66,33.84-50.52,34.08a511.51,511.51,0,0,0,3-56.16q.18-58.86-2.16-116.16Zm-5.88-5.4A6.79,6.79,0,0,0,155,203a65.49,65.49,0,0,0-1.56,14.76l-.72,129a190.82,190.82,0,0,1-3,32.16c-1.8,10.2-.12,18,5.28,23.16l1.2-7.8c16.44,3.84,30.84-1.08,43.2-14.64a67.17,67.17,0,0,0,14.88-25.2q20.7-63.54-3-125.16c-7.8-20.28-21.6-32.76-41.4-37.68a17.61,17.61,0,0,1-8.64,2.16l-2.64.48-.12-.84-.6.24-.36,1L155.28,196A15.09,15.09,0,0,0,154.68,199.92Zm155.76,4.92,1.32,2.64q31.5,17.28,36.6,53.28a142.3,142.3,0,0,1-5.28,63.48A149.5,149.5,0,0,1,324.6,363a37,37,0,0,1-13.68,12.48c-12,6.72-24.12,7-36.24.6q-22.5-11.7-26.28-39.24a165.65,165.65,0,0,1,12.48-90,125.94,125.94,0,0,1,24.6-37A34.69,34.69,0,0,1,310,204.6Zm-36.36,1.92a163.16,163.16,0,0,0-31.32,75.48q-7.74,52.92,13,100.92l9.24,7.92c10.8,8.52,23.28,10.2,37.56,5q31.86-11.7,42.12-44.76a334.53,334.53,0,0,0,12.12-55.92q7.74-59.4-32.64-100.92l-2.4-.36a213.32,213.32,0,0,0-25.2-2.52A40.58,40.58,0,0,0,274.08,206.76ZM457.8,196.32a266.68,266.68,0,0,0-6.6,64l.24,30.6a122.72,122.72,0,0,0-27.84,4.56c0-23.4-.72-46.56-2-69.72H421a360.9,360.9,0,0,0-4.92,57.6q-.54,48.06-5.52,95.52c-1.32,12.24.24,22.92,4.56,31.92A349.49,349.49,0,0,0,422.16,354c.72-15.12,1.2-30.24,1.32-45.24a126.4,126.4,0,0,0,27.84-1.32q-.54,41-2.88,81.84c-.48,7.56,1.68,12.36,6.36,14.64a5,5,0,0,0,1.32-3.24q2.7-37.8,3.24-76.32l.24-18.48.6-.12a14.16,14.16,0,0,0,2-6.48,9.41,9.41,0,0,0-2.52-7.92c.12-32-.36-63.84-1.32-95.16Zm-42.24-4.68a283.62,283.62,0,0,0-64.92,8,8,8,0,0,0-1.08,2.52,20.76,20.76,0,0,0,.24,7.2l.6,1.68,37-2.28q-4.68,52.56-4.92,106.08c-.12,21.72-1.2,43.32-3.12,64.8-.84,9,1.2,15.36,6.24,18.84a46.92,46.92,0,0,0,3.36-17.88c0-18,.36-36.12,1.08-54.24q2.52-59.58-.6-117.72L431,206.76l1.08-2.4a14.46,14.46,0,0,0-.36-9L431,193.8a1.39,1.39,0,0,0-.84-.6A60.14,60.14,0,0,0,415.56,191.64Z" transform="translate(-149.07 -191.62)"/></svg>