<svg id="Layer_1" data-name="Layer 1" xmlns="http://www.w3.org/2000/svg" viewBox="0 0 305.15 207.76"><defs><style>.cls-1{fill-rule:evenodd;}</style></defs><path class="cls-1" d="M173.88,211.2a26.19,26.19,0,0,1,10.68,4.8q23.4,17.28,30.84,46.32a146.82,146.82,0,0,1,1,69.6c-6.84,29.88-25.56,45.72-56.4,47.52,1.56-19.08,2.4-38.4,2.28-58-.12-38.76-.72-77.16-2-115A44,44,0,0,0,173.88,211.2Zm-14-14.4-.24-3.6a1.85,1.85,0,0,0-.84.36,1158.29,1158.29,0,0,0-3.6,119.16,428.63,428.63,0,0,1-3.36,64.68c-1.32,9.84.36,17.64,4.92,23.52a5.07,5.07,0,0,0,1.44-3.24l.12-.12q29.34,1.26,48-22,24.48-30.24,22.2-71a277.37,277.37,0,0,0-11-62.88c-8.28-27.72-26.64-43.32-55.08-46.56A2.78,2.78,0,0,0,159.84,196.8Zm152.52,15.6c14.76,6.12,24.72,16.8,29.64,32.28a159.4,159.4,0,0,1,7.56,45.12,119.37,119.37,0,0,1-7.68,44.4,77.61,77.61,0,0,1-27.24,36.24q-20.7,15.3-43.2,6.84c-10.2-4-16.92-11.4-20-22.56a150.87,150.87,0,0,1-5.4-41.4,180,180,0,0,1,6.24-46.08,161.7,161.7,0,0,1,17.88-41.64c2.28-3.84,4.56-7.56,7-11.28A74.76,74.76,0,0,1,311.76,210Zm-44.76-5.16a129.36,129.36,0,0,0-10.2,20.88,241.5,241.5,0,0,0-13.8,125.4q4.68,31.32,30.72,46.92a64.73,64.73,0,0,0,13.68-1.8Q333.18,387.3,346.68,343a232.4,232.4,0,0,0,10.08-75.12c-.72-30.6-13.2-53.88-37.56-70.08l-1.8.72-1.08.6-1.08.6-1.08-.36a65.51,65.51,0,0,0-25.2-2.64A29.9,29.9,0,0,0,275,202.2Zm109.32-12.36q-8.64,46.8-4.44,101.88c.84,10.68,1.2,21.48,1.08,32.28l-.24,6.12a100.88,100.88,0,0,1-1.92,18.12,115.2,115.2,0,0,0-.48,40.56,14.2,14.2,0,0,0,2.64,6.12q9.18-52,6.84-110.76a82.45,82.45,0,0,0,40.08-.48c3.24-4.44,3.36-9.12.36-13.8l-40,4.56-3.24-73L455,213a15.14,15.14,0,0,0-.6-14.16,197.11,197.11,0,0,0-76.2-3.48l-1,1.44Z" transform="translate(-151.36 -193.16)"/></svg>