<svg id="Layer_1" data-name="Layer 1" xmlns="http://www.w3.org/2000/svg" viewBox="0 0 578.24 565.13"><defs><style>.cls-1{fill-rule:evenodd;}</style></defs><path class="cls-1" d="M418.08,505.68l.24-34.56q26.82-12.42,34.44,13.8-3.24,23.4-31.32,21.24Zm33.84,1.8a47,47,0,0,0,5.64-16.92A29.08,29.08,0,0,0,455,473.64q-11.7-24.84-36.72-13.32a8.76,8.76,0,0,0-3.24,2.88l1.08,9-3.72,31.92-3.84-1.68-.48,1.68-.36,3.72-.12,1.8a7.08,7.08,0,0,0,3.36,6.6,120.05,120.05,0,0,0,0,56.16,11,11,0,0,0,1.08,2.76l5.4-55.92a37.94,37.94,0,0,0,25-3A21,21,0,0,0,451.92,507.48Zm41.76-51.6-2.28-.24q-38,31.86-30,81.48A49.72,49.72,0,0,0,477.48,567c5.28,4.8,11.4,5.76,18.36,2.76,15.48-6.6,22.56-17.88,21-34.08C505.2,555,492.72,559.8,479.4,550.32a24.6,24.6,0,0,1-9.24-13.92,73,73,0,0,1-2.64-17.76,58.53,58.53,0,0,0,27.12-5.52,9.72,9.72,0,0,0,1.68-5,8.78,8.78,0,0,0-1.8-5.88l-3.12-.84-23.28,6.24c.84-23.88,11.64-37,32.4-39.48a16.15,16.15,0,0,0,7.2,7c1,.48,1.56.24,1.68-.72C509.76,463.56,504.48,457.44,493.68,455.88ZM551.16,453h-1.68a22.68,22.68,0,0,0-4.92,1.2,7.28,7.28,0,0,1-3.72.84c-1.92-1.92-3.24-1.2-3.84,2.28l-4.8,28.92c-2.4,15.24-4.32,30.36-5.64,45.6-1.32,15-.72,28.92,2,42L529,572a13.49,13.49,0,0,0,12.12,3.48l9.36-1.44c11.64-2.28,20-8.52,25.2-19q22-43-2.16-86a95.93,95.93,0,0,0-9.36-13.44A67.26,67.26,0,0,0,552.84,453Zm14.4,15.6c14.88,21.72,17.52,45.12,7.8,70Q562,567.9,530.52,558.72q5.22-46.8,9.48-93.6A45.83,45.83,0,0,1,565.56,468.6ZM88.2,31.08l-3.48-.48-.36-.24a111,111,0,0,0-48.6-9A50,50,0,0,1,22.68,23L20,23.28a4.61,4.61,0,0,0-1.8,2.88,15.5,15.5,0,0,0,.12,5.76l.36,1.56.48.84,4-.12C21.72,74.4,20,114.6,18,154.56c-2.28,43-3,85.92-1.92,129s1.68,85.92,1.92,129,0,85.68-.36,128.28a33.23,33.23,0,0,1-2,11.52c-3.48,10.2-2.4,18,3.36,23.4a6.6,6.6,0,0,0,1.56-2c12.6,6.36,25.8,5.76,39.84-1.68,4.44-2.4,8.76-4.8,13-7.32A293.66,293.66,0,0,0,126,524.16a176.74,176.74,0,0,0,29.16-37A230.05,230.05,0,0,0,184.44,408,619.14,619.14,0,0,0,193,279.48c-.84-21.48-2-43-3.84-64.2A290.71,290.71,0,0,0,152.4,95.88Q129,54.3,88.2,31.08Zm12.24,22A83.4,83.4,0,0,1,118.2,68.28a245.9,245.9,0,0,1,56.16,114,584,584,0,0,1,11.52,128,505.69,505.69,0,0,1-18.24,126.6,91.92,91.92,0,0,1-9.6,22.56A264.81,264.81,0,0,1,90.72,535.8a131.51,131.51,0,0,1-56.88,25.32L28.44,559l-5.76-2.28A486.36,486.36,0,0,0,24.24,507c-.84-42.84-1.32-85.92-1.2-129s-.6-86-1.92-129a925.6,925.6,0,0,1,2.4-96.6A973.58,973.58,0,0,0,25.68,34.08a141.23,141.23,0,0,1,58.2,10.56l3.48.6a28.85,28.85,0,0,0,5.52,3.24,19.3,19.3,0,0,1,5.4,3.6A4.44,4.44,0,0,0,100.44,53ZM441,306.84c-2.76,4.92-4.56,11.16-5.28,18.48-3.72,42.72-6.12,85.2-7.44,127.56a92.35,92.35,0,0,1,42.24-5L471,447a13.36,13.36,0,0,0,.12-12.24,131.66,131.66,0,0,0-37.68,1.08c.84-21.72,2.52-43.44,5.16-65A372,372,0,0,0,441,306.84ZM471.36,152a949.81,949.81,0,0,1-9.48,124,5.44,5.44,0,0,1-1-2.64c-3.48-42.72-9.12-85-16.68-126.72l-.48.12q-5.76,48.06-9.12,97.32a222,222,0,0,1-4.8,32c-2,9.24-1.68,17,1,23.4a1.8,1.8,0,0,0,1.32-1.56,1108,1108,0,0,0,13.56-117.72c3,28.44,5.76,56.76,8.28,85.2l.6,12.24c.36,11.76,2.64,22,7.08,30.72a889.89,889.89,0,0,0,16.44-127.32c.72-12.36-1.32-22.56-6.24-30.6A2.91,2.91,0,0,0,471.36,152Zm15.72-3.24-2.76,3,.24,9.72,3.6,3.24-1.32,22c6.48-9.72,7.68-20.16,3.72-31.08A26.23,26.23,0,0,0,487.08,148.8ZM369,90.36q16.74,61.38,30.84,124A486.74,486.74,0,0,1,411,342.48a583,583,0,0,1-19.44,125.64,201.3,201.3,0,0,1-27.24,59.76,42.07,42.07,0,0,1-27,18.24q-55.62,11.7-88.44-34.32Q210.72,458,206.64,391.32a954.76,954.76,0,0,1,1.08-128.4,722.24,722.24,0,0,1,13.92-95.4A312.67,312.67,0,0,1,271.92,52.8c4.68-6.6,8.64-10,12.12-10.32l1.32-.48A44.92,44.92,0,0,1,293,38.64,124.75,124.75,0,0,1,340.2,45a25.9,25.9,0,0,1,14.88,11.88A133.23,133.23,0,0,1,369,90.36ZM354.72,30.84c-16.68-10.08-35.28-14-56-11.88a25.82,25.82,0,0,0-9.48,4q-25.74,16-40.08,43.92A379.58,379.58,0,0,0,210,188.4q-6.66,47.52-10.32,95.52a730.79,730.79,0,0,0,1.68,128.64A228.51,228.51,0,0,0,247.92,530.4q31.32,41,83,35.28a39.59,39.59,0,0,0,22.56-10A142.77,142.77,0,0,0,397.8,483.6c5.28-19.8,9.72-39.72,13.2-60A573.91,573.91,0,0,0,418.68,295a579.5,579.5,0,0,0-20.52-126.72q-17.1-61.74-33-123.48A21.93,21.93,0,0,0,354.72,30.84Zm195.36,23.4a31.48,31.48,0,0,1,22.68-6.12l10.32,8.16c.84-7.56-2-12.6-8.64-15.24q-27.72-11-40.44,19.08a127.89,127.89,0,0,0-10,63.24c1.44,14.64,8.76,25.44,21.84,32.28,9.48,5,19.32,5,29.52.12,9.24-4.68,14.64-11.88,16.2-21.72a29,29,0,0,0-.12-8.52A43.66,43.66,0,0,1,563.76,143q-36,6.48-35.28-30.24l.6-8.16a87.44,87.44,0,0,0,42.36,2.52l-.12-10.92L530.4,94.56C530.4,77.28,537,63.84,550.08,54.24Zm31.08-40L549.84,13,419.4,24.36A2.43,2.43,0,0,0,418,26.52l-.24,1.68-.24,3.24a7.55,7.55,0,0,0,1.08,4,69.51,69.51,0,0,0,13.2.24l78.6-4.8Q502.62,88.8,500,148L495.36,260q-2.7,64.26-7.92,128.28c-.84,10.68-2,21.48-3.6,32.16q-2.88,18.9,5,31.68,7-55.26,11.28-112,5-63.72,5.76-128.28.72-64.26,6.6-128.16a440.06,440.06,0,0,0,1.56-53c22.68-1,45.48-1.56,68.16-1.8a7.31,7.31,0,0,0,3.6-6.24V19.44a6.37,6.37,0,0,0-3-4.8Z" transform="translate(-13.61 -12.96)"/></svg>