<svg id="Layer_1" data-name="Layer 1" xmlns="http://www.w3.org/2000/svg" viewBox="0 0 476.87 331.65"><defs><style>.cls-1{fill-rule:evenodd;}</style></defs><path class="cls-1" d="M172.56,151.92a125.55,125.55,0,0,1,20,34.2,179.38,179.38,0,0,1,10.08,38.4,226.16,226.16,0,0,1,2.52,40.32,221.65,221.65,0,0,1-6.12,47,245.68,245.68,0,0,1-15,43.2,87.22,87.22,0,0,1-28.92,34.68,91.42,91.42,0,0,1-43.08,16.68,78.35,78.35,0,0,1-33.36-3.24l-.48-7.32,2.16-3.24-3.84,2.64-1.2,5.4A291,291,0,0,0,78.6,366.6l7-177q1.62-38.88,4.2-71.88a115.12,115.12,0,0,1,46.32,7.68A85.6,85.6,0,0,1,172.56,151.92Zm157.2,1a36.88,36.88,0,0,1,16.44,18.24,230.21,230.21,0,0,1,17.52,81.24q2.34,71.1-41.88,124.32-28.8,34.56-71.64,30l-1-1.44a34.55,34.55,0,0,1-5.16-6.72q-26.82-45.18-22.44-99a578.09,578.09,0,0,1,24-124.8c8.52-27.6,26.64-43.44,54.12-47.52l13,2.52a16.17,16.17,0,0,1,7.08,3.36C318.48,141.84,321.84,148.44,329.76,152.88ZM184.2,151.8a130.32,130.32,0,0,0-13.68-18.36,80.83,80.83,0,0,0-27.84-19.8,102.55,102.55,0,0,0-31.56-7.92,112.59,112.59,0,0,0-22.92.12l-3.72,1.08c-1.8,3.48-1.56,6.72.72,9.6q-9,143.82-20.4,287.4l-.24,8.52.12,4,.48,4.2.84,3.72,1,3.84,1.2,3.72,4.44-13.44q27.72,12.6,57.6,2.64l6.72-2.64,3.36-1.44,3.24-1.68,3.24-1.92,3-2,5.88-4.68a140.53,140.53,0,0,0,14.76-14.52,145,145,0,0,0,25.68-42.24,233.87,233.87,0,0,0,15.84-75.84,262.75,262.75,0,0,0-9-79.8A163.68,163.68,0,0,0,184.2,151.8Zm185.52,74.64C369.12,192,358.2,162,336.84,136.2Q319,114.78,291.12,112.8c-13.8,2.28-25,8.88-33.24,20a161.67,161.67,0,0,0-29.28,66.24A721.64,721.64,0,0,0,215,326.88q-.72,51.3,29,91a11.16,11.16,0,0,0,7.08,4.56q40,7.38,68.52-23.76A172.08,172.08,0,0,0,335,379.08q36.36-54.54,35.16-121Zm24.84-106.8-.12-1.08-.36,1.2-2.28.36a7.56,7.56,0,0,0-1.2,3.24,22.68,22.68,0,0,0-.12,4.92,4.36,4.36,0,0,0,.84,2,93.66,93.66,0,0,0-1.44,22.08c1.56,42.84,1.44,85.56-.12,128.16q-2.52,64.26-8,127.68l-1.08-2-.6,5,1,2.16c-2.76,7.32-1.44,12.6,4,16A214.4,214.4,0,0,0,393.6,375q1.8-53.28,3-106.8l1.92,1.08,18-1.2a42.3,42.3,0,0,0,30.24-17.28q27.9-37.26,17.28-84.6-9-40.86-48.48-50.4Zm43.44,23c12.12,9.48,19.32,22.08,21.48,37.92a75.61,75.61,0,0,1-7.44,45c-7.2,14.52-18.84,22.92-34.8,25.32a24.68,24.68,0,0,1-12.72-.84l-6.6.36-2.64-119.16C411.48,129.36,425.76,133.2,438,142.68Zm102.84,6.12c2.88-17.88-4.8-27.12-22.92-27.6q-26.1-.54-34.2,24.48a177.73,177.73,0,0,0-8.28,40.56c-1.32,15.24-2.52,30.6-3.6,46s-1.92,30.72-2.4,46.2l-.72,32-.36,32q0,16-1.08,32a109.61,109.61,0,0,0,6.12,44.28q9.54,27,34.44,13.56c14.76-8,24.12-19.92,28.08-35.88,1.08-4.56-.48-8-4.8-10.32-7.32,17.28-20,28.68-38.4,34.32l-9.84-3.6a565.06,565.06,0,0,1-7.44-125.16,73.85,73.85,0,0,1,31-5.16,13,13,0,0,0,0-11.16,11,11,0,0,0-1.56-2.88,33.85,33.85,0,0,0-28.92,6.12q-5.58-68.76,17.28-130a19.81,19.81,0,0,1,11-11.4c14.76-6.36,26.64-3.24,35.4,9.48Z" transform="translate(-64.56 -105.19)"/></svg>