<svg id="Layer_1" data-name="Layer 1" xmlns="http://www.w3.org/2000/svg" viewBox="0 0 440.65 380.14"><defs><style>.cls-1{fill-rule:evenodd;}</style></defs><path class="cls-1" d="M151.68,203.88a269.87,269.87,0,0,1,2.4,126.84Q139,399.84,81.36,441.6c-6.36,4.56-10.68,6.84-12.84,6.72V448a22.29,22.29,0,0,0-9.6,5.28c3.72-32.76,5.76-65.76,6.36-99,.84-43.08.84-86,0-129.12a613.19,613.19,0,0,1,2.28-64.8,226.34,226.34,0,0,0-1.32-53.4l20.88,3A24.47,24.47,0,0,1,96,113a94.51,94.51,0,0,1,35.88,38.88A247,247,0,0,1,151.68,203.88ZM59.28,96.36a21.48,21.48,0,0,0-.24,4.8l.24,1.68.12,1.44a531.24,531.24,0,0,1,1.32,70.56q-2.88,64.62-2.88,129,0,64.8-3.84,129.12a64.78,64.78,0,0,1-1.8,11.76c-2.16,8.52-1.44,15.72,2.28,21.72A7.47,7.47,0,0,0,58,472.68a77.43,77.43,0,0,0,29.16-15.24l20.28-17.76a143.5,143.5,0,0,0,25.44-31.08,243.22,243.22,0,0,0,35.52-121.8,302.92,302.92,0,0,0-12.6-95.28,319.52,319.52,0,0,0-25.56-62.16C115.92,102.84,93,90.72,61.68,92.76A4.27,4.27,0,0,0,59.28,96.36ZM208.56,156c-3,11.52-10.2,19.44-21.48,23.64a253.26,253.26,0,0,0-1.44-71.28l13.2,4.8Q214.86,132.06,208.56,156Zm-25-58.32-1.32.24c-.84,15.24-1,30.72-.6,46.32A338.09,338.09,0,0,1,180.36,187c-1.32,13.08-3,26.28-5,39.36a144.32,144.32,0,0,0,0,46.56c.6,3.72,1.32,7.56,2.16,11.28A443.86,443.86,0,0,0,186.12,195l10.08-4.92a560,560,0,0,0,17.88,85.2c1.56,5.28,3.84,9,7.08,11.16A667.7,667.7,0,0,0,201,185.52a59.19,59.19,0,0,0,16.2-37,78.48,78.48,0,0,0-.72-18.36A48.54,48.54,0,0,0,213,117.84a41,41,0,0,0-13-16.2A20.61,20.61,0,0,0,183.6,97.68Zm101.76-1.32A440.11,440.11,0,0,0,295.56,192q10.44,47.7,19.8,95.76l-64.68-2.52Q265.44,224,278.4,162.36A222.72,222.72,0,0,0,283,99a1.85,1.85,0,0,0-.84.36q-9.18,49.32-19,98.88c-5.64,29.4-12.24,58.44-19.56,87.36l-.84.48-.84.72-.24.84-.24.72-.24,2.52a12.09,12.09,0,0,0,.36,3l-7.68,28.92Q216.24,386.34,195,448.08l-.24-.36a23.2,23.2,0,0,0-3.72-7v.84a44.19,44.19,0,0,0,2.64,11.28,15.13,15.13,0,0,0,2.4,13.8l3.6-.72q17.46-49.68,31-101.28,8.82-33.48,17-67.32A198.79,198.79,0,0,0,318.24,303L321,317.4q11.7,62.82,18.72,126.24c1.08,10,4.44,17.16,10.08,21.72a5.38,5.38,0,0,0,1.2-4q-5.94-57.78-16.56-115.32-11.7-62.46-23.76-125L286.2,96.12C285.6,96,285.36,96,285.36,96.36Zm206.28,6.24A617.14,617.14,0,0,0,470,205L454.68,332.4l-13,111-7-35.88L412.44,290.76c0-4.92-.24-10-.6-15A285,285,0,0,0,398.76,322c-6.24,32.76-11.28,65.64-15.12,98.4-.6-4.44-1.2-8.88-2-13.32q-5.22-30.06-9.36-60.48Q363.6,283.38,350.4,220.8,337.26,158,325,95.52c-2,.72-2.88,2.4-2.52,4.92a864.68,864.68,0,0,0,16.44,103.32q13.86,62.46,23,125.76c6.12,41.4,11,83,15,124.8l.24.84,2.4,9.72a3.52,3.52,0,0,0,3,2.4,1.71,1.71,0,0,0,1.2-1c.6-5.28,1-10.68,1.2-16.08,6.12-27.24,11-54.72,14.88-82.68a224,224,0,0,1,5.76-28.08c1.44-5.16,2.64-10.44,3.6-15.72l3.84,23a935.56,935.56,0,0,0,28,125.64,9.1,9.1,0,0,0,4.2-5.88l.24-.48q9-54.36,15.12-109.44L474.84,229.2q3.6-31.86,10.2-63A297.53,297.53,0,0,0,491.64,102.6Z" transform="translate(-50.99 -92.54)"/></svg>