<svg id="Layer_1" data-name="Layer 1" xmlns="http://www.w3.org/2000/svg" viewBox="0 0 511.18 369.38"><defs><style>.cls-1{fill-rule:evenodd;}</style></defs><path class="cls-1" d="M139.32,169.44A310.46,310.46,0,0,1,167.4,272.28q7.2,71.82-38.4,124.8c-4.56,5.28-9,10.68-13.2,16.32q-20.7,27.36-52.2,35.88l3.12-78L71.88,243q2.7-61.74,1.08-122C103.56,124,125.76,140,139.32,169.44Zm-69.6-50.88a10.19,10.19,0,0,0-.6,2.88q-3.24,64.44-5.52,129.12t-5,129.12l-3.36,64q-.9,15.3,6.48,23.4l1.08-1.44c13.08.84,24.48-3.84,34.2-14.16q9.54-10.26,19.44-19.8a178.24,178.24,0,0,0,47.64-78,223.27,223.27,0,0,0,9.24-75,296.17,296.17,0,0,0-32.64-123.36q-19.08-37.08-59.4-45.12a16.29,16.29,0,0,0-6.36-.12,7.32,7.32,0,0,0-4.8,3.36l-.24.84a7.44,7.44,0,0,0-.24,3.24Zm318.36,116A183.51,183.51,0,0,0,369,172.8c-10.92-21-26.16-36.36-46-46.2l-.84-.48a108.74,108.74,0,0,0-54.84-7.56,22.07,22.07,0,0,0-6.24,2.76c-20.76,12.6-34.2,31.08-40.56,55.44a603.17,603.17,0,0,0-19,127.08,370.13,370.13,0,0,0,16.32,126,49.43,49.43,0,0,0,19.92,27.48q33.3,22.86,69.24,3.24,63.18-34.38,76.92-106.2A385.08,385.08,0,0,0,388.08,234.6Zm-21-36.36a293.34,293.34,0,0,1,16.8,117.24q-4,67.14-53,113.64-34.2,32.58-80.28,19.2a19.66,19.66,0,0,1-7.92-4.32c-15.24-13.8-24.36-31.56-27.6-53.28-2.76-19.2-5-38.4-6.6-57.72a368.75,368.75,0,0,1-.6-55.2,316,316,0,0,1,33.24-122.88,34.52,34.52,0,0,1,13.08-14.4c14.28-8.76,30.6-11.64,48.84-8.76a17.19,17.19,0,0,0,4.92,1.08,28.12,28.12,0,0,1,8,2.4.55.55,0,0,1,.36.6l-.36.84-.48.84,1.32-.12.6-.12,1.8-.12.6-.12.84-.12a185.19,185.19,0,0,1,38.76,45.24A93.91,93.91,0,0,1,367.08,198.24Zm167.4-26.52-2.76-15.36-6.12-30.72-.36-1.68q-21.42,49.14-26.64,107.4l-1.08,8-1.68,7.92c-1.68,7.8-3.6,15.6-5.64,23.4-2.76,10.32-5.4,20.64-7.68,31.08a38.36,38.36,0,0,0-1.08,7.44Q469,215.1,450.48,122l-1.92,5.64-1.56-5.4q-18.36,96.48-28.56,194.52l-2.16,15.84-2.64,15.84c-2.88,15.72-5.88,31.44-9,47l-10.2,46.56-2.88-10.68L395,468.12A999.47,999.47,0,0,0,431.88,280.2l1.8-15.84,2-15.84c2.64-21,4.92-42.24,6.84-63.48a258,258,0,0,1,5.88-35.52l.72-4.08q8.1,97.92,33,183.12l-.24-12.12,2.64,8.28q22.86-92,40.68-185L559,461.28a22.91,22.91,0,0,0,.72,4l1.2,3.84a39.65,39.65,0,0,0,5,10.08l.36-.36q-9.9-146-29.4-291.6Z" transform="translate(-55.1 -109.78)"/></svg>