<svg id="Layer_1" data-name="Layer 1" xmlns="http://www.w3.org/2000/svg" viewBox="0 0 434.63 333.61"><defs><style>.cls-1{fill-rule:evenodd;}</style></defs><path class="cls-1" d="M123.84,137.4a50.77,50.77,0,0,1,19,7.32c22.68,14.28,37.8,34.56,45.48,61.08q18.18,63.18,2.64,126.72a104.1,104.1,0,0,1-8.52,22.56Q156.48,405.3,104.16,430a16.47,16.47,0,0,1-5.52-1.68,2.09,2.09,0,0,1-1.2-1.56,8.93,8.93,0,0,1,1.92-3.24L98.16,422a23.67,23.67,0,0,0-4.08,3.6q.54-57.06,4.08-113.64l8-128.16a349.27,349.27,0,0,0-.36-50.16ZM104.4,119.88v-.24l-.12.24-.72.48a8,8,0,0,0-2.76,6.24,17.9,17.9,0,0,0,.24,2.52,101.37,101.37,0,0,0-3.48,25.68Q96.12,218.88,91.92,283c-2.76,42.6-4.56,85.32-5.64,128.28a87.79,87.79,0,0,1-1.68,16c-2.16,10.44,0,18.36,6.36,23.52l.84-1.32a24.7,24.7,0,0,0,12.6.84,224.85,224.85,0,0,0,62.4-45.84,73.33,73.33,0,0,0,12.72-17.64,238.51,238.51,0,0,0,26.16-123.6A223.17,223.17,0,0,0,172.56,156.6q-22.5-36.72-67.68-37Zm126.6,24q-4.5,58.68-8.52,117.72a1237.25,1237.25,0,0,0-2,128.28q1.62,45.9,45.72,52,33.12-14.58,44-49A545.82,545.82,0,0,0,334.32,266,1056,1056,0,0,0,336,147.48l.72-.36A8.43,8.43,0,0,1,336,143a24.36,24.36,0,0,0-4.32-13.68,1.81,1.81,0,0,0-2.16,1.2,33.52,33.52,0,0,0-2.4,16.92l.6.72.72,1c1.32,27,1.44,54.12.6,81.12A633.2,633.2,0,0,1,311.88,358.8c-4.92,20.28-14,37.92-27.36,52.68-7.2,8-15.72,11.28-25.44,9.48-21.48-3.84-32.16-17.16-32.28-40q-.36-46.26,2.16-93.24,3.24-64.26,9.72-128.16c1.08-11.16,0-20.88-3.36-29.4A29.64,29.64,0,0,0,231,143.88Zm280.44-12.12a132.3,132.3,0,0,0-42.6,3.6l-1.8.48L466,139.08a14.69,14.69,0,0,0,1,8.16,366.52,366.52,0,0,0-4.08,48.36q-1.08,64.08-8.28,127.44a1067.08,1067.08,0,0,0-6.72,128.28,3.47,3.47,0,0,0,3.48,1.92A21.49,21.49,0,0,0,456.6,438c-.12-15.6.24-31.2,1.08-46.92q3.24-63.18,9.48-126l32.28-1.2.72-.72q5.58-9.54-1.8-16.92a138.92,138.92,0,0,0-29.88,5A721.65,721.65,0,0,0,469.8,148.2c11.52.48,23.64.48,36.48.12l.24.24.48.48,1.08.84a12.16,12.16,0,0,0,8.4.6,9.62,9.62,0,0,0,1.44-3.24,18.63,18.63,0,0,0-.6-10.56l-.6-.72A57.84,57.84,0,0,0,511.44,131.76Zm-140,15.36A2166.27,2166.27,0,0,1,360,413.4l-1.8-4-.72,1.44a55.38,55.38,0,0,0,5.64,32A1242.89,1242.89,0,0,0,377.76,262.2l34.8,3,1.08-17.88-35,2.88a644.91,644.91,0,0,0-2.28-102.12l63.84,3.6q4.5-5.76,1.44-13l-1.2-2.4-69.24-3.48c-3,3.24-3.6,7.2-1.68,11.64A7.81,7.81,0,0,0,371.4,147.12Z" transform="translate(-83.79 -119.64)"/></svg>