<svg id="Layer_1" data-name="Layer 1" xmlns="http://www.w3.org/2000/svg" viewBox="0 0 441.73 341.64"><defs><style>.cls-1{fill-rule:evenodd;}</style></defs><path class="cls-1" d="M156.72,195.48a494.93,494.93,0,0,1,6.24,64.2c1.08,35.4-6.72,68.52-23.64,99.12q-26.46,40-73.92,44.88l.48-7.56q2-64.44,5.4-128.28c2-37.44,5.16-74.76,9.12-111.84a270.67,270.67,0,0,0,.84-50.16q19.26-5.4,34.2,9.36C137.88,137.16,151.56,163.92,156.72,195.48ZM79.56,91.68l-.6.12-.6,4.08-.12.12a13.4,13.4,0,0,0-.72,5.16c-3.24,21.6-5.52,43.68-7.08,66.12l-6.12,87.48q-4.68,63.72-5.88,128.4c-.12,7-.72,11-1.56,12.12-1.56.72-2.52,3.12-3.12,7.32-1.56,11.4.36,20.4,5.76,26.76l2.64-8,1.2,1.08A67.22,67.22,0,0,0,105,412.08q50.4-31.5,60.6-91.56a367.66,367.66,0,0,0,5-61A330.62,330.62,0,0,0,146,134.28Q130.38,95.58,90.6,87.72c-4.92.12-8.52,1.8-10.8,5.28Zm125.52,16.8Q227.4,123.6,216,148.92q-6.48,14.22-22,16.2l1.32-56.52ZM193.68,95l-.36,3.24a9,9,0,0,0-1.2,4l.12,2.52q-6.12,44.82-8.4,90.84a283.43,283.43,0,0,1-3.6,32.16c-2.16,12.36-.72,23,4.2,32a9.65,9.65,0,0,0,3-6.48q2.34-36.18,5.28-72.12a41.43,41.43,0,0,0,13.8-2.64,69.13,69.13,0,0,0,4.2,26.88A208.33,208.33,0,0,1,220.44,243c1.56,9.36,4.56,17.16,9,23.52,4-15.84,2.64-32.16-3.84-49.08-5.4-14-10.44-27.84-15.24-41.52a58,58,0,0,0,12.24-18.84c10.2-25.32,4.68-45.84-16.44-61.8l-11.76,2L194.28,95ZM487.2,344.64a25.6,25.6,0,0,0-1.68-6.12l2.28.6ZM352.8,96.84a3.46,3.46,0,0,0-2.4,3.24q-.9,38.7.72,78a962,962,0,0,1-3.12,129,174.11,174.11,0,0,1-25.44,76.32c-10.92,17.76-27.12,24.48-48.36,20.16C262.32,401,255.84,393.84,255,382a963.43,963.43,0,0,1-1-129c.72-10.68,1.56-21.48,2.64-32.28A891.5,891.5,0,0,0,260,93.12c-5.16,37.08-8.88,75.24-10.92,114.48-2.28,42.84-4.2,85.92-5.76,129A199.81,199.81,0,0,0,251,399.36q9,31.32,43.56,24c14.4-3,25.08-10.92,32.16-23.64A263.5,263.5,0,0,0,360.12,273c.6-42.84.72-85.68.36-128.28A150.53,150.53,0,0,0,352.8,96.84Zm96.36,1.92q-63.18,36.9-66.6,112.56-2.7,58.86-1.2,117.72a362.62,362.62,0,0,0,6.36,59.16A38.68,38.68,0,0,0,394,402.84a50.21,50.21,0,0,0,9.12,10.32l5.64,4.2,3.24,2,3.36,1.8a21.31,21.31,0,0,0,14.16,1.68c19.08-4.32,33.6-16,43.32-34.92a273.94,273.94,0,0,0,13-29.88l-3.6,71,.6-1.8,2.52,1.8c10-33.72,12.24-69.36,6.84-107.16a114.75,114.75,0,0,0-41,.84c-2.76,5.64-2,10.56,2.4,14.64L479,337.2l-.72,3.72-2.52,1.68Q469.68,379.86,437,401a18.53,18.53,0,0,1-16.08,2.4,29.85,29.85,0,0,1-15.72-10.08,48.86,48.86,0,0,1-10.32-21.24,256.18,256.18,0,0,1-4.92-30c-.36-4.56-.6-9-.72-13.2l.12-9.12c.48-20,.84-40.08,1-60.12A327.21,327.21,0,0,1,402.12,174q11.34-41.4,51.24-55.56c5.64-2,10.2-.24,13.68,5.28A45.61,45.61,0,0,1,474,141q11-24.48-13.2-38.4A31.71,31.71,0,0,0,449.16,98.76Z" transform="translate(-53.24 -87.72)"/></svg>