<svg id="Layer_1" data-name="Layer 1" xmlns="http://www.w3.org/2000/svg" viewBox="0 0 420.78 363.3"><defs><style>.cls-1{fill-rule:evenodd;}</style></defs><path class="cls-1" d="M145.68,205a374.81,374.81,0,0,1,7.68,45,367.65,367.65,0,0,1,2.16,39.84c0,13.32-.6,26.76-1.8,40.2a165.64,165.64,0,0,1-10.2,44.52A141,141,0,0,1,122.28,412c-10.2,13.08-22.8,22-37.56,26.64A61.34,61.34,0,0,1,67.2,449.28,27.72,27.72,0,0,1,52,451.08L50,448.92l6.6-327.6c16-1.68,30.48,1.44,43.32,9.48a84,84,0,0,1,30.84,33.84A178.85,178.85,0,0,1,145.68,205ZM69.24,107.88l-13.44,1.8-.48-1.44a163.19,163.19,0,0,0-7.8,49.32c-.36,45-1.2,90-2.28,135l-1,32.28-1.2,32.28L41.52,389.4l-1.68,32.16-.24,7.92v7.68l.12,7.68a64.63,64.63,0,0,1-.72,9.6c-1,5.76.24,10.8,3.72,15Q70.26,475,93.84,456.12a121.91,121.91,0,0,1,16.56-11.28l3-2.4,2.76-2.88,2.64-3,2.64-3,2.52-3.12,2.4-3.12,2.28-3.12,6.48-9.72a161.75,161.75,0,0,0,24.36-68.28,439.29,439.29,0,0,0,1.44-92.28,327.11,327.11,0,0,0-16.32-76.68A152.74,152.74,0,0,0,111,121a41,41,0,0,0-24.6-12.84A63.36,63.36,0,0,0,69.24,107.88ZM348.48,128.4A165.36,165.36,0,0,0,345.24,160l-1.68,125.76q-1.08,65.16-8.28,129a157.48,157.48,0,0,0,.48,40.56l.24,1.56,1.08,5.88,1.32-2.28a5.75,5.75,0,0,0,2,.6A503,503,0,0,0,441,460.56l.24.24a2.9,2.9,0,0,0,3,1.32l1-1c3.72-6.84,3.36-13.2-1-19.32l-1.08-.24a5.79,5.79,0,0,1-3.48-.84,563.58,563.58,0,0,1-96.36,6.12,58.77,58.77,0,0,0,.84-19.08,23.2,23.2,0,0,1,6.72,3.24,61.53,61.53,0,0,0-7.32-6.48c1.68-23.88,2.88-47.64,3.72-71.52,1.08-32.28,2.4-64.32,4.2-96.36a863,863,0,0,0-2.4-128.4Zm-150.6,2.4c-3.24,40.92-6,82.08-8,123.48l-7.08,128.28a156.77,156.77,0,0,0,8.88,62.16c7.32,20.4,22.2,27.12,44.4,20.16q40.86-12.78,55.2-54.12a374.67,374.67,0,0,0,20.52-128.28c-.6-42.84-1-85.68-.84-128.28,0-12.12-2.4-22.68-7.32-31.56A75.43,75.43,0,0,0,295,144.48a11.1,11.1,0,0,0,5-4.32l1,14.64c1.56,43,2.64,86,3.48,129.12A294.91,294.91,0,0,1,279.6,408.48c-10,22.68-26.64,35.76-50.28,39.36q-32.76,5-37.44-27A222.38,222.38,0,0,1,190,374.4q3.78-64.26,7.92-128.16,4.32-64.62,5-127.44C199.92,121.56,198.24,125.52,197.88,130.8Zm192,66.36L388.56,226l-1.08,28.92-1.32,32.4-1.8,32.28q-.9,16-2.88,32a293.93,293.93,0,0,0-1.8,46,91,91,0,0,0,2.4,17.16,570.65,570.65,0,0,0,75-5.52A17.07,17.07,0,0,0,458.16,394a6.67,6.67,0,0,0-1.08-2l-.84-.84-67.56,9,9-267.24c-8.76,8.64-11.88,20.64-9.36,36.12A122.56,122.56,0,0,1,389.88,197.16Z" transform="translate(-38.68 -107.41)"/></svg>