<svg id="Layer_1" data-name="Layer 1" xmlns="http://www.w3.org/2000/svg" viewBox="0 0 444.6 309"><defs><style>.cls-1{fill-rule:evenodd;}</style></defs><path class="cls-1" d="M147.72,126.12q32.22,23.22,43.56,60.84a262.36,262.36,0,0,1,10.8,94.8,133.5,133.5,0,0,1-18.84,61,56.37,56.37,0,0,1-21.48,21,162.29,162.29,0,0,1-71.88,20.16,14.57,14.57,0,0,0-4.32-1.2c4-26.76,7-54,8.88-81.48,3-42.6,5.4-85.32,7-128.28A425.55,425.55,0,0,0,99.84,116,101.89,101.89,0,0,1,147.72,126.12ZM99.6,108.84l-.48.84-.12-.84h-.6a156.83,156.83,0,0,0-4,34.08q-.72,63.72-5.4,127.2c-3.24,43.08-6.6,85.8-10.08,128.4a3,3,0,0,0,3.84,1.68l1.2-7.08a18.16,18.16,0,0,0,5.28,1.68L91,395a46,46,0,0,1,10.8-1.56c26.76-.84,50.16-9.48,70-25.92a62.32,62.32,0,0,0,17-22.32A206.2,206.2,0,0,0,207.48,260a228.38,228.38,0,0,0-18.6-93.84c-15.12-35.4-41.64-55.08-79.56-59.28-2.28,1.2-5.4,1.68-9.24,1.56Zm176.88,37.68q6.66,32.76,10.56,65.88L292,248.88c-13.56,3-27.36,5.4-41.16,7.32l.36-1.08a906.78,906.78,0,0,0,25.08-124.68q-9.9,32.76-18.72,68-15.84,62.28-31.2,124.32c-2.64,10.44-5.64,20.76-9.12,31a133.82,133.82,0,0,0-7.56,47.76c.84,0,1.44-.12,1.56-.48a431,431,0,0,0,16.2-53q9.72-41.58,21-82.92a150.14,150.14,0,0,0,45.24-4.92c4,26.28,8.64,52.32,14,78.36a225,225,0,0,1,4.08,32c.72,12.12,3.84,22.32,9.36,30.36a40.35,40.35,0,0,0,1.2-23.88,1140.87,1140.87,0,0,1-21.84-119l2.76-1,.36-.72a9.65,9.65,0,0,0-1.08-9.84l-3.48.84q-7.92-61.38-20.64-121.44C275.64,132,274.92,138.84,276.48,146.52Zm169-18q-8.82,63.9-13.8,128.4c-3.24,42.6-7.92,85-13.8,127.08-1.32,9.72,0,17.88,4.2,24.24l1-6.48.24,1.08.24.84a5.74,5.74,0,0,0,5,2A545.26,545.26,0,0,1,521.4,405a9.35,9.35,0,0,0,2.16-5.64v-1.68a17.31,17.31,0,0,0-1.08-4.8l-.6-.84-.72-.36L457.8,389A44.54,44.54,0,0,0,447,391l-2.16.6A70.92,70.92,0,0,1,424.2,394l-.12.24c3-22.2,5.16-44.76,6.72-67.68,1.8-26.52,4.2-53,7.2-79.32,4.8-42.6,8.28-85.2,10.32-127.56A28.61,28.61,0,0,0,445.44,128.52Zm-48,61.68c-.36,19.56-1.2,39.12-2.28,58.68l-.12-.24a1.93,1.93,0,0,0-.84-.48l-15.36-2.4-21.48,5.88v-.36a1206.93,1206.93,0,0,0,1.08-128.4c-1.92,14.16-3.24,29.16-4.08,44.88q-2,43-2.76,86l-.36,1.68a7.44,7.44,0,0,0,.24,3.24l.12.24-.12,5.4a1260.08,1260.08,0,0,1-7.92,128c-1.08,9.84.48,17.64,4.68,23.52A884.6,884.6,0,0,0,355,316.08c.24-18.84.84-37.68,1.92-56.52a153.11,153.11,0,0,1,37.68-1.08l-2,27.36q-5.4,63.72-6.12,127.56c.48,2,1.68,2.52,3.48,1.68,1.8-10.92,3.12-22,4-33.24q4.68-63.9,7-128.28c1.56-43.32,3.6-85.8,6.36-127.44A230.94,230.94,0,0,0,397.44,190.2Z" transform="translate(-78.96 -106.92)"/></svg>