<svg id="Layer_1" data-name="Layer 1" xmlns="http://www.w3.org/2000/svg" viewBox="0 0 465.24 457.7"><defs><style>.cls-1{fill-rule:evenodd;}</style></defs><path class="cls-1" d="M91.44,95.28a28.43,28.43,0,0,1,16.92,13.08A301.11,301.11,0,0,1,150.72,233a492.55,492.55,0,0,1-2.4,128.16L143.64,394q-8.28,58.86-48.36,100.32A159.53,159.53,0,0,1,49.2,506.4a162.88,162.88,0,0,0,2.16-24.48q1.26-64.26,4.08-128.28l5.76-129q2.7-63.36,6.48-126.72c.36-.12.48-.36.6-.72a20.09,20.09,0,0,0,1.08-7.32A57,57,0,0,1,89.88,93.6l.24.24.48.6Zm24.36,6.48c-10.44-13.44-24.24-21-41.16-22.8A13.07,13.07,0,0,0,68.76,80L66,81.72l-.48-.48h-.6q-5.58,44.64-8.52,90.48c-2.76,42.6-4.56,85.32-5.64,128.4s-2.88,85.92-5.4,129C44,450.48,42.6,471.84,40.8,493.2A71.05,71.05,0,0,0,42,515.52l.12,1a7.55,7.55,0,0,0,1.56,4.32l1.2,3.36.6-1.92q67.86-.54,88.32-64.68a577,577,0,0,0,25.32-126.84,467.88,467.88,0,0,0-7-127.56A348.45,348.45,0,0,0,116.28,102.6ZM251,136.32c5.28,42.12,10.2,84.24,14.64,126.6l8.16,74.76-2.16-.24a231.68,231.68,0,0,0-61.2,10.2l20.4-107.4L250.8,134.16Zm3.24-52.92c-.6,1.44-1.2,3-1.8,4.8l-.36-1.32-1.2,7.92-.12.84q-11,62.46-22.68,125-11.7,62.82-24.48,125.4-12.78,62.82-26.16,125.76a150.14,150.14,0,0,1-6.6,22.8c-4.32,11.52-4.32,22.2.12,31.92a141.26,141.26,0,0,0,11.64-35.88Q194.52,428,206.88,365.4l1.2-5.88q33.3-5.76,67.08-9.48l4.68,39.48q7.74,63.72,18.6,126.48l-.36-.36a4.79,4.79,0,0,0-3.12-2.88,128.35,128.35,0,0,1,8.28,22.68,1.92,1.92,0,0,0,2.52-1.68,83.35,83.35,0,0,0-.48-34.44Q291.78,436.86,284,373.2c-5.16-42.24-10-84.48-14.64-126.72-2.4-21.36-5.16-42.72-8.16-64a522,522,0,0,1-4.92-64.32c0-4.44-.24-8.76-.6-13A71.53,71.53,0,0,0,254.28,83.4ZM189.12,93.6q23.22,31.5-3,62.28l-8.16-.24c.6-20.76.84-41.28.84-61.68Zm-12.72-.12c-3.48,40.92-7,82-10.2,123.12-.72,9.72.72,17.52,4.44,23.4l.84-1.68a101.46,101.46,0,0,0,4.08-24.12l2-46.44a9,9,0,0,0,8.16.6L199.32,240a4,4,0,0,0,3.6,2.4l.36-.72a255.49,255.49,0,0,0-14.4-75.36,42.27,42.27,0,0,0,13.44-20.64q10.8-35.82-12.72-61.56A25.94,25.94,0,0,0,176.4,86a5.75,5.75,0,0,0-.84,2.4,11.37,11.37,0,0,0,.6,4.92ZM468.72,397.92l21.84,138.72c2.52-3.84,3.6-9,3-15.48l1.8,7.68a1204.77,1204.77,0,0,0,9.48-134.64l.84-31.56A140.07,140.07,0,0,0,498,400.32l-3.24,38.76c-1.44,15.72-2.28,31.32-2.64,46.8l-.12,6.6L468.84,361.8c-6.36,20.52-9.36,43.08-9.24,67.8.12,21.36-.12,42.72-.72,64.2l-.6,32.76.24.6c4.44-2.52,6.84-7.44,7.08-15l.48-12.24c1-26.28,1.68-52.56,2.28-79.08ZM359,94.32c-5.4,34-10.44,68.28-14.88,103q-8.28,63.54-17.76,126.84-5.76,39.24-14,78.12A281.46,281.46,0,0,0,306,466q1.26,0,1.44-.36a466.45,466.45,0,0,0,13.32-63l17.76-126.72q8.82-63.18,18.6-126.48l.72-4.92q0,38.16,2.4,76.56c2.76,42.6,4.08,85.44,4.08,128.28,0,12.12,2.16,22.68,6.36,31.68a3.41,3.41,0,0,0,1.44-2.52c.48-3.72.84-7.44,1.2-11.16a87.27,87.27,0,0,0,5.4-21.72q7.74-63.54,14.76-127.44,5.22-48.42,13.68-96.36c0,3.48.12,7.2.48,10.92q4.68,63.72,7.92,127.44,3.24,64.08,11.4,127.32,5,39.78,8,79.68a397,397,0,0,0,9.84,63.72,2.06,2.06,0,0,0,1-1.44,243.93,243.93,0,0,0-.6-55.32q-7.92-63.54-15-127.32c-4.68-42.6-8.16-85.32-10.68-128.16q-3.42-59.76-8.28-118.8l1.32-7.56-.24-.84-.84-1.56A5.17,5.17,0,0,0,407.64,94a360.2,360.2,0,0,0-8.76,37.8q-11,63.36-17,127.68c-2,21.12-4.92,42.12-8.88,63l-.6,3-6-108.48c-2.52-43.32-4-86-4.56-128.16l-.72.24L361,86l-.6.12-.72,4.44a4.11,4.11,0,0,0-.48,2.16Z" transform="translate(-40.44 -78.94)"/></svg>