<svg id="Layer_1" data-name="Layer 1" xmlns="http://www.w3.org/2000/svg" viewBox="0 0 392.32 340.56"><defs><style>.cls-1{fill-rule:evenodd;}</style></defs><path class="cls-1" d="M295.44,269.52,309,164.16l12.72,105.6ZM157.2,196.08c2.64,14.76,4.56,29.64,5.88,44.64q5.58,68.58-32.16,125l-10.68,16.56c-10,16.2-23,28.08-39.48,35.64a630.41,630.41,0,0,0,5.16-65.88q1.8-64.26,5.64-128.28c2.28-39.48,3.12-78.48,2.28-117a57.84,57.84,0,0,1,31,19.68A149.55,149.55,0,0,1,157.2,196.08ZM89.64,102.24a22.11,22.11,0,0,0-1.32,7.8q-2.16,64.08-5.52,128.28c-2.16,42.6-4,85.44-5.4,128.28a219.7,219.7,0,0,1-3.48,32.16c-2.16,11.88-1.2,22.8,2.88,32.52a3.26,3.26,0,0,0,2.28-2,7.46,7.46,0,0,0,2.64,4.2,10,10,0,0,0,7.8-2.16,218.79,218.79,0,0,0,40.92-43.2q38.34-53.1,39.48-119.4A310.43,310.43,0,0,0,146.76,143.4q-15.48-37.8-53.64-47.28a2.5,2.5,0,0,0-2,1.2A6.44,6.44,0,0,0,89.64,102Zm223.44,4.92L312,109.08v-2.16l-1.2,4.8a79.46,79.46,0,0,0-6.24,22.92l-14.4,125.88q-7,63.72-20,126.6a88.19,88.19,0,0,1-4.8,15.72c-5,11.88-5.28,22.44-.72,31.44A23.3,23.3,0,0,0,270.84,423a1032.8,1032.8,0,0,0,21.48-125.88l2-17.52A124.23,124.23,0,0,0,323.52,283l.36,2.88q8.46,63.54,12.72,127.44.9,14.94,9.72,22.32a3,3,0,0,0,1.08-2.4c-1.8-24.12-4.08-48.48-6.6-73.08q-4-39.42-9.36-78.48a11.71,11.71,0,0,0,1.32-6.72l-.24-1.56-.12-1a5.46,5.46,0,0,0-1-2.28.91.91,0,0,0-.84-.48h-.84l-5.52-36.12a981.32,981.32,0,0,1-11.64-110.4Zm-105.36,4.92a77.11,77.11,0,0,1,28.92,36.6,69.68,69.68,0,0,1,3.6,37.68,81.09,81.09,0,0,1-17.76,38.16A163.27,163.27,0,0,1,191,254l5-141.12Zm-12.6-10.56-.48,2.28a3.91,3.91,0,0,0-1,2.28,11.56,11.56,0,0,0,0,2.88,308.77,308.77,0,0,0-5,45.24q-2.52,64.26-5.88,128.28a1241.1,1241.1,0,0,1-13.44,127.2c-2.88,9.48-2,17.28,2.4,23.28a4.14,4.14,0,0,0,1.68-2.52,585.91,585.91,0,0,0,10.68-73.68q3.78-47,6.48-94a18.08,18.08,0,0,0,1.56,4,137,137,0,0,0,15.24-9.6q8.64,57.06,22.92,113.4a322.67,322.67,0,0,1,6.6,32,85.43,85.43,0,0,0,10.44,30.6l.72-1c2.64-7.56,2.64-13.8,0-18.84a58,58,0,0,0-1.44-11l-8.16-34.44c-9.24-37.68-18.84-75.24-28.56-112.8q33.3-26.82,35.76-73.92,2.7-50.94-37.56-80.52l-7.92-.24-.72.6a18.11,18.11,0,0,1-3.36,1.8v-1.92C195.48,100.8,195.24,100.92,195.12,101.52Zm233.76,46-.6,32.28-.84,32L426.12,244l-1.8,31.8-2.4,32.16-2.64,32c-.84,10.68-2,21.24-3.36,31.92a404.57,404.57,0,0,0-2.88,45c-.12,7.8,1.44,13.92,4.44,18.6a598.59,598.59,0,0,0,7.32-63.72l2-36.24,2.88-54.24,1.56-26.88,22.32-5.28a16.71,16.71,0,0,0,1.68-6.12,10.57,10.57,0,0,0-.72-5.4l-1.68-3.48-21.12,8.64,3.6-127.68a68.26,68.26,0,0,0,25.92,4.08l3.84-.36L465,108.72l-30.84-3.24-1,5.52A185.89,185.89,0,0,0,428.88,147.48ZM372.6,103.92a58.18,58.18,0,0,0-4,19.44c-1.8,42.6-3,85.32-3.84,128.28s-2.28,86.16-4.8,129.12c-.48,8-1.32,16.08-2.4,24.12-1.8,12.12-.6,22.8,3.36,31.8a468.77,468.77,0,0,0,8.16-75.48c1.08-38.52,1.92-77,2.76-115.68a60,60,0,0,0,26.88,3.12,7.94,7.94,0,0,0,1.44-4,23.26,23.26,0,0,0-.36-5.76,9.7,9.7,0,0,0-1.32-3.24l-.84-.36L375,234.6h-2.88v-2.4c.84-38.52,1-76.68.6-114.24a187,187,0,0,1,33.72,1.32,10.36,10.36,0,0,0,2.28-7,13.75,13.75,0,0,0-1.56-5.76,1.93,1.93,0,0,0-.84-.48l-9.72-2.16a179,179,0,0,0-24,2.64Z" transform="translate(-72.8 -96.12)"/></svg>