<svg id="Layer_1" data-name="Layer 1" xmlns="http://www.w3.org/2000/svg" viewBox="0 0 417.63 323.88"><defs><style>.cls-1{fill-rule:evenodd;}</style></defs><path class="cls-1" d="M82.8,119c14,2.28,26.4,9.48,37.32,21.84a127.66,127.66,0,0,1,24,40c5,13.44,9.48,27.24,13.32,41.28a344.92,344.92,0,0,1,8.76,43,203.49,203.49,0,0,1,1.08,43.56,168.31,168.31,0,0,1-9.36,42.24,63.42,63.42,0,0,1-28.44,34A123.48,123.48,0,0,1,88.8,399.48a216.11,216.11,0,0,1-23.28,2.76Q74.16,307.74,75.84,213A874.45,874.45,0,0,1,82.8,119Zm-3.24-13.8-1.92,2.28-.84,1.08v.24a18.13,18.13,0,0,0-2,7.08c-2.76,27-4.2,54.48-4.32,82.2q-.18,64.44-5.64,128.28l-5.4,64.68c-1.08,12.24.24,22.8,4,31.8a5.85,5.85,0,0,0,.72-1.56l.36-4.32q41.58,4.14,73.08-20a46,46,0,0,0,10.56-11q30.42-44.46,25.56-99.72a413.87,413.87,0,0,0-30.12-124Q125,118.14,81.6,107.16l-.12-.24-.72-.72Zm188.28,108.6q1.8,31.14,5.4,61.92l-14.64-1.32a60.66,60.66,0,0,0-25.2,1.2l22.92-106.92c2.16-10.2,4.8-20.4,7.8-30.48Q265.74,176.22,267.84,213.84ZM264,114.24a1371.21,1371.21,0,0,0-36.48,154.2l-2.16,10.08-2.16,1,.24,6.6a1291.61,1291.61,0,0,0-27,135l2,1.8a1212,1212,0,0,0,32.64-136.8l43.32.72a775.87,775.87,0,0,1,11.76,99.84l.72,6.12.48,3.12.6,2.88a93.55,93.55,0,0,0,3.6,11.64,74.18,74.18,0,0,0,4.92,10.92c4.56-6.24,5.16-13.44,1.8-21.48a87.76,87.76,0,0,1-5.16-17.64c-.6-3-1.08-6.12-1.44-9.12L288,341.4q-7-63.54-12.48-127.2-4.14-47.7-9-95.4Zm-63,31.08c-3.36,14.64-10.92,24.6-22.56,29.76.84-15.6,1.32-31.2,1.44-46.68C194.16,125,201.24,130.68,201,145.32Zm-12.72-27.84-13.56,4.08.36,8.16-2.64,47.52-2.28.6a11,11,0,0,0-.36,10.2l.6,1.08a128.18,128.18,0,0,0,1.44,59.64l5.88-62.28,11.64-7.32A191.37,191.37,0,0,0,210.72,259q4-41.4-20.16-80.88c12.36-12.84,16.68-28,12.72-45.6C201.48,124.44,196.44,119.4,188.28,117.48ZM360.6,283.92q-15.3,20.34-19.44,47.88l-9-53A319.88,319.88,0,0,0,318,333.84q-5.94,34.92-10.08,70.2a36.7,36.7,0,0,0,2.16,18.36,474.69,474.69,0,0,0,17.64-101.28c.6-9.24,1.56-18.36,2.76-27.6a231.46,231.46,0,0,0,8,56,34.76,34.76,0,0,1,1.2,9.48l1-1.92,1.2,1.92L359,293.28A937.45,937.45,0,0,0,371.76,419.4l.6.72,2.52-1.08L360.6,289.32Zm49.08-166.8L403,119.28l-.6.6-.24.84-.36,2.52a12.79,12.79,0,0,0-1.68,6.36q-1.8,37.26-3,74.64-2,64.08-4.92,128.28c-1.08,21.48-2.16,43.08-3.48,64.8-.72,12.24.84,22.8,4.68,31.8a4.47,4.47,0,0,0,1.8-3.24A355.51,355.51,0,0,0,399,376.32c.6-42.72,1.56-85.44,3.12-128.28q2.16-60.66,2.88-121c15.24-.6,28.32,5.16,39,17q41.22,45.9,20.88,106A33.43,33.43,0,0,1,456,264c-14.76,13.8-32,20.16-52.08,19.08a16.81,16.81,0,0,0-1.2,6.48,16.41,16.41,0,0,0,1.08,4.8l.48.84c14.16,4,27.84,1.92,40.92-5.88A32.17,32.17,0,0,0,456,278.88q34-53.64,12.12-115.2-14.76-41.58-58-46.8Z" transform="translate(-59.04 -105.24)"/></svg>