<svg id="Layer_1" data-name="Layer 1" xmlns="http://www.w3.org/2000/svg" viewBox="0 0 282.61 208.82"><defs><style>.cls-1{fill-rule:evenodd;}</style></defs><path class="cls-1" d="M289.92,309.72a114.89,114.89,0,0,0-5.16,26.76,183.52,183.52,0,0,0,5.76,64.2,12.53,12.53,0,0,0,8.76,2.16C314.16,396.72,322,386.52,322.8,372c-8.76,10.08-19,15-30.36,14.88l-.12-.84c-1.08-26.64-1.32-52.68-1-78.12A2.75,2.75,0,0,0,289.92,309.72Zm2.28-40.8c-.36.12-.72.24-.84.48-4.2,4.92-5.52,10.92-3.72,17.76,1.56,1.56,3,1.56,4.56,0l.36-.84C296.64,279.84,296.52,274.08,292.2,268.92ZM162.36,327.6q1.26-57.78-1.92-114.48c16.44-3.72,30.36.48,41.64,12.6a104,104,0,0,1,27.36,58.44q8.46,63.72-47.64,93.6l-5.4,1.44a62.67,62.67,0,0,1-17.64,1.44C160.68,363.24,161.88,345.48,162.36,327.6ZM165,199.68a26.59,26.59,0,0,0-5.16,2.76l-.24-3c-3,3.12-4.44,7.56-4.32,13.2q2.34,64.26-.24,128.28a283.35,283.35,0,0,1-3,32.16,67.44,67.44,0,0,0-.72,6.72l-.84-.24a13.12,13.12,0,0,0-2.52,7.32,14.39,14.39,0,0,0,2.4,8L152,396.6l.6.24a37.13,37.13,0,0,0,3,7.92l1.08-7.08a46,46,0,0,0,29.4-4.32,69.08,69.08,0,0,0,32.64-31.92q30.42-60.48,4-123.12-16-38-57.12-38.88ZM394.08,303.84q30.78,19.26,30.72,57.6a20.64,20.64,0,0,1-5.64,10c-18.6,18.12-40,21.6-64.08,10.68a436.42,436.42,0,0,0,4.08-58v-19.8a33,33,0,0,0,23.76-5A41.23,41.23,0,0,1,394.08,303.84Zm-34.2-13.44h-.6l.24-84.84c10.68-.24,19.8,2.88,27.36,9.48,20.16,17.4,22.44,37,6.84,58.92-8.88,12.36-19.92,18-33.12,16.68Zm-.36-91.8V196c-1.08-.12-1.56.48-1.68,1.56-3.24,35.16-4.8,70.92-4.92,107.16a553.57,553.57,0,0,1-3.72,64.68q-2,17.64,2.52,32.4l.84-4.68c17.16,8.76,34.44,9.36,51.72,1.56,10.2-4.68,17.4-12,21.48-22a63.13,63.13,0,0,0,4-34.68q-5.76-36.36-37.08-51.36l1.56-1.92c19.2-24.12,20.28-49.08,3.24-74.64l-1-1A58.56,58.56,0,0,0,372.24,197,30.25,30.25,0,0,0,359.52,198.6Z" transform="translate(-147.96 -195.94)"/></svg>