<svg id="Layer_1" data-name="Layer 1" xmlns="http://www.w3.org/2000/svg" viewBox="0 0 414.82 518.9"><defs><style>.cls-1{fill-rule:evenodd;}</style></defs><path class="cls-1" d="M323.28,548.16l-31.92-.24-1.92-1.68-7.8-2.64a937.48,937.48,0,0,0,1.08-121.8,850.46,850.46,0,0,0-5.16,134.76q23.22,7,45.36,0Zm-21.36-31.08,1.32-95c-2.52,2.16-3.84,5.28-4.2,9.48a687.42,687.42,0,0,0,.24,100.68,77.33,77.33,0,0,1,31.92.24l.36-.72a12.72,12.72,0,0,0-.12-9.84,107.63,107.63,0,0,0-29.52-4Zm-20.4-149.52c-3.72,14.52-4.92,28.32-3.36,41.52l.6-.6A506.11,506.11,0,0,0,295.68,299a286.7,286.7,0,0,0-10.8,51A125.32,125.32,0,0,1,281.52,367.56ZM187.8,426.24a89.48,89.48,0,0,0-6.12,27.48q-1.44,18.18-3.6,36.36a479.33,479.33,0,0,0-3.36,63.48,3.42,3.42,0,0,0,3-2.52,75.42,75.42,0,0,0,3.84-18.6c1.2-15.84,2.64-31.68,4.2-47.4l.12.12A40.93,40.93,0,0,0,200,480.6a176.09,176.09,0,0,0,21.84,78.72,3.13,3.13,0,0,0,1.2-3.48Q211.56,518,202.56,479c7.68-5.28,13.2-13.68,16.44-25.2,4.68-16.68-1.56-28.56-18.84-35.52A14.8,14.8,0,0,0,188.28,421a7.92,7.92,0,0,0-.72,3.24Zm14.88,2.4,13.8,14.88c-4,16.32-13.8,27.12-29.76,32.4l4.08-48Zm94.08-127a86.24,86.24,0,0,0-1.32,26c1.32,12.12,2,24.24,2.4,36.6l.48,15.72q.36,9.72,4.68,16.2L318,327c.36,8.28,1.08,18.6,2.28,30.72l4.44,41.4a51.52,51.52,0,0,0,3.84,14.16A20.77,20.77,0,0,0,332,419L320.64,304.2l-.48,2.64-1-3.48a221.85,221.85,0,0,0-10.8,37.92c-2.28,12.36-4.08,24.72-5.16,37.08a438.9,438.9,0,0,0-3.72-57.48ZM68.88,145.44a588.41,588.41,0,0,0-2.16-85c37.32,5.64,64.44,25,81.6,58.2a317.22,317.22,0,0,1,34.8,121.08,538,538,0,0,1-5.28,128.16,271.93,271.93,0,0,1-52.2,121.44,92,92,0,0,0-8,12.48q-16.38,31-48.6,36.72v-1.2c-1.08-23-1.32-46.08-.84-69,.84-43.08.72-86.16-.6-129s-1.44-85.8-.72-129.12C67.2,188.52,67.8,166.92,68.88,145.44Zm-3.24-95-.12-.84c-3,1.56-4.32,4.56-4.2,9,1.08,26,1.32,52.32.72,78.6-1,43.08-1.68,86-2.28,129.12s-.12,85.92,1.08,129,1.44,85.68.6,128.28h-.12a47.15,47.15,0,0,0-1.8-8.16,10.39,10.39,0,0,0-.12,5.76A32.74,32.74,0,0,1,59,537.84q-4.14,15.12,5.4,23l1.44-3.36a6.19,6.19,0,0,0,5,.72A82,82,0,0,1,82.2,555a16.37,16.37,0,0,0,8.52-4.2,299.21,299.21,0,0,0,42.84-48.36A290.61,290.61,0,0,0,183,385.08a585.08,585.08,0,0,0,8.88-127.56A419,419,0,0,0,167.4,132q-23.58-65.34-90-83a21.81,21.81,0,0,0-10.8.24ZM277.2,201.48a88.17,88.17,0,0,0,2.88,33.24l6.6-61.44,18.24,57.84,4.92-70.68a118.06,118.06,0,0,0-7.92,40.2A147,147,0,0,0,287,158.52C282.12,170.16,278.76,184.44,277.2,201.48Zm69.36-35q-32.58-9-36.36,33.12a340.93,340.93,0,0,0,4.44,95.64c8.28,4.2,16.44,3.72,24.72-1.44l2.64-1.68,3,11A118.81,118.81,0,0,0,351.72,256a40.74,40.74,0,0,0-14-2.88l-4.32,1.32.24,6.84,11,2.4a10.31,10.31,0,0,0-4,5.52,8.75,8.75,0,0,0,.84,7.56l1.2.48.48.24.12.36-.12,1.2q-11.34,9.36-25.56,5.4-12.78-58.68,12.12-111.24l14.4,1.68,1.44,8.64c2.52-2.52,3.48-6.36,3-11.4A13.31,13.31,0,0,0,346.56,166.44Zm-80.64-110A896,896,0,0,0,260,153.72q-.54,64.44-.6,129,.18,64.44-1.08,129.12-1.26,64.44-5.4,128.28l-5.64-6.84,9.12,26.52a2.14,2.14,0,0,0,1.08-1.44,1125.69,1125.69,0,0,0,6.6-115.92l.72-129.12c.24-42.84,1.2-85.92,2.88-129C269.28,141,269,98.16,266.76,56,266.16,56.16,265.92,56.28,265.92,56.4ZM425.16,182.76a66.78,66.78,0,0,1,16.92,10,87.47,87.47,0,0,1,17.4,18.84,13.5,13.5,0,0,0,.6-13.32q-14.76-32.4-52.08-34.8c-10.56,4.92-18,13.2-22.2,25.08-9.72,26.64-9.48,53.76.48,81.48a170.25,170.25,0,0,0,24.6,45.12,271.18,271.18,0,0,1,43.08,83,236.15,236.15,0,0,1,11,64.2q1.8,48.78-31,82.8a60.54,60.54,0,0,1-30.72,2.16,11.8,11.8,0,0,1-5.16-2.16q-27.36-20.7-39.36-54.36l-1.8-.36a10.64,10.64,0,0,1-3-1.68l-1.2-.36c-.84,1-.6,1.8.84,2.52a2.66,2.66,0,0,1,1.44,1.56l.48.72c.72,19.32,7,37.32,18.84,54.24a43,43,0,0,0,21.36,16.08Q435,577,452.88,542.4a173.75,173.75,0,0,0,19.2-94.68,240.84,240.84,0,0,0-8.16-46.56,305.7,305.7,0,0,0-56.16-110.4q-34.2-43.2-15.84-94C397.8,180.84,408.84,176.16,425.16,182.76ZM354.36,89.4a461.9,461.9,0,0,1-46.2,41.88L303,135.36l.24,12.12,92.28-.24,1.56-2.76.48-1.32.36-1.56.12-1.44V138.6l-.12-1.68a8.61,8.61,0,0,0-1.08-3.24l-71.64-1.92a193.73,193.73,0,0,0,23-22.44,265.6,265.6,0,0,1,35-33.72c6.48-5.28,8.4-11.64,5.88-19.08l-.36-.72-45-2.88a202.18,202.18,0,0,0-38,2.64l-1.08,12.12,67.92.24A221.21,221.21,0,0,1,354.36,89.4Z" transform="translate(-57.79 -48.4)"/></svg>