<svg id="Layer_1" data-name="Layer 1" xmlns="http://www.w3.org/2000/svg" viewBox="0 0 433.51 387.04"><defs><style>.cls-1{fill-rule:evenodd;}</style></defs><path class="cls-1" d="M82.8,108l15.48.84c25.44-2,46.32,6,62.64,24.36q28.8,32.22,33.6,76.32a560.35,560.35,0,0,1-.6,128.4q-7,60.48-58.92,90.24A301.06,301.06,0,0,1,74.52,454.8q3.06-50.58,4.08-101.88.9-40.14,2.28-80.4,2.16-64.26,3-128.28C84,131.76,83.64,119.64,82.8,108ZM94.08,94,79,95.76l-.48.84a11.21,11.21,0,0,0-.84,4.92v2.4a7.42,7.42,0,0,0,1.08,3.24l.48.12-5.4,120c-1.32,32-2.4,64.32-3,96.6C70,366.72,69,408.36,67.92,448.56a30,30,0,0,1-.84,8c-2.64,10.68-.72,18.6,5.76,23.64l.6-9.36a24.23,24.23,0,0,0,6.6-.12c21.72-10,43-21.12,63.72-33.24a95.46,95.46,0,0,0,35.16-35.64,190.3,190.3,0,0,0,24.72-85.2,586.48,586.48,0,0,0-7.8-128.28,133.93,133.93,0,0,0-26.64-60c-18.84-23.88-43.92-35.4-75-34.56ZM238.56,190.2q-1.62,64.08-4,128.28-2.52,64.08-4.32,128.28l-.12.6-.48-1.2c-1.08-1.8-1.68-1.92-1.8-.48-1.08,9,.72,16.2,5.28,21.84a74.28,74.28,0,0,0,5.76-28.44c.48-43.08,1.2-86.16,2.28-129q.9-40,2.88-79.68,3.42-65,1.08-128.16c-4,9.6-5.88,20.52-5.88,32.76C239.28,153.36,239,171.72,238.56,190.2ZM383,140c-3.48-19.8-15.72-29-36.72-27.6-17.52,1.44-29.64,10.56-36.24,27.48a83.94,83.94,0,0,0-4.8,44.52,245.57,245.57,0,0,0,11.16,45.36,286.66,286.66,0,0,0,17.16,39.48c6.6,12.6,12.72,25.44,18.48,38.4a170.15,170.15,0,0,1,13,44.64A216.72,216.72,0,0,1,367,399a68.83,68.83,0,0,1-11.52,34c-8.88,13.2-21.24,20.88-37.08,22.92-14.16,1.8-25.08-3.36-32.64-15.36l.24-7.32-6.48,3.48c-2.4,16.32,4.56,27.36,20.88,33,13.2,4.44,25.68,3.36,37.56-3.36a53.13,53.13,0,0,0,21.72-22.8A138.52,138.52,0,0,0,370.2,415.2a114.83,114.83,0,0,0,3.72-26.4,215,215,0,0,0-3.12-45.72,195.44,195.44,0,0,0-13.08-43.56C352,286,345.6,272.76,338.52,259.8a285.63,285.63,0,0,1-25.92-66.24q-8.82-34.38,16.8-57.12,21.24-18.9,42.6-1.44a44,44,0,0,0,10.08,6.24Zm38.88-9.36q.36,64.08,0,128.28-.36,65-4.92,129.12c-1.56,21.72-4,43.32-7.32,64.68-1.68,10.44.24,18,5.64,22.68a19.14,19.14,0,0,0,3.48-10.56q2.7-64.26,6.48-128.4l2.4-47.52c21.12-2.28,42.36-4.32,63.6-6l-.84,54.24q-1.26,64.62-5.28,128.88-.72,11.34,6.48,14.76a893.94,893.94,0,0,0,6-108q-.36-64.62.24-129c.36-43.56,1-86.28,1.56-128.28-.84-.12-1.32.12-1.44,1a526.65,526.65,0,0,0-7,91.56c.36,20,.48,40,.36,60a188.57,188.57,0,0,0-63.24,8L429.24,240c1.08-43.08.24-85.92-2.28-128.28C423.6,116.76,421.92,123.12,421.92,130.68Z" transform="translate(-65.93 -93.8)"/></svg>