<svg id="Layer_1" data-name="Layer 1" xmlns="http://www.w3.org/2000/svg" viewBox="0 0 308.55 206.31"><defs><style>.cls-1{fill-rule:evenodd;}</style></defs><path class="cls-1" d="M298.92,308.4A129.13,129.13,0,0,0,290.64,350a137.14,137.14,0,0,0,4.8,42.72c.48,1.8,1.56,2.76,3.24,2.64,17.16-.84,24.84-9.48,22.8-25.8-6.36,8-13.92,12-22.8,11.88l-.24-.84q-.36-35.46,2.16-70.56l-.6-.72Zm4.56-27.12-3.12.12c-2,4.44-1.92,8.4.12,12.12h3.6a13.75,13.75,0,0,0,4.8-11.76l-.12-1.68c-1.8,1.68-3.24,2.28-4.2,1.8A2.45,2.45,0,0,1,303.48,281.28Zm-138.36-84.6q-.9-.18-1.08.36v.48a15.36,15.36,0,0,0-1.08,5.76l.24,1.92c-2.4,21.6-4.56,43.32-6.48,65.28-3.24,34.92-4.92,69.84-5.16,105a5.86,5.86,0,0,0-2.16,1.68A19,19,0,0,0,148,386a10.39,10.39,0,0,0,3.6,7.68V398a2.32,2.32,0,0,0,2.16,2.16l1.44-5.52a115.53,115.53,0,0,0,28.8-.36c26.4-3.72,43-19.08,49.56-45.84a239.28,239.28,0,0,0,6.84-50.64q2-71.28-60.72-103.32a21,21,0,0,0-14.52,2.4Zm22,14.28,3.84,1.8q2.7,1.62,5.4,3.6a77.16,77.16,0,0,1,17.52,18.36c14.52,22.2,20.76,46.68,18.6,73.68a130.89,130.89,0,0,1-11.76,44.52A31.62,31.62,0,0,1,204.48,369a87.84,87.84,0,0,1-45.12,7.32L166.2,208a42.47,42.47,0,0,1,16.92,1.68Zm178-15.84q-4,4.5-3.6,12.24a1073.6,1073.6,0,0,1-1.56,128.88,409.39,409.39,0,0,0,0,64.2,1.75,1.75,0,0,0,1.08-1,515.77,515.77,0,0,0,8-76.08l.48-25.2a157.26,157.26,0,0,0,41.76,2.64,14,14,0,0,0,1.92-6.48,8.71,8.71,0,0,0-3-7.2h-1.8l-6.84-.6a157.55,157.55,0,0,0-32,2.16c0-26.76-1.08-53.16-3.24-79.44a383.45,383.45,0,0,0,83.76-.6,3.76,3.76,0,0,0,4.2,1l.6-.48a14.43,14.43,0,0,0,1.32-9.72,9.7,9.7,0,0,0-1.32-3.24,1.39,1.39,0,0,0-.84-.6,35.88,35.88,0,0,0-11.28-1.32c-25.56,2.28-51.36,3.36-77.4,3.48Z" transform="translate(-147.9 -194.13)"/></svg>