<svg id="Layer_1" data-name="Layer 1" xmlns="http://www.w3.org/2000/svg" viewBox="0 0 459.7 350.43"><defs><style>.cls-1{fill-rule:evenodd;}</style></defs><path class="cls-1" d="M101.4,105.48l-.24-3.48c-.6-.12-1,.12-1.08.48a152,152,0,0,0-9.48,53.88C90.48,199.2,89.52,242,88,284.76q-2.34,64.62-7.08,128.88c-.84,12,.72,22.8,4.68,32.28a2.54,2.54,0,0,0,1-1.44L88,431.16A6.06,6.06,0,0,0,92,435.6a21,21,0,0,0,18.36,1.32,101.67,101.67,0,0,1,14.16-4.44q52-12.42,70.68-60.84a266.8,266.8,0,0,0,16.68-125.28,283.91,283.91,0,0,0-14.16-63.84q-23.22-67.14-92.88-78.6a2.11,2.11,0,0,1-1.56.72A5.51,5.51,0,0,0,101.4,105.48Zm93.84,98.76A187.6,187.6,0,0,1,205,244.08a242.23,242.23,0,0,1,1.68,45.72,370.07,370.07,0,0,1-5.4,45.84,94,94,0,0,1-18.48,41.28,113.33,113.33,0,0,1-34.92,30A94.68,94.68,0,0,1,105,419.16a20.7,20.7,0,0,1-11.4-1.92l-3.24,1.2-1.44,1.32,12.84-299.28c16-1.92,30.72,1.92,44.28,11.4a108.16,108.16,0,0,1,31.8,34.92A231,231,0,0,1,195.24,204.24Zm46.2-86.88c-1.56,42.72-2.76,85.56-3.84,128.4s-3.24,85.68-6.24,128.28c-.84,11.88-2.4,21.72-4.92,29.4-1.8,9.84-.72,19.08,3.48,27.6a4,4,0,0,0,1-1.68c3.24-20,5.64-40.2,7.08-60.72q4.5-63.9,6.6-128.28c1.56-43.08,1.68-85.92.6-128.28C242.88,112.68,241.56,114.48,241.44,117.36Zm134.64-8.76L375,107.16A1047.62,1047.62,0,0,1,263.52,111l.48,9.72a221.42,221.42,0,0,0,55.08,5.76q-9,80.64-13.56,161.88a794.53,794.53,0,0,1-11.16,95.52c-3.48,19.08-1.68,37.08,5.16,53.88a6.53,6.53,0,0,0,1.32,2.16L318.6,228.84c1.2-14.52,2.16-29.28,2.88-44q1.44-29.16.72-58.32c19.8.84,38-1.44,54.84-7.08A11.89,11.89,0,0,0,376.08,108.6Zm25.44,30.24A35.52,35.52,0,0,0,375,153.6a185.24,185.24,0,0,0-31.56,66.84,484.32,484.32,0,0,0-13.68,127.8c.84,33.6,11,63.72,30.36,90.36a13.14,13.14,0,0,0,10.8,5.88c29.28.84,55.32-8.76,78-28.56a19.91,19.91,0,0,0,1-14.64,7.2,7.2,0,0,0-2.4-3.24l-3.12,1.32-.72.48h-.12l-.12-1.2-1.32.24v.48a2.85,2.85,0,0,1-.84,2.4A138.37,138.37,0,0,1,397.08,427c-18.6,6.6-31.92,2-39.72-13.68q-25-50.4-20.52-109a382,382,0,0,1,29.52-121A36.41,36.41,0,0,1,375,170.88c19.08-17.88,41.28-23.88,66.84-18a8.47,8.47,0,0,0,1-4.92l-.84-3.24-.36-.72-.84-1q-9-10.44-24.12-7.2A68.91,68.91,0,0,1,401.52,138.84ZM533.16,163c.12,37.08-.6,73.92-2.4,110.76q-25.56,2-51.12,6.12c.6-22.68,1-45.48,1-68.28a647.16,647.16,0,0,1,3-64.8,90.47,90.47,0,0,0-2.52-32.52c-3.48,7.68-5.28,16.68-5.52,27l-1.92,85.2c-1.08,42.84-2.52,85.56-4.2,128.4a357.43,357.43,0,0,1-8.4,64.32c-2.88,12.72-1.56,23.4,4.08,31.92a244.5,244.5,0,0,0,7.08-41.4c1.92-23.16,3.6-46.32,4.92-69.72q1.26-24.12,2.16-48.24A275.83,275.83,0,0,0,530,289.2l-.12,2c-2.28,43.32-6.72,86.16-13.2,128.76-1.8,11.88-.48,22.68,3.84,32.4a6.36,6.36,0,0,0,3.72-4.44,67.81,67.81,0,0,0,2.4-14.64c.84-19.56,1.8-39.12,3.12-58.68q3.06-43.38,5.4-86.52l.24-.48c2-4.32,2-7.92.24-10.8l1.56-30.36q3.06-64.8,3.12-128.28A129.27,129.27,0,0,0,533.16,163Z" transform="translate(-80.66 -101.97)"/></svg>