<svg id="Layer_1" data-name="Layer 1" xmlns="http://www.w3.org/2000/svg" viewBox="0 0 509.23 582.36"><defs><style>.cls-1{fill-rule:evenodd;}</style></defs><path class="cls-1" d="M271.2,505.92a46.81,46.81,0,0,0-31.8,4.44l-.48,8.88,16.44-2.16a314.28,314.28,0,0,0-.72,68.76A367.63,367.63,0,0,0,257.16,517l14.16-1,1.56-7.32Zm18.24-1.08q-19.08,23-12.84,52.68a61.75,61.75,0,0,0,9.6,22.56c6.84,1.08,11.88-1.2,15.36-6.84a7.23,7.23,0,0,0,.48-7.44l-14.76,2.4c-8.16-8.64-10.44-19.2-7-31.68a61.33,61.33,0,0,1,10.56-21.12L306,513.24l1.08-4.08-.84-2.4-8.64-3Zm57.36-83.28c-1.44,25.32-2.64,50.64-3.6,76.2a182.78,182.78,0,0,0-23.64,5.64l1.32-31c.36-10.8,1.08-21.6,2.16-32.28,1-9.24,0-17-2.76-23.16-2,2.64-3,6-3,10.2a1228.59,1228.59,0,0,1-7.08,128.16c-1.08,9.36.12,17,3.6,23.16q3.42-32.94,5.4-66.6a103.34,103.34,0,0,0,23.52-2l-.84,25.32a99.5,99.5,0,0,1-2.64,19.8c-2.28,10.08-1.2,17.88,3.24,23.28a101,101,0,0,0,5.28-28.92c.48-13.68.84-27.24,1.08-40.8l.48-.12a12.76,12.76,0,0,0,1.44-4.08,10,10,0,0,0-1.2-5.64l-.6-.48c.12-25.8-.24-51.6-1.32-77.28C347,420.84,346.8,421.08,346.8,421.56Zm-75.12-6.48c-13.8,12.6-14,25.68-.48,39.24,8.52,8.52,11.88,18.72,10.2,30.84a14.93,14.93,0,0,1-15.72,1.56,9.82,9.82,0,0,1-4.44-3.84l-2-11.28c-4.92,5.4-5.64,12.24-2.16,20.28l7,6.48q36.54-.72,17.52-42a63.14,63.14,0,0,0-16.44-21.6c1.2-5,4.32-8.16,9.24-9.24l4.32-.24,7.08,10.32c2-6.84.24-13-5.64-18.48l-1.68-1.56Zm9.48-102.24A37.74,37.74,0,0,1,263,322c.12-18.48-.36-37-1.32-55.32l.12-.12c2.52-2.4,5.52-2.64,9-.84Q300.72,281.7,281.16,312.84Zm56-26.28q8.82,38-29.28,45.24.9-35.1,0-69.84C323.64,262.2,333.48,270.36,337.2,286.56Zm-45,17.16c5-16.56,1.2-30.36-11.4-41.52-6.84-6-13.32-7.92-19.68-5.88l-.24,1.44-3,2.28.48,7.32Q258,314.7,253,365A178.13,178.13,0,0,0,255.72,421a449.94,449.94,0,0,0,7.2-89.88c13.56-1.44,22.56-8.52,27.24-21.36Zm15.48-49.8v-.6c-1.68.72-2.52,2.28-2.64,4.8q-.9,49.14-5.76,98.16a291.46,291.46,0,0,0,.48,64,216.84,216.84,0,0,0,5.88-38.64c.84-13,1.56-25.92,2-38.88,19.8-2.52,31.56-13.68,35.16-33.36q7.38-40.5-28-56.4A7.26,7.26,0,0,0,307.68,253.92ZM74.16,26.28l2.28.72,1,.36L80,28.2a85.75,85.75,0,0,1,29.52,33.6,403.9,403.9,0,0,1,30.72,87.6,597.2,597.2,0,0,1,14,127.68,946.59,946.59,0,0,1-8.64,128.28,316.45,316.45,0,0,1-43,121.68c-14.88,24.84-36,37.92-63.48,39.48a387.5,387.5,0,0,0,2.76-43q.72-64.44,0-129.12l-1.08-129q-.54-64.44-.48-129c0-40.44.72-80.28,2-119.28l.72.12A129.24,129.24,0,0,1,72.48,24.6l.36.24.48.6Zm.24-10A88.92,88.92,0,0,0,46.56,8.64v.12l-3.84.36v-1l-.48,1.2-1.56.6-.6.6-.24.84L39.72,13l.12,1.68L40,15a77.58,77.58,0,0,0-4.2,28.08q1.08,64.62,0,129c-.6,43.2-.6,86.28.24,129.12s1.56,85.92,1.68,129q.18,63.36-3.24,126.12l-.24,1.2-.12-2a35.54,35.54,0,0,0-1.2,14.16,10,10,0,0,0-2.16,7.8,6.78,6.78,0,0,0,2.28,4.8l3.24-.12.6,1.2.12-1.2q41-2.7,64.08-37.32a327.24,327.24,0,0,0,23.88-42.36,336.94,336.94,0,0,0,31-124.08q2.7-47.7,3-95.88A577.47,577.47,0,0,0,146,155.16q-6.84-31.5-14.52-62.88Q118.92,41,74.64,16.56ZM183.72,171.84l5.64-.12c12.36,10.8,15.84,24,10.2,39.48A100.09,100.09,0,0,1,178,246.12l-1.08-73.56,4.92.6Zm-7.08-7.56a1112.92,1112.92,0,0,0-5.28,124.92,80.7,80.7,0,0,1-.84,12,101.79,101.79,0,0,0-1.08,16.92,60,60,0,0,0,3.12,19.08,309.27,309.27,0,0,0,5.4-81.6l10.68-8.4q2.88,47.34,19.2,87.84L191,244.8a61.31,61.31,0,0,0,16.32-36.72c.48-4.92.72-9.84.84-14.64A32.28,32.28,0,0,0,206,181.8c-4-10.2-11.28-16.8-22.08-19.68l-6.24,2.64ZM232.08,43.56q-2.34,64.26.6,129.12t1.08,129q-2,64.62-3.36,129.12t-5.52,128.88q-.9,14.94,5.4,23.4c2.4-21,3.72-42.36,4.08-64.08l1.92-129.12q.9-64.8,1.92-129,1.26-64.62-.6-129.12c-.24-10.92-.12-21.72.24-32.4a727.1,727.1,0,0,0-2.76-95.88C233.52,15.84,232.56,29.28,232.08,43.56ZM296.88,83l-1.44-2.28q-11.52,35.46-6.6,78.84l1.08,10a336.41,336.41,0,0,0-26-88.8l.36,2.4a400.33,400.33,0,0,0-7.44,68.16,50.77,50.77,0,0,0,2.88,17.88l1.92,4.8a421.34,421.34,0,0,0,2.76-90.36,519.58,519.58,0,0,0,24.36,85.92l-15.48,6.12a509.63,509.63,0,0,0-4.08,75l2.52-.72,3.24-39.48a39.44,39.44,0,0,0,21.12.36c2.76-4.2,2.16-7.8-1.68-10.56l-19.2,2.4.36-19.92,27-2.28a8.1,8.1,0,0,0,.12-9.84l-10.32-1.08,3-82.56ZM403.2,260.28l8.28,13.8c3.24-7,2.88-14-1.08-21.12a9.82,9.82,0,0,0-4.2-4.08c-15.48-3.6-25.68,4.2-30.36,23.28A230.72,230.72,0,0,0,369,318.6l-1.56,32.16c-.6,10.8-.84,21.6-1,32.52s-.12,21.72.12,32.64l.6,30.6.6,30.6q.36,15.3-.36,30.6a186,186,0,0,0,3.72,46.8,52.81,52.81,0,0,0,15.72,28.56l13,.24a51.82,51.82,0,0,0,21.12-27,8.83,8.83,0,0,0-.48-7l-1.68-2.88-1.08-1.56c-5.52,14-15.72,21.6-30.6,22.44q-24.48-68.94-14.76-147.84l33-.36c3-4.44,3-9,0-13.56a86.74,86.74,0,0,0-32.88,2.4q-6.84-74.7,17.76-140c1.56-4.2,4.92-6.6,10.08-7.32ZM467,262.44l9,7.8q52.38,47.7,56.76,120.24,4.14,66.06-28.68,122.88c-16,27.72-39.48,43.44-70.44,47.4a411.72,411.72,0,0,0,4.2-55.92c.48-43.08,1.8-86.16,3.84-129q2.88-58,4.44-114.6l16.8-1,1,.72Zm-23.52-10a8.52,8.52,0,0,0-1.08,4.92,5.23,5.23,0,0,0,1.32,3.48,842.64,842.64,0,0,0-9.48,103.68l-3.24,129a160.73,160.73,0,0,1-2.16,24,229.15,229.15,0,0,0-2.52,31.08,113.69,113.69,0,0,0-1.8,12.36,33,33,0,0,0,2.88,17.28l1,.36.48,3.36c.84-.24,1.2-.6,1.32-1l.24-1.44a20.68,20.68,0,0,0,13.44-.24q58.68-20,79.92-79.2a269.39,269.39,0,0,0,13.8-126.72,214,214,0,0,0-40.32-100.68l-1-.84a246.67,246.67,0,0,0-32.52-25.08l-2.76-.36a26.78,26.78,0,0,0-14.64,4.08v-3l-.48.12-.6,3.48Zm7.2-239.28a177.49,177.49,0,0,0-42.24.36,541.37,541.37,0,0,1-87.36,4.32c-2.76,5.76-1.68,10.68,3,14.64l61.32-2.76L381.6,112c-2,43-2.64,85.44-2,127.56,1,0,1.44-.12,1.56-.48a85.86,85.86,0,0,0,5.52-28.8c1.08-42.6,2.64-85.44,4.44-128.28.84-17.88.72-35.4-.12-52.44,20.28-.72,40.56-1.32,60.84-1.68l.36-.72A14.34,14.34,0,0,0,450.72,13.2Z" transform="translate(-30.63 -3.48)"/></svg>