<svg id="Layer_1" data-name="Layer 1" xmlns="http://www.w3.org/2000/svg" viewBox="0 0 330.16 378"><defs><style>.cls-1{fill-rule:evenodd;}</style></defs><path class="cls-1" d="M228.12,304.44c8-6.24,14.4-4.2,19.32,6.24l1,2.4a162.91,162.91,0,0,1-22,39.12l.84-46.32Zm-1.56-10.56-.12-1.68a6.82,6.82,0,0,0-3.48,6.12q-4.68,64.08-9.12,128.4a115.39,115.39,0,0,1-2.28,15.72c-2.4,10.44-1,18.36,4.32,24a148,148,0,0,0,5.4-33.24c.36-22,1.44-43.92,3.36-66.12h.48l.48-.12,6.24-7.08a125,125,0,0,0,7.8,45.84,148.12,148.12,0,0,1,7.92,35c1.32,12.48,5.4,22.08,12.48,28.92a17.27,17.27,0,0,0-.6-17l.12-.84c.24-4.44-.24-6.36-1.44-5.64v.48q-11-45.18-23.4-90.48a127.07,127.07,0,0,0,16.08-28.44q11.52-28.08-16-39c-1.68.84-3.48,1.92-5.4,3A12.92,12.92,0,0,0,226.56,293.88ZM100.08,116.4c27.72-1.2,50.28,8.28,67.92,28.32a94.22,94.22,0,0,1,16.08,25.68,282.93,282.93,0,0,1,22.8,125.88c-.72,16.2-1.8,32.16-3.24,48.12q-5.4,60.48-59.4,86.88a141.15,141.15,0,0,0-12.48,6.84c-14.28,8.76-28.56,12.84-43.08,12,.48-30.6,1.08-61.32,1.68-92.4q1.44-64.26,5.52-128.28c2.52-38.4,3.24-76.56,2.4-114.6Zm-2.76-13.08c-1.92,1.56-2.64,3.72-2,6.6l.36,1.08a159.93,159.93,0,0,0-2.88,25.08q-2.88,64.44-6.36,129c-2.28,42.6-3.48,85.44-3.72,128.28q-.18,32.58-2.16,64.08c-.6,7.56,1.56,12.48,6.36,14.76a7.14,7.14,0,0,0,1.56-4.08V466.8l.36.24a19.75,19.75,0,0,0,16.08-.72,186.33,186.33,0,0,1,23.28-9.6q57.42-19.44,72.48-76.8A403.12,403.12,0,0,0,213.36,252.6,229.65,229.65,0,0,0,180.48,146a88.09,88.09,0,0,0-26.16-27.48Q129.84,102,98.76,102.84L98,103l-.12-1.8Zm186.36,42a1157.82,1157.82,0,0,1-1.08,129.12q-4.14,64.08-6.48,128.16-.9,24.48-4,48.6c-1.32,10.2.6,18,6,23.4,2.76-31.32,4.44-63,4.8-95q.9-64.62,4.68-128.28,3.78-65,1.8-128.16C285.24,129,283.32,136.44,283.68,145.32ZM313,147.24q-1.44,56.16-5.28,112.08-4.32,63.9-6.36,128.16a563.07,563.07,0,0,1-5.4,63.84c-1.44,10.08.36,17.88,5.52,23.28l.72-5.88a391,391,0,0,0,70.68,10.44,3.7,3.7,0,0,0,2-2.4l.84-4.08.12-.84-.12-4.08a9.51,9.51,0,0,0-2.88-6.48l-1.68-.12a290.49,290.49,0,0,1-57.84-3.36H308.4a11.88,11.88,0,0,0-5,1.08,757.6,757.6,0,0,0,5-84.72q.54-64.26,7.2-128a647.65,647.65,0,0,0,.72-127.56,2.52,2.52,0,0,0-2.16,2.64C313.56,130,313.2,138.6,313,147.24Zm89.76,275.52a31.23,31.23,0,0,1-11.88,1.56,265.93,265.93,0,0,0-54.48,2l-.84-.48,4.68-111.72q2.52-64.44,9.12-128a287.84,287.84,0,0,0-.24-64.32c-2,14.88-4,30.84-5.52,47.76-3.84,42.6-6.72,85.44-8.52,128.28-1,21.48-1.68,42.84-2,64.2a367.92,367.92,0,0,1-4.2,47.76,60.39,60.39,0,0,0,.72,23.76l1.08,4,1.68,4.56,1.8-2.4a295.43,295.43,0,0,0,68.28.24,2.92,2.92,0,0,0,4.08.84l.72-.84c4.44-6,4.56-12,.36-17.88A16,16,0,0,0,402.72,422.76Z" transform="translate(-80.42 -101.16)"/></svg>