<svg id="Layer_1" data-name="Layer 1" xmlns="http://www.w3.org/2000/svg" viewBox="0 0 299.52 209.16"><defs><style>.cls-1{fill-rule:evenodd;}</style></defs><path class="cls-1" d="M277.32,318.72a137.59,137.59,0,0,0-6.12,43.08c.24,16.68,7.8,28.2,22.56,34.8,15.12,6.6,29.64,5,43.44-4.8,10.08-7.08,11.64-15.48,4.8-25.2a49.45,49.45,0,0,1-33.36,16.8,55.64,55.64,0,0,1-19.92-2.16,61,61,0,0,1-9-31.56l51.36-4.32a13.48,13.48,0,0,0,.6-13.92l-1.08-1.92a234.22,234.22,0,0,0-49.32,5.28c3.24-17.88,13.68-28.68,31.44-32.28A33.66,33.66,0,0,1,338,307.2l3.36,2c2.16-12-3.72-19.56-17.52-22.68a52.47,52.47,0,0,0-19.8-.84C291,292.44,282,303.48,277.32,318.72ZM171.84,211.2a53.29,53.29,0,0,1,28.8,1.08q29.88,9.72,44.52,37.8c12.48,23.64,15.12,49,7.92,75.72a84,84,0,0,1-9.72,22.32q-26.82,43.92-78.72,33.6a365.41,365.41,0,0,0,5.76-57,1099.82,1099.82,0,0,0-3.12-112.8Zm7.8-16.56a101.19,101.19,0,0,0-13.56,3.12l-.24-1.32c-2.52,3-3.6,7.08-3.48,12.24,1.08,42.84.36,85.56-1.92,128.16a264.73,264.73,0,0,1-3.72,32c-2.16,12-1,22.92,3.48,32.64l.84-3.36.48,1a85.9,85.9,0,0,0,38.28-.24Q236,390.6,250.56,355.8a193.31,193.31,0,0,0,12.6-46.32c4-28.2-1.56-54-16.8-77.28q-23.94-36.54-66.72-37.68ZM385.8,211.32c29.64.36,48.36,14.88,56.28,43.8a70.39,70.39,0,0,1-3.6,12.12C432.12,283,421.92,293.4,408,298.68l-.48-.84q-2,.36-2.16,1.8c-7.44,2.4-16,3.36-25.44,3q1.8-46.44,1-92.28A12.84,12.84,0,0,0,385.8,211.32ZM384.36,197a12.43,12.43,0,0,0-3.84,1.68l-.12-4.44L378.6,200l-2.28,2.16-.12,1.56v2.4l.12.84.48.6a121.5,121.5,0,0,0-1.92,18.24q-2.16,64.26-7.8,128.16a229.36,229.36,0,0,0,.36,48.12,2.29,2.29,0,0,0,1.08-1.08,452.82,452.82,0,0,0,10.56-78.48l.36-4.8,13.8-1.08a72.76,72.76,0,0,0,16.2-4.08,664,664,0,0,0,41,90.84c6.36-7.8,6.24-16.68-.12-26.76A237.57,237.57,0,0,1,435.84,350a446.44,446.44,0,0,0-20.76-39.84c11.4-5.76,19.92-14.88,25.8-27.48a55,55,0,0,0,3.84-38q-10.26-41.4-51.84-47.64A14.7,14.7,0,0,0,384.36,197Z" transform="translate(-155.67 -194.28)"/></svg>