<svg id="Layer_1" data-name="Layer 1" xmlns="http://www.w3.org/2000/svg" viewBox="0 0 393.88 343.32"><defs><style>.cls-1{fill-rule:evenodd;}</style></defs><path class="cls-1" d="M118.44,134.28c9,3.84,17.76,8,26.28,12.48,14.64,7.8,24.84,19.8,30.72,35.88a258.3,258.3,0,0,1,12.48,127.08A222.88,222.88,0,0,1,176,356.28q-23.58,63.9-93.12,72.48c2.52-21.12,4.32-42.48,5.4-64,1.8-42.6,2.76-85.44,2.88-128.28,0-21.6.84-43.2,2.4-64.8,1.08-15.48,1.32-30.72,1-45.72A225.18,225.18,0,0,1,118.44,134.28ZM87.36,118.8a11.57,11.57,0,0,0,1.08,5.64l.6.24a138.21,138.21,0,0,0-2.4,22Q85,194.52,85,242.4q0,56.16-2.16,112.08A372.16,372.16,0,0,1,75.12,419q-4,19.26,4.68,31.68l1.32-8.28.6.48a143.45,143.45,0,0,0,39.36-10.32,91.77,91.77,0,0,0,37.32-28.8q34-44.28,37.92-101.16a302.16,302.16,0,0,0-18-125.76,86.42,86.42,0,0,0-11.76-21.72q-25.92-34.92-71-39.36l-.36-.24-1.08-.72-.48-7.44-1.8,5.88-1.44-1.2c-2.28.6-3.24,2.28-3.12,5Zm168.36,43.08q25.92-31,64.92-16.8l.36-1c1.08-5.4-.72-9.36-5.64-12.12a16.45,16.45,0,0,1-3.12-2.4l-3.48-.72A51,51,0,0,0,292.2,128c-13.32,1.2-24.72,6.24-34,15a99.89,99.89,0,0,0-14.88,17.76A157.54,157.54,0,0,0,217.56,233c-1.32,13.32-2.4,26.64-3.12,40l-4.8,2.52-.12.72a9.43,9.43,0,0,0,.72,5.76l3.72-.36q-1.8,39.78.24,79.92,1.8,36.9,30.48,61.32c17.76,15,38.28,20,61.44,14.88a202.89,202.89,0,0,0,35.16-11.16c15.72-6.72,21.48-16.68,17.16-30a171.39,171.39,0,0,1-43.68,22.68Q267.42,436,237,399.12a34.75,34.75,0,0,1-5.88-10.2,181.69,181.69,0,0,1-11.88-77.16c.6-10.2.84-20.4.6-30.6a767.45,767.45,0,0,0,81.6-11.64l.72-1a10.91,10.91,0,0,0-.72-12,178.44,178.44,0,0,1-39,5.28,116,116,0,0,0-42.72,8.76,185.64,185.64,0,0,1,26.88-96A97.69,97.69,0,0,1,255.72,161.88ZM376.8,192.72q14.76,61.38,33.6,121.56,9.54,31,18,62a260.92,260.92,0,0,0,24.48,61.2,9.56,9.56,0,0,0,1.92-3.12l.84,2.52a2.2,2.2,0,0,0,1.8-2.16l2-30.72c2.4-42.6,4.32-85.44,5.64-128.28,1.32-43.08,2.28-85.8,2.64-128.28-2.52.6-4,2.4-4.08,5.64q-3.06,53.28-4.2,107.16-1.44,65-8.28,129a123.8,123.8,0,0,0-.36,23c-4.92-12.84-9.6-25.92-14-39-6.84-20-13.44-40.44-19.68-61-4.56-15.24-8.76-30.6-12.72-46.08q-15.66-62.28-31.8-124C371.16,158.28,372.6,175.08,376.8,192.72Zm-7-50q-3.78,58.32-6.12,116.88c-1.32,32-4.08,64-8.4,95.52-1.68,12.6-.12,23.16,4.8,31.56a172.37,172.37,0,0,0,4.2-29.16l5.16-86.76q3.6-64.44,1.2-128.4C370.08,142.44,369.84,142.56,369.84,142.68Z" transform="translate(-73.88 -107.4)"/></svg>