<svg id="Layer_1" data-name="Layer 1" xmlns="http://www.w3.org/2000/svg" viewBox="0 0 230.91 206.88"><defs><style>.cls-1{fill-rule:evenodd;}</style></defs><path class="cls-1" d="M262,244.32a101.76,101.76,0,0,1,16,39.6,139.53,139.53,0,0,1,.6,45.24c-2.28,16.08-9.48,28.92-21.48,38.4a80,80,0,0,1-38.52,16.32A59.62,59.62,0,0,1,181.8,378a1434.46,1434.46,0,0,0,2.64-166.44,57,57,0,0,1,43.68,3.36A84.39,84.39,0,0,1,262,244.32Zm-77.52-44.4-.12-5.88q-7,17.1-5.76,38.16c1,13.68,1.32,27.24,1,40.56-1.08,43.44-2.64,86.16-4.44,128.16l1.44-.24,1.68-7.92a12.69,12.69,0,0,0,2,3.12q33.12,6.66,67-3.12a25.88,25.88,0,0,0,15.24-11.52q34-54.9,17.28-118.56-14.4-54.9-69.72-68.16A52.24,52.24,0,0,0,184.44,199.92Zm176.88,112.2q-27.54,43.74-2.52,86.4c18.12,4.68,32.76-1.56,43.8-19a36.57,36.57,0,0,1,2.88-8.64,5.38,5.38,0,0,0,.12-4.32c-.12-1.32-.84-2-1.92-1.92l-2.76-.36-1.08-.12c-10.2,16.2-23.52,22.2-40,17.88-6.36-9-9-18.72-7.8-29.16a143.55,143.55,0,0,1,35-5.28A8.79,8.79,0,0,0,389.4,342a13,13,0,0,0-1.68-7.32,1.93,1.93,0,0,0-.84-.48l-7-.6a45.35,45.35,0,0,0-24.36,5.52,48.63,48.63,0,0,1,17.52-22.68c10.92-8,20.76-7.44,29.28,1.68l.24-.72q.54-19.8-19.44-20.88A34.58,34.58,0,0,0,361.32,312.12Z" transform="translate(-175.08 -194.04)"/></svg>