<svg id="Layer_1" data-name="Layer 1" xmlns="http://www.w3.org/2000/svg" viewBox="0 0 569.52 550.16"><defs><style>.cls-1{fill-rule:evenodd;}</style></defs><path class="cls-1" d="M330.48,486.12a15.54,15.54,0,0,1,.36-3.72,10.16,10.16,0,0,1,1.8-3.6c5.4,12.6,10.44,25.92,15.36,39.72,5.16,14.76,9.36,28.32,12.84,40.68,3.48-7.44,10.32-23.76,20.28-49.08,8-19.92,13.44-31.68,16.2-35.4a11.12,11.12,0,0,1,1.92,6.48c0,2.76-5.28,16.68-16,42l-21.36,50.64c-5.64-9.72-12.6-26.64-20.64-50.76C334.08,501.36,330.48,489,330.48,486.12Zm-33.84-4.32L294.84,517c-1.32,21.48-2.28,36.48-3,44.88v.36l4.08.24c2.76.36,4.32.6,4.56.84l37.32.24,1.08,1.8.24,2.64a9.69,9.69,0,0,1-.36,3l-1.2,2h-25l-6.72-.36-7.08-.72-8.28-.6-2.28-3.6a3.6,3.6,0,0,1-1.08-2.28c0-9.24,1.2-25.8,3.48-49.56,2.16-23.4,3.84-36.84,4.92-40.56A20.39,20.39,0,0,1,296.64,481.8Zm8.76-172.68-.6.48-.84.84a29.2,29.2,0,0,0-3.72-6.48c-3-4-6.48-5.88-10.2-5.88-12.12,0-22.44,16.8-31.2,50.52A396,396,0,0,0,249.36,401c0,8.76,2.4,19.44,7.2,32.28,5.88,15.36,12.6,24.36,20.16,27.12,13.68-1.8,22.44-5.28,26.16-10.56a24.26,24.26,0,0,0,2.88-7l1.08-3.36.12-4.08a83.76,83.76,0,0,1,3-19.2c-10.2,0-16.68-.48-19.32-1.56a3.54,3.54,0,0,1-1.8-1.68v-1.92a16.16,16.16,0,0,1,.12-2.64l.12-.6c1.32.24,5.64.24,13-.12l12-.72,1.08,2.16.24,2.76a239,239,0,0,1-1.92,29.28l-4.56,31.56h-1.32c-.6-3.72-.84-9.84-.84-18.24l-2.76,4.2q-7.74,11.16-19.44,11.16l-9.24-.36c-9.72-4.8-17.28-15.36-22.8-31.68a119.52,119.52,0,0,1-6.36-37.32c0-3.48,1.56-12.72,4.56-27.6A403.44,403.44,0,0,1,263,325.08c6.12-18.12,12.48-29.64,18.84-34.8,7.92-6.36,15.72-2.52,23.52,11.52ZM34.2,35.4a121.7,121.7,0,0,1,1.32,18.24l-2.4,52.44-2,26.4c-1.2,15.36-1.8,23.76-1.8,25.08L31.2,209l-1.92,44.28C28,284.4,27.36,306,27.36,318.24c0,13.32.48,32.88,1.56,58.92s1.44,45.24,1.44,58q0,27.9-3.6,79.44c-1.44,19.8-2.88,34.8-4.2,44.88a28.89,28.89,0,0,1,4.56-2.64c8-3.6,14.28-7.8,18.48-12.48a138.32,138.32,0,0,0,10.68-13.44l8.52-13.32c13.08-21,23.52-38.88,31.32-53.4,7.68-13.92,13-31.44,16-52.68,2.28-15.12,3.36-33.24,3.36-54.48q0-12.06-4.32-82-4-68.22-5.52-82.8c-1.56-18.36-2.88-32-4.08-41.28q-3.06-23.94-8.64-41.4c-3-9.36-5.52-16.32-7.32-20.76A105.16,105.16,0,0,0,74,68.16,102.19,102.19,0,0,0,44.52,41l-10-5.52ZM31,29.64c1.08-7.08,6.6-7,16.8.24,9.48,6.84,19,16.44,28.68,28.8,8.88,12,15.84,26.4,20.76,43.08a262.67,262.67,0,0,1,9,42.48c1.2,8.76,2.64,22.92,4.32,42.6,1,11.88,2.76,40.32,5.52,85.08,2.76,48.36,4.2,76.92,4.2,85.44a485.56,485.56,0,0,1-3.48,58.44c-3.12,25.2-7.8,43.08-14,53.52-1.44,2.4-5.88,10.8-13.2,25.32s-13.68,26-19.08,35c-17.88,29.64-33.72,44.4-47.76,44.4A3,3,0,0,1,20,572.4,5.86,5.86,0,0,1,19,574.56c-1.32-2.28-1.92-5.16-1.92-8.88l4.32-55.08q4.32-58.32,4.32-75.6c0-15.72-.48-33.84-1.56-54.36s-1.68-41.16-1.68-62.16l.36-21.72.72-33.12c.12-5.4.84-14.4,1.92-27.24,1.08-12.12,1.68-21.12,1.68-27.12l-2.28-51.36c0-1.56,1-19,2.76-52.08s2.76-57.36,2.76-73A8.21,8.21,0,0,1,31,29.64Zm108,76.2c.36,5.16.48,9.84.48,13.8a45,45,0,0,1-1.08,11.28V183.6c-.36,1.68-.72,4.32-1.08,7.8-.36,3.84-.72,6.6-1.08,8.4v33.6l3-2.76c7.44-6.6,12.84-11.76,16.08-15.24,15.6-16.68,23.4-34.68,23.4-54.24q0-35.1-21.48-51.84a96.28,96.28,0,0,0-14.76-8.64l-4.08-2ZM278,191.4h3.24c14.76-2,25,3,30.48,15.36,3,6.48,4.44,14.76,4.44,24.84l.24,7.8a20,20,0,0,1-.24,4.92c-.48,2.64-3,7.68-7.56,15-2.52,4.2-6.72,8.64-12.6,13.2-7.32,5.88-14,8.76-20.16,8.76l-3.48-.12L271,281l-.6-1.32-.24-2.76.36-.48V274.2c0-17.64,1.08-32.16,3.24-43.8.6-3.48,1-11,.84-22.44A103.4,103.4,0,0,1,275,196.8a2.68,2.68,0,0,1-1.32-2.16,16.16,16.16,0,0,1,.12-2.64l.12-.6h1.92a18.39,18.39,0,0,1,1.32-4.32l.6,1.2.24,2.52Zm-.12,6.48c-.12,10.68-.84,23-2,37.08L272.4,275c1.08-.6,2.64-1.44,4.56-2.52A150.36,150.36,0,0,0,291.84,264q21.6-14.58,21.6-32,0-27.18-19.8-32L280,198.12ZM181.68,141a159.85,159.85,0,0,1,.84,19.56c0,12.72-.12,20.52-.36,23.28a49.57,49.57,0,0,1-4.32,17.88c-2.76,5.76-7.44,12-13.8,18.6l-9.48,8.88c4.32,9.72,7.68,21.48,10,35.28,1.56,9.48,3.48,23.76,5.76,43.08l13.08,47.64c6.24,23,9.36,35.4,9.36,37.2q0,6.3-2.16,10.08l-12.72-42.36c-5.16-17.4-8.88-32-11.28-43.68l-9.12-45.24c-4-20-6.24-33-6.72-38.64l-14.52,12V281L132,341.16c-1.8,22.92-3.6,42.84-5.52,59.76a13.79,13.79,0,0,1-1.56-4.68,32,32,0,0,1-.6-4.8c0-18.72.72-37.32,2.28-55.68,2.28-22.92,4-43.44,5.28-61.32V195c.36-1.92.72-4.8,1.08-8.52s.72-6.6,1.08-8.4v-52a45,45,0,0,0,.48-9.6l-.84-10.44c-.48-8,.84-12.72,3.84-14l.24,1c2-.84,5.52-.72,10.56.6a54,54,0,0,1,9.12,3c2.88,1.08,4.68,2,5.28,2.76a65.79,65.79,0,0,1,7.92,10.2,56.14,56.14,0,0,1,5,10.08A94.6,94.6,0,0,1,181.68,141Zm85.8-92.52L267,49l-.84.84a36.39,36.39,0,0,0-8.76-8c-5.88-4-11.64-6-17.28-6-6.36,0-12,5.52-17,16.68-1.32,3-4,10.68-7.8,23a129.3,129.3,0,0,0-4.8,20.76c-.72,4.92-1.44,11.76-2.28,20.64q-1.26,15.48-2.16,41.4l-1.68,41.28v52.8l.24-.12c2.88-1.68,9.36-2.16,19.32-1.56l17.28,1.08,13.32.6a9.08,9.08,0,0,1,2.16,6.12,11.15,11.15,0,0,1-.6,3.48l-1.32,3.12-7.68-.24-8-.6-7.92-.36-8.28-.72c-9.6,1.08-15.72,1.2-18.48.24v10.8q-.72,5.58-1.44,15.12c-.48,5.64-.72,9.36-.72,10.92a96,96,0,0,0,.36,9.72v59.28c1.2,8,2.16,18.72,2.76,32l1.56,32v67.44a72.86,72.86,0,0,1,1.8,13.2c.48,7.32.84,12,1.2,14,1.56,11.16,6.24,20.28,13.8,27.12l13.2.24c10.68,0,20.64-6.72,30.12-20a143.88,143.88,0,0,0,9.36-15.48,110.92,110.92,0,0,1,6.24-10.68,13.82,13.82,0,0,1,2.4,7.68c0,1.68-1.44,5.28-4.44,10.92a144.33,144.33,0,0,1-11.4,17.88C257.28,561.84,246.84,570,238,570l-15.72-.6c-8.76-8-14.28-18.12-16.68-30.48a139.87,139.87,0,0,1-1.8-16c-.6-7.32-1.2-12.48-1.8-15.72V439.08c-2.28-21.84-3.6-38.88-4-51-.24-6.24-.36-21.48-.36-45.6q0-7.2,1.08-38.88c.6-21.48,1.08-33.48,1.32-35.88V194.64Q201.3,181,202.56,146q1.08-31,3.24-48.6c.12-6.36,1.8-14.52,5-24.36l7.68-24.36c1.8-7.44,5.4-13.08,10.92-16.92A27,27,0,0,1,246,27.24a26.53,26.53,0,0,1,15.12,5c4.44,3.24,6.6,7.32,6.6,12.12ZM482.16,208.92c-.48,11-2,29.28-4.56,54.84a830.72,830.72,0,0,0-4.8,85.32c0,20.52,1.08,47.28,3.24,80.52s3.36,61.56,3.36,85.44a157.5,157.5,0,0,1-2.4,27.6q-1.26,6.66-3.24,14.76l1.92-.24,13.32-.72c7.32-.6,15-1.56,23-3,5.52-.84,11.76-3.48,18.84-7.8,6-3.6,10.68-7.2,13.92-10.8,14.28-15.6,22.92-31.08,25.68-46.32,4.2-22.2,7.08-38.16,8.4-47.64a341.28,341.28,0,0,0,3.24-45.72,278.56,278.56,0,0,0-4.8-50.64c-2.52-13.44-6.6-30.6-12.48-51.6a241.69,241.69,0,0,0-6.48-25.44,62.42,62.42,0,0,0-16.2-25.68C530,229.92,515,220.68,497.4,214.32c-7.56-2.52-12.6-4.32-15-5.28Zm-.72-10.32q45.54,11.52,67,39.72a104.62,104.62,0,0,1,14.16,26.16c2.28,6.12,4.68,14.76,7.44,25.68,6.12,24.72,10.08,42.84,12.12,54.48a290.13,290.13,0,0,1,4.44,50.76q0,43.56-4.56,73.08-5.22,33.84-17.16,55.56-13,23.58-34.92,35.28c-15.48,8.28-34.92,12.36-58.2,12.36a2.44,2.44,0,0,1-1.8-.72v.12a7,7,0,0,1-3-3.6,22.21,22.21,0,0,1-.24-3.72c0-1.44,1.44-9.12,4.2-23s4.08-22.56,4.08-26q0-26.1-3.24-77.76t-3.24-87q0-32,3.6-82.56c1.8-26.76,3.72-47.16,5.64-61.08a3.62,3.62,0,0,1-1.08-2.4c0-3,.6-4.92,1.92-6l.48.24.6-2.88Zm-26.28,7.2c3.48,4,5.28,7,5.28,8.88l-.36,4.08-.6.48-1.2.6a107.65,107.65,0,0,0-9.12-8.28c-5.88-4.8-10.44-7.2-13.44-7.2-9.48,0-15.24,10.44-17.16,31.44a180.48,180.48,0,0,0-.12,33.24l-2,45.72-2.52,47,.72-.24c3.72-1,15.24-1.92,34.44-2.88v-.6c2,1.92,3,3.84,3,5.64a8.85,8.85,0,0,1-.72,4.08,5.14,5.14,0,0,1-3.36,2.28q-11.88,0-19.44.36l-6.84.36c-3.84,0-6.6-.48-8.28-1.32L413,373.8v53.64a71.51,71.51,0,0,1-.36,9.48L412.2,444l-5.4,86.52q0,7,3.6,16.2c3.36,8.64,7.92,13,13.8,13,13.2,0,22.32-6.6,27.48-19.92,2.52-6.72,4-15,4.08-24.72l.72-.48a8.75,8.75,0,0,1,1.2-1.08,18.62,18.62,0,0,1,2.16,9.36,62.4,62.4,0,0,1-1.44,8.76A122,122,0,0,1,454,548.4c-5.4,15.72-12.12,23.52-20,23.52-21,0-31.44-13.56-31.44-40.56q0-5.58,2.52-45.72c1.8-28.92,3.12-48.6,4.2-59V367.32c1.56-15.24,2.88-31.8,3.72-49.8q1.08-20.52,1.8-50c-.24-10.68-.36-19-.24-24.6,0-10.2.84-18.48,2.4-25,2.64-10.92,6.48-18,11.52-21.36,4.2-2.76,9-3,14.52-.48A34.74,34.74,0,0,1,455.16,205.8Zm-72.36-6q-29.34,0-42.48,84.48A634.91,634.91,0,0,0,333,372.36l-.84,14a158.1,158.1,0,0,0,1.44,27c3.6,25.32,13.56,38,29.88,38,10,0,17.52-4.08,22.92-12.24A60.16,60.16,0,0,0,391,430l2-4.56v-5L392.76,407c-.12-8.28-.48-14.76-.84-19.44l-5.52-.24-5.28-.6h-3.36l-4,.36-.72-1.32a8.06,8.06,0,0,1-.36-2.76,7.25,7.25,0,0,1,.6-3.36c1.08-1.8,3.6-2.52,7.56-2.4l12.24-.36a1.21,1.21,0,0,1,1.32.36l1,2.52a65.25,65.25,0,0,0,.6,6.6l.84,7.2c.48,5.88.48,15,0,27.24l-.6,19.92-.84,30.72-.48.48-1.08.84q-.54-11.34-.72-33.48a66.74,66.74,0,0,1-4.68,9.24c-6.12,10.08-12.72,15.12-20,15.12-17.4,0-29.28-9.72-35.4-29a92.22,92.22,0,0,1-3.84-20.28l-.24-10.08c0-27.36.24-46.8.72-58.44a526.62,526.62,0,0,1,6-60.48c3.6-22.32,7.32-42.12,11.16-59.28,2.28-10.56,6.48-19,12.6-25.08a30.79,30.79,0,0,1,18.12-9.48c6.36-1,11.76.12,16.32,3.12a14.87,14.87,0,0,1,7.08,13.08,14.45,14.45,0,0,1-1.08,5.4v.24l-7.8-7.44C387.6,201.84,384.6,199.8,382.8,199.8Zm-11.28-104q-11.7-32.58-26.88-54.12c-13.8,24.6-25.2,45.48-34.32,62.4l6.72-.12,1.08-.84q19.08-1.8,35.64-4.32Zm9.6,9.48c13.68,32.52,20.52,54.24,20.52,64.92a13.5,13.5,0,0,1-1.8,7.08v.24a275.57,275.57,0,0,1-13-33.6l-10.56-34-.6-1.68-4,.6q-28.8,1.62-67.08,5.64-17.46,32.58-30.48,59.28a4.19,4.19,0,0,1-1.56-1.8,8.7,8.7,0,0,1-.36-3c0-4.68,5.64-17.76,16.92-39.36l10.2-19.2c0-2,.48-3.48,1.56-4.2l1.08-.6,4.68-8.4,19-35.88A383.54,383.54,0,0,1,345.36,28.2q16,31.5,31.32,66.84l3.6.36c.84.6,1.32,2.28,1.32,5.16A15.92,15.92,0,0,1,381.12,105.24Z" transform="translate(-17.04 -24.4)"/></svg>