<svg id="Layer_1" data-name="Layer 1" xmlns="http://www.w3.org/2000/svg" viewBox="0 0 469.76 374.6"><defs><style>.cls-1{fill-rule:evenodd;}</style></defs><path class="cls-1" d="M161.28,192.72A351.14,351.14,0,0,1,171.72,319.2Q166.14,375,126.6,414q-30.06,29-70,24.36c1.32-15,1.92-30.12,1.92-45.48q.18-31.32,1.44-62.64,2.34-56.16,6.24-111.84a1043.46,1043.46,0,0,0,1.92-117.72A56,56,0,0,1,102,106.8a64.27,64.27,0,0,1,16.2,11.4Q149.52,149,161.28,192.72ZM62.88,95.28a12.84,12.84,0,0,0-.72,5.4,1170.51,1170.51,0,0,1-2,128.28c-2.28,31.8-4.32,63.72-5.88,95.64q-2.7,56.52-4.92,112.56a14.86,14.86,0,0,0-5.16.6,11.6,11.6,0,0,0-2.4,6.48,10.58,10.58,0,0,0,3.12,8.16l4.32,1.2c.72,1.08,1.8,1.32,3.24,1l.12-.12c19.8,4.32,38.28.72,55.68-10.92A36.51,36.51,0,0,0,119.76,437a139.06,139.06,0,0,0,28.8-33.84q33.66-55.62,32-121.8a382.94,382.94,0,0,0-24.36-125.52Q136.8,103.68,83.88,88.2a36.42,36.42,0,0,0-18.72,1.92A6.81,6.81,0,0,0,62.88,95Zm185.4,29.52q27.54,40.86,8.52,87.6-16,38.88-54.72,49.44L205,223.56q4.32-58.5,3.36-116.16,14.94-3.78,28.08,5.4A45.17,45.17,0,0,1,248.28,124.8Zm-41.16-19.68c-2,20-3.6,40.56-4.92,61.68q-4,63.72-8.16,127.32A1136,1136,0,0,1,177.84,422c-2.28,12.12-1.08,22.8,3.36,31.92q8.28-50.58,13.08-102.24l6.72-76.8a49.44,49.44,0,0,0,29.64-12,29.48,29.48,0,0,0,.84,7.68q13,54,25.32,108.24,7,31,12.12,61.92c1.56,9.6,5,16.8,10.56,21.6a4,4,0,0,0,.36-2.28A980.66,980.66,0,0,0,256.08,347.4c-8-29.4-15.24-58.68-21.84-87.84Q283,211.14,267,143c-6.6-28.44-24.6-45-53.76-49.68l-1.08.72a23.55,23.55,0,0,0-3.84,2l-.24.12v-1L208,96.36l-.72.48a16.47,16.47,0,0,0-.84,4.08A8.43,8.43,0,0,0,207.12,105.12Zm283.92,12a28.89,28.89,0,0,0-20.28-8.28Q431,130.62,417.84,176.52A275.29,275.29,0,0,0,407.4,235.8a865.06,865.06,0,0,0,.6,128.4,213.76,213.76,0,0,0,14.28,62.88,32,32,0,0,0,11,14.64q25.38,19.26,47.76-.24a125.09,125.09,0,0,0,11.28-11.28c4.92-5.52,8.28-11.16,9.84-16.92a252.13,252.13,0,0,0-.6,45.6l.84.12a381.73,381.73,0,0,0,9-90.72c-13.56,1.8-26.88,4.32-39.84,7.32l-.24.84a8.27,8.27,0,0,0,.24,5.64A84.9,84.9,0,0,0,507,383.4c-1.44,6.72-2.64,13.44-3.6,20a34.8,34.8,0,0,0-2.28-10.8,152.46,152.46,0,0,0-10.44,16,64.28,64.28,0,0,1-11.88,15.24q-22.5,21.42-47.76.36a190,190,0,0,1-18.48-68.76,502.29,502.29,0,0,1-1.2-64.44,735.81,735.81,0,0,1,9.72-92.16q7.74-44.82,42.12-73.32l2.16-.6a27.28,27.28,0,0,1,11.64-1.8,11.58,11.58,0,0,0,3,1.44l2.76.72a26.14,26.14,0,0,0,5.88,4.44,42,42,0,0,0,17.28,5l.48-.84.84-1.68.36-.72a8.19,8.19,0,0,0-1.8-5.16,23.37,23.37,0,0,0-14.16-8.64Zm-111.6-8.88A70.82,70.82,0,0,0,357.12,105a17,17,0,0,0-7.92,2.52Q319.5,124.44,311,159.6a650.55,650.55,0,0,0-17.16,128.52,889.42,889.42,0,0,0,4.92,126.6,57.7,57.7,0,0,0,12.12,29.88q21.42,27.36,52.92,6c16.56-11.28,23.16-25.32,19.8-42-12.84,24.84-33.72,35.76-62.52,33a46.78,46.78,0,0,1-15.6-30,786.37,786.37,0,0,1-5.4-128.28v-.24a292.63,292.63,0,0,0,56.16,0,13.86,13.86,0,0,0-.12-12.12l-.6-.84-1.08-.6-12.48-.6c-13.8,1.68-27.48,2.76-41.28,3.24a715,715,0,0,1,9-81.72Q316,153,340.32,125q31.32-14.58,55,6.48a16.16,16.16,0,0,0-4.2-14.16,58.8,58.8,0,0,0-9.6-8.52Z" transform="translate(-41.75 -87.76)"/></svg>