<svg id="Layer_1" data-name="Layer 1" xmlns="http://www.w3.org/2000/svg" viewBox="0 0 479.92 391.56"><defs><style>.cls-1{fill-rule:evenodd;}</style></defs><path class="cls-1" d="M81.12,103.92q36.54-4.14,60.6,20c21.6,21.48,35,47.76,40.32,78.6a457.41,457.41,0,0,1,3.72,126.72,188.78,188.78,0,0,1-30,84.36q-34.2,40.5-86.76,43.92l1.32-.84,1.08-1v-.24l-1.56.12a4.8,4.8,0,0,0-2.16,1.2q4-36.54,4.92-74.28c1.08-43,1.44-85.92,1.32-129a917.88,917.88,0,0,1,4.56-96.48,327.27,327.27,0,0,0,1-53Zm-6.84-2.28a48.85,48.85,0,0,0-2,13c-1,23.88-1.68,47.64-2.16,71.52q-1.62,64.62-2.64,129.12c-.6,43.08-3,85.8-7,128.16q-1.62,18.18,5,31.68l.12-1.2,1,.72a61.15,61.15,0,0,0,23.88-1.8q65.34-18.9,87.12-81.72a339.88,339.88,0,0,0,18.48-126.24A329.67,329.67,0,0,0,166.8,141.12C152.52,109.8,128.28,93.6,94.2,92.28L79,92.64A5.46,5.46,0,0,0,74.4,95a5.83,5.83,0,0,0-.6,3.24l.12,1.56.12.84ZM351,418.32,348.24,411l1.68,10.2c-6.36,17.88-18.48,29.64-36.36,35.4-20.52,6.72-40.2,4.8-59.28-5.76a54.21,54.21,0,0,1-23.76-25.92,193,193,0,0,1-16.8-78.24c0-16.68.24-33.48.72-50.16a160.81,160.81,0,0,0,62.28,6.84A10.8,10.8,0,0,0,279,294.6a7.55,7.55,0,0,0-2-4.56,271.44,271.44,0,0,1-62.28-4.56q-4.5-93.24,60.24-155.4c14.64-14,31.68-16.8,51.12-8.52a63.55,63.55,0,0,1,14,8.28c-2-18.48-14.76-27.36-38.16-26.76q-29.16,1.26-49.56,26.52a180.15,180.15,0,0,0-38.28,87.48,624.77,624.77,0,0,0,1.68,196.08,70.78,70.78,0,0,0,15.12,33.6,96.29,96.29,0,0,0,27.24,23.4,68.27,68.27,0,0,0,30.48,9.12,70.68,70.68,0,0,0,25.92-4.08q25.74-8.82,37.08-32.76a27.89,27.89,0,0,0,2.76-11.28,54.74,54.74,0,0,0-1-12.6Zm31.32-253.56q.54,64.44-1.08,129.12-1.44,64.44-3.48,129A319.28,319.28,0,0,1,375,455.16c-1.44,9.84.12,17.64,4.56,23.52l.6-.84.48,1.32q55.8,4.68,111.24,4.68l.72-1.68a18.31,18.31,0,0,0-.72-14.64,5.64,5.64,0,0,1-3-3l-.12-.72a11.78,11.78,0,0,0-.36-4.08c-.6-.12-1,0-1,.48a28.41,28.41,0,0,0,1,7.32,21.47,21.47,0,0,1-12.24,1.32,321.25,321.25,0,0,0-94.68-.72l-.24.24c3.72-35.4,5.64-71.28,6-107.4l1.44-129c.48-43.32.12-86.16-1-128.28A312.73,312.73,0,0,0,382.32,164.76Zm73.08-55.08q-6.12,60.12-7,121.68-1.08,64.62-3.12,129.12c-.36,10.8-1.08,21.48-2.4,32.16-1.56,12.6,0,23,4.92,31.56l.6-3.36.48,1.56a267.91,267.91,0,0,0,88.44,7.8l1.08-1.68,1.08-2.4.36-1.56a15.5,15.5,0,0,0,.12-4.08,16.14,16.14,0,0,0-1.8-5.76.74.74,0,0,0-.84-.24,244.71,244.71,0,0,1-73.08-3.72v.12a25.09,25.09,0,0,0-14.4,1.92,322.68,322.68,0,0,0,3.6-46.08c.12-43.08.72-86,2-129.12q1.8-65,.36-128.28Z" transform="translate(-60.16 -92.28)"/></svg>