<svg id="Layer_1" data-name="Layer 1" xmlns="http://www.w3.org/2000/svg" viewBox="0 0 532.93 367.68"><defs><style>.cls-1{fill-rule:evenodd;}</style></defs><path class="cls-1" d="M172,265.44a716.65,716.65,0,0,0,9.24,74.88q11.16,63,23,125.64a3.32,3.32,0,0,0,2.4,2.16,4.76,4.76,0,0,0,2.4-5.28q-5-37.62-11.52-75-10.8-63.18-24.12-125.64Q171.78,262.92,172,265.44Zm-2.28-141.6Q208.92,165.06,192.6,220q-10.26,34.2-42.6,41.52l1.44-16.8A807.71,807.71,0,0,0,153,118.44a22.33,22.33,0,0,0,10.92,2.88A8.5,8.5,0,0,1,169.68,123.84Zm-94.2-7.2A36,36,0,0,1,95.4,134.52a307.24,307.24,0,0,1,31.8,126.24c.72,21.6.6,43.08-.36,64.32q-2.7,60.3-41,104.64a60.81,60.81,0,0,0-7.8,4.2,29.26,29.26,0,0,0-5.52,4.68,143.41,143.41,0,0,1-34,17.16,113.74,113.74,0,0,0,3.24-24.48c1.32-42.84,2.76-85.56,4.56-128.28s4-85.68,6.72-128.28a315.5,315.5,0,0,1,3.84-32A137,137,0,0,0,59,118.8,54.32,54.32,0,0,1,75.48,116.64Zm-17-10L58,102.6c-2.76,2.52-4.44,6.24-5.16,11.16-4.2,30.84-7,62-8.28,93.36l-5.88,128.4c-1.8,40.44-3.48,80.64-4.8,120.6l-.72,2.52a37.05,37.05,0,0,0,.24,7.32,5.47,5.47,0,0,0,1.8,3.24l1.08.48,6,.6c9.72-5.16,19.2-10.56,28.44-16A95.21,95.21,0,0,0,113.76,402,352.24,352.24,0,0,0,133.2,276.6a412.81,412.81,0,0,0-7.92-71.28c-4.32-21.48-9.72-42.48-16.08-63.24-6.72-21.72-20.76-34.2-42.12-37.68l-6.48,1.68Zm138.24,39.6c-4.08-15.48-13.32-26.52-27.84-33a42.14,42.14,0,0,0-15.72-3.48l-.72,7.68a578.17,578.17,0,0,0-6.72,68q-4.86,115.92-21.12,231.24a146.38,146.38,0,0,0-.24,40.32,14.62,14.62,0,0,0,3.12,7.44,746.07,746.07,0,0,0,13.2-92.28l8.16-98.16a26,26,0,0,0,15.12-5,93.16,93.16,0,0,0,28.32-33.84,94.31,94.31,0,0,0,10-43.56A159.89,159.89,0,0,0,196.68,146.28Zm50.16-22.08A109.36,109.36,0,0,0,219.6,191c-1.92,29.4-3.72,59-5.28,88.68a6.65,6.65,0,0,0-.24,4.56,996.71,996.71,0,0,0,1.08,128.4,62.09,62.09,0,0,0,10.32,30.48q23.94,36.18,57.84,8.28a56.31,56.31,0,0,0,10.8-11.88c6.36-9.36,6.36-17-.24-22.92a105.56,105.56,0,0,0-7.2,10.8q-17.64,30.78-49.2,16.08l-6.36-8a72.41,72.41,0,0,1-6.36-9.12A470.25,470.25,0,0,1,219,330.6l1.92-45.72a257.59,257.59,0,0,1,43.44-4,11.71,11.71,0,0,0,1-5.76,12,12,0,0,0-1-4l-1-.6-5.88-.48A201,201,0,0,0,221.4,273l2.88-69.84a148.57,148.57,0,0,1,11.28-51.72c6.84-16.2,18.36-23.16,34.68-20.76l6,4c4.08,2.64,7.92,5,11.4,7.2a8.66,8.66,0,0,0,0-8A31.47,31.47,0,0,0,275.4,121a4.44,4.44,0,0,1-2.16-1,23.89,23.89,0,0,0-14.64-4A27.89,27.89,0,0,0,246.84,124.2Zm150.36,7.08a502,502,0,0,0-6.48,87.6c.36,32-.36,63.84-2.4,95.64-2,32.76-3.24,65.52-3.36,98-1.56-12.48-3.6-25-6.12-37.56q-12.42-62.82-25.44-125Q340.26,187.32,325,125.88l-.84,2-.24-8.64A634.39,634.39,0,0,0,319,190L317,319.08q-1.08,64.26-6.48,128.16l-.6.6c-.84.24-1.08.84-1,1.8l-.12.84a42.44,42.44,0,0,0,.6,13,3,3,0,0,0,3.84,1.68,524.76,524.76,0,0,0,8.88-88.44l2.16-129.12c.6-32.52.72-64.56.24-96.36q7.56,31.86,13.92,64.2,12.06,62.82,25,125,12.78,61.74,21.84,123.84c.48,2,1.68,2.52,3.48,1.68-.12-7.92-.48-15.84-1.08-23.64q2-1.26,2.16-5c1.32-16.32,2.52-32.76,3.36-49.44q3.42-63.72,4.32-128.28c.6-43.32.72-86.16.12-128.28Zm25.68,29.4a232.13,232.13,0,0,0-12.48,73.68c-.24,20-1.2,40-2.76,60a803.13,803.13,0,0,0-.48,128.28,60.84,60.84,0,0,0,6.48,23.4q13.86,27.18,41,8.64c14.76-10.08,19.8-22.32,15-36.6a8.31,8.31,0,0,0-3.6,4c-7.68,16.92-20.64,24.48-39,22.56-2.28-.24-3.84-1.2-4.56-3a131.67,131.67,0,0,1-11.64-59.28c1.32-42.84,3-85.68,5.28-128.28q.9-16.2.36-32.4-1.26-41.4,23.64-73.08c14.64-2.16,28-.84,40.08,4.08l.12-.72c-4.68-15-16.56-21.36-35.52-18.84a5.87,5.87,0,0,1-1.56,1l-1.68.6L439,135.72l-1,.36A64.85,64.85,0,0,0,422.88,160.68Zm138.48-17.52q-1.8,63.18-4.56,126.36a521.57,521.57,0,0,0-55.32,9.36l.6-18c1.08-43.56,1.56-86.4,1.44-128.28-1.56.48-2.52,1.8-2.64,4q-4.14,46.08-4.8,93.48-.9,64.62-3.72,129c-.84,21.72-2.76,43.32-5.64,64.8-1.56,12.12-.24,22.68,4.08,31.8a374.56,374.56,0,0,0,7.68-66.6l2.76-98.76a313.94,313.94,0,0,0,55-6.6q-2.88,58.14-6.24,116a264.17,264.17,0,0,1-3.84,32.16c-2.28,12.12-1.2,22.8,3.12,31.92a408.58,408.58,0,0,0,9.36-73.08c1.56-42.84,3.48-85.56,5.52-128.28q3.06-65,1.08-128.28C562.8,136.2,561.48,139.2,561.36,143.16Z" transform="translate(-33.05 -102.6)"/></svg>