<svg id="Layer_1" data-name="Layer 1" xmlns="http://www.w3.org/2000/svg" viewBox="0 0 447.22 336.24"><defs><style>.cls-1{fill-rule:evenodd;}</style></defs><path class="cls-1" d="M145.32,139.08q43.56,15.12,58,60.84a264.72,264.72,0,0,1,10,45.24,257.81,257.81,0,0,1-15,127.68,55.14,55.14,0,0,1-15.12,22.32,129.63,129.63,0,0,1-68.28,32.76c-7.56,1.2-12.6,3.36-15.36,6.36A342.29,342.29,0,0,0,103.92,388q2-63.9,2.64-128.16.72-60.12,4.56-119.52C122,135.36,133.44,134.88,145.32,139.08Zm-26-16.2a28,28,0,0,0-9,4.2l-1.56-2.88c-3.12,5.4-4.8,12.24-5.16,20.28-1.56,42.6-2.76,85.44-3.6,128.28q-1.26,64.8-5.16,129.12a143.19,143.19,0,0,1-3.48,23.88c-2.76,12.36-1.68,23,3.36,32l3.12-13.68a26,26,0,0,0,3.36,7l41.16-11.28a85.77,85.77,0,0,0,45-28.68,135,135,0,0,0,27.84-55.92,283.47,283.47,0,0,0,7.2-60.48,328.44,328.44,0,0,0-17.28-110.28q-18.54-55.08-75.24-62.88A44.66,44.66,0,0,0,119.28,122.88ZM295.44,138a516.79,516.79,0,0,0,7.32,58l16.44,90.72-52,2.16,5.88-29.64c4.2-21,8.64-41.88,13.56-62.64a264.28,264.28,0,0,0,6.84-63.72.62.62,0,0,0-.84.36q-13.14,52.92-23,107.64-11.34,62.82-26.76,125a250.93,250.93,0,0,1-9.84,31c-6.36,16.44-8.16,32.28-5.52,47.76a2.83,2.83,0,0,0,1.56-1.2,483.79,483.79,0,0,0,17.64-58.92q9.54-42.3,18.36-85a187,187,0,0,0,56.76,1.68l3.48,20.16a926.8,926.8,0,0,1,11.76,94.44c1,12.6,4.8,22.68,11.4,30.36a3,3,0,0,0,1.08-2.4,421.12,421.12,0,0,0-6-61L322.32,256.92q-10.62-63.54-23-125.64C296.52,132.36,295.2,134.52,295.44,138Zm144.84,75.24c-2.88,15-5.52,30.12-7.8,45.36-2.16,14-3.72,28.32-4.8,42.6a255.81,255.81,0,0,0,.36,40.68,247.1,247.1,0,0,0,6.84,39.48,204.26,204.26,0,0,0,16.92,43.8q12.06,22.5,37.44,19.08a58.46,58.46,0,0,0,39.84-22.8c7.68-10,9.84-20.64,6.36-32L531.36,392l-4.08-4.2L529.2,394c-11.16,22.44-28.8,32.52-52.8,30.48a23.36,23.36,0,0,1-16.68-10.08,116,116,0,0,1-19.92-46.2c-1.44-7.44-2.52-15-3.24-22.56a250.8,250.8,0,0,1-.72-35.52l.48-12.48,56.4-1.32a14.5,14.5,0,0,0,.6-13l-1-1.92a225.83,225.83,0,0,0-55.44,2.88q-2-67.14,41.76-116.16c8.28-9.12,18.36-12,30.48-8.76a49.76,49.76,0,0,1,12.48,5.16c-1.32-19.2-11.76-25.44-31.32-18.6A64,64,0,0,0,456.24,173,115.71,115.71,0,0,0,440.28,213.24Zm-68-27.84q3.42,64.26,3.24,129L375,442.68c20.28,1.8,40.92,4,61.68,6.48,4.2-5.76,4.2-11.76,0-17.88l.12-.72a15.22,15.22,0,0,0-.6-5.76l-.36.84-.24,4.8A293.37,293.37,0,0,1,380.16,424c.36-10.44.72-21,.84-31.68.6-43.08,1-86,.84-129A1223.63,1223.63,0,0,0,374.76,135,229.7,229.7,0,0,0,372.24,185.4Z" transform="translate(-89.84 -121.56)"/></svg>