<svg id="Layer_1" data-name="Layer 1" xmlns="http://www.w3.org/2000/svg" viewBox="0 0 482.05 482.21"><defs><style>.cls-1{fill-rule:evenodd;}</style></defs><path class="cls-1" d="M160.92,134.76A309.43,309.43,0,0,1,186.72,260a504.36,504.36,0,0,1-16.44,127.44,129.54,129.54,0,0,1-12.36,30.84,459.22,459.22,0,0,1-57,80.64l-7.08,8.52a33.72,33.72,0,0,1-21,11.52l1.8-1.44,2.16-1.44.48-.24-2.52.24-1.92,1.56-3,2.4a6.87,6.87,0,0,1-6.48,0l-1.8-.84a620,620,0,0,0,4.56-75Q66.3,379.8,69.84,316T76,187.8q2.34-58.68-.24-116,36.36,2.16,61.32,27.6A117.32,117.32,0,0,1,160.92,134.76ZM73.08,67.92a179,179,0,0,0-4.68,46.32c.12,6.36.12,12.48,0,18.6-1.08,42.6-2.4,85.44-4.08,128.28S61.44,346.68,60.6,389.4c-.84,39.72-2.76,78.84-5.76,117.12a50.72,50.72,0,0,1-.48,11.88,31.42,31.42,0,0,1-2,7.68,31.25,31.25,0,0,0,6.12,11.52l.84,1.08a27.29,27.29,0,0,0,13.2,1.44,47.7,47.7,0,0,0,18.24-10L107.4,515.4l44.16-62.28A106.27,106.27,0,0,0,163,431.88,398.81,398.81,0,0,0,191.28,308.4a549.62,549.62,0,0,0-6.36-128,185,185,0,0,0-39.36-87.72Q118.74,59.34,75.72,58.2v.12a5.14,5.14,0,0,0-2.88,5.28l.24,4.08Zm270,98.52-11,1.68-3.12-83.28c14.88,6.48,23.4,18.24,25.56,35.16a65.74,65.74,0,0,1-9.24,43.2Zm-58.2-31.32q5.58,63.54,14.4,126.6l8,59.4-4.08-.24a265.78,265.78,0,0,1-42.48-2.64l-8.64.72-4.8.36c4.8-20,8.88-40.08,12.36-60.36q10.62-63.18,22.08-126.24l2-12.6ZM230.52,92.76c10.44,23.16,7.32,43.44-9.12,61a29.53,29.53,0,0,1-13.92,8.52L202.2,80.88l22.92,7.32Zm-30.6-20c-2.28,3-2.28,5.64.12,7.92l2.28,171.24-1.08-7.8a107.09,107.09,0,0,0,3.24,37.08A494.69,494.69,0,0,0,208,173.76l11.76-4.44C224.4,205,230.4,240.12,238,274.92a8.6,8.6,0,0,0,1.2,2.64,341.65,341.65,0,0,0-17-109.92q21.24-22.68,20.4-55.56l-.6-6.6-.6-4.08-1.08-3.84L238.92,94A34,34,0,0,0,228.6,80.64a47.94,47.94,0,0,0-12.84-7.08l-7-2.16Zm85.44-3L285,71.4l-.36-.24a1.71,1.71,0,0,0-.72,1.44l-.24,4.32C279.48,95,276.12,113.4,273.36,132q-9.18,61.38-20.4,122.4a1094.65,1094.65,0,0,1-30.84,125.16q-19.62,63.72-37,126.84l-2.4,7.44c-3.24,9.48-2,17.4,3.36,23.52A118.68,118.68,0,0,0,196.92,507a1261.12,1261.12,0,0,1,32.64-123.72c5.28-16.68,10.08-33.6,14.52-50.64,22,2.28,43.68,4,65.4,4.8L316,388.08q7.56,60.3,17.4,117.12l.6,3,.72,4.56-.36-.36.36,1.92-.6,1.08,2.76,2.52c-.36,9.84,2.52,16.56,8.64,20.28a20.65,20.65,0,0,0,2-14.64q-13.68-62.64-22.8-125.88c-6.12-42.36-11.52-84.72-16.2-127.32l-7.32-63.48C296.28,165,291.48,123.12,287,81.24l.48-1c1.56-3.48,1.08-6.12-1.2-7.92l-.12-3.12C285.72,69.36,285.48,69.48,285.36,69.72ZM382.92,289.8c-19.44-1-38.76-1.44-58.08-1.56a10.25,10.25,0,0,0-5.64,1.56l-.24,9,32.76,2c-2.88,40.68-3.72,81.36-2.64,122.28,1,34.2,2.64,68,4.92,101.76.36,4.92,1.68,8.4,3.84,10.44a1497.44,1497.44,0,0,0,1.08-176.76L356.16,301l6,1.2,1-1,19.68.24,1.56-8.16ZM360.48,121.44c-.48-16-6.84-28.68-19.2-38.4-4.56-3.6-8.88-6.84-13.08-9.72l-.12.48-2.28-.48a4.61,4.61,0,0,0-2.16,2.4,7,7,0,0,0-.72,4.92l.72,2.16.48.84,2.64.72-5,181.32-.84-13.32a22.55,22.55,0,0,0-1.32,14.16,154.31,154.31,0,0,0,4.56,17A687.4,687.4,0,0,0,331.32,177c2.4,3.6,5.76,4.68,10.08,3.36a15.51,15.51,0,0,0,8.52-6.24,24.15,24.15,0,0,0,3-6.12A122.06,122.06,0,0,0,360.48,121.44Zm127.8-22.32c13.2,8.64,22.56,21.12,28,37.44a205,205,0,0,1,9.6,45.84,158.57,158.57,0,0,1-2.4,45.84,120.49,120.49,0,0,1-18,42.6C497.52,282.6,487.2,290,474.36,293q4.32-76,4.44-152.16.18-21.78-1.44-43.56ZM473.52,85.2c-1.68,4.2-1.56,8,.48,11.52l.6.72-6.24,184-1.68-8.88c-3,10.2-2,20.28,2.76,30.24l1.32,2.52.84-2,3.24,6.36a36.61,36.61,0,0,0,21.36-10.32l3-3.12,1.44-1.56,1.32-1.8,1.32-1.8a157.13,157.13,0,0,0,19-35,179.61,179.61,0,0,0,10.92-86C530,142.68,520.32,118.68,504,98.16A42.86,42.86,0,0,0,480.48,83Zm-25.8,19.32C449.28,91,442.2,83.76,426.36,83c-21.84,21-32.28,48-31.44,81.24q1.44,48.42.48,96.84-1.62,82.8-4.44,165.48c-.24,6.36-.72,12.48-1.32,18.6A163.74,163.74,0,0,0,388.8,464c0,4.2.24,8.28.6,12.36l1.08,12.24,1,6,1.2,6,1.44,6A172.47,172.47,0,0,0,399.6,524l4.68,11.4C421.44,544,437.4,541.56,452,528a59.46,59.46,0,0,0,18.24-32.52,32.06,32.06,0,0,0,.48-7.56,45.58,45.58,0,0,0-1.2-7.8l-.72-2.52-6.12,11-.48-3.48c-2.16,17.4-11.52,29.88-28.2,37.2-10.68,4.8-19.44,3-26.4-5.52a25.81,25.81,0,0,1-3.72-6.6,59.26,59.26,0,0,1-3.24-12.84c-1.08-8-1.92-16.2-2.28-24.36l-.84-19.8-.24-10v-10l.12-10,.24-10L400,339.12l.72-24.72,37.68,2.4a14.81,14.81,0,0,0,.72-12.36l-.84-1.92L401,302q-6.66-92.7,12.72-180.84a51.3,51.3,0,0,1,13-24.36l9.12.84,5.16,4.08Z" transform="translate(-52.32 -58.2)"/></svg>