<svg id="Layer_1" data-name="Layer 1" xmlns="http://www.w3.org/2000/svg" viewBox="0 0 304.39 213.14"><defs><style>.cls-1{fill-rule:evenodd;}</style></defs><path class="cls-1" d="M277.56,295,301,211.08l19.32,85Zm-114.72,27.6q2-57.06,1.8-114.12a27.1,27.1,0,0,1,14,1.68q38.34,15.3,48.84,57.24,13.14,53.28-18.36,98.4a119.42,119.42,0,0,1-16.92,11.4A12.54,12.54,0,0,1,184,378.6l-25.44-4C160.8,357.6,162.24,340.2,162.84,322.56Zm1.68-127.2-1.32-3.72-.84,4.56L161,197c-1.8,4-1.68,7.56.6,11a1583.11,1583.11,0,0,1-11.16,165.24h-.72a1.87,1.87,0,0,0-.72,1c-2.28,6.24-1.44,11.64,2.28,16.2l2.88,9.12,1.44-7.44q30.06,13.5,50.76-9l5.16-6,2.4-3c2.28-3.12,4.44-6.24,6.36-9.48a106.37,106.37,0,0,0,7-13.2,130.09,130.09,0,0,0,10.8-66.12c-2.64-27.48-13-51.36-30.84-71.4A58.58,58.58,0,0,0,171,194.52Zm137,.12-.12-2a27.31,27.31,0,0,0-8.88,14.64Q276.72,269.46,260,331.2a172.42,172.42,0,0,1-11,29.64c-6.36,13.32-8.64,26.28-7.08,39a30.41,30.41,0,0,0,8.76-13.8q12.78-39.42,23.76-79.56A119.34,119.34,0,0,0,322.68,308L331,348.12l6.24,32.16c1.8,9.48,5.4,16.2,11,20.4a11.32,11.32,0,0,0,1.68-10.32A630.38,630.38,0,0,1,333,317.76a852.15,852.15,0,0,0-30.48-123.24Zm127.56.48c-15.36.6-28.08,7.44-38,20.4a102.38,102.38,0,0,0-17.76,35.16,307,307,0,0,0-9.12,46.56,191.88,191.88,0,0,0,.36,46.92,115.65,115.65,0,0,0,14.64,43.56c8.16,14.16,20.88,19.08,38.28,14.64a46.3,46.3,0,0,0,25.8-16.92l.48,16.92,3,1.32a55.34,55.34,0,0,0,5.4-25,279.72,279.72,0,0,0-3-37.56,21.75,21.75,0,0,1-11.76,0,13.31,13.31,0,0,0-11,1.68l-1.08.72v8.16l20,2.64-.84,12.36a69.48,69.48,0,0,1-34,18.12,68.06,68.06,0,0,1-23.64,1A80.65,80.65,0,0,1,373,352.08a251.39,251.39,0,0,1-.84-67.8,130.07,130.07,0,0,1,6-26,93.42,93.42,0,0,1,17.52-30.48c6.24-7.08,13.68-11.52,22.44-13.08A44.75,44.75,0,0,1,450.72,221a22.54,22.54,0,0,0-7.92-15.84A70.23,70.23,0,0,0,429.12,196Z" transform="translate(-147.78 -191.64)"/></svg>