<svg id="Layer_1" data-name="Layer 1" xmlns="http://www.w3.org/2000/svg" viewBox="0 0 552.46 525.96"><defs><style>.cls-1{fill-rule:evenodd;}</style></defs><path class="cls-1" d="M324.36,516.48a86.11,86.11,0,0,0,38.52,3.84q-32.4,11.7-41.76,38.76a6.53,6.53,0,0,0,0,3.72A193,193,0,0,1,391,567.36,12.41,12.41,0,0,0,392.4,560a8.53,8.53,0,0,0-1.92-4.8,107,107,0,0,0-52.8-5.76l41.4-29.4L378.72,510l-54-.84Zm-3.24-18.36,36-1.32.24-10.56-32.64-1.08a96.34,96.34,0,0,0,1.56-36.6c-6.36,11.88-8.4,25.2-6.12,39.84A88.83,88.83,0,0,1,321.12,498.12Zm18.72-91.2-11.4,2.16c3.48-6.12,8.52-8.52,15.12-7l-.84,1.92Zm-12.72,14.64a128.17,128.17,0,0,0,30.24,27.84c1.56-3.24,1.32-6-1-8.4l-19.32-21.12c7.08-1.56,11.28-6,12.84-13.2,2.28-10.44-2.16-16.44-13.32-17.88-13.2,8.52-21.12,21-23.64,37.44a20.51,20.51,0,0,0,2.76,14.28l7.92-19.92ZM79.56,69.24a17.29,17.29,0,0,1,9.24,5.4,110.92,110.92,0,0,1,25.08,46.44,574,574,0,0,1,19,125.4A589.92,589.92,0,0,1,124.2,375a331.57,331.57,0,0,1-17.64,62.52,272.19,272.19,0,0,1-34.32,63,120.48,120.48,0,0,1-52.32,41.4,345.26,345.26,0,0,0,4.8-49C26,450.12,27,407,27.72,364s1.56-86,2.64-129.12Q32,170.76,36.24,106.68c1.2-18.6,2.16-36.6,2.76-54.24a93.59,93.59,0,0,1,22.68,6.24,18.47,18.47,0,0,0,6.24,4.2A17.45,17.45,0,0,1,73.08,66l2.64.72a7.72,7.72,0,0,1,3,1.8ZM35.52,52A111.42,111.42,0,0,0,30.6,77.28c-1.08,12.6-1.8,25.32-2.4,38.16-1.8,43-3.12,86-4.2,129.24s-1.92,86-2.76,129-2.76,85.56-5.76,128.16Q14.58,513.9,13,526a71.54,71.54,0,0,0,0,19l-.24.36A20.62,20.62,0,0,0,11.4,555a7.44,7.44,0,0,0,3.24,5.64,23.48,23.48,0,0,0,14-3.84q40.68-25.56,65.88-68.52a199.57,199.57,0,0,0,20.16-47.16,696.38,696.38,0,0,0,22.8-125.4A524.35,524.35,0,0,0,133,187.8q-5.22-32-11.64-64.08Q106.92,53,35.76,41.4a2.77,2.77,0,0,0-1.56,2.16A17.68,17.68,0,0,0,34,49.2l.36,2.52Zm153.36,97.2a41.23,41.23,0,0,0-8.16-16.56,40.41,40.41,0,0,0-14.52-10.8,70.39,70.39,0,0,0-12.12-3.6l-.12-3.48-2.52,4.56-5.16,105c-.36,8.28-.6,16.44-.6,24.72q0,11.88,1.08,23.76l1.44,15.48a387.88,387.88,0,0,0,7-85.8l11.28-2.16q4.68,52,26.4,93.84A504,504,0,0,0,170,199c12.84-5.88,19.56-16,20.28-30.24a88.51,88.51,0,0,0-.24-11.28A49.21,49.21,0,0,0,188.88,149.16Zm-3.36,9.72c.36,20.76-9.72,31.56-30.24,32.16.24-21.72,0-43.44-.84-65,13.32,2.52,23,10.32,28.92,23.4A22.29,22.29,0,0,1,185.52,158.88Zm56-45.72a108,108,0,0,0,1.2,45q14.22,63,26,126.48l6.48,35.76-12.84-.84c-20.76-2.52-40.32-1-58.56,4.44l4.32-18.36q7.38-31.32,16.2-62.16a374.8,374.8,0,0,0,14.16-126.36,161.54,161.54,0,0,0-6.6,34.8,560.12,560.12,0,0,1-15.84,93L184.2,368.76Q168,431.76,149,493.92c-3.24,10.44-6.6,20.76-10.32,31-4.2,11.52-4.2,22.2-.24,31.92a4.82,4.82,0,0,0,3-3.72q15.84-62.1,34-123.48,14-47.7,26-95.76a643.07,643.07,0,0,1,76.08-.48q6.66,38.34,12.84,76.92,9.72,62.28,14.88,125.28c1.08,12.12,4.2,22.2,9.36,30.48a2.54,2.54,0,0,0,1.2-2.4q-2-34.38-6.48-69.12Q301.44,431,291.24,367.8T266.88,242.16q-14-62.1-23.16-125l-.24-.72A6.35,6.35,0,0,0,241.56,113.16Zm-11-61.2Q204.6,41.7,192.84,67.08c-7.08,15.24-5.28,29.4,5.16,42.24,7.92,9.72,17.64,11.88,29,6.48v-8.88a66.63,66.63,0,0,1-25.8-5.4A22.67,22.67,0,0,1,194.76,82l.36-1.8.48,2.64,32.52,1.32a8.83,8.83,0,0,0,1.08-7,12.38,12.38,0,0,0-1.68-3.6l-29.76,1.2c8-11.52,19.08-16.2,33-13.92a5,5,0,0,0,1.32-4,10.57,10.57,0,0,0-1.2-4.08Zm49.92,17q-.9,64.26-5.4,128.16c-.84,12.12.72,22.8,4.68,31.8,2.28-16,3.72-32.16,4.44-48.72q2.88-65,.72-128.28C282,56.64,280.56,62.28,280.44,69Zm62.4-16.56c-16.68-4.44-29,1.68-37.08,18.24-7.44,15.36-6,29.64,4.32,43,9,11.52,18.72,11.4,28.92-.24l1.32,22.44c6.12-15,7.2-31.08,3.24-48.48L322,88l-.84,6.48,19.8,1.68-.84,9.72-1.32-7.08c-6.36,10-14.4,12-24.24,6.12-5.88-3.48-7.92-9-6.36-16.32,4.08-18.84,16-27.12,35.76-24.72a9.9,9.9,0,0,0,1.2-7.56l-1-3Zm15.6,330.36a443.21,443.21,0,0,0-11.28-57c-1.08-1.92-2.28-2-3.84-.48l-15.72,43v-.84c-3.24-14.64-5.88-29.28-8-43.8a149.81,149.81,0,0,0-17,59.76,375,375,0,0,0,15.12-44.64A135.14,135.14,0,0,0,328,381.48c6.36-14.76,12.24-29.16,17.76-43.44A141.91,141.91,0,0,0,357.36,385,2.19,2.19,0,0,0,358.44,382.8Zm70.44-40.2q-4.86-30.24-24.12-7.44a85.88,85.88,0,0,0-19,40.8,345.25,345.25,0,0,0-4.68,38.76c-.72,10.56-1.2,21.12-1.32,31.68l-.36,31.8A198.59,198.59,0,0,0,385,523.44c3.72,16,12.6,28.08,26.52,36.36q24.48,14.76,35-12.72a32.64,32.64,0,0,0,1-20C435.36,553,420.6,554.28,403,530.88A85,85,0,0,1,387.12,495a128.48,128.48,0,0,1-1.68-13.44l-.24-9.36c0-9.6.12-19.2.24-28.92a169.22,169.22,0,0,0,41.16,1.44c3.24-4.44,3-8.52-.6-12.36l-.72-.72-39.72,2.28q-3.78-52.74,23.28-97.8l11-1.44Zm-60.6-124a498.82,498.82,0,0,0-37,50q-8.46-26.1-30.24-46.2c-1.08,0-1.44.48-1.08,1.56a394.69,394.69,0,0,0,26.52,46.56,5,5,0,0,0,2.52,1.68,147.24,147.24,0,0,1-12.84,17c-7.92,9-9.12,17.4-3.48,25.08q21.6-32.22,44.16-63.72c7.08-9.84,11.4-19.92,13.2-30.36l-.72-.84ZM361.8,57.12V52a55.77,55.77,0,0,0-5.28,23.76,1130,1130,0,0,1-8.88,128c-1.32,9.72,0,17.64,3.84,23.52a311.54,311.54,0,0,0,7-47.76c2-34,3.24-67.68,3.36-101a67.5,67.5,0,0,0,1.68,8.28l23.88,90.84A189.7,189.7,0,0,1,392.88,209c1,9.72,4.32,16.68,10,21a5.48,5.48,0,0,0,.84-3.24l-.36-6.36a246.46,246.46,0,0,0,6-38Q414.54,118.14,414,55c-2.4,1-3.6,3.12-3.72,6.48q-2.7,64.44-10.8,128l-.24,2.4c-1.08-4.8-2.28-9.6-3.6-14.28q-17.46-61-32.52-122.88c-.6-.12-.84,0-1,.36Zm177,30c-3.36-19-15.6-28-36.6-27a28.39,28.39,0,0,0-10.44,4.32l-4.68,2.64a125.36,125.36,0,0,0-25.2,66.6A130.73,130.73,0,0,0,464.64,173a239.12,239.12,0,0,0,33.48,79,433.57,433.57,0,0,1,48.24,97.8Q568,412.62,539,471.36a25,25,0,0,1-15.24,13.56c-21.12,6.84-41.52,3.72-61.2-9.12a18.21,18.21,0,0,1-6.12-6.36q-5.94-11-13.32-16.2a23,23,0,0,0,.6,20.76,35,35,0,0,0,7.8,10.32c18.6,16.92,40.2,24.36,64.68,22.56a16.32,16.32,0,0,0,10.56-4.8q39.78-40.32,36.72-99.24A268,268,0,0,0,529.8,286.32l-48-87q-25.2-46.26-7.44-96.36c8.76-24.84,25.8-33,51.36-24.72,3,3,6,6.12,8.76,9.36,1.2,1.44,2.64,1.56,4.2.36Z" transform="translate(-11.28 -41.4)"/></svg>