<svg id="Layer_1" data-name="Layer 1" xmlns="http://www.w3.org/2000/svg" viewBox="0 0 309.77 213.96"><defs><style>.cls-1{fill-rule:evenodd;}</style></defs><path class="cls-1" d="M284.64,292.68l14.88,1.08-6.36-39.6a192,192,0,0,1-2.64-43q-8.82,42.12-19.68,84.24ZM160,207q3.6,59.22,3.12,119.52c-.12,19.92-1,39.72-2.52,59.28,22.8-.12,40.8-10.56,53.88-31.08a82.14,82.14,0,0,0,12.84-37.32q-.18-65.7-48.84-107.4c-4.08-3.6-8.76-4.44-14.16-2.64A4.51,4.51,0,0,1,160,207Zm14.28-13Q206.1,211.86,220.68,247q26.1,62.82-3.12,122.88a64.55,64.55,0,0,1-20.76,24.48q-22.14,16-48,6.12a13.61,13.61,0,0,1-2-8.16,16,16,0,0,1,2-7.32l5.28.6c-.12-16,.24-32.28.84-49.08q2.52-64.44.84-128.88c-.12-3.72,1-6.6,3-8.64l.12-.36a27.65,27.65,0,0,1,15.36-4.44Zm161.28,14a109.81,109.81,0,0,0-15.72,38,123.14,123.14,0,0,0,11.4-5.28,9.07,9.07,0,0,1,5.88,1l.84.6a8.54,8.54,0,0,1,1.92,7.32,6.28,6.28,0,0,1-2.4,4.08l-17.16,4.92-1-.36L318,258c-.36,4.2-.6,8.4-.6,12.6l.48,17c2.64,2.64,6,3.24,10.08,1.68a47.85,47.85,0,0,0,18.36-19.2,3.81,3.81,0,0,1,1.32-1.44c2.76,11.88-1.2,21.72-11.88,29.64l-7.32,4.92L319.8,303c-7.8-9.48-10.92-21.48-9.12-35.88A239.78,239.78,0,0,1,324,212.4a43,43,0,0,1,11.52-17.28l7,.6a.91.91,0,0,1,.84.48,32.51,32.51,0,0,1,7.44,12.12,7.26,7.26,0,0,1-.6,6.48c-2,.48-3.48-.24-4.56-2.16a14.38,14.38,0,0,0-4.2-4.32l-.48-.24ZM292.68,193.2c4.08,42.12,10,84.24,17.52,126.12,2.52,13.92,5.52,27.84,8.76,41.64a100.09,100.09,0,0,1,1.68,41.64c-5.16-4.68-8.4-12-9.48-21.72-2.76-24.6-6-49-9.6-73.32a246.7,246.7,0,0,0-32.64.36l-.6-.84-.36-.6-4.44,16.68a399.59,399.59,0,0,1-28.32,74c-.24.36-.84.48-1.68.48-1.44-13.56,1.56-26.88,9-39.84a79.32,79.32,0,0,0,6.72-15.24,1263.3,1263.3,0,0,0,33-123.36c1.44-6.84,3.12-13.68,5-20.4a6.28,6.28,0,0,1,4.08-2.4l.36.48.48-3.6ZM430,194.28q-2.34,46.08-3.36,93.6a48.17,48.17,0,0,1,17.16-5.16l5.28.48c.84-19.56,1.08-39,1-58.56-.12-10.56,2-19.56,6.24-26.88q1.08,63.54-2,128.28a601.86,601.86,0,0,1-9.36,81l-1.32.12q.36-47.34,3.84-95.76l1-14.16-22,2.64-.48,21.84q-.54,40.32-4.56,79.56c-1.32,1.56-2.64,1.56-4.08.24q1.62-63,2.52-127.44a357.24,357.24,0,0,1,9.6-79.44Zm-37.08.84,5.64.84,3.6.48,1.56,1.68a13.49,13.49,0,0,0,5.16,3.24A45.14,45.14,0,0,1,415,216a13.65,13.65,0,0,1-1.56,10.2,21.13,21.13,0,0,1-1.68-2.76,42.27,42.27,0,0,1-2.64-7.44c-11.88-11.4-21.24-9.48-28,5.64a72.19,72.19,0,0,0-6.36,25.68,604.33,604.33,0,0,0,28.68,76.08c9,19.8,9.12,39.48.48,58.8-2.88,6.48-7.92,11-15,13.8-25.56,9.72-43.08,2.16-52.32-22.68-4.8-12.84-5.76-25.32-2.76-37.56a150.15,150.15,0,0,0,17.76,37.08c6.84,10.68,16.92,13.56,30,8.88a42,42,0,0,0,18.48-12.84,23,23,0,0,0,4.68-10.44A273.37,273.37,0,0,0,376.2,276.6a59.92,59.92,0,0,1-6.48-20.28q-4.32-35.46,19.92-58.8A14.08,14.08,0,0,1,392.88,195.12Z" transform="translate(-146.75 -193.2)"/></svg>