<svg id="Layer_1" data-name="Layer 1" xmlns="http://www.w3.org/2000/svg" viewBox="0 0 411.3 360.15"><defs><style>.cls-1{fill-rule:evenodd;}</style></defs><path class="cls-1" d="M254.28,258l-6.24-.84a59.45,59.45,0,0,0-26.28,1.68l32.16-131.52L270.48,258.6l-10.2.48Zm-96.12-89.28q26.1,60.66,22.68,128.16-.9,16.38-1.08,32.4-1.08,53.28-45.48,80c-21,12.72-43.56,17.88-67.44,15.48a373.92,373.92,0,0,0,3.24-41.16c1.08-42.72,2.76-85.44,4.8-128.28s4.92-85.44,8.52-128a97.35,97.35,0,0,0-.24-20.52l22.32.12Q141.66,130.14,158.16,168.72ZM80,94.8l-.36,2.4-1.2.72a24.25,24.25,0,0,0-.72,4.08,8.05,8.05,0,0,0,.72,3.36C76.2,121.2,74.76,137.4,74,154Q71,218,67.44,282.24T59.52,410.4a87.58,87.58,0,0,0,.12,14.88,15.41,15.41,0,0,0-1.2,5.16,15.78,15.78,0,0,0,1.92,8.16l2.16.36,1.32,3.72.72-3.48c27.48,3.24,52.92-2.52,76.32-17.52a71.43,71.43,0,0,0,24.48-26.28A165.19,165.19,0,0,0,185.52,323,474.29,474.29,0,0,0,175,196q-14.4-65.7-71.16-101.52c-8.52-2.28-16.08-1.68-22.68,1.92l-.48-1.68ZM255.6,105.24l.12-4.8Q240.24,155.34,227,213.12l-10.56,47-3.6,1-.36,1.68-.36,1.56v2.4a10,10,0,0,0,.72,2.52h1.56q-7.56,34.2-14.64,68.52a529.63,529.63,0,0,1-17,61.8c-4.2,12.36-4,22.68,1,31.2A56.1,56.1,0,0,0,191,412.44q13.14-62.82,25.08-125.52l3.48-17.64a398.58,398.58,0,0,1,50.64,3.24l1.44-1.56,1.08,12.36q5.4,63.54,11.52,126.72c1.08,12,4.08,22.2,8.76,30.48a2,2,0,0,0,.6-1.68q-.9-42.84-6.12-86.16-7.38-63.54-16.2-127t-14.52-127Zm71.52.24v-1.32l-.72,1.56a11.09,11.09,0,0,0-3.24,1l-2,1.32a7.74,7.74,0,0,0-.36,2.4,5.72,5.72,0,0,0,.48,2.4l.48.84,1.68.12A48.86,48.86,0,0,0,322,124.44q-2.52,64.08-6.36,128.28t-7,128.28a144.3,144.3,0,0,1-3.12,24c-2.52,11.88-1.92,22.8,1.8,32.52a63.42,63.42,0,0,0,7.2-29.76q.72-64.44,5.76-128.28l.36-5.16a83.75,83.75,0,0,0,18.84-11.76q4.86,22.86,10.08,45.72,14.22,62.1,27.12,124.08c2,9.48,5.64,16.44,11,20.88a2.94,2.94,0,0,0,.6-2.4Q383.1,413.76,375,376.56a1012.77,1012.77,0,0,0-32.88-116.28l5.76-5.64q42.3-45.18,27.6-105.84-9.18-38-45.36-43.32ZM426,145.2q21.24-24.66,40.68-2.28l.12-.84c-.12-13.8-7.08-21.6-20.88-23.52-18.12,6.72-31,19.32-38.28,37.8a316.64,316.64,0,0,0-22.32,103.08A952.76,952.76,0,0,0,388,387.72a108.78,108.78,0,0,0,15.12,46.8q18.72,31,46.92,7.08c15.24-13,21.72-28.08,19.2-45.48a123.78,123.78,0,0,1-32.28,35.4A12.09,12.09,0,0,1,424,433c-15.24-6.36-24-18-26.52-34.8a718.43,718.43,0,0,1-7.56-78.84c-.6-14-.48-27.84.12-41.64a184.85,184.85,0,0,0,48.84,0l.48-1a11.39,11.39,0,0,0-.48-12.84l-48.24,2.76a486,486,0,0,1,10.92-73.08A111.6,111.6,0,0,1,426,145.2Zm-54.84,8.52a104.87,104.87,0,0,1,.72,44.88,77.44,77.44,0,0,1-20.28,39.12,134.07,134.07,0,0,1-29.88,23.4,1306.63,1306.63,0,0,0,5.64-147c16.44,1.92,28.8,10,37.32,24A56.32,56.32,0,0,1,371.16,153.72Z" transform="translate(-58.43 -93.09)"/></svg>