<svg id="Layer_1" data-name="Layer 1" xmlns="http://www.w3.org/2000/svg" viewBox="0 0 298.12 208.7"><defs><style>.cls-1{fill-rule:evenodd;}</style></defs><path class="cls-1" d="M288.84,285.72,293.28,274l1.92,11.64ZM159.12,375.84q2.34-82.62,1.2-169.44,33.66.54,52.2,27.72a78.56,78.56,0,0,1,7.2,12.84,104.11,104.11,0,0,1,4.08,11.28,155.16,155.16,0,0,1,4,15.12A112,112,0,0,1,229,310.8a114.45,114.45,0,0,1-23.28,56,29.19,29.19,0,0,1-13.44,10,45.67,45.67,0,0,1-27.48,1l2.52-3.84-5.76,3.48Zm.24-183.12Q155,199.2,155,208.92q.18,64.26-3.84,128.16l-2.64,32.4c-1.08,12.12.36,22.68,4.56,31.8l1.92-6.36a68.88,68.88,0,0,0,32.16,1.44A13.7,13.7,0,0,0,193,394c24.12-16.68,38-40.08,42-70.2a269.65,269.65,0,0,0,2-42.84q-1.8-64.8-61.68-87.72A25,25,0,0,0,159.6,195Zm164.88,18.6a52.74,52.74,0,0,1,22.56,11.76,26.78,26.78,0,0,0-5.4-17.88,20.62,20.62,0,0,0-11.28-8,41.39,41.39,0,0,0-12.12-2,45.59,45.59,0,0,0-16.08,2.52,72.06,72.06,0,0,0-33.6,28.56,115,115,0,0,0-16.2,39,287.6,287.6,0,0,0-5.76,42.72,214.76,214.76,0,0,0,1.92,43.92c2.4,16,9.48,28.8,21.36,38.76s25.44,13,40.8,9.24q26.46-6.3,30.6-31.32a18.11,18.11,0,0,0-1.2-10.08,60.9,60.9,0,0,1-30.12,22.92,47.87,47.87,0,0,1-19.8,2.28,52.08,52.08,0,0,1-10.2-1.8,32.64,32.64,0,0,1-12.48-7.56,35.23,35.23,0,0,1-10.44-20.64,273.54,273.54,0,0,1-3.12-51.48l20.64-.12c-4.08,11-5.28,21.72-3.48,32l.24.24,2.4-1a10.79,10.79,0,0,0,1.44-2.88l.36-2.28L275,326l-.72-2.4L282.6,302l16.2-.24,12.6,33.48-6.72-33.48,35.4-.36a10.61,10.61,0,0,0,2-6,13.74,13.74,0,0,0-.84-5.76,9.81,9.81,0,0,0-1.44-2.4L301,285.48l-4.44-19.8,1.32-3.72-1.08-2.4-1.32,1.8-1.08-8.28-2.76,4,.72,8.64L280.92,286l-26.76,2.16a86,86,0,0,1,16-47.4,89.57,89.57,0,0,1,22.68-22.44,57.61,57.61,0,0,1,14-6.6A32.9,32.9,0,0,1,324.24,211.32ZM432.12,319.2c9.24,15.12,9.72,29.64,1.44,43.68s-20.76,20.4-37.8,19.32a67.31,67.31,0,0,1-19-3l2-78,17.76-.12C411.84,299.4,423.72,305.4,432.12,319.2Zm-3.84-72.72A89.29,89.29,0,0,1,417.48,270c-9.24,14-22,20-38.4,18q.54-39.24-.36-77.64a95.92,95.92,0,0,1,19.56,4l14.64,9.84C421.08,229.8,426.24,237.24,428.28,246.48Zm-51-51.84-1,5L374.4,201l.84,9a1258.53,1258.53,0,0,0-4.68,187.68,12.57,12.57,0,0,0,.6,3.6l3.12-4.68q21.42,8.28,43.92-1.44l6.12-3.24a51.38,51.38,0,0,0,8.52-6.48l4.2-4.2a30.87,30.87,0,0,0,8.16-16.68c4.2-26.76-3.24-50.28-22.08-70.56l-2.64-2.88-4-1.08c12.36-12.6,17.28-27.48,14.76-44.88l-.84-4.8a48.37,48.37,0,0,0-3-8.88,60.33,60.33,0,0,0-3.84-7.92,40.67,40.67,0,0,0-9.36-11.4,57.52,57.52,0,0,0-35.64-13.44Z" transform="translate(-148.22 -192.68)"/></svg>