<svg id="Layer_1" data-name="Layer 1" xmlns="http://www.w3.org/2000/svg" viewBox="0 0 443.94 308.65"><defs><style>.cls-1{fill-rule:evenodd;}</style></defs><path class="cls-1" d="M309.84,262.56l20.64-84.72,5.88,81.24ZM83.76,131.64q31.32-.9,51,26.28A206.41,206.41,0,0,1,164,217.08q19.62,63.54,1.44,127a261.28,261.28,0,0,1-11.76,32.4c-6.48,14.76-17,24.48-31.8,29.16-18.36,6-36.24,6.48-53.64,1.32l.24-2.28c1.2-19.8,2.64-39.48,4.44-59.28q5.76-63.9,7.8-128.28.9-32.4,4.32-64.08A65.1,65.1,0,0,0,83.76,131.64Zm-3.6-9.6-19,282.48-1.92-.84a16.44,16.44,0,0,0-1,14.76l.48.72.6.84.72.6,2,1,.72,1.68a272.14,272.14,0,0,0,30.24,5.4H98l4.8-.12,6.6-1.08a27.32,27.32,0,0,0,6.12-1.08,29.51,29.51,0,0,0,5.76-1.92,54.46,54.46,0,0,0,5.4-2.52,39.11,39.11,0,0,0,13.56-11.52c21.72-28.68,34.32-60.84,37.56-96.6a253,253,0,0,0-1.68-60.24,262.2,262.2,0,0,0-37.68-102.84,68.41,68.41,0,0,0-22.32-22.32A52.7,52.7,0,0,0,86.4,120,12.41,12.41,0,0,0,80.16,122Zm158.28,15.72a123.86,123.86,0,0,0-35.16,70.56,1004.88,1004.88,0,0,0-10.68,127.8c-.6,27.72,7,52.56,22.92,74.76A15.67,15.67,0,0,0,227,417.6c22.68,2.52,41.64-4.92,57.12-22.56q14.58-16.56,11.88-32.4a2.12,2.12,0,0,1-.84,1.32l-2,1.08-.72.6L292,367.2l-.36.84-.24.72-.48.84q-18.72,25-49.44,33.6c-7.68,2.16-14.16.6-19.44-4.8-14.28-14-21.72-31.2-22.56-51.48a539.91,539.91,0,0,1,1.32-63.84,104.7,104.7,0,0,1,47-7.32,16.37,16.37,0,0,1,6.48-4.56l.36-.84a6.76,6.76,0,0,0-1.08-7.32c-18.48-3-35.64-.6-51.6,7a455.15,455.15,0,0,1,20.4-94.92c5-15.36,15.24-25.68,30.48-30.84q32.4-11,42.12,16v-.84q2.88-33.48-34.2-33A39.29,39.29,0,0,0,238.44,137.76ZM355.08,418.08q8.82-40.86-4-88.92A228.93,228.93,0,0,1,343.8,283c-.36-5.28-.6-10.56-.72-16l.84-6.72-.72-.6-1-.12a1110,1110,0,0,1-5.4-119.64l-3.24,6.72-1.08-9.48L301.8,264l-4.2.6.6,8q-10.62,31.68-24,63.84A17.5,17.5,0,0,0,273,342a21.49,21.49,0,0,0,.48,5.52,24.85,24.85,0,0,0,3.24,8.28,628,628,0,0,0,29.76-81.36l30.6-4.92a1302.56,1302.56,0,0,0,15.72,146.4Zm121.08-271.2c-28.68,18.6-45.36,46.56-50,84.12l-4.44,35.76a539.07,539.07,0,0,0-1.44,116.4,30.18,30.18,0,0,0,2.16,8.76A40.29,40.29,0,0,0,433.8,408a20.25,20.25,0,0,0,3.72,2.52l2.88.12A87.74,87.74,0,0,0,471.6,391Q497.88,365,500.88,329a16,16,0,0,0-2.76-10.56q-10.62,49-51.72,73.44c-4.68,2.76-9,2.4-12.72-1.2a9.75,9.75,0,0,1-2.64-4.56A219.84,219.84,0,0,1,424,319.32a286.85,286.85,0,0,1,3.72-36.48L430,268.56a96.16,96.16,0,0,0,49.44-3.12v-8.88c-15.36-4.32-31.2-4.2-47.4.36q1.08-52.56,34.44-87.12a27.06,27.06,0,0,1,20.64-8.28,17.53,17.53,0,0,1,6,11.52l-.12,1.8c4.92-13.56.36-22.56-13.8-27ZM361.44,135.6q.72,57.78,6.36,117,6.12,63.9,11.4,127.44l.6,5.52a42.82,42.82,0,0,0,4.92,21.6l1.44-1.92a37.46,37.46,0,0,0,3.24,5.16,21.22,21.22,0,0,0,2.88-15.72l-2.76-16.92q7.74-56.88,18.6-114,5.94-31.5,12.84-62.88a419,419,0,0,0,9-62.64,739,739,0,0,0-27.72,112.08L385.32,349.8q-5.76-40.86-9-82.08-5-63.36-13.2-125.88l.12-.84Q365.22,137.22,361.44,135.6Z" transform="translate(-57.01 -119.99)"/></svg>