<svg id="Layer_1" data-name="Layer 1" xmlns="http://www.w3.org/2000/svg" viewBox="0 0 451.08 431.39"><defs><style>.cls-1{fill-rule:evenodd;}</style></defs><path class="cls-1" d="M126.12,92.28a62.29,62.29,0,0,1,34.32,21.6q37.08,45.9,45.72,106c3,21,5.64,42,7.8,63.24Q220.62,349,191,408.24a83.82,83.82,0,0,1-9.84,15.12Q142,470.7,80.4,481.32l-1.56,3a647,647,0,0,0,5.52-81.12q.54-64.62,2.28-129.12c1.2-43.08,3-86.16,5.4-129a391.6,391.6,0,0,0-1-58.32A206.6,206.6,0,0,1,126.12,92.28Zm71,62.16Q179,93.78,119.52,76.08A113.68,113.68,0,0,0,88.8,77.64l-.72,1.68a11.53,11.53,0,0,0-.36,4.08,8.25,8.25,0,0,0,.6,2.88c-2.76,24.36-4.68,49.08-5.52,74.16q-2.16,63.9-3.48,128.28l-2.88,129a406.27,406.27,0,0,1-4,48.48c-1.8,12.12-.72,22.92,3.24,32.52a2.43,2.43,0,0,0,1.2-1.56l1-6.24a11.75,11.75,0,0,0,4.68,8.28A182.42,182.42,0,0,0,145,478q28.26-15.66,43.68-42.48a233.57,233.57,0,0,0,31.44-122.16,656,656,0,0,0-14.64-126.48Q202,170.46,197.16,154.44Zm61.44-74C271.92,89.64,277.44,102.48,275,119q-4.68,31.5-36.48,38l4-75.36Zm-22.2,13q-2.34,34.38-5,68.76v1.32l-4.92,57.36a77.62,77.62,0,0,1-3.12,15.72c-3.84,12.6-3,23.28,2.52,31.92a299.52,299.52,0,0,0,9.84-61.56l2.28-38,6-1.2a636.92,636.92,0,0,0,30.36,110,10.31,10.31,0,0,0,2.52-7.32,110.29,110.29,0,0,0-3.48-23.28,561.67,561.67,0,0,0-27-80.16c14-4.32,23.88-13.8,29.28-28.56a82.89,82.89,0,0,0,5.16-33.24C279.72,84.72,269.4,72.84,250,69.6a14.72,14.72,0,0,0-9.72,5.76,6.54,6.54,0,0,0-1.32,6.24A39.72,39.72,0,0,0,236.4,93.36ZM363.6,72q-28.44,16-40.32,46.92A222.42,222.42,0,0,0,309,183.6c-2.76,42.6-5.28,85.32-7.32,128.28q-3.06,64.08-1.32,128.28c.6,22.44,9.12,40.92,25.44,55.2a21.19,21.19,0,0,0,16.68,5.52q32.4-2.34,49-32.4a69.48,69.48,0,0,1,8.4-12c9.72-11.64,11.76-23.28,6-35.16a2.74,2.74,0,0,1-1.44-.72,2.41,2.41,0,0,0-2-.84l-.24.48.72,2.52.12,1.56-.12.72A222.39,222.39,0,0,1,372.48,469q-22.86,25.74-48.84,5.28a15.15,15.15,0,0,1-5.64-8.16,362,362,0,0,1-11.28-115.8l3.84-64.8,53.4,2.76a14.17,14.17,0,0,0,1.56-7.32l-.24-1.68-.24-1.56a12.85,12.85,0,0,0-1.08-3.24c-.36-.36-.6-.48-.84-.48l-40.56-1.44-.6.12-10.68.84,2.88-51.36c.6-10.8.84-21.6.6-32.4q-1.44-60.84,43.44-100.2a9.07,9.07,0,0,1,9.24-1.92,64.77,64.77,0,0,1,17.28,8.76v-.84C384.36,81.72,377.4,73.92,363.6,72ZM484.08,86.76a78.24,78.24,0,0,0-32.76,29A133.92,133.92,0,0,0,433.44,159q-5.22,22.68-9,45.72c-2.16,12.84-4,25.68-5.28,38.76s-2.16,26-2.76,39.12c-.6,13.92-.72,27.84-.48,41.76.24,15.24.72,30.36,1.56,45.48L420,415.08a109.54,109.54,0,0,0,12.6,45.24c7.68,14.52,19.68,21.72,36,21.48,15.72-.24,28.68-6.84,39.12-19.68,6.24-7.68,7.44-16.2,3.72-25.44l-4.08.24c-5.76,15.72-17.64,25-35.52,27.6A33.45,33.45,0,0,1,445.56,458,35,35,0,0,1,431,433.56c-1.32-9-2.28-18-3.12-27s-1.44-18.12-1.8-27.24l-3-74-.6-19.44,47.76-2.76a14.49,14.49,0,0,0,1.56-8.4,12.84,12.84,0,0,0-2.4-6.24,138.65,138.65,0,0,0-46.8,5.88q-1.26-87.3,42.84-160.56,25.38-24.3,57.24-10.44v-6C513.12,82.56,500.28,79,484.08,86.76Z" transform="translate(-71.64 -69.6)"/></svg>