<svg id="Layer_1" data-name="Layer 1" xmlns="http://www.w3.org/2000/svg" viewBox="0 0 507.84 396"><defs><style>.cls-1{fill-rule:evenodd;}</style></defs><path class="cls-1" d="M134.4,96.6A57,57,0,0,0,93.12,84a31.86,31.86,0,0,1-7.68-1.08l-3.84,1.8-.72,7.8,2.4.24Q68.16,209.94,59.52,328a1152.33,1152.33,0,0,0-1.8,143.88,13.18,13.18,0,0,0,2.64,7.08l1.44-10.68c16.08,5.88,32,5.88,47.88-.12,23.28-8.76,41.52-23.64,54.6-44.88l8.4-14.16c2-3.6,3.84-7.2,5.64-10.92l5-11.16,3-7.56,2.88-7.56,2.52-7.68,2.4-7.8,1-4,1-4c1.8-8,3.24-16.08,4.32-24.24a306.41,306.41,0,0,0,.12-71.88,318.07,318.07,0,0,0-31.44-105.84,184.53,184.53,0,0,0-32.4-46.68A26.68,26.68,0,0,1,134.4,96.6Zm-11,3.48c3.12,2.76,6,5.52,8.76,8.28l3.12,3.12,3.24,2.4c2.88,4.68,5.88,9.12,9.12,13.56a270.53,270.53,0,0,1,49.2,121.68,237.74,237.74,0,0,1-15.48,126.6A144.84,144.84,0,0,1,139.68,433c-23.16,19.2-48.48,25.56-76.2,19.08q1.08-14.4,1.44-29.16c.36-18.6,1.2-37.2,2.76-55.8,3.48-42.6,6.36-85.32,8.4-128.4,2-42.6,4.56-85.2,7.56-127.56.48-6.84,2-11.28,4.56-13.44l.6-.36.12-3.84A305.78,305.78,0,0,1,123.36,100.08Zm161.52-4q-38,25.92-50.4,71.4A400.12,400.12,0,0,0,222,239q-5.4,63.72-6.72,128.4c-.6,28.68,6.72,54.84,22,78.24a20.13,20.13,0,0,0,7.92,7c22.44,10.56,44.4,8.52,65.64-6.24a93.44,93.44,0,0,0,33.6-40.8c4.2-10,3.24-17.4-3-22.44q-13.86,46.26-61.92,60.12c-11.76,3.48-22.2,2-31.44-4.32a26.63,26.63,0,0,1-8.88-10.2q-22-44.1-17.64-95.16c1.8-21.36,3.72-42.72,5.76-64a161.74,161.74,0,0,0,47.4,4.2c16.56-1,23.28-7.68,20.28-20.28-21.24,8.76-43.44,10.56-66.6,5.16l5.28-51.6A171.24,171.24,0,0,1,263.16,128q23-33.3,62-19l2.76.24,2.28,1.68,2.28,2.4,1.56,1.44.6.72v1.56l.36,1.68.36.6.36-.12.36-1.56a17.67,17.67,0,0,0-2.88-14.16,15.93,15.93,0,0,0-4.8-4.56l-2.28-.84a54.08,54.08,0,0,0-29.64-5.88A20.76,20.76,0,0,0,284.88,96.12Zm116.4,113.4c1.56,17,2.76,34.08,3.84,51.24a111.06,111.06,0,0,0-34.32,4.44c7.56-30.24,14.76-60.6,21.36-91.08,2.52-11.52,5.16-23,8.16-34.44A469.29,469.29,0,0,0,401.28,209.52Zm2.4-102.72-.48-3.12a202.5,202.5,0,0,0-19.56,72A225.24,225.24,0,0,1,379,206.52c-2.64,12.84-5.4,25.56-8.4,38.16-1.8,7.56-3.84,15-6,22.56l-2,.6a484.45,484.45,0,0,1-16.8,60.6c-2.16,6.36-4.08,12.84-5.64,19.44-2.28,9.72-4.2,19.68-5.52,29.64a2.28,2.28,0,0,0,.48,1.68l2.64,1A691.68,691.68,0,0,0,368.4,275L406,276.48a1645.76,1645.76,0,0,0,8,167,77.22,77.22,0,0,0,3,15.36,54.93,54.93,0,0,0,2.64,7q-4.14-97-7.2-193.32l.12-3.36a33.65,33.65,0,0,0,0-4.92,868.86,868.86,0,0,1-7.08-88.68c-.6-23.52-1.2-47.16-1.56-70.8Zm153.6,27.36q-7.74,63.36-11.16,127.44Q542.7,326,534.72,389.76a197.84,197.84,0,0,0-1.44,23.52,534.21,534.21,0,0,1-13.92-56.64q-11.7-62.82-25.08-125.52-13.5-63-30.84-124l-1.08,3.72-1.08-6.72a29.43,29.43,0,0,0-3.72,13q-5.22,63.54-8.4,127.56T441.6,372.84a300.47,300.47,0,0,1-7,47.52c-3,12.84-1.44,23.4,4.44,31.8A34.35,34.35,0,0,0,442.44,440c3.24-42.12,6-84.48,8.4-127.32s5-85.56,7.8-128.16c.72-10.8,1.8-21.48,3.36-32.16a157.87,157.87,0,0,0,1.68-25.8c4.92,17.64,9.12,35.4,12.6,53.52q12.42,62.82,25.56,125.4L527.76,430.8c2.52,11.88,6.48,22,12,30.24a33.3,33.3,0,0,0,2-21.84,495.7,495.7,0,0,1,1.8-68q6.12-64.08,10-128.28c2.64-43.08,6.12-85.32,10.56-126.48C560.4,121.08,558.12,127.08,557.28,134.16Z" transform="translate(-56.28 -82.92)"/></svg>