<svg id="Layer_1" data-name="Layer 1" xmlns="http://www.w3.org/2000/svg" viewBox="0 0 565.5 396.87"><defs><style>.cls-1{fill-rule:evenodd;}</style></defs><path class="cls-1" d="M133.92,95.76c-.72-19.8-11.76-29.52-33.24-28.92a90.78,90.78,0,0,0-37,27.72c-12.6,16-16.08,33.6-10.2,52.92a590,590,0,0,0,35.4,90.12q14.22,28.8,28.8,57.48a150.93,150.93,0,0,1,16.44,60q4.32,66.78-61.32,88c-17.28,5.64-33.84,5.4-49.56-.6a2.39,2.39,0,0,1,.24-2.64l.48-1.44v-.84l-.24-.84-.36-.6L21.48,435l-1-.36a1.47,1.47,0,0,0-1.08.48c-4.2,4.56-5,9.84-2.28,15.72a42.06,42.06,0,0,0,4.44,7.8,57.84,57.84,0,0,0,34.92,4,106.86,106.86,0,0,0,45.72-20.52q52-40.14,37.2-105.72a241.56,241.56,0,0,0-18.36-52.8L63.84,165.72a77.17,77.17,0,0,1-7.56-29.16c-1-18.84,6.36-34.44,22.08-46.56a44.06,44.06,0,0,1,19.92-8.88q33.12-5.94,35,25.2A52,52,0,0,0,133.92,95.76Zm122.4,3.48a297.86,297.86,0,0,0,40.8,120c2.52-3.48,2.76-7.08,1-11A446.86,446.86,0,0,1,259,86.88C256.68,90.12,255.72,94.2,256.32,99.24Zm-17.76-.48c-7.32-15.72-18.48-17.64-33.6-6a72.29,72.29,0,0,0-24.72,34.92,274,274,0,0,0-10.56,43.8,299.68,299.68,0,0,0-3.24,38.64c-.12,10.68-.24,21.24-.24,31.8q0,23.76,1.8,47.52,1.62,22,4.32,43.56a441.74,441.74,0,0,0,8,45,154,154,0,0,0,15.84,40.92q14,25,40.68,13.8a140.3,140.3,0,0,0,38-23.28c10.2-8.76,14-18.12,11.52-28a130.5,130.5,0,0,1-67.92,38.16l-1.2.24c-25.8-21-40-49.56-42.36-85.44q-2.34-36-4-72.24a392.27,392.27,0,0,1,1.32-55.68A376.22,376.22,0,0,1,179.76,160l3.48-15.24a182.46,182.46,0,0,1,6.12-19.92,76.86,76.86,0,0,1,3.6-8.4,35,35,0,0,1,10.44-12.12,37.46,37.46,0,0,1,28.2-7.08Zm105.84,2.4A154.06,154.06,0,0,0,328,139.68Q310.86,201.06,293,262.32A490.26,490.26,0,0,1,239.4,383.88c-7.68,10.2-8.52,19.32-2.64,27.36a428.61,428.61,0,0,0,37.32-75.48c13.2-34.92,25.32-70.32,36.24-106q19.08-61.74,35.16-123.72v-.84A6.37,6.37,0,0,0,344.4,101.16Zm33.12,69.6q-2,63.9-7.32,127.44c-3.72,43.2-7.92,85.8-12.84,127.92q-4.5,16.74,1.44,31.68a1.75,1.75,0,0,0,1.08-1,319.7,319.7,0,0,0,8.28-52.56c3.36-42.36,6.6-85,9.6-127.56q4.5-64.26,4.56-128.16A54.34,54.34,0,0,0,377.52,170.76Zm48.36-57.36a760.85,760.85,0,0,1-90.36,31.68v6.48q16.56,3.42,34.56-3.6c5.16-2,10.44-4,15.84-5.64A202.06,202.06,0,0,0,427.44,124ZM435,100.68q-2.52,56.34-7,113.64c-3.36,42.6-7.44,85.2-12.12,127.56-2.4,21.24-4.2,42.48-5.4,64-.72,12.24,1.2,22.8,5.64,31.68a33.37,33.37,0,0,0,3.84-17,799.92,799.92,0,0,1,6.36-128.28l2.4-19.56a7.82,7.82,0,0,1,3.12.72,183.71,183.71,0,0,0,31.68-7l-8.4,106.92c-1.44,17.28.12,33.12,4.8,47.64a1.68,1.68,0,0,0,1-1.32q.18-39.6,3.6-79.56,3.24-38,5.76-76.08l4.08-1.56.36-.72c2.76-3.48,3-7.08.72-10.56l-4.44.6,2.28-39.84q3.6-64.62,4.32-128.28a136.65,136.65,0,0,0-5.28,33.24q-2.7,64.26-7.2,128.28l-.6,7.68a191.52,191.52,0,0,0-34.68,10.08c3.72-32.52,6.84-65.28,9.12-98a248.38,248.38,0,0,0-3.6-64.2Zm118.08,8.64A30.32,30.32,0,0,0,540,121.44,268.88,268.88,0,0,0,504.6,222.6a766.63,766.63,0,0,0-7.08,127.56,80.11,80.11,0,0,0,15.6,46.2c4.56,6.36,10.44,7.92,17.64,4.8A87,87,0,0,0,570,368.64q13.68-20.52,10.44-40.68a93.77,93.77,0,0,0-8.76,15.12c-9.24,20.76-23.76,35.4-43.8,44.16-3.6,1.56-6.48,1-8.76-1.68-11-13-16.68-28.44-16.8-46.44-.24-26.52.72-53,2.88-79.32a200.82,200.82,0,0,0,66.48-14.64,8.13,8.13,0,0,0,1.68-4.92,7.54,7.54,0,0,0-1.68-4.8l-.84-.72a14.56,14.56,0,0,0-8-1.68,243.46,243.46,0,0,1-56.4,14.4,383.72,383.72,0,0,1,25.44-101.28c5.16-13,13.32-21.36,24.72-25.2a9,9,0,0,1,3.24,3.12,34.41,34.41,0,0,1,4.08,11.28l.36-.6C567.24,122.76,563.52,114.24,553.08,109.32Z" transform="translate(-15.56 -66.81)"/></svg>