<svg id="Layer_1" data-name="Layer 1" xmlns="http://www.w3.org/2000/svg" viewBox="0 0 297.82 209.4"><defs><style>.cls-1{fill-rule:evenodd;}</style></defs><path class="cls-1" d="M198.12,191C182.4,196.56,172,207.48,167,223.68c-4.92,15.84-2.28,30.24,8,43.08l28.92,36a84.21,84.21,0,0,1,18.24,41.64c2.28,15.24-2.16,27.84-13.32,37.68-17.88,3.72-32.64-1.08-44.4-14.4a46.45,46.45,0,0,1-7.8-12.12l2.52-1.8L154.08,344l-3.12,1.2c-2.76,13.92.36,26.64,9.24,38.28A42.16,42.16,0,0,0,185.76,400l18,.48q12.6-1.62,19.44-14.76a73.36,73.36,0,0,0,6.6-51.84,82.32,82.32,0,0,0-26.16-44.4q-23.58-20.7-27.72-49.32c-2.16-14.52,4.08-24,18.72-28.32q22.86-6.84,36.72,11.88a24.6,24.6,0,0,0-8-22.8A36.29,36.29,0,0,0,198.12,191Zm58.8,9.12c-4.44,41.64-7.2,83.52-8.52,125.88a133,133,0,0,0,7.08,47.28c7,20.28,21.72,25.8,44.4,16.8q36.54-14.58,43.2-53.88a365,365,0,0,0,5-51.24c.6-21.36.36-42.84-.72-64.32-.6-9.72-3.12-17.52-7.56-23.16a9,9,0,0,0-2.28,7.32,543.57,543.57,0,0,1-1,117.72A62.25,62.25,0,0,1,329,346.08q-21.78,39.06-65.28,27a15.19,15.19,0,0,1-3.36-7.32A407.7,407.7,0,0,1,258,260.28a444.91,444.91,0,0,0,2.28-64.08C258.36,196.44,257.28,197.76,256.92,200.16Zm115.2,2.76.12.84.12.72.24.72q-3.06,40.14-4.32,82c-.6,21.24-1.8,42.6-3.6,64a211.9,211.9,0,0,0,1.44,48c4.2-2,6.48-5.88,6.6-11.4.84-31.68,1.8-63.48,3.12-95.52a290.89,290.89,0,0,0,46-3.24l.72-.84c2.64-5.16,2.28-10.08-1-14.52-15.24,1.08-30.36,2.76-45.12,4.8l.72-18.84a342.35,342.35,0,0,0-1.56-52.32,571.75,571.75,0,0,0,70.32,6.84l.84-1.68a33.1,33.1,0,0,0,1-3.24,23.17,23.17,0,0,0,0-4.08l-.24-1.56-.12-.84a6.46,6.46,0,0,0-1.2-2.4l-.84-.48-66.48-4.92V195l-3.24.24-1.68.48v-.36h-.6v.72l-.48.36-.6,3.24A14.65,14.65,0,0,0,372.12,202.92Z" transform="translate(-149.99 -191.04)"/></svg>