<svg id="Layer_1" data-name="Layer 1" xmlns="http://www.w3.org/2000/svg" xmlns:xlink="http://www.w3.org/1999/xlink" viewBox="0 0 585.74 604.71"><defs><style>.cls-1{fill:none;}.cls-2{clip-path:url(#clip-path);}.cls-3{fill-rule:evenodd;}</style><clipPath id="clip-path" transform="translate(8.16 5.67)"><rect class="cls-1" width="580.68" height="600.96"/></clipPath></defs><g class="cls-2"><path class="cls-3" d="M390.72,500.28c3.48-6,3.24-11.88-.72-17.52a17.34,17.34,0,0,0-11.16-7.08c-8.76,12.36-11.52,26.64-8.28,42.6l.48,1.92-1.2,1q-4.14,13.5,7.2,20.16a14.8,14.8,0,0,1,5.76,6.36l-4.08,6.48c-6.12-1-10.92-4.44-14.28-10.32a26.92,26.92,0,0,1-3-7.8q-4.5,9,1.44,18a21.11,21.11,0,0,0,12,9c-8.88,8.52-10.92,18.72-6.12,30.36,12.6,5.4,22.44,2.4,29.28-9.12a4.06,4.06,0,0,0-.84-5.76,79.44,79.44,0,0,1-13.56,7.56c-5,2.16-9.72,1.32-14-2.4l1.08-7.32c5.16-6.84,10.68-7.56,16.68-2.16.84.84,1.68,1.2,2.4.84a9.13,9.13,0,0,0-.6-7.68,9.58,9.58,0,0,0-5.28-4.68l-2.16-.48c6.48-8.52,6.24-17.28-.6-26.4a33.74,33.74,0,0,0-8.28-7.68l4.08-2.88,6.24,6.6a10.76,10.76,0,0,0-1.2-11.76l-2.88-3.24-2.4-.36-2,1.44,1.68-16.2L386.88,503Zm-5.16-6.48-9-.72-.24-5.52,2.28-3.24,5.64.24L389.4,491,387,493ZM146.4,553.56l-4.08,14.28-2.16-1.2-.48,7,1.32,1.2-1.44,21.12L145,577.2l10.92,1.56,4.8-2.4c7.32-11.76,4.68-20-8-25Zm4.92,5.76c5.52-.6,8.76,1.44,9.72,6.24-4.68,4.2-9.6,5.4-15,3.84l.48-6.6a2.49,2.49,0,0,0,1.44-.6Zm8.88-121.56c-6.36-6.36-13.2-7.2-20.28-2.64l-1.32,1.08-1.08-1.56h-.24l-.48.12a67.93,67.93,0,0,0-1.44,47.16l3.36-20c16,3.72,23.64-2.4,23-18.6A13.2,13.2,0,0,0,160.2,437.76Zm-1.56,9c-3,6.72-9,9.24-18,7.68l-1.44-.36.48-10.56c6.36-5.64,12.24-5.16,17.88,1.44Zm36,117.12a18.71,18.71,0,0,1,14.16,1.68l4.2,2.64a17.77,17.77,0,0,1-7.68,4.68,18.86,18.86,0,0,1-10.32.24Zm-1.44-4.44c-5.28,13.32-7.08,26.28-5.52,39.12l6.48-18.6,13,1.08,19.56,16.44.84-7.08-12.84-13.92c4-14-1.2-20.76-15.48-20.4L196,557.52ZM345,480.84a307,307,0,0,1-8.76,76.68c-4,15.72-13.08,21.72-27.48,17.76a101.68,101.68,0,0,1-4-48.12,375.54,375.54,0,0,0,4.2-46.08c-1.32,0-2.16.84-2.52,2.4A241.31,241.31,0,0,0,304.68,585c16,8.52,27.24,3.72,34.08-14.52A208,208,0,0,0,350.16,523c1.8-16,.24-30.24-4.92-42.72ZM141.48,156.36l-.72,2.76-22.08-.36-1.08,5.52,21.48,3.36L136.8,202.2l-4.2,2.16q-26.82,42.3-19.08,93.36a32.81,32.81,0,0,0,7.68,16.68,26.73,26.73,0,0,0,15.24,8.88c-5.4,11.4-7.8,22.8-7.2,34.08l9.36-25.92,10.2,25.68-18.36,7.08,1.08,8,3.48-2.4,20.52-3.48c-4.2,12.6-5.16,24.84-2.88,36.84a119.74,119.74,0,0,0,5.88-37.44l20-4-.36-7.68-23.64,1.56c6.36-12.12,9.24-24.36,8.76-36.72L151,348.48l-10.68-25q25.74-11.34,24.48-37.8c-7.8,18.6-20.28,26.4-37.32,23.16l-2.4-.72Q107.94,259,135.36,217.8c3.24-4.92,8.16-7,14.64-5.88a49.21,49.21,0,0,1,8.52,2.16l6.6,5.88c-2.28-14.52-10.92-21.12-25.92-19.92l3.6-32.28L160,166.68l-.36-6.84-17.28-.72Zm-5.4-32.76a108.08,108.08,0,0,0-12.36-46C117.6,88.44,111,98.88,103.8,109.08l-2.28,2.64L93.6,79.32C85.68,93.12,82.08,107,82.92,121.08L93.6,92.52l6.48,30.84A110.88,110.88,0,0,0,123.36,90.6,115.28,115.28,0,0,0,136,123.72Zm-49.44,39,7-26.16L105,167a96.51,96.51,0,0,0,10.8-23.76A64.32,64.32,0,0,0,118,119.16l-12.72,34.32-12.72-31.2a90.89,90.89,0,0,0-5,21.36A143.23,143.23,0,0,0,86.64,162.6ZM116.76,37.44l-.84,3.72,1.2.72a148.36,148.36,0,0,0-5.88,42.6l6.12-20.64,8.4-.72,20,21.72a34.63,34.63,0,0,0-11-24l-3-2.64c7.44-7.44,7.44-13.92-.12-19.44a14.06,14.06,0,0,0-12.48-2.4ZM93.6,46.56l-6.72,7.32L77.76,55l1-12.48L89,42ZM90.12,34.68a16.07,16.07,0,0,0-15.48,3.48l.6,4.56a140.58,140.58,0,0,0-4,47.4L76.8,63.48l11.64-1.56q14.4-12.06,3.24-25.56Zm.6-4.32c-4.44-24.72-20.16-36.72-47.4-36A39,39,0,0,0,25.08,6.24Q1.5,33.42,6,71.52a130,130,0,0,0,10.56,38Q41.58,165,65.4,221.64a509.44,509.44,0,0,1,22.44,64.68,589.81,589.81,0,0,1,19.56,121.2,336.11,336.11,0,0,1-13.56,117,105,105,0,0,1-13.44,29c-10.2,15.24-25,25-44.28,28.92a17.31,17.31,0,0,1-13.44-2.64C8.16,570.24,1.2,556,1.68,537.12A199.37,199.37,0,0,0-.6,499.8c-4.32,2.52-6.72,6.72-7.08,12.36C-10,541-4.08,567.36,10.2,591.48a9.15,9.15,0,0,0,5.88,4.44Q45.42,603.3,71.76,585a22,22,0,0,0,6.6-6.72,211.13,211.13,0,0,0,31.44-83.4,494.32,494.32,0,0,0,3.12-128.4,503.26,503.26,0,0,0-28.08-121.8A808,808,0,0,0,31.68,128.4Q7.2,84.3,17.16,35.52a21.27,21.27,0,0,1,5-10.44q22.5-25,50.16-6.72a68.81,68.81,0,0,1,17.16,16A4.33,4.33,0,0,0,90.72,30.36ZM132.36,52,118.8,55l.6-13.2,14.76,3.72-1,4.8ZM213.6,67c5.28-8.28,13-12.72,23.16-13.08a17.06,17.06,0,0,1,13.8,4.32,45.43,45.43,0,0,1,13.2,21.36A630,630,0,0,1,287.4,205.8c3.48,42.36,6.48,85,9.12,127.56a684.09,684.09,0,0,1-4,127.44q-5.4,43.56-30.36,78.36a11.25,11.25,0,0,1-9.24,5c-13,.36-22.56-5.76-28.8-18.48a270.49,270.49,0,0,1-26.28-90q-7-63.54-7.8-128.4-.72-64.26,1-128.16a343,343,0,0,1,21.6-111.24Zm-2.16-13.68A127.32,127.32,0,0,0,194.16,99.6a721.71,721.71,0,0,0-9.72,94.32c-1.56,42.84-1.92,85.8-.84,129.12q1.44,64.08,8.64,127.56A218.4,218.4,0,0,0,231.6,554a14.48,14.48,0,0,0,8,5.88c16.44,4.44,28.32-1.32,35.88-17.28A309,309,0,0,0,304.32,429a937.58,937.58,0,0,0-1.2-128.52L298,236.4a1086.47,1086.47,0,0,0-18.24-126.6c-2.16-10.68-4.2-21.24-6-31.92q-5.22-29.34-29.16-43c-12.84-1.68-21.72,2.4-26.76,12.12A18.63,18.63,0,0,0,211.44,53.28ZM366.36,341.16a296.82,296.82,0,0,1-24.12,117.72L338.52,461a4,4,0,0,1-1.68.6c-7.56-1-12.24-5.28-13.8-12.84a302.56,302.56,0,0,1-4.8-91.44,242.39,242.39,0,0,0,1-32.28q-1.8-41.76,21.48-73.92l6.72-.6a2.75,2.75,0,0,1,2.76,1.32q18.72,29,16.92,65.88Q366.36,329.64,366.36,341.16Zm4-69.84c-1.56-16.8-8.76-28.8-21.84-35.88v.12l-.84.6-1.92,1.92-17.28,4.08,7.08,1.08a43,43,0,0,0-7.92,14.28,314.69,314.69,0,0,0-15.24,93.72c-.24,21.36-1.44,42.6-3.6,63.84q-3.78,37.08,20.76,61.08l9.24,1.44A37.2,37.2,0,0,0,354.24,459a246.58,246.58,0,0,0,14.52-59.16A597.54,597.54,0,0,0,370.32,271.32Zm-3,141a484.07,484.07,0,0,0-.84,67.2,11.69,11.69,0,0,0,1.2,4.32l3.48-12.24,1.08-19.92,8.28-12a94.72,94.72,0,0,0,11.16,42.12,166.74,166.74,0,0,0-7.44-48.48,62.91,62.91,0,0,0,8.88-35,79.74,79.74,0,0,0-17.64,31.56l-1.8,5.88,1.08-37.2C370.32,401.76,367.92,406.44,367.32,412.32ZM404,301c3.72,16.92-1.08,29.64-14.64,38.16.84-17.52.84-35,.12-52.56l5.76.6A22.85,22.85,0,0,1,404,301ZM389,276.6l-.24-3.6-.6,3.84L386,277.92l.84,8.16a960.88,960.88,0,0,0-6.12,105,34.87,34.87,0,0,0,1.8,11l6-49.8,2.16.48a43.2,43.2,0,0,0,18.12-22.56,52.34,52.34,0,0,0,2.4-8.76,50,50,0,0,0-1-22.32,36.38,36.38,0,0,0-11.88-18.48l-5.52-4.44Zm105.12,18.72a117.85,117.85,0,0,1,37,14.88A40.67,40.67,0,0,1,545,324.48q30.42,53.82,26.76,117.6-4.32,75.42-61.56,124.2a29,29,0,0,1-12.72,6.36c-5.52,1.2-10,2.88-13.2,5l.24-2.64c3.6-42.36,5.76-85.2,6.6-128.28s1.08-86,.84-129.12a78.19,78.19,0,0,1,1.32-16C493.68,299.4,494,297.36,494.16,295.32Zm-4.92-12.48-.6.24a5,5,0,0,0-1.8,3.72,34.1,34.1,0,0,0-.12,4.92,3.94,3.94,0,0,0,.84,1.92,272.29,272.29,0,0,0-2.64,41.28q.9,64.26-1.8,128.28t-7.2,127.44a3.92,3.92,0,0,0,1.32,2.16,37.59,37.59,0,0,0,1.68,6.24,95.73,95.73,0,0,0,34.32-18.24q50.94-42.3,60.84-107.4a300,300,0,0,0-7.56-126.6c-10.44-37-35-58.44-74-64.32l-2.16-4.8Zm-38-7.56-2-.6Q413.7,310,414.36,363.24q.54,35.82-1.68,71.76c-2,34.92-3.24,69.84-3.84,105a60.16,60.16,0,0,0,1,12.24A97.6,97.6,0,0,0,412.32,564a69.74,69.74,0,0,0,6.84,16.68l2.64,3.84a11.49,11.49,0,0,0,2.64,2.76c5.88,4.56,11.88,4.56,18,.12q25.74-18.36,22.68-48a14.72,14.72,0,0,0-3-7.2c-1.92,25.32-13.2,38.52-33.72,39.36a7,7,0,0,1-3.84-.12,340.52,340.52,0,0,1-4.92-125.76,113.49,113.49,0,0,0,34.32,2.4c2.64-3.12,3.36-6.84,2.28-11.16a13.29,13.29,0,0,0-1.68-3.48l-34-.36q-5.4-70.74,20.76-133.92a41.07,41.07,0,0,1,5.4-9.36c7.8-.12,13.68,3,17.76,9.48l1.68,2.88,2.28-5.64Q466.5,280.5,451.2,275.28ZM360.48,29.88c.6-12.24-1.56-22.68-6.6-31.2-3.24,6.84-4.44,14.76-3.84,23.88,1.68,25.8,2.4,51.84,2.28,77.88a505.73,505.73,0,0,1-9.84,96.36c-3.36,16.8-13,26.88-28.68,30.24a2.43,2.43,0,0,1-1.2-1.56,265.73,265.73,0,0,1-2.76-98.88A476.33,476.33,0,0,0,312.72,0a16.39,16.39,0,0,0-2.52,9.72,392.67,392.67,0,0,1-2,64q-7.2,64.26-8.76,129.24c-.36,15.36,4,28.32,12.84,39,8.4.48,15.24-2.88,20.52-10q23.58-32,23.76-73.08C356.88,115.8,358.2,72.72,360.48,29.88Zm27.6,11.4A121.41,121.41,0,0,0,391-1.32a74.92,74.92,0,0,0-3.12,42.72ZM500.4,8l-1-1.56L412.92,11l.24,8.16,44.64,2.28q-3.06,90.18-10.56,179.88c-1.32,14.88-2.4,29.76-3.24,44.76a42.94,42.94,0,0,0,4.92,22.56,649.5,649.5,0,0,0,9.24-100.2q.9-51.48,3.72-102.72,1.26-22.14.36-44.28l37.92-2.88A10.41,10.41,0,0,0,500.4,8Z" transform="translate(8.16 5.67)"/></g></svg>