<svg id="Layer_1" data-name="Layer 1" xmlns="http://www.w3.org/2000/svg" viewBox="0 0 307.45 218.09"><defs><style>.cls-1{fill-rule:evenodd;}</style></defs><path class="cls-1" d="M291.84,194.64a971.5,971.5,0,0,0-3.48,110.76,387,387,0,0,1-3.72,64.8q-2.7,17.82,3.24,32.4a41.28,41.28,0,0,0,5.88-19.92c1-19.8,1.56-39.84,1.92-60.12.6-43.32-.48-86.16-3-128.28C292.08,194.16,291.84,194.28,291.84,194.64ZM179.76,209.76c-8,13.68-7.92,27.12.24,40.32a305.55,305.55,0,0,0,18.24,26.52A180.43,180.43,0,0,1,221.76,317a77.19,77.19,0,0,1,4.56,45.6c-3.6,18-14.52,27.72-32.76,29.28q-25.92,2.52-37.08-19.44c-4.92-9.6-5.64-20.28-2.4-31.92,4-13.68,2.4-26-4.68-37a168.1,168.1,0,0,0-2.16,68.28q7.38,42.3,49.32,35.64a38.68,38.68,0,0,0,7.32-1.92,39.34,39.34,0,0,0,13.32-7.8c11.52-10.08,17.4-22.8,17.52-38.28A135,135,0,0,0,219.48,296a287.89,287.89,0,0,0-33.84-51.36c-4.68-5.64-6-12-4.2-19.32,2-8.28,7-13.32,14.64-14.88a24.12,24.12,0,0,1,18.6,4.44,37.66,37.66,0,0,1,14.88,20.88l1.2,4.8c3.72-13.8.36-26-10.2-36.6a24,24,0,0,0-4.2-3.48Q193.68,185.76,179.76,209.76Zm203.52,22.56c2.76-19.32-5.88-30.84-26.16-34.56C342.84,202,335,211.8,333.6,227a46.93,46.93,0,0,0,8.28,32,342.8,342.8,0,0,1,37.44,71.76c5.4,14.28,5.64,28.44.6,42.48q-9.36,26.46-39.84,16.32L333,382.2a32.79,32.79,0,0,1-8.88-21q-1.26-21.42-4.32-41.4c-4,1.68-6.12,4.92-6.6,9.6q-5,40.68,19.2,71a15.09,15.09,0,0,0,5.76,4.68c19.56,9.24,34.2,5.52,44-10.92a47.16,47.16,0,0,0,7-23.64q2-64.44-39.36-113.4C341.16,247,338.88,236,343,224.28c2.4-6.6,7.08-10.2,14-10.56,13.08-.72,21.6,5.64,25.56,19ZM409.8,196c-3.48,39.12-5,78.72-4.92,118.92a539.79,539.79,0,0,1-3.36,64c-1.44,12.12-.12,22.8,3.84,31.92a50.28,50.28,0,0,0,6.12-29.28.84.84,0,0,0-.6.48L408.6,386c1.2-20.64,1.92-41.4,2.28-62.16l.24-20.16,30.36-4c.12,16.2,0,32.4-.36,48.48-.6,22.2-.24,43.56,1,64.08.84-.36,1.32-.72,1.44-1.32a186,186,0,0,0,5.64-42.72c.24-15.24.36-30.48.24-45.48l-.24-24.24.48-.12.72-.84q4-7.2-.72-13.68H449q-.36-45.18-.48-89.4-.72.18-.72.36a795.85,795.85,0,0,0-6.24,89.76,159.5,159.5,0,0,0-30.36,7q.18-48.42-.84-96C410,195.48,409.8,195.6,409.8,196Z" transform="translate(-144.73 -194.23)"/></svg>