<svg id="Layer_1" data-name="Layer 1" xmlns="http://www.w3.org/2000/svg" viewBox="0 0 477.36 474.6"><defs><style>.cls-1{fill-rule:evenodd;}</style></defs><path class="cls-1" d="M213.48,420.24c-2.52,9-7.92,14.52-16.44,16.68q.72-14.58.72-29.16C205.44,408.48,210.72,412.68,213.48,420.24Zm-14.88-22-1.08-1.68a492.87,492.87,0,0,0-14.88,76.08,153.79,153.79,0,0,0-.84,26.88c.36,5.4,1.56,9.84,3.72,13.44a264.2,264.2,0,0,0,10.68-63.12l8.52-2.52a320.12,320.12,0,0,0,25.68,74.88l2,3.48a250.49,250.49,0,0,0-23.4-81.6c8.16-8.88,10.92-19,8.28-30.36a20.54,20.54,0,0,0-7.32-11.4,48.91,48.91,0,0,0-8.76-5.4ZM146,280.08a.32.32,0,0,0-.36.36,334.19,334.19,0,0,0-7.44,104.28,3.32,3.32,0,0,0,2.4,2.16,3.38,3.38,0,0,0,2.16-3.72A242.64,242.64,0,0,1,145,333.84a241.09,241.09,0,0,0,2.4-41.28,225.72,225.72,0,0,0,12.72,49.68A187.23,187.23,0,0,1,167.4,367a116.3,116.3,0,0,0,9.84,29l-1.92-.12a333.12,333.12,0,0,0-40.92,11.64,15,15,0,0,0-.84,5.64,11.69,11.69,0,0,0,1.44,4.92l23.76-2.64q-3.78,36.72-7.44,74.76c-1,10.2.36,18.84,4,26l.48-.84a499.86,499.86,0,0,0,3.84-100.08l22.68-4.08A8.41,8.41,0,0,0,185,406a14.64,14.64,0,0,0-1.92-9,1.93,1.93,0,0,0-.84-.48l-3.24-.36a14.56,14.56,0,0,0,2.76-6.72l9.36-56.64a231.34,231.34,0,0,0,2-63.48c-.6.12-.84.24-.84.36q-8.64,49.86-14.88,100.8-16.74-50-31.92-98.76ZM102.84,61.92A70.25,70.25,0,0,0,69.12,85.08a46.68,46.68,0,0,0-10.32,25.2,239.2,239.2,0,0,0,12.48,102.6q21.24,60.66,39,122.4a343.48,343.48,0,0,1,13.44,108.48c-.84,21.72-10.68,37.92-29.28,48.6q-25,14.58-47.88-.24a9.11,9.11,0,0,0-3,7.32,9.29,9.29,0,0,0,2.64,6.36q18.9,18.36,46.2,6.36a41.69,41.69,0,0,0,17.52-14.28C129.48,470,136.92,439,132,404.52a643.31,643.31,0,0,0-30-123Q80.4,219.78,64.68,157.08a88.88,88.88,0,0,1-1.2-38.52q7-38.16,45.84-43.32a30.46,30.46,0,0,1,4.32,3.48l2.4,2.16,1.56,7.44c.6,2.16,1.2,2.52,1.92,1.2l.72-.6C122.76,74.28,116.88,65.28,102.84,61.92ZM195,97.8a117.28,117.28,0,0,0-6.72,26.28q-8.82,63.54-22.2,125.4c-10.2-39.24-18.48-78.72-24.84-118.2A1.82,1.82,0,0,0,139,133q-9.54,50.94-16.2,102.72c-.48-7.8-1.2-15.48-2.28-23C114.6,170.28,108.36,128.28,102,86.88c-2.52,15.24-2.28,31.56.48,48.72,6.84,41.64,12.36,83.4,16.8,125.52a4,4,0,0,0,3.48,2.4l.6-.84a687.46,687.46,0,0,0,16.44-106,609.53,609.53,0,0,0,26.28,116,21.06,21.06,0,0,0,7.56-13.44c5.76-33,11.88-66.12,18.48-99.12a249.49,249.49,0,0,0,4.32-63.6A2.11,2.11,0,0,0,195,97.8Zm75.24-.12c1.44,43.08,1.32,86-.36,129.12s-3,85.92-3.84,129-.84,86,.48,129.12a53.78,53.78,0,0,1-1.92,15.72c-3.72,12.6-2.88,23.16,2.4,31.8a49.15,49.15,0,0,0,4.68-16.92,418.81,418.81,0,0,0,1.44-52.08q-2-64.62-1.32-129,.72-65,3.84-129A972.11,972.11,0,0,0,273,77.16,58.65,58.65,0,0,0,270.24,97.68Zm115.2,130.08q-13.86,48.42-65.4,44.52a5.91,5.91,0,0,0-2.76-2.64l-2-.84c.6-23,1.44-46.08,2.4-69a1004,1004,0,0,0-1.2-112.56h3.84a60.62,60.62,0,0,1,20.88,3.6q40.32,14.58,48.24,57.84A172.83,172.83,0,0,1,385.44,227.76Zm10.2-75.84a112.93,112.93,0,0,0-13.92-42.48,72.15,72.15,0,0,0-32.64-30.12,53.15,53.15,0,0,0-33.6-4.2l-.24-3.72-2.76,4.32-2.4.6.36,9.72,1.44.84q-2.52,148.68-4.44,297.24c-.6,42.6-2.76,85.2-6.72,127.8A40.56,40.56,0,0,0,305,535l1,1.56a1529.25,1529.25,0,0,0,8.28-175.44q-.36-37.26.48-74.88a50.92,50.92,0,0,0,29,.48,49.25,49.25,0,0,0,16.2-7.2c12.84-9.48,21.72-22.2,26.64-37.92a225.67,225.67,0,0,0,9.48-46.2A210.27,210.27,0,0,0,395.64,151.92ZM439.8,98.64A292.29,292.29,0,0,0,412.44,193c-4.2,35.52-7.2,71.28-9.24,107.16l-.12,2.64-.84,16.8a492.23,492.23,0,0,0,10.92,128.28,144.16,144.16,0,0,0,31,63.24,18.37,18.37,0,0,0,10.56,6.36q24.12,4.68,38.16-18.72a143.9,143.9,0,0,1,18-23.76c9.24-10,12.12-20.4,8.64-31.44l-1.8,1.68-.36.72-.48.84h-1.08l-1.68.24a230.53,230.53,0,0,0-23.88,33.24c-7.56,12.84-18.36,20.28-32.16,22.2a52.68,52.68,0,0,1-24.6-26.88,319.47,319.47,0,0,1-25.32-127.32q.18-19.62.72-39.24c21.6,3,41.64-.84,60-11.28l.84-3.36a9.21,9.21,0,0,0-1.08-5.64l-.84-.84a7.57,7.57,0,0,0-4-2.4,283.55,283.55,0,0,1-54.48,10.44c.6-14.64,1.32-29.16,2.4-43.56A613,613,0,0,1,432,132.24a59.25,59.25,0,0,1,12-22.92q23.76-28.26,50.64-7.08l.36,1,.36,1.44.36.36.24-.24.12-.84c.72-16.68-7.68-25.08-25.32-25.2A47.33,47.33,0,0,0,455,83.4,32.92,32.92,0,0,0,439.8,98.64Z" transform="translate(-43.55 -61.92)"/></svg>