<svg id="Layer_1" data-name="Layer 1" xmlns="http://www.w3.org/2000/svg" xmlns:xlink="http://www.w3.org/1999/xlink" viewBox="0 0 594.32 576.58"><defs><style>.cls-1{fill:none;}.cls-2{clip-path:url(#clip-path);}.cls-3{fill-rule:evenodd;}</style><clipPath id="clip-path" transform="translate(-1.04 -21.38)"><rect class="cls-1" y="18.48" width="595.32" height="579.6"/></clipPath></defs><g class="cls-2"><path class="cls-3" d="M338.64,466q-17.64,58.68.12,116.16,5.22,17.1,20.52,9.36a36.18,36.18,0,0,0,15.24-14.76A122.48,122.48,0,0,0,377.76,598a20.24,20.24,0,0,0,4.56-11.88l.48-7.2a167.76,167.76,0,0,0-3.48-54.48,60.5,60.5,0,0,0-19.8,6.72c-2.4,4-2.28,7.8.36,11.4l2.64.84q8.46-4.86,14.4-3.6l-.12.84-.84,4.92-1.8-1.92a10.7,10.7,0,0,0-1.44,4.8c-1.32,17.4-9.48,26.52-24.72,27.6a104.82,104.82,0,0,1-12.72-50.76q-.18-37.44,20.52-65.76c13.56-1.8,23.4,3.36,29.76,15.6l.48-.72c1.8-18.48-7.2-29-26.76-31.68a22.28,22.28,0,0,0-8.64,4.2,14.8,14.8,0,0,0-4.92,6.84A31.27,31.27,0,0,0,338.64,466Zm-99-118c-4,8.28-5.52,18.24-4.68,29.76a171.86,171.86,0,0,1-.72,31.44,169.1,169.1,0,0,0,1.08,48.12,67,67,0,0,1,43.32.24c3.84-5.28,4.2-10.92,1.08-17A82.15,82.15,0,0,0,240.24,438v-1.56c1.8-27,2.76-54,2.76-81.24l-.24-.72A13.65,13.65,0,0,0,239.64,348Zm9.6-103.32q19.62,43-8.16,79.2a79.54,79.54,0,0,1-17.88,5,845.54,845.54,0,0,0-6.84-105.24C231.24,222.24,242.16,229.2,249.24,244.68Zm-38.28-20q2.34,35.82,3.84,71.64.54,16.74.72,33.48h-1a8.91,8.91,0,0,0-1.2,3.24,20.84,20.84,0,0,0,.6,9,3.23,3.23,0,0,0,1.56,2.16q-.18,40.32-3.48,80.28c-1.08,12.6.72,23,5.16,31.44a109,109,0,0,0,4.56-29.16q.9-41.22,1.44-82.08,22-1.26,31.32-23.4,15.48-36.18,4.68-74.76-9.54-34.56-43.8-38.16c-6.36,1.32-9.6,5-9.48,11.4a11.86,11.86,0,0,0,1.68,5.64ZM118.2,37.08A40.23,40.23,0,0,1,132.6,42a168.8,168.8,0,0,1,31.68,24,6.79,6.79,0,0,0,.84-7.2Q146.58,16.68,98.52,22A25.47,25.47,0,0,0,81.72,35.4,168.7,168.7,0,0,0,62,97.8a120.4,120.4,0,0,0,5.16,51.48,511,511,0,0,0,62,127.32,481.6,481.6,0,0,1,56.52,115.08A272.18,272.18,0,0,1,199,504.6c-3.24,35.64-22.68,56.64-58.08,63.12A60,60,0,0,1,114,566.28a185.43,185.43,0,0,1-77.52-45.6c-20.28-19.68-29.4-44-27.6-73.2l.48-1.56a10.29,10.29,0,0,0,.6-3.24l.24-1.56.36-1,.6-.6,1-.6.6-.6.48-.84.12-.84a25.73,25.73,0,0,0-.24-8A6.09,6.09,0,0,0,10,424.2a2.89,2.89,0,0,0-1.8-.48c-7.08,16.92-8.88,34.8-5.4,53.76a95.07,95.07,0,0,0,11.64,31.2q22.86,38.7,63.24,62.88,39.42,23.58,83.4,7.2A52.85,52.85,0,0,0,187,558.12c15.48-23,22.68-48.72,21.84-77a356.49,356.49,0,0,0-25.56-122.4,379.61,379.61,0,0,0-27.36-55.08Q121.5,246.72,91.2,187.8a226,226,0,0,1-17.4-45.72C66.72,114.84,68.4,88,79,61.2a40.68,40.68,0,0,1,13.68-18Q103.26,35.28,118.2,37.08Zm64.92,72.12L168.6,181.32a378.65,378.65,0,0,1-14.52-58.2q-2-12.42-8.28-17.64a4.49,4.49,0,0,0-1.44,2.4c-4.44,23.88-9.24,47.64-14.16,71.28l-.36-1.08a565,565,0,0,0-24.36-78q-2.34,0-1.8,2.52c9.48,35.4,17.76,71.28,24.84,107.4,1.44.84,2.28.6,2.64-1q7.2-37.26,15.72-73.68l.6,1.56,20.28,74.4q12.42-41.94,22-86.28c2-9,.36-15.24-4.92-19A7.25,7.25,0,0,0,183.12,109.2ZM314,46.32c.48,43.08,1.08,86.16,1.8,129s.36,85.68-1.08,128.28c-1.44,43.08-3,86-4.8,129.12s-4.08,86-7.08,128.88c-.72,10.2,1.44,18,6.6,23.4a17.58,17.58,0,0,0,3.36-9.72q1.8-64.44,4.08-129l4.68-128.4c1.56-42.84,1.92-85.92,1.32-129s-.48-86,.36-129.12c.24-12.36-1.44-22.92-5.16-31.92A37.52,37.52,0,0,0,314,46.32Zm177.48-8.4a809.58,809.58,0,0,0-7.08,126.6q1.44,64.08,1.8,128.16.36,65,3.6,129.24a729.5,729.5,0,0,1-2.16,105,490.5,490.5,0,0,0-5.76-49.2L471,414.84Q459.84,352,452.88,288.12q-7-63.72-16-127.08-6.84-48.6-15.24-95.76a157,157,0,0,0-1.8-31l-.72.6-1.44,1.56-.84,2.64-.72-3.72c-1.92.12-2.88,1.2-3,3.24a192.89,192.89,0,0,0,1.32,35.28c-1.08,33.48-1.08,67.08-.24,100.56,1.08,43.08,1,86-.12,129.12q-1.8,64.26-2.64,129t-6.84,128.88c-1.2,12.36.48,22.92,5,31.92a21.59,21.59,0,0,0,3.84-11.4c2.16-42.6,3.6-85.44,4.44-128.28.84-43.08,1.92-86.16,3.36-129,1.56-43.08,1.56-86,.12-129.12q-1.44-40.68-1-81.24Q427,158.1,433.8,201.84q5,31.68,8.76,63.6c4.92,42.36,10.68,84.48,17.52,126.36,6.84,42.12,12.24,84.36,16.44,126.84q3.06,32.58,8.88,63.12a2.39,2.39,0,0,0,2.28-1.56l1,2.4a3.62,3.62,0,0,0,1.08-1.8c3-19.8,5-39.72,6.36-60a1014.86,1014.86,0,0,0,.12-128.16c-2.52-42.72-3.6-85.8-3-129.12q.9-64.44-.36-129a582.71,582.71,0,0,1,2.52-64.8A94.22,94.22,0,0,0,493,37.08C492.12,37,491.64,37.2,491.52,37.92Zm99,22.44q-10.62-21.42-32-26.28c-15.84,9.24-25.8,23.52-30,42.6-3.24,15.24-6.24,30.6-8.76,45.84A780.48,780.48,0,0,0,509,251.4q0,64.08-1.32,128.16c-.6,30.6,7.92,58,25.8,82.08,8.28,11.16,17.64,11.76,28,1.68a118.32,118.32,0,0,0,20.88-27.24c9.48-16.68,11.64-33.24,6.36-49.44a13.31,13.31,0,0,0-6.36,9.48,121.63,121.63,0,0,1-22,50.64,23.57,23.57,0,0,0-7.08,3.72l-2.4,1.68-7-.6-2.52-.48c-2.76-3.12-5.4-6.36-7.92-9.84a57.18,57.18,0,0,1-11-27.72,950.08,950.08,0,0,1-7.32-112.68c-.12-15.72,0-31.56.36-47.28a236.33,236.33,0,0,0,47.88-1.92l.6-.84c3-5.4,2.76-10.44-.6-15.36-16.92-2.52-32.76-1.68-47.52,2.64.6-21,1.68-42,3-63a397.36,397.36,0,0,1,20.4-102.36C544.2,58,553.92,51,568.2,51.72a50,50,0,0,1,7.44,9.36c6.6,10.68,12.72,20.16,18.6,28.44C596.52,79.8,595.32,70.08,590.52,60.36Z" transform="translate(-1.04 -21.38)"/></g></svg>