<svg id="Layer_1" data-name="Layer 1" xmlns="http://www.w3.org/2000/svg" xmlns:xlink="http://www.w3.org/1999/xlink" viewBox="0 0 559.69 600.36"><defs><style>.cls-1{fill:none;}.cls-2{clip-path:url(#clip-path);}.cls-3{fill-rule:evenodd;}</style><clipPath id="clip-path" transform="translate(-11.39 3.48)"><rect class="cls-1" x="11.16" width="560.04" height="597"/></clipPath></defs><g class="cls-2"><path class="cls-3" d="M282.48,568,309.24,569l-3,4.8-10.08.24-4,22.8,1.56-22.8-16-3.12Zm41,7.32,13.56,2.4,3.84-13a53,53,0,0,1-3.24,31.08L337,579.24l-2.16,2-1.44,1.08-.84.36a10.49,10.49,0,0,1-9.36-1.68L317,595.56l4.08-27.84Zm-72.6-7.92a188.48,188.48,0,0,1,17.4-26L236.76,596A302.59,302.59,0,0,1,250.92,567.36Zm-39.6,3-8.88-1.92c-7.8,11.88-5.4,19,7.2,21.36A10.39,10.39,0,0,0,220,586.08c-3.72,6.84-9.48,10.2-17,10.08a9.62,9.62,0,0,1-9.12-6c-1-10.92,2.64-20.28,10.8-28l9.48,3.6Zm26.16-28.68L254,559.2,250.8,565l-19-18.72,3.24-4.8ZM180.72,517l15.84-.24,13.92.84-2.4,4.08-10.68.48a105.86,105.86,0,0,1-4,45.84l1.92-45.84-18.48.12Zm31.44-10,14.28-25.08,4.32,27L227,516l-2.16-2.88-2.16-20.64-13,23.52-7.08-23.88-13.44,18.36,16.32-27.36Zm75.72-23.76-.84,71,35.76,2L319.2,562l-38-.24a107,107,0,0,0,.48-32.16A85.78,85.78,0,0,1,287.88,483.24Zm13-36.84L294,457.92l16.56,20.76-4.08,5.64-18.24-22.8-11.64.84,19.8-10.68c-2.76-5-7.2-7.56-13.08-7.68h-1.8L267,481.32a145.61,145.61,0,0,1,13.32-42.24l-.6,3.36,3.84-4.44,8.88,1.44Zm-1.56-35.16c-2.52-1.56-5.4-1.56-8.52-.24l.36,4.44,2.16-2.52,2.76-.6Zm3.36,3.24,8.16,6.84a12.4,12.4,0,0,1-5.64,8.64,16.45,16.45,0,0,1-16,1.56l2.4-4.08,13.32-4.32-7.56-5-6.36,1.8-5.52,17a49.36,49.36,0,0,1,5.28-29L306,406.56Zm-24.36-86.76-2.52,63.72c18.84,4.08,29.64-3.36,32.4-22.44,2.52-17-3.72-29.52-18.48-37.56A33.53,33.53,0,0,0,278.28,327.72Zm-.12-5.4q33.3,2.52,36.48,35.88c1.56,15.24-2.64,28.56-12.36,40.2l-1.92,2.28-2.76.6L296,402.84a45,45,0,0,1-30.6-6.36L270,389l2,1,3.72-62.4Zm-53.4,91.92,5.76-2.4-5-2Zm11.16-5.4-4.44,7.92,9,12.12-4.8,5.64-11-15.48a39.13,39.13,0,0,1-8.4,17.88,154,154,0,0,1,7.08-26.76c2-5.64,5.88-7.08,11.52-4.56ZM189.48,427l18.6,1.56-1.92,4.08a21.35,21.35,0,0,1-20.28.84c-4.32-10.68-1.92-19.56,7.32-26.64,3.48-1.32,6.36-.48,8.52,2.52l.6,1.08-1.92,3L190,413.16l-2.76,10.56Zm21.36-31,13.92,4.44-2.88,4.92-16.44-1.08,3.72-25.92Zm9.48-93.84-1.68,16.56c4.8,0,8.16-2,10-6.24,1.92-4.44.24-8-5.16-10.8Zm7.8-5.28c7.32,7.2,7.32,14,0,20.64a10.51,10.51,0,0,0-2.28,2.88L236.16,344l-4.32,8.28-11.52-29.64-3.36,1a62.18,62.18,0,0,1-7.2,28.92l7.32-49.2c1-4.44,3.84-6.6,8.76-6.6ZM191,305.76c-5.64-.12-8.28-1.56-7.92-4.08l28.44.84-2.16,3.24-9.72.72a25.84,25.84,0,0,1,2,9.48,87.36,87.36,0,0,1-5.64,34.44l.72-44Zm-6.84-59.4,12.12-18.6h1.92l17-18.84-16,20.28,22.8,37.32-4.2,5.76-22.56-38.16L184.2,247.68l-4.56,22.44,1.8-54.6ZM269.52,240a4.77,4.77,0,0,1,2.64,2.4c5.64,13,10.92,25.92,16,39l10.08,26.76c3.72-10.68,7.08-21.36,10.08-32.16q5.58-19.62,14.76-32.4c-2.52,10.08-5.52,20.16-8.88,30.24a433.74,433.74,0,0,1-20.28,49l-5-20.28c-1.08-.36-1.68-1.08-1.56-2l-21.12-55.56ZM165.84,268.92l10.56,18.24,11.88-10.44,8.4,13.92,12.48-18.72-13.8,24.72-2.64.24-7.92-14.16-10.56,12L164,272.28ZM156.48,13.56C173.76,23.76,183,38,184.2,56.16a165.75,165.75,0,0,0-32.4-32.4c-13-10-27.36-13.08-43.32-9.36A77.85,77.85,0,0,0,68.4,37.08,83.15,83.15,0,0,0,47,75.84a95.15,95.15,0,0,0,.12,44.64,117.32,117.32,0,0,0,19.32,41.28c9,12.36,18.12,24.72,27.36,37a235.75,235.75,0,0,1,22.56,36.12l14,28.56c5.88,12.24,11.52,24.72,16.68,37.32,5.76,14,11,28.2,15.72,42.72A322.71,322.71,0,0,1,174,388.32a278.13,278.13,0,0,1,4.2,46.8,259.6,259.6,0,0,1-3.72,45.24,241.6,241.6,0,0,1-11.16,40.8,169,169,0,0,1-22.44,41.4A62.59,62.59,0,0,1,104.16,587a76.62,76.62,0,0,1-43.8-1.68,68.27,68.27,0,0,1-35.16-27,78.7,78.7,0,0,1-13.8-43.44,87.34,87.34,0,0,1,9.48-41.4c-5.88,24.84-2.88,48.24,9,70a61.46,61.46,0,0,0,35.4,30.12,77.13,77.13,0,0,0,46.56,1.8,68.84,68.84,0,0,0,23.64-12,52.52,52.52,0,0,0,16.32-21.84,250.1,250.1,0,0,0,17.76-80.28,372.12,372.12,0,0,0,0-40.08,256.78,256.78,0,0,0-4.44-34.56l-3-14.16a255.79,255.79,0,0,0-10.92-34.92c-7.32-18.6-15.36-37-23.88-55.08a590.24,590.24,0,0,0-29-53.4c-14.28-23.28-29-46.2-44.52-68.76a95.26,95.26,0,0,1-15.24-37.56,84,84,0,0,1,1.2-35A130.5,130.5,0,0,1,65.28,37.08C80.16,18.72,99.36,8.52,122.76,6.24A53.46,53.46,0,0,1,156.48,13.56ZM158.28,99l5.64,1.92,1.2-1.08c14.76,2.52,23.16,11.28,25.44,26C185.64,137.76,177,143,164.52,142l-2.4-.48a107,107,0,0,1-6.48,47.64,516.43,516.43,0,0,0-.12-85.08Zm23.88,90a68.92,68.92,0,0,1,28.92,2.88l-12.72,3.24a35.37,35.37,0,0,1-3.48,23.76l1.32-23.52-16.56-1.56Zm3.6-58.2c-.48-16.68-9.24-25.2-26.16-25.8l2.4,30.84,19.32-1.68Zm44.52,15-6-3.24a26.21,26.21,0,0,0-14.28.6l2.4-34.08,3.6-4.92-1.2,31.56,13.8,1.44,4.44,3.36ZM252.72,4.92c2,.24,2,1.44.24,3.6l-.24.72c2.88,41.88,4.68,84,5.52,126.6q1.08,64.26-.6,129.12Q256,329,256.44,394q.18,48.24-2.64,95.88a270.12,270.12,0,0,1-6,43.56,26.68,26.68,0,0,1-2.16,5.88Q245.28,477.36,249,413q2.34-40.14,2.52-80.16c.24-32,.36-64.32.36-96.6-.12-43.08-.72-86-2-129.12-.84-32.64-.6-65.16,1-97.44A7.5,7.5,0,0,1,252.72,4.92ZM350.4,92.16c-.6,15.24-1.44,30.6-2.4,46a57.63,57.63,0,0,1-8.4,27l-22.8-99a527.1,527.1,0,0,0-.36,55.08c.24,6,.24,12,0,18.12a39,39,0,0,1-5,17.16l-1.92,3.12,3.84-104.16,2.16-3c1.32,5.16,2.76,10.32,4.56,15.36q8.82,25.38,15.12,51.48l6.6,28.92,8-94.32A313.14,313.14,0,0,1,350.4,92.16ZM309,43.56l-3.48.84c-1.32-7-5.16-11.88-11.52-14.64l-2.88-1.08q-27.72,26.1,3.6,43.8,4.68,2.7,9.72-1.8l-.12-6-13-1.68,15.72-3.48c2.88,6.36,2.4,12.36-1.56,18l-1.44,1.8-.24-3-3.24,4.56q-41.76-.18-20.52-43.08a44.38,44.38,0,0,1,11-14.28q15.12,3.24,17.64,18.36Zm60-12.72a184.22,184.22,0,0,0-55.08,1.44l6.36-7.68A72.68,72.68,0,0,0,347.4,12.12L355.2,6,316.08,2.88a74.1,74.1,0,0,1,47.28-.72l-25.92,19,34.32,5.16Zm31.44-9.24c5.88,13.44,6.24,25.32,1.08,35.52L399.6,42l-16.32-1.92-3.36,20.76a116.2,116.2,0,0,1,1.2-37.08l2.16,14.52,1.2-2,14.88-.36Zm46.2,10.8c-20.76,6.12-33.48-1-38-21l.36-1A25.59,25.59,0,0,1,423.12-3.48L450,3,414.24,6.24,413.4,9.6l26.52,2.76-2.16,3.36L412.2,13.44Q433.44,39,462.36,22L458,28.44C454.32,29.88,450.6,31.2,446.64,32.4ZM571,92.4l-3.24-1a102.51,102.51,0,0,0-41-43.8A56.06,56.06,0,0,0,492.84,40a47.81,47.81,0,0,0-26.4,10.2q-17.1,13.14-20.52,34.92l32.4,12.12a34,34,0,0,1,12.24,10.32,3.27,3.27,0,0,1,.36,3.6l-.48,1A237.66,237.66,0,0,0,445.32,92.4q1.26,38.88,33.12,66.48a67.36,67.36,0,0,1,15.72,19.68,568.56,568.56,0,0,1,47.52,122.52A473.83,473.83,0,0,1,552.24,486.6,172.24,172.24,0,0,1,524,560.28a70.74,70.74,0,0,1-15,16.08q-29.52,22.86-64.56,9.48-29.16,2.88-51.6-18A108.34,108.34,0,0,1,363,520a681.91,681.91,0,0,1-30-190.44,565.84,565.84,0,0,1,9.12-110.16q3.78-20,9.36-40a652.55,652.55,0,0,0-9.6,123.24,202.33,202.33,0,0,1,70-13.92l-4.08,6.48a206.88,206.88,0,0,0-65.88,12.6,723.33,723.33,0,0,0,21,184,168,168,0,0,0,25.2,55.92A59.5,59.5,0,0,0,422.16,572l-2.52-2.16c-11.4-24.36-13-48.6-4.92-73a57,57,0,0,1,4.08-9.12q-5.76,39.06,12.6,72.36c4.68,8.52,11.4,12.12,20.4,10.92q12.78-1.62,20.52-13.32a170.05,170.05,0,0,0,19.32-40.2,90.82,90.82,0,0,1-27.12,54.12,52.87,52.87,0,0,1-6.72,5.76c17.88,4.44,34.68,2.16,50.64-7a47.58,47.58,0,0,0,22.08-27.36,379.92,379.92,0,0,0,17.88-130.8A550.54,550.54,0,0,0,520.8,259.8a405.78,405.78,0,0,0-18.24-45.6A156.74,156.74,0,0,0,476,174.6q-32.94-36-37.32-83.52-40.68-8.64-63,28L373,123.48c-7.32,21.48-14.64,44.16-21.72,68.16a293.71,293.71,0,0,1,8.88-38l.24-1.56,1.44-1.68.48-.72a144.38,144.38,0,0,1,12.48-31.44l-1.2,3.36q18.72-41.22,60-38.52l6.48.72C449,58.68,466,42.12,490.56,34,502,30.12,513,31.2,523.68,37.08A193.49,193.49,0,0,1,563.4,66.24a42.5,42.5,0,0,1,7.68,23.4Z" transform="translate(-11.39 3.48)"/></g></svg>