<svg id="Layer_1" data-name="Layer 1" xmlns="http://www.w3.org/2000/svg" viewBox="0 0 468.02 395.93"><defs><style>.cls-1{fill-rule:evenodd;}</style></defs><path class="cls-1" d="M163.44,170.76,160.32,299c-1.08,42.84-3.36,85.68-6.84,128.28a97.43,97.43,0,0,1-2.4,15.72c-2.88,12.24-2.16,22.92,2,32a14.28,14.28,0,0,0,2.64-4,490.66,490.66,0,0,0,53-1,48.76,48.76,0,0,1,17.28,1.68,45.37,45.37,0,0,0,26.52-.24c13.32-4.2,16.08-10.92,8.16-20.28-1.92,1.68-3.84,3.48-5.88,5.4l-6.36.12a301.76,301.76,0,0,0-90.6,2.64q2.7-22.86,3.6-46.8l2.4-63.48L169.08,221c1.8-43.08,2.16-85.92,1.08-128.28A577.05,577.05,0,0,0,163.44,170.76ZM141.84,112c1.32-15.72-7.32-23.16-26-22.44Q66.66,110,71.16,165.24A199.65,199.65,0,0,0,98.4,250.92,228,228,0,0,1,130,353.76q3.78,61.74-52.08,95.76a61.77,61.77,0,0,1-23.76,8.64c-10.68,1.56-19.44-1.68-26.28-9.84q-4.68,11.52,4.32,20.52a20.92,20.92,0,0,0,8.88,5.4c11.88,3.36,23.52,1.44,34.92-5.64q67.86-42.48,60.36-119.76A274.2,274.2,0,0,0,97,231Q75.54,195.72,76.8,155.64a54.79,54.79,0,0,1,13.08-34.8c15.6-18.84,32.76-21.6,51.6-8Zm87.84,51.12c-1.8,42.6-3.48,85.44-5,128.28S221.76,377,220.8,419.64A2.15,2.15,0,0,0,223,421.8a2.23,2.23,0,0,0,.84-1.44c2.52-19.2,4.32-38.64,5.16-58.32l5.64-128.16c1.8-43.2,2-86,.48-128.4a1.83,1.83,0,0,0-1.68,1.8C231.6,125.76,230.4,144.36,229.68,163.08Zm179.64,28.08A315.79,315.79,0,0,0,405,224.88l-2.28,32.28-2.16,32.28-.84,16.08L398.64,338,398.28,370c.12,16,.72,31.8,2,47.52a248.3,248.3,0,0,0,8.16,46.2c3.48,12.6,12.36,17.88,26.76,15.84,14.88-1.92,27.84-8.28,39-19.2a82.82,82.82,0,0,0,16.56-23A32.91,32.91,0,0,0,493,413.4q-24.3,47.52-73.2,48.84a7,7,0,0,1-4-1.08,524.37,524.37,0,0,1-8.4-167.28l58.2-8.16a11.54,11.54,0,0,0,1.08-10.08,10.19,10.19,0,0,0-4-5.28,142.13,142.13,0,0,0-55,10.92q-7.92-87.12,41-151.56c3.12-4.2,7.56-6.72,13.44-7.44l7.44-.48,9.24,11.28q-1.08-31.32-28.2-16.56A60.63,60.63,0,0,0,423,146.88,219.94,219.94,0,0,0,409.32,191.16ZM372.6,102.6l-.6.12-1.8,10.92c-8.28,36.24-15.12,73.44-20.28,111.48-5.16,37.8-10.92,75.36-17,112.92q-7.56-56-13.56-112c-3.72-34-7.08-67.8-10.32-101.64.6-9,.84-18,.84-26.76A33,33,0,0,0,307,102.6l-.48-3.84L306,104.4a48.39,48.39,0,0,0-3.36,12.6q-7.74,63.18-18.48,125.88-10.8,63.54-23.4,126.72a276.64,276.64,0,0,1-8,31.2q-5.76,17.82,1.08,31.32a49.79,49.79,0,0,0,6.84-18.48L282.72,287.4q11.16-63.18,21.84-126.24l.6-3.72c.36,7.2.84,14.52,1.56,21.84,4.08,42.36,8.88,84.48,14.28,126.6,2.76,21.24,4.68,42.6,5.52,64.08.36,10.08,3.24,17.88,8.4,23.4a3.2,3.2,0,0,0,.84-1.68,182,182,0,0,0,.72-19.8l1.92-15Q346.86,293.7,355.92,230,360.24,200,366,170.28c0,9,.36,18.12,1,27.24q4.5,63.9,6.72,128.28l3.48,95.88a337.53,337.53,0,0,0,8.16,63.72,2.32,2.32,0,0,0,2.16-2.16A132.83,132.83,0,0,0,388.92,454l-6.24-95q-4.32-63.9-8-128Q371.4,176.7,372.12,124c.36-6.84.6-13.68.48-20.52v-.84Z" transform="translate(-26.24 -89.47)"/></svg>