<svg id="Layer_1" data-name="Layer 1" xmlns="http://www.w3.org/2000/svg" viewBox="0 0 303.25 211.11"><defs><style>.cls-1{fill-rule:evenodd;}</style></defs><path class="cls-1" d="M331.44,204.84c1.08,36.6,1.92,73.2,2.64,109.56q.54,37.8-28.44,59.52-24.3,18.18-44.28-1.32a65.24,65.24,0,0,1-3-17.16,721.44,721.44,0,0,1,4.92-127.92,129.53,129.53,0,0,0,.24-32.64l-.6.12a370.34,370.34,0,0,0-11.76,84c-.6,21-1.56,42-3,63.12-1.56,23.64,6.36,42.36,24,56.16,14.88,2.52,28.08-1.44,39.48-11.88,8.76-5.28,14.52-13,17.52-23a292.7,292.7,0,0,0,10.68-109.08,241.74,241.74,0,0,1-.36-32.28c.6-10.44-1.56-18-6.48-22.8A9.35,9.35,0,0,0,331.44,204.84ZM196,197.52c-15.72,5.16-25.2,16.56-28.2,34.44-2.88,16.44,1,31.08,11.4,43.8,9.48,11.4,19.08,22.68,29,33.84a89.67,89.67,0,0,1,21.48,41.52c3.36,15.36-2.28,27.6-17,36.6-13.8,3-25.68-.24-35.88-9.6-11.52-10.68-19.32-24.12-23.52-40.44a31.71,31.71,0,0,0-3.36-8.16c-4.2,25.8,3.12,47.76,22,65.64q14.4,13.68,33.12,10.08a32.92,32.92,0,0,0,22.44-16.08,66.25,66.25,0,0,0,8.88-35.88q-1.08-32.58-26.64-52.8a107,107,0,0,1-30.36-37.56c-6.84-14.28-6.12-27.6,2.28-40.08,5.16-7.68,12.36-11.4,21.48-11.28a37.29,37.29,0,0,1,24.48,10.56c2,2,4.08,2.64,6.12,1.92-2.28-13.68-10.32-22.08-23.88-25.32A48.5,48.5,0,0,0,196,197.52ZM443.52,300.36a272.37,272.37,0,0,1-4.08,78.72c-9,4.44-16.08,3.24-21.36-3.48q.18-6.48-4.68-7.92c-5.76,13.56-2.28,24.12,10.32,31.68q8.28,2.7,14.4-2.16c9.24-7.44,13.92-17.52,13.8-30.36q-.18-46.8-4.44-92.4Q442.26,285.24,443.52,300.36Zm4.56-60.84-1.08.6-.84.72-.48.72c-4,5.52-4.44,10.92-1.44,16.32l3.6-.24.72-1C453,250.08,452.88,244.44,448.08,239.52Zm-88.44-31.8,37,4a1257.53,1257.53,0,0,1-2,178,10.46,10.46,0,0,0,.36,3.84l1,3.84,1.32,3.6q17.1-74.7,7.32-153.12l-.84-7.32-.72-7.2-.84-7.2L401,219,400,211.92l49.68,1.56a8.14,8.14,0,0,0,2.28-5,12.9,12.9,0,0,0-1.56-7.56l-.24-.36L369,196.8l-7.44.48a6.12,6.12,0,0,0-2.64,5.76A31.55,31.55,0,0,0,359.64,207.72Z" transform="translate(-148.73 -194.88)"/></svg>