<svg id="Layer_1" data-name="Layer 1" xmlns="http://www.w3.org/2000/svg" viewBox="0 0 595.57 842.18"><defs><style>.cls-1{fill:#fff;}.cls-2{fill:none;stroke:#fff;stroke-linecap:round;stroke-linejoin:round;stroke-width:0.38px;}.cls-3{fill-rule:evenodd;}</style></defs><rect class="cls-1" x="0.31" y="0.31" width="595.08" height="841.68"/><rect class="cls-2" x="0.19" y="0.19" width="595.2" height="841.8"/><path class="cls-3" d="M110.52,93.36c-14,12.84-21.12,29.4-21.36,49.8a307.86,307.86,0,0,0,25.2,125.4q25,59.22,8.76,120.6-5,18.9-23.76,26.64a335.5,335.5,0,0,1-42.72,14c-13.2,3.36-23.76,1.08-31.8-7q-6.3,5.76-2.16,13.68a6.64,6.64,0,0,0,3.84,3.6c18.12,6.12,36.84,6.36,56.16,1a61.41,61.41,0,0,0,25.8-14.28q25.92-23.76,27.84-60.48a266.3,266.3,0,0,0-23-123.12Q88.8,188,96.6,130c1.8-13.08,8.16-21.12,19.2-24.12l4.32,3.48a37.25,37.25,0,0,1,11,12.24,6.92,6.92,0,0,0,1.44,4.8,4.27,4.27,0,0,1,0,3.84l.36-.12c4.32-18.24-2.52-31.08-20.4-38.4Zm162.12,31.32q21.06,38.7,3.84,81.36c-6.72,16.44-18.84,23.88-36.24,22.08a894.94,894.94,0,0,0,2.64-96.48c5.88-8.4,13.8-12.12,23.76-11A7.5,7.5,0,0,1,272.64,124.68ZM332.52,151c-.84-.12-1.2.36-1.32,1.44a910.75,910.75,0,0,0-2.28,92.52,1167.16,1167.16,0,0,1-3.48,128.16q.72,2.88,3.24,2.16A461.55,461.55,0,0,0,336.36,282q-1.26-65-1.68-127.8l-.48-.84A4.88,4.88,0,0,0,332.52,151Zm-89-32.16a17.06,17.06,0,0,0-3.12,8.16,6.09,6.09,0,0,0,1.2,4.56q-5.94,39.06-8.28,80.88a1066.53,1066.53,0,0,1-14.52,126.72c-3.72,21.36-7.8,42.6-12.48,63.6-2.64,12-1.8,22.92,2.52,32.64a2.43,2.43,0,0,0,1.2-1.56c3.84-18.12,7.32-36.36,10.32-54.84q10.62-63.18,17.52-126.72L239.16,240a16.24,16.24,0,0,0,4.32,1,34.66,34.66,0,0,0,11.76-.24,134.57,134.57,0,0,0,4.68,34.2q16,62.1,30,124.68c2.76,12.36,7.44,22.56,14.16,30.6a7.09,7.09,0,0,0,1.08-6.84,551.37,551.37,0,0,1-18.48-67.68Q274.62,296.82,258.24,240c7.2-2.4,12.84-7.56,16.8-15.6a155.13,155.13,0,0,0,15.84-75.72c-.84-21.24-10.56-35.4-29-42.36L258,108.48A93.81,93.81,0,0,0,243.48,118.8ZM212,90.84a222.33,222.33,0,0,1-66.48,7.92,22.29,22.29,0,0,0-.72,4.08,10.9,10.9,0,0,0,.72,4.8l.24.84c15,4.56,30.6,4.32,46.56-.84l2.4-.72c-1,9.24-1.44,19.08-1.56,29.52L191.76,264.6a865.68,865.68,0,0,1-10.92,128.76c-1.92,11.88-.84,22.8,3.12,32.52a11.49,11.49,0,0,0,5.64-9.36q6.3-63.54,7.32-128.28c.72-43.08,2-86,3.84-129.12a276.81,276.81,0,0,0-2.64-53,75.09,75.09,0,0,1,36.12-.24l.6,1.44a2,2,0,0,0,1.2,1.08l1-.12.6-.6c3.84-14.28-2.88-20.28-20-18.12Zm278.28,7.92a23.81,23.81,0,0,0-7.44,3.24,78.86,78.86,0,0,0-28.8,35.76,399.94,399.94,0,0,0-26,91.8,245,245,0,0,1-36.24-2.28l-13,.84-.48.24-.6.6-.36.48q.18-60.3-.36-118.08A208.16,208.16,0,0,0,430,105.48l.24-.72c1.56-6.84-1.2-10.8-8.16-12-14.4,3.72-29,6.84-43.8,9.48a3.26,3.26,0,0,1-2.28-2l-.72-1.68c-3.12,1.56-3.6,4.92-1.56,10.2a3.42,3.42,0,0,0,1.56,2.16,198.83,198.83,0,0,0-3.36,35.76c-.12,42.84-1.08,85.56-3.12,128.16L361.92,404a112.64,112.64,0,0,1-2.16,15.72c-2.28,10.2-.48,17.88,5.52,23.16q3.6-41,7-83.16,4.5-59.94,5-120.6a141.19,141.19,0,0,0,49.2,1l-1,8.4a678.55,678.55,0,0,0-2.16,126.84,73.56,73.56,0,0,0,19.32,45c6.12,6.72,13.44,8.4,22,4.92A171.52,171.52,0,0,0,527,381.84c10.56-11.4,14.4-23.16,11.4-35.16A228.71,228.71,0,0,1,497.76,391,117.74,117.74,0,0,1,477,404.76c-22.56,11.64-36.84,5.76-43-17.88a240.62,240.62,0,0,1-7.32-71.16c.72-16.32,2-32.52,4-48.48a100.39,100.39,0,0,0,52.56-1.8,18.79,18.79,0,0,1,4.08-4.08l.36-.72a10,10,0,0,0-1.2-9.84,272.79,272.79,0,0,1-54.24,4.32q4.32-30.78,11.52-60.84A435.56,435.56,0,0,1,460,141.36c7.44-19.8,21.12-29.4,40.92-29a16.41,16.41,0,0,1,7.8,7.8c3,6.36,5.64,12.6,7.8,18.48l-.6-9c-.84-11.88-5.52-21.6-14.28-29.16l-3.6-1A16.67,16.67,0,0,0,490.32,98.76Z" transform="translate(0.19 0.19)"/></svg>