<svg id="Layer_1" data-name="Layer 1" xmlns="http://www.w3.org/2000/svg" viewBox="0 0 441.83 459.4"><defs><style>.cls-1{fill-rule:evenodd;}</style></defs><path class="cls-1" d="M233.52,397.68c8.76,11.64,18.24,22.92,28.2,33.84a216.15,216.15,0,0,0-24,87.12h2.52l49.92-140.28a95.61,95.61,0,0,0,5.52-27.6,440.6,440.6,0,0,0-30.84,73L221,357.48C219.48,371.16,223.56,384.6,233.52,397.68Zm-94-144.12a443.3,443.3,0,0,0,56.16,4.8,734.45,734.45,0,0,0-4.2,78.24q0,64.44-.72,129a87.79,87.79,0,0,1-1.68,16q-4,18.9,3.24,31.68a10.29,10.29,0,0,0,2.52-6.36c2-42.72,3.36-85.8,4.2-129.12.72-40.2.36-79.92-1.2-119.4l47.28-1.8.6-1a10.67,10.67,0,0,0-.6-12c-34.92,1.68-70,2.52-105.36,2.64l-.36.84A11.89,11.89,0,0,0,139.56,253.56Zm16-155.88Q138.6,67.44,101.76,68.52,75.12,81.3,67.68,109.92c-6.6,25.08-4.56,49.2,6.12,72.6,8.52,18.6,17.28,37.2,26.28,55.56a342,342,0,0,1,33.6,115.56,329.31,329.31,0,0,1-1.92,87.6,71.11,71.11,0,0,1-13,31.68c-18.6,25.56-43.68,32.64-75,21.36a46.46,46.46,0,0,1-10.8-13,41.08,41.08,0,0,0-7.56-9.48,17.31,17.31,0,0,1-1.08-4.8,36.46,36.46,0,0,0-1.2-6.48,5.81,5.81,0,0,0-2-3.24C16,464,15.48,471.84,19.44,480.84A60.37,60.37,0,0,0,37,503.64q32.76,26.28,69.12,2.64a51.59,51.59,0,0,0,21.72-24.84A196.18,196.18,0,0,0,144,405.36a426.12,426.12,0,0,0-16-122.64A294.21,294.21,0,0,0,88,196.8c-18.6-27.48-22.08-56.64-10.2-87.48,7.92-20.76,22.8-28.56,44.52-23.64a49,49,0,0,1,22.44,11.88A32,32,0,0,1,155,117.12a26.07,26.07,0,0,0,2.52-12.24A14.76,14.76,0,0,0,155.52,97.68Zm24.12-18.12Q164.7,137.34,146,194.4c-4,11.88-4.32,22.2-1.32,31q16.56-59.22,34.68-116.28v1.56A938.53,938.53,0,0,0,186.72,226c1.44-.36,2.4-1.56,2.88-3.36q14-57.42,25.44-115.2,3.78,46.8,9.72,93.36c1.56,12.12,4.92,22.2,10.08,30.12a63.76,63.76,0,0,0-.24-26.52A826.65,826.65,0,0,1,218,78.24c-2.4,1-4,3-4.56,6.24q-12.6,58.86-25,118.44c-2-33.72-3-67.68-3.12-101.76Q185.22,87.48,179.64,79.56ZM318,81.48c-.36,32.52-1.56,65-3.72,97.32q-4.14,64.08-2,129.12,2,63.9-.36,128.28c-.36,10.68-1.2,21.48-2.28,32.28a172.21,172.21,0,0,0,1.56,48,994.63,994.63,0,0,0,104.76,11.4l.36-.84a18.49,18.49,0,0,0-.12-14.52l.24-.84c1.08-2.16.84-2.76-.48-1.68l-.84.84a528.23,528.23,0,0,1-98.52-11c1.08-13.2,1.8-26.52,2.16-39.84q2-64.44-.72-129a1187.45,1187.45,0,0,1,1.68-129.12,1207.72,1207.72,0,0,0,2-128.28C319.2,75.36,318,78,318,81.48ZM274,89a428.26,428.26,0,0,1-.24,56.88q-4.5,64.08-4.32,129a505.12,505.12,0,0,1-3.84,64.8q-2,14.58,4.68,23.4a603.47,603.47,0,0,0,6-98.16c-.36-21.6,0-43.2,1.2-64.92a1089.13,1089.13,0,0,0-.12-128.28C274.68,76.44,273.6,82.2,274,89Zm169-2.4c-8.64-7.08-18.84-10-30.6-8.4-20,3-34.08,13.92-42.12,33a273,273,0,0,0-19.8,76.44c-4.68,42.36-9.12,84.84-13.2,127.2a413.61,413.61,0,0,0,7.32,127.68c4.2,19.44,14.4,34.32,30.84,44.64q32.94,20.88,62.52-2.64c16.2-13.08,22.92-29,20.16-48.12a1.93,1.93,0,0,0-.84-.48,3.83,3.83,0,0,1-2.88-1.56l-.36.36a1.73,1.73,0,0,0,.24.84,3.83,3.83,0,0,1,.48,2.52l-.6,4.08-.12.72-6.24,11.28c-13.32,23.52-33.72,31.08-61,22.8-10.68-3.24-18.48-9.6-23.52-19.08a172,172,0,0,1-20-76.44q-1.26-43.2,1.32-86.16a181.18,181.18,0,0,0,49.2,3.12,11.72,11.72,0,0,0,1.92-8l-.12-.84-.12-.84-.48-1.56a6.85,6.85,0,0,0-1.56-2.52l-1.08.12a163.43,163.43,0,0,1-47.16.12c2.76-41.76,7.68-83.16,14.52-124.32q6.48-39.06,35.4-64.8a65.38,65.38,0,0,1,42.24-2.16l1.2,1.44c1.44,1.92,3.12,2.76,4.92,2.52l.6-.36.24-.84a24.25,24.25,0,0,0,.72-4.08,9.69,9.69,0,0,0-1-4.08l-.24-.84Z" transform="translate(-16.81 -68.48)"/></svg>