<svg id="Layer_1" data-name="Layer 1" xmlns="http://www.w3.org/2000/svg" viewBox="0 0 561.66 397.2"><defs><style>.cls-1{fill-rule:evenodd;}</style></defs><path class="cls-1" d="M115.2,70.32l-11.4-1.8A36.41,36.41,0,0,0,81.12,80q-32.58,34.38-21.36,82.8A732.29,732.29,0,0,0,99.12,283.32,289,289,0,0,1,119,352.8q9.72,63.18-49.44,94c-20.76,10.92-38.52,8.88-53-6H15.48l-2.16.36-.36.48a20.7,20.7,0,0,0,1.8,10,16.86,16.86,0,0,0,8.64,8.64c22.44,9.72,43.44,6.6,63.24-9.36q52.2-42.12,35.64-107A991.61,991.61,0,0,0,82.8,222.12,275.41,275.41,0,0,1,63.36,131.4,50.28,50.28,0,0,1,68,107.76Q84.06,73,121.2,82.32a41.06,41.06,0,0,1,6.24,7.44,4.32,4.32,0,0,1,.72,3.84c1.8-2.28,1.56-5.52-.72-9.84l-4.32-8-1.32-.84-2.28-1.56-2.64-2.4Zm83.88,8.76c-11.64,8-20.28,19-26.16,32.64a386.73,386.73,0,0,0-29.16,113,959.34,959.34,0,0,0-4.2,127.32A146.63,146.63,0,0,0,162.36,427c5,8,12,12.48,21,13.2,16.44,1.2,31.2-4,44-15.36,10.92-9.72,16-20.76,15.24-33a126.94,126.94,0,0,1-43.56,32.64,19,19,0,0,1-15.36.48q-28.08-10.62-33.12-41.4a608.07,608.07,0,0,1-8-87.72,428.51,428.51,0,0,1,15.72-122.64,286,286,0,0,1,38.64-83.64c10.92-3.24,20.4-1.2,28.68,6a8.53,8.53,0,0,1,5.4,3.24,11.13,11.13,0,0,0,3.6,2.76,2.29,2.29,0,0,0,.6,1.2,22,22,0,0,1,3.6,3.84.93.93,0,0,0,.84.36l-.36-.84c-5.64-17.4-17.52-27.24-35.88-29.52Zm88.2,17.52c16.32,1.2,29.16,9.12,38.64,23.76a82.92,82.92,0,0,1,13.8,43.92,152.06,152.06,0,0,1-5.52,46.44,72.66,72.66,0,0,1-23.64,37.08A54.77,54.77,0,0,1,284,260.16a1177,1177,0,0,0,2.64-165.84Zm-1-6.24L286,84.72a141.79,141.79,0,0,0-3.24,32.76A1199.31,1199.31,0,0,1,278,245.64l-.84,10.68a18.66,18.66,0,0,0-4-1.68,5.77,5.77,0,0,0-.48,6.84,20,20,0,0,0,3.48,5c-3,35.64-5.76,71.52-8,107.4a195.77,195.77,0,0,1-3.24,24c-2.64,12.6-1.56,23.16,3.12,31.8a26.53,26.53,0,0,0,3.6-11.4l6.24-77q3.06-34.74,5.4-69.6a16.22,16.22,0,0,0,11-2.16l8.52-5.52a156.13,156.13,0,0,0,9.36,38.28,661.82,661.82,0,0,1,33.36,123c1.56,9.6,5.16,16.56,10.68,20.88l.48-1.56a64.64,64.64,0,0,0-2.4-25.68l-13-42.84Q323.94,319,305,262.32c19.8-15,32.28-35.52,37.44-61.8a127.84,127.84,0,0,0-2.4-59.88q-10.8-38.88-47.88-53.28l-3.24.48-1.92.6A5.3,5.3,0,0,0,286.32,90.36Zm188.4,203.28q36.18,49.86,8.64,105.72a29.72,29.72,0,0,1-14.88,14.28,100,100,0,0,1-38.76,9A692.65,692.65,0,0,1,433,345.48c2.28-25.08,4.08-50.16,5.28-75.48,5.52,2.76,10.68,4,15.36,3.48A74.33,74.33,0,0,1,474.72,293.64Zm9.72-143.88q17.46,61.92-23.88,110c-8.16,1.68-15.48,1.2-21.84-1.44.6-13.68,1-27.36,1.2-41,.6-42.84.6-85.08-.24-127Q473.7,111.24,484.44,149.76ZM391,101.52a.81.81,0,0,0-1.08.72,746,746,0,0,0-2.4,80.4c1.08,43.08,1.32,86,.72,129.12s-1.56,85.68-3.24,128.16a3.29,3.29,0,0,0,2.52,2.16,408.27,408.27,0,0,0,6.24-77.52q-.72-64.8.12-129.12c.6-43.08-.36-85.8-3.12-128.28l.48-.84A4.36,4.36,0,0,0,391,101.52Zm47.52-11.64a266.88,266.88,0,0,0-3.84,40.56c-.72,42.6-1.68,85.44-3,128.28q-2,64.8-7.92,129a188.79,188.79,0,0,0-.12,34.92l-5.28-.24-.36.84a14.91,14.91,0,0,0-.72,5.64,12.88,12.88,0,0,0,1.08,4.08L425,434.4a136.06,136.06,0,0,0,3.6,17.16,1.68,1.68,0,0,0,1.68-2l-.48-14.28a86.88,86.88,0,0,0,23.64-.36,32,32,0,0,0,18.24-9.12c23.64-23.64,33.48-52.68,29.52-87.36-3.48-29.88-16.68-52.44-39.36-67.68,4.2-2.52,7.92-6.6,11.28-12.24q34-59.22,12.12-123.48C477,110.88,461.52,93,438.6,81.24h-.24a2.18,2.18,0,0,0-1.68,2.4A9.18,9.18,0,0,0,438,89.28l.48.24Zm122.16-3.24c-10,4.44-16.44,12.24-19.44,23.28a693,693,0,0,0-20.88,112.92l-12.6,127.44a152.46,152.46,0,0,0,12.36,78.36q12.06,27,35.28,10.56c15.48-10.92,21-24.36,16.68-40.44a45.16,45.16,0,0,1-17.76,26.16c-14.28,10.32-24.6,7.2-31.2-9.48a155,155,0,0,1-9.72-74.16l8-77c12.72,5.64,26,6.24,40.08,1.8l.48-1a11.87,11.87,0,0,0-.84-12.84,200.48,200.48,0,0,1-38.76,3.48l1-10.2q5.58-57.78,16.2-114.48c3-15.84,10.68-27,23.28-33.36l2.88,1.8a16.13,16.13,0,0,1,7.68,14.4,9.8,9.8,0,0,0,1.2-5,30.44,30.44,0,0,0-4.2-16.32l-.84-.72L563,86.88Z" transform="translate(-12.91 -68.52)"/></svg>