<svg id="Layer_1" data-name="Layer 1" xmlns="http://www.w3.org/2000/svg" xmlns:xlink="http://www.w3.org/1999/xlink" viewBox="0 0 581.77 598.56"><defs><style>.cls-1{fill:none;}.cls-2{clip-path:url(#clip-path);}.cls-3{fill-rule:evenodd;}</style><clipPath id="clip-path" transform="translate(-2.8 1.92)"><rect class="cls-1" x="2.52" width="584.28" height="596.76"/></clipPath></defs><g class="cls-2"><path class="cls-3" d="M323.64,539.76l-1.08-1.08-43.68,8.16V555l22.56-1.92a124.41,124.41,0,0,0-.12,41.64,117.39,117.39,0,0,0,2.88-41.88l20.16-3.36Q327.78,544.26,323.64,539.76Zm8.88-3.72a113.1,113.1,0,0,0-6.36,44.28,62.12,62.12,0,0,0,2.4,14.52l2.88-24.72,19-2.88-.12,25.44,2.76-.36A230.91,230.91,0,0,0,356.88,565a79.61,79.61,0,0,0,.12-12,89.43,89.43,0,0,0-2.28-16.08l-3.12,19.68L332,561.48ZM179.64,549c1.08-7.68-2.28-12-10.2-13.08l-1.68-.24q-34.2,30.78,3.72,57.12c4,2.76,8.28,2.4,12.72-1.2l5.76-4.44-1.08-10.56-3.6,2.76c-16.08,8.16-26.28,4-30.6-12.48l6.24-15.48c5.52-4.44,11.16-5.16,17-1.92ZM255,540.24l-.72-2.64L238.2,563.16c-2-8.28-7.2-15.12-15.48-20.28L217.56,539c-2,3-2,6.24.12,9.72a59.19,59.19,0,0,0,11.4,13.08,50.41,50.41,0,0,0,6.84,5,120.92,120.92,0,0,0-8.28,15.6,12.82,12.82,0,0,0-1.2,4.32,16.71,16.71,0,0,0,2.4,9.84l21.36-36.48A24.36,24.36,0,0,0,255,540.24ZM292.68,503l-3.48,4.8-7,.36-.12-7.2,2.28-1.8,2.4.36Zm-2.4-11.16-2.4-.24L283,492.72c-8.28,14.4-10.8,29.28-7.32,44.52l5.64-19.8,5.4.6,17.16,18.6c1.44-7.92-1.44-14.16-8.76-18.6a7.56,7.56,0,0,1-2.64-2.52c5-5.88,6.12-12.48,3.24-19.56Zm8.52-48c-15.72,10.2-23.88,24.72-24.48,43.44a66.31,66.31,0,0,0,40.92-1.92v-9.72l-30.6-.6q23.58-17.64,27-40.32a34.72,34.72,0,0,0-24.84.84l-2.16,1.08L284.4,444a9,9,0,0,0,8.88.6A10.86,10.86,0,0,1,298.8,443.88Zm1.2-65a149.32,149.32,0,0,0-5.4,27c-1.2,10.32-.24,18.84,2.76,25.68l.36-.72a185.18,185.18,0,0,0,3.12-22.56,51.32,51.32,0,0,0,14.88.24c-1.08,9-.24,16.92,2.4,23.64l.36-.36a217.59,217.59,0,0,0,5.4-52.44,2.65,2.65,0,0,0-2.28,2.16q-2.34,7.74-4,15.84a50.06,50.06,0,0,0-16.44,1.2A154.71,154.71,0,0,0,300,378.84Zm25.2-49.08a11.11,11.11,0,0,0-3-3.72l-10.56,39.24L299.52,323.4A229.65,229.65,0,0,0,292.44,373l-.24,7,8.4-39.24a62.88,62.88,0,0,1,1.92,10.56,53.86,53.86,0,0,0,7.2,23.28,39.55,39.55,0,0,0,4.08,5.88A293,293,0,0,0,326.16,337,11.44,11.44,0,0,0,325.2,329.76Zm-67.32,96,1.56,4,6.24,4,5.28.24,4.32,7.56,2.88-46L274.92,394l-8.52,2.64-.72,6.84h8.88L273,414.72l-3.6,7.68c-5.16-.24-8.52-3.24-10-9a112.53,112.53,0,0,1-1.32-49.8,145.86,145.86,0,0,1,7.8-25.92l5.76-1.08,1.2.36,2,1.44,1.68,1.68,1.44,1a10.38,10.38,0,0,0,2.76.72h1.44a10.29,10.29,0,0,0,.24-4.32,13,13,0,0,0-10.56-10.8l-5.76-.6-6.24,8.52a136.77,136.77,0,0,0-9.72,45.72A115.28,115.28,0,0,0,257.88,425.76Zm-34.56-179c-6,8-7.56,16.68-4.68,26q21.6-27,28.32-59.28l-22.08,31a59.79,59.79,0,0,0-12.48-29.28c-1.56,10.92,1.68,20.88,9.6,30Zm11,20.88a164,164,0,0,0,1.8,37.08c-1.2,20.16-1.92,40.44-2,61-.36,43.08-1.2,86-2.28,129a157.91,157.91,0,0,1-2.52,24q-3.06,16,6.84,23A339.13,339.13,0,0,0,240.24,493c.36-42.84.72-85.92,1-129,.12-10.92.6-21.6,1.68-32.28q3.24-34.2-7.8-64.32C234.6,267.24,234.36,267.36,234.36,267.6Zm-65.88,17.88,7.08,38.16,13.8-35.16,4.44,30.24,2,1.68,2.4,7.2c2.4-11.4,1.68-24.24-2.28-38.28a139.66,139.66,0,0,0-6.36-17.64L176.4,304.2l-7.08-34.08a208.55,208.55,0,0,0-21.84,55.44c4.8,0,7.8-2.64,8.88-8A111.16,111.16,0,0,1,168.48,285.48ZM117.6,172.92l22.08,4.32c-1.56,26.52-2.88,52.92-4.08,79.44a52.71,52.71,0,0,0,.72,10.68,35.26,35.26,0,0,0,3,8.88,843.18,843.18,0,0,0,5-98.4l15,.72a8.38,8.38,0,0,0,1.56-2.88l.24-1.2a7.9,7.9,0,0,0-.48-3.84l-1-2.16L119,163.68l-1.68,7.56ZM114.84,45.24c-4.2-29.52-21.12-44.52-51-45-13.8,5-23.52,14.76-29,29a67.25,67.25,0,0,0-3.84,32A308.05,308.05,0,0,0,66.6,173.88a341.53,341.53,0,0,1,15.72,32.76,628,628,0,0,1,36,120.48,485.73,485.73,0,0,1,7.92,118.2,429.88,429.88,0,0,1-13.92,88.44q-5.58,21.42-25.56,31.68-31,15.84-63.72.12a123,123,0,0,1-8.64-26.88,194.48,194.48,0,0,1-3.6-47L8.16,488.4l-.6-.72a12.64,12.64,0,0,1-3.12,1.56l.84,1.2.36.6a91.48,91.48,0,0,0-2.76,26.88A157.71,157.71,0,0,0,21.12,584.4a119.3,119.3,0,0,1,20.28,5c12.84,4.2,25.32,4.32,37.56.12a46.72,46.72,0,0,0,23.52-17.4,147.32,147.32,0,0,0,26.64-66,603.18,603.18,0,0,0,4.56-128.4,522.12,522.12,0,0,0-23.4-122.88c-3.12-9.84-6.6-19.56-10.56-29.16q-25-60.84-53.64-120.6C33.24,78.36,33.6,52.56,47.28,28A17.84,17.84,0,0,1,60.6,18.48c28-4.56,45.36,6.72,52.44,34Q115.56,49.92,114.84,45.24Zm159.36,168a10.14,10.14,0,0,0-3.12,7.8q.72,51.3-1.92,102.36l37.92-2.52a11.46,11.46,0,0,0,.24-11.28,132.65,132.65,0,0,0-33.24,1.32v-.84a448.86,448.86,0,0,0,1.32-97.44C274.8,212.76,274.44,212.88,274.2,213.24Zm-87.36-57.72-24.48-5.64a168.4,168.4,0,0,0,1.32-44.64q-11.16,25.2-6,56.28l28.68,3.24ZM178.56,178l-.12-3.48,7.44-.24.24.24a6.67,6.67,0,0,1,3.24,2.52,29.93,29.93,0,0,1-6.48,2.4A11.44,11.44,0,0,0,178.56,178Zm7.8-12.12-9,2c-6.6,16.32-9,31.8-7.08,46.56l7.56-25.2,6.12,1.32,14.88,25.92a39.46,39.46,0,0,0-9.24-29Q200,179,191.4,168a2.41,2.41,0,0,0-1-.48ZM185,60.84c.12-3-1.32-5.16-4.56-6.72l-4.32,41a102.13,102.13,0,0,0-22.08-41.28l-.12-.6c-.24,0-.48.24-.72.6l-.24.24-.36.24-.24.48-7.92,52.08,4.68,1.92a88.42,88.42,0,0,0,5.52-28q.18-7.92,0-16.2l22.08,42.48.36,2.16h.12l.12-.12.36-1.08.72-2.88A291.42,291.42,0,0,0,185,60.84ZM235.92,1.92q-3.6,33.66-4.56,68.76c-1.08,42.6-1.8,85.2-1.92,127.92-4.44,7.56-3.48,14.28,2.64,20a55.25,55.25,0,0,0,4.56-23.52q-1.44-64.44,2.4-129a316,316,0,0,0-2.64-64.2ZM514.44,165a756.25,756.25,0,0,1,21.72,128.64,523.66,523.66,0,0,1-1,95,431.46,431.46,0,0,1-31.08,122.16q-18,43-62.4,53.16a71.79,71.79,0,0,0-15.24,4.8c.84-17.4,1-34.92.24-52.56q-2.52-64.44-.48-129.12,2-64.44.72-129c-.84-43.08-.6-86,.48-129,1.08-39,1.56-77.88,1.44-116.4Q472.26,34.86,489,82.08C498.6,109.08,507.12,136.8,514.44,165ZM423.84,6.24a47.47,47.47,0,0,0-3,18.12c.36,43.08,0,86-1.2,129.12q-1.8,64.26.24,129,2,64.44,0,129c-1.32,43.2-1.44,86.28-.6,129.12v11.28a39.48,39.48,0,0,0-1.56-8.88,8.83,8.83,0,0,0-4.08,3.72l-.72,1.44-1,4.08a6,6,0,0,0,.12,3.24l-2.16,4.92a33.77,33.77,0,0,1-7.08,11.28,19.93,19.93,0,0,1-13,3.84c-8.52-.48-13.56-4.68-15.12-12.48a519.78,519.78,0,0,1-9.36-98.76c-.12-17.28.12-34.56.48-51.72,10.32-.6,20.64-1.68,31.08-3.24l.48-.72c2.76-5.64,1.92-10.08-2.4-13.32a162.71,162.71,0,0,0-28.92,5.88c.6-21.72,1.56-43.44,2.76-65.16,1.08-20.16,1.68-40.2,1.68-60,0-19.08,6-34.8,18-47.4a8.07,8.07,0,0,1,3.12,2.52l12.6,17,.24-.6c2.28-15.48-3.72-26.28-18.12-32.16-8.76,7.08-13.8,16.56-15.24,28.2-4.68,37.32-7.56,74.88-8.88,112.68-.72,21.36-1.08,42.72-1.08,64.2q0,59.94.6,120.12c.12,19.2,6.24,35.16,18.6,47.88,9.12,3,16.8,1.68,23.16-3.84,8.88-7.8,14-16.2,15.36-25.32-.24,4.56-.72,9.12-1.32,13.56-1.32,10.68,1.08,18.24,7,22.92l.6-6.12,11.28-2a87,87,0,0,0,46.08-25.32A178.39,178.39,0,0,0,530,472.2a757.58,757.58,0,0,0,14.52-127,524.49,524.49,0,0,0-12.12-127Q518.58,155.82,503.16,94.2q-16.38-66.06-76.8-96.12a7.36,7.36,0,0,0-2.76,6.24ZM583.92,33.72C586.68,18.24,580.68,7.8,566,2.4c-10.92,6.36-16.56,16.32-17.16,29.76q-3.06,64.44-8.28,128.28a100.61,100.61,0,0,0,5.76,43.92c4.56,12.36,12.6,15,24,7.8,12.24-7.8,15.48-16.32,9.72-25.68a9.47,9.47,0,0,0-3.72,3.48,104.4,104.4,0,0,1-7.08,10.32,38.21,38.21,0,0,1-12.72,2.64c-8.28-7.44-11.88-17-10.8-28.92,1.8-18.72,3-37.44,3.84-56.28A72.93,72.93,0,0,0,571,113.64l.6-1a10.68,10.68,0,0,0-.6-12c-7.08,1.56-14,3.48-20.88,5.64.72-17.16,1.08-34.32,1-51.6,0-16,5-29.16,15.24-39.6a21.46,21.46,0,0,1,3.84,1.56A24.21,24.21,0,0,1,579,24.84c0,1.56.12,2.88.24,4.2a5.84,5.84,0,0,0,4.08,5.28Z" transform="translate(-2.8 1.92)"/></g></svg>