<svg id="Layer_1" data-name="Layer 1" xmlns="http://www.w3.org/2000/svg" viewBox="0 0 543.94 541.08"><defs><style>.cls-1{fill-rule:evenodd;}</style></defs><path class="cls-1" d="M187.44,506.52c4.2-7.56,8-15.24,11.64-23a157.31,157.31,0,0,0,23.28,73.68l1.2-2.76L200.88,480a396.62,396.62,0,0,0,21.72-41.16,64,64,0,0,0,5.16-17.52,133.18,133.18,0,0,0-21.12,31.56c-7.44,16-15.72,31.56-24.72,46.8l-2-82.44c-2.28,17.16-3.84,34.44-4.44,51.84-.84,25.32-1.44,50.76-1.68,76.08a40.83,40.83,0,0,0,1.56,11.4,17.18,17.18,0,0,0,4-9.48c.84-10.8,1.44-21.72,1.8-32.64A26.84,26.84,0,0,0,187.44,506.52ZM221.76,305c-.6-22.56.48-42.84,3.24-60.72,14.76,5.52,19.08,17.76,13.08,36.84A49.24,49.24,0,0,1,221.76,305Zm.36-70.2-.12,1.92-1.2.6a5.8,5.8,0,0,0-.48,3.24l.12,2.4,1,.72c-3,32.76-5.88,66-8.64,100-.84,10.8-2,21.48-3.84,32.16-1.8,12-1,22.68,2.64,31.92q4.32-22.14,6.48-45.36c1.32-15.48,2.4-30.84,3.24-46.2l5.76-5a94.77,94.77,0,0,0,2.76,33.24q4.86,20.34,9.36,40.68A80.92,80.92,0,0,0,248.88,411c2.64-8.16,2.52-16.92-.36-26.16-2.64-8.76-5.16-17.76-7.56-26.76q-6.66-24.84-12.24-48.6c8.4-9,14.16-20,17.28-33.36,4.2-17.88-.6-31.32-14.4-40.44a16.9,16.9,0,0,0-9.48,1Zm-76.56,19a299.07,299.07,0,0,0,40.68-5.52c-.84,30.84-1.68,62.64-2.28,95.4a462.26,462.26,0,0,0,3.24,63.84,174.31,174.31,0,0,0,4.44-37.08A1096.21,1096.21,0,0,0,187,248a255.43,255.43,0,0,0,25.44-6.72l.24-.72c1.56-4.2.6-7.32-2.76-9.24-3.24,3.36-7.8,5.16-13.68,5.52a180.07,180.07,0,0,0-51.48,10.44l-.24,1.68A6.69,6.69,0,0,0,145.56,253.8ZM105.48,44.4c9.12,3,18.12,6.36,27.12,10.08,13.56,5.64,21.84,15.36,25.08,28.92L156.84,89a12.83,12.83,0,0,0,.24,4.8,4.4,4.4,0,0,0,1.44,2.52c3.84-2.28,5.64-5.88,5.28-10.92a37.94,37.94,0,0,0-4.92-17q-23.58-40.5-73.32-43Q57.3,40.38,48.6,72.72a109.63,109.63,0,0,0-1.92,47.16A158.08,158.08,0,0,0,74,184.32a420.81,420.81,0,0,1,36.12,60.84,622.78,622.78,0,0,1,42.24,115q15.3,59-5.88,115.56a134.35,134.35,0,0,1-36.24,53.4q-19.8,17.82-45.36,8.28c-17.52-6.6-28.08-18.72-31.68-36.48C30.48,487,28,473.28,25.68,459.72A30.36,30.36,0,0,1,25.8,454a11.25,11.25,0,0,1,3.6-7,2.39,2.39,0,0,0,1-2.76,11.64,11.64,0,0,0-4,5,54,54,0,0,0-2,7.2l-.24,2.4a99.8,99.8,0,0,0,1.2,55.32,55.53,55.53,0,0,0,22.68,31q44.28,30.42,78-8.28a224,224,0,0,0,32.28-69.48,225.3,225.3,0,0,0,.84-116.76A613.45,613.45,0,0,0,117.6,236.4,493.44,493.44,0,0,0,69.12,156C49,128.76,45.36,100,58.44,69.36q13-30.42,44.88-26.64l.48.36.6.48ZM297.84,46a610.52,610.52,0,0,0-3.6,96.72l5,129c1.8,42.84,2.52,85.92,2.28,129q-.36,65-3.84,129c-.6,12.12,1.08,22.92,5.28,32.28a2.14,2.14,0,0,0,1.08-1.44q4.86-63.9,5-128.16c.12-43.08-.6-86.16-1.92-129-1.32-43.08-2.28-86-3.12-129.12S301.32,88.32,297.84,46Zm-75.48-2.88a10.09,10.09,0,0,0-6.24,6.84q-18.72,74.34-33.84,148.92l-19.44-71.4-24.36,72.24c-3.48-29.88-8.28-59.52-14.4-89.16C121.44,98,118.44,85.68,115,73.32c2,28.68,5.4,57.36,9.84,85.8,3.12,19.8,7.2,39.36,12.12,58.68a329.07,329.07,0,0,0,24.48-61.2l2.52-8.88a263.69,263.69,0,0,0,15.6,62.88l3.36,8.28a35.44,35.44,0,0,0,9.36-20.4A670.19,670.19,0,0,1,215.4,89.88a148.45,148.45,0,0,0,6.84-41Zm253,3.12a495.13,495.13,0,0,0-14.88,88.44c-3.36,42.84-7.92,85.32-13.56,127.68q-8.46,63.18-14.52,126.48c-3.72,38.64-6.84,77.4-9.12,116.4-5.76-30.12-11.16-60.24-16.32-90.6q-10.62-62.82-22.44-125.76T357.6,163.56q-15.12-62.28-29.16-123.84c-.72-.12-1.08.12-1,.6A698.35,698.35,0,0,0,346.2,154.8q15.66,62.46,28.08,125.76Q386.7,343,396,405.6c4.68,31.32,9.72,62.64,15.12,93.72a356.14,356.14,0,0,0,16.32,61.8,2.48,2.48,0,0,0,2.16-2.88l-.24-14.52a72.71,72.71,0,0,0,3-21.24q.36-64.44,6.72-128.16T453.48,267c5.28-42.12,9.72-84.48,13.44-126.84a516.07,516.07,0,0,1,9.36-63.72,88.18,88.18,0,0,0,1.32-32A2.45,2.45,0,0,0,475.32,46.2ZM558.6,75c0-18.72-10.92-26.88-32.64-24.36a62.37,62.37,0,0,0-7.56,2.16,37,37,0,0,0-22.2,19.8,178.35,178.35,0,0,0-17.28,70q-3.06,63.9-2.64,128.28c.12,43.32,1,86.28,2.28,129q2,64.8,5.4,129.12a44.56,44.56,0,0,0,7.8,23.16q17.82,25.74,44.76,5.52a68.26,68.26,0,0,0,14.4-14.4c12.12-16.68,16.2-34.08,12.48-52.2a2.82,2.82,0,0,0-2.88,1.56l-.48.48-.72-.12-.72-1.2a6.79,6.79,0,0,1-1-3.36l-.24-.36-.6.36.12,1.56.84,3.36.12.72v.84l.48.72,1,1.08v.6a230.22,230.22,0,0,1-8.76,21.84q-13.86,30.6-46.08,26.76c-5.16-.6-8-3.6-8.88-8.76a776.2,776.2,0,0,1-9.12-128.88c.24-21.72-.12-43.44-1.2-64.92l-1.08-29a90.58,90.58,0,0,0,40.2,5,10,10,0,0,0,2.4-7.32v-.84l-.12-1.56a6.55,6.55,0,0,0-2.88-5.76l-6.48.6a95.46,95.46,0,0,1-33.6-2.28q-1.26-44.1-1.32-87.84A690.87,690.87,0,0,1,491,104.76c4.68-28.32,21.84-41.88,51.72-40.68a21.84,21.84,0,0,1,12,10.2c1,1.68,2.16,2.16,3.72,1.44Z" transform="translate(-20.78 -25.44)"/></svg>