<svg id="Layer_1" data-name="Layer 1" xmlns="http://www.w3.org/2000/svg" viewBox="0 0 293.13 212.65"><defs><style>.cls-1{fill-rule:evenodd;}</style></defs><path class="cls-1" d="M283.8,253.32l1.92-.6c15.72-2.16,24.36,7,25.68,27.36,1.2,18.24-5.88,30.6-21.36,37.08a13.17,13.17,0,0,1-11.4-.6c-8.88-19.08-8.52-37.92,1.2-56.28A79.82,79.82,0,0,1,283.8,253.32Zm1.68-13.08q-19.8,12.06-20.88,37.44a87,87,0,0,0,8.76,43.44c6.84,14,15.72,16.08,26.4,5.88a63.49,63.49,0,0,0,8-82.68,26.64,26.64,0,0,0-16.68-10.8ZM148.08,365.4a32.45,32.45,0,0,0,4.56,13.68q24.66,19.08,57.24,15.6,10.62-1.26,15.48-10.08a57.47,57.47,0,0,0,7.2-33.84q-4.68-53.64-43.08-92.4Q166.26,235,185,209.76c20.52-9.72,35.88-5.4,46,12.72a7.66,7.66,0,0,0,1.68-5.76C231,197.16,219.12,187.68,197,188c-18.84,7-28.2,20.52-28.32,40.56,0,16.32,5.64,30.24,16.92,41.64q39.24,40,37.44,94.8c0,2.4-1,4.08-3,4.92-23.16,10.2-44.52,7.2-64-8.76a23.16,23.16,0,0,1,0-4.08,14.62,14.62,0,0,0-.36-6.48,6.78,6.78,0,0,0-3.12-4.08A28.62,28.62,0,0,0,148.08,365.4ZM330.84,193.92a96.75,96.75,0,0,0-1.92,37.32q8.64,64.8-12.72,124.68c-4,10.92-11.28,18.6-22,22.8-22.2,8.52-34.92,1.08-38-22.56a346.33,346.33,0,0,1-2.4-71.4A556.75,556.75,0,0,1,261.72,221c1.8-9.24,1.2-17.16-1.68-23.76a52,52,0,0,0-7.68,23.88q-2.88,36.54-6.6,73.08a209.42,209.42,0,0,0,9.6,87.72c4.68,14,14.64,20,30.12,17.76a30.2,30.2,0,0,0,19.44-10.92c23.16-28.68,34.44-61.8,33.84-99.6-.12-10.68-.12-21.12.12-31.56a244.52,244.52,0,0,0-7.2-64.2C331.08,193.56,330.84,193.68,330.84,193.92Zm76.92,97.2c15,7.2,24.12,19.32,27.12,36.48,3,16.44-2,29.52-15.12,39.48a69.55,69.55,0,0,1-41.28,14.76l-13.92-1.08,4.8-79.2a52,52,0,0,0,27.48-6.48l5.52-3.72Zm-38.76-83a33.11,33.11,0,0,1,9.24,1.56c21.24,7.08,34.44,21.72,39.84,43.68q-16.74,30.42-48.6,32.4,0-39.24-2.28-77.76Zm-2.64-13.56c-3.24,5.88-4.68,13.2-4.56,22,.36,23.28.36,46.56,0,69.72a14.9,14.9,0,0,0-1.32,7.68,12,12,0,0,0,1.08,4.2c-.36,15.84-1,31.68-1.8,47.4a289.7,289.7,0,0,1-3.6,32.16,42,42,0,0,0-.72,7.44l-.24,3.24a11,11,0,0,0,2.52,7.2,17.27,17.27,0,0,0,4.08,5.16l.48-3.24a70.16,70.16,0,0,0,48.12-4.08,43.34,43.34,0,0,0,19.68-17.64c9.24-15.72,12.6-33,10.32-52.08-2.4-20-11.64-34.08-27.72-42a35.19,35.19,0,0,0,9.24-25.56c-1.08-29.88-15.36-50.28-43.08-61.2a23,23,0,0,0-12.36,1.56Z" transform="translate(-147.95 -188.03)"/></svg>