<svg id="Layer_1" data-name="Layer 1" xmlns="http://www.w3.org/2000/svg" viewBox="0 0 566.4 580.72"><defs><style>.cls-1{fill-rule:evenodd;}</style></defs><path class="cls-1" d="M176.52,448a5.84,5.84,0,0,1-1.92,1.92c-1.32-1.32-4.32-3.12-8.88-5.28-4-1.92-6.24-2.88-6.72-2.88l-10.08.24c-9.36,12-15.48,22.92-18.48,32.64-2,7.2-3.12,17.28-3.12,30.36,0,11.88,1.2,21.84,3.72,29.64,5.64,17.16,16.32,25.68,32.28,25.68,8.28,0,15.36-4.8,21.24-14.52a55.26,55.26,0,0,0,5.16-10.32,30.22,30.22,0,0,0,1.68-5.52l1.08-.84a10.19,10.19,0,0,1,2.4,4.2,13.25,13.25,0,0,1,.6,3.48c0,1.08-.72,3.36-2.28,7a85.37,85.37,0,0,1-6.36,11.76C180,566,173.28,571.32,166.56,571.32c-20.4,0-33.6-10.44-39.72-31.32a91.79,91.79,0,0,1-3.48-22.68l.12-12.6c0-16.56,1.2-28.92,3.48-37,3.24-11.4,10.2-23.76,21.12-37.08q17.46,1.8,24.12,5.76c3.24,2,4.92,4.8,4.92,8.28A8.21,8.21,0,0,1,176.52,448Zm63.24-109.44a68.29,68.29,0,0,1,6.36,7.92c.6,1.56,1.68,6.84,3.48,15.72,1.8,9.48,2.76,15.48,2.76,18,0,12.48-1.8,23.16-5.52,32.16q-5.58,13.86-18,25.92L247,502q15.12,53.64,15.12,60.84a10,10,0,0,1-1.92,6.12q-6.3-3.78-21.36-62.16c-3.72-14.28-7-28.08-10-41.4-2.76-12.6-4.08-19.92-4.08-21.84V442l-1.92,1.68a10.94,10.94,0,0,1-2.88-1.2c-.48,13.92-1.2,26.76-2.28,38.52-.36,5-1.56,12.72-3.36,22.92a220.37,220.37,0,0,0-3.12,23.4c-.36,4.68-.6,12.12-.84,22.32-.72,9.12-2.52,16.68-5.4,22.56a20.93,20.93,0,0,1-1.92-9.72q0-23.76,5.64-71.28c4.44-37.08,6.84-59.52,7.32-67.56V355.44c-.84-7.32-1.32-12.36-1.32-15.12a40,40,0,0,1,.72-8,2.86,2.86,0,0,1-.48-1.44c0-9.24,4.8-10,14.28-2.4A89.35,89.35,0,0,1,239.76,338.52Zm-20.4-2.64c.72,6.6,1.2,13.92,1.44,21.72l.12,31.68c0,15.48-.24,29.88-.6,43.44l2.4-3.12,10.08-11.88c9.72-12.36,14.64-25,14.64-37.56,0-16-5.4-28.08-16.2-36.6l-11.16-7.2ZM107.76,36q4.32,6.48,4.32,8.64a10,10,0,0,1-.84,4.08A8.61,8.61,0,0,1,109.32,52a59.58,59.58,0,0,1-5.88-5.88c-3.84-4.2-7.08-7.44-9.72-9.84C84.12,27.48,75.84,23,69,23c-9.48,0-16.32,5.28-20.52,16a49.33,49.33,0,0,0-3.6,16.32c0,4.8,4.44,19.44,13.2,43.8q22.14,61.74,29,82.2,42.12,127.62,42.12,210.36a361.47,361.47,0,0,1-3.12,45.72A306.5,306.5,0,0,1,117,482.64a193.33,193.33,0,0,1-30.24,60.72c-13.8,18.6-26.16,28-37,28-18.36,0-30.36-10.68-35.76-32.16a105,105,0,0,1-2.88-22.44l.24-10.8c0-10.68.12-17.4.36-20.4.72-8.88,2.52-15.24,5.52-19.2a12.12,12.12,0,0,1,3,4.68l.84,2.88L19,485.64a113.85,113.85,0,0,0-2.16,21.24,93,93,0,0,0,4.92,31.2C25.92,550,32.16,556,40.32,556Q88,556,110.4,478.8a353.25,353.25,0,0,0,11-55.8,287.25,287.25,0,0,0,2.28-31.44q0-45-13.08-102.48c-6.6-28.8-16.32-62-28.92-99.6q-21.06-59.58-29-82.8c-8.76-25.8-13.2-43-13.2-51.48,0-10.44,1.08-18.24,3.36-23.52,3-7.2,9.72-15.24,19.92-24.12C73.32,5,84.6,10,96.6,22.08A94.58,94.58,0,0,1,107.76,36ZM186.6,202.44a15.34,15.34,0,0,1-2.16,7.32L158,211.68l.48,6.12-.12,12.6q0,11.7,4.32,76.56V380a72.16,72.16,0,0,1,1.08,13.8l-.36,15.48c-.6,10-1.92,16.2-4,18.84-1.56-4.92-2.4-11.52-2.28-19.8.36-9.36.36-16.32.12-20.76V313c-.36-3.84-1.2-17.52-2.52-40.92-1.2-23.64-1.8-37.8-1.8-42.24,0-6.6.12-11.64.36-15.36l.24-2.28c-12.84,1.08-21.24,2.28-25.44,3.36a18.12,18.12,0,0,0-6.48,3.12l-4.92,4.08a12.37,12.37,0,0,1-4.08-5.28,14.22,14.22,0,0,1-.6-3.84,17,17,0,0,1,.48-5.28c.6-1.8,2.28-3.24,4.8-4.56,6.36-3.24,20.88-6.12,43.8-8.4,0-.36,7.8-.36,23.28-.24A15,15,0,0,1,186.6,202.44ZM476.88,355.68q0,2.7-5.16,68.52c-3.72,47.4-5.88,79-6.72,94.68v13l12.24-.48,25.92.72,19.44,1.08a47.69,47.69,0,0,1,15.72,1.32l7.08,1.92c4.32,0,6.6-.6,6.84-1.68v-1.8a4.17,4.17,0,0,1,1.2-2.4c1.68.84,2.52,2.52,2.52,5.28a31.18,31.18,0,0,1-1,6c-.6,3.12-1.32,5-2,5.76l-15.6-.48a86.24,86.24,0,0,1-16.92-3.6l-9-.36-9.36-.72-12.72.24-13.32.6-13.44-.36q-1.44-5.58-1.44-16.56,0-18.54,3.6-76,4.68-74.34,10.56-102.84A17.33,17.33,0,0,1,476.88,355.68ZM355.68,33.84c-11.4-4.92-21.6-.72-30.48,12.36A90.91,90.91,0,0,0,317,61.92c-1.32,3.24-2.76,6.84-4.08,10.56q-16.56,107.46-24.12,174-11.34,100.8-11.4,176.16c0,14.52.24,25.68.6,33.48.24,4.8,1.08,17.88,2.64,39.24A152.43,152.43,0,0,0,291,539.76q10.44,27,23,27,10.62,0,27.36-22.68a248,248,0,0,0,21.36-34.44q8.46-16.74,13.68-28.44a175.17,175.17,0,0,0,10.08-28.32L396,414.12c2.52-10,4.08-17.64,4.92-23.28,1.44-8.88,2.16-26.16,2.16-51.72q0-38-3-86.64L394.32,164c-1.08-17.64-2.16-32.28-3.48-43.68a356.49,356.49,0,0,0-7.56-44c-1.56-10.44-3.36-18.12-5.52-23C374,45,366.72,38.52,355.68,33.84ZM375,33.12c7.2,8.16,11.52,18.36,12.84,30.72q9.72,51.3,12,91.8l5.76,92.88q2.88,49.86,2.88,90.36c0,24.84-1,43.08-3,55q-2.34,14.4-14,66.84c-2,9.72-6.36,21.84-13,36.12a351.54,351.54,0,0,1-21.72,39.84c-8.4,13.32-16.32,24.12-23.64,32.28-7.92,8.76-14,13.2-18.36,13.2-10.68,0-20.16-10.2-28.2-30.6a161.92,161.92,0,0,1-11.28-48.6l-2.52-42.48c-.48-10.44-.72-23-.72-37.92q0-86.4,10.68-183.72,9.9-90.18,28.08-181.44c2.76-13.56,8-23.76,16.08-30.48a30.17,30.17,0,0,1,24.6-7.08C360.48,21.12,368.4,25.56,375,33.12Zm75.24-1.68c.6-5.4,1.44-8.64,2.64-9.48,0,4.56.48,11.4,1.44,20.64s1.44,16.08,1.44,20.76c0,12.84-1.08,23.16-3.12,30.84a60.53,60.53,0,0,1-18.72,30.24q-23.4.9-30.24-19.8A67.21,67.21,0,0,1,401,88.32l.12-11.76a258.68,258.68,0,0,1,1.92-30.24c1.68-14.52,3.84-22.56,6.48-24.36a9.51,9.51,0,0,1,3,7.32L409.2,47.52Q406,67.32,406,76.32l-.12,6.84A50.65,50.65,0,0,0,407.16,95c2.64,10.8,9,16.2,19.2,16.2,13.08,0,21-11.88,23.52-35.52a160.88,160.88,0,0,0,0-35.64Q449.88,35.94,450.24,31.44Zm18.24-7.32a20.71,20.71,0,0,1,.6,4.56q0,24.66-10,223.8-11,221.4-18.48,308.64l5.76-.84,4.8-.84c14.76,0,31.44,2.16,50.16,6.36l18.6,4.32c6,1.32,10.56,2,13.56,2,5.16,0,9.24-1.68,12.24-5.16l2.64-3.84a6.26,6.26,0,0,1,1.8-2.4,21.91,21.91,0,0,1,1.68,5.76l.48,5.28.24,4.08a13.2,13.2,0,0,1-1,5.16c-2,4.44-7,6.6-14.88,6.6-6.12,0-18.6-2.16-37.56-6.36s-29.28-6.36-30.72-6.36c-10.44,0-17.4.48-20.64,1.44l-2.88,1-4.56.48c-3.24,0-5.28-2.16-5.88-6.36l-.12-6.84c0-3,2.16-39.12,6.36-108.12q7.56-121.5,10-164.64l6.48-136.2c.72-9.12,1.32-20.4,1.8-34l1.08-34.8c1.08-28.2,3.36-50.64,6.84-67.08A14.9,14.9,0,0,1,468.48,24.12ZM568.92,140.28a9.83,9.83,0,0,1,1.08,5,8.39,8.39,0,0,1-.48,3.24,11.56,11.56,0,0,1-1.92,2.76,98.29,98.29,0,0,0-9.6-5.52c-6.12-3.24-11.4-4.8-15.84-4.8q-44.1,0-61.92,72a280.67,280.67,0,0,0-5.52,27.6q24.48.18,25.2-.36l18.72-1.08,10.44-1.08,17.64-.72,1.2,2.4a11.17,11.17,0,0,1,0,6.48l-1.2,2.4-9,.48-9.72,1-19.8,1.08-8.28,1.08-26.52-.36-.24-.12a401.81,401.81,0,0,0-2.76,47.52,45.24,45.24,0,0,0,7.08,25.2c6.12,9.48,16.68,17.64,31.68,24.72l30-.24c11.88-6.12,20.28-13.08,25.44-20.88a37.66,37.66,0,0,0,6.24-22.68l.6-.48,1.32-.6a22.1,22.1,0,0,1,4.08,4.44,9.92,9.92,0,0,1,.72,4.44c0,2.16-1.2,5.76-3.6,10.68a109.92,109.92,0,0,1-9.24,15.24c-9.48,13.08-18,20.16-25.8,21.12L509.16,360c-17.76-9.48-29.64-19.2-35.76-29.4-4.44-7.56-6.72-17.88-6.72-31q0-52,9.12-93.36,14.58-66.42,49-76.44c19.56,1.8,32.28,4,38.4,6.36A12.28,12.28,0,0,1,568.92,140.28Z" transform="translate(-11.16 -6.92)"/></svg>