<svg id="Layer_1" data-name="Layer 1" xmlns="http://www.w3.org/2000/svg" viewBox="0 0 295.89 213.48"><defs><style>.cls-1{fill-rule:evenodd;}</style></defs><path class="cls-1" d="M300.6,209.64l4.08.36q36.9,19.26,35.52,64.44A265.65,265.65,0,0,1,332,332a89.78,89.78,0,0,1-9.24,23.4A51.83,51.83,0,0,1,296,378.72a67.34,67.34,0,0,1-26.28,4.44q-44.46-73.26-4.68-155.4c5.88-11.88,15.24-18.48,28.32-20l8.52-.48Zm3-13.2a42.77,42.77,0,0,0-25.44.24,46.77,46.77,0,0,0-16.44,19.68,254.29,254.29,0,0,0-22,125.16q2.7,36.18,29.16,58.32c30.48,1.32,51.72-12.24,63.72-40.44a168,168,0,0,0,13.68-69.6A270.38,270.38,0,0,0,338.4,226c-3.24-13.08-10.32-22.56-21-28.44l-.36-.24a21.18,21.18,0,0,0-8.64-3.48,4.19,4.19,0,0,0-1.8,1.2A4.74,4.74,0,0,1,303.6,196.44ZM197,188q-29.16,14-30.36,48.36c-.36,11,2.76,20.64,9.48,28.8q19.8,24.3,38.76,49a49.26,49.26,0,0,1,10.44,26.4c1.44,15.12-4.68,26.16-18.36,33.24-14,7.32-26,6.72-36.24-1.56a16.74,16.74,0,0,1-6.48-12.48c-.6-10-2.88-18.36-7.08-25.08-5.88,16.68-3.84,32.76,6,48.48A16.92,16.92,0,0,0,169,389q28.26,16.92,49.56-5.76,22-23.4,12.24-55.44a102.64,102.64,0,0,0-36.48-52.68q-26.46-20.34-18.12-50,8.82-31.5,40-18.6a49.12,49.12,0,0,1,8.16,10.32c2,3.48,4.2,6.6,6.24,9.6a12.66,12.66,0,0,0,1.56-12.72,46.35,46.35,0,0,0-14-20.28l-1.08-.72A46.73,46.73,0,0,0,197,188ZM431.88,395.52q24.48-59.58,10.2-127.32-5.4,42.3-7.08,86.52a59.79,59.79,0,0,1-5.88,23.76c-14.76,3.84-23.88-1.44-27.6-16-8.52,17.4-3.36,29.16,15.36,35A17,17,0,0,0,431.88,395.52ZM443.16,228.6a.71.71,0,0,0-.6.24c-5.16,9.48-5.4,18.72-1,28l.72-.72A45.8,45.8,0,0,0,443.16,228.6Zm1.68-30.84a773.77,773.77,0,0,0-95.76,8.76l-.6,1.56a10.68,10.68,0,0,0,1.68,10.56l39.24-1.56a174.48,174.48,0,0,0-1,24A742.37,742.37,0,0,1,381.36,370c-1.8,12.6.12,23.16,5.76,31.56,3.24-22.92,5.64-46.44,7-70.56a881,881,0,0,0-.84-114l53.16-4,1-1C451.32,206.16,450.48,201.48,444.84,197.76Z" transform="translate(-153.92 -188.04)"/></svg>