<svg id="Layer_1" data-name="Layer 1" xmlns="http://www.w3.org/2000/svg" viewBox="0 0 531.58 422.64"><defs><style>.cls-1{fill-rule:evenodd;}</style></defs><path class="cls-1" d="M143,238.08a1086.62,1086.62,0,0,0-4.8,111.24,229.17,229.17,0,0,1,52.8,4.32q5.58-7.74.72-16.2a224.68,224.68,0,0,0-47.88-4.56l4-54.36a425.15,425.15,0,0,0,1-53.64C145.56,228.12,143.64,232.44,143,238.08ZM107.64,86.16a104.94,104.94,0,0,1,17.88,32.4,11.6,11.6,0,0,0,2.76-10.32c-4-22-16-37.92-35.76-47.64l-11.28-.24a31,31,0,0,0-12.72,8.88Q41.34,99.66,44.28,141.6a84.34,84.34,0,0,0,6.36,27.48q24.3,58.68,46.92,118.44l11.28,29.4q18.9,48.06,5.88,97.2c-5.4,20.28-19.32,31.8-41.88,34.32-25.56,3-39.48-8.28-42-33.72l-2.76-.84-.48.12c-4.2,10.8-2.88,21.72,4,32.88,15.24,25,36.72,29.52,64.2,13.8a26.69,26.69,0,0,0,7-5.52q28.62-32.22,24.84-76.8c-.6-6.24-1.32-12.36-2.4-18.36A603.16,603.16,0,0,0,90,240.12a201.82,201.82,0,0,0-10.32-21.84A300.94,300.94,0,0,1,55.92,162q-14.76-48.24,19.8-83.28l2-.84c4.2-2.4,8.76-2.88,13.92-1.56A28.15,28.15,0,0,1,107.64,86.16Zm89.64-.36c1-15.6-7.08-23.16-24.12-22.8-23.88,9.48-37,27.6-39,54.12-1,11.64-2.28,23.16-4.08,34.68q-6.3,42.12,28.44,62.76a39.26,39.26,0,0,0,30.12-5.28c11.52-7.32,13.56-15.12,6.12-23.64Q178,207.42,151.92,193.8a18.34,18.34,0,0,1-10.08-12.6,161.92,161.92,0,0,1-3-57.48c1.8-14.76,8.16-26.88,19.32-36.24,13.56-11.4,26.52-11.76,38.76-.84Zm160.2,220.08a383.93,383.93,0,0,1-43,120.36q-18.18,32.76-55.8,29.28a14.73,14.73,0,0,1-10.32-5.28c-18.6-22.44-27.24-48.72-25.92-79.08L228,242.28a609.3,609.3,0,0,1,11.64-95.4q9.9-47.88,55.56-62.4c2.88-1.56,4.8-1.32,5.88.72l-.48,1.32a3.53,3.53,0,0,1,2.16,3L303,89c11.88,3.12,20.88,9.84,27,20.28a216.64,216.64,0,0,1,26.4,69.12A339.68,339.68,0,0,1,357.48,305.88ZM354.12,136.2c-2.4-7-4.56-13.8-6.6-20.52Q335.64,75,295.44,69.84a164.75,164.75,0,0,0-20.88,9.84A61.64,61.64,0,0,0,246,113.4,415.93,415.93,0,0,0,221.52,238c-1.08,26.52-3,53-5.52,79.32Q209.52,383,228.72,444.6a40.66,40.66,0,0,0,15.84,21.84q27,19.08,52.32-2.52c23.64-20.28,40-45.6,49-76.2a664,664,0,0,0,24-125.52A291,291,0,0,0,354.12,136.2Zm10.2,269.16,18.84-44.88L387,400.92Zm22.56-60.12L385,339.36c-12.24,18.6-23.4,41.64-33.6,68.88a87.19,87.19,0,0,1-10.08,19.32A87.37,87.37,0,0,0,327.48,458a20.74,20.74,0,0,0,2.64,16l28-54.6,31.08-3.12Q385.56,455.34,405,483a743.2,743.2,0,0,0-19.44-135.6ZM421.8,74.16l-.12,1.44-1.2,1a11.09,11.09,0,0,0-1,3.24,12.33,12.33,0,0,0,1,7.2l.36.6q-3.78,48.78-4.56,98.52c-.36,23.4-1,46.68-1.8,70.08l-1.92.12-.36.72a19.78,19.78,0,0,0-.48,10.56,6,6,0,0,0,2.16,3.24L412,314.4q-3.06,64.62-4.2,129.12-.18,18.9,7.56,31.32a26.93,26.93,0,0,0,3.48-15.36q-3.78-64.26-1.2-129.12l2.28-58.68c9.12.36,17-2.76,23.88-9.48q25.74-25.92,29.52-63.12a319,319,0,0,0-4.68-95.52c-4-20-15.48-31.2-34.56-33.24-3.12,1.08-6.36,2.4-9.84,3.72l-1.8,1.08v-1.2C422,74,421.8,74,421.8,74.16Zm33.84,19a233,233,0,0,1,11.88,70.32,212.91,212.91,0,0,1-5.16,50.64,69,69,0,0,1-4.92,14.52c-7.2,15.84-19.56,24.84-37,27q4.14-83.52,2.4-167.16a34.05,34.05,0,0,1,20.64-4.8ZM537.36,69.6l-12.48-.36c-14.88,3-24.12,12-27.84,26.88a846.23,846.23,0,0,0-18.24,103.8,1140.13,1140.13,0,0,0-6.6,126.72,34.09,34.09,0,0,0,7.8,22.2q20,24.3,48.36,6.12c15.48-9.84,20.64-22,15.48-36.48a5.73,5.73,0,0,0-6,3.36,14.73,14.73,0,0,1-4.92,5.52c-5.4,3.48-8,6.12-8,7.92-10.08,10.2-23.16,11.76-39.24,4.56a13.64,13.64,0,0,1-3.6-8.16,608.85,608.85,0,0,1-.36-102.48,379.15,379.15,0,0,0,42.48-6.48l.48-.84c2.76-6.36,1.68-11.28-3-14.88-13.08,3.12-26,6.72-38.88,10.92l.48-4.8A1045.66,1045.66,0,0,1,499.68,109.2c1.92-9.12,7-15.6,15.12-19.32C530,83,543.36,85.2,555,96.36a10.49,10.49,0,0,0-.12-11.88,39.37,39.37,0,0,0-13.2-12.72,4.43,4.43,0,0,1-3.24-1.32Z" transform="translate(-25.2 -60.36)"/></svg>