<svg id="Layer_1" data-name="Layer 1" xmlns="http://www.w3.org/2000/svg" xmlns:xlink="http://www.w3.org/1999/xlink" viewBox="0 0 589.96 598.2"><defs><style>.cls-1{fill:none;}.cls-2{clip-path:url(#clip-path);}.cls-3{fill-rule:evenodd;}</style><clipPath id="clip-path" transform="translate(-3.47 5.52)"><rect class="cls-1" x="3.24" width="591.12" height="592.8"/></clipPath></defs><g class="cls-2"><path class="cls-3" d="M379.8,541.8c.24,5.52-2.4,9.12-8,10.68l3.48-10.56,1.92-1.08Zm43.32-5.28q-25.92,20.7-9.48,47.76,3.42,5.76,11.52,4c8-1.68,13.92-6.36,17.52-14L441.24,571q-24.3,19.62-28.08-7.56a16.92,16.92,0,0,1,3.24-12.48l2.52-1.92a32.26,32.26,0,0,1,20.16.48l2.52.84c.12-6.72-3.6-10.92-11-12.72A38.36,38.36,0,0,0,423.12,536.52Zm-46.44-5.4-7.08,8.16c-5.88,15.72-7.92,31-6,45.48l5.76-20.88q7,20.34,21.6,28.8a87.74,87.74,0,0,0-16.8-31.2c9.84-7.08,12.36-16.56,7.56-28.2Zm-174.84,2.52c-9-3.48-18.24-2.88-27.84,1.56L178.92,493q-13,25.56-7.32,55.2a48.33,48.33,0,0,1,29.16-6.24Zm127.68,8.28c-6.6,12.84-7,25.8-1.08,39.12l1.08,2.28h7.56c14-13.44,20.52-29.88,19.2-49.2-2.88,19-11.28,32.64-25.08,40.92-4.68-9.24-4.08-19,1.56-29.16ZM200.76,454.56l2.88,8.28c3.72-5.76,2.28-12.36-4.2-19.92l-5.64-.48c-20,19.08-20.52,37.68-1.68,55.68,11.4-.36,17.4-6.12,18.12-17-5.4,2.52-10.92,4.92-16.44,7.32-14.28-10.68-14-22.8.48-36.24l3.84-.48ZM193.2,301.68l-6,10.56-4.68,1.44.24-16,7.68,1.8ZM180,291.6,176.64,293l-.24,5.88a537.28,537.28,0,0,1-3.72,56.64l8-26.28,14.16,25.44c2.64-10.44-.84-20.64-10.32-30.6a30.15,30.15,0,0,0,12.72-23.76v-3c-3.72-5.64-8.88-7.8-15.48-6.72l-1.08-1.32ZM111,13C101.52,3.12,89.76-.6,75.72,1.68a49.6,49.6,0,0,0-18.24,4.8c-11.4,5.28-19.32,13.44-24,24.36Q9.9,85.74,44,136l19.44,29.16a821.26,821.26,0,0,1,64.32,116,384.17,384.17,0,0,1,32.4,118.08q6.48,59.76-26.4,109.32A239.09,239.09,0,0,1,104,544.8q-23.22,23-55.8,21.24a10.94,10.94,0,0,1-7-2.76q-25.56-21.42-28.2-56.16a80,80,0,0,1,.72-20c1.56-9.6-.36-16.8-5.64-21.48a30.23,30.23,0,0,0-4.68,16.8A159.82,159.82,0,0,0,22.68,561c13.32,24.84,33.24,30.12,60,15.84a122.73,122.73,0,0,0,26.64-19.08q54.9-50.94,57.36-126.24a318.81,318.81,0,0,0-19.92-121.8Q130.38,265.44,110,223.08a420.79,420.79,0,0,0-50.28-80.52A141.68,141.68,0,0,1,31.68,83.88c-7.2-32.52,4.92-54.36,36.48-65.76,11.88-4.32,22.44-3.36,31.68,3,11.88,8,19.08,18.6,21.72,31.68a27.18,27.18,0,0,0-.72-22.44,100.48,100.48,0,0,0-9.12-16.56Zm84.36,199.2-8.64,11-2.76.36-4.44-3.6-1.08-17.4a23.69,23.69,0,0,1,15.24,7.68ZM178.08,196,175,218h-.48l-.6.72-.12,6.36,1,1.2L176,247.8l-36.36,7.68v7.32l26-4Q154,310,163,359.88l3.72-12.24-2.16-3,2.4-85.92,28-3-.24-7.2-16.08-1,1.08-7.32-1.32-2.16.72-7.56,3.36,2.16,6.24-.72c14.88-15.72,12.6-27.48-6.84-35.52A7.8,7.8,0,0,0,178.08,196Zm4.08-144-13.32-2.4L161.52,53l-.24,3.24.48.6.6.24-.6,43.32,3.36-22.68c14,5.52,21.36,1,22.08-13.56A14.59,14.59,0,0,0,182.16,52Zm6.48,50.76q-10.8,39.78-22.44,79.44l-.24-1.68q-1.44-38.16-5.76-75.48a291.89,291.89,0,0,0-18.84,47.28c-5,17.16-6.84,33.24-5.52,48.24A392.08,392.08,0,0,1,158.52,121l.24,1.68c.84,26.52,2.76,52.32,5.76,77.64a694.67,694.67,0,0,0,23-76.08c3.12,27.48,7.32,54.36,12.72,80.88l.36-.48q-3.42-51.3-10.92-102.36C189.12,102.36,188.76,102.48,188.64,102.72Zm-3.12-33.6-5.88,3.12L165.12,68.4l-.84-11.28L181.08,59Zm-10.08-41a118.83,118.83,0,0,0-.36,18.48l3.24,1.2L180,8.64,206.52.84l-.72-6.36L150.72,7.8l-.24,5.76L178.56,9A131.68,131.68,0,0,0,175.44,28.08Zm191,317.76A356,356,0,0,1,336.36,469.2c-6.48,14.76-12.48,29.88-17.88,45.24a99.19,99.19,0,0,1-27.24,41.28c-3.6,3.24-7.2,3.36-10.68.12q-38.16-34.38-48-86A665.56,665.56,0,0,1,221,342.24a980.26,980.26,0,0,1,9.24-127.44A1236.37,1236.37,0,0,1,254,89.64c2.64-10.56,5-21.24,7.2-31.92q5.94-30.24,32-41.16l8.4.48.48.84.84,2.4.24.84a182.31,182.31,0,0,1,34.68,70.32A1114.47,1114.47,0,0,1,362,217.32,684.71,684.71,0,0,1,366.48,345.84Zm4.08-102.48a947.94,947.94,0,0,0-19.32-126q-7-31.5-15.48-62.88-8.28-30.6-31.08-49.92L303,4.92,289.2,6.84a16.8,16.8,0,0,0-12.12,7.68A201.32,201.32,0,0,0,250.2,77.4q-14.58,60.48-24.12,122.16a991.33,991.33,0,0,0-11.4,128A842,842,0,0,0,221,454.44q8.64,67.5,53.28,115.68c3.72,4.68,9,6.36,15.72,5.16a36.23,36.23,0,0,0,12.6-13,740.63,740.63,0,0,0,33.72-66.84,402,402,0,0,0,33.12-123.24A680.12,680.12,0,0,0,370.56,243.36Zm62,165.48c9.36,13.56,10,27.72,1.68,42.48-5,9.24-13,13.8-23.64,13.68L412,406.56l18.48.12Zm-24.84-10.32.84,9q-6.12,66.06-11.52,134.64a10.86,10.86,0,0,0,2,7.32,255.88,255.88,0,0,0,10.68-72.12c13.08.72,22.8-4.56,29.16-15.72l3.84-7.44a69,69,0,0,0,2.76-7.92c4-14.64,2-28.08-5.88-40.44a36,36,0,0,0-13.32-12.48l-14.52,1.08ZM374.4,409.2l6.84-34.92.36,33.84Zm11.28-54.84a17.67,17.67,0,0,0-1.44-7.8l-1.08,2.64a299.68,299.68,0,0,0-13.08,44.64,257.79,257.79,0,0,0-5.28,46.92l-.12,13,8.52-37.8,9,1.8,5.28,42a221.31,221.31,0,0,0-.24-48,331.41,331.41,0,0,1-2-45.12Zm24-192.24c.12,42.6-1.44,85.08-4.44,127.44-1.56,21.48-4.08,42.72-7.44,63.84a156.83,156.83,0,0,0-.6,47.88c5.16-7.2,6.72-14,4.56-20.64,3.72-31.8,7-63.84,9.48-96,5.28-10.2,10.08-20.52,14.52-31.2l2.88,17.64q10.26,62.46,20.76,124.8c.84,1.8,2.16,2.52,3.84,2.16a5.22,5.22,0,0,0,1.44-4.08c-.36-9.84-1.32-19.68-2.64-29.4a1172.12,1172.12,0,0,0-23.4-118.32l5.16-14.4,19.08-56.16a84,84,0,0,0,4.44-31.2l-.6.24Q440.16,193.86,422,243.36a26.22,26.22,0,0,1-3.36,6.6,51.14,51.14,0,0,0-5.52,9.48A950.57,950.57,0,0,0,413.64,144C411,148.92,409.68,155,409.68,162.12ZM388.92,58.32a25,25,0,0,1,11.88,1.44A7.48,7.48,0,0,1,404,62a16.39,16.39,0,0,1-11,9.6l-5.28,1.2,1.44-8.76Zm19.2-28.68-20-.24,11.28-15.12Zm-5.76,22.8a21.39,21.39,0,0,0-16.8,1.8l-.72.72L384.48,59l1.68-.36c-6.84,17.52-8.76,34.8-5.88,52l5.52-28,3.48-.36.36,1.8L392.88,86l16.8,18.12c-.84-10.44-5.52-18.84-14.28-25.2,8.28-3.48,12.24-9.6,11.76-18.24A17.17,17.17,0,0,0,405,53ZM400.68,2.76C385.08,12.84,377,27.12,376.44,45.6c0,1.56.12,3.12.24,4.68l6.12-11.76,29.4-1.32,9.36,16.56a82.64,82.64,0,0,0-13-35.52,114.21,114.21,0,0,0-7.8-10.56Zm83.64,99.48a39.82,39.82,0,0,0-4.8,9.24,190,190,0,0,0-10.2,60.6c-.36,43.08-1.56,86.16-3.36,129.12s-3.48,85.68-5,128.28A393.28,393.28,0,0,1,456.24,477Q446,538.38,476.76,589.32q5,1.62,8.28-2.16,21.42-23.94,26.64-56.88l.84-.72c1.08-1.08,1.08-1.56,0-1.68a2.51,2.51,0,0,1-1.2-1,5.86,5.86,0,0,0-4.8-3.36,65.89,65.89,0,0,0-10.32,24.6c-2.28,11.76-8.4,18.84-18.12,21.36q-18.18-29.7-15.24-65,5.4-64.26,6.84-128.88l.84-31.08L494,340.68l.84-1c3.24-6,3-11.64-.84-16.92a98,98,0,0,0-22.92,5.28q1.44-40.32,3.84-80.64a398.36,398.36,0,0,0,0-47.88q-2.88-44.64,11.76-83.76a10.68,10.68,0,0,1,8.64,1.08l1.44,2.64a138.44,138.44,0,0,0,8,12l.6-1c3-14-1.68-24-14-29.64A8.16,8.16,0,0,0,484.32,102.24ZM466.08,5.4l-46.2-1.92-1.56,8.4L438,14.28c-5.28,37.08-10.08,74.28-14.52,111.36A50.76,50.76,0,0,0,427.2,152q9.72-65.52,13.68-132.12l.24-5.52,25.32-.6ZM561.6,199.32A669.38,669.38,0,0,1,583,325.92a1111.22,1111.22,0,0,1,1.68,128,197.1,197.1,0,0,1-5.76,39.48Q567.54,538.26,535,569.28l-1.08.48a25.48,25.48,0,0,1-11.16.6l.24-.84.12-.72-.12-1.68v-.72l.36-.6c2.16.6,2.4.36.6-.84l-.84-1c-.6-.84-1-1.32-1.32-1.2a272.9,272.9,0,0,0,2.88-31.56q2.16-64.26.12-128.4-2-64.8,1.8-128.88,3.42-54.18,1.8-107.64C545.52,169.8,556.56,180.72,561.6,199.32ZM528,154.08l-.36-8.52c-2,.12-3,1.32-3.12,3.48l-.24,4.92h-2.64l-.48.36a5.57,5.57,0,0,0-1.92,4.56l.12,3.24a6.72,6.72,0,0,0,1,3.24l3.24.24-3.48,53.16Q515.76,283.2,515.76,348q0,64.08,1.56,128.16a390.58,390.58,0,0,1-3.72,64,139.08,139.08,0,0,0-1,35.16l-.6,3.24a13.39,13.39,0,0,0,3.36,11.28c17.16,2.4,30.6-4.08,40.2-19.56a243.41,243.41,0,0,0,37.08-121.68A1125.85,1125.85,0,0,0,590,319.68,711.21,711.21,0,0,0,569.16,194.4c-4.68-17.88-14.64-30.48-29.88-37.68l-.24-.36-.84-.6-.84-.72-8-.72Z" transform="translate(-3.47 5.52)"/></g></svg>