<svg id="Layer_1" data-name="Layer 1" xmlns="http://www.w3.org/2000/svg" viewBox="0 0 310.47 211.49"><defs><style>.cls-1{fill-rule:evenodd;}</style></defs><path class="cls-1" d="M301.44,211.32c15.48,1.32,26.88,9.84,34,25.56q23.22,50.94,2.16,104.88c-11,28.44-31.68,42.36-61.92,42-8.88-.12-14.88-4.2-18.12-12.24q-24.3-61.92,1.08-124.44,12.06-29.52,41.16-38.4a3.09,3.09,0,0,1,1.68.6,2,2,0,0,1,.12,1.2Zm-6.24-13.56C274,207,259.68,223.32,252.12,246.48l-1,.84-1,.84a230.74,230.74,0,0,0-5.28,120.12,40.62,40.62,0,0,0,12.84,22.08c15.72,14,33.48,15.12,53,3.24A57.63,57.63,0,0,0,331.08,373q33.66-57.42,21.24-123.36-7.38-39.42-42.84-54.72a12.76,12.76,0,0,1-5.4,1.08A26.59,26.59,0,0,0,295.2,197.76Zm-109.68-.48q-25.74,16.38-11,44.52a449.47,449.47,0,0,0,37.68,60.12,52.64,52.64,0,0,1,10.56,31.68,77.7,77.7,0,0,1-3.12,21.6,36.42,36.42,0,0,1-19.08,22.92,53.74,53.74,0,0,1-24.84,5.52l-4.08-2.28a71.87,71.87,0,0,1-16.92-32.16,13,13,0,0,0-5.28-7.8,46.86,46.86,0,0,0,2.28,36.6q14.58,30.06,42.48,18c16.8-7.08,28-19.44,33.36-37a80.52,80.52,0,0,0,.72-45.84A93.59,93.59,0,0,0,213.36,282q-14.58-20.16-30.24-38.88c-9.36-11.16-9.6-22.32-.72-33.72,15.48-7,30.12-4.92,44.16,6.12a62.8,62.8,0,0,1,8.28,7.68c2.16-10.44-1-18.72-9.48-24.6C212,189.36,198.72,189,185.52,197.28Zm187.32,13a389.55,389.55,0,0,0,81.12,3l.72-.6c3.24-4.44,3.36-9,.24-13.68l-1-.84-2.4-.36-26.28-1.08-53,2.16-.36,1.08-.12-4c-.84-.24-1.32,0-1.44.84-3.36,42.36-5.64,84.72-7,127.32q-.9,32.22-4.32,64.08c-.84,7.56,1.2,12.36,6,14.64,3-25.8,5.16-52.08,6.24-78.6l.84-23a352,352,0,0,0,51.6-.84,10.48,10.48,0,0,0,2.4-8.64,13.9,13.9,0,0,0-1.56-4.92l-1.68-.6L413.4,285c-13.68,1.32-27.36,3.12-41,5.28.6-27.12.48-54-.12-80.76Z" transform="translate(-146.72 -191.35)"/></svg>