<svg id="Layer_1" data-name="Layer 1" xmlns="http://www.w3.org/2000/svg" viewBox="0 0 300.67 220.68"><defs><style>.cls-1{fill-rule:evenodd;}</style></defs><path class="cls-1" d="M288.36,211.08a295,295,0,0,1,29.88,65.64q15.48,49.14-13.56,90.12a41.66,41.66,0,0,1-28,17.52c-15,2.76-24.48-2.76-28.56-16.44a230.07,230.07,0,0,1-8.76-88c2.76-30.84,16.68-54,41.76-69.72A11.2,11.2,0,0,1,288.36,211.08Zm-7-13.8q-23.94,8.64-34.2,32.76a147.35,147.35,0,0,0-10.44,37.8,493.18,493.18,0,0,0-4.44,77.64c.6,25.2,10.56,44,30.12,56.64,11.52,2,22-.72,31.2-8.16q38.88-30.78,37.68-81.24-1.62-63.18-38.64-114.36h-1.56A44.69,44.69,0,0,1,281.4,197.28ZM204,208.68l4.8,3.6,7.56,15.12q7-11-2.16-24.48a26.44,26.44,0,0,0-10.68-9q-26.1-5.4-34.92,19.08c-5.16,14.4-3.48,28.08,4.8,40.92a234,234,0,0,1,19.44,36.24,231,231,0,0,1,13.68,42.48c3.6,16.2-.48,29.88-12.12,41.28-10.32,10.2-21.12,8.28-32.28-5.64l-4.68-5.4q-6.48,16.38,8.28,30.6c7,6.48,14.64,8,23.16,4.8a18.63,18.63,0,0,0,7.2-4.44,53.29,53.29,0,0,0,12.12-17c7.8-17.16,8.52-34.8,2.4-52.92q-16.74-49.14-34.08-97.56c-1.8-4.92-.48-9.24,3.72-13Q190.5,204.54,204,208.68ZM455.16,298.2l.48-1.68a11.86,11.86,0,0,0-.6-8.4q-.54-49.5-.24-97.32c-3.72,8-5.64,17.28-5.76,27.6l-1.32,68.16A76.85,76.85,0,0,0,408.6,297q.54-51.3-.36-101.64a616.78,616.78,0,0,0-6.84,83q-1.26,64.26-1.2,128.28.54,2.88,3.24,2.16a9.24,9.24,0,0,0,2-5.64q2-39.6,2.76-79.56l.24-16.44c12.6-2.76,25.68-5.16,39-7.2l-.6,47.4a293.25,293.25,0,0,1-2,32.28c-1.32,12.12.24,22.8,4.8,31.8A570.19,570.19,0,0,0,455.52,319Zm-96.84-87.36A41.31,41.31,0,0,0,350,230.4,84.83,84.83,0,0,0,355.92,277a349.35,349.35,0,0,0,17.4,35.64,69.23,69.23,0,0,1,8.28,44.52c-2.16,14-9.84,24.24-22.92,30.48a34.62,34.62,0,0,1-8.88,2.52L344.4,388a14.35,14.35,0,0,0-9.6-7.32h-1.44c-1.32,21.48,8.52,28.56,29.52,21.48a34.07,34.07,0,0,0,19.44-15.6,46.45,46.45,0,0,0,6.6-24.6A90,90,0,0,0,381,325.68a251.23,251.23,0,0,1-22.44-96c-.36-10.2,4.68-16.44,14.88-18.6a24.19,24.19,0,0,1,7.8-.12l2.64,1.68Q378.48,184.56,358.32,210.84Z" transform="translate(-155.46 -190.8)"/></svg>