<svg id="Layer_1" data-name="Layer 1" xmlns="http://www.w3.org/2000/svg" xmlns:xlink="http://www.w3.org/1999/xlink" viewBox="0 0 585.84 601.21"><defs><style>.cls-1{fill:none;}.cls-2{clip-path:url(#clip-path);}.cls-3{fill-rule:evenodd;}</style><clipPath id="clip-path" transform="translate(-5.62 1.08)"><rect class="cls-1" x="5.04" width="588.24" height="600.96"/></clipPath></defs><g class="cls-2"><path class="cls-3" d="M321.36,381.84a206.66,206.66,0,0,0-25.92-.6,101,101,0,0,0-36.12,28.92A145.79,145.79,0,0,0,236.88,451a156.36,156.36,0,0,0-9.12,45.12,141.85,141.85,0,0,0,3.36,40.32,138.26,138.26,0,0,0,16.44,41.28c8,13.56,20.52,21,37.2,22.32a81.54,81.54,0,0,0,43.08-9.36,70.55,70.55,0,0,0,31.68-32.28,175,175,0,0,0,15.36-43.44,166.47,166.47,0,0,0,2.88-46.32A128.31,128.31,0,0,0,367,426.48a93.06,93.06,0,0,0-27.12-34.92C336.36,385.2,330.24,382,321.36,381.84Zm-15.6,24a30.87,30.87,0,0,1,22.8,1.92q31,14.76,38.28,49.32a146.57,146.57,0,0,1,1.32,54.6q-4.86,31.14-29,50.52-23.76,19.26-55.56,19.44a23.59,23.59,0,0,1-14.64-4.56c-23.16-16.92-34.44-40.44-33.6-70.56q1.8-70.38,60.12-105.84c4.08-2.16,6.84-2,8.4.24l.12,1a6.4,6.4,0,0,0,.84,2.4Zm-85-88.44,1.8,5.76c1.32,4,2.52,8,3.6,12.12-1.68,14.88-9.36,24.6-23,29-.36-17.64-1.32-35.16-2.88-52.68A23.67,23.67,0,0,1,220.8,317.4Zm-23.64-5.76a67.19,67.19,0,0,0-1,13.08c.6,43.32.12,86-1.68,128.16.84,0,1.32-.12,1.56-.48a56.31,56.31,0,0,0,5.4-20.52q2-27.54,1.8-54.72a14.9,14.9,0,0,0,9.72-3.84q25.56-22.14,14.28-54.12l-.12-.72c-1.8-9.6-7.56-15.36-17.16-17.4a23,23,0,0,0-13,3,10,10,0,0,0-.84,4.08A6.88,6.88,0,0,0,197.16,311.64Zm58-75.36,8.16.24c9.48,15.48,7.92,29.64-4.44,42.36l-7.44,8-2-47.16Zm11-7.44-1.32-2.4-9.48-1.08-6.48,4.32-2.28-3.6q-2.52,68.94-7,138.6c-.36,6.24-.12,11.28.84,15.24l9.72-74.76,7-6.6L270,381.72q8.1-40.86-10.68-85.68a55.85,55.85,0,0,0,14.52-42,57.73,57.73,0,0,0-2.64-13.56A110,110,0,0,0,266.16,228.84Zm-105.72,42.6c1.08-14.52,8-24.48,20.64-30.12l1.8-.72,13.8,4.32c1.8-5.4.12-9.36-5-12a35,35,0,0,0-13.08-3.72q-27.18,19.26-20.64,52,4.14,21.06,25.56,20.52c6.72-5.16,10.2-11.88,10.44-20,.12-3.24-.84-5.16-3-5.52L188,282.48l-6.72,7.32a22.82,22.82,0,0,1-15.6-7.56A21.81,21.81,0,0,1,160.44,271.44ZM109.32,127.56l4.56.72,3.6,4.8,2.16-8.88c16.92,6.6,24,19,21.12,37.2l-.6,3L132.6,158l-12.48-1.32a8.22,8.22,0,0,0-3.24,5.64,11.25,11.25,0,0,0,1.92,7.92l13.08,3.48q-33.12,8.46-38.64-22.92C90.72,136.44,96,128.64,109.32,127.56ZM151.2,52.08Q135.9,8.88,86.64,9.24,49.92,26.34,41.4,67.8a147.2,147.2,0,0,0-.24,59.28,246,246,0,0,0,40.92,94.2q31.86,44.82,60.72,92.16A232,232,0,0,1,176.52,418.8a167.56,167.56,0,0,1-15.84,84.72C147.84,530.28,128,550,101.52,562.44c-29.4,13.8-52.44,8.4-69.12-16.44-12-17.88-18.36-38-19.2-60.24a74.21,74.21,0,0,1,2.64-22.44c2.52-8.88,1.2-16.08-4-21.72-4,5.64-5.88,12.36-6,20l-.24,21.12q-.9,54.54,35.16,92.88a24.19,24.19,0,0,0,11.52,7.08c27.72,7.56,52.44,2,74.4-16.56q37.62-31.86,49-79.56A244.68,244.68,0,0,0,175,368,266.5,266.5,0,0,0,140,288.12q-29-44.46-58.56-87.6a304.86,304.86,0,0,1-24.36-44.76,134.63,134.63,0,0,1-8.64-27.12q-9.18-45.54,14-86.4c17.16-18.6,37.8-21.72,61.68-9.48,9,4.68,15.6,11.28,19.56,19.92a154.25,154.25,0,0,1,6.12,15.24C152.76,63.12,153.24,57.84,151.2,52.08Zm38.28,127.68-6.84,5.64c-11.16.84-21.24-3-30-11.28a47.32,47.32,0,0,0-5.4-4.32,49.66,49.66,0,0,0-3.6-37.44q-11.34-22.14-36.72-23l-5.16-.24A54,54,0,0,0,83,147.6q-1.62,27.18,22,38.52c11.88,5.76,23,4.32,33.36-4.44l3.48-3c8,9,17.4,15.36,28.08,18.84,8.28,2.76,14.52.84,18.84-5.76A11.43,11.43,0,0,0,189.48,179.76Zm4.8-55.32a72.87,72.87,0,0,1-8.76,42.24l-1.56,2.4a8.31,8.31,0,0,1-9.84-1.08l-1.44-1.56-5-49.32c-5,18.12-4.8,36.72.84,55.68,1.56,5.64,5,8,10.32,7.44,7.2-1.08,12.48-5.4,16-13.08a49.43,49.43,0,0,0,1.08-38.76Zm57.84,33.48c-5.88,1.08-11.64,2.4-17.52,3.84A79,79,0,0,0,217,168.6l-.24.84a12.2,12.2,0,0,0,1.92,12.72l1.08.72a3.08,3.08,0,0,0,2-2.16l.36-.72a150.06,150.06,0,0,1,28.56-7.68A278.16,278.16,0,0,0,248,218.4c.84,1.8,2.16,2.52,3.84,2.16l.36-.84a169.18,169.18,0,0,0,1.44-47.88,167.63,167.63,0,0,1,26.88-1.68,11.7,11.7,0,0,0,.36-10.56l-.36-.72a.91.91,0,0,0-.84-.48l-27.6-.6ZM201.48,70.08C187.2,82,181.2,95.52,183.36,111a6.48,6.48,0,0,0,1.2,2.64L209.4,76.8l15.12,39,21.72-36.48a118.27,118.27,0,0,0,24.36,43.32c5.4-13.56,1.68-26.88-10.92-40.2a94.87,94.87,0,0,1-14.52-19.68L225.6,99,209.4,60.6ZM193.2,19.2l-3,4.8a31.09,31.09,0,0,1-15.6,4l-5.16-.12v-8.4l1.68-3.12a14.71,14.71,0,0,1,12.72-2.76A17.26,17.26,0,0,1,193.2,19.2Zm203.28,353c-4.44-35.4-9.36-70.56-15-105.6L361.2,140.16c-5.64-35.88-10.44-71.76-14.64-107.52A205,205,0,0,0,346.8,8.4C341.28,16.2,338,25.56,337,36.72q-6.3,63.18-17.28,125.88l-15.6,88.2h-.48a11.85,11.85,0,0,0-.72,6.48v.12l-5.64,31q-5.76,31.68-13.32,62.88c-2.76,11.76-2.16,22.44,1.8,31.92a93.22,93.22,0,0,0,9-28.68q7.2-46.26,14.64-92.16l64,2.16c4.68,30.84,8.4,61.8,11.4,92.88,1.08,12,4.08,22.08,9,30.36A25.16,25.16,0,0,0,396.48,372.24Zm22.92,9.24a1.22,1.22,0,0,0-1.56,1,650.77,650.77,0,0,0-7,81,139.86,139.86,0,0,1-1.68,20.16,124.23,124.23,0,0,0,1.56,47.28,1.71,1.71,0,0,0,1.2-1,525.53,525.53,0,0,0,8.64-101.28,56.42,56.42,0,0,1,1.68-15C425.28,402,424.32,391.32,419.4,381.48ZM353.88,248.4l-42.48,1.8,3.6-22,20.64-125.76c2.52-15.6,5.16-31.2,7.92-46.68l1-5.28a704,704,0,0,0,8.52,85.2L371.16,250.2A102.88,102.88,0,0,0,353.88,248.4Zm107-3.72a40.7,40.7,0,0,0-5.28-17.88,239.65,239.65,0,0,0-5.52,46.08A360.65,360.65,0,0,1,446.88,312c-2.16,15.48-4.8,31-8,46.2-3.12-18.6-6.12-37.32-9.12-56a12.42,12.42,0,0,0-4.68-8l-11.4,60.6a470.49,470.49,0,0,0-4.08-59.4,526.4,526.4,0,0,0-10.08-54.6,133.56,133.56,0,0,0-4.56-15.24l16.8,154.68,14.64-58a287.2,287.2,0,0,0,8.16,43.8l3.84,13.56a197.07,197.07,0,0,0,10.56-33.12,190.24,190.24,0,0,0,3.84-23.4L460.68,253A47.06,47.06,0,0,0,460.92,244.68ZM403.8,94.44a516.32,516.32,0,0,1-2.16,64,360.52,360.52,0,0,0-.72,64.32A89.7,89.7,0,0,1,450,214.8a9,9,0,0,0,.24-11.28c-17.16-3-32.52-1.68-46,3.72q4.14-34.56,5.28-69.72A757.06,757.06,0,0,0,402.84,9.24Q402.66,50.28,403.8,94.44ZM492.48,10.8l-1.08.6-1.08.72a23.53,23.53,0,0,0-2.4,11.4q1.62,28.26,1.8,56.88a1122.46,1122.46,0,0,1-6.84,127.32q-7,63.72-12.36,127.56-5.22,64.26-11.76,128.16c-2.16,21.72-4.92,43.2-8.4,64.68-2.76,16.8-1.92,32.64,2.52,47.4a853,853,0,0,1,135.36,8.64c4.92-13.08,4.2-26.28-2.16-39.48-.6.12-1,.24-1.2.6-3.36,4.44-4.56,9.72-3.72,15.84q-62.1-5.76-121.44-9.36l9-94.2Q475,394,480.24,330.24q5.22-64.08,11.88-127.68a1228.59,1228.59,0,0,0,6.6-128.16q0-16.38,1.08-32.4C500.64,29.52,498.24,19.08,492.48,10.8Zm-313-11.88q28.26,7.38,13,33.48C187,41.76,179.28,44,169.56,39.24l-2.88,31.68q-15.3-38.16,7.56-70.2L175.8-.6Z" transform="translate(-5.62 1.08)"/></g></svg>