<svg id="Layer_1" data-name="Layer 1" xmlns="http://www.w3.org/2000/svg" xmlns:xlink="http://www.w3.org/1999/xlink" viewBox="0 0 598.2 603.21"><defs><style>.cls-1{fill:none;}.cls-2{clip-path:url(#clip-path);}.cls-3{fill-rule:evenodd;}</style><clipPath id="clip-path" transform="translate(3.84 3.45)"><rect class="cls-1" width="594.48" height="599.88"/></clipPath></defs><g class="cls-2"><path class="cls-3" d="M410.52,537.24l.84,2.28.24,3c0,.84-2.64,8.64-7.92,23.16-6,16.68-9.84,28.08-11.52,34.08h-2.52c-1.56-10.92-4.56-25.8-9.12-44.64l-.84-.6c-3.36,8-8.64,21.24-16,39.6-.6-.36-1.08-.6-1.2-1a3.76,3.76,0,0,1-.48-2.4c0-2.88,2.76-11.52,8.4-26L377.76,546l3.48-1c1.8,5.4,3.6,11.88,5.4,19.32,1.08,4.92,2.64,12.48,4.44,22.44l.24.24c3-6.84,6.72-16.08,11.16-27.48,4.08-10.92,6.12-16.8,6.12-17.76s-.72-1.56-2.16-1.2l-2.16.72,3.72-2.16Zm-24.24-70,3.72-.6a4.22,4.22,0,0,0,2.4-2.16,19.82,19.82,0,0,0-2.52-3.84l-10-.48v2.64l-1,4.8,6.48-.24.48-.48Zm4.8-12a31.2,31.2,0,0,1,3.24,5.52,21,21,0,0,1,1.8,5c0,.72-.72,2-2.28,4.08l-2.52,2.4,6.24,5.76c5.76,5.88,8.88,10.8,9.48,14.76l-.48.48-.6,1-11-11.28c-4-4.2-6.84-7.32-8.52-9.36l-9.24-.24L375.24,479c-3,8.52-5,13.56-6.12,15.24a2,2,0,0,1-.84-1l-.24-2.4q0-2.7,4.32-14.4l2.16-5.88v-.12a4.91,4.91,0,0,1,.36-2.28l.6-.48a86.69,86.69,0,0,0,2.88-10.56h.48a3.37,3.37,0,0,1,.36-1.8l.72-.36ZM15.24,439.56l-2.76-2.16.48-.84A7.84,7.84,0,0,1,15.24,439.56Zm165.24,83.76-6.72,1-.48-1.08a7,7,0,0,1-.36-2.52c0-2.52,3.36-4.2,10.2-5.28l11.76-1.68,16.2-.6v-.48l6.72.24.84,1a8.56,8.56,0,0,1,.24,2.28,9,9,0,0,1-.24,2.4l-.84.84-14,1.32v.84c0,2.28-1.08,10.08-3.36,23.52-2.4,14.4-4.2,23.28-5.52,26.64L193.8,570a5.44,5.44,0,0,1-.36-2.52c0-1.2,1.2-8.16,3.72-21s3.6-20.88,3.6-24.12c0-.84-.36-1-1.08-.24s-1.08.6-1.08-.24l.24-.72-5,.72Zm-1.92-19.08A40,40,0,0,1,167.4,503c-2,8.76-3.36,14.16-3.72,16.08H163l-.6-2.16v-3.12A64.43,64.43,0,0,1,164,501.6l-.6-.24c-1.44-1.08-2.16-2.16-2.16-3.48a12.44,12.44,0,0,1,.12-2.4l.12-.48.84-.48c.48.12,1.44.6,2.88,1.2.6-2.4,1.2-4.44,1.68-6.12h-.72l-2-.24.12-.24-.48-.36-.12-1.68c0-1.56,1.56-3,4.56-4.2,3.6-1.56,8.64-2.16,15-1.92,3.36,3.24,5.4,5.28,6,6.24a10.59,10.59,0,0,1,1.32,5.64c0,2.28-1.08,4.56-3.24,7.08A11.3,11.3,0,0,1,178.56,504.24Zm3.6-17.28a75,75,0,0,0-10,1.68l-1.8.36-1.68,8,2.28.48q11.16,0,13.68-1.8a3.71,3.71,0,0,0,1.44-1.8,8.94,8.94,0,0,1,1.08-2.16c0-.24-.84-1-2.4-2.28A13.06,13.06,0,0,1,182.16,487Zm37.56-131.64c0,1.08-4.68,4.2-13.92,9.24a31.8,31.8,0,0,1,7.56,5c4.08,3.6,6.6,7.2,7.44,10.92l-.24.12-.6.72c-2.28-.6-5.16-2.16-8.52-4.92l-9.6-8.88.36-1-11.64,6.12h-.24a18.28,18.28,0,0,1-2,5.16l-.84-.84a9.4,9.4,0,0,1-.24-2.52,62,62,0,0,1,1.68-12.36c1.08-5.16,2.16-8,3-8.4a18.4,18.4,0,0,1,.84,6.12l-.72,5.4a41.7,41.7,0,0,1,6.72-4.2l-.12-.84c0-2.28.6-3.6,1.92-4l.84,1.2.48,1.92c7.08-3.6,12.72-5.88,17-7l.6.72A6.3,6.3,0,0,1,219.72,355.32Zm-55.2,58.56a11.85,11.85,0,0,0,3,7.32c2.52,3,5.4,4.56,8.88,4.56,9.48,0,15.84-.84,18.84-2.64l2.52-2a4.72,4.72,0,0,1,2.52-1.56l1,1.32a8.06,8.06,0,0,1,.36,2.76c0,1.2-1.2,2.88-3.48,5.16a13.89,13.89,0,0,1-9.84,4.32c-12.6,0-20.76-3-24.24-9.12a15.62,15.62,0,0,1-1.92-6.72l.24-4a67.51,67.51,0,0,1,2.76-19.2c2.52-8.64,6.24-13.68,11.28-15.12l12.24.24,2.76,2.88a4.33,4.33,0,0,1,1,1.8c0,1.8-.12,2.52-.24,2.4H192l-.36.48A4.21,4.21,0,0,1,190,386l-1.32-.84-11.64.24c-4.2,1.56-7.56,5.88-9.84,13A47.7,47.7,0,0,0,164.52,413.88Zm-1-104.28.12,10.92-.6,10.2-1.56,15v.72l17.28-2.76c7-.84,12-.36,15,1.68a5.6,5.6,0,0,0,2.28-2.16l.36-1.32a3.18,3.18,0,0,1,.6-1.68l.84,4.92.48,4.44c0,2.16-.6,3.36-1.8,3.48s-5-.36-11.16-1.68c-9.36,0-15.72.48-19,1.56l-3.24,1.2a17,17,0,0,1-4.68,1,4.41,4.41,0,0,1-.6-1.92l-.12-2.88a111.38,111.38,0,0,1,1.56-15,117.5,117.5,0,0,0,1.68-15L160,311.16,158.88,302a18.62,18.62,0,0,1,.12-2.76l.12-.72h1.32A28.9,28.9,0,0,1,163.56,309.6Zm.12-88.56a10.5,10.5,0,0,1-.24-2.4,16.16,16.16,0,0,1,.12-2.64l.12-.72,19.2-.6v-.48l3.48.12,4.2.6c7.2,0,11.4.12,12.72.36l.48,3.24-.48,2.88c-.36.36-1.32.6-3,.6l-6.24-.36-4.56-.72-2.28.12c0,2.4-.48,7.2-1.32,14.28l-1.56,12.12h-.84a22,22,0,0,1-.6-6.12c-.36-4.32-.6-8.28-.6-11.76a30.53,30.53,0,0,1,1.2-8.4l-19.44.6Zm-1.08,19.32a200.77,200.77,0,0,0,4.8,27.36l6,27.12.36.24,13.8-29.4c5.76-12.36,11.52-22.08,17.28-29l.72,1.32.36,2.76c0,.72-4.44,9.72-13.32,26.88-9.84,19.2-16.2,32.4-19.2,39.6-2.28-6.12-4.56-14.88-6.6-26.28l-5.52-28.08c-2.28,4-5.4,11.76-9.36,23.16-3.84,10.8-7.44,18.72-10.68,23.88l-.36-.48a6,6,0,0,1-.12-1.92c0-1,2.64-8.64,7.92-23.16s9.6-25.56,12.84-33.6ZM87.72,115.8l.84.12,2.4.36a11.61,11.61,0,0,0-3.24-1ZM140,100l10.68-.36.72,1a4.58,4.58,0,0,1,.36,2.28c0,1.92-.48,3.12-1.44,3.72s-2.64,1-5.4,1.08l-4.2.24v2.88L140,123l-.84,13.08c4.44-.12,7.8.36,10.08,1.56,3.12,1.68,3.84,4.32,2.28,7.92l-.48.48-1.2.6a5.74,5.74,0,0,0-2.4-3c-2.28-1.56-6.48-2.4-12.6-2.4-9,0-15.72,3.48-20.16,10.56a25.52,25.52,0,0,0-4.32,13.8,20,20,0,0,0,4.08,12.24c3.84,5.16,9.72,7.68,17.52,7.68,6.48,0,11.76-1.08,16-3.12a36,36,0,0,0,5.76-4.08l1,.84a4.58,4.58,0,0,1,.36,2.28c0,1.8-1.92,4.2-5.64,7.08s-7.08,4.2-9.72,4.2c-12.12,0-20.88-2.88-26.52-8.76-3.48-3.72-5.16-7.32-5.16-10.8a83.31,83.31,0,0,1,1.68-14c1.32-6.84,2.64-11.64,4.2-14.4,1.2-2,4.2-3.84,8.88-5.52a54,54,0,0,1,14.4-3l.6-.12c-.12-4.08-.24-9.36-.24-16a35.41,35.41,0,0,0-.72-6.24l-1-5.64a141.54,141.54,0,0,0-19,3.24,4.47,4.47,0,0,1-1.92-.6,3.51,3.51,0,0,1-.72-2.52c0-2.76,4.32-4.92,12.84-6.72a113.21,113.21,0,0,1,11.4-1.68l1.44-1ZM103,106.2l.12,2.16a13.45,13.45,0,0,0,.36,2.88c0,.6-.6.84-1.68.84l-9.48-.6L69.84,110.4l-1.32-17-.6-11.76a7.75,7.75,0,0,1,.48-3.12c.36-.84.72-1.2,1.2-1.32,1.56,3,2.28,7.08,2.16,12.48v13.44c15-.36,24.48,0,28.44,1.2C101.76,104.76,102.72,105.36,103,106.2Zm15.6-65.28q0,3.78-2.52,18.36l-.6.48-.72.84-2.52-2a1.47,1.47,0,0,1-.48-1.08,60.75,60.75,0,0,1,1.8-7.68,55.72,55.72,0,0,0,1.8-7.8c0-5.16-2.64-9.36-7.92-12.72-1.56-1-9.12-4.56-22.92-10.92l-27.36.36c-8.88,8.16-14.64,15.72-17.4,22.68-2.16,5.16-3.24,12.36-3.24,21.72q0,29.88,17.76,72.12c4.2,10.2,10.32,23.28,18.12,39.24L93.12,217q26.1,54.72,38.88,96.72A406.69,406.69,0,0,1,149.64,430.8a256.66,256.66,0,0,1-3.48,40.8l-7.92,43.2Q132.12,551.34,91,574.2A151.56,151.56,0,0,1,58.2,587.64c-10,2.88-18.12,4.32-24.6,4.32-18.24,0-29.88-12.24-34.92-36.84a137.35,137.35,0,0,1-2.52-25.44l.36-12.24c0-15.48,3.72-31.2,11.16-46.92C9,468,11.52,463.08,15.48,456a44.22,44.22,0,0,0,3.24-7c1.44,5.28,2.16,8.88,2.16,10.68,0,1.32-1.08,3.84-3.12,7.44L11,479.4c-6.48,13.08-9.72,25.8-9.72,38.4L1.2,528.6a119,119,0,0,0,2.4,20.88c4.2,19.44,13.68,29.16,28.32,29.16q27.72,0,56.76-16.56A169.19,169.19,0,0,0,116,542.4c5.52-4.8,9.72-11.28,12.72-19.32,2.76-9.48,5-16.56,6.6-21.24,2-6,4.08-18.48,6.36-37.56,2.28-18.6,3.36-32.76,3.36-42.36,0-32.76-5.88-67.44-17.52-103.8-8-24.84-21-56-38.64-93.36-9.36-19.44-16.2-33.84-20.64-43.2-7.56-16.08-13.56-29.88-18-41.28C38.64,110.4,32.76,84.48,32.76,62.76c0-11.52,1.32-20.76,3.84-27.6C40.08,25.68,47,16.56,57.36,7.8l27.36.36c14.28,4.92,23.76,10.2,28.56,15.72C116.76,27.84,118.56,33.6,118.56,40.92Zm79.2,77.64A25,25,0,0,0,179.64,110v1.56c0,2.76-2.4,15.24-7.08,37.44l-.6,2.76a60.87,60.87,0,0,0,14.16-2.52,2.39,2.39,0,0,1,1.44-1l.24.36a35.87,35.87,0,0,0,9.24-5q7.56-5.76,7.56-11.88a15.56,15.56,0,0,0-1.68-5.64A29.14,29.14,0,0,0,197.76,118.56Zm-18.6-14.16c12.36,1.68,20.64,6.24,24.6,13.8,2.16,4,3.24,10.44,3.24,19.32,0,4.08-2.52,8.4-7.56,12.84a29.92,29.92,0,0,1-7.2,5l8.52,14.4c7.8,13.2,11.64,20.76,11.64,22.56L212,195l-.72,1.08c-5.4-5.76-11.4-14.64-18-26.52-2.88-5.16-5-9.24-6.48-12.12a44.35,44.35,0,0,1-13.68,1.92h-2.88q-5.76,26.46-9,36.72l-2.16-.36a20.46,20.46,0,0,1-.24-3.6c0-2.88,2.28-13.8,6.84-32.88l-2.76-.12-.6-1.2-.24-2.52v-2.16l.24-1.44.12.12,2,.12h2.88l.72-3c4.44-18.24,7.32-31.2,8.76-39l-1,.12-.24-.72a4.91,4.91,0,0,1-.36-2.28c0-1.2.12-1.92.48-2.28a8.85,8.85,0,0,1,1.68-.72l.24.12.12-1.2h1.08Zm15.12-73.8-3,1-.24.36a6.5,6.5,0,0,0-3.24-2.64c-3.12-1.08-8.4-1.32-15.72-.84l-5.64,4.44c-3.24,2.88-4.92,5.28-4.92,7.2,0,1.32,1.56,2.88,4.68,4.92A19.53,19.53,0,0,0,177,48.48c8.88,0,15.72-.48,20.52-1.56L194,45.12a42.17,42.17,0,0,0-11.64-2.88l-.24-.84a7.76,7.76,0,0,1-.36-2.64,8.56,8.56,0,0,1,.24-2.28l.12-.24a28.29,28.29,0,0,1,10.56.84,33.27,33.27,0,0,1,6.6,3.72,39,39,0,0,0,5.4,3,3.45,3.45,0,0,0,1.08-2.52l-.36-2.16c0-1.68-1.32-3.72-4.08-6.12s-5.64-3.72-8.4-3.72a1.64,1.64,0,0,0-1.44.6l.12-.12,1.2.24C193.68,30.12,194.16,30.36,194.28,30.6ZM224,49.92a8.56,8.56,0,0,1,.24,2.28,3.76,3.76,0,0,1-.48,2.4,8.18,8.18,0,0,0-.84.6,71.73,71.73,0,0,1-17.52-4,8.35,8.35,0,0,1-7.32,4.2c-17.88,0-29.64-1.92-35.16-5.88a9.06,9.06,0,0,1-3.6-5,23.55,23.55,0,0,1-.24-4c0-2.52,1.08-5.4,3.36-8.64a56.88,56.88,0,0,1,9.6-10.32c7.92,0,11.88-.12,11.88-.24,11.64,1.56,19.08,4.32,22.2,8a9.28,9.28,0,0,1,1.92,5v4.8a30.71,30.71,0,0,1-.48,5.88A63.18,63.18,0,0,0,223.2,49ZM337.68,8.64l-27.12-.12.12,2.64-.24,11.52a25.91,25.91,0,0,1-3,10.56,3.33,3.33,0,0,1-1-1.8,14,14,0,0,1-.12-2.76c0-.84.24-4.56.72-10.92l.84-9.24L287.4,8.4C287,8,286,7.68,283.92,7.32L276,6.24l-.24-.72a7.5,7.5,0,0,1-.24-2.16q0-3.06,2.16-3.24l10.2,1.8L309,2.16V1.92h.84v.24L338,2.4l.48,1a7.88,7.88,0,0,1,.24,2.28,9,9,0,0,1-.24,2.4ZM471.12,419c0,6.84-1.68,24.6-5.16,53.16-3.48,28.92-7.2,50.16-10.92,64q33.66.72,60.36-22.44A84.23,84.23,0,0,0,533,492.84c4.2-6.84,6.24-12.72,6.24-17.4,0-15.6-3.72-28-11.28-37.08-5.64-7-13.92-12.36-24.72-16.2-3.48-1.2-7.92-2.4-13.2-3.72l-11.52-2.88a26.78,26.78,0,0,1-8-3.48Zm-3.84-12.24.12-1.92.24-1.08.6.12.72-2.76.48,3c25.56,4.32,44.64,14,57.48,29a63.37,63.37,0,0,1,15.6,42.36,48.3,48.3,0,0,1-4.8,20,86.11,86.11,0,0,1-11.88,19L519,523.2a39,39,0,0,1-9.84,8.52c-10,6.12-26.76,10.32-50.16,12.6l-6.36-.24-.24.48-.36-.48-1.2-.12-.72-1.2a8.06,8.06,0,0,1-.36-2.76l.24-2.52.84-1.56h.6c.6-6,2.16-16.2,4.68-30.48,3-16.44,5.28-28.2,6.84-35l1.68-17.4,1.56-17.52c.72-3.12,1.08-9,1.08-17.52a79.71,79.71,0,0,1,.24-9.6Zm-17.64-78.72-2.52,7.56,11-.24,2.16-2.4a3.19,3.19,0,0,0-1.2-1.56,7.37,7.37,0,0,1-2-2.88Zm-68.4,27.84c0,3-2.64,17.28-8,42.84,12.24.72,19.92,1.56,22.92,2.52a3.74,3.74,0,0,1,2.4,1.44l.12,1.92c0,1.8-.12,2.64-.36,2.4l-.48.48-2.4.36-2.52-.24.48-.6c-.84-.6-9.12-.6-24.84-.24l-.6-1.32-.12-2.76c0-2.76.84-7.44,2.4-13.92l3.72-13.68c.36-.84,1.08-5.64,2.16-14.52.84-6.36,2.16-10.44,4.08-12A22.91,22.91,0,0,1,381.24,355.92Zm56.16-2.4a14.6,14.6,0,0,1-.12-2.52c0-1.8,1.2-6,3.72-12.6a5.4,5.4,0,0,1-.48-3.84c.12,0,.36-.24.6-.84l1.44.48c2.76-6.84,5-11.4,7-13.68l.6,2V323l8,.12a20.29,20.29,0,0,1,4.08,5.76,10.4,10.4,0,0,1,1.08,4.32,16.55,16.55,0,0,1-.24,3.6,9.46,9.46,0,0,1-3,3.6c3,2.4,5.88,6.72,8.64,12.84a7.88,7.88,0,0,1-.24,2.28l-.6,1A24.91,24.91,0,0,1,460,348.6a39.45,39.45,0,0,0-6.12-7.2l-8.64-.84c-2.76,7-4.92,11.64-6.6,14h-.72Zm-20.76,1,.12,3.48c0,2.28-1,9.36-2.88,21.48-1.8,12.36-2.76,18.84-2.88,19.56h4.68l12.84,1.44,11.76,2,.48,3.24-.48,2.76c-.36.72-1.44,1.08-3,1.08-7.32,0-13.44-1.32-18.36-3.84a8.36,8.36,0,0,0-4.2-1.2,22.53,22.53,0,0,0-7.2,2.28l-.6-1.08-.24-2.52c0-5.52,1-14.88,3-28.2,2.28-14.76,4.32-22.8,6.24-23.88Zm81.48-51.6L508.2,302,520.92,301l.48.84.24.48.12,2.4c0,1.92-.72,5.88-2,11.76-1.08,5.16-1.44,9.24-1,12.12l-.48.6-.84.84c-1-1.08-1.44-3.24-1.44-6.24q0-3.42,2.52-16.2c-8,.36-14.64.36-19.8.24A16.47,16.47,0,0,1,498.12,302.88Zm-22.68-2.28a42.26,42.26,0,0,0,1.32,11.76c2.28,7.08,6.72,10.56,13.56,10.56,7.92,0,13.44-.84,16.68-2.64a16.81,16.81,0,0,0,4.44-4.32l1.8.12c.84.36,1.2,1.08,1.2,2.28,0,2-1.44,4.56-4.32,7.32-3.24,3-6.6,4.56-10.08,4.56-13.8,0-22.44-4.56-25.92-13.8a26.3,26.3,0,0,1-1.8-10l.48-5.88a39.36,39.36,0,0,1,5.52-20.28c5.52-9.48,13.92-13.68,25.32-12.84l2.76,2.64a5.67,5.67,0,0,1,1.8,3.6,5.11,5.11,0,0,1-1.68,3L503.28,274c-9.72-.72-17.16,3-22.44,11C477.24,290.52,475.44,295.68,475.44,300.6ZM421.92,205a57.2,57.2,0,0,0,16.56-2.88,5.58,5.58,0,0,1,3.24-1.2,66.17,66.17,0,0,0,7.8-3.72,58.37,58.37,0,0,0,9-6.12c2.28-2,3.36-3.48,3.36-4.44a14.7,14.7,0,0,0-1.56-5.28,29.48,29.48,0,0,0-5.64-8.4c-6.72-6.84-15.72-9-27-6.36Zm-1.08,7.2q-5.58,36.18-7.56,53.64l1-.12c13.2-1.44,23.4-2.88,30.6-4.44,10.92.12,19.44-2.16,25.68-6.6,4.68-3.36,7.08-6.72,7.08-10.2a35.58,35.58,0,0,0-7.08-21.6c-6.12-8.28-15.48-13-28-14a51.23,51.23,0,0,1-18.24,3.48Zm14.28-52.56v-.48c11.4,1.44,19.8,5.76,25.08,13.08a28.29,28.29,0,0,1,5.52,17.28c0,1.56-1.08,3.48-3.36,6a50.31,50.31,0,0,1-9.12,7.68l-1.08.72a54.82,54.82,0,0,1,7,4.44,58.61,58.61,0,0,1,14.88,16c4.56,7,6.84,13.92,6.84,20.76a19.37,19.37,0,0,1-6.36,14.52c-6.12,6-16.08,9.24-29.88,9.84-1.8.12-7.08,1-16.08,2.64l-13.92,2.4h-2.16l-.48.36-.6.48-1-.84-2-.24-.24-1.08a7,7,0,0,1-.36-2.52c0-1.8.48-3,1.32-3.6l.12-.12q1.26-12.06,7.2-49.68l1.08-7.44v-1c0-1.8.24-2.88.6-3.24l.12-.12,7.2-45.24Zm-54.48-122c-1.8,14.28-3.12,22-3.72,23.28H375.6a39.15,39.15,0,0,1-.24-4.44,289.71,289.71,0,0,1,1.56-31.08c1.32-11.76,3.12-21.24,5.4-28.56Q383.4.9,383.4,9.36C383.4,13.8,382.44,23.16,380.64,37.56ZM356.88,24.12c2.76,0,4.68,18.12,6,54.24.6,18.12,1,36.24,1.08,54.48l-.12,18.84c-.12,12.36-.48,21.72-1,28.32V331.56c-1,14.4-2.16,35.88-3.48,64.56-1.44,25.44-3.6,46.92-6.48,64.56q-2.7,16.74-11.16,39.24a334.93,334.93,0,0,1-19.2,42.24c-7.44,14-14.64,25.32-21.72,33.6q-11.52,13.68-19.44,13.68l-8-.24c-22.44-9.84-35.76-23.76-39.72-41.88-1.32-5.64-2-13.44-2-23.52q-.18-16.74-1.08-23c-1.44-10.2-2.4-25.44-3-45.48-.6-21.48-1.32-36.6-2.4-45.48V360.24c.72-5.4,1.08-13.56,1.08-24.72L224,224.76c0-27.36.12-44.64.24-51.84q.54-27.9,3.24-53.64V77.88l2.76-30.48c1-12.36,2.64-21.72,4.92-28a18.44,18.44,0,0,1,1.32,7q0,13.68-4.08,91.2-4.14,77.76-4.08,106.68l.72,33.24c.48,22.68,1,40.2,1.44,52.44v52c-.72,4.92-1.08,12.72-1.08,23.52,0,9.48.6,26.76,1.8,51.6q1.62,32.76,2.52,45l1.2,24.48a123,123,0,0,0,2.88,24.24l1.68,11.52a42.75,42.75,0,0,0,3.36,12.24c4.44,9.48,14.76,16.8,30.72,22h8.88q51.66-37.62,66-129.12c3-18.48,5-41.52,6.36-69.12,1.32-28.32,2.4-45.12,3.12-50.4V175.32c.48-5.76.84-14.28,1.08-25.44V132.72c0-26-.12-42.6-.24-49.56A334.48,334.48,0,0,0,354,34.08l-7.2-1.32,6.6-.6c.36-3.48,1.08-6.12,2.16-7.8l-.36-.12ZM402.6,3.24c0,.84-1.32,6.12-4.08,15.84l2.4.24L401,19h.84l.12.36,2.88.12c4.8,0,8.28-.72,10.56-2.16a4.8,4.8,0,0,0,2.4-4q0-2.7-5.76-7.2a20.7,20.7,0,0,0-9.6-4.56ZM417.24,21.6c-2.52,2.88-6.6,4.32-12.36,4.32H403.8l3.12,10L412.44,53V58l-.48.48-.6.84c-2.28-5.4-4.44-11-6.48-17.16-2.4-7-3.84-12.36-4.2-16.2l-4.08-.12v.36l.12.36-.24-.12L396,27.6l-9.36,30.84h-2.4A13.93,13.93,0,0,1,384,55.2c0-1,1.92-8.4,5.88-22.2l2.28-8-.36-.84V19.2l2-.24q3.06-10.44,5.4-17.64h-.6V-3.24q11.7-1.26,17.28,5c2.76,3,4.08,6.84,4.08,11.52A12.09,12.09,0,0,1,417.24,21.6Zm48.48,1.92c1.08,18.84,4.2,41.28,9.6,67.32,3.12,15.24,8.16,37.92,15.24,68.28.24,0,.36-.84.36-2.4h.72l.72,5.16.36,4.92-.24,2.52-.84,1.2q-9.9-26.28-17-64.08L463.8,40.56C462,50,458.64,61.32,453.6,74.64c-2,5.4-7,17.28-14.64,35.52l-1.08.24c-1-4.44-2.64-16.32-5.16-35.64l-2.4-19.68C427.08,67.92,422,85.56,415.08,108c-6.48,20.76-13.2,41.16-20,61.44l-1.92-2a2.21,2.21,0,0,1-.48-1.56c0-1.68,3.12-12,9.24-30.84,5.64-17.4,10.08-30.36,13.2-38.88,1.44-4.08,3.12-10,4.92-17.52l4.08-17.4q2.34-11.52,3.6-17.64l1.2-4.8-.24-4.68c0-3.24.12-5.64.24-7.32l1.08-.24.72,6.36a34.94,34.94,0,0,1,2.52-5.52l.84,2.4.24,3.24a72.69,72.69,0,0,1-1.8,13l2.64,17.28a272.69,272.69,0,0,1,3.48,36.12c4.32-8,9.48-23.28,15.48-45.6,2.64-9.72,4.56-16.32,5.88-20C462,27.84,463.92,24.36,465.72,23.52ZM579.36,35.4l-.12,1.44-.48.48-1,.84a62.69,62.69,0,0,0-8.88-14C561.6,15.24,553.56,10.8,545,10.8q-30.78,0-45.72,25.2a71.09,71.09,0,0,0-7.56,18.24,48.59,48.59,0,0,0-1.68,10.2c0,16.92,5.4,35.16,16.32,55,3.48,6.48,9.12,15.6,16.68,27.48,9,14,15.36,24.24,19.2,30.6A363.22,363.22,0,0,1,578,257.88Q594.42,312.42,594.36,380c0,4.32-1.68,16-5,35a574.74,574.74,0,0,1-17.64,73.8q-14.76,46.62-34.2,73.2-24.3,33.12-54.72,33.12c-16.44,0-27.36-3.12-33-9.48a23.08,23.08,0,0,1-4.08-7.44l-2.16-5.52c-3.6-5.16-6.12-9-7.68-11.52-2.52-4.44-4-8.28-4.2-11.28a216.93,216.93,0,0,1-.12-23.64l1-21.72c2.28,3.72,3.36,8.16,3.48,13.56l-.6,11.16a38.9,38.9,0,0,0,.36,10.92c1.44,7.92,6,16.92,13.68,26.88s13.44,14.76,17.64,14.76c16.92,0,31.2-3.12,43.08-9.48a75,75,0,0,0,26.52-24c5.64-8,11.16-18.72,16.8-32.28,5.88-15.48,10.32-26.76,13.56-34.08,2.76-6.24,7.08-21.84,13-46.68,6.36-27.24,9.48-45.72,9.48-55.2q0-63.9-16.08-116.28-11.7-37.8-35.4-78.36-25.92-41-35.52-60.24-16.2-32-16.2-61.56c0-16.92,4.92-31.08,14.64-42.24a56.73,56.73,0,0,1,32-18.6c12.24-2.4,22.92-1,32,4.2,9.72,5.64,14.52,14.4,14.52,26Z" transform="translate(3.84 3.45)"/></g></svg>