<svg id="Layer_1" data-name="Layer 1" xmlns="http://www.w3.org/2000/svg" viewBox="0 0 559.94 563.54"><defs><style>.cls-1{fill-rule:evenodd;}</style></defs><path class="cls-1" d="M424.68,466.56q-7.56,23.58-34.2,26.64l-6.12.48,6.48-54.48A40.37,40.37,0,0,1,420.48,455ZM418.08,447c-7.08-9.12-16.44-13.92-28.2-14.4h-4.56a5,5,0,0,0-1.2,5.16l.36,1.2,4.08.12-9,54.6-9.72-1.56-.24,6.6,8.88,3.6a214.38,214.38,0,0,0-5.28,58.32,16.28,16.28,0,0,0,.72,3.48,463.77,463.77,0,0,0,9.36-61,39.17,39.17,0,0,0,17.88-1.68,178.76,178.76,0,0,0,38.52,65.4l7.32,7.8q-5.94-25.92-25.8-49.32A119.12,119.12,0,0,1,404.76,500c10.32-4.2,16.8-11.64,19.44-22.08Q428.7,460.86,418.08,447ZM199.44,426.12c.6,43.8.24,86.52-.84,128.28a6.08,6.08,0,0,0,3.6-1.56,300.87,300.87,0,0,0,44.28-4.44l.48-.72a12.77,12.77,0,0,0,.6-8.16c-14.52-.72-29.28-.72-44,0,0-19.8.24-39.6.6-59.28q1.08-65.16-2.52-128.16Q198.9,387.9,199.44,426.12ZM121.2,36A32.74,32.74,0,0,1,135,51.24a15,15,0,0,0,4.68,5.88,3.14,3.14,0,0,0,1-3.6q-11.7-39.24-56.16-36.24c-15.72.6-27.6,7.32-35.4,20.28a51.81,51.81,0,0,0-7.56,25C40,99.6,49.44,134,69.84,165.6A590,590,0,0,1,113,244.92q26.1,58.14,47.88,118.56a287.43,287.43,0,0,1,17,111.36c-1.32,30.24-13.92,54.6-38,73q-46.26,35.46-93.36,2.88A31.61,31.61,0,0,1,36.84,540a132.44,132.44,0,0,1-16-57.6c-3.48,9.48-4.56,19.92-3.36,31.32a70.27,70.27,0,0,0,16.2,38.64q35.1,41.94,86.76,21.6A75.27,75.27,0,0,0,146.28,557q48.06-47.88,38.16-116.76a505.92,505.92,0,0,0-29.52-113.4l-26.16-68A363.08,363.08,0,0,0,88,181.56a106.13,106.13,0,0,1-12.6-17A236,236,0,0,1,45.48,83.16C41,56.88,50.76,39,74.64,29.76c15-3,29-1.68,42.24,4.08l.24.24.6.6.84.72ZM230.76,192.24,210,190.8a635.45,635.45,0,0,1-70.32,4.32l-.36,1.56v.84l.12.84.24.84L193,201.12c.12,31.56-.36,64.08-1.32,97.32-.36,12,1.08,22.8,4.32,32.28a9.32,9.32,0,0,0,3.12-7.08,1182.07,1182.07,0,0,0-5.52-122.52l37.2-1.2a6.29,6.29,0,0,0,1.32-4.8l-.12-.84-.24-.84-.36-.72ZM357.12,63.6q.54,62.64,1.56,125,1.26,64.8,5.4,129a773.06,773.06,0,0,1-2.52,129.24,217.43,217.43,0,0,1-33.84,96.48c-8.28,12.72-19.2,17.88-32.76,15.6a36.44,36.44,0,0,1-13.32-17.52,368.21,368.21,0,0,1-22.56-122.88l-1.32-129-1.44-129.12c-.6-43.44-1.44-86.4-2.76-129l-1-.24q-.72,49.5-1.2,99.72-.36,64.62.24,129.12l1.44,129a805.78,805.78,0,0,0,11.52,127.8q5.22,30.42,26.64,51c6.84,6.6,14.16,7,22.2,1.2a75.83,75.83,0,0,0,24.84-29.28A319.24,319.24,0,0,0,368.88,417a1252.33,1252.33,0,0,0-1-129.12c-2.52-42.84-3.48-85.92-3-129q.9-65-2.88-129.12C358.56,39.72,357,51,357.12,63.6ZM461.28,97.68a181.18,181.18,0,0,0-7.2,48.12q-1.62,64.08-7,127.56T433,399.12c0-7.08-.24-14.16-.84-21.12q-4.68-64.08-12.84-127.56a447.79,447.79,0,0,1-3.12-79.32,253,253,0,0,0-4.32-62.64c-1.56,10.68-2.88,21.6-4.08,32.52q-6.84,63.9-15.12,127.44C387,310.56,382.92,352.68,380.4,395l-.48,1.68a62.88,62.88,0,0,0,0,26.76c.84-4.8,1.56-9.72,2-14.64q6.12-63.72,14-127.44,8.1-63.18,14.4-125.76a632.14,632.14,0,0,0,3,82.8q6.84,64.08,13,128.28A206.89,206.89,0,0,1,427,399c-.84,12.36,1.2,22.44,6,30.12q7.56-42.66,11.4-86l11.28-125.76c1.08,6.84,1.8,13.92,2.28,21q4.32,64.44,9.84,128.4a294.26,294.26,0,0,1,1.08,32.4c-.24,12.24,1.8,22.44,6,30.6a527.47,527.47,0,0,0-2.28-76.44q-6.66-63.54-9.72-127.44a1235.18,1235.18,0,0,1,.36-126.48l-.84-.84Zm88.8-29.76Q527.76,20.76,476.16,20v.12a1.55,1.55,0,0,0-1.44,1.44,7.84,7.84,0,0,0,0,4.08l.24.72.72,1,.6.36,1.2,1c-.12,32.28-.24,65.4-.36,99.6q-.18,64.62,2.4,129.12l1,24.72-1.32-.48a10,10,0,0,0-1.2,4.08,11.43,11.43,0,0,0,.72,4.92l.24.84.24.72,1.56.84q1.44,46.08,2,92.52c.48,43.32-.48,86.28-3,129.12a321.19,321.19,0,0,1-3.48,32.16q-2.88,18.54,4,31.68a355.68,355.68,0,0,0,4.08-41.4Q487,472.86,487.8,408q.54-56.7-1.8-112.8c13.68,4.92,27.72,4.08,42.24-2.28Q559,279.42,568.92,246a197.09,197.09,0,0,0,8-53.88A277.42,277.42,0,0,0,550.08,67.92Zm22.8,114.84a143.08,143.08,0,0,1-6.72,45,116.26,116.26,0,0,1-22.68,40.92A44.48,44.48,0,0,1,516,283.92a76.71,76.71,0,0,1-30.48-.6Q481.74,209,482.4,134.64c.36-35.4-1.08-70.68-4.08-105.84l1.56-.6a45.89,45.89,0,0,1,31.8,9.12,129.73,129.73,0,0,1,37.56,41.16,145.11,145.11,0,0,1,18.6,57A240.54,240.54,0,0,1,572.88,182.76Z" transform="translate(-17.05 -17.06)"/></svg>