<svg id="Layer_1" data-name="Layer 1" xmlns="http://www.w3.org/2000/svg" xmlns:xlink="http://www.w3.org/1999/xlink" viewBox="0 0 573.02 603.1"><defs><style>.cls-1{fill:none;}.cls-2{clip-path:url(#clip-path);}.cls-3{fill-rule:evenodd;}</style><clipPath id="clip-path" transform="translate(-4.22 3.22)"><rect class="cls-1" x="3.72" width="574.44" height="601.56"/></clipPath></defs><g class="cls-2"><path class="cls-3" d="M203.28,517.92l-.6-1.68a91.41,91.41,0,0,0-32.28-1.08l6-65.76-2.4-5.88Q161.4,483.3,167.16,530l34.92-.84A12.18,12.18,0,0,0,203.28,517.92Zm11.28-207.84a18,18,0,0,1,5.76,8.52q11,33.84-16.08,53.52c1.08-20.76,1.56-41.28,1.68-61.8A16.19,16.19,0,0,1,214.56,310.08Zm-12.48-4.32a7.81,7.81,0,0,0,.12,4.08q-2.88,41.76-6.84,83.4a487.53,487.53,0,0,0-2.16,64.32,2.34,2.34,0,0,0,1.32-1.32,140.7,140.7,0,0,0,6-29.76c1.2-13.8,2.16-27.6,3-41.28l3-1.92a63.58,63.58,0,0,0,.84,18.24c1.92,10.44,3.72,21,5.28,31.56,1.32,8.4,4.2,14.88,8.64,19.32l.36-.72A702.09,702.09,0,0,0,211,380c10.68-8.76,16.92-21,18.48-36.84,2-19.32-3.84-34.08-17.4-44.4a9,9,0,0,0-6.12,1V299a5.55,5.55,0,0,0-3.24,4.44Zm-30.84,81.12c4,.24,6.72,2.16,8.52,5.88l.36,1-6.48,8.88-4.56.24L168.84,388Zm-3.84-8.4-.72,1.44-2.4,2a231.73,231.73,0,0,0-1.2,61.2l.72,4.32,5.4-33,4.44.24c14.28-13.32,14.64-25.92.84-37.56Zm-8.28-290a35.75,35.75,0,0,1-16.68,12.24l-.12-20.76c4-1.56,8.28-.6,12.72,2.88l1.08,1.68Zm-22-16A8.78,8.78,0,0,0,138.48,82a152.49,152.49,0,0,0,2,69.36l1.8-39.12q29.88-11.88,13.92-36.48a19.6,19.6,0,0,0-9.12-7.56Zm60,96.48a10.48,10.48,0,0,0-.72-12l-71.16,3.48-.24.84a16.71,16.71,0,0,0,.24,7.32,247.19,247.19,0,0,0,46.2,3.12,239.94,239.94,0,0,0-2.52,53,955.21,955.21,0,0,1-.72,128.4c-2,1.68-2.4,2.76-.84,3.24-1.8,7.44-.84,13.68,3,18.6a425.18,425.18,0,0,0,6.12-86c-1.08-39.48-1.92-78.48-2.64-117.24l22.56-1.8ZM263.28,14h-.12C263.64,18.72,263.64,18.72,263.28,14Zm228.24,335q-2-49.32,22.44-90.6c8.28-13.8,19.92-19.92,35.16-18.6,16,1.44,24.48,10,25.8,25.56a28.15,28.15,0,0,0-.12-22.68c-6.48-15.24-18.72-21.6-36.84-19.2q-47.7,30.42-50.64,88.92c-2,42.84-2.76,85.8-2.16,129.12q.72,45.54,2.52,91,1.62,36.36,27.72,58.08,37.8,1.62,52.2-30.72l-1.92,22c-.84,8.76,1.08,14.76,6,18L572,599a384.84,384.84,0,0,0,1.08-91,27.45,27.45,0,0,0-18.48,5.52,15.68,15.68,0,0,1-9.72-.84A6.6,6.6,0,0,0,541.2,516l-.36.84a16.53,16.53,0,0,0,.84,11.28q5.58,4.32,13,1.08a32.73,32.73,0,0,1,8.52-3.48,19.45,19.45,0,0,0-1.8,7.56c-1.2,27-16.2,40.2-44.88,39.84a23.84,23.84,0,0,1-14.4-15,158.78,158.78,0,0,1-9-47.52c-1.56-42.84-2-85.8-1.32-129.12C492,370.68,491.88,359.88,491.52,349.08ZM480.24,59.76c-.6,43.08-1.44,86-2.76,129.12s-2.4,86-3.48,129.12c-1.08,42.84-2.16,85.92-3.48,129-.84,26.76-.6,53.16.48,79.44-1-6.6-2-13.32-3.24-19.92q-11.7-62.64-22.92-125.4-11.34-63-17.28-126.84c-4-42.6-8.88-85.08-15-127.44-5.28-37.32-11.76-74-19.32-110.4l-1-12.6c-.6-.12-.84-.12-.84.24l-.24,2.4-1.08-4.56q-5.94,6.48-4,17.28l2.64,14.64c-.72,11.28-1.32,22.68-1.68,34.08q-1.62,64.62-3.84,129c-1.56,43.08-2.88,86-4,129.12s-2.16,86-3,129q-1.26,65-4.32,128.28a4.46,4.46,0,0,0,3.6,2.16,2.55,2.55,0,0,0,1.92-2.16A1133,1133,0,0,0,385,455q.18-64.62,1.8-129c1.08-43.08,2.64-86.16,4.56-129l3-64.92q1.44-30.06,1.08-59.76,5.94,36,11,72.36,8.82,62.64,14.64,125.76,5.94,64.26,17.28,127.8,11.16,63.18,20.28,126.48a410.87,410.87,0,0,0,13.8,62.4c1.56,0,2.28-.84,2.28-2.4v-2.88C479,563,481,542.64,480.6,520.56q-1.26-64.62.36-129,1.44-64.44,3.36-129.12l3.36-129c1.08-43.32,1.32-86.16,1-128.28C483.24,21.84,480.48,40,480.24,59.76ZM349-2.16a98.37,98.37,0,0,0-7.08,34.32Q339.72,95.52,343,159.6q3.06,64.08,7.92,128.16a627.28,627.28,0,0,1-3.6,129.12A400.94,400.94,0,0,1,310.2,540.24a43.49,43.49,0,0,1-24.72,22.56q-33.3,12.42-37.2-21.84a1003.38,1003.38,0,0,1-6.6-123.24c.36-43,1.44-85.68,3.48-128.28,2-43,5.52-85.68,10.2-128.16a1159.24,1159.24,0,0,0,7.2-129.12q0-18.54-6.12-31.32a5.27,5.27,0,0,0-1.08,3.24C255,29.64,254.28,55,253.2,80.28q-2.7,64.08-9,127.56c-4.2,42.48-7,85.2-8,128.28s-1.32,85.92-.6,129q.18,16.2-.72,32.4-2.34,42.12,14.88,78.72a11.48,11.48,0,0,0,7.32,6.48c25.56,7.32,44.88-1.08,57.72-25.08a337.36,337.36,0,0,0,28.68-72.12,502,502,0,0,0,17.16-127A1173.7,1173.7,0,0,0,355,230.28c-4.2-42.36-6.36-85.2-6.48-128.28a428.72,428.72,0,0,1,4.92-64.68C355.68,23,354.6,9.6,350.16-2.76A.93.93,0,0,0,349-2.16ZM69.84-2C45,10.68,32.4,31.32,31.8,59.76A96.88,96.88,0,0,0,36.48,91,413.33,413.33,0,0,0,76.2,177.24a504.79,504.79,0,0,1,54.6,125.64,371.81,371.81,0,0,1,13.44,119.76,379.63,379.63,0,0,1-23.16,114.48,42,42,0,0,1-8.28,13.44c-19.56,21-43.92,27.72-73,19.92a33,33,0,0,1-20.76-15.72,57.2,57.2,0,0,1-7.92-31.68,187.1,187.1,0,0,1,6.6-44.28c2.88-10.2,1.08-17.4-5.28-21.48a11.15,11.15,0,0,0-2.28,4.8,51.88,51.88,0,0,1-3,9.24,35.48,35.48,0,0,0-1.56,5.4l.72,1.68L6.72,480a448.73,448.73,0,0,0-2.16,64.92A41.59,41.59,0,0,0,14.4,570.6c20.76,25.08,47.28,30.84,79.68,17,13.56-5.88,22.92-15.12,28.32-27.72a380.13,380.13,0,0,0,30.24-127,392.83,392.83,0,0,0-10.56-121.08,545,545,0,0,0-41.28-112c-15.48-30.84-31.92-61-49.44-90.6Q22.56,60.54,59.52,19.8C76.44,11,93.6,11.52,111,21.48a15.28,15.28,0,0,1,7.68,11c1.08,7.56,3.36,13.56,6.6,18.12a26.39,26.39,0,0,0,3-11.4,28.94,28.94,0,0,0-4.68-17.76Q106.14-5.52,71.4-3Z" transform="translate(-4.22 3.22)"/></g></svg>