<svg id="Layer_1" data-name="Layer 1" xmlns="http://www.w3.org/2000/svg" viewBox="0 0 505.39 402.38"><defs><style>.cls-1{fill-rule:evenodd;}</style></defs><path class="cls-1" d="M269.16,318q.36,64.26-3.24,128.16a33.1,33.1,0,0,0-1,3.24,297.63,297.63,0,0,0-15.6-49Q226.5,346.44,203,294l-1.2-12.6a11,11,0,0,0-3.12,3.12l-.48-1c-2.28,1.44-2.88,3.72-1.92,6.84l.24,1.08V293a303.39,303.39,0,0,1-.36,39.12c-3,42.6-6.84,85.08-11.76,127.32A7,7,0,0,0,190.2,464a14,14,0,0,0,3.24-8c3.24-36.72,6.24-73.56,9.24-110.4.84-10.68,1.32-21.12,1.2-31.56q16,48.78,35,96.48,12.24,30.42,25.68,57.84a9.48,9.48,0,0,0,2.64-8,16.62,16.62,0,0,0,2.76,3.12,10.47,10.47,0,0,0,3.12-7.2q3.24-64.44,6-129a300,300,0,0,0-1.56-48C271.92,290.52,269,303.48,269.16,318ZM110.4,89.52q38-6.48,51.12,29.52a3.5,3.5,0,0,0,3,1.92l1.32-.24a12,12,0,0,0,1-7.92c-6.12-26.52-23-41.4-51-44.64Q77.28,85.62,76,127.92c-.72,22.2,5,42.12,17.4,60q20,29.34,37.08,60.6A456.07,456.07,0,0,1,166,332q16.38,52.74-20.52,92.16Q105.66,466.68,53,439c-6.84-3.6-10.56-8.64-11.28-15.12C40.68,415.2,38,408.12,33.6,402.6a10.9,10.9,0,0,0-5.16,9.72,53.5,53.5,0,0,0,1.32,11.76,58,58,0,0,0,8.76,20.76A49,49,0,0,0,56.28,461c21.72,11.88,43.56,12.6,65.28,2.28q34.74-16.38,47.52-52.2,20.34-56.7-2.88-112.8Q155.76,272.94,143,248.88a664.6,664.6,0,0,0-54-87c-10-26.52-5.28-49.44,14.28-68.64A12.75,12.75,0,0,1,110.4,89.52Zm89.28-10.2c-2.28.48-3.36,2-3.36,4.8q-.18,41.94-1.2,83.64A229.19,229.19,0,0,1,193,193.44a201.3,201.3,0,0,0,1.32,65.28,246.88,246.88,0,0,0,63.6-7.08,4.14,4.14,0,0,0,4,1.08c6.12-6.6,6.72-13.56,1.68-21.12a259.5,259.5,0,0,1-65.28,8.16l.84-24.36q3.42-64.44,3.6-128l-.36-.84A20.11,20.11,0,0,0,199.68,79.32Zm195.36,27a15.18,15.18,0,0,0,2.64,1.68q1.44,42.84,2,86,.9,65-2.4,129a306.82,306.82,0,0,1-20.4,96.84c-9.24,24.12-27.36,33.24-54.36,27.6a14,14,0,0,1-3.84-6.48,319.65,319.65,0,0,1-8.16-86.52c1.8-42.84,3.12-85.56,4.2-128.28q1.62-64.62,4.44-129c.36-7.32-1.44-12.24-5.64-14.64a277.52,277.52,0,0,0-3.48,47q.54,63.54-2.64,126.72-3.42,64.26-4,129c-.12,5.52-.36,10.92-.84,16.08q-3.24,36,16.08,64.2a42.86,42.86,0,0,0,27.72,3,39.76,39.76,0,0,0,21.36-12.24,115.82,115.82,0,0,0,28.08-54.48,528.38,528.38,0,0,0,11.88-127.8c-1.08-42.84-1-85.92.48-129a244.7,244.7,0,0,0-6.12-64.2,4.73,4.73,0,0,0-4.44,2.76l-.12.84C396.36,91.68,395.52,99,395,106.32Zm136.08,1.08A55.18,55.18,0,0,0,515.76,89l-2-.84A44.94,44.94,0,0,0,486,81.72a41,41,0,0,0-13.2,10.44q-27.54,31.32-34.56,73.68a528.56,528.56,0,0,0-6.36,64.92l-2.52,64.92c-1.32,33.6-2,67.44-1.92,101.52a83.44,83.44,0,0,0,12.12,43.92q18.54,30.42,52.32,19.44l2.76-.12.48-.24A65.58,65.58,0,0,0,522.6,429a149,149,0,0,0,1.8,41.52l.6-.12a194.2,194.2,0,0,0,5.88-91.56A207.64,207.64,0,0,1,496,388l-.24.84a15,15,0,0,0,.48,11.4,76.58,76.58,0,0,0,30.6-1.08l-1.2,8.76a14.06,14.06,0,0,0-5.52-6.6l-7.44,17.52a97.11,97.11,0,0,1-4.8,10.08A42.22,42.22,0,0,1,492,440.4q-22.68,9.9-39.6-7.2-19.62-19.62-18-49.32,2.16-40.32,3-80.28,1.44-63.36,8.52-125.64a132.28,132.28,0,0,1,26-66c6.48-8.64,15-11.88,25.56-9.84q22.68,4.32,33.84,23.76C534.48,120.12,534.36,114,531.12,107.4Z" transform="translate(-28.44 -68.16)"/></svg>