<svg id="Layer_1" data-name="Layer 1" xmlns="http://www.w3.org/2000/svg" xmlns:xlink="http://www.w3.org/1999/xlink" viewBox="0 0 590.28 590.28"><defs><style>.cls-1{fill:none;}.cls-2{clip-path:url(#clip-path);}.cls-3{fill-rule:evenodd;}</style><clipPath id="clip-path" transform="translate(1.08 -3.48)"><rect class="cls-1" y="3.48" width="589.32" height="590.4"/></clipPath></defs><g class="cls-2"><path class="cls-3" d="M203.4,480.12l3.6,4.32a14,14,0,0,0,5.4,4.08L210.24,491a3.5,3.5,0,0,1-2.4,1.32c-1.32,0-3.24-.72-5.52-2.16a11.84,11.84,0,0,0-5.88-2.16q-37.26,0-55.8,26c-6.24,8.76-10,17.76-11.28,27.12q0,3.42,3.24,8.28a41.07,41.07,0,0,0,9.48,10,53.76,53.76,0,0,0,34.32,11.88c10.68,0,20-2.28,28.08-7a41,41,0,0,0,7.08-5.16l3.24-2.76a9.64,9.64,0,0,1,2.52,6.12c0,1.2-.84,3-2.4,5.4a39.6,39.6,0,0,1-7.08,8,41.2,41.2,0,0,1-28.2,10.56c-21.12,0-36.6-6.84-46.44-20.4a49,49,0,0,1-7.56-15.24,39.1,39.1,0,0,1-1.68-9.84c0-4.2,1.08-9.48,3.12-15.6a81.64,81.64,0,0,1,9.84-19.68c10.92-16.32,24.84-25.8,41.64-28.32C191.64,476.4,199.92,477.24,203.4,480.12ZM159.48,304.8c.12,1.8.12,6.6.12,14.64V332a50.2,50.2,0,0,1-2.16,12.6v24c1.8.6,4.2.24,7.44-.84a32.61,32.61,0,0,1,11.52-2.16l10.08.24,8.64.6c8.76-.24,14.4,1,17,3.6,1.08,1.08,1.56,2.88,1.56,5.4v2a5.64,5.64,0,0,1-1.68,3.6c-3,2.76-9.12,2.76-18.6,0l-17.28.24c-.36.36-2.64.84-6.72,1.56l-8.16,1.2-8.16-.24a13.37,13.37,0,0,1-2.16-7.32c-.12-18,.36-31.32,1.44-39.84a125,125,0,0,0,.6-20.4c-.36-8-.6-14-.6-18.12a37.8,37.8,0,0,1,.12-4.44c.36-2.16,1.32-3.36,2.76-3.6A39.39,39.39,0,0,1,159.48,304.8ZM118.56,50.28l-.6.48-1.08,1c-3-8-6.24-14.4-9.72-19C98.64,21.6,87.72,16,74.4,16c-14.88,0-25.56,8.28-31.92,25A74.31,74.31,0,0,0,37.32,66q0,25.56,23.52,98.52C66.72,182.52,72.72,200,79,217c5.64,15.48,9.72,25.68,12.24,30.72q9.9,20.34,24.48,84.24,15.3,67,15.24,97.2a239.07,239.07,0,0,1-3.48,38.64A283.19,283.19,0,0,1,115.8,512.4c-12.6,35-30.36,60.48-53,76.32-4.8,1.8-10.56,1.56-17.4-.6A71.3,71.3,0,0,1,27,578.52a77.58,77.58,0,0,1-14.88-13.44c-4.08-4.92-6.24-9-6.48-12.36-.6-10.92-2-18.48-4.08-22.44a21.68,21.68,0,0,1-1.8-4.56,45.11,45.11,0,0,1-.84-10.44A90.49,90.49,0,0,1,.6,499.2l1.56-9a73.67,73.67,0,0,0-1.08-7.92Q0,475.62,0,474.36l.24-8.76L.6,454.08a4.79,4.79,0,0,1,1.08-2.88l2.16-2.4h.72C2.64,452,1.68,454,1.68,454.44L5.16,469c2.28,10.32,3.48,17.4,3.48,21.24a56.51,56.51,0,0,1-1.56,14,44.14,44.14,0,0,0-1.68,11A68.5,68.5,0,0,0,12,544.56c8,17.64,21.84,26.52,41.28,26.52,24.12,0,43.08-22.92,57.12-68.64a386.1,386.1,0,0,0,11-48.48c2-12.6,3-20.88,3-24.72q0-47-14.4-97.56-9-31.32-31.8-87.48c-15.72-38.28-26.28-67-31.8-85.8Q31.86,109.62,31.92,65.76c0-21.24,4.56-37.32,13.68-48.12C53.28,8.4,63.24,4,75.48,4.2a46.82,46.82,0,0,1,30,11.52c9,7.8,13.56,16.68,13.56,26.88ZM205.08,205.8c0,9.24,2.4,25.56,7.08,49l7.08,35.4a14.54,14.54,0,0,1-2.76,8.64c-4.68-10-8.28-23-10.92-39-2.52-17.88-4.56-31-6.12-39.48-4.92,8.16-9.72,19.8-14.4,35-4.92,16.44-9.24,28.08-13,35.16q-7.38-12.78-9.36-33.84L161.28,239a145.71,145.71,0,0,0-2.4-18.12,293.51,293.51,0,0,0-20.76,32.52l-18.48,33a3.61,3.61,0,0,1-2.76-2.76l-.24-3.36c0-3.24,6.48-16.2,19.32-38.88l24.24-41.88c3.24,8.52,5.76,20.16,7.68,35.16,2.76,21.48,4.32,33.24,4.8,35.4,1.56-4.08,4-10.92,7-20.64,3.24-10.08,5.52-17,7.08-21a205,205,0,0,1,8.16-22.92C199.32,196.08,202.68,196.2,205.08,205.8Zm-2.4-173.28c0-1.8-2.88-4.8-8.76-8.76L185,18.12c-9.48-.48-15.6-1.68-18.6-3.72a4.37,4.37,0,0,1-1.68-1.92l-.12,30.24h4.2c11.64,0,20.76-1.44,27.12-4.32C200.4,36.36,202.68,34.44,202.68,32.52Zm.24,15.12c-5.28,5.88-14.16,8.88-26.52,8.88a45.46,45.46,0,0,1-12-1.32c-.72,16.2-2.52,29.64-5.28,40.56a56.54,56.54,0,0,1-2.52-14.28c-.12-2-.24-6.72-.24-14.28,0-17.28.12-28.08.48-32.4A122.83,122.83,0,0,1,163,3.48,17,17,0,0,1,164.52,8c.6-2.28,2.76-3.36,6.6-3.36,4.32,0,9.36,1.32,15,4.08a47.29,47.29,0,0,1,15.12,10.56c4.56,4.8,6.84,9.72,6.84,14.88A19.06,19.06,0,0,1,202.92,47.64Zm73-25c-10-3.48-18.12-3.48-24.24-.12-7.32,4-11,12.36-11,25.44a28.64,28.64,0,0,0,1.56,8.16,49.92,49.92,0,0,0,5.4,11.76c6.6,10.32,15.84,15.48,27.6,15.48,12.84,0,22.68-4.92,29.52-14.64a36.29,36.29,0,0,0,6.48-15.48c0-4.44-3.72-10-11-16.32A75.55,75.55,0,0,0,275.88,22.68ZM304,24.84c8.4,9.12,12.6,18.48,12.6,28.2a54.3,54.3,0,0,1-.84,8.16,79.59,79.59,0,0,1-4.2,15.36c-5.76,14.52-14.76,21.72-26.88,21.72-19,0-32.76-6.84-41.28-20.52-5.28-8.4-7.92-17-7.92-26q0-27.72,12.6-38.88c7.32-6.36,16.56-8.16,28-5.16A58,58,0,0,1,304,24.84Zm193.8,394.08a81.38,81.38,0,0,1,.72,9l-.72,18.84-1.2,28.2v12.6a37.89,37.89,0,0,1,7.8-2c31.32.24,47.16.48,47.76.84l14,.48V475l3.6-40.44c1.56-16.2,3.6-27.6,6.24-34.44a22.44,22.44,0,0,1,2.16,10.2c0,10.08-.72,22.08-2,36.12-.72,7.32-2,18.84-4,34.8v45.48q-.72,5.58-1.44,29.88c-.36,12.48-1.8,22.32-4.2,29.4a27.46,27.46,0,0,1-6-5.88,30.62,30.62,0,0,1-4.92-8.76l3,1.92,3.24,1.92c1.32-5.28,1.92-14.16,2-26.64s.84-21.84,2.28-28.08V502.32l-6.48-.24-9-.6-47.88.36-2,1a7.25,7.25,0,0,1-2.88.6l-1.32-.12v37.44l-1.92,11.4c-.84,5.16-1.68,9.24-2.4,12.24l1.2-2.76a7.73,7.73,0,0,1,2.88-3c-2,2.64-3.48,7.2-4.44,13.8s-2.4,10.92-4.2,13.32c-.84-1-1.44-3.36-1.92-7.32a60.87,60.87,0,0,1-.6-6.84,182.31,182.31,0,0,1,5.4-37.8v-64.2a94.91,94.91,0,0,0,.12-15.84L489.6,436.2c-.48-13.92,1.8-22.32,6.72-25.32C496.8,411.84,497.28,414.48,497.76,418.92Zm-43.56-2.64-1.44,2.4a4.16,4.16,0,0,1-3.24-.84l-2-2.4c-2.52-2.52-7.8-3.72-16.08-3.72q-26.64,0-47.4,45.24a220.35,220.35,0,0,0-15.48,45.36,82.58,82.58,0,0,0,.72,10.08,84.51,84.51,0,0,0,4.68,20c7.08,18.84,19.32,28.32,36.84,28.32,10.32,0,17.4-.24,21.24-.6,5.76-.48,10.44-1.68,13.92-3.72,3.72-2,7.32-5.4,10.92-10.2a185.85,185.85,0,0,0,12.36-19.56H470l.24.36v1.68a41.91,41.91,0,0,1-1.44,8.28,64.18,64.18,0,0,1-6.36,16.44c-8.76,15.72-22,23.64-39.84,23.64q-36,0-51.36-29.76a78.15,78.15,0,0,1-7.08-21.12,63,63,0,0,1-1.32-10.92q0-37.8,14.28-67.2c8-16.44,18.6-29.4,31.56-38.88,11.52-8.4,22.08-12.24,31.56-11.52q6.66.54,10.44,4.32c2.52,2.76,3.84,6.36,3.84,11A12.08,12.08,0,0,1,454.2,416.28ZM354,410.76a396.39,396.39,0,0,1-3.12,47.16c-1.8,15.36-4.32,30.6-7.44,45.72-1.08,5.16-2.28,13-3.72,23.28-1.8,9.24-4.68,16.92-8.76,23A157.39,157.39,0,0,1,310.08,575c-12.6,12.48-23.16,18.72-31.92,18.72-10.8,0-19.32-1-25.68-2.88s-11.16-5.28-14.4-9.72c-3.24-4.08-5.52-9.84-6.84-17.4a214.94,214.94,0,0,1-2.64-26.52c-.36-7.68-.24-19.08.24-34.2l1-22.2c0-13.2-.72-29.16-2.28-47.88s-2.16-34.32-2.16-47c0-15,.36-26.16,1.08-33.72V268.56l-.72-3.24V153.48c0-14.76.12-25.8.24-33.12.36-13,1.56-23,3.84-30.24,2.4,7.56,3.36,17.4,2.76,29.64l-1.68,29.16a48.22,48.22,0,0,0,.24,5.28V258.84c.36,1.08.72,3.24,1.32,6.48v92.52a35.67,35.67,0,0,1-1.08,4.92v45.36a168.83,168.83,0,0,1,1.8,17.64,112.68,112.68,0,0,0,2.52,18.12v72.24a46.92,46.92,0,0,0-1.08,11,82.25,82.25,0,0,0,.48,8.52,113.61,113.61,0,0,0,2.52,17c3.72,16,10.2,24,19.2,24q58,0,79.32-70,11.34-37.26,11.28-96.24c0-10.56-.72-23.4-2.16-38.4l-4.32-38.4V133.44l-.84-13.92c-.24-5.88-.6-10.56-1-14l-1.68,1.44-.84-2.64a14.63,14.63,0,0,0,2.88-5.16c1.2-4,2.64-6.48,4.2-7.68,1.8,4.44,2.52,10.56,2.4,18.36-.12,8.52.36,14.52,1.32,18.24V330l4.44,40.56C353.28,386.52,354,399.84,354,410.76Zm47.52-175.2a33.63,33.63,0,0,0-10.08-10.08,60,60,0,0,0-10.32-4.92,43.19,43.19,0,0,1-7.2-3.24v.6c0,10.2-.84,24.72-2.64,43.56-2,21.12-3.12,36.12-3.48,45l-1.8,43.8c-.48,7.44-1.08,14.4-1.92,21a37.8,37.8,0,0,1,6.36-2.64,21.24,21.24,0,0,1-5.16,3.24h27.6c9-2.4,15.24-11.16,19-26.4a114.33,114.33,0,0,0,3-26.76c0-3-.84-12.72-2.4-29.16l-2.76-26.4C408.12,250.68,405.48,241.44,401.52,235.56ZM385.8,207a77.87,77.87,0,0,1,11.88,8.16c3.72,3.24,6.24,5.88,7.44,7.92,2.88,4.08,5.16,9.48,6.84,16.32l3.12,16.2a312.87,312.87,0,0,1,4.68,33.12q1.08,12.42,1.08,31,0,23.22-3.6,40c-4.32,21-12.12,30.84-23.28,29.64l-30.84-.36a6.66,6.66,0,0,1-1.32-2l-1.32,7c-1.08-1.2-1.8-4-2.4-8.16a58.28,58.28,0,0,1-.6-7q0-12.06,2.16-43.2t2.16-39.6q6.3-46.08,6.24-82.8a9.4,9.4,0,0,1,.72-3.12,7.42,7.42,0,0,1,1.32-2.4C371.16,202.2,376.32,202,385.8,207ZM375,99.84c0,6.36-1,20.4-2.88,42.24h.48c10.68,0,18.36-2.16,22.8-6.48a11.2,11.2,0,0,0,3.72-8.16c0-7.08-4.32-13.56-12.84-19.68-4.2-2.76-7.2-4.8-8.88-6L375,99.6Zm14.28-2.52a64,64,0,0,1,10.92,15.24c3.24,6.36,4.92,12.24,4.92,17.4a27.33,27.33,0,0,1-3.72,14,33.51,33.51,0,0,1-9,10l11.88,17.64q14,21.78,14,26.28a16.28,16.28,0,0,1-2.16,8.16c-18.84-26.4-29.28-43.08-31.08-49.92h-14.4q-3.42,35.1-4.32,41c-1.56-.36-2.64-1.92-3-4.44a44.18,44.18,0,0,1-.24-5.4c0-3.48,1-15.84,2.76-37.08a6.45,6.45,0,0,1-.6-2.52c0-3.48.24-5.4.84-5.64h.48c1.92-23.16,3.6-39.48,5.16-48.72a3.69,3.69,0,0,1,1.8,1.2c.36-3.48,1.92-5,4.8-4.56S385.08,92.88,389.28,97.32Zm33.12-61.8L411.6,58c-.84,1.92-2.76,9.24-6,21.84-2.28,8.88-5.4,16.08-9.48,21.72-5.76-10.2-12.48-23.16-20.16-38.64L356.64,23c-3.6,14.4-6.6,25.2-8.88,32.52a144.37,144.37,0,0,1-14.4,32.64c-1.44-1.2-2.16-3.12-2.16-5.88s3-13.68,9.12-33C346.92,28.44,352.2,14,356.4,6.24q6.3,12.06,20.88,38.16Q390.06,68,395.64,82.56l.24.24c4.44-9.48,12.12-28,22.8-55.44,4-9.72,7-16,9-18.48,2.52-3.24,3.72-1.56,3.72,4.8C431.4,16,428.4,23.16,422.4,35.52Zm67.56-8a18.12,18.12,0,0,1,1.44,5.64,28.74,28.74,0,0,1-1.32,8.52l-1.32.36a26.68,26.68,0,0,0-5-11.88,18.11,18.11,0,0,0-15-7.08q-23.22,0-28.92,46.2a310.89,310.89,0,0,0-1.92,34.56v64a43.61,43.61,0,0,0-1.08,10.44l.6,11,.72,15.72v41.4l1.08,4.08v56a173.21,173.21,0,0,1,1,17.52,153.59,153.59,0,0,0,1,18.12,61.28,61.28,0,0,0,16.68,36.6h10.92q16.2-2.7,21.6-18.36a50.41,50.41,0,0,0,2.28-12.48l.48-9.48h.72l1.32,7.92c1-13.08,2-23.16,3.36-30.12l-17.16.48h-11a8.8,8.8,0,0,1-1.92-6c0-3,.84-5.4,2.52-7l11.88-.48q7-.36,17.28-.36a9.69,9.69,0,0,1,3.6,6.48c.12,1.08.24,3.36.24,7l-2,29.52c-1.32,20-2,31.68-2,34.68a99.71,99.71,0,0,1-1,11.64c-.84,6.84-2,10.92-3.6,12.48a12.31,12.31,0,0,1-2.76-7.68l1-22.44-1.32,2.4c-4.08,6.6-11.76,12.72-22.92,18.24H457.32q-18.36-17.1-21.6-41.4c-.48-4.2-.84-11.16-1.08-20.64a141.43,141.43,0,0,0-1.44-20.76v-56q-.72-2.34-1.08-4v-48c.12-3.24.12-8.16-.24-14.88l-.48-11a90.7,90.7,0,0,1,1.08-16.08V120.12l.84-27.84a225.49,225.49,0,0,1,2.4-28.2C439.2,42.6,448,24.48,462.24,9.72,471.48,8,479.16,11,485,18.6A37.48,37.48,0,0,1,490,27.48Zm94.32,7.44a8.39,8.39,0,0,1-.48,3.24,9.66,9.66,0,0,1-1.68,3c-.84-.6-1.68-1.92-2.28-4.2a40.59,40.59,0,0,0-2.52-6.24c-3.36-5.4-10.92-8-22.56-8-12.84,0-21.72,8.88-26.76,26.64a100,100,0,0,0-3.84,27.48l2.4,63.36L523.8,188.4l-.36,5.4c2.52-.36,6,0,10.2.84l34,.36a6.4,6.4,0,0,1,2.64,4,16.78,16.78,0,0,1,.6,4.08,11.56,11.56,0,0,1-2.76,7.92l-4.92-.36q-9-.54-29.52-.72-7.2.72-11.16-1.08-1.8,30.78-2.16,40l-3,60.6c-1.56,29.64-2.4,45.72-2.4,48.24l.36,4.68a41.79,41.79,0,0,0,2.16,10c3.36,9.48,9.6,14.28,18.6,14.28,17.4,0,29.76-9.24,37.08-27.6,4-10,6.36-24.12,7.44-42.24.36,0,.6.24,1,.84l.6,1.08,1.44-2.16,1.92-2.76a13.67,13.67,0,0,1,2.76,4.8l1,3.12a122.6,122.6,0,0,1-1.44,13.56A212.82,212.82,0,0,1,581.64,363q-12.24,40.14-36.12,40.08c-17.88,0-29.4-7.44-34.32-22.44a53.09,53.09,0,0,1-2.52-15.6l.36-7.2c0-7.32.48-19.68,1.56-37.32l3.6-58.2q5-92.52,5-185.64a129,129,0,0,1,4.44-34.44C529.56,20.52,540,9.72,555.12,9.72c10.44,0,18.24,3.24,23.52,9.72A24.37,24.37,0,0,1,584.28,34.92Z" transform="translate(1.08 -3.48)"/></g></svg>