<svg id="Layer_1" data-name="Layer 1" xmlns="http://www.w3.org/2000/svg" xmlns:xlink="http://www.w3.org/1999/xlink" viewBox="0 0 582.44 599.3"><defs><style>.cls-1{fill:none;}.cls-2{clip-path:url(#clip-path);}.cls-3{fill-rule:evenodd;}</style><clipPath id="clip-path" transform="translate(-6.52 3)"><rect class="cls-1" x="6" width="584.88" height="601.92"/></clipPath></defs><g class="cls-2"><path class="cls-3" d="M198.24,478.2a148.36,148.36,0,0,0-8.88,39.36c-5.16-12.24-10.2-24.72-15.12-37.32a77.93,77.93,0,0,0-7.68,27.6,25.25,25.25,0,0,1-2.64,9c-4.68,9-4.92,16.56-.48,22.92a130.2,130.2,0,0,0,11.28-38.16,212.12,212.12,0,0,0,14.64,35.52l.84-.72c7.56-19.2,10.44-38.64,8.4-58.32ZM200.52,425l-4.08,12.24-7.08,1.8-.48-16.44Zm-7.44-10.8-2.28.48-2.28.6a140.25,140.25,0,0,0-9.72,43.08,45.52,45.52,0,0,0,2.4,18.84l6.12-27.48,7.56-.72a64.1,64.1,0,0,0,7.56,23.76,23.13,23.13,0,0,0,5.16,6.84,52.76,52.76,0,0,0-3-21.6,68.4,68.4,0,0,0-5.88-11.88,29.07,29.07,0,0,0,5-8.52,21.82,21.82,0,0,0,1.68-9.24,31.87,31.87,0,0,0-2.76-12,10.57,10.57,0,0,0-7.2-2.28Zm-24-186.72a76.12,76.12,0,0,0-5.16,19.92,266.19,266.19,0,0,0-1.68,47.76,15.55,15.55,0,0,0,1.32,5.76l-6.12.36-7.08,1.32a26.25,26.25,0,0,0-10,5.52l.84,8.16,22.44-3.48q-.72,57.06-5,114A138.22,138.22,0,0,0,163.92,477,206.52,206.52,0,0,0,168,439.68c1.08-42.36.72-84.72-.84-127.08l27.36,1.08.72-1.44.36-1.32.24-1.44V308a5.57,5.57,0,0,0-.48-2.52l-1-1.92-29.76-2.52q-.72-20,12.24-34.2l3.48-3.72a67.39,67.39,0,0,0,3.48,14.52c3.24,9.36,8,16.2,14.28,20.4a13.08,13.08,0,0,0,0-7.44,98.94,98.94,0,0,0-15-30.48l5.16-6a43.27,43.27,0,0,0,8-19.2,37.64,37.64,0,0,0,.12-9,59,59,0,0,0-9.48,9.48,124.85,124.85,0,0,0-18,31.2ZM118.8,30.6a51.32,51.32,0,0,1,16,24.36l-.72,4.8a15.5,15.5,0,0,0,.12,4.08l.24.84.48.6A6.81,6.81,0,0,0,137,66.72l1.2.12a30,30,0,0,0,1.32-16.92Q130.92,7.62,87.72,4.08A66.33,66.33,0,0,0,61.68,22c-14.76,16-20.88,34.8-18.6,56.52A177.83,177.83,0,0,0,62.52,142.8a583.18,583.18,0,0,1,39.6,95.4,605.56,605.56,0,0,1,25,124,706.76,706.76,0,0,1,1.2,116,159.47,159.47,0,0,1-20.52,67.56q-23.58,41.76-71.88,25.08-18.54-6.3-17.64-25.2c.72-16.44.72-32.4-.12-48l-3-.6h-.48a134.14,134.14,0,0,0-8,51.72c.48,17.4,8,30.12,22.8,38q41.58,22.5,72.36-8.28A107.6,107.6,0,0,0,129,525.84a536.53,536.53,0,0,0,10.44-127.56A704.79,704.79,0,0,0,124.32,277.2,501.33,501.33,0,0,0,83.76,159.12c-7.92-16.2-16.32-31.92-25.08-47.4-10.68-18.84-12.36-37.8-4.8-57q12.6-32.22,46-34.92A57.24,57.24,0,0,1,118.8,30.6Zm77.16,133-1-1.44-24.84.24a131.61,131.61,0,0,0,1.08-45.48C164.16,136,162,156.36,165,178.08l19-4.92,11.88,1.08A11.23,11.23,0,0,0,196,163.56ZM255.12,53,250.8,58l4.2-.12,2.4,4.08q4.68,0,3.6-6.12A239.57,239.57,0,0,0,244.56,2.4L221.28,40.32A106.79,106.79,0,0,0,214,4.56L212,0c-6,12.48-12.48,24.6-19.32,36.48a37.85,37.85,0,0,0-4.92,23.64A155.83,155.83,0,0,0,211.56,17l5.64,42.24a174.29,174.29,0,0,0,26-40.32Zm50.64-52a452.62,452.62,0,0,0-4.92,59.76,3.61,3.61,0,0,0,3.84,2.52l.48-1A182.93,182.93,0,0,0,306.48.84C306.12.72,305.88.72,305.76,1.08Zm51.48,218.76A750.86,750.86,0,0,1,354.72,124c.84-22.68-1.56-44.16-7.32-64.2-4.92,6.48-6,13.68-3,21.72a919,919,0,0,0,2.76,101.4c3.48,42.48,5.52,85.2,5.88,128.28A706.68,706.68,0,0,1,342.48,439a425.08,425.08,0,0,1-33.84,106.68c-8.28,17.64-22.68,25.32-43.08,22.8-6-.72-10.08-3.72-12.36-9.12a126.29,126.29,0,0,1-9.6-52c1.08-43.2.72-86.28-.84-129.12-1.68-43.08-1.8-86-.36-129.12.72-21.6,1.92-43.2,3.6-64.68A627.68,627.68,0,0,0,243,56q-.9-.18-1.08.36a93,93,0,0,0-2.76,28.92,913.46,913.46,0,0,1,.24,94.2c-2,42.72-3.6,85.44-4.44,128.16s-1,85.56-.24,128.16Q235.8,498.48,241,560q1.8,22.5,23.76,25.2a42.54,42.54,0,0,0,20.64-2.4c19.8-7.44,33.12-21.72,40.2-42.84,6.72-20.28,12.48-40.92,17.4-61.68A690.37,690.37,0,0,0,360.6,348.84,963.51,963.51,0,0,0,357.24,219.84Zm54,139.56q-40,23.4-41.16,73.32a428,428,0,0,1-3.48,44.4,265.72,265.72,0,0,0,4.32,92.4c9.36,16.44,23.52,25.32,42.6,26.64,20.28,1.08,37-6.36,49.92-22.56,8.4-10.44,10.08-22,5.16-34.32-9.24,22.44-25.92,35-50,37.56-22.44,2.28-35.88-7.68-40.2-30.12a329.72,329.72,0,0,1-5.76-67.08q.54-47.88,21.84-88.92a44.3,44.3,0,0,1,6.36-9.12q22.32-12.42,42.12,8.28A151.69,151.69,0,0,1,454.2,403.2q.18-20-15.84-32.76A50.78,50.78,0,0,0,411.24,359.4ZM389.88,58.68a12,12,0,0,0-4.68,8.16,185.22,185.22,0,0,0-2.64,54.36l1.92-.24a7.66,7.66,0,0,0-1.92,3.48,12.56,12.56,0,0,0-2.28,8.76,817.8,817.8,0,0,1-1,128.28c-1.8,21.36-4.2,42.6-7.08,63.84-1.56,11.88-.48,22.68,3.36,32.4a312.2,312.2,0,0,0,8.64-67.92c.24-13.56,1.2-27,2.76-40.44a503.1,503.1,0,0,0,2.4-94q11.34,41.94,25.2,83.16Q434.94,298.14,449.4,359l.72-.24,1.44-4c1.08.6,1.32,0,.48-1.8l.12-.36c1.8.84,2.76.12,3-2,4-34.68,6.6-69.48,7.92-104.64,1.8-43.32,2.76-86.16,2.88-128.28-2.76.6-4.2,2.4-4.44,5.4q-4.14,51.12-6.36,103Q453,277.74,451.68,329.4a59,59,0,0,0-2-6l.24-.84c1-2.28.72-2.64-.72-1.32q-10.8-40.14-24-79.92Q405,181,386,120.48A90.27,90.27,0,0,1,423.72,115l.48-.6a12.77,12.77,0,0,0,.36-12.12c-13.44-1.08-25.92-.24-37.44,2.76l.24-.84A297.12,297.12,0,0,0,389.88,58.68Zm3.48-45.6-6.48,10.44-12.24.6-1-15.24,14.88-.72Zm194.88-12-.6-1.92q-45.9,113.22-99.6,222.6l-1.2,2.52L487.56,0a642,642,0,0,0-10.68,171.36q3.42,48.42,3.36,97.2,0,64.62.48,129l.36,96.72c.12,21.72-.48,43.32-1.68,64.92a77.1,77.1,0,0,0,.12,9.12,48.92,48.92,0,0,0,1.08,8.28,48.42,48.42,0,0,0,3.6,11.4l1.8,3.48a861.46,861.46,0,0,0,7.2-156.6q-4-93.06-6.12-186.36l31-62.16q27.18,195.3,54.84,391a35.7,35.7,0,0,0,5.64,14.76l2.16,3.24Q567.36,462.48,547.8,326.4l-11.16-76.56c-2.16-14.76-4.8-29.52-7.8-44.28L522.6,176.4Q552.48,111.6,576,44.16C586.68,30.84,590.76,16.56,588.24,1.08ZM381-3l-9,5.16c-6.6,20-7.8,40-3.6,59.52l5.52-24.48h12A52.18,52.18,0,0,0,405,64.44a46.63,46.63,0,0,0-12-34.08c8.52-12,7.44-23.16-3.12-33.36Z" transform="translate(-6.52 3)"/></g></svg>