<svg id="Layer_1" data-name="Layer 1" xmlns="http://www.w3.org/2000/svg" viewBox="0 0 574.07 518.18"><defs><style>.cls-1{fill-rule:evenodd;}</style></defs><path class="cls-1" d="M185.52,474.12A411.85,411.85,0,0,0,183.36,549a138.59,138.59,0,0,1,22.2-2.76c2.16-4,1.92-7.8-.72-11.28l-18.48.48.24-.84a410.65,410.65,0,0,0,3-70.56C187.32,466.56,186,469.92,185.52,474.12ZM189.24,425c1.08,8.76,2.4,17.4,4,26l12.72-34.44a143.63,143.63,0,0,0,7.32,32.88,34,34,0,0,0,5,9.12,299.39,299.39,0,0,0,15-55.8,69,69,0,0,0,0-25.32L217.8,443.16,207,399.6a99.85,99.85,0,0,0-8.76,20.88c-1.32,4.8-2.52,9.24-3.36,13.32l-7.08-55A248.26,248.26,0,0,0,189.24,425ZM40.2,53.4a10.43,10.43,0,0,1,6,5.28l.6,1.44-3.24,4.8-7.8,2.76-1.92,1.56a39,39,0,0,1-6.48.12l-1.44.24-1.2.24-2.28,1.08-2.16,1.32L20,78.72c1.08,1.32,2.76,1.92,5.16,1.92h3.36l3.36-.6a3.76,3.76,0,0,0,2.64-1.32l.84-.84,13.32-7a24.48,24.48,0,0,0,.48-17.28,13,13,0,0,0-8.64-9,36.31,36.31,0,0,0-10.68-2.4,25.31,25.31,0,0,0-14.4,4.08l-.36,6.48L13.44,98.88a88.83,88.83,0,0,0,3.84,30.24l1.8-75a47,47,0,0,1,10.2-2.52A27.87,27.87,0,0,1,40.2,53.4ZM160.92,68.52c-6.6-22.92-23.52-32.88-50.52-29.88A60.89,60.89,0,0,0,81.12,56.16a50.38,50.38,0,0,0-11.64,20Q52.92,130.92,84,178.56A661.19,661.19,0,0,1,144.72,295.8a376.25,376.25,0,0,1,26,115.56c.72,10,1,19.92.84,29.88-.6,29.4-9,55.92-25.2,79.8a25.74,25.74,0,0,1-10.92,9.36c-21.84,10.2-44.76,12.36-68.64,6.72A77.39,77.39,0,0,1,55,489.36c.6-8.52-1.2-14.88-5.16-19.32a116.93,116.93,0,0,0-2.64,28.32c.6,20.52,7.08,38.76,19.44,54.48a88,88,0,0,0,30.72,3.24,70.28,70.28,0,0,1,7.08-.12q27.72,1.62,43.2-20.16,36.9-52,32-116.76A427.13,427.13,0,0,0,154.8,304.32,637.78,637.78,0,0,0,97.68,187.08,338,338,0,0,1,80.16,155.4q-18.36-38.34-3-78.84l1-1.68.72-1.56.48-1.56.24-.84A35.43,35.43,0,0,1,93.24,58c4.2-2,8.28-4.32,12.24-6.6a75.7,75.7,0,0,1,36.24,3l.24.36.6.48.84.84c8.52,2.64,13,8.28,13.32,17,.12,3.48,1.08,5.76,2.88,7C161.88,76.8,162.24,73,160.92,68.52Zm71.76,143.64c8,7.08,8.88,14.64,2.64,22.68L234,236.28l-13.68,2.16L223,211.8l5.4-1Zm-15-1.2c-1.32,19.56-3.48,39.12-6.72,58.44-1.08,7.08,0,13,3.36,17.52l5.28-39.24,8.28-.24a115,115,0,0,0,19.68,44,110.41,110.41,0,0,0-17.28-45.12c13.56-10.2,16-22,7.32-35.28a24,24,0,0,0-9.24-8.4l-6.24.24-5.16,3.6Zm-8-7.2-14.88-4.08c-11.64,8.28-18.84,20.16-21.84,35.4a285,285,0,0,0-5.16,46.44,207.1,207.1,0,0,0,3.6,45.6c3.48,18.12,13.44,27.24,29.76,27.48,13.56.72,19.44-5,17.64-17.4a27.14,27.14,0,0,1-21,6.12c-6.12-.6-11-3.84-14.64-9.48A66.55,66.55,0,0,1,174,311.4q-9.36-47,12.48-89.76c5.16-10,13.2-14,24.24-12.24Zm6.24-62.52a197.41,197.41,0,0,0,26.64,50.4l-25.8-64.44L195.6,175.08,181,124.44A448.29,448.29,0,0,0,160,177a58.59,58.59,0,0,0-2.52,10.8A218,218,0,0,0,181,138.6l13.32,50.28a131.69,131.69,0,0,0,18.84-38.16Zm136.2,160.44q-14.58-62.1-25.2-124.92-10.62-63.18-19.2-125.88-1.08-.18-1.08.72a859,859,0,0,0,13.92,125.16q9.54,51.84,20.88,103.44l-1.56-.12a378.35,378.35,0,0,0-71.4,11.4L271.8,267q8.82-63.18,23.64-125.28A368.42,368.42,0,0,0,305.4,47q-7.92,44.1-17.64,89.88-13.14,63-21.84,126.72-8.64,63-18.12,125.76-9.54,63.54-23.28,125.28l.12-.84.48-9a5.07,5.07,0,0,0-1.44,3.24,64.75,64.75,0,0,1-1.68,8.64c-3.36,12.84-3.24,24.36.36,34.44a174.43,174.43,0,0,0,9.24-32.28q12.06-62.28,21.84-125.4l13.92-94.2.48.6q38-3.6,76-8.88l2.16,9.72,28.2,125q7.2,31.5,11.52,63.6a296.15,296.15,0,0,0,15.84,62.88c.6-.36.84-.84.72-1.2a1002,1002,0,0,0-21.12-125.4ZM366.6,148.8a17,17,0,0,1-13.44,3.6l-.48-16.2,10.44.48Zm-13.2-21.6c-5.52,12.84-7.8,26.88-6.84,42.24A139.27,139.27,0,0,0,349.08,189l3.72-27.72,10,1.68a46,46,0,0,0,21.48,25.56l2.4.6a67,67,0,0,0-19.32-28.56,29.83,29.83,0,0,0,2.16-22.2,25.51,25.51,0,0,0-6.6-11.4Zm22.8-67c-1.56,23.64-2.16,47.16-2,70.68q19.62,7.74,41.76,3.6a9.87,9.87,0,0,0,.72-10.56,78.12,78.12,0,0,1-38.88-3.6v-.72a328.68,328.68,0,0,0,1.32-64.2C377.28,56.28,376.32,57.84,376.2,60.24Zm166.2-.48c-1.8.12-2.88,1.2-3.36,3.12-6.48,23.4-12,47.28-16.56,71.4q-12.06,63.18-20.76,126.84c-4.8,35.16-7.92,70-9.24,104.64a456.84,456.84,0,0,0-3.72-53.88q-8.1-63.18-14.4-126.6c-3.72-37.56-7.08-75-9.84-112.32l1.08-18.84-1.8,7.68L463.44,58l-1,9.48c-3,13-5.52,26.4-7.68,40.2q-9.9,63.9-19.32,127.92c-6.12,42.12-11.16,84.24-14.88,126.6q-5.58,63.18-14,125.64a110.53,110.53,0,0,1-3.24,15.72c-2.76,9.72-1.68,17.4,3.36,23A760.15,760.15,0,0,0,419,434.16q4.5-63.9,12.24-127.56,7.56-63.54,19.44-126.36,7-37.8,11-75.36l.12,1.8q3.06,64.08,11.4,127.44,8.1,63.72,11.88,127.44a93.2,93.2,0,0,0,6.72,31.56l.36-7.08.72-.84q5.4-36.54,9.24-73.8,6.66-63.54,17.64-126.36,11-63.18,22.56-124.8a436.77,436.77,0,0,0,5,85.92c6.6,42.12,12,84.6,16.08,127.2l12.24,127.32A1140.7,1140.7,0,0,1,580.68,527c.12,9.12,1.92,17,5.4,23.64a791.49,791.49,0,0,0-1.32-110.52L574.32,312.72c-3.48-42.84-8-85.32-13.92-127.56s-11.76-84.6-17.88-126.48Z" transform="translate(-13.34 -38.12)"/></svg>