<svg id="Layer_1" data-name="Layer 1" xmlns="http://www.w3.org/2000/svg" viewBox="0 0 578.71 524.28"><defs><style>.cls-1{fill-rule:evenodd;}</style></defs><path class="cls-1" d="M170.52,404.88q9.18,64.26,22.68,126.48c2.28-.84,3.6-2.64,4.2-5.52a314,314,0,0,0,5.28-43.8q2.7-63.18,9-126,1.62-15.66,4.32-31.32c1.8-10.08,0-17.52-5.28-22.2-3.24,23.64-6,47.76-8,72.12q-5.22,63.18-9,126.48-6.66-36.54-12.84-73.2-10.62-63.36-16.92-126.72c-4,8.76-6.24,18.84-6.72,30.48a1131.7,1131.7,0,0,1-12,125.76,396.94,396.94,0,0,0-4.56,63.12,391.86,391.86,0,0,0,10.44-52.32q8.1-62.82,11.76-125.88C165,363.24,167.52,384.12,170.52,404.88Zm-46-331.32c-2.4-23.16-15.72-34.44-40.08-34.08a106.46,106.46,0,0,0-12.24,5.16,95,95,0,0,1-12.12,4.92Q31.32,76.2,36.6,116.64a141.68,141.68,0,0,0,22.32,60.12A424,424,0,0,1,93.6,241a418.47,418.47,0,0,1,32.64,121.8,259.47,259.47,0,0,1-13,115.92c-11.64,32.76-35.4,46.92-71.4,42.24a14.05,14.05,0,0,1-7.8-3.36c-10-9.24-15-21.48-15.12-36.48-.12-11-2.52-20.16-7.08-27.36a21.64,21.64,0,0,0-2.16,13l4.68,39.24c2.52,23.16,16.2,34.56,40.8,34.32,23.88-.12,41.28-10,52.44-29.4a214.26,214.26,0,0,0,28.44-95.4,313.61,313.61,0,0,0-8.52-93A590.46,590.46,0,0,0,87.24,208.2,121.63,121.63,0,0,0,72.36,184,135.88,135.88,0,0,1,43.2,104.4,43.8,43.8,0,0,1,54,73.2q22.14-26.1,54.72-15.6a31.19,31.19,0,0,1,10,15.36,18.53,18.53,0,0,0,3.6,6.84A6.86,6.86,0,0,0,124.56,73.56ZM316.92,204q7.74,45.72,16.08,91.44a510.12,510.12,0,0,0-72,10.44l6-41.28q9.18-63.54,19.56-126.6c3.24-20,7-39.84,11.16-59.52Q306.18,141.3,316.92,204ZM236.52,95.52c-1.32,28.92-12.72,52.08-34.32,69.72l2-50.16q1.08-27.18.72-53.28,15.3-4.86,26.64,9.36A50.2,50.2,0,0,1,236.52,95.52ZM202.68,62.76a509.91,509.91,0,0,0-6.84,86.64A846.76,846.76,0,0,1,190.68,245c-1.08,9.72.12,17.52,3.84,23.4a88.37,88.37,0,0,0,4.68-25.2l2.4-65.52a99.8,99.8,0,0,0,14.16-12.24,366.71,366.71,0,0,0,28.56,100,5.56,5.56,0,0,0,.72-3.84A685.21,685.21,0,0,0,217,164.16Q238,141.48,243,107.4q5.58-38-26.28-56.52a16.43,16.43,0,0,0-11.88,2.88V50.88l-.72,3.48a13.72,13.72,0,0,0-2.88,3l-.36,3.24a3.81,3.81,0,0,0,1,2.4Zm-23-10.32-18.36-1.32C149.76,59.4,142.32,71,139.08,86a432.07,432.07,0,0,0-10,112.08,140.9,140.9,0,0,0,13.32,55.32c5.16,10.8,12.24,12,21.36,3.72,13.32-12.12,20.76-26.16,22.32-42-3.72,4.56-7.32,9.36-10.68,14.4A77.42,77.42,0,0,1,156.84,249H151l-1.08-.36a12,12,0,0,1-5.28-7.44,284.9,284.9,0,0,1-8.88-101.4,216.5,216.5,0,0,1,14.4-60.24c6.12-15.48,18-20.64,35.76-15.48a9.41,9.41,0,0,0,.84-4,6.68,6.68,0,0,0-4-6L181,52.8A2.42,2.42,0,0,0,179.64,52.44Zm119.28-7.8c-2,1.2-3.12,3.24-3.24,6.24a58,58,0,0,0-4.8,16.56Q281.7,130.62,272,193.56T251.4,319.32L228.84,445.8C225,467,220.44,487.92,215,508.68c-3.24,12.48-2.16,22.8,3.24,31.08a109.52,109.52,0,0,0,6.84-23.4l22-125.88q6.48-37.08,12.36-74.28,37.62-1.26,76.32-5.76c6.6,37.56,12.84,75.36,18.72,113.16q9.9,63.72,22.44,125.88a1.88,1.88,0,0,0,2.52-1.56,77.32,77.32,0,0,0,.24-31.92q-9.18-47-16.92-94.08c-6.12-37.56-12.36-75-18.84-112.56l.72-.12.72-.84q4-7.2-.72-13.68l-3.36.24q-11-62.46-21.36-124.8L300.84,55.44a105.39,105.39,0,0,0-.48-12.36L299,44.88ZM486,80.88a26.67,26.67,0,0,0-10.44,5.88,106.73,106.73,0,0,0-31.8,48,318.23,318.23,0,0,0-15.36,85.68q-2.52,64.08-.12,127.56a1023.88,1023.88,0,0,0,13.2,128.88,108.74,108.74,0,0,0,10.44,31.8c4.44,8.64,11.76,13.32,21.72,13.92,19.56,1.08,35.4-6,47.28-21.36a186.5,186.5,0,0,0,34.56-71.88q-16.92,23.22-32.16,48.84-18,29.88-52.92,25.44a14.08,14.08,0,0,1-6.36-2.4c-9.24-6.72-14.76-16.32-16.68-28.68a1176.47,1176.47,0,0,1-12-128.4c-1.8-42.72-1.56-85.44.48-128.16a262.5,262.5,0,0,1,21.48-93q13.86-31.86,48.6-27.72a54.66,54.66,0,0,1,6,5.76,15.52,15.52,0,0,1,2.76,4.68l.48.6a4.1,4.1,0,0,0,1.68-3.72C516.48,85.2,506.28,78,486,80.88ZM466.44,32.52l-28.2,1.2A773.38,773.38,0,0,0,313.8,50.28a10.2,10.2,0,0,0-1.32,4.08,12.63,12.63,0,0,0,1.08,7.32,54.4,54.4,0,0,0,21.12-.12,656.22,656.22,0,0,1,67.8-10.32q-2,43.38-.6,86.88c1.44,43.08,3.12,86.16,4.92,129s2.88,85.8,2.88,129q0,64.44-2.4,129c-.48,12.24,1.44,22.8,5.64,31.68a125.2,125.2,0,0,0,4.56-36.48q-.9-64.62-1.08-129.12c0-43.08-.84-86.16-2.4-129l-3.72-95.88q-2.34-58.68-3.84-115.44c21.72-2,43.44-2.88,65.16-2.76A7.37,7.37,0,0,0,473.4,45a14.36,14.36,0,0,0-1.2-10.68l-1.68-.6ZM581.88,150.24a535.89,535.89,0,0,0-7.44,100.56l.36,19.92q-42.48,5.4-85.32,11.88l.12-5.28c.84-43.2,2.88-85.68,6.36-127.44-1.08-.12-1.68.24-1.92,1.2a378.77,378.77,0,0,0-10.2,85.2q-.54,64.26-4.56,128.28-2,32-6.48,63.72c-1.8,12.6,0,23.16,5.28,31.68a339.7,339.7,0,0,0,7-54.36Q488.1,350,489.36,294a766.87,766.87,0,0,0,85.56-7.32c.12,31.08-.12,62.16-1,93.24A1217.44,1217.44,0,0,0,577.44,509c1.08,12.24,4,22.68,8.88,31.32a7.62,7.62,0,0,0,1.8-6.36A724.68,724.68,0,0,1,581,405.6c1.32-42.24,1.8-84.6,1.2-127.08V276.6c-.6-43.32-.12-86.16,1.44-128.28A2,2,0,0,0,581.88,150.24Z" transform="translate(-9.52 -32.52)"/></svg>