<svg id="Layer_1" data-name="Layer 1" xmlns="http://www.w3.org/2000/svg" viewBox="0 0 482.56 529.83"><defs><style>.cls-1{fill-rule:evenodd;}</style></defs><path class="cls-1" d="M177.72,435.12c-1.8,1.32-2.76,3.36-2.88,6.36-1.08,17.16-2,34.32-2.76,51.24a304.69,304.69,0,0,1,30.24,4.92c1.8-4,1.2-7.2-1.8-9.84a53.31,53.31,0,0,1-25-6.48l.24-.84A147.82,147.82,0,0,0,177.72,435.12Zm-5.64-85.8c3.36,4.68,8.76,7.08,16.32,7l.84-.48a460.12,460.12,0,0,0-2.64,70,18.79,18.79,0,0,0,1.8,7.32l1.32,2a414.83,414.83,0,0,0,1.32-80l1.56-.36,1.8,1.68,12.84-1.92,2.28-5.16-2.88-3.72a97,97,0,0,1-34.32,2.16Zm-.36-99c12.36,2,19.2,10.08,20.64,24.12-4.92,9.12-12.36,13.92-22.08,14.4.36-12.36.48-24.72.24-37.08l.48-.6Zm-1.56-9.24-2.28,6.84c-2,15.48-3.72,30.84-5,46.2a91.92,91.92,0,0,0,4.32,38.76l2.88-36.6a20.07,20.07,0,0,0,18.24-7c6.24-7.08,7.92-15.36,5-25.08a32.53,32.53,0,0,0-12-17.28l-4.92-3.36-4.92.48-1.2,1.08Zm1.32-74.28a12.14,12.14,0,0,0-3.72-10.08L150.36,216l-20-59.88c-2.52,2.28-4.08,5.76-4.44,10.32Q123.54,196.5,123,224l8.4-55.2c1,5.64,2,11.4,3.36,17.28a170.76,170.76,0,0,0,13.44,38l3.6,7.2a486,486,0,0,1,17.76-56.28A25.92,25.92,0,0,0,171.48,166.8Zm-29-93.72q-12.06-40.14-56.88-39l-1.68.48c-12.12,1.32-21.12,7.2-27,17.52Q41,80.34,46.44,113.16a136.28,136.28,0,0,0,14.64,42.48q33.66,61.74,64.56,124.8c7.44,15,14.4,30.24,20.76,45.72a229.15,229.15,0,0,1,16.44,112.92q-5.4,51.66-41.64,88a21.89,21.89,0,0,1-8.64,5.4c-21.72,6.72-43.32,6-65-2.28C30.6,523.8,20.28,512.28,16.44,495.6a165.56,165.56,0,0,1-4.32-32.16C6,475.8,5,489.24,9.24,503.88a46.18,46.18,0,0,0,15.84,23.64q35.28,28.26,80.28,22.08a18.74,18.74,0,0,0,7.92-3,106,106,0,0,0,43.08-54Q179.22,431,166,366.36a221.24,221.24,0,0,0-13.8-43.8q-15.66-36.36-32.4-72.24a208.63,208.63,0,0,0-19.32-33.24q-34.74-48.6-46.92-105.6a82.1,82.1,0,0,1,1-37.8Q62.58,42.54,98,47.16q37.44,5,43.68,39.12A16.73,16.73,0,0,0,142.44,73.08Zm153.72,21,25.92,218.28L261.84,322,293,120.72ZM183,49.8q-19.08,42.48-36.12,86.64l-.24-1.44a199.92,199.92,0,0,0-14.4-41.16l-1.08,2.52a269.3,269.3,0,0,1-11.28,37.08l-.6-4.44a580.86,580.86,0,0,0-13.8-66.48,338.41,338.41,0,0,0,4.44,45.72,212.72,212.72,0,0,0,10,40.08l1-1.8c4.2-13.44,8.4-25.92,12.84-37.44l.12.84a134.37,134.37,0,0,0,13.32,38.4,145.39,145.39,0,0,0,17.64-38.16,124.84,124.84,0,0,1,9.6-22.92c6.72-12.6,9.6-25.08,8.76-37.44Zm113.88,9.36-.12-2c-5.52,27-10.32,54.72-14.28,83.4q-8.64,62.1-18.72,124.2Q253.32,328.08,242.4,391.2c-3.72,21.48-8.4,43-14.16,64.2-4.92,18.12-10.32,36.12-16.44,54-5.64,16.32-7.44,32.28-5.64,47.76.72-.36,1.2-.72,1.32-1.08,6.36-19.2,12.24-38.88,17.4-58.92q16-61.74,27.72-124.2l7.44-41,1.8-.12c20.76-2.76,41.4-5.16,61.8-7l2.52,20.76q7.92,63.72,17.52,127.32c3.24,21.24,6,42.48,8.52,63.6,1.08,9.48,4.08,16.8,9,22.2a2.15,2.15,0,0,0,.48-1.56q-6.3-60.66-16.56-121.8c-6.24-37.56-11.4-75.12-15.6-112.92a9.79,9.79,0,0,0,.12-5.88L329,315l-.36-.36-.6-5.88c-4.44-42.6-9.36-85-14.88-127.32s-10.56-84.6-15.36-126.72Zm192,28q-11.88-28.26-44-26.28C424.08,67.92,409.2,81.72,400,102.36a332.22,332.22,0,0,0-26.28,96.12c-5,42.6-8.88,85.32-11.64,128.4a756.27,756.27,0,0,0,2.52,127.68,189,189,0,0,0,17.52,62.64q17.28,36.72,55.44,19.68A102,102,0,0,0,481,501.12c-.24,13.8-.84,27.6-1.92,41.52q-1.26,14.76,7.2,21.24a69.65,69.65,0,0,0,2.4-19.44c-.24-18-.84-35.88-1.8-53.76,3.24-8,2.88-15.36-1.32-22L483.84,447l-.84-.36a94.32,94.32,0,0,1-29.52-2.88v.12a1.55,1.55,0,0,0-1.44,1.44,11.3,11.3,0,0,0,.12,4.92A4.7,4.7,0,0,0,455,453a59.82,59.82,0,0,0,25.2,4.56l.48,10.2a6.46,6.46,0,0,0-.6,3.36,16.81,16.81,0,0,0,.72,3.36l.12,4.44q-14.22,31-45.48,45.12A35,35,0,0,1,410.64,526c-17.64-4.92-28.44-17-32.28-36.12a613.84,613.84,0,0,1-12-128.28c.12-16.2.72-32.16,1.56-48q3.42-63.54,12-126.12A253.43,253.43,0,0,1,405,107.52q20.52-40.32,64.2-31a47.87,47.87,0,0,1,14.16,11.76c1.92,2.4,3.6,3.84,5,4.44l.48-2.4.24-1.56.12-.84Z" transform="translate(-6.68 -34.05)"/></svg>