<svg id="Layer_1" data-name="Layer 1" xmlns="http://www.w3.org/2000/svg" xmlns:xlink="http://www.w3.org/1999/xlink" viewBox="0 0 601.2 848.8"><defs><style>.cls-1,.cls-3{fill:none;}.cls-2{fill:#fff;}.cls-3{stroke:#fff;stroke-linecap:round;stroke-linejoin:round;stroke-width:0.38px;}.cls-4{clip-path:url(#clip-path);}.cls-5{fill-rule:evenodd;}</style><clipPath id="clip-path" transform="translate(1.92 6.81)"><rect class="cls-1" width="595.32" height="600.84"/></clipPath></defs><rect class="cls-2" x="2.04" y="6.93" width="595.08" height="841.68"/><rect class="cls-3" x="1.92" y="6.81" width="595.2" height="841.8"/><g class="cls-4"><path class="cls-5" d="M427.56,522.84a3.41,3.41,0,0,1-1.68,1.08,41.17,41.17,0,0,0-5.64-8.64c-3.48-4-6.6-6-9.36-6-10.2,0-17.52,9-22.08,27a127.25,127.25,0,0,0-3.72,27.6c0,12.36,3.72,20,11,22.8,10.44-1.44,17.4-4.08,20.88-8a49.75,49.75,0,0,0,3.36-5,16.28,16.28,0,0,1,4-4.8,6.62,6.62,0,0,1,3,5.28q0,2.88-7.56,12.6c-5.4,7.08-9.72,10.56-12.72,10.56L394.56,597c-6.72-4.44-10.8-10-12.36-16.56-.6-2.28-1-8-1-17,0-17,2.4-31,7.32-41.88,4.08-9.12,9.36-15.24,16-18.36,5.88-2.76,11.16-2.52,16.08.48s7.2,7.68,7.2,14.28Zm23-87.72c0,1.8-3.6,11.28-10.68,28.44l-16.44,39.72h-1.32q-2.52-12.06-4.68-29.52l-3.24-30.48-.24-.6a269.14,269.14,0,0,1-9.72,29.64,136,136,0,0,1-16.2,29.4l-.36-.72a7.5,7.5,0,0,1-.24-2.16,12.66,12.66,0,0,1,0-3.12c.12-.72.84-1.08,1.92-1.08,2.76,0,6.72-8.64,12.12-25.8,6.36-20.88,11.16-34,14.4-39.12l3.84,30.72L423.48,492c4.56-13.2,8.16-23.28,10.68-30.36,4.68-12.84,9.36-22.8,13.92-30C449.76,433.2,450.6,434.4,450.6,435.12Zm38.88,22.68.36,2.76c0,3.6-7.56,16-22.56,37.08l-10.44,14.52a49.43,49.43,0,0,1,4.92,15.24l1.8,11.64a75.36,75.36,0,0,0,2.4,10.8c1.2,5.28,4,14.16,8.28,26.76l6.12,17.52a10.8,10.8,0,0,1-.36,3l-1.32,2.28c-5.76-8.64-11.88-25.44-18.36-50.28-3.84-14.4-6.36-25-7.56-31.56l-10.2,13.8c-2.28,31.92-3.48,53.28-3.6,64l-.6.48-1.08.84a16.5,16.5,0,0,1-1.68-7c-.12-1.08-.24-3.48-.24-7,0-9.6.48-20.64,1.56-33.24l2.76-32.88,1.08-16.44q.54-10.26,1.44-16.92l1.44-16.2a78.88,78.88,0,0,1,2.64-15.72c.84,2.16,1.32,5.4,1.32,9.84l-4.2,58.32-.12,2.4,8-10.92.6-.6.36-2.28.72-1.2,1,1,12-15.36c1.8-2.52,5.4-8.76,10.8-18.48,4.68-8.4,8.52-14.52,11.64-18.36A6,6,0,0,1,489.48,457.8Zm-349.8,124c-.48-.24-.84-.48-1-.84l-.12-2.52a12.23,12.23,0,0,1,2.4-7.92,39.21,39.21,0,0,0,5.64-8.4c1.44.6,2.64,2.28,3.48,4.92a23.88,23.88,0,0,0,4.08,8l4-7.2c2.16-3.6,4-5.64,5.52-6.12l.84,1a8.56,8.56,0,0,1,.24,2.28c0,1.68-1.44,5.16-4.44,10.44L155,584.52a18,18,0,0,1-4.56-5.64c-1.8-2.88-2.88-5.28-3-7.32l-.6-.6a17.83,17.83,0,0,1-2.64,6.12A32,32,0,0,1,139.68,581.76Zm3.6-19.92-14.52,1.32-2.16-.36a48.22,48.22,0,0,1-.24-5.28c0-3.84,1.32-10,4.08-18.24h.84c.48,1.56.48,4-.12,7.44-.6,4.44-1,7.2-1,8,7,0,11.52.72,13.68,2a3.07,3.07,0,0,1,1.44,2.76l-.24,1.56A2.53,2.53,0,0,1,143.28,561.84Zm5-40.08a3.53,3.53,0,0,1,2.16,3,5.41,5.41,0,0,1-1.08,3.72v5.4l5.88-7.2c3-3.72,5.4-6,7.32-7.08.72,1.56,2.76,5.52,6.24,11.64,3,6,4.56,10.32,4.56,13A8.06,8.06,0,0,1,173,547l-1,1.32a35.22,35.22,0,0,1-6.36-8.88,30.68,30.68,0,0,1-3.84-10.92,26.31,26.31,0,0,0-6.72,6.36,40.51,40.51,0,0,1-6.84,7.2c-.72-2-1.08-5.4-1.08-10.32a49.14,49.14,0,0,0-5.52,5.16,28.55,28.55,0,0,1-7,5.64l-.36-.84a9,9,0,0,1-.24-2.4c0-.84,2.16-3.6,6.36-8.52ZM158.88,459v5.64l7-.24a8.13,8.13,0,0,0-2.4-3A7.12,7.12,0,0,0,158.88,459Zm-1.68-9.84c1.56,4.92,4.08,8.28,7.44,10.32a18.68,18.68,0,0,1,3,1.92,4.85,4.85,0,0,1,1.2,3.6,4.76,4.76,0,0,1-.48,2.4,8.76,8.76,0,0,1-2.76,2.88l-7.8.6A33,33,0,0,1,155,483h-.48L152,474.12a42.94,42.94,0,0,1-1.32-10.8l1.2.12,2.88.12a36.09,36.09,0,0,0,1.2-7.08l.36-7.32Zm31.08,29.16a4.58,4.58,0,0,1,.36,2.28,4.91,4.91,0,0,1-.36,2.28l-.72,1-12.12,1.08.24,4.92c0,3.36-.84,9.84-2.4,19.32l-3.12,16.08a4.27,4.27,0,0,1-1.68-1.56,5.12,5.12,0,0,1-.72-2.88c0-.6,1-5.52,2.76-14.64,1.8-8.64,2.52-14.76,2.16-18.48a1.15,1.15,0,0,1-1.08.72l-.24-2.4a33,33,0,0,1-6.84,1.32l-3-2a1.91,1.91,0,0,1-.48-1.44,10.58,10.58,0,0,1,.24-2.64,4.06,4.06,0,0,1,2.76-1.68c2.76-.84,10.68-1.56,23.52-2.16Zm.6-171.6-6.72,1.44v2.64q0,2.16-1.44,11.88l.24.12a10.29,10.29,0,0,0,4.08,1.44c7.08,0,12.36-1.8,16-5.52q3.6-3.42,3.6-6.48c0-.48-1.2-1.68-3.48-3.72s-3.72-3-4.08-3Zm-14.4,94.92a191.4,191.4,0,0,1-2,23.64,225.76,225.76,0,0,0-2.52,23.16l16.44.84c3.72.48,5.52,2,5.52,4.56,0,1.8-.12,2.52-.24,2.4l-12.48.84-6.12-.24a52.29,52.29,0,0,0-5.76-.12c-.6-1.08-.84-3.24-.84-6.48q0-5.58,2.88-32.4l3-28h1.08A61.2,61.2,0,0,1,174.48,401.64Zm-16.2-40.8c0,8.52-.12,15.84-.48,22.2l4.32-1.8q6.48-2.7,6.48-10.8,0-12.06-7.92-16.92L158,352.2v.48C158.16,353.76,158.28,356.4,158.28,360.84Zm-4.2-16.56c6.84-4.44,12-1.2,15.24,10l1.32,4.8,2.76-18.84c.72-4.8,1.44-9.24,2.16-13.2a5.31,5.31,0,0,1-1.32-3.6l.36-1.32c.24-.36,1-.6,2-.6a148.1,148.1,0,0,1,4.44-18.36l.12.24a5.57,5.57,0,0,1,3.72-2.88c2.52-1,5.52-1,9-.12a18.39,18.39,0,0,1,9,4.92,13.4,13.4,0,0,1,4.08,10c0,1.56-1.32,4.56-4.08,9-3,4.8-5.76,7.2-8,7.2l-6.12-.12a88.93,88.93,0,0,1,5.64,15.36l5,19.68.48-1.32h.6l.72,3.36.36,3.48-.36,2.52-.72,1.2q-4.14-5.4-10.08-24.84c-3.36-10.92-5.16-17.52-5.28-19.92l-5.4-1.2L179,334c-2,13.32-3.12,21.24-3.12,23.52,0,1.08-1.2,5.4-3.6,13.2v4.92a17,17,0,0,1-3,9c-2.52,4-5.52,5.76-9.12,5.64l-2.76-1.44c-.6,5.64-.84,14-1,25.2-1.56.12-2.88,1.2-4,3.36l-.72,1.8c.36-6.6.84-14.88,1.68-25q2.16-29,2.16-33.12l-3.24-13.8a5.17,5.17,0,0,1,.36-2.4c.12-.36.6-.6,1.2-.72Zm1.8-81.48,9.72-.6v-.48L180,262l.72,1a4.58,4.58,0,0,1,.36,2.28,4.91,4.91,0,0,1-.36,2.28l-.72,1-7.44.48-8,.84-4.56.36-5.16.72-4.08.24v3.36q0,5.4-5,38.52c-3.48,23.16-5.4,35.76-5.52,37.8l-1.08.24c-.6-2.16-.84-6-.84-11.4,0-8.28,1.32-21.84,4.08-40.56,1.92-13.32,3.6-22.56,5.16-27.84H147l-8.4.72-5.16.36-5.76.72h-4.8l-.24-.84a7,7,0,0,1-.36-2.52l.12-2.28c.12-.6.6-1,1.44-1.32l15.84-2.16ZM127.44,33.6q-1.26-2-6.48-6.12a138.33,138.33,0,0,0-13-9.36C95,10.08,83.76,6,74.16,6Q43.74,6,30.36,35.16A80.51,80.51,0,0,0,23,65.64c0,10.08,5.4,27.12,16.32,51.24,9.36,20.64,17.16,35.4,23.4,44.16,9,12.72,17.4,28.32,25.2,46.68,4.44,10.44,10.8,26.16,19.2,47.4q7.38,17.1,14.4,46.8c6.24,26.16,10.2,42,11.88,47.4q10.44,34,13,49.68c1.8,10.44,2.76,25.32,2.76,44.52,0,18.36-.48,31-1.32,37.92-1.8,14.76-5.88,27.84-12.48,39.24-2.64,4.44-6.12,10.8-10.56,19.08a91.66,91.66,0,0,1-14.16,19.08c-5.88,6-15.6,13.08-29.16,21.12C67.44,588.24,58,592.32,53,592.32c-18.36,0-33-7.92-43.8-23.76A75.94,75.94,0,0,1,.6,551.16c-1.68-4.8-2.52-8.16-2.52-10.2,0-1.8,1.08-5.88,3.12-12.36,2.28-7.2,4.44-11.76,6.36-13.68a16.75,16.75,0,0,1,2,4.56,20.92,20.92,0,0,1,1,4,14.42,14.42,0,0,1-2.88,9,15.72,15.72,0,0,0-2.76,9.36c0,1.56,1,4.2,3,7.8a59.65,59.65,0,0,0,8.64,11.64q14.22,15.12,31.32,15.12,32.58,0,59-30.24a148.16,148.16,0,0,0,15.84-21.84l6.84-12a82,82,0,0,0,12.84-34.56,127.49,127.49,0,0,0,.84-16.44L143.16,444c0-22.44-5.64-55.8-16.8-100.32Q111.24,283.74,98.28,254q-12.6-28.62-29.76-62.28L43,141.84c-8.28-16.68-14.28-30.24-18-40.92Q18.12,81.3,18.12,65.28q0-38,18.12-57C46.68-2.52,60-7.56,76.2-6.72A65.44,65.44,0,0,1,116,9.24c12.12,10.32,18.12,22.32,18.12,36l-.24,10.2a31,31,0,0,1-4.08,11.16,15.19,15.19,0,0,1-1.44-7.68c.12-1.44.36-4.2,1-8.4C130.56,43,130,37.32,127.44,33.6ZM144,50.52v9.6l2.16-.6c9.6.12,15.84,1,18.84,2.64a4,4,0,0,1,1.68,3.48,8.81,8.81,0,0,1-.24,2.88l-.36.24-.48.48L141.24,66.6c-1.32-6.36-2-10.8-1.92-13.32a81.75,81.75,0,0,0,.6-9.84,10.45,10.45,0,0,1,.12-2.28l.12-.24h1.92A19,19,0,0,1,144,50.52Zm83.28,85.92a4.35,4.35,0,0,0-3-4.32c-2.76-1.2-7.8-1.56-14.88-1a20.9,20.9,0,0,1,.6,4.44,55.86,55.86,0,0,1-.72,7.32c6-.12,10.68-1,13.92-2.52C226,139.2,227.28,137.88,227.28,136.44ZM229,129.6c.36,1,.48,3.12.48,6.48a14.34,14.34,0,0,1-1.92,7.44c-2.16,3.72-5.88,5.64-11,5.64H216c2.28,2.76,5.4,6.84,9.12,12q9,12.24,9,13.32,0,2.7-.36,2.52l-.36.24-.72.6c-2.52-2.16-6.72-7.44-12.84-16A130.18,130.18,0,0,1,211.32,149l-3.12-.24L206,158.64c-2.4,10.92-4,17.28-4.68,18.84l-1.08-1.8a7.6,7.6,0,0,1-.36-2.76c0-4.92,1.08-13.08,3.36-24.36l.12-1.08-.12-.72.24-1.56a14.6,14.6,0,0,1,.12-2.52l.12-.36.6.12c1.08-4.68,1.92-8.64,2.76-11.64l-.12-2a2.61,2.61,0,0,1,.24-1.56A3.53,3.53,0,0,1,210,125c7.2,0,10.8-.12,10.8-.24C225.12,124.8,227.88,126.36,229,129.6ZM213.48,85.8H213l-.48-.48-.12-1.92q0-.72,4-10.08c2.64-6.36,4.32-10,5-11a121.73,121.73,0,0,1,5.88,11.16c3,5.4,6,9.6,9.24,12.6l11.64-14.4a142.14,142.14,0,0,1,10.8-13l.6,1.08.24,2.64c0,1.8-3.6,7.32-10.8,16.32l-11.64,14c-2.76-1.92-5.52-5.4-8.52-10.44-3.84-6.6-6.36-10.56-7.44-12a69.74,69.74,0,0,1-3.36,8A41.72,41.72,0,0,1,213.48,85.8Zm-19.8-1.32a5.17,5.17,0,0,1,.36,2.4,2.88,2.88,0,0,1-1.68,2.64c-2.64,1.08-8.64,1.92-18.12,2.52h-.48l.12,1.32.36,8.76a210.42,210.42,0,0,1-1.92,25.8l-2.16,14.76-.6,6.36-.72,7.68a43.9,43.9,0,0,1,7.32,3.24C182,163.44,185,167,185,170.52a9.84,9.84,0,0,1-.12,2.28l-.6,1a63.09,63.09,0,0,0-8.88-7c-6.36-4.2-12-6.36-17.16-6.36-10,0-17.52,6-22.92,18.12A72.19,72.19,0,0,0,131,191.88a36.19,36.19,0,0,0-1.2,7.8,52.78,52.78,0,0,0,1.68,10.44,80.26,80.26,0,0,0,6,17.16c7.32,15.48,17.76,23.28,31.08,23.28,11.16,0,19.92-2,26.28-6,4.92-3.24,7.68-6.84,8-11a5.54,5.54,0,0,1,2.88,3.36l.12,4.08c0,.48-.72,1.56-2.16,3.36a38.28,38.28,0,0,1-5.88,5.76c-6.36,5.16-12.36,7.8-18.24,7.8-20.52,0-35.28-7.8-44.28-23.52a60,60,0,0,1-6.6-17.16,50.54,50.54,0,0,1-1.32-10.08c0-17.64,3-31,9-39.84,4.92-7.32,11.52-11.4,19.8-12l9.12.48v-1l2.88-25C169.8,114.6,170.76,102,171,91.92l-18-.84-12-1.56a7.77,7.77,0,0,1-.24-2.76,14.6,14.6,0,0,1,.12-2.52l.12-.36,1.2-.12.72-.36,50,.24ZM289.32,3.84q14.22,29.88,19.08,73.44c1.08,8.76,2,21.12,3.12,37.08q1.62,25.38,2.88,36.36,2.34,21.42,14,73.44,10.8,48.06,12.24,73.56,1.8,31.14,6,73.44l7.8,73.44,4,36.36,3.6,36.72c.84,8.28,3.24,22.56,7.2,43.08l5.76,30a11.39,11.39,0,0,1-2.64,7.8q-11.88-30.78-16.8-73.92c-1.08-8.64-2.16-20.88-3.36-36.84-1.32-16.68-2.28-28.92-3.12-36.48q-5.4-48.42-7.8-73.32c-2.88-28.68-4.8-53.28-5.76-73.56a363.62,363.62,0,0,0-4.2-39c-1.56,1.32-4.32,2.52-8,3.36a322,322,0,0,0-32.64,6.36L255.48,285c-13.56,4-21.6,6-23.88,6.36l-3,17.16L216.48,381.6c-4.92,29.28-9.12,53.64-12.84,73Q188,538.08,169.44,600.72a10.54,10.54,0,0,1-3.36-4.56,15,15,0,0,1-1-4.32c0-2.76,4.56-24,13.8-64l9.72-42.48.24-.72a23.12,23.12,0,0,0,1.68-7.68c3.48-16.08,5.88-27.36,7-33.72L210,369.6c5.16-30.48,9.6-55.2,13.56-74.16q34.38-169,64.68-294.6L289.08,4Zm.24,16.68-12.24,47q-14.94,57.6-21.84,94.8l-13.68,73-7.8,43.2L246.6,274c13.92-4.92,25.92-9,35.88-12q36-10.8,46.8-8.28l-4.56-22.92-8.28-37.32c-3.24-14.76-5.64-27-7.44-36.72-1.56-8.4-2.4-20.76-2.52-37-.24-17.64-.84-29.88-1.8-37-1.08-9-4.44-23.52-10.08-43.68Zm63.72,235.8h0c2.4-1.56,7.44-2,15-1.44l2.16,1.68a2.56,2.56,0,0,1,.84,1.92l-.24,2.28-.36.6-8.16.24-8.28.72.36,1.56.48,3.24h1.08l2-.36h14.4l.6.6a4.61,4.61,0,0,1,.24,1.92,4.91,4.91,0,0,1-.36,2.28l-.72,1h-16.2l-1-.72-.48,5.4-.72,8.52-1.08,1.44-1.92-1a4.29,4.29,0,0,1-.6-2.52l.72-11.16.24-3.84-.6-2.28a13.55,13.55,0,0,1-1.2-4.44,8.56,8.56,0,0,1,.24-2.28l.12-.12,1.92-.24v-.72a11.67,11.67,0,0,1,.48-2.88h.84Zm48.36-36.12a27.61,27.61,0,0,0-10.92-1,104.11,104.11,0,0,1-2.16,11c7.8-.24,13-1.08,15.48-2.4,1.32-.6,1.92-1.92,1.92-3.72S404.52,221.16,401.64,220.2ZM525.24,299a20.39,20.39,0,0,1,1.08,6.48,19.71,19.71,0,0,1-.48,4.8l11-.48v-.6l8.52.24,1.8-9.12h.72A47.7,47.7,0,0,1,549,309.6h2l.72.84a5.17,5.17,0,0,1,.36,2.4,4.91,4.91,0,0,1-.36,2.28l-.72,1-2.16.12-.6,4.08-1.44,8.52-.48.48-.84.84c-.84-1.08-1.32-3.24-1.32-6.24,0-2.28.12-4.8.36-7.32h-.36l-7.32.84h-8.64l-5.4-.36A49.34,49.34,0,0,0,518.52,328a2.29,2.29,0,0,1-1.08-1.08,6.47,6.47,0,0,1-.36-2.64c0-1.92,1.2-6.36,3.48-13.44L524.4,299ZM473,287l-4.32.36a3.36,3.36,0,0,1-3.48-2.16,7,7,0,0,1-.36-2.52c0-2.28.36-3.6,1.2-4.2,1.32-.84,4.68-1.68,10.2-2.28l28,.12.72-3.84a7.1,7.1,0,0,1,2.52,4l29.64.12,1.32,2a8.06,8.06,0,0,1,.36,2.76,8.37,8.37,0,0,1-.36,2.88l-1.32,2-28.56.12-.12,3.48L508.2,305l-4.08,21v91l-1.68,19.8-1.8,21.6-.6.48-1.08.84a16,16,0,0,1-1.32-5.28,42.57,42.57,0,0,1-.6-5.76c0-15.24,1.08-28,3.36-38.16V322q.9-5.94,1.8-24.84l.72-10.68-26.64.12Zm-5.76-49.92c.36.36.6,1.32.6,2.88l-.24,2.4-1.08,1.44-13.2-1.44-12.24-.48.48,4.56-.12,7.68,5.16.12,15.6.6,2.52,2a2.69,2.69,0,0,1,1,1.8,4.91,4.91,0,0,1-.36,2.28l-.72,1H453l-1.08-.84-10.8-1.32a129.42,129.42,0,0,1-5.76,28.08H434a43.1,43.1,0,0,1-.24-4.8q0-3.78,2.88-20.16l.72-4.68-1.2-.84.24-3.36h1.8l1.2-7.2a9.54,9.54,0,0,0-1.08-3.6,9.54,9.54,0,0,1-1.08-3.6,7.33,7.33,0,0,1,1-3.6c.6-1,1.08-1.56,1.44-1.68l.24,1,.6-.48a170,170,0,0,0,23.4,1.68A6.26,6.26,0,0,1,467.28,237.12Zm-69-24.12a14.2,14.2,0,0,1,6.72,3.72,9.85,9.85,0,0,1,3.12,7.08,19.9,19.9,0,0,1-1.32,7.32c-1.56,3.84-4.32,5.76-8,5.88l6.84,9.84c6.12,8.88,9.24,13.8,9.24,14.88,0,1.8-.12,2.52-.24,2.4l-1.08,1.32c-2-1.68-5.76-7-11.28-15.72-3.72-6-6.24-10.2-7.44-12.72l-7.68-.12-1.32,4.8c-3.36,13.56-5.88,21.48-7.44,23.52l-.6-1.2-.24-2.52c0-3.24,1.68-11.16,4.92-23.88l.36-1.32-1.2-.84a4.47,4.47,0,0,1-.6-2.64,12.44,12.44,0,0,1,.12-2.4l.12-.36.48.12,2.52.12h.12c1.68-5.88,3.12-10.44,4.2-13.44v-.36a3.68,3.68,0,0,1,3-3.72ZM356.4,193h1.08a18.25,18.25,0,0,1,2.16,8.88,23,23,0,0,1-1.08,8.64l11.64-.72,8.88.24.84,1.08a12.73,12.73,0,0,1,.24,2.52l-.24,3.72-2.16-.12-7.56.6-6.84.36-7.8.48a8.37,8.37,0,0,1-.72-2l-.12-2.88L356.16,196v-2Zm32.76-17.64c.6.84,4.44,4.08,11.28,9.48,6.6,5.52,9.84,9.12,9.84,10.8s-.12,2.64-.36,2.52l-.48.72c-3-1.2-7.32-4.2-12.84-9s-8.52-8.16-9.12-10.2c-1.68.84-4.8,3.36-9.36,7.8-4.2,4-6.84,6-7.92,6s-2.88-1.92-5.16-5.64a59.76,59.76,0,0,1-3.48-6.72,102.2,102.2,0,0,0-10.2,9.36,39.61,39.61,0,0,1-11.52,7.92,2.43,2.43,0,0,1-1.56-1.2l-1.08-2.28c10.92-9.24,19.08-15.84,24.6-20a28.46,28.46,0,0,1,4.44,5.76L369.6,187a15.47,15.47,0,0,0,5.52-3.6l4.56-4.8C383.16,174.84,386.4,173.76,389.16,175.32Zm-26.52-79.8a102,102,0,0,0-10.8,7.44l-10.32,8-.36-.72a7.5,7.5,0,0,1-.24-2.16c0-1.44,3.48-5.16,10.56-11.16,6.6-5.64,10.44-8.64,11.4-9a95.49,95.49,0,0,1,5.4,8.76l5.16,9.12c2.28-1.32,6.48-4.8,12.6-10.2,5-4.44,9.6-7.32,13.68-8.76l9.6,11.4c3.48,4.44,6.84,7.32,9.84,8.64l.48,1.32L420,111l-.24,2.28-.84,1.44a46.79,46.79,0,0,1-10.92-10Q401.7,97,398.64,93.6l-12.72,9.6c-6,4.44-9.84,7.92-11.4,10.44a57,57,0,0,1-6.6-8.28A47.42,47.42,0,0,1,362.64,95.52Zm79.08-52.08c.36,5.88.48,14,.48,24.48l-.6,12.84L440.28,99.6v30.48l.24-.24a8.6,8.6,0,0,1,4.8,2.16,6.07,6.07,0,0,0,3.84,1.92c18.12,0,31-6.24,38.52-18.6A40.83,40.83,0,0,0,493.8,94.2a67.74,67.74,0,0,0-2.4-15.84A86.58,86.58,0,0,0,482.76,57c-10.2-17.52-24.36-26.4-42.24-26.64Zm9.6-22.32c15.72,3.72,28,14.52,36.6,32.52a94.36,94.36,0,0,1,9.72,41,47.75,47.75,0,0,1-1.56,9.72,96.06,96.06,0,0,1-5.16,17.16c-6.6,15.72-15.36,23.52-26.52,23.52l-16.8-.36a41.08,41.08,0,0,0-7.32-5.64v5.16c-1.92,10.32-3.24,27-3.84,49.92-.48,21.6-2,38.28-4.8,49.92l-1.44.24a23.82,23.82,0,0,1-1.32-8.88c0-9,1.08-26,3.24-51.36,2-23.76,3.48-38.28,4.32-43.68V95.76c.6-4.08,1.08-9.48,1.56-16.32l.6-11.64q0-7-1.44-21.6c-1-9.72-1.44-16.56-1.44-20.28a10.21,10.21,0,0,1,1.32-3.6A26.14,26.14,0,0,1,438.6,20l.72,3.12a2.85,2.85,0,0,1,1.2-1.8C447.72,21.36,451.32,21.24,451.32,21.12Zm142.2,54.6a8,8,0,0,1-1.2,2.76l-2.28,3c-1.32-1.08-3.48-4.2-6.36-9.24-3.84-6.72-6.72-11.52-8.76-14.4C566,45,555.72,38.64,544,38.64c-12.24,0-21.24,6.48-27.12,19.56a64.44,64.44,0,0,0-5.16,20.64q0,13.5,12.6,47.88l13,34.8c5.64,15.48,10.68,29.76,14.88,42.84q40.32,125.28,40.32,263.4a284,284,0,0,1-2.52,35.88,268.93,268.93,0,0,1-8.28,41.64c-9.48,32.64-22.68,49-39.36,49-12.48,0-21.72-1.68-27.6-5a77.47,77.47,0,0,1-10.56-7.68c-7.08-5.76-12.24-9.84-15.36-12.12-6-4.44-9.48-8.76-10.56-13a20.64,20.64,0,0,1-.48-5.76l.12-6.12c0-5.88.36-10.2,1.08-13.08,1.2-5.28,3.72-9.12,7.68-11.64q1.8,1.62,3.24,6.84a14.73,14.73,0,0,1-3.24,9.84,12.38,12.38,0,0,0-3.36,8.52c0,1.44,5.76,7.32,17.4,17.76,11.76,10.68,18.84,16,21.36,16q39.24,0,55.32-45.36Q587,505.86,587,467.16q0-40.32-7.68-102.48-5.94-49.14-13.92-91.92A443.86,443.86,0,0,0,550,214.92c-4.2-12.84-10.8-30.72-19.56-53.88q-12.6-32.94-16.92-46.44c-4.8-15-7.2-26.88-7.2-35.52a70.22,70.22,0,0,1,1.32-10.92,104.64,104.64,0,0,1,4.92-17.88c6.24-16,15.24-24,27.12-24q22,0,39.6,21.6A84.77,84.77,0,0,1,589.8,64.56C592.32,69.72,593.52,73.44,593.52,75.72Zm-8-58.2c9.24,4.8,13.8,9.24,13.8,13.32l-.36,4.08-.6.48-1,.84c-2.28-5.16-16.32-11.88-42.24-20.16l-2.28.48c-26.52,4.92-42.84,8.16-49,10l-.6-1.8L503,22.08c0-1.56,4.44-3.84,13.32-6.72,5.52-1.8,11.88-3.48,19-5.28L524.16,6.6c-8.28-2.76-12.48-4.68-12.48-5.76,0-2.28,4.56-2.76,13.68-1.68a189.93,189.93,0,0,1,30.12,6.6c7.32-1.32,13.8-2.28,19.32-2.88,8.88-.84,13.32-.24,13.32,1.56,0,2.16-4.92,4.68-14.88,7.44A97.63,97.63,0,0,1,585.48,17.52Z" transform="translate(1.92 6.81)"/></g></svg>