<svg id="Layer_1" data-name="Layer 1" xmlns="http://www.w3.org/2000/svg" xmlns:xlink="http://www.w3.org/1999/xlink" viewBox="0 0 588.84 606.53"><defs><style>.cls-1{fill:none;}.cls-2{clip-path:url(#clip-path);}.cls-3{fill-rule:evenodd;}</style><clipPath id="clip-path" transform="translate(-4.92 6.05)"><rect class="cls-1" x="4.92" width="588.96" height="600.6"/></clipPath></defs><g class="cls-2"><path class="cls-3" d="M429.12,554.76l.6-.84c3.48,2.88,6,7.32,7.32,13.44,1.8,7.68,3.12,12.36,4.08,13.92l.48.24,7-14.52c3.24-6.84,5.52-11.4,7.08-13.56l1.68.36c.36.36.48,1.08.48,2.28,0,.36-2.16,5.16-6.36,14.28l-9.6,20H440l-4.32-17a72.06,72.06,0,0,0-6.84-17Zm2.52-18.12a50,50,0,0,1-4.44,9L421.56,555l-.72.24-.6-.24v-1.8c0-3,1.56-7.32,4.8-12.84l6.36-11.28c1.8,1.68,3.24,4.68,4.2,9l2.52,11.28c2.88-4.92,5.28-8.88,7.32-11.88,3.72-5.64,7.56-9.36,11.64-11.16l6.6,13.92c3.36,7.32,5,11.64,5,12.84l-.24,2.52,5.4.48.12.36.12,2.52a7.77,7.77,0,0,1-.24,2.76c-5.52-1.08-9.6.12-12.12,3.6l-1,1.32a47.34,47.34,0,0,1,10.32,1.08l.6.48a4.61,4.61,0,0,1,.24,1.92,5.17,5.17,0,0,1-.36,2.4l-.72.84-9.6-.6H459V574q0,4.32,2.52,5.4c2.52,1.08,7.8,1.08,16.08,0l.6,2c-1.2,2.76-2,4.2-2.64,4.56-.84.48-3.24.72-7.44.72-6.36,0-10.08-1.92-11.28-5.64a11.7,11.7,0,0,1-.36-4.2l.24-2.4v-1.68l-.72.12c-.24.12-.36-.84-.36-2.64a3,3,0,0,1,1.32-2.52,24.66,24.66,0,0,1,1-5.28,10.11,10.11,0,0,1,9-6.84,29.57,29.57,0,0,1-6.12-10,103.93,103.93,0,0,0-5.16-12.24c-2.76,2.28-5.76,6.24-9.24,11.88-3.84,6.6-6.72,10.92-8.52,13a30.91,30.91,0,0,1-4.2-10.56ZM409,529.44a7.88,7.88,0,0,1,.24,2.28,192.15,192.15,0,0,1-4.08,41.4v7.32l3.24.48,3.72.84,10.08.84,7.32.84.48,3.24-.24,1.56-.84,1.68H402.12a9.14,9.14,0,0,1-.72-2.4l-.12-3.24c-.12-7.44.12-15.12.6-23.16,1.08-15.84,3.24-26.76,6.48-32.64ZM428.64,497l.72,1.08a7.3,7.3,0,0,1,.36,2.64c0,1.56-1.92,6.48-5.88,14.52L417,528.72c-1.92-2.16-3.48-5.64-4.8-10.44a68.49,68.49,0,0,1-1.92-11.4l-1.08-1.44-4.8,11.16-5,11.4-1.8-.36q-.36-.18-.36-2.88c0-2,1.2-6.24,3.72-12.6,3-7.8,6.12-12.72,9.6-14.76l2.76,10.08c1.08,4.32,1.92,8,2.4,11l.6.36.48.72,5.52-11.16A115.8,115.8,0,0,1,428.64,497Zm30.6-.48,1.2,3.48-2.16-1.8ZM441.6,501v1.08c0,1.2-.72,5.28-2.16,12.12l-1.2,5.52a38.37,38.37,0,0,0,12.12-1.32c4.44-1.32,6.72-2.76,6.72-4.56-2-6.6-4.32-10.44-6.84-11.64l-7.56-.24Zm-1.92-4.2v-.24l2.64-.24q3.42-.18,8.28,0c1.8,1.2,4,4.08,6.24,8.76,2.16,4.32,3.24,7.32,3.24,8.88,0,2.4-1.08,4.92-3.24,7.44-2.52,3.12-5.4,4.68-8.76,4.68l-11.28-.24-.12-.12-1.56,4.44q-2.16-2.34-2.16-3.24c0-1.08,1-5.88,2.76-14.52s2.88-13.68,2.88-14.76h1ZM497,473.28V500l-.48.48-.84,1a14.16,14.16,0,0,1-2-6.12l-1.92,2.52q-4.5,4.68-12.24,4.68c-10.32,0-17.28-3.84-20.88-11.4a30.64,30.64,0,0,1-2.4-12.6c0-11.88,2.28-21.36,6.84-28.32a24.93,24.93,0,0,1,15-11.16,24.17,24.17,0,0,1,14.88.36c4.56,1.56,6.84,3.72,6.84,6.36a3.52,3.52,0,0,1-.36,2l-.72.24c-1.8-.6-4.92-1.44-9.36-2.4l-6.12-1.32c-6.84,0-12.84,4.08-18,12.12a52.7,52.7,0,0,0-4.56,9,18.93,18.93,0,0,0-1.44,5.16c0,5.16.6,9.36,1.92,12.6q3.78,10.08,14.4,10.08c6.84,0,11.16-.6,12.72-1.8L489.6,490a4.45,4.45,0,0,1,2-1.56,3,3,0,0,0-1-2.28l-1.92-2.52a8.52,8.52,0,0,0,1.68-1.2l1-1.32a14.1,14.1,0,0,1,2.64,4.08l.36-7-12.72-.6L479,475.08a2.15,2.15,0,0,1-.6-.84,18.62,18.62,0,0,1,.12-2.76l.12-.6,3.6-.12,13.68.12A11.58,11.58,0,0,1,497,473.28ZM63.72,534.84l10.2-.36,1.92-1.32,1.8-1.44-1.32-1.32L75,529.32l-9.36-.12-1.92.12.12,3.36ZM62.4,524q3.42-2,13.68-.72c2.16,1.08,3.48,2.16,3.84,3.36a33.19,33.19,0,0,1,.12,4.56,32.56,32.56,0,0,1-.24,4.8c-.6,1.8-2.4,3.48-5.16,4.92L63,540.72l-.72,5.4c-1.32,8.28-2.52,13.44-3.6,15.36H58l-.48-1.08a15.4,15.4,0,0,1-.12-2.64l2.28-18.12-.12-1.8a5.17,5.17,0,0,1,.36-2.4l.24-.12.48-8.76a10.45,10.45,0,0,1,.12-2.28l.48-1h.72ZM217.08,466.2a5.29,5.29,0,0,1,1.44,1.32,7.6,7.6,0,0,1,.36,2.76l-5.28,13c-4.08,9.24-6.72,15.72-7.92,19.32a57.6,57.6,0,0,1-8-13c-2.64-6-4.8-10.44-6.36-13.32l-.24-.6c-1.32,2.16-3.72,6.84-7,13.92-2.88,6.24-5.28,10.56-7.08,13l-.36-1a8.56,8.56,0,0,1-.24-2.28c0-1.56,2-6.72,6-15.72,4.2-9.24,7.44-15.24,9.48-17.88,2.28,5.88,6.6,14.88,12.72,27L210.12,480A147.06,147.06,0,0,1,217.08,466.2ZM213,393.48c-3.48-2.28-9-3.12-16.56-2.76l-.24-.84a12.73,12.73,0,0,1-.24-2.52,10.45,10.45,0,0,1,.12-2.28l.12-.24,14-.6c6.48,5.52,9.72,10.44,9.72,14.64C220,409,212.28,414,197,414l-2.16-.36c-.36,4.2-.6,6.72-.6,7.44v12c-.36,5.16-1.68,9-3.72,11.28l-1.32-1.68a6.18,6.18,0,0,1-.36-2.52c0-4,.72-11.52,2.28-22.44l1-6.48a8.69,8.69,0,0,1-.84-5.88c.24-.24.72-.24,1.56,0l.6-7.8a12.05,12.05,0,0,0-1.08-4.08,12.76,12.76,0,0,1-1.08-4.08l.12-2,.24-1c2.28-.12,3.72,1.44,4.32,4.44l.24,7.08-.6,8.4,1.44.12A29.59,29.59,0,0,0,211.32,403c3.48-1.92,5.16-3.36,5.16-4.32C216.48,396.6,215.28,394.92,213,393.48Zm16.8-152.64q5.58-1.26,6.48-2.16l.48-.84a31.35,31.35,0,0,0-4.92-1.8l-2.76-.72ZM228.48,229c1.32-.6,2.88-.36,4.8.48a13.3,13.3,0,0,1,4.8,3.72,9.06,9.06,0,0,1,2.16,5.76,7.54,7.54,0,0,1-3.48,6.6l-.24.12a69.31,69.31,0,0,1,4.68,7.92,103.28,103.28,0,0,1,4.8,10.8c0,1.8-.12,2.64-.24,2.4l.36.48q.18.36-1.44.36c-1,0-3.6-3.72-7.8-11.28l-4.8-8.88-2.76,1-.24,3.72-1.2,15.48-1.08.24-1-1.92a7.26,7.26,0,0,1-.48-2.88c-.6-8-.84-14.16-1-18.48q-.18-9.9,2.16-13.68A3.06,3.06,0,0,1,228.48,229ZM172.32,376.8l3.84-28.08A439.66,439.66,0,0,0,180,292.8c0-3.48.72-5.88,2.16-7.08a27.34,27.34,0,0,1,2.52,8.28l.12,6.72c0,4.92-1.08,17.76-3.12,38.76l-3.36,31.2,7.56-1.44,9-1.2c16.92,0,27,.84,30.24,2.4,1.32.6,1.8,1.32,1.68,2.4l-.6,2.88c0,2.28-.24,3.84-.84,4.56a3.47,3.47,0,0,1-2.88.72,38.38,38.38,0,0,0-11.4-1.92A158.18,158.18,0,0,0,186.72,381c-6.84,1-10.56,1.68-11.4,2.16a4.06,4.06,0,0,1-2.76-3.12A13.93,13.93,0,0,1,172.32,376.8ZM122.64,46.08c-.84,4.2-2.4,6.72-4.68,7.8l-1.44-2a6.8,6.8,0,0,1-.48-3,23.52,23.52,0,0,1,1.08-5,22.77,22.77,0,0,0,1.08-5.16c0-6.36-4.44-12.24-13.2-17.52-10-6-22.68-9-37.92-9q-20.16,0-32.4,23a81.51,81.51,0,0,0-6.48,16.2c-1.32,4.32-1.92,7.08-1.92,8.16a139.09,139.09,0,0,0,8.16,46.32Q41.1,124.38,55.32,148L83.4,191.52q18.18,28.26,29.76,50.64Q141.6,297.78,153,334.68a301.86,301.86,0,0,1,13.44,90.12,267.13,267.13,0,0,1-7.08,59.4,255.15,255.15,0,0,1-20,56.76q-13.5,27.36-31,42.72c-12.72,11.16-26.16,16.8-40.2,16.8q-37.44,0-51.12-46C12.36,538.8,10,518.88,10,494.76a79.07,79.07,0,0,0-1.8-10.68q-2-9.54-3.24-10.8l.48-.84c8.4,5.4,12.36,13.92,12,25.56L16,512.76c-.72,5.88-.84,10.68-.24,14.16,1.8,12.6,7.8,25.32,18.24,38.4A78,78,0,0,0,46.68,578.4c4.2,3.36,7.68,5,10.2,5q56,0,84.36-67.32a247.35,247.35,0,0,0,15.24-52.8q4-22.14,4-37.8,0-51.84-21.72-106c-9.6-23.88-25.56-54.36-47.76-91.2L65.4,185.76Q51.54,162,43.08,144,21.3,97.74,21.36,59c0-19.8,5.28-35,16-45.72C46.56,4.08,58.2-.6,72.36-1c13.32-.36,25,3.12,35,10.32,10.68,7.56,16,17.16,16,28.56A43,43,0,0,1,122.64,46.08Zm91.92,132.48.48,1.92,36.36-8.16.84,1.32a6.32,6.32,0,0,1,.48,2.76c0,2.28-2,4.32-6,6.12a93.62,93.62,0,0,1-15.48,4.2l-15.12,2.88.12,3.12q0,10.62-2.52,47.16c-2,31.08-4.2,52.32-6.72,63.72h-1.56c-.36-3.24-.6-5.64-.6-7.32,0-6.12,1.08-23.4,3.12-51.84,1.8-23.64,3.48-41.76,5-54.12l-3,.48c-9.24,1.92-16.92,3.84-23.28,5.64l-.6-1.32-.24-2.76c0-3,8.28-6.72,24.72-10.92l3.72-.84ZM232.08,29.64l.12.36H233v-.12ZM243,1.32l-5-.24.12.36V4.92l-.48,4h5.16V8.52l.24-1h.84l1,1.2c3.24-.24,4.8-.6,4.92-1-.36-.84-1.56-1.92-3.48-3.36A20.24,20.24,0,0,1,243,1.32ZM293,27.6l-7.92,45.84q-11.88,66.78-13.2,79-1.62,16.56-5.64,73.44c-1.8,25.56-3.6,46.8-5.64,64a38.47,38.47,0,0,1,8.88,1.92h9.72a132.74,132.74,0,0,0,17.88-4.44c4.56-1.44,13.44-2.64,26.52-3.72v-.48l12,.24c-2.4-16.92-5.52-36.36-9.48-58.2l-15.24-81.36q-9.18-48.06-13.08-75.24C295.56,52.8,293.88,39.24,293,27.6ZM484.68,370.32a7.88,7.88,0,0,1,.24,2.28c0,2.52-1.68,4.92-5.16,7.32H468.12c-5.88-1.8-9.48-4.2-10.8-7.08-.6-1-.84-3.24-.84-6.84a20.91,20.91,0,0,1,2.88-10.92c3-4.92,7.56-6.72,13.68-5.52.84.36,2.76,1.92,5.88,4.44a10.6,10.6,0,0,1-4.68,2.4l-1.08-.24-4.68.24-2.52.24a58.85,58.85,0,0,0-4.56,4.8,7.38,7.38,0,0,0-1.92,4.44c0,1.56,1,3,2.76,4.56a10.07,10.07,0,0,0,6.48,2.4l10.8-.24,4.56-3.24Zm6.48-8.64.24,2.88c0,7.8-1,14-3,18.6h-1.32a121.4,121.4,0,0,1,0-16.2l-5.52.24-8.76.24-.36-.48a6.51,6.51,0,0,1-.24-2,10.45,10.45,0,0,1,.12-2.28l.12-.36a146.76,146.76,0,0,0,18.12-2.64Zm-54.6,58.2.72-.48,1.2,1,.12-.12,3.24-.84c.72-4.2-3.24-6.24-11.88-6.24l-1.2,6.72h.36l6,1,1.2-.12Zm-5.76-12.24c2.4-.12,5-.24,7.8-.12L443,414a8.89,8.89,0,0,1,1.8,4.92,16.83,16.83,0,0,1-.48,4.8l-.84,1.92,1.92,2.16c4.92,5.64,7.32,9.36,7.32,11.4a4.91,4.91,0,0,1-.36,2.28l-.72,1c-2.88-1.92-6.24-5.64-10.2-11L439,427.56c-5.16-.12-9-.48-11.52-1.2-1.68,8.4-2.88,13.8-3.72,16.32l-1.08.24a7.67,7.67,0,0,1-.72-1.92v-2.88c0-2.16.6-7.2,1.92-15.12,1.56-8.76,2.88-14.16,4-16l.72.72Zm-48.72,7-1.08-1a9.4,9.4,0,0,1-.24-2.52c0-1.44,2-6.36,6-14.64,4.68-9.72,9-16.8,13-21.12,1.08,1.92,3.36,7,6.72,15,3,6.72,5.52,11.52,7.8,14.52,2.16-2.28,4.32-6.36,6.6-12.36s4.8-10.44,7.8-13.44a6.78,6.78,0,0,1,1.08,2L430,384c0,.84-2.16,5.64-6.48,14.16-5.16,10.08-8,16.08-8.88,18a100.42,100.42,0,0,1-8.88-15.6c-1.8-4-3.84-9.12-6.36-15.72-1.56,2.76-3.84,7.68-6.84,14.64Q387.66,409.2,382.08,414.6ZM426,342.24c-1.92,5.64-4.08,9.48-6.6,11.76-3.6-10.32-6.36-18.48-8.4-24.36a84.89,84.89,0,0,0-9.36,11.28L392.88,354l-1.08-1a9.4,9.4,0,0,1-.24-2.52c0-4.92,6.24-14.76,18.72-29.28,2.28,2.28,4.32,5.88,6.12,10.68l3.84,12L426,331.8c2.64-5.64,5.4-9.24,8.28-10.56,1.32,3.24,4.32,8.76,9,16.8,4.2,7.08,6.24,10.92,6.24,11.52q0,2.7-.36,2.52l-.36.48-.72.84a32.94,32.94,0,0,1-9.6-10.2A38.21,38.21,0,0,1,433.2,331C430.2,333.12,427.8,336.84,426,342.24Zm-51.12-45.12-1,8.16-1.56,11.16c9,0,16-1.08,20.64-3.36,4.08-1.92,6.12-4.2,6.12-7,0-1.56-1.92-4.32-5.88-8.28a80.07,80.07,0,0,0-6.48-5.52,14.19,14.19,0,0,1-11.16,4.8Zm1.2-17.28c0,2.16-.12,5-.36,8.52l3-1.2,2.52-1v-.72l2.64-.48c3.12-1.8,4.68-3.72,4.68-5.64,0-2.52-2.64-5.4-8-8.52l-5-2.88A105.08,105.08,0,0,1,376.08,279.84Zm119.4-42.36a18.54,18.54,0,0,0,1.08-5.28c0-4-1.8-7.8-5.52-11.28-6.12-5.76-16.08-8-29.88-6.72-.24,7.92-1.68,21.6-4.2,41l6.36-.84c12.36,2.28,21.48-.36,27.6-8A27.05,27.05,0,0,0,495.48,237.48Zm-51.84-33.24A7.6,7.6,0,0,1,444,207q0,2.34-9.36,25.92-8.46,21.6-14.4,34.92a122.77,122.77,0,0,1-8.88-25.44c-.6-2.52-2.52-11.52-5.76-27.24l-.48-.6a278.71,278.71,0,0,0-9.72,26.76l-8.28,26.28.6.6a16.46,16.46,0,0,1,4.44,11,17.14,17.14,0,0,1-1.32,6.24c3,1.2,5.52,3.6,7.44,7.32a30.4,30.4,0,0,1,3.6,14.64,15.32,15.32,0,0,1-3.48,9.72c-4,4.92-10.44,7.32-19.56,7.32l-7.92-.24-.72,2.4a5.42,5.42,0,0,1-1.32-2l-.12-.36h-2.4l-.84-1.2a5,5,0,0,1-.48-2.52,5,5,0,0,1,.6-2.64l1.32-1.56,1.92.12,1-16.2.24-3.36h-1a13.93,13.93,0,0,1-.24-3.24,3.49,3.49,0,0,1,1.44-2.64c.48-9.72.72-19.08.72-28.2,0-1.92.48-3.12,1.32-3.6a11,11,0,0,1,1.8,2.76,18.69,18.69,0,0,1,10.92,3.72v-1c0-3.48,3-14,8.88-31.68,5.16-15.36,8.88-25.68,11.16-30.84A238.65,238.65,0,0,1,413,229.8c3,12.6,5.4,21.48,7.2,26.76h.6l9.36-26.76a212.62,212.62,0,0,1,12-26.88A5.29,5.29,0,0,1,443.64,204.24Zm15,6.84a14.15,14.15,0,0,1,.24-2.64l.12-.6h8.64c13.56-2.28,22.8.6,27.84,8.64,2.52,4.08,3.84,9.36,3.84,15.84,0,7.08-1.2,13.08-3.48,17.76-4,8.16-11.28,12.48-21.72,13l-5.28.36-5.52.72-7.56-.12-.84,5.76h-1.44c-.36-2.28-.6-4.32-.72-5.88h-.84l-1.32-1.32a4.21,4.21,0,0,1-.84-2.76,4.13,4.13,0,0,1,.6-2.4l1.56-1.68h1q.54-10.26,2.16-24.12c1.2-9.72,2.4-16.44,3.6-19.92Zm31.08-61.32a14.3,14.3,0,0,1,1.2,6.12l-.12,1.56h-.48l-2.64-2.4a19.33,19.33,0,0,0-3.6-2.64c-13.32,1.8-22.08,7-26.52,15.6a16,16,0,0,0-1.32,3.6l24.36-.36,3,.36.24,1.08.24,2.52a3.27,3.27,0,0,1-.84,2.4,9.53,9.53,0,0,1-2.64,1.8l-25.92-.24a75,75,0,0,0-.36,7.68c0,2,1.2,3.84,3.72,5.4,3.36,2.16,5.52,4,6.6,5.52,13-1,20.4-2.16,22.32-3.72a8.55,8.55,0,0,0,1.8-2.16,11.67,11.67,0,0,1,4.8-2.4,2.67,2.67,0,0,1,1.32,1.56,7.17,7.17,0,0,1,.36,2.76c0,1.56-1.92,4.08-5.88,7.56-4.2,3.6-7.44,5.4-9.84,5.4l-15.72-.24c-4.68-5.28-7.8-8.88-9.36-10.92q-3.6-4.5-3.6-8.64c0-2.88.12-5.64.36-8.4l-.6-.48a5.22,5.22,0,0,1-.6-2.76c0-1.32.12-2,.48-2.4l1.92-1.32a48.13,48.13,0,0,1,2.88-8.88q8.1-18.18,29.88-18A10.43,10.43,0,0,1,489.72,149.76ZM368,155.16a17,17,0,0,0-12.48-3.84c0,3.24-.84,9.6-2.64,18.84q9.72-.54,15.12-4c2.88-1.8,4.32-3.48,4.32-5.16l-1.08-2A14.16,14.16,0,0,0,368,155.16Zm-15-9.36.12-.24c7.56-3.72,13.68-2.64,18.12,3.48a27.76,27.76,0,0,1,3.6,7.32,21.32,21.32,0,0,1,1,4.92c0,3-1.2,6.24-3.72,9.72a18.35,18.35,0,0,1-5.76,5.28,140.59,140.59,0,0,1,10.68,11c6.36,7.68,10,14.52,10.68,20.52l-.48.48-.84.84c-3.6-4.2-9-11-16.08-20.52l-7.92-10.8-3,.24-8.16-.24-.84,4.2-5.88,26.64-2.52-2.4a2.35,2.35,0,0,1-.48-1.68c0-6.6,1.2-17,3.48-31.08,2.52-15,5.16-24,7.92-27.12Zm25.8-26.64-.72,11.28L377,140.52q10.08-1.26,13.68-2.88c2.88-1.32,4.32-3.24,4.32-6a12.81,12.81,0,0,0-3.36-8.52c-3-3.36-7.2-4.92-12.84-4.8Zm17.88,27c5.4,5.64,10,13.56,13.68,23.64,2.16,5.64,5,14.16,8.76,25.32,5.88-13,10.2-21.84,12.72-26.64Q440.34,153,449.16,144a5.14,5.14,0,0,1,2,1.56,4.23,4.23,0,0,1,.72,2.76c0,1.08-4.08,8.76-12.24,22.92l-20.76,36c-3.24-6.36-8-17.88-14.4-34.32-5.76-15.12-8.64-22.92-8.64-23.52l.12-1.92.12-.6Zm.48-14.88c0,4.44-.48,7.68-1.56,9.72-2.28,4.2-6.72,6.24-13.56,6.24l-4-.12-2-.24-.24-.36-.84.12-.48-1.92v-2.88l1.08-27.24v-1.8l.24-.48h1.08l.72,1h1.44l7.56.12c5.28,4,8.4,7,9.48,9C396.84,123.72,397.2,126.72,397.2,131.28ZM429.6,86l.12,5.4v4.92c8.76.84,13.2-.36,13.2-3.6,0-.84-1.8-3.12-5.4-6.72H429.6ZM363.36,62.76l-6.6,13.8A75.26,75.26,0,0,0,351,91.2h-.84l-.48-2-.12-2.88c0-1.56,2-7.2,6.24-16.68L362,55.8l-.36-.12,1.56-.24c1.08,0,5.52,4.2,13.2,12.6,8.76,9.6,14.88,15.72,18.36,18.24,2.28-2.28,5.76-7.92,10.56-16.68,4.32-7.92,8.16-13.08,11.64-15.48l.72,1a4.91,4.91,0,0,1,.36,2.28c0,.48-3,5.52-8.88,15-6.72,11-11,18.36-13.08,22.08a203.27,203.27,0,0,1-16.2-15.12Zm79.44,38c-1.8.84-5.16,1.2-10,1.2l-3.12-.12-.24,4.92-.84,7.56,4.08.6c5.28,0,9.48-1.08,12.72-3.12,2.52-1.68,3.72-3.48,3.72-5.28C449.16,103.32,447,101.4,442.8,100.8Zm1.92-3.6v.72c4.2,2.28,6.36,5.4,6.36,9.36,0,2.76-1.2,5.52-3.48,8.28a14.07,14.07,0,0,1-11.4,5.16,15,15,0,0,1-6.48-1.44l-1.92-1.2-1.32,4a4.41,4.41,0,0,1-1-1.8,14,14,0,0,1-.12-2.76l1.08-14.16.48-4a22.44,22.44,0,0,1-.24-3.24h.48l.72-10-.6.12-.48-.24-.12-1.8a2.67,2.67,0,0,1,2-2.64l8.76-.36c3.6,1.8,5.76,4,6.6,6.36.36.84.48,2.64.48,5.64ZM448.08,63a138.57,138.57,0,0,1-20.76-25.32A237.84,237.84,0,0,1,412.68,10.8C405.6,21.48,400.44,29.52,397,34.92c-6.24,9.84-10.08,18.36-11.4,25.44-4.92-5.88-9.36-13.8-13.32-23.88-4-11.64-7.08-20.16-9.36-25.68a261.13,261.13,0,0,0-20,23.64l-20.28,26.4-2.76-2.4a1.24,1.24,0,0,1-.48-1c0-1.68,5.76-9.48,17.4-23.52C344.4,24.6,353,14.4,362.64,3.48a169.27,169.27,0,0,1,11.64,23.76L384,52.44l.24.36a275.08,275.08,0,0,1,13.68-25.2c7.8-13.08,12.72-21.24,14.52-24.6C419.16,12.24,427,23.64,436,37.44s13.56,21,13.56,21.84c0,1.8-.12,2.52-.36,2.4ZM586.8,43.32l.12.36c0,.36-.48.48-1.56.48-1.56,0-3-1.44-4.44-4.2a93.06,93.06,0,0,0-4.8-9C570.48,22.2,562,17.88,550.56,17.88q-44.82,0-57.48,21.84a34,34,0,0,0-4.32,15.48,38.19,38.19,0,0,0,.48,7.68c0,20.28,5.4,44.52,16.32,73,3.48,9,9,22.56,16.8,40.44,8.64,20.16,15,35.4,19.2,45.72q23.76,59.58,35.88,115.32Q593.82,412.56,593.76,498a177.57,177.57,0,0,1-2.88,29.28A223.08,223.08,0,0,1,582.24,561c-9.12,26.28-19.92,39.48-32.4,39.48-18.36,0-31.56-2.16-39.48-6.36-9.12-4.8-17.28-15-24.36-30.72a41.69,41.69,0,0,1-3-10.68l-1.32-10.2c-1-8-3.72-14.4-8.16-19l2.88.36,3.36.72a17,17,0,0,1,2.4-4.56c.6,1.08,1.68,5.64,3.24,13.8a118.26,118.26,0,0,0,5.88,21.36c7.56,18.84,20.28,28.2,38.28,28.2,9,0,15.84-.48,20.76-1.56a26.17,26.17,0,0,0,13-6.12q4.86-4.14,9-13c2.16-4.44,5-11.76,8.76-22.08A107.51,107.51,0,0,0,586,520.2a146.61,146.61,0,0,0,1.92-22.56,702.74,702.74,0,0,0-16.2-152q-12.06-54.54-35.4-115.08c-4.2-10.8-10.56-26.28-19-46.56q-11.7-27.9-16.56-41-16-43-16.08-69.84c0-23.4,5.28-41.28,16-53.52,9-10.32,20.76-15.72,35.16-16.08a57.13,57.13,0,0,1,35.28,10.44c10.68,7.44,16,16.2,16,26.16ZM193.56-.36a44.82,44.82,0,0,1,9.12,10.2,2.93,2.93,0,0,0-1.32,1.08,15,15,0,0,0-10.8-4.2c-11.28,0-20,.84-26.16,2.4a30.3,30.3,0,0,0-15,8.16C146,20.76,143,25.92,140.4,33c-1.32,3.72-4,12.12-7.8,25.2-1.32,4.56-2.4,14.4-3.24,29.64-.6,10.68-.84,18.48-.84,23.52,0,12.84,1.44,23.88,4.32,32.88,6.12,19.32,17.76,28.92,34.92,28.92,14.4,0,24.24-2.28,29.4-7a23.53,23.53,0,0,0,4.08-5.52,15.5,15.5,0,0,1,2.76-4,4.36,4.36,0,0,1,1.8,2,8.77,8.77,0,0,1,.72,3.6c0,.84-.6,2.28-1.8,4.44a32.57,32.57,0,0,1-5.28,7.2q-9.18,9.72-22,9.72-36.72,0-48.36-34.92a85.47,85.47,0,0,1-4.32-24.48V111.84c0-8.76,1.08-22.44,3.36-41.16s4.2-30.36,5.76-34.68A84,84,0,0,1,150.24,8.76c6.84-7.56,13.92-12.24,21.36-14A24.72,24.72,0,0,1,193.56-.36ZM294.84-1.68a12,12,0,0,1,1.44,6.24l-.48,5.28q4.68,51.3,21.24,133.92l14.52,74.4q7.74,41.94,11.52,74,5.58,47.52,30.48,174.48L389.88,549c4.68,23.88,7.08,37,7.08,39.12a19.69,19.69,0,0,1-.6,4.44,10.57,10.57,0,0,1-1.8,4.08c-3.72-8.52-7-20.4-9.6-35.4-2.64-17-4.8-29.4-6.36-37.08-1.68-8.28-4.44-20.64-8.16-37.08-4-17.28-6.6-29.52-8.16-36.84q-14.94-70.56-24-146.88l-.84-6.24-7,.36-7.92.72c-6-.36-13.56.84-22.56,3.48-9.36,2.76-15.72,4.08-19.08,4.08l-7.08-.36-5.4-.72-9.72-.48-10.08,75.36q-6.84,52.38-11.4,82.56-14.4,94.5-30,132.12-4.32-4.5-4.32-15.48a5.69,5.69,0,0,1,.48-2.76l1.2-2a4.76,4.76,0,0,0,1.92,1.92,2198.93,2198.93,0,0,0,46.44-275,7,7,0,0,1-1.08-4.2c0-2.76.48-4.68,1.56-5.52l.48-.36.48-4.44q11-112.5,15-145.44,9.54-76.32,22.8-132.72.18-10.62,2.52-12.24ZM232-3.84c8.28-.12,13.92,1.08,16.92,3.72,2,1.8,3,4.56,3,8.28a10.69,10.69,0,0,1-1.68,6.24l3.6,3.36c6.12,6.12,9.24,10,9.24,11.28,0,1.8-.12,2.52-.24,2l-.36.36-.48.48c-2.16-1.2-5.76-4.32-10.68-9.24a77,77,0,0,1-7.08-8.16l-7.68-.12-.6,2.88c-1.56,6.84-2.52,10.8-2.88,11.64h-.84l-1.08-3.24,3.6-13.08c.12-.84.12-4.32.12-10.44l.24-1.32h-.48A5.82,5.82,0,0,0,232.2-.6,15.66,15.66,0,0,1,232-3.84Z" transform="translate(-4.92 6.05)"/></g></svg>