<svg id="Layer_1" data-name="Layer 1" xmlns="http://www.w3.org/2000/svg" viewBox="0 0 538.56 557.71"><defs><style>.cls-1{fill-rule:evenodd;}</style></defs><path class="cls-1" d="M218.4,92.52c-.6,3.72-1.2,6-1.92,7.08a14.36,14.36,0,0,1-4.56-7.92,86.17,86.17,0,0,1-1.68-10.8C208.92,70.44,206,62.76,201.36,58a88.87,88.87,0,0,0-29.64-20.52c-15.84-6.72-35.16-10.08-58.08-10.08-21.48,0-37.44,8.64-48.12,26-8.16,13.2-12.24,29-12.24,47.4,0,5.4,2.64,11.52,7.92,18.6q6.66,9,20.88,22,7.92,7.38,29.52,25.56c14.28,12.24,25.56,22.08,33.72,29.52q41.58,38.16,63.24,72c19.2,30.12,28.8,60.72,28.8,91.56,0,16.92-1.68,36.48-5.16,58.68-3.6,23.4-7.8,40.44-12.48,50.88l-12.24,27.72a128.47,128.47,0,0,1-18.24,28.56q-27.9,31.68-86.4,42.24l-28.68-.24Q46.08,550,33,525a93.43,93.43,0,0,1-10.56-43.92c0-11.16,1-19.32,3-24.36,4.44-9,9.12-19.32,14-31.2a4.33,4.33,0,0,1,2.4,2.76,12.08,12.08,0,0,1,.6,3.72c0,2.28-.84,5.16-2.4,8.76l-5.16,11c-5,10.8-7.56,20.52-7.56,29.28,0,12.48,3.84,25,11.64,37.44q12.42,20,36,36.36l29.4-.36c37.08-6.84,64.2-20.4,81.24-40.44,5.88-6.84,11.52-15.72,16.92-26.52,5.52-11.76,9.84-20.28,12.84-25.56,1.44-2.52,4.56-18.12,9.48-46.92,5-29.4,7.56-47.76,7.56-55.32q0-27.54-20.16-67c-12.36-24.12-26.88-45.12-43.44-62.76a376.74,376.74,0,0,0-42-37.8Q99.66,171.9,88,162.72q-19.62-15.66-28.44-28.08c-7.32-10.44-11-21.48-11-33.36,0-4.92.84-11.64,2.4-20.16A177.87,177.87,0,0,1,58.32,53c8.52-23.88,19-36.36,31.56-37.32q75.78-6.12,108.6,24a61.39,61.39,0,0,1,16.8,25,59.14,59.14,0,0,1,3.12,27.84Zm97.32-2.64c-7.8,35.4-13.8,60.48-18,75.48q-7.56,26.82-13.2,64.8c-1.92,12.72-4.32,30.72-7.2,54.12,6.6-2.16,21-4.8,43.08-7.92a243.07,243.07,0,0,0,26.52-5Q336.48,209.4,331.2,168.48q-7.74-59.22-9.48-105.84ZM377,419.4q20.52,128.7,20.52,136.92a10.55,10.55,0,0,1-1.92,6.12c-4.92-3.36-7.44-8.28-7.56-14.88V539a33.33,33.33,0,0,0-1.08-9.12,80.88,80.88,0,0,1-2.64-16.08l-1.44-17.16c-.48-3.48-1.56-14.4-3.36-33-1.32-13.44-2.64-24.36-4.2-32.76q-16-88-23.52-131.52l-2.76-15.84-34.44,6.36c-18.84,3.48-31.8,6.12-39,7.68q-12.78,93.78-18.24,126.84Q245,498.06,227.88,554.88c-1.8-1.08-3.12-2.88-4.2-5.64l-1-3.72c3.84-11.64,7.92-25.68,12.36-42.12,8.76-32.88,14.28-61.68,16.8-86.52,4.44-19.32,8.28-40.92,11.76-64.8q3.6-23.76,7.2-56.16a12.15,12.15,0,0,1-.48-3.72c0-2,.12-3.36.48-4l1.08-1.2v-1q5.94-53.82,23.52-131.4c11.16-46.44,19.68-83,25.8-109.68V36.12c0-3,.12-5,.24-6.24.36-2.64,1.32-4.2,2.76-4.68l.36,5.4.72-3.24,1.44,3.36a14.77,14.77,0,0,1,.36,3.48,97.2,97.2,0,0,1-1.68,10.2q4,52.74,11.52,113.4,7.38,58.5,19.44,133.44ZM448.8,33.6a8.43,8.43,0,0,1,.72,2.76L444.72,79c-3.36,29.28-5.4,49.08-6.12,59.28-.72,12.12-1.56,28.92-2.4,50.28L434,239.64q-3.6,70.74-5.64,101.52-3.78,57.42-9.24,101.4V548l-.48,1.68-.6,1.56c5.16-.48,23.88.6,56.16,3.36,35,3,57.24,4.56,66.48,4.56l13.44-.24a7.7,7.7,0,0,1,1.68-2.52,9.92,9.92,0,0,1,4.32,4.92,9.78,9.78,0,0,1,.84,4.44,11.31,11.31,0,0,1-.6,3.6l-1.92,3-33.36-2.64L491.28,566q-41.58-4.32-69.12-1.2l-7.08-.24c-1.32-2.52-1.92-6.36-1.92-11.4a46.78,46.78,0,0,1,1.08-11.4V438.72q4.86-38.88,8.64-102.48,5-83.88,6.6-102.84c1.2-13.56,2-30.48,2.64-50.88l1.56-51.72Q436,68.16,445.92,29.28A9.18,9.18,0,0,1,448.8,33.6Z" transform="translate(-22.44 -14.69)"/></svg>