<svg id="Layer_1" data-name="Layer 1" xmlns="http://www.w3.org/2000/svg" viewBox="0 0 557.28 562.2"><defs><style>.cls-1{fill-rule:evenodd;}</style></defs><path class="cls-1" d="M277.2,309.36l.48,9.24q0,39.6-7,101l6-12.24,20.4-41.16c2-4.2,4.44-9.84,7.08-16.68l6.72-17.64q8.64-21.78,17.64-34.2a16.33,16.33,0,0,1,2.16,7.8c0,1.32-2.4,7.92-7.08,19.56-4.92,12.12-10.68,25.56-17.28,40.08l-3.48,7.68a57.28,57.28,0,0,1,3.24,14.88l1,12.48c.48,4.92,1.08,9,1.68,12,.48,5.88,1.56,13.68,3.24,23.52l4.08,24.36c1.2,8.52,4.56,26.88,10.2,55.32,5.16,25.92,7.68,39.72,7.68,41.28a12.89,12.89,0,0,1-2.76,8.16c-3.84-3-10.56-34-20.28-92.64q-5.4-32.76-9.72-63.12c-1.56-11.16-2.76-19.56-3.36-25.44q-18,38.52-29.4,55.8l-1.92,15.24Q255,543.24,245.16,559.2c-2.16-2-3.24-5.76-3.24-11.4,0-1.44,3.24-19,9.6-52.56q9.9-52.74,11.52-71.64c1.92-28,3.48-49.08,4.68-63.12,2-24.6,4.56-44.76,7.8-60.6C276.36,301.2,276.84,304.32,277.2,309.36ZM212.64,94a38.29,38.29,0,0,1-2.16,13.8c-3.48-2-5.16-4.44-4.8-7.2a26,26,0,0,0,1.56-7.8c0-2.28-2.16-6.72-6.6-13.44A131.48,131.48,0,0,0,181.8,56.76Q150.12,26,113.16,26,82,26,67.44,58.56A93.1,93.1,0,0,0,59,91.32a41.37,41.37,0,0,0,4.32,18.48,70.59,70.59,0,0,0,12.12,16.68c3.84,4.08,10.08,10,18.6,17.64,11.16,10,19.08,17.28,23.88,21.84,9,8.64,19.8,21.12,32.4,37.32,15.72,20.52,25.32,32.64,28.8,36.6,15,17.16,29.64,40.56,43.8,70q23.22,48.42,23.28,77.4c0,8.76-2.88,25-8.64,48.48q-9.54,39.24-10.08,42.84-5.94,47.34-47.88,70.8a126,126,0,0,1-32.16,12.36A99.87,99.87,0,0,1,125,564.84c-23.64,0-42.6-2.28-56.88-7-13.56-4.32-23.76-11-30.84-20-6.24-8-10.44-19-12.72-32.52-1.56-10.08-2.4-24.72-2.4-43.8,0-3.48.84-6.12,2.64-8.16,4,4.44,5.76,11.16,5.52,19.92-.12,4.92-.72,11.88-1.68,20.88A44,44,0,0,0,31,507.72,50.28,50.28,0,0,0,42,526.2q21.42,23.22,70.56,23.28,47.34,0,73.56-19.2t36.36-60.72l10.08-38q8.28-32.76,8.28-44.28,0-14.22-9.36-38.16c-7.44-17.4-12.48-29.52-15-36.12-3.72-9.72-11.16-22.32-22.56-37.56Q174.12,250,166.2,239a320,320,0,0,0-38.52-43.44L91.32,162.36C78.72,150.6,69.72,140,64.2,130.68A76.64,76.64,0,0,1,53.52,91.32,98.86,98.86,0,0,1,63,48.48C71.28,30.6,83.76,18,100.68,10.8q61.38,7.56,90.84,37.32A77.39,77.39,0,0,1,208.2,73,55.06,55.06,0,0,1,212.64,94ZM331,35.52a52.84,52.84,0,0,1,6.72,11.4C344.52,61.68,348,76.32,348,90.72c0,3.6-1,8.16-2.76,13.8a70.41,70.41,0,0,1-10.56,21.24q-20,27.72-59.76,27.72l-5.16-.12-2.4,33.84c-5.52,74.76-9.84,114.12-13,117.84-2.4-.48-4.08-2-5.16-4.68a13.26,13.26,0,0,1-.84-4.92l2.4-10.92a185.35,185.35,0,0,0,3-22.68q0-11.34,2.16-34.2c.6-7.32,1.68-18.6,3.36-34.08,1.56-14.88,2.64-26.28,3.12-34.08.6-8.52,1.2-19.92,1.56-34l1.2-34.68c1.08-24.6,3.36-45.12,6.84-61.8a6,6,0,0,1-1.56-2.28l-.36-3.12a4.67,4.67,0,0,1-.12-1.92A6.12,6.12,0,0,1,272.4,18c4.32-3.48,13.32-4.32,26.88-2.52,4.32.6,10.8,3.72,19.44,9.48A47.43,47.43,0,0,1,331,35.52Zm-18.72.84a11,11,0,0,1-2.64-2.64,5.56,5.56,0,0,0-2.88-2c-3.48-1-13.68-1.08-30.72-.48l-.48-.12v.72q0,35.64-4.92,109.2a45.48,45.48,0,0,1,7.08-3.12c4.8-1.8,13.56-4.8,26.4-9.12q17.28-6.66,26.28-14.4c8-6.84,12-14.76,12-24q0-6.12-4-19.08c-2.76-9-5.28-14.76-7.44-17l-8-8.64A76.07,76.07,0,0,0,312.24,36.36Zm161.64-.48C472.32,49.44,468,70.8,461.16,99.72q-7.74,32.94-15.72,61.68c-4.44,16.2-9,38.64-13.44,67.2-4,24.6-7.08,43.44-9.6,56.64,34.92-3.24,66.84-6.84,95.52-10.8l10.44-.48L519,226.44c-5.4-27.24-9.6-50.52-12.72-69.6-2.64-16.2-9.6-43.56-21-82.32ZM469.2,19.2c0-4.56,1.08-7.68,3.24-9.24A272.16,272.16,0,0,1,484.2,42.6c3.48,11.4,6.36,23,8.88,34.68q2.88,11.16,9.72,34.56c4,14.16,6.84,25.92,8.64,35.16q11.16,57.42,25.92,138.84,8.64,47.7,23.28,140.4,18.9,119.16,18.84,137.64a13.77,13.77,0,0,1-.72,4.44,8.48,8.48,0,0,1-2,3.84q-11.7-50.22-23.4-138L544,364.68q-5.58-39.42-11.4-69.12L531.12,288q-9.18,4.14-37.8,4.68l-4.68.72a34,34,0,0,0-4.8.84c-8.16.48-18.36,1.68-30.72,3.48C442,299.4,430.68,300.6,419,301.44q-12.42,54.18-33.12,130.8L348.48,567c-1.8-1.44-3-4.32-3.48-8.52l-.24-7.2a34.61,34.61,0,0,1-.84-8.28q.18-7.38,5.4-5.76Q356,510.78,385.2,406.92q18.54-65.52,28.92-111l-.12-1.68a25.93,25.93,0,0,1,.24-4,6.72,6.72,0,0,1,1.92-3.36l2.52-11.28q3.42-16.38,10.92-64.8,6.48-41.94,12.6-66c.84-3.6,3.84-14.52,8.88-32.76,3.72-13.44,6.48-24.48,8.16-33l5.88-35.76c1.68-10.32,3.12-18,4.32-23.16Z" transform="translate(-22.2 -9.96)"/></svg>