<svg id="Layer_1" data-name="Layer 1" xmlns="http://www.w3.org/2000/svg" xmlns:xlink="http://www.w3.org/1999/xlink" viewBox="0 0 493.88 594.36"><defs><style>.cls-1{fill:none;}.cls-2{clip-path:url(#clip-path);}.cls-3{fill-rule:evenodd;}</style><clipPath id="clip-path" transform="translate(-1.96 1.08)"><rect class="cls-1" x="1.68" width="494.28" height="593.4"/></clipPath></defs><g class="cls-2"><path class="cls-3" d="M125.52,527.76l-2.28-.24c-.24-.12-.36-.72-.36-1.92a2.12,2.12,0,0,1,1-2,3.27,3.27,0,0,0,1.68-.6l8.64-.84,5.52-.24,7.8.24.48,1.56a9.88,9.88,0,0,1-2.88,3l-5.16-.24-4.08-.24v.12l.24,2.76-1.08,8.4a100.65,100.65,0,0,0-1.32,11.16l-.6.48a28.54,28.54,0,0,1-.72-7.8,77.13,77.13,0,0,1,1-7.68l1.44-7.8-5.28,1C127,527.16,125.64,527.52,125.52,527.76ZM115,500.4a72.28,72.28,0,0,1,.6,10.8l6.24-.48,1.68-1.2c.84-.6,1.44-1.08,1.56-1.44a12.26,12.26,0,0,1-1-2.76l-.72-2.4c-.84-1.56-3.48-2.16-7.8-1.92l-.24-1.68c2.64-.84,5.4.12,8.16,2.88,2.52,2.4,3.72,4.32,3.72,5.88s-1.68,3.6-4.92,6.48l-6.84-.24a38.49,38.49,0,0,1-1.56,11.28h-.48l-.48-.72-.12-2,.6-9.48.84-13Zm38.52-22c-5.64,9.84-10.2,17.28-13.56,22.32-1.56-.72-2.76-2.64-3.6-5.64l-2.64-7.44-3.36,5.76a18.15,18.15,0,0,0-2.28,6.24h-.6a103.53,103.53,0,0,1-1.8-13.2c-.36-4.44-.6-7.68-.6-9.72V475l.24-.48h1.32c.6,3.24.84,8.4.84,15.36a.91.91,0,0,1,.84.48l.48.72,4.32-8.4a9.41,9.41,0,0,1,3.84,5.28l2.16,6.36c1.32-1.2,3.24-4.2,5.64-9a20.41,20.41,0,0,1,8.16-8.88Zm128.16,98.64c1.92-2.16,7.32-3.84,16.08-5.16a16.65,16.65,0,0,0,4.44,2.64l.24,1.68H301a13.42,13.42,0,0,0-3.24-.6c-5.28,0-9.36,1.08-12.36,3.36l-1.56,1.44,1.32-.24,11.52.12.6,2-.6,1.92h-13.2l-1.32-.24c.36,1.2,2.64,2.64,7,4.32l7.2-1.08,7-1.32.48,2.88-2.16,2.28-3,2.16h-8.64c-4.68-1-7.68-2.4-8.76-4.32-.48-.72-.72-2.4-.72-4.92l-.12-3.72A5,5,0,0,1,281.64,577.08Zm-37-1.2.24-2.52.84-.6a27.75,27.75,0,0,0,4.2,6.6,39.56,39.56,0,0,1,4.56,6.36l7.68-8.16c3.36-3.72,6.24-5.76,8.52-6.24l.36.72.12,2.16c0,1.2-2.64,4-7.8,8.16-5.4,4.32-8.4,7.92-8.88,10.68a86.16,86.16,0,0,1-5.88-8.88Q244.68,577.5,244.68,575.88Zm-17,4-.48.48a4.93,4.93,0,0,0-.36-2.88q-1.08-1.8-6.48-1.8c-4.44,0-7.44,1.44-9.24,4.2l7.68.48.48,2L219,584l-.48.24h-8.76V585a3.82,3.82,0,0,0,.72,2,2.68,2.68,0,0,0,2.16,1.32l16.92-2.4.6,2.88-.6,2.76-4.32.72-5.64.72-7.68-.36c-2-1.8-3.24-3.24-3.6-4.44a19.4,19.4,0,0,1-.24-4l.12-1.08-.12-1.08a4.31,4.31,0,0,1,.72-2.64l.24-.12a10.56,10.56,0,0,1,2.16-3.48,11.89,11.89,0,0,1,6.72-3.84,9.09,9.09,0,0,1,6.72.6,5.46,5.46,0,0,1,3,5.16ZM190.2,452.4l.36,3.6a309.69,309.69,0,0,1-3.36,46.68q-4.86,32.4-6.48,53.28v.24l1.2-.36,3.12-.48,15.24.84c8.76.36,13.44.48,13.8.24.12-.12.48,0,1.32.36l1.44.72q-2.52.54-3.24,5.76c-.36,3.24-1.56,4.92-3.6,4.8l-23.76,1.08-7.68.84-1.92-.24-.72-.84c-.36-3.24-.6-5.52-.6-6.84,0-16.56,1.44-36.6,4.2-60,2.76-23.16,5.76-40.92,9.12-53A14.06,14.06,0,0,1,190.2,452.4Zm53.16,7.2c0,1.08-1.32,13.92-4.08,38.52-3,27.48-4.92,44.88-5.64,52.44v5.64l32.52,1.8c1.8.36,2.88,1.08,3.24,2a16.55,16.55,0,0,1,.24,3.6c0,2.88-.36,4.68-1.08,5.28-.84.84-3.36,1.32-7.32,1.32l-13.56-1.08-17.88-.48a25.79,25.79,0,0,1-1.56-9.72c0-7.68,1.44-25,4.44-51.72,3.36-29.76,6.24-47.76,8.76-54.12A11.12,11.12,0,0,1,243.36,459.6Zm12.48-214.08q0,9.9-8.64,87.6c-6.36,58.2-11.88,98.64-16.32,121.08-7.8-23.88-14.52-54.72-20.4-92.76l-6.84-47.64c-2.76-18.84-5.52-34.92-8-48h-.48Q191,340,189,360.84q-5.22,53.46-16.32,94.92h-1.92a34,34,0,0,1-.6-5.16c0-3.72,2.28-20.4,6.72-49.92C181.56,369,184.2,349.8,184.8,343c.6-7.08,1.2-16,1.8-26.76l1.2-26.88c1.2-21.36,3.6-38.88,7.08-52.68A224.09,224.09,0,0,1,201,260.4l4.68,24.36,8.64,48.72c1.44,8.28,3.84,24.24,7.32,47.88,3,20.52,5.64,36.84,7.92,48.72q13.86-107.46,17.64-176.64c1.32-1.32,2-4.32,2.28-9.12.24-4.2,1.68-6.72,4.2-7.68C255.12,238.8,255.84,241.8,255.84,245.52Zm77.64-9.36-.84,1.8-.48.6a8.07,8.07,0,0,1-3.72-3.48l-2-3.6q-.9-2.52-2.16-2.88l-14.88-1.44q-53.28,8.46-53.28,114.12a29.24,29.24,0,0,0,1.56,7.32,62.29,62.29,0,0,0,5,12.24c5.64,10.92,12.6,16.44,20.76,16.44,12.48,0,21.84-5.28,28-16A49.09,49.09,0,0,0,316,349.8a30.14,30.14,0,0,0,1.08-6.72,13.14,13.14,0,0,1,.24-2.64,7.83,7.83,0,0,1,1.32-1.8l1.32.6.48-2.76-2.28.24q-15.84,0-19.44-3.24a2.36,2.36,0,0,1-1.08-2.28l.48-1.32.12-2.64.6-1.92,1.68.36,3.84,1.32q.54.36,7.56,0l9-.6c1.92,0,3.12,1.56,3.48,4.8a24,24,0,0,1-.12,5,214.78,214.78,0,0,1-1.44,23l-3.12,24-.6.48-1,.84c-1.32-1.68-1.92-4.2-1.92-7.44l.24-11.52-2.4,4.68c-7.08,12.12-15.48,18.12-25.2,18.12-15.6,0-26.28-7.44-32.16-22.2a68.46,68.46,0,0,1-4.32-25.2q0-41.58,6.72-67.08c7.44-28.44,21.36-47.64,41.64-57.36l4.56.24,5.16.6,12.24.48a90.13,90.13,0,0,1,6,7.44c3.36,4.56,5,7.32,5,8.16ZM122.64,427.68a20.4,20.4,0,0,1,.48,5.64c0,5-.36,11.16-1.08,18.48a69.78,69.78,0,0,1,6.12-7.68l-.12-.72q0-1.62.36-1.8l.36.12.72,1,1.32-1.44c6.48-6.84,10.92-10.56,13.2-11.16l.24-.24a4.61,4.61,0,0,1,.24,1.92c0,.36-3.36,3.84-10.08,10.56L131,445.68l5.4,12.72q6.12,14.94,6.12,17.28v1.8l-.48.24-.6.24-7.32-17.16c-2.4-5.76-4.08-10.08-5-13.08a87.72,87.72,0,0,0-7.44,8.52c-1,8.76-2,16-3.12,21.72L116.64,479l-.48-.48-.12-1.92c0-.6,1-7.8,2.76-21.6,1.8-14,2.88-23.16,3-27.36Zm-5.16-61.32-.48,12c5.4-1.2,8-3,8-5.4a8.46,8.46,0,0,0-2.52-6,7.22,7.22,0,0,0-5.16-2.4Zm-1.68-4.2c3.12-1.8,5.76-1.08,7.8,2.16a17,17,0,0,1,2.52,9A12.59,12.59,0,0,1,124.8,379a6.35,6.35,0,0,1-5.76,3.48h-2.52a160.18,160.18,0,0,1-4.8,25H111a12,12,0,0,1-.36-3.72,137.41,137.41,0,0,1,2.16-20.16c1.2-7.92,2-14.16,2.4-18.72l-.72.12-.24-1.68,1.08-.72v-.36Zm27.6-16.8-.12,4.08c-.36,2-1.2,3.48-2.52,4.08l-2.16.24,4,11.28q4.32,12.06,4.32,15.48v1.68l-.48.24-.84.36L140.76,370c-2.76-7.56-4.08-12.48-4.08-14.88v-1.2q-3.42.36-3.6.72h-1.44l-.6,6.72c-1.08,10.56-1.68,17.16-1.68,19.8l-1.08.24-.24-.72v-2l1.08-17.16,1.56-24.12-.24-1,1.08-2a70.92,70.92,0,0,0,10.68,4.32,2.72,2.72,0,0,1,1.2,2ZM132,337.92V338a6.26,6.26,0,0,1,.6,2.76l-.6,9.48,1.08-.6,7.08-.48,1.8-1.32a6.09,6.09,0,0,0,.36-2.64,4.68,4.68,0,0,0-2-4A28.65,28.65,0,0,0,132,337.92Zm-27.6-20.16-1.8-.24a9.88,9.88,0,0,1-.36-3.24L127,313l.36.48.12,1.92c0,1.8-.12,2.64-.24,2.4l-9.84.24-1.68,20.16c-1.32,13.08-2.28,20.76-3.12,22.92a1.75,1.75,0,0,1-.72-1.08l-.12-2.64c0-9.36.24-17.52.84-24.36s1.2-11.88,2.28-15l-6.6.12Zm15.48-29.52a37.22,37.22,0,0,1-1.56,8.76,72.79,72.79,0,0,0-1.92,9.72L116,307l9.48-.84,10.08.36.48,2-.48,1.92-5,.36-5,.72-11-.24L114,310l-.12-2.76c0-1.8.72-5.64,2.28-11.52s2.52-9.24,3.12-9.84l.48.48ZM99.36,206.52c4.68,24.84,7.44,38.76,8,41.76h.24c4.44-17.16,8.88-31.2,13.56-42.12q4,16.92,6.84,45.36c1.08-4,4.2-17.52,9.48-40.92,4-17.52,7.92-31.32,11.88-41.52a3.4,3.4,0,0,1,2,1.8A7.19,7.19,0,0,1,152,174c0,3.48-2.88,16.2-8.52,38.28-6.36,24.6-11.88,41.64-16.32,51.12a174.44,174.44,0,0,1-4.08-21.12l-3.24-21.12h-.6l-5.16,19.92c-2.52,8.16-5.52,14.76-9.12,19.92-.6-5.16-3.72-21.72-9.36-49.56-5.28-26.28-7.92-40.8-7.92-43.32V166l.24-1.2H89C92.76,175.32,96.12,189.24,99.36,206.52Zm22.44-64.2h.84a77.31,77.31,0,0,1-.6,20l20,1.32.48,2-.24,1.8-.48.24H121.2a2.71,2.71,0,0,1-1.44-.6c-.36-.36-.48-1.2-.48-2.52l1.2-9.48C121.2,149.28,121.68,145.08,121.8,142.32ZM115,120.72l.36,1.92c0,1.2-1.92,3.24-5.88,6l3.6,6.24c2.4,4.08,3.6,6.48,3.6,7.08,0,1.8-.12,2.16-.24,1.2l-.6.48-4.92-7.2q-3.06-4.14-3.24-6.48l-7.92,5.52L99,142.32c-.12,0-.36.12-.72.48l-1.44.6L96.6,143v-1.68a77.09,77.09,0,0,1,1.2-8c.72-4.8,1.08-8.28,1.2-10.44h.84a19.19,19.19,0,0,1,.6,5.64l-.24,2.88A76,76,0,0,1,107,126l7.68-5Zm-44-87.48a2.72,2.72,0,0,1,1-2.28l1.2-.6Q56.7,25.5,48.6,42.6a63,63,0,0,0-5.28,26.28q0,5.58,4.32,12.6c4,6.36,9,9.48,15.12,9.48,8.76,0,15.36-3.12,20-9.24l.24-.24L79,77.64l-4-4V72h.24c1.8.36,4.08,1.56,6.84,3.72l3,2.64a18.41,18.41,0,0,0,2.64-9.24c0-6.24-2.76-14-8.4-23.28ZM128,99a54.09,54.09,0,0,1,.48,8.64H142l1.44-9.72h.6l.48,1.32V102l-.48,7.32-1.08,9.48h-1.56c-.24-.12-.36-.72-.36-1.92,0-1,.24-2.88.6-5.88l-13.08.12a21,21,0,0,1-1.56,7.44h-.84l-.24-.36v-1.68c0-.72.12-2.52.36-5.28h-2l-.24-3.6h2.52L127.2,99Zm-19.8-7,6.12-3.48c3.84-2.28,6.24-3.6,7.2-3.84l1.08.24a33.92,33.92,0,0,1-3.36,7c-2.76,4.2-5.64,6.36-8.88,6.36q-7,0-22-12.24L87,84.84C83.64,93.12,77.76,97.2,69.24,97.2c-12.72,0-21.12-4.08-25.32-12.12-1.8-3.6-2.76-8.76-2.76-15.48,0-10,1-18.24,3-24.84,3.12-10,8.64-17.4,16.44-22.56,5.16.12,10.92,3.12,17.4,9.24a59.82,59.82,0,0,1,6,6.36l2.28,3.12-.12,1.44c-.36.48-1.32.72-2.76.72.36,1.8,1.68,5.88,3.72,12.24C88.92,61.44,89.88,66,89.88,69a43.83,43.83,0,0,1-1.56,12.24l1.56,1.32C97.2,88.92,103.32,92,108.24,92Zm-10.8,8.52.48,1.32-.48,1.8a3.09,3.09,0,0,1-1.68-.84l-8.88.24a41.23,41.23,0,0,0-6,7.32,15.22,15.22,0,0,0,3,3.72,7.63,7.63,0,0,0,4.92,1.68,37.49,37.49,0,0,0,11.64-1.8,16.67,16.67,0,0,0,5-2.28l1-.12c.12,0,.12.6.12,1.68s-1.08,2.28-3.24,3.84a11.71,11.71,0,0,1-7,2.76c-7.8,0-13-1.56-15.36-4.56a8.53,8.53,0,0,1-1.44-5.4c0-1.8,1-4,2.76-6.48a27,27,0,0,1,4.32-4.68l9.72.24Zm.24-70.32a77.2,77.2,0,0,0-2.88-9.12C91.32,13.32,84.6,9.48,74.64,9.48,55.8,9.48,42.12,20.28,33.84,42A104.35,104.35,0,0,0,28,65.4a87.3,87.3,0,0,0-1.2,13.08q0,26.46,13.08,61.32c2.76,7.2,7.2,18.12,13.44,32.88,6.84,16.2,12,28.68,15.36,37.2A593.56,593.56,0,0,1,97.32,306q13.14,63.72,13.08,139.2c0,4.44-.72,12.84-2.16,25.44A447.47,447.47,0,0,1,99.6,520.8Q82.68,591.9,50.88,592c-25.2,0-40.68-7.08-46.44-21.12a31.92,31.92,0,0,1-2.4-15l1-8.16q0-15.12.36-18c.48-3,2.64-10.68,6.36-23a11.91,11.91,0,0,1,2.4,7.32L10,526.44A137.17,137.17,0,0,0,7.8,547.68l-.24,7.08a30,30,0,0,0,1.68,10.32c3.24,9,11.4,13.56,24.36,13.56,11.64,0,21.24-1.56,28.8-4.8A37.61,37.61,0,0,0,79,560.52q5.22-7.38,9.36-20.52l7-26.52q10.8-43.56,10.8-68.28,0-71.64-13-133.2a612.84,612.84,0,0,0-28.56-94C50.76,184.8,41.16,160.8,36,145.92Q23,108.84,23,78.48c0-22.56,4.08-40.8,12.24-54.84,7-12,16-19.56,27-22.56C72.36-1.68,81.36-.24,89.16,5.52,97.44,11.4,101.52,20,101.52,31.44A6.32,6.32,0,0,1,101,34.2l-1.2,2C99.24,35.52,98.52,33.48,97.68,30.24Zm39.84,4.92c0,7.8-1.8,16.32-5.52,25.44-4.2,10.68-9.6,17.76-16.2,21.36l-7-.24c-2.52-.84-4-3.12-4.56-6.6a53.11,53.11,0,0,1-.36-8.16c0-2.16.72-8.52,2-19l2.28-16.32.48-.36c.24-.24.48-.36.6-.48l1.56.48a3.24,3.24,0,0,1,.6,2.28l-2.64,14.88c-1.8,10.2-2.76,16.32-2.76,18.36,0,5.88,1.08,8.88,3.24,8.88,9.24,0,16.2-7.32,21.12-22.08a122.37,122.37,0,0,0,5.4-24.12h.84A16,16,0,0,1,137.52,35.16Zm-4.68-29c4.92-3.24,8.4-5.64,10.32-7.2l.24,1.2-10,6.72,5.28,6.6c3.84,4.92,5.76,8,5.76,9.12,0,1.8-.12,2.28-.24,1.2l-.24.84C137.88,18,133.8,12.48,131.52,8c-3.72,2.52-6,5-7.08,7.44l-.36-.12a88.92,88.92,0,0,1-2.88,12l-.48-.48V24.72A55.71,55.71,0,0,1,122,14.88l-.24-1,.48-.36.48-2.4C124.32,4.68,125.64,1,127,0l.24,1.2a102,102,0,0,0-2.4,10.44c1.68-1.32,3.84-2.76,6.36-4.44l-.72-1.56.48-.24L132,5.16ZM167.76,24.6c-.36,9.72-.12,17,.84,22v47c.48,5.16,1,11.88,1.56,20.16l.6,13.56q0,23.58-6.24,130.08v68.28q-1.08,15.3-1.08,47.88c0,22,.6,41.88,1.68,60s1.56,36.36,1.56,54.84q0,40-.36,50.4a343.86,343.86,0,0,1-4.8,49.92A4.47,4.47,0,0,1,159,586a9.53,9.53,0,0,1-.72-3.84l2-37c1.32-25.44,2-44.4,2-56.76,0-14.52-.6-30.6-1.68-48s-1.56-39.84-1.56-66.84q0-35.82,1.08-53.64V252.6l3.48-57.84c2.16-37.32,3.24-60,3.24-67.8l-.6-11.52c-.48-6.6-1-12-1.56-16.08V52.2a162.43,162.43,0,0,1-1.08-21.84c0-7.68.12-12.72.36-15.24.36-6.36,1.32-10.56,2.88-12.36C168,7.56,168.24,14.88,167.76,24.6Zm55.08,164.88,36,.24,2.28,2.28a3.49,3.49,0,0,1,1,2c0,2.52-6.72,7.56-20,15.36l28.68.84.72,1a4.91,4.91,0,0,1,.36,2.28c0,1.2-.12,1.92-.48,2.28l-.84.6-38.52.48-3.72.84-3-2a1.5,1.5,0,0,1-.48-1.32c0-1.8,3-4.8,9-8.88a102.07,102.07,0,0,1,16.44-9.24c-10.92.12-18.84.24-23.76.6l-5.28.48-.24-.84a14.15,14.15,0,0,1-.24-2.64,5.81,5.81,0,0,1,.84-3.12A2.49,2.49,0,0,1,222.84,189.48Zm5.64-115.56c1.08,5.4,1.92,14,2.4,25.68.6,12.36,1.32,21.24,2.16,26.76,3.72-12.36,6.72-21.84,8.76-28.2,3.72-11.64,7.92-20.76,12.72-27.48q1.44,16.56,9.24,67.08,7.2,47.34,7.2,49.32l-.24,3.12-1.08,2.16a367.24,367.24,0,0,1-11.4-53c-2.4-16.2-4.32-34.44-5.64-54.84l-10.44,30.84-10.44,31.56c-1.56-5.64-2.52-14.28-2.76-25.92-.24-12.24-1.08-21.12-2.4-26.76a152.84,152.84,0,0,0-8.4,23.4q-1.62,5.58-6.48,24.84c-5.4,21.48-11.28,37.68-17.4,48.6l-.36-1a10.45,10.45,0,0,1-.12-2.28c0-1.56,4.44-17.4,13.32-47.28q11-36.18,20.28-66.36Zm13.08-14.28-6.84.12c-.6-.12-1-.6-1.32-1.44l-.24-.84-1.32,6-1.44,5.28,10.32-1.08,2.64-2.76.6-1.2a5.54,5.54,0,0,0-2.16-4ZM193.2,101.76l-1.56-.48a1.39,1.39,0,0,0-1.68,1.56c0,.6.6,1.32,1.68,2.16l3.72,2.52c3.6,2.52,5.4,5.16,5.4,8.16a6.18,6.18,0,0,1-.36,2.52l-1.2,1.68-15.72-.24a10.42,10.42,0,0,1-2.88-3.72,28.92,28.92,0,0,0-1.68-3.12l.24-1.56.48-.6a10.48,10.48,0,0,0,2.4,1.8,10.13,10.13,0,0,1,2.52,3.36l14.88-1.08c-.84-1.92-3-3.6-6.72-5-3.24-1.32-4.92-3-4.92-5.28a12.39,12.39,0,0,1,.48-3.24l.6-2.88c2-.24,4.68.84,7.8,3.36,2.76,2.16,4.08,3.6,4.08,4.32v1.68l-.24.36-.24.48a17.86,17.86,0,0,1-3.6-3.48A15.52,15.52,0,0,0,193.2,101.76Zm8.88-22.32c-1.92.24-4.32,1.44-7.08,3.72,1.8,2.52,4.56,7,8.28,13.2l-.6,1.56c-1.68-.6-3.6-3-5.76-7a17.93,17.93,0,0,0-4.2-5.64l-1.08,1-1.44.12-1,5.28a52.78,52.78,0,0,0-1.44,6.24l-.6.36L186,97.8c-.24-.24-.36-1-.36-2.28A62.93,62.93,0,0,1,187.08,85a109.8,109.8,0,0,0,2-11.88h.36c.36,3.24.6,6.48.72,10a18.65,18.65,0,0,1,3.36-1.44l.24-.12,1.56-.6c4.32-1.44,6.48-2.64,6.48-3.48,0-1.08-.12-1.56-.24-1.56l-.84-.12L190.2,75,190,73.32l.24-.84.36-.48,10.8.24,1.68,2.4a6.72,6.72,0,0,1,1,3.24c0,.84-.12,1.44-.36,1.56Zm31.08-28.56L233.4,55l-.12,1.92h6l2.64-.12.72-.48a4.61,4.61,0,0,0,.24-1.92,2.69,2.69,0,0,0-2.4-2.64l-7.32-.84c3.84-2.4,7-2.64,9.24-.84A5.59,5.59,0,0,1,245,54.48a5,5,0,0,1-1,3l-.12.24.72,1.2a18.37,18.37,0,0,1,.36,4.92,3.62,3.62,0,0,1-1.08,2.4,22.2,22.2,0,0,0-2.76,4.08l-6.84.84-2.88.6c-.6-.12-1-.72-1.32-1.56L230,70l-.48,2-.48.24-.48-1.08-.12-2.64a39,39,0,0,1,1-8.28,78.52,78.52,0,0,0,1.8-11h1.56Zm-11-45.6-2.64-2,.12,1.68c0,2.4-.6,9.72-1.68,22l-1.32,16c2.28-1.08,5.4-2.52,9.36-4.2q14.4-7.38,14.4-16.56c0-5.4-3.6-9.72-10.8-13.2A63,63,0,0,1,222.12,5.28Zm219,241.92c-.6,2-1.32,3.24-2.4,3.48a115.87,115.87,0,0,0-10.92-11.76c-7.2-6.6-13.44-9.84-18.84-9.84-25.32,0-41.88,4.8-49.92,14.4a20.79,20.79,0,0,0-5,11c-.12,1-.24,3.48-.24,7.56a22,22,0,0,0,4.92,14.28c2.76,3.24,7.32,6.84,13.68,10.56,4,2.28,10.8,6.24,20.76,11.64A241.38,241.38,0,0,1,419.28,316a214.46,214.46,0,0,1,29.64,26.76,130.47,130.47,0,0,1,18.48,26.76c13.56,26.28,21.72,45.24,24.72,57a116.26,116.26,0,0,1,3.24,21.84c.36,5.52.48,14.88.48,28,0,11.76-1.2,21.6-3.6,29.64-2.28,7.56-7.32,18.36-15,32.4l-8.64,16.2a49.88,49.88,0,0,1-15.12,15.36q-24.84,16-93.24,21.48-40-2.52-52.92-24.84a46.68,46.68,0,0,1-5.64-18q-.36-3.78-.36-13.68A152.65,152.65,0,0,1,303,517c1.56-10.8,3.24-16.2,5.28-16.2l2.4.36,2.28.36.24,1.56c-.84,2.28-2,7.68-3.84,16.2s-2.64,13.44-2.64,15a55.46,55.46,0,0,0,5.64,23.64c6.12,12.84,15.6,19.2,28.68,19.2q95.4,0,131.64-46.32Q491,507.18,491,476.4c0-19.8-2.4-37.32-7.2-52.32-5.16-16.2-14.52-34.68-28.08-55.68A140,140,0,0,0,423,333.48c-6.36-5-18-12.72-34.8-22.92-13.2-8.16-22.44-15-27.6-20.52a39.91,39.91,0,0,1-11.16-27.84c0-5.28,1.44-11.64,4.32-19q5.58-13.86,14-19.08c15.6-9.48,32.4-10,50.4-1.68a63.81,63.81,0,0,1,17,11.28q6.48,5.94,6.48,9.36A16.78,16.78,0,0,1,441.12,247.2Zm-81.36-58.08,10.32.6,30.48.24.6.48a4.61,4.61,0,0,1,.24,1.92c0,2-3.48,4.8-10.44,8.52a95.34,95.34,0,0,1-12.24,5.64l10.92,1.08,19.56,1.56,1,.6c.36.24.48.84.48,1.92a5.37,5.37,0,0,1-.6,2.64L409,215.4l-8.4-.24-8.88-.6-13.8-.6-10.08.12-10.2-.36-.36-.6A7.5,7.5,0,0,1,357,211c0-1.56,4.56-4.32,13.56-8.28,3.48-1.56,9-3.72,16.8-6.72l-25.44-.84-1.56-1a2.87,2.87,0,0,1-1.2-2.52,4.34,4.34,0,0,1,.36-2.16ZM386,37.08l-1.92,1.08a30.06,30.06,0,0,1-1.56-6.6,61.76,61.76,0,0,0-2.64-9.6c-3.48-8.28-10-12.48-19.68-12.48q-25.38,0-35.64,8.64c-4,3.36-6,7.32-6,11.76,0,7.44,4.32,13.92,12.84,19.32A110.23,110.23,0,0,0,344.76,56l15.12,7c12.84,6,22.32,12.36,28.44,19.2,8.52,9.48,12.84,21.36,12.84,35.64a57.82,57.82,0,0,1-3,16.68,85.15,85.15,0,0,1-11.88,24.36c-15,21.12-37.8,31.68-68.16,31.68-14.4,0-24.6-6.36-30.6-19a51.49,51.49,0,0,1-4.92-22,57.42,57.42,0,0,1,.36-7.8c.48-3.48,1.56-5.76,3.12-6.84a5.2,5.2,0,0,1,2.76,4.92,19.53,19.53,0,0,1-1.2,5,19.53,19.53,0,0,0-1.2,5,28.58,28.58,0,0,0,1.32,6.84,43.75,43.75,0,0,0,4.68,9.84c5.28,8.52,12,12.72,20.16,12.72q46.8,0,70-27.36a67.49,67.49,0,0,0,11.88-20.52q2.88-8.1,2.88-13c0-12-4.32-21.84-12.84-29.64-5-4.68-14.4-10.32-28.2-16.92S333.12,59.76,328,54.84c-8.52-8-12.84-18.12-12.84-30.48q0-9.9,11.16-17.28A48.5,48.5,0,0,1,351-.6c10-.48,18.12,1.68,24.6,6.48C383,11.52,386.76,19.8,386.76,31A21.35,21.35,0,0,1,386,37.08ZM219-.6q12.06,2,18,8.64a20.67,20.67,0,0,1,5,14.16,29.68,29.68,0,0,1-5.16,17c-4.56,6.84-11.28,10.32-20,10.32l-3.24-.36L212.4,49l-.36-.72a3.17,3.17,0,0,1-.48-2.16c0-.24.36-.6,1.2-1.08l-.12-.6c0-3.72.6-10.92,1.8-21.36l2.4-22.2h1.92V-.48Z" transform="translate(-1.96 1.08)"/></g></svg>