<svg id="Layer_1" data-name="Layer 1" xmlns="http://www.w3.org/2000/svg" xmlns:xlink="http://www.w3.org/1999/xlink" viewBox="0 0 591.97 591.1"><defs><style>.cls-1{fill:none;}.cls-2{clip-path:url(#clip-path);}.cls-3{fill-rule:evenodd;}</style><clipPath id="clip-path" transform="translate(4.33 -2.78)"><rect class="cls-1" width="588.36" height="594"/></clipPath></defs><g class="cls-2"><path class="cls-3" d="M272.16,455.64a73.5,73.5,0,0,0-37.32-4.56l1.32-56q-8.46,17.64-6.84,39.24c.72,10,1.32,19.8,1.68,29.76a99.2,99.2,0,0,1,40.32,0Zm18.12,11.16a401,401,0,0,0-24.6,48.6A313.06,313.06,0,0,0,250,483c-6.36,10.44-12.36,20.88-18.12,31.32l-2-13c-1.56-13.32-6.24-24.12-13.92-32.16l-.36.84c-1.2,4.44-.6,7.56,1.68,9.36a5.75,5.75,0,0,1,1.08,2.52,245.1,245.1,0,0,0,13.8,47.88c6.48-10.68,12.6-21.36,18.48-32.16a82.06,82.06,0,0,0,16.2,33.24,57.29,57.29,0,0,0,3.48-6.6,111.12,111.12,0,0,1,9.24-17.52c8.4-13.08,12.12-26.4,11-40.08Zm-112.08-206-1.2,7.08,43.08.6c-2.76,19.08-5.16,38-7.44,57.12a232.53,232.53,0,0,0,2.76,71.88,9.07,9.07,0,0,0,2.16-5.64c1.8-41,3-82.2,3.36-123.36l26.28,1.32-.48-7.56c-11.76-2.52-23.64-4.56-35.52-6.24A58.53,58.53,0,0,0,178.2,260.76ZM129.6,63a331,331,0,0,0-9.72,74.76l5.88-27.36L147.6,92.76l28.08,43.32c-.6-13.32-5.16-25.92-13.92-37.8L153.84,87.6l13.08-11.88-1.08-8-38.28,31.8A108.36,108.36,0,0,0,129.6,63Zm37.08-14c2.88,6.12,6.12,10.68,9.72,13.8,2-7.8.6-15.36-4.08-22.44C153.24,11.16,125-1.08,87.72,3.84A210.79,210.79,0,0,0,47,16.8,43.77,43.77,0,0,0,22.56,41.88c-11.64,29.52-9.48,58.68,6.24,87.36A440,440,0,0,0,67.32,187.8c7.56,9.72,15.36,19.32,23.52,28.92q32.76,38.52,61.56,79.56a331.87,331.87,0,0,1,48.36,103.2q14.94,54.18-13.08,103.44a96.27,96.27,0,0,1-13.56,18.48Q136.86,561.72,81.36,572q-35.64,6.66-54.24-22a184.19,184.19,0,0,1-22.2-48A42.07,42.07,0,0,1,4.08,481a116.64,116.64,0,0,0,1.92-41c-7.68,10.92-11,23.64-10.2,38.16A227,227,0,0,0,11,547.8Q25.8,586,67.2,589a101.37,101.37,0,0,0,34.92-3.6q56.7-16.38,85.44-64.92a168.11,168.11,0,0,0,23.88-93.12,217.73,217.73,0,0,0-15.84-74.76,292.84,292.84,0,0,0-43.68-74.64Q116.1,233.64,81.36,188.4c-6.72-8.76-13.8-17.4-21.24-25.68q-34.2-38-39.72-87.84a30.56,30.56,0,0,1,5.28-21.72q18.18-25.74,51-33.72,40.5-9.72,73.8,11.16A44.26,44.26,0,0,1,166.68,49Zm95.16,155.4c19.08,2.76,26.16,14.16,21.12,34.2-3,11.88-10.8,18.6-23.4,19.92l1.56-61.2A517.53,517.53,0,0,0,251,335.76a173.77,173.77,0,0,0,8-65.76L271,268a230.57,230.57,0,0,0,17.52,66.12,216.82,216.82,0,0,0-15.12-67.2q26.82-24.12,10-57.24a29.78,29.78,0,0,0-14.88-14l-4.44.6-2.76,4.8Zm-78.48-18.84-2.28,3.36-24.84.12.12-49a692.56,692.56,0,0,0-6.84,121.56l5.76-60.84c12.6,5.16,22.92,1.56,30.84-10.92q17.46-27.54-7.2-48.6a27.55,27.55,0,0,0-18.6-.36l-2.28,1v6.48c12.6-.48,22.8,4.08,30.6,13.8A33.09,33.09,0,0,1,183.36,185.52ZM329.64,15.6A262.25,262.25,0,0,0,321,85l.6,129.12.72,129c.24,42.84,1.08,85.8,2.64,129.12a353.41,353.41,0,0,1-3.72,64.68A123.84,123.84,0,0,0,323,585l1.2-1.08A356.08,356.08,0,0,0,332.16,507l-.48-129q-.18-64.44-1.92-129c-1.32-43.08-1.68-86.16-1.32-129.12.12-21.72,1.32-43.32,3.36-64.8a151.84,151.84,0,0,0-1.2-40C330,15,329.76,15.24,329.64,15.6ZM493.56,418.08c-1.56,23.16-2.28,46.32-2,69.72a197.74,197.74,0,0,0,22.08,89.4c12.6,8.16,24.24,7.68,34.8-1.32a110.17,110.17,0,0,0,12.84-13.08A65.52,65.52,0,0,0,571,547.44c-.84,14.76-1.2,29.52-.84,44.28a2.87,2.87,0,0,0,2,2.16h1.2a11,11,0,0,0,2.4-6.48q3.24-45.18,4.32-89.28l-1.32-.48-7.32-1.08-24.12,1.56a12,12,0,0,0-1.08,6.48,8,8,0,0,0,1.44,4.08,87.31,87.31,0,0,0,27.24,2.76,18.68,18.68,0,0,0-1.2,4.44l-1.2-4q-5,14.58-11.52,29.88-12.6,29.7-42.36,20.76a122.81,122.81,0,0,1-17.4-56.88c-2.28-42.48-3-85.2-1.92-128.28.84-32.4,2.52-64.56,5.28-96.6,2.16-26.28,12.48-48.36,31.08-66.48a23.71,23.71,0,0,1,7.2.72q29.34,9,42.12,36.84,3.78-2.52,2.16-7.56-11.7-39.06-51.48-44.64-24.3,18.54-31.44,49.2a430.33,430.33,0,0,0-11,79.8Q491.4,373.32,493.56,418.08ZM470,33.84q-1.8,46.62-2,93.36-.36,64.26.24,129.12c.36,32.28.36,64.44.24,96.48l-.72,129.12c-.12,11.52-.36,23-1,34.56-1.8-19.2-4.2-38.4-7.08-57.6q-9.54-63.18-21-125.88-5.76-31.68-13.56-62.88-15.66-62.46-29.64-124.8Q381.3,82.86,370.44,20.52l-.36,1.2-.48-3.84c-4.08,8.16-6.24,17.76-6.48,28.68q-1.44,64.44-.24,129.12l2.16,129q.9,64.44.36,129-.36,65-6.6,129c-1,10.2,1,18,5.88,23.4A854.89,854.89,0,0,0,372.6,469.2l.6-129.12q.54-64.8-2-129.12-2.34-64.62.48-128.88L372,69q7.92,38,16.32,76.2l28.32,126.48Q430.5,333.6,441,396.48q10.26,62.28,16.2,125a400.81,400.81,0,0,0,10.92,62.4c2.16.36,3.24-.36,3.12-2.4l-.24-6.6a130.55,130.55,0,0,0,4.68-37c-.12-43.08.36-86,1.32-129.12s.84-85.92,0-129-1.2-86.16-.84-129.12c.36-43.32-.12-86.16-1.56-128.28C471.72,25,470.16,28.8,470,33.84Z" transform="translate(4.33 -2.78)"/></g></svg>