<svg id="Layer_1" data-name="Layer 1" xmlns="http://www.w3.org/2000/svg" viewBox="0 0 528.64 551.7"><defs><style>.cls-1{fill-rule:evenodd;}</style></defs><path class="cls-1" d="M161.76,57Q142.5,23.34,105,19.2C87.84,21.12,76.44,29.88,70.92,45.36Q51.84,99,82.56,147.12a644.71,644.71,0,0,1,50.88,96.12c6.6,15.48,13.68,30.48,21.36,45.12a335.82,335.82,0,0,1,36.36,116.88q7.2,60.84-19.2,115.56a53.16,53.16,0,0,1-10.44,14.76c-15.48,15.36-35,22.56-58.44,21.6Q69.24,555.72,58.32,526a94.07,94.07,0,0,1-5.4-41.64,186.53,186.53,0,0,0-1-45.72Q41,482,51.24,526.92a45.59,45.59,0,0,0,9.36,19.2c18.36,22.92,43.08,30,73.92,21,23.28-6.84,39.12-21.84,47.64-45.24q21.06-57.6,13.68-119.76a281.45,281.45,0,0,0-13.56-58.68q-15.3-43-34.2-84.6c-6.36-14.28-13.08-28.2-20.16-42-14.52-28.44-30-56.28-46.2-83.64Q55.08,88.56,78.24,42.48c24.36-16.92,46.32-14.88,65.64,6.24a133.37,133.37,0,0,1,23,34.08C168.24,74.16,166.56,65.52,161.76,57Zm66,152.4q1.08,65-1.8,129.12c-1.08,21.72-2.76,43.32-5.16,64.68-1.44,12.12-.12,22.68,3.84,31.92a462.84,462.84,0,0,0,4.56-58.44l2-129.12c.6-43.44.36-86.4-.48-129A902.12,902.12,0,0,0,227.76,209.4ZM311.64,81.48A41,41,0,0,0,288.48,98a168.68,168.68,0,0,0-25.2,55.44A440.92,440.92,0,0,0,250.2,279.72l.36,6.72-4.08,1-.24.84a14.05,14.05,0,0,0,.48,8l4.2-.72,4.92,111.72a46.69,46.69,0,0,0,13,30.72q25.74,26.82,56,7.08,33.48-22.14,38-59a323.36,323.36,0,0,1-24.72,34.2C324.84,436.44,308.52,442,289,436.8c-14-3.72-22.2-12.48-24.36-26-3.48-22.68-6.24-45.48-8-68.64-1.2-15.72-1.92-31.44-2-47.16q40.14-7,81-11.4l.48-.84a10.8,10.8,0,0,0-1.08-10.44,674.26,674.26,0,0,0-80.52,13.2q0-35.46,3.48-70.92A316.93,316.93,0,0,1,283.2,118.2q13-29.7,44.76-24.36a77.39,77.39,0,0,1,7,7.08,10.28,10.28,0,0,0,4.08,2.76l.12-.84C337.44,87.84,328.32,80.76,311.64,81.48Zm165.12-38.4A312.87,312.87,0,0,0,462.6,95l-9.72,53.52q-11,63-17.76,126.84c-2.4,21.24-5.16,42.48-8.16,63.6q-9.18,62.1-15.12,124a29.18,29.18,0,0,0-.24-5.64q-7.74-63.9-16.2-127.56-8.64-63.54-23-126.36A1067.09,1067.09,0,0,1,351.48,77.28c-1.32-12-4.32-22.2-9-30.72a2.91,2.91,0,0,0-.48,1.56,131,131,0,0,0,1.32,20.52q8.1,56,20.52,110.88,14.22,62.82,23,126.72c5.76,41.88,11,83.76,15.72,125.88a311.89,311.89,0,0,1,2,31.68c.12,12,2.4,22.32,6.6,31.08a16.47,16.47,0,0,0,4-9.36Q422.58,422,430.32,358.2l9.48-79.08q7.56-63.72,18.84-126.84C461.4,136.68,465,121.2,469.2,106A204.61,204.61,0,0,0,476.76,43.08ZM567.6,106.2c3-3,3-7.32.12-12.84a14.54,14.54,0,0,0-5.52-6.24c-15-7.2-29.4-4.8-43.08,7.08a114.2,114.2,0,0,0-27,35A239.57,239.57,0,0,0,477,166.68a247.52,247.52,0,0,0-9.36,43.8c-1.68,13.2-3,26.4-3.84,39.6-1.08,15.48-1.68,30.84-1.68,46.2l.6,32.16c.36,10.68.84,21.24,1.44,31.92,1,15.84,2.52,31.56,4.56,47.28,2.16,16.2,10.32,28.08,24.6,35.4,13.8,7.08,27.12,5.16,40.2-5.76a149,149,0,0,0,30.36-34.56,70.67,70.67,0,0,0,11-35.52,374.52,374.52,0,0,1-43.2,54.48A79,79,0,0,1,518.4,433q-42.3,4.32-45.6-39.24c-3.24-40.44-4.68-81-4.56-121.68l68.64-12-.48-7.68q-34.56-4.5-68.28,10.8a275.36,275.36,0,0,1,25.56-127,71.76,71.76,0,0,1,38.76-37.44,84.57,84.57,0,0,1,20-5.64C559.8,95.4,564.84,99.84,567.6,106.2Z" transform="translate(-46.28 -19.2)"/></svg>