<svg id="Layer_1" data-name="Layer 1" xmlns="http://www.w3.org/2000/svg" viewBox="0 0 487.13 415.2"><defs><style>.cls-1{fill-rule:evenodd;}</style></defs><path class="cls-1" d="M229.92,332.88l43-1.56c-2.52,38.4-5.16,77-8.16,116a317.64,317.64,0,0,0,1.8,64.32c.84-.24,1.2-.6,1.32-1,3-19.44,5-39.12,6.24-59a1009.24,1009.24,0,0,0,.48-120.48c11.88-1.32,23.64-3.24,35.52-5.76l.6-.6c3.48-5.64,3.24-10.92-.6-16.08-19.56,3.24-39.24,6.24-59,8.88a144.09,144.09,0,0,1-23.76,6.24l-.36.84a10.57,10.57,0,0,0,.36,7.2A5.9,5.9,0,0,0,229.92,332.88ZM166.44,136.2Q159.42,100,118,102q-35.1,12.78-32.4,52.08Q88.62,198.9,117.24,234q23.4,28.8,47.88,57a183.5,183.5,0,0,1,20.76,29.4q29.34,51.12,22.32,108a54.94,54.94,0,0,1-13.92,30.36q-26.82,29.7-67.32,37a168.55,168.55,0,0,1-63.48-.48c-14.64-2.88-25.2-10.8-31.56-23.88A113.52,113.52,0,0,1,20.16,421c-.12-15.72,4.92-28.68,15-38.88L34,380.4l-.24-.72-.12-.84-.36-.84-.72-.84-1-.72-1.08-.84-1.2-.84a12.72,12.72,0,0,0-6.48,7.44A182.56,182.56,0,0,0,15,434c-.12,23.16,7.08,43.44,21.72,60.6a39.36,39.36,0,0,0,22.08,13.2q62.1,13.14,118.56-17a53.94,53.94,0,0,0,24.48-26.64q25.92-60.12,2-121.56a280.89,280.89,0,0,0-68.76-102.24q-38-36-42.36-87.36a36.26,36.26,0,0,1,3.84-20q13.32-26.46,45.24-16.32c16.68,5.4,23.76,15.48,21.36,30.24A11,11,0,0,0,166.44,136.2Zm122,39.6A774.78,774.78,0,0,0,313.8,301.08c4.2-7.8,4.8-16.44,1.8-26a262.38,262.38,0,0,1-9.36-42.84q-8.46-63.54-22.2-125.64a111.47,111.47,0,0,0-11.28,34.56,1255.08,1255.08,0,0,1-27.12,125.4c-.24-11.28-.84-22.56-1.68-33.84q-4.86-63.54-11.88-125.76A495,495,0,0,0,212,192q-4.68,31.68-10.68,63.12c-2.28,11.88-1.68,22.2,1.92,31,1.32-6.6,2.4-13.08,3.24-19.56Q215.16,203,229.92,141q4.32,42.3,6.12,85.2a360.16,360.16,0,0,0,8,63.24,98.5,98.5,0,0,0,12.6-32.64q13-63.18,26.64-125ZM360.36,108q-2.7,41.58-4.56,84.36-2.7,64.26-7.56,128.28c-3.24,42.84-7.32,85.56-12.48,128.16A429.87,429.87,0,0,0,333,513c1,0,1.56-.24,1.8-.6A46.71,46.71,0,0,0,341,492l10.08-127.56,10.32-128.16A750.4,750.4,0,0,0,361,108Zm54.24,12.84q41-12.78,65,21.72,31,44.82,7.08,96A227.88,227.88,0,0,1,444,301a72.21,72.21,0,0,1-31.44,19.44,35.83,35.83,0,0,0-9.84,4.68q4.68-45,7.92-90.12a921.27,921.27,0,0,0,.84-113.64Zm-7.68-10.68a4,4,0,0,0-1.08,2.4v3.24a10.78,10.78,0,0,0,.84,3.24,7.7,7.7,0,0,0,2.52,1.68q-3.06,35.82-4.32,73.56-2.34,63.9-8.4,127.44c-4.2,42.84-9.24,85.68-15,128.28A238.76,238.76,0,0,1,375,481.92c-3.36,12.24-2.64,22.92,2.16,32.16a89.75,89.75,0,0,0,6.6-25.08l14.88-126.72,2.16-19a50.84,50.84,0,0,0,8.76-4,203,203,0,0,0,32.88-22.92,24.43,24.43,0,0,0,1,10.32,488.35,488.35,0,0,1,14.88,65.52q9.54,63.18,22.56,124.8c1.8.12,2.64-.6,2.52-2.4a785.81,785.81,0,0,0-8-83.16,900.49,900.49,0,0,0-26.64-120.84Q476.76,283.5,492.36,245q18.36-45.72,2.28-91.68c-9.24-26.28-27.36-42.6-54.12-49A104.86,104.86,0,0,0,410.64,109l-.24-2.4-.12,2.52Z" transform="translate(-15 -101.9)"/></svg>