<svg id="Layer_1" data-name="Layer 1" xmlns="http://www.w3.org/2000/svg" viewBox="0 0 424.05 575.85"><defs><style>.cls-1{fill-rule:evenodd;}</style></defs><path class="cls-1" d="M241,520.32a49,49,0,0,0,4.32,10c10.2,17.64,19.92,35,29,52a3.62,3.62,0,0,0,1.08-3,138.75,138.75,0,0,0-28.56-63.48l2.16-1.44c13.32-8.16,18.84-18.6,16.68-31.32a371.47,371.47,0,0,0-43.08,43.8A281.78,281.78,0,0,0,221,489.24a127.1,127.1,0,0,0-4.68,34.08,171.82,171.82,0,0,1-4.2,36.12c-2,9.12-1.08,16.8,2.64,23.16l.6-1a280,280,0,0,0,6.48-42,45.37,45.37,0,0,0,11.28-10.8A59.29,59.29,0,0,1,241,520.32ZM253.32,390c-2.52,19.2-4.32,38.88-5.52,58.92a114.3,114.3,0,0,1-2,15.84q-3.42,16.74,2.88,27.72l.36-.84a452.89,452.89,0,0,0,6.12-101.76l19.8-1.32.48-.84a11,11,0,0,0-1.08-10.56,196.23,196.23,0,0,0-54.6,6.48l-.48.84a11.7,11.7,0,0,0,.48,7.32ZM236.88,282.72c18.36,10.32,20.64,24,6.6,40.92a54.91,54.91,0,0,1-20.76,0c.36-14,0-28-.84-42A17.34,17.34,0,0,1,236.88,282.72ZM219.12,282l.48.12c-1.56,14-2.64,28.56-3.48,43.56a355,355,0,0,0,1.44,55.8l.6-.6c2-15.12,3.48-30.24,4.2-45.48,13.92,5.4,23.88,1.32,30-12.12q16-35.46-16.44-54a24.09,24.09,0,0,0-14.76,2.16l-.12-1.68-.24,1.92L218.28,273a7.3,7.3,0,0,0-1,3.24A7,7,0,0,0,219.12,282Zm-87.6-180.84c17.16,6.6,23.4,19.08,18.84,37.32a14.28,14.28,0,0,1-3.48,6.48l-16-4.8-5.4,3.84.12,6.36,10.2,1.8c-20,7.56-31.56,1.8-34.8-17.4-4-23.88,5.64-35.88,28.8-35.76Zm36.72-48.6,1.44,1.68a5.1,5.1,0,0,0,2,1.2h1.2c1.56-10.2-1.92-18.6-10.68-25.08-18.72-14-40.68-19.56-65.88-16.8a26.34,26.34,0,0,0-13.56,7q-27.18,25.38-31,63.24c-2.52,24.48,2.76,46.68,15.6,66.72a777.59,777.59,0,0,0,57.12,77.64A372.89,372.89,0,0,1,167.4,291.6,479.26,479.26,0,0,1,210.48,407a125.81,125.81,0,0,1,3.24,28.32q0,64.8-52.56,105.6a58.76,58.76,0,0,1-22,10.8,116.47,116.47,0,0,1-66.24-2Q22,533.16,19.08,481.44a84.73,84.73,0,0,1,4.44-31.92c4.32-12.84,3.84-23.88-1.56-33.12a123.11,123.11,0,0,0-10.8,43,159.62,159.62,0,0,0,5.52,54.36A62.18,62.18,0,0,0,40.08,548a149.35,149.35,0,0,0,66.84,28.08,44.77,44.77,0,0,0,24.48-2.88q58-23.58,82.08-82a101.76,101.76,0,0,0,7.8-38.88A327.66,327.66,0,0,0,199.56,336a380.88,380.88,0,0,0-24.84-52.44,665.62,665.62,0,0,0-66.48-95.4L85.68,161.28Q62.82,134.1,60.6,100q-2.52-39.42,25-66.36a131.34,131.34,0,0,1,64.32,1.32,14.21,14.21,0,0,0,6.36,3.72,6.43,6.43,0,0,1,2.88,1.92l1.56,1.68,2.76,2.4a13.5,13.5,0,0,0,3.24,5.88Zm70.32,127.68L213,242.16l-17.64-60.84-14.88,58.44A171.55,171.55,0,0,0,166,202.32c-5.28-10.08-11.4-18-18.48-23.64l33.24,79.8A243.34,243.34,0,0,0,196.44,204a187.24,187.24,0,0,0,16.8,55.56c6.36-13,13.2-25.8,20.28-38.52a68.48,68.48,0,0,0,8.64-27.12A18.89,18.89,0,0,0,238.56,180.24Zm-38.88-22.8c12.12-10.2,17.64-23.76,16.8-40.68a103.6,103.6,0,0,0-3.84-23.4l-6.72,45.48-7.56,6.24-8.64.24-7.32-7.08-.24-43.8c-6.6,13.8-8.16,28.8-4.8,44.88C179.88,151.08,187.32,157.08,199.68,157.44ZM184.8,155c-6.36,3.72-13.8,4.8-22.2,3.24l-9.12-8.88c8.88-21.24,5-38.88-11.64-53.16-11.16-9.48-22-9.72-32.4-1Q86,115.08,94.92,145.2a42.8,42.8,0,0,0,11.64,19.32c15.72,6.36,29.64,4,41.88-7.2l13.44,12.84q16.2,6.3,22.68-9.72ZM299.88,42.72q.54,64.08-2.16,128.28l-5,129.12c-1.56,42.72-3,85.44-4.08,128.16s-3.48,85.56-7,128.16c-1.08,12.24.72,23,5.16,32.28,2.76-1.56,4.08-4.2,4.2-7.8,1.92-42.6,3.48-85.44,4.68-128.28l3.72-129c1.08-42.84,2.52-85.68,4.2-128.28l4.56-128.28a297.69,297.69,0,0,0-2.4-47.88C301.8,25.56,299.88,33.48,299.88,42.72ZM341.4,38.4l-4.56,128.28q-2.34,64.62-4,129L329.76,424.8c-1.08,43-4,85.68-8.88,128.16-1.44,12.12-.12,22.8,3.84,32.28l1.56-1.8a704.07,704.07,0,0,0,85.8-.6,8,8,0,0,0,1.44-4.08l.24-3.24-.12-2.52a16.18,16.18,0,0,0-2.16-5.64l-.72-.36a143.09,143.09,0,0,1-35.16-.72l-45.36,3.6q1.62-46.62,4.44-93.24c2.76-42.84,4.32-85.92,4.68-129s1.44-86.16,2.76-129c1.32-43.08,3.36-86.16,6.12-129a356.48,356.48,0,0,0-1.44-64.2Q341.76,29.76,341.4,38.4Zm36.84-9.48a961.13,961.13,0,0,0-7.68,105.6q-.9,64.62-3.84,129-2.88,64.08-3.48,128.28c-.36,43.32-2.76,86.4-7,129a73.84,73.84,0,0,0,1.2,23.28,15.81,15.81,0,0,0,1.32,9,222.63,222.63,0,0,0,72.48.84l.72-.72c4-5.64,3.72-11-.72-16.08L362.76,540c2-20.28,3.48-40.68,4.32-61.32,1.56-43.08,2.64-86,3.36-129.12s2.28-86.28,4.32-129.12L381,91.56a543.22,543.22,0,0,0-.6-64.2C379.08,27.12,378.36,27.6,378.24,28.92Z" transform="translate(-10.75 -12.87)"/></svg>