<svg id="Layer_1" data-name="Layer 1" xmlns="http://www.w3.org/2000/svg" xmlns:xlink="http://www.w3.org/1999/xlink" viewBox="0 0 463.25 596.28"><defs><style>.cls-1{fill:none;}.cls-2{clip-path:url(#clip-path);}.cls-3{fill-rule:evenodd;}</style><clipPath id="clip-path" transform="translate(-48.72 2.16)"><rect class="cls-1" x="48.72" width="463.56" height="594.24"/></clipPath></defs><g class="cls-2"><path class="cls-3" d="M162.6,561.84l.84,1.32a6.26,6.26,0,0,1,.6,2.76c0,2-2.76,4.92-8.28,8.88-6.84,4.68-10.44,7.32-11,7.92l1.92.72,3.84.6,16-.24c.12-.6.84-1.32,1.92-2.4a4.58,4.58,0,0,1,1.56,1.32,5.22,5.22,0,0,1,.6,2.76,9.16,9.16,0,0,1-.84,3.72L168,592.68H149.88l-.48-.48q-7-.54-7.56-1.08l-10.32-.6-.72-1.2a9.06,9.06,0,0,1-.36-2.76,6.38,6.38,0,0,1,1.08-4.08,10.09,10.09,0,0,1,3-2.16,37.07,37.07,0,0,0,10.8-8.4l-9.48-.84-.72-1.32a8.06,8.06,0,0,1-.36-2.76l.24-2.4.84-1.68,19-.72v-.6Zm72.84-59.28c1.44,3.72,2.16,6,2.16,7.08a18.77,18.77,0,0,1-1.2,6.6,13.58,13.58,0,0,1-3.48,5.4,44.52,44.52,0,0,1,3.36,7.8c2.28,6.6,3.48,11.88,3.48,16l-.24,2.4-1.08,1.68c-2.4-1.32-4.92-5.76-7.68-13.2a57,57,0,0,1-3.72-13.8H222.6l-1,5c-2.52,13.08-4.2,20.76-5.16,23.28a7.12,7.12,0,0,1-2.16-1.56,5.22,5.22,0,0,1-.6-2.76c0-3.48.84-10.68,2.4-21.84,2-14.28,4.32-23.88,6.84-29l1.32.84.84-.84,6.84.24C232.8,496.56,233.88,498.84,235.44,502.56Zm-10,1L224,514.08l6.84-.6,1.44-1.32a4.28,4.28,0,0,0,1-2.76c0-2.4-1.68-4-4.92-4.68A10.94,10.94,0,0,1,225.48,503.52Zm-42,23.16c1.8-.6,7.68-1.44,17.88-2.4v-.6l11,.36.6.84a9,9,0,0,1,.24,2.4l-.36,2.28-.72.6-5.64.36-6.24.84a83.32,83.32,0,0,1-1.44,10c-.84,5.4-1.44,8.4-1.8,9.24a2.6,2.6,0,0,1-1-1.08l-.12-2.76a59.65,59.65,0,0,1-.48-9,18.19,18.19,0,0,1,1-6.12l-7.44.84q-3.42.54-4,1.08c-2.16-1.56-3.24-2.64-3.24-3.12v-2.28C181.92,527.52,182.52,527,183.48,526.68ZM197,504c0,1.8-.12,2.52-.36,2.4l-.48.84a8.92,8.92,0,0,1-2.76-1.68,3.94,3.94,0,0,0-2.64-1.08c-1.8,0-3.84,1.44-6.24,4.32-2.28,2.64-3.48,4.8-3.84,6.48l3,2.76,9-.24,2.64-2.64a18,18,0,0,1,2.76-2.28l.72,1a4.91,4.91,0,0,1,.36,2.28,5.79,5.79,0,0,1-1.32,3.6l-4.92,4.8H182.4a11.1,11.1,0,0,1-3.12-5.28,11.86,11.86,0,0,1-.72-3.72,18.42,18.42,0,0,1,2.88-10.2,17.16,17.16,0,0,1,6.36-5.76c2.4-1.08,4.56-1.32,6.36-.6S197,501.36,197,504Zm-3.12-37.32c10.44-7.32,16.2-11.4,17.16-12.24a8.57,8.57,0,0,1,2,1.56,5.22,5.22,0,0,1,.6,2.76c0,2.64-4.92,7.92-14.64,16l-.24.24,2.76,6.6c3,7.56,4.56,12.6,4.56,14.88l-.24,3.24-.6.36-1.32.72c-1.2-1.8-3-5.76-5.4-11.64a71.47,71.47,0,0,1-3.84-10.8q-7.38,5.76-11.16,8.28c-1.68,7.56-3.24,13-4.68,16.32-1.32-.84-1.92-2.52-1.92-5.28,0-3.12.72-9.36,2.28-18.6,1.8-11.16,3.72-19.08,5.76-23.52a10,10,0,0,1,2.16,1.56,5.22,5.22,0,0,1,.6,2.76,83.56,83.56,0,0,1-1.44,13Q189.42,470.1,193.92,466.68Zm72.6,65.16-1.32,15.72,6-.24a9.58,9.58,0,0,0,6-2.4c1.8-1.56,2.76-2.88,2.76-4.2-2.52-4.44-4.2-7.08-5.16-8l-8.16-.6Zm-.84-7.2v-.24l.12-1.2h2l7.2.84c5.88,2.16,8.88,7.92,8.88,17.16a20.52,20.52,0,0,1-2.4,8.52c-2,4.32-4.68,6.48-7.8,6.48q-7,0-8.64-2.16c-.24-.12-.36-.48-.48-1l-.84,8.52c-1.92,17.4-3.24,27.12-3.84,28.92-1.32-.72-1.92-2.64-1.92-5.64,0-15.24.24-26,.72-32.52,1.08-12.48,3.24-22,6.6-28.32Zm26.4-46.32c1.32,2,3.6,9,6.72,20.76s4.68,18.72,4.68,21.24l-.24,3.12-1.08,2.16c-2-3.72-3.84-9.12-5.64-16.2-2.4-9.24-4-15-4.68-17-1.44,2.64-3,7.68-4.8,15-1.8,6.84-3.72,12.12-6,15.84l-1.44.24q-.54-4.86-1.08-15.12c-.36-7.08-.72-12.24-1.08-15.72l-.24-1.32c-1.44,3.24-3.6,8.4-6.36,15.72-2.64,7-4.8,12.12-6.36,15.36l-.72-1.32a8.06,8.06,0,0,1-.36-2.76q0-3.78,6.84-21.6c3.6-9.72,6-15.72,7.2-18.12q3.06,3.78,4,13.32a140.1,140.1,0,0,1,.36,15.12l.36.24c.84-3.48,2.16-8,4-13.44L291,479Zm-4.32-35.52-2.64-2.64a13.43,13.43,0,0,1-2.52-2.76l-8.4-.48-1.32-.84.24,6.12-.24,4.8,10.8-.72,1.92-1.44Zm2.52,7.68q-2.16,5-6.84,5l-11.28-.24-.12,1.44c-.84,9.84-1.2,17.28-1.32,22.32-.12,0-.24.12-.6.48l-.72,1-2.16-1.68a4.93,4.93,0,0,1-.6-2.76c0-11.88.12-19.92.36-24.24.6-9.72,2-16,4.08-18.84l-.12-1a21.71,21.71,0,0,1,.24-3v-1.08l12.48.84c3.84,3.12,6.12,5.64,7,7.44.6,1.2,1,3.48,1,6.84A20.56,20.56,0,0,1,290.28,450.48Zm23.16.84c0,4.56-.36,11.76-1.2,21.72a167.24,167.24,0,0,1-1.8,17l.12-.12,1.32-.6A3.1,3.1,0,0,1,313,491l7.56-.36a87.3,87.3,0,0,0,8.52-10A17.89,17.89,0,0,0,332.4,471a34.11,34.11,0,0,0-3.12-14.4c-3.36-7.08-8.64-10.2-15.84-9.48Zm-1.92-14.52c11-3.84,18.48.24,22.2,12.24a59.43,59.43,0,0,1,2.52,21.24v9a14.93,14.93,0,0,1-1.32,5.52c-.6,1.32-5.16,7.08-13.56,17.28L311,501.84l-.84-1.8V534.6c-1.2,6-2.16,14.88-2.76,26.76a217.34,217.34,0,0,1-2.64,26.76l-1.32.24a22.34,22.34,0,0,1-1.32-8.4c0-2.16.48-9.72,1.56-22.8,1.08-14.28,2-23.64,2.76-28.08v-43.8a66.81,66.81,0,0,0,.72-13.08l-.48-14.4c-.36-11.64,1.08-18.84,4.08-21.48Zm-7.8-26.52L303,417a28.59,28.59,0,0,1,3.24-3.72c3-2.76,5.64-4.56,7.8-5.16l.48,2.16a43.19,43.19,0,0,1-5,6.6l-.24.36L312,424c1.68,3.84,2.52,6.72,2.52,8.52l-.12,2.4-.36.84L309.72,428c-2-3.48-3.12-6-3.24-7.8l-3.6,4-.6-.12A58.94,58.94,0,0,1,301,431.4l-.24.36-1.44-.24c-.36-.12-.48-.84-.48-2,0-6.84.12-11,.24-12.36.6-5.16,1.92-8.16,4.2-9Zm-21.36,9.48c1.8,2.64,3.84,4.08,6.24,4.2a8.26,8.26,0,0,0,6.72-3.12l1.44.36c.36.12.48.84.48,2a1.55,1.55,0,0,1-.6,1.32,10.38,10.38,0,0,0-2.4,1.8l-10-.36-3.12-3.48a3.81,3.81,0,0,1-.72-2.4c0-8,3.24-11.16,9.72-9.24l.6,2.64-.24,1.2c-.24.24-1,.36-2.28.36l-4.8.72A9,9,0,0,1,282.36,419.76Zm-5.88-58.44,12.6.36A9.59,9.59,0,0,1,291,364a6.61,6.61,0,0,1,.6,3,4.43,4.43,0,0,1-.48,2.52l-1.2,1.68-3.12-.6-9.6-.72.24,8.88,1.08-.12c2.88-.12,4.32,1.32,4.32,4.44a4.78,4.78,0,0,1-.84,2.88,6.59,6.59,0,0,1-4.56,2.16L277.2,396c-.6,6.6-2,12-4.56,16a4.49,4.49,0,0,1-1.32-2A8.37,8.37,0,0,1,271,407q0-18.72.36-24.84a77.91,77.91,0,0,1,3-18l.72-1.92,1.08-2.76Zm5-20.28c-.36,5.4-.48,10-.48,13.56a34.09,34.09,0,0,0,10.2-1.68l.36.6.24,1.92-1.2.12q-1.26.54-2.88,3.6l-7.8-.24a46,46,0,0,1-.6-8.88,25,25,0,0,1-.6-4.68C278.64,343.08,279.6,341.64,281.52,341Zm27.36,25.44-.24,3.24c-.12,0-.12.24-.12.6s-.72.48-1.8.48c.12-.36-.12-.6-.72-.84l-8.28-.36.36,5.88-.12,2.28,2.28-.12q4.32.54,4.32,5.4l-.24,3.24-.48.36-2.16.48A6.61,6.61,0,0,1,297.6,386l-.24,2.88c-.6,8.28-1.2,15.24-1.8,20.64l-.48.48-.84.84a7.92,7.92,0,0,1-1.44-3.24l-.12-3.84.48-13.08c.36-8.64.6-17,.6-25.08,0-2.16.48-3.6,1.56-4.32l.6.72a7,7,0,0,1,1.56-1.8l7.92.36,2.64,3A5.31,5.31,0,0,1,308.88,366.48Zm-109.2,53v26l10.44-1.44L221,442.8l1,1.32a6.32,6.32,0,0,1,.48,2.76,5.43,5.43,0,0,1-.84,3.24,7.78,7.78,0,0,1-1.92,2.16l-8,1.32-4.92.84-9.24-.24c-.72-4.92-1.08-12.6-1.08-23.16l.12-12.72a34.12,34.12,0,0,1,1.56-10.44A6.28,6.28,0,0,1,201,413.4,33.12,33.12,0,0,1,199.68,419.52Zm19.08-25.92c2.4,5.16,4.2,8.76,5.52,10.56,4.68-5.88,6.48-11.76,5.16-17.64l.36-.48.72-.84a2.14,2.14,0,0,1,1.56.84,4.47,4.47,0,0,1,.6,2.64A30.92,30.92,0,0,1,230,400.44a91.39,91.39,0,0,0-4.68,12.6,32.46,32.46,0,0,1-6-8.88c-2-4.44-3.6-7.68-4.8-9.84a79.49,79.49,0,0,0-.6,8.88l.12,9.6-.84.48-1.08.84c-.72-2-1.08-5.16-1.08-9.48q0-2.34.72-9.36a110.44,110.44,0,0,1,1.44-11.16C214.68,385.68,216.48,388.92,218.76,393.6ZM218.88,290q0-8.46,1.44-12.6l.72-.24a8.24,8.24,0,0,1-.48,6.48v11.4l-.12.48c.24.36,1,.6,2,.6,5.16,0,7.8-2.52,8-7.68l-.12-6.72a14,14,0,0,1,1.2-5.88c.84.6,1.44,1.08,1.56,1.56a7.17,7.17,0,0,1,.36,2.76,46.86,46.86,0,0,1-1.08,10.56c-1.44,6.48-4.08,9.72-7.8,9.72-3.12,0-5-1.68-5.64-5ZM196,321l13.2-1.92,11.64-2,7.8.24,1,1.32a5.69,5.69,0,0,1,.48,2.76l-.24,2.4-1.2,1.56c-2.4.24-7.2,1.08-14.28,2.52l-6.6,1.32c.36,6.6.6,14.88.6,24.84l-.12,16.32a76.55,76.55,0,0,1-2.52,16.8c-2-3.72-2.88-8.28-2.64-13.68.6-6.12,1-10.68,1-13.68,0-10.68.12-17.4.24-20,.12-3.72.48-7.08.84-10l-1.56.24c-9.48,0-15.72-1.32-19-4.08A6.12,6.12,0,0,1,182.4,321a16.16,16.16,0,0,1,.12-2.64l.12-.6a10,10,0,0,1,5,1.68C189.48,320.52,192.24,321,196,321Zm5-35.64c-3.48,0-5.4-1.08-6-3.12l.36-3.72c-3.24-1-6.72,1.2-10.32,6.6-3,4.68-4.56,8.28-4.56,10.8,0,1.44,1.68,3.84,4.92,7.32,3.72,4,7.56,5.88,11.28,5.88a15.21,15.21,0,0,0,11-4.32c-2.76-1.92-5.52-3.6-8.28-5.16v-3h-.6l1.44-.24c3,0,6.48,1.44,10.44,4.44,1.8-3,2.76-5.52,2.76-7.56,0-2.52-1.44-4.56-4.2-6.12A19,19,0,0,0,201,285.36Zm14.16,7.92c0,2.28-.84,5.28-2.64,9l6.72,5.76,8.64-.24a12.4,12.4,0,0,0,5.76-7.44c1.08-3.36,1.92-5.28,2.64-5.88l.36,1.2.12,2.52a11.38,11.38,0,0,1-2.64,7.2l-5.76,7.2-10-.24-8.16-5.88c-2.88,4.8-5.88,7.2-8.88,7.2-9.48,0-16.08-2.88-19.8-8.76a21.74,21.74,0,0,1-2.4-6.24l-.24-2.88c0-8.76,1.92-14.64,5.64-17.88,3.12-2.64,7.32-3.24,12.48-1.8a30.25,30.25,0,0,1,12.36,7.44Q215.16,289,215.16,293.28Zm64.2,3.36a142.65,142.65,0,0,1,6.48,17.28q3.78,13,5.4,16.92v.24c.84-3,2-8.4,3.48-16,1.44-7.92,2.52-13.32,3.36-16.32,2.16,1.56,3.24,3,3.24,4.08,0,3.24-1.08,10.32-3.36,21.24-2.28,11.16-3.36,17.64-3.48,19.44L294,344l-.84.84c-3.12-4.2-5.76-9.84-8-17.16a178,178,0,0,0-5.52-18.36l-4.8,16.2a82.71,82.71,0,0,0-3,18l-.48.48-.84.84a8.55,8.55,0,0,1-1.44-4l-.24-4.32q0-5.22,2.52-17.64C273.6,307.92,276.24,300.48,279.36,296.64Zm.12-31,6.36-.12,3.84-2.76a30.8,30.8,0,0,0,4.08-3.48,26.71,26.71,0,0,0-4.56-3.72,8.35,8.35,0,0,0-8.52-.12Zm2.28-19.2c1.92-.72,4.32-.48,7.08.72a17.74,17.74,0,0,1,7.08,5.16,12.45,12.45,0,0,1,3.24,8.28q0,2.88-4.32,8.28a20.1,20.1,0,0,1-4.32,4.2l5,7.2q7.92,11.52,7.92,12.6l-.24,3.24-.12.48c-.12.36-.72.6-1.8.6-.84,0-6.12-7.44-15.84-22.44l-7.44-.24q-2.88,17.64-6.48,23.76a4.49,4.49,0,0,1-1.32-2,8.7,8.7,0,0,1-.36-3,151.16,151.16,0,0,1,1.32-19.44q2.16-17.46,7.56-24.12A4.53,4.53,0,0,1,281.76,246.48Zm-114.24-57.6-4.32.24h-.12l.12,3.6,10.56-.6-.84-1.56-1.32-1.68ZM130.68,43.44c3.12,4.92,4.68,11.16,4.68,18.84a36.18,36.18,0,0,1-.6,5.88c-.72,3.72-1.8,6.24-3.24,7.32a31.24,31.24,0,0,1-2.16-7.68,32.23,32.23,0,0,0-2.64-8.64c-3.48-7-11.52-11.76-24.12-14.52C89.28,43.32,80,49,74.64,61.56a57.82,57.82,0,0,0-4.32,22.92,56.48,56.48,0,0,0,4.8,22.08A181.76,181.76,0,0,0,86.28,127.2c6.36,10.44,10.56,17.52,12.36,21.24a92.69,92.69,0,0,1,8.76,23.4,364,364,0,0,0,12.84,43.44c4,11.16,9.36,25.32,16.44,42.48a442.73,442.73,0,0,1,25,85.32,465.61,465.61,0,0,1,8.28,86.76c0,3.72-.72,16.56-2.16,38.64l-2.16,33.6q.18,24.48-26.64,48a120,120,0,0,1-21.12,14.76c-6.72,3.6-11.76,5.4-15,5.4-25.08,0-41.64-7.8-49.44-23.28a47,47,0,0,1-4.68-17V519.84a124.34,124.34,0,0,1,.36-12.48,40.17,40.17,0,0,1,5-13.92,13.74,13.74,0,0,1,3.12,5.76l.12,4.8q0,1.26-1.08,7.92t-1.08,7.92c0,8,1.68,14.4,5.16,19.08,6.72,9.24,19.56,13.8,38.4,13.8,15,0,29.28-8.88,42.72-26.52a112.08,112.08,0,0,0,12.6-20.52c3-6.24,4.68-10.92,5-13.92l2.52-32.28q1.8-26.46,1.8-30.6a394.34,394.34,0,0,0-9-84.48c-5.4-24.24-14.4-53.64-27.24-88.08-2.76-7.08-7.56-21.6-14.52-43.32-5.88-18.36-10.8-32.52-15-42.48a290.93,290.93,0,0,0-13.2-27.6l-10.8-19.08a85.18,85.18,0,0,1-7.2-17.16,82.22,82.22,0,0,1-2.64-22.2c0-13.8,1.44-24.84,4.44-33,6.12-17.16,18.24-25.2,36.12-24.12C117,30.36,125.76,35.76,130.68,43.44Zm175,142.68c0,4.56-2.76,18.6-8.16,42.12-1.56-2.52-4.44-7.92-8.64-16-3.72-7.56-6.6-12.84-8.64-15.6-1.32,10-3.12,21.48-5.4,34.8a8.12,8.12,0,0,1-2.16-3.12,6.41,6.41,0,0,1-.6-2.4c0-4.08,1.2-12.24,3.48-24.6s3.84-19.2,4.92-20.28c2.4,7.08,7.32,18,14.88,33a102.79,102.79,0,0,0,3.84-15.72q2.34-13,3.24-16.2Q305.64,184.32,305.64,186.12Zm-3.48-18.84c-1.08-2.76-3.36-4.44-6.84-5.16a21.24,21.24,0,0,0-7.8,0l-.24-.12.6,7.56,1.8.12,8.4-.24A13,13,0,0,1,302.16,167.28Zm-12.6-10.2a11.25,11.25,0,0,1,5.76.6,19,19,0,0,1,5.76,3.24,6.56,6.56,0,0,1,2.64,4.8,3.9,3.9,0,0,1-1.2,2.88,22.83,22.83,0,0,0-4,5.64l-10.08-.84h-.36l.48,6.84a5,5,0,0,1-.72,2.76l-1.2,1.8a77.87,77.87,0,0,1-.84-12l-1.08-.72v-3l1.08.24c.12-5,.12-9.12.24-12.12h.84l.24,1.92A2.71,2.71,0,0,1,289.56,157.08Zm-101.16,48a5.69,5.69,0,0,1,.48,2.76c0,3.12-.72,12.6-2.28,28.56l-.48,4.08c2.52-3.84,6.36-9,11.4-15.6,8-10.44,14.16-17.76,18.12-22.2a6.78,6.78,0,0,1,1.08,2l.36,2.88q0,2.7-13.32,19.8l10.8,22.2q9,19.08,9,20.52l-.36,3.24-.6.48-1.2.6c-2.64-4.68-6.36-11.76-11.28-21.48-4.92-10-8.16-17.16-9.6-21.36q-9.9,12.6-15.48,19.08c-1.32,11.16-2.52,19-3.72,23.52l-1.08.24a12.77,12.77,0,0,1-1.08-5.64c0-7.56.48-16.68,1.32-27.36,1.44-18.36,3.84-30.84,7.08-37.68Zm6-1,.12.24.12-.12ZM175.32,197l-12.12-.24L163,200a23.51,23.51,0,0,1-2.76,7.56l-.72-.36-.12-1.8c0-.72.36-3.72,1.2-8.88l1.08-9.24-.12-1.08a3.58,3.58,0,0,1,.36-1.92v-.12l.48-.24,10,.36,3.72,4.44a6.16,6.16,0,0,1,1.2,3.6,5.93,5.93,0,0,1-.48,2.88Zm1.8-31.44-6.6-1.92c-1.8,0-3.12,1.08-4.08,3.36a10.4,10.4,0,0,0-1.08,4.32,3.74,3.74,0,0,0,1.08,1.8,15.64,15.64,0,0,1,3,4.08l8.76-.84,2.88-.72.36.48.12,1.92a32.3,32.3,0,0,0-4.08,3.72l-8.88-.24-3.48-6.36a7.84,7.84,0,0,1-1.44-3.6q0-7.38,1.44-9.72c2.28-3.24,7-3.12,14,.48l.24,1.68C180.24,165.84,179.52,166.32,177.12,165.6Zm40.68,12.48,2.52-2.88,1.8-2.28-2-1.68-2.52-2.16-9.48.48.12,2.76-.24,7.44a10.17,10.17,0,0,1,2-1.2Zm-11.88-14.4,1.08,1.56.6-1.56a3.47,3.47,0,0,1,1.32-1.32c8,.6,13.2,2.16,15.24,4.68a4.7,4.7,0,0,1,1.08,3.12l-.12,2.64c0,3-.24,4.8-.84,5.64a51,51,0,0,0-5.52,6.6,62.49,62.49,0,0,0,4.8,7.56c3.24,4.56,4.8,8.28,4.8,11.28l-.24,2.52-.6,1.2-6.84-10.8c-3.24-5.16-4.92-8.88-5.28-11.4h-.84a37.92,37.92,0,0,0-4.56.72l-2.16-.12a84,84,0,0,1-1.92,18.36h-.84c-.36-4.44-.48-11.16-.48-20.4s.12-16,.48-20.28Zm20.4-10.56a5.69,5.69,0,0,1,.48,2.76l-.36,2.4L225.36,160h-25.2l-1.56-.12-.84-2.16-.24-3c0-2.52.24-6.36.6-11.76l.48-12.24c0-4.56.12-7.56.24-9,.36-4,1.32-6.6,2.76-7.8l.6,18.72a151.3,151.3,0,0,1-.36,18.72l23.52.48ZM183.24,87.48c0-1.32-.84-3.24-2.4-6-2.16-3.6-4.68-5.4-7.68-5.4a12,12,0,0,0-4.32.84,8.22,8.22,0,0,0-2.52,1.2l.36,5.64.6,9.24a81.76,81.76,0,0,0,12.48-2.4C182,89.76,183.24,88.8,183.24,87.48Zm2.16,8.64c-1.8,3.72-5.16,5.64-10.08,5.64l-8-.12c-.12,7.32-.24,12.24-.36,14.64-.6,9-2,16.44-4.56,22.32a5.68,5.68,0,0,1-2.16-1.8,6.26,6.26,0,0,1-.6-3L163,87.48c0-4.32.12-7.56.24-9.72A23.19,23.19,0,0,1,164,73c.12-3.24,1.32-5.16,3.48-5.76s4.68.24,7.8,2.28a23.83,23.83,0,0,1,7.8,7.68,18.84,18.84,0,0,1,3.6,10.32A23.29,23.29,0,0,1,185.4,96.12ZM248.76,9.48a14.78,14.78,0,0,1,.84-5.28c.84-2.76,2.28-4.08,4.08-4q5.22,42.48,7.92,93.84c1.56,31.08,2.4,62.52,2.4,94.56l-1.68,41.64c-1.08,26.16-1.68,40.2-1.68,42.24l2.28,102.6q0,28.62-4.32,118.92-4.5,94.32-6.6,96.84c-2.88-2.16-4.32-5.76-4.32-10.92,0-3.24,1.44-34.2,4.32-93.12s4.32-96.12,4.32-111.84l-2.16-103.08,1.08-41.76c.12-5.4.6-13.56,1.2-24.72l1-16.56c0-5.16-.6-20.76-1.92-47l-2.4-43.08a345.76,345.76,0,0,1,0-44.64,167.79,167.79,0,0,0-2.16-23.4Q248.76,16,248.76,9.48Zm36.72,37.8a7,7,0,0,1,.6,2.64c0,1.68-.6,7-1.68,15.84-1.08,9.24-2,14.88-2.64,17,7.56-1.08,16.92-1.8,28-2.4a9.59,9.59,0,0,1,1.8,2.4,8.21,8.21,0,0,1,.6,3.24l-.36,2.88L311,90.6h-3.72c-3.72-.12-8.52,0-14.16.36L285.6,92c-3.84,0-6.12-1.44-7-4.32l-.12-4.92c0-3.48.6-10,1.68-19.44,1-8.4,1.8-14.52,2.4-18.48A4.44,4.44,0,0,1,285.48,47.28ZM429,393.24q-1.08,21.42-1.08,29.52c0,8.28.6,22.44,1.68,42.48s1.56,35.28,1.56,45.6c0,18.84-.36,31.2-1,37.08-.48,4.8-2.16,14.76-4.92,29.76l1.08.12q36.9,0,60.84-39.36a139.54,139.54,0,0,0,14.16-31.92c3-9.72,4.56-17.88,4.56-24.24V466.56a65.86,65.86,0,0,0-1.2-10.92c-1.08-5-5.52-16-13.2-32.64-5.4-11.88-12.72-21.6-22.2-29.16-8.28-6.72-18.6-11.52-30.84-14.4a50.68,50.68,0,0,1-8.64-2.52Zm-50.28-8.88c-10.92,0-18.72,7.8-23.64,23.52a91.22,91.22,0,0,0-4,23.88c0,4.68.72,13.68,2.16,26.88l1.32,12.84.84-.36a34.49,34.49,0,0,1,11.88-3.24,28.46,28.46,0,0,1,11.88,1c3.6,1.32,5.4,3.6,5.4,6.6a16.33,16.33,0,0,1-.6,4.32,12.33,12.33,0,0,1-2,4l-4.08.24-4.56.84-17.4,1.08h-.72l-1.44,19.2c-1.08,14.28-1.56,24.6-1.56,31l-.48,8.28a47.41,47.41,0,0,0,1.2,12.36c3,10.92,10.68,16.32,23,16.32,6,0,12.12-4.56,18.24-13.8a69.76,69.76,0,0,0,5.88-10.56,26.59,26.59,0,0,0,2.4-7.08l.72-.48,1.44-1.08a16.87,16.87,0,0,1,2.76,9.72c0,1.44-.6,4.08-1.92,8a75.41,75.41,0,0,1-5.64,13.08c-6.6,11.88-14.4,17.88-23.28,17.88-15.72,0-25.32-8.28-28.92-24.84a70.19,70.19,0,0,1-1.44-18l.6-9.72c0-4.44.48-13.44,1.56-27.24S350,486.6,350,483.36q-4.32-45.9-4.32-51.48c0-12.6,1.44-23.52,4.32-32.64a62.44,62.44,0,0,1,20-30.36c10.44,0,18.6,2.76,24.36,8.28q6.48,5.94,6.48,12.6a10,10,0,0,1-.84,4.08,8.61,8.61,0,0,1-1.92,3.24l-7.92-6.72C385.32,386.4,381.48,384.36,378.72,384.36Zm49.2-21.12c2.76-3,8.16-3,16.44,0a92.37,92.37,0,0,1,27.72,16.56,123.1,123.1,0,0,1,15.24,16.56,76.55,76.55,0,0,1,10.2,17.52c8.52,21,13.2,33.84,13.92,38.28.72,4.68.72,14.64-.12,29.88a129.14,129.14,0,0,1-27.12,78.72A97.54,97.54,0,0,1,457,585.12q-15.48,9-30.6,9a4.16,4.16,0,0,1-4-2.52q-2.16-.54-2.88-4.32a50.92,50.92,0,0,1-.24-5.4,118.33,118.33,0,0,1,1-15.36l2.28-12c2.16-11.4,3.24-26.16,3.24-44,0-9.36-.12-15.48-.48-18.24q-1.62-14.94-2.52-25.56c-.36-6-.6-14.76-.48-26.4l.24-17.52c0-7.2.48-18,1.32-32.52,1.08-16.2,2-25.44,3-27.48Zm4.32-363a13.77,13.77,0,0,1,1.92,4.44A13.68,13.68,0,0,1,435,9.24c0,3.12-.36,5.4-1.2,6.72-1.92,3.24-5.88,4.08-11.88,2.4L396.84,21l-20.76,2.4,2.4,14.16L378.72,53l-2.16,91.68q0,18.54,5.4,112.68,0,32.22-1.44,59.4c-1.56,28.32-4,44.28-7.2,47.76a5.9,5.9,0,0,1-4.08-4.68,25.8,25.8,0,0,1-.36-5.28c0-1.8.48-9.48,1.44-22.8l1.92-25.92q3.24-17.46,3.24-47.88l-5.4-113.52,2.16-91.32L371.16,40.8l-1.08-12.36a28.51,28.51,0,0,1,.36-4.68l-11.64-.12L345.72,23l-28.2-.6c-5.64.6-9.36-.72-11.16-3.84A13.81,13.81,0,0,1,305,11.88a21.9,21.9,0,0,1,.6-4.8c.6-2.52,1.44-3.84,2.64-3.84L314,4a15.25,15.25,0,0,1,4.32,1.2L346.8,6.24c23.88-.36,40.8-1.08,50.64-2.4l10.8-1.68L423,.6V0ZM164.76-1.92l1,1.32a6.32,6.32,0,0,1,.48,2.76c0,2.76-1.56,4.8-4.56,6.24-4.92,2.28-8.28,4.32-10.08,6l-.6.48,5.16.84,9.72.84a10.57,10.57,0,0,1,2.64,3,6.57,6.57,0,0,1,1,2,2.15,2.15,0,0,1-.48,1.56c-.6,1.08-2,1.68-4.2,2l-5.28-.36L154,24.12l-12.6,1-6,.84c-2.52,0-4-.6-4.56-1.8a5.44,5.44,0,0,1-.36-2.52c0-2.76,1.92-5.16,5.76-7.44,1.08-.6,3-1.68,5.76-3.12a53.18,53.18,0,0,0,6.6-4h-5.88l-6.84.24L135.12,6a8.06,8.06,0,0,1-.36-2.76A6.48,6.48,0,0,1,135.48,0a6.76,6.76,0,0,1,2-2.16Z" transform="translate(-48.72 2.16)"/></g></svg>