<svg id="Layer_1" data-name="Layer 1" xmlns="http://www.w3.org/2000/svg" viewBox="0 0 576 506.4"><defs><style>.cls-1{fill-rule:evenodd;}</style></defs><path class="cls-1" d="M252.72,252.48q0,24.3-12.24,143.88Q228.24,514.08,224,534.24c-3.48-8.28-6.12-19.32-7.68-33C215,486,213.72,475,212.64,468q-4.5-28.44-7.56-66.6c-1.44-17.16-3-39.12-4.56-66.12L196.44,269h-.24c-1.56,16.44-3,37.8-4.44,64.32L188,397.68q-5.22,76-19.2,127.08a9.31,9.31,0,0,1-3.72-7.56c0-.84,1.68-11,5-30.48,3.72-21.12,6-34.8,6.84-40.92q1.8-13.32,2.52-35.28c.6-18.36,1.2-30.12,1.56-35.4l5.4-70.92q3.6-41.4,8.88-70.32,7,49.86,15.12,138Q220.2,476.64,224.28,512q3.06-53.82,11-136.2,9-92,13.08-137.64c1.8,1.32,3.12,4.08,3.84,8.16A35.07,35.07,0,0,1,252.72,252.48Zm-92-154.56c0,8.88-2.28,14.76-7,17.64a10.15,10.15,0,0,1-2.76-7.44c0-1.68.72-3.84,2.16-6.6l2.16-4.32c0-1.56-1.2-4.44-3.48-8.64a64.39,64.39,0,0,0-11.52-14.88c-14-13.56-31.68-20.4-53.16-20.4L79,53.52C69.72,57,62.88,65.4,58.44,78.48a85.09,85.09,0,0,0-4.92,28.2c0,19.32,6.24,37.68,18.72,55.32q11.16,15.84,40.92,48c18.36,21.6,31.92,43.2,40.92,64.92q18.54,45.18,18.6,105.6A269.23,269.23,0,0,1,166,441q-6.84,29.7-19.56,52.44c-9,16-19.56,28.2-31.8,36.84a72.6,72.6,0,0,1-43.2,14q-48.78,0-63.6-34.56A74.6,74.6,0,0,1,2.52,485.4l.24-12.24A131.07,131.07,0,0,1,5,450.72c2-11.64,4.68-19,7.92-22.2a11.53,11.53,0,0,1,2.76,7.2l-3.84,17.16C9.36,464.28,8.16,471,8.16,472.8c0,5.88,0,9.36.12,10.44a51.21,51.21,0,0,0,5.52,19.08Q28,528.78,71.52,528.84q56.16,0,80.52-61.32a211.19,211.19,0,0,0,12.48-49.44,271.59,271.59,0,0,0,2.76-37.56q0-54.54-18.72-96.6c-8.52-19.56-22.2-40.32-40.92-62.52L85.8,195.72a237.55,237.55,0,0,1-19-25.56q-18.72-29.7-18.72-63c0-15.24,1.44-27.36,4.32-36.24C57.24,56,66.48,45,80,37.92c32,3.48,54.6,12.36,67.92,26.88C156.48,74,160.68,85.08,160.68,97.92Zm70-44.52.48,5c0,5.16-4.92,29.16-14.76,72.24q-16.2,70.74-26.4,98.4c-6.6-15.72-11.52-27.6-14.76-35.76-5.64-14.4-9.12-26.52-10.68-36.36q-9,31.32-17.28,53.64c-3.48-8.88-7-19.44-10.44-31.56-2.28-8.28-5-19-8.28-32.16-1.44-5.88-5.16-17.64-11.28-35.4-4.92-14.28-7.32-23.4-7.32-27.48a36.62,36.62,0,0,1,.12-4.44c.36-2,1.44-3.24,3.12-3.48q12.6,22.5,20.52,56.4l6.24,28c2.52,11,5,20.52,7.56,28.32h.24c3.12-12.36,5.64-21.72,7.44-28.2a238.25,238.25,0,0,1,10-27.12c2.76,8.28,6.36,20.64,10.8,37.32,4.44,15.12,9.12,27.84,14.28,38L199.56,169c3.72-16.2,6.48-29.76,8-40.44A217.93,217.93,0,0,1,217.08,88a61.48,61.48,0,0,0,2.4-10.44L220.92,67c1.32-8.28,4.08-14.64,8-19.08A21.4,21.4,0,0,1,230.64,53.4Zm83.28,10.32,1.68-.12-1.68-.24Zm-37.56-7c.84-2,2.64-4.32,5.64-6.72a17.63,17.63,0,0,1,2.16,8.52c0,7.56-1,30.12-2.76,67.8s-2.64,74.76-2.64,111.12L278,262.2l-1.44,38.52v64.2c-.84,3.24-1.2,8.88-1.08,17,.12,7.2-.6,12.84-2.16,17v53.52q-.9,9.9-1.44,42.12c-.24,17.16-1.44,30.48-3.48,40-2.52-2-3.84-5.76-3.84-10.92,0-15.48.24-28.44.6-38.88.48-14.16,1.32-27.12,2.64-39v-52a134.28,134.28,0,0,0,1.56-17.28,87,87,0,0,1,1.8-16.8v-64.2c.36-3.24.72-8.28,1.08-15q.54-10.62,1.08-15.84V210.36a287.91,287.91,0,0,1-1.08-29.16c2.16-68.52,3.24-107.64,3.24-117.6C275.52,60.36,275.76,58.08,276.36,56.76ZM396.72,45.48l-.24,3.12a6.13,6.13,0,0,1-3.12,3.48c-4.44,2.64-13.92,4.44-28.56,5.28l-15.24,1-1,6.36C347,74.16,346,81.6,345.24,86.76a518.56,518.56,0,0,0-4.8,70.08q0,31.86,1.56,71.64c1.08,26.64,1.68,49,1.68,67.08,0,26.28-.12,42.36-.36,48.48-.24,6.6-1.56,28.8-4,66.84V454a33.2,33.2,0,0,1-1.08,4.8v41.4a30.3,30.3,0,0,0-.6,7.92l.12,8.4c-.12,7-1.56,12.48-4.44,16.68a11.7,11.7,0,0,1-3.48-5.4,33.88,33.88,0,0,1-.24-4.8c0-5.64.12-10.32.48-14a102.13,102.13,0,0,1,2.76-15.24v-41.4L334,448.2V406c0-8.28.24-17.52.72-28l1.44-28c1.08-3.12,1.68-11.52,2-25.32l.12-29.52c0-14.28-.6-34.68-1.68-61.2S335,181.68,335,156.84q0-39.78,1.08-60.12a132.76,132.76,0,0,1,5.76-37.8l-1.56.12c-15.72,1.08-24.24,2-25.32,2.64l-6.72.36-7.32.72-7.08-.24a14.5,14.5,0,0,1-2.16-8.16c0-3.24.12-5,.48-5.64.72-1.08,2.76-1.68,6.24-1.68l49-1.8.6-.48q.54-.36,1.08.36a276.44,276.44,0,0,0,37.44-5.64c5.64-1.32,8.88-1.68,9.48-1.32S396.72,40.92,396.72,45.48ZM474.6,76.2a12.7,12.7,0,0,1-2.64,8,47,47,0,0,0-7.8-8.64c-6.12-5.4-12.6-8.16-19.56-8.16q-25.92,0-47.28,46.2-10.8,23.4-19,55.92c-3.72,14.4-6.6,31.56-8.76,51.48l-4.32,52.32v49.56q-1.08,4.86-1.08,15.48a72,72,0,0,0,1.08,14.52v61q-1.62,41,11.88,71.76,14.76,33.48,39.84,33.48c14,0,25.92-9,35.76-27a163.17,163.17,0,0,0,9-20.28c3-7.56,4.68-11.88,5.28-12.84a12.66,12.66,0,0,1,3.24,7.32c0,1.32-1,5.16-2.88,11.64a165,165,0,0,1-8.76,23.28C448.2,523.44,436,534.6,422.16,534.6q-38.52,0-54.24-51.84a203.47,203.47,0,0,1-7.32-38.88,180.76,180.76,0,0,1-.72-24.36v-60c-.72-4.44-1.08-11.4-1.08-21.12,0-9.24.36-16,1.08-20.28V268.56c1.8-23.52,3.72-43.8,5.88-61a600.24,600.24,0,0,1,10.68-60.84A145.4,145.4,0,0,1,387.12,117c2.28-4.68,7.68-15,16.32-31.08,5.64-10.56,12.84-18.6,21.36-24.12,7.56-4.92,15.24-7.32,23.28-7.32,7.56,0,13.8,2,18.84,6A19.16,19.16,0,0,1,474.6,76.2Zm102.48,4.44-3.36,42c-3.24,44.4-4.8,90-4.92,136.92V264a64.82,64.82,0,0,1-1.08,13.8V333l-3.24,26.76v41.4c-.84,7.08-1.44,18.12-1.56,33.36s-.72,26.52-1.68,34-1.68,18.48-2.4,33.6c-1.08,13.56-3.12,24.72-6.24,33.24-1.44-2.16-2.16-5.16-2.16-8.88q0-27,5.4-110,4.86-72.54,6.48-88.08V274l.12-2.16h-.36l-4.68.84c-22.68-.84-38.88-.24-48.6,1.92a71.92,71.92,0,0,0-7.32,2.28,11.21,11.21,0,0,1-4.68,1.2l-5-.24c.36,9.48.72,19.2,1.32,29.16q2.16,40,2.16,60.48,0,39.24-2.64,71.88a688.18,688.18,0,0,1-9.36,72.24,10.79,10.79,0,0,1-2.76-4,13.94,13.94,0,0,1-.48-4.2,207.55,207.55,0,0,1,1.56-23.76l3.36-28a734.36,734.36,0,0,0,4.92-84.6c0-10.32-.72-28.8-2.16-55.56s-2.16-53.16-2.16-79.56q0-49.86,2.64-88.56c2.28-32.16,6-61.44,11.4-88A9.27,9.27,0,0,1,502.92,60a13.49,13.49,0,0,1,1,4.44c0,2.52-.72,8.76-2,18.6-2,14.88-3.6,26.28-4.44,34.2a993.85,993.85,0,0,0-6.48,114.24c0,9.72.12,19.56.36,29.76l6.48-.48,15.36-1.2c26.76-3,43.32-4.2,49.68-3.84v-8.88l-.48-18.36c0-33.48.84-64.2,2.64-91.92q3.6-54.18,11.4-87.6a15.34,15.34,0,0,1,2.16,7.32C578.52,60.36,578,68.52,577.08,80.64Z" transform="translate(-2.52 -37.92)"/></svg>