<svg id="Layer_1" data-name="Layer 1" xmlns="http://www.w3.org/2000/svg" viewBox="0 0 476.67 583.04"><defs><style>.cls-1{fill-rule:evenodd;}</style></defs><path class="cls-1" d="M191.76,576l-40.32.6.36-36.48c-5.52,7.32-7.92,15.84-7.08,25.8l2.16,23.64L192,585.84Zm8.64-109.56c8-14.16,12.84-28.2,14.4-42.24-13.32,22.56-26,45.72-38.4,69.6,1-23.16,1.08-46.44.24-69.6-3.24,5.88-4.92,13-4.92,21.12A628.36,628.36,0,0,1,169,514.2c-1.08,11.16.12,21,3.6,29.4l.48-.84q1.8-18.54,2.88-37.08l1.56,1.08,9.72-17.28.72,2.64a228.09,228.09,0,0,0,20.88,47.64,3,3,0,0,0,1.56-3.84q-8.28-27.54-18.48-54.48Zm-2.52-135.6-2,.12c-20.76,24.6-24.24,51.12-10.68,79.8,1.32,2.88,4.08,4.2,8,4.08,11.16-.36,16.92-6.36,17.52-17.88a50.11,50.11,0,0,1-23.76,8.4c-10.44-17.28-10-35.28,1.68-54a96,96,0,0,1,8.28-11.16l14.64,2.88Q211,330.3,197.88,330.84Zm37.44-79.68,2.76.48q20.34,18.9,9.6,44.64a39.32,39.32,0,0,1-19.44,20.64l.36-67.08,5.16-.36Zm-10.08-10.8a8.2,8.2,0,0,0-.48,4.8l.36,1.68,1.44,1.2q-4.14,49-7.8,99.48a304.39,304.39,0,0,0,2,64,2.28,2.28,0,0,0,.84-1.32c1.92-14.76,3.36-29.52,4.32-44.52.84-12.6,1.56-25.32,1.92-37.92l1.56.24L235,324.6a375.54,375.54,0,0,0,23.16,87.24l.36-.84a372.7,372.7,0,0,0-21.6-88c4.08-3.12,8-6.36,11.76-9.72a68.5,68.5,0,0,0,7.68-19.44c6.36-28-3.12-46.08-28.68-54.24l-.12-2.28-.12,2.28-1.2-.48A2,2,0,0,0,225.24,240.36ZM168,252.24c-.12,11.52-.6,23-1.68,34.68-1.2,14,0,26.76,3.6,38l.12-.24a326.67,326.67,0,0,0,.36-73.44L190,249.72l.48-.6a8.29,8.29,0,0,0-.84-9.6,202.06,202.06,0,0,0-52.44,5.64l-.24.84a17,17,0,0,0,.48,6.48l30.72-1.08Zm2.76-97.8c-3.36,21.24-6.6,42.48-9.84,64l-.24-.36c-7.8-22.92-14.76-46-20.88-68.88a.92.92,0,0,0-1.2.84q-5.76,37.62-8.28,74.64a2.23,2.23,0,0,0,1.08-1.32,410.24,410.24,0,0,0,9.24-51.24c2.88,10.2,5.52,20.52,7.92,31.2,2.76,12.12,7.32,22.08,13.8,29.76,4.32-17,8.16-34.2,11.64-51.6,2.28-11.4,1.68-21.12-1.68-29.4A3.56,3.56,0,0,0,170.76,154.44ZM75,82a59,59,0,0,1,28.92.72c15.24,4.2,25.68,12.6,31.56,25.32,3.48-6.84,2.64-13-2.28-18.6-14.4-16.2-33.24-25-56.4-26a44.14,44.14,0,0,0-9.6,3.48L61.44,69.6Q32.28,98,35.52,140.28A65.74,65.74,0,0,0,46,171.6q23.58,35.82,47.88,71.52a377.44,377.44,0,0,1,54.6,122,213.55,213.55,0,0,1-.12,105.48A181.92,181.92,0,0,1,115,539Q85.8,576.3,39.12,556.92c-10.32-4.32-16-11.4-16.92-21.36-1.8-19.08-2.88-38-3.24-56.64l-1.8-1.68.12-.48L18,475.2l1-1.68.72-1.68-.24-.72a12.62,12.62,0,0,0-2.4,3.24l-1.56,2.4-1.08,1.56a143.14,143.14,0,0,0-3.72,36.6c.12,4.44,0,8.64-.24,12.84C9.24,544.92,15.12,558.36,28,568c20.88,15.72,43.32,18.84,67.44,9.6a42.08,42.08,0,0,0,18.48-13.8q42.12-54.9,47.28-124.68a302.55,302.55,0,0,0-15.48-121A369.56,369.56,0,0,0,120,260.4a410.62,410.62,0,0,0-56.52-79.32c-21.84-23.88-25.92-50.64-12.12-80C56,90.84,64,84.48,75,82ZM208.08,9.24a312.89,312.89,0,0,0-46.2-2.4,81.78,81.78,0,0,0-20.16,2.88V16.2L195.36,19A207.26,207.26,0,0,1,145.68,58.2l-6.36,3.48V72.24q21.24,3.06,42.48,7.2a88,88,0,0,0,32.64.6l.36-10a148.8,148.8,0,0,1-51.36-8.88,162.8,162.8,0,0,0,39.24-36.48A24.32,24.32,0,0,0,208.08,9.24ZM284,42c-.12,43.08.12,86,.48,129l1.08,129.12c.36,42.84.24,85.92-.12,129-.36,43.32-2,86.28-4.8,129-.84,12.36,1.08,22.92,5.52,31.68a190.86,190.86,0,0,0,5.28-42.12l1.8-129.12c.36-43.08.36-86-.24-129l-1.32-129.12c0-8.28.12-16.32.36-24.36,1.32-43.2.72-85.92-1.56-128.28-.6-.12-1,.12-1.08.48A110.86,110.86,0,0,0,284,42Zm68.52,325c.48-12.24-.84-22.92-4.08-31.92q-9.36,60.3-21.6,121.2l-.24-1.2c-4.2-41.76-7.92-83.4-11.4-124.92a120.62,120.62,0,0,0-5.88,32.16c-1.08,18.36-2.64,36.72-4.92,55a262.32,262.32,0,0,0-.12,63.6l.6-.84q5.76-55.26,9.72-109.56c.12,7.08.36,14,1,21.12,1.56,20.88,3,41.76,4.2,62.52.6,10.2,2.76,19.2,6.48,26.76A561.59,561.59,0,0,0,346.8,375.6c2.52,29.16,4.92,58.32,7.2,87.72.6,8.28,3,14.4,7,18.6a2.23,2.23,0,0,0,.48-1.32c-2.16-28-4.8-56-7.8-84.48A197.5,197.5,0,0,1,352.56,367ZM436,35.16q21.78,8.28,29.16,29.16,21.78,61,10,125.64-13,71.82-85.44,80.64l.48-59.28c.24-43.08,1.32-86.16,3.12-129a249.15,249.15,0,0,0-3.12-52.92A96.81,96.81,0,0,1,436,35.16Zm34,18.24a67.22,67.22,0,0,0-33.48-31.92,66.29,66.29,0,0,0-46.32-3.12l-3.36-.12a481.23,481.23,0,0,0-5.28,78.36q2.52,201.24-7.92,402.12a439.5,439.5,0,0,0,2.76,76.44q.9,6.66,3.24,8.64c3.24-38,5.52-76.08,6.72-114.36q2.7-90.54,3.24-181.56a71.06,71.06,0,0,0,21.84-3.48,100.08,100.08,0,0,0,42.72-27.6,107.87,107.87,0,0,0,27.72-55.44,316.14,316.14,0,0,0,1.44-105.24A133.2,133.2,0,0,0,469.92,53.4Z" transform="translate(-10.29 -6.76)"/></svg>