<svg id="Layer_1" data-name="Layer 1" xmlns="http://www.w3.org/2000/svg" viewBox="0 0 595.57 842.18"><defs><style>.cls-1{fill:#fff;}.cls-2{fill:none;stroke:#fff;stroke-linecap:round;stroke-linejoin:round;stroke-width:0.38px;}.cls-3{fill-rule:evenodd;}</style></defs><rect class="cls-1" x="0.31" y="0.31" width="595.08" height="841.68"/><rect class="cls-2" x="0.19" y="0.19" width="595.2" height="841.8"/><path class="cls-3" d="M157,264c3.24-1.44,10.56-1.32,22,.24l4.68.84,4.68.72,5.16.36,5.76.72c9,0,17.4-.12,25.2-.48,6.48-.24,11.28-.36,14.28-.24l1.8,2.28a6.61,6.61,0,0,1,.6,3,6.77,6.77,0,0,1-.84,2.76l-2.16,3-8.28.72-3.6.36L213.36,278l.36,4.92.36,9c0,18.12-.12,32.64-.48,43.44-.36,16.2-1.2,30.84-2.52,43.8v68.16l-.84,16c-.36,6.6-.72,11.88-1.08,15.72v46.32l-1.44,17a47.76,47.76,0,0,1-4.2,16.8c-1-.6-1.68-1.8-2.28-3.72a16.26,16.26,0,0,1-.72-4.92,127.31,127.31,0,0,1,3.84-31.68V474.24l1.08-16.32c.36-7,.84-12.36,1.32-16.2V373.56q.54-7.56,1.8-52.92c.48-17.64,1.44-31.8,2.76-42.72l-13.2-.72-12-1.08q-8.1-.54-8.64-1.08l-13.92-.84-7.92-.84a34,34,0,0,1-.6-5.16,6.35,6.35,0,0,1,0-2.16A2.92,2.92,0,0,1,157,264ZM170.52,70.2q0,2.7-.36,2.88l-.48.48-.84.84A141.32,141.32,0,0,0,154,60c-10.8-9-20.28-13.44-28.44-13.44q-39.06,0-51.12,26.28a54.13,54.13,0,0,0-4.32,28.32q0,35.28,20.88,89.28c4.92,12.84,11.4,28,19.2,45.12l19,40.8q13.14,29,29,57.84l20.52,37.44a142.62,142.62,0,0,1,12.12,33.6c2.76,12.24,4.08,27.6,4.08,46.08,0,12.36-.84,22.68-2.52,31.08a89.61,89.61,0,0,1-11.64,30.24c-7.8,12.72-19.08,24.6-33.6,35.76q-27.9,21.42-54,21.36-45.54,0-71.52-35.16A104.63,104.63,0,0,1,8,509.28c-2.52-6.6-3.72-11.16-3.72-13.68q7.56-41.58,14.4-52.2a11.36,11.36,0,0,1,1.8,6.12L8.88,494.88c0,2.16,1.56,6.36,4.8,12.48A107.37,107.37,0,0,0,27.84,528.6q24.84,29,58,28.92t63.84-23.88a149.27,149.27,0,0,0,19.92-19c4.8-5.64,8-10.2,9.84-13.92,6.12-12.36,9.72-22.68,10.8-31.2a95.38,95.38,0,0,0,.72-12.84l-.12-15.6a143.44,143.44,0,0,0-7-44.28c-3.72-11.52-9.48-24.6-17.52-39.24l-23-40.32a426.58,426.58,0,0,1-23.4-47.16l-19.32-44.28c-7.56-17.16-13.32-31-17.16-41.28Q66.3,139,66.24,100.92l.12-16.8a51.51,51.51,0,0,1,3.24-16C74.28,56.52,85.68,45.84,103.92,36c16-3.24,31.68,1.08,47.4,12.84a82.29,82.29,0,0,1,14,13.32C168.84,66.24,170.52,68.88,170.52,70.2ZM192.6,40.92l.12-.84c19.8-1.8,32.88,4.32,39.24,18.48a52.91,52.91,0,0,1,4.2,17.64q.36,3.78.36,14a111.05,111.05,0,0,1-10.2,47.4c-8,17.16-18.12,25.68-30.36,25.68h-.36v10.2l.36,23.64-.36,28.44c-.48,11.16-1.92,20.64-4.32,28.32l-1.32.24a14.68,14.68,0,0,1-1.68-7.32c0-8.64.48-20.88,1.56-36.6,1.2-18.36,1.92-30.84,2-37.2V161.28l-.48-1.2-.36-3.6c0-.12.24-.48.84-1V121.08L190.8,118V48.12a11.13,11.13,0,0,1,1.56-4.56A15.28,15.28,0,0,1,192.6,40.92Zm1.92,7.8V112.8l1.08,4.08v35.28l11.28-8.52c11.16-8.28,17.52-14.28,19.32-18,3.24-6.72,5.4-12.72,6.24-17.88.6-3.48.84-9.36.84-17.64,0-11.64-1.44-20.4-4.44-26.4C223,51.6,211.56,46.2,194.4,47.52ZM336.6,51a15.93,15.93,0,0,1,2.52,10.68l-.6.48-.84.84a7.33,7.33,0,0,1-2.76-2.76l-3-4.56c-3.12-4-7-5.88-11.52-5.88q-37.26,0-50.28,39.12c-2.64,8-4.92,19.08-6.84,32.88-2,14.64-3.6,23.64-4.56,27.12-4.2,14.52-6.84,31.08-8.16,49.68-.84,11.4-1.32,27.36-1.32,47.88l.84-.36h68.16l2.16,3.12a6,6,0,0,1,1.08,2.64,11,11,0,0,1-.6,3.36,4.62,4.62,0,0,1-2.64,2.76H250.08l-.72-.48q.72,32.4,5.52,138.24v75.48c.72,2.76,1.8,8.16,3.36,16.08,1.32,7.56,2.64,13.32,3.72,17.16a116.45,116.45,0,0,0,5.88,17c1.08,2.4,5.88,6,14.52,10.92s13.08,6.12,13.08,3.24q36.9-.9,53.76-30.6a90.31,90.31,0,0,0,9-22.56c1.68-7.8,2.76-12.36,3.36-13.68,1.92.36,3.12,1.92,3.48,4.44a46.11,46.11,0,0,1,.24,5.64c0,2.52-1.2,7.32-3.72,14.28a126.57,126.57,0,0,1-11.64,24.36c-13.8,22.2-30.24,33.24-49.56,33.24-11.76,0-21.12-2.4-28-7.32-5.64-4.08-10-10.2-13-18.24q-2.88-7.92-5.4-23.76c-1.8-11.64-3.24-19.68-4.56-24V401.16q-5.22-89.1-5.16-152.64c0-13.32.84-29.52,2.4-48.84a680.9,680.9,0,0,1,8.52-68.16Q270.9,44.4,301,39c8.88-3,17.76-1.8,26.64,3.48A26.83,26.83,0,0,1,336.6,51Zm48.48,15.84c-5.64-13.56-16.2-19.44-31.92-17.64l.24,10.08c0,6.84-.24,13.8-.84,21.12v53.4L351.48,137V153.6l2.76-2.4c6.36-5.4,11-9.6,14.16-12.84,13.8-14.28,20.76-29.28,20.76-45.24C389.16,82.2,387.84,73.44,385.08,66.84Zm-33-25.44.12.72.72-.48q39.42-6.12,39.48,51.24c0,14.52-2.64,27.12-7.8,37.56a66.42,66.42,0,0,1-15.12,20q3.24,15.84,12.84,59.64c6.6,29.64,9.84,45.6,9.84,48l-.24,3.24a4.06,4.06,0,0,1-2.76,3.12c-2.28-5.16-6.48-21.6-12.72-49.32-6.84-30.36-10.32-50.52-10.32-60.24v-1.68a84.87,84.87,0,0,1-14.64,9.36V180c.6,3.24.36,7.8-.72,13.8-1.44,8.16-2.16,12.84-2.28,13.92v43.8l-1.08,4.2-1.32,4.68-1.32.24a16.37,16.37,0,0,1-1.68-8,26.35,26.35,0,0,1,1.08-8.16V202.2q2.88-16.74,3.6-22.68v-47l.36-1.68.72-1.56V79.8c.48-4.68,1-10.92,1.32-18.72l.6-13.56a5.17,5.17,0,0,1-.36-2c0-1.32.12-2,.48-2.4L351,41.4Zm172.56,10a101.34,101.34,0,0,1,.72,10.32l-2.16,58.68c0,10.92,2.88,32.52,8.76,65l19.56,103.8q28.26,155.34,28.2,244a24.68,24.68,0,0,1-2.4,11.4c-2.76-6.6-4.68-15.36-5.88-26.28l-2-27.24c-1.56-23.28-3-41.4-4.32-54.48q-6.12-66.42-13-108.72c-2.28-14.28-6-32.4-11-54.36L528.6,219c-9.12-43.32-12.36-79.44-9.72-108.6V85.2h-.24q-16,47-39.12,149.52L463.8,303.36c-5.4,22.08-9.72,37.68-13.08,46.68-1.32-4.2-2.28-10.44-2.76-18.72-.48-9.48-1.08-15.72-1.68-18.72V271.2q-2-30.06-7.56-124.2V98.52l1.08-4.08V83h-.24L406,309.72q-20,132.3-35.52,227c-1.44-1.44-2.16-3.72-2.16-7q0-5.76,15.72-104.4,18.36-115,22-141.12,10.26-81.18,15.6-122.16Q431.1,89,442,40.92c1.44.84,2.52,2.52,3.24,4.8V99.36c-.72,4.8-1.08,12.6-1.08,23.28,0,22.56.84,44.88,2.4,67l5.28,76V307a44,44,0,0,1,1.08,10.56l.72,1.08q23.94-99.9,33.48-138.72Q506.34,101.94,522.6,41.4C523.44,42.6,524,46,524.64,51.36Z" transform="translate(0.19 0.19)"/></svg>