<svg id="Layer_1" data-name="Layer 1" xmlns="http://www.w3.org/2000/svg" viewBox="0 0 555.49 513.84"><defs><style>.cls-1{fill-rule:evenodd;}</style></defs><path class="cls-1" d="M242,314.76c-.12,19.92-8.76,33.6-25.8,41,.12-22.2-.24-44.28-1.2-66.24a37,37,0,0,1,20.88,7.32,12,12,0,0,0,2,5.16A20.91,20.91,0,0,1,242,314.76Zm-29.52-31.2a21.71,21.71,0,0,0-1.8,8.4q-.36,64.26-2.28,128.28-.9,32.58-4.68,64.8c-1.92,17-1.32,33,1.8,47.76a108.9,108.9,0,0,0,5.16-30.6q1.44-46.8,3.84-93.36c.72-13,1.2-25.8,1.44-38.64a6.85,6.85,0,0,0,5-1.44l3.24-2.4a148.19,148.19,0,0,0,5.52,42,852.85,852.85,0,0,1,20.28,93.48,90.18,90.18,0,0,0,10.2,30.6,2.11,2.11,0,0,0,.72-1.56,211,211,0,0,0-6.84-54.36c-9.72-37.8-18.48-75.36-26.4-112.92q23-20.16,19.92-52.56c-2-21-13.2-31.32-33.36-31.2a2.79,2.79,0,0,0-1.32,1.68ZM141.72,96.84q8.46-24.66-14.16-42.72a56.3,56.3,0,0,0-31.2-12.48q-42.84,28.8-26.52,85Q91.62,201.12,119.52,274a365.52,365.52,0,0,1,20.88,81.6,347.53,347.53,0,0,1-1,102.24,125.3,125.3,0,0,1-7.08,25.92A103.6,103.6,0,0,1,123,501.84a18.61,18.61,0,0,1-8.16,6.72,201.73,201.73,0,0,1-28.68,9.84,47.56,47.56,0,0,1-19.32.72,35.7,35.7,0,0,1-10.68-4.32,27.48,27.48,0,0,1-8.64-8.4,65.09,65.09,0,0,1-8.76-20.52c-1.56-6.36-5.16-10.56-10.92-12.6l-2,2.4c.72,36.36,17.76,55.92,51,58.44,29.88,2.28,49.92-10.8,60.36-39.24a234.09,234.09,0,0,0,14.4-91.08c-.6-15.84-1.68-31.68-3.48-47.4a543.67,543.67,0,0,0-12-67.92,507.18,507.18,0,0,0-20.76-66,153.53,153.53,0,0,0-8.52-18,295,295,0,0,1-15.72-32.16A218.66,218.66,0,0,1,81,142.44c-2.16-8.28-4-16.56-5.28-24.84A120.23,120.23,0,0,1,74,99.12,43.91,43.91,0,0,1,84.6,69c9-10.44,19.8-12.36,32.52-5.52a49.6,49.6,0,0,1,16.56,14.28,26.41,26.41,0,0,1,5.64,16.92ZM231.48,50l-.24-.84-.48-.72L186.6,46.32a213.77,213.77,0,0,0-41,1.8l-1.32,10.32,45.6,2.76a455,455,0,0,0-2.52,51l.24,272.52c-.12,42.36-.84,84.6-2.28,127l-4-5.28a15.63,15.63,0,0,0,.6,5.64l.24,1.56.24,3.24a31.86,31.86,0,0,0,1.8,8.28,27.47,27.47,0,0,0,3.48,6.72l1.44,1.68a29.79,29.79,0,0,0,3.72-13.92q2.34-72.9,1.56-145.68-1.26-121.14.72-242.16l.72-43.56c.12-6.84,0-13.56-.36-20.28l-.48-6.6,36,.12.6-1.8.48-1.68.24-1.92V54.12l-.24-1.68Zm98.28,22.2,3,4.08c2.4-19-6.6-26.52-26.88-22.8a28.87,28.87,0,0,0-18,11.52,82.19,82.19,0,0,0-16.56,42.6c-1.08,10.68-2.4,21.36-3.84,32s-2.52,21.36-3.36,32-1.56,21.48-2,32.28l-.48,16.32-.24,32.28.24,32.4.6,32.16,1,32.16,1.2,31.56,1.56,31.32c.6,10.56,1.2,21.12,1.92,31.56a315.74,315.74,0,0,1,.24,46.44c-1.2,16.44,4.56,29.52,17.28,39.12A31.77,31.77,0,0,0,297.6,535q30.06-15.12,38.4-47.76a44.85,44.85,0,0,0,1.08-16.92l-5-3.12-1.32,5c-4.2,26.64-18.84,40.8-43.68,42.48a875.37,875.37,0,0,1-17.88-214.56,64.14,64.14,0,0,0,32.52,8.4,11.86,11.86,0,0,0,1.92-11.76,16.13,16.13,0,0,0-1.44-2.88A114.36,114.36,0,0,1,269,286.32Q260.76,184.26,289,88.08c5.64-19.2,17.28-25.56,34.68-19A49.09,49.09,0,0,1,329.76,72.24ZM436.68,293.88l-8-.24Q393.72,334.5,399,392.16a529.63,529.63,0,0,1,2,69,172.8,172.8,0,0,0,5.76,50.76c1.32,4.8,2.76,9.6,4.56,14.28l1.8,4.68,1.92,4.56c10.8.36,19.08-4.32,25-14l1.08-2.28a33.34,33.34,0,0,0,4.2,21.72A165.9,165.9,0,0,0,448,466l-21.12-1.68a10.94,10.94,0,0,0,.12,11.16l.48.6,16.32,1.8-1.56,30.72-1.68-6.6-4.08,4.8c-.12-1.08-.48-1.2-.84-.12a2.32,2.32,0,0,0,0,1.8q-6.66,12.42-19.44,11.16a568.31,568.31,0,0,1-4.08-190.68c2.16-14.52,10.08-21.6,23.76-21.48a47.2,47.2,0,0,0,1.8,11.76,2.29,2.29,0,0,0,1.8,1.44c4.92-7.92,4.56-16.08-1.2-24.6Zm-85.44-1.68-.84,1.92-.24-1.56h-.6l-.6,6.24a39,39,0,0,0-1,10.68q-1.26,15.48-2.16,31.68c-2.28,42.6-3.72,85.44-4.2,128.28a289.68,289.68,0,0,1-2.16,32.28q-2.34,18,3.6,32.4c4.2-17.64,5.64-36.48,4.56-56.52-1-19.2-1-38.16-.12-56.88,1.08-21.48,2.76-42.72,5.28-64l.72-6.36c4.2,29.64,8.88,59.28,13.92,88.68a590,590,0,0,1,7.44,63.24,79.22,79.22,0,0,0,6.84,28.32l-.48,3.48c.84,1.44,1.92,1.68,3.24.84a106.51,106.51,0,0,0,8.4-39.84l-.6,1a22.91,22.91,0,0,1-1.8,5.28,556.76,556.76,0,0,1-1.2-78.84q3.6-64.62,1.68-128.4a358,358,0,0,0-5.52,47.64q-3.06,63.72-1.08,128.16a391.94,391.94,0,0,1-1.08,44.64,713.82,713.82,0,0,0-11-97Q360.9,355,352,292Zm8.88-106.68-25.8,4.68L354,91.68ZM358.44,53.88a8.85,8.85,0,0,0-4.68,6.6q-5.22,28.08-11.52,55.8-14.4,62.28-23.64,125.4a62.85,62.85,0,0,1-4.44,15.6c-4.2,9.24-4,17.16.72,23.64a136.72,136.72,0,0,0,11.52-39.36c1.92-14.28,4.08-28.44,6.48-42.72a102,102,0,0,0,28.92-.6c1.08,8,2.16,16,3.48,23.88a213.21,213.21,0,0,1,2.52,32.52c.12,12.48,2.52,22.92,7.44,31.44a427.81,427.81,0,0,0-5.88-86.16,537.94,537.94,0,0,1-7.44-78.72,477.11,477.11,0,0,0-4.32-56Zm30.72,7q-.54,64.44-1.68,129.12c-.36,21.36-1.2,42.72-2.28,64.08-.6,9.72,1.2,17.52,5.28,23.28a4.74,4.74,0,0,0,1.44-3,127.53,127.53,0,0,0,49.68,7.32l.84-.48,1.68-1.08,1.2-1.32.48-1,.36-1.56.24-1.56v-2.4L446,270.6l-1-2.4a.91.91,0,0,0-.84-.48q-26.1.54-52.2-1.44.54-41.4,1.8-83,1.8-64.8-1.8-128.28C390.12,56.16,389.16,58.08,389.16,60.84ZM511.92,49a917.5,917.5,0,0,1-97.44,4.56L413.4,56c-1.32,4.68-.24,8.28,3.24,11,18.84,0,37.68-.24,56.4-.84a167.71,167.71,0,0,0-.84,20.88c.84,42.84,1.44,85.8,1.92,129.12s.6,86.16.48,129q-.18,64.62-1.56,129.12c-.24,10.8-.84,21.6-1.92,32.28q-1.62,18,4,32.4a2.32,2.32,0,0,0,2.16-2.16,515,515,0,0,0,4.32-64.2l-.24-129c-.12-42.84-.48-85.8-1.08-129.12q-.9-64.62,0-129a100,100,0,0,0-1.44-19.44L516,64.68a7.13,7.13,0,0,0,1.8-3.24A16.3,16.3,0,0,0,516.48,50a1.93,1.93,0,0,0-.84-.48Zm55.92,13.32a406.48,406.48,0,0,0-4,78.72L570,270.12l.48,12.24-.72-.24a35.14,35.14,0,0,0-8-1.2c-16.56,2.4-33.24,4.32-50.16,5.76l.48-51q.18-16.38,1.08-32.4a863,863,0,0,0-1-128.28c-.36.12-.48.12-.48.24-2.76,38.64-4.44,77.64-5.28,116.88l-2.16,96a6,6,0,0,0-1.08,4.68l.6,3.24.36.36-.72,24.84c-1.2,43.08-1.8,86.16-1.8,129a552.06,552.06,0,0,1-3.72,64.68c-1.2,10,.6,18,5.4,24.36a180.24,180.24,0,0,0,5.4-46.32q-.54-64.26,1.2-128.16l1.56-65.28a338.46,338.46,0,0,0,59.52-2.4l.12-.36c1.08,33.84,1.44,67.68.84,101.52-.72,42.84-.48,85.32.84,127.68l-2.28-2-1,2.16a7.11,7.11,0,0,1,1.44,4.2q.18,14.76,6.48,25.2a23.49,23.49,0,0,0,3.84-13.8c-.36-31.32-1-62.64-1.8-94.2-1.08-42.84-1.68-85.8-1.56-129q.18-64.44-3.84-128.28c-2.76-43-4.56-85.68-5.64-128.28Z" transform="translate(-25.8 -41.64)"/></svg>