<svg id="Layer_1" data-name="Layer 1" xmlns="http://www.w3.org/2000/svg" xmlns:xlink="http://www.w3.org/1999/xlink" viewBox="0 0 579.6 594.87"><defs><style>.cls-1{fill:none;}.cls-2{clip-path:url(#clip-path);}.cls-3{fill-rule:evenodd;}</style><clipPath id="clip-path" transform="translate(-14.88 1.83)"><rect class="cls-1" x="14.88" width="579.72" height="593.16"/></clipPath></defs><g class="cls-2"><path class="cls-3" d="M426.48,553.2c0,1.56-4.92,5.88-14.88,13a107.67,107.67,0,0,1,10.92,9.48c4.32,4.92,6.72,10.2,7.2,16l-.48.48-.6,1q-4.5-3.06-14-15.12l-7-9-12.36,8.76c.12,1.68.48,3.6.84,5.76.24,4.08-1.2,7.2-4.32,9.24a1.92,1.92,0,0,1-.84-1.08l-.24-2.64a82.25,82.25,0,0,1,.48-8.52l-.24-.72a12.73,12.73,0,0,1-.24-2.52,4.87,4.87,0,0,1,1-2.28l.36-3.72c1.32-11.28,3-18.84,5.16-22.56a2.14,2.14,0,0,1,1.56.84,4.47,4.47,0,0,1,.6,2.64,37.61,37.61,0,0,1-1.8,8.16A63.25,63.25,0,0,0,395.28,571c2.28-2.16,5.52-4.8,9.6-8a209.17,209.17,0,0,1,19.44-13.2,2.79,2.79,0,0,1,1.56.84A4.47,4.47,0,0,1,426.48,553.2Zm21-34.32a7.72,7.72,0,0,1,1.44,3.72v1.56l-.48.12-.36.48-2.28-2.64-1.44-2.4-10.08.24-1.08.84a3.76,3.76,0,0,0-.48,2.4c0,.84,3.6,3.72,10.8,8.88s10.8,8.76,10.8,10.8c0,2.28-1.08,4.56-3.12,6.84a12.61,12.61,0,0,1-9.6,4.32q-8.46,0-11.88-8.64a29.22,29.22,0,0,1-1.68-6l-.24-3,.12-2.4c.12-.24.36-.72.72-1.56.36.48.84,3.48,1.68,9.12q2,7.92,6.48,7.92c5.64,0,9.72-1,12.36-3q2.52-2,2.52-3.6c0-.84-1.08-2-3.24-3.48l-7.08-4.32C434.52,530.76,431,526.68,431,523a14.07,14.07,0,0,1,.6-3.6A10.69,10.69,0,0,1,434,515l11.16.24Zm-389,28.68,23.88.84,5.52.24,6.36.84,12.6.72,6.6.84.12.6.12,2.64c0,.84-6.12,4.2-18.36,10.32-15.12,7.56-25.68,13.2-31.68,17l8.4-.12,7,.36c26.88.36,40.56.72,40.92,1.08l13.56-.48.6,1.08.12,2.52-.24,2.64-.84,1.08H49.8l-1.92-.36a20.46,20.46,0,0,1-.24-3.6c0-1.2,7.32-6.12,21.84-14.64q20.16-12.06,26.28-14.76l-7.92-1.08-6.6-1.08-22.8,1.08-7.56.84-2-.24-1-.84a13.93,13.93,0,0,1-.24-3.24,9,9,0,0,1,.24-2.4l.84-.84,9.72-.6Zm150.12-92.64c1.32,2.28,1.92,3.84,1.92,4.92l-.84,2.28a8.5,8.5,0,0,1-2.4,2.88,19.46,19.46,0,0,0-6-6.72,71.33,71.33,0,0,1-9.6-7.92c-20-1.32-34.8,6.6-44.4,23.52a76.25,76.25,0,0,0-7.44,20A67.14,67.14,0,0,0,138,508.2c0,6,1.68,12.6,5.16,19.8,5,10.68,12.12,16,21.36,16l10-.12,8.4-.6c12.36-1.56,21.36-5.52,27.12-11.88,3.12-3.36,5.88-8.76,8.16-16.08q2.16,1.26,2.16,5.4c0,6.12-2.76,12.36-8.4,18.48-7.32,8-17.28,12.6-30.12,13.8-21.48-1.44-35.52-7.92-42.24-19.44a34.51,34.51,0,0,1-4.44-14.16c-.24-1.92-.36-5.76-.36-11.64a83.11,83.11,0,0,1,7.92-36c6.72-14.16,16.92-24.24,30.48-30.24,11.88-2,21.48.12,29,6.24A24.16,24.16,0,0,1,208.56,454.92Zm92.16,23.88.24,2.76-1.2,11.4c-.84,7.56-1.44,13-1.56,16.2,22.68,0,34.2-.24,34.32-.84l.24-.36.6-.48a4.85,4.85,0,0,1,1.8,1.56,7.17,7.17,0,0,1,.36,2.76l-.24,4.08H296a22,22,0,0,1-.6-6.12,140.36,140.36,0,0,1,0-17.64c.36-7.2,1.92-12.12,4.68-14.64ZM182.28,336l-2.76,29.4,7-.24a26,26,0,0,1,4.32-3.48l6-3.6c3-1.56,4.56-3.24,4.56-4.8a11.06,11.06,0,0,0-1.2-3.72,30.93,30.93,0,0,0-3.84-6.36Q190.56,336,182.28,336Zm-8,28.56h.12c1.56-16.92,3.24-28.8,4.8-35.4l.84.72c9.48-2.28,16.2.84,20.16,9.12a34.15,34.15,0,0,1,3.36,14.16c0,2.76-1.32,5.4-3.84,7.8l-5.88,5.28c2,4.44,5.16,11.16,9.36,20q7.92,16.74,7.92,18c0,1.8-.12,2.76-.24,2.76l-.36.36-.48.48c-2.4-3.48-5.88-9.72-10.32-18.6-4.68-9.12-7.56-16-8.64-20.4l-3.48,3h-8.64c-1.8,17-3.36,29.28-4.44,36.84a8.46,8.46,0,0,1-2.4-2.76,4,4,0,0,1-.48-1.68c0-4.8.72-15.84,2.16-33l.36-3.72A5.16,5.16,0,0,1,174.24,364.56Zm-46.2-64c0-2.52.6-4.32,1.8-5.28l33.6-1.08,9.72-.48v-.6l11.16.24a8.37,8.37,0,0,1,2.64,6.12,11.13,11.13,0,0,1-.36,3.12l-1.2,2.16a1.91,1.91,0,0,1-1.44-.48l-5,.12-5.76.6-4.56.36-5.16.72-4.56.24v.48a31.15,31.15,0,0,1-1.08,9.36v59.28c-.48,8.76-1,21.12-1.56,36.84l-.6,23.64c0,2.4-1,5.28-2.76,8.52h-1.56a103.82,103.82,0,0,1-.6-12.6c0-12.36.24-22.8.6-31.32A291,291,0,0,1,154,369.72V310.44l.36-4-22.8.48a12.23,12.23,0,0,1-3-3.72A5.78,5.78,0,0,1,128,300.6Zm31.08-172.92Q153.9,132,150.48,132l-6.84-.12-3.72,15.84-.6.24-.48-.6V145.2a78.07,78.07,0,0,1,1.8-13.44h-.24l-.48-.36v-1.68c0-1.08.12-1.8.36-1.92l.48-.12h.72l.6-2.76c2-8.76,3.48-13.8,4.32-15.36l.24.84a2.8,2.8,0,0,1,2.52-2.28c1.56-.24,3.6.48,6.12,2a24.57,24.57,0,0,1,6.12,5.52c1.92,2.28,2.88,4.32,2.88,5.88C164.28,122.88,162.6,124.92,159.12,127.68Zm-1.44-4.08a12.78,12.78,0,0,1,3.84-1.8,13.19,13.19,0,0,0-4.44-6.6c-3.24-2.88-6.72-3.12-10.2-.72a92.9,92.9,0,0,1-2.16,13c6.48-.6,10.32-1.44,11.52-2.28ZM126.24,37.92c-.6,2-1.32,3.36-2.28,4.08l-3.24-6.36a79.06,79.06,0,0,0-5.88-10.44C108.48,15.72,100.68,11,91.68,11Q51.36,11,37.56,47.4a92.73,92.73,0,0,0-5.88,38.52q0,32.76,15.6,69.36Q53.22,169.14,63.12,188l18.36,33.6q23.58,43.56,34.2,76a307.36,307.36,0,0,1,15.6,97.8c0,19.32-1.92,35.28-5.76,48-.36,1.08-2,3.84-5,8.16a129.5,129.5,0,0,1-11.76,14.76C96.12,480.12,84.84,487,74.64,487c-19.44,0-34.8-8.52-46.2-25.68A82.51,82.51,0,0,1,18.12,439,69.5,69.5,0,0,1,14.88,419c0-5.64,2-14.64,6.12-27.12,4.56-13.8,8.52-20.64,12-20.52a10.55,10.55,0,0,1,1.92,6.12L27.36,396c-5,12.84-7.56,20.52-7.56,23.28,0,2.16.84,5.76,2.4,10.92a84.59,84.59,0,0,0,8.16,18.36Q44.94,473.4,67.44,473.4q31.86,0,47.88-30.84A101.55,101.55,0,0,0,124.08,417a101.54,101.54,0,0,0,2.28-20.76,287.87,287.87,0,0,0-15.48-94c-6.84-20-18.36-44.64-34.32-73.8l-18.24-33.6c-6.6-12.6-11.88-24-16-34-10.44-25.56-15.6-50.76-15.6-75.36,0-26,5.28-46.68,15.72-62.16C51.36,10.32,62.76,2.4,76.8-.36c12.84-2.52,24.24-.6,34.44,6C121.68,12.48,127,21.72,127,33.36A15.07,15.07,0,0,1,126.24,37.92Zm181.08,40,.36,1.68a37.83,37.83,0,0,1,.48,5.28l-.36,4.68a40.68,40.68,0,0,0,9.12-1.44,3.25,3.25,0,0,0,2.4-3c0-2.28-1.32-4.56-4.08-6.6A6.53,6.53,0,0,0,307.32,77.88Zm-1.2-4a2.75,2.75,0,0,1,1.8-1.44c1.44-.24,3.24.24,5.4,1.56a21,21,0,0,1,5.4,4.92c1.68,2.28,2.52,4.32,2.52,6.24a9,9,0,0,1-1.44,4.92L318.24,92a162.59,162.59,0,0,1,11.64,16.56l-.12,1.8-.12.24-.6.6c-2.64-1.92-5.52-5-8.76-9.48-2.76-4-4.8-6.24-6.12-6.72V94l-2.4.24-4.56-.12L306.12,100l-3,13.44-.72-.84-.12-2.64,1.92-16-1.44-.12-.48-.24V91.8q0-1.62.36-1.8l.48-.12,1.56-.12c.6-5.4.84-9,.84-10.8V76.68l.12-1.44.12-1.32ZM511.92,369.6l-2,15,2.4-.24.6,1a7.88,7.88,0,0,1,.24,2.28,4.46,4.46,0,0,1-.72,2.76l-1.56,1.32-1.92-.12c-.84,6.12-1.32,9.72-1.32,10.56a14.11,14.11,0,0,1-.84,4.32l-1.8,4.2-1.08.24a13.31,13.31,0,0,1-.6-4.08,106.61,106.61,0,0,1,1.92-15.48l-1.92-.48c-11.88,1.2-20.16,1.32-24.84.24a132.12,132.12,0,0,1-1.08,16.56l-.48.48-1.2.6-1.2-1.8a6.47,6.47,0,0,1-.36-2.64c0-5.88.12-10.8.48-14.76a2.49,2.49,0,0,1-.72-1.2l.24-1a6.18,6.18,0,0,1,.36-2.52l.48-.6.24-14a16.16,16.16,0,0,1,.12-2.64l.12-.48h1.08a36.92,36.92,0,0,1,1.8,9.72l.12,7.32c16.8.12,25.44.48,25.92.84l1.92-.12c1.8-10.56,3.48-16.8,4.92-18.84l.6,1.08Zm-.72-28-5.88-3.6-5.76-3.48-2.52.24-1.56.6-.6.72a3.57,3.57,0,0,0-.48,2.28c0,.48.84,1.2,2.4,2.28L502,344c5,3.48,7.56,7.68,7.56,12.36,0,1.8-1.32,4.08-4,7.08-3.24,3.6-7,5.4-10.92,5.4q-11.16,0-15.12-5c-1.32-1.68-1.92-4-1.92-7l.24-3.36a5.56,5.56,0,0,1,1.44-2.76h1.56l.6,2.16a4.37,4.37,0,0,1-1.32,1.44,2.67,2.67,0,0,0-.84,2.28,6.58,6.58,0,0,0,1.8,4.44q3.06,3.24,9,3.24a25.81,25.81,0,0,0,12.48-3.24c3.24-1.8,4.8-3.12,4.8-4.08a8.14,8.14,0,0,0-2.28-6,18.71,18.71,0,0,0-5-3.36,19.55,19.55,0,0,1-5-3.6,8.14,8.14,0,0,1-2.28-6c0-5.52,2-7.92,6.24-7.2,3.84.6,8,3.36,12.72,8.28Zm-154.08,29a6.77,6.77,0,0,1,.84,2.76c0,3.72-3.36,19.32-10.2,46.8-7.56,30.6-14,52-19.2,64.2q-7.92-17.64-19.08-49-13.14-36.9-18.36-50h-.24c-.36,2.28-1.92,18.72-4.68,49.08-1.92,20.28-4.56,36.48-8,48.84-1.32-1.2-1.92-3.24-1.92-6.12,0-7.08,2-26.28,6.24-57.72,4-29.64,6.48-46.8,7.56-51.72l20,51c7.56,20,13.68,37.2,18.12,51.36a129.63,129.63,0,0,0,8.16-25c1.32-5.52,3-14.16,4.92-26,1.92-11.4,3.6-20.16,5-26.16a137.21,137.21,0,0,1,8.76-25.2A8.84,8.84,0,0,1,357.12,370.68Zm31.8-.84a6.71,6.71,0,0,1,4.8,6.84,4.88,4.88,0,0,1-.6,2.52l-1,1.08-.6.24L388.44,376c-1.8-2.28-3.48-3.48-5-3.48-6.84,0-11.76,3.36-15,10a27.42,27.42,0,0,0-3.12,11.88c0,1.68,1,3.48,2.88,5.28a14.8,14.8,0,0,0,6.12,3.72c7.2-.48,11.64-1.8,13.44-3.84l1.44-2.4a3.92,3.92,0,0,1,1.32-1.92l.6-4.08v-1.32l-6,.84c-1.8.36-2.88.72-3,1.08l-2.4-.24c-.36-.12-.6-.84-.6-2,0-3.12,4.68-4.44,14.16-4l.36,1,.12,2.28-1.08,8.52v.48l-.24,1.2c-.72,4.92-1.2,8.52-1.32,10.92h-.6c-.24-2.64-.36-5.16-.36-7.68l-2.28,2c-3,2.52-5.28,3.72-6.84,3.72-7.32,0-12.6-1.92-15.6-5.88a11,11,0,0,1-2.52-7c0-6.36,1.56-11.76,4.8-16.2a21.87,21.87,0,0,1,10.68-8.28C382.32,369,385.92,368.76,388.92,369.84Zm26.16-1c3.6-.36,5.64-.72,6-1.08l28.44-.48.72-.6,16.56.36,1.2,2.28a9.69,9.69,0,0,1,.36,3,7.41,7.41,0,0,1-1.8,5.28l-7.8.24-8.52.84-10.08.12c-.12,5.4-.72,13-1.68,22.8-1.08,11.28-1.92,18.84-2.52,22.56v58.44a25.33,25.33,0,0,0-.6,8.28l1,7.92c.6,6.12-1.08,11.16-4.92,14.88a15.58,15.58,0,0,1-1.2-4.92,39.15,39.15,0,0,1-.24-4.44q0-2.34.72-11.16c.48-6.6,1-11.88,1.44-16V418.68c.36-2.4,1.08-11.16,2.16-26.16.36-5.16,1-9.6,1.56-13.56l-13.92.24-4.8.84c-2.88.36-4.44.6-4.68.84l-9.24-.36a6,6,0,0,1-1.08-2.16,17.67,17.67,0,0,1-.24-3c0-2.64.6-4.44,1.8-5.28Zm-43.32-91.2c0-1.32-1.8-4.08-5.28-8.16s-6.12-6.48-7.92-7.32l-9,.72-1.32.48-.24.72v27.24a27.81,27.81,0,0,0,17.64-5.76Q371.76,280.92,371.76,277.68Zm-.12,12c-3.72,6.6-9.24,10-16.56,10L348,299.4v19a29.89,29.89,0,0,0-1,6.72l-.36,7.92-.6.48-.84.84a7.12,7.12,0,0,1-2.16-1.56,5.4,5.4,0,0,1-.48-2.76,55.8,55.8,0,0,1,.72-7q.54-4.86,1.44-9.36v-55.8c.36-.84.72-1.68,1.2-2.76a6.44,6.44,0,0,1,1.44-1.8l12.24.24c10.2,6.6,15.36,14.64,15.36,23.88A25.49,25.49,0,0,1,371.64,289.68Zm4-107.88,19.44.84,1.56.12.12-.6h.84l.12.6,21.48.48.6.84a9,9,0,0,1,.24,2.4,4.91,4.91,0,0,1-.36,2.28l-.72.72H398l-1.32,10.92c-1.08,9-1.68,14.28-1.68,15.84a12.19,12.19,0,0,1-.72,4.08,8.59,8.59,0,0,1-3.6,4.56,2.68,2.68,0,0,1-.84-.84l-.24-2.52c0-1.68,1-7.92,3-18.72l2.64-13.32H377.76l-3-.36a20.46,20.46,0,0,1-.24-3.6C374.52,183.48,374.88,182.16,375.6,181.8Zm-23.28-57.36-.24.84L348.84,120c-1.8-2.64-3.84-4-6.24-4q-22.68,0-31.68,19.8A56.15,56.15,0,0,0,306,159.36a21.52,21.52,0,0,0,4.44,13.08c4.44,6.12,11.28,9.12,20.52,9.12,10.44,0,18.48-2.64,24.36-7.92a19.89,19.89,0,0,0,4.68-6,7.93,7.93,0,0,0,1.2-4h.6l.36,1,.12,2.28a9.75,9.75,0,0,1-1.56,4.08,35.53,35.53,0,0,1-4.92,6.48c-5.52,5.76-11.88,8.64-19.2,8.64-13.8,0-23.28-4.08-28.32-12.12a28.14,28.14,0,0,1-3.84-15q0-19.62,7.56-32c4.2-7,9.72-11.64,16.56-13.92,5.88-2,11.4-2,16.56.12,4.92,2.16,7.44,5.52,7.44,10.08C352.56,125,352.44,125.4,352.32,124.44Zm57.36,31.08a19.34,19.34,0,0,1-.24-3.12,8.23,8.23,0,0,1,2.4-6q25.56,1.08,31,0a134.07,134.07,0,0,1,22.68-2.4l18.36-.6v-.48c10.92-1.08,18.12-.24,21.6,2.28,1.8,1.2,2.4,2.64,1.92,4.32,0,2.76-.36,4.2-1,4.56L499,154l-8.76.24-7.44.6-8.88.36-8.28.48.12,4.92c0,3.72-.24,7.68-.6,12.12l2.16,70.2-.12,25.32c-.12,3.6-1.2,13.92-3.12,31l-1.32.24a17.82,17.82,0,0,1-1.32-6.84l2.16-49.44c0-6-.6-20.28-1.68-42.84-1-21.24-1.44-36-1.56-44.28l-13,1.2-5.76.84c-19.68-.36-30-.48-30.84-.24A6.37,6.37,0,0,1,409.68,155.52Zm-57.84-83,9.12.84,7.32.6,1.32,1.2L371,76.56,370.68,78l-.48,1-6-.84-4.32-1L352,76.68l.36,2,.24,4.44-.6,6.72,12,.24h3.24l.6,2A5.91,5.91,0,0,1,366.12,95H351.48c-.84,7.68-1.44,13.32-1.56,17l-.6.24a34.68,34.68,0,0,1-.48-7q0-3.42.72-15.12a131.32,131.32,0,0,0,.36-16.32H351a3.59,3.59,0,0,1,.36-1.32ZM362,47.4a26.94,26.94,0,0,1-5.88-7.68l-4.44-9c-4.2-7.68-10.8-13.56-19.92-17.52Q285.54,1.5,266.52,87.72c-3.48,14.76-6.12,27.36-8.16,37.8-2.76,14-5,27.12-6.72,39.24-3,21.36-5.52,46.92-7.8,76.8l-.72,9.6c31,.12,46.68.36,47.28.72l37.08.6a11,11,0,0,1,1.2,9.6l-1.8,3.12L308.16,265l-19.44-.6-46.56-.48-3.72,54.24v57.6c-.72,6.48-1.08,16.8-1.08,30.84,0,8,1,23.64,3,46.92L243.84,495q1.44,42.3,24.36,64.44a62,62,0,0,0,44.4,17.88c19.56,0,35-8.28,46.56-24.72a85.55,85.55,0,0,0,9.24-17.4l2.88-9c2.28-6.6,4.08-15.72,5.16-27.12,1.44-15.84,2.4-25.2,3-28.08,1.08,1.08,1.92,3.48,2.4,7.2l.48,6.12a171.11,171.11,0,0,1-1.2,19.32A176.33,176.33,0,0,1,373.2,540q-17.28,50.94-59.28,50.88-41.22,0-58.92-30.6c-4.56-7.8-8.16-17.52-10.92-29-1.56-6.6-3.24-16.56-5.16-30-4.2-29.28-6.36-47.16-6.72-53.76l.24-41.16c0-15.72.36-27.6,1.08-35.76V313.68q3.24-59,5.76-89c2.88-34.44,7.2-64.56,13-90.12l9-43.68a453.72,453.72,0,0,1,11.52-45.6c3.24-10.44,6.48-18,9.84-22.92,6.6-9.48,16.44-16.56,29.64-21,15-5,28-.48,39.12,13.56a66.9,66.9,0,0,1,9.48,16.2c2,4.92,3.12,8.28,3.12,10.2A10.55,10.55,0,0,1,362,47.4ZM444.6,37.08l.24,2.52c0,2.52-3.6,9.24-10.8,20L422.16,76.8c-4.44-3.48-9.48-8.64-15.12-15.72L395,45.72q-1.26,4.5-3.6,13.32a43.48,43.48,0,0,1-6.12,13.2l-.84-.6a8.29,8.29,0,0,1-.24-2.4c0-1.92,1-6.6,3-14,2.52-9.48,5.28-15.84,8.16-19.2,2.28,4.44,6.24,10.2,12,17.52A193.57,193.57,0,0,0,421.08,69L444,36ZM496,22.56c11,4.44,16.56,9.24,16.56,14.28l-.24,3.24-.24.36c-.12.36-.72.48-1.8.48s-7-2.76-17.52-8.16c-11.76-6-19-9.48-21.6-10.56l-1-.36L462.6,24c-27.72,7-42.48,10.8-44.28,11.4l-.84-1.8L417.24,31c0-4.2,12.48-9.72,37.32-16.32l2.28-.6-1.08-.72c-6.24-3.24-16.56-5.16-31-6L424.08,6a8.06,8.06,0,0,1-.36-2.76c0-6.36,7.56-6.72,22.8-1.2C451.68,4,457.08,6.36,463,9.12l4.44,2.28,15.48-3.84c10-2.52,16.08-4.2,18.6-5.16a6.78,6.78,0,0,1,1.08,2l.24,2.88c0,2.64-6.72,6.24-20.28,10.68Zm88.68,54.72A10.6,10.6,0,0,1,582.36,83c-5.52-10.32-9.72-17.4-12.72-21.36-7.56-10-15.24-14.88-23-14.88q-29.7,0-39.24,16.56A28.89,28.89,0,0,0,503.64,75a23,23,0,0,0,0,5.76c0,9.48,4.68,25.32,14.16,47.76,2.28,5.64,7.2,16.68,14.64,33.24q10.44,23.58,16.56,38.52,20.7,49.32,31.32,90.48,14.22,54.54,14.16,104c0,10.92-.24,26.52-.72,46.68-.84,27.72-1.8,44.52-3,50.28q-1.62,7.74-4.32,23.76a135.64,135.64,0,0,1-7.08,24.36q-11.7,27.9-43.56,46.68l-28.68-.36c-9.48-5.28-18.72-15.48-27.84-30.48-8.76-14.4-13.08-25.92-13.08-34.68a82.77,82.77,0,0,1,.36-10.08,23.25,23.25,0,0,1,4.32-11,10.07,10.07,0,0,1,2.4,6.48,63.29,63.29,0,0,1-1.08,7.2,52.81,52.81,0,0,0-1.08,7.08c0,2.52,4.56,10.8,13.8,25.08,10,15.48,17.64,24.6,23,27.48L535.8,573q28.08-16.2,39.12-43.2a150.49,150.49,0,0,0,6.72-23.28c2-10.2,3.6-17.64,4.8-22.32,0-4,.48-19.32,1.56-45.84l1.68-43.8q0-47.34-14.16-99.12-10.44-38-31.32-86.76c-15.24-34-25.56-58.08-31.2-72.36-9.48-23.88-14.28-42.6-14.28-55.92q0-16.38,4-24.84c5.16-10.92,15.48-18.12,31-21.48,34.08,4,51.12,16.68,51.12,37.92ZM546.84,49l2.52,2.76a14.15,14.15,0,0,1,2.4,3l-.6,2.4a4.78,4.78,0,0,1-3.24-1.68l-1.8-2.16-7.92.24-3.72,4.92,16.68.24.6,2-.6,2-9.24.36-9.36.72-1.32-.24v.12c0,1.8,1,3.48,2.88,5.28A14.52,14.52,0,0,0,544,72.24c4.92,0,8.64-.84,11-2.64a9.23,9.23,0,0,0,2.76-3.36l.36.6.12,1.92c0,1.32-1.08,2.88-3.24,4.92s-4.32,3.12-6.24,3.12c-9.36,0-15.36-1.92-17.88-5.88a9.31,9.31,0,0,1-1.44-4.56l.12-3.24a15,15,0,0,1,2.4-8.4,23.51,23.51,0,0,1,6-6Z" transform="translate(-14.88 1.83)"/></g></svg>