<svg id="Layer_1" data-name="Layer 1" xmlns="http://www.w3.org/2000/svg" viewBox="0 0 507.36 342.48"><defs><style>.cls-1{fill-rule:evenodd;}</style></defs><path class="cls-1" d="M256.92,86.88l-3.72-4.32-2.4,4.68A871.18,871.18,0,0,0,58.68,111.48l.12,9.72A1789.46,1789.46,0,0,1,245.64,98.64Q161.4,237.06,67,369.36c-6.36,9-13.2,17.76-20.28,26.28l-3.36,4.44L40.8,404.4A20.83,20.83,0,0,0,39.12,409a14.47,14.47,0,0,1-2.88,5.76L37.32,425l2.4-3,256.56-16.68a11.07,11.07,0,0,0-.24-12.24q-124.56,3.24-248,18.36Q141.78,279.72,228.48,143a329.11,329.11,0,0,0,17.64-31.8l6.48-13.08,1-2,1-2.88ZM457,95q-1.44,10.62-2.16,23.76-3.42,63.54-9.36,126.48c-4,43-9,85.8-14.88,128.4q-1.08,8.1-2.88,15.84c-2.76,12.36-2.16,23,1.68,31.8a16.16,16.16,0,0,0,2.16-7.32q5.76-63.54,13.56-126.84,7.92-63.72,13.44-127.92A279.24,279.24,0,0,0,457,95Zm-74.4,36.72a83.33,83.33,0,0,0-40.92-16.2c-15.48-1.68-30.12,1.92-44,10.68a226.15,226.15,0,0,0-36.84,28.92,139.07,139.07,0,0,0-28,38.28,117,117,0,0,0-12.24,43.08l-2,.12-1.32,8.52,3,.36a127.19,127.19,0,0,0,16.68,67.2,93.14,93.14,0,0,0,30,31.92,140.71,140.71,0,0,0,34.68,16.2,135,135,0,0,0,31.68,5.64,122.14,122.14,0,0,0,41.64-5c17.88-5.16,30.72-14.88,38.76-29,1-1.8.72-3.6-.72-5.52a161.31,161.31,0,0,1-69,26,101.75,101.75,0,0,1-44.52-4.44,108.52,108.52,0,0,1-37.68-21.24,111.56,111.56,0,0,1-18.84-20.88,95.64,95.64,0,0,1-17.52-47.52c-.36-4.32-.6-8.64-.72-12.84l146.52,8.52a15,15,0,0,0,1.08-10.2,15.16,15.16,0,0,0-1.8-4.08q-72.36.72-145.2-3.6,7.74-47.16,44.28-79.08a154.43,154.43,0,0,1,54.72-30.72,70.45,70.45,0,0,1,39.6-1.2A170.51,170.51,0,0,1,382.56,131.76Zm159.12-36c-4.92,42.36-10.56,84.72-16.8,126.84s-11.4,84.12-15.6,126.48c-.6,7.08-1.56,14-2.64,21q-8.82-57.78-15-115.92c-1.2-10.8-2.76-21.48-4.56-32.16q-11.34-63.18-25.8-124.56c-.6,11.28.48,23.76,3.12,37.32,3.24,17.16,6.84,34.32,10.68,51.36A859.72,859.72,0,0,1,492.6,297q5.76,63.18,13.92,124a90.69,90.69,0,0,0,3.12-25c3.72-26.28,6.84-52.92,9.12-79.68q4-48.06,12.12-95.52a897.57,897.57,0,0,0,12.72-127A2,2,0,0,0,541.68,95.76Z" transform="translate(-36.24 -82.56)"/></svg>