<svg id="Layer_1" data-name="Layer 1" xmlns="http://www.w3.org/2000/svg" viewBox="0 0 249.79 205.06"><defs><style>.cls-1{fill-rule:evenodd;}</style></defs><path class="cls-1" d="M232.08,206.76A48.76,48.76,0,0,1,265.8,226.2l2.88,3.84c.24-17.16-7.92-29.28-24.6-36.36-16.92-2.88-27.6,4.8-32,23.16-3.84,15.36-1.2,29.64,8,42.84,8.64,12.48,17.64,24.72,26.88,36.84a71.94,71.94,0,0,1,15,38.64c1.56,17.52-5.16,29.28-20.16,35.4s-30.12,7.32-45.36,3.36c-17.76-4.44-25.2-15.72-22.32-33.6a127.69,127.69,0,0,0,1.44-13.44l-4-.6q-16.38,22.5-.36,49,15.3,25.2,44.76,22.68a66.4,66.4,0,0,0,33.84-12.48,39,39,0,0,0,14.64-20c9.24-28.2,5.16-53.88-12.48-77a214.85,214.85,0,0,1-32.16-59.28c-1.92-5.4-.72-10.44,3.48-14.88A58.51,58.51,0,0,1,232.08,206.76Zm174.36,103.8c-.72-10-6.36-16.32-17-19.2q-31-8.46-42.12,25.56-10.8,32.58,2.52,64c3.84,8.88,10.56,14.16,20.28,15.72,15.72,2.88,28.56-1.68,38.64-13.68,5-5.88,5.76-12.12,2-18.72A53.74,53.74,0,0,1,378,381.12q-15.66,2-26.28-9.36l-2.4-22,40.56-5.4a10.17,10.17,0,0,0,1.32-7.32l-.84-2.4-1.32-2.4a49.48,49.48,0,0,0-31.44.84l-7,2.76,7.56-23.4c13.32-7.56,28-8.64,43.68-3.24Z" transform="translate(-163.32 -193.09)"/></svg>