<svg id="Layer_1" data-name="Layer 1" xmlns="http://www.w3.org/2000/svg" xmlns:xlink="http://www.w3.org/1999/xlink" viewBox="0 0 599.76 599.52"><defs><style>.cls-1{fill:none;}.cls-2{clip-path:url(#clip-path);}.cls-3{fill-rule:evenodd;}</style><clipPath id="clip-path" transform="translate(-2.4 4.08)"><rect class="cls-1" x="2.4" width="592.92" height="595.56"/></clipPath></defs><g class="cls-2"><path class="cls-3" d="M394.32,543.24a20.77,20.77,0,0,1,1.56,8.52l-2.64,16.92c-1.8,10.92-2.88,17.28-3,19.2l-.6.48-1.08.84A13.34,13.34,0,0,1,387,586a17.39,17.39,0,0,1-.36-3.84,90.41,90.41,0,0,1,2.76-20.28ZM342,549.72l10.08.36-.84-28-.48-.6c-2.28,3.36-8.4,13.2-18.6,29.52l9.84-.84Zm-1.08,9.72L330,560.52l-4.32.72c-6,9.36-11.4,17.16-16.08,23.4l-1-1.08a5.4,5.4,0,0,1-.48-2.76c0-1.32,5.4-11,16.32-29,11.88-19.68,21.48-34,28.68-43L355.44,542l.6,8.64,2.28.84c1.08.6,1.56,1.8,1.56,3.6s-.24,3-.84,3.24l-2.52.24c.84,13.2,1.2,21.72,1.2,25.68l-.24,6.6-.72.36-1.2.72c-1.44-9.24-2.52-20.4-3.24-33.24l-5.52.12ZM228.36,464.28c-1.56.6-4.68,1.2-9.6,1.68l-16.92,1.8v2.64c0,7.08-1.32,20.16-3.84,39.12l-5,34h-1.68a32.72,32.72,0,0,1-.48-5.28c0-9.48,1.44-23.28,4.2-41.64L199.32,468c-10.2,1.32-19.44,2.76-27.72,4.56l-1-1.8-.12-2.64c0-2.28,3.12-4.44,9.48-6.48a117.55,117.55,0,0,1,20.76-4.32l20.88-.84c6.36.48,9.48,1.68,9.48,3.6A4.19,4.19,0,0,1,228.36,464.28Zm117,24.48,7.8-19.44,1.08-.24c.6,4.68,1,10,1.2,15.84l.12,15.48,8.16-16.8a143.46,143.46,0,0,1,7.8-14.76c2.4,8.76,4.08,15.6,4.92,20.28a91.54,91.54,0,0,1,1.92,18.6L378,511.8l-.6.48-1.32.6a78.7,78.7,0,0,1-4.44-12.12,75.59,75.59,0,0,1-2.28-13.08l-.48-.48-.6-.84c-1.8,2.28-4.08,6.36-7,12.36a109.73,109.73,0,0,1-6.24,12,24.29,24.29,0,0,1-3-13.08,74.59,74.59,0,0,0,.24-13.44l-.24-.48a125.18,125.18,0,0,1-4.92,13.8c-2,4.92-4.2,9.48-6.48,13.8l-1.32.24-.36-.72a7.5,7.5,0,0,1-.24-2.16C338.76,506.52,340.92,499.92,345.36,488.76ZM305,483.24l-.6-1A86.49,86.49,0,0,1,296,499.8a131.74,131.74,0,0,1-11.88,16.92c-1.44-4.32-2.16-10.08-2-17.4.24-8.28.24-14.4.12-18.36q-2.7,3.42-10.8,15.12a137.28,137.28,0,0,1-10.56,14.16l-.48-.12-.12-1.68c0-2.52,3.48-9.48,10.32-20.64q7.74-12.42,13-19.8,3.42,6.12,2.88,17.64L285,505.32c.12,0,.24.12.48.48l.24.6,11.76-22.92c4.68-9.24,7.8-14.52,9.12-15.72,5.88,22.68,8.88,36.24,8.88,40.68l-.24,3-1.08,2.28c-2.88-3.48-5-8.16-6.48-14.16a76.54,76.54,0,0,1-2.16-15.84Zm-26.16-57.72c7.8-.12,14.52-1.56,20.16-4.56,4.44-2.28,6.72-4.32,6.72-5.88a8,8,0,0,0-1.44-3.48,21.46,21.46,0,0,0-4.68-5.16c-4.92-4-10.56-4.92-17-2.88C282.24,408.12,280.92,415.44,278.88,425.52Zm3.6-28.32,1.08-1.2c7.92-1.56,14.4.72,19.56,6.6a24.9,24.9,0,0,1,4.32,7.08,15.41,15.41,0,0,1,1.32,5.16c0,3.48-1.56,7-4.56,10.68a20.26,20.26,0,0,1-11.16,7l11,13.2c9.72,12.12,14.64,19.56,14.64,22.32l-.24,3.24-.48.48-.84.84c-2.64-3-8.64-10.68-17.88-23.28l-11.52-16h-2l-8.4-.6-1.68,8.16q-6.48,28.8-8.28,33.84a5,5,0,0,1-1.32-2.16,10.92,10.92,0,0,1-.36-3.24c0-2.76,1.8-13.08,5.28-31l1.2-6-.48-.12a30.68,30.68,0,0,1-.24-4.08,16.16,16.16,0,0,1,.12-2.64l.12-.6,1.92.24c2.88-13.68,5.52-23.88,8-30.48ZM228.6,264.72l.36,2.64a6.56,6.56,0,0,1-.48,2.88l-1.2,1.56-17.52.36-18.12.72-7.08-.24c-.72-1.68-1.08-4.44-1.08-8.16a119.51,119.51,0,0,1,1.8-16.08A139.5,139.5,0,0,0,187,231.24a4.65,4.65,0,0,1,.48-2.64,1.65,1.65,0,0,1,1.2-1,19.58,19.58,0,0,1,1.92,6A27.39,27.39,0,0,1,191,239c0,2.4-.6,6.72-1.8,13.08l-2.28,11v.24l5.76-.84,34.8.36Zm44.76,12.48L268.2,321q-5.58,45.54-6.84,60.12l25.44,1.56,14.4.84c7.8,0,12.48-.48,14.28-1.32l1.08-1a2.72,2.72,0,0,1,1.56-.36,3.45,3.45,0,0,1,3.36,2.4,7.26,7.26,0,0,1,.48,2.88c0,2.52-.48,4.08-1.56,4.92-1.8,1.44-5.52,2.16-11.4,2.16l-18.12-.84-31.68-1.8a32.76,32.76,0,0,1-1.08-9.72q0-20.34,5-63c3.48-29.88,6.48-45.6,8.76-47.16Q273.36,272.7,273.36,277.2ZM154.8,353.28a5.87,5.87,0,0,1-1.8-1.08,5.22,5.22,0,0,1-.6-2.76q0-2,11.52-17.64c7.08-9.48,12.36-16.32,16.08-20.52,1.32,4.44,2.76,9.6,4.08,15.72l3.12,16c2.76-2.4,6.36-7.56,10.92-15.48,4.44-7.44,8.4-12.6,11.88-15.36.6,5.16,2.28,11.88,4.8,19.92,2.28,6.84,3.36,12.24,3.36,16.2l-.12,2.28-.24,1.32-.48.48-.84,1a27.4,27.4,0,0,1-7.2-13.56,114.58,114.58,0,0,1-2-14.64l-.24-.84A65.58,65.58,0,0,0,196.68,338l-8.4,14.4a32.22,32.22,0,0,1-7-14c-.6-2.76-1.44-8.16-2.4-16.32-3,3.36-7,8.4-12.12,15.12Zm10.44.36.12-.36a3.81,3.81,0,0,1,1.32-1.44c6.36,8.4,10.2,18.72,11.76,30.84.48,3.36,1,8.64,1.32,15.84a158.61,158.61,0,0,0,1.32,15.84A86.48,86.48,0,0,0,190,397c3-8,5.4-14.16,7.08-18.24l3.72,20c1.56,8.52,4.08,15.36,7.32,20.52,6.12-21.48,10.2-35.52,12.36-42.12q8.1-23.94,13.68-27.72l1.08,2.28.24,3c0,1.56-3.84,12.84-11.4,33.84-8,22.08-12.72,36.36-13.8,42.84l-.48.48-.84,1c-8.28-14.76-12.48-27.48-12.48-37.92l-.24-.6c-7.8,16.32-13.2,28-16,34.92l-1.08.36c-1.56-10-4.32-25.08-8.52-45.48l-5.52-28A14.6,14.6,0,0,1,165.24,353.64Zm-1.08-84.48a21.72,21.72,0,0,1,9.36,4.8,11.88,11.88,0,0,1,4.32,9.24,17.62,17.62,0,0,1-1.68,7.32c-1.8,3.72-4.56,5.64-8.4,5.64q-10.26,0-15.12-1.44l-.6,4.8L150.24,313l-1.44.24-.84-2-.24-2.88c0-2.16.48-7.32,1.44-15.36a3.47,3.47,0,0,1-1.08-1.92l.24-1.08a9.2,9.2,0,0,1,.12-2.16l.12-.24h1.08l.12-.84,1.32-10.32H151l-.36-.72a7.5,7.5,0,0,1-.12-2,4.09,4.09,0,0,1,1.32-3v-.72l.12.6a8.57,8.57,0,0,1,2.76-1.44A18.18,18.18,0,0,1,164.16,269.16Zm7.8,11.16a11.61,11.61,0,0,0-2.64-3.6c-2.76-2.16-8.4-2.4-16.68-.6l.24,2.76.24,7.2v1.56l3.6.12c7.32,0,12.36-.48,15.12-1.56a3.3,3.3,0,0,0,2.4-2.28A17.17,17.17,0,0,1,172,280.32ZM124.44,193.8l1.08,2.28.36,3.12c0,1.56-.84,4.32-2.64,8.16s-2.52,6.24-2.52,7.56c0,2.88,1.44,5.64,4.32,8.16,4,3.6,9.84,5.4,17.52,5.4,10.68,0,17.64-3.84,20.88-11.4a21.34,21.34,0,0,0,1.68-8V204.6a12.77,12.77,0,0,0-1.44-4.44,14.33,14.33,0,0,1-1.32-4.56,5.29,5.29,0,0,1,.84-3.12,6.75,6.75,0,0,1,1.32-1.32c1.92.6,3.12,2.64,3.6,6.24.12,1.2.24,3.84.24,7.8,0,7.44-.6,13.44-1.92,17.88-2.88,10.08-8.52,15.12-17,15.12-14.28,0-23.88-3.36-28.68-10.2q-3.24-4.68-3.24-12.6c0-4.44.24-7.68.84-9.6S121,199.8,124.44,193.8ZM41.16,104.52c-7.08,7.32-10.56,16.32-10.56,27.12,0,13.08,6,30.24,18.12,51.24,4,6.84,10.08,16.8,18.6,30.12,10,15.48,17,26.76,21.36,33.84,17.64,29.28,30.84,56.52,39.84,81.84a310.38,310.38,0,0,1,18.12,104.4q0,15.3-6.72,82.8a118.92,118.92,0,0,1-5.28,21,77,77,0,0,1-10.92,20.4c-1.8,2.28-6,5.28-12.72,9.24L94.2,576,78.84,586.2c-9.6,6.12-15.72,9.24-18.24,9.24-17.76,0-32.76-7.56-44.88-22.68a84.67,84.67,0,0,1-10.2-16.32c-2-4.56-3.12-7.56-3.12-8.88,0-5.76,1.8-13.32,5.52-22.8,4.44-11.52,7-19.08,7.8-22.68a9.69,9.69,0,0,1,2.52,3.84,11,11,0,0,1,1,3.48A53.87,53.87,0,0,1,14,532.56l-3.48,7.68a18.31,18.31,0,0,0-1.68,7c0,1.32,1.8,3.84,5.52,7.32a106.23,106.23,0,0,0,13,10.92q19.26,14,29.16,14c3.84,0,13.44-4.08,28.68-12.24,16.32-8.76,27.72-16.32,34.08-22.92,4.44-4.68,8-10.8,10.8-18.48A150.57,150.57,0,0,0,135,507c.6-2.88,1.68-14,3.48-33.48,1.8-20.88,2.76-34.32,2.76-40.44a278.65,278.65,0,0,0-18.12-98.76c-8.52-22.92-21.72-49-39.6-77.88L62.28,223c-7.92-12.6-14-23-18.48-31.32C31.68,169,25.68,149,25.68,131.64q0-17.82,4.32-27.72c4.68-10.8,13.8-19.08,27.36-25C81,80.28,97.92,86.76,108,98.16a37.75,37.75,0,0,1,9.72,25.8,29,29,0,0,1-1,8.52,18.18,18.18,0,0,1-6.6,8.52l-.36-2a17.23,17.23,0,0,1-.24-2.88c0-1.08.72-3.24,2-6.48l2-5.64c0-2-1.08-4.68-3.12-8.16a45.24,45.24,0,0,0-8.4-10.44c-9-8.76-18.6-13.08-28.8-13.08C59.76,92.28,49.08,96.36,41.16,104.52ZM183.6,124.44a29.54,29.54,0,0,1,.72,6.36c0,4.56-.36,11-1,19.56l4.56-.12,8-.6c7.32.12,12.24-1,14.52-3.24a7,7,0,0,0,1.44-4.8A14.82,14.82,0,0,0,206.4,130C201.48,125.64,193.8,123.84,183.6,124.44Zm-1.92-5.88.12-.6c12.84-1.8,22,.6,27.48,7.32,3.48,4.2,5.28,9.48,5.28,15.84,0,4.8-.12,7.68-.48,8.52-.84,2.4-3.24,5.16-7.32,8.16l-5.64.24-6.24.84-8.76.24-3.48-.24-.6,6.48c-1.32,14.76-2.52,25-3.48,30.72l-1.08,1.32a9.9,9.9,0,0,1-1.2-3.12,24.37,24.37,0,0,1-.12-3.48l1.08-12.48c.72-8,1.08-14,1.08-17.88l1-3.6a8.59,8.59,0,0,1-.12-2l.24-2.4.6-1.68.48-.12a153.2,153.2,0,0,0,1.08-19.8,13,13,0,0,0-1.32-4.2,12.63,12.63,0,0,1-1.32-4.32,6.16,6.16,0,0,1,.72-3l1.08-1.32,1,1.08ZM226.8,12.84c0,1.32-11.88,10.32-35.52,26.76-21.48,15-35.52,24.48-41.88,28.32l-.6.6,2.88.24,3.6.84,34.92.48a176.64,176.64,0,0,0,33.72,1.68c3.12-.12,5,0,5.88.6,1.08.72,1.56,2.4,1.56,4.92A8.57,8.57,0,0,1,229.44,83L218.4,82l-19.2-1.08-9-1.08-34.92-.48c-.48-.24-4.32-.36-11.64-.36l-11.64.6c-2.64-1.56-4-3.36-4-5.16,0-3,11.88-12.24,35.76-27.72Q182.7,34.44,210,16.8l-53-.24L142.32,16l-.72-1.32a8.06,8.06,0,0,1-.36-2.76l.24-2.4.84-1.68L157,7.32l60.84.24a45.66,45.66,0,0,0,7.44,4.2C226.32,12.12,226.8,12.48,226.8,12.84ZM306,24.36l-.24,7.32-.6.48-1,.84c-.6-.72-1.2-2.52-1.8-5.52-.84-3.72-1.44-6.48-2-8.16-2.52-7-7-10.44-13.56-10.44-20.88,0-33.72,10.44-38.64,31.44a90.56,90.56,0,0,0-1.08,33.24l.24,90.12q3.24,28.26,3.24,70.92l-.36,8.88c2.52-.12,8.76-.12,18.6,0,12.24-.12,25.68-.36,40.2-1a15.34,15.34,0,0,1,2.16,7.32,15,15,0,0,1-2.16,7.32l-35.16,1.32L249.48,257V373.8a64.88,64.88,0,0,0-1.08,12.6c0,3.72.36,15,1.2,33.84.84,21,1.44,34.92,2,42,.12,2.28.12,8.52-.24,19a196,196,0,0,0,.36,24.72c1.68,20.28,8.4,30.48,20.16,30.48,26,0,43.08-7.92,51.36-23.76a45.15,45.15,0,0,0,4.92-17.28v-9.48a12.68,12.68,0,0,1,.24-2.76,5.06,5.06,0,0,1,2.76-3.48c1.92.36,3.12,1.92,3.6,4.44a48.7,48.7,0,0,1,.24,5.76c0,12.84-3,24.24-8.88,34-9,15-24.36,24.36-45.84,28.08-20.28,1.2-31.8-9.84-34.56-33-.84-7.08-1-16.56-.24-28.2.84-12.36,1.08-19.56,1-21.6-.6-8.52-1.44-24.48-2.4-48-.72-20.28-1.08-32-1.08-35.16,0-7.92.36-13.8,1.08-17.52v-125a38.16,38.16,0,0,0,1.08-8c0-12.36-.48-28.44-1.56-48.12s-1.68-36.72-1.68-51.24l.24-97.8,2.28-10.68a31.77,31.77,0,0,1,4.68-11.76c6.24-9.24,19.32-15.84,39.36-19.8C296-.36,301.08,4.2,303.6,9.72,305.16,13.2,306,18,306,24.36ZM572.88,219.84l-19.08-1a12.18,12.18,0,0,0,3.48,6.12c3.36,3.48,8.4,5.16,15.12,5.16h2ZM368.52,403.56c0-.6,1.08-2.4,3.24-5.64a7,7,0,0,1,1.68,2.64,10.17,10.17,0,0,1,.48,3.48c0,2.52-4.56,13.32-13.68,32.52-10.44,21.72-16.08,34-17.16,36.6-3.72-8.76-8.28-22.92-13.56-42.48-4.8-17.76-7.2-27.84-7.2-30.36a16.16,16.16,0,0,1,.12-2.64l.12-.6,2.4-.24A315.51,315.51,0,0,1,335,428.64l7.56,31.2c3.72-6.84,9-17.76,15.84-32.88Q368.52,405,368.52,403.56Zm-3.84-21.48a6.61,6.61,0,0,1,.6,3l-.24,2q-.54,1.44-3.24,1.8l-20.88.84-11.28-.24q-1.08-3.24-1.08-10.08c0-4.44,1.8-20.4,5.28-48s5.28-45.72,5.28-54.36a7.59,7.59,0,0,1,.6-3.12,2.37,2.37,0,0,1,1.56-1.32,50.76,50.76,0,0,1,1.08,12.12c0,7.32-1.8,24.24-5.28,50.76s-5.28,41-5.28,43.32v1.44l4.56-.36,6.72-.48,19.8.36Zm68.16-98.76C414.6,283,400.32,301.8,390,339.6A344.09,344.09,0,0,0,381.12,386l15.6-.36,21.36.36,1,1.8a7.76,7.76,0,0,1,.36,2.64,9.69,9.69,0,0,1-.36,3l-1.2,1.92H387.48l-7.56-.48a237.41,237.41,0,0,0-1.56,24,191,191,0,0,0,6,47.52q8.82,32.76,25.92,38.88a48,48,0,0,0,21.12-3.12V492.12l.36-1.68.72-1.68V380.88a264.9,264.9,0,0,1,0-41.4V285ZM409.56,43.8a12.08,12.08,0,0,1,.36,3.24L397.68,92.76c-8.52,32-13.8,55.2-15.6,69.36q-9.18-18-25.08-52.2c-11.88-25.68-20-43.2-24.72-52.56q-14.76,67.32-22.2,103.08l-1.08.24a25.54,25.54,0,0,1-1.08-8c0-4.44,3.12-21.36,9.48-50.88C324,70.92,329,51,332.28,42.24q8.82,20.7,23.4,51.6l24.24,51.24c1.8-6.6,3.84-15.12,5.88-25.56l5.28-26.76C395.76,71,401.52,53.88,408.36,41.4ZM562.2,209.52l9.24.12-1.2-7.68a28.42,28.42,0,0,0-9.6,4.56,22.13,22.13,0,0,0-3.48,3.12ZM561.12,132c-1-7.56-1.92-13.8-2.88-19-2.88-14.4-7.8-26.88-14.64-37.56-10.2-15.84-21.84-28.56-35.16-38.16-1.56-1.2-14-5.76-37.2-13.68-12.6-4.32-21.6-7.68-26.88-10.08q-.18,32.22-5.76,210.36V269.4l.24,8a35.56,35.56,0,0,1,6.84,1.68c2.64,1.56,5.76,4.92,9.24,10l7.8,11.64-1.08,1.56-1.56,1.44-19.56-19.2-2-.48-.6,5.64v55.2a147.12,147.12,0,0,0,0,30.84V494.28l-1.08,4v1.56l.6-.24a96.64,96.64,0,0,0,24.12-17,95.22,95.22,0,0,0,16.8-20.4c4.2-7,5.76-12.36,4.92-16.08,2.28-.48,4,.6,4.92,3.24a16.49,16.49,0,0,1,.84,5.88q0,1.26-6.12,10.44a205.34,205.34,0,0,1-15.6,20.88c-11.16,13.32-21.36,22.08-30.48,26.28v44.76c-.48,1.56-1.2,7.92-2.16,18.84l-.12,1.32c10.56-.6,24.12-3.12,40.68-7.68a73,73,0,0,0,19.68-8.28l11.4-7.2c10.92-5,19.08-11,24.6-18a63.58,63.58,0,0,0,5.88-9.12l4.68-8.76A141.11,141.11,0,0,0,556,483.24c2.52-9.24,4.92-21.6,7.32-37q10.26-61.74,12.36-79.2c1.8-14.76,2.76-36.36,2.76-64.8a601.86,601.86,0,0,0-3-63.6q-17.1-1.62-22.68-9.36a13.51,13.51,0,0,1-2.52-7.44l.24-3.72c-1.2-.36-1.8-1-1.68-1.68l.6-2.28-.24-1.8a1.71,1.71,0,0,1,.72-1.44l.72-.36V210a14.83,14.83,0,0,1,3.36-7.8c3-3.48,8.16-6,15.36-7.44l-6-43.8Zm2-26c1.08,5.52,2.16,12.24,3.12,20l2.4,19.56,6.48,48.24,12.72-.48,3,2.64a4,4,0,0,1,1.32,2.76l-.12,2.88-.12,2.76-.48.6-.6.84-1.8-1.68a11.14,11.14,0,0,1-2.28-3.24,52.85,52.85,0,0,0-10.68,0l1.2,9c6.24.36,10.32,1.08,12.24,1.92,1.08.48,1.44,1.08,1.32,1.92l-.6,1.68q0,3.24-.72,3.6c-1,.6-4.32.84-10.08.84h-.72l1.32,10a48,48,0,0,0,13.68-3,29.78,29.78,0,0,0,7.08-3.72l.84,1.32a5.69,5.69,0,0,1,.48,2.76c0,2.28-1.56,4.8-4.56,7.32A20.15,20.15,0,0,1,584.28,239h-3.12c1.8,18.12,2.64,39.36,2.64,63.48,0,31.8-.72,54.36-2,67.68-1.08,10.44-5.28,37.2-12.6,80.52a366.25,366.25,0,0,1-7.92,37.08,234.29,234.29,0,0,1-13.32,36.72c-6.36,13.56-15.72,26.16-28.08,37.68q-32.22,30.06-75,30L430.68,592l-1.56,2.4a20,20,0,0,1-2-7.8l-.36-3.12a24.18,24.18,0,0,1,.24-4.92,2,2,0,0,1,.72-.36l1.2-9.84c1.32-9.6,2.16-15.24,2.52-17V514.8a25.4,25.4,0,0,1-7.08,1.08l-14.64-.24c-11.28-2-20.28-14.88-27.12-38.4a213.78,213.78,0,0,1-6-27.6,142.37,142.37,0,0,1-1.8-19.92q0-56.7,11.88-93.84a186.43,186.43,0,0,1,7.56-23.64,61.37,61.37,0,0,1,16.08-23.4c4.8-4.44,8.88-7.32,12.12-8.88a27.27,27.27,0,0,1,11-2.76l.36-8.4V219.24q3.6-73.62,4.56-145.08V29.52c.84-2.28,1.32-7,1.32-14V11.16c-.72-.48-1.08-.84-1.08-1.2a4.2,4.2,0,0,1,2-3.84,5.7,5.7,0,0,1,1.2-2.28l.6,1.32c8.76-2.52,32,4.8,70.08,22a118.17,118.17,0,0,1,21,20.28,178.12,178.12,0,0,1,14.4,19.44C554.88,77.52,559.92,90.48,563.16,106Z" transform="translate(-2.4 4.08)"/></g></svg>