<svg id="Layer_1" data-name="Layer 1" xmlns="http://www.w3.org/2000/svg" viewBox="0 0 595.57 842.18"><defs><style>.cls-1{fill:#fff;}.cls-2{fill:none;stroke:#fff;stroke-linecap:round;stroke-linejoin:round;stroke-width:0.38px;}.cls-3{fill-rule:evenodd;}</style></defs><rect class="cls-1" x="0.31" y="0.31" width="595.08" height="841.68"/><rect class="cls-2" x="0.19" y="0.19" width="595.2" height="841.8"/><path class="cls-3" d="M270.48,321.24a146.43,146.43,0,0,0-.36,43.44A112.8,112.8,0,0,0,284,405a19.24,19.24,0,0,0,15.84-4.8,224.56,224.56,0,0,0,19-18.12c6.84-7.32,8.88-14.28,6.36-20.64l-29.76,31.2-10.8.24a71.72,71.72,0,0,1-11.28-38.28l-.12-7.8,32.52-2.88a5.94,5.94,0,0,0,1.68-2.76,6.31,6.31,0,0,0,0-4.68L306.6,335l-1.2-1.44-31.68,3.72a47.52,47.52,0,0,1,10.92-29.16A16.24,16.24,0,0,1,299.16,302a21.64,21.64,0,0,1,15.24,6.36l5.64,8.88c3.12-5.4,2.52-11.16-1.92-17.4A23.27,23.27,0,0,0,302,289.8l-6.6-.84C281.28,294.84,273,305.52,270.48,321.24Zm-75.6-112a62.76,62.76,0,0,0,1.68,40.08,178,178,0,0,0,23.28,42.72c20.16,27.24,21.6,54.24,4.44,81.24a38.19,38.19,0,0,1-19.8,9.48,24.8,24.8,0,0,1-18-3.72q-32.22-21.42-26.88-60.6l-.6-1.56a54.62,54.62,0,0,0-3.36-5.16,3.14,3.14,0,0,0-1.92-1.2A102.17,102.17,0,0,0,161,371.64a46.45,46.45,0,0,0,16.32,19.56q26.28,17.82,48.12-3.72a49.29,49.29,0,0,0,14.16-27c6.36-36-2.76-67.8-27.6-95.4q-22.14-24.3-8.76-52.08c7.08-2.76,13.32-2.28,18.84,1.44a92.52,92.52,0,0,1,23.76,22.32l.48-.84q-3.42-32.94-38.52-38.16Q197.76,199.38,194.88,209.28ZM421,239.64c6.12,11.28,6.12,22.56,0,33.72q-25,23.22-58.56,22.68c1.8-28.8,2.76-57.6,3.12-86.28,15.24-4,29-.12,41.16,11.64A67.68,67.68,0,0,1,421,239.64Zm-55.44-39.12c-5,6.12-7.08,19.44-6.24,39.72.36,10.8.36,21.6-.12,32.28l-1.8,32.16c-.72,10.68-1.68,21.24-2.76,31.92-1.56,15-2.76,30-3.36,45a54.19,54.19,0,0,0,2.16,18.6c7.08-22.68,9.72-46.92,8.16-72.48a148.41,148.41,0,0,1,.12-19.32,52.58,52.58,0,0,0,36.48-3.72,64.64,64.64,0,0,0,6.24-3.6l4-2.64,3.6-2.88a60.06,60.06,0,0,0,9-10.08c8.28-12,10.68-25.08,7.2-39.12a78,78,0,0,0-5.64-15.6,62.54,62.54,0,0,0-19.8-23.16,74.22,74.22,0,0,0-25-11.64Z" transform="translate(0.19 0.19)"/></svg>