<svg id="Layer_1" data-name="Layer 1" xmlns="http://www.w3.org/2000/svg" viewBox="0 0 555.13 446.76"><defs><style>.cls-1{fill-rule:evenodd;}</style></defs><path class="cls-1" d="M166.2,333.12a864.53,864.53,0,0,0,1-123.36c-2.76,2.64-4.2,6.48-4.32,11.64q-.9,64.62,0,127.44A343.14,343.14,0,0,0,215,348a13.28,13.28,0,0,0,.6-13.8L166.08,334ZM103.8,85q37.44,7.2,47.64,39.48c2.88-6.12,2.64-12.36-.6-18.72q-18.54-35.82-62-37.8a54,54,0,0,0-9.48,6.6Q51.78,98.64,44.76,136.68c-3,15.84-.12,30.24,8.4,43.2,7.68,11.64,15.84,22.8,24.48,33.6A278.73,278.73,0,0,1,114,273.6a531.78,531.78,0,0,1,22.56,59.52q17.1,54.36-1.56,109.2a88,88,0,0,1-30.36,42.48q-30.78,23.94-60.72-.6-29-23.76-14.52-58.32l-1.2,1.2-.6.72-.36-.12-.84-2.28A5.6,5.6,0,0,0,25,423l-1.2-1q-21.24,49.14,20,83.28a37,37,0,0,0,23.88,8.88q47,1.08,66.12-42.36a238.8,238.8,0,0,0,17.4-59.52,180.92,180.92,0,0,0-9.48-92.88C131,291.24,119.16,263.28,106,235.8a115.78,115.78,0,0,0-19.2-28.56,200.39,200.39,0,0,1-36.12-54.12c1.2-8.76,2.76-17.52,4.8-26.28q6.84-29.34,33-42.72A59.8,59.8,0,0,1,103.8,85Zm90.84,21.36q-.36,34.92-3.12,69.72c-.84,11.4.6,21.6,4.32,30.72A71.25,71.25,0,0,0,201,176.88a262,262,0,0,1,.84-30.6,208.55,208.55,0,0,0-1.92-54.12,185.38,185.38,0,0,0,34.32-3.72l.72-.84q4-7.2-.72-13.68a318.81,318.81,0,0,1-79.8,2.16l-.36.84a13.27,13.27,0,0,0,.12,8.88,5.91,5.91,0,0,0,2.88,1.68,171.15,171.15,0,0,0,38.16,4.68Zm88.2-27.12c1.08,17.16,2.88,34.2,5.28,51.36q8.46,62.64,20.52,124.68l6.6,34.44a182.76,182.76,0,0,1-66.72-1.8A997.76,997.76,0,0,0,271.8,171.24q4.5-31.5,10.08-63a83.93,83.93,0,0,0,0-31.92c-.48.12-.72.24-.84.48-7.08,33.6-13.08,67.56-17.76,102a903,903,0,0,1-26,124.2q-17.82,62.46-31.32,125.64a382.34,382.34,0,0,1-10.56,38.64c-5.4,16.2-6.84,32-4.32,47.4,5.52-6,9.12-13.56,10.8-22.56,4.56-24.12,9.36-48,14.52-71.88q13.14-61.2,29.4-122c22.44,9,46.08,10.92,70.8,6l1.08-1.2,8.52,46.08q11.7,63.18,27.48,125.52l-.24-.36-1.08-3.12c.72,10.68,3.6,21.72,8.64,33.24a5,5,0,0,0,1.92-4.08,212,212,0,0,0-6.24-57q-7.74-30.78-14.76-61.92L330,327.72q-13.86-62.28-22.92-125.4-9.36-63.36-22-125.76C283.56,76.56,282.72,77.4,282.84,79.2Zm189.6,50.4a188,188,0,0,0,3.24-47.28c-5.28,8-8.52,17.52-9.84,28.44q-7.38,63.54-12.24,127.68c-3.24,42.6-7.32,85-12,127.32q-5.22,48.06-10.08,96l-.72-5.88-.36,1.68a113.17,113.17,0,0,1-.72,15.72c-4.44-18.6-9-37.08-13.8-55.44-8-30.6-16.68-61.2-25.68-91.68q-18.36-61.56-31.56-124.32T337.08,76.56a2.94,2.94,0,0,0-3,1.08,516.63,516.63,0,0,0,11.28,97.8Q358.68,237.72,376,298.8,393.6,360.9,408.24,424c3.72,15.84,7.08,31.8,10.32,47.76,2.4,12,6.48,22.2,12.24,30.48L431,502l1-8,.6-.12a677.34,677.34,0,0,0,11.88-77q6.3-63.72,10.8-127.56,4.5-64.26,12.24-127.44C468.84,151,470.4,140.28,472.44,129.6Zm73.2-44.76c-16.92-4.2-29.76,1-38.28,15.6a127.8,127.8,0,0,0-16,44,186.87,186.87,0,0,0-2.88,25.68l-1.44,32.16-.84,32.28-.48,32.28.12,32.4.12,31.08v31.08c0,10.32-.12,20.64-.48,31.08a365.8,365.8,0,0,0,1.2,44.4,104.41,104.41,0,0,0,14.64,44.76l4.56,7.56c20.76,7.32,38,1.2,51.6-18.12,11-15.72,15.12-32.64,12.24-50.52a9.33,9.33,0,0,0-3-5.64c-3,19.56-12.6,36.72-29,51.48a39.82,39.82,0,0,1-16.92,9l-1.8-1.68-9.12-1.44q-26.64-83.7-18.24-175.08l43.32,1.2a15,15,0,0,0-.84-16.2l-42.6,2.52Q480,190.26,516.84,108.24a10.64,10.64,0,0,1,7.44-6q28.62-7.38,47.4,15.24C571.32,100,562.56,89,545.64,84.84Z" transform="translate(-16.55 -67.92)"/></svg>