<svg id="Layer_1" data-name="Layer 1" xmlns="http://www.w3.org/2000/svg" viewBox="0 0 534.1 468.72"><defs><style>.cls-1{fill-rule:evenodd;}</style></defs><path class="cls-1" d="M168,123.36q-2.16,63.54-8.52,127.44a62.22,62.22,0,0,1-4.2,17c-3.24-9.24-3.72-19.92-1.68-31.92,1.8-9.6,3.12-19.2,4.08-28.92Q161.82,164,168,123.36Zm-29.52-19.44c.12-17.4-9.12-27.72-27.84-31.2-14-2.52-26.52.84-37.2,10.08Q48.78,104.22,52,138.6,57.9,200.7,92.76,254a207.3,207.3,0,0,1,15.48,28.2,370.64,370.64,0,0,1,32,119.16c3.24,34.2-2.64,66.12-17.88,95.64Q105.3,530,70.8,524c-15.12-2.64-25.56-11-31.44-25.32L23.28,460.2a4.59,4.59,0,0,1,1.08-5.4q14.94,23,29.88,48a12.4,12.4,0,0,0,6.48,5.28q38.7,14.4,59.16-23.16a118.78,118.78,0,0,0,15-60.72,308.41,308.41,0,0,0-25-117.12Q86.7,252.72,60.84,199.44a147.48,147.48,0,0,1-13.56-46.2q-5.22-41.76,18.48-73.56A45.23,45.23,0,0,1,81.24,66.24a81.41,81.41,0,0,1,17.28-7Q134.7,59.1,140,92.16A18.91,18.91,0,0,1,138.48,103.92Zm201.6,16c-1.32,42.36-1.8,85.2-1.44,128.28a80.76,80.76,0,0,1-4.2,27.36,373.68,373.68,0,0,1-2.16-64C333.84,180.12,336.36,149.52,340.08,119.88Zm-32,1.2c4.2,18.36,7.8,37.08,10.68,56.16q6.84,44.82,14.4,89.64a9.47,9.47,0,0,1-1.2,6.48c-4-5.64-6.48-13.2-7.44-22.44-1.08-10.68-2.64-21.36-4.68-31.92q-7.74-41.4-11.52-81.48A728.64,728.64,0,0,1,302,239.76l-5.28,37.32a237,237,0,0,1,1.44-63.6A570.25,570.25,0,0,0,304.32,135a78.38,78.38,0,0,1,2.28-19.68l-.12-.36.12.24,1.08-3.72ZM193.44,141a5.3,5.3,0,0,1,.24-2.4l5.4-2.64,2.52-9.84-1.08,9.24a66.49,66.49,0,0,1,13.2-3.36c12.6,10.68,14.4,23.88,5.4,39.36a19.49,19.49,0,0,1-11.88,9.24A717.76,717.76,0,0,1,232,274v.84q13.14-55.26,23.76-111.12a858.76,858.76,0,0,1,23.76-95.76A289.53,289.53,0,0,1,269.4,130.8c-2.76,10.32-5.28,20.76-7.44,31.32q-12.78,62.46-26.52,124.56l-2.88,13.44a127.84,127.84,0,0,1,49.68-7.92l-2.16-28.8a1271.47,1271.47,0,0,1-4-128.4,556.27,556.27,0,0,1,4.44-61.68q3.06,64.26,3.24,129.12c0,10.8.36,21.6,1.2,32.4l3.6,58.08a11.45,11.45,0,0,1,.72,10.8L292.2,363q2.88,64.08,12.12,127.32a103.07,103.07,0,0,1,.6,27.84,2.55,2.55,0,0,1-1.92,2.16,328.43,328.43,0,0,1-11.52-64.56c-1.8-21.36-3-42.84-3.84-64.32q-1.62-43.38-4.56-86.64a277.12,277.12,0,0,0-52.92,6l-8.76,39.12-13.68,62.16q-12.42,57.06-29.16,111c-2.52-15-1.08-30.84,4.2-47.4a1096.1,1096.1,0,0,0,32-124.2q6.12-31.68,13.8-63.24l3.24-12.84-.48.84a246.26,246.26,0,0,1-17.52-48.84A388.91,388.91,0,0,1,205,181.08l-9.48.48c-2.76,23.64-5.88,47.28-9.12,71.16a5.76,5.76,0,0,1-2.4,4.08c-4.08-8.76-4.92-19.32-2.52-31.56L190,180.72l-3.84-1.08a9.12,9.12,0,0,1-.6-4l.36-3.36,5.4,1.2c1.8-10.56,4-20.76,6.24-30.72l-3.84.6Zm27.24,8.16c-.6-4.08-2.88-7.32-6.72-9.84l-14,3.12L196.32,174c10.92.12,18.72-5.16,23.28-16A18.2,18.2,0,0,0,220.68,149.16Zm1.08-30.84A231.05,231.05,0,0,0,165,122a209.52,209.52,0,0,1-69.72,1.68l-.24-.84v-2.52l.24-1.56A738.13,738.13,0,0,0,195,109.08l4.08-.84c13.08-3.24,24.24-2,33.48,3.48l.12.6C231.6,116.76,228,118.68,221.76,118.32ZM438.36,86l-.36-.48c-14.76-4.68-26.16.36-34.32,15a216.73,216.73,0,0,0-20.52,51.36A668.78,668.78,0,0,0,362.88,274.2a1273.59,1273.59,0,0,0-2.4,128.4q1.62,51.48,24.84,95.76a100.67,100.67,0,0,0,21.36-3,240.1,240.1,0,0,0,35.88-53.52,5.08,5.08,0,0,0,.36-3.24L441.48,437l-2.28-2.52-.36-.84,1.44.84,2.88,1.8.84.12a6.37,6.37,0,0,1,2.28.72c1.32-11.28,2.88-22.44,4.8-33.48a89.91,89.91,0,0,1-40.2-6.6,2.56,2.56,0,0,1-1.56-3.12L454.8,392a620.82,620.82,0,0,1-3,64.32,415.49,415.49,0,0,0-1.44,59.88,5.07,5.07,0,0,1-1.44,4.08c-4.44-7.8-6.48-17.4-6.24-28.92.24-12.36.84-24.48,1.92-36.6a171.67,171.67,0,0,1-30,47.76c-7.56,8.64-17.52,12.36-29.88,11.28-14.76-20.76-23.64-44.16-26.64-70.44a692.09,692.09,0,0,1-3.36-121.2q4-64.62,14.28-127.92,5-31.5,13.2-62.28a113.86,113.86,0,0,1,30.48-52.92,27.31,27.31,0,0,1,13.68-7.32l3.84.72,3,.6,2,1.32,3.36,1.08a27.46,27.46,0,0,1,9,19.44,30.93,30.93,0,0,1-.84,8.16c-2.16-.24-3.12-2.16-2.88-5.64a15.31,15.31,0,0,0-1.44-8.16,2.22,2.22,0,0,0-1.08-.84A5.74,5.74,0,0,1,438.36,86Zm111.48-7.56a22.92,22.92,0,0,1,7.08,17.88,21.16,21.16,0,0,1-.84,4.8q-3.06.36-2.88-4a46.4,46.4,0,0,0-.36-5.76L551.52,90a16.39,16.39,0,0,0-2.76-2.28q-28.26,5.76-38.52,34.8a357.81,357.81,0,0,0-20.88,108.6c-.84,23.76-1.44,47.52-1.56,71.28C504.48,297,521.28,292,538,287.16l2.52.72,1,.6a10.61,10.61,0,0,1,.72,7.2l-.72,2.52q-26.82,8.64-51.48,14.4a3,3,0,0,1-2.28-1.32c0,16,.12,32,.48,48.12a1048.28,1048.28,0,0,0,10.32,128.88c2.76,19.32,13.56,26.16,32.4,20.64a18.15,18.15,0,0,0,7.8-4.68,67.21,67.21,0,0,0,17.4-27.72q3.6,30.78-25.8,48.84c-5.16,3.24-10.68,3.48-16.32.84C500.64,520,493,509,491,493.56A1199.08,1199.08,0,0,1,482.88,367c-.48-43.08-.36-86,.48-129.12A371,371,0,0,1,506,117.12q10.44-28.62,37.32-40l4.8.72Z" transform="translate(-22.84 -59.28)"/></svg>