<svg id="Layer_1" data-name="Layer 1" xmlns="http://www.w3.org/2000/svg" viewBox="0 0 571.77 564.01"><defs><style>.cls-1{fill-rule:evenodd;}</style></defs><path class="cls-1" d="M179.4,560.76a147.26,147.26,0,0,0-42.48-1.44,658.05,658.05,0,0,0,5.76-78.24,36,36,0,0,0-1.32-10.8l-.72-2.52c-3.72,33.84-6.12,67.92-7,102.36A155.71,155.71,0,0,1,179.52,568Zm-13.68-267.6c1.8,17.88-7,28.68-26.16,32.52.12-13.44-.24-26.76-1.08-40.08l24.12,1.8A7.78,7.78,0,0,1,165.72,293.16Zm-2-12.84q-12.42-4.86-24.12,2.16l-1.32,1.08-.6-7a579.35,579.35,0,0,0-2.88,107.52l4.56-51.72c11.88-1.44,20.88-7.2,27.24-17.28a20.85,20.85,0,0,0,2.64-5.76,31.71,31.71,0,0,0,1.44-11.64,32.46,32.46,0,0,0-2.76-11.4A22.6,22.6,0,0,0,163.68,280.32Zm-53.16-93.84q9.9,35.82,21.72,68.16l14-53.88q4.5-17.28,1.44-31.32a3,3,0,0,0-2.16,2.4c-4.92,22.44-9.72,44.64-14.16,66.6v-.84c-7-24.6-14.64-48.6-22.92-72.24a2.78,2.78,0,0,0-2.4,2.88,694.08,694.08,0,0,0-3,81.24,6.26,6.26,0,0,0,1.68-4.08c1.44-19.92,3.24-39.84,5.28-59.76ZM130.08,58.56Q111.9,20.94,69.24,18.36l-.12.24a17.43,17.43,0,0,1-5.28,2.16l-1.08.36C40.32,37.2,29.16,59.4,29,87.72a189.93,189.93,0,0,0,9.36,60.6c10.2,31.56,20.76,63,31.44,94.56,3.48,10.44,7.44,20.64,11.76,30.84a769.06,769.06,0,0,1,40,120.72q15.12,63.54-8.64,124a77.53,77.53,0,0,1-19,28.2q-25.74,24.3-55.56,2a9.38,9.38,0,0,1-3.12-3.48Q22,518.88,25.68,487.68c1.08-8.88-.6-15.6-5.16-20.16a48.08,48.08,0,0,0-3.36,18.72,259.39,259.39,0,0,0,6.36,53.88q9.36,41.22,54.36,35.4A26.14,26.14,0,0,0,97,563.88q38.7-56.52,36.48-125.88a341.16,341.16,0,0,0-25.8-120.36q-6.3-14.94-11.52-30.24Q74.88,226.2,50.88,166.2a242.28,242.28,0,0,1-16-61.56c-3-24,3.72-44.52,20.4-61.68,7-7.08,15.48-9.72,25.44-7.68q34.74,7,49.56,37.2C132.72,68.52,132.6,64,130.08,58.56Zm51.6-38.16L125.76,23l-.48,4.44,25.92,2.76-4.56,129a406.83,406.83,0,0,0,7.68-81.72C154.2,61.8,153.84,46,153,30.24l28.56-1.8Zm118.8,33.12q9.72,58.86,20.28,117.72,11.16,62.46,24.6,125.16l.6,2.4a617.71,617.71,0,0,0-89.52,10.32c4.56-25.08,9-50,13.2-75.12q10.8-63,19.2-126.48a196.27,196.27,0,0,1,6.6-31.32A153.81,153.81,0,0,0,300.48,53.52ZM265.8,86.4a60.33,60.33,0,0,1-43.92-1.08c-7.08-2.76-10.56-7.8-10.68-15.12A91.09,91.09,0,0,0,244.44,68a9.81,9.81,0,0,0,1.2-7.08,8.41,8.41,0,0,0-1.56-3.84l-31.8,4.56q11.34-30.42,44.52-23l-.36-6.72C238,21.48,223.2,26,212.16,45.84A41.27,41.27,0,0,0,208.32,78C212,91.32,220.8,99.36,234.6,102c10.68,1.8,20.52-.48,29.76-6.72Zm35.76-54.12-.12-3.6a444.65,444.65,0,0,0-24.48,107c-4.32,41.88-10.44,83.64-18.24,125l-11.88,63.72Q235.14,388,219.6,450.72a1188.39,1188.39,0,0,0-23.76,125,1.73,1.73,0,1,0,3.36.72c7.56-30.24,14.88-60.6,21.72-91.2q14-62.46,25.92-125.16l7.44-39.6a783,783,0,0,1,94.56-7.92q11.52,54.18,22,109l23.52,125.28c2.28,11.76,6.24,22,12.12,30.6,3.84-7.8,3.6-15.36-.6-22.8l-4.8-22.8q-13.32-62.28-25.44-124.92-12.06-62.82-25.8-125.16-13.86-62.64-25.32-125-11.34-62.82-22-125.64ZM508,64.56c6-10.56,8.16-20.88,6.36-31A331.26,331.26,0,0,0,486.6,93.24,793.72,793.72,0,0,1,434.88,211a137.88,137.88,0,0,1-14,21.48,46,46,0,0,0-5.16,7.8l-.36-11.88c-.84-42.84-.24-85.92,1.68-129,1-22.08,2.52-43.44,4.56-64.2-2.52.84-4.08,2.88-4.56,6A787,787,0,0,0,409,141q-.9,64.62,1.44,129.12l5.28,128.16q2.7,64.44,1.8,129.12L417,543.48c-.6,12.6,1.44,23,5.88,31.44q3.6-43.74,3.36-89.28c-.36-43.32-2-86.4-5-129-2.28-32-3.84-64.2-4.92-96.36,7.8-12.6,15.24-25.44,22.2-38.52A549,549,0,0,0,454.56,325.2a1058.46,1058.46,0,0,1,24.12,125.28,780.63,780.63,0,0,0,27,125l3.48-.84a6.28,6.28,0,0,0,1.2-3.24A45.4,45.4,0,0,0,509,553.08a979.82,979.82,0,0,1-26.16-124.44,934.88,934.88,0,0,0-18.48-94,888,888,0,0,1-21.84-121l1.2-2.28A1089.88,1089.88,0,0,0,494.4,93.72,179.15,179.15,0,0,1,508,64.56Zm73,81.24c1.2-19-7.32-27.36-25.68-25.08-15.48,1.56-28.08,8.52-38,20.88a154.34,154.34,0,0,0-22,36.84,170.68,170.68,0,0,0-11.4,41.88,290.16,290.16,0,0,0-2.76,39.6q-.18,20,.72,40.32l1.44,32.16,1.8,32q1.44,23.58,3.6,47.16c1.44,15.36,3.12,30.6,5.16,45.84s4.2,30.48,6.48,45.48A300.49,300.49,0,0,0,510,546.48c4.8,15.6,14.28,26.4,28.44,32.52q24.66,10.62,39.6-12.12c8.88-13.56,12.36-28.2,10.32-44a42.93,42.93,0,0,0-5.52-16.56l3,14.52c-4.92,24.84-19,39.36-41.88,43.44-5.76,1.08-10.56-1-14.4-5.88a94,94,0,0,1-18.48-41.28Q501.9,466.32,497,415c-2.52-25.68-4.56-51.36-5.88-77q29.7,7.56,51-6.24c2-1.32,2-3.36.24-6.36a126.4,126.4,0,0,0-51.84,2.52q-15.84-86.58,20.76-163.92c8.16-17.4,21.6-27.72,40.32-30.84a66.92,66.92,0,0,1,19-.24A25.72,25.72,0,0,0,580.92,145.8Z" transform="translate(-17.15 -18.36)"/></svg>