<svg id="Layer_1" data-name="Layer 1" xmlns="http://www.w3.org/2000/svg" viewBox="0 0 570.65 592.57"><defs><style>.cls-1{fill-rule:evenodd;}</style></defs><path class="cls-1" d="M175.32,425.88l3.12,2.52c4.56,7.32,4.92,14.76,1.2,22.32l-12.12,4.2.84-27.48Zm-7.08-8.64-7.56,38.4c-1.8,1.32-2.4,3.48-1.8,6.6a3.44,3.44,0,0,0,1.32,2.4l2.52,39.72,4.2-38.76c7.8.6,13.32-2.52,16.56-9.48,5-11.16,4.32-21.72-2.28-31.92a23.79,23.79,0,0,0-8-7.8l-4.8,3.12Zm-11.16-87.12a550.71,550.71,0,0,0-2.4,93,19.36,19.36,0,0,0,4.44-11l-.36-1.68c-.36-8.52-.48-17.16-.48-25.8a83.61,83.61,0,0,0,10.56-14.16,17.11,17.11,0,0,0,1.08,3.24l.48.84A163,163,0,0,0,188,417.24l.24-.84a161.31,161.31,0,0,0-16.32-51l1.68-.6.36-.48c10.44-8.4,15.24-18.12,14.52-29.28l-21.84,27.24a73.54,73.54,0,0,1-8.4,13.68c.12-14.76.84-29.52,1.92-44.16l-.48-.84-1.44-1.68C157.56,329.16,157.2,329.4,157.08,330.12ZM174,318.48c1.08-21.84,2.4-43.44,3.72-64.92l-.12-.84a11.8,11.8,0,0,0-2-6.48c-1.68,1.56-2.64,3.84-2.76,7q-2,40.86-2.4,79.68a71.54,71.54,0,0,1,39.24-.84l.48-.84a10,10,0,0,0-.24-8.88,90.6,90.6,0,0,0-35.88-3ZM135.84,40.8Q129.72,8.94,96.36,7.32a26.28,26.28,0,0,1-6.48,1,19,19,0,0,0-11.52,3.84q-45,33.48-36.84,90.36A127.21,127.21,0,0,0,57.84,149.4a542.89,542.89,0,0,1,52.8,123.12q12.42,42.84,20.88,86.52A398.67,398.67,0,0,1,138,461.88a261.6,261.6,0,0,1-19,82.8,16.39,16.39,0,0,0-4.32,4.8,40.79,40.79,0,0,1-13.08,13.32c-24.36,15.48-50.4,17-78.36,4.56a8,8,0,0,1-1.2-2.52,129.43,129.43,0,0,1-1.68-58c2.52-13.08,1.8-25.08-2-36.12a90.11,90.11,0,0,0-8.52,34.92,230.81,230.81,0,0,0,5.88,66.24c3.24,14.16,13.32,21,30,20.64a183.9,183.9,0,0,0,36.6-4.32c23.88-5.4,39.72-19.92,47.52-43.8A345.19,345.19,0,0,0,146,417a417.12,417.12,0,0,0-8-62.28A1078.26,1078.26,0,0,0,107.16,237.6,283.08,283.08,0,0,0,81,180a276.54,276.54,0,0,1-30.24-71.76c-8.52-32.4-.48-59.88,23.88-82.56L80,24a48.21,48.21,0,0,1,32.88,1.2,23.3,23.3,0,0,1,11,9.36c4.44,6.84,8,13.08,11,18.48A23.51,23.51,0,0,0,135.84,40.8ZM212,123.12l-8.4,1,4.2-32.16q28.44-.54,6.84,28.32Zm-18.6-37-64.68,7.2-.12,3.24q7.74,4.32,18.72,3.6l15.48-1.32q-5.22,62.46-4.32,125.4l.6,31.2a86.57,86.57,0,0,0,6.12-33q-.72-62.1.48-123.84l28.44-6.12ZM184.8,72.48,149.28,72l6-65.76L154,3.84a319.76,319.76,0,0,0-6.84,79.08l37.68-4ZM222.12,3.84l-5.64-.36-7.08,3.6C196.08,23.76,190.68,43,193.32,64.92l1.2,9.48,4.08,5.88c2,3.24,4.68,4.8,8.16,4.8l-.36.12a290.62,290.62,0,0,0-8,84.72l4.32-36.48,8.16.48a85.32,85.32,0,0,0,13.08,34.32,108.32,108.32,0,0,0-10.2-36.12q22.14-20.34,8.88-44.76a29,29,0,0,0-3.48-5,16,16,0,0,0,7.44-6,13.25,13.25,0,0,0,2.28-8.76l-.24-3.12a39.71,39.71,0,0,1-21.84,10.2l-3.6.36c-8.88-13.8-10.2-28.56-4.08-44.52a27,27,0,0,1,13.8-14.88A30.31,30.31,0,0,1,222.12,13l4.2,3.84.84-4.68Zm-.24,35.88a30.38,30.38,0,0,0-23.16.84l-1.8.84-.12,3.24,24.48,3Zm79.2,38.52a489,489,0,0,1,5.16,88.92c-5.16-9-7.56-22-7.2-38.64.24-14,.72-28.08,1.56-42.12ZM272.64,86c1.32,19.08,3.48,38.52,6.36,58.32q9.18,62.64,19.44,125.4l6.72,39.72A554.4,554.4,0,0,0,238.8,320.4l6.84-39.24q10.8-62.82,19-126.24c1.32-10.56,3.12-21,5.28-31.44a133.59,133.59,0,0,0,2.28-39.36A419.11,419.11,0,0,0,253.32,176q-5.94,63.54-18,126-12.24,62.82-23.76,125.88T186.72,553.56l-.12.48c-1.44-.84-2-.48-1.8,1a45,45,0,0,0-.6,29.16c5.52-7.56,9.36-16.8,11.52-27.48q8.82-42.84,16.32-85.8l22.44-126.12,2-11.4,71.16-9.12c4.08,23.88,8.4,47.64,13,71.52q11.88,63.18,22,127a363.81,363.81,0,0,0,15.6,62,4.61,4.61,0,0,0,3-3.72,75.2,75.2,0,0,0-1-24.84L334.8,430.8,315.6,337l-4.08-21.36-.6-2.64Q301.56,262,296.4,210.6A756.26,756.26,0,0,0,273,86ZM272.28,6.6a262.38,262.38,0,0,0-3.36,71.88l.48-.12A173.41,173.41,0,0,0,273,6.24Q272.28,6.06,272.28,6.6Zm94.08,110,.72,10.8-3.36-10.92ZM354,2.16,352,.24,344.16,0l-3,1.68q-26.28,60.48-21.36,127.2a73.67,73.67,0,0,0,2.28,13.32l3.24,9.36c1.32,3.12,2.64,6.12,4.2,9.12l3.24,2.28c14.4,1.8,24.72-4.68,31.08-19.32l.84-2.16V174a146.39,146.39,0,0,0,4.92-65,25.37,25.37,0,0,0-14.52-1.8,44.46,44.46,0,0,0-7.68,1.8l-.84,6.72,17,.84c1.08,14.76-4.56,25.92-16.68,33.36a14.87,14.87,0,0,1-8.76,2.4l-5.4-.24q-16-42.84-6-90c1.32-6.6,3-13.2,4.92-19.8A214.32,214.32,0,0,1,340,18.48l4-9.24,7.2.12L361.2,24.84l1.68-6.6A32.82,32.82,0,0,0,354,2.16ZM418.68,6.6q-3.78,34-7.2,68.52l-7.8-1-.84.36a95.12,95.12,0,0,0-15.36,4.8L387,80.4l5-78A68.7,68.7,0,0,0,385,28.8c-3.12,42.6-6.12,85.44-8.88,128.28a45.11,45.11,0,0,0,.84,13.68l2.52-1.44,1.56-.48,2.76,1.32a7.94,7.94,0,0,0-1.44-4c-.12-12.36.36-24.72,1.2-37.08l3.12-44.64.36,2.88.12.84a173.91,173.91,0,0,1,23.28-3.72L408.12,107a370.43,370.43,0,0,0-1.2,64A226.27,226.27,0,0,0,413,134c3.6-42.84,5.64-85.44,6.12-127.56Zm123.6,159.6q-25,13.14-33.84,40.68a423.11,423.11,0,0,0-19.2,106.68c-2.28,42.84-3,85.8-2.16,129.12.48,21.24,0,42.48-1.56,64-1.8,23.28,3.24,44.4,14.88,63.36,4.8,7.8,11.88,11.28,21.36,10.2,18.84-2,31.68-12.48,38.64-31.56L565,537c6-13.92,6.24-26.64.6-38A31.41,31.41,0,0,0,560,513.48c-2,17.4-9.36,32-22,43.8a10.49,10.49,0,0,1-5.52,3q-33.84,7.2-36.12-28.2-4.32-64.44-3.72-128.88l.24-15.6a286.61,286.61,0,0,1,46.8-5.52l.72-1c2.76-5.16,2.4-10-1-14.4a100.56,100.56,0,0,0-46.32,8.4q1.26-49.14,5.76-97.8A235.71,235.71,0,0,1,516,209q12.42-29.52,43.56-28.32c6.6,4,10.56,9.36,12.12,16.44,1.08,5.4,3.6,8.88,7.32,10.44a30.29,30.29,0,0,0-.24-17.28A39.92,39.92,0,0,0,560,166.44Zm.48-159.84-54.6-2.28-4.44.12a554.6,554.6,0,0,1-55.68,5,15.71,15.71,0,0,0-.72,3.24,16.15,16.15,0,0,0,.24,4.8l.24.84.36.72,1,1c17.16-.36,34.44-.48,51.6-.48a130.08,130.08,0,0,0-5.16,27.36q-5,63.9-3.84,129.24,1.26,64.26-2.88,128.16c-2.76,42.84-4.68,85.92-6,129.12l-4.2,128.28c-.36,9.72,1.92,17.28,6.72,22.44,1.8-20.16,2.76-40.68,2.88-61.68q.36-64.8,4.44-129T477.6,265q.9-64.62,1-129.12A610.08,610.08,0,0,1,482,71a512.73,512.73,0,0,0,3.12-51.72c19.32,0,38.52.12,57.84.48a8.05,8.05,0,0,0,1.56-3.24,15.09,15.09,0,0,0-.12-7.32l-.36-.84-.24-.84-.24-.84A1.09,1.09,0,0,0,542.76,6.36Z" transform="translate(-9.49)"/></svg>