<svg id="Layer_1" data-name="Layer 1" xmlns="http://www.w3.org/2000/svg" xmlns:xlink="http://www.w3.org/1999/xlink" viewBox="0 0 520.31 571.2"><defs><style>.cls-1{fill:none;}.cls-2{clip-path:url(#clip-path);}.cls-3{fill-rule:evenodd;}</style><clipPath id="clip-path" transform="translate(-20.4 -3.48)"><rect class="cls-1" x="20.4" width="521.16" height="574.8"/></clipPath></defs><g class="cls-2"><path class="cls-3" d="M198.72,498.36l.12-.12a181.1,181.1,0,0,1-8.64,51,477.59,477.59,0,0,0-15.36-51.84l-13.56,51-8.88-59.88a361.9,361.9,0,0,0,7.32,83.64l15.6-54.24,15.12,50,3.84-8.64c9-22.68,12.24-44.64,9.48-66l-4.32,2.16Zm-54.6-216.12,9.84-1.32,41.76.48.12,10.8a29.56,29.56,0,0,1-19.8,1.08q5.76,71.28-1,135.48L172,419.4l-.12-126.72a67.75,67.75,0,0,1-28.2-4.68ZM158,144.72c5.16,16.2,2.16,30.12-9,42-5.52,5.88-12.36,8-20.64,6.48a195.54,195.54,0,0,1-5.64,84.12q-2.16-79,2-157.8C141.48,119,152.64,127.44,158,144.72Zm-4,10.56c-2.64-18.36-12.24-27.72-28.68-28.32,1.32,19,2.16,37.92,2.76,57C148.2,183.6,156.84,174,154.08,155.28ZM116.28,31.92C129.36,36,138.6,44.28,144,56.88c3.24,7.44,3.12,14.4-.36,21a2.88,2.88,0,0,1-.84-1.44l-1.8-7.8-1.68-5.88-1-1a46.4,46.4,0,0,1-5.4-6.6L131.16,53l-.48-.36-2.52-.48q-27.72-17.1-57-7.2a20.3,20.3,0,0,0-9.72,7C46.68,70.44,43.32,91.56,51.12,115.2a983.64,983.64,0,0,0,36.12,92.88l39.12,87.24c6.72,14.88,12.72,30.12,18.12,45.6q20.34,58.86,8.64,119.28A181.47,181.47,0,0,1,105,552.84,36.66,36.66,0,0,1,75.72,564.6q-36.18-1.26-46.8-37a129.71,129.71,0,0,1-5.4-38.4l-.6-.72A4.72,4.72,0,0,1,21.36,486v-.12a46.39,46.39,0,0,0-1-9.24l1.2-3.72a6.6,6.6,0,0,1,3.24-3.72c5.16,8.88,8.28,19.44,9.36,31.8,1.32,17.16,8.88,30.72,22.68,40.8A11.16,11.16,0,0,0,62.4,544c28.68,3.72,49.56-6.72,62.4-31.56q28.44-55.08,21.84-116.52a273.45,273.45,0,0,0-29.28-97.08c-4.92-9.48-9.48-19.2-13.56-29L53.64,149.16C41,118.8,39.24,88.32,48,57.6A50.6,50.6,0,0,1,68.16,29.16a33,33,0,0,1,13.08-5.4,64.12,64.12,0,0,1,32,7.2A8.79,8.79,0,0,0,116.28,31.92ZM212.4,204.24l-.48,64.2c13.56-4,22.32-12.48,26-25.68,4.44-15.6.12-27.84-13.2-36.84Zm0-6.48,8.4-1.8q29,12.24,24.84,43.2a51.53,51.53,0,0,1-16.08,31.2,691.49,691.49,0,0,1,19.92,96.36l-6.72-11.64-.36-4.32c-8.76-23.16-13.44-49.68-14.16-79.32a25.14,25.14,0,0,1-16.44,7.92,277.28,277.28,0,0,1-5.64,81.6,16.19,16.19,0,0,1-2.64-14.88,13.72,13.72,0,0,0,.24-6.6l.84-1L210,203.76ZM198.84,3.84A1096.08,1096.08,0,0,0,192.12,115a369.54,369.54,0,0,1-3.72,47.64c-1,7.2-.48,13.44,1.44,18.6a13.52,13.52,0,0,0,.6,3.84l1.32.12.6,1,.12-1,52.68,2,.36-.48c2-4.08,1.8-7.92-.72-11.4l-51,2.16a378.8,378.8,0,0,0,3.84-45.72c1.08-43.08,1.56-85.92,1.68-128.28Zm124.8,100.68L284.76,313.68l7.44-2.76c5-1.8,10.08-3.48,15.12-4.92l15.24-4.32A125.18,125.18,0,0,1,348.12,298L327.36,77.28Zm-36-84.84a58.93,58.93,0,0,0-24.72,2.76v2.64L262.8,25q-2.52-2.34,1.08-6.12c7-7.32,14.88-8.64,23.76-3.72V11C271.92-.12,262,4.56,258,25.08a18.45,18.45,0,0,0,2.28,13.08,38.61,38.61,0,0,0,32.16,1.56l1-6.6c-10.92,2-20.16,0-28-6a33.14,33.14,0,0,0,22.44-1.68Zm40.68,23.76A407.94,407.94,0,0,1,339.12,138a545.67,545.67,0,0,0,4.08,64.2L359,329.52Q366.78,393.24,373.8,457c4.2,38.52,7.2,77,9.12,115.32a2.44,2.44,0,0,1-1.2,2.4q-7.56-8.1-8.28-22.32a48.62,48.62,0,0,0-2-12.72l.24-2.76,2.28,3.48Q368,477.18,361.08,414l-11.4-102.24A307.9,307.9,0,0,1,282.84,323q-9.9,47.34-21.24,94.32-11.16,46.44-21.48,93.36a251.1,251.1,0,0,1-20.4,57.72c-3.48-10.2-3.84-21.36-1.08-33.24l1.2-.72.36-.24-.6,7.68.12.84,3.72-12.84,1.08-3.36-.12-.24c10.2-35.4,19.68-71.4,28.68-108.24q15.48-62.82,27.48-125.88,8.82-46.62,18.12-92.88,12.42-62.1,20.64-124.56a139.81,139.81,0,0,1,7.2-29.52v-.6c.12-.84.36-1.32.84-1.56l.84-1.92ZM359.4,6.84l-.24.12Q355,26,359.16,40.8A81,81,0,0,0,359.4,6.84Zm20.76,32.88a422.39,422.39,0,0,1,33.24,88.92,160.94,160.94,0,0,0,11.28,30.24A385.4,385.4,0,0,1,460.8,273.72a4.4,4.4,0,0,1-1.32,4q-11.7-27.9-21.24-58.8a154.52,154.52,0,0,0-6-15.6,669.44,669.44,0,0,1-41-118.56,364.84,364.84,0,0,0-12.48-41.16C378,41.52,378.48,40.2,380.16,39.72ZM445.08,28.2q-7.56-1.44-13,1.08l-.24.72a7.44,7.44,0,0,0,.24,3.24,39.6,39.6,0,0,0,10.32,2.16c-1.92,4.68-1.8,9,.24,12.72l.48-.6A32.71,32.71,0,0,0,445.08,28.2Zm-4.32,11.88c-12.36,3-19.68-1.08-21.84-12a20.32,20.32,0,0,1,.84-10q7.38-5.76,15.84-2.16l1.08.48,2-.48c1.08-2.76.24-5.16-2.28-7.08l-2.16-1.56L420.48,8.4c-8.64,12.12-9,24.6-1.08,37.32A22.49,22.49,0,0,0,439,47.16Zm79.32,8A107,107,0,0,1,514.56,80c-3.36,10.2-6.36,20.52-8.88,31Q490.38,173.46,480,236.4q-10.62,63.18-23,125.88-12.42,62.46-25.32,124.92a633.75,633.75,0,0,1-23.88,84.24q-8.46-8.82-3.24-23a25.69,25.69,0,0,0,1.8-10.32l1.2-.12.36-.6.36,2.76.36.48q16.74-60.66,28.8-123.6l23.76-126.24L472.8,228.6Q484.86,165.78,500,103.32c3.24-13.2,7-26.4,11-39.48a99.26,99.26,0,0,1,4.92-13,6.4,6.4,0,0,1,3.48-2.52Zm16.32-22.2-34.68-.48L499.8,7.08a168.46,168.46,0,0,0-1.68,44.64l3.36-21.6a46.85,46.85,0,0,0,24.84,4.44l9.36-1.44.48,21.6a154,154,0,0,0,4.2-47.4Z" transform="translate(-20.4 -3.48)"/></g></svg>