<svg id="Layer_1" data-name="Layer 1" xmlns="http://www.w3.org/2000/svg" viewBox="0 0 556.55 486.72"><defs><style>.cls-1{fill-rule:evenodd;}</style></defs><path class="cls-1" d="M126.12,65.16c-11.4-9.24-24.48-13-39.48-11.28a29.13,29.13,0,0,0-10.08,10.8q-31.68,58.32.72,117A811.45,811.45,0,0,1,132,303a422.12,422.12,0,0,1,24,117.24q3.78,62.64-49.32,92.52a47.48,47.48,0,0,1-23.28,6.36q-45.72.54-59-41.52l1.56-5.76.24-.6a5.21,5.21,0,0,1-1.44-2l-.6,1.08a1.94,1.94,0,0,1-1.44-1.56A2.47,2.47,0,0,0,21,466.56l-1.56-.12q-7.74,45,34.32,67.08c19,10,38,8.76,57.12-3.36q53.28-33.66,53-98A378.21,378.21,0,0,0,144,311.88,916.27,916.27,0,0,0,95,193.56l-18.6-38.28c-15-31.56-11.76-59.88,9.84-85.2a34.21,34.21,0,0,1,20.28.72c16.56,5.88,26.16,17.4,28.68,34.68,4-8.52,3.6-17.28-1.32-26.52l-6.84-13ZM269.64,121.8c.24,20.52-10.44,33-32.16,37.44.84-19.8,1.32-39.48,1.68-59,11.4-4.68,20.28-2,26.76,7.8A26.48,26.48,0,0,1,269.64,121.8ZM221.88,55.44a24.16,24.16,0,0,0-4.8,3.48q-27.36,24.84-31.56,62.4-7,64.08-8.64,129.24-1.44,64.26-5,128.16A463.74,463.74,0,0,0,176,472.8c3.72,25.8,13.68,48.12,29.88,66.72a56.4,56.4,0,0,0,37.56-7.8A140.7,140.7,0,0,0,282,498.48c9.6-11.88,10.8-22.68,3.72-32.28l-1.8,1.68-.12.24-.48,2.76A12.33,12.33,0,0,1,281,475.8a19.38,19.38,0,0,1-2,4.2c-17.16,25.8-41,39.84-71.76,41.88q-30.6-41.58-29-95.52l4.08-129c1.44-42.6,3.24-85,5.52-127.32l1.8-31.92c1.56-26.16,11.16-48.24,29-66.36q24.3-4.32,43.2,8.28a3.93,3.93,0,0,0,1-4.44C256,59.4,242.4,52.68,221.88,55.44Zm21.6,30.84-3.84,1.44Q233,101.94,232.08,127q-.72,18.54-1.8,37.08c-.72,13.44-1.68,26.76-2.88,40.08A303.89,303.89,0,0,1,221,243.36c-3.24,14.16-1.92,27.36,3.72,39.72A554.24,554.24,0,0,0,237,172.32l14.28-4.44a824.13,824.13,0,0,0,31.08,111.6,2.74,2.74,0,0,0,2.52,1.92,579.43,579.43,0,0,0-30.6-115.2,40.83,40.83,0,0,0,20.64-25.44,30.54,30.54,0,0,0,1.32-7.08,73.22,73.22,0,0,0,.12-13.56c-.36-3.12-.84-6.24-1.44-9.24-2.28-10.56-8.52-17.76-18.48-21.72A46.29,46.29,0,0,0,243.48,86.28Zm138.36,244.2-40.44.84L362.88,123.6l7.56,93.72Zm-22-259.32-.12,6.72c-2.88,15.72-4.92,31.56-6.24,47.52q-5.4,63.36-11.16,126.72-5.94,63.9-15.12,127.44-9.18,63.9-24.48,126.12v-.48a71,71,0,0,0-.6-9.48c-3.24,12.36-3,23.88.84,34.56a127.24,127.24,0,0,0,13.08-36.72q12.24-62.82,20.76-126.24l3-23.28a206.9,206.9,0,0,0,43.56,3c1.8,20.52,3.6,41.16,5.16,61.8a929.37,929.37,0,0,0,17.88,126.6,1.52,1.52,0,0,0,1.92-1.56,269.86,269.86,0,0,0-2-53.76q-8.64-63.54-15.72-127.2c-4.8-42.36-9-85-12.72-127.56S371,139.92,368.76,97.08a112.8,112.8,0,0,0-3.84-24l-.72-7.56a1.9,1.9,0,0,0-1.68.24A6.59,6.59,0,0,0,359.88,71.16ZM467.4,100.68a245.55,245.55,0,0,1,10.68,40q12.06,68.94-23.76,127.68A24.55,24.55,0,0,1,440.76,279q-10.26,3.42-14.4,9c-.36-31.8-.36-63.72.24-95.64q1.08-57.6.48-113.64a46.56,46.56,0,0,1,28.32,3A52,52,0,0,1,467.4,100.68ZM441.6,63l-2.16.36A26.85,26.85,0,0,0,427,66.72V64.08c-3.48,5.4-5.28,12.12-5.16,20q.18,64.8-1.08,129.12-1.44,64.62-1.08,129.12.18,64.62-4.32,128.88a236.64,236.64,0,0,0,4.08,64.2c.72-.24,1.08-.48,1.2-.84,2.52-17.88,4.44-35.76,5.76-53.52l-.24.84-2.4,10.2c1.2-13.8,2-27.6,2.4-41.52q2-64.44.72-129.12l-.24-15.12A38.4,38.4,0,0,0,440,298.8q45.9-39.42,46.32-101.76c.12-15.84,0-31.56-.24-47.16q-.72-47.16-28.8-82.8l-1.2-.72A30.4,30.4,0,0,0,441.6,63ZM553.8,81.84c6.12,7.56,11.52,14.76,16.32,21.48l.36-.72Q571.56,70.38,541.2,59a15.79,15.79,0,0,0-7.08,4.44Q506,93.9,501.12,136.2q-7.56,63.72-10.2,128.4-2.7,64.08-6.48,128.28a457.52,457.52,0,0,0,9.48,124.2,13.63,13.63,0,0,0,5.28,8.4q33.3,25.38,60.84-5.16c13.08-14.4,17.52-29.88,13.08-46.32a10.25,10.25,0,0,0-6.72,6.6,47,47,0,0,0-2.16,7.08l-.36,1.92-.24,1-.12-.12-1,2.16.24,1a12.55,12.55,0,0,1-2.28,4.56c-15,21.72-34.44,25.68-58.56,11.64a410.61,410.61,0,0,1-9.84-124.2q2.7-38.52,4.68-77A359.39,359.39,0,0,0,532.2,302l.72-1c3.24-6.36,2.28-11.28-2.64-14.76a137.76,137.76,0,0,0-32.88,10.32l1.8-39.24c1.56-41.64,5-83,10.68-124.08a106.09,106.09,0,0,1,21-51.12C538.32,72.48,546,72.36,553.8,81.84Z" transform="translate(-18.23 -53.49)"/></svg>