<svg id="Layer_1" data-name="Layer 1" xmlns="http://www.w3.org/2000/svg" viewBox="0 0 534.64 485.01"><defs><style>.cls-1{fill-rule:evenodd;}</style></defs><path class="cls-1" d="M162.12,70.08q-26.28-25.2-65.76-21.6L83.52,55.8a23.67,23.67,0,0,0-9.24,9.6c-14.76,27.24-19.8,57-15.24,89a45.13,45.13,0,0,0,5,14.64c10.68,19.08,21.24,38.28,31.56,57.36,10.92,20.28,21.72,40.8,32.4,61.32a195.2,195.2,0,0,1,22.32,86.64c.48,21.24.36,42.48-.48,63.48a84.07,84.07,0,0,1-13.56,43.8c-16.44,25.32-39.84,34-70,25.92a12.31,12.31,0,0,1-6.24-3.84,119.47,119.47,0,0,1-21.48-41.4c-3.48-11.4-3.72-22.2-.72-32.16a22.38,22.38,0,0,0-6,13.08A103.49,103.49,0,0,0,36,486.84c4.92,15.6,13,28.68,24.12,39.12,17.76,8,35.16,7.8,52.2-.48,18.6-9,30.48-23.52,35.76-43.32a364.37,364.37,0,0,0,12.48-93.6,215.22,215.22,0,0,0-7.68-58.92,430.13,430.13,0,0,0-26.52-70.8,487.92,487.92,0,0,0-42.48-72.72A110.67,110.67,0,0,1,67.8,152.64a121,121,0,0,1-4.92-32.76C62.52,95.16,72.84,77,93.6,65.52a135.75,135.75,0,0,1,38.16,1.32A41.45,41.45,0,0,1,157,81.24a145.89,145.89,0,0,1,13.2,18.36C173.88,88.68,171.12,78.84,162.12,70.08ZM257.76,130q9.36,63.18,17.4,126.36l5.16,40L278.64,295a639.75,639.75,0,0,1-64,7.2c5.52-37.32,11.4-74.52,17.52-111.84A895.81,895.81,0,0,1,257,81.84,179.89,179.89,0,0,0,257.76,130Zm3.6-62.28-.36-.6L257.52,66a452,452,0,0,0-29.28,99.72Q217.08,228.36,208.8,291.6l-2,14.28-.36,2.52c-5.4,37-12.36,73.68-21.12,110-4.92,21.12-10.68,42-17,62.64-5,16.2-6.6,31.8-4.56,46.8.84-.24,1.44-.6,1.56-1.08,9.24-27.48,17-55.44,23.64-83.88q14.4-62.64,23.64-126l.48-2.76a238,238,0,0,0,65.64-4.08l.72-.6a27.76,27.76,0,0,0,2.16-4.2l10,78q8.1,63.54,18.6,126.48l-.12.6a4.9,4.9,0,0,1-1.8-2.52c.84,7.08,3.24,15.48,7.32,25.2a1.58,1.58,0,0,0,1.2-1.08,86.39,86.39,0,0,0,.84-38q-12.24-62.64-19.68-126.36-5.58-47.88-13.32-95.4c-4.32-26-8.28-52.2-12-78.24-5.88-41.16-10-82-12.24-122.64Zm188,1.08-.24,1.92c-.48-.12-.84.24-1,.84q-9.72,46.62-17,93.84-9.9,63.72-16.68,127.92c-3.24,31.08-6.72,62-10.68,92.88-1.32-21.24-3.48-42.6-6.24-64.08-5.64-42.36-10-84.72-13-127.32-3-42.84-7.08-85.32-12-127.32a74.25,74.25,0,0,0-2.28,9.24l.12-6.36q-9.54,58.86-16.68,120.6-7.38,63.54-11.52,127.56a664.23,664.23,0,0,1-20.52,126.84c-3,11.4-2.76,22,.84,31.44a2.92,2.92,0,0,0,1.2-1.56c2.52-7.92,4.68-15.84,6.48-23.88a831.93,831.93,0,0,0,17.88-126.84q4.14-64.08,13-127.44c4.44-31.92,7.2-63.72,8.52-95.28L380,227.28c3.48,42.6,7.68,85,12.48,127.32,2.4,21.36,4,42.72,4.56,64.2q.54,18.36,8.28,31.68a.91.91,0,0,0,.48-.84l-.12-18.6a389.39,389.39,0,0,0,5.88-43q5.22-63.9,13.8-127.44,8.64-63.36,18.84-126.48c1.8-10.92,3.12-21.6,4-32.28l.24,3.6c2.4,42.36,3.84,85,4.44,127.56q.72,64.8,4.32,129.12,3.42,64.44,11.52,128.16a104.85,104.85,0,0,1,1,16.2c0,10.2,2.88,17.88,8.64,23.28l.48-.84c2-14,1.68-26.52-1.2-37.32-1.8-12.12-3.36-24.36-4.68-36.48q-6.84-63.72-9.6-128.16-2.7-64.26-4.32-129.24-1.62-64.08-7.92-127.44l-.6-.72ZM538,74.16a39.18,39.18,0,0,0-21.6,2q-39.42,60.66-34.92,137.52c2,37.8,3.12,75.36,3,112.92a1330.74,1330.74,0,0,0,8.88,157.56A66.26,66.26,0,0,0,495.84,496a29.59,29.59,0,0,0,4,8.88l2.76,4a6.85,6.85,0,0,0,1.68,1.56,14.51,14.51,0,0,0,14.4,2l2.52-1.08,5.4-2.88,2.88-1.92,4.32-3.36,7.92-7.2a82.56,82.56,0,0,0,22-35.88c4.2-13.32,2.28-25.8-5.76-37.2l3,7.32A106.56,106.56,0,0,1,528,487.92c-7.8,7.2-16.32,8-25.56,2.64a1668.86,1668.86,0,0,1-11.52-193,182,182,0,0,0,43.56-3.12,12.69,12.69,0,0,0,1.32-11.88l-1.68-3.84-43.32,6.72Q479.46,185,514.8,95.4l1.68-4.2q28.08-11.34,40.92,11.52c1.56,2.64,3.36,3.36,5.4,2.28C564.48,87.72,556.2,77.4,538,74.16Z" transform="translate(-31.16 -48.03)"/></svg>