<svg id="Layer_1" data-name="Layer 1" xmlns="http://www.w3.org/2000/svg" xmlns:xlink="http://www.w3.org/1999/xlink" viewBox="0 0 581.11 589.86"><defs><style>.cls-1{fill:none;}.cls-2{clip-path:url(#clip-path);}.cls-3{fill-rule:evenodd;}</style><clipPath id="clip-path" transform="translate(-9.6 -3.54)"><rect class="cls-1" x="8.28" width="583.8" height="593.52"/></clipPath></defs><g class="cls-2"><path class="cls-3" d="M409.08,591.24c2.76-1.32,4.08-4,4.08-8-.12-16.2-.6-32.28-1.68-48.24L405,575.28C403.8,582.84,405.12,588.12,409.08,591.24ZM181,425.64l1.08,4.8-3.24,7.32-13.56,3.6.12-18.48a15.08,15.08,0,0,1,13.92,1.56Zm11.88-58.2,6.84,6.72c1-11.64-4.68-17-16.8-16.2q-25.74,25.2-3.84,55.44c14.52,4.44,22.44-.24,23.64-13.8a25.74,25.74,0,0,1-22,4.68c-9.48-12.6-8.88-24.72,1.92-36.48ZM218,337.68C229,326,231.48,312.84,225.6,298.2a48.76,48.76,0,0,1-8.88,30l-2.4.36a41.44,41.44,0,0,1-6.24-31.68q-14.76,23.76,6.24,39A10.71,10.71,0,0,0,218,337.68Zm-47,76.8-6.24,3.72-1.08-1.8a341.34,341.34,0,0,0-6.6,53.64c-1.08,22.2-2.4,44.64-4.2,67.32l9.12-47a156.9,156.9,0,0,0,15.84,44.52q12.06-29.52,9-58.44l-9.6,45.48q-18.18-35.1-12.36-73.32c12.12,2.16,19-3.24,20.4-16.32.84-7.32-1.44-13.08-7.08-17a4.86,4.86,0,0,0-4-.84ZM174.72,358l11.4-12.84c6.84,14.64,15.24,16.92,25.2,6.72,4.08-4.2,5-8.88,3-14a23.91,23.91,0,0,1-13,11,6.5,6.5,0,0,1-5.76-.6l-6.12-9.48a44.11,44.11,0,0,0,1.2-29.64,20.05,20.05,0,0,0-7.44-11l-3,.84-4.92-3c-13.08,4.68-20.28,15.48-21.48,32.4C152.64,345.48,159.6,355.32,174.72,358Zm.6-54.12q16.38,8.82,12.24,27.36l-1,3.72-5.88-6.36-4.32.48a7.63,7.63,0,0,0-3,4.68,6.59,6.59,0,0,0,.6,4l2.16-1.44,1.44-.48,1.8.36,1.56.48,2.52,4.08-9,8.4a11,11,0,0,1-7.2-1.56,14.56,14.56,0,0,1-6.6-7.32c-2.4-13.68,1-25.56,10-35.76ZM105.24,7.2a201.5,201.5,0,0,0-24-2.88A10.37,10.37,0,0,1,75.72,6,7.93,7.93,0,0,0,71,7.68l-1.8,1.56Q39.9,28.86,34.08,64.92a59.34,59.34,0,0,0,3.24,31C46.68,120,56.76,144,67.68,167.64a1217.25,1217.25,0,0,1,49.8,125.76A492.37,492.37,0,0,1,141.6,413.88a561.13,561.13,0,0,1-4,117q-5.76,41.58-49,40a210.92,210.92,0,0,1-24.6-2.52c-24.84-4.44-39.6-18.48-44-42.24a89,89,0,0,1-1.2-20.28,164,164,0,0,0-2.64-43.92,9,9,0,0,0-1.8,1.92,20.21,20.21,0,0,0-4.08,10.92,196.3,196.3,0,0,0,6.84,70.92,40.7,40.7,0,0,0,12.36,19.68C43.8,577.8,60.84,585.48,80.4,588.24c18.6,2.52,34.44-2.4,47.76-14.76a30.06,30.06,0,0,0,8.76-14.88,436.67,436.67,0,0,0,12.36-127.08,520.25,520.25,0,0,0-20-120.84A1177.88,1177.88,0,0,0,88.8,194.4Q71,151,49.44,110q-26.1-49.5,17.64-86.76c12.72-6.6,26-7.08,39.84-1.56,15.48,6.12,25,17.52,28.32,34.08,3-6.72,2.88-13.8-.24-21.36A48.49,48.49,0,0,0,108.72,7.8Zm88.32,104a88.17,88.17,0,0,1-40-.24A221.1,221.1,0,0,0,155,60.6a189.7,189.7,0,0,0-4.68,59.76,71.23,71.23,0,0,0,43.56-2.64Zm36.72,9.6-.84-.72a262,262,0,0,0-69.24,13.32v4L200.64,133q-5.22,70.92-7.56,142.08a66.12,66.12,0,0,0,3.36,23.16,1406.6,1406.6,0,0,0,5.16-165.36l30.12-6C232.8,124.32,232.32,122.4,230.28,120.84ZM179.64,14.28,172.08,46a132.51,132.51,0,0,0-4.2-21.84A100,100,0,0,0,160.56,4.8L172.44,61,181,24.36,191.4,60a153.58,153.58,0,0,0,8.76-28.2,181.86,181.86,0,0,0,3.6-28L191,49a124,124,0,0,0-5.52-23A42.09,42.09,0,0,0,179.64,14.28Zm72.24-5.4C235-1.2,223.68,3,217.8,21.36c-5.4,16.8-.72,28.44,14.16,35,11.16,5,19.2,2.52,24.12-7.68q-15.48,7-29.16-1.8a19.22,19.22,0,0,1-7.8-9.84l1.2-4A70.07,70.07,0,0,0,253,36.48l-.24-5.88-31.56-2.4.12-6.6,2.16-4c8.64-5.52,18-6.84,28.2-3.84ZM304.56,30.6q5.94,58.68,14.16,116.88,9.18,63,19.68,125.88l1.44,9a475.37,475.37,0,0,0-80.76,12.36c6.36-33.36,12.48-66.72,18.12-100.08Q287.82,131.46,299,68.52C301.32,55.68,303.24,43,304.56,30.6Zm34.92,30.6,16.08,41.4c.12-15.24-5.16-29-16-41.28Zm-33-56.64-.12.36-.12.12-.24.6-2,6.48a357,357,0,0,0-11.52,51.24Q283.08,126,271.92,188.28q-11,62.82-23.16,125.76L245.16,334q-11.34,63.18-26.76,125.52-15.66,62.82-27.12,125.76a3.25,3.25,0,0,0,1.92,2.4c4.32-3.72,7.32-9.24,8.88-16.8l26.52-125.4Q241.92,383,254,320.52l3.84-19.2c27.48-.84,55.56-3.12,84-6.84q9,52.38,18.72,104.4Q372.3,462.06,378.84,526a192.57,192.57,0,0,0,16.68,62.28,23.64,23.64,0,0,0,2.4-20.64,300.32,300.32,0,0,1-13.08-58.68q-7.74-63.36-19.68-126.12T342.6,257.16Q332,194.34,323,131.16,314,68.52,306.72,6.24l.12-1.32h-.24ZM570.6,242.16l-12.12-.24c-13.08,9.72-21.24,23.28-24.36,40.92a606.33,606.33,0,0,0-8.88,73.92A580.79,580.79,0,0,0,531,481.08c1.32,9,3,18,4.8,27.12,4,19.32,14.88,30.12,33,32.4A57.91,57.91,0,0,0,589,512.88c3-8.76,2.16-15.12-2.64-19.08l-2.64,9.72A44.94,44.94,0,0,1,568.8,527a11.44,11.44,0,0,1-10.44-.36,11,11,0,0,1-4.68-4.68c-16-29.88-24-62.28-24.24-97.44l-.24-31.32A91.49,91.49,0,0,0,565,389.88l.36-.72c1.44-3.36,1.08-6.36-1.2-9a144.56,144.56,0,0,1-34.92,4.08l.36-39.24q.54-50,25.44-91.68a24.48,24.48,0,0,1,17,0,47.55,47.55,0,0,1,6.36,9.84,31.61,31.61,0,0,0,7.44,10.2,12.75,12.75,0,0,0,.12-12.12,56.14,56.14,0,0,0-12.12-16.92l-2.4-1.56Zm-202,1,5-63.72a148.29,148.29,0,0,0-6.84,39.84A93.39,93.39,0,0,0,368.64,243.12Zm40.2-119.64A51.33,51.33,0,0,0,382.08,128l-.24,3.24A42.15,42.15,0,0,0,409,129.84ZM397.2,64.68q-29.34,51.84-16.8,113.88l5.4,4.32,7.08.6c10.92-5.28,17.4-13.32,19.44-24A54.85,54.85,0,0,1,386,173.4l-3.72-3.84a169.87,169.87,0,0,1,13.56-94.08c7.8-3.36,14.4-2,20,3.84l1.2-4.92c-2.52-8.4-8.52-11.76-18.12-10ZM358,105.24l-10,48.24c-2.4,11.52-2,21.84,1.08,31.08l.24-.84q8.46-63.18,22.2-125A275,275,0,0,0,358,105.24ZM495.36,86.4l-.72-7.92-1-7.92-1.08-8-2.64-16c-2.4-16.68-11.28-28.44-26.76-35A37.14,37.14,0,0,0,437.52,10l-.48,6.6.36.48h1.32q-6.3,119.34-7.68,237.48-1.26,104.22,1.2,209.4c.36,16.2.48,32.4.48,48.6l-.48,24.36-.48,8.16-1.44,16-.36,4.56a59,59,0,0,0,1.92,20.4L434,593.4a490.87,490.87,0,0,0,7.56-132.72q-7.74-99-6.72-198.48l16.68-4.2a2348.79,2348.79,0,0,0,52.32,242.4,546.49,546.49,0,0,0,33.84,91.44q5-32.94-11.28-65.4a226.1,226.1,0,0,1-16.8-44.28q-29.34-112.5-55.08-225.84a110,110,0,0,0,30.12-47.16A255.68,255.68,0,0,0,497,118.32l-.72-16ZM473.28,26.28A33,33,0,0,1,476,32.16q22.14,60.66,12.84,126.36c-1.56,11-3.12,22-4.92,32.76-4.2,25.32-17.4,43.2-39.36,53.64a34.47,34.47,0,0,0-9.36,1q1.26-54,3.36-107.64c1.56-40.92,2-81.36,1.2-121.32Q459.24,13.86,473.28,26.28Z" transform="translate(-9.6 -3.54)"/></g></svg>