<svg id="Layer_1" data-name="Layer 1" xmlns="http://www.w3.org/2000/svg" xmlns:xlink="http://www.w3.org/1999/xlink" viewBox="0 0 600.84 845.23"><defs><style>.cls-1,.cls-3{fill:none;}.cls-2{fill:#fff;}.cls-3{stroke:#fff;stroke-linecap:round;stroke-linejoin:round;stroke-width:0.38px;}.cls-4{clip-path:url(#clip-path);}.cls-5{fill-rule:evenodd;}</style><clipPath id="clip-path" transform="translate(3 3.24)"><rect class="cls-1" width="595.32" height="601.56"/></clipPath></defs><rect class="cls-2" x="3.12" y="3.36" width="595.08" height="841.68"/><rect class="cls-3" x="3" y="3.24" width="595.2" height="841.8"/><g class="cls-4"><path class="cls-5" d="M364.2,587l28.08,3c1.68.36,2.76,1,3.12,1.8l.24,3.36.24,3.24c-.12.84-.72,1.32-1.92,1.32a44,44,0,0,0-6.36-1.56c-6.12-1.08-15.72-1.92-28.8-2.28l-.84-1.68-.24-2.76c0-2.52,1.32-10.56,4.08-24.12,3-15.48,5.88-27.36,8.64-35.52A9.54,9.54,0,0,1,372.6,538c0,5-1.2,13.92-3.72,26.52ZM146.88,511q7.92-2.7,14.4-.36t6.48,8.28l-.24,3.24a3.12,3.12,0,0,0-.84.36,5.85,5.85,0,0,1-1.56.72c-.84-2.28-3.24-4.32-7.44-5.88l-6.12-1.68c-6.36,0-12,4.56-16.8,13.8a63.16,63.16,0,0,0-4.08,10.08,27.9,27.9,0,0,0-1.32,5.76,13.89,13.89,0,0,0,1.56,7c1.8,3.24,5,4.8,9.48,4.8,12.12,0,19.68-1.68,22.8-5.16a8.75,8.75,0,0,0,1.92-4l.48-2.76a12.29,12.29,0,0,1,1.32,3.24l.36,3.6c0,2.76-1.32,5.64-3.84,8.52a15,15,0,0,1-11.88,5.4c-12.72,0-20.76-3.12-24.12-9.48a14.36,14.36,0,0,1-1.56-6.84l.24-4.08c0-9.48,2.16-17.28,6.48-23.64A28.45,28.45,0,0,1,146.88,511Zm11.28-34,.12,7.08c3.12-.12,6.36-.24,9.72-.12l1.92-2.4A66.77,66.77,0,0,0,158.16,477ZM155,476a52.82,52.82,0,0,1-.24-5.64H156a4.8,4.8,0,0,1,1.2-1.92l.36,1.8c6.6-.12,11,1,13.44,3.24,1.56,1.56,2.4,4.44,2.4,8.64a28.52,28.52,0,0,1-.24,4.92c-.48,1-2.28,2.4-5.4,4.44l-9.48-.72-.24,5.76q-.54,8.46-3.24,11.52A5.87,5.87,0,0,1,153,507a5.22,5.22,0,0,1-.6-2.76,46.41,46.41,0,0,1,1.44-8.52l1.2-5.64a6.19,6.19,0,0,1-2-1.08,2.48,2.48,0,0,1-.6-2.16v-2.4l3.12-.24-.24-8ZM349.68,574.2c.72-8.16,2.64-12.84,5.64-14.16a20.06,20.06,0,0,1,1.32,7.68,103.14,103.14,0,0,1-1.2,15.6,96.72,96.72,0,0,1-3.36,14.76,5.26,5.26,0,0,1-2.76-4.8Q349.32,578,349.68,574.2ZM181,445.08a10.8,10.8,0,0,1,.36,3c0,2.16-1.8,6.36-5.4,12.72q-4.86,8.82-6.84,10.44-4-3.06-7.56-10.08l-5.88-11.28a86.51,86.51,0,0,1-3.72,11.28l-4.44,11.16h-.84l-.36-1a10.45,10.45,0,0,1-.12-2.28c2.76-15.48,6-24.84,10-27.84l5.88,10.2,6,10.8c1.56-1.56,3.6-4.68,6.12-9.24,2.64-5,4.44-8.4,5.52-10.2Zm2.76-24.24a56,56,0,0,1,1.32-13,15.66,15.66,0,0,1,.84,5.16l-.12,6.24c.12,5,1.8,7.56,4.8,7.56,4.92,0,8-2.88,9.12-8.64l.72-6.36c.24-2.16.6-3.48,1.2-4a12,12,0,0,1,1,3.84l.12,4a31.59,31.59,0,0,1-1.8,10.92c-2,5.16-5.28,7.8-9.84,7.8-3.24,0-5.4-2.16-6.48-6.6ZM200.28,288l-8.76.84-5.28,1.08.24,4.44a74.21,74.21,0,0,1-1.2,12.12l10.92-.36,5.16-4q4.32-3.6,4.32-4.68c0-.72-.72-2.16-2.16-4.2ZM148.56,420.84a13,13,0,0,0,2.76,8.28c2,2.64,5,4,8.88,4l6-.48c-2.76-1.32-5-1.8-7.08-1.2h-.72c-.12,0-.12-.6-.12-1.68,0-7.08,4.56-8.16,13.56-3.36l2,1.08L174,427v-1.32c0-1.08-1.32-2.76-4-5.28a36.17,36.17,0,0,0-8.76-5.88c-3.72-1.8-6.6-2.28-8.76-1.68C149.88,413.64,148.56,416.4,148.56,420.84Zm-2.76.24c0-10.44,2.4-15.36,7.08-14.76a24.13,24.13,0,0,1,6.36,2.16,16,16,0,0,0,6.12,1.92c5.16,0,8.52,2.52,10.32,7.56a22.49,22.49,0,0,1,1.08,8l-.24,3,6,3.72a47.27,47.27,0,0,0,7.44,4.2l-3.24,3.72c-1.32,1.44-2.52,2.16-3.84,2.16a10.49,10.49,0,0,1-5.4-2l-4.08-3.24a7.93,7.93,0,0,1-6.72,3.36c-10.44,0-16.92-3-19.68-8.88a16.77,16.77,0,0,1-1.32-6.72Zm27.12-71.52a13.58,13.58,0,0,1-.24-2.76c0-3.72,1.68-13.44,5-29l1.8-7.8a7.52,7.52,0,0,1,.24-1.92l.24-.36q2.34-10.8,4.32-18l-.12-.12-.24-2.4c0-1.92.48-3.12,1.56-3.48.84-.36,3.24-1.08,7.2-2.4l7.8.24c2.4,1.56,4.44,4.2,6.24,8a22.93,22.93,0,0,1,2.4,9c0,3.48-.84,6-2.64,7.8-1.32,1.32-4.8,4-10.56,7.92h-1.2c2,3.6,4.44,8.28,7.32,14.16,4.92,10.08,7.32,16,7.32,17.52l-.24,3.24-.6.36-1.32.72c-2.28-3-6.12-10-11.28-20.76-3.6-7.32-5.88-12.48-7-15.36l-5-.12-2.28,11c-3,13.2-5.52,22-7.44,26.28A11,11,0,0,1,172.92,349.56Zm-45.24-29.28,17.88-1.08.36-.6a1.89,1.89,0,0,1,1.56-.84l.24,1.2,2.16-.36a160.3,160.3,0,0,1,16-1.92l.84,1.2.24,2.52a6.18,6.18,0,0,1-.36,2.52l-1,1.08a64.19,64.19,0,0,0-10.8,1.68l-6.24,1.08.24,10.56q0,7.92-4.32,40.68c-2.76,21.48-4.68,33.6-5.64,36.36a2.84,2.84,0,0,1-1.44-1.68,7.75,7.75,0,0,1-.48-3.12L141,378a502.62,502.62,0,0,0,4-50.88l-2,.12h-7.56l-7.08-.48-.6-1-.24-2.28a16.16,16.16,0,0,1,.12-2.64Zm3-21.12c3.36,0,5.64-.48,7-1.56a7.15,7.15,0,0,1,3.84-1.68,6.58,6.58,0,0,1-2.88-3.48l-1.92-4.2c-1.68-2.52-4.92-3.48-9.72-2.76l-.36,12ZM126.6,278c2-.36,4.44.24,7.2,2a27.8,27.8,0,0,1,7.2,6.84,14.92,14.92,0,0,1,3.24,8.64c0,3.24-.12,5.16-.48,5.76-.84,1.56-3.24,3.36-7.32,5.16A67.77,67.77,0,0,1,125.88,305a59.06,59.06,0,0,1-4.68,17.64,4.05,4.05,0,0,1-1.08-2.28,19.34,19.34,0,0,1-.24-3.12c0-4.56.72-11.16,2.16-19.92l1.8-11.28-.24-.6a7.5,7.5,0,0,1-.24-2.16c0-2.16.48-3.6,1.56-4.44l.12-.6h.72ZM141,262.92c1.56,3.6,3.36,8.64,5.64,15.12q2-.72,10.44-6.12c5.4-3.48,8.28-5.28,8.52-5.28,1.32,0,4,2.16,7.8,6.36s6.12,6.36,7.2,6.36c.6,0,4.32-4.44,11.16-13.2,7.56-9.48,13.08-15.48,16.32-17.88l.72,1.08a7,7,0,0,1,.36,2.52c0,1.44-4.08,7.08-12.12,17-7.56,9.24-13.08,15.6-16.8,19.32l-6.72-7.8c-3.48-4-5.76-6-6.6-6-.6,0-4,1.92-10.08,5.88l-9.6,5.76c-.48,0-3.36-5.52-8.64-16.44s-7.92-16.56-7.92-17a9,9,0,0,1,.24-2.4l1.08-1.68Q136.86,253.38,141,262.92Zm-30-228-.84.48-1.32.6q-20.7-19.8-31-19.8c-21.24,0-35.28,8.64-42.12,26a60.65,60.65,0,0,0-4.08,28q0,28.08,15.6,70.2c6.36,16.92,17.76,44.76,34.44,83.52,15.36,37.8,26.88,72.36,34.44,103.92A554.62,554.62,0,0,1,131.76,459a302.07,302.07,0,0,1-1.92,35.76,325.81,325.81,0,0,1-7.2,36.84A174.52,174.52,0,0,1,117,549.84a75.19,75.19,0,0,1-10.08,18.24c-5.52,7.56-13.92,14.76-25.08,21.84Q64,601.44,52,601.44q-32.76,0-47-45.48a168.19,168.19,0,0,1-6.6-31.56L-3,509.64l.24-3.6A13,13,0,0,1,0,501.48c3.84,4.44,6,10.92,6.48,19.68l.48,11a43.51,43.51,0,0,0,2.28,11.52l2.28,9.48a55.13,55.13,0,0,0,5.28,13.68c6.72,11.64,17.76,17.4,33.24,17.4,7.08,0,16.56-3.24,28.2-9.84,11.16-6.36,19.44-12.72,24.6-19.32a60.79,60.79,0,0,0,9-16.2,93.28,93.28,0,0,0,4.8-16.32L122.52,491c2.28-13.56,3.36-24.24,3.36-32A516.35,516.35,0,0,0,110.4,334q-11-44.46-34.08-101.76L58.08,187.8c-6.72-16.68-12-30.48-15.84-41.28Q26.76,102.06,26.76,69.84C26.76,47.4,31.2,30.6,40,19.2a37,37,0,0,1,29-15,48.61,48.61,0,0,1,29,8.16c8.76,5.76,13.2,12,13.2,18.84Zm42.6-26c-1.8-.6-6-1.2-12.84-1.8l-9.36.6.72,8.64L132.84,27l3.84-.48c11.4-1.2,20.16-4,26.28-8.4A14.91,14.91,0,0,0,153.6,8.88ZM185.52,197.4,185,213.84V214l-.24.24,4-1.08a11.17,11.17,0,0,1,4-.84l19.68.24,1.92,2a5.93,5.93,0,0,1,.48,2.88l.36,2.4c-.12.84-.72,1.32-1.92,1.68l-26,1.08-3.72-.12-1.68-.24-.24-1.08a12.73,12.73,0,0,1-.24-2.52c-.84-8.52-1.32-15-1.44-19.2-.48-7.32.6-13,3.36-16.92C184.8,186.24,185.52,191.28,185.52,197.4Zm5.76-159.48c0,3-.84,8.52-2.64,16.56,6.6-.72,11.16-1.92,13.8-3.72a5.42,5.42,0,0,0,2.64-5,8.23,8.23,0,0,0-2.4-5.64c-2.4-2.52-6.24-3.72-11.4-3.6Zm-3.48-8.4h4.92c7.92,0,13.08,2.64,15.36,8,.84,2.16,1.32,5.64,1.32,10.56a15.55,15.55,0,0,1-2.64,9,13.42,13.42,0,0,1-5.52,4.8c2.64,3,5.88,7,9.72,12,7.8,10.32,11.76,16.44,11.76,18.48l-.24,4.44c-.12,0-.24.12-.6.48l-1.08,1Q215.94,93.42,205,77.76c-4.56-6.6-7.68-11.28-9.24-14l-5.16.36h-4.2L185,69.36c-4.2,16.56-7.32,25.8-9.12,27.84a5.75,5.75,0,0,1-1.08-2.52,12.08,12.08,0,0,1-.36-3.24c0-1.2,1.8-9.6,5.4-25.32l1.44-6.6a6.58,6.58,0,0,1,.84-3.72L187.08,35,187,33.6a9.06,9.06,0,0,1,.36-2.76Zm82.32,4.68c-4,20.28-6.48,35-7.32,44.52s-2.76,21.84-5.64,37.08l-7.08,36.84q-11,61-20,147.6L228.6,313l26.88-.36c8.76-.84,17.16-2.16,25.08-3.72l13.32-2.76,2.28-.24q-22-165.6-23.76-283.2Zm51,10.2q.36,5.94.36,12.24c0,6.6-1.56,25.08-4.68,55.56-3,29.64-5,46.44-5.88,50.4a11.7,11.7,0,0,1-2-5.4,31.23,31.23,0,0,1-.36-4.32l4.44-46.8c3-31.8,4.44-51.24,4.44-58.32A51.1,51.1,0,0,0,316.32,41a45.64,45.64,0,0,1-1.08-6.72,7.92,7.92,0,0,1,.72-3.24,4.46,4.46,0,0,1,2.52-2.4C319.8,31.2,320.64,36.48,321.12,44.4Zm42,343.44c0,15.6-.84,33.72-2.52,54.24l2,.24,6.24-.84a8.54,8.54,0,0,1,2.4-4.08l1.2,3c4.92-2,9.36-5.76,13.2-11.16a53,53,0,0,0,5.28-9.6,20.09,20.09,0,0,0,1.68-5.76,36.69,36.69,0,0,0-5.52-19c-5.4-9-13.44-13.44-24-13.08Zm-4.8-16a7.6,7.6,0,0,1,3.48,3.24q18.72-4.5,27.72,14a54.66,54.66,0,0,1,5.88,24.72,37.49,37.49,0,0,1-1.32,7.68,52.53,52.53,0,0,1-4.68,12.6c-3.72,7.32-8.4,12.24-14.16,14.88q7.92,26.64,16.32,84.84l-.24,5.28-.84.48-1.32.6c-3.24-11.16-7.56-30.36-13-57.48q-4.5-22.14-6.12-32l-5.28.48-4.92-.6L358.44,465c-3.48,33.24-7.32,56.76-11.76,70.68a2.75,2.75,0,0,1-1.44-1.8,7.4,7.4,0,0,1-.48-3.12c2.16-15.72,4.32-33.48,6.6-53.28q6.66-59.4,6.6-101.76a19.91,19.91,0,0,1,.24-2.88ZM400.44,250.8a4.91,4.91,0,0,1,.36,2.28q0,2-29.76,51l-1.44,2.16.84,1.92-.24,3.72-1.08,1.32-2-2.64q-30.6,50.22-40.2,69.24a10,10,0,0,1-2.16-1.56,5.4,5.4,0,0,1-.48-2.76q0-3.78,28.56-52.2l10.56-17.76q-7.74-10.62-19.44-28.8c-10.8-16.68-16.2-25.44-16.2-26.52,0-2.28.48-3.6,1.32-4.08,5.4,6,13.8,17.76,25.2,35.4l12.12,19.08c13.8-22.56,24.84-39.48,33.36-50.76Zm25.44-65.4a119.12,119.12,0,0,0-1.8,18.6c0,1.32.24,4.8.72,10.32l1.68,14.4v64.2l.24,18.6c0,16-.24,32.16-.84,48.72l1-.36a58.29,58.29,0,0,1,12.84-3.6,34.17,34.17,0,0,1,12.6-.12c4,.84,5.88,2.52,5.88,5a7.32,7.32,0,0,1-3.6,6.72q-6.66,4-27,4l-2-.12c-.72,18.36-1.8,37.2-3.24,56.28l-4.44,56.88c-2,25.44-3.6,48.6-4.92,69.36v25.2l.84.84a40.05,40.05,0,0,0,9.36-14,111.75,111.75,0,0,0,4.08-14.76,64.29,64.29,0,0,1,4.32-14.28,30.43,30.43,0,0,1,10.32-12.12c-2,4.44-4,11-6,19.8l-4.68,22.92c-1.92,8.52-3.84,14.88-5.88,19-2.64,5.16-5.88,7.8-9.6,7.8-4.56,0-7.32-4.44-8.16-13.2a57.45,57.45,0,0,1-.24-9.24l.24-4.56c0-10.92.72-26,2.28-45.6l5-61.92q7.38-95.94,7.32-196.56l-1.08-22.92L420,217.68c0-15.24.36-25.92,1.2-32.16,1.56-12.6,5.16-22.56,10.68-29.64l6.72.24a39.53,39.53,0,0,1,10,13.44,34.47,34.47,0,0,1,2.52,13.2l-.12,4.8a21.08,21.08,0,0,1-2.88,6.24A9.24,9.24,0,0,1,446.4,188a37.06,37.06,0,0,0,.6-5.28,39.85,39.85,0,0,0-2.4-7.92c-2-5.28-4.44-7.92-7.08-7.92C432.12,166.92,428.28,173,425.88,185.4ZM404,156.84l.24,2.76q0,3.6-18.72,43.56-17.28,36.54-25.92,52.92c-3.72-10.68-8.4-29.52-13.8-56.52-4.92-24.24-7.32-38-7.32-41.52a5.93,5.93,0,0,1,.48-2.88c.36-.6.72-1,1.2-1a363,363,0,0,1,11.4,44.64q3.06,14.94,8.28,45.36c4.44-8.28,11.52-23.4,21.24-45.12,8.64-19.56,16-34.32,21.84-44.28A6.78,6.78,0,0,1,404,156.84ZM400.92,31.92a12.08,12.08,0,0,1,.36,3.24c0,10.2-3.6,26.88-10.68,49.8l-8.28,25.92a210.21,210.21,0,0,0-5.64,20.64c-4.44-10.92-7.56-25.08-9.6-42.48l-2.28-22c-1-8.76-1.92-16.2-3-22.2-5.16,17.28-9.12,30.48-12.12,39.72-5.28,16.56-10.92,30.12-16.8,40.68l-.36-1.08a13.14,13.14,0,0,1-.24-2.64c0-2.28,3.72-15.48,11.28-39.48q11.7-36.9,18-52.56c4.32,10.56,7.56,24.84,9.84,42.84l2.52,21.84c1.08,8.4,2.28,15.48,3.6,21.36h.24c1.8-9.48,5.64-24.24,11.28-44.4s9.24-34,10.68-41.64ZM452.76,48.6l-1.08,2-6.24-5.28c-4-3-7.8-4.44-11.4-4.44-10.44,0-17.64,7.92-21.84,23.76A111.06,111.06,0,0,0,409.56,79c.36-1.92,2.52-3.6,6.24-4.92a55.83,55.83,0,0,1,13.92-2.76,64.65,64.65,0,0,1,13.92.36c4.2.6,6.36,1.56,6.36,3a5.12,5.12,0,0,1-3,4.92c-1.56.84-4.32,1.44-8.16,1.8l-12.48,1a129.86,129.86,0,0,0-15.6,2.4l-1.08-2a15,15,0,0,1-.24-2.88,104.67,104.67,0,0,0-.6,10.8c0,7,.6,12.12,1.92,15.48,3.48,9,10.8,13.56,22,13.56a22.56,22.56,0,0,0,12.6-3.84,52,52,0,0,0,6.36-4.8l1.2,2a8.06,8.06,0,0,1,.36,2.76c0,2.4-1.8,5.52-5.4,9.24-3.84,4-7.32,5.88-10.56,5.88-16.08,0-26.28-6.36-30.6-19.2a43,43,0,0,1-1.92-13.56l.36-7.08c0-16.2,2.52-29.4,7.44-39.6,4.2-8.52,9.72-14.16,16.56-17.16,5.88-2.52,11.4-2.52,16.44-.12S453,40.56,453,45.72ZM561.24,77.16c4.92,10.92,9.24,25.68,13.2,44.28,4.68,22.08,8,36.36,10.2,42.84q7.38,38,10.68,85.92,2.52,38.7,2.52,86.76c0,4.44-.6,22.08-1.92,52.8,0,15.48-2.4,33.6-7.32,54.24-5.16,21.24-11.28,38.4-18.36,51.36l-14.52,26.16A121.8,121.8,0,0,1,533.64,548a315,315,0,0,1-41.16,29.64c-19.08,11.64-33.72,17.88-43.68,19l-.12.72-.72-.6h-2c-5.64,0-9.24-1.8-10.8-5.28a10.39,10.39,0,0,1-.72-3.84l.24-1.92c0-.12,2.76-1,8.4-2.52l2.4-.6c.36-5.4,1.2-13.8,2.52-25.32l6.36-55.44q9.18-84.24,9.24-129.48c0-6.12-.72-26.64-2-61.44s-2-56.64-2-65.16c0-12.24.36-21.36,1.08-27.24v-46.2q3.6-55.44,4.56-90.84V33.6l1.56-16.44c.6-7.08,1.8-12.24,3.36-15.48l.6,1.68.72-1.44q37.26,13.5,60.12,33.84A119.45,119.45,0,0,1,561.24,77.16ZM543.72,63.6a89.57,89.57,0,0,0-19.08-21.12c-1.2-1.08-4.92-3-11.28-5.88l-18.6-8.88c-11.64-5.76-19.2-10.8-22.68-15l.12,3.84L471.6,26,470,39V82l.24,16.68A732.81,732.81,0,0,1,466,177v47.76c-.72,4.32-1.08,11.28-1.08,21,0,14,.84,35.16,2.4,63.36s2.16,49.32,2.16,63.36q0,47.16-6.72,114.24Q458,532.62,451.08,581c4.92-1.56,9.84-3.36,14.64-5.4,25.68-10.44,50-27,73.08-49.44,8-7.8,15.24-18.12,21.72-30.84,2.28-4.44,4.8-10,7.8-16.56l7.08-16c4.92-10.44,9-30.36,12.48-59.76,3-25.56,4.56-47.76,4.56-66.48q0-88.74-13.8-168.24Q570,116.7,555.12,84.72A155.93,155.93,0,0,0,543.72,63.6Zm30.12-47.16.24,2.64.24,3.24c-.12.84-.72,1.2-1.92,1.2l-9.48-1-12.84-1.68c.12.84,1.32,2.28,3.84,4.32a16.27,16.27,0,0,0,10.92,4.08c7.8,0,13.92-.48,18.24-1.56a16.06,16.06,0,0,0,5-1.44h1c.24.12.36.84.36,1.92-1.92,4.8-3.12,7.44-3.72,8a37.92,37.92,0,0,1-7.92,1.32q-22.86,0-28.8-7.2a8.37,8.37,0,0,1-1.92-5.52l.36-3.48c0-8.28,1.68-14.16,5.16-17.52,5.76-5.64,16.2-5,31.2,1.8-3.24,2.16-5.88,3.36-8,3.6a11.3,11.3,0,0,1-4.8-1,10.93,10.93,0,0,0-4.8-.84c-2.28.24-5,1.44-8.4,3.6l-3,2.52,18,1.08ZM274.44-.36l1,2a12.08,12.08,0,0,1,.36,3.24l-.6,3.36q4.32,48.42,10.44,136.08,7,89.1,15.6,148.56,3.42,24.48,26.16,168.24,18.72,119,18.72,127.68a25.58,25.58,0,0,1-2.4,11.76c-2.16-1.32-3.36-4-3.6-8-.24-4.68-1.2-7.92-2.88-9.84,0-.36.12-.6.48-.6l1.08.36.24.12.12-1.56q0-4.32-10.56-65.28-13.86-81.18-22.92-142.44c-2.76-18.72-5.28-37-7.8-54.84l-1.8,2A68.25,68.25,0,0,0,279.6,324q-5.22,2-23,3.24L227,327q-7.38,65.52-16.56,121-13.14,80.1-30.84,146.88a10,10,0,0,1-3.72-7.08q0-6.66,12-66.36l16.68-81.6q6.48-32.58,12-73.32c2.64-19.8,5.52-44.52,8.76-74.4,3.48-32,6.24-56.52,8.52-73.44q5.22-41.58,11.52-74.16,2.7-13.86,5.76-36.36l5.16-37.2q6.3-40.68,16-66.84V2.28a20.38,20.38,0,0,1,.24-3.36,4.23,4.23,0,0,1,1.56-2.16ZM128.52-1.44l1.68-1,.12.72a90,90,0,0,1,11.52,0c10.2.36,17.4,3.12,21.6,8.52,2.52,3.24,3.84,7.44,3.84,12.6,0,4.32-2.4,8.16-7.08,11.4-6.12,4.2-15.48,6.48-27.84,6.72l-1.8,15.84-2.28,20.52-.6.48c5.28-1.08,11-2.64,17.4-4.56,3-1,8-2.88,15.12-5.88,5.64-1.68,8.4-.36,8.4,4.08,0,1.56-5.76,4.8-17.28,9.84l-7,2.88c.24,3.24.36,7,.36,11.28,0,5.28-1.08,21.48-3.12,48.48-2.16,28.2-3.84,45.6-4.92,52a4.38,4.38,0,0,1-2.88-2.76,9,9,0,0,1-.72-3.72c0-12.12,1.32-32.52,4.08-61.2,1.8-18.84,3.36-33.24,4.68-43C134.16,84.6,128,86,123.36,86l-17.88-.24a11.53,11.53,0,0,1-1.56-2.4,9.34,9.34,0,0,1-.6-3.36c0-1.92.24-3,.84-3.24l4.92-.24a87,87,0,0,0,17.16-1.92c-1-1.68-1.44-4.2-1.44-7.68l1.08-29.4-1.68-.24-.36-1.92a21.27,21.27,0,0,1-.12-2.88,4.33,4.33,0,0,1,2.52-4.08L127,8.28l-.84.12-.84-1.8L125,3.84V1.08a2.38,2.38,0,0,1,1.44-1.92Z" transform="translate(3 3.24)"/></g></svg>