<svg id="Layer_1" data-name="Layer 1" xmlns="http://www.w3.org/2000/svg" viewBox="0 0 302.29 211.08"><defs><style>.cls-1{fill-rule:evenodd;}</style></defs><path class="cls-1" d="M320.28,225.72v.72l-.24,1.68-.24.84c-.6,1.2-1.08,1.32-1.68.24a3.65,3.65,0,0,0-1.56-1.44,11.86,11.86,0,0,1-4.56-4.2,71.2,71.2,0,0,0-6.72-3.48c-4-1.8-7.68-3.6-11.4-5.52-22.56-.12-36.12,11-40.68,33.72-2.76,13.08-4.8,26.4-6.36,39.84a224.14,224.14,0,0,1,37.8-5.4l3.72.6a1.39,1.39,0,0,1,.84.6,12.5,12.5,0,0,1,1.44,9.72,6.53,6.53,0,0,1-1.92,3.12A158.36,158.36,0,0,1,245.64,299c-2.28,25.32,1.56,49.08,11.76,71.52,2.4,5.4,6.48,8,12.12,7.92A39.51,39.51,0,0,0,298,365.88c4.44-4.68,8.52-9.12,12.12-13.56,4,16-2.76,28.56-20.16,37.56-20.52,10.68-34.08,5.4-40.92-16.08a201.15,201.15,0,0,1-9-77.64,231.46,231.46,0,0,1,19.92-78.24c3.84-8.52,10-14.16,18.24-16.92,19.68-1.08,33.6,6.84,41.88,23.88ZM178.92,212.28l-.84.72c-5.16,15.48-1.44,29.4,11.16,42q37.8,37.62,38.28,91.8A74,74,0,0,1,222,376.08c-9.48,22.92-26.76,30.24-51.84,21.72-7.44-2.52-12.48-7.68-15.24-15.48a99,99,0,0,1-3.36-54.12c4,6.84,6.12,15.72,6.48,26.52a46.51,46.51,0,0,0,9.48,26.76q37.44,14.4,49.56-19.56a59.91,59.91,0,0,0,2.76-28.8,121.2,121.2,0,0,0-13.08-40.44,116.24,116.24,0,0,0-18.48-25.8q-29.7-31.14-9.84-66a12.39,12.39,0,0,1,6.6-5.76q33.84,1.08,35.64,32.76l-.48.48c-7.92-14.28-20.28-20.76-37-19.44l-1.2,1A8.72,8.72,0,0,1,178.92,212.28Zm237.24-17.76q1.08,46.8.48,94.32a80.09,80.09,0,0,1,26.16-5.4q1.44-41.94,5.28-82.92c.24-2.4,1.44-3.6,3.48-3.48L449,285.24c2.76,3.48,2.88,7.68.12,12.84l-.6.6-.84,26.64a678.66,678.66,0,0,1-7.56,80.28c-4.8-8.52-6.24-19-4.44-31.56a668.43,668.43,0,0,0,6.6-74.64l-25.92,2.16-.48,21.24a642.63,642.63,0,0,1-7.08,79.56q-2.7.72-3.24-2.16c.84-42.84,1.92-85.56,3.24-128.4.84-23.16,1.68-46.08,2.76-69C411.84,198.84,413.4,196.08,416.16,194.52Zm-54.72,3.84c15.72-1,25.92,5.4,30.72,19.2l-.12.84c-11.28-6.72-23.4-8.16-36.48-4.32q-6.3,36.72,14.52,69.84a158.27,158.27,0,0,1,20.4,50.76A105.84,105.84,0,0,1,392,370.56c-2.76,21.84-15,31.56-36.48,29.28q-35.28-13-39.36-50a45.82,45.82,0,0,1,1.68-18.6,3.13,3.13,0,0,1,1.32-.36,5.36,5.36,0,0,1,3.36,1.08c-2,20.88,5.88,36.48,24,46.92q25,14.58,37.32-8.64A31.68,31.68,0,0,0,387,348a215,215,0,0,0-22.68-60.24,142.63,142.63,0,0,1-17.88-56.28c-1.2-13.08,2.76-23.4,12-30.84Z" transform="translate(-149.27 -194.52)"/></svg>