<svg id="Layer_1" data-name="Layer 1" xmlns="http://www.w3.org/2000/svg" viewBox="0 0 455.65 572.28"><defs><style>.cls-1{fill-rule:evenodd;}</style></defs><path class="cls-1" d="M435.72,523.08l-21.12,3,13-22.44ZM428,490.8a168.31,168.31,0,0,0-27,33.72,207.64,207.64,0,0,0-22.44,51.36c-.48,1.68.24,3.12,2,4.2l26-40.8,34.56-3L461,582.6a22.31,22.31,0,0,0,1.68-17.52,208.09,208.09,0,0,0-14.28-35.4l-18.24-37.2ZM250,421.8q6.12,29.34-11.88,53c-2.52,3.24-5.4,3.6-8.88,1.08A486,486,0,0,1,221,412.08a123.94,123.94,0,0,0,2.88,66.84,65.28,65.28,0,0,0,3.84,9.48h10.8A68.51,68.51,0,0,0,257.64,450a67.19,67.19,0,0,0-5.52-38.76l-4.32,8.16ZM181.32,427l.48,1.68c21.24,9,26.52,24.72,15.84,46.92L186.12,466l-7.56,1.56V474c6.24.36,10.92,3.12,13.92,8.52l-2.88,3.72q-38.34-3.42-27.48-44.64c2.28-8.88,7.68-15.6,16.2-20C180.12,421.44,181.08,423.24,181.32,427Zm-3.84-14.64c-13.2,7.92-21.24,19.56-24.24,35-3.24,16.8,1.08,30.72,12.72,41.76,9.72,9.24,19.8,10.2,30.24,2.64a23.45,23.45,0,0,0,10.92,11.4,25.71,25.71,0,0,0,12,2.52,7.83,7.83,0,0,0,1.92-2.52,16.72,16.72,0,0,0,1.08-4.56,9.87,9.87,0,0,0-.72-4.56l-7.92.84-7.32-3.24-3.72-8.88q10.8-26.46-1-51.84a51.67,51.67,0,0,0-7.2-11.52l-4.92-1-3-4.44-3.48-1.2Zm-5.76-6.48,35.76-.24a10,10,0,0,0,.24-9.72A174.25,174.25,0,0,0,176.4,394v-.72a533.13,533.13,0,0,0-.84-77.16c-2.28,2.52-3.36,5.88-3.36,10.32C172.56,353.16,172.44,379.56,171.72,405.84ZM128.52,50.4l2.76,9.72a1.71,1.71,0,0,0,2.64,1.32,24.89,24.89,0,0,0,.36-13.92Q123.66,6.12,77.88,10.8,42.42,27.18,40.2,67.2a123.88,123.88,0,0,0,10.56,57.6c10,22.2,20.76,44.16,32.16,65.64a517.62,517.62,0,0,1,46.56,121.2,365.33,365.33,0,0,1,9.72,114.24A301.49,301.49,0,0,1,120.48,512a75.83,75.83,0,0,1-31,38.16Q49.2,575.94,22.68,538.68a27.46,27.46,0,0,0-2-7.44,56,56,0,0,1-4-15.24l-.48-3.24,2.16-1.32.6-.36-3.36-1.56c-.12-.12-.12-.24-.12-.6a66.92,66.92,0,0,0-1.08-9.72,8,8,0,0,0-3.24-5.4,1.73,1.73,0,0,0-.84-.24c-4.2,17.88-2.4,35.76,5.64,53.64q17.28,39.06,59.76,30.24c15.48-5.88,27.48-15.6,36-29.28a223.67,223.67,0,0,0,32.88-92.52,441.22,441.22,0,0,0-2.52-124.44A451.46,451.46,0,0,0,107.4,216.6c-4.2-9.36-8.88-18.6-14-27.6a809.1,809.1,0,0,1-42.72-87.6c-9.48-22.92-6.12-43.56,10.08-61.68Q81.06,17,112.2,30l5.16,4.2,5.16,5.4,1.32,1A37.08,37.08,0,0,1,128.52,50.4Zm85.2,160.68c.24-22.56-.12-45.12-1.08-67.56a26.31,26.31,0,0,1,18.48,9.24,23.1,23.1,0,0,1,5.88,12C240.72,187,233,202.32,213.72,211.08Zm-36.24-1.92q-24.3,20.16-27.12,52.8a61.25,61.25,0,0,0,4,27.84,46.84,46.84,0,0,0,8.52,14l2.76.6,1.56,1.56,7.32,1.56a24.13,24.13,0,0,0,14-5.4,5.16,5.16,0,0,0,2.28-4.44,6.24,6.24,0,0,0-.6-3.24l-.84-1.56a29.65,29.65,0,0,1-22.32-3c-5.64-3.24-9.12-8.52-10.2-15.84-4.2-27.48,5.52-45.84,29.28-54.84l1.92,1.08L190,223a1.85,1.85,0,0,0,1.68-1.2,9.85,9.85,0,0,0,.36-5.28,14,14,0,0,0-1.92-4.32l-.6-.6Zm53.88-65.52a31.11,31.11,0,0,0-19-7.56c-4.32,11.16-6,24.72-5,40.92.84,14.52,1.08,29,.6,43.44l-.6,24.24a326.28,326.28,0,0,1-4.08,47.16,20.67,20.67,0,0,0,4,15.84,354.78,354.78,0,0,0,6-64.8l.36-21.36,12-5a472.06,472.06,0,0,0,18.12,84.6c1.32,4.56,3.12,5.88,5.28,4a514.7,514.7,0,0,0-15.12-68l-6.48-21.84A45.38,45.38,0,0,0,240.84,194a61.67,61.67,0,0,0,2-26.88l-1.2-6.72A29.47,29.47,0,0,0,231.36,143.64ZM207.84,16l-32.76,61.2L172.32,16a232.76,232.76,0,0,0-2.16,40.92,246.22,246.22,0,0,1-1.92,42,58.94,58.94,0,0,0,.48,18.36,33.92,33.92,0,0,0,3,9.12l3.12-37,13.44-20.76A190.33,190.33,0,0,0,202.8,130.8l.12-.24A247.92,247.92,0,0,0,192.36,73.8l-2.52-8a128.71,128.71,0,0,0,16.68-40.32A48.42,48.42,0,0,0,207.84,16Zm74,4.08q-3.78,63.9-6.24,128.16c-.48,10.8-1.32,21.6-2.4,32.4-1.32,12.12.12,22.8,4.32,31.8a6.08,6.08,0,0,0,2.4-4.8l3.72-63.36q3.6-64.8,1.44-128.28C283.08,16.2,282,17.52,281.88,20ZM359.64,223.2c-7.32-10-17.52-14.16-30.6-12.36A34.61,34.61,0,0,0,313.2,219c-20.52,18.36-32,42-34.32,70.68a1185.84,1185.84,0,0,0-3,129.24c1,31.32,1.2,62.76.6,94.08q-.72,38.88,26.52,63.36,41,6.48,64.8-26.16c7.56-10.44,7.92-19.32,1.2-26.88l-.72.84a14.5,14.5,0,0,0-2.4,3.6l-.6.6-1.68.6h-.24l-1.2-.84-1.56,1.44a12.75,12.75,0,0,0,2.52,3.72c-13.2,22-33.12,30.72-59.88,26.52A31.14,31.14,0,0,1,289.32,537a1272,1272,0,0,1-9.12-129L280,391.92c13.44.36,27.48.24,42-.36l.72-1q3.78-7.2-.72-13.68a106.2,106.2,0,0,0-41.88,4.92,752.48,752.48,0,0,1,8-100.44,78.15,78.15,0,0,1,17.76-39.48q24.48-29.16,53.64-7.32a4.39,4.39,0,0,0,2-3.24,22,22,0,0,0-.36-5.64l-.36-.84-.48-.84ZM409.8,214Q384.6,231.6,378,263.88a644.37,644.37,0,0,0-12.6,127.68L365,407.64c-1.08,28.44,6.12,53.64,21.36,75.6,16.44,6.6,31.8,4.8,46-5.28,12.36-8.76,16.68-19.2,13-31.2l-2,.48-1.2.6c-10,17.16-25.08,25-45.6,23.16-5.4-.36-9-3.12-10.92-8.16q-18.18-48.42-14.88-102l.12-1.32a70.13,70.13,0,0,0,29.64,2.76l.48-.84a12.14,12.14,0,0,0-1.08-12.12,179.05,179.05,0,0,0-28.44,1.8A449,449,0,0,1,392.16,248a29.75,29.75,0,0,1,17.52-19.2c14.16-5.88,27-4.44,38.4,4.44a5.69,5.69,0,0,0,.36-4c-3.48-14.88-14.4-21-32.88-18.48A34,34,0,0,0,409.8,214Z" transform="translate(-8.13 -10.32)"/></svg>