<svg id="Layer_1" data-name="Layer 1" xmlns="http://www.w3.org/2000/svg" xmlns:xlink="http://www.w3.org/1999/xlink" viewBox="0 0 597.01 593.84"><defs><style>.cls-1{fill:none;}.cls-2{clip-path:url(#clip-path);}.cls-3{fill-rule:evenodd;}</style><clipPath id="clip-path" transform="translate(0.08 1.68)"><rect class="cls-1" width="595.32" height="594.36"/></clipPath></defs><g class="cls-2"><path class="cls-3" d="M391.2,578.52l-5.52.12,1.44-1.44,9.6-1.8c-10.68-6.84-15.36-2.52-14.28,12.84l.36,1.32c7,3.72,13.08,3.48,18.24-1a41.39,41.39,0,0,0-16.68-4.8c1.92.12,4.92-.48,9-2Zm-21.72-89.16L375.72,528l-15.48,1.44,8.28-38.88Zm3.84-56.4a34.54,34.54,0,0,0-15.48,23.76l-1.92-.24-.36,4,1.68,1.44c-1.08,17.64,6.24,23.4,21.72,17a15.31,15.31,0,0,0,5.88-4.08l-.12-3.84L364,475.68a15.74,15.74,0,0,1-3.48-12.6,33.46,33.46,0,0,0,21.12,0l-2.4-7.44-18,1.32,4.56-13.08,9.24-4.56,4.44,1.2.84-4.08Zm70.56,89.52-.36,67.44a113.2,113.2,0,0,1,44-8.4,8.67,8.67,0,0,0,.72-9.84q-22.32-1.62-41,5.76l.12-.72a246.38,246.38,0,0,0-.6-60.24C445,517.68,444,519.72,443.88,522.48ZM168.6,535.2l1.08,2.64,2.64.72,2.88,6.6-6.48-1.56,3.12,5.52-2.4.72-5.28-3.36-1.8-5.88c.84-3.12,2.64-5,5.52-5.64Zm-1.44-84.6.48-2.76a22.5,22.5,0,0,0-19.8.24l-.36,2.64,9,.48c-2.28,6.84-2.28,13-.24,18.6l1.92-18.6,6.84.48Zm181,119.88,10.92-36,17.64-.24a139.12,139.12,0,0,0,4.2,18.6,115.62,115.62,0,0,0,6.24,16.2c-2.28-17.64-5.28-35.28-9.24-52.68q-3.6-16-8.28-30.6c-2.52-1-4.32,1.08-5.4,6q-7.38,34.56-15.84,69.12A23.54,23.54,0,0,0,348.12,570.48Zm-171-22.92c1.56-9.24-2.4-14.88-12.12-16.92q-7.38,9.18-2.16,20.52l8.4,3.72,4-2.4,7.44,2Zm57.6,5.52a45.38,45.38,0,0,0-25.92.84l-.48,2.88,13.08,1.56a80.31,80.31,0,0,0-.36,31.2l1.68-31.32,11.4-1.32ZM195,533c0,7.8-2.16,14.28-6.36,19.68-3.36-5.64-4.44-12.24-3.12-19.92-2.76,6.6-3,13.56-.48,21.12l1,2.76,3.48,1.44c5.88-6.6,7.92-14.4,6-23.52Zm-2.4-17.16,2.64-2.76.84,4.08,4.2,5.76,7.32-9.36,6.6,9.36-6.84-16.2L200.28,517l-4.2-10.44-6.6,13.92Zm0-23-7.2,3-1-4.8,6.84.48Zm.72-4.68-8.64-.12-.84-2-2,2V513.6L183.72,500a9.48,9.48,0,0,0,10.2-3.84l1.08-1.56ZM178.44,429.6a42.94,42.94,0,0,0-4.92,11.28,20.36,20.36,0,0,0-.72,7.44l5.28-11.64,5.88,16.2,8.64-22.8-1-2-7.44,19.2Zm90-32.64.72.36a33.2,33.2,0,0,1-3,21.84l-.48.48a46.42,46.42,0,0,1,0-23.64c.12-.6.48-.72,1.08-.6A2,2,0,0,0,268.44,397Zm79.44-44.52-2.76,1.92,1.68-5.28Zm-38.64,16.92-.84.84a3.57,3.57,0,0,1-2.16,1l-3-1.08-2.52-1a16.35,16.35,0,0,0-6.36,10.32l14.76-.36a5.18,5.18,0,0,1,.72,5.28l-.36.6a35.89,35.89,0,0,1-15.6-.24c3.36,10.68,10.68,13.92,21.84,9.6a3,3,0,0,1,.84,2.64l-.84,2.64-3.12,1.2.36.24h-1.08c-10.8,3.24-17.4-1.56-19.68-14.28l-.24-2.64-.72-.24a6.41,6.41,0,0,1-.24-2.64l.24-.72.48-.12A23.43,23.43,0,0,1,300,363.6l2,.24,6.36,4.56A1.37,1.37,0,0,1,309.24,369.36ZM342,344.16l-.48-.12C340.8,345.6,340.92,345.6,342,344.16Zm-134.52,37.2-5.16,10.44-14.4-11.28c-4.44,5.28-5.52,11.52-3.48,18.6l4.92-11.64a23.37,23.37,0,0,0,14,10.68C208.08,392.52,209.4,387,207.48,381.36Zm-15.6-102.84a2.33,2.33,0,0,1,0,4.08,6.12,6.12,0,0,1-5.76,0,2.33,2.33,0,0,1,0-4.08,6.12,6.12,0,0,1,5.76,0Zm.72-55.44a29.15,29.15,0,0,0-2.88,18.72l15.48,1.8.6-3.6-13.32-4.32ZM169.68,408.84l-3.48,10L161,419.88l-1.32,1.32.24-12a42.46,42.46,0,0,0-2.64,26.52l1.68-9.84,7.32-2.16,1.8,11.52,2.16-24.48ZM145,414.24c-.12.72.12,1.08.84,1.08l-.24,5.16-1.44.48v3.36l1.44,1.2,1.32,9.6.6-10c5.4-2.52,8.4-6.48,8.76-11.88l-3.36-4.08-2.88-.12Zm7.8,0-5.4,5.4L147,415.2Zm17.52-48.6,27.48-4V358a33.84,33.84,0,0,0-16-.24L176,358.8l-2.88.6V327.24Zm-5-5.4a16.19,16.19,0,0,1-4.32,11.88l-2.16,2-3.48-7.44.24-6c-3,6.6-2.28,13.08,2.28,19.2l.6.36c4.56-2.28,7.08-6.36,7.56-12A22.65,22.65,0,0,0,165.24,360.24Zm-25.56,5.4.6-2.52c3.24,3.12,3.72,6.72,1.68,10.68l-3.84-1-1.2,2.88,1.56,2h-4.56l-3.36-6.6,4.32-7.2Zm-.36-8.16-1.2,1.32-5,.6c-7.32,10.68-5.64,18.72,5.28,24l3.6-3.24,7.08,1.08-3.24-5.52c1.44-6.48-.12-12.6-4.56-18.36ZM167,275.16l-5.28,3.12L160,289.44c4.8,4.44,10.2,5.4,16.08,2.88l1.08-2.52a15.82,15.82,0,0,0-.24,6.72l5.88-8.28,6-.36a135.05,135.05,0,0,1,12.72,9c.72.6,1.44.72,2,.12-1.32-5.64-4.8-9.6-10.44-12.12l2.76-7.56-3.24-3.72a7.87,7.87,0,0,0-7.92,2.88l-.84,1.32.72,1.32-4.08,3.72a20.39,20.39,0,0,0-3.24,6.72c-3.24-1.92-7-2.16-11.28-.72l-4.2-3.6,4.56-5.52,5.16.48Zm-35.76,20.28,8.64-.36-1.08,17.16,3.84-16,7.92,1c.12-3-1.68-5.16-5.64-6.24a21.67,21.67,0,0,0-13.8.6l-.24,2.52Zm40.08-62.28c-2.28,4.68-5.76,7.08-10.32,7.08l.6-14.88a11.33,11.33,0,0,0,6.24.84,8.67,8.67,0,0,1,3,3.6A6.4,6.4,0,0,1,171.36,233.16Zm-11.52-10.44,1,2.16-2.28,38.88,2.16-19.08c12.12-1.8,15.84-8.76,11-20.76-3.36-3.48-7.2-4.08-11.52-1.56Zm-9.84-58,3.12,3.72c1.32-3.72.36-7.2-3-10.44-12.24.36-19.44,8-21.72,23.16a49.45,49.45,0,0,0,7.8,36L139,221c9.72,2.52,15.6-.72,17.88-9.48l-.24-1c-9,6.48-15.36,5-19.32-4.32-5.88-14.28-4.44-28,4.56-41ZM148.44,68.4l-7.2-1.32c-6.72,5.76-7.56,12.6-2.4,20.52l1,1.32,5.76,1.32,8.52-7.32-3.6-1.56c-1.56,1-3.12,1.8-4.68,2.64l-4.8-.6a7.43,7.43,0,0,1-1.56-9L150,73.08Zm-27-22.92a98.2,98.2,0,0,0,6.24,13.44c.6,1.08,1.2,1.32,2,.72a44.7,44.7,0,0,0-3.24-15.48c-10.8-27.24-31.8-39.84-63-37.56A42.35,42.35,0,0,0,42.24,21.24c-20.64,27-28.68,57.12-24,90.6a80.56,80.56,0,0,0,7.2,24.6A750.28,750.28,0,0,1,64.08,238.92c4.92,16.68,10.44,33.36,16.56,49.8,11.88,32.52,22.56,65.52,31.8,99a433.74,433.74,0,0,1,15.12,96.12q2.34,55.62-45.24,85.08c-11.4,7.08-22.92,7.92-34.68,2.52Q19.92,558.66,11.88,528.6l-1.8-8.4a391.84,391.84,0,0,1-5.52-56.64l-.84-.72-.48-.48-.24-.6-.24-.6H2.4A81.61,81.61,0,0,0,.48,473a183.14,183.14,0,0,0,5,59.52q9.9,39.42,46.32,55.68a10.42,10.42,0,0,0,4.92.84c27.48-2.52,48.48-16.32,62.76-41.16A61.6,61.6,0,0,0,127,528.36a265,265,0,0,0,.72-101,609.48,609.48,0,0,0-27-98.4q-13.5-36.72-23.76-74.64A496.78,496.78,0,0,0,38.76,156.6,142.82,142.82,0,0,1,22.68,99Q20.34,63.9,40.32,34A30.87,30.87,0,0,1,56.88,21.24c25.56-8.76,46.32-2.88,62.28,17.4ZM161,48.6,159.72,58a.71.71,0,0,0-.6.24l-.48.84.12,11.16,2.64-7.44,8.76-3.12-1.68-11L164,47.16Zm3.12,3.24,2.64,1.32a1.26,1.26,0,0,1,.6,1.08,13.23,13.23,0,0,1-5.52,3.24v-5.4h.48ZM321.24,208.08H318.6A55.6,55.6,0,0,0,304,241c-1.32,11.52-2.88,22.8-4.92,34a104.64,104.64,0,0,0-.12,37.68,70.09,70.09,0,0,0,14.52,32.16l3,3.6c8.4.72,15.48-2.28,21.12-8.88a19.12,19.12,0,0,0,4.44-10.2,14.32,14.32,0,0,0-1.32-8,47.85,47.85,0,0,0-7.56,9.36,12.77,12.77,0,0,1-4.2,4.2,20.44,20.44,0,0,1-10.32,2.76h-1.8c-8.76-9-13-20.16-12.72-33.48l.48-26.16,25.56-.84.12-8.16-25.32.6a93.68,93.68,0,0,1,11.76-48c1.8-3.36,4.56-4.44,8.4-3.24a121.44,121.44,0,0,1,17.76,7.56l3.48,1.68a23.79,23.79,0,0,0-10.2-14.64A27.41,27.41,0,0,0,321.24,208.08Zm-10.2-64a222.84,222.84,0,0,0-5.76-22.2l-5.88-18.84,6.72,37.44-13-1.92,4.08-35.4-13.08,69.48,7.92-29,15.6,3.24,9.12,29.88a60.92,60.92,0,0,0-2.16-17C313.32,154.56,312.12,149.28,311,144.12ZM187,205.44l-3.48,22.32L186.72,216l6.6-1.08,10.32,10.92a2.4,2.4,0,0,0,.24-1.8,22.09,22.09,0,0,0-5.52-9l-2.28-2.28,1.92-2.52.36-1.08a18,18,0,0,0,0-3.6l-.24-1.68-5.76-3.12Zm1.8,5.88-.84-3.84,5.88-1.92c2.28,2.28.84,4.08-4.56,5.64Zm-9.6-27.12-.24-3.12L177,180l-.6-6.72-1.32,6.48-8.28,1.8-2-9,.24,19.56.84-7.08,9,.72,1,6.84,1-7.44Zm14.52-43.32,6-.6,3.6,2.76c-1.56,4.44-5,6.12-10.56,5l.72-10.44c-6.6,12.6-9,25.2-7,38l5.4-21.72L207,175.08a40.42,40.42,0,0,0-7.56-20.4q13.5-9.9,0-19.44l-5.28,2-.48,1.32Zm-8.16-21.48c-9.12-5.64-18.36-4.92-27.6,2.16L172.8,123a167,167,0,0,0-1.2,29.88l-.48,7,.6-5.52.36,5.4.48-.48a164.56,164.56,0,0,0,2-33.36l.36-2.76,9.72-.48Zm1.8-53.64-2.64-.84,1-11.88,9.84,4.8ZM184.2,50.28l-1.08,3.36L182,65.76,180,66a72.57,72.57,0,0,0-2.52,25.44l5.4-19.56,3.72-.24,17,16.68c-.24-7.68-4-13.56-11-17.64L190.68,69c6.6-3.72,8.16-8.52,4.8-14.64a14.1,14.1,0,0,0-4.92-5.4ZM201.36.36l.12-1.68L184.2,10.8V.6a39.37,39.37,0,0,0-2.4,19.32l.48,2.28,2.52-10.44,9-1.92,8.64,14.64,1-5.52-8.28-9.84L198,6.84A9.09,9.09,0,0,0,201.36.36Zm76.56,20.4v.12l-.84.24-4.32.48a46.3,46.3,0,0,0-14,11.52,115,115,0,0,0-25.2,61c-1.8,15.72-3.12,31.68-4,47.76q-2.88,51.84-1.92,103.92.9,52.38,2.64,104.64T233,454.92a710.4,710.4,0,0,0,9.48,102.48c2.28,13.8,9.36,23.4,21.48,29,12.84,5.88,24.24,4.08,34.08-5.52q23.76-23.22,27.72-57.84a180.1,180.1,0,0,1-19.32,37.2c-10.32,15.24-24.36,20-42.12,14.16a13,13,0,0,1-6.24-4.44c-11.28-15-17-32.16-17.4-51.48q-.9-52.38-4-104.52-2.88-52.2-3-105.36L233.64,273a431.8,431.8,0,0,0,45.72-8.88l.36-.48c2-3.72,1.92-7.2-.36-10.56A327.86,327.86,0,0,0,233.64,265l-.24-60.84q-.36-44.64,1.8-88.8c1.08-24.84,8.16-47.16,21.12-67.2a35.48,35.48,0,0,1,7.44-9.84,35,35,0,0,1,9.84-6.48c20-3.72,31,4.08,33,23.4l.24.6.36.6.84.36.6-.24a28,28,0,0,0-.12-14.76A37.3,37.3,0,0,0,296,22.68l-1.92-.36A72.75,72.75,0,0,0,277.92,20.76ZM547.68,416c11.64-6.48,21.72-3.48,30.12,8.88a28.53,28.53,0,0,1,4.68,12c3.72-10.68,1.32-20-7.2-28q-19.44-17.82-31.68,4.68c-5.64,10.68-5.16,21.12,1.68,31.56,20.88,31.8,31.92,66.6,33,104.16a38.84,38.84,0,0,1-5,21.36,24.43,24.43,0,0,1-4.32,5.52,15.31,15.31,0,0,1-20.76,1.2c-11.64-8.4-14.52-19.44-8.76-33.12l-4-4.68q-12.6,27,10.68,45.84c10.92,8.76,20.28,7.44,28.2-4.2s11.52-25,10.68-40a171.3,171.3,0,0,0-32.76-92.76c-5.64-7.8-8-16.2-7.08-25.2A18.31,18.31,0,0,1,547.68,416ZM458.4,330.12l3.36-24.6A40,40,0,0,0,458,327.24Zm-30.84,88.2c17.28-.72,24.36,7.68,21.36,25.08-1.68,9.48-7.44,15.36-17.28,17.76a35.29,35.29,0,0,1-10.56,1.2l3-40.8Zm-4-4.68-6.12,48.48c-1.8,1.08-2.16,3-1,5.76l.48.12a394,394,0,0,0-6.72,46.68,13.42,13.42,0,0,0,1,6.24l9.12-52.8c7.32,1.68,13.68.6,19.32-3.36A154.93,154.93,0,0,0,451,505.56a160.47,160.47,0,0,0,8.64,16.92l-19-58.56a34.75,34.75,0,0,0,11.52-16,35.69,35.69,0,0,0,.72-21.84,19.86,19.86,0,0,0-9.72-12.72,21.71,21.71,0,0,0-11.64-2.76l-4.8,1.32Zm-72.12-54.48,6.36,7.68a42.32,42.32,0,0,0-11-21.12L334.68,362.4l6.24-2.88,1.44.6,9-1.68Zm57.6-4,2.64-.6,1.44-3.84-31.92-6.36-3.12,1.32-.36,2.64,25.8,6A133.7,133.7,0,0,0,380,389.16l-8.52,18.6a11.11,11.11,0,0,0-.36,8.76l31.32-1.68.84-6.72-27.36.72a135.38,135.38,0,0,1,26.4-46.2ZM396.72,342l-5.16-8.64-3-6.24c.36,4.68,2.4,10,5.88,16L397,346.8a37,37,0,0,0,14.4-20.28l-.72-1.92ZM411,245.76c9.72-2.52,16.32.84,19.56,10.08q10.26,29-12.24,47.52-6.12-.18-10.8,0l-.84,3.12c1.8-19.32,2.88-38.88,3.24-58.44l.24-.6Zm-.36-9a297.65,297.65,0,0,0-5.4,37,305.83,305.83,0,0,0-.84,37.8l.48.72,1.56-3.36.6,3.48c3.72,1.56,7.92,1.56,12.6-.24a15.75,15.75,0,0,0,8-6.36q19.08-29.16,2.88-58.92a23,23,0,0,0-14-11l-4.44,1.68ZM517.2,311.28c-14.52,9.72-23.64,23.16-27.48,40.56a121.24,121.24,0,0,0-2.28,38.4,76,76,0,0,0,12.36,35.52c3.72,5.76,9,7.92,15.6,6.48,10.92-2.28,16.08-8.76,15.72-19.44q-7,14.94-21.24,11.16a23.28,23.28,0,0,1-14-9.72,31.74,31.74,0,0,1-6-16.92,163.79,163.79,0,0,1,.24-21.72l31.32-1.44v-5.28l-30.72-.72a74.16,74.16,0,0,1,20.88-45.6l5.4-5,5.28.72,4.44,4.32c1.56-.72,1.8-2,.48-4.08l-3.84-5.64Zm6-17.88-.12.12C523.92,292.2,524,292.2,523.2,293.4Zm-69.48,27.72A7.11,7.11,0,0,0,456,319.8a2.56,2.56,0,0,0,1-2.88l-2.4-1.56-3,1.32.24-9.72-1.32,3.48a20.86,20.86,0,0,0-14.28.36l-1.8.72.84,4.56,5.64.36.84,15.6,2.4-16.2,5.64-2.52.12,19,1.32-11.16Zm20.64-112.56c7.92,2.88,14.88,1.56,21-3.84a5.37,5.37,0,0,0,2-3.36l-4.08-1.44a18.81,18.81,0,0,1-13.68,3l-4.2-.6A11.06,11.06,0,0,1,471,193l.12-1.68c5.4,2,11.4,1.8,18-1l.48-5.52-17.88,3.6c3.24-10.68,9.84-14,20-10l2,1a10.26,10.26,0,0,0-5.88-8.76,16.05,16.05,0,0,0-7-1.68c-12.12,7.8-15.6,18.72-10.44,32.52A23.93,23.93,0,0,0,474.36,208.56Zm-106-16.8a92.38,92.38,0,0,0-8.76,34.32,72.78,72.78,0,0,0,1.08,18.24l8.76-40.68c3.84,10,7.44,20.16,10.68,30.48a33.43,33.43,0,0,0,6.36,11.64c3.36-7.08,6.84-14.16,10.32-21A61.27,61.27,0,0,0,403.68,195l-.12-3.48-18.12,43.2a161,161,0,0,0-14.28-37.92Zm52.92-41,1.44,4.44,17.16-53.64c1.68,28.2,4.8,56,9.24,83.76a19.3,19.3,0,0,0,2.52,7.08,448.85,448.85,0,0,0-6.48-81.6c-1.44-8.28-2.64-16.68-3.72-25l-18.12,55a209.63,209.63,0,0,0-10.2-55,141.89,141.89,0,0,0,1.2,28.44C416.16,126.48,418.44,138.6,421.32,150.72ZM411.24,86.28A37.39,37.39,0,0,0,405,100l-10.08,42a189.15,189.15,0,0,0-5.76,49.8c5.64-22.8,10.56-45.84,14.52-69.24a89.42,89.42,0,0,1,7.08-23.16C413.28,94,413.4,89.64,411.24,86.28Zm-60-49.2-1.32-1.32-7.44-.48c-11.16,7.44-17.76,17.76-19.56,31a41.74,41.74,0,0,0,6.72,30c8.52,12.72,18.72,13.8,30.6,3.12,3.72-3.24,4.32-7.08,2-11.28a26.39,26.39,0,0,1-22.44,8.4c-5.28-.6-8.88-3.6-10.68-9.24a52.91,52.91,0,0,1-2.4-12.12l28.92-1.8L355.8,65l-28.56,2.28c1.08-10.8,6.36-17.4,15.72-19.92a20,20,0,0,1,16.92,3,67,67,0,0,1,7.2,5.88c.48-5.4-1.56-10.08-6-14A23.56,23.56,0,0,0,351.24,37.08Zm36.6-15.48L389.4-1.68c-4,7.32-4.56,15.12-1.8,23.52Zm53.64-3.48-13.92,13-.36,3.36,10.56-4.8,13,1.32.72-2L462,43.08q-.9-16.74-17.28-27.36Zm6.72,6.24L443,24.12l2-2.16ZM580.44,27.6C579.6,10.44,569.76,2,550.68,2.4a12,12,0,0,0-4.56,2.76C530.88,19.2,527.52,36.24,536,56a97.86,97.86,0,0,0,9.48,17.4A210.89,210.89,0,0,1,575.4,138.6a514.65,514.65,0,0,1,15.84,95.76,119.61,119.61,0,0,1-9.6,57.12c-6.84,15.72-18.48,23-34.92,21.72a7.09,7.09,0,0,1-6-3.84c-5.16-9.72-7-19.32-5.64-28.92-1,.12-1.44-.36-1.44-1.56l-.48-1.2-.6-.84c-4,12.36-3.36,25.56,1.56,39.36a8.82,8.82,0,0,0,4.08,4.92q26.46,13.5,41.76-12.72,20.34-34.92,16.32-77a704.93,704.93,0,0,0-15.36-95.16,109.55,109.55,0,0,0-8.16-23.28Q560,86.82,544.92,61.8C536.88,48.6,535,35,539,21l.6-.72c8.52-9.72,18.48-11,30-3.72l2.28.48a15.16,15.16,0,0,1,5.52,9.84c.36,2.28,1.32,2.76,2.76,1.32Z" transform="translate(0.08 1.68)"/></g></svg>