<svg id="Layer_1" data-name="Layer 1" xmlns="http://www.w3.org/2000/svg" viewBox="0 0 541.21 580.91"><defs><style>.cls-1{fill-rule:evenodd;}</style></defs><path class="cls-1" d="M181.32,575.52c-1.44-14.16-2.4-28.32-2.88-42.36a81.21,81.21,0,0,0-9.12-35.52l-17.88,68.64-10.56-70.92A241.33,241.33,0,0,0,127,547a263.17,263.17,0,0,0-3.12,32l16-65.16A317.11,317.11,0,0,0,146.52,565a103.72,103.72,0,0,0,4.92,15.72,280.12,280.12,0,0,0,14.16-48.12L168.84,516a253,253,0,0,0,3.24,40.44,56.48,56.48,0,0,0,8,22.08ZM343,406.2c-.84,14.52-1.92,29.16-3.12,43.92-1.2,13.32-2.76,26.64-4.8,39.84-2.28,15.24-4.92,30.48-7.8,45.48a143.45,143.45,0,0,0-2,41.16q19.08-52.2,17.88-111.72l28-1.56,16.08,97.8,4.8,12.36,2.88.36A476,476,0,0,0,376.92,462.6a11.94,11.94,0,0,0,.72-8.64l-.6-1-.36-.36-2-.36A675.34,675.34,0,0,1,359.52,332c-8.52,10.8-13.32,23.76-14.4,39C344.28,382.8,343.56,394.56,343,406.2ZM179.4,258.48a544.4,544.4,0,0,0-4.68,86,2,2,0,0,0,1-1.32,324.66,324.66,0,0,0,3.72-40.44l.72,1.44a62.17,62.17,0,0,0,14-1.56c-.12,7.8-.48,15.48-1.32,23-.84,8.4.48,15.12,3.84,20.16L197,345a691.78,691.78,0,0,0,.12-82A115.35,115.35,0,0,0,194,293.28l.12,1.2-.48-.12c-6.36-1.68-11.16-.12-14.16,4.8.12-9.24-.12-18.6-.72-28l.48-1a16.36,16.36,0,0,0,.6-12.12Zm-16,155.64c11,7.56,11.88,16.44,2.4,26.88-4.92-.24-9.72-.24-14.16-.12l.84-25.44a38.55,38.55,0,0,1,9-2.52Zm-10.56-7.44q-11.52,31.32-8.76,67a54.26,54.26,0,0,0,6.12,21.24l.12-.12,1.08-45.36a17.89,17.89,0,0,0,17.16-1.92,14.88,14.88,0,0,0,6-7.8,33.34,33.34,0,0,0,1.44-12c-.6-10.92-6.24-18.36-16.92-22.08l-6.36,2.52Zm8-141.24c10,9.84,9.36,19-1.56,27.36l-10,1.08.24-22.2a46.62,46.62,0,0,1,6.72-7.08Zm-11.28-1.32-.24-.6-.48.12-3.12,30.6-3,.12-.24,5.52,2.64,2.28c-4.08,15.24-3.48,29.88,1.68,43.92l2.28-42.84c12.48-.6,19.68-7.56,21.6-20.64,1.32-8.52-1.2-15.84-7.56-22.08l-2.76-2.88-6.6,1.44Zm-46.32-82.8L139.68,178a419.6,419.6,0,0,0-5.4,49.2,60.7,60.7,0,0,0,2.4,20.28,20.37,20.37,0,0,0,2.88,6.12l.36-75.6,23.76-2.88.6-7.2a222.57,222.57,0,0,0-46.44,4.68,70.72,70.72,0,0,0-15,4.68ZM122.16,59.4q-11-47-60.48-49.08a49.76,49.76,0,0,0-25.2,16.92,47.71,47.71,0,0,0-9.6,19.44Q11.94,109.5,46.2,166.2a512.52,512.52,0,0,1,54,124,705.2,705.2,0,0,1,23.4,118A340.32,340.32,0,0,1,116,527.88C110.4,550.8,96.6,565.2,74.4,571.2q-11,3.06-19.08-4c-21.24-17.64-31.56-41.28-31-70.68a11.51,11.51,0,0,0,.84-3.36,94,94,0,0,1,2.4-16.32,35,35,0,0,0,.84-8.76l1.92-2.4a18.5,18.5,0,0,1,3.24-4.32l.24-.6a3.9,3.9,0,0,0-2.64,1.44L28,466.08l-.12-.12-1.08-2.4-1.44-1.44-1-.24a87.79,87.79,0,0,0-8.28,46.44A141.12,141.12,0,0,0,35.4,569.16c12.84,22,31.32,27.48,55.44,16.8a18.6,18.6,0,0,0,8-6.48q34.74-48.78,34.44-110.28a657.34,657.34,0,0,0-12.24-125A731.13,731.13,0,0,0,87.24,225.48a179.11,179.11,0,0,0-13.8-28.08A393.22,393.22,0,0,1,29.88,94q-9.72-36.9,19.56-60.48a19,19,0,0,1,10.2-4.08c30.12-1.8,50.4,11,60.72,38.76A10.27,10.27,0,0,0,122.16,59.4Zm1.2,35.28c-2,17.16-3.48,34.32-4.32,51.72l-.24-.36a544.48,544.48,0,0,0-20-59.16c-1.2.12-1.92.84-2,2.4q-3.24,36-3.6,72.24,2,3.06,3.24,0a10.35,10.35,0,0,0,.84-4.08L99,99.84c6.6,20.76,13.44,41.52,20.52,62.52,2.52-1.32,3.72-3.48,3.84-6.72a315.46,315.46,0,0,1,4.32-47.76c1.32-7.68.24-13.2-3.24-16.44A7.42,7.42,0,0,0,123.36,94.68Zm152.16-69a38.54,38.54,0,0,0-20.64,18.48,242,242,0,0,0-27.36,98q-4.32,64.26-5.28,129.24l-1.8,128.16a1104.2,1104.2,0,0,0,4.68,113q4.14,43,40.32,64a31.86,31.86,0,0,0,24.24-5.4q29.16-20.34,27.72-55.44l.12-2.52,1.56-7.92a16.24,16.24,0,0,0,.12-5.88,31,31,0,0,0-2.76,7.92L313.2,520.8c-6.36,24.36-21.84,37.08-46.68,38.16a41.83,41.83,0,0,1-11.64-8.76q-21.24-22.86-23.52-55.8-4.32-64.08-3.72-129.12l1-80,42.72-5.76.72-.84c2.28-4.56,2-8.88-1-13a203.72,203.72,0,0,0-42.36,9.24l.48-38.64a1032.81,1032.81,0,0,1,9.24-126.84,123,123,0,0,1,22-55.8c10.2-14.16,23.16-18.24,39-12.36,9.72,3.6,17.16,9,22.32,16.08l.36-.84c-1.32-21.24-13.8-32.64-37.44-34.32Zm80,337.44c.84,14.88,2.28,29.64,4.56,44.28s5.16,29.64,8.64,44.4l-24.6,2.88,10.44-87.36Zm142.68-61.8a102.74,102.74,0,0,0,32.64-.12l.6-1c1.8-3.72,1.68-7.2-.6-10.44-10.2-2.28-19.56-2.16-28.2.48l.84-1.32c13.32-20,31.08-27,53.28-21.12l.12-.72c-2.16-10.92-10-15.48-23.4-13.8-25.08,8.52-38.88,25.92-41.4,52a25.39,25.39,0,0,0,5,18.24c14,18.36,32.64,22.44,55.92,12a14.55,14.55,0,0,0,3.12-9.72,5.2,5.2,0,0,0-1.8-4.08q-32.76,16.74-56-7.56A33.07,33.07,0,0,1,498.24,301.32ZM364.68,19.8q-34.2,26.64-40,71.76a808.85,808.85,0,0,0-6,126.84,39.27,39.27,0,0,0,9.36,24.6q17.82,20.7,38,.36c10.2-10.2,13.44-21.24,9.48-33.12l-1.32.84a9.47,9.47,0,0,0-3,4.44l-.6,1a15.29,15.29,0,0,1-1.68,7.44q-10.8,22.14-34.92,11.16a7,7,0,0,1-4.44-5.64,353.62,353.62,0,0,1-6-81.24l.48.6a190.32,190.32,0,0,1,36.24-2.64l.48-1a10.48,10.48,0,0,0-1-10.44,67.25,67.25,0,0,0-35.64,4.8l.36-5.76a224.88,224.88,0,0,1,21.72-80.64,33.9,33.9,0,0,1,10.8-12.84c14.52-10.56,25.44-7.44,32.52,9.24l.6-.6Q393.48,21.42,364.68,19.8ZM477.84,55.2a308,308,0,0,1,12.48,127.08c-4,36.36-21.84,61.32-53.88,75.12L436,246.48q-2.16-48.24-1.32-96.6c.6-38.52-.48-76.44-3.48-114l2.64-1.08A27.3,27.3,0,0,1,453,32.52Q472.08,37,477.84,55.2ZM470.16,26l-1-.84c-11.28-7.8-22.92-9.12-35-3.84l-3.72,2-.24.12L429.6,22H429q-4.14,105.66.72,214.68,4.5,103.32,2.88,206.28L432.12,459l-.72,16-1.08,16-1.2,15.72-1.44,15.84-1.56,15.72-.84-10.56c-4.44,15.72-3.12,30.24,4.08,43.56A1330.3,1330.3,0,0,0,438.48,299c-.6-8.52-1.08-16.92-1.44-25.44a34.33,34.33,0,0,0,18.24-7.92l2.4-2.16q25.38,153.18,58.68,305.16a21.51,21.51,0,0,0,6.36,10.92q-18.54-121.32-44.4-244.8c-5.16-25.08-10.92-50-17-74.88a120,120,0,0,0,33.24-71.64,521.51,521.51,0,0,0,.6-105.12l-.84-5.28-1.08-5-1.32-5-1.56-5L488.4,58l-1.92-4.8a118.85,118.85,0,0,0-13-22.8Z" transform="translate(-15.71 -10.32)"/></svg>