<svg id="Layer_1" data-name="Layer 1" xmlns="http://www.w3.org/2000/svg" viewBox="0 0 595.57 842.18"><defs><style>.cls-1{fill:#fff;}.cls-2{fill:none;stroke:#fff;stroke-linecap:round;stroke-linejoin:round;stroke-width:0.38px;}.cls-3{fill-rule:evenodd;}</style></defs><rect class="cls-1" x="0.31" y="0.31" width="595.08" height="841.68"/><rect class="cls-2" x="0.19" y="0.19" width="595.2" height="841.8"/><path class="cls-3" d="M155,551.76l-20.28,22.56.36-21.36a102.08,102.08,0,0,0-5.4,43L133.08,584,142,573.36l3.24,2.16,16.8,16.8c2-7.2-.72-13-8.28-17.16a51.06,51.06,0,0,1-8.4-6l10.44-10.92Zm169.8,2.76.36,1.8,38.4-2.4-.72-8.16-31.2,1.92q18.18-9.54,27.36-26.28a2.82,2.82,0,0,0,0-2.76c-9.72-1.56-19.56-.12-29.76,4.08A31.61,31.61,0,0,0,352,524.4L328.2,542.52A13.72,13.72,0,0,0,324.84,554.52ZM185.4,591l2-38.52c-6.6,12.6-7.32,25.44-2.28,38.52Zm75.72-100.8.48-5.28-7.32-2.76-9.12,3.24a41.29,41.29,0,0,0-10.44,19l6.12,20,8,1.56,11.76-6a7.6,7.6,0,0,0-.6-9.12l-15.48,6.48-3.24-1.92L239.64,509l11.64-1.68.6-7.2-10.68.48c3-6.36,8.52-10.08,16.32-10.92Zm-70.32,3,.84-1.8a4.21,4.21,0,0,0-.12-4l-1.08-1.56L157.92,491V496l18,.6-.24,29.76,2.76-30.12Zm4.32-38.64-2.28-36-7.32,20.28-3.72-20.76A64.41,64.41,0,0,0,171,451.56l10.56-26.28a50.65,50.65,0,0,0,3.72,26l6-16.56a30.74,30.74,0,0,0,3.72,20Zm34-2-1-1.8-.36,1.92Zm18-11.16,8.52-44.28L260,439.92l-2.52-.24ZM267,520.56a98.15,98.15,0,0,0-1,35.88,93.77,93.77,0,0,0,3.72-37.8Zm29.16-72.72c-6.36,20.16-8.4,43.44-6.36,69.72l32.76,2.16v-7.2L294,507l3.36-56.52Zm-7.08-79,3.84-47.4L312,328.56c9.6,16.44,5.4,28.92-12.6,37.68A31.86,31.86,0,0,1,289.08,368.88Zm-33.36,19.44-12.6,43.08a229.38,229.38,0,0,0-8.4,44.88v4.2l10-30,16.44-3.24,8.88,40L256.8,386.4ZM203.4,238.68c-7.92,13.56-11.88,28.8-12,45.72-.12,15.36-.84,30.6-2.16,45.84a147.76,147.76,0,0,0,1.32,37.08,72.33,72.33,0,0,0,7,21.24l5.88,1.32a21.64,21.64,0,0,0,8.76-7.32,12.2,12.2,0,0,0,1.92-4.44l.48-2.52.12-1.2-.12-1.32-.12-1.2-.84-2H210l-1,1.2.84,1.56-7,7.32-4.44-1.32a107.26,107.26,0,0,1-3.84-52.08l20.4.36-.12-8.4-20.16-1.32A147.3,147.3,0,0,1,204,246.84l3.24.24,2.4,6.36c1.56-.84,2.4-2.64,2.52-5.64l-.12-3.12a2.76,2.76,0,0,0-.48-1.68l-1.2-1.56-2.28-2.52Zm126.72,33.84A82.71,82.71,0,0,0,325.8,315a3.1,3.1,0,0,0,2.16-2.88l.12-8.4v-4.8l10,.12.6,15.72,2.76-16.44,5.4-2.64-2.16-5.16-2.88-.72,2.64-14.88-5.16,15.36-10.68,2.64,3.12-18Zm-36.6,40.08a129.32,129.32,0,0,0-9.12,43.2c-.6,14.76-1.8,29.52-3.6,44.16a385,385,0,0,0-2.64,47,94.62,94.62,0,0,0,8.52-39.12c.12-10.44.6-21,1.68-31.44l10.2-.6,36.12,75.72,2.4-5.64a444.89,444.89,0,0,0-35.28-71c8.4-3.48,13.8-10.08,16.08-19.56l2-10.08a30.86,30.86,0,0,0-.12-10,18.56,18.56,0,0,0-6.36-11,16.39,16.39,0,0,0-2.52-1.8,38.85,38.85,0,0,0-17.64-6.12Zm31.2-46.32c-11.4.12-19.56,4.92-24.24,14.64l.12.24,15.12-5.76c-5,14.88-6.24,29.16-3.6,43l2.28-1.8-1.32-5.64L317.16,275l12.6-2.76-.24-5.28Zm-174,78.24a91.79,91.79,0,0,0,8.16-40l-8.16,27.72-7-25.8L136.56,348l7.92-29.76Zm6.36,39.84q1.26.54,2.52-1.8h4.08l.48.6,3.84,4a22.33,22.33,0,0,1-9.24,2.28l-1.32-1.08Zm-1.32-4.8a72,72,0,0,0-1.56,28.2l3.72-9-1-3.12a17.73,17.73,0,0,0,13.44-3.84l1.68-5.76-9.72-8.64-5.88,3.36Zm-2.88-27.24A95.82,95.82,0,0,1,170.16,349a103.45,103.45,0,0,0,2.4,31l.24-.84c.36-10.2.36-20.28,0-30.36l8.4-.48.48-.84c1.08-3.36,0-5.64-3.12-6.72a45.5,45.5,0,0,0-20.64,3.84,16.14,16.14,0,0,1-4.8,3.72l-.48,1.68A4.15,4.15,0,0,0,152.88,352.32Zm7.2-174.12c-15.48-3.24-29.16-1.68-41,4.44L140,187a106.22,106.22,0,0,0-.12,43.92,98.61,98.61,0,0,0,3.12-43.8l18.24-2.52ZM137.4,101.52q-20,23.4-13.56,55A101,101,0,0,0,128.16,171q10.26,4.14,18-3.6c2.28-2.28,3-4.8,2-7.68l-17,4.8c-8-11.52-9.36-24.24-4.08-38.28a53.91,53.91,0,0,1,10.08-17.16l5.64-.6,6.48,5.76A3,3,0,0,0,150.6,112a6.11,6.11,0,0,0-.36-3,14.61,14.61,0,0,0-4.08-5.4ZM110.52,12l-1.2-.6V11l-.24-.48-.36-.84-.48-.84-1.44-.6A91.88,91.88,0,0,0,77.88,1.92C50.28,14,36.36,35.16,36,65.52a73.74,73.74,0,0,0,2.52,20.64,308.31,308.31,0,0,0,28.56,70.08,301.84,301.84,0,0,1,26.76,64,941.43,941.43,0,0,1,27.72,125.52c4.44,29.88,7.56,60.12,9.12,90.6a263.29,263.29,0,0,1-9.6,86.64,52.21,52.21,0,0,1-20.4,29q-32.94,23.94-69.24,4.44Q6.06,542.94,13,511.92a105.84,105.84,0,0,0,.6-43.8c-3.48,3.48-5.64,8.28-6.72,14.28-.72,4.08-.36,5.76,1,5.16a372.69,372.69,0,0,0-1.44,43.8A80.1,80.1,0,0,0,8,546.6c3.48,17.4,14.16,28.8,31.8,34.2a63.9,63.9,0,0,0,35.52.72c33.72-9,53-30.84,57.72-65.4a449.34,449.34,0,0,0,3-96c-1.56-21.24-3.48-42.6-5.88-63.84A806.56,806.56,0,0,0,106.44,232.8,452.07,452.07,0,0,0,56,116.28a90.48,90.48,0,0,1-13.2-42.72,63.37,63.37,0,0,1,7.68-33.84C60,22.68,73.8,15.24,92,17.28c17.28,2,24.6,11.88,22.08,29.76q5.22-7.38,3.24-18a47.65,47.65,0,0,0-5.88-16.32Zm36.24,24.36A13.47,13.47,0,0,1,160.2,39a27.2,27.2,0,0,1-13.32,7.92A62.08,62.08,0,0,0,146.76,36.36Zm-.36-3.84c-5.28,12.12-6.48,24.12-3.6,36.24l3.6-16.32c8.28-.24,13.56-4.2,15.72-12a14.6,14.6,0,0,0,.72-5.52L152.52,30Zm125.28,113.4,2.28,40.8-13.8,2,9.72-34.08Zm-12,51.48,15-2.64,7,52.32a935.29,935.29,0,0,0-8.16-96.84l-1.8-13.56-.24,1.8L270.6,135a726,726,0,0,0-23.16,82.56,106.87,106.87,0,0,0-2.52,27c4.44-16.08,9.24-31.56,14.16-46.56Zm-67.92-85.08q16.38,22.68-5.88,33.84l-1.68.48.72-33.6Zm-7.56-8.4c-2.28,12.6-4.32,25.44-6.12,38.76a402.68,402.68,0,0,0-3.6,41.76c-.24,6-.36,12-.24,18l8.64-43.8a197.51,197.51,0,0,0,16,43.8,108,108,0,0,0-8-35.76l-4.08-10.56a62.37,62.37,0,0,0,11.88-14.88,24.37,24.37,0,0,0,3.12-11.52,33.73,33.73,0,0,0-4.56-18.36,42.5,42.5,0,0,0-4.32-6.36l-8.4,1.44Zm0-37.68c-9-3.24-18.24-2.76-27.6,1.68L154,69.24v4.08l16.2-1.92,1.08,33.6,1.56-34,10.32-.72ZM268.56,6.48q-32.76,9.18-38.28,41.76a624.33,624.33,0,0,0-8.64,108.48q.36,64.62-.12,129c-.36,43.08-1.44,86-3,129s-1.44,85.68.6,128.28q1.62,37.08,37,47a29.22,29.22,0,0,0,18.12-.36q25.2-8.1,34.56-34.56c3.24-9.48,2-16.8-3.6-22.08a99.54,99.54,0,0,0-7.08,16.68c-6,18.72-18.6,26.88-37.8,24.36-20-2.64-31.2-13.56-33.24-32.64a692.88,692.88,0,0,1-3.24-104.76q2.88-64.44,4.08-129l.36-30.6,2-1.92a210.63,210.63,0,0,0,39.72-8.4l.36-.72a11.84,11.84,0,0,0-1.44-12.24l-39.48,9-1.08,1.2q.18-42.66-.48-85.44A952.11,952.11,0,0,1,233,62.64q3.78-37.26,41.28-46.2A13.7,13.7,0,0,1,285.24,18c9.84,6.24,16,14.64,18.36,25.32a4.75,4.75,0,0,0,2-4.08c.12-15.48-6.36-27.84-19.44-36.84l-4.8-.24C277.32,3.72,273,5.16,268.56,6.48ZM368,265.92Q357.6,203.46,346.8,141.24l.84-3.72-1.2,3.12-1.68,4.8a596.92,596.92,0,0,0-19.92,68.64l-.72,3.36q-4.5-37.26-10.8-73.44l-.48-1-.36-.6.6-5.76A682.36,682.36,0,0,0,298,216.84c-2.76,21.84-4.68,43-5.76,63.24a60.16,60.16,0,0,0,5.16-17.64c5.16-36.84,9.72-73.44,13.92-109.68a138.7,138.7,0,0,0,2.64,28.44,299,299,0,0,1,4.92,40.2c.6,10.32,2.76,18.72,6.6,25.08l.48-.84a17,17,0,0,0-.12-10.08l.36-1.44q1.26-3.24.72-4c5-26.52,10.68-52.56,17-77.88a49.75,49.75,0,0,0,.6,7.08L364.68,285C368.28,280.68,369.36,274.32,368,265.92Zm-10.68-19c.36,1.8.36,1.8-.12,0ZM406.92,0c-8.52,7.56-13.44,17.4-15,29.52Q384.36,93.24,382.56,158l-3.48,129.12c-1.08,42.84-2,85.92-2.88,129a625.94,625.94,0,0,0,10.08,125.76c1.08,5.88,4.68,9.36,10.68,10.44,14.52,2.52,25-2.76,31.32-16.08,6.36-13.56,6.6-25.68.84-36.48a17.82,17.82,0,0,0-4.08,9.72,38.17,38.17,0,0,1-12.72,24.36q-9.72,4.86-18.36,0a109.83,109.83,0,0,1-7.32-35.76c-1.8-43-2.16-85.92-1.32-129l1.8-91a113.44,113.44,0,0,0,30.12,4.32,11.4,11.4,0,0,0,2.76-9.72,8.42,8.42,0,0,0-1.68-4.56l-1.2-.6a51.53,51.53,0,0,0-13.44-2.16v.12l-16.32,1.8.48-27.36q1.08-64.08,2.52-128.28A354.13,354.13,0,0,1,405.84,14.4c.36-.36.6-.48.84-.48l7.8-.36a27.8,27.8,0,0,1,7.2,6.84,178.79,178.79,0,0,1,12,18.84,11.7,11.7,0,0,0,1.08-8A54.11,54.11,0,0,0,416.4,1.08,1.91,1.91,0,0,0,415,.6ZM552.84,92.52A387,387,0,0,1,565.08,145c6.84,42.6,11.52,85.44,14.28,128.64a808,808,0,0,1-2.16,127.56,379.74,379.74,0,0,1-31.32,119,68.27,68.27,0,0,1-12.72,19c-21.24,22.08-48,31.56-80,28.32a381.12,381.12,0,0,0,.48-46.92q-3.06-64.62-1.8-129t0-129.12c-.84-42.84-.84-85.92-.12-129q1.08-61.74,1-122l.48.12c29.4,9.24,55.44,25,78.24,46.92a8.66,8.66,0,0,0,1.08,2.4A68.43,68.43,0,0,1,552.84,92.52Zm-.6-17q-34-57.24-99.84-71.64a2.53,2.53,0,0,0-2.64,2.88,10.11,10.11,0,0,0,.48,3.24l.84.6A98.08,98.08,0,0,0,448,32.76c-1.56,42.84-2.4,85.92-2.76,129.12s-.24,86,.12,129,.36,86.16-.24,129c-.6,43.08-1,86-1,129.12a65.68,65.68,0,0,0,5.28,27l-.48,1.2a7.88,7.88,0,0,0-3.6,3.24,5.76,5.76,0,0,0,2.28-1.08c1-.84,1.8-1,2.64-.36a10.78,10.78,0,0,0,.84,3.24,7.47,7.47,0,0,0,2.88,3.24,125.45,125.45,0,0,0,58.8-10,41,41,0,0,0,15.84-11.76q38.16-46.62,47.4-107.52A1049.53,1049.53,0,0,0,587.28,328.8a612.24,612.24,0,0,0-5-96.36q-8.46-63.54-18.72-126.12A86.93,86.93,0,0,0,552.24,75.48Z" transform="translate(0.19 0.19)"/></svg>