<svg id="Layer_1" data-name="Layer 1" xmlns="http://www.w3.org/2000/svg" viewBox="0 0 293.23 206.4"><defs><style>.cls-1{fill-rule:evenodd;}</style></defs><path class="cls-1" d="M312.72,324.36q3.06-64.62,1.44-128.16a620.57,620.57,0,0,0-6.6,76.32q-1.62,64.44-1.8,128.16c5.76-2.88,8-8.88,7-18.12C311.76,363.48,311.76,344,312.72,324.36Zm-68.16-35.64c-2.64,3.24-3.84,7.32-3.72,12.12a394.15,394.15,0,0,1-4.68,82.8c-10.8.36-19.32-4.2-25.68-13.8-4.68,13.44.36,23.76,15.12,30.84,3.72-.36,6.48-1.56,8.16-3.6,10.92-13.32,15.48-29.52,13.68-48.72A170.68,170.68,0,0,1,247.2,317C248,306.36,247.2,296.88,244.56,288.72ZM246,230.88h-.24a53.13,53.13,0,0,0-1.8,33.36C249.6,253.56,250.32,242.52,246,230.88ZM257,195c-18.24-.36-36.48-.6-54.6-.72a215.61,215.61,0,0,0-50.28,7.32l-1.2.6a13.91,13.91,0,0,0,.36,11.16l.72,1c16.08-2.4,32.28-4.08,48.72-5.16a505.3,505.3,0,0,0-4.8,60.6c-.84,42.84-1.56,85.68-2.16,128.28A2.32,2.32,0,0,0,196,400.2a5,5,0,0,0,2.88-4.56q3.42-64.26,5.16-129.12.9-29.7,0-57.6c17.52-1.08,35.16-1.32,53-.84a12,12,0,0,0,1.08-12l-.24-.72Zm103.44,4.68q-1.62,64.26-3.72,128.28a270.56,270.56,0,0,1-6,48.24c-2,9.84-.72,17.76,4,23.64a29.78,29.78,0,0,0,3.12-9.72c2.88-20,4.8-40.32,5.88-60.84l2,4.08,1.32-1.56q13-23.22,26.88-45.72a39.47,39.47,0,0,0,2,7.8q13.86,38.16,27,76.56c4,11.64,9.48,21,16.68,27.84a10.84,10.84,0,0,0,.6-9.24l-41.76-110.4q17.46-27.72,36.12-54.36c6.72-9.72,9.48-19.2,8.28-28.68Q410.7,238.8,382.2,286c-4.08,6.72-8.4,13.2-13,19.32a40.38,40.38,0,0,0-4.8,8.4c1.32-39.36.72-78.24-1.56-116.64A2.4,2.4,0,0,0,360.48,199.68Z" transform="translate(-149.96 -194.28)"/></svg>