<svg id="Layer_1" data-name="Layer 1" xmlns="http://www.w3.org/2000/svg" viewBox="0 0 461.52 499.77"><defs><style>.cls-1{fill-rule:evenodd;}</style></defs><path class="cls-1" d="M338.52,439.44c6.6-1,13.44-2.28,20.64-4l12.72-2.76Q360,381.78,357,345.12c-7.56,29.52-16.68,61.44-27.6,95.64Zm-88.2-100.68c.36-7.68,1.44-13.68,3.12-18,.36,1.68.72,12.24,1.32,31.56.6,18.36.84,30.6.84,36.6,0,4.92-1,18.72-3,41.4a18.34,18.34,0,0,1,3.6,2.28A5,5,0,0,1,258,436c0,3-1,4.92-3,6a14.51,14.51,0,0,1-3.48,1.2c-1.8,20.16-3,31.92-3.48,35.16V544c-.48,2.16-.6,5.64-.24,10.56-.12,4.32-1.8,7.44-4.92,9.24a9.71,9.71,0,0,1-1.92-6.48q0-2,.72-7.92.54-5.94,1.44-10.8V472.8c.84-7.44,1.8-17.16,2.76-29.16H244l-5.64-.6-6.84-.48L186,442.32c-2.4-.12-5.52-.12-9.24-.12v40.92l-1.08,4.08v53.52c-.24,1.08-.48,5.28-.6,12.48-.12,4.8-1.2,8.64-3.48,11.4-1.32-3.24-1.92-8-1.92-14.16a70.87,70.87,0,0,1,1.08-14.28V482.64l1.08-4.08V442.2l-1.08-.24L170.4,440a19.91,19.91,0,0,1-.24-2.88,5.93,5.93,0,0,1,1.56-4.56l.36-.48c1.32-23.88,2.28-41.52,3-52.68L176.76,351q.9-18,4.32-27a21.7,21.7,0,0,1,1.8,9.36c0,5.88-1,24-2.76,54.48l-2.64,41.88a29.23,29.23,0,0,1,8.52.12l61-.24c1.2-16.2,2-27.12,2.64-33a170.34,170.34,0,0,0,.6-18.84l-.36-19.32ZM51.12,367.32l-7.2,18.12A129.32,129.32,0,0,0,38.4,403.8c-2.4,11.88-4.32,24.24-5.64,37a343.28,343.28,0,0,0-2.16,36.6,114.67,114.67,0,0,0,1.08,13.92,131.82,131.82,0,0,0,5.88,27q13,38.16,43.32,38.16c18.24,0,33.72-7.32,46.32-21.84a129.32,129.32,0,0,0,13.56-19.32c4.68-8.4,8.16-14.28,10.2-17.52l.48-.12a.77.77,0,0,1,.6.6l-5.4,18.48A123.38,123.38,0,0,1,135.84,541c-12.12,20-29.16,30.12-50.88,30.12q-38.16,0-52.44-46.32A157.75,157.75,0,0,1,26.4,492.6l-.72-15.72c0-7.32,1.32-20.88,4.08-40.56s4.08-32.64,4.08-39c0-22.44,12-41.16,35.88-56.4A135.33,135.33,0,0,1,97.56,327.6c8.4-2.76,14.88-4.2,19.32-4.08v-.6c14.88.72,25.56,4.32,31.92,10.92a24.49,24.49,0,0,1,5.28,8.28l2.28,6.72-1.56,2.28a101.21,101.21,0,0,0-10.92-8.64c-7.08-4.92-13.44-7.32-18.84-7.32l-8.4.24a161.76,161.76,0,0,0-42,14C61.08,356,53.16,362,51.12,367.32Zm176-286.08a10.54,10.54,0,0,1,1.56-6.12c4.92,5.88,18.24,21,40.08,45.6,19.32,22.2,28.92,34.2,28.92,36a10.57,10.57,0,0,1-.6,3.48l-1.8,3.12-17.52-21-17.4-20.76c-1.56-1.8-4.56-4.68-8.76-8.64l-11-10.56C231.6,93.36,227.16,86.4,227.16,81.24ZM217.8,77a10.8,10.8,0,0,1,.36,3,7.41,7.41,0,0,1-1.8,5.28l-57.12,6.24L145.2,93q7.38,17.46,20.76,69.24Q180.72,220,180.72,232a81.76,81.76,0,0,1-2.64,18.84,104.61,104.61,0,0,1-10.56,27.48Q147.36,314.1,107.16,314c-29.64,0-50.4-6.84-62.52-20.64-6.84-7.8-10.32-16.56-10.32-26.28,0-4.56,1.32-7.8,3.84-9.72l1.32,2.16c.6.72,2,1.32,4.08,1.92l-2.4,3.72a5.17,5.17,0,0,0-.84,2.4c0,3.12,1.2,6.48,3.72,10.08A45.05,45.05,0,0,0,55.2,288.24c11.64,8,26.28,12,43.8,12q43,0,64-29.28a75.31,75.31,0,0,0,10.8-22.8A58.06,58.06,0,0,0,176.4,232c0-7.2-2.16-19.08-6.36-35.64l-8.76-34.08C160,155.4,156.36,142,150.48,122c-5.4-18-8-27.6-8.16-28.8L99,96.12c-21,0-36.72-1.8-47-5.4C44.88,88.32,41.4,85.8,41.4,83V80.88l.24-1.44.12-.6c.12-.36.72-.48,1.8-.48,6.36,0,14.88,1.2,25.56,3.48s20,3.48,28.08,3.48L146,81.12l60.48-6c0-.24.48-.36,1.32-.36h8.76Zm131.4-2.76a5.94,5.94,0,0,1,.84,3.24C344.52,86.28,337.8,97.8,329.88,112A928.56,928.56,0,0,0,288,196.08q-30.06,69.3-55.2,117.6a8.24,8.24,0,0,1-2-3.84,14.23,14.23,0,0,1-.6-3.36c0-2.52,4.44-13.68,13.2-33.24s19.2-42,31.68-67.56Q322.38,109,347.52,71.76Zm121.8,253V404.4a42.2,42.2,0,0,0-1.08,10.2c0,2.28.6,16,1.8,40.8s1.68,41.52,1.68,50c0,24.84-1.08,44.76-3.24,59.64-3-7.56-4.32-17.4-3.84-29.52C467.4,522,468,511.92,468,505.44q0-13.5-1.44-45.36C465.48,438.84,465,423.6,465,414.6q0-11,1.08-15.84V327.24l.48-5.64c.36-2.76,1.08-4.32,2.28-4.92A19.63,19.63,0,0,1,470.4,322Zm-103.08,57c3.12,17.76,6.36,33.48,9.6,47.16l1.2-.24c1.44-.12,2.4.24,2.76,1.08.36.6.48,2.16.48,4.56,0,1.08-.72,2.28-2.16,3.48l.24,1.2,17.16,66.36c7.56,29.4,11.28,45.12,11.28,46.92a13.56,13.56,0,0,1-.6,4.2,5.65,5.65,0,0,1-2.64,2.88c-3.24-13.8-7.92-31.92-13.8-54.12C383.64,479,378.84,461,377,453.48l-2.64-10.2a78.23,78.23,0,0,1-10.08,3.6,129.56,129.56,0,0,1-37.08,5.4H325.8L319,473c-16.92,50.76-29,81.36-36.6,91.8a3.55,3.55,0,0,1-1.32-2,8.37,8.37,0,0,1-.36-2.88L289.32,540c6.36-14.88,10.68-27.36,13.08-37.44q3.06-12.24,9-29.52l10.44-28.68.36-1.2q5.22-15.3,19.32-66.36,11.34-41.4,16.92-49ZM479.64,95.4a21.35,21.35,0,0,1-6.24-1.8l-10.2-4A104.14,104.14,0,0,0,429.84,84c-16.2,0-28.68,1.32-37.44,3.84s-15.6,6.72-20.76,12.72c-4.2,5-8.4,13.08-12.72,24.24-2.64,6.72-7.32,19.32-14,37.68a155.35,155.35,0,0,0-7.2,23.4l10.08-.84,25.56-3.12,37.8-.48,19-.84c7.08,0,11.76.48,13.92,1.32,1.32.6,2,1.92,2,4a9.33,9.33,0,0,1-.72,4.32c-.6,1.08-2,1.8-4.2,2.4-3.72,1-14,1.56-31.08,1.8l-37.8.6L343,197.4l-7.44-.48-.72,5.16q-2.16,16-2.16,40l-.12,13.68a99,99,0,0,0,3.72,24.48c6.84,22.68,22,34.08,45.12,34.08q35.64,0,60.84-14.64a91.42,91.42,0,0,0,14.88-10.92l6.6-6.6c3.72-3.48,7.56-8.88,11.4-16.2,4.44-8.28,7.8-13.8,10.2-16.56a10.55,10.55,0,0,1,1.92,6.12q0,31.14-42.72,55.56a183.53,183.53,0,0,1-31.56,14.28c-9.36,3.24-15.72,4.92-19.08,4.92q-49.86,0-63-41.88a105.41,105.41,0,0,1-4.32-30.12l.72-16.2q0-54.72,12.36-94.56,19.08-62.1,65-75.72a105.1,105.1,0,0,1,19.56,0,161.91,161.91,0,0,1,24.6,3.6C468.84,79.8,480,86,482.28,94L481.92,95Z" transform="translate(-25.68 -71.31)"/></svg>