<svg id="Layer_1" data-name="Layer 1" xmlns="http://www.w3.org/2000/svg" viewBox="0 0 293.02 219.98"><defs><style>.cls-1{fill-rule:evenodd;}</style></defs><path class="cls-1" d="M301.92,400.68q-5.4-14.58-2.88-32.4a490.76,490.76,0,0,0,4.8-64A875.68,875.68,0,0,1,312,194.88q1.62,63.54-.84,128.28c-.84,19.68-1.92,39.12-3.36,58.44a68.1,68.1,0,0,1-3.36,17A2.7,2.7,0,0,1,301.92,400.68Zm-80.28-25.8-.6.72a29.85,29.85,0,0,0,11.88,8.88l5.16-.24c6.6-16.2,8.76-33.84,6.24-52.92-2.4-18.48-.84-35.52,4.8-51,.12,19.68.72,40,1.68,60.84a337.53,337.53,0,0,1-.72,38.16c-1.08,12.6-7.08,19.8-18,21.36Q208,390.6,215.88,369c3-1,5.16-.12,6.72,2.52A3.23,3.23,0,0,1,221.64,374.88Zm24.6-110.52c-4-9.84-3.48-20.16,1.56-31,0-.12.24-.12.6-.12a51.35,51.35,0,0,1-1.44,30.6Zm-45-75.24c.12-.84.6-1.2,1.68-1.08l.36,4.92,54.84,3,.84.48.24.72.36,1,.36.72a7.86,7.86,0,0,1,.36,3.36l-.12,1.56v.84a7.26,7.26,0,0,1-2,4.56l-54-2.64a1049.87,1049.87,0,0,1-.36,109.92q-2.52,42.66-2.76,85.92a8.09,8.09,0,0,1-2.16,5.64c-4.44-8.4-6.48-18.84-6.12-31.44,1.56-42.84,3.24-85.68,5-128.28L200,206.52c-16.32-.12-32.52.24-48.72,1.08l-.6-1-.24-.72-.12-.84a9.87,9.87,0,0,1-.24-3.24l.12-1.56.12-1a6,6,0,0,1,1.2-2.28l1.08-.48a28.3,28.3,0,0,0,6.48-1.44,47,47,0,0,1,10.8-2.4c10.44-.12,20.76,0,31.08.24Zm191.64,8.4c20.52-4.2,36,1.44,46.56,16.68a19,19,0,0,1,2.4,18c-9.48-19.68-26.64-25.92-51.72-18.6l-3.72.72a153.22,153.22,0,0,0-25.32,61.92,201.79,201.79,0,0,0,1,77.28q5.94,29,35.64,20.52a73.2,73.2,0,0,0,32-18.84,41.2,41.2,0,0,1,1.68,6l1.8-9.24a69.5,69.5,0,0,0-24.12,1.68A5.07,5.07,0,0,1,405.6,352a14.12,14.12,0,0,1-.48-8l.24-.84a73.3,73.3,0,0,1,33.48-6,291.2,291.2,0,0,1-.48,49,48.49,48.49,0,0,1-4.68,16.8c-4.44-6.24-6-14.52-4.8-25l.36-3.12c-3,4.92-8.88,8.76-17.52,11.4C406,388,400.08,389.4,394,390.72q-29.88,6.3-37.08-23.4a231.06,231.06,0,0,1,3.72-124.56c5.52-17.76,15-32,28.56-42.84A19.3,19.3,0,0,1,392.88,197.52Z" transform="translate(-150.07 -188.02)"/></svg>