<svg id="Layer_1" data-name="Layer 1" xmlns="http://www.w3.org/2000/svg" viewBox="0 0 301.7 206.64"><defs><style>.cls-1{fill-rule:evenodd;}</style></defs><path class="cls-1" d="M244.32,334.68c-.48-21.12-1.32-41.64-2.4-61.68-5.52,15.36-7.2,32.4-5.16,51.12,2,19.32-.36,37.2-7.32,53.64-4.56,2.28-8.76,2.16-12.48-.36q-.54-6.66-5.4-9.72c-4.92,10.08-3.6,19.32,3.84,27.6,10.92,3.84,18,.84,21.24-9.12A145.3,145.3,0,0,0,244.32,334.68ZM242.4,234.6a5.82,5.82,0,0,0-1.08,1.56c-3.24,7.2-3.24,13.68.24,19.32l.72-1C246.36,247.08,246.36,240.48,242.4,234.6ZM237,196.44l-84.36,4.32-.48.84a15.83,15.83,0,0,0-.24,9.72l.48.84c16.2.6,32.4,1,48.6.84a186.13,186.13,0,0,0-2,25.08q-1.08,64.8-7.44,128.88c-1.2,12,.24,22.8,4.44,32.4a10.8,10.8,0,0,0,4.2-8.64q1.26-30.42,3.24-60.84A1000.54,1000.54,0,0,0,204.72,213c15.24-.12,30.6-.48,45.84-1.08a12.14,12.14,0,0,0,1.92-11.4,6.46,6.46,0,0,0-1.2-2.4.87.87,0,0,0-.72-.48Zm118,33.84c.6-12.6-1.92-23.16-7.56-31.44a59.85,59.85,0,0,0-2.88,25.32,366.76,366.76,0,0,1-10.8,127.56q-9.18,34.74-48.24,28.44a10.2,10.2,0,0,1-4.8-7.44,423.64,423.64,0,0,1-1.8-110.28,371.25,371.25,0,0,0,1.92-64.08,1.55,1.55,0,0,0-2,1.32,385.84,385.84,0,0,0-6.12,44.52,915.17,915.17,0,0,0-.72,128.28,26.77,26.77,0,0,0,5.76,15.24q14.76,18.9,40,5.76A28.94,28.94,0,0,0,329.52,382q22.14-40.32,23-87.6C352.92,273,353.76,251.64,355,230.28Zm94.8-12.72c-1.56-15.48-10.44-23.64-26.64-24.36Q385,209.94,375.6,251.52a545.33,545.33,0,0,0-10.2,60.84q-5.4,47.88,24.48,82.92L401,396.36c17.16.6,30.36-5.16,39.6-17.52-1.08,9,.72,16.08,5.28,21a212.27,212.27,0,0,0,4-30.84A154.37,154.37,0,0,1,452,350.76c2-11.28.72-21-4-29a175,175,0,0,0-19,3.48l-.24.84c-1.32,3.72-.84,7,1.32,9.72l14.88,1.08-.72,10.44-.6-.72-1.08,1.8-3.36,7.32q-14,29.16-48.6,21a58.81,58.81,0,0,1-16.32-38.76c-.72-13.32-.84-26.52-.36-39.72q1.62-49.5,36.12-82.8c13.92-7.32,27.12-6.24,39.48,3Z" transform="translate(-151.27 -193.2)"/></svg>