<svg id="Layer_1" data-name="Layer 1" xmlns="http://www.w3.org/2000/svg" viewBox="0 0 572.64 594.6"><defs><style>.cls-1{fill-rule:evenodd;}</style></defs><path class="cls-1" d="M64.44,558.84A25.08,25.08,0,0,0,63,565c0,3.72,2.4,7.44,7.08,11q8.28,6.12,20.52,6.12c7.68,0,12-.6,13.08-1.8a8.63,8.63,0,0,1,1.2-2.16,6.08,6.08,0,0,1,2.4-2.16l-.12-3.6-.12-1.08-.48-4.08.48-.48.12-.12v-.48L99,565.32l-8.64-1-.24-1.68.24-2.16,8.76-.48,9.36-.36a54.77,54.77,0,0,1,1.32,8.16,13.41,13.41,0,0,1,1.32,3,18.71,18.71,0,0,1,.6,4.8,12.3,12.3,0,0,1-1,4.08,48.66,48.66,0,0,0,2,9.24v4.8l-.48.48-.84,1a30.39,30.39,0,0,1-3.72-10.2c-2.64,3.72-5.76,5.52-9.24,5.52-16.2,0-27.24-3.6-33.36-10.68-3.24-4-4.8-9-4.8-15.12a49.71,49.71,0,0,1,2.52-13.92c2-7.08,5-12.84,8.76-17C82.32,521.4,97,523.44,115.8,540v4.8l-.36.48-.72,1a57.84,57.84,0,0,0-8.16-8.28c-4.68-4.08-8.52-6.12-11.28-6.12-11,0-19.68,5.28-25.92,15.72A50.17,50.17,0,0,0,64.44,558.84Zm157.08-25.08.24,6.36c0,3.72-.24,8.16-.72,13.56l2.64.36q23.58,0,30.6-4a5.11,5.11,0,0,0,2.64-3.24v-2.28q0-3.6-4.32-7.56A19.62,19.62,0,0,0,239,532.08q-12.78,0-16.2,1.08ZM199,528.84c0,.6-5.76,9.48-17.28,26.76-13.56,20.16-22.2,33.12-25.8,39l-1.32-1.8A5.54,5.54,0,0,1,154,590c0-3.84,4.92-12.84,14.64-27.12-4.2-3.84-9.6-9.36-16.32-16.68q-13.68-15.12-13.68-16.92a9.2,9.2,0,0,1,.12-2.16l.36-.72c5.28,2.52,12.72,9.24,22.44,20.28,3.6,4.08,7,8,10.08,12l1.92-2.88c12.12-16.92,20-27,23.88-30.24l1.2,1A4.58,4.58,0,0,1,199,528.84Zm18.72,4.92c0-3.48,2.16-5.76,6.6-6.84,4-1,8.76-.72,14.4.6a36.29,36.29,0,0,1,14.4,6.6c4.32,3.36,6.48,7.2,6.48,11.4A14,14,0,0,1,249,559.44a169.38,169.38,0,0,1,15.72,15c8.88,9.48,13.32,14.88,13.32,16.44,0,1.8-.12,2.52-.24,2.4l-.36.36-.48.48c-4.32-3.36-11.4-10-21.12-19.68-6.6-6.84-11-11.52-13.08-14.16h-.48c-10,0-17.16-.24-21.84-.6l-.84,7c-1.44,11.4-2.88,19.32-4.32,23.88l-1.92-.24a7.77,7.77,0,0,1-.24-2.76c0-2.28.84-11,2.4-26l.24-2.52-1.2-.48c-.6-.36-.48-1.2.36-2.28a6.09,6.09,0,0,0,1.44-3.24l.12-.12,1.44-17.4A4.45,4.45,0,0,1,217.68,533.76Zm-1.32-78.12-6.48,57.72v2l.24.24c.6-1.08,8.52-1.44,23.52-.84l23.52,1.32.6,3.24c-1.8,2.28-4.92,3.6-9.24,3.72l-10.68-.36.12-.84c0,.36-.48.6-1.44.84L234,522.6l1.56.24a75.07,75.07,0,0,1-11.28.24l-16.08-.72a49.19,49.19,0,0,1-.48-8.88c0-4.8,1.2-16.56,3.72-35.4,2.28-17.4,3.72-26.64,4.08-27.72A15.7,15.7,0,0,1,216.36,455.64Zm42.48-81,.6,1.08.12,2.64c0,.84-2.76,10.56-8.16,29.16-6,20.28-9.72,33.6-11,40.2l-13.8-31.08c-5.52-12.6-10-23.52-13.44-32.76-1.2,7.08-3.12,16.68-5.64,28.56l-6,29.28h-.84l-.36-1.08a12.73,12.73,0,0,1-.24-2.52c0-2.16,1.56-11.88,4.8-29.28,2.64-14.4,4.8-26,6.6-35h.84c3,5.88,7.56,16.32,13.56,31.08,5.76,14.28,10.44,24.72,14,31.44h.24c.84-8.4,3.12-18.72,7.08-31.08q2.52-8.1,10.8-30.6Zm-7.56-110.76a25.6,25.6,0,0,1,5,15.36,17.7,17.7,0,0,1-4.2,11.52c-4.44,5.16-11.76,7.8-21.72,7.8l-4.92-.48-12.84-.84-1.44,4.08h-.84l-.36-1.08a14.6,14.6,0,0,1-.12-2.52v-2.16l-1.68-1.08a7.12,7.12,0,0,1,1.68-2.76c.12-10.44.48-20.28,1.32-29.4A232.48,232.48,0,0,1,215,235.8l-.36-.24a4.61,4.61,0,0,1-.24-1.92,5,5,0,0,1,1.8-3.36l.36-.36v0a14.14,14.14,0,0,1,3-2.28c11.16.36,18.6,2.64,22.56,7,2.28,2.4,3.36,5.88,3.36,10.56a22.19,22.19,0,0,1-1.8,8.52l-1.32,2.52A25.92,25.92,0,0,1,251.28,263.88Zm-16.56-3.48-18.48-.24-.72,7.2c-1.32,12.12-1.92,19.2-1.92,21.36v1.92l12.24,1,4.56.48c7.68,0,13.8-2,18.48-6.24,3.24-2.88,4.8-5.16,4.8-7,0-7.68-3.6-13.32-10.92-17l-4.8-1.92Zm-13.8-26.28-3.72.84.24,8.28c0,2.4-.24,6.24-.72,11.4A71.41,71.41,0,0,0,232,253.56v-.12l.36-.36.6.12a22,22,0,0,0,6.36-2.64c2.52-1.68,4-3.48,4.08-5.4,0-2.52-1.44-4.92-4.32-7.44a16.68,16.68,0,0,0-11.4-4.32Zm44.16,71.28q0,2.7-14.4,29.52c-10.2,18.84-15.84,31.08-17,37l-.48.48-1.2.6c-3-9.12-8.64-22.44-17.16-40.08-7.68-15.72-11.52-23.88-11.52-24.36l.12-1.8.24-.24.72-.84c5.76,7.32,11.16,16.8,16.32,28.44l10.8,27.24c2-6.84,6.84-16.8,14.52-30l16.92-29.52a2.79,2.79,0,0,1,1.56.84A5.22,5.22,0,0,1,265.08,305.4ZM144.24,244.2c-3,1.32-7.8,2.52-14.52,3.48L96.36,251q7,28.08,15.84,98,9,70.38,9,83.4a148.93,148.93,0,0,1-1.44,18.36,165.09,165.09,0,0,1-7,30.48c-9.24,27.36-24,41-44,41l-18.48-.24c-14-10.92-23.52-22-28.2-33.36-3.24-7.68-4.8-18.36-4.8-32a71,71,0,0,1,.36-9.36c.84-3.84,2.76-6.48,5.88-8l.6,3.24L22.56,450a44.93,44.93,0,0,0-1,6.36,60.16,60.16,0,0,0,6,26.88c4.8,9.48,12.6,18.36,23.28,26.4l15.72.24q29,0,42.48-36.72a134.92,134.92,0,0,0,6.48-26.4,115.25,115.25,0,0,0,1.32-14.28c0-3.48-1.44-18.12-4.44-43.92l-5.52-46.92c-.84-6.6-3.6-23.52-8.28-50.88-4-22.44-6-35.52-6.36-39.24l-16.56,1.92-38.4-.36c-12.6-2.28-20-3.84-22.32-4.56a5.85,5.85,0,0,1-3.24-2.16,8.52,8.52,0,0,1-.72-4.08,21.71,21.71,0,0,1,.24-3l.12-1.08,1.08-.48a7.86,7.86,0,0,1,3-.6l11,1.8C34,240.24,38.16,241.2,39,241.8l37.8-.36a331.08,331.08,0,0,0,35.28-3.6l22.32-4.08c5.88-1.08,9.72-1.32,11.64-1,2.28.48,3.36,2.16,3.36,5.16C149.4,240.6,147.72,242.64,144.24,244.2ZM79.32,18.6c-3.36-4.68-11.16-7-23.52-7q-29.88,0-38.76,64.2a388,388,0,0,0-3,68.64q0,22.5,2.16,35.28c3.48,21,10.8,31.44,21.72,31.44S59,205.68,68.76,194.64a75.32,75.32,0,0,0,8.52-11.52l3.12-5.28.72,1.2a7,7,0,0,1,.36,2.52c0,2.16-1,5.52-3,10a76.27,76.27,0,0,1-8.4,14c-9.12,12.12-19,18.12-29.52,18.12-15,0-24.72-13.08-28.92-39.24A185.79,185.79,0,0,1,9.48,157.2l.24-13c0-22,.12-35.76.48-41.16.6-9.84,2.28-25.44,5.28-46.92q1.8-14,4.68-22A59.09,59.09,0,0,1,34.08,12.48a33.48,33.48,0,0,1,15.36-9,31.76,31.76,0,0,1,16.08-.12,25.78,25.78,0,0,1,13.2,7.44,23.2,23.2,0,0,1,6.48,14l-.48,2.88-.48.48L83.4,29c-.6-.6-1.08-2.16-1.68-4.68A14.34,14.34,0,0,0,79.32,18.6Zm65.16,3.48-1.92,38.16c-.84,15.84-.48,28.56,1.08,38v42.24q-5.22,49.5-6.48,83.64l-1.32.24a21.18,21.18,0,0,1-1.32-8c0-7.08,1-26.4,2.76-58l2.64-47.64-1.08.84c-2.52,2-6.48,3-11.64,3-13.8,0-23.4-.48-28.68-1.44V130c-1,11.16-1.44,27.84-1.56,50-.84,19.8-3.84,36.24-9.24,49.56a6.44,6.44,0,0,1-1.8-3.12,12.82,12.82,0,0,1-.36-3.48c0-5.52.84-13.8,2.64-25,1.8-11.64,2.88-19.92,3-25,.24-6.72.72-14.88,1.32-24.36l1.68-24.36V111.6a1.75,1.75,0,0,1-.84-1.56l.48-1.92a14.15,14.15,0,0,1,.24-2.64l.12-.6V36.6c.24-1.08.84-7,1.8-17.4.6-7.44,2.28-12.72,4.92-15.72A11.79,11.79,0,0,1,102.6,10,126.22,126.22,0,0,1,101.52,26a120.16,120.16,0,0,1-3,16.32V105a189.8,189.8,0,0,0,31.2-2.64l9-.6.84.24c-.6-17.16-.72-31.92-.24-44l.36-12.72c.12-5.28.36-9.72.72-13.2l.36-13.44c.12-5.4.84-9.36,2.4-11.88C144,10,144.48,15.12,144.48,22.08ZM252.84,157.32l-11.28,34.44c-4.8,14-9.24,25.68-13.32,35.16L225,192.72l-3.48-35.4q-9.9,29.34-21.12,67.92h-.84l-.36-1.08a12.73,12.73,0,0,1-.24-2.52c0-5.76,3.72-19.68,11-41.76,7.08-21.6,11.52-32.76,13.08-33.36l3.48,35.28c1.08,13.32,1.68,25.08,1.68,35.28l12.24-33.6,12.6-35.4c1.32,5.64,3.24,17.64,5.76,35.76,2.16,15.36,4.56,27.24,7.32,35.76v4.8l-.48.48-.6,1c-3.72-9.48-6.36-20.76-8.16-33.84l-3.84-34.08ZM193.56,38.16V67.92l-.12,17.28c-.12,11.28-.48,20-1,26.16v53.52a88.37,88.37,0,0,0,.24,25.2v47l-.6-.72c-.48-.36-.72.12-.72,1.2l2.16,130.2q0,12.6-3.72,76.68-3.78,63.54-5.16,76.8l-1.2.24c-1.08-2.64-1.68-7.08-1.68-13.32l3.72-68.4c2.52-46,3.72-70.2,3.72-72.48l-2.4-121.8c0-1.08.12-1.56.48-1.44l.6.6v-48.6a231.85,231.85,0,0,1,.24-36.6V106l.48-1.68.6-1.56V18.24c0-3.84.84-6.6,2.4-8.28C192.72,16.08,193.32,25.56,193.56,38.16ZM309.36,69a4.91,4.91,0,0,1,.36,2.28,4.91,4.91,0,0,1-.36,2.28l-.72,1H251.52l-.6-1a7.88,7.88,0,0,1-.24-2.28c0-7.44.72-18.48,2.28-33,1.56-15.72,2.4-27.24,2.64-34.44h1.08a110.91,110.91,0,0,1,.72,14.88L257.28,38a137.46,137.46,0,0,1-3.12,21.6v7.8l54.48.6Zm52.32,103.8-.48.48-1,.84c-.72-.48-2.76-3.24-6-8.16-2.88-4.32-5.16-6.48-7-6.48q-29.16,0-47.16,54.24a284,284,0,0,0-12.36,56.16c-.84,9.84-2,27-3.6,51.6-1.08,18-1.92,32.4-2.4,43.2h.48c3.6-.24,7.92-2,13.08-5.52l28.44-.48.84-.6a10.19,10.19,0,0,1,3,3,5.93,5.93,0,0,1,1,2.64,11.23,11.23,0,0,1-.6,4.08,5.14,5.14,0,0,1-3.36,2.28l-29.52.48-3.48,1.08-4.92.6-5.16-.6-.24,10.68.84,32.16q1.44,37.26,4.56,68.16,9.9,98.1,32.4,98.16,24.48,0,33.48-24.48a118.37,118.37,0,0,0,4.92-19.68c1.56-7.8,2.76-12.84,3.84-15.12l.6,1a8.56,8.56,0,0,1,.24,2.28A101,101,0,0,1,361.08,537a130.85,130.85,0,0,1-5,23.52c-7.08,22.2-18.36,33.24-33.6,33.24-11.88,0-20.4-6.84-25.8-20.52a102.69,102.69,0,0,1-4.8-17.52l-2.4-15c-2.28-12.48-3.72-21.12-4.32-25.8A255.51,255.51,0,0,1,282.36,488c-.72-15.48-1.92-34.56-3.72-57.24-1.08-15.12-1.68-31.32-1.68-48.72q0-28.26,2.52-67Q282.18,273,285.6,255c1.8-8,4.68-18.36,8.76-31.08,5.28-16,8.64-26.76,10.2-32.28a64.58,64.58,0,0,1,13.92-25.92c5.88-6.6,12.24-11.16,19.2-13.68s12.48-2.4,16.92.36c4.92,2.88,7.32,8.28,7.32,16.32Zm93.72-111A258,258,0,0,0,432,42.36c-1.44-1-5-2.88-10.92-5.88-7-3.6-12.24-6.36-15.72-8.28a92.42,92.42,0,0,1-13.8-9.48L390.12,29c-1.68,10.8-2.64,18.84-2.76,24.12l-1.08,23.52L385,100.2c-.6,8.28-1.92,24.84-4.08,49.44C379.56,164.52,379,179.4,379,194.4l2.16,93.72c1.44,64.92,2.16,103.56,2.16,116.16q0,35.46-4.44,101.4-3.42,50.94-6.6,74,73.26-13.5,111-51.12c9-8.88,17.88-20.28,26.64-34.08C519,479.28,526,468,530.76,460.92c10.2-15,18.12-36.12,24-63.36a328.13,328.13,0,0,0,7.68-69.72q0-46.26-6.72-78.48C552,231.48,543.48,203,530.16,163.8q-7-21.06-24.72-48.48Q488.88,89.4,478.8,81.84C473.28,77.76,465.48,71,455.4,61.8Zm96.36,151.92c4.44,15.48,7.56,27.72,9.36,36.48a275.64,275.64,0,0,1,4.8,33.36c.84,11.4,1.32,26.16,1.32,44.16,0,20.76-2.76,45.24-8.4,73.2-6.36,31.56-13.92,54.12-22.92,67.56-4.68,7.2-12.24,18.84-22.44,34.92a251.38,251.38,0,0,1-28,35.16,239.84,239.84,0,0,1-18.84,16.8Q453.54,566,445.8,570.48c-7.44,4.44-19.68,9.6-36.84,15.24-17.76,5.88-30,8.88-36.72,8.88-3.48,0-5.64-1.2-6.48-3.48l-.36-3.6a9.78,9.78,0,0,1,1.56-5l.72-1.08-.12-1.8,5.4-79.8c3.6-53.64,5.4-85.8,5.4-96.72-.84-46.56-1.2-81.48-1.32-104.76l-1.44-46.56c-1.08-30-1.56-49.08-1.56-57.36.24-25.8,1.08-52.56,2.52-80q3.6-66.42,10.8-100.08a9.8,9.8,0,0,1-2.16-5.52q0-4,2.16-5.76l2.28,1.68L390.84.6l1.32,2.16a9.69,9.69,0,0,1,.36,3v1c5,3.36,11.88,7.44,20.4,12.36a251.09,251.09,0,0,1,26.88,17l25.08,19.32a229.73,229.73,0,0,1,23.88,21.84,224.41,224.41,0,0,1,29.64,40.56,191,191,0,0,1,18.36,43ZM565.44,105c1.8-.48,2.76-1.08,2.64-1.8l1.92,1.32a4.65,4.65,0,0,1,.48,2.64l-.24,2.52a4.6,4.6,0,0,1-2.88,2.4c-4.2,1.8-13.08,2.76-26.88,2.76l-.48-.72a80.47,80.47,0,0,0-1.92,17.4c0,2.4,1.32,5.52,3.84,9.36,3,4.44,6.36,6.72,10,6.72,7.32,0,13.68-3.12,19.08-9.48a49.94,49.94,0,0,0,5-7.08q2.34-3.78,3.24-4.32l.48,2c-.6,3.48-3,8.28-7,14.28q-7.74,11.88-15.48,11.88c-9.6,0-16.08-3.72-19.44-11a30.27,30.27,0,0,1-2.52-13.08,97.23,97.23,0,0,1,1.92-16.2c1.8-9.84,4.08-18,7-24.48,9-19.56,21.72-19.68,37.92-.12l-.36.48-.72.84a22.65,22.65,0,0,1-4.56-3.84L572.4,83.4a33.5,33.5,0,0,0-7.32-1.08c-10.56,0-18.24,7.92-22.92,23.64l-.36,1.32.84-.6C554.28,106.56,562,106.08,565.44,105Z" transform="translate(-9.48 -0.6)"/></svg>