<svg id="Layer_1" data-name="Layer 1" xmlns="http://www.w3.org/2000/svg" viewBox="0 0 595.57 842.18"><defs><style>.cls-1{fill:#fff;}.cls-2{fill:none;stroke:#fff;stroke-linecap:round;stroke-linejoin:round;stroke-width:0.38px;}.cls-3{fill-rule:evenodd;}</style></defs><rect class="cls-1" x="0.31" y="0.31" width="595.08" height="841.68"/><rect class="cls-2" x="0.19" y="0.19" width="595.2" height="841.8"/><path class="cls-3" d="M238.2,296.64c2.76,27.48,0,53.76-8.28,78.6-3.36,3.12-7.08,3.36-11.28.6a118.32,118.32,0,0,1-12.48-22c-5.64,16-1.8,29.16,11.64,39.84l12.72-.36a12.5,12.5,0,0,0,3.24-5.16,250.14,250.14,0,0,0,8.16-117.36C238.44,278,237.24,286.68,238.2,296.64Zm1-65-.48.84c-4,6.36-3.84,12.12.48,17l1.08-1.44a23.15,23.15,0,0,0,2.16-15.36l-.84-.6Zm36.24-37.08a95.32,95.32,0,0,0-3.72,22.68q-1.44,38.88-4.44,77.88a308,308,0,0,0,7,95.76,8.17,8.17,0,0,0,7.56,6.72c20.76,2.16,36-6.24,46-25.08a120.85,120.85,0,0,0,13.92-50.4c1.2-20.64,1.92-41.52,2.28-62.52a272.48,272.48,0,0,0-6.24-64.2c-.72.6-1.08,1.08-1.08,1.68q-.54,64.44-3.24,129-1.62,40.86-39,54.72Q280.5,386,278.88,373.2A548.86,548.86,0,0,1,277,257.4a396.35,396.35,0,0,0,.6-64.2A1.7,1.7,0,0,0,275.4,194.52Zm-29.76-1.08a580.69,580.69,0,0,0-93.84,3l-1.08,4.08a14.56,14.56,0,0,0,1.32,8.16c12.72.36,25.44.6,38.16.6a145,145,0,0,0-4,29.88c-.84,31.92-2.4,63.84-4.92,95.64a337.21,337.21,0,0,0,.84,64.32c.84-.24,1.2-.6,1.2-1a490.65,490.65,0,0,0,8.16-70.44q2.52-59.94,1.8-118.44c19.32.12,38.64-.24,58-1l1.56-3.24a11.27,11.27,0,0,0-2.28-11.28l-3.84-.36Zm207.36,14q-3.06,41.4-3.36,83.28a229.34,229.34,0,0,0-35.28,5.16q.72-26.46.36-52.92a74.4,74.4,0,0,0-7.08,31.08c-.6,32-2.64,63.84-6.12,95.64-1.32,12.36.24,22.92,4.92,31.8a29.82,29.82,0,0,0,5.4-13c1-5.88.36-9-1.68-9.24a36.11,36.11,0,0,1,0-8.88c1.68-20.4,2.88-40.68,3.72-60.84a179.26,179.26,0,0,0,35.64-2.4c0,9.72.12,19.56.48,29.4a206.38,206.38,0,0,1-1.8,32.28c-1.68,12.24-.12,22.8,4.68,31.8a340.41,340.41,0,0,0,5.52-71.4Q457,263.94,457,201,453.36,202.8,453,207.48ZM355.08,198a10,10,0,0,0,0,10.92l34,3.84q-20,100.26-9.36,195.12,9.72-89.46,14.16-179.76c.12-3.36.24-6.72.12-10.08l-.24-4.92,42.72.12a12.68,12.68,0,0,0-.36-13.32l-79-2.88Z" transform="translate(0.19 0.19)"/></svg>