<svg id="Layer_1" data-name="Layer 1" xmlns="http://www.w3.org/2000/svg" viewBox="0 0 301.68 210.96"><defs><style>.cls-1{fill-rule:evenodd;}</style></defs><path class="cls-1" d="M233.4,302.88l2.28,32.28c1.32,16.32-1.2,31.2-7.32,44.76q-12.6-1.62-19.44-11.16c-4.68,17.64,2.4,26.76,21.36,27.36A26,26,0,0,0,237.72,383a141.18,141.18,0,0,0,3.72-38.16c-.6-17.4-1.56-34.44-2.88-51C234.84,295,233,298,233.4,302.88ZM236,273.72a63,63,0,0,0,.36-35.28c-8,10.92-8.28,22.68-.6,35.52Zm69.84-62.88c-1.08,42.84-2.28,85.8-3.84,129-.36,10.68-1.08,21.48-2.16,32.28-1.2,12.12.36,22.8,4.8,31.8a29.83,29.83,0,0,0,4.8-17.88,562.74,562.74,0,0,1-.24-62.16c2-43.2,2.16-85.92.6-128.28C307.32,199.68,306,204.72,305.88,210.84Zm-62.16-15.72-1.32-1.32a691.15,691.15,0,0,1-80.16,5,13.88,13.88,0,0,0-8,3l.36,8.16,44.28-1.2q-3.06,73.62-4.08,147.48l-.24,25.08c0,7.56,1.44,13.92,4.44,19.08a256.4,256.4,0,0,0,6.6-66c-1.08-41.88-2.52-83.88-4.56-125.76L244.08,206C246.84,202.2,246.72,198.6,243.72,195.12ZM446.4,299.64l-24.72,4.08a383.61,383.61,0,0,0-4-81.24l-.6.24-1,.6q-3.78,74-6.24,148.32l-.12,4.56.12,4.32a106.5,106.5,0,0,0,1.92,16.2c.72,3.84,1.92,6,3.48,6.6l5.88-90.12,24.72.48q-8.46,45.18,1.8,87.84a11.84,11.84,0,0,0,1.2,3.24l4.92-93.24,2-116.16a229.09,229.09,0,0,0-9.6,76.68C446.64,281.28,446.64,290.4,446.4,299.64Zm-19.56-92.28.24-1.2.12-1.32.12-1.44-.24-1.44-.24-1.44-.84-2.4-.36-.84a262.3,262.3,0,0,0-43.56-3.36,115.07,115.07,0,0,0-42.84,8.52v8l43.92-.72A119.86,119.86,0,0,0,379.08,233q-5.22,74.88-5.88,149.4a50.15,50.15,0,0,0,3.48,19.32,7.52,7.52,0,0,0,2.76-6Q380,317.82,384,239.88l1.32-30.12,39.72.48A7.3,7.3,0,0,0,426.84,207.36Z" transform="translate(-154.2 -193.8)"/></svg>