<svg id="Layer_1" data-name="Layer 1" xmlns="http://www.w3.org/2000/svg" viewBox="0 0 517.97 435.74"><defs><style>.cls-1{fill-rule:evenodd;}</style></defs><path class="cls-1" d="M117.72,72.12C94.92,83.28,78,100.8,66.84,124.44A312.64,312.64,0,0,0,37.08,245.16q-2.7,63.9-2,128.16.72,60.3,43.68,102.12,34,33.12,70.92.6a78.84,78.84,0,0,1,14-10c15.84-8.52,24-20.4,24.6-35.64-16.44,11.64-32.88,23.76-49.08,36.36q-28.44,22.14-54.72-.12C61.32,447,47.64,422.16,43.68,392.16A628.65,628.65,0,0,1,38.4,295.8,536.72,536.72,0,0,1,51.84,187.2a227.36,227.36,0,0,1,40.92-87.12c16.68-21.84,35.64-24.48,57.12-8l1,1.68.6,1.56.36.84a2.81,2.81,0,0,1,2,2.28,3.71,3.71,0,0,0,1.32,2.4l.12.72v2.4l.12.72.36.6.36-.48C155.88,84.24,145,72.6,123.36,69.6Zm190,5.52c-4.08,9-6.12,19.2-6,30.84q.18,64.08-.36,128.28c-.36,43.08-1.08,86-2.16,129.12-.6,21.6-1.92,43.2-4,64.68a264.55,264.55,0,0,0,1.32,64.08A114.09,114.09,0,0,0,302,463.32c1.8-42.6,2.76-85.32,3.12-128.28l1.56-129.12Q307.62,140.94,307.68,77.64Zm-90.12.84a611.63,611.63,0,0,0-8.4,91c-.72,42.84-1.2,85.92-1.32,129-.12,43.32-1.44,86.28-4,129.12-.6,10.8-1.56,21.48-2.88,32.16-1.56,12.12.24,22.68,5.16,31.92a281.58,281.58,0,0,0,4.08-42.24c1-42.84,1.68-85.92,2.28-129l.48-33.12a353.66,353.66,0,0,0,43.56,2.64q-.36,27.54-.36,55.08-.18,64.26-3.48,127.92c-1.32,8.16-.24,14.88,3.24,20.28a87.63,87.63,0,0,0,5.52-30q.72-64.44.36-129l.24-44.4h.36a7,7,0,0,0,1.56-4.56v-1.68l-.12-.84-.48-1.56-1.08-1.8c.36-24.84,1.2-49.56,2.28-74.16a1090.16,1090.16,0,0,0-1.32-128.4c-2.28,2.52-3.36,5.88-3.36,10.08.36,43.2-.24,86.28-1.56,129.12l-1.56,62.64a201.82,201.82,0,0,1-37.08-1.32l-2.16.24-3.24.48-1.2.36q.9-43.56,2.16-87.12c.48-16.2,1.32-32.4,2.4-48.6a478.53,478.53,0,0,0,.36-64.2Zm261.6,221.4,3.36,1.68A130.06,130.06,0,0,0,535,284.4l1.32-5.64-2.76-3.84a210.74,210.74,0,0,0-54.12,16l-.6,1.68ZM384.24,76.56,384,81.24l-1.68,2.4Q371,139.26,362.76,196.32q-9,63.18-19.08,126Q333.42,385.86,321,448.92c-1.08,5.4-2.4,10.56-4,15.72-3.72,11.88-3.36,22.56,1.08,31.92a268.14,268.14,0,0,0,9.24-38.16L348,332.28q10.26-62.82,19.56-125.88,8.28-57.06,16.2-113.52a742.72,742.72,0,0,0,5.76,105.6,405.84,405.84,0,0,1,3.24,64,184.2,184.2,0,0,0,5.52,50.28,68.72,68.72,0,0,0,3.24,17.4,9,9,0,0,0,4.44-7.8c.6-17.88,1.68-35.88,3.48-53.76q6.3-63.72,18.12-126.48l2.64-15.24q.9,59.94,4.68,119.52L443,374.76c2.76,42.84,5.88,85.56,9.12,128.28q.54,2.88,3.24,2.16a3.71,3.71,0,0,0,1.32-2.52,187.4,187.4,0,0,0,.24-35.76L446,338.88q-5.58-63.9-8-128.4c-1.56-39.72-2.64-79.2-3.48-118.44l.84-13.32-1.08,4v-.36l-1.2,4.92a695.63,695.63,0,0,0-16.32,85q-7,53.64-14.76,107.16c-2.28-24.84-4.68-49.56-7.2-74.4q-6.48-63.18-8.4-126.72l-.6-.84-1.08-.84Zm153.24,60.36q8.1-35.46-25.56-49v.12a19.6,19.6,0,0,0-6.48,1.44Q481.5,116,477.24,152.76a832.31,832.31,0,0,0-5.52,96.72q0,62.46-.6,124.92c-.36,34.68,6.84,67,21.84,96.72l7.08-.36a203.1,203.1,0,0,0,42.12-43.32c10.2-14.28,13.08-29,8.76-44.28l-.84.12q-.9.18-1.08.72a2.25,2.25,0,0,0,.84,1.56c-9,27.72-25.8,50.64-50.4,69l-5.16-.24a8,8,0,0,1-2.76-4.08,329.09,329.09,0,0,1-14.4-106.32q1.62-64.44.36-129.12a232.46,232.46,0,0,1,22.68-106c1.8-3.72,4.68-5.4,8.4-5.28,17.64,1.08,27.24,11,28.8,30.12l-.48,1.68a2.29,2.29,0,0,0-.24,1.56l.48.84Z" transform="translate(-34.9 -69.6)"/></svg>