<svg id="Layer_1" data-name="Layer 1" xmlns="http://www.w3.org/2000/svg" viewBox="0 0 298.52 211.08"><defs><style>.cls-1{fill-rule:evenodd;}</style></defs><path class="cls-1" d="M242,295.44a739.37,739.37,0,0,1-6.36,85.2c-2.88,2.64-6.24,2.88-10.08.6a173.91,173.91,0,0,1-14.28-19.44,12.74,12.74,0,0,0-2.88,9.72c1.92,17.88,11.4,26.88,28.56,27.24a24.65,24.65,0,0,0,6.72-13.68,324.32,324.32,0,0,0,3.72-40.68,357.57,357.57,0,0,0-2.28-53.52C243.12,291.48,242,292.92,242,295.44Zm4.68-19.68c4.2-10.92,4.32-22.2.6-33.84a44.93,44.93,0,0,0-1.08,33.48Zm68.64-72.84c-.12,23.16-.84,46.2-2,69.12q-3.24,63.72-2.76,127.32c.6,2,1.8,2.52,3.6,1.56,2-25.8,3.72-52,4.8-78.6q2.7-64.26.84-127.44C316.92,196.2,315.48,199,315.36,202.92Zm-112.68,1.32L201,229.08l-1.32,24.84-1.08,25-.6,25c-.12,8.16-.48,16.32-.84,24.36-.72,13.56-1.8,27-3.12,40.44a65.56,65.56,0,0,0,4.56,31.8l.48-.84.24-.84,1.08-9.24,1-9.24c1-9.24,1.68-18.6,2.16-28,1.08-19.56,1.68-39,2-58.44q.54-44.82-.48-89.64l48.36-.48-.24-9.24-.36-.12-.48-.24h-8.52l-8.52-.12a180.42,180.42,0,0,1-25.44-2.16,118.58,118.58,0,0,0-36.84-.24,43.09,43.09,0,0,0-20.64,9.12l.24,5.64,24.6-1.44Zm170.64-7c-3,34.2-4.92,68.88-5.52,103.8q-.72,32.58-3.6,64.8c-1.08,12,.12,22.8,3.72,32.4a12.55,12.55,0,0,0,4.2-9.48c.84-21,1.8-42,2.88-63.24l1.08-29.64a199.48,199.48,0,0,0,37.92.36l.72-.84a12.54,12.54,0,0,0-.72-13.8,113.52,113.52,0,0,0-37.8,4.44c.36-29.88-.48-59.4-2.52-88.8Zm3.36,1.44L376,209.16l72.6,5.4a9,9,0,0,0,2.28-7.32l-.12-.72-.36-1.68-.84-2.4-.48-.84-.6-.36a359.73,359.73,0,0,0-70.68-3.12Z" transform="translate(-152.4 -190.32)"/></svg>