<svg id="Layer_1" data-name="Layer 1" xmlns="http://www.w3.org/2000/svg" viewBox="0 0 306.83 206.61"><defs><style>.cls-1{fill-rule:evenodd;}</style></defs><path class="cls-1" d="M243.6,295.8a450.18,450.18,0,0,1-3.12,83.52,14,14,0,0,1-8.4,3.48c-7.44-.72-13.32-4-17.52-9.72.36-5.88-1.8-9.12-6.24-9.72-4.8,15.72.12,27.36,14.88,34.68,6.12,3,11.4,2.28,16-2.16,9.12-9,13.44-20.16,13-33.6-1.08-32-2.52-63.72-4.08-94.92A64.57,64.57,0,0,0,243.6,295.8Zm4.08-65v.12c-6.36,7.8-6.72,14.52-1,20.16C252.24,244.44,252.6,237.72,247.68,230.76Zm1.68-35.28L247.8,194a667.52,667.52,0,0,0-97.92,4.8,12.67,12.67,0,0,0-.24,9.6l1.32,2.64,40.32,1.08q-.9,72.9-4.44,145.92a69.61,69.61,0,0,1-1.44,12.36c-1.92,10.44-.6,19.68,3.84,27.84A358,358,0,0,0,199,300.6q-1.62-44.1-2.52-88.44l54.36-3.36Q254.58,201.6,249.36,195.48ZM353.52,229.8c1.08-12.84-1-23.28-6.12-31.44a63.77,63.77,0,0,0-2.76,25.92A470.29,470.29,0,0,1,341,336.12c-4.68,30.48-23,45.24-54.84,44.4a5.73,5.73,0,0,1-5.64-4.08c-5.76-16.08-7.8-33.24-6.24-51.48q5.4-64.8,6.48-127.44a2.15,2.15,0,0,0-2.28,2c-2.52,14-4.44,28.2-5.76,42.72a1139.67,1139.67,0,0,0-4.8,128.4A27.18,27.18,0,0,0,272.88,386q16.38,23.58,45,7.44a45.9,45.9,0,0,0,20.4-23.16C352.56,336.12,357.72,300,354,262.08A181.15,181.15,0,0,1,353.52,229.8Zm19.8-28.92a15.84,15.84,0,0,0-1.68,7.44q.18,64.44-4,128.28a258.81,258.81,0,0,1-4.08,32.16c-2.4,12.6-1.08,23.16,4.08,31.68A15.94,15.94,0,0,0,373,389.16c1.8-33,3.36-66,4.92-99A437.67,437.67,0,0,0,424.8,293l1.08-1.44a13.71,13.71,0,0,0,1.68-9.72l-.12-.72a7,7,0,0,0-2.64-4.92h-7.56A197.46,197.46,0,0,1,378.48,274l.6-13.08a469.35,469.35,0,0,0-1-53.76,207.45,207.45,0,0,0,75.12,7.2,8.91,8.91,0,0,0,2.4-5.64V207l-.12-1.56-.24-2.52a5.45,5.45,0,0,0-2.4-4.08h-1.56a442.62,442.62,0,0,1-74.64-3.48l-1.56.72-.84.72-.36.72-.36,1.68-.24,1.56Z" transform="translate(-148.81 -193.83)"/></svg>