<svg id="Layer_1" data-name="Layer 1" xmlns="http://www.w3.org/2000/svg" viewBox="0 0 509.09 359.91"><defs><style>.cls-1{fill-rule:evenodd;}</style></defs><path class="cls-1" d="M232.68,109.32l-25-.24Q133,109.26,59.28,115l-.36.84a11.89,11.89,0,0,0,0,6.48l.36.84q47.16.54,94.8-.36a334.43,334.43,0,0,0,.48,61.92c3.72,40.44,5.64,81.36,5.52,122.76a359.73,359.73,0,0,1-3.24,48.36c-4.44,33.48-24.72,54.24-60.6,62.28a25.85,25.85,0,0,1-15.36-1.44Q47.22,402.24,33,367a7.12,7.12,0,0,0,6.24,0,23.19,23.19,0,0,0-12.72-14.88,4,4,0,0,0-1.44,4,117.78,117.78,0,0,0,24.36,57.12q20,25.74,51.12,16.68a97.84,97.84,0,0,0,52.08-35.28,30.12,30.12,0,0,0,6-13.92,505.62,505.62,0,0,0,3-128.52,701,701,0,0,1-2-125.76l.12-.84-.24-2.88,74.76-2.76a8.53,8.53,0,0,0,.48-9.48l-.72-.84Zm8.64,22q-4.86,39.42-6.12,80.28c-1.32,43-2.28,86-2.64,129.12a320.83,320.83,0,0,1-7,63.72q-3.78,18.18,2.16,32a606.42,606.42,0,0,0,11-112c.24-43.08,1.56-86.16,3.84-129a473.66,473.66,0,0,0-.72-64.2Zm140.52-18.6A192.07,192.07,0,0,0,376.68,167a1203.63,1203.63,0,0,1-1.32,128.28q-4.14,63.18-9.48,126l-3.12-14.16c-3.24-15.6-7-31.08-10.92-46.56q-16.2-62.46-31.68-124.8t-27.6-124.44l-.12-4-.6,3.48a.57.57,0,0,0-.6.6l.12,1.8a335.55,335.55,0,0,0-5,52.92c-.72,42.84-2.16,85.68-4.32,128.28q-3.24,64.44-11.4,128c-1.56,11.76-.84,22.56,2.16,32.28a493.8,493.8,0,0,0,10.44-91.44c1.08-42.84,3.12-85.68,6.12-128.28,2.52-35.16,3.6-70.08,3.48-104.76a617.15,617.15,0,0,0,11.76,73.08q14,62.46,31.56,124.44,17.46,62.28,29.16,124.56l.6-.12,1.2-4.2a42.31,42.31,0,0,0,2.52,7.8c2.64-28.44,4.56-57.48,5.88-86.88l5.28-128.16c1.68-43.32,2.16-86.16,1.56-128.28ZM532.44,124a11.22,11.22,0,0,0,1.56-7.68,16.62,16.62,0,0,0-1.2-4L529.56,111c-9.48-9-20.76-12.48-33.84-10.56l-36.84,4-36.72,2.16-24.48.6v8.16q36.36,10.08,73.8-.72L456.36,459.84a1817.39,1817.39,0,0,0,18.12-271.08c-.12-14.88-.36-29.76-.84-44.64l-1-29.76c20.52-5.64,39.12-2.28,56,10.08Z" transform="translate(-25.02 -99.93)"/></svg>