<svg id="Layer_1" data-name="Layer 1" xmlns="http://www.w3.org/2000/svg" viewBox="0 0 552.7 429.72"><defs><style>.cls-1{fill-rule:evenodd;}</style></defs><path class="cls-1" d="M193.2,81.72Q109.86,86.94,25.44,85c-1.56,4-1.2,7.44,1.08,10.56Q67,97.5,107,97.2a47.35,47.35,0,0,0-2.16,10.44c-3,42.72-4.08,85.8-3.48,129.12.6,42.84.24,85.92-1.08,129q-2,63.9-.72,127.44a2.15,2.15,0,0,0,2.16,2.16,1.52,1.52,0,0,0,.84-1.32,465.25,465.25,0,0,0,3.72-48.72q1.62-64.26,1.2-129L106.8,187.2a385.09,385.09,0,0,1,4.92-64.56,82.59,82.59,0,0,0,.36-25.44l82-3.36.24-.72A12,12,0,0,0,193.2,81.72Zm91.2,13q-1.62,58.5-1.2,117.72.36,48.06-1.32,95.76a364.74,364.74,0,0,1-26.16,124.08q-15.84,39.42-54.36,54.36c-4,1.44-7.32.72-10.08-2q-27.18-26.82-26.64-66c.36-31.56,1.68-63,3.72-94.2q4.5-64.62,7.92-129c1-16,2.76-31.92,5.28-47.64,1.92-12.12,1.08-22.68-2.64-31.68a931.15,931.15,0,0,0-9.84,97.32q-3.24,64.26-8.28,128.28a633.08,633.08,0,0,0-.6,96.6c1.8,25.8,12,47.16,30.84,64.2a12.88,12.88,0,0,0,7.68-.12c29.16-9.48,49.8-28.8,62-57.72a252.38,252.38,0,0,0,17.16-61.2,1264.56,1264.56,0,0,0,12.6-127.92A1074.72,1074.72,0,0,0,289.2,128l.24-1a84.34,84.34,0,0,0-1.08-38C285.84,89.64,284.52,91.56,284.4,94.68Zm139.44,60.24a91.42,91.42,0,0,1,3.84,32.28,71.87,71.87,0,0,1-18.6,42.24,68.89,68.89,0,0,1-39.48,22.2L353,253.32l-2.88-1.44-2,2.64-3.6,1.32-1,8.76a225.25,225.25,0,0,1,41.16,11.52q31.14,12.06,38.88,46.08,14.94,66.6-13,127.8c-6.84,15.12-18.36,25.44-34.44,31a56.92,56.92,0,0,1-40.32-.84l-4.44-1.8,8.52-7.68L321.24,474A1817.73,1817.73,0,0,0,345,203.76q.72-51.12-2.88-102.12c18-1.92,34.8,2.16,50.4,12.12A72.35,72.35,0,0,1,423.84,154.92Zm-65.52-66.6q-12.06-2.52-20.88,4l-.24.84-.36,3.24.36,3.24.24.72.72.84a87.39,87.39,0,0,0-.6,14.16q1.26,41.58.24,83.52-1.62,64.08-5.64,127.56a1098.61,1098.61,0,0,1-15.72,128.88c-1.44,8-3.24,16.08-5.4,24-3.24,12.12-2.52,22.92,2.28,32.16l4.56-20.64.36.84.48.84q37.08,22.86,74.16.72a37,37,0,0,0,13.44-13.44q33.48-57.24,28.32-124.68c-2.52-32.76-13.32-61.92-32.52-87.72l-1.08-.84A67.89,67.89,0,0,0,389.52,259a84,84,0,0,0,12.36-8.52,75.66,75.66,0,0,0,13.44-14.28q25.92-35.46,15.48-79.92C421.92,118.68,398,96,359,88.44ZM563.4,124.2c-.84-20.64-11.88-31.08-33.12-31.44Q482.58,112.2,475,165.6A914.72,914.72,0,0,0,466.2,276q-1.26,64.62-3.72,129a242.55,242.55,0,0,0,9.72,79.2C479,507.6,495,515,520.32,506.76c17.64-5.88,31.08-16.2,40.44-31a156.19,156.19,0,0,0,11.76-21.6c6.36-14.28,6.24-26.88-.48-38a3.3,3.3,0,0,0-2.28,2.4l-1,3.24-.36.84a3.47,3.47,0,0,1-4.08,1.32h-1l.36.72a9.9,9.9,0,0,0,3.84,2.4l.6.36a72.32,72.32,0,0,1-11.52,31.68q-16.56,25.38-48.12,32.76c-8.76,2-15.72.24-20.76-5.4q-19.62-22.32-18.6-54.12c1.44-43.08,2.28-86,2.52-129.12l.12-11.4a190.88,190.88,0,0,0,51.72,2l.6-1c2.4-5.16,2.16-10-.84-14.52a300.69,300.69,0,0,0-51.24,3.24q1.26-52.92,7.2-105.12,4.86-42.84,41-65.16c7.44-4.68,15.12-5.16,22.92-1.68A50.58,50.58,0,0,1,563,125Z" transform="translate(-24.49 -81.72)"/></svg>