<svg id="Layer_1" data-name="Layer 1" xmlns="http://www.w3.org/2000/svg" viewBox="0 0 545.68 401.38"><defs><style>.cls-1{fill-rule:evenodd;}</style></defs><path class="cls-1" d="M158.76,158.88A291.92,291.92,0,0,1,190.92,285a263.34,263.34,0,0,1-11.76,86.76l-11.88,22.92a190.58,190.58,0,0,1-40.92,55Q96.84,474.3,58.2,470.28l-.36-.72a8.73,8.73,0,0,0-2.28-2.4c3-37.56,5.16-75.12,6.72-112.8Q64.8,290.1,69,226.2c2.52-37.8,3.6-75.36,3-112.92q53.64-4.32,84.12,39.36C157,154.8,157.8,156.84,158.76,158.88Zm-87-61c-2.52,2.88-3.72,6.72-3.84,11.4-.84,42.84-2.4,85.56-4.92,128.16-1.32,21.48-2.28,42.84-2.88,64.2q-2,64.62-7.68,128.4a174.82,174.82,0,0,1-3.72,23.76,57.21,57.21,0,0,0-1.44,13.92c-1.56,4.68-1,8.88,1.92,12.6l1.2,1.32,2,4.32,1.2-1.2,3.24,2.28c18.84,2.28,36-1.08,51.36-10.08a142.29,142.29,0,0,0,50.28-45.72q36.9-54.54,37.68-120.36c.12-21.72-.72-43.08-2.52-64.32a225.84,225.84,0,0,0-36.12-104.76q-23-35.46-65-40.68a47.32,47.32,0,0,0-20.64,2.28Zm281,48.48q-.18-18.9-7.56-31.68a2.92,2.92,0,0,0-1.2,1.56,94.7,94.7,0,0,0-2.16,27.48q4,63.54,7.08,127.32A349.2,349.2,0,0,1,331.68,398.4q-16.56,49.86-58.2,79.68c-12.6,2.64-22.2-1.44-29-12.24q-19.8-31.32-20.88-69.72c-.6-21.24-.24-42.36.84-63.36q2.7-48.06,7.2-95.64a964.36,964.36,0,0,0,3.48-127.56c-3,24.36-5.52,49.56-7.68,75.36-3.48,42.84-6.6,85.8-9.36,129.12a670.27,670.27,0,0,0,3.72,125.16q4.86,38.7,37.8,55.08a9.61,9.61,0,0,0,8.28.6q32.58-12.6,49.68-43.68A291.81,291.81,0,0,0,339,401.64a360,360,0,0,0,17.16-127.8C354.36,231.24,353.16,188.76,352.8,146.4ZM468.12,172q12.6,58.32-15.84,108.72a34.52,34.52,0,0,1-15.48,14.4,59.55,59.55,0,0,1-38.16,4.32l2-56.64c1.08-39.48.36-78.48-2.4-117.24Q433,121,454.8,145.68A54.92,54.92,0,0,1,468.12,172Zm-55.8-56.88c-5.4-1.2-10.32-.84-14.64,1.2l-.24-1.8-.12,2-.36.12-.24.84a10.11,10.11,0,0,0-.48,3.24,8.36,8.36,0,0,0,.6,3c-1.56,24.6-2.64,49.92-3,76-.84,42.6-1.92,85.44-3.24,128.28a1001.33,1001.33,0,0,1-12.24,128.76c-2,12.24-1,22.92,3.12,31.92A9.74,9.74,0,0,0,384,483c5.4-42.36,9.24-84.84,11.76-127.56l2.16-41q36.72,12.78,55.2-19.2,32.58-56.34,20.52-122.76Q464.28,121,412.32,115ZM553.68,129a38,38,0,0,1,11,4.92l9.72,14.4c.6-17.52-7.32-28.08-24-31.68-15.84-3.48-28.2,1.92-37.08,16a130.58,130.58,0,0,0-17.28,42.6,385.8,385.8,0,0,0-6.6,44l-2.76,31.56-2.52,31.8-2.76,40c-.84,13.44-2,26.88-3.36,40.2s-2,26.64-2.16,40l-.24,39.84c-.12,16.56,4.56,31,14,43.32q16,20.88,40,9.24a140.9,140.9,0,0,0,38.16-26.88A83.22,83.22,0,0,0,591,428a32.51,32.51,0,0,0-1.2-20.52l-4.8,4.8.72,1.8q-14.58,38.52-49.68,59.4c-13.92,8.28-27.72,8.4-41.28.36-6.24-3.72-9.84-9.6-10.68-17.52a326.87,326.87,0,0,1,0-70.2l1.44-16.08.72-16.2,1-26.28,1.2-26.16a132,132,0,0,0,56,4.44q5.4-5.94,1.8-12.6a9.18,9.18,0,0,0-2.88-3.48l-54.48,2.88Q483.66,205.2,529.08,138C535,129.24,543.24,126.24,553.68,129Z" transform="translate(-46.44 -97.92)"/></svg>