<svg id="Layer_1" data-name="Layer 1" xmlns="http://www.w3.org/2000/svg" viewBox="0 0 595.57 842.18"><defs><style>.cls-1{fill:#fff;}.cls-2{fill:none;stroke:#fff;stroke-linecap:round;stroke-linejoin:round;stroke-width:0.38px;}.cls-3{fill-rule:evenodd;}</style></defs><rect class="cls-1" x="0.31" y="0.31" width="595.08" height="841.68"/><rect class="cls-2" x="0.19" y="0.19" width="595.2" height="841.8"/><path class="cls-3" d="M233.76,283.92a43.62,43.62,0,0,0-4.68,22.56,218.69,218.69,0,0,1-8.88,70.68,11.22,11.22,0,0,1-12.6.24,14,14,0,0,0-6-4.8c-5.16,8.76-3.72,16.32,4.08,22.68,5.64,3.12,11.16,3.12,16.68,0a84.42,84.42,0,0,0,11.52-41.4c.36-14,1.08-28,2.4-42C237.12,301.2,236.28,292,233.76,283.92Zm2.16-36.12-.84-2.4c-5.16,5.64-6,11.28-2.4,16.92A14.64,14.64,0,0,0,235.92,247.8Zm76.56-44,1.2,4a68.5,68.5,0,0,1,24,35.28,163.17,163.17,0,0,1,6.6,43.68,194.32,194.32,0,0,1-4.2,43.32c-3.48,16.44-12.24,28.8-26.16,37.32q-23,14.22-38.88-9.24a67.48,67.48,0,0,1-11.64-42c.72-14.28,1.68-28.68,2.76-43.08a102.57,102.57,0,0,1,13.32-43.68,66.22,66.22,0,0,1,27.84-26.64Zm1.08-11c-22.92.6-38,13.32-45.36,37.92a263.23,263.23,0,0,0-10.92,70.92,274.55,274.55,0,0,0,2.16,39.72A97,97,0,0,0,268,370.8a36,36,0,0,0,18.36,17.88q25.38,11.52,42.84-13a113,113,0,0,0,19.44-44.88,192.14,192.14,0,0,0-.6-78.48,181.13,181.13,0,0,0-14.76-42.6l-7-13.8-10.32-5Zm-69.36,15,.24-3.6-.36-3.6-.84-2.28-1-1.2-.72-.6a207,207,0,0,1-42.24-1.08,133.33,133.33,0,0,0-46.8,1.56l-2,.84-.6,8.16L193,211.44Q187.2,287.76,180.84,364c-1.08,12.36.72,23,5.28,31.92a562.07,562.07,0,0,0,8.28-64.8,1044.6,1044.6,0,0,0,2.16-119.52l46.08.36A11.18,11.18,0,0,0,244.2,207.72ZM456.72,196.8a252.89,252.89,0,0,0-3.84,53.52l1.2,47.88-5.52-.48-5.88-.36a82.65,82.65,0,0,0-24.48,1.44c-.6-26-1.92-51.84-4.2-77.4h-.6a520.46,520.46,0,0,0-3,83.52,321.43,321.43,0,0,1-3.6,64.56q-3.06,18.54,4,32a187.47,187.47,0,0,0,7.68-52c.24-12.6.24-25.08.12-37.56a334.74,334.74,0,0,0,35.76,2.64,368.8,368.8,0,0,1-4.8,56.4c-2.16,12.36-.72,23,4.44,31.8A338.34,338.34,0,0,0,462,325c-.36-43.08-1.92-85.92-4.68-128.28Zm-103.32,2v11.4l33.12.12Q386,274.8,379.2,338.64q-2.16,20.16-3.6,40.68a41.57,41.57,0,0,0,.84,12.24,44.62,44.62,0,0,0,3.84,11l.36-.36a965.4,965.4,0,0,0,10.92-116.16c.6-20.16.36-40.32-.48-60.6l-.72-15.12,38.28,1.2.6-1.2a16,16,0,0,0,1-10.32l-1-3.24-.48-.84-.24-.36a192.54,192.54,0,0,0-59.28.6Z" transform="translate(0.19 0.19)"/></svg>