<svg id="Layer_1" data-name="Layer 1" xmlns="http://www.w3.org/2000/svg" viewBox="0 0 306.82 214.56"><defs><style>.cls-1{fill-rule:evenodd;}</style></defs><path class="cls-1" d="M238.08,277.2a186.62,186.62,0,0,0-2.4,49.32,140.34,140.34,0,0,1-5.16,52,30.61,30.61,0,0,1-10.32,2.76,117.52,117.52,0,0,1-13.2-9.72c-4.44,8-3.24,15.6,3.48,22.68a48.4,48.4,0,0,0,11.4,5.16,49.74,49.74,0,0,0,11.28-6.6,11.2,11.2,0,0,0,4.2-6.48,202.67,202.67,0,0,0,5.52-48.36,459.51,459.51,0,0,0-4.32-60.84Zm1.32-38.52c-.48-.12-.72-.12-.84.12-3.72,8.28-3.84,16.32-.48,24l.72-.72A31,31,0,0,0,239.4,238.68Zm31.92,25.68q.72-39.06,32.76-57.6c10-.36,18.72,2.88,26.52,9.48Q359,275.1,345.12,339.6c-6.6,30.36-26.16,44.88-58.8,43.32-3.24-.12-5.52-1.44-6.84-4.2-12.72-26.28-16.44-54.48-11-84.36A180.13,180.13,0,0,0,271.32,264.36ZM319.2,193.2a56.72,56.72,0,0,1-15.12-1.08c-14.16,5.64-23.76,15.36-28.68,29.16a243.54,243.54,0,0,0-8.76,30.36,310.88,310.88,0,0,0-.48,126.72c3.72,18,15.12,25.2,34.32,21.48,28.44-5.4,45.36-22.08,51-50a264.11,264.11,0,0,0-4.32-126.24c-4.2-15.12-13-25.44-26.28-30.84Zm-86.52.84L152,197.52a10.69,10.69,0,0,0-2,8.76,4.38,4.38,0,0,0,1.32,2.4L195,210.24l-.12,5.16c.6,16.8.84,33.6.48,50.28L192.72,394c.48,2,1.68,2.52,3.48,1.56q4.32-52.74,4.44-106.32c.12-8,.48-16.08,1.2-24.12a224.86,224.86,0,0,0-1.56-54.72c14.88.12,29.76,0,44.52-.36a14.82,14.82,0,0,0,1.68-9.84,9.67,9.67,0,0,0-1.68-4,.87.87,0,0,0-.72-.48ZM387,210a154.7,154.7,0,0,0-22.8,70.44,293.34,293.34,0,0,0,7.56,94,30.2,30.2,0,0,0,8,14.28q31,31.14,65.16,1.8l2.16-1.92q.18,10.26,5,17.28a1.93,1.93,0,0,0,.48-.84,179.81,179.81,0,0,0,2.76-28.68,22.91,22.91,0,0,0-.48-16,167.9,167.9,0,0,0-3.12-21.84,37.69,37.69,0,0,0-15.6.72l-.48,1a13.67,13.67,0,0,0,.12,10.44,96.46,96.46,0,0,1,12.48,2.76l.36,5.52-.36-.12h-.48a5.41,5.41,0,0,1-.12,4.32c-8.28,18.36-23,25.8-44.52,22.44a24.76,24.76,0,0,1-18-11.88c-11.64-19.08-16.8-40.32-15.24-64l1.8-30.84q2.52-43.38,33.84-71.28A67.18,67.18,0,0,1,451.32,226c1.56-1.44,2-3.12,1.2-4.92-7.92-19.56-23.52-29.4-46.68-29.76A57.32,57.32,0,0,0,387,210Z" transform="translate(-149.79 -191.28)"/></svg>