<svg id="Layer_1" data-name="Layer 1" xmlns="http://www.w3.org/2000/svg" viewBox="0 0 465.54 299.1"><defs><style>.cls-1{fill-rule:evenodd;}</style></defs><path class="cls-1" d="M144.84,177.84l-2.16,46c-.48,9.36-.72,18.12-.6,26.28.12,13.8-.24,27.72-.84,41.52l-2.4,45.84c-.6,10,.6,19,3.84,27l6-113.64,40.92.24q-2.16,63.9.6,127.44a7.22,7.22,0,0,0,2.4,5.16,439.39,439.39,0,0,0,3.48-77.52c-.72-18.6-.84-37.32-.36-55.92l3.36-.48-.36-8.4-2.76-.48,1.2-109.56a832.86,832.86,0,0,0-7.56,109.44L148.92,243l2.88-108.84A179.77,179.77,0,0,0,144.84,177.84Zm-82.2-33.72c10.2-14.28,23.52-19.68,40-16.32q14.58,2.7,18.36,18.36c5.88-10.92,1.56-20.28-13.2-28.2q-28.62-15.3-48,16.44Q17.1,203.7,22.68,287.64A249.17,249.17,0,0,0,41,366.6a93.74,93.74,0,0,0,12.72,21.72,112.33,112.33,0,0,0,14.52,15.6A37.43,37.43,0,0,0,79,410.4a24.46,24.46,0,0,0,12.48,1.44,133.17,133.17,0,0,0,23-6.84,76.89,76.89,0,0,0,29.28-20.76q4.5-5.22,1.44-11.52Q124,391.8,94.44,394.92,62.94,398,48,363.48q-30.78-72.54-13.92-152.4a185.56,185.56,0,0,1,25.2-61.8Zm238.44-12.36a78.19,78.19,0,0,1,24.72,19.08c16.92,19.8,26,43.56,27.36,71A242.4,242.4,0,0,1,325,348.36a87.25,87.25,0,0,1-25.2,29.76,51.49,51.49,0,0,1-13.32,7.32,44.37,44.37,0,0,1-17.4,2.4,51.88,51.88,0,0,1-22.92-7.56,14.79,14.79,0,0,1-7-8.52,270.13,270.13,0,0,1-13.68-118.08A331.55,331.55,0,0,1,240.72,183a105.13,105.13,0,0,1,23-38.52c10.44-11.16,22.68-16.08,36.72-14.88Zm-60.84,36.36A320.19,320.19,0,0,0,233,376.44c3.24,10.8,10.32,17.64,21.24,20.64,29.88,8.28,52.32-.72,67.32-26.76a250.34,250.34,0,0,0,29.88-82,262.47,262.47,0,0,0-7.56-125.76q-13.14-42.66-58.2-44A148.46,148.46,0,0,0,247.8,154.2,54.19,54.19,0,0,0,240.24,168.12Zm230.52-17.64q-26.64,32.58-31.2,76.68-3.42,31.5-6.48,63.36-3.42,36.18,11.76,66.72l4.8,2.4a9.58,9.58,0,0,0,6.12,1.08c20.16-3.48,28.56-14.64,25.32-33.24a8.74,8.74,0,0,0-5.16,4.56,6.45,6.45,0,0,1-2.4,2.64c-2,10.68-9,14.52-21,11.64A5.87,5.87,0,0,1,448,343c-7.56-15.48-10.56-32.28-9.12-50.52.6-8.16,1-16.2,1.08-24.24l.36-9.36a167.87,167.87,0,0,0,33.24,3.6l1-1.68a11.34,11.34,0,0,0,.6-7.2,4.83,4.83,0,0,0-1.08-2.4c-.36-.36-.6-.48-1-.36a41.32,41.32,0,0,1-16.32-.72h-7.56a27.35,27.35,0,0,0-8.4,1.2,196.85,196.85,0,0,1,29.76-89.4l4.56-.36,2.4,1.44.84.72a43,43,0,0,0,2.88,5.76,7.56,7.56,0,0,1,1.2,3.24,13,13,0,0,1,3.24,3l.6.24a5.31,5.31,0,0,0,1.2-4.8,36.31,36.31,0,0,0-10.92-20.4Zm-48.24-1.8c7.08,13.44,9.12,27.84,6.36,43.08a139.24,139.24,0,0,1-15.6,43.2c-7.8,13.8-19.32,22.56-34.68,26.16a584.6,584.6,0,0,0,5.76-131C401.28,126.6,414,132.72,422.52,148.68ZM408,121.32a55.68,55.68,0,0,0-8.64-3.84l-15.72,4.08q-7.56,113.22-19.08,227.16l-3.36,31.44-.6-14.52a86.58,86.58,0,0,0,.72,39.24l1,2a899,899,0,0,0,15.48-134.16,22.6,22.6,0,0,0,17.4-4.56A610.29,610.29,0,0,0,432.36,408q-5.4-71.1-34.2-142.32a132.9,132.9,0,0,0,30.84-53l.84-2.76,1.56-6L432,201l.6-3.12,1.44-9.12.24-3.12.72-12.72a65.18,65.18,0,0,0-.84-14.52C431.16,141.84,422.52,129.48,408,121.32Z" transform="translate(-22.03 -112.99)"/></svg>