<svg id="Layer_1" data-name="Layer 1" xmlns="http://www.w3.org/2000/svg" viewBox="0 0 521.37 318.96"><defs><style>.cls-1{fill-rule:evenodd;}</style></defs><path class="cls-1" d="M281.88,199.68q26.64,14,36.84,43.44a113.2,113.2,0,0,1,6.12,47.4,148.69,148.69,0,0,1-10.56,45.36,126.76,126.76,0,0,1-23.16,37.2C281.64,383.52,270.36,388,257,386.16a71.5,71.5,0,0,1-42.72-21.6,64,64,0,0,1-18-40,288.29,288.29,0,0,1,6-88.44,62.85,62.85,0,0,1,4.92-14,49.76,49.76,0,0,1,21.6-22.56c12.6-6.84,25.32-7.8,38.28-2.76a59,59,0,0,1,13.2,7.2ZM266.76,179.4a55,55,0,0,0-13.32-.12q-42.66,4.5-56.52,44.52a84.36,84.36,0,0,0-4.32,16.8,339.42,339.42,0,0,0-1.92,94.2q4.32,36.9,34.56,59.52c21.48,16,42,15.36,61.8-1.8a114.58,114.58,0,0,0,30.36-41.64q26.1-61,4.56-124.08-13.5-39.42-52.44-49l-.12.12-1,.48-1,.6ZM228.6,141q-41.76-.18-84.72.84a667.75,667.75,0,0,1-93-4.32l-1.08.6-.48.72a15.71,15.71,0,0,0-.72,3.24l-.12,2.4v1.68a7.42,7.42,0,0,0,1.08,3.24,43,43,0,0,0,12,3c27.48,3,55.2,4.68,82.92,5.28a13.33,13.33,0,0,0-.12,3.12,759.25,759.25,0,0,0,9.36,77.52,477,477,0,0,1,5.52,120.48c-2.28,28-15.84,48.72-40.68,62.52a39.49,39.49,0,0,1-28.32,4.2Q44,415.44,48.36,368.4c.72-7.56-1.08-12.48-5.28-14.76a140.15,140.15,0,0,0-.48,43.08q4.5,30.42,33.84,40.92c28.68,10.2,52.32,2.64,71.16-22.56a93.19,93.19,0,0,0,17.52-41.16,297.58,297.58,0,0,0,.24-94.56q-9.54-61-17.28-121.68c26.76.36,53.52-.24,80.52-2l.48-1,.36-.72.48-1.56.24-.84.48-3.24a9.14,9.14,0,0,0-.36-2.52l-.36-1.56A9.7,9.7,0,0,0,228.6,141ZM473.28,296.4A185,185,0,0,0,530.64,295a12.11,12.11,0,0,0,.84-11.28l-1.68-3.36-56.16,6.84Zm.24-154.56q-3.42,20.34-9,41-16.38,61.74-36.24,123.24-19.8,61-36.24,122.76c-7-32.76-14.16-65.4-21.6-98.16-7.08-30.84-13.8-61.56-20.4-92.4a300,300,0,0,0-35.64-91.44,5.85,5.85,0,0,0-2,4.08,27.31,27.31,0,0,0,2.28,12.12A511.19,511.19,0,0,1,348.12,265.2l13.68,62.28,27.24,123c1.08,0,1.68-.24,1.92-.6a188.66,188.66,0,0,0,18.84-50.16c4-17.76,8.64-35.28,14-52.68q19.26-61.38,35.64-123.36a407.4,407.4,0,0,1,14.64-45.36c6.12-15.84,7.8-31.44,4.8-46.8l-.36.12A19.55,19.55,0,0,0,473.52,141.84Zm78.24,50.64c-7.8-10.2-18.84-13.32-33.36-9.6-13,.12-22.56,5.76-28.8,16.68a158.63,158.63,0,0,0-19.68,58.2l-6.6,46.2q-7.56,51.66,21.24,93.84a15.57,15.57,0,0,0,9.84,6.72c25.8,5.4,46.32-2.88,61.8-24.72,7.56-10.8,8.4-20.28,2.28-28.56A59.39,59.39,0,0,1,529.56,385c-22,11.76-38.4,7.56-49.56-12.72A61.91,61.91,0,0,1,472.8,349,337.31,337.31,0,0,1,484.2,225.6a33.81,33.81,0,0,1,8.52-15.12c17.16-17.4,37.08-19.92,59.52-7.56C554.52,199.44,554.4,196,551.76,192.48Z" transform="translate(-41.17 -131.52)"/></svg>