<svg id="Layer_1" data-name="Layer 1" xmlns="http://www.w3.org/2000/svg" viewBox="0 0 595.57 842.18"><defs><style>.cls-1{fill:#fff;}.cls-2{fill:none;stroke:#fff;stroke-linecap:round;stroke-linejoin:round;stroke-width:0.38px;}.cls-3{fill-rule:evenodd;}</style></defs><rect class="cls-1" x="0.31" y="0.31" width="595.08" height="841.68"/><rect class="cls-2" x="0.19" y="0.19" width="595.2" height="841.8"/><path class="cls-3" d="M247,285.24a843.1,843.1,0,0,1-11.28,91.92,29.24,29.24,0,0,1-23-2.76c-3.84,5.88-4.08,11.76-.72,17.88,17.64,7.56,28.92,1.68,33.6-17.52a147.76,147.76,0,0,0,4.2-37.08c-.12-14-.72-28-1.8-42Zm.84-52.2a13.89,13.89,0,0,0-4.92,8.16q-3.42,15.12,3.6,24.48l.6-.84C252.24,252.84,252.48,242.28,247.8,233Zm3.84-36.84L151,201q-2.88,6.66,1.08,12.24c14.52.72,28.92,1,43.32.84a101.56,101.56,0,0,0-3.24,25.08c-.48,43.08-2.16,86.16-5.16,129-1,12.6.84,23,5.4,31.44a118.14,118.14,0,0,0,4.2-31.68c0-10.68.36-21.36,1-32.28A1027.68,1027.68,0,0,0,198,214.08q26.82-.54,53.64-3.24l.72-1Q256.14,202.68,251.64,196.2ZM369.12,310Q374.88,248,343.56,197l-2.76-.36-1-.48-.6-.84A18.78,18.78,0,0,0,324.72,188l-1.08.36a29.65,29.65,0,0,0-19.44,10.08c-19.08,22-30.12,47.88-33.12,77.52a446.2,446.2,0,0,0-2.28,63.36q1.08,31.5,23,52.2a14,14,0,0,0,10.32,4c32.28-1.08,52.32-16.8,60.12-46.92A232.6,232.6,0,0,0,369.12,310Zm-6.24-12.84c.72,25.08-5.88,47.16-19.8,66.48A121.47,121.47,0,0,1,325.68,374c-9.72,4.68-19.2,5.16-28.56,1.32a15.06,15.06,0,0,1-8.16-7.68c-12.12-26-16.08-54-11.88-83.64,1.44-10.44,3.12-20.76,4.92-31.08q7.2-41.22,46-51.36a29,29,0,0,1,6.72,2.64,8.37,8.37,0,0,1,3,2.76,144.45,144.45,0,0,1,19.08,44.52A204.69,204.69,0,0,1,362.88,297.12Zm20.88-94.68q-3.24,48.78-3.24,98.16a611.39,611.39,0,0,1-3.72,64.68c-1.32,11.88,0,22.68,4.2,32.4a2.14,2.14,0,0,0,1.08-1.44v-.36l.36.72,1.2,1.68A281.27,281.27,0,0,1,454,398a4.22,4.22,0,0,0,2.16-2.4,19.44,19.44,0,0,0,.12-11.4l-.36-.84-1.08-1.68-1.68-.6a135.38,135.38,0,0,0-47.28-2,73.18,73.18,0,0,0-19.44,4.2l-1.08.48-1.44.72-.36.48c2.28-19.32,3.72-38.76,4.2-58.44q1.26-65-.84-128.16C385,198.72,383.88,200,383.76,202.44Z" transform="translate(0.19 0.19)"/></svg>