<svg id="Layer_1" data-name="Layer 1" xmlns="http://www.w3.org/2000/svg" viewBox="0 0 551.08 492.64"><defs><style>.cls-1{fill-rule:evenodd;}</style></defs><path class="cls-1" d="M132.84,364.32C131,388,130,411.72,129.36,435.6a114.06,114.06,0,0,1-27.84,7.56q-.72-41.22-2.52-81.6a1.76,1.76,0,0,0-2.16,1.8q-4.14,64.08-3.36,129.12a151.39,151.39,0,0,1-3,32.16c-2,10.2-.48,18.12,4.8,23.52A241.17,241.17,0,0,0,102,489.72l-.24-34.2a109.23,109.23,0,0,0,27.36-4.8L129,475.44a221.55,221.55,0,0,1-2,32.16c-1.8,12.6-.12,23.16,4.8,31.68a277.89,277.89,0,0,0,4.8-46.32q1.44-65.16-2.88-129C133.08,364.08,132.84,364.2,132.84,364.32ZM66.12,378.84c2.28-13.2-4.2-21-19.56-23.52C32.64,364.8,24.24,378.6,21.48,396.6q-3.42,21.6-4.68,43.2l-3,47.64c-1.44,22.68,2,43.92,10.32,63.48,6.12,4.8,13,5.64,20.64,2.4q36.9-15.66,35.64-55.44c-1.32.36-2,1.44-2,3.24a16,16,0,0,1-.72,4.8,4.93,4.93,0,0,0-3.6,3.24,54.68,54.68,0,0,1-25,27.24q-17.1,9.18-25.56-5a804.87,804.87,0,0,1-2.64-83.52q.72-42.3,22.44-76.32a7.27,7.27,0,0,0,3.48-1.32,55,55,0,0,1,19,9.36ZM102.84,104l5.16,49.2a864.57,864.57,0,0,1,4.44,128.4A55.65,55.65,0,0,1,102,313q-17.82,25.38-41.52,5.76a113.47,113.47,0,0,1-26.4-31.08,4,4,0,0,0-2,4q2.16,34.2,34.32,52.2a15.52,15.52,0,0,0,10.2,1.92q38.52-7.2,42.24-47.52a562.64,562.64,0,0,0,.48-94.32q-4.5-59.4-12.48-117.72l48.48-2.28a8.62,8.62,0,0,0,1.32-4.08l.12-.84a9.87,9.87,0,0,0,.24-3.24,15.66,15.66,0,0,0-1.44-5.64l-.48-.84-1.32-.36a516.83,516.83,0,0,1-75.84-1A81.41,81.41,0,0,1,67.2,69.84L34.92,72.48a8.62,8.62,0,0,0-1.32,4.08v4.08a9.21,9.21,0,0,0,1.8,5.52l.84,1c9.72.36,19.2.36,28.68.24l37.56-1A108.29,108.29,0,0,0,102.84,104ZM204,133.68c3.36-26.76,16.92-45.24,40.56-55.2,9.72-2,18.6-.72,26.64,3.84a40.61,40.61,0,0,1,19.56,25.32c4.92,18.24,10.2,36.36,16,54.24a483.57,483.57,0,0,1,22.44,125.4,410,410,0,0,1-6.48,95.64,491.13,491.13,0,0,1-39.24,121.32q-13.68,28.8-45.72,26.28Q212,528.54,205,504.6a352.86,352.86,0,0,1-14-82.44c-2.16-42.84-3.48-85.8-4-129.12A608.58,608.58,0,0,1,198.84,165.6C201,155,202.68,144.36,204,133.68Zm78.72-55.56C273,66.84,260.64,61.68,245.64,62.76a47.77,47.77,0,0,0-9.84,3.36A41.47,41.47,0,0,0,216.36,84.6,240.9,240.9,0,0,0,193,152.28a612.94,612.94,0,0,0-10.08,96.12c-1.08,43.2-1.2,86.16-.12,129A894,894,0,0,0,194.4,503.16a57.78,57.78,0,0,0,11.4,26.52q26.1,34.38,64.08,12.24a19.37,19.37,0,0,0,6.6-6.24,362.57,362.57,0,0,0,50-120.72A477.51,477.51,0,0,0,337,286.56a548.49,548.49,0,0,0-21.12-125A117,117,0,0,1,313,149a245.73,245.73,0,0,0-23.52-71.16,13.11,13.11,0,0,0-5.52,1.2l-.36-.12Zm80.16,179.76h-.48q-3.6,47.88-5.16,96.6-2.16,64.62-6.36,129.12a193.26,193.26,0,0,1-4.92,32c-3,12.24-2,22.92,3.12,32A628.34,628.34,0,0,0,361.2,435.6c.36-15.6,1-31.2,1.8-46.68a18.53,18.53,0,0,0,3.84,8,115.88,115.88,0,0,0,5.4-13.68A136.39,136.39,0,0,0,375.72,401,1112,1112,0,0,1,402.36,526c1.56,9.84,5.28,17,11.28,21.72a23,23,0,0,0,1.08-17.4,481.27,481.27,0,0,1-13.2-51.36q-11.34-56.34-25.32-111.6a481.55,481.55,0,0,1,21.24-67c5.4-13.32,7.68-26.4,6.84-39A93.73,93.73,0,0,0,391,288.48c-9.24,28.8-18.12,57.36-26.88,85.8l-.36,1.32c1.8-38.28,2.16-76.8,1-115.32l-.36-.72ZM523.8,280.56a87,87,0,0,1,17.76,27.12,204.07,204.07,0,0,1,14.4,57,307.28,307.28,0,0,1,1.32,40.68,230.22,230.22,0,0,1-5.52,41.52,257.38,257.38,0,0,1-12.24,39.72,45.34,45.34,0,0,1-17.88,22.2,50.46,50.46,0,0,1-28.44,8.52l-.48-5.64-2.4,6.48q.54-82.8,3.24-168.12c.84-24.48.72-49-.12-73.32ZM455,264.6l-4.44-.72c-12.12,4.2-18.84,13.8-20.28,28.56-1.2,12.72-2,25.44-2.4,38.28l-1.8,43.2c-.6,12.48-.72,24.84-.36,37.2l.72,30.72a289.78,289.78,0,0,1-2.52,45.6,93.6,93.6,0,0,0,4.92,45,42.56,42.56,0,0,0,6.48,11.64c13-5.16,22.32-14.52,28.2-28.08A53.89,53.89,0,0,0,467,505l1-5.76a62.36,62.36,0,0,0,.6-10.56A92.15,92.15,0,0,1,441,526.56l-5.4-.84a651,651,0,0,1-3.48-111.36l31-6.24a12.56,12.56,0,0,0,1.32-12l-1.68-3.84L432,400.2a858.11,858.11,0,0,1,7.08-112.32l5.52-8,4-1.68,5.16,1.32,8.4,17.4c3.72-10.08,2-19.8-4.8-29Zm54.72-.36A54.52,54.52,0,0,0,493.08,268l-.12-1.68c-3,1.8-4.56,4.92-4.68,9.48l-1.44,74.64q-.9,48.24-1.32,96.6a435.71,435.71,0,0,1-4.44,61.44,19.55,19.55,0,0,1-.24,8.76c-2.76,10.68-1.56,19.32,3.72,25.8a33.18,33.18,0,0,0,2.4-5.64l.36.6a56.36,56.36,0,0,0,24.84-4.56A40.1,40.1,0,0,0,528,521c20.28-26.52,32-57.12,35.16-91.56a329.5,329.5,0,0,0-13.08-127.32q-9.9-32-40.32-38ZM352.68,97.2q2.7,64.62,4,128.16l57.6,3.6c2.64-5.64,2.16-10.8-1.32-15.48a228.51,228.51,0,0,0-51.72-2.64l.48-7.32a671.79,671.79,0,0,0-5.4-128.28A49.23,49.23,0,0,0,352.68,97.2Zm156-30.36a753.71,753.71,0,0,1-90.36,9.24,11.66,11.66,0,0,0-1,8,7.13,7.13,0,0,0,1.8,3.24,29.33,29.33,0,0,0,11.64,1.92l43.68-3c-1.44,25.8-2,52.32-1.68,79.32a237.77,237.77,0,0,1-1.68,30.6q-2.34,17.82,4,32.4c3-2.76,4.44-6.48,4.56-11,.24-25.8.6-51.84,1.08-77.88A328.64,328.64,0,0,0,477.36,86l40.2-3.48a19.82,19.82,0,0,0,2.16-7.32,10,10,0,0,0-2.88-8.16Z" transform="translate(-13.48 -62.62)"/></svg>