<svg id="Layer_1" data-name="Layer 1" xmlns="http://www.w3.org/2000/svg" viewBox="0 0 495.37 514.58"><defs><style>.cls-1{fill-rule:evenodd;}</style></defs><path class="cls-1" d="M237.48,401.28a80.18,80.18,0,0,1,26.88,41.52c6.12,22.92,4,45.12-6.48,66.36-11.4,23.16-30,33.24-55.68,30a3,3,0,0,1-2.4-1.44q-14-28.44-11.64-61.8c.6-8.52.84-16.92,1-25.2q.18-38.7,31.32-57.6c6.6-2.4,12-1.8,16.32,1.68l.12,3.24A15.38,15.38,0,0,0,237.48,401.28Zm-16.68-19c-13.68,4.8-22.44,14.28-26.4,28.56A276.58,276.58,0,0,0,189.72,537a11.51,11.51,0,0,0,3.84,6.72q24.48,19.44,50-2.28Q273.3,516.24,274,477a130.15,130.15,0,0,0-12.72-60c-2.76-5.88-5.64-11.52-8.88-17.16C245.16,387.36,234.6,381.48,220.8,382.32ZM226.2,237l10.56,53.4-27,2,12.36-40.56Zm1.32-16.44a3.73,3.73,0,0,0-3,2.64q-10.26,28.62-18.48,58c-5.88,20.76-12.6,40.92-20.28,60.72-3.48,9-3.36,16.44.12,22.32,7.8-20.76,14.88-41.88,21.24-63.12a108.39,108.39,0,0,0,31.8-.36c4.08,18.84,8.52,37.68,13.2,56.52a3,3,0,0,1-1.56,3.24,23.44,23.44,0,0,0,5.16,4.32,30.29,30.29,0,0,0,.72-19.08q-6.48-23-12.24-46.08l.36-.12a5.69,5.69,0,0,0,1.2-6.48,4.92,4.92,0,0,0-2-2.4l-1.68-.12q-8.1-33.84-14.52-67.68ZM93.84,237c0-14.4-7.44-21.84-22.44-22.44a32.92,32.92,0,0,0-16.8,12.6,165,165,0,0,0-30.48,89.4q-2.88,63.9-2.64,128.28A362.17,362.17,0,0,0,34,538.56a22.38,22.38,0,0,0,11.28,14.28c23.28,12.84,43,8.52,58.92-12.72,6.84-9,7.2-16.08,1.08-21.48a42.59,42.59,0,0,1-21.36,23.88c-20,10.32-35.76,6.48-47.4-11.4A556.12,556.12,0,0,1,25.92,405.36c.6-21.24.84-42.6.6-64.08Q26,285.3,55.44,238.8c9-14,20-16.68,33.36-7.68l1.56,3,1.92,3.72H93.6ZM157,262.68c.24,10.92.12,21.72-.36,32.64l-1.32,40-.6,20a173.2,173.2,0,0,1-36.24,2.76l-10.2-.72c.12-23.16.72-46.44,1.8-69.6.36-7.92,1.08-15.84,1.92-23.76l2.28-23.76a4.22,4.22,0,0,0-2.76-4.56,147.79,147.79,0,0,0-6.72,43.2l-.48,23.88-1.68,58.08-2.16,71A325.08,325.08,0,0,0,103.2,488l1.32,7,3.12-24.24-1.08-1.2,1.32-101.88a136.81,136.81,0,0,0,40.8-.6l5.88-1.08L154,531.72l-1.68-8.4A65.24,65.24,0,0,0,154,542l1.8,7,1.08,3.24A488.56,488.56,0,0,0,161,486V444l.36-64.56q.9-79.92,3.36-159.72A107,107,0,0,0,157,262.68ZM142,55.2q2.34-5.4-1.08-9.72a508.51,508.51,0,0,1-103.8.84l-.48.84a8.33,8.33,0,0,0,.24,5.64,369.78,369.78,0,0,0,59.52,5.52,263.58,263.58,0,0,0,2.16,67.08q5.58,34.92-9.48,64.32a7.2,7.2,0,0,0-5.4,3.24c-14.16,4-26,.84-35.76-9.48l-6.24-22.8a38.77,38.77,0,0,0,4.08,32.52c11.4,12.84,25,15.84,40.56,9,7.44-3.72,11.64-10,12.6-18.6a527.35,527.35,0,0,0-2-125.28A370.81,370.81,0,0,0,141.48,56Zm47.28,14.88a121.88,121.88,0,0,0-20.4,55.8c-3.24,29.76,4.44,55.2,23.28,76.32a73,73,0,0,0,26.52.24l8.4-4.8a49.71,49.71,0,0,0,8.28-5.52q41.4-35.82,28.32-90.24C257,74.4,239.76,57.84,212,52.2,202.68,55.44,195.12,61.44,189.24,70.08Zm29.64-7.32a78.37,78.37,0,0,1,32.4,31.32,68.36,68.36,0,0,1,8.4,43.08c-2,16.44-9.36,30.36-21.72,41.76-10.92,10-23.52,13.08-38,9.6q-15.66-3.6-21.6-20.16a92.23,92.23,0,0,1-3.48-50.4A99.38,99.38,0,0,1,193,77.76a48,48,0,0,1,14.76-13.2Zm242,356.4-1.44,36.36a358.36,358.36,0,0,1-3.48,36,167.14,167.14,0,0,0-.36,45.12,32.48,32.48,0,0,0,3,10.44l3.48-22.56-1,4.08L463.92,464c11.88,3.12,24.6,3.36,37.92.84l5.4-1a542.4,542.4,0,0,0,.24,88.32c.12,2.28.72,3.24,1.8,2.64l7.56-175.32a63,63,0,0,0-9.6,34.44l.24,37.08-43.2,7.8,2.4-79A155.12,155.12,0,0,0,460.92,419.16ZM404.4,391.92a32.88,32.88,0,0,1,17.4-2l3,4.32Q428,392,427,387a10.35,10.35,0,0,0-1.92-4.2l-1.56-1.8c-15.48-5.52-26.64,0-33.24,16.68a143.88,143.88,0,0,0-10,40.32,265,265,0,0,0-.72,41.4A334.23,334.23,0,0,0,385.92,526c3.84,18.36,14.28,21.12,31.44,8a16.28,16.28,0,0,0,4.08-4.92,27,27,0,0,0,2.28,18.84c9.72-19.08,10.8-38.76,3-59.28L411.24,490l-.12,6c4.08,3.48,9.12,4.56,15.24,3.24L424,520l-.6-2.76-3.72-.12a31.94,31.94,0,0,1-19,12.48,30.2,30.2,0,0,1-8,1.08A197.33,197.33,0,0,1,384,443.52a208.14,208.14,0,0,1,8.28-38.16,22.21,22.21,0,0,1,5.76-9.24A19.59,19.59,0,0,1,404.4,391.92Zm-47.28-11.4A410,410,0,0,0,353.28,434c-.12,18.84-1,37.56-2.4,56.16q-3.06,40.5-42.48,45.48a11.89,11.89,0,0,0-2.76-1.2,3.79,3.79,0,0,1-3.12-2.64c-7.8-27-10.44-55.32-8.16-84.84,1.8-22.08,2.52-43.44,2.16-64.2a227.74,227.74,0,0,0-7,57.72q0,28.62-1.44,57.6-1.44,27.54,13.32,47.88l3.48.6.24.24,1.68,1.32c25.8-1.08,40.92-14.4,45.12-40.2a528.28,528.28,0,0,0,5.76-127.56Zm18.12-25.8H309.48a715.79,715.79,0,0,0-1.08-136.08q-3.24,74-3.48,148.32a267.06,267.06,0,0,0,64.92-1,5.31,5.31,0,0,0,4.68-3ZM352.56,63.84Q331.32,49.62,311,69.48c-11.28,11-18,24.72-20.28,41.16a371.45,371.45,0,0,0-3.24,46,56.31,56.31,0,0,0,15,39.36q31.14,9.54,58.44-7.68a20.56,20.56,0,0,0,9.84-16,27,27,0,0,0-.12-7q-22,22.14-53.16,21.84c-6.12-.12-10.8-2.28-14.28-6.72A40.81,40.81,0,0,1,295,160.92a128.78,128.78,0,0,1,5.52-61.44c5.16-15.6,15.6-25.2,31.08-28.68a30.88,30.88,0,0,1,21,2Zm134.76-4.32a124.62,124.62,0,0,0-15.84,37.32,808.34,808.34,0,0,1-40.32,120.6c-3.24,7.32-6.72,14.52-10.56,21.48a91.5,91.5,0,0,0-11.52,33.36c.36-28.92,1.68-57.72,3.72-86.4A1065.46,1065.46,0,0,0,414.72,57.6a61.52,61.52,0,0,0-4,23.64c.36,43.32-1.08,86.28-4.32,129.12q-4.86,63.54-6.6,128.16c-.36,12,1.2,22.56,4.44,31.68a261.21,261.21,0,0,0,4.92-56L409,284.4a470.1,470.1,0,0,0,23.64-50.76c4.2-10.44,8.16-20.88,12-31.32,2.28,12.24,4.8,24.48,7.68,36.84Q466.86,302,486.72,361c-.24,1,.36,1.68,1.68,2.16a5.22,5.22,0,0,0,3,3.84q3.78-4.14,1.8-10.08Q481.14,322,472,286.56q-11.7-44.64-26-88.08,15.3-42.48,27.24-85.68a131.45,131.45,0,0,1,8-21.72C486.48,80.16,488.52,69.72,487.32,59.52Z" transform="translate(-21.47 -45.48)"/></svg>