<svg id="Layer_1" data-name="Layer 1" xmlns="http://www.w3.org/2000/svg" xmlns:xlink="http://www.w3.org/1999/xlink" viewBox="0 0 584.4 596.5"><defs><style>.cls-1{fill:none;}.cls-2{clip-path:url(#clip-path);}.cls-3{fill-rule:evenodd;}</style><clipPath id="clip-path" transform="translate(-4.92 3.82)"><rect class="cls-1" x="4.92" width="584.52" height="592.8"/></clipPath></defs><g class="cls-2"><path class="cls-3" d="M401.88,544.56l1.08,2.28.24,3c0,3.84-.84,9.6-2.4,17.16l9.72-5.88,28.92-16.8a5.14,5.14,0,0,1,2,1.56,4.23,4.23,0,0,1,.72,2.76c0,2.52-5,7.08-15.12,13.56q8.82,7.2,20.52,22.32a7.1,7.1,0,0,1-.84,3.48l-1.56,2.52a113,113,0,0,1-15-12.6c-4.68-4.68-7.92-8.52-9.48-11.76-11.88,7.08-19.08,10.56-21.36,10.56h-.6a140.23,140.23,0,0,0-2.64,13.8,4.25,4.25,0,0,1-1.2-1.92,9.18,9.18,0,0,1-.36-3V572.28l.12-10.32C395.52,552.24,397.92,546.48,401.88,544.56ZM412.2,441.72l.36.72.12.48.24-1.2Zm42.6,25.44a22.53,22.53,0,0,1,2.76,26.28c-3.24,5.76-8.52,8.64-16,8.64l-5.16-.24-3.48-.6-9.12-.48-.36,2.64a64.53,64.53,0,0,0-.48,10.32l.12,10.8c0,9-1.44,16.2-4.2,21.72a4.76,4.76,0,0,1-1.32-1.8,8.37,8.37,0,0,1-.36-2.88q0-83.16,7.08-90.36a9.18,9.18,0,0,1,2.28,4.44l2.88-.48c3.72-.24,8,.72,12.72,2.76A34.42,34.42,0,0,1,454.8,467.16Zm-10.56-.48a74,74,0,0,0-9.12-3l-4.56-1.44H427l-1.2,17.28-1.08,12.6L434,493.2c7.56-.6,13.44-2,17.76-4.44,3.72-2.16,5.52-4.56,5.52-7.2C457.32,475.44,453,470.4,444.24,466.68ZM311.76,580l28.08-1.32,1.08-.84c2.52,2.76,3.84,4.92,3.84,6.48l-.24,2.52-1.08,1.56-15.72.48-16,1-8.64,1.08c-2.76,0-4.32-3.6-4.92-10.92V568.68c-.72-4.92-1.2-8.88-1.32-11.88q-.54-8.1,3.24-10.08a20.86,20.86,0,0,1,2.52,11,87.66,87.66,0,0,1-1.2,10.92v13l5.64-.6Zm-107-11.88h17.16a103.2,103.2,0,0,1-6.48-13.2C213,557.16,209.4,561.6,204.72,568.08Zm21.48,9.72-6.24-.12-6.48-.6-12.72-.6-.72-1.32-.12-.48c-5.64,7.68-10.68,13.32-15.36,16.92l-1.68-1.92a5.93,5.93,0,0,1-.48-2.88c0-1.08,4.08-6.84,12.12-17.28q13.14-16.74,20.88-24.12c3.48,3.72,8.64,11.4,15.48,23.28,6.6,11.52,10,18.24,10,20l-.24,2.4-1.08,1.56a120.09,120.09,0,0,1-12.24-15.84Zm-24-80h0ZM349.68,517q3.24,11.34,1.8,18.72l.84.48c3.84-3.48,8-9.6,12.72-18.12,4.92-8.88,9.24-15.24,13-19l7.68,21.84c3.72,10.44,5.64,17.52,5.64,21.24l-1,2.16a10.34,10.34,0,0,1-2.28,3c-3.48-8-6-14.16-7.56-18.24a93.81,93.81,0,0,1-4.68-18.36c-2,3.48-5.4,9.12-10.08,17.16a121.65,121.65,0,0,1-13.68,18.36c-3.12-3.72-5.16-9.12-6.24-16-.84-8.28-1.56-14.52-2.4-19l-12.6,17.76c-5.76,8.16-10.92,14.28-15.36,18.24l-1.68-2a5.93,5.93,0,0,1-.48-2.88c0-.6,3.36-5.76,10.2-15.48l19.56-28.08A139.66,139.66,0,0,1,349.68,517ZM303.36,410.4l1.08,1.8.24,2.64-2.16,6.84c-1.44,4.44-2.16,7-2.16,7.8,0,3.24,1.56,6.84,4.68,10.92,3.72,4.92,8,7.32,13,7.32l10.2-.36c5.4-3.84,9.36-7.92,11.64-12.36a25.36,25.36,0,0,0,2.76-11.76,15.48,15.48,0,0,0-1.08-4.32,14.07,14.07,0,0,1-1.08-4.2,18.62,18.62,0,0,1,.12-2.76l.12-.48L342,410c2.52,1.68,3.84,6.12,3.84,13.32,0,7.8-.72,13.2-2,16.2-2,4.56-7.32,10.2-15.84,17-13.8-.48-23-4.32-27.48-11.64-2.28-3.48-3.36-8.64-3.36-15.24,0-5.16.12-8.28.48-9.24Q298.14,417.78,303.36,410.4Zm-1-49.56a12.08,12.08,0,0,1,.36,3.24c0,1.68-1,8.76-2.88,21.12-2.16,13.32-3.84,22.32-5.16,26.76H293a77.37,77.37,0,0,1-.48-8.52c0-4.92,1-12.84,2.88-24,2-12.12,4-19.2,5.76-21ZM30.24,303.6a70.15,70.15,0,0,1,9.48-16.08c4.8-6,9.84-10,15-12A19,19,0,0,1,68.28,275,19.57,19.57,0,0,1,78,282.72a20.94,20.94,0,0,1,3.72,12.12,12.8,12.8,0,0,1-2.76,8c-2.16-.24-3.48-1-4.08-2.16a10.07,10.07,0,0,1-.6-3.6,4.2,4.2,0,0,0-1.56-3.24c-1.32-1.08-3.6-1.56-7-1.56q-27.54,0-39.6,44.52a219.29,219.29,0,0,0-5.76,32.4c-.24,2.16-.72,8.52-1.44,19v58.44q-.72,9.54-1.44,26.64l-.72,17.64-.12,13.56a180.36,180.36,0,0,0,2.64,28.2c4.68,27,15,40.56,30.72,40.56,15.12,0,25.68-7.2,31.56-21.48A91.25,91.25,0,0,0,86.4,535c1.32-6.84,2.28-10.8,2.88-12a8.62,8.62,0,0,1,2.4,3.72,10.7,10.7,0,0,1,.84,3.48,77.08,77.08,0,0,1-1.68,10.2,144.59,144.59,0,0,1-5.76,19.92q-11,28.44-27.72,28.44Q23.52,588.72,14,540a182.48,182.48,0,0,1-3.12-33.84l.48-16.08.72-19.92c.48-13,1-22.92,1.44-30V380.88c1.56-13.56,2.88-23.76,3.84-30.84a173.33,173.33,0,0,1,7.2-31.68C26.88,311.76,28.8,306.84,30.24,303.6Zm91.56-10.2v62.52L120.72,360v51.12a11.34,11.34,0,0,1,1.08,5.4,13.73,13.73,0,0,1-1.08,5.16v91.8c-1,6.84-1.92,17.52-2.88,32.16-1.2,13.2-3.48,23.88-6.84,31.92a5.2,5.2,0,0,1-3-4,21.06,21.06,0,0,1-.36-4.92c0-7.08,1.08-17.64,3.12-31.8l4.56-30.72v-81.6l-2.76.72-15.36.24-16,.84H63.84l-4.8-.24v54c-.6,4.32-1.08,9.48-1.32,15.48l-.36,15.24Q56.64,529,52,540.72c-1.32-.84-2.16-2.4-2.52-4.92a46.11,46.11,0,0,1-.24-5.64c0-4,.6-13.68,1.92-29.28,1.2-15,2-24,2.4-27.24v-56a13,13,0,0,1,0-3.12V385.2A289,289,0,0,0,58,338.88c.36-3.24.72-7,1-11.4L59,316.2a32.33,32.33,0,0,1,1.32-8.76,18.48,18.48,0,0,1,3-6.36c1.2-1.44,2.16-1.44,2.88-.12,1,1.56,1.44,4.68,1.44,9.48,0,2.4-1.32,14.76-3.84,37.08L59,390v21.24L82.32,410l29.16-.48a12.17,12.17,0,0,1,3.84-1.32V355.08a33.2,33.2,0,0,1,1.08-4.8V282.12c1.8-4.44,3.6-5.88,5.28-4.32s2.28,4,2.28,7.56A16.17,16.17,0,0,1,121.8,293.4ZM131.52,13a15,15,0,0,1-2.16,7.32H61.44v4.56L60.12,37c0,5.64.84,13.68,2.64,24.36l6,34.2A717.81,717.81,0,0,1,77.4,209l.36,12a98.18,98.18,0,0,1-2.52,21.72c-4.92,20-16.68,30-35.16,30-12.12,0-19.92-8.28-23.52-24.84a86.67,86.67,0,0,1-2-17.52l.12-8.52c0-6.6.12-11.16.36-13.56.72-6.84,2.4-10.44,5-11A15.55,15.55,0,0,1,22.2,205c0,.84-.36,3.84-1.08,8.76S20,221.52,20,222.48l.24,5.88A83.27,83.27,0,0,0,22,240.24c2.64,11.4,7.32,17.16,14,17.16q26.46,0,33.84-23.76a60.93,60.93,0,0,0,2.52-16.8L72,208.32a655.16,655.16,0,0,0-8.64-105.24c-2.88-16.56-4.92-28.44-6-35.64A213.37,213.37,0,0,1,54.72,36.6c0-6.84.12-11.16.24-13a28.3,28.3,0,0,1,.48-3.36H42.72L42,19.8l-5.16-.36-5.76-.72c-9.24-2.28-15.6-2.88-19-1.8a6.19,6.19,0,0,0-2.28,1.44l-1.2.84c-1.8,0-2.88-1.44-3.48-4.32l-.24-4.8a13.68,13.68,0,0,1,.84-4.56,9.27,9.27,0,0,1,1.8-3.36L17.28,3,32.76,4.08l10.8,1.08,85.8.48A15.34,15.34,0,0,1,131.52,13Zm100.92,93.36q-27-6.84-48.36,25.44c-7.32,11-14,25.68-20,43.92-3.72,13.56-6.6,25.32-8.64,35.4a224,224,0,0,0-4.68,36.84l-4.44,66.84c-2.76,43.32-4.2,69.48-4.2,78.24,0,12.84.24,23.4.84,31.68a205.2,205.2,0,0,0,4.56,31.68A153.4,153.4,0,0,0,158,488l3,7.32a52.72,52.72,0,0,0,3.72,8L166,507a11.22,11.22,0,0,0,2.52,4.2q5.4,5.22,24.48,6.84l4.56.36,5.16.72c15.48-1.08,28.08-11.76,37.92-31.92q7-14,13-39.24c1.56-6.48,3.84-18.48,7.08-36,3-15.6,5.52-27.72,7.8-36.24a632.2,632.2,0,0,0,14.4-71.16q5.94-40,5.88-72c0-25.08-3-48.6-9-70.32Q265.14,109.32,232.44,106.32ZM220.8,93.12c29.76-2.76,50.64,17,62.76,59.64q10.08,35.28,10.08,79.8A563.72,563.72,0,0,1,288,308.28,575.52,575.52,0,0,1,273,383c-2,7.56-4.68,20-7.8,37.56-3,16.44-5.76,29-8.4,37.92-3.6,11.88-10.08,26.52-19.44,44.16-10.56,19.8-18.24,29.76-23,29.76L207,532.2l-6-.6-9.72-1.08c-15.6,1.68-28-8-37.2-29a144.71,144.71,0,0,1-7.8-24l-3.72-15.24c-2.88-9.12-4.56-20.52-5.16-34.32-.12-2.64-.24-14-.24-34.2q0-101.34,12.72-179.4Q171.12,84.54,220.8,93.6ZM210,64.92l-13.32-.72L185,63,152.4,60.36c-10.68,17.28-17.88,29.16-21.48,35.76a9.13,9.13,0,0,1-1.44-2.28,12.08,12.08,0,0,1-.36-3.24c0-1.2,2.4-5.64,7.08-13.2l15.6-24.48.12-2.4c.24-.72,1-1.2,2.28-1.32C168.36,26.28,175.92,10.92,177,3c1.8-14.4,9.84-6,24.36,25.2,4.92,10.44,9.84,22,14.76,34.68,4.44,11.16,6.6,17.28,6.6,18.36a7.59,7.59,0,0,1-.6,3.12,5.4,5.4,0,0,1-1.8,1.92L211,64.8Zm-4.2-11.64-2.52-5.4A194.07,194.07,0,0,0,180.72,11q-6.84,14.58-21.6,38.52l27,3.24ZM308.16,103l-.6,13.2c-.6,8-1.2,14.64-1.8,19.68l-.6.48-1,.84a6.81,6.81,0,0,1-1.56-3.24,15.54,15.54,0,0,1-.36-3.72c0-4.68.72-12.24,2-22.56s2.16-17,2.28-19.68C307.68,91.2,308.16,96.12,308.16,103Zm3.36-66.48q0,20-2.88,30.24C305,79.32,297.72,88.44,286.8,94.2c-10-.72-17.52-5.28-22.92-13.8a35.4,35.4,0,0,1-6-19.2q0-6.66,2.88-27c2.4-16.92,4.92-27.6,7.68-32A15,15,0,0,1,270.6,5a5.91,5.91,0,0,1,.84,2.64c0,2.64-.84,6.72-2.52,12.12q-3.06,10.44-4,15.12c-.72,3.84-1.32,9-1.92,15.48-.36,5.16-.6,8.76-.6,10.92,0,3.6,1.68,7.44,5.16,11.4A75.26,75.26,0,0,0,279.24,83Q307.68,80.7,307.68,37A130,130,0,0,0,306,17.76L304.44,7.68a16.56,16.56,0,0,1,.24-3,6.37,6.37,0,0,1,1.08-2.28q4.5,5.76,5.4,16.56C311.4,21.12,311.52,27,311.52,36.48Zm245.88,386c-2.64.36-5.64,3.36-9,9.24-3,5.28-4.44,9-4.44,11,0,4.08,2.4,10.2,7.08,18.36,2.76,4.8,8,13.2,15.6,25.32q22.68,38.16,22.68,69.12a48.61,48.61,0,0,1-4.2,19.56C580,586.32,571.44,592,559.56,592c-16.2,0-27.36-6.48-33.72-19.44A44.64,44.64,0,0,1,521.76,559l-.6-6.24a39.8,39.8,0,0,1,1-9.72,27.65,27.65,0,0,1,6.12-10.56,9.93,9.93,0,0,1,4,4.56l.84,3c0,1.56-1,4.08-2.76,7.32s-2.88,5.16-2.88,5.64c0,3.84,1.92,7.92,5.88,12.24a58.82,58.82,0,0,0,14.64,11.28C561,577.92,571,575,577.56,568a23.68,23.68,0,0,0,5.16-8,14.72,14.72,0,0,0,1.2-5.16c0-9.6-2.4-19.8-7.08-30.6-3-7-8.28-16.32-15.6-28.2-7.92-12.6-13.08-21.6-15.6-26.76-4.8-9.72-7.2-18.6-7.2-26.52,0-11.4,2.64-20.28,7.8-26.52a22.38,22.38,0,0,1,17.16-8.52,23.22,23.22,0,0,1,17,6.12,22.86,22.86,0,0,1,7.8,17.64c-.48,3.72-1.56,6.36-3.24,7.68a14.82,14.82,0,0,1-2.28-3.84l-2.88-5.64c-3-4.92-7-7.32-11.88-7.32Zm-100.68,5.4a30.64,30.64,0,0,1,10.32-1.8,30.27,30.27,0,0,1,10.44,1.32l1.32.48c.84-7.8,2.16-12.84,4.2-15.36.84,1.32,1.32,3.48,1.32,6.48,0,3.48-1.56,15.84-4.56,37.32-1.32-1.32-1.92-3.72-1.92-7.32,0-5.16.12-9.84.48-14l-3.6.84a112.27,112.27,0,0,1-19.08,1.32l-1.92-.12a153,153,0,0,0-2,17.16l-.72.36-1.2.72q-1.08-4.14-1.08-12.6a124.23,124.23,0,0,1,.84-16.68c1-6.6,2.76-11.88,5.4-15.6a8.66,8.66,0,0,1,1.08,2.4l.24,3.24a86,86,0,0,1-1.2,12.6A4.21,4.21,0,0,1,456.72,427.92Zm47.64-63a10.43,10.43,0,0,1,.84,4.8l-.36,3.36a11.59,11.59,0,0,1-1.2,3.12l-2.4-1.8-3.36-3c-10,.84-17,3.24-21.24,7.32a13.55,13.55,0,0,0-2.64,3.36,45.1,45.1,0,0,1,10.92-2.16l12.48.48c3.72.84,5.64,2.52,5.64,4.92a14.66,14.66,0,0,0,.36,2.64c.12,1-.48,1.8-1.68,2.4-3.24,1.56-12.48,2.4-27.6,2.4h-.72a17.47,17.47,0,0,0,2.88,3.24c3.72,3.48,8.52,5.16,14.64,5.16l5-.48,9.84-.84,4.56-2.88,7.08-4.2,1.44,2.28a9.69,9.69,0,0,1,.36,3c0,2-1.68,4.56-5,7.68-4.8,4.32-10.92,6.48-18.48,6.48-11.64,0-19.8-3.48-24.36-10.56a20.86,20.86,0,0,1-3.24-9.12h-.84a32.72,32.72,0,0,1-.48-5.28,3.07,3.07,0,0,1,1.32-2.28c.48-5.4,1.8-9.72,4-13.08,4.92-7.44,13.92-11.16,27.24-11.28A9.19,9.19,0,0,1,504.36,364.92Zm-93.24,52.32a8,8,0,0,1,.72,3.6l-.24,3.36v.36c.12.24-.48.36-1.56.36a4.28,4.28,0,0,1-2.76-1l-1.08-1.68c-9.84.12-16.56,2-20.28,6-2.16,2.4-3.24,5.76-3.24,10q0,2.52,3.24,5.76a12.5,12.5,0,0,0,9.12,3.72c6.12,0,10.32-.84,12.6-2.64a7.5,7.5,0,0,0,2.16-2.52l.6-1.08-7.68-.36a50.09,50.09,0,0,0-7.08.12l-.72-1.32a8.06,8.06,0,0,1-.36-2.76,6.48,6.48,0,0,1,.72-3.24,7.78,7.78,0,0,1,1.92-2.16l5.64.12,6,.6,7.08.6c.84,1.32,1.32,3.48,1.32,6.48l-1.08,7.56a77.49,77.49,0,0,0-1.32,10.32l-.6.36-1.32.72a46.91,46.91,0,0,1-.84-9.12,9.17,9.17,0,0,1-1.8,3.12,10.44,10.44,0,0,1-8.76,4.08q-17.64,0-21.6-8.28a12.21,12.21,0,0,1-1.08-6l.6-3.36c0-7.2,1.08-12.72,3.12-16.68,4.2-8,12.48-10.92,24.72-8.64A10.2,10.2,0,0,1,411.12,417.24Zm21.36-158.88a4.86,4.86,0,0,1-2.76,3.36A62.82,62.82,0,0,0,418.44,252c-7-4.68-13.32-7.08-19.08-7.08q-38,0-55.8,44.76a164.34,164.34,0,0,0-8.52,32,106.57,106.57,0,0,0-1.92,17,68.65,68.65,0,0,0,1.68,11.76,99.12,99.12,0,0,0,7,21.12c9.12,19.68,22.68,29.52,40.56,29.52a63.08,63.08,0,0,0,42.84-16c6.12-5.4,10.56-10.92,13.44-16.68a12.27,12.27,0,0,0-1.08-4v-.24l4.92-.48v4.68q0,2-2.88,8.28a73.5,73.5,0,0,1-8.76,14.88C420.6,405.36,408.72,412.2,395,412.2q-33.3,0-51.36-25.68a74.65,74.65,0,0,1-11-23.76,85.23,85.23,0,0,1-3.36-23.64c0-9.72,1.56-21.6,4.56-35.4,3.24-15.48,7.08-26.28,11.4-32.28l4.56-7.68c2-3.72,3.84-6.6,5.16-8.64,4.92-7.08,11.88-12.6,20.88-16.44,14.52-6.24,28.2-6.24,40.8-.12a37.33,37.33,0,0,1,11.88,8.76c2.76,3.12,4.2,5.88,4.2,8.16Zm75.6-27.24a12.08,12.08,0,0,1,.36,3.24c0,4-9,13.92-26.88,30l-4.44,4c4.08,7.32,8,14.88,11.88,22.44q10.8,21.06,10.8,24.84l-.36,3.36a9.21,9.21,0,0,1-1.32,3.12c-3.24-4.68-8.4-14.28-15.24-28.8-6.12-13.08-9.36-20.28-9.6-21.6-9.48,8.4-16.2,13.92-20,16.56-.84,11.88-2,23.52-3.72,34.92h-1.68a68,68,0,0,1-.48-7.2c0-24,.12-38.76.24-44.28.6-16.8,2.4-30.36,5.16-40.8,1.08,5.4,1.56,13.44,1.56,24.24,0,7.68-.12,15.24-.48,22.8l17.28-16.44c16.08-15.12,28-26,35.76-32.88ZM378.84,208.8a4.89,4.89,0,0,1,1.32-.72l.36,2.88a19.29,19.29,0,0,0,1.32,5c1.92,4.44,5.52,6.72,10.8,6.72,7.44,0,13-1,16.56-3,2.16-1.2,3.24-2.28,3.24-3.36a9,9,0,0,0-3.12-7,41,41,0,0,0-6.72-4.32,22.82,22.82,0,0,1-6.6-4.8,12.51,12.51,0,0,1-3.12-8.64c0-5.52,1.2-9.6,3.72-12.12a9.92,9.92,0,0,1,8.28-2.52,15.64,15.64,0,0,1,8.16,3.6c2.52,2,3.72,4.32,3.72,6.6l-.24,2.52-.6,1.56L411,186.36c-2.52-2-4.68-3.12-6.48-3.12a8.23,8.23,0,0,0-7,3.84,8.55,8.55,0,0,0-1.92,4.8c0,.84,1.08,1.92,3.12,3.48l6.84,4.8c6.72,5.16,10.08,11,10.08,17.4a10.06,10.06,0,0,1-3,7.32c-3,3-7.8,4.56-14.4,4.56-8.88,0-14.88-2.16-18.12-6.36a13.81,13.81,0,0,1-2.4-8.28c0-2.16.12-4.08.24-5.64Zm13.8-158.16c0,9.48-1.92,25.32-5.88,47.76-2,11.88-4.68,25.92-7.92,42.36-4.44-9.24-9.6-21.36-15.72-36.36L347.76,66.6l-.6-.6-4.08,37q-2.7,22.14-5.4,36.72l-2.4-.36a36.21,36.21,0,0,1-.6-5.64c0-5.88,1.68-21.48,5-46.68,3-22.92,4.92-36.6,5.88-41l1.08-.24c6.36,20,16.2,44.76,29.76,73.92l.24.24a147.49,147.49,0,0,1,2.64-19.68l4.08-19.8,2.64-20c1.08-8.52,2.76-14.52,5-17.88C392.16,44.4,392.64,47.16,392.64,50.64ZM405,17.16l1.2-1.44a18.43,18.43,0,0,0-4.32-5.52q-5-4.14-12.24-1.8l-.84-1,.36,5-.72,7.8h1.2c6.6,0,11.16-.48,13.44-1.56A5,5,0,0,0,405,17.16ZM409,23c-1.56,4.2-4.68,6.24-9.6,6.24l-10.2-.36-1.44-1.08c-1.32,12-2.4,19.56-3.24,22.8a10.19,10.19,0,0,1-2.4-2.88,7.26,7.26,0,0,1-.48-2.88,178.31,178.31,0,0,1,1.8-22.8c1.32-8.64,2.52-14.52,3.84-17.64A13.29,13.29,0,0,1,387,2.16c0-2.16,1.2-3.36,3.48-3.6a15.13,15.13,0,0,1,7.8,2,22.45,22.45,0,0,1,7.8,6.24,14.51,14.51,0,0,1,3.6,9.24A23.9,23.9,0,0,1,409,23ZM445.2,45.72l1,1.8L464.64,47l.84-.48,10,.24,1.2,2.28a6.8,6.8,0,0,1,.48,3,7,7,0,0,1-1.92,5.28l-5.16.36-5.64.72-13.2.36-4.44.12-.48,8A104.77,104.77,0,0,1,443.52,83v54.48c-.84,4.8-1.2,12.48-1.08,23.16,0,10-.6,17.64-1.68,23a7.1,7.1,0,0,1-2.52-4,15.71,15.71,0,0,1-.72-4.92l.72-17c.6-10.92,1.08-19.56,1.44-26V78.24c.48-1.68.84-7.56,1.2-17.64V59.16l-3.6.36-29.76-.24A6.37,6.37,0,0,1,406.44,57a17.67,17.67,0,0,1-.24-3c0-2.52.6-4.32,1.92-5.28l29.16-1.08,6.36-.12ZM580.92,14.64c4.92,8.16,7.32,13.44,7.32,15.72a16,16,0,0,1-.36,3.36l-1,3.12.12.36-2,.36c-1.2,0-3.6-3-7.08-8.88-4.2-7.08-7-11.4-8.52-13H555A39.82,39.82,0,0,0,528.48,36.6a52,52,0,0,0-6.24,25c0,4,3.48,12.84,10.56,26.64,11,22,18.72,37.8,23,47.64q33.48,77.22,33.48,154.56c0,8.88-.24,14.88-.84,18l-6.12,22.92c-1.32,4.8-2.4,8.16-3.12,10a33.51,33.51,0,0,1-6.72,10.2C565,359.16,552,364.2,533.64,366.72c-12.84-3.84-21.24-10.92-25-21.24a49.67,49.67,0,0,1-2.52-13L506,321.36c0-10,.48-17,1.56-21.24,1-3.48,4.44-12.12,10.32-26a16.09,16.09,0,0,1,1.56,4.08,19.61,19.61,0,0,1,.6,4.32c0,2.52-1.44,8.4-4.32,17.76s-4.32,16.08-4.32,20.4c0,6.48,1,11.64,2.76,15.48,1.56,3.36,5.16,8.4,11,15.24q30.24,7.56,47.28-23.28a102.25,102.25,0,0,0,9-23.28c1.56-6.48,2.4-11.16,2.4-14.16a322,322,0,0,0-10.44-81,420.52,420.52,0,0,0-23-64.44q-16.74-35.1-23-49c-7.08-15.48-10.56-27-10.56-34.8,0-13.8,2.4-25.68,7.08-35.52C532.68,7.8,548.28-.72,571,.24,573,2.28,576.36,7.08,580.92,14.64Z" transform="translate(-4.92 3.82)"/></g></svg>