<svg id="Layer_1" data-name="Layer 1" xmlns="http://www.w3.org/2000/svg" viewBox="0 0 581.45 591.29"><defs><style>.cls-1{fill-rule:evenodd;}</style></defs><path class="cls-1" d="M349.08,564.12c4.08,6.12,9.84,9.12,17.28,9.12h23c4.2-.12,7-.6,8.16-1.56.6-.48,1.68-2.4,3.36-5.88a57.56,57.56,0,0,1,7.44-11l-8.88.6-10.92.84-3.24-.12L384,556a35.31,35.31,0,0,1-.6-5.28,9.34,9.34,0,0,1,.48-3.48q.54-1.62,1.44-1.8c2-.72,6.36-1.2,12.84-1.44l12.12.36a7.31,7.31,0,0,1,2.76,5.16l.12,6.12c0,1.32-.6,7-1.68,16.68l-1.8,15.84c-.12,0-.24.12-.6.48l-1,.84c-1.32-1.68-1.92-4.32-1.92-7.8a64.73,64.73,0,0,1,1.08-9.36l-.84,1.2c-4.44,7.2-8.88,10.8-13.56,10.8-25.2,0-41.4-5.16-48.48-15.36a19,19,0,0,1-3.6-10.68l.48-5.16c0-15,3.6-27,10.68-36.24a42.06,42.06,0,0,1,23.64-15.36,43.88,43.88,0,0,1,23.64,0c7.08,2.16,10.68,5.28,10.68,9.48a8.66,8.66,0,0,1-.48,3.36,8.55,8.55,0,0,1-1.92,2.64l-1.68-3.6c-1.08-1.56-3.24-2.4-6.48-2.4-17.4,0-30.6,3.36-39.72,10.08-9.72,7.08-14.64,17.76-14.64,32C345,556.32,346.32,559.92,349.08,564.12Zm-32.76-108.6L315,466.92c-1.8,16.92-3.36,28.92-4.56,36,20.28-.12,34.32-3.6,41.88-10.32a18,18,0,0,0,6.24-14.16c0-5.88-1-10.2-2.88-12.84-3.24-4.56-10.2-7.56-20.64-9.12l-2.76.12-6.24-.24-4.56-.6Zm2.76-33.24c0,3.6-.48,10.68-1.56,21.24l1.44.6a7.84,7.84,0,0,0,3.6,1.44c8.76,0,15.6-1.44,20.64-4.32,3.48-2,5.28-4,5.28-5.76,0-1.56-1.92-3.72-5.76-6.36a97.13,97.13,0,0,1-11.52-9c-5.76,0-9.84.48-12.12,1.44Zm-6.84.24a22.44,22.44,0,0,1-.24-3.24c0-4.32,2.16-7.32,6.36-8.88,4-1.44,8.52-1.32,13.92.24a31.06,31.06,0,0,1,14,8.52,23.76,23.76,0,0,1,6.24,16.32,23,23,0,0,1-3.72,12.24l-1.2,1.68.36.24a38.19,38.19,0,0,1,9.84,12.24,33.54,33.54,0,0,1,4.44,16.44c0,5,0,8.16-.12,9.24a24.82,24.82,0,0,1-4.68,11.88c-7.44,9.72-23,14.52-46.8,14.52-3.72,0-6.12-1-7-3a9.59,9.59,0,0,1-.36-3.6c0-3.48.6-5.16,1.68-5.28l2.64.36v-.72c0-12.12,1.08-29,3.12-50.76l.12-1.08v-.36a23.55,23.55,0,0,1,.24-4l.24-.48c.84-8.4,1.8-15.12,2.64-20.28l-.72.12ZM334.92,232a9.69,9.69,0,0,1,.36,3c0,12.6-.6,25.08-1.8,37.56A289,289,0,0,1,328,308.28a8,8,0,0,1-2.64-4.32L325,301.2c0-10,.84-22.56,2.4-37.92,1.8-18.24,4-29.4,6.24-33.48Zm-193.2-212a10.59,10.59,0,0,1-2,3.84l-13.2.36-13.92.72L85,25.2v.36L83.88,44.88,82.8,64.08l.72,18.84C84,95,84.48,104.4,85,111.24V165.6c1.32,7.08,2.16,17.76,2.4,32,.36,15.12,1,25.8,1.92,32.16v49.32q4.32,41.58,10.8,163.56c0,4.08-.72,11.88-2.28,23.28a348.74,348.74,0,0,1-9.36,46.92Q69.54,580,32.52,580c-13.32,0-21.36-5.88-24.12-17.52a46.38,46.38,0,0,1-1-12.6l.72-7c0-11.52.12-18.72.48-21.72A63.36,63.36,0,0,1,15.72,498a17.63,17.63,0,0,1,2.16,8.52c0,1-.72,5.28-2.16,12.84a144.18,144.18,0,0,0-2.16,22.92l-.36,5a27.38,27.38,0,0,0,.84,7.56q2.7,9.72,14.4,9.72,36.36,0,55-60.36a263.94,263.94,0,0,0,9.12-41.88l2.16-19.8c0-4.68-1.32-27-3.84-67q-4.32-65.88-7-90.6V234.12c-1.32-6.48-1.92-16.8-2-30.84s-.84-24.6-2.28-31.68V116.4c-.48-7.44-1-18-1.44-31.8l-.72-21c0-2.52-.24-6.72-.84-12.72-.6-6.36-1-11-1-14a46.38,46.38,0,0,1,1-11.52l-21.36.12C49,28.56,41.52,30.24,32.76,30.6l-17.64-.24c-4.2,0-6.72-1.2-7.8-3.6a5.57,5.57,0,0,1-.48-2.52l.24-1.56A8.44,8.44,0,0,1,7,18.84c.36-1.08,1.8-2,4.08-2.88,5.28-1.8,20.4-4,45.24-6.24l57.36-.48c13.56-2.52,22.44-2.4,26.4.36a5.07,5.07,0,0,1,2.4,3.48l-.12,2.4A18,18,0,0,1,141.72,19.92ZM177.84,141a62.36,62.36,0,0,0-15.6,13.32c-2.52,3-6,7.44-10.44,13.44q-17.1,20.52-22.44,54.36l-9.24,54.24c-3.24,20.52-4.8,38.4-4.8,53.64,0,7.08.36,12.12,1.08,15.36v56.88l5.52,43.2q3.42,26.82,6.12,42.84l3.36,20.88a126.57,126.57,0,0,0,6.36,22.2c11.52,28,21.36,41.88,29.52,41.88q40.14,0,66.6-70.2A367.48,367.48,0,0,0,248.16,454l4.56-23.64q4.68-29,7.32-70.44,2.34-38,2.4-73.2,0-44.1-5-71.28c-9.24-46.92-17.4-70.32-24.72-70.32a58.74,58.74,0,0,0-17.52-9C201.36,131.64,189,133.2,177.84,141Zm49.44-24.12c19,29.16,31.08,57.84,36.24,86.28a269.48,269.48,0,0,1,4,40.08q.36,10.26.36,43.2,0,88.38-9.72,151.8a354.57,354.57,0,0,1-12.72,53.88,285.83,285.83,0,0,1-19.8,48.36c-7.92,15-16.2,26.52-24.84,34.8-9.36,9-18.6,13.44-27.6,13.44q-21.24,0-37.2-41.64a271.2,271.2,0,0,1-9.24-30.48c-1.8-7.56-3-13.56-3.6-17.76-1.08-7.44-3-22.56-5.88-45.36-2.4-19.56-4.44-34.68-6.24-45.6V351.12c-.72-4.32-1.08-11.4-1.08-21.12,0-11.88,1.2-28.08,3.72-48.6q5.4-44.82,15.72-79.32,13.86-46.26,34.68-67.32c16.92-17.4,37.08-21.6,60.24-12.72A16.11,16.11,0,0,1,227.28,116.88Zm-4.08-49-10-.48-41.64-.6-.24-.36c-11.52,18.6-22,34.68-31.44,48h-1.68a37,37,0,0,1-.48-6.12c0-2.28,8.52-16.92,25.68-43.92q30.24-47.52,37.32-61Q215,20.94,238.68,64.2q22,39.78,22,43.56a8.34,8.34,0,0,1-.84,4.32c-.84,1.32-2.52,2.16-4.92,2.4-6.36-13.56-14-29-23.28-46.32Zm-7.8-10.8,10.44.36-23.4-42L177.72,56C202.32,56.4,214.92,56.76,215.4,57.12Zm136.08,253v48.36a358.83,358.83,0,0,1-4.08,48.36c-2.64-1.68-4-4.56-4-8.76,0-3.12.12-10.8.48-23l.6-18q-3.78,0-4.68-.72l-36.24.48-.36,5.52c-2,25.8-3.36,40.56-4.2,44.28h-1.68a71.82,71.82,0,0,1-.48-7.68c.6-15.84,1.2-29.88,1.92-42.12h-1.68A6,6,0,0,1,296,354.6a19.34,19.34,0,0,1-.24-3.12,7.89,7.89,0,0,1,3-6.36h.72c1.32-18.48,3-32,4.92-40.8,1.08,2.52,1.56,6.36,1.56,11.28,0,4.44-.48,14.28-1.56,29.64l36.84.12,3.12,2.28.24-13.92c.72-15.12,2.52-25.32,5.28-30.48a12.29,12.29,0,0,1,1.32,3.24Zm133.2-72c0,6.12-1.56,22.32-4.68,48.84l-5,43.56L471.24,376c-1.8,17.64-4.2,32.88-7.44,45.72q-24.12-54.54-35.76-82.8c-13.8-32.76-24-60.84-30.84-84.24H397q-4.86,87.48-13.2,154.92l-.6.48-1.08.84c-1.32-1.68-1.92-4.56-1.92-8.64,0-4.92.6-13.2,1.92-25.08l4.08-38q5.94-58,6-102.36c0-2.88.6-4.92,1.8-6.24l32.4,86c13.08,34.32,25.2,63.48,36.12,87.6q6.3-27.36,9.24-79.92c1.08-18.84,1.92-32.16,2.52-40.2a383.4,383.4,0,0,1,5.52-40l-.24-1.32-2,1.32.36-1.2c1.08-2.88,1.68-4.68,1.68-5.52a14.71,14.71,0,0,0-.72-4.68c1.32-.6,2.64-1.2,4.2-1.8A14.52,14.52,0,0,1,484.68,238.08Zm-97-125.28,1.32,2.52a12.08,12.08,0,0,1,.36,3.24c0,.84-5,7.8-15.12,21.12-6.84,8.76-12.12,16.2-16.08,22.2l-1,1.56a76.87,76.87,0,0,0-5.16,8.64c-4,7.56-9.24,16.56-15.84,26.88l-17.16,25.92a36.21,36.21,0,0,1-.6-5.64q0-5.22,28-48.72l7-10.68a170.25,170.25,0,0,1-15-16c-7.56-9.24-11.28-16.68-11.28-22.56,0-3.12.6-5.28,1.92-6.6,2.52,3.72,8.52,10.68,17.88,20.64,5.88,6.72,9.6,12.48,11.28,17.28C371.28,132.84,381.12,119.52,387.72,112.8ZM409,52.08q-24.12,42.66-31.2,58.32c-5.88-7.08-11.4-16.44-16.8-27.84-5.64-13.08-9.84-22.8-12.72-29-1.8,6.48-5.4,16-11,28.44-6.12,13.8-10.2,23.52-12.24,29.28C319.2,99.84,311,81.84,300.48,57Q285,20.46,285,17.4c0-1.8.12-3.6.24-5.28l.6-.48,1-.84,20.28,42.48Q318.78,79,323.64,96.12a266.56,266.56,0,0,0,13.08-28,274.2,274.2,0,0,0,9.6-28.44L347.4,39,361,67.92c5.76,12.6,11.28,22.32,16.56,29.28C380,91.44,384.24,83.28,390,72.84l13.44-25,7.92-16c3.72-7.44,6.6-13.08,8.88-17,6.84-11.64,10.32-12.48,10.32-2.4Q430.56,13.92,409,52.08ZM544.44,18.72q-42.3,0-61.68,23.52a50.9,50.9,0,0,0-9.36,16.92,32.26,32.26,0,0,0-2,9.36c0,11.76,6,27.36,18.12,46.68,5.4,8.76,16,23.4,31.44,43.92,8.28,11,16.32,25.8,24,44.16l9.24,22.8q5.58,13.5,9.72,22.32,12.06,24.48,18.84,83.52a824.47,824.47,0,0,1,5.52,94.56A282,282,0,0,1,585.36,468c-1.56,10-4.56,24.72-9.24,44-3.48,14.52-12.24,31.92-26.52,52a170.77,170.77,0,0,1-17.52,21.36c-5.88,5.88-10.44,8.76-13.56,8.76-16.56,0-31.68-6.36-45.48-19.2a80.59,80.59,0,0,1-13.2-15.48c-3.24-4.92-5.16-8.88-5.76-12.12a176.36,176.36,0,0,1-3.36-24.72c-.6-8-1-16.2-1-24.48a63.54,63.54,0,0,1,.48-7.56q.9-6.3,2.16-7.92c3.48,2.4,5,6.12,4.8,11.28l-.6,6.6a24.25,24.25,0,0,0,.12,6.72,74.08,74.08,0,0,1,1.2,12.48c.12,6.6.36,10.92.48,12.72.36,3.84,2.28,8.4,5.52,13.8a78.19,78.19,0,0,0,12.84,15.12c12.36,11.52,24.6,17.28,36.6,17.28,14.64,0,27.6-10.08,39-30.24a212.88,212.88,0,0,0,11.52-25.2l7.32-20.64c5.4-14.64,8.76-27.84,10.32-39.6.84-7.56,1.32-19.92,1.32-37.08A675.92,675.92,0,0,0,576,333.72q-8.1-56.7-21-86.64a561.53,561.53,0,0,0-34.68-67.44c-5.52-8.88-15-22.92-28.32-42.12-9.36-13.32-15.72-24-19.08-31.92-4.68-10.92-7-23.16-7-36.72a128,128,0,0,1,.72-16.68,37.3,37.3,0,0,1,6.6-16.68q13-18.36,57.12-31.68,28.62-5.58,41,19.8a72.25,72.25,0,0,1,7.08,31.8c0,4.32-.84,7.8-2.64,10.56-1.8-1.32-2.88-3.6-3.36-6.84L572.28,54a33,33,0,0,0-.84-6.24,56.29,56.29,0,0,0-3.72-12C562.56,24.36,554.88,18.72,544.44,18.72Z" transform="translate(-6.79 -2.83)"/></svg>