<svg id="Layer_1" data-name="Layer 1" xmlns="http://www.w3.org/2000/svg" viewBox="0 0 554.52 574.68"><defs><style>.cls-1{fill-rule:evenodd;}</style></defs><path class="cls-1" d="M337.32,297.24q9.9-3.6,13-.36,29,19.08,39.6,63.72c4.2,18.12,6.36,41.28,6.36,69.72,0,3.48.12,9.72.36,18.48a100,100,0,0,1-.24,12.6c-.6,7.08-4,20-10.08,38.76-5.16,16-11.16,29.64-17.88,40.92-10.8,18-22.2,27-34.08,27q-46.08,0-61.92-64.08c-3.6-14.4-5.88-31-7-49.68-.48-8-.72-19.44-.72-34.32,0-12.36,1.08-22.8,3.36-31.2l12.12-36.6c2.52-7.56,7.2-15.36,14.28-23.4a121.38,121.38,0,0,1,21.6-19.56C323.88,303.6,331,299.64,337.32,297.24ZM172.68,339.72a173.38,173.38,0,0,1,2.64-25c1.2-5.88,2.76-10.32,4.68-13.2s3.12-1.44,3.24,4.56c-.36-4.8-2.28,22.8-6,82.92l-2.16,36,41.16-3.12,22.32-1.56L240.84,393c1.32-16.44,2.4-28.08,3-34.92Q248,317.4,256.32,292.2a5.36,5.36,0,0,1,3,3.24,9,9,0,0,1,.6,3.12q0,7.38-15.84,122.16a3.94,3.94,0,0,1,2.76,1.08c.84.72,1.2,2.64,1.2,5.64l-.24,4.44a2.71,2.71,0,0,1-2.28,2l-3.24.12-.84,5.28c-1.32,9.72-2.28,21.36-2.88,34.68l-1,35.16q-1.26,44.46-7.2,69.48c-1.68-.84-2.88-3-3.72-6.48a40.08,40.08,0,0,1-.72-7.8l5.76-54q5.22-50.22,5.88-76.2H224.88c-15.72,0-29,.84-39.72,2.64l-10.8,2.28q-3.06,57.24-3.12,85.68,0,5.58,1.08,18.72c.72,8.76,1.08,14.88,1.08,18.24,0,1.56-.72,4.56-2.16,8.76a48.27,48.27,0,0,1-2.88,7.08c-1.2-1.08-2-2.88-2.64-5.52l-.36-3.72a38.52,38.52,0,0,1,1.08-9.36V490.68c1.08-12.84,1.92-29.64,2.52-50.28l1.2-50.4C170.76,373.2,171.6,356.4,172.68,339.72Zm-72.24-28.8q-48.42,0-67.56,52.92c-3.84,10.68-7.2,24.84-10.2,42.24q-4.5,26.46-6.12,31.32v51.12a41.68,41.68,0,0,0-1.08,9c0,1.92.6,6.24,1.92,13.08A158.58,158.58,0,0,0,25,537.24Q39.54,575.4,66.24,575.4c19.56,0,35.28-5.88,47.4-17.64a133.06,133.06,0,0,0,14.76-18.24c6.12-9.24,11-16.32,14.52-21.24a10.57,10.57,0,0,1,2.4,6.48c0,.84-1.8,4.32-5.28,10.68a205.94,205.94,0,0,1-13.92,21.84q-23,31.5-42.72,31.44-38.16,0-58-33.84A107,107,0,0,1,13.8,525a123.11,123.11,0,0,1-3.24-27.36c0-6.24.36-10.68,1.08-13.44V433.08c1.08-5.52,2.28-12.6,3.48-21.12l3.12-20.76C21,374.76,25,360.6,30.36,348.6a85,85,0,0,1,13.56-20.76A116.92,116.92,0,0,1,67.68,306.6q27-18.18,48.24-1.8a48.15,48.15,0,0,1,12.24,13.68c2.76,4.44,4.2,7.68,4.2,9.48a10.55,10.55,0,0,1-1.92,6.12,27.54,27.54,0,0,1-3.72-4.92c-2.28-3.24-4.32-5.88-5.88-7.68C114.72,314.4,107.88,310.92,100.44,310.92ZM167.28,14.4a10.68,10.68,0,0,1,1.8,6,10.57,10.57,0,0,1-.6,3.48,15,15,0,0,1-1.8,3.24l-20.52,2.16-17.64,1.56-13.8,1.68-8,.12c2.16,7.32,3.36,16.2,3.6,26.4l.12,20.28a182,182,0,0,0,1.32,20.52l3,40.32c.84,14.76,1.32,28,1.32,39.6l1.08,18.6a147,147,0,0,1-3.24,35.4q-11.16,49.86-57.6,49.8c-20.52,0-33.6-8.52-39.24-25.68a55.72,55.72,0,0,1-2.64-17.76l.48-8.16A26.35,26.35,0,0,1,16,223.8l1.32-.84c2,2.88,3.12,7.32,3.48,13.32l.24,15.6c.24,5.88,1.32,10.2,3.36,13,2.52,3.72,6.72,5.52,12.72,5.52,18.6,0,33.36-2.52,44.52-7.56a44.3,44.3,0,0,0,21.72-20c4-7.32,6.36-17,7.2-29,.48-5.16.72-16.44.72-34a574.34,574.34,0,0,0-5.4-81.48c-1.92-13.08-3.12-22.8-3.72-28.92-1.08-10.92-1.56-23.16-1.68-36.6l-16,.24-3.24.84-3.36.84L22.2,34.32a9.12,9.12,0,0,1-1.92-6.12,10.17,10.17,0,0,1,.48-3.48,11,11,0,0,1,1.92-3.12l29.4,2c15.36.72,26.52-.72,33.48-4.2L115.8,19a89,89,0,0,0,13-1.92c5.16-1.08,15.72-1.92,31.44-2.4V14Zm19.56,54q12.06-44.64,19.32-52.92c2.28,15.24,5.16,37.08,8.52,65.76,3.6,30.12,6.36,52.08,8.28,65.64l16.68,61.32q16,58,16,69.48a32.24,32.24,0,0,1-.24,4.56c-.36,1.56-1.08,2.4-2.28,2.4-4.08,0-6.72-1.2-8-3.72a10.35,10.35,0,0,1-.84-4.92,16.39,16.39,0,0,1,1.8-3.72l1.68-3.24q0-8.64-14-59.4l-13.44-49-.48.6-9.72-.84c-4,0-10,.84-18,2.64s-13.2,2.52-15.6,2.52l-10.2-.24-.72-1.08Q144.06,236.64,129.36,279a3.59,3.59,0,0,1-2.76-2.88l-.24-3.24c0-3.24,5.16-21.48,15.6-55,8.52-27.48,16.56-52.32,23.88-74.52,3-9,6.6-21.24,10.68-36.48Zm16.68-31.08Q193.62,67.74,169,152.4l23.16-2.16,25.44-1.68c-6.72-40.68-11.28-77.4-13.8-110.4Zm150.36,279.6-3.24-4.56c-2.76-4.2-5.64-6.12-8.76-5.52A74.58,74.58,0,0,0,329.76,313a106.39,106.39,0,0,0-13.8,9,126.81,126.81,0,0,0-16.8,16.2,87.72,87.72,0,0,0-11.4,16.2c-6.84,13.08-11.52,24.24-14.16,33.48a119.19,119.19,0,0,0-4,31.92l.6,22.2a361.76,361.76,0,0,0,5.4,46.32q12.42,66.6,44.88,66.6,43,0,61.2-61.68A242.94,242.94,0,0,0,390,450.48l1.44-19.8-.24-28.92a166.63,166.63,0,0,0-3.36-28.8c-1.44-7.08-5.76-17.52-13.08-31.56-7.8-14.88-13.32-22.32-16.68-22.32A5.58,5.58,0,0,1,353.88,316.92Zm10.56-286.2a7.5,7.5,0,0,1-1.2-4.68,11.21,11.21,0,0,1,.6-4.44c.84-1.44,3-2.16,6.24-2.16,4.2,0,6.48.24,7,.84s.72,1.92.84,4.32V68.52C378.6,75,379,85.32,379,99.36l.48,31.68a571.4,571.4,0,0,1-4,67.32q-11.88,97-54.12,97.08-29.52,0-37.32-36.84a112.45,112.45,0,0,1-2.4-25.44l.48-11.64c0-11.88.84-33.12,2.64-63.6l2.76-43.2q-1.62-64.44-1.68-77.52a37.75,37.75,0,0,0-1.32-6.12A33.12,33.12,0,0,1,283.2,25a10.76,10.76,0,0,1,.72-4.08q.72-2.16,2.16-2.16c1.2,1.44,2.4,4.56,3.6,9.48a45.11,45.11,0,0,1,1.56,9.12L290.16,58.2l-1.08,20.88c0,.84.6,5.88,1.68,15.12a195.79,195.79,0,0,1,1.56,20.64l-2.64,49.08c-1.8,30.48-2.76,49.56-2.76,57.24l-.12,10.44a153.93,153.93,0,0,0,2,20.88c3.72,19.8,11.76,29.76,24.12,29.76q45.54,0,57.84-89.52a494.45,494.45,0,0,0,4-62.64L374,99.36Q373,55.44,373,33.84C368.76,33.72,365.88,32.76,364.44,30.72ZM565.08,179.28a167.06,167.06,0,0,1-15.6,59.64q-26.82,57.42-83.16,57.36l-7.08-.24L442,295.2a6.24,6.24,0,0,1-1.56-3.48V294c.12,6.36.24,23.28.24,51,0,25.56-.12,44.64-.36,57-.48,20.4-1.44,39.12-2.88,56.28l-4.8,56.52c-2,21.24-4.56,39.72-7.32,55.44A23.48,23.48,0,0,1,420,557.4c-.36-1.92-.48-6.24-.48-13,0-1.8.24-5.64.72-11.76.6-7.08,1.08-12.72,1.68-17a2.54,2.54,0,0,1,2.16.6l1.2.72c4-18,6.72-45.72,8.52-83.28q2-41,1.92-89.16c0-26.88,0-43.2-.12-49.08-.6-18.36-1.92-34.56-4.2-48.6v-52q-.54-9.72-1.44-26.28l-.72-17.28A302,302,0,0,1,432,112.44c1.8-13.8,2.64-24.36,2.64-31.68,0-5.88-.72-15.12-2.16-27.6-1.32-11.52-2-20.16-2.16-25.8a11.09,11.09,0,0,1-1.08-4.68,5.93,5.93,0,0,1,.48-2.88,3.85,3.85,0,0,1,3.6-2.76l29.28.6Q526.5,27,551,90.36,565.08,126.54,565.08,179.28Zm-4.8-.36q0-48.06-13.8-81.72Q522.9,39.42,462.6,30.6l-26.16-.48c1.32,11.28,2.28,28.2,3.12,50.76a297.62,297.62,0,0,1-2.64,35.4c-1.8,14.52-2.76,26-2.76,34.8l.72,16.32c.48,10.2,1,18.24,1.44,23.88V242.4c2,12.6,3.24,27.6,3.84,44.76a10.21,10.21,0,0,1,1.32-4l5.4-7.2c2.64.12,4.2.84,4.68,2a11,11,0,0,0,4.2,5.28q57.42-1.62,85.68-46.08a123.41,123.41,0,0,0,15-34.44C559,193.44,560.28,185.52,560.28,178.92Z" transform="translate(-10.56 -14.04)"/></svg>