<svg id="Layer_1" data-name="Layer 1" xmlns="http://www.w3.org/2000/svg" viewBox="0 0 542.51 502.41"><defs><style>.cls-1{fill-rule:evenodd;}</style></defs><path class="cls-1" d="M307.68,50.64l-1.2-.6a101.39,101.39,0,0,0-40.32-4.8A2230.67,2230.67,0,0,1,22.44,57.36L22,59a14.91,14.91,0,0,0-.48,4,10.29,10.29,0,0,0,.6,3.24l.36.84c41.16.24,82.68-.12,124.8-1l7-.24a524.87,524.87,0,0,0,20.64,104.88,565.36,565.36,0,0,1,14.28,57q11.7,58.86,19.44,118.44a345.06,345.06,0,0,1-6.84,127.56,28.08,28.08,0,0,1-5.28,10.92q-24.66,31-66.24,36.6Q75.3,528.66,52,482.16l-7.68-15.24Q21.6,419.58,39,372.84a6.71,6.71,0,0,0-3.24-4A45.32,45.32,0,0,0,26.52,398,249,249,0,0,0,43.2,484.56c10.68,27.84,31.08,44.16,61,49a110.58,110.58,0,0,0,50.16-3.36c33.12-10,52.32-31.68,57.48-64.92a389.81,389.81,0,0,0,4-87A1020.7,1020.7,0,0,0,199.68,251.4a572.76,572.76,0,0,0-15.48-62.52A756,756,0,0,1,157.68,65.76a417.84,417.84,0,0,0,42.36-4,381.43,381.43,0,0,1,108.36-.6l.84-2.52a7.39,7.39,0,0,0,0-4,11.09,11.09,0,0,0-1-3.24Zm53.76,257.28a264.49,264.49,0,0,1-37,121.44q-9.36,16-27.36,16.56a29.79,29.79,0,0,1-23.4-9.6q-27.54-29.16-31.32-70.2-4.14-47.52-6-95.76a335.9,335.9,0,0,1,19.32-126.12c9.72-27.12,28.8-42.36,57-45.72a8.76,8.76,0,0,1,5.16,1.32l4.56,2.88.12.12A188.91,188.91,0,0,1,350,160a177.8,177.8,0,0,1,4.56,20A567.49,567.49,0,0,1,361.44,307.92Zm8-58.92a322.47,322.47,0,0,0-22.56-125.88c-8.4-21-23.76-32.28-46.08-33.6q-49.5,25.38-59.28,82.8a675.22,675.22,0,0,0-9.24,110.4,527.5,527.5,0,0,0,15.12,127.44Q254.1,437.7,277.2,453q25.92,17.1,43.44-7.2A234.93,234.93,0,0,0,365,328.44C367.56,302.16,369,275.76,369.48,249Zm25.2-82.32L394.2,295.8q-.36,64.8-6.12,128.88c-1.08,12,0,22.56,3.12,31.8q5.76-51.12,7-103.08c1.08-42.84,1.8-85.92,1.92-129.12s0-86.4-.48-129A524,524,0,0,0,394.68,166.68ZM562,47.4c-7.08,12.36-11.52,26.52-13.44,42.36l-5.64,44.52c-5.4,42.6-10.08,85.32-13.8,128.4C525.36,305,521.88,347.4,518.64,390c-1.8,23.16-3,46.56-3.72,70L509,423.6,487.92,297.24l-21-126.12A629.86,629.86,0,0,0,434.28,50.76v-1l-.12.84-.72-1.92a31.49,31.49,0,0,0-.6,14.28q-5.22,52.2-6.72,106.44-1.62,64.44-4,129l-2.4,64.92q-2.7,64.26-8.88,128.16c-1,9.72.48,17.52,4.44,23.4q4.86-38.88,7.44-78.72c2.76-42.72,4.56-85.8,5.16-129.12q.9-64.44,3.24-129Q433,122.64,434,67.92l.72,2.4A713.84,713.84,0,0,1,465.36,195q9.54,63,21,126,5.58,31.32,10.8,62.88,9.9,60.3,17,120.6v12.36c0,12.12,2,22.2,6.12,30.48l.84-13.92,2.4,4.8.72-1.68c2-8.28,1.68-15.6-1.2-21.84l-1-6.36.36-28.32q0-64.44,5.52-128.16t10-127.56c1.08-16.08,2.4-32.16,3.84-48.12A929.89,929.89,0,0,1,562,52.2l1.08-.84Q565.38,49.2,562,47.4Z" transform="translate(-21.48 -44.91)"/></svg>