<svg id="Layer_1" data-name="Layer 1" xmlns="http://www.w3.org/2000/svg" viewBox="0 0 579.74 571.44"><defs><style>.cls-1{fill-rule:evenodd;}</style></defs><path class="cls-1" d="M203.16,436.92c-2.88-16.44-5.76-30.24-8.64-41.52-6.6,16.8-13.68,38.64-21,65.52l33.12-4.08Zm1.92-15.48c2,15.48,3.72,27.24,4.92,35l6-.72a11.23,11.23,0,0,1,1.2,9.72l-1.8,3-3.36.36c2.28,10.92,6.6,28.44,13.2,52.32q9.72,35.46,9.72,36a10.57,10.57,0,0,1-.6,3.48l-1.8,3.12q-13-31.5-22.2-84.24l-1.68-10.32-19.8,3.36L169.56,476c-10,37.8-16.8,62.64-20.76,74.52A3.61,3.61,0,0,1,146,547.8a18.19,18.19,0,0,1-.24-3.36c0-1.8,3.12-14.16,9.48-37.08l9.36-33.84a28.34,28.34,0,0,1-.36-4.2,33.13,33.13,0,0,1,.24-5.4c.36-.84,1.44-1.56,3.24-2l.6-2.28c4.92-20.28,8.64-34.56,11.16-42.72,5-16.08,10.68-29.76,16.92-41.16Q201.3,392.64,205.08,421.44ZM214.8,378a3.76,3.76,0,0,1,1.68-2.52c8.16,21.72,16.32,49.2,24.36,82.2L261,541.32l.48.24c3.24-12.36,7.08-28.56,11.52-48.84l10.92-49.92c2.88,6.12,5,14.64,6.36,25.32,1.8,13.56,3.24,22.8,4.56,27.48,1.56,5.52,3.36,14.16,5.64,26,2.4,10.68,5.52,19.44,9.48,26.4,4.32-11.52,7.56-25.08,9.84-40.56.6-4.44,2.16-18.24,4.44-41.64,1.2-10.44,3.36-24,6.36-40.56l7.8-41.4,1.32-.84a9.44,9.44,0,0,1,2.88,4.2,11,11,0,0,1,.6,3.36l-6.36,36.84c-4.56,25.44-7.32,42.6-8.28,51.6-2,20.52-3.84,35.28-5.4,44.16A209.07,209.07,0,0,1,311,566.76c-6.84-13-12.6-29-17.16-48.24-.84-3.36-4.08-19.8-10-49.2l-.24-.48c-4,24.36-11.16,54.12-21.36,89.28-3.72-4.92-6.6-12.12-8.88-21.6l-2.64-11.64c-1-4.44-1.92-8-2.76-10.68-2-5.88-4.2-13.08-6.48-21.84l-5.76-22c-3-10.68-7.32-27.48-13-50.28-5.88-23.64-8.76-36.36-8.76-38.16A11.52,11.52,0,0,1,214.8,378Zm96-164.76q0,38.52-2.16,81.6c-1.8,37.2-4.32,57.12-7.32,59.76-1.32-3.24-1.92-8.16-1.92-14.64q0-29.88,2.76-73.68c2-32.64,4.2-53.88,6.72-63.6C310.2,205.2,310.8,208.8,310.8,213.24ZM194.88,22.32c-.36,1.56-1.08,2.28-2.16,2.28L191,24.48l.6-.36L163,22l-42.24,3.48-11.16,1.2c1.56,9.72,2.88,20.52,4.2,32.4l4.44,44v79.56q9.36,58.14,13.68,103.2,4.86,50.94,4.8,101.28c0,21-.24,36.36-.84,46.2-.6,12.84-2,30.36-4.56,52.8a134.69,134.69,0,0,1-4.8,25.2,69.46,69.46,0,0,1-12.84,24.36l-9.24,7.56c-7.08,5.64-14.16,10.8-21.24,15.6C61,573.6,44.16,581,32.52,581c-14.64,0-24.36-7.2-29-21.6a61.94,61.94,0,0,1-2.64-15v-7.32A88.64,88.64,0,0,1,3,519.36,95.61,95.61,0,0,0,5.16,499.8a9.12,9.12,0,0,1,1.92-6.12,9.37,9.37,0,0,1,5.4,5.28,19.2,19.2,0,0,1,.72,6.12c0,3.24-1.2,8.64-3.72,16.2s-3.84,13.08-3.84,16.2a48.27,48.27,0,0,0,3,17.16c3.24,8.76,8.52,13.2,15.72,13.2q26.82,0,58.32-20.52a225.89,225.89,0,0,0,19.44-14.4l8.28-7.56c5.16-6,8.88-13.68,11-22.92C123,492,124.68,484.2,126.36,479a492.81,492.81,0,0,0,5-49.44c.24-6.6.36-21,.36-43.08,0-30.6-1.8-64.2-5.28-100.56q-4.86-50.22-13.08-99v-80.4L108,70.08c-2.16-14.64-3.24-26.76-3.24-36.48,0-2.4,0-4.56.12-6.48l-27,3.24-63.24.72a9.71,9.71,0,0,1-1.92-6.48,16,16,0,0,1,.6-4.08,7.13,7.13,0,0,1,1.8-3.24l64.44-.48c34.8-3.6,54.36-6,58.56-7.2.72.6,15,1,43,1l6.12-.36a16.43,16.43,0,0,1,4.44.12c2.28.48,3.48,3,3.48,7.68A26.89,26.89,0,0,1,194.88,22.32ZM233,29.52c-19.32,6.12-34,13.08-43.8,21-8,6.6-13.44,14.28-16.08,23.28-1.32,4.68-2.28,12.6-2.76,24-.48,10.32-1.92,18.24-4.2,23.76-1.44,10.56-4,26.4-7.68,47.4-3,18.84-4.56,34.68-4.56,47.52,0,8.88,1.32,20.64,4,35.4q5,27,5.76,35.28l1.2,17.52c.84,7.32,2.4,13.44,4.8,18.12a94.07,94.07,0,0,0,13.68,19.92c8.52,9.36,17.28,14,26,14q42.48,0,62.16-74.28a375.12,375.12,0,0,0,9.6-53.28c1.32-12.6,2-22.32,2-29.16,0-12-1.68-27.6-4.92-46.92-3.24-18.6-7.32-37.2-12.36-55.56-5.4-19.32-10.8-35-16.32-47C243.48,37.2,238,30.24,233,29.52Zm4.44-13c.12-.72.24-1.08.48-1.08,5.4,4,11.28,13.8,17.52,29.4,5.64,13.92,11,31.08,16.2,51.6,4.8,19.32,8.76,38.4,11.76,57.24,3,19.2,4.56,34.56,4.56,46.2,0,12-1.2,26.4-3.6,43.32-1.92,14-4.44,28-7.44,42q-6.12,27.9-25.8,56.4c-5.88,8.52-11.64,15.36-17.28,20.4-6,5.4-11,8-15.24,8-17.16,0-30.36-5.28-39.72-16a54.59,54.59,0,0,1-8.28-12.6l-4.2-9.36a61,61,0,0,1-5.76-19.32l-1.8-19.56a410.8,410.8,0,0,0-6.72-42.12,174,174,0,0,1-3-34.56c0-12.6,1.8-29.76,5.52-51.48,4.2-24.12,6.6-41.16,7.2-51.24,1.8-33.48,10.8-58.68,26.76-75.6,13-13.8,28.68-20.64,47.16-20.64C236.88,17.64,237.36,17.28,237.48,16.56ZM343.56,23a10.23,10.23,0,0,1,6.36,7.08,24.51,24.51,0,0,1,.84,7.32,16.61,16.61,0,0,1-1.8,7.8c-.6-.6-1.56-2.52-2.76-5.64q-1.26-3.6-4.32-3.6-19.08,0-29.16,46.56a294.59,294.59,0,0,0-6.24,46.68,71.39,71.39,0,0,0,2.76,17.52c2.64,10.2,6.36,15.36,11.28,15.36,5.64,0,10.08-3.24,13.56-9.84l3.72-7.8a27,27,0,0,1,2.76-4.8v-16l-17.64-.6a11.11,11.11,0,0,1-3-7.32c0-2.52.6-4.08,1.92-4.92,3-2,9.48-2,19.44-.24.84.6,2,5.28,3.36,14a140.8,140.8,0,0,1,1.8,17.52l-.48,7.08-.6,8.76a73.11,73.11,0,0,0,1,7.68c.24,3.6-.72,6-2.76,7.2a13.47,13.47,0,0,1-2.16-3.36l-.84-2.28v-14l-3.48,7.44c-4.68,9.72-8.52,14.64-11.4,14.64-10.68,0-17.88-7.44-21.6-22.44a85.12,85.12,0,0,1-2.4-15.6l-.12-7.32c0-2.52.72-10.56,2.28-24.24C305.64,91,307,81,308,76.08c.6-2.76,1.2-7.56,2-14.4a71.42,71.42,0,0,1,2.52-13.92c3.24-10.44,11.16-18.72,23.88-25.08Zm32,186.84a15,15,0,0,1,2-3.12c1.68,1.32,2.88,4,3.72,7.68a28.19,28.19,0,0,1,.84,6.48c0,8-2.16,33.36-6.36,75.72-4.44,43.32-7.56,69.84-9.6,79.56q-11.16-26.1-18.12-70.08l-5.4-35.88c-2.16-13.8-4.44-25.44-6.84-35-1.44,13.8-3.24,34.8-5.28,63-2.52,24.84-6.24,45.72-11.4,62.88-1.32-.48-2.28-1.68-2.88-3.72a13.77,13.77,0,0,1-.72-4.44c0-4.68,1.92-17.4,5.64-38.4l6.24-35c.36-4,.72-10.08,1.08-18.24s.84-14.16,1.2-18.24l2.4-18.72c1.08-8,2.76-13.8,4.8-17.28,3.72,14.28,8,39.24,13.08,74.64,4.44,32.28,9.48,57.24,14.88,74.64l.24.24c.84-12.84,3.24-39,7-78.24,3.48-36.24,5.16-55.08,5.16-56.52a12.56,12.56,0,0,0-1.08-4.2,15.48,15.48,0,0,1-1.08-4.32A9.05,9.05,0,0,1,375.6,209.88Zm21.6-157.8a8.32,8.32,0,0,1-2.88,4,24.26,24.26,0,0,1-1.68-3.72l-2.16-5.16c-2.28-4.44-5.28-6.6-9.24-6.6-6.36,0-11.16,5.64-14.52,17a115.67,115.67,0,0,0-4,27.6l-1.32,26.64-.84,17.64-.36,5.88a86.63,86.63,0,0,0,.36,11.52c1.08,10.92,4.32,16.32,9.72,16.32,3,0,6.12-3,9.48-9.12l3.48-7.2,1.68-3c1.08-9.72,2.16-17.76,3.24-24.24v-.36a28.12,28.12,0,0,0-6.72,1.08l-3.84.84L375,121l-1.44-.84a35.31,35.31,0,0,1-.6-5.28c0-2.28,1.2-4.44,3.48-6.24a15.16,15.16,0,0,1,7.68-3.12,11.85,11.85,0,0,1,7.56,1,6.4,6.4,0,0,1,3.48,6.12c0,6-1.56,19.44-4.8,40.44-3,19.68-4.92,30.6-5.76,32.88q-1.8-4.14-1.8-12.6c0-2.76.12-6.12.36-9.84-4,8.64-7.56,13-10.92,13q-13.86,0-16.56-22.68A95.31,95.31,0,0,1,355.2,138l.48-7.44c-.36-14.4-.6-24.12-.48-29,.12-7,1.44-18.48,4-34.68q3.42-21.42,10.08-31.68c3.72-5.76,7.92-8.52,12.6-8.16,4.2.24,7.8,2.64,10.92,7.08a25.29,25.29,0,0,1,4.56,14.4Zm52.32-26.4C452.28,28.92,453.6,33,453.6,38c0,3.6-.84,6.48-2.4,8.52A6.35,6.35,0,0,1,448,43.2l-1.32-4.56c-1.08-4-3.24-5.88-6.48-5.88-10.8,0-18,7.92-21.72,23.76a122.73,122.73,0,0,0-2.76,19.8l-1,16c-.6,7-1.08,16.8-1.32,29.64-.24,14.16-.48,24-.84,29.64-1,13.8-3,33.72-6.12,59.52q-4.14,35.64-5.76,55.08l3.12-.12a74.85,74.85,0,0,0,34.32-7.8c2.76-1.32,4.32-1.8,4.92-1.32.6.72.84,3.48.84,8.28,0,2.76-.12,4.32-.48,4.92-.84,1.2-3.24,1.8-7.08,1.8a18.18,18.18,0,0,0-6.12,1.32L423.6,276c-6.84,2.64-14.76,4-24,4.08l-8.52,98.64c-5.88,71.4-8.88,114.48-8.88,129.48l-.12,8.88a87.1,87.1,0,0,0,1.68,16.68C387.24,549.24,394.92,557,407,557c13.56,0,24.72-11.76,33.24-35.4a185.41,185.41,0,0,0,7.08-24.72L449.52,485c1.32,3.24,1.92,7.68,1.92,13.44,0,1.56-.72,5.64-2.28,12.36a179.36,179.36,0,0,1-7.08,24.48q-13,34.92-31,34.92c-17.28,0-28.08-10.32-32.4-30.84a100,100,0,0,1-1.92-21.48l.48-10.56q0-24.48,3.84-70.56T385,365.28Q385,341.7,395,266.4q10.26-76,10.44-84,.54-33.12,4.32-91.8a212.13,212.13,0,0,1,7.8-45.36c2.52-8,6-14.28,10.2-18.6,3.72-3.72,7.68-5.52,11.88-5.64A12.33,12.33,0,0,1,449.52,25.68ZM549.6,112.56C546.36,99.36,542,88.2,536.4,79,527.28,64.2,514,50,496.56,36.72c-7.8-5.64-13-9.6-15.48-11.76l-2.28-1.8-1.32,6.12v82.8c-.72,8-1.08,20.64-1.08,37.68,0,16.44.36,28.8,1.08,37V254c.72,10.92,1.08,27.6,1.08,50.28,0,29.64-.36,53.28-1.2,70.68-.72,15.72-2,31.56-3.84,47.52l-7.08,54.12c-3.24,24.36-6.24,49.44-9.24,75.48a9.16,9.16,0,0,1,1.8,2.76l1.44,4.08q59.76-25.56,81.48-66.72c5.16-10,9.6-22.08,13.2-36.36,3.48-16.2,6.36-28.2,8.4-36.12q4.68-17.28,8.4-67.08,3.42-45,3.48-74.4l-.12-36.36a155.06,155.06,0,0,0-1.68-21.6c-.84-5.16-2.76-13.68-5.64-25.8l-11.52-49C553.68,131,551.4,120.12,549.6,112.56Zm4.92-7.68,3.36,17.52c1.32,7.56,2.52,13.32,3.48,17.28l12.72,51.6c2.76,11.76,4.56,20.64,5.4,26.76a146,146,0,0,1,1.08,22.2l-.24,38.16q0,56-1,74.4c-1.56,27.72-5.16,52.68-11,74.88L559,465c-4.2,14.64-9.6,27.12-16.08,37.32l-11.28,18.6a80.48,80.48,0,0,1-17.88,18.72l-25,18.24c-14,9.72-22.92,14.52-26.76,14.52-2.88,0-5-2-6.36-6.24l-.12.84c-2.28-1.92-3.48-6.24-3.48-12.84,0-1.32,1.08-10.2,3.36-26.4,3-21.48,5.52-40.68,7.44-57.48q10.8-92.7,10.8-166.08,0-30.42-1.08-45.72V191c-.48-5.88-.72-14-.84-24.72L471.48,150q0-27.9,1.08-41.76V23l.72-6.48A5.59,5.59,0,0,1,476,11.88l.12.12c1.08-1.32,2.64-1.92,4.92-1.8,4,.12,9.24,2.76,15.84,7.68,15.48,11.64,30,29.16,43.56,52.8Q549.84,84.18,554.52,104.88Z" transform="translate(-0.84 -9.6)"/></svg>