<svg id="Layer_1" data-name="Layer 1" xmlns="http://www.w3.org/2000/svg" viewBox="0 0 311.15 214.14"><defs><style>.cls-1{fill-rule:evenodd;}</style></defs><path class="cls-1" d="M245.4,292c-1.56,27.48-3.84,54.72-6.84,82L235.32,378a10.78,10.78,0,0,1-11-1.08,17.18,17.18,0,0,0-7.8-7.92c-4.44,10.2-1.68,18.6,8,25.2a16.71,16.71,0,0,0,13.8-.48,114.83,114.83,0,0,0,11.64-52c-.12-17.64-1-34.68-2.64-51.24C246.12,290.4,245.52,290.88,245.4,292ZM247.8,230h-.12c-4,13.08-4.08,25-.24,35.52C251.88,253.44,252,241.68,247.8,230Zm28.92,58.2q-3.6,33.3-4,68a92,92,0,0,0,2.64,23.16c4.2,16.92,15.36,22,33.72,14.88a23.52,23.52,0,0,0,10.2-7.32,80.82,80.82,0,0,0,17.76-46.8c1.2-18.84-1.32-36-7.56-51.24a17.17,17.17,0,0,0-2.52,13.8,171,171,0,0,1,2.88,39.84q-2,37.8-39.6,38.88l-2.64-1.8c-8.76-7.8-12-19-9.48-33.48a156,156,0,0,0-.6-58.32C277,288,276.72,288.12,276.72,288.24ZM224,196.68l-70.92,3.84a12,12,0,0,0-.6,8.88L153,211l.48,1c17.4.6,34.8.72,52,.48a111.84,111.84,0,0,0-2.76,25.2c.12,11.16.12,22.2-.12,33.24-1,42.84-1.68,85.68-2.28,128.28a2.32,2.32,0,0,0,2.16,2.16,452.26,452.26,0,0,0,6.48-66.36q1.62-62.1-1.56-122.52l42.6-1.56a13.23,13.23,0,0,0,1.56-9l-.84-2.52-.48-.72-.72-.48Zm233.52,1.2a502,502,0,0,0-4.44,78.72l.24,9.24-22.56-1.68-9.24,1.68-4.92.6-2,.48c-.12-19.08-.84-38-2-56.88a76.37,76.37,0,0,0-4.2,25.44q0,40.14-3.48,80.16a346.77,346.77,0,0,0,.48,64.2c.84-.36,1.44-.72,1.56-1.32a228.49,228.49,0,0,0,5.88-40.2q1.62-29.7,1.8-59.4A350.59,350.59,0,0,1,453.48,300c.36,35.4,0,70.56-1.32,105.6q.54,2.88,3.24,2.16a443,443,0,0,0,6-81.24l-.48-26.4a12.35,12.35,0,0,0,1.8-10.08l-.24-.84a6.46,6.46,0,0,0-1.2-2.4l-.72-.48c-.6-29.88-1.44-59.4-2.52-88.8C457.68,197.64,457.56,197.76,457.56,197.88ZM422,194a350.25,350.25,0,0,0-81.72,6.24l-.24,1.56a11.79,11.79,0,0,0,.6,7.32c13.8.84,27.72,1.08,41.76,1-2.28,19.32-4.2,39.36-5.76,60q-4.68,64.26-3.84,128.4c6.6-2.76,8.28-8.16,4.92-16,1-17.16,2.16-34.44,3.72-51.84A846.33,846.33,0,0,0,383.88,210L425,208.08l1-1.68a11.77,11.77,0,0,0-.36-11.28l-1-.6Z" transform="translate(-151.94 -193.76)"/></svg>