<svg id="Layer_1" data-name="Layer 1" xmlns="http://www.w3.org/2000/svg" viewBox="0 0 441.74 504.01"><defs><style>.cls-1{fill-rule:evenodd;}</style></defs><path class="cls-1" d="M367.2,525.72v4.68a20,20,0,0,0-1.68-5.16ZM163,444.24l.48-1,.36-.84.24-1.08.12-1.08.12-1.08V438a8.88,8.88,0,0,0-3.6-8L66,429.84l-1.44,1.32-.84,1.44-.36,1.68v.84l-.12.72v.84l.24,1.8a5.83,5.83,0,0,0,2,4l55.32,4.2a169,169,0,0,0-1.2,25.92A129.19,129.19,0,0,0,123,498.84q8.1,34.56-17.52,52a10.5,10.5,0,0,1-6.36,1.92,38.9,38.9,0,0,1-13.32-3.36q-21.06-9.9-26.28-35.28A47.73,47.73,0,0,0,57,525.84a27.67,27.67,0,0,0,1,8.88q8.82,35.46,44.88,33a31.84,31.84,0,0,0,9.36-2.52,12,12,0,0,0,7.68-8.4,246.66,246.66,0,0,0,4.44-110l37.44-.84ZM319.08,235.08l-2.64-46c18.6,2.16,25.32,11.52,20.28,28.2C334,226.2,328.08,232.08,319.08,235.08ZM59.64,111.24C63.12,96.84,72,89.76,86,89.88c3,.12,4.8,1.44,5.4,4.08a64.66,64.66,0,0,0,6.84,18.84,15.14,15.14,0,0,0,2-5.64c3-19.8-4.8-30.24-23.52-31.44C61,86.28,52.32,101.52,51,121.32q-3.24,48.06-5.16,96.48-2.52,62.46-1.68,125c.36,25,5.76,48,16.44,69a25.46,25.46,0,0,0,18.12-.6C96.6,403.8,102.84,392.76,97.44,378a25.16,25.16,0,0,0-5.28,4.8A57.79,57.79,0,0,1,76.56,395a7.57,7.57,0,0,0-2.76,1q-6.66,3.42-11.88-.72A140.63,140.63,0,0,1,52.56,354a1031.46,1031.46,0,0,1-1-129.24c.6-10.8.6-21.6.24-32.28A281.22,281.22,0,0,1,59.64,111.24ZM169.92,82.92a249.75,249.75,0,0,0-7.8,64c.12,26.52-.24,53-1.32,79.56l-.48,12A15.71,15.71,0,0,0,153.6,237l-5.52.6a201.21,201.21,0,0,0-20.88,4.32l-2.52.84,1.08-36.24q2-64.8,0-128.28a321.89,321.89,0,0,0-6.48,60.36l-2.4,129q-1.26,65-6,127.92c-1.08,8.28.72,13.92,5.64,17a731.53,731.53,0,0,0,5.64-77l2.16-79.32a226.73,226.73,0,0,1,35.4-4q-2.34,51.66-5,103.32a314.22,314.22,0,0,0,2.52,64.08c.84-.24,1.2-.6,1.32-1q3.6-39.24,5.52-79.32,3.24-63.9,3.84-128.28.72-65.34,2.52-128.28ZM314.4,178.08c-2.52,20.88-4.2,42.84-5,66-.6,16.68-1.56,33.48-2.76,50.28a211.52,211.52,0,0,0,.24,31.44A169.43,169.43,0,0,0,317.16,274l1.2-25.32,8.16-2a247.09,247.09,0,0,0,32.28,70.56c1.56-13.2-1.44-27-9.24-41.28l-17.16-32.4a43.62,43.62,0,0,0,15.36-29.76,32.18,32.18,0,0,0-5-21c-7-10.68-16.32-15.36-28.2-14.28ZM295,89a108.51,108.51,0,0,1-.12,18.72q-1.62,57.78-2,115.8-.18,64.8,1.2,129a908.09,908.09,0,0,1-6.24,129.12,165.75,165.75,0,0,1-13.32,48.12q-16.2,36.18-58.8,24.36a7.75,7.75,0,0,1-4.08-5.28,333.71,333.71,0,0,1-9.12-81.6l1-129c.36-43.08.84-86,1.56-129.12s.36-85.92-1-128.28c-3.72,9-5.52,19.56-5.4,31.44q.36,59.22-1,118.56c-.84,42.84-1.56,85.92-2,129l-.36,64.92a1150.73,1150.73,0,0,0,6.84,129,13.18,13.18,0,0,0,6.72,10.68q28.62,17.1,58-.36a57.43,57.43,0,0,0,10.44-16.68A312.32,312.32,0,0,0,300.48,430.2c.36-43.08,0-86-.84-129q-1.26-64.8.6-129.12c.6-21.6,1.68-43.2,3.48-64.8q1.26-15.12-6.12-23.4A21,21,0,0,0,295,89Zm60.6,233.52-12.48-.24C324.84,345,314.76,372.12,313,403.44Q310.8,440.7,309.84,478c-.6,22.2-.36,44.52.48,66.72l.6,4.56,1.08,4.2,1.56,3.84a20,20,0,0,0,11.76,10.32q27,9.54,39.72-19.8a29.62,29.62,0,0,0,2.52-9l1.68,32.28c9-14.52,10.08-34.68,3-60.24l-26.52-1.32c-2.52,1.08-3.48,3.12-3.12,6a19.85,19.85,0,0,0,.84,3.84,24,24,0,0,0,1.2,2.52l17.16,2.28L359.28,530l-1.92-1.8c1.44,12-3.84,20.52-15.72,25.56a17.16,17.16,0,0,1-9.12,1.32,17.89,17.89,0,0,1-8.16-2.4L323,551.4a4.43,4.43,0,0,1-.84-1.68l-1.44-8.88a626.69,626.69,0,0,1-6-71.76q-2-66.06,22.32-124a26.46,26.46,0,0,1,5.76-8.76h11.88l9.24,8.16a8.11,8.11,0,0,0,1.92-7l-.6-2.76-.48-1.56Zm9.72-83.64,29.52,5.76q5.22-7.92-.36-15.48l-26.64-5.52a132.78,132.78,0,0,0-.36-40.2q-10.44,20.34-4.68,44.64Zm36.84,15.72A181.55,181.55,0,0,0,395,298.2l-.24,6.36L377.16,250.8l-1.08,2.64-.6-2.16a245.55,245.55,0,0,0-4.56,73.2l.36-.24a186.44,186.44,0,0,0,5.88-41.76l.24-6c5.16,13.32,9.84,26.88,14,40.44a26,26,0,0,0,3.24,6.6,8.79,8.79,0,0,0,3.84,2.88,344.55,344.55,0,0,0,3.84-63ZM365.76,87l-19.68,59.88a177.79,177.79,0,0,1-3.24-29.76c-.36-11.64-2.76-21.24-7.32-28.92-3.72,13.8-7.68,27.72-12,41.52a86.16,86.16,0,0,1-5.64,13.68c-4.92,9.72-5.52,18.36-1.92,25.68a315,315,0,0,0,19-57.36L338.28,150c.72,9,3,16.2,6.72,21.6a562.15,562.15,0,0,0,18.6-53.4l.24.84c1.92,17.64,4,35.16,6.24,52.8l-.72.84a9.62,9.62,0,0,1,1.2,4l.6-.48c.36,2.64,1.56,4.32,3.84,4.92l.6-.84a723.34,723.34,0,0,0-9.24-93.36Zm108,17.4a15,15,0,0,0,4.56,7.44,3.8,3.8,0,0,0,3.84,1l.12-.72q-2.88-31.86-34.2-36.36A38.73,38.73,0,0,0,430.8,87.6Q399.3,124,409.92,172.92A301.46,301.46,0,0,0,432,237.72,449,449,0,0,1,469.68,359a533.77,533.77,0,0,1,5.4,120.72q-3.42,53.82-51.12,79.56a25,25,0,0,1-14.16,1.2,14.84,14.84,0,0,1-9.24-6,181.84,181.84,0,0,1-16.92-29,19.28,19.28,0,0,0-4.2,12.12,21.18,21.18,0,0,0,1,7.32,100.55,100.55,0,0,0,14.4,25q12.06,15.3,29.88,6.84c29.16-14,46.8-36.6,52.92-67.44a438.28,438.28,0,0,0,7.92-95.64,423.26,423.26,0,0,0-21.6-123.72,407.87,407.87,0,0,0-17.4-43.32,519.77,519.77,0,0,1-28.92-76.8c-6.12-21-3.48-40.68,7.68-59,12.12-20,27.24-23.4,45.24-10.32l1,1.56,1.32,1.56Z" transform="translate(-43.93 -75.72)"/></svg>