<svg id="Layer_1" data-name="Layer 1" xmlns="http://www.w3.org/2000/svg" viewBox="0 0 578.88 582.48"><defs><style>.cls-1{fill-rule:evenodd;}</style></defs><path class="cls-1" d="M349.08,578.64a196.88,196.88,0,0,1,1.8-23.88l3.6-25c2.88-20.76,3.12-36.48.6-47.16h1.32l.6,2.28c.24-1.44,1.44-2.88,3.48-4.44,3.12-2.4,7.2-3.6,12.36-3.6l8.16.84,16.56,1.68,1.08,1.8.24,2.64a6.56,6.56,0,0,1-.48,2.88l-1.2,1.56-16.68-1.44-7.68-.72a20.9,20.9,0,0,0-7.8,1.2,46.89,46.89,0,0,1-7.32,2.28l-.12-.24.12,3.84v30.24l.6-.48c.48-.36,2.16-.84,5-1.2l15.48-1.32,10.56-1,3.84-.84a5.64,5.64,0,0,1,1.08,2l.24,2.76c0,1.8-.48,3.12-1.44,3.84-2.4,1.8-7.56,2.76-15.36,2.88l-13.68.24-3.6.6a4.2,4.2,0,0,1-2.76-1.08l-.12,8.16c-.36,15-1.32,30.84-2.88,47.64l-.12.48a3.46,3.46,0,0,1-2.28.6c-1.2,0-2.16-1.32-2.76-4.08ZM296,493.2v2.64l-1,27.6-.24,8.28a19.58,19.58,0,0,1,4.56-2.4,67.06,67.06,0,0,1,14.52-3.72,58.57,58.57,0,0,1,14.52-1c4.44.36,6.6,1.56,6.6,3.36a4.23,4.23,0,0,1-.72,2.76l-2,1.68c-5.16-.24-10.44-.24-15.6,0-10.2.6-17.28,2.28-21.24,4.8l-.84-.12-.48,11.16q0,23.94-3.24,41.76l-1.32.24c-1.8-4.32-2.76-7.44-2.76-9.24q2.7-61.74,6.6-88.32c-1.08-.36-1.68-1-1.68-1.68v-2.52a3.09,3.09,0,0,1,1.8-2.16l1.08-.48.12-.6.12.48c3.24-1.2,9.6-2,19.08-2.64v-.48l19,.24,1.32,1.32a5.4,5.4,0,0,1,.48,2.76,5.9,5.9,0,0,1-.36,2.4L332.88,491l-9.72.48-10.32.84L302,493.44Zm50.28-125.64.48.48c.12.24-.48.36-1.56.36a3.46,3.46,0,0,1-2.76-1l-1.08-2c-1.2-2-4.92-3-11.28-3-8.16,0-15.72,9.36-22.68,28a182.23,182.23,0,0,0-6,19.68c-1.44,5.52-2.16,8.88-2.16,10v8.4A83.73,83.73,0,0,0,301,443.88c3,14.52,9.12,21.72,18.36,21.72,12.36,0,21.6-2.88,27.48-8.64a40.57,40.57,0,0,0,5.16-6.48c1.56-2.28,2.76-3.72,3.6-4.2l1,.48a4.58,4.58,0,0,1,.36,2.28c0,.48-.72,2-2.16,4.8a87,87,0,0,1-5.64,9c-6.12,8.52-11.64,12.72-16.8,12.72-19,0-30.72-8.88-35.16-26.52a77.12,77.12,0,0,1-1.8-19l.72-10.32c0-15.48,2.64-28.68,7.92-39.84,4.44-9.24,10.2-16.08,17.4-20.52,6.36-4,12.12-5.4,17.4-4.2s7.92,4.32,7.92,9.6C346.68,366.6,346.56,367.44,346.32,367.56Zm-205.8,6.12.72,9c0,7.2-.12,13.2-.48,18A77.94,77.94,0,0,1,138.24,418v42.12l-.6,12.12.12.36.24,2.64-.6,1L135,522.6,131.52,586l-.6.48-1.08.84a11.79,11.79,0,0,1-2.16-7.32c0-8.76,1.08-31.56,3.36-68.52l2-33L124,481.2c-9.24,2.52-16.68,3.84-22.2,3.84l-5.16-.24-2.76-.24V503.4l-1.08,4.08v47.88c-.36,1.56-.72,6.6-1.32,15C91,577,89.76,582.24,88,586.2a7.3,7.3,0,0,1-2-3.6,13.77,13.77,0,0,1-.72-4.44,95.75,95.75,0,0,1,1.08-13.44c.72-4.8,1.68-9.48,2.76-14.16V503.4l1.08-4.08V445c.36-3,1.44-14.88,3.12-35.64,1.68-22,2.52-35,2.52-39.36a6.18,6.18,0,0,1,.36-2.52l.48-1a4.19,4.19,0,0,1,2.76,2.4,6.51,6.51,0,0,1,.72,3L99.36,417c0,2.16-.84,7.56-2.4,16.2l-3.12,15v27.6h6.84l18.48-2.52L133.68,471l.84-14.88V413.88a79.57,79.57,0,0,0,3-15.72c.36-4,.48-9.36.48-16a60.44,60.44,0,0,0-1.32-7.2,52.83,52.83,0,0,1-1.32-7.2,6.36,6.36,0,0,1,1.2-3.24,8.43,8.43,0,0,1,2.28-2.64C139.44,364.92,139.92,368.76,140.52,373.68Zm-84.24-4c-20,0-33,23.64-39.12,70.92a481,481,0,0,0-3.36,76.8l-.72,10.68a112.39,112.39,0,0,0,.72,20.52c2.52,19.32,10.2,28.92,23,28.92,11.64,0,21.84-7.68,30.72-23.16A150.22,150.22,0,0,0,76.2,536l5.52-13.44h.48l.6.6L78,540.6a177.18,177.18,0,0,1-7.68,21.72c-7.92,17.64-18,26.4-30.24,26.4-16.68,0-26.76-11.4-30.12-34.32a121.6,121.6,0,0,1-.84-24.24L10,517.8V473.88c.48-16.8,2-31.44,4.68-43.8,1-4.68,2.76-11.88,5.28-21.36s4.44-17,5.52-22.44c.48-2.28,3-5.76,7.44-10.32a64.28,64.28,0,0,1,14.64-11.64c5.88-3.48,10.68-4.56,14.28-3.48C66,362.28,68.16,367,68.16,375a7.41,7.41,0,0,1-.6,3L66,380a41.3,41.3,0,0,0-3.6-6.12C60.6,371.16,58.56,369.72,56.28,369.72ZM165.12,10.92a3.27,3.27,0,0,1,2.16,3q0,2.7-4.32,4c-4.44,1.44-7.08,2.52-8.16,3.24l-14.64-.24-16-.6-15.36-.36-6.36-.12q4.32,34.38,9.48,118,2.88,49.5,4.92,94a260.73,260.73,0,0,1-2.52,34.08,253.3,253.3,0,0,1-8.28,40.08q-14,47.34-37.92,47.4L58,352.92c-7-1.32-14-8.16-21.12-20.4-6.48-11.16-9.72-20.16-9.72-26.76a51.37,51.37,0,0,1,.24-5.88c.84-2.52,2.64-3.48,5.4-2.64l-.84,1a2.67,2.67,0,0,0-.84,2.28c0,1.8.84,5.4,2.52,10.68l3.24,10.44c.36,2,3.24,5,8.4,9.12L58.44,341c14.64,3.12,26.88-3.84,36.6-20.76,5.16-9,9.12-20,12.12-33.12.84-4.08,2-13.68,3.48-28.92,1.32-14.16,1.92-22.8,1.92-26L110.88,183l-2.4-60.36q-.54-12.78-5-60.12L99.36,19.68l-6.24-.48-18.6.24L55.2,20,19,25.44c-2,0-3.48-.72-4.08-2.16a9,9,0,0,1-.24-2.4c0-2.16.12-3.48.36-3.84.36-.84,1.8-1.44,4.08-1.8l37.2-5.52V9.24C81,9.36,93.6,9.6,94.2,10l5.64.12a2.69,2.69,0,0,1,1.08-1.2l.24,1.32,24.72.84L155,10.8C159.6,9.84,163,9.84,165.12,10.92ZM287.4,33.24,282,40.8a45.29,45.29,0,0,1-6.48,7.08,121.31,121.31,0,0,0,9-18.12l6.12-15.36c1.32,3.72,1.92,9.48,1.92,17,0,4.68-.48,16.44-1.32,35.4-.72,17.64-1,28-.84,31.08.6,13.56.36,25.44-1,35.64a243,243,0,0,0-2.28,30.12c0,10.92.36,19,1.08,24.36V306.48a72.16,72.16,0,0,1,1.08,13.8L289,335.4q-.36,14.76-1.08,23v63.24A319.15,319.15,0,0,1,276.24,481,312.79,312.79,0,0,1,255,535.68c-8.76,17-17.88,30.36-27.6,40.08C217,586.2,206.88,591.36,197,591.36q-32,0-40.32-52.2a214.13,214.13,0,0,1-2.52-36.48l.6-17.88c0-3,.24-7.2.72-12.84A88.71,88.71,0,0,1,157,460.44V403.56q2.88-35.1,9-97.56l9.36-97.92c2.4-13.8,4.2-29.88,5.52-48.48L183.36,110c2-41.64,5.88-73.56,11.76-95.64l.84,1.2a6.32,6.32,0,0,1,.48,2.76q0,13.14-7.44,93.24l-9.36,101.64c-1.8,24.24-4.68,56.64-8.88,97.32q-7.38,72.36-9.48,97.32V465.6a65.89,65.89,0,0,0-1.68,10.92,77.88,77.88,0,0,0-.48,8.16l-.24,16.8A258.11,258.11,0,0,0,161,533.76q6.3,45.54,28.44,45.48,32.22,0,52.2-31.32A180.26,180.26,0,0,0,255,521.4l9.6-22.32q16.2-31.32,19-82V353.76a69.53,69.53,0,0,0,1.08-14.16l-.24-11.76c-.24-7.2-.6-12.84-1.08-17V191.64c-.72-6-1.08-15.24-1.08-27.6,0-5.76.72-26.52,2.16-62.16,1.56-35.4,2.64-58,3.24-67.8Zm74.88,221.52c0,4.44-1.32,20.28-4,47.28q-4,39.42-5.4,49.32c-3.72-9.12-8.16-23.76-13.56-43.92s-10-35-14-45c-.84,5-1.68,12.24-2.52,21.48-1,10-1.8,17.16-2.4,21.6-2.4,16.92-7.08,31.32-14,43.08l-1.68-.84c-.36-.36-.48-1.2-.48-2.52s1.68-8,5-19.92,5.16-20.88,5.16-26.76l4-23,4-23.88.6-.36.72-.72c6.6,10.2,12.24,23.16,16.68,38.88,2.52,9,5.88,22.08,10.08,39.48l.36.24c.72-5.28,1.32-11.88,1.8-19.92l1.32-20.64c1.08-16.68,3.36-29.64,6.84-39.12l1.2,2.28A9.69,9.69,0,0,1,362.28,254.76ZM474,151.8a21.2,21.2,0,0,1,12.6,7.56,20.15,20.15,0,0,1,5,13.08,10.54,10.54,0,0,1-1.56,6.12l-1.32.36a25.84,25.84,0,0,0-2.16-10c-2.52-5.52-7.44-8.28-14.64-8.28-15.24,0-25.44,13.08-30.48,39.24a236.15,236.15,0,0,0-3.36,31.32l-1.32,23.4c-1.32,11.4-2.76,27.24-4.32,47.76L429.36,343l.84.12,4.68,1L471.12,343c1.56,0,2.4.36,2.4,1.08l-.48,4.2c0,2.76-2,4.68-6,5.52l-19,1.08c-9.6,0-16.2-.6-19.68-1.68q-3.06,31.32-9.6,92.4c-3.48,37.56-5.28,69.72-5.28,96.24l-.24,8.88a22.15,22.15,0,0,0,1.44,7.44c2,4.92,8.16,10.44,18.24,16.8,15.48-2.52,24.24-6.12,26.28-11a18.54,18.54,0,0,0,.84-7.32,30.13,30.13,0,0,1,.72-8.76l4.56-14.64a43.82,43.82,0,0,1,7.92-14c-1.68,3.24-3.24,9.24-4.56,17.76l-4,22.56c-1.8,8.52-4.32,15-7.32,19.32Q451.86,587,442.68,587l-11.28-.24q-16.92-8.82-20.88-22A45.54,45.54,0,0,1,409,553.2l.24-11.64c0-16,1.08-38.28,3.24-67.08q-4.32-11.7-16.92-69.48c-5.88-27.24-9.72-46.92-11.52-59.16-7.56,20.28-13.56,35-18,44l-.36,4.44v56c-2.52,11.28-3.72,19.92-3.6,26a1.86,1.86,0,0,0-.72.36l-1.44.72a28.09,28.09,0,0,1-1.32-9.72,66.8,66.8,0,0,1,.72-10.44L361.8,445v-55.2c1.32-8,2-19.92,1.92-35.4,0-16,.48-27.72,1.56-35.16a153.58,153.58,0,0,0,1.44-17.64l.6-18.24c.72-14.76,2.88-26.16,6.36-34.08a6.78,6.78,0,0,1,1.08,2L375,254q0,24.66-7.92,122.88l6-18,9.72-27.24.36-1.56.48-.84,3.6-9.84a157.23,157.23,0,0,0,5.4-19.56l4.44-20.76c3.48-15.84,7.2-24.84,11.28-26.88a6,6,0,0,1,1.08,2.16l.24,3c0,12.12-6.84,36.84-20.4,73.92l-2.4,6.72q6.3,26.1,11.16,61.2c1.08,7.8,4.2,21.48,9.24,41.16L413.16,464,415.8,433c5-51.48,8.16-84.36,9.36-98.4q4.32-52.38,9.72-103.68c2-21,5.4-38.4,10-52,3.6-10.68,8.16-18.24,13.8-22.8C463.44,152.16,468.6,150.72,474,151.8Zm38.52,1.92a14.6,14.6,0,0,1,.12-2.52l.48-2c26.52,2.76,46.68,25.8,60.36,69.36a311.24,311.24,0,0,1,11.28,52.2,298.83,298.83,0,0,1,3,39.72,46.78,46.78,0,0,1-1.08,11.4v119.4c.24,16.08-2.64,33.36-8.76,51.72a223.35,223.35,0,0,1-22.8,48.12c-9.24,14.76-19.08,26.64-29.4,35.64-10.68,9.24-20.4,13.8-28.92,13.8q-13.86,0-19.44-5l-.6-.6c-1.8-.36-3-1.08-3.48-2.4a21.76,21.76,0,0,1-.24-3.84c0-5.88,2.76-24.12,8.28-54.48l9.6-53.52,6.36-54.12c2.64-22,5-40,7.08-53.76V308.28q3.78-25.56,4.92-80.76,1.08-48.06,4.32-72.36Zm-158,41.4,2.76,20.28c1.8,12.48,2.64,19.92,2.64,22.32V240l-.24,1.32-.48.6-.84.84q-9.9-42.84-8.16-76.92c-3.24,9.72-7.2,22.56-11.64,38.52l-11.4,40.32a101.62,101.62,0,0,1-3.6-19.92L321.24,204l-2.88-20.64c-1.2-8.52-2.28-15.36-3.36-20.76-1.32,6.36-2.64,14-4,23.16l-3.12,23.16c-2.76,18.36-7,33.6-12.48,45.72l-1-1.08a7.6,7.6,0,0,1-.36-2.76c0-3.48,2.52-18,7.44-43.44,5.28-27.72,9.6-46.2,12.84-55.56A177.88,177.88,0,0,1,323.64,190c1.2,8.4,2.52,21.36,3.84,39v.24l10.2-39.12C342,174,346.44,161,351,151.32A74.33,74.33,0,0,1,354.12,173Zm28.44-39.36c.6,5.76.84,13.32.84,22.56V201l.36.48,2,.36a31.48,31.48,0,0,0,17.52-5.16c4.56-2.76,6.84-5.16,6.84-7,0-12.12-4.68-20.88-13.92-26.4-.84-.48-4-2-9.6-4.56C385,157.68,383.52,156.72,382.92,155.76Zm-.6-5,.48,3A3.29,3.29,0,0,1,385,151.2l6.12.12c5.88,1.8,11.28,6.36,16.2,13.8l4.56,12.12A42.49,42.49,0,0,1,414,189.48a20.44,20.44,0,0,1-4.8,13c-4.68,5.88-12,8.88-21.72,8.88-1.92,0-3.12-1.2-3.72-3.72l-.12-1.44-.12,6.48a285.19,285.19,0,0,1-3,36.36c-.12,0-.24.12-.6.48l-1.08.84a13.31,13.31,0,0,1-1.68-4.8l-.24-4.68c0-17.52,1.2-31.56,3.6-42.24V153.12C381,151.56,381.6,150.72,382.32,150.72ZM386.64,74v2.64l-.24,1.8L386,79l-.72.84a33,33,0,0,0-2.76-4c-2-2.4-4.2-3.6-6.72-3.6l-20,.24a20.16,20.16,0,0,0-2.52,2.16,4.14,4.14,0,0,0-1.2,2c0,2.52,2.16,5.16,6.6,7.8,2.64,1.56,7.44,4.08,14.52,7.56,6.48,3.36,11.28,6.72,14.52,10.08a21.1,21.1,0,0,1,6.6,15.36c0,5-2.28,9.72-6.72,14-8.28,7.92-22.32,11.88-42.36,11.88-10.68,0-19.68-2.28-27-7a36.24,36.24,0,0,1-6.36-5.28c-1.32-1.56-2-2.76-2-3.48a14.52,14.52,0,0,1,1.92-7.32c1.8,2.88,5.52,5.64,11,8.28a50.82,50.82,0,0,0,22.44,5q22.5,0,36.36-7.56a36.61,36.61,0,0,0,7.68-5.76c1.56-1.56,2.28-2.64,2.28-3.48,0-3.36-2.16-6.48-6.6-9.48-1.8-1.2-6.6-3.72-14.52-7.68-6.6-3.36-11.52-6.36-14.52-9.12-4.44-4.08-6.6-8.76-6.6-14,0-3.24.12-5.16.48-6,.84-2.28,2.88-4.32,6.36-6.12,13.08-.72,22,.48,26.76,3.48A6.93,6.93,0,0,1,386.64,74Zm144,94.32c-7.32-5.16-12.36-9-15.24-11.52l.36,3.72.24,8.28q0,13-3,73.56-3.06,60.3-4.32,70v54.36q-4.5,35.82-12.36,108.84-6.12,49.68-14.16,87.84v2a13.94,13.94,0,0,1-.72,4.08l-1.2,3L480,573.6l3.48,2.16a15.55,15.55,0,0,0,7.92,2q43.56,0,71-68.28a323.34,323.34,0,0,0,15-48.36c2-8.76,3.6-17.16,4.92-25.08V317.52a37.91,37.91,0,0,0,1.08-7.32c0-3.48-1.44-16.2-4.44-38.28-3-22.44-5-36.6-6.36-42.72-2.4-11.16-8.52-24.6-18.48-40.56C551.52,184.44,543.72,177.72,530.64,168.36Zm-2.4-145.44q-.9.72-5.4.72a272.59,272.59,0,0,0-43.32,2.88L464,29.4v.48C464,36.36,462.72,55,460,85.8c-2.52,28.32-4.2,45.6-5,51.72a17.09,17.09,0,0,1-1.8-4.2,16.59,16.59,0,0,1-1.2-4.8c0-8.76,1.68-28.92,4.92-60.48q2.88-26.46,4.32-38.16l-2,.24A359.64,359.64,0,0,1,411.36,33q-26.46,0-34.92-4.32c-2.52-1.32-3.84-3.12-3.84-5.64a25.34,25.34,0,0,1,.24-3.12V18.6c0-.36.6-.48,1.68-.48a75.53,75.53,0,0,1,7.68,2.4c4.44,1.68,7.92,2.52,10.2,2.52l70.08-2.4v0l13.8-1.8,15.6-3.24a124.54,124.54,0,0,1,19-2.64c8.28-.36,13.68,0,16.2,1.2,1.32.72,2,2,2,4.08C529.08,20.88,528.84,22.44,528.24,22.92Z" transform="translate(-8.88 -8.88)"/></svg>