<svg id="Layer_1" data-name="Layer 1" xmlns="http://www.w3.org/2000/svg" viewBox="0 0 512.1 515.55"><defs><style>.cls-1{fill-rule:evenodd;}</style></defs><path class="cls-1" d="M276.72,201q.36,41.4-.24,82.68l1.68-.12,1.44,1.8.72,1.44.24.84a8.84,8.84,0,0,1,.12,4,12.45,12.45,0,0,1-1.44,4.2l-2.88-.36-.84,34.68q-1.26,48.42,1.2,96.6a591.43,591.43,0,0,1-2.16,87.6c-4.08-8.52-5.76-19-5-31.44q2.16-40,2.52-80.28l.6-107.4A378.7,378.7,0,0,0,173,300c.24,21.48.72,43.08,1.56,64.56a1065.88,1065.88,0,0,1-2,120.84,5.08,5.08,0,0,1-.72,1.68c-3.72-5.88-5.16-13.68-4.44-23.4a1217.55,1217.55,0,0,0,3-129l-.84-34.08-2.88.6-.24-.84-.24-.84v-4.08a4.33,4.33,0,0,1,.72-2.4l2.52-.6q-.9-43.38-1-86.76c0-32.52.36-64.92,1-97.44a1.73,1.73,0,0,1,1.8-1.92q3.24,64.08,2.16,129.12-.54,28.08-.36,56.16a470.43,470.43,0,0,1,54.24-10.2l2.16-.24,43.2,2.52V273.6q.18-64.26.84-128.28a190.5,190.5,0,0,1,4.68-41.16c2.28,9.36,2.88,20,1.68,32.16A579.33,579.33,0,0,0,276.72,201ZM186.48,83.88a1.29,1.29,0,0,1-1.2.36,12.1,12.1,0,0,1-5.88-3.6,52.76,52.76,0,0,1-4.56-6l-.6-.36-2.64-.72Q141.18,48.9,105,62.76A42.67,42.67,0,0,0,88.32,74.28a125.39,125.39,0,0,0-31.68,67A710.32,710.32,0,0,0,49.2,264.12a760.55,760.55,0,0,0,14.4,127.8,414.51,414.51,0,0,0,46.2,123.72,86.32,86.32,0,0,0,22.8,26c23.64,7.8,43,1.56,58-19a82.27,82.27,0,0,1,20.76-20C210.24,516,203.64,527.76,191.4,538l-9.12,7.68c-23,19.32-44.4,18-64.2-3.72A187.73,187.73,0,0,1,81.72,483,553.25,553.25,0,0,1,49.08,356a767.18,767.18,0,0,1-6.36-127.68A505.31,505.31,0,0,1,61.56,106.92c8.52-30.36,27-51.48,55.32-63.12a75.53,75.53,0,0,1,31,4.8l3.12,1A168.3,168.3,0,0,1,178.08,66C184.44,70.8,187.32,76.8,186.48,83.88ZM457.2,317.64l-.48,129.12c-.12,23.76,0,47.52.24,71.4v.36a134,134,0,0,0,42.36-5,31.52,31.52,0,0,0,15.48-10q33.3-38.52,34.56-90.36Q551,345.66,516,289q-10.08-16.38-27.36-22a176.24,176.24,0,0,1-17.16,8.64,71.76,71.76,0,0,1-14.4,4.68ZM405.6,75.48c5.4,4.68,8.28,12.36,8.52,22.8.84,42.72,2.4,85.44,4.92,128.16q3.78,64.62,1.44,129.24a417.75,417.75,0,0,1-24.84,127.2,83.49,83.49,0,0,1-28.08,39c-12.84,9.72-25,8.76-36.6-2.76a72.86,72.86,0,0,1-19-33,338.15,338.15,0,0,1-10.08-126.36,613.45,613.45,0,0,0,3.36-64.8c.12-43.08,1.44-85.92,4.2-128.4,2-30.6,4.32-61.2,6.6-91.56.36-4.32,1.44-7.8,3.48-10.56q-2.16,63-5.76,127.44c-2.28,42.84-4.08,85.92-5.16,129-1,34.68-.72,69.36.84,103.8a184.52,184.52,0,0,0,18.24,73.2c6.48,13.56,17,18,31.56,13.32,10.2-3.24,17.64-9.84,22.32-19.68A340.66,340.66,0,0,0,413.16,367.8a1103.51,1103.51,0,0,0,.12-129.12c-2.52-42.72-5.28-85.44-8-128.16-.6-10.92-.84-21.72-.48-32.64A5.75,5.75,0,0,1,405.6,75.48Zm142.8,105q-9.72,52.74-51.48,81.36c13.32,6.12,23.76,16.68,31.08,31.44a254.57,254.57,0,0,1,26.16,124.44,218.38,218.38,0,0,1-9.6,55.32c-9,29.28-27.72,49.2-55.92,59.64A42.09,42.09,0,0,1,466.32,535L455.16,533a66.65,66.65,0,0,1-3,8.64,20.87,20.87,0,0,1-4.32-9.84l-12.24-2a8,8,0,0,1-3.72-6.48,13.67,13.67,0,0,1,1.8-8.16,139.09,139.09,0,0,0,15.48,2.64A86.39,86.39,0,0,0,452.28,490c-2.28-43.08-3-86-1.92-129,.6-26.52,1.08-53.16,1.32-79.68l-4.92.36a10.78,10.78,0,0,1-.84-3.24V276l.48-3.24,5.28-1.56L451.8,232c-.12-43.32-1.56-86.28-4.2-129.12a130.41,130.41,0,0,1,3.48-40.32l-6.84,1.08a11.26,11.26,0,0,1-1.2-3.36L442.92,58a5.94,5.94,0,0,1,.84-3.24A57.32,57.32,0,0,1,461,51.36q66.06,5,84.48,68.76A131.71,131.71,0,0,1,548.4,180.48Zm-12.48-67.8a121.18,121.18,0,0,0-14.88-24C507.6,72,489.72,63,467.52,61.92l-15.84.48c.84,41.88,1.92,83.88,3.36,126.24,1,27,1.56,53.88,1.92,80.88a144,144,0,0,0,26.52-12l.12-.12q32.58-18.9,50.76-54Q557.58,158.76,535.92,112.68Z" transform="translate(-42.29 -43.68)"/></svg>