<svg id="Layer_1" data-name="Layer 1" xmlns="http://www.w3.org/2000/svg" viewBox="0 0 546.6 531.24"><defs><style>.cls-1{fill-rule:evenodd;}</style></defs><path class="cls-1" d="M138.84,50.28a15.16,15.16,0,0,0,4.68,5.64,10.14,10.14,0,0,1,4.2,7.92c-3.24,1-6.36-.36-9.36-3.84l-4.2-4.56Q106.62,52,84.48,70.92A150.4,150.4,0,0,0,55.8,146.16c-2.16,21-4.44,41.88-7,62.76A835,835,0,0,0,43,336.36,1279.28,1279.28,0,0,0,53.28,465.6a116.36,116.36,0,0,0,19.08,50.76,38.52,38.52,0,0,0,9.72,9.48q28.62,19.62,51-1.8a43.61,43.61,0,0,0,11-17.64,104.3,104.3,0,0,1,8.52-18.6c1.8,13-.72,25.92-7.32,39-7.32,14.28-18.72,21-34.32,20q-32.22-2-47.88-28.44a69.54,69.54,0,0,1-8.52-22.56A861.24,861.24,0,0,1,39.72,369.12a1075.13,1075.13,0,0,1,2.4-129c3.24-42.36,8.52-84.36,15.6-126.12,6.36-37,27.6-60.24,63.48-69.84a22.35,22.35,0,0,1,16.44,5.52ZM264,49.56c-3.24,42.36-5.28,85.2-5.88,128.28l-1.2,85.08c2.28,2.28,2.4,5.28.6,9l-.48.6h-.24l-.48,34.32q-.9,64.8,2.76,129.12A758.45,758.45,0,0,1,256,560.88c-3.84-9.12-5.16-19.68-4.08-31.8a506.53,506.53,0,0,0,1.32-64.68c-1.92-43.08-2.52-86-1.92-129.12l1.2-63a120.07,120.07,0,0,0-50,9.72l-15.72,1.32L188,401.76q.9,64.8-1,129.12a37.28,37.28,0,0,1-4.68,17c-3.24-9-4.32-19.56-3.48-31.68,3-42.84,4.44-85.8,4.2-129.12l-1-103.8h-3.84l3.84-1.92-.36-23.28c-.48-42.84-.84-85.92-1.2-129q-.36-37.08.72-73.92A14,14,0,0,1,184,46.8a120.09,120.09,0,0,1,2.88,31.92c-.6,21.6-1,43.2-1.08,64.92q-.18,64.8.72,129.12l.12,6.6A204.51,204.51,0,0,1,252.72,262l1.32-55.8q2-64.26,2.64-128.28a93,93,0,0,1,5.52-31.56,4.4,4.4,0,0,1,1.68,2.4Zm127.2-4.08a695.36,695.36,0,0,1,0,128.4c-4,42.6-5.76,85.56-5.64,128.88a1010.31,1010.31,0,0,1-7.44,128A459.34,459.34,0,0,1,357,522.48a136.27,136.27,0,0,1-18.84,35.76,39.24,39.24,0,0,1-13.44,11.64l-12.48-1.44c-16-14.28-23.4-32.88-22.08-56a323.93,323.93,0,0,0,.12-32.4q-3.42-63.9-2.52-128.16.72-64.62.6-129.12c-.12-41.64.36-83.4,1.2-125,.36-17.64,1.32-34.92,2.64-52Q296,110,294,174c-.36,16.2-.6,32.4-.6,48.72l-.24,129.12q-.18,63.54,1.2,126.48a240.4,240.4,0,0,0,10.8,66c2.28,7.08,7.08,10.68,14.64,10.68l4.92.24a5.83,5.83,0,0,1,4.32-2.16,229.13,229.13,0,0,0,36.36-79.32,511.88,511.88,0,0,0,15.24-128.52q-.54-64.62,2.16-129c1.44-36.6,2.76-73.08,4-109.68l1.56-60A2.68,2.68,0,0,1,391.2,45.48ZM434,51.12A126.91,126.91,0,0,0,418,49.68q-4.5,61.2-6.12,126-1.44,52.74-3.6,105.72c32.4-16,52.8-42.36,61.08-79q14.58-64.26-11.16-124.68a49.28,49.28,0,0,0-22.56-25l-.84-.84Zm-20.16-5.4a6.28,6.28,0,0,1,1.2-3.24,87.89,87.89,0,0,1,13.56-1.32L433,42.24l1.32.24q40.86,29.7,43.92,82.44c1,15.72,1.2,31.44.6,47.16Q476.28,241,426,285.6l-1.08,1.08c10.68,36.36,22.2,72.72,34.56,108.84a830.49,830.49,0,0,1,26,92.52l13.68,62.88,1.2,1.2.48.72a20.41,20.41,0,0,1-2.52,14.52,283,283,0,0,1-15.48-59.76,475.57,475.57,0,0,0-22.8-91.8q-10.8-30.24-21-60.6l-13.56-41.64a98.57,98.57,0,0,1-4.68-24,30.18,30.18,0,0,1-13.2,4.68l-.48,10.44c-2,42.6-3.84,85.44-5.64,128.28a1042.19,1042.19,0,0,1-12.84,127.32L388,562c-4.92-5.64-6.24-13.68-3.84-24a287.92,287.92,0,0,0,5.4-32c4.44-42.48,7.92-85.2,10.2-128.16q2.34-42.66,4-85.56a12.59,12.59,0,0,1-.48-4.32,13.15,13.15,0,0,1,.72-3.12l1.32-35.28c1.32-42.84,3-85.56,4.8-128.28q1.62-36.72,5.16-71.4h-.72A9.39,9.39,0,0,1,413.88,45.72Zm97.56-4.56.24.84c-1.8,42.6-2.16,85.32-1.32,128.16q1.26,64.62,1.56,129.12l.48,129c.12,38.52-.6,76.8-2,115.08a182.09,182.09,0,0,1,62.16-12.48,36.77,36.77,0,0,0,11.16-2.16,16.27,16.27,0,0,1,.36,13.8l-.36.84a609.65,609.65,0,0,0-66.36,13.92,67.69,67.69,0,0,1-11,2q-1.44-63.9-.6-128.28.72-64.8.72-129L506,172.92l-.48-124.2c0-4.44,1.44-7.8,4.44-10.08A3.41,3.41,0,0,1,511.44,41.16Z" transform="translate(-38.79 -38.64)"/></svg>