<svg id="Layer_1" data-name="Layer 1" xmlns="http://www.w3.org/2000/svg" viewBox="0 0 560.04 503.78"><defs><style>.cls-1{fill-rule:evenodd;}</style></defs><path class="cls-1" d="M168.36,412.32l.36,18.72a437.13,437.13,0,0,1-47.52,8.16,1126.74,1126.74,0,0,0-3.84-119.4c-3.84,8.64-5.64,18.72-5.4,30.36,1.08,42.84.6,85.56-1.2,128.16-1,21.72-2.76,43.32-5.28,64.8-1.08,10.44,1.2,18.24,7.08,23.52q6.66-56,8.4-113.64a100.8,100.8,0,0,0,47.76-5q-.36,46.8-5,91.8c-.84.6-.36,1.68,1.32,3.24-2.76,9.48-1.56,17.16,3.84,23l.72-.84A766.08,766.08,0,0,0,176,447.48l-.24-7.8v-.84c-.84-40-.84-79.8-.24-119.52a119.94,119.94,0,0,0-8,45.24ZM55.08,327.24C39.6,332.76,29.4,343.68,24.72,360a213.09,213.09,0,0,0-7.32,38c-1.56,15-2.64,29.88-3.48,44.88a301.46,301.46,0,0,0,.48,40.32c1,13.32,2.4,26.52,4.2,39.6,2.28,16.2,8.16,29.64,17.76,40.56a17.61,17.61,0,0,0,12,5.76c17.4.6,30-7.2,37.8-23.28,4.56-9.48,2.52-16.44-6.12-20.64-2.52,18.12-14.4,27.12-35.64,26.88l-4.92-.36Q9.6,477.6,22.68,395.64a101.6,101.6,0,0,1,22.56-49.8,23.16,23.16,0,0,1,15.84-8.52,21.26,21.26,0,0,1,9.12.12,15.62,15.62,0,0,1,9.12,5.64c1.44,1.8,2.76,2.88,4.08,3.24C84.24,326.64,74.88,320.28,55.08,327.24Zm271.68-183q-1.44,64.62.36,129.12c1.32,43.08,1.32,86.16,0,129a324.1,324.1,0,0,1-28.32,124c-6.36,14.16-17.76,22.2-34.2,24.24q-31.5,3.78-38.88-28.92a437.32,437.32,0,0,1-9.6-118.32c1.08-21.72,1.8-43.32,2-64.8q.54-64.8,4.92-129a953.71,953.71,0,0,0,.36-128.28c-4.44,11.88-6.72,25.32-6.6,40.32q.18,54.36-1.44,108.72-2,64.62-4.56,129.12-2.7,64.08-2.64,128.16,0,44.82,28.8,77.4a15.54,15.54,0,0,0,10.32,5.52c29.88,3.24,50.16-8.88,61.08-36.36a375.25,375.25,0,0,0,26.52-126.36c1.44-42.84,1.68-85.92.6-129q-1.44-64.08-.72-128.28a240.62,240.62,0,0,1,2.64-32.28c2-13.2-.36-23.76-7.32-31.56-5.16,7.92-6.24,16.08-3,24.36ZM179,78.48a183.22,183.22,0,0,0-57.84-4.92L33.84,83a8.62,8.62,0,0,0-1.32,4.08,22.85,22.85,0,0,0-.12,4.08,11.16,11.16,0,0,0,1.8,5.52l1,1a57.09,57.09,0,0,0,13.56-.24,484,484,0,0,1,70.56-5.28,91.64,91.64,0,0,0-1.44,26c3.24,42.36,4.32,84.84,3.48,127.56-.36,16-6.48,29.16-18.36,39.48q-30.06,26.1-58.32-3.6a28.1,28.1,0,0,1-2-8.16q-1.26-13.5-6.84-21.6l-.6,1a44.42,44.42,0,0,0-2.16,9.6c-1.56,1.32-2.52,2.28-2.64,3a10.78,10.78,0,0,1,3.24-.84q-2.34,33.48,27.6,48.48a25.79,25.79,0,0,0,15.36,2.64c22.68-3,37.68-15.72,45-37.92a184.91,184.91,0,0,0,8.76-66c-1.8-40.32-4.32-80.16-7.8-119.64a474.85,474.85,0,0,1,58.44,4,18.61,18.61,0,0,0,2.28-9.84,13.28,13.28,0,0,0-2-6.36l-.72-1ZM499.08,364c1.32,43.08.6,85.92-2.28,128.28a271.74,271.74,0,0,1-3.36,28.08,134.81,134.81,0,0,0,.36,48.12l3.48-.72c4.2-39,7.2-78.24,8.76-117.72v-.24c19.8.36,39.48.36,58.8,0q-.36,47.7-2.16,95.4-.72,18.36,6.12,31.68a3.2,3.2,0,0,0,.6-1.56c2.16-38.52,3.48-77.16,4-116.16.6-43.56-.6-86.52-3.84-129h-.36q-4.14,42.3-4.2,86v13.68a7,7,0,0,0-2.76,2.28c1.68-.72,2.64-.6,2.76.36v1a478.51,478.51,0,0,0-58.44,3.36,1079.1,1079.1,0,0,0-2.76-115.08C500.16,334.32,498.6,348.48,499.08,364Zm-71.52-12c6.12-15,17.64-18.84,34.56-11.28l.24.24a6.15,6.15,0,0,0,4.68,2.52l1.2-.24.6-.6a10.28,10.28,0,0,0,1.2-4.92A11.31,11.31,0,0,0,469,332l-.84-1.68-1.56-.84a40.44,40.44,0,0,0-27.12-7c-9.48,3.24-15.84,9.84-19.2,19.56a269.45,269.45,0,0,0-14.16,63.6,581.36,581.36,0,0,0,1,128.4,35.52,35.52,0,0,0,11.52,22.44c11,10,23.16,11.16,36.36,3.72,16.44-9.24,21.48-21.48,15.36-36.48-10.2,13.56-23.52,20.52-40.08,20.88A6,6,0,0,1,425,542.4c-11.76-14-17.16-30.84-16.32-50.52l2.64-64.2A225.59,225.59,0,0,1,427.56,352Zm-41.4,6.84a69,69,0,0,1-4.68,43.92c-6.12,13.32-16.32,22-30.48,26.16L354,337C371.52,333.24,382.2,340.44,386.16,358.8Zm.24-24a30.4,30.4,0,0,0-5.16-6.12,29.67,29.67,0,0,0-6.6-4.68,46,46,0,0,0-7.8-3.6l-13.44,4.32-2.52,3,.36,9-16,200.64.24-10.8c-3.84,15.24-3.24,29.4,1.92,42.6a724.77,724.77,0,0,0,12.72-123.84L363,439.56a340.71,340.71,0,0,0,31,130q-5.58-65.7-27.24-132.12,32.94-23.76,29.28-65.16a173.26,173.26,0,0,0-4-24.48A39.09,39.09,0,0,0,386.4,334.8Zm13.32-158.16a136.2,136.2,0,0,1,1.32,46.8,150.11,150.11,0,0,1-12.72,42.72c-7.32,15.6-19.32,23-36,22.44a1457.76,1457.76,0,0,0,6.6-175.92L358.2,100c14.52,4.8,24.36,15.24,29.64,31.2A366.93,366.93,0,0,1,399.72,176.64Zm-42.6-91.92c-4.56,11.4-6.6,24.12-6.24,38.4s.6,28.8.36,43.2c-.12,10.68-.36,21.48-.72,32.16l-1.44,32-1.92,31.92-1.08,16-1.44-.6,1.44,6.6-1.68,5.76-1.68,1.44,1.68,13.32A29.85,29.85,0,0,0,365,303.24a49.53,49.53,0,0,0,7.8-4.32l4.56-3.36,4.32-3.72,3.6-4.44A144.53,144.53,0,0,0,410.16,210q2-61.38-31.8-110.16A38.07,38.07,0,0,0,357.12,84.72Zm97.44,6.48C443,99.72,435,111.12,430.32,125.4a156.86,156.86,0,0,0-7.56,46,343.78,343.78,0,0,1-3.24,44.4,222.29,222.29,0,0,0-1.32,46.44,258.69,258.69,0,0,0,4.92,34.44c9.24,9.24,19.44,10.92,30.84,5.28a50.38,50.38,0,0,0,21.72-20.76,33.09,33.09,0,0,0,3.36-8.64,178.86,178.86,0,0,0,4.2,42,198,198,0,0,0,1.68-79.32L461,234.12a6.24,6.24,0,0,0-2.64,4.68,8.23,8.23,0,0,0,1.92,7l12.48,1.08a18.5,18.5,0,0,1,8,2.88c-.48,3.6-.84,7.08-1.08,10.56a42.48,42.48,0,0,0-2.52-9.48,12.72,12.72,0,0,0-5.52,7.44L469.44,265l1.2.6-.12.12-5.4,7.92-1.8.48q-10.8,16.56-28.08,8.28c-9.24-4.44-13.2-12.72-12.12-24.72a822,822,0,0,0,4.08-82.32,111.66,111.66,0,0,1,2.64-24.48,90.11,90.11,0,0,1,24.48-44.52,28.46,28.46,0,0,1,20,6.72l1.44,1c2-8.28-.36-14.52-7.2-19A23,23,0,0,0,454.56,91.2Zm76.08,10.44Q509.4,124.86,508,157.92,504.9,222,502.2,286.32c-.48,10.8,4.08,18,13.68,21.48,11.4,4.32,22.08,2.28,32-6.24,12-10.08,14.64-20.52,7.8-31.44l-1,.6c-.6,2-2.4,4.2-5.4,6.36l.48.84c-10.2,14.76-23,18.36-38.76,11a64,64,0,0,1-2.28-22l4.08-57A190.58,190.58,0,0,1,546,207.6l.72-.72c3.84-6.84,3.12-12.24-2.28-16.32a65.08,65.08,0,0,0-30.6,4l3.24-50q2-31.32,30.24-32.4a13.74,13.74,0,0,1,3.6,3.84c1.68,2.76,3.6,3.48,5.88,2l.24-.84c.6-12.24-5.4-19-18-20.28A14.3,14.3,0,0,0,530.64,101.64Z" transform="translate(-13.47 -73.06)"/></svg>