<svg id="Layer_1" data-name="Layer 1" xmlns="http://www.w3.org/2000/svg" viewBox="0 0 595.57 842.18"><defs><style>.cls-1{fill:#fff;}.cls-2{fill:none;stroke:#fff;stroke-linecap:round;stroke-linejoin:round;stroke-width:0.38px;}.cls-3{fill-rule:evenodd;}</style></defs><rect class="cls-1" x="0.31" y="0.31" width="595.08" height="841.68"/><rect class="cls-2" x="0.19" y="0.19" width="595.2" height="841.8"/><path class="cls-3" d="M241.56,324.12c1.56-10.2.48-18.72-3.48-25.68-4,12.12-5.16,25.44-3.72,39.72A93.31,93.31,0,0,1,230.28,378a34.76,34.76,0,0,1-16.8,4.08c-2.4-3.24-5.16-4.8-8.4-4.92q-7.74,13.32,6.48,21.6a16.23,16.23,0,0,0,9.84.12,14.77,14.77,0,0,0,7.92-5.52c10.44-14,14.4-30.72,11.88-50.16A63.6,63.6,0,0,1,241.56,324.12Zm-3-54.36a52.8,52.8,0,0,0,1.08-31.08c-5.64,9.6-6,20-1.32,31.32Zm95,31.08c-.12,12.6-.48,25.32-1.32,38.16a53.53,53.53,0,0,1-2.64,13.32c-6.36,19.2-19.56,28.92-39.36,29.16l-3.12-3.36q-14.94-14.94-11.52-39.24A192,192,0,0,0,277.32,296c-5.76,16.2-8.52,33.84-8.4,52.68a90.38,90.38,0,0,0,6,32c6.24,16.32,17.64,20.64,34.32,13a34.65,34.65,0,0,0,14.4-12.12C340.8,356,345,328.32,336,298.2A2.46,2.46,0,0,0,333.6,300.84ZM241.32,201a426,426,0,0,1-60.6-2.52A73.52,73.52,0,0,0,151,201.36l.36,8.88,45.48,2.4A379.93,379.93,0,0,0,191,271.92q-.9,65.7.36,130.2l3-.84,6.48-188.52,40.2-.12,1.32-9.72Zm118.44-4.8a291.11,291.11,0,0,0,2.88,49.56q8.82,63.54,18.24,126.84c1.8,11.88,4.92,22,9.6,30.24a2.53,2.53,0,0,0,.6-1.56v-.36a64.89,64.89,0,0,0,11.16-22.08q17.82-61.74,37.68-122.4c3.24-10.2,7-20.16,10.92-30.12,4.44-10.92,5.76-21.36,4.2-31.44-.48.12-.84.24-1,.48Q432.48,247.74,415.56,303q-9.36,30.42-21.36,60.12a70.63,70.63,0,0,0-4.08,13.32,537,537,0,0,0-6.84-55Q372.12,258.12,360.6,196Z" transform="translate(0.19 0.19)"/></svg>