<svg id="Layer_1" data-name="Layer 1" xmlns="http://www.w3.org/2000/svg" viewBox="0 0 572.04 569.64"><defs><style>.cls-1{fill-rule:evenodd;}</style></defs><path class="cls-1" d="M106.92,254l-.72.72a3.06,3.06,0,0,1-2.28.72,3.43,3.43,0,0,1-2.76-1.92l-2.4-4A12.44,12.44,0,0,0,88,243.84l-9,.24C58,256,43.08,281.52,34.08,321q-8.82,38.7-8.88,87.72l.24,80.4,2.16,22.2a181.14,181.14,0,0,0,4.92,27.24c5.88,21.84,16,32.76,30.12,32.76,10.68,0,22.56-9.6,35.52-28.68a195.91,195.91,0,0,0,18.24-33l.72-.24.24,1,.12,2.28q0,2.7-2.52,12.24a141.74,141.74,0,0,1-8.52,24.36c-10.92,23-25.56,34.56-43.68,34.56q-33.66,0-44.88-58.68a268.59,268.59,0,0,1-4.2-40.44l-.12-18.48c0-11.64.12-20.4.24-26.4V375.72q2.16-14.4,8.28-40.32,7-29.7,9-40.68c2.76-14.28,8.28-26.52,16.8-37A63.14,63.14,0,0,1,73.44,238.2c9.12-3.72,16.92-4.44,23.4-2,6.84,2.52,10.32,7.68,10.32,15.48C107.16,253.44,107,254.28,106.92,254Zm46.2-1.8c.6-10.08,2.76-15.84,6.48-17.16,1.44-.6,2.64-.12,3.72,1.68s1.8,4.44,1.8,7.92q0,13.68-6.84,106.2l-8.4,111.72v52c-.72,5.16-1.68,17.52-2.88,37.2-1.8,17-4.56,25.56-8.4,25.56-3.36,0-5.4-1.8-6-5.4v-5.76A229.94,229.94,0,0,1,134.76,539L138,511.8V462.24l4-52.56c-3.36,1-8.16,2-14.28,3.36-13.2,2.76-22.56,4.08-28.08,4.08L96.12,417c-.72,12.84-1.44,25-2.28,36.12q-4.68,68.4-11,68.4-4.14,0-5.4-2.52a5.73,5.73,0,0,1-.6-2.88c0-14.52,1.68-40.92,4.92-79.44q4.68-54.9,7.32-70c0-9.48.6-21.72,1.8-36.84l3-37.68c.84-13.32,2.52-21.24,4.92-24q1.44-1.62,2.52.36a14.51,14.51,0,0,1,1.32,6.12l.72,38.16-.84,15.6-1,15.48c0,1.56-.72,7.92-2,19.08s-2,17.64-2,19.44l-.84,23-.12,3.24,1.56-.48c7.08-1.68,13.92-3.12,20.4-4.2,11.28-1.92,19.32-2.4,24.12-1.56l4.68-60.12c.6-7.8,1.08-17.64,1.44-29.76l1-30.36,2-15C152.52,260.88,153,255.84,153.12,252.24ZM143.16,19l.48.72a3.8,3.8,0,0,1,.36,2c0,1.08-3.12,2.4-9.24,3.72-8.16,1.8-18.84,2.76-31.92,2.76l-3-.36-1.08-.24-6.48-.12L92.52,39,91.44,51.12,90.36,63.36,98.76,175A46.07,46.07,0,0,1,97,185.28a77.08,77.08,0,0,1-6.84,17.64C81.36,219,68.88,227,52.44,227,40,227,30,222,22.68,211.92A45.26,45.26,0,0,1,17,201.24a19.78,19.78,0,0,1-1.56-5.16,36.34,36.34,0,0,1,1.08-10q2.16-7,8.28-7.2l2.16.48c.6.12.84.84.84,2a19.53,19.53,0,0,1-1.2,5,19,19,0,0,0-1.2,5.16,16.48,16.48,0,0,0,1.2,5.28,30.29,30.29,0,0,0,4.44,8.52C36.72,213,45,216.72,55.8,216.72c12.6,0,22.08-8.4,28.44-25.32a94.74,94.74,0,0,0,4.56-17.64l1.08-8.4-2-27.24c-1.32-17.64-2-29.16-2-34.44L84.12,88.8C83,79.32,82.56,73.56,82.56,71.52c0-17.16,1.56-31.92,4.8-44l-22.44-.36-23.76-.84L16.8,25.44,16.56,25c-.24-.24-.36-.84-.36-1.92a3.06,3.06,0,0,1,2.16-3.24l10.92-1.92c0-.36,4.32-.24,13,.24L65.52,20l33,.48.84.36,2.88.24,17.64-1.32,17.64-1.44ZM309,36.48a9.32,9.32,0,0,1-3,2.4l-3.48,1.44a14.23,14.23,0,0,0,2.88-4.68l2.28-5.4c2-4.32,4.8-6.48,8.4-6.48s5.76,2,6.48,6.24a19.56,19.56,0,0,1,0,6.48q0,13-5.16,93.48l-5.64,88.44v67.32q-1.26,9.18-3,70.2-2,61-6.72,99.6Q286.2,583.14,230,583.2q-40.86,0-49-47.88a142.56,142.56,0,0,1-1.56-33.48l1.56-16.32c0-5.88.36-20,1.08-42.36l1.08-33.6-2.76-108.24c0-28.2.48-49.32,1.32-63.48l4.68-81.48,3.12-35.64A299,299,0,0,0,191,84.12c-.12-7.56-.12-19.44.24-35.64q1.08-17.46,6.12-27c1.32-2.64,2.52-3.72,3.48-3.24s1.56,2.88,1.56,7q0,23.58-2.76,86.88T197,191.16l-1.68,16.08c-1.08,10.2-1.56,16.68-1.56,19.2,0,4.56-.36,11.4-1.08,20.4l-1.08,13.8a43.1,43.1,0,0,0,.24,4.8v69c1.32,9,2.28,21.24,3,36.72.48,12.12.72,25,.72,38.28L194.52,445q-1.08,30.6-1.08,40l-.72,14.4a225.22,225.22,0,0,0,.72,29C196.2,556.08,204.72,570,218.88,570c13.08,0,23.16-1.56,30.24-4.8a31.22,31.22,0,0,0,14.88-14c2.28-4.2,5-11.64,8.16-22.32a294.73,294.73,0,0,1,10.08-30c3.72-9.24,6.24-21.12,7.32-35.52.6-16.44,1.2-28.32,1.56-35.88l2.76-72q1.44-43.2,4.92-71.52V216.48q1.26-29.16,5.4-89.28c2.64-40,4.44-70.08,5.4-90.12ZM387.6,403.8l-8.28-6c-8.4-5.88-15.48-8.88-21.36-8.88q-22.86,0-34.56,72.36a571,571,0,0,0-7.08,73l-.6,6.12a26.55,26.55,0,0,0,1.44,10.2c3.6,9.24,13.2,13.8,28.68,13.8,13,0,28.2-8.28,45.6-24.72a168.9,168.9,0,0,0,16.8-18.24c4.32-5.52,6.6-9.12,6.84-10.68l.84-.24.24.72v2.16c0,1.8-1.2,5.52-3.48,11.4a101.93,101.93,0,0,1-11.4,21.48q-20.88,30.06-53.28,30c-21,0-34.44-6.36-40.32-19.2a36.57,36.57,0,0,1-3-14l.24-7.92c0-17.4.84-31,2.52-40.8,3.72-21.72,6.24-38.88,7.8-51.72a145,145,0,0,1,4.2-23,90.38,90.38,0,0,1,10.44-23.28c9-14.28,22.8-18.12,41.64-11.52a69.3,69.3,0,0,1,18.12,9.6q7.56,5.4,7.56,7.2a5.84,5.84,0,0,1-1.32,2.88c-1.08,1.44-2,2.16-3,2.16S390.12,405.6,387.6,403.8ZM420.84,18.36l6.72-.24c3,.12,4.8,1.32,5.64,3.36a16.84,16.84,0,0,1,.36,4.56c0,4-1.44,18.6-4.2,43.92-2.88,26.52-4.44,41.28-4.56,44.28-.12,3.6-.6,18.24-1.32,43.8-.48,17.76-1.56,32.4-3.24,43.8l-7,43.68c-3.24,19.68-5.64,34.32-7.08,44-.6,3.6-1.68,12.24-3.24,25.8-1.44,12.12-2.76,21.6-3.84,28.32C395.64,365.16,391,376,385.32,376c-7.32,0-11.76-11.52-13.56-34.68-.6-7.56-1-17.52-1.08-29.76l-.24-26-3.6-41.64c-2.28-27-3.48-43.2-3.48-48.48,0-1.92-1.2-15.48-3.48-40.8l-5.4-55-.24-.6c-2.52,17.16-4.56,39.12-5.88,65.76l-3.6,65.76-2.88,37.92c-1.32,17.4-2.64,31.56-3.84,42.6-3.48,32.76-7.56,49.2-12.24,49.2-2.28,0-3.72-.72-4.56-2a5.58,5.58,0,0,1-.6-2.52l7.44-70.44q7.74-71.64,8.28-98.28c.72-39,2.28-73.8,4.68-104.64q4.68-63.18,11.88-63.12,7.74,0,18,121.44,5.58,67.32,15,200.64h.24c1.56-12.84,6-39.36,13.56-79.56q9.54-50.22,10.8-79.56c1.32-31.08,2.76-57.48,4.08-79.32,1.92-28.68,4.2-54.84,6.72-78.24C418.32,21.36,418.2,19.2,420.84,18.36ZM575,22q0,1.62-22,53.52Q528.24,134.16,519.6,160c-1.8,5.16-4.08,11.28-7.08,18.48l1.32,5a79,79,0,0,0,1.68,12.6,112.16,112.16,0,0,1,2.16,12.6,192,192,0,0,0,3.84,24.6c1.56,7.08,3.72,15.6,6.48,25.68,3.72,13.56,7.92,30.24,12.48,50l11.28,50.52q8.1,38,17.64,88.92,16.2,87.3,16.2,112.8a9.82,9.82,0,0,1-1.32,5.28,5.61,5.61,0,0,1-5.16,2.64c-3.24,0-6.6-12.6-10.2-37.8-.72-5.52-3.12-26.16-7.2-61.8-1.56-13.08-4.56-29.28-9-48.84-5.4-22.2-9.24-39-11.76-50.16q-12.78-50.94-22.2-91.68Q507.42,229,503.28,199.56L490.08,229c-2.76,6.48-7.68,20.4-15,41.64q-7.56,20-13.32,25.2-2.7,46.62-6.24,93.24Q441.3,568.86,423.24,568.92c-3.12,0-5-1.2-5.88-3.6l-.36-3.84c0-3.36,3.24-21.48,9.72-54.48q10.62-53.1,11.88-65.28c3-25.56,5.28-45.36,6.6-59.52,2-22.08,3.12-42,3.48-59.64v-41.4q.54-7,5.4-67c2.28-27,3.72-49.32,4.56-67l1.2-33.48c.48-13.68,1-25,1.56-34,.24-3.24.84-8.64,1.68-16.2s1.56-13.32,1.8-17c1.56-12.36,4.32-21.36,8.16-27,1.56-2.28,2.88-3.12,4-2.28s1.68,3.24,1.68,7.32q0,3.06-4.32,42.84c-2.88,27-4.44,43.32-4.56,49-.24,7.2-1,22.32-2.28,45.48-1.08,19.32-1.56,34.8-1.56,46.2l-2.52,57.48,13.44-32.4c10.2-24.36,18.12-43.8,24-58.56v-1.92c0-7.44,1.32-10.08,4-8l5.52-15.24q4.32-13.14,13-36l13.56-36.24Q548.22,46,561.12,25.68c4.2-6.48,7.44-10.2,10-11.28S575,15.84,575,22Z" transform="translate(-13.56 -14.16)"/></svg>