<svg id="Layer_1" data-name="Layer 1" xmlns="http://www.w3.org/2000/svg" viewBox="0 0 595.57 842.18"><defs><style>.cls-1{fill:#fff;}.cls-2{fill:none;stroke:#fff;stroke-linecap:round;stroke-linejoin:round;stroke-width:0.38px;}.cls-3{fill-rule:evenodd;}</style></defs><rect class="cls-1" x="0.31" y="0.31" width="595.08" height="841.68"/><rect class="cls-2" x="0.19" y="0.19" width="595.2" height="841.8"/><path class="cls-3" d="M269.28,286.32l27.84-119.16,22.32,114.72Zm26.4-134.16C284,188.76,274.08,226.08,266,264a645,645,0,0,1-40.2,124.32c-7.08,16.44-9.72,32.4-7.8,47.88q13.86-30.6,25.56-64c9.12-25.56,16.92-51.48,23.52-77.52a336,336,0,0,0,55,.24l2.88,13.8Q338.1,371.58,354.48,433c1.2.12,1.8-.48,1.92-1.68a104.48,104.48,0,0,0-3.12-37c-8.76-33.24-16.68-66.6-23.52-100.08l3.24-.36.6-.84a11.4,11.4,0,0,0-.84-11.4l-5.52.12-2.4-12.24q-11.88-62.46-27-124l-1.08-.72-1.32-.36Zm-34.92-2.28c3.48-4.68,3.12-8.52-1.08-11.64a136,136,0,0,1-21.48,4.08,898.57,898.57,0,0,1-185.76.6l-.24,1.56a11.79,11.79,0,0,0,.6,7.32,30.92,30.92,0,0,0,12.12,3.48,884.09,884.09,0,0,0,100.8,3.24,4.23,4.23,0,0,0-.12,2.16q3.78,36.54,8.16,73.08a565.54,565.54,0,0,1,.72,124.2,52.83,52.83,0,0,1-10.8,27.24q-29.52,38.34-72.12,11.52c-7.32-4.68-14.64-9.48-21.72-14.52C52.56,370.08,49,356.52,59,341.76l.24-.84a7.55,7.55,0,0,0,1.08-4A7.16,7.16,0,0,0,56.88,332Q37.8,349.5,52,374.4a124.61,124.61,0,0,0,23.16,29q28.44,26.28,65,17.28a40.6,40.6,0,0,0,25.08-17.88,116.18,116.18,0,0,0,18.48-58.08,605.93,605.93,0,0,0-.12-62.64A877.79,877.79,0,0,0,168.48,158.4a911,911,0,0,0,91.8-7.92Zm198.72,141.6A116.49,116.49,0,0,1,474.6,323.4q13.86,46.44-11.4,85.68a173.25,173.25,0,0,1-67.2,14,106,106,0,0,0,3-20q2.88-48.42,4.2-97.2a70.57,70.57,0,0,0,45-20.4A46.37,46.37,0,0,1,459.48,291.48Zm7.2-79.56A52.82,52.82,0,0,1,463.92,248c-11.64,26.4-31.68,41.4-60.36,44.88l.36-18.24q.9-61.38-2.52-122C435.48,158,457.2,177.72,466.68,211.92ZM396.6,145.56a5.48,5.48,0,0,0-.24,2.4l.12,1.68L397,152l3.12.48c-2,36.24-3,72.84-3.12,109.92l-.36,27.36-1.08-.84a2.67,2.67,0,0,0-3.72-.48,5.19,5.19,0,0,0-1.56,3.12,23.16,23.16,0,0,0,0,4.08l.24,1.68.72,2.52a30,30,0,0,1,4.68,2.76l.48.36c-.84,29.64-2.64,59-5.16,88.44a136.09,136.09,0,0,1-2.4,15.84c-2.76,11.88-2.4,22.8.84,32.64l2.76-6,1,2.28a115.89,115.89,0,0,0,63.24-9.84,19.47,19.47,0,0,0,7-5.28c16-19.08,22.56-41.76,20-67.8-1.08-11.88-2.76-23.52-4.92-35.16-3.24-17.64-11.52-30.36-25.08-38.4l1.92-2.4q33.66-42.66,7.68-92.52Q442.5,145,398.28,143.4A3.18,3.18,0,0,0,396.6,145.56Z" transform="translate(0.19 0.19)"/></svg>