<svg id="Layer_1" data-name="Layer 1" xmlns="http://www.w3.org/2000/svg" viewBox="0 0 488.14 406.02"><defs><style>.cls-1{fill-rule:evenodd;}</style></defs><path class="cls-1" d="M334.2,131a562.17,562.17,0,0,0,9.48,73c5.16,25.92,10.32,51.72,15.72,77.52a420,420,0,0,0-55.08,5.76l1.44-7.68,23.4-125.88Q331.32,142.2,334.2,131ZM285.72,74.4l-94.08,6.36A504.78,504.78,0,0,0,100.08,96l-19.92,4.92c-14.28,3.36-18.84,10.8-13.56,22.2a321.3,321.3,0,0,1,79-22.08c17.52-2.64,35-4.8,52.44-6.48.6,18.36,1.8,36.84,3.84,55.2q4.5,39.06,11.88,77.76A749.74,749.74,0,0,1,227.4,354.24Q229,422.46,169.2,456.6a47.48,47.48,0,0,1-30.48,6c-33.24-4.44-58.92-21-77.28-49.8a14.65,14.65,0,0,1-2.16-8.16c.72-9.48-1-16.92-5.16-22.56-5.64,16.08-3.72,31.32,6,45.84,13.68,20.52,32,35.76,55,46q36.54,16.38,69.36-8.28,34.56-25.92,43.08-67.92a240.38,240.38,0,0,0,4.44-58,1022.6,1022.6,0,0,0-13.2-127.08c-6.6-39.48-12.72-78.84-18.24-118.32q44.46-4.14,88.68-4.2l.72-1.68c2-5.16,1.56-9.72-1.56-13.8l-1.56-.12Zm84.84,218.88c1.92-4.44,1.56-8.4-1-12.12l-4,.12q-6.12-31.14-11.64-62Q345.18,169,337.44,118.8a63.64,63.64,0,0,0,.72-28.44l-3.72,8-.84-5.28c-.36.12-.6.12-.6.24l.12,8.16a124.93,124.93,0,0,0-6.72,24.36q-10.8,63-23,126l-7,36.84-4.2.84-.36.84a11.89,11.89,0,0,0,.12,6.48h3c-4.92,26.88-9.6,53.76-13.8,80.76A278.87,278.87,0,0,1,274.68,409c-4.2,16.44-5.16,32.28-2.76,47.52q1.26-.36,1.44-1.08a396.4,396.4,0,0,0,11.16-50Q292.8,351,302.64,296.88l59.4-2.16.48,2.28q13.14,62.64,24.6,125.76a68,68,0,0,1,1.2,16.32q-.72,18.9,9.72,30.6a5.52,5.52,0,0,0,1.68-4.08,258.12,258.12,0,0,0-7.32-59.52q-7.38-30.78-14-61.92l-10.2-49.8,1.92-.24ZM538,109.08c-8.52-13.32-22-20-40.08-20.28A47.13,47.13,0,0,0,469,104.4a155.25,155.25,0,0,0-29.88,49.32,566.16,566.16,0,0,0-31.44,125.16A281.57,281.57,0,0,0,418.08,401.4a65.17,65.17,0,0,0,17.52,28c13,12.24,27.48,15.72,43.56,10.56,17.4-5.64,27.12-15.24,29.28-29l-.84,14.64c-1.08,13.92,0,26.52,3.24,37.92,5.64-11.4,7.92-24.36,6.6-38.76A90.38,90.38,0,0,1,517.2,412a236.26,236.26,0,0,0-8-82.08l-1.56-.24a79.49,79.49,0,0,1-28.68-8.4,1.46,1.46,0,0,0-1.92.84,12.5,12.5,0,0,0-1.2,4,12.79,12.79,0,0,0,1.44,7.32,99.18,99.18,0,0,0,29.52,10.32,483.47,483.47,0,0,1,2,57.48l-1-6.72a35.84,35.84,0,0,1-9.72,16.2c-11.64,11.4-25.08,15.72-40.44,13a27.58,27.58,0,0,1-16.2-8.64q-28.62-30.24-29.52-73.2A511.78,511.78,0,0,1,424.8,215.64a270.54,270.54,0,0,1,37.44-88.08A42.69,42.69,0,0,1,486,109.92q28.08-8.28,52.2,6.48A7,7,0,0,0,538,109.08Z" transform="translate(-50.98 -74.4)"/></svg>