<svg id="Layer_1" data-name="Layer 1" xmlns="http://www.w3.org/2000/svg" viewBox="0 0 280.33 215.23"><defs><style>.cls-1{fill-rule:evenodd;}</style></defs><path class="cls-1" d="M290.88,376.32a34.64,34.64,0,0,1,4-21.36c4-7.32,10.2-10.2,18.72-8.88l9.6,30.24a42.29,42.29,0,0,1-10.8,4.56,34.65,34.65,0,0,1-18.84-.48ZM253.8,386.4A212.88,212.88,0,0,0,257,292.68c-3.48,12.72-4.08,26.76-2,42.24q3.06,24.12-7.2,43.92a33.13,33.13,0,0,1-27.6-7.08c-3,4.08-3.12,8.4-.36,12.84,6,9.48,14.64,12.84,25.92,10A10.57,10.57,0,0,0,253.8,386.4Zm1.8-145.08c-2.76,10.56-1.68,20,3.12,28.32a54.53,54.53,0,0,0-.6-28.8Zm40.92,59.28,12.36,31.2-3.72-1.2c-11.64,5.88-19,15-22.08,27.48-3.36,13.8.24,25,10.92,33.24,11.28,8.76,22.56,8.28,34-1.2l.6-1.68L342,410.76c3.48-11.28,2.16-22.92-4.08-34.92a468.91,468.91,0,0,1-27.24-64.08,68,68,0,0,0-15.24-25.2L292,288.24l-1.08,10.44Zm-34.08-89.76.72-1q3.78-7.2-.72-13.68a539.22,539.22,0,0,0-109.8,5.64l-.48.84a13.44,13.44,0,0,0,.24,10.56l52.2-1.8q-3.06,61-1.68,122.4A193.56,193.56,0,0,1,201,366.12c-1.8,12.12-.36,22.8,4.08,31.92a143.13,143.13,0,0,0,4.8-31.68c.48-10.92.72-21.72.6-32.52q-.54-61.92-4.2-122.4C224.88,211,243.6,210.72,262.44,210.84Zm123,155q-8.28-52.74-17.64-105.36a224.47,224.47,0,0,0-20.16-61.32c-1.08-.12-1.44.36-1.2,1.44,8,35.64,15.36,71.88,21.72,108.72a289,289,0,0,1,3.72,31.92,220,220,0,0,0,12.36,61.32,18.62,18.62,0,0,0,4.68-12.12,87.33,87.33,0,0,0,6-22.68A608,608,0,0,1,424.8,244.08c5.64-16,7.8-31.56,6.24-46.8-10.2,29.28-19.2,59.64-27.24,91.08l-15.48,61.92A118.6,118.6,0,0,0,385.44,365.88Z" transform="translate(-151.2 -195.53)"/></svg>