<svg id="Layer_1" data-name="Layer 1" xmlns="http://www.w3.org/2000/svg" viewBox="0 0 323.6 470.74"><defs><style>.cls-1{fill-rule:evenodd;}</style></defs><path class="cls-1" d="M151.08,416.64c-.6,15.84-1.68,31.56-3,47.28A147.24,147.24,0,0,1,146,480c-2,12.24-.84,22.92,3.84,31.92a95.36,95.36,0,0,0,7.2-32.4c1-19.8,1.68-39.72,2.16-59.64a55.49,55.49,0,0,0,26.28-1.32L185,461.88a240.78,240.78,0,0,1-2.88,32.28c-2,12.24-.48,22.8,4.56,31.8a4.47,4.47,0,0,0,1.8-3.24q4.14-41,4.92-82.8,1.08-65-2.4-128.16c-3.6,5.4-5.4,12.48-5.4,21.12q.18,34.92,0,69.84a86.44,86.44,0,0,1-26,4.32c.36-18.84.6-37.68.72-56.64a103.47,103.47,0,0,0-4.56-31.92,36,36,0,0,0-3.6,17.28q.72,35.82-.6,71.28a4,4,0,0,0-1.32,2A10.65,10.65,0,0,0,151.08,416.64Zm-27.36-77q4.86-20.52-16.56-22.68Q84.84,333.48,78.6,362.76A402,402,0,0,0,70.2,470c1.08,19.32,8.64,34.8,22.68,46.56,4,3.36,8.28,3.72,12.84,1.08q32.4-18.72,33.84-56l-.6.84a10,10,0,0,0-1.2,4,5.75,5.75,0,0,1-.84,2.4A33.73,33.73,0,0,0,123,484.32c-3.72,7.8-9.36,13-16.92,15.6-7,2.52-12.24.72-15.84-5.28C80,477.48,74.88,458.28,74.76,437.28q-.18-56.7,29-103.08c8.16-1.44,14.64.6,19.56,6.24ZM101.64,85.68a365.76,365.76,0,0,0-30,103.2q-6.84,50,19.56,92.52c12.6,20.28,29.4,24.48,50.4,12.36,11.64-6.6,19.2-14.52,22.8-23.64A114.5,114.5,0,0,0,170.64,306a226.49,226.49,0,0,0,1.68-82l-40-2-.84,5.76a3.33,3.33,0,0,0,1.8,1.56,123,123,0,0,0,34.92,8c-1,3.72-1.68,7.44-2.28,11.16a61.67,61.67,0,0,0-3.36-11.16l-1.44-.72-1.56-.12-1.68.24-1.2,1.68a4.34,4.34,0,0,0-1.2,3.24l-.24,1.56v.84a7.16,7.16,0,0,0,1.92,2.64,12,12,0,0,1,3.48,5.16l.24,1.68c-6.12,18.72-19.44,29.16-39.72,31.44a13.24,13.24,0,0,1-10.08-2.76Q71.7,250.74,77.88,199,82.2,163.86,90,129.48c4-17.64,12.84-31.8,26.88-42.72,15.24-11.64,29.76-12.6,43.8-2.64a18,18,0,0,1,7,10.32,10,10,0,0,0,4.44,6l.6-.6c1-24.12-10.8-36.84-35.28-38.4a62.29,62.29,0,0,0-25.92,11.88A32.88,32.88,0,0,0,101.64,85.68ZM239,75.24q-.9,63.54-.72,127.44c0,10.92.12,21.72.48,32.4a1270.28,1270.28,0,0,1-2.4,128.4c-3.12,42.84-7.32,85.56-12.6,127.92q-2.34,18.9,5.4,31.68a178,178,0,0,0,5.52-33.24q4.32-64.08,7.08-128.28c.48-10.92.84-21.72,1.08-32.52.84-43,1.56-86,1.92-129.12s-.6-85.8-3.24-128.16C240,72.12,239.16,73.32,239,75.24Zm103.8-.6c-3.24,24.36-5.52,49-7.08,73.8q-4.14,64.26-4.44,129.24c-.24,42.84-1.44,85.68-3.48,128.28a596.3,596.3,0,0,1-6.72,63.84c-1.56,10,.12,17.76,5.16,23.16l1.2-4.8,15,2a175.49,175.49,0,0,0,48,1.92,8,8,0,0,0,2.16-4,18.13,18.13,0,0,0,.48-5.76l-.48-3.24a7,7,0,0,0-2.52-4.08l-2.16.24a139.26,139.26,0,0,1-48.12-2.4l-.12.24-1.92.12-7.56-.36c.72-5.52,1.32-11.16,1.68-16.92,2.52-42.6,4-85.44,4.32-128.28q.36-64.8,4.2-129c2.52-43.08,4.2-85.68,5-127.56A3.78,3.78,0,0,0,342.84,74.64Zm-47.16-5.4A47.08,47.08,0,0,0,291.36,89c-.24,42.84-1.08,85.68-2.64,128.28l-5,128.28q-2.52,64.44-5.52,129a185.81,185.81,0,0,1-2,20c-1.92,12.48-.48,23.28,4.2,32.4l1.56-1.2c24.12,7.68,49.2,8.4,75,2a9.52,9.52,0,0,0,2.4-4,14.11,14.11,0,0,0-2.64-13.08,19.24,19.24,0,0,0-6.48.84l-.6-.84a8.9,8.9,0,0,0-1.92-2.4l-.36.24v1.44c-4.08,4-10.68,6-19.92,6a68,68,0,0,1-16.56-2c-9.72-2.52-19-2.4-27.48.6q3.42-59.94,4.68-119.88c1-42.84,2.76-85.68,5.28-128.28,1.32-21.6,2.28-43.2,2.76-64.92q1.62-64.08,1.8-128.28l-.24-.84A7.52,7.52,0,0,0,295.68,69.24Z" transform="translate(-69.56 -61.44)"/></svg>