<svg id="Layer_1" data-name="Layer 1" xmlns="http://www.w3.org/2000/svg" viewBox="0 0 286.19 213.36"><defs><style>.cls-1{fill-rule:evenodd;}</style></defs><path class="cls-1" d="M246.6,293.64c-1.56,30.36-2.76,61.08-3.36,92.16l-7.08.6c-5.52-4.92-8.76-10.44-9.72-16.8-5.52,12.6-2.52,23,8.88,31.32l8.76-.24a3.35,3.35,0,0,0,1.68-2.52A368.39,368.39,0,0,0,247,293.52Zm3.24-34.56a26.9,26.9,0,0,0-2.52,19.32c.72,1.92,1.92,2.16,3.48.6l.6-1.68a9.94,9.94,0,0,0-.36-6.48l.6-.72c3.84-5.4,3.6-9.48-.6-12.48Zm49.56,51c-.12,17.76-1.08,35.52-2.88,53.4-1.56,14.76,1.2,27.84,8.16,39.12l4.32.24c10-5.64,16.32-13.92,19-24.84-1.32-1.56-3.12-1.92-5.4-.84-4.56,6.84-10.44,10.68-17.64,11.4l-.12-.84c-.36-31.56-.48-62.88-.48-94.2C301.08,298,299.4,303.48,299.4,310.08Zm5-49.2a17.27,17.27,0,0,0-1.92,16.8,4.52,4.52,0,0,0,3.72-3.24l.24-1a38,38,0,0,0-1.08-12.84A.75.75,0,0,0,304.44,260.88ZM202.68,197.76l-.84,1.56a199,199,0,0,0-47,.24l-1.44,1.56a2.74,2.74,0,0,0-.72,1.44,16.75,16.75,0,0,0-.24,4.92,5.27,5.27,0,0,0,1.08,3.24l44.64,1.92c1.08,22.32,1.2,44.64.48,66.84q-1.8,60.66-1.08,120.72a35,35,0,0,0,1.08,7A484.49,484.49,0,0,0,204.24,326L202.8,212.76l47.76,1.8,1-1.56.48-.84a9.4,9.4,0,0,0,.84-4.56,11.48,11.48,0,0,0-1.92-6l-48.24-2.28Zm165.12,9.72.72.84c17.88-5,32.76-1.32,44.64,11,8.88,9.12,11.28,19.44,7.2,30.84q-13.32,36.9-54,42.48l.72-86.52Zm-.6-12.36a394.09,394.09,0,0,0-7,75.48q-.18,64.62-4.44,128.16a3.32,3.32,0,0,0,2.4,2.16,388.78,388.78,0,0,0,8-77.64l.12-15.48,8.16-.6a100.47,100.47,0,0,0,17.88-7,220.83,220.83,0,0,0,15.84,48.84q13.86,30.24,28.44,58.08a5.2,5.2,0,0,0,1.44-6A1031.28,1031.28,0,0,0,396.6,297.84a83.85,83.85,0,0,0,11.64-8q21.6-20.88,19.56-50.28-3.06-43.74-47.88-45.72a42.65,42.65,0,0,0-9.72,2l-2.52,1.2-.48,1.56Z" transform="translate(-152.33 -193.8)"/></svg>