<svg id="Layer_1" data-name="Layer 1" xmlns="http://www.w3.org/2000/svg" viewBox="0 0 494.58 492.5"><defs><style>.cls-1{fill-rule:evenodd;}</style></defs><path class="cls-1" d="M315.48,164.28q.18,64.44-.72,129t-3.6,129.12a64.44,64.44,0,0,1-1.56,11.76c-2.4,10.2-1.2,18.24,3.72,23.88a561.34,561.34,0,0,0,6.84-94.92q-.54-64.62.12-129,.9-65.16.36-129.12A312.41,312.41,0,0,0,315.48,164.28ZM177.84,109.44q-14.4-45.9-64.2-44.28a23.65,23.65,0,0,1-5.4,1.8A52.87,52.87,0,0,0,74,89.64,249.58,249.58,0,0,0,37,178.08a692,692,0,0,0-14.4,128.28,863.56,863.56,0,0,0,7,127.44A161.93,161.93,0,0,0,50,494.52,91.33,91.33,0,0,0,80.4,525.84c23.64,15,44.52,12.36,62.4-7.92q32.58-36.9,40.68-84.24c-.48-1.08-1-1-1.56.36l-.48.6-2,2a277.34,277.34,0,0,1-35.16,65.4q-19.8,27.54-50.76,14.4a87.19,87.19,0,0,1-31.8-22.8Q39.72,468.84,35,435A838.49,838.49,0,0,1,27.6,305.76,629.58,629.58,0,0,1,42.36,181.68a289.83,289.83,0,0,1,25.92-71.52q15.3-29.34,48.72-31,43.56-2.16,59.4,38.28A8.67,8.67,0,0,0,177.84,109.44Zm70.56,28.68a589.67,589.67,0,0,0-8.52,108.36l.36,26.28h-1.92l-12.12-.24L137.4,286l.36-21.6c.84-43.32,2.64-86.16,5.4-128.28a6.43,6.43,0,0,0-4.08,5.88q-4.86,51.3-5.64,104c-.6,43.08-1.68,86-3.24,129.12a461.09,461.09,0,0,1-4.32,48.36c-1.44,9.72-.24,17.64,3.72,23.52a6.67,6.67,0,0,0,1.8-4.08,430.76,430.76,0,0,0,3.84-50.28l2-100,103.08-7.32c.24,30.12.24,60.12.12,90.24a324.36,324.36,0,0,1-3.6,48.36c-1.8,12.12-1,22.68,2.76,31.92a31.2,31.2,0,0,0,3.12-12.12q3.6-64.08,3.36-129l.12-29.76h.48a11,11,0,0,0,1.56-5.76,9.68,9.68,0,0,0-1.68-5.52l-.24-.36q.54-43.92,2.28-87.72c.6-16.56.84-32.52.48-47.88A.5.5,0,0,0,248.4,138.12ZM507.24,84.48Q488.7,148.2,473.4,213.12c-3.72,15.84-7.8,31.56-12.48,47.16a1041.48,1041.48,0,0,0-29,126.72l-19.8,122.76c-.36-16.68-1-33.24-1.68-49.8q-2.7-64.44-9.24-128.16L397.68,299A964.07,964.07,0,0,0,374.76,173.4Q359.1,110.94,342.24,50c-1-.12-1.44.48-1.32,1.56a187.25,187.25,0,0,0,4.2,26.52c4.8,21.24,10.2,42.24,16.32,63.24a911.09,911.09,0,0,1,26.88,128.4c5.64,42.12,9.6,84.36,12.12,127,2.28,41.4,3.72,82.68,4.44,124.08C405,530,407,537.24,411,542.52a469.84,469.84,0,0,0,14.16-74.76,860.38,860.38,0,0,1,23.16-128q10.26-39.78,19.8-79.32,14.94-62.46,31.44-124.68A170.65,170.65,0,0,1,510.72,105c6.36-13.68,7.92-26.64,4.44-39A83.27,83.27,0,0,0,507.24,84.48Z" transform="translate(-22.4 -50.02)"/></svg>