<svg id="Layer_1" data-name="Layer 1" xmlns="http://www.w3.org/2000/svg" viewBox="0 0 486.24 430.27"><defs><style>.cls-1{fill-rule:evenodd;}</style></defs><path class="cls-1" d="M210.48,398.88c1.56-42.84,3.6-85.56,5.88-128.28a1270.85,1270.85,0,0,0,.36-128.28q-3.42,39.06-4.08,80.64-1.26,64.8-5.88,129c-.84,10.8-1.92,21.6-3.48,32.28-1.32,9.72.12,17.64,4.32,23.52A17,17,0,0,0,210.48,398.88ZM176.4,70.08a197.84,197.84,0,0,0-43-.36l-11.28,1.44a406.39,406.39,0,0,1-84.24,4.08,7.68,7.68,0,0,0-1.08,4.08l.48,2.4.24.84c14.64,5.16,30.36,6.48,47,4.2q23.94-3.42,47.88-4.68a448,448,0,0,0,1.08,71.64q4.5,48.24,7.32,96.6c1.2,21.36,2.88,42.72,5,64A394.41,394.41,0,0,1,138.6,442.8a26,26,0,0,1-11.16,16.56c-15.6,10.68-31.08,10.92-46.44,1-21.24-13.8-31.56-32.76-31-57.12.24-12.48-2-22.92-6.72-31.44a213.3,213.3,0,0,0,1.32,48.6q4.5,31.32,30.48,50.88,27.54,20.88,57.24,1.68a50.69,50.69,0,0,0,9.48-19.44,391.07,391.07,0,0,0,9.72-127.56q-5.4-63.9-10.44-128c-3-38.52-5.4-77-7.2-115.8a582.2,582.2,0,0,1,76.56.72,6.22,6.22,0,0,0,1.92-4,12.47,12.47,0,0,0-.84-6.6l-.48-.84L210,71Zm200.4-.6a99.13,99.13,0,0,0-39.12-8.88l-62,6.84-.36,2.4a15.5,15.5,0,0,0,.12,4.08l.24,1.56,2.16.12a653.54,653.54,0,0,0-1.92,74q1.8,64.26-.24,128.16-2.16,64.62-5.16,129.24a159.29,159.29,0,0,1-6.84,40.08c-3.48,11.76-3.72,22.68-.72,32.64a86.81,86.81,0,0,0,6.6-25.8Q276,390.06,280.2,325.8q3.24-50.76,2.76-102a52.16,52.16,0,0,0,29.76.72c12.36-3.12,23.88-2.64,34.68,1.44l.6-1.68a7.51,7.51,0,0,0,.36-3.24,8.8,8.8,0,0,0-.6-2.4l-.36-.84-.84-.72a45.1,45.1,0,0,0-24-5.52v.12a155.88,155.88,0,0,1-39.72,6.12l-.48-21.12L278.64,75.6a80,80,0,0,0,14.28-1.32c29.4-5.88,57.48-4,84.48,5.52a6.46,6.46,0,0,0,1.2-2.4,16.75,16.75,0,0,0,.24-4.92,4.83,4.83,0,0,0-1.08-2.4Zm110.4-9.84A226.42,226.42,0,0,0,445,58.32L422,60.72a6.64,6.64,0,0,0-1.2,1.92,10.29,10.29,0,0,0-.6,3.24q.9,78.48-1.68,156.12v2.52l.12,1.2.84.72q-.72,50.22-2.52,100.44c-.6,16.2-1.8,32.28-3.72,48.24a516.39,516.39,0,0,0-1,113,148.92,148.92,0,0,0,4.2-19.56c.6-5.16,1.08-10.32,1.2-15.48q2.52-113.4,6.48-226.56L498.12,230l8.28,4.32a2.77,2.77,0,0,0,.12-2.88,21.84,21.84,0,0,0-4.68-6.24c-10.56-9.84-23.28-12.72-38-8.76a56.75,56.75,0,0,1-10.92,2.16l-17.16.6-11.4.12q1.08-37.8.72-75.48c-.12-20.28-.72-40.56-1.56-60.84l-.72-15.12c16.8-.12,33.6.36,50.28,1.2l37.56,3.12,12.48,1.32-.36-9.72Z" transform="translate(-36.84 -57.89)"/></svg>