<svg id="Layer_1" data-name="Layer 1" xmlns="http://www.w3.org/2000/svg" viewBox="0 0 282.73 202.85"><defs><style>.cls-1{fill-rule:evenodd;}</style></defs><path class="cls-1" d="M247.8,315.24a297.18,297.18,0,0,1-5.88,64.92,22.85,22.85,0,0,1-17.16-2.4l.24-.84c1.2-3.84,1.08-7.32-.48-10.32-4.8,3-7.2,7.8-7.08,14.64q0,5.58,4.32,7.92c17.52,9.72,26.88,5.16,28.2-13.44q2.88-41.22,2.4-81.12C249.12,300.48,247.68,307.44,247.8,315.24Zm8.64-56-3.72,3.6a21.6,21.6,0,0,0-.84,16l.84,1.8,5.64-1.32-1.08-8.88a8.16,8.16,0,0,0,1.8-7.56A6.47,6.47,0,0,0,256.44,259.2Zm49.2,36-5.88,61.56a175.3,175.3,0,0,0,1,38.88c.36,3.24,2.16,4.44,5.28,3.84,16.56-3.48,24.24-13.2,23-29.4l-16.56,16c-3.84,1.56-6.6,1.32-8.16-.48l.24-.84a527.51,527.51,0,0,0,1.92-90.12C305.88,294.48,305.64,294.6,305.64,295.2Zm-.48-35.52q-5.94,4.86-3.24,12.6l.6.72,2.64,3.6.72-.72c3.36-6.36,3.12-11.88-.72-16.32Zm-50.64-55-100.8-5.28c-2.64,2.28-3.36,5.16-2.28,8.88l.24.84.72,1.68,47.28,3.48Q196.62,250.14,197,289a304.49,304.49,0,0,1-3.48,48,163.68,163.68,0,0,0,2.88,64,669.39,669.39,0,0,0,8-127c-.6-19.8-1.2-39.72-1.68-59.64l51.84,1.32,1.2-8.16ZM424.08,392a281.09,281.09,0,0,0,4.8-98.76,173.94,173.94,0,0,0-2.52,45.24,105.52,105.52,0,0,1-7.2,46.2,15.75,15.75,0,0,1-8.76-1.08,30.33,30.33,0,0,0-8.88-10.32c-3.72,10.32-.6,18.36,9.24,24.24C417.84,401.64,422.28,399.84,424.08,392ZM430.8,259l-3,1.68a16.54,16.54,0,0,0-1.8,16.92h.24l1.8-2c4.2-2.16,6-5.64,5.52-10.56A9.66,9.66,0,0,0,430.8,259Zm-1.08-60.12a414.49,414.49,0,0,0-90.12,6.6l-.48,1.56a17.68,17.68,0,0,0,.48,5.64c15.72,1.08,31.8,1.56,48,1.2a344.87,344.87,0,0,0-7.2,57.84q-2.88,63.72-5.16,127.44.72,2.88,3.24,2.16a408.45,408.45,0,0,0,7.08-65.76q1.8-61.56,3.12-121.68l43.44-2.52.36-.84C434.76,205.32,433.8,201.48,429.72,198.84Z" transform="translate(-150.96 -198.58)"/></svg>