<svg id="Layer_1" data-name="Layer 1" xmlns="http://www.w3.org/2000/svg" viewBox="0 0 595.57 842.18"><defs><style>.cls-1{fill:#fff;}.cls-2{fill:none;stroke:#fff;stroke-linecap:round;stroke-linejoin:round;stroke-width:0.38px;}.cls-3{fill-rule:evenodd;}</style></defs><rect class="cls-1" x="0.31" y="0.31" width="595.08" height="841.68"/><rect class="cls-2" x="0.19" y="0.19" width="595.2" height="841.8"/><path class="cls-3" d="M260.64,293.28a723.43,723.43,0,0,1-6.6,88.2,15.71,15.71,0,0,1-14-.84,32.24,32.24,0,0,0-7.92-14.52,13.24,13.24,0,0,0-2.64,8.88c.84,16.44,9,24.12,24.6,23a8.63,8.63,0,0,0,2.88-4.32,226.68,226.68,0,0,0,4.2-100.44Zm5-40.08q-6.3,9.36-2.16,20.16a2.32,2.32,0,0,0,1.08-.6c4.44-6,5-12.72,1.92-20C266.16,252.84,265.8,253,265.68,253.2Zm-2.16-54.36-10.32-.24a327.3,327.3,0,0,1-96.84,1.08,10.86,10.86,0,0,0-1.44,9.48l.72,1.68a381.61,381.61,0,0,0,53.16,5.28,130.39,130.39,0,0,0-2.16,22.32q-1.08,64.08-6.12,128c-1,11.76,0,22.56,3,32.28a439.1,439.1,0,0,0,7.8-65.4q2.7-59,.48-117.24a352.34,352.34,0,0,0,53.88-3.48,13.64,13.64,0,0,0,1-9.72A6.68,6.68,0,0,0,263.52,198.84ZM368.64,319.56a140.15,140.15,0,0,1-3,26.4q-6.66,30.78,8.28,55.56l5.4,1.32c17.16-7.32,25.68-19.2,25.68-35.64a304.23,304.23,0,0,1-25.68,19.2c-5.88-1.32-8.52-5.16-7.68-11.28a422.27,422.27,0,0,0,2-79.68A63.52,63.52,0,0,0,368.64,319.56Zm3.6-64.44a4.33,4.33,0,0,0-1.8,2.76c-1.32,6.12-.36,11.52,2.88,16l2.28-2.52,1.32-1.2a11.51,11.51,0,0,0,.84-3.36,25,25,0,0,0-1.08-10.44l-1-.6Z" transform="translate(0.19 0.19)"/></svg>