<svg id="Layer_1" data-name="Layer 1" xmlns="http://www.w3.org/2000/svg" viewBox="0 0 475.13 398.42"><defs><style>.cls-1{fill-rule:evenodd;}</style></defs><path class="cls-1" d="M199.56,109.92Q192.18,67.08,146,70.32c-6.36,1.32-12.84,3.12-19.32,5.16a37,37,0,0,0-19,13.92,275.39,275.39,0,0,0-46,110,601.11,601.11,0,0,0-9.6,127.44,184.47,184.47,0,0,0,25.2,89c17.52,30.36,43.68,41.28,78.48,33,17.16-4.08,29.4-12,36.48-23.88l-.48,13c-.6,9.48,1.32,17.28,5.64,23.64a6.38,6.38,0,0,0,1.8-4.08q1.26-25,1.08-50.4a427,427,0,0,0-5.64-67.32,12.33,12.33,0,0,1-4.2,0,49.82,49.82,0,0,0-12-.24l-6.36-.24a15.26,15.26,0,0,0-10.92,2.16,7.68,7.68,0,0,0-1.08,4.08,5.72,5.72,0,0,0,.48,2.4l.24.84a215.21,215.21,0,0,1,31.44,4.8c.6,14,.84,28.08.72,42.24l-.12,6.6Q171.54,439.74,125.64,434,99.9,430.8,86,409.2,53.46,359.52,56.52,298.68A576.24,576.24,0,0,1,76.08,175.44c3.48-13.2,7.44-26.4,11.64-39.6Q101,93.72,144.6,86.76q40.5-6.48,52.32,30.12A6.63,6.63,0,0,0,199.56,109.92ZM357,115.32q-5-30.24-40-30.6-45.36,11.52-63.12,56a430.12,430.12,0,0,0-28.68,119.16l-6.12,1-.24.84a15.24,15.24,0,0,0,.48,8,6.49,6.49,0,0,0,4.08,1.2h.84A637.74,637.74,0,0,0,226.8,392c2,16.92,8.64,31.32,20,43.32q36,38,81.24,10.92c17.88-10.68,24.6-25.2,20.4-43.44a76.07,76.07,0,0,1-17.16,21.36Q309.9,443.46,282,437.4q-45.18-9.9-49.56-56.76a648,648,0,0,1-1.08-110,389.34,389.34,0,0,0,53.52-7.08c.84,1.44,1.92,1.68,3.24.84l.36-.84a13.34,13.34,0,0,0-1.2-13.8l-55,9.12a394.16,394.16,0,0,1,26.28-107.4q13.68-34.2,46.92-48.24a35.39,35.39,0,0,1,30.36.48,115.41,115.41,0,0,1,21,12.36Zm45.36-20.64c-1.68,28-2.64,56-3,84.48-.36,32-1.32,64-3.12,95.88L389.16,403.2q-.54,12.06-2.16,24.12c-1.56,12.12-.72,22.92,2.64,32.4l.12-.12.12.36.6.72,1.8,1.68,1.68.48a1111.82,1111.82,0,0,0,131.28,5.52l.48-.84a15.49,15.49,0,0,0,1.32-5.64V460.2l-.48-3.24a12.29,12.29,0,0,0-1.32-3.24c-19.2-.12-38.4-.48-57.72-1.08q-37.44-1.08-73.56-5.76c1.44-13.56,2.4-27.24,2.88-41.28q2.16-64.26,4.8-128.28l2.4-64.08c1.44-43.32,2.64-86.16,3.48-128.28C404.28,86.88,402.6,90.12,402.36,94.68Z" transform="translate(-51.91 -70.09)"/></svg>