<svg id="Layer_1" data-name="Layer 1" xmlns="http://www.w3.org/2000/svg" viewBox="0 0 297.69 204"><defs><style>.cls-1{fill-rule:evenodd;}</style></defs><path class="cls-1" d="M245.4,314.88a376.85,376.85,0,0,1-3.24,61.8,12.41,12.41,0,0,1-8.16,3.24,18.16,18.16,0,0,1-6.24-4.08c-.36-3.72-2-6.24-4.8-7.56-4.32,6.6-4.2,13.92.24,21.84A19.44,19.44,0,0,0,237,397a12.82,12.82,0,0,0,7.2-6.48,92,92,0,0,0,8.88-43.92l-1.8-51.12C247.08,300.6,245.16,307.08,245.4,314.88Zm5.4-37.56c4.56-14.28,4.56-26.16.12-35.64-7.56,12.6-7.8,24.24-.84,34.92Zm83.88,32.76c2-6.12-.12-10.44-6.6-13A59.94,59.94,0,0,0,303,292.68c-14,7.08-22.44,19-25.2,35.88a125.47,125.47,0,0,0,1,44.4,105.18,105.18,0,0,0,7.2,22.56c10.8,4.44,21.72,4.08,32.76-1.32a36.26,36.26,0,0,0,17.52-17.88c2.52-5.64,1.56-10.68-2.88-15.36a66.7,66.7,0,0,1-20.16,16.2,38.15,38.15,0,0,1-22.08,4.56,73.14,73.14,0,0,1-7.2-34.2l41.76-2.16a13,13,0,0,0,.6-13.92l-1.08-1.92a60.14,60.14,0,0,0-39.6,3.84q5.76-23.76,29.52-26.28A36.8,36.8,0,0,1,334.68,310.08Zm-82-112.56-99.6,3.24-.6.72a11.82,11.82,0,0,0-.12,10.44c15.6.72,31.32,1.08,47.16,1A70.6,70.6,0,0,0,197.28,230q-.9,64.44-3.12,129a77.59,77.59,0,0,1-2.28,15.84c-2.52,10.2-1,18,4.8,23.64a362.67,362.67,0,0,0,7.44-69q.9-59.22.12-116.64L253,211.32l.72-.84C256,205.92,255.72,201.6,252.72,197.52Zm180.84,109.8c.12,25.32-.6,50.16-2.28,74.76-3.6,2.76-6.72,2.64-9.24-.36q-.54-4.14-4.32-2.88c-4.2,8.16-2.88,15.12,3.84,21l11-.24a42.63,42.63,0,0,0,8-25.92q-.54-38.7-2.88-76.32C435,299.4,433.56,302.76,433.56,307.32Zm5.64-35.52a63,63,0,0,0,1.8-32c-6.48,10.32-7.08,21.12-1.92,32.28Zm-81.24-65a12.57,12.57,0,0,0,0,8.88,265,265,0,0,0,37.56,2.76,1146.92,1146.92,0,0,0-5.88,127.32A241.56,241.56,0,0,1,387.72,378c-1.32,9.84.36,17.64,4.92,23.52a82.22,82.22,0,0,0,5.4-30.84c-.36-31.08-.12-62.28,1-93.36.6-20.28.6-40-.24-59A248.13,248.13,0,0,0,447.48,213l.48-1a13.25,13.25,0,0,0-1.56-12.84,673.4,673.4,0,0,1-88,6.72Z" transform="translate(-151.24 -197.52)"/></svg>