<svg id="Layer_1" data-name="Layer 1" xmlns="http://www.w3.org/2000/svg" viewBox="0 0 307.85 212.64"><defs><style>.cls-1{fill-rule:evenodd;}</style></defs><path class="cls-1" d="M244.56,300.36q-3.06,38.52-4.32,77a14.84,14.84,0,0,1-13.8,2.76,10.18,10.18,0,0,1-4.32-6.48,3.22,3.22,0,0,0-4.08-.36,8.19,8.19,0,0,0-2.4,7.92C218.4,396,227.16,400.32,241.92,394A40.18,40.18,0,0,0,249,369.84q-.9-36-2.76-70.56C245.16,299.16,244.68,299.52,244.56,300.36Zm.84-28.08A46.16,46.16,0,0,0,247,243.84c-5.16,7.92-6.24,16.32-3,25.08Zm65.16,21.24c-20,3.12-31,14.76-32.76,35-1.08,12.36-1.92,24.84-2.4,37.44-.6,17.16,6.36,28.32,21.12,33.36a213.64,213.64,0,0,0,29.88-16.68c12.12-8,14.4-17,7-26.88-11,15-25.8,23.4-44.16,25.2a45.86,45.86,0,0,1-6.72-28.56l.24-2.76c10.2-1.08,20.52-2.64,30.84-4.44a8.21,8.21,0,0,0,2.52-5.64,12.81,12.81,0,0,0-2.76-9.84l-7.08-.24a110.32,110.32,0,0,0-21.24,5.4,142.55,142.55,0,0,1,5-17.28c13.68-10.8,27.48-11.76,41.4-2.76a7.81,7.81,0,0,0,.84-8.64,26.07,26.07,0,0,0-8.16-10l-2.16-.6A45.61,45.61,0,0,0,310.56,293.52Zm-61.08-95.28L204.6,195.6A205.79,205.79,0,0,1,152,199.68a9,9,0,0,0-1.92,7.08l.12.72.6,2.4.48,1L199,211a587.48,587.48,0,0,0-3.24,94.32A375,375,0,0,1,193.08,370c-1.68,12.6-.12,23,4.68,31.56a381.49,381.49,0,0,0,5.76-70.68q-.72-60.66-2.64-119.88l48.6.36a11.46,11.46,0,0,0,2-8.64l-.12-.84a10,10,0,0,0-.72-2.52l-.48-.72ZM454.2,199c-2,21.72-3.6,43.56-4.68,65.64l-1.08,24.48a110.69,110.69,0,0,0-25.32,5.52c-.12-23.16-1.08-46.32-2.88-69.24-.36.12-.6.24-.6.36Q415.5,286,414,347.4a189.78,189.78,0,0,1-3.48,32.16c-1.92,10.2-.24,18.12,5,23.64a15.18,15.18,0,0,0,2.52-6.6c1.44-14.16,2.64-28.44,3.48-42.84,1-17.16,1.44-34.08,1.56-51a46.57,46.57,0,0,0,24.72,1c-1.32,29.88-2.28,59.88-3.12,90-.12,7.44,2.16,12.24,6.84,14.52q2.88-40.86,4.8-82.68a1172.15,1172.15,0,0,0-.48-128.28A1.64,1.64,0,0,0,454.2,199Zm-74,15.12q-2,63.9-5.76,128.16a258.62,258.62,0,0,1-3.84,32.16c-2.16,12.48-.84,23.28,3.84,32.52a19.72,19.72,0,0,0,3.36-17.28c2-19.68,3.72-39.48,5-59.28,2.52-39.12,3.6-78,3-116.64l45.48.36a4.71,4.71,0,0,0,1.68-2.52,14.06,14.06,0,0,0,.24-8.88l-.24-.84-.84-1.56-.84-.48-33-1.44-55.8,3.48-.6,3.24a23.13,23.13,0,0,0,0,5.76l.24.72.72,1.68,37.32.48Z" transform="translate(-150.03 -195.6)"/></svg>