<svg id="Layer_1" data-name="Layer 1" xmlns="http://www.w3.org/2000/svg" viewBox="0 0 595.57 842.18"><defs><style>.cls-1{fill:#fff;}.cls-2{fill:none;stroke:#fff;stroke-linecap:round;stroke-linejoin:round;stroke-width:0.38px;}.cls-3{fill-rule:evenodd;}</style></defs><rect class="cls-1" x="0.31" y="0.31" width="595.08" height="841.68"/><rect class="cls-2" x="0.19" y="0.19" width="595.2" height="841.8"/><path class="cls-3" d="M274.44,278.64l21.72-129L311.64,276ZM75,138.36q17.28-32.94,52.68-26.28a38.93,38.93,0,0,1,14.16,17.28q5,12.06,11.52,17.28a39.1,39.1,0,0,0-1.08-14.88c-5.88-21-19.2-33.48-39.72-37.32Q83.4,102.54,70,131a304.23,304.23,0,0,0-15.6,40.32A353.46,353.46,0,0,0,40,297.6l4.44,64.2c2.52,35,16.32,64.08,41.64,87.24,9.48,8.76,19.92,11.16,31.56,7.2,34.32-11.64,57.6-34.92,69.84-69.6,3-8.4,1.44-13.56-4.56-15.48-9.24,31.32-28.92,53.52-58.8,66.84a18.07,18.07,0,0,1-8.64,1.8c-24.6-.36-42.24-12.48-52.92-36.12a406.17,406.17,0,0,1-15.72-81,436.92,436.92,0,0,1,4.56-115.32A234,234,0,0,1,75,138.36ZM223.2,197c.6,12.72,1.08,25.44,1.2,38.28L223,235.2a56.78,56.78,0,0,0-33.84,8.64c.24-37.32-.72-74.4-2.76-111a127.09,127.09,0,0,0-5.16,40.08q1.08,64.62-.84,129.12a237.44,237.44,0,0,1-3.12,32c-1.56,10.2.36,18.12,5.64,23.64q5.22-47.52,6-96.6L189,254A118.27,118.27,0,0,1,224.52,247c.12,26.28-.48,52.68-2,79-.6,12.24,1.08,22.8,5.28,31.8a643.49,643.49,0,0,0,4.68-94.2c-1.08-43.32-2.28-86-3.84-128.16A224.39,224.39,0,0,0,223.2,197ZM298.08,99.6a102.62,102.62,0,0,0-1.68,10.32q-8.46,38.34-13.8,77.64a1126.09,1126.09,0,0,1-24.72,124.56q-8.1,31.86-14.52,64.08a171.47,171.47,0,0,1-16.08,46q-9.36,18.18-1.44,31.32a1065.91,1065.91,0,0,0,36.84-121.56c3.48-14.28,6.6-28.68,9.6-43.08a211.75,211.75,0,0,0,40.92-.12l5.64,52.08a1022.14,1022.14,0,0,0,21,126.24,5.58,5.58,0,0,0,3-5.4,218,218,0,0,0-3.48-38.52q-6.48-35.82-11.52-71.76l-9.12-67.08a8.12,8.12,0,0,0-.72-5.4l-7-54.24Q303.66,167,301,110.4c0-5-.24-10-.6-14.88-.6.12-.84.24-1,.48l-.48,2.28A2.12,2.12,0,0,0,298.08,99.6Zm159.12,7.08.12-9c-5.52,7.56-9,16.68-10.56,27.36-4,29.64-8.76,59-14.28,88.44a813.67,813.67,0,0,0-12.6,102q-5-46.44-9-93.12Q405.48,158.1,401.76,95L401,97.2a1.86,1.86,0,0,0-1.2,1.56,898.46,898.46,0,0,0-15.6,109.56c-3.48,42.72-8.16,85.2-14.28,127.44a435.78,435.78,0,0,1-14.28,63.6c-3.6,11.64-3.48,22.32.36,31.92a116.2,116.2,0,0,0,10.68-32.88q11-63.18,17.64-126.84,6.48-62.82,14-125.28l1.92,24.36q5.22,63.72,10.92,127.2c.48,5.4.72,10.92.72,16.32a144.75,144.75,0,0,0,7.92,47.64c3.24-3.12,4.44-7.08,3.84-12l-1.2-10.32q3.42-5.94,1.44-13.68c2.16-18.36,4.68-36.84,7.56-55.2q9.72-62.82,21.36-125.52l1.08-5.76c1.2,20.52,2.52,41,3.84,61.32q4.5,63.72,13.32,126.6,9,63.9,14.16,128.28c.6,7.32,3,12.12,7.44,14.52l.36-.84a79.7,79.7,0,0,0,1.8-29.28l-.48.36-.6,7q-5.22-47.34-11.88-94.32-9-63-15.12-126.72-6.12-64.26-6.6-127.44A56.77,56.77,0,0,0,457.2,106.68Zm76.32,13.44c-8.52,3.48-14.64,9.72-18.48,18.6a153.23,153.23,0,0,0-12.84,61.2q-.18,64.44,0,129.12l.24,54.36c.12,17.52,8.16,26.52,24.36,27l6.12-5c12.6-10.92,17.28-23.52,14.16-37.92-3,1.32-5,3.84-6.36,7.32-5.28,14-14.28,19.56-27.12,16.44A345.45,345.45,0,0,1,508.2,332l-.48-64.56a95.77,95.77,0,0,0,34-2.88l.36-.72c2.28-5,1.8-9.6-1.44-13.8a281,281,0,0,0-32.88,5.64v-52.8a137.64,137.64,0,0,1,11.16-55,18.29,18.29,0,0,1,8.64-9.36c13.32-6.72,23.28-2.88,29.88,11.64l.24-.36C559.92,132.72,551.88,122.76,533.52,120.12Z" transform="translate(0.19 0.19)"/></svg>