<svg id="Layer_1" data-name="Layer 1" xmlns="http://www.w3.org/2000/svg" viewBox="0 0 508.78 362.28"><defs><style>.cls-1{fill-rule:evenodd;}</style></defs><path class="cls-1" d="M237.72,269.88,257.4,135.36l16.44,122.88ZM133.44,152.4q-4.86-31.68-39.24-35.52-31.5,12.78-45.48,44.28a254,254,0,0,0-22.2,107.28A402.62,402.62,0,0,0,48.12,394.8a45,45,0,0,0,8.76,15.48q27.54,32,60.84,6.84A105.83,105.83,0,0,0,138.6,396.6c9.48-12.12,12.24-24.72,8.52-37.56l-19.8,29.64Q106.62,418.92,74,407.52a25.92,25.92,0,0,1-13-10.08,136,136,0,0,1-18.84-45.12,376.08,376.08,0,0,1-6.12-127c4.2-34,19-62.4,44.28-85.08,10.2-9.12,20.88-10,31.8-2.4,7.68,5.28,14.64,10.32,20.88,15ZM258.12,112l-.24-12.12a58.31,58.31,0,0,0-7.92,25q-6.84,63.54-16.44,126.72l-3.24,21.84-3.6,1.8-.24.84a12.47,12.47,0,0,0,1.32,9.72l.6-.12-14.28,92.64c-.84,5.4-1.8,10.56-3.12,15.72Q205.38,415.2,212,433.2a88.21,88.21,0,0,0,8.4-29.76q4.68-57.06,14-113.88l1.08-6.36a318.87,318.87,0,0,1,40.32-10q6.66,49.32,10.8,99.12a300.44,300.44,0,0,0,12,63,2.48,2.48,0,0,0,2.16-2.88q-1.44-38.52-6.12-77.4-4.86-41.58-11-83.16l1.8-.24.6-1c2.76-5.16,2.4-10-1-14.4l-3.6.48L277,228.12q-10.26-63.36-15.6-127A56,56,0,0,0,258.12,112Zm-58.2,22.8c-2.52,26.64-4.08,53.64-4.44,81l-39,13.92c-.24-26.52,0-52.68.72-78.72l-.6.12a220.89,220.89,0,0,0-8.76,59.16l-.12,22.44-.84.36-.6,1.68a15.47,15.47,0,0,0,.6,9.6l1-.12q.72,47.7,5,94.32c4.08-3.24,6-8.16,5.88-14.64l-1.2-44.64c-.36-12.12-.72-24.24-.84-36.24a202.57,202.57,0,0,0,38.64-10.44q-.9,56.88-2.88,114c-.36,9.84,1.68,17.64,6.36,23.4a2.59,2.59,0,0,0,.72-1.68q2.16-54.9,3.36-109.56l.48-29.52.48-.84c1.8-4.32,1.68-8.16-.36-11.4q.18-43.74-.84-86.52A4.57,4.57,0,0,0,199.92,134.76ZM377.76,160.2c18.6-8.52,37.56-16.32,56.64-23.4a306.91,306.91,0,0,0-7,70.8c.36,21.6,0,43.2-1.2,64.8q-3.42,63.72-1.44,128.28a125.16,125.16,0,0,1-1.32,24.12c-1.92,12.36-.72,22.92,3.48,31.92A171.51,171.51,0,0,0,434.28,408l-.48,1-1.68,5c-1-14.16-1.44-28.44-1.32-42.84.12-32.28.84-64.56,1.92-96.6s2.64-64.32,4.68-96.48a292.85,292.85,0,0,0-.24-42.36c20.16-7.32,40.56-13.68,61.2-19.32l.36-.84c3.12-7,2.16-12.48-3-16.56a1042.94,1042.94,0,0,0-125,48.24l-.48.72c-1.8,5.16-1.32,9.84,1.56,13.92l1-.24A9.13,9.13,0,0,0,375,160.2ZM360.84,95.64c-16.92-1.56-28.08,6.12-33.24,23.28a134.84,134.84,0,0,0-5.64,44.4,158.73,158.73,0,0,0,8.4,44.88,184.63,184.63,0,0,0,16.8,35.88A386.35,386.35,0,0,1,366.84,280a293,293,0,0,1,16.44,42,182.85,182.85,0,0,1,7.32,46.2,144.8,144.8,0,0,1-6.12,45.36c-5.16,16.92-16,25.2-32.4,25a28.3,28.3,0,0,1-20.16-8.76l11.16-19.56-5.52,4.68-2-1.2-7.08,5.16-2,.6c-6.36,10-5.52,19.32,2.52,28.2a29.28,29.28,0,0,0,15.48,9.12,47.1,47.1,0,0,0,17.4.36,33.35,33.35,0,0,0,9.6-3.12,33.9,33.9,0,0,0,10-8.52,38,38,0,0,0,6.12-11.28,185.65,185.65,0,0,0,9.84-42.72A163,163,0,0,0,391,325.56a789,789,0,0,0-52.68-129q-20-39.06.84-75.6c4.8-8.52,12.24-11.76,22.32-10a18.67,18.67,0,0,1,6.24,12.12,59.58,59.58,0,0,1,0,13.08l3.24,1.56c5.16-15.48,2.28-29.28-8.64-41.16A4.32,4.32,0,0,0,360.84,95.64ZM532.56,160.2c3.84-5.4,3.6-11.28-.6-17.88-13.56-12.36-26.88-12.48-39.72-.12a79.35,79.35,0,0,0-22.32,38,348.79,348.79,0,0,0-8.4,44.4c-1.92,15.48-3.48,31.08-4.8,46.56s-2.16,31.2-2.76,46.92a199.4,199.4,0,0,0,2.64,40.68c2.76,16.44,10.8,28.56,24.12,36.48,5.88,3.48,11.64,3,17.4-1.44a143.4,143.4,0,0,0,31.44-33.48,29.54,29.54,0,0,0,4-25.68q-20.34,35.1-55.08,44.28c-1.2.36-2.52-.36-4-1.92a44.76,44.76,0,0,1-8.88-14.16,54.19,54.19,0,0,1-3.24-12.24c-.6-5.16-1-10.2-1.08-15.36l.12-29.88c.24-14.4,1-28.92,2.28-43.44l1.2,1.32a244.14,244.14,0,0,1,53-12.72,17.63,17.63,0,0,0,1-14.16,14,14,0,0,0-2-3.72A144.57,144.57,0,0,0,465.12,248q0-56.7,33.72-95.16a14.45,14.45,0,0,1,10.2-5c8.76-.6,15.48,2.28,20.4,8.52Z" transform="translate(-26.51 -95.44)"/></svg>