<svg id="Layer_1" data-name="Layer 1" xmlns="http://www.w3.org/2000/svg" viewBox="0 0 529.96 379.4"><defs><style>.cls-1{fill-rule:evenodd;}</style></defs><path class="cls-1" d="M265.92,319.44l27.72-109.68L315.6,317Zm24.6-133.56c-5.28,23.88-10.8,47.52-16.68,71.16-5.16,20.64-10,41.28-14.64,62h-.6l-.36.72a11.82,11.82,0,0,0-.48,5.76q-6.48,28.44-12.24,56.88a125.47,125.47,0,0,1-10.44,30.72c-5.88,12.12-6.12,22.68-.48,31.44a300.51,300.51,0,0,0,14.52-48.84c4.56-22.2,9.36-44.52,14.52-66.72a156.69,156.69,0,0,0,55,.84c7.32,32,15,63.84,22.8,95.4.72,9.24,3.84,16.08,9.48,20.4a7.63,7.63,0,0,0,1-5.52,695.63,695.63,0,0,0-17.52-76c-3.36-11.88-6.48-23.76-9.48-35.64l.36-.6a31.37,31.37,0,0,0,1.92-7.32l-.24-.84a7.26,7.26,0,0,0-2.76-4l-2.28.36-3.12-13.68c-8.28-37.44-15.48-74.88-21.84-112.2a71.63,71.63,0,0,0-.84-13.56l-1.2,1.08-.24-.84-.36,1.32A16,16,0,0,0,290.52,185.88Zm-100.2-4.32a634.93,634.93,0,0,1,10.56,80,822.3,822.3,0,0,1-1.56,127.56A123.25,123.25,0,0,1,169,460.32,32.31,32.31,0,0,1,143,472.08q-60.3-.54-87.84-54.72a11.81,11.81,0,0,1-1.32-7.44A61.14,61.14,0,0,0,52.44,386c-7.8,9-9.48,20.16-5,33.36q17.82,52.38,72.84,69.24a42.25,42.25,0,0,0,26.4-.24c27-8.76,43.8-27.48,50.64-55.92a320.16,320.16,0,0,0,8.16-56.16,950.38,950.38,0,0,0-1.8-128c-3.24-39.72-7.56-79-12.84-118,43.44-.6,86.88-1.92,130.32-3.72l.72-.84c2.64-5.16,2.28-10.08-1-14.52H317q-139,3.78-277.32,4.08c-3,5.16-2.64,10,.84,14.52q74,1.44,147.72.48A157.85,157.85,0,0,0,190.32,181.56ZM494.4,205a188.89,188.89,0,0,0-27.72,75.12,459.66,459.66,0,0,0-.6,127.68,97.52,97.52,0,0,0,9.48,31q12.78,25.74,41.4,9,33.3-19.62,39.36-57.24a13.86,13.86,0,0,0-8.88,7.32q-18.54,36.36-59,39.48A12.39,12.39,0,0,1,484,432c-12.72-29.16-18.36-60.24-17-93.48.24-6.24.72-12.48,1.32-18.72q26.46-.54,52.92,0l.6-.84c3-5.4,2.76-10.44-.6-15.36L469.68,306a405.32,405.32,0,0,1,16.08-72.48A30.37,30.37,0,0,1,499.68,216q36.36-22,67.2,2.4a3.31,3.31,0,0,0,.6-3.12c-5.64-17.16-18.84-25.56-39.36-25.08a163.36,163.36,0,0,0-24.84,7.56A18.07,18.07,0,0,0,494.4,205ZM383.16,176.4a25.54,25.54,0,0,0-3.6,13.32l-2.88,129-3.6,127.44c1.44,1,2.28.72,2.52-.84A707.8,707.8,0,0,0,382.68,348l.48,3a7,7,0,0,0,3.12-3.6l16.2-38.52c-2.28,11.52-1.8,23.88,1.44,37.2q15.48,63.54,36.6,123.6c4.56-8.16,5-15.36,1.32-21.6A132.1,132.1,0,0,1,433.56,426q-17.46-60.66-28.92-122c10.68-24.6,22-49.08,33.6-73.32,4.68-9.72,9.72-19.32,15.12-28.56,4.68-8,6.36-15.72,5-22.92a1.7,1.7,0,0,0-1.92.84,947.85,947.85,0,0,0-50.28,98.4c-4.44,10-9.24,19.56-14.52,28.8-4.92,8.64-8,17.16-9.12,25.44q-.36-62.46,3.6-124.32C387,196.2,385.92,185.64,383.16,176.4Z" transform="translate(-37.69 -111.24)"/></svg>