<svg id="Layer_1" data-name="Layer 1" xmlns="http://www.w3.org/2000/svg" viewBox="0 0 584.61 586.92"><defs><style>.cls-1{fill-rule:evenodd;}</style></defs><path class="cls-1" d="M373.32,444.24l-3.48,1.92-4.56,2.4a149.77,149.77,0,0,0-11.16,47q-1.62,23.76-4,47.88c-1.56,16.32,2,30.48,10.8,42.36a41.68,41.68,0,0,0,15.72-10,48.72,48.72,0,0,0,4.8,16.68l.48-.84a212.69,212.69,0,0,0,1.92-31.44,41.45,41.45,0,0,0-.6-12.6c-.36-5.4-1-10.68-1.8-16a4.14,4.14,0,0,0-3.72,2.16,20.86,20.86,0,0,0-8.16,3l-.24.72a14.53,14.53,0,0,0,.48,8.16,15.24,15.24,0,0,0,8.4.48,90.22,90.22,0,0,1-.6,9.84A32.39,32.39,0,0,1,362,571.2c-3.84-3.48-5.76-8.16-5.76-13.8a374.14,374.14,0,0,1,12.48-98.28c3.48-3,7-3.48,10.56-1.32a9.37,9.37,0,0,1,1.08,5.64c-.48,4.2.72,6.84,3.48,7.92a12.18,12.18,0,0,0,1.92-5.64,28.72,28.72,0,0,0-5.64-20.4,1.09,1.09,0,0,0-.84-.36Zm-25-80.76a106.84,106.84,0,0,0-6,35.64q0,64.44-1,129c-.12,5.52-.24,11-.6,16.56l-1.08-6.12c-3-16.56-6.6-33-10.8-49.44Q314,429.54,303.24,369.24v-3.12h-.36v.48l-.36-2c-2.28.6-3.36,2.28-3.12,5l1.2,10.92a516.18,516.18,0,0,0-4.92,74c.12,43.08-1.44,85.92-4.8,128.28a3.32,3.32,0,0,0,2.4,2.16,543.18,543.18,0,0,0,8.88-90.72q.9-47.34,1.08-93.36a815,815,0,0,0,19,94.32A316.51,316.51,0,0,1,332,558c.72,12.12,3.24,22.2,7.56,30.48l1.56-9.72a31.68,31.68,0,0,0,3,5.64l.72-.72q2.88-46.26,3-92.64c.12-43.32.84-86,1.92-128.16C349.08,362.76,348.6,362.88,348.36,363.48ZM321.48,255.72l9.24,10.08c-3.6,11.52-10.56,19.32-21,23.4l-.48-27.36Zm-12.72-4.32-5,39.6c-2,1.08-3,2.88-2.76,5.64a12.72,12.72,0,0,0,1.8,5q-7.38,29.7,0,57.72l6.48-56.52,11-5a187.24,187.24,0,0,0,12.84,58.08,121.22,121.22,0,0,0-11-59.52q21.42-18.54,8.16-41.76a28.28,28.28,0,0,0-10-10l-11.4,8ZM47.64,230a32.48,32.48,0,0,0-15.12,11.52C15.6,264.72,8.16,291.12,10.08,321c.72,10.32,1.08,20.64,1,30.84L10.2,480c-.12,10.8-.84,21.6-1.92,32.28q-4.14,38.88,12.84,70.8l2.28.72,1,.6,1.08.84a25,25,0,0,0,21.48-7.56q25.92-25.92,23.76-59l-2.76-.24-.84-.24-.84-.72L65.16,517l-.48-.12.6,1.56,1,1.68.36.72a65,65,0,0,1-8,23.64c-7.8,13.56-18.48,22.08-32.28,25.68l-2.4-2.88c-6.72-9.12-10-19.68-9.72-31.8q1.62-64.62.84-129c-.36-39.72.72-79.32,3.36-118.56,1.56-24.24,13.56-39.6,35.76-46l2,1.2,1.8,1.2,1.56.6a48.07,48.07,0,0,0,3.6,5.88c2.52,3.48,5.28,4.68,8,3.6a12.8,12.8,0,0,0-1.32-6.6A47.49,47.49,0,0,0,57.6,231.6l-2.28-.72A12,12,0,0,0,47.64,230Zm69.12,3.84a427.24,427.24,0,0,0-4.08,81.6c.84,19.56,1.44,39.12,1.92,58.68a277.86,277.86,0,0,0-47.76,8.16c.36-13.68,1.08-27.48,2-41.28a203.31,203.31,0,0,0-5.52-64.2q-5.4,4.5-4,13.32a211,211,0,0,1,2.88,44.4q-2.7,64.62-7.2,128.88-1.44,18.18,5,31.68c3.24-32.52,5.28-65.64,6.36-99.12,15.72-2.76,31.92-4.8,48.48-6.24.36,18.24.6,36.48.6,54.84q.18,64.26,1,127.92l-.12-.24A5.85,5.85,0,0,0,112,568.2a7.29,7.29,0,0,1,2.64,6.48c-.72,8.16,1.32,14.16,6,17.88a4,4,0,0,0,.84-1.56c1.92-33.24,2.76-66.48,2.4-100q-.54-64.8-2.28-129-1.8-65-4.44-128.28ZM121.2,22.44,10.32,25.92l-1.08,1.8C7.44,31.92,7.8,35.64,10.32,39c21.12.6,42,.6,62.64-.24,2.52,33.72,4.2,67.8,5.28,102.24q.9,32.94-20.64,55.68C46,208.8,35.28,210,25.44,200.28c-4.32-7.56-8.52-14.16-12.48-20a17.28,17.28,0,0,0-1.68,11.28c3.12,18.36,13.08,28.68,29.88,31.2a75.7,75.7,0,0,0,26.28-22.08,78.87,78.87,0,0,0,15.72-44.16A519.42,519.42,0,0,0,76,38.64l52-3.72,1-2.52a12,12,0,0,0-1-8.88,1.93,1.93,0,0,0-.84-.48ZM303.48,122.76c-2.28,41.28-2.88,82.2-2,122.64a74.27,74.27,0,0,1,35.64-4.8l.48-.6a12.77,12.77,0,0,0,.36-12.12,60.9,60.9,0,0,0-33.6,2.64l.12-.72a796.9,796.9,0,0,0,3.24-117A14.4,14.4,0,0,0,303.48,122.76Zm-17.76-8.52a729.19,729.19,0,0,0-3,87.6q1.62,65-2.52,129c-1.32,21.6-3.36,43.2-6,64.8a196.4,196.4,0,0,0,.12,49c.84-.36,1.32-.72,1.32-1.08a503.06,503.06,0,0,0,9.72-71.88q4.14-63.72,4.32-128.4c.12-43.44-1-86.4-3.48-129ZM224,78.12q7.92,63.72,11.4,128l2.28,41-34,6.48a33.8,33.8,0,0,0-9.12,3.12l9.6-67.2L222.36,63.12l.24-1.2Q223.14,69.84,224,78.12Zm2.16-54.36L224,31.44l-.84-4.08-.72,9.84a477,477,0,0,0-12.84,66.36Q201.72,166.74,193,229.68l-4.8,33.48a12.73,12.73,0,0,0-1.08,7.44c-4.32,28.44-9,57-13.92,85.44q-11,63.18-19.68,126.72a465.88,465.88,0,0,1-13,62.76A146.1,146.1,0,0,0,135,593.16c.84,0,1.44-.24,1.56-.6a261,261,0,0,0,16-56.28l15.24-94q10.08-62.82,18.72-126.12L192.6,272a129.5,129.5,0,0,1,45.84-11.4l.48,9.72c2.28,42.84,5.4,85.68,9.36,128.28s6.6,84.24,7.92,124.68c-.36,2.4-.12,7.08.6,13.92A300.34,300.34,0,0,0,265.68,585c2.52-.84,3.72-2.64,3.84-5.64A319.46,319.46,0,0,0,268,537.84c-4.2-42.36-8.16-84.84-11.64-127.32s-6.72-85.44-9.72-128.28L245,258.48c2.52-4.32,2.28-7.92-.72-10.68-2-31.32-4-62.52-5.64-93.84a956.52,956.52,0,0,0-12-107.52C229.68,37.68,229.56,30.12,226.2,23.76Zm182.88,90.12a16,16,0,0,0-7.92,10.2,303.71,303.71,0,0,0-11.28,78.36c-.6,42.84-.72,85.92-.12,129s1.2,86.16,2,129.12a540.81,540.81,0,0,1-2.4,64c-2.52,25.32,1.68,48.72,12.72,70,11.76-2.16,20.76-8.76,26.88-19.92a205.27,205.27,0,0,0,10.56-22c5-12.12,4.68-22.32-1.2-30.36a5.77,5.77,0,0,0-1.92,2.28c-1.08,2.28-2,4.44-2.88,6.72l-.12.72.12.84.36.72.24.12.6.48a45.73,45.73,0,0,0-2.88,8,65.71,65.71,0,0,1-23.28,35,4.57,4.57,0,0,1-4.56.6l-.36-.36a70.82,70.82,0,0,1-6.48-32.52q2.34-64.44,1.56-129l-.84-53.4,24.72-1.32.72-.84q3.78-7.2-.72-13.68a77.07,77.07,0,0,0-24.84,4.2l-1.2-64.08q-1.26-56.16-.6-112a96.94,96.94,0,0,1,12-47.16,22.93,22.93,0,0,1,11.52,1.8c8,3.6,13,10.2,14.52,19.92a6.82,6.82,0,0,0,2.88-5.4C437,124,427.8,114,409.08,113.88ZM474.24,40q40.68,50.76,52,115.8A827,827,0,0,1,538.44,285q.9,64.44-3.24,128.16a304.52,304.52,0,0,1-33.6,121.2c-10.44,20-25.68,31.68-45.72,34.68l1.08-.84a7.3,7.3,0,0,1,3.24-1.92,21.63,21.63,0,0,0-2.52-1l-1.56-.12a568.79,568.79,0,0,0,1.8-78.48c-1.08-26.76-1.68-53.52-1.56-80.28.24-43.08-.48-86-2.16-129.12s-2.64-86-3-129A630.68,630.68,0,0,1,461.52,30.6l3.36,1.68A30.91,30.91,0,0,1,474.24,40ZM454.56,13.8l-.72.84a8,8,0,0,0-2,5.88,21,21,0,0,0,1.44,6.6l1.92.72a524.21,524.21,0,0,0-6.72,57q-4,64.26-1.8,129.24c1.44,42.84,2,85.92,1.8,129-.24,32.28.36,64.56,1.92,96.6A1223.3,1223.3,0,0,1,450,565.56a6.27,6.27,0,0,1-.48-2.52c.24-14.64.24-29.28-.12-43.8-1,10.92-1.56,22.56-1.92,34.92a111,111,0,0,0,.84,16.92,14.23,14.23,0,0,0-1.92,4.08c-1.68,5.4-.6,10,3.24,13.56l10.2-.6a29.27,29.27,0,0,0,7.44-3c25.32-14.88,43.32-36.6,53.76-65a387,387,0,0,0,23.88-125.64c1.08-42.84.72-85.8-.84-129A694.89,694.89,0,0,0,527.88,139,626,626,0,0,0,510.6,76.44c-8.76-26.52-24.72-46.08-48.12-58.68a8,8,0,0,0-2.28-3.36l-1.44,1.44ZM573.12,8.16l-2.76-.6c-22.92,24.84-34.56,55.2-34.8,91.32A143.58,143.58,0,0,0,540.72,138,46.74,46.74,0,0,0,556,162.24c4.44,3.72,9,3.84,13.68.24,12.72-9.48,17.88-21.84,15.36-37a28.07,28.07,0,0,0-1.08-4.56l-4.08,7.92-1.32,1c-.84,10.44-6.48,17-16.8,19.68a5.44,5.44,0,0,1-6.72-2.64,81.84,81.84,0,0,1-10.32-30,179.85,179.85,0,0,1-1.44-25.44l1.68.24,2.76-1.56,20-.6a9.2,9.2,0,0,0,2.64-5.76,10.7,10.7,0,0,0-1.56-7.2l-1.32-1.68-23,1.2A93.73,93.73,0,0,1,569.52,22a67.54,67.54,0,0,1,22.56,11.28C592.32,19.8,586,11.4,573.12,8.16Z" transform="translate(-7.47 -7.56)"/></svg>