<svg id="Layer_1" data-name="Layer 1" xmlns="http://www.w3.org/2000/svg" viewBox="0 0 595.57 842.18"><defs><style>.cls-1{fill:#fff;}.cls-2{fill:none;stroke:#fff;stroke-linecap:round;stroke-linejoin:round;stroke-width:0.38px;}.cls-3{fill-rule:evenodd;}</style></defs><rect class="cls-1" x="0.31" y="0.31" width="595.08" height="841.68"/><rect class="cls-2" x="0.19" y="0.19" width="595.2" height="841.8"/><path class="cls-3" d="M270.36,238.44,281,162.84l7.56,71.64ZM135.6,154c2.4-24.12-9.24-37.8-34.92-40.8a18.52,18.52,0,0,0-7.08,2.76Q51.84,142.2,40.92,190.68a395.86,395.86,0,0,0-7.8,127,109,109,0,0,0,23.64,58.44q18.72,23.58,44.28,8.76a279,279,0,0,0,42.48-30.36c10.68-9.24,16.32-19.68,16.92-31.44-10,8.76-19.68,18-29.4,27.48a106.76,106.76,0,0,1-40.2,25.08c-9.48,3.48-17.88,1.44-25-5.88q-29.34-30.24-30-73.44a579.23,579.23,0,0,1,3.36-70.8q5.58-50.58,39.6-88A28,28,0,0,1,95,128.64q32.94-5.94,40.2,25.92Zm149.52-33.6-.12.12-.12-6.24-1.08,7.08a9.13,9.13,0,0,0-3.48,6.48q-9,62.64-19.8,125-11.34,64.26-28.68,127c-3.24,11.88-2.76,22,1.68,30.36a197.93,197.93,0,0,1,7.2-38.88A1218.92,1218.92,0,0,0,268.8,248a26,26,0,0,0,20.76-5q4.68,40.86,7.2,81.84Q298.92,359,310.08,388a6.24,6.24,0,0,0,1.92-4.08,87.89,87.89,0,0,0-.6-24.48c-6.84-38.76-12.72-78-17.4-117.6-4.68-40.2-7.68-80.4-8.88-120.36Zm50.52,6a917.89,917.89,0,0,0-5.4,96.6c-.12,43.08-1.92,86.16-5.16,129-1,12.6,1,23,5.76,31.44l.72-1.68a124.72,124.72,0,0,0,1.92-20.16L335,249.48c.6-43.56,1.92-86.4,4-128.28A5.79,5.79,0,0,0,335.64,126.36Zm-119,47.28c-1.56,43-2.76,86-3.84,129.12-.48,21.6-1.56,43-3.24,64-.84,10.44,1.56,18,7.2,22.92a35.59,35.59,0,0,0,2.4-15.48A1089.53,1089.53,0,0,1,220,245.88q4.14-64.62,3.24-128.16A328.82,328.82,0,0,0,216.6,173.64Zm-37.08-50.16q-4.14,39.06-6,79.2l-1.8,47.88a6.33,6.33,0,0,0-1,3,8.35,8.35,0,0,0,.6,3.84L168.84,331c-.36,10.8-1.32,21.48-2.64,32.16-1.32,9.84.24,17.64,4.44,23.52a11.91,11.91,0,0,0,2.4-7.32q.54-61.2,4.2-121.92c11.16-2.4,22.68-5.28,34.32-8.76a8.41,8.41,0,0,0,1.56-3.84,7.81,7.81,0,0,0-1.08-5.64l-.84-.6a13,13,0,0,0-5.64-1,221.89,221.89,0,0,0-27.72,9.48c2.52-41.76,3.12-83,2-123.72Zm190.56,1.8c-2.16,37.32-4.2,74.76-6,112.08Q361,301.62,354,365.4c-1.32,12.36,0,22.92,4,31.56a75.23,75.23,0,0,0,3.6-19.44q3.24-64.26,7-128.28Q372.3,184.8,372.6,121h-.24A12.58,12.58,0,0,1,370.08,125.28Zm3.24,21c4,26.52,8.52,52.8,13.68,79.08q12.42,62.82,28.44,124.56c1.44,5.52,2.64,11.16,3.72,16.8,2.4,12,6.48,22.08,12.36,30.24a4.07,4.07,0,0,0,1-3.84,22.92,22.92,0,0,0,4.44-13.56c.6-42.84,2.88-85.68,6.72-128.28q5.76-64.44,7.08-127.32c-3.48,2.76-5.4,6.72-5.52,12.12q-2,48.78-6.12,97.32L428,361.68a89.65,89.65,0,0,0-.24,12.6q-11.7-48.06-22.32-96.72c-2.28-10.44-4.68-20.88-7.32-31.2A1124.26,1124.26,0,0,1,374.76,121,59.06,59.06,0,0,0,373.32,146.28Z" transform="translate(0.19 0.19)"/></svg>