<svg id="Layer_1" data-name="Layer 1" xmlns="http://www.w3.org/2000/svg" viewBox="0 0 595.57 842.18"><defs><style>.cls-1{fill:#fff;}.cls-2{fill:none;stroke:#fff;stroke-linecap:round;stroke-linejoin:round;stroke-width:0.38px;}.cls-3{fill-rule:evenodd;}</style></defs><rect class="cls-1" x="0.31" y="0.31" width="595.08" height="841.68"/><rect class="cls-2" x="0.19" y="0.19" width="595.2" height="841.8"/><path class="cls-3" d="M301.44,332.28a212.84,212.84,0,0,0,16,60.36L277,399.36l19.56-47.52Zm-2-10.8L254.76,429.84a127.67,127.67,0,0,1-7.2,14.64q-9.9,17.46-2.16,29.88,13.5-30.42,26-61.2a299.25,299.25,0,0,0,50.28-4.68l.24,1q11.34,47,19.56,94.08c2,12.24,6.24,21.84,12.6,28.92a4.83,4.83,0,0,0,.72-3.12,842.59,842.59,0,0,0-16.68-84.6c-3.36-13.68-7-27.24-10.68-40.8,1.44-4.32.72-8.4-2.28-12.36l-1.2.12c-6.72-23.4-14-46.44-21.84-69.36h-.36l-.36,6.6a44.7,44.7,0,0,0-1.08-8C299.76,321,299.52,321.12,299.4,321.48Zm-236.64-23a11.72,11.72,0,0,1-4.08,1.92c-1.92.6-3.84,1.32-5.88,2.16l-5.4,6a39.42,39.42,0,0,0-10.8,17.16,244,244,0,0,0-10.56,67A1170.78,1170.78,0,0,0,30.48,520.8a21.25,21.25,0,0,0,1.92,7.44c9,19.32,21.12,22,36.36,8.16C81.48,524.88,87.24,512.16,86,498.12l-.6,1.32-1.8,1.08A164.46,164.46,0,0,1,57.36,529.8a13.06,13.06,0,0,1-14-2.16,8.79,8.79,0,0,1-3.12-5.16,546.52,546.52,0,0,1-7.8-124A201.49,201.49,0,0,0,32,374.4Q29,330.84,64.68,312a10.18,10.18,0,0,1,3.12,1.32l10.92,8.16.24-.84C80.76,308.64,75.36,301.2,62.76,298.44Zm46.32,7.68q-4.86,40-5.88,81c-1.2,43.08-3,86-5.4,129.12-.6,12.6,1.32,23,5.76,31.44q4.5-57.06,6.48-115.2l.36-10.08a99.92,99.92,0,0,0,33.24-1.68q.54,62.64,2.16,123.36a2.68,2.68,0,0,0,1.44-.24,157.16,157.16,0,0,0,4.8-50,1028.05,1028.05,0,0,1,.6-129,498.83,498.83,0,0,0,.24-64.2,625.29,625.29,0,0,0-9.24,108.24c-11,1.08-22.08,2.52-33,4.08q1.26-54.72,0-108.72A2,2,0,0,0,109.08,306.12Zm40.8-234.24a420.54,420.54,0,0,1-99-4.8,3.48,3.48,0,0,0-2.16,3l-.12.84-.12.84v4A7.42,7.42,0,0,0,49.56,79L55,80a316.65,316.65,0,0,0,48.48,5.16,458,458,0,0,0,.48,52.92c1.44,20.76,3.6,41.52,6.6,62.16q5.76,40.86-26.4,64.32a47,47,0,0,1-23.52-4.32,15,15,0,0,0-5.88-4,62.91,62.91,0,0,1-5.52-31c-.6-1.8-1.8-2-3.48-.72q-6.3,22.86,5.4,44.64a62.58,62.58,0,0,0,18.72,9.48,18.29,18.29,0,0,0,13.8-.72A48.34,48.34,0,0,0,110,248.52,111.51,111.51,0,0,0,116,205q-3.42-60.66-9.72-119.64l40.32-1.44,1.08.84,1.2.48,1.08-.12.72-.6a7.16,7.16,0,0,0,1.2-3.24V80.4l.12-.84v-.84l-.12-1.56-.12-1.68a8.61,8.61,0,0,0-1.08-3.24C150.36,71.88,150.12,71.76,149.88,71.88Zm51.6,17.28a120.84,120.84,0,0,0-10,43.68L190.2,163l-1.08,30.24-.84,30.36-.84,30.24-.6,32.28-.48,32.28-.24,32.28L186,382.8v32.4l.24,32.28c.12,10.68,0,21.48-.24,32.28-.36,14.88-.12,29.76.72,44.52,1.08,19.92,10.8,29,29.28,27.36,16.44-1.56,30.12-8.76,40.92-21.48A101.14,101.14,0,0,0,278.28,490a43.35,43.35,0,0,0,.36-20.76l-4.8,4.8c-.48-.6-.84-.84-1-.48a1.65,1.65,0,0,0,.12,1.32l.48.84Q263,514.2,228.24,531c-10.44,4.92-20.88,5-31.56.36a1516,1516,0,0,1-4.2-217.8L234.24,309a11.63,11.63,0,0,0-1.08-13l-40.44,7.8Q187,202.14,207.24,105.6c1.8-8.76,6.36-16.08,13.56-22.2,17.64-3,32,2.28,43,16,.12-17.28-9.36-27.24-28.44-30Q211.38,66.12,201.48,89.16ZM315.24,69.6l-2.52-.36q-40.32,40.86-32.28,106.2a282.75,282.75,0,0,1,.72,63.72,130.49,130.49,0,0,0,7,58.32,10.27,10.27,0,0,0,4.8,5.52l1.08.24,2.88.24h2.88a47.7,47.7,0,0,0,10.92-1.32c16.92-4.08,24.72-13.44,23.4-28.2a2.53,2.53,0,0,0-.6-1.56c-10.44,10-23.4,15.84-38.88,17.4a341.77,341.77,0,0,1-5.28-92.16l32.4-2.52a14.78,14.78,0,0,0-.12-13.8l-.24-.36a78.59,78.59,0,0,0-31.56,3.84Q283.5,133,306,91.8c2.52-4.44,6.48-6.48,12.12-6,5.16.24,9.36,1.08,12.6,2.64C331.56,77.4,326.4,71.16,315.24,69.6ZM417.72,84.48A34.67,34.67,0,0,1,440.4,98.64,160.73,160.73,0,0,1,468.6,168a131.12,131.12,0,0,1-2.76,54.24q-15.3,57.06-73,74.64c-.12-32.28.36-64.32,1.44-96.36Q395.94,142,394,84.84A61,61,0,0,1,417.72,84.48ZM389,76.2a16.26,16.26,0,0,0-1,4.68,6.24,6.24,0,0,0,1.8,4.56,117.08,117.08,0,0,0-1.92,20L387,234.6c-.48,43.08-.6,86-.24,129.12s-1,85.56-4,127.32l-.12-.72-3.6-28.44a9.48,9.48,0,0,0-.72,6,162.12,162.12,0,0,1,1.56,44.4c-1.2,12,.6,22.2,5.4,30.48a2.23,2.23,0,0,0,.84-1.44,786.14,786.14,0,0,0,6.12-82.68c1.08-42.84,1.32-85.92.84-129l-.24-17.76a101.92,101.92,0,0,0,32.52-14.4q45.54-30.24,48.6-84.6a267.72,267.72,0,0,0-11.4-94.56q-12.42-40.5-53.52-47.4l-15.6,3-.12-1.68-.6,1.8-2.64.36Z" transform="translate(0.19 0.19)"/></svg>