<svg id="Layer_1" data-name="Layer 1" xmlns="http://www.w3.org/2000/svg" viewBox="0 0 561.24 545.64"><defs><style>.cls-1{fill-rule:evenodd;}</style></defs><path class="cls-1" d="M177.84,506.4c0,17.28-.12,27.6-.48,31-.36,6.36-2.16,18.6-5.28,37a11.08,11.08,0,0,1-2.4-7.44c0-7.32.48-16.92,1.56-28.56s1.68-22.44,1.68-31.92l-1.08-16.8-1.08-16.8c0-2.64.6-4.68,1.92-6.12,2.52,1.56,4.2,7.44,4.8,17.64ZM321.12,434c1.32-1.92,4-3,7.92-3.36l37.92-.6c10-3.36,16.56-4.32,19.68-2.76,1.44.84,2.16,2.88,2.16,6.24,0,2.4-.12,4-.48,4.56a3.57,3.57,0,0,1-2.52,1.32,80.68,80.68,0,0,0-17.76,4.2l-38.16.48-3.72.84H326c-.12,5.64-.84,17.4-2.28,35.4l11.4-1.08,19.92-1.56v-.48c11.76-1.08,19.44.12,23.16,3.84a6.83,6.83,0,0,1,1.92,6.6,10.17,10.17,0,0,1-.48,3.48,10,10,0,0,1-1.92,3.12,19.12,19.12,0,0,1-4.2-2.16,11.08,11.08,0,0,0-5.76-1.68l-7.68.24-6.12.6c-12.24-.36-19.08.12-20.64,1.32l-2,1.2-8.64.72-.24,2.64q-4.32,52.38-8.52,71.76a15.68,15.68,0,0,1-1.92-5.4,34.83,34.83,0,0,1-.48-5.76c0-9.24,1.2-27.84,3.48-55.56,2.16-25.68,4.44-44.64,6.84-57a9.38,9.38,0,0,1-1.68-5.76A11.68,11.68,0,0,1,321.12,434Zm-45.36-72.36,19.68-.84v-.6l3.48.12a419.77,419.77,0,0,1-12.12-48,247.49,247.49,0,0,0-10.56,25.56c-1,2.76-3.6,10.8-8,24.36Zm12.72-69.36q4.14,17.46,22,72c10.44,32.52,15.6,49.8,15.6,51.84a10.56,10.56,0,0,1-2.4,6.84,436.43,436.43,0,0,1-20.4-49.44l-17.4.84-12,1.08-10-.36c-6.12,16.92-12.36,30.72-18.72,41.16-2-.36-3.24-1.2-3.84-2.76a15.66,15.66,0,0,1-.24-3.24c0-2.4,3.24-11.64,9.84-27.72l13.2-32,11.16-30.72C279.72,307.92,284.16,298.68,288.48,292.32ZM162.6,227.16c0,12.36-1.8,29.64-5.4,52V352l.24-.12a14.52,14.52,0,0,1,1.92,7.32,14.21,14.21,0,0,1-1.92,7.32h-.24v23c1.08,6.48,1.32,15.12.6,25.92l-1.68,26v46.2l-3.12,32c-1.2,13.32-3.12,24-5.76,31.92q-3.6-2.52-3.6-11.16c0-1.56,1.08-10.08,3.12-25.56,1.56-11.52,3-22.44,4.56-32.88V436.56l.6-46.2.24-23.64-6,.24-12,.84-13.8-1c-10.44.12-19.2,1.92-26.16,5.4L88,372v24.84c-.36,2.16-.72,5.52-1.08,10.2s-.72,7.92-1.08,10.08v53.52A44,44,0,0,0,85,477a9.93,9.93,0,0,1-2.64,5.64,9.13,9.13,0,0,1-3.6-7.68q0-3.24,2.16-9.72V412.56c.36-2.28.72-5.64,1.08-10.2s.72-8,1.08-10.2V327.24c.6-5,1.44-19,2.76-41.76,1-16.68,2.52-30,4.56-39.72.72,1.32,1.2,5,1.56,11.16l.36,10.8c0,3.48-.6,14.28-1.92,32.4l-2.4,31v25.2h1.32a1.38,1.38,0,0,1,1.56,1.2,1.38,1.38,0,0,0,1.56,1.2l21.72-2.4,38.16-2.88.12-19.08c0-31.2.12-50.88.48-59,1.08-23,3.6-41.52,7.8-55.44A14.21,14.21,0,0,1,162.6,227.16ZM80.4,208.44c10,.72,16.68,2.64,20.4,5.88a9,9,0,0,1,3.36,7.44,10.07,10.07,0,0,1-2.4,6.48,15.78,15.78,0,0,1-3.24-1.8l-3.24-2a25.12,25.12,0,0,0-4-1.92c-2-.6-6.24-1.08-12.6-1.56-25.8-1.8-43.8,12.12-54,42q-9.54,27.9-8.16,63.24c.36,8.28-.36,25.68-1.92,52.08C13,406.8,12.12,425.4,12.12,434.16c0,3.48.48,10.44,1.56,20.88,1.56,15.72,3.6,30.24,6.12,43.32Q32,560.28,55.44,560.28c17.88,0,33.48-14.88,46.56-44.76a274.2,274.2,0,0,0,11.4-31.32c3-10,4.8-15.12,5.16-15.36a33.2,33.2,0,0,1,1.8,11.76q0,3.6-3.24,16.56a196.14,196.14,0,0,1-10.56,31.68Q87.3,573.48,58.44,573.48q-30.06,0-43.56-68.64a401.35,401.35,0,0,1-6.36-47.76l-1.2-22.92c0-12.24.6-32.28,1.92-60.12l2.64-55.2,1.2-28.32a255.33,255.33,0,0,1,3.12-29.28c1.32-7.08,4.56-14.64,9.84-22.68a95.29,95.29,0,0,1,18-20c7.08-6,13.68-10,20-11.88C71,204.48,76.44,205.08,80.4,208.44Zm62.52-166.2-50,.24c1.68,10.56,3.6,27.24,5.64,50C100.8,118.44,102,134,102,139.2q0,16.56-5.4,28.08-10.44,22-38.16,22c-16.44,0-27.24-7.2-32.16-21.72a58.28,58.28,0,0,1-2.88-15.24l.12-7.56c0-3.48.12-5.76.24-6.84.24-3.72,1-6,2.16-7,1.32,3,2.4,7.56,3.36,13.68,1.08,7.8,1.92,12.72,2.4,14.76C34.44,170.52,40.56,176,50,176c20.76,0,34.8-5.52,42-16.44,3.48-5.16,5.16-12.12,5.16-21,0-7.56-1.44-24.84-4.44-52C90,60.12,88.56,45.48,88.44,42.48l-39.72.24L39.6,44.28l-10.32,1.2q-5.76,0-5.76-7.56a8.69,8.69,0,0,1,0-2.52,3.3,3.3,0,0,1,2.16-2.28c3.24-1.68,11.28-3,24.12-3.84l92-.6a5.54,5.54,0,0,1,2.88,3.24,10.41,10.41,0,0,1,.6,3.36A11.13,11.13,0,0,1,142.92,42.24Zm140.16-3c5.64,4.08,9.12,7.08,10.56,9s2.16,4.56,2.16,8a14.21,14.21,0,0,1-1.92,7.32q-1.44-.72-5.76-5L281.4,52.2l-8.88-1.08C258.24,49.32,246.12,57.6,236,76a149.72,149.72,0,0,0-9.12,21l-5,13.68A140.5,140.5,0,0,0,211.68,141l-5.76,30.6Q196.74,218.76,188.16,281l45.6-.36,4.56-.24c2.52.12,3.84.24,4.08.6l12.48.48a10.6,10.6,0,0,1,1.32,9.6l-1.8,3.12L186.72,294l-.24-.12v42.36A283,283,0,0,0,185.4,365l.72,30.12c.84,22.92,2.4,43.8,4.68,62.88q10.62,90.36,36.72,90.36c16.2,0,29.16-6.72,38.88-20A74.58,74.58,0,0,0,275,512.64l4.2-11.16a130.8,130.8,0,0,0,7.44-23.76c3-13.32,4.92-21.12,5.52-23.28a12.51,12.51,0,0,1,2.52,8.16c0,8.4-1.8,18.36-5.28,30A195.58,195.58,0,0,1,276,525.12q-8.46,16.2-17.64,25.92c-6.6,7.08-12.6,10.56-18.12,10.56-9.12,0-16.32-1-21.72-3a25.4,25.4,0,0,1-12-9.12c-2.4-3.48-4.56-8.52-6.36-15.12l-5.28-21.24q-3.78-14.94-5.76-24.48a138.13,138.13,0,0,1-3.24-25c-.6-22.92-1.8-42.12-3.36-57.84a390.47,390.47,0,0,1-2-40c0-16,.36-27.84,1.08-35.4V288.24q11-78.66,20-127.2c5.88-32,14.52-59.88,25.68-83.76,15-32,30.6-45,46.8-38.64Zm86.16,268.92c-13.68-.24-20.64-.48-21-.6l-14.88,1-6.48.84-2-.12c-.12-.36-.48-.6-1-1a34.51,34.51,0,0,1-.48-5.64,15.24,15.24,0,0,1,.6-4.08,7.13,7.13,0,0,1,1.8-3.24l14.16-.48,10,.24,39.72-.24q17.28-5.4,22.32-4.32a3.34,3.34,0,0,1,2.52,2.16,11.54,11.54,0,0,1,.36,3.6,11.94,11.94,0,0,1-.48,4.44,4.78,4.78,0,0,1-2.88,2.16c-6.36,1.32-13.68,3.12-21.84,5.4l-12.72-.12v1.2c0,10.32-2.16,28.68-6.48,55.2v48l-.6,2.76a5.59,5.59,0,0,1-3.48,3.12,10.4,10.4,0,0,1-1.8-6.48,20.39,20.39,0,0,1,1.08-6.48v-47l3.12-30.6c.84-7.56,1.68-14.16,2.52-19.68Zm45-155.52a11.53,11.53,0,0,1,.6,2.76c0,5.16-6,20-17.88,44.52L404.28,236c4.2,20.28,6.24,31.44,6.24,33.36l-.12,4.08a5.7,5.7,0,0,1-2.88,4.32l-8.4-35.16c-3.6-15.24-5.64-26.64-6.24-34.44l-13.44,26.28-.84-.36c-1.8,21.12-3.24,33.48-4.08,37.08-1.56-2.28-2.4-5.4-2.4-9.36q0-60.3,7.32-111.12c1.56.12,2.64,1.2,3.36,3.24a18.32,18.32,0,0,1,.6,4.92c0,10.08-1.2,30.12-3.6,60l9.72-22.8c9-20.28,16.2-36.24,21.84-47.76A11.37,11.37,0,0,1,414.24,152.64ZM384.48,45.12c0,8.28-.36,18.6-1.08,30.72h.12l3.12,1.8c6.6,0,12.72-2.28,18.48-7,4.92-4,7.32-7.08,7.32-9.36,0-3.48-1.56-6.84-4.68-10.2-4-4.32-9.24-6.48-16-6.48ZM364,49.92A10.55,10.55,0,0,1,362,56l-4.2-1.68a11.35,11.35,0,0,0-4.2-1.08Q320.52,53.28,306,86a144.4,144.4,0,0,0-8.52,27.72c-1.32,6.12-3,14-4.92,24-1.32,4.92-2.4,10-3.36,15.12,3.12-.36,7.44.24,13.08,1.68l40.32.48a10.6,10.6,0,0,1,1.32,9.6L342,167.76l-20.4-.24c-13.68-.12-20.64-.36-21-.6l-13.8-.48c-.84,4.92-1.44,9.72-1.92,14.64a394.28,394.28,0,0,0-2.16,43.32,56.83,56.83,0,0,0,4.44,22.8C293,261,303.48,268,318.48,268c11.64,0,22.08-7.56,31.08-22.56,2.4-4.08,5.16-9.6,8.4-16.68,2.64-5.88,4.32-9.12,5.16-10a11.12,11.12,0,0,1,1.92,6.48c0,11.76-5.28,24.24-15.72,37.32A75.22,75.22,0,0,1,335.76,276c-4.8,3.48-8.88,5.28-12.12,5.28q-31,0-41.4-27.36a63.41,63.41,0,0,1-4.08-19.2l-.24-9.6c0-19.32.6-35.4,1.92-48.24a420.49,420.49,0,0,1,8.88-51c2-11.4,3.6-19.8,4.8-25.44,2-10,4.92-18,8.52-24.12,12.84-22.2,26.76-34.32,42-36.6A22,22,0,0,1,358.44,42C362.16,44,364,46.68,364,49.92Zm48-6.72a27.67,27.67,0,0,1,6.12,17.64,33.63,33.63,0,0,1-4.56,16.32C408.36,86.4,400,91,388.56,91a17.21,17.21,0,0,1-6.12-1l-.24,1.56c-1.8,23-3.84,37.92-6.12,44.52a21.7,21.7,0,0,1-1.8-9.36c0-19.44.36-36.12,1.08-50.16.84-15.12,2.16-26,3.72-32.76a10.62,10.62,0,0,1-.48-3.48q0-6.48,6.12-8.28c3.84-1.2,8.4-.84,13.56,1.2A32.66,32.66,0,0,1,412,43.2ZM553.08,74.64c-.84-.6-1.8-2.52-3.12-5.64a53.9,53.9,0,0,0-4.32-8.76C540.48,52.68,531.72,49,519.24,49q-44.1,0-59.52,24.36c-4.68,7.32-7,16.44-7,27.24,0,11,6,26.88,18,47.4,2.76,4.68,9,14.76,18.6,30.12q13.14,21.06,21.24,35.28,26.1,45.9,39.84,88.92a385.79,385.79,0,0,1,18.12,118,212.34,212.34,0,0,1-14,73.56Q542.1,524.58,520.32,542q-26.82,21.78-66.84,21.72-32.58,0-54.24-24.36a81.34,81.34,0,0,1-11.76-16.8c-2.28-4.44-3.48-7.08-3.48-7.92,0-3.72.36-6.24,1.08-7.68,1.32-2.52,4.2-5.28,8.88-8.16a9.59,9.59,0,0,1,2.52,6.48,11.34,11.34,0,0,1-.84,4.92,11.84,11.84,0,0,1-4.92,4.8l5,7.08a123.69,123.69,0,0,0,9.36,12C414.6,545,423.24,550.56,431,550.56q27.18,0,42.48-2.16c11.64-1.68,21.36-4.68,29.28-8.88,8-4.44,15.72-10.92,23.16-19.44,6.6-7.56,14.52-18.84,23.88-33.72,4.2-6.6,7.68-17.4,10.32-32.4a191.43,191.43,0,0,0,3.48-33.72,355.9,355.9,0,0,0-18-111.84c-9-27-22.2-56-39.84-86.88-4.56-7.92-11.64-19.92-21.36-35.88-8.52-14-14.64-24.6-18.48-31.56-12.12-22.08-18.12-40-18.12-53.52,0-20.28,5.64-36.12,16.8-47.64,9.6-10,22-15.6,37.08-17.16,13.8-1.32,26.16,1,37,7.08q16.92,9.54,16.92,24.84A11,11,0,0,1,553.08,74.64Z" transform="translate(-7.32 -28.68)"/></svg>