<svg id="Layer_1" data-name="Layer 1" xmlns="http://www.w3.org/2000/svg" viewBox="0 0 425.57 323.38"><defs><style>.cls-1{fill-rule:evenodd;}</style></defs><path class="cls-1" d="M154.2,317.4a294,294,0,0,0,58.68,2.76c-1.44,20-3.84,40-7.08,59.76-2.28,13.8-.72,25.44,4.92,34.8,1.44-19.8,3.12-40.08,5.16-60.84A159.88,159.88,0,0,1,219,334q3.42-16-1.44-27.36l-64.2,3.48-.24,1.68A9.21,9.21,0,0,0,154.2,317.4ZM189,127.08q-6.66-33.3-40.8-32.88c-15,2.64-27.36,10.08-37.32,22.2a197.92,197.92,0,0,0-43.32,99.48,378.77,378.77,0,0,0,3.72,127A117.94,117.94,0,0,0,100,400.08c14.28,15.72,30.72,18.48,49.08,8A219.66,219.66,0,0,0,187.56,380c12.84-11.76,19.32-25.2,19.44-40.2-7.68,9.24-16,18.6-24.72,27.84A131.36,131.36,0,0,1,144.72,395q-23.58,11.7-41.4-7.32a105.92,105.92,0,0,1-26.4-50.52,319.58,319.58,0,0,1-2.16-125.4,183.17,183.17,0,0,1,36.6-81.6c9-11.52,20.4-18.48,34.44-20.88q32.76-5.58,41.64,24.84l-.24.84-.24.84-.12,1.68.12.72C189.24,135.12,189.84,131.4,189,127.08ZM363,349.8l-.48-3.72a351.45,351.45,0,0,1-39.72,43.56,31.91,31.91,0,0,1-19.68,8.52c-16.68,1.32-27.36-6.48-31.92-23.52a343.66,343.66,0,0,1-12.12-97.32,288.85,288.85,0,0,0,72.36-17l-.36-10.08a508.73,508.73,0,0,0-72,14.88,267.55,267.55,0,0,1,6.6-64,178.56,178.56,0,0,1,18.84-48.24C294.72,135,310,128.16,330,132.12q13.14,2.7,18.72,15.12a32.93,32.93,0,0,0-4.44-18,24.29,24.29,0,0,0-11.52-10.44c-15.24-6.48-28.44-3.6-39.84,8.64A120.61,120.61,0,0,0,264.6,178.2a256.73,256.73,0,0,0-6.36,29.16,330.38,330.38,0,0,0-4.08,43.44c-.36,14.28-.84,28.56-1.56,42.72a254.82,254.82,0,0,0,12.6,93.6,38.78,38.78,0,0,0,5.76,11c1.92,2.64,4,5.16,6,7.68A38.51,38.51,0,0,0,291.48,416a21.83,21.83,0,0,0,15.12.36,70.63,70.63,0,0,0,22-12.24,148.88,148.88,0,0,0,27-29.28A34.11,34.11,0,0,0,363,349.8ZM478.32,158.28l4.8,1.44c-6.48-15.48-18.48-24.24-36.12-26-22-2.28-36.84,8.52-44.88,32.28A467.26,467.26,0,0,0,377.52,323a125.83,125.83,0,0,0,17.64,63,28,28,0,0,0,9,9.36,16.52,16.52,0,0,0,2.88,1.68q1.26.54,2.88,1.08l3.12,1a55,55,0,0,0,14.76,1.2,71.19,71.19,0,0,0,29.88-8q29-15.12,31.8-47.28Q462.84,376.68,422,381.36q-12.42,1.62-20.52-9.72-30.42-43.2-15.72-98.16,35.82,2.16,60.72-18.48c1.68-1.32,1.32-3.12-1.2-5.28l-58.2,12A334.28,334.28,0,0,1,415.8,159.84c10.68-12.24,24.6-16.44,41.76-12.72A41.32,41.32,0,0,1,478.32,158.28Z" transform="translate(-63.91 -94.2)"/></svg>