<svg id="Layer_1" data-name="Layer 1" xmlns="http://www.w3.org/2000/svg" viewBox="0 0 544.03 469.02"><defs><style>.cls-1{fill-rule:evenodd;}</style></defs><path class="cls-1" d="M116.28,59.28c-14.16-10.2-28.08-10.08-41.76.6A55.4,55.4,0,0,0,52.8,98.76a107.74,107.74,0,0,0,3.72,42.36A230,230,0,0,0,72,180.36c6.12,11.88,11.88,23.76,17.52,35.76,6.6,14.28,12.48,28.68,17.88,43.2,5.4,14.76,10.2,29.64,14.52,44.76a445.83,445.83,0,0,1,10.2,45.12c2.64,15.36,4.68,30.72,6,46.2a135.31,135.31,0,0,1-4,45,116.4,116.4,0,0,1-18.84,39.24l-8.16,10.08c-21.72,13.08-44.76,17-69.36,11.64l-10.2-3-2.76-3.24a241.93,241.93,0,0,1-1.08-52.68l-2.52,5.16q-12.78,31.68,6.12,62.28c3.36,5.64,8.64,8.88,15.72,10a93.58,93.58,0,0,0,48-5.76,55.59,55.59,0,0,0,12.6-7.32,64.29,64.29,0,0,0,9-8.16,152.58,152.58,0,0,0,10.2-12.72,113.91,113.91,0,0,0,14-28.08,102.48,102.48,0,0,0,5.28-26,276.31,276.31,0,0,0,.36-34.56A460.85,460.85,0,0,0,138,350.76a439,439,0,0,0-32.52-112q-23.58-53.46-44-108c-6.24-16.56-4.92-32.28,4-47,9.24-15.6,22-20.52,37.92-14.88s26.16,16.2,31,32.16l2,7.44c3.24-15.72-1.32-30-13.92-42.6ZM340.8,166q4.5,64.26,3.6,129-.72,64.62-2.52,129c-.6,21.48-1.92,42.72-3.84,64-1,9.84.6,17.64,4.8,23.52A312.85,312.85,0,0,0,348,457q.54-64.62,1.92-129c.84-42.84.36-85.92-1.68-129l-6-128.28a213.1,213.1,0,0,0-3.72,46.44C338.88,133.56,339.72,149.88,340.8,166ZM250.2,92.28q2,64.44,2.16,129.12l.24,53.76q-33.48,4.86-66.84,7.2l-.6-32.88-1.68-60.84q-2.34-64.62-3.6-128.28C175.44,80,174.24,100.92,176,123q5.22,64.26,5.16,128.88L181.32,381c.12,43.32-.6,86-1.92,128.16,1.92.72,3-.12,3.12-2.4a1167.55,1167.55,0,0,0,4.8-128.28L186,293.16a103.42,103.42,0,0,0,41.28-2.52l.48-.36L229.2,289,252.6,287l.24,63.36q.18,65.7,2.28,125.76c-.84-.6-1.56,1.56-1.92,6.48-.72,10.68,1,19.92,4.92,27.72a228.93,228.93,0,0,0,3.36-61c-3.24-42.6-4.8-85.68-4.56-129l.12-35a11.1,11.1,0,0,0,0-8.76q0-42.66-.36-85.32c-.36-43.2-1-85.92-2-128.28A74.38,74.38,0,0,0,250.2,92.28Zm43.68-16.92C304.8,85.2,310,98,309.48,113.76a56.81,56.81,0,0,1-16.44,39,60.72,60.72,0,0,1-11.16,9.36L283,73.56Zm-13.32-8.52a15.1,15.1,0,0,0,.36,5.64l.24.84c-2,19.32-3.6,39-4.68,58.92-2.16,42.84-4.68,85.68-7.56,128.28q-1.08,18.18,4.32,31.68,3.78-49,7-98.88l1.08-18a17.5,17.5,0,0,0,7-4.2l.36-.36a150.5,150.5,0,0,0,6.6,42.48c4.92,16.32,9.36,32.88,13.08,49.56A94.77,94.77,0,0,0,320,292.2a3.21,3.21,0,0,0,.84-3q-12.6-60.84-29.4-121.32C312,146,319.32,120,313.2,89.76c-3.48-17.16-13.8-25.68-30.72-25.68A3.11,3.11,0,0,0,280.56,66.84ZM472.8,74.76a153.73,153.73,0,0,0-6.72,33.36c-4.2,42.48-8,85.08-11.76,127.68s-7.92,85.08-12.6,127.44c-3.48,31.08-6.12,62.28-8.16,93.36l-1.32-7.2Q419.1,386.76,411,323.16l-16.08-127a1091.57,1091.57,0,0,0-23.4-125.52c-.72-.12-1.08,0-1,.6,3.24,30.36,7.08,60.72,11.28,91.2L399.36,289.2q8.46,63.36,18.84,126.36c3.48,21.12,6.12,42.24,7.92,63.48,1.08,11.64,3.84,22,8.4,30.72a163.81,163.81,0,0,0,1.68-26.64,189.67,189.67,0,0,0,4.56-30.6q4.5-63.9,10.2-127.56,5.94-63.72,12.36-127.32,6.48-64.08,13.2-125.88A3.83,3.83,0,0,0,472.8,74.76ZM528.12,77l-13-.24-3.72,1.68a16.13,16.13,0,0,0-9.84,8.28,109.7,109.7,0,0,0-11.88,47.16c-1.32,43.08-.84,86,1.56,129.12a992.66,992.66,0,0,1-.84,128.16A442.11,442.11,0,0,0,494.16,488c2.16,14.52,11.64,20,28.56,16.56a71.35,71.35,0,0,0,31.2-28.32c6.84-11.64,8-22.56,3.48-32.76a15.54,15.54,0,0,0-4.44,6.12,13.73,13.73,0,0,0-1.08,5.16c-.12.12,0,.24.36.24l-5.76,11Q531.36,494.16,502,485.16a303.81,303.81,0,0,1-6.12-59.28c0-19.92.24-39.6.84-59.16q1.08-37.8,1-75.48a89.89,89.89,0,0,0,33-.84l.24-.84c2.28-5.16,1.44-9-2.76-11.64-10.44.84-20.64,2.16-30.48,3.72-.12-14.76-.24-29.4-.6-44L496,197.76c-.6-24.6-1-49.2-.84-73.8S508,88,533.28,89.88A28.22,28.22,0,0,1,547,99.6a6,6,0,0,0,4.8,2.64c2.52-5.88,1.56-11.16-3-15.72a40.25,40.25,0,0,0-14.64-9.12Z" transform="translate(-16.08 -51.75)"/></svg>