<svg id="Layer_1" data-name="Layer 1" xmlns="http://www.w3.org/2000/svg" viewBox="0 0 475.07 388.55"><defs><style>.cls-1{fill-rule:evenodd;}</style></defs><path class="cls-1" d="M278.64,292.92c.6,16.44-6.84,28.32-22.08,35.88l-4.08-67.56C269.28,264.36,278,274.92,278.64,292.92ZM250.8,251.28a2.12,2.12,0,0,0-1.68,1.08l-.48.6a12.19,12.19,0,0,0-.72,4.08,7,7,0,0,0,.36,2.28c-.36,6.12-.6,12.12-.48,18,.84,42.6.12,85.44-2.28,128.28a291.83,291.83,0,0,1-3.6,32.28c-2,12.72-.6,23.28,4.56,31.56A727.74,727.74,0,0,0,256,378.6q.9-17.82.72-35.64l3.6.12,1.92-1.2c-1.56,14.4.36,29.4,5.64,45a425,425,0,0,1,14.4,55C284.4,453.6,289,463.56,296,471.6a15.36,15.36,0,0,0,2.28-14.76q-18.54-58.14-33.6-116.76c14.52-11.16,22.08-26,22.68-44.88q1.26-36.9-33.12-45.12l-2.52.72ZM66.12,165.84q-8.1-23.58,7.2-43.56c9.84-12.72,22.8-17.16,38.76-13.44,16.8,3.84,25.8,14.16,26.88,30.84a22,22,0,0,0,2.4,8.88c5.28-3.24,7.32-8.52,6-15.6-3.12-16.68-12.36-28.68-27.72-35.76-24.24-11.4-42-5.4-53.16,18.24q-24.12,51.3,13,98.4a336.27,336.27,0,0,1,48.84,85,259.49,259.49,0,0,1,18.24,103.08,62.75,62.75,0,0,1-13,36.84,56.74,56.74,0,0,1-17.16,15.36,41.46,41.46,0,0,1-12.72,5,71,71,0,0,1-16,1.08,74.38,74.38,0,0,1-19.2-3.6A89.25,89.25,0,0,1,53,449.76a26,26,0,0,1-8.88-7.56c-6.12-8.28-7.92-18.12-5.4-29.4a9.13,9.13,0,0,0-1.92-8.28c-8.76,14.16-8.88,28.56-.6,43.2q15.3,27,46.32,31.68c20.88,3.24,37.68-4,50.28-21.36,16.44-22.44,24-48.24,22.92-77.16a267.11,267.11,0,0,0-17-83.88A351.16,351.16,0,0,0,87.6,204.36,155.31,155.31,0,0,1,66.12,165.84ZM226,102c-2.28,21.48-3.6,43.08-4.2,64.92q-1.44,46.8-1.44,93.48l-.6-.12a167.4,167.4,0,0,0-42.12,9.36l-.24-45.6.36-128.28a276.05,276.05,0,0,0-5.52,52.8q-1.08,64.08-.24,128.28c.6,43.32.48,86.28-.12,129A169,169,0,0,1,168.48,438c-2.4,12.48-1.44,23.16,3,32a5.51,5.51,0,0,0,2.88-4.2,689.92,689.92,0,0,0,5.16-112.68q-1.26-36-1.8-72a167.79,167.79,0,0,0,42.72-7.32l.12,22.2c.36,43.08.12,86.16-.72,129a92.55,92.55,0,0,1-2.52,20c-2.4,10-.84,18,4.56,24.12a39.68,39.68,0,0,0,5.64-21.12c.48-42.84.72-85.92.72-129,0-32,.36-64.32,1.2-96.6,1-43.32,1.08-86.16.24-128.28A11.49,11.49,0,0,0,226,102Zm98.64-3.36A177.85,177.85,0,0,0,317,148q-.9,64.62-4,129.12c-2,42.6-3.36,85.44-3.72,128.28a289.68,289.68,0,0,1-2.16,32.28c-1.56,12.12-.12,22.92,4.44,32.4a2.92,2.92,0,0,0,1.2-1.56,232.35,232.35,0,0,0,4.92-49.32q-.18-64.62,2.4-129,2.52-64.08,4.08-128.28c.6-22.2,1.2-43.56,1.8-64.2A1.21,1.21,0,0,0,324.6,98.64ZM496,113.16a51.72,51.72,0,0,0-19.8-12.24A23.82,23.82,0,0,0,462.84,111a152.39,152.39,0,0,0-26.64,80.52c-1.92,42.84-3.12,85.8-3.72,129.12-.6,37.08-.12,73.92,1.2,110.4.84,23.52,12.12,38.88,33.6,46a83.76,83.76,0,0,0,17.88-18.36,139.31,139.31,0,0,0,11.4-19c6.72-14,7.92-27.24,3.48-39.84a12.09,12.09,0,0,0-4.32,7.32q-6.3,33.66-32.28,52.32L456.36,455c-6-4.2-9.48-9.72-10.32-16.68A833.14,833.14,0,0,1,438.6,309.6l.48-22.44,2.52.48a180.88,180.88,0,0,0,33-8.88l.36-.84a11.84,11.84,0,0,0-1.44-12.24,255.2,255.2,0,0,0-34.08,10.68Q440.7,231,443,186.12q2.34-44.1,34.2-70.56a19.88,19.88,0,0,1,4.44,1.68,36.93,36.93,0,0,1,17.52,16.92l.48.84a3.38,3.38,0,0,0,3.6,1.68,7.13,7.13,0,0,0,1.56-7.2,47,47,0,0,0-8-15.6ZM358.56,197q12.6,62.82,20.52,126.48,7.92,63.18,16.44,126c1.32,9.6,4.32,17,9.24,22.32a7.86,7.86,0,0,0,2.16-6.36l-.84-9.24,1.44,2.88a4.43,4.43,0,0,0,.84-1.68A189.17,189.17,0,0,0,412,424.2C413,381.6,414.48,338.88,416,296s2.52-85.8,2.76-129.12c.12-22.08,0-43.44-.48-64.08-6.6,20.64-9.6,43.08-8.76,67.44q2,64.26-1.08,128.16L402,423.24l-.6-3.48q-9.9-63.18-19.32-126.6c-3.48-23.52-7.56-46.92-12-70.08-7.8-40.44-14.4-80.76-19.56-121l-.72-5.28-.36.12v.12l-.12.12v.12a54.45,54.45,0,0,0-2.88,20.76q3.06,63.9,2.16,128.16-.72,64.62-3.48,129.12a481.71,481.71,0,0,1-7.56,64.44c-2.28,12.36-1.08,23,3.84,32a643.9,643.9,0,0,0,12.84-117.6l1.92-129.12c.12-14.52,0-29-.36-43.44Z" transform="translate(-30.15 -91.61)"/></svg>