<svg id="Layer_1" data-name="Layer 1" xmlns="http://www.w3.org/2000/svg" viewBox="0 0 576.6 580.08"><defs><style>.cls-1{fill-rule:evenodd;}</style></defs><path class="cls-1" d="M409.08,487.8c5.88,13.8,5,27.24-2.4,40.32l-3.24,1.68-1.32-41.16Zm-7.68.84c-1.32,13.56-2,27.6-2.4,42.12l-3.48-.48a5.88,5.88,0,0,0,.36,6.84l2.88.6v4.56c-.12,20.28.48,39.48,1.92,57.6a.91.91,0,0,0,.48-.84c1.56-20.52,2.28-41.16,2.28-61.8l3-2a204.73,204.73,0,0,0,24.6,59,2.11,2.11,0,0,0,.72-2.28,486.9,486.9,0,0,0-24-57.84,21.47,21.47,0,0,0,6.12-9.84c4.68-15.36,3.12-29.28-4.56-41.88-6.36-1.32-10.32.36-11.88,4.92A11.82,11.82,0,0,0,401.4,488.64ZM303,194.52a15.27,15.27,0,0,1,6,7,183.19,183.19,0,0,1,12.84,69.36q0,63.9-4.32,128.16a750.61,750.61,0,0,1-19.44,126.6q-8.28,33.84-40.2,38.28c-13.68-5.52-21.24-15.84-22.8-31.08q-5.4-55.26-8.52-111.24a804.37,804.37,0,0,1,2.76-128.4,271.63,271.63,0,0,1,13.92-62.76,53.81,53.81,0,0,1,3.36-8c3.72,14.76,7.56,29.28,11.52,43.68a72.92,72.92,0,0,0-1.32-35.52l-4.8-17.4c7.56-10.68,18.12-17.76,31.56-21.24A46.88,46.88,0,0,1,303,194.52ZM241.8,86c-2.88,11.64-8.28,20.28-16.2,26l-1.32-5.16.12,6.12a33.8,33.8,0,0,1-4.56,2.52c-.72-28.2-1.56-56.16-2.64-84.12q22.14,1.8,25.92,25.56A72,72,0,0,1,241.8,86ZM216.72,20l-.48,3.84a2.85,2.85,0,0,0-1.2,1.8,9.74,9.74,0,0,0,.12,4.92l.24.84a391.63,391.63,0,0,0-1.56,54.72l1,31.56-1.8.48-.48,2.52a16.15,16.15,0,0,0,.24,4.8l.24.84,1.92.48c.36,29.4,0,58.92-1.2,88.32A86.79,86.79,0,0,1,211.56,231c-2.52,9.6-1.68,17.52,2.52,23.64a625.77,625.77,0,0,0,6.6-106.32l-.48-21.48a11.3,11.3,0,0,0,5-1.92,164.67,164.67,0,0,0,2.88,18c5.16,24.24,10.56,48,16.44,71.4a92.55,92.55,0,0,0-6.6,15.36,251.38,251.38,0,0,0-10.8,49.68,861.82,861.82,0,0,0-4.56,128.28c1.56,42.84,4,85.56,7.08,128.4,1.08,16.32,8.16,28.44,21.24,36.48,9,5.64,17.52,5,25.56-1.56,16.2-13.44,26.4-30.48,30.84-51.24a803,803,0,0,0,16.56-126.84q3.24-64.62,1.68-129c-.24-10.92-.24-21.84,0-32.52.6-29.4-13-46.08-40.92-50.28A29.23,29.23,0,0,0,269,186.6,82.75,82.75,0,0,0,250,205.8Q238.62,164,228.12,122.4l2.28-3q21.42-33.12,14.4-70.08C241.8,33,232.44,24.48,217,23.88ZM190.56,33.72a221.11,221.11,0,0,0-2.52,38q1.44,64.62,4.56,129.12l2.76,54.84-57.48,2.16-2.28-98.76Q134,94.32,131.28,30.84c-3.24,5-4.56,11.16-4.2,18.24q3.6,56,4.56,112l2.16,129,1.56,101.88q-4.5-26.28-11.52-51.84A575.38,575.38,0,0,0,98,265.2q-26.1-61.74-50-124c-2.64-7-4.92-14-7-21.12Q28.62,75.3,47.64,33.6A17,17,0,0,1,62.4,30C82,33.72,94.08,45,98.76,64.08l.24-.72Q97.74,21.06,53,19.8a8.24,8.24,0,0,0-2.88,2.88Q22.08,71.28,38.28,126.84A877.3,877.3,0,0,0,83.4,248,604.42,604.42,0,0,1,124,367.2a476.43,476.43,0,0,1,11.76,89.4c-.24,15.48-.72,31-1.32,46.44a131.6,131.6,0,0,1-29.64,65.16,7.73,7.73,0,0,0-4.44,2.4l-1,.84a39.87,39.87,0,0,0-7.44,1.92,59.93,59.93,0,0,1-39.36,1.44q-27.72-8.46-31.68-38.16a74.18,74.18,0,0,1-.12-18.6,167.47,167.47,0,0,0-.24-43.2,79.23,79.23,0,0,0-7.8,27.48c-3,30.84,4.92,58,23.52,81.36a74.43,74.43,0,0,0,22,7c27.84,4.2,48.12-4.92,61-27.6a187.54,187.54,0,0,0,13.44-29.16l-1,13.44c-1,12.48.48,22.92,4.44,31.44a189.85,189.85,0,0,0,3.84-32.4c.6-15.48,1.08-31.08,1.32-46.8a211.24,211.24,0,0,0,1.8-39.12c-.36-7.68-1-15.36-1.68-23L141,417.24l-2.52-129-.48-24.6,58,4.2,3.12,61.2,6.48,128.28a1139.88,1139.88,0,0,1-1,128.16,3.47,3.47,0,0,0,3.72,2.52,127.4,127.4,0,0,0,5.16-41.4q-2-64.62-5-129.12l-5.88-128.16-1.32-28.56.36-2.64-.36-.72-.24-.6L196.56,161q-3.24-64.62-4.68-128.28A1,1,0,0,0,190.56,33.72Zm122.16-2.64a83.9,83.9,0,0,0-35,38.76q-17.82,39.06-7.44,80.64a32.27,32.27,0,0,0,18.84,13.08Q320.76,172,336,142a3.5,3.5,0,0,0-.24-3.72l-4.32.84A42.26,42.26,0,0,1,313,152.76c-11.88,4.56-22.32,2.88-31.56-4.92-11.4-9.72-14.88-22.32-10.2-37.68l65.64-11.64,1-4.44a10.75,10.75,0,0,0-10-4.32A170.3,170.3,0,0,0,272.52,103,130.81,130.81,0,0,1,289.68,61.8q15.66-24.66,38.16-13.2a23.08,23.08,0,0,1,7.32,5.64,22.81,22.81,0,0,0-4.08-12.6A24,24,0,0,0,312.72,31.08Zm140.64,362-2-.84c-16.68,17.4-23.76,39.12-21.48,65.16a333.67,333.67,0,0,1-.36,61.92,163.5,163.5,0,0,0,9.36,73.8L450,594.24c12.24-11,17-24.6,14.52-40.68L461,561.12c-2.16,11.76-8,18.72-17.76,21a4.23,4.23,0,0,1-3.12-.6c-6.84-27-8.16-55.2-4-84.36l14.52-7.68,9.48-1.32-1.08-9a53.56,53.56,0,0,0-22.92,10.2c-7.32-33-1.92-61.92,16.2-87a24.56,24.56,0,0,1,14.28,14l.12-.84C467.64,404.88,463.2,397.32,453.36,393.12Zm-48,1.68-3.84,3.84c-17.4-7.56-32.16-4.56-44,9-11,12.6-14.28,27.12-9.72,43.68a40,40,0,0,0,8,15.12l-13.56,91.8q-3.78-33.12-8.64-66.12a24.29,24.29,0,0,0-1.08-4L322,559l-7.08-73.56a278.44,278.44,0,0,0,7.68,94.2,6.67,6.67,0,0,0,1.08,2l9.84-64.44a182.15,182.15,0,0,0,9.12,61,448.23,448.23,0,0,0,14.76-109.92L373,479.76c-13.56,16.68-19.32,36.84-17.52,60.48l-2.52,2.52,2,1.2a95.07,95.07,0,0,0,5.16,47l13.56,3.24,19.2-26-.6-5.16c-5.4,1.92-9.84,6.12-13.32,12.48-3.6,7-9.24,9.36-16.92,7.32l-3.24-4.92.24-33.36a33.42,33.42,0,0,0,19.92-7.2,14.51,14.51,0,0,0,5.52-8.4l-25.2,9.24a77.37,77.37,0,0,1,13.8-49.56l4.68.84,6.48,12.72c1.92-3.72,1.8-7.92-.24-12.36a30.68,30.68,0,0,0-4.92-7.8c18,1.92,31.56-5,40.8-21,11.4-19.56,10.8-38.52-1.8-57.12a38.45,38.45,0,0,0-9-9.72Zm-39.84,11.88,3.48-.6a49.87,49.87,0,0,1,28.44.72l.24.48,1.2,2.64,2.76-.72,3.72,2.88,2.16.12,2.16-4.2c16.2,16.32,15.84,33.72-.84,52.32-8,9-18.36,12.36-30.84,9.84-15-2.88-23.76-12-26.28-27.48-2.16-13.08,1-24.36,9.48-33.84Zm40.92-132c-1.92,25.08-2.88,50.52-2.76,76.08a168.1,168.1,0,0,0,2.76,30l60.84-3c2.52-4,2.28-7.8-.84-11.4L408,367.8l.84-91.08Zm-20-71.88A932.34,932.34,0,0,1,386.52,331c-1.2,17.76-9,31.2-23.4,40.44-6.48,4.2-11.64,3.12-15.36-3q-13.68-22.14-13.32-49.32a1117.68,1117.68,0,0,1,8.4-127.44l-.24-.84a13.28,13.28,0,0,0-1.44-3.24,632.07,632.07,0,0,0-9.84,81.6,397.13,397.13,0,0,0,6,95.76,20.57,20.57,0,0,0,10.08,14.52c11.88,7.32,21.48,4.56,28.8-8.52q23-40.32,19.32-87.72a494.45,494.45,0,0,1-.6-64c.84-12.36-1.32-23-6.36-32A6,6,0,0,0,385.8,193Zm74-174.6a33.68,33.68,0,0,0-3.24,6.6A1194.1,1194.1,0,0,0,423.12,158,507.26,507.26,0,0,1,407,93.84c-1.8-9.24-5.52-16-11.16-19.92a4.22,4.22,0,0,0-1.2,2.28c-4,24.6-8.76,48.72-14.28,72.6a81.64,81.64,0,0,0-3.24-15q-14-47.16-25.2-95.16c-.6-3-2-4.2-4.32-3.72A259.83,259.83,0,0,0,360,85.56a253,253,0,0,1,12.24,52.56A83.22,83.22,0,0,0,381.48,168a4.38,4.38,0,0,0,1.32-2.4q7.38-38.34,16.56-75.48c3.48,14,6.72,28.08,9.6,42.36a129.72,129.72,0,0,0,15.84,41.28L444.36,99a159.25,159.25,0,0,1,8.4-24.48c6.72-15.84,9.72-31.44,8.88-46.92C461,27.72,460.68,27.84,460.44,28.2Zm84.84,48.72c-10.92-24.72-29.52-40.08-55.56-46.08A40,40,0,0,0,478.2,32l-.36-6.84c-.84-.24-1.2,0-1.32.72l-.24,6.72A33.88,33.88,0,0,0,468.6,36l-.24.84v.72l.12,1.68.12.84.72.72,1.2,1,.84.72h4.56l-1.2,28.92c-1.8,43.08-1.44,86,1,129.12s4.2,86,5.16,129.12.48,85.68-1.08,128.16q-2.34,60.84-2.64,120.36l-3.6-1-.24-.84-.36-.84-.24-.84-.6-.6h-.6l-1,.6-.48.84c-.84,1.32-1.8,1.56-3.12.72a2.2,2.2,0,0,0-2.88.36,11.09,11.09,0,0,0-1,3.24,23.17,23.17,0,0,0,0,4.08,16.77,16.77,0,0,0,1,4.08,21.59,21.59,0,0,0,8.28,3l10.92.84a77.74,77.74,0,0,0,35.4-8.88q31.32-16.38,42.24-48.72A511.46,511.46,0,0,0,586,409.08a1028.16,1028.16,0,0,0,1.32-129,846.91,846.91,0,0,0-10.08-95.64A440.29,440.29,0,0,0,545.28,76.92ZM575,196.56a1279.53,1279.53,0,0,1,9.36,129,845.93,845.93,0,0,1-6.48,126,285.69,285.69,0,0,1-30.6,97.2l-29.4,20.64c-12.36,8.52-25.08,11.64-37.92,9.36A165.9,165.9,0,0,0,484.32,539q-.36-64.8,1.32-129.12c1.08-43.08.84-86.16-.84-129s-2.76-85.56-3.24-128.28q-.72-57.24-3.12-112.8c14.88-1.92,28.08,2,39.72,11.88A66.6,66.6,0,0,1,534,70.8,342.65,342.65,0,0,1,575,196.56Z" transform="translate(-12.1 -19.8)"/></svg>