<svg id="Layer_1" data-name="Layer 1" xmlns="http://www.w3.org/2000/svg" viewBox="0 0 557.97 569.28"><defs><style>.cls-1{fill-rule:evenodd;}</style></defs><path class="cls-1" d="M60.6,402.6c-9,4.2-14.76,11.28-17.28,21A275.62,275.62,0,0,0,38,533.52,56,56,0,0,0,52.8,564.24C70,582.36,89.28,585,111,572.16c12.48-7.56,17.52-17.28,15.12-29.4a23.11,23.11,0,0,0-6.6,5.88c-10.08,12.6-23,18.12-38.76,16.68C61.8,563.64,50,553.8,45.6,535.68a224,224,0,0,1-3.48-93.24,27.73,27.73,0,0,1,8-15.36c19.56-19.32,42.24-22.92,67.8-10.92a6.47,6.47,0,0,0-.12-5.76c-7-12.24-18.84-16.92-35.52-14a77.83,77.83,0,0,0-12.84,3.84A46.31,46.31,0,0,1,60.6,402.6ZM145.68,71.16a84.16,84.16,0,0,0-5.52-25.8Q128.1,14,95.28,14.4A129.68,129.68,0,0,0,74.4,20.52a35,35,0,0,0-16.8,14Q38.52,65.16,46,102.72a89.44,89.44,0,0,0,12.6,30.72,190.52,190.52,0,0,0,40.8,44.28c23.16,18.48,38.16,42.6,44.76,72.48a204.61,204.61,0,0,1,1.56,82.32c-4.68,25.08-19.44,37.68-44.52,37.8-14,.12-26.16-3.84-36.6-11.64-8.76-6.6-13.68-15.12-14.76-25.44-.84-7.92-3-13.56-6.72-16.92a50.7,50.7,0,0,0-.6,24.36C46.92,361,59,374.28,78.6,380.76q22.68,7.56,43.92,0a22.92,22.92,0,0,0,13.32-11.4q28.8-56.7,14.4-120.24a162.86,162.86,0,0,0-35.64-71.64,64.1,64.1,0,0,0-14-12q-48.24-30.42-52.08-85c-1.8-24.6,8.88-41,31.92-49.08,27-9.48,44.88-1.68,53.88,23.64l9.12,24.24A13,13,0,0,0,145.68,71.16Zm105.48-48.6q-1.62,101-1.2,203.52l.24,33.48a458,458,0,0,0-72.6-1.08L172.68,24.84,171,22.44q.54,120.78,2,241.68v.6l.84,27.84.84,27.6,1.08,27.72,1.32,27.48c.84,16,1.44,32,1.8,48.12q1.08,40,.12,80c-.24,10.2-.84,20.28-1.8,30.36l-1.08,14.64a65.42,65.42,0,0,0-.12,8.4l.24,4,.72,4,1.92,7.32,1.32,3.6a1837.85,1837.85,0,0,0-1.08-286.2c-.6-8.16-1.08-16.32-1.32-24.36l72.6,4,.48,310.2,2.88,1.32q9.9-66.42,3.48-136.8a317.85,317.85,0,0,1-1.32-32l.12-32.28.12-32.28L255.84,315l-.48-32.28L253.92,186c-.6-42.6-.48-85.32.12-128.16l.6-31.44Zm285,376.32a282.28,282.28,0,0,0-16.44,110.64L521,542c.6,17.28,8.4,29.28,23.16,36.12a18.43,18.43,0,0,0,17.64-.72q27.18-14.76,31-46.32c-2.64-.36-5,1.92-7.08,7-7.08,17.16-19.44,26.16-37.08,27.12A12.68,12.68,0,0,1,538,560.76a45.7,45.7,0,0,1-12-27,395.58,395.58,0,0,1-1.68-57.12c14.76-.72,29.4-1,44.16-.72l.72-.84a9.41,9.41,0,0,0-.72-10.56A201.31,201.31,0,0,0,524.76,469a412.7,412.7,0,0,1,4.8-42q6.48-38.52,44.64-42.24a11.59,11.59,0,0,1,4.92,8.76c.12,4,1.44,6.6,4,7.8l.36-.84c3.12-16.2-3-25.2-18.48-27a91.15,91.15,0,0,0-11,5.16A36.75,36.75,0,0,0,536.16,398.88ZM446.52,265l1.8,19.56q6.12,63,11,126.36,5.22,66.78-18.84,127.2C434.4,553.2,423.84,560.16,408.6,559a45.72,45.72,0,0,1-3.36-7.44,313.47,313.47,0,0,1-17.16-98.88c-.6-42.84-.24-85.56,1.32-128.28a235.43,235.43,0,0,1,3.24-32.16,91,91,0,0,0,.72-31.08,588.83,588.83,0,0,0-9.6,105.6c-.12,42.84.36,85.56,1.68,128.16q1.26,43.56,23.16,78.72c14,.6,24.48-5.64,31.32-18.84,17.88-34.68,26-72.12,24.6-112.08C463,399.84,461,357,458.52,314.4a253.16,253.16,0,0,0-8.88-54.6C447.36,260.4,446.28,262.08,446.52,265ZM376.8,146.16q-.72-59.4-30-110.4l-1.08-.36-1.08-.24a38.11,38.11,0,0,0-7-6.24l-1.92-1.56a6,6,0,0,1-2.88-1.08c-2.52-1.8-5.64-1.92-9.24-.6a39.91,39.91,0,0,0-12.12,18.48A426.71,426.71,0,0,0,291,167.76q-1.08,64.62,2.64,128.28c.36,5.52.48,10.92.48,16.2q0,46.26,24,82.8a25.35,25.35,0,0,0,21.12-4.56,113.57,113.57,0,0,0,7.68-9.36,143.48,143.48,0,0,0,25.92-58.56A439.36,439.36,0,0,0,379.44,194C377.88,178.08,377,162.12,376.8,146.16Zm-5.52,11.16a542.36,542.36,0,0,1,2.28,129.36q-5.22,51.84-36.12,91.68a28.84,28.84,0,0,1-17.16,4.2,26.28,26.28,0,0,1-8.16-12.12A267.92,267.92,0,0,1,299,304.2c-3-42.36-4.2-85.2-3.6-128.28.36-21.48,1.08-43,2.16-64.32q2.34-42.66,25.68-76.2,11.34-1.62,19.8,6.84a347.59,347.59,0,0,0,13.68,36.12,123.22,123.22,0,0,1,9.48,36.36C367.68,129,369.36,143.16,371.28,157.32ZM433.44,33,444.6,61.8A164.52,164.52,0,0,1,455,107.52q5.22,68-36.72,121.08l-4.56-.48c-6.36-.84-10.56-4.32-12.6-10.32q-15.3-46.8-6.48-97.08c1.8-10.56,3.24-21.12,4.08-31.56q3.06-35.1,25.2-59.64c2.52-1.56,4.56-1.56,6.24.24A8.4,8.4,0,0,1,433.44,33ZM424.2,21l-.72.36L422,21.6A36.14,36.14,0,0,0,411.6,34.08a154.06,154.06,0,0,0-13.8,39.24,534.55,534.55,0,0,0-10.32,127c.84,22.44,11.4,35.88,31.92,40.32,24.84-29.64,38.4-64.08,40.8-103.08q4-62.82-24-116.16l-2,1.44-1,.48L431,21.84,430,21.12l-5.76-.24Zm150,.36c-42-4-84-7.2-126.12-10a3.47,3.47,0,0,0-1.32,1.32l-.24.84-.24,1.56-.12,1.68.12.84.24,1.56.24.84.84.36,61.92,6.24c-1.44,13-2.28,26.4-2.64,40.2-.6,32-.6,64.32,0,96.6.84,42.84,1.32,85.92,1.68,129.12s.12,86-.48,129c-.36,43.08-2,86.16-4.92,129-.6,9.72,1.08,17.52,5.28,23.28A864.65,864.65,0,0,0,514,473.28c-.12-43.08,0-86,.6-129.12s-.12-86.16-1.92-129c-.84-21.72-1.2-43.32-.84-64.92.6-41.4.12-82.68-1.56-123.6l64,6.12a5.77,5.77,0,0,0,1.68-3l.36-1.56.36-1.68-.12-1.68-.12-.72-.36-.84-1.08-1.68Z" transform="translate(-34.83 -11.4)"/></svg>