<svg id="Layer_1" data-name="Layer 1" xmlns="http://www.w3.org/2000/svg" viewBox="0 0 519.23 502.55"><defs><style>.cls-1{fill-rule:evenodd;}</style></defs><path class="cls-1" d="M326.28,298a14.37,14.37,0,0,0-2.64,12.48L322.56,312l-.12.12.12.12.36,4.08,1.2-1.92A681.4,681.4,0,0,1,319.2,425q-7.56,60.84-56.52,94.68a25.3,25.3,0,0,0-3.6,1.2,54.48,54.48,0,0,1-38.4,2.76c-17.16-4.92-26.28-16.2-27.6-34.08a711.5,711.5,0,0,1,2-124.92,242.27,242.27,0,0,1,5.76-32c2.76-11.52,2.4-22-1.2-31.2a104.8,104.8,0,0,0-5.88,22.68,1041,1041,0,0,0-11,127.44,185.8,185.8,0,0,0,8.88,63.72,35.39,35.39,0,0,0,18.84,21.6c18.84,9.24,37.2,8.16,55.2-3,28.68-17.88,46.68-44,54-78.24A638.85,638.85,0,0,0,333.84,328.2c.12-12.12-2.28-22.44-7-31.08ZM116,78.12c-9.12-24.6-26.88-37.2-53.28-37.56A49.67,49.67,0,0,0,48.84,46.8,27,27,0,0,0,37.68,61q-16.2,46.44,4.92,91.8,14.94,32.22,30.24,64A449.8,449.8,0,0,1,110,332a376.35,376.35,0,0,1,5,94.44A267.12,267.12,0,0,1,94.2,513.24l-.84.84-3.6,2.16-1.56.84-.48.84-.6.84-.24.48C63,528,42,523.2,24.12,504.84a48.79,48.79,0,0,1-1.68-23.52,24.49,24.49,0,0,0-.24-8.88l.6-.72,3-2.76.48-.6-1.92,1.08a3,3,0,0,1-3.24.6l-1.08-.6c-3.84,3.48-6.12,8.28-7,14.4q-3.6,29.88,18.72,46.8c14.4,10.92,29.88,14.4,46.56,10.68a23,23,0,0,0,15.12-10.2,175.94,175.94,0,0,0,27.6-78.24,441,441,0,0,0-4.2-127A538.16,538.16,0,0,0,82,208.92a98.33,98.33,0,0,0-9.24-16.68A214.19,214.19,0,0,1,36.36,98c-1.56-10.92,1.2-20.28,8.16-28.2q18.9-21.42,45.24-6.48A30.5,30.5,0,0,1,101,74.52c4.92,8,10.44,14.4,16.56,18.84a5.9,5.9,0,0,0,.6-2.4A34,34,0,0,0,116,78.12Zm52.32-25.68q-5.94,54.72-10.08,109.68c-6.72.84-13.44,1.92-20,3.24q3.42-57.6,3.72-114a5.9,5.9,0,0,0-2.88,5.16L131,184.8c-1.32,21.24-3.12,42.6-5.52,63.84-1.32,12.36-.24,22.92,3,31.68q5.76-50.4,9-101.4l.36-6.84,19.56.72-.6,8c-1.44,21.36-3.48,42.6-6.12,63.84-1.56,12.36-.36,22.8,3.72,31.56q5-49.14,8.52-98.88l.36-5.52,4.44-1.08a6.81,6.81,0,0,0,1.2-4.08,7.33,7.33,0,0,0-1.2-4.08l-.6-.48-3.12-.36q3.78-56.34,6.12-112A2.79,2.79,0,0,0,168.36,52.44ZM214.8,65.16c5.16,11.76,8.28,26.28,9.12,43.68q1.08,20.34.36,40.32A375.77,375.77,0,0,1,221,189.24a235.65,235.65,0,0,1-10.56,44.52A138.42,138.42,0,0,1,193.32,268l-5.76.24c-8.4-26-11.28-53.76-8.64-82.92l6.84-72A168.67,168.67,0,0,1,194.4,74c1.8-5.16,3.6-10.08,5.52-15l14.4,2.88Zm-19.44-14a86.09,86.09,0,0,0-8.88,26.64A717.9,717.9,0,0,0,178,158.28c-1,21-2.4,42.12-4.44,63.24-2,22,2.28,41.76,13.2,59.4l7.8-.36a59.35,59.35,0,0,0,17.28-27.12A375.64,375.64,0,0,0,228.24,127.2c-.48-13.32-.36-26.52.24-39.72,1.08-21.84-8.4-35.16-28.32-39.84l-1.08.72Zm116.52,5.76A401,401,0,0,0,296.52,132l-13.8,127.2c-2.4-26-4.32-52.2-5.64-78.24-.6-10.44-3.12-19-7.56-25.68l-.36.84c-3.12,33.24-7.56,66.24-13.44,98.76q.54-38.34-.72-76.56A996.27,996.27,0,0,0,242.64,50.88c-2.28,5.16-3,11.28-2.4,18.24l5.52,59.28a929,929,0,0,1,3,128c-.36,9.84,1.68,17.64,6.36,23.4a386.73,386.73,0,0,0,15.12-90.36,803.15,803.15,0,0,0,12.24,94.68,3.38,3.38,0,0,0,2.16-3Q293.28,216.9,299.88,152a511.78,511.78,0,0,1,10.8-63.72,100.23,100.23,0,0,0,2.64-32.88A2.14,2.14,0,0,0,311.88,56.88Zm29-2.76q-32.76,47-32.4,109.68.18,47.7-3,95.64a22.75,22.75,0,0,0,3.24,13.68,15.94,15.94,0,0,0,5.88,5.76l1.44,1,1.68.72,1.8.6a14.06,14.06,0,0,0,12.84-1.68c14.52-9.48,19.32-21.72,14.4-36.6-2.28,10.68-8.16,19.32-17.52,26.16a8.2,8.2,0,0,1-7.92,1.32,14.66,14.66,0,0,1-4.2-2.4l-.72-.72-.48-.72.72-97c7.68,5.28,16.44,6.72,26.16,4.44l.24-9.36-26,.12c-2.52-36.84,6.36-68.88,26.88-96.12,1.32-1.68,3.24-2,6-1.2a33.19,33.19,0,0,1,7.2,3.48q1.26-14.94-14-16.56ZM506.64,290.4c9.84,1.2,16.08,6.72,18.6,16.68l3.48,2.52C530.52,287,520,274.8,496.8,273q-32.58,30.24-31,77.28a334.07,334.07,0,0,1-3.6,63.72c-5.76,38.28-4.92,75.72,2.64,112.08A31.5,31.5,0,0,0,474.36,543q46.08-10.44,56.88-63a27.81,27.81,0,0,0-2-17.28q-11.34,47.88-54.12,62.52Q456.9,471.06,471,409.44l29.52-6.6a15.64,15.64,0,0,0,3-12.72l-3-3L471.72,394q-4.5-58.14,26.76-100.68C500.28,290.88,502.92,289.92,506.64,290.4ZM425.52,81a113.94,113.94,0,0,1,12.12,42.24,138.25,138.25,0,0,1-3.48,43.8,223.13,223.13,0,0,1-13.32,39,169.84,169.84,0,0,1-21.12,34.56l-23,28.8Q385.5,166.62,386,63.6,412.32,55.32,425.52,81ZM384.24,53l-1.68,1.08-.6,3.36a38.18,38.18,0,0,0-2.76,13.8q-1.62,34.38-2.88,69.12-2.34,63.36-6.84,126.72c-3,42.84-7.56,85.56-13.44,128q-8.82,64.08-22.2,126.72l.12-.72a77.66,77.66,0,0,0-.36-10.56c-2.28,10-.72,18.72,4.56,26.28a603.06,603.06,0,0,0,16.32-71.28c7.08-42.12,12.48-84.36,16.44-126.84,2-21,3.72-42,5.28-63a11.47,11.47,0,0,0,3.12,6.24l10-8.88a48.24,48.24,0,0,0,1.2,11.52c5.52,25.32,10.68,50.64,15.6,76.2,4,20.76,8.64,41.4,14.28,61.8a392.93,392.93,0,0,1,11.16,55.08,241.4,241.4,0,0,0,16,61.56l.6-.84q1.62-14.94,2.52-29.88l-1.92-2.16a58.65,58.65,0,0,0-.6,7.92c-3.6-17.28-7.44-34.56-11.4-52-6.12-26-11.64-52.32-16.8-78.6-7.44-39-16-77.64-25.68-115.68a165.83,165.83,0,0,0,20.28-26.64,190.58,190.58,0,0,0,28.68-104.76c-.12-10.44-.72-20.76-1.68-31.08-2.28-26-14.4-44.88-36.12-56.4q-10.8-2-19.44,2.88l-.12-1.44Z" transform="translate(-12.58 -40.56)"/></svg>