<svg id="Layer_1" data-name="Layer 1" xmlns="http://www.w3.org/2000/svg" viewBox="0 0 595.57 842.18"><defs><style>.cls-1{fill:#fff;}.cls-2{fill:none;stroke:#fff;stroke-linecap:round;stroke-linejoin:round;stroke-width:0.38px;}.cls-3{fill-rule:evenodd;}</style></defs><rect class="cls-1" x="0.31" y="0.31" width="595.08" height="841.68"/><rect class="cls-2" x="0.19" y="0.19" width="595.2" height="841.8"/><path class="cls-3" d="M239.28,194.88q-1.26,63.9-3.6,127.44C235,344,233.4,365.64,230.88,387c-1.08,9.84.48,17.64,4.8,23.4a44.8,44.8,0,0,0,5.16-21.84c-.48-22.2-.12-44.28,1.08-66.48l.72-15.12L274,306v13.8a555.7,555.7,0,0,1-3.84,64.8c-1.2,10.2.72,18,5.88,23.4a557,557,0,0,0,6.72-84.36c.36-43.56.36-86.28.24-128.28a1.23,1.23,0,0,0-1.56,1.08q-5.76,46.8-7.08,94.8c-11.4-1.56-21.84-.48-31.32,3.48a942.25,942.25,0,0,0-2.52-100.92C239.64,193.8,239.28,194.16,239.28,194.88Zm-49.8-6.24c-15.12,7.08-23.4,19.56-24.84,37.56a61.13,61.13,0,0,0,11.64,41.64,180.16,180.16,0,0,1,21,37.56,130.49,130.49,0,0,1,10.2,46.2q.9,24.66-25.2,26.64a44.54,44.54,0,0,1-29.16-8.4c-4.8,7.08-3.84,13.2,3,18.12a27.49,27.49,0,0,0,19.68,5.28,62,62,0,0,0,26.28-9.12c7.56-4.92,11.52-11.76,11.88-20.64q2.52-56-31.92-101-22.14-28.8,2-50.88c8.52-7.8,16.8-7.2,25.08,1.68,1.68-7.08-.24-13.32-5.88-18.72a16.52,16.52,0,0,0-6.84-4Zm206.64,23.52c.36,35.64-.72,71.16-3.48,106.32-.84,10.8-2.16,21.48-4,32.16a147.7,147.7,0,0,0-.72,48.12c21.72-1.32,43.56-1.56,65.28-.72,3.84-5.88,3.72-11.52-.36-17-19.8-.84-39.48-1-58.92-.36q3.78-27.72,5.76-55.8a1042.77,1042.77,0,0,0,1-128.4A25.36,25.36,0,0,0,396.12,212.16ZM371.4,197.88A626.33,626.33,0,0,0,371,290.4a152.93,152.93,0,0,1-8.52,63c-4.08,11.4-11.88,19-23.28,22.68-19.2,6.12-29-.12-29.64-18.72a1232.15,1232.15,0,0,1,2.28-128.16c.84-12.12-.12-22.56-3.12-31.44a227.82,227.82,0,0,0-5.52,39.72q-3.6,64.44-1.8,129.12Q302,388.38,322,395c9.72,3.24,18.6,1.32,26.4-5.52,19.08-16.8,29.28-38.16,30.36-64.2A722.42,722.42,0,0,0,372.84,197C372,196.8,371.52,197,371.4,197.88Z" transform="translate(0.19 0.19)"/></svg>