<svg id="Layer_1" data-name="Layer 1" xmlns="http://www.w3.org/2000/svg" viewBox="0 0 521.25 356.64"><defs><style>.cls-1{fill-rule:evenodd;}</style></defs><path class="cls-1" d="M62.16,133.32c7.68-9.6,16.44-10.92,26.4-3.84,12.36,8.88,19.68,20.28,21.84,34.2a22,22,0,0,0,2.28-14.52q-5.76-33.84-39.12-39.84-29.34,13.86-24.12,48.24a147.24,147.24,0,0,0,16.68,49.32,605,605,0,0,1,44.64,102.48,66.88,66.88,0,0,1-.84,45.6q-16,42.48-62.28,36.12a21,21,0,0,1-13-7c-9.6-11-11.88-24.48-6.84-40.2L27,342.36l-.84-.84-.72-.6c-6.6,13.8-8,28.8-4.32,45.12a11.45,11.45,0,0,0,2.76,5.52c22.32,23.64,46.92,25,73.68,3.72a41.59,41.59,0,0,0,13.68-18.48q22.86-59.58-10.56-116.16a429.84,429.84,0,0,1-43.56-100.8C54.36,149.88,56,141.12,62.16,133.32Zm261.48.12q2.34,42.66,3.84,85.32,1.08,28.08,2.88,56.52,3.42,51.66-17.76,96.72c-7.32,15.24-18.48,21.12-33.72,17.64A32.93,32.93,0,0,1,272,371.76a1156.07,1156.07,0,0,1-2.64-129c1.56-43.32,1.32-86-.48-128.28-.72-.12-1.08,0-1.08.6-3.48,38.76-5.4,78-6,117.6q-.9,64.44-1.08,129.12,0,28.08,19.8,46.44c3.24,2.88,6.72,3.12,10.56.72q37.08-23,42.72-68.52a525.15,525.15,0,0,0,4-58.44c.36-43.32-.48-86.4-2.76-129.24-.6-12-3.24-22.56-7.68-31.56A16.65,16.65,0,0,0,323.64,133.44Zm-136.2-4.92q.54,56.16.36,112.68l-.6-.12-39.72,4.8a1083,1083,0,0,0-6.6-127.08c-2.64,3.84-3.84,8.76-3.48,14.64q3.24,64.08,3.6,129,.54,65-4.2,129c-.6,7.56,1.56,12.36,6.24,14.64a119,119,0,0,0,4.08-30l.36-118.32c13.44.6,26.88.72,40.2.36q-.36,64.26-3.72,128.52c-.48,9.84,1.56,17.64,6.24,23.28a119.61,119.61,0,0,0,4.68-32.52l1-119.52,4.08-.24a12.61,12.61,0,0,0,2.76-9.84,9,9,0,0,0-3-5.64l-3.72-.24q.18-61.74-5.28-121.8C188.4,122.16,187.32,124.92,187.44,128.52ZM272.76,69A768.55,768.55,0,0,1,165.24,95.52l-.36.84a15,15,0,0,0,.48,11.16l.72,1A154.43,154.43,0,0,0,221.76,100l12-3.84A462.28,462.28,0,0,0,231,158.28l1.56,64.92c.84,43.08.12,86-2.28,129.12a313.76,313.76,0,0,1-3.72,32.16c-1.68,10-.12,17.76,4.8,23.52a7.26,7.26,0,0,0,2-4.8c3-42.6,4.32-85.44,4-128.28s0-85.8,1-129.12c.48-17.28.24-34.2-.84-50.76A222,222,0,0,1,289,87.72a15.82,15.82,0,0,0,2.4-13.08,6.69,6.69,0,0,0-3.48-4.8l-1.68-.36Zm208.08,9.72c-4.2,18.12-4.8,37.2-1.92,57.12q9,62.28,17,124.8a272.78,272.78,0,0,0,5.88,31.08q16,64.44,32.28,127.08c6.12-6.12,7.68-14.64,4.92-25.56A228.63,228.63,0,0,0,532,369.36c-5.64-17.88-10.8-36.24-15.72-55a800.3,800.3,0,0,1-20.76-109Q487.92,141.9,480.84,78.72Zm-11.76,25.8q-10.08,62.82-23.76,125a418.88,418.88,0,0,1-15,52.68L430,270.36l-.48.12a47.74,47.74,0,0,0-1.68,9.36c-3.24-26.76-7.2-53.4-11.64-79.92-7.2-42.12-12.72-84.24-16.56-126.6a115,115,0,0,0-12,39.36q-7.74,63.54-16,126.84-8.28,63.54-19.68,126.6c-1.2,7-2.16,11-2.88,12.12-1.08,1.56-1.92,4.92-2.64,10A44.9,44.9,0,0,1,343,400.68c-4.44,10.68-3.6,19,2.76,25a719.29,719.29,0,0,0,21.48-99q9.18-63.18,17.76-126.48c4.2-30.36,7.8-60.48,11-90.48a207.66,207.66,0,0,0,1.8,24Q406.62,197,417,260.16a185.69,185.69,0,0,1,2.64,31.56c.12,9.48,2.76,16.8,8.16,21.72l1.92,2A816.49,816.49,0,0,0,460.56,203,1098.88,1098.88,0,0,0,478.68,76.8,79.83,79.83,0,0,0,469.08,104.52Z" transform="translate(-19.11 -69)"/></svg>