<svg id="Layer_1" data-name="Layer 1" xmlns="http://www.w3.org/2000/svg" viewBox="0 0 300.4 215.04"><defs><style>.cls-1{fill-rule:evenodd;}</style></defs><path class="cls-1" d="M231.6,196.56a345.73,345.73,0,0,0-4.44,51.84q-.9,64.62-5.4,128.88c-1,12.24.72,22.8,4.92,31.8a4,4,0,0,0,.84-1.56q2-41.4,4.44-82.8L233,302.88a130.37,130.37,0,0,0,31.32.84l-1.08,41.76a222.66,222.66,0,0,1-3,32.28c-2.16,12.6-.6,23,4.56,31.56a64,64,0,0,0,4.08-21c1.08-43.08,2.52-86,4.2-129.12.84-22,.84-43.32-.12-64.08-3.48,6-5.4,13.08-5.76,21.36q-1.44,35.82-2.52,72l-.72-.12a260.16,260.16,0,0,0-30.6,4q1.44-48.24-1.32-95.88Zm-53,1.56a55.45,55.45,0,0,0-12.84,39.6,106.43,106.43,0,0,0,17.52,52.92A151.52,151.52,0,0,1,202.32,333c3.48,12.6,1.2,23.88-7,33.84Q178.8,387,153.48,376.68l-6-2.28c-4.32,9.48-2.16,16.2,6.36,20.16,11,5.16,22,4.8,32.88-1.32a46,46,0,0,0,23.64-38.52q2.34-50.22-27.6-90.48c-11.88-16-13.32-32.88-4.44-50.52,10.44-2,19.44,0,27.12,6.12a10.2,10.2,0,0,1,3.48,4.8,13.75,13.75,0,0,0,1.68-14.16c-3-7-8.16-10.8-15.48-11.64Zm186,29.76q1.08-18.54-6.12-31.68a321.42,321.42,0,0,0-2.4,65.64,291.29,291.29,0,0,1-7.44,87.48q-8.82,36.54-46.08,33.6-5.22-.36-5.76-5.4a441.68,441.68,0,0,1-1.8-87.36,918.44,918.44,0,0,0,2.16-95.88,259.22,259.22,0,0,0-7.68,50.52c-2.52,42.6-3.6,85.44-3.24,128.28a28.56,28.56,0,0,0,4.56,15.48c9.36,14.28,22.8,17,40.44,8a49.68,49.68,0,0,0,12.84-15q23.22-41.22,20.52-89.76A631.71,631.71,0,0,1,364.56,227.88Zm74.52,34.92A495.8,495.8,0,0,0,436,354.48c.6,12.72-2.64,23.52-9.84,32.4L418.8,386c-2.52-5.16-5.52-8.88-9.12-11-4.68,11.28-1.8,21.24,8.64,29.76,10.92.6,17-4.56,18.36-15.36a789.17,789.17,0,0,0,4.32-128A1.43,1.43,0,0,0,439.08,262.8ZM441.6,233l-.48.72c-3.72,4.92-3.48,9.12.48,12.72l.84-.48C446.88,240.6,446.52,236.28,441.6,233ZM375,213.24l25.8-1.2c-4,42.36-6.36,85-7.44,127.8A222.76,222.76,0,0,1,390.24,372c-2,12.24-1.08,22.92,3.12,31.92a307.68,307.68,0,0,0,8.64-69l2.16-123c13.08-.24,26.16-.12,39.36.48a11.32,11.32,0,0,0,1.56-10.56l-.24-.84-.36-.72-.48-.84-.84-.48-40.56-1.44a228.38,228.38,0,0,0-24.84,2.4L373.92,201a14.29,14.29,0,0,0-.48,9.72l.24.84.36.72Z" transform="translate(-145.32 -194.28)"/></svg>