<svg id="Layer_1" data-name="Layer 1" xmlns="http://www.w3.org/2000/svg" viewBox="0 0 308.72 215.4"><defs><style>.cls-1{fill-rule:evenodd;}</style></defs><path class="cls-1" d="M227.88,292.2c.48-21.48,1.92-42.84,4.32-64,1.32-12.36.36-23-2.76-32a200.63,200.63,0,0,0-6.36,49.8q-.54,64.26-7.08,128a68.38,68.38,0,0,0,3.72,32.4,67,67,0,0,0,6.12-28.2l1.68-74.16a130.32,130.32,0,0,0,30.72,1.68l-.36,8.88a517,517,0,0,1-5.76,64c-1.56,10.2.24,18,5.4,23.52a625.13,625.13,0,0,0,8.64-77q3.06-64.44,2.52-127.56a854,854,0,0,0-9.84,94.2,101.78,101.78,0,0,0-31,1.56ZM192.72,191a25.51,25.51,0,0,0-11.4,6.6c-15.72,15.24-19.92,33.84-12.48,56A445.31,445.31,0,0,0,198,321.6c6.12,11.4,7.32,22.92,3.84,34.56-2.76,8.76-7.92,15-15.72,19a55,55,0,0,1-36.48,5,18.75,18.75,0,0,0-2.16,8.16A11.25,11.25,0,0,0,151,397.2q20.88,5.94,37.8-6.12c13.08-9.24,19.92-22,20.76-38a90,90,0,0,0-12.24-50.88,242.16,242.16,0,0,1-23.64-56.52q-9.54-34.38,25.2-40.56a25.53,25.53,0,0,1,6,4.56,6.43,6.43,0,0,0,4.32,2.28l.24-1C211,198.72,205.32,192.12,192.72,191Zm193.68,3.72c-1.32.6-1.92.48-2-.36a1294.35,1294.35,0,0,0-4.44,151.44l-.12,4.08-.36,4-.6,4.08-2.16,16.44a55.5,55.5,0,0,0,3.24,28c5.52-10.56,7.68-22.2,6.36-35-.12-2.4-.12-4.92,0-7.44l.48-7.44.6-15c.48-15,.6-30,.48-44.88a115.47,115.47,0,0,0,38.52,1.2,12.27,12.27,0,0,0-.48-14.28,99.88,99.88,0,0,0-38.16,3.36l-2.52-77.16a167.73,167.73,0,0,0,69.36,8.4,12.51,12.51,0,0,0,.84-10.56l-.6-1.68-66.48-5.64ZM351,204.84A737.56,737.56,0,0,1,349.92,333q-4.14,44.1-48.24,43.92c-8.64-7-12.36-16.44-11-28.56l3-28.08a928.12,928.12,0,0,0,4.2-127.56.55.55,0,0,0-.6.36A317.13,317.13,0,0,0,291,235c-3.36,42.6-5.28,85.32-5.88,128.4a28.66,28.66,0,0,0,6.48,19.2q18,21.78,42.84,2.76a42.08,42.08,0,0,0,15.84-23.76,383.4,383.4,0,0,0,10-127.92,101.35,101.35,0,0,1-.12-16c.72-10.08-1.32-17.88-6.24-23.4A16,16,0,0,0,351,204.84Z" transform="translate(-147.47 -191.04)"/></svg>