<svg id="Layer_1" data-name="Layer 1" xmlns="http://www.w3.org/2000/svg" viewBox="0 0 503.92 328.95"><defs><style>.cls-1{fill-rule:evenodd;}</style></defs><path class="cls-1" d="M110,96.6c-16-3-28.44,3-37.32,18a73.08,73.08,0,0,0-10.2,40.56,81.53,81.53,0,0,0,12.84,41.16A367.27,367.27,0,0,1,95,231a371.66,371.66,0,0,1,18,43.68,336.07,336.07,0,0,1,11.76,44.4,70.64,70.64,0,0,1-5.4,44.4,85.69,85.69,0,0,1-30,35.64Q67.08,414.24,46.32,398a42.36,42.36,0,0,1-17-32.16l4.32-4.56-4.2,2.76L25,363.6q-2.88,31.5,21.6,51.6a30.23,30.23,0,0,0,20,7,43.08,43.08,0,0,0,19.08-4.68A53.64,53.64,0,0,0,95.52,411a95.91,95.91,0,0,0,11.64-11.52,107.07,107.07,0,0,0,14.64-21.36,89.82,89.82,0,0,0,9.72-54.6,248.19,248.19,0,0,0-31.8-93.24q-22.86-39.78-29-82.92c-1.56-10.2,1.8-18.84,10-25.92,18.84-16.68,34.56-13.56,46.92,9.36l5.28,9.12c3.24-15.84-1.92-28.92-15.48-39.36A22.92,22.92,0,0,0,110,96.6Zm112.32,45.24q.18,54.18,0,108.72l-2.64-.24a333.64,333.64,0,0,0-42.36,4.56l-.12-27.36c-.36-43.44-.12-86.16.48-128.16a118.76,118.76,0,0,0-6,36.24q-.9,64.26,0,129a1005.45,1005.45,0,0,1-6.72,128l.12.72a155.45,155.45,0,0,1-.36,21.12c.72,1.92,1.92,2.64,3.72,2.16a515.51,515.51,0,0,0,6.36-60Q177,310.92,177.36,265l44.88-2v7.92q-.54,64.8-4.44,128.28c-.24-3-1.2-5.16-3-6.24a40,40,0,0,1,1.08,7.32c.24,8.4,2.16,15.12,5.64,20q3.6-31.14,4.68-63.36c1.44-42.84,2.4-85.92,2.76-129q.72-65-1.44-129.12A160,160,0,0,0,222.36,141.84ZM379.44,156q-13.86-47.16-60.24-57.48v.12a36.55,36.55,0,0,0-16.44,5l-.24.72-.36.84-.72,1.32Q260.22,127.08,253.56,174a612.93,612.93,0,0,0-4.8,126.84c.36,5.52.48,10.92.48,16.32-.24,37.08,9.72,70.68,30,100.56a35.78,35.78,0,0,0,7.44,3c25.32,7.68,45.48,1.2,60.72-19.44q39.06-53.1,44.52-118.2A344.73,344.73,0,0,0,379.44,156Zm-26,224c-8.88,15.24-21.84,24.72-38.76,28.32q-36,7.74-45.48-26.16a432.59,432.59,0,0,1-16.08-127.08c.36-21.48,1.32-43,2.88-64.2,2.28-34.32,18.24-59,47.64-74.28l1.56-.24a101,101,0,0,0,13-1.68,26.3,26.3,0,0,1,11.4,4.2l10.8,7,.72-1v-1.56l-.12-.72q-.18-3.42,3.24-.36a20.33,20.33,0,0,0,4.32,2.76,40.67,40.67,0,0,1,8.64,10.56Q390.06,191.76,388,259A252.91,252.91,0,0,1,353.4,380Zm48.36-242.88q9.72,63.9,15.84,128,6.12,63.36,8.64,126.72c.48,11.64,2.88,22,7.2,30.72l.48-.84.84-6,.12-.72q11.7-62.82,22.44-125.76a335.82,335.82,0,0,0,4.68-40.2A293.91,293.91,0,0,0,466.68,299q8.28,47.16,11.88,95c1,11.64,3.6,22,7.92,30.72a2.59,2.59,0,0,0,.72-1.68l-.24-15c5.88-37.8,11.76-75.6,17.88-113.64q10.26-63,19.56-126.24a368.54,368.54,0,0,0,4.08-63.48,115,115,0,0,0-6.6,28c-5.16,42.12-10.92,84-17.4,125.88q-9.72,63.54-19,127v.24c-1-10.44-2.28-21-4-31.56q-10.44-62.82-18.12-125.88c-.6-.12-.84-.12-1,.24l-.12-2.64a46.86,46.86,0,0,0-6.12,19.68,1032.13,1032.13,0,0,1-20.4,125.76l-2.4,10.44c-1.2-10.08-2-20.4-2.64-31q-3.24-64.44-11-128.16-7.92-63.54-19.08-125.88A153.33,153.33,0,0,0,401.76,137.16Z" transform="translate(-24.66 -95.85)"/></svg>