<svg id="Layer_1" data-name="Layer 1" xmlns="http://www.w3.org/2000/svg" viewBox="0 0 479.84 308.16"><defs><style>.cls-1{fill-rule:evenodd;}</style></defs><path class="cls-1" d="M81.84,114.84A16.59,16.59,0,0,1,91,109.08c12.84-1.32,23.4,2.88,31.68,12.36l1,.84a55.63,55.63,0,0,1,6.24,13.92,26.52,26.52,0,0,1-2.16,21c-.6-.12-1-.24-1.2-.6-1.8-1.92-2-4.2-1-6.72a14.88,14.88,0,0,0,1.32-5.16l-.12-.72a10.37,10.37,0,0,1-.84-2.52l-.36-2.4-4.56-6a36.88,36.88,0,0,0-13.8-11.52,28.2,28.2,0,0,0-20.52.6l-1.08.72q-16,25-2.64,54.24,17.46,38,38.88,74.76a150.19,150.19,0,0,1,20.4,85.32A88.44,88.44,0,0,1,125.64,385a31,31,0,0,1-18.48,12.36Q73,405.42,49.8,376.68q-22.68-27.9-17.64-62.28,5.76,6.48,7.2,20.16a41.14,41.14,0,0,0,3.72,13.2c10.44,22.56,28,34.8,52.32,36.6a28.61,28.61,0,0,0,12.48-2.16c18.24-7.32,27.84-21.24,28.68-41.76q2.7-63.72-36.6-115.92-34.74-46.26-22.2-101.28A21.86,21.86,0,0,1,81.84,114.84ZM263.76,127.2q-35.64,30.6-39,79.32l-1.8,24.6A471.32,471.32,0,0,0,229.32,359c2.16,11.4,8.64,19.68,19.56,24.72l6.84,3.12q41-11.52,51.36-55.92a299.87,299.87,0,0,0,7.08-48.24,338.2,338.2,0,0,0-15.48-128.16Q290.4,128.64,263.76,127.2Zm-54.36-6q-3.06,63.9-5,128.28c-1.32,42.84-3,85.56-4.8,128.28a67.89,67.89,0,0,1-4,21c-4.08-5.88-5.16-13.68-3.36-23.4A260.46,260.46,0,0,0,196,343.08c1.44-28.44,2.52-56.76,3.36-85.2l-33.12-.72q-2.52,59.4-6.72,118.44a59.31,59.31,0,0,1-4.8,19.44c-3.84-6.84-4.92-15-3.12-24.48a435.16,435.16,0,0,0,7.2-63.72c1.8-42.84,3.12-85.56,4.2-128.28.48-17.76,1.8-35.28,3.84-52.68a10.37,10.37,0,0,1,3.36-6.84q-1.26,63.18-3.6,128.28v.36a11,11,0,0,1,3.48-1.32l6.36-.6a126.13,126.13,0,0,0,23.28,1.08l.72-32.76q.54-43.92,2.88-87c.24-4.68,1.44-8.52,3.72-11.52a9.61,9.61,0,0,1,2,4.8Zm45.6,1a59.08,59.08,0,0,1,9-6.36c10.92,0,19.68,4.44,26.16,13.44l.72,1,.36-.24.6-.48.84-1c7.2,6.36,12.24,15,15,25.8a450.21,450.21,0,0,1,13.56,125.16q-1.8,61.38-39.6,108.6a18.42,18.42,0,0,1-4.32,4.32,33.94,33.94,0,0,1-22.44,8c-25.56-13.08-38.16-34.68-38-64.68q.18-32-.36-64.08a341.1,341.1,0,0,1,21.36-124.56A61.87,61.87,0,0,1,255,122.16Zm111.36,112.2q-4.14,62.1-14.76,125.76a366.65,366.65,0,0,1-10.2,44.4,18.91,18.91,0,0,1-4.56-13.8,92.23,92.23,0,0,1-2.64-20.52q-1.62-63.9-6.12-127.44c-3-40.68-5.76-81.36-8.16-121.8a2.29,2.29,0,0,1,1.8-2.76q9.18,63,13,127.44c2.28,39.72,4.44,79.44,6.48,118.92l.48,5.52A340.18,340.18,0,0,0,349,335.52Q355.26,297,359.4,258A63.1,63.1,0,0,1,366.36,234.36Zm73.8-110.52V122h.6q18.72,60.66,33.72,122.76,15.3,62.28,25.92,125a13.07,13.07,0,0,0,1,3.72,267.16,267.16,0,0,1,1.08-33.84c1.08-10.68,1.8-21.48,2.16-32.28q2.34-64.26.48-129.12c-.36-16.68,1.56-32.16,6-46.32q-.18,63-1.32,128.28c-.6,42.84-1.08,85.56-1.2,128.28a30.69,30.69,0,0,1-1.8,10.68A137.78,137.78,0,0,1,506,416.4l-.6.6a475.06,475.06,0,0,1-14.64-61.2q-10.62-61.92-25.44-123.24c-4.56-19-9.6-37.8-15.24-56.4a248.52,248.52,0,0,1-9.36-46.2c-.12,40-1.32,80.4-3.36,121.32L435.24,299q-2.52,57.78-7.92,115.2a2,2,0,0,1-1,1.32c-3-9.48-4.08-20.28-3-32.28q5.76-63.54,7.8-128.16,2-64.44,7.32-128.16A3.54,3.54,0,0,1,440.16,123.84Zm-21-2.88q-3.6,62.82-12,126.72c-5.52,42.36-10.8,84.48-15.72,126.6a99.44,99.44,0,0,1-3.24,17l.6,11.28c.12,2.4-.6,4.2-2.4,5.4a1129.61,1129.61,0,0,1-19.08-126.24,272.53,272.53,0,0,1-.6-46.32h.48q9.9,62.82,18,126.36c2-9,3.6-18,4.8-27.12Q398.1,271.5,404.76,208A711.13,711.13,0,0,1,419.16,121Z" transform="translate(-31.24 -108.84)"/></svg>