<svg id="Layer_1" data-name="Layer 1" xmlns="http://www.w3.org/2000/svg" viewBox="0 0 511.33 320.88"><defs><style>.cls-1{fill-rule:evenodd;}</style></defs><path class="cls-1" d="M75.6,183.36A131.78,131.78,0,0,0,93,225.84a204,204,0,0,1,20.16,42.24,202.89,202.89,0,0,1,9.6,44.64,129,129,0,0,1-3.48,45.6,58.36,58.36,0,0,1-26,35.88c-13.56,8.52-27.84,10-42.72,4.08-15.24-5.88-24.24-16.8-27-32.64A10.29,10.29,0,0,1,24.6,358c2.88-2,3.12-4.56.6-7.68l-.36,1.2L22,343.92q-11.7,25.2,4.32,50.64a46.92,46.92,0,0,0,18.12,16.8,41.51,41.51,0,0,0,19.32,4.44,71.7,71.7,0,0,0,15.24-2,85.79,85.79,0,0,0,19.32-7.44,45.23,45.23,0,0,0,18-16.92c11.64-18.84,16.2-39.48,13.92-61.92A387,387,0,0,0,85.92,183.24c-9.48-17.88-9.48-35.52.24-53,8.52-15.48,19.92-16,34.32-1.68A146.31,146.31,0,0,1,130.92,140c0-13.08-5.52-23-16.56-29.76a42.26,42.26,0,0,0-16.92-6.12c-15,6.12-23.16,17.76-24.72,35A144.07,144.07,0,0,0,75.6,183.36Zm200.64-52.08c16.08,29.64,21.48,61,16.32,94.2q-5.94,37.44-41.76,39.36l1.8-26.76A1037.92,1037.92,0,0,0,254,119C263,119.16,270.48,123.24,276.24,131.28Zm-63.72,7.32c-.84,39-2,77.76-3.72,116.52l-38.88-2.88v.12l-1.32.36L169,237.6c1.08-43.08.84-85.92-1-128.28a108.1,108.1,0,0,0-3.72,27.6q-.54,64.62-2.16,129.12-1.8,65.16-7.68,126.24c-2.4,6.36-1.56,13.68,2.4,21.72l1-1.2a263.11,263.11,0,0,0,6.36-46.08c1.68-34.68,3-69.36,4.08-104.28a153.85,153.85,0,0,0,40,4.08v.24L201.84,395l-.48-.12a5.59,5.59,0,0,1-2-4.44l-.36.84a31.71,31.71,0,0,0-.24,5.76c.36,8.4,2.28,15.6,5.76,21.48a1.44,1.44,0,0,0,.84-.84c2-17,3.6-34.32,4.56-51.84q2.7-51.12,4.44-102.48l.24-2v-1.8l.72-22q2-65,2.52-128.28A84.18,84.18,0,0,0,212.52,138.6Zm41-26.64v-2l-.6,2.28-.84.36a7.92,7.92,0,0,0-.72,3.24,6.84,6.84,0,0,0,.48,2.64A171.78,171.78,0,0,0,250,145.08q0,63.9-4.32,127.44Q241.32,337,232.08,400.2v-.48a54.73,54.73,0,0,1-1.56-7.44,3.05,3.05,0,0,0-.24.84,72.1,72.1,0,0,0,1.32,11.4c-2.28,5.4-1.44,9.36,2.64,12.12a237.83,237.83,0,0,0,9.36-51l6.48-88.92c6.48,2,12.48,1.68,17.88-1.32q10.26,44.46,21,89.28a278.75,278.75,0,0,0,21.6,60.12l1-1.44c2-6.48,1.56-12.36-1.44-17.76v.84a65.07,65.07,0,0,1-5.88-16.32,999.6,999.6,0,0,0-34.44-115.8l4.08-3.24q27-25.92,26.76-64.56a198.34,198.34,0,0,0-10.32-62.4c-5.52-16.56-15.72-27.84-30.6-34A29.54,29.54,0,0,0,253.56,112Zm259.44,22q-30.78,31.5-29.52,82.8A322.53,322.53,0,0,1,481,264.84Q474.3,316.32,491,363.48l1.44,3.24c10.08,1.08,18-3.48,23.64-13.92a98.21,98.21,0,0,1,5.76-9.12l1.44-5.64-2.64,4.56-2.16-4.8a71.25,71.25,0,0,1-24.24,14.28,264.76,264.76,0,0,1-5.88-91.8L509.52,257l3.48,1.44c3.72-4,3.36-7.44-1.2-10.68-7.2-5-14.76-4.56-22.68,1.32q-4.68-53.28,18.84-95.76c2.4-4.32,6.24-6.6,11.52-6.72l5.4,20.88c5.88-11.52,4.32-21.48-4.92-30A15.51,15.51,0,0,0,513,133.92ZM357.72,193.2q41.58,53.28,30,121.8c-2.64,16-10.56,27.84-23.88,35.76A18.68,18.68,0,0,1,345.6,352c-17-7.44-26.64-20.88-28.68-40.2a330.39,330.39,0,0,1,6.72-111.24l.72-.84c6.6-8.28,15.36-12.84,26.28-13.8l4.32.48.84.36.72.84A5.37,5.37,0,0,1,357,190l.24,1.56Zm-.6-15.84a12.73,12.73,0,0,0-9.72-1.68A53.7,53.7,0,0,0,328,184.92a8.75,8.75,0,0,0-3,4A293.12,293.12,0,0,0,308.88,289.8,123.21,123.21,0,0,0,326,351.36c9.24,15.72,22.56,19.68,39.72,11.76a42.82,42.82,0,0,0,23.76-26.4A156.46,156.46,0,0,0,397.68,289q.72-63-38.16-110.4A6.46,6.46,0,0,1,357.12,177.36Zm31.92-62c4,19.2,7.44,38.52,10.68,58.08q10.26,63.18,17.4,127A956.09,956.09,0,0,0,439.44,425l.72-.48-.24-10.32v-.12c8.76-36.6,15.84-73.68,21-111.12l17.16-126.48c1.44-10.56,3.36-21,5.64-31.32a85.92,85.92,0,0,0,1.44-32,89.24,89.24,0,0,0-8.76,28.2q-8.82,62.82-16.92,125.88-7.92,62.46-20.16,122.88l-.6-16.32a4.23,4.23,0,0,1-2.16-1.56l-.72,3-2.52-16.08Q422,296.34,412.68,232.92T391,107.64C389,109.44,388.44,112,389,115.32Z" transform="translate(-17.02 -104.16)"/></svg>