<svg id="Layer_1" data-name="Layer 1" xmlns="http://www.w3.org/2000/svg" viewBox="0 0 311.45 213.72"><defs><style>.cls-1{fill-rule:evenodd;}</style></defs><path class="cls-1" d="M294.36,365a209.87,209.87,0,0,1-5.52-104.52c5.64-28.92,22.92-44.88,52.08-47.88a22.86,22.86,0,0,1,9.72,10.44Q378.9,283,360.72,347.16a47.45,47.45,0,0,1-20.88,28.44c-10.56,6.84-21.72,7.68-33.36,2.76A20.59,20.59,0,0,1,294.36,365ZM173,215.16q13.86-14.22,31.32-2.16l4.8,7.32c1.56-18.36-7.2-27.72-26.28-28q-47,34.74-8.4,81.48a127.88,127.88,0,0,1,23,42,60.22,60.22,0,0,1-1.2,42.72A54.13,54.13,0,0,1,183,378l-1.68,1.56-10.8-.48a44.9,44.9,0,0,1-20-26q-8.64,44.46,33,38a12.62,12.62,0,0,0,8.4-4.92A72.09,72.09,0,0,0,208.2,338a135.62,135.62,0,0,0-14.88-58.44,116.23,116.23,0,0,0-20.76-29.16C161.4,238.8,161.52,227,173,215.16Zm89.28-2.88c-1.92,26-2.88,52.08-3,78.36l-1.8-.12a57.64,57.64,0,0,0-31.68,2.76q.72-49.68-.48-98.76a903.83,903.83,0,0,0-6.36,108,643.68,643.68,0,0,1-3.24,64.8c-1.32,12.12-.12,22.8,3.36,31.8a3.7,3.7,0,0,0,.84-1.68c3-24.6,4.8-49.56,5.4-74.64l.36-19.2.12.24,33.6,1.08c.12,12.12.36,24.36,1,36.6a205.44,205.44,0,0,1-1.32,32.16c-1.56,11.88-.24,22.68,3.84,32.4.72-.36,1.08-.84,1.08-1.32a588.72,588.72,0,0,0,3.48-81.12c-1.08-43.32-1.44-86.16-1-128.28A47.36,47.36,0,0,0,262.32,212.28Zm111,47.88c-3.6-23.16-12.24-43.56-25.92-61L346,200.28l-2.64,1.56a34.44,34.44,0,0,0-25.2,4.2c-20.64,12.12-32.76,31-36.24,56.28a523.08,523.08,0,0,0-4.68,58.56,126.74,126.74,0,0,0,14.4,62.64,25.68,25.68,0,0,0,17.52,13.92q32.76,7.92,47.28-21.84Q382.86,321.42,373.32,260.16Zm34.32-55.08a8.84,8.84,0,0,0-4.56-2.4c-14.76,1.32-22.68,12-24,32.16a128.61,128.61,0,0,0,5,43.8L396,318.48a117.15,117.15,0,0,1,4,45.6C398.52,378,390.6,385,376.32,385l-4.92-3c-4.44,4.56-4.08,9.6.84,15a18.46,18.46,0,0,0,10.08,5.64,14,14,0,0,0,9.12-1.2,17.78,17.78,0,0,0,7.92-7.8q19.26-37.26,3.6-76a195.85,195.85,0,0,1-14.52-78.48,47.28,47.28,0,0,1,5.76-22.08l13.8-.36a6.8,6.8,0,0,0,2.4-7.32A9.25,9.25,0,0,0,407.64,205.08Zm17.64-10.68a526.85,526.85,0,0,0-7.2,81.12q-.72,64.08.72,128.16c.6,2,1.8,2.52,3.6,1.68q2.34-20.34,2.88-41.4.72-21.06.72-41.4V303.48A110.74,110.74,0,0,0,452.76,302l-2.4,72.36c-.48,12.6,1.56,23,6.12,31.44a769.88,769.88,0,0,0,4-82c-.24-43.08-.6-85.92-1-128.28-.6.12-.84.24-.84.48a394.34,394.34,0,0,0-4.44,49.32l-1.08,43.68-8.28-.36A176.85,176.85,0,0,0,426,292l-.12-97.68Z" transform="translate(-149 -192.36)"/></svg>