<svg id="Layer_1" data-name="Layer 1" xmlns="http://www.w3.org/2000/svg" viewBox="0 0 310.79 217.52"><defs><style>.cls-1{fill-rule:evenodd;}</style></defs><path class="cls-1" d="M269,298.2a30.34,30.34,0,0,0-9.36-1.08,107.78,107.78,0,0,1-24.84,2.52l1.2-38.4c.72-22.08.36-43.44-1-64.2a294.63,294.63,0,0,0-8,71.64c.12,42.84.12,85.68,0,128.28q.54,2.88,3.24,2.16a19.49,19.49,0,0,0,2.52-9l1.8-79,34,1.56q-1.44,43.74-2.64,87.48.72,2.88,3.24,2.16A633.5,633.5,0,0,0,276,322c1.08-43.32,1.44-86,1.32-128.16A648.6,648.6,0,0,0,270,271.92ZM185,206c13.32-.36,23.16,4.8,29.76,15.36l.24-.84c0-21-12.12-30.84-36.48-29.76a37.37,37.37,0,0,0-13.44,16.8c-7.8,18-6.24,35.28,4.44,51.72a386.66,386.66,0,0,1,24.24,43.56,178.53,178.53,0,0,1,10.32,28.44q6.48,24.66-10.08,41a16.65,16.65,0,0,1-11.28,5c-17,1-27.24-7.32-30.72-24.84q-8.64,13.14.36,28.8c7.08,12.12,17.4,16.8,31,14.16a28.09,28.09,0,0,0,20.4-15.24q11.34-22,7.92-47.88c-3.48-26.64-13.92-49.8-31.56-69.48-16.92-19-17.76-37.68-2.28-56.16Zm188.28,83.52a198.74,198.74,0,0,1-6.48,46.32,103.81,103.81,0,0,1-20.52,39.72,39.24,39.24,0,0,1-31.8-2.4q-11-5.76-15.12-19.8a187.78,187.78,0,0,1-5.64-77.52,98.29,98.29,0,0,1,19.44-47.64,50.14,50.14,0,0,1,29-19,11.61,11.61,0,0,1,4.56-.12,65.35,65.35,0,0,1,14.28,18.12,107.5,107.5,0,0,1,12.72,46.8A95.39,95.39,0,0,1,373.32,289.56Zm3.36-54.84q-4.14-31.32-31-41.28a154.42,154.42,0,0,0-24.24,7.92,54.94,54.94,0,0,0-16.8,23.76,283.12,283.12,0,0,0-18.12,109.32c.6,22.2,7.8,41.76,21.36,58.44a38.18,38.18,0,0,0,13.44,4.68c16.8,2.76,28.8-3,35.88-17.28q26.1-52.74,22.44-113.76C379.08,255.84,378,245.16,376.68,234.72ZM458,194.16q-22,47.34-46.8,94.8a107.51,107.51,0,0,1-8.88,13A85.62,85.62,0,0,0,395,313.2c2.4-40.2,2.88-79.92,1.32-119.4a198.7,198.7,0,0,0-5.88,48.12c-.36,43.08-2.64,85.8-7.08,128.16-1.32,12.6.36,23,4.92,31.44,1.8-20.28,3.48-40.92,4.92-61.68a299.77,299.77,0,0,0,26.64-44.76,196.1,196.1,0,0,0,8.76,41.4,361.37,361.37,0,0,1,13.8,58.32c1.08,6.84,3.72,11.4,8,13.44a6.15,6.15,0,0,0,1.32-4.68,530.86,530.86,0,0,0-28.32-115.68q11.88-24.84,25-49.32c7.8-14.64,11-29.52,10-44.52Z" transform="translate(-147.81 -190.72)"/></svg>