<svg id="Layer_1" data-name="Layer 1" xmlns="http://www.w3.org/2000/svg" viewBox="0 0 313.62 215.89"><defs><style>.cls-1{fill-rule:evenodd;}</style></defs><path class="cls-1" d="M171.84,249.12c8.28,20.76,17.28,41,27,61.08A149.68,149.68,0,0,1,208,335.28c4.44,17.64.48,32-12,43.2-12.84,4-23.28,2.16-31.32-5.52a164.46,164.46,0,0,1-16.32-17.76c-3.36,11.52-.48,22,8.76,31.32q16.2,16.74,40.68,8.28a23,23,0,0,0,10.92-15Q222.36,317.7,185.52,265c-10.68-15.24-13.92-31.68-9.84-49.32,2.28-10,8.64-13.56,19.32-10.68,8.52,2.28,15.36,6.24,20.4,11.76l.12-.72c.36-18.36-9.36-27.24-29.4-26.88-12.36,5.64-18.72,15.6-19.32,29.76A75,75,0,0,0,171.84,249.12ZM230.64,201c1.08,42.84,1.08,85.8.12,129.12-.36,16.32-1.44,32.52-3.24,48.48-1.08,9.72.48,17.64,4.92,23.52a590.7,590.7,0,0,0,4.08-76.32l-.12-16.56a72.39,72.39,0,0,0,25.92-.12c-.36,21.12-1.68,42.12-3.72,63.12-1.2,12.6.48,23,5.16,31.44a472.76,472.76,0,0,0,5.16-77.88l-.36-21.24.36-2.88-.48-2.28c-.36-34.2-.72-68.16-.84-101.88a416.89,416.89,0,0,0-5.28,78.24l.12,19.44L258.6,295a53.3,53.3,0,0,0-22.2,3.48c.12-23.16,1-46.32,2.28-69.24.6-12-1.32-22.68-5.76-32.16C231.36,197.52,230.64,198.84,230.64,201Zm141.72,39.84c.36-16.44-4.8-30.48-15.36-42.12a25.71,25.71,0,0,0-7.44-5.76l-3.24,2.16q-17.28-9.36-32.4,1.08-31.86,22-35.64,63.24A290.21,290.21,0,0,0,284,350.52,150.57,150.57,0,0,0,296.16,385a14.83,14.83,0,0,0,8,7.44,42.84,42.84,0,0,0,15,3c8.28.12,15.12-2.52,20.76-8.16q32.94-32.94,36.12-82A252.41,252.41,0,0,0,372.36,240.84ZM367.8,267.6a318.92,318.92,0,0,1-.24,46.68,85.05,85.05,0,0,1-15,43.32c-9.12,13.2-21.72,19.92-37.8,20-11.4.12-18.48-5.88-21.24-17.88a336,336,0,0,1-7.8-46.08,239.92,239.92,0,0,1-.12-44.52,112,112,0,0,1,11.76-40.56,143.17,143.17,0,0,1,11-18.36l9.12-3.12q27.72-9.9,39.24,15.72A124,124,0,0,1,367.8,267.6ZM451,294.84l-24.24,3.6.24-77a46.74,46.74,0,0,0-4.8,15.72l-.24,3q-4.68,72.18-4.44,144.36a39.06,39.06,0,0,0,3,15.12l1.68,3.12,4.32-93.6,24.12,1.56a453.34,453.34,0,0,0,.12,77.64,22.91,22.91,0,0,0,.72,4,39.92,39.92,0,0,0,4,10.32c1.44-26,2.4-52.2,3-78.72q.18-7.38,1.08-14.76a180.84,180.84,0,0,0,1.08-23L458.4,221.4l-1.08-25.8a267.25,267.25,0,0,0-4.92,46.56l-.6,26.28ZM376.08,212.4l24.24.48A846.67,846.67,0,0,0,393,325a385,385,0,0,1-2.76,48.48c-1.56,12.6,0,23,4.56,31.56a12.22,12.22,0,0,0,2.76-7.32l5.76-128.16A491.38,491.38,0,0,0,402.6,213l32.76,1.08a15.25,15.25,0,0,0,1.56-11.4,7.9,7.9,0,0,0-2.4-4.08l-1.08-.84-2.64-.12-36.84-1v.12l-17.88,2.28-.84.36a14.27,14.27,0,0,0-.72,10.44,3.14,3.14,0,0,0,.72,1.56Z" transform="translate(-146.97 -189.11)"/></svg>