<svg id="Layer_1" data-name="Layer 1" xmlns="http://www.w3.org/2000/svg" viewBox="0 0 457.87 354.72"><defs><style>.cls-1{fill-rule:evenodd;}</style></defs><path class="cls-1" d="M67.44,103.08c-14.76,26.64-16.8,55.08-6.36,85.32l18.48,54.12q11.52,33.66,20.76,68a132.09,132.09,0,0,1,2.4,59.28q-8.46,44.46-54,44.16a25.56,25.56,0,0,1-13.08-15.24c-2.76-8.76-6.6-15.84-11.52-21a11.77,11.77,0,0,0-2.76,7.32,59.63,59.63,0,0,0,3,21.6c6.12,17.88,18.48,27,37.32,27.36,19.56-4.44,33.48-15.48,41.76-33.36a78.15,78.15,0,0,0,7.44-34A416.47,416.47,0,0,0,91.32,244.8a178.67,178.67,0,0,0-12.72-30Q54.3,170,66,122.28l1.92-1.68a12,12,0,0,0,2.16-3.12l.24-.84,5.88-4.08L78.72,111c7.8-1.32,13.56,1.44,17,8.28L107.16,141A14.23,14.23,0,0,0,110,129C106.8,109.68,96.48,98.52,79,95.28L73.32,99Zm214.92,9c22.8,13.56,38,33.24,45.72,59.28a247,247,0,0,1,3.24,128.16l-7.68,32.88c-7.56,33.12-23.64,60.84-48,83.16a76.43,76.43,0,0,1-36.48-5.16l-2-2.16a16.9,16.9,0,0,0-4.44-3.24,246,246,0,0,1-19.32-95.76c-.12-21.48.24-43,1-64.2a286,286,0,0,1,19.56-93.72c7.08-18.12,18.6-32,34.56-42A21,21,0,0,1,282.36,112.08ZM189.24,97.56a218.26,218.26,0,0,0-8.88,61.32c-.24,33.24-1,66.36-2.16,99.6a96.93,96.93,0,0,1-37.56-2.76v.12l-2,.36.6-29.16c.48-43.32.72-86.16.6-128.28-2.4,3.12-3.72,7.2-4.08,12.12-2.4,42.6-3.84,85.44-4.32,128.28-.48,43.32-2.28,86.28-5.28,129.12A258.81,258.81,0,0,1,122,400.44c-2.28,12.48-1.2,23.28,3.48,32.52a2.67,2.67,0,0,0,1.08-1.56q5.4-37.26,7.8-75.24c1.8-29.4,3.12-58.8,4-88.44a91.29,91.29,0,0,0,39.36,3.84L177,287c-1.8,42.48-2.52,85.2-1.92,128.28l-.24.24a4.46,4.46,0,0,1-2.52-2.4c-.6,1.56.12,3.36,2.4,5.64-1.92,6.36-.6,11.52,3.84,15.24,3.36-3.72,4.92-8.52,4.8-14.4q-2-65,.72-129,2.52-64.44,4.44-129.12.9-32.94,1.08-64.08Zm80.28-2.88a18.18,18.18,0,0,0-4,2.52q-44.1,34.74-50.88,91.08a892.93,892.93,0,0,0-6.36,128.28c.48,21.6,1.92,43.08,4.32,64.32q4.86,43,45,53.64a19.08,19.08,0,0,0,11.28-.48q27.72-9.54,40.32-37.56a436.29,436.29,0,0,0,34.44-123.84q8.1-64.62-13.08-124.8C323.28,127.08,311,111,293.88,99.36l-2.28.24-1.68,1.32-1,.24a7.2,7.2,0,0,0-3.24-2.4,18.59,18.59,0,0,1-3.84-2.4,15.07,15.07,0,0,1-4.56-1.2A13.24,13.24,0,0,0,269.52,94.68ZM461,145.32q-43.38,44.82-46.32,110.88l-3.12,70.08a68.61,68.61,0,0,0,12.72,43.8,13.55,13.55,0,0,0,12.36,6l4-.84,4.32-1.32a57.39,57.39,0,0,0,5.4-2.76,45.9,45.9,0,0,0,20.16-22.44c3.24-7.56,2.4-14.64-2.76-21-4.32,14.76-13.32,24.48-26.88,28.92a26.56,26.56,0,0,1-15,.24A203,203,0,0,1,424,266.52L458.64,265a20.91,20.91,0,0,0,1.44-8.52,13.72,13.72,0,0,0-1.56-5.64l-.72-1.32a79.93,79.93,0,0,0-32,3.72q2-52.38,35.28-92.76l6.48.24L476.16,180c5.28-10.2,3.6-19.68-5-28.56A20.9,20.9,0,0,0,461,145.32Zm-75-39.84a99.28,99.28,0,0,1,14.64,34Q416,208.38,374.4,265a21.17,21.17,0,0,1-8.52,7.08,29.5,29.5,0,0,0-7.2,4.44l4.8-50a936.89,936.89,0,0,0,3.12-115.8l.84,1.68a4.16,4.16,0,0,0,1.92-1l7.32-6.12A9.61,9.61,0,0,1,386,105.48Zm-19.92-6.72c-3.24,20.28-5.64,41.52-7,63.6-2.52,42.48-6,85-10.2,127.32-4.32,42.6-9.6,85-16,127.32l-.12-.36a79.88,79.88,0,0,1-2.52-18.6l-.36.24a82.92,82.92,0,0,0,2.52,24.36c-1.8,6.36-.72,11.16,3.48,14.64a4,4,0,0,0,1.2-1.8q9.9-56.34,16.56-113.52l2.76-25.32A89.52,89.52,0,0,0,375,283.32a31.86,31.86,0,0,0,1.2,8.64q16,61.74,31.08,123.36a97.46,97.46,0,0,0,12.6,30.36c3-2.52,4-5.64,3.12-9.6-3-14.52-6.48-29-10.32-43.68q-14.94-57.78-32.16-114.72c7.8-8.76,13.8-19.32,18.24-31.68q22.68-62.28,4.08-126.48C399,106.08,391.68,96.6,381,91l-1.08.24a27.47,27.47,0,0,0-8.76,4.92l-.72,1.56-.36.84a6,6,0,0,0-3.84,4.08Z" transform="translate(-21.29 -90.96)"/></svg>