<svg id="Layer_1" data-name="Layer 1" xmlns="http://www.w3.org/2000/svg" viewBox="0 0 299.87 208.32"><defs><style>.cls-1{fill-rule:evenodd;}</style></defs><path class="cls-1" d="M317.88,211.92l.6,2c11.16,5.64,19.32,17.52,24.24,35.64a193.94,193.94,0,0,1,6.84,42.24,135.92,135.92,0,0,1-4.92,43.44,64.7,64.7,0,0,1-26.28,36.6c-9.72,6.72-20.52,8.52-32.4,5.28a151.31,151.31,0,0,1-12.72-48.72c-1.2-13.68-1.92-27.36-2-41a131.81,131.81,0,0,1,11.52-55.32c5.88-13.32,16.2-20.52,30.72-21.6A27.42,27.42,0,0,1,317.88,211.92Zm-10-15.12c-6.12-.36-11,1.56-14.88,5.76q-23.76,25.56-26.28,62a476.88,476.88,0,0,0,4.44,107c2.88,18.48,13.8,27,32.88,25.44a35.05,35.05,0,0,0,26.4-14.88,144.83,144.83,0,0,0,26-63.48q7.38-48.42-13.44-90.36l-.24-.84A74.69,74.69,0,0,0,325.2,196l-1.56.12a5.1,5.1,0,0,0-2.76,2ZM178.2,193.56l-2.88-.12q-28.08,20-15.12,52.92a555.41,555.41,0,0,1,30.6,110.52,19.47,19.47,0,0,1-.36,7.44,34.5,34.5,0,0,1-2.16,4.8,19.74,19.74,0,0,1-8.64,7.92c-11.16,5.4-19.8,2.52-25.68-8.76l2.4-8.52-6.48.12c-7.08,12.12-4.08,22.92,9,32.28,7.8,5.64,16.2,6.6,25.08,2.64a10.77,10.77,0,0,0,5.4-5.64,137.52,137.52,0,0,0,4.68-14,66.45,66.45,0,0,0,1.44-28.32,654.84,654.84,0,0,0-27.12-104.4q-11.7-33.66,21.6-31.68A53.68,53.68,0,0,1,200.28,213C198.24,200.4,190.92,193.92,178.2,193.56Zm33,15.6c.6,42.84.12,85.68-1.2,128.28a178.46,178.46,0,0,1-3.84,32.16c-2.52,12.12-1.44,22.8,3.24,31.92a127.72,127.72,0,0,0,4.92-29.16l2.88-49.44,1.08-21.36a63.61,63.61,0,0,0,31.56.48l.12,4a406.93,406.93,0,0,1-3.84,64c-1.68,12.24-.6,22.8,3.36,31.8a3.34,3.34,0,0,0,1.08-1.68,450.91,450.91,0,0,0,6.36-75.36V302l.6-1.44a14.44,14.44,0,0,0-.24-9l-.36-.36c-.12-31.8-.6-63.48-1.2-94.8a730.39,730.39,0,0,0-5.88,91.08,72.11,72.11,0,0,0-31.32,5.76,935,935,0,0,0-2.64-98.76C212.64,198,211.08,202.8,211.2,209.16Zm222,85.68c1.56,16.2,2.64,32.64,3.48,49.2s-4.2,29.52-15.12,39.36l-15.72-10.08c-4,8.76-2.16,16.08,5.52,22.08,10.92,8.52,19,5.64,23.88-8.64a145.47,145.47,0,0,0,8-45,267.74,267.74,0,0,0-5.52-61.68C434,283.56,432.6,288.48,433.2,294.84Zm3.72-33.12c3.6-6.24,3.84-12.36.84-18.48a1.06,1.06,0,0,0-1.2.48q-5.4,10.08-.36,18.72Zm-79.2-48.24L395.4,215a338.84,338.84,0,0,0-5.88,58c-.24,21.24-1.2,42.6-3,64a309.81,309.81,0,0,0,1.2,64.32q7.2-14.94,7.56-34.92.72-47.7,3.48-95.76A428.5,428.5,0,0,0,398.4,215c15,.36,30.12.48,45.12.36a12.61,12.61,0,0,0,2.16-10.56l-.24-.84-.48-1.56-.36-.84-.48-.72-1-1h-16.8q-22.68.18-45.36-.72l-13.08.48-9.6.36a2.31,2.31,0,0,0-1.44.48,14.1,14.1,0,0,0-1.2,8l.12.84.36,1.56.12,1,.48.72Z" transform="translate(-146.15 -193.44)"/></svg>