<svg id="Layer_1" data-name="Layer 1" xmlns="http://www.w3.org/2000/svg" viewBox="0 0 548.81 500.84"><defs><style>.cls-1{fill-rule:evenodd;}</style></defs><path class="cls-1" d="M359.16,461.64l10.2-52.44,3.72,48.72ZM118.92,91.56C115.44,72.24,104.4,57.6,86,47.88l-4.68-.48-8.88-.84A30.45,30.45,0,0,0,57.6,55C40,72.6,34.2,94.44,40.32,120.24a248.72,248.72,0,0,0,7.32,25q17.82,51.66,32.88,103.92A913,913,0,0,1,107.16,372.6,448,448,0,0,1,109,490.08a38.18,38.18,0,0,1-12,24C84.24,526,68.64,530.76,50.28,528.48c-10-1.32-15.48-6.84-16.44-16.68-1.56-16-3.48-31.56-6-46.92A72.86,72.86,0,0,1,34,452.64a15.24,15.24,0,0,0,2-4.8,36,36,0,0,0-5.64,10q-13.5,34.2-3.24,70.44a16.55,16.55,0,0,0,8.16,10.56q32.22,18.72,64.08-3.36a57.19,57.19,0,0,0,6.6-11,178.33,178.33,0,0,0,14.52-68.52,560.23,560.23,0,0,0-11.28-123q-12.42-61.2-30.48-121.32a125.72,125.72,0,0,0-7.2-18.72A283.22,283.22,0,0,1,45.24,97.92,54.88,54.88,0,0,1,48.6,82.56a72.4,72.4,0,0,1,4.68-9.72L55.8,71l5.52-4.2,1.44-1.32,2-.6A27.34,27.34,0,0,1,85.2,63a94.32,94.32,0,0,1,17.52,17,87,87,0,0,1,13.08,22.8A12.24,12.24,0,0,0,118.92,91.56ZM198.24,77.4c-.36,26.4-.6,52.92-.48,79.56.12,33.48,0,66.84-.36,100.32l-47.28-3-.6-75.72q-.54-65-1.8-128.28c-4.92,10.8-7.32,23.16-7,37.08l2.64,129.12.48,32.52c.12,42.6.6,85.32,1.2,128.16a1137.74,1137.74,0,0,1-4.92,125.28l-.12-.84c-.84,5.88-2,12.6-3.36,20-2,10.44-.24,18.12,5.28,23a41,41,0,0,0,3.48-13.8c3.48-42.48,5.16-85.2,5.28-128.28s-.12-85.8-.48-128.16v-9a147.62,147.62,0,0,0,46.92,5.64l-.24,15c-.72,43.08-1.8,86.16-3.36,129q-1.8,48.42-4.8,96.48c-.84,12.36,1.08,22.92,5.52,31.8a2.59,2.59,0,0,0,.72-1.68q3.78-50.58,5-102.24c1-43.08,1.8-86.16,2.4-129l.72-43.68a14.65,14.65,0,0,0,.12-3.24l-.12-.72,1.32-81.48Q205.56,116,204,53C200.28,59.64,198.36,67.8,198.24,77.4ZM309,62.28c-4.32-6.84-10.68-9.84-19-9a63.08,63.08,0,0,0-26.76,14.28A71.59,71.59,0,0,0,248,86.4a185.63,185.63,0,0,0-23,73.8q-6.3,63.9-6.36,129.12,0,47.7,1.44,95.64a470.64,470.64,0,0,0,20.4,125q10.44,33.84,47,27.24a15.11,15.11,0,0,0,9.36-5.52A233.13,233.13,0,0,0,346.32,427.2,653.69,653.69,0,0,0,358.92,299a672.69,672.69,0,0,0-12.12-126.6A490.3,490.3,0,0,0,312.24,62.76l-2.16.36-.6-.12ZM300.6,69a7.6,7.6,0,0,1,3.12,1.92l1.44,1.56a34,34,0,0,0-1.92,4.2,20.09,20.09,0,0,0-1.32,4.08l.24.72a3.2,3.2,0,0,0,1.44-2.16,2,2,0,0,1,1.8-1.92l1.92-.24a426.8,426.8,0,0,1,21.24,57.24A543.77,543.77,0,0,1,350.76,261a673.86,673.86,0,0,1-5.28,128.4,293.45,293.45,0,0,1-41,114.84c-10,16.08-24,20.28-42.36,12.72a20,20,0,0,1-11.28-11.64,321.71,321.71,0,0,1-18.72-84.72q-5.22-64.08-6.24-128-.9-64.8,3.6-128.52,3.6-50.94,39-85.8l1.8-1a45.48,45.48,0,0,1,26.28-9.36Zm99.48,317.4q-2.34,64.08-7.08,128.16-.9,14.58,4,23.4a6.14,6.14,0,0,0,1.2-2.52c14.4,4,29.64,4.44,45.6,1.44l.84-1c1.92-3.48,1.68-6.6-.6-9.6L399.24,529c.84-6.12,1.44-12.24,1.8-18.6,2.16-43.08,2.76-85.92,1.8-128.28C401,382.8,400.2,384.24,400.08,386.4Zm-29.64-1.32c-4.92,9-8.4,20.76-10.56,35.28a389,389,0,0,1-8.76,43Q345.18,485.46,340,507.6a126,126,0,0,0-3.36,34.92l20.76-73.2,16.44-1.56a187.39,187.39,0,0,0,9,70.2A204,204,0,0,0,380.16,467l.72-8.64-2.52-1.08a646.48,646.48,0,0,1-6.84-74.52Zm-5.28-177.24q-.9,15.84-.72,31.68a692.65,692.65,0,0,0,12.24,127.2,167.15,167.15,0,0,0,20.76-65.52,306.32,306.32,0,0,0,13.8,66,24.66,24.66,0,0,0,4.56-10.56q6.12-38.16,14-76.08a267.44,267.44,0,0,0,5.76-64.32q-3.78,2-4.32,7.2-8.28,64.08-20,127.32c-1.68-7.56-3.12-15.24-4.2-23.16-1.2-8.16-2-16.32-2.52-24.36-.72-11.16-3.48-20.52-8.16-28.08A325.32,325.32,0,0,1,378,352.08c-1.56-16.32-2.88-32.64-4.2-49.08q-3.78-48.06-7.68-95.76C365.52,207.12,365.16,207.24,365.16,207.84Zm24.12-107.52c-1,17.52-9,27.24-24.12,29.28L364.92,66C382.2,70.92,390.36,82.32,389.28,100.32ZM366.12,59.16,365,60.24V56.52a235.13,235.13,0,0,0-5.4,56c.36,19.68.12,39.36-1,59.16-.48,9.48.84,17.64,3.84,24.24a16.79,16.79,0,0,0,3.24-10.32l-.6-45.72a16.74,16.74,0,0,0,8.16.6l.84-.36,3.6-2.76a184.19,184.19,0,0,0,14.88,44.16A183.32,183.32,0,0,0,402.84,201a4.41,4.41,0,0,0,1.08-5.28L380.4,134.88l2.88-3a9.15,9.15,0,0,0,2-3.84c9.48-12.84,12.84-27.72,10-44.88-2.64-16-11.76-24.24-27.36-24.72A4.06,4.06,0,0,0,366.12,59.16ZM449.4,81.24c-6.24-20.52-14.76-20.76-25.44-1a82.46,82.46,0,0,0-8.64,25.56,403.17,403.17,0,0,0-4.68,41.52,126.45,126.45,0,0,0,5.52,45.12c2.28,7.08,7.08,10,14.64,8.64Q458,195.9,449.16,171.6l-1.68,4.8.48,1.68c-14.76,20.28-24.48,19.56-28.92-2.16a152.24,152.24,0,0,1-3.24-36.12l22.56.12v-8.64a37.07,37.07,0,0,0-22.44,1.32q-5.94-37.44,19.32-53c3.24-2,7-2,11,0Zm100.68-2.76a66,66,0,0,1,20,17.88,13,13,0,0,0,.48-10.56q-11.88-31.32-47.88-26.28c-16.44,3.72-26.88,14.28-31.44,31.56q-15.3,57.78,13.2,111.24a465.42,465.42,0,0,1,43.44,119.16,450.49,450.49,0,0,1,9.6,111.72A129.27,129.27,0,0,1,537.12,499a39.28,39.28,0,0,0-5.52,4.2c-13.68,12.48-29.4,20-47,22.56a70,70,0,0,1-12.72-27c-3.48-15.24-8.52-28.56-15.12-40.08a11.23,11.23,0,0,0-2.16,7.32,114,114,0,0,0,2.64,23,130.69,130.69,0,0,0,27.12,55.68,82.77,82.77,0,0,0,16.08-3.12,57.7,57.7,0,0,0,23.76-13.68,5.49,5.49,0,0,1,1.68-2l7.92-7.92c19.56-21.48,29.88-47.16,31-76.8A541,541,0,0,0,554.4,315.48a414.69,414.69,0,0,0-43-117q-22-40-18.48-84.48,3.42-42.48,47.64-38.64A21.64,21.64,0,0,1,550.08,78.48Z" transform="translate(-22.69 -46.56)"/></svg>