<svg id="Layer_1" data-name="Layer 1" xmlns="http://www.w3.org/2000/svg" viewBox="0 0 312.26 211"><defs><style>.cls-1{fill-rule:evenodd;}</style></defs><path class="cls-1" d="M324.12,324.72a119.92,119.92,0,0,0,5-11.52,64.85,64.85,0,0,0,3.12,10.08Zm8.4-25.2-4.08,1.92a64.45,64.45,0,0,0-19.32,42.12l-.12,4.92,9.84-14a23.89,23.89,0,0,0,9.6,1.32l4.32-.84,4.08-2,9.48,15a93.6,93.6,0,0,0-13.68-45.12ZM179.64,195.36l-4.8,3.12c-9.24,5.88-15.24,14.64-17.76,26-4.2,18.6-1,35.4,9.48,50.52q23.4,34,19.32,75.6Q182.82,382,152,380.16l-.36-.72-1.44-1-4.32.6-.84.48A22.3,22.3,0,0,0,144,394.32a5.2,5.2,0,0,0,2.4,3.12,3.68,3.68,0,0,1,3.24,1.32l1.08.84q30.78,2,39.6-27.72a118.15,118.15,0,0,0,5-31.8c.6-22.44-5.88-42.24-19.32-59.64-12.36-16-16.56-33.24-12.36-51.84,3.48-16,14-22,31.68-18.12a4.67,4.67,0,0,0,3.48,1.56l.84-.12a12.15,12.15,0,0,0-1.44-13,13.41,13.41,0,0,0-4-3.36Zm37.2.12c-1.44,16.2-2,33.12-1.92,50.76a770.43,770.43,0,0,1-9.6,127.92c-2,12.24-.6,22.92,4.08,31.92,4-27.12,7.2-54.72,9.48-82.8l1.2-14.88a124.34,124.34,0,0,0,46.08,1,432.15,432.15,0,0,1-1.92,62.28c-1.32,12.12.24,22.8,4.68,31.8a399.69,399.69,0,0,0,5.64-77.16l-.48-20.4a26.38,26.38,0,0,0,.48-10.2l-.48-.72-.36-.72q-1.8-48.42-5.88-96.12h-.48a848.51,848.51,0,0,0-1.92,94.32,341.63,341.63,0,0,0-44.76,3.24A685,685,0,0,0,218,195.12C217.32,195,217,195.12,216.84,195.48ZM376.68,268q11.7,62.46-30.6,109.8a88.74,88.74,0,0,0-11.52,1.68c-12.72,2.4-22.44-1.44-29-11.52A64.82,64.82,0,0,1,295,339.24a324.06,324.06,0,0,1-2.16-45.72q1.62-55.8,50.52-80.28a16.3,16.3,0,0,1,11.4,1.32A140.7,140.7,0,0,1,376.68,268Zm-.48-39.6c-3.48-19.32-14.52-29.4-33.12-30a61.58,61.58,0,0,0-34.2,25.2,89.65,89.65,0,0,0-11,22.92q-19.44,61.92-2.76,125.76c2.76,10.68,9.12,17.76,19.32,21.48q34.38,12.6,50.76-17.4,32.58-59.4,16.2-124C379.32,244.32,377.64,236.4,376.2,228.36ZM430.44,213c11.64,10.68,17,23.88,16.32,39.72-1.32,26.28-15.6,38.88-43,37.56-.36-27.72-1.32-55.2-2.64-82.44A162.09,162.09,0,0,0,430.44,213ZM400.8,201l-.36-1.92a652.87,652.87,0,0,0-4.2,94.8c.24,9.48.36,19.08.24,28.68a279.28,279.28,0,0,1-2.16,31.8,196,196,0,0,0-1.8,28.92,44,44,0,0,0,4.08,18.84,413.24,413.24,0,0,0,7.32-95c14,3.24,26-.24,36-10.68a39.46,39.46,0,0,0,4-4.92,83.32,83.32,0,0,0,6.24-11.64A57.86,57.86,0,0,0,454.56,264a77.53,77.53,0,0,0-.72-27.84A57,57,0,0,0,449.4,223a55.48,55.48,0,0,0-7.32-11.76,75.76,75.76,0,0,0-16.8-14.76l-18.36.84Z" transform="translate(-143.22 -195.08)"/></svg>