<svg id="Layer_1" data-name="Layer 1" xmlns="http://www.w3.org/2000/svg" viewBox="0 0 595.57 842.18"><defs><style>.cls-1{fill:#fff;}.cls-2{fill:none;stroke:#fff;stroke-linecap:round;stroke-linejoin:round;stroke-width:0.38px;}.cls-3{fill-rule:evenodd;}</style></defs><rect class="cls-1" x="0.31" y="0.31" width="595.08" height="841.68"/><rect class="cls-2" x="0.19" y="0.19" width="595.2" height="841.8"/><path class="cls-3" d="M161.52,242.52c-.72-18.6,7.56-29.16,25-31.8,5.88-1.08,10.92.84,15,5.76l4-.12c1.32-15-5.64-21.6-21-19.8-16,2-25.44,11.4-28.44,28q-6.48,35.64,21.12,63.12a46,46,0,0,1,11.52,18.84,97.5,97.5,0,0,1,2.88,53,20.91,20.91,0,0,1-10,13.8,26.24,26.24,0,0,1-13.44,4,33,33,0,0,1-7.68-.12l-5.64-7.32-2.28-12.48q-10.62,11.52,0,27c10,14,21,14.52,33.36,1.44,9.36-10,14.64-22.2,15.84-36.48A106.58,106.58,0,0,0,190.56,291a246.14,246.14,0,0,0-26-40.92A15.05,15.05,0,0,1,161.52,242.52Zm55.56-29c.6,20.52.36,41-.6,61.56-1.92,42.84-3,85.56-3.24,128.4a2.15,2.15,0,0,0,2.16,2.16l.84-1.44q3.6-39.78,6.24-80.28l1-18.12,33.6,1.8.24,15a299,299,0,0,1-2.76,47.52c-1.8,12.6-.12,23.16,4.92,31.68a462.38,462.38,0,0,0,5.4-77.88c-.6-43.32-.36-86.16.6-128.28a96.32,96.32,0,0,0-7,31.92c-1,21.48-1.44,43-1.56,64.56a15.09,15.09,0,0,0-8-.48A111.58,111.58,0,0,0,223.8,295,831.32,831.32,0,0,0,221,195.6C218.28,200.52,217,206.52,217.08,213.48Zm150.36,103q5-58.14-17-110.52l-2.4-1.68-1.2-.72-1.08-.84-1.56-.12h-.6l-2.16-.12-.84-.84a28.24,28.24,0,0,0-18-5.64c-17.16,5.52-28.68,16.68-34.8,33.48-12.6,35-16.92,71.64-12.72,109.92a123.57,123.57,0,0,0,7.56,31.2c4.8,12.48,13.68,19.8,26.76,22,20.52,3.48,35.28-4.8,44.52-24.72A155.75,155.75,0,0,0,367.44,316.44Zm-6.84-1.2a73.67,73.67,0,0,1-15.6,44,60.51,60.51,0,0,1-28.68,20.64,36,36,0,0,1-15.24-7.68c-19.08-16.44-27.12-39-24.24-67.92l3-30.24q5.22-50.4,49.8-63.48a15,15,0,0,1,10.2.48l1.08,6.48c7.92,7.2,13.08,16.44,15.36,27.84a181,181,0,0,1,3.24,25.68C360.6,285.84,361,300.48,360.6,315.24ZM388,196.68c-.6-.12-.84,0-.84.36l-.48,3a2.79,2.79,0,0,0-.84,1.56,51.5,51.5,0,0,0-.48,9.6q-7.2,55.44-13.56,111.36A288,288,0,0,1,362.4,370c-3.24,11.64-2.88,22.32,1.2,31.8a32.62,32.62,0,0,0,5.88-15c6.12-42.12,11.76-84.36,16.68-126.72,1.08-9.48,1.8-19,2.16-28.32,3.72,19.44,7,39,9.6,58.56,1.56,11.64,4.44,21.48,8.76,29.52a1,1,0,0,0,.36-.72l-.12-5.52,22.08-84,1.2-4.92a754.26,754.26,0,0,0,8.16,82.08c3.24,21,5.64,42.12,7.08,63.36.84,11.64,3.72,21.84,8.52,30.6a2.58,2.58,0,0,0,.72-1.56,459,459,0,0,0-4.92-75.6L431.28,197.76c-1.32-.12-1.92.36-1.92,1.68v.48l-1.32.84c-2.64,9.72-5,19.44-7.2,29.28a211,211,0,0,1-8.4,28.56,127.78,127.78,0,0,0-7.32,30.84,491.18,491.18,0,0,0-16.8-87.84Z" transform="translate(0.19 0.19)"/></svg>