<svg id="Layer_1" data-name="Layer 1" xmlns="http://www.w3.org/2000/svg" viewBox="0 0 482.42 349.08"><defs><style>.cls-1{fill-rule:evenodd;}</style></defs><path class="cls-1" d="M73.8,131.52q-16.74,48.06,10.32,93.72,18,30.24,35.16,60.84,32.76,58.5,5,118.68a26,26,0,0,1-12.6,12.72Q73,436.74,42.36,403.32a29.94,29.94,0,0,1-8-17.64c-1.08-9.36-4.32-15.48-10-18.48a39.73,39.73,0,0,0,0,21.84c9.24,35,32.28,53.52,69.36,55.56a18.4,18.4,0,0,0,11.76-3.48c24.12-17.28,37-41.4,38.28-72.36q2.88-62.1-32.4-114.12a265.29,265.29,0,0,1-37.2-81.36,36.58,36.58,0,0,1-.36-17.64c4.8-21.72,19.44-31,43.8-28A25,25,0,0,1,129,141.12a73.71,73.71,0,0,1,3.6,14.76c3-3.12,4.32-7.2,4.2-12.24-.48-13.32-6.6-23.4-18.36-30.48l-4.32-.48-11.28-1a85.28,85.28,0,0,0-22.2,11A18.7,18.7,0,0,0,73.8,131.52Zm215-3-.48-6.24-.48.12q-10.44,47.88-18,97.32Q260.16,283.26,245.76,346c-2.64,11.4-5.4,22.68-8.4,34.08a295.43,295.43,0,0,0-9,63.72c1,1.44,2.16,1.68,3.72.84a588.87,588.87,0,0,0,17-69.6l14.28-78.72a72.63,72.63,0,0,0,35.88,0l.36-.84a13.78,13.78,0,0,0-1.44-13l-32.52,1.44,6.12-35Q277.38,217.38,284,186c1.56-7.32,2.88-14.52,3.72-21.6.36,8.64,1.2,17.16,2.4,25.68q9,63,15.24,126.48c4.08,42.36,9.84,84.48,17.4,126.12l-.24-.24a16.61,16.61,0,0,0-3.84-8.4l.12.72a57.4,57.4,0,0,1,2,9.84,120,120,0,0,0,6.48,16.2c1.08-.24,1.8-.72,1.92-1.32a49.08,49.08,0,0,0,1.56-28c-3.72-16.68-6.6-33.48-8.88-50.4-5.4-42.24-10.32-84.48-15-126.6C302.28,212,296.88,169.92,290.52,128A2.35,2.35,0,0,0,288.84,128.52ZM223,124.32a312.61,312.61,0,0,0-4.56,51.6c-.36,35.88-1.08,71.88-2.16,107.76l-.6-1.2-.84-.48-9.24-.6a303.27,303.27,0,0,0-30.48,3.36c1.2-33.24,1.8-66.72,1.92-100.2.12-22.08,0-43.44-.36-64.2-4.32,7.44-6.48,16.68-6.48,27.6-.12,30.12-.72,60.12-2,90.12q-2.7,64.26-2.88,129.12a259,259,0,0,1-4.44,48.36c-2.28,12.36-1,23.28,3.72,32.52a258,258,0,0,0,8.4-69.6q-.18-32.4,1.08-64.8l.72-16.8a156.36,156.36,0,0,0,40.92-1.44l.24-.48-.36,10-4.2,128-.24-.36-1.2-5.64a30,30,0,0,0,4.92,19.44,1.71,1.71,0,0,0,1.2-1,485.39,485.39,0,0,0,6-63.84q2.16-64.26,3.6-129.12c1-43.08.24-85.92-2.16-128.28Zm229.92,1.2c-5,11.4-7.8,24.48-8.16,39-1.2,42.84-3.12,85.68-5.76,128.28-2.76,43-6.72,85.68-12.12,128a61.13,61.13,0,0,0,1.68,26.28,14,14,0,0,0,2.76,6.84A166.77,166.77,0,0,0,503,449.4l.24-.72c3.12-6.6,2.52-12.48-1.68-17.88a209.7,209.7,0,0,1-66,8q4.86-60.3,8.64-121l8.28-128.16A522,522,0,0,0,452.88,125.52Zm-24.72,5.76A1092.9,1092.9,0,0,0,408.84,258.6q-5.94,63.72-10.92,127.56c-.6,7.44-1.44,14.88-2.52,22.2l-2.16-10.92q-13.32-62.82-22.56-125.52l-.24.72v-4.8A413.62,413.62,0,0,0,353,341.16c-2.28,16.68-5,33.12-8,49.56q-2.52-38.16-7-76.56c-2.52-21.48-4.8-42.84-6.6-64.32a1045.65,1045.65,0,0,0-18.36-126.48,2.4,2.4,0,0,0-2.28,2.76c.36,9.84,1,19.68,1.92,29.4,4.2,42.48,8.76,85,13.44,127.32q7.2,64.62,13.08,123.6c-.72,7.08,1.32,14.88,6,23.52a1.76,1.76,0,0,0,1.8-2.16v-1.2l.36.36a478.16,478.16,0,0,0,8.4-47.76c2-16,4.68-31.92,7.92-47.64,1.8-9.12,3.36-18.12,4.44-27.12q8.46,60.3,19,119.88c2,11.88,5.76,22,10.92,30.24a9.75,9.75,0,0,0,2.4-7.2l-.6-7.08a19.49,19.49,0,0,0,2.52-9q4.32-63.9,11-127.32,6.66-63.72,14.4-127.32A406.69,406.69,0,0,0,431,129.36,2.25,2.25,0,0,0,428.16,131.28Z" transform="translate(-22.83 -111.72)"/></svg>