<svg id="Layer_1" data-name="Layer 1" xmlns="http://www.w3.org/2000/svg" viewBox="0 0 529.11 429.96"><defs><style>.cls-1{fill-rule:evenodd;}</style></defs><path class="cls-1" d="M91.32,78.72c-7.08,2-12.36,5.88-16,11.64A136.28,136.28,0,0,0,55.2,149.52a65.88,65.88,0,0,0,5,33.36A291.1,291.1,0,0,0,97.08,245.4,315.11,315.11,0,0,1,150.84,353a142.89,142.89,0,0,1-3.6,89.52c-4,10.68-10.44,19-19.68,24.6a62,62,0,0,1-15.6,6.72q-30.6,8.1-53.4-12.6a12.93,12.93,0,0,1-3.84-5.16A262.89,262.89,0,0,0,36.24,419.4H34.68L33,420l-1.08.72a9.22,9.22,0,0,0,0,7.56,97.73,97.73,0,0,1,7.44,23.52c2.76,14.4,10.56,25.44,23.64,33,17.64,10.32,37.08,11.88,58.08,4.8a24.84,24.84,0,0,0,9.48-5.88c15.72-16.08,25.32-35.76,29-58.92q9.36-61-16.08-117.84A508.3,508.3,0,0,0,74.28,194.4a42.76,42.76,0,0,1-7.8-15.24,100.76,100.76,0,0,1-.36-53.4A39.87,39.87,0,0,1,75,108.6Q99.66,80,130.8,103.08a18.21,18.21,0,0,1,7.2,11.28q2.7,14,9.72,21.24a44.78,44.78,0,0,0,.48-15.48Q142.62,78,98.52,76.56ZM271.44,86q-4.5,59.4-6.36,119.4c-.6,22.44-1,45-1,67.56l-49.8,3.24c-6.12.48-10.44,1.92-13.2,4.44-.24-23.88-.12-47.88.36-71.76q1.26-65-.72-128.28a251.43,251.43,0,0,0-6.12,55.44q-.36,64.26,1,129.12c.84,42.84,1.92,85.92,3.24,129a507,507,0,0,1-2.28,64.8c-1.32,12.84.6,23.28,5.52,31.56A65.84,65.84,0,0,0,205.92,467c-.84-42.84-1.92-85.8-3.48-129-.6-15.24-1-30.36-1.08-45.6a258.53,258.53,0,0,1,62.76-5.4l.6,47.4c1.08,42.72.84,85.44-.48,128.28-.36,11.88,1,22.68,4.2,32.16,4.56-8.4,6.72-18.12,6.36-29q-2-64.44-3.6-128.88c-.36-18.6-.6-37.08-.6-55.56v-4.08c0-23.16.36-46.32,1.2-69.48l3.6-128.28Q271.8,81.18,271.44,86ZM365,271c-12.72-1-24.12,1.2-34.32,6.48l.72-6.48q7-63.54,17.64-126.24c1.32-7.44,2.28-14.88,3.12-22.2q4.14,52.92,9,105.6ZM352.44,82.44a2.81,2.81,0,0,0-1.92,2.76l-.24,4.68A239.84,239.84,0,0,0,342.84,131c-1.68,17.64-3.48,35.4-5.4,53.16q-5.58,48.42-12.36,96.6l-1,.6-.24,1.68a8.62,8.62,0,0,0,.36,4.32l-3.6,23.52q-9.54,63.18-20.16,126.36c-1.8,10.56-4,20.88-6.72,31.08-2.76,10-1.2,17.4,4.44,22.44l.48-.6q2.52-8.28,4.32-16.92a61.2,61.2,0,0,1,.84-12.24q11.16-63,19.8-126.48c2-15.36,4.08-30.72,5.88-46.2a133.68,133.68,0,0,1,36.6-4.56l6.24,71.76,11,126c-1.2-1.2-2.16-1.44-3-.72a131.86,131.86,0,0,0,8.16,19.2,4,4,0,0,0,1.32-1.56,38.94,38.94,0,0,0,2.28-18.6q-6.66-63.72-12.6-127.44c-2-23.4-4.32-46.92-6.72-70.32,1.56-3.72,1.32-6.6-1-8.76l-5.16-48.12a400.7,400.7,0,0,1-2.52-48,393.59,393.59,0,0,0-10.68-93.36l-.12-2.64c-.36,0-.6,0-.6.12ZM553.68,104c-3.24,36.12-7,72.24-11.4,108.24q-7.74,63.54-14.16,127.32c-3.24,32.52-7.8,64.92-13.44,97.08q-2.34-14.76-5.4-29.52a916.52,916.52,0,0,0-32.64-118.68l-.12-7.08a1.57,1.57,0,0,0-1.68,1.2L473.76,286l-.48,1.68a255.38,255.38,0,0,0-10,47.52A1014.29,1014.29,0,0,1,445.2,445.92q-5.22-55.8-12.6-111L415.8,208.2q-8.46-63.72-17.28-126.72c-2.76,4.08-3.72,9.24-3,15.36,4.8,42.6,10,85.08,15.6,127.68,5.64,42.12,10.92,84.36,16.08,126.6,5.16,42,8.4,84.24,10,126.6.36,10,3.36,17.28,9,21.72a7.67,7.67,0,0,0,1.56-4.8c.12-5.52.12-11-.12-16.44q9.18-42.66,16.2-86.4l9.84-63c1.2-8.16,2-16.2,2.52-24,1.08,5.16,2.28,10.44,3.72,15.72q16,61.74,27.72,124.44c1.08,5.4,1.92,10.92,2.52,16.32l-1,4.68c-1.68,8.88-.6,15.84,3.36,21a44.38,44.38,0,0,0,8.88,19.56c.48-.6.72-1.08.6-1.56-.72-13.8-1.92-27.48-3.48-41.16,3.12-18.72,5.88-37.56,8.28-56.4Q534.72,343.86,540,280c3.48-42.36,8.64-84.6,15.72-126.48A316.26,316.26,0,0,0,560,90.12C556.32,93.48,554.28,98.16,553.68,104Z" transform="translate(-31.11 -76.56)"/></svg>