<svg id="Layer_1" data-name="Layer 1" xmlns="http://www.w3.org/2000/svg" viewBox="0 0 519.02 299.28"><defs><style>.cls-1{fill-rule:evenodd;}</style></defs><path class="cls-1" d="M92.88,102.12a36.84,36.84,0,0,0-14.4,20.16q-12.24,41,9.72,79.32c10.92,19.32,21.6,38.64,32,58.2,15.24,28.68,17,57.6,5.64,86.52-6.6,16.92-18.6,24.24-35.88,22.08q-31.86-4-51.6-26.64a42.09,42.09,0,0,1,1.8-5.88l-3.36-4c-5.4,6.6-5.52,15.24-.24,25.92a47.9,47.9,0,0,0,20.16,21,77.15,77.15,0,0,0,43.32,10.44,21.71,21.71,0,0,0,16-7.92q42.12-50.58,15.48-112.08-22.32-51.48-46.8-102Q71,138.84,94.56,119.16c8.64-7.2,16.68-7.32,24.24-.48a81.33,81.33,0,0,1,18.12,23.64,16.75,16.75,0,0,0,1.8-12.24Q132.78,100.2,103.8,96.6A36.05,36.05,0,0,0,92.88,102.12Zm126-3.84a150.48,150.48,0,0,0-5.16,46.44c.6,14.4.6,28.8.24,43.32l-1.08,42.36-1.32-1.2a132.9,132.9,0,0,0-38.52,7L175.8,99l-2.16-1.56q-13.86,67.68-10.44,142.2c1,21.12,1.32,42.24,1.2,63.48l-1,64.32-.12-.12c-2.76,7.68-1.68,17.16,3.36,28.56a275,275,0,0,0,8.16-94.56c-1.44-17.88-2-35.88-1.92-53.88a75.73,75.73,0,0,0,31.8-1.44l4-.6h3.84q2.16,62.46-.84,124.68A24.6,24.6,0,0,0,212,376a22.86,22.86,0,0,0,1.8,5.52l2.64,5.16a280.73,280.73,0,0,0,8.28-95.4c-1.68-21.36-2.4-42.72-2.16-64.2l.6-73c.12-8-.24-16.2-.84-24.36l-1.44-15.84-1-7.8Zm148.68,178.2a154.45,154.45,0,0,1-23,61q-21.78,33.66-59.76,20.16c-14.52-5.16-24-15.12-28.2-29.64a260.47,260.47,0,0,1-4.68-126.72c2.28-10.92,4.92-21.72,8.16-32.28A101.28,101.28,0,0,1,295,117.48l1.68-.72,15-3.36,2.76.12,1.08.36a15.7,15.7,0,0,1,3.72,3.24A31,31,0,0,0,339.84,128a56.75,56.75,0,0,1,8.88,11.16,95.36,95.36,0,0,1,9,19.44A250.87,250.87,0,0,1,367.56,276.48Zm3.72-113.88q-9.36-47-51-65.76l-1,.36-.6.24-.84.48-1.2,1.68-.72,1.56-.24.6c-11.28-1.92-20.88,1.2-28.8,9.24a151,151,0,0,0-38.16,67.56,330.29,330.29,0,0,0-8.52,127.92,116.15,116.15,0,0,0,16,46c12.6,20.76,31,30,55.32,28a32.13,32.13,0,0,0,18.24-7.56c25.56-21.36,40.56-49,45.24-82.92A381.09,381.09,0,0,0,371.28,162.6Zm73.56-49.8c-16.68,8.28-28.08,21.24-34.2,39.12a378.14,378.14,0,0,0-20,98.88L386.4,305c-2.28,26.28,7,47.16,27.6,62.4,7.56,5.52,15.6,6.6,24.12,3.12,19.56-7.8,29.16-22.2,28.68-43.44h-.12a30.56,30.56,0,0,1-7.56,5.52,35.75,35.75,0,0,0-4.2,6,19.14,19.14,0,0,1-8.64,8.52q-29.52,14.76-46.92-13.2a277.06,277.06,0,0,1-3.48-70c1.56-21.24,4-42.48,7.2-63.48,4.2-28.2,16.32-51.72,36.36-70.32l2-.84a18.8,18.8,0,0,1,11.76-1.92l6.6,4.32a2.22,2.22,0,0,0,2.88.24,13.13,13.13,0,0,0,.12-8,16.83,16.83,0,0,0-7.44-9.72,2.31,2.31,0,0,0-1.44-.48Zm104.4,1.68q-22.14,41.4-42.12,86.28-5.58,13-12.24,25.2l2.64-47.4a418.72,418.72,0,0,0-1.32-64.08c-3.24,1.56-4.92,4.44-5.16,8.88-1.08,26.76-2.52,53.52-4.08,80.28q-3.6,64.26-8.64,128.28a116.38,116.38,0,0,1-2.52,16c-3.24,14.52-2.4,27.84,2.52,39.84A7.13,7.13,0,0,0,482,382.2q4.86-37.44,7.56-75.24l2.76-40.08c4.8-13.68,10-27.24,15.48-40.56a158.5,158.5,0,0,0,5.52,35.28q17.1,61.74,32.64,122,7.74-7,5-19.08-14.22-62.1-30.72-124.2a125.34,125.34,0,0,0-8.52-23.76q13.86-32.4,30.24-64Q551.94,133.56,549.24,114.48Z" transform="translate(-32.71 -96.6)"/></svg>