<svg id="Layer_1" data-name="Layer 1" xmlns="http://www.w3.org/2000/svg" viewBox="0 0 294.52 219.6"><defs><style>.cls-1{fill-rule:evenodd;}</style></defs><path class="cls-1" d="M314.64,297.48q28.44,13.68,28.44,47.76a45.08,45.08,0,0,1-11.16,25.56c-15.24,17.28-32.28,20.52-51.36,9.84a85.08,85.08,0,0,1-10-33.12q-4-42.12,35.88-51.84A18.12,18.12,0,0,1,314.64,297.48ZM270,314.64a157.49,157.49,0,0,0-4.92,35.52q-1.08,34.38,25.44,52.2c6.84,2.52,13.2,2,19-1.44,19.56-4.44,31.92-16.32,36.84-35.4q11.52-44.82-17.88-78.72l-2.4,1.08-.6.24a9.28,9.28,0,0,1-4.56-2.88l-1.08-.84a6.16,6.16,0,0,1-2.88-1.2c-2.76-2.28-6.36-2.52-10.68-.72C286.92,285.48,274.8,296.16,270,314.64ZM227.28,189.72a293.21,293.21,0,0,0-3.6,58.44A1184.48,1184.48,0,0,1,221.4,377c-1,12,.24,22.8,3.72,32.28a5.8,5.8,0,0,0,3.24-5.28c2-28.56,3.24-57.24,3.84-86.16l.24-20,18.36-1-1.32,45.6a471,471,0,0,0,2.16,64.2,2.27,2.27,0,0,0,1.2-1.2,615.34,615.34,0,0,0,5.88-81.84V295.92l1.56-.24.48-.48c3-5.64,2.28-10.08-2.16-13.2q-.36-43.74-1.8-86.64a262.48,262.48,0,0,0-5,50.64L251,282.24a89,89,0,0,0-18.6,3.36q-.54-48.24-4.68-95.88Zm-46.56,2.4c-13,3-20.64,11-23.16,24.12a66.07,66.07,0,0,0,5.16,42.48q14.58,30.78,31.56,60.72,16.2,28.8,3.36,57c-4,8.28-10.2,12.12-19,11.52q-30.78-2.16-23.4-28.44c-1.8-2.4-4.08-2.88-6.84-1.56l-.72.48c-5.4,20.52,1.08,35.52,19.44,45.24,9.48,5,17.4,3.72,23.88-4q32.22-38.16,11.88-85.32a107.65,107.65,0,0,0-17.4-27.48C170,269,162.72,248.76,163.32,226.2c.12-5.88,2.64-10.2,7.32-13,15-8.64,29.16-8,42.36,1.92a15.45,15.45,0,0,0-4.32-13.68c-2.16-2.28-4.44-4.44-6.84-6.6l-2.28-1C193.92,191,187.56,190.44,180.72,192.12ZM434.16,234q9.36-20.16,4.68-38.88a217,217,0,0,0-21.72,55.2q-15.12,61-27,122.28a566.11,566.11,0,0,0-19.92-85.2q-9.9-31.14-17.64-62.76c-3.48-14-10.8-23.4-22-28.2l-.6.84a9.71,9.71,0,0,0-.24,8.16,30.45,30.45,0,0,1,12.72,16.68L358.8,274a589.38,589.38,0,0,1,20.76,94c1.56,11.52,4.56,21.6,9,30.12a14.32,14.32,0,0,0,5.64-9q13-62.46,28.92-124.08A186.26,186.26,0,0,1,434.16,234Z" transform="translate(-145.88 -189.72)"/></svg>