<svg id="Layer_1" data-name="Layer 1" xmlns="http://www.w3.org/2000/svg" viewBox="0 0 497.71 309.33"><defs><style>.cls-1{fill-rule:evenodd;}</style></defs><path class="cls-1" d="M115.56,139.92c10.2,3.12,17.28,9.72,21.36,19.68L135,163l.36-.24,1.08-.6,1-.12q.18-.18.72.36l1.44,1.32,2.4-.36q4.5-22-15.12-36.72c-10.44-7.8-21-8.88-31.8-3.24-14.52,7.56-21.48,20.16-21,37.56q1.44,52.38,33,97.56,28.44,40.86,20.4,88.92c-2.52,15.24-10.2,26.4-22.8,33.36a54,54,0,0,1-37.92,5.64,67.84,67.84,0,0,1-21.72-8,83.14,83.14,0,0,1-12.48-8.76l3-1.32-1.92-5.16-11-10c-4.92,12.72-2.28,24.12,7.68,34.32a78.56,78.56,0,0,0,46.44,23.4c22.92,3,39.12-6.36,48.84-27.84a119.86,119.86,0,0,0,10-62.4q-6.12-59.4-38.88-110.88c-4.08-6.48-8-13.08-11.76-19.68-9-15-7.92-29,3-42.36C94.8,139.2,104,136.56,115.56,139.92Zm110.28,7.56-3.48,115a248,248,0,0,0-46.56,4.68l2-51.72a602.86,602.86,0,0,0-4.2-95.76c-.84-.24-1.44,0-1.56.84a112.82,112.82,0,0,0-2.16,20.28q-.54,63.9-2.64,128.16l-.12,4L167,274c-1.56,41.4-4.32,82.32-8.52,122.64-.48,8.64,1.56,15.12,6,19.32a593.78,593.78,0,0,0,7.92-72.24l2.88-63.36A355,355,0,0,0,221.88,279c-1.32,42.12-3.24,84.36-5.76,126.48q-.9,15.3,6.84,23.4,4.86-56.16,6.24-113.64c1.08-43.08,2.52-86,4.56-129a543.48,543.48,0,0,0-.6-64.2C228.6,129.12,226.2,137.52,225.84,147.48ZM385.68,264.72a240.07,240.07,0,0,0-12-93.84q-11-32.4-40.92-44.76l-1.2,1-.72.6-.48.36-1.68-.6a51.58,51.58,0,0,0-19.2-2.4l-4.8,2c-17.16,7-29.4,19.56-37,37.8A319.41,319.41,0,0,0,246,247.2a460.28,460.28,0,0,0,1.8,128.4q5.4,35.28,38.64,49.68a21.59,21.59,0,0,0,11.88,1.56c23.64-3.84,41-16.68,52.44-38.4A306.13,306.13,0,0,0,385.68,264.72Zm-16.08-71.4a263.85,263.85,0,0,1-2.76,126.12,213.32,213.32,0,0,1-26.4,60.36A57.36,57.36,0,0,1,312.6,403c-15,6-29.28,3.36-42.72-7.8a17,17,0,0,1-5.28-7.2q-20-49.86-14.4-105l3.12-32.52q4.86-59,41.64-104.64l1.68-.6a78.55,78.55,0,0,1,18.24-4c12.6-.72,22.2,3.84,29,13.56l.84.6,1,.48,1.2.36.72.12c4.44,1.68,8.52,5.64,12.12,11.76A86.64,86.64,0,0,1,369.6,193.32Zm55.68-49.08a49,49,0,0,1,16.32,2.64q45.36,15.48,60,63.24,19.8,64.44-8.28,125.76-25.74,56.34-87.12,65.76a113.11,113.11,0,0,0,2-14c1.08-11.28,2.16-22.68,3-34.08q3.6-47.88,5.4-96,2-57.6,1-113.88Zm-4.32-16a11,11,0,0,0-6.72,1.92,11.81,11.81,0,0,0-1.56,6.48,12.26,12.26,0,0,0,1.2,4.68l.72,1.08a402.72,402.72,0,0,0-4.08,67.32A843.82,843.82,0,0,1,403.68,338c-1.8,14.64-3.36,29.16-4.56,43.44h.12l-.48,5.52-1.08,15.12a20.82,20.82,0,0,0,0,14.76,13.32,13.32,0,0,0,1.92,4.68,78.3,78.3,0,0,0,45-11.28Q502,375.72,514.2,308.64a218.86,218.86,0,0,0-14-126.24c-13.2-31.32-36-49.44-68.28-54.12C428.4,128.4,424.8,128.4,421,128.28Z" transform="translate(-20.15 -119.55)"/></svg>