<svg id="Layer_1" data-name="Layer 1" xmlns="http://www.w3.org/2000/svg" viewBox="0 0 595.57 842.18"><defs><style>.cls-1{fill:#fff;}.cls-2{fill:none;stroke:#fff;stroke-linecap:round;stroke-linejoin:round;stroke-width:0.38px;}.cls-3{fill-rule:evenodd;}</style></defs><rect class="cls-1" x="0.31" y="0.31" width="595.08" height="841.68"/><rect class="cls-2" x="0.19" y="0.19" width="595.2" height="841.8"/><path class="cls-3" d="M48,442l.12-.12C46.68,440.76,46.68,440.88,48,442ZM88,40.08,80,39.72a14.15,14.15,0,0,1-6.36,2.16A52.69,52.69,0,0,0,58.2,46C44.4,56.28,36.84,70.08,35.4,87.36Q32,126.06,56,154.8A343.91,343.91,0,0,1,118.8,265.32a397.91,397.91,0,0,1,14.16,53,199.91,199.91,0,0,1-3,90.36Q119.16,449.94,80,463.08a18.14,18.14,0,0,1-6,1.08c-16.32.6-29.4-6.36-39.36-20.64l1.92-2,.24-.12a12.54,12.54,0,0,1-.84-5.28,3.9,3.9,0,0,1-2.4.84l-.24-13.8c0-4.2-1.68-7-5.16-8Q14.52,446.4,38.28,472.2c10.8,11.88,23.52,16.2,38.28,13.08,13.8-3,25.32-9.48,34.44-19.68,19.56-21.84,30.24-47.4,32.28-76.56a368.08,368.08,0,0,0-12.36-122.88,255.57,255.57,0,0,0-59.64-107A105,105,0,0,1,44.4,107.28c-4.92-24.12,4.2-39.84,27.12-47.16a25.41,25.41,0,0,1,14-.36c19.44,5,30,18.36,31.8,40.08,2.76-2.76,4-6.36,3.84-10.92Q119.94,58.14,94.68,41.4A25.66,25.66,0,0,1,88,40.08ZM218.4,96.84q.9,64.08,2.88,128.28l1.2,35.52h-.12L185,259.2l-1.08.48-2.16.48-7.56.84-2.28.48-1.56-46.56c-1.56-42.84-1.44-85.8.24-129.12a204.61,204.61,0,0,0-1.32-32.52c-5.28,6.48-7.92,14.64-7.8,24.36q.54,64.8,2.16,129.12l2.88,129q1.26,64.44-2.88,128.28v.84a47.77,47.77,0,0,0,2.4,17.88c1.08,0,1.56-.12,1.68-.48a132.44,132.44,0,0,0,6.84-41.76q.72-65-1.08-129l-1.08-36c17,1.08,33.84,1.44,50.52,1.08l2.64,76.8a555.17,555.17,0,0,1-1.32,64.8,231.9,231.9,0,0,0,3.48,64.2,2.32,2.32,0,0,0,2.76-2.4q2.52-18.9,3.24-38.16A1271.41,1271.41,0,0,0,232,313.56c-2.64-42.84-4.2-85.92-4.56-129q-.54-65.34-1.8-128.28C220.56,68.16,218.16,81.72,218.4,96.84ZM305.16,69.6l4.92.6,4.08,1,1.08,1.68.48.72.72.72,1.2,1,1.68.36.6.12.36.6a286.06,286.06,0,0,1,20.52,62.16,778.83,778.83,0,0,1,15.48,129.36A504.53,504.53,0,0,1,344.4,396.6q-9.72,43-43.32,69.36c-19,2.16-29.88-6.24-32.76-25.08a724.14,724.14,0,0,1-8.4-128.28c.84-43.32,1.32-86.28,1.32-129.12q-.18-60.3,28.8-111.24l2.16-.48A76.9,76.9,0,0,1,305.16,69.6Zm51.36,99a469.77,469.77,0,0,0-30-106.08l-1.32-.72-1.08-.36-1.92-.24-1-1c-5.64-5.52-12.72-7.68-21.48-6.36-11.4,1.56-19.32,7.8-23.64,19a335.09,335.09,0,0,0-22.2,122.28c.12,42.6-.36,85.44-1.56,128.28a746.59,746.59,0,0,0,6.72,126q5,36.54,41.28,37.68,34.74-22.86,45.72-63.84a548,548,0,0,0,18.48-127A686.46,686.46,0,0,0,356.52,168.6Zm79.92,235.56v-3.72a148.68,148.68,0,0,0-24.6,30.84l-2,3.72,1.68-35.4a523.61,523.61,0,0,0-13.2,70.68,45.44,45.44,0,0,0,.84,15.6c.72,3.12,1.92,5.4,3.6,6.72l5.4-40.08,10.44-13.44,8.28,46-1,2,5.28,8.28a41.59,41.59,0,0,0-.36-25.92c-2.88-8.52-5.52-17.16-7.8-26.16l-2.16-7.2A64.55,64.55,0,0,0,434.28,415,33.27,33.27,0,0,0,436.44,404.16Zm-65.28-3.72a88.06,88.06,0,0,0-19,43.08,65,65,0,0,0,7.2,41.88c5.52,10.2,13.56,11.16,24.24,3.12,8.76-6.72,10.44-14.64,4.92-23.64l-4.92,5.4-.12,2.4c-3.24,5.16-7.92,7.44-14,7.08-4.44-.6-7.56-3.24-9.36-7.68q-13.14-33.3,12.12-60.84l7.68,2.76a4.89,4.89,0,0,0,1.56-3,11.89,11.89,0,0,0-.48-4.08,11,11,0,0,0-1.92-3.72A6.12,6.12,0,0,0,376.2,401l-.6-.12Zm13.56-114.12c10.2-2.4,17.28,1.2,21.12,10.8l1.32,3.24-5.64,11.28-16.44,3.84Zm-.24-10.56A679.07,679.07,0,0,0,377,366.84l.12,7.68a36.78,36.78,0,0,0,4.68,16.32L385,326.76c8.64,1.8,15.72-.72,21.12-7.56a17.9,17.9,0,0,0,2.16-3.6A37.38,37.38,0,0,0,411,293a16.55,16.55,0,0,0-4.56-9.12,28.26,28.26,0,0,0-17.88-9ZM374.4,73.08q18.72,18.18-1.44,39.6a19.91,19.91,0,0,1-6,4.56l-.12-43.8Zm-7.8-9.48L366.36,59l-1.56,5a122.1,122.1,0,0,0-4.08,37.44A273.36,273.36,0,0,1,359,145.8a52.43,52.43,0,0,0,4.32,28.44l3.24-45.72,3.6.36,4.08-3.24A112.21,112.21,0,0,0,388.08,177a75.87,75.87,0,0,0-4.44-36l-7-17.52a59.23,59.23,0,0,0,12.6-34.32,30.5,30.5,0,0,0-1.56-10.92c-3-8.52-9-13.2-18.12-14.16Zm23.88,1.08V72l23.76,5.28q-7.38,85.5-8.16,171a59.09,59.09,0,0,0,3,19.32,1678.18,1678.18,0,0,0,8.28-190.32l20.16-3.12,1.08-5.64-1.44-4.44A144.13,144.13,0,0,1,392.88,63ZM536.4,92.88q-4.86-34.74-42.84-36a60.65,60.65,0,0,0-8.76,5.28,17.81,17.81,0,0,0-5.64,6q-23.94,41-10.08,88.08c4.68,16,9.84,31.92,15.72,47.64q21.6,58.86,38.64,119.76a188.36,188.36,0,0,1,1.32,99.6q-11.52,45.54-57.24,51.12a27.16,27.16,0,0,1-8.76-10.68A21.9,21.9,0,0,0,455,458l-.72-3.12-1.08-3.24-.6-1a2.13,2.13,0,0,0-2.88-.6l-1.44.6c-4,14.28-.72,27.36,9.72,39a9.61,9.61,0,0,0,6.72,3.36c25.32,2,43.92-8.64,56-32.16q28.26-55.26,16.32-118.2a705.33,705.33,0,0,0-28.8-106.56A624.76,624.76,0,0,0,483.6,176.4q-20-41.94-7.56-85.8a16.09,16.09,0,0,1,9.36-10.68c20.76-8.88,37.08-3.36,49.2,16.68A3.24,3.24,0,0,0,536.4,92.88Z" transform="translate(0.19 0.19)"/></svg>