<svg id="Layer_1" data-name="Layer 1" xmlns="http://www.w3.org/2000/svg" viewBox="0 0 302.34 208.68"><defs><style>.cls-1{fill-rule:evenodd;}</style></defs><path class="cls-1" d="M245.88,200.28a74.37,74.37,0,0,0-3.72,23.52c-.36,42.84.36,85.56,1.92,128.16l-3.24,25.8c-1.32,10,.12,18.36,4.32,25.44a345.17,345.17,0,0,0,4.44-72.36l-.84-26.76c11.16-.24,22.56-1.08,34.08-2.4q-.9,49-2.52,97.68c.6,2,1.68,2.52,3.48,1.56a544,544,0,0,0,5.76-77q.18-64.44-2.28-128.28a133.77,133.77,0,0,0-4,36.6c.24,13.08.24,26.16,0,39l-.24,18.24-8.16-.48a89.5,89.5,0,0,0-26.4,5q-1.26-45.72-.72-91.32l-.36-.72Zm-59.76.24c-11.52,9.12-15.6,22.56-12.24,40.2a122.38,122.38,0,0,0,17.52,43.56,168.74,168.74,0,0,1,19.92,42.36c5.16,16.56,2.88,31.2-6.6,43.8q-16.92,22.14-35.64,3.12c-11.4-11.64-14.88-25.68-10.32-42.12a11.17,11.17,0,0,0-.72-7.32c-8.52,15.72-9.6,31.8-3.24,48.36A60.47,60.47,0,0,0,173,397.68c6.12,5,12.72,5.88,19.92,2.4C206,394,214.2,383.88,217.2,369.6q6.84-32.4-9.84-61.2-24.84-43.2-23.64-88.2c.12-2.28,1.44-4,4.08-5,14.52-5.64,25.68-1.8,33.72,11.64a7.78,7.78,0,0,0,3.72,3.36c3-9.72-1.44-18.12-13.44-25A39.58,39.58,0,0,0,186.12,200.52Zm167.52,93.36c-1,18.12-1.68,36.6-2.16,55.2-.6,20.28-10.8,30.48-30.36,30.84-8.64-5.52-12.6-13.32-11.76-23.52A553,553,0,0,0,310.92,289a1.74,1.74,0,0,0-2.16,1.68c-1.92,17-4.2,34-6.84,50.88-3.48,22.68,2.76,40.8,19,54.6,18.36.6,29.76-8.4,34.2-26.88a219.18,219.18,0,0,0,6-50.28C361.08,307.8,358.56,299.52,353.64,293.88Zm28.92-80.76-.12,1.92L380,271.8c-2,42.84-3.12,85.56-3.36,128.4a2.32,2.32,0,0,0,2.16,2.16,3,3,0,0,0,.84-1.44q4.86-36.54,6.36-73.8l.84-28.2c13.32.6,26.52.6,39.84,0a11.62,11.62,0,0,0,1.32-7.2l-.36-1.68-.24-.72-.72-1.68-.84-.48-27.6-1.44-11.16.48q.54-36-.12-71.76a532.33,532.33,0,0,0,64.56-6.36A10.35,10.35,0,0,0,453,201.6a11.69,11.69,0,0,0-1.44-4.92l-.84-.6a36.66,36.66,0,0,0-8-1.56,389.26,389.26,0,0,1-55.92,7.2l-.12-2.88-1.44,3h-1.56a8.52,8.52,0,0,0-2.28,5.4A10.39,10.39,0,0,0,382.56,213.12Z" transform="translate(-150.72 -194.52)"/></svg>