<svg id="Layer_1" data-name="Layer 1" xmlns="http://www.w3.org/2000/svg" viewBox="0 0 520.98 346.92"><defs><style>.cls-1{fill-rule:evenodd;}</style></defs><path class="cls-1" d="M163.2,146.4a43.2,43.2,0,0,1,10.44,27.84c4.32-3.24,6.48-7.92,6.36-14q-.72-36.18-37.2-40.08l-4.92,1.2a29.22,29.22,0,0,0-17.28,9.24c-20,21.48-24.6,46.68-13.44,75.72a92.76,92.76,0,0,0,17.52,28.8,228.6,228.6,0,0,1,55,110.88,69.72,69.72,0,0,1-7,47.16Q154.14,427.86,115.8,440C97.44,445.92,83,442.2,72.36,428.88c-6.36-8-9.24-15.48-8.52-22.44l.36-.36.24-.6a24.62,24.62,0,0,1-2.16-5.88,19.57,19.57,0,0,1-5.64-9.12A3.07,3.07,0,0,0,53.52,388a6.55,6.55,0,0,0-2.88,5.76A102.39,102.39,0,0,0,58,431.64q14.4,36.9,54.12,27.48c27.72-6.6,48.84-21.72,63.6-45.36a96.61,96.61,0,0,0,14.16-61.08Q183.9,291.48,144,244.92a166,166,0,0,1-31.44-54.84q-12.78-37.62,23.76-50.52C147,135.72,156,138,163.2,146.4Zm51.48,59.28.24,41.28c.12,15.72,0,31.44-.6,47q-.9,22-3.6,44.64C209.4,349.32,208.56,360,208,370.8L206,403.08l-2.16,32.4-1.8-2.28a22.08,22.08,0,0,0,.84,8.76,50,50,0,0,0,5.28,13h.48a282.76,282.76,0,0,0,5.64-42.84l1.08-24.84,2.64-65.4.84-21.84,57.24,2.52L270.48,447l4.44,8.4a313.71,313.71,0,0,0,5-45.6c1-26.52,2-52.8,3.12-79.08l3.36-80.4A1027.32,1027.32,0,0,0,285,138.24l-.24.12a228.09,228.09,0,0,0-4.32,34.08c-.6,12.6-1,25.08-1.08,37.56-.12,25.68-1,51.36-2.28,76.92l-57.72-1.2L221,129.84a133.31,133.31,0,0,0-6.6,41.76Zm163.56,18c10.2,6.36,18.12,17.52,24,33.48a105,105,0,0,1,6.24,45.48,131,131,0,0,1-11.76,44.16c-7.08,15-18.84,21.48-35.52,19.68-15.84-1.56-27.84-9.24-36.12-23.28a66.9,66.9,0,0,1-9.36-40.68,216.47,216.47,0,0,1,8.16-43.92,81.72,81.72,0,0,1,23.28-37.92c4.44-4.2,7.8-5.4,10-3.6L359,214.8l1.92,2.28a24.47,24.47,0,0,1,12.12,3.24Zm-19-23.4a41.83,41.83,0,0,0-23.16,19.08Q303.18,276.06,316,342.24c5.64,28.92,24,43.08,55.2,42.24,8.76-.12,15.36-3.72,20-10.56Q429,318.3,410.88,252.6l-4.8-16.92q-9.54-33.48-43.56-37.92V198l-.48.24-1.92,1.2Zm177.24,13.44a365.63,365.63,0,0,0-22.32,112q-1.44,36.54,19.92,63.36c10,0,18.72-3.6,26.28-10.68,12.12-11.16,14.4-22.2,7-33.12l-.36.36c-1,4.92-3.84,10-8.76,14.88a1.93,1.93,0,0,1-.84.48,3.81,3.81,0,0,1-2.76-.6,32.06,32.06,0,0,1-17.76,9.6,45.49,45.49,0,0,0-5.4-6.48l-3-3-1.32-8.28a359.49,359.49,0,0,1-2.64-43.92A60.11,60.11,0,0,0,557.64,302l.48-1c3.6-7.2,2.64-13-2.88-17.16a85.92,85.92,0,0,1-30.36,8.76,358.74,358.74,0,0,1,6.6-52.8c3.24-15.72,12.48-22.08,27.84-19.08a27.81,27.81,0,0,1,3.12,7.2,3.27,3.27,0,0,0,2.52,2.28,8,8,0,0,0,2.76-7.08,23.42,23.42,0,0,0-10.92-19.44l-8-.24c-.84.36-1.8.84-3.12,1.32A14.87,14.87,0,0,0,536.52,213.72Zm6.6-67.08-1.56-2.52-1.2-1.56q-17.82,59-30.6,119.76-13.14,62.64-25,125.4a515.09,515.09,0,0,1-21.36,78.84c-.12.36-.72.48-1.8.48-6.36-39.72-12.6-79.8-18.48-120-4.68-31.32-9.84-62.64-15.72-93.72-4.68-25.32-10.08-50.64-16.2-75.72a130.89,130.89,0,0,1-4-30.36,6,6,0,0,1,2.4-4.92,714,714,0,0,1,28.08,119c1.56,10.68,3.36,21.24,5.4,31.92Q455,355.38,463.92,418.2a117.71,117.71,0,0,1,1.2,13.08q11.7-59.58,25-119.28,13.86-62.46,27-125.16a201.68,201.68,0,0,1,19.2-54A51.69,51.69,0,0,1,543.72,144Z" transform="translate(-50.64 -120.12)"/></svg>