<svg id="Layer_1" data-name="Layer 1" xmlns="http://www.w3.org/2000/svg" viewBox="0 0 273.86 215.04"><defs><style>.cls-1{fill-rule:evenodd;}</style></defs><path class="cls-1" d="M274,288.84A45.18,45.18,0,0,1,256,292c.84-33.48.48-66.6-1.08-99.6a147.2,147.2,0,0,0-6.36,46.56,1185.25,1185.25,0,0,1-4.92,129c-1.08,12.6.6,23,5,31.44,3-25.8,5-52,6.36-78.72l.6-15.12c12-.84,23.76-1.2,35.4-1-.12,17.88-.12,35.88,0,53.88a70.62,70.62,0,0,1-1.56,16q-3.78,18.9,3.6,31.68a318.54,318.54,0,0,0,5.28-80.28c-.6-8.76-.84-17.64-.84-26.4v-3.72c.12-11.52.6-23,1.44-34.68a527.46,527.46,0,0,0,1.44-64.32c-4.44,9.48-7,20.4-7.44,32.76-.84,20-1.32,40-1.68,60A64.44,64.44,0,0,0,276,287.88Zm-59.88-76.56a151.76,151.76,0,0,1,13.2,16.32l.12-.84c1.32-20.64-8.4-32.88-29.28-36.72q-34,19.08-28,60.84a44.9,44.9,0,0,0,8,20.28,216.33,216.33,0,0,1,35,80.4,47.37,47.37,0,0,1-9,16.08q-22.14,25.38-46.8.72a74.77,74.77,0,0,0,1.44-14.64c-.12-4.92-1.68-8.64-4.68-11.4a38.7,38.7,0,0,0-4.56,11.88c-3,14,.12,25.68,9.24,34.92,6.48,6.6,14.28,9.48,23.52,8.4,18.6-2,30.36-13,35.16-32.88a74.13,74.13,0,0,0-1.32-40,125.32,125.32,0,0,0-22.56-42.36,68.71,68.71,0,0,1-16.44-45.72c.12-18.72,9.12-29.4,27.12-32.16A27.54,27.54,0,0,1,214.08,212.28ZM413.4,292A69,69,0,0,0,411.84,323c3.24,19.2-1.44,35.88-13.8,50.16q-12.6,14.4-31.32,6.84c-7.56-3-11.4-8.64-11.28-16.92a693.37,693.37,0,0,0-3.12-76.32q-5,12.06-5,28.44A292.6,292.6,0,0,1,345.72,346c-1.56,17.52,2.4,33,12.12,46.44a14,14,0,0,0,10.8,6.12q37.08,3.06,47-33.12a182.73,182.73,0,0,0,6.72-48.6Q422.4,300.78,413.4,292Z" transform="translate(-148.54 -191.04)"/></svg>