<svg id="Layer_1" data-name="Layer 1" xmlns="http://www.w3.org/2000/svg" viewBox="0 0 516.48 531.72"><defs><style>.cls-1{fill-rule:evenodd;}</style></defs><path class="cls-1" d="M278.4,255.48,296.28,66.72,322.8,247.8ZM128.52,82.8q-12.06-47.34-63.6-47.4a26.94,26.94,0,0,0-8,3.24,17,17,0,0,0-6,5.64Q20.1,95.58,48.12,150.72c8,15.84,15.84,31.92,23.16,48.36a602.66,602.66,0,0,1,39.12,121.2,477,477,0,0,1,9.48,119.16,128.81,128.81,0,0,1-18,61c-13.32,22.44-32.64,30.6-58.2,24.48a15.15,15.15,0,0,1-9-5.76c-8.16-10.56-12.36-23.28-12.72-38l.84-2.52.72-1.56.24-.84v-.84c-.24-.12-.6,0-1,.48l-.6.72c-.48,1.08-.84,1.2-1.2.6l-1.44-2.4-1.2-1Q12.42,497,22,522c7.8,20.52,24,28.8,48.36,25.08q30.42-11.7,42.72-40.68a187.75,187.75,0,0,0,14.64-67.32A541.11,541.11,0,0,0,117.12,314.4,663.08,663.08,0,0,0,81.84,197.16a164.23,164.23,0,0,0-15.36-29q-25.56-38.7-23.76-83.64A35.17,35.17,0,0,1,49.2,65.16q17.1-24.84,47.52-7.68,26.28,14.94,30.12,43.2A25.42,25.42,0,0,0,128.52,82.8ZM339,57.72c10.2-2.16,16.8,1.92,19.92,12.36q10.26,34.92-20.88,51C338.64,99.84,338.88,78.72,339,57.72ZM216.24,46.92a402.71,402.71,0,0,0-6.36,71.28q-.18,64.44,0,129.12v7.56l-3.24-.24a104.86,104.86,0,0,0-44.16,8.16c-.36-31.56-.36-63.24.12-94.8.36-21.6,1.08-43.2,2.28-64.8A603.48,603.48,0,0,0,165,39c-.6-.12-.84,0-1,.36a680.69,680.69,0,0,0-8.52,116.52L156.72,285c.36,43.08.48,86.16.24,129a613.65,613.65,0,0,1-3.72,64.8A249.33,249.33,0,0,0,154,543c.84-.24,1.2-.6,1.2-1a842.15,842.15,0,0,0,9-115.92c.36-42.84.12-85.92-1-129L162.72,274q23.58-3.06,47.16-5l.48,107.4.36,128.28-.48.12c-.72,13.08-1,26-.6,38.88a3.75,3.75,0,0,0,3.6,1.92A181.5,181.5,0,0,0,218.76,497L217.2,368q-.72-64.44-1-129.12c-.12-43.08.36-86.16,1.44-129,.6-22,.72-43.44.36-64.2C217,45.6,216.36,46,216.24,46.92Zm78.6,2a67,67,0,0,0-5.64,22.68L278.76,198.48q-5.4,63.54-13.68,126.6-8.46,63.72-18.24,127.32c-2.52,16-5.64,31.8-9.36,47.4-4.08,16.44-4.92,32.28-2.4,47.52q1.26-.36,1.44-1.08a354.66,354.66,0,0,0,12.6-54.72q9.36-63.18,17.64-126.72,6.3-48.42,10.68-97.08c15.84-1.92,31.56-4.32,47.28-7.08q8.46,54.9,15.36,109.92c2.64,21,5,42.12,7.08,63.24l9.48,95.28c1.2,12.12,4.56,22.32,10,30.48a2.59,2.59,0,0,0,.72-1.68A143.3,143.3,0,0,0,366,518c-5.64-31.44-9.72-63.12-12.48-95-3.72-42.6-8.76-84.84-15.36-126.72q-9.9-63.18-19.08-126.6T296,44.16c-1.08-.24-1.68.12-1.56,1Zm76.8,329.88q-.9,42.3-1,82.8a108.12,108.12,0,0,1,36.84-4.08l.36-.6a9,9,0,0,0,.12-8.88,82.41,82.41,0,0,0-33.84.48l.12-.72c1.32-26.4,1.56-52.32.48-77.88C372.72,372,371.64,374.88,371.64,378.84Zm15.48-153.72-.48-7a74.83,74.83,0,0,0-22,0l-6.12.84-.12-2.52a265.41,265.41,0,0,0-7.92,77c.84,21.12,1.92,42.24,3.24,63.48a42.27,42.27,0,0,0,1.08,7.68l1.8,7.08A330.36,330.36,0,0,0,359,282L388,279.24l.24-8.16a52.79,52.79,0,0,0-24.84,1.56L359,274.08l-.48-49.56a53.4,53.4,0,0,0,21.36,1.92Zm93.24,35.52q2.7,64.44,2.28,129c-.36,43.2-1.32,86.28-3.12,129.12a114.23,114.23,0,0,1-1.8,15.84c-2.28,12-1.32,22.8,2.76,32.52a2.32,2.32,0,0,0,2.16-2.16,956.62,956.62,0,0,0,6.12-123.36c-.72-43.08-.48-86.16.6-129a527.5,527.5,0,0,0-4.8-87.48c15.48-1.68,30.84-3.72,46.32-6.24l.48-.84a13.31,13.31,0,0,0-1.56-13.68A1006.45,1006.45,0,0,1,412.92,216l-.6.6a11.83,11.83,0,0,0-.24,10.44,21.61,21.61,0,0,0,10.8,2.28c19.44-.6,38.88-1.8,58.2-3.84A285.14,285.14,0,0,0,480.36,260.64ZM385.68,180q2.16-65.16-1.2-128.28c-1.92,18.12-3.12,37.2-3.6,57.12-.48,19.2-1.08,38.64-1.92,58.32-.6,12.24.72,22.68,3.84,31.44A69.16,69.16,0,0,0,385.68,180ZM412.44,53.52l-.12.12a197.71,197.71,0,0,0-23.52,73.92,58.79,58.79,0,0,0,0,14.52l6.48-22A265.31,265.31,0,0,0,416.4,195.6a236.27,236.27,0,0,0-19.68-81.36l9.12-27.6A89.08,89.08,0,0,0,412.44,53.52ZM357.36,55a21.87,21.87,0,0,0-16-5.28l-1.2.6-1.2-2.4-1,3.6-1.2,1a860.58,860.58,0,0,0-4.32,151.32,307.82,307.82,0,0,0,5.4-72.84l10.56-7.8a218.33,218.33,0,0,0,20.16,78.12l-18.72-79.56q24.3-25,11.88-57.24A97,97,0,0,0,357.36,55Zm92,3.72-6.72-.48-3,1.56a153.17,153.17,0,0,0-16.08,73.8A400.94,400.94,0,0,0,427,175c.84,6.84,1.92,13.56,3.24,20.4l3.24,2.16,7.8-.24c11-5.64,18.24-14.16,21.72-25.56a18.94,18.94,0,0,0,.48-9.36A108.71,108.71,0,0,1,440.16,186a5.75,5.75,0,0,1-6.72.36l-1.32-.72a174,174,0,0,1-4.44-60l30.12-8.52v-8.64l-29.28,9.6A158.83,158.83,0,0,1,443,67.8l6.6.12,6,3.36.72-.72a5,5,0,0,0,.48-3.48,5.69,5.69,0,0,0-1.56-2.88l-1-.84Zm28.92-5.16c-.84.72-1.2,1.92-1.2,3.6.24,26-.36,52.08-1.8,77.88a567.7,567.7,0,0,0-.24,63.84,573,573,0,0,0,6.48-113.4q-.54-13.68-2.16-25.2v.12a54.12,54.12,0,0,1,11.76,7.8,53.28,53.28,0,0,1,17.52,29q11.34,48.78-16,87.12a5.23,5.23,0,0,0-3,1.8l-2.4,2.52L478.08,190a13.26,13.26,0,0,0-.84,4.92,13.5,13.5,0,0,0,.84,4.8,7.55,7.55,0,0,0,8.16,1.68A63.57,63.57,0,0,0,509.76,166a200.94,200.94,0,0,0,5.52-57.24q-1.8-39.42-34.8-55.44a4.51,4.51,0,0,0-1.68,3.12Z" transform="translate(-16.08 -35.4)"/></svg>