<svg id="Layer_1" data-name="Layer 1" xmlns="http://www.w3.org/2000/svg" viewBox="0 0 564.41 537.61"><defs><style>.cls-1{fill-rule:evenodd;}</style></defs><path class="cls-1" d="M448,511.44A14.9,14.9,0,0,0,445.2,499l-2.28-18.12L441,500.4l-31,11-.72-28.2a7.29,7.29,0,0,0-2.88,5c-2,14.28-3.36,28.44-4.2,42.72a131.74,131.74,0,0,0,3,36.12l4.56-46.92a67.65,67.65,0,0,0,15.48-1.44l3.84-.72a67,67,0,0,0,11.16-3.6,199.65,199.65,0,0,0-.6,45.48l1.56-.24a183.61,183.61,0,0,0,3.48-24A196.55,196.55,0,0,1,448,511.44ZM101.88,61.32A51.67,51.67,0,0,0,86,49.2l-3.24-.6a135.75,135.75,0,0,0-31.92-3.72,22.42,22.42,0,0,0-13.56,12A89.26,89.26,0,0,0,28.8,96.6,98.93,98.93,0,0,0,44,148.2a522.21,522.21,0,0,1,57.12,128.52,722.24,722.24,0,0,1,24.24,121q7,62.82-19.8,117.6a29.39,29.39,0,0,1-12.72,13.44c-13.68,7.32-28.68,9-44.88,5a18.2,18.2,0,0,1-7.92-4.32,49,49,0,0,1-15-31.2A152.93,152.93,0,0,0,17.88,463a12.19,12.19,0,0,0-4.2,9.24,119,119,0,0,0,20.76,69.72A17.76,17.76,0,0,0,48,550.08a196.84,196.84,0,0,0,34.68.24A17,17,0,0,0,91.32,547c17.64-13.8,28.8-31.8,33.48-54.24a361.43,361.43,0,0,0,3.72-127.56,770,770,0,0,0-19.68-92.88A377.08,377.08,0,0,0,56.52,159.6Q29.88,120.9,38,74.64C39.36,67.08,43.92,62.52,51.48,61c27-5.64,46.08,2.28,57,24C110.28,76.2,108,68.4,101.88,61.32ZM93.12,79.8a21.15,21.15,0,0,0-12.24-7L79,72.48q-26.1,23.4-19.8,61.2a43.22,43.22,0,0,0,15,26.52c5.4,4.56,11.4,5.64,18.12,3.24,7.8-6.48,10.56-14.16,8.4-23L90.24,151.8C76.08,155.16,67.56,149,64.8,133.56A58.67,58.67,0,0,1,69,98.76a63.55,63.55,0,0,1,9.72-14.88L93.12,88Zm118.2-27.36Q202.14,88.8,204,129.12q2.7,64.26,3.24,129l.36,40.32a245.18,245.18,0,0,1-51.48-.72l-1.2-.24Q152.22,237,150.6,176.4,149,111.24,151,48.12c-.6.12-.84.24-.84.48a165,165,0,0,0-6.48,50.16l2.88,129.12L148,299.64l-.24,1-.24.84v1.68a14.91,14.91,0,0,0,.48,4v.12l.84,49.68c.6,43.08.36,86-.48,129.12a240.78,240.78,0,0,1-2.88,32.16q-2.88,18.9,4.68,31.68a3.29,3.29,0,0,0,1.32-2.52c2.52-37.32,4.32-75,5.28-112.8q1.44-62.64-1.32-125.28a120,120,0,0,0,52.32,1.2q.54,38.34,1.44,76.68c1,43.08.24,86-2,129.12-.6,12.6,1.32,23,5.76,31.44q4.32-53.64,3.6-108.84-.9-64.62-2.52-129l-2.88-129.12C210.24,137.64,210.36,94.8,211.32,52.44Zm92.88,97.8q12.42,62.64,23.28,125.52l2.16,11.88c-18.24,4.92-36.12,10.56-53.52,17.16l6.6-59.88,13.56-127.2L298.2,96.6A302.18,302.18,0,0,0,304.2,150.24Zm-30-85.68q-8.82,43.74-16.68,86.76a269.21,269.21,0,0,1-5.52-35c-1.08-12.84-4.2-24.12-9.36-33.72l-.36.84q-3.78,32.58-9.84,64.08v-.84l-8.16-85.2a532.27,532.27,0,0,0,1.08,78c.84,10.2,3.12,18.72,7.08,25.68a260,260,0,0,0,11.88-61,225.48,225.48,0,0,0,13.2,61.68A329.58,329.58,0,0,0,275.4,63.6,1.71,1.71,0,0,0,274.2,64.56ZM300,54.36a314.05,314.05,0,0,0-12.24,68.88c-3,42.36-6.84,84.48-11.76,126.6-4.92,42.36-10,84.6-15.36,126.84q-8.28,64.08-21.12,127.44a137.67,137.67,0,0,1-4.2,15.72c-4,11.52-4,22.2,0,32.16.72-.24,1.2-.6,1.32-1.08a474.09,474.09,0,0,0,12.84-53q11.34-62.82,19-126.12l6.6-56.64a192.59,192.59,0,0,0,36.84-9.24,18.69,18.69,0,0,1,6.12-1.32c6.12-.36,10.8-1.68,13.92-3.84q9,50.76,19,101.28a1169.69,1169.69,0,0,1,17.64,125.76c1.08,12,4,22.2,8.88,30.48a2.54,2.54,0,0,0,1.2-2.4,1066.6,1066.6,0,0,0-13.68-120.12q-11-62.82-24.12-125.28l-4.32-20.76-.72-3.6q-10.44-50.4-20.16-100.92A945.19,945.19,0,0,1,300,59Zm127.32,332.4a15.81,15.81,0,0,1-5.28,1l-8.64,4.08c-11.4,10.44-17.4,23.64-18,39.36-.6,16,4.92,29.64,16.44,41A38.79,38.79,0,0,0,439,468a30.69,30.69,0,0,0,10-8.52,32.56,32.56,0,0,0,1.8,16.56,6.65,6.65,0,0,0,2.76,3.84A179.56,179.56,0,0,0,455,419.4l-26.4,6.72-.12,8.64,23.64-2.16-.6,8.16a44.23,44.23,0,0,1-21.6,16c-10.44,3.72-17.4,1.32-21.12-7.32q-17.1-40.14,25.44-51a91.48,91.48,0,0,0,10.92-4l-.36-3.72A14.11,14.11,0,0,0,436,385.8,16.27,16.27,0,0,0,427.32,386.76Zm-21.72-94c-6,13.68-12.12,27.24-18.48,40.8-6.48,14-9.6,28-9.36,41.64a91.68,91.68,0,0,0,7.2-19.08,296.84,296.84,0,0,1,22-48.24c1.92,15.24,3.24,30.36,3.84,45.6.36,10.44,2.4,19.44,5.88,26.88A702.19,702.19,0,0,0,444,307.92a519.2,519.2,0,0,0,20.88,75.48,2,2,0,0,0,.36-1.56,509.08,509.08,0,0,0-19.92-91,457.12,457.12,0,0,0-27.24,72v-.6c-2.28-24.6-5.28-49-8.76-73h-.12A14.06,14.06,0,0,0,405.6,292.8ZM461,179.4a66.28,66.28,0,0,1,8.76,39.84q-3.24,38-39,44.76a644.62,644.62,0,0,0,1.68-99.72,38.65,38.65,0,0,1,13.44,1.56L449.4,169A73.27,73.27,0,0,1,461,179.4Zm-30.36-14.88c-1.68,16-2.76,32.28-3.12,49a386.33,386.33,0,0,0,1.8,50.76l-1.08.12a13.51,13.51,0,0,0-1.32,5.76,8.6,8.6,0,0,0,1.68,4.8q31,1.26,41.64-29.52A107.67,107.67,0,0,0,476,209.16q-.72-39.78-36.6-53.28V156a11.19,11.19,0,0,0-8.64,1.2,6.85,6.85,0,0,0-1.68,4.92,4.83,4.83,0,0,0,1.08,2.4Zm-48,.12c11.88,14.52,8.4,26-10.68,34.56l-2.52,1V163.08L381,162.6Zm-13.8-5.52-.24,1.56c-3,24.6-5.4,49.92-7.2,75.72-.84,10.8.6,19.68,4.08,26.64l.36-.84c1.56-17.4,2.64-34.68,3.24-52.08,4,.36,7.56-1.08,10.92-4.08h.12a249.94,249.94,0,0,0,23.76,60.24,2.66,2.66,0,0,0,1.32-3.12,283.19,283.19,0,0,0-22.68-59.4q24.84-23.94-.24-47.88c-5.16-.84-9.48-.12-12.84,2.16l-.12-3ZM576,80q-19.08-35.82-58.68-38.88c-24.36,7.08-38.64,22.92-42.6,47.76a168.15,168.15,0,0,0-.84,50.28,392.35,392.35,0,0,0,35.88,121.44,454.84,454.84,0,0,1,18.72,45.6,809.86,809.86,0,0,1,32.4,123.84,606,606,0,0,1,8.64,75.36c.84,16.44-5.52,29.16-19.08,38.4-15.84,10.68-32.88,16.56-51,17.64a44.73,44.73,0,0,1-17.28-22.8c-2.76-7.92-5.64-15.72-8.88-23.52l-3-.12-1.08.36a4.42,4.42,0,0,0-1.08,3.24,81.11,81.11,0,0,0,4.08,23.28,74.77,74.77,0,0,0,25.92,36.84q33.84.54,61.08-22A30.83,30.83,0,0,0,570,538.44,310.15,310.15,0,0,0,567.84,415a997.38,997.38,0,0,0-33.48-117.72,464.31,464.31,0,0,0-19.68-47.4,510.47,510.47,0,0,1-31.8-83.64,155.17,155.17,0,0,1-1-82.8,41,41,0,0,1,9.24-13.2,93.23,93.23,0,0,1,19.68-14.4c25.8-2.88,45.12,6.72,58.2,28.92,1.8,1.56,3.72,2.88,5.52,4.2a3.65,3.65,0,0,1,1.68,3.84l.12.84C578.76,89.64,578.64,85.08,576,80Z" transform="translate(-13.67 -41.16)"/></svg>