<svg id="Layer_1" data-name="Layer 1" xmlns="http://www.w3.org/2000/svg" viewBox="0 0 508.08 459.37"><defs><style>.cls-1{fill-rule:evenodd;}</style></defs><path class="cls-1" d="M88.2,51.36l-3.12-.84a44.85,44.85,0,0,0-16.92-2.88,17.68,17.68,0,0,0-10.92,8.52q-21.06,36.18-9.48,79A400.75,400.75,0,0,0,71.28,199.8a483.19,483.19,0,0,1,38,121.08A333.92,333.92,0,0,1,109.2,438c-4.68,25.92-19,42.36-43.08,49.2-7.32,2.16-14,1.44-20.28-2.16Q15.6,467.76,17.28,431a5.47,5.47,0,0,0,2-2.64,7.13,7.13,0,0,1,3.12-3.84A1.68,1.68,0,0,0,23,422l-2.28-.12a8.66,8.66,0,0,1-4.44-3.84c-.84-1.44-1.92-1.92-3.36-1.44a105.26,105.26,0,0,0,4.8,59.76q11.52,30.42,44.88,27.84c18.48-1.32,31.08-10.2,37.92-26.64q25-60.3,18.72-126.6a578.9,578.9,0,0,0-25-121.08A232.62,232.62,0,0,0,75,186.24Q47.82,138.72,52.32,84.72c.6-7.56,4-13.2,10.32-16.92Q77.22,59.34,90.72,70c11.76,9.24,18.36,21.12,19.68,35.52,2.64-4.8,3.48-10.32,2.4-16.68A53.15,53.15,0,0,0,94.44,55.44a23.27,23.27,0,0,1-5.16-3.24ZM301.32,159.12c4,31.92,8,63.84,12.48,95.76l-9.72-.48a248.06,248.06,0,0,1-32.88,6l2.28-13.56q11-62.82,20.76-125.64c1.2-7.8,2.16-15.36,2.88-22.92A589.19,589.19,0,0,0,301.32,159.12ZM197.76,78.48q-.18,64.62-2.16,129.12l-1.2,45.72-1-.36-10.56-1.32-33.72,4.2.84-73.68q.72-65.34-4.44-128.28c-1.32-.12-2,.48-2,1.92L143,183.24q-.18,64.44-1.2,129c-.6,43.08-2.16,86.16-4.56,129a322,322,0,0,1-3.36,32.4q-2.16,14.76,4.32,23.4a3.4,3.4,0,0,0,1.44-2.4,494.13,494.13,0,0,0,5.52-55.2c1.8-42.6,3-85.44,3.36-128.28l.48-42.72a343.9,343.9,0,0,0,45-2.52l-1.56,70.68c-.84,43.2-2.76,86.16-5.52,129-.84,12.12,1,22.68,5.16,31.68a302.58,302.58,0,0,0,5-57.6c-.24-43.08.12-86.16,1-129q1.26-64.62,3-129.12,1.8-65.16,2.64-128.28A52.15,52.15,0,0,0,197.76,78.48ZM298.2,57.6c-2.52,2.28-4.08,5.52-4.68,10q-7.38,63.36-18,126-10.8,62.82-23.16,125.64-8.64,43-15.84,86.4A466.6,466.6,0,0,1,221.76,468c-3.84,12.36-3.24,22.68,1.92,31.2A154.08,154.08,0,0,0,233,466.08q7.56-46.8,16.92-93.24,9.9-50,19-100c15.48-1.2,31-3.24,46.44-6l2.52,18q9,63.54,19.92,126.6,5.58,32.22,10.08,64.44c1.68,12.6,5.52,23,11.4,31.08a2.27,2.27,0,0,0,1.08-2.28,352.93,352.93,0,0,0-8.64-66.84q-14.22-62.46-23.16-125.64C322.44,270,317,227.76,312.12,185.4c-4.68-41.4-9.36-82.68-13.8-123.6Zm66.36,54.72a74.72,74.72,0,0,1-15.48,38.4l-7.8,1.68a382.66,382.66,0,0,0,2.88-86l8.64,1.56C362.4,80.88,366.36,95.64,364.56,112.32Zm7.2,3.12c3-15.84.6-30.6-7.2-44.16A30.87,30.87,0,0,0,347.4,57.12l-3.84,1.08-1,.24c-.36-.12-.48-.48-.6-.84A337.27,337.27,0,0,0,333.12,124c-1.32,40.2-2.52,80.28-3.36,120.48a153.19,153.19,0,0,0,1.44,23.4,867.8,867.8,0,0,0,9.48-104.28l8.4-.6A685.64,685.64,0,0,1,366.6,246.6a55.18,55.18,0,0,0,6.72,19.92,391.33,391.33,0,0,0-18.84-109.2A111.62,111.62,0,0,0,371.76,115.44Zm39.6-44.52a71.87,71.87,0,0,1,43.8,11.16,65.49,65.49,0,0,1,25.32,29.64A422,422,0,0,1,497,156.24a326,326,0,0,1,10.68,46.2c2,13.2,3.48,26.52,4.2,40s1,26.76.72,40.2-.84,26.64-1.92,40a431.67,431.67,0,0,1-6.24,44.76,191.16,191.16,0,0,1-14.4,44,216.1,216.1,0,0,1-23.88,39.48,103.6,103.6,0,0,1-34.32,29.4,27.11,27.11,0,0,1-22.2,1.92l1.68-4-3.6,2q-3.42-140.58,3.48-283.44,2.7-55.44.72-111.12ZM407,66.84l.72,2.4.6.36q-1.08,23.76-3.24,47.16A1219.6,1219.6,0,0,0,400.2,246c.6,43.08.6,86.16.24,129l-1.08,127.44a3.37,3.37,0,0,0,3.84,2.4l2-6.48c6.84,3.84,13.8,4.08,21.12.84a117.17,117.17,0,0,0,44.4-35.76q39.78-52,45.36-117.6a750.75,750.75,0,0,0-.24-128.28A341.79,341.79,0,0,0,481.56,95.4q-19.44-39.6-66-36.72v.12l-5.4.48A2.73,2.73,0,0,0,408,60.36a3.35,3.35,0,0,0-1,2.4v1.68l-.12.72Z" transform="translate(-10.67 -47.63)"/></svg>