<svg id="Layer_1" data-name="Layer 1" xmlns="http://www.w3.org/2000/svg" viewBox="0 0 551.77 447.48"><defs><style>.cls-1{fill-rule:evenodd;}</style></defs><path class="cls-1" d="M91,65.16A57.84,57.84,0,0,0,58.68,81.72a24.45,24.45,0,0,0-5,7.2c-10.92,23.52-13.8,48.48-8.88,74.88a68.39,68.39,0,0,0,12,28Q94,243.42,128.16,296.28a231.71,231.71,0,0,1,36.36,104.4,104.61,104.61,0,0,1-1,27.36q-9,53.28-64.92,62.64c-28.44,4.68-53-2.16-73.8-20.76a11.73,11.73,0,0,1-4-8.64,544,544,0,0,0-6.24-69c-3.72,2.76-5.28,6.84-4.8,12.36A245.91,245.91,0,0,1,10,443.4q-4,51.66,48.12,63.12,58.86,13.14,97.56-31a54.42,54.42,0,0,0,13-28.32,219.3,219.3,0,0,0-13.44-116A355.69,355.69,0,0,0,90.72,226.32a206.77,206.77,0,0,1-37-59.76,98.26,98.26,0,0,1-6-23.16c-3.36-25.32,5.4-44,26.4-56.4q18-10.62,37.44-3.6,31.68,11.34,31.8,44.28a2.3,2.3,0,0,0,2.28-1.56l.6-1.68.6-1.68V122a132,132,0,0,0-2.4-15.12Q135.66,65.88,91,65.16ZM276.6,63.6a1027.72,1027.72,0,0,0-3.48,178.32c.36,6.6.72,13.08.84,19.68l-72.6,12.24q4-104.22-1.68-208.32a1573.64,1573.64,0,0,0-5.52,177.12c.72,32.28,1.08,64.44,1,96.72l-.24,48.12-.48,31.44-.72,46,.12,8.52,1.08,15a43.22,43.22,0,0,0,1.44,7.68l.6.6,2.16-.48q5.94-95.76,2.4-193c-.24-6.48-.36-13-.24-19.56a300.92,300.92,0,0,0,73.2-8q1.26,103,1.2,205.92a129,129,0,0,0,2.16,23.52c0-.12.12-.12.48-.24a1097.67,1097.67,0,0,0,5.76-180q-2.34-48.24-4.56-96.72c-1.08-21.24-1.68-42.72-2-64.2-.12-10.68-.12-21.24,0-31.92.12-16,.84-31.8,1.92-47.64l1.2-16.68Zm74.16,210.48,28.8-170.16,13.92,152ZM378,65q-2.34,2.16-1.8,6.48v.24a180.22,180.22,0,0,0-4,23.88q-6.66,63-18,125.28l-10.68,57-1.8,1.08-.48,1.56a18.13,18.13,0,0,0,.48,5.76l.12.24L330.24,346.8q-12.24,63-27.72,125.4v-1.92a37,37,0,0,0-.36-7.32l-.36.36a154.08,154.08,0,0,0-1.8,43,5.35,5.35,0,0,0,4.8-4.32Q319.38,439.68,331.56,377q8.64-45,16.92-90c15.48-6.6,31-13,46.44-18.84q4.86,40.86,10.32,81.48,8.46,63.54,18.48,126.48c-1.32,1.32-1.56,3.84-.6,7.44,2.76,10.2,6.24,19,10.56,26.16a21.81,21.81,0,0,0,2.16-16.08c-3.6-16.2-6.84-32.28-9.6-48.48Q415.08,382,407.88,318.12L393.12,190.8c-1.32-10.56-2.28-21.12-3-31.8q-2.88-38-8-74.88a58.4,58.4,0,0,0-3.24-21.84Zm151.56,3.12c-15.12-6.84-29.16-5.88-42.12,3a84.83,84.83,0,0,0-28.92,34.08A158.44,158.44,0,0,0,447.72,136c-3.6,14.88-6.48,29.88-8.64,45.12a419.22,419.22,0,0,0-4.2,46c-.48,11.76-.6,23.52-.48,35.4l.24,39.72c0,14.76.36,29.4,1,44,.6,13.2,1.44,26.4,2.76,39.72L443,433.2a71.19,71.19,0,0,0,18.12,41.64c11,12.36,24.72,17.52,40.92,15.6,15.48-2,28.08-9.24,38-21.6a68.54,68.54,0,0,0,13.2-28.2L552,482.76l-.6-1.32,1.44,4.56a37,37,0,0,0,.6,17,7.5,7.5,0,0,0,1.2,2.4l3.24-1.08a347.55,347.55,0,0,0-1.68-109.8,86.57,86.57,0,0,1-40-2.52c-4.2,13.32,2.76,19.8,21,19.44l15.84-1.32.12,15.6L546,413.4c-3.6,4.44-4.2,9.48-1.92,15.24l.84,1.92c-4.08,18.36-14.52,31.8-31.44,40.32a34.75,34.75,0,0,1-28.68,1.68A39.43,39.43,0,0,1,461,451.68a144.64,144.64,0,0,1-10.92-31.08,197,197,0,0,1-3.84-22.32c-2-18.48-3.48-37.08-4.44-55.68q-1.26-24.12-1.44-48.24c-.12-10.68,0-21.24.24-31.92.24-15.84.84-31.68,1.92-47.64q1.26-18.9,4-37.44l4.8-31.92q5.58-37.26,34.8-57.6c12.12-8.4,25-10,38.52-4.56A64.81,64.81,0,0,1,552.84,105C554.64,88.44,546.84,76.2,529.56,68.16Z" transform="translate(-9.68 -62.28)"/></svg>