<svg id="Layer_1" data-name="Layer 1" xmlns="http://www.w3.org/2000/svg" viewBox="0 0 491.47 432.54"><defs><style>.cls-1{fill-rule:evenodd;}</style></defs><path class="cls-1" d="M65.52,186.36c7,16.2,14.28,32.16,22,48.12A771,771,0,0,1,133,352.32a145.65,145.65,0,0,1,2.4,73.56,78.63,78.63,0,0,1-24.48,42.48C86.52,490.68,61.8,490.8,37,468.6c-13.8-12.12-20.28-27.48-19.56-45.84a170.44,170.44,0,0,0-1.68-32.64c-5.64,7.56-8.52,16.8-8.52,28q-.36,44.82,34.44,72.36C55.2,501.12,70.2,504.6,86.64,501a47.28,47.28,0,0,0,27-16.32q44.82-54.18,29.64-124a541.92,541.92,0,0,0-27.6-89A397.33,397.33,0,0,0,87.12,215a178.11,178.11,0,0,1-24.84-68.52q-5-34.92,22-55.8A17.73,17.73,0,0,1,97.68,87q38.34,5.22,44,45l.36-.6q3.6-44.28-38.52-61.56A30,30,0,0,0,86.64,74.4q-29.88,18-31.56,53.76A130.35,130.35,0,0,0,65.52,186.36Zm240.84,12.48L301.8,328a288.59,288.59,0,0,1-3,32.16c-1.8,12.48-.24,23.16,4.8,31.92a671.48,671.48,0,0,0,8-98.16c.48-43.08.24-85.92-.72-128.28A152.21,152.21,0,0,0,306.36,198.84Zm-130.2-58.92q-2.16,52-2.88,104.76-.9,64.44-3.12,129c-.36,8-1,16.08-2,24.12q-2.34,17.82,4,32.4a108.77,108.77,0,0,0,5-33.84q0-52.56,1.44-104.88a82.89,82.89,0,0,0,28.68-1.8q-1.26,39.42-2.88,78.84c-.48,10.8-1.44,21.6-2.76,32.28-1.32,9.84.36,17.64,4.8,23.4a47.55,47.55,0,0,0,5-21.84c-.12-38.28.72-76.56,2.52-114.6l.48-.48q5-6.66.36-13.68h-.12q3.06-64.44,3.12-127.8a576.4,576.4,0,0,0-9.36,94.44l-.72,34.92c-9.72,2.28-19.44,4.56-28.92,7.08l.48-14.88c1.56-43.32,1-86.4-1.56-129.12C176.76,138.12,176.28,138.72,176.16,139.92Zm74.64-31.56c2.76-4.32,6.72-5.76,11.88-4.2a16.78,16.78,0,0,1,3,3.84q20.52,39.6,14.16,84.6-5.4,38-37.32,59.4l7.08-89.52A463.31,463.31,0,0,0,251,114.36v-1.44Zm-2.52-9.6c-4.44,5.16-4.92,10.92-1.56,17l.6.72q-6.84,44.82-9.48,92L235,257.28C225.72,265,222.6,274,225.6,284.4l2.52-.84,1.32-.48.24-.84.24-.84.36-.84,3.24-2.16-4.32,57.72a879.6,879.6,0,0,1-12.72,95.4c-2.28,12.36-1.08,22.92,3.72,31.92a233.51,233.51,0,0,0,8.88-45.36q6.12-63.54,10.56-127.44L241,272.88l1.44-1.2A107.19,107.19,0,0,0,247.32,300a425.41,425.41,0,0,1,12,49.56q11.34,62.82,26.88,123.12a1.71,1.71,0,0,0,1.2-1,102.94,102.94,0,0,0-2.76-45.48c-4.44-15.72-8.28-31.44-11.52-47.4Q261.6,322.32,248.88,266c26.28-24.12,38.88-55.08,38-92.64q-.54-23.4-3.24-46.44c-2.16-18-10.92-29.88-26.16-35.76v.12l-2.64.6-.84.36ZM401.52,129c-3.48,36.12-6.12,72.36-8.16,108.84l-6.6,128.28a116,116,0,0,1-1.8,16c-2.28,12.12-1.32,22.8,3,31.92l1.92-5.64a185,185,0,0,0,33.6,6.6l72.72,6.6,1.2-2.52a19.93,19.93,0,0,0,1.2-8.76,13,13,0,0,0-3.48-8.16l-2.16-.36a708.27,708.27,0,0,1-99.6-7.8l-.48-.12a88.83,88.83,0,0,0,.6-10c.12-43,1.92-85.68,5.16-128.28q4.86-64.44,4.2-128.16C402,127.44,401.64,127.92,401.52,129Zm-47.4-24q-6.66,12.42-7.92,29.16c-3,42.36-5.28,84.84-7.08,127.44L335,357.48a320.72,320.72,0,0,1-9,64.44,99.9,99.9,0,0,0-3,26.88l-.48.24-1.92,1.2-.84,1.68-.12.84-.36,2.28v3.36a11.52,11.52,0,0,0,.72,4,18.25,18.25,0,0,0,5.16,3.6l1.08,4.32a1.71,1.71,0,0,0,1.2-1l.6-2.16,2.64.6a371.59,371.59,0,0,0,102.72,4.44,11.23,11.23,0,0,0,3.24-8.76v-.72a13.17,13.17,0,0,0-1-4.8c-1.32-3.36-2.88-5.28-4.44-5.76l.12.72-62.28,3a111.33,111.33,0,0,1-37.8-4.68c2-11.16,3.84-22.32,5.4-33.72C339,399.84,340.8,382,342,364.08c2.88-42.6,4.8-85.32,5.64-128.4s3.36-85.8,7.56-128.28l-.24-.84Z" transform="translate(-7.2 -69.83)"/></svg>