<svg id="Layer_1" data-name="Layer 1" xmlns="http://www.w3.org/2000/svg" viewBox="0 0 595.57 842.18"><defs><style>.cls-1{fill:#fff;}.cls-2{fill:none;stroke:#fff;stroke-linecap:round;stroke-linejoin:round;stroke-width:0.38px;}.cls-3{fill-rule:evenodd;}</style></defs><rect class="cls-1" x="0.31" y="0.31" width="595.08" height="841.68"/><rect class="cls-2" x="0.19" y="0.19" width="595.2" height="841.8"/><path class="cls-3" d="M295.2,344.88l1.56-59.4c14.52,6.36,19.8,18.6,16.08,37-2,9.6-6.84,17.16-14.4,22.56Zm-4.08-59.4q-2,64.26-9.72,128c-1.56,12.24-.24,22.8,3.72,31.8A171.18,171.18,0,0,0,292,406.44l2.52-46.8,5.28-.6,1.44-1a245.86,245.86,0,0,0,8.4,51c1.8,6.72,3.36,13.32,4.68,19.92q3.06,14.76,9,24.48a37.65,37.65,0,0,0,.84-25.92c-7.32-23.52-14.16-47-20.76-70.68l3.12-1.8A131.8,131.8,0,0,0,320,313.56c2.76-19.8-4.32-33.12-21.36-40.2a6.93,6.93,0,0,0-6.12,3.72,7.93,7.93,0,0,0-1.2,6.24ZM70.68,103.68Q59,160.56,84.84,214.08A353.72,353.72,0,0,1,111.6,290.4a228.67,228.67,0,0,1,5.52,46.8l.12,13.56a93.68,93.68,0,0,1-3.12,23.16,50.32,50.32,0,0,1-13,22.92A56,56,0,0,1,81.6,410.28a41.69,41.69,0,0,1-34.68-1.08,46.72,46.72,0,0,1-22.08-21.72l5.52-8.16,4.8-1.32-4.8-1.92c-8.16,3.72-11.76,10.08-10.68,19.2,1.56,13.32,8.28,23.88,20.16,31.44,14.52,9,29.64,9.6,45.24,1.68a65.15,65.15,0,0,0,26.4-24.24,75.1,75.1,0,0,0,10.92-34.32c.6-7.68.84-15.36,1-23V331.56A264.83,264.83,0,0,0,120,293.88a270.43,270.43,0,0,0-13.32-51.24q-9.9-27-22.08-52.8A109.74,109.74,0,0,1,76,120a139.39,139.39,0,0,1,5.52-19.56l5.16-2.16,14.4,2.28c11.52,10,19.32,22.68,23.52,37.92l1.8,4.92c4.2-17.88,0-33.84-12.36-47.88Q101.22,81.3,84.84,86.88C77.28,89.4,72.48,94.92,70.68,103.68ZM277.32,83A494.73,494.73,0,0,0,272,158.52q.18,64.08-2.16,128.16c-1.56,43.08-4.44,86.16-8.76,129-1.32,12.24.24,22.8,4.56,31.8,4-35.4,7-71,9-107.16,2.52-42.84,4-85.92,4.56-129Q280.14,146.34,277.32,83ZM244.8,106.92a83.2,83.2,0,0,1,3,17q2.34,35.28-26.64,47.52,2.16-38.16,4.68-75.72C233.88,95.64,240.12,99.36,244.8,106.92Zm-44.4-18.6a603.39,603.39,0,0,0-9.24,82.56q-1.8,44.28-3,88.8l-13.92-1.56a57.62,57.62,0,0,0-25.08,3l.6-44c.84-43.56,2-86.28,3.36-128a20.79,20.79,0,0,0-4,11.16,1035.58,1035.58,0,0,0-5.52,128.4q.54,20.34,0,40.68c-.84,43.08-2.52,86-5.28,129a141.31,141.31,0,0,1-1.92,16c-1.8,10.2-.12,18,5.28,23.52a8.53,8.53,0,0,0,1.92-4.8,1203.08,1203.08,0,0,0,5.64-128.28l-.12-31.08a279.24,279.24,0,0,1,38.64-.48l-.6,27q-1.44,64.26-7.8,128c-.84,7.56,1.2,12.48,5.88,14.76q6.48-48.78,8.16-99l4.8-129c1.56-43.08,2.76-85.68,3.36-127.56C200.88,87.24,200.52,87.6,200.4,88.32Zm18.72,8.28.72-.12q-1.8,38.7-4.92,77.28l-1,.24a22.92,22.92,0,0,0-1.44,5.64,8.52,8.52,0,0,0,1.32,6.24L211,216.12a348.49,348.49,0,0,0-.48,64.2,1.75,1.75,0,0,0,1.08-1,461.58,461.58,0,0,0,7.2-60.6l1.68-32.88a28.26,28.26,0,0,0,8-4.08l1-.6c-1.32,9.84-.36,20.28,2.64,31.32,3.72,13.56,6.84,27.24,9.36,40.8a71.49,71.49,0,0,0,9.6,25.92c3.24-8.28,3.36-17.28.24-27A712.52,712.52,0,0,1,232,179.16C245,168.6,252.6,154.56,254.76,137q4.14-34.92-23.16-51.48l-7.32-.24L223.2,83.4a4.34,4.34,0,0,0-2.88,3.48l-2,1.56a12.19,12.19,0,0,0-.72,4.08A5.61,5.61,0,0,0,219.12,96.6Zm75.24-6c-3.6,5.4-5.4,11.88-5.52,19.32-.36,43.08-2.16,86-5.16,128.88q-.9,14.76,5,23.4a313,313,0,0,0,3.6-45.48c.24-30.36.84-60.24,1.92-89.88q5,54.72,13,109.08c1.8,11.88,4.92,22.08,9.6,30.36a9.85,9.85,0,0,0,2.28-4.44l1-.12a312.39,312.39,0,0,0,4.32-45.48C325.44,172.92,326,130.08,326,88l-.6.36a149.24,149.24,0,0,0-7.32,43Q316.5,182.94,316.68,235c-1.08-7.56-2.28-15-3.6-22.44q-11.52-63-17-126.48A20.83,20.83,0,0,0,294.36,90.6Zm124.56,38c4.68-10.68,6.24-21.24,4.8-31.44-4.68,3.84-8,9.12-10.32,15.72q-20.7,61-42.24,122.16c-3.72,10.44-7.8,20.52-12.36,30.24a34,34,0,0,0-2.52,6.24l-.12-53.76c-.12-43.56-.36-86.52-1-129a488.62,488.62,0,0,0-6.72,90.12c.72,43.08,1.44,86.16,2.28,129a947.31,947.31,0,0,1-6.72,129c-.84,7.56,1.08,12.36,5.76,14.64a756.28,756.28,0,0,0,6.72-104.64l-.12-52.32.72,2q14.94-36.18,28.08-73.8a417.7,417.7,0,0,0,11.4,78q14.94,62.1,26.28,124.8c-1.2,2-1,3.48.6,4.08.12,7.56,2.4,13.32,7,17.28a2.54,2.54,0,0,0,1.2-2.4,673,673,0,0,0-18.36-114.84q-14-57.42-25.44-114.6l8.64-26.28Q406.2,158.28,418.92,128.64Z" transform="translate(0.19 0.19)"/></svg>