<svg id="Layer_1" data-name="Layer 1" xmlns="http://www.w3.org/2000/svg" viewBox="0 0 299.33 209.28"><defs><style>.cls-1{fill-rule:evenodd;}</style></defs><path class="cls-1" d="M309.48,371.52c-2.28,13.92,2.76,21.24,14.88,21.84,10.44-8.4,14.88-18.72,13.56-30.84-4.44,5.4-9.24,10.56-14.28,15.72-4.2,2.16-6.48,2-6.84-.48l.12-.84a689.27,689.27,0,0,0,.48-87.6,544.47,544.47,0,0,0-5.88,61.44A171.26,171.26,0,0,1,309.48,371.52ZM316,261.72a12,12,0,0,0-1.08,10.68l.6,1.44c6.6-1.92,8.4-6.84,5.16-14.88Zm-67.68-55-1.32,129a157.9,157.9,0,0,1-3.6,32c-2.16,9.72-1.08,17.64,3.12,23.76a269.56,269.56,0,0,0,7-61.8l-.12-30,.72,2.16A34.66,34.66,0,0,0,277,304.44l-.24,8.16c-.84,21.36-2.4,42.6-4.68,63.84q-1.62,14.58,4.68,23.4a3.18,3.18,0,0,0,1.44-2.28,203.76,203.76,0,0,0,3.24-34.2q.72-64.26,5.88-128a88.13,88.13,0,0,0-2.64-32.4q-4.68,43.56-7,88.56L254.28,293a4.16,4.16,0,0,0-1,1.92c-.36-31.68-1-63.12-2-94.2C249.24,202,248.28,204,248.28,206.76Zm-54.84-1.68c19.32-6.6,32.16-1.8,38.64,14.64l.12-.84c1.56-18.6-8-28-28.68-28.32-13.68,2.64-20,10.68-19,24.24a190.88,190.88,0,0,0,25.56,82.32q18,31,16.56,64.68-22,25.2-56.52,11.64c-11.4-4.44-17.88-12.72-19.32-24.6-1.68-15-2.76-29.28-3.12-43.08-6,16.68-6.84,34.2-2.4,52.44a30.63,30.63,0,0,0,10,16.32c20.76,17.64,42.6,19.56,65.76,5.76a13.64,13.64,0,0,0,6-7.68c7.8-25.08,4.8-49.8-9.24-74.16a232,232,0,0,1-29.52-86.88l1.56-2.52a7.07,7.07,0,0,1,1.92-2.4ZM426.36,301a307.72,307.72,0,0,1-4,73c-6.6,3.24-12.12,1.68-16.8-4.92-.12-2.76-1.32-4.2-3.48-4.32-5.16,14,0,23.16,15.6,27.36,4.2-1.08,6.72-3.48,7.44-7.2a312.22,312.22,0,0,0,4.8-94Q426,294.66,426.36,301Zm4.92-48.72c-6.48,6.48-6.6,13.2-.48,20a9.43,9.43,0,0,0,2.52-9.84L432.6,261Zm10.56-49.56q-45.54-13.86-96.12,10l.6,10.2,42-7.8a1480.76,1480.76,0,0,0-5.76,183.72,800.7,800.7,0,0,0,9.36-184.2l44.76-4.08,4.56-2.64Z" transform="translate(-142.51 -190.56)"/></svg>