<svg id="Layer_1" data-name="Layer 1" xmlns="http://www.w3.org/2000/svg" viewBox="0 0 310.03 213.41"><defs><style>.cls-1{fill-rule:evenodd;}</style></defs><path class="cls-1" d="M315.24,287.64q.54,48.24-1.32,97.44c-.12.12,0,.36.24.48a95.91,95.91,0,0,0,15.12-13.8c1.8,10.92-2.4,20.16-12.48,27.6-2,1.32-3.84,1.08-5.64-.6a164.72,164.72,0,0,1-3.48-54.48c1.8-17.4,3.48-34.68,4.92-51.84C312.84,290,313.68,288.48,315.24,287.64Zm-41.4-15.12a474,474,0,0,1,6.72-80.4q.54,63.18-.84,128.16a607.21,607.21,0,0,1-7,81q-5.76-14.58-4-32.4c2.28-22,3.84-44.16,4.56-66.36a51.41,51.41,0,0,1-22.2-.6l-.72,22a587.77,587.77,0,0,1-8,76.8,83.09,83.09,0,0,1-3-32.28q5.58-63.9,7-128.16a187.45,187.45,0,0,1,6-44.64c.36,31.8,0,63.84-.84,95.88a111.3,111.3,0,0,1,22.2-2.52Zm43.2-16.8c2.52,1.8,3.6,4.68,3.36,8.4l-.12.84L316,267.6l3.24,6.48c-.6,2.76-2.16,4.08-4.8,4.08q-5.58-9.9.72-20.52A5.84,5.84,0,0,1,317,255.72ZM198.12,210.24q-13.14,16.74-5,39.6,9.9,27.9,22.2,55.44,20,45.18,3.6,90-31,23.22-56-6.24a57.81,57.81,0,0,1-10.56-18.48q-10.62-29.88,7.56-53a9.44,9.44,0,0,1,3.84-3.12,208.12,208.12,0,0,0-7.08,30.36c-1.68,10.92,1,21,7.8,30.24,11.88,15.84,28,19.32,48,10.56q13.86-23.22,4.2-51.48-14.4-41.94-28.08-84c-5.76-17.88-4-34,5.28-48.36a12.84,12.84,0,0,1,7.56-5.52c16.32,6.12,23.76,18.48,22.32,37l-.48,1q-5.58-10.08-12.6-20.88a10.92,10.92,0,0,0-4.92-4.08A13.29,13.29,0,0,0,198.12,210.24ZM396.6,221a6.81,6.81,0,0,1-3.48-3.6,22.68,22.68,0,0,0-4.08-5.52c-14.52,3.24-19.92,13.44-16.2,30.48a529.67,529.67,0,0,0,22.44,75.48q16.56,43.56-8.16,80.28A6.05,6.05,0,0,1,382,401c-18.36,1.44-30.36-6.6-36-24.24q-9.9-31.14,2.16-59.76l1.2-.24c.36,8.76.24,18.48-.24,29.28-.84,17.76,6.24,30.6,21.36,38.64a24.2,24.2,0,0,0,14.88-.84l1-.84a7.8,7.8,0,0,1,3.12-2.4c8-27.24,5.88-54.6-6.72-81.84a198.41,198.41,0,0,1-15.84-50.4q-5.22-30.78,16.32-48.48c11.16,2.16,15.72,9,13.92,20.52Zm59.64,66.84a10.88,10.88,0,0,1,.6,12.12l-.6.84-2.52.24-.24,24.36A693.44,693.44,0,0,1,447.84,405c-4.68-6-6.12-13.8-4.08-23.52a98.52,98.52,0,0,0,1.92-15.84l2.16-64.32a129.41,129.41,0,0,1-27.48-2.52q-.9,24.84-1.44,49.68a199.75,199.75,0,0,1-7.68,52.44,3.32,3.32,0,0,1-2.4-2.16q4.86-63.18,6.48-127.32a558.43,558.43,0,0,1,6.72-75c2.52,6.6,3.48,14.64,2.76,23.88-1.68,23.16-3,46.2-4,69.36a146.92,146.92,0,0,1,27.36-2.16l1-51a193.25,193.25,0,0,1,4.56-39.24q.54,44.82.12,90.48Z" transform="translate(-148.36 -192.12)"/></svg>