<svg id="Layer_1" data-name="Layer 1" xmlns="http://www.w3.org/2000/svg" viewBox="0 0 311.3 217.8"><defs><style>.cls-1{fill-rule:evenodd;}</style></defs><path class="cls-1" d="M326,295.44q.72,44.82-1.2,90.12l.12.84,18.36-16.8a45.65,45.65,0,0,1-17.52,33.24c-9-10.56-12-23.76-8.88-39.48a163,163,0,0,0,2.88-26.52,177.52,177.52,0,0,1,5.76-41.28Zm-36.48-48.12q-1.26,64.26-5,128.28A114.91,114.91,0,0,1,280,401.52c-5.4-8.4-6.48-19-3-31.8A72.9,72.9,0,0,0,278.88,358c1.56-19,2.76-37.92,3.6-57a65.9,65.9,0,0,1-24.24.12l-1.2,26a593.48,593.48,0,0,1-7.44,70.44c-.12.48-.48.84-1.2,1.2a235.4,235.4,0,0,1-1-48q5-63.9,6.36-128A57.72,57.72,0,0,1,259,198.84c.6,30.24.36,60.48-.48,90.84A51.85,51.85,0,0,1,283.2,286c.6-18.72,1.08-37.44,1.2-56.16A131,131,0,0,1,290,191c2.76,6.6,3.48,14.64,2.16,24A260.22,260.22,0,0,0,289.56,247.32Zm40.56,16c4,5,3.48,10.68-1.44,16.8l-.72.24c-4.2-5.4-3.72-10.92,1.68-16.68ZM193.8,211.08q-13,27,6.72,54a189.51,189.51,0,0,1,28.56,57.48c7.56,25.32,3.72,48.12-11.76,68.4a9.3,9.3,0,0,1-4.92,3.36c-14.64,5.16-28.68,2.76-42.12-7.44C156,376,148,361.44,146.28,343.44c-1.44-16.2,2.28-29.64,11.16-40.44a134.88,134.88,0,0,0-1.2,41.76c1.32,11.16,6.72,20,16.08,26.64,10.68,7.56,22,10.32,34.08,8,11.88-2.28,18.12-9.84,18.6-22.68a110.55,110.55,0,0,0-13.92-58.68A366.54,366.54,0,0,1,186,241q-11-31.68,16.44-45.6c18.36-2.64,27.72,4.44,28.32,21.36l-.24.6-.72-.24-5.28-6-1.08-1.32-.24-.36-2.64-1.32-1.44-.84A41.36,41.36,0,0,0,193.8,211.08Zm263,78.84L457.2,326a372.85,372.85,0,0,1-7,74.4c-3.48-9.6-4.8-20.4-3.72-32.4,2.28-24.84,3.48-49.56,3.72-74.4a313.5,313.5,0,0,0-36.84,3.24c.24,18.6.6,37.2,1.08,55.92a205.43,205.43,0,0,1-5.88,56c-4.56-9.24-5.52-19.92-3-32A77.09,77.09,0,0,0,407.16,361q-.54-64.8,1.92-129c.12-3.72,1.44-6.12,3.84-7.32-.12,20.16,0,40.44.24,60.84A117.2,117.2,0,0,1,450.24,280c-.12-13.56-.48-27.24-1.08-40.8-.84-15.6.72-29.64,4.56-42.12q2.34,43,3,86.4A10.82,10.82,0,0,1,456.84,289.92Zm-44.52-88.56.72,1.56a12.66,12.66,0,0,1,.24,7.32,6.46,6.46,0,0,1-1.2,2.4l-29.64-.12q1.62,61.56.6,124.32A314.76,314.76,0,0,1,376.32,397q-2.52.72-3.24-2.16c2.52-42.36,3.84-85.2,4.2-128.28a372.53,372.53,0,0,1,4.44-54l-34.56-.6-.6-1.68a15.14,15.14,0,0,1-.12-7.32,3.23,3.23,0,0,1,1.56-2.16l51.36-1.56a60.07,60.07,0,0,1,12.36,1.56Z" transform="translate(-145.98 -191.04)"/></svg>