<svg id="Layer_1" data-name="Layer 1" xmlns="http://www.w3.org/2000/svg" viewBox="0 0 581.3 541.68"><defs><style>.cls-1{fill-rule:evenodd;}</style></defs><path class="cls-1" d="M303.36,261.36c1.08,36.84,1.44,74.28,1,112.08,17-6.84,27-20.4,30-40.68q5.22-35.1-12.84-64.32C316.68,260.88,310.68,258.48,303.36,261.36Zm9.72-9.48a57.93,57.93,0,0,0,7.68,5.28l2,1a8.42,8.42,0,0,0,3.12,3.36l1,.72Q353,319.08,322,373.08l-3,5.28-3.6,3c8.52,37.8,18,75.6,28.68,113.28a320.5,320.5,0,0,1,11.76,76c-5.4-8.28-8.88-18.36-10.68-30.24a572.18,572.18,0,0,0-13.2-62.76,641.12,641.12,0,0,1-18.24-95.28,15.47,15.47,0,0,1-9.6,1.56v3c-.84,42.84-1.32,85.68-1.56,128.28a252.66,252.66,0,0,1-6.24,55.2c-3.6-6-4.44-13.8-2.64-23.52a100,100,0,0,0,1.92-16c2-42.84,3.6-85.92,4.92-129.12l.48-21a12.32,12.32,0,0,1-.12-3l.12-1.68c.6-34.08.6-68.28-.24-102.48a43.94,43.94,0,0,1,1.2-11.64l-.48.24a6,6,0,0,1-1-4.08,7.83,7.83,0,0,1,.6-2.4,23.51,23.51,0,0,1,9.48-4.08ZM147.48,100.44q-2-.18-2.16-2.52A37.09,37.09,0,0,0,143.88,89a28.13,28.13,0,0,1-1-6.48q-15.84-43-62.52-29.88-39.06,11-35.64,51.72Q48.54,149,83.88,177.84A195,195,0,0,1,126.6,226.2a210.71,210.71,0,0,1,22.08,47.4,594.51,594.51,0,0,1,19.8,81.6A430.53,430.53,0,0,1,174,417.48,408.66,408.66,0,0,1,164,513a43.27,43.27,0,0,1-6.72,15.24,119,119,0,0,1-51,42c-26.76,11.88-49,7.56-66.84-12.72a158.54,158.54,0,0,1-17.16-23.4c-11.28-18.84-14.88-38.76-10.8-60a175.76,175.76,0,0,1,12.24-38.76c4,6.6,4,14.4-.24,23.52-11.4,25.56-9.24,50,6.72,73.56a90.17,90.17,0,0,0,15.36,17c12.84,11,27.84,14.4,45,10.2q47.88-11.7,68.28-55.44a83.37,83.37,0,0,0,7.68-30.72,675.19,675.19,0,0,0-1.2-97.32,405.91,405.91,0,0,0-19-93.24,210.56,210.56,0,0,0-27.48-54.36,179.26,179.26,0,0,0-30.6-33.36Q32,147.9,44.28,74.4A35.37,35.37,0,0,1,61.2,49l.48-.84.48-.84.36-.72,15.12-6.12A83.45,83.45,0,0,1,93.12,36q47.16,1.26,56.28,47.16A26.59,26.59,0,0,1,147.48,100.44Zm58.44-61c2.76,42.72,3.84,85.8,3,129.12l-1.56,92.88a148.07,148.07,0,0,1,29.52-8.4l12-1.44,22.68,1.56v-1.56q3.06-64.26.84-129a407.46,407.46,0,0,1,6-85.32c-.6,42.12-.72,85-.36,128.28q.54,64.62-1.08,129.12c-1.08,42.84-1.08,85.92.24,129s2.4,86,3,129.12a41.53,41.53,0,0,1-4.2,19.92,391.51,391.51,0,0,1-4.32-63.84q.9-64.62-1.08-129-2-59.22.6-118.68a346.59,346.59,0,0,0-64,8.52l-.48,28-2.28,129c-.84,42.84-.84,85.92-.24,129a10.69,10.69,0,0,1-2,6.48c-4.08-5.88-5.88-13.56-5.28-23.28,1.08-21.48,1.68-43.2,1.8-64.92.12-42.84.6-85.8,1.68-129l3-129c1.08-43.32,1-86.28-.48-129.12A242.38,242.38,0,0,1,205.92,39.48ZM475.68,252.72c4.32,9,5.76,19.56,4.44,31.8a146.25,146.25,0,0,0,0,32.4L493.8,444.24l13,121.8a18.83,18.83,0,0,1-3.48,9.48c-5.64-41.64-10.68-84-14.88-127.08l-12.48-125q-3.06,63.9-9.72,127.2a683.45,683.45,0,0,1-22.92,118.2,2.69,2.69,0,0,1-1.2,1.08q-4.14-63.54-10.68-127.44-6.3-63.72-9.6-127.56a42.52,42.52,0,0,0-1.92-10.2q-6.3,63.54-10.08,127.44c-2.52,42.36-4.56,84.84-5.88,127.44a22,22,0,0,1-2.16,8.88q-2-62.1,2.28-126.6,4.14-64.08,9.6-127.56c1.92-22.2,4.44-43.56,7.68-64.2,2.4,42.36,5.52,84.72,9.48,127.32S438.36,462.48,442,505l3.12,37a1042.49,1042.49,0,0,0,18.84-126.84q5.58-63.54,7.56-127.44a234.55,234.55,0,0,1,3.36-33.24A3.7,3.7,0,0,1,475.68,252.72ZM385.8,46.56l.24.84q.18,64.08,1.8,128.28,1.62,64.62.72,129c-.6,42.84-.72,85.92-.36,129,.36,43.44.12,86.52-.48,129.12a18,18,0,0,1-2.76,9.72c-4.32-8.76-5.76-19.2-4.2-31.56.48-3.84.72-7.8.84-12q1.8-64.26,2.16-129.12l.48-129c.12-43.08-.36-86.16-1.32-129q-.9-50.22,1.56-97.68A6.77,6.77,0,0,1,385.8,46.56Zm204.36,79.32q5.94,59.58-22.32,109.8a23.91,23.91,0,0,1-12.48,10.68c-11.16,4.56-21.84,6.72-31.8,6.48q1.62,56.7.36,113c-1.08,42.84-1.32,85.92-.84,129a554,554,0,0,1-5.16,82.8c-3.48-9.12-4.92-19.68-4.32-31.8Q517,481.8,519,417.72q2-64.62,1.56-129l-.48-36.12c-14-1.2-27-7.32-38.76-18.36a4.22,4.22,0,0,1-1.32-3.72,9.29,9.29,0,0,1,1.32-4.8A75.38,75.38,0,0,0,519.6,237.6q-1.26-39.06-4.32-78a857.57,857.57,0,0,1-1.44-111,87.18,87.18,0,0,0-21.72-1L491.76,46l-.12-.72.12-1.68.12-.84a28.29,28.29,0,0,1,17.88-3.6V39q42.66,6.3,64.8,41.16A103.37,103.37,0,0,1,590.16,125.88Zm-49.32-68.4a90.64,90.64,0,0,0-25.92-8.76l2.76,59.76L523,236.76l.12,1a86.38,86.38,0,0,0,30-6.12c16-5.88,25.2-17.52,28-34.92a441.36,441.36,0,0,0,5-47.28c1.68-29.88-6.84-55.56-25.68-76.8A66,66,0,0,0,540.84,57.48Z" transform="translate(-9.89 -36)"/></svg>