<svg id="Layer_1" data-name="Layer 1" xmlns="http://www.w3.org/2000/svg" viewBox="0 0 514.09 390.48"><defs><style>.cls-1{fill-rule:evenodd;}</style></defs><path class="cls-1" d="M54.24,169c-5.16-24.84,2.88-43.32,24.24-55.2A25.14,25.14,0,0,1,91,110.52c15.36.12,26.76,7.08,34.08,21a58.35,58.35,0,0,1,7,24.12,11.15,11.15,0,0,0,3.48-8.76c-.36-28.68-14.76-46.08-43.44-52.2a67.85,67.85,0,0,0-23.52,10.08,28.21,28.21,0,0,0-11.88,15.12c-9,27.24-9.12,54.84-.12,83a96.06,96.06,0,0,0,15.6,29.88c18.12,23.76,35.4,48.36,51.6,73.68q32,50,2.52,99.48a20.46,20.46,0,0,1-7.92,7.44Q91.32,426.72,64,411q-26.1-14.94-21.6-46.44c1.44-10.2-.36-18.24-5.52-24.12A206,206,0,0,0,37.2,389a50.94,50.94,0,0,0,4.68,15.6q14.94,30.42,51.24,31.68Q129.84,437.58,141,401A110.18,110.18,0,0,0,146.16,370q1.26-59.58-39.12-104.52a254.72,254.72,0,0,1-40-59.28A162.52,162.52,0,0,1,54.24,169ZM341,131.88c-5.64-16.92-18.24-25.44-38-25.56a24.7,24.7,0,0,0-14.4,7.44Q249.54,154.08,245,212.28c-1,12-1.68,24-2,36.12a13.3,13.3,0,0,0-.24,8.88q-1.26,40.86,1.32,81.72l1.68,30.12c1.32,25.2,10.92,46,28.56,62.4,30.12,1.56,53.76-10,70.68-34.56l.6-1.56a22.88,22.88,0,0,0,1.08-9.84,7.62,7.62,0,0,0-3.6-5.64L329.76,394.2a77.82,77.82,0,0,1-29,19.2c-10.44,4-19.68,2.88-27.72-3-9.72-7.2-15.48-17-17.28-29.4a617.69,617.69,0,0,1-6-64.56q-1.26-29,0-58c21.72-.6,43.8-1.92,66-4.08l.72-1c2.64-5.16,2.28-10.08-1-14.52a535.68,535.68,0,0,0-65.16,7.2c1.08-17.52,2.76-34.92,5.16-52.2q6.3-44.82,40-71.28c9.24-3,17.64-2.28,25.44,2.16a15.69,15.69,0,0,1,10,4.56,35.3,35.3,0,0,0,9.84,7.08A5.13,5.13,0,0,0,341,131.88ZM176.28,102.6a805.2,805.2,0,0,0-7.56,107.88q-.36,64.44.36,129.12a582.73,582.73,0,0,1-2.64,64.8c-1.2,12.72,1,23.16,6.48,31.44a756.25,756.25,0,0,0,3.12-92.4q-.9-39.78-1-79.44a197.48,197.48,0,0,1,42.12-1.32l3.12.12c-.12,18.12-.6,36.36-1.32,54.6a657.4,657.4,0,0,0,7.44,128.28c2.52-.36,3.6-2,3.48-4.92q-2-40-2.52-80.28l-1.08-98.4c5.28-1.56,5.76-6,1.44-13.08H226.2L226,231.36q-.9-64.8,3.48-128.28l-.6-.84-1.32-1.56a348.87,348.87,0,0,0-7.92,87.6c.6,20.28.84,40.56.84,60.84-12.72.12-25.56-.12-38.64-.72a36.64,36.64,0,0,1-6.72,1.92l.36-36c.24-16.2,1-32.4,2-48.6a499.43,499.43,0,0,0,.48-64.2C177,101.28,176.4,101.64,176.28,102.6Zm195.36,74.16q12.06,62.1,26.76,123.48,15.48,64.26,34,126.12l.84.72a20.62,20.62,0,0,0,3,4.2l.72-5.16a3,3,0,0,0,.36-2v-.48A472.76,472.76,0,0,0,441,366.36l.24-129c.12-43.56.24-86.28.6-128.28a501.33,501.33,0,0,0-8.28,105c.84,43.08,1.2,86,.84,129-.12,17.28-1,34.44-2.52,51.6-3-13.08-6.48-26.16-10.68-39.12a1001.6,1001.6,0,0,1-31.92-123.72Q380.46,185.4,373.2,139c.12-11.76,0-23.4-.6-34.8L370,117.48l-1.68-11.64a225.6,225.6,0,0,0-1.2,30,433.47,433.47,0,0,0-3.6,47.4l-.6,27.6c-.84,42.84-1.56,85.8-1.92,129-.24,21.48-1.32,42.72-3.12,64q-1.62,18,4.68,32.4a99.35,99.35,0,0,0,5.76-47.64l-.48.24-.6,4.56c.72-21.36,1-42.84.84-64.32-.12-32.28.12-64.56.84-96.6q.54-28.62,2.52-56.88ZM548,57l-1-1.8L490.2,64.8,412.32,81.48a10.54,10.54,0,0,0-1.44,12l1,1.8a744.51,744.51,0,0,0,75.6-16.44,1786.48,1786.48,0,0,0-8.4,198c.6,44.52-.12,89-2.4,133.56a71.85,71.85,0,0,0,.24,8.76,46.13,46.13,0,0,0,5.52,18.12,770.06,770.06,0,0,0,7-115.32q-1.26-93.42,0-186.84l1.08-56.88,58-8.52A14.77,14.77,0,0,0,548,57Z" transform="translate(-35.57 -55.2)"/></svg>