<svg id="Layer_1" data-name="Layer 1" xmlns="http://www.w3.org/2000/svg" viewBox="0 0 304.45 214.08"><defs><style>.cls-1{fill-rule:evenodd;}</style></defs><path class="cls-1" d="M249.36,213.48q-1.44,64.26-4.56,128.28a208.38,208.38,0,0,1-4,32.16c-1.92,9.72-.72,17.76,3.72,24.36A394,394,0,0,0,253.44,325l.48-19.68a114.5,114.5,0,0,1,20.52-2.64L274.08,322a249.43,249.43,0,0,1-5.16,47.52q-3.78,18.36,3.24,32a54,54,0,0,0,4.92-19.44c1.32-19.68,2.52-39.48,3.48-59.28q3.42-65,2.4-128.28c-.6-.12-.84,0-.84.36q-5.22,47-7.08,94.68l-7.68-1.08-.6.12a21.64,21.64,0,0,0-12.6,4.08c.6-32.28.72-64.2.48-96A28.57,28.57,0,0,0,249.36,213.48Zm-66.48.36c-6.12,15.24-5.4,30.12,2.28,44.76,5.88,11,12.12,22,18.84,32.64a187.67,187.67,0,0,1,19.92,42.84c5.4,16.92,1.92,31-10.2,42Q193.2,394.62,173,377.4c-12.48-10.8-17.76-24.36-16-40.68a68,68,0,0,1,5-19.08l-1.68-3.24q-16,12.24-13.32,36.72a72.17,72.17,0,0,0,24.72,47.52,18.83,18.83,0,0,0,6.6,3.72,32.11,32.11,0,0,0,18.12.48q30.6-8.1,33.84-41.4c2.88-30.12-5.52-57.24-25.2-81.12Q183.42,253.86,187.92,222c.84-5.88,4.32-9.24,10.32-10.08a24.76,24.76,0,0,1,18.24,5.16l7.68,16.68c4.68-9,2.76-18.36-5.76-28.2Q193.56,187.74,182.88,213.84ZM362.16,362.16a15,15,0,0,0-4-5.88l-3.72,9c-9,15.72-22.44,23.4-40.32,23.28-11.64-10.92-17-24.36-16-40.56l47.28-5.16c3.12-5,2.88-9.84-.84-14.28l-1.56-1.44L301,334.32c7.8-22.56,22.8-32.76,45.24-30.6a18.56,18.56,0,0,1,10.44,5.52c.12-13.8-6.6-21.72-20.4-23.76l-2.88-.24c-22.68,10-35.76,27.12-39.48,51.36l-3,1.08-.36,9.48,2,1.08q-.9,32.76,21.24,57.36,33.3-.54,47.52-30.6A16,16,0,0,0,362.16,362.16ZM394.8,207.24q28.26-2.52,40.32,22c7.44,15.48,5.28,29.4-6.36,41.88-10,10.8-22.44,16.8-37.32,18.12l1.2-79.8ZM392,193.44l-1.56,6.48-.48,2a168.06,168.06,0,0,0-3.48,26.64q-3.24,64.26-8.52,128.28a65.19,65.19,0,0,1-2,11.76c-3.48,12.6-2.64,23.16,2.52,31.8a25.69,25.69,0,0,0,3.6-10.56q4.14-34.2,7.2-68.76l1.2-16.68,5.88-.36a108,108,0,0,0,12.36-3.48l24.72,78.24c3.72,11.76,9,21.36,15.72,28.68a11.12,11.12,0,0,0,1.92-8A114.25,114.25,0,0,0,445,374.4c-9.48-26-20.16-51.24-31.8-75.6q27.18-12.24,31.32-44,5.94-48.6-40.8-60.48a13.19,13.19,0,0,0-7.68,1,18,18,0,0,0-3.84,2.28Z" transform="translate(-146.73 -193.44)"/></svg>