<svg id="Layer_1" data-name="Layer 1" xmlns="http://www.w3.org/2000/svg" viewBox="0 0 434.85 349.2"><defs><style>.cls-1{fill-rule:evenodd;}</style></defs><path class="cls-1" d="M84.24,186.72,95,217q5.58,14.94,11.52,29.88c4,10,8,19.92,12.24,29.76l17.28,40.8A243.65,243.65,0,0,1,147.72,352a310.36,310.36,0,0,1,7.92,41.88c2,17.88-5.88,30.12-23.88,36.48a60.83,60.83,0,0,1-45.48-.72,71.57,71.57,0,0,1-24.6-16.68L61.44,407l-2.76.24a11.34,11.34,0,0,0-.6,10.92l1.44,2.64,3.12,3.72,4.56,4.68a64.56,64.56,0,0,0,9.36,7.8,57.72,57.72,0,0,0,12.36,6.48A64.7,64.7,0,0,0,104.64,447c20.28,1.2,35.64-6.24,46.2-22.2a50.73,50.73,0,0,0,8.28-32.16q-5.22-66.06-39.6-124.92C100.2,234.36,89.88,199.08,88.8,161.88c-.36-13.32,5.64-22.8,18.24-28.68,16.68-7.56,31-4,43.08,10.8l1.2,1.2L155.88,158l-.36-6.48a8.63,8.63,0,0,0-.24-6.24l-1.56-3.72a58.75,58.75,0,0,0-2.88-6.24c-1.08-1.8-2.16-3.6-3.48-5.4a26.43,26.43,0,0,0-9.48-7.92A40.46,40.46,0,0,0,121.56,118a30.22,30.22,0,0,0-19.32,4.92,43.87,43.87,0,0,0-19.68,28.2A64.37,64.37,0,0,0,84.24,186.72Zm122.76-55a1051.69,1051.69,0,0,0-7.32,109.56l-.84,60.6V302a7.39,7.39,0,0,0,0,4v.24l-1,64.2c-.36,21.72-1.32,43.32-3.12,64.8-1,12,.36,22.56,3.84,31.8a581.16,581.16,0,0,0,4.08-75.48c-.12-28.2-.12-56.4.24-84.48,21.84,1,43.32,1.44,64.56,1.44-1,30.84-2.28,61.56-3.84,92.4a432.2,432.2,0,0,0,1.44,64,426,426,0,0,0,6.6-72l.72-84.36a6.75,6.75,0,0,0,.48-5l-.36-1.32.6-38.28c.6-42.84.48-85.68-.36-128.28l-.84-.84-1.08-.84c-2,2.16-2.88,5.16-2.76,9q2,64.62.36,129l-.6,24.84-3.84-.12a323.32,323.32,0,0,0-61,3.84l.6-38q1.26-64.8,3.6-128.28v-.72Zm244.56,29.52q47.7,38.34,29.64,97.8-12.78,42.66-55.44,45.84l.72-35.64Q427.2,211,425,153.84C434.76,152.4,443.64,154.92,451.56,161.28ZM353.16,142a67.25,67.25,0,0,0-31,31.44,174.42,174.42,0,0,0-13.44,38.76c-2.88,13.08-5.28,26.28-7.2,39.48s-3.36,26.52-4.2,40.08-1,27-.6,40.56c.36,15.48.36,30.84-.24,46.32a112.52,112.52,0,0,0,7.08,44.64,64,64,0,0,0,21.6,29.16c21.36,2.28,39.12-4.44,53.4-20.4a29.21,29.21,0,0,0,7.8-22.2c-12.12,16.92-28.68,26.52-49.44,28.68a64.17,64.17,0,0,1-11.76.12q-29.88-27.54-26.88-72.36c1.32-19.68,2.4-39.36,3-59.16L364,306a13.16,13.16,0,0,0,.24-10.44l-.72-1.2a227.68,227.68,0,0,0-61.32,2.76q-4.5-76.14,40.2-135.36a81.57,81.57,0,0,1,11.52-12.6c13.08-1,24.72,1,34.92,5.64Q377.28,130,353.16,142Zm71.52,3.36-.12-4.32a23.37,23.37,0,0,0-2.28,5.28,11.29,11.29,0,0,0-2.64,1.44L419.4,151a3.69,3.69,0,0,0,.72,2.28l.6.6a33.19,33.19,0,0,0-.36,5l-.72,128.28L419.4,306l-.48,1.68a23.63,23.63,0,0,0-.48,6.48,5.14,5.14,0,0,0,.72,2q-1.62,50.22-8,99.72c-1.56,11.76-.84,22.56,2.28,32.4a286.8,286.8,0,0,0,7.8-50c1.92-27,3.36-54,4.2-81.24a95.84,95.84,0,0,0,25.08-5.52,61.07,61.07,0,0,0,12.36-9.84q31.86-33.84,28.68-82.08-3.78-57.06-57.48-76.44l-8.64,1.92Z" transform="translate(-56.97 -117.84)"/></svg>