<svg id="Layer_1" data-name="Layer 1" xmlns="http://www.w3.org/2000/svg" viewBox="0 0 267.48 213.12"><defs><style>.cls-1{fill-rule:evenodd;}</style></defs><path class="cls-1" d="M252.36,199.68a595,595,0,0,0-4.32,69L247.8,397a2.55,2.55,0,0,0,2.16,2.16,2.31,2.31,0,0,0,1.92-2.16c2.28-23.64,3.36-47.4,3.48-71.52V301.2c8.76.48,17.52,1.32,26.16,2.52l.12,5.52a386.26,386.26,0,0,1-3.72,64.68q-2.7,19.26,4.32,31.68A509.46,509.46,0,0,0,289,322.8v-20a8.42,8.42,0,0,0,1.44-4.32,11.89,11.89,0,0,0-.48-4.08l-.84-1.92q.18-49.5,1.44-97.92c-.48.12-.72.24-.72.48a561.94,561.94,0,0,0-8.28,94.56l-13.08-2.16a11.87,11.87,0,0,0-7.08,0,28.48,28.48,0,0,0-6,2.4q-.18-46.8-.72-92.52A2.31,2.31,0,0,0,252.36,199.68Zm-42.48,8.4c10.32,4.92,17.4,12.6,21.12,23l.36-.84c1.44-20.28-7.8-32.4-27.84-36.48-16.44,14.88-20.16,33.48-11.4,55.8q10.26,25.56,21,51.6a97.68,97.68,0,0,1,5.64,59.28c-3,13.92-12,19.8-27,17.76-18.6-2.64-28.2-14.16-28.8-34.68-.24-9.36-2-17.52-5.52-24.36Q149,353.58,167.76,385a20.19,20.19,0,0,0,14.16,10.2c26.76,5.28,41.88-5.4,45.12-32.16q7-57.78-25.68-105.36c-12.6-18.12-11.88-34.92,1.92-50.4A9.73,9.73,0,0,1,209.88,208.08ZM366.72,333.84a80.51,80.51,0,0,0-34.2,8.88q6.66-39.24,40.8-31.56-10.08-28.8-31-1.8A95,95,0,0,0,324,351.12a64.74,64.74,0,0,0,7.68,44.28,59.42,59.42,0,0,0,6.48,9.36q39.78-3.78,33.84-36c-8.64,11.16-19.68,18-33,20.28a59.3,59.3,0,0,1-7.92-35.64,89.35,89.35,0,0,0,36.84-9.24Zm47.52-19.44-.6,9.12-17.4,7.2-1.8-40.08a155.31,155.31,0,0,0-6,42.12,386.6,386.6,0,0,1-2.76,45.36,62.62,62.62,0,0,0,1.2,22.68c.72,3,1.8,5,3.36,6.12L396,345.36l17.28-4.56a221.38,221.38,0,0,0-2.88,47,45.39,45.39,0,0,0,2.88,15.36,309.8,309.8,0,0,0,7.92-49.08,353.24,353.24,0,0,0-.72-63.72A67.68,67.68,0,0,0,414.24,314.4Z" transform="translate(-154.82 -193.8)"/></svg>