<svg id="Layer_1" data-name="Layer 1" xmlns="http://www.w3.org/2000/svg" viewBox="0 0 550.96 421.11"><defs><style>.cls-1{fill-rule:evenodd;}</style></defs><path class="cls-1" d="M289.68,277.68l18.24-162.6,12.84,157.68ZM78.24,90.6a54,54,0,0,1,28.68-2.28q33.48,6.3,38,40.44a23.52,23.52,0,0,0,1.68-16q-9.72-44.28-56.76-41.64Q58.38,82,57.48,116.88q-1.62,52.74,30.24,95.52a220.78,220.78,0,0,1,19.68,32A323.24,323.24,0,0,1,140,357.24q4.86,49-25.2,85.2A49.38,49.38,0,0,1,96.72,456c-16.68,7.2-31.92,4.92-46-7-13.44-11.4-17.88-25.8-13.2-43.2l-1.2.12-1.68-1.56-1.08-1a5.75,5.75,0,0,0-1.32,1.8,72.74,72.74,0,0,0-3.48,15.12q-4,32.22,22.92,49.08c24.84,15.72,46.44,12.84,64.8-8.88,22.44-26.52,33.12-57.48,32-93.12a318.58,318.58,0,0,0-14-84.84,264.13,264.13,0,0,0-45-86.16q-32.58-41.58-23.28-91.2a13.3,13.3,0,0,0,3.72-4.8,20.7,20.7,0,0,1,7-8.4Zm104-6c-2.28,30.6-3.6,61.56-4,92.64-.36,33.48-.36,67-.24,100.68h-.6a4.17,4.17,0,0,0-1.2,2.4,10.92,10.92,0,0,0,1,6.48l.84.24.12,19.32q.36,64.8-5.4,128.88c-1.08,11.88.12,22.68,3.6,32.28a1.69,1.69,0,0,0,1-1.44,1133.81,1133.81,0,0,0,6.12-128V288a130.5,130.5,0,0,0,46.8-1.32l.24,33.48a1199.36,1199.36,0,0,1-4.68,128c-1.08,12.72.72,23.28,5.52,31.56a41.8,41.8,0,0,0,4.08-16.92q2.34-64.62,1.2-129.24c-.36-16.08-.36-32.16-.24-48.24l1.44-.36a8.63,8.63,0,0,0,1.44-2.52,13.46,13.46,0,0,0-1-10.56l-.84-.6-.84-.12q.54-33.3,2.52-66.6c2.52-43.08,2.88-85.92,1.32-128.28-.36.12-.48.24-.48.36q-4.68,56.88-7.44,114.36-2,40.14-2.28,80.64a406.68,406.68,0,0,1-46.68,5.88c.24-22.92.72-45.84,1.32-68.64q1.8-65,.6-128.28Q182.64,81,182.28,84.6Zm127.2-7.44a5.79,5.79,0,0,0-2.64,1.8q-4.68,30.78-7.92,61.56Q292.26,204.06,285,267.36l-1.44,11.52-1.68.36-.24,1.56a12.16,12.16,0,0,0,.6,7.44h.24C278,323.64,272.76,358.8,266.76,394a239.56,239.56,0,0,1-7.68,32c-5.16,16.32-6.6,32.16-4.2,47.52,4.2-4.44,7-10.08,8.4-17a1271.61,1271.61,0,0,0,20.28-126.12l4.8-41.52a103.51,103.51,0,0,0,33.36-2.28q2,23.94,5.4,47.88c5.88,42.36,10.68,84.72,14.52,127.32.84,10.32,4.32,17.88,10.32,22.56a8.91,8.91,0,0,0,1.2-3.24,81,81,0,0,0-.24-22.2l-19.56-126c-2.4-15.84-4.44-31.8-6.24-47.76l1.32-.48.36-.72c1.92-5.28,1-9.12-3-11.64h-.12c-2.28-22.2-3.84-44.64-4.92-67.08q-3.06-64.26-9.6-127.56l-.6.12-1,6.36.24-7ZM577.92,297.48c1-14.28-5.88-21.48-20.52-21.72q-41.58,38-39.84,99.36c.6,20.28.36,40.44-.72,60.72-1,17.64,5.76,30.12,20,37.68q9.36,4.86,18.36.72a30.32,30.32,0,0,0,9.84-7.08,41.9,41.9,0,0,0,5.64-7.44,54.85,54.85,0,0,0,7.8-38.4C571.68,437,561.6,448.44,548,455.52c-6.36,3.24-10.8,1.92-13.56-4.2a109.13,109.13,0,0,1-8.64-63l.84-6,37-7.32A13.81,13.81,0,0,0,565,364.8a14.34,14.34,0,0,0-2.76-5.16l-35.4,9.24c-.12-29.64,9.36-55.68,28.68-78.24,8.64-.36,16.08,1.92,22.2,6.84ZM367.8,131.28a58.84,58.84,0,0,1-20.88,38.64,71.44,71.44,0,0,0-5.28,5l.72-89.88,13.44,2.28C365.76,100.2,369.84,114.84,367.8,131.28Zm37-40.92,14.88,12.72c1.44-10.44-2.64-17.88-12.12-22.2a34.61,34.61,0,0,0-7.08-2.16Q374.34,175,386.76,277a15.5,15.5,0,0,0,8.76,12.72l3.6,1.8c16.44-8,23.4-20.52,20.64-37.44a11.9,11.9,0,0,0-2-4.56c-1.92,11.4-7.56,19.44-17,24.12a11.74,11.74,0,0,1-7,1.08l-4.2-86.76A20.71,20.71,0,0,0,402,189.48a22.91,22.91,0,0,0,6.24-1.68,11.49,11.49,0,0,0,1.44-5.52,12,12,0,0,0-2.16-7.44l-18,2.28a260.35,260.35,0,0,1,11.16-86Zm30.84-14a13.26,13.26,0,0,0-.84,4.92,14.91,14.91,0,0,0,.48,4,4.4,4.4,0,0,0,1.44,2.52h.48c.12,24.36-.24,49.08-1,74.4q-2,64.44-3,129-1.26,65.7-5.4,125.28a425.52,425.52,0,0,1-4.2,46.32c-1.32,9.12-.48,16.92,2.4,23.28a21.19,21.19,0,0,0,1.8,5l1.32.6,2.76.48q37.8-16.38,54.12-54.84a391.5,391.5,0,0,0,29.76-123.6,452.74,452.74,0,0,0-8.28-127.44c-4.44-21.24-9.36-42.6-14.76-63.84Q482.1,79.92,439.44,75l-2.64.72ZM356.28,77.4,342,75.48a1114.46,1114.46,0,0,0-7.56,145.08c.12,5.4-.12,10.8-.48,16.2l-.84,8-.72,8-.6,8.76a55.75,55.75,0,0,0,4.2,23l5.76-99.84,7.56-1.08q2.88,56.52,23.16,106.08A793.58,793.58,0,0,0,352.68,179a105.56,105.56,0,0,0,18.12-45l.84-7.08.36-3.6.24-3.48-.36-6.84a61,61,0,0,0-7.56-25A48.9,48.9,0,0,0,356.28,77.4Zm109.56,19a12.47,12.47,0,0,1,2.52,2.52A286.14,286.14,0,0,1,505.2,200.64a434.3,434.3,0,0,1,4.92,96,383.27,383.27,0,0,1-28.56,125q-14,34-45.36,48.36l.12-1.2A2.93,2.93,0,0,1,433,467.4l-1.68,2.4c1.68-13.32,2.88-26.88,3.72-40.68q3.42-63.9,4.32-128.16.9-64.62,4-129.12a444.75,444.75,0,0,0-4-84.24A45.3,45.3,0,0,1,465.84,96.36Z" transform="translate(-28.29 -71.01)"/></svg>