<svg id="Layer_1" data-name="Layer 1" xmlns="http://www.w3.org/2000/svg" viewBox="0 0 309.21 214.8"><defs><style>.cls-1{fill-rule:evenodd;}</style></defs><path class="cls-1" d="M312.36,295.32l18-86.52c2.16,28,5.4,55.68,9.72,83.4A194,194,0,0,0,312.36,295.32Zm-66.84-102a613,613,0,0,0-5,96.48l.12,3.84a576.74,576.74,0,0,1-3,67.32c-.6,6.12-1,12.12-1,18.24.12,7.56.6,15.36,1.44,23.16A340.92,340.92,0,0,0,246,312.72l-.36-11.16,25,2a671.08,671.08,0,0,0-1.68,97l.6,5.52a683.8,683.8,0,0,0,9.36-147c-.84-21.48-1.44-42.72-1.68-63.6a720.81,720.81,0,0,0-6.6,98l-25-2.4,2.28-95.52Zm-55,11.52a49,49,0,0,1,32.64,15l.12-.24c-4.68-16-15.24-25.08-31.68-27.24-17.88,14.28-21,33.6-9.36,58.2q15.84,33.3,31.2,67c10,21.72,8,41.16-5.64,58.08a32.35,32.35,0,0,1-19.68,11.76,23.81,23.81,0,0,1-20.64-5.52,23,23,0,0,1-8.76-17,57.42,57.42,0,0,0-9.6-29.28q-12.06,37.62,19.56,59.28Q193,411.54,212,389.16A58.15,58.15,0,0,0,226.32,350,70.63,70.63,0,0,0,219,319.2Q206.58,294.36,195.24,269a330.15,330.15,0,0,1-15.6-40.92l5.16-19.44Zm160.56,94.08v-1.44l-.24-1.32-.36-1.44-.72-1.32-.72-1.44h-1.8q-8.1-47.16-13.92-94.56a11.35,11.35,0,0,0-3-6.12,36.51,36.51,0,0,0-7,15.36q-8.64,45.18-18.36,90.24L303.72,298a196.57,196.57,0,0,1-7.44,39.24c-2.28,7.8-4.8,15.48-7.44,23A105.72,105.72,0,0,0,283,401.76a5.24,5.24,0,0,0,3.72-3.36,153.37,153.37,0,0,0,6.84-20.16c6.36-24.12,12-48.36,16.8-73l31.92-.24c4.92,26.52,9,53,12,79.68a38.29,38.29,0,0,0,3.36,11.88,26.62,26.62,0,0,0,4.68,6.84,261.4,261.4,0,0,0-2.16-41c-1.8-13.08-4.08-26.28-6.84-39.36L349.44,304a9.47,9.47,0,0,0,1.44-3.6ZM447,288.36a213.54,213.54,0,0,0-24,5q0-37.08-.36-73.44c-.6.12-.84.24-.84.36a511.94,511.94,0,0,0-5.88,92.4,417.22,417.22,0,0,1-3.12,64.8q-1.8,14.58,4.68,23.4a273.31,273.31,0,0,0,5.4-52.68l.12-43.92a182.93,182.93,0,0,0,23.88-3c-.12,23.16-.6,46.44-1.2,69.84q-.36,18.18,5,31.68,3.78-38.52,4.2-78.72.72-64.62-3.36-128.16a225.29,225.29,0,0,0-4.44,46.2Zm-88-87.84v8.16l29.88,2a1438,1438,0,0,0-6.12,190.2l2.52,2.28a351.85,351.85,0,0,0,6.24-93.6,491.13,491.13,0,0,1,.84-76.32l.84-6.48.36-2.52.24-2.28.24-2.4a36.48,36.48,0,0,0-.6-8.88l39.12-3.48a9.45,9.45,0,0,0,1.56-8.16,14.34,14.34,0,0,0-1.32-3.12l-.24-.36a335.39,335.39,0,0,0-64.68,4.08Z" transform="translate(-145.82 -191.28)"/></svg>