<svg id="Layer_1" data-name="Layer 1" xmlns="http://www.w3.org/2000/svg" viewBox="0 0 581.64 576.67"><defs><style>.cls-1{fill-rule:evenodd;}</style></defs><path class="cls-1" d="M334.44,371.16c1.08,3.12,1.68,9.24,1.68,18.36,0,3.24-1.08,17.76-3.12,43.68l-4,48v54.48c-.6,2.52-.84,6.6-1,12.24l-.48,14.64c-.48,11.64-2.52,17.4-6.12,17.4-3,0-4.92-2.28-5.52-7l.12-7.32q0-2.52.72-13.32c.48-8,1-14.4,1.44-19.2V478.8A578.8,578.8,0,0,0,323.88,413c1.08-21,3.36-34.92,6.84-41.88C332.28,368.28,333.48,368.28,334.44,371.16Zm-86,24.24c2-5.64,3.48-9.6,4.56-11.88a35.15,35.15,0,0,1,8.16-11.64c7.56-6.72,14.28-7.32,20.4-1.68a30.46,30.46,0,0,1,5.4,7.56,15,15,0,0,1,1.8,5.76c0,4.32-1.68,6.48-5.16,6.48a3.21,3.21,0,0,1-3.24-1.92l-1.2-4.32q-1.26-6.48-6.84-6.48-12.24,0-17.64,25.92c-1.8,8.88-3.24,22.2-4.08,39.84a336.32,336.32,0,0,1-3.48,34.2,8.27,8.27,0,0,1,1-.36,96.55,96.55,0,0,1,15-4.68,74.32,74.32,0,0,1,15-2c4.68,0,7,1.08,7,3.12,0,1.56-4.8,4-14.4,7.44-10,3.6-17.64,5.4-23.28,5.4l-1.44-.12c-.6,6.72-1,14-1,22.08l-.24,10.08c-.12,7.56.12,14.52.48,20.76,1.44,19.8,5.28,29.76,11.4,29.76,9.48,0,17.88-4.32,25.2-13.08a83.08,83.08,0,0,0,7.08-10l4-6.48a101.93,101.93,0,0,0-1.08,12.6c0,1.32-.72,3.36-2,6.12a46.75,46.75,0,0,1-6.36,9.72,36.21,36.21,0,0,1-28.44,13c-10.92,0-17.76-7.08-20.52-21.12A81.51,81.51,0,0,1,233,544.32l.24-8.4c0-14.76.72-29.16,2-43,2-20.88,3.48-37.68,4.2-50.4a168.6,168.6,0,0,1,2.88-23.76A150.57,150.57,0,0,1,248.4,395.4ZM120.36,31c10,9.24,15,19.08,15,29.52a12.2,12.2,0,0,1-1.08,5.28c-.84,1.8-1.92,2.76-3.36,2.76s-3.12-2.28-5-6.84c-3.24-7.44-5.64-12.36-7.08-14.88C110.28,32.4,97.32,25.2,80,25.2c-12,0-20.4,6.72-25.32,20a61,61,0,0,0-3.84,20.64c0,15.72,7.44,50.16,22.44,103.56q11.7,41.22,27.12,91.68l12.72,44.4c5.52,19.56,10,36.24,13.32,50.16q14.94,61,15,98.88l-.72,21.24a250.12,250.12,0,0,1-6.84,43.32Q118.26,581,76.8,581,31.08,581,15.48,553a53.11,53.11,0,0,1-6.36-20,73.13,73.13,0,0,1-.48-10.44,79.24,79.24,0,0,1,9-36.12L23.76,475c1.8-3.72,2.76-6.48,2.76-8.4l-.24-1.8,1,2.28a15.53,15.53,0,0,1,1.2,4.92,99.14,99.14,0,0,1-3.6,27c-2.28,8.64-3.48,13.56-3.48,14.76V525.6a56.53,56.53,0,0,0,4.08,18.24c6.84,16,21.48,24,43.8,24,10.8,0,19.32-1.08,25.56-3.36a29,29,0,0,0,13.92-10.32c2.76-4,5.28-9.84,7.44-17.64l6.12-25.2c4.44-17.76,6.84-29.16,7.2-34.08v-8.88c-.24-5.16-.36-9.84-.36-13.92q0-21.06-8.52-64.8c-5.64-26.88-8.52-41.52-8.52-43.8,0-3.24-3.72-16.8-11.28-40.68L76.08,226.32q-36-118.08-36-160.2C40.08,46,45,31.44,55,22.56q12.78-11.34,32.76-7.92A62.62,62.62,0,0,1,120.36,31Zm103.2-13.2a4,4,0,0,1,3.48.6c3.48,1.8,5.16,4.56,5.16,8l-4.32,78q-4.32,81.54-4.32,99.72c0,12.24.36,21.36,1.08,27.24v68.16c.84,4.32,1.32,11,1.32,20.28,0,5.76-.6,15.48-1.68,29s-1.56,21.84-1.56,24.84l2.16,62-.72,17.16-1.68,25.92c-.48,5.88-.84,14.28-1.2,25.08l-.48,16.8-3.24,29.52q-4.32,28.44-9.72,28.44c-3,0-5-1.32-6-4l-.48-4.2c0-1.08,1.08-11.28,3.36-30.84s3.36-31.92,3.36-37.08c.12-6.84.84-18,2.28-33.24,1.32-15,2-26.16,2-33.24l-2.16-62.52c0-4.44.84-16.68,2.4-36.72q2-23.22,0-37.8V268.68l-35.76-1.56L177,269q0,19.26-1.08,28.08v43.8a50.28,50.28,0,0,0-1.08,6.48,47.55,47.55,0,0,1-1.08,6.36v43.92c-3.48,25.68-5.16,42.36-5.16,49.92l-1.08,21.12q-1.44,24.48-3.24,45-5.76,65-12.72,64.92c-3.36,0-5.64-1.32-6.84-4.08a11.86,11.86,0,0,1-.72-4.44q0-.9.72-7.92a91.67,91.67,0,0,0,.84-10.32l.84-.24.24,6.12c2.52-16,4.92-42.6,7-80.16,1.92-35.4,4.68-62.52,8.28-81.6V351.36A51.47,51.47,0,0,0,163,345a50.28,50.28,0,0,1,1.08-6.48V295.44c.72-5.88,1.08-14.88,1.08-26.76,0-7.08-.48-25.2-1.56-54.12l-1.44-42.84Q163.2,77.22,163,30a30.11,30.11,0,0,1,1-8.88c1.32-3.72,4.08-3.36,8.16.84.36,3.72.6,9.72.6,17.76l.24,35.76.24,71.4c0,12.36.6,35.76,1.92,70.08l1.44,39,16.92-.84a90.25,90.25,0,0,1,19.08,2.28h.12V234.12c-.72-6.6-1.08-16.44-1.08-29.76.36-40.92,1.2-71.52,2.52-92,1.08-16.92,2.76-33.84,5.28-50.52a288.3,288.3,0,0,0,2.52-40.44C221.88,19.56,222.48,18.36,223.56,17.76Zm73.56,49.92c-1.68,9.24-4.92,33.24-9.84,72.24Q281.7,185.1,274.08,213c-1.2,4.44-2.4,9.48-3.6,15.36l14.16.84,35.76-.6h1.08q-17.1-93.42-23.76-160.92ZM461,412.56c-.6,13.68-1.2,22.8-1.8,27.24v37.08l3.72-1.32a54.33,54.33,0,0,1,17-3l1.08.12V462.6c1.68-26,2.64-45,3-56.88a30.1,30.1,0,0,1-.12-7.56,37.94,37.94,0,0,1,1.44-8.52c.84-2.64,1.68-4,2.64-3.84,1.2.12,2.4,2.28,3.6,6.36l.84,28.08L492,438.36l-1.08,26.88v61.68a306.9,306.9,0,0,1-1.56,38.76c-1.8,16.56-4.32,24.84-7.68,24.84-2.76,0-4.44-1.2-5-3.72l-.12-4.08,2.16-23.88c1.44-16.32,2.28-27.36,2.4-33V481l-2.76.84a50.37,50.37,0,0,1-15.6,3l-3.48-.48v.12c-.84,10.08-1.32,31.08-1.56,63-1.08,27-4.2,40.44-9.6,40.44-2.28,0-3.72-1-4.32-3l-.24-3.24c0-2.28.84-16.2,2.52-42,1.68-27.24,3-46.32,4-57V439.56a49.77,49.77,0,0,0,2.52-15.84c-.12-7.08,0-12.36.24-15.84l.48-15.36q.18-7,4.32-7.56a3.29,3.29,0,0,1,2.88,1.32,7.89,7.89,0,0,1,1.2,4.8ZM362.28,367.8a5.29,5.29,0,0,1-5,3c-2.76,0-7.08-11.16-12.84-33.48q-7.92-30.42-17.64-81l-3.48-18-.72.12H284.64l-16.08-1.32-3,15.84L258,295.56c-6.12,33.24-12.84,54-19.92,62.28l-3.72-1.32c-.12.12-.24-.72-.24-2.52q0-3.78,14.4-72.36c11-52.2,17.88-85.56,20.4-100.32,1.8-9.48,3.72-23.88,6-43.2s4.2-33.72,6-43.68c1-4.68,2-11.64,3.24-21,1.32-10.2,2.4-17.64,3.24-22.08,1-2.28,1.44-6.12,1.32-11.4l-.24-12.84c.24-4.44,1.32-7.44,3.12-9,2.4-1.92,6.36-1.92,11.76,0q4,23.22,10.56,87,5.76,55.62,12.48,86.76l21.48,96.6q15.48,70.2,15.48,75.72A7,7,0,0,1,362.28,367.8ZM382.8,203.28c1,1.08,1.44,3.48,1.44,7,0,6.48-.36,18.24-1,35.28q-.72,21.78-.36,34.56V352.2a151.94,151.94,0,0,0-.12,17v.48l7.44-15.12q18.72-39.06,23.28-60.24a226.25,226.25,0,0,1,6.72-24.24l7.8-24.36,4.08-12.12a67,67,0,0,0,3.24-12.24,25.52,25.52,0,0,1,2.88-6.6,52,52,0,0,1,5.28-8.28c5-6.12,7.56-5.4,7.56,2.28,0,1.08-4,13.92-12,38.28-9,27.36-14.64,45.84-17.16,55.44-4.44,17.4-10,32.88-16.56,46.2l-.72,1.56a123.69,123.69,0,0,1,2.64,13.56c.36,2.64,1,7.68,1.56,15,.6,7,1.08,12,1.68,15,1,5.52,2.4,15.72,4.44,30.72,1.68,12.72,3.36,22.8,5,30.12,3,12.48,6.72,35.28,11.4,68.52q6.48,46.08,6.48,52.92a9.72,9.72,0,0,1-1,4.44,5.1,5.1,0,0,1-5,3.24c-6.48,0-11.28-15-14.4-44.88-.6-5.88-1.8-18.6-3.36-38.28-1.2-15.24-2.28-26-3.36-32.64-3.24-19.32-6.24-37.2-8.76-53.64-3.24-20.4-5.4-36.24-6.48-47.64a193.82,193.82,0,0,1-12.6,17.4l-3.48,39c-2.64,28.68-4.2,47.76-4.68,57.36-1.44,32.16-2.52,52.08-3.24,59.88-2.4,25.2-6.12,37.8-11,37.8-2.64,0-4.44-1-5.52-2.76a7,7,0,0,1-.72-3.12L362.76,475q8.46-99,8.52-109.32l.24-6.84a60.16,60.16,0,0,1,1.08-8.52V279l.6-40.56c0-2.16.24-5.52.72-10.2s.6-7.92.6-10.08c.12-7.32,1.68-12.24,4.92-14.88ZM379.44,24.84a16.43,16.43,0,0,1,.48,4.92c-.36,6.6-.36,14.4,0,23.16L381,76.08,383,117l21.24.72c8,0,14.88-5.28,20.52-16a62.61,62.61,0,0,0,4.8-11.52A28.76,28.76,0,0,0,431,83.88q0-44.1-30-54.6c-3-1-9.84-2.4-20.64-4.32ZM441.36,84a46.62,46.62,0,0,1-7.2,24.84c-8.4,13.32-22.32,19.92-41.76,19.92l-8.88-.48c.48,14.52.72,27.6.72,39.48a90.65,90.65,0,0,1-1.08,13.92c-1.32,8-3.48,12.12-6.48,12.12a4.86,4.86,0,0,1-5.16-3.84l-.24-4.08,1.08-9.24,1.08-9.36c0-7.56-.36-21.6-1-42.12l-2-1.44a8.4,8.4,0,0,1-3.24-6.6,4.43,4.43,0,0,1,1.32-3.24,4,4,0,0,1,2.76-1.08l.84.12-.48-11.52C370.56,67.68,370,48.72,370,44.64c0-3,.48-10.56,1.32-22.68l.12-1L371,19.32a3.3,3.3,0,0,1,1.8-3c.6-1.32,1.44-1.56,2.28-1l.48-.24,11.52-.36a73.93,73.93,0,0,1,30.36,9.6c5.52,4,11,10.68,16.56,20.28,1.8,3.24,3.6,9.48,5.16,18.84A132.22,132.22,0,0,1,441.36,84ZM509,34.32c-.6,3.24-1.8,4.92-3.6,4.92-1.56,0-2.52-.84-3.12-2.64L501.48,31c-.84-5.52-3.84-8.28-8.76-8.28-10,0-15.24,16.56-15.84,49.8-.12,9.36.12,23.52.84,42.48.6,18.12.84,30.48.72,36.84l-1.68,39,8.16-.24a56.8,56.8,0,0,1,14.76,1.68c4.44,1.08,6.6,2.64,6.6,4.56a5,5,0,0,1-1.32,3.72c-1.2,1.08-3.36,1.68-6.48,1.68l-22.2-.84-.72,15.12c-1.32,26.28-2,47.76-2,64.44l.24,17.88c.12,11.64.6,20.64,1.2,26.76V368.4l2.16,1.32a44.93,44.93,0,0,0,18.24-20.4l4.56-11a63.73,63.73,0,0,1,5.52-10.8,33.09,33.09,0,0,1,.84,8,78.68,78.68,0,0,1-4.56,25.92c-5.16,14.28-13.2,21.36-24.36,21.36-5.4,0-9.48-1.32-12-4a14,14,0,0,1-2.88-5.52v-48.6c-.36-6.12-.6-15-.72-26.4l-.12-17.4c0-16.2.12-26.4.36-30.72l3.12-40.8.6-10-1.32-.6c-1.32-.6-1.92-1.32-1.68-2.16l.84-.6q0-1.62,2.52-2.88l.6-19.08c.36-16.92.84-28.68,1.2-35.28q.72-15.48,1.08-35.28l.48-35.4c.12-13.8,2-25.68,5.52-35.64q7.56-22,21.6-17.28a21.89,21.89,0,0,1,9,6.24c2.52,2.76,3.72,5.16,3.72,7.2Zm70.68,13.92a3.66,3.66,0,0,1-3.84,2.64c-.48,0-1.56-1.32-3.12-4L567.6,38.4c-5.28-8.28-9.72-12.48-13.44-12.48-10,0-17.16,7.56-21.6,22.8a87.4,87.4,0,0,0-3.48,22.68c0,16.8,3.12,37.56,9.48,62.4q3.78,15.3,20.88,71.28,14.4,47.34,21,78.24,9.54,45,9.48,83.4l.36,36.36a580,580,0,0,1-5.76,75c-4.68,31.32-11.76,56-21.48,73.92-12.12,22.32-28,33.48-47.28,33.48-9.12,0-15.36-4.56-18.6-13.56a35.8,35.8,0,0,1-2-9.36l-.24-4.44c0-3.24,1.44-9.84,4.44-19.8,2.76-9.36,3.84-15.72,3.48-19.2h.84c3.36,11.4,5,18.72,4.92,22.2l-.6,6a90.81,90.81,0,0,0-.6,10.44,21.74,21.74,0,0,0,1.44,7.68c1.56,4.32,4.2,6.48,7.8,6.48q42.3,0,55.56-101.76a671.13,671.13,0,0,0,4.92-70.32L577,367.08c0-24.12-3.12-50.88-9.24-80q-6.12-30.06-20-76.68c-10.92-37-17.52-60.36-20-70.08-6.12-24.36-9.12-44.4-9.12-60.12,0-18.72,3.24-33.6,9.6-44.64q8.1-14,21.24-16.92a24.39,24.39,0,0,1,21.12,4.92c6.48,5,9.72,11.88,9.72,20.64A12.18,12.18,0,0,1,579.72,48.24Z" transform="translate(-8.64 -13.85)"/></svg>