<svg id="Layer_1" data-name="Layer 1" xmlns="http://www.w3.org/2000/svg" viewBox="0 0 315.26 217.8"><defs><style>.cls-1{fill-rule:evenodd;}</style></defs><path class="cls-1" d="M257.76,284q1.26-44.82.12-89.16a221.87,221.87,0,0,0-5.52,44.88l-1.2,41.88a68.74,68.74,0,0,0-22.08,6.24l.6-94.68a134.77,134.77,0,0,0-5.76,42.48q.36,22.5-.36,44.64L223.2,291l-.84.48v.72A6.81,6.81,0,0,0,223,298c-1.2,37.32-2.16,74.28-2.76,110.64a2.45,2.45,0,0,0,1.08-1.2,583.15,583.15,0,0,0,7.32-85.92l.36-23.76,21.84-3.6-2.16,74.64a87.85,87.85,0,0,1-1.8,16c-2,9.72-.72,17.64,4,23.52a56,56,0,0,0,4-21.12c.12-21.24.72-42.48,1.68-64l1.2-32.28A9,9,0,0,0,257.76,284Zm60-60.48a147.74,147.74,0,0,0,2.76,21.6l6.72,33a61.33,61.33,0,0,0-26.76,6.24l3.24-13.68a432.13,432.13,0,0,1,13.56-45.6ZM148,322.08a4.63,4.63,0,0,0-3.48-1.68q-18.54,37.8,5.52,68,15.3,19.26,37.8,9.36c14.52-6.48,22.92-17.64,25.08-33.36a116.67,116.67,0,0,0-3.36-48.12A108.8,108.8,0,0,0,190,278.16a138.44,138.44,0,0,1-15.48-24.24q-14.94-30.6,7.56-49c13.56-1.32,22.08,6,25.8,22.08l.84,2.76c4-22.68-4.92-35.64-26.88-39q-34,31.68-4.8,76.92a244,244,0,0,1,27.48,57.6c4.92,15.12,4,29.52-2.88,43.08a25.52,25.52,0,0,1-10.8,11.16,56.68,56.68,0,0,1-17.64,6.36c-5.64.84-10.44-.6-14.16-4.44q-23-24.12-9.36-55.44A6,6,0,0,0,148,322.08Zm209.76,75.48a721,721,0,0,0-12.48-71.88q-13.14-58.14-24-116.64a72.49,72.49,0,0,0,.48-15.24,62.89,62.89,0,0,0-12.24,25.08Q294,281,279.24,342.72a167.23,167.23,0,0,1-10.32,30c-5.28,11.88-5.4,22.2-.48,31a26.21,26.21,0,0,0,4.56-9.36l24.6-98.4a161.8,161.8,0,0,1,30.84-4l.48-.6.72-1,8.88,48a265.13,265.13,0,0,0,18.12,61.44A2.27,2.27,0,0,0,357.72,397.56ZM422,192.72c-13.8,5.76-23.28,15.84-28.44,30.36a356.52,356.52,0,0,0-20.76,112.68,70,70,0,0,0,14.64,45.36c9.48,12.36,21,14.52,34.8,6.48,7.8-4.56,13.2-10,16-16.32l-.48,2.28c-2.52,11.64-1.44,21.36,3.48,29a87.78,87.78,0,0,0,4.2-23.52,116.7,116.7,0,0,1,3.84-23.16c3.12-11.16,1.68-20.28-4.44-27.48A125.45,125.45,0,0,0,425,336.6l-.24.84c-2,4.8-1.08,8.52,2.64,11l15.24-5.64-1.92,15.48a47.6,47.6,0,0,0-.84-5.76c-3.48.84-6.12,3.12-8.16,6.72A37.79,37.79,0,0,1,415.08,375q-20.34,3.42-27.36-14.4a113.24,113.24,0,0,1-6.48-58.8c2.88-19.68,6.48-39.24,10.92-58.8q8.28-36,44-37.08a53.84,53.84,0,0,1,10,8.16c1.8,1.8,3.6,2.52,5.4,1.92a13.66,13.66,0,0,0-3.6-10.92,132,132,0,0,0-11.28-11.88l-7-.48Zm-55.2,16.68L372.6,220a18.54,18.54,0,0,0,.12-13.2c-2.52-6.36-7.32-9.84-14.52-10.32-13.08,12.12-19.8,28-20,47.52a139.69,139.69,0,0,0,6,42.12l3.84,2.4c8.28-.12,14.76-3.48,19.2-10.32,3.12-4.92,3.84-9.48,2.28-13.8a15.27,15.27,0,0,0-7.32,6.24q-4.86,7.38-13,5.4a20.44,20.44,0,0,1-6.48-13.2,44.38,44.38,0,0,1,.36-12.6l18.72-2.88,1.2-1.44.72-1.56.36-1.56a5.38,5.38,0,0,0-1.56-4.44,3.72,3.72,0,0,0-2.16-1.08l-11.64,1.08-3.36,1.08C342.84,228.84,346.8,220,357,212.64A16.39,16.39,0,0,1,366.84,209.4Z" transform="translate(-136.4 -190.8)"/></svg>