<svg id="Layer_1" data-name="Layer 1" xmlns="http://www.w3.org/2000/svg" viewBox="0 0 538.5 422.88"><defs><style>.cls-1{fill-rule:evenodd;}</style></defs><path class="cls-1" d="M336.24,82.8l22.44,187.08-50.28-.6ZM100.56,81.48q34.56-14.22,62,9.36a27.61,27.61,0,0,1,10,20.76c.36,8.76,2.88,14.76,7.56,17.76a59.39,59.39,0,0,0-6.36-35.64q-20-38.52-66.6-34.44a24.61,24.61,0,0,0-7.08,6.12Q71.64,101.94,77.88,151a32.85,32.85,0,0,0,4.56,13l48,77.76a211.18,211.18,0,0,1,32.4,111.48C163,382.92,152.76,408,132,428.28c-12.84,12.6-28.2,18.6-45.84,17.76a20.17,20.17,0,0,1-15.48-7.56A158.81,158.81,0,0,1,37.92,369.6a6,6,0,0,1,.24-2.52,9.8,9.8,0,0,1,1.32-2.76c.84-1.32,1-2.4.12-3.24l-.6.12-1,.72a9.17,9.17,0,0,0-2,2.76,6,6,0,0,0-.36,3.6l.12.84a12,12,0,0,0-3.48,12q3.78,18.18,9,35.64,9.36,31,36.36,46.32A24.78,24.78,0,0,0,97,465.72c31.8-8.28,52.92-27.6,63.12-58.2a181.53,181.53,0,0,0,9.36-56.76,222.85,222.85,0,0,0-12.6-76.56,280.44,280.44,0,0,0-44-80.16A102.84,102.84,0,0,0,101,177.24,54.93,54.93,0,0,1,90.6,160.08c-9.6-25.8-7.56-50.88,6.12-75A7.4,7.4,0,0,1,100.56,81.48Zm102.6-10.32c-2.28,39-3.36,78.24-3.48,117.72-.12,32-1.2,63.84-3.36,95.64-3,43-6,86-9.24,129.12-.84,11.88.6,22.68,4.44,32.28a2.21,2.21,0,0,0,2-2.16l8.64-116.88c1.2-16.2,2.16-32.52,3-48.72a356,356,0,0,0,50.64,4.32c-1.08,39.6-3.12,79.08-5.88,118.32-.6,8.16-1.44,16.2-2.76,24-1.92,12.24-.6,23,3.84,32.52a3,3,0,0,0,2.4-3l6.12-128.4,1.68-44.4a8,8,0,0,0,1.32-4.44v-.84l.12-2.4a10.11,10.11,0,0,0-.48-3.24l-.72-1.8c.6-23.88.72-47.76.6-71.76q-.36-65-1.8-128.28h-.6a392.58,392.58,0,0,0-4.44,74.64q2.34,62.1,1,124.32a454.8,454.8,0,0,1-46.32-3.12l-4.2.48c1-22.32,1.56-44.76,1.68-67.32.36-43.08-.48-85.8-2.28-128.16C203.88,69.36,203.28,69.84,203.16,71.16Zm163.2,201.48c-3.72-27.24-7-54.6-10-82.08q-7-63.54-18.48-125.88a1.7,1.7,0,0,0-1.68.84L336,63a334.06,334.06,0,0,0-16.32,68.88Q311.4,195.42,301.8,258.6,292.26,322,283.32,385.32a255.57,255.57,0,0,1-11.16,46.56q-6.3,18,1.08,31.32a326.49,326.49,0,0,0,18.48-76.08c4.2-35.28,8.88-70.44,13.8-105.6a189.18,189.18,0,0,0,55.08,3.12l4.8,34.08q9.18,63,12.6,126.72c.6,10.08,3.84,17.4,9.72,21.84a12.18,12.18,0,0,0,1.92-5.64,103.26,103.26,0,0,0-.48-17.28c-4.92-42.48-10.56-84.84-16.68-127.2L367,277.32l-.24-3-.12-.72Zm135-211.44-.84-3A424.26,424.26,0,0,0,452.4,172.56a485.45,485.45,0,0,1-26.52,75.84L419,263.52l-1.8,4.32-1.44,4.08q5.4-106.2,1.92-210.6-8.28,151.92-12.84,304.2-1.26,40.32-6.12,80.4l-.6,7.08a35.25,35.25,0,0,0,.6,6.12,20.43,20.43,0,0,0,1.8,5.4,40.51,40.51,0,0,0,2.88,4.92A1440.5,1440.5,0,0,0,415.2,286l3.12,7.68,20.4-50.4A1618,1618,0,0,0,485.4,481.08c-.6-38.52-5.64-78.72-15.24-120.84q-13.86-61.56-29-123Q469.38,161.82,494,85.56a10.16,10.16,0,0,1,1.8-3.6C501,75.84,502.92,68.88,501.36,61.2Zm32.16,35c-4.44,2.28-8.88,4.68-13.2,7.44A119.15,119.15,0,0,0,501.48,140,345.34,345.34,0,0,0,485,247.32v30a1035.55,1035.55,0,0,0,6.12,128.28,53.17,53.17,0,0,0,7.68,22.56c6.6,10.44,15.12,12.24,25.8,5.16q47-31,45.72-85.08a39.43,39.43,0,0,1-4.44,14.52L551,389.88c-9.72,17.16-23.88,26.76-42.36,28.92-9.48-10.92-14.4-24.48-14.64-40.56-.36-30-1-60-2-90.12a262.8,262.8,0,0,0,46.68-7l.72-1c3.6-6.84,2.76-12.24-2.52-16.32-14.88,3.72-30,7.2-45.36,10.2l-.36-8.52A363.79,363.79,0,0,1,505.8,147.24c4.92-16.44,14.76-28.56,29.76-36.24,7.32-3.72,13.8-2.88,19.44,2.64,5.16,5,9.6,9.6,13.2,13.56l.12-.84c1.8-18.72-6.84-29.76-26-33l-.12.12-1.56.36-3.72.36Z" transform="translate(-31.89 -58.2)"/></svg>