<svg id="Layer_1" data-name="Layer 1" xmlns="http://www.w3.org/2000/svg" viewBox="0 0 527.12 449.64"><defs><style>.cls-1{fill-rule:evenodd;}</style></defs><path class="cls-1" d="M141.84,102.12a80.27,80.27,0,0,1,12.84,21.6c2.52-2,3.24-4.68,2.4-7.92q-13-47-64-47.88a50.06,50.06,0,0,0-24,12Q50.4,96.66,50,123.12a73.78,73.78,0,0,0,14,45.36,555,555,0,0,1,43.44,71.16,324.26,324.26,0,0,0,16.92,29.52,261.71,261.71,0,0,1,40.2,109.68,79.85,79.85,0,0,1-1.32,27.24q-10.8,47.88-53.88,75.36C87,495.72,65.16,494.28,44.16,477A64.15,64.15,0,0,1,21,434.88Q19.2,421,12.72,414.72a45.24,45.24,0,0,0-2,23q8.1,48.42,52.68,67.92A28.87,28.87,0,0,0,82.92,507q39.6-11.16,65.64-44a90.43,90.43,0,0,0,16.56-32.64q15.66-57.06-7.68-112-11.88-28.44-25.92-55.56a650.79,650.79,0,0,0-39.6-67.32c-9-13.56-17.4-27.48-25.32-41.64Q47.16,119.28,72.48,90.6c15.36-7.68,30.72-8.76,46-3.24A42.77,42.77,0,0,1,141.84,102.12ZM262.08,193q.9,39.42.24,78.72a431.78,431.78,0,0,0-57.48,4.8l.84-33.48q1.62-64.8-.84-128.28a462.28,462.28,0,0,0-5.52,70.68Q198.78,250,196,314.28q-3.06,64.26-5.4,129.12c-.36,7.56,1.92,12.36,6.6,14.64,2.28-28.44,3.84-57,4.68-85.92l2.64-85.56a178.24,178.24,0,0,0,57.6-1.92L260.76,322l-3.12,64.8a259.34,259.34,0,0,0,4.2,64c.72-.36,1.08-.84,1.08-1.32A673.5,673.5,0,0,0,267,379.56q.36-48.78,1.2-97.2c1.2-3,1.32-5.52.24-7.56l.36-24.24q1.26-65.34-3.36-128.28c-2.4,3.12-3.6,7.2-3.72,12.24C261.36,154,261.48,173.4,262.08,193Zm101.4,165.72c3.24,32,6.12,64,8.76,96a356.12,356.12,0,0,0,10.92,62.88,155.38,155.38,0,0,0,1.2-55.92q-9.18-63.18-16.44-126.48-7.2-63.54-12.84-127.44C351.36,165.12,346,122.88,339,81.24l-.48,1-.36-6.72a348.45,348.45,0,0,0-16.92,71.16q-8.46,62.82-19.08,125.16l-1.8.48L300,273a10.63,10.63,0,0,0,.48,8.4c-6.6,39.48-13,79.08-18.84,118.68A422.33,422.33,0,0,1,267.12,463c-5.16,16.44-6.48,32.28-3.84,47.64,2.28-.24,3.72-1.68,4.32-4.2,4.92-22.44,9.6-44.88,13.92-67.56Q293.58,376,303.24,312.6l4.68-30.12A205.51,205.51,0,0,0,355.68,274C358.08,302.16,360.72,330.48,363.48,358.68Zm-9-98c-15,2.52-29.88,5.64-44.64,9.24l12.72-84.12c3.24-21,7.2-42,11.88-62.76,1.08-4.68,1.92-9.36,2.64-14Q346.8,169.62,352,231.12ZM406,89.88q-1.08,63.54-1.44,128.28-.36,64.08-3.36,128.88c-2,43.08-4.08,85.8-6.36,128.4l1.08,1.2a10.32,10.32,0,0,0,1.08,3.6,75.55,75.55,0,0,0,21.6,3.84l17.4-1q44.1-6.12,86.52-15l.48-.84c2-5.4,1.44-10.32-1.8-14.64-8.52,2.4-17,4.56-25.8,6.6a389.57,389.57,0,0,1-95.4,10,392.33,392.33,0,0,0,6.6-58.2c2-42.84,3.48-85.92,4.56-129,1-42.84,1.56-85.8,1.8-129.12a349.89,349.89,0,0,0-5.4-64.08C406.44,88.56,406,88.92,406,89.88Zm102.72,2.88A51.29,51.29,0,0,0,497,97.68q-26.28,15.12-35.4,44.76a519.93,519.93,0,0,0-21.72,109.92,752.78,752.78,0,0,0-2.16,96,210.2,210.2,0,0,0,12.24,62c4.2,11.4,12,17.88,23.52,19.68a72.13,72.13,0,0,0,39.12-4.92c18.12-7.56,26.16-19.68,24.24-36.6a188.82,188.82,0,0,1-30.24,20c-15.36,8-30,8-43.92-.24a11,11,0,0,1-4.92-6,299,299,0,0,1-14.64-100.92c.36-12.84,1.08-25.44,2.16-38q24.12,1.26,47.88,4a8.71,8.71,0,0,0,2.64-4.8A12.88,12.88,0,0,0,493,251.88H490.8a15.21,15.21,0,0,1-7.56-2.4,117.89,117.89,0,0,0-37,4.32,579.17,579.17,0,0,1,13.32-78.24,144.31,144.31,0,0,1,22.56-50.28Q500.52,99,525.72,113.4a9.16,9.16,0,0,0,1-6.48l-1.44-5.76-.84-.72A24.87,24.87,0,0,0,508.68,92.76Z" transform="translate(-10.04 -67.92)"/></svg>