<svg id="Layer_1" data-name="Layer 1" xmlns="http://www.w3.org/2000/svg" viewBox="0 0 311.28 210.72"><defs><style>.cls-1{fill-rule:evenodd;}</style></defs><path class="cls-1" d="M339.12,217.08a369.84,369.84,0,0,0,4.8,56.28l2,12.36-25.68,4.92,18-71.4Zm-107-4.68c-1.08,42.84-1.68,85.92-1.8,129a261.94,261.94,0,0,1-1.92,32.28c-1.44,12.12-.6,22.68,2.64,31.92a12.64,12.64,0,0,0,1.92-5.76c2.16-24.6,3.36-49.56,3.72-74.64l.24-20A310.71,310.71,0,0,0,270,301.44l-2.88,67c-.6,12.12,1.08,22.8,5,31.8A22.43,22.43,0,0,0,275.64,388q0-64.62,3.36-128.88a518.91,518.91,0,0,0-.6-64.2,193.24,193.24,0,0,0-6.48,45.36l-1.44,48-5.4-.36A178.19,178.19,0,0,0,237,295c.36-33,.36-65.64.24-97.92C234,200.76,232.2,205.92,232.08,212.4ZM193.8,196.2c-13.2,8.76-19.8,20.88-19.92,36.48a96.37,96.37,0,0,0,10.8,44.52,320.22,320.22,0,0,1,16.8,39.72,95.34,95.34,0,0,1,5.16,36c-1,18.36-10.44,27.72-28.32,28.08a37.36,37.36,0,0,1-13.56-2.16q-14-24.84-7.2-52.92v-.12l-2.76.48c-7.68,14.76-8.64,30.48-3,47a44.79,44.79,0,0,0,15,21A20.12,20.12,0,0,0,176,398.4a18.92,18.92,0,0,0,16.68-4.8q41.4-37.26,10.32-88.8c-16-26.52-22.2-54.12-18.72-82.56.6-5,3.6-8.64,8.88-10.92,1.92-.84,4-1.68,6-2.4a30.36,30.36,0,0,1,14.88,19.68,6.6,6.6,0,0,0,4.8,5.16,28.62,28.62,0,0,0-3.36-19.68,53.18,53.18,0,0,0-15.84-17.64ZM367,398.28a518.25,518.25,0,0,0-7.44-71.52q-10.8-62.1-17.52-124.92l-.84-.84H341a19.64,19.64,0,0,0-1.2-4.56A31.3,31.3,0,0,0,331,213.12q-12.78,62.46-29.64,124.2a131.94,131.94,0,0,1-5.16,15.6c-6.36,16.2-8.52,31.8-6.72,46.92a160.31,160.31,0,0,0,15-40.68l13-56A57,57,0,0,0,348,298.2q7.92,49.86,14.52,100.08a3,3,0,0,0,3.84,1.56A1.65,1.65,0,0,0,367,398.28Zm78.72-99.36a424.68,424.68,0,0,1-10.08,80.4,12.66,12.66,0,0,1-11,1.68c-1.8-3-3.84-4.08-6.24-3.24l-.48.84a20.83,20.83,0,0,0,.24,14.52,38.81,38.81,0,0,0,5.16,3.48c6.24,3.24,11.16,1.56,14.88-4.92a87.26,87.26,0,0,0,11.52-41.16,457.33,457.33,0,0,0-1.32-56.16C446.64,295.2,445.8,296.64,445.68,298.92Zm2.64-47.52a1,1,0,0,0-.72.24c-4.32,7-4.44,13.68-.36,20l.6-1a78.78,78.78,0,0,0,2.4-16.08l-.36-.84Zm-75.24-39q16.38,0,32.76-.72a487,487,0,0,0-5.28,60q-1.8,64.26-2.88,127.44c1.44,1.32,2.76,1.2,4.08-.36,1.44-13,2.28-26.16,2.52-39.72q1.08-64.44,5.88-128.16a129.65,129.65,0,0,0,0-19.32l47.16-3.72.6-1a10.67,10.67,0,0,0-.6-12,754.31,754.31,0,0,0-84.48,8.64l-.24.84A14.12,14.12,0,0,0,373.08,212.4Z" transform="translate(-148.19 -194.88)"/></svg>