<svg id="Layer_1" data-name="Layer 1" xmlns="http://www.w3.org/2000/svg" viewBox="0 0 545.4 595.67"><defs><style>.cls-1{fill-rule:evenodd;}</style></defs><path class="cls-1" d="M386.16,537.6c-7.44-6.48-15.84-9.84-25.2-10-.36,9-1.8,27.72-4.08,56.16,8.28-.48,17.28-4.56,27-12.36a91.14,91.14,0,0,0,9.72-9.36c2.52-2.88,3.72-4.8,3.72-5.88,0-2.52-1-5.52-2.88-8.88A38.83,38.83,0,0,0,386.16,537.6Zm-27.48-19.8.84-2.52.72,2,3-.36q6.84,0,15.48,4.68A46.13,46.13,0,0,1,394.08,535a34.37,34.37,0,0,1,7.08,20.64c0,2.76-1.08,6.36-3.12,10.56a58,58,0,0,1-8.76,13.08c-9.48,10.68-20.16,16-32.28,16l-3.24-.12-1.32-.24a37.56,37.56,0,0,1-.6-6,35.34,35.34,0,0,1,.36-5.28l.72.12.12.12-.12-1.92c0-8.16.24-16.92.72-26.16a243.91,243.91,0,0,1,3-28.56,41.29,41.29,0,0,1-.36-5A4.54,4.54,0,0,1,358.68,517.8Zm-178.56-4.2a15,15,0,0,1,2.16-4.8c3,5.88,4.8,13.44,5.52,22.68q.36,4.5.36,24.48c0,10.32-.12,16.44-.24,18.48a122.86,122.86,0,0,1-3.48,20.4c-3.48-2.64-5-8.52-4.56-17.52,1.2-10.2,1.8-17.28,1.8-21l-1.08-18.84-1.08-18.84A26.11,26.11,0,0,1,180.12,513.6Zm129,9.84A311.23,311.23,0,0,1,304.8,573v7.8q24.84,2.34,27.72,0c.36-.36.48-1,.24-1.92-.12-.72.36-1.08,1.56-1.08,2.76,0,4.08,2.4,4.08,7.08a12.08,12.08,0,0,1-.36,3.24l-1.32,2.4-3.6.48-4.2,1-27.6-.36c-1-1.32-1.44-3.24-1.44-6,0-6.36.48-16.2,1.56-29.4,1.56-19.56,3.6-33.12,6.12-40.92A17.33,17.33,0,0,1,309.12,523.44Zm24.12-46.8a272.18,272.18,0,0,1-8.64,33.84,15.32,15.32,0,0,1-2.28-4.44,11.18,11.18,0,0,1-.72-3c0-3.24,2-13.92,6.12-31.8q7-30.42,12.24-42.48c5.64,8.28,10.44,18.84,14.28,31.8l9,32.28v.36c1.2-5.16,3.12-15.72,5.64-31.8,2.28-14,4.44-24.6,6.6-31.8a11.76,11.76,0,0,1,2,2.76,7.16,7.16,0,0,1,.84,3.12l-5.52,31.68c-3.84,21.6-6,36-6.6,43.08l-.6.48-1.08.84c-3.12-7-7.08-18.36-12-34.32-4.68-15.48-8.88-27-12.36-34.44Zm-95.88-53.16L279.6,418a10.6,10.6,0,0,1,1.32,9.6l-1.8,3.12A154.16,154.16,0,0,0,250.44,435l-13.56,3.24h-.72l.12,9.24c.36,8.52,1,16.2,1.92,23.16,3.24,22.2,9.12,33.36,17.64,33.36,16.56,0,28.08-2.28,34.56-7a14.22,14.22,0,0,0,4.8-5.52,43.67,43.67,0,0,1,1.8-4.08c.72-1.08.6-4.08-.36-8.76-.84-4.32-.24-7.32,1.92-9.12a19.05,19.05,0,0,1,4.44,8.16,70.46,70.46,0,0,1,.24,7.32l-.72,5.16a50.7,50.7,0,0,1-3.6,11.16q-7.74,15.84-24.12,15.84c-21.24,0-34.68-10.2-40.44-30.6-2-7.08-3.12-16-3.36-26.4l.24-23.4v-.48l-.84-1.08-.24-3.36c0-2.52.36-4.44,1.2-5.52l.12-.12c1-20.88,4.92-38.52,11.76-52.92S259,349.2,269.88,344q14.76-7,26.64,0c8,4.68,12.12,12.6,12.12,23.76a16.42,16.42,0,0,1-1.92,8.4c-.84-.48-2-2-3.6-4.56l-4.68-7.56c-4.32-6.72-8.28-10.08-11.76-10.08q-33.66,0-45.36,40.92a134.31,134.31,0,0,0-5,28.8ZM87.84,31.92c-3.72-7.32-11.16-11-22.2-11-18.48,0-31.2,7.44-38,22.2a51.77,51.77,0,0,0-4.92,23c0,4.92,4,24.48,12,58.68q21.6,91.8,26.4,113.64Q99.42,410.7,99.36,487a178.85,178.85,0,0,1-1.2,18.6A206.73,206.73,0,0,1,90.72,543C80,578.52,62.16,596.28,36.84,596.28q-22.14,0-30.6-18.72a53.35,53.35,0,0,1-4.08-20.28c0-4.44,1.2-12.84,3.48-25.32,2.52-13.2,4.56-21,6.24-23.4q3.24,2.16,3.24,9c0,1.8-1,7.08-3,15.84a97.55,97.55,0,0,0-3.24,23.52c0,2.76,1.44,6.72,4.2,11.76,3.6,6.6,8,10,13.2,10L37,577.8l16-1.56c10.44-3,20-16.08,28.8-39.12A220.06,220.06,0,0,0,90,508.8c1.92-9.12,2.88-16.56,2.88-22.2q0-69.48-38.28-239.88Q35.34,163.92,28.2,132q-12.06-53.46-12-65.88c0-19.92,4.2-35.52,12.48-46.92,7.2-9.84,16.44-15.36,27.6-16.56A35.75,35.75,0,0,1,83.64,10.8c8.28,6.84,12.48,16,12.48,27.12-.72,4.2-1.92,7-3.72,8.4-.48-.72-1.08-2.64-1.8-5.88A35.4,35.4,0,0,0,87.84,31.92Zm214.32,177,2,16.44h.36a10.6,10.6,0,0,1,1.32,9.6l-.36.72c1.8,12.24,4.08,27.72,7.08,46.56q7.92,51.3,7.92,54a13.09,13.09,0,0,1-2.4,7.8,145.34,145.34,0,0,1-8-28.68l-4.44-29.28-4.2-29c-1-6.6-1.68-12.84-2.16-18.48-9.24.72-14.16,1.32-14.76,1.68l-12.72-.12Q263.34,296.64,252.6,346a8.06,8.06,0,0,1-2.4-4.08,10.29,10.29,0,0,1-.6-3.24c0-1,2.88-18.36,8.52-52.08,6.24-37.08,10.2-62.88,12-77.64,3.24-28.68,5.88-50.4,7.68-65.16q4.86-38.52,10.44-62.28c3.24,16.44,6,37.56,8.28,63.48ZM347,178.68c0,2.4-1.32,4.56-4.08,6.36-2.88,2-7,3.36-12.36,4l.48,4.2.84,9.84c0,3.48-.6,12.24-1.68,26.28q-1.8,23.58-3.24,30.24h-1.68a77.86,77.86,0,0,1-.48-8.64q0-12.6,2.16-37.08l1.92-24.6-6.48.24L310,189.12a6,6,0,0,1-1.08-2.16,19.34,19.34,0,0,1-.24-3.12c0-2.52.6-4.32,1.8-5.28,19.92-3.24,31-4.8,33-4.8s3,.36,3.36,1.2A17.17,17.17,0,0,1,347,178.68Zm-56-8.4c-3.48-24.12-4.68-43.56-3.84-58.56-3.72,40.68-8.28,79.2-13.44,115.56l11-.84,11.64-.72v-.6l1.8.12c-.6-7.32-1.68-16-3-25.92ZM176.28,19.44c0,4.32-.36,14.4-1.08,30.36s-1.08,26.88-1.08,33l.12,18c.12,11.88.48,21,1,27.48v43q1.08,14.58,1.08,44.28l-.12,17.64c-.12,11.64-.48,20.52-1,26.64V357c-.36,6.48-.84,18.36-1.44,35.76-.6,15.6-1.2,27.48-1.8,35.76v51.12q-.54,4.14-1.08,12.6-.54,9-1.08,13.32v65.76a38.25,38.25,0,0,1,1.08,7.8,17.94,17.94,0,0,1-2.76,9.24c-3.24-3.84-5-12.72-5.28-26.76l.48-21.48.72-26.28q.72-26.46,1.44-40.68v-50.4l3.24-72.24V289.68H140.16l-.84-.6c-6.48.24-11.4-.36-14.88-1.92V407l-1.08,4.08V472.8c-.6,7.8-1,17.4-1.32,28.68l-.6,28.68c-.84,22.92-2.88,42-6.12,57.12-2.52-1.92-3.84-6.72-3.84-14.52,0-6.24.84-25,2.52-56,1.56-27,2.52-43.44,2.88-49.56V405.48a35.67,35.67,0,0,1,1.08-4.92V269.28a35.67,35.67,0,0,1,1.08-4.92V185.64a8.52,8.52,0,0,1-.24-3.6l.24-3.72L118.68,164c-.12-9.24,0-16.32.36-21.48V92.28c-.48-8.88-1-21.12-1.44-36.84l-.72-23.64a49.22,49.22,0,0,1,1.68-12.24,34.88,34.88,0,0,1,3.72-9.12C123.84,8,125,7.32,126,8.16s1.68,3.72,1.68,8.64c0,3.48-.72,6.24-2.16,8.16a12.16,12.16,0,0,0-2.16,7.2,39.14,39.14,0,0,0,1.08,8.16V82.56l1.08,4.08v61.68c-.36,4-.48,10-.36,17.88l.36,12.48v89.16l3.6,3.6,5.64.24,6.24.84,27.72-.24V254q1.08-13,1.08-38.88,0-25.2-1.08-38.16V134.76c-.48-7.08-.84-17.52-1-31.32l-.12-20.64c0-19.08.12-31.92.36-38.28.6-16.8,2.16-28.68,4.44-35.64,2,1.56,3.36,3.24,3.72,4.92ZM348.12,91.2c0,2-3.48,14.16-10.32,36.12s-12.12,37.08-15.36,45.6c-1.92-5.16-5-19.44-9.48-43.08-4.32-23.4-6.48-37.44-6.48-41.88q0-5.4,2.16-7.56c2.16,10.2,4.56,22.56,7.08,36.84l6.36,37,.24.48.6.6a162.53,162.53,0,0,0,5.4-17.4L333,119.64c4-15,8.4-26.64,13.44-34.92A11.24,11.24,0,0,1,348.12,91.2Zm-70.2-60.84a22.81,22.81,0,0,1,1.2,6.24,15.34,15.34,0,0,1-.72,5.4,8.61,8.61,0,0,1-4.2,4.32A14.84,14.84,0,0,1,272.52,41a49.64,49.64,0,0,0-1.56-6.6c-2.28-5.4-7.56-8.16-16-8.16-13.8,0-23.64,10.32-29.76,31.08A188.22,188.22,0,0,0,220,83.52c-.72,5.64-1.56,12.84-2.52,21.72q-4.5,34.2-5.4,78.72c-.36,12.48-1.68,38.4-4.2,77.76l-.84,13,28.32.48,3.84.6,5.28.24c1.56,0,2.64,1.44,3,4.2a19.06,19.06,0,0,1,.24,4.56l-.48,4.92c-.6,3-1.44,4.56-2.76,4.56l-5.76-.72c-2.4-.48-3.84-.84-4.2-1.2L206,291.84c-1.08,21-1.68,37.68-1.68,50.28a191,191,0,0,0,1.08,23.52v57.72l2.88,37.8c1.08,15.12,1.32,27.72.48,37.68a88.42,88.42,0,0,0,1.32,22.56,131.39,131.39,0,0,0,6.6,23.88c7.08,17.88,15.24,26.88,24.72,26.88,8.52,0,15-1.92,19.68-5.88,3.72-3.12,6.48-7.8,8-13.92a157.21,157.21,0,0,0,2.52-16.68c.72-6.72,1.8-11.4,3.12-14.16,1.68,1.32,2.64,3.48,3,6.48l.24,7a82.25,82.25,0,0,1-1.32,9.24,126.64,126.64,0,0,1-4.32,18.72c-5.64,17.88-13.08,26.88-22.56,26.88-18.84,0-32.4-10.92-40.44-32.88-5.16-14.28-7.56-29.88-7.2-47,.36-11.4.24-24.84-.6-40.56-.36-9.12-1.32-22.68-2.64-40.56V371.88c-.72-6.48-1.08-16.56-1.08-30.36q0-25.56,4.2-85.32,4.14-59.22,4-81.36-.18-54,8.4-96.12C222,41.88,233.88,18.6,249.84,8.64c10.44-.6,18.36,3.36,23.88,12A35.55,35.55,0,0,1,277.92,30.36ZM366,316.92c8.52-3.12,14.76-6.36,19-9.72,5.76-4.68,8.64-10.2,8.64-16.8,0-3.24-2.64-6.48-8-9.48-6.84-3.84-15.72-5.16-26.4-3.84l-13.92-.24.12,3.24v15.84c0,8-.36,17.76-1.08,29.28l2.64-1.32c3.24-1.32,8.64-3.36,16.44-6.12l1.68-.48Zm8-138.36q0,45.9-5.88,85c13.08,1.2,22,4.68,26.52,10.56a17.56,17.56,0,0,1,3.48,9c.12,1,.24,3.48.24,7.44,0,12.6-7.08,24.24-21.12,34.68l-5.4,3.72q50.4,87.84,50.4,91.44a11.37,11.37,0,0,1-2.52,7.08c-7.32-9.84-18.84-28.08-34.32-54.6-10.68-18.36-17.88-31.56-21.48-39.6l-4.32,1.8c-5.88,2.4-10.68,3.6-14.52,3.6l-1.68-.12-2.52,28.2c-3,32.4-6,52.56-8.76,60.36-1.56-2.28-2.4-5.4-2.4-9.48q0-2.7,4.68-44.28l4.2-38-.24-3a5.31,5.31,0,0,1,.84-2.88L340.56,317v-41.4a10.28,10.28,0,0,1-1.08-4.92,10.17,10.17,0,0,1,.48-3.48,8.82,8.82,0,0,1,1.92-3.12l17.28-.6V263l8.52.36a6.84,6.84,0,0,1-2.16-3.72,10.21,10.21,0,0,1-.6-3.12c0-10.2.48-21.72,1.56-34.68L352.68,225,349,261.36l-.6.48-1.08,1c-1.32-1.8-1.92-4.68-1.92-8.76,0-9.24.48-19.08,1.32-29.64a8.16,8.16,0,0,1-1.32-4.56,9.18,9.18,0,0,1,.36-3,6.37,6.37,0,0,1,1.08-2.28l.72-.12.24-2.64c1.08-10,2.76-23.52,5.16-40.56,1.08,3.24,1.68,8.28,1.68,15q0,12.06-1.08,27.36l13.8.36c1.8-19,2.88-33.24,3.24-42.72a8,8,0,0,1,2.28,3.24A9,9,0,0,1,374,178.56Zm49.32-91.68a22.46,22.46,0,0,1,7.92,9,18.85,18.85,0,0,1,2.28,8.4,9.76,9.76,0,0,1-1.8,6.12,6.93,6.93,0,0,1-4.32-4.44,22.58,22.58,0,0,0-5.16-8H413c-10.56,12.48-17.76,28.32-21.48,47.52-1.08,6.12-1.92,13.08-2.52,21.12a3.36,3.36,0,0,1,2,.36h29l1.2,2.28a9.69,9.69,0,0,1,.36,3,6.8,6.8,0,0,1-1.92,5.28l-14.28.36-14.88.72-2.16-.12c-.12,4.68-.24,9.72-.24,14.88l-.36,10.44a105.57,105.57,0,0,0,1.44,18.36c3.12,16.92,10.8,25.44,22.92,25.44,5.64,0,10.8-4.2,15.36-12.72a65.94,65.94,0,0,0,5.52-13.44l1.08-.36a11.79,11.79,0,0,1,1.56,6.48l-1,5.76a64.12,64.12,0,0,1-3.24,10.56c-4.2,10-9.48,14.88-16.08,14.88-16.08,0-26-10.44-29.88-31.44A106.91,106.91,0,0,1,383.88,205l.48-11.76q0-35.1,3.6-54c4-20.76,12.12-38.28,24.24-52.56ZM378.72,33l-.6-1.56-.48-.84-1.92,5.52-.12.48Zm2.52-13.68c1.8,3.12,2.64,7.44,2.64,12.84,0,4-.72,7.08-2.16,9.24-1.56,2.52-5.28,6-10.92,10.32a32.72,32.72,0,0,1-.48-5.28,8.59,8.59,0,0,1,1.92-6L373.56,39h-.24c-3.12,0-5.16-1.68-6-5.16l-.24-5.64c0-4.44.84-7.8,2.52-10.32,1.68-2.28,3.6-3.36,5.88-3.24S379.68,16.44,381.24,19.32ZM543,39.48q-.54,2.52-3.6,5.76a21.79,21.79,0,0,1-3-5,61.62,61.62,0,0,0-4.56-7.8Q524.46,22,511.32,22c-19.08,0-34.08,8.16-45.24,24.36a71.39,71.39,0,0,0-8.64,17.4c-1.56,4.68-2.4,7.8-2.4,9.36,0,4.68,4.8,18.84,14.28,42.36,14.52,35.88,25,62.88,31.44,81.24Q546.48,326.1,546.48,433q0,20.88,1.08,37.08c0,8.16-2,23.52-6.24,46.08-1.08,6.12-4,13.2-8.64,21.36l-11.4,20L516,568.08a69.65,69.65,0,0,1-9.36,13.44q-14.58,16.56-36,16.56-44.1,0-58.68-25.32a50.89,50.89,0,0,1-5.88-19,112.17,112.17,0,0,1-.36-11.52,78.39,78.39,0,0,1,11.4-41,12.06,12.06,0,0,1,2.88,4.68,13,13,0,0,1,.84,3.84c0,.84-1.44,5.88-4.32,15.36s-4.32,15.24-4.32,17.52a27.23,27.23,0,0,0,1.8,9.12,36.61,36.61,0,0,0,7.2,12.84c9.24,10.8,23.64,16.2,43.32,16.2q48.78,0,66.6-66.6,8.82-33.12,8.88-81.48,0-97.38-46.08-227.64-3.6-10.26-31.56-83.76C452.76,96.24,448,80.16,448,73.2c0-17.52,4.92-32.28,14.88-44.4A62,62,0,0,1,495.6,7.92c12.48-3.24,23.4-2.64,32.76,2,10,5,14.88,13.32,14.88,24.72Z" transform="translate(-2.16 -2.41)"/></svg>