<svg id="Layer_1" data-name="Layer 1" xmlns="http://www.w3.org/2000/svg" viewBox="0 0 595.57 842.18"><defs><style>.cls-1{fill:#fff;}.cls-2{fill:none;stroke:#fff;stroke-linecap:round;stroke-linejoin:round;stroke-width:0.38px;}.cls-3{fill-rule:evenodd;}</style></defs><rect class="cls-1" x="0.31" y="0.31" width="595.08" height="841.68"/><rect class="cls-2" x="0.19" y="0.19" width="595.2" height="841.8"/><path class="cls-3" d="M316.32,278.88l.24,2.16h-1.2Zm-160.2,53.64q-27.9,42.3,13.8,62.88c11,5.4,21.6,4.32,31.68-3.36,16-12.12,23-28.56,21-49.44a135.66,135.66,0,0,0-15.6-51,136.88,136.88,0,0,0-27.72-35.76c-7.56-7.08-10.44-15.48-8.64-25.44a30.33,30.33,0,0,1,9-17.16c16.44-4.92,28.44,1.44,36.24,18.84a3.4,3.4,0,0,0,1.08,1.2c1.32-20.76-8.28-33.48-28.68-37.92q-47.88,38.34-1.56,85.44Q222.9,317.34,209,365.28c-2.76,9.36-9,15.6-18.84,18.6-13.08,4.2-24.24,1.44-33.72-8.28l-5.16-5.76A140.32,140.32,0,0,0,156.12,332.52ZM238.2,200.76q-2.7,37.44-3.48,75.48-1.44,64.44-4.2,128.28a2.55,2.55,0,0,0,2.16,2.16,51.38,51.38,0,0,0,5.4-19.92c1.56-20.16,2.64-40.44,3.36-61l.6-22.2a88.62,88.62,0,0,1,22.32-3.48q-1.62,37.08-4.2,74.28c-.84,12.12.72,22.68,4.44,31.68a2.92,2.92,0,0,0,1.08-1.68c2.76-27.36,4.56-55,5.64-82.68q2.34-64.62,3.84-127.44a177.85,177.85,0,0,0-8.76,52L265.08,286l-1.08-.24a32.37,32.37,0,0,0-21.72,4q.54-46.26-1.8-92.16C239.16,197.88,238.32,199,238.2,200.76Zm114,85a9.06,9.06,0,0,0-1.56-2.76L325.2,281.4l-4.32-23.52-1.32,1.68-.84-3.84A90.94,90.94,0,0,1,306,281.28l-21.12,7.2q1.26-42.66,26.76-76.56,26.82-10.44,45,11-.9-27.9-28.8-27.36c-16.8,1.08-28.08,10.32-34,27.48a237.24,237.24,0,0,0-10.32,43.8,324.94,324.94,0,0,0-3.12,47c.12,15.84.84,31.56,2.28,47.28,1.56,18.12,10.56,28.08,27.24,29.88,16.44,1.56,29.64-4,39.6-16.68,6.36-8.28,8.28-17.64,6-28.08-10.92,24.84-29.16,33.12-55,24.84-3.6-1.08-6-4-7.32-8.52a234.82,234.82,0,0,1-8.52-56.28l-.12-4.56L298,298.92a26.57,26.57,0,0,0,0,22.2l9.84-23.64,12.48-1.2A89.57,89.57,0,0,0,339,328.68c.36-10.92-2.64-21.72-9.24-32.64l21.12,1.08A13.2,13.2,0,0,0,352.2,285.72Zm40.92-91.92h-.48L391.32,199,391,197a117.6,117.6,0,0,0-2,11.64A759.6,759.6,0,0,0,372.6,309.84a290.36,290.36,0,0,1-12.84,62.64c-3.84,12-3.48,22.44,1.2,31.44a65.44,65.44,0,0,0,6.72-20.16q10.44-63.18,19.8-126.48L390,238c1.56,12.36,2.88,24.72,3.84,37.08a412.22,412.22,0,0,0,9.84,62.88q5-5.76,4.32-14.4v-.24q7.38-43,17.28-85.56a571.1,571.1,0,0,0,8,72.72,535.53,535.53,0,0,1,7,63.36c.6,12.12,3.72,22.44,9.36,30.72a2.27,2.27,0,0,0,.84-1.68,539.14,539.14,0,0,0-7.56-82.8q-8.64-51.66-13.2-102.6a87.75,87.75,0,0,0,.48-22.32,9.23,9.23,0,0,0-2.16,2.16l-.24-3c-1.92,1.08-2.88,2.88-3,5.64v2.28a39.06,39.06,0,0,0-2,5.64,695.06,695.06,0,0,0-17,92.16q-5.22-47.34-13.08-93.72Z" transform="translate(0.19 0.19)"/></svg>