<svg id="Layer_1" data-name="Layer 1" xmlns="http://www.w3.org/2000/svg" viewBox="0 0 595.57 842.18"><defs><style>.cls-1{fill:#fff;}.cls-2{fill:none;stroke:#fff;stroke-linecap:round;stroke-linejoin:round;stroke-width:0.38px;}.cls-3{fill-rule:evenodd;}</style></defs><rect class="cls-1" x="0.31" y="0.31" width="595.08" height="841.68"/><rect class="cls-2" x="0.19" y="0.19" width="595.2" height="841.8"/><path class="cls-3" d="M163.08,155.16c-9-15.48-22.32-24.84-39.72-28.2a43.36,43.36,0,0,0-18.72,13.56A207.74,207.74,0,0,0,62.4,229.08a380.08,380.08,0,0,0-5.64,126.6c2.76,23.4,14.4,40.08,34.8,50.28a20.47,20.47,0,0,0,19.68,0,126.61,126.61,0,0,0,43.44-37.56c7.08-9.6,10.8-19.32,10.92-29.28q-16.38,20.34-34.8,40.32a35.93,35.93,0,0,1-20.52,11.4q-32.76,5.94-40.92-26.28a276.41,276.41,0,0,1-2.88-126.12q11-52.38,47.52-90.6c6.84-7.32,14.16-7.92,21.84-2,9.48,7.32,18.48,10.68,27.24,10.08Zm127.8-23.4q.18,61.56-3.12,124.2-3.42,64.62-11.64,128.88c-1.56,12.6.12,23,5,31.56a15.53,15.53,0,0,0,2.76-7.32c1-7.2,1.68-14.4,2.28-21.72,3.48-42.36,6.6-85,9.36-127.56a672.57,672.57,0,0,0-4-128.28C291.12,131.64,290.88,131.64,290.88,131.76Zm-44.4-5.16q-4.14,63.54-7.8,127.44L238,266.76l-6.36-.48-2.64.6c-9.48,1.44-18.72,3.36-28,5.64q2.7-36.9,4-74.16a194.37,194.37,0,0,0-7.8-63.84c-.6-.12-1,0-1.08.6a43.16,43.16,0,0,0-1.44,14.64,758.54,758.54,0,0,1-1.32,124.68l-2.64.72a9.47,9.47,0,0,0-2.4,8.16,6,6,0,0,0,1.68,3.24l2.28-.36Q186.66,346,181.44,406c-1.08,12.36,1.08,23,6.36,31.8a5.85,5.85,0,0,0,.72-1.56q2.34-54.72,7.92-109.56c1.32-13.8,2.52-27.6,3.6-41.52,12.72-2,25.2-4.32,37.32-7.08q-3.24,52.38-7.08,105c-1,12.6.84,23,5.4,31.44a2.59,2.59,0,0,0,.72-1.68,267.85,267.85,0,0,0,3.12-29.88c2-42.72,4.32-85.44,7.08-128.28A1040,1040,0,0,0,247,126.36C246.6,126.48,246.48,126.48,246.48,126.6Zm154,11.4a20.34,20.34,0,0,0-13-3.84c-22.92,8-38.4,23.88-46.2,47.52a346.1,346.1,0,0,0-15.48,71.76A869,869,0,0,0,321.72,381a55.58,55.58,0,0,0,10.44,30.72q18.9,26.28,48.6,7a173.44,173.44,0,0,0,29.88-24.6c9.24-9.72,13.44-19.92,12.48-30.72a160.56,160.56,0,0,1-52.92,45.48c-7.08,3.84-14.16,4.2-21.24,1q-23.22-10.62-23.4-37.8c0-32,1.08-64.08,3.12-95.88A288.14,288.14,0,0,1,354,175.8c9.48-20.64,24.6-29.4,45.6-26.16a29.34,29.34,0,0,1,4.2,10,23.29,23.29,0,0,0,2.28,6A31.42,31.42,0,0,0,406.8,155a46.73,46.73,0,0,0-5.28-16.2Z" transform="translate(0.19 0.19)"/></svg>