<svg id="Layer_1" data-name="Layer 1" xmlns="http://www.w3.org/2000/svg" viewBox="0 0 497.85 419.75"><defs><style>.cls-1{fill-rule:evenodd;}</style></defs><path class="cls-1" d="M301.2,262.44l28.32-140.88,17.64,127.92ZM72.48,84q-30.6,24.3-29.4,65.16A105,105,0,0,0,49,181,390.81,390.81,0,0,0,70,229.2a358.21,358.21,0,0,1,36.72,118A193.32,193.32,0,0,1,96.6,439.08Q80.76,483,33.6,483a42.6,42.6,0,0,1-11.28-19.2q-2.7-9.18-4.68-18.72l.12-.84A8.93,8.93,0,0,1,19.68,441l.6-.84v-.72a7.89,7.89,0,0,1,.48-3.36l-.24-.72q-1.44,2.34-1.8,0a5.49,5.49,0,0,0-4.8-5l-1,.12c-4,21.24-.12,41.88,11.28,61.68a13.13,13.13,0,0,0,10.08,7.08q28.8,4,46.92-18.6,35.1-43.74,34-101A380.71,380.71,0,0,0,93.84,259.8,288.18,288.18,0,0,0,65.4,201.12Q36.78,156.3,61.8,109A18.21,18.21,0,0,1,74,99.36q39.24-9,48.48,31.08a3.66,3.66,0,0,0,1.56,1.2l1.2.12a3.55,3.55,0,0,0,1.56-2.52,33.63,33.63,0,0,0-.84-12.48Q117,80.58,80,80A22.83,22.83,0,0,0,72.48,84Zm112.08,54.36q-5,50.58-5.52,103l-.24,28.56-35.88,4.32v-.84l2.88-128.28.24-.72a4.37,4.37,0,0,0,.36-4.2,24.39,24.39,0,0,0-4.08,12.24c-3.48,42.72-5.52,85.68-6.36,129-.72,43.08-2.52,86.16-5.28,129-.84,12.12,1,22.68,5.16,31.68a223.57,223.57,0,0,0,4.44-39.72c.6-39.24,1.44-78.36,2.4-117.6a112.45,112.45,0,0,0,35.88-.36q-.54,43-1.8,86c-.36,16.2-1.56,32.4-3.48,48.48-1.56,12.6.12,23,5,31.56a309,309,0,0,0,5.76-54.36l2.64-113.28.24-.12.6-.84c2.28-4.44,2.16-8.52-.6-12.48v-2.28c1-43.32.36-86.28-1.68-129.12Q184.56,137.82,184.56,138.36ZM331.32,92.28A39.72,39.72,0,0,0,322,111.36Q309.9,174,298.56,236.64,287.22,300,273,362.88c-1.56,7-3.36,10.92-5.64,11.88a36.25,36.25,0,0,1-3.12,12c-5.64,12.6-6.12,24.12-1.32,34.8a36.84,36.84,0,0,0,7.32-14.88q15.84-62.28,27.48-125.52l1.32-6.72a170.44,170.44,0,0,0,49.8-10.2l4.32,39.6c4.2,41.88,7.8,83.76,11,125.88a84.83,84.83,0,0,0-.24,11.4c.6,13.68,4,25.56,10,35.64a2.74,2.74,0,0,0,1.68-2.4,136.06,136.06,0,0,0-.24-33.48c-5.4-42.36-10.44-84.72-14.88-127.2q-5-47.88-11-95.64-7.92-63.36-18-126Zm-64.8-2-10.08-1a35.05,35.05,0,0,1-5.64,3,32.38,32.38,0,0,0-15.12,15.36,221.54,221.54,0,0,0-21.84,96.72c0,25.08-.36,50-1,75.12a12,12,0,0,0-.12,5l-1.68,48.84c-.36,10.68-1.08,21.48-1.92,32.28a466.3,466.3,0,0,0,4.2,112.08,19.55,19.55,0,0,0,10.8,15c17.64,9.12,32.64,5.76,45.24-10.2,4.92-6.36,10-12.48,15.12-18.6,12-14.28,15.6-29,10.92-44.28a230.55,230.55,0,0,0-13.92,25.8c-10.68,22.92-28,34.56-52.08,34.8-8.88-6.48-13.32-15.36-13.44-26.76q-.54-64.44,1.44-129.12l1.08-35.88a203.36,203.36,0,0,0,53.64-11.64l.72-.72c3.36-5.64,3.12-10.92-.72-16.08a515.78,515.78,0,0,1-53.4,16.08l1.8-79.08c.12-10.2.48-20.28,1-30.24q2.16-40.86,33.84-62.88a16.53,16.53,0,0,1,12.84,2.28q12.06,8.1,16.92,20.16a15.44,15.44,0,0,0,1.44-10.8,36.09,36.09,0,0,0-17.64-25Zm222.72,8.52q-18.18,8.82-20.16,29.88a1186.11,1186.11,0,0,0-5.16,129.24c.6,43.32-.72,86.28-4.08,129.12l-3.12,42.84c-1.08,14.64,1.68,27.6,8.16,39,7.08.48,12.72-2,16.8-7.68q21.42-29.52,18.84-62A15.44,15.44,0,0,1,498.6,406a132.2,132.2,0,0,0-9.48,20.52C484.56,439.08,477,447,466.44,450a509.11,509.11,0,0,1,.84-69c2.76-33.6,4-67.44,3.84-101.4a289.47,289.47,0,0,0,29.4-8.16l.84-1c3.72-7.08,3-12.84-2.4-17.16-9.48,3.72-18.72,7.68-28,12.12l-.24-13.56a1087.84,1087.84,0,0,1,2.76-113.76c1.08-14.88,8.52-22.8,22.2-23.88a15.92,15.92,0,0,1,3.72,5.76,30.14,30.14,0,0,0,8.4,12.36,6.92,6.92,0,0,0,1.44-4.8A42.28,42.28,0,0,0,495.12,99Zm-33-8.16a193.76,193.76,0,0,0-13.56,53.52L432,238.56q-7.38,63.9-19.92,126.84l-8.88,43.8c-2.52-22.92-4.8-45.84-6.6-69q-5-63.72-12.72-127.32c-5.16-42.36-10-84.72-14.28-126.84-3,1.92-4.32,5.16-4.2,9.84A719,719,0,0,0,372.6,178c6,42.12,10.92,84.6,14.88,127.2q5.76,63.18,10.56,126.72l.12,2.52a49,49,0,0,0,.24,11.16l-.12,2.4c-.36,12.48,2.64,22.8,9.24,31,2.76-3.12,3.72-6.84,3.12-11.28l-3-21.84q.9-4.14,1.44-8.64,7-63.18,17.76-126.24,8.1-47.16,14.76-94.56C447.72,174,452.76,132,457,90.36A1,1,0,0,0,456.24,90.6Z" transform="translate(-11.45 -80.04)"/></svg>