<svg id="Layer_1" data-name="Layer 1" xmlns="http://www.w3.org/2000/svg" viewBox="0 0 545.91 412.22"><defs><style>.cls-1{fill-rule:evenodd;}</style></defs><path class="cls-1" d="M94.8,65.28C75,72.12,62.88,86,58.2,107.16Q49.74,145,73,175.68a590,590,0,0,1,57.48,92.4,225.1,225.1,0,0,1,24,93.12A109.65,109.65,0,0,1,151,393a95.94,95.94,0,0,1-14.16,30.6,108.94,108.94,0,0,1-15.36,17.88,48.84,48.84,0,0,1-14.76,9.6A75.25,75.25,0,0,1,79,456.24,56.65,56.65,0,0,1,51.72,449a44.3,44.3,0,0,1-19.92-22.2,75.66,75.66,0,0,1-5.88-26,108.8,108.8,0,0,1,1.44-25.2l-4.68,3.72A92.39,92.39,0,0,0,21,431.88,58.37,58.37,0,0,0,42.72,464a56,56,0,0,0,35.64,11.64,68.31,68.31,0,0,0,42.12-15.36,95.16,95.16,0,0,0,29.76-40.8c12.48-32.76,14.4-66.48,5.88-100.92a378.09,378.09,0,0,0-37.92-95.28,157.61,157.61,0,0,0-26.52-35A104.47,104.47,0,0,1,67.92,151.2l-2.76-7.68c-5.64-15.72-4.2-30.36,4.08-44,8.64-14.16,21.12-20.64,37.56-19.56q23.4,1.62,35.28,22.32a206.21,206.21,0,0,1,15.6,33.36A49.77,49.77,0,0,0,153,99.12a76.69,76.69,0,0,0-28.2-29.88C114.84,63.24,104.88,61.92,94.8,65.28ZM192.12,77.4a896.71,896.71,0,0,0-6.48,108q0,64.62-1.2,129c-1,43.08-2.16,86.16-3.72,129-.24,7.56,2,12.36,6.72,14.64a522.08,522.08,0,0,0,2.76-60q-.72-62.46.36-125.4a180.76,180.76,0,0,1,51.12-8.16l-.36,44.76q-.9,64.8-4.2,129.12c-.48,10.08,1.68,17.88,6.36,23.28a6.94,6.94,0,0,0,1.68-4.08c1-9.12,1.56-18.36,1.68-27.6.84-31.56,1.08-63.12,1-94.92L247,205.92c-.24-43.32,1.2-86.16,4.32-128.28l-.36.12a424.52,424.52,0,0,0-10.08,102.48c.48,23.64.72,47.16.84,70.8l-34,2.64q-13.14,1.26-16.92,7.92,1.08-61,2.52-121.68c.6-22.08,1.08-43.44,1.68-64.2l-.6.24Zm231,.6c-1.92,20-3,40.32-3.12,60.84q-.54,64.26-.72,129c-.12,43.32-1.68,86.4-4.92,129.12-.84,10.8-1.92,21.48-3.48,32.16s-.6,20.16,2.64,28.32l.72,2.28h.12l.72,1.32.48-1.32a922.61,922.61,0,0,0,104.52-1.32l.6-1c3-5.28,2.76-10.44-.6-15.36-33.72.84-67.44,2.88-100.92,6.12a95.23,95.23,0,0,0,2.28-18.84q1.26-47.16,1.56-94.92c.36-43.08,1-86.16,1.8-129q1.62-65-1.08-127.56Zm-35.4,13.08,1.08,2L391.2,95a37.58,37.58,0,0,0,.84,18.24l.24-.12c6.24-12.48,5-22.92-3.48-31.32C386.4,84.48,386,87.6,387.72,91.08Zm-26.4,11.4,2-7.92q-37.62-32.22-66.24,17.16a197.82,197.82,0,0,0-26.28,87.6,1245.48,1245.48,0,0,0-.48,154.08c.6,9.48,1.44,18.72,2.64,28,.84,7.08,2,13.92,3.36,20.76l4.32,20.52,1.56,6.72,2.52,8.76a38.07,38.07,0,0,0,4.56,10.32,22.83,22.83,0,0,0,6.72,6.84c11.76,7.56,24.36,8.76,37.92,3.6,16.92-6.36,28.68-17.88,35.52-34.56a39.76,39.76,0,0,0,1.2-27.12l-4.92-2.76,1.56,5.4q-12.78,41-54.12,41.52A30.66,30.66,0,0,1,293,434.52a525.68,525.68,0,0,1-16.8-171.24l49-3.72a14.57,14.57,0,0,0-1.08-14.64,76.46,76.46,0,0,0-47.76,7.2Q267.54,165.9,317.52,105a26.92,26.92,0,0,1,18.36-9.84l10.2-.72L352,98.52Zm121.32.6-1.92,15-.6,7.68-.24,7.8-.12,7.92c.36,15.72.24,31.32-.12,47l-.84,31.8-.6,16.2-1.56,32.28L475,301.08c-.72,13.32-1.92,26.64-3.72,40a169.75,169.75,0,0,0,.36,46.8l1.44,8.28,89.16,8.16.6-1.2.48-1.08.24-1.32.24-1.32v-1.68l.12-1.56-.36-1.92L563,392l-.6-1.56-.48-.84-83.88-6.24,9.24-301.92A164.81,164.81,0,0,0,482.64,103.08Z" transform="translate(-17.97 -63.47)"/></svg>