<svg id="Layer_1" data-name="Layer 1" xmlns="http://www.w3.org/2000/svg" viewBox="0 0 595.57 842.18"><defs><style>.cls-1{fill:#fff;}.cls-2{fill:none;stroke:#fff;stroke-linecap:round;stroke-linejoin:round;stroke-width:0.38px;}.cls-3{fill-rule:evenodd;}</style></defs><rect class="cls-1" x="0.31" y="0.31" width="595.08" height="841.68"/><rect class="cls-2" x="0.19" y="0.19" width="595.2" height="841.8"/><path class="cls-3" d="M336.36,457.56l39.24,8.64c-.24,15.6-1,31.2-2,46.92C372.48,528.48,371,544,369,559.44a42.82,42.82,0,0,0,.24,11.76,21.08,21.08,0,0,0,3.84,9.24A145.34,145.34,0,0,0,376.44,559c1.32-14.28,2-28.68,2.4-43.08.48-15.72.48-31.44,0-47l-.48-12.12-42.24-7ZM7.32,188Q15.06,251.4,19.8,315.36c1.56,21.48,3.24,43,5.28,64.44a151,151,0,0,0,5.76,30.6,26.86,26.86,0,0,0,5.4-12.72Q46,334,51.36,272.28l.48,3.24Q58.86,339.6,69,403.2A95.09,95.09,0,0,0,79,434a821.75,821.75,0,0,0,14.4-101.4q5.22-63.36,4.2-127.56a115.25,115.25,0,0,1,2.16-24c1.32-7.44-.24-12.36-4.68-14.88q-2,59.76-5.52,120C87,328.56,83.16,370.68,78.24,412.56q-1.26-4.5-2.16-9-11.7-63.36-17.4-127.68c-1.08-12.12-4.44-22.2-10-30.48a33.59,33.59,0,0,0-2.16,9.72A939.65,939.65,0,0,1,31.68,381.24q-7-44.28-9.72-89A1019,1019,0,0,0,6.72,165.6,102.73,102.73,0,0,0,7.32,188ZM204.6,144.6q4.32,51.48-21.6,95.4a149.51,149.51,0,0,1-12.12,17.76q-19.08,24.3-46.8,30.36l.24-9.12q1.44-64.26,4.56-128.28,2.7-58.14,2.52-115.32l.12-.12.84-1c8.4-4.32,16.56-4.08,24.48.6q41.4,24.66,45,74.16Zm1.08-33.36a208.73,208.73,0,0,0-9.12-40.8,70.23,70.23,0,0,0-24.72-34.8,79.69,79.69,0,0,0-30-14.28l-10.56,3.72V22.44l-.36,2.76-4.32,1.32-.24,7.32,2.52,2c-1.08,16.68-1.92,33.6-2.28,50.76-.48,21.48-1.2,42.84-2.16,64.2q-1.8,41.58-4.68,82.8-4.86,71.1-4.2,142.44A1166,1166,0,0,1,106,536,71.73,71.73,0,0,0,108.84,568a108,108,0,0,0,4.2-19.44q2.52-22.14,3.24-44.28,2.52-74.88,5.52-149.64l1.92-53.4a25.44,25.44,0,0,0,9.12-1.2,21.33,21.33,0,0,0,6.36-2.76l8.64-6.24,6.48-5a58.13,58.13,0,0,0,5.88,13.68A123.25,123.25,0,0,0,168.48,312a152.58,152.58,0,0,1,12.72,20.76,930.38,930.38,0,0,1,62.28,157.08,523.54,523.54,0,0,1,16.2,74.4,36.59,36.59,0,0,0,4.08,12.36,6.42,6.42,0,0,0,1.56-4.56q-1.08-13.5-3.24-26.64a480.91,480.91,0,0,0-14.52-61.08,1178.67,1178.67,0,0,0-48.72-130.68,381.17,381.17,0,0,0-40.92-70.8,122.38,122.38,0,0,0,14.28-14.16A135.24,135.24,0,0,0,184,252.84a147.2,147.2,0,0,0,10.8-20.16,150.17,150.17,0,0,0,11.64-42.24,267.06,267.06,0,0,0,2.16-39.24A372.78,372.78,0,0,0,205.68,111.24Zm74.88-34.08q.54,56.34,3.24,112.68,3.24,64.26,3.6,129.24.54,64.08,1.44,128.16c.24,21.72-.36,43.32-1.68,64.8a459.7,459.7,0,0,0,.12,64.32,2.26,2.26,0,0,0,1.44-1.32,521.07,521.07,0,0,0,7.32-97.2c-.6-43.08-1.56-86.16-2.64-129-1.08-43.08-2.64-86.16-4.44-129.12-1-21.36-1.44-42.72-1.32-64.08.12-43.08-1.08-85.92-3.84-128.28A330.78,330.78,0,0,0,280.56,77.16ZM405.84,298.44a529.51,529.51,0,0,0-2.16,64.92q1.62,64.62,1.44,129.12a647.41,647.41,0,0,1-3.6,64.8c-1.32,12-.12,22.56,3.84,31.8a174.58,174.58,0,0,0,4-35.76c.72-41.88.6-83.64-.48-125q19.62,4.14,38.88,7.56,4,56,2.4,112.92c-.36,12,1.32,22.56,4.92,31.68a89.83,89.83,0,0,0,3.6-26.88q-.36-58.68-4.08-116.52l1.08.24.72-1.68a9.12,9.12,0,0,0,.6-4l-.12-1.68a6.38,6.38,0,0,0-1.8-4.08,4.26,4.26,0,0,0-1.08-.48h-.12l-.12-1q-4.5-64.08-7.56-128.16a768.33,768.33,0,0,0,.36,124.32l.24,3.72q-19.26-2.88-38.16-6.48Q407,356.46,408.24,296l-.6.12A8.41,8.41,0,0,0,405.84,298.44Zm-45.72,13c2.28-16.08-5.28-24-22.44-23.76a23.71,23.71,0,0,0-6.84,6.12c-10.2,13.08-15.84,28.2-17.16,45.48-2.28,31.68-3.24,63.6-3.12,95.88.12,36.84,2.16,73.44,5.88,109.68,1.56,14.76,8.64,24.24,21.24,28.32a67.75,67.75,0,0,0,7.2-3.72q21.78-13.14,22.32-35.28a115.81,115.81,0,0,1-29.64,23c-3.84,2-6.48,1.08-7.8-3A277.92,277.92,0,0,1,316,463.8c.12-10.92,0-21.72-.6-32.4A458.88,458.88,0,0,1,323.52,320a21.24,21.24,0,0,1,6.6-12.24c13.08-11.88,22.8-10.44,29.4,4.44ZM550.92,17.64q-38.7,26.1-43.44,73.2t-5.76,94.8a332.19,332.19,0,0,0,4.56,62.64c1.56,9.12,3.36,18.12,5.64,27.12l3.48,13.44a22.09,22.09,0,0,0,5.76,9.84A10.43,10.43,0,0,0,531,301.8a37.76,37.76,0,0,0,17-8.28,29.32,29.32,0,0,0,10.68-22.32c-10.44,14.28-22.8,19.44-37.08,15.6A319.92,319.92,0,0,1,507,174.36a273.13,273.13,0,0,0,58.2-4.44v-6.48L562,160.2a126.61,126.61,0,0,0-55,5.28q-12.78-75.6,34.32-127.8a36.15,36.15,0,0,1,13.32-9.48l4.08,2.16,10.8,17.76c.6-13.32-4.8-23-16.44-29.4ZM538.2,6.24,538,5.4A928.71,928.71,0,0,0,425,20.52,372.72,372.72,0,0,0,369.6,36v8.16l6.48,2.76,3.24-3a354.24,354.24,0,0,1,94.2-17.4Q491.7,254,487.2,482.28A538.31,538.31,0,0,0,492.48,569q2.16-146.7-2.76-294.36Q485.58,150.3,475.08,26L535,16Q542,17.22,538.2,6.24Z" transform="translate(0.19 0.19)"/></svg>