<svg id="Layer_1" data-name="Layer 1" xmlns="http://www.w3.org/2000/svg" viewBox="0 0 288.24 214.8"><defs><style>.cls-1{fill-rule:evenodd;}</style></defs><path class="cls-1" d="M287.88,250.56l7.32.84c15,19.08,15,38.16.24,57.48a19.35,19.35,0,0,1-17.28,7.92C265.44,296,264.84,275,276.48,253.56a9.91,9.91,0,0,0,10-1.92Zm0-17.88a22.21,22.21,0,0,0-8.64,6.48c-13.32,15.48-19.56,34-18.48,55.32.72,15.48,6.72,27.84,18.12,37.2a6.19,6.19,0,0,0,7.2.84c13.56-6.6,22.08-17.76,25.56-33.36,5.64-25,.72-46.68-14.52-65l-3.24-.6ZM175.2,207.12a31.62,31.62,0,0,1,8.88,3.36c14.4,8,21,20.88,19.8,38.4-1.08,15-7.32,26.64-19,35A32,32,0,0,1,164,290l-1.44-1.56,5-82.44Zm-8.88-11.64A17.11,17.11,0,0,0,163,197l-.48,1.56a9.87,9.87,0,0,0-.24,3.24l.12,1.8a57.15,57.15,0,0,0-3,15.72c-2.4,42.84-5,85.56-7.8,128.4a159.35,159.35,0,0,1-5.16,32c-2.64,9.84-1.32,17.88,4.08,24.12a100,100,0,0,0,7.08-33.72c1-22.8,2.16-45.48,3.72-68.16,4,5.88,10.08,7.08,18.24,3.36A418.82,418.82,0,0,0,203.76,379a123,123,0,0,0,16.44,28.2,12.48,12.48,0,0,0,3.48-6.84q2.34-12.6-4.32-16.92l-.24.24A846.41,846.41,0,0,1,184,302.88l.48-.48.6-.72q27.72-22.86,25.8-61.2Q209,205.56,177,195.36a19.1,19.1,0,0,0-9.72-.12V194Zm157.32,9.24a423.4,423.4,0,0,1-6.48,125.4q-8.46,42.3-51,45.72l-7.44-6.12a25.7,25.7,0,0,1-9.48-16.2,362,362,0,0,1-.12-126.12c2.16-12.6,1-23-3.48-31.44a1225.89,1225.89,0,0,0-11.76,126.48c-1.08,23.76,5.64,44.4,19.92,62,6.6,8,14.76,10.8,24.6,8q30.6-8.28,39.72-38.28a399.76,399.76,0,0,0,17-97.68,227.18,227.18,0,0,0-5.64-64.2C325,194.64,323,198.84,323.64,204.72Zm66,9.36q15.66,10.62,15.48,29.16c0,20-9.84,33.6-29.52,40.44L363,288.36a484.37,484.37,0,0,0,2.28-76.92ZM364.2,197.52C360,208,358,219.84,358.32,233.28q.36,19.26-.36,38.16a588.12,588.12,0,0,1-11,95.4c-2.4,12.12-1.32,22.8,3.24,31.92a376.76,376.76,0,0,0,10.68-73l1.32-23.64,1.8,1.68,6.12.48,1-.36a143.44,143.44,0,0,0,19-10.08c21.84,1.08,33.72,12.84,35.76,35a33.54,33.54,0,0,1-5.16,21.84c-14.28,22.92-35.52,32.52-64,28.8a11.83,11.83,0,0,0-3.48,8.16,21.1,21.1,0,0,0,2,10.56,53.6,53.6,0,0,0,21.48,1.92,63.15,63.15,0,0,0,14.76-3.6,60.32,60.32,0,0,0,31.8-26.52,70.21,70.21,0,0,0,10.08-36c.24-24.84-10.32-42.36-31.56-52.8a60.87,60.87,0,0,0,12.36-36.6c.36-25.08-11.76-40.8-36.36-46.92a33.73,33.73,0,0,0-8.76,1.56,25.38,25.38,0,0,0-4.44,2.16Z" transform="translate(-145.08 -192.36)"/></svg>