<svg id="Layer_1" data-name="Layer 1" xmlns="http://www.w3.org/2000/svg" viewBox="0 0 297.9 209.88"><defs><style>.cls-1{fill-rule:evenodd;}</style></defs><path class="cls-1" d="M158.28,199.68V194a27.66,27.66,0,0,0-5,16.2L148,338.52a515.28,515.28,0,0,0,.84,64.08,1.75,1.75,0,0,0,1.08-1,610.33,610.33,0,0,0,7-80.16l.36-14.16c4.44,4.56,11.64,5.52,21.48,2.88a23.37,23.37,0,0,0,5.28-2.28,137.49,137.49,0,0,0,9.12,40,436.87,436.87,0,0,0,25,53.88,8.6,8.6,0,0,0,1.44-9.24q-16.38-43.92-31.2-88.44,36.72-37.8,10.56-85.56c-7.32-13.32-17.64-21.72-31.08-25.32a16.59,16.59,0,0,0-7.92,4.56A7.83,7.83,0,0,0,158.28,199.68Zm14.64,5.76c15.36,9.24,25.08,22.68,29.28,40.08,3.6,14.76.84,28.44-8.4,41-2.88,3.84-6.24,6.12-10.2,6.72-8.52,3.72-17.16,3.6-26.16-.6l1.08-83.28Zm99.48-12.12c-2.52,39.72-3.84,79.8-4.2,120A611.65,611.65,0,0,1,264.12,378c-1.08,9.84.6,17.64,5,23.52A525.72,525.72,0,0,0,276.24,322c.6-43.32-.36-86.4-3-129C272.64,193.08,272.4,193.2,272.4,193.32Zm132.12.72a655.13,655.13,0,0,0-7.2,111.12,401.15,401.15,0,0,1-4.08,64.68c-1.8,12.12-.36,22.8,4.44,31.92a45.86,45.86,0,0,0,5.76-34.08l-.24.84a38.14,38.14,0,0,1-1.44,9.24l1.32-55.8.48-25.32a90.36,90.36,0,0,0,32.28-4.2l-.12,13.8a414.16,414.16,0,0,1-5.4,64.8c-2,12.48-.6,23,4.44,31.56a378.53,378.53,0,0,0,4.8-48.72q2.34-64.62,5.52-129c.6-11.88-.48-22.68-3.48-32.16q-4.14,41.94-5.4,85.08l-2.16-.12a113,113,0,0,0-30.36,8.88L405,193.8C404.64,193.8,404.52,193.92,404.52,194Zm-45.72.24L347.4,193Q324.9,214,334.08,245a200.74,200.74,0,0,0,23,50.76A98.06,98.06,0,0,1,372.36,348a27.58,27.58,0,0,1-6.24,17.64,33.08,33.08,0,0,1-18.72,12.12c-16.2,4.2-28.92-.6-38-14.4a49.73,49.73,0,0,1-8-24c-.48-5.4-1.2-10.92-2-16.32l2.16-8.16-5.4-2.16q-11.16,39.06,11.64,75.6,25.92,20.52,51,2.28a53.16,53.16,0,0,0,21.84-34.32,69.34,69.34,0,0,0-3-37.32,275.18,275.18,0,0,0-25-51.48c-6-9.72-11.64-19.56-17-29.64-1.32-11.88,1.56-22.08,8.64-30.84,13.2-1.8,23.16,4,29.76,17.28,1.8-11-2.4-20.28-12.36-27.84Z" transform="translate(-147.34 -192.72)"/></svg>