<svg id="Layer_1" data-name="Layer 1" xmlns="http://www.w3.org/2000/svg" xmlns:xlink="http://www.w3.org/1999/xlink" viewBox="0 0 599.04 606.37"><defs><style>.cls-1{fill:none;}.cls-2{clip-path:url(#clip-path);}.cls-3{fill-rule:evenodd;}</style><clipPath id="clip-path" transform="translate(6 3.13)"><rect class="cls-1" width="593.16" height="603.36"/></clipPath></defs><g class="cls-2"><path class="cls-3" d="M578,531.48c6.12,1.08,11.16,4.44,15,10.08l-.48,1.2-1.2.72a12,12,0,0,0-3.24-3.84q-2.88-1.8-11.16-1.8c-12.84,0-22.32,4.92-28.44,14.88a68.28,68.28,0,0,0-4,7.8c9.84-.12,16.2-.6,19.08-1.68a43.5,43.5,0,0,1,12-2.4V556a3.16,3.16,0,0,1,1.8.84,4.08,4.08,0,0,1,.72,2.64,5.54,5.54,0,0,1-.6,2.76l-1.92,1.8-13,1.56-19.8,1.32a28.85,28.85,0,0,0-.36,4.44q0,2.7,5.4,6.48a29,29,0,0,0,16.92,4.92c9.6,0,16.44-1.68,20.52-4.92a21.18,21.18,0,0,0,3.36-3.72,8.28,8.28,0,0,1,2.4-2.76l.72,1.2a6.18,6.18,0,0,1,.36,2.52c0,1.8-2.28,4.56-6.72,8.52-4.92,4.32-9.36,6.48-13.08,6.48-14.76,0-24.6-2.52-29.28-7.56-2.16-2.4-3.24-6-3.24-10.92l.24-4.56h-.48l-.36-.84a12.73,12.73,0,0,1-.24-2.52,7,7,0,0,1,.36-2.52l.72-1.08.24.24.84.24a42.61,42.61,0,0,1,4.8-11.28,38.2,38.2,0,0,1,14.52-14.16C566.4,531.84,572.28,530.64,578,531.48ZM317.64,415c0,8,0,12.72-.12,14l-3.12,17.64v11.88l52.8.48.84,1.32a6.32,6.32,0,0,1,.48,2.76l-.24,2.52-1.08,1.56h-56l-.84-2.16-.24-3.12A158.38,158.38,0,0,1,312,436.2c1.32-8,1.92-20.4,1.92-36.84,0-2.28.84-3.6,2.4-4A111.66,111.66,0,0,1,317.64,415Zm-21.48-12.84-1.2.6-1.68-1.8a4.65,4.65,0,0,1-.48-2.64q5.4-52.92,11.64-70.44a12.39,12.39,0,0,1,2.4,6.48l-4.8,30c-3.24,19.44-5,31.92-5.16,37.32ZM31.68,27.12V92c1,25.56-.36,58.44-4.08,98.88l-2,21.12a84.52,84.52,0,0,1,9.84-4.2,77.69,77.69,0,0,0,12.36-5.4,25.17,25.17,0,0,0,9.84-9.12l9.24-15.48a75.52,75.52,0,0,0,6.48-14.4c4.2-14.28,7-24.72,8-31.32a159.27,159.27,0,0,0,2-27.6c0-20-2.4-36.48-7.08-49.32q-11.88-33.12-42.84-37C32.64,22.92,32,25.8,31.68,27.12ZM57.6,15c4,2.88,6.84,5.52,8.4,8A49.42,49.42,0,0,1,76,37a103.08,103.08,0,0,1,5.52,13.68c1.08,3,2.4,12.36,4,28,1.56,14.28,2.28,23,2.28,26.4a275.08,275.08,0,0,1-9.48,62.52C70.68,195,59.88,213,46.08,221.52Q64.8,308.82,79.68,385q31.5,160.74,31.56,207.48a40.22,40.22,0,0,1-.24,5.28,7.39,7.39,0,0,1-3.36,5.52q-5.4-36.18-14.28-97.92l-14-97.68L58.8,314.16q-14.22-65.16-17.88-90a36.82,36.82,0,0,1-15,3l-1.8-.12-1.32,13.8C21,260.4,19.68,277,19,290.76V350q-.54,3.24-1.08,9.72t-1.08,9.72V420.6L13.44,465c-1.32,18.6-2.52,33.36-3.72,44.16C8.64,519,7.32,533.88,5.64,553.8,3.6,571.08.48,585.48-3.84,597-5.28,594.84-6,591.84-6,588.12q0-5.94,7.32-75.84L11.4,415.2V364.92c.36-2.16.72-5.52,1.08-10.2s.72-7.92,1.08-10.08V285.36c.36-22.2,2.52-54.36,6.24-96.48,4-44.52,6.36-77,7-97.44V20.88c.36-4.68.6-8,1-10.2A10.32,10.32,0,0,1,33,2.76a14.06,14.06,0,0,1,1.56,3.36c2.76-.36,6.36.24,10.8,2A62.7,62.7,0,0,1,57.6,15ZM312.84,138c-9.84,0-17.28,5.16-22.2,15.48l-1,2.16,24.48.24.84,1a5.65,5.65,0,0,1,0,4.56l-.84,1H287.4l-.48,2.16a30,30,0,0,0-.84,6c0,.84,1.32,2.76,3.84,5.64a29.64,29.64,0,0,0,5.52,4.92c11.16-.6,19.08-2.16,23.76-4.44a19,19,0,0,0,5.76-4.32l.6,1a9,9,0,0,1,.24,2.4c0,2.28-1.56,4.68-4.56,7.2-4.44,3.72-10.92,5.52-19.2,5.52-7.08,0-12.36-2.76-15.72-8.4a18.15,18.15,0,0,1-3-9.36A42.89,42.89,0,0,1,289,149.88a45.25,45.25,0,0,1,12.36-14.4c4.8-3.6,8.88-5.16,12.36-4.8,3.72.36,5.64,3.12,5.64,8.28l-.12,2.28-.12,1.32c-.24,0-.48.24-.84.6a2.42,2.42,0,0,0-1.32,0,5,5,0,0,1-1-3.48C316,138.6,314.88,138,312.84,138ZM193.92,196.68a2.29,2.29,0,0,1,1.2-.6,10.62,10.62,0,0,1,1.92,6.48q0,7.38-1.8,37.08c-1.2,19.8-1.8,33.36-1.8,40.8l-.12,53.64c-.36,20.28-1.32,38.16-3.12,53.52l-6.12,48c-3.72,29.76-5.52,49.2-5.52,58.32q0,5,.72,14c.84,10.32,2,19.8,3.6,28.32,5.28,26.76,14,40.2,26.28,40.2,17.64,0,31.08-14.52,40.56-43.56a222.74,222.74,0,0,0,7.44-31.32l2.4-16.8q5.22-39.06,9.36-95c1.56-20,4.32-51.36,8.52-94.2q6.12-62.64,8.28-94.68c-1.2-2.76-1.08-4.56.24-5.16a7.79,7.79,0,0,1,3-.72c1.8,1.56,3.12,4.08,3.84,7.56q0,29.16-8.4,103.8l-10.56,91c-.6,6.36-1.68,21.84-3.12,46.2-1.8,25.2-4.32,46.68-7.32,64.32-9.48,54.6-25.92,82-49.08,82q-26.1,0-35.76-41.88a192.11,192.11,0,0,1-4.08-29.64c-.36-4.68-.48-9.72-.48-15.12q0-29.7,6.12-84.12,7.56-67,8.52-81.48v-43.8q.54-6.66.36-19.44l-.36-13.44a273,273,0,0,1,2-29.88c1.56-12.84,2.52-24.12,2.76-33.84Zm-18-146c-.84-4.56-3.12-10.2-7.08-16.92a160.32,160.32,0,0,0-11-16.08c-6.6-8.4-15-10.56-25.2-6.36a35.64,35.64,0,0,0-10.92,7.32A27,27,0,0,0,115,27.84q-3.42,12.6-13.2,70.92-9.72,59.4-9.72,70l-1.68,16.8C89.28,197.16,88.8,204,88.8,206.28l.72,19.92c.84,15.24,2,29.16,3.6,41.88q7.38,60.3,23.28,60.24,43,0,60-101.64A636.33,636.33,0,0,0,185,120.84c0-3-1.32-14.64-4.08-34.8C178.44,67.8,176.76,56,175.92,50.64ZM187.2,89a260.62,260.62,0,0,1,2.28,31.68,733.21,733.21,0,0,1-8.76,110.16Q164,340,122.28,340c-16,0-26-9.24-30.24-27.6a115.83,115.83,0,0,1-2.64-22.08L88.8,274c-2.88-23.16-4.44-36-4.56-38.64l.24-28.8q0-38,9.48-95.76c4.68-28.68,10.92-59.4,18.6-92.4l.6-.72c-4.2,1.92-7.08,3-8.76,3.24a52,52,0,0,0,16.2-11.4c5.64-5.76,10.2-9.6,13.56-11.4C154-7.8,168.84,7.68,179,44.76A278.6,278.6,0,0,1,187.2,89ZM310.92,66.36l.24,3L300,93.84c-8.28,18.12-14.16,32.28-17.52,42.24-2.28,7.2-5.52,18.36-9.48,33.48-4,13.44-8.76,24.6-14.28,33.48-3.72-9.12-7.32-20.76-10.92-35l-8.88-36.24-9.24,35.76c-4.08,14.28-8.64,26-13.68,35q-4.5-27.36-8.64-56.16-8.46-57.6-8.52-70.8c0-4,.24-6.84.84-8.52,7.8,46,13.56,88.32,17,127.08A254.17,254.17,0,0,0,229,156.72c2.28-8.52,5.16-21.48,8.88-39l.48-.48.84-1.2c2.28,8.52,5.4,21.12,9.36,38q6.66,27.36,9.36,38.16v.24a224.43,224.43,0,0,0,12-31.68c4.08-14.52,7.2-25.56,9.48-32.88A243.14,243.14,0,0,1,291,95.28a148.74,148.74,0,0,1,18.84-31.2ZM285.24,39.6c0-8.4-3.36-15.48-10.2-21.12A39.21,39.21,0,0,0,252.6,9.72c-8.88-.72-16.32,1.08-22.44,5.52C223.32,20.16,220,27.48,220,37q0,8.1,7.56,15.48c7.08,6.84,17.52,10.32,31.2,10.32,11.76,0,19.68-3.84,23.76-11.4A21.56,21.56,0,0,0,285.24,39.6Zm3.24-.24A44.75,44.75,0,0,1,285,56.88c-4.2,9.48-11.16,14.28-20.88,14.28q-30.78,0-41.4-13.68c-3.6-4.8-5.4-11.64-5.4-20.4,0-11.64,3.72-20.88,11-27.48,6.72-6,14.88-8.88,24.6-8.52a35.22,35.22,0,0,1,24.36,10C284.76,18.12,288.48,27.6,288.48,39.36ZM420.12,415.92l25.8,1.68c1.44,0,2.4,1,2.76,2.76a7.83,7.83,0,0,1,.24,2.88c0,2.4-.36,3.84-1.08,4.44-1.32,1.08-4.44,1.56-9.48,1.56-9.36,0-15.72-1-19-2.76-1.08,18-1.68,36-1.56,54.12,0,7.56.24,13.32.6,17.16,1.08,10.92,3.36,17.88,7,21.12l16.44-.24c4.68-3.36,8.64-8.64,11.64-15.72l3.6-8.52a38.25,38.25,0,0,1,4.56-7.8h.84v5.76A51.09,51.09,0,0,1,457,511.92a63.77,63.77,0,0,1-14.28,18.6l-19-.36c-3.72-3.72-6.48-12.12-8.4-25.44a179.25,179.25,0,0,1-1.8-23.64c0-27.48,1-52.2,2.88-74.4q5.76-63.9,20.88-82.44l6.72.36c4,4.44,7.32,8,10,10.8.84,1.08,1.2,4,1.2,8.4l-.6,5.16q-.54,4.14-.72,6.12l-.48.6-1,.84c-.6-.84-1-2.64-1.2-5.28l-.6-7.68c-.84-6.6-3.12-9.84-7.08-9.84q-16.38,0-22.68,73.32ZM370.68,280.2c0,14.28,1.2,32.52,3.72,54.72q5.22,45.54,6.12,56.52,9-22.5,18.6-58.8,13.32-50.94,16-59.76c1.44.84,2.16,2.52,2.16,4.92,0,4.2-4.92,22.92-14.64,56q-15.48,52-23.16,68.4c-1.92-29.16-5.88-67.68-12-115.32l-.24-.48c-1.32,5.28-3.24,14.64-6,28-2.52,11.76-4.56,21-6.24,27.84-5.4,21.36-12.48,39.6-21,54.84l-.6-1.32-.24-2.76c0-1.2,4.56-17.76,13.8-49.68,11.16-38.76,18.6-64.68,22.2-78q1.26,1.26,1.44,7.56Zm-8.4-58.92L362,222l-.48.6c0-6.24-4.56-10.08-13.56-11.64l-9.36-.72-4.2-.36-8.88.48-1.32,1.32a3.48,3.48,0,0,0-1.2,2.76c0,4.8,2.52,8.4,7.44,10.68,1.92.84,7.32,2.4,16.2,4.56,7.44,1.8,12.84,4,16.2,6.72,4.92,3.84,7.32,9.48,7.32,17,0,3.36-1.8,5.76-5.52,7.32-6,1.92-11.4,3.84-16.2,5.64H335c-4.68-3.48-11.28-6.6-19.56-9.36a15.89,15.89,0,0,1-5.4-2.64c-1.32-1.2-1.92-3-1.92-5.4a17.56,17.56,0,0,1,.72-5.28l2.64-5.76a21.58,21.58,0,0,1,1.2,4.68q.54,3.78-.72,5l3.48,2.16a55.94,55.94,0,0,0,7.44,4,60.09,60.09,0,0,0,25.56,5.52c2.28,0,6-1.08,10.92-3.12,4.68-2,7-3.36,7-3.84q0-7.74-7.2-11.52c-2.4-1.32-7.68-3-15.72-5-7.44-1.8-12.72-3.84-15.84-6-4.8-3.48-7.2-8.4-7.2-14.88a13.49,13.49,0,0,1,1.92-7.2,8.45,8.45,0,0,1,7.8-4.44c14.28,0,23.88,2.16,28.68,6.6,2.28,2,3.48,5.16,3.48,9.36Zm22-18.72-24.6-2.28L335,197.64l-.84-1.32a14.57,14.57,0,0,1-.24-2.76c0-6.36,1.56-16.8,4.56-31.44,2.88-13.56,4.08-24.36,3.48-32.28h1.44c.72,2.16,1.08,5.64,1.08,10.56,0,10.92-.24,18-.84,21.24L338,188.76V189l43.44,6c2.52.36,3.84.72,4.2,1.08l.24,2,.12,3.24C386,202.2,385.44,202.56,384.24,202.56Zm-16.32-72.72a7.3,7.3,0,0,1,.36,2.64c0,2.28-1,9.6-2.88,22.2L362,176.76l26.28.84c4.2,1,6.24,2.76,6.24,5.28s-.6,4.2-1.68,5.28A55.17,55.17,0,0,0,382.32,185c-7.8-1.56-14.4-1.32-19.68,1-1.92-.6-3.12-1.56-3.6-3.12a18.41,18.41,0,0,1-.24-3.6c0-3.72.84-11.28,2.4-22.8,1.8-14.4,3.84-23.64,6-27.72Zm9.72-88.08A133,133,0,0,1,356.4,70.32c-3.24-7.08-5.16-16.56-5.76-28.68q-.18-20.7-1.08-30.6L322.68,39.48,297.72,66l-1.44-.24-.48-.36V63.72c0-2.76,7.32-11.64,21.84-26.76L349.56,3.24c2.16,6.72,3.48,16.44,4.08,29.28q.9,19.8,3.6,29.16c4.8-5.88,11-15.84,18.72-30.12,7.68-14,13.8-23.88,18.36-29.4.6,4.56,3.12,16.08,7.32,34.56,3.72,16.44,5.64,26.28,5.64,29.52L407,69.6l-.6.36-1.08.72C401.52,58,398.76,48.36,397.08,42c-2.88-11.16-4.44-20.76-4.68-29Q383,32.22,377.64,41.76Zm180.48,72.36A182,182,0,0,0,545,77.88Q524,36.3,499.2,20.4c-2.64-1.8-7.44-4.2-14.4-7.44l-.72-.36v92.88l.24,4.08c0,11.88-1,27.6-2.76,47.16l-4.8,46.08v44.64c-1.32,14.28-2.16,30.12-2.76,47.52-.36,12.24-.48,28-.48,47L476,415.08c0,46.44-.36,79.68-1.2,100-1.08,27.72-2.76,48.36-5.28,61.8,2.88-1.32,6.6-2.88,11-4.56l18.12-6.36c7-2.64,12.24-5.16,15.72-7.56A91.4,91.4,0,0,0,534.12,540a79.35,79.35,0,0,0,11.64-19q16.56-38.88,24-74.76c3.48-16.92,7.2-40.44,10.92-70.8q6.3-51.66,6.36-79.32c0-17.4-.36-30.48-1-39.36A174.23,174.23,0,0,0,582.72,233L576,204.36c-3.48-15.84-7.08-33.6-10.56-53.4C562.44,133.92,560,121.68,558.12,114.12Zm-9.6-47a359.73,359.73,0,0,1,22.32,76.32c3.24,18,6.84,35.52,10.56,52.68l6.6,31.08a228.37,228.37,0,0,1,3.48,27.24c.6,9.72,1,23.4,1,41,0,20.52-2,46.32-6.24,77.64l-5.4,38.76c-2.16,15.48-3.72,28-4.8,37.44a218.07,218.07,0,0,1-16.2,61.8,177.94,177.94,0,0,1-28.32,46.08q-16,18.54-34.2,28.8c-11.88,6.6-23,10-33.48,10-2.16,0-3.6-1.32-4.32-3.84l-.24-4.32a7.42,7.42,0,0,1,1.32-4l3.72-78.6q3.78-89.28,3.84-163.68c0-41.4,1.08-74.76,3.24-100.32V196.56l3.6-45.48q2.34-28.44,4.32-46.08V12.48l.12-6.6q.54-4.86,2.52-5l1.32,3.6,1.92.12c3.48.36,7.8,2,13.08,4.8a81.22,81.22,0,0,1,14.64,9.24c4.92,3.72,8.28,7.2,10.2,10.32l14.16,18.84A103.9,103.9,0,0,1,548.52,67.08ZM450.6-.6a15.36,15.36,0,0,1,5.64,6.72,18.9,18.9,0,0,1,1.32,7l-.24,7.2A51,51,0,0,1,456,28.92c-2.88-1.32-4.08-3-3.6-4.8a13,13,0,0,0,1.68-5.4,14.4,14.4,0,0,0-.6-4.56l-3.24-4.44-8.88.24c-11.76,10-19.92,43.44-24.6,100.68l-1.08,14.64c4.2-.84,16.2-.72,36,.24a9.76,9.76,0,0,1,1.8,6.12,7.88,7.88,0,0,1-2.16,5.88l-12.84-.6-22.32-.84L415.08,135q-2.34,41.94-2.4,95c0,2.4,1,6.6,2.76,12.6,2.28,7.68,4.92,12.36,7.8,14,16.44-2.64,27.12-7.56,31.92-14.88a34.3,34.3,0,0,0,3.84-9.48,55.37,55.37,0,0,1,3.24-9,11.48,11.48,0,0,1,3,4.2,19,19,0,0,1,.24,3.72q0,2-2.16,7.56a74.94,74.94,0,0,1-6.6,12.72Q445.56,268.8,430.8,268.8c-10,0-16.68-6.24-20.28-18.6a69.86,69.86,0,0,1-2.28-13.32l-.12-7.08c0-11.16.12-20.64.48-28.56s.6-21,.6-39.36c0-1.92,1-14,2.88-36.48,1.8-21.24,3.24-36.48,4.08-45.6l1.08-20.64a164.14,164.14,0,0,1,1.92-21c3-16,10.44-29,22.44-39Z" transform="translate(6 3.13)"/></g></svg>