<svg id="Layer_1" data-name="Layer 1" xmlns="http://www.w3.org/2000/svg" viewBox="0 0 581.57 593.28"><defs><style>.cls-1{fill-rule:evenodd;}</style></defs><path class="cls-1" d="M394.32,522.36l.24,9.6c0,2.88-.48,9-1.32,18.48l10.44-14.28c9.84-13.56,17.76-24.36,23.88-32.16a5.16,5.16,0,0,1,2,1.8,5.73,5.73,0,0,1,.6,2.88c0,1.8-5.4,10.56-16.08,26.4l-5,7.2,2.28,5.64,4.56,12.6c.36.72,2.88,4.68,7.68,12s7,11.88,7,13.56a11.13,11.13,0,0,1-.36,3.12l-1.32,2.16c-2.52-2.28-7.44-10.44-14.64-24.6-4.2-8.4-7.2-14.88-9-19.32-6.36,8.4-10.56,12.6-12.84,12.6l-.24,2.88c-1.68,16.68-2.76,25.68-3.36,27.12h-1.56a36.15,36.15,0,0,1-.6-5.76c0-.72.84-8.52,2.4-23.52l.36-4v-.6l.12-.12q1.8-18.54,1.8-24.48l-1.08-8.16-1.08-7.32a10.41,10.41,0,0,1,.6-3.36,6,6,0,0,1,1-1.8C392.52,512.52,393.72,516.36,394.32,522.36Zm96.6-79.56-.6,7.32a2.11,2.11,0,0,1-1.56,1.08,45.71,45.71,0,0,0-3.24-7.92c-2.52-5-5.28-7.56-8.16-7.56-19,0-30.24,9.24-34,27.72a88.24,88.24,0,0,0-1.32,21.24l.6,14.16v6.48l9.24-.84,30-1.32a9.12,9.12,0,0,1,1.92,6.12,7.78,7.78,0,0,1-2.16,5.76l-10.2-.6c-6.84-.24-11.52-.24-14.16.12l-3.72.84-3.84.72-7.08-.6v31.2a41.51,41.51,0,0,0-1.08,8.88c0,14,6,21.12,18,21.12a32.49,32.49,0,0,0,25.2-11,34.92,34.92,0,0,0,5.64-7.92l2-4.32-5.88-.24L491,550a32.79,32.79,0,0,1,6.36-4.08,14.52,14.52,0,0,1,1.92,7.32,25.56,25.56,0,0,1-1.92,8,52.75,52.75,0,0,1-6,12.24c-7.08,10.92-16.32,16.32-27.6,16.32-11.64,0-19.56-3.84-23.76-11.4-2-3.72-3-8.28-3-13.8l.24-9.72c.24-5.76.6-10.32,1.08-13.8V513.6l-.48-.72a2.73,2.73,0,0,1-.6-2.16l.24-1.08a21.71,21.71,0,0,1,.24-3l.12-1.08h.48V498c.36-2.4,1.08-10.2,2-23.4q1.26-15.12,4-24.48,3.6-12.06,11.52-18.72a24.26,24.26,0,0,1,15.48-6.12A19.81,19.81,0,0,1,485,429.72C489,433,490.92,437.4,490.92,442.8Zm46-3.48-12-3.12a31.12,31.12,0,0,1-6-2.52c1,10.56,1.68,22.56,2.16,35.88q.72,19.44.72,47.52c0,6.84-1.32,21.12-3.84,42.84l-2.52,20.4q39.6-12.24,57-31.44c10.2-11.28,15.24-25.32,15.24-42.24,0-18.72-3.84-33.48-11.64-44.4q-8.82-12.24-25.56-18.72A103.09,103.09,0,0,0,536.88,439.32ZM49.56,14.76Q49,76.14,48.12,106.92v63.24c-1.2,12.12-2.52,26.4-3.84,42.72,29.16-.12,51-13.2,65.28-39.24a117.55,117.55,0,0,0,11.64-31.2c1.8-8.16,2.76-15,2.76-20.52Q124,59.1,85.2,32.4C79,28.08,70.08,23.52,58.56,18.84c-4.32-1.8-7.2-3.12-8.76-4ZM107,40.56c6.12,6.84,10.08,12.48,11.76,16.8s4,15.84,6.72,34.92c2.52,17.52,3.84,28.08,3.84,31.68s-.84,10-2.4,18.72a188,188,0,0,1-10.32,35.64C105,206.76,88.32,223.2,66.84,227.4q16.92,82.44,42.72,171c5.64,19.56,14.28,53,25.8,100.2q18.36,74.88,18.36,82.92a15.56,15.56,0,0,1-1,4.08,10.45,10.45,0,0,1-2.88,4.68c-5.52-23.64-14-58-25.44-102.72L103.68,406Q92.34,365.82,82,324.6c-12.12-47.88-19-79.92-20.52-96.36l-6.24.24-12.12-.24-2.76,34.68-7.08,93.84v47.88q-2.88,31-7.32,92.64c-3,37-6.48,67.8-10.2,92.52-1.8-.36-3-1.92-3.84-4.44A15.92,15.92,0,0,1,11,580q0-6.84,16.32-181.2V352.44q3.06-33.66,7.8-93.84l2.64-33.48a13.47,13.47,0,0,1-.72-4.56,11.74,11.74,0,0,1,.84-4.08l.72-1.56c1.68-21.72,3-38.28,4.08-49.8V101.76c.48-7.44.72-18.48.6-33.24l-.24-22c0-4.44.36-11.28,1.2-20.4C45.36,14.64,46.56,8,47.88,6.24l.48.84c2.28-1.56,7.08-1.32,14.28,1a81.67,81.67,0,0,1,28.8,16.08Zm97.32-14.28A13.33,13.33,0,0,0,197.28,28l-5.64,2.64C192.84,30.48,197,29,204.36,26.28Zm40,7.44c-6.36-5.28-14.64-8.28-25.08-8.88-12.84-.72-25.68,4.44-38.76,15.48A74.61,74.61,0,0,0,166.8,55c-3.6,4.92-5.76,9.36-6.6,13.2-3.6,21.48-10.56,54.12-20.88,97.68q-12.42,59-11,98.64v58.44a105.42,105.42,0,0,1-.36,11.4l-.48,8.52c0,3,1.56,15.72,4.8,38.16q6.12,43.38,13.68,79.92Q169.5,575.94,196.2,576c26.28,0,45.12-14.64,56.76-44,3.72-9.6,7-21.6,9.72-36.12,2.4-14.52,4.08-24,5.16-28.68,3.48-14.76,6.36-32.88,8.88-54.12,2.52-22,3.84-40.56,3.84-55.8l-.24-20.76V264.24l-1.08-4.92v-41.4l-1.08-4.8V169.44q-14-78.66-17.28-98.28a62.23,62.23,0,0,0-3.6-12c-2.16-5.64-3.6-9.72-4.32-12.36C251.76,41.88,248.88,37.56,244.32,33.72Zm27.36,52.56c2,9.12,4.32,21.84,6.84,38.28,3,19.32,5,31.92,6.12,38v44.52l1.08,4.08v42.24c.72,9.72,1.08,24.24,1.08,43.8l-.24,85.2Q285.3,398.1,278.64,435c-4.08,23-6.48,40.92-7.2,53.76a145.3,145.3,0,0,1-7.08,37,167.13,167.13,0,0,1-15,33.24c-6.12,10.2-12.48,18.36-19.2,24.24-7.2,6.12-13.92,9.24-20.16,9.24-17.88,0-31.32-7-40.32-20.76q-7.74-12.06-14-40.32l-8.16-31.08c-3.6-13.2-6-23.64-7.32-31.44-5.4-27.48-9.36-48.36-11.88-62.4-4.44-25.08-6.72-46.08-6.72-63q0-2.7.36-9c.24-4.92.6-8.88,1-11.76V259.32c-.12-17.76,1.92-38.76,6.12-62.88,5.4-28,9.48-49.08,12-63.6.72-4.32,1.44-9.72,2-16.32l1.56-15.84c1.56-12.48,4.32-22.8,8.52-31.08,1.08-2,2.88-7.32,5.52-15.72,2.28-7,4.8-12.6,7.8-16.8C175.68,24,194.16,15,221.88,10.32q29-2,41.28,32.52a153.9,153.9,0,0,1,6.12,26.4Zm242.16,336.6a4.54,4.54,0,0,1,1.68-2c2.76,1.8,11.52,4.92,26,9.36,14,4.32,22.2,7.32,24.6,9.12,5.76,4.2,11.4,11.76,16.8,22.68,4.8,9.36,7.68,17.16,8.52,23.52.36,2,.48,9.36.48,22,0,3.72.12,8.16.48,13.08a26.82,26.82,0,0,1-.12,7.2c-.6,3-4.44,12.12-11.76,27.6-3.36,7.08-13.56,15.36-30.72,24.6-14.88,8-27.12,12.72-36.72,13.8l-.6,1.92-.84-1.68-3,.12-1.92-.24-1-.84c0-4.92-.6-8.16-1.92-9.48l7.32-2c.48-8.76,1.56-23.64,3.12-44.64,2.28-29.76,3.36-49.56,3.36-59.28l-1.32-25-1.2-21.84a7.24,7.24,0,0,1-1.8-4.8A7.4,7.4,0,0,1,513.84,422.88Zm-122.76-27q0,9.9-1.8,32.76-2.88,36-8.28,65.88-17.1,93.78-53,93.84-33.12,0-40.08-33.84c-1.56-7.56-2.16-16.92-1.92-28.32.6-11.88.84-19.8.84-24,0-15.6,1-36.48,3-62.64,2.28-28.56,3.84-48.36,4.56-59.52.48-6.12.48-16.32.12-30.36-.36-13.32-.24-23.52.48-30.72,2.28-23.76,11.76-43.08,28.68-58l11.88.84q33.3-13.5,47.52,54.36a369.51,369.51,0,0,1,6.72,50.52C390.6,378.12,391.08,387.84,391.08,395.88Zm13.8,24.72.24.72,1.32.12,3.84.24a60,60,0,0,0,12.36-1.2l7.44-1.8c1.8-.36,3-.24,3.48.48.72.6,1.08,2.4,1.08,5.16q0,1.08-5.76,3.6a28.53,28.53,0,0,1-12.12,3l-6.72-.24-3.12-.24.24,2.16c.36,4.2.6,8.28.6,12.24,0,2.64-.24,7.2-.72,13.56,2.76-.6,9.6-1.44,20.76-2.64l.84,1.32a6.32,6.32,0,0,1,.48,2.76l-.24,2.4-1.08,1.68a73.5,73.5,0,0,1-11.64,2.4l-8,1.08H406.2l-1.32,13.92c-1.92,18.12-3.12,28-3.6,29.64l-1.32.36a59.17,59.17,0,0,1-1.8-7.32,51.78,51.78,0,0,0-1.44-7.32c.6-.24,1.56,0,2.64.84q2.34-16,3.24-36c.36-9.48.6-20.64.6-33.6l-.48-.84a6,6,0,0,1-.6-1.8l.24-2.52.84-1.56h1ZM369.12,300.12c-.84-5.4-1.92-9.48-3.24-12-4.92-9.48-19.08-15-42.24-16.56q-19.26,5.76-23.76,51.72a350.59,350.59,0,0,0-1.56,36.24l.48,27.24c0,4-1.32,22-3.84,54.12s-3.84,52.44-3.84,60.84L290.64,515a161.19,161.19,0,0,0,1.56,25.2c3.84,23.64,13.56,35.4,29.28,35.4q37.8,0,55-88.44a561.5,561.5,0,0,0,8-61.32l1.68-29.16a304.82,304.82,0,0,0-2.64-43.32q-2.7-19.26-10.08-45.36l-.84,2.4-.48.36C370.8,308.76,369.72,305.28,369.12,300.12Zm53.28-131c8.52,6.12,14.28,10.92,17.28,14.52a22,22,0,0,1,4.92,14,14.68,14.68,0,0,1-1.68,7.32h-1.56c-.6-4.08-3.6-9.24-8.88-15.6S423.6,180,421.08,180c-6,0-11.28,4.08-16,12.24a56.94,56.94,0,0,0-3.84,8.64l-1.32,4q0,2.52,6.48,11.52c7,9.6,11.76,16.44,14.4,20.64q20.7,33.48,20.76,66.12a62.24,62.24,0,0,1-2.4,18.24c-3.36,10.68-9.72,16-19.2,16-17.88,0-28.92-7-33.24-20.88a44.75,44.75,0,0,1-1.92-14.88l.48-7.8c0-5.16.12-8.4.24-9.84a21.57,21.57,0,0,1,3.6-9.72,8.08,8.08,0,0,1,2.64,6.48,42,42,0,0,1-1.08,6.48,45,45,0,0,0-1.08,6.6c0,7.68.6,13.32,1.92,17,3.24,9.24,10,13.8,20.28,13.8,10.92,0,18.48-3.36,22.56-10.08a22.48,22.48,0,0,0,2.88-11.76,87.78,87.78,0,0,0-6.6-33.24c-3.24-7.92-8.16-16.56-14.52-25.92-7.08-9.72-11.88-16.56-14.52-20.64-4.44-6.84-6.6-12.36-6.6-16.8q0-8.82,5.4-19.44c4-7.8,9.12-13.8,15.24-17.88ZM385.56,19.92V37.68c0,25.68-.24,41.88-.84,48.6l-8,63.12c-.72,5.76-1.68,14.88-2.88,27.24a189.34,189.34,0,0,1-5.52,28.2,91.06,91.06,0,0,1-38.16,51L322,255.6a42.32,42.32,0,0,1-18.72-27,85.36,85.36,0,0,1-1.44-14.76L302,200a228.16,228.16,0,0,1,1.08-25.8V94.68a35.23,35.23,0,0,1,1.32-7.32v-77l.24-1.68.48-.48,1.2-1.08a9.58,9.58,0,0,1,2.4,6c0,1.08-.12,1.68-.24,1.68l-.36-.36V93.12l-.72,3.24V180c-.72,4.2-1.08,10.8-1.08,20V208a105.05,105.05,0,0,0,1.56,14.88c2.52,13.8,7.8,20.76,15.72,20.76l6.72-.24a86.77,86.77,0,0,0,34.32-48.24,168.42,168.42,0,0,0,4.92-26.4l2.76-26.16L379.2,85.8c1.08-10.8,1.56-26.64,1.56-47.52l-.24-24.48a90.08,90.08,0,0,0-11.28,3.12,22.2,22.2,0,0,0,9.12-7L381,5.64a8.48,8.48,0,0,1,2.76-3.24A105.23,105.23,0,0,1,385.56,19.92ZM566.76,92.4c5.64,3.48,8.4,7.08,8.4,10.68a6.56,6.56,0,0,1-.48,2.88l-1.2,1.68c-2-2.52-5.28-4.92-9.48-7.2s-8-3.24-11-3.24c-14.28,0-24.48,7.68-30.72,22.92l-2.16,6.36c5.64-1.2,16.32-1.92,31.8-2,3.72-.12,6.24.84,7.56,3a6.17,6.17,0,0,1,.84,3.6,8.07,8.07,0,0,1-.36,3.24c-.6.84-1.92,1.44-4.2,1.8-4.2.72-16.56,1.08-37.2,1.08h-.72c-.36,2.52-.6,4.92-.72,7.32a18.49,18.49,0,0,0,1.56,6.24,38.56,38.56,0,0,0,4.92,10Q532.92,174,548.76,174a33,33,0,0,0,28.56-16l1.68,1.68a2,2,0,0,1,.48,1.56c0,4-1.56,8.28-4.56,13-4.56,7.08-11.16,10.68-19.8,10.68-17.64,0-29.88-6.24-36.6-18.72-3.48-6.36-5.16-13.68-5.16-22,0-12.72,1.56-22.8,4.56-30.12,4.44-10.8,13-19.92,25.44-27.24C552.48,86.4,560.28,88.2,566.76,92.4ZM565.68,16a3.68,3.68,0,0,1-.12,2c-.6,1.32-3,2.52-7.44,3.36-8.28,1.68-29.52,3.24-63.72,4.8l.84,9.24v48L495.48,95q0,10.26-1.08,15.12V205a66.59,66.59,0,0,0-1.08,10.56l2.16,59.64c0,21.72-.84,48.24-2.4,79.32-1.8,34.68-3.72,58.08-6,70.2-2.16-1.8-3.36-4.56-3.72-8.28-.36-5.64-.84-9-1.2-10.08q0-.54.72-.36l1,.36,3.48-65.76c1.44-26.64,2.16-48.6,2.16-65.76l-2.16-59.28a91.3,91.3,0,0,1,1.08-16.2V103.68a73.94,73.94,0,0,0,1-10.32l.48-10.8V35.4a31.5,31.5,0,0,1-1.08-8.64l-1.56-.12v-.12l-16.32.6-37.32-.36a12.81,12.81,0,0,1-2.16-7.32,13.37,13.37,0,0,1,2.16-7.32L472,11.4l85.32-4.8c4.68-.12,7.44.36,8,1.2a3.83,3.83,0,0,1,.24,2.16l-.12,3.6Z" transform="translate(-11.04 -2.4)"/></svg>