<svg id="Layer_1" data-name="Layer 1" xmlns="http://www.w3.org/2000/svg" viewBox="0 0 595.57 842.18"><defs><style>.cls-1{fill:#fff;}.cls-2{fill:none;stroke:#fff;stroke-linecap:round;stroke-linejoin:round;stroke-width:0.38px;}.cls-3{fill-rule:evenodd;}</style></defs><rect class="cls-1" x="0.31" y="0.31" width="595.08" height="841.68"/><rect class="cls-2" x="0.19" y="0.19" width="595.2" height="841.8"/><path class="cls-3" d="M115,82.56c17.88,3,31.92,12,42.24,26.88a83.52,83.52,0,0,1,15.36,49.44A122.61,122.61,0,0,1,165.12,201a124.3,124.3,0,0,1-19.44,34.8,91.86,91.86,0,0,1-17.52,17.28l-2.64-5.28.84,6.6a69.57,69.57,0,0,1-33.6,12.84,1306.47,1306.47,0,0,0,11-174.48ZM100.92,95q-4.14,58-9.72,115.68c-1.92,19-3.6,37.92-5.16,57l-4.8-.12a4.94,4.94,0,0,0-1.2,2.52,22,22,0,0,0-.48,5.64,8.62,8.62,0,0,0,1.32,4.08,17.46,17.46,0,0,0,4,2.4q-5.22,60.3-11.52,120.84A372.87,372.87,0,0,0,72,467.28c4.8-6.72,7.32-14.88,7.56-24.6.6-24.6,2.16-49.2,4.92-73.68,3-26.52,5.16-53.16,6.72-79.8l.48-5.88,3.36-.6a109.44,109.44,0,0,0,34-16.2A481.22,481.22,0,0,0,142.44,315q20,60.66,35.52,122.4c2.28,9.12,6,16,11.16,20.64a5.56,5.56,0,0,0,1.56-5.52c-6.72-28-13.92-55.92-21.48-84.12a771.22,771.22,0,0,0-36.36-104.76,128,128,0,0,0,14-12.84,109.14,109.14,0,0,0,24-39.36c10.92-31.08,10.92-61.68-.24-92q-14.4-38.88-53.76-50.16A30.48,30.48,0,0,0,102.72,78c-5.16,5.64-5.76,11.4-2,17.28Zm144.24,11A1096.09,1096.09,0,0,1,240.84,235c-3.84,42.6-6,85.32-6.48,128.4a647.41,647.41,0,0,1-3.6,64.8c-1.2,11.88.12,22.68,4.08,32.4A24.33,24.33,0,0,0,240,445.32c.36-34.2,1.08-68.52,2.4-103q2.34-64.26,7.08-128.4A993.64,993.64,0,0,0,250.2,85.8C246.6,91.44,244.92,98.16,245.16,106.08ZM352.08,88.8c-15.6,2-28.08,9.6-37.32,22.56a82.7,82.7,0,0,0-15.36,41.88A150,150,0,0,0,302,196.56a139,139,0,0,0,15.12,40.92c5.64,10,11.64,19.8,18.12,29.28,7.08,10.44,14.4,20.88,21.72,31.08a140.25,140.25,0,0,1,20.52,40.8,73.75,73.75,0,0,1-.24,45.24A91,91,0,0,1,316.08,444a76.83,76.83,0,0,1-22.8,3l-5.64-4.92,1.2-4.8-8.4-1.68a18.53,18.53,0,0,0-1.2,15.72q36.72,25.56,71.28-10.2a149.26,149.26,0,0,0,29-42.48,87.53,87.53,0,0,0,8-39,125.35,125.35,0,0,0-4.32-28.32A107.53,107.53,0,0,0,374,309.24a83.15,83.15,0,0,0-6.72-10.2l-10.32-13a407.63,407.63,0,0,1-25-35.88,236.52,236.52,0,0,1-24.6-53.76,90.76,90.76,0,0,1-3.12-41.28A72.84,72.84,0,0,1,322,117q29-32.58,55.8-4.68C379.32,94.32,370.68,86.52,352.08,88.8Zm56,117.6A807,807,0,0,0,399.84,334c.12,10.92.48,21.72,1.2,32.52q3.24,46.26,38,76.2a16.44,16.44,0,0,0,13.2,4.08q24.3-2.7,43.2-21.6a71.61,71.61,0,0,1,13.92-10.92q26.46-16,19.32-40.32a2.41,2.41,0,0,0-1,.48,4.32,4.32,0,0,0-1.56,4l-.12,1.56-.36.72a509.76,509.76,0,0,1-56.88,48.48,17,17,0,0,1-16,2.64c-22.56-7.32-36.12-23.16-40.56-47.28A376.92,376.92,0,0,1,406,322c-.36-19.56,0-39.12,1.2-58.56a190.82,190.82,0,0,0,54.72-3.84,11.22,11.22,0,0,0,.6-10l-1.2-2.28-.84-.48-10.2-.6a370.06,370.06,0,0,1-42.48,8.64c.72-9.72,1.56-19.32,2.64-28.92a289.9,289.9,0,0,1,29-97.68,46.84,46.84,0,0,1,21.48-21.6q23.4-11.34,38.52,12.12l1.68.24,1.32.24h.84l.24-.24.12-.72c-5.88-18.12-18-28.32-36.12-30.6A59.48,59.48,0,0,0,438,115.32,276.63,276.63,0,0,0,408.12,206.4Z" transform="translate(0.19 0.19)"/></svg>