<svg id="Layer_1" data-name="Layer 1" xmlns="http://www.w3.org/2000/svg" viewBox="0 0 290.79 209.04"><defs><style>.cls-1{fill-rule:evenodd;}</style></defs><path class="cls-1" d="M246.24,198.72c-2.52,32.64-4.8,65.28-6.6,98a291.21,291.21,0,0,0,6.48,79.32c2.52,11.52,9.72,18.24,21.48,20.16,13.44,2,24.24-2,32.28-12.36a111.61,111.61,0,0,0,23-60.48A512.58,512.58,0,0,0,317.64,196c-.72-.12-1.08,0-1.2.6a534,534,0,0,0-.12,74.64c2,33.48-3.12,65.4-15.72,95.64a40.25,40.25,0,0,1-28.92,12.84,13.24,13.24,0,0,1-10.44-4.08c-12.36-13.56-17.64-30.48-16.08-50.52a1027.16,1027.16,0,0,0,2.16-127.32C246.6,198.12,246.24,198.36,246.24,198.72Zm-60.84,13.2c11.16,12.6,15.36,27.24,12.36,43.68-3,16.92-12.48,28.32-28.2,34.44a45.76,45.76,0,0,1-8.4,2.64l-.6-87a49.66,49.66,0,0,1,22,4.8ZM178.08,194l-14.4.48-3.72.84-.72-3.72-.84,4.44-2,1,.72,8.88a1256.91,1256.91,0,0,1-10.2,145.56,260.29,260.29,0,0,0-1.92,29,56,56,0,0,0,3.36,19.32,565.83,565.83,0,0,0,11.88-89.76l18.24-8.28a614.49,614.49,0,0,0,41.28,98.88q-3.42-51.48-34.56-103.8,25-23,20.52-57.48A73.6,73.6,0,0,0,202,224a58.55,58.55,0,0,0-11.64-19.68A59.42,59.42,0,0,0,178.08,194Zm248.64,94.44A319.9,319.9,0,0,1,422,376.92c-3.48,2.76-7.2,4.08-11,3.72-7.08-5.76-10.8-12.48-11.16-20.28a4.42,4.42,0,0,0-5.4-1.32q-6.3,20.34,13,34.92c9.48,7.2,16.2,4.56,19.92-7.92a203.11,203.11,0,0,0,8.4-62.16q-.54-33.12-3.6-64.08C427.56,267.6,425.76,277.08,426.72,288.48Zm5.16-58.8c-5.88,7.08-6.36,14.64-1.56,22.56l.24-.24,3.12-20.64Zm-1.08-36.12c-15.72-1-31.56-1.2-47.64-.84-14.4.72-28.8,2-43.32,4.08a14.86,14.86,0,0,0-6,2,17,17,0,0,0-1,4.92,12.83,12.83,0,0,0,1.2,6.36l.84,1,41-2.28a57.54,57.54,0,0,0-1.56,13.92q.18,64.62-3.12,129a136,136,0,0,1-1.92,15.84c-2.4,12.12-1.44,22.92,2.88,32.64a23.85,23.85,0,0,0,4.92-20.64l2.76-51.12q2.7-60.66-.36-119.64c17.88-.6,35.76-.84,53.64-.48a12.36,12.36,0,0,0,1.8-4.8,12.91,12.91,0,0,0-1.8-8.88l-.84-.84Z" transform="translate(-144.96 -191.64)"/></svg>