<svg id="Layer_1" data-name="Layer 1" xmlns="http://www.w3.org/2000/svg" viewBox="0 0 291.82 208.56"><defs><style>.cls-1{fill-rule:evenodd;}</style></defs><path class="cls-1" d="M202.2,227.4q16.74,36.54-15,60.84c-9.24,0-18-.12-26.28-.48q1.26-37.8,1.08-75.12c14.64-6.84,27.24-3.6,37.92,9.84Zm118.8-31a9,9,0,0,0-1.2,9.6,15.25,15.25,0,0,0,3.48,5,22.06,22.06,0,0,0-4.92,16.44l.36,2.28q21.42-15.3,2.76-33.36Zm-34.08-1.56q-4.5,61-4,124.92a324.73,324.73,0,0,1-3.12,48.48c-1.68,11.88-.48,22.68,3.72,32.4,3.12-3.24,4.68-7.56,4.8-12.72,1.08-42.84,1.92-85.92,2.76-129A360.45,360.45,0,0,0,287,194.88Zm-97.56,5.64c-8.88-7-18-7.08-27.48-.36l-.6-4.32a579.89,579.89,0,0,0-6.84,72.6l-1,19.08-1.68-.12a16.66,16.66,0,0,0-1.2,11.52,9.77,9.77,0,0,0,1.8,3.72l.24.24q-4,39.6-4.2,79.44a136.08,136.08,0,0,0,1,15.6l.84-.12A379.79,379.79,0,0,0,159,332.52l1.32-28.08a75.72,75.72,0,0,0,27-.84,455.55,455.55,0,0,0,27.6,83,72.28,72.28,0,0,0,3.6,6.72,86.94,86.94,0,0,0,6,8.76q-9.54-50.58-33-100.8a57.49,57.49,0,0,0,18.36-25.8l1.8-5.52a73,73,0,0,0-1.32-41.52,54.39,54.39,0,0,0-10.44-18A82.49,82.49,0,0,0,189.36,200.52Zm211.56,85c19.8,7.08,31,21.48,33.72,43.08a51.13,51.13,0,0,1-11.76,40.92q-14,17.1-36,16.56a51.29,51.29,0,0,1-15.24-3,590.61,590.61,0,0,0,3.6-85,35.77,35.77,0,0,0,22.2-9.48Zm-21.6-77.16,14,.6c16.2,12.12,21.6,27.6,16,46.44-4.08,13.92-13.2,22.8-27.48,26.52a67.13,67.13,0,0,1-6.72,1.44l-1-75,.84,2.16Zm6-11.52-5.4.24-4.8,3-1,.72-.12,1.08-.12-3.24c-3.72,3.24-5.52,7.8-5.52,13.8q.18,36.9-.12,73.56a17.48,17.48,0,0,0-1,7.08,7.93,7.93,0,0,0,.84,3l-.84,45.36a233,233,0,0,1-2,24.24,61.82,61.82,0,0,0-.24,16.92,11,11,0,0,0-2.16,7.32,17.27,17.27,0,0,0,2.4,8.88,21.42,21.42,0,0,0,11,4.32q49.32,4.32,61-42.84A103.59,103.59,0,0,0,438,314c-4.08-18.6-13.92-31.08-29.52-37.2Q427,252,413.88,220.92c-5.88-13.56-15.36-21.72-28.56-24.24Z" transform="translate(-148.44 -194.88)"/></svg>