<svg id="Layer_1" data-name="Layer 1" xmlns="http://www.w3.org/2000/svg" viewBox="0 0 312.79 218.84"><defs><style>.cls-1{fill-rule:evenodd;}</style></defs><path class="cls-1" d="M283.32,303.6q-18.18-33.3,6.12-60.84,26.64,2.34,24.48,32c-1.2,16.92-9.84,27.48-26,31.68ZM290,225.48a78.31,78.31,0,0,0-20,41.88,67.57,67.57,0,0,0,5.52,40.08A25.26,25.26,0,0,0,295,322.56,45.63,45.63,0,0,0,312.6,304.8a67.58,67.58,0,0,0,8.64-39.24,59.15,59.15,0,0,0-19.8-40.2Zm-124.8-20.76q37.26-2.52,42.12,33.36A49.21,49.21,0,0,1,205.2,261c-7.08,20.76-21.72,32.76-44.16,36q.18-46.62-1.08-92.16Zm168-9.72a627.32,627.32,0,0,1-1.56,122.88c-4,35.64-23.88,55.32-59.76,58.8a14.34,14.34,0,0,0-3.12-1.32c-4.2-1.32-7-4-8-8a295.78,295.78,0,0,1-9.6-106.68,258.62,258.62,0,0,0-2.28-63.36,665.26,665.26,0,0,0-5.52,72.24,538.4,538.4,0,0,0,6.24,95.64c3.24,20.76,15.24,29.88,36.12,27.48a148.71,148.71,0,0,0,19.08-8.4,34.12,34.12,0,0,0,13.8-13.56,188.25,188.25,0,0,0,22.92-83.52c1-21.36,1.32-42.72,1.2-64.2-.12-12-2.52-22.32-7.2-31.08l-.12.12-1.2.72-.6.72A4.14,4.14,0,0,0,333.24,195ZM199.8,204.6l-6.6-8.4a51.42,51.42,0,0,0-33.6-3.72l-3.24.72a514.06,514.06,0,0,0-3.6,102,18.61,18.61,0,0,0-1.92,14.4,6.27,6.27,0,0,0,1.68,2.4q-8.28,45.54-.6,86.76c6.6-26.16,9.72-54.36,9.12-84.6l20.28-5.88a233.53,233.53,0,0,0,45.12,94.56,487.27,487.27,0,0,0-38.76-98.28Q217.74,281,214.2,241.2a70.11,70.11,0,0,0-8.88-28C203.52,210.24,201.72,207.36,199.8,204.6Zm257.64,18.72-1.56-31.68A279.36,279.36,0,0,0,452,280.56L409,284.64l3.6-86.76c-6.12,10.68-9.36,25.2-9.48,43.44l-.48,41.76-1,32.28L400,347.52a201.12,201.12,0,0,1-4.32,31.68c-2.76,12.12-.6,22.44,6.48,30.84,5.52-21,7.8-43.56,6.84-67.44-.6-15.48-.84-31.08-.48-46.56l43.68-.12c-1.32,31.2-2.16,62.4-2.28,93.72a36.34,36.34,0,0,0,3,14.64,370.09,370.09,0,0,0,8-84.48Q459.84,271.56,457.44,223.32Zm-90.12-13.08a82.32,82.32,0,0,0-4,43.08,133.22,133.22,0,0,0,13.92,40.92A102,102,0,0,1,389.64,337c1,16.68-5.64,29.16-19.68,37.44-10.92,6.36-21.72,5.64-32.28-2.16a17.11,17.11,0,0,0-1.08,16.32,39.49,39.49,0,0,0,27,12.36Q401,381.3,396.24,338.64a192.67,192.67,0,0,0-13.92-53.4,312.34,312.34,0,0,1-13.08-37.32,54.53,54.53,0,0,1,1.92-36l1.44-3.24,17.52.72Q378.42,179.34,367.32,210.24Z" transform="translate(-148.21 -191.2)"/></svg>