<svg id="Layer_1" data-name="Layer 1" xmlns="http://www.w3.org/2000/svg" viewBox="0 0 498.41 473.4"><defs><style>.cls-1{fill-rule:evenodd;}</style></defs><path class="cls-1" d="M190.68,376.08c-1.32,42.6-3.24,85.32-6,128.16-.84,12.36.72,23,4.68,32.28a310.5,310.5,0,0,0,4.56-48.36c.36-16.2,1.08-32.4,1.92-48.6,2.28-43.08,3.12-85.68,2.4-127.56A341.9,341.9,0,0,0,190.68,376.08ZM138.36,198.36q-8.82,51.48-51.72,79.32L68.16,279l1.68-23.88Q74,191.22,81.36,127.68A264.5,264.5,0,0,0,83,90.36a38.7,38.7,0,0,1,20.52-1.92q26.46,20.7,33.6,54.12A145.6,145.6,0,0,1,138.36,198.36ZM101.64,78.24a27.75,27.75,0,0,0-19.08,2.88v-.24L79,84.48l.6,7.2q-11.7,92.52-16.2,186.6-9.9,115.56-21,233.76A38.6,38.6,0,0,0,43,523.8l.84,3.6,1.08,3.6L46,534.36Q59.1,413.58,67.32,291.84c13,2.52,24-1,33.24-10.44q23.76,125.64,48.6,251a41.51,41.51,0,0,0,3.6,10.68l1.68,3.12a2346.51,2346.51,0,0,0-51.12-267.6,156.58,156.58,0,0,0,34.08-59.4c1.2-3.72,2.28-7.56,3.12-11.4l.84-3.72.72-3.84.6-4,.48-4a161.05,161.05,0,0,0,.36-38.76l-1.2-8.88-1.08-5.88-.72-2.88L139,130.44l-1.8-5.52a73.06,73.06,0,0,0-4.44-10.56,112.51,112.51,0,0,0-28.56-35.88Zm139.2,75.6a95.63,95.63,0,0,0,8.52,21.24q-8.1,29.34-16.68,58.56c-2.16,7.56-4.56,14.88-7.2,22.08-5.88,16.2-7.44,31.8-4.68,46.56q10.62-32.58,19.56-66.72l32.76-124.2c3-11.4,4-21.6,2.88-30.72A169.25,169.25,0,0,0,266,110q-7,29.52-15,58.8a699.4,699.4,0,0,0-31.08-96c-.12,12.36,2.28,25.44,7.32,39.24S236.88,139.92,240.84,153.84ZM202,81.72c-1.56,18.36-2.88,37-3.72,55.68l-1.56,42.12a50.42,50.42,0,0,0-29.4,4.08q.9-50.4.72-99.48a266,266,0,0,0-6.36,62Q162.36,210.78,157,275c-.84,10,.84,17.64,4.8,23.16q3.78-42.48,4.8-85.8L167,191l29.28-.72c-.84,25.32-1.56,50.64-1.92,76.2A113.76,113.76,0,0,0,198,298.8a129.35,129.35,0,0,0,5.16-44.52c-.72-14.88-.72-29.76,0-44.52a1143.36,1143.36,0,0,0-.48-128.28C202.2,81.36,202,81.36,202,81.72Zm178,10.08.24-5.16a107.33,107.33,0,0,0-7.2,27.48q-8.46,63.18-21.6,125.16a587.38,587.38,0,0,1-16.8,62.64l-.72,2.4q-3.78-47-8.4-94.56c-4-40-9-79.44-15.36-118.56l.84-10.56-1.8,4.56L308.76,83l-.6,4.44a235.15,235.15,0,0,0-12,46.44q-9.9,62.82-22.08,125.16Q262,321.9,248.28,384.24,234.42,447.42,218,509.64c-3.24,11.88-2.88,22.32,1.08,31.2a77.38,77.38,0,0,0,7.56-20.64q12.6-62.64,26-125.28T278.4,269.64q12.42-62.82,24.24-125.52,3.6-18.9,5.76-37.44l1.08,8.16c1.8,11.4,3.36,22.92,4.92,34.56q8.28,63.36,11.52,127.68l1.56,32.52c.48,12.12,3.12,22.32,7.8,30.6a5.81,5.81,0,0,0,1.08-3.24l-.48-6.12a250.06,250.06,0,0,0,7.68-27.48l19.92-90.6A772.43,772.43,0,0,0,378.36,113c3.84,38.28,8.4,76.32,13.8,114.36l4.44,31.32,17,126.84c5.64,42.12,10.44,84.48,14.64,126.84q1.8,18,10.08,31a2.9,2.9,0,0,0,1.68-3,364.43,364.43,0,0,0-3.36-37.44Q428,439.38,418,376.44L413,345c-6.6-42.12-12.36-84.48-17-126.84q-7.2-63.9-15.84-126.72Zm160.2,28.08c-9-21.48-25.32-32.52-48.72-33.24q-23.58,15.84-30.84,44.4a509,509,0,0,0-15.24,124.68c0,43.32.72,86.28,2,129.12A964.78,964.78,0,0,0,460,511.32c1.56,9,6.48,14.64,15,17,17.28,4.68,30.24-.84,39-16.8a157.69,157.69,0,0,1,15-22.32c10.2-12.6,12.36-24.36,6.72-35.28a73,73,0,0,1-11.76,14.28,44.47,44.47,0,0,1-4.92,4,4.86,4.86,0,0,0,4.56-1.92,7,7,0,0,1,4.2-2.28l-.12.36-4,6.6c-4.08,7-7.92,14-11.64,21.12-6.6,12.84-16.8,18.84-30.84,17.88-11.88-.84-18.36-7.2-19.68-19.08q-4.14-39.6-6.72-79.68-3.6-57.42-4-115.68a155.53,155.53,0,0,1,43.2-4.8l.48-.6c2.52-4.56,2.28-8.88-.48-13a89.78,89.78,0,0,0-43.32,7v-2q.18-59,4.8-117.12c2.28-28.32,14-51.24,35.52-68.88a34.67,34.67,0,0,1,12.36,1.8,79,79,0,0,1,36.36,23.4A6.14,6.14,0,0,0,540.12,119.88Z" transform="translate(-42.17 -72.84)"/></svg>