<svg id="Layer_1" data-name="Layer 1" xmlns="http://www.w3.org/2000/svg" viewBox="0 0 595.57 842.18"><defs><style>.cls-1{fill:#fff;}.cls-2{fill:none;stroke:#fff;stroke-linecap:round;stroke-linejoin:round;stroke-width:0.38px;}.cls-3{fill-rule:evenodd;}</style></defs><rect class="cls-1" x="0.31" y="0.31" width="595.08" height="841.68"/><rect class="cls-2" x="0.19" y="0.19" width="595.2" height="841.8"/><path class="cls-3" d="M122.16,172.68c11.64,11.76,15.6,25.68,11.76,41.88-3.72,15.72-12.24,27.6-25.8,35.76a60,60,0,0,1-28.32,8.52,577.26,577.26,0,0,0,1.08-95.52C96.84,157.92,110.52,161,122.16,172.68ZM77.88,160.44q-4,41.22-5,82.8l-3.48,129c-.24,6.6-1.32,11.4-3.12,14.16q-4.32,13.5,3.6,23.76a5.07,5.07,0,0,0,1.92-3.24,840.49,840.49,0,0,0,6.6-94.08L79.2,275a25.4,25.4,0,0,0,18.48-1.56l6.24-3.24.12.48a668.77,668.77,0,0,0,42.84,117.84,132.77,132.77,0,0,0,17.28,28.08,6.91,6.91,0,0,0,2-5.64,99.07,99.07,0,0,0-12-38.16,605.48,605.48,0,0,1-45.48-105.6,70.47,70.47,0,0,0,15-14.28q33.12-42.66,6.36-89.28l-1.08-1c-7.8-10-17.88-14.88-30.48-14.76l-6.6,1.32L79.56,152c-.6.12-.84.24-.84.36l-.12.84a5.72,5.72,0,0,0-.84,2.64A19.34,19.34,0,0,0,77.88,160.44Zm168,48.36q29.7,25.2,31.32,65.52,1.62,33.84-20.52,59-20.88,23.58-51.36,16.56a16.28,16.28,0,0,1-10-6.48c-16.2-22.44-22.8-48.12-19.56-76.92,1.08-10,2.4-19.8,4.2-29.52,4-22.2,16.68-33.72,38-34.8l21.6,2.16A48.43,48.43,0,0,1,245.88,208.8Zm-58.56-3.48q-28.62,59.94-11.52,125a52.69,52.69,0,0,0,12,22.2q28.26,30.6,63.36,5a48,48,0,0,0,14.16-15.72Q296.46,288.06,276,229a75.18,75.18,0,0,0-18.48-29.4q-21.6-21.06-54.12-16.92v.12l-1.08.12-3.12.36-.6.24a24.48,24.48,0,0,0-6.72,9.6,16.52,16.52,0,0,0-1.08,4.68,15.42,15.42,0,0,1-.84,4.08A10.71,10.71,0,0,0,187.32,205.32Zm179-13.44.48,5.4,6.48-7.08a12.83,12.83,0,0,1,8.76,2.16,33.65,33.65,0,0,1,4.56,3.84l-.48-3.72c24,10,36.84,30,38.4,59.88a122.78,122.78,0,0,1-9,52.56,111.26,111.26,0,0,1-17,28.92,69.39,69.39,0,0,1-20.16,16.68c-13.8,7.56-27.48,7.8-40.92.48q-26.82-14.58-32-46.08a110.18,110.18,0,0,1,8.76-66.12,126.39,126.39,0,0,1,16.44-26.64,54.72,54.72,0,0,1,20.16-16A51.24,51.24,0,0,1,366.36,191.88Zm7.8-17.64a18.46,18.46,0,0,0-5.4,5.16,80.53,80.53,0,0,0-32.52,15.36,91.63,91.63,0,0,0-29.16,40Q286,290.34,309.72,344c5.76,13.08,15.48,22.08,29,27,18.6,6.6,35.52,3,50.52-10.8A139.21,139.21,0,0,0,416.4,325.8a122.18,122.18,0,0,0,16.08-70.56A173.91,173.91,0,0,0,423,209c-7.32-20.76-21.36-33.24-42-37.2A17.36,17.36,0,0,0,374.16,174.24Zm168.36-20.88-.84-1-76.32-1.68c-1.32-2-2-1.92-2.4.6a528.23,528.23,0,0,0-3.72,92.76c1.56,35,1.68,70,.12,104.88-.36,8.16-1,16.32-2,24.48l-2.16,16.2-2.52,15.84a40.32,40.32,0,0,0-.72,7.56,17.47,17.47,0,0,0,1.44,7.68,13.6,13.6,0,0,0,6.12,7.56,29.77,29.77,0,0,0,2.64-10.8q4.14-70,3.24-140.16a183.63,183.63,0,0,0,26.88,1.56,166,166,0,0,0,27-3.12l1-2.88.48-2,.12-1.92v-2a13.16,13.16,0,0,0-2.88-7.32A198.06,198.06,0,0,1,491.4,263a190.37,190.37,0,0,1-26.16.36l1.56-100.08,76,3.6.72-1.2.48-1.44.36-1.56V159.6A9.55,9.55,0,0,0,542.52,153.36Z" transform="translate(0.19 0.19)"/></svg>