<svg id="Layer_1" data-name="Layer 1" xmlns="http://www.w3.org/2000/svg" viewBox="0 0 293.11 221.68"><defs><style>.cls-1{fill-rule:evenodd;}</style></defs><path class="cls-1" d="M308.16,388.56c.72-21,1.2-42.12,1.56-63.36q.9-65.34-3.24-129A523.93,523.93,0,0,0,303,277.08a922,922,0,0,1-1.92,96.48c-.84,12.12.72,22.8,4.68,31.8a24.78,24.78,0,0,0,3.72-14.64l-.24-.84ZM201.84,278.64c-10.92,12.84-23.64,19.68-38.28,20.52,1.08-31.8,1-63.48-.24-94.8a49.7,49.7,0,0,1,24.48-4.68c26.16,13.08,34.44,33,24.84,60A60.4,60.4,0,0,1,201.84,278.64Zm.36-81.72a52.35,52.35,0,0,0-17.16-8A18.93,18.93,0,0,0,169,191a27.89,27.89,0,0,0-6,5.28l-.48-1.68a448.18,448.18,0,0,0-5.16,66.6c-.12,11.4-.36,22.68-.84,34.08l-5.52,1a19.71,19.71,0,0,0-.84,17.4l.84,1.08,1.08,1,3.24.12a269.22,269.22,0,0,0-2,90.36,13.82,13.82,0,0,0,1,3.48L163,315.36A70.43,70.43,0,0,0,193.44,302l1.92-1.44a258.42,258.42,0,0,0,36.72,89.28,90.92,90.92,0,0,0,9.24,12.24q-6.84-34.38-24.48-69.12L205,309.24l-5.88-11.76a66.35,66.35,0,0,0,18.72-30.6,99.11,99.11,0,0,0,2.4-10.32,74,74,0,0,0-6.48-46A35.28,35.28,0,0,0,202.2,196.92Zm171.72-.24-2.76,2.88-2.4,2.88.84,6.48q23.58-6.66,42.84,8.28c13.08,10.2,18.36,23.28,15.6,39.24-2.76,16.44-12,28-27.48,34.56a76,76,0,0,1-28.32,5.76l-5-3.72-1.44-97.44q-6.3,90.9-8.16,182.52a55.2,55.2,0,0,0,4.44,22.8A632.54,632.54,0,0,0,367.2,308a60.14,60.14,0,0,0,31.2-3,321,321,0,0,0,43.2,93.72q-9.36-48.24-37.92-96.12a55,55,0,0,0,31-62.52,63.76,63.76,0,0,0-19.2-33c-12.6-11.64-26-15.36-40.44-11.16Z" transform="translate(-148.49 -188)"/></svg>