<svg id="Layer_1" data-name="Layer 1" xmlns="http://www.w3.org/2000/svg" viewBox="0 0 522.8 443.41"><defs><style>.cls-1{fill-rule:evenodd;}</style></defs><path class="cls-1" d="M74.16,73.92a5.16,5.16,0,0,0-2.88,2.16l-.36.24-.24.84a13.21,13.21,0,0,0-.6,4.8l.12,1L70,89q-1.44,63.9-6.36,127.44c-3.24,42.6-6,85.32-8,128.16A1131.37,1131.37,0,0,1,42.72,469.2q-.9-2.88-1.44.72c-1.44,10-.36,18.84,3.12,26.64A2.67,2.67,0,0,0,45.48,495,666.29,666.29,0,0,0,60,394.56q4-57.24,7.44-114.72c13.44.48,25.56-1.92,36.48-7.2a186.14,186.14,0,0,0,6.48,47.16q16.38,61.74,31,124c2.52,10.56,4.56,21.24,6.36,31.92,2,11.88,6,21.72,12.12,29.52a4.18,4.18,0,0,0,1.44-4c-6.24-38-14.28-76-24.12-114L107,271c9.36-5.28,17.64-12.84,25-22.8q40.32-54.54,25.32-121.68Q146,75.72,96.36,67.92a40.06,40.06,0,0,0-9.6,1.92,86.59,86.59,0,0,0-12.48,4.8ZM130.68,97.8q42.48,58.14,7.68,121.56-23.4,42.48-70,44.88,3.78-63.18,8.76-126.12a256.17,256.17,0,0,0-1-50.88l.12-.12a40.56,40.56,0,0,1,26-5.64C114.24,82.8,123.72,88.2,130.68,97.8Zm52,.36a144.55,144.55,0,0,0-7,34.08l-3.6,45a317.23,317.23,0,0,0-.36,42.72,212.34,212.34,0,0,0,7,42.36c1.32,5.16,2.88,10.32,4.44,15.36l7.32,5.64c14.52-2.76,25.44-11.16,32.76-25.44a91.74,91.74,0,0,0,9.72-31.68c1.2-9.72,2.28-19.56,3.12-29.52a446.19,446.19,0,0,0,1.08-53.76A151.94,151.94,0,0,0,227,93.48,121.1,121.1,0,0,0,221,80L217.56,79C201.48,70.44,189.84,76.92,182.64,98.16Zm33.48-6.48,1.44,4.08,1.8,1.68A262.7,262.7,0,0,1,229.8,167a257.87,257.87,0,0,1-2.64,39.72c-1.56,10.68-3.36,21.24-5.4,31.8-2.28,12.12-8.88,20.76-19.68,25.68a22,22,0,0,1-11.4,2L184.2,259A533.76,533.76,0,0,1,181,136.8a84.16,84.16,0,0,1,5.64-23.52,100.48,100.48,0,0,1,11.52-20.76l2.4-3.24,12.72-.48Zm115.8,3.72c.84-1.08,1.56-1.44,1.92-1.2.12,25.08,1.08,50,3,74.64a1116,1116,0,0,1,2.64,128.28,721.33,721.33,0,0,1-16.2,128.52q-8.28,38-35.4,63.84H268.44c-9.6-6.24-14.76-15.36-15.36-27.36A1113.78,1113.78,0,0,1,253.2,334c2.52-42.84,4.92-85.56,7.08-128.4A1233.55,1233.55,0,0,0,260,77.4c-2.88,5.16-4.32,11.4-4.44,18.72q-.36,61.56-3.24,123.24-3.06,64.26-7.44,128.28a701.55,701.55,0,0,0,2.88,129.12c2.76,23.16,16.2,33.48,40.56,30.84a55.35,55.35,0,0,0,16.56-18.36A288.56,288.56,0,0,0,339,390.48,833.17,833.17,0,0,0,348.12,262c-.24-43.08-1.92-85.92-4.92-128.28a208.6,208.6,0,0,1,0-32.4q1.26-15.48-6.84-23.4A52,52,0,0,0,329.52,104a33.25,33.25,0,0,1,1.32-7.68Zm93.72,4.2a39.17,39.17,0,0,1,11.64,18.84,58.77,58.77,0,0,0,7,16.08l.72-.24a5.23,5.23,0,0,0,1.8-3l.24-.84a75.52,75.52,0,0,0-2.4-14.88q-9.72-38-49.56-38.4a26.75,26.75,0,0,0-10.32,9.12c-13.8,20.16-19.68,43.2-17.88,69a309.49,309.49,0,0,0,33.6,119.88,423,423,0,0,1,41.4,123.6,77.88,77.88,0,0,1-2.4,37.56,106.84,106.84,0,0,1-21.24,38.16,47.23,47.23,0,0,1-28.08,16.08q-31.14,5.76-36-24.6c-1.44-9-4.44-16.68-8.88-22.8l-2.4,1.32c-.36.24-.48-.24-.36-1.56v-.84q-2.16,11.7,1.08,29.52a55.09,55.09,0,0,0,17.64,31.68c8.76,7.8,18.36,10,29,6.36a78.79,78.79,0,0,0,41-31.56,90.56,90.56,0,0,0,10.08-19.8c10.68-29.28,11.76-59.16,3-89.52a746.9,746.9,0,0,0-47.52-122.88A242.49,242.49,0,0,1,372,150.48c-1.2-23.88,6.36-43.2,22.8-58.2l13.56.6A39.78,39.78,0,0,1,425.64,99.6ZM553.92,127c.84-15.12-4.8-28.32-17.16-39.72A121,121,0,0,0,521.16,75l-12.48-.36q-33.12,20.16-37.08,61A2324.79,2324.79,0,0,0,461,407a410.43,410.43,0,0,0,8.4,76.2,19.26,19.26,0,0,0,7.08,11.28,30.93,30.93,0,0,0,6.36,3.84,39.18,39.18,0,0,0,6.6,2.4L491,501l1.56.24,1.56-.12h1.56l1.56-.24,1.44-.36,1.56-.48A72.89,72.89,0,0,0,524,486.6q31.14-26.46,38.88-66.36a24.5,24.5,0,0,0-3.36-18.48l-3.24,3.6-7.92-2.28,6.72,6.12c-3.48,25.08-14.52,46.56-33.12,64.68A33.64,33.64,0,0,1,495.84,484a26,26,0,0,1-17.28-6.36A977.59,977.59,0,0,1,472,283.8a138.27,138.27,0,0,1,37.92-7.08c2.76-4.08,3-8.16.48-12.24a8.53,8.53,0,0,0-2.76-3.12,82.73,82.73,0,0,0-35.28,9.84q-7.38-83.16,18-160.8a95.56,95.56,0,0,1,4.32-11q20-16.74,37.08,2.16a238.13,238.13,0,0,1,18.72,23.64A4.54,4.54,0,0,0,553.92,127Z" transform="translate(-40.66 -67.92)"/></svg>