<svg id="Layer_1" data-name="Layer 1" xmlns="http://www.w3.org/2000/svg" viewBox="0 0 534.1 434.22"><defs><style>.cls-1{fill-rule:evenodd;}</style></defs><path class="cls-1" d="M199.68,380.4l-.6,1.56-1.92-81.6a377.77,377.77,0,0,0-3.6,44.4c-.36,14.76-.36,29.52.24,44.28.6,15.84.48,31.56-.36,47.28a44.19,44.19,0,0,0,2.4,16.32,51.86,51.86,0,0,0,4.08-17.52c.36-8.52.48-17.28.12-26.16l-.12-18.72,30.6,2.52q-.54,41.76-2.4,83.64a50.66,50.66,0,0,0,1,12,55.39,55.39,0,0,0,3,10.8,4.75,4.75,0,0,0,2.64-3.24c1.44-7.8,2.16-18.84,2-33.36l.12-76.56A755.75,755.75,0,0,0,233,303.36l-2.28,76.08a63.49,63.49,0,0,0-26.88-.24A16.85,16.85,0,0,0,199.68,380.4ZM286,300.84l-2.4-.24q-34.74,57.6-25,130.92l6.48,48.84a26.48,26.48,0,0,0,9,16.56,20,20,0,0,0,5.4,3l4.08,1.68q38.34-16,30.6-52.2c-7.08,18.12-19.08,29.88-35.76,35Q262.74,449,268.32,408.12l29.88-2.28a12.82,12.82,0,0,0,1.32-12.6l-1-2a64.65,64.65,0,0,0-30.12,3.24q-9.54-46.26,16.32-75.24a10.65,10.65,0,0,1,9.36-3.36,4.87,4.87,0,0,0,3.6,3.36c.72.12,1.2-.24,1.32-1.08C301.08,307.56,296.76,301.8,286,300.84ZM113.64,100.92a34.7,34.7,0,0,0,3.6,7q28.62,45,7.08,92.64-22.68,50-73.32,62.16c1.8-18.24,4-36.48,6.36-54.72a1155.92,1155.92,0,0,0,9.12-121.2,62,62,0,0,1,36.36,4.44A3.84,3.84,0,0,0,104.76,94,94,94,0,0,1,113.64,100.92ZM90.36,74.4c-9-1.32-17.28-.24-24.84,3.48a16.83,16.83,0,0,0-.72,4.92v.6q-7.38,60.48-14,121.32L44.52,264l-.72.12a13.72,13.72,0,0,0-1.68,6.48,12.73,12.73,0,0,0,1.2,5.52l-5,56q-5.4,63.54-10.2,127.44a141.49,141.49,0,0,1-2,16c-2,12-1,22.8,3.24,32.52A174.81,174.81,0,0,0,37,463c1.8-42.6,4.32-85.2,7.44-127.56,1.44-19.56,3.12-39.12,5.16-58.68a81.66,81.66,0,0,0,33-10.68,807,807,0,0,0,44,107.52c2.4,4.8,4.92,9.48,7.44,14a793.17,793.17,0,0,1,54,117,3.68,3.68,0,0,0,3.48,1.92,3.46,3.46,0,0,0,2.16-3.72A136.07,136.07,0,0,0,175,444.36q-20.52-34.74-37.92-71-26.28-54.9-51.48-109.2a92.67,92.67,0,0,0,23.16-21.48,145.19,145.19,0,0,0,22.8-42.72Q150.78,141.24,116,90.12l-1.2-1A50.41,50.41,0,0,0,90.36,74.4ZM214.2,94.2A80.14,80.14,0,0,1,227.28,91l3.72.72,3.6,1.08a3.44,3.44,0,0,0,1,2.52,111.93,111.93,0,0,1,30.6,40.8,140.38,140.38,0,0,1,10.2,33.48q11.34,63.9-42.84,98.64c-24.24,10.68-43.08,5.88-56.64-14.16Q153.66,216.42,160,170.28c4.44-33.36,21-58,49.44-73.68l.84-.84L211,95ZM184,101.52Q147.42,149,153.12,210.36a115.53,115.53,0,0,0,23.76,60.84C191.52,290,210.24,294,233,283.32q29.88-13.86,40.68-44.52Q296,175.44,268.32,114q-13.5-29.52-43.2-36.12A61.51,61.51,0,0,0,200,87,60.33,60.33,0,0,0,184,101.52ZM399.6,304.2q2.16,47.7,1.32,96.48c-.6,30.6-10.08,57.12-28.68,79.56-9.48,1.8-15.6-1.8-18.12-10.92a119.86,119.86,0,0,1-4-41.4,786.73,786.73,0,0,0,.72-128,107.64,107.64,0,0,0-4.2,32.16q.18,63.36-3.12,126.6c-1.08,17.88,5.88,30.6,20.76,38.28,3,1.56,5.64,1.2,7.92-.84q27.36-25.2,31.56-64a695,695,0,0,0,2.28-128.28ZM352.8,80.88a29.73,29.73,0,0,0-16.92,8.28c-21.72,20.76-34.68,46.08-39,76.2a315,315,0,0,0-2.88,62q1.8,32.22,26.88,50.4,18.54,13.5,41,6.48,44.64-14,52.92-61.8,11.34-65.7-25.08-122.28C381.72,87.6,369.36,81.12,352.8,80.88ZM364.68,95l-6.36,6,10-2.52a16.2,16.2,0,0,0,10.44,7.8l1.68.24a156.61,156.61,0,0,1,28.8,66,99.52,99.52,0,0,1-.48,37.68,90.85,90.85,0,0,1-21.12,41.88q-18.9,21.06-47.28,17.28c-18.84-2.28-30.48-12.24-34.92-30.12a171.46,171.46,0,0,1-3.12-67.68,124.63,124.63,0,0,1,10.08-33.36,133,133,0,0,1,22.32-33.36c7.92-8.52,17.64-12,29.28-10.2Zm99-7.2q-9,55.26-14.76,111c-4.44,42.36-9.48,84.48-15,126.6q-8.46,63.9-21.84,126.72l-.12-.36-.12-3.24c-1,6.36-2.76,14.28-5.28,24-2.88,10.8-1.8,19.56,3.36,26.16a186.31,186.31,0,0,0,9.84-33.84q11.7-62.82,20-126t15.48-126.72c4.8-42.6,8.28-84.72,10.32-126.6A2.24,2.24,0,0,0,463.68,87.84ZM531.24,149a240.81,240.81,0,0,0-11.4-62.88l-.12-1.2q-1.08-.18-1.44,1.08c-9.12,37.56-17.64,75.36-25.44,113.64L482,250.8c-.48-12.6-1.44-25.2-2.76-37.92-4.68-42.6-8.76-85-12.24-127.32h-.6a566,566,0,0,0,4,112A267.7,267.7,0,0,1,472.8,230a281,281,0,0,0,7.68,63.84q1.08-.72,1.08-1.44v-1.32l.84,1.68c4-16.8,7.44-33.84,10.56-51q11.34-62.46,24.6-124.92A107.79,107.79,0,0,0,520,101q3.06,43.74,7,88.44,5.76,63.72,13.32,127.2a1165.77,1165.77,0,0,1,7.92,125.76,88.39,88.39,0,0,1,1,25.8c-1.2,11,.84,19.68,6.12,25.8a64.62,64.62,0,0,0,3.84-25.2q-2.16-64.62-9.84-128.16T535.8,213.24C533.88,191.88,532.32,170.52,531.24,149Z" transform="translate(-25.04 -73.86)"/></svg>