<svg id="Layer_1" data-name="Layer 1" xmlns="http://www.w3.org/2000/svg" viewBox="0 0 342.82 358.38"><defs><style>.cls-1{fill-rule:evenodd;}</style></defs><path class="cls-1" d="M154.08,143.88q-10.44,49.68-55.8,72.84l4.56-75.6c1.08-19.08,1.32-37.68.6-55.8,25.8-2,42.24,9.24,49.56,33.72A48.44,48.44,0,0,1,154.08,143.88Zm-52.8-64.2-2.76,1.2a4.63,4.63,0,0,0-.36,2.52L98.28,85l.24.84h.36a29.86,29.86,0,0,0-1.44,8.28l-3,55.2c-2,42.6-4.2,85.44-6.48,128.28s-6.12,85.56-11.52,128c-1.32,9.84.24,17.64,4.44,23.52a136.25,136.25,0,0,0,6-31.44q4.68-64.08,8.28-128.4l2.4-40.08a107.38,107.38,0,0,0,19.56-10.92l.48,2q19.8,61,43.68,120.12a422.59,422.59,0,0,1,19.32,60.12,82.75,82.75,0,0,0,12.6,28.8,3.27,3.27,0,0,0,1.2-3,449.51,449.51,0,0,0-27.72-97.08Q143.1,272,121,215.52a106.35,106.35,0,0,0,22.8-25q34.56-51.12.12-102.6l-1.08-.72a59.8,59.8,0,0,0-30.24-10.08l-5.4.72-4,1.08-.12-2.16Zm124.92,50a185.59,185.59,0,0,0-7,60,1153.91,1153.91,0,0,1-1.8,128.88c-.6,10.2,1.32,18.12,6,23.76q1.26-41.58,1.68-84.48c.36-43.56.84-86.4,1.56-128.28Zm43.92-23.88q1.26,63.54.72,127.44c-.12,21.72-1.32,43.32-3.48,64.8Q261.06,362.7,257,426.36a844.59,844.59,0,0,0,149.4,8.4c3.48-5.16,3.48-10.56,0-16a625,625,0,0,1-142.68-7.32c1.8-24.36,4.08-48.6,6.84-73a1048,1048,0,0,0,6.12-129.12c-.6-43.08-1.92-85.8-3.72-128.16A87.64,87.64,0,0,0,270.12,105.84Zm127.56-14.4A64,64,0,0,0,363.6,82c-27.48,11.64-44.88,32-52.44,61.2-3.48,13.32-6.36,26.64-8.88,40.08A573.1,573.1,0,0,0,293,310.44q1.44,37.62,26.76,63.36,20.16,20.52,48,14a41.22,41.22,0,0,0,20.88-11.76c19.32-20.52,29.4-44.4,30.12-71.88l-1.08-.48a1.24,1.24,0,0,0-1,.48l-.84.72-.84.84-4.32,17.4c-5.88,24.12-20.28,40.8-43.08,49.8a27.48,27.48,0,0,1-19.8.6q-38-12.78-43.92-49.68a395.06,395.06,0,0,1-3.6-93.72l.24.72a256.19,256.19,0,0,1,77.64,6.72,9,9,0,0,0,2.16-5.4,15.35,15.35,0,0,0-.12-4.08,11.09,11.09,0,0,0-1-3.24l-.48-.84-.6-.48A293.25,293.25,0,0,0,328,219.24a6.72,6.72,0,0,1-3.24.36,55.79,55.79,0,0,0-23.52,2c.84-8,1.8-16.2,3.12-24.36l3.84-23.88q5.76-34.74,28.92-60a41.61,41.61,0,0,1,16.08-11q37.62-13.86,61.56,18.36c2.52-5.16,1.92-10.32-1.68-15.36a59.36,59.36,0,0,0-13.2-13.08A8,8,0,0,1,397.68,91.44Z" transform="translate(-75.98 -76.8)"/></svg>