<svg id="Layer_1" data-name="Layer 1" xmlns="http://www.w3.org/2000/svg" viewBox="0 0 302.33 211.08"><defs><style>.cls-1{fill-rule:evenodd;}</style></defs><path class="cls-1" d="M302,401.88a507,507,0,0,0,4.44-77.76L304.32,196a451,451,0,0,0-6.84,77.88c-.12,43.08.84,85.8,3.12,128.28Zm-83.4-140.52c-4.44,16.56-14.88,27.24-31.2,31.92a72.89,72.89,0,0,1-21,2.4l-.72-86.76c14.88-6.36,28.44-3.24,40.68,9.24Q225.3,237.24,218.64,261.36Zm-20.52-60.84a71.85,71.85,0,0,0-19.56-8.16l-8,3.72-5.28,3.48-.72-8a589.05,589.05,0,0,0-5.64,79.32c0,6.84-.36,13.8-1,20.64-1.92.6-3,2.16-3.36,4.44-.6,4.44.72,8,4.2,10.56a815.91,815.91,0,0,0-5.4,96l.12.12a345.86,345.86,0,0,0,12.12-82.8l.36-10c12.6,3.24,24.36,1.2,35.28-6.36q5.94,45.72,33.48,84.6l4.44,6a59.24,59.24,0,0,0,6.72,7.68q2.34-18.18-8.28-36l-6.48-11a404,404,0,0,1-21-41.28l-5.28-12.24A49,49,0,0,0,225,276.36l1.2-3.6a58.19,58.19,0,0,0,1.92-16.44A71.78,71.78,0,0,0,209.76,210,46.89,46.89,0,0,0,198.12,200.52Zm253.2-6a112,112,0,0,0-10.44,13q-36.54,52.74-75.24,103.8l-2,2.88q.72-60.3-1.8-119a427.28,427.28,0,0,0-6.12,75.72c.12,43-.48,85.68-2,128.28q.54,2.88,3.24,2.16a8.81,8.81,0,0,0,2.16-4.8c2.16-19.32,3.6-39.12,4.2-59.28a163.78,163.78,0,0,1,8.88-14.64c3.24-4.92,6.6-9.6,10.32-14.28L400,285.84a507.06,507.06,0,0,0,18.12,60.6,205.58,205.58,0,0,1,7.32,25.44,96.85,96.85,0,0,0,11.28,28.8,6,6,0,0,0,1.8-6.24,554.66,554.66,0,0,0-35.28-112.8A863.44,863.44,0,0,0,455,203.52l.36-1.68a6.7,6.7,0,0,0-.84-5.64l-.6-.6Z" transform="translate(-153.35 -191.52)"/></svg>