<svg id="Layer_1" data-name="Layer 1" xmlns="http://www.w3.org/2000/svg" viewBox="0 0 450.57 352.56"><defs><style>.cls-1{fill-rule:evenodd;}</style></defs><path class="cls-1" d="M110.28,109.44c6-3.12,12.12-3.12,18.36-.12q29.16,14.76,37.2,45.6a74.36,74.36,0,0,1,1,34.44Q155.1,246.24,97.68,263l-4.44-2,4.56-35.88A851,851,0,0,0,104.4,111,11.37,11.37,0,0,0,110.28,109.44Zm-6-7.68-.12-4.32A111.73,111.73,0,0,0,98.28,129Q95,192.72,86.16,255.6,77,319.14,69.48,383.16c-1.32,10.8-3.12,21.48-5.16,32.16-2.4,12.12-1.32,22.8,3.36,31.92q8.28-46.8,14.16-95.52l9.6-76.32.12.12,2.28.48.36.24.48.48,1.08,1,6,.24A169.23,169.23,0,0,0,127.2,262.8l.36,1q19.62,60.12,34,122.28A227.37,227.37,0,0,0,184,446.16a3.88,3.88,0,0,0,1.68-4.32q-8.82-35.82-18-72.24a1028,1028,0,0,0-35-110.76l1-.84q55.62-44.1,36.12-113.28Q158.34,104,118,94.68a57.45,57.45,0,0,0-8.52,3.72,19.29,19.29,0,0,1-4,1.44A10.36,10.36,0,0,0,104.28,101.76Zm131.16,12.48c-3.84,35.4-6.72,70.92-8.64,106.8q-3.6,64.26-4.2,129.12A452.08,452.08,0,0,1,217.32,414c-1.92,12.12-.6,22.8,4,31.92,4.44-3.84,5.4-8.4,2.76-13.8q5.58-62.46,6.36-125.76c.36-21.6,1.32-43.2,2.88-64.92a1194.73,1194.73,0,0,0,2.88-127.56A.5.5,0,0,0,235.44,114.24ZM391,319.32A456.2,456.2,0,0,0,376.2,191.88q-17.82-68.76-87-81.24h-.84l-.24-4.08a36.83,36.83,0,0,0-2.28,6.72l-.36,1.44a47.57,47.57,0,0,0-.6,7.32q-.54,64.62-4.68,128.28-4.14,64.44-11.52,128A349.82,349.82,0,0,0,266.16,428h-1.32l-.72,1.68a18.37,18.37,0,0,0-1.44,7.2,9.11,9.11,0,0,0,3,7.32,70.57,70.57,0,0,0,37.08-3.12c6.6-2.28,13.2-4.44,19.68-6.24a70.89,70.89,0,0,0,39.84-28.08C380.64,381.24,390.12,352.08,391,319.32ZM357.36,396a116.78,116.78,0,0,1-45.72,25,123.92,123.92,0,0,1-41.52,7.2,975.12,975.12,0,0,0,10.56-97.44q2.7-48.06,6.36-95.76a951.6,951.6,0,0,0,1.8-114l35.88,12.72a79.52,79.52,0,0,1,24.48,21.24,96.27,96.27,0,0,1,13,22.92,337.2,337.2,0,0,1,22.56,126.84A197.91,197.91,0,0,1,364,391.56,30.19,30.19,0,0,0,357.36,396Zm61.32-202.68a259.94,259.94,0,0,0-10.08,46.56,430.28,430.28,0,0,0-3.24,43.32c-.6,15.72-.6,31.32-.12,46.92s1.32,31.32,2.64,46.92a96.36,96.36,0,0,0,13.56,41.88,99.27,99.27,0,0,0,22.8,26.16q40.14-1.08,65.28-37.32c4.92-7,5.4-14.16,1.68-21.6L508,385.8l-9.48,10.32q-14.22,30.24-49.32,32.64l-4.08.12q-43.74-43.38-36.72-107.64c1.56-14,2.76-28.08,3.36-42.24a90.88,90.88,0,0,0,52.08-5.64,8.93,8.93,0,0,0-.12-9,7.93,7.93,0,0,0-2.64-2.64l-48.72,6.84q-1.8-70.38,43.8-120.84c8.52-9.6,19.44-14.28,32.52-13.92a76.16,76.16,0,0,1,18.12,2.88Q496.5,110.22,469.44,123a72.54,72.54,0,0,0-33.12,30.36A204.47,204.47,0,0,0,418.68,193.32Z" transform="translate(-63.08 -94.68)"/></svg>