<svg id="Layer_1" data-name="Layer 1" xmlns="http://www.w3.org/2000/svg" viewBox="0 0 399.85 314"><defs><style>.cls-1{fill-rule:evenodd;}</style></defs><path class="cls-1" d="M140.16,142.92a68.39,68.39,0,0,1,.72,45.36,58.2,58.2,0,0,1-22.08,30l-2.28-3.36-.48,5.16-15.6,8a468.81,468.81,0,0,0,8.4-112.8C124.32,119,134.76,128.28,140.16,142.92ZM103.8,104.76a21.72,21.72,0,0,0-.48,4.8,6.12,6.12,0,0,0,2.16,4.92h.24c-3.24,26.88-6.36,53.88-9.12,81.12q-6.66,63.9-17.52,127c-2.76,15.84-6,31.56-9.84,47.16-3.12,12.6-1.8,23.28,4.08,31.8q7.92-52.92,16.8-106.32l8.16-52.44.72.84h5.4a109.29,109.29,0,0,0,14.16-8.88c1.8,9.24,4.08,18.6,6.84,28q18.54,61.56,38,122.64c2.88,8.88,6.84,16,11.88,21.12a12.44,12.44,0,0,0,1.68-11l-17.76-60.12Q143.4,281.82,123.6,230.64q28.08-24.12,29.16-65c.84-33.48-14.28-54.84-45.6-64.08l-1.08.36-1.68,1.2ZM226.56,176.4c-16.92,0-28.08,8.64-33.48,25.8a226,226,0,0,0-8.52,39,181.55,181.55,0,0,0,0,47A84.06,84.06,0,0,0,201.84,330c10.2,13.2,23.4,17.76,39.36,13.68a52.6,52.6,0,0,0,33.12-24,111.68,111.68,0,0,0,15.84-44.16,113.21,113.21,0,0,0-1.8-40.2,90.5,90.5,0,0,0-19.08-39.12,65.83,65.83,0,0,0-39.84-23.28Zm-.12,10.8.36.84.48.84,1.56,1.68a37,37,0,0,1,10.32,3.24c29.64,14.52,44.4,38.52,44.52,71.88q0,50.4-50,63.36c-14.28,3.72-24.48-.48-30.48-12.84-13.68-28-18.48-57.84-14.28-89.4q4.14-32.4,34.56-40.68ZM427,393.72Q369.72,397,315.24,394.8c.36-7.56,1-15.12,1.68-22.68l11.52-127.56q5.58-64.26,7.32-127.44c-2.16.72-3.36,2.4-3.72,4.92-1.8,12.24-3,24.72-3.84,37.32q-4,63.9-12,127.32a826.84,826.84,0,0,0-6.36,127.56C349.56,416,389,415.92,428,414,431.88,406.8,431.52,400.08,427,393.72Zm-34.08-235.2q-2.88,37.08-3,74.76A389.31,389.31,0,0,1,384.36,297a130.13,130.13,0,0,0,.36,48.24l79.8,6.24c4.44-7.44,3.84-14.16-1.8-20.28l-72.84-4.56c2-15.84,3.48-31.8,4.32-48q3.24-64.44,4.32-128.16C395,151.56,393.24,154.32,392.88,158.52Z" transform="translate(-67.6 -101.52)"/></svg>