<svg id="Layer_1" data-name="Layer 1" xmlns="http://www.w3.org/2000/svg" viewBox="0 0 460.63 366.36"><defs><style>.cls-1{fill-rule:evenodd;}</style></defs><path class="cls-1" d="M299.76,315q-25.74,31.68,1.8,73.44a78.06,78.06,0,0,1,11.16,25c-7.08,6.6-15.12,7.56-24,3a11.38,11.38,0,0,0,0,11.4q42.66,9.18,20.52-33.72a144.42,144.42,0,0,1-14.52-43.92,84.29,84.29,0,0,1-.84-19.8,10.44,10.44,0,0,1,11-3.48l2.76,5.64c4.2-8.4,2.16-14.16-6.24-17.16Zm-33.72.6q-17.46,56.34-34.2,111.84c.6,1.8,1.68,2.64,3.48,2.52,6.48-17.28,12.6-34.56,18.36-52a44.49,44.49,0,0,0,16.92.6c.72,7.8,1.32,15.72,1.68,23.64.6,10.92,3.12,20.28,7.44,28.2l.36-.72c-.84-17.88-2-35.64-3.72-53.52a9,9,0,0,0-.84-8.88c-1.8-17.4-4.08-34.68-6.84-52.08a137.85,137.85,0,0,0-.48,42.24l1.2,9.72-12.6,1.32a220,220,0,0,0,9.72-53Zm-171.12-124A48.41,48.41,0,0,1,64,212.4,1059,1059,0,0,0,69.48,87.48c16.44-1.8,29.16,4.08,38.28,17.52s11.16,28.08,6.72,44.4A139.74,139.74,0,0,1,94.92,191.64Zm.6-113.16A17.35,17.35,0,0,0,92,77.16l-3.72-1.32-8.16-1.32-4.44-.36-9.48,2.4a7.6,7.6,0,0,0-2.4,7.68,6.12,6.12,0,0,0,1.68,3.12q-5.4,62.28-6.36,126l-1.56.12c-1.8,4.8-1.56,9.24,1,13.2a1858.24,1858.24,0,0,0-9.84,203.76A1035.23,1035.23,0,0,0,63.12,228c9.72-.84,17.52-5.64,23.64-14.28a2043.3,2043.3,0,0,0,41.16,214.8,12.44,12.44,0,0,0,2.4,4.68q.36-45.72-12.12-94.44-8.82-34.56-16.08-69.48l-3-14.52-3.24-14.52-3.48-14.4-3.48-14.28q34-36.9,33.48-87l-.24-3.48-.48-3.48-.48-3.48a46.25,46.25,0,0,0-19.44-31.8A30.06,30.06,0,0,0,95.52,78.48ZM212.88,99.84c20.76,26.52,32.64,56.88,35.52,91.32a517.88,517.88,0,0,1-5.16,128.64A199.29,199.29,0,0,1,205,408.72a33.1,33.1,0,0,1-20.76,12.84c-15.36,3-25-3-28.68-17.76A422.2,422.2,0,0,1,142.8,297.12a765.72,765.72,0,0,1,11.64-127.8c5.88-33.24,22.92-57.48,50.88-73,3-1,5.28-.6,6.72,1.08l-1.92,4.68c-.6,2.16-.48,3.6.12,4.2a4.86,4.86,0,0,0,1.32-3.24A4.86,4.86,0,0,1,212.88,99.84Zm-37.2,5.64a262.74,262.74,0,0,0-34.44,106.8,1017.48,1017.48,0,0,0-4.92,128.4,261.67,261.67,0,0,0,13.56,78.6A28,28,0,0,0,166.8,437c16.68,6.48,30.84,2,42.24-13.32a220.43,220.43,0,0,0,41.88-99.36,611.66,611.66,0,0,0,6.36-128.52Q253.86,132.12,217,83l-1.56-.12-9.84-1.2a50.21,50.21,0,0,0-17.16,9A53.3,53.3,0,0,0,175.68,105.48ZM290,94.44c12.84,10.56,16.32,23.64,10.68,39.12a117.57,117.57,0,0,1-5.28,12l-15.6,5-.24-57.48Zm-10.8-8c-4,11-6,24.72-6,41,0,14.28-.36,28.68-1.2,43.08a247.23,247.23,0,0,0,1.32,40,54.66,54.66,0,0,0,1.2,7.32l4.92-59.4c5.4,3.72,10.56,2.76,15.72-3.12a62.33,62.33,0,0,0,8.4-12.36,39.23,39.23,0,0,0,4.2-14.4,59.19,59.19,0,0,0-1.92-21.12c-3.12-10.68-10-17.52-20.52-20.64Zm85,121.2a348.13,348.13,0,0,0-84.72,13.8l.24,8.88,55.8-8.76q-4.86,95.76-10.8,191.64a75.21,75.21,0,0,0,.84,16.44,54.09,54.09,0,0,0,2.88,10.92,1287.57,1287.57,0,0,0,9.12-188.76L337,221.4l27.24-2.52a8.88,8.88,0,0,0,.72-10ZM400.44,89.88c-12.36,8.76-20.16,21.12-23.64,37a188.65,188.65,0,0,0-4,49.32c.48,10.68.72,21.48.6,32.16l-.72,48.48-.6,16.08c-.6,10.68-1.32,21.48-2.28,32.16-1.56,17.4,4.2,27.12,17.4,29q7,1.26,13.32-4.32c12.6-11.16,17-24,13.2-38.28l-3.6,2.88c-4.08,12.12-11.52,20.88-22.32,26.52a15.06,15.06,0,0,1-7.68,1.68l-1.8-100.08a38.87,38.87,0,0,0,26.52-2.88c2.28-3.72,2.4-7.32.12-10.92l-2.4-3L378.36,213c-2.28-35.4,2.76-68.76,15.12-100.32,2-5.16,6.12-7.92,12.12-8.28l2.4-.24,2.4,1.92a16.5,16.5,0,0,0,5.52,8,2.46,2.46,0,0,0,2.64.6c2-5.4,1.08-10.8-2.76-16.08a51.72,51.72,0,0,0-6.12-7.44Zm76.8-1.08c-14.28,7.68-24.12,19.32-29.52,34.8-5.16,15.24-4.56,29.88,1.56,44.16L467,209.16c5.76,13.8,11.4,27.72,16.8,41.76,5.16,13.56,9.72,27.12,13.68,40.92a145.34,145.34,0,0,1,5.16,44.28,153.58,153.58,0,0,1-8.16,44.16q-7.74,22.86-29.88,31.68c-15,6.24-29.88,6.36-44.88.36-13.32-5.4-22.92-15-29-28.92,3.72-5.16,4.92-10.56,3.72-16.2l-.12-.36L387,370l.72,1.56q-11.7,18.72,1.08,39.24c9.36,15,22.68,23.64,40,26l7.2.84,10.32-.6a101.29,101.29,0,0,0,15.84-3.72A55.38,55.38,0,0,0,484,419.76a61.38,61.38,0,0,0,14.28-22.2A169.64,169.64,0,0,0,507,309.48a349.26,349.26,0,0,0-41.4-116.76,83.64,83.64,0,0,1-11-51q4.14-43.74,37.8-28.8c7.56,3.36,13,8.28,16.2,14.88a30.19,30.19,0,0,0-4.8-23.4C497.52,95.16,488.64,89.88,477.24,88.8Z" transform="translate(-48.67 -74.16)"/></svg>