<svg id="Layer_1" data-name="Layer 1" xmlns="http://www.w3.org/2000/svg" viewBox="0 0 415.8 345.02"><defs><style>.cls-1{fill-rule:evenodd;}</style></defs><path class="cls-1" d="M319.68,250a107.36,107.36,0,0,0-19.32,3.6,637.61,637.61,0,0,0,14.52-105.84c-.12,25.2.72,51,2.76,77.28Zm-187.8-94.2a93.44,93.44,0,0,1-9,50.28q-14.94,31.32-44.64,40.68,5.76-41.94,12-83.88a218.71,218.71,0,0,0,1.56-51.48Q128.16,117.48,131.88,155.76Zm-47-49.92A6.62,6.62,0,0,0,87,110.52q-5.58,58.68-14.76,117L69,249.12l-6.72,1-1,1.68a21.65,21.65,0,0,0-.72,9.6,8.08,8.08,0,0,0,3.48,5.76l2.28-.48q-6.12,43.74-10.44,87.6a143.34,143.34,0,0,1-6.6,31.08c-4.08,12.24-3.36,22.68,2,31.32a38.39,38.39,0,0,0,6.24-16.92L72.48,289.44l3.36-25.32a80.36,80.36,0,0,0,20.52-9.48,98.23,98.23,0,0,0,5,26.64q20.16,61,43.8,120.72a118.9,118.9,0,0,0,16.56,29.88c2.52-2.28,3.12-5.16,2-8.52q-10.62-32-23.4-64.08Q119,305.1,101.76,250.8C114,241.44,123.36,228.48,130,212a131.74,131.74,0,0,0,9.6-54q-1.62-52-51.84-62.28a3.27,3.27,0,0,0-2.28,2.76A29.7,29.7,0,0,0,84.84,105.84Zm230.28,37.8.12-2.64c-7.32,29.4-13.8,59.64-19.68,90.84q-11.7,63.54-29.4,125.76c-3.48,12.36-2.4,22.68,3,31q12.78-59.76,27.6-119.88l24.24-1.8c2.28,28.56,4.8,57.12,7.32,85.56,1.08,12.12,4.8,22.44,10.92,30.72a3.55,3.55,0,0,0,1.92-4c-5-35.88-8.52-72.12-10.32-109l-.12-3.84,12.6-.36a16.11,16.11,0,0,0,1.92-6.6,12.76,12.76,0,0,0-1.92-8l-.84-.6a30.78,30.78,0,0,0-8-1.56,32,32,0,0,0-4.8,0,879.5,879.5,0,0,0-14.16-105.6Zm-102,54c11.88,4.32,21.48,13.92,28.8,28.68a74.22,74.22,0,0,1,7.08,46A67.28,67.28,0,0,1,226.44,313c-14.52,12.84-27.48,12.48-39.12-.84a73.26,73.26,0,0,1-17.76-39.84,95.38,95.38,0,0,1,4.8-45,57.9,57.9,0,0,1,30.12-34.08Zm-13.2-17.16a50.56,50.56,0,0,0-19.56,19.68,139,139,0,0,0-18.36,60c-2.28,33.48,9.12,60.24,34.44,80.52a29.05,29.05,0,0,0,10.68-1.92q43-16,49-61.56,9.36-71.28-52.68-106.44v.12l-.48.24-.72.48-1,.72L200,176.4Zm184-76.08c11.88-4.92,22.32-3.12,31.08,5.52,11.52,11.4,16.56,25.08,15.24,40.92q-5.4,64.08-56.28,101L378.24,215a741.52,741.52,0,0,0,5-110.4Zm-1.32-17.52c-1.08-.12-1.56.24-1.56,1.08l-.36,4.8-1,.48-2.52,1.44a13.69,13.69,0,0,0-.84,4.92,10.32,10.32,0,0,0,1.08,4.68l.84,1,1.44.12q-4.14,54.18-10.08,108.24-7.2,63.9-16.08,127.68c-3,21.36-6.48,42.6-10.68,63.72-2,10.32-.24,18.24,5.64,23.64q8.28-42.84,14-86.76L372,266.76a3.77,3.77,0,0,0,1.92,2.16,107.93,107.93,0,0,0,22.44-16.68,130.27,130.27,0,0,0,4.8,23.16q18.9,61.2,40.68,121.56c4.32,12,10.32,21.84,18.12,29.4l1-1.68c2.76-10.32,1.92-19.44-2.52-27.48l.12.72a6,6,0,0,1,.12,5.52A183.4,183.4,0,0,1,440.76,364Q421.86,304.74,402,246.24a115.84,115.84,0,0,0,11.16-15Q444.3,182.82,434,127,427.38,90.78,391.8,88.8a44,44,0,0,0-9,3Z" transform="translate(-46.71 -86.86)"/></svg>