<svg id="Layer_1" data-name="Layer 1" xmlns="http://www.w3.org/2000/svg" viewBox="0 0 310.24 216.35"><defs><style>.cls-1{fill-rule:evenodd;}</style></defs><path class="cls-1" d="M178.2,281.64a44.54,44.54,0,0,1-18.12,6.12l1-76,17.52-5.88c11.76,10.32,18.24,23.16,19.32,38.64C199,260.64,192.48,273,178.2,281.64Zm117.24-70.32a40.29,40.29,0,0,1,11.88-1.44,10.13,10.13,0,0,1,4.08,1,69.74,69.74,0,0,1,25,29c12.84,27.6,14.52,56.16,5.28,85.8-8.76,28.08-27.24,44.52-55.68,49.2-11.88,2-20.4-2.16-25.68-12.36q-27.36-53.82-10.08-113.4,11-38.52,49.56-41.88l-.72.84-3.84,3ZM287.88,193q-33.66,12.24-43.44,49.56-16.56,63.18,4.44,124.8c5.4,16,16.32,24.24,32.64,24.84,21.72.84,38.16-8,49.32-26.4q35.46-58,19-124.08-8.1-32.76-36.48-46.8l-1.32.84-1,.48-1,.24a12.09,12.09,0,0,1-4.08-1.08A33,33,0,0,0,287.88,193ZM190.2,201.6a35.18,35.18,0,0,0-9.72-9.6q-10.08-2.34-18.36,4.68l-1.32,1.2-.6-4.2-15.72,175.2a98.73,98.73,0,0,0-.24,13.32l.36,4a34.89,34.89,0,0,0,2.88,11l1.68,3.24a676.38,676.38,0,0,0,10.08-96l19.56-5.64a450.53,450.53,0,0,0,46.8,101.88q-7-56-41.16-105.72,30.42-31.68,16.08-74.16a62.18,62.18,0,0,0-7.2-14.4Zm184.56-4.92a274.69,274.69,0,0,0-3.36,54.48c.6,18.84.36,37.8-.84,56.88-1.44,21.48-3.6,42.72-6.48,63.84-1.68,12.24-.24,22.8,4.44,31.8a15.42,15.42,0,0,0,4-9.72l4.08-68.16v-.36c3.72-.48,6.84-3,9.24-7.68,4.92-9.24,10.08-18.36,15.48-27.24a451.28,451.28,0,0,1,22.32,59.4,271.66,271.66,0,0,0,24.24,57.84c3.72-8.16,3.48-16.56-1-25.32A172.58,172.58,0,0,1,436,356a377.41,377.41,0,0,0-31.2-71.16,500.1,500.1,0,0,1,29.16-41.76l8.76-10.92c9.24-11,13-22.56,11.28-34.44a5.24,5.24,0,0,0-3.72,1.08Q422,243.66,389.4,285.6a64.46,64.46,0,0,0-12,23.52c1.56-37.08,1.32-73.92-.72-110.76l-.84-.84Z" transform="translate(-144.12 -191.42)"/></svg>