<svg id="Layer_1" data-name="Layer 1" xmlns="http://www.w3.org/2000/svg" viewBox="0 0 450.14 476.02"><defs><style>.cls-1{fill-rule:evenodd;}</style></defs><path class="cls-1" d="M73.68,76.2A184.26,184.26,0,0,0,69,105.48c-3.48,42.36-6.24,85-8.28,127.56l-1.44,28.32h-.6a18.25,18.25,0,0,0-1.2,5.76,15.2,15.2,0,0,0,1.08,5.64v.12c-1.8,29.64-4,59-6.72,88.44q-5.94,64.08-13.2,128c-1.32,11.88,0,22.2,4.08,31q5.94-48.24,9.48-97.44l9.36-127.44,1.56-21.12q16.74,2.34,30.24-8.64l7.8-6.6a36.94,36.94,0,0,0,3.6,13.32q27.54,58.86,53,119.76a1030.61,1030.61,0,0,1,40.56,116.52q4.86,17.1,15.12,27a4.83,4.83,0,0,0,.72-3.12A233.57,233.57,0,0,0,203,485.88q-21.06-60.48-46-119.64-23.94-56.7-52.44-110.52a151.39,151.39,0,0,0,18.48-21.6q39.6-55.26,21.6-121Q133,70,88.8,66.24a47.55,47.55,0,0,1-10.56,3.6L74.4,71.16a9.57,9.57,0,0,0-.84,4.08Zm58.56,27q29,65.34-13,122.76c-14.28,19.56-32.64,31.2-55.2,34.68l4.68-60.84c3.12-40.2,5.76-80.16,7.8-120.12,14.16-4.92,27.48-3.36,40,4.8A44.08,44.08,0,0,1,132.24,103.2ZM283,86.28l15.24.6A7.45,7.45,0,0,0,302.52,89l3.6,4.2a7.8,7.8,0,0,1,1.8,7.2,363.66,363.66,0,0,0,17.88,47.28,256.81,256.81,0,0,1,21.6,76,812.41,812.41,0,0,1,6.12,128,322,322,0,0,1-28.8,123.12,92.15,92.15,0,0,1-41.4,44.76q-17.82,9.54-31-4c-15-15.48-24.24-34.08-28-56a747.68,747.68,0,0,1-10.56-128.4c.24-43.08,2.4-85.92,6.48-128.28.84-8.28,1.8-16.44,2.88-24.6q7.2-53.64,47.4-87.36l2-.72ZM361.68,267a310.19,310.19,0,0,0-17.16-92.76c-7.08-20.52-14-41.28-20.88-62a86.24,86.24,0,0,0-12-24.48l-.36-.48c-5.16-11.4-14.4-16.44-27.72-15.24q-37.44,13.68-50.76,52.44a428.08,428.08,0,0,0-22.92,126.72q-1.8,64.26-.6,129a444.79,444.79,0,0,0,20.16,124.56,48.17,48.17,0,0,0,21.24,27.36q30.78,19.08,55.08-10.08a205.15,205.15,0,0,0,35.88-62.76A362.87,362.87,0,0,0,363,331.2C362.76,309.6,362.28,288.24,361.68,267Zm14.76,138.24c1-26.76,11-48.72,30.24-65.64q30.24-9.54,43,13.56c3.24-4.92,3.24-10.2,0-15.72-7.32-12.36-19-16.68-35.16-12.72-19.8,5.88-32.16,19.92-36.84,42A534.83,534.83,0,0,0,365.52,485.4a101.15,101.15,0,0,0,5.28,31.92c7.68,22.2,24.12,29.64,49.2,22.08a52.35,52.35,0,0,0,28.44-20.52c8.76-12.24,10.08-23.52,4.2-33.72a11.11,11.11,0,0,0-3.12,4.68l-3.24,8.28-.36.84c-1.56-.12-2.28.24-2.16,1.2a1.6,1.6,0,0,0,.84,1q-18.18,31.14-55.44,21.72c-5.52-1.32-8.88-4.68-10.2-10a211.1,211.1,0,0,1-4.8-75.84l.36-3.12a119.39,119.39,0,0,0,33.24-1.8l.6-.84c2.28-4.56,2-8.88-.84-13l-31.92,4.2C376,416.76,376.32,411,376.44,405.24ZM486.6,77.16a164,164,0,0,0-15,53.16L457.08,257.16a191,191,0,0,1-6.12,31l-1,4.08c-1.08-7.32-2.64-14.52-4.44-21.72a658.56,658.56,0,0,0-27.48-85.56,33.67,33.67,0,0,0-1.44-7.08l-.72,1.92v-.12c-.48-.12-.72,0-.6.24l.12,1a362.94,362.94,0,0,0-19.56,74c-1,5.88-2,11.76-3.36,17.52a144.45,144.45,0,0,0-3.36,28.08q-5.4-50.58-12.24-101.76a989.93,989.93,0,0,0-25-124.8c-.36.12-.48.12-.48.24a206.81,206.81,0,0,0,4.08,41.4c2.76,14.28,5.16,28.68,7.32,43.2q9.36,62.82,16.44,125.76c1.32,12,4.68,22.2,10.08,30.48l.24-.24.48,5c.72-.36,1.2-.72,1.32-1.2q7.92-43.38,16.56-87.48a253.52,253.52,0,0,1,7.56-29.52,50.7,50.7,0,0,0,2.16-9.48c2.64,12.72,5.52,25.68,8.76,38.76,2.76,10.92,5.16,21.84,7.44,32.76A317.72,317.72,0,0,0,451.8,323.4a2.59,2.59,0,0,0,.72-1.68l-.12-3.84.84,1.44a17.81,17.81,0,0,0,3-6.48,376.63,376.63,0,0,0,7.68-46.08q6.3-63.54,14.16-126.84a182.57,182.57,0,0,1,6.6-31.2,71.28,71.28,0,0,0,2.88-32.16C487,76.68,486.72,76.8,486.6,77.16Z" transform="translate(-38.15 -66.24)"/></svg>