<svg id="Layer_1" data-name="Layer 1" xmlns="http://www.w3.org/2000/svg" viewBox="0 0 428.63 340.84"><defs><style>.cls-1{fill-rule:evenodd;}</style></defs><path class="cls-1" d="M159.12,125.4c11.88,13.8,16.08,29.28,12.6,46.2q-8.82,43.2-43,61.2l-.6-1.44c-.72-.12-1.08,0-1.2.6l-.36,1.92a97.21,97.21,0,0,1-21.12,7.44l4.8-43.8c1.2-10.68,2.64-21.48,4.2-32.16a191.37,191.37,0,0,0,1-54.84,34,34,0,0,1,21,.12A48,48,0,0,1,159.12,125.4Zm-50-20.4a21.48,21.48,0,0,0,.24,4.8,4.72,4.72,0,0,0,1.56,2.52A130.5,130.5,0,0,0,108,132.24L99.36,242.76l-1.68.24-1.08,3.24a14.86,14.86,0,0,0,0,5.64,6.43,6.43,0,0,0,1.32,3.24h.36l-.48,4.8A1245.33,1245.33,0,0,1,80.88,386.4l-.36.72-1,1.44C77,398,78.12,405.48,83,411a585.07,585.07,0,0,0,14.28-86l6.84-70.44a88.42,88.42,0,0,0,22.44-6.36,49.81,49.81,0,0,0,3.6,12.6q23.94,58.86,44.4,118.56,4,11.7,6.84,23.4c2.16,8.88,5.52,16.2,10.08,21.84,3.72-3.6,4.92-8.16,3.36-13.68-5.64-20.52-12.12-40.68-19.44-60.72Q156,296.88,133.8,244.56c13.56-7.68,24.84-19.32,33.72-35q17.64-31.32,8.64-65.4c-7.32-27.24-24.24-43.92-50.64-50.28l-7.8,1.8a13.77,13.77,0,0,0-7.92,5.28A11.68,11.68,0,0,0,109.08,105Zm133.08,56.52c-20,1.32-32.76,12-38.16,32.16A189.71,189.71,0,0,0,197.76,237a159.45,159.45,0,0,0,4.56,43.2,76,76,0,0,0,21.84,37.68,52.15,52.15,0,0,0,37.92,15.24,64.17,64.17,0,0,0,42.72-18.6,67.06,67.06,0,0,0,20.52-41.4A149.24,149.24,0,0,0,322.56,222a122,122,0,0,0-13.32-33.48A59.38,59.38,0,0,0,275,160.8a62,62,0,0,0-30.6-2.4ZM262.68,177A59.71,59.71,0,0,1,287,187.44a73.89,73.89,0,0,1,25.2,32c12,28.44,9,54.6-9.12,78.24-8.28,10.8-19.08,16.8-32.64,18-31.08,2.76-51.12-10.8-60.36-40.56a181.2,181.2,0,0,1-7.92-48.36q-1.26-42.12,37.2-55c1.8-.72,3.12-.24,3.84,1.44a9.15,9.15,0,0,0,3,3.48A50.35,50.35,0,0,1,262.68,177ZM438.6,202a354.09,354.09,0,0,0-7.08,47.28H430.2l-.48.6a9.64,9.64,0,0,0-.36,8.88l1.56.6a338.37,338.37,0,0,0,2,55,61.3,61.3,0,0,0,12.24,30.6q18,23.58,42.48,8.4c15-9.36,19.56-21,13.92-34.8l-4.2.24-1.44.6c-5.28,11.88-14.52,18.72-27.6,20.28A17,17,0,0,1,453.24,334c-12.72-13.68-18.72-30.36-18-49.92.24-7.8.6-15.48,1.2-23a78.87,78.87,0,0,0,38.16.36l.72-.84c2.88-5.4,2.64-10.44-.72-15.36a157.26,157.26,0,0,1-37.2,4.2c1-9.36,2.16-18.72,3.48-28q6.48-43.74,51-43.92a65.39,65.39,0,0,1,12,5.88,9.23,9.23,0,0,0,2.88,1.2l.12-.72c-3.36-14.88-13.2-21.48-29.64-19.8C456.24,168.36,443.28,181,438.6,202Zm-19.44-72.6c-1.08-20.88-12.72-31.92-34.92-33a41.08,41.08,0,0,0-18.48,12.24q-35.82,40.5-10.92,90.12,25.38,50.4,48.84,101.76c13.8,30.12,14.16,59.88.84,89.4a22.66,22.66,0,0,1-10,10.68q-53.82,29.52-107.52-4.2L286,394l-.6-1.68-.24-.72a23.47,23.47,0,0,1,1.56-4.92l.6-2-2-1.44-.12-.12H285l-.36.6a3.38,3.38,0,0,1-1.32-.48,3.12,3.12,0,0,0-3.48-.48l-1.2.48a24.21,24.21,0,0,0-1.8,16.44,23.91,23.91,0,0,0,9.84,14.64q42.48,29.34,91.92,16.56a35.76,35.76,0,0,0,19.08-12.12q37.8-45.9,20.4-103.68a427,427,0,0,0-54-114.72c-11.16-16.8-14.76-34.68-11-53.76,2.52-12.6,9.6-22,21.36-27.84,17.88-9.12,32.88-5.28,44.76,11.52Z" transform="translate(-78.25 -93.84)"/></svg>