<svg id="Layer_1" data-name="Layer 1" xmlns="http://www.w3.org/2000/svg" viewBox="0 0 595.57 842.18"><defs><style>.cls-1{fill:#fff;}.cls-2{fill:none;stroke:#fff;stroke-linecap:round;stroke-linejoin:round;stroke-width:0.38px;}.cls-3{fill-rule:evenodd;}</style></defs><rect class="cls-1" x="0.31" y="0.31" width="595.08" height="841.68"/><rect class="cls-2" x="0.19" y="0.19" width="595.2" height="841.8"/><path class="cls-3" d="M85,104.88c12.6,8.64,21,20.52,25.2,35.76a105.94,105.94,0,0,1,3.12,43A104.25,104.25,0,0,1,97.56,227,79.24,79.24,0,0,1,67,254.76a92.2,92.2,0,0,1-16.8,6.6q8.1-78.3,11.64-157.08l20.16-1Zm-28.08-5a9,9,0,0,0,1.08,3.6,597.86,597.86,0,0,0-7.08,61.08l-6.72,99.84a16.89,16.89,0,0,0-1.32,7.32,11,11,0,0,0,.6,3.36L42,292.8q-4.68,64.08-8.88,128.28a284.26,284.26,0,0,1-7.2,47.4c-2.52,10.2-1,18,4.92,23.16a881.88,881.88,0,0,0,12.72-115q2.16-49.14,5.4-98.16l5.76.48a97.75,97.75,0,0,0,22.2-12.6c2,10.44,4.32,21,7.08,31.56,4.2,16,7.8,32.16,11,48.36q12.06,62.46,20.64,125.4c1.32,9.24,4.44,16.2,9.36,21a3.85,3.85,0,0,0,1.68-3.72q-2.34-27.18-7.2-54.36L109,375.84A942.34,942.34,0,0,0,81.6,262.68a97.08,97.08,0,0,0,25-33.72,183.78,183.78,0,0,0,13-40.32q11.34-58.32-31.32-97a5.71,5.71,0,0,1-2.16-.6,13.54,13.54,0,0,0-9.24-1.56,75.29,75.29,0,0,0-15.48,1.56l-.12-2.64-.6.12-.48,2.76-1.92.36-.24.84A19,19,0,0,0,56.88,99.84Zm179-10.32a73.3,73.3,0,0,0-38.4,29.64,78.7,78.7,0,0,0-8.28,15.72,418.5,418.5,0,0,0-29,124.2,883.6,883.6,0,0,0-1.08,128.52,312.09,312.09,0,0,0,20.16,92.64c9,23.4,25.92,30.6,50.52,21.6a48.29,48.29,0,0,0,17.76-11.28c26-25.8,41.88-56.76,47.76-92.88A820.47,820.47,0,0,0,306,270.12a438.76,438.76,0,0,0-17.52-126.84q-9-31-32.52-51l-3.48-.72A55,55,0,0,0,235.92,89.52Zm6.48,15.72c7.2-.36,12.84,1.56,16.8,6l-.12.72a4.24,4.24,0,0,1-2.16,3q-2.7,1.62-2.88,3.6l3.6-.6h1a60.2,60.2,0,0,1,8.64,11.52,211,211,0,0,1,27.36,82.8A575.29,575.29,0,0,1,295,340.8a363.17,363.17,0,0,1-22.8,92.76,89.31,89.31,0,0,1-32.76,41.76,49.07,49.07,0,0,1-33.36,9c-9.24-.84-15.48-5.4-18.72-13.92a341.62,341.62,0,0,1-21.84-114.84A1044.6,1044.6,0,0,1,171,227a245.93,245.93,0,0,1,24.48-85q14.4-29.16,44.76-36.84Zm274,290.28L514.68,392l-36.12,2.28A135,135,0,0,1,498,324.48l5.52-8.76q18-12.78,38.88,5.76l.12-.12q-1.62-15.48-15.48-23a44.59,44.59,0,0,0-14-4.44c-14.88,9.48-24.6,23.16-29,40.8a427.51,427.51,0,0,0-10.68,148.68,50.32,50.32,0,0,0,15.36,31.8,57.44,57.44,0,0,0,40-12.6c13.56-10.56,18.12-23.76,13.8-39.72a48.58,48.58,0,0,0-2-5.88,42.89,42.89,0,0,1-14.64,27.36,49,49,0,0,1-36,12.48l-5.64-4.08a241.45,241.45,0,0,1-5.76-84.12A110.5,110.5,0,0,0,516,407.52,13.24,13.24,0,0,0,516.36,395.52ZM359,207.6a109.38,109.38,0,0,0-25.56,5.64c7.2-32.52,13.2-64.92,17.88-97.44Q355.86,161.34,359,207.6ZM397.44,102c-2.4,2.52-3.36,5.88-2.76,10.32l1.2,10.8q-.54,8.1-.72,16.56-.54,64.08-7,127.44Q381.72,330.84,377,394.56A650.87,650.87,0,0,1,362.88,490c-2.28,10.2-.6,18.12,5,23.64a148.87,148.87,0,0,0,8.28-34.08q7.74-63.54,12.36-127.44c3.12-42.6,6.6-85,10.56-127.32,1.56-17,2.64-34.08,3-51,2.88,21.72,6,43.32,9.36,65q9.72,63.18,18,126.72,8.1,63,10.92,126.72c.36,9.72,3,17.16,7.68,22.44q5-7.38,5.4-13.68a76.43,76.43,0,0,0,1.32-9.36L463,363.36q4-63.9,7.2-128.16a1142.46,1142.46,0,0,0-1-128.28c-.6.12-.84.12-.84.24-2.16,19.32-3.6,38.76-4.32,58.44l-4.68,128.28q-2.52,64.62-8,129.12-1.62,19.62-4,39.24-4.14-54.18-11.52-107.64-8.82-63.54-18.12-127-7.38-51.48-16.2-102.12c-.36-9.72-1.08-19.44-1.92-29.16L398,105.12Zm-43.56-5.16-.84-.72L352,95.28a199.29,199.29,0,0,0-10.44,37.92A1167.77,1167.77,0,0,1,312.72,258c-3.36,11.76-3,22.32,1.08,31.8q9.36-31.86,17.16-65.52,14.22-.54,29.16-2.52l.6,10.32c.72,10.92,1.08,21.72,1.2,32.52.12,11.88,2.4,22.08,6.6,30.84a74.48,74.48,0,0,0,2.76-35c-1.68-11.64-2.88-23.16-3.48-34.8A1008.56,1008.56,0,0,0,353.52,100Z" transform="translate(0.19 0.19)"/></svg>