<svg id="Layer_1" data-name="Layer 1" xmlns="http://www.w3.org/2000/svg" viewBox="0 0 438.02 245.4"><defs><style>.cls-1{fill-rule:evenodd;}</style></defs><path class="cls-1" d="M60.36,213.72a1020.24,1020.24,0,0,1,14.88,125.4c0,6,2.4,9.48,7.32,10.44l.48-3.72.6,3.48q1.26-.36,1.44-1.08a650.45,650.45,0,0,0,18-80.16c1-6.12,2.16-12.24,3.48-18.24l2.28-12.24q5.76,46.62,16,92.52c2.52,11.88,6.36,22.08,11.28,30.36a41.5,41.5,0,0,0,2.88-18.6c1.2-6.12,2.16-12.24,3-18.6q8.1-63.18,22.08-125.52A337.45,337.45,0,0,0,172.32,135a351.63,351.63,0,0,0-18.84,70.08c-6.36,38-13.08,76.08-19.92,114A824.31,824.31,0,0,1,110.88,207l-.72.84-.36-5.4Q99.72,224.22,97.2,251a241.65,241.65,0,0,1-10.08,50.52,122.29,122.29,0,0,0-3.48,13.8c-.36-5.16-1.08-10.32-1.92-15.6l-8.16-50.28A1222.69,1222.69,0,0,0,47,124.8c-3.24,1.56-4.32,4.44-3.24,8.88Q53,173.46,60.36,213.72Zm236.52-55.2,8,65.16-26.64,6.48,6.12-22.32Zm.36-17.16-.12-2.52c-6.6,8-11,18-13.44,29.76A835.68,835.68,0,0,1,248.4,291.48c-2.52,8-1.56,15,2.64,20.76Q263.28,279.66,273.6,246l34.56-4.2q9.9,53.64,22,106.68v.12a43.88,43.88,0,0,1-7.56-19,75.15,75.15,0,0,0,14,36.24A3.75,3.75,0,0,0,338,364.2a38.35,38.35,0,0,0,1.56-23.52q-8.82-37.26-16.2-74.88Q311,203.16,298.2,141.24ZM195,133.68,175.92,344.52l-3.36-4.68,2.52,9a12.49,12.49,0,0,0,2,13.56l1.44,1.56A48.52,48.52,0,0,0,185,344.64l.72-6.36,1.8-19,3.48-38,2.28-23.4,17.52-6.6a1029.23,1029.23,0,0,0,35.4,117.24c4-1,5.4-3.6,4.08-7.8L234.12,304l-8.52-28.2-8.88-28.2A71.27,71.27,0,0,0,236.4,227l3.24-5.64,1.32-3,2.28-6.12,1.8-6.36a75.43,75.43,0,0,0,.24-32.76c-4-18.6-14-32.76-30.48-42.72Zm20,13.68c17.16,8.76,24.6,22.8,22.2,42.36-3.24,26.52-17.4,43.68-42.72,51.72a851.2,851.2,0,0,0,1.2-94.2l4.44.48C205.32,145.08,210.24,145,215,147.36Zm206,37.68a1124.69,1124.69,0,0,1-7.32,125.76,141.37,141.37,0,0,0,2.4,48q6.66-9,5.4-22.68c3.24-2.52,3.36-3.36.24-2.52.84-13.8,1.92-27.6,3.24-41.64.84-9.48,1.56-19.08,2-28.56a368.81,368.81,0,0,0,40,.36L466,282.48c-1.2,21.36-3.36,42.6-6.36,63.84-1.56,10.2.6,18.12,6.36,23.88a15.63,15.63,0,0,0,1.2-1.8,59.47,59.47,0,0,0,3.6-18.48l2.64-59.4L475,263.4l.72-.12.84-1c3-5.88,2.88-11.28-.48-16.32,1.08-17.16,2.52-34.08,4.08-51a279.91,279.91,0,0,0-1.2-64.32c-3.84,6.36-6,14.16-6.36,23.4L468,245.16a194.31,194.31,0,0,0-40.2,3.72,730.25,730.25,0,0,0-1.92-84.36C422.76,170.16,421.2,177,421.08,185ZM428,127q-54.9,3.42-109.32,8.4l-.48.84a15.71,15.71,0,0,0,.48,12.12c21,.48,42.12.6,63.12.24-1.92,18.72-3.24,37.56-4.08,56.52-1.8,43-5.64,85.68-11.28,128-1.32,10.2.6,18.12,5.76,23.52q7-44.46,10.8-90.12a824.55,824.55,0,0,0,1.32-118L428,147.24l1.08-1.08C432.72,139.32,432.36,133,428,127Z" transform="translate(-43.39 -124.8)"/></svg>