<svg id="Layer_1" data-name="Layer 1" xmlns="http://www.w3.org/2000/svg" viewBox="0 0 307.11 212.64"><defs><style>.cls-1{fill-rule:evenodd;}</style></defs><path class="cls-1" d="M330.12,299.76q20.88,31.68,2.4,65c-8.28,14.88-21.36,20.16-39.36,15.84-5.88-1.44-9.72-5-11.28-10.68a102.58,102.58,0,0,1-3.48-35.4C280,313.8,290,301,308.4,296A29.64,29.64,0,0,1,330.12,299.76ZM291,289.2c-15.24,23.64-21.6,50.16-18.84,79.32q3.24,35.46,39.6,30.12a28,28,0,0,0,19.44-12Q365,337.5,334.92,286.8l-1.44-.24a56.64,56.64,0,0,0-29.4-4.56,11.93,11.93,0,0,1-4.68,1.8A11.67,11.67,0,0,0,291,289.2ZM166.2,192.12c-1-.24-1.44,0-1.56.84-2.28,42.12-4.44,84.24-6.24,126.6a291.14,291.14,0,0,1-3.24,32.28,218.14,218.14,0,0,0-2,48c5-4.68,7.92-11,8.52-19.32,1.56-19.8,3-39.84,4.32-60l1.2-21.24L174,299l13.2-4.68,4.92-2a534.2,534.2,0,0,1,28.2,69.36L226.56,381c3,9.48,7.68,16,14.28,19.68a7.44,7.44,0,0,0,1-7.56c-6.48-17.4-12.84-35-19-52.92a180.59,180.59,0,0,0-26.28-50.28c19.32-10.68,28.2-28.68,26.64-53.76q-2.7-44.28-46.8-48.12a13.49,13.49,0,0,0-10,9.12Zm21.72,8c15.48,6.12,24.72,17.52,27.48,34.44S213,265.08,199.68,275a50.37,50.37,0,0,1-32,10.2L166.8,204c5.16-3.48,11.16-4.92,18.24-4.44ZM453,379.68a182.29,182.29,0,0,0,4.2-47c-.6-14.16-1.68-28.32-3.24-42.36a524.66,524.66,0,0,1-10.2,89.88l-19.2-6.84q1.8,32,24.36,13.56A12.71,12.71,0,0,0,453,379.68Zm4.32-146.4q-.9-.18-1.08.36c-4.2,12.36-4.2,23.64,0,33.72l.48-1A54.8,54.8,0,0,0,457.32,233.28Zm-94.2-19.8,37.8,2.28a127.2,127.2,0,0,0-1.2,23.52,817.3,817.3,0,0,1-1.56,95.52,370.15,370.15,0,0,0,.6,64.32c4.92-2.76,6.12-7,3.84-12.48,1.68-16.92,2.88-34,3.72-51.12a882.34,882.34,0,0,0-2.4-119.64A477.94,477.94,0,0,0,458,213.24a11.53,11.53,0,0,0,1.32-3.36l.12-.72.12-.84.12-.72v-.84l-.12-1.68-.12-.84a7.94,7.94,0,0,0-1.44-4,.87.87,0,0,0-.72-.48,807.12,807.12,0,0,1-81.72-.6,21.9,21.9,0,0,0-13.32,1.32,6.28,6.28,0,0,0-1.2,3.24v.84l-.12.84v.72l.12,2.4v.84A5.05,5.05,0,0,0,363.12,213.48Z" transform="translate(-152.61 -188.04)"/></svg>