<svg id="Layer_1" data-name="Layer 1" xmlns="http://www.w3.org/2000/svg" viewBox="0 0 307.93 214.56"><defs><style>.cls-1{fill-rule:evenodd;}</style></defs><path class="cls-1" d="M318.72,310.56a8.21,8.21,0,0,0,.36,3.48,3.49,3.49,0,0,0,1.68,2,15.37,15.37,0,0,0,5,2q21.6,23.22,4.68,50.28c-7,11.16-17,15.84-30.24,14.28-12.6-1.8-19.92-10.08-22.2-24.84q-4.32-28.44,12.84-51.24c8.52-4.08,17-3.36,25.32,2.28Zm-28.56-15.84a74.15,74.15,0,0,0-17.76,32.4q-10.62,41.58,17,72a31.61,31.61,0,0,0,20.76.48q37.26-11.88,36.12-49.8c-.84-33.6-17.52-53.64-49.8-60A24.52,24.52,0,0,0,290.16,294.72ZM169.32,200.4a11.34,11.34,0,0,0-3.72,2.52l-.48-10.56c-4.68,16.44-6.72,34.68-6,54.48.48,15.84.48,31.68,0,47.4l-4.56-.36a7.85,7.85,0,0,0-1.32,4.08v4a6,6,0,0,0,1,3.24l4.32,1.8a594,594,0,0,1-6.6,62c-2,12.24-1,22.92,3.36,31.92A47.86,47.86,0,0,0,161,380.76l3.72-60,.6-12.48a36.81,36.81,0,0,0,16.2-2.4c2.64-1,5.16-2,7.68-3.24,5.88,15.72,12.12,31.68,18.84,47.88a308.76,308.76,0,0,0,30.48,56.4c4.68-10.08,3.36-20.16-3.72-30.12A133.37,133.37,0,0,1,219.36,348a258.56,258.56,0,0,0-24.48-48.48c18.12-11.16,26.64-28.68,25.44-52.8q-2.16-41.58-45-49v.12Zm-1.56,11.52q27.72-5.22,42.48,20.88c5.4,9.48,5.88,19.44,1.56,29.64q-13,31-45.84,31.92,1.62-41.76,0-83.16ZM356.4,206.4A256,256,0,0,1,369,245.88q14.4,62.64,25.08,125.64c1.8,10.8,5.16,19.8,10.08,27.12l.12,1.8q2,2.16,4.32,0a432,432,0,0,0,15-50.28q14.22-62.46,32.52-123.72c3.48-11.4,3.6-21.84.6-31.08a26.86,26.86,0,0,0-5.52,10.92Q434.82,268,419.88,330.6a162.89,162.89,0,0,1-7.32,22.8,128,128,0,0,0-7.68,29.16,926.79,926.79,0,0,0-19.08-94.44c-2.76-10.56-5-21.24-7-31.92a234.13,234.13,0,0,0-20-61.32C355.2,197.52,354.36,201.36,356.4,206.4Z" transform="translate(-150.92 -192.36)"/></svg>