<svg id="Layer_1" data-name="Layer 1" xmlns="http://www.w3.org/2000/svg" viewBox="0 0 434.71 408"><defs><style>.cls-1{fill-rule:evenodd;}</style></defs><path class="cls-1" d="M80.16,83.88Q94.74,79,106.08,89.64q33.12,31.32,22.44,76.8c-8.76,36.84-30,61.56-64,74.16L77.88,140.28A262.66,262.66,0,0,0,80,83.88ZM94.44,69l-10-.84a32.55,32.55,0,0,0-8.16,3.12l-2.16,1.56a15.57,15.57,0,0,0-.84,4,12.67,12.67,0,0,0,.84,5.64l1.08,1.68,2.4.24Q71,123.78,66.24,164.28L57,243.12l-.48.12a7.56,7.56,0,0,0-1.2,3.24A23.45,23.45,0,0,0,55.2,253l.36,1.92-4.56,36L35,417.48a88.32,88.32,0,0,1-3.24,15.84c-3.84,12.36-2.88,22.92,2.88,31.56a436.76,436.76,0,0,0,12.48-71.4q5.94-63.54,14-126.72l1.2-9.6a66.63,66.63,0,0,0,19.2-6.84,58.81,58.81,0,0,0,2.52,15.6q17.1,59.94,37.2,119.28l20.4,61.92a97.26,97.26,0,0,0,14.88,29,6.52,6.52,0,0,0,2.16-4,48.35,48.35,0,0,0-3.24-25.92c-12.36-28.92-23.52-58.2-33.36-88.08Q104,302.76,87,247a68.54,68.54,0,0,0,11.28-9.48q49.14-49.68,36.6-117.6c-4.32-23.88-17-40.68-38-50.64ZM187.8,92.28a383.73,383.73,0,0,1,5.4,66.6q-.18,42.3-24.12,74.64a9.63,9.63,0,0,1-8.16-.48q-12.78-26.1-10.44-57.72a240.6,240.6,0,0,0,0-34.8q-2.7-38.7,27-59l1.08-.12a12.4,12.4,0,0,1,4.32,1.2l-.36,2.28a2.45,2.45,0,0,0,.36,2.28l1.68,1.56ZM176.4,68.16A32.28,32.28,0,0,0,166.2,74a36.63,36.63,0,0,0-12.72,21.48,491.17,491.17,0,0,0-8.28,127.32q1.62,25.74,25.2,27.72a30,30,0,0,0,5.64-6.72c18.12-29.64,26.28-62.16,24.72-97.8-.48-10.68-.6-21.12-.48-31.56.24-17.64-5-32.52-15.84-44.4l-2.52-.72A17.5,17.5,0,0,0,176.4,68.16Zm127.8,32.28q2.16,63,5.4,125.76a734.61,734.61,0,0,1-4.44,129.12,303.48,303.48,0,0,1-15.24,64.44q-14.76,41.58-59.16,33.12l-3.24-3.12a20.86,20.86,0,0,1-6.72-11,227.29,227.29,0,0,1-6.6-58.8l1.92-127.44q1.08-64.8,5.4-129a336.39,336.39,0,0,0-.24-48,1.58,1.58,0,0,0-1.2,1.08,291.62,291.62,0,0,0-8.52,68.76c-.36,43.08-1,86-1.68,129.12l-2.76,129.84a125.28,125.28,0,0,0,8,47.28c5,13.08,14.28,19.8,27.84,19.92,25.56.36,42.72-12,51.72-36.84a361.38,361.38,0,0,0,19.68-88.2,895.78,895.78,0,0,0,2.76-128.28q-2-39.78-2.28-79.56a462.77,462.77,0,0,0-4.8-64.2C305.88,81.48,303.84,90.24,304.2,100.44Zm79.44,166.44c-10.92-1.2-21.84-1.92-33-2.28L343,266.16l-5.88,1.68a10.64,10.64,0,0,0-3,1.68,13.81,13.81,0,0,0-1,7.32l.36,1.56.48,1.08A101.45,101.45,0,0,0,332,303.36a758.74,758.74,0,0,1-6.24,128c-1.68,12.24-.12,22.8,4.8,31.8a457.39,457.39,0,0,0,8.52-66.48c.84-14.64,1.44-29.28,1.56-43.8a4,4,0,0,0,5,1.08,87.81,87.81,0,0,1,25-3.6l.72-.84a12.54,12.54,0,0,0-.72-13.8,66.83,66.83,0,0,0-30,6.48c-.12-20.76-1-41.28-2.52-61.68a170,170,0,0,1,45.48.6,11.57,11.57,0,0,0,2.4-9.84,9.14,9.14,0,0,0-.72-2.4l-.84-1.56A.91.91,0,0,0,383.64,266.88ZM460,259.8l-52.44,4.56a509.39,509.39,0,0,0-4.92,96c1.32,31.32,1.2,62.52-.6,93.6a10.46,10.46,0,0,0,1.08,5.28,36.57,36.57,0,0,0,2.52,4.8,440.24,440.24,0,0,0,8-116.4l46.2-1.8q5.4-8.46-.36-16.56l-46.2,6.48-3.72-59.88a224.42,224.42,0,0,0,52.32-.36c3.24-5,3.12-9.72-.48-14.16ZM356.64,178.08l.48,10.2L378.24,191a122.19,122.19,0,0,0,1.08,52c7.8-20,8.88-41.88,3-65.76a41.11,41.11,0,0,0-24.36.24Zm10.2-102.84a70.48,70.48,0,0,0-27.36,41.28,418.37,418.37,0,0,0-8.16,44c-3.48,27.48.36,53.16,11.52,77.28a12.14,12.14,0,0,0,12.72,0c14.28-8.28,18.6-18.84,13-31.92q-6.3,16.74-23,16.2L343.92,218a157.81,157.81,0,0,1-7.2-51.12q.9-45,29.88-77c2.64-.12,5.28-.12,7.8,0v.24l2.28,4.68,1.08.72a9.07,9.07,0,0,0,3.36-7c.36-5.28-1.68-9.6-6.12-13.08Zm89.88.84a637.25,637.25,0,0,0-7,76.32,212.91,212.91,0,0,0-37.44,3.6,745.63,745.63,0,0,0-1.92-80.28c-.84,0-1.2.36-1.32,1.2-1.68,12-2.88,24.12-3.48,36.36q-3.78,64.44-5.4,128.4a3.78,3.78,0,0,0,3.48,1.92,2.67,2.67,0,0,0,1.08-1.56c1.92-12.6,3.48-25.2,4.56-37.92s2-25.08,2.64-37.68a150.26,150.26,0,0,0,37.44.12c-.48,19.92-1.56,39.72-3.12,59.52-.72,9,1.44,15.36,6.36,18.84a320.43,320.43,0,0,0,3.6-40.56q1.8-65,1.08-128.28Z" transform="translate(-29.5 -68.16)"/></svg>