<svg id="Layer_1" data-name="Layer 1" xmlns="http://www.w3.org/2000/svg" viewBox="0 0 595.57 842.18"><defs><style>.cls-1{fill:#fff;}.cls-2{fill:none;stroke:#fff;stroke-linecap:round;stroke-linejoin:round;stroke-width:0.38px;}.cls-3{fill-rule:evenodd;}</style></defs><rect class="cls-1" x="0.31" y="0.31" width="595.08" height="841.68"/><rect class="cls-2" x="0.19" y="0.19" width="595.2" height="841.8"/><path class="cls-3" d="M387,514.68c0,16.08-.84,31.92-2.4,47.64a80.31,80.31,0,0,0,2,30.24.91.91,0,0,0,.48-.84c3.6-40.68,5.28-81.6,4.92-122.52A185.43,185.43,0,0,0,387,514.68Zm48.84-44.88a540.39,540.39,0,0,0-39.6,56.76,38.43,38.43,0,0,0-5.52,23.28l13.44-22.92a307,307,0,0,0,34.2,63.24,6.6,6.6,0,0,0,1.8-7.92l-33.6-59.4,30.72-48.24ZM345.72,543Q322.14,529.68,312,554.76c-5.88,14.88-3.36,28,7.8,39.12,14.28,4.56,26.52,1.68,36.48-8.76a27.6,27.6,0,0,0,6-9.6q-23.58,16.74-43.2,1.8-12.06-9-2.52-20.52c8-9.48,18.12-12.48,30.24-8.88ZM322.8,491q-13.68,19.62,8,37.32c10.44,8.52,19.68,7.44,27.72-3.12,7.68-10.08,9.48-21.12,5.4-33A154.75,154.75,0,0,0,341.4,449a34.38,34.38,0,0,1-6.72-23.76c14.76-9.24,26.4-6.6,34.92,8.16l.12-7.08c-10.32-18.36-21.36-19.8-33.12-4.56-4.32,5.52-5.52,11.88-3.72,19a109.52,109.52,0,0,0,20.88,40.68c10,12.36,11.16,25.44,3.6,39.36-23.64,7.32-34.8-1-33.24-24.72A8.39,8.39,0,0,0,322.8,491ZM31,13l-2.52.6-.24.84L27.84,16v.84l.36,1.56,2.16.84a939.17,939.17,0,0,0-3.84,115.32c1.08,42.84,2,85.92,2.76,129s1.2,86,1.56,129.12q.54,64.08-3.24,128.16C26.4,543,26,564.36,26.52,585l3-1.08a1200.13,1200.13,0,0,0,6.12-125l-.24-129q-.18-30.42-.72-60.84c6.36,2,12.24,1.92,17.64-.24L56.4,267a456.21,456.21,0,0,0,17.76,68.16A1093.81,1093.81,0,0,1,108.48,458a907.65,907.65,0,0,0,35.4,122.4c2-1.08,2.76-2.88,2.16-5.28-8.52-36.6-17.64-73.32-27.48-109.92-8.28-30.72-16.92-61.32-25.68-91.92Q77,318.6,60.24,265a52.38,52.38,0,0,0,18.12-18.12,196.48,196.48,0,0,0,27.36-87.6,303.3,303.3,0,0,0-8.28-95.52Q87.36,23.58,49.8,11.88a60.16,60.16,0,0,0-18,.84L31.68,8.4h-.24ZM58.44,23.52Q91.2,42.42,97.08,80.64a311.88,311.88,0,0,1-6.6,127.8Q81.84,241,55.8,251.16l-.36-.84A1.55,1.55,0,0,0,54,251.76a70.85,70.85,0,0,1-19.68,3.6c-.36-18.24-1-36.48-1.68-54.6q-2.52-63.9-1-128.28c.48-18.12.6-35.76.24-52.8a63.64,63.64,0,0,0,19.44,2.16A12.17,12.17,0,0,1,58.44,23.52Zm90.48,55q36.9,2,35.88-33.84-1.08-37.8-40.92-36.48a25.57,25.57,0,0,0-14.16,10.08q-21.78,30.6,5,58.08A70.9,70.9,0,0,0,148.92,78.48Zm-12.6-56,28.2-3.72a34,34,0,0,1,16,17.76c3,17.76-4.56,28.56-22.8,32.52s-29.16-3.24-32.88-21.6a28.39,28.39,0,0,1,5.88-24.72l7.8-4.56ZM293.16,13.2c-1.32,36.36-1.2,72.72.12,108.84,1.56,43.08,2.88,86,4,129.12s.84,85.92-.72,129q-2.34,64.26-10.44,127.68a115.1,115.1,0,0,1-16.2,46.08Q255.12,577.86,227,569.4a21.59,21.59,0,0,1-11-8c-8.28-11.52-12.84-24.72-13.8-39.6-2.88-42.6-4.2-85.32-4-128.4.36-42.84.24-85.92-.12-129s-.48-86.16-.36-129q.18-65.16,1.56-128.28a378,378,0,0,0-7.68,84.36c.72,43.08,1,86,.6,129.12s-.72,86-1.32,129c-.6,42.72.36,85.44,2.64,128.16L197,542q2,36.9,36.72,44.28c19.08,4.08,32.76-2.88,41.28-20.88a236.21,236.21,0,0,0,21.72-79.56q5.94-64.26,7.8-129.24c1.2-43.08,1.2-86-.12-129.12s-2.76-86.16-4.44-129c-.84-21.6-.72-43.2.48-64.8.6-10.44-1.44-18.12-6.36-22.92A3.81,3.81,0,0,0,293.16,13.2Zm109,318.12q-7.38,31.86-16.32,63.48c-2.76-10.56-4.92-21.24-6.72-32-2-12.24-4.68-22.44-7.92-30.72a207,207,0,0,1-7.2,36.12c-4,13.32-4.56,25.32-1.68,35.76l.48-1.56c2.64-16.92,5.88-33.36,9.84-49.44a322.31,322.31,0,0,0,12.72,54l.72-.6A209.22,209.22,0,0,0,402.84,331,.5.5,0,0,0,402.12,331.32Zm28.44-69.84-34.44,5.64v4.8l19-.84A239.51,239.51,0,0,0,412.8,337l5.52-66.24L432,267.6Zm-3.48-100-1.32-28.44c21.12,3.72,24.48,11.76,10,23.88A22.92,22.92,0,0,1,427.08,161.52Zm9.12,51.72a152.05,152.05,0,0,0,31.32-1.08q-2,47.34-.84,97.08c.84,32.4.12,64.56-1.92,96.48a351.74,351.74,0,0,0,1.68,64.8,11.05,11.05,0,0,0,3.24-7.8c1.56-43.08,2.28-86,1.92-129.12q-.54-61.2-3.36-121.56a149.31,149.31,0,0,0,22.32-5l.6-1c1.8-3.72,1.2-6.48-1.92-8.28a283.31,283.31,0,0,1-53,9l-.48,1.56A9.77,9.77,0,0,0,436.2,213.24Zm-58.44-79.32a204.77,204.77,0,0,1-17.88,61l-6.36-64.8A259,259,0,0,1,334.8,191.4a11.67,11.67,0,0,0-1,7A220.63,220.63,0,0,0,353,147.24L358.8,204A143.06,143.06,0,0,0,378,155.88a168.37,168.37,0,0,0,11.64,52c-1.68-18.48-4.2-37.68-7.44-57.72Zm42.72-3.84,4.32,2.52-1.32,30.12-1.44.48-.48,6.48h1.92l2.28,30.24,1.44-30.48c10.44-1.32,17.28-6.72,20.76-16.32,3.24-9.24,1.08-16.56-6.48-21.84a25,25,0,0,0-12.84-4.68ZM361.2,74.16l-26.28,2-.6-3.84-1.8,4.08-3.48.12,3.12,2a195.34,195.34,0,0,0-.24,68.88l1.68-39c13.08,2.88,24.48,0,34-8.76l-2.76-2c-7.92,1.8-16,3.48-24.24,5a16,16,0,0,0-7,2.76l1.08-25.68c9.24,3.48,17.88,2.88,26.16-1.92ZM390.84,71l2.76,3.48-.72,24-.72,1.2.72,1.8,1,38.76,2.28-37A19.78,19.78,0,0,0,412,104.64a14.57,14.57,0,0,0,6.84-4.32c-3-4-7.08-5.4-12-4.44L396,97.44l-1.32-22.2a39.35,39.35,0,0,0,24.84,5.64l4.2-.48L425,76.56l-3-4.08L394.2,69.84Zm-3.72-55.92c-13.8-12.12-25.68-8-35.4,12.12-6.12,12.6-6.6,25.32-1.32,38.28l6.24,5.16c14.52,3.12,25-1.92,31.32-15.24l-.6,6.36c4.08-2.88,5.28-8.16,3.6-16l-1.08-3.12L369.72,41.4c3.72,4.68,8.64,6.72,15,6.12L388,47.4l.12,6.72c-11.16,10-22.32,10.92-33.6,2.76-5.52-4-7.2-9.48-5.16-16.32,5.4-17.64,17.28-25.44,35.4-23.52Zm61.32,16.32a75.13,75.13,0,0,0-29.28.24l-3.6.84V5L412.32,33.6l-3.72,1.56,3.6,1.08L414,68,415.44,37a80.45,80.45,0,0,0,33,.12L451.8,70.8,451.56,3ZM574,39.6q-9-33.3-42.6-38.52-31.32,20-38.52,57.6a123.47,123.47,0,0,0,3,59.52A526.35,526.35,0,0,0,520,182.52,430.83,430.83,0,0,1,555,307.8c2.52,20.52,5.52,40.92,8.88,61.32a398.48,398.48,0,0,1,1.56,120.6q-6.3,44.28-40.08,70.44c-8.88,6.84-18.6,10.08-29,9.6a11.77,11.77,0,0,1-9.12-4.8c-10.44-14.64-15.72-31.56-16.08-50.64a4.13,4.13,0,0,0,.48-2.4l-.24-2.4-.24-.84a10.87,10.87,0,0,0-3.72,6.48,90.8,90.8,0,0,0-2,22c.48,20.28,8.28,36.48,23.28,48.84a10.19,10.19,0,0,0,7.32,2.4q45.36-4.86,61.8-47.52a278.09,278.09,0,0,0,17.16-126.72c-1.92-21.24-3.72-42.36-5.28-63.6a608.18,608.18,0,0,0-21-119.52,218.5,218.5,0,0,0-13.56-36.12A607.87,607.87,0,0,1,497.76,96a70.57,70.57,0,0,1,2.76-47.88q11.7-27.9,39.24-33.72c12.36,4.44,20.88,12.48,25.68,24a73.53,73.53,0,0,0,7.92,14.88A20.57,20.57,0,0,0,574,39.6Z" transform="translate(0.19 0.19)"/></svg>