<svg id="Layer_1" data-name="Layer 1" xmlns="http://www.w3.org/2000/svg" viewBox="0 0 546.36 560.28"><defs><style>.cls-1{fill-rule:evenodd;}</style></defs><path class="cls-1" d="M336.72,217.92c0,4.8-1.56,24.6-4.8,59.28s-5.52,57.6-7.08,69.24v41.4l-1.56,17.52c-.6,7.56-1.8,13.32-3.6,17.4-2.76-5.4-4.92-12.84-6.36-22.2-2.16-13.56-3.48-21.36-4-23.28-4.2-16.56-7.8-31.92-10.8-46.2-5.16-24.48-11.28-55-18.12-91.56-.36,2.88-.72,7.2-1.08,13.08S278.64,263,278.28,266v45.24a446.54,446.54,0,0,0-5.4,56q-.36,9-.36,28.08c-.48,11.16-2.4,20.28-5.88,27.36a8.8,8.8,0,0,1-1.92-6c0-13.08,1.2-32.16,3.6-57,2.64-26.4,4.32-44.4,5-53.88V261.36l1.56-26.88c.6-10.8,1.8-18.84,3.6-24.24q5.58,30.06,19.8,91.56,14.22,61.92,20,92.52h.48A57.11,57.11,0,0,1,319.92,383V340.8a649.18,649.18,0,0,0,6.48-64.92c1-17.16,1.68-27.84,2-31.92,1.2-12.6,3.12-23.64,5.88-32.88a10.84,10.84,0,0,1,1.92,3.36A10.17,10.17,0,0,1,336.72,217.92ZM104.4,76.32a123.36,123.36,0,0,0-4-12.48,28.44,28.44,0,0,0-7.68-10.92c-8.28-7.08-24.12-10.56-47.52-10.68L43.8,84c-1.08,31.68-1.56,51.6-1.56,59.76l2.16,71.52L44,229l.12-.12,10.08-5.76a92.48,92.48,0,0,0,15-12,192.7,192.7,0,0,0,13.68-15,136.42,136.42,0,0,0,11.52-15.84c4.8-7.8,9.36-17.76,13.8-29.64,4.92-13.56,7.44-24.24,7.44-32,0-1.8-1.68-9-5.16-21.36Zm-2.64-28.56a54.5,54.5,0,0,1,7.08,13.92L118,90a104.48,104.48,0,0,1,4.2,27.72c0,12.36-2.76,26.52-8.4,42.24a213.79,213.79,0,0,1-20.64,43,206.42,206.42,0,0,1-14.88,21Q89.58,252.54,92,296.64c1.68,11.4,4.32,25.68,7.8,43.08l8.64,43.08,7.32,43c3,18.12,5.76,32.64,8.52,43.8,2.76,11.4,8.28,29,16.68,52.92,7.56,21.6,11.4,32.64,11.4,33.12a17.92,17.92,0,0,1-2.64,9c-12.84-23.4-23-51.6-30.6-84.84-2.52-11.52-5.4-26-8.52-43.44l-7.56-43.08L83.4,292.08q-8.82-44.46-11.64-60.84l-5.28,5.16C57.84,244.32,50,248.76,43.2,249.6l-.48,7.92L41.16,289.8,43.32,360l-.72,24.24-1.44,37.44v41.4L40.08,468v60l-1.56,16.2a45.84,45.84,0,0,1-4.44,17.16,9.74,9.74,0,0,1-4.2-4.92,12.74,12.74,0,0,1-.6-4.08,121.41,121.41,0,0,1,4.32-30.84V463.08a33.2,33.2,0,0,1,1.08-4.8V416l1.44-33.84.72-21.72-2.16-70.32c0-8.28.48-20.88,1.56-37.56L37,242.4l-.12-1.56a22.36,22.36,0,0,1,.36-4.32q.72-13.5.72-21.24l-2.16-71.52c.72-29.4,1.08-51.48,1.08-66.12,0-17.4,1.08-31.56,3.36-42.72l-.12-1.08a16.24,16.24,0,0,1,1.32-7.32,5.4,5.4,0,0,1,1.8-1.92c.36-.48.6-.6.84-.48A8,8,0,0,1,47.64,23c7-.84,20.52,2.76,40.8,11A55.55,55.55,0,0,1,101.76,47.76ZM327.48,147a39.12,39.12,0,0,0-7-22.2q-10.26-15.48-31.68-15.48l-7.2-.24,1,26.88c0,5.52-.48,14.28-1.44,26.4-.84,11-1.8,19.32-3,25,14.16-.12,26.4-5.76,36.6-16.68a59.42,59.42,0,0,0,9.6-13.8C326.4,152.64,327.48,149.4,327.48,147ZM253.08,39.48a24.23,24.23,0,0,1,.36-5.28c.48-2.52,1.68-4.08,3.48-4.68,1.44,3,2.52,10.44,3.24,22.44.36,7.08.48,13.92.48,20.52q0,37.62-2.16,81.6-1.62,32.76-5.4,83.28v62.28c-.36,3-.72,7.56-1.08,13.44s-.72,10.32-1.08,13.32v63.36c-.48,9.48-1.44,24.24-3,44.16C246.72,452,246.24,467,246.6,479q.36,13-4.68,29.16a136.4,136.4,0,0,1-12.6,28.92,106.2,106.2,0,0,1-16.08,22.08c-5.88,5.88-10.92,8.88-15.36,8.88q-31,0-38.88-44.4c-1.8-9.6-2.64-20.76-2.76-33.6l.6-22q0-23.94,1.08-35.28V385.68L159,381.6V336.24c.72-4.32,1.08-10.8,1.08-19.56,0-9.24-.36-16-1.08-20.28V233.28l-1.08-4.92V138.24c-.72-8-1.08-20.64-1.08-37.68,0-18.72.36-32.64,1.08-41.88,0-4.2,1.08-11,3.24-20.28,1.68-7.32,3.6-10.32,5.64-9.12s3,4.08,3,9.12l-3.24,21.24a287.47,287.47,0,0,0-3.24,41.64q0,20.7,1.08,31.32v89.28a35.67,35.67,0,0,1,1.08,4.92v63.12c.72,5.88,1.08,14.88,1.08,26.76a234.53,234.53,0,0,1-1.08,26v46.2a35.67,35.67,0,0,1-1.08,4.92v46.32c-.72,5.88-1.08,15.12-1.08,27.6l1.08,42.12v10.8a32.4,32.4,0,0,0,1.92,10.44q4.5,11.34,23.76,19.08h7.8q24.84-19.26,35.76-41.64c5.88-12.12,9.12-26,10-41.76.24-5.88.12-12.84-.24-20.88l-1.08-21q-1.26-25.74,2.16-42.12V321c.36-3,.72-7.56,1.08-13.8s.72-10.8,1.08-13.8V231.12c1.68-17.28,3.12-39.36,4.44-66.12l3.12-67.08V47.64A26.35,26.35,0,0,1,253.08,39.48ZM284.4,96.6l12.24-5.52c5.4-2.4,9.48-4.8,12.12-7.2A15.46,15.46,0,0,0,314.28,72c0-1-.72-2.88-2.28-5.76a41.26,41.26,0,0,0-7-10c-7.2-7.68-15.6-11.16-25.2-10.56l.48,11.52.12,25.56.72,16A18.92,18.92,0,0,1,284.4,96.6Zm-3.84-62.88c4.44,0,9.72,1.8,15.84,5.28a54.54,54.54,0,0,1,15.84,13.56q7.2,9.18,7.2,18.72A43,43,0,0,1,317,84.72c-2,5.76-4.68,10.08-8.16,13,8,4.32,14.4,12.24,19,23.88a75.85,75.85,0,0,1,5.64,27.84c0,1.56-.84,4.68-2.52,9.48a95.78,95.78,0,0,1-8.28,17.28q-15.12,24.12-38.16,24.12l-9.24-.36c-1.32-1.44-1.92-3.48-1.92-6.12a10,10,0,0,1,.6-3.48l.84-1.68a20.63,20.63,0,0,1-.36-4.08c0-5,.6-13.32,1.68-24.72s1.68-19.56,1.68-24.48c0-4.2-.36-14-1.08-29.4s-1.08-25.8-1.08-31.44V52.2a25.5,25.5,0,0,0-.24-5.88h-.12a9.12,9.12,0,0,1-1.92-6.12,5.67,5.67,0,0,1,2.28-5,7.43,7.43,0,0,1,2.88-3.48l.36,2.28ZM395.28,318.6c2.76,1.8,4.2,4.92,4.2,9.24a15.72,15.72,0,0,1-1.8,7.32l-7-5.64c-3.72-3.12-7.08-4.68-10.2-4.68q-27.9,0-38.28,48.24c-3.72,16.56-5.52,36.24-5.52,59.16,0,21.24,1,42,2.76,62.28,2.76,29.64,6.72,45,12.12,46h8.64c7.92-4,14.16-10.44,18.72-19.32l4.68-10.32a51.1,51.1,0,0,1,3.48-7.2V478.56l-20.88-.6a10.5,10.5,0,0,1-3.36-3.6,9,9,0,0,1-.72-3.72,15.57,15.57,0,0,1,.12-3,4.56,4.56,0,0,1,2.64-2.52c3.6-1.44,12-1.32,25.08.48a150.13,150.13,0,0,1,1.92,22.32v44.64A150.13,150.13,0,0,1,390,554.88l-2.16-2.16a3.19,3.19,0,0,1-.72-1.92V524.64a85,85,0,0,1-5.52,10.92c-6.36,10.68-13.44,16.92-21.36,18.48l-9.12-.24a48,48,0,0,1-15.36-30.36c-.36-2.88-.48-7.92-.6-15.24a115.6,115.6,0,0,0-1.08-15.36c-1.44-8.28-2.16-20.52-2.28-36.6l.12-23.76a378.67,378.67,0,0,1,5.88-68.28q9.36-51.48,30-52.68C381.84,313.32,391,315.6,395.28,318.6ZM554.52,48.48c3.24,3.6,4.92,7.44,4.92,11.64A18.1,18.1,0,0,1,556.68,69q-1.26-.72-3.24-4a23.3,23.3,0,0,0-4.68-5.64q-8.82-7.2-34.2-7.2c-26.28,0-44.76,12-55.2,36a94.77,94.77,0,0,0-8.16,38.16q0,19.26,19.44,59.16c7.8,16,22.08,43.68,42.84,82.92C532.32,306,546.6,339.72,556.2,369.36q19.44,59.94,19.44,113.28c0,12.72-4.32,25.68-13,38.76q-11.16,16.74-30.24,32a186.1,186.1,0,0,1-34.08,21.84Q482,583.2,473.88,583.2c-21.72,0-39.72-10.92-53.76-32.64a107.12,107.12,0,0,1-12.48-26.76c-2.76-8.4-4.08-15.48-4.08-21.24a36.81,36.81,0,0,1,.48-7.68,11.52,11.52,0,0,1,5.52-7.68c3.84,3.24,5.4,6.24,4.56,9l-1.56,3.6a9.86,9.86,0,0,0-1.08,4.08c0,12.36,6.72,25.92,20.28,40.92a98.58,98.58,0,0,0,16.44,15c5.64,4,10,5.88,13,5.88q49.14,0,83.16-40.32a143.16,143.16,0,0,0,19-28.68c4-7.92,5.88-13,5.88-15.12q0-33.66-18.12-91.44a662.56,662.56,0,0,0-33.48-86.4c-11.4-23.88-23.28-47-35.4-69.48-11.16-20-18.6-33.72-22.32-40.92C454.08,182,450.12,172,448.08,163.2c-2.28-9.72-3.36-22-3.36-36.72q0-41.22,17.88-65.16a63.59,63.59,0,0,1,39.48-25.2c14.16-2.88,27.36-1.68,39.48,3.48A39.23,39.23,0,0,1,554.52,48.48Z" transform="translate(-29.28 -22.92)"/></svg>