<svg id="Layer_1" data-name="Layer 1" xmlns="http://www.w3.org/2000/svg" viewBox="0 0 542.88 537.36"><defs><style>.cls-1{fill-rule:evenodd;}</style></defs><path class="cls-1" d="M170.28,466.2l-.12,4,.12-4.32v.36ZM326.4,526.44c-3,19-5.4,31.32-7,37.08h-1.68a69.83,69.83,0,0,1-.48-7.32c0-8.28,1.68-23.4,4.92-45.12,3.12-21,5.4-33.36,7-36.84,1.8,3.24,2.76,6,2.76,8.52,0,4.44-1.08,14.16-3.36,29.16,3.48-4.32,8.4-10,15-17l21-22.08a8.41,8.41,0,0,1,2.16,3,6.37,6.37,0,0,1,.84,2.64c0,1.32-6,8.76-18.12,22.32,2.28,7.2,6.12,18,11.28,32.4,6,16.56,9,25.44,9,26.52a9.05,9.05,0,0,1-.48,3.36,8.55,8.55,0,0,1-1.92,2.64c-3.12-5.28-7.8-16.8-14-34.44-4.44-12.48-7.2-21-8.28-25.44-10.56,11.76-16.32,18.48-17.16,20Zm-26.64-50.28c1.2,1.08,1.8,2.64,1.8,4.92,0,2.64-.84,4.44-2.4,5.52a14,14,0,0,0-2.88-1.68,12.27,12.27,0,0,0-4.2-1c-14.64,0-24.48,6.6-29.4,19.8-2.28,5.76-3.36,13.08-3.36,21.84l-.24,5.4a27.55,27.55,0,0,0,1.08,9.24c2.64,8.28,9.36,12.48,20,12.48,7.56,0,15-2.88,22.08-8.52a59.06,59.06,0,0,0,6.48-6l3.12-3.36,1.2,2.28a9.69,9.69,0,0,1,.36,3c0,1.2-.6,3-1.92,5.52a48.55,48.55,0,0,1-5.52,7.8c-6.12,6.84-13,10.32-20.4,10.32-16.08,0-25.92-6.24-29.4-18.6a41.41,41.41,0,0,1-1.32-13.08l.72-6.48c0-13.32.84-22.68,2.4-28.2,3.24-10.8,10.2-19,21.12-24.6C289.68,472.2,296.52,473.4,299.76,476.16Zm4.68-51.84a2.43,2.43,0,0,1,2.16-1.44l20.4,1.56c.72,1.32,1.32,4.8,1.92,10.68a97.26,97.26,0,0,1,.84,11.16c0,8.16-.6,14.4-1.68,18.72-1.92-1.68-2.88-5.28-2.76-10.92l.12-1.68-2.52,4c-3.72,5.16-7.8,7.8-12.48,7.8-20.28,0-32.64-3.72-37.32-11.28a15.09,15.09,0,0,1-2-8.76l.72-5.88c0-12.84,2.16-23.28,6.36-31.2,6.84-12.6,19.08-20.88,37-24.84a8.37,8.37,0,0,1,2.64,6.12,9.69,9.69,0,0,1-.36,3l-1.2,2.28a2,2,0,0,1-1.44-.6q-22,4.14-32,20.16a46.75,46.75,0,0,0-7.08,25,14.79,14.79,0,0,0,3.24,9.36c2.88,3.72,7.08,5.64,12.72,5.64,16.68,0,26.88-1.8,30.84-5.4a7.88,7.88,0,0,0,2.28-4.56c.36-2.16.6-3.48,1-3.84v.12l-.6-4.2q-14.94-.9-19.08-3.6a3.4,3.4,0,0,1-1.68-2.28v-2A15.57,15.57,0,0,1,304.44,424.32ZM133.56,390.24c-6.84,1.44-12.72,6-17.76,13.68-5.4,8.28-8,17.76-8,28.56,0,6.72,1.32,12.24,3.84,16.56,4.56,7.8,12.72,11.64,24.6,11.64,7.08,0,13.08-4.44,17.88-13.44a52.28,52.28,0,0,0,4-9.48l1.2-4.44c0-16.08-2.64-28-8-35.52Q144.18,387.9,133.56,390.24Zm20.28-1.68c6.12,9.72,9.12,24.6,9.12,44.76a45.42,45.42,0,0,1-1.08,7.32,79.71,79.71,0,0,1-3.72,13.08q-6.84,18-17.64,18c-17.88,0-29.4-6.24-34.32-18.6a38.69,38.69,0,0,1-2.52-13.32l.36-7.32c0-14,3.12-26.4,9.24-36.84,5.64-9.72,12.48-15.36,20.28-17.16C141.72,376.68,148.44,380,153.84,388.56Zm-109.2-341Q43.74,83.16,34,266.76c2-2.28,4.8-5.4,8.4-9.24q16.38-17.46,25.56-28.8,37.26-46.44,37.2-87.6c0-12.6-3.48-31-10.32-54.84A37.21,37.21,0,0,0,82.56,67.92Q75.9,62.34,64.2,57.12L47.64,49.56Zm52,21.24,3.12,8a137.78,137.78,0,0,1,9.12,32.4,220.38,220.38,0,0,1,1.92,31.8c0,9.84-1.92,21.24-5.64,34.2A217.41,217.41,0,0,1,89,214.56a207.68,207.68,0,0,1-22.68,35.28,62.59,62.59,0,0,1,2,9.6c.6,4.92,1.32,12,2,21.24.84,4.2,1.92,10.92,3.24,20s2.4,15.6,3.24,19.8c2.4,10.68,4.56,24.12,6.48,40.2l4.68,40.2c2.28,15.6,8.16,46.68,17.88,93.36q13.5,64.62,13.44,67a15.89,15.89,0,0,1-2.16,7.68c-4.68-10.2-8.76-23-12.36-38.4-1.44-6.24-4-19.44-7.68-39.48-1.32-7.68-3.48-20.88-6.48-39.48C88,434,85.68,421,84,412.2c-3.48-18.48-8.52-48.72-14.88-90.6-5.4-36-8.52-57.48-9.12-64.44A124.92,124.92,0,0,1,33.36,279.6L32,304c-.6,12-2,34-4.44,65.88-2,27.6-3.24,49.44-3.84,65.64-.24,8.52-1.08,19.44-2.64,33q-2.7,24.84-3.24,32.76l-2,32.88a279.07,279.07,0,0,1-4,32.64c-1.32-.84-2.4-2.52-3-5a21.36,21.36,0,0,1-.72-5.64q0-8.82,7.56-111.84Q23.46,340,27.6,293.4q3.42-99,5-130.68C34.8,117.24,37.56,77.4,41,43.44a7.12,7.12,0,0,1-.6-2.76c0-5,.84-7.92,2.52-8.76,1.32-.6,3.6,0,6.84,1.92l10.44,6.72A46.46,46.46,0,0,0,73.44,46Q86.58,51.9,92.52,60.72A55.18,55.18,0,0,1,96.6,68.76ZM268.8,47V69l-.6,17.52-1.56,26.28V160l-3.24,71.4v85.92l-1.08,4.08v43c1.56,7.8,1.92,22.2,1.08,43a533.89,533.89,0,0,1-6.36,68.4c-4.2,26.76-10.08,47.76-17.4,63.24-8.76,18.6-19.2,27.84-31.44,27.84q-23,0-31.68-50.52a294.25,294.25,0,0,1-3.6-35.16l-.48-16.44q0-31,4.8-112.8l6.12-98.76V164.76l3.24-47.88V44.64a13.1,13.1,0,0,0,.48-4.08l.72-.48L189.24,39c2.52,1.32,3.84,4.2,3.84,8.88l-.36,3.24-.72,2.4V124.2l-3.24,47V260.4l-6.48,118.44q-4.5,81.18-4.44,85.8c0,4,.24,9,.6,15.36a247.51,247.51,0,0,0,3.6,29.64c5,28,13.56,42,25.68,42,13.2,0,24.24-10.92,33-32.64a174.41,174.41,0,0,0,11.88-49.44c2.64-18.48,4-33.36,4-44.52q-.72-20-.72-37.8a283,283,0,0,1,1.08-28.8V317a31.92,31.92,0,0,1,1.08-4.92V226.2l3.24-71.4V106.08c.48-5.16,1-12,1.56-20.52l.6-14a94.89,94.89,0,0,0-1.56-13.32c-1.08-6.48-1.68-10.08-1.68-10.68a17.08,17.08,0,0,1,1-5.4,7.61,7.61,0,0,1,2.28-3.72Q267,35.88,268.8,47ZM475.92,396l-1,5.52a34.92,34.92,0,0,0-.72,6.84c0,12.36-1,34.8-2.76,67.08q-2.7,47.34-6.48,73.68c26.52-5.16,47.4-18,62.76-38.76a102.38,102.38,0,0,0,14.16-26.76c2.88-8.28,4.32-15.6,4.32-22.08,0-17.52-4-31.44-11.76-41.64-5.88-7.8-14.52-13.8-25.68-17.76a117.43,117.43,0,0,0-13.68-3.84l-11.88-2.64a30.92,30.92,0,0,1-7.2-2.52Zm-3.36-14.4.24-.12q1.26-1.26,5.4,0l12.6,4.08c7.32,2.28,14.76,4.2,22.32,5.88a44.18,44.18,0,0,1,17,10.08A39.39,39.39,0,0,1,540,413.64a108,108,0,0,1,8.16,23.64A105.3,105.3,0,0,1,551,461.52c0,10.68-2.76,22.2-8.16,34.68A151.54,151.54,0,0,1,523,529c-8,10-16.32,18.12-25,24.24-8.76,6.36-16.44,9.48-23,9.48l-12-.24-1,4.32c-1.56-1.8-2.4-4.68-2.4-8.64V556c.12-18.12,1.92-49.44,5.16-94,2.76-38.76,5-64.2,6.84-76.08l.48-3.12.24-1.68Zm-50.88,12.72c-15.48,6.84-24.48,15.36-27,25.8-.72,2.88-1.08,7.32-1.2,13.44-.12,5.88-.48,10.32-1.32,13.32-1.44,5.64-2.52,10.68-3.36,15l2-.12c16,0,28.92-1.92,38.76-5.64,2.16-.84,3.36-1.08,3.48-.48s.24,2.88,0,7.08a10.56,10.56,0,0,1-2.4,6.84l-22.92,3.24-19.92,3-1.08-1.2-.12,2c0,1.44.12,4.44.48,9.12.36,4.92.48,9.72.48,14.64,0,12.6.24,20.64.72,23.88,1.08,8.16,4,16.92,8.76,26.28l5,.48,7.08.6q16.2,0,27.72-19.08,5.4-9,10.44-24.84c1.56.6,2.52,2,2.88,4.08l.12,4.56c0,1.08-.6,3.72-1.92,8.16a93.6,93.6,0,0,1-6.72,16.56c-8.16,15.72-18.36,23.52-30.6,23.52l-4.2-.36-11.52-.72c-6.48-10.8-10.44-21.36-11.76-31.68-.6-4.08-.84-14.4-.84-30.84a409.59,409.59,0,0,1,5.64-69.24q10.08-57.24,33.48-50.4v-.48c13.08,1.08,21.36,2.64,24.84,4.92a4.9,4.9,0,0,1,2.4,3.24l.12,3.72a14.52,14.52,0,0,1-1.92,7.32c-.6,0-2.64-1-6.24-3a20,20,0,0,0-9.72-3ZM382,380.88c2,.6,3.36,1.68,3.84,3a19,19,0,0,1,.24,3.72c0,4.44-1.08,17.4-3.24,38.76-2.16,22.44-3.84,35.64-4.92,39.72a3.73,3.73,0,0,1-3-2.76,17.61,17.61,0,0,1-.24-3.24c0-4,.72-10.68,2.16-20.4l1.8-13.44-19.8-.6a31.31,31.31,0,0,0-7.2,1l-.48,5.52c-1.56,17.64-3,28.92-4.08,33.72l-1.32.24a17.9,17.9,0,0,1-1.44-7.68c0-5.52,1.08-18.72,3.36-39.6,2.16-20.52,3.6-31.68,4.2-33.36a14.68,14.68,0,0,1,1.68,7.32c0,5.52-.36,13.08-1.08,22.56a20.47,20.47,0,0,1,6.72-1l20,1.32.24-15.84C379.56,391.32,380.4,385.08,382,380.88Zm-4.44-84.36a19.69,19.69,0,0,1,.6,4.44c0,3.48-4.92,17.52-14.88,42.12L344,389.52a408.37,408.37,0,0,1-26.52-34.32c-12-17-20.64-28.92-25.92-35.52a291.34,291.34,0,0,1-1.68,32.16,234.57,234.57,0,0,0-1.68,25.44,11.5,11.5,0,0,1-2.64,7.92c-1.56-1.2-2.64-3.84-3.24-8l-.6-6.48q0-9.9,1.8-30.24c1.68-19.8,4-33,7-39.48a374.4,374.4,0,0,1,27.84,35.76l23.76,35.76q3.42-8.28,8.64-23.4c3.72-11.28,6.6-19.56,8.4-25,6.72-19.08,12.36-29.64,16.8-31.8A19.13,19.13,0,0,1,377.52,296.52ZM370,177.36a19.13,19.13,0,0,1-1.56,4.2c-.6-.24-1.2-1.08-2-2.52l-2.4-4.2a11.85,11.85,0,0,0-10.44-5.76c-14.28,0-24.6,2.4-30.84,7.32a17.09,17.09,0,0,0-4.32,5.16,5.53,5.53,0,0,0-.84,2.52c0,6.6,2.76,12.36,8.16,17.16a74.46,74.46,0,0,0,8.28,6.12l9.6,5.88c8,5.16,14,10.56,17.76,16.08,5.4,7.8,8.16,17.52,8.16,29.16,0,8.76-2.16,16.44-6.6,23-6.6,9.84-18,16.2-34,19.2-13.44.6-24.12-2.76-32-10.32a28.59,28.59,0,0,1-6.6-8.64c-1.32-2.52-2-4.44-2-5.76a13.59,13.59,0,0,1,.72-4.32,7,7,0,0,1,2-3.36c1.08.6,4,3.6,8.88,9.12q8.46,7.92,17.64,7.92c17.28,0,30-4.2,38.16-12.72a27,27,0,0,0,6.12-9.24,15.06,15.06,0,0,0,1.44-5.4,26.8,26.8,0,0,0-8-19.68c-2.52-2.52-8.28-6.72-17.52-12.6-8.16-5.28-14-10.32-17.52-15-5.4-7.2-8-16.08-8-26.76,0-8.76,3-16,9.12-21.6a35,35,0,0,1,20-8.88q11.7-1.26,20.16,3.6c6.12,3.72,9.12,9,9.12,16A19.61,19.61,0,0,1,370,177.36Zm108.84-138c0,4.32-1.32,6.84-3.84,7.44-3.72.24-21.24,3.24-52.32,8.88l-4.92,1a21.12,21.12,0,0,1,.36,5.76,51.34,51.34,0,0,1-1,9.72A280.65,280.65,0,0,1,414.48,106c-2.4,18.84-3.72,29.64-3.84,32.28V273.72l-1.08,4.08v66.48c-.36,1.8-.84,7.8-1.44,18.24-.36,7.44-1.56,13.44-3.48,18-.72-1-1.44-3.12-2-6.6a53.16,53.16,0,0,1-.6-5.64c0-1.68.24-5.88.6-12.6.48-7.56,1-13.44,1.56-17.88V272.88a35.67,35.67,0,0,1,1.08-4.92V133.44l4.2-42.84,3.48-33.12c-24.12,4.2-38,6.36-41.76,6.36-13.32,0-22.8-2.28-28.68-6.72-3.72-2.76-5.52-5.76-5.52-8.88a18.28,18.28,0,0,1,.36-4.44c.36-2,1.32-3.12,2.88-3.48A73.43,73.43,0,0,0,353,45.6q8.64,2.88,11.88,2.88c10.56,0,28.68-2.64,54.24-7.92l39.6-8.64,2.28-.36,15.6.12A15.55,15.55,0,0,1,478.8,39.36Z" transform="translate(-8.16 -31.56)"/></svg>