<svg id="Layer_1" data-name="Layer 1" xmlns="http://www.w3.org/2000/svg" viewBox="0 0 380.8 305.16"><defs><style>.cls-1{fill-rule:evenodd;}</style></defs><path class="cls-1" d="M163.08,154.68q22,31.14.24,65.76-20,31.5-53.64,40.68c1.56-26.28,3.84-52.32,6.84-78.36a268.63,268.63,0,0,0,1-52.8C136.68,130.32,151.92,138.6,163.08,154.68ZM177,157.2A65.62,65.62,0,0,0,148,124a54.51,54.51,0,0,0-37.08-7.08l.6,11.16q-7.38,67-8,134.52l-4.08.72a12.29,12.29,0,0,0-2.28,6,35.9,35.9,0,0,0,.12,6.24,6.08,6.08,0,0,0,1.8,4l4,.48a1129.57,1129.57,0,0,1-9.6,113.88c-.84,6.24,1,11.28,5.64,15.24a64.67,64.67,0,0,0,5.76-24.24L108.6,279a79,79,0,0,0,21.24-7.68,76.88,76.88,0,0,0,11.4-7.8,907.73,907.73,0,0,0,26.16,88.8,387.87,387.87,0,0,0,26.28,58.44c3.6-3.24,4.68-7.56,3.24-13.2A669.15,669.15,0,0,0,145.2,260,109.21,109.21,0,0,0,168,232.56a103.08,103.08,0,0,0,12.6-33.36A68.23,68.23,0,0,0,177,157.2Zm41.16,35a672.73,672.73,0,0,0-5.52,123.6c.72,17.4,7.44,31.44,20,42.36,5.76,4.92,12.48,6.48,20.16,4.44q29-7.92,38.16-36,21.06-64.44-1-127c-3.6,4.2-5.28,9.36-5.16,15.48a210.38,210.38,0,0,1,6.36,24.6,131.13,131.13,0,0,1-7.56,76.08c-6.24,15.12-17.52,23.76-34,25.92-12.36,1.56-20.16-3.48-23.64-15.36a182.6,182.6,0,0,1-6.72-46.56,218.56,218.56,0,0,1,3.12-39.6,236.72,236.72,0,0,0,2-64.32C221.28,180.12,219.12,185.64,218.16,192.24Zm207.72-50.76a1.45,1.45,0,0,0-1.8,1.08,597.8,597.8,0,0,0-23.88,79.8c-3.48,15.48-7.44,30.72-12,45.84l-.84-4.2q-12.42-63-27.48-124.68a31.62,31.62,0,0,0-3.24,6.72l-1.08-8a2.86,2.86,0,0,0-3.12,2.4q-16.2,61.38-27.36,124.08a770.93,770.93,0,0,1-32.64,123.24c-2.76-2.28-3.84-5.28-3.24-9.24-1.8,4.68-.84,9.24,3,13.8-2.4,8.76-1,15.12,4.32,19.2,4.68-17.88,9.72-36,15.24-54.12a949,949,0,0,0,28.92-125,577.09,577.09,0,0,1,13.44-62.4l1.8-7.92.72,3.72a902.74,902.74,0,0,1,23.16,124.8,26.38,26.38,0,0,0,.72,4.44,32.64,32.64,0,0,0,4.2,21.12,6,6,0,0,0,2.16-3.24l.72-2.64,2.28,2,.6-1.68q.36-6.3.36-12.6l28.44-109a219.34,219.34,0,0,0,4.8-23.76,202.27,202.27,0,0,0,4.08,36.6q13.14,62.46,23.16,125.28Q456.54,359,459.6,391c1.32,12.36,5,22.56,11.16,30.36a3.55,3.55,0,0,0,1.56-2.52,58.69,58.69,0,0,0,.48-25.44q-12.24-62.64-22.92-125.64-10.8-63.36-24-125.64Z" transform="translate(-93.16 -116.16)"/></svg>