<svg id="Layer_1" data-name="Layer 1" xmlns="http://www.w3.org/2000/svg" viewBox="0 0 316.99 277.26"><defs><style>.cls-1{fill-rule:evenodd;}</style></defs><path class="cls-1" d="M168,182.76q-13.86,41-53.28,49.2c2.28-22,5.28-43.68,8.76-65.4a185.46,185.46,0,0,0,1.32-50.16c16.44,1.56,29,9.24,37.68,23.16S173,167.76,168,182.76Zm-49.2-79.68a13.72,13.72,0,0,0-1.68,6.48,9.19,9.19,0,0,0,2.4,6.48h.72l-7.32,55.32q-3.78,30.78-6.84,61.92l-6.24.48a17.14,17.14,0,0,0-2,8.16,10.77,10.77,0,0,0,3.36,8.16l3.36.24C103.2,266.52,102,282.84,101,299a189.33,189.33,0,0,1-4.8,32c-4,16.68-4.08,32.52-.48,47.4.84-.36,1.32-.72,1.44-1.32a457.17,457.17,0,0,0,12.36-83.28q1.26-21.78,3.24-43.56a53.93,53.93,0,0,0,26.4-9.6l1.68-1.2A556.27,556.27,0,0,0,172.8,320,101.29,101.29,0,0,1,180.6,343c2.4,11.4,6.72,20.64,13.08,27.72q5.22-14.76-1.08-30.6Q171.54,287,145.44,236c26-20.76,36-48.24,30.12-82.44-4.68-26.88-19.68-44-45.24-51.6A13.71,13.71,0,0,0,118.8,103.08Zm106.32,6a765.34,765.34,0,0,0-8.4,80.88c-2.28,42.84-4.2,85.92-5.76,129-.6,17.52,4.2,33,14.4,46.32,4.8,6.12,11,8.16,18.72,6,25.56-7.2,42.6-23.4,50.88-48.6a283,283,0,0,0,13-112,421.28,421.28,0,0,1-.48-64c.84-12.36-1.2-22.92-6-31.8a3.34,3.34,0,0,0-1.08,1.68,826.1,826.1,0,0,0-1.68,99,447.65,447.65,0,0,1-2.16,64.8q-3.78,35.46-28.68,60.36a38.53,38.53,0,0,1-30.72,11.76c-7.8-.48-12.36-4.56-13.44-12.36a440.43,440.43,0,0,1-2.64-103,1179.38,1179.38,0,0,0,4.56-128.16Zm176.4,209.4-.84-3.24,1.68-.48-.24.72ZM406,146.4l1,.24c1.8-13.8-3.84-23.64-17-29.52a14.89,14.89,0,0,0-4.56-1.08q-47.7,34.74-56.28,95.52a322.39,322.39,0,0,0,6.72,126.84,33.83,33.83,0,0,0,9.6,16.44,47.91,47.91,0,0,0,16.92,10.56l8.4,2.88a74.88,74.88,0,0,0,28-26.76l2.28,32.4q15.12-35.64,5.52-75.48l-25.8,4.92-.24,12.12,3.24,2.52,14.16-2q-14.94,34.2-41,22.2c-7.2-3.36-12.48-8.88-16-16.68A96,96,0,0,1,332.88,271a717.89,717.89,0,0,1,13.92-83,81.51,81.51,0,0,1,7.2-19.56,125.51,125.51,0,0,1,8.4-13,86,86,0,0,1,14.4-15.12l8.52-6.84,10.8,3A17.13,17.13,0,0,0,406,146.4Z" transform="translate(-93.16 -101.22)"/></svg>