<svg id="Layer_1" data-name="Layer 1" xmlns="http://www.w3.org/2000/svg" viewBox="0 0 595.57 842.18"><defs><style>.cls-1{fill:#fff;}.cls-2{fill:none;stroke:#fff;stroke-linecap:round;stroke-linejoin:round;stroke-width:0.38px;}.cls-3{fill-rule:evenodd;}</style></defs><rect class="cls-1" x="0.31" y="0.31" width="595.08" height="841.68"/><rect class="cls-2" x="0.19" y="0.19" width="595.2" height="841.8"/><path class="cls-3" d="M79.08,50.28l8.64.6q59.22,2.7,81.48,57.6a180.29,180.29,0,0,1,11.88,94.08C176.16,239.4,157.2,267,124.2,285.12l-3.12,1.68q19.8,59,38,118.56c3.24,10.68,6.84,21.36,10.8,31.8a875.25,875.25,0,0,1,36,122.28,7,7,0,0,1-1.92,6.84,3.17,3.17,0,0,1-3.72-1.8A788.34,788.34,0,0,0,164,442.68,1040.88,1040.88,0,0,1,125.88,322.2l-8.76-33.36A125.94,125.94,0,0,1,84,299a44.58,44.58,0,0,1-13.8.36l-.6,12.24q-2.52,47.88-4.32,95.88c-1.68,43.08-2.88,86.16-3.48,129a65.35,65.35,0,0,1-4.92,24.36c-3.48-9-4.8-19.68-3.84-31.8,3-42.84,5.64-85.68,7.8-128.76L66,298.68l-3.48-1-.6-1a9.21,9.21,0,0,1-1.2-4.8,18,18,0,0,1,1-5.64l.84-1.68,4.2.12.6-12.84c2-42.6,3.6-85.44,4.68-128.28l2.4-82.32-6.72.6L67,61.08A14.66,14.66,0,0,1,66.24,58a7.62,7.62,0,0,1,.48-3.24L67.44,53A14.43,14.43,0,0,1,79.08,50.28Zm30.72,14.4a120.39,120.39,0,0,0-34.44-3.36,1010.69,1010.69,0,0,1,1,122.16L71,284.64q59.58-2.34,90.72-54a105,105,0,0,0,14.88-61.56c-2.52-38.52-18.24-70.08-47.4-94.44A48.43,48.43,0,0,0,109.8,64.68ZM495.24,307.56a245,245,0,0,1-56.4,7.44l-4.92,127.68c-1.56,40-4.68,79.44-9.36,118.68,31.32,6.12,60.48.6,87.24-16.68a100,100,0,0,0,13.44-10.32q26.1-24.12,30.48-60.24a172.51,172.51,0,0,0-8.52-78.36c-4.44-12.84-9.6-25.56-15.24-37.92a165.76,165.76,0,0,0-24.36-38.52l-3.48-2.4A59.78,59.78,0,0,0,495.24,307.56ZM411.48,76.8q3.78,64.26,2.88,129.12c-.6,43.44-3.12,86.52-7.8,129.12A910.29,910.29,0,0,1,382.8,464.52,318.82,318.82,0,0,1,363.72,518a136.41,136.41,0,0,1-49.08,57.48c-14,2.52-26.4-.84-37.08-10q-31.86-41.22-34.2-95.76c-1.8-42.84-2.88-85.8-3-129.12-.12-43.08-.12-86,.12-129.12q.54-63,2.28-125.76c.36-11.76,1-22.68,2-32.76,1.8,42.36,2.16,85.08,1.32,128.28q-1.26,64.44-1,129.12c.12,43.08.84,86.16,1.92,129a260.77,260.77,0,0,0,23.76,103.08c13.56,17.88,30.24,21.84,50.16,12.12a43.13,43.13,0,0,0,16.44-14A280,280,0,0,0,385,427.8L390.72,395a1159.42,1159.42,0,0,0,14.76-129A1157.67,1157.67,0,0,0,406,138.6q-1.8-38.7-1.44-76.32C408.72,64.56,411.12,69.48,411.48,76.8ZM461,50.64q56.52,11.16,70.68,67a405,405,0,0,1,12.6,109.92,110.57,110.57,0,0,1-15.72,54.72,55.24,55.24,0,0,1-16.08,17.64l-.6.72-.48.84-.36.84-1.32.84-2.4,1.56-.84.6h-2.76l-.84.24q40.14,38.34,52.2,95.4c3,14.4,5.4,28.92,7.08,43.44q6.84,62.28-36.84,105a67.35,67.35,0,0,1-12.72,9.72,155.08,155.08,0,0,1-40.08,17,84.61,84.61,0,0,1-44.4.72c-3.36-.84-6.6-1.92-9.84-3A17,17,0,0,1,417,565a11.84,11.84,0,0,1,1.56-4.92l.24.12a61.34,61.34,0,0,1,.12-20.4,577.31,577.31,0,0,0,7.2-64.56q3.6-64.26,6.36-129L433.8,315h-.36a6.43,6.43,0,0,1-1.32-3.24l-.12-4.92a10.7,10.7,0,0,1,1.44-4.8l.84-.12,3.12-84.12c1.32-42.6,2.4-85.44,3.12-128.28a181.56,181.56,0,0,1,2.28-26.28l-1.2.12-.72-1.68a14.9,14.9,0,0,1-.36-3.24,7.33,7.33,0,0,1,.72-4l1.2-1.68A48.91,48.91,0,0,1,461,50.64Zm69.12,87.12c-5.4-37.56-25.92-62-61.56-73.2A49.27,49.27,0,0,0,444.24,63q2,60.84-.36,122.4l-4.56,116.16a238,238,0,0,0,70.44-16.68,26.71,26.71,0,0,0,13-11.16Q553.14,223.14,536,164.88A205.74,205.74,0,0,1,530.16,137.76Z" transform="translate(0.19 0.19)"/></svg>