<svg id="Layer_1" data-name="Layer 1" xmlns="http://www.w3.org/2000/svg" viewBox="0 0 313.75 207.84"><defs><style>.cls-1{fill-rule:evenodd;}</style></defs><path class="cls-1" d="M294.72,396.12a46.7,46.7,0,0,0,22-20.76,68.57,68.57,0,0,0,8.16-32.64,189.9,189.9,0,0,0-5-45.12c-3.24,12.72-4.44,26.76-3.6,42.24,1,16.92-5.28,29.64-18.6,38.4q-24.12,15.84-31.32-11.16a130.36,130.36,0,0,1-4-43.2,168.25,168.25,0,0,0,.12-24.6,146.58,146.58,0,0,0-5.4,63.84c1.68,12.84,7.08,23.16,16.2,31.08C279.24,399.48,286.44,400.08,294.72,396.12ZM163,205.08c16.32.6,28.8,8.28,37.56,23,8.4,14.4,9.72,29.52,3.84,45.24q-7.56,20.7-25.2,32a28.67,28.67,0,0,1-22.8,3.84,998.72,998.72,0,0,1,5.88-105.48Zm1.92-8.76-1,.6-1.8,1.68-.12,1a10.87,10.87,0,0,0-1.56-3.12l-.6.36a650.22,650.22,0,0,0-9,110.88l-2-.84a4.62,4.62,0,0,0-1.92,3.24v5.64A7.42,7.42,0,0,0,148,319l3,1.92c.12,19-.36,37.92-1.44,56.76-.6,9.72,1.08,17.4,5,23.28a650.82,650.82,0,0,0,2-70.56l-.12-7.2c5,1.2,10.2.24,15.36-2.76a101.53,101.53,0,0,0,18.48-13.32,270.93,270.93,0,0,0,38,94.2c3.72-3.48,4.56-7.68,2.28-12.48l-18.72-40.92c-6.72-14.52-13.08-28.8-19.2-43q28.8-28.62,16.44-73.44-9.18-32.94-42.48-36.12v.12ZM459.12,309.84a11,11,0,0,0,.48-10.2l-.84-1.44q-3.24-46.8-2.88-96.84a280.32,280.32,0,0,0-4.8,96,118.92,118.92,0,0,0-40.08,4.2c.6-24.36.24-48.12-1.32-71a1079.51,1079.51,0,0,0-5.4,136.8v11.52a40.57,40.57,0,0,0,2,12.48,22.52,22.52,0,0,0,3.6,7.2A331.19,331.19,0,0,0,411.24,312l39.84-1.44a379.81,379.81,0,0,0,.24,92.64,441,441,0,0,0,6-93.24Zm-47.4-97.92.12-1.2V209.4l-.12-.72-.6-2.52-.72-2.4a205.81,205.81,0,0,1-42-2.52,134,134,0,0,0-44.88.36l-2.64.84.24,8.88,44.52,4.44a677.29,677.29,0,0,0-6.24,86.76q-.54,49.32,1.8,97.44c3.12-.48,4.8-3.36,4.92-8.64q2.34-74,3.36-148.8a96.3,96.3,0,0,0-3.36-26.76l43.56.72a14.26,14.26,0,0,0,1.56-3Z" transform="translate(-146.88 -195.36)"/></svg>