<svg id="Layer_1" data-name="Layer 1" xmlns="http://www.w3.org/2000/svg" viewBox="0 0 595.57 842.18"><defs><style>.cls-1{fill:#fff;}.cls-2{fill:none;stroke:#fff;stroke-linecap:round;stroke-linejoin:round;stroke-width:0.38px;}.cls-3{fill-rule:evenodd;}</style></defs><rect class="cls-1" x="0.31" y="0.31" width="595.08" height="841.68"/><rect class="cls-2" x="0.19" y="0.19" width="595.2" height="841.8"/><path class="cls-3" d="M247.08,252.24c-2.88,16-11.88,27.6-27.12,34.92a66.41,66.41,0,0,1-37,6.6,574.1,574.1,0,0,0,1.92-85,58.64,58.64,0,0,1,44.4,6.48C244.08,223.8,250.08,236.16,247.08,252.24ZM183.48,193c-3.48,7.56-5.28,16.44-5.4,26.52q-.9,64.08-5.4,128.16a97.55,97.55,0,0,1-3.36,19.8c-3.24,12.36-2.52,23,2.28,32.16A31.83,31.83,0,0,0,176.16,385q3.24-37.8,5.76-75.72a40.59,40.59,0,0,0,20.76-.12,89.65,89.65,0,0,0,21.48-8.76,126.93,126.93,0,0,0,8.4,33.48c5.64,13.92,10.56,28.08,14.88,42.36q4.86,16.38,15.48,25.92a15.41,15.41,0,0,0,1.32-14.76C252.6,357.24,240.6,327.48,228,298.08a87.88,87.88,0,0,0,15.6-13.56,47.64,47.64,0,0,0,13-33.12c.12-33.36-16.92-53-50.88-59v.12c-8.28-1.08-15.48.48-21.72,4.92ZM406.2,311.4q12.06,45.36-22.32,74.64l-15.36-.24a45.71,45.71,0,0,1-9.24-7.44c-5.76-5.88-8.4-13.08-8-21.6a469.41,469.41,0,0,0-1.44-61.08,353,353,0,0,0-8.16,49c-2.52,25.32,6.48,44.76,26.88,58.56l16.8-.84A34.66,34.66,0,0,0,398.16,391c18.84-28.2,23-58.44,12.6-91l-3.24.84A12.94,12.94,0,0,0,406.2,311.4Z" transform="translate(0.19 0.19)"/></svg>