<svg id="Layer_1" data-name="Layer 1" xmlns="http://www.w3.org/2000/svg" viewBox="0 0 388.01 324.72"><defs><style>.cls-1{fill-rule:evenodd;}</style></defs><path class="cls-1" d="M170.4,134.4a83.69,83.69,0,0,1,14,42.48,82.81,82.81,0,0,1-9.24,43.92c-7.08,14-18.24,23.52-33.24,28.44a71.88,71.88,0,0,1-15.84,3.48,863.91,863.91,0,0,0,5.28-135.6C148.08,114.6,161.16,120.36,170.4,134.4Zm-46.08-16.2.6.84,2.64-.72a11.15,11.15,0,0,1,1.56-.48l-4.56,92c-.84,14.52-2.16,29-4,43.44h-.24l-.12-1c-.24-1.32-1-1.68-2.16-1.32l-1.2.6a13.6,13.6,0,0,0-1.32,4.92,22,22,0,0,0,.48,5.64l.48,1.68L119,264l-1.44,9.84a865.46,865.46,0,0,0-11.28,128.52c-4.8,8.28-4,15.48,2.4,21.6a3.4,3.4,0,0,0,1.44-2.4c2.4-19.32,4.32-38.76,5.88-58.32,2.52-33,5.52-66.12,8.88-99.12a65.45,65.45,0,0,0,28.68-7.8,568.19,568.19,0,0,1,23.64,80.88,617.76,617.76,0,0,1,10.08,62.88c1.2,11.64,4.32,21.6,9.36,29.64a2.59,2.59,0,0,0,.72-1.68,338.56,338.56,0,0,0-6.72-61A748.36,748.36,0,0,0,158.4,253.56a48,48,0,0,0,14.4-13.8q30.42-44.46,9.48-96.6-13-31.86-44.88-38.16a27.32,27.32,0,0,0-8.16,2.4,33.84,33.84,0,0,0-5,2.76,9.42,9.42,0,0,0,.12,8ZM273.6,164.64,286.08,277l-29.28.24,15-96.72Zm1.56-47.76-1.08,1.56-1.32-.72q-7.38,46.26-13.2,92.88c-1.2,10.44-2.76,20.88-4.56,31.32l-8.4,47.4c-5.88,31.56-12,63.24-18.36,94.8l-.36,2-.6,1.92-1.32,3.6a55.13,55.13,0,0,0-3.36,15.12,28.42,28.42,0,0,0,3.24,16.08l29-135.12,32.28,1.32A828.26,828.26,0,0,0,301.32,399.6c1.08,5.16,2.4,10.2,4,15.24a77.22,77.22,0,0,0,2.88,7.32l.12-.24a245.5,245.5,0,0,0-3.6-66c-2.76-14.88-5.16-29.76-7.08-44.76l-2.76-22.56a5.89,5.89,0,0,0,2.28-4.2,6.28,6.28,0,0,0-.24-3l-.72-2.4-.6-1.68-.24-.24L293.4,277,275.28,119.88Zm213.6,235.68-1.2-4.56-2.4-.72-15.12.48.48,8.88,13.8,3.48a265.74,265.74,0,0,0-2.64,64.56c7.08-15,10.2-32.76,9.48-53.16A109.23,109.23,0,0,0,488.76,352.56Zm-15.24-94.68c-12.84,3.72-20.88,13.92-24,30.72-2.76,14.76-4.92,29.52-6.6,44.28a231.64,231.64,0,0,0-.48,45.6,83.17,83.17,0,0,0,12.12,37.08L463.2,417A31.41,31.41,0,0,0,478,402a18.45,18.45,0,0,0,1.68-9.84l-.72-4.32-.6-2.28a45.54,45.54,0,0,1-16,15.36c-1.92,1.08-3.6.84-4.92-.72-6.12-7.56-9.24-16.8-9.36-27.6a333.54,333.54,0,0,1,10.2-83.76,25.51,25.51,0,0,1,14.64-17.64l8.4,10.8a11.83,11.83,0,0,0,1.2-9.72,26.49,26.49,0,0,0-5-9.84ZM425,159.12c-1.32,43-3.36,85.68-5.88,128.28L415,352.2a318,318,0,0,0,.6,51.36c-3.84-12.12-7.32-24.48-10.32-36.84q-15.3-62.28-30.12-124.08-14.94-62.1-34-123l-1,.72-.12-4a198.88,198.88,0,0,0-4.8,47.88q.72,64.44-3.36,128.28a1267.56,1267.56,0,0,0-1.8,128.16,2.15,2.15,0,0,0,2.16,2.16,198.6,198.6,0,0,0,4.2-50c-1.56-43.08-1-85.92,1.68-128.28q3.78-58,2.28-115,11.88,53.64,24.72,107l29.76,123.6a422.34,422.34,0,0,0,19.56,61.08A11.79,11.79,0,0,0,417.6,415c4.44-9.72,6.48-21.24,6.24-34.32-.6-42.84.12-85.68,2.16-128.28q3.06-65,4-128.16A150.38,150.38,0,0,0,425,159.12Z" transform="translate(-103.25 -105)"/></svg>