<svg id="Layer_1" data-name="Layer 1" xmlns="http://www.w3.org/2000/svg" viewBox="0 0 595.57 842.18"><defs><style>.cls-1{fill:#fff;}.cls-2{fill:none;stroke:#fff;stroke-linecap:round;stroke-linejoin:round;stroke-width:0.38px;}.cls-3{fill-rule:evenodd;}</style></defs><rect class="cls-1" x="0.31" y="0.31" width="595.08" height="841.68"/><rect class="cls-2" x="0.19" y="0.19" width="595.2" height="841.8"/><path class="cls-3" d="M356.88,535l3.24-24,.24,3.36,21-3.24.48,29.28a296,296,0,0,0,3.24-35.52l.48-24.6L382,502.68l-21.6,6,1.08-30.6A214.59,214.59,0,0,0,356.76,535ZM338.4,558.24l-28.08,27.84.84,7.32,33.36-29.16,21.24,18a7.67,7.67,0,0,0,1.56-4.8,6.22,6.22,0,0,0-1.2-4,67.74,67.74,0,0,0-14.4-14.28,39.53,39.53,0,0,0,6.48-4.56,30.14,30.14,0,0,0,5.28-5.76,20.56,20.56,0,0,0,3.84-11.28l.12-3.48-22.92,18.72-19.8-18.48-1.44,8.16,2,1.44ZM287,473.76l-.48-6.48a55.5,55.5,0,0,0-26.88,8.4l.24,6.6,13.92-4.8c-6.6,22.68-7,43.68-1.08,63.24l4-64.08Zm23.52-57.6A21.17,21.17,0,0,0,303.24,428a487.63,487.63,0,0,0-12.84,87c-.84,16.2,6.24,24.48,21.24,25.08a41.09,41.09,0,0,0,9.24-7.08c7.8-7.56,12.12-16.08,13.2-25.44-1.08-.72-2.16-.12-3.12,1.68-5.64,10.68-13.92,17-24.84,19.32-3.48.6-5.4-.6-5.76-3.84a310.19,310.19,0,0,1,.72-80.28c2-14.16,9-19.32,21.12-15.6a8.27,8.27,0,0,0,.12-5.64,12.55,12.55,0,0,0-3.84-5.76L316,417Zm-18.12-38.4,9.36,38.88a137.14,137.14,0,0,0,11-41.52l1.32-13.92-12.48,40.56-10.32-39.48L283.56,414Zm-23.28-19.2,12.24-46,5.4,46,13.8-44.88A152.9,152.9,0,0,0,312.48,362a382.33,382.33,0,0,0-10-64.92A173.05,173.05,0,0,0,287.64,342l-4.92-45.36A168.07,168.07,0,0,0,268.44,348,26.12,26.12,0,0,0,269.16,358.56Zm5.64-97.32.36-18.24c2-4,5.28-5.16,9.72-3.84a16,16,0,0,1,2.76,3.6c4.2,7.2,3,13.56-3.6,19.2l-7,.48Zm5.52-29.88-6.48,4.32a165.48,165.48,0,0,0-4.08,41,128.7,128.7,0,0,0,2.52,22.92l2.16-28.92,10.68,1.2c8.28-8.52,10.68-18.24,7-29a30.26,30.26,0,0,0-7.2-11.28Zm-113.76,82L191.4,37.08l38,264.12-12.36.36L205,303.12c-5.28.84-10.44,1.92-15.6,3.24S179,309,174,310.68ZM94.44,90.6A392,392,0,0,1,88,135.24a238,238,0,0,1-12.12,40.08A233.16,233.16,0,0,1,54,217a14.07,14.07,0,0,1-5.28,5l-13,16.68-4.8,1.2A1765.71,1765.71,0,0,1,41.64,17.16L42,16l25.08-1.2c12.48,8.52,20.64,20.4,24.36,35.76A121.48,121.48,0,0,1,94.44,90.6ZM91.32,38.28,89,32l-2.4-6.24-2.76-6.12-3.24-6L79.56,12.6C67.8,3.84,54.84,2.52,40.68,8.76l-.36.12L39,8.16Q17.58,246.3,17.52,487.08c0,25.56-.48,51-1.56,76.56a58.23,58.23,0,0,0,.24,7.92l.48,3.72.84,3.72a16.76,16.76,0,0,0,1.08,3.48l.24-.24Q31.62,419,30.72,253.44L51,233.16a1652.49,1652.49,0,0,1,64.32,307.92A115.39,115.39,0,0,0,128,582.6l1.92,2.64A1478.27,1478.27,0,0,0,67.44,271.08c-4.32-13.8-9-27.36-14-40.92q39.78-53.1,46-120a177.77,177.77,0,0,0-3.12-52.92c-.84-4.2-1.92-8.52-3-12.72Zm206,79.68L286.2,171.24l-15.36-52-1.8,8.16a349.39,349.39,0,0,0-4.8,45.84,25.5,25.5,0,0,0,.6,6.72l7.56-43.32a141.82,141.82,0,0,0,14.88,47.88,137.64,137.64,0,0,0,11.4-54.12A45.3,45.3,0,0,0,297.36,118Zm-104-99.84.6-7.56A693.29,693.29,0,0,0,178.56,112.2q-5,63.72-10.68,127.44c-3.72,42.72-6.84,85.56-9.6,128.4-2.76,42.6-6.12,85.2-10.08,127.56a569,569,0,0,1-9.72,63.6c-2,9.48-1.08,17,3,22.8a316.8,316.8,0,0,0,10.2-61.68c2.76-42.36,5.76-85,8.88-127.56l5.52-73.2a628.22,628.22,0,0,1,64.56-8c4.2,37.68,7.92,75.48,11.4,113.28q5.58,63.18,8.16,126.72c.36,12.12,3.12,22.2,8.16,30.48a2.8,2.8,0,0,0,1.2-2.4c-.12-20-1-40.08-2.28-60.24q-4.5-63.9-11-127.32-6.66-63.9-15.84-127.32-9.18-63.18-20.28-126.12A1195.38,1195.38,0,0,1,195,12.12,37.39,37.39,0,0,0,193.32,18.12ZM380.16,353.4a286.27,286.27,0,0,1-16.44,39.48,228,228,0,0,1-17.4,28.44l-1.44-62.16a1020.2,1020.2,0,0,0-2.4,116.52,13,13,0,0,0,3.6-5.28l.84-3.24.48-3.72-1.32-2.16.48-34.92,17.52-22.92a340.37,340.37,0,0,0,22.2,71.88A238.64,238.64,0,0,0,365,401.76a120.43,120.43,0,0,0,14.76-45.12Zm107.16-85a116.37,116.37,0,0,0-.6-17.4q48.24,3.06,63.72,48.12A293.05,293.05,0,0,1,565,367.08a478,478,0,0,1-5.52,127.56A156.54,156.54,0,0,1,544,539.88q-17.64,33.3-54,30.36c.84-20.76,1-41.88.36-63.24l-1.8-64.08q-2-63.54-2.88-126.6a116.89,116.89,0,0,0,1.56-23.52C487.08,284.52,487.08,276.48,487.32,268.44Zm-34.56-34.08-2.52-1.08Q419.28,268,419,318.6q-.18,43.56,2.64,86.64,2.52,37.26,2.16,75.6c-.12,14.16-.72,28.32-1.56,42.48l-1,14.16a69.67,69.67,0,0,0,3.12,26.16,35,35,0,0,0,2.52,6.72,52.46,52.46,0,0,0,5.16,9.12,53.19,53.19,0,0,0,7.32,8.28l2.64,2.64c11.52,1.32,19.8-3.48,24.72-14.64a43.62,43.62,0,0,0,3.72-21.36l-.84-6.48c-4.92,17.28-14,25.08-27.24,23.28a24.59,24.59,0,0,1-7.92-3.48,841.43,841.43,0,0,1-7.8-158.52,59.38,59.38,0,0,0,28.08-4.68,17.31,17.31,0,0,0,1.08-4.8,10.9,10.9,0,0,0-1.92-6.6l-27.72,7.08q-14.94-82.08,20.52-150c1.8-3.48,5-5.64,9.48-6.36a75.39,75.39,0,0,1,12.12,24.24l.84,2.28-.72-5.76C470.4,250.56,465.12,240.48,452.76,234.36Zm32.16,6.72a21.48,21.48,0,0,0-2.28,10.32q-.36,63.72-.36,128.16-.18,64.8,1.8,129.12a419.61,419.61,0,0,1-1.2,47.76c-.84,9.72.12,17.76,3.12,24.36a16.52,16.52,0,0,0,1.08,4.68c4.32,3.24,9.36,4.44,15.24,3.72a52,52,0,0,0,21-7.08A58.88,58.88,0,0,0,548.4,554a292.41,292.41,0,0,0,24.48-108.12A647.72,647.72,0,0,0,565,318.12q-7.56-47-47-69.72l-4.8-1a83.64,83.64,0,0,0-19.56-4.2l-8,.84Zm-91.2-27.84a2.51,2.51,0,0,0-.24,1.56q3.42,39.6-32.88,45,.18-37.8-2.52-75.24C380.4,182.52,392.28,192,393.72,213.24ZM358.2,178.92l-.36,1.56-.12.36-.36-4.08c-2.4,6.12-3.36,13.32-3,21.36A810.93,810.93,0,0,1,350.64,327c-1.32,12.24,0,22.8,4.08,31.56,2-17.76,3.48-35.64,4.56-53.64.6-11.52,1.08-23,1.32-34.56,12.84,1.8,22.44-3.6,28.8-16.44a95.35,95.35,0,0,0,9.84-36.36q2.16-34-29.16-41.16Q363.06,174.06,358.2,178.92ZM362.52,57.6h-35.4l-.48,4.56.48.84a1.65,1.65,0,0,0,1,.6,214.58,214.58,0,0,0,1.56,59l1.44-34.44,29.28,1.32-.84-8.88a57.94,57.94,0,0,0-24-1.08l-4.68.84-1.08-16.56,32.76,2.4ZM568.44,10.32A734.72,734.72,0,0,1,448.32,24.84v4.08a213.86,213.86,0,0,0,65.4-1.08q-3.78,98.1-4,196.2a35.63,35.63,0,0,0,3,14.4q6.3-79,4.8-158.76c-.24-10.08-.6-20.16-1.08-30.12-.36-7.32-.84-14.52-1.44-21.84l53.16-7.44a7.06,7.06,0,0,0,1-8.64Z" transform="translate(0.19 0.19)"/></svg>