<svg id="Layer_1" data-name="Layer 1" xmlns="http://www.w3.org/2000/svg" viewBox="0 0 467.71 391.29"><defs><style>.cls-1{fill-rule:evenodd;}</style></defs><path class="cls-1" d="M221.64,279.72,248,141l11,136.2ZM112.44,112.8A73.2,73.2,0,0,1,148.56,141a100.44,100.44,0,0,1,17,43.08c2.28,16-2,30.24-13.2,42.6a159.23,159.23,0,0,1-32.88,28l-1.32-5.4-1.92,7.44L91.2,268.92,105.36,112.2Zm-16.2-6a7.86,7.86,0,0,0,1.68,5.76l3-.24L91.32,220.2l-4.8,50.4-10,3a9.26,9.26,0,0,0-.84,3.12,7.63,7.63,0,0,0,1.68,4.92L85.56,280q-3.78,34-8.64,67.92c-3,21.36-6.24,42.6-10,63.72-2,11.88-.36,22.2,5,31.08q3.78-39.06,8.64-78.6c3.48-28.44,6.6-56.88,9.6-85.32A137.68,137.68,0,0,0,116,268.08,63.34,63.34,0,0,0,118.32,279q18.36,61,38.52,121.08a183.38,183.38,0,0,0,12.72,30.12,7.93,7.93,0,0,0,1.32-7.08c-4.56-17-10-34.32-16.2-51.72-12.6-35.4-23.4-71-32.64-106.8l1.08-.72a120.43,120.43,0,0,0,28.8-24.6q28.8-33.84,16.2-77.28c-9-31-28.32-51.36-57.72-61.32a39.75,39.75,0,0,0-13.2,3A7.28,7.28,0,0,0,96.24,106.8ZM252.36,111l-1,3.6-.12-2.88L216.12,280.08l-4.08.24-.12,5.64,2.88,1.32q-15.3,77.58-23,155.76l.36,1.08,2.4.48,25.56-156.36,40.08.36a1287.47,1287.47,0,0,0,14.52,139.2A94.13,94.13,0,0,0,278.4,443a37.78,37.78,0,0,0,3.24,7.08l.24-.36L266.76,287.64l4.32-.84.6-7.8-6-1.08q-9.54-72.54-12.84-145.44C252.48,125.28,252.36,118.08,252.36,111ZM373.92,317.16l-5.16-12.24c-13.68-7.8-28.08-8.16-43.2-1.2-14.52,6.72-23.52,18-27.24,33.72a132.23,132.23,0,0,0-2.88,42.36,300.5,300.5,0,0,0,6.6,42.48Q308,449.1,330.84,454a30.58,30.58,0,0,0,20.64-3.36,45.77,45.77,0,0,0,21.6-23.52c-3.48,12.72-2,24.12,4.08,34.32a268.29,268.29,0,0,0,4.68-72l-.24-.36-31.08-1.32,1.92,5.64,25.8,7.32L376.32,413a86.5,86.5,0,0,1-28.92,23.4,47.29,47.29,0,0,1-23.28,5.16A99.82,99.82,0,0,1,303,397.68a111.37,111.37,0,0,1,2.4-55.92,38.28,38.28,0,0,1,17.88-22.44,58.67,58.67,0,0,1,28-7.8A44.23,44.23,0,0,1,373.92,317.16Zm110.4-204.84-10.32-.6c-23.52,11.88-34.92,31.2-34.08,58.2q2,66.06,42,119.64A241.79,241.79,0,0,1,528.84,406.2c3.48,27.84-7.08,48.72-31.92,62.52C473.16,482,451,480,430.44,462.36a146.79,146.79,0,0,0-27.24-18.6,4.52,4.52,0,0,0-1,3.24,21.28,21.28,0,0,0,1,4.8l.48.84,1.2.84,1.2.84a67.46,67.46,0,0,0,11.76,15.6q35.82,35.64,79.92,13.68,28.44-14.22,33.6-45c5.76-34.44,1.44-68.28-13-101.28a151.57,151.57,0,0,0-15.6-27.6,406.59,406.59,0,0,1-49.08-91,109.64,109.64,0,0,1-5.28-62.88c4.2-20.52,16.44-30.72,36.72-30.84a26.35,26.35,0,0,1,7.56,9.12l1.92,3.84-.84,4a8.43,8.43,0,0,0,1.2,6,.73.73,0,0,0,.72.36A18.07,18.07,0,0,0,499.2,138c.36-10.8-4-19.2-13.2-25.2Zm-125.88,31.8q-13.86,63.72-28.92,127.32c-1.2-11.88-2-24-2.64-36.12L320.28,108l-.72-.84-1.08-.84c-6.48,27.48-12.24,55.92-17.16,85.08-1.68,10-3.6,19.92-5.88,29.76a273.3,273.3,0,0,0-7.56,64.32c2.64-9.36,4.92-19.08,7-29q12.78-63.54,22.8-127.32c.36,38.4,1.56,76.68,3.84,115,.6,10.92.84,21.72.48,32.52-.12,9.48,1.8,17.4,6,23.76,4.08-12.24,7.56-25,10.56-38.16q14.22-63.9,29.76-127.44l.6,36.24a867,867,0,0,0,11,127.44l.36.72,1.8,1.44a1.83,1.83,0,0,0,1.56-2.16,496.15,496.15,0,0,0-4.56-61,381.8,381.8,0,0,1-3.36-63.12,230.26,230.26,0,0,0-6.72-64.2A178.39,178.39,0,0,0,358.44,144.12Z" transform="translate(-66.12 -100.68)"/></svg>