<svg id="Layer_1" data-name="Layer 1" xmlns="http://www.w3.org/2000/svg" viewBox="0 0 449.36 396.6"><defs><style>.cls-1{fill-rule:evenodd;}</style></defs><path class="cls-1" d="M282.24,297.84l24.12-161.28L333.6,288.24ZM101.16,107.4a12.32,12.32,0,0,1,5.76-1.68q37.26-2,55.44,31.56c9.24,16.92,11,34.68,5.52,53q-17.64,59.22-77.64,70.92l3.84-35.88a829.59,829.59,0,0,0,4.2-118.2Zm-5-.48a290.51,290.51,0,0,0-4.56,37.44q-4,63.9-10.8,127.56-7,63.72-14.52,127.44a236.24,236.24,0,0,1-6.24,32c-2.76,10-1.44,18.12,3.84,24.24l.72-1q10.08-50.4,15.72-102l8.28-76.56a83,83,0,0,0,34.2-9.84q18,43.56,38.4,87Q188,410.34,210.24,468.36c3.84-2.28,5-5.88,3.48-11a668.39,668.39,0,0,0-32-85.44Q156.3,316.8,127.32,263.64a100.39,100.39,0,0,0,19.32-16.2q44.46-47.52,23.52-107.76C161,113.16,142.92,97.08,115.8,91.2l-4.44.24a61.51,61.51,0,0,0-16.68,6,15.24,15.24,0,0,0-.6,4.08l.24,2.28.72,2.52.84.48ZM307.68,94.2l-.36,1.44-1.56,6.84c-5.28,24.36-9.6,49.56-13,75.36q-8.1,63-18.84,125.4A1166.91,1166.91,0,0,1,245,430a123.3,123.3,0,0,1-5.76,15.72c-4.44,10-3.48,17.88,2.64,23.52a550.35,550.35,0,0,0,18.6-59.88c8.28-33,14.88-66.24,20-99.6,13.08-1.08,26.16-2.64,39.48-4.8l.84.48,1.68.6a128.63,128.63,0,0,1,13.8-3.36c5.4,28.56,11.28,57,17.88,85.32a350.19,350.19,0,0,1,8.64,63.24c.6,12.12,3.24,22.32,8,30.36a13.32,13.32,0,0,0,3-9.72,644.83,644.83,0,0,0-20.28-126.48,1272.4,1272.4,0,0,1-26.52-125Q317,157.14,307.68,94.56Zm80,104.52q-4.14,32.4-5.4,65.16c-1.56,41-1.44,81.84.6,122.52a89.41,89.41,0,0,0,5.52,27c11.64,30.72,32.52,51.24,62.88,61.44a71.47,71.47,0,0,0,29-23,110.31,110.31,0,0,0,7.32-11.64l-2,17.76q-2,18.18,5.4,29.88a466.09,466.09,0,0,0,7-73.8,132.33,132.33,0,0,1,2.76-24.84c3.36-16.2,2.52-31.44-2.4-45.72l-5.64-.72a12.76,12.76,0,0,1-4.08-1.44,28.71,28.71,0,0,0-13.92.12c-15,4.2-19.92,11.4-14.76,21.48a51.5,51.5,0,0,1,27.6-6.72,3.16,3.16,0,0,0,1.92.84c3.48.24,5.52,1.2,6.24,2.88l-2.28,24.48-2,20.76a136,136,0,0,1-32.88,46.44,6.47,6.47,0,0,1-5.76,1.92q-29.88-5-47.64-30.12A58.52,58.52,0,0,1,396.48,405a249.33,249.33,0,0,1-8.88-56.16,728.87,728.87,0,0,1,5-127.56,298.3,298.3,0,0,1,9.84-46q10.62-35.46,41.64-54.72,35.82-22,63.72,7.92l.12-.84q-4.32-32.58-42.6-33.48c-27.6,8-48,25.08-61.08,50.88A169.82,169.82,0,0,0,387.72,198.72Z" transform="translate(-58.6 -91.2)"/></svg>