<svg id="Layer_1" data-name="Layer 1" xmlns="http://www.w3.org/2000/svg" viewBox="0 0 595.57 842.18"><defs><style>.cls-1{fill:#fff;}.cls-2{fill:none;stroke:#fff;stroke-linecap:round;stroke-linejoin:round;stroke-width:0.38px;}.cls-3{fill-rule:evenodd;}</style></defs><rect class="cls-1" x="0.31" y="0.31" width="595.08" height="841.68"/><rect class="cls-2" x="0.19" y="0.19" width="595.2" height="841.8"/><path class="cls-3" d="M269.76,214.8h-.12C268.44,218.16,268.44,218.16,269.76,214.8ZM101.52,100.56q18.54,68.4-29,121.56A48.08,48.08,0,0,1,61,231.48a30.89,30.89,0,0,0-9.36,7.68l3.12-53.52c2.52-38.76,3.84-77.28,4-115.32Q92.52,67.44,101.52,100.56ZM60,63.48,58.68,58.2Q44.64,184,40.08,311.88,37,399.9,30.72,487.8c-1.08,15.84-1.92,31.68-2.52,47.64h.6A1845,1845,0,0,0,49.92,283.08c.12-10.2.48-20.52,1-30.72L77,229.2q20,131.58,50.28,261a306.63,306.63,0,0,0,17.4,52.56A940.14,940.14,0,0,0,119.28,408q-16-60.66-27.6-122L80.16,225.72Q117.78,178.2,110,118.2A114.87,114.87,0,0,0,93.36,71.4C83.76,63.6,73.08,60.72,61.2,63ZM229.32,89.76l.48,6.6q8.28,63.54,18,126.72,4.86,31.5,10.56,62.88c2.52,14.16,4.92,28.32,7.2,42.6l-46.92-3.24a34.44,34.44,0,0,0-18.12,1.56l-7.92,2.64c4.56-25.8,8.64-51.6,12.36-77.64,5.88-42.12,11.28-84.24,16.2-126.6A151.23,151.23,0,0,1,228,94.2Zm1-12.72a21.8,21.8,0,0,0-1.92-6.36l-.12.12-1,.72-.84.72a122.75,122.75,0,0,0-7.08,30q-7,62.64-15.6,125-8.82,63.18-21.48,125.88-12.78,63.36-26.16,126.6c-2.28,10.44-4.8,20.88-7.68,31.08-2.64,9.48-2,17.28,1.92,23.52A200.14,200.14,0,0,0,158.88,503q11.7-62.82,24.36-125.28,4.14-20.34,7.92-40.68a9.9,9.9,0,0,0,4.8.72,332.83,332.83,0,0,1,70.8.72L267,338q5.58,36.9,9.6,73.92,7,63.72,15.84,126.72c.84,1.8,2.16,2.52,3.84,2.16a96.43,96.43,0,0,0,0-31.08Q286.38,446.58,278,383.4q-8.1-63.18-18.48-126-5.22-31.5-11.28-62.88A873.47,873.47,0,0,1,232.92,67.68,49.18,49.18,0,0,0,230.28,77Zm54.36-1.56L272.4,203.76l-.12.84a44.68,44.68,0,0,0,.72,21.12q7.38-58.32,13-116.64C288.6,137.76,290,166.8,290.4,196c.12,10.92,1.68,20.28,4.8,28.08q8.1-52,11.88-104.76,5.58,40.86,8.64,82.2c.84,10.32,3.12,19.32,6.84,26.88A449.14,449.14,0,0,0,317.28,153a498.45,498.45,0,0,1-5.64-64c-.12-7.08-1.92-12-5.4-14.64q-4.14,60.66-11.88,120.12l-.12-.72q-1.62-63.18-6.12-125A9.25,9.25,0,0,0,284.64,75.48Zm87.6,180.36a873.49,873.49,0,0,1-14,93.72l-.24-.48a1113.59,1113.59,0,0,1-43.8-108.84c-.6.12-1,.24-1,.48A555,555,0,0,0,304.68,299c-1.2,11.88-2.76,23.64-4.8,35.28s-1.8,21.36.72,29.4a32.82,32.82,0,0,0,2.16-8.16q5.58-47.34,11.64-94.68a346.42,346.42,0,0,0,16.2,43.2c6.48,14.28,12.36,28.68,17.52,43.44,2.76,7.8,6.36,14.16,10.68,18.84a451.34,451.34,0,0,0,16.68-79.44q1.26-9.36,3.24-18.36c2.16-9.12,1-15.72-3.48-19.92A12.13,12.13,0,0,0,372.24,255.84Zm57-181.92-1.08-1.56L427,70.92l-9.24-.6a67.57,67.57,0,0,0-14.64,41.28l-1.56,45.48-2.28,45.6c-.72,12.24,4.2,21.24,14.76,27.12a31.44,31.44,0,0,0,10.68-10l2.52-4.32.48-1.56.48-1.68.36-1.56a19.91,19.91,0,0,0,.36-5.28l-14.4,11.64-4.56-.6a188.12,188.12,0,0,1-3.48-55.2,29.64,29.64,0,0,0,22-1.32l3.12-1.68-.12-6.84A55.76,55.76,0,0,0,406.56,154l6.6-65.76,5.16-6.48,7-.24L430,89.16c2-.12,2.88-2.16,2.4-6.36a22.9,22.9,0,0,0-2.16-7.2ZM371.16,74c-3,42.6-7.08,84.84-12.12,127l-.12-2.16L349.8,71.4q-2,.18-2.16,2.52l-9.24,86.64c-2.4,22.08-4,43.2-4.8,63.48a775.86,775.86,0,0,0,14.64-101.4c2.4,25.8,4,51.6,4.8,77.64.36,10.2,2.28,18.72,6,25.68A927,927,0,0,0,373.32,107.4c2.28,20.4,3.72,40.92,4.2,61.44q.72,33.12,11.52,61a3.17,3.17,0,0,0,1.2-2.52,272.06,272.06,0,0,0-2-31.08c-5.4-42.48-9.72-84.84-13.2-127.2C372.72,69.6,371.4,71.28,371.16,74ZM549.24,146.4Q521,83.22,454.8,67.92h-.24c-1.32.72-2,2-2,4.08l.12,1.68a69.5,69.5,0,0,0-3,23.76c1.68,42.6,2.88,85.44,3.6,128.28.6,43.08.24,86.16-1.32,129-1.56,43.08-3.24,86-5.16,129.12a258.84,258.84,0,0,1-3.36,32c-2.16,12.36-1.08,23,3.36,31.8a43.12,43.12,0,0,0,2.76-12.24q3.06-40.68,5-81.84,2.88-63.9,3.84-128.28c.6-43.08.36-86-.72-129.12L455,76.8a30.51,30.51,0,0,1,5.64,1.68c12,5,24,10.32,36.12,16a89.15,89.15,0,0,1,13.44,11.64q48.6,52.74,52.8,123.84c1.68,28.92,3.24,57.84,4.68,87-1.44,26.52-3.72,53.16-6.84,79.68Q554,454,517.56,497.64c-18.12,21.72-40.2,34.32-66.48,37.8a6.14,6.14,0,0,0-1.2,2.52,18.18,18.18,0,0,0,0,8l.6,2.4.84.84,1.32.84,11.64,1.08A102,102,0,0,0,501,531.84a152.12,152.12,0,0,0,48.6-69.36A407,407,0,0,0,571.8,337.2a1006.32,1006.32,0,0,0-5.52-127.56A208.42,208.42,0,0,0,549.24,146.4Z" transform="translate(0.19 0.19)"/></svg>