<svg id="Layer_1" data-name="Layer 1" xmlns="http://www.w3.org/2000/svg" viewBox="0 0 513.71 484.8"><defs><style>.cls-1{fill-rule:evenodd;}</style></defs><path class="cls-1" d="M56.88,75.36l.36-1.8a30.75,30.75,0,0,1,11-3q36.72-2.7,51.36,32.52,26.64,64.26-4.92,124.56c-15.24,29.16-39,44.52-71,46.08l1.56-27.24c.84-14.52,1.8-29,3-43.68q5.58-63.18,8-126.72Zm-6.6-.24q-.9,21.06-2.52,42.12-4,47.88-5.88,96l-2.64,60.6H37.32a10.54,10.54,0,0,0-1.56,5.64A19.33,19.33,0,0,0,36.84,286l.48.84a1.94,1.94,0,0,0,1.08.36h.12l-2.88,54.36Q31.86,406,26.28,469.8c-1,10.68-2,21.48-3.24,32.28-1.32,11.88.12,22.2,4.56,31,3-20.28,4.92-41.16,6-62.4l4.8-96L43,287.16A79.56,79.56,0,0,0,59.76,285a96.62,96.62,0,0,0,29.4-12.48c8.52,33.72,18.48,67.2,30.12,100.44a94.83,94.83,0,0,0,4.44,10.68,829.25,829.25,0,0,1,47.76,120.6c3.48,11.16,8.28,20.76,14.4,28.56a5.47,5.47,0,0,0,1.8-3.24A50.29,50.29,0,0,0,184.92,507q-13.86-37.44-30.24-73.44c-6.84-15.12-13.32-30.36-19.2-45.84Q113,329.22,91.2,271.2q22.14-15.3,33.48-43.68Q149.34,166,128,102.24q-14.58-43-58.8-45.12c-6.36.6-11,3-14,7l-.84-1.32C51.84,65.88,50.4,70,50.28,75.12ZM275.64,125c1.56-7.2,2.88-14.28,4-21.36q7.56,60.66,20.16,120.24,3.42,15.84,7.2,31.32c5.16,20.4,10.08,40.8,14.52,61.32a493.5,493.5,0,0,0-82.32,4.32l6.24-38.76q9.54-63.36,23.28-125.88Zm2.88-50.4a260.44,260.44,0,0,0-7.2,32c-2.4,16.08-5.28,32-8.76,47.76q-13.5,62.46-23.28,125.28c-2.16,14.28-4.56,28.44-7.2,42.6a9.53,9.53,0,0,0-.72,2.64v.84q-7.38,40-16.92,79.56a781.73,781.73,0,0,0-19.68,125.28,3,3,0,0,0,3.84,1.56Q208.5,470.1,222,408c5.76-25.8,10.92-51.6,15.48-77.64a514.58,514.58,0,0,0,87.12.48c3.48,16.44,6.84,33,10,49.56q11.88,63.18,25,126.24a91.56,91.56,0,0,0,12.24,30.72,7,7,0,0,0,1.68-6.24Q361.2,468.3,347.16,405.6l-18-79.32.12-.48a9.93,9.93,0,0,0-1.92-8.16l-.12-.12-1.08-4.68q-14.4-62.64-25.8-125.64c-6.84-37.32-12.72-74.64-17.88-112.08l.24-12.84-1.44,4-.72-5.4A103.3,103.3,0,0,0,278.52,74.64Zm164.76,236q11.7,63.18,19.56,127.08l2,16.08q5.94,43.2-24.36,70.8h-17.4C410,514,401.64,500.16,397.68,483.24c-5.4,10-4.68,21,2.16,33a59.18,59.18,0,0,0,16,18.12q22.14,16.92,38.16-4.08a46.75,46.75,0,0,0,8.4-17.16,253.23,253.23,0,0,0,5.76-98.76c-5.28-38.28-11.64-76.08-19.2-113.64l51.36,1.8A14,14,0,0,0,502.2,296v-.84l-.12-1.56-.24-1.68a14.73,14.73,0,0,0-1.44-3.12l-1-1-3.72-.24L413.4,285l-34.92,1.68a33.29,33.29,0,0,0-11,2.88,8,8,0,0,0-.72,2.4v.84l-.12,1.56a8.89,8.89,0,0,0,.12,2.52,5.26,5.26,0,0,0,.84,2.28l1,1q37.08-.36,73.8.48A71.61,71.61,0,0,0,443.28,310.68ZM386,64.32A408,408,0,0,0,303,66l-.24,5.76L348.6,74q-1.8,85.86-8.28,171.72a35.46,35.46,0,0,0,3.36,17.64l1.32,2.28Q352.56,170.1,351.84,74l34.2.36Zm57.72,3.6Q406.5,73.68,394.68,110A279.27,279.27,0,0,0,381,208.32a81.39,81.39,0,0,0,6.72,29.52c7.8,17.88,21.84,27.72,42.36,29.52,29.64,2.52,49-9.48,58.08-36.24A63,63,0,0,0,493,223a2.72,2.72,0,0,0-.48-3.24l-.72.84a31.5,31.5,0,0,1-4.68,5.88l-.84-.24a95.1,95.1,0,0,1-11.16,10.68q-38.52,31.5-78.72,1.56-15.3-30.06-10.44-64.44a253.83,253.83,0,0,1,16.56-60.84q15.84-38.88,58.32-31.92a11.74,11.74,0,0,0,1.08-4.92,5.37,5.37,0,0,0-.48-2.4l-.36-.84-.84-.72C455.64,68.52,450.12,67.08,443.76,67.92Zm91.92,79.56a466.43,466.43,0,0,1,.6-76.56,210.62,210.62,0,0,0-7.92,43c-.84,10-1.2,20-1.08,30.12l-46.56-3L483,69.84a171.17,171.17,0,0,0-7.32,47.28c-.36,22.8-1.32,45.6-2.76,68.28a91.32,91.32,0,0,0,1.56,24.24l.6,3.6a22.68,22.68,0,0,0,4.32-13l1.08-49.56a172.55,172.55,0,0,0,40.8,4.92h5.88l-1.44,113.28,1.68,1.92a236.17,236.17,0,0,0,6.12-53l-.12-62.88A10,10,0,0,0,535.68,147.48Z" transform="translate(-22.57 -57.12)"/></svg>