<svg id="Layer_1" data-name="Layer 1" xmlns="http://www.w3.org/2000/svg" viewBox="0 0 309.72 210.96"><defs><style>.cls-1{fill-rule:evenodd;}</style></defs><path class="cls-1" d="M283.56,350.16l3.24.36a244.7,244.7,0,0,0,14.88,26.64,32,32,0,0,1-23.28,5.4A32.3,32.3,0,0,1,275,373.8C273,364,275.88,356,283.56,350.16ZM281,337.08q-13.32,13.14-12.6,33.12a67.62,67.62,0,0,0,5.88,26.16,25.49,25.49,0,0,0,20.52,1.44A30.71,30.71,0,0,0,309,388a102.3,102.3,0,0,0,7.8,11.52,12.26,12.26,0,0,0,4.08,3.36c4.08-4.92,4.2-10.32.36-16.44a994.09,994.09,0,0,1-49.08-88c-1.32,9.24.48,19.2,5.4,30.12Zm-114.72-79a404.92,404.92,0,0,0-1-46.92q17.28-5.94,29.88,9,24.66,29.34,3.6,62.4c-8.64,13.44-20.16,20.64-34.44,21.72C165.24,289,165.84,273.6,166.32,258.12Zm-1.8-58.2-.84-5.88a221.81,221.81,0,0,0-6.84,68c.72,14,.84,28.2.48,42.36a7,7,0,0,0-2.76,4.44,11.83,11.83,0,0,0,2.16,10.2,251.23,251.23,0,0,1-7.08,64.32l-.84,5a19.83,19.83,0,0,0,.72,7.56,24.12,24.12,0,0,0,3.12,6.36c7.92-11.76,11.4-28.08,10.56-49a277.27,277.27,0,0,1,.24-33.12A54.67,54.67,0,0,0,188.64,307a144.74,144.74,0,0,0,17.52,57.84l7.2,13.32a275.79,275.79,0,0,0,14.88,25.08l.24-.12,2.28-16.68-3.24-2.52a578.76,578.76,0,0,1-35-80.28,65.52,65.52,0,0,0,19.08-32.16l1.68-7.68a86.31,86.31,0,0,0,1.56-16.68,57.44,57.44,0,0,0-4.68-22.8,44,44,0,0,0-27.36-25.08,87.79,87.79,0,0,0-9.6-2.76Zm287.76-1.56q-3.42,44.64-2.88,89.76A141.08,141.08,0,0,0,407.16,293l-.12.24c-.36-22.92-.84-45.72-1.68-68.4h-.6a662.32,662.32,0,0,0-5.28,93.24,385.5,385.5,0,0,1-2.4,48.6c-1.32,12.24.72,22.8,6.12,31.8A257.39,257.39,0,0,0,407.28,353V305.52l1.32,2.16,41-2.52.84,19.08a283.2,283.2,0,0,1-2,48.36q-2.34,17.82,2.88,32.4a5.74,5.74,0,0,0,3.24-4.56,200.11,200.11,0,0,0,3.6-34.08c.36-13.2.36-26.52,0-39.84q-1.8-64.62-5.52-128.16Zm-68,1.56a271.37,271.37,0,0,1-66.36,6.24,13.15,13.15,0,0,0-.48,10.44,4.43,4.43,0,0,0,.84,1.68L319.8,220c13.8,0,27.36-.24,40.92-.84-.36,42.72.12,85.44,1.2,128.28A195.09,195.09,0,0,1,360,379.68c-1.44,9.72,0,17.64,4.44,23.52A86.7,86.7,0,0,0,369,371.52c-.36-10.68-.6-21.24-.6-31.68q-.18-61-4-120.84l40.08-2.52a13.15,13.15,0,0,0,2.4-10.56,7.92,7.92,0,0,0-1.44-3.24l-1.2-1.68-13.2-.48Z" transform="translate(-148.71 -194.04)"/></svg>