<svg id="Layer_1" data-name="Layer 1" xmlns="http://www.w3.org/2000/svg" viewBox="0 0 595.57 842.18"><defs><style>.cls-1{fill:#fff;}.cls-2{fill:none;stroke:#fff;stroke-linecap:round;stroke-linejoin:round;stroke-width:0.38px;}.cls-3{fill-rule:evenodd;}</style></defs><rect class="cls-1" x="0.31" y="0.31" width="595.08" height="841.68"/><rect class="cls-2" x="0.19" y="0.19" width="595.2" height="841.8"/><path class="cls-3" d="M95.28,63.84q-14.58,80.1-22.8,161.28L56,122.28l-19.8,96.6A687.51,687.51,0,0,0,19.32,63.48q7.2,85.14,12.48,170.16a23,23,0,0,0,2.88,10.2,380.53,380.53,0,0,0,20.76-91A693.83,693.83,0,0,0,72,254.4,753.82,753.82,0,0,0,94.44,126.6c1.08-10.68,2.52-21.24,4.44-31.8a41.57,41.57,0,0,0-2-27.72Zm200.28,72.72q11.16,63.9,24.48,127.32c2.52,11.64,4.8,23.28,7,34.92l-.12-.12A59.82,59.82,0,0,0,315,300.24a229.36,229.36,0,0,1-55.08,6.12c6.12-37.44,11.64-74.88,16.8-112.44Q281,162.24,288.12,131q2.34-11,4-22C292.92,118.32,294,127.44,295.56,136.56Zm-76.32,25.56q-12.42,76-73.44,122.64a42.37,42.37,0,0,1-9.48,5.52,42.81,42.81,0,0,0-11.64,7.08c2.52-35,4.68-70.2,6.24-105.48A662.22,662.22,0,0,0,127,80.4l.72.24q48.06-9.36,77.76,28.8C217.8,125.16,222.36,142.8,219.24,162.12Zm9.12-5.88a105.58,105.58,0,0,0-10.56-42.36,95.29,95.29,0,0,0-28.32-34.8,77.38,77.38,0,0,0-42.12-16,47.13,47.13,0,0,0-22,4.44l-1.08-3.84a71.91,71.91,0,0,0-.72,12.48q1.08,62.46-.72,124.68c-1.08,38-3,76.08-5.76,113.88A1686.12,1686.12,0,0,1,93,504.84a183.94,183.94,0,0,0-1.32,59.52,3,3,0,0,0,.48,1.68l1.68,3.24a740.34,740.34,0,0,0,13-75.48q8.64-70.38,13.56-140.88l2.4-31.68,33-23.88q19.08,63,34.08,126.72A1071.12,1071.12,0,0,1,211.92,553a28.09,28.09,0,0,0,6,15c1.32,1.56,2.52,2.28,3.6,1.92a390.74,390.74,0,0,0-6.36-61.44q-14.22-76.86-31.32-152.88a340,340,0,0,0-19.68-60.24l-1.8-4a231,231,0,0,0,30.72-35.88A228.41,228.41,0,0,0,215.76,214l5.16-12.84A112.18,112.18,0,0,0,228.36,156.24Zm65.52-88.8-.72,2.28c-1.32.36-2,1.56-2.16,3.36V76.8a381.94,381.94,0,0,0-11.88,54.6q-9.36,63-19.44,125.88c-2.64,16.32-5.4,32.64-8.28,48.84l-1.92-.12a7.59,7.59,0,0,0-1.2,6.24,9.42,9.42,0,0,0,1.44,3.12q-6.3,34.38-13.32,68.52-6.66,31.86-16.2,62.76c-4.32,14.16-4.44,27.24-.48,39.36a2.87,2.87,0,0,0,1.32-1.68q6.66-19.26,11.52-39.24,14.58-62.1,25.08-125.16l.36-2A227.33,227.33,0,0,0,329.52,313c4.44,25.44,8.28,51,11.28,76.56,5,41.88,9.24,83.76,12.6,125.88.84,10.68,1.2,21.24,1.2,31.68,0,9.84,2.64,17.28,7.92,22.44a2.51,2.51,0,0,0,1-2.28q-2-59.58-8.28-119.4-6.48-63.54-16.68-126.6T315.84,195.12Q303.42,132.66,294,70.44ZM445.44,422.28q-9.54,61.38-16.8,123.48a578.7,578.7,0,0,1-33-99.12c-2.28-9.36-5.76-16.32-10.68-20.76Q379.56,466,376.68,507a190.05,190.05,0,0,1-3.84,27.36c-2.52,11.88-1.44,22.32,3.24,31.2a97.86,97.86,0,0,0,5.16-29.28l.24-1.68c3-25.2,5.16-50.64,6.24-76.2,4,13.44,8.4,27.12,13.32,40.92,5.16,14.4,9.84,28.8,14.28,43.2,3.24,11,8.28,20,14.88,27a42.82,42.82,0,0,0,6.48-21.12,360.46,360.46,0,0,1,8.88-63c4.92-21.72,5.28-43,.84-63.6C445.8,421.92,445.56,422,445.44,422.28ZM430.8,98.76a51.84,51.84,0,0,1,19.44,13.56l.36-.84c1.44-19.32-8-29.64-28.56-30.84q-29,12.24-39.48,42.6a407.5,407.5,0,0,0-21.48,112.32c-1.56,31-2.4,62.16-2.76,93.48q-.54,50.94,35.88,83.52c15.72.12,29.4-4.8,41-15,15-13.08,19.68-27.72,13.92-44.16-10,25-28.44,38.52-55.2,40.56a50.16,50.16,0,0,1-19.08-28.32,284.37,284.37,0,0,1-9-83.4A839.67,839.67,0,0,1,379.08,163q7-38,34.32-62.52a30.91,30.91,0,0,0,5-1.44A14.39,14.39,0,0,1,430.8,98.76Zm156.36-19.2c-8.16,11-14.16,24.24-18,39.72q-14.94,60.66-32.64,120.12a698.83,698.83,0,0,1-47.16,118.32l1.08-19.8q3.78-64.26,5.64-128.16,1.8-65.16-1.2-128.28c-4.44,10.2-6.36,21.6-5.88,34.44q2.34,63.9.24,127.32-2.34,64.44-6.12,128.4c-2.52,43.32-6.6,86.28-12,129-1.8,13.56-4,26.88-6.6,40.2-2.52,12.6-1.32,23.16,3.84,31.68a246.68,246.68,0,0,0,8.88-52.68c1.2-18,2.52-35.88,4.08-53.76,2.28-27.24,4.44-54.6,6.24-81.84l.6.48c11.76-22.44,22.44-45.24,31.92-68.64,4.2-10.08,8-20.28,11.64-30.6a512.48,512.48,0,0,0,7.08,67.32c5.4,31.08,10.2,62.28,14.64,93.6q6.66,48.06,15.36,95.4c2.16,11.88,5.88,22.32,11.28,31.32a5.92,5.92,0,0,0,3.12-5.4,163.92,163.92,0,0,0-5.52-40.92,822.3,822.3,0,0,1-23-125.52,1125.3,1125.3,0,0,0-20.16-124.2q5.76-17.64,10.44-35.64,16.2-61.92,36.36-123.12A108.13,108.13,0,0,0,587.16,79.56Z" transform="translate(0.19 0.19)"/></svg>