<svg id="Layer_1" data-name="Layer 1" xmlns="http://www.w3.org/2000/svg" viewBox="0 0 305.21 218.52"><defs><style>.cls-1{fill-rule:evenodd;}</style></defs><path class="cls-1" d="M302.28,344.76l13,23.76c-10.92,12.36-23.52,15.12-37.8,8.16l-2.52-1.44c.6-16.8,8.76-26.88,24.72-30.12Zm-86.64-84.6c-13.32,19.08-31.68,28.68-55.08,28.56a719,719,0,0,0,.36-85.08,31.22,31.22,0,0,1,20.4-.72A134,134,0,0,1,214,232.32C221.4,241.68,222,250.92,215.64,260.16Zm66.12,47.76,13.32,23.64-2.88-.36q-29.7,15.48-22.68,50.64c2.4,11.88,10,17.16,22.56,15.72a51.73,51.73,0,0,0,14.64-3.84c8-3.48,13.08-7.8,15.24-13.08l13,23c2.52-2.64,3-5.76,1.68-9.24A418.41,418.41,0,0,0,284,297.36C279.6,299.28,278.88,302.76,281.76,307.92ZM192.24,196.2A78.61,78.61,0,0,0,175.32,188a24.3,24.3,0,0,0-13.44,3l-1.68,1.08-1-7L157.8,194l-1.44,1.32-4.68,92.88c-3,3.48-3.48,7.68-1.56,12.6l.6,1.32a295.06,295.06,0,0,0-2.4,101,490.35,490.35,0,0,0,11-98.28,58.66,58.66,0,0,0,26.16-3.36,444.08,444.08,0,0,0,44.76,101.88q-9.54-53.28-36.6-105.24c17.4-8.76,28.2-22.68,32.16-41.64a24.08,24.08,0,0,0,.36-9.24A63.68,63.68,0,0,0,222.72,233a71.17,71.17,0,0,0-23.28-31.8A77.09,77.09,0,0,0,192.24,196.2ZM359,400.44c29.64,1.56,59.52,2,89.52,1.68a17.82,17.82,0,0,0,1.32-11.4l-.24-.84-.6-1.56-.72-1.68-.72-.36a340,340,0,0,1-48.24-1.56,184.12,184.12,0,0,0-33.12,2.4l-4.92,1.2a484.31,484.31,0,0,0,6.48-67.44c1.08-43.32.6-86-1.68-128.16a242.46,242.46,0,0,0-6,60.84A923.4,923.4,0,0,1,357,350a205.21,205.21,0,0,0,.84,43.92l.12,2.4.12.84.6,2.4Z" transform="translate(-145.07 -185.16)"/></svg>