<svg id="Layer_1" data-name="Layer 1" xmlns="http://www.w3.org/2000/svg" viewBox="0 0 395.98 329.71"><defs><style>.cls-1{fill-rule:evenodd;}</style></defs><path class="cls-1" d="M138.36,147.48a82.18,82.18,0,0,1,12,44.88A69.37,69.37,0,0,1,136.44,233,76.87,76.87,0,0,1,118,250.92l-1-1.32-.36,2.28-19.2,6.48a1199.75,1199.75,0,0,0,4.56-133C116.88,124.68,129,132,138.36,147.48ZM112,112.08l-5.88-.36A12.11,12.11,0,0,0,96.72,118a11.86,11.86,0,0,0-1.2,10,49.3,49.3,0,0,0-.84,9.6Q94.5,197.82,90,257.88l-1.2-.24a11.76,11.76,0,0,0-3,9.12,14.28,14.28,0,0,0,1.32,4.92l1.8,1.32q-4.5,60.12-5.76,121a52,52,0,0,1-2.76,15.6c-3.48,10-2.52,18.12,3,24.48A10,10,0,0,0,88,425.88L94.8,306.6l1.8-33.84a83.14,83.14,0,0,0,19.92-8.28A106,106,0,0,0,123,294.6q22.5,61.38,42.6,121a5.14,5.14,0,0,0,2.88-5.28,148.76,148.76,0,0,0-7.92-39.6l-39-109.44a89.15,89.15,0,0,0,18.84-17.52,61.41,61.41,0,0,0,14.28-34.44q4.68-54.54-36.24-94a20.22,20.22,0,0,1-5.16-2.4Zm89.16,48.36c-.6,40.32-.84,81.36-1,123.12a611.25,611.25,0,0,1-3.48,64.68c-1.08,10,.84,18,5.64,24.36l1-1.2q4.5-40.86,5.52-82.68a732.19,732.19,0,0,0-7.2-128.28Zm36.48-13.2c.12,31.2-.72,62.28-2.76,93.24q-4.14,63.9-6.84,128.4c-.6,10.8-1.56,21.48-2.88,32.16-1.68,12.36-.48,22.92,3.72,31.92a15.32,15.32,0,0,0,5-11.4q.18-39.42,2.52-78.6,3.06-47.88,5-96,2.7-64.62,1.2-128.16A72.33,72.33,0,0,0,237.6,147.24Zm6.6-29.52a255.69,255.69,0,0,0,7.56,70.68Q267.06,250.68,281,313c6.84,31.08,12.24,62.4,16,94,1.32,11.88,5,22.08,10.92,30.6a2.44,2.44,0,0,0,1.2-2.4l-.24-5c2.4-16.68,4-33.6,4.8-51q3.06-64.08,4.68-128.28,1.62-65-1-128.16c-4,7.08-5.76,15.48-5.52,25.08,1.08,42.84.84,85.68-.72,128.28-1.32,38-3.48,76.08-6.72,113.88-1.2-7.32-2.64-14.76-4.32-22.2q-13.86-62.46-28.44-124.8Q257.1,180.06,244.8,117.72ZM452.4,160.2a33.49,33.49,0,0,0-14,13.68,168.51,168.51,0,0,0-18.72,51.24,599.16,599.16,0,0,0-10.92,127c.36,16.68,6.12,30.84,17.52,42.24,4.44,4.56,9.6,6,15.36,4.2q36.72-10.8,32.16-45.12a36.7,36.7,0,0,1-4.56,8.88c-7.56,11.16-18,17.4-31.08,18.6-5.16.48-9-1.56-11.4-6.24C414.6,351,411,325.2,416,297.48l2.52-15.12q22.14,3.06,44.64,4l1.08-.6,1.32-.84.84-.72a11.74,11.74,0,0,0,1.08-4.92,18.74,18.74,0,0,0-1.8-7.2l-.6-.84a2.74,2.74,0,0,0-1.44-.72,41.55,41.55,0,0,0-21-2.88,50.12,50.12,0,0,0-22.44,1.2l1.8-18.36q3.24-41.58,27.6-73.68c9.48-.72,17.16,3,22.8,11.28a4.58,4.58,0,0,0,1.8-4.8c-1.56-10-6.84-17.64-15.84-22.8ZM408,158.28l-1.8-12.72q-15.3-25.56-35.28-4a80.32,80.32,0,0,0-20,40.32,135.35,135.35,0,0,0-.36,47.16,149.34,149.34,0,0,0,14,42.6,298.4,298.4,0,0,1,16.92,39.84c4,11.28,7.56,22.68,10.92,34.08a103,103,0,0,1,3,46c-2.64,16.32-12.12,27.24-28.44,32.88s-25,1-26-14L336,413.64c-1.32,26,12,33.72,40,23.28a34.12,34.12,0,0,0,18-15,85.88,85.88,0,0,0,11.4-33.72,104,104,0,0,0-4.56-45.84,248.8,248.8,0,0,0-17.64-41A213.49,213.49,0,0,1,358.08,187q2.52-42.12,37.8-35.64A19.73,19.73,0,0,1,408,158.28Z" transform="translate(-78.36 -111.72)"/></svg>