<svg id="Layer_1" data-name="Layer 1" xmlns="http://www.w3.org/2000/svg" viewBox="0 0 522.12 549.54"><defs><style>.cls-1{fill-rule:evenodd;}</style></defs><path class="cls-1" d="M297.24,566.52a322,322,0,0,0,0-60.84c23.16-.24,34.92,11.16,35.28,34.08C326,556.68,314.28,565.56,297.24,566.52Zm-1.68-61,.48.12a272,272,0,0,0-2.76,53.16,77.74,77.74,0,0,0,2.76,17.4,35.79,35.79,0,0,0,9-1.2q22.86-6.12,28.8-30.6c4.2-17.28-1.08-31.2-15.72-41.76a25.43,25.43,0,0,0-19.44-4.32l-2.64,1.8-.72,4.68ZM316,480.84,303.24,424a384.93,384.93,0,0,0-18.36,40.8c-3.84,10-5.16,18.72-4.08,26.28A204.33,204.33,0,0,0,292.68,457a133.52,133.52,0,0,0,9.48-21.12l7.08,43.2c1.08,7.08,4.08,11.4,8.88,13.08l.48-.24a83.87,83.87,0,0,0,6.36-19.2c4.44-10.68,9.12-20.88,14-30.84l2.88,26.88c1.08,10.68,4.32,19.32,9.6,25.92l.24-.84-11.4-69c-2.88,1.32-4.08,3.84-3.72,7.56-7.2,16.44-13.92,32.76-20.28,49Zm-14.4-98.4,5.52-.84a15.86,15.86,0,0,0,5.88-3.48c9.48,2,14.28,7.08,14.28,15.24.12,12.6-7.8,18.24-23.52,17l-9.6-1.56-.48,1.44,2.52-27.6Zm14.52-9c6-18.24-.84-28.32-20.64-30.24l-.48.36-2,29.64-1.56-.36-.24,8.16,1.32.6.24,38.16.84-7.32.6,3.72c20.76,8.28,33,1.8,37-19.68,2-10.44-1.92-17.64-11.88-21.72Zm-8.76.72-10.44-.24c3.84-9,3.6-17.4-.6-25a24.73,24.73,0,0,1,19.2,9.84l2,4.92Zm-23.76-75,1.92,35L334.92,331l1.08-8.4-47.28-.24,1.56-67.44A104.73,104.73,0,0,0,283.56,299.16ZM77.52,37.44C72.84,58.2,68.28,79,64.08,99.84,60,80.28,54,62.76,46,47c-4,16.2-8.4,31.56-13.44,46.32L32,92.52c-2.28-16.68-5-33.24-8.28-49.44q1.62-2.7-.72-5.76a242.82,242.82,0,0,0,9.48,68.16A334.17,334.17,0,0,0,47.64,57.36a485,485,0,0,0,17.28,56l.36-.36a402.53,402.53,0,0,0,13-76A2,2,0,0,0,77.52,37.44ZM158.64,98a235.6,235.6,0,0,1,3.6,45,129.42,129.42,0,0,1-9.12,46.32A182.22,182.22,0,0,1,130.56,230a50.38,50.38,0,0,1-20,16.08l-1-3.12-.72,3.84L89,249.48l-4.56-3,13-202.2c16.32-1.92,30,2.88,41.16,14.28A72.5,72.5,0,0,1,158.64,98Zm-59-63.72-1.92.84a.8.8,0,0,0-.84.48v.24l-.72.6a6.45,6.45,0,0,0-.6,2.52v1.32a254.81,254.81,0,0,0-8.4,50.76Q83,155.16,80.4,219.48l-1.08,28.44-.6,3.24a12.15,12.15,0,0,0,.24,3.6c-1.32,31.08-3,62-4.8,93-2.52,42.84-4.8,85.56-7.08,128.16-1.2,21.48-3.24,42.72-6.24,63.84q-2.52,18,2.52,32.76c.72-.24,1.08-.6,1.08-1a946.74,946.74,0,0,0,10.92-120c1.32-42.84,3-85.68,5-128.28l3.36-62.4,4.56,1.92a16.15,16.15,0,0,0,12.72.12l7.44-3.48A76.5,76.5,0,0,0,112,275.76c4,11.64,8.16,23.28,12.84,35q24.3,60.66,46.2,121.8a926,926,0,0,1,34.2,119.16c2,9.36,5.88,16.32,11.52,20.76a4.13,4.13,0,0,0,.6-3.12q-8.28-43.2-20.16-86.28A875.39,875.39,0,0,0,154.32,362.4q-23-52.56-40.56-106A85.42,85.42,0,0,0,139,232.92a115.94,115.94,0,0,0,17.28-34.68,239.21,239.21,0,0,0,7.2-108.36q-8.28-51.66-59.64-57.12ZM253.44,44.76q-2.52,29.7-4.32,60.12-4,64.62-2.52,130Q248,299.46,248.4,364l.84,129a394.13,394.13,0,0,1-2.52,47.76q-2.16,18.72,4.32,32.4a2.54,2.54,0,0,0,1-1.44,617.65,617.65,0,0,0,4.32-82l-1.56-129q-.72-64.44-.84-129.12c-.12-21.72.24-43.32,1-64.8,1.44-43.32,2-86,1.92-128.4C254.76,39.72,253.68,41.76,253.44,44.76Zm26,7.56L276,88.56l-3.48,35.64a193.56,193.56,0,0,0,.84,44.88,50,50,0,0,0,2.28,10.56l6.24-106.2q4.86,37.26,12.36,74.16c.84,4.2,1.8,8.28,3,12.36a139.16,139.16,0,0,0,6.6,17.88l1.32-6.6.84,3,9.24-130.68L303.36,160.92q-7.2-29.7-12.72-60.12c-2.64-15.24-5-30.36-7.08-45.6l-2-15.24Zm72.72,249-37.56-3.12.6-43.08c-5.4,16.92-6.48,34.68-3.36,53.16l39,.72Zm13.56-255a59.85,59.85,0,0,0-28.32,28A176.08,176.08,0,0,0,322.2,119c-2.88,14.64-5.16,29.28-7,43.92a196.2,196.2,0,0,0-.72,39.36,140.16,140.16,0,0,0,10.92,43.44l6.24,5A23.73,23.73,0,0,0,354,247.08a74.4,74.4,0,0,0,14.4-14.4,42.65,42.65,0,0,0,4.08-6.6l2.28,28.32a241,241,0,0,0,3.36-64.68c-.48-5.28-1.2-10.32-2-15.24l-27.6-2.64-1.68,6.48,27.36,3.24c3.36,18.48-.72,34.8-12.36,48.84a28.86,28.86,0,0,1-10.56,8.16,25,25,0,0,1-7.2,2.16,23.19,23.19,0,0,1-10.32-2.28,36.84,36.84,0,0,1-8.28-5.16,243.89,243.89,0,0,1-3.24-102.12,157.91,157.91,0,0,1,9.72-33,155.58,155.58,0,0,1,8.52-17.4A64.57,64.57,0,0,1,357.36,61.2c6.36-5,12.84-5.4,19.68-1.08l4.2,2.88a6.58,6.58,0,0,0,1.32-2.76,10.24,10.24,0,0,0-.72-5.4,25.51,25.51,0,0,0-4.92-7.2Zm174.36,56.76,5,10.08q-7-51.48-64.68-52.56c-9-.24-16.8,3-23.52,9.6a105.15,105.15,0,0,0-28.8,49.32,182.16,182.16,0,0,0-5,67.32,189,189,0,0,0,6.24,31.2,174.37,174.37,0,0,0,15.48,37.56q24.84,45,46.08,91.8A360.74,360.74,0,0,1,506,388.08l4.08,15.24a209.42,209.42,0,0,1,5.16,30.84,265.88,265.88,0,0,1,.72,39.12,158.13,158.13,0,0,1-5.16,32.64,106.32,106.32,0,0,1-9.24,23A97,97,0,0,1,482.16,554c-8.52,7.8-18.6,11-30,9.48-17.64-2-32.4-8.88-44.28-20.64-8.28-8.16-13.08-18.48-14.52-30.84-.84-6.48-1.92-13-3.24-19.32q-14,63.18,44.76,86.4A43.2,43.2,0,0,0,461.52,581a65.75,65.75,0,0,0,34.32-20.76,93.9,93.9,0,0,0,20.88-40.44,283.45,283.45,0,0,0,6.12-34.68,188.37,188.37,0,0,0-.24-42.72,370.74,370.74,0,0,0-17-75.6c-5.64-16.68-12-33.24-19-49.68-3.48-8.28-7.32-16.32-11.52-24.36a174.55,174.55,0,0,0-10.8-17.4,186.43,186.43,0,0,1-20.16-35.64,180.3,180.3,0,0,1-13-46.44,191.73,191.73,0,0,1-2-38,129.38,129.38,0,0,1,12-48.72c7.32-15.84,19-26.16,34.92-30.84a45,45,0,0,1,34.56,2.76,92.66,92.66,0,0,1,28.68,22.2Z" transform="translate(-23.04 -32.76)"/></svg>