<svg id="Layer_1" data-name="Layer 1" xmlns="http://www.w3.org/2000/svg" viewBox="0 0 293.76 211.56"><defs><style>.cls-1{fill-rule:evenodd;}</style></defs><path class="cls-1" d="M203.64,276.12a51.36,51.36,0,0,1-37,16.68l.24-78.84c21.24-10.08,36.24-3.24,45.24,20.52C218,250.08,215.16,264,203.64,276.12Zm65.88,24.12a589.54,589.54,0,0,0-7.68,65.4,61.29,61.29,0,0,0,5.4,29.28l2.76,5.76c6.84-.24,12.24-3.36,16.2-9.48a59.4,59.4,0,0,0,4.56-8.64,16.21,16.21,0,0,0,.84-10.32L270.84,383.4l.84-84.36Zm1.56-34.8c-5,5.4-5.16,11.28-.36,17.4l1,1.08c4.68-3.12,6.6-7.44,5.88-13.08l-.48-2-4.68,3.12,1.08-4.08Zm-81.72-67.08a66.65,66.65,0,0,0-8.64-3l-14.28,7.32-.84-4.92c-4.32,35.16-7.2,70.2-8.76,105.36q-1.08,28.26-4,55.8a255.54,255.54,0,0,0-.84,41.76l3-1.08a696.6,696.6,0,0,0,11-93.6l19.32-4.08A261.48,261.48,0,0,0,230.52,403.2c5-16.92.24-33.84-14.28-50.52a85.23,85.23,0,0,1-12.6-19.56,352,352,0,0,1-13.8-33.24c13.32-5.76,22.44-15.36,27.24-28.92a48.53,48.53,0,0,0,2.76-12.36,80.39,80.39,0,0,0-1.56-25.68l-.6-2.28A53.26,53.26,0,0,0,213.12,219a45.36,45.36,0,0,0-11.4-13.44A49,49,0,0,0,189.36,198.36Zm182.4,26.76q1.8-25-23-26.64l-3.48-.12-5.88,2.52q-20.7,47.7,9.36,95A123.36,123.36,0,0,1,368,354a23.76,23.76,0,0,1-2.52,12.12,27.92,27.92,0,0,1-7.68,9.48c-8.52,6.6-17.4,7.92-26.76,3.72Q300.3,365.46,303,331.44l4.08-4.44-6.24-5.4c-8,16.92-7.44,35,1.56,54.36a38.35,38.35,0,0,0,32.52,23.16l13.8-1,2.52-.48,1.56-1.56Q380.34,375.6,373,334.68a171.82,171.82,0,0,0-25.56-64.2,60.85,60.85,0,0,1-10.08-29.76,78.75,78.75,0,0,1,3-27.48c14.16-5.88,24.36-2,30.6,11.4C371,224.88,371.28,225,371.76,225.12Zm71.76-26.4a848.35,848.35,0,0,0-11.16,89.52L422,287.4a50.74,50.74,0,0,0-24.12,2.52q1.8-48.06,1.68-95.4A668,668,0,0,0,391.92,285a586.94,586.94,0,0,1-9.48,95.52q-2.7,14.58,3.6,23.4a508.46,508.46,0,0,0,10.56-82l.84-19.92a291.31,291.31,0,0,1,34-.24l-.48,8.76a514.4,514.4,0,0,1-7.2,63.84c-2.28,12.6-1.08,23.16,3.48,31.68a47.71,47.71,0,0,0,4.44-16.92l6.48-87a9.61,9.61,0,0,0,2-4.8,13.12,13.12,0,0,0-.84-6.48l-.24-.72L441,261.72l4.32-64.2A1.45,1.45,0,0,0,443.52,198.72Z" transform="translate(-151.56 -194.52)"/></svg>