<svg id="Layer_1" data-name="Layer 1" xmlns="http://www.w3.org/2000/svg" viewBox="0 0 445.37 510.12"><defs><style>.cls-1{fill-rule:evenodd;}</style></defs><path class="cls-1" d="M153.48,93.24q-28.62-31.14-70-25.92a390.58,390.58,0,0,1,1,54.48l-6.24,129c-1,21.72-1.68,43.56-2.28,65.52h.24l1,.6.72.72.6.6q74.52-7.74,102.6-75.6a106.29,106.29,0,0,0,7.44-31c3.36-38.52-4.92-73.56-25-105.36A97.23,97.23,0,0,0,153.48,93.24ZM289.2,153.72A661.88,661.88,0,0,1,292.68,282a1236.19,1236.19,0,0,0-2,128.28,7.89,7.89,0,0,1-1.92,5.64c-4.8-8.4-6.84-19-6.24-31.56q3.6-64.44,5-128.88,1.26-51.66,1.2-101.52C288.72,153.84,288.84,153.84,289.2,153.72Zm-95.88,24.72a225.83,225.83,0,0,1-4.8,59q-9.9,46.08-47.88,71.88,21.06,56.7,43,112.92,11.88,30.42,21.6,61.44A364,364,0,0,1,220.92,565a2.18,2.18,0,0,1-.36,1.68c-4.44-8-7.68-17.76-9.72-28.92a557.81,557.81,0,0,0-37-120.84c-6.12-14-11.76-28.44-16.92-43q-11.16-31.5-19.2-62.64-5.94,3.78-12.6,7.2a132.37,132.37,0,0,1-47.76,13.8l-1.68-1.44c-.36,16.32-.6,32.64-.6,49.08-.12,42.84-.48,85.56-1.32,128.16a186.39,186.39,0,0,1-7.2,48q-5.22-13.86-1.8-32a116,116,0,0,0,2-16q3.78-63.9,3.48-128.16-.18-64.8,3-129.12,3.24-64.62,5.88-129l2.28-54.24-.6.12-.24-.84-.24-1.68-.12-2.4a4.57,4.57,0,0,1,.48-2A14.26,14.26,0,0,1,81.6,58c.12-.36.48-.48,1-.36l.12,1.32a10.13,10.13,0,0,1,2.88-.72,49.71,49.71,0,0,0,11.88-1.68C134.88,61,161.76,80.88,178,116A167.51,167.51,0,0,1,193.32,178.44ZM388.56,60.12C425.88,54.6,456,65.28,478.68,92a90.21,90.21,0,0,1,16.8,29.52c10.68,30.24,14.88,61.92,12.84,94.92a161.37,161.37,0,0,1-21.48,72.12,33.25,33.25,0,0,1-19.32,15.48,200.92,200.92,0,0,1-83.28,8.64L384,326c-.48,43.08-1.32,86.16-2.52,129A658.18,658.18,0,0,1,369.6,562.2c-4-9.12-4.68-19.8-2.4-31.92a362,362,0,0,0,5.88-48.36q3.42-64.44,4.68-129l1-41.28-2.64-1-.72-1a12.4,12.4,0,0,1-2.28-6.36,23.53,23.53,0,0,1,1.08-8.16,1.85,1.85,0,0,1,1.32-.24,2.81,2.81,0,0,1,2,1.8l.48,1,1,.24q.9-37.26,1.92-74.16,2-64.26,1.8-128.28l.12-22c0-2.4.84-4,2.64-4.8a7.86,7.86,0,0,1-.6-3C384.84,62.76,386,60.84,388.56,60.12Zm-3,9.12a1253.45,1253.45,0,0,1,1.68,127.68q-1.8,51.12-2.76,102.36,32.94,7.2,67.68-2.52a74.69,74.69,0,0,0,27.72-14.4,51.28,51.28,0,0,0,18-30.12q13.5-65.52-8.28-127.56C478,91.8,454.44,74.52,418.8,72.84c-10.2-.48-20.52-.72-30.84-.6l-1-1Z" transform="translate(-63.45 -56.52)"/></svg>