<svg id="Layer_1" data-name="Layer 1" xmlns="http://www.w3.org/2000/svg" viewBox="0 0 296.55 211.92"><defs><style>.cls-1{fill-rule:evenodd;}</style></defs><path class="cls-1" d="M218.16,231.72q11.52,34.92-20,57.48a22,22,0,0,1-5.76,3h-.24L191,290a3.68,3.68,0,0,0-2.76,3.48,90.11,90.11,0,0,1-20.4,3.6c2.28-30.84,3.6-61.56,3.72-92,11.76-.6,22.8,2.52,33.24,9.36A31.6,31.6,0,0,1,218.16,231.72Zm69.48,89.76a182.78,182.78,0,0,1-2.76,28.92c-3.12,17.4-1.2,33.36,5.64,48.12C307.44,397,316,387.84,316,371.16c-5.64,1.08-10.44,4.44-14.52,10.08a8.79,8.79,0,0,1-9.48.48,268.25,268.25,0,0,1,1.92-43.8,160.77,160.77,0,0,0,0-43C289.8,302.52,287.76,311.28,287.64,321.48Zm11-59.52a5.38,5.38,0,0,1-2,4c-1.08.84-1.56.72-1.56-.36Zm0-10.8-2.16.72a26.39,26.39,0,0,0-5.4,19.68l.48,3.12,3.84,3c6.84-6,8.88-13.2,6-21.48A14.68,14.68,0,0,0,298.68,251.16ZM199.32,198.6a68.66,68.66,0,0,0-21.84-5.4l-5.88,2.52V193.2l-1.2,2.88-2.52.84q-5.4,49.5-7.44,100.2h-2.16a19.63,19.63,0,0,0-1,10.56,4.86,4.86,0,0,0,1.8,3.36q-10.44,48.6-5.52,94.08a688.76,688.76,0,0,0,13-92.28,47.08,47.08,0,0,0,26.52-4.44,307.47,307.47,0,0,0,51.72,95.28q-14.58-50.22-46.08-98.52,23-16.38,28-44.52a66.16,66.16,0,0,0,.84-16.2,67.61,67.61,0,0,0-6.6-25.2,40.94,40.94,0,0,0-9-12.12A42.48,42.48,0,0,0,199.32,198.6Zm238.56,15.6q-20.34,60.66-42.72,120.36a269.75,269.75,0,0,1-13.56,30L379.44,369q-7.2-56.7-18-112.8a223.6,223.6,0,0,0-21.36-61.68c-2.88,2.88-3.24,6.48-1.2,10.8a171.08,171.08,0,0,1,12.72,37.56A884,884,0,0,1,370,368.4c.84,11.76,3.6,21.6,8.52,29.64l1.56-3,.36.48c5.52-11.64,10.56-23.52,15-35.64q22.14-59.94,44.76-119.64c5.88-15.48,8.76-30.72,8.4-46A64.34,64.34,0,0,0,437.88,214.2Z" transform="translate(-152.04 -193.2)"/></svg>