<svg id="Layer_1" data-name="Layer 1" xmlns="http://www.w3.org/2000/svg" viewBox="0 0 502.82 493.37"><defs><style>.cls-1{fill-rule:evenodd;}</style></defs><path class="cls-1" d="M80,74.16A73.41,73.41,0,0,1,115,80.52c22.68,10.2,38.64,27,47.64,50.28q26.28,67-22.8,121.44C118.08,276.36,91,287.88,58.56,287l7.2-86.52C69.24,158,72,116,73.8,74.52ZM70.2,72.24l.24,1.56.48.84h1.44c-4.68,37.8-8.64,75.72-11.64,113.88L52.56,286.8l-2.28-.24a4.87,4.87,0,0,0-1.8,4.08l.12,3.24a10.07,10.07,0,0,0,.84,3.12l.84,1,1.32.12L50,316q-5.4,63.9-9.36,128.4c-1,16-2.52,31.92-4.8,47.64-1.8,12.36-.48,22.92,3.84,31.56a515.74,515.74,0,0,0,7-67.32c1.56-42.6,4.2-85.2,8-127.56l2.76-30.24a109.82,109.82,0,0,0,43.44-7,141,141,0,0,0,5.52,15q21.78,50.22,44.28,100.08,27.18,59.94,54.72,115.68a15,15,0,0,0,0-12.84q-19.62-44.1-41.4-87.24c-4.92-9.72-9.36-19.56-13.32-29.64a985.83,985.83,0,0,0-46.32-100.8l-.48-.84-.12-.6A114.38,114.38,0,0,0,131.4,274a102.08,102.08,0,0,0,25.08-27.72,119.52,119.52,0,0,0,17.4-49A147.44,147.44,0,0,0,164,121.56q-22.68-56.16-84-55a10.75,10.75,0,0,0-9.36,1l-.36.6-.12,1.68-.12,1.56Zm167.88,121q.9,64.8-1.68,129.12L230.76,451.2c-.48,9.72,1.2,17.52,4.92,23.4q2.16-44.28,3.48-89.28,1.8-64.62,2.76-129c.6-43.56.48-86.52-.36-129.12A454,454,0,0,0,238.08,193.2ZM404.4,65.4a324.72,324.72,0,0,0-103.68-8.52l-10.44.72-3.36.24-.72,7.68,3.12.72q-5.58,79.56-5.88,159.6c0,21.36-.84,42.72-2.52,64Q271,418.14,264.84,547.08l2.52,2.16q9-76.86,12.6-154.92c1-21.24,2.28-42.6,3.84-64.08q3.24-42.48,4.8-85a196.22,196.22,0,0,1,63.6,7.92l8.16,2.52.6-7.92a161.2,161.2,0,0,0-72.12-11.64l1.44-170A436.68,436.68,0,0,1,377,70.92c9.36,1.56,18.72,3.36,28,5.4Zm131.52.12a284.18,284.18,0,0,0-44.52-9A103.23,103.23,0,0,0,472,61L428.64,75l-.24.72v2.52l.24.72h2.52c1.2,35.16,1.44,71.16.72,108.24q-1.08,64.26-6,128.16Q421,379.44,420.72,444.6a579.44,579.44,0,0,1-4,64.68c-1.44,12.48-.12,23,4,31.56a603.17,603.17,0,0,0,5.76-81.12q.18-64.44,4.44-128.28c1.44-21.84,2.64-43.8,3.72-65.76a93.15,93.15,0,0,0,36.48.36c17.28-3.36,33.72-1.56,49.2,5.4a5.75,5.75,0,0,0,1.08-2.52l.24-2.4a9.66,9.66,0,0,0-.6-4.08l-.48-.72-.84-.72a83.85,83.85,0,0,0-39.24-8.76v.12A389.14,389.14,0,0,1,435,259.08l2-55.8A804.84,804.84,0,0,0,431.52,79a202.33,202.33,0,0,0,50.4-9.48,36,36,0,0,1,20.76-.36,194.84,194.84,0,0,0,33.6,6.36,7,7,0,0,0,1.44-3,10,10,0,0,0-.48-5.64l-.36-.84Z" transform="translate(-35.1 -55.87)"/></svg>