<svg id="Layer_1" data-name="Layer 1" xmlns="http://www.w3.org/2000/svg" viewBox="0 0 595.57 842.18"><defs><style>.cls-1{fill:#fff;}.cls-2{fill:none;stroke:#fff;stroke-linecap:round;stroke-linejoin:round;stroke-width:0.38px;}.cls-3{fill-rule:evenodd;}</style></defs><rect class="cls-1" x="0.31" y="0.31" width="595.08" height="841.68"/><rect class="cls-2" x="0.19" y="0.19" width="595.2" height="841.8"/><path class="cls-3" d="M247.08,414.72a92.72,92.72,0,0,0,4.56,30.36l7,1.68c7.8-4.44,12.48-10.8,14.16-19.32a2.15,2.15,0,0,0-.48-1.68,76.82,76.82,0,0,0-11.52,7.44,13.2,13.2,0,0,1-7.2,2.64q-7.56-26.82,9.12-52h2.4l7,4.32,2-2.28L270.84,378l-4.32-3.6-3.6-.24C252.72,385.08,247.44,398.52,247.08,414.72Zm12.72,6.6,13.56,1.92-2.16,25q11.34-12.42,4-33.12l-14.64-.24Zm-29.28-1.08-3,1.08a19.3,19.3,0,0,1-12,7.56l-4.8.84q-15.48-27.36,7-44.52A16.5,16.5,0,0,1,231,382.08l-3.48-8.16c-17.76-3-26.88,6.36-27.36,27.84a77,77,0,0,0,8.16,36.84c8.52,1.68,15.36-1.32,20.52-9.12l.24,16.2c6.12-11.64,8.16-24.6,6-39l-20.76,4.44q6.3,7,18.36,3.6Zm-19.8-72.48a467.15,467.15,0,0,0-3.72-61,389.55,389.55,0,0,0-10.92,56.52c-.84,6.36-.48,10.2,1.08,11.4l9-55.2A335.46,335.46,0,0,0,209.88,365a534.55,534.55,0,0,0,14.4-57.36,194.36,194.36,0,0,0,5.16,56.52,372.68,372.68,0,0,0-4.08-73.56A295.23,295.23,0,0,0,210.72,348ZM257,346.08a428.82,428.82,0,0,0-3.48-60,348.71,348.71,0,0,0-10.92,37.68c-3.36,14.52-4.32,27.84-3,40,3.84-20,8-39.12,12.72-57.12a295.8,295.8,0,0,0,3,60.6c5.52-18.84,10.32-37.2,14.4-55.2a324.48,324.48,0,0,1,1.32,32.52c-.12,12.36,1.8,23,5.64,32.16-.6-28.92-2.28-57.84-4.8-86.88A253.68,253.68,0,0,0,257,346.32Zm-43.8-113L211.56,232a21.76,21.76,0,0,0-6.84-2.88l-2.28,35.4a6.39,6.39,0,0,0,6.48-1c7.56-5.4,11-13.08,10.44-23.28a11.78,11.78,0,0,0-4.68-6.12Zm23.88-5.52-.72-33.24q22.5,17.46,2.76,32ZM71.16,91.68q26.46-8.82,35.28,19.08,18.18,57.78-13.8,107.52c-9,14-20.64,20.64-34.8,20l1.44-19.44q4.68-63,10.8-125.76l.36.24Zm5.52-12a86.1,86.1,0,0,0-8.28,3.6L68.16,83v.36l-1.08.48a5.75,5.75,0,0,0-.84,2.4,10.22,10.22,0,0,0,.48,4.32c-2.52,13.32-4.44,27.12-5.88,41.4q-6.12,63.9-11.52,128.16c-3.6,42.36-6.48,85-8.76,127.56a177.72,177.72,0,0,1-4.56,32c-2.76,11.64-2,22.2,1.92,31.8A18.27,18.27,0,0,0,43.68,439c2.28-30.36,4.56-61,6.6-91.8l6.6-95.28q8.46,3.78,17.64-2.16l4-2.88A602.65,602.65,0,0,0,102,328.56a686.27,686.27,0,0,0,56.52,118.92Q163,435.6,156,423.72a439.51,439.51,0,0,1-34-69.12Q101,299.7,80.88,245.16c21.72-17.28,33.84-40.92,36.12-70.92a243,243,0,0,0-3.24-62c-3.48-18.36-13.56-29.64-30.36-34A33.63,33.63,0,0,0,76.68,79.68Zm247.68,113h-1.8q-35.82,27.36-31.68,78.12c.84,10.56,1.2,21.12,1.2,31.8q-.18,51.12,2.76,102a44.7,44.7,0,0,0,1.08,8c.6,2.52,1.32,5.16,2.16,7.68l2.64,7.56a82.74,82.74,0,0,0,7.2,14.16l2.16,3.24q30.78-9.18,35.28-44.16L316.8,432.6l-5.16.24-3.72-3.12a548.43,548.43,0,0,1-14-113.76,112.49,112.49,0,0,0,41-2l.24-8.28a90.57,90.57,0,0,0-41.4,3.48q-4.5-56.16,23.52-100.56c3-4.68,7.32-6.48,13.08-5.28,5.16,1.08,9.36,2.28,12.36,3.84Q338.22,193.8,324.36,192.72Zm-91.92-3.12v5.88c.84.6,1.44.24,1.68-1l.24-.48-3,79.44a10.47,10.47,0,0,0,1.08,4.44l4.44-42.36,4.8-1.92,2,.72c11.16,8.76,15.84,19.8,13.92,32.88-6.84,2.52-14,2.28-21.72-.48l.24,4.08,4.68,5.76c6.36,2.52,12.48,2.28,18.12-.84q8.46-27.54-14.4-44.64,19.26-26.1-9.72-42Zm-29-1.8-5.16,5.4.84,6.24,3-4.56-.24,81.24.36-3.6,5.52,1.08,5.16-3c7.56-10.68,10.44-22.32,8.4-34.92l-10.8-8.28c10.2-12.72,10-25.2-.48-37.32l-1.92-2Zm4.68,6,3,2.52c4.68,7.56,4.44,15-.48,22.56L209.16,221l-4.2-.36-1.2-26.52ZM187.8,83.88q-3.42,41.94-3.24,84.48c.12,43.08,0,86-.12,129q-.18,65-5.76,129c-.84,9.72.84,17.52,5,23.28,3.48-36.36,5.4-73.2,5.76-110.28.36-43.08.48-86,.48-129.12q0-65.16.72-128.28h-.24A3.63,3.63,0,0,0,187.8,83.88ZM379.32,90.6a97.87,97.87,0,0,1,44,21.24,115.74,115.74,0,0,1,21.24,23.4Q484,192.48,480.48,262.68a471.13,471.13,0,0,1-7.56,63.72c-6.24,33.48-20.4,62.64-42.48,87.24A107,107,0,0,1,366,434.88a237.08,237.08,0,0,0,2.4-28.2q1.08-64.44,2.88-129c1.2-43.08,2.88-86,4.92-129.12a569.08,569.08,0,0,0-.36-64.08c-3,3.84-4.68,8.64-5,14.52-2.4,42.84-4.32,85.8-5.64,129.12-1.32,42.84-2.4,85.8-3.36,129.12-.48,21.6-1.8,43.2-4,64.68a69.89,69.89,0,0,0,.24,18.12,12.69,12.69,0,0,0-.24,3.72,11.23,11.23,0,0,0,2,6.48l.72.12a16.68,16.68,0,0,0,1.44,3.36l.72-3q31.5,5.22,57.12-12.72a63.67,63.67,0,0,0,28.92-27.84,338.62,338.62,0,0,0,37.92-121.8,250.64,250.64,0,0,0-17.28-126.6Q443.34,98,378.84,79l-.6.84A6.77,6.77,0,0,0,376.32,85,7.6,7.6,0,0,0,379.32,90.6Z" transform="translate(0.19 0.19)"/></svg>