<svg id="Layer_1" data-name="Layer 1" xmlns="http://www.w3.org/2000/svg" viewBox="0 0 595.57 842.18"><defs><style>.cls-1{fill:#fff;}.cls-2{fill:none;stroke:#fff;stroke-linecap:round;stroke-linejoin:round;stroke-width:0.38px;}.cls-3{fill-rule:evenodd;}</style></defs><rect class="cls-1" x="0.31" y="0.31" width="595.08" height="841.68"/><rect class="cls-2" x="0.19" y="0.19" width="595.2" height="841.8"/><path class="cls-3" d="M68.52,77.64a73,73,0,0,1,19.2-.84c40.8,3,66.12,23.64,76.08,62.16a174.17,174.17,0,0,1-2.52,98.52,64.24,64.24,0,0,1-7.8,16.08c-10.2,15.24-22.44,26.28-36.72,33.36q26.1,56.16,48.24,114c7.56,20,15.84,39.84,24.6,59.4a326.91,326.91,0,0,1,22.92,72.12,2.54,2.54,0,0,1-.6,2.16,598.31,598.31,0,0,1-25.32-57.48l-28.68-74.88Q135.78,345,115.44,287.64a92.77,92.77,0,0,1-37.8,8.28l-2.52,40q-4.32,64.44-10,128.28a510,510,0,0,1-9.36,64c-4.92-5.64-6.36-13.56-4.44-23.76A957.45,957.45,0,0,0,66.84,375.6q2.16-40,4.8-79.8l-4.8-.36-.72-1.56-.36-1.68v-1.56c0-1.44.12-2.76.24-4.08a4.83,4.83,0,0,1,1.08-2.4h5.28L75,247.32Q79.86,184,78.6,119.88A303.58,303.58,0,0,1,79.8,84.6l-11.64-.48-.48-1.68V80L68,78.48Zm45.84,13.8a154.46,154.46,0,0,0-33.6-6.72A952.42,952.42,0,0,1,82.44,207.6q-1.8,38.16-4,76.32,60.3-3.78,82.2-61.92a97.81,97.81,0,0,0,6.12-33.36q.36-51.3-34.32-86.28A43.3,43.3,0,0,0,114.36,91.44Zm156.72,79.92.24.72q3.24,64.26.6,128.4-1.8,44.82-2.4,89.16a103.2,103.2,0,0,1-4.68,30c-4.08-5.88-5.52-13.8-4.44-23.52,2.52-21.48,4.32-43,5.4-64.68q3.06-63.72,2.16-128.16a244.84,244.84,0,0,1,1.8-33.6ZM362,100a689.48,689.48,0,0,0,4.32,128q8.1,64.26,15.72,128.4a873.83,873.83,0,0,1,5.88,129c-.12,5.88-.24,11.76-.24,17.64q11.34-63.72,21.6-127.68t23.76-127.2l27.36-129.72a378.3,378.3,0,0,1,13.08-47.52q4.86,63.54,6.12,128.28c.84,42.36,2.76,84.84,6,127.44q3.06,40,3.72,80.28,1.26,64.44,3.24,129.12a12,12,0,0,1-2.88,8c-4.08-9-6.12-19.44-6.24-31.56l-.72-128.28c-.24-43.32-2-86-5.52-128.4-2.52-32-4.44-64.08-5.52-96.36-.6-18.84-.6-37.8-.12-56.88L442.2,229.44q-14.58,63.18-24.72,127.44-10.26,64.62-19.8,129.36a150.7,150.7,0,0,1-11.88,41.4q-3.06-63.72-6.6-128.16-3.78-64.26-13.32-127.56a853.83,853.83,0,0,1-9.72-129L356,105.48q-15.48,63.18-26.88,127.8L307.08,360.6q-11,64.62-21,129.12a119.37,119.37,0,0,1-9.6,32.52q7.74-63.9,18.72-128.28,10.8-63.72,20.16-127.68A1132.38,1132.38,0,0,1,342,137c2.76-10.08,5.16-20.28,7.2-30.48a250.41,250.41,0,0,1,7.92-30C361,82.44,362.64,90.24,362,100Z" transform="translate(0.19 0.19)"/></svg>