<svg id="Layer_1" data-name="Layer 1" xmlns="http://www.w3.org/2000/svg" viewBox="0 0 297.69 210.12"><defs><style>.cls-1{fill-rule:evenodd;}</style></defs><path class="cls-1" d="M293.4,350.64c-3.24,18.24-.48,34.56,8,49,11.16.84,19.08-4.32,24-15.48,3.36-7.56,3-13.08-1.08-16.44a28.76,28.76,0,0,1-17.88,19,17,17,0,0,1-4.32-1.92,1.09,1.09,0,0,1-.36-.84q-1.08-42.3-.72-84.36a62.1,62.1,0,0,0-5.16,24.6A164,164,0,0,1,293.4,350.64Zm10.2-97.92c-.6-.12-1,.12-1.08.48-2.88,7.56-2.76,14.64.48,21.24a30.29,30.29,0,0,0,2.76-16.8l-.36-.84A8.39,8.39,0,0,0,303.6,252.72ZM160.2,290.4,161.76,209c16.68-2.28,30.6,3.12,41.52,16.2,11.4,13.56,13.2,27.84,5.4,42.72q-11.16,21.24-35.28,23.4Zm16.2-94.32a20.65,20.65,0,0,0-14.76,4.44l-.12-4.92c-4,25.8-6.6,52.68-8.16,80.4-1.08,21.36-2.88,42.72-5.28,64a241.32,241.32,0,0,0,1.32,64q6.12-38.88,9-80.76l1.08-19,7.92,1.08c10.44.6,19.2-.84,26.4-4.08a259.31,259.31,0,0,0,42.6,100.32c3.72-9.48,2.28-18.84-4.32-28a153.82,153.82,0,0,1-16.32-28.68c-6.48-15-12.72-30.12-18.84-45.36q14.76-8.46,19.8-29.16Q230,215.82,176.4,196Zm203.16,9.84c25.56,3.24,42,17.28,49.56,42.12q6.48,21.6-15.48,34.2a82.58,82.58,0,0,1-43.92,11l1.92-85.56ZM371,200.16a9.19,9.19,0,0,0-.84,4.44l.12.48c-3.12,21.48-5.52,43.56-7.2,66.48l-9.24,127.56a2.55,2.55,0,0,0,2.16,2.16,521,521,0,0,0,11.64-76.8l1.2-18a74.53,74.53,0,0,0,24.36-1.8,140.31,140.31,0,0,0,16.44,42.48q16.38,28.08,32.76,53.28a7.58,7.58,0,0,0,.72-8.88l-45-88.32A69.73,69.73,0,0,0,420.84,291a34.43,34.43,0,0,0,14-26.52c2-36.36-14.76-59.88-50.64-70.68-1.92.72-4.08,1.68-6.36,2.76l-6.36,3V197Z" transform="translate(-146.57 -193.8)"/></svg>