<svg id="Layer_1" data-name="Layer 1" xmlns="http://www.w3.org/2000/svg" viewBox="0 0 553.48 514.68"><defs><style>.cls-1{fill-rule:evenodd;}</style></defs><path class="cls-1" d="M231.84,74.4q-9,84.42-11.52,169.92-2.7,88.38-9.6,176.64c-2,26.64-5.16,53.16-9.12,79.68a57.85,57.85,0,0,0,3.84,31.56q14-106.74,18.36-214.44l.6-13.2,14.4-9.6q31,106.74,69.48,211.2,5.4,14.58,10.44,29.52a246.4,246.4,0,0,0-18.84-80.76,1601.65,1601.65,0,0,1-57-163.2,137.83,137.83,0,0,0,35.76-44.4,184.86,184.86,0,0,0,18.24-56.4,150,150,0,0,0,1.56-26.4,152.21,152.21,0,0,0-7.44-42A84.73,84.73,0,0,0,273.84,92.4a58.41,58.41,0,0,0-39.36-20.16l-5-.48c11.64,4.44,23.28,11.4,35.16,20.88a67.84,67.84,0,0,1,23.64,37.2,223.43,223.43,0,0,1,6.24,40,100.92,100.92,0,0,1-7.2,45,176.65,176.65,0,0,1-19.44,36.36,156.39,156.39,0,0,1-30.36,32.52c-4.08,3.24-8.28,6.12-12.48,8.88q5.4-93.06,6.6-186.12ZM195.6,85.2l-6.36,34.92q-12.42,63.36-21.48,127.44c-6,42.6-11.16,85.44-15.6,128.28C147.84,418,143.16,460.08,138,502a57.85,57.85,0,0,0-1-12q-7.2-41.22-12.72-82.8-8.28-63.9-18.24-126.6a96.51,96.51,0,0,0-4.32,24.36c-1.56,23.88-3.84,47.52-7.08,71.16q-8.82,63.72-21.84,126.6c-3-18.6-5.4-37.44-7.2-56.28-4.2-42.48-8.76-85-13.92-127.44s-8.88-85.2-11.4-128.16q-3.6-63.9-13-126.72c-.36.12-.6.24-.6.36a215.79,215.79,0,0,0,1.8,48.12q9.36,63,12.48,127.08T51.36,367.32c4.92,42.36,9.48,84.84,13.44,127.44,1.08,11.88,4,22,8.52,30.48Q82.14,486,89.88,446.52a1065.92,1065.92,0,0,0,17.28-126.36c4.44,39,10,77.76,16.56,116.52A559.44,559.44,0,0,1,131,501.24c.6,12,3.36,22.2,8.28,30.48a190.64,190.64,0,0,0,5.4-30.84c3.72-42.36,7.8-84.6,12.48-126.72q7-63.9,16-127.44,9.18-64.08,23.88-127.08a105.47,105.47,0,0,0,.48-47.4C193.92,75.48,193.32,79.8,195.6,85.2Zm224.88,2.64c6.24.72,12.48,1.8,18.6,3.12-9.24-14.28-21.84-18.48-38-12.72a74.59,74.59,0,0,0-36.84,27.84A167.71,167.71,0,0,0,343.56,145a233.65,233.65,0,0,0-10.8,40.44,322.4,322.4,0,0,0-4.2,40L327,257.64l-1.44,32.28-1.32,32.16c-.6,15.84-.6,31.68.12,47.52a426.77,426.77,0,0,0,4.44,46.2c2.28,15.12,5,30.24,8.4,45.24a148.64,148.64,0,0,0,17.16,43.56,62.82,62.82,0,0,0,31.8,27.12,92.29,92.29,0,0,0,16,4.32l2.16-1.68,2.64-.12c19.32-10.68,31-26.4,34.92-46.92-11.16,14.76-24.72,25.08-40.92,31a18.94,18.94,0,0,1-14.88-.72,63.76,63.76,0,0,1-27.48-24.48,134.49,134.49,0,0,1-16.2-38.16,433.93,433.93,0,0,1-10.44-55.44A348.52,348.52,0,0,1,329.16,359l-.24-20.16V303.24l70.92,7.2a10.35,10.35,0,0,0,1.44-9.48l-.6-1.68-71.76-3.36a387.08,387.08,0,0,1,24-158.52,93.63,93.63,0,0,1,12.24-22.56c11.28-15.24,25.56-24.24,43-27A42.65,42.65,0,0,1,420.48,87.84ZM578.28,75c-5.4,16.68-8.16,34.8-8.52,54.36-.72,43.08-2.76,86.16-6.12,129s-6.24,85.44-8.76,128.28q-3.42,57.24-5.16,115.08c-2-15.6-4.44-31.2-7.2-46.92L519.6,329.16q-11.52-63-20.4-126A997.81,997.81,0,0,0,474.36,82.92v-1.2l-.12,1-1-3.72a74.05,74.05,0,0,0,.12,12.6c-1.56,17.28-2.4,35.16-2.76,53.52-.72,42.6-1.08,85.44-1.08,128.28.12,43.08-.84,86.16-2.88,129q-2.88,64.8-9.12,129a109.47,109.47,0,0,0,1.32,32.28A2.85,2.85,0,0,0,460,562.2a732.26,732.26,0,0,0,8.52-94.92L472.2,339q2-64.44,2.52-129c.36-36.84.24-73.32-.12-109.44l1.2,6.24q9.72,44.1,16.32,89Q501.48,259,512.64,322l22.2,125.76q10.62,61.56,16.92,124l1.32,1.44,1.08,5.64a1.52,1.52,0,0,0,.84-1.32v-4.68l.24-.24L555,568c.36-32.4,1-64.92,1.56-97.68Q558,405.84,563,342c3.36-42.6,6.12-85.44,8.4-128.28l6-127.44.48-.72A9.9,9.9,0,0,0,578.28,75Z" transform="translate(-26.16 -64.08)"/></svg>