<svg id="Layer_1" data-name="Layer 1" xmlns="http://www.w3.org/2000/svg" viewBox="0 0 564.36 471.45"><defs><style>.cls-1{fill-rule:evenodd;}</style></defs><path class="cls-1" d="M298.68,472l-1.32,15.72q-1.8,19.62-6.84,31a4.54,4.54,0,0,1-1.68-2,7.19,7.19,0,0,1-.6-3.12c0-4.2,1.56-15.72,4.56-34.8,3.24-20.16,5.64-32.4,7.44-36.72l21.12,32.64c8.88,13.8,16.56,25,22.92,33.48,3.36-7.68,8.76-21.24,16.32-40.68,6.6-17.16,10.56-27,11.88-29.4a12.7,12.7,0,0,1,2.16,7.2c0,4.44-4.8,18.24-14.4,41.64-8.52,20.76-13.92,33-16.2,36.84q-16-20-43.32-66.84A145.85,145.85,0,0,0,298.68,472ZM280,381.72l-8.16,26.16c-3.48,11.16-6.6,20.4-9.48,27.84h-2.76a28.58,28.58,0,0,1-.24-4c0-1.32,1.44-7,4.44-16.92,3.24-10.8,7-22.32,11.16-34.68q17.1-50.76,28.32-68.88,11.52,18.9,31.44,69c12.12,30.84,18.24,47.88,18.24,51.12a12.08,12.08,0,0,1-.6,3.72,5.24,5.24,0,0,1-2.28,3.12q-11.34-20.52-24.72-56.4l-1-2.64-18.72,1.56-22.8,1.2Zm40-14.28c-7.8-20.64-13.32-34.68-16.68-42.12-6.84,11.76-13.32,26.76-19.56,45.12a49.8,49.8,0,0,1,9.12-1.32l12-.48c4.08-.12,6.72-.6,7.8-1.32ZM105.48,81.12l4.08,6.6a52.87,52.87,0,0,0,4.92,7C125.4,106.92,132,116.4,134,123.12a40.34,40.34,0,0,1,1.68,11l-.12,14.16q0,21.06-2.88,31.68c-2.4,9.12-7.8,20.52-16.32,34.08-2.28,3.48-6.6,8.28-13.2,14.52a246.13,246.13,0,0,1-22.08,18.48l-3.84,2.76Q95.1,291.42,127.56,391.2C137.52,422,145.92,449,152.64,472c7.08,24.24,10.56,38.4,10.56,42.6l-.24,4.08a6.5,6.5,0,0,1-2.76,4.56c-7.56-17.64-15-40.32-22.32-68.28l-8.76-34.8c-3.48-13.8-6.72-25.32-9.48-34.68q-6.3-20.88-28.8-81.72c-9.36-25.56-15.36-42.48-18.12-50.52-14.64,10.2-26,15.72-34.32,16.56V288l-4,58.92c-1.68,23.52-3.24,43.08-4.68,58.8-.72,7.92-1.2,18-1.56,30.12l-.84,31c-.84,24.72-3.12,43.2-6.84,55.56a12.48,12.48,0,0,1-2.64-4.44,13,13,0,0,1-.6-3q0-5.4,7.92-122.52,5.58-83.34,7.32-124a4.25,4.25,0,0,1-1.08-1.92l-.36-3.6a4.51,4.51,0,0,1,1.8-3.24l.36-17.76V183.48a170.87,170.87,0,0,0,0-33.24V95.76a71.38,71.38,0,0,0,1.08-10.2l.6-11.64a46.05,46.05,0,0,1,1.32-8.28,5.54,5.54,0,0,1-1.32-4.08c0-4.2,4.56-5.4,13.8-3.6L88.2,68.16Q100.08,73.38,105.48,81.12ZM103.8,94.68a52.51,52.51,0,0,0-11.52-11C90.36,82.32,85.56,80.16,78,77.4c-8.16-2.88-16.44-5.4-25-7.56l-9.48-1.32A115.52,115.52,0,0,1,42,83.64c-.84,4.56-2,10.2-3.84,17v43.8a307.93,307.93,0,0,1,0,44.64v52.8l.24.84v13.56l17.4-7.2a136.83,136.83,0,0,0,51.36-38.88c9-11,15.36-21.48,18.84-31.32,3.12-8.76,4.68-18.84,4.68-30.36,0-8.52-1-15.24-2.76-20q-3.6-9.18-15.84-23ZM278,186a45.55,45.55,0,0,1-.72,6.36l-1.44,7.92v59l.24,10.56c0,2.76-.36,7.92-1.08,15.6l-.84,7.2a24.4,24.4,0,0,1,5.76-1.56l20.76-1.8q13.86-1.62,20.88-6.48c6.36-4.44,9.48-11.16,9.48-20.4q0-28.62-28.44-56.28c-4.44-4.2-10.92-9.84-19.56-16.8L278,185Zm-1.92-10.32q35.1,22.5,47.88,42.48c7.56,11.88,11.4,27,11.4,45.12l-.12,10.44A31.8,31.8,0,0,1,332.52,285c-4.44,8.64-14.4,14.64-30.12,17.88l-16.32.84-6.48.6c-3.48,0-5.88-.6-7.32-1.68l-.24.24a10.11,10.11,0,0,1-2.28-4.08,10.58,10.58,0,0,1-.72-3.48l1.2-14.76c.72-9.72,1.2-17,1.32-21.72V194l.12-9.36c.24-3.72,1.2-6,3-7A5.29,5.29,0,0,1,276.12,175.68ZM291.84,82.8a11.24,11.24,0,0,1-1.32,5.4v.24c-1.44-.36-2.76-1.8-4.08-4.32l-2.76-4.8c-1.8-1.8-6-3.12-12.36-4.2L257.4,73.56q-35.28-1.08-63.24,44.88a198.87,198.87,0,0,0-16.8,34.8c-3.72,10-6,17.4-6.6,22.44l-4,26.88c-1.44,10.32-2.52,19.2-3.12,26.64-.6,7-.48,17.52.12,31.56.36,7.2.84,14.16,1.32,21l-.12,4.92,8.16.48c7.92.36,16.8.6,26.52.6L237,286.08v-.48c3.12,1.08,4.68,3.12,4.68,6.36a6.93,6.93,0,0,1-1.44,3.24l-2.64,4.44-28.2,1.08-22.56-.24a151.91,151.91,0,0,1-22.2-2.16l-1.68,65,.36,25a411.14,411.14,0,0,0,5,49.44q12.06,70,46.44,70,34.74,0,52.56-27a87,87,0,0,0,9.72-20.4c2.16-7.32,3.6-11.64,4.2-13.2a6.1,6.1,0,0,1,3.36,3.36l.12,3.72q-23.22,70-53.64,70.08c-14.88,0-26.52-1.8-34.8-5.4a35.9,35.9,0,0,1-17.52-15.36q-4.5-8.1-8.28-24.48L163,446.28a171,171,0,0,1-5.76-41.64l.24-41.16q0-23.4.72-57.6l.36-15.24a12,12,0,0,1-.24-3.24l.24-.36.36-44.88c0-37.08,5.4-70.32,16.2-100Q197.94,79,248.76,60.84l4.56.24,5.16.6c13.08-1.44,22.44,1.08,28.2,7.68A19.9,19.9,0,0,1,291.84,82.8ZM401.4,75.36l.48,11.16c.36,9,.6,15.72.6,20q0,22.32-4.2,97.92c-2.76,50.28-4.2,85.2-4.2,104.52,0,13.8,1.2,36.72,3.48,68.52s3.36,57.48,3.36,76.8c0,20.76-.12,33.48-.48,38.4a129.85,129.85,0,0,1-2.28,19.2c1.92-.72,4.44-1.44,7.44-2.28L422.76,505a148.58,148.58,0,0,0,21.72-8c7.32-3.36,17.4-7.92,30.36-13.68,10.44-5,18.6-10.08,24.48-15.24a226,226,0,0,0,29.28-30.6c8.76-11.28,15.12-22.08,19.2-32.52,13-32.52,20.88-55,23.64-67.08,3.24-13.8,4.8-33.6,4.8-59.52q0-109.44-89.4-165Q462,97.8,425.28,84.48L405,77ZM568.92,204c4.68,10.44,7.8,18.24,9.24,23.28a85.59,85.59,0,0,1,3.12,19.8c.24,4.32.36,14.88.36,31.8,0,27.24-1.32,48.36-4.08,63.48-3.36,18.6-10.8,41.88-22.2,69.6-4,9.84-10.8,21.12-20.28,33.72A322.2,322.2,0,0,1,506.64,478c-3.72,3.72-10,8.52-19,14.16-9.24,5.76-19.32,11.28-30.12,16.68Q417.42,528.6,396,528.6c-2.4,0-4.08-.72-4.92-2.28a5.15,5.15,0,0,1-2-3.12,16.19,16.19,0,0,1-.36-4.08q6.66-57.06,6.72-65.52c0-17.88,0-29.28-.12-34-.36-11.4-1.2-24.12-2.76-38.28-.84-7.56-1.56-19-2.28-34.08s-1-27.84-1-38.16q0-28.62,3.72-95.16l5.16-85.68V77.88l-.12-.6a5,5,0,0,1-.36-2.16l.24-2.16a1.91,1.91,0,0,1-.6-1.2q0-10.26,44.52,8.28c10,4.2,20.64,9,32,14.52,9.24,4.56,15.12,7.56,17.64,9.12,15.48,10.44,27.84,20.16,37.08,29,10.68,10.2,18,20,22,29.4Z" transform="translate(-17.28 -57.15)"/></svg>