<svg id="Layer_1" data-name="Layer 1" xmlns="http://www.w3.org/2000/svg" viewBox="0 0 352.43 375.3"><defs><style>.cls-1{fill-rule:evenodd;}</style></defs><path class="cls-1" d="M235.2,266.16,257.76,139.8,272,263.4ZM100,92.76a11.89,11.89,0,0,0-.48,4.08l.24,2.4.72,2.52.72.24a180.41,180.41,0,0,0-5.4,43.56c-.12,32-1.68,64-4.92,95.64-4.2,42.6-8.16,85.08-11.88,127.68-1.92,21.48-4.56,42.72-8,63.84-2,12.48-.6,23,4.32,31.8A259.19,259.19,0,0,0,82.08,411,1223.38,1223.38,0,0,1,92.4,283.32Q101,220,103.56,155.4c.72-17.88,1.08-35.4,1-52.56a76,76,0,0,0,14.28,1.92,18.16,18.16,0,0,1,7.08,1.8q39.24,20,46.2,64.44a34,34,0,0,1-.12,11Q159.9,248.46,95,270.84a5.53,5.53,0,0,0-1.32,3.24,16.09,16.09,0,0,0,0,4.8l.36,2.52a3.35,3.35,0,0,0,1.68,2.52A111.63,111.63,0,0,0,128,269a40.75,40.75,0,0,0,3.72,19.56A263.18,263.18,0,0,1,142.68,320q16.74,61,32.52,122.52c2.28,9.24,6,16.08,11.16,20.64a28.45,28.45,0,0,0,.36-20.4A598.1,598.1,0,0,1,168.84,381,798.75,798.75,0,0,0,132.6,265.68a106.82,106.82,0,0,0,16.92-16.08q47-54.36,16.56-119c-13-27.24-34.32-40.44-64.08-39.36C100.92,91.08,100.32,91.68,100,92.76Zm225.12,24.12Q324,163,321.24,208.8q-4,64.26-9.24,128.16l-3.6,47.64a248.39,248.39,0,0,0,3.6,64.32c4.44-5.28,6.6-12.36,6.36-21.24-.84-21.6-.72-43.44.24-65.52,1.8-42.84,3.84-85.68,5.88-128.4,1.08-21.48,3-42.84,5.76-63.84a199.84,199.84,0,0,0-1.8-64.44,2.27,2.27,0,0,0-2.64,2.4Q325.26,112.74,325.08,116.88ZM259.2,102.6h-.36l-1.32-3-.24,5.76a53.71,53.71,0,0,0-5.16,16.44Q242.58,185.34,231,248.52l-3.24,18H225.6l-.24.84a10.18,10.18,0,0,0,.84,7.8q-8.64,49.5-15.36,99.36c-1.44,10.44-3.24,20.88-5.52,31.32-3.72,16.68-3.6,32.28.24,47a154.71,154.71,0,0,0,7.2-34.56q6.3-63.9,17.76-126.72l2.64-14.4a177.9,177.9,0,0,0,40.8.72,1184.14,1184.14,0,0,1,9.48,125.52,227.67,227.67,0,0,0,9.84,63c4.08-12.36,4.56-25.92,1.56-40.56a255.81,255.81,0,0,1-5.16-41q-2.52-54.18-9.12-107.64l.6-.12.48-.84c2.52-4.92,2.16-9.48-.84-13.8l-2,.36-.84-5.4q-8.82-63.18-13-126.84a92.85,92.85,0,0,0-5.76-27Zm111.24,2.64a98,98,0,0,0-7,31.8c-2.76,42.6-4.8,85.44-6.36,128.4-.72,21.36-1.92,42.72-3.6,64-3.24,42.6-4.92,85.08-5.28,127.56a3.57,3.57,0,0,0,3.48,1.92l1.08-.48a195.18,195.18,0,0,0,67.92,3.24,16.53,16.53,0,0,0,.72-13.08,4.45,4.45,0,0,0-2-2.4l-1.08-.12-15.72-.72A471.69,471.69,0,0,0,355,448.44c1-7.44,1.68-14.88,2.16-22.44,2.28-42.6,4.08-85.32,5.16-128.28s3.6-85.8,7.2-128.28A461.07,461.07,0,0,0,370.44,105.24Z" transform="translate(-70.02 -91.14)"/></svg>