<svg id="Layer_1" data-name="Layer 1" xmlns="http://www.w3.org/2000/svg" viewBox="0 0 595.57 842.18"><defs><style>.cls-1{fill:#fff;}.cls-2{fill:none;stroke:#fff;stroke-linecap:round;stroke-linejoin:round;stroke-width:0.38px;}.cls-3{fill-rule:evenodd;}</style></defs><rect class="cls-1" x="0.31" y="0.31" width="595.08" height="841.68"/><rect class="cls-2" x="0.19" y="0.19" width="595.2" height="841.8"/><path class="cls-3" d="M206.88,254.88c-8.52,26-24.84,42.6-49.2,49.92q.54-51.12,4-101c15.24-3.12,28.08,1.8,38.28,14.76C208.8,229.68,211.08,241.8,206.88,254.88ZM159,193.32a631.29,631.29,0,0,0-5.28,85.56l-.12,26.88-.48.24L152,301.56l-6.24,1.68c-2.88,6.36-1.68,10.92,3.72,13.68l.72.24h1.68l2.16-.24a635.33,635.33,0,0,0-4.2,84q13.68-39.78,7.8-84.6a57.28,57.28,0,0,0,25.68-11l5.4-4.8,1.8-1.68a654.54,654.54,0,0,0,24,79.8c1.44,3.72,3,7.32,4.56,10.92,2.28,5,4.92,8.88,8,11.52a442.29,442.29,0,0,0-24.6-79.8c-3.36-8.28-6.6-16.56-9.84-24.84a80.05,80.05,0,0,0,18.6-36.6c.6-3,1.08-6,1.44-9.12a55.35,55.35,0,0,0-6.72-33.6q-14.76-27.18-43.2-21.36l-1.8.48Zm144.84,5.76a226.6,226.6,0,0,0,7,46.44c3.24,12.6,6.24,25.32,9.12,37.92a154.91,154.91,0,0,0-35.28,5.88c2.28-10,4.8-19.68,7.56-29.28a271.64,271.64,0,0,0,11-63A270.35,270.35,0,0,0,290,238.8Q275.46,301.62,257.76,363a63.35,63.35,0,0,1-6.6,15.48c-5.4,9.24-5.88,17.16-1.2,23.88a757.71,757.71,0,0,0,32.76-104.28l40.08-2.16q8.28,37.26,15.12,74.64c2.16,11.88,6.36,21.72,12.48,29.64a2.77,2.77,0,0,0,.72-2.28c-5.4-24.84-10.68-50.16-16-75.72l-5.88-27.6c3.12-4.56,2.64-8.28-1.32-11.28h-1.32q-9.9-42.84-22.32-84.48C304,199,303.84,199,303.84,199.08Zm74.16-4.2-.24,4.56h-.36v.72a13,13,0,0,0,0,5.28q-2.7,48.6-3.48,100a527.93,527.93,0,0,1-5,64.68c-1.68,12.36-.6,22.92,3.12,31.68a424.52,424.52,0,0,0,6.36-63.24c.36-15.48.84-31,1.56-46.32l.48.84a1.74,1.74,0,0,0,2.76-.24l.72-.84L427.44,290a11.07,11.07,0,0,0,.6-9.72l-.24-.84a1.09,1.09,0,0,0-.84-.36l-20-.72-1.32.36a55.74,55.74,0,0,0-20.88,2.88,9.22,9.22,0,0,0-4.44,2.52l1.32-25.08a276.8,276.8,0,0,0-1.68-52q37.62,7.38,77.88-.36l.48-.84a10.7,10.7,0,0,0-1-10.56l-78.6,4Z" transform="translate(0.19 0.19)"/></svg>