<svg id="Layer_1" data-name="Layer 1" xmlns="http://www.w3.org/2000/svg" viewBox="0 0 576.72 583.8"><defs><style>.cls-1{fill-rule:evenodd;}</style></defs><path class="cls-1" d="M361.68,472.08c1.08,2.64,1.56,6.6,1.56,11.76s-.36,8.76-1.08,10.92v45.48l-1.56,23.52c-.72,10.2-1.44,18-2.16,23.52h-1.68c-.36-3.24-.48-8.28-.48-15.36l.6-15.12c.6-9.48,1.08-16.8,1.56-22.2V489.12c.72-1.68,1.08-5,1-10C359.28,475.2,360.12,472.8,361.68,472.08Zm88.68,5.4A14.68,14.68,0,0,1,452,484.8c0,6.24-1.32,24.12-4.08,53.64s-4.56,46.08-5.4,49.92a11,11,0,0,1-2.76-4.08,25.41,25.41,0,0,1-.24-4.08c0-16,.48-31.56,1.44-47l-21.24,1.44-7.2-.24-.6,41.28a36.81,36.81,0,0,1-.72,6.12,59.24,59.24,0,0,1-2,7.68h-1.56a149.28,149.28,0,0,1-.6-15.36l.72-17.88c.6-11.4,1.08-20.4,1.44-26.76v-52a5.46,5.46,0,0,1,1-2.28c.48-.6,1-1,1.32-1a102.54,102.54,0,0,1,1.56,16.2v15.84l-.24,17.4c4.92-.36,7.56-.72,8-1.08,9.48-1.32,16.56-1.8,21-1.44C443.76,495.36,446.64,480.72,450.36,477.48ZM75.12,474.72a5.09,5.09,0,0,1-1.2-3c0-2,.24-3.36.84-4.08.84-1.32,2.76-1.92,5.64-2,1.08,1.92,1.56,4.56,1.56,8q0,3.06-6.12,27.72l-7.92,31.56a128,128,0,0,0-2.16,14.52l-1.68,15.12c-1.56,12.36-4.32,22-8.28,29a464,464,0,0,0-14.64-49.44c-.6,1.56-3,9.72-7.44,24.48-3.12,10.44-6.24,18.84-9.36,25q-3.06-19.08-9-64.2Q8.88,478.8,8.88,472c0-3.24.6-5.4,1.92-6.72,5,13.56,8.52,31.44,10.32,53.4L23,546.12c.84,10.92,1.68,20,2.64,27.12q1.62-6.12,7.56-25.56c3.48-11.4,6-19.92,7.32-25.8,2,2.76,3.72,7,5,12.72q1.26,5,2.88,14c.36,1.56,1.8,6.24,4.44,13.8,2.16,6.12,3.24,10.8,3.12,13.8l.48.24,11.16-50.4c5.76-26.76,8.64-42.84,8.64-48.36A5.09,5.09,0,0,0,75.12,474.72ZM285,49Q273.12,109.26,265.2,185q-4.68,45.18-11.52,136.32L252.84,333h2.76c14.16,0,26.16-1.2,35.88-3.6l10.2-3a73.42,73.42,0,0,1,8.76-2.4h.36l-.36-3.24Q307,278.82,297.72,185.4,288.9,96.3,285,49ZM303.12,153.6q4.5,48.06,12.84,143.88,2,22.86,4.92,71.88,2.7,47.16,5,71.88c1.32,13.8,4.92,41.4,10.92,82.56,5.52,38.28,8.28,58.32,8.28,60.24q0,7-3.24,9c-4.56-9.24-7.92-20.52-10.2-33.6L327,525.36c-1.44-9.72-2.64-21.12-3.6-34.08l-2-34.08q-1.8-28.8-5-68.4l-4-46.08L310.44,344q-9.9,6.48-32.4,6.48c-12.36,0-21.12-.84-26.16-2.52l-2.28,41.52q-2.16,44.64-4.08,68.16c-1.08,15.24-2.16,37.92-3.12,68.28q-2.16,40.32-9.84,67.8a8,8,0,0,1-4-6.12,45.05,45.05,0,0,1-.36-7.32q0-11.34,7.56-120.24,8.1-116.46,13-164.76,2.16-21.78,6.24-71c2.52-31,4.56-55,6.36-71.88Q270.18,68.52,287.16,11,295.26,71,303.12,153.6Zm-115-52,.12,17.16a68.33,68.33,0,0,1-1,12.24c-1.08,6.36-5.4,17.76-12.72,34.32-2,4.56-5.52,9.84-10.56,15.84-2.52,2.88-7.32,8.16-14.52,15.84l-3,3q8.1,34,17,83.88c9.72,53.4,15.84,86.28,18.36,98.88,2.52,12,5.52,28.32,9.12,49.08L199.56,481q2.88,15.48,14,58c6.84,26,10.32,39.48,10.32,40.32a31.29,31.29,0,0,1-.6,5.76c-.72,3.24-1.8,5.4-3.24,6.6q-19.62-62.46-51.6-226.2c-7.8-40.56-14.76-78-20.64-112.2q-5.94-34-7.56-47.16c-3.36,3-7.08,6.12-11.28,9.36-10,7.92-16.44,11.88-19.68,11.88v31.2l-1.08,4.8v133c-1.2,12-2,28.44-2.64,49.2-.72,25.32-1.32,41.76-1.68,49.08-.72,10.56-1.32,27-1.92,49.2-1.08,19.56-3.72,35.64-7.8,48.24a6.89,6.89,0,0,1-4.08-4.32,36.11,36.11,0,0,1-.24-4.92c0-12.12,1-28.2,2.76-48l4.8-48.6,1.44-47.88c.6-19.56,1.56-35.76,2.88-48.72v-133a35.67,35.67,0,0,1,1.08-4.92v-55.2l1.08-4.08V127.44a33.2,33.2,0,0,1,1.08-4.8V81.24l1.8-35.88c.6-10,1.44-18.6,2.52-26.16.12-3.48.48-5.88,1.2-7L111,10l1.56,1a8.36,8.36,0,0,1,3.48,0c1.56.24,5.76,1.32,12.36,3.24,7.92,2.28,15.24,4.32,21.84,5.88,10.44,3.48,18.12,8,23.28,13.56q4.14,4.68,7.92,14a97.58,97.58,0,0,1,6.84,28.44C188.64,81.48,188.64,90,188.16,101.64ZM181.32,84c-.84-9.48-2.88-17.76-6.24-24.84-9.72-20.52-29.64-30.6-59.52-30.24a476.19,476.19,0,0,1-4.08,57.36v42.24l-1.08,4.92V199.2l-1.08,4.08v9.12l2.88-2.52,17.16-13.08q27-20.7,35.28-36.36c8.52-16,13.44-26.64,15-32,1.32-4.92,2-13.92,2-27.24C181.68,92.16,181.56,86.4,181.32,84ZM416.16,356.76l5-.48,1.2,2.4a14.76,14.76,0,0,1,0,6.48l-1.2,2.4-4.8.48-5.28.84-18.72,1.2-1.92.12c.84,14.28,1.44,36.24,1.8,66l.24,55.32c0,26.52-.12,43.2-.36,49.92-.84,23.64-2.88,37.8-6.12,42.6a36.21,36.21,0,0,1-.6-5.64c0-5.76.6-16.8,1.68-33.24s1.56-34.44,1.56-54l-2.16-99c0-8.52.12-14.16.24-16.92l.48-4.68-2,.6-48.24.48a5,5,0,0,1-1.32,2.4c-2.28-1.08-3.84-2.16-4.56-3.24-.6-.84-.84-2.4-.84-4.56a22.44,22.44,0,0,1,.24-3.24l1.08-2.4,54.72-.84,6.84-1.08,18.36-1.08Zm-46.8-107.28a12.08,12.08,0,0,1,.36,3.24c0,3.48-5.64,15.6-16.8,36.12l-1.08,2c3.36,6.6,7.44,15.48,12.12,26.64,6,14.76,9,23,9,25a12.08,12.08,0,0,1-.36,3.24l-1.2,2.4c-3.48-4.2-8.64-14.4-15.24-30.6q-5.58-13.14-7.92-20.16l-13.92,24.72-.24-.24v5.4c.12,9.72-.84,17-2.76,22h-2.76a34.51,34.51,0,0,1-.48-5.64c0-1.56.6-7.92,1.68-19.2,1.08-12.24,2-20.16,2.64-23.88V254.4a6.72,6.72,0,0,1,1.2-2.16,4.89,4.89,0,0,1,2-1.92l1.32,2.16a11.13,11.13,0,0,1,.36,3.12l-.24,2.64-.84,1.8V305.4l4.56-8.88c3.84-7.32,6.84-12.84,8.88-16.32,2-3,5.16-8.76,9.36-17.52,3.84-7.68,6.84-12.84,9.12-15.6ZM363,178.56c0-3.84-1.92-6.84-5.64-8.88-2.52-1.44-6.72-2.64-12.36-3.72a118.29,118.29,0,0,1-12.36-2.88l-.84-.24a35.35,35.35,0,0,0-3.24,6.6v25.68c.84-1.2,2.52-2.28,5-3.36a110.12,110.12,0,0,1,12-3.6,82.77,82.77,0,0,0,11.88-4C361.2,182.52,363,180.6,363,178.56Zm-.72,13.56c-5.4,4.92-15.48,8.4-30.12,10.32a10.22,10.22,0,0,1-3.48-3.24l-.12-.12v28.8l-1.08,12.6A99.52,99.52,0,0,1,325.92,253h-1.68c-.36-3.24-.48-8.28-.48-15.36s.36-12.24,1.08-15.48V163.68a31.59,31.59,0,0,1,2.16-6.84,15.53,15.53,0,0,1,.24-3,4.27,4.27,0,0,1,2.76-3.12l.48.36.6-.6,1.44,1.92c3.36,1.8,7.8,3,13.32,3.84,6.84,1.08,12.24,3.36,16.32,7,2.88,4,4.56,6.84,5.16,8.64a54,54,0,0,1,.24,6.36C367.56,184.08,365.76,188.76,362.28,192.12Zm18.6-157.44a82.17,82.17,0,0,1-8.64-2.76l-6.6-2.4c-17.16,0-30.12,10.2-39.12,30.6a105.81,105.81,0,0,0-7,22.08,67.93,67.93,0,0,0-1.8,12.36,34,34,0,0,0,1.32,7.68,54,54,0,0,0,4.68,11.4c5.64,10,13.56,14.88,23.52,14.88,11.64,0,20.64-3,27.12-9,2.52-2.28,5-6.12,7.56-11.28a14.06,14.06,0,0,1,1.56,3.36l.36,3.48c0,3.6-2.76,8.52-8.28,14.64-5.88,6.6-11.28,10-16.44,10-20.28,0-33.84-6.6-40.56-19.8-3-5.88-4.56-14.28-4.56-25.2,0-19.8,3.6-36.12,10.68-49,5.88-10.68,13.8-18.36,23.64-23,8.28-3.84,16.2-4.92,23.64-3.36,7.2,1.56,10.8,4.68,10.8,9.48A8.9,8.9,0,0,1,380.88,34.68ZM500,53.28a8,8,0,0,1-2.88,4.92q-1.26-1.08-2.52-5.76-2-6.66-2.88-9c-3.36-7.8-9-11.76-17-11.76-15.12,0-26.16,11-33.12,33.24a181.72,181.72,0,0,0-5.52,24.24c-1.56,8.4-2.52,13.08-3,13.92v57.6q-.9,27.9-1.08,78.72c1.56.36,3.36,1.68,5.4,3.72l31.68.48h1.08l1.08-1.08a6.5,6.5,0,0,1,2.88,3.72l.12,3.6-.24,4.08c-.48,2.16-1.56,3.24-3.36,3.24l-2.16-.24-.24-.24-31.68-.6L432,252.84v9.6l.12,39.24c.12,27.48.48,48.36,1,62.64v46.32c2,12.48,4.32,22.32,7.08,29.4,5.64,14.52,13.44,21.72,23.16,21.72q23.22,0,33.12-21.6A63.6,63.6,0,0,0,501,425l.84-7.2a17.61,17.61,0,0,1,.24-3.24,4.27,4.27,0,0,1,2.76-3.12q6.12,2.16,6.12,10.08c0,1.32-.84,4.68-2.64,9.84a126.75,126.75,0,0,1-8,18.24c-9.48,16.92-20,25.32-31.8,25.32C453,475,442,466.8,435.36,450.6A85.42,85.42,0,0,1,430.2,431l-2-14.76V368.4c-.48-14.64-.72-36.36-.84-65l-.24-40.92L427.2,247l-.12-.36.12-.72q0-58.68,1-90V99c-.84-18.84,2.52-35.4,9.84-49.44q9.54-18.36,24.84-25.92c9.72-4.68,18.24-4.92,25.56-.6,7.8,4.68,11.76,13.32,11.76,26.16Zm62,98.52c8,5.52,12,14.28,12,26.28l-.24,5.64c-.36,3-1.56,4.8-3.6,5.28a18.45,18.45,0,0,1-2.28-6.24l-1.44-7.08c-2-6.12-7.2-10.68-15.72-13.8H534.24c-12.36,8.52-21,17.88-25.92,27.84-3.84,7.8-5.76,17-5.76,28s4.32,28.32,13,52.2c3,8.52,12.48,32.52,28.2,72q19.44,48.42,28.32,77.4,12.78,41.94,12.84,68.4l.72,18.72a112.77,112.77,0,0,1-5.28,34.44q-15.84,47.88-73.92,47.88c-18.84,0-33.24-8.64-43.2-25.8a75.88,75.88,0,0,1-7.44-17.76l-1.8-8.28a70.53,70.53,0,0,1,1.08-8.52c1-5.28,1.8-7.92,2.64-7.92,3.72,0,6.12,1.32,7.32,3.84a10.43,10.43,0,0,1,.84,4.8,8,8,0,0,1-1.2,3.36,11,11,0,0,1-4.2,4.8q3.42,9,14,21.6c8,9.6,14.4,14.4,19.2,14.4,18.6,0,33.84-1.92,45.6-5.64,11.16-3.6,19.8-9.12,25.92-16.44,5.52-6.84,9.36-15.72,11.52-26.88,1.8-9.12,2.76-21.36,2.76-36.6q0-22.32-12.84-61.68c-5.4-16.32-14.76-41.4-28.32-75.24q-20.88-52.2-28.2-74.28-13-38.34-13-59c0-19.08,4-34.92,12-47.52,7-10.92,15.84-18.12,26.52-21.36C545.64,145.44,554.52,146.52,562.08,151.8Z" transform="translate(-8.88 -9.96)"/></svg>