<svg id="Layer_1" data-name="Layer 1" xmlns="http://www.w3.org/2000/svg" viewBox="0 0 376.98 322.08"><defs><style>.cls-1{fill-rule:evenodd;}</style></defs><path class="cls-1" d="M176.76,255.72a49.89,49.89,0,0,0-5,5q3.6-52.74,3.24-105a39.86,39.86,0,0,0,14.16.12q27.72,35.1,6.72,75.84A78.88,78.88,0,0,1,176.76,255.72ZM48.72,125l-.6.48a187.23,187.23,0,0,0,1,32.64c4.68,42.6,8.16,85.32,10.2,128.16l6,127.44c.48,9.24,3,16.56,7.56,21.84l-.6,5.4a3.32,3.32,0,0,0,2.4,2.16A60.74,60.74,0,0,0,81.36,420q6.48-63.36,16.8-126.48A333.1,333.1,0,0,0,102,257.88a184.33,184.33,0,0,1,3,24.48q3.6,64.08,10.68,127.8C117,421.8,120,432,124.92,440.76a3.58,3.58,0,0,0,1.56-3.24l-.72-10.08c1.56-9.84,2.76-19.68,3.84-29.52q6.84-63.54,14-127.44c4.8-42.6,9-84.84,12.72-126.48A154.81,154.81,0,0,0,145,191.76c-1.32,16.92-2.88,33.72-4.68,50.64-4.44,42.6-9.48,85-15.36,127.32l-2.88,19-3.6-30.84C113,315.6,108,273.48,103.08,231.36l-1,2.16L102,230c-5.88,27.24-10.68,55.44-14.64,84.36Q79.8,370.92,73.8,427q-1.26-39.42-4-79.32l-7-95.64q-3.78-47.88-6-95.88C56.28,144.24,53.64,133.8,48.72,125Zm215.16,59,4.32,96.6-23.28,4.56,14.4-73.44ZM305,149.64c-.84,42.6-1.32,85.44-1.32,128.28a1276.62,1276.62,0,0,1-6.48,128.88q-1.62,15.3,5.76,23.4a122.08,122.08,0,0,0,4.08-26.76c1.8-42.84,3.12-85.92,3.84-129q.9-65.16-3.24-128.28C306,146.52,305.16,147.72,305,149.64Zm-38.76,7.08.24-7.56c-.36,0-.6.12-.6.36a1055.72,1055.72,0,0,0-23.16,107.16q-10.26,63-24.24,125.4a121.58,121.58,0,0,0-1.8,47.28c.84-.36,1.32-.72,1.44-1.32q9.72-44.82,17.52-90.6l7.08-40.32a81.37,81.37,0,0,0,26.4-1l3,48.48c1.32,21.48,2.16,42.84,2.52,64.2.24,12.48,2.88,23.16,7.8,31.92a93.65,93.65,0,0,0,2.76-38.28q-6.84-55.26-10-110.88a14.09,14.09,0,0,0-.36-6.36l-.6-10.8c-2-43.08-3.48-85.56-4.56-127.56a3.37,3.37,0,0,0-2.52,3.12ZM197,151.32l-2-3.84-.84-.72c-6.6-3.48-13.08-4.2-19.44-2.28l-.36.12-.84,1.44a3.89,3.89,0,0,0-2.28,2.28,5.9,5.9,0,0,0-.6,2.4v2.88l2.28,1.68q-8.1,137-26.16,272.28a17,17,0,0,0,.72,7.8l1.2,3.72.84,1.8.84,1.8A768.44,768.44,0,0,0,170,282.84L183.6,266A850.23,850.23,0,0,0,209,447.12a1104.83,1104.83,0,0,0-22.8-184.8q29.16-36.18,21.36-81.72a69.31,69.31,0,0,0-2.76-10.92l-2.64-7.32-1.56-3.72Zm186.24-11.64-.24-.36q-32.58,2.7-65.16,6.84a8.37,8.37,0,0,0-2.4,7.32,7.29,7.29,0,0,0,1.56,4h35.28q-9.72,127.44-22.44,254.28a37.43,37.43,0,0,0,1.44,14.64,18.73,18.73,0,0,0,3.24,6.12q16.2-87.48,18.72-186.24c.72-29.64,1.08-59.4,1.2-89l28.92-4.56A12.84,12.84,0,0,0,383.28,139.68ZM424,142.2a500.08,500.08,0,0,0-11.16,91.56l-1.68,40.44-1-.12-28.56,1.08c2-36.12,2.64-72,1.8-107.4-.36.12-.6.24-.6.36q-8.28,62.28-11.52,125.76c-2,42.84-5.76,85.56-10.92,128q-2,15.3,5.4,23.4a91.74,91.74,0,0,0,4.32-21.72q5.4-64.08,10.2-128.28l.6-8.16a81.13,81.13,0,0,0,29.52,1.44q-2,36.9-5.28,73.44a453.05,453.05,0,0,1-6.84,47.52c-2.4,12.72-1.08,23.28,4.08,31.68a808.86,808.86,0,0,0,12.36-107.16c2-42.72,4.68-85.44,8.16-128a612.74,612.74,0,0,0,1.68-64.2C424.2,142,424,142.08,424,142.2Z" transform="translate(-47.81 -125.04)"/></svg>