<svg id="Layer_1" data-name="Layer 1" xmlns="http://www.w3.org/2000/svg" viewBox="0 0 450.05 436.03"><defs><style>.cls-1{fill-rule:evenodd;}</style></defs><path class="cls-1" d="M147.48,152.4c.36,28.44-9,53.64-28.32,75.84q-22.86,26.28-54.48,31L66.24,236c2.76-42.72,5.88-85.44,9.12-128.28a68.15,68.15,0,0,0-2.28-24.24q32.58-2.88,53.28,21.72a86.26,86.26,0,0,1,9.84,11.88A62.25,62.25,0,0,1,147.48,152.4ZM70.08,76.8Q67.92,124,64,172.56c-3.48,42.6-6.24,85.32-8,128.4q-2.7,64.26-6.48,128.16c-1,16-2.64,31.92-4.92,47.64-1.8,11.88-.24,22.32,4.68,31.08a31,31,0,0,0,4.44-15.24L59,364.2c1.32-30.12,2.88-60.12,4.68-90.24,4.68,1.08,9.48.36,14.4-1.92a153.72,153.72,0,0,0,17.28-10,158.08,158.08,0,0,0,7.68,36q20.7,60.66,44.4,119.64a227.19,227.19,0,0,1,9.84,30.6A313.31,313.31,0,0,0,178,507l.72-.84a19,19,0,0,0,1-15.36l.12-.72a11.3,11.3,0,0,0,.36-4.92l-.12-.36c-1,.36-1.32,1.44-1,3-4.68-12.72-9.24-26.52-13.68-41.28q-11-36.72-24.48-72.36Q119.46,317.1,98.64,259.92A147.7,147.7,0,0,0,131.4,227.4q38.52-52.74,13-110.64Q127.08,77.34,85.56,72H83.4c-4.68-.6-8.4.24-11.4,2.64l-.48,2.52v1.92l-1.2-2.52Zm221.28,28,2.4,3c.84-20.28-9.72-29.64-31.56-28.2-13.68.24-25.32,5.64-35,16.2a110.37,110.37,0,0,0-23.28,39.6,277.09,277.09,0,0,0-13.92,71c-1.44,22-2,43.8-1.68,65.64q.54,48.42,2,96.84L190.8,381l.84,12.12,1.2,11.88,3.24,24c1.8,11.88,4,23.76,6.6,35.4a85.25,85.25,0,0,0,3.84,12.24A44.66,44.66,0,0,0,227,499.8c15.72,8.4,30.48,5.76,44.52-7.8a66.13,66.13,0,0,0,19.68-37,39.28,39.28,0,0,0-.72-17.52l-3.6,1.56q-10.08,45.54-53.4,44.64a15.13,15.13,0,0,1-10.56-4.8,62.61,62.61,0,0,1-18.84-39.24A1444.38,1444.38,0,0,1,196,293.76L255.12,296c3.12-4.44,3.12-9.12,0-13.8a244.16,244.16,0,0,0-59.16.36q-10.8-92,32.64-167.88c7.92-13.8,19.68-21.36,35.16-22.44C274.92,91.56,284,95.76,291.36,104.76Zm71.76,289-23.64,7.8,15.6-66.36Zm-7.44-87.12a400.81,400.81,0,0,0-12.6,40.8c-3.72,15.24-7.56,30.36-11.52,45.6l-9,33.12a217.19,217.19,0,0,1-12.24,32.64c-6.84,14.16-7.08,27.36-.6,39.72q14-28.44,22.2-67.08c1.32-6.6,2.88-13.08,4.68-19.68L365,406.44a477.5,477.5,0,0,1,10.56,79.2,18.42,18.42,0,0,0,3.84,10.68l3.36,4a139.52,139.52,0,0,0-.24-39.36c-1.56-10-3.24-19.92-5-29.76-1.68-9.36-3.24-18.72-4.68-28.2l.48-9.6-1.8-1.56-14.16-88Zm58-191.16c.84-12.12-.24-22.8-3.48-32q-4.86,45.18-5.16,92.76-.36,64.62-.36,129.12c.12,43.08-.48,86-1.56,129-.36,10.8-1.08,21.6-2.4,32.28A63.47,63.47,0,0,0,402.12,491l.48,1.8a62.07,62.07,0,0,0,2.16,6.12l1.2-5.4A214.64,214.64,0,0,1,446.88,495a142.74,142.74,0,0,0,45.24-1l.48-.84c2.28-5.88,1.44-10.92-2.64-15.36l-.12-.72-1.44-4.2c-.48-.12-.72.12-.72.6l.48,4.8a19.71,19.71,0,0,1-10.8,1.56,196.2,196.2,0,0,0-69.48,3A268.31,268.31,0,0,0,411,438.36l-.72-129.12c-.36-42.84-.12-85.92.6-129C411.24,158.64,412.08,137,413.64,115.44ZM352.8,81.24a22.63,22.63,0,0,0-9.36,1.56A59.1,59.1,0,0,0,322,98.28a104.55,104.55,0,0,0-25.44,55.44c-3,21-5.28,42.12-7.08,63.36-2.28,28.44,4.92,53,21.72,74,14.28,5.16,28.2,5,41.76-.12,17.28-6.6,23.88-17.16,19.92-31.8C357.36,274,338.4,280.08,316,277.32a13.28,13.28,0,0,1-3.36-2.88c-12.24-14.28-17.76-31.2-16.56-51l1.32-25.08a363.29,363.29,0,0,0,66.6-1.08l.24-.84q3.42-7-1.08-13a6.21,6.21,0,0,0-3.84,1.92,276.73,276.73,0,0,0-61.56,3.24c1.32-31.2,11-58.8,29.4-82.8,14.28-10.92,28.92-13.2,44-6.84l.6-1.56a15.25,15.25,0,0,0,.84-5.76,8.61,8.61,0,0,0-1.08-3.24l-.6-.6A27.68,27.68,0,0,0,352.8,81.24Z" transform="translate(-43.8 -71.81)"/></svg>