<svg id="Layer_1" data-name="Layer 1" xmlns="http://www.w3.org/2000/svg" viewBox="0 0 586.56 547.32"><defs><style>.cls-1{fill-rule:evenodd;}</style></defs><path class="cls-1" d="M259.8,259.92c7.08,31.8,15.6,63.24,25.8,94.56,4.92,15,9.6,30.12,14.28,45.24L301.8,406a405.81,405.81,0,0,0-72.72-6.84l10.08-50.64c7.08-34.92,13.32-69.6,18.72-104.28A81.44,81.44,0,0,0,259.8,259.92Zm-10,1.08q-13.14,62.1-24.48,125.4Q214,449.4,197,511.08q-4.68,17.1-1.08,31.68a685.41,685.41,0,0,0,18.12-69.48L227.64,406q39.42,3.42,76.44,7.8c3.12,10.92,5.76,22,8,33q13.14,61.92,27.72,122c2.76-3,3.72-6.84,2.88-11.28Q329.94,495.06,315.12,433l-4.68-18.84.48-1.2.12-.84.12-.84v-.72a6.94,6.94,0,0,0-.84-2.52l-.6-.36-1.08-.24-.12-.36Q291.6,345.3,270.84,284.4a180.37,180.37,0,0,1-9.72-61.2A230.73,230.73,0,0,0,249.84,261ZM122.76,46.44c-13.56-9-28.56-12.36-45-10.2l-.6-1.32L62.28,38.16l-.6,8.16,14.88-2.64L75,233.52l-9.24,1.32,1.08,10,7.56.12A337.36,337.36,0,0,1,49.56,376.68a163.77,163.77,0,0,0-16.56-55L23.52,361a415.44,415.44,0,0,0-19-80q7.2,46.62,17,93.84a12.81,12.81,0,0,0,2.76,5.76L33.6,335q6.66,27.18,15.12,53.64L50,391.8,70.8,333.24Q69,445,58.8,555.84a48.67,48.67,0,0,0,3.72,23.76A1673.4,1673.4,0,0,0,76.44,369.36c.12-24.84.72-49.56,2-74.16l-.72,1.68,1.56-53.28L95.64,237a1391.15,1391.15,0,0,1,38,161.16q15.3,88,35.52,174.24a26.19,26.19,0,0,0,2.64,6.6,2132.87,2132.87,0,0,0-36.12-211.44A1303.52,1303.52,0,0,0,98.88,235.2a93.7,93.7,0,0,0,36.24-40.68A170.92,170.92,0,0,0,151.32,132a168.59,168.59,0,0,0-3.72-47.88C144.6,68,136.32,55.44,122.76,46.44Zm10.56,19.44q30.78,61.56-1.08,122.88c-12.12,23.28-29.64,37.92-52.8,43.8q.18-33.48-1.08-67-2.16-61-.12-122C96,42.24,112.56,46.68,128,56.88A67.88,67.88,0,0,1,133.32,65.88Zm160.92,88.8a835.27,835.27,0,0,0-8.52,125.88c14.64-1.56,29.28-3.72,44-6.48l.36-.72a8,8,0,0,0,0-5.76,102.23,102.23,0,0,0-41.4,1.32v-.72c2.4-40.92,5.4-81.6,9.12-121.8A14.64,14.64,0,0,0,294.24,154.68ZM244.8,196l1.08-4.08q-10.62-7-25.2-1.8a136.4,136.4,0,0,0-17.16,7.68,83.22,83.22,0,0,0,35.64-.6Zm-15.36-57.84-3.24.12a123.15,123.15,0,0,0-27.48,55.92,81.12,81.12,0,0,0,1.08,37.2A41.45,41.45,0,0,0,214,253.56a25.71,25.71,0,0,0,14.4,6l3.72-2.16,1.44-2.52,2.4-1.32c4.32-5.28,6.36-10.92,6.12-17l-.48-1.68-13,13.8c-9,.24-15.48-3.72-19.44-11.76a69,69,0,0,1-6.72-38,86.28,86.28,0,0,1,22.44-50c10-2.4,19-.36,26.76,6.24a13.15,13.15,0,0,0,.72-3.12,8.72,8.72,0,0,0-.84-4.32,7.61,7.61,0,0,0-2.4-3A30.6,30.6,0,0,0,229.44,138.12Zm4.68-65c-.72-18.36-10.56-28.92-29.52-31.44-15.48,7.08-26.16,19.2-31.92,36.24a337.46,337.46,0,0,0-17.52,111.6c.36,40,1.8,80,4.08,120l-1.2,2,1.32.24.36,5.88c2.64,42.84,5,85.56,7.2,128.4q2.7,51.12,9,101.52c2.28,18.24,11.52,29,27.6,32.28a29.9,29.9,0,0,0,19.08-15,132.93,132.93,0,0,0,16.8-64,25.91,25.91,0,0,0-4.2,10.68,112.2,112.2,0,0,1-23,52.08c-17.16,5.76-27-.72-29.64-19.44-5.88-42.36-10-85.2-12-128.28l-5.64-103.08a156.08,156.08,0,0,0,43.2.84l.48-1a6.55,6.55,0,0,0-.48-7.2q-17.46,0-34.56-.72a25,25,0,0,0-9,1.08l-1.2-18.24q-4-63.54-1.8-127.44c.12-5.4.24-10.8.12-16.2-.84-35.88,11-65.88,35.4-90.12a24.82,24.82,0,0,1,21.6.84,28.28,28.28,0,0,1,6.24,5.76,96.81,96.81,0,0,1,8.88,13.08ZM355.2,406.56l-1.08-2.88a217.86,217.86,0,0,0-8.4,35.4c-2.52,15.48-5.4,30.84-8.88,45.84-1.44,6-.6,10.68,2.4,14.16a6.2,6.2,0,0,0,4.08-5.52c.6-3.6,1-7.32,1.32-11.16a720.74,720.74,0,0,1,9.24-73.8Zm-.48-7.08-.48,2.4a83.77,83.77,0,0,1,32.88,12.84,24.26,24.26,0,0,1-10.44,14.76l-4.92,3.12-13.32-.24-4.08-3.12q6.3,36.36,40.68,64.2c3.24,2.64,6.36,5.4,9.48,8.16q-14-30.06-42-58.92c13.32-1,22.08-7.92,26-20.76a26.88,26.88,0,0,0,.84-13.08,62.43,62.43,0,0,0-31.2-10.08Zm36.36-86.16c-.6,7.08-1.08,14-1.44,21.12l-29.16.24,5.64-47.88L355.2,337.32l-2,1.92,1.8,1a146.68,146.68,0,0,0-1,16.2,141.84,141.84,0,0,0,5.52,40.8,4.17,4.17,0,0,0,1.2-3c.12-13.56,0-27-.48-40.56l-.12-12.12H389.4l-1.68,39.12a37.3,37.3,0,0,0,6.12,22.56v-.12l-.12-115.56C392.64,296.16,391.8,304.8,391.08,313.32ZM354.84,291l-23.4,1.2-.6-1.68a303.89,303.89,0,0,1-35.4,9l-.12,4,34.56-2.16a844.18,844.18,0,0,0-.36,98.52l2.28-98.76,23-2.88ZM496.56,49.56A136.07,136.07,0,0,1,542.4,104.4,422.17,422.17,0,0,1,579,229.2a816.39,816.39,0,0,1,7,128.28,465.28,465.28,0,0,1-20.4,125.4A90.67,90.67,0,0,1,550.68,512a204.84,204.84,0,0,1-62.4,54,77.56,77.56,0,0,0,2.16-12.84q5.76-63.9,6.36-128.4c.36-43.08-.12-86-1.68-129.12-1.44-42.84-2-85.92-1.92-129C493.32,127,494.52,87.84,496.56,49.56ZM451.32,52q-42.48,49.68-44,120.48l-1.92,99L403.2,405.12a325.57,325.57,0,0,0,2.16,43.2c.84,8.16,2,16.2,3.48,24.24S412,488.4,414,496.2q13,17.46,29.52,4.32a94,94,0,0,0,19-20.64A196.61,196.61,0,0,0,472.56,463a79.84,79.84,0,0,0,6-13.92,59.05,59.05,0,0,0,2.16-9.36l1.2-9.48a234.77,234.77,0,0,1-45.72,64.44l-10.56-.84-4.08-2.4q-24.48-108.9-10.68-223.56l1,2.52A75.34,75.34,0,0,1,458.4,263l.48-7.92C442.2,250,426.24,253,411,263.88q-6.48-93.24,21.84-179.76c3.72-11.64,11.16-18.6,22.08-20.88a11.42,11.42,0,0,1,7.92,1.2,14.19,14.19,0,0,1,7.2,8.4A11,11,0,0,0,472,76.56a2.23,2.23,0,0,0,1.56.84c1-13.92-5.52-22.2-19.44-25Zm91.32,40.32c-10.68-20.88-25.92-36.72-46-47.4l.36-5.64-.84,5.4-3.72-1.92-.36.36a4.29,4.29,0,0,0-.48,4l.48,1.68.6-.12,2.16-.12.6.36a604.39,604.39,0,0,0-6.6,85.68q-.54,64.44,1,129c.84,42.84,1.44,85.92,1.56,129.12s-1.56,86.16-5,129a238.66,238.66,0,0,1-4.68,32.16c-1.32,6.36-1.32,12-.12,16.68a14,14,0,0,0-1,4.44,9.69,9.69,0,0,0,2.64,7.32,58.13,58.13,0,0,0,23.28-15.36,233.45,233.45,0,0,0,26.16-17.76,80.09,80.09,0,0,0,17.76-19.44,208.34,208.34,0,0,0,25.92-61.32,532.28,532.28,0,0,0,14.76-126.84A885.8,885.8,0,0,0,581.52,214,396.29,396.29,0,0,0,542.64,92.28Z" transform="translate(-4.56 -34.92)"/></svg>