<svg id="Layer_1" data-name="Layer 1" xmlns="http://www.w3.org/2000/svg" viewBox="0 0 595.57 842.18"><defs><style>.cls-1{fill:#fff;}.cls-2{fill:none;stroke:#fff;stroke-linecap:round;stroke-linejoin:round;stroke-width:0.38px;}.cls-3{fill-rule:evenodd;}</style></defs><rect class="cls-1" x="0.31" y="0.31" width="595.08" height="841.68"/><rect class="cls-2" x="0.19" y="0.19" width="595.2" height="841.8"/><path class="cls-3" d="M193.92,94.44a120.55,120.55,0,0,0-11,37.32q-8.46,63.9-17.4,127.68C159.6,301.56,154.68,343.68,151,386l-2,19.92-2.76-13.8q-13-62.46-29-123.72v-.84c-1-.12-1.56.48-1.92,1.56A948.76,948.76,0,0,0,91.92,395a245.85,245.85,0,0,1-5.52,31.2,49.34,49.34,0,0,0-1.44,8l-8.88-91.8c-4.2-42.36-7.68-84.72-10.2-127.32A901.33,901.33,0,0,0,49.2,88.44c-.84-.12-1.44.12-1.56,1a54.37,54.37,0,0,0-.72,18.72c2.88,21.36,5.4,42.72,7.56,64.2Q61,235.86,65.76,299.4,70.62,363.3,76,427.08C77,438.84,80,449,85,457.8A4,4,0,0,0,86.64,455l1.08,3a255.33,255.33,0,0,0,12.48-63.72,428.17,428.17,0,0,1,9.36-63.12,344.31,344.31,0,0,0,6.24-38.88q13.5,61.74,25.8,124.08c2,10.68,3.72,21.24,4.92,31.92q1.26,10.8,7.92,14a5.91,5.91,0,0,0,1.8-4.8l-2-17.4c1.92-19.68,3.72-39.72,5.28-60,3.36-42.6,8-85,14-127.32S186,168.36,193,126.36A115.07,115.07,0,0,0,193.92,94.44Zm54.84,60.24a102.71,102.71,0,0,1-6,44.76,84.43,84.43,0,0,1-25.68,36.36,48,48,0,0,0-8.64,9.12A1147.32,1147.32,0,0,0,213,116.52a21.32,21.32,0,0,0,7.92-3.12,8.2,8.2,0,0,1,4.8-1.2l3.48.36C240.84,123.72,247.44,137.76,248.76,154.68Zm-26.88-54.6a65,65,0,0,0-6.48,3.84,19.71,19.71,0,0,0-3.6,3.48l-.12.72-.36-6.36c-3.48,29.64-5.88,60.12-7.32,91.68q-2.7,64.44-7.8,128.4c-3.36,42.84-7.2,85.44-11.4,128-.84,7.56,1.2,12.36,5.88,14.64a373.62,373.62,0,0,0,4.56-42.12q3.42-64.44,9-128.28l2.4-28.56q5.94-5,11.16-10.44a697.07,697.07,0,0,0,12.72,76.8q13.86,62.28,25.92,124.92c1.32,7.08,4.32,11.88,9,14.28a6,6,0,0,0,1.2-4.8c-5.64-33.24-12-66.6-19.32-100q-12.6-57.6-26.16-114.72,25.74-28.44,33.6-67.2c6.72-33.48-1.56-61.56-24.84-84Zm90.84.36q-28.8,24.66-29,66.84l-.36,57-.72,79q-.36,32.22-1.8,64.44a282.45,282.45,0,0,0,.12,30.24l1.32,19.92,1.08,9.72,1.2,9.84A86.72,86.72,0,0,0,287,450.72a33.88,33.88,0,0,0,3.36,8.76c3.36,6.12,8.4,8.28,15,6.24,20.28-5.88,30.6-19.08,31.08-39.6a36.44,36.44,0,0,0-.48-6.24l-2.16.36-1.92,1.8-3.24-5.28,2,7.8c-4.92,10.8-13.08,18.6-24.48,23.52a36.75,36.75,0,0,1-7,2.4q-18.9-38.7-14.88-85.68,3.6-43,4.44-86.16l27.12-1.2a11.89,11.89,0,0,0,2-7.44,11.31,11.31,0,0,0-2.52-6.72l-26.4,5.4Q277.38,194,303.6,127.44a42.67,42.67,0,0,1,8-13,30.52,30.52,0,0,1,23.28,8.76l1.92,2a6,6,0,0,0,2-5.64,22.08,22.08,0,0,0-4.2-9.72,27.72,27.72,0,0,0-18.84-9.36ZM552,262.8c-12.12,11.16-19.08,25.44-21,43.08q-4.68,42.84-8,86a187.08,187.08,0,0,0,7.92,71.28c3.84,12.12,10.56,14.64,20,7.68C565.92,460,570,447.36,563.4,433a3.86,3.86,0,0,0-1.8,2.52c-2.4,10.92-8.64,18.6-18.84,22.92a10.58,10.58,0,0,1-7.56-7.92,165.78,165.78,0,0,1-5.28-56.16l1.8-24.12a58.24,58.24,0,0,0,24-3.84l.72-.84c3-5.4,2.76-10.44-.72-15.36-7.8,1.8-15.6,4-23.16,6.48l1.44-26.4c1-20,6.84-37.92,17.76-53.4l6.6.36a1.24,1.24,0,0,1,1,.48,23.79,23.79,0,0,1,3.48,5.76,2.44,2.44,0,0,0,2.76,1.56,10.45,10.45,0,0,0,1.92-6.6C567.24,272,564.36,267,559,263Zm-179.88,1.56L388.56,136l11.16,121.8Zm17.52-149,.24-14.64a895.55,895.55,0,0,0-15.24,93.6q-7,63.54-15.48,126.84T340.68,447l-.12-.48a19.94,19.94,0,0,0-.72-6.6l-.36.84a21.83,21.83,0,0,0,.6,8.88c-2.88,6.6-1.92,11.88,3,16a164,164,0,0,0,11.4-48.36q5.58-63.72,14-126.84l2.16-15.24c9.84-1.32,19.92-2.52,30.12-3.48l.24,4.2q4.86,63.9,12,127.56a266.26,266.26,0,0,1,1.56,32.4c-.24,12.72,2.52,23.16,8.28,31.44a2.92,2.92,0,0,0,1.32-2.4A868.66,868.66,0,0,0,416,357.72c-4.2-30.84-7.8-61.92-10.56-93l-.24-2.28-2.64-32.16c-3-42.72-6.6-85.2-10.56-127.44A109.07,109.07,0,0,0,389.64,115.32ZM472.2,148.8q-.36,64.8-4.08,129t-5.4,129.12a222.59,222.59,0,0,1-3,32.16Q456.48,458,464,470.76a78.05,78.05,0,0,0,5.4-25.92l4.8-129,1.68-44.16,32.4,1.2c-.84,34.92-2.76,69.6-5.52,103.92q-2,23.94-5.76,47.52a121.76,121.76,0,0,0,1.32,48.12c.72-.24,1.2-.6,1.32-1.08a450.06,450.06,0,0,0,10-71c2.52-42.6,4-85.32,4.56-128.4q.36-24.3,2.16-48.6A996.52,996.52,0,0,0,517.92,95a144.07,144.07,0,0,0-6.72,40.56q-1.62,55.8-2.4,112l-.12,10.8-3.84-1.56-28.56,3.36,1.92-73.44c.48-22.08.6-43.44.48-64.08C474.36,130.2,472.2,138.84,472.2,148.8ZM466.44,89a566.57,566.57,0,0,1-58.92,11,10,10,0,0,0-2,7.92,7.56,7.56,0,0,0,1.2,3.24l40.8-3.12c-2,20.52-3.36,41.4-4,62.4q-1.08,40-.36,80.28,1.26,64.26-1.08,128.28a610.89,610.89,0,0,1-5.88,64.68c-1.44,10,.24,17.76,5,23.52a238.7,238.7,0,0,0,7.2-51.12q2.16-64.62,1-129-1.26-64.62,1.92-129.12a437.86,437.86,0,0,0-.36-50.28l25.8-3A11.87,11.87,0,0,0,477.6,91a1.65,1.65,0,0,0-1-.6A56.45,56.45,0,0,0,466.44,89Z" transform="translate(0.19 0.19)"/></svg>