<svg id="Layer_1" data-name="Layer 1" xmlns="http://www.w3.org/2000/svg" viewBox="0 0 449.33 358.56"><defs><style>.cls-1{fill-rule:evenodd;}</style></defs><path class="cls-1" d="M319.68,275l19.2-108.72,3,100.56ZM139.56,178a102.61,102.61,0,0,1-24.12,60.24C103.92,252,90.24,259,74.52,259.08l3.6-38.88q5.76-61,6.72-121.56c7.08-2.88,14.52-1.44,22.08,4.44a80.51,80.51,0,0,1,26.4,35.4A91.34,91.34,0,0,1,139.56,178Zm-38.76-89a12,12,0,0,0-4.2-1.08L82.8,89a16.35,16.35,0,0,0-3.6,11.88,7.82,7.82,0,0,0,1.92,4.32l-.24-4.2,2.52-1.68L68,258.72l-4-.6-1.92-3c-2.64,1.44-3.72,4.2-3.12,8.16a14,14,0,0,0,3.24,7.32l4.56,1.08Q50.82,357.9,56,441.6L73.2,272.4a41.62,41.62,0,0,0,25.2-6.72q29.34,92,66.12,180.48A956,956,0,0,0,103.8,261.72c27.24-22.92,41.16-52.2,41.64-87.6l-.12-4-.24-4-.48-4L144,158a143.48,143.48,0,0,0-4.8-21,86.29,86.29,0,0,0-31-43.8A30.86,30.86,0,0,0,100.8,88.92Zm158.76,46.32,2.64,1.44,5.4,12.72c3-13.68-1.68-23.52-14-29.64a30.33,30.33,0,0,0-9-2.88c-25,13.8-42.36,35.16-52.08,63.84q-27.9,82.62-8.4,168.84a134.41,134.41,0,0,0,23.52,50.52,82.83,82.83,0,0,0,12.6,13.32l1,.72c19.32-5.88,34.8-17.16,46.68-33.6,6-8.28,7-16.68,3-25.2C258.72,377,242.76,390,223,394c-3.36.6-6.24-.72-8.64-4.08q-35.1-51.48-31.44-117.24A332,332,0,0,0,250,266a9.84,9.84,0,0,0,1.44-5.76,11.41,11.41,0,0,0-2.28-6.36l-.36-.36a446.39,446.39,0,0,0-65.88,10.08c-.48-40,10.56-76.44,33.12-109.2l8-11.28C233.88,130.68,245.76,128,259.56,135.24Zm93.24,133a.91.91,0,0,0-.84-.48l-4.08-.48-1.32-25.8q-3.24-60.48-3.24-120.72v-7.56l-.48.12-2.16,3.12a117.19,117.19,0,0,0-2,17.28,149.75,149.75,0,0,0-4.44,17.88L314.76,260,291.6,386.16a68,68,0,0,1-4.68,15.48c-5.16,11.88-5.4,22.44-.72,31.56a4.24,4.24,0,0,0,1.92-2.4,455.2,455.2,0,0,0,14.28-57.36l15.48-87.72c8-2,16.2-4.08,24.48-5.88q1.44,50,1,100.32-.36,34,9.48,63.84a4,4,0,0,0,2.28-4.44q-3.78-34.38-4.32-69.12-.54-46.08-2.4-91.92l.12-.12,1.44-1.2,2.76-1.92.36-.6a6.79,6.79,0,0,0,.48-4.08l-.48-1.68ZM476.16,125.4l.36-4.68a316.11,316.11,0,0,0-16.92,66.72q-9,63.36-22.8,126.12l-4,17.76q-3.42-43.92-5-88.56-2.34-64.44-9.72-127.44a912.88,912.88,0,0,0,1.08,102.24c2.76,42.84,5.16,85.56,7.44,128.28a48,48,0,0,0,2,11.64A23.52,23.52,0,0,0,433,368l.84-1.2,1.56,1.68a4.22,4.22,0,0,0,.36-2.4l-.6-7c2.88-16.44,6-32.76,9.48-49.08q13.32-62.64,24.12-125.76c2.4-13.92,4.32-27.72,5.76-41.28,2.28,39.6,4.44,79.32,6.24,119.16q2.88,64.62,11.88,128.28a245.69,245.69,0,0,1,2.64,32.4c.12,10.08,2.64,17.88,7.44,23.52A2.77,2.77,0,0,0,504,444a360.62,360.62,0,0,0-4.44-65.16,1025.47,1025.47,0,0,1-12.24-127.2q-2.34-65-9.72-128.28Zm-60.24-11.52Q405.84,165.36,398,219.36q-9.18,63.36-23.52,126l-7.44,31.2c-2.76,11.64-2.16,22.2,1.92,31.68,7-34.44,14.16-69.36,21.48-105q13-62.64,22.32-125.88A315.83,315.83,0,0,0,415.92,113.88Z" transform="translate(-54.76 -87.84)"/></svg>