<svg id="Layer_1" data-name="Layer 1" xmlns="http://www.w3.org/2000/svg" viewBox="0 0 566.78 582.6"><defs><style>.cls-1{fill-rule:evenodd;}</style></defs><path class="cls-1" d="M320.4,421.44A102.26,102.26,0,0,0,318.6,444c1.2,43.08,1.32,86,.48,129.12a118.07,118.07,0,0,0,3.48,32.16,217.41,217.41,0,0,0,5.52-56.52l-1.32-41a15.65,15.65,0,0,0,10.44-.24q32.76-11.52,40-47.4a24.76,24.76,0,0,0-2.52-17q-16.74-31.32-55.44-32.28a7.61,7.61,0,0,0-1.2,1.44,5,5,0,0,0-.6,2.28l.12,2.52.12,1.56.24.84a141.09,141.09,0,0,1,38.4,11.52c11.76,5.4,16.32,14,13.8,25.68q-8.28,36.72-43.92,38-1.8-37.26-4.44-74.16A1,1,0,0,0,320.4,421.44ZM231,385.2a913.42,913.42,0,0,1,20.76-123.84c2.28,21.48,5.4,42.84,9.24,64.32,3.72,21,7.8,42,12.12,62.76l3.72,18.48A139.06,139.06,0,0,0,227.76,416Zm20-130.44-.84-1a497.74,497.74,0,0,0-18.12,88.8c-2.76,25.2-5.88,50.4-9.12,75.48l-.36.84a10,10,0,0,0-.36,5.28l-6.12,45.12a501.43,501.43,0,0,1-12.84,62.76c-2.64,9.48-1.8,17.28,2.4,23.4a319,319,0,0,0,9.6-43.56q6.48-42.66,11.28-85.32a152.13,152.13,0,0,1,52.32-9.12q9.36,48.42,16.44,97L302,562a116.3,116.3,0,0,0,8,30.6A13.33,13.33,0,0,0,312.84,582q-5.22-37.62-12.36-75L288,444.36q-7-35.46-12.24-71.16-9.36-63.54-24.48-124.8c-.6-.12-1,.12-.84.72Zm41.16-7.44c-6.48,5.4-10.56,12.84-12.24,22.08a402.87,402.87,0,0,0-6.24,73.2,143.45,143.45,0,0,0,14.4,62.52c5,10.56,12.48,12.72,22.44,6.36,10.92-7.08,16.44-16.2,16.32-27.6a92,92,0,0,0-19,17.4,16.6,16.6,0,0,1-13.32.24,35.49,35.49,0,0,1-8-14.76,234.12,234.12,0,0,1-7.8-44.28c-2.52-29.88,2-57.72,13.44-83.28l4.32.6a10.1,10.1,0,0,1,3.72,4.08,37.69,37.69,0,0,0,4.92,8.64,5.29,5.29,0,0,0,2.28-4.68,25.33,25.33,0,0,0-9-19.44l-1.32-.48ZM26.88,25.68l-.12.84.36,3.24,4.2.84a140.41,140.41,0,0,0-1.08,24.84q2.52,64.8,4.44,130l1.8,72-1.56.72a19.49,19.49,0,0,0-1.32,6.48,11,11,0,0,0,1.56,5.76l1.68.24.72,43.8q.9,64.44,1.08,129.12.54,64.26-2.16,127.44A3.81,3.81,0,0,0,39,573.12a3,3,0,0,0,.84-1.44,1044.37,1044.37,0,0,0,5.4-129l-2.16-129-.72-42.84a111.44,111.44,0,0,0,21.12-14A857.31,857.31,0,0,0,97.2,363.48q17.46,45.18,31,91.8Q145.26,514.86,161,574.2a3,3,0,0,0,2.4,2.16,5.54,5.54,0,0,0,2.64-5.4,169,169,0,0,0-6.84-37.8c-4.2-14-8.16-28.44-11.88-43.08a1218.14,1218.14,0,0,0-39.12-122.4L65.52,255a103.7,103.7,0,0,0,15.24-17q39.42-54.18,29.52-120.84-9.36-63.72-70-92.52l-4.56-.84L30.6,22.68l-2.28.48a2.27,2.27,0,0,0-1.2,1Zm23.28,13a153.88,153.88,0,0,1,35.28,30,88.32,88.32,0,0,1,19.8,37.8A120.16,120.16,0,0,1,108,151.32a157.36,157.36,0,0,1-12.48,44.76,126.59,126.59,0,0,1-27,38.76A122.27,122.27,0,0,1,42,254.64L33.6,31l6.48,1.2,1.56,1.68,2.76.48ZM242.88,56.28c1-16.32-6.72-26.4-23.16-30.36a122.33,122.33,0,0,0-45.84,31.32,42,42,0,0,0-8.28,12.84,316,316,0,0,0-21.48,95.16,955.17,955.17,0,0,0-.24,128.4c2.76,43.08,7,85.8,12.36,128.16a585.06,585.06,0,0,1,4.44,61.68,182.42,182.42,0,0,0,22.56,85.32,31.76,31.76,0,0,1,7.32,6.6c4.44,5.4,10,6.84,16.56,4.56A51.68,51.68,0,0,0,232,562.2c8-10.56,13-21.84,14.52-33.72l-.6-.84-.6-.6-2.88-.72a162.09,162.09,0,0,0-13.2,20.52c-6.6,12.12-16.2,18.84-28.68,20.28l-2.88-1.8-11.52-9.6a67.25,67.25,0,0,1-11-27.6c-5.4-33.72-10-67.8-13.8-102C156.84,385.56,153,344.76,150,303.84c19.56-2,39-4.8,58.32-8.4l.48-.48c2-5.16.72-8-4.2-8.64l-55.32,9.24a834.81,834.81,0,0,1,.6-126.12c.84-10.92,1.44-21.72,1.68-32.52,1-38.76,17.16-69.12,48.72-90.84q28.26-19.26,42.12,10.8Zm25.2-13.44A75,75,0,0,0,241.2,80a210,210,0,0,0-9.36,40,255.14,255.14,0,0,0-2.16,44.88c.6,14.64,1.92,29.16,4,43.68,3,21.36,12.6,29.52,28.8,24.6,16-4.8,25-15.36,26.88-31.68l.12-2.88a90.68,90.68,0,0,1-31.8,26.16q-31-28.44-21.36-75.6l47.28-19-.24-7.32c-16.2,1.8-31.8,7.2-46.92,16.08-.84-33.72,10.44-62.16,34.08-85.32q12.78-12.78,28.08-2.16l.12-.36Q294.9,22.68,268.08,42.84Zm97.2,364.8a255.63,255.63,0,0,0-.12-43.92,931.11,931.11,0,0,1-3.36-111.24l-6.84,72-16.32-1.32-.72-78.84A231,231,0,0,0,334.44,273q-1.44,26.28-2.16,49.32l-1.44,8,3,1.68a342.94,342.94,0,0,1-.72,41.52,94.93,94.93,0,0,0,2.28,29.76,22.77,22.77,0,0,0,3.12,7.44,111.66,111.66,0,0,0,1.56-14A357.56,357.56,0,0,0,340,352.8c-.48-6.6-.84-13.2-1-19.8l16,.72,7.56,89.76A99.36,99.36,0,0,0,365.28,407.64ZM581,172.44a1025.74,1025.74,0,0,1,6.84,127.44,625,625,0,0,1-8.4,96.24,895,895,0,0,1-21.36,95.64q-16.2,57.42-67.2,87.48a166.65,166.65,0,0,0,4.92-34.8q2.34-64.08,5.76-128.28,3.6-64.26,3.24-129c-.12-43.32-.72-86.28-1.8-129.12q-1.62-60.66-1.44-119.88l4.2,1.68q47.52,21.78,62.64,72A348.54,348.54,0,0,1,581,172.44ZM551,62.64a127.79,127.79,0,0,0-60.72-36.72l-.12.24c-1.32.84-1.92,2.16-1.8,4.2a10.78,10.78,0,0,0,.84,3.24,50.11,50.11,0,0,0,7.8,3l3.24,1.08a772.41,772.41,0,0,0-4.08,101.64c1.08,42.6,1.8,85.44,2.16,128.28q.36,64.8-2.52,129c-1.8,40.44-4.44,80.76-7.68,121-1.92,2.64-3.72,5.4-5.52,8.28a68.32,68.32,0,0,1-33.12,28.68c-17.88,7.56-30.24,2.52-37.08-14.88a381,381,0,0,1-24.6-104.76q-5.58-63.72-6-128.28V294.36l62.4-13,.48-.6a7.06,7.06,0,0,0-.72-8,202.21,202.21,0,0,0-62,13.56c.36-35.88,2.4-71.52,6.12-107.16l2.52-24.6a207,207,0,0,1,34.2-95.4,31.77,31.77,0,0,1,23.52-14.28c13.92-1.56,23.52,3.48,28.68,15.24a13.61,13.61,0,0,0-.12-12.36l-4-8a8.42,8.42,0,0,1-3.36-3.12l-.72-.84-2.16-1a31.71,31.71,0,0,0-17.52-4q-30.42,10.26-41.52,42A460.9,460.9,0,0,0,383.52,180.6c-2.28,22.2-3.84,44.52-4.92,66.84-2.76-6.12-5.4-12.12-7.92-18.12a1106.17,1106.17,0,0,1-39.24-109.2l16.2-31.44a101.4,101.4,0,0,1,15.72-22.56c8.52-9.36,12-19.2,10.56-29.64a3.5,3.5,0,0,0-3,1.08l-.72,1.56a494.57,494.57,0,0,0-41.64,71.4l-.36-1.44c-.72-.12-1.08.12-1.2.84l-.12,4.44c-2.64,5.76-5.16,11.64-7.68,17.52l1.44-97.2c-2.28,2.52-3.6,6.12-3.72,10.56L313.2,145.56a11.56,11.56,0,0,0-1,12.24l.48-1L312,173.4a202.88,202.88,0,0,1-3.48,32.16c-2.28,11.88-1.92,22.68,1,32.52A357.47,357.47,0,0,0,318.6,163L319,144.6l9.72-19.2a34,34,0,0,0,1.92,4.2q1.8,1.8,3.6,11.88A353.62,353.62,0,0,0,378,260.88c-.6,16-1,31.92-1,47.88-.12,43,1.8,85.68,5.52,128.16L387,485a179.82,179.82,0,0,0,25.56,77.16,19.41,19.41,0,0,0,12.84,9.12c22,4.44,40.08-2.76,54.12-21.36a106.48,106.48,0,0,0,7-10.56,351.48,351.48,0,0,0,.36,42.12l-6,3.24a15.2,15.2,0,0,0-1.08,5.64,29,29,0,0,0,.48,5.64l.36.84.6.72,2.64,1.44a191.36,191.36,0,0,0,44.64-33.24A82.78,82.78,0,0,0,547.56,537,629.61,629.61,0,0,0,583,412.32a715.48,715.48,0,0,0,10.56-128.76A1115.61,1115.61,0,0,0,585.24,157,220.51,220.51,0,0,0,552,63.6Z" transform="translate(-26.76 -22.68)"/></svg>