<svg id="Layer_1" data-name="Layer 1" xmlns="http://www.w3.org/2000/svg" viewBox="0 0 390.19 430.6"><defs><style>.cls-1{fill-rule:evenodd;}</style></defs><path class="cls-1" d="M98.28,88.68A841.74,841.74,0,0,1,95,209c-1,9.72-1.8,19.56-2.4,29.52a7.12,7.12,0,0,1,5,1.68q57.42-25,56.16-84.6-.72-33.48-22-57.24a15.36,15.36,0,0,0-11.28-5.16A69.78,69.78,0,0,1,98.28,88.68ZM129.12,80l2.28.6c17.88,16.68,27.24,37.68,28.32,63,.36,6.6.48,13.32.36,20.4q-.54,49-36.36,77.88,14,54.9,30.84,109.92,18.54,61.2,34.2,122.88c3,11.64,2.64,22.56-1,32.88-5.52-8.4-8.88-18.36-10.2-29.88a232.8,232.8,0,0,0-5.52-31Q156.78,385,139,322.92L124.8,275a128.26,128.26,0,0,1-5.4-29.88,117.57,117.57,0,0,1-16.08,10,12.73,12.73,0,0,1-11.76.36L90.72,273Q88.38,337.44,84,401.4a778.87,778.87,0,0,1-14.16,103c-6-4.44-7.92-11.28-5.64-20.52a63.74,63.74,0,0,0,1.8-20,10.54,10.54,0,0,1,1.56,5.64l.12.84Q76,407.64,79.2,343.56c2.28-42.84,4.92-85.56,8.16-128.16s5.64-85.32,7-128.28c.12-2,.6-3.6,1.68-4.56l.36-1.08c7.08-4.08,15.24-5.4,24.24-3.84Zm112.2,11.64a15.51,15.51,0,0,0,6.48-2.4c20.76,3.48,30.12,15.84,28.32,37.08l-.12.84a167.63,167.63,0,0,0-14.76-19c-3.72-4.08-8.4-5-13.92-2.88-13.08,5.16-22.2,14.52-27.36,28.32A251.91,251.91,0,0,0,203.88,223l-.24,32.52-.36,30a136.2,136.2,0,0,1,46.2-10.8c3.36,4.44,3.72,9.36,1,14.52l-.72.84c-15.6,2-31.08,4.56-46.56,7.32l-.72,87.12A353.61,353.61,0,0,0,214,476.16c16.44,5.4,30,.36,40.44-15.36q5.58-8.46,11.52-16.56l.12-.72.48-3.36a4.38,4.38,0,0,1,1.32-2.4l1.08-.72,3.84-2.52c4.68,13.68,1,26.88-10.92,39.6A89.34,89.34,0,0,1,235.2,493.8c-13,6.24-21.84,2.76-26.76-10.32a151.48,151.48,0,0,1-9.48-45.6Q195.54,374,195.6,309.6q0-64.8,5-129.24a166.85,166.85,0,0,1,19.68-67A56.9,56.9,0,0,1,240.24,92,1.94,1.94,0,0,1,241.32,91.68ZM351.24,426.36h.36l-.24.24v.12Zm16-306.48-.72-.24a8,8,0,0,1-3.36-4.68l-.84-2.4c-11.28-7.56-23.4-7.92-36.48-1.08-15.72,16-23.88,35.76-24.72,59.16l-1.8,47.16q-1.44,32.22-2.16,64.44L342,261.12c5.64,4.92,5.88,10.68,1,17.28l-.72.84a2.62,2.62,0,0,1-3.48-.48c-12.6,5.28-25.32,10.44-38.16,15.36-1.44.84-2.76.84-3.84-.24l-.84,52.2q-.18,32.22-1.44,64.08-1.26,32.22,22.68,50.64c2.52,1.92,5.64,2.64,9.6,2,15.36-2.28,26.4-10.32,33.24-24.12l.36-.12a1.8,1.8,0,0,0,1.32-1.68,19.6,19.6,0,0,1,1.44-6.48l-.36-.84.48-.36a6.1,6.1,0,0,1,4.2-2c4.2,16-.84,30.24-15,43.08a50.83,50.83,0,0,1-14.76,9.48,67.87,67.87,0,0,1-24.6,1.56c-20.52-21.48-29.52-48.12-27-79.68,1.56-21,2.64-42.36,3.12-64,.84-43,2.52-85.92,4.8-129,1.08-20.16,2.76-40.2,4.8-60.24,1.92-18.84,9.6-34.44,23.16-46.8a34.65,34.65,0,0,1,20-9.12l11.4.6a25.33,25.33,0,0,1,15.24,16.08A11.25,11.25,0,0,1,367.2,119.88Zm83.88-15.72a180.74,180.74,0,0,1-43.32.84c.36,11.88.36,24.12.24,36.84L406.32,254a84.42,84.42,0,0,1,35.28-11.88,30.62,30.62,0,0,1,9.12,2.16l.84.6a14.21,14.21,0,0,1,1.8,8.88,16.14,16.14,0,0,1-1.8,5.76,99.14,99.14,0,0,0-45.48,6.24l-.12,5q-.72,48.78-4.08,96.6-4.14,60.3-9.6,120.12l-3.48.84a151.65,151.65,0,0,1-1.08-47.88,1098.45,1098.45,0,0,0,8.64-129c.48-43.32,1.08-86.28,1.92-129.12.6-26.76,2-53.4,4.32-79.68.36-4.2,1.92-7.08,4.92-8.88l.12,2.28a255,255,0,0,1,43.08-5.76c3,4.08,3.24,8.4,1,13Z" transform="translate(-63.27 -77)"/></svg>