<svg id="Layer_1" data-name="Layer 1" xmlns="http://www.w3.org/2000/svg" viewBox="0 0 477.22 340.72"><defs><style>.cls-1{fill-rule:evenodd;}</style></defs><path class="cls-1" d="M321.12,270.24l19.56-101.76,7.56,96ZM139.2,168q7.38,31-8.64,58.56Q112,259,76.32,268.92l4.92-38.28a661.69,661.69,0,0,0,6.24-118.08Q128.7,124.26,139.2,168ZM82.44,100.92a2.47,2.47,0,0,0-1.8.36,5.16,5.16,0,0,0-1.8,4.56,17.05,17.05,0,0,0,1,4.8L85.32,112c-1.56,13.56-2.88,27.12-4,40.92q-4.68,59-11.76,117.72l-8.16,1.32-.72,1.68a17.85,17.85,0,0,0-.84,5.64,7.88,7.88,0,0,0,2.4,5.76l5.52-.84a1172.27,1172.27,0,0,0-8.28,123.6c-4.32,6.12-3.72,11.76,1.68,17l3.24-1.08,4-65.76C70,332.88,72,307.8,74.76,282.72c13.92-3.24,25.8-8.52,35.76-15.84a207,207,0,0,0,3.72,20.64l29.16,124c2.76,11.76,7.2,21.84,13.44,30.12a5.13,5.13,0,0,0,2.4-6c-2.88-13.92-6.12-27.84-9.84-41.88-4.2-16.2-8.16-32.4-11.76-48.72a727.12,727.12,0,0,0-22.92-81.36c13.32-11.4,22.56-26.88,28-46.56a118.55,118.55,0,0,0,1.56-56.16Q133.62,110.7,84.36,102.6l-.24-.36Zm137.64,53.52A78.15,78.15,0,0,0,191.76,189a172.21,172.21,0,0,0-11.88,40.92c-2.52,15.24-4.44,30.48-5.88,45.6-1.32,14.64-1.92,29.28-2,44a156.47,156.47,0,0,0,6.12,44.88c4.44,15.24,13.44,26.28,27,32.88,13.32,6.48,27.12,6.24,41.16-.6a75,75,0,0,0,32.52-30.36A40.65,40.65,0,0,0,284,343.68a154.31,154.31,0,0,1-35.4,32.4A69.87,69.87,0,0,1,221,387.24a19.37,19.37,0,0,1-13.44-1.92A43.14,43.14,0,0,1,190.8,370a64.83,64.83,0,0,1-9-20.88,188.79,188.79,0,0,1-3-68.76,211.9,211.9,0,0,0,67.44-.48l1.8-10.32-4.56-2.4a215.39,215.39,0,0,0-63.84,4.2,219.25,219.25,0,0,1,22.44-80.88,51.1,51.1,0,0,1,30.24-26.64,80.35,80.35,0,0,1,15-3.6,53.09,53.09,0,0,1,12.24,6.12,5.59,5.59,0,0,1,2.28,2.76,7.79,7.79,0,0,0,1.08-4.56,10.88,10.88,0,0,0-1.56-4.56l-1-1.92-.36-.84C248.4,145.08,235.08,144.24,220.08,154.44ZM355.56,270l-.12-1.32q-3.78-38.88-6.6-77.76A477.92,477.92,0,0,0,343,142.44a202.33,202.33,0,0,0-.72-20.88,22,22,0,0,0-4.08,8.4l-.48,2.64v.12q-10.44,63-21.6,126t-23.28,126a132,132,0,0,1-6.24,22.68c-4.44,11.88-4.56,22.44-.36,31.44a7.8,7.8,0,0,0,2-3.24,746.71,746.71,0,0,0,17.64-77.76l13.32-77a49.84,49.84,0,0,0,30.36-1.92l1.2,11.16a1173.11,1173.11,0,0,0,20.16,126.6c-3,8.64-1.56,15.36,4.08,20.28A42,42,0,0,0,377.4,407a597.08,597.08,0,0,1-16.8-88.32C358.8,302.52,357.12,286.2,355.56,270Zm47-73.92a564.59,564.59,0,0,0-22.44,125.28c-1.32,21.72,4.32,40.68,16.92,57.12a13.16,13.16,0,0,0,9.48,5.4q33.3,3.78,61.2-18.24a41.74,41.74,0,0,0,7.92-13.32,7.45,7.45,0,0,0-1.68-8.64,110.29,110.29,0,0,1-20.76,14.4,85.54,85.54,0,0,1-30.84,9.6c-21.84,2.4-32.76-7.68-32.88-30.24q-.18-39.78,3.48-79a169.78,169.78,0,0,1,12.6-51.24q15.84-38.16,56.52-26.16a1.53,1.53,0,0,1,.84.6l1.08,1.08.84.12a14.65,14.65,0,0,0,.12-3.24l-.48-3.24-.24-.72-.48-.84c-6.12-7.92-14.52-11.4-25.44-10.32A50.39,50.39,0,0,0,413,178.44,41.17,41.17,0,0,0,402.6,196.08Zm130.2-63.72a12.47,12.47,0,0,0-4.56,9.12c-3.72,40.92-7.8,82-12,122.88a112.67,112.67,0,0,1-23.64,6.36l1.2-11.28A841.23,841.23,0,0,0,498.12,132q-6.84,57.42-11.64,117.6-5.22,63.9-13,127.44a205,205,0,0,0,1.92,64.2,1.62,1.62,0,0,0,2.28-1.56L482,387q4.14-52.56,9.48-105c8.64,2,16.32,1.08,23.16-2.88-4,39.24-7.68,78.48-11,118q-1.26,15.3,6.12,23.4a3.71,3.71,0,0,0,1.32-2.4c1.08-9.36,2-18.84,2.64-28.32q4-58.5,8.88-117l.72-.84.24-.84a7.82,7.82,0,0,0-.36-5.76l.36-3.24c3.72-42.6,7.08-85,10.32-127.32l-.36-.84Z" transform="translate(-56.66 -100.88)"/></svg>