<svg id="Layer_1" data-name="Layer 1" xmlns="http://www.w3.org/2000/svg" viewBox="0 0 595.57 842.18"><defs><style>.cls-1{fill:#fff;}.cls-2{fill:none;stroke:#fff;stroke-linecap:round;stroke-linejoin:round;stroke-width:0.38px;}.cls-3{fill-rule:evenodd;}</style></defs><rect class="cls-1" x="0.31" y="0.31" width="595.08" height="841.68"/><rect class="cls-2" x="0.19" y="0.19" width="595.2" height="841.8"/><path class="cls-3" d="M283.8,252.48l3.72-3-1.08-2.4c16.08-3.84,25.8,4.44,29.28,25,2.88,17.16-2.52,30-16.32,38.76-10,6.12-16.44,4.2-19.44-5.88a69.87,69.87,0,0,1,1.32-45.84Zm-8.16,5.4-3.84,12.84a80.89,80.89,0,0,0-1.68,37.08c3.72,19.56,14.52,26.52,32.64,20.88q30.06-33.12,15.84-76.32c-4.56-13.8-13.32-22.08-26.4-24.84a28.65,28.65,0,0,0-7.8,4.08C275,238.44,272.16,247.2,275.64,257.88Zm-46.2-59.76A200,200,0,0,0,220.32,219q-13.14,34.74-24.72,70.08V289c-3.72-7.2-7.2-14.52-10.56-21.84-4.44-9.36-8.28-19-11.76-28.68a186.06,186.06,0,0,0-20.64-41.16c-2,1.44-2.88,3.72-2.52,6.72a32.38,32.38,0,0,0,2.52,9.6q18.54,45,38.4,89.88c-4,12.6-7.68,25.08-11.28,37.68A189.38,189.38,0,0,1,168.48,371c-5.76,11.88-5.76,22,.12,30.48A388.25,388.25,0,0,0,186.84,349,1054.35,1054.35,0,0,1,227,228.24c4.44-10.68,6-21.12,4.8-31.2h-.24Zm23.76-1.56c-1.32,11.4-2.4,23.16-3.24,35.52q-4,63.18-2.16,126.72a65.31,65.31,0,0,0,8.52,30.84q13.14,22.86,37.08,14,25.38-9.36,34.56-34.2A279.32,279.32,0,0,0,345.6,262.2c-.36-10.92-.48-21.72-.48-32.4,0-12.6-2.88-23.16-8.52-31.68q-5.94,6.3-4.32,15.48a369.27,369.27,0,0,1,3.12,108.48q-3.42,30.6-24.48,52.44c-12.72,13.2-26.76,16.92-42,11a11.72,11.72,0,0,1-7.68-8.52,247.37,247.37,0,0,1-6.6-84.84,472.51,472.51,0,0,0-.84-95.76Zm179.16,22.2c1-10.2-1.08-18-6.24-23.4Q412.62,256.74,395,317.64v-1.08q-4.32-61.74-12.48-121.68c-4.44,6.36-7.2,14-8.52,23.28Q365,281.7,354.24,345A202.88,202.88,0,0,1,346,376.8q-5.22,14.4,1.44,24.48a335.85,335.85,0,0,0,11-44.88q11-64.26,22.56-125.88c2.28,29.28,3.84,58.56,4.92,87.72a83.77,83.77,0,0,0,5.88,28.92,498.45,498.45,0,0,0,33-108.24l1.32,10.56Q434.94,313,438.24,377c.6,10.2,3.6,17.76,9,22.56a49.85,49.85,0,0,0,2-22C444,335.52,438.6,293.28,433,251.16A153.68,153.68,0,0,1,432.36,218.76Z" transform="translate(0.19 0.19)"/></svg>