<svg id="Layer_1" data-name="Layer 1" xmlns="http://www.w3.org/2000/svg" viewBox="0 0 595.57 842.18"><defs><style>.cls-1{fill:#fff;}.cls-2{fill:none;stroke:#fff;stroke-linecap:round;stroke-linejoin:round;stroke-width:0.38px;}.cls-3{fill-rule:evenodd;}</style></defs><rect class="cls-1" x="0.31" y="0.31" width="595.08" height="841.68"/><rect class="cls-2" x="0.19" y="0.19" width="595.2" height="841.8"/><path class="cls-3" d="M300.6,402.84c1.32-25.08,2.88-50.4,4.56-76.2a914.79,914.79,0,0,0-.84-128.28,308.57,308.57,0,0,0-4.56,53q-.18,64.26-4,128.28C295.2,389.16,296.88,397,300.6,402.84ZM229.68,197a676.7,676.7,0,0,0-37.08,97.32,461,461,0,0,0-37.32-96.6c-4.08,11.28-2.16,23.76,5.88,37.56A172.86,172.86,0,0,1,178,274.68a118.49,118.49,0,0,0,12.24,28q-12.6,40.68-23.76,81.48a16.87,16.87,0,0,0,.36,10.32l1.8,4.68q24.12-82.62,54-163.32a147.42,147.42,0,0,0,6.72-23.64A45.56,45.56,0,0,0,229.68,197ZM389.4,283.92l-3.12-76.68a135.43,135.43,0,0,1,41.4,17,45.11,45.11,0,0,1,18,20.4c-2.28,15-10.08,25.68-23.16,32A86.9,86.9,0,0,1,391,285.24ZM385,206c-2.28,37.32-3.72,75.48-4.32,114.24a386.25,386.25,0,0,1-3.72,48.6c-1.68,12.6-.12,23,4.8,31.56A646.42,646.42,0,0,0,388.2,325l.48-24.48.36.36q36.18.54,53.52-29,18.9-32.22-8.28-56.76a28.88,28.88,0,0,0-7.8-5,402.76,402.76,0,0,0-39.84-14h-.72l-.36.24a4.4,4.4,0,0,0-1.2,2,19.35,19.35,0,0,0,.36,7.44Z" transform="translate(0.19 0.19)"/></svg>