<svg id="Layer_1" data-name="Layer 1" xmlns="http://www.w3.org/2000/svg" viewBox="0 0 297.88 208.89"><defs><style>.cls-1{fill-rule:evenodd;}</style></defs><path class="cls-1" d="M303.72,196.2l-2.64,110c-.6,21.72-1.56,43.32-3.12,64.92-.84,12,.72,22.56,4.56,31.68a3.18,3.18,0,0,0,1.44-2.4A509,509,0,0,0,308,325q-.54-32.58,1.8-64.8a200.46,200.46,0,0,0-5.52-64.2C304,195.84,303.72,195.84,303.72,196.2Zm-65.4,3a53.65,53.65,0,0,0-12.48,19.68c-10.44,28.2-19.92,56.88-28.2,85.8A422.66,422.66,0,0,0,155,196.44c-1.08-.12-1.44.36-1.32,1.44A215.58,215.58,0,0,0,173.28,254a164.75,164.75,0,0,1,13.56,37A122.53,122.53,0,0,0,195,314.16c-2.64,9.12-5.16,18.24-7.44,27.48A169.2,169.2,0,0,1,176.76,372q-8.1,17.28-.36,30.6A645.66,645.66,0,0,0,202.56,322,1122.31,1122.31,0,0,1,240.48,201.6l-.36-.72Zm210.24-2.76a305.83,305.83,0,0,1-23.52,39,345.27,345.27,0,0,0-24.84,31.2L378,298.44c-8.76,12.6-12.12,25.68-10.32,39.24,4.56-1.56,8.16-5,10.92-10.44,6.72-13.44,13.92-26.52,21.72-39.24q20.34,58.5,42.36,115.68a2.21,2.21,0,0,0,2-2.16,62.8,62.8,0,0,0-4.92-34.44,342,342,0,0,1-13.2-36.6,299,299,0,0,0-20.76-51.24A533.44,533.44,0,0,1,437,235.08c10-12.72,14.88-26.16,14.52-40.2l-.72.12Zm-85.44,17c.36,43-.84,85.8-3.36,128.4A271.51,271.51,0,0,1,356.64,370c-2,12.12-1,22.8,3.24,31.8a105.77,105.77,0,0,0,6-38.88,337.1,337.1,0,0,1,1.32-39.72,619.23,619.23,0,0,0-1.08-128.28c-.72-.24-1.2,0-1.32.72A83.45,83.45,0,0,0,363.12,213.48Z" transform="translate(-153.7 -194.79)"/></svg>