<svg id="Layer_1" data-name="Layer 1" xmlns="http://www.w3.org/2000/svg" viewBox="0 0 297.54 208.92"><defs><style>.cls-1{fill-rule:evenodd;}</style></defs><path class="cls-1" d="M297.6,254.88C312.24,257.64,321.72,266,326,280.2l.12.72Q312.66,322.68,289.8,296c-5.64-6.6-7.44-14.28-5.28-23a33.79,33.79,0,0,1,9.36-16.44l1.56-.48Zm-6.48-9.48-2.52,5.16c-8.52,13.32-11.76,28.08-9.6,44.28,2.76,20.28,12.6,28.2,29.4,23.76a25.07,25.07,0,0,0,15.72-13c7.68-14.4,8.28-29,1.68-44-5.16-11.64-13.8-19.2-26-22.68Zm-60.84-47.16a48.94,48.94,0,0,0-10.2,19.68L200.52,292.2A880.19,880.19,0,0,0,155,195.12c-2,1-2.64,2.76-1.56,5.28q19.26,48.42,42.48,96.12a2.56,2.56,0,0,0,2.76,1.8L186.6,341.88a207.81,207.81,0,0,1-11,30c-5.16,11.16-5.64,21.6-1.32,31.32a289.53,289.53,0,0,0,18.36-50.76q16-62.1,34.44-123.12c3.24-10.92,4.56-21.24,3.72-31.2ZM253.44,213c-1.8,42.84-2.52,85.92-2,129a59.87,59.87,0,0,0,9.24,31.68c10.68,17.16,26.16,20.16,46.68,9.12C331,370,344.88,349.68,349,321.72a330.19,330.19,0,0,0-5.4-126.6q-7.74,8.1-4.32,22,16,65-7.56,126.48Q312.6,372.18,276.6,370.2a6.05,6.05,0,0,1-3.72-1.32c-13-11-19.08-25.92-18.24-44.76Q256.8,277,259.56,230c.6-11.4-.6-21.72-3.6-30.84A43.3,43.3,0,0,0,253.44,213Zm170.76.12q36,31.86,7.68,71.52c-13.32,12-29,15.6-47.4,10.8l-.6-.6c-.36-.6-.72-1.08-1.2-1.2q-1.08-44.28-4.92-87.6a228.86,228.86,0,0,0,33,2A19.49,19.49,0,0,1,424.2,213.12Zm-49-13.2-.36,2.52.36,2.4.36.84.48.12c-1.2,31.08-1.44,62.4-.72,94.2.48,21.72,0,43.32-1.44,64.92a84.48,84.48,0,0,0,3.84,32.28,2.13,2.13,0,0,0,2-2.16A688.58,688.58,0,0,0,383,324.36V312a50.32,50.32,0,0,0,24,1.8,28.3,28.3,0,0,0,12.24-4.68c24.84-16.8,34.92-40.2,30-70.08q-7.2-45.18-53.16-44.76a76.8,76.8,0,0,1-10.92,1.8,17.4,17.4,0,0,0-8,2.16l-.24-2h-.36l-.12,2.4-.84.6Z" transform="translate(-152.95 -194.28)"/></svg>