<svg id="Layer_1" data-name="Layer 1" xmlns="http://www.w3.org/2000/svg" viewBox="0 0 270.44 210.89"><defs><style>.cls-1{fill-rule:evenodd;}</style></defs><path class="cls-1" d="M212.88,214.2,191.28,298a537.09,537.09,0,0,0-33.84-103.08,3.06,3.06,0,0,0-3.36,3.24,39.83,39.83,0,0,0,2.52,16.68A677.44,677.44,0,0,1,178,280.56,86.29,86.29,0,0,0,189.24,306l-8,31.68c-2.52,10.2-5.52,20.16-8.88,30.12-4.2,12-3.6,22.2,1.68,30.48a153.84,153.84,0,0,0,9-29.88q12.6-62.46,30.6-123.24A150.22,150.22,0,0,0,220,198.6,47.7,47.7,0,0,0,212.88,214.2Zm20.64-7.8-5.88,119.28c-1.2,23.64,4,45.12,15.36,64.2a15,15,0,0,0,5.4,2.16c11.28,7.08,20.28,5.16,27-5.64a210.15,210.15,0,0,0,32.52-109.08,598.9,598.9,0,0,0-2-64.2c-.6-7.32-3.12-12.24-7.44-14.52a3.74,3.74,0,0,0-1.08,3.12,337.39,337.39,0,0,1-6.24,125.64c-2,8.52-4.32,16.8-6.72,25.08-4.92,16.44-15,25-30.36,25.56a15.85,15.85,0,0,0-7.32-4.08c-9-15-12.84-31.68-11.52-50.28a1207.72,1207.72,0,0,0,2-128.28A17.68,17.68,0,0,0,233.52,206.4ZM391,380.4c-1-5.4-3.24-9-6.72-11-4.92,11.88-2.28,22.08,7.8,30.84a24.36,24.36,0,0,0,20.28-6.84,21.24,21.24,0,0,0,6.6-12.36,358.9,358.9,0,0,0,1.32-116.64,372.83,372.83,0,0,0-2,82.92c1.68,19.92-6.36,31.68-24.24,35.28A13.66,13.66,0,0,0,391,380.4Zm31.68-154.68c-.36,0-.6,0-.72.12-5,7.56-5.4,15.36-1,23.16l.84-.72A30,30,0,0,0,422.64,225.72Zm-26.52-36.24h-.6a269.06,269.06,0,0,0-76.8,11.28,13.25,13.25,0,0,0,.36,9.6l.72,1,47.64-4.08c.12,42.12-1.08,84.12-3.72,125.76-.72,10.8-1.92,21.6-3.48,32.28-1.8,11.88-.6,22.68,3.36,32.4a2.15,2.15,0,0,0,2.16-2.16c3-22.68,5.16-45.72,6.24-68.88q2.88-60.48,0-119.76l49.32-3.36a14.12,14.12,0,0,0,.48-12.24l-.48-.72c-.36-.36-.6-.48-.84-.48C412.32,189.72,404.16,189.48,396.12,189.48Z" transform="translate(-154 -189.48)"/></svg>