<svg id="Layer_1" data-name="Layer 1" xmlns="http://www.w3.org/2000/svg" viewBox="0 0 287.34 206.76"><defs><style>.cls-1{fill-rule:evenodd;}</style></defs><path class="cls-1" d="M322.56,200.28a402.2,402.2,0,0,0,2.88,69.84,14.91,14.91,0,0,0-.72,5.64,155,155,0,0,1-20.28,79.8c-9.48,16.68-23.16,25.8-41.16,27.24-11.64-16.56-16.8-35.52-15.24-56.88a1272.94,1272.94,0,0,0,3.24-128.16,47.46,47.46,0,0,0-3.48,16.8q-3.06,60.84-6.48,121.68-2.16,38,21.6,64.2l10.32.84a87,87,0,0,0,41.4-41A167.07,167.07,0,0,0,331.56,295c1.08-21.24,1.2-42.72.36-64.2-.6-12.36-3.36-22.92-8.28-31.92A2.85,2.85,0,0,0,322.56,200.28Zm-90.72-4.68a424.58,424.58,0,0,0-31.08,85.68,764.87,764.87,0,0,1-45.48-86.76l-1.8,1q1.8,33.66,22.2,65.76c5.88,9.24,11.76,18.72,17.52,28.44l3.36,5.64a432.79,432.79,0,0,0-24,94.2,13.39,13.39,0,0,0,1.56,8.28l1,1.56q22.86-82.44,50.52-163.56a115.89,115.89,0,0,0,5.76-28.68Zm129.48,109a950.59,950.59,0,0,0-1.8-107.88,236.35,236.35,0,0,0-4.68,49.8,904.89,904.89,0,0,1-8.76,128.88c-1.32,10.2.48,18,5.64,23.4a673.69,673.69,0,0,0,8.64-73.8l.48-9.24a21,21,0,0,0,2.76,5.76q15.48-22.32,31.32-44.4a727.23,727.23,0,0,0,37,121.2c3.12-3,4-6.84,2.52-11.64q-18.18-58.14-34.92-116l29.88-40.92c8.28-11,12-22.44,11.4-34.08q-26.1,36.9-53.64,74.16c-6.24,8.28-12.72,16.44-19.32,24.36A33.55,33.55,0,0,0,361.32,304.56Z" transform="translate(-153.48 -194.52)"/></svg>