<svg id="Layer_1" data-name="Layer 1" xmlns="http://www.w3.org/2000/svg" viewBox="0 0 301.71 207.24"><defs><style>.cls-1{fill-rule:evenodd;}</style></defs><path class="cls-1" d="M305.16,383.4c.12-19.44.72-38.88,1.8-58.44a993.37,993.37,0,0,0-1.56-128.28,206.49,206.49,0,0,0-4.92,44.16q-.54,64.44-3.6,128.88c-.6,12.24,1.32,22.8,5.64,31.8A24.43,24.43,0,0,0,306.84,386l-.36-.48A3,3,0,0,1,305.16,383.4ZM153.48,207A150.14,150.14,0,0,1,184,256a246.28,246.28,0,0,0,21,42.12q-9.72,28.62-17.88,57.84a74.33,74.33,0,0,1-5.76,14.64c-6.12,11.88-6.36,22.08-.84,30.72,11.76-32.76,22.8-66.12,33-100.32a445.06,445.06,0,0,1,22.68-60.36c7.08-15.36,10.32-30.84,9.72-46.32-6.12,12.6-11.88,25.8-17.4,39.6q-10.62,26.28-19.8,53a100.27,100.27,0,0,0-3.84-10,361,361,0,0,0-48.48-80.52,2.56,2.56,0,0,0-2.76,1.8A11.64,11.64,0,0,0,153.48,207ZM389,206.16Q366,227.94,360.12,260q-12.24,64.8,12.12,124.56a12.82,12.82,0,0,0,8.4,7.92q37.8,11.52,62.88-18l2-2.52a75.19,75.19,0,0,0,2.52,29.52c.48-.12.72-.36.72-.6A251.63,251.63,0,0,0,454,333.6L425.64,336a9.6,9.6,0,0,0-2.76,10.56l22.68,1.2Q433,378,397.2,378.84a15.24,15.24,0,0,1-9.48-2.64c-13.32-9.36-20.88-23-22.68-40.92a223.6,223.6,0,0,1,11.16-97.56c4.2-12.12,12.6-20.28,25-24.48,19.92-6.6,36.48-2.16,49.56,13.56a5.08,5.08,0,0,0,.6-4.68c-6.24-19.32-20.64-28.44-43.32-27.6A52.67,52.67,0,0,0,389,206.16Z" transform="translate(-152.68 -194.28)"/></svg>