<svg id="Layer_1" data-name="Layer 1" xmlns="http://www.w3.org/2000/svg" viewBox="0 0 301.69 208.2"><defs><style>.cls-1{fill-rule:evenodd;}</style></defs><path class="cls-1" d="M151.8,195a70.41,70.41,0,0,0,8,32c5.88,11.52,11.76,23.16,17.4,34.8a290.83,290.83,0,0,0,17.52,31.68l2.64,4.2c-8.28,25.32-16.2,50.52-24,75.84a58.21,58.21,0,0,0-2.28,11,74.27,74.27,0,0,0-.12,16.32l66.48-203.4c-8.16.72-14,9.48-17.64,26.16a402.86,402.86,0,0,1-11.76,41.88l-7,20.76L154,192.72Zm155.52,14.4c20.52,26.4,31.2,56.76,31.8,91q.54,36-24.84,60.72a48.17,48.17,0,0,1-36.6,14.28,13.57,13.57,0,0,1-10.2-4.8q-18.36-21.78-20.88-51.48a219.24,219.24,0,0,1,3.24-58.92q7.74-39.6,44-52.56A27.21,27.21,0,0,1,307.32,209.4Zm-13-14q-31.14,6.12-42,36Q230,293.28,246.84,357.84a53.55,53.55,0,0,0,17.4,28.2c8.88,7.56,18.48,8.76,28.92,3.72a88.75,88.75,0,0,0,27.48-21q30.6-34.74,26.16-82.68a216.79,216.79,0,0,0-15.72-63c-4.8-11.4-11.76-20.16-21-26l-1.68,1.44-.72.36-1.2-.48A59.68,59.68,0,0,0,294.36,195.36Zm69,14.4a917,917,0,0,1-5.64,127.32c-1.32,10.92-3.12,21.6-5.4,32.16-2.64,12.48-1.44,23,3.48,31.68l1.56-2.4.36.6a857.42,857.42,0,0,1,93-.36l.72-.84a13.83,13.83,0,0,0,1.68-10.44l-.24-.84-.84-2.4-.48-.84a1.93,1.93,0,0,0-.84-.48c-19.56-1.8-39.12-2.64-58.92-2.52a2.17,2.17,0,0,1-1.68.48,184.63,184.63,0,0,0-27,3.48,13.71,13.71,0,0,0-3.12,1.08l-1-4c2.52-18.84,4.8-37.68,6.84-56.76a611.21,611.21,0,0,0,.24-128.28,1.27,1.27,0,0,0-1.56,1.08A53,53,0,0,0,363.36,209.76Z" transform="translate(-151.8 -192.72)"/></svg>