<svg id="Layer_1" data-name="Layer 1" xmlns="http://www.w3.org/2000/svg" viewBox="0 0 595.57 842.18"><defs><style>.cls-1{fill:#fff;}.cls-2{fill:none;stroke:#fff;stroke-linecap:round;stroke-linejoin:round;stroke-width:0.38px;}.cls-3{fill-rule:evenodd;}</style></defs><rect class="cls-1" x="0.31" y="0.31" width="595.08" height="841.68"/><rect class="cls-2" x="0.19" y="0.19" width="595.2" height="841.8"/><path class="cls-3" d="M311.28,198.24A83,83,0,0,0,290,196q-43.92,32.94-51.6,88-7.38,52,17.88,96.24A21.56,21.56,0,0,0,268,389.88c27.48,9.72,48.12,1.68,61.68-24.12a147.91,147.91,0,0,0,15.84-52.32c3.84-36.84-2.88-71.16-20-103.2l-7-8a13,13,0,0,0-5.76-4.08Zm-7.44,10.44c11.28,9.48,19.68,21.6,25.32,36.24a138.85,138.85,0,0,1,9.24,45.24,153.08,153.08,0,0,1-5.64,47.16,56.91,56.91,0,0,1-26.52,34.92c-15,9-28,7.92-38.76-3.48a82.24,82.24,0,0,1-21-38.88,107.74,107.74,0,0,1-1.44-43.8,189.71,189.71,0,0,1,12.36-42c6.6-15.48,17.52-26.4,32.52-32.52A34.85,34.85,0,0,1,303.84,208.68Zm-72.6-10.56q-18.36,48.78-32,99.6A1007.43,1007.43,0,0,0,156.36,193.8c-.84-.24-1.32,0-1.32.72a85.1,85.1,0,0,0,10.08,40.68,346.33,346.33,0,0,1,19.56,45.12A74,74,0,0,0,197.52,304L193,321.6c-2.52,10.2-5.4,20.28-8.76,30.12-5.4,15.84-7.08,31.2-5,46,4.08-4.2,6.72-9.72,8-16.68a1199.68,1199.68,0,0,1,30.36-123.72,318.14,318.14,0,0,1,10.8-30c4.68-11,6.6-21.6,5.88-31.68A3.42,3.42,0,0,0,231.24,198.12Zm196.56,2.64c-17.4-4.92-31.32-.48-41.76,13.2a101.23,101.23,0,0,0-17.76,39.12,363.42,363.42,0,0,0-7,43.92,350,350,0,0,0-1.68,44.88,63.86,63.86,0,0,0,16.92,42.36c11.4,12.48,25.32,17.16,42,14,12.24-2.28,20.88-9,25.92-19.92l1.2,24.84,2.52-.12a186.43,186.43,0,0,0,2.52-62.16l-21.36,3.48v8.16l18.12,1.56L445.68,366l-.84-5.4a40.53,40.53,0,0,1-38.4,21.12A45,45,0,0,1,392.16,379a24.93,24.93,0,0,1-10.68-7.56c-12-14.28-17.76-30.84-17.4-49.68a175.27,175.27,0,0,1,27.24-91.56c5.76-9.24,14-14.28,25-15.36a38.53,38.53,0,0,1,28.8,9,14.37,14.37,0,0,0-2.64-11.4,46.46,46.46,0,0,0-11.16-11Z" transform="translate(0.19 0.19)"/></svg>