<svg id="Layer_1" data-name="Layer 1" xmlns="http://www.w3.org/2000/svg" viewBox="0 0 302.28 205.92"><defs><style>.cls-1{fill-rule:evenodd;}</style></defs><path class="cls-1" d="M174,391.92a41.86,41.86,0,0,0,2.4,6.84q16.74-53.28,32.4-107.28,10.08-34.74,17.76-69.72a87.69,87.69,0,0,0,2-23.16,1051.1,1051.1,0,0,0-33.36,104.76,408.54,408.54,0,0,0-25.68-75.48c-5-11.16-10.56-22.08-16.68-32.76C153.48,209,157.2,223,164,237a222,222,0,0,1,16,42.84,97.66,97.66,0,0,0,13.32,30q-8.64,34.74-19,69A24.21,24.21,0,0,0,174,391.92ZM299.76,196.44c-31.44,11.16-50.64,33.24-57.72,66a306.31,306.31,0,0,0-6.36,76.44c.84,21.72,9.48,39,25.68,52a19.27,19.27,0,0,0,13,4.56q35.82-.18,51.36-33,28.26-60.48,16.92-125.52c-3.24-18.24-11.4-32.76-24.48-43.68A57.84,57.84,0,0,0,299.76,196.44Zm-7.08,17.64a32.38,32.38,0,0,1,25.44-1.56,2.45,2.45,0,0,1,1.08.6,110.24,110.24,0,0,1,18.72,64.2,178.53,178.53,0,0,1-7.68,48.36,119.46,119.46,0,0,1-15.72,32.16,46.46,46.46,0,0,1-24.84,18.24q-18.18,5.58-28.44-9-21.6-30.24-20-68a111.26,111.26,0,0,1,17.28-55.56,102.46,102.46,0,0,1,28.8-30ZM429,249.84c19.56,28,24.24,58.68,13.8,91.92a35.7,35.7,0,0,1-8.28,13.8q-27.72,28.26-67.2,25.32A128.85,128.85,0,0,0,369,362.52q.54-17.82,1.44-36.36c2-37.56,2.28-74.88.72-112.2l.6.6Q407.94,220,429,249.84Zm-55.68-49.32-2.52,2-.36-4.8L359.76,386h-4.2l4.44,3.24,3.12,9.84.84-2.76a76.75,76.75,0,0,0,32.64.24,83.85,83.85,0,0,0,18.48-6.12l7.44-3.48a18.8,18.8,0,0,0,7-5.64c17.16-22,25.68-47,25.68-75a131.62,131.62,0,0,0-7.8-44.16,100.7,100.7,0,0,0-23.76-37.44,89.49,89.49,0,0,0-33.12-21,17.13,17.13,0,0,0-2.64-1Z" transform="translate(-152.88 -193.2)"/></svg>