<svg id="Layer_1" data-name="Layer 1" xmlns="http://www.w3.org/2000/svg" viewBox="0 0 293.03 211.42"><defs><style>.cls-1{fill-rule:evenodd;}</style></defs><path class="cls-1" d="M279.12,329.76l7.56-11.28,2.76,9.6Zm61.08-35.28a94.3,94.3,0,0,1-16.56,62.28q-20.7,30.06-56.28,28.8a131.15,131.15,0,0,1-14.64-10,32.26,32.26,0,0,1-8.16-9.84A164.39,164.39,0,0,1,235,282q8.46-58.86,65.88-68.76A126.62,126.62,0,0,1,324,242.52,121.9,121.9,0,0,1,340.2,294.48Zm-53.88,7.92a254.86,254.86,0,0,0-25.68,49.44,4.84,4.84,0,0,0,.12,4.08c5.4-2.76,9.72-8.16,12.84-16.08l19.08-3.12,14.64,23.16c.12-10.8-2.88-21.48-9.12-31.92A88.49,88.49,0,0,1,289,307.44Zm-20.64-91a53.62,53.62,0,0,0-18,20q-30.42,58.5-17,123.84a66.15,66.15,0,0,0,20.88,37.08q23.58,21.42,49.68,2.52c27.6-20,42.72-46.92,45.48-80.4q5.58-67.5-41.52-115.32A71.24,71.24,0,0,0,265.68,211.44Zm-39-10.68a84.52,84.52,0,0,1-7.56,14.64c-10.2,27.24-19.68,54.6-28.32,82.32a699.11,699.11,0,0,0-22.2-70.8,86.05,86.05,0,0,0-17-28.8c-1.8,1.08-2.28,2.88-1.44,5.16C160.32,232,170,260.76,179,289.92a139,139,0,0,0,7.92,20.4l-6.72,22.44a253,253,0,0,1-10.92,30.36c-5.76,13.32-7.56,26.4-5.28,39a2.2,2.2,0,0,0,1.32-1.44q20.16-54,35.52-110a428.21,428.21,0,0,1,21.48-60.24,84.75,84.75,0,0,0,7.56-31.2A5.86,5.86,0,0,0,226.68,200.76Zm183.6,61.56a52.27,52.27,0,0,1-34,21.84l-5.52,1.2L368,207.24c16.92-5.64,30.6-1.32,41.16,12.84S420,248.28,410.28,262.32ZM367.44,198.6,367.2,194c-2.52,2.52-3.84,6-3.72,10.56q.54,42.12-.12,84.12l-.12.6a12.83,12.83,0,0,0-.24,4.8l.24,1.2-1.08,38.28a241.31,241.31,0,0,1-3.24,32.16c-2,12.12-1,22.8,3.12,31.92a431.28,431.28,0,0,0,8.4-75.48l.36-23.76a37.14,37.14,0,0,0,21-6.84A62,62,0,0,0,403,285.12a59.74,59.74,0,0,1,21.6,12.48l4.56,10.08A113.47,113.47,0,0,1,438,348a56.61,56.61,0,0,1-5.28,16.92,14.44,14.44,0,0,1-4.32,5.28q-26.1,19.62-59.88,9.36a7.1,7.1,0,0,0-2.4,5.4,21.38,21.38,0,0,0,1.32,7.32,52,52,0,0,0,22.2,4.8,66.91,66.91,0,0,0,22.56-3.72c20-6.84,30.12-21,30.48-42.72.12-6.84.12-13.68-.24-20.4q-1.8-36.54-32.4-51.12c10.44-10.44,14.88-24.36,13.56-41.52-2.16-27.24-17-42.24-44.76-45.24C373.56,192.48,369.72,194.64,367.44,198.6Z" transform="translate(-149.72 -192.36)"/></svg>