<svg id="Layer_1" data-name="Layer 1" xmlns="http://www.w3.org/2000/svg" viewBox="0 0 384.04 337.68"><defs><style>.cls-1{fill-rule:evenodd;}</style></defs><path class="cls-1" d="M188,141.48Q173.1,204.3,153,265.56l-2.64,8A220.37,220.37,0,0,0,133,230.88a961.53,961.53,0,0,1-52.32-116.4c-2.76.36-3.84,1.8-3.24,4.56a430.93,430.93,0,0,0,38.88,103.32,354.48,354.48,0,0,1,25,58.56,30.14,30.14,0,0,0,4.56,7.32q-15.66,50.4-27.48,101.28a315.58,315.58,0,0,1-8.88,30.84c-4.32,12.48-3.6,23,2,31.8a17,17,0,0,0,5-9.6c4.08-23.16,9.12-46,15.24-68.64q16.74-62.1,36.6-123.72a669.55,669.55,0,0,0,27.72-124.32A35.12,35.12,0,0,0,188,141.48Zm55.2-8.4c-4.44,12.72-8.28,25.56-11.76,38.52q-14.94,56.52-29,113.4l-1.68.24a16.41,16.41,0,0,0-1.08,4.8,6.1,6.1,0,0,0,.72,3.6l-.6,2.16q-15.3,62.1-32.64,122.52-7,16,0,29.16a141.28,141.28,0,0,0,14.16-41.16c2.76-14.64,5.76-29.16,9.12-43.56q7.74-33.48,16.2-66.84a373.32,373.32,0,0,0,61.2-4.56v.36q7.74,62.28,17.64,123.72c-.6-3-1.8-5-3.6-6.36A254.94,254.94,0,0,1,292,448.92a3.48,3.48,0,0,0,3.48,1.8,2.61,2.61,0,0,0,2-2.88,712.47,712.47,0,0,0-10.92-92q-6.12-32.76-11.4-65.64l.24-.12a7.4,7.4,0,0,0,2.4-4.56,15,15,0,0,0-1.56-9.72.91.91,0,0,0-.84-.48l-2.52-.36-2.16-13.56q-9.18-63.18-21.24-125.28c-3.12,8.28-3.6,18-1.44,28.92q10.44,54.72,17.64,109.8c-18.36,3.48-37.08,6.48-56,9.24l11.52-45.36c6.84-25.92,14.16-51.6,22.2-77.16,3.48-11,4.68-21.36,3.6-30.84l-.24.24A7.13,7.13,0,0,0,243.24,133.08Zm216.24,8.16-.6.12a7.5,7.5,0,0,0-3.84,2.28,704.6,704.6,0,0,0-16.56,75.6L418.32,345.72,413,377.16a138.83,138.83,0,0,0-2.16,22c-1.92-8.76-3.72-17.52-5.52-26.4Q392.94,310.08,376.08,249l-.48.12-.6,2.76-.36-.48-1-.84a161.26,161.26,0,0,0-13,42.36q-10.26,63.18-21.48,123.24c-1.08-1-1.8-.24-2.4,2l-.72,2.64L330,382.44q-10.8-62.82-17.4-126.6a1039.43,1039.43,0,0,0-21-125.64c-3.48,3.48-4.68,8.52-3.6,14.88q10.62,62.46,17.52,125.52,7,63.54,17,126.72a284.42,284.42,0,0,1,3.6,31.68c.6,10.44,4.32,17.64,10.92,21.72l.48-.72,1.2-4,.48,1a450.25,450.25,0,0,0,16.56-69.72c6-39.48,12.12-78.6,18.24-117.6a103,103,0,0,0,2.64,31.68q14.76,62.28,26.52,124.92a81.82,81.82,0,0,0,11.88,30.48,2.27,2.27,0,0,0,.84-1.68v-5.64l.24.48c1.56.12,2.4-.72,2.52-2.4.84-13.8,2-27.84,3.36-42.12l1.08-11.16,1.44-5.76a2.52,2.52,0,0,0-.72,1l-.24,1q5.58-56.16,14.28-111.84,9.9-63.18,23.4-124.92l-.48-.72Z" transform="translate(-77.24 -114.48)"/></svg>