<svg id="Layer_1" data-name="Layer 1" xmlns="http://www.w3.org/2000/svg" viewBox="0 0 500.45 546.6"><defs><style>.cls-1{fill-rule:evenodd;}</style></defs><path class="cls-1" d="M163.32,51.12l-.36,2.4a552.57,552.57,0,0,0-25.2,81.12q-14,61.92-28.44,123.48L101,292.92a787.75,787.75,0,0,0-20.88-107l-8.4-32.16q-16.38-62.28-36.84-122c-3,9.24-2.52,19.2,1.68,30.12q16.56,44.1,28.92,89.76A1241,1241,0,0,1,92.28,274.92c1.44,8.76,4.08,15.72,7.92,21.12Q89.58,339.24,77.52,382q-17.46,61.74-30,124.68c-2,10.56-4.44,20.88-7.2,31.08-3.12,11.52-2.64,21.72,1.32,30.48a20.71,20.71,0,0,0,3.12-8.88A841.14,841.14,0,0,1,70.08,434.88q17.46-61.74,32.16-124.32L131,185.76Q145.26,123.66,163,62.52l.48-.84c3.84-5.16,5-10.56,3.48-16.2l-.48.12a23.89,23.89,0,0,1-3,4.68Zm41.52,13.56a97.84,97.84,0,0,0,3.24-20.28c-6.36,22.68-12.24,46.08-17.88,70.44q-14.4,62.46-30.36,124.44t-31.2,124.2q-15.3,62.28-31.32,124.44A382,382,0,0,1,82.44,534c-4.68,11.64-4.92,22.2-.72,31.56a5.57,5.57,0,0,0,1.56-2.4l31.8-124.32,21.36-83.76A83.54,83.54,0,0,0,171,356.52c20.64-3.36,41.16-5.76,61.44-7.08l.6,62.64q.36,63.9-.12,127.44c-.12,11.88,2.16,22.2,6.72,30.84a14.31,14.31,0,0,0,2.76-9.72c-2.4-42.6-3.72-85.44-3.84-128.28q-.18-65-1.8-129-1.62-64.62-7.2-128.4A832.52,832.52,0,0,0,209.16,49.2c-1.32,7.56-1,15.72,1,24.72a805.9,805.9,0,0,1,12.6,79.8q6.84,64.08,8.4,129.36l1.2,58.2-1.8-1.44c-31.2,2.28-62,5.16-92.52,8.88l8.52-34,31.56-124.08q16-62.28,26.52-125.16Zm220.2-14q-7.74,60.12-12,121l-9.48,126.6c-3.24,41.88-5.28,84-5.88,126.6q-.9,62.28-6.48,123.6l-.72-3.72Q379,481.14,366.72,417.84q-12.06-62.46-19.92-125.76c-1.44-12.12-4.8-22.2-10.2-30.36A316,316,0,0,0,334.08,299q-.72,63.54-4.56,126.72C327,467.4,323.4,508.56,319,549l-13.2-119.16c-4.68-42.36-10.2-84.72-16.56-126.84s-12.36-84.48-18.12-126.84a777.66,777.66,0,0,0-27.6-124l-.48-.84-1.44-1.56a99.73,99.73,0,0,0,4.32,28.68,669.25,669.25,0,0,1,19.32,90.36l17.64,126.72c5.88,42.36,11.52,84.6,16.92,127q7.92,62.82,12.72,125.76c1,12.24,4,22.2,9,30,1.56-10.92,2.88-22.08,3.84-33.24q5-63.18,9.24-126.72c2.64-41.16,4.44-82.56,5.52-124q5.58,31.5,10.44,63.24,9.54,63.54,22.8,126.72c4.44,21,7.8,42.24,10.32,63.6,1.44,12.12,4.8,22.2,10.08,30.36a14.16,14.16,0,0,0,2-6.48c3-42.36,5.16-85,6.24-127.56s3-84.72,5.76-126.6l8.88-126.72q4.68-63.18,13.08-125.64C430.8,57.84,429.24,52.92,425,50.64Zm78.6,36.84a209.34,209.34,0,0,1,21.84,61.2,235.24,235.24,0,0,1-10.32,126.48,54,54,0,0,1-10.32,17.4,96.36,96.36,0,0,1-43.08,27.72l.12-15.84q.36-64.8-.24-129.12Q460.92,113,455.28,52a111.19,111.19,0,0,1,23,7.08A83.44,83.44,0,0,1,503.64,87.48Zm25.08,50.88q-6.66-52-44.64-85.32L481.68,52a64.48,64.48,0,0,0-30.36-8.16l-.6.72a7.46,7.46,0,0,0-1.08,3.12,6.37,6.37,0,0,0,1.08,4.08h2.16c-.6,13.08-.48,26.16.12,39.24,2,42.84,3.12,85.92,3.24,129q.18,51.12-.6,102.12l-4.08,1a20.19,20.19,0,0,0-1.32,6.6,10.78,10.78,0,0,0,2.64,7.32l2.64-.72-.36,12.84q-1.26,64.62,1.32,129a389.53,389.53,0,0,1-3,64.8c-1.56,12-.24,22.56,3.84,31.8a247.1,247.1,0,0,0,4-44.64l.12-96.6.36-99.24a227.06,227.06,0,0,0,27.12-10.68,25.51,25.51,0,0,0,7.2-4.92q26.1-25.74,33-62.88a270.63,270.63,0,0,0,4.32-53.88A560.57,560.57,0,0,0,528.72,138.36Z" transform="translate(-33 -31.68)"/></svg>