<svg id="Layer_1" data-name="Layer 1" xmlns="http://www.w3.org/2000/svg" viewBox="0 0 595.57 842.18"><defs><style>.cls-1{fill:#fff;}.cls-2{fill:none;stroke:#fff;stroke-linecap:round;stroke-linejoin:round;stroke-width:0.38px;}.cls-3{fill-rule:evenodd;}</style></defs><rect class="cls-1" x="0.31" y="0.31" width="595.08" height="841.68"/><rect class="cls-2" x="0.19" y="0.19" width="595.2" height="841.8"/><path class="cls-3" d="M319.8,302.88c12.36,10,17.88,23,16.56,39-1.44,16.56-9,29.52-22.8,38.88-10.44,7.08-21.72,8.88-34.08,5.64q-20-27.18-11.52-61.32a79.74,79.74,0,0,1,10.2-23.64Q299.4,286.32,319.8,302.88Zm-54.24.24A132.39,132.39,0,0,0,259,329q-5.58,37.62,14.52,67.92a15.17,15.17,0,0,0,14,7.2q43.56-2,54.48-44.76,11.34-43.92-19-74.4l-1.56-.48a138.64,138.64,0,0,0-31.44-5C278.16,283,270,290.88,265.56,303.12Zm-113-100.56q25.38,53.82,51.84,105.6l-.12.84q-7.56,30.78-17.64,61.08c-4.08,12-3.6,22.08,1.44,30.36a24.74,24.74,0,0,0,4.8-10.32q12.78-62.82,31.32-123.6a349.35,349.35,0,0,1,13.68-37.44,60,60,0,0,0,4.8-31.56A616.26,616.26,0,0,0,206.4,300.24a603.9,603.9,0,0,0-52.2-105.12C151.44,196.44,150.84,199,152.52,202.56Zm226.32-2.28q-.72,64.26-3.6,128.16c-.6,13.56-1.68,27-3.48,40.44-1.56,12.12-.12,22.8,4.32,31.8a15.84,15.84,0,0,0,3.72-9.6l3.6-68.16.48-8.64c7.56-9.24,15-19,22.08-29A166.68,166.68,0,0,0,423.6,333.6,162,162,0,0,1,438,371.16c2.76,11.28,7.2,20.76,13.08,28.44a10.57,10.57,0,0,0,1.56-9.48,720.38,720.38,0,0,0-42.48-111c7.8-11.52,15.24-23.52,22.32-35.88A209.36,209.36,0,0,1,448,219.72c6.84-9,7.92-17,3.36-24.12-11.4,19.8-23.52,39.48-36.12,58.92A143,143,0,0,1,399,274.8c-7,7.32-11.88,15-14.64,23.28q1.62-52-1.8-103.56C380,195.12,378.84,197,378.84,200.28Z" transform="translate(0.19 0.19)"/></svg>