<svg id="Layer_1" data-name="Layer 1" xmlns="http://www.w3.org/2000/svg" viewBox="0 0 595.57 842.18"><defs><style>.cls-1{fill:#fff;}.cls-2{fill:none;stroke:#fff;stroke-linecap:round;stroke-linejoin:round;stroke-width:0.38px;}.cls-3{fill-rule:evenodd;}</style></defs><rect class="cls-1" x="0.31" y="0.31" width="595.08" height="841.68"/><rect class="cls-2" x="0.19" y="0.19" width="595.2" height="841.8"/><path class="cls-3" d="M227.88,65.76q-14,43.38-25,88.8-15.12,62.1-31.56,124.08l-21.72,80.64-.24.12-.24,1.56v.6l-11,40.56q-16.92,61.74-29.88,124.44a97.22,97.22,0,0,1-4.56,15.6c-4.56,11.88-5,22.32-1.44,31.44a54.86,54.86,0,0,0,7.44-19.32q11.34-62.46,27.6-124.56L154.56,364a569.33,569.33,0,0,0,98.16-13.32q2.34,34.38,5.4,68.52c3.72,42.36,6.24,84.84,7.8,127.44.36,12.12,3,22.44,7.92,31.08a8.51,8.51,0,0,0,2.88-7.8q-7.38-63.36-11.88-127.32-4.5-63.72-8.64-127.68-4.14-64.26-11-128.16c-4.44-42.24-8.52-84.48-12-126.6l-.48-.84-.84-1.68v.6A875.15,875.15,0,0,0,238,163.44q7.38,63.18,11,127.32l2.88,48.6c-32.16,4.92-64.08,11.16-95.64,18.48l13.68-51.6q16.38-62.1,32-124.08,15.66-62.46,29.88-124A18.71,18.71,0,0,0,227.88,65.76ZM196.2,56.28c-.48-.12-.72,0-.84.36q-19.62,60.66-36.6,121.56l-22,79.68A433.23,433.23,0,0,0,87.48,163,404,404,0,0,1,32.76,48.12a2.86,2.86,0,0,0-2,3.48A191.71,191.71,0,0,0,52.32,118q26.46,49.14,55.44,97.44,14.76,24.84,27.48,48.24l-5.4,19.44q-17.1,62.64-39.12,123.6Q76.86,445,65.16,484.32q-9,30.78-19,60.84c-4,12-3.84,22.08.12,30.36,5.28-17.16,10.08-34.68,14.4-52.8A444.87,444.87,0,0,1,76.56,470.4q22.32-60.3,42-121.08Q138.36,288.3,153,226q14.58-62.1,34.2-123.24A195.69,195.69,0,0,0,196.2,56.28Zm269.16-5.16c-5.88,39.36-12.48,79.2-20,119.52Q433.62,234,422.76,297.48,412,360.3,402.48,423.24q-9.36,62.1-13.92,124.68c-4.2-34.2-8.28-68.4-12-102.72-4.68-42-10.44-84-17-125.88a592.9,592.9,0,0,1-6.72-63.48c-.48-9.72-3.12-17-7.8-21.72a796.16,796.16,0,0,1-9.24,87.72q-7.56,47-16.08,93.6-11.52,62.1-18,124.92c-1.68-35.88-3.72-71.88-6-107.76-2.64-42.12-5.52-84.36-8.52-126.48s-7.2-84-12.12-125.88A1090.74,1090.74,0,0,0,252.72,56a603.83,603.83,0,0,0,8.88,76.56Q272.76,195.24,278.4,259q5.76,62.82,8.88,125.76L294,510.6a307.39,307.39,0,0,1,.24,31.56c-.6,12.24,1.68,22.68,6.6,31.2a127.09,127.09,0,0,0,7.92-33.72c1.2-11.4,2.64-22.68,4.32-34q7.38-50.94,15.12-101.88,9.54-62.46,19.44-124.8c1.68,14.88,3.72,29.64,6.24,44.4,6.84,41.76,12.12,83.76,16.08,126s9.6,83.64,17.16,124.8l.72.72,1.8,1.44a7.72,7.72,0,0,0,3.48-6.24c1.32-15.24,2.88-30.6,4.56-46.2q6.84-63.54,16.2-126.72t20.76-125.88l22.92-125.76,11.76-62.88C471.6,70.56,470.28,60.12,465.36,51.12ZM580.08,33.36a920.09,920.09,0,0,0-10.2,111.72l-4,129c-1.32,42.6-2,85.44-2.16,128.28q-.18,63.72-2.64,126.6l-.84-29.16a1280.09,1280.09,0,0,0-11-129.12q-9-65.34-23.52-129.24c-4.92-21.48-9.48-42.84-13.8-64.32L488.4,60.24V49.8q-.72-.18-.72.36l-.6,3.36-.6-2.64.24,4.32a338.5,338.5,0,0,0-4.44,67.68q2,64.08-1.68,127.44-3.6,64.44-9,128.28Q466,443.4,456.24,507.36a191.07,191.07,0,0,0,.48,64.08,15.3,15.3,0,0,0,4.08-10.2q3.06-64.08,10-127.56t10.8-127.44q4-63.9,5.52-128.16c.72-33.72,1.08-67,1.2-100A585.2,585.2,0,0,0,497,138.48q12.78,64.62,27.48,129.12a1191.59,1191.59,0,0,1,22.08,129c4.92,42.48,8.16,85.2,9.48,128.28.36,10.92.24,21.72-.12,32.4q-.54,18.72,6.84,32a208.2,208.2,0,0,0,4.68-41.4L569,418.8q.72-64.62,2.28-129c1.08-42.84,2.28-85.56,3.84-128.28.84-21.48,2.4-42.84,4.92-64a281.66,281.66,0,0,0,.6-64.32Z" transform="translate(0.19 0.19)"/></svg>