<svg id="Layer_1" data-name="Layer 1" xmlns="http://www.w3.org/2000/svg" viewBox="0 0 307.22 209.75"><defs><style>.cls-1{fill-rule:evenodd;}</style></defs><path class="cls-1" d="M232,241.68a152.68,152.68,0,0,0,6.36-46.8,138.25,138.25,0,0,0-13.56,35.4Q209.64,292.56,198,355.44a97.74,97.74,0,0,1-4.2,15.72c-4.08,11.64-3.6,21.84,1.56,30.6q12.24-56.7,24.72-113.52C223.56,272.64,227.52,257.16,232,241.68Zm100.56,65.4q28.8,35.46-6.24,65.16c-17.16,14.76-35.28,16.92-54.12,6.6a99.12,99.12,0,0,1-5.4-38.28C268.08,316,280.2,301.2,303,296l9.84.72A28,28,0,0,1,332.52,307.08ZM283.2,289.92q-25.56,27.72-21.72,67.44a115.45,115.45,0,0,0,5.88,27c5.64,16.08,17.88,21.48,36.72,16.08q32-9.18,43.32-39.84,17.28-46.44-19-78.12L325,282l-6.84-.84a67.19,67.19,0,0,1-19.92,2.52A18.19,18.19,0,0,0,283.2,289.92ZM151.56,199.08a132,132,0,0,0,21.6,58.08,386.23,386.23,0,0,1,31.44,57c3.72-5.16,3.84-10.92.48-17q-26.64-49.86-52-99.6C151.92,197.4,151.44,197.88,151.56,199.08Zm230.16-1.32a129.7,129.7,0,0,0-3.24,37.44c.36,5.28.48,10.68.36,16.08l-.6,32.16-1,32.28a309.08,309.08,0,0,1-4.08,42,70.18,70.18,0,0,0,5.28,41.88,390.91,390.91,0,0,0,7-78.6l.12-13.92.48-14,43.68-2.28A12.1,12.1,0,0,0,431.4,281l-1-2.64-.6-.6-.72-.84-1.68-1.44a110,110,0,0,0-41,3.36l-1.8-68.64a329.53,329.53,0,0,0,72.84,2.4,16.17,16.17,0,0,0,1.32-5.88,13.8,13.8,0,0,0-1-4.92l-.84-1.56-.36-.36-72.84-3-.36-4.2Z" transform="translate(-151.54 -192.72)"/></svg>