<svg id="Layer_1" data-name="Layer 1" xmlns="http://www.w3.org/2000/svg" viewBox="0 0 244.18 204.37"><defs><style>.cls-1{fill-rule:evenodd;}</style></defs><path class="cls-1" d="M273.84,199.2A463.79,463.79,0,0,0,232,286.08a727.71,727.71,0,0,0-52.32-89.64c-2.64,12.12.24,24.12,8.52,36.24,8,11.64,15.72,23.4,23.28,35.16,5.64,8.88,11.28,17.64,17,26.16-19.8,33.84-31,68.76-33.72,104.88Q220.5,343.62,242.4,286.2a399.76,399.76,0,0,1,23.28-50.4c2.64-4.92,5.16-9.84,7.44-14.88l.84-2a30.72,30.72,0,0,0,1.68-9.36A21.38,21.38,0,0,0,273.84,199.2Zm77,132V299.52a156.63,156.63,0,0,0-8.4,63.36c1.08,16,8.28,28.44,21.72,37.56a43.46,43.46,0,0,0,29.64-6.6c18.12-11.64,27.72-28.68,28.92-51.36a80.26,80.26,0,0,0-8.28-40.32,266.81,266.81,0,0,0-5.16,46.32c-.48,17.88-9,29.28-25.68,34.2-18.48,5.64-28.8-.72-30.84-19.2A321.39,321.39,0,0,1,350.88,331.2Z" transform="translate(-178.69 -196.44)"/></svg>