<svg id="Layer_1" data-name="Layer 1" xmlns="http://www.w3.org/2000/svg" viewBox="0 0 299.56 207"><defs><style>.cls-1{fill-rule:evenodd;}</style></defs><path class="cls-1" d="M187.8,362.76q16.38-61.74,38.64-121.2a103.7,103.7,0,0,0,6.72-46A71.09,71.09,0,0,0,224,215.52q-18.54,61-38.4,122.76a274.93,274.93,0,0,0-12.48,61.08c.6,2,1.8,2.52,3.6,1.56C180.6,388.44,184.32,375.72,187.8,362.76Zm122.52-64.08A193.75,193.75,0,0,1,299.88,366a23.09,23.09,0,0,1-8.4,10.92q-23.58,17.46-34.08-8.64a90.87,90.87,0,0,1-5.4-48.84,99.15,99.15,0,0,0,.72-25.32,228.75,228.75,0,0,0-8.52,43.68,87.18,87.18,0,0,0,7.2,45.12q11,24.48,35.28,12.6c14.76-7.2,23.64-19,26.4-35.16a267.3,267.3,0,0,0,3.84-46.68A19.24,19.24,0,0,0,310.32,298.68ZM153.24,199a447.24,447.24,0,0,0,41,105.72,4.44,4.44,0,0,0,1-4.68A567,567,0,0,0,154,198.6Q153.06,198.42,153.24,199Zm215-2.76c-3.72,4.44-6.12,10.08-7.32,16.8q-11.34,62.46-24.12,125a158.92,158.92,0,0,1-10,31.08c-5.16,11.88-5.4,22.44-.6,31.56A344.35,344.35,0,0,0,349,321.48c3.36-21,7.56-41.88,12.48-62.4a240.85,240.85,0,0,0,6.24-39.48q9,40.5,16.68,81.36A95.83,95.83,0,0,0,392,325.8a18.8,18.8,0,0,0,2.76,5.88l.36-1a10.22,10.22,0,0,0,1.92-5.52q13-35.1,26.76-69.72a195.53,195.53,0,0,0,12.48-47.28c1.56,33.12,4,66.24,7,99.24a406.22,406.22,0,0,1,.72,64c-.84,12.24,1.44,22.56,6.72,31a3,3,0,0,0,1-1.68q2-36.18.36-73.08A880.92,880.92,0,0,0,437.52,201h-.36l.36-5.64C426.6,226.08,414.84,257.28,402,289a127.72,127.72,0,0,1-6.12,13l-1.8,3.84a1094.87,1094.87,0,0,0-25.8-107.52Z" transform="translate(-153.21 -195.36)"/></svg>