<svg id="Layer_1" data-name="Layer 1" xmlns="http://www.w3.org/2000/svg" viewBox="0 0 595.57 842.18"><defs><style>.cls-1{fill:#fff;}.cls-2{fill:none;stroke:#fff;stroke-linecap:round;stroke-linejoin:round;stroke-width:0.38px;}.cls-3{fill-rule:evenodd;}</style></defs><rect class="cls-1" x="0.31" y="0.31" width="595.08" height="841.68"/><rect class="cls-2" x="0.19" y="0.19" width="595.2" height="841.8"/><path class="cls-3" d="M320.28,292.68c-.84,15-2.28,30.12-4.44,45.6s-9.36,28.2-21.84,38.28Q272.4,394,256.68,370.8c-8.64-12.6-11.76-26.88-9.24-42.84a141.49,141.49,0,0,0,.6-39q-10.8,36-4.08,74.64a119.3,119.3,0,0,0,7.32,25q17.64,19.26,41.4,5.76a58.72,58.72,0,0,0,26.88-31.44q11.34-30.06,5.76-60.48A17.38,17.38,0,0,0,320.28,292.68Zm-93.84-95.16-30.72,84.84A810.16,810.16,0,0,0,155,196c-.12,11.4,3.12,24.6,9.72,39.36,6.12,13.8,12.6,27.48,19.32,41.16a70.12,70.12,0,0,0,9.24,13.92A484.25,484.25,0,0,0,172.8,397.08c6.12-7.44,10.2-17.64,12.24-30.72a502,502,0,0,1,23.16-92.52,385.6,385.6,0,0,0,17.16-68.64Zm125.4,10.56q10.26,33.48,18.12,67.8a805.44,805.44,0,0,1,15.6,93.84c1.2,11.64,4.32,21.6,9.24,29.64v.48q4.5.54,6.12-4.68c4.56-14.16,8.88-28.44,13.08-42.84q17.82-61.38,37.8-121.56c3.6-10.92,4.92-21.36,3.84-31.08a3,3,0,0,0-2.28,2.16,1035.36,1035.36,0,0,0-37.44,121.68,156.46,156.46,0,0,1-11,30.48,95.88,95.88,0,0,0-8.28,24.36,140.46,140.46,0,0,0-2-17.4c-2.28-12.72-4.56-25.44-7.08-38.16a920.43,920.43,0,0,0-33-123.12C351.48,201.24,350.64,204.12,351.84,208.08Z" transform="translate(0.19 0.19)"/></svg>