<svg id="Layer_1" data-name="Layer 1" xmlns="http://www.w3.org/2000/svg" viewBox="0 0 595.57 842.18"><defs><style>.cls-1{fill:#fff;}.cls-2{fill:none;stroke:#fff;stroke-linecap:round;stroke-linejoin:round;stroke-width:0.38px;}.cls-3{fill-rule:evenodd;}</style></defs><rect class="cls-1" x="0.31" y="0.31" width="595.08" height="841.68"/><rect class="cls-2" x="0.19" y="0.19" width="595.2" height="841.8"/><path class="cls-3" d="M313.8,289.2a217,217,0,0,0-5.52,46.8c-.24,16.56-6.48,29.88-18.84,40.08a31.76,31.76,0,0,1-28.08,7.08c-8.4-7.32-12-16.44-10.68-27.48a409.33,409.33,0,0,0,2.4-64.68,244,244,0,0,0-7.2,76.8q1.62,26.1,26.64,28.08c8.52.48,16.08-2.4,22.8-8.64,16-14.76,23.76-33.48,23.64-55.92l-.24-35.4C318.72,289.32,317,287.16,313.8,289.2Zm-162.48-91A622,622,0,0,0,198,295.92l-14.52,45.72a273.77,273.77,0,0,1-10.92,30.12c-4.92,11.28-5.16,21.24-1,30a257.42,257.42,0,0,0,13.68-39.6,1036.78,1036.78,0,0,1,39.48-121.32,155.11,155.11,0,0,1,6.48-14.4c5.28-10.32,7.32-20.64,6-30.84a90.58,90.58,0,0,0-13.44,25c-7.56,21.24-15,42.72-22.08,64.2a54,54,0,0,0-4.8-10.8l-44-76.92C151.44,196.68,151,197.16,151.32,198.24ZM453.84,212.4c.36,27.48.24,54.72-.12,82l-38.16-2.16-3.72.36c1.32-33.24,1.56-66.24.72-98.76q-5.4,39.42-7.68,81.36c-1.08,21.24-2.52,42.6-4.32,64a413,413,0,0,0-.72,64.32,3.07,3.07,0,0,0,2.76-2.76c3.72-26,6.24-52.44,7.8-79.44l1-17.16a305.23,305.23,0,0,0,42.12,3.6l-.84,33a308.23,308.23,0,0,1-2.76,32.16c-1.68,12.24-.36,22.92,4.08,31.92a121.52,121.52,0,0,0,4-30c0-16.68.36-33.48,1.2-50.28A994.44,994.44,0,0,0,457,196.2,35.86,35.86,0,0,0,453.84,212.4Zm-79.92-16.2-13.56-1.68c-12.48,9.24-16.56,22.44-12.12,39.36a256.57,256.57,0,0,0,15.36,42.84L383,319a59.58,59.58,0,0,1,2.76,44,58.72,58.72,0,0,1-8.4,16.92l-4.08,1.8h-21.6l-1.56-1.56-3.84-.84-13.56-10L331.2,362l1.32-4.92-5.28-4.2c-4.68,15.72-.24,28.92,13.56,39.84a30,30,0,0,0,14.88,6.36c7.32,1.2,13.44-.36,18.36-4.56a59.16,59.16,0,0,0,20.16-35.88,54.08,54.08,0,0,0-3.84-31.08,562,562,0,0,1-36.12-110,15.26,15.26,0,0,1-.36-5.76c6.36-4.44,13.08-5.16,20.16-2l3.72,1.68,6.84,8.4c2.52-3.84,2.16-8.64-1-14.28a37.62,37.62,0,0,0-5.4-7.2Z" transform="translate(0.19 0.19)"/></svg>