<svg id="Layer_1" data-name="Layer 1" xmlns="http://www.w3.org/2000/svg" viewBox="0 0 298.69 203.4"><defs><style>.cls-1{fill-rule:evenodd;}</style></defs><path class="cls-1" d="M314.76,306.84c3.48,20.28.48,39.12-9.24,56.76q-14.94,27.54-46,12.72a5.48,5.48,0,0,1-3.48-4.44,397.12,397.12,0,0,1-.72-81l-.36.36A259.82,259.82,0,0,0,246,370c.36,10.44,5.4,17.76,15,22q32.58,14.4,50.4-14.52c12.6-27,15.12-54.84,7.32-83.52Q313.14,298.2,314.76,306.84ZM235.32,197.76a2.19,2.19,0,0,0-2.16,1.08,89.41,89.41,0,0,0-8.4,16.56c-10.2,26-19.44,52.56-27.72,79.32A655.31,655.31,0,0,0,160,210.48l-.12-.72A23.47,23.47,0,0,0,154,199.2c-1.8-.12-2.4.72-1.92,2.4,5.4,17.64,11.88,35.28,19.2,52.92a351.58,351.58,0,0,0,23.76,47c-3.72,11.88-7.08,24-10.32,36.12a228.75,228.75,0,0,1-10.32,30.12c-4.92,11.64-5,21.72-.12,30.24a66.61,66.61,0,0,0,6.24-16.56,928.15,928.15,0,0,1,38-121.32A405.15,405.15,0,0,0,237,199.44l-.6-.72Zm130.8,8.16q.36,64.26-4,128.16a367.73,367.73,0,0,0,1,64.2c.6-.24,1-.6,1-1,2.52-17.4,4.32-34.8,5.52-52.44a81.17,81.17,0,0,0,12.24-17l18.48-33a83.27,83.27,0,0,0,9.36,29.76,246.81,246.81,0,0,1,19.08,47.28c3.24,11.28,7.8,20.76,13.68,28.56a9.36,9.36,0,0,0,1.44-9.36Q426.6,338.16,404.52,287.4C418,264,431.76,241,446,218c4.68-7.68,5.76-14.28,3.12-19.92a654.4,654.4,0,0,1-45.24,68.4c-3.84,7.08-7.92,14-12.36,20.88-4,6.24-8.16,12.48-12.48,18.6a64.32,64.32,0,0,0-8.16,15.48A1227.86,1227.86,0,0,0,369.36,197C367.2,199.08,366.12,202,366.12,205.92Z" transform="translate(-151.88 -197.04)"/></svg>