<svg id="Layer_1" data-name="Layer 1" xmlns="http://www.w3.org/2000/svg" viewBox="0 0 301.92 211.84"><defs><style>.cls-1{fill-rule:evenodd;}</style></defs><path class="cls-1" d="M267.36,298.68a195.72,195.72,0,0,0-6.24,70.2c1.32,15.24,7.92,27.84,19.68,37.8,17.28.6,31.2-6.48,41.64-21.24A79.18,79.18,0,0,0,337.32,338a163.66,163.66,0,0,0-5.64-41.76c-3.6,13.56-5.52,28.56-5.88,45.12a54.11,54.11,0,0,1-16.68,38.52A37.2,37.2,0,0,1,281.4,391.2q-15.66-12.42-15.12-32.4l1.2-48.72C267.6,306.24,267.6,302.4,267.36,298.68ZM175,400.92c6.72-9.84,11.52-21.84,14.4-36.12a680.69,680.69,0,0,1,20-77.16c4.92-15.12,10.2-30.12,15.84-45.12l4-11.52a104.72,104.72,0,0,0,4.8-34.56L199.08,294.6l-43-99.72a80,80,0,0,0,7.8,40.8c6.12,13.32,12.72,26.4,19.92,39.24l13.68,24.84a386.11,386.11,0,0,0-22.92,99.6ZM372.24,298.2c-.72,21.72-2.52,43.32-5.28,64.68-1.56,12.12-.36,22.8,3.72,31.92l.24-1.32L372,396a2.13,2.13,0,0,0,.84,1c27.72.36,55.32,1.8,82.56,4.56a8.91,8.91,0,0,0,2.4-5.64V394.2l-.36-3.12-.12-1-.12-.72A5.89,5.89,0,0,0,455,386l-3.24-.48a612,612,0,0,0-66.48-3.24l-3.24.48-1.08.12a26.55,26.55,0,0,0-7.44,1.56l-1,.48a365.9,365.9,0,0,0,5.64-54.24,1266.58,1266.58,0,0,0-2.4-128.28,173.85,173.85,0,0,0-3.84,46.2C372.72,265.32,372.84,281.76,372.24,298.2Z" transform="translate(-155.88 -194.88)"/></svg>