<svg id="Layer_1" data-name="Layer 1" xmlns="http://www.w3.org/2000/svg" viewBox="0 0 463.84 500.52"><defs><style>.cls-1{fill-rule:evenodd;}</style></defs><path class="cls-1" d="M224.28,172.68c-3.72,41.52-7.92,83.64-12.36,126.48A351.56,351.56,0,0,0,216.6,404.4a45.07,45.07,0,0,0,10.68,21.84c15.48,17.4,32.4,18.48,50.88,3a64.46,64.46,0,0,0,20-28.8,346,346,0,0,0,19-125.76,260.1,260.1,0,0,0-10.32-64.44,2.14,2.14,0,0,1,.48-2.16c7.92,7.56,12.6,17.76,14,30.48a435.4,435.4,0,0,1-4.8,127.92,167.21,167.21,0,0,1-29.16,68q-20.52,28.26-51.24,11.76A40.32,40.32,0,0,1,217,424.2a203.11,203.11,0,0,1-12.6-90.72q5.22-63.18,11.52-125.76A124,124,0,0,1,224.28,172.68ZM208.44,64.8l.72-.12q-22.14,59.4-44.4,120.24A850.67,850.67,0,0,0,129.84,308.4,710.82,710.82,0,0,1,93,431.4,692.48,692.48,0,0,0,58,546.84q-5.76-12.78-1.08-29.52A1147.91,1147.91,0,0,1,98.28,396a214.59,214.59,0,0,0,10-31.2q14.94-62.1,32.28-124l.84-3.24a5.1,5.1,0,0,1-2-1.92,658.73,658.73,0,0,0-60.84-109.2A234.33,234.33,0,0,1,45.6,57.6c-.36-1.2,0-2,1-2.4q3.06.72,3.24,4.32v.84Q80.22,116,115.08,169.56a226.64,226.64,0,0,1,28.32,61.32q16.2-56.7,37.68-111.72A352.47,352.47,0,0,1,201.84,74.4C202.44,69.84,204.72,66.6,208.44,64.8Zm164.88-7.92A1033.38,1033.38,0,0,1,382,179.64c.36,21.6.72,43.32,1.32,65l1.08,45.24a150.75,150.75,0,0,0,64.56-7.08q50.94-16.92,54.84-70.32A266.06,266.06,0,0,0,504,173.4q-4.86-75.24-76.08-103.56A189.67,189.67,0,0,0,373.32,56.88ZM368,50a4.16,4.16,0,0,1,1.32-3.12l.72-.6Q439,46.5,482.64,97.8a87.44,87.44,0,0,1,16.8,29.88q20.88,62.82-2.4,125.16-14.58,39.24-57.6,47.64c-7.56,1.56-15.12,2.76-22.8,3.6a68.19,68.19,0,0,1-31.92-3.6l1.68,73.2q1.62,64.62-.72,129.12a30.61,30.61,0,0,1-4,14.52c-3.84-5.88-5.16-13.8-4-23.52A437.33,437.33,0,0,0,380.64,430q-1.8-64.44-2.28-129t-1.8-129.12c-.84-38-3.12-76-6.6-113.64V56.64l-1.2-.12a7.92,7.92,0,0,1-.72-3.24Z" transform="translate(-45.46 -46.32)"/></svg>