<svg id="Layer_1" data-name="Layer 1" xmlns="http://www.w3.org/2000/svg" viewBox="0 0 295.98 209.4"><defs><style>.cls-1{fill-rule:evenodd;}</style></defs><path class="cls-1" d="M258.12,369.36a39.77,39.77,0,0,1,9.72-23.52l1.68-1.68,2.16-.36,15.72,29.4-20.64,8.28a11.91,11.91,0,0,1-5.16-5.16Zm4.68-48.24,4.92,12.36q-20,19.8-12,48.72c3,10.56,9.24,14.76,18.72,12.48,10.44-2.4,16.44-6.72,18.12-13.08,4.8,7.68,10,15.12,15.36,22.32,3-4.08,3.12-8.4.36-12.84a367.85,367.85,0,0,1-28.44-59.16A141,141,0,0,0,256,290.4c-2.52.6-3.24,2.4-2.28,5.28C256.44,304,259.56,312.48,262.8,321.12ZM153.24,198.6c5.52,16.68,11.64,33.48,18.48,50.4a217,217,0,0,0,26.4,47.52L195.24,308a581.55,581.55,0,0,1-18,60.36c-4.2,11.4-4.08,21.72.24,31.2q16-47.34,28-97a426.69,426.69,0,0,1,19.32-61.2,137.3,137.3,0,0,0,10.32-46.08,532.15,532.15,0,0,0-34.56,92.28,203.62,203.62,0,0,0-20-40.32l-.24-.84a222.93,222.93,0,0,0-25-52C153.24,194.88,152.52,196.32,153.24,198.6Zm288.6,64.32-.72,19.56L398,287.76l-1.8-59.88a587.9,587.9,0,0,0-4.44,69.72c-.12,6.48.12,13,.48,19.44a352.41,352.41,0,0,1-1,56.28,54.54,54.54,0,0,0,.84,16.56,49,49,0,0,0,3.36,10.8,287.38,287.38,0,0,0,4.08-72.48c-.6-9.24-1.08-18.48-1.32-27.72l42.12-3a435.16,435.16,0,0,0-.6,95.16,25.18,25.18,0,0,0,1.8,7.32l1.56,3.48q4-57.78,5.28-115.68c.36-15.48.6-30.84.48-46.2l-.36-46c-6.36,8-8.88,17.88-7.8,29.4A249.86,249.86,0,0,1,441.84,262.92ZM386.4,200.76a708,708,0,0,1-84.24,7.08,29.3,29.3,0,0,0-.48,7.32,8.61,8.61,0,0,0,1.08,3.24l5.16.84q20.52.54,41-.36a115.13,115.13,0,0,0-1.68,22.8c.6,43.2-.6,86.16-3.84,128.88-1,12.12.6,22.8,4.56,31.8A541.73,541.73,0,0,0,353,339q1.44-60.66-1.68-120.24,22.14-1.26,43.92-4a12.23,12.23,0,0,0,1.44-6.48,11.86,11.86,0,0,0-1.68-5.64l-1.44-.6Z" transform="translate(-152.97 -194.52)"/></svg>