<svg id="Layer_1" data-name="Layer 1" xmlns="http://www.w3.org/2000/svg" viewBox="0 0 415.97 368.52"><defs><style>.cls-1{fill-rule:evenodd;}</style></defs><path class="cls-1" d="M217.08,235.44l38.4-125.88L271.68,226ZM254.76,81.72l-.24,4Q229.5,160,211.68,236l-4.2.48-.24,6.48,2.52,1.56a1157,1157,0,0,1-38,131.76c-1.32,3.72-2.88,7.44-4.44,11l-1.8,4.44L164,396a29.75,29.75,0,0,0,.6,18.84l1.44,3.48A723.27,723.27,0,0,0,197.76,316.2l3.48-15.12,6.36-27.72,6.72-27.72a97.72,97.72,0,0,0,40.2-4.56,26.29,26.29,0,0,1,7.56-1.32l7.68.12,3.72.48a1275.77,1275.77,0,0,0,27.72,171,14.05,14.05,0,0,0,2.28,4.92l1.68,2a245.63,245.63,0,0,0-6.36-63.72c-3.24-14.52-6.12-29.16-8.4-43.8L283.32,265,280.08,242l10.92,1.8c2.28-3.36,2.4-7,.6-10.8l-.6-1.2-13-4.92L257.16,89.28Zm-53.76,22q-16.56,59.4-34.32,118.08a671.13,671.13,0,0,1-43.44-94.32,261.36,261.36,0,0,0-29-56.52c-2.16,1.56-2.64,3.72-1.44,6.6,3.48,8.4,6.72,17,10,26A659.18,659.18,0,0,0,156.6,218.4c-1.56,7.44.6,12.6,6.36,15.48q-17.46,57.24-35.4,114.48a52.32,52.32,0,0,1-7.08,14.76c-9,13.2-11.28,26-6.84,38.64A261.65,261.65,0,0,0,133,356.28q19.62-60.66,38-122t37.92-122.16c3.6-11,5.16-21.48,4.56-31.44a1.4,1.4,0,0,0-.84.24A60.5,60.5,0,0,0,201,103.68ZM312.24,85.56C329,92,336.12,103.8,333.48,121c-2.16,14-10.08,23.28-23.76,27.6l1.2-63.84Zm-3-6.48-.36.36-.48,3.12,1.32,1.32-6.24,66.48-2,.36-.12,7.44.48.36,1,.24q-9.54,41.94-1.08,81.24a388.5,388.5,0,0,0,7.56-82.08l6.84-1.92q4.14,46.08,28.08,82.68A361.81,361.81,0,0,0,318.36,155a36.09,36.09,0,0,0,18-21.36,68.87,68.87,0,0,0,3.72-20.4,23.87,23.87,0,0,0-.36-5.88A30.7,30.7,0,0,0,325,85.32l-3.48-2-4-1.92a61.14,61.14,0,0,0-6.6-2.28C311,77.64,310.44,77.64,309.24,79.08ZM482.16,366.72l-.72,5.28,21.6,6.48q-9.9,31.86-.84,61a202.75,202.75,0,0,0,4.56-71.52ZM496,246.84l-7.8-.6Q468.54,268,461.52,298.56A278.42,278.42,0,0,0,455,340.8l-2.76,45.48a63.28,63.28,0,0,0,5.76,31.2,34.27,34.27,0,0,0,14.88,16,39.84,39.84,0,0,0,20.88-18.72,36.34,36.34,0,0,0,4.2-12.6,42,42,0,0,0-.12-11.64,43.21,43.21,0,0,1-19.08,24,36.17,36.17,0,0,1-9.6,4.08q-19.8-34.74-11.88-77.76c2.52-13.56,5.52-27.12,8.76-40.68a101.37,101.37,0,0,1,9-23.52,103.51,103.51,0,0,1,12-17.88l8.64-.6,7,7c2.76-6.12.84-12-5.64-17.52ZM376.44,83.64c-4,37.56-6.84,75.48-8.88,113.52q-3.42,64.26-8.64,128.28c-1.8,21.36-4,42.72-6.48,64-1.44,12.24,0,22.92,4.2,31.92a710.07,710.07,0,0,0,9.36-82.8q3.42-64.26,7.68-128.28Q378,145.26,378,82C377,82,376.56,82.56,376.44,83.64Zm72.24,22.44q-1.62,56.16-6.84,112c-3.84,42.36-7.08,85-9.6,127.56-.84,14.4-2.28,28.8-4.08,43.08A434.44,434.44,0,0,1,415.68,335q-10.8-62.82-19.08-126.24-8.1-63.18-17.28-126c-.6.12-.84.24-.84.36a265.34,265.34,0,0,0,3.48,60C389,184.8,394,226.8,397,269A513.46,513.46,0,0,0,422,395.88a72.38,72.38,0,0,1,3,13.2v.24c-1.68,10-.12,17.88,4.68,23.88l.48-2.88,2.4,4a48,48,0,0,0,1.44-26c1.8-12.36,3-25.08,3.6-38,1-21.12,2.28-42.24,4.08-63.24,2.52-32,4.92-64,7-96q4.14-64.44,7.2-127.32C451.32,89.76,448.92,97.2,448.68,106.08Z" transform="translate(-92.12 -70.92)"/></svg>