<svg id="Layer_1" data-name="Layer 1" xmlns="http://www.w3.org/2000/svg" viewBox="0 0 595.57 842.18"><defs><style>.cls-1{fill:#fff;}.cls-2{fill:none;stroke:#fff;stroke-linecap:round;stroke-linejoin:round;stroke-width:0.38px;}.cls-3{fill-rule:evenodd;}</style></defs><rect class="cls-1" x="0.31" y="0.31" width="595.08" height="841.68"/><rect class="cls-2" x="0.19" y="0.19" width="595.2" height="841.8"/><path class="cls-3" d="M291.84,348a179.61,179.61,0,0,0,12.36,25.56c-9.36,8.64-20.4,10.32-33.12,4.92l-.48-1.56c-3.6-16.92,2.52-29,18.24-36.6Zm-16.2-33.48a70,70,0,0,1,9.48,16.56,45.44,45.44,0,0,0-21,26.76c-4.2,14-.84,24.72,10.32,31.92,13.56,8.64,25.44,6.48,35.88-6.48l16.2,19.92c3-7.32,2.4-14.64-1.92-22q-26.82-45.9-52.44-92.52C266.52,295.56,267.6,304.2,275.64,314.52ZM154.44,198.24q21.42,59.58,46.56,117-8.1,28.8-18.24,56.88c-4.32,12.12-4,22.2,1,30.48a63.63,63.63,0,0,0,7.56-19.32q13.86-62.1,32.64-123.6a624.39,624.39,0,0,0,15.48-61.56c-6.12,7.44-10.56,16.32-13.56,26.76l-23,83.76a770.35,770.35,0,0,0-46.44-116.52C153.84,193.08,153.24,195.12,154.44,198.24Zm273.24,7.92c-15-7.32-29.16-5.4-42.72,5.88a72.43,72.43,0,0,0-23.4,36.48,254.06,254.06,0,0,0-8.64,46.32,170.69,170.69,0,0,0,.84,42.12,178.31,178.31,0,0,0,13,45.6q11.16,25.74,38.64,14.88a42.22,42.22,0,0,0,23.4-21.36,41,41,0,0,0,3.48,25.56,198.54,198.54,0,0,0,5.52-71.88l-18.36,3.6.24,8.88,14,2.16-1.44,11.28a61.09,61.09,0,0,1-34.56,25.56,44.28,44.28,0,0,1-14.88,2.16c-15.24-14.4-23.16-33.36-24-56.76a269.16,269.16,0,0,1,2.16-46.2,108.63,108.63,0,0,1,9-31.08,74.88,74.88,0,0,1,19.92-26.16,32.61,32.61,0,0,1,26.4-7.8,41.72,41.72,0,0,1,18.24,6.48,14.32,14.32,0,0,0-.6-9.24A12.21,12.21,0,0,0,427.68,206.16Z" transform="translate(0.19 0.19)"/></svg>