<svg id="Layer_1" data-name="Layer 1" xmlns="http://www.w3.org/2000/svg" viewBox="0 0 307.73 220.8"><defs><style>.cls-1{fill-rule:evenodd;}</style></defs><path class="cls-1" d="M296.16,335.52l20.28,40a56,56,0,0,1-24.12,4.44,62.88,62.88,0,0,1-15-2.16c-4.2-8-4.32-16.44-.48-25.44a58.26,58.26,0,0,1,11-16.8ZM289,320.88a65.37,65.37,0,0,0-22.2,40.92c-2.52,18.48,4.32,29.52,20.76,33A45.87,45.87,0,0,0,323,388.2l14,25.8c4.08-5.76,4.32-11.76.6-17.88a84.8,84.8,0,0,1-7.8-16.32l-1.68-10.44-2.64,1.56L284,287.4q-7.38,11,1.44,24.12a66.13,66.13,0,0,1,5.28,9.48ZM243.24,204.36c-12.6,33-23.88,66.6-34,100.56A671.8,671.8,0,0,0,152,193.2q-3.6,1.08-1.8,5c14.64,32,29.64,64.2,45.12,96.72,3.48,7.2,7.32,13,11.76,17.28l-4.2,15A205.06,205.06,0,0,1,192,357.36c-7,15.72-9.12,31.08-6.6,46.08.84-.36,1.44-.84,1.56-1.44q18.9-57.06,36.36-115a583.33,583.33,0,0,1,21.84-60.24c4.92-11.52,5.76-21.84,2.64-30.84A31,31,0,0,0,243.24,204.36Zm131.52-9.48c-7.56,12.12-10,26.16-7.44,42.24a172.9,172.9,0,0,1,1.8,31.56l-1.2,32c-.36,10.68-1.08,21.36-1.92,32-1.2,15-1.8,30.12-1.92,45.36a41.26,41.26,0,0,0,5.52,21.48l84.36.6c3.24-3.24,4.2-7.2,2.76-11.88l-.84-2.52-.36-.6L454,383.4l-73,.6-4.32.36-4.44,1.08q4.5-77.58,3.72-158.64l-.48-16Z" transform="translate(-149.64 -193.2)"/></svg>