<svg id="Layer_1" data-name="Layer 1" xmlns="http://www.w3.org/2000/svg" viewBox="0 0 474.84 485.64"><defs><style>.cls-1{fill-rule:evenodd;}</style></defs><path class="cls-1" d="M318.36,415.44a163.18,163.18,0,0,0-2-43.92q26.82-8.64,35.28,15.12c3.24,18.36-5.4,28.08-25.92,28.92A29.79,29.79,0,0,1,318.36,415.44Zm-281-367.8a13.58,13.58,0,0,0,.24,9.72A543.62,543.62,0,0,1,91.08,173.64C94.8,185,99.84,194.16,106.32,201a15.25,15.25,0,0,0,.48-13.68q-9-21.42-16.92-42.84A449.35,449.35,0,0,0,39,45.72,2.53,2.53,0,0,0,37.32,47.64Zm110.16,3a107.78,107.78,0,0,0-10.8,26.28q-17.1,62.46-29.52,125.64Q94.56,265.38,82.44,328.2t-27.72,125c-2.64,10.44-5.52,20.88-8.52,31.08a105.55,105.55,0,0,0-4.56,39.48q2,2.16,4.32,0c7.8-27,14.64-54.24,20.76-81.84q13.68-62.28,25.2-125.28l5.52-31.8q10.26-62.82,25.68-124.68,7.74-31.32,17.52-62A136.6,136.6,0,0,0,147.48,50.64ZM194,81.84c.84,14.64,2.4,29.28,4.56,43.92q9.18,61.92,24.24,123.12a418.31,418.31,0,0,0-70.56,18.6l13.44-57.84q14.58-62.46,27.72-124.92Zm.36-28.56-.6,1.32-.6,1.68A246.06,246.06,0,0,0,181.56,96.6q-12.24,62.82-27.12,125.16L142.8,271.08l-1.08.36-.6,1.56a10.48,10.48,0,0,0-.12,5.76l-15.48,67.8q-14,62.82-27.72,125.4a188.5,188.5,0,0,1-9.6,31c-4,9.72-3.24,17.4,2.4,23a429.48,429.48,0,0,0,19.08-66.24q13-62.82,27.24-125.28l12.24-53.76a569.7,569.7,0,0,1,77-18.12c9.24,37.32,18.24,74.76,27.12,112.08Q268.26,437.28,280,500.76c2.16,11.64,5.64,21.84,10.56,30.6a3.39,3.39,0,0,0,1.56-3.12,709.33,709.33,0,0,0-16.56-99.36Q260.4,366.78,244.8,304.8t-28-125.16c-8-40.56-15-80.88-21.12-121l-.36-5.88C194.76,52.92,194.52,53,194.4,53.28ZM297.24,82.56c-5.4,41.4-9.6,82.8-12.84,124.44l-3.84-21.6q-11.7-62.46-21.36-125c-.6.12-.84.24-.84.36-4.44,29.88-7.68,60.24-9.84,90.84a463.56,463.56,0,0,1-5.88,46.68,74.05,74.05,0,0,0,.84,31.8,11.73,11.73,0,0,0,4-7.8c4.2-41.64,8.28-83,12-124.32,3,19.92,6.24,39.72,9.48,59.28,3.36,19.8,6,39.6,7.8,59.4.84,10,4,17.16,9.24,21.84a236.21,236.21,0,0,0,5.4-36.6A1183,1183,0,0,1,306.72,76.32c1.32-7.56-.36-12.6-5-14.88A137.49,137.49,0,0,0,297.24,82.56Zm103.2-24.12A9.91,9.91,0,0,0,397.2,63c-10,25.68-18.84,51.6-26.88,77.64a340.15,340.15,0,0,1-25,60.36,73.19,73.19,0,0,0-5.76,14.16L339,184q-1.44-64.26-7.56-127.44A314.18,314.18,0,0,0,330,125.64c1.2,14.16,1.92,28.44,2.28,43q1.26,64.08-.36,128.28A262.27,262.27,0,0,1,329.16,329c-1.68,11.28-.72,21.24,2.76,30l-5-.72v.12l-4.92.36-.6.48a15.57,15.57,0,0,1-3.84,1.68,19.05,19.05,0,0,0-4.8,2.16l-.48,1.56a4.22,4.22,0,0,0-.36,2.4,30.31,30.31,0,0,0-1.8,11.76q1.62,64.62,1.68,129c-.12,10.2,2.28,18,7,23.52a9.76,9.76,0,0,0,2.88-8c-1.92-31.08-3-62.16-3.24-93.48a44.5,44.5,0,0,0,20.28-2.52c14.88-5.52,22.08-16.44,21.48-32.88-.6-19.8-9.6-31.44-26.76-35.16a173.21,173.21,0,0,0,6.48-46.2q.36-37.08,0-74.16a16.93,16.93,0,0,0,5.28-6.84c5.52-12.6,10.68-25.44,15.6-38.4a423.91,423.91,0,0,0,11.16,69l15.48,62.64A128.88,128.88,0,0,0,398,354.72a4.65,4.65,0,0,0,1.56-3.24,146.58,146.58,0,0,0-6.48-46.56A1198.94,1198.94,0,0,1,362.88,187.8c9.24-25.08,17.4-50.52,24.24-76.32A139.07,139.07,0,0,1,398.76,81.6C403.44,72.6,404,64.92,400.44,58.44ZM511.32,98.76c.72-14.52-5.4-25.2-18.48-32q-41-21.6-58,27.36-19.44,56.16,12,107.64a317.84,317.84,0,0,1,36.72,86.76,389.35,389.35,0,0,1,11.28,66.36,312.7,312.7,0,0,1,.48,47.4,241,241,0,0,1-6.72,42.48,196,196,0,0,1-12.24,34.44,38.37,38.37,0,0,1-9.24,12.24A36.88,36.88,0,0,1,453.6,499,65.51,65.51,0,0,1,437,502.32a60.81,60.81,0,0,1-19.8-1.08,43,43,0,0,1-14.4-6.36,58.57,58.57,0,0,1-20.52-24.36l1.32-3.24-7-12.72Q368.4,478.86,387,500.4c13.2,15.24,30.12,22.2,50.64,21.12,17.28-1.32,30.84-9.6,40.56-25a157.71,157.71,0,0,0,24.48-73.68,401.35,401.35,0,0,0-.48-71,380.12,380.12,0,0,0-9.36-54.48,410.5,410.5,0,0,0-16.32-51.72,569.81,569.81,0,0,0-30.6-66.24,95.32,95.32,0,0,1-9.84-28.08A89.26,89.26,0,0,1,436.2,117a111,111,0,0,1,10.08-28.8c10.44-13.32,23.88-16.8,40.32-10.32A48.6,48.6,0,0,1,511.32,98.76Z" transform="translate(-36.54 -45.72)"/></svg>