<svg id="Layer_1" data-name="Layer 1" xmlns="http://www.w3.org/2000/svg" viewBox="0 0 380.56 351.08"><defs><style>.cls-1{fill-rule:evenodd;}</style></defs><path class="cls-1" d="M217.92,286l-4.8-1-5-.6-4.92.36-16.92,1.68a44.6,44.6,0,0,0-9,2l28.32-133.56,13.56,131.4ZM334.2,316.08l-.84-2.16L305,396.36a225,225,0,0,0-12.24-69l-3.36-9.72c-5.16,9.72-9.24,21.72-12.12,36a321,321,0,0,1-11.76,43.08,109.61,109.61,0,0,0-6.36,45.36,11.56,11.56,0,0,0,1.32,4.92,306.33,306.33,0,0,0,15-53.88,417.15,417.15,0,0,1,10.92-44.64,63.46,63.46,0,0,0,2.76-22.2l13,85.2,2.52,1.44.24-2.64,1.32,6.72L335,330.48q4.68,43.38,10.32,86.64a198,198,0,0,0,3.72,20.16A41,41,0,0,0,358,454.56a22.64,22.64,0,0,0,2-18.24,345.34,345.34,0,0,1-10.92-47.76q-5.76-37.8-14.76-74.28ZM83.64,111.48l-4.08-5.4q9.18,70,42.6,137.52a12.08,12.08,0,0,1,1.32,3.84l.48,1.8Q99.3,331.5,78.72,415l-2.28,7.92a54.54,54.54,0,0,0-1.92,7.92l-1.08,7.8c-.6,4.92,0,8.76,2,11.52a1996.46,1996.46,0,0,0,54.84-195q19.8-52.92,35.4-111.24a111.69,111.69,0,0,0,2.88-15.36l.72-7.8a601.2,601.2,0,0,0-39.6,110.4A458,458,0,0,1,85.8,113.4Zm123,15.6a518.08,518.08,0,0,0-19.56,78.24q-11,63.18-25.8,125.52A483.25,483.25,0,0,1,142,392.52q-12.42,31.86-9.36,63.12a321.49,321.49,0,0,0,10.92-32q17.64-61.74,31.32-124.08l.36-1.68a192.34,192.34,0,0,1,44.76.6l.36-.72q5.58,59.76,8.64,120.12c.6,11.64,3,22,7.44,30.72a2.36,2.36,0,0,0,1.2-2.28q-2.34-52.2-6.48-104.88c-2.52-32-5.4-64.08-8.4-95.88Q216.6,181.44,208.08,119C207.48,121.68,207,124.32,206.64,127.08Zm52.8,3.36q20.7,19.26,8.28,45c-4,8.16-10.44,12.72-19.68,13.68a226.87,226.87,0,0,0,.84-60.48ZM246,127.32a18.19,18.19,0,0,0,.48,8.76c-1.92,17.88-3.72,35.76-5.28,53.64h-2.28a15.24,15.24,0,0,0-.6,4.08,15.09,15.09,0,0,0,.6,4l1.44,1.08-3.48,40.32c-.84,10.68-1.92,21.48-3.48,32.28-1.68,12-.72,22.68,3,31.92a91,91,0,0,0,5.16-29.28q.72-36.9,5-73.44a16.28,16.28,0,0,0,7-1.32l.72-.36a334.56,334.56,0,0,0,9.12,37.92A478.3,478.3,0,0,1,276,288.24,96.6,96.6,0,0,0,286.2,318a8.61,8.61,0,0,0,2-7.32,600.51,600.51,0,0,0-31.08-113.16,27,27,0,0,0,9-8.28c17.88-25.2,15.12-47.64-8-67.2-7.32-1.92-11.88-.48-13.56,4.32ZM356.16,259c-.36-43.44.12-86.16,1.2-128.28a196.17,196.17,0,0,0-7,51.48c-.36,38.64-1.2,77-2.28,115.32-1.8-12.36-4.32-24.84-7.32-37.44Q326,199.74,311.88,139.32l.12-10.2-1.56,7c-1,.12-1.44.84-1.56,1.92a60.09,60.09,0,0,0-.36,9.24A342.65,342.65,0,0,0,305,185q-2.34,64.26-3.36,128.28a3.32,3.32,0,0,0,2.4,2.16,357.65,357.65,0,0,0,6-58.08q1.08-46.44,1.56-92.16l14.16,61.68q7.2,31.5,11.52,63c1.68,12.12,5.64,22.32,12,30.48a2.45,2.45,0,0,0,1.08-2.4l-.48-5.4h1.56A282.3,282.3,0,0,0,356.16,259Zm54.6-122c17.4-1.68,30.36,4.56,38.64,18.72l.24-.84c-.72-21.48-13.2-32-37.32-31.44-10.2,4.68-16.92,12.6-19.92,24Q375.3,210.9,409,268.8a306.44,306.44,0,0,1,40.68,121.8c2.76,24.48-6.72,40.44-28.68,47.88a39.49,39.49,0,0,1-26.28,0c-11.88-4-18.48-12.48-19.92-25.32-3.48,5.16-4.44,11.16-2.64,18.12a28.48,28.48,0,0,0,12.48,18c13.08,8.52,27.24,10.08,42.36,4.92,9.72-3.48,16.08-9.84,19-19.08q16.38-52.74-1.32-105.24a105,105,0,0,0-10.08-21.72A336.27,336.27,0,0,1,392.4,201Q384.48,162.84,410.76,136.92Z" transform="translate(-73.22 -106.08)"/></svg>