<svg id="Layer_1" data-name="Layer 1" xmlns="http://www.w3.org/2000/svg" viewBox="0 0 285.43 212.64"><defs><style>.cls-1{fill-rule:evenodd;}</style></defs><path class="cls-1" d="M284.28,303.72l-1.56-1.8a11.85,11.85,0,0,0-2.76,6.84c-2.16,18.12-4.8,36.12-7.8,54.12-2.76,16.44,2.52,27.36,15.72,33,15.6-7.08,23.52-18.24,23.76-33.36-7.8,10.2-17.52,16.08-28.92,17.4l-3-2.52a6.08,6.08,0,0,1-.24-1.56q1.62-35.64,5.16-71.52Zm3-32.52c3.24-6,3.6-11.88.84-17.64q-13.86,4.68-6.12,16.56l1-5.16,2.4,6.84Zm-136-74.52a156.91,156.91,0,0,0,17.76,58.2,208.79,208.79,0,0,1,16.56,40.92,109.61,109.61,0,0,0,13.56,29.52,313.32,313.32,0,0,0-18,67.08,21.94,21.94,0,0,0,2.28,13.68q16-56.34,32.64-112.32a771.09,771.09,0,0,1,28-78.48,26.06,26.06,0,0,0,.48-19.92A1118.22,1118.22,0,0,0,202.68,313.2l-49-114.84ZM391,278.16l2.16-1.56q16.74-25.38,34.56-50.76c7.2-10.32,10.08-20.76,8.76-31.32-19.32,28-38.16,56.64-56.52,86.28a189.88,189.88,0,0,1-13.56,19.08,45.91,45.91,0,0,0-9.36,17.4,856.2,856.2,0,0,0,3.6-123.84q-6.48,53.82-10.92,110.4c-1.56,21.24-3.6,42.6-6.12,64-1.56,12.12,0,22.8,4.44,31.8a15.11,15.11,0,0,0,3.6-9.72c.72-20.28,2-40.56,4.08-60.84a35.26,35.26,0,0,0,1,5.88,500.77,500.77,0,0,0,31.08-50.4,582.35,582.35,0,0,0,44.64,115.92,9.69,9.69,0,0,0,2.16-8,129.92,129.92,0,0,0-7.68-26q-18-43.56-37.2-85.68Z" transform="translate(-151.32 -193.44)"/></svg>