<svg id="Layer_1" data-name="Layer 1" xmlns="http://www.w3.org/2000/svg" viewBox="0 0 297.38 211.56"><defs><style>.cls-1{fill-rule:evenodd;}</style></defs><path class="cls-1" d="M290.52,404.52l3.84.24a44.94,44.94,0,0,0,16.32-16.2,39.58,39.58,0,0,0,5.64-21.12,162.26,162.26,0,0,1-21.48,21.12,3.12,3.12,0,0,1-4.56,0l.24-90.12a376.47,376.47,0,0,0-7.68,43.44,176.12,176.12,0,0,0,.84,47A32.06,32.06,0,0,0,290.52,404.52ZM289.8,264.6l-.36,3.24-1.8,2.28a17.85,17.85,0,0,0,2.16,12.6,2.17,2.17,0,0,0,1.68,1.2c6.84-6.24,7.08-13.44.72-21.72ZM152.4,204.84l2.64,1.68L211.56,308q-12.78,32-23.28,64.92a144.7,144.7,0,0,0-5.16,22.44q-.9,7.2,2.88,5.76a154,154,0,0,0,11.16-24.84c5.4-15.12,10.68-30.24,15.6-45.48q17.46-54,32.76-108.48a101.34,101.34,0,0,0,3.6-28.08,152.27,152.27,0,0,0-15.36,40.2c-3.48,15.24-7.68,30.36-12.6,45.24l-7.44,22.2a70.1,70.1,0,0,0-13.56-33.6,110.7,110.7,0,0,1-7.8-12.24c-6.48-12.24-13.2-24.36-20-36.36a123.39,123.39,0,0,0-19.2-25.8Zm258.84-6q-3.42,34.56-4.56,69.84C405.36,311.76,403,354.6,399.36,397a2.55,2.55,0,0,0,2.16,2.16,340.23,340.23,0,0,0,10.08-74.4l.72-23.64,27,1.56c-2,32.4-4.44,64.68-7.44,96.72.48,2,1.68,2.52,3.48,1.56a128,128,0,0,0,4.2-20.16c2.4-19.68,4.32-39.72,5.64-60l1.08-18.48,1.2-.12a9,9,0,0,0,2.28-6.12,12.23,12.23,0,0,0-1.44-6.48,1.39,1.39,0,0,0-.84-.6l-.6-.12c1.44-32,1.92-63.84,1.44-95.64Q443.1,231.36,441,272l-.84,15.72-1.8-.12a108,108,0,0,0-25.8,3.72q1.08-47.88,1.08-94.92l-.48.12A5.77,5.77,0,0,1,411.24,198.84ZM386.76,211a14.59,14.59,0,0,0,7.68,4.68v-.48c-1.68-14-9.48-21-23.28-21.12-15.12,10-21.6,24.84-19.56,44.4a179.91,179.91,0,0,0,25.32,74.76c14.52,24.12,15.84,47.88,3.72,71.28-19.32,7-33.6,1.08-42.6-17.64a105.25,105.25,0,0,1-9-64.68c-.72,0-1.08.12-1.2.48q-15.66,41.76,6.84,81c8.64,15,21.12,21.84,37.56,20.28a12.33,12.33,0,0,0,8.28-4c12.48-13.32,17.52-29.76,15-49.2a144.52,144.52,0,0,0-21.84-60.12q-23.94-37.44-11.16-78a19.89,19.89,0,0,1,16.8-6.12A15.7,15.7,0,0,1,386.76,211Z" transform="translate(-152.4 -193.2)"/></svg>