<svg id="Layer_1" data-name="Layer 1" xmlns="http://www.w3.org/2000/svg" viewBox="0 0 595.57 842.18"><defs><style>.cls-1{fill:#fff;}.cls-2{fill:none;stroke:#fff;stroke-linecap:round;stroke-linejoin:round;stroke-width:0.38px;}.cls-3{fill-rule:evenodd;}</style></defs><rect class="cls-1" x="0.31" y="0.31" width="595.08" height="841.68"/><rect class="cls-2" x="0.19" y="0.19" width="595.2" height="841.8"/><path class="cls-3" d="M292,381.6a24.46,24.46,0,0,0,3.24-14.16,41,41,0,0,1-18.48,8.64l-3.24.6a441.51,441.51,0,0,0,3-72.36,204.13,204.13,0,0,0-10.8,43.08,73.64,73.64,0,0,0,7.56,45.24C281.64,392.4,287.88,388.68,292,381.6Zm-15.72-97.08c6.12-5,7.56-11.16,4.32-18.48-5.16,5.4-6.72,11.52-4.68,18.48Zm-121.08-70.8q22.5,48.06,41.88,96.48c-2.88,9.72-5.64,19.44-8.16,29.28A216.41,216.41,0,0,1,178.8,369.6c-4.92,11.76-4.68,21.72.6,29.76a78.24,78.24,0,0,0,7.8-20.16Q202,317.1,222.6,256.68a240.7,240.7,0,0,1,12.84-30.24c5.88-11.4,7.2-21.48,3.72-30.24a123,123,0,0,0-10.44,20.64q-16.38,41.94-29.16,84.84a513.39,513.39,0,0,0-46.44-107.4,1.47,1.47,0,0,0-1.08.36q-5.58,6.66,0,15.12l2.52,2.4Zm200-18.6a36.16,36.16,0,0,0-5.64,16.44q-7,63.18-18.24,125.16A139.6,139.6,0,0,1,322,367.44c-5.16,12.12-5.16,22.56.24,31.32a75.05,75.05,0,0,0,5.52-15A1145.23,1145.23,0,0,0,351.36,258.6a426.6,426.6,0,0,0,3.84-50.28,473,473,0,0,0,7.8,52.44A369.77,369.77,0,0,1,369.12,300a89.15,89.15,0,0,0,7.32,28.2l-.12,7.32c3.48-.6,5.64-3.36,6.36-8A393.14,393.14,0,0,1,398.28,258a248.61,248.61,0,0,0,7-25.8A208.83,208.83,0,0,0,408,254.88c7.56,41.64,13.44,83.64,17.64,125.76,1.08,10,4.68,17.28,10.8,21.72a2.94,2.94,0,0,0,.6-2.4q-3.78-36.72-9.36-74-8.82-58.14-18.6-115.2l1.32-14c-.6-.12-1.08.24-1.32,1l-1.44,5-.48-2.4c-1.08-.12-1.56.48-1.68,1.56-.36,3.48-.48,7-.6,10.44C399,232.56,392.64,253,386,273.36a183.29,183.29,0,0,0-7.92,33.48c-6.24-36.84-13.8-73.2-22.8-108.84Z" transform="translate(0.19 0.19)"/></svg>