<svg id="Layer_1" data-name="Layer 1" xmlns="http://www.w3.org/2000/svg" viewBox="0 0 519.66 421.08"><defs><style>.cls-1{fill-rule:evenodd;}</style></defs><path class="cls-1" d="M53.88,87.36q26.46,59,50.76,119.16a171.44,171.44,0,0,1,9,30.84,70.23,70.23,0,0,0,8.28,22.8c-4.56,16.56-8.76,33.24-12.6,49.92Q94.92,372,78.48,433.32c-2.76,10.2-6,20.28-9.6,30.24q-5.4,14.58,4,21.6c9.24-32.76,17.52-66,24.6-99.48q13.32-62.46,30.84-124.08t37.56-123.24A236.42,236.42,0,0,0,177.72,76.8,69.62,69.62,0,0,0,167,102.48,669.83,669.83,0,0,1,144.6,186q-9.9,29.34-18.48,59a63.28,63.28,0,0,0-3.72-15.12c-4.44-12.12-9.12-24.12-14.16-36q-25-58.86-52.44-116.28C52.56,79.8,51.84,83,53.88,87.36ZM190,134.28a362.3,362.3,0,0,0-7.44,66.24,1071.06,1071.06,0,0,1-10.08,127.32q-4.5,32-10.08,63.84c-2,12.24-.84,22.92,3.72,32a227,227,0,0,0,7.08-35.52q7.2-63.36,12-127c3.24-43.08,5.28-85.56,5.88-127.32Q190.14,133.74,190,134.28Zm148.8-53.76a401.07,401.07,0,0,0-9,80.16q-.9,64.08-2.52,128.28a1048.86,1048.86,0,0,1-11,129v.48c-6.6-33-14.28-65.52-23.16-97.8q-17.1-61.92-34.44-123.12-17.1-60.3-33.24-119.88V72l-.6,3.36-.48-1.8A91.16,91.16,0,0,0,223.2,85.2a428.28,428.28,0,0,0-4.2,57.72q-.54,64.26-5.76,127.56c-3.48,42.84-7.08,85.56-11,128.16a407.08,407.08,0,0,1-10.8,63.6c-2.52,10-1.44,17.88,3.12,23.76a98.35,98.35,0,0,0,8.4-30q7.56-63.54,11.52-127.44c2.64-42.84,5.16-85.56,7.44-128.4,1.8-32.28,2.88-64.32,3.36-95.88L226.8,111q9.18,33.12,18.72,66.12L280.68,300.6a1177.11,1177.11,0,0,1,28,123.48,380.5,380.5,0,0,1,4.68,46.44c.36,9.72,3.12,16.68,8.4,21.12a138,138,0,0,0-.48-46.56l-.12-.48A385.09,385.09,0,0,0,327,401.88q5.58-63.9,7-128.28c1-43.08,2.64-86.16,5-129a604,604,0,0,0,.24-64.2ZM448.32,92q-13.14-9.54-30.6-7.56l-4.32,1.2a27.82,27.82,0,0,0-14.88,8.76q-28.26,32.22-36.12,75.24a611.12,611.12,0,0,0-9.48,87.6c-1.56,42.72-3.84,85.44-6.6,128.16q-3.42,52.92,27.12,93.84c8.16,10.92,18.84,15.36,32.16,13.32,32.52-4.92,50.28-22.56,53.52-52.92-4.08.36-7.32,2.64-9.72,6.6a62,62,0,0,1-31.08,26.64A113.71,113.71,0,0,1,392,475.68q-34-22-35.64-63.12-1.8-47.88.36-95.76c1.8-42.72,5.16-85.2,9.84-127.32a168.2,168.2,0,0,1,23.88-69.84C403.8,97.8,423,92.4,448.32,103.32a6.61,6.61,0,0,0,2-2.4,7,7,0,0,0,0-4.92l-.48-1.56-.72-1.68Zm79.32,6.48a86.54,86.54,0,0,0-35.52,38.4A245.69,245.69,0,0,0,469,224.28c-3.24,42.48-4.68,85.2-4.56,128.28a373.19,373.19,0,0,0,16.68,109.92q7.74,25.38,33.84,21.24A72.2,72.2,0,0,0,546.6,470c19.56-14.64,27.6-32.64,24.36-54.12a3.41,3.41,0,0,0-1.68,1.08,81.66,81.66,0,0,0-5.64,10.56q-13.86,31.5-47.76,37.44c-19.68,3.36-31.32-5.16-34.8-25.44a714.15,714.15,0,0,1-10.44-128.4c.12-10.92.48-21.72,1.08-32.64l50.52-5.16c1.32,1.56,2.76,1.8,4.08.48l.36-.84a13.46,13.46,0,0,0-.36-12.12l-1-.72-2-.6a260.17,260.17,0,0,0-50.88,7.8,705.82,705.82,0,0,1,10.44-81.24q8.64-46.26,45.24-73.8c14.64-8.28,29.4-10,44.16-4.92l.12-.84c-.84-12.24-8.28-17.4-22.56-15.6a16.72,16.72,0,0,1-5.28,2A99.66,99.66,0,0,0,527.64,98.52Z" transform="translate(-52.74 -72)"/></svg>