<svg id="Layer_1" data-name="Layer 1" xmlns="http://www.w3.org/2000/svg" viewBox="0 0 292.1 208.56"><defs><style>.cls-1{fill-rule:evenodd;}</style></defs><path class="cls-1" d="M283.92,378.84q1.8-35.82,2-70.68-4.68,5.94-5.4,15.12c-1.32,17.28-2.76,34.56-4.44,51.84q-1.8,18.54,14.76,20.16c13.56-6.84,19.56-16.56,17.88-29.16-7.08,8.4-15.36,12.84-24.72,13.44Zm7.92-106.56c-7,4.92-9.24,11.4-6.72,19.44,5.88-1.92,9.24-6,9.84-12.36a9.33,9.33,0,0,0-1-5.52Zm-54-71.76a97.52,97.52,0,0,0-9.12,18.84q-16,44.46-28.08,90.36A830.41,830.41,0,0,0,155,196.44c-3,3.84-3.48,8.64-1.2,14.28,6.12,15.72,12.72,31.44,19.68,47q13.14,29.34,25.56,58.2c-2.4,9.36-4.68,18.84-6.84,28.32a240,240,0,0,1-8.76,30.12q-6.3,17.46,1.08,30.6A468.15,468.15,0,0,0,198,353.16a724.39,724.39,0,0,1,36.36-122.4c4.32-10.68,6-21.12,5-31.08A1.54,1.54,0,0,0,237.84,200.52Zm115.92,198.6,88.32-3,1.08-1.8a14,14,0,0,0,0-12l-.36-.6-2.88-1.56a288.79,288.79,0,0,0-84.12,7.56,515.53,515.53,0,0,0,6.36-60.48q2.7-64.44-.36-128.4a604.83,604.83,0,0,0-5.88,72.36q-1.26,64.44-5.28,128.16a2.51,2.51,0,0,0,2.76,1.56Z" transform="translate(-152.41 -196.44)"/></svg>