<svg id="Layer_1" data-name="Layer 1" xmlns="http://www.w3.org/2000/svg" viewBox="0 0 595.57 842.18"><defs><style>.cls-1{fill:#fff;}.cls-2{fill:none;stroke:#fff;stroke-linecap:round;stroke-linejoin:round;stroke-width:0.38px;}.cls-3{fill-rule:evenodd;}</style></defs><rect class="cls-1" x="0.31" y="0.31" width="595.08" height="841.68"/><rect class="cls-2" x="0.19" y="0.19" width="595.2" height="841.8"/><path class="cls-3" d="M265,313.2a149.11,149.11,0,0,0-9.6,44c-1.08,17.4,4.8,30.72,17.88,40,3.72,2.52,7.92,3.24,12.84,2.16,16.68-3.84,28-13.2,33.6-28.2,1.32-3.48.72-6.36-1.8-8.88a71.78,71.78,0,0,1-34.44,21.48c-6.72,2-11.64.24-14.88-5.4-6.36-11-7.44-23.16-3.24-36.48l40.08,2.28a12.45,12.45,0,0,0,1.92-7.32,11.74,11.74,0,0,0-1.92-5.64l-.36-.36a128.53,128.53,0,0,0-35.76-2.64L285.72,300A29,29,0,0,1,306,297.6a18.82,18.82,0,0,1,7.2,3l3.36,2.4a9.06,9.06,0,0,0,.48-6.84,17.07,17.07,0,0,0-4.44-7.68l-1.68-1.68-16.56-2.88C280.2,289.08,270.36,298.8,265,313.2ZM153.6,198.84a672.27,672.27,0,0,0,34,81.36,113.53,113.53,0,0,0,9.12,15.6c-6,15.72-11.52,31.68-16.68,47.76A193,193,0,0,1,168.12,373c-5.88,11.64-6.36,21.72-1.44,30.48q18.18-49,36.24-99.36l1.92,2.16a4.68,4.68,0,0,0,.36-4.32l-.84-2.16,3-8.16a330,330,0,0,1,27.84-59.28c7.68-12.72,11.28-25.44,10.68-38.28A167.51,167.51,0,0,0,228,223.2c-10.32,21.24-19.8,42.72-28.32,64.68A762.9,762.9,0,0,0,155,196Q152.7,196.32,153.6,198.84ZM379,291.6l-.6-83.88a91.74,91.74,0,0,1,44.16,10q23.58,12.06,18.36,36c-3.48,16.44-13.68,27.12-30.6,31.8A195.32,195.32,0,0,1,379,291.6Zm-2-84.6L365.4,398.4q8.1-18.54,10.08-43.92l1.32-18.72,1.8-30.12a85.39,85.39,0,0,0,33.84-5l5.64-2.4a62.72,62.72,0,0,0,16.44-12.12l4-4.92,5-7.2a39.94,39.94,0,0,0,6.72-21,34.28,34.28,0,0,0-1-9.84,64.07,64.07,0,0,0-8.16-19.92c-8.88-14.28-21.48-23.16-37.92-26.4a53.37,53.37,0,0,0-26.88,1.56Z" transform="translate(0.19 0.19)"/></svg>