<svg id="Layer_1" data-name="Layer 1" xmlns="http://www.w3.org/2000/svg" viewBox="0 0 508.88 455.04"><defs><style>.cls-1{fill-rule:evenodd;}</style></defs><path class="cls-1" d="M222.48,145.8c5.76-13.32,7.92-26.28,6.36-38.88a217.25,217.25,0,0,0-20,52.2c-9,35.76-18.36,71.4-27.84,106.92-3.84,14.28-7.8,28.44-12,42.6a91.08,91.08,0,0,0-4.8-9.72,742.35,742.35,0,0,1-55.08-116.4l-22.68-60a102.57,102.57,0,0,1-7.08-30.84l-.12-.6A62.58,62.58,0,0,0,72,81.24c-2.16.12-2.88,1.44-2.28,3.84q12.78,47,29.16,94.32a714.47,714.47,0,0,0,54.6,120.24,32.66,32.66,0,0,1,4.2,11.52A54.5,54.5,0,0,0,163,327.84c-6.48,20.76-13.44,41.28-20.76,61.8Q130.86,421,121.92,452.88a483.34,483.34,0,0,1-21.6,61.44q-5.94,14.22,2.52,22a22.11,22.11,0,0,0,2.64-5.64Q123.3,469.08,145,408c8.4-23.88,16.32-48,23.64-72.12l3.72,3.48a59.82,59.82,0,0,0,.24-16.68L183.24,285,217,161.4A96.05,96.05,0,0,1,222.48,145.8ZM394,142.32q4-36.54-30.36-50a52.76,52.76,0,0,0-21.48,9.36A189.49,189.49,0,0,0,278,183.48a397.67,397.67,0,0,0-27.12,101.4l-2.88.36-.48,1.56a14.56,14.56,0,0,0,.84,10.56l1.08.24-1.08,13.32q-4.14,62.82,26,117.48a68.18,68.18,0,0,0,24,25.2Q342.54,481,385,447.36a133.37,133.37,0,0,1,14.64-10.2c22.2-13.56,38.64-30.6,49.56-51.36l-.48-.6c-1-.84-2-.48-3.36,1.2l-1.08-.24-1.08-.12c-21.48,16.44-43.08,32.76-64.8,48.72a76.79,76.79,0,0,1-32.88,13.92q-46.44,7.74-68.4-34.56-28.62-54.9-22.32-115.8l20.52-.72a103.29,103.29,0,0,1,18-1.56,539,539,0,0,0,122-14.64l.6-.84c3-5.88,2.4-11-1.92-15.36a41.46,41.46,0,0,1-10.44,2.4L256.68,284.28a399,399,0,0,1,33.6-108.84c13.68-28.92,34.08-51,61.2-66.48a13.69,13.69,0,0,1,8-1.8c21,1.8,32.4,13.68,34.2,35.4Zm175.8-10.08q-2.16-35.82-36.24-42.12c-22.2,3.6-39.72,14.76-52.8,33.48a90.27,90.27,0,0,0-15.84,41.64q-6.66,57.06,27,103.56,24.84,34.38,50.28,68.16A204,204,0,0,1,560,365.64c13.32,26.16,16.56,52.8,10,80A25.12,25.12,0,0,1,564,457c-22.68,24.84-51.6,38.76-87,41.76a709.68,709.68,0,0,1-155.52-4.08l-1.2.48a6,6,0,0,0-2.64,2.52l-.24.72a7.51,7.51,0,0,0-.36,3.24,15.38,15.38,0,0,0,.6,3.24q92.88,25.74,188.4,4.8c25.68-5.64,46-18.84,61-39.36a57.75,57.75,0,0,0,10.92-29.88q4-55.62-25.2-104.76a123.91,123.91,0,0,0-19.44-25.2,255.61,255.61,0,0,1-58.92-91.92c-8.28-22.44-8.28-44.64.24-66.6,9-23.16,25.32-38.28,49.2-45.48,20.16-6.12,32.52.84,37.2,20.64a129.36,129.36,0,0,1,2.88,41.52,25.31,25.31,0,0,0,3.6-8.64A97.78,97.78,0,0,0,569.76,132.24Z" transform="translate(-69.52 -81.24)"/></svg>