<svg id="Layer_1" data-name="Layer 1" xmlns="http://www.w3.org/2000/svg" viewBox="0 0 545.19 530.04"><defs><style>.cls-1{fill-rule:evenodd;}</style></defs><path class="cls-1" d="M276,428.28V434h1.92a277.15,277.15,0,0,0-22,64.08,425.57,425.57,0,0,0,30.12-64l48.6-1a411.67,411.67,0,0,0,22.68,91.68,151.62,151.62,0,0,0,6,14.4L340.44,433l8-.36a8,8,0,0,0,.36-6.24,12.72,12.72,0,0,0-1.32-2.52l-1-1-8.16.72-23.16-92.88a526.64,526.64,0,0,1-23.88,73.2c-3.36,8.16-6.84,16.2-10.56,24.12Zm41.16-74.76q8.64,35.1,15.72,70.56l-44.16,3.36q15.48-39.78,26.76-80.28ZM44.52,62.64q11.7,32.22,23,64.56A950.23,950.23,0,0,1,101.4,250.44a451.56,451.56,0,0,0,16.32,59.64,18.49,18.49,0,0,0,1.08-11.4q-13.14-62.28-32-123.12-19.26-61.74-41-121.2C43.56,56.4,43.2,59.16,44.52,62.64Zm150.84-5.28a4.62,4.62,0,0,0-3.24,1.92c-10,26.28-18.84,52.8-26.88,79.8q-18.18,61.38-31.68,123.84Q119.88,325.56,100.92,387,86.7,433.08,76,480c-4.68,20.28-9.12,40.68-13.56,61.2-2.52,11.64-1.68,21.6,2.28,30,1.2-6.12,2.16-12.36,3-18.72A697.59,697.59,0,0,1,94.56,427.2q19.26-61.2,34.08-123.36c7.32-31,15.12-61.8,23.16-92.52q16.2-61.74,34.56-123ZM323,83.28c-14.76-18.84-35.52-27.84-62.28-26.76A48.9,48.9,0,0,0,236.4,72.24a258.57,258.57,0,0,0-41.64,65.52c-7.32,16.68-14,33.72-20,50.88A670.12,670.12,0,0,0,153,265.56a447.33,447.33,0,0,0-7.68,45.36h-1.08l-.36,1.68a14.61,14.61,0,0,0,.12,4h.72a459.23,459.23,0,0,0-1.32,76.08A281,281,0,0,0,164.88,484Q180,520.32,212.52,541.8q26.1,17.1,55.92,7.56,49.68-16,45.36-64c-2.76,18.6-11.88,33.24-27.36,43.68a51.57,51.57,0,0,1-16.32,7.44q-45,11.16-75.72-24.36a175.29,175.29,0,0,1-37.56-71.88,318.71,318.71,0,0,1-6.6-123.84q53.46-1.62,107.28.48l.6-1.68a9.25,9.25,0,0,0-.6-6.48l-.72-.84-1.92-1.32q-52.2-.54-103.8,3.84l4.32-29.52a431.51,431.51,0,0,1,35.4-119.28,619.77,619.77,0,0,1,39.48-72.36,36.64,36.64,0,0,1,22-16.44q39.42-11,70.56,15.12A3.38,3.38,0,0,0,323,83.28Zm122-24.84c-1.8,1.32-2.52,3.48-2.4,6.6q2.88,63.9,5.16,128.16c1.56,43.08,1.8,86,.72,129.12l-3.6,129q-1.44,48.42-5.4,96.48V548l-2.16-2.88A88.45,88.45,0,0,1,422,511.32,506.38,506.38,0,0,0,394,422.52c20.88-20.28,31.32-45.6,31.44-76.2.12-19.08-8.52-30.24-26-33.48l-1.68.36c-8.4.48-14.64,3.36-18.6,8.52,1.68,2.28,4.44,2.64,8.4.84,15.24-6.84,25-3.36,29.16,10.32a80.79,80.79,0,0,1,2,40.44c-4.68,24.36-16.8,40.2-36.48,47.76l3.36-96.36c-1.56,2-2.4,4.8-2.76,8.28-2.28,29.88-4.08,59.76-5.64,89.76a95.61,95.61,0,0,1-12.48,2.52,8.47,8.47,0,0,0-.72,3.36,5.72,5.72,0,0,0,.48,2.4l.24.84,8.64.36,3.36-.24-1.32,29.4c-1,21.36-2.52,42.6-4.8,63.84-1.08,9.72.12,17.64,3.6,23.52Q378.84,501.42,381,453l.84-22.2a25.3,25.3,0,0,0,9.24-5.52l.72-.6a207.83,207.83,0,0,1,8.64,34.8q9.72,58.14,39.24,105.84a75.3,75.3,0,0,0,3.48,14.28l.84-7.68,4.92,7.08a4.33,4.33,0,0,0,1.2-4,63.9,63.9,0,0,0-4.92-16.56q4.32-48.24,5.52-97.44l2.76-129q1.44-64.44-1.68-129.12c-.72-16.32-1.08-32.52-1.08-48.72a746.4,746.4,0,0,0-4.32-83.88l2,5.16a290.24,290.24,0,0,1,17.28,46.68q17.46,62.1,29.16,125.4,11.52,62.64,26.88,124.56Q536.88,433.86,548,496.56c2.76,15.48,4.92,31.08,6.48,46.68,1.2,11.64,4.2,21.48,9.12,29.52a179.18,179.18,0,0,0-4.08-49.68Q545.7,460.8,531.24,398.52q-14.4-62.1-25.8-125.52-11.16-62.82-28.56-124.8c-1.2-4.2-2.16-8.4-3-12.48a239.1,239.1,0,0,0-28.44-74.16Zm135.6,43.32c1.44,42.6,2.28,85.44,2.64,128.28.36,43.08-.36,86-2.16,129.12s-3.6,86.16-5.64,129a611.78,611.78,0,0,1-6.6,64.68c-2,12.36-.84,22.92,3.36,31.56a9.35,9.35,0,0,0,2.16-5.64q6.84-63.72,9-128.16l4.32-129.12q2-64.08.6-129.12-1.44-64.44-5.76-128.28A201.64,201.64,0,0,0,580.68,101.76Z" transform="translate(-43.75 -54.36)"/></svg>