<svg id="Layer_1" data-name="Layer 1" xmlns="http://www.w3.org/2000/svg" viewBox="0 0 301.54 205.8"><defs><style>.cls-1{fill-rule:evenodd;}</style></defs><path class="cls-1" d="M282.24,293.28c-12.12,8.76-19.8,21.12-22.8,36.84a109.66,109.66,0,0,0,.48,44.64c3.84,17.88,14.76,26.64,32.76,26.4,20.64-.12,29-8.52,25.2-25.08a5.51,5.51,0,0,0-.84-1.92,50.94,50.94,0,0,1-29.52,13.56,35.65,35.65,0,0,1-8.76,0,54.67,54.67,0,0,1-14.52-28.08l-1.08-7.08,43.92.48a9.22,9.22,0,0,0,2.4-7.56,11.21,11.21,0,0,0-1.92-5.28l-.36-.36a89.39,89.39,0,0,0-43.56,1.68c1.32-17.76,9.6-30.36,25.08-37.8a38.46,38.46,0,0,1,21.12-3.36l5.52,2.88c1.32-7.32-1.56-11.88-8.88-13.92C298,286.92,289.92,288.24,282.24,293.28Zm-129.6-95.16A690.82,690.82,0,0,0,194.4,307.56c-4,13.92-7.8,28-11.4,42a166.18,166.18,0,0,1-7.44,22.2c-4.68,11.28-4.92,21.24-.72,30a208.91,208.91,0,0,0,12.24-36.36q13.14-54.54,31.08-106.92,10.62-30.78,18-60.36A97,97,0,0,0,220,227q-11.7,33.84-22,68.28-22.5-49.5-44-99.36C152.64,196.08,152.28,196.8,152.64,198.12Zm217.8,1.08q-8.82,30.06-5,63.36a236.85,236.85,0,0,1,1.44,32c-.24,10.68-.6,21.48-1.2,32.28q-.54,11-1.8,22A226.73,226.73,0,0,0,362,380a36.86,36.86,0,0,0,5.4,18.72l5.76-107.88,49.44.6c2.64-3.72,2.88-7.68.84-11.88l-.84-1.68a194.13,194.13,0,0,0-49.32,1.56l-2.16-69a185.36,185.36,0,0,0,66,6.6l14.64-1.68a9,9,0,0,0,2.16-7.32l-.72-3.24-.6-1.56-.36-.36a488.88,488.88,0,0,1-81.72-2.28Z" transform="translate(-152.51 -195.96)"/></svg>