<svg id="Layer_1" data-name="Layer 1" xmlns="http://www.w3.org/2000/svg" viewBox="0 0 309.96 216.7"><defs><style>.cls-1{fill-rule:evenodd;}</style></defs><path class="cls-1" d="M309.24,296.52c-6.84-7.68-14.64-9-23.28-4Q246.9,315.42,249.24,362c1.08,19.92,11.28,30.72,30.84,32.52a33,33,0,0,0,15.6-2.28c8.4-3.48,13.32-9.48,14.76-18.12a20.41,20.41,0,0,0-1.08-10.8H307l-2.64,3.84c-9.36,6.72-19.44,9.24-30.36,7.68q-20.52-3.06-17.64-27l.36-4.44,41.76-6.84a7.86,7.86,0,0,0,1.8-2.16,12.71,12.71,0,0,0,1.08-4.32,10.63,10.63,0,0,0-.72-4.68,12.82,12.82,0,0,0-2.4-4.32,102.33,102.33,0,0,0-34,6.12L260,328.8a36.2,36.2,0,0,1,15.72-20.4c10.68-6.72,22.08-7.56,34.08-2.4C312.12,302.52,311.88,299.28,309.24,296.52ZM153.12,202.68a284.91,284.91,0,0,0,21.12,47.16c8.88,16,18.12,31.32,27.6,45.84q-6.66,22.32-12.6,45c-2.76,10.2-6,20.28-9.72,30.12q-6.66,17.1.72,29.88a293.25,293.25,0,0,0,12.48-40.44,1031.13,1031.13,0,0,1,36.12-122,154.15,154.15,0,0,1,9.84-21.72c4.8-8.76,5.28-16.44,1.56-23.28A115.78,115.78,0,0,0,228,217.92q-13.14,35.1-24.12,70.92a772.76,772.76,0,0,0-48.6-91.08C153,198.36,152.28,200,153.12,202.68ZM456.6,196.2q-4.14,45.18-4.68,91.08a111.82,111.82,0,0,0-37.8,5.4c.48-22,.12-43.92-1.2-65.88h-.6c-2.4,24.84-4.32,49.92-5.64,75.48A406.15,406.15,0,0,1,398.4,366c-2.52,11.88-1.8,22.8,2,32.52A2.82,2.82,0,0,0,402,397a253.28,253.28,0,0,0,8-41.88c1.68-16.44,2.88-32.76,3.6-49.2a202.33,202.33,0,0,1,38.16-4.68v10.2a579.33,579.33,0,0,1-3.24,64.68c-1.32,12.24.12,22.92,4.32,31.92a3.7,3.7,0,0,0,.84-1.68,738.1,738.1,0,0,0,5.52-82l.12-23.28h1.2a9,9,0,0,0,2.16-5.4,14.91,14.91,0,0,0-1.44-7.2l-.84-.48-1.08-.24Q459,241.5,457,196.2Zm-35.4,9.24a11,11,0,0,0,.48-4.44l-.36-3.24-.48-1.56-.6-1.68a166.12,166.12,0,0,0-46.32-2.64,360.33,360.33,0,0,0-46.44,7.68l-9.36,2.28-.24,10.56L369,208.2a781.26,781.26,0,0,0-8.76,90.24q-1.26,36-5.76,71.52a60.07,60.07,0,0,0,4.32,31.8,561.28,561.28,0,0,0,10-97.44c.36-20.28,1.08-40.68,2.4-61.08a264.38,264.38,0,0,0-.12-35.16l48.6.24A8.38,8.38,0,0,0,421.2,205.44Z" transform="translate(-152.78 -191.3)"/></svg>