<svg id="Layer_1" data-name="Layer 1" xmlns="http://www.w3.org/2000/svg" viewBox="0 0 500.99 383.21"><defs><style>.cls-1{fill-rule:evenodd;}</style></defs><path class="cls-1" d="M105,188.52a350.23,350.23,0,0,1,19.32,60.72,62.3,62.3,0,0,0,6.24,17.28l-7.8,24.72q-18.9,61.56-39.6,122.52a185.48,185.48,0,0,1-13,30c-6.24,11.88-7,22.32-2,31.08q11.52-29.7,21.84-61,20.34-61,39.12-122.76l5.64-18.24a34.88,34.88,0,0,0,4,4.44,1.82,1.82,0,0,0,.36-1.56l-1.56-11.28q15.3-48.24,33.12-95.52a276.57,276.57,0,0,0,15.72-61c-8,19.32-15.72,39.48-23,60.24Q148.74,210,135,252.36a257.41,257.41,0,0,0-7.56-25.56q-21.78-61-44.88-119.88c-.72-.12-1.08.12-1,.72A352.77,352.77,0,0,0,105,188.52Zm168.24-76.44c-28,1.32-48.6,14.16-62.16,38.64A299.82,299.82,0,0,0,177,248.4c-3.48,20.4-6.24,40.92-8.52,61.44q-7.56,68.58,27.12,125.76c7,11.52,17,18.24,30.12,20.28,26.88,4.2,49.56-4.68,68-26.88a172.64,172.64,0,0,1,19.68-20c11.16-9.72,15.36-20.16,12.36-31.56-14.52,16.44-29.64,32.52-45.12,48-20.52,20.64-43.92,24.84-70,12.6q-27.9-29.34-32.28-69.12a424.83,424.83,0,0,1-1.2-75.12,24.55,24.55,0,0,0,9.36,0,77.78,77.78,0,0,1,26.88-.72c26,3.48,50.64-.12,73.56-10.56l1-2.52a17.19,17.19,0,0,0-.36-10.44l-.72-.6-4.44-1.32a2.66,2.66,0,0,0-1.44,1.56L278.88,273a16.75,16.75,0,0,1-8.88,3q-46.26,1.08-91.68,6.72c1.32-12.84,3.12-25.68,5.64-38.52a288.52,288.52,0,0,1,29-81.48c12.84-24.12,32.76-36.84,59.76-37.92l.48.48A210.3,210.3,0,0,0,300.6,151.8a4.83,4.83,0,0,0,.36-5A106.1,106.1,0,0,0,273.24,112.08Zm91.8,2.64A828.06,828.06,0,0,0,355.32,220,1072.41,1072.41,0,0,1,343.8,347.28a1014.78,1014.78,0,0,0-11,127.56A371.62,371.62,0,0,0,448.92,490c3.48-6.12,2.76-11.88-1.92-17l-1.92,1.44a304.78,304.78,0,0,1-107.64-13.8q4.14-45.72,10.44-91.08c5.88-42.12,10-84.48,12.48-127.32Q364.14,177.54,365,114.72Zm106.08,20q-1.26,34.38-3.24,69Q464.46,268,456,331.32q-4.14,32-11.4,63.6a137.7,137.7,0,0,0-2.52,48.24,10.91,10.91,0,0,0,4.32-3.48q59.4,2.7,117.72,1.32c3.36-7.56,2-13.68-4.08-18.6a378.14,378.14,0,0,1-112.8.72c3-14.76,5.64-29.64,7.8-44.64q8.82-63.36,14.64-127.32c4-42.84,5.88-85.32,6-127.44C472.8,126.12,471.24,129.84,471.12,134.76Z" transform="translate(-64.93 -106.89)"/></svg>