<svg id="Layer_1" data-name="Layer 1" xmlns="http://www.w3.org/2000/svg" viewBox="0 0 294.84 205.32"><defs><style>.cls-1{fill-rule:evenodd;}</style></defs><path class="cls-1" d="M302.16,310.56a2.78,2.78,0,0,0,1.68-2.28,8.91,8.91,0,0,0-.48-5,4,4,0,0,0-1.2-1.68q-18.18-20.88-39.24-4.32c-11.52,9-17.76,21.24-18.84,36.72a100.11,100.11,0,0,0,7.2,45.24c4.32,10.32,12.48,15,24.48,14.16,21.12-1.2,30-10.44,26.76-27.6q-20.34,19.8-43.92,8.16c-6.12-3-9.12-8.28-9-15.72V345l1,1.32,36.72-3.48a13.71,13.71,0,0,0,.48-11.28l-1.56-3.36a93.41,93.41,0,0,0-35.76,5.52c2.52-20.88,13.8-30,33.72-27.24A138.75,138.75,0,0,1,302.16,310.56Zm-57.6-114.12-38,90.24a345.78,345.78,0,0,0-52.8-91.32C152.64,207.48,156,219,163.8,230c8.28,11.88,16.08,24,23.4,36.6,5.4,9.24,10.92,18.24,16.56,27.24a307.55,307.55,0,0,0-29.16,106q29.16-88.38,68.52-181.2a30.67,30.67,0,0,0,2.4-14.88ZM378,204.84c-.72-.12-1.08.12-1,.72l.12,2.16a31.64,31.64,0,0,0-1.92,6.24L349.56,338a139.38,139.38,0,0,1-10,31q-7.92,17.46-1.44,31.68A681.07,681.07,0,0,0,367.32,288c3.12-18.48,7.08-36.84,11.88-55a455.28,455.28,0,0,0,14.16,73.56,33.37,33.37,0,0,0,3.24,14.52,480.19,480.19,0,0,1,18.72-60.72,249.86,249.86,0,0,0,11.28-38.88l.36,3c5.64,42.24,10,84.6,13.2,127.2a119.84,119.84,0,0,1,0,16.08c-.72,12.6,1.8,22.92,7.68,30.72A478.57,478.57,0,0,0,446,329.4q-6.3-63.72-16.08-126.48l-.48,1.08.48-4.56-.48.12c-11.16,30.12-22.2,60.48-33.12,91.32V291l-.6-3.72q-5.58-33.3-13.56-66c1.2-7.2.48-13.44-2.28-18.84l-1.8,3Z" transform="translate(-153.52 -195.36)"/></svg>