<svg id="Layer_1" data-name="Layer 1" xmlns="http://www.w3.org/2000/svg" viewBox="0 0 297.05 211.32"><defs><style>.cls-1{fill-rule:evenodd;}</style></defs><path class="cls-1" d="M165,399.84a602.71,602.71,0,0,0,35.52-85.08c10.44-31.32,22.08-62,34.92-92.4a51.34,51.34,0,0,0,4-26.76,970.07,970.07,0,0,0-40.2,98.28L155,191.88a124.4,124.4,0,0,0,9.84,41.64L182.4,275a190.13,190.13,0,0,0,14.16,26.76,420.54,420.54,0,0,1-22.68,58.44,93,93,0,0,0-9.36,39.36Zm188.28-1.2Q347.52,360.3,339,322.2a953.81,953.81,0,0,0-35.76-121.68A188.09,188.09,0,0,0,311.4,248c3.72,12.6,7.32,25.32,10.68,38.16a150.19,150.19,0,0,0-46.56,3.6Q287,258.66,298,227.28a85.65,85.65,0,0,0,5.28-30.6q-8.1,7.74-11.88,20.16Q272.82,277.5,250,336.12a105.83,105.83,0,0,1-11.52,21.48c-10.44,14.76-14.76,29.88-12.84,45.6A331.61,331.61,0,0,0,253.68,347l18.12-47.4a471.71,471.71,0,0,0,53.76.24c5.88,23.64,10.92,47.4,15.24,71.52C343,383,346.56,393,351.72,401.52A2.66,2.66,0,0,0,353.28,398.64ZM432.6,208.08A60.65,60.65,0,0,0,447.48,222l3,1.56c-1.08-12.72-7.2-22.08-18.6-28.08l-3.48-1.92C412,196.2,401.64,206,397.56,223.2c-3.72,15.24-.6,28.8,9.48,40.68A202,202,0,0,1,433,303.12a102.86,102.86,0,0,1,11,43.8c.36,17.88-8,28.92-25.32,32.88-16.92,3.84-29.52-.72-37.92-13.68a77.57,77.57,0,0,1-12.48-36.6c-7.08,13.32-7.56,27.36-1.56,42.36s16.44,23.76,31.44,26.52a48.27,48.27,0,0,0,26.64-3c16.68-6.6,25.68-19.56,27-39.12q3.42-52-33.36-89.28a44.65,44.65,0,0,1-13.32-35.52C406,216.72,414,208.92,429,208.2Z" transform="translate(-155.04 -191.88)"/></svg>