<svg id="Layer_1" data-name="Layer 1" xmlns="http://www.w3.org/2000/svg" viewBox="0 0 595.57 842.18"><defs><style>.cls-1{fill:#fff;}.cls-2{fill:none;stroke:#fff;stroke-linecap:round;stroke-linejoin:round;stroke-width:0.38px;}.cls-3{fill-rule:evenodd;}</style></defs><rect class="cls-1" x="0.31" y="0.31" width="595.08" height="841.68"/><rect class="cls-2" x="0.19" y="0.19" width="595.2" height="841.8"/><path class="cls-3" d="M258.72,295l21.6-87.12a419.45,419.45,0,0,0,9.84,85.56Zm22-92.76a38.86,38.86,0,0,0-8.52,16.56q-16.38,61.38-36.6,121.44a136.82,136.82,0,0,1-13.92,30c-7.08,11.52-8.16,21.84-3,31.08a665.2,665.2,0,0,0,31-77.28l5.52-17.16a160.73,160.73,0,0,0,37.08-.72L302.88,371c1.92,11.76,5.52,22,10.92,30.72a2.61,2.61,0,0,0,1.68-2.88c-3-25.32-7-50.88-12.12-76.44q-12.42-62.82-21.48-125.76-.72.18-.72.36Zm-50.88,7.32c-10.68,31.8-21,63.6-31,95.64A875.47,875.47,0,0,0,154,193.44q-2,.36-1.44,2.52A636.68,636.68,0,0,0,197,310.68l-6.48,21.12a244.72,244.72,0,0,1-11.4,30q-9.18,20-6.48,38.88a594.91,594.91,0,0,0,31.08-81.6q18.36-61.74,33.48-122.4A33.49,33.49,0,0,0,229.8,209.52Zm175.92-1c-3,42.72-5.76,85.44-8,128.28-.6,10.8-1.56,21.6-2.88,32.28a77.75,77.75,0,0,0,2.4,32.4,2.42,2.42,0,0,0,1.8-2.16q4.5-37.44,6.72-75.36l1.2-21.36c11.64-2,23.52-3.84,35.52-5.4q-2.34,43-6.84,85.44c-1.08,9.84.36,17.64,4.56,23.4a741.76,741.76,0,0,0,8.4-82.68L449.64,295a10.77,10.77,0,0,0,.36-9c.84-30.6,1-61,.48-90.84a357.52,357.52,0,0,0-6.36,59.52l-1,29.16a126.89,126.89,0,0,0-35.64,7q2-47.52,1.8-94.32A25.36,25.36,0,0,0,405.72,208.56ZM362,194.16c-13.8,6.12-22.08,17.88-24.72,35.16A72.7,72.7,0,0,0,344.76,275c7.08,13.68,14.4,27.12,22.2,40.44a81,81,0,0,1,11,45l-.24,4.8c-11.4,14-25.08,16.44-41,7.44-5.76-3.24-9.6-8.4-11.52-15.36a81,81,0,0,1-3-19.2l2.52-10.56-4.44,1.08Q307,362.34,331.8,388.32c8.28,8.52,18,10.44,29,5.52A43.34,43.34,0,0,0,379.44,378a37.26,37.26,0,0,0,6.72-19.68Q388,325.74,368.88,298a127.46,127.46,0,0,1-22.08-57.48q-4.5-38.7,28.2-23.76c6,2.76,9.6,7.32,10.68,13.56,3.72-19.08-3.6-31.2-22.08-36.48Z" transform="translate(0.19 0.19)"/></svg>