<svg id="Layer_1" data-name="Layer 1" xmlns="http://www.w3.org/2000/svg" viewBox="0 0 283.69 211.32"><defs><style>.cls-1{fill-rule:evenodd;}</style></defs><path class="cls-1" d="M277.68,289.32l-26.76,6.12,17.52-68ZM149.28,209.4Q168.54,258,189.36,304l-15.6,58.68a84.89,84.89,0,0,1-5.28,14.64c-4.32,9.12-3.84,16.8,1.44,22.92a109,109,0,0,0,8.4-23.52q14.4-61.74,33.12-122.4a279.93,279.93,0,0,0,11.76-61.92,347.9,347.9,0,0,0-16.56,47.28l-14.76,54.84a51.74,51.74,0,0,0-4.32-15.36c-12.12-26.64-24.48-52.92-36.84-78.84a1.27,1.27,0,0,0-1.56,1.08,12.67,12.67,0,0,0-.36,7.32Zm121.56-12.12a22.8,22.8,0,0,0-7,12.84q-13,62.1-30.36,122.76a204.13,204.13,0,0,1-11,30c-6.12,13.2-8.28,26.16-6.6,38.88a1.82,1.82,0,0,0,1.2-1.08,783.06,783.06,0,0,0,31.56-96.12v.12a61.06,61.06,0,0,0,30.84-2.88q4.86,33.84,8.64,67.68a80.89,80.89,0,0,0,9.48,31c1-.24,1.44-.72,1.32-1.56a565.6,565.6,0,0,0-8.28-71.52q-11-61-19.32-122.4C271.2,202.32,271.08,199.8,270.84,197.28Zm94.56,0L364,195.12A279,279,0,0,0,347.52,251c-2.76,15-6,29.88-9.48,44.88a454.52,454.52,0,0,1-12.6,43.68c-3.24,9.72-6.36,19.44-9.12,29.16A114.32,114.32,0,0,0,312,403.68l.6-.12a82.08,82.08,0,0,0,9-19.08q9.72-30.78,17.28-62.4,14.22-59.94,26.28-120.36A239.23,239.23,0,0,0,369,256.44a327.21,327.21,0,0,1,5.16,39,89.42,89.42,0,0,0,2.4,14.88,117.79,117.79,0,0,0,4,13.08,11.34,11.34,0,0,0,1.56,2.88l25.08-93q9.9,72.9,15.36,146.16a39.45,39.45,0,0,0,3.12,13,20.6,20.6,0,0,0,4.56,7l1.92,1.92a641.85,641.85,0,0,0-5.88-76.68q-7.74-55.08-13.68-110.52a84.32,84.32,0,0,1,0-17.4l-3.72,5.64-.6-4c-2.4,13.08-5.4,25.92-8.88,38.52-2.28,8.52-4.92,16.8-7.92,25.08a196.3,196.3,0,0,0-8.28,31l-17.52-98Z" transform="translate(-148.43 -192.36)"/></svg>