<svg id="Layer_1" data-name="Layer 1" xmlns="http://www.w3.org/2000/svg" viewBox="0 0 595.57 842.18"><defs><style>.cls-1{fill:#fff;}.cls-2{fill:none;stroke:#fff;stroke-linecap:round;stroke-linejoin:round;stroke-width:0.38px;}.cls-3{fill-rule:evenodd;}</style></defs><rect class="cls-1" x="0.31" y="0.31" width="595.08" height="841.68"/><rect class="cls-2" x="0.19" y="0.19" width="595.2" height="841.8"/><path class="cls-3" d="M286.92,292.68,251,297.12l23-74.16Zm38.88-96.24a23.44,23.44,0,0,0-7.92,7.8,111.58,111.58,0,0,0-16.8,62.28c.36,17.4,8,28.32,23,33a37.48,37.48,0,0,0,7.08-4.08c6.84-5.16,9.12-11.64,6.72-19.44a47.87,47.87,0,0,1-9.36,8.4c-2.52,1.56-4.8,1.8-6.84.6-11.16-6.36-16.44-16.44-16.08-30.48a185.79,185.79,0,0,0,28.44-5.28l.36-.84a9.7,9.7,0,0,0-.84-9.72A103.89,103.89,0,0,0,307,244a66.9,66.9,0,0,1,17.4-34.56l1.68-.48h8.88a15.6,15.6,0,0,1,5.28,6.6,5.93,5.93,0,0,0,1.8,2.88,13.74,13.74,0,0,0,1.68-7.92c-.48-5.88-3.48-10.44-9-13.44Zm-49.56-1.56H276L273.84,196c-4.2,12.6-8.16,25.2-12,37.8L224.4,355.68a82,82,0,0,1-6,14.52c-6,10.92-7.56,21.48-4.68,31.92a35.4,35.4,0,0,0,9.72-16.68q10.62-38,22.32-75.6l43.92-3.12,7,34.44q3.42,16,5.76,32c1.8,12.36,6.24,22.2,13.08,29.64a6.25,6.25,0,0,0,2.28-4.56,39.8,39.8,0,0,0-1.44-16q-8.64-29.7-14.76-59.88Q289.68,262.86,277,204.6A63.87,63.87,0,0,0,276.24,194.88Zm-40.92,1.32A1004.08,1004.08,0,0,0,201.6,300.84,749,749,0,0,0,155,192.72c-1.68.36-2.16,1.56-1.56,3.36a1163.84,1163.84,0,0,0,46,112.92l-.12.6a393.8,393.8,0,0,1-14.64,45.48,107.61,107.61,0,0,0-7.44,47c.84,0,1.44-.24,1.56-.6A332.15,332.15,0,0,0,196,350q15.3-62.46,34.92-123.24A106.71,106.71,0,0,0,236.16,196C235.8,195.84,235.44,195.84,235.32,196.2ZM430.8,232c8.16-11.52,12.24-23.28,12.12-35.28q-30.78,44.82-60.36,91a41.48,41.48,0,0,0-8,11,52.72,52.72,0,0,1-7,10.68,58.16,58.16,0,0,0-9.72,16.08c1.08-21.84,2.52-43.68,4.2-65.52a502.23,502.23,0,0,0,.84-64.32,533.78,533.78,0,0,0-9.36,77.88q-3.06,63.9-5.28,127.44a3.76,3.76,0,0,0,2.4,2.28,27.13,27.13,0,0,0,4.56-15.12l1.68-43.56Q373.62,317,391.44,290a770.69,770.69,0,0,0,43.08,113.88c3.72-5.4,4.2-11.52,1.2-18.12a426.12,426.12,0,0,1-19.8-52.92,483.66,483.66,0,0,0-18.84-51.48l15.36-22.92Z" transform="translate(0.19 0.19)"/></svg>