<svg id="Layer_1" data-name="Layer 1" xmlns="http://www.w3.org/2000/svg" viewBox="0 0 480.39 388.83"><defs><style>.cls-1{fill-rule:evenodd;}</style></defs><path class="cls-1" d="M263.16,211q-29.88,87.12-18,175.92,3.06,23.22,22,33.84a26.6,26.6,0,0,0,19.08,2.4l4.56-.84,6.48-2,4.32-1.2A71,71,0,0,0,315.72,412a86.48,86.48,0,0,0,20.88-19.32c4-5.16,4.8-10.56,2.4-16.44a178.48,178.48,0,0,1-42.24,26.64c-18.36,8.52-31.44,4.68-39.24-11.76a97.85,97.85,0,0,1-9.12-38.16A338.81,338.81,0,0,1,251,297.84a239,239,0,0,0,73.92-4l-.36-10.08a290.52,290.52,0,0,0-71.4,2.76c4.2-27.48,13.08-55.8,26.4-85.08,7.92-15.36,20-21.48,36.48-18.24,6.24,1.08,10,4.68,11,10.8,2.52-11.88-1.32-20.4-11.64-25.56a27.16,27.16,0,0,0-11.4-2.88Q274,179.46,263.16,211ZM208.08,107.64q-10.62,34.2-20.16,70.56-16,62.46-35.4,124.44l-1.08,3.24-.72-2.16a412.81,412.81,0,0,0-40-86.16A526.65,526.65,0,0,1,58,101.16c-1-.12-1.44.12-1.32.72a239.27,239.27,0,0,0,30.72,91.56A835.73,835.73,0,0,1,142.8,310.68a18.67,18.67,0,0,0,2.52,16.2,959.69,959.69,0,0,0-22.68,99.84,77.88,77.88,0,0,1-4.2,15.72c-6.12,16.2-7.68,32-4.56,47.52q1.26-.36,1.44-1.08,10.08-34.56,16.68-70.2,8.1-43,19.44-85.68l1.44-.48a4.83,4.83,0,0,0,1.08-2.4l.24-7.44,8.28-28.44q18.9-61.74,36.24-123.6A248.65,248.65,0,0,0,208.08,107.64Zm19.08,56.64q-7,47.16-10.08,95.64c-2.76,43.08-7.56,85.8-14.16,128.28q-2.88,18.18,4.32,31.68l.6-.84q8.1-63.36,14.76-127.32a967.8,967.8,0,0,0,4.92-127.44ZM460.8,156.6a117.94,117.94,0,0,1,52.8,31.92,26.09,26.09,0,0,1,6.72,12.36A345.72,345.72,0,0,1,528,320.64a57.15,57.15,0,0,1-3.84,15.6c-13.56,34.68-39.24,55.44-76.8,62.28l.48-3.84q6.48-63.54,10.44-127.56c2.28-37.08,3.12-74,2.4-110.64ZM455.88,144c-1.08-.12-1.68.48-1.92,1.56a9.87,9.87,0,0,0-.24,3.24l.24,2.52a12.08,12.08,0,0,0,4.32,4.2c-3.72,31.8-6.12,64.44-7.32,97.68a1142.54,1142.54,0,0,1-11.88,128.28,65.7,65.7,0,0,0-.48,17.4l-.84-.12-.6.72a21.28,21.28,0,0,0-2.28,8,9.76,9.76,0,0,0,2.88,8q49.32-4.68,80.4-43.8a43.58,43.58,0,0,0,8.28-16.68,330.2,330.2,0,0,0,10.2-99.36,230.53,230.53,0,0,0-7-47.4c-8.88-35.4-31.92-56.52-69.24-63.6l-.24-5.88-.72,5.76Zm-83.4-11.16q.18,37.8-2.76,77.76-4.68,64.26-11,128.16c-2,21.24-3.72,42.48-4.8,64A344.51,344.51,0,0,0,356.64,467l54.24-2c18.72-1.68,36.72-3.84,54-6.36l.24-.84a15.91,15.91,0,0,0-1.92-15.36l-1.08.72-.84.36c-34,.48-67.68,2.16-100.92,5,1.68-19.56,2.76-39.36,3.36-59.16,1.32-43,3.72-85.8,7.44-128.4,1.92-21.24,4-42.6,6.24-63.84a176.71,176.71,0,0,0-4.8-64.32Z" transform="translate(-56.62 -101.13)"/></svg>