<svg id="Layer_1" data-name="Layer 1" xmlns="http://www.w3.org/2000/svg" viewBox="0 0 299.52 206.4"><defs><style>.cls-1{fill-rule:evenodd;}</style></defs><path class="cls-1" d="M295.56,281.4l-7.92.84,4.8-13Zm54.6-58.2.48-4c-4.92-16.56-16-24.24-33.12-22.92-15.24,1.2-28,7.56-38.28,19.2a107.14,107.14,0,0,0-22.44,39.36,254.5,254.5,0,0,0-10.32,45,338,338,0,0,0-2.88,46.8c.24,17.16,7.56,30.24,21.84,39a66.33,66.33,0,0,0,45,9.24c17.4-2.4,28.8-11.52,34.2-27.24,2-6.12,2.28-11.76.6-16.68-8.64,15-21.84,23.76-39.72,26.16-15.36,2-29.28-1.2-41.64-9.72a15.69,15.69,0,0,1-6.48-9.84A186.18,186.18,0,0,1,253,318.48l.12-15.72L273,300.24v23.4l8.4-24.36,18.84-1.56,10.32,29.64c3.48-5.88,3.72-12.12,1-18.6l-4.92-11.4,26.4-.84a10.89,10.89,0,0,0,2.52-7.08,13.4,13.4,0,0,0-1.92-7.32l-.36-.48L301,281.16l-5.52-19.68,1.08-2.76L292.44,253,279,283.44l-24.36,6a101.29,101.29,0,0,1,25.08-57.72c12.12-13.8,27.12-20.52,45-20a32.85,32.85,0,0,1,20,7.32Zm-110-20q-17.46,44.28-32,90a68.7,68.7,0,0,0-14.16-29.88,61.17,61.17,0,0,1-8.28-13.68,220.3,220.3,0,0,0-30.84-51.48,2.31,2.31,0,0,0-1.92,1.56,11.23,11.23,0,0,0-.48,7.92l4,2.4,1.32,2.28a558.34,558.34,0,0,0,48.12,88.08L198,325.68q-4.68,15.66-10.44,30.6c-5.88,15.48-8.28,30.84-7.08,46.08a2.36,2.36,0,0,0,1.92-.72,26.46,26.46,0,0,0,6.6-11.88q16.92-61.92,37-122.64a318,318,0,0,1,11.76-30.36c6-13.08,8.52-26.16,7.44-39A8.7,8.7,0,0,0,240.12,203.16Zm145.2,82.56-2,1-1,.72-.48,1.68q.54-39.78-1.08-79.2c14.52-6.12,28.2-4.2,40.92,5.88q33.84,26.64,17.4,63c-15.6,11.64-33.12,13.8-52.68,6.72ZM379.2,196c-2.88,34.92-4.8,70.44-5.76,106.32l-1,24.24c-.36,5.4-.72,10.8-1.32,16.2q-1.62,16.38-2.16,33.12a50.25,50.25,0,0,0,4.92,22.92,789.51,789.51,0,0,0,8.16-100,59.37,59.37,0,0,0,38.16,3.6l6.24-1.68,3.84-1.32a26.69,26.69,0,0,0,6.6-3.48,31.42,31.42,0,0,0,11.16-13.8,36.25,36.25,0,0,0,2.64-9.36,48.36,48.36,0,0,0,.6-11,80.08,80.08,0,0,0-10-35.88q-21.06-38.34-57.48-27.48a10.71,10.71,0,0,0-3.48,1.8Z" transform="translate(-151.89 -195.96)"/></svg>