<svg id="Layer_1" data-name="Layer 1" xmlns="http://www.w3.org/2000/svg" viewBox="0 0 543.24 542.67"><defs><style>.cls-1{fill-rule:evenodd;}</style></defs><path class="cls-1" d="M215.76,336.6a22.79,22.79,0,0,1-1.08,7V469.32l-3.24,54.12,5.4-.84,4.92-1.08c19.8.24,30,.48,30.6.84l13.8-.24a5.48,5.48,0,0,1,1.56-2.4,4.75,4.75,0,0,1,3.12,4l.12,4.56-.12,4.44a7.28,7.28,0,0,1-3.12,4.8l-17-.48-29.16.24a8.81,8.81,0,0,1-3,1.08l-4.32.6c-4.56,0-7.32-2.28-8.16-6.84a15.53,15.53,0,0,1-.24-4.8l.24-2.52c0-26.16,1.08-46.68,3.24-61.68V335.64a12.88,12.88,0,0,1,1.08-4.08c.84-2.16,1.92-3.36,3.24-3.48A17,17,0,0,1,215.76,336.6Zm-97.44-1.32c0,7.08,1,26.4,2.76,58.2s2.64,54.84,2.64,69.24V484c-.24,9.48-1,16-2.16,19.68v52.8l-.12,3a4,4,0,0,1-3.12,3A115.93,115.93,0,0,1,116.4,545l-.24-17.52,2.16-64.92c0-11.64-.84-32.64-2.64-63.24s-2.76-52.2-2.76-65c0-10.44,1.44-16.56,4.32-18.12q3.06,3.78,2.52,9.72ZM163.08,40.56a13.44,13.44,0,0,1,.72,4.2c0,1.44-3.12,10.56-9.36,27.24q-14,37.44-22.32,61.44Q97.2,234.06,83.76,311.28q-27.18,156.06-50.4,265.2c-1.32-.48-2-1.68-2.4-3.72a36.11,36.11,0,0,1-.24-4.92q0-26.28,16.2-110.88,15.3-80.46,37.8-174.84L90,260a157,157,0,0,1-8.64-25.32c-4.32-16-7-25.32-7.92-28.2-6-18-11.28-36.36-16-55-2.28-9.24-8.4-30.6-18.12-64.2C30.84,58,26.52,42.48,26.52,41.16a16,16,0,0,1,.6-4.08,10.19,10.19,0,0,1,1.56-3.24c3.24,6.12,6.48,14.52,10,25.44l8.28,28.08c2.52,7.68,5.28,16.8,8,27.48L62,142.56l16.2,51C86.52,220.32,91.44,238.44,93,248q18.9-76.68,35.16-130.56c15-49.32,25.92-76.2,33-80.4A8,8,0,0,1,163.08,40.56ZM295.32,79.08a6.4,6.4,0,0,1-2.64,4c-.48-.36-1.68-2.16-3.48-5.4a68.66,68.66,0,0,0-6-9c-6.6-8-15-12.12-25-12.12C236,56.52,219.6,65,208.68,82.2c-4.08,6.36-7.8,14.64-11.28,24.72-2,5.88-4.68,14.52-7.92,26.16-2.4,8.28-6.72,21.36-12.84,39.24-5.4,16.2-8.88,29.28-10.44,39.36-3.72,23.16-6.84,48.72-9.6,76.68v.36l.24-.12q9.18-3.24,48.6-6.84l31.8-2.28q2.7.18,3.24,1.44a20.08,20.08,0,0,1,.24,4.08l-.12,4.92c-.36,1.2-1.8,2.16-4.32,2.76l-45.12,6.48-4.68.72-4.8.84-8.64-.48-6.84-.84q-6.66-.36-10.44,4.32l-1.08-.6V306l-.12,2,.12,1.68c-1.8,22.68-2.76,42.12-2.76,58.32l.48,31a508.26,508.26,0,0,0,6.84,65.16q16.74,94,63,94c31.32,0,54.84-10.92,70.8-32.76q17.28-23.76,23.4-67.44a10,10,0,0,1,4.2,6.48l.12,7.32c0,2.64-1.08,8.4-3.36,17.16a174.1,174.1,0,0,1-13.08,34.92q-25.56,49.68-71.76,49.68-23.94,0-39.24-10.08c-8.76-5.64-15.84-14.16-21.12-25.32-3.84-8-7.32-19-10.56-33l-7.8-33.36c-1.56-5-3.12-20.76-4.92-47.28-1.56-24.72-2.4-43.32-2.4-55.8q0-41.58,3.24-85c2.76-35.28,6.48-61.92,11.4-79.8l13.08-51c5.88-22.56,11.52-40.92,16.8-55C206.4,57,223.8,38.16,243.36,41.64q28.08-1.44,42.48,12.6a34.14,34.14,0,0,1,7.92,11.52A24.31,24.31,0,0,1,295.92,75,16.78,16.78,0,0,1,295.32,79.08Zm58.92,261a59.88,59.88,0,0,1-2.4,10.8l-4,13.44v65.76a297.37,297.37,0,0,0-2.88,32L343.56,495v41.4c-.6,2-1,7.56-1.2,16.32Q405.72,552,432,496.08a160.74,160.74,0,0,0,14.28-62.88,122,122,0,0,0-10.56-50.64q-19.44-43.74-67.08-43.68C361.92,338.88,357.12,339.24,354.24,340.08ZM429,351.24a59,59,0,0,1,10.08,16.56c5.16,13.56,8.52,24.6,10.2,33.24,1.68,8.4,2.52,19,2.52,31.8a151.06,151.06,0,0,1-3.72,34l-10.44,38.28q-8.46,30.6-48.12,49.8A163.75,163.75,0,0,1,360,565.8c-8.52,2.28-14.88,3.36-19.2,3.36a3,3,0,0,1-1.8-.6L338,570c-1.44-2.52-2.16-6-2.16-10.56,0-1.56.24-5.64.72-12q.72-10.62,1.44-17.28v-41.4l1.56-31.92a325.25,325.25,0,0,1,2.88-33V358.08l2.76-14.64,1.08-4L346,338.4a29.25,29.25,0,0,1-.24-4.08c0-3.84,1.08-6.6,3.24-8.4s5.88-2.4,10.92-2.28c9.12.36,26.52,4.68,52.08,12.84A66.94,66.94,0,0,1,429,351.24ZM351.48,182.16Q338,79,336.72,59.52q-8.46,38.7-24.6,118.08l-1.68,8,3.24.36,29.28-.48,1.32-.36,6.24-.72,1.2-.36Zm4.92,1.92h4.44a7.49,7.49,0,0,1,2.64,4.2,15.09,15.09,0,0,1,.6,4l-.12,3.24a4.23,4.23,0,0,1-2,2.52l-3.36,1.32,5.4,37.56c5.16,36,7.68,55.8,7.68,59.28l-.12,5.28A7.53,7.53,0,0,1,368.4,307a15.28,15.28,0,0,1-4.2-8.16l.12-7.68c0-6.36-3.48-36.6-10.56-91l-10.8,1-15.24.36-16.2.72h-4.8c-8.28,36.12-16.68,67.44-25,94-1.2-1.08-2.16-2.88-2.76-5.64l-.48-3.72c0-3,4.32-21.72,13.08-55.92l8.16-32.4-.6-1.2a11.79,11.79,0,0,1-1.08-3.84c0-2.64.48-4.44,1.44-5.52a7.13,7.13,0,0,1,3.24-1.8l5.88-24.6c5.16-27.72,9.24-48.48,12-62.28,4.92-24.12,10.44-44.4,16.32-61.08,3.72,6.84,6,16.92,6.84,30l.84,16.68a165.79,165.79,0,0,0,1.56,16.68c.84,7.56,2,18.24,3.84,32l4,32.88ZM415.2,47.64A39.86,39.86,0,0,1,423.12,59a49.11,49.11,0,0,1,4.32,11.28c3,12,4.92,20.28,5.64,24.72a139.55,139.55,0,0,1,1.32,21.12c0,6.84-1.08,15.12-3.12,25a194.62,194.62,0,0,1-8.52,29A109.89,109.89,0,0,1,413.4,190q6.12,21.78,20.28,58.44l11.88,30.12c3.48,8.76,5.16,13.56,5.16,14.64-.84,4.08-2.28,6.84-4.44,8.4-5.28-10.8-12.36-27.6-21.12-50.28-9.72-24.84-15.36-42.72-17.16-53.88-4.08,4.44-8.28,6.84-12.6,7v1.08l-1.32,27c-.6,10.8-1.32,19.68-2.4,26.64-.84,5.64-1.44,14.52-1.8,26.52-.84,10.8-3,19.32-6.36,25.68a18.15,18.15,0,0,1-2.16-9.24c0-12.12,1.2-29.88,3.6-53.4q4.14-37.08,5-49.32V110.16l1.08-4.08V63a28.84,28.84,0,0,0,.24-6.84l-.12-7.32a24.46,24.46,0,0,1,1-6.36q.18-7.38,4.32-6.84C399.72,36,406,40,415.2,47.64ZM398.28,52,398,55.08,396.6,69.24v43.08l-1.2,4.08v72.36l1.68-2,13-16.56q18.9-26.64,19-53.4c0-2.16-.36-6-1-11.4A212.8,212.8,0,0,0,424,83q-8.28-31.32-24.48-31.32ZM567.6,82l-6.12-7.2A81.53,81.53,0,0,0,550.8,64.08Q534.42,50,517,50q-37.62,0-48.6,26.88a53.15,53.15,0,0,0-3.6,28,106.32,106.32,0,0,0,8.76,42.36c4.32,9.84,11.4,21.84,21.36,36.12,14.76,21.24,23.4,33.84,25.92,38A230.19,230.19,0,0,1,543.72,269q11,32.22,18.48,78.84c5,31.32,7.56,59.52,7.56,84.36,0,13.92-.6,24-1.92,30.12L559,502.08q-5.4,25.92-37.44,47.4a143.53,143.53,0,0,1-23.76,13c-7.08,3-12.12,4.56-15.12,4.56-25.56,0-42-2.28-49.32-6.72-2.52-1.56-4-3.36-4.32-5.52V550.2a25.8,25.8,0,0,1,.36-5.28q.9-3.78,4-4.68c5,7.56,18,11.4,39,11.4q54,0,77.16-46.56,14.94-29.88,14.88-72.6,0-32.4-10.92-91.44c-6.84-37.32-13-61.68-18.12-73.08a411,411,0,0,0-27.24-50l-24.48-37.2c-8.16-12.84-14-24.36-17.52-34.32a127.18,127.18,0,0,1-6.72-41.88q0-39.78,17.28-57.6c9.48-10,22.2-14.28,37.92-12.84a75.78,75.78,0,0,1,37.92,14.4q17.28,12.24,17.28,24.12A20.64,20.64,0,0,1,567.6,82Z" transform="translate(-26.52 -33.81)"/></svg>