<svg id="Layer_1" data-name="Layer 1" xmlns="http://www.w3.org/2000/svg" viewBox="0 0 382.57 491.23"><defs><style>.cls-1{fill-rule:evenodd;}</style></defs><path class="cls-1" d="M247.68,528l-.72-.84-.48-.36a193.75,193.75,0,0,0-70.08.84l3.48-128.52c-6.6,14.16-9.24,29.64-8.16,46.32A385.42,385.42,0,0,1,172,491,278.47,278.47,0,0,0,173.4,538l1-1.92,73.68.84a10.81,10.81,0,0,0,.6-6.48A6,6,0,0,0,247.68,528ZM333.6,318q.36,54,1.56,107.88c.84,37.56-11.4,69.48-36.48,95.76-19.92,2.52-29.64-5.88-29.28-25.44.12-10.44.12-20.64,0-30.84-.6-42.72-.72-85.44-.12-128.16.12-12.12-1.08-22.56-3.84-31.44a174.29,174.29,0,0,0-4,40.56c.84,42.72,1.56,85.44,1.92,128.28,0,5.4-.24,10.68-.6,16.08-1.32,15,2.52,27.72,11.76,38.28a16.12,16.12,0,0,0,12,5.88c14.52.6,25.32-6.48,32.64-21.24q26.46-53.1,22.56-114.24a517.07,517.07,0,0,1-.12-64q1.08-18.9-7.2-32l-.48.36C330.48,308.16,330.36,313,333.6,318ZM168.36,269.4q.36-43.74-.24-86.52c14.64-3,25.2,2.28,31.56,15.6a37.4,37.4,0,0,1,3,23.4c-4,19.8-13.8,35-29.52,45.48l-1.08.84-.84.72ZM144.84,82.32q-9.9-34.74-47.4-33.12Q56,69,45.6,116.52A673,673,0,0,0,30,244.68q-1.08,40-1.56,80.28a1181,1181,0,0,0,5,127.44q3.24,36,31,59.52,32.4,27.72,62.16-2.16,4.14-4.14,7.92-8.64l-.84,11.76c-.72,11.16,1.2,20.4,5.64,27.48a32,32,0,0,0,3.36-16.2,267.24,267.24,0,0,1,1-35.4c6.36-9.84,7.44-19.08,3.24-27.6a239.32,239.32,0,0,0-1.32-48.24,206.87,206.87,0,0,0-24.36,2.52q-18.9,2.88-9.72,15.84A85.56,85.56,0,0,1,142,427.8c-2,16.2-3.84,32.4-5.4,48.72a102.39,102.39,0,0,1-20.76,23.16C104.52,508.92,92.28,510,79,502.8q-36-19.44-39.24-60.72c-3-40-4.56-80.16-4.8-120.84q-.36-63.36,4.92-125.88c1.08-13.92,2.4-27.84,4-41.64Q49,104.94,83.88,71.16A46.39,46.39,0,0,1,96.36,67c23.4-4,38.16,5,44,27.24l1.08.72a10.37,10.37,0,0,0,2.52.84l.72-.24A22.49,22.49,0,0,0,144.84,82.32Zm100.32,98.76a78.86,78.86,0,0,0-22.08,35.28,85.63,85.63,0,0,0-1.44,45.36c3.84,16,13.2,25.92,28,30.12,17.88,4.8,29.16-.12,34.08-14.76.6-1.56.12-3.24-1.2-4.8a42.1,42.1,0,0,1-18.6,9.72,24.89,24.89,0,0,1-20-3.36,40.47,40.47,0,0,1-18.6-27.48,52.13,52.13,0,0,1-1.2-11.52l49,2.28.48-9.24-49-2A48.16,48.16,0,0,1,234.84,205c8.28-10.68,19.32-15.84,33-15.6l5.16.12,9.24,4.32v-7.68a29.68,29.68,0,0,0-7.8-5.52,24.39,24.39,0,0,0-14.28-2.52l-4.44.84ZM208,205.44a33,33,0,0,0-6.84-16.8,30.7,30.7,0,0,0-6.6-6.48,56.81,56.81,0,0,0-6.72-4.2c-2.76-1.32-5.52-2.4-8.16-3.48L168,176.76l-1.32,1.56q-6.66,90.54-7.92,181.92l-.6,8-.36,3.6-.24,3.36a33.71,33.71,0,0,0,1,9.12A24.79,24.79,0,0,0,162,391.8,940,940,0,0,0,168.24,280l3.24.12,12.12-10.56A438.68,438.68,0,0,0,231.36,394.8L233.52,383a1050.34,1050.34,0,0,1-47.76-115.8,87.88,87.88,0,0,0,22-46.92l.24-2.16.24-2.28.12-2.16A46.8,46.8,0,0,0,208,205.44ZM197.16,67.68q-24.3,32.58-21,73.92a29.2,29.2,0,0,0,14.16,23.28,62.39,62.39,0,0,0,29.76,9.6c27.72,2,46.44-8.76,55.92-32.4a62,62,0,0,0,3.12-38.16c-6-25.8-21.84-41.88-47.52-48.48A78.87,78.87,0,0,0,197.16,67.68Zm17.88,2c10.08-4.44,20-5,29.76-1.8L243.6,72c14.52,6.6,24.48,17.64,29.64,32.88,5.4,15.84,2.4,29.4-8.88,40.56a66.89,66.89,0,0,1-38.76,19.32q-25.74,3.78-37.8-16.92c-8-14-9.36-28.8-3.84-44.52S199.8,76.44,215,69.72Zm172.68,244.2H390l2.52.24,2.52.24,4.92,3.48c2.52-4,2.16-7.56-1.08-10.92a19.19,19.19,0,0,0-15.72-6.6A84.9,84.9,0,0,0,362,338.76a88,88,0,0,0-2.64,18.6l-1.2,32.28-1.44,32c-.36,10.68-1.08,21.36-2,32a362.74,362.74,0,0,0-1.44,42.6c.36,18.12,8,30.12,22.92,35.88a20.66,20.66,0,0,0,17-.84c13.8-6.84,19.44-18,17.16-33.48l-1.8-1.8,1.08-8c-1.56,2.76-3.36,7.92-5.4,15.24A31,31,0,0,1,397.2,516c-7.68,5.88-15.72,6.72-24,2.4a11.58,11.58,0,0,1-6-6.6l-1.2-3.48-1.08-3.48L363,497.76a102.71,102.71,0,0,1-2.4-18.12,608.36,608.36,0,0,1,1.68-67.8l3.48,4.32,23-10.08a12.45,12.45,0,0,0,1.32-3.72,9.85,9.85,0,0,0-.24-4.2A11.13,11.13,0,0,0,388,394l-24.84,11.4-.6,1.44c-2.28-32.52,3.6-61.92,17.64-88.44C381.72,315.6,384.24,314.16,387.72,313.92ZM368.88,270.6a144.33,144.33,0,0,0-18.24-38l1.32-5A107.55,107.55,0,0,0,335.52,258q-2.34,6.66-5,13a491.44,491.44,0,0,0-20.16-79l-4.08-11c6.36,36.12,13.92,71.88,22.92,107.4a7.37,7.37,0,0,0,1.32,2.76l19.08-54.6,24.36,59.16A127.29,127.29,0,0,0,368.88,270.6ZM383.76,159a100.22,100.22,0,0,1-56,3.36c-13.32-2.88-20.88-10.8-22.44-23.76q-6.66-53.64,44-69.36c7.44-1.08,14.16-.24,20.28,2.76q29.16,18.9,34.2,52.92C406.32,142.08,399.72,153.36,383.76,159Zm22.08,17.4A448.22,448.22,0,0,0,374.4,293.64l34-111.24ZM375.84,66c-7.2-6.24-16-8.52-26.28-7q-29.16,4.86-42.48,31.8a99.92,99.92,0,0,0-10,38.16c-1.2,19.08,6.6,32.16,23.52,39.24q32.58,13.5,66.48.72c13.32-4.92,20.76-14.4,22.32-28.68,3.36-31.56-7.56-56-32.76-73.68Z" transform="translate(-28.32 -49.13)"/></svg>