<svg id="Layer_1" data-name="Layer 1" xmlns="http://www.w3.org/2000/svg" viewBox="0 0 563.88 571.2"><defs><style>.cls-1{fill-rule:evenodd;}</style></defs><path class="cls-1" d="M148.56,365a37.54,37.54,0,0,1,.24,4.92,28.87,28.87,0,0,1-.24,4.44,6.3,6.3,0,0,1-3,4.32V459.6l5.16-.6c5.16-.84,10.92-1.92,17-3.48,9.24-2.28,16.44-3.48,21.6-3.72.12-7.32.36-13.56.6-19V381.6l1.92-12.72c.84-5.4,2-9.24,3.48-11.52a5.31,5.31,0,0,1,3.12,3.84l.12,5.52a64,64,0,0,1-1.08,10.44l-2.16,11v49.44l-1.08,4.92v9.24l2,.36a4.11,4.11,0,0,1,3.12,2.76l.24,3.84c0,1.2-1.08,2.64-3.12,4.44l-2.28,1.68V567.6a13.86,13.86,0,0,1-2.16,5.64q-3.6-5.58-3.6-16.56.54-12.42.36-18.36c-.12-4.68-.24-11.64-.12-21.12l.12-14.64.24-34.8-1.8.84c-10,4.2-22,6.36-35.76,6.36l-6-.12c-.24,3.24-.84,7.68-1.8,13.44-.72,5.88-.48,10.68.72,14.64V550.8a113.42,113.42,0,0,0-.6,12.48c-.12,5.64-1.08,10-3.12,13.2-3.6-4.44-5.16-11.76-4.68-22.08,1.32-11.64,1.92-19.92,1.92-24.72,0-6.24.24-17.4.84-33.36.48-13.8.84-22.8,1.2-26.76a11.32,11.32,0,0,1-1-3.36,27.26,27.26,0,0,1,.24-4.56l.84-.84V369.72l1.56-4.8c.72-2.4,1.44-4,2.28-4.68A6.23,6.23,0,0,1,148.56,365Zm-22-302.52a63,63,0,0,0-13.44-19.08C101.64,32,86.88,26.28,69,26.28q-11.88,0-23,17.64A126.74,126.74,0,0,0,34.08,68.76C29.64,80.4,26.4,94.44,24.36,111c-1.08,9.6-2.28,23.52-3.36,41.64-1.32,20.28-2.28,34.44-3.12,42.72V249a207.88,207.88,0,0,1,.72,33.12c-.48,8.28-1.44,19.32-2.88,33.24V373.8a147.14,147.14,0,0,1,0,30.84V451a37.29,37.29,0,0,0-1.08,7.68c0,5.28.24,10.68.6,16.08a185.93,185.93,0,0,0,4.8,30.6C27.36,534,40.68,548.4,59.76,548.4c18.84,0,33.12-7.56,42.6-22.8a60.2,60.2,0,0,0,7-15.72L110.4,505l.36-4.08-.84-5a51.1,51.1,0,0,1-1.08-6.72A12.81,12.81,0,0,1,111,481.8l1.44,2q2.34-23.22,4-33.12h-8.16a62.87,62.87,0,0,1-18.48,5.76l-11.88,1c-3,0-4.8-1.32-5.64-4.08L72,448.92a19.5,19.5,0,0,1,1.08-4.44,20.12,20.12,0,0,1,2.16-4.92c.24,0,.72.36,1.44,1.2a3.65,3.65,0,0,0,2.76,1.2,13.51,13.51,0,0,0,4.32-1L89,439a59.6,59.6,0,0,1,20.28-3.48V435l10.32.24c1.44,3.72,2.16,8.64,2.16,15,0,6.72-1.8,26.88-5.28,60.6-3.24,31.2-5.4,50.88-6.6,59.16-1.8-1.56-2.88-4.68-3.24-9.48l-.12-7.56c0-2.28.36-8,1.2-17.52-8.4,18.84-20.52,28.32-36.36,28.32q-42.66,0-56.52-51.12a169.13,169.13,0,0,1-5.52-36l-.12-18a69.53,69.53,0,0,1,1.08-14.16V400.56c.12-7.8.24-19.2.12-34.2l-.12-22.2c0-21.48,0-34.92.12-40.32.24-9.24,1-25.68,2-49.2V190.56c2.76-37.8,7-76.32,12.36-115.32q5.22-36.72,23-52.2c9.84-8.64,21.84-11.76,35.88-9.48a67.1,67.1,0,0,1,33.24,16c9.72,8.52,14.52,16.56,14.52,24.36a10.7,10.7,0,0,1-1.2,3.6A11.11,11.11,0,0,1,126.6,62.52ZM321.48,209.16c-3.72-8.64-12.36-10.8-25.68-6.6a40.63,40.63,0,0,0-19,12.84,52.16,52.16,0,0,0-9.72,16.32,265.08,265.08,0,0,0-9.36,31c-2.52,10.2-4.56,20.4-6.12,30.72-4,25.44-6.72,45.6-8.52,60.36-3,25.08-4.44,46.08-4.44,63.12l-.12,22.56a384.51,384.51,0,0,0,3.36,48q9.72,69.3,41.64,69.24c10.2,0,20.64-8.52,31.56-25.68a146,146,0,0,0,10-18.24c2.4-5.16,3.72-8.28,4-9.6,1.2-5.64,3.24-14.28,6-26.16l6.24-26.64c.36-2.4,1.56-18.48,3.6-48.12,2-31.08,3.12-50.4,3.12-57.72,0-25.8-1-46.68-2.88-62.88a338.94,338.94,0,0,0-14.4-64.2,27,27,0,0,0-.12,4.8l-1.44-2.76a38.31,38.31,0,0,0-7.2-9ZM212.64,126.84a99.88,99.88,0,0,1-10.44,20.88c-6.6,9.84-14.16,17-22.44,21.72l5,32.52c3.24,21.24,6,37.68,8.16,49.2,1.8,9.72,6.6,28.8,14.4,57q10.8,39.06,10.8,40.68a13.59,13.59,0,0,1-.72,4.32,10.59,10.59,0,0,1-2,3.84q-9.54-21.06-24.84-86.64-16-68-16.8-98.16a51.86,51.86,0,0,1-17.88,3.12l-8.76-.12c-1.92,22.92-3.12,44.88-3.72,66.12l-.72,28.56c-.36,11.16-.84,20.88-1.56,29-2,22.2-6.24,41.4-12.84,57.84-1.44-2.52-2.16-6.24-2.16-11.4l6.24-46.44q6.12-47.16,5.64-66.24a487.13,487.13,0,0,1,2-55.92l.24-1.68h-.12A13.43,13.43,0,0,1,138,167.4c0-4.08.36-6.36,1.08-7l2.64-.36c1.32-11,2.88-24.12,4.92-39.36v-56a79.74,79.74,0,0,0,1.08-12.24L148,39.72c.36-10.44,2.28-18.24,5.76-23.52a3.2,3.2,0,0,1,2.16,1.44A7.48,7.48,0,0,1,157,16.2q37.62-.18,51.72,41.88C213.6,72.84,216,91.2,216,113.28,216,116.16,214.92,120.72,212.64,126.84Zm-35.64,26V153a66.07,66.07,0,0,0,19.2-15.24,70,70,0,0,0,10.68-16c2-4.44,3.12-7.32,3.12-8.88,0-19-2.16-34.68-6.48-47.28q-12.6-36.54-46.2-34.56c-.6,10.2-2.4,23.16-5.28,39v55.2c-1.32,11.76-2.52,23.28-3.6,34.68a68,68,0,0,0,28.32-7ZM336.12,38.16A43.82,43.82,0,0,1,335,31.8a22.28,22.28,0,0,1,.72-5.76c.6-2.52,1.68-4.08,3-4.44,2.28,1.56,3.6,5.28,4,11a77.43,77.43,0,0,1-.12,9.12Q344.76,77,338.28,108q-12.78,60.84-56.88,60.84-37.8,0-47.76-28.08A57.11,57.11,0,0,1,230.4,121l.72-10a499.21,499.21,0,0,1,3-51c2.64-25.44,6-39.24,10-41.28a14.56,14.56,0,0,1,2.16,7.2c-1.56,9.24-3.24,19.2-4.92,29.88-3.24,21.36-4.8,39.72-4.8,55q0,13.5,4,22.32c6.12,13.32,17.88,20,35.52,20,19.32,0,33.24-4.08,41.64-12.36,7.92-7.68,13-21.12,15.24-40.32.6-3.72,1.44-13.44,2.64-29.16C336.6,56.4,337.2,47.4,337.2,44.4A40.74,40.74,0,0,0,336.12,38.16ZM353.4,344c0,7.56-1.2,28.56-3.72,62.88l-3.84,51.6c-.6,11.16-3,23.4-7,36.84A221,221,0,0,1,324,532.2c-6.12,12-12.6,21.48-19.32,28.56-7.32,7.56-14.16,11.4-20.52,11.4-15.24,0-27.6-12.72-37.32-38a163.07,163.07,0,0,1-7.92-26.76c-1.56-7.08-2.4-11.52-2.4-13.08,0-8.76-.6-21.72-1.68-39s-1.56-30.24-1.56-38.52l.12-49.8c.36-20.52,1.2-38.4,2.76-53.88q6.3-63,28.44-95.64,28.62-41.94,48.72-34.2c10.92,4.2,19.92,19.08,26.76,44.76q7.38,28.26,11,71.16C352.68,317,353.4,331.92,353.4,344Zm19.44,39.72a24.26,24.26,0,0,1,1.08,6.6c0,5.16-1.2,17.4-3.6,36.84-2.52,20-3.84,31.08-4,32.88-.6,13.32-1.68,26-3.36,38.16a232.77,232.77,0,0,0-2,31.32c0,6,2.4,13,7.08,20.88,5,8.4,10.92,14.52,17.52,18.48,21.72,2.4,37.44-10.44,47.4-38.64a148.92,148.92,0,0,0,7.2-33.24c1.08-9.72,1.44-17.52,1-23.4-.6-6.48-1-14.28-1.08-23.52V425.76c.72-3.72,1-11.64.84-23.52-.12-10.32.84-18.12,2.88-23.52a9.34,9.34,0,0,1,2.76,5.64v41.4a37.8,37.8,0,0,0-.36,9.48l.36,7.2-.24,3.48a9.85,9.85,0,0,0,.24,3.36V500.4c-.36,1.44-1.56,8.28-3.6,20.64a125.29,125.29,0,0,1-5.16,21.24Q428.94,567.12,403.2,584H384.84c-13.44-12.72-21.84-22.44-25.2-29a32.3,32.3,0,0,1-3.36-11.4,97.28,97.28,0,0,1-.72-13.92q0-32.4,4.44-87.48c3.24-39.72,6.24-61,9.12-63.48C370.56,379,371.76,380.64,372.84,383.76Zm79.92-196.68A33.41,33.41,0,0,1,453,192q-14.76,140.22-29.76,183.12c-5-13.56-9.84-31-14.28-52.44q-7-35.82-11.16-53.64h-.24l-3.84,26.76c-1.56,10.68-3.12,19.68-4.68,26.88-4.32,20.52-10.92,38-19.92,52.8-3.84-5.52-5.88-12.6-6-21.24.6-9.72.6-17.16,0-22.08a197,197,0,0,1-.84-21.24c0-11.28-.12-18.6-.24-21.84-.12-4.44-2.16-19.2-6.12-44.4q-5.76-36.9-5.76-42.48a12.7,12.7,0,0,1,2.16-7.2c5.16,10.92,8.64,24.12,10.68,39.72.36,2.52,1.44,16,3.36,40.56.84,11.28,1.68,24.84,2.52,40.56l1.56,40.44c4.56-12.72,8-23.28,10.56-31.56a204.94,204.94,0,0,0,7.08-32.88q5.76-50.94,10.8-64.44,2,9.18,11.28,62.16,6.84,39.06,13.56,63.36c3.84-17.4,8-45.84,12.72-85.08Q443.1,211,449.76,183A5.62,5.62,0,0,1,452.76,187.08Zm11-152.4a14.11,14.11,0,0,1-.48,4.08q-.9,3.24-3.24,3.24a10.78,10.78,0,0,1-4.92-1.92c-2.28-1.32-3.6-1.92-4.08-1.92l-12,.24-10.44.6q-27.9,3.78-47.52,37.8l-2.76,5.28,20.4-1,40.68-1.56V79l7.08.36a15,15,0,0,1,2.16,7.32,14.56,14.56,0,0,1-2.16,7.2l-20,1.32-15.12,1.2-11.64.24-12.24.84-15.84-.24-2.4,6.72q-4,12.78-4,20.52A28.91,28.91,0,0,0,370,140.76c6.6,10,18.72,14.88,36.48,14.88s30.84-3.72,38.76-11a36.21,36.21,0,0,0,6.48-8c1.8-2.64,3.12-4.2,4-4.56a12.89,12.89,0,0,1,2.76,8.16c0,1.32-.84,3.6-2.52,6.72a50.64,50.64,0,0,1-7.2,10.44c-8.16,9.12-17.4,13.68-27.6,13.68q-46.62,0-58.44-23a31.94,31.94,0,0,1-3.6-16l.84-7.92c0-6.48,1.2-14.4,3.48-23.64l3-10.92a14,14,0,0,1,2.16-7h.36c1.8-4.56,3.72-9,5.88-13.32,13.32-26.28,31.68-41.52,55-46v-.6c15.6-1.56,25.92,0,31.08,4.44C463.32,29.4,464.4,31.92,463.8,34.68Zm31.44-4.32c0,2.64-1.2,15-3.72,37l-6,51.48c-1.2,10.2-2.16,24.84-2.88,43.68-.84,20-1.68,34.56-2.64,43.8v94.2q-1.26,13.86-2.88,50.4-1.44,32.4-3.6,51.12v59.16c-1,11.88-2.16,29.28-3.72,52.44L466,565.68l32.16,2.16,8.16-.24,2.4-1.68,42.12-1.44c9.24-.36,14.52-1.56,15.84-3.36.36-3,1.2-5.4,2.76-7.08a6.6,6.6,0,0,1,3.48,4.32,33.41,33.41,0,0,1,.24,4.92c0,5.88-1.2,10.32-3.72,13.44-17.64,1.44-29.4,3.12-35.16,4.92-3.36,1.08-13,1.56-28.8,1.56l-42.72-2.4c-1.08-1-1.8-3.24-2-6.84l-.12-7.32c0-17.16.84-35,2.4-53.4,2.28-22.32,4-41.52,5.16-57.48V397.32c1.08-9.36,2-26.16,2.64-50.28.6-21.84,1.92-38.88,3.84-51.12V202.56q2.34-60.66,4.56-90.72,3.6-52,13.92-88.8A15,15,0,0,1,495.24,30.36Z" transform="translate(-9.24 -12.84)"/></svg>