<svg id="Layer_1" data-name="Layer 1" xmlns="http://www.w3.org/2000/svg" viewBox="0 0 524.28 386.49"><defs><style>.cls-1{fill-rule:evenodd;}</style></defs><path class="cls-1" d="M127.08,87.48a53.21,53.21,0,0,1,25.56,13.08c6.84,6.36,10.32,12.6,10.32,18.72l-1,6.12a28.09,28.09,0,0,1-1.8,6.12l-1.08-7.92a32.66,32.66,0,0,0-4-11.52c-6-10-18.12-14.88-36.36-14.88C99,97.2,82,108,67.92,129.48c-11.4,17.4-20.76,41.4-27.84,72.12a552.14,552.14,0,0,0-11.76,75.12c-1.56,17.16-2.4,30.84-2.4,40.8Q25.92,369,42,406.08,61.62,451.8,98.76,451.8c18.6,0,34.8-3.6,48.36-10.92,7.8-4.2,13.68-9,17.52-14.52l.6-7.08,3.36-38.16.24-.6-7.56.84c-15.24,0-24.48-.6-27.6-1.92-1.08-.36-1.68-1-1.56-1.8l.48-2.16v-2.64c.36-.84,1.44-1.32,3.24-1.68,4.2-.72,15.84-1,35.16-.6,1.32,1.92,1.92,4.92,1.92,8.88l-1,17.16-.72,11.52.84-.48c1.8.72,3,2.4,3.84,5a13.5,13.5,0,0,1,.84,4.8c0,1.68-1.08,4.8-3.36,9.36l-3.72,6.6-.48,5.76c-1.56,15.72-3,25.92-4.44,30.36-1.56-1.32-2.4-3.84-2.4-7.32,0-3.84.36-10.56,1.08-20.28L162.36,443q-20,22.5-50.88,22.56-56.16,0-78.72-62.88a200,200,0,0,1-10-43.2L21.36,339.6c0-21.72,1.32-47.28,4-76.44,3-34,6.72-56.4,10.92-67.56,1.8-4.44,3.6-10.2,5.64-17.16l5.28-18.24c4.44-15,9.48-27.36,15.12-36.84,9-15.48,19.56-26.16,31.92-32A50.87,50.87,0,0,1,127.08,87.48Zm92.76,23.16c14.76-16.44,28.56-20.76,41.52-13.2,10.68,6.24,20.52,20.4,29.28,42.6,7,17.4,12.72,38.16,17.4,62,3.72,19.68,5.64,34.56,5.64,44.76v11.88c-.12,8.52-.48,17.28-1,26.28A603.54,603.54,0,0,1,304,361.68c-5.88,31.92-14.28,57-25,75.12q-20,33.84-49.68,33.84c-25.56,0-42.36-16.92-50.16-50.76a181.41,181.41,0,0,1-4.44-36.24l.12-19.08q0-16.2,1.08-24.12V286.08c1.2-9.24,2.52-24.36,3.84-45.12,1.32-20,2.76-35.28,4.32-45.84C189.24,159.72,201.24,131.52,219.84,110.64Zm-12.12,36c-1.2,4.92-4,12.72-8.4,23.52s-7.08,18.84-8.4,24.36c-2.64,11.4-4.92,27.36-6.72,47.76-2.16,24.36-3.84,40.44-5,48.12v54.36c-.72,4.2-1.08,10.68-1.08,19.32q0,9.36.36,16.92a198.66,198.66,0,0,0,4.44,32.64q10.44,45.9,38.88,46,31.32,0,52.08-32.4,16.74-26.1,25.92-71.76,6.66-32.94,8.76-72.84l.84-25v-10.8q0-14.22-4-37.44A325.73,325.73,0,0,0,293,160.32c-6.12-18.12-13.2-32.16-21-42.12-9.24-11.64-19.08-17-29.76-16.2a46.83,46.83,0,0,0-25.2,20.16Q211.14,131.34,207.72,146.64ZM459.84,99c0,10.92-4,43.92-11.88,99.24l-12.72,85.92q-7,58.68-12.36,91.92c-5.64,33.48-12.36,64.2-20.4,92.16l-1.08.84q-15.84-26.1-20.64-68l-3.12-34.8a289,289,0,0,0-5.16-34.44h-.24L366.48,365c-2.28,13.92-4.44,25.2-6.24,33.84-5.64,26.4-13.56,49.2-23.52,68.28h-1.56l-2.64-91.32c-1.2-34-2.64-64.44-4.44-91.2q-.9-14.58-12.12-95.76-10.62-77.58-10.56-86a13.38,13.38,0,0,1,.36-3.24l1-2.4q8.46,39.6,15.12,87.84,4.86,36.9,10.08,89c2.28,23.64,3.84,53.28,4.56,88.68l1.92,89a628.91,628.91,0,0,0,22.68-84.72,596.66,596.66,0,0,0,10.32-86.52l.6-.48,1.32-1.08q4.68,63.54,7.8,87.6,6.48,49,19.8,87.36c7.8-39.72,13.68-69.72,17.4-90,6.6-35.28,11.16-65.64,13.92-91.2,1.08-10.32,3.36-25.44,6.72-45.48,3.72-21.72,6-36.84,7.08-45.48.84-5.88,1.44-13.32,2-22.32l1.44-23.16c1.44-18.84,3.84-33.6,7.08-44C458.76,93.36,459.84,95.52,459.84,99Zm85.2,1a6.61,6.61,0,0,1,.6,3,11.15,11.15,0,0,1-.6,3.48l-1.56,2.64H498.24a22.47,22.47,0,0,0-7-1.92l-7.8-1.44c-3.72-.72-6.36-1.92-7.68-3.6.48,4.68.84,9.6,1,15l.12,25.44-.6,17-1.56,25.2v41.4l.24.24v1.8l-1.56,23.64a42,42,0,0,1,6.6-1c4.92-.36,18.36-.6,40.44-.84A7,7,0,0,1,522.6,253a5.91,5.91,0,0,1,.84,2.64l.24,2.52a1.77,1.77,0,0,1-1.32,1.92c-2.28,1.08-9.48,1.68-21.36,1.68l-27.6-1.08-.6-.24q-11,156.24-22.44,212.4c-.84-.84-1.44-2.64-1.92-5.28a23.37,23.37,0,0,1-.48-4.44c0-1.08,2.28-17.76,6.72-50,4.68-34.2,7.56-57.24,8.4-69.12-.24-16.44.6-36.24,2.52-59.64,2.52-26.52,4.32-46.32,5.4-59.64V180c1.44-10.68,2.16-25.92,2.28-45.72.12-22.68.48-37,1-42.84l.6,3.24v-.12c.36-.48,1.2-.6,2.52-.24L484.68,96l14.16,2.28,44.64-.6Z" transform="translate(-21.36 -86.31)"/></svg>