<svg id="Layer_1" data-name="Layer 1" xmlns="http://www.w3.org/2000/svg" viewBox="0 0 562.32 466.96"><defs><style>.cls-1{fill-rule:evenodd;}</style></defs><path class="cls-1" d="M155.28,145.08c0-1.2-.72-3.72-2-7.44a67.68,67.68,0,0,0-6.48-12.84c-7.56-11.64-16.44-16.32-26.64-14.16l-7.32-.48q-.54,14.22-7.2,72.12h1c12.72,0,24.6-5.64,35.52-16.92a74.5,74.5,0,0,0,9.84-12.6C154.2,149,155.28,146.4,155.28,145.08ZM108,102.84c0-4.2,1.92-6.48,5.64-7q4.86-.54,13,2.88a79.66,79.66,0,0,1,14.4,8.16q7,4.86,9.72,8.64c3.72,7,6.24,12,7.32,15a42.26,42.26,0,0,1,2.4,14.16q0,3.24-2.52,10.44a73.89,73.89,0,0,1-8.52,17.16c-5.88,8.76-12.72,15.12-20.64,19l31.8,44.88c17.28,24.12,25.92,37.32,25.92,39.36A10.17,10.17,0,0,1,186,279a9.28,9.28,0,0,1-2,3.12c-10.2-11.52-21.24-25.32-33.36-41.52q-25-33.3-28.08-46.8a50.09,50.09,0,0,1-14.28,1.92l-4.08-.48c-5.16,45.36-9.12,75-11.64,89-2-.36-3.24-1.32-3.72-2.76a12,12,0,0,1-.36-3.72q0-15.48,8.28-84.72,7.56-63.18,12.6-85.56l-.6-1A9,9,0,0,1,108,102.84Zm87.6,1.32a47,47,0,0,1,3.84,19.32,20,20,0,0,1-1.92,9.36c-1.8-2.88-3.48-7.2-5-13.08a88.05,88.05,0,0,0-5.28-15.36c-2.28-4.44-6.72-9.12-13.56-14-11.16-8-24.48-12.12-40-12.12q-42.66,0-67.44,53.88A222.42,222.42,0,0,0,52.08,174a240,240,0,0,0-5.28,28.8l-9.48,61.32c-4.44,28-6.72,49.2-6.72,63.72q0,52.74,11,91.8,22.5,79,82.92,79c28.44,0,51.24-8,68.64-24.12A75.06,75.06,0,0,0,207.48,457c2.76-4.8,4.08-8.16,4.08-10.08l-3.6-4.32c-2.4-2.76-3.6-5-3.6-7.08a23.49,23.49,0,0,1,.12-3.6,4.49,4.49,0,0,1,2.76-3.12l6.84,9.6v-5l1.68-8.4a56.69,56.69,0,0,0,1.56-9.48,17.59,17.59,0,0,0-.48-4l-.6-3.36-15.6,3.72c-7.8,1.68-12.6,2.52-14.52,2.52L157.44,413a9.4,9.4,0,0,1-1.8-6,10.46,10.46,0,0,1,.48-3.6,8.82,8.82,0,0,1,1.92-3.12l12.36.48,7.44.36c10.2,0,17.52-.84,21.72-2.64l4.68-2a32.06,32.06,0,0,1,6.84-1.56l8.16.24,2.76,12,.12,8.28-.12,9.24-3.12,12.72v68.16a11.59,11.59,0,0,1-1.8,4.92,9.06,9.06,0,0,1-3.24-4,8.53,8.53,0,0,1-.84-3.36,25.56,25.56,0,0,1,.24-3.24l.84-2.4V457l-.84,2.16a80.83,80.83,0,0,1-13.44,22.44q-25.92,30.24-75.36,30.24c-23.4,0-43-9-58.44-26.88q-18.9-21.6-29.16-60Q25.68,383.7,25.68,328c0-23.4,2.28-50.28,7-80.88l13.92-81.72a145,145,0,0,1,13.08-40.68A171.39,171.39,0,0,1,87.36,84.12q20.7-22.5,53.4-18.36a95.2,95.2,0,0,1,24.72,6.84,74.31,74.31,0,0,1,17.16,10Q192.9,97.86,195.6,104.16Zm358.32,209c-9.48,5.4-16.56,25.56-21.36,60.72-1.32,10.08-2.52,20.28-3.36,30.6L540.12,402c12.36-3.36,20.4-3.84,24.12-1.56a4.94,4.94,0,0,1,2.16,3.24v2.76a6.82,6.82,0,0,1-4.08,6.6c-4.44,2.28-13.32,3.48-26.52,3.48l-7.32-.12Q527.4,433.86,527.4,452V462.6c.12,7.44.48,14.16,1.08,20.28,2.16,19.08,6.72,28.68,13.8,28.68,13.32,0,22.8-5.16,28.44-15.6a47.07,47.07,0,0,0,4.44-12l1.44-8.16L578,475a10.53,10.53,0,0,1,2.88,4.92,19.61,19.61,0,0,1,.6,4.32c0,1.08-.72,3.48-2,7.32a80.72,80.72,0,0,1-6.36,13.8c-7.56,13-16.8,19.44-27.6,19.44q-17.46,0-22-36a225.13,225.13,0,0,1-1.32-24.84l.24-11.52c0-33.24,1.44-60.6,4.44-81.84,4.92-36.48,13.92-60.12,27.24-70.92q18.9-1.44,27,10.8a26.84,26.84,0,0,1,4.68,15.24,24.25,24.25,0,0,1-.24,4.08,6,6,0,0,1-3.84,4.32c-.6-1-1-2.76-1.32-5.52a29.8,29.8,0,0,0-1.44-7.08c-2.16-5.64-8-8.52-17.52-8.52Zm-48.6-4.32a11.1,11.1,0,0,1,1.56,6.36,10.17,10.17,0,0,1-.48,3.48,25.69,25.69,0,0,1-1.44,3.36,6.47,6.47,0,0,1-4.68-4c-1.08-2.28-2.16-3.72-3.48-4.08l-11,.24c-8.16,11.88-13.08,26-14.76,42.72-.48,4.92-.84,12.12-1.08,21.36-.24,9.6-.6,16.68-1,21.12l-4.8,42.36a395.76,395.76,0,0,0-2.76,41.76c0,14,3,23.64,9.12,28.8h11.16c5.16-1.8,10.2-8,15.36-18.84,4.56-9.72,6.84-17,6.84-22.2a14.85,14.85,0,0,0-1.44-4.56l-1.56-3.48a15.66,15.66,0,0,1,.24-3.24,4.45,4.45,0,0,1,2.76-3.24l2.4,2.64V447.12a7.4,7.4,0,0,1-4.08.84l-17.88-.24a10.4,10.4,0,0,1-1.8-6.48,14.44,14.44,0,0,1,.84-5.52q1.8-4.14,6.48-1.8v.72l3.48-.72,5.64-.84c9.36,0,14.16,3.12,14.52,9.36a23.08,23.08,0,0,1-1.08,7.44,36.05,36.05,0,0,0-1.2,5.16V478.2c0,4.8-.36,14.4-1.2,28.92-.84,15-1.44,23.4-1.8,25-2.28-1.8-3.36-4.8-3.36-9.24a80.8,80.8,0,0,1,1.44-10.2V488a114.43,114.43,0,0,1-4.44,12.6q-8.46,20.16-20.16,25.2c-11.88,1.08-19.56-4.8-23.16-17.76a58.41,58.41,0,0,1-2-14.76v-9.48c0-14.76.72-30.12,2.28-46.2.84-10.08,2.64-25.68,5.28-46.8.48-3.48,1-12.72,1.56-27.72.6-13.32,1.44-23.64,2.76-31.08,4.2-23.64,14.16-34,30.12-31.08Q504.06,306.54,505.32,308.88ZM358.08,171.12c.48,16.68.6,33.84.48,51.36q0,11.16-4.92,75.24-4.32,56.34-5.88,72.84-1.62,17.82-9.72,42.84a360.87,360.87,0,0,1-18.84,47.4c-7.68,16.08-15.24,28.92-22.8,38.52C288.12,509.76,281,515,274.92,515q-28.26,0-34.92-63a441.35,441.35,0,0,1-1.8-45.84l.72-26c0-30.36.12-50.88.36-61.44.36-16.08,1.32-30.6,2.64-43.44,1.32-12.6,3.72-28.8,7.2-48.48,1.8-10.32,6.6-35.88,14.16-76.56,1.92-12.84,3.72-22.56,5.28-29,2.76-11.16,6.84-20.52,12.36-27.84L285.48,87a37.59,37.59,0,0,1,8.88-8.16c9.48-6.12,20.52-6.12,33.12.12,8.52,3.72,14.52,8.4,18,13.8A33.58,33.58,0,0,1,349,100l2.52,7.68C355,117,357.12,138.12,358.08,171.12Zm-6.6-35.64c-.24-7.2-1.08-13.2-2.64-18Q342.36,96.6,315,86.88c-18.6-1.32-31.8,8.76-39.84,30.24q-5.76,15.66-7.56,41.76l-7.2,36.6c-3.12,15.72-5.28,28.08-6.6,37.08q-5.58,40.86-7.92,75.12-2,32-2,72.24l-.36,19.44c-.12,15.24.36,29.28,1.44,41.88q4.86,60.66,23.76,60.6c18.84,0,36.24-19.92,52.44-59.64a383,383,0,0,0,15.36-46.44,276.87,276.87,0,0,0,7-32.52q2-14.94,6.12-73.68c2.76-38.28,4.08-60.6,4.08-67.08V195.12c-.24-18.84-.72-33-1.56-42.72ZM456.72,72.12a4.91,4.91,0,0,1,2.28-.36c2,0,3.12,1.68,3.48,4.92a18.56,18.56,0,0,1,0,5.16l-6.24,112.32Q449.58,309.9,448.44,350v47.88A268.52,268.52,0,0,1,433.56,470q-14.94,41.76-35.28,41.76-15.12,0-23.76-29.16A151.31,151.31,0,0,1,370.08,462a81.33,81.33,0,0,1-1.2-10.2A46.78,46.78,0,0,1,370,440.4V380.28c.36-1.8.72-4.8,1.08-8.88s.72-7.08,1.08-9V306.48l8-118.2,7.92-117.6c1.56.12,2.64,1.08,3.36,3.12a14.68,14.68,0,0,1,.72,4.92q0,28.8-7.32,126.6-7.74,102.78-7.92,106.2v56q-.54,2.88-1.08,9c-.36,4.08-.72,7.08-1.08,8.88v60.84l-.6,2.52a10.11,10.11,0,0,0-.48,3.24,55.49,55.49,0,0,0,1.8,8.52,152.57,152.57,0,0,0,4.68,15.84c5.16,14.76,10.2,22.2,14.88,22.2q27.36,0,40.2-48.36a258.48,258.48,0,0,0,6.36-35.64l1.92-21.6V345.12q1.26-61.38,5-136.32,2.7-50.22,7.92-136.32ZM528.48,88.8a11.52,11.52,0,0,1-.72,4,8.05,8.05,0,0,1-3.36,4.44c-.24-.84-1.2-1.68-2.76-2.76a14.39,14.39,0,0,0-7.8-2.16c-13.68,0-23.4,11.4-29.28,34.32a165.87,165.87,0,0,0-4.08,24.72c-.48,4.68-.84,9.24-1,13.44l-4.2,40.44c-2,19.8-3.12,30.48-3.12,32.16,0,3.36,1.32,8.88,4.08,16.56C479.88,264,484,269,488.4,269c10.56,0,20.4-5.52,29.4-16.44a122.41,122.41,0,0,0,9.12-13.2l6.12-9.84A11.12,11.12,0,0,1,535,236c0,.6-1.2,3.12-3.48,7.68a166.45,166.45,0,0,1-9.24,15.84c-10.2,15.24-19.68,22.8-28.68,22.8-11.28,0-19.08-7.56-23.28-22.56a83.14,83.14,0,0,1-2.64-15.48l-.36-7.32c0-8.88.84-21.12,2.64-36.72,1.92-17.28,4.44-33.84,7.44-49.8q12.24-63,28.08-71.52c10.68.24,17.52,1.44,20.76,3.72C527.76,83.76,528.48,85.8,528.48,88.8Zm30.36.12a112.65,112.65,0,0,1-3.24,26.4v47l-.72,21.6a63.06,63.06,0,0,0,13.68,1.8l8-.72a37,37,0,0,0,6.6-1.68V84.72a6,6,0,0,1,.6-1.8,7.78,7.78,0,0,1,2.28-2.52,283.84,283.84,0,0,1,1.8,28.44L588,137l-.12,22.08c-.12,14.76-.48,26.16-1,34v85.2l-.6,2.88a6,6,0,0,1-3.48,3.12,12.13,12.13,0,0,1-1.56-3.6A28.86,28.86,0,0,1,581,277a20.39,20.39,0,0,1,1.08-6.48V198l-2.76.24-4.56.72c-10.08-.12-16.68-1.32-19.68-3.6l-.48-.36c-.24,12.72-.6,22.92-1.2,30.48-.6,6.48-1,16.8-1.32,30.84-.6,12.6-2.28,23-4.92,31.2-1.32-2.52-1.92-6.24-1.92-10.92,0-17.88.48-37.56,1.56-59.28.84-16,2-35.76,3.84-59.52V110.64l1.8-16c.6-6.36,2.16-11.16,4.44-14.28A16.59,16.59,0,0,1,558.84,88.92Z" transform="translate(-25.68 -65.12)"/></svg>