<svg id="Layer_1" data-name="Layer 1" xmlns="http://www.w3.org/2000/svg" viewBox="0 0 595.57 842.18"><defs><style>.cls-1{fill:#fff;}.cls-2{fill:none;stroke:#fff;stroke-linecap:round;stroke-linejoin:round;stroke-width:0.38px;}.cls-3{fill-rule:evenodd;}</style></defs><rect class="cls-1" x="0.31" y="0.31" width="595.08" height="841.68"/><rect class="cls-2" x="0.19" y="0.19" width="595.2" height="841.8"/><path class="cls-3" d="M174.48,217.32a15.72,15.72,0,0,1,7.68-7.08c19.56-8.28,35.76-3.84,48.36,13.32v5.64a13.05,13.05,0,0,0,.84,4.8l.72,1.68a6.91,6.91,0,0,0,2.4-6.6c-2.52-25.32-18-37.8-46.2-37.44a27,27,0,0,0-14.52,13.92Q147.84,261,148.44,324.12c.12,7.8,0,15.36-.24,22.68q-.72,39.6,32,59,38,2.16,58-28.68a106.31,106.31,0,0,0,1.44,30.36c5.4-4,7-9.12,4.44-15.72l4.56-37.2c1.8-13.8.84-26.16-3-37a90.33,90.33,0,0,0-32.4,5.64l-.48,1a10.06,10.06,0,0,0,1,9.6,110.15,110.15,0,0,1,29.52-3.48l-.72,10.8-1.2-2.16a8.09,8.09,0,0,0-3.48,6.24q-3.42,35.46-41,42.84a34.34,34.34,0,0,1-15.24-.24c-11.64-2.76-18.72-9.72-21.12-20.88a270,270,0,0,1-1.32-104.76A157.69,157.69,0,0,1,174.48,217.32ZM385.8,284.16c-.12-25.92-1.08-51.72-2.64-77.4,20.64-2.28,35.52,4.92,44.52,21.36,8.64,15.72,7.32,29.64-4.08,42Q407.94,287.22,385.8,284.16Zm26.76,9.72c13.32,5.28,22.8,14.64,28.44,28.2a65.5,65.5,0,0,1,3,44.28c-2.76,10-9,17-18.72,21.36-14.16,6.36-28.32,6.36-42.6,0l3.12-90A45.74,45.74,0,0,0,412.56,293.88Zm-30.24-99.36a402.88,402.88,0,0,0-4.8,90.84l.12,7.92-1.32,78.84q-.18,9.9,0,19.8a64.53,64.53,0,0,0,.84,8.28l1.32-.84a36.77,36.77,0,0,0,35.64,9.24A67.85,67.85,0,0,0,431,402l3.72-2.4a36.74,36.74,0,0,0,10.56-10.08A61.27,61.27,0,0,0,457,351.24c-.84-27.84-12.6-49-35.52-63.24a57.73,57.73,0,0,0,15.72-22.32,56.48,56.48,0,0,0,2.28-7.68,49.66,49.66,0,0,0,.12-16.32l-.84-5.16a47.52,47.52,0,0,0-9-20.64c-10.8-14.28-25.2-21.12-43.32-20.28l-3.12,2.28Zm-30.84-1.8a228.23,228.23,0,0,0-1,47c.84,10,1.68,19.92,2.76,29.88q6.84,66.24-37.32,112.08a51.09,51.09,0,0,1-26.16,6.84,18.87,18.87,0,0,1-11.52-11.88,107.11,107.11,0,0,1-4.8-47.52,782.35,782.35,0,0,0,4.92-126.72,43.6,43.6,0,0,0-3.72,16.68c-1.56,42.84-4.08,85.56-7.8,128.28-1.32,15.48,1.56,29.52,8.64,42.36,8,14.4,19.2,17.16,33.6,8.4,28.68-17.52,44.4-43.68,47.4-78.6a571.41,571.41,0,0,0-3.12-128.28A1.54,1.54,0,0,0,351.48,192.72Z" transform="translate(0.19 0.19)"/></svg>