<svg id="Layer_1" data-name="Layer 1" xmlns="http://www.w3.org/2000/svg" viewBox="0 0 529.65 336.6"><defs><style>.cls-1{fill-rule:evenodd;}</style></defs><path class="cls-1" d="M97.2,308.52a484,484,0,0,0,57.48.24l-2.16,69a159.37,159.37,0,0,0,6.6,52.44,2.55,2.55,0,0,0,1.2-1.56,40.38,40.38,0,0,0,2.28-17.76,403.57,403.57,0,0,1-1.08-59,211.26,211.26,0,0,0-4.08-56l-1.68-.24-17.28-.84a290.31,290.31,0,0,1-41,4.8l-.48.84a10.94,10.94,0,0,0-.12,7.32Zm55.56-168.36q-3.6-34.2-37-37.56a77.89,77.89,0,0,0-33.48,23.16q-34.92,40.5-41,93A533.44,533.44,0,0,0,41.88,347,115.67,115.67,0,0,0,66.6,406.2q19.62,25,46.32,7.68A117,117,0,0,0,140,389.4q21.78-26.82,3.36-50a19.33,19.33,0,0,1,1.08,6.48,31.54,31.54,0,0,1-1.56,9.12Q131.22,388.8,99,403.2a12,12,0,0,1-10.32,0q-35.46-16-40.8-56.16A465.93,465.93,0,0,1,48,221.76Q54.84,171.18,91.56,134a43.1,43.1,0,0,1,13.68-9.48q32.58-14.4,42.24,18.36l.6.72,2.64,2.76.48-.24A9.23,9.23,0,0,0,152.76,140.16ZM281.88,176.4A175.36,175.36,0,0,1,317,260.64c4.68,34.68-4.44,64.68-27.36,89.76-6.12,6.6-13.08,8-21.12,4.2-18.48-9-29.88-24.24-34.2-45.48a390.9,390.9,0,0,1-6.84-53c-1.92-34.92,8.28-65.16,30.6-91a12.65,12.65,0,0,1,12.12,2.64,10.12,10.12,0,0,0,7.32,6A7.23,7.23,0,0,1,281.88,176.4ZM235.32,184a238.12,238.12,0,0,0-7.8,126.72,106.53,106.53,0,0,0,30.36,55.56,18.15,18.15,0,0,0,16.2,5c17-2.64,29.16-12.84,36.48-30.48q25.56-61.74,3.72-125.4L303,184c-5.88-15.84-16.32-25-31.08-27.24l-.6-.84a14.08,14.08,0,0,0-12.72-4.56A66,66,0,0,0,235.32,184ZM189,146.16l1.08,71.4c.6,42.84.24,85.92-.84,129.12a431.59,431.59,0,0,0,2.88,64.08,303.89,303.89,0,0,0,85.44-1.68l.48-.84a29.83,29.83,0,0,0,1.44-12.12l-.48-.36-2.52-2.64-3.12-.24a233.2,233.2,0,0,1-76.92.48,188.66,188.66,0,0,0,.72-20.28c-.48-43.08-.72-86.16-.72-129q-.18-65-2.52-128.28C190.44,124.8,188.88,135,189,146.16Zm252.48,41.28a126.46,126.46,0,0,0-12,45.6c-1.08,14-1.44,28.2-1.32,42.36.12,15.6.84,31.08,2.16,46.56,1.8,20.64,10.56,30.24,26.28,28.92a26.11,26.11,0,0,0,19.8-10.56,51.62,51.62,0,0,0,11.4-39.12,154.32,154.32,0,0,1-29.76,39l-9.48-.36-5.64-4.8a219.25,219.25,0,0,1-10-66.72l1.56,3.36A163.75,163.75,0,0,0,481.2,246.6l.48-.24.72-6.84-3.84-.72a147.66,147.66,0,0,0-45.36,24l-.24,1.56a108.52,108.52,0,0,1,11-64.56,52.57,52.57,0,0,1,16-19.2,16.86,16.86,0,0,1,8.28-3.48,19.29,19.29,0,0,1,11,1.8l4.56,2.4c1.44-5.88,0-11.16-4.2-15.84a21.76,21.76,0,0,0-4.92-3.84C459.6,163.92,448.56,172.56,441.48,187.44ZM428.64,93.72c-4.44,40.68-9.12,81.6-13.92,123-1.92,16-3.36,32-4.32,48a1175.72,1175.72,0,0,1-14,127.08,299.89,299.89,0,0,1-9.48-47.28q-7.74-64.26-18.36-127.44a1.71,1.71,0,0,0-1.2,1,256.49,256.49,0,0,0-5,49.32,1078.4,1078.4,0,0,1-7.8,126.6q-7.56-59.22-17.64-117.84c-2.76-16-6-31.68-9.84-47.4a1172.65,1172.65,0,0,1-23.76-127.8c-2.28,7.44-2.88,15.72-1.92,24.84a581.54,581.54,0,0,0,12.48,74q14.58,63,24.48,127c3.24,21.36,5.64,42.84,7.2,64.32.84,12.12,3.84,22.56,9,31.56a57,57,0,0,0,6.24-20.28q7.38-63.18,9.36-127.44,6.84,39.78,11,80.16a231.47,231.47,0,0,0,15.48,63.24,216.16,216.16,0,0,0,11.64-53.52l7.44-79.44q5.76-63.9,13.68-127.56a244.45,244.45,0,0,0-.24-64.2ZM560.52,151a43.56,43.56,0,0,0-8.4-23.88l-2.4-3a28.51,28.51,0,0,0-6.12-5.28,41.86,41.86,0,0,0-11.4-6.12,85.77,85.77,0,0,0-9.48-2.76l-9.48,1.32L504.12,118l.36,8,6.84-2.88a1093.58,1093.58,0,0,0-10.08,115.44l-9.36,4.2.24,10.32c2.52,2,5.28,2,8.28-.24Q496.08,332.4,488,410.4a14.52,14.52,0,0,0,1.2,7.32,716.26,716.26,0,0,0,18.84-169.08l7.2-4.56Q534.9,328.14,558.36,412a41.93,41.93,0,0,0,9,16.68A792.93,792.93,0,0,0,541.92,314.4c-7.32-24.36-15.12-48.6-23.4-72.48,21.24-15.48,34.56-36.12,39.84-62.16a120.68,120.68,0,0,0,2.16-18.84V151Zm-7.32-1.32q2.34,57.06-44,84.6,4-55.8,3.36-111.6c11.52-4.8,22.32-2.16,32.28,7.92A28.44,28.44,0,0,1,553.2,149.64Z" transform="translate(-37.71 -93.6)"/></svg>