<svg id="Layer_1" data-name="Layer 1" xmlns="http://www.w3.org/2000/svg" viewBox="0 0 468.99 360.6"><defs><style>.cls-1{fill-rule:evenodd;}</style></defs><path class="cls-1" d="M158.52,134q-4-34.56-39.48-34.68A54.07,54.07,0,0,0,89.28,115c-19.44,19.32-33,42.72-40.56,70A424.57,424.57,0,0,0,33.24,312.84q1.08,31.68,4.68,62.64A99.33,99.33,0,0,0,60.6,428.76q25.56,30.78,59,8.4L139.2,423.6a53.51,53.51,0,0,0,9.6-8.88c-1.56,16.08-.36,31.2,3.72,45.24l.6-.48c2.4-35.64,3-71.16,1.92-106.32a211.44,211.44,0,0,0-35.76,3.72l-.36.84a9,9,0,0,0,.12,5.64,183.21,183.21,0,0,0,33.48,1.92c-.36,9.36-1,18.6-1.68,27.84-3,3.72-6.24,7.56-10,11.4a96,96,0,0,1-28.56,21.12q-35.46,17.28-55.32-18A121.88,121.88,0,0,1,42.6,365a413.33,413.33,0,0,1,2-127A341.1,341.1,0,0,1,70.2,154.8c9.24-20,24.24-33.36,45.12-39.72,15.24-4.68,26.4-.72,33.36,11.76a139.1,139.1,0,0,1,9.24,19.8A33.82,33.82,0,0,0,158.52,134Zm145.56,58.32c-.84,43.08-2.28,86-4.2,129.12-.48,10.8-1.44,21.6-2.76,32.28-1.68,12.12-.24,22.8,4.32,31.8a2.59,2.59,0,0,0,.72-1.68q3.24-46.44,6-93.24a1173.8,1173.8,0,0,0,.6-128.28A97.69,97.69,0,0,0,304.08,192.36Zm-56.76-52.8a93.48,93.48,0,0,1,13.32,42.12,102.17,102.17,0,0,1-7.92,46.44,103.37,103.37,0,0,1-27.24,37.56A42.92,42.92,0,0,1,201,276.48q7.56-80.82,9-162.12C226.2,116.88,238.68,125.28,247.32,139.56Zm-40.68-36.24a2.94,2.94,0,0,0-1.44,2.16l-.36,1.68V108a15.8,15.8,0,0,0,.48,4.08l1.08.72a69.31,69.31,0,0,0-2.52,16.2q-2.7,63.9-7.68,127.44L194.4,280l-.24,2.28q-4.32,51.3-9.72,102.6a359.47,359.47,0,0,0-1.08,64.08,2.47,2.47,0,0,0,1.56-1.2q5-44.82,9.12-90l5.88-67.8,5.64.48a81.06,81.06,0,0,0,20.16-11.88Q239.58,337.38,250,397.68q5.58,32.4,13,62.28l1-.72a46.93,46.93,0,0,0,3.72-17.64l-.12-.84c-.84-.12-1.44.48-1.56,1.68a181.83,181.83,0,0,0-3.48-25.56q-2.7-13.5-5-27A900,900,0,0,0,229.56,275l4.8-5q45.9-52.38,26.76-119.4c-7.56-26.64-24.6-42.24-50.88-46.68v-1.08l-.48,1Zm277.56,41.4a18.15,18.15,0,0,0-12.36-1.8,53.42,53.42,0,0,0-21.6,21,260.22,260.22,0,0,0-26.88,66.48,413.68,413.68,0,0,0-11.64,127.08A52.56,52.56,0,0,0,423,387.72c10.2,13.32,23.28,16.92,39,10.8a70.08,70.08,0,0,0,36.12-30.36c5.64-9.48,5.16-17.28-1.32-23.4a79.91,79.91,0,0,1-23.52,29.4c-20.16,15.72-37.44,14.4-52-4.2a210.42,210.42,0,0,1-3.84-60.12c1-11.88,2.28-23.64,3.84-35.4l49-2.16.72-.72c3.72-4.68,3.84-9.6.36-14.52-17.64-1.08-33.72,1.2-48.48,6.72l2.52-15.12c6.36-34.68,20.76-65.16,43.44-91.44q16.74-4.86,24.12,9c1.92-2.52,2.28-5.64,1-9.36a28.11,28.11,0,0,0-7.44-11.28Zm-131.64-25.8Q349.5,158,347.88,199.2q-2.52,64.26-5.64,128.28-3.06,64.26-4.56,128.16c.6,2,1.68,2.52,3.48,1.68,3.48-29.16,5.64-58.56,6.24-88.44.48-19.8,1.08-39.6,1.92-59.28l4.44-1.08a32.53,32.53,0,0,0,7.68-3.72q30.06-20.34,41.76-55.68a161.62,161.62,0,0,0,8.28-56.76c-1.08-35.76-15.12-64.44-41.88-86a19.86,19.86,0,0,0-16,2.76,22.51,22.51,0,0,0-1.2,5.64A24.22,24.22,0,0,0,352.56,118.92Zm34.56,15.48a85.94,85.94,0,0,1,11.52,23.88q19.26,63.18-19.08,115.8a49,49,0,0,1-29.4,19.68c.84-17.76,1.8-35.4,3-53a917.47,917.47,0,0,0,.48-120.48C367.56,117,378.72,121.8,387.12,134.4Z" transform="translate(-33.04 -99.36)"/></svg>