<svg id="Layer_1" data-name="Layer 1" xmlns="http://www.w3.org/2000/svg" viewBox="0 0 548.86 499.37"><defs><style>.cls-1{fill-rule:evenodd;}</style></defs><path class="cls-1" d="M335.88,403.92q16.74,36.9,4.68,76c-8.64,27.72-26.88,41.4-54.6,41.28a24.67,24.67,0,0,1-7.08-12.48Q264.3,443,301.92,388a124.85,124.85,0,0,1,23,3.84c.84,4.2,3.36,7.2,7.68,9.12A6.14,6.14,0,0,1,335.88,403.92Zm5.76-12.84c-10.44-11.16-23.76-16.68-39.72-16.56A49.19,49.19,0,0,0,284,397.68a278.05,278.05,0,0,0-18,77.64Q263,511.86,286.2,538c17.88,1.8,31.92-4.56,42.36-19.08Q367.8,464,345.72,398A16.75,16.75,0,0,0,341.64,391.08ZM235.32,240.24a173.65,173.65,0,0,1,15.48,52q4,28.62,5.4,57.6a416.27,416.27,0,0,1-13.32,126.84Q233,513.9,196.68,516q-18.54-28.44-18.24-64.2c.12-21,.48-41.88,1.32-62.52A622.44,622.44,0,0,1,197.4,262.44c3.48-14,10.92-23.76,22.32-29.4a33.22,33.22,0,0,1,10.32,2.4A9.92,9.92,0,0,1,235.32,240.24Zm5.76-10.8a36.26,36.26,0,0,0-25.68-10,7.78,7.78,0,0,0-2.16,1.92Q191.1,248.22,185.64,284,176.1,347.22,172,411.48A270.85,270.85,0,0,0,187.44,522.6a8.18,8.18,0,0,0,5.16,5.16q28.8,9.54,43.44-19.32A227.33,227.33,0,0,0,260.76,420q2.88-39.78,1.92-79.56A397.09,397.09,0,0,0,244.8,230.88a1.39,1.39,0,0,0-.84-.6L242.4,230h-.84Zm-86.88-7.08a44.46,44.46,0,0,0-16.8-8.88l-8.4,4.08-7,7.32a288.33,288.33,0,0,0-3.12,45.6,300.72,300.72,0,0,1-2.4,41.64,201.41,201.41,0,0,0-1.2,38,40.84,40.84,0,0,0,3.48,14.4,191.19,191.19,0,0,0,6.12-53.76c-.12-4.44-.12-9,0-13.44l23.76-4.08a192,192,0,0,0,14.64,53.88A165.51,165.51,0,0,0,172.2,365a173,173,0,0,0-13.08-54.6q-3.78-9.18-7.2-18A44.92,44.92,0,0,0,164.16,278a33.09,33.09,0,0,0,3.36-9.48,76.12,76.12,0,0,0,1.32-15.6A38.43,38.43,0,0,0,154.2,222.36Zm9.48,33.6q-5.4,31.86-38.52,29.52c.12-18.36-.24-36.72-1.08-55,13.56-9,25.56-6.12,35.76,8.64A21.62,21.62,0,0,1,163.68,256Zm-3.24-199.2Q164,95.1,168,134.16a72.26,72.26,0,0,0-21.72,3.6l9-39.24A196.68,196.68,0,0,0,160.44,56.76ZM122.52,77.64A23.49,23.49,0,0,1,124,81.72a13,13,0,0,0,1.92,4.8,8.32,8.32,0,0,1,1,3.36A3,3,0,0,0,129.36,92h1.32a5.78,5.78,0,0,0,1.2-4.8q-7.74-41.58-51.84-48C65.88,44.4,55.56,54.12,49.2,68.16A324.75,324.75,0,0,0,21.36,174.24a572,572,0,0,0-2.52,64.2c.36,21.24,1.2,42.48,2.52,64C24.12,344.76,28,387,32.64,429.12a146.59,146.59,0,0,0,20.88,60.72C63,505.2,76.08,508.56,93,499.92a54.59,54.59,0,0,0,21.72-19.68,72.62,72.62,0,0,0,7.08-14.4l-.24,2.4a202.21,202.21,0,0,0,1.2,51.24c1.92-.36,3-1.8,3.24-4.08a886.94,886.94,0,0,0,5.16-116.88l-.84-.48-7-1.44A63.1,63.1,0,0,0,99,401.52a17.71,17.71,0,0,0-.6,5.64,8.35,8.35,0,0,0,1,3.24,162,162,0,0,0,27.48,1.92l-2.52,27.48-1-4.44a66.16,66.16,0,0,0-9,18.48,52.87,52.87,0,0,1-22.2,29.52c-14.16,9.12-25.8,7.2-34.92-5.88a106.83,106.83,0,0,1-17-39.36,479.54,479.54,0,0,1-9-64.32q-3.24-47.7-4.8-96a950.59,950.59,0,0,1,4.08-124.2A184.14,184.14,0,0,1,61.92,66.84a19.51,19.51,0,0,1,11-8Q101,50.88,119.52,75.48l2.4,1.44Zm57.36,58.2-.84-1.32-4-.36L162.36,53.88l-2.28-1.68q-14.94,49.86-25,101a113.73,113.73,0,0,1-4.32,15.48A105.14,105.14,0,0,0,124.56,209a52.6,52.6,0,0,0,1,7.44A318.75,318.75,0,0,0,144.12,147l25.2-.36a320.76,320.76,0,0,0,13.44,70.68,115.12,115.12,0,0,0-.12-33.36L177,146.64l2.88-.84A10.47,10.47,0,0,0,179.88,135.84ZM521,266c16.68-5.76,30.36-1.32,41,13.44h.36c.84-7.32-1.56-13.92-7.32-19.8-14.28-14.4-29.4-14.88-45.12-1.32q-28.62,24.48-27.24,65.76c.72,19.32.48,38.76-.6,58.32Q477.84,455,495.24,521c.6,2.64,2.76,4.32,6.24,5.16a67.92,67.92,0,0,0,18.36,1.56,36.3,36.3,0,0,0,8-1.32l3.72-1.32,1.8-.72,1.8-.84,1.68-1a58.79,58.79,0,0,0,18.24-17c13.8-19.32,16.2-37.56,7.08-54.48L559,454.44l-.24-2.64q.9,21.24-11.88,41.76c-7.2,11.76-17.64,17.88-31.32,18.24A32.52,32.52,0,0,1,494,505.2l-4.68-115.32,43-1.92a13.43,13.43,0,0,0,2.52-9.48A8.88,8.88,0,0,0,532.2,373l-1.92-1.68a129.74,129.74,0,0,0-40.92,8.52l4.32-82.56C496.68,281.76,505.8,271.32,521,266ZM357.36,106.32c-1,43.08-1.44,86-1.44,129.12a263.09,263.09,0,0,1-15.84,90.84,33.21,33.21,0,0,1-14.16,17.16q-26.1,15.84-37.56-13.56a151.34,151.34,0,0,1-10-58.44c.84-43.32,1.92-86.28,3.12-129.12.24-10.8,1-21.6,2.16-32.28,1.8-17,.12-32.76-5-47.28a13.69,13.69,0,0,0-2.16,8.16q1.44,60.84-1.08,121.8l-2.88,64a244.86,244.86,0,0,0,9.12,80.16c5.28,18.6,17,28.92,35.4,31A53.09,53.09,0,0,0,346.2,337,247.61,247.61,0,0,0,362,250.8c.36-43.08,1.56-86,3.36-129A322.92,322.92,0,0,0,362,57.6l-.48.12c-2.76,1.56-4,4.08-3.6,7.8a39.09,39.09,0,0,0-4.56,7.32,7.46,7.46,0,0,0,3.72-3.24C357.6,81.36,357.72,93.6,357.36,106.32ZM461,92.76c-2.16-20-14.4-29-36.84-26.76a28.7,28.7,0,0,0-13.44,6.48,17.94,17.94,0,0,0-3.6,4q-18.72,30.78-21,68-4.14,68,33,124.68a325.42,325.42,0,0,1,37.08,77,307.19,307.19,0,0,1,14.52,123,62.21,62.21,0,0,1-10.2,29.64q-17.46,27-51.84,16.32a25.94,25.94,0,0,1-6.84-3.36c-10.44-7.56-16.8-18.24-19.32-31.8v-.84a2.16,2.16,0,0,0-.36-1.32c-.12-.12-.24-.12-.48,0l-.24.48a4.11,4.11,0,0,1-.48,2.16l-2.16,2.64-.6.72a21.28,21.28,0,0,0-1,7.2,65,65,0,0,0,4.44,21.72c6.48,16.56,19.32,25.2,38.52,25.8Q462,540,471.72,501.36a280.15,280.15,0,0,0,2.64-126.6,273.35,273.35,0,0,0-19.44-59.16,771.24,771.24,0,0,0-37.56-71.88,181,181,0,0,1-19.92-133.8c2.28-9.6,7.32-16.8,15.36-21.6q29.7-18,46.08,9.12A4.36,4.36,0,0,0,461,92.76ZM549.24,194c-6.84,17.64-19.56,24.48-38.16,20.4a62.27,62.27,0,0,1-33.24-18.84q-4,20.16,16.92,32.4A54.15,54.15,0,0,0,527,235.2q27.72-13.32,25.92-44.64c-1.2-19.56-10.92-33.6-29-42.36-12.12-5.88-19.56-15.12-22.56-27.72-3-12.84,1-23,11.64-30.48q21.06-14.58,38.4,5c1.92-18.12-6.84-26.52-26.16-25.08-15.72,1.44-25.92,10.32-30.48,26.64a66.21,66.21,0,0,0,3.12,45.84l3,6.12A152.42,152.42,0,0,1,545,185.4,22.33,22.33,0,0,1,549.24,194Z" transform="translate(-18.76 -39.24)"/></svg>