<svg id="Layer_1" data-name="Layer 1" xmlns="http://www.w3.org/2000/svg" viewBox="0 0 528.23 337.08"><defs><style>.cls-1{fill-rule:evenodd;}</style></defs><path class="cls-1" d="M40.92,162.48a311.62,311.62,0,0,0-18.24,86.88A308.44,308.44,0,0,0,36.36,363.48a26.74,26.74,0,0,0,9.12,13.32q34.92,28.62,67-4.92a77.47,77.47,0,0,0,15.24-22.8,2.32,2.32,0,0,0,.12-2.64,16.44,16.44,0,0,1-1.56-7.92,17.27,17.27,0,0,1,1.68-6.48l4.68.48.48-12.12-31.56-2.16a12.34,12.34,0,0,1,.24-11.4l.48-.84a206,206,0,0,1,34.68-2.88c1.08,11.76,1.68,23.52,1.68,35.4a17.45,17.45,0,0,1,0,7.08,367.9,367.9,0,0,1-8.28,71.88l-.48.84c-5.52-5.88-7-14-4.44-24.6A225.28,225.28,0,0,0,130.08,368c-11.4,21.24-30,34.08-55.68,38.76a22.55,22.55,0,0,1-18.72-4.56Q15.9,372.72,16.44,321.72l.24-64.08A306,306,0,0,1,42,136.08c7.08-16.32,18.6-27.24,34.8-32.76q40.5-.18,48.24,39A22.8,22.8,0,0,1,123.12,157c-2.88-1.08-4.44-3.6-4.68-7.8a26.08,26.08,0,0,0-9.72-19Q86,107.52,62,130.32A82.63,82.63,0,0,0,40.92,162.48Zm248.76,25.8-5-1.8a73.38,73.38,0,0,0-30.24,34.44,150.6,150.6,0,0,0-11.52,42,88.49,88.49,0,0,0,5.64,43.56c7.2,18.36,19.32,23.52,36.48,15.24,14.88-7.08,23.76-18.84,26.64-35a190.93,190.93,0,0,0,2.28-47.52c-1.2-15.48-7.68-28-19.44-37.56Zm3.12-10.56.48.6q24.66,22.14,28.56,57,5.58,50-18.24,92.4a31.38,31.38,0,0,1-12.84,12.48Q263.4,355,248.16,328.8a75.35,75.35,0,0,1-9.84-30.48c-3.84-37.8,3.72-73.2,22.56-106a47.1,47.1,0,0,1,20.52-19.44A12.46,12.46,0,0,1,292.8,177.72ZM181.44,118.56a1130.12,1130.12,0,0,0-7.56,147.24,60.61,60.61,0,0,0,13.68-5.16,63.91,63.91,0,0,0,30.72-32.52,108.42,108.42,0,0,0,9.36-43.56,84.46,84.46,0,0,0-10.92-43.44C208.44,126.36,196.68,118.8,181.44,118.56Zm6.84-16.2c16.68,6.36,28.68,17.76,36,34.08a112.06,112.06,0,0,1,10,48.84,122.71,122.71,0,0,1-7.92,41.64A120.8,120.8,0,0,1,201.48,267c-2.76,3-5.52,5.76-8.28,8.4a957.58,957.58,0,0,0,50.88,133c3.48,7.56,3.36,14.76-.6,21.84l-3.36-.36A1086.78,1086.78,0,0,1,187.2,279.36l-13.56,3.12a1220.16,1220.16,0,0,1-15.72,149.76,1,1,0,0,1-.6,1q-7.38-38.34-2.16-81.12,14-114.66,16.8-230.28a26.89,26.89,0,0,1,4.92-14.88Zm181.8,85.2-7.56.72-4.32,2.28q-37.62,59.58-21.36,129.84a31.41,31.41,0,0,0,23.4,8.76,36.17,36.17,0,0,0,24.24-9.84,46.1,46.1,0,0,0,12.36-18.48q22-61.2-13.2-111.72l-3.6,3.12-7.68-4.56Zm16.8-16.8q36.18,56.34,23.64,122.88-6.84,36.18-39,51.6A29.41,29.41,0,0,1,353,347.52a33.21,33.21,0,0,1-21.12-12.84,287.19,287.19,0,0,1,4.92-122.52,95.8,95.8,0,0,1,14.88-31.68c6.84-5.64,14.16-7.8,22.2-6.72C376.2,169.2,380.52,168.24,386.88,170.76Zm21.36-64.92,25.08,125L458.76,356.4l2.4,12.84c3-15.36,5.76-30.84,8-46.44q9.18-63.18,20.64-126.12A586.2,586.2,0,0,1,508.56,121l1.44-6a8.3,8.3,0,0,1,4.2-3.12l.48-.12q1.44,15.66-4.68,32.4a83.11,83.11,0,0,0-4.32,15.6q-12.06,62.82-22.32,125.76-10.26,63.18-18.84,126.6l-.24,1.08c-.12,8.52-.72,16.92-1.56,25.32,0,.36-.36.72-1.08,1q-6.48-30.24-10.92-62.28-5.58-39.6-12.24-79.08-11-63-24.48-125.64a277.75,277.75,0,0,1-6.36-66.36C407.64,105.72,407.88,105.72,408.24,105.84ZM533,173.4a22.06,22.06,0,0,1,5.28,5.28c4,5.76,4.44,11.64,1.44,17.52l-11.64-9q-25.2,21.6-23.88,55.08a70.81,70.81,0,0,1,29.88-6l1.8,3.36a15,15,0,0,1-1,14.4l-30.6,3.48a139.07,139.07,0,0,0,.48,64.8l5.64.24c11.76.12,19.08-5.4,21.84-16.56l3.36-1.56,4.44-8.16c7.44,11.76,5.76,22.8-5.16,33.24-9.48,9-19.56,11-30.48,6.12-5.52-2.4-8.52-7-8.88-13.68-.6-11.52-1-23-1-34.56l-.12-39.48q-.18-47.88,32.76-75.84Z" transform="translate(-16.43 -102.36)"/></svg>