<svg id="Layer_1" data-name="Layer 1" xmlns="http://www.w3.org/2000/svg" viewBox="0 0 313.32 213.24"><defs><style>.cls-1{fill-rule:evenodd;}</style></defs><path class="cls-1" d="M303.84,195.48a151.24,151.24,0,0,0-4.44,29c-2,42.72-3,85.8-2.64,129.12a77.14,77.14,0,0,1-1.68,15.84c-2.76,12.6-1.56,23.16,3.36,31.8a17.18,17.18,0,0,0,3.6-9.72c1.32-22.8,2.28-45.84,2.88-69q1.62-64.8.84-128.28C304.68,194.16,304.08,194.52,303.84,195.48Zm-110-3.36q-31.86,19.44-40.44,57a354.1,354.1,0,0,0-8.4,97.56c1.08,21.48,9.6,38.4,25.56,51a34.31,34.31,0,0,0,25.08,1.56c10.2-3.24,18.12-7.8,23.64-13.68a36.44,36.44,0,0,0,4.2,19.8,185.19,185.19,0,0,0,6.6-30.84,139.51,139.51,0,0,1,3.48-17.4c3-11.16,2.76-20.64-.84-28.44a59.13,59.13,0,0,0-28.32,4.68l-.6,1.68a13.18,13.18,0,0,0,.6,8c7.44,0,14.88.12,22.32.48L226,350l-.36-.12L224,349.8a4.41,4.41,0,0,0-1,1.8A22,22,0,0,0,222,362l.12,1.56a43.82,43.82,0,0,1-10.2,10.32q-30.78,22.14-52.8-4.32l-.36-1.56A220.05,220.05,0,0,1,155.16,268q7.38-39.06,38.28-61.2l11,.24,1.2.24a72.72,72.72,0,0,1,10,9.24,130,130,0,0,1,13.56,19,15,15,0,0,0,.24-12.24,73.8,73.8,0,0,0-23.28-30.84Zm173.88,21.6q11,63,24,125.52c2.16,10.68,3.84,21.36,5.16,32.16,1.44,12,4.68,22.08,9.84,30.36l.48-.84,1.32-6.36a47.17,47.17,0,0,0,4.68-11.88q16.56-61.74,31-124.2a259.41,259.41,0,0,1,9.48-31.2c4.08-10.92,5.16-21.36,3.36-31.32l-.72.12a17.41,17.41,0,0,0-2.28,1.44,128,128,0,0,0-5.28,14.28q-18,61.38-30.48,124.56a121.86,121.86,0,0,1-10.56,31.08l-1.68,4-1.56-6.84c-3.36-14.76-6.48-29.52-9.48-44.28q-12.78-62.64-24.24-124.68C367.44,200.28,366.36,206.4,367.68,213.72Z" transform="translate(-144.48 -192.12)"/></svg>