<svg id="Layer_1" data-name="Layer 1" xmlns="http://www.w3.org/2000/svg" viewBox="0 0 595.57 842.18"><defs><style>.cls-1{fill:#fff;}.cls-2{fill:none;stroke:#fff;stroke-linecap:round;stroke-linejoin:round;stroke-width:0.38px;}.cls-3{fill-rule:evenodd;}</style></defs><rect class="cls-1" x="0.31" y="0.31" width="595.08" height="841.68"/><rect class="cls-2" x="0.19" y="0.19" width="595.2" height="841.8"/><path class="cls-3" d="M303,198.36a375.71,375.71,0,0,0-4.08,41.28c-1.92,42.84-3.36,85.8-4.2,129.12-.24,11.88,1.44,22.68,5,32.16A51.87,51.87,0,0,0,305,374.4a686.94,686.94,0,0,1,.6-80.16,520.55,520.55,0,0,0-2-95.88Zm-103.8-.84c-14.88,3.24-25.92,11.76-33,25.8a166.31,166.31,0,0,0-15.6,44.28,285.49,285.49,0,0,0-5.52,46.32,163.51,163.51,0,0,0,4.2,44.52,58.7,58.7,0,0,0,24.24,35.76q21.06,14.58,42.6-.36A50.51,50.51,0,0,0,233.4,373.2l2.52,30.72a134.84,134.84,0,0,0,9.24-36.84,60.63,60.63,0,0,0-1.8-22.68l-2-5.4-35.16,4.92a16.9,16.9,0,0,0-1,6.84,9.27,9.27,0,0,0,2,5.28l19.2-.48,1.44,4.92c-5.88,14.4-17.16,21.84-34,22.32-10.68.36-19.32-3.72-26.16-12.12A54.09,54.09,0,0,1,156.12,345a194,194,0,0,1-2.28-53.4,129.6,129.6,0,0,1,21.6-61.08q16.38-24.3,43.68-12.6A48.5,48.5,0,0,1,235.92,230c1.56-8.52-1.08-16.08-8.16-22.92A29,29,0,0,0,211,198.6Zm205.92,94.32c18.48,5.16,30.24,17.28,35.16,36.6,3.24,12.6,1.32,24-6,34-9.36,12.6-21.72,19.8-37.08,21.72a60.9,60.9,0,0,1-33.48-4.68c1.8-30,3.84-57.6,5.88-82.68a51.46,51.46,0,0,0,33.6-3.84ZM418,255.72c-.6,6.6-3.36,11.76-8.4,15.48-12.6,9.24-26.4,12.48-41.16,9.84,0-23.16-.84-46.08-2.52-69q21.06-7.38,41,7.2C415.44,229.44,419,241.68,418,255.72ZM364.2,201.6l-.36,2.4v1.44a64.26,64.26,0,0,0-2.4,19.2,1279.9,1279.9,0,0,1-4,128.88c-.84,9.72-1.08,19.32-1,28.56a16.25,16.25,0,0,0-1,4.8,14.26,14.26,0,0,0,1.56,7.08l.6,7.56a8.8,8.8,0,0,0,4.2-5A94.69,94.69,0,0,0,410,399.24c14.52-2.76,24.24-10.8,29-24q15.12-41.58-7-81.36l-.84-.72a74,74,0,0,0-16.92-9.48,39.93,39.93,0,0,0,7.08-16.2c5.16-23.64.6-44.16-13.92-61.56a6,6,0,0,1-2.88-1.08,64.35,64.35,0,0,0-28-10,31.41,31.41,0,0,0-5.76,1.8A17.16,17.16,0,0,0,364.2,201.6Z" transform="translate(0.19 0.19)"/></svg>