<svg id="Layer_1" data-name="Layer 1" xmlns="http://www.w3.org/2000/svg" viewBox="0 0 573.84 593.28"><defs><style>.cls-1{fill-rule:evenodd;}</style></defs><path class="cls-1" d="M422.16,483.36c-3.12-1.44-5-2.76-5.88-4l.24,6.12A217.89,217.89,0,0,1,415,509.16l-3,24.36c-1.08,10.2-2.4,19.44-3.84,27.72q-1.08,5.4-1.08,18a16.1,16.1,0,0,1-1.2,4.68v.24c18.84,4.32,32.88-1.08,42.12-16.08a65.21,65.21,0,0,0,7.08-17.4,45,45,0,0,0,1.56-10c0-23-6.84-39.6-20.4-49.68C433.2,488.76,428.52,486.24,422.16,483.36Zm-35.64-2.88-4.92-55c-1.8,5.28-4.92,14.52-9.12,27.72-3.84,11.88-7,21.24-9.36,27.84l-.72,1.8,24.24-1ZM416,476l.48-.48q26.1,6.3,36,28.8c4.2,9.36,6.24,21.6,6.24,36.84a67.45,67.45,0,0,1-6.24,29.28c-6.36,13.32-16.2,20.28-29.52,20.64l-19.68-.24-.24-.48-.84.48-.6-1.32-.24-2.76c0-3,1.92-19.56,5.88-49.8,4.32-33,6.84-52.8,7.44-59.52h1.08A3.45,3.45,0,0,1,416,476ZM349.56,585.48l-.12-2.64c-.24-10.68-.24-18.84,0-24.36.36-9.72,1.92-16.8,4.56-21.48.6,3.24.84,8.64.84,16.2l-.36,9.24a68.24,68.24,0,0,1-1.8,12.72v5.64c14.88.84,25,1.8,30.36,2.88l2.52.36,4.2-1.08.48,1.92.36,2.64c0,1.8-.24,3-.72,3.36l-2,.24-37.56-3.84Zm-3.24-78.12,10-20.16v-1.68l1.08-.72,5-11.4c2.28-5.76,5.52-15.72,10-29.76,4.2-13.2,7.32-22.56,9.6-28.2,2,10.08,4.56,28.32,7.32,54.84,2.52,24,5.4,41.52,8.4,52.68a22.1,22.1,0,0,0-.72,5.28l-.72,6c-3.72-13.2-6.72-28.92-9-47l-3.6,1.08c-6,1.56-14,2.4-24.24,2.4-7.08,17.4-15,32.64-24,45.72l-.72-.36-.12-2.16C334.56,531.6,338.52,522.84,346.32,507.36Zm-236-144.6c0-2.64.48-4.08,1.32-4.32a47.17,47.17,0,0,1,3.24,18.24l-1.32,18.24V412.8l9-1.2,9.36-.72,4.44-.12,9.24.36c8.88,1.08,13.32,3.72,13.44,7.92l-14.64.72c-6.84,0-10.2-.6-10.32-1.8l.12,1.8-6.6-.24q-8.64-.36-17.28,0V409q.72-5.94,1.44-16.56l.72-11.88c0-.84-.36-3.84-1.08-8.88Zm-.84-172.2c0,12.84-2,33.48-6.12,61.68l2.64.12c17.64,0,30.48-5,38.4-15.24,4.68-5.88,7-11.88,7-17.88A29.2,29.2,0,0,0,143,198.48c-7.32-7.56-18.48-12-33.72-13.32Zm-5.16-10.2H108l.36-4.32.72,4.32c18.6.6,31.32,5.52,38.28,14.88,4.08,5.64,6.12,13.56,6.12,24a41.44,41.44,0,0,1-7.2,24.12c-4.68,6.84-11.28,11.52-19.8,14.28,2.28,5.52,4.68,12,7,19.56l8.16,27.12c1.56,4.68,5.88,14.76,12.84,30.36q9.36,21.06,9.36,22.32l-.24,4.08-.48.48-.84.84c-3.36-6.36-10.32-22.32-20.76-48-11.64-28.32-18-46.8-19.32-55.56a70.49,70.49,0,0,1-15.72,1.56l-4.32-.24L99,279.72q-9.18,57.06-14.76,77c-1.08-1.32-1.56-3.48-1.56-6.24l11.16-69.24,3.6-22.8-.24-.24a9.63,9.63,0,0,1-.24-2.76l.12-2.28.12-1.44,1.32.12c4.32-28.2,7.32-50.4,9-66.84l-3.24-.12-.24-.24v-1.8a10.45,10.45,0,0,1,.12-2.28Zm37.08-142-.24,2.52-.6.48c-1.2-3.72-4.44-7.8-9.84-12.24-8-6.48-17.52-9.72-28.68-9.72q-26.28,0-42.48,36.48A181.25,181.25,0,0,0,47,96.84c-3.72,13.08-7.2,26.16-10.32,39.24-3.48,14.52-6.24,27.6-8.28,39.36-2.28,12.72-4.32,37.32-6.36,73.92q-2.88,51.12-2.88,83.16l-.12,42.84c.6,31.44,2.28,60,5.28,85.8q6.3,53.82,19.32,84.36,16,38,41.64,38c12.84,0,26.64-5.88,41.64-17.76,6-4.68,13.44-11.76,22.2-21.24q7.38-7.74,9.72-20.16c1.08-9.24,2.4-16,3.84-20.4a7,7,0,0,1,2.28,3.24l1.8-25.44V466.68q-16,0-22,2.52-3.06,2.52-5.4,2.52l-8-.24a5.58,5.58,0,0,1-4.32-2.76,5.94,5.94,0,0,1-.84-3.24,21.27,21.27,0,0,1,.12-2.88l.12-.84.84-.84,1.56.84,3,1.56A94.87,94.87,0,0,0,148.8,460a74.74,74.74,0,0,1,19.32-2.52c2.28,2,3.48,5.76,3.36,11a58.85,58.85,0,0,1-.84,8q0,17.82-7.32,113.76a25.38,25.38,0,0,1-2-8.16c-.12-1.44-.12-4.32-.12-8.64,0-9.72.48-22.08,1.56-37.2-4.92,11.28-14.52,22.92-28.92,35A160.76,160.76,0,0,1,108.48,589c-8,4.44-13.68,6.72-17.16,6.72q-30.42,0-49.08-40.2-14.94-32.4-22-89.16a843.13,843.13,0,0,1-5.4-90.24l.6-44q0-26.1,4.8-96,4.68-67.5,7.08-81.36c2-11.88,5.64-26.52,11-44.16L52.2,66.24a153.18,153.18,0,0,1,8.52-22,94,94,0,0,1,15.6-21.84c12.12-12.6,26.64-15,43.32-7a62.92,62.92,0,0,1,15.72,11c4.2,4.08,6.24,7,6.24,8.64Zm40.92,71.76H183l.48,3.84.36,4.08a3.57,3.57,0,0,1-.48,2.28l-.6.72-31.68-.24-3.24-.36-3.24.36-.6-1.32-.24-2.76c0-6.6.48-15.84,1.56-27.48,1.08-13.2,1.8-22.8,2-28.92h1.08c.48,4.92.72,9.6.72,14.16l-.6,15.36L147,112.32c0,.36.6.72,1.92,1.2l2.16,1,31.2-.24ZM288.36,36.24q-13.14-27-27.72-9.72a108.37,108.37,0,0,0-22.8,35.4c-1.92,4.56-4.08,10.68-6.6,18.36L225,98.76a481.5,481.5,0,0,0-20.16,71.76,472.75,472.75,0,0,0-9.12,72.6V291c-.72,3.24-1.08,8.28-1.08,15l.72,16.32c.48,10.2,1,18.12,1.44,23.88v66.6l2.76,43c1.2,17.64,1.68,32,1.56,43.08-.12,8.88,2.16,18.36,6.84,28.56a116.17,116.17,0,0,0,16.8,26.16,105,105,0,0,0,19.8,19.08c6.72,4.92,12.12,7.32,16.08,7.32q26.82,0,49.32-49.56a323.68,323.68,0,0,0,13.2-35.28c3.24-11.4,5-17.52,5.4-18.48,4.08-10.08,7.2-18.72,9.48-26a159.21,159.21,0,0,0,6.24-26.76c3.24-29.88,4.92-47,4.92-51.48q0-57.78-17.28-148.68-5.4-28.26-15.36-73.92-10.8-50.22-13.92-65.88C298.68,63.6,293.88,47.76,288.36,36.24ZM303.24,58.8C305,68.52,306.36,73.92,307,75q20.52,82.62,31.56,145.56,15.48,88,15.48,151.8,0,22.86-7.56,59.76a576.92,576.92,0,0,1-19.68,73Q313.44,544,299.28,566.76q-16.38,25.92-31,25.92-33.66,0-55.44-39.36A160.51,160.51,0,0,1,201,524.88c-2.16-7.08-3.48-12.24-3.84-15.48-1.56-11.52-2.64-26.64-3.24-45.48l-1.44-45.48V350.28q-.72-9.72-1.44-26.64L190.32,306a125.2,125.2,0,0,1,1.08-19.08v-47q5.22-81.18,31.44-148.44c1.56-4.2,3.48-10.44,5.76-18.84,2.4-9,4.32-15.48,5.88-19.68,5.52-15.48,14-27.24,25.68-35.28Q284.64.54,296.64,33.12C298.92,39.24,301.08,47.88,303.24,58.8ZM454.32,420.6l.12,3.24A167.69,167.69,0,0,1,452.76,445L449,467.76v.48l27.6-2.16,6.48.24a32.92,32.92,0,0,1,11.64,3l-1.08,2.88L492.6,475c-8.16-1.2-13.44-1.8-16-1.8l-10.32,1L449,476l-3.24-.24v-5.64L449,443.4l1.68-14.52c.72-6.36,1.68-9.84,2.88-10.68A8,8,0,0,1,454.32,420.6ZM419.76,263.4c2.52,11,4.8,19.92,6.6,26.76v6.48l-.48.48-.6,1-5.88-25.92-.72-3.6-10.32,1.32-7.68,1.56a179.48,179.48,0,0,1-13.08,23.88,1.66,1.66,0,0,1-1.08-.6,3.5,3.5,0,0,1-.84-2.64q17.46-37.62,28-55.44Zm-10.2.72,7.92-.24-4.68-18.36-.6-.48c-2,4.56-5,11.52-9,20.76A33.66,33.66,0,0,1,409.56,264.12ZM523,297.84l.24,3.12c0,1.68-7.44,16.92-22.44,45.72C481,384.6,469.32,407.4,465.6,415q-7-8.82-12.24-25.2l-4.08-13.44A130.35,130.35,0,0,0,445,363.84c-3.48,7.56-7.2,16.92-11,28.08-2.16,6.24-5.28,15.72-9.24,28.44-3.36-7-6.12-16.32-8.16-28.08-2.76-16.2-4.68-26-5.64-29.52a346.22,346.22,0,0,0-10.56-33.36c-5.16-13.44-9.24-20.76-12.48-21.84a5.72,5.72,0,0,0,.6-2.64V301.8l.36-.48c.24-.36,1-.6,2-.6,3.72,0,8,7,13,21a259.16,259.16,0,0,1,9.48,33.36c3.48,15.72,7,33.48,10.32,53.4l9.72-27.72c4.2-11.16,7.92-20.52,11.4-27.84l9.48,25.92,10.32,26.88c10.92-24.36,19.56-42.84,25.68-55.68q16.38-33.84,31.68-54.48Zm-18.24-58.2a4.29,4.29,0,0,1,.6,2.52c0,2.76-2.88,11.88-8.64,27.12l-10.56,26.88c-2.28-5.16-5-12.6-8.4-22.2l-8.4-23.28h-.84q0,5.58-3.6,21.6l-3.72,15.24a7.84,7.84,0,0,1-1.44,3.6l-2,3.36a1.75,1.75,0,0,1-.72-1.08l-.12-2.64c0-1.44,1.56-8.52,4.56-21.24q4.5-19.62,6.84-26.64a178.68,178.68,0,0,1,9.6,21.48,211,211,0,0,1,7.44,22.32l.6.24A171.29,171.29,0,0,0,496,262.56l7.2-23.52A2.76,2.76,0,0,1,504.72,239.64ZM360.6,179.76c5.16,4,10,10.8,14.28,20.64a196.49,196.49,0,0,1,9,26.76l.72.36.36.72,11-23.64a148.16,148.16,0,0,1,13.2-22.68l.6,1.32L410,186c0,1.56-3.48,9.12-10.56,22.8L384.6,237.12l-.72.36c-1.8-7.08-5.28-16.32-10.32-27.72C365.64,191.64,361.32,181.68,360.6,179.76Zm46-51.72a14.06,14.06,0,0,1,2.16,6.6c0,3.12-.48,5.4-1.56,6.72L397.8,150c2,2.88,4.68,7,7.92,12.36q7.56,12.42,7.56,14.76a8.56,8.56,0,0,1-.24,2.28l-.48,1c-2.76-2.88-6-7.56-9.6-13.92l-8.88-15.36v-.24l-4.2.48-3.72.36-1.56-.12-.6,2-8.28,26.16h-.6l-.48-.84v-2.4l6.48-24.12.24-1.08-1.92-.24c-.36-.84-.48-2.64-.48-5.4l3.72.84c3.48-13.56,5.64-22.68,6.24-27.6h.84l.36,1.56.24-.36c.12,0,.24,0,.24-.12l10,.24A35.72,35.72,0,0,1,406.56,128Zm-6.72-3.48-9.48-.48v.12c0,4.44-1.44,12-4.32,22.44a31.52,31.52,0,0,0,18.12-7.56c1.8-1.68,2.64-3.12,2.64-4.2,0-1.56-1-3.48-3-5.76ZM369.48,74c0-2.28-1.8-4.56-5.4-7-4.2-2.76-9.48-4.2-15.84-4.56,1,1.32,1.56,4.2,1.92,8.64l.12,10.08-.12,3.6c4.44.6,8.76-.6,13.08-3.6S369.48,75.84,369.48,74Zm2.28,21c-4.32-4.68-11.52-6.84-21.6-6.6l-1.08,10q-1.26,8.28-1.8,17.64l.36.24,3.48,1.92c11.88-1.8,19.2-3.72,22.2-5.76a5.75,5.75,0,0,0,2.28-3.12l.12-3.84A14.9,14.9,0,0,0,371.76,95Zm-1.2-20.76-.24,5.28c-.6,1.56-2.28,3.6-5.16,6.24q9.18,2.16,11.52,8.64c.36,1.32.6,5,.6,11,0,4.92-.84,8.64-2.64,11.4q-4.5,6.84-16.56,6.84c-5,0-8.88-.84-11.64-2.4l-1.8-.24-.24-.24-.12-1.2a3.63,3.63,0,0,1-1.08-2.16,8.29,8.29,0,0,1,.24-2.4,1.19,1.19,0,0,1,.84-.6l.6.24q2.34-17.46,3.24-26.28l-.48-.24-.12-1.8c0-1.08.12-1.8.36-1.92h.6l.12-3.24-.6-8-1.56-11.28h1.08l.36.36a3.14,3.14,0,0,1,.72-1.56l.84-1c8.52-.36,14.52,1.68,18,5.88A13.41,13.41,0,0,1,370.56,74.28Zm121-54.48v5.64c-.12,0-.36.12-.48.48a1.6,1.6,0,0,0-.36.84,47.75,47.75,0,0,0-4.8-8.4c-3.6-5-7.56-7.56-12-7.56-14.16,0-22.92,7-26.4,20.76a79.28,79.28,0,0,0-1.8,16.92l-.48,13.2v41.4c-.36,2.76-.6,7.2-1,13.32L462,118.56c12.48-.24,19.08-.48,19.8-.6a6.5,6.5,0,0,1,1.08,1.92l.24,2.76-.24,2.88-1.08,2H461.16l-.48-.48-5.16-.36-5.16-.84q-4.5.36-6.48-1.08L443,142.68c-.72,18.48-1.08,29.88-1.08,34.08l-.24,9.24A112.41,112.41,0,0,0,443,203.64q4.32,24.84,20.88,24.84l10.32-.24c7-3.48,12.36-9.36,16.32-17.64,1.56-3.24,3.72-9.84,6.6-20l.6-.72,2.4-.36a14.32,14.32,0,0,1,1.32,6.12c0,3.84-3.24,11.16-9.6,21.84-6.84,11.4-12.84,18.48-18,21.12-17,4.92-28-3.24-32.88-24.24a109.1,109.1,0,0,1-2.52-23.4l.24-13.44c0-19.8.12-33,.36-39.36A351.72,351.72,0,0,1,442,99.36V57.12c1.32-12.6,3-22.08,4.92-28.68,3.36-11.64,9.84-20.28,19.44-26,10,1.08,16.8,3.48,20.28,7.44C488.64,12,490.2,15.36,491.52,19.8Zm87.84,17.76c2.4,4.44,3.6,7.32,3.6,8.88a5.81,5.81,0,0,1-1.08,3.24l-1.32,2a83.63,83.63,0,0,0-8.16-18C566.28,24,558.72,19.2,549.48,19.2l-5.28.24c-2.28.12-3.48.36-3.72.6l-10.92.84L521,21.6a39.61,39.61,0,0,0-20.4,23.52c-2.28,6.6-3.48,15-3.48,25.2,0,15.72,4.8,37.44,14.28,64.92q8.64,24.84,31.44,84.6,20.88,58,31.56,107.16a629.66,629.66,0,0,1,14.28,132.48c0,3.12-.72,10.44-2.16,22.08A443,443,0,0,1,579,527.28c-9.72,43.56-23.16,65.4-40.08,65.4l-7.92-.12-6.24-.6Q488.94,597.9,477,569.28a68.8,68.8,0,0,1-4.92-22q-.36-3.6-.36-13.68a27.23,27.23,0,0,1,1.68-9.84,14.46,14.46,0,0,1,9.48-9l-3.36,9c-2,5.88-3.12,9.36-3.12,10.44,0,9.72,1,17.4,2.88,23.16a24.49,24.49,0,0,0,9,13c3.6,2.76,8.76,4.8,15.36,6.36,4.44,1.08,11.88,2.16,22.2,3.24,22.44,4,38.88-14.4,49.2-54.84a312.24,312.24,0,0,0,7.8-46.32c1.2-11.64,1.8-21.6,1.8-29.64q0-57.42-14.16-119.16-10.26-44.82-31.2-103.32-22.68-60.48-31.2-86.52Q493.86,96.6,493.92,70.68q-.18-8.1,0-14a60.3,60.3,0,0,1,4-19.68c6.6-16.8,21-25.92,43.2-27.24V9.24c9-3,18.72,1.68,28.92,14A97.66,97.66,0,0,1,579.36,37.56Z" transform="translate(-14.88 -2.4)"/></svg>