<svg id="Layer_1" data-name="Layer 1" xmlns="http://www.w3.org/2000/svg" viewBox="0 0 519.3 411.18"><defs><style>.cls-1{fill-rule:evenodd;}</style></defs><path class="cls-1" d="M342.48,305.76a155.39,155.39,0,0,0-3.48,42,301.84,301.84,0,0,1-1.2,46.56,326.23,326.23,0,0,1-7.92,45.36c-3.72,14.64-2.28,26.76,4.56,36.48l62.16,8.4a6.39,6.39,0,0,0,2.76-5.4l-.12-4.8a26.66,26.66,0,0,0-1.08-4.44l-1.08-2.4-58.2-5q6.66-60.3,7.44-121.2a131.71,131.71,0,0,0-1.68-23.88ZM110.4,76.8a80.69,80.69,0,0,0-30,33,341.2,341.2,0,0,0-18.24,42.36,243.79,243.79,0,0,0-9,32c-2,10.44-4,21-5.64,31.56s-3,21-4.08,31.68-1.92,21.36-2.52,32c-.84,13.44-1,26.88-.6,40.32a302.24,302.24,0,0,0,5.28,46.56,382.73,382.73,0,0,0,11.64,45.12,128.14,128.14,0,0,0,21.84,40.68c11.16,13.8,25,15.72,41.4,5.52A68.12,68.12,0,0,0,144.6,432.6c-4,12.36-3.6,24.12,1.2,35.16.72,1.8,1.68,2.76,3,2.88A539.49,539.49,0,0,0,153.12,351a103,103,0,0,0-33.6,9.72l-.12,9.36,30.24-3.72L148.2,388l-3.6,6.36-7.68,7.44,1.08,5.52.12-2.88,2.52-2.88h3.48a54.22,54.22,0,0,1-10.92,25.92,52.12,52.12,0,0,1-15,13.56,29.15,29.15,0,0,1-10.92,4l-5.64.12-2.76-.36A46.73,46.73,0,0,1,93,443.28a11.55,11.55,0,0,1-6.36-4.08,133.7,133.7,0,0,1-21-36.12,247.27,247.27,0,0,1-13.08-46.2,386.83,386.83,0,0,1-5.64-87.36A380,380,0,0,1,83.28,124.2c6.36-13.8,16.56-22.68,30.48-26.64,14.52-4.2,27.48-1.68,39,7.8a11.89,11.89,0,0,1,3.48,4.56L161.52,122l3.72,8.88c4.2-15.12.48-28.32-11.16-39.48a48.3,48.3,0,0,0-22.68-12.6A68.69,68.69,0,0,0,110.4,76.8Zm164.76,25.44a48,48,0,0,1,12.48,5.4l.36,1.68.48,2.28.48,1a163.87,163.87,0,0,1,34.8,84.84,497.9,497.9,0,0,1-1.92,128.88A274.4,274.4,0,0,1,282.36,434Q258.78,471.66,215,465.6a41,41,0,0,1-14.76-20.52,304.06,304.06,0,0,1-14-86.28,1212.87,1212.87,0,0,1,4.44-129,290.4,290.4,0,0,1,23.88-93c9.72-22,26.28-33.84,49.44-35.64A29,29,0,0,1,275.16,102.24Zm16-7.2c-11.4-8.16-24.48-11.52-39-10.08a55.12,55.12,0,0,0-29.4,22.68q-36.54,54.9-40.56,122.28Q178.2,294,180,359c.36,10.92.36,21.72,0,32.52-.84,30.36,6.6,57.72,22.56,82a19.43,19.43,0,0,0,12.36,8.64c26.76,5.88,48.6-1.8,65.64-23.28a216.88,216.88,0,0,0,40.68-82.68A495.23,495.23,0,0,0,336,248.4a490.82,490.82,0,0,0-5.16-64,193.17,193.17,0,0,0-37-88.68l-2.28-.24ZM478,118.2a193.33,193.33,0,0,1,23.52,16.92Q543.06,170,547.92,223.8q2.88,31.5,2.88,63.36-.18,64.62-31.8,120.24-31.32,54.9-93,57.12,4.86-57.78,5.4-116.28.72-64.8,3.12-129a791.74,791.74,0,0,0-4.08-117.12A258.88,258.88,0,0,1,458,109.2,85.21,85.21,0,0,1,478,118.2Zm-112.8,92.64L379.08,144l6.6,63.12ZM424.68,93.36a18.23,18.23,0,0,0,1.2,5.64l.36.24a100.81,100.81,0,0,0-.84,20.16c1.8,31.2,2.28,62.28,1.2,93.24-1.56,42.84-2.28,85.92-2.4,129.12A992.61,992.61,0,0,1,415.92,470c-4.08,0-6.48.84-7.32,2.64a7.28,7.28,0,0,0,4.8,2.76l.24.72a21.26,21.26,0,0,0,2.28,10.56,4.25,4.25,0,0,0,4.56.84l2-2.88c32,1.56,58.2-9.36,78.72-32.76q47-53.82,55.32-125.52a421.69,421.69,0,0,0-3.72-123.48c-5.4-30.36-19.92-55.44-43.68-75.48a109.26,109.26,0,0,1-13.32-12.6,46,46,0,0,0-15.36-11A324.26,324.26,0,0,0,428,85.2c-1.56-.12-2.52.72-2.88,2.4A31.11,31.11,0,0,0,424.68,93.36Zm-44.88-2c-5.16,23.52-10,47.64-14.16,72.36l-5,27.36a310.59,310.59,0,0,1-8.4,31,302.86,302.86,0,0,0-10.08,38.52,58.36,58.36,0,0,0,.36,24.12l3.24-1.08,16.56-60.24,25.08-1.08,5.52,48.6-6,.84,5.76,3a38.61,38.61,0,0,0,3.6,12.24l2,3.48a64.6,64.6,0,0,0,3-34.08l-2.76-17.52c-2-16-4-32-5.76-48q-5-45.72-11.64-91.2Z" transform="translate(-40.13 -76.7)"/></svg>