<svg id="Layer_1" data-name="Layer 1" xmlns="http://www.w3.org/2000/svg" viewBox="0 0 463.09 293.87"><defs><style>.cls-1{fill-rule:evenodd;}</style></defs><path class="cls-1" d="M140.64,136.56c14.88,3.72,23.76,13.32,26.52,28.8,5.64-10.56,4.2-21.24-4.2-32-13.32-17.16-29.28-20.88-48.12-11.16q-23.76,12.42-34.68,38.16A303.54,303.54,0,0,0,56,277.2,196.49,196.49,0,0,0,70.2,352.92a117.52,117.52,0,0,0,21.36,34.44,28.49,28.49,0,0,0,15.72,8.88l7,.36a66.75,66.75,0,0,0,13-2.4,55.16,55.16,0,0,0,18.24-10,71.43,71.43,0,0,0,10.32-10.56,88.81,88.81,0,0,0,3.36,32.64h.24a356.32,356.32,0,0,0,8.64-86,196.52,196.52,0,0,0-1.44-20.52l-22.08,1.92-13.56,7.56a13,13,0,0,0-2.64,6.84,10.83,10.83,0,0,0,1.2,6.36l.84,1.44L162,316.32l-2.16,21c-3.6,6.12-7.92,13-13.08,20.28q-16.2,23.22-41.28,15.24-22.86-7.2-29.16-30.6a286.29,286.29,0,0,1-8.88-92.52,242.69,242.69,0,0,1,12.84-63.36,146.27,146.27,0,0,1,19.2-37C110.28,136.8,124,132.48,140.64,136.56Zm87.6,28.2a56.69,56.69,0,0,1,62.28-19.2,9.88,9.88,0,0,0,4.92,8l1.32,1,1,2.28q38.7,49,26.88,116.88a326.9,326.9,0,0,1-8.4,36,243.79,243.79,0,0,1-8.52,23.76c-3.36,7.8-7.08,15.36-11,22.68a78.53,78.53,0,0,1-24,26.64c-12.6,8.64-25,8.64-36.84,0q-30.6-22.14-33.48-62.4A393,393,0,0,1,205,238.2a288.64,288.64,0,0,1,8.16-39,145.63,145.63,0,0,1,8.4-23.28A58.67,58.67,0,0,1,228.24,164.76Zm6-23.76q-35.1,46.08-37.92,104.4c-1.08,21.24-1.2,42.36-.6,63.36a190,190,0,0,0,19.68,78.36c8.28,16.68,21.24,24.6,38.88,23.52a15.63,15.63,0,0,0,9.6-3.48q52.38-40.5,64.92-106.44a293.33,293.33,0,0,0-3.6-127.56c-7.44-29.88-26.4-45.12-56.76-46l-17.76,3.6C243.72,132.36,238.2,135.72,234.24,141ZM517.8,162.36c4.68-20.16-3.12-32.64-23.16-37.56-29.64,18.36-44.64,46.44-44.76,84a774.63,774.63,0,0,1-6.36,95.76q-6.66,51.66,13.68,98.16c1.8,4.32,5.52,6.24,10.92,5.64a42.78,42.78,0,0,0,30-13.92,53.61,53.61,0,0,0,10-14.28l.6-1.44.6-1.56,1.08-3a48.17,48.17,0,0,0,1.68-9.24c.36-5.28-.36-9.6-2.4-13-9.84,22-25.8,34.68-48,37.92-13.32-24.6-17.4-51.6-12.12-80.76a346.25,346.25,0,0,0,4.56-40.2,60.57,60.57,0,0,0,33,1c3-4.92,3.24-9.72.6-14.64l-1.2-1.92-31.32,2.16c-2-40,7.2-75.72,27.6-107.52q24.84-13,34.8,14.52ZM400.2,206c-9,12.84-21.48,19.92-37.2,21.48a506,506,0,0,0,4.2-79.44q25.38-10.62,37.08,13.92C411.48,177.24,410.16,192,400.2,206Zm9.6-54.72a84.1,84.1,0,0,0-5.28-9,81.66,81.66,0,0,0-11.16-13l-10.2-1.08-20.64,5.88a995.69,995.69,0,0,0-9.72,114q-.9,31.86-4.32,63.72l-2.64,23.88-1.2,8-3.24,16a159.59,159.59,0,0,0-2.76,18.48c-.84,10.68.48,20.28,4.08,28.8l.24-.12a594.35,594.35,0,0,1,22.8-92.16l-11,27.6,7.2-95a28,28,0,0,0,20-5.4l2.64-1.68a1151.29,1151.29,0,0,0,41.16,170.52c3.24-2.52,4.8-6,4.8-10.68a24.85,24.85,0,0,0-2.76-11.28l10.8-22.68L426.12,385l-36.6-148.2Q411.3,219.3,415.92,191a66.15,66.15,0,0,0,0-20.64,82,82,0,0,0-2.28-9.72A63.85,63.85,0,0,0,409.8,151.32Z" transform="translate(-56.03 -116.89)"/></svg>