<svg id="Layer_1" data-name="Layer 1" xmlns="http://www.w3.org/2000/svg" xmlns:xlink="http://www.w3.org/1999/xlink" viewBox="0 0 574.36 593.91"><defs><style>.cls-1{fill:none;}.cls-2{clip-path:url(#clip-path);}.cls-3{fill-rule:evenodd;}</style><clipPath id="clip-path" transform="translate(-15.96 1.47)"><rect class="cls-1" x="15.96" width="574.56" height="592.56"/></clipPath></defs><g class="cls-2"><path class="cls-3" d="M331.08,565.92l.84-.36,1.56-.48c-.6,3.6,1.44,6.84,6.12,9.6,5.64,3.24,14.52,5.76,26.88,7.44,3.6,1.32,8.4.24,14.28-3,5.4-3,8.16-5.16,8.16-6.72a15.49,15.49,0,0,0-4.44-11.16c-1.68-1.8-4.92-4.08-9.72-7.08s-7.92-5.4-9.72-7.44a17.29,17.29,0,0,1-4.44-12c0-6.36,1.56-11,4.8-14.16A13.44,13.44,0,0,1,376,517a19.1,19.1,0,0,1,10.68,4c3.24,2.52,4.8,5.4,4.8,8.76l-.12,2.88-.48,2h-.48A18.19,18.19,0,0,0,388,528c-2.52-4-6.24-5.88-11.16-5.88-5.64,0-9.84,1.92-12.36,5.76a12,12,0,0,0-2.28,6,12.46,12.46,0,0,0,4.56,9.6c1.2,1.08,4.56,3.12,10.08,6.24,4.68,2.76,8,5.4,10.08,8a23.41,23.41,0,0,1,4.56,14.64c0,4-1.2,6.84-3.72,8.52-1.8,1.2-6.24,3.72-13.32,7.44l-9.48-.72c-14-1.56-23.4-4.2-28.2-8C333.12,576.84,331.2,572.28,331.08,565.92Zm-116.16-44.4c0,1.56-1.92,12-5.64,31.08l-7.56,39.6-.84.24a8.37,8.37,0,0,1-.72-2l-.12-2.76c0-3.48,2-15,6.12-34.44q5.94-28.26,8.28-35.64A12.77,12.77,0,0,1,214.92,521.52Zm-33.24,10.2c0,2.28-.6,7.44-1.68,15.36l10.32-2.28,8.64-1.08,7.92-.84.36,1,.12,2.4a8.56,8.56,0,0,1-.24,2.28l-.6.6-3.6.36a22.4,22.4,0,0,0-4,.72l-4.56.36-5.16.72c-5.4.48-8.76,1-10.2,1.56l-.72,5.16c-2.52,15.72-4.68,25.44-6.36,29a2.68,2.68,0,0,1-.84-.84,9.4,9.4,0,0,1-.24-2.52c0-4.68,1.44-16.08,4.44-34.2,3-18.6,4.56-29.76,4.68-33.6h.84A131.59,131.59,0,0,1,181.68,531.72Zm-.84-104.28c.36,5.4.6,13.92.6,25.56l-.72,18.48q-.9,17.82-1.8,27.36l36.6.48.6.48a5.94,5.94,0,0,1,.24,2,4.91,4.91,0,0,1-.36,2.28l-.72,1L176,504.84l-.48-1.32-.12-2.76a82.59,82.59,0,0,1,4.32-26.88v-43.8l-.84-1.56A2.47,2.47,0,0,1,180.84,427.44Zm-40.44-381c2.76,10.92,4.2,17.4,4.2,19.56l-.24,4.92-.6.48-1.08.84c-2.28-3.72-4-9.36-5-16.8-1-7.8-2.4-13.44-4.44-17-3-5.52-8.88-11-17.76-16.44-10-6.12-19.44-9.24-28.2-9.24C62.88,12.72,46.68,32.52,38.4,72a272.37,272.37,0,0,0-5.28,42c-.36,7.92-.48,15.12-.6,21.72q-8.64,59.76-9.24,65.64a539.13,539.13,0,0,0-2.76,58.2c0,9.48.12,16.56.36,21.48v90.12c.36,4,.72,10.08,1.08,18.24s.72,14.16,1.08,18.24v47.88c1.32,8.28,2.88,23,4.92,44.4,1.56,17.28,3.36,30.12,5.4,38.4,2.88,12.12,7.32,21,13.32,26.88C53.52,572,63,575.4,75.24,575.4c14,0,24.6-2,31.8-6,8-4.44,15.48-13.2,22.2-26.16a93.39,93.39,0,0,0,6.12-17.4q3.06-12.78,4.32-16.2a13.67,13.67,0,0,1,2.16,6.48l.12,2.4a98.06,98.06,0,0,1,3.48-12.6l.24-.6a218.25,218.25,0,0,0-24.12,1.92l-10.2,1.56-3.6-.12-1.56-.12-.48-1.32a8.06,8.06,0,0,1-.36-2.76,10.93,10.93,0,0,1,.36-3.72c.6-1,2-1.68,4.32-2.28,4-1.08,17.28-2.4,39.72-4a4.29,4.29,0,0,1,1.8,2.52,13.7,13.7,0,0,1,.6,4c0,1.8-1.8,9-5.28,21.48-3.84,13.32-6,21-6.36,23.16-.6,3.72-.84,11.16-.84,22.44.12,8.76-1,15.84-3.24,21.36-1.8-2.52-2.88-6.48-3.24-11.64-.12-1.92-.24-6.36-.24-13.44,0-3.48,1.08-10.44,3.36-21a115,115,0,0,1-7.08,15c-11.16,20.28-24.6,30.36-40.08,30.36-19.56,0-34.44-4.56-44.76-13.56-8.52-7.44-14.28-18.48-17.4-33.24-1.8-8.28-3.24-22.32-4.2-42-.84-18.36-2.4-31.68-4.68-39.84v-48.6c-.48-11.88-1-28.8-1.44-51L16,328.2l.24-95.4q.54-30.42,7-76.68l5.52-38.4c2.16-15.12,3.84-27.84,4.92-38.16l2.76-19.08a119.53,119.53,0,0,1,4.56-20C46.08,25,56.28,12.6,71.4,3.48,76.08.72,82-.24,89.16.6a67,67,0,0,1,20.16,6,77.49,77.49,0,0,1,16.92,10.32c4.92,3.84,7.68,7.2,8.4,10.2C135.72,29.16,137.64,35.64,140.4,46.44Zm58.08,18.12q0,32.58-14.64,58.68C178,133.68,171.36,141.12,164,145.8A238,238,0,0,1,177.6,185c3.48,13.56,6.6,30.24,9.48,49.92l15,56.64c6.84,26,10.2,40.32,10.2,42.84a11.08,11.08,0,0,1-2.4,7.44q-11.34-20.16-18-49.68c-1.44-6.12-3.12-14.64-5.16-25.44l-4.8-25.32q-3.06-13.86-14.16-58.92-6.12-24.3-8.28-34.2a36,36,0,0,1-13.32,3l-1.8,25.8q-1.62,34.92-9.72,82l-16.32,83.64-.6.48-1,.84c-1.32-1.68-1.92-4.56-1.92-8.64l11.88-67.68q12.42-70.56,14.16-98.76L142,147.24V145.8l.12-.36q4.86-85,10.32-136.92c-1.56-1-2.4-1.92-2.4-3a15.35,15.35,0,0,1,.24-3.36c20.16.24,34.08,8.52,41.64,24.72C196.32,36.36,198.48,48.84,198.48,64.56Zm-3.24.36c0-24-7.56-40.2-22.56-48.48-3-1.68-8.28-3.72-15.6-6l-3-1.08v1.8c0,12.12-1.56,43.08-4.8,92.64l-2.52,38.64.12-.12,12-7.2q18.9-12.42,26.64-26.28.9-1.62,5-19.8Q195.24,69.78,195.24,64.92ZM286.08,19.8c-12.12-13.32-24-12.24-35.4,3.36A84.25,84.25,0,0,0,239.88,43,108.4,108.4,0,0,0,235,57.36c-3.84,15.48-6.24,32.88-7.32,52.2-.48,10.56-.6,28-.48,52.32v48c-1.56,19.08-2.52,31.56-2.76,37.32-.12,4.32-.24,14.52-.24,30.48,0,5.4.6,27.36,1.92,65.88q2,60.66,3.24,81.36l1.44,32.52a473,473,0,0,0,4.92,48.48q10.44,63.18,37,63.24,24.3,0,38.88-43.44a223.37,223.37,0,0,0,7.8-32.28,173.34,173.34,0,0,0,2.52-19.2l1.56-47.88c.6-19.8,1.56-35.88,2.76-48V289.08a37.29,37.29,0,0,0,1.08-7.68q0-41.94-7.32-118c-5.16-53.52-9.84-84.12-14.28-91.68a56,56,0,0,1-5.16-13.08l-3.6-14.16C294,32.64,290.4,24.48,286.08,19.8ZM291.84,13c5.4,5.52,8,11.28,8,17.4,0,1.32,2.76,10.68,8.16,27.84,5.88,19,9.24,30.72,10.32,35.4a415.36,415.36,0,0,1,8.88,63.24c1.92,29.16,3.24,50.28,3.84,63.36,1.08,21.84,1.56,42.48,1.56,62a69.53,69.53,0,0,1-1.08,14.16V385c-.48,5.52-1.2,20.52-2,45-1.2,26.28-3.12,48.72-5.88,67.08q-13.14,87.3-51.6,87.24c-11.4,0-21.72-11.52-30.84-34.44A186.43,186.43,0,0,1,233,524.4a118.61,118.61,0,0,1-3.24-15.24q-5-44.82-5-77.16,0-19.26-2.76-86l-2.76-68.16q0-48.24.6-75.84c.6-28.44,1.68-54.12,3.24-76.8,1-16.68,1.92-29.4,2.76-37.92A281.71,281.71,0,0,1,232,49c4.2-17,10.32-29.4,18.24-37.2,6.84-6.6,14.28-9.36,22.56-8.52A31.26,31.26,0,0,1,291.84,13Zm91.92,258.72c-2,18.48-9.24,54.84-21.36,109.08l29.28-2.64v-.48l7.68.12c-1.8-12.84-4.68-33.12-8.88-60.84C387.24,295.92,385,280.92,383.76,271.68Zm-.6-14.52c.36-1.32.84-2,1.2-2.16,3.48,13.56,9.12,52.32,17.16,116.16l.84,6.72h.36l1.32,2.4a14.76,14.76,0,0,1,0,6.48l-.48,1.08q10.62,86.58,10.56,115.2l-.24,12.6c-.12,0-.24.12-.6.48l-1.08.84c-1.8-15.12-3.84-36.24-6-63.48-2.52-31.32-4.32-52.8-5.64-64.56v-.12l-4.2.12-5.76.6-20.28,1.8-10.08.84h-.36l-.48,2.28q-23.22,102.42-30,121.68l-.84-2.16-.24-3.12c0-3.72,4-22.32,11.76-55.8q10.08-43.56,16.2-66.48v-5.28a2.92,2.92,0,0,1,1.92-1.56c3.48-12.6,7.32-33.48,11.76-62.76q5.94-40,12.84-60.6Zm94.32-79-.36,2.4-.72,1.68V210a32,32,0,0,1,4.68-1.32q7.38-1.62,25.92-3.24v-3l-.24-11.64c-.12-9.48,1.2-16,4.2-19.44l1,1.32a6.32,6.32,0,0,1,.48,2.76c0,10.68-.36,21.48-1.2,32.4l.12,1.08-.36,1.92c-1.2,16.2-3.24,32.52-6.12,49.08l-1.2.24-.6-1.8-.12-2.64c0-6,.36-13.56,1-22.56.6-9.72,1.44-16.32,2.28-20l-15.24,1.8c-7.68,1.08-12.48,1.8-14.52,2.4v15.24c-1.68,2.76-2.4,7-2.28,12.6q.18,9.9-.72,12.6h-1.08a59,59,0,0,1-.84-11.76c0-1.68.24-4.2.6-7.68a95.17,95.17,0,0,1,1.56-9.84v-12.6l-1.32-1c-.36-.36-.6-.6-.6-.84,0-1.08.6-1.92,1.92-2.76v-34l1.32-3.84a5.61,5.61,0,0,1,1.44-2.64A22.91,22.91,0,0,1,477.48,178.2Zm-101.76,3.48c0,2.16-1.92,14-5.64,35.52l-8.16,44.88a45.39,45.39,0,0,1-7.32-18.36c-.36-1.32-1.08-7.92-2.4-19.8-1.08,3.48-2.64,9.12-4.68,16.68a54.63,54.63,0,0,1-7.8,16.8,162,162,0,0,1-3-28.08c-.12-4.92-.24-14.16-.24-28q0-16.74,1.08-24.84a79.31,79.31,0,0,1,1.08,12.6v12.6l.72,18.36c.48,11.88,1,21.12,1.44,28,2.76-4.68,5-11.4,6.84-20.28l4.56-22,.72-.36c2.28,17.16,4.8,32.52,7.32,46.32l.6.24c2.28-14,4.32-26.88,5.88-38.64,1.08-8.76,1.92-15.36,2.64-20,1.32-8.28,3.12-14,5.28-17.28A12.77,12.77,0,0,1,375.72,181.68Zm10.32.6a6.26,6.26,0,0,1-.6-2.76,12.48,12.48,0,0,1,.36-3.72c.48-1.56,1.68-2.28,3.72-2.28l71.4-.24a13.23,13.23,0,0,1,2.28,3,7.54,7.54,0,0,1,1,3.24c0,2.52-.36,4.08-1,4.92-1.32,1.56-4.32,2.4-8.76,2.4l-6.48-.6-8.16-.48h-.48v46.8l.24,8.16c0,9.24-.72,22.2-2.16,38.64L434.16,317v67.32c-1.08,13.68-2.16,30.72-3,51.12L429,487.2c-2,41.64-5.64,75.84-11,102.6-.84-.84-1.56-2.76-2.16-5.52a34.87,34.87,0,0,1-.6-5.52c0-4.92,1.44-22.08,4.2-51.24,2.88-30.12,4.32-46.68,4.44-49.8.84-22.68,1.56-39.36,2-49.8,1-18.48,2-35.16,3.36-50v-66.6q4-36.72,5.76-79.56v-46l-46.08-.24A11.11,11.11,0,0,1,386,182.28Zm-27.6-81.36c0,5.16-.6,15.12-1.68,30a11,11,0,0,0,3.48,1c9.36,0,16.08-1.92,20.16-5.64a10,10,0,0,0,3.72-7.56c0-4.92-2.28-9.84-6.72-15a26.12,26.12,0,0,0-19.2-9.48ZM357,90.12l.36-.6.12.72c12,1,20.28,4.8,24.72,11.4,2.76,4.08,4.08,9.84,4.08,17.28,0,4.8-1,8.64-3,11.4-4,5.4-11.4,8-22.44,8l-4.56-.36-.24,1.8c-1.44,18.72-2.4,29.16-2.76,31.32v.24a3.23,3.23,0,0,1-1.56-2.16,11.29,11.29,0,0,1-.36-3.36c0-6.72.36-16.68,1.2-29.76l-.12-.12a3.94,3.94,0,0,1-.84-2.88,10.5,10.5,0,0,1,.24-2.4v-.36l-.6-.36c-.12-.12.36-.24,1.44-.24h.24l.6-7.08c1.08-15,1.92-24.84,2.76-29.64V90.12Zm69.36-68.76L426,27.12c-.12,0-.24.12-.36.24l-.36.48-3-.24q-.36-.18-.36-2.88A1.6,1.6,0,0,1,423,23a1.57,1.57,0,0,0,1.2-1.68c0-1.8-1.44-4.44-4.32-8-3.36-4.2-6.48-6.24-9.48-6.24a22.06,22.06,0,0,0-16.56,7.32,29,29,0,0,0-4.08,5.4A9.25,9.25,0,0,0,388.44,23q0,2.34,6.12,6.12l13.32,7.68C421,45,427.44,54.36,427.44,64.92c0,3.36-1.56,7.2-4.68,11.64-3.84,5.64-8.64,8.4-14.28,8.4C390.6,85,379,80.88,373.32,72.84a21.5,21.5,0,0,1-3.48-9.24l-.12-5.88a53.54,53.54,0,0,1,.84-11.4l.6-.36.24,6.12a26,26,0,0,0,2.4,10.68c4.68,9.72,16,14.64,34.08,14.64q8.46,0,13-5.4c2.28-2.52,3.36-5,3.36-7.32a19,19,0,0,0-6-13.92c-2.52-2.52-6.84-5.28-13-8.52-6.6-3.48-11-6-13.08-7.68-4-3.24-5.88-7-5.88-11.28A20.83,20.83,0,0,1,392.52,8,23,23,0,0,1,406.32,1c5.52-.84,10.08.36,13.68,3.48C424.2,8.16,426.36,13.8,426.36,21.36ZM442.8,95.52l-7.56-.84-7.32.36c-10.32,9.24-16.92,17-19.92,23.64a27.82,27.82,0,0,0-2.16,7.32c4.2-.84,15-1,32.64-.6a5.78,5.78,0,0,1,3.36,1.8,3.54,3.54,0,0,1,1.2,2.52,6.51,6.51,0,0,1-.24,2l-.48,1.2-37.44-.24c-.12,2.4-.24,4.92-.24,7.68a30.48,30.48,0,0,0,2.76,13.44c3.48,7.2,10.2,10.8,20,10.8,11.16,0,20-2.76,26.64-8.16a32.17,32.17,0,0,0,5.4-6l2-3.48.72-.24.84,2,.24,2.88a11,11,0,0,1-1.56,4.32,34.15,34.15,0,0,1-4.92,7.08,27.85,27.85,0,0,1-21.36,9.36c-14.28,0-24-3.36-29.16-10-2.76-3.48-4.08-8-4.08-13.8,0-6,.24-11.4.72-16.32l-.24-.36a6.3,6.3,0,0,1-.24-2.16l.12-2.28c.12-.36.48-.6,1.08-1a65.25,65.25,0,0,1,2.52-11c4-12.48,11.4-21.84,22.32-28.2,10.92-.12,19.32,2.76,25.44,8.88q6.48,6.66,6.48,12.6l-.12,1.8-.24.36c-.84-1.68-2.88-4-5.88-6.72A113.52,113.52,0,0,0,442.8,95.52Zm129.36-55a73.85,73.85,0,0,0-4.56-11.88c-5.52-11-12.6-16.56-21.12-16.56q-37.26,0-50.28,22.8c-4,7-6,15.72-6,26.4q0,21.6,15.6,58.44,9.36,22.14,34.32,73.8,23,49.86,34.32,88Q590.1,334.08,590,382.68l.24,11.28c.12,8.28,0,16.44-.36,24.72a463.1,463.1,0,0,1-7.44,71.52c-5.64,29.64-14.16,53-25.32,70q-21.06,31.5-54,31.44c-23.16,0-38.4-9.48-46-28.32a63,63,0,0,1-4.32-19.68v-9.12a64.53,64.53,0,0,1,.36-8.88,28.93,28.93,0,0,1,4.44-10.32l4.56,4a4,4,0,0,0,5,.24,29.42,29.42,0,0,0-6.12,7.44c-1.92,3.12-2.88,5.64-2.88,7.68a51.66,51.66,0,0,0,1,7.44,69.91,69.91,0,0,0,4.08,14.4c5.64,13.56,14.28,20.28,25.8,20.28q43.74,0,65.64-30c10.44-14.16,18.12-35.4,22.8-63.84q7.56-57.6,7.56-99.84c0-29.16-5.16-60.48-15.48-94.2-7.32-23.88-18.6-52.92-34.08-87.12l-18.24-39.84c-6.84-14.88-12.12-27.24-16-37-10.32-26.28-15.48-47.4-15.48-63.6q0-28.8,14.4-46.08C508.8,5,519.24-.48,531.84-1.32c12.36-1,22.8,2.76,31.56,11,9.6,9,14.4,21.24,14.4,36.84l-.12,9.84c-.36,5.4-1.44,8.16-3.12,8.52-.72-1-1.08-4.08-1.2-9.24l.12-8.76A34.2,34.2,0,0,0,572.16,40.56Z" transform="translate(-15.96 1.47)"/></g></svg>