<svg id="Layer_1" data-name="Layer 1" xmlns="http://www.w3.org/2000/svg" viewBox="0 0 449.8 307.08"><defs><style>.cls-1{fill-rule:evenodd;}</style></defs><path class="cls-1" d="M165.6,140.28c5.76,3,9.24,7.44,10.56,13.44,7.08,34.08-2.76,61.32-29.76,81.84,2.4-32.52,3.36-64.92,2.76-97A23.5,23.5,0,0,1,165.6,140.28Zm-6.48-16.08A27.24,27.24,0,0,0,145.56,128a12.84,12.84,0,0,0-1.32,6.48,6.62,6.62,0,0,0,2.16,4.68q-4,33.12-6.24,66.72-4.32,64.26-10.44,128.16a451.27,451.27,0,0,1-7.08,47.64c-2.52,12.6-1.2,23.4,4,32.28a137.82,137.82,0,0,0,6.72-32.16l11.4-127.44.12-1.08,9.24-7.32a224.81,224.81,0,0,0,7.44,46.56,958,958,0,0,1,24.84,124.08,3.25,3.25,0,0,0,4.08,1.44,2.85,2.85,0,0,0,1-2.4,417.46,417.46,0,0,0-6.24-57.84A895.66,895.66,0,0,0,157,243.36c17.16-16.2,27.36-37.2,30.84-62.76q5-37.62-26-56.16ZM83,152.52a34,34,0,0,1,22.8-13.44,6.76,6.76,0,0,1,4.08,4.56,171.7,171.7,0,0,0,10.68,26.88,16.23,16.23,0,0,0,3.6-9.84c.48-15.36-5.4-27.84-17.64-37.32l-10.2-.48A84.36,84.36,0,0,0,76.92,146q-37.26,65.34-43.2,141.6-4.14,53.64,18,100.56c6.48,13.8,16.68,19.2,30.6,16.08a32.36,32.36,0,0,0,21.48-14.4l4.44,23.52A245.14,245.14,0,0,0,117,366.84a121.5,121.5,0,0,0-5-46.44l-27.48,7.08-.72,10.2,25.56-1.08-1.8,23.16-5.76-4.68L101,356.4l-.48,1.32a13,13,0,0,0-.84,7.08,22.13,22.13,0,0,0,1.8,5.64A26.67,26.67,0,0,1,88.2,383.76c-20,9.36-32.64,1.08-38-24.72q-17.1-83,13.92-164.88A101.39,101.39,0,0,1,83,152.52Zm142.08,57.72,3.6,4.56q34.2,18.72,26,65c-2.16,12.24-8.64,21.36-19.56,27.48q-26.82,14.94-34.56-19.8c-4.92-22.56-2.88-44,5.88-64.44A19.93,19.93,0,0,1,222,211ZM206.52,204q-23.94,50.22-9,105.6c4.92,17.88,16,24.36,33.12,19.32a23.07,23.07,0,0,0,13.8-10.44q28.44-47,10.44-100.56a39.92,39.92,0,0,0-5.28-10.32c-7.32-10.2-18.36-13.92-33.12-11.4A13.55,13.55,0,0,0,206.52,204Zm156.36-54.84c-3.36,2.76-5.4,6.84-6.24,12.24q-6.84,46.44-12.48,93.36-6.66,55.62-15.84,110.88-11-48.78-24-97.2L303,272.16l-.48-9.36a1.89,1.89,0,0,0-1,.36,808.59,808.59,0,0,0-13.08,87.48,152.65,152.65,0,0,1-3.48,22.2q-3.78-36.36-4-73a912.85,912.85,0,0,0-9.72-128.52,118.92,118.92,0,0,0-8.4-31c-2.88,5.64-3.6,12.24-2.28,19.92a560.19,560.19,0,0,1,7.8,66.6Q272,291,276.36,355a208.64,208.64,0,0,1-.36,32.4c-1.08,11.88.72,22.44,5.4,31.44,1.08-3.72,2-7.44,2.88-11.28l2.28,3.72a822.12,822.12,0,0,0,14.16-85.08c1.2-10.68,1.92-21.36,2.28-31.8l.12.24a418.53,418.53,0,0,1,12.24,61.68,247.82,247.82,0,0,0,15.84,62,3.92,3.92,0,0,0,2.76-3,51.54,51.54,0,0,0,.24-23l-.48-1.92c3.12-16.92,5.88-34,8.28-51.24,5.88-42.12,11.28-84.24,16.32-126.6C360.84,190.8,362.4,169.68,362.88,149.16Zm74.28,35.76a260.17,260.17,0,0,0-9.36,80c.36,10,.36,20,.24,30H427a15.42,15.42,0,0,0-.84,4.08,15,15,0,0,0,.84,5.64l.84.48a581.49,581.49,0,0,1-7,72.36c-2.76,16.92-2.16,33,1.8,48.12,4.68-9.84,7.44-21,8.4-33.36q3.42-41.4,4.68-84a77.16,77.16,0,0,0,38.88,2.4c-.6,27.72-1.68,55.2-3.24,82.68l-.24-1.56-1.44-8.16-.24,1.68a56.55,56.55,0,0,1-1,10.2c-2.52,13.32-.84,24.84,5,34.44a17.66,17.66,0,0,0,4.32-11.4q3.6-63.9,4.8-128.16Q483.72,226,479.76,163l-.84-.84-1.08-.84c-2.88,6.72-4.2,14.88-3.84,24.36.84,27,1.32,54,1.2,81.12L475,292l-.48.24-1.2.84-37.2,1.8.24-29.64c.12-10.8.72-21.6,1.8-32.28a201.26,201.26,0,0,0-.36-48.12ZM422,151.56a454.85,454.85,0,0,1-50.52,4.8,18,18,0,0,0-1.32,6.6,10.54,10.54,0,0,0,1.56,5.64,236.27,236.27,0,0,0,26,2.64,167,167,0,0,0-3.72,34.68c-.36,42.84-2.88,85.32-7.32,127.56a517.21,517.21,0,0,1-10.68,63.6c-2.4,10.68-.36,18.36,6.24,23.16l.36-.84a1109.47,1109.47,0,0,0,16.2-126.6,1055.28,1055.28,0,0,0,1.32-121.56l28.92-1.32a6.94,6.94,0,0,0,2.88-4.44c1.2-5.16.12-9.6-3.36-13.08l-1.68-.48Z" transform="translate(-33.07 -122.88)"/></svg>