<svg id="Layer_1" data-name="Layer 1" xmlns="http://www.w3.org/2000/svg" viewBox="0 0 414.28 319.37"><defs><style>.cls-1{fill-rule:evenodd;}</style></defs><path class="cls-1" d="M209.28,176.16c5.4-33,23.64-54,54.72-62.76l2.52.12V119l.12,1.68.12.84A47.89,47.89,0,0,1,282.48,140a261.62,261.62,0,0,1,26.28,109.2q1.62,68-34.44,125.88a36.82,36.82,0,0,1-19,15.36c-21.48,7.8-37.44,1.44-47.88-19.32-2-11.28-3.84-22.68-5.4-34.08A425.64,425.64,0,0,1,204,208.8Zm-24-44.52L182.64,119Q171.3,96.54,147,95.28c-16-.72-29,5.88-39.12,19.8A214.9,214.9,0,0,0,85.56,154a175.14,175.14,0,0,0-11.88,37.56c-2.52,13.08-4.32,26.16-5.64,39.36a449.6,449.6,0,0,0-2,47.52,347.07,347.07,0,0,0,3.72,47.28,192.07,192.07,0,0,0,11.52,43.08c6.12,15.48,16.92,25.2,32.28,29.16,15.72,4.2,30.24,1.08,43.32-9.6a24.23,24.23,0,0,0,6.36-8l5,25.56a216.1,216.1,0,0,0,6.48-94.92A70.32,70.32,0,0,0,138.48,315l-.24,8.88,33.48,1.92L165,365.52l-1.08-4q-26.46,32.4-60.48,13.68a45.2,45.2,0,0,1-23.16-30.36A332.85,332.85,0,0,1,72,289.56a318.9,318.9,0,0,1,.48-47.88c.72-8,1.8-16.08,3.12-24.12a244.16,244.16,0,0,1,9.24-37.2c3.48-10.44,7.56-20.64,12-30.6a71.34,71.34,0,0,1,20.4-26.52c13.08-10.44,27.48-13.2,43.2-8.4a38.78,38.78,0,0,1,21.84,16.08Zm56.28-25.08a29.76,29.76,0,0,0-10.68,9.36,206,206,0,0,0-35.28,91.44,547,547,0,0,0-1.8,128.4c.6,5.52.84,10.92,1,16.32.48,22,8.88,39.72,25.32,53.52q21.42,18,43.2,0,28.26-23.4,40-59.16a287,287,0,0,0,12.48-127.08A295.48,295.48,0,0,0,285.12,119l1.2.84,2,1.44,1.56,1.32.6.72.84.12a6.43,6.43,0,0,1,2.28.84l1.68,1.08.36.12.12-.72c-5.64-16.08-17.4-24.72-35-26A123.94,123.94,0,0,0,241.56,106.56ZM403.2,387.12a507.51,507.51,0,0,1-62.64,6.12,308.68,308.68,0,0,0,3.24-37.08c1-42.84,2.52-85.68,4.56-128.28q3.24-65,.36-128.28c-2.76,4.92-4.2,10.8-4.44,17.76l-4.56,129.12q-2.52,64.26-7.56,128.16c-.84,10.44.36,19.56,3.84,27.36l1.08,3.6.72.12.36.72.12-.6a155.11,155.11,0,0,0,66-1.56l.24-.84C407.16,397.56,406.68,392.16,403.2,387.12Zm30.36-272q22.14,1.26,44.28.72l.6-.6a13.52,13.52,0,0,0-.6-14.52A254.14,254.14,0,0,0,428,102.6a12.48,12.48,0,0,0-.6,9,31.86,31.86,0,0,0-1.8,9.84q-3.06,64.08-1.44,129.12A761.13,761.13,0,0,1,420.72,347a240.46,240.46,0,0,0,1.92,64c.72-.24,1.2-.6,1.32-1.08a128.85,128.85,0,0,0,5.52-38.76l.12-41.28.12-100.68c11.28-1.2,22.56-2.76,33.72-4.56a17.21,17.21,0,0,0,1.68-4.08,11.44,11.44,0,0,0-2.4-10.56l-4.92-.24a272.36,272.36,0,0,0-28.08,5.88V200.76A647.24,647.24,0,0,1,433,136,135.78,135.78,0,0,0,433.56,115.08Z" transform="translate(-65.99 -95.23)"/></svg>