<svg id="Layer_1" data-name="Layer 1" xmlns="http://www.w3.org/2000/svg" viewBox="0 0 595.57 842.18"><defs><style>.cls-1{fill:#fff;}.cls-2{fill:none;stroke:#fff;stroke-linecap:round;stroke-linejoin:round;stroke-width:0.38px;}.cls-3{fill-rule:evenodd;}</style></defs><rect class="cls-1" x="0.31" y="0.31" width="595.08" height="841.68"/><rect class="cls-2" x="0.19" y="0.19" width="595.2" height="841.8"/><path class="cls-3" d="M107.76,87.6C82.32,108.84,66,136,58.92,168.72a505.11,505.11,0,0,0-11.4,127A229.84,229.84,0,0,0,81.24,408.12c8.52,14,21.12,20.28,37.56,18.6a111.33,111.33,0,0,0,30.36-7.44c7.8-3,13.44-6.72,17.16-11.16l-1,9q-1.62,14.76,5,24.48l.72-.84a487.77,487.77,0,0,0,3.6-113.64,205.89,205.89,0,0,0-42.12,4.68,10.4,10.4,0,0,0,1.08,10.56c13.56.72,25.92,1.08,37.32,1.08-.6,13.56-1.44,27-2.52,40.44a101.56,101.56,0,0,1-42.36,24.24q-13.32,4-24.48-3.24a77.15,77.15,0,0,1-30-36.12,198.64,198.64,0,0,1-12.12-41.28,396.48,396.48,0,0,1-2.28-124.92A183.77,183.77,0,0,1,89.52,121q21.06-29.88,56.28-21.6a46.21,46.21,0,0,1,13.92,15c1.2,2.16,2.64,3.48,4.2,3.84a26.08,26.08,0,0,0-4-20A60.66,60.66,0,0,0,148.56,85l-1.44-.72A51.73,51.73,0,0,0,121.2,80.4,36.52,36.52,0,0,0,107.76,87.6Zm149.16,31.68,19.32,140.28L229,268.2l25-131.16ZM257,89.52c-3.84,4.68-6.36,10.68-7.44,18q-9.9,63.18-22.08,126.12l-7.2,37.68c-1.56,2.28-2,4.56-1.2,6.84-5,27-9.72,54.12-14.16,81.12a567.51,567.51,0,0,1-13.92,63c-2.76,10-1.08,17.52,4.8,22.8A127,127,0,0,0,202.68,420l21.6-125.76,2.28-12.6a472.29,472.29,0,0,0,51.84-7.2l3.48,24.12q8.82,63.18,19.2,125.64c1.2,8,4.08,13.8,8.76,17a5.46,5.46,0,0,0,.6-2.4,347.49,347.49,0,0,0-7.92-68.28c-1.68-7.8-3.12-15.72-4.2-23.64q-8.82-63.36-19-126.6-9.9-61.74-21.72-122.52ZM402.36,291.24q-8.1,36.54-7,78.84a57.71,57.71,0,0,1-7.08,29.76,78.17,78.17,0,0,1-19.56,23.88H353c-10.44-7.92-16.2-18.84-17.52-32.88a137.28,137.28,0,0,1,.36-28.08,444.91,444.91,0,0,0,2.4-68l-.72-7.68a671.73,671.73,0,0,0-10.2,104.28,63.6,63.6,0,0,0,6.24,29.4c5.64,11.88,14.52,18.36,26.4,19.56,11,1.2,19.08-3.36,24.24-13.68a227.21,227.21,0,0,0,22-76.92,223.86,223.86,0,0,0-.6-49.08l3.36-1.2-4-2.28Zm-26.64-22.08c2.88-5.4,2.64-10.44-.72-15.36l-65.28,6.84q2.34-22.68,2.88-46.08c.36-19.44,1.2-38.88,2.76-58.32A238,238,0,0,0,312,92c-2.16.84-3.24,2.76-3.24,5.64.12,42.84-1.08,85.56-3.84,128.28Q304,238,302.4,250.08q-2,12.78,3.24,20.16a14.11,14.11,0,0,0,1.2,3.6A418.84,418.84,0,0,0,375,270.12Zm59.76-165.48q1.8,64.08-1.8,127.44-3.6,64.26-6.72,128.28c-.6,10.8-1.44,21.48-2.52,32.16a182.81,182.81,0,0,0,1.2,48.12l.48-.12.24.6.6,1.68A423,423,0,0,0,500.88,444c.72,1.56,1.8,1.92,3.36,1.2a2.61,2.61,0,0,0,1-.6,24.89,24.89,0,0,0,2.28-11.4,10.05,10.05,0,0,0-4.2-8.16H501.6l-11.28-.24-58.56,2.88L433.44,417c.84-.6.48-1.8-1.08-3.36.6-21.84,1.32-43.68,2.4-65.64q3.06-64.08,6.48-128.28a973.13,973.13,0,0,0-1.32-128.28C436.8,94.2,435.36,98.28,435.48,103.68Z" transform="translate(0.19 0.19)"/></svg>