<svg id="Layer_1" data-name="Layer 1" xmlns="http://www.w3.org/2000/svg" viewBox="0 0 419.14 326.6"><defs><style>.cls-1{fill-rule:evenodd;}</style></defs><path class="cls-1" d="M172.68,131.28a34.07,34.07,0,0,1,4.2,13.2c8-15.72,4-28.32-12-37.92-13.8-8.28-27.72-7.32-41.52,2.76A88.44,88.44,0,0,0,93.84,145.2,283.94,283.94,0,0,0,79.2,185.52,227.18,227.18,0,0,0,73,217.44c-1.32,10.56-2.4,21.24-3.48,31.92-1.32,13.2-2.16,26.52-2.52,40.08a266.73,266.73,0,0,0,3,45.84q3.42,22.5,8.64,44.64c4.08,16.92,13.44,28.2,28.2,33.72,15,5.64,29.64,5.16,43.92-1.56a65.9,65.9,0,0,0,29.4-27.24c-2.76,11.76-1.2,24.24,4.68,37.56A317.57,317.57,0,0,0,190,312.84,56.44,56.44,0,0,0,152,316.92l.6,11.64,33.48-.84-2.76,30.12-2.64-4.2-5.4,12.24-3.84,1.92,2.4,1.68q-19.08,32.22-56.28,29c-15.72-1.2-26.4-10.08-32-26.52a217.62,217.62,0,0,1-11.64-68.76A444.48,444.48,0,0,1,81.84,214,305.76,305.76,0,0,1,96.48,162.6a59.32,59.32,0,0,1,4-8.4,75,75,0,0,1,7.56-11,77,77,0,0,1,20.28-17.64,53.64,53.64,0,0,1,18.72-7C158.28,116.76,166.8,121.08,172.68,131.28ZM296,169.08a110.23,110.23,0,0,1,29.64,38.16q31,65.34-20.28,118.08a32.09,32.09,0,0,1-14.4,8.76q-38,11.16-53-24.24a118.82,118.82,0,0,1-10-45.24,178.57,178.57,0,0,1,8.4-61.2q10.62-33.48,45-37.8a39.72,39.72,0,0,1,9.6,7.92q2.88,3.24,6.12,1.8v-1.56A8.5,8.5,0,0,0,296,170.4l-.12-.72Zm-15.72-17.76c-30.6,7.44-48.6,26.88-54.24,58.32a271.09,271.09,0,0,0-.72,93.36,59.3,59.3,0,0,0,4.32,14,94.4,94.4,0,0,0,11.16,18.6c10.2,13,23.16,18.84,38.88,17.52q20.52-2,34.56-18a121,121,0,0,0,22.56-38,119.34,119.34,0,0,0,7-52,147.41,147.41,0,0,0-16.92-56.88,138,138,0,0,0-27.24-35.4l-5.76-5.4-8.16-.24ZM470,296.76a105.94,105.94,0,0,1,7,42.36,64.22,64.22,0,0,1-16.44,41.4,78.94,78.94,0,0,1-39.24,24.24,111.65,111.65,0,0,1-44.16,2.4Q386.34,337,389,260.64c6.48,3.72,13.44,4.2,20.88,1.2,2.52-1.08,5-2.16,7.56-3.48l24.6,1.68A80.35,80.35,0,0,1,470,296.76ZM429,138.6c12.36,10.8,19.08,24.48,20.16,40.92A66.08,66.08,0,0,1,437,223.32c-9.48,13.56-22.44,20.52-39.12,20.64l-8.28-.48a987.51,987.51,0,0,0-3-116.16C402.36,123.84,416.4,127.68,429,138.6Zm-37.8-27.36a56.77,56.77,0,0,1-7.92,3,1.1,1.1,0,0,0-.72.48,13.39,13.39,0,0,0-1.32,6.48,12.76,12.76,0,0,0,1.44,5.16,80.35,80.35,0,0,0-.84,19.56,850.6,850.6,0,0,1-1.2,127.32L370.08,400.92l-.48-.48a15.49,15.49,0,0,1-2.4-8.88l-.48.24a31.06,31.06,0,0,0,2.88,14.64c-2.88,8.28-1.68,14.4,3.72,18.36l.84-4.32a10,10,0,0,0,3.84,7,223.2,223.2,0,0,0,50.64-4q21.78-4.14,34.56-21.6C478.92,380.4,486.6,356,486,328.8q-1.08-55.08-45.48-84.12l-3.48.12c9-9.24,14.76-21.24,17.52-36a106.63,106.63,0,0,0-3.24-52.2c-9.24-28.92-29.16-44-59.52-45.6Z" transform="translate(-66.89 -100.98)"/></svg>