<svg id="Layer_1" data-name="Layer 1" xmlns="http://www.w3.org/2000/svg" viewBox="0 0 559.44 585.28"><defs><style>.cls-1{fill-rule:evenodd;}</style></defs><path class="cls-1" d="M450.6,490l-19.8,64.2a342.91,342.91,0,0,1-31-67.92,144,144,0,0,0-12.72,41.4,76.3,76.3,0,0,1-4.8,17.76,41,41,0,0,0-2.88,11.88,16.36,16.36,0,0,0,2.88,11.16L399.12,510l30,61.44h3.24a253.1,253.1,0,0,0,19.08-47.28,73.67,73.67,0,0,0,2.28-30.24l-.84-5Zm92.16,27.36-.6,1.8-1.8-2ZM187.2,390.48q13.32,13.32,1.08,27l-1.56,1.68-3.24.12-1-28.32ZM176.76,384l-.36,6.48,3.24.48c-8.76,37.8-9,73.44-1,107l4.68-65.88,5.52.84A348.31,348.31,0,0,0,211,495.36q.36-34-17.52-68c10.44-15.72,9.6-31.08-2.76-45.84a16.75,16.75,0,0,0-13.08,1.8ZM129.12,37.2c16.44,8.28,26,21,28.8,38.28q6.84-15.66-3.6-31.32-20.7-31-60.12-29A100.17,100.17,0,0,0,68.64,36.48a71.26,71.26,0,0,0-13.56,24A480.71,480.71,0,0,0,31.2,186.36Q27.6,250.62,28,315.48q.36,64.44,5.28,128.28l2.64,32.64q3.78,45.36,31,80.28c7,9,16.2,14.88,27.72,17.88q31.32,8.28,52.8-18.6A59.25,59.25,0,0,0,157,539a61.75,61.75,0,0,0,3-11.4,128.23,128.23,0,0,1-3.12,18c-3.72,15.12-3.84,29.28-.48,42.6.6-.12.84-.24,1-.48a367.75,367.75,0,0,0,8.76-126.48L124.2,468.6a9,9,0,0,0-1.08,9.72L162.6,477c-1.08,11.4-1.56,22.68-1.68,34.08,0,4-.12,7.8-.48,11.76a45,45,0,0,0-6.48-25.2l-1.56,8a43.42,43.42,0,0,0-.12,13.08l1.08,5.64a76,76,0,0,1-19.8,24.6,38.1,38.1,0,0,1-17,8.16q-29.88,5.76-48.72-19.32a51.91,51.91,0,0,1-5.64-9.48,272.87,272.87,0,0,1-22.44-87c-1.8-21.48-3.24-43.08-4.32-64.92Q32.52,313.08,34.2,249q1.26-45,6.12-89.4C41,153,41.64,146.52,42,140A202.94,202.94,0,0,1,66.6,55c5.28-4.68,10.44-9.6,15.6-14.64L89,33C102.84,29.28,116.16,30.72,129.12,37.2Zm139.32,153a255.46,255.46,0,0,1,55.68-5.4c3-4,3.48-8.16,1.68-12.84l-2.16-4.2-54.48,5.4a78.65,78.65,0,0,0-2.4-31.32c-5.52,14-6.12,29.16-1.68,45.6a27.78,27.78,0,0,0,1.56,4.44ZM203.52,32a430.47,430.47,0,0,0,14,73.8,85.47,85.47,0,0,1-18.48-1.92l-14.28,1.8C190,88.32,194.88,70.8,199.56,53.4A141.33,141.33,0,0,0,203.52,32ZM191.4,51.84a328.09,328.09,0,0,0-10.8,34.44c-3.36,13.8-7.2,27.48-11.64,41.16a200.36,200.36,0,0,1-16.8,38.64c-7.08,12.6-7,24.24.36,34.68l28.68-83,39.72-.36c3.72,11.52,7.08,23,10,34.68,2.52,10.32,4.8,20.64,6.6,31.08A62,62,0,0,0,241,195.36c1.68,4,4,6.72,7,8.28a61.62,61.62,0,0,0-.48-18.72,322.28,322.28,0,0,0-7.8-33.48l-12-41.16L223.08,93.6q-11.34-43-20.88-81.12l-.12.72A218.12,218.12,0,0,1,191.4,51.84Zm143-11.4Q339.66,88.14,310,124c-10,12.12-21.24,14.28-33.84,6.72a9.83,9.83,0,0,1-4.32-4.8Q254,83.58,265.56,37.56c2.76-11.16,2.88-21.6.12-31.08C262.32,9.12,260.16,13,259.32,18a296.81,296.81,0,0,0-1,100.92,34.71,34.71,0,0,0,9.48,19.32q24.12,24.66,47.88-1.08a106,106,0,0,0,23.16-52,499,499,0,0,0,5.28-51.84c.48-9.48-1.92-16.56-7.08-21.24A68.23,68.23,0,0,0,334.44,40.44ZM388.8,398.76a360.06,360.06,0,0,1-30,122.76,87.73,87.73,0,0,1-29.64,36.6q-32.4,23-57-8.76-23.58-30.42-28.56-69.48a878.48,878.48,0,0,1-7.44-128.4c.24-16,.84-32,1.92-48q3.6-61,55.2-90.24l2.16-.6,4.08-1.56a134.87,134.87,0,0,1,26.76,4.08,174.63,174.63,0,0,1,40.8,58.32Q393,333.06,388.8,398.76ZM385.92,298.2a242,242,0,0,0-46.68-92.76L337,204.36a104.53,104.53,0,0,0-37.2-10.08v.12a28.17,28.17,0,0,0-8,3.48l-2.76,2.4c-4.92,2.52-9.72,5.4-14.52,8.4a55.89,55.89,0,0,0-22.2,25.56q-26.46,59.58-25.68,126.24A1217.31,1217.31,0,0,0,234.72,488q5.94,49.68,38.28,86.16,10.62,12.06,26.28,12.24c27,.36,46.8-12.12,59.28-37.2a368.66,368.66,0,0,0,36.36-124.8A348.49,348.49,0,0,0,385.92,298.2ZM503.28,408.72a493.45,493.45,0,0,0-11,95.4,52.82,52.82,0,0,0,8,29.88c8.88,14.28,20.64,16.2,35.16,5.52l3.36-2.76a39,39,0,0,0,2.88,13.92l.6-1a77.55,77.55,0,0,0,4.8-46.2l-24.36,3-.12.84a12.92,12.92,0,0,0,.12,4.8,86.68,86.68,0,0,0,13.08,4.2,6.89,6.89,0,0,0-.72,4.44,5.19,5.19,0,0,1-.72,3.36c-8,7.68-16.92,9-26.76,4a13.81,13.81,0,0,1-4.68-9,629.38,629.38,0,0,1-2-81.12,41.52,41.52,0,0,1,10.32-26.52q18.54-21.06,30.24.36l.48-1c3.72-13.92-1.2-22.2-14.88-24.84a28,28,0,0,0-11.64,4.8A29,29,0,0,0,503.28,408.72ZM432.6,225.12a14.73,14.73,0,0,1-3.48,3.24A28.91,28.91,0,0,0,415,230.28c.12-8.28-.12-16.68-.6-25,11.52-1.32,18.12,3.84,19.92,15.72A10.92,10.92,0,0,1,432.6,225.12Zm29.16,69.24v2.4a34,34,0,0,0-.84,6.36,424.41,424.41,0,0,1-3,44.4c-1.56,13-.24,24.36,3.72,34.2l.48-.72a356.34,356.34,0,0,0,3.12-82.2,44.42,44.42,0,0,1,10.56-.12q35.1,4.5,27.84,37.08a17.29,17.29,0,0,1-5.4,9.24,102.21,102.21,0,0,1-32.64,19.8,8,8,0,0,0-.72,2.4,29.74,29.74,0,0,0-.12,5.64,4.45,4.45,0,0,0,3.84,4.56,3.19,3.19,0,0,0,2.88.36,132.51,132.51,0,0,0,27.72-13c9.48-12,13.8-25.8,13.08-41.52-1.08-24.12-14.64-35.88-40.44-35.4a10.86,10.86,0,0,0-9.48,4.08l-.36.84Zm-16.44-30.6a80.45,80.45,0,0,1-33.6,18.6c1.68-13.68,2.76-27.36,3.12-40.92a20.07,20.07,0,0,0,11.16-2l4.2-2.52a35.65,35.65,0,0,1,18.36,21.84A12.2,12.2,0,0,1,445.32,263.76ZM410.52,206c-1.56,17-3.6,34.08-6.24,51q-3.42,21.06,5.76,38.88l22.44-6.12c10.44-3,17-9.84,19.8-20.64,4.32-17-1.32-29.4-17-37.08a17.64,17.64,0,0,0,4.44-10l.36-5a25.08,25.08,0,0,0-9.84-19.56A28.91,28.91,0,0,0,421,195.6l-5,.48a11.82,11.82,0,0,0-3.36,1L408,199.2l.6,7.32Zm-57-123.36a28.17,28.17,0,0,0-3.36,13.68Q350,142.26,348,187.2c24.84-.36,49.56-.36,74.4-.24l.48-.84a15.5,15.5,0,0,0-.48-13.8c-23.16-1.44-46.08-1.92-68.76-1.56v-.84a265.08,265.08,0,0,0,.48-87.6A.55.55,0,0,0,353.52,82.68Zm62-74.88A178.82,178.82,0,0,0,368.76,11a15.26,15.26,0,0,0-.36,5.76v.84l.36,1.56,46.8,1.32L402.48,31.2a146,146,0,0,1-14,10.8c-14,9.72-20.4,21.72-18.84,36.24l66.84,4.08a13.23,13.23,0,0,0,1.56-9,8,8,0,0,0-.72-2.4l-.84-1.68L386,63.6a266.33,266.33,0,0,1,24.84-22.92,59,59,0,0,1,10-6.48c11.52-5.4,16-13.56,13.44-24.24a1.09,1.09,0,0,0-.84-.36Zm99.36,12.48q.54-15.12-15.48-16.92C477.48.6,464.28,12,460.08,37.44Q455,67,485.28,70.56c11.52,1.08,19-3.72,22.44-14.4l.72-2.64-3-2.16a54.76,54.76,0,0,1-36.6.84L467,41.4a60,60,0,0,0,25.2-2.52l3.48-1.32.84-2.28.12-1v-1.2l-.36-2.4a3.92,3.92,0,0,0-1.32-1.8l-22.08,1c9-11.4,20.52-15.48,34.32-12.24A48.51,48.51,0,0,1,514.92,20.28ZM564.36,90.6a44.55,44.55,0,0,1,15,24.48c.6,2.52,1,5.16,1.32,7.8,6.24-15.48,3.36-29.64-8.52-42.72-10.92-12-24.6-18.12-40.8-18.36-16-.24-29.28,5.52-40.2,17.16a86.35,86.35,0,0,0-20.88,39.84,84.55,84.55,0,0,0,2.4,46.32A132.82,132.82,0,0,0,490.8,200.4q13.5,18.9,25.2,39.24a453.71,453.71,0,0,1,20.88,41.88q9.36,21.42,16.56,43.56,6.48,19.62,11.16,40c3.24,13.44,5.76,26.88,7.8,40.44l4,27.24a326.55,326.55,0,0,1,3.6,46,111.72,111.72,0,0,1-8.88,45.12c-6.6,15.72-17.52,26.76-32.76,32.88s-29.64,5.64-43-1.68a20.52,20.52,0,0,1-10.08-13.2,107.47,107.47,0,0,1-2.76-44.16,31.11,31.11,0,0,0,.48-5.76q-18.72,25-9.24,57.48a47.81,47.81,0,0,0,16.68,25.08c10,7.8,21,10.32,33.24,7.68A66.79,66.79,0,0,0,556.08,566a77.55,77.55,0,0,0,22.8-36.6,199,199,0,0,0,7.2-37.32,255.54,255.54,0,0,0,1.08-35.88,517.35,517.35,0,0,0-7.44-70.56c-2.76-15.6-6.24-31.08-10.44-46.32-2.64-9.24-5.52-18.48-8.76-27.72S553.8,293.52,550,284.52l-10.08-22.44A419.9,419.9,0,0,0,510,208.32c-9.24-14-18-28.32-26.16-42.84s-9.72-30.36-4.44-47.16a219.36,219.36,0,0,1,7.92-20.88c15-15.24,33.36-20.88,54.84-17.16A46.74,46.74,0,0,1,564.36,90.6Z" transform="translate(-27.93 -2.96)"/></svg>