<svg id="Layer_1" data-name="Layer 1" xmlns="http://www.w3.org/2000/svg" viewBox="0 0 532.21 424.21"><defs><style>.cls-1{fill-rule:evenodd;}</style></defs><path class="cls-1" d="M113,67.32a77,77,0,0,0-30.24,34,274.41,274.41,0,0,0-15.72,42.24C63.36,157,60.36,170.64,58,184.44a443.53,443.53,0,0,0-5.64,47.16c-.72,10.56-1.2,21.12-1.44,31.8l-1,46.44a350.08,350.08,0,0,0,1.44,42q2,20.88,5.76,41.4a113.11,113.11,0,0,0,17.16,42,87.77,87.77,0,0,0,34.08,30.12c14.52,7.32,29.16,8.16,43.8,2.52,13.08-4.92,22.44-13.8,28.2-26.76a50.23,50.23,0,0,0,4.44,34,547.89,547.89,0,0,0,3.36-142.32,109.69,109.69,0,0,0-56.4,2.52l-.48,10.44,6.12,2.76a85.91,85.91,0,0,1,47-1.32q9.18,57.78-27.84,99.24a26.24,26.24,0,0,1-19.32,9.12,62.13,62.13,0,0,1-22-3.72,69.65,69.65,0,0,1-28.68-20.4,145.5,145.5,0,0,1-9.84-12.84A109.8,109.8,0,0,1,69,405c-1.44-3.24-2.76-6.48-4.08-9.72a95.22,95.22,0,0,1-6-25.68c-1.8-19.68-2.76-39.36-2.88-58.92q-.18-45.9,2.16-91.8A324.07,324.07,0,0,1,69.36,151.2a191.44,191.44,0,0,1,17.88-42.84q26.46-45.9,79.08-35.88l13.56,16.8q4.68-25.38-23-30.24C141.36,56.28,126.84,59,113,67.32Zm81.6,133Q190.5,252.84,190,304.92a250.62,250.62,0,0,1,52,0c3-4.32,3.24-8.88.72-13.8a93.22,93.22,0,0,0-47-1.56l.12-.6c2.16-33,3-65.52,2.52-97.32Q195.18,194.7,194.64,200.28ZM462.12,314.4q-27.18,23.4-10.32,53.52a38.41,38.41,0,0,0,11.4,12.36c12.6,9,20.52,20.88,23.52,35.88q-5.94,31.5-34.56,37.8c-12.36,2.76-21.12-1.56-26.52-13.08a103.67,103.67,0,0,1-4.56-10.8l-3.6.12c-2.16,19.56,6,33.24,24.6,40.92C454.2,476,464.76,473.4,474,463c10.92-12.36,16.92-26.52,17.88-42.72.84-12.72-2.76-23.76-10.8-33.24a360.48,360.48,0,0,0-32.16-32.76q4.14-32.76,32.52-22.08A49,49,0,0,0,491.88,335a6.77,6.77,0,0,0,2.4-5,12,12,0,0,0-1.32-6.12q-11.7-12.42-28.44-9.72ZM405.36,56.52l-.48.12c-4.08,4.2-4.92,9.36-2.52,15.6-1.92,31.32-3.24,62.64-3.84,94.2q-1.44,64.62-5.52,129c-.6,10.92-1.08,21.72-1.32,32.52-.6,38.28-10.56,73.44-30.12,105.6q-17.64,29.16-51.48,27.6a15,15,0,0,1-9.24-3.84q-24.12-22.86-27.12-57.48a1252.45,1252.45,0,0,1-4.8-127.56q.9-64.26,2.16-128.28c.36-16.32,1.44-32.52,3.12-48.6,1.32-12.12.48-22.56-2.28-31.56l-.48,1.68a1137.94,1137.94,0,0,0-6.72,128.28q.18,64.62-1.56,129a406.13,406.13,0,0,0,16,126.36c4,13.8,12.48,23,25.68,28A28.8,28.8,0,0,0,329.16,476c29.64-14.52,48.84-38.28,57.36-71.28A441,441,0,0,0,399,329.4c1.68-21.24,3.12-42.6,4.32-64.2,2.52-42.48,3.72-85.2,3.84-128.28a261.5,261.5,0,0,1,2-32.16C411.48,87.6,410.16,71.52,405.36,56.52ZM579.6,59l-86-3.24a342.66,342.66,0,0,0-45.48,2.76,7.88,7.88,0,0,0-4.92,2.28l-.72,3.24v4.08l.6,2.4.48.84.84.48,3.72.48.48-.12q38-2,75.84-1.2a861.92,861.92,0,0,0-3.84,120.72q2.34,64.08,5.76,128.28a750.72,750.72,0,0,1-4.2,128.28c-1.44,12.12,0,22.68,4.44,31.68A664,664,0,0,0,533,384.24c-.12-43.2-1.56-86.16-4.56-129a1204.72,1204.72,0,0,1-2-128.28c.72-19.08.84-37.8.24-55.92l52.92,2.28a8.58,8.58,0,0,0,2.4-6.48V66l-.12-1.56a12.88,12.88,0,0,0-1.08-4.08l-.36-.84Z" transform="translate(-49.8 -55.79)"/></svg>