<svg id="Layer_1" data-name="Layer 1" xmlns="http://www.w3.org/2000/svg" viewBox="0 0 564.47 529.62"><defs><style>.cls-1{fill-rule:evenodd;}</style></defs><path class="cls-1" d="M334.8,524.16l.72,2.4a525.44,525.44,0,0,0,21-74l-1,72.72a267,267,0,0,0,17-61.44,243.89,243.89,0,0,0,8.4,70.32,12.17,12.17,0,0,0,2.88-12.84,130.77,130.77,0,0,1-4.68-21.84,443.93,443.93,0,0,1-3.36-66.84L359,500.88l-.84-64.68a107.8,107.8,0,0,0-11.52,36.6,86.14,86.14,0,0,1-5.4,20.88l-3.84,10.08A30.87,30.87,0,0,0,334.8,524.16ZM318.24,463.8a227.43,227.43,0,0,0,4.56,60,69.94,69.94,0,0,0,1.8-22.8q-2.16-34.74-1.8-68a789.38,789.38,0,0,0-21.36,77.64l2.16-40c.84-14.16,0-27-2.76-38.52-4.68,13.68-8.76,27.84-12.36,42.36-4,15.84-7,30.72-9.24,44.76a398.36,398.36,0,0,0,19.68-66l.12,1.56c-.84,24.36-.72,48.36.24,72.24A273.09,273.09,0,0,0,318.12,463ZM338.4,350.64l-13.68,55.44L309.48,347.4c-3.6,14.52-6.72,29.16-9.24,43.92a125.43,125.43,0,0,0-1.56,25.92l11.16-49.8,13.8,52.44a117.1,117.1,0,0,0,14.64-33.6,70,70,0,0,0,1.2-31.92Zm-31.56-64.2,10.2,1.44a18.75,18.75,0,0,1,5.64,11.76c1.08,12.6-4.56,21.84-17,27.6l.84-3a6.17,6.17,0,0,0,.24-5c-.12-.6-.48-.72-.84-.48a2.74,2.74,0,0,0-.84,1.2Zm1-40.92a360.85,360.85,0,0,0-4.56,94.08l.48-.84,1.2-4a3.54,3.54,0,0,0,5.16.48q30.6-23.94,10-54.72a100.41,100.41,0,0,0,3.6-11.16c4-14.28-.36-23.52-13.08-27.48a2.48,2.48,0,0,0-2.16,2.88C308,244.92,307.92,245.16,307.8,245.52Zm12,6.72a38.07,38.07,0,0,1-3.48,24.36l-9.12,2.28,1.56-29.4q3.78-3.78,10.08,1.8ZM130.32,60.6c-6.6-25.8-24.12-37.68-52.44-35.4A37.16,37.16,0,0,0,60.24,36.72a16.9,16.9,0,0,1-6.12,4.2A75.32,75.32,0,0,0,35.88,72.48a411.61,411.61,0,0,0-15.72,95.76c-2,42.84-3.48,85.92-4.56,129.12-1,42.12-1.08,84.24-.36,126.6.36,15.84,1.32,31.56,2.88,47.28a109.07,109.07,0,0,0,20.16,54.12q23.76,33.3,61.8,10.08a91.49,91.49,0,0,0,14.28-23.16c-.12,10.92-.12,21.72,0,32.64l1.32-.24A260.6,260.6,0,0,0,121.8,493c.36-18.48-.12-36.36-1.2-53.52a123.6,123.6,0,0,0-29.16,7.32l-.24.84a10,10,0,0,0,.84,7.2c9.72.36,17.88.36,24.24,0v.84l-.84,17.64c-1.44,6.6-2.76,13.32-3.84,20.16-3,18-13,29.52-29.64,34.44q-29.16,8.64-42.24-17.52a168.94,168.94,0,0,1-17-63.36,1250.61,1250.61,0,0,1-2.4-129.12c1.56-42.6,3.24-85,5.16-127.32l3.24-66.72Q31.38,72,71.4,40.32q32-10.08,51.72,14.64a60,60,0,0,1,3.12,8.88,68.39,68.39,0,0,0,3,8.76l.84,1A23.74,23.74,0,0,0,130.32,60.6Zm199.92,70-2-2-7.92-.24q-14.58,14.22-14.4,36.36a217.87,217.87,0,0,0,5.52,47.52,10.1,10.1,0,0,0,11.76-.36l5.16-4.2a22.72,22.72,0,0,0,3.84-4.44v13.2a114.88,114.88,0,0,0,6.84-43.2,25.58,25.58,0,0,0-15.12,4L319.8,180h16.56a32.93,32.93,0,0,1-11.28,21.36,16.9,16.9,0,0,1-4.8,3.24l-3.72,1.08-1.8-.48c-5.28-8.88-7.08-18.84-5.52-29.76a209.77,209.77,0,0,1,8.88-37.2l9-1.8,3.12,2.64,1.44,4.32a5.39,5.39,0,0,0,1.92-3.72,11.86,11.86,0,0,0-.48-5.4l-.72-1.2Zm-151.68,61.8-37.08-1.56C142.8,149,143.4,107.28,143,65.4c0-11-.6-22-1.68-32.88l-.48-1.68a234.62,234.62,0,0,0-3.6,43.08L138,170l.24,32.16,40.68-2.52Zm14.28-49q-2.88,62.82-2.28,126.72l1.08,128.16A1201.19,1201.19,0,0,0,199.08,525c1.56,12.84,8.88,19.32,22.2,19.56q31.86.36,45-28.68a169.61,169.61,0,0,0,13.44-46.44q8.82-63.72,14-128.4,5-64.8,4.08-130c-.36-21.72.24-43.32,1.56-64.8.6-10.68-1.8-18.24-7.44-22.92a83.26,83.26,0,0,0-2.16,22q2,64.26-.36,128.16-2.52,65.16-8.52,130l-2.52,32.64A206.22,206.22,0,0,1,257,515.4c-14.52,15.72-31.2,19.08-49.8,10.08A133,133,0,0,1,204,505.92a1262.36,1262.36,0,0,1-7.2-128.16c-.24-43.32-.36-86.52-.24-129.84q.18-65.34,1.68-128.28A62.76,62.76,0,0,0,192.84,143.4Zm99.24-56.64c-7.08,14-19.08,20.52-36,19.2-16.8-1.56-27.48-10.44-32.16-26.64-5-17.4.24-29.76,15.72-37,14-6.36,27.84-4.8,41.28,4.68C295.2,57.24,298.92,70.44,292.08,86.76Zm4.68-.72c3.24-16.56-1.2-30.84-13.08-42.84C272.76,32.28,259.56,28.56,244.2,32c-16.2,3.72-25.44,14.28-27.48,31.8a49.36,49.36,0,0,0,11,38.16,48.07,48.07,0,0,0,31.92,12.84c13.2.84,23.52-4.08,30.84-14.88A39.43,39.43,0,0,0,296.76,86Zm73.92,336.6a216.28,216.28,0,0,0,13.56-76.2l-14.64,65.4A179.31,179.31,0,0,1,357.12,351c-3.48,13.56-7.08,27.48-11,41.64a86.43,86.43,0,0,0-3,25.44l13-41.4A92.42,92.42,0,0,0,370.68,422.64ZM351.12,278l-3.36.84L348.84,246l6.72,3.24C370.8,262.32,369.24,271.92,351.12,278Zm22.56,25.08a37.12,37.12,0,0,1-17.4,20.52,119.49,119.49,0,0,0-14.52-.24C344,311.28,345.84,299,347,286.68a21.54,21.54,0,0,0,12.72-3c8.52,2,13.68,7.8,15.24,17.28A5,5,0,0,0,373.68,303.12Zm-9.84-22.56c7.56-9.12,8.28-18.84,2.28-29.16q-6.66-8.1-16.56-7.92l-.36.36-.36,1.08v.24l-.24-1.32-.12-.12L344,279h-2.88l-.24,6.48c1.8,11,1.56,23.76-1,38-1.8,1.08-2.4,2.88-1.56,5.64a2.33,2.33,0,0,0,1.08,1.68l.12,2.28.6-1.92c15.24,3.48,26.64-2.4,34.2-17.52A23.89,23.89,0,0,0,376.56,298a37.66,37.66,0,0,0-7.2-15.72Zm13-152.4C355.8,143,347.4,165,351.36,194a28.55,28.55,0,0,0,9.72,17.88,23.52,23.52,0,0,0,6.84,4.56l8.64-4.56,3.6,13.2,1.32-18.6a73.24,73.24,0,0,0,4.08-34.2l-6.72-.72L374,173l-1.68,4.2,10.8.84c.24,13-4.32,22.32-13.8,28a16.31,16.31,0,0,1-3.6,1.56c-10.92-15-13-32.88-5.88-53.4a31.5,31.5,0,0,1,14.64-16.68l2.16-1.08,7,4.32-.12-8.16ZM378,36l-34.68,72.24a280.51,280.51,0,0,0-9.12-34.8,255.78,255.78,0,0,0-17.64-41.28l25.92,86.64a33,33,0,0,0,7.32-10.32l23.76-52.56A49.69,49.69,0,0,0,378,36Zm75.12,14q2.52-23.94-23.4-22.68A30.07,30.07,0,0,0,416.4,47a326,326,0,0,0-7.68,61.44q-2.16,63.9-.84,128.28c.36,17.64.48,35.16.36,52.8a10,10,0,0,0-.12,6.72c-.24,23.28-1,46.44-2.16,69.6l-6.12,112.68a316.31,316.31,0,0,0,3.12,64c1.44,9.48,7,13.32,16.68,11.64q27.54-4.86,18.72-29.52a19,19,0,0,0-6.36,8.88,8,8,0,0,1-2.28,3.36l-2.28.48a55.18,55.18,0,0,1-12.72,1.92,25.83,25.83,0,0,0-5.52-2.64l-.6-.36a73.41,73.41,0,0,1-2.88-25.2q3.24-64.62,5.64-129,1.44-41.58,1.44-83.28a229.83,229.83,0,0,0,27.36-3l.72-1c2.28-4.56,2-8.88-1-12.84-9.24,1.32-18.24,2.88-27.24,4.8L412.2,253q-1.26-64.62,2.28-129.12a147.3,147.3,0,0,0-.6-24.12Q410.46,65,430.44,40.32A13.77,13.77,0,0,1,441.6,41a26.64,26.64,0,0,1,11,9.84C453,50.52,453.12,50.28,453.12,50Zm96.6,57.6a823.37,823.37,0,0,1,18.72,126.24q3.06,43.56,4.32,87.6a783.64,783.64,0,0,1-5.4,95.16A189.74,189.74,0,0,1,536.64,501c-18.36,27.72-44.4,38.52-77.88,32.4q5-57.78,8.28-115.68,3.6-64.26,3.48-129c0-43.08.24-86,.6-129.12l1-118.68a157.64,157.64,0,0,1,31.44,6.6A53.6,53.6,0,0,1,530,65.76,106.29,106.29,0,0,1,549.72,107.64Zm-9.84-41.28C523.2,44.4,500.64,32.88,472.2,32v-.6c-.36,0-.48,0-.48.12l-.24.48-1.8-.12V32a5,5,0,0,0-1.92,5.28l.36,2.4.24.84.24.12a76.8,76.8,0,0,0-1.8,10.92c-2.76,42.6-4.08,85.32-4,128.4s.36,86,.84,129c.36,43.32-1,86.28-4.2,129.12-1.2,16.2-2.76,32.28-4.56,48.48a321.51,321.51,0,0,0-1,64.32,5.4,5.4,0,0,0,2.28-1.68l1.08.84A39.38,39.38,0,0,1,468,551c14.64,3.24,28.44.72,41.4-7.68,30.84-20,49.92-48.6,57.24-85.92a685.12,685.12,0,0,0,12.6-127.56,1143,1143,0,0,0-6.72-128.4,610.07,610.07,0,0,0-27-124.2A39.27,39.27,0,0,0,539.88,66.36Z" transform="translate(-14.78 -24.92)"/></svg>