<svg id="Layer_1" data-name="Layer 1" xmlns="http://www.w3.org/2000/svg" viewBox="0 0 246.59 211.83"><defs><style>.cls-1{fill-rule:evenodd;}</style></defs><path class="cls-1" d="M265.8,204.36a98.56,98.56,0,0,0-38.52-8.16q-32.94,13.14-43.44,49a369.8,369.8,0,0,0-13,64.68c-3.12,28.44,2.52,54.48,16.92,77.88A37.88,37.88,0,0,0,203.88,402q32,15.3,60.36-8.16,23.4-19.44,19.8-47l4.08,1.44-3,18.36c-2.16,13.08-1.08,24.48,3.24,34.32a46.33,46.33,0,0,0,5.28-18.48,245.56,245.56,0,0,0-1.2-48.84,1.93,1.93,0,0,0-.84-.48l-23.16-2.28-1.44.72q-7.92,2.34-7.56,10.44a6.26,6.26,0,0,0,1.68,4.08,45.8,45.8,0,0,1,21.36.36,31,31,0,0,0-5.76,9.12q-12.42,28.62-44.16,33.72a30.9,30.9,0,0,1-17.28-1.92q-39.78-16.56-37.44-60.48l1-22.8q1.08-44.28,27.12-79.08a21.68,21.68,0,0,1,8.52-7c25.08-11.4,46.68-7.8,65,10.56,2.28-5.76,1.32-11-2.76-15.72a39.5,39.5,0,0,0-8.88-7.8Zm145,93.24-4.08,42.24c.24,17-6.72,30.24-20.76,39.6-9,5.88-18.48,6.84-28.56,2.88a81.76,81.76,0,0,1-11.52-54,169.28,169.28,0,0,0,1-31.2c-9.72,24.12-11,50.16-3.72,78q8.64,32.76,40.8,22.8a32.72,32.72,0,0,0,19.92-16.44,108.51,108.51,0,0,0,12.84-50.88,99.45,99.45,0,0,0-1.92-19.68A65.3,65.3,0,0,0,410.76,297.6Z" transform="translate(-170.05 -196.2)"/></svg>