<svg id="Layer_1" data-name="Layer 1" xmlns="http://www.w3.org/2000/svg" viewBox="0 0 595.57 842.18"><defs><style>.cls-1{fill:#fff;}.cls-2{fill:none;stroke:#fff;stroke-linecap:round;stroke-linejoin:round;stroke-width:0.38px;}.cls-3{fill-rule:evenodd;}</style></defs><rect class="cls-1" x="0.31" y="0.31" width="595.08" height="841.68"/><rect class="cls-2" x="0.19" y="0.19" width="595.2" height="841.8"/><path class="cls-3" d="M172.44,137.28c-3.72-23.64-18.24-35.4-43.68-35.52a52.91,52.91,0,0,0-21.6,10.32A75,75,0,0,0,94.2,126a242.68,242.68,0,0,0-36.12,76.8A474.4,474.4,0,0,0,41.16,330.36,268.79,268.79,0,0,0,69.36,451.2c6.84,13.8,16.68,24.12,29.76,31a12.13,12.13,0,0,0,10.56.6c20.76-9,36.48-23.76,47.4-44.16l-.6,9.84a181.4,181.4,0,0,1-3.24,28c-1.92,9.84-.48,18.12,4.2,24.72a33.25,33.25,0,0,0,5-18.72,343.71,343.71,0,0,1,3.84-55.68,137.94,137.94,0,0,0-.12-45,448,448,0,0,1-50.88,14.88l-.6.72a11.45,11.45,0,0,0-.24,10.44,137.18,137.18,0,0,0,45.72-7.32l-1.56,16L157,414.48a101.27,101.27,0,0,1-14.64,26.28,69.84,69.84,0,0,1-28.92,22.32c-9.12,3.84-16.56,2-22.2-5.52q-41.94-56-42.6-125.88A445.29,445.29,0,0,1,64.68,208.8a200,200,0,0,1,36-71.28c11.16-14.16,25.32-19.2,42.36-15.24C158.88,126,168,135.6,170.52,151A22.09,22.09,0,0,0,172.44,137.28ZM215,130c1.32,40.2,1.08,80.28-.48,120.12-1.8,42.84-4.2,85.56-7.44,128.16-1.56,21.6-3.72,43.2-6.24,64.68a388,388,0,0,0-2.52,64.44,6.11,6.11,0,0,0,3-.36,12.33,12.33,0,0,1,7.44-1.56,944.27,944.27,0,0,0,101.28,3.72q6.84-9.18,0-18.36a699.76,699.76,0,0,1-103.92-5.4c1.32-12.72,2.52-25.44,3.36-38.16,3.24-42.6,6-85.44,8.4-128.28l4.32-79.44a971.67,971.67,0,0,0-2-128.28C216.48,115.92,214.8,122.16,215,130Zm186-16.2a489.91,489.91,0,0,0-3,93c2.64,43.08,3.36,86.16,2,129q-1.62,54.72-37.8,92.88c-7.8,8.28-17.16,10-28.32,5.28q-30.06-12.6-31.8-47-2.16-38.52-1.68-77c.6-42.84,1.56-85.8,3-129.12.84-22,.84-43.32.12-64.08-.72.36-1.08.72-1.2,1.2a477.82,477.82,0,0,0-7.32,88.32q.54,65-1.8,129.12a312.18,312.18,0,0,0,7.2,79.32q7.38,33.66,39.72,38.88a11,11,0,0,0,7.2-1c32-16.92,50.4-44.16,54.84-81.72a815.73,815.73,0,0,0,5.28-128.4c-.84-21.6-1-43.2-.48-64.92a328.78,328.78,0,0,0-4.92-64.08Q401,113.22,401,113.76Zm145.2-8.28a34,34,0,0,0-21.36-1.8C494,115.08,474.24,136.92,465.6,169c-7.08,26.16-12.84,52.56-17.52,79.2A975.74,975.74,0,0,0,434.76,375.6,322.18,322.18,0,0,0,455.16,502a35,35,0,0,0,10.92,15c18.84,15,39,15.72,60.48,1.92a117.41,117.41,0,0,0,43.08-48.48c-1.08,11.76-2.76,23.52-4.8,35.16-2.16,11.88-.72,21.84,4.44,29.88a7.84,7.84,0,0,0,4-6.12,582.2,582.2,0,0,0,4.44-82.8,56.13,56.13,0,0,0-.72-22c-.36-7.56-1-15.24-1.68-22.8L529,403.92l-.36,1a10.57,10.57,0,0,0,.36,7.2,180.27,180.27,0,0,0,37.2,5.76l-.72,3a16,16,0,0,0,.36,8.88l.24.72L569.4,433l.48.48a126.41,126.41,0,0,1-20.76,46.2c-15.72,22.08-37.44,31.92-64.92,29.64a18.48,18.48,0,0,1-14.76-9c-17.28-27.72-26.16-58.2-26.76-91.68a765.7,765.7,0,0,1,8.16-127.44q4.86-31.68,8.64-63.6A150.75,150.75,0,0,1,487.08,147q20.52-28.26,54.6-26.64a13,13,0,0,1,7,2.28,95.27,95.27,0,0,0,18.24,9.72,22.92,22.92,0,0,0-7-15.84c-3.36-3.48-7-7-10.68-10.2Z" transform="translate(0.19 0.19)"/></svg>