<svg id="Layer_1" data-name="Layer 1" xmlns="http://www.w3.org/2000/svg" viewBox="0 0 384.84 371.28"><defs><style>.cls-1{fill-rule:evenodd;}</style></defs><path class="cls-1" d="M178.44,339.24q-1.8,45.18-7,90c-1.08,10,.84,17.4,6,22.56L178,451a590,590,0,0,0,5.4-123.24C180.24,330.24,178.56,334.08,178.44,339.24Zm56-12.12c-2-1.44-4.08-2.76-6.12-4.08l-12.48,4.08q-7.38,53.82-15.48,108.12a17,17,0,0,0,4.32,14.52c8.28-15.36,12.48-34.8,12.6-58.44L227,387.6A183.19,183.19,0,0,0,254.88,455q11.16-8.82.72-26.28c-8.52-14.28-16.56-28.92-24.12-44.16a39.35,39.35,0,0,0,12.84-18C251.4,350.52,248.16,337.32,234.48,327.12Zm-15,47.28a224.29,224.29,0,0,0,.48-35.88,22.59,22.59,0,0,0,9.24-.84,30,30,0,0,1,7.68,4.92,5.66,5.66,0,0,1,2.16,4.8C238.2,360.72,231.72,369.72,219.48,374.4Zm-62-256.56c-4.44-18.6-15.84-29-34.08-31.56Q85.74,105.9,74.64,148.92A710.76,710.76,0,0,0,53.4,275.76a317.36,317.36,0,0,0,3.84,79.08A211.77,211.77,0,0,0,83.52,426.6c4.08,6.84,10.08,9.84,18.12,9a30.93,30.93,0,0,0,18.12-8A44.47,44.47,0,0,0,130,414.84a101.18,101.18,0,0,0,7.56,35,271.78,271.78,0,0,0,2.64-97L116,358.8a11.45,11.45,0,0,0,.6,10.08l.72,1.32,19-1.68a168.69,168.69,0,0,0-5,22.68l-.36-.72a142.8,142.8,0,0,1-24.72,23.4c-5.64,4.2-10.44,3.48-14.4-2.4a169.34,169.34,0,0,1-29.16-82.32c-1-10.68-1.56-21.24-1.68-31.8a482.34,482.34,0,0,1,4.2-70.8A334.13,334.13,0,0,1,92,133c8.28-18.48,22.2-27.84,41.64-28a37.19,37.19,0,0,1,9.12,8.76c4.44,5.88,8.76,10.92,12.72,15.36A13.71,13.71,0,0,0,157.44,117.84Zm89.16,3.48a886.3,886.3,0,0,1-2.52,100.8c-.36,5.16-.6,10.32-.6,15.48q-.18,38.34-26.52,64.08-23.94,4.68-36-14a504.73,504.73,0,0,1,2.16-127.56,254.48,254.48,0,0,0,1.32-64c-3.24,5.16-5.16,11.76-5.52,19.68q-3.24,55.62-8.16,111.24a223.14,223.14,0,0,0,3.36,63.84q7,35.28,45.24,29.28a48.13,48.13,0,0,0,17.4-24,354,354,0,0,0,18.48-110c.36-21.36,1.2-42.72,2.64-64,.84-10.44-1.56-18.24-7.08-23.4a71.44,71.44,0,0,0-5.64,25.2v.36c1.08,0,1.44-.72,1.08-2.28Zm134.88-15.24c-5.64,15.72-8.64,33.12-8.76,52.2-.36,42.6-1.2,85.44-2.28,128.28-1.08,41.16-3.48,82.08-7.2,123-3.48-21.6-7.8-43.08-13.2-64.44q-15.66-61.92-30.24-124.2Q305.22,159.54,292.8,98l-.12-.84-.24-.84c-1.08-.12-1.56.48-1.56,1.56l.12,7.2A545.08,545.08,0,0,0,288.12,168c.6,43,.48,85.68-.6,128.28A876.41,876.41,0,0,1,275,424.8c-2.16,12.6-.6,23.16,4.68,31.92a584.33,584.33,0,0,0,13-101.4q2.7-64.26,3.6-129.12c.36-23.52.12-46.92-.6-70.08A1155.8,1155.8,0,0,0,321.6,279.48Q338.16,341.4,352,404a234.72,234.72,0,0,1,4.8,31.68c.84,10.08,4.32,17.4,10.44,21.84a5.07,5.07,0,0,0,1.44-4.08l-1.08-11c4.2-31.08,7.08-62.52,8.88-94.44,2.4-42.84,3.6-85.8,3.72-129.12q0-24.3,1.44-48.6A497.86,497.86,0,0,0,381.48,106.08Zm34.92,13.68,7.8-1.2L434.76,132a24.76,24.76,0,0,0-1.44-19,23.86,23.86,0,0,0-13.44-12.12,99.44,99.44,0,0,0-20,41.76,387.4,387.4,0,0,0-7.08,45.6c-1.56,16.56,2,31.32,10.8,44.4a26,26,0,0,0,10.92,9.48l11.88-10.56a34,34,0,0,0,3.12,14.28l2,4.2a120.41,120.41,0,0,0,3.72-59.28l-.24-.36a26.89,26.89,0,0,0-17.28,1.8l-3.48,1.56a13,13,0,0,0-1.32,5.64l.24,1.56.72,2.76.6,1.32,16.32.6-2.4,11.88-3.12-7.8-9.72,13-5.16-.24c-7.2-10.92-10.2-23.4-9-37.32a256.09,256.09,0,0,1,7.68-43.68A192.39,192.39,0,0,1,416.4,119.76Z" transform="translate(-52.47 -86.28)"/></svg>