<svg id="Layer_1" data-name="Layer 1" xmlns="http://www.w3.org/2000/svg" viewBox="0 0 561.24 447.41"><defs><style>.cls-1{fill-rule:evenodd;}</style></defs><path class="cls-1" d="M154.2,410.88a12.8,12.8,0,0,1-2.64-8.16,16.49,16.49,0,0,1,1-4.44c.72-2.28,1.44-3.72,2.28-4.44l15.36-1.92,14.16-2.28c9.84-1.56,15.48-1.08,16.8,1.44a40.21,40.21,0,0,1,1.08,6.12v6.12c0,9.12.36,17.28,1.08,24.36l3.12,28.44c.12,1.92.12,9,.12,21.12L206,491.76q-.9,12.78-2.16,15.48a10.29,10.29,0,0,1-3.84-5.76v-41.4l-3.36-25.92c-1.32-10.68-1.68-19.68-1-26.76-3.48,0-10,.6-19.68,1.8l-13.68,1.92ZM221.76,97.2c0,7-1,23.16-3,48.72l1-.6c2.64-1.68,7.44-4.32,14.4-7.8,6.48-3.6,11.28-7.32,14.52-11.28a29.07,29.07,0,0,0,6.6-19.08A26.6,26.6,0,0,0,251.88,95c-4.2-7.56-11-11.4-20.64-11.4a34.88,34.88,0,0,0-10.92,1.44v.72A64.55,64.55,0,0,1,221.76,97.2ZM211.2,82.32,211,78.24c0-11.4,7.2-15.36,21.48-11.64a63.62,63.62,0,0,1,15.36,6.24q7,3.78,8.28,6.12L261.48,95c.24,1,.36,4.92.36,12,0,11.76-1.56,21.6-4.56,29.64-4,10.44-10.2,17.76-18.72,22.2l-.24,5.4a40.37,40.37,0,0,0,.48,8.88c.6,3.48,1.68,8.52,3.24,14.88l3.48,15c.72,2.88,4.44,13.56,11.16,32.16,6.36,17.16,9.48,26.76,9.48,28.8l-1.08,3.72a14.86,14.86,0,0,1-2.16,4.92c-4.68-5.88-11.52-22.92-20.52-51.36-9-28-13.8-47.64-14.16-58.92l-10.8,1.08-2,24.36q-6.12,74.16-8.28,86.64c-1.44-1.08-2.52-3.12-3.12-6.36a26.64,26.64,0,0,1-.72-6.12c0-5.64.48-14.88,1.56-27.84L208.2,193q4.68-59.94,4.92-107A6.43,6.43,0,0,1,211.2,82.32ZM191,94.32c-7.8-7.8-20.4-11.76-37.92-11.76q-36,0-72.72,60.36A406.2,406.2,0,0,0,58.08,185.4l-9.6,21.48q-10.26,14.58-15.84,59a520.3,520.3,0,0,0-4.44,66.72A259.19,259.19,0,0,0,32,375.48c3,17.28,7,30.6,12.12,40,3,5.88,8.28,13.08,15.72,21.72a262.86,262.86,0,0,0,25.68,26c23.4,20.76,42.6,31.08,57.36,31.08l20.4-1.44c5.4-1.08,9.72-3,12.84-5.76s5.88-6.84,8.16-12.24a141.84,141.84,0,0,0,6-21.48,7,7,0,0,1,3.12,5.28l.12,5.76a59.31,59.31,0,0,1-5.64,24.72c-7.08,15.12-19,22.68-35.88,22.68q-34.38,0-73.32-34.56a211.72,211.72,0,0,1-27-29c-7.32-9.48-12.12-17.52-14.4-24-8.64-24.36-13.56-40.92-14.88-49.68a132.34,132.34,0,0,1-1-17l.12-24.6a492.5,492.5,0,0,1,6.36-79c5.16-31.56,12.6-56.4,22.32-74.76C58.8,163,65.4,150.48,70.2,141.72c8.4-15.24,16.32-28.2,23.64-38.88Q110.4,78.9,130.92,69.72a55.93,55.93,0,0,1,34.92-4.2A52.61,52.61,0,0,1,192,78.6c6.84,6.36,10.2,12.84,10.2,19.2a25,25,0,0,1-.6,4.92,21,21,0,0,1-2,5.28,48.1,48.1,0,0,1-2.64-5.16A32.42,32.42,0,0,0,191,94.32ZM385.2,291.84v47q-2.88,30.06-7.56,69.84l-8.76,70.68.36.48,6.36-1.68a37,37,0,0,1,6.36-1l9,.12,7.44.6c19.2-.12,31.68,1.68,37.56,5.64a7.65,7.65,0,0,1,3.36,4.56,12.5,12.5,0,0,1,0,3c0,5.64-1.8,8.52-5.4,8.52l-4.56-1c-2.88-.84-5-1.44-6.6-1.8l-13.56-1-12.36-1.2H378.36a25.78,25.78,0,0,0-9.12,3.12l-5.16,2.88c-.84-1.08-1.44-3.36-2-6.84a39.89,39.89,0,0,1-.72-5.76c0-5.64,2.52-29.64,7.56-72.24l9.84-84V280q4.14-8.82,6.84-4.68a16,16,0,0,1,1.8,8A21.66,21.66,0,0,1,385.2,291.84ZM369.48,71.76c3.36,4.2,5,12.6,4.92,25.2a156.55,156.55,0,0,1-1.08,18.6c0,12.72-.48,33.72-1.56,63.12-1.08,31.08-1.68,50.64-1.68,58.44v48.72c-.72,7.32-1.8,27.84-3.36,61.32-1.08,28-3,50-5.52,66.36-3.48,23.64-9.12,42.48-16.8,56.28-9.12,16.56-21.48,27-37.2,31.2l-7-.24-1.92-1.68-6.72-.48c-7.56-3.72-13.68-18.36-18.24-43.92q-5-28.62-5-51.48,0-21.06,6.84-133.2,7-114.66,10.44-144.72V75.72a11.94,11.94,0,0,1,2.64-6.12,7.22,7.22,0,0,1,4.2,4,15,15,0,0,1,.72,5.28A19.38,19.38,0,0,1,292.08,85v47q-3.06,26.64-10.2,138.84-7,111.78-7.08,131.76c0,7.68,2.4,21.72,7.2,42.24,4.68,20,8.4,32.16,10.92,36.12a15.39,15.39,0,0,1,5.28,1.56,5.9,5.9,0,0,0,2.76.84c20.76,0,36.36-16.44,47-49.2a236.42,236.42,0,0,0,8-34.56l2-17.16c1.08-10.68,1.92-27.84,2.64-51.48.72-23,1.68-40.2,2.76-51.6V231.48l3.24-84.24V77.4A9.34,9.34,0,0,1,369.48,71.76Zm76.32,6.48v42.12q3.42,26.1,6,68c.72,11.4,1.2,22.8,1.56,34.2a95.37,95.37,0,0,0,2.88,19.32c1.68,6.48,2.52,11,2.52,13.56a23.33,23.33,0,0,1-1.2,7.32c-1.08,3.6-2.64,5.64-4.68,6.24q-7-30.24-9.72-72.84-2.34-48.42-4.08-73.08-4,23.76-9.36,72.12-5.94,43.2-16.92,72.72a11.52,11.52,0,0,1-3.6-4l-1.32-3.36v-47c-1.44-20.88-2.88-38.64-4.44-53.4-2-19.44-4.44-37.32-7.44-53.64h-.6c-.36,5.76-1.32,13.56-2.64,23.52l-3.24,24.48v46.92l-2.76,31.08c-1.08,12.6-3,23-5.88,31.08-1.56-1-2.52-3.24-3-6.84l-.24-5.4c0-2.76.72-12,2.28-27.84,1.56-15.24,2.52-24.6,3.12-27.84V148.8c.6-4.56,1.32-10.8,2-18.84l1.8-19.44c1.92-15.48,5.28-28.08,10.2-38Q412.74,138,414.36,228.72q5.76-13.86,8.28-38.52,3.06-31.68,5-40.32a185,185,0,0,0,2.88-21.48c.84-10.92,1.44-18.84,1.92-24,2-18.84,5.52-29.76,10.56-32.64A13.63,13.63,0,0,1,445.8,78.24ZM575.64,181.32c0-22.68-3.6-41.76-10.92-57.24Q543.66,79.62,489,84q-.18,11-1.44,24.84l-2.76,33c-2.28,27-2.28,48.6,0,64.68v52.56l1,.48.84.84c31.32-1,52.2-3.24,62.52-6.84a22.31,22.31,0,0,0,8.76-5.28,56.29,56.29,0,0,0,4-5.76,71.72,71.72,0,0,0,5.4-10.08c1.56-3.72,2.76-7.08,3.84-10.2,1.08-3.36,2.28-10.92,3.36-22.68C575.28,190.08,575.64,184.08,575.64,181.32Zm7.08,23.52a103.62,103.62,0,0,1-4.56,25.8A95,95,0,0,1,567,255l-3.6,7.08a15.42,15.42,0,0,1-5.16,5.88q-8.82,5.58-41,9l-7.2.24-7.92.84-17.88-.24-.12-.36-.36,3.84q-.54,6.48-1.08,9.72v77.16q-1.26,12.78-2.16,32.4l-1.56,33q-2.16,39.6-9.36,65c-1.56-.84-2.52-3-2.88-6.6a56.21,56.21,0,0,1-.36-7.8c0-4.44,1.56-24.24,4.56-59.4L476,361.68V285.36c.36-2.16.84-5.52,1.2-10.2s.72-7.92,1.08-10.08v-52.8a17.28,17.28,0,0,1-1.08-4.08V158c.6-6.24,1-14,1.2-23.28.24-10.32.48-18,.72-23.16q1.26-27.9,6.12-45.36l1.32,1.2.36-.36q61.38-3.78,83.76,45.6,11.34,25.56,11.4,68C582.12,187.32,582.36,195.36,582.72,204.84Z" transform="translate(-21.48 -64.39)"/></svg>