<svg id="Layer_1" data-name="Layer 1" xmlns="http://www.w3.org/2000/svg" viewBox="0 0 478.95 364.44"><defs><style>.cls-1{fill-rule:evenodd;}</style></defs><path class="cls-1" d="M158.52,134.16c-.84-22.08-11.88-35.16-33-39.12-16.2,7-27.6,19.2-34.08,36.72a415.21,415.21,0,0,0-22.68,91.32,494.07,494.07,0,0,0-.24,127A157.33,157.33,0,0,0,97.2,422.88c8,11.16,18.6,14.4,31.44,9.6A95.58,95.58,0,0,0,173.76,398l.72-1c-.84,8.76-1.92,17.64-3.12,26.4-1.44,10.44-.24,19.08,3.72,25.68a4.73,4.73,0,0,0,.6-1.68,677.56,677.56,0,0,0,5-114.36l-.84-.84-1.08-.84A215.22,215.22,0,0,1,146.4,334c-2,.12-2.88,1.2-2.52,3.48,9.84,5.88,21,7.68,33.6,5.64-.12,10.92-.6,21.72-1.32,32.52l-.84-1.2q-16.38,32.22-49.8,44.76a12.93,12.93,0,0,1-9.48,0C96.72,411.36,84.48,396.6,79.56,375a389.1,389.1,0,0,1-7.92-128.16,448,448,0,0,1,21.6-98.4,77.58,77.58,0,0,1,25.44-36.12c4.32-3.36,9-3.84,14.16-1.56,15.84,7.32,23.52,19.56,22.92,37A27.56,27.56,0,0,0,158.52,134.16ZM265.44,158.4c4,41.16,7.44,82.56,10.2,124.08a109,109,0,0,1-27-3,25.73,25.73,0,0,0-7.44,0q12.24-53.1,20.52-106.92c1.32-8,2.28-16,3-23.88Zm1-49.32c-.36-.12-.6-.12-.72.24l-22.44,123.6-9.48,48.72-1.08.6a7.4,7.4,0,0,0,0,4l.12.48q-7.56,36.18-16,72.36l-7.68,31.2a132.73,132.73,0,0,0-4.08,47.52q5.94-5,7.2-14.4,9.18-63.18,24.48-125.28l2-8.76L250,292.08a58.63,58.63,0,0,0,26.4,1.44c2.52,40.2,4.56,80.28,5.88,120.48.36,10,3.24,17.76,8.64,23.28l.84-1.68a77.94,77.94,0,0,0,.72-23.64q-6.48-55.62-9.72-111.84l-.48-8.16,1.56-.48a13.49,13.49,0,0,0,.48-4.92,4.9,4.9,0,0,0-2.4-4.08h-.24Q278.22,227.4,274,172.56c-1.8-21.84-4.2-43.2-7.44-64.08ZM373.32,262.32q-12.24,33.48-45.84,36.48l2.28-58.56c1.44-40.2,2.4-79.8,2.88-119,11.28,1.56,20.16,7.44,26.76,17.52Q397.2,197.22,373.32,262.32Zm-5-123.72c-7.92-14.52-19.8-23.28-35.52-26.28l-4.8-.24-.72.72-.6.84-.36,1-.12,1.2a9,9,0,0,0,.48,3.12l1,1.8q-1.26,76-5.52,151.68l-6.12,106q-2,32.94-2.52,65.52c3.48-3,5.64-8.28,6.24-15.6q5.4-58.86,7.32-118.08l3.48.36A45.57,45.57,0,0,0,340.2,309a28.48,28.48,0,0,0,14.16-9.12q11.34,59.58,23.76,120.6c1.8,8.88,4.8,16.32,9,22.2A33.27,33.27,0,0,0,388,426.6a1328.73,1328.73,0,0,0-31.2-129.48,141.13,141.13,0,0,0,15.48-22.8,121.19,121.19,0,0,0,14.88-49.92A139,139,0,0,0,383.64,181,146.91,146.91,0,0,0,368.28,138.6ZM476.16,95a563.66,563.66,0,0,1-89.28,19.44c-.36-1.32-1.2-1.68-2.28-1.2l-1,.6-.6,3.24a8.91,8.91,0,0,0,2.76,8.16,462.36,462.36,0,0,0,54.6-7.2l-5.16,103q-3.42,64.08-5.76,128.28c-.36,10.92-1.08,21.6-2.16,32.28a339.31,339.31,0,0,0-.36,64.32,2,2,0,0,0,1.32-1.32,429.3,429.3,0,0,0,6.6-72.84c.24-43.08,1.68-85.8,4.2-128.4,2.52-42.12,4.08-84,4.44-125.88,12.36-2.52,24.72-5.64,37-9.24a9.62,9.62,0,0,0,1.44-3.24,14,14,0,0,0-1.08-8.88,1.39,1.39,0,0,0-.84-.6Zm61.8,76.2q-2,54.9-5.76,109.44l-.24-.12a234.66,234.66,0,0,0-50.88,9.24l-1.44,1.56-.84,1.08.84-29.16c1.32-43.08,2.88-85.92,4.44-128.28A206.7,206.7,0,0,0,477,191q.18,64.62-3.6,128.28-3.78,64.26-5,128.16a3.32,3.32,0,0,0,2.4,2.16,17.79,17.79,0,0,0,4.2-11q1.62-39.6,2.4-79.56c.24-19.8.6-39.72,1.2-59.52a451.89,451.89,0,0,0,51.24-5.16l1.44-1-.48,6.24q-5,64.26-12.72,128.16c-1.44,12.12,0,22.68,4.2,31.68,4.44-32,7.8-64.8,9.84-98.28l4.56-71.76a9.85,9.85,0,0,0,.36-4.56L540.6,233a1143.62,1143.62,0,0,0,1.92-128.28C540.36,126.24,538.8,148.44,538,171.24Z" transform="translate(-64.54 -95.04)"/></svg>