<svg id="Layer_1" data-name="Layer 1" xmlns="http://www.w3.org/2000/svg" viewBox="0 0 531.21 514.44"><defs><style>.cls-1{fill-rule:evenodd;}</style></defs><path class="cls-1" d="M169.92,100.68c14-.36,23.4,6,28.2,19.2-4.8,15.24-15,22.2-30.48,20.76a32.23,32.23,0,0,1-6.48-1.68l6.6-36.6Zm29.88,11.88c-4.44-18.12-15.36-25.68-33-22.68l-2.28-2.52A385.3,385.3,0,0,0,148,201.24l11-49.92.6,1.32,17.88,2.76a164.47,164.47,0,0,0,30.84,58.92c.12-21-7.56-41.52-23.28-61.56C199.08,142.8,204,129.48,199.8,112.56Zm46.32-7.08.12-.72a5.83,5.83,0,0,0-.6-3.24l-.48-.84v-.84l.12-1.56-.12-.84-.36-.84c-10-28.92-30.6-44.28-61.92-46.32Q115,55.5,92.28,118A976,976,0,0,0,55.56,244.08a462.25,462.25,0,0,0-10.32,126,488.81,488.81,0,0,0,7.32,62A145.89,145.89,0,0,0,92,508.68c18.6,19.32,41.4,26.76,68.4,22.56,24.84-4,42-16.56,51.24-38q-2.16,23.22-3.6,46.44c-.72,10.44,1.2,18.84,5.88,25.08a287.41,287.41,0,0,0,5.28-41.28q2.88-51.3,2.88-101.64a1.09,1.09,0,0,0-.84-.36l-30.72-1.2v.12a21.85,21.85,0,0,0-9.24,1.2l-7.56,2.16-.6.6-.6.6a17.36,17.36,0,0,0-2.52,2.64l-.36.72-.24,1.68v.84l-.12.72a6.45,6.45,0,0,0,.6,2.52l.6.72a120.54,120.54,0,0,1,47.28.36l-3,26.52-1.56-2.16c-2,19.08-11.28,33.84-27.48,44.4q-35.28,23.22-73.92,3-21.78-11.34-32-32.76A277.92,277.92,0,0,1,51.72,348.24a548.65,548.65,0,0,1,15.12-123.6c6.12-25.56,13.2-50.88,21-76.2a169.23,169.23,0,0,1,16.08-36.24Q135.78,57.66,201,63.6a70.82,70.82,0,0,1,19.92,10.08c12.36,8.76,20.64,19.68,25,32.64Zm42.36-50.16-2.28,1.56c-4,10.32-7.32,20.88-10.32,31.8A854.61,854.61,0,0,1,233,209.76c-10.44,23.88-20.16,47.88-29.28,72.24l-4.08,1.08a2.77,2.77,0,0,0-1.56,2,12.92,12.92,0,0,0,.72,9l.48.24C195,306.12,190.92,318,187,329.88q-20.34,61.38-38.64,123c-8.52,12.24-10.08,24.72-4.92,37.44a3.94,3.94,0,0,0,3.72-3.12q19.26-60.84,38.88-122c7.68-23.88,16.08-47.28,25.32-70.44a401.17,401.17,0,0,1,71.16-7.8,332.71,332.71,0,0,0,42.72-3.36l7.32,38.76q9,46.62,14.88,93.6A926.3,926.3,0,0,1,354,541.2c-.12,9.84,2.28,17.28,7.44,22.44a3.7,3.7,0,0,0,.84-1.68,692.77,692.77,0,0,0-4.2-120.12q-7.74-63.54-17.4-126.48L334.92,280v-.12a13.49,13.49,0,0,0-1.32-12.24l-.84-.6h-.24l-2.76-15.48c-4.44-23.4-9-46.68-13.92-69.84q-13-60.66-26.52-120.6l-.12-5.88Zm-.72,22.56a296.58,296.58,0,0,0,8.88,53.52q8.1,31.68,13.32,64.2c3.84,23.64,7.92,47.4,12.12,71A517.61,517.61,0,0,0,217.8,278.76l1.56-3.72Q244.2,215.82,264,154.92l19.68-61A117,117,0,0,0,287.76,77.88ZM551.4,406.44l21.12,10.2,3.24-1.44c-.6-8.76-5.4-15.36-14.64-19.92l-6.6-3.12c-15.48-4-29,.48-40.8,13.32A126.35,126.35,0,0,0,489,445.32,202.29,202.29,0,0,0,477.6,488a75.25,75.25,0,0,0,5.88,43.2c6.84,15.24,18.24,24.36,34.2,27.6,16,3,29.64-2.28,40.8-15.6a55.35,55.35,0,0,0,13.2-40c-10.68,17.4-25.08,29.4-43,35.76-6.48,2.52-12.84,1.92-19.08-1.56a53.51,53.51,0,0,1-12.48-10.08,38.22,38.22,0,0,1-9.48-25.32,151.63,151.63,0,0,1,1.44-23.28l55.32-4.32c4-4.8,4.56-9.84,1.8-15.24L544.92,457a144.89,144.89,0,0,0-52.2,4.92q9.54-40.32,47.16-53A46.87,46.87,0,0,1,551.4,406.44ZM434,214.32a217.43,217.43,0,0,0-52.32,3.48,8.66,8.66,0,0,0-1.08,2.4,13.28,13.28,0,0,0,.6,8.16l-.24,3-1.56,103.08q-.9,64.26.48,128.28a582.71,582.71,0,0,1-2.52,64.8c-1.2,12,0,22.8,3.6,32.28a2.14,2.14,0,0,0,1.08-1.44,449,449,0,0,0,5.64-83.52c-1.08-42.84-1.32-85.56-.48-128.28.36-17.4.48-34.8.36-52a126.93,126.93,0,0,0,37.2-4.08l.72-.84c2.88-5.4,2.64-10.44-.72-15.24a255,255,0,0,0-37.32,6.24c-.24-16.68-.6-33.12-1.2-49.56a234.54,234.54,0,0,0,51.24-2.76,6.46,6.46,0,0,0,1.2-2.4,14.05,14.05,0,0,0-1.2-10.56,1.39,1.39,0,0,0-.84-.6Zm20.64,0c-2.52,4.08-3,8.64-1.56,13.8a4.23,4.23,0,0,0,3.6,3.24q-.72,130.14-7,262.32c-.36,8.4-1.2,16.92-2.4,25.44a82,82,0,0,0-.72,15.24l.24,6,.72,6,1.08,5.76a29.33,29.33,0,0,0,1.68,5.52l.24-.12A954.41,954.41,0,0,0,463,321.24c-.48-7.2-.84-14.4-1-21.48a72.51,72.51,0,0,0,37.44,3,12.39,12.39,0,0,0,3.24-8.52,12.72,12.72,0,0,0-2.4-7.68l-38.52-1.08-1.2-55.68,43,1.56a10.25,10.25,0,0,0,2.52-6.24,11.2,11.2,0,0,0-2.88-8.64L461,212.4Zm-46.08-122L412,102.72a9.73,9.73,0,0,1-2.16,10.68L408.6,115a68.85,68.85,0,0,1-36.36,5.52L372.12,89c10.8-5.16,21.48-4.92,31.92.72ZM386.4,71.16l-14.76,4-.12-2.64-4.8,6.6q-3.78,62.1-2.52,125.28,10.26-33.12,7.92-72Q413,140.82,418,106.08a32.66,32.66,0,0,0-.84-13.2,22.79,22.79,0,0,0-4.44-8.64c-6.12-7.56-14.16-11.76-24.12-12.72Zm146,57.36-3.84-.24-.12-50.88a213.38,213.38,0,0,0-6.6,50.76,204.37,204.37,0,0,0-66.24,4l-.6-58a72.92,72.92,0,0,0-6.84,33.48,382.94,382.94,0,0,1-2.64,58.68,112.88,112.88,0,0,0-.6,22.92,55,55,0,0,0,1,7.92,39.18,39.18,0,0,0,3.72,10.92,112.5,112.5,0,0,0,6-46.56,125.59,125.59,0,0,1-.24-13.44,135.1,135.1,0,0,1,37.44-2.28,84.56,84.56,0,0,0,28.44-3,133.85,133.85,0,0,0,2.16,59.4,13.41,13.41,0,0,0,1.32,3l3.6-64.68,4.92-1.92.72-5.76Z" transform="translate(-44.55 -50.28)"/></svg>