<svg id="Layer_1" data-name="Layer 1" xmlns="http://www.w3.org/2000/svg" viewBox="0 0 595.57 842.18"><defs><style>.cls-1{fill:#fff;}.cls-2{fill:none;stroke:#fff;stroke-linecap:round;stroke-linejoin:round;stroke-width:0.38px;}.cls-3{fill-rule:evenodd;}</style></defs><rect class="cls-1" x="0.31" y="0.31" width="595.08" height="841.68"/><rect class="cls-2" x="0.19" y="0.19" width="595.2" height="841.8"/><path class="cls-3" d="M449.28,520.32l.24,3q0,13.68-2.16,38.52c-1.56,18.84-3.36,31.32-5.16,37.44l-1.08.24a13.6,13.6,0,0,1-1.44-6.48q0-8.1,2.16-31.68l.48-5a67.18,67.18,0,0,1-9.48,3.6L418.92,564l-.72,11.52-1,13.08-.12,4.44a14.84,14.84,0,0,1-1.2,4.8c-.72-.84-1.2-2.52-1.56-5.28l-.36-4q0-8.1,3.24-36.36c2.16-19.56,3.84-31,5.16-34l.84,2,.24,2.88c0,3.24-.72,8.64-2,16.2a92.3,92.3,0,0,0-2.28,17v.24l2.76-2.16a39.26,39.26,0,0,1,9.6-4.2,21.07,21.07,0,0,1,9.6-1.32l1.92.36q2.34-22,5.4-31.32Zm-276.6-97.8c5.88-.48,8.76,1.32,8.88,5.4l-.12,11.52.12,12c.24,5.52.72,15,1.44,28.32l1,18.84c0,14.16-.72,30.6-2.28,49.44q-2.88,33.66-7.2,43.92c-1.56-1.44-2.4-3.6-2.4-6.48l3.84-38.28c2.52-26.52,3.72-42.72,3.72-48.6,0-7.08-.72-18.24-2-33.36-1.44-15.36-2.16-26.16-2.28-32.4l-6.72.24-14.76,1.56c-9.48.84-15.72,2.28-18.48,4.08a7.56,7.56,0,0,1-2.4-3.12,6.08,6.08,0,0,1-.6-2,4.79,4.79,0,0,1,2.4-4.56c3.24-2,10.32-3.48,21.12-4.08A124.48,124.48,0,0,0,172.68,422.52Zm-96.84-67.8.24,15.48c0,18.48-1,32.4-3,41.76v8.64q13.5-1.8,20.52.36a62.59,62.59,0,0,0,19,2.88,4.8,4.8,0,0,0,2.88-1.2,4.27,4.27,0,0,1,2.76-1.2,3.15,3.15,0,0,1,3.36,2.52l.24,3.12a6.9,6.9,0,0,1-.6,3.36c-.84,1.56-3,2.4-6.48,2.4l-14.52-1.2-6.84-2q-5.94-2.16-20.88,1.08c-1.8-1.8-2.64-6.12-2.64-12.84,0-3.24.24-16.2.84-39.12l.72-36.84.12-2,.24-1h1.08A55.49,55.49,0,0,1,75.84,354.72ZM173.4,36.48v2.64l-.24,2.28-.36.48-.72.84c-3.36-5.4-9.84-10.08-19.56-14.16-11.64-4.92-26.76-8.28-45.36-10.2Q69.72,19.44,47.52,70.2a241.85,241.85,0,0,0-12.6,37.92c-1.92,7.56-3.72,15.6-5.4,24.24a501.6,501.6,0,0,0-10.2,58.44c-1.8,14.88-3.36,34.32-4.92,58.44v45.24c-.48,6.48-1,15.24-1.56,26.28L12.12,338a416.18,416.18,0,0,0,4.68,60.24q2.88,19.44,10.56,63.48c3.36,21.24,6.24,37.08,8.52,47.76,3.48,15.6,7.2,28.2,11.4,37.92,4.8,11.16,10.56,19.44,17.28,25q11,9,26.64,9c26.76,0,47.64-12.84,62.4-38.52,4.8-8.28,9.48-19.08,14-32.28L177,483.72l.84-.36a45,45,0,0,1,.48,8.16c0,3-1.32,9.24-4,18.84a200.33,200.33,0,0,1-13.56,35.52q-25.2,49.86-65.52,49.8-41.58,0-59.64-57a266.23,266.23,0,0,1-9.12-43c-1.8-15.24-3.12-24.48-3.84-27.48A623.16,623.16,0,0,1,11,402.72a541.11,541.11,0,0,1-3.72-65.16L8,318.72c.48-12.12,1-21.48,1.44-28.2V249.24c1.32-24.36,3.84-48.84,7.56-73.68q6.66-45.18,17.28-79.8Q61.86,5.58,107.4,8.16c21.84,1.56,38.64,5.16,50.52,10.92C168.24,24.12,173.4,29.88,173.4,36.48Zm102.24,96.84Q257.28,257.34,252,299.4l1.92-.72c4.68-1.44,14.64-3.24,30-5.28a51.06,51.06,0,0,0,11.16-2.88l9.6-3.6,3.12-.84q-20.7-180.54-21-229.56Zm-95.76-21c-9.48-15.24-26-21.48-49.56-19-.36,19.08-4.32,53.76-11.88,103.8a179.55,179.55,0,0,0,17.76-2.64c.12-1.8.6-2.88,1.56-3.24l1.32,2.52c15.72-3.6,27.6-9.6,35.88-18,8.52-8.64,12.84-19.44,12.84-32.52Q187.8,125.1,179.88,112.32ZM189,157.08a72.82,72.82,0,0,1-8.76,21.48c-8.4,13.8-20.16,22.68-35.4,26.4q13.5,25.2,42.48,75.72,33.3,58.14,33.24,60l-.24,3.6a.87.87,0,0,0-.72.48l-1,1C199.8,315.6,185.28,292,175.2,275c-19.2-32.52-31.32-55.56-36.36-68.88L126.6,207l-9.48-.72-3.84,24.36C105,283.32,98.64,320.76,94.2,343.2a12.24,12.24,0,0,1-1.44-4.08,19.64,19.64,0,0,1-.48-4.56c0-5.16,3.12-25.56,9.48-61.08l11.64-65.4.48-3.12-.24-.12a1.8,1.8,0,0,1-.72-1.8l.24-1.44.12-3,.12-1.08,1.56-.12c6.12-40.2,10.44-74.88,13.2-103.8l-2,.24-.36-.84a9,9,0,0,1-.24-2.4,3.87,3.87,0,0,1,0-1.68,3,3,0,0,1,2.28-1.68l1-.24.36-3.12a10.58,10.58,0,0,1,1.08,2.4l.12.48c4.44-.84,12.36-1,23.88-.48A49.61,49.61,0,0,0,160,88.44a55.93,55.93,0,0,1,9.12,4.08c6.84,3.6,11.88,9.24,15.24,17A86.29,86.29,0,0,1,191,143.28,61.72,61.72,0,0,1,189,157.08ZM290.76,28.68c.84,37.08,3.36,77.64,7.32,121.92q4.32,47.88,15.12,137.28a9.94,9.94,0,0,1,.72,4.08l-.12,1,.36,3.48q3.42,28.62,20.52,159.48,15.3,119.7,15.24,132l-.24,4.08a5.9,5.9,0,0,1-2.76,4.32q-.54-.54-9.84-72.24Q326.46,442.5,316.44,359.4l-7.2-61.8q-5,3.06-15.12,6.12a134.11,134.11,0,0,1-40.8,6.48l-2.64-.12c-1.56,13.44-4.08,35.52-7.32,66.12s-6,54.84-8.52,73Q223.5,533.94,204,594.84a12.91,12.91,0,0,1-1.56-3.48,32.27,32.27,0,0,1-.24-3.72q0-2.16,12.24-61.08c8.76-42.12,14.16-70.56,16.08-85.08,4.2-31.8,7.32-55.8,9.12-72,3.24-27.24,5.76-51.6,7.44-73.32,1.44-18.6,4.32-42.84,8.76-73,5.76-38.52,9.24-62.76,10.44-73,1.56-9.72,3.48-22.92,5.64-39.6l5.28-40.32C280.92,44.4,284.76,25,289,12.12a39.2,39.2,0,0,1,1.44-7.8V8.16l1.08-2.76a11.58,11.58,0,0,1,1.32,6.12C292.8,12.84,292.08,18.48,290.76,28.68ZM522.24,420.36v60.12c-.84,11.76-2,30.12-3.6,55.2-1.2,18.12-2.64,33.36-4.32,46q48.06,14.22,65.88-66.72c6.12-27.72,9.12-63.24,9.12-106.8q0-25.38-.36-34.2c-.84-18.72-2.76-35.16-5.76-49.2q-13.5-62.28-54.72-60.12a127.79,127.79,0,0,1-4.08,33.12v108a72.36,72.36,0,0,0-1.08,7.32A72.36,72.36,0,0,1,522.24,420.36Zm-150.6-162a27.18,27.18,0,0,1,18.6,4.92c5.64,4,8.4,8.88,8.4,14.88l-.36,6.84.48.48c.12.24-.48.36-1.56.36l-2.16-.12-.24-.12a10.56,10.56,0,0,1,.36-3.6l.72-3.72q0-1.26-7.56-6.84c-5.4-4-9.24-6-11.64-6q-18.18,0-25.2,14.76A38.07,38.07,0,0,0,348,296q0,7,23.16,58.56,24.66,54.54,26.4,61.92a422.27,422.27,0,0,1,10.32,61.32c1.32,15.24,2,34.8,2,58.92l-1.32,9.72A169.63,169.63,0,0,1,404,566.76q-8.46,29.16-22,29.16c-12.24,0-21.12-6.72-26.52-20.16a61.07,61.07,0,0,1-3.84-14.16,51.36,51.36,0,0,1-.72-7.08,112.74,112.74,0,0,1,.72-15.48c1.2-8,2.16-15.12,2.76-21,1,1,1.8,3.12,2.64,6.36a34,34,0,0,1,.84,7.2L356.4,542c-1.08,7.08-1.68,11.16-1.68,12.24,0,2,1.92,7.56,5.76,16.32,4.32,10,7.92,14.88,10.8,14.88l11-.36q5.4-4.5,14.76-24.48c6.12-12.84,9.12-20.76,9.12-24,0-33.72-3.24-65-9.6-94.2a385.4,385.4,0,0,0-21.12-66.24c-3-7.08-6.72-15.36-11.28-25l-9.84-21.12c-6.36-14.4-9.6-25.8-9.6-34.2,0-12.12,2.76-21.48,8.4-28.2A26,26,0,0,1,371.64,258.36Zm152.52,19.2a131,131,0,0,0,1.08-16.2q0-3.42,2.16-4v.12l.84-.72C558,255.48,577.56,277,586.8,321c3.12,14.76,5,31.8,5.64,51.36l.12,35.52-.12,32.28a553.6,553.6,0,0,1-5.28,62.76c-8.76,58.92-26.16,88.44-52.44,88.44l-21.12-.24-.72-1.32a9.68,9.68,0,0,1-2-2.88,5.38,5.38,0,0,1-.48-2c0-13.56,1.08-31.32,3.24-53.16L519,476.4V416.28a72.36,72.36,0,0,0,1.08-7.32c.36-3.24.72-5.64,1.08-7.32V293.76A111.8,111.8,0,0,0,524.16,277.56Zm-79.32,35.88c-7.8,0-13.92,3.24-18.12,9.6-2.88,4.2-4.32,8.16-4.32,11.64,0,7.56,2,16.08,6.12,25.8L442.08,388a218.33,218.33,0,0,1,13.44,32.76,140.54,140.54,0,0,1,6.12,41l-.12,9.12a125.44,125.44,0,0,1-2.28,17.76q-5.4,24.84-20.88,24.84c-10.44,0-17-6.48-20-19.56a77.41,77.41,0,0,1-1.44-13.8l.12-7.32c0-8,.12-14.28.24-18.6l.72-.48,1.2-.6,1,1.44,2.28,1.8a25.39,25.39,0,0,0-1.56,7.32V471a99.42,99.42,0,0,0,1.08,17c1.8,10.2,5.88,15.36,12.12,15.36,10.32,0,17.52-6.6,21.48-19.68a76.22,76.22,0,0,0,2.88-21.48c0-11.16-2-22.92-6.12-35.52q-4.14-13.32-13.32-32.4c-7.8-16.2-12.24-25.68-13.44-28.44-4.08-9.84-6.12-17.88-6.12-24.24,0-11.88,2.16-20.88,6.6-27A19.23,19.23,0,0,1,440.4,306a22.21,22.21,0,0,1,14.4,3.84c4.44,3,6.6,6.24,6.6,10l-.24,3.12-.6,2.16-1.08.24a14.37,14.37,0,0,0-2.16-6.24C454.8,315.36,450.6,313.44,444.84,313.44Zm-.36-57.36a15.88,15.88,0,0,1,8.64.72,20.25,20.25,0,0,1,8.64,5.52,13.62,13.62,0,0,1,4,9.36l.12,2.4a12.76,12.76,0,0,1-.72,4.44c-1.44,4.2-4.92,6.24-10.56,6.24l-11.28-.24-.24,9.24a27.75,27.75,0,0,1-3.6,11.88,11,11,0,0,1-1.32-1.8,15,15,0,0,1-.24-2.88c0-3.48.24-9.72.6-18.84s.72-15.84.72-19.92a6,6,0,0,1,1.32-4.32l.36,1.08A5,5,0,0,1,444.48,256.08ZM442,264l.72,5.88.48,7.44.36.12c8.52,0,14.28-1,17.4-2.76a3.81,3.81,0,0,0,2-3.24,6.91,6.91,0,0,0-1.32-2.88,16.76,16.76,0,0,0-4-3.72c-4.56-3-9.6-3.24-15-.72Zm53.64-8.52c3.72.84,7.08,3.48,10.08,7.68s4.44,8.16,4.44,11.88a3.76,3.76,0,0,1-.48,2.4L508,279.12h-1.44c-.36-2.52-1.68-5.64-4.2-9.48-2.76-4.44-5.4-6.6-7.68-6.6-9.72,0-15.24,11.16-16.8,33.6-.36,6.12-.6,15.72-.48,28.56.12,11.88-.12,19.92-.6,24.24v60.12l-.84,11.88a17.79,17.79,0,0,0,4.68,1.32,15.48,15.48,0,0,0,4.32-1.08,15.48,15.48,0,0,1,4.32-1.08l11.16.24,1.08,1.92.24,2.64a6.56,6.56,0,0,1-.48,2.88l-1.2,1.56-10.92,1.08-5.28.84c-4,0-6.72-.72-8.4-2l-2.52,40.08q-3.78,62.1-3.72,75.72c0,9.24.6,16.56,1.8,21.72,1.92,8.52,5.76,15,11.52,19.56,10.2-2,16.56-5.64,19-10.8a28.73,28.73,0,0,0,2-7.08,34.43,34.43,0,0,1,1.92-7.32l.48-.48.6-1.08a29.69,29.69,0,0,1,1.68,9.36c0,3.72-1.68,8.76-5.16,15.12-3.84,7.08-7.68,11.16-11.64,12.24l-10.32-.24c-7.68-8.64-12.36-17.4-14.16-26.28a84.11,84.11,0,0,1-1.08-12.12l.12-12.6q0-14.58,3.72-78.24c2.28-39.48,3.6-60.12,3.84-61.8V345.36c1.32-6.72,2.16-16.2,2.4-28.32.36-14.88.72-24.6,1.2-29.28,1.2-12.6,3.72-21.6,7.44-27C487.68,256.32,491.4,254.52,495.6,255.48ZM378.36,173.4c-1.08-.24-1.08-.6.12-1.08a15.13,15.13,0,0,0,3.6-1.8l1.08,2,.24,2.76c0,3.6-3,16.8-9.12,39.48-6,22.32-10.2,36.24-12.48,41.76-4-9.48-7.56-21.84-10.92-37q-5.22-25.38-8.28-37.8a263,263,0,0,1-5,37.44,152.06,152.06,0,0,1-12.84,37.56l-.6-.48a6.3,6.3,0,0,1-.24-2.16l7.8-34.32c5.16-23.4,7.92-40.68,8.16-51.84,4.68,7.92,8.88,19.68,12.36,35.4,2,9,4.8,22.8,8.52,41.52l.48,1.08a329.87,329.87,0,0,0,10.44-36.84C374.16,197.76,376.44,185.76,378.36,173.4ZM352.92,16c-11.76,0-20.64-1-26.52-2.88l-1.56-.6c-.36,8.28-1.32,19.56-3.12,34.08-.84,6.84-1.44,13.2-1.92,19l1-.36c3.24-1.08,12.12-2,26.64-2.64v-.6a10,10,0,0,1,2.16,1.56,5.89,5.89,0,0,1-.48,6l-1.68,1.68-21,1.08-7.2.6c-.36,5.88-.48,11.16-.48,15.6.12,10.44-.12,23.88-.84,40.2l-1.56,41-.48.48L315,171c-1.08-2.52-1.68-6.84-1.68-13.08l1.08-22.8q1.08-23.4,1.08-35.28v-43l2.88-28.2a116.58,116.58,0,0,1,3-18,2.5,2.5,0,0,1-1.2-2v-2l.24-1,2.52.12,1-2.52.84,1.08L325,6l5.64.6L342,7.8l8.76-1.08,8.64-1.08,4,.36.36,1.08L364,9.6c0,1.56-1.68,3-4.92,4.44A16,16,0,0,1,352.92,16Zm76.2-9.48C427.56,8,423,9.72,415.68,11.4H401.52l-5.4-.6v1.8q0,11.34-1.44,27.72l11.76.12,17-.72.6.6a4.61,4.61,0,0,1,.24,1.92c0,1.08-1.32,2.16-3.84,3.24a20.42,20.42,0,0,1-8,1.56c-6.72,0-11.4-.48-14-1.56a9.63,9.63,0,0,0-4.08-1.8L394,47.52,390.24,82.8l-1.08.24a19.19,19.19,0,0,1-.6-5.64l2.76-32.76c1.32-15.84,2-27.6,2.16-35.16a3.73,3.73,0,0,1-1.32-3,6,6,0,0,1,.12-1.92l.36-.24.84.12V3.24h.84L395,5l.24.12a8.16,8.16,0,0,0,3.48.84l13.8-1c8.52-.6,13.8-.6,15.84-.12ZM441.6,103l.24,6.48c0,4-1.8,26.4-5.28,67.56L430,256l-.48.48-.84,1q-1.62-1.8-1.8-7.56c-.12-3.84-.72-6.36-2-7.68l.6.12,1.32.48c1.56-8.52,2.88-20.52,4-36.24q1.8-28.26,2.88-37.08l1.56-18.72L436.8,132a74.23,74.23,0,0,0,.12-9.36l-.48-10.44a56,56,0,0,1,.48-9.6l-6.84.24-7.92.84-11,1.2-6.24,1c-2.76,0-4.44-.84-5.16-2.52l-.36-2.64.12-2,.24-1,11.4-1.2,12.12-2,14.28-.6,12.24-1.56,16-1.68,11-1.56,6.84-.84.24,1.08.24,2.52c0,3.48-3,5.52-8.88,6.12l-6.36.36c-2,.12-3.24.48-3.36,1.08l-16,1.56-8,1.2ZM484.68,11.4c-15.24,0-26.52,6.36-33.6,19.2a54.83,54.83,0,0,0-4,9.36A22.83,22.83,0,0,1,451,38.88c4.92-.84,17-1.92,36.36-3.48l.6.72a6.3,6.3,0,0,1,.24,2.16,6.18,6.18,0,0,1-.36,2.52l-.72.84L467.64,43.8l-7.92.84-4.08.24-9.84-.24a34.24,34.24,0,0,0-1,5.76,20.14,20.14,0,0,0,5,13.44c4.8,5.64,12.48,8.88,23.16,9.48a66.65,66.65,0,0,0,18.48-3.48,47.1,47.1,0,0,0,7.44-3.6l.84,2.88c-.6,2.16-2.76,4.56-6.48,7.08-4,2.52-7.44,3.84-10.56,3.84l-6.24-.12-4.56-.6q-21.78-5.22-27-13a14.36,14.36,0,0,1-2.28-7.44v-8a95.17,95.17,0,0,1,.48-12.24,25.69,25.69,0,0,1,3.12-9.12C449,25,457.2,17.16,470.88,6h6.24l11.28.48c2.52,2.4,3.84,4,3.84,4.56l-.12,2.52L492,15.12l-1.08.36a4.12,4.12,0,0,0-.24-2.52C490.08,11.88,488.16,11.4,484.68,11.4ZM565,40.92a49.07,49.07,0,0,0-6.84-15c-8.88-13.2-22-17.64-39.24-13.44l.48,12.12.24,10.68c0,4.08-1.08,12.72-3.12,26l-2.28,13.8a25.49,25.49,0,0,1,15.24-3.6l7.08.84a10.39,10.39,0,0,0,5.76-1,72.16,72.16,0,0,1,6.84-3.12l7-3.36a21.34,21.34,0,0,0,7.68-7,16.15,16.15,0,0,0,2.88-8.76A38.93,38.93,0,0,0,565,40.92Zm-1.68-15.36Q569.4,38.7,569.4,49a26.88,26.88,0,0,1-7.8,19.56c-8.52,8.64-23.28,13-44.16,13L513.12,81l-.6,2.64-1.08.24a12.74,12.74,0,0,1-.6-4.08c0-1.32,1.2-12,3.48-32.28,1.92-17.4,3.12-29.16,3.48-35l-.12-.36a10.5,10.5,0,0,1-.24-2.4c0-1.8.12-2.52.24-2.4H525c0-.36,6.6-.48,19.68-.24C552,8.76,558.24,14.88,563.28,25.56Z" transform="translate(0.19 0.19)"/></svg>