<svg id="Layer_1" data-name="Layer 1" xmlns="http://www.w3.org/2000/svg" viewBox="0 0 276.44 213.45"><defs><style>.cls-1{fill-rule:evenodd;}</style></defs><path class="cls-1" d="M202.44,202.32c-15,10.92-25.56,25.68-31.92,44a225.86,225.86,0,0,0-12.6,71.52c-.48,29.16,8.16,54.84,26,76.8a20.65,20.65,0,0,0,9.72,7c22,7.68,43.56,5.64,65-6A58.73,58.73,0,0,0,276.12,382c-1.32,8.52.6,14.88,5.76,19a20.36,20.36,0,0,0,4.68-17,3.19,3.19,0,0,1-1.92-2.4l.12-.72a137.7,137.7,0,0,0,.36-49.56l-19,.12c-13.44.36-17.88,6-13.44,16.92a48.27,48.27,0,0,1,24.72-1.44l-1.68,3.72-.12.72a3,3,0,0,1,1.08,2.4,5.14,5.14,0,0,0,.72,2.64l.12.6c-13.32,16.92-30.84,27.12-52.32,30.6-25.32,4.2-42-5.88-50-30q-16.74-50.58,1.32-100.92a99.35,99.35,0,0,1,22.32-36.36,39.34,39.34,0,0,1,17-10.32c18.84-6.12,35.64-3.84,50.64,6.6l1.8,5a14.38,14.38,0,0,0,5.76,7.2l.84-.12a8.9,8.9,0,0,0,.72-5.52c-3.72-22-17.28-31.92-40.8-30.12q-8.28,2-17.28,3.24A33.65,33.65,0,0,0,202.44,202.32ZM370.92,334.08l5.64,4.44,25,34.44a53.79,53.79,0,0,1-34.08,12.84H361.8c-9.72-9.36-12.48-20.52-8.52-33.36A36,36,0,0,1,361,339ZM353.4,289.56l-2,1.56a83.16,83.16,0,0,0,16,31.44c-14.28,8-22,20.28-22.92,36.72a68.16,68.16,0,0,0,1.92,20.4c4,15.48,13.8,22.8,29.28,22,15.12-1.08,26.64-7.68,34.44-19.8l22.92,18c4.2-13.8-1.2-25.44-16-35a91.94,91.94,0,0,1-23.28-22c-8.16-10.68-15.72-21.72-22.8-33.12Z" transform="translate(-157.9 -192.75)"/></svg>