<svg id="Layer_1" data-name="Layer 1" xmlns="http://www.w3.org/2000/svg" viewBox="0 0 508.26 343.32"><defs><style>.cls-1{fill-rule:evenodd;}</style></defs><path class="cls-1" d="M292.44,134.76q3.06,49.32,8.28,98.4c1.68,15.6,3.84,31.08,6.6,46.56l-11.88-.24H292.2a65.54,65.54,0,0,0-25.2,2.76l.72-4.92q9.54-63,22-125.52C290.76,146,291.72,140.4,292.44,134.76ZM185,133.68c1.32-17.28-6.12-29.52-22.2-36.6-15.24-6.6-29.76-4.92-43.8,5A114.43,114.43,0,0,0,88.56,133.8a175,175,0,0,0-19.8,41A339.55,339.55,0,0,0,58.08,216a367.33,367.33,0,0,0-5.4,39.72C51.6,269,51,282.48,51.12,295.92A238.36,238.36,0,0,0,55.92,342a257.76,257.76,0,0,0,13.8,45.12c6.36,15.48,17.52,25,33.24,28.44a77.72,77.72,0,0,0,46.68-4,89,89,0,0,0,36.72-27.24,38.54,38.54,0,0,0,7.08-12.84c-3.12,16.92-2,32.76,3.36,47.52a368.07,368.07,0,0,0,1-104.64l-1.32-11.88a382.19,382.19,0,0,0-59.76-.12,43.22,43.22,0,0,0-7.68,1.44l-.6,5.4,65,7.92.36,33L188.52,338c3,16.08-1.44,30-13.32,41.64A77.78,77.78,0,0,1,139.32,400a90.36,90.36,0,0,1-32.16,2.16A32.2,32.2,0,0,1,88,392.4a97.43,97.43,0,0,1-15-19.92,76.8,76.8,0,0,1-7.8-19.2,159.63,159.63,0,0,1-5-28.2,433.55,433.55,0,0,1-1.44-61.2A314,314,0,0,1,69.12,197a164,164,0,0,1,37.68-68.76q22.86-24.84,56.88-21.36a60.62,60.62,0,0,1,19.68,23.28ZM291,107l-.12.12q-14,61.92-23.76,124.8T245.64,357.84a185.06,185.06,0,0,1-8.76,31.2c-4.56,12.24-4.2,22.68,1,31.2a64.84,64.84,0,0,0,6.48-17.64q12.24-54.54,21-109.8c14.64.12,29.4-.24,44.16-1.08l1,5.16Q322.86,361,335.76,424c2.28-.12,3.24-1.44,3-4a1150.39,1150.39,0,0,0-20.28-125.64,541.82,541.82,0,0,1-10.2-63.72q-6.48-64.08-14.4-127.32C292,103.68,291,104.88,291,107Zm124.08,15.84c-.12-16.32-9.72-23.52-28.68-21.72-22.92,15.48-35.88,37-38.88,64.68-2,19.08,2.64,35.76,14,50.16,16,20,31.2,40.08,45.84,60.36a226.49,226.49,0,0,1,16.2,26q25.92,48.78,4,97.2a18.93,18.93,0,0,1-12.48,10.8q-29,7.74-47.88-18.36a119.77,119.77,0,0,0-.84-14.64c-.24-2.64-1.56-3.84-3.84-3.72a42.22,42.22,0,0,0-3.12,17c.12,11.88,5.4,21.36,15.6,28.44A122.35,122.35,0,0,0,387.24,426c21.24,10.68,36.48,5.16,45.6-16.32q25.38-60.12-5.28-120.12A302,302,0,0,0,369.48,211a37.86,37.86,0,0,1-10.56-17.16q-14.58-48.6,27.72-78.24c5.52-2.28,10.44-2.16,14.88.6s9,5.4,13.2,7.56Zm136.08,55-2,61.08a152.48,152.48,0,0,1-16.56-.12c-20.88-.84-39.48,3.48-55.8,13.2l-.36-31.2c-.6-43.32-1.68-86.16-3.12-128.28a400.2,400.2,0,0,0-5.64,78.72c1,43.08,1.08,86,.48,129.12s-.48,85.92.24,128.28l1.44-.24a443.9,443.9,0,0,0,7.32-78.48q.18-44.64-.24-89.28l1.44,1.32,3-2.4,67.44-6.36-1.32,53.64q-.72,32.58-3.6,64.8a265.71,265.71,0,0,0,1.92,64.2c.84-.24,1.2-.48,1.32-.84a576.64,576.64,0,0,0,5.4-76.2q.36-53.46,2.76-106.32l2.4-.24.48-1a12.11,12.11,0,0,0-1.32-12.84l-.84.12.36-8.76q3.42-64.8,1.32-128.28Q552.78,138.24,551.16,177.84Z" transform="translate(-51.1 -92.52)"/></svg>