<svg id="Layer_1" data-name="Layer 1" xmlns="http://www.w3.org/2000/svg" viewBox="0 0 595.57 842.18"><defs><style>.cls-1{fill:#fff;}.cls-2{fill:none;stroke:#fff;stroke-linecap:round;stroke-linejoin:round;stroke-width:0.38px;}.cls-3{fill-rule:evenodd;}</style></defs><rect class="cls-1" x="0.31" y="0.31" width="595.08" height="841.68"/><rect class="cls-2" x="0.19" y="0.19" width="595.2" height="841.8"/><path class="cls-3" d="M202.68,310.92a21.8,21.8,0,0,0-3.24,11.64c-.84,43.08-2.76,85.56-6,127.44a257,257,0,0,0,30,8l.48-.6a12.76,12.76,0,0,0,.36-12.12,83.94,83.94,0,0,1-26-7.8l.12-1.56q5.22-60.84,6.12-121.8l-.24-.84ZM110.4,86.64q-50,48.6-59.88,122.4a582.8,582.8,0,0,0-4.2,111.12,272.28,272.28,0,0,0,12.48,68,101.71,101.71,0,0,0,8.52,19.2,107.38,107.38,0,0,0,12.24,17.28A141.73,141.73,0,0,0,94.8,440a42.46,42.46,0,0,0,7.8,5.28,25.89,25.89,0,0,0,12.12,2.52,21.91,21.91,0,0,0,8.16-1.92,116.53,116.53,0,0,0,30.36-20.76,91.61,91.61,0,0,0,20-28.2q-10.62,32.58,4.2,59.28c2-36.36,3.48-73.2,4.56-110.4q-19.44-13.5-41.4-6.48l-.24,3.6,36.48,11L174,375.6q-17.28,37.8-54,54.6c-4.2,2-8.88,2-13.92.24a61.49,61.49,0,0,1-26-18,69.41,69.41,0,0,1-9.6-15.24,137.11,137.11,0,0,1-6.12-16.56C62,372.84,60,365.16,58.2,357.48s-3.24-15.6-4.32-23.4a278,278,0,0,1-2.76-31.44,341.62,341.62,0,0,1,2.16-52C55.2,235,57.6,219.24,60.6,203.76a290.21,290.21,0,0,1,18-58.56,148.63,148.63,0,0,1,30.12-45.12Q141.3,99,154.2,131.52a21.1,21.1,0,0,0,4.56,7.08c2-16-3.84-29.4-17.76-40.32A55.59,55.59,0,0,0,110.4,86.64Zm97.08,8.64c14,11.4,19.92,26.64,17.52,45.48q-3.06,25-19.8,41a18.63,18.63,0,0,1-9.12,4.44l3.36-90.48Zm-5.16-8.16-5.4,2.76.72,6.48-8.52,91.08-1.92.12-.24,8.88,1.44.48c-3,28.68-4.56,57.36-4.68,85.8a23,23,0,0,0,1.2,7.44l1.2,3.48a407,407,0,0,0,7.44-67.2c.24-10.08.84-20.16,1.8-30.12L204,190.2a275.6,275.6,0,0,0,18.24,70.44,144.1,144.1,0,0,1,4.68,14.4c1.8,7.56,3.48,15.24,4.92,22.92L233,299c3.72-4.08,4.68-9.48,2.64-16.08l-4.56-14.16q-13.5-40.32-24-81.48a68.46,68.46,0,0,0,21-38.64l1.2-8.4a68.89,68.89,0,0,0-2.16-27.12l-.84-3A37.48,37.48,0,0,0,216,95.28,46.52,46.52,0,0,0,202.32,87.12ZM300,95l-.84.12-.24-2-.24,4.08q-9.18,62.28-19.8,124.44-5.4,31.5-9.84,63.12l-.6.48-.48.84-.36,3.24V290a7,7,0,0,0,.36,2.28c-2.52,18.6-4.8,37.32-6.84,56a585.75,585.75,0,0,1-10.68,62.76,143.28,143.28,0,0,0-3.12,47.52c6.84-14.16,11.16-30.12,13-47.76,4-39,8.52-78,13.92-116.88a131.19,131.19,0,0,0,38.28,2.28,4.83,4.83,0,0,0,1.08-2.4l.12-.84a9.81,9.81,0,0,0,.12-3.24l-.12-.84a3.81,3.81,0,0,0-1-2.4.87.87,0,0,0-.72-.48l-36.48-1.68v-.24c3-21.12,6.36-42.12,10.32-63Q294.3,174.9,298.08,129a363.53,363.53,0,0,0,3.12,38.76c5.76,42.36,10.8,84.72,15.24,127.32s7.68,85,10,127.56c.6,12,3.72,22.44,9.12,31.32a3.24,3.24,0,0,0,2-2.88,76.06,76.06,0,0,0-.6-23.88q-6.84-39.6-10.56-79.92-5.76-63.9-13.2-127.56c-4.68-39.72-9.12-79.44-13.32-118.92Zm160.08,5.88c-1.56,2-2.28,4.68-2.4,8a313.05,313.05,0,0,0-8.88,42.48q-3.78,26.82-8.64,53.28l-17.28,92.4c-2.4-22.08-4.2-44.16-5.4-66.36-2-37.08-5-73.68-9.24-109.92a42.11,42.11,0,0,0-1.32-17.16l-.6,1-.24-1.32-.36,2.52a29.12,29.12,0,0,0-3,9.12q-10.62,63.18-20.52,126.6-9.9,63.18-16.92,126.72a508.39,508.39,0,0,1-10.92,63c-2.88,12-2,22.32,2.52,30.84,3.36-16.44,6.12-33.24,8.4-50.28l17.16-126.6q8.64-63.36,18.72-126.72c1-5.88,2-11.88,3.12-17.88,3,41.76,6.12,83.52,9.6,125.28,1,10.92,1.56,21.72,1.68,32.52a72.12,72.12,0,0,0,3.12,21.36l-2.28,12a3.89,3.89,0,0,0,2.4,2.16l2.4-7.32,1.68,3.24a21.2,21.2,0,0,0,2.28-13.08l-.24-2.16a577.52,577.52,0,0,0,15.48-66.48c6.84-39.24,12.84-78.72,17.76-118.44.72,22.32,1.8,44.64,3.24,66.84q4.14,64.08,7.56,128.16a658.55,658.55,0,0,0,19.2,127.08q4.5-4.5,3.24-11.88c-4.68-27.72-8.64-55.68-11.88-83.64q-7.38-63.72-10.44-128.16c-1.8-38.16-4.44-76.2-7.68-114a33.57,33.57,0,0,0-1.2-13.68Z" transform="translate(0.19 0.19)"/></svg>