<svg id="Layer_1" data-name="Layer 1" xmlns="http://www.w3.org/2000/svg" viewBox="0 0 479.98 440.76"><defs><style>.cls-1{fill-rule:evenodd;}</style></defs><path class="cls-1" d="M110.64,358.8l49.2,2.16a452.15,452.15,0,0,0,1.44,108.12,17.16,17.16,0,0,0,2,5.88l.12-.24.48-127A137.08,137.08,0,0,0,110.4,354Zm63.6-244.32c2.64-4.44,3.24-9.6,1.68-15.24Q164.58,55.86,115.8,59c-32,11.16-53,33.36-63.24,66.84A547.81,547.81,0,0,0,30,254.28,536.39,536.39,0,0,0,36.12,369a204.73,204.73,0,0,0,28,75l7,11.64c9.84,16.92,23.88,24.72,42.24,23.52a136.58,136.58,0,0,0,25.44-18.24q22.5-20.52,16-46.68a87.06,87.06,0,0,1-10.8,19.92A100.55,100.55,0,0,1,112,463a40.08,40.08,0,0,1-14.28-3.24,50.63,50.63,0,0,1-21.6-17.28,121.63,121.63,0,0,1-13.56-23.28A314.94,314.94,0,0,1,34.68,291.72,567.67,567.67,0,0,1,47,167.88,183.26,183.26,0,0,1,76.92,99.6c12.6-17.88,29.88-26,51.72-24.72Q168.24,77.22,174.24,114.48Zm174.24,36.6a533.39,533.39,0,0,0-2.88,90,944.21,944.21,0,0,1-2,129c-.84,9,1.32,15.24,6.24,18.72A946.19,946.19,0,0,0,354,279.24q-1.44-64.62-4.92-128.28Zm-121.2-77.4q49.14-1.26,57.24,43.32c4.68,25.8-.12,49.56-14.4,71s-33.6,36.48-57.6,44.76l1.8-33.6q3.24-63.18,4.44-124.68Zm-14.76-3.6-.12,2.4a6.27,6.27,0,0,0,.48,2.52l2.64.12,1.56-.24a40.07,40.07,0,0,0-4,16.56c-1.8,42.84-3.84,85.56-6.24,128.4l-.84,15-3.12.84a11.09,11.09,0,0,0-1,3.24,22.55,22.55,0,0,0-.36,5.76,5.75,5.75,0,0,0,2.4,4.8l1.2-.24L203,283.8q-4.14,63.9-6.36,128.28A191.31,191.31,0,0,1,193,444.24c-2.52,12.6-1.32,23.16,3.72,31.68a55.21,55.21,0,0,0,4.8-20.28q2.34-64.44,5.76-128.28l4.44-80a96.94,96.94,0,0,0,14.76-6.24c3.24-1.68,6.36-3.48,9.36-5.28q17.64,53.46,37.8,106,23,59.94,48.72,118.92a165.19,165.19,0,0,0,15.84,28.56l.84-1c3.48-7.8,2.76-15-1.92-21.6a23.19,23.19,0,0,0-2-6.36Q307.5,402.72,284.4,343.2q-21.42-55.44-44.64-110c3.6-2.52,7.08-5.16,10.44-8q52.38-45.18,39.84-114.6-7.38-41.94-52.56-49.68A17.25,17.25,0,0,0,227,60.72a49.76,49.76,0,0,0-13.8,7A4.33,4.33,0,0,0,212.52,70.08ZM475.92,82A165.4,165.4,0,0,0,397.2,55.2a3.52,3.52,0,0,0-1.8,2.4L395,60.12a9.49,9.49,0,0,0,.84,4.8l2.64,1a529,529,0,0,0,.36,93.48,698.53,698.53,0,0,1,2,96.48q-2.88,63.9.12,128.28a473.69,473.69,0,0,1-2.76,79.44q-2.16,18.18,4.32,32.4a157.54,157.54,0,0,0,5.64-53.16,1252.38,1252.38,0,0,1-.12-129.12q1.44-26.46,1.44-52.92,38.34,4.14,69.72-19.44a62.8,62.8,0,0,0,22.56-31.56Q523.08,144.24,483.24,89A27.31,27.31,0,0,0,475.92,82Zm-14.28,3.12q48.78,35.46,40.92,95.88a55.4,55.4,0,0,1-7.68,21.72q-29,47.7-85.44,42.48c-.24-19.92-1.08-39.84-2.52-59.88q-4.32-59.58-6.6-118.92a351.19,351.19,0,0,0,42.6,10.8A48.05,48.05,0,0,1,461.64,85.08Z" transform="translate(-29.23 -55.2)"/></svg>