<svg id="Layer_1" data-name="Layer 1" xmlns="http://www.w3.org/2000/svg" viewBox="0 0 415.46 302.92"><defs><style>.cls-1{fill-rule:evenodd;}</style></defs><path class="cls-1" d="M252.6,369.6a898.72,898.72,0,0,1,5.28-123.24,287.06,287.06,0,0,0,0-64.2q-5.76,45.54-9.24,93.6c-1.56,21.24-2.76,42.48-3.72,64-.6,12.6,1.8,23.16,7,31.44A2.11,2.11,0,0,0,252.6,369.6ZM215.4,153.36q-9.36-38-50.88-35.4c-27.12,9-46.56,26.52-58.32,52.8A336.9,336.9,0,0,0,76.56,297.24q-1.8,46.26,16.32,87.36a41.32,41.32,0,0,0,17.28,19.2q41.4,23.76,85.2.48c6.84-3.72,12.24-7.8,16-12.36L210,418.8a3.21,3.21,0,0,0,3.24,1.92l1.32-.24a18.06,18.06,0,0,0,1.68-5.64,314.11,314.11,0,0,0,1.56-77.16l-1.08-.48-5.64-.6a77.07,77.07,0,0,0-26.52,7.8,11.2,11.2,0,0,0,.24,5.64l.84,1.68a208.35,208.35,0,0,1,29.52-2.64l-.84,6.48-1.08,12.12c-7,14.52-19.2,24.24-36.84,29A96.64,96.64,0,0,1,130.32,398c-17.64-3.72-29.28-13.92-35-30.72A213.68,213.68,0,0,1,85.08,273a466.7,466.7,0,0,1,11.28-61.32c8.16-32,25.92-56.64,53.4-73.56a28.65,28.65,0,0,1,9.72-4c29.4-6.36,47.4,4.2,54.24,31.68C216,162.36,216.6,158.28,215.4,153.36Zm245.16,46.56,19.92,21.48c1.8-10.56-1.08-20-8.64-28.32a21.14,21.14,0,0,0-8.16-5.88c-15-.6-28.08,6.6-39,21.6a173.67,173.67,0,0,0-20.76,37.92,163,163,0,0,0-10.68,43.56,173.35,173.35,0,0,0,1.08,43.2A105.5,105.5,0,0,0,410,375.6q13.14,20.34,38.52,13.68a63.65,63.65,0,0,0,37.2-27,35.11,35.11,0,0,0,5-28.44,99.53,99.53,0,0,1-33.48,32A52.46,52.46,0,0,1,434,373.2a19.43,19.43,0,0,1-18.36-7.68,73.25,73.25,0,0,1-14.16-28.92A118.13,118.13,0,0,1,399.36,289a197.66,197.66,0,0,1,63-10,14.57,14.57,0,0,0,.84-13.68l-1.56-2.52a105.52,105.52,0,0,0-59.52,13q8.46-38,36.36-63.72A51.89,51.89,0,0,1,460.56,199.92Zm-49.8-74.64a237.85,237.85,0,0,0-21.24,66.6q-10.62,63.18-22.32,126a239.44,239.44,0,0,1-20.4,61.56,53.57,53.57,0,0,0-6.12,21.48l-20.16-88.68-14-62.88q-13.68-62.64-30.24-123.84c-1.08-.12-1.44.48-1.32,1.56q7.2,53.46,19,106.56,7,31.14,13.44,62.64a1044.52,1044.52,0,0,0,33.6,123.6,5.55,5.55,0,0,0,1.92-1.8l.24.72a245,245,0,0,0,16-43A1249.12,1249.12,0,0,0,385.8,250.92a1241.84,1241.84,0,0,1,26.52-124l-.6-.84Z" transform="translate(-76.4 -117.8)"/></svg>