<svg id="Layer_1" data-name="Layer 1" xmlns="http://www.w3.org/2000/svg" viewBox="0 0 289.88 212.64"><defs><style>.cls-1{fill-rule:evenodd;}</style></defs><path class="cls-1" d="M298.56,386.4q-1.62-35.82-.72-70.68a237.87,237.87,0,0,0-8.28,67.44c.12,11.52,4.92,18.24,14.28,20q23.22-11.16,20.88-33.84c-7.08,9.84-15.84,15.72-26,17.76Zm-86.64-51.48-.12,7,20.64,3.36a135.65,135.65,0,0,0-3.6,52q12.78-29.88,7.56-63.84a27.84,27.84,0,0,0-22.56.6Zm88.92-60V275c-3.6,1.56-4.8,4.32-3.72,8.52-2.76,5.16-1.8,9.12,2.64,11.64l.72-.6C306.84,287.52,307,281,300.84,274.92ZM196.08,210.24q-22,24.66-25.8,59c-2,18.6-3.72,37.2-5,55.92a136.92,136.92,0,0,0,6.48,52.44c4.8,14.64,14.4,19,28.8,13.08,19.92-8.16,29.16-21.48,27.84-39.84a98.67,98.67,0,0,1-31.2,25.32,10.67,10.67,0,0,1-11.16-.12c-10.32-5.64-15.6-15-16-27.84a364.29,364.29,0,0,1,12.12-101.52,40.86,40.86,0,0,1,15-23q25.38-19.44,40.32,5.28l1.08.84.84.72.12.84a2.4,2.4,0,0,0,1.44,2l1.2.12.24-.84q1.26-29.34-29.16-31.32l-8.16,2.76A21.51,21.51,0,0,0,196.08,210.24Zm223.68,32a671.09,671.09,0,0,0-12.84,95.64L405.48,354l-2.4,20.64a55,55,0,0,0,1.2,20.28l2.16,7.2A188.33,188.33,0,0,0,415,343.68c-.12-8.64.12-17.28.6-25.92l27.72-6-1,95.28c4.8-18.36,7.44-38.76,7.8-61.2l.84-37.2,3.84-99.48a415.87,415.87,0,0,0-10.92,88.56l-27.6,8Zm9-29.52-1.8-1.68a169.91,169.91,0,0,0-46.68-5.76,240.55,240.55,0,0,0-42.6,4.08l-.24,9.84,42.84-.72A1380.57,1380.57,0,0,0,369.6,374.4a310.43,310.43,0,0,0,2.16,39.6,16.29,16.29,0,0,0,7.32-14.28q-2.16-90.18,2.88-181.2l48,2.28a16.73,16.73,0,0,0,.36-4.92l-.48-1.56Z" transform="translate(-164.92 -201.36)"/></svg>