<svg id="Layer_1" data-name="Layer 1" xmlns="http://www.w3.org/2000/svg" viewBox="0 0 505.42 530.62"><defs><style>.cls-1{fill-rule:evenodd;}</style></defs><path class="cls-1" d="M228.12,342.6q.36,46.62-.24,93.24-.9,65.52-.12,128.28a355.63,355.63,0,0,1,87.72-4.8c3-4.32,3.36-8.88.84-13.8a755.88,755.88,0,0,0-84.24,1.56c1.08-29.4,1.8-58.8,2-88.44.36-43.32-.48-86-2.28-128.28C229.32,333.36,228,337.44,228.12,342.6ZM257.88,59.28a80.8,80.8,0,0,1,7.2,8.64q15.84,23.4,10,53.4-8.1,41.76-49.32,47.76L228.6,61.56a45.85,45.85,0,0,1,23-5,10.07,10.07,0,0,0,5.4,2.4Zm-78,21.84Q154,32.34,94.2,38.16a35.67,35.67,0,0,0-6,2.52q-38.34,20.7-47.28,65.16a924.58,924.58,0,0,0-16.2,123.48,1146.16,1146.16,0,0,0-1.08,128.4A675.27,675.27,0,0,0,42,485.52q9.9,40.5,41.28,67,26.28,22.14,58.68,13.08c15.24-4.2,27.24-13.2,36.12-26.76a103.6,103.6,0,0,0,9.36-18.12l-1,14.64c-.84,12.12,1.08,22.8,5.64,31.8q2.52-40.68,3.12-83.64a363.09,363.09,0,0,0-4.56-64.08c-14.76,2.4-29.28,5-43.56,7.8L147,428a15.35,15.35,0,0,0,.12,4.08A189.34,189.34,0,0,0,189.36,430c.12,17.16,0,34.44-.36,51.6a15.92,15.92,0,0,0-3.12-3.24,112,112,0,0,1-8.4,36.72c-6.6,16.2-17.4,27.6-32.52,34a45.35,45.35,0,0,1-34.56.72C77.64,537.72,57,514.44,48.72,480a701.62,701.62,0,0,1-18.6-127.68,881.28,881.28,0,0,1,.12-95.88q3.42-62.1,13-123.36a160.17,160.17,0,0,1,22-59.88c5.52-9,13.08-14.64,22.8-16.92,37.32-8.76,66.6,1.2,87.6,30l.6.84a5.1,5.1,0,0,0,2,1.2l1.2.12A6.76,6.76,0,0,0,179.88,81.12ZM279.48,83a49.85,49.85,0,0,0-1.68-7.32l-1.08-3.6L275.28,69l-1.68-3-4.08-5.16a39.86,39.86,0,0,0-21-12.24l-4-1a56.07,56.07,0,0,0-21.12,9l-1.92,1.56.36,6.36L227,62.4q-11.7,121.5-12.24,243A25,25,0,0,0,217,316.32a637.26,637.26,0,0,0,8.4-134.52,16.62,16.62,0,0,0,12.36-1.92l4.8-2.64A676.89,676.89,0,0,0,286.2,313.68q3.24-40.5-17.52-81.84a432.11,432.11,0,0,1-23.28-55.92c23.4-16.92,35.16-40.44,35.52-70.56A139.47,139.47,0,0,0,279.48,83Zm72.84-8,2,86.88q1.26,64.62.72,129t-1.92,129c-.84,43.08-2.88,85.92-6,128.28a3.32,3.32,0,0,0,2.4,2.16q9-26.46,7.92-57.24c-.72-19.56-.72-39.12.12-58.56q2.52-64.44,3.36-129,.9-64.26-.72-129.12-1.62-64.62-5-128.28A94.81,94.81,0,0,0,352.32,75ZM518.16,51.36a407.85,407.85,0,0,1-9.48,66.24q-14.94,64.62-28.44,129.72-13.32,63.18-28.92,125.76,3.24-62.64,2.64-125.52c-.36-43.08-1.32-86.16-2.88-129A143.19,143.19,0,0,1,453.6,86.4c2.52-12.36,1.32-22.68-3.36-31Q440,109.26,430.68,164L409,293.16q-10.62,64.26-16.8,129.24Q386,486.48,380.4,549a148.58,148.58,0,0,0,9.84-40.68q6.66-64.44,14-129.12,7.2-65,19.56-129t21.24-125.4c-.12,11.88.12,23.76.48,35.64,1.56,43.08,1.8,86,.72,129.12-1.08,42.72-1.2,85-.6,126.6q2,1.26,2.88-1.08a282.46,282.46,0,0,0,10.32-34.32q14.4-64.62,28.08-129.12,13.5-64.62,30.12-125.52l.6,13q1.62,64.44,2.64,129.12c.72,43.08.48,86.16-.6,129-1.08,42.6-2,85.44-2.88,128.28-.24,12.36,2.4,22.56,7.8,30.6a10.8,10.8,0,0,0,2.64-6.6,148.73,148.73,0,0,0,.36-17.88q-2.88-64.44-1.32-129c1.08-42.84,1.32-85.92.72-129s-1.92-86.16-4.08-129a356.74,356.74,0,0,1,2.4-64.2c1.56-12.12,0-22.56-4.8-31.2l-1,.72Z" transform="translate(-22.34 -37.55)"/></svg>