<svg id="Layer_1" data-name="Layer 1" xmlns="http://www.w3.org/2000/svg" viewBox="0 0 224.75 217.31"><defs><style>.cls-1{fill-rule:evenodd;}</style></defs><path class="cls-1" d="M202.56,204.24a86.15,86.15,0,0,0-24,43.56,252.64,252.64,0,0,0-5.76,61.56,272.19,272.19,0,0,0,5,46.32A51.73,51.73,0,0,0,188,378.12a53.58,53.58,0,0,0,18.36,15.12q21.78,11.16,42.84-.36a74.67,74.67,0,0,0,27-24.12c-4.08,13.32-3.6,25.8,1.32,37.32a185.34,185.34,0,0,0,7.56-86.28l-3.72-.24-2.52,1.92-24.84,8-.72,4.08c9.24,4.68,18.72,4.32,28.56-.84l-1.44,1.68C277,354.36,265,368.76,244.68,377.76c-16.2,7.08-31.32,5.52-45.12-4.68a36.93,36.93,0,0,1-13.2-18.48,214,214,0,0,1-7.44-30.24,168.61,168.61,0,0,1-2.52-27,138.1,138.1,0,0,1,4.44-36.48,93.66,93.66,0,0,1,25.68-44.16q21.6-21.24,51.6-14.28l12.36,19.92c2-13.32-2.76-22.92-14.4-28.56C236.76,184.56,219,188,202.56,204.24ZM367.68,308.76a167.19,167.19,0,0,1-5.4,40.92c-4.32,17-2.28,32.28,6.24,45.84,17.16-3.84,26.88-14.16,28.92-31.08a11,11,0,0,0-5.64-.48c-6.12,9-13.92,13.56-23.28,13.8l-.12-.84a481.13,481.13,0,0,0,4.44-79.56C369.48,299.76,367.8,303.6,367.68,308.76Zm.6-42.72,1.08,2.88,3-9.24,2.16,8c6.6-7,7.32-14.28,2.28-22C368.64,249.48,365.76,256.2,368.28,266Z" transform="translate(-172.69 -188.77)"/></svg>