<svg id="Layer_1" data-name="Layer 1" xmlns="http://www.w3.org/2000/svg" viewBox="0 0 240.87 207.23"><defs><style>.cls-1{fill-rule:evenodd;}</style></defs><path class="cls-1" d="M234.84,194.76a87.41,87.41,0,0,0-29.28,15.72,84.87,84.87,0,0,0-22,36.24,181.71,181.71,0,0,0-7.8,43,199.1,199.1,0,0,0,2.28,43.92,81.24,81.24,0,0,0,19.08,40.92c10.56,12.24,23.64,18.24,39.36,18.12,14.52-.12,26.64-5.88,36.36-17.52l1.92,25.32A288.38,288.38,0,0,0,281,338.52l-.24-14.4-27.6,2.4-.36,5.16,3.12,4.68,19.68,1.56-.6,4.32c-1.8.84-2.64,2.4-2.76,4.92a24.43,24.43,0,0,0,1,7.8,53.79,53.79,0,0,1-21.84,18.6,49.42,49.42,0,0,1-15.6,4.32,31,31,0,0,1-18-4.44,65.21,65.21,0,0,1-28.2-33.12q-16.92-42.84-1.44-86.52,13.32-37.44,51.36-43.92c11.64-2,21.48.84,29.4,8.76a21.91,21.91,0,0,0,6.48,4.56q3.42-11-7.56-20.52a43.82,43.82,0,0,0-13.2-7.68A30.29,30.29,0,0,0,234.84,194.76ZM411.48,312q-5.22-27.72-31.56-13.8c-19.44,10.44-29.52,27.72-30.12,51.6A94.36,94.36,0,0,0,356.64,388q24.3,19.62,50.76,2.16c8.64-5.76,11-13.44,7.08-22.92-13.56,14.4-29,17.28-46.68,8.76-6.36-3-10-8.52-10.8-16.44a68.49,68.49,0,0,1-.36-10,94.13,94.13,0,0,0,38.4-1.08,12,12,0,0,0,1.68-8.76,8.93,8.93,0,0,0-3.84-6.12L358.2,339a56.64,56.64,0,0,1,10.08-20.76q17.1-22,41.16-7.68Z" transform="translate(-175.46 -193.21)"/></svg>