<svg id="Layer_1" data-name="Layer 1" xmlns="http://www.w3.org/2000/svg" viewBox="0 0 538.32 537.47"><defs><style>.cls-1{fill-rule:evenodd;}</style></defs><path class="cls-1" d="M160.68,276.84a464.68,464.68,0,0,0-7,62.16c-1.92,42.6-2.76,85.44-2.64,128.28,0,10.92-.36,21.72-1,32.4q-2,35.82,19.8,62.52a6.34,6.34,0,0,0,6.24,2.4c18.12-2.76,29.28-13.8,33.48-33.24a579.09,579.09,0,0,0,12.72-98.88q2.7-64.08,2.76-128.28c0-10.44-2.64-18-7.92-22.8l-.48,66.6q-.9,64.26-3.72,128.28a149.61,149.61,0,0,1-16.92,62.64A16.79,16.79,0,0,1,189,546q-21.78,11.7-25.56-14a680.4,680.4,0,0,1-6.6-127.2q2.7-64.8,4.68-128.16C161,276.48,160.8,276.48,160.68,276.84ZM91.92,43.08a199.84,199.84,0,0,0-19.44,8.64,98.94,98.94,0,0,0-19,28.92A215.09,215.09,0,0,0,35.76,166.2q-.18,64.62-3.24,129c-2,42.84-3.84,85.92-5.16,129A280.21,280.21,0,0,0,46.08,534.84c7,18.12,19.8,27.72,38.4,28.8,14,.84,25.92-3.84,35.4-14.16a46.91,46.91,0,0,0,10-14.88l-.6,3.36c-1.8,11.88-.6,21.84,3.6,30a10,10,0,0,0,2.16-5.64A832.68,832.68,0,0,0,135.48,434a434.36,434.36,0,0,1-48.84,11l-.36.84a6.25,6.25,0,0,0,.84,5.64,178.42,178.42,0,0,0,45.12-5.88,171,171,0,0,0,.12,23.52,303,303,0,0,1-.36,46.68l-.6-2.64A96.81,96.81,0,0,0,119.88,529a35.16,35.16,0,0,1-15.72,14.16c-24.84,11.28-42.12,5-52.08-18.6a179.4,179.4,0,0,1-14-63.24q-2.7-63.54,0-128.16C40,290.28,40.8,247.32,40.56,204a573.12,573.12,0,0,1,5.88-85.2C50.16,93.12,62.28,73.2,83,59Q110,40.68,138,55c5.64,6.24,7.44,13.44,5.64,21.72a4.69,4.69,0,0,0,.84,4c3-2.76,4.44-6.48,4.08-11.4q-2.34-36.54-42.48-33A128.7,128.7,0,0,1,91.92,43.08Zm232,13.2c-9.72-6.24-21-7.92-33.84-4.92A44.16,44.16,0,0,0,268.92,67.8a141.75,141.75,0,0,0-26.52,72.84,897,897,0,0,0-.6,128.28l1,14.76.12,3.6q2.88,55.08,1.08,109.92-1.62,46.26-2.64,92.52A128.14,128.14,0,0,0,253.2,546.6a57.08,57.08,0,0,0,14.16,11c23.16,12.6,43.2,9,60-10.56a16.06,16.06,0,0,1,3.48-5.4,63.22,63.22,0,0,0,12.48-21.24c2.76-7.8,2-14.64-1.92-20.4A85.43,85.43,0,0,1,317,537.72c-15.6,14-32.4,15.24-50.28,3.36-7.56-5-11.88-12-12.72-21A875,875,0,0,1,250,392.16q2-51.3-.84-102.36a229.77,229.77,0,0,0,57.36,1.92l.36-.84c1.8-4.2,1.44-7.92-1.08-11.4A350.64,350.64,0,0,1,248.64,281l-1.2-18a665.44,665.44,0,0,1,1.8-127.56A123.9,123.9,0,0,1,266.88,83.4c11.16-18.12,27.84-24.84,50-20.4a22,22,0,0,1,12.84,7.68v.72l.12,1.68.24.72.48.84C334.08,67.56,331.92,61.44,323.88,56.28ZM365,315.72q-16.38,49.68,19.68,84.12c18.6,17.64,30.36,39.24,35.52,64.68a115.83,115.83,0,0,1-1.2,51.72q-9.9,38.52-51.84,33.6a68.83,68.83,0,0,1-7.44-13.68q-3.24-8.1-8.28-10.44a19.34,19.34,0,0,0-.48,14.64,76.91,76.91,0,0,0,15.36,25.92c15.24,3.12,29.16,0,41.52-9.24A27.33,27.33,0,0,0,417,545.52q23.22-53.46,2.64-108.84a87.92,87.92,0,0,0-9.84-19.2,515,515,0,0,0-42.36-54.6c-4.2-16.92-2.64-33,4.68-48,9.12-19.08,22.92-22.2,41.28-9.12l.24,1.68a3,3,0,0,0,1.56,2.28l1.44.72A3.22,3.22,0,0,0,418.2,307c-2.64-14.76-12.84-22.08-30.72-21.72A57.37,57.37,0,0,0,365,315.72ZM562.44,33.6a360.92,360.92,0,0,0-48.36-3A607.18,607.18,0,0,0,382.32,42.24a10.11,10.11,0,0,0-.48,3.24v2.4l.24,1.68.24.72,1,1.68.6.84,1.44.24,1-.36.6-.72a845.1,845.1,0,0,1,105.72-7.8,453.33,453.33,0,0,0-5.88,109.56,1185.38,1185.38,0,0,1,1.32,129q-2.88,64.26-3.72,129.12-.9,63.9-4.8,128.16-.9,15.3,6.48,23.4a23.29,23.29,0,0,0,3.24-11.4c1.08-43.08,1.8-86.16,2.4-129.12s1.56-85.92,2.76-129c1.2-42.84.6-85.68-1.8-128.28a974.8,974.8,0,0,1,.72-121.44l70.32,2.16a6.67,6.67,0,0,0,1.8-4.08,14.62,14.62,0,0,0,0-3.24l-.24-1.68-.84-2.4-.48-.84Z" transform="translate(-27.21 -30.49)"/></svg>