<svg id="Layer_1" data-name="Layer 1" xmlns="http://www.w3.org/2000/svg" viewBox="0 0 595.57 842.18"><defs><style>.cls-1{fill:#fff;}.cls-2{fill:none;stroke:#fff;stroke-linecap:round;stroke-linejoin:round;stroke-width:0.38px;}.cls-3{fill-rule:evenodd;}</style></defs><rect class="cls-1" x="0.31" y="0.31" width="595.08" height="841.68"/><rect class="cls-2" x="0.19" y="0.19" width="595.2" height="841.8"/><path class="cls-3" d="M238.56,185.52a507.08,507.08,0,0,0-16,105h-.24l-.24.84a10,10,0,0,0,.12,7.68L222,313.32q-.18,56.7,2.52,112.8C226.08,456,237.6,480.36,259.2,499a38.87,38.87,0,0,0,26.4-5.4,164.32,164.32,0,0,0,49.08-45.84c7.32-10.2,7.56-19.2.84-26.76a137.42,137.42,0,0,1-6.72,12.48l-8.28,13c-15,21.72-35.16,33.36-60.48,34.68-13.32-10.68-21.24-24.84-23.88-42.24A696.55,696.55,0,0,1,228.36,319c.12-6.12.24-12.24.6-18.36L293,295.44l.72-.84c2.64-5.16,2.28-10.08-1.08-14.52a306.44,306.44,0,0,0-63,8.64,606.86,606.86,0,0,1,11-82.2A193.54,193.54,0,0,1,273,132.36a80.11,80.11,0,0,1,12-8.4,16.19,16.19,0,0,0,5.28-4.68c9.72-4,18.84-3,27.24,2.64s15,11.88,19.92,18.84l.12-.84Q337,103.2,297.6,102q-29,11.16-43,39.84A235.37,235.37,0,0,0,238.56,185.52Zm-57.72-56.64Q165.36,88.2,118,89.52a39.34,39.34,0,0,0-20.4,9.36,161,161,0,0,0-50,76.44,523.2,523.2,0,0,0-22.68,127.8c-1.08,21-1.08,42.12-.12,63.24A209.52,209.52,0,0,0,51.6,460.92a34.47,34.47,0,0,0,19.92,16.32q54.36,17.64,99.6-14.88a60.91,60.91,0,0,0,8.28-7.08l-2.16,18.6q-1.8,16,5.4,25.92L190,439.92A275.35,275.35,0,0,0,191,380.4a221.09,221.09,0,0,0-45.48,6.48c-1.56,4-1.2,7.44,1.08,10.56a289.61,289.61,0,0,0,38.4-2.16l-3.24,36a89.86,89.86,0,0,1-38.28,27.36,169.7,169.7,0,0,1-35.28,9.24c-14.16,2.28-27-.12-38.4-7.2a45.12,45.12,0,0,1-18.72-22.44q-23.94-60.66-20.4-126.72a576.49,576.49,0,0,1,19-119.16,174.7,174.7,0,0,1,37.08-69A43.94,43.94,0,0,1,115,108c32.76-4.44,54.24,7.2,64.68,34.92C182.4,138.72,182.76,134,180.84,128.88Zm243.72-18.72a11.32,11.32,0,0,0-4.8,8q-11,62.82-25.08,125.4c-1.68,7.68-3.12,15.36-4.32,22.92l-1.44-28.2Q385,173.88,377.16,111l-1.08,1.08-.24-2.52h-.24a5.53,5.53,0,0,0-2.76,1.92,331.05,331.05,0,0,0-15.48,64.8q-6.66,47.34-17.76,94-14.94,62.46-33.12,124c-2.88,10-1.56,17.64,4.08,23q7.92-25.74,14.4-51.84l12.36-51.6q14.4-62.46,25.32-125.52c2.76-15.72,6.12-31.32,10.2-46.68l1.44-6.36q4.14,57.6,6.6,115.32a421.07,421.07,0,0,0,5.64,53.28l-.12,3.48a3.25,3.25,0,0,0,1.08,1.92l1.08,5.16c1.8-.84,2.64-2.28,2.64-4.56v-4.68l1.44-5.88q12.24-62.82,25-125.76l1.68-9,.48,20.88c1.32,42.6,3.48,85.08,6.24,127.44,2.76,42.84,6.36,85.68,10.56,128.28a207.54,207.54,0,0,1,.72,32.28c-.48,10,1.56,17.76,6.24,23.4a11.65,11.65,0,0,0,2.76-8.16c-1.32-40-3.84-79.8-7.56-119.28-4-42.6-6.72-85.44-8.28-128.28q-2.16-60.3-6.24-118.56Zm105.6,44.52a1150.5,1150.5,0,0,1,8.4,128.88l1.08,129a337.57,337.57,0,0,0,6.36,64.2c1.8.48,2.64-.12,2.76-1.68.84-34,.6-68.4-.84-103.08q-2.7-64.44-3-129a659.54,659.54,0,0,0-13-127.44,3,3,0,0,0-2.28.84l-.12-4.68a66.17,66.17,0,0,0-7.68,21Q510,195.54,499.8,259.2c-1.8,11.64-3.24,23.16-4.08,34.56-2.16-18-3.84-36.12-5.16-54.48-3-42.72-6.6-85.2-10.56-127.56l-.6.12-.24,2.28-.48-5.28a11.32,11.32,0,0,0-4.8,8Q463.26,179.7,456,243.36T440.52,370.92c-1,7.56,1,12.36,5.64,14.64A505.93,505.93,0,0,0,455,331.32L468.72,204.6c2.16-19.56,4.8-39.12,7.92-58.56a251.05,251.05,0,0,0,1.44,26.64q6.84,63.36,9.36,127.44c.36,9.12,2.64,16.08,7,21l-.12,1.68,1.44-.24.24.24a15.7,15.7,0,0,0,2.16-9.84,824.94,824.94,0,0,0,16.2-90.72,586,586,0,0,1,11-63,180.8,180.8,0,0,0,3.48-20.64C529.08,144,529.56,149.28,530.16,154.68Z" transform="translate(0.19 0.19)"/></svg>