<svg id="Layer_1" data-name="Layer 1" xmlns="http://www.w3.org/2000/svg" viewBox="0 0 595.57 842.18"><defs><style>.cls-1{fill:#fff;}.cls-2{fill:none;stroke:#fff;stroke-linecap:round;stroke-linejoin:round;stroke-width:0.38px;}.cls-3{fill-rule:evenodd;}</style></defs><rect class="cls-1" x="0.31" y="0.31" width="595.08" height="841.68"/><rect class="cls-2" x="0.19" y="0.19" width="595.2" height="841.8"/><path class="cls-3" d="M316,279.48c-15.72,5.16-26.88,15.6-33.6,31.56a143.86,143.86,0,0,0-9.6,34.8c-3.48,23.64,3.72,41.76,21.6,54.6a64.44,64.44,0,0,0,25.8-.84c18.84-4.32,27-14.28,24.48-30-13.92,11.76-30.36,17.16-49.2,16.2-13.8-8.28-19.32-21.12-16.56-38.28L280,342a199.55,199.55,0,0,1,50.4-7.32,12.29,12.29,0,0,0,1.32-3.24,12.76,12.76,0,0,0-1.32-8.16l-.84-.48-3.72-.6a192.65,192.65,0,0,1-33.48,4.56,36.7,36.7,0,0,0-7.92,1.2,86.65,86.65,0,0,1,10.92-18.72c13.8-18.36,29.52-21,47.16-8.16q2.16-1.62,0-5.4a22.92,22.92,0,0,1-2.16-4.56l-1.08-1A30,30,0,0,0,316,279.48ZM202.44,192.12A57.58,57.58,0,0,0,171,220.56a192.4,192.4,0,0,0-14,37.68,262,262,0,0,0-7.08,41A156.2,156.2,0,0,0,152,345.36a102.43,102.43,0,0,0,17.4,40.32c9.84,14,22.92,17.88,39.12,11.64a125.75,125.75,0,0,0,36.36-21.24,42.49,42.49,0,0,0-1.32,12.36,21.92,21.92,0,0,0,2.16,8.76l2.28,3.72c5.16-15,8.16-32.28,8.88-51.84a151.53,151.53,0,0,0-.6-19.56l-1-9.48-17.16.6A25.24,25.24,0,0,0,228.12,325l.12,8,22,.36-1.32,16.2a87,87,0,0,1-33.48,29,37.78,37.78,0,0,1-11.28,3.72l-15.48.6c-6.84-.12-11.88-3-15.24-8.88a127.74,127.74,0,0,1-17.16-72c1.68-33.48,14-61.92,37-85.56,10.2-10.56,22-12.24,35.28-4.92a78.33,78.33,0,0,0,19.92,7.92q-1.8-17.1-19.8-24.12a64.27,64.27,0,0,0-8.52-2.76,46.31,46.31,0,0,0-14.64-.84ZM372.36,392.64q40.86-2.34,83.52-2.52l.48-.72c2.4-5.16,1.92-9.72-1.32-13.8q-43.38-4.86-82.8,5.4.18-27.18,2.16-54.36c2.76-43.08,3.6-85.92,2.52-128.28a109.13,109.13,0,0,0-5.64,33q-1.8,64.08-4.8,128.28a76.44,76.44,0,0,1-2.28,15.72c-2.64,10.44-1.2,18.36,4.32,24A36.18,36.18,0,0,0,372.36,392.64Z" transform="translate(0.19 0.19)"/></svg>