<svg id="Layer_1" data-name="Layer 1" xmlns="http://www.w3.org/2000/svg" viewBox="0 0 311.12 212.4"><defs><style>.cls-1{fill-rule:evenodd;}</style></defs><path class="cls-1" d="M269,308.16a105.22,105.22,0,0,0-14,45,53.91,53.91,0,0,0,4.92,27.12Q271.26,404,295.2,394c16-6.72,20.52-16.32,13.56-28.92-6.84,14.28-18.36,19.44-34.56,15.36a10.42,10.42,0,0,1-7.44-6.84,58.11,58.11,0,0,1-3.72-23l33.24-2.88.6-.84c2.4-4.56,2.16-8.88-.84-13a110.46,110.46,0,0,0-31,3.36,50.48,50.48,0,0,1,1.92-6.6,25.8,25.8,0,0,1,6.12-10.2q21.06-22.32,42.12-.84a1.09,1.09,0,0,0,.36-.84c.6-16.92-8.64-24.84-27.72-23.52A26,26,0,0,0,269,308.16Zm-80.16-105c-16.44,13.56-27.24,31.32-32.64,53.28Q140.76,320,161.76,380.16q9.36,27,35.88,16.92c11.4-4.44,19.68-10.44,24.84-18.12a93,93,0,0,0,1,23.16l.72-.24a167.25,167.25,0,0,0,9-70.44c-8.16,1.44-16.2,3.12-24,5.16a8.19,8.19,0,0,0,.24,8.88l18.36.6-.12,2.4-.12-.84-.84-.6-1.56-.24-1.08.36a6.2,6.2,0,0,0-3,5.64,47.21,47.21,0,0,0,.72,5.76l.12,1.56c-8.16,13.56-20,21.48-35.76,23.76a6.21,6.21,0,0,1-5.4-1.32c-16-15-24.36-34.2-25.08-57.36a208,208,0,0,1,15.48-86.64c9.12-22.44,25.44-29.88,49.08-22.56a29,29,0,0,1,16,9.6c2.76,3.12,5.52,6,8.4,8.76a4.29,4.29,0,0,0,1.8-5.16q-9.9-32.76-47.16-31.92A34.22,34.22,0,0,0,188.88,203.16Zm219.36,21.12c-1.68-19-11.64-24.84-29.76-17.64-15.24,6.24-22.08,17.76-20.4,34.56a84.6,84.6,0,0,0,15.12,40.92,189,189,0,0,1,20.64,37,231.5,231.5,0,0,1,12.6,39.72,26.59,26.59,0,0,1-1.08,16.2c-23.4,13.8-44.28,10.68-62.4-9.36a17,17,0,0,1-4.2-9.72L336,325.2q-18.36,31.14,7.68,59.4c12.36,13.68,27.72,18.72,45.84,15.12A23.07,23.07,0,0,0,405,389.28a56.15,56.15,0,0,0,7.56-22.2,62.9,62.9,0,0,0-1.8-24.12,149.35,149.35,0,0,0-22.92-48.36q-19.8-27.9-20.52-61c-.12-9.24,4.08-15.36,12.84-18.24,10.92-3.48,19.68-.84,26.4,7.68A2.92,2.92,0,0,0,408.24,224.28Zm42.48,66.24a129.71,129.71,0,0,0-22.56,2.4c.36-32.76-.12-65.28-1.2-97.56-3.48,8.88-5.16,19.2-5.16,30.84q0,64.62-3.12,129a351.43,351.43,0,0,0,.72,48c.6-.36,1-.6,1-1a533.2,533.2,0,0,0,7.44-78.6L428,305c7.32.12,14.88.12,22.44-.24q-.36,50.4.84,100.8a2.32,2.32,0,0,0,2.16,2.16,1.86,1.86,0,0,0,.84-1.44c2-26.52,3.36-53.28,3.72-80.28l.24-21.6.36-.12.6-.84c2.28-4.56,2-8.88-.84-12.84h-.12c-.12-31.2-.84-62.16-2.4-92.88q-4.32,38.34-5,79.56Z" transform="translate(-149.66 -195.36)"/></svg>