<svg id="Layer_1" data-name="Layer 1" xmlns="http://www.w3.org/2000/svg" viewBox="0 0 544.32 526.46"><defs><style>.cls-1{fill-rule:evenodd;}</style></defs><path class="cls-1" d="M333.6,339.72l.12,4.92c0,8.76-1.44,37.56-4.44,86.16-3.36,53.88-6.24,89.52-8.52,106.68l11,.48,10.68.12,13.68,1.32,15,1.32a2.12,2.12,0,0,0,2-1,3.27,3.27,0,0,1,.6-1.68,11.12,11.12,0,0,1,4,5.28,13,13,0,0,1,1.44,5.28A15.34,15.34,0,0,1,377,556h-7.56c-3.6-1.56-10.08-2.28-19.56-2.4l-13.44.48-5.76-.24-4.32-.6-7.56.24c-1.8-1.08-2.88-3.84-3.36-8.28-.12-1-.12-3.48-.12-7.68,0-1.2,1.2-15.36,3.6-42.6l5-58.8.12-25.56c.12-9.6.48-18.12,1-25.56a88.82,88.82,0,0,0-.36-13.32c-.6-7.8-.84-12.36-.84-13.92q-.54-16.38,6.12-22.32A6.32,6.32,0,0,1,333.6,339.72Zm-172.32-269a9.78,9.78,0,0,1-2.76,4.8l-2-5.16A29.81,29.81,0,0,0,153,63c-4.2-6.48-10.56-9.72-19.32-9.72-17.16,0-31.56,3.12-43.08,9.36C80.4,68,72.12,76.2,65.52,86.88q-7.92,12.78-14,33.84c-2.4,8.16-5.64,20.76-9.84,37.8-.6,2.76-2.88,18.84-6.72,48.12-4.2,31.92-6.24,51.6-6.24,59,0,1.56.24,5,.72,10.56.48,6,1,11.16,1.44,15.36v74.64c.6,4.92,2.4,18.84,5.64,41.64,2.52,17.4,4.08,31.44,4.68,42,1.32,23.88,12.48,44.28,33.48,61A101.27,101.27,0,0,0,99.6,526q11.7,5,18.72,5c22.68,0,38.88-8.76,48.36-26.16a87.77,87.77,0,0,0,7.56-20.52l3.84-14.4a24.07,24.07,0,0,1,2.88,3.72l1.44-7v-28.2c-4.56,1.32-12.84,3.24-25,5.64l-19.92,3.6A4.31,4.31,0,0,1,133,444l-.36-4q0-4.86.72-6.12c.72-1.08,2.52-1.68,5.52-1.68a85,85,0,0,0,24.84-3.84l14.88-4.8q5.4-.9,7.2,4.32c1.32,3.72,1.92,11.52,1.92,23.4,0,8.52-1.8,26.64-5.28,54.36-3.36,26.4-5.52,41-6.48,43.8a14.79,14.79,0,0,1-3-5.76,33.88,33.88,0,0,1-.24-4.8c0-2.52,1.2-13.08,3.48-31.68l.84-6.72a116.75,116.75,0,0,1-8.64,15.72q-19.8,30.24-45,30.24c-17.88,0-34.44-5.88-49.68-17.76A110.46,110.46,0,0,1,50,503.4a69.81,69.81,0,0,1-9.36-21.84l-4.44-22q-3.6-17.64-6.48-44.28l-4.32-44.16V296.4c-.48-4.44-1-10.32-1.44-17.76l-.72-12.48c0-7.32,2.4-30.24,7.32-68.52,3.48-27.48,6.36-48,8.4-61.8,3.84-27.24,12.6-49.56,26.16-66.72,11.64-14.64,25.44-24.36,41.4-29,14.52-4.2,27.24-3.6,38.4,1.56s16.92,13.44,16.92,24.6A19.69,19.69,0,0,1,161.28,70.68Zm18.24-26.76a14.94,14.94,0,0,1,.72,4.8q0,12.24-8.28,114.36-8.82,111.42-14.52,154.2v8L172,326.4l10.92.36A52.6,52.6,0,0,1,194,328.2a44.47,44.47,0,0,0,8.52,1.56l9.48-.36a6.86,6.86,0,0,1,1.08-2.76,5.7,5.7,0,0,1,2.64-2.88A9.55,9.55,0,0,1,218,327.6a11.81,11.81,0,0,1,1,3.48,18.14,18.14,0,0,1-1.08,6l-3.24,7.8h-13c-4.8-1.32-11.4-1.92-19.92-1.92l-10.08-.72L163.2,341l-9-.48c-.6-.84-1.2-3.84-1.68-8.88-.36-3.6-.48-6.6-.48-9q0-14.4,6.48-78.36l6.6-64.32c1.08-32.16,2.16-56.16,3-72.12,1.56-28.08,4.44-51.36,8.88-69.72A22.07,22.07,0,0,1,179.52,43.92Zm104.4-1.44A88.07,88.07,0,0,0,298.32,52a4.67,4.67,0,0,1,2.4,2,12.09,12.09,0,0,1,.6,4.44,14.11,14.11,0,0,1-.48,4.08c-.6,2.16-1.8,3.24-3.36,3.24-1.08,0-3.36-1-6.84-2.76a37.39,37.39,0,0,1-7.44-5.4q-37.8-8.1-45.84,79.56c-1.8,19.08-2.4,42.24-2,69.48q.18,21.6,1.08,50l-.48,9c3.48.36,10.56,1.56,21.48,3.6l21.72-.36,2.76-2.16a19.63,19.63,0,0,1,3.12-2.4,15.89,15.89,0,0,1,2.16,7.68,14.75,14.75,0,0,1-1.2,6.6,16.63,16.63,0,0,1-5.76,5.88L252,283.2l-2.28-.84-8.76-.84-5.76-.36q-7.56,162.9-7.56,180.72c0,15.84,1.32,29.28,3.84,40.2,5.64,24.36,16.56,36.48,32.76,36.48s28.08-7.8,35.4-23.52a103.15,103.15,0,0,0,6.36-18.6c1.92-7.68,3.24-12.24,4-13.56,1.56,3.6,2.64,6.36,3.24,8.16a26.21,26.21,0,0,1,1.08,7.2c-13.8,37.2-26.88,55.8-39.48,55.8q-38.88,0-49.56-44.88a140.84,140.84,0,0,1-3.48-31.44l.48-15.72c0-28.44,1-52.08,2.76-71.16s2.64-44,2.64-74.88c0-7.92.72-19.56,2-34.92l.36-4.92-.24-2.28a18,18,0,0,1,.6-4.8c.24-8.76,0-18.24-.6-28.44V189.48c1.2-8.4,1.92-20.76,2-37.08.12-17.16.72-29.88,1.68-37.92a114.34,114.34,0,0,1,10.2-37.2c6.24-13.08,15.48-24.72,27.84-35ZM389.4,192.72l-4,41.52q-5.22,52.38-6.24,67.32V346.2c-.12,1.56-.36,11.88-.72,31.2q-.36,27.54-.36,37.8c0,19.92-.84,39.6-2.4,59-1.08,12.84-2.52,24.84-4.08,36H373q31.14,0,52.8-29.28c11.52-15.72,20.76-37.44,27.6-64.92A439.54,439.54,0,0,0,464,350.16q1.8-20,1.8-32.4l-.24-23.88a185.76,185.76,0,0,0-6.48-42.48q-16.92-58.68-69.6-58.68Zm-2.64-16.32q58.86,0,77.4,67.44c4,14.28,6.24,30.24,7.08,47.88.36,9.12.36,17.64,0,25.44q0,83.34-20.88,138.36-26.64,70.38-81.6,71.16l-1,4.68a10.91,10.91,0,0,1-3.12-5,16.14,16.14,0,0,1-.6-4.2c1.32-16.2,2.52-34.44,3.72-54.6q3.78-60.48,3.84-91.08l.72-15q.72-13.86,1.44-22V295.56Q375.24,284,376,265.68l1.2-30.72c1-17,3-31.56,6.12-43.68a5.17,5.17,0,0,1-2.4-2.4,13.84,13.84,0,0,1-.6-4.92c0-2.88.24-4.8.84-5.64C382,177,383.76,176.4,386.76,176.4Zm7-126.12.6,2.76c0,3.24-2.28,19.92-6.72,49.92q-7.38,48.24-11.64,67.8a539.63,539.63,0,0,1-24.84-51.84A443.87,443.87,0,0,1,332.4,65.16l-.48-.48-7,52.08c-2.76,20.76-5.4,37.8-7.92,51a9.39,9.39,0,0,1-3.24-4.92,16.33,16.33,0,0,1-.6-4.32c0-3.24,1.2-13.56,3.6-31.2l4-28c.72-3.72,1.32-8.64,1.92-14.76l1.68-15.24c1.56-12.12,4-21.48,7.2-28q5.94,14.22,20.52,53.52c8.76,23.64,15.84,41.64,21.48,54.24,2.76-22.44,4.92-39.36,6.48-51a463.67,463.67,0,0,1,10-52.44A8.89,8.89,0,0,1,393.72,50.28Zm169.8,24.36a7.06,7.06,0,0,1-1.92,3.24l-8.16-9.36c-5.16-5.88-9.84-8.76-13.8-8.76-23.88,0-41.28,10.68-52.44,31.92-7.8,15-11.64,32.4-11.64,52.44q0,6.12,20.76,58.56c17.16,43.08,28.56,73.68,34.44,91.8,13,40.44,20.52,64.68,22.8,72.48q14,49.68,14,77.4c0,12-.84,21.6-2.52,28.68q-1.8,7.92-9.72,34.2c-1.08,3.84-3.36,8.52-7,14.16a106.09,106.09,0,0,1-15.48,18.84Q508.08,563.82,476,563.76l-7.32-.24-5.88-.6c-17.52-4.44-27.6-7.2-30.36-8.16q-2.7-.9-3.24-2.52a34.27,34.27,0,0,1-.24-5,25.66,25.66,0,0,1,.6-5.4q.9-4,3.24-4l13,4.92c8.76,3.48,15,5.28,18.72,5.64,33.48,3.72,59.4-9.48,77.88-39.36a134.32,134.32,0,0,0,15.36-36.36c3-10.92,4.44-20.16,4.44-28q0-17.82-18.72-83.52c-8.4-29.16-15.24-51.72-20.52-67.44-7.56-21.72-15.36-41.52-23.16-59.4l-16.56-35A162.65,162.65,0,0,1,473.4,174c-2.16-8.52-3.24-18.6-3.24-30.36,0-26.52,4.92-48.36,14.76-65.76,8.28-14.76,19-24.72,32.28-30.12,11.88-4.68,22.68-4.8,32.4-.24s14.76,12.24,14.76,23.16A9.41,9.41,0,0,1,563.52,74.64Z" transform="translate(-23.28 -37.3)"/></svg>