<svg id="Layer_1" data-name="Layer 1" xmlns="http://www.w3.org/2000/svg" viewBox="0 0 313.06 203.93"><defs><style>.cls-1{fill-rule:evenodd;}</style></defs><path class="cls-1" d="M295.44,295.2c-13,9.48-21.36,22.56-25.32,39.12a82.06,82.06,0,0,0,1.2,43.44c5.4,18,16.68,25.32,33.72,22,20.16-4.2,28.32-14.4,24.6-30.6-7.08,10.92-17.76,17.16-31.92,19-7.8,1-13.08-1.92-16-8.76a79.11,79.11,0,0,1-6-24.12,127.78,127.78,0,0,0,43.8-.72,12.72,12.72,0,0,0,1-9.12l-.6-1.8-1.56-2.28L276,343.56c.12-19.92,9-30.72,26.76-32.4a93.36,93.36,0,0,1,27.48,2.64H332c-3.72-13.08-12.48-19.56-26.28-19.68A49.4,49.4,0,0,0,295.44,295.2Zm-77.88-93.48c-17-.36-30.48,6.36-40.2,20.28a122.81,122.81,0,0,0-18,38.76,159.22,159.22,0,0,0-5.16,42,404.43,404.43,0,0,0,3.12,43.68,91.7,91.7,0,0,0,16.92,42.72,78.71,78.71,0,0,0,9.24,10.68c12.12,3.48,23.4,1.32,33.72-6.36a58.4,58.4,0,0,0,15.6-17.4,32.89,32.89,0,0,0-1.2,16.68c.72,3.72,2.16,6.36,4.44,8.16a204.94,204.94,0,0,0,7-74.4l-28.68,3-.24,7.32,2.88,2.4,22-.24-.48,5.4-3.84-1.92a52.39,52.39,0,0,1-12.12,29.4,38.63,38.63,0,0,1-14,11,29.09,29.09,0,0,1-19.56,2.16,13.79,13.79,0,0,1-9.36-6.84A148.16,148.16,0,0,1,162,330.72c-5.88-32.28-1.2-62.28,14.28-90q15.66-28.26,43.2-20.16,9.9,2.88,20.16,6.48c-1.08-10.44-6.84-18.24-17.4-23.28Zm232.68,99.12q-1.26,38.34-5.16,76.32c-10,4.92-18,2.76-24.12-6.24a7.93,7.93,0,0,0-3.48,7.92c1.2,14.88,9.48,20.64,25,17.28a5.12,5.12,0,0,0,4.08-3.48,197.64,197.64,0,0,0,5.28-92.88C450.84,299.64,450.36,300,450.24,300.84Zm4.8-25.92a42.06,42.06,0,0,0,0-28.68c-4.56,9-4.68,18.6-.24,28.92Zm9.84-77.4q-57.06.36-113.64,4.32l-.6.72A11.45,11.45,0,0,0,350.4,213c13.32.36,26.76.6,40.08.6q-3.06,59.76-4.44,120.48a264.14,264.14,0,0,1-2.76,32.4c-1.8,11.88-.84,22.56,3.12,32.28a25.85,25.85,0,0,0,5-15l2-47a1002.42,1002.42,0,0,0-1.8-123.12q36.72-.18,73.44-2.28l.6-.84C468,205.92,467.76,201.6,464.88,197.52Z" transform="translate(-154.19 -197.52)"/></svg>