<svg id="Layer_1" data-name="Layer 1" xmlns="http://www.w3.org/2000/svg" viewBox="0 0 309.41 208.52"><defs><style>.cls-1{fill-rule:evenodd;}</style></defs><path class="cls-1" d="M284.52,306.12a85.65,85.65,0,0,0-15.72,44.52c-1.56,22.56,5.76,40.68,21.72,54.36a35.19,35.19,0,0,0,20.28-1.56c18.72-7.2,26.64-19.44,23.88-36.6-9.84,14.88-24.24,22.92-43.32,24.12-9.48-5.88-14.88-14.52-16.32-26a76.23,76.23,0,0,1-.6-12.6,112.32,112.32,0,0,0,46.44-3l.36-.84c1.92-4.92.84-8.52-3.12-10.8a228,228,0,0,0-42.48,4.68c2.76-14.4,10.8-26.4,24.12-35.88,4.08-1.44,7.68-1.32,10.92.48,6.84,3.72,12.72,7.2,17.76,10.44l.12-.84q-2.7-23-27.72-23A33.64,33.64,0,0,0,284.52,306.12Zm-75.6-108.6c-16,.6-28.68,6.84-38.4,18.84l-1.08,1a210.25,210.25,0,0,0-24.24,88.8,107,107,0,0,0,2.88,30.24A128.68,128.68,0,0,0,161.52,370a62,62,0,0,0,19.32,20.88,31.46,31.46,0,0,0,24.84,5,48.9,48.9,0,0,0,30.84-20.64l1.56,30.36q11.16-36.9,8.4-77.64l-.12-.36a33,33,0,0,0-28.2,3.12c-2.28,1.32-3,3.24-2.4,5.88l.6,2.4,20.16-1.68A31.35,31.35,0,0,1,233.4,361a66.36,66.36,0,0,1-5.76,8.52,33.73,33.73,0,0,1-8,7.44,33,33,0,0,1-11.4,4.8,29.55,29.55,0,0,1-17-1.68c-18.6-7.8-31-22-36.84-42.48a105.76,105.76,0,0,1-2-50.16A271.25,271.25,0,0,1,170.76,229c11.4-11.88,25-17.88,40.92-18a44.15,44.15,0,0,1,22.68,3.84,32.55,32.55,0,0,1,16.2,15.6l.72,1.32A38,38,0,0,0,244.56,212a28.86,28.86,0,0,0-7.08-7.2A35.75,35.75,0,0,0,226,199.56a65.22,65.22,0,0,0-14.64-1.92Zm236.16,15.72Q429.6,275,409.44,334.8a133.55,133.55,0,0,1-9.6,22.08,66.84,66.84,0,0,0-7.2,18.72c-5-18-9.6-36-13.56-54.12Q365.4,259,347.64,198.36c-1.68,14.64.12,30.12,5.28,46.44A265.18,265.18,0,0,1,360.48,275,1013.49,1013.49,0,0,0,391.8,397.68a5.09,5.09,0,0,0,3-4.44l.12-1.2a104.42,104.42,0,0,0,9.48-19.44,1131.2,1131.2,0,0,0,36.48-122.16,161,161,0,0,1,10.32-30c4-8.76,4.32-16.56,1.2-23.16A45.34,45.34,0,0,0,445.08,213.24Z" transform="translate(-145.08 -197.28)"/></svg>