<svg id="Layer_1" data-name="Layer 1" xmlns="http://www.w3.org/2000/svg" xmlns:xlink="http://www.w3.org/1999/xlink" viewBox="0 0 576.72 598.08"><defs><style>.cls-1{fill:none;}.cls-2{clip-path:url(#clip-path);}.cls-3{fill-rule:evenodd;}</style><clipPath id="clip-path" transform="translate(-14.64)"><rect class="cls-1" x="14.64" width="576.84" height="598.2"/></clipPath></defs><g class="cls-2"><path class="cls-3" d="M379.44,515.88c3,.24,8.16,4.92,15.36,14.16a124.21,124.21,0,0,1,8.4,11.88c3.24-8.76,6.6-17.4,10.08-25.8a5.29,5.29,0,0,1,2,1.92,6.48,6.48,0,0,1,.72,3.24c0,1.56-3.24,11-9.84,28.44l-14,37.32-1.08.24-.84-2.16-.24-3c0-3.48,3.48-14.52,10.56-33.12l.12-.24L390.6,537.12c-7.56-9.24-11.4-14.76-11.4-16.8A41,41,0,0,1,379.44,515.88ZM382.2,491l-6.12,13.56a79.15,79.15,0,0,1-9,14.52,3.13,3.13,0,0,1-1.44-1.32,5.4,5.4,0,0,1-.48-2.76c0-2.88,2.64-9.24,7.8-19a175,175,0,0,1,9-15.6,45.49,45.49,0,0,1,6.48,11.88,61.6,61.6,0,0,1,3.72,13.56l.36.24L399.36,491c2.76-5.4,5.64-9.24,8.52-11.64A194.12,194.12,0,0,1,420.6,499c4.92,8.28,7.32,13.2,7.32,14.76l-.24,3.24.24.72c.12.36-.48.6-1.56.6-2.88,0-6.48-3.72-10.68-11.28a185.08,185.08,0,0,1-8.28-17.16,125.74,125.74,0,0,1-7.08,13.8A81.08,81.08,0,0,1,391.08,517a126.19,126.19,0,0,1-4.2-12.36C385,498.48,383.4,494,382.2,491Zm85.2-38.52-.24,4.92c-.36,0-1,.48-1.92,1.32-1.68-1.92-2.4-3.36-2-4.32a4.4,4.4,0,0,0,1-2.4c0-1-1.2-2-3.48-3.24-2-1.08-3.24-1.68-3.84-1.68-8.52,0-14.76,7.2-18.6,21.72l-1.8,7.8,1.2-1.32,21.6-2.76q2-.18,2.52.72A11.05,11.05,0,0,1,462,476a9,9,0,0,1-.24,2.4l-.84,1-10.2,1.44-15.24,2.52c-.24,2.52-.36,4.92-.48,7.32,0,5.16.36,9,1.08,11.4,1.68,5.64,5.28,8.4,10.8,8.4l7.8-.24c2.52-1.32,4.8-3.84,7.08-7.44,2.16-4.08,3.72-6.84,4.56-8.28l1,1.8.12,2.64a15.85,15.85,0,0,1-2.52,9c-1.8,2.64-5.28,5.76-10.44,9.24q-15.84,2-20.16-10.08a30.49,30.49,0,0,1-1.56-9.36l.12-6.36c0-11.76,1.8-22,5.4-30.72,3-7.32,7-12.84,11.88-16.32q6.66-4.68,11.88-2.52C465.6,443.4,467.4,447,467.4,452.52Zm-312.12,25c1.44,3,2.16,12.12,2.16,27.6,0,5.64-1,19.68-2.76,42.12-1.92,24.24-3.48,38.28-4.8,42.24-1.08-1-2-2.88-2.64-5.64a27.4,27.4,0,0,1-.6-5.28c0-3.36.84-13.44,2.52-30.36L152,520.44v-27.6l-3.12.12-3.84.48-27.6-.24c-.84-.6-1.68-2-2.4-4.32a16.08,16.08,0,0,1-.84-4.68,17.78,17.78,0,0,1,.84-6.24c1-2.52,2.52-2.52,4.8,0l23.76-.48C148.32,477.36,152.16,477.36,155.28,477.48Zm27.6,47.16-1.2-1.68L180,521l-11.28-.72.12,4.08-.24,5,2.4.48c5.4,0,9-.84,10.8-2.4A3.54,3.54,0,0,0,182.88,524.64Zm2.4-5.16a12.2,12.2,0,0,1,.72,4.8,17.09,17.09,0,0,1-1.56,7.32c-1.32,3-3.36,4.68-5.88,5l2.64,4.68c1.56,3,3.48,7.44,5.88,13.56l-.48.36-1.08.72c-1.8-1.8-4.68-5.76-8.76-12.12l-4.68-7.44-2.64-.48-1.8-.72-1,4.68-4.08,15h-.72a13.31,13.31,0,0,1-.6-4.08,115.74,115.74,0,0,1,1.92-18.36l2.16-13.32-.6-.72a7.13,7.13,0,0,1-.24-2,16.16,16.16,0,0,1,.12-2.64l.12-.6L180,514.2C182.64,516,184.44,517.68,185.28,519.48Zm163.2-260.76.12,4.8-2.16,52.68c0,7.8.6,17.52,1.68,29.4s1.56,20.88,1.56,27c0,4.2-1.56,15.84-4.56,35-1.32-10.68-1.8-17.52-1.56-20.28l.72-15.12-2.64-56.4c0-16.8.12-28.56.24-35.16q.9-21.6,3.24-26.28A6.11,6.11,0,0,1,348.48,258.72Zm-201,102.36a49.1,49.1,0,0,0,14.4-2l.72-.6.24.24,3.84-1.68c4.2-2,6.24-3.6,6.24-4.68,0-3.24-2.28-6.24-7-8.76a28.75,28.75,0,0,0-16.2-3.12C149.4,345.12,148.56,352,147.48,361.08Zm25-19.68c3,3.6,4.56,7.2,4.56,10.92a15.5,15.5,0,0,1-4.68,10.92,20.44,20.44,0,0,1-5,4L176,382.56c7.8,13.56,11.64,21.12,11.64,22.68l-.36,3.24a5.34,5.34,0,0,1-1.08,2.4c-13-20.28-21-34.2-24-41.88l-8.52,1.08-7.56-.24-.12.72-5,33.84-.6.48-.72.84a5.6,5.6,0,0,1-2.16-1.68,6.26,6.26,0,0,1-.6-3q0-7,2.88-30.6c2.28-19.32,4.8-32.52,7.44-39.36a4.71,4.71,0,0,1,1.8,1.56,5.07,5.07,0,0,1,3.24-1.44c2.76-.36,6.12.48,10.08,2.4A32.48,32.48,0,0,1,172.44,341.4Zm-18.24-153c0,2.52-1.44,16.92-4.2,43-3.24,29.52-5,47.16-5.52,52.92,29.28.36,44.16.72,44.52,1.08,3.6.36,5.52.24,5.88-.48-.36-1.08-.24-1.8.36-2.28q3.24,1.26,3.24,6.48l-.24,2.88-1.08,2-9.84-.6-20.88.24c-14,.12-21.24.36-21.36.6-2.4,0-4-.72-4.56-2.16a12.36,12.36,0,0,1-.36-3.84c0-6.48,1.56-24.24,4.68-53.4s5.4-46.56,6.72-52C153.36,184,154.2,185.76,154.2,188.4Zm-10-105c-.72,8.88-2.64,22.44-5.64,40.8a7.19,7.19,0,0,0,2.88,1.08c10.8,0,19.08-2.4,25-7.32,4.2-3.48,6.24-6.72,6.24-9.72,0-5-2.52-10.08-7.44-15A35.52,35.52,0,0,0,144.24,83.4Zm-4.56-32.76c-1.56-1.32-2.64-4.2-3.36-8.52-1-5-2-8.64-3.36-10.92-5.16-9-18.84-13.56-41.28-13.56q-25.92,0-38.88,34c-4.44,11.88-7.32,25.68-8.64,41.16q-1.08,10.8-4.68,38.16-3.42,25.2-4.32,38.16c-1,14.28-4,40-9.12,77.28-4,29.88-6,54.6-6,74.4,0,21.48.72,42,2.16,61.68,1.44,19.32,3.84,40.68,7.08,64.2,1,7.08,2,17.64,3.36,31.68,1.56,12.48,4,23,7.44,31.56,4.92,12.84,13,25.68,24,38.52,13,15.12,24.48,22.68,34.68,22.68q29.16,0,39.24-19.8a40.25,40.25,0,0,0,4.08-13.68l.24-6.36q0-5.22,3.24-7.2c2.28.6,3.6,2.52,4.08,5.64a58.48,58.48,0,0,1,.24,6.48,45.79,45.79,0,0,1-1.56,8.76,100.69,100.69,0,0,1-5.88,17.28c-7.56,16.2-17.88,24.36-31,24.36-19.8,0-37.32-9-52.32-26.88-7.92-9.36-15.6-22.32-23.16-38.88-4.08-8.76-7-19.92-8.64-33.36C26,472.2,25,461.16,24.12,454.2q-5.22-38.34-7.32-67.56-2.16-30.24-2.16-65.16,0-31.32,8.88-98.88l6.36-48c1.92-16.2,3-28.56,3.12-36.84,1.56-20.28,3-35.64,4.08-46.08,2.16-18.36,6-33.6,11.4-45.72C57.24,26.76,67.32,13.56,79,6.36,88.8.24,99-1.32,109.44,1.92c9.12,2.76,16.92,8.52,23.52,17,6.24,8.28,9.36,16.44,9.36,24.6A10.39,10.39,0,0,1,139.68,50.64ZM321.36,156.72l-.12-.12-2.4,25.56c-1.32,14-2.52,24.48-3.6,31.56.72-1.32,2.4-2.64,5-4.08l11.88-6.24c11.52-6.84,17.28-15.72,17.28-26.88,0-4-1.8-7.68-5.28-10.92-1.2-1.2-5.88-4.68-13.92-10.56l-7.32.72A2.67,2.67,0,0,0,321.36,156.72ZM319.2,152l.12-2.64a1.7,1.7,0,0,1,1-1.08c13.32,2.52,22.44,7,27.12,13.32,2.76,3.72,4.2,8.76,4.2,15.12a46.33,46.33,0,0,1-6.24,24.12c-6.12,10.44-16,16.2-29.4,17.52a3.57,3.57,0,0,1-1-.84,5.41,5.41,0,0,1-.12-1.56l-.6,3.24-1.08.24a13.31,13.31,0,0,1-.6-4.08c0-5.28,1.08-16.92,3.12-34.8,1.44-12.36,2.64-21.12,3.6-26.52A10.35,10.35,0,0,1,319.2,152ZM193.68,184.68l-1.2,1.44c-2.4-2.76-8.52-12.84-18.24-30.24-8.64-15.36-13.68-23-15.24-23l-1.32-.24a38.77,38.77,0,0,1-11.52,1.56,29.6,29.6,0,0,1-9-1.08L136.8,135c-4.32,24.24-7.56,40.8-9.6,49.56l-1.08.24-.84-2.16-.24-3.12c0-1.56,1.44-10,4.2-25.2l4.44-23.64a7.74,7.74,0,0,1-1.08-4.56,37.37,37.37,0,0,1,.24-4.08l-.24-.36c0-.36.48-.48,1.56-.48l.72.36c.36-10.56,1-18.72,1.56-24.36a123.34,123.34,0,0,1,3.84-19.8l.36-2.16.6-1,.84-2.52a12.08,12.08,0,0,1,1.8,2.16c11.76,1.8,20.4,6.36,25.8,13.68a32.19,32.19,0,0,1,6.24,19.8A27.33,27.33,0,0,1,171.6,122a25.71,25.71,0,0,1-6.72,7.2c4.2,5.88,9.6,14.88,16.2,26.76,8.76,15.72,13.08,24.36,13.08,25.68A7.5,7.5,0,0,1,193.68,184.68ZM208.8,36.24a5.69,5.69,0,0,1,.48,2.76L208.2,51.6l-1.08,12.48V66h.6l5.16-1.32,4.56-.84c4.92,0,7.8.24,8.64.84l8.88.48,1.92,2.28a7.8,7.8,0,0,1,0,6c-.6,1.08-1.32,1.2-2.16.48L230,73.56l-5-.72a64.11,64.11,0,0,0-12.48,1.68l-7.56,2c-.72-2.16-1.08-5.64-1.08-10.56-.24-7.56-.24-13.32-.12-17.4.36-7.32,1.8-11.88,4.2-13.68Zm59.16,36c-9,43.2-14,70.92-15.36,83l-7.08,73.56q-4.32,45.54-8,74l-1.2,8.88.48-.24c5.16-3,15.36-5.76,30.48-8a152.94,152.94,0,0,0,21.12-5l14.76-4.56A20.49,20.49,0,0,1,309,292.8c-1.2-10-3.12-24.72-5.88-44L291.36,168Q278.58,77.64,276,33.12Zm13.32-55.08q0,44.1,15.36,149.16l11.52,76.92c3.84,26.4,6.24,45.24,7.2,56.64q1.8,22.14,9.84,70.8,7.56,45.9,9.12,70.56,1.26,18,14.52,78.6Q362,578.7,361.92,581.28a20.5,20.5,0,0,1-2.16,9.24,234.44,234.44,0,0,1-9.6-35.16c-.84-4.2-3.12-16.2-6.6-36.24-.6-3.48-3.6-15.36-8.88-35.64-4-15-6-27.12-6.12-36.6-.12-17.4-2.88-41.52-8-72.36-5.4-31.8-8.76-54.48-10.08-67.8a43,43,0,0,1-6.24,3.12c-4.68,1.8-12.6,4-23.64,6.48-14,3-23,5.16-26.88,6.24q-14,3.78-19.8,8.28c-3.72,30.72-8,70.68-13.2,119.88q-10.26,87.66-25,147.36a13.56,13.56,0,0,1-2-5.88,37.56,37.56,0,0,1-.6-6c0-4.2,5.52-43.32,16.68-117.6q13.86-92.16,20-145.56l.36-2.76,2.88-28L239.76,219c2.76-30.12,5.4-54.6,7.68-73.44q5.4-43.38,13-73.8c1.08-4.32,3.72-16.8,7.68-37.32C271.08,19,274,7.44,277,0l1,1h.36C280.32,1.44,281.28,6.84,281.28,17.16ZM368.16,412.8l-1.44,2.4L365,412c-1.08-1.8-2.28-2.76-3.36-2.76-5,0-9,2.4-12,7.2l5.88-.48a46.28,46.28,0,0,1,7.2-.12l.6.84a11.13,11.13,0,0,1,.12,2.4l.24.84c0,.24-.36.48-1,.84-1.56.6-6.36,1.8-14.4,3.48L346.8,423l-.6,2.4c0,1.8,1,4.08,2.76,6.84,1.92,3.12,3.84,4.68,5.88,4.68a16.1,16.1,0,0,0,11.88-4.56,12.62,12.62,0,0,0,2.4-3.24l1-1.68.84,1.8.24,2.64c0,2.28-1.56,4.92-4.56,7.68s-5.4,4.08-7.44,4.08c-6.6,0-11.16-3-13.56-9a22.9,22.9,0,0,1-1.44-6.12L344,425.4A23.86,23.86,0,0,1,348,412a20.16,20.16,0,0,1,8.52-7.68c3.24-1.56,6.12-1.92,8.52-1.08s3.84,3,3.84,6.24A8.47,8.47,0,0,1,368.16,412.8Zm1.08-98.28c-.84,10.92-2,20.28-3.36,28.08a156,156,0,0,1-7.2,28l-1.08.24-.84-2.16-.24-3c0-1.56,1-7.2,3-17.16,2-9.48,3.48-16.2,4.56-19.92l1.44-18.36c.6-7.32,1.92-12.84,3.72-16.8,1.44,8,4.2,18.72,8.16,32l9.36,32.16h.84l5.4-31.2c2.16-12.36,4.32-22.56,6.48-30.48l1.08-.36a5.75,5.75,0,0,1,1.08,2.52l.36,3.24c0,2.76-1.8,13.2-5.4,31.44-3.72,19.32-6.72,31.8-9,37.68v-.12c1.08,3.72,1.68,9.36,1.68,16.68a365.57,365.57,0,0,1-1.8,37.08l-4.2,41.16,13.2.48,13.56.36,3.84-2.16a1.28,1.28,0,0,1,0-1.32l.48-.48,1.08-1.2a51.86,51.86,0,0,1,4.08,5.76A12.2,12.2,0,0,1,420.6,472a7,7,0,0,1-1.92,5.28l-40.32-.36a31.45,31.45,0,0,1-.48-5.16q0-18.9,3.24-57.24c2.28-26.28,4.32-40.8,6.12-43.8-3-7.8-6.24-17-9.48-27.72l-8.28-27.84Zm-.84-86.4q0,5.76-3.24,27.72a38.31,38.31,0,0,1,9.48-1,29.7,29.7,0,0,0,5.64-6.12,10.79,10.79,0,0,0,2.16-5.64c0-4-2.88-7.8-8.64-11.76l-5.4-3.6Zm14.16,4.08a24.14,24.14,0,0,1,3.12,10.92c0,4.92-.36,8.16-1,9.72-1,2.16-3.48,5.28-7.56,9.48a66.48,66.48,0,0,1,5.28,12.36q4.32,12.78,4.32,16.92l-.24,3.24-.48.48-.84.84c-2-2.28-4.92-8.4-8.52-18.36-2.16-6-3.6-10.44-4.44-13.2l-5.52.6-2.88-.24c-3,18.84-5.28,29.88-6.84,33.36a5.44,5.44,0,0,1-1.32-2.28,19.34,19.34,0,0,1-.24-3.12c0-2.64,1.32-12.72,3.84-30.12,2.4-16,4.56-28.44,6.48-37.32a2.49,2.49,0,0,1-.6-1.44c0-3.12,1.08-4.68,3.24-4.56,1.92.12,4.32,1.32,7.08,3.84A34.48,34.48,0,0,1,382.56,232.2ZM360.6,115l.6,1.08.12,2.64c0,.72-2.76,5-8.28,12.84-5.88,8.28-9.24,13.44-9.84,15.36-1.92-2.28-4.08-6-6.6-11.16-3-6.12-4.44-10.68-4.44-13.92a16.16,16.16,0,0,1,.12-2.64l.12-.6,1.08-.36,3.84,10c1.68,4.8,3.6,8,5.64,9.84a75.88,75.88,0,0,1,8.16-12.48C355.08,120.24,358.32,116.76,360.6,115ZM370,14.4l-.24,3.24q0,6.66-48.12,86l-1.08.72,11.28-.6,7.92-1,27-1.32,1.08-.84a4.21,4.21,0,0,1,2.88,3.12l.12,3.6a13.72,13.72,0,0,1-.36,3.36l-1.56,2.88-14.76.36-15.48.72-5.64.36-6.24.72-7.44.36-8.28.48a11.58,11.58,0,0,1-1.32-6.12c0-1.8,6.72-14,20.28-36.6q25.2-42.3,31.08-53l-5.64-.36-6-.72q-7-.54-7.56-1.08l-4.08-.36-4.56-.72-6.84-.36-7.2-.72c-7-.6-11.52-1.8-13.56-3.6a6.32,6.32,0,0,1-1.32-4.44,19.4,19.4,0,0,1,.24-4c.36-.6,1.32-.84,3-.72l8.52,1.32,17.4,1.56c18.24,1.56,29.4,3.24,33.6,5C368.76,12.48,369.72,13.32,370,14.4ZM448.8,26l-.36,3.72-.48.48-1.08.84-6.48-6.84c-3.24-3.48-6.12-5.64-8.64-6.6l-13.32.24a100.44,100.44,0,0,0-24.24,37.8C389.76,67.56,387.12,81,386,96.12v37.32a21.28,21.28,0,0,1,6.72,1.56l30.6-.24c.48-.36,1.92-.6,4.2-.72l4.44.12.36,2.16.12,2.76a12.08,12.08,0,0,1-.36,3.24l-1.2,2.4-3.6.48-4.32,1-30.84-.36a25.59,25.59,0,0,1-6.12-2.16v6.84c-.72,5.4-1.08,13.44-1.08,24.36,0,1.56.36,5.28,1.08,11.4a205.48,205.48,0,0,0,4.32,24.24c5.52,23.28,13.2,34.92,22.92,34.92,24,0,36.84-8.88,38.52-26.52.12,0,0-.24-.12-.6s.6-.72,1.68-.72l2.4.24,1.08.84a36.21,36.21,0,0,1,.6,5.64c0,1.44-.72,3.84-2.28,7.08a54,54,0,0,1-6.12,10.8q-10.08,14.4-21.6,14.4-27.54,0-39.24-33.84c-4.68-13.68-7.08-29.4-7.08-47q0-20.34,1.08-31V90.36c1.56-16.44,4.56-30.84,9.12-43.2q9.18-24.84,27.36-40.68,17.82-1.26,25.56,7.92A17.84,17.84,0,0,1,448.8,26Zm114.48,10.8c-4.44-10.68-12.84-16-25.44-16l-11.16.24L522,22l-4.8.72c-16,4.32-27.36,13.2-34.44,26.52a64.68,64.68,0,0,0-7.2,30.6q0,14,31.56,79.8l26.76,55.8q15.12,32.22,22.8,52a495.46,495.46,0,0,1,27,94.08q7.74,43,7.68,92.52a209.12,209.12,0,0,1-5,43.92,225.27,225.27,0,0,1-14.64,44.52q-10.26,22.14-23,34.56c-9.6,9.24-19.68,13.92-30.36,13.92l-10.08-.24-8.52-.6q-39.06-15.12-52.56-25.44c-8.52-6.48-12.72-14.28-12.72-23.28l-.24-3.48a15,15,0,0,1,.84-5.4c1.56-4.92,5.76-7.32,12.36-7.32,1.2,0,1.92.84,2.16,2.64v4.68a12.78,12.78,0,0,1-.84,5.28c-1.32,2.52-3.72,4.08-7.44,4.68,9.72,8.28,17.28,14,22.68,17.52a117.15,117.15,0,0,0,37.32,15.48q54.54-5,74.16-52.56Q586,497.1,586,453.84a477.55,477.55,0,0,0-18.12-129.48Q554.34,275.94,528,220.2c-4.92-10.68-12-25.2-21.24-43.32-8.88-17.64-15-30.12-18.48-37.68q-18.18-38.88-18.12-59.52c0-16.2,2.76-29.88,8.16-41Q492.18,10.38,526.92,6V5.4q45,5,45,35.76c0,7.8-1.44,12.72-4.32,14.88l-1.2-7.32A53,53,0,0,0,563.28,36.84Z" transform="translate(-14.64)"/></g></svg>