<svg id="Layer_1" data-name="Layer 1" xmlns="http://www.w3.org/2000/svg" viewBox="0 0 411.44 374.85"><defs><style>.cls-1{fill-rule:evenodd;}</style></defs><path class="cls-1" d="M324.48,286.8l3-49q3.42-59,3.84-116.76,37.8,6.3,47,45.48,14.76,63-31.68,107a31.31,31.31,0,0,1-10.92,6.72C330.72,282,327,284.16,324.48,286.8Zm-55.56-96.72c3.36,31.56,6.36,63.24,9,94.8a134.48,134.48,0,0,0-19.32-5,44.5,44.5,0,0,0-15.48,2.4l15.6-74.64a400.87,400.87,0,0,0,8-55.44C266.88,164.64,267.6,177.24,268.92,190.08ZM267.6,113.4a65.16,65.16,0,0,0-4.44,17.76,1183.09,1183.09,0,0,1-22,125.76Q227,319.2,214.8,382.08q-5.94,31.68-14.4,62.88c-3.24,11.64-2.88,22.2.84,31.8a41,41,0,0,0,7.68-18.12q11.34-63.18,24-126l8.4-41.88c12.6,1.44,25.08,3.24,37.56,5.52l1.68,22q4.86,63.54,5.28,127.44C286,455.28,288,463,292,468.84A901.69,901.69,0,0,0,290.76,361q-4.5-63.9-10.32-127.44L268.68,106.08l-1,11.4Zm-91.08,20.28q-2.7-33.48-40.2-31.68c-17.4,5.88-30.24,17.52-38.28,34.92A370.88,370.88,0,0,0,65,259.44c-1.92,21.24-3.36,42.6-4.2,64.08-1.32,37.32,5.4,72.72,20.4,106.2,6.72,15,18.24,21.72,34.68,20.16a51.22,51.22,0,0,0,30.24-13.44,57.22,57.22,0,0,0,6.48-7l-1.44,6.36c-1.8,8-.72,14.16,3.24,18.48,2-9.84,3.72-19.8,5.28-30,1.56-10,3.36-19.92,5.64-29.76,3.36-14.76,1.32-27.84-6-39.24l-10.08-.24-21.6,7-.24,1.68a6.91,6.91,0,0,0,.24,3.12l.24,1c10.44-.12,21-.36,31.68-.84a287.89,287.89,0,0,1-2.76,37.92l-.72-2c-4.68,12.12-12.84,21.6-24.72,28.44q-27.36,16-44.52-10.44a112.77,112.77,0,0,1-18.24-53.28A527.79,527.79,0,0,1,73,240a342.3,342.3,0,0,1,28.2-93.36c7.08-15.24,18.48-25.32,34.08-30.24,10.68-3.48,20.16-1.8,28.2,5.28,6.36,5.4,10.68,9.72,13,12.84Zm36,17.16a29.65,29.65,0,0,1-17.28,18.48l2.88-53.64C214.2,120.12,219,131.88,212.52,150.84Zm-1.68-38.4a34.33,34.33,0,0,0-11.76-7l-5.4,3.36-.48,8.88,2.76-.6-7,54.72-1.2,1.08a555.72,555.72,0,0,0-7.56,95.64,28.6,28.6,0,0,0,.48,5.52,465.16,465.16,0,0,0,13.68-93l4-1.32c.12,31.8,6.36,61.68,18.72,89.4a406.34,406.34,0,0,0-18.36-89.52c11.76-7.08,18.84-17.88,21.12-32.16a47.71,47.71,0,0,0-2.16-24.6A23.36,23.36,0,0,0,210.84,112.44Zm167.88,34.44C373.2,131.76,363,121.56,348,116.28l-16.56-5.88-.48.72-1.68.36-.36.12-.24,7q-8.1,93.78-11.76,189c-1.8,44.52-4.8,88.8-9.24,133.08a42.83,42.83,0,0,0,5.88,26.88l10-165.12A88.64,88.64,0,0,0,349,286.08a79.64,79.64,0,0,0,12.12-14,135.45,135.45,0,0,0,19.08-35.52,122.86,122.86,0,0,0,7.08-45.24A144.19,144.19,0,0,0,378.72,146.88Zm22.2,17.28a537.8,537.8,0,0,0-15.24,120.48q-.9,61.2,2.16,121.8c1.08,22,8.16,41.16,21.48,57.6a41.69,41.69,0,0,0,22.8-3.84A73,73,0,0,0,454.56,444c11.64-12.24,15.36-25.44,11.4-39.48l-2.16.48-1.08.6c-9.12,24.84-26.52,38.52-52.32,40.8a46.08,46.08,0,0,1-11.64-24.72,699.22,699.22,0,0,1-7.08-126.12A161.44,161.44,0,0,0,434.52,293l.72-.84a12.54,12.54,0,0,0-.72-13.8A306.89,306.89,0,0,0,392,284.52c.36-13.32.6-26.64.6-39.84a205.52,205.52,0,0,1,19.2-88.2q12.42-27.18,41.4-25.56a39.6,39.6,0,0,1,8.4,5.64,20.76,20.76,0,0,0,10.2,4.92c.84-3.48-.24-7-3.12-10.32a106,106,0,0,0-10.32-10.44l-2.28-1a23.28,23.28,0,0,0-16.68-2.88,59.43,59.43,0,0,0-27,21.84A77.4,77.4,0,0,0,400.92,164.16Z" transform="translate(-60.68 -101.91)"/></svg>