<svg id="Layer_1" data-name="Layer 1" xmlns="http://www.w3.org/2000/svg" viewBox="0 0 394.49 408.13"><defs><style>.cls-1{fill-rule:evenodd;}</style></defs><path class="cls-1" d="M308.76,300.84c-.36,10.8,1.44,20,5.64,27.72l.48-1a687.74,687.74,0,0,0,3.6-111.12A590.37,590.37,0,0,0,308.76,300.84ZM132.84,232.68c-5.16,13.92-14.88,21.6-29.28,23l-4.8.12.12-45.72c16.68-2.76,27.72,3.84,33.12,19.56ZM94.08,209.4l.84.84,1.08.24L93.6,255.6,92,255.48a10.63,10.63,0,0,0-1.44,8.88,12.72,12.72,0,0,0,1.32,2.52l.6.72a202.66,202.66,0,0,0-.36,60.24,35.56,35.56,0,0,0,1.68,6.84,369.76,369.76,0,0,0,4.68-67.44l16.68-3.36a207.37,207.37,0,0,0,26.16,60.24l10.08,16.32c3.24-7.56,2-16.08-3.48-25.68l-30-52.68a36.52,36.52,0,0,0,16.56-21.24c3.72-12.24,1.44-23.28-7.08-33.12a43.4,43.4,0,0,0-12.24-9.6c-7.44-3.84-14-2.52-19.68,3.84l-1.68,2Zm72.48-103.32.84,8.16A33,33,0,0,0,166.2,93a37.07,37.07,0,0,0-6.36-10.68q-21.42-13.32-45-7.2c-15.48,4.08-27.36,13.2-35.4,27.36A193.56,193.56,0,0,0,61.92,143c-3.84,13.08-7.2,26.16-10,39.36-2.76,13.8-5,27.84-6.6,41.88-1.2,10.56-2.28,21.24-3.12,31.92s-1.44,21.48-1.68,32.28-.48,21.6-.36,32.4c.12,15.72.48,31.44,1.2,46.92a169.23,169.23,0,0,0,7.2,40.92,235.64,235.64,0,0,0,15.12,37.92c7.56,15.24,19.32,24,35,26.4,16,2,29.52-2.52,40.92-13.8q14-14,27.36-28.44a198.08,198.08,0,0,0,2.88,50.52,32.55,32.55,0,0,0,5.28-16.44,751.76,751.76,0,0,0-.24-91.56,93.44,93.44,0,0,0-28.08-4A23.39,23.39,0,0,0,131.16,375l-.12,4.92a110,110,0,0,1,25.2-.24,44.43,44.43,0,0,1,16.92,4.56q0,31-23.64,52.44A100.52,100.52,0,0,1,111,458.88a27,27,0,0,1-17.64-.6,62.54,62.54,0,0,1-10.2-5.16,35.16,35.16,0,0,1-5.88-4.56l-5-5.52a41.66,41.66,0,0,1-3.48-4.56l-3.12-5a39.86,39.86,0,0,1-3.48-7.68,335.93,335.93,0,0,1-12.72-51.48,448.18,448.18,0,0,1-5.76-80.16A533.22,533.22,0,0,1,70.68,134c10-30.36,30-46.32,60.36-47.88a48.63,48.63,0,0,1,31,8.52A20.6,20.6,0,0,1,166.56,106.08Zm92,30a410,410,0,0,0,3.12,46.56c3.48,29.64,6.24,59.28,8.4,89.16l-15.36-.48c-10.2-2.16-19.32-1.44-27.24,2q11.16-62.1,27.6-122.88C256.44,145.68,257.64,140.88,258.6,136.08Zm2.52-50-.72,7.08a47.06,47.06,0,0,0-3.72,11.4q-12.06,59.58-24.6,119L220.92,277.2l-2.28,1.8a10.11,10.11,0,0,0-.48,3.24,4.52,4.52,0,0,0,1,3.24L206.4,348.6a816.35,816.35,0,0,0-14.88,124.08,2.32,2.32,0,0,0,2.16,2.16,12.75,12.75,0,0,0,4.56-9.24q5.58-63.72,17.28-126.48l9.84-54a321.61,321.61,0,0,0,45.6-2.28l1.68,28.08c2.28,42.6,4.8,85.2,7.44,127.56.84,11.88,3.6,22.44,8.28,31.56a2.59,2.59,0,0,0,.72-1.68L282.24,340.8c-1.08-19.68-2.52-39.36-4.08-58.92l3.24-.48a6.43,6.43,0,0,0,1.32-3.24,12.92,12.92,0,0,0-1.08-7.32,1.93,1.93,0,0,0-.84-.48l-3.72-.6c-1.8-18.84-3.72-37.68-6-56.4-4-33.72-7-67.56-8.76-101.52a228.3,228.3,0,0,0,1-23.88l-2,3.24Zm50.52,2.76c-14.28,11.88-23.4,27.84-27.6,47.88a226.57,226.57,0,0,0-4.56,47.64,41,41,0,0,0,8.4,25.08c6.84,9,15.84,10.44,26.88,4.2,11.28-6.36,15.48-15.6,12.6-28a47.1,47.1,0,0,1-30.84,16.44l-5.4.36-3.84-37.56,3.84,1.56L319,162.12l5.4.84a11.31,11.31,0,0,0,.36-11l-1.2-2.4A50.67,50.67,0,0,0,288,155q1.44-31.32,24.6-49,5.94-4.5,12.6.36l4.56,3.48c2.52-6,1.68-11.52-2.76-16.68l-1.8-2-2.4-.72Zm45.72-.36q-5.94,48.06-8,99-2.7,64.26-6.12,128.28Q339.78,380,334.44,444c-1,12.12.6,22.68,4.8,31.68a3.4,3.4,0,0,0,1.44-2.4l.24-3.6a6.7,6.7,0,0,0,4.32,1.44l10.68.72a250.71,250.71,0,0,0,46.56.72,125.26,125.26,0,0,0,16.2-2.28c15.84-3.36,19.92-10.56,12.12-21.72l-1,.84-1.56,1.08-17.76,6a14.85,14.85,0,0,1-5.64.6,227.08,227.08,0,0,0-63.48,4.08q3.78-57.78,7.2-116.16c2.52-42.84,4.8-85.56,7.08-128.28C358,173.52,358.44,130.8,357.36,88.44Zm48.12,259.08a37.63,37.63,0,0,1,4.68,6.12c2.76-14.28-2.88-23.64-16.68-28l-2.76-.72c-21.36,23.88-31.56,52.44-30.6,85.92a40.18,40.18,0,0,0,10.44,26.4c6,6.72,13.44,9.36,22.44,7.92,14.76-2.28,24.36-10.2,28.8-23.64a17.32,17.32,0,0,0-.84-12.72c-7.68,13.56-19.32,20.4-34.8,20.64a39.65,39.65,0,0,1-10.56-1.2l-6.72-7.44-1.08-24.72a82.86,82.86,0,0,0,37.8-3q4-4.68,1.44-10.8l-1.32-2.4a63.21,63.21,0,0,0-37.8,7.8q-.18-41.76,29.76-43.92A9.54,9.54,0,0,1,405.48,347.52Z" transform="translate(-40.15 -73.19)"/></svg>