<svg id="Layer_1" data-name="Layer 1" xmlns="http://www.w3.org/2000/svg" viewBox="0 0 532.38 429.61"><defs><style>.cls-1{fill-rule:evenodd;}</style></defs><path class="cls-1" d="M122.28,304.92l50.88,5.52a1132,1132,0,0,1-.24,115.92c-.6,10.92,1.2,19.68,5.4,26.52a8.4,8.4,0,0,0,1.8-4.8c.36-22.44,1-44.88,1.68-67.44a378,378,0,0,0-6-81.12,4.3,4.3,0,0,0-1.32-.48l-24.12-2.4a90.57,90.57,0,0,0-27.84,1.8,7.76,7.76,0,0,0-.72,2.52l-.12.72.12.84.24,1.56Zm5.52-229.2c24.6-6.12,40.44,2.28,47.52,25.44A6,6,0,0,0,177.6,95c-4.2-24.84-19-37.32-44.52-37.44A98.75,98.75,0,0,0,84,90.72,154.46,154.46,0,0,0,53.16,154.2,530.4,530.4,0,0,0,39.72,282.72c.36,26.52,1.56,52.8,3.36,79a94.92,94.92,0,0,0,24.36,57.24,47.18,47.18,0,0,0,19.08,12.84c20,7.32,40.08,6,59.88-4.2q34.74-17.82,21-53.16a43.48,43.48,0,0,1-7.32,22.68c-7,10.56-16.8,17.64-29.64,21.36q-39.6,11.34-64.2-20.64A78.88,78.88,0,0,1,50,358.44a581.29,581.29,0,0,1-1.8-127.56c2-21,4.8-42,8.52-62.88A134.5,134.5,0,0,1,96,93.6,67.47,67.47,0,0,1,127.8,75.72Zm80.88.6c-.72,36.36-1.08,73-1,109.56q.18,64.8-2.28,129-2.7,64.8-4.44,128.28a255.64,255.64,0,0,1,85.56,6q5.22-7.92-.36-15.48a289.62,289.62,0,0,0-79.8-8q4.86-52,5.76-104.76c.84-42.84,1.32-85.92,1.44-129S213.36,106,212.4,63.6C210,66.84,208.8,71.16,208.68,76.32ZM484.56,418.08c2.88,18.12,11.64,31.2,26.4,39.24a33.68,33.68,0,0,0,25.32,3,51.74,51.74,0,0,0,13.2-5A48.71,48.71,0,0,0,566,440.64,31.33,31.33,0,0,0,571,414c-7.08,14.88-18.48,24.84-34.2,30q-17.28,5.58-29.16-7.92-29.88-33.66-22.08-83.28a305.67,305.67,0,0,0,62.4-9.72,17.26,17.26,0,0,0,1.8-4.92,7.76,7.76,0,0,0-2.16-7.08l-2-2-60.36,13.32c-3.48-15.24-.36-29.64,9.36-43.32q13.5-19.26,36.72-22.32a43.12,43.12,0,0,1,25.32,4.44c.6-11.88-4.92-17.88-16.68-17.76a61.73,61.73,0,0,0-38.28,13c-15.24,11.4-23.16,26.88-23.52,46.32A551.18,551.18,0,0,0,484.56,418.08ZM350.88,260l-.72-.48-3.48-.36-13.44-70.56q-11.7-63.18-19.08-126.12a176.23,176.23,0,0,0,1.32,51.24q10.62,62.82,22.2,125.64l3.6,19.32c-17.52-1.8-34.92-4.44-52.32-7.92l-7.44,1.8a25.94,25.94,0,0,0-5.16,1.68l.84-4.32Q290,187.32,301,124.32a214.12,214.12,0,0,1,7.8-31.08,71.4,71.4,0,0,0,3.48-32,152.8,152.8,0,0,0-14.88,46.08q-9.9,62.28-22.32,124.2a1081.15,1081.15,0,0,1-33,125.28c-5.4,16.44-7.2,32.4-5.64,47.76A93.29,93.29,0,0,0,249,374.88c9.24-37.56,17.88-75.36,25.8-113.16l.6,1.32q34,2.88,68,6.72l17.64,95.4Q367,397,371.16,428.88q1.8,14.76,10.08,21.6A15,15,0,0,0,382.92,440L357.6,314.52l-8.76-44.16,1.8.24.72-1.68.48-1.56a9.37,9.37,0,0,0,.12-4.08ZM408.36,59.76l-.12-2.88c-2.28,1.92-3.48,4.68-3.72,8.28-1.44,21.48-2.4,43.08-3,65q-1.62,64.44-4.8,129l-.6,11.4h-.24a4,4,0,0,0-3.48-1.32l-1.2.48c-2.4,8.4-1,13,4.44,13.8q-2,51.66-1.44,103.92a206.53,206.53,0,0,1-2.28,32.28c-1.92,12.6-.6,23,4,31.56a14.82,14.82,0,0,0,2.88-8.88l3.36-129.12.84-30.48,1.92-.48a64.33,64.33,0,0,0,15.24-6.6A840.94,840.94,0,0,1,455.64,394.2q6.84,31.32,14.4,62.4c2.76,11.52,7,21.48,12.72,29.88a3,3,0,0,0,1.92-3A136.52,136.52,0,0,0,477.6,442q-11.88-36.54-20.16-74.16a436.69,436.69,0,0,0-32.52-95.4,61.32,61.32,0,0,0,10.32-9.84,92.21,92.21,0,0,0,19.8-40,320.3,320.3,0,0,0,3-127.32q-6.3-35.28-40.32-38.4Q411.78,56.7,408.36,59.76Zm-39.24,20q-.72,64.08-2.64,128.28a221.26,221.26,0,0,1-3.36,32.28c-2.28,12.48-1.2,23,3.48,31.56a616.14,616.14,0,0,0,6.6-83.64L375,60.12C371.16,65,369.24,71.64,369.12,79.8Zm75.36,1.32A246.58,246.58,0,0,1,454.2,206.4q-8.46,47.7-50.76,62c.84-27.84,2-55.68,3.36-83.4,1.92-39,2.52-77.76,1.8-116,9.72-3.72,19.8-2.88,30,2.76A22.58,22.58,0,0,1,444.48,81.12Z" transform="translate(-39.64 -56.87)"/></svg>