<svg id="Layer_1" data-name="Layer 1" xmlns="http://www.w3.org/2000/svg" xmlns:xlink="http://www.w3.org/1999/xlink" viewBox="0 0 576.73 600.49"><defs><style>.cls-1{fill:none;}.cls-2{clip-path:url(#clip-path);}.cls-3{fill-rule:evenodd;}</style><clipPath id="clip-path" transform="translate(-13.43 -1.31)"><rect class="cls-1" x="13.08" width="577.2" height="601.92"/></clipPath></defs><g class="cls-2"><path class="cls-3" d="M583.56,556.56l-2.16-5a20.27,20.27,0,0,0-13.56.72L565,553.56l-.24,7.08c4.92,1.68,10.2,1.32,15.72-1.2A5.67,5.67,0,0,0,583.56,556.56Zm-11-25.44c-16.68,18.36-19.08,38.28-7,59.88a36.56,36.56,0,0,0,21.84-4.68l2.52-6.12c-7-2-14.64-1.56-23,1.32q-11.7-21.42,6.48-40.68l2.64-.24,5.52,3.24c2.28-5.88.6-9.72-5-11.76A13.68,13.68,0,0,0,572.52,531.12Zm-434.64-46.2c-.12,35,0,69.36.12,103.08a73,73,0,0,0,33-1.44,12.06,12.06,0,0,0,.24-10.56q-14.94.54-30.6,0l.12-.48a671.33,671.33,0,0,0,.12-100.68C139,477.36,138,480.72,137.88,484.92Zm206.64,50.76,3-23.4,9.12-1.2c-.6,9.6,2.4,17.52,9.24,23.88l.12-.12a49,49,0,0,0-7.68-24.36,21.5,21.5,0,0,0,7.32-13.8,32.71,32.71,0,0,0,.36-6.84L359.52,483l-9.36.24a74.81,74.81,0,0,0-8.28,44.64A17.09,17.09,0,0,0,344.52,535.68ZM348,504.84l.48-13.2,2.76-2.16a10.11,10.11,0,0,1,7.92.72l1.68,1.08c1.08,7.92-2.64,12.48-11.16,13.56Zm-18.72-39a191.29,191.29,0,0,1-3.24-47,45.37,45.37,0,0,0-4.8,17.52c-1.32,14.76,1.44,27.84,8.28,39.12h7.56A36.36,36.36,0,0,1,342,471.6a11.51,11.51,0,0,1,.84-3.36,81.25,81.25,0,0,0,4.56-48.6,102.29,102.29,0,0,1-10.8,47.88l-6.84-.84Zm-7.2-214a542.39,542.39,0,0,0-4,100.2l.48-.6a846.32,846.32,0,0,0,4.2-99.84C322.32,251.52,322.08,251.52,322.08,251.88ZM172.2,304.68l-.12,1.68-16.44,10.8,2.28-20L168,295.8C171.24,297.84,172.56,300.72,172.2,304.68ZM155.28,293l.12,4.08-5.28,21.48-4.08.48-.12,4,2.88,2c-2.76,12.12-3,23.4-.84,33.84l6.24-33.6,6.12-2.64a199.4,199.4,0,0,0,14.16,45.12A180.22,180.22,0,0,0,163,321.72c11-6.48,13.92-15.48,8.52-27a10.21,10.21,0,0,0-8-5.76ZM101.16,18.12c13.92,8.88,21.12,22.32,21.48,40.32,0,1.44.36,1.68,1.08.84q3.78-32.94-23-49Q76-4.26,56.16,21.6,13,78.3,13.44,153.36q.36,44.28,1.44,88.68l4.8,190.08c.84,34.92,2,69.72,3.36,104.52a72.06,72.06,0,0,0,2.76,18.12,95.44,95.44,0,0,0,4.44,12.84,104.13,104.13,0,0,0,6.12,12.12l4.92,7.68,2.52,3.84c18.6,8.16,35.64,5.76,50.88-7.32a77.71,77.71,0,0,0,26-43.2l-1,60.84,2.28.24a482,482,0,0,0,.48-134A55.43,55.43,0,0,0,87.12,480l.72,4a198.44,198.44,0,0,1,32.28-4.8l.24,13.2-3.48-1.92a101.19,101.19,0,0,1-11.16,64.8c-8,15-20.64,23.28-37.56,24.72A65.71,65.71,0,0,1,50,578.52C34.44,564.24,27,545,27.72,521.16c.48-16,.12-31.92-1-47.88a2800,2800,0,0,1-1-364.56q3.42-53.64,43.68-84.84C78.24,17,88.32,14.64,99.6,16.56Zm58-9.24c20.28,1.56,25.8,11.64,16.32,30.24-4.68,9.24-12.72,14-23.88,14.52l6-45.12ZM195.36,172.2l-31.2-5.52.6-49.56q-10.08,27.36-3.84,59.88l33.72,2.88ZM244.92,56.28q7.56,62.82,18.24,125.64c5.4,31.32,10.92,62.64,16.8,94l-.48-.72a418.11,418.11,0,0,0-67.56,14.52l1.8-32.28C216,214.56,220,172,225.84,129.84a824,824,0,0,1,17.4-89.16ZM184.32,29C184.2,14.4,177,5.64,162.72,2.88a6.14,6.14,0,0,0-4.92,1.2l-1.08-1.92c-3,3.72-5,8.76-5.88,15.24-1.68,12.24-3.12,24.6-4.44,37l-4.68.36v7.8l3.48.84a341.67,341.67,0,0,0-6,49.32,33.14,33.14,0,0,0,2.16,14.4l9-64.32,11-1.68a221.17,221.17,0,0,0,8.88,39.48,198.61,198.61,0,0,0,11.76,29c.48-11.4-1.92-23.52-7.2-36.6-4.32-10.68-8.28-21.48-11.76-32.4A26.33,26.33,0,0,0,175.8,52,33.61,33.61,0,0,0,184.32,29ZM244.8,8.88A27.77,27.77,0,0,0,241.92,21a348.14,348.14,0,0,0-15,61.92c-6.36,42.36-11.28,84.84-14.76,127.68-3.48,42.6-6.48,85.32-9.24,128.16-2.76,42.6-6.36,85-10.8,127.32-4.44,42.12-8.52,83.76-12,125.16,1.56,1.08,2.64.72,3.12-1.32a547.43,547.43,0,0,0,12.24-76.8c3.72-42.48,7.2-85,10.2-127.56q3.06-44.28,5.76-88.8l68.28-11.28.48-.6,1-2.52,4.8,25.32Q298,370.14,306.6,433.32q8.82,63.54,19,127c1.8,11.64,5.28,22,10.44,30.72a4.82,4.82,0,0,0,1.92-4.8c-3.48-24.48-7.32-49-11.76-73.32q-11.52-62.46-20.52-125.64t-21.24-126q-12.24-62.64-21.48-125.88-8.28-55.8-16-111.24a94.88,94.88,0,0,0,1.08-20l-2.88,7.56ZM367.68,419.64c1.92-4,1.44-7.8-1.32-11.4a329.05,329.05,0,0,0-6.84-48.6A343.13,343.13,0,0,1,342,405l-.24-.72A258.81,258.81,0,0,0,339,358.8a9.18,9.18,0,0,0-3.24,5.88A95.09,95.09,0,0,1,329.4,386q-6.84,15.66-6.84,29.52a145.08,145.08,0,0,0,14.52-38.4l.24.84c.36,13.08,1.2,26.16,2.52,39,9.24-12.48,15.72-27.24,19.44-44.4.84,8,1.2,16.08,1.32,24.36C360.72,406.68,363.12,414.24,367.68,419.64Zm-1.92,1.92q-18,20.88-9.36,49.08c2.28,7.44,7.56,11,15.6,10.68l4.56-5,1.8,8.16a80,80,0,0,0,1.8-33.72l-10.56,3.6-.48,3.24,7.56,1.68.12,5.52-6.72,7.44c-11-3.48-14.88-11.64-11.64-24.72a39.82,39.82,0,0,1,8.16-15.6,16.33,16.33,0,0,1,7.68,1.56l1.8,1.2,1.68.24a4,4,0,0,0,1.56-3.48,11.42,11.42,0,0,0-1.92-5.88l-1.56-2.4-1.44-.36Zm1.08-139.8c-.12,15.24-.48,30.48-1.32,45.72l-.36,7.2-19.68-79.56-1,.24-.24-.36-.12-.12h-.24c-2.28,12.24-4.08,24.48-5.28,36.84a457.31,457.31,0,0,0-2,48l.24,11.76,7.56-94.08c5.16,24.24,10.08,48.48,15,72.6A104.45,104.45,0,0,0,362,340.56l3,9a38,38,0,0,1,1.44,5.28l.48-3,1,1.56,7.92-99.6C370,261.36,367,270.72,366.84,281.76Zm0-222a419.27,419.27,0,0,1-68.16,4.92l-.12.84v3.24l.12.84a334.64,334.64,0,0,0,67.44.72q-27.18,59.4-55.92,117.12c-9,18.12-13.44,36.72-13.08,55.8q33.66-2.88,67.92-7.8a11.74,11.74,0,0,0,1.08-4.92,11.21,11.21,0,0,0-1.08-4.8A621.92,621.92,0,0,1,301.92,230a291,291,0,0,1,17.28-46Q346,128.46,371.76,72.48a6,6,0,0,0,3.24-4,10.93,10.93,0,0,0-.6-7.32.91.91,0,0,0-.84-.48Zm76.32-2.16-13.44-.24a9.63,9.63,0,0,0-5.28,2.88c-17.52,17.88-26.88,40.08-28.2,66.36q-3.06,64.44-5.16,129.12-2.16,64.44-3.48,129c-.84,43.08-.36,85.92,1.68,128.4.6,12.48,5,22.8,13.44,31,7,6.72,15.36,8.52,25.32,5.52q34.2-10.44,41.4-44.88c1.8-8.52.72-15.24-3-20.4a157.61,157.61,0,0,1-9.84,26q-12.6,26.46-42.72,23.4a8.35,8.35,0,0,1-6.12-3.36q-15.48-20.88-15.12-49.32,1.08-64.44,2.52-129l1.32-55.44A154.67,154.67,0,0,0,442.92,298l.36-.84a12.22,12.22,0,0,0-1.2-12.12,221,221,0,0,1-45.36.72l1.44-61.92c.48-21.48.6-42.84.36-64.2a162.26,162.26,0,0,1,21.36-83.52,27.23,27.23,0,0,1,22.44-5.16,3.24,3.24,0,0,1,2,1.2,117.94,117.94,0,0,1,15.36,21.24A16.7,16.7,0,0,0,460.92,80,38.9,38.9,0,0,0,443.16,57.6ZM480.6,6.84,480,6c-4.32,9.36-6.6,20.16-6.72,32.4q-.9,64.26-1.08,129.12t3.6,129.12q3.6,64.08,3.6,129t-2.4,129a79.14,79.14,0,0,0,2.28,23,14.73,14.73,0,0,0-1,4.56,9,9,0,0,0,3.84,8.16c28.68-5.16,50.76-20,66.24-44.4Q583,491.64,584.88,425.88q2-64.62,2.76-129,.36-40.14-2.88-79.68A897.54,897.54,0,0,0,565.44,90.84Q550.14,23.52,481.56,5.4l-.48.72Zm66.48,54.24A233.82,233.82,0,0,1,571,142.32c4.68,42.84,8.28,85.8,10.92,129.12q2.34,39.78,1.8,79.56A673.42,673.42,0,0,1,570,477.48q-13.5,65.52-74.28,94a28.57,28.57,0,0,0-12,1.56c1.2-13.32,1.68-26.64,1.56-40.2-.6-43-1.08-86-1.2-129.12s-1.56-86.16-3.84-129-3.48-85.8-3.6-129.12c0-43.08,1.2-85.92,3.6-128.28l.48-.72,1.2-3.12,1.8.72c6.84,2.76,13.8,5.28,20.64,7.8q12.78,8.46,25.2,18A62,62,0,0,1,547.08,61.08Zm25.2-50.16,2.16-2L579,8.76l4.92,2.64C578.28-4,571.44-1.8,563.64,18a58.91,58.91,0,0,0-1.44,41c7.44,6.84,15.72,8.52,25,4.8l3-7c-18,2.28-27-5.88-26.88-24.24,6.24,4.68,12.72,4.8,19.32.6l.12-3.36c-5.64-3.36-12-3.72-18.84-1.2L570.36,11Z" transform="translate(-13.43 -1.31)"/></g></svg>