<svg id="Layer_1" data-name="Layer 1" xmlns="http://www.w3.org/2000/svg" viewBox="0 0 305.09 213.36"><defs><style>.cls-1{fill-rule:evenodd;}</style></defs><path class="cls-1" d="M283,243.24l-13.44,56a38.53,38.53,0,0,1,17.28-3.6l3.72.36,2.28,2.16-3.12-23.4c-1.8-14.76-3.24-29.52-4.2-44Zm45-44.64,7,.6,1.44.48a24.42,24.42,0,0,1,7.8,15.36,10.17,10.17,0,0,1-1.68,7.44,3.85,3.85,0,0,1-3-3.36,27,27,0,0,0-2.64-7l-1.92-.6-7.32-.48a54.79,54.79,0,0,0-13.92,24,48,48,0,0,1,17.52-2.88,12.93,12.93,0,0,0,5.64.84h1.08a5.75,5.75,0,0,1,1.44,4,5.94,5.94,0,0,1-.84,3.24l-2.16,1.92a7.32,7.32,0,0,1-1.92,1.44,100,100,0,0,1-22.92,3.48l-.12,5.4A23.59,23.59,0,0,0,316,266.76c11.64-1.44,21.12-7,28.44-16.68,1.08,11.16-4.08,20.4-15.24,27.72a17.64,17.64,0,0,1-13.68,2.28q-17.64-32.58,0-68.28A30.21,30.21,0,0,1,328,198.6Zm-43.8-.24c-.12-.48.24-.72,1-.6l.24,1.08a15.69,15.69,0,0,1,2.76-2.88q.18,8.1-.36,16.56,9.54,55.26,17.52,110.88L311,363.12l4.44,29.52c.72,4.56-.72,7.2-4.32,7.8q-10.26-47-17.28-95l-.36,1.08A6.44,6.44,0,0,1,291.6,309a120.07,120.07,0,0,0-24.6.6l-14.4,57.6a217.12,217.12,0,0,1-10.68,31.56,9.76,9.76,0,0,1-4.44,3.36c-1.56-12.84.72-26.16,6.6-39.84a210.9,210.9,0,0,0,10.56-30.72q15.66-61.56,27-123.84a23.29,23.29,0,0,1,2.52-7.2ZM184,190.56c23.76,3.48,34.56,17,32.52,40.44l-.36,1A105.76,105.76,0,0,0,203,211.44a15.41,15.41,0,0,0-9.72-5.52c-13.56-1.92-22.2,4.2-25.92,18.48a389,389,0,0,0-12.72,106.44,98,98,0,0,0,8.64,40c4.68,10.44,12.84,13.08,24.72,7.92a61,61,0,0,0,27.84-23.64l1.68-13.68c-4.92-.12-10,0-15.36.36a15.09,15.09,0,0,1-.36-7.32l.36-.84a45.48,45.48,0,0,1,7.8-4.92l11.28-.24a231.79,231.79,0,0,1-5.88,73.8l-.6,1c-3.24-7.08-4.32-15-3.36-23.76a41.55,41.55,0,0,1-12.12,10.92c-10,6.24-20.64,7.56-32,4.08-14.4-18.84-20.4-41.16-18.12-66.72a290,290,0,0,0,1.2-33.84c-.84-35.64,7.8-68.28,25.68-97.68A12.21,12.21,0,0,1,184,190.56ZM403.2,223c-7.2-11-16.8-14.88-28.8-11.4a9.78,9.78,0,0,0-6.36,6.12q-7.38,19.62,1.8,38.88a554.61,554.61,0,0,1,25,61q11.34,32.94.84,64.68a25.62,25.62,0,0,1-16.08,16.68c-11.64,4.32-22.32,1.56-31.92-8.4Q327.3,369.24,329,338.4a98.08,98.08,0,0,0-.6-17.76,7.71,7.71,0,0,1,2.16-6.48c6.6,9.24,9.6,20.64,8.76,34.2-.84,14.76,5.64,25.56,19.2,32.16,15.12,7.32,26.28,3.36,33.6-12.12A60,60,0,0,0,395,361a320.3,320.3,0,0,0-29.16-95.88,86.45,86.45,0,0,1-8.52-35.64c-.48-15.6,6-27.12,19.32-34.56,18.84,1.92,27.72,11.16,26.88,27.72Zm50.52-24.84q.36,63.54-1.44,128.16a633.11,633.11,0,0,1-6.6,76.32c-.12,1.44-.84,1.68-2.16.84q.18-50.76,1.8-102.12a82.66,82.66,0,0,1-22.92,4.56q-.54,41.58-2.64,82.44a26.6,26.6,0,0,1-3.36,12.12c-4.08-8.52-5.52-19.08-4.32-31.56a696.13,696.13,0,0,0,2.64-96.36A324.88,324.88,0,0,1,420.24,196q1.62,31.14,2.16,64.08l.12,34.2,23.28-7.92.36-11.28q1.44-38.7,6.36-76.08A.94.94,0,0,1,453.72,198.12Z" transform="translate(-148.69 -190.56)"/></svg>