<svg id="Layer_1" data-name="Layer 1" xmlns="http://www.w3.org/2000/svg" viewBox="0 0 595.57 842.18"><defs><style>.cls-1{fill:#fff;}.cls-2{fill:none;stroke:#fff;stroke-linecap:round;stroke-linejoin:round;stroke-width:0.38px;}.cls-3{fill-rule:evenodd;}</style></defs><rect class="cls-1" x="0.31" y="0.31" width="595.08" height="841.68"/><rect class="cls-2" x="0.19" y="0.19" width="595.2" height="841.8"/><path class="cls-3" d="M286,204.72a48.72,48.72,0,0,0-10.2,17.76A341.08,341.08,0,0,0,260,348.6a74.74,74.74,0,0,0,11.88,36.48q16.74,25.92,46.32,9.72c17.4-9.6,24.12-23,19.92-40.32A48.55,48.55,0,0,0,326.4,367.2a38.26,38.26,0,0,1-22.92,16.44c-10.8,2.76-18.84.24-24.24-7.8-9.48-14-14-30-13.8-47.88.12-8,.48-16,1.08-23.88l.24.24a244.76,244.76,0,0,1,49.8-6.12l.72-1c2.88-5.28,2.64-10.32-.72-15.24a98.35,98.35,0,0,0-48.72,9.12,354.53,354.53,0,0,1,11.16-57,37.75,37.75,0,0,1,17-22.44q28.08-17.1,45.12,10.44a15.31,15.31,0,0,0,2.28,4.92l2,2.4.24-.24v-.84q-1.62-35.46-38.4-38.16A49.65,49.65,0,0,0,286,204.72Zm-88.2,2c17.16-3,30.84,1.92,41.16,14.76a43.41,43.41,0,0,1,2.64,3.84q4.5-19.26-16.2-27.36-36.54-14.76-55.8,23.76a167,167,0,0,0-17.64,69.84,426.19,426.19,0,0,0,4.32,78.24A40.58,40.58,0,0,0,169,394.32a42.7,42.7,0,0,0,18.36,10.56A38.11,38.11,0,0,0,203.76,406a52,52,0,0,0,31.44-17.4l2.28,19.08c8.52-20,10.08-42.84,4.8-68.64-16.32-5.4-28.44-2-36.24,10.08a8.66,8.66,0,0,0-1,7,54.58,54.58,0,0,1,32.4-3l-.36,2.76-2.76,1L234,367.2c-9.12,14.64-22.68,21.36-40.68,20.28-16.68-.36-27-9.6-31-27.6a265.07,265.07,0,0,1-5.52-72.36,120.09,120.09,0,0,1,15.84-53.64,74.56,74.56,0,0,1,17.52-21.12ZM457.2,289.92c.12-21,.36-41.88.84-62.88a196.09,196.09,0,0,0-1.8-32.16c-5.16,11.88-7.68,25.2-7.32,40l.6,50.64A69.32,69.32,0,0,0,427,290V227c-1.32-.24-2,.24-2.16,1.56a798,798,0,0,0-4.92,108.84,221.31,221.31,0,0,1-1.68,32.16c-1.56,12.24,0,22.92,4.44,31.92a187.88,187.88,0,0,0,4.8-46.32l-.36-52.2,22.44-1.56V364a86.49,86.49,0,0,1-1.68,15.84c-2.16,10-.6,17.88,4.56,23.88A197.43,197.43,0,0,0,457.32,356c-.24-19.56-.36-39.24-.24-58.8A15.14,15.14,0,0,0,457.2,289.92Zm-23-84.72-.6-1.2-.36-.72c-26.52-7.8-53.4-7.8-80.88,0l.6,11.64,32.16-.72q-5.22,95.22-2,188.28a850,850,0,0,0,6.24-188.28l43.32,2.88a12.14,12.14,0,0,0,1.92-10.68Z" transform="translate(0.19 0.19)"/></svg>