<svg id="Layer_1" data-name="Layer 1" xmlns="http://www.w3.org/2000/svg" viewBox="0 0 551.41 502.59"><defs><style>.cls-1{fill-rule:evenodd;}</style></defs><path class="cls-1" d="M151.92,417.24c-.12,43.08,1.08,85.8,3.36,128.28a264.62,264.62,0,0,0,55.2-1.44c3-4.32,3.36-8.88.84-13.8-17.52.48-34.68.36-51.48-.24-.6-27.84-.84-55.68-1-83.64-.12-22-.72-43.32-1.68-64.08A111,111,0,0,0,151.92,417.24ZM129.24,86Q128.16,49,87.72,48.72c-27.48,6.84-45.48,23.52-54.24,50A403.12,403.12,0,0,0,13.2,216.24c-1.08,43.08-1.56,86.16-1.68,129-.12,37.56,1.2,74.88,3.72,112q3.24,45.72,41.28,67.8c12.6,7.2,24.48,6.84,35.52-1.08a61.37,61.37,0,0,0,17.52-19.32,97.38,97.38,0,0,0,7.8-16.44c.12,19.32-.12,38.52-.84,57.84q3.42.9,3.6-3.24l4.2-66.48q2.16-33.84-9.36-63.36l-2.4-.36C99.84,413.64,87.12,415.2,74.4,417a3.81,3.81,0,0,0-1,2.4,7.92,7.92,0,0,0,.72,3.24l40.2,1.56a6.22,6.22,0,0,1,1.32,3.24c.6,11.28,1,22.56,1.32,33.72A192.18,192.18,0,0,1,97.08,502.8C90.6,513,81.36,516.36,69.24,513c-28.8-8-44.76-27.24-47.88-57.36a786.18,786.18,0,0,1-4.2-92.52c.6-43,.84-85.92,1-129A485.53,485.53,0,0,1,32.88,116.28c5.76-22.68,19.32-38.76,40.8-48q38-16.38,55.08,18.36Zm179.64,68.28L319.8,101l5,50.88ZM199.08,169.8A252.24,252.24,0,0,0,208,126.48c1.8-16.44-1.8-31.44-10.8-44.88-8.52-12.72-20.4-19.2-35.64-19.32V58.2l-2.28,4.56-1.44,7.08.36.36,1.2.24a394.72,394.72,0,0,0-4,67.32q2.52,84.78-2.52,169.56a202.79,202.79,0,0,0,2.76,49,36,36,0,0,0,1.8,7.08,184.29,184.29,0,0,0,5.88-47.88l-1-94.08,6.36-1.08a18.2,18.2,0,0,0,5.76-2.76,46.83,46.83,0,0,0,4.56-4,73.11,73.11,0,0,0-.12,31.44L201.6,350.76a61.55,61.55,0,0,0,7,17.76,51.64,51.64,0,0,0,.36-26.4Q193.44,277.32,180.24,212A177.57,177.57,0,0,0,199.08,169.8ZM184.92,77.28c10.8,9.48,16.2,22.32,16.2,38.28A249.86,249.86,0,0,1,197.28,159a78.58,78.58,0,0,1-18.6,38.76,44.41,44.41,0,0,1-16.44,11.16l-.72-138.6a31.86,31.86,0,0,1,22.32,6.36ZM325.68,62.4a17.13,17.13,0,0,0-1-2.64,372.87,372.87,0,0,0-12.36,43.92l-8.64,40.92c-3.24,15.36-6.12,30.72-8.76,46.08a115.91,115.91,0,0,0-1.68,29l14-57.48,18-.48A254.86,254.86,0,0,0,333,214.68l1.92,7a21.18,21.18,0,0,0,1.92-11.88l-5.64-49,7.8-1.68-.36-8.76L330,151a262.51,262.51,0,0,1-3.6-59.76l.6-16A50.74,50.74,0,0,0,325.68,62.4ZM290,58.08,281.4,58a31.38,31.38,0,0,0-18,11.64q-18.18,23.22-19.8,54c-2.28,41.88-2.88,83.76-1.8,125.88q1.8,64.44,2.28,129a1155.35,1155.35,0,0,0,8.28,129.36c2,16.44,9.36,29.28,22.2,38.52a9.16,9.16,0,0,0,10.2,1.2q38.88-18.72,55.92-60l-.12-.72-.6-1.56-.36-.12A59.43,59.43,0,0,0,321,502.92Q307,523.44,284.28,531c-4.68,1.56-8.4.36-10.92-3.6q-17.28-26.46-18.72-59.76-3.06-64.44-4.08-129.12l-1-45.36a189.46,189.46,0,0,0,42.84-12l.36-.84c1.8-4.68,1.44-9-1.2-13a161.86,161.86,0,0,1-42.24,15.24l-2-73.2a521,521,0,0,1,7.32-106.92q5.22-31.14,36.72-32.4l2.52,2.28,1.08.72a13.88,13.88,0,0,0,5.16,6,2.21,2.21,0,0,0,1.56.48,10.72,10.72,0,0,0,.12-9,29.06,29.06,0,0,0-10.44-12.12ZM480.72,263.76a11.25,11.25,0,0,0,.84,7.44l44.88-9.36a273,273,0,0,0-3.36,43.68c0,16.44.72,32.88,2,49.32a1064.53,1064.53,0,0,1,3.12,128.4,226.82,226.82,0,0,0,6.36,63.84,3.89,3.89,0,0,0,2.76-3.72q1.08-14.22,1.08-28.44c-.24-42.84-1.92-85.68-5.16-128.28-3.24-41.88-5-83.52-5.64-125l34.08-8,.24-.84c2-4.68.84-8-3.48-10q-39.42,8.28-77.4,19.44ZM373.92,64.68,369,64.44l-.48.24a49.68,49.68,0,0,0-13.32,8.88A52.59,52.59,0,0,0,353,100.2a225.4,225.4,0,0,0,17.4,56.64c8.52,18.6,7.8,36.12-1.92,52.32-5.64,2.76-10.2,1.8-13.56-3l-.36-5.64a4,4,0,0,0-2.88-3.84,11.8,11.8,0,0,0-3.24,7.08c-.84,8.52,2.16,15,9,19.68,4.92,3.36,9,2.76,12-1.8q20.7-30.42,7.56-67.8c-5.64-16-11.4-31.56-17.4-47-6.36-16.68-1.44-26.52,14.52-29.64l3.6,3.6,1.8,1a8.62,8.62,0,0,0,1.32-4.08A13.12,13.12,0,0,0,373.92,64.68ZM507.6,81q36.9,35.64,26.28,88.56a147.52,147.52,0,0,1-10.08,31.68c-8.76,20-23.28,32.76-43.44,37.92,3.48-3.24,4.2-7.8,2-13.8-.24-12.12,0-24.24.72-36.24,2.28-39.24,3.72-78.12,4.08-116.64A29.32,29.32,0,0,1,507.6,81ZM487.32,60.84a8.85,8.85,0,0,0-2.76,4.08,8.61,8.61,0,0,0-.72,3.48q-3.06,22.14-4,44.64-3.06,64.8-2.88,128.28l2.76-1.68-.24.36a14.77,14.77,0,0,0-1.08,6.48,11,11,0,0,0,1.56,5.76q21.6.9,34.56-18.36,38.34-56.34,22.08-122.52c-6.6-26.76-23-42.84-49.32-48ZM441,84.12c3-14.52-3.6-21.72-20-21.6-13.92,5.16-22.32,15.12-25.2,30-2,10.92-3.6,22-4.56,33.24q-4.14,49.32-5.16,99.12c-.84,43.08-1.44,86-1.68,129.12q-.36,65-5.16,128.88-2.7,35.46,15.12,63.84a8.42,8.42,0,0,0,6.6,4.2q42.84,4.14,58.32-35.16a114.37,114.37,0,0,0,8.52-47.16,2.88,2.88,0,0,0-1.2,1.2,355.19,355.19,0,0,0-15.36,35q-12.42,33.3-49.68,30.36c-11.76-13.92-16.92-30.72-15.6-50.4,3-42.6,4.68-85.68,4.92-129l.6-65.76,2.52.6,2.4-1a378.73,378.73,0,0,1,44.88-13.08l.24-1a13.58,13.58,0,0,0-2.64-10.44,182.85,182.85,0,0,0-47.28,13.32l1.08-51.72q1.26-62.28,7.2-124.2a29.76,29.76,0,0,1,9-19q19.62-18.9,31.68,1.08Z" transform="translate(-11.51 -48.72)"/></svg>