<svg id="Layer_1" data-name="Layer 1" xmlns="http://www.w3.org/2000/svg" viewBox="0 0 561.19 526.5"><defs><style>.cls-1{fill-rule:evenodd;}</style></defs><path class="cls-1" d="M121.56,254.64q2.7,64.26,4.44,126.6c22.2-.12,43.92-.6,65.28-1.68,2.88-4.56,2.64-8.88-.84-12.84a256.19,256.19,0,0,1-60.6.48v-.84q0-62.28-5.16-123.36C122.4,246,121.44,250,121.56,254.64ZM102.48,49.2a47.49,47.49,0,0,0-27.84-3.72A130.34,130.34,0,0,0,39.48,65.64,25.74,25.74,0,0,0,32.64,74a238.7,238.7,0,0,0-23,78.12A936.87,936.87,0,0,0,3.12,279.48Q4,344.28,7.8,408.6c1.32,21.48,3.48,42.72,6.72,64,1.68,10.92,3.24,21.84,4.56,32.76,4.2,32.76,22,53.16,53.28,61A37.09,37.09,0,0,0,92.52,566q32.22-9.18,39.6-43.32,2.7-12.06,4.32-24.12.54,35.28,2.88,70.44.54,2.88,3.24,2.16a157.07,157.07,0,0,0,1.68-43.2,202.15,202.15,0,0,1,.48-42.6c2.52-22.8-.36-44-8.88-63.6-16.56,1.08-32,2.64-46.56,4.56l-.12,1a8.06,8.06,0,0,0,3.36,7.2c14.28.12,28.32.12,42.24-.24a13.78,13.78,0,0,1,2.28,8.16l-.48,22.8a27,27,0,0,0-10-12.36,121.47,121.47,0,0,1-4,69.12,46.32,46.32,0,0,1-11.52,18.24Q91,560.4,61.92,550.08a35.22,35.22,0,0,1-20.28-17.16,227.57,227.57,0,0,1-26.28-94c-2.52-42.6-4.8-85.44-6.6-128.28a1049.89,1049.89,0,0,1,2.4-127.56,443.87,443.87,0,0,1,13.44-78C29,88.44,38.88,75.72,54.12,67.2A53.81,53.81,0,0,1,73.8,60.6q44.46-6.12,52,34.44l.48.6a6.81,6.81,0,0,0,2.16,1.44l1.2.12a34.8,34.8,0,0,0-2.16-23,49.76,49.76,0,0,0-22-24.12A11,11,0,0,1,102.48,49.2Zm93,35.28c3.12,26.76-6.48,46.44-28.68,58.8.84-25.44,1.68-50.64,2.76-75.72a44.21,44.21,0,0,1,14.4-2.4A26.32,26.32,0,0,1,195.48,84.48Zm1-11.88a71.56,71.56,0,0,0-6.84-13.08l-5.4-3a18.86,18.86,0,0,0-12.48,2.16l-1.8,1.08.24-5a413.85,413.85,0,0,0-8.4,80.88,450,450,0,0,1-4.44,59.52,93.22,93.22,0,0,0-1.08,20,28.65,28.65,0,0,0,3.6,13.2,316.94,316.94,0,0,0,6.6-73.08l13.08-7.68a286.75,286.75,0,0,0,22.68,86c.12.36.6.6,1.2.72l1.8-2.76-23.88-85.44A70.12,70.12,0,0,0,201,99.36,63.61,63.61,0,0,0,196.44,72.6ZM330.12,61.44Q292.68,112,296.76,178.2a190.75,190.75,0,0,0,10.32,51,52.84,52.84,0,0,0,5.16,10.44,7.33,7.33,0,0,0,4.68,3.24A27.2,27.2,0,0,0,335,241c17-7.68,26.88-20.4,29.4-38-10.68,15.72-25.32,24.72-44.16,27l-3.48.36c-12-20-15.84-42.12-11.52-66.48l32.4-1.44a10.41,10.41,0,0,0,1.08-7.56,12.09,12.09,0,0,0-1.68-3.84L306,155.64c-2.88-32,6-58.08,26.76-78.36,3.36-3.24,7.56-4.32,12.72-3.12l7.08,6.24c1.08-13.56-5.4-20-19.44-19.2Zm-61.68-1.68a19.26,19.26,0,0,0-9.24,5.4q-27.9,27.9-31.08,68.52-5,62.82-6.6,126.6l-.72,40.2a1.1,1.1,0,0,0-.48.72,11.89,11.89,0,0,0,.12,6.48h.12l-1.08,81.72c-.36,43.08,1.08,86.16,4.44,129a97.65,97.65,0,0,0,8,31.92c6.72,15.24,18.36,19.68,34.8,13.56,31.56-11.64,46.08-34.2,43.8-67.68l-1.8,4.68A190.33,190.33,0,0,1,295.2,526.2c-13.56,21.24-32,27.84-55.2,20a82.91,82.91,0,0,1-10.32-35.64c-1.56-24.84-2.64-49.8-3.48-74.76a296,296,0,0,0,1.32-37.32c-.6-30.36-1-60.72-.84-90.84a169.14,169.14,0,0,0,40.68-5.4c.48,1.92,1.56,2.4,3.24,1.56l.48-.84A12.14,12.14,0,0,0,270,290.88l-43.2,8.52.24-29.88q1.08-63.9,4.8-126.72c1.56-27,11.64-49.8,30-68.16,11.4-4,20.76-1.32,28.2,7.68l.48-.6C292,67.68,284.64,60.36,268.44,59.76Zm91.68,187.32a197.63,197.63,0,0,0,1.68,65c6.24,33.72,12.36,67.32,18.24,101L340,419.28l1.8-13.68,12.6-94.8a524.61,524.61,0,0,0,4.44-63.48c-2,.12-3.12,1.32-3.48,3.48q-9.72,63-17.52,126.48l-5.64,43.32-.24.72a13.18,13.18,0,0,0-.36,4.32q-5.4,39.06-11.76,78.12a528.93,528.93,0,0,0-6.48,63.6l1.32.12a126.3,126.3,0,0,0,10-35.16l14-103.92a148.34,148.34,0,0,0,43.56-3.12l2,12.36q11,63.18,24.6,126a2.43,2.43,0,0,0,3.24,2.16,6.31,6.31,0,0,0,1.56-4.8,486.73,486.73,0,0,0-10.2-62.88q-14.22-62.46-25.56-125.4c-7.56-42.12-13.32-84-17.28-125.88C360.24,246.84,360.12,247,360.12,247.08Zm204-178.92a294,294,0,0,0-10.56,72.24c-1.08,42.84-2,85.92-2.64,129.12s.24,86.16,2.88,129.12c2.16,35.16,2.64,70.56,1.32,106-3.48-24.84-7.2-49.68-11.4-74.52q-10.44-63.18-23.4-125.64A797.2,797.2,0,0,0,484.2,181.2L438.6,61.68c-.6-.12-1,0-1.08.6L437,64.44a3.11,3.11,0,0,0-1.08,2,457,457,0,0,0-4,57.72q-.18,64.26,1.2,129.12,1.44,64.44,3.48,129a1156.17,1156.17,0,0,1-3.24,129c-.48,5.4-1.2,10.68-2.16,16-2.52,12.6-1.32,23.16,3.48,31.68a227,227,0,0,0,6.6-43.68q3.42-64.44,1.32-129.24l-4.32-129q-2.16-64.62-.12-129c.6-18.36.72-36.12.48-53.4l19.8,56.28q22.14,62.64,41.16,126.36A959.39,959.39,0,0,1,528,382q9.54,60.48,17.28,121.2a322.46,322.46,0,0,0,13.2,59.64,2.55,2.55,0,0,0,1.2-1.56,54.67,54.67,0,0,0,1.8-21.12,364.74,364.74,0,0,0,2-36.84q.18-65-3.48-129.12c-2.52-42.84-3.6-85.92-3.36-129,.12-43.32,2-86.4,5.64-129A468.33,468.33,0,0,0,564.12,68.16Z" transform="translate(-2.98 -44.84)"/></svg>