<svg id="Layer_1" data-name="Layer 1" xmlns="http://www.w3.org/2000/svg" viewBox="0 0 302.25 212.33"><defs><style>.cls-1{fill-rule:evenodd;}</style></defs><path class="cls-1" d="M293.4,211.32a112.81,112.81,0,0,0-19.8,42.84A410.78,410.78,0,0,0,266.4,299c-1.32,14.28-2.52,28.68-3.36,43-.84,16.56,3.36,31.2,12.6,43.8,9.6,12.84,22.44,18.6,38.52,17q24.12-1.62,37.08-23c4.92-8.16,4.32-15.72-1.92-22.68C343,369.72,333.6,378.6,321.24,384a37.75,37.75,0,0,1-28.92,1.08c-6-1.92-10-5.76-11.76-11.4a191.56,191.56,0,0,1-8.16-70l46.32-4.2A10,10,0,0,0,322,291a13.24,13.24,0,0,0-3.24-8.28l-44.52,4.56q2.34-57.42,51.24-75c7.56-2.76,14.88-1.68,21.72,3.24l12.72,8.76c-1.32-17-10.44-26.88-27.24-29.64C316.56,192.36,303.48,197.88,293.4,211.32ZM191.28,202q-31.68,30.24-35.4,75.36a529.47,529.47,0,0,0-1.68,60.12,89.64,89.64,0,0,0,13.08,44.76c10.32,16.92,25.68,22.32,46.2,16,10.68-3.24,19.08-7.92,25-13.8A39.43,39.43,0,0,0,243,406.08c4.92-4.92,6.12-10.56,3.48-17l.24-.72a230.56,230.56,0,0,0,1.68-60.12,69,69,0,0,0-32.52,3.72A12.34,12.34,0,0,0,217,344.16a94.51,94.51,0,0,1,26.76.24l-.36,4.8a8.53,8.53,0,0,0-.84,3.84v3.6l-.24,2.16A41.44,41.44,0,0,1,229.44,374c-14.52,10.68-30.36,12.12-47.28,4.32a17.47,17.47,0,0,1-9.72-10.08q-16.56-40.86-11.4-87.12,4.5-41.58,34.92-68.76,36.18-11.7,52.08,18.12a10.71,10.71,0,0,0,1.2-10.56q-11-29-44.64-25.92A34.54,34.54,0,0,0,191.28,202Zm259.44,85.68A2.58,2.58,0,0,0,448,290.4q-3.6,44.46-3.72,89.16a19.21,19.21,0,0,1-16.8-1.32,14.4,14.4,0,0,0-5.88-8.16,5.45,5.45,0,0,0-2.4,4.08c-2.28,17.64,6.12,25.68,25.08,23.88q9.9-7.56,9.36-21.24-1.26-30.78-.72-61.56A126.9,126.9,0,0,0,450.72,287.64Zm-2.16-55.44q-.9-.18-1.08.36c-4.44,10.92-4.08,20.76,1.08,29.64l.6-1A38.58,38.58,0,0,0,448.56,232.2Zm-79.44-27.36a11,11,0,0,0,1.56,10.56c12.12.72,24.36,1.08,36.48,1a602.81,602.81,0,0,0-5.88,86.4,527.21,527.21,0,0,1-3.72,64.68q-2.16,17.82,4,32.4a39.86,39.86,0,0,0,4.92-19.92c-.12-16.44.12-33,.48-49.56l3.12-114,43.2-2,.84-1c3.6-6.24,2.64-11.16-2.76-14.76q-40.86.72-81.72,4.68Z" transform="translate(-153.97 -193.75)"/></svg>