<svg id="Layer_1" data-name="Layer 1" xmlns="http://www.w3.org/2000/svg" viewBox="0 0 443.42 361.2"><defs><style>.cls-1{fill-rule:evenodd;}</style></defs><path class="cls-1" d="M116.52,89.52a22.47,22.47,0,0,1,18.24-.24,34.29,34.29,0,0,1,16.44,13.8l8.64,9.72c.12-18-8.52-31-26.16-38.76A56.78,56.78,0,0,0,119,69.84Q71,100.62,58.32,160.68a517.14,517.14,0,0,0-10,145.2A223,223,0,0,0,69,385a158.32,158.32,0,0,0,15.12,25.68A43,43,0,0,0,96,422a25.64,25.64,0,0,0,13.44,4.44,40,40,0,0,0,15.36-2.4,98.18,98.18,0,0,0,11.4-5.28,91,91,0,0,0,21.24-16.32,55,55,0,0,0,6.6-8.64l1.8,28q16-49.86,4-103.32l-41,2.4a10.23,10.23,0,0,0-1.2,5.64,7.32,7.32,0,0,0,2,4.92,108,108,0,0,0,37.32,1.08l-2.16,30.12-3,7q-27,49.86-68.76,25.56A36.75,36.75,0,0,1,79.44,381.6,177.07,177.07,0,0,1,55.92,296a524.51,524.51,0,0,1,2.28-62.88,385.84,385.84,0,0,1,7.56-46.68,455.49,455.49,0,0,1,16.32-56.16,95.19,95.19,0,0,1,11.76-22.44,52.19,52.19,0,0,1,10.92-11.52A49.5,49.5,0,0,1,116.52,89.52ZM245.16,159.6a91.78,91.78,0,0,1-38.28,54.48l3.72-124c16.32-2.88,27.36,5,33.12,23.88A84.1,84.1,0,0,1,245.16,159.6Zm-39-80q-4.86,71.28-7.2,143.88l-.12,4.8-3.12,46.92q-3.78,50.22-6.84,100.44l-.6,6.6-1.44,10-.72,3.24a38.82,38.82,0,0,0-.72,14.88A28.21,28.21,0,0,0,190,422.4,1169.31,1169.31,0,0,0,206,230.64l14.88-10.32Q233,320.94,253.56,421q1.62,8.28,6.12,6.48l.36-.24a1358.37,1358.37,0,0,0-34-211.8q28.62-29.52,27-70.32a346.1,346.1,0,0,0-3.48-36.6l-.72-3.72A36.43,36.43,0,0,0,241.2,89.4,46.08,46.08,0,0,0,238,85.92l-3.84-3.24-3-1.8a48.76,48.76,0,0,0-13.56-5.16ZM290.76,83a945.12,945.12,0,0,0-5.28,106.44q.54,64.62-1.8,129-1.44,40.32-5.4,80.16c-1.08,12,.24,22.8,4.2,32.4a149.52,149.52,0,0,0,7.2-46.08q.18-22.86,1.08-46.08c1.56-42.84,2.4-85.8,2.52-129.12s0-86.16-.84-128.28C291.36,81.36,290.88,82,290.76,83Zm97.8,9.72,14,14.16c2.52-16.56-4.32-27-20.52-31.44q-64.8,29.7-67.56,106.32c-.6,16-1.68,31.92-3.36,47.64a547.49,547.49,0,0,0-.72,110.4,240,240,0,0,0,10.8,51.84,121.36,121.36,0,0,0,6.84,16.68,25.34,25.34,0,0,0,4.8,6.36l3.72,2.88a25.9,25.9,0,0,0,4.08,2,17,17,0,0,0,9.48.48A71.83,71.83,0,0,0,375,409.32a59.07,59.07,0,0,0,19.32-21.72c4.2-8.16,4.44-16.56.72-25.32L388.32,371,386,376.32l-1.92.72c-10.44,14.4-24.36,22.8-41.88,25.32-17.64-23.64-26.76-50.52-27.48-80.88q-.72-37.8.24-75.72l34.56.48,1.68,2.16c5.4.36,8.16-2.52,8.52-8.4a13.72,13.72,0,0,0-3.12-9.48L315.72,234q-2.88-77.94,47.4-129.6A40.58,40.58,0,0,1,386,92.4Zm99.84,2.88.48-.72.72-1.56c1.56-4.8,1-9-2-12.48A184.81,184.81,0,0,1,461.88,78a70.44,70.44,0,0,0-28.44,1,3.7,3.7,0,0,0-.84,1.68,760.39,760.39,0,0,0-6.48,104.52c.12,21.24-.36,42.6-1.2,64.08l-1.56,32.16-2,32.16-1.2,15.84L417,361.2l-3.36,31.44-.48-5.16-.72,3.24L411,392.16l-.6,9.24a31.3,31.3,0,0,0,2.88,15.48,22.77,22.77,0,0,0,4.44,6.24C419,416,420.12,409,421,401.76A1305.26,1305.26,0,0,0,431.88,247l44.4,1.32.24-.48,1.2-2.52.48-1.2c1.56-5.16.12-9.36-4.2-12.72L432.36,234l2.4-141.6,53,4Z" transform="translate(-47.01 -69.84)"/></svg>