<svg id="Layer_1" data-name="Layer 1" xmlns="http://www.w3.org/2000/svg" viewBox="0 0 438.24 395.61"><defs><style>.cls-1{fill-rule:evenodd;}</style></defs><path class="cls-1" d="M264.36,305.88a408.59,408.59,0,0,0-10.68,77.76c-.48,13.68-1.2,27.48-2.28,41.28-1.8,25.32,5.64,46.56,22.44,63.48a34.33,34.33,0,0,0,12.24-1.2c17.76-5.28,31-16.08,39.72-32.28A77.09,77.09,0,0,0,334,432a351.42,351.42,0,0,0-.12-126.24c-.72.24-1.08.6-1.08,1a220.39,220.39,0,0,0,.12,57.6c3.72,28.2-.48,54.6-12.84,79.08q-14.58,29.16-46,29A23.5,23.5,0,0,1,265,457.68a308.19,308.19,0,0,1-3.72-97.44c1.2-10.8,2.76-21.48,4.56-32,1.56-9,1.32-16.8-.72-23.52A1.73,1.73,0,0,0,264.36,305.88ZM148.44,387.12q-14,56.7,15.48,104.28c14,6.72,26.4,3.84,37.08-8.52a130,130,0,0,0,30.36-65.64,250.11,250.11,0,0,0,2-60.72q-2.52-31.14-24-51.84l-5.88-.48-15.24-.6q-30.42,22.5-35.76,61.8C151.44,372.72,150.12,380,148.44,387.12Zm26.64-59.88c6-9,14.16-13,24.6-11.76l.48,3,8.64,3.24a28.8,28.8,0,0,1,9.48,12,127.25,127.25,0,0,1,9.48,36.84,137.16,137.16,0,0,1-13.8,76.2,70.64,70.64,0,0,1-22.56,26.4c-6.84,4.92-13.32,5.16-19.56.84A41.47,41.47,0,0,1,155,451.2a85.75,85.75,0,0,1-3.48-37,278.05,278.05,0,0,1,6.48-46.8A121.74,121.74,0,0,1,175.08,327.24Zm-58.8-17.16a29.55,29.55,0,0,1,8.64,16.8c.36,2.88,1.44,4.56,3.12,4.92q2.52-16.2-7.2-28.8a31,31,0,0,0-3.72-4.2l-3.36-1.08c-15.24-1.08-26.76,6.72-34.68,23.16A203.06,203.06,0,0,0,64,363.6a253.72,253.72,0,0,0-6.48,44.52,131.14,131.14,0,0,0,4.8,43.68,100.37,100.37,0,0,0,18.36,35.76,30.61,30.61,0,0,0,27.12-5.76,127.74,127.74,0,0,0,13.32-12.24,16,16,0,0,0,3.48-5.64,12,12,0,0,0-.36-10l-1.44-2.64a83.07,83.07,0,0,0-17.16,13.2,24.25,24.25,0,0,1-12.72,7.2,17.38,17.38,0,0,1-12.48-1.56,14.55,14.55,0,0,1-7.32-8,187.84,187.84,0,0,1-10.56-48.84Q57.66,351.54,102.6,309.6Zm-48-102.36a719.75,719.75,0,0,0,2.4-101.64c-2.52,2-3.84,4.92-4,8.88-1.32,42.6-4.8,85.08-10.2,127.32C55,254.4,55.8,265,59,274.08a24.57,24.57,0,0,0,3.12-10.56c.84-10,1.8-19.92,3.12-29.88l.36-2.64.48-.36c6.6-15.24,13.92-30.12,21.72-44.88l1.92-3.6C95.4,206.28,101.52,230.64,108,255c2.76,10.08,6.72,18.48,11.88,25.32a2.68,2.68,0,0,0,.6-2.28,458.19,458.19,0,0,0-28.92-99.12l21.12-39.48c5.4-10.08,7.56-20.16,6.6-30.12A80.49,80.49,0,0,0,111,123.24a468.37,468.37,0,0,1-26.76,48.24A128.64,128.64,0,0,0,68.28,207.72Zm126.12-45.6Q181.08,188,152.16,192.24c1.8-22.44,3.24-44.88,4.2-67.32a14.19,14.19,0,0,1,10.32-3.84c13,.36,22.32,7.32,28.2,20.64A23.39,23.39,0,0,1,194.4,162.12Zm6.48,2.16c3.48-15.6.12-29.52-10-41.76-13.92-16.92-25.68-17.16-35.16-1A26.7,26.7,0,0,0,152.4,132l-4.92,45.72-1.8,15.12-4.2.12a13.38,13.38,0,0,0-1.68,5.64,7.33,7.33,0,0,0,.72,4l1.8,3.36,1.8.12c-9,26.52-10.2,52.2-3.48,77.28L151,205.8l22.32-5.64a289.09,289.09,0,0,0,19.2,67.32c2,5,4.32,10,6.6,14.76q-3.78-40.86-23.4-83.16C189,191.28,197.4,179.64,200.88,164.28Zm16.2-53.16c4.2,36,9.48,72.36,15.6,109a197.84,197.84,0,0,1,2.88,31.56c.12,12.12,3,22.32,8.52,30.84l.6-.84,1.68-4.68a126.37,126.37,0,0,0,12.84-36.24,333.84,333.84,0,0,1,9.24-36.24,42.73,42.73,0,0,0,2-8.16l.6,4.2,7,32a222.15,222.15,0,0,0,16.08,48.84l1.56-4a32.32,32.32,0,0,0,1.92,3.48,5.61,5.61,0,0,0,2.28-3.84Q308.7,213.9,321,151.56a148.93,148.93,0,0,0,2.88-31.92l-.6.36a677.09,677.09,0,0,0-24.6,121.68,87,87,0,0,1-3.24,15.72,47.54,47.54,0,0,0-1.56,6.6q-12.06-41-19.8-81.6a19.85,19.85,0,0,0-3,6.48,35.26,35.26,0,0,0-1.56-8.88,125.51,125.51,0,0,0-12.6,36,172.47,172.47,0,0,1-11,36.72,29.87,29.87,0,0,0-1.68,4.92q-.36-11-1.8-22a862.79,862.79,0,0,0-24.6-125C217.2,110.52,217,110.64,217.08,111.12Zm220.44,31.8a60.33,60.33,0,0,0-8.64,27.48l-7.08,90.84c-3,42.6-5.28,85.32-6.6,128.4a182.41,182.41,0,0,1-3.84,32.16c-3.48,16.92-2.88,32.88,2,47.88a61.65,61.65,0,0,0,7.92-26.52l-.36.12a24.62,24.62,0,0,1-4,9.6,714,714,0,0,0,8.16-85.08q1.08-32.58,2.52-65.16a340.54,340.54,0,0,0,49.08-3.24l-.24,2.64c-4.92,42.36-8.28,85.08-10.32,128.16A98.52,98.52,0,0,1,464.28,446c-2.16,10.56-.24,18.24,5.76,23.16a14,14,0,0,0,1.92-6.48q3.06-64.44,8.76-128.28l3.12-36.24,1.56-.24.48-.84c1.92-4.8,1.56-9.12-1-12.84l1.08-14,6.84-95.64a424.4,424.4,0,0,0-.12-64.2,323.06,323.06,0,0,0-7.56,64.08c-.84,36.6-3,73.08-6.72,109.2a236.33,236.33,0,0,0-50.4,9.24l2.76-53.4c1.08-21.48,3.12-42.84,6-63.84A137.12,137.12,0,0,0,437.52,142.92ZM407.16,116.4l49.32,9.12a10.17,10.17,0,0,0,2.4-6.36l-.12-2.52-.36-2.4-.48-1.56a7.14,7.14,0,0,0-2.88-3.36,323.75,323.75,0,0,0-72.84-10,217.09,217.09,0,0,0-62.16,7.8l.12,10.56a457.78,457.78,0,0,1,81.24-1.8q-10.62,83.34-17.4,167.4-7,90.54-9.48,181a24.18,24.18,0,0,0,2.16,10.8,69.82,69.82,0,0,0,7-24.12,38.76,38.76,0,0,0,0-5.28l-.48-3.6-1.56,8.4q9.18-92.34,14-188.88c2.16-42.84,5.88-85.44,11.28-128Z" transform="translate(-55.76 -99.33)"/></svg>