<svg id="Layer_1" data-name="Layer 1" xmlns="http://www.w3.org/2000/svg" viewBox="0 0 595.57 842.18"><defs><style>.cls-1{fill:#fff;}.cls-2{fill:none;stroke:#fff;stroke-linecap:round;stroke-linejoin:round;stroke-width:0.38px;}.cls-3{fill-rule:evenodd;}</style></defs><rect class="cls-1" x="0.31" y="0.31" width="595.08" height="841.68"/><rect class="cls-2" x="0.19" y="0.19" width="595.2" height="841.8"/><path class="cls-3" d="M254,308.52l-.24-3c0-2.52.36-4.2,1.08-5.28l3.36.36,15.84.72c19.08,2.4,32.4,11.52,40.2,27.36,4.68,9.6,7,21.12,7,34.44,0,13.8-3.24,26-9.6,36.48q-14.58,23.58-48.6,31.32l-8.16-.24c-.6,14-2.28,38.64-5,73.56q-5,65-6.24,71.16c-1.32-1.68-1.92-4.32-1.92-7.8l4.56-57.72q4.68-58.14,5.16-77c.12-5.16,0-27.72-.36-67.44-.24-27.84.6-49.8,2.52-65.76.84,25.56,1.44,63.24,1.56,113L257,410.4l-1.32,2.4-.6,1.44V419l1.68.24c17.76,0,32.64-6.36,44.64-19.2a58.33,58.33,0,0,0,11.88-18.24,46.7,46.7,0,0,0,4.08-18.72c0-11.4-2.64-21.48-7.92-30.36-7.56-12.6-19.56-19.68-35.88-21.24l-18.72-.72Zm-104.16,9.6L149,332.64,148,347.28c0,19.44-1.08,36-3.24,49.56v47.88l1.08,4.08v43.8l-1.56,32.88c-.6,13.2-1.56,24.12-2.76,32.88v9.48l4.08-.48,1.68-1.2q3.42-1.26,23.76.36c11.52-.48,18-1.44,19.44-2.76a3,3,0,0,0,.48-2.4,8.84,8.84,0,0,1-.12-3l1.08-.24a23.06,23.06,0,0,0-.12,6.6l.6,5.52c0,3.12-.84,5.16-2.52,6.24-3.24,1.92-9.84,2.16-19.92.84l-18.84,1-6,.6c-4,0-6.48-2.4-7.32-7.2a23.65,23.65,0,0,1-.24-5.16l.24-2.52c0-6.72.48-18.72,1.56-36.12S141,498.36,141,491.76c.36-9.72.48-24.24.36-43.32l-.36-27.6c0-10.56,1.08-31.56,3.36-63,2-28.92,3.48-45.6,4.2-50.28A35.43,35.43,0,0,1,149.88,318.12Zm24.6-15.48a4.93,4.93,0,0,1,1.2-2.76l20.16,41.64c12.84,27.48,19.32,43.8,19.32,49l-.12,2.16q14-59.22,23.4-90l.36.72.12,2.16q0,7.92-21.24,103.92-21.06,94.86-33.12,142.2a5.46,5.46,0,0,1-1.92-2.16,9.05,9.05,0,0,1-.48-3.36c0-5.4,7-39.12,20.88-100.92,4-17.76,7.68-34.2,11.28-49.2l-.24.12-1.44.72q-3.06-7.74-23.28-52.56c-10.2-22.92-15.36-35.4-15.36-37.56A15.21,15.21,0,0,1,174.48,302.64Zm-49.92,17.52-.84,2.28-1.44.72c-1.56-7.92-8.52-11.88-21.12-11.88q-49.86,0-69.24,71.28A277,277,0,0,0,23.52,432c-.72,9.12-1.08,16.92-1.08,23.52,0,6,.72,15.84,2.28,29.64,1.56,13.32,2.16,23.28,2,29.64-.24,13,3.72,25.92,12,38.88A57.36,57.36,0,0,0,50.4,567.24q6.3,5.58,11.88,5.76,26.28,6.3,46.56-19.08,4.32-5.58,13.32-19.8c4.44-7.08,7.92-11.4,10.2-12.84a113.43,113.43,0,0,0-8.28,17l-6.6,15.48-3.24,7.68a38.13,38.13,0,0,1-6.6,10.32c-7.68,8.52-19.44,12.84-35.16,12.84-16.92,0-29.88-8.28-38.88-25C27.36,548.16,23.88,535,23,520.2q-.72-12.6-2.88-34.2c-1-10.2-1.44-20.28-1.44-30.36,0-5.88,1.68-20.88,5-45.24,3.48-25.08,6-39.6,7.68-43.68Q37,352,40.44,344c4.2-9.24,8.88-16.56,14.28-22,16.44-16.68,32.64-23.88,48.84-21.72,6.24.84,11.4,2.88,15.48,6.36q5.76,4.86,5.76,10.44Zm22.56-305a5.57,5.57,0,0,1,.84,2.16q0,3.6-21.24,40l-24,39.84c3.12,3.48,5.52,8.28,7.32,14.28a125.9,125.9,0,0,1,2.88,13.32,125.23,125.23,0,0,0,2.88,13.08l7,25.8c3,11,4.92,19.68,6,25.92,1.08,6.84,5.88,25.68,14.28,56.28,7.8,28.8,11.76,44.28,11.76,46.44a9.38,9.38,0,0,1-2.16,5.88q-12.42-33.84-28.56-103.44c-5.4-23.4-9.6-40.8-12.6-52.08-4-14.76-7.92-28.08-12-40.2l-4.8,7.56c-6.36,10-14.4,25.44-24,46.2-8,17.64-15.12,31.32-21,41l-3.24,49.68c-1.56,23.64-4,43.08-7,58.56H38.16a16.81,16.81,0,0,1-.72-3.36l-.12-3.6c0-2.16,1.32-18.6,4.08-49.32L47,184.44V131.76c.6-7.44,1-17.52,1.32-30.36l1-31.2q1.62-36.9,8.28-59.4A19.13,19.13,0,0,1,59,19c0,5-1.32,24.24-4,57.48l-4.8,60.24v46.56Q59.82,159.12,92,102.12L96.6,94l-.84-2.28,1.68,1Q125.52,43,145.08,12.12A10.05,10.05,0,0,1,147.12,15.12ZM198,44.76l.84,20-1.08,20.52-1.08,20.52,1.68,44.4c1.08,28.32,1.56,46.44,1.56,54.48,0,23.88-.12,39-.24,45.48a297.63,297.63,0,0,1-4.8,46,14.38,14.38,0,0,1-2-4.08,17,17,0,0,1-.72-4.56q4.14-70,4.08-84c0-9.48-.6-26.64-1.68-51.36S193,112.08,193,105.84l.36-43.92.48-43.44a6.31,6.31,0,0,1,.72-3.12A2.87,2.87,0,0,1,196.2,14ZM317.4,8.16l1.32,2a8.06,8.06,0,0,1,.36,2.76,9.36,9.36,0,0,1-.36,2.88l-1.08,2-3.12.48c-2,.36-3.24.6-3.36.84-9.36.12-21.36.84-36.12,2.28v.36a52.76,52.76,0,0,1,.48,7.44,395.16,395.16,0,0,1-4.08,58.08v50.4c-1.56,6.84-2.4,16.68-2.28,29.52.12,14.28-.24,24.12-1,29.52v95.88l-1.44,3.24-1.08.24c-.6-7.56-1-18.24-1.08-32.28L264.36,243c0-27,.12-45.48.36-55.32.36-20,1.32-38,2.88-53.76V83.64c1.08-7.8,1.92-19.68,2.64-35.52.6-10.8,1.08-19.56,1.68-26.4l-10.68,1.2c-21,2.4-33.48,3.6-37.68,3.6l-8.76-.24-.84-2-.24-2.88a7.17,7.17,0,0,1,.36-2.76,3.48,3.48,0,0,1,1.32-1.8l40.92-4L310.68,8.4V7.8ZM441.72,32.4l-.6,1.44v.24c-2.76-2-5.4-3.84-7.8-5.4-4.44-2.76-8.16-4.08-11.16-4.08q-46.8,0-69,82.56a415.46,415.46,0,0,0-13.56,88.32v82.8l1.2.36,1.44,1.08c1.56,1.08,6,1.56,13.32,1.56s12.72-.6,16.44-1.68a33.56,33.56,0,0,1,9-1.56c9.48,0,15.72,1.08,18.48,3.24,1.08.84,1.56,2.16,1.56,4.08a14.05,14.05,0,0,1-.36,3.84,2.32,2.32,0,0,1-2.4,1.8l-8.64-1.08L381,288.84a40.55,40.55,0,0,0-10.08,1.56l-5.64,1.44c-13,0-21.48-1.2-25.44-3.48l-.24-.12v58.2a37.91,37.91,0,0,0-1.08,7.32v2.4l.24.84v67.44l3.12,37c1.32,15.24,3.12,27.6,5.52,36.84l4.32,18.36c1.8,7.68,3.36,13.8,4.68,18.24.84,2.76,5.28,8.64,13.44,17.64,9,9.84,15.36,14.76,19.32,14.76l10.56-.24c22.92-13.68,38.16-30,46-49a135.31,135.31,0,0,0,7.2-25.2c3-14.52,4.92-23,5.52-25.44a3.2,3.2,0,0,1,.6-1.56l.48.72v2.16a132.25,132.25,0,0,1-3,26,180.73,180.73,0,0,1-9.84,33.72c-11.4,28-27.24,44.88-47.28,51-27.48-.84-46.32-26.88-56.52-78.36q-8.46-41.94-8.4-108.48c0-23,.48-40.2,1.32-51.6V191.64c.12-16,2.16-33.84,6-53.64A360.5,360.5,0,0,1,357.6,81.48c7.08-19.08,15-34.32,23.52-45.72C390.6,23,400.32,16,410.28,14.64c12.84,1.08,21.72,3,26.4,6A10.33,10.33,0,0,1,441.84,30Zm113.88,2c8,6.36,12.12,11.88,12.12,16.56a16.52,16.52,0,0,1-1.56,7.44l-1.44.24c-1.68-8.28-8-15.48-19-21.72-11.64-6.6-25.08-9.84-40.32-9.84q-24.48,0-35.4,43.2a202.6,202.6,0,0,0-6,43.92q0,38,17.16,78.6c4.32,10.44,10.2,22.56,17.52,36.36q6.48,12.06,20.16,37.08,25.92,48.06,37.68,84.24a359.77,359.77,0,0,1,17.16,111.36q0,48.06-29.76,79.2a92.31,92.31,0,0,1-29,20.76,75.46,75.46,0,0,1-31.08,7.08c-14.16,0-24.24-3.84-30.36-11.64a22.52,22.52,0,0,1-5-13.8c0-4.08,1-6.84,2.88-8.4,4.44-2.76,9.24-5.88,14.4-9.48-2,1.8-4.56,4.2-7.32,7.08-3.72,4-5.64,6.48-5.64,7.56,0,.36.6,1.32,1.8,3a66.86,66.86,0,0,0,4.92,5.4q8.28,7.56,16.2,7.56c31.32,0,55.68-11,72.84-33.24a99,99,0,0,0,16-30.84,103,103,0,0,0,4.92-31,327.34,327.34,0,0,0-17.16-105.6q-11.16-33.3-37.44-81.72l-19.92-37.2A396,396,0,0,1,477.36,199q-17.1-42.66-17-84.6c0-8,1.56-19.68,4.56-35,2.76-14,5.4-25,8.16-32.76,4.44-13.44,12.12-22.2,22.92-26.4q13.68-5.22,31.68,0A79.22,79.22,0,0,1,555.6,34.44Z" transform="translate(0.19 0.19)"/></svg>