<svg id="Layer_1" data-name="Layer 1" xmlns="http://www.w3.org/2000/svg" viewBox="0 0 496.02 526.15"><defs><style>.cls-1{fill-rule:evenodd;}</style></defs><path class="cls-1" d="M55.2,306.84c-2,21.72-3,44.16-3.12,67.32q-.18,64.44-4,128.4a259.27,259.27,0,0,1-3.72,32c-2,12-1,22.8,3.24,32.52A2.55,2.55,0,0,0,49.8,565,474.94,474.94,0,0,0,56,499.2l.36-14.52a608.45,608.45,0,0,0,32.76-61.8,114.92,114.92,0,0,0,4.32,40c4.68,16,9,31.92,13,48a348.71,348.71,0,0,0,21.24,61.68,4.36,4.36,0,0,0,2.64-4.32,84.68,84.68,0,0,0-4.92-29.76A975.76,975.76,0,0,1,91,418.92l5.64-13.2,23.88-58a111.15,111.15,0,0,0,8.76-45.24Q106.38,356.34,83,412.32A161.72,161.72,0,0,1,67.44,441a75.21,75.21,0,0,0-10,19.2l1.32-25a726.77,726.77,0,0,0-3-128.4Zm53.4-251A36.55,36.55,0,0,0,91,53.88,33.2,33.2,0,0,0,76,64.2c-19.8,23.88-31.2,51.6-34,83.16-1.8,20.16-3.36,40.44-4.8,60.84-2,28.92,6,53.88,23.88,74.64a30.14,30.14,0,0,0,18,10.44q38.52,6.84,55.08-30.6c5.28-11.76,4.2-21.6-3.24-29.4a7.91,7.91,0,0,0-2.16,4.08,30.06,30.06,0,0,0,0,8l.24,2.52-3.48,6.24a46.79,46.79,0,0,1-16.8,17.4Q76.5,290.82,56.16,258.24a34.59,34.59,0,0,1-3.72-8.4,199.5,199.5,0,0,1-7.08-67.08A258.68,258.68,0,0,1,68.4,91Q79.74,66.3,106.56,71.88a18.45,18.45,0,0,1,12.12,8.28,88,88,0,0,1,9.48,18.6,26.45,26.45,0,0,0,1.68-15.36c-2.16-11.64-8.52-20.52-19-26.88ZM286,67.44c-.72-2.64-2.28-4-4.56-4.08a13.92,13.92,0,0,0-3.6,9.72l-.36.36.72,1.08V74.4l.12-.12-.12.24a11.46,11.46,0,0,1,.84,8.76,289.3,289.3,0,0,1,1.2,36.84c-1.32,43.08-2,86-2.16,129.12s.36,85.92,1.44,129a601.89,601.89,0,0,1-10.32,128.4,67.27,67.27,0,0,1-20,37.08Q222.66,569.1,190,554.52a18.65,18.65,0,0,1-11.16-14.4,496.69,496.69,0,0,1-7.08-94l2.64-129c.84-43,1-86,.12-129.12-1-43.56-1.32-86.4-1.08-128.28-4.44,9-6.6,19.2-6.24,30.84,1.08,42.6,1.8,85.44,2.16,128.28.48,43.08,0,86-1.44,129.12-1.32,42.84-1.92,85.92-1.68,129a289.24,289.24,0,0,1-1.44,32.28q-4,39.06,22.68,64.08c18.6,8.4,36.24,7.32,53.16-3.12a44.77,44.77,0,0,0,14.4-14c19.32-30.24,29.16-63.72,29.76-100.56.6-42.84.6-85.92-.24-129s-.36-86,1.32-129.12q2.52-64.08.12-128.28Q289.74,66.18,286,67.44Zm77.64-6.6c-22,9.72-34.92,26.64-39.12,50.76a112.33,112.33,0,0,0,3.36,53.16q19.62,64.44,43.68,127.44A458,458,0,0,1,399.6,412a279.66,279.66,0,0,1-5.76,90.6c-4.2,18.84-14.76,32.4-31.56,40.92-18.72,9.48-33.84,6.48-45.48-8.76-8.76-11.4-13.2-25-13.2-40.44l-2.28-1.44-.36-.36q-10.26,37.8,18.6,69,36.72,17.82,63.6-13.08a79.38,79.38,0,0,0,17.16-33.6,302.8,302.8,0,0,0,5.88-111,569.87,569.87,0,0,0-15-76.44,735.65,735.65,0,0,0-43.32-120.12,185.88,185.88,0,0,1-17.64-70.32q-2-41.94,32.88-61.2c8.28-2.28,14.4-.24,18.48,6a140.81,140.81,0,0,1,8.88,15.72A15.81,15.81,0,0,0,392,91.68C393.84,71.4,384.36,61.2,363.6,60.84Zm156.24,43.08q.9,23.76,1.8,47.16,2.52,62.46,4,124.8l-12.6-1.2a679.06,679.06,0,0,1-79.2,7.2l.12-35.88q.36-64.62,1.32-129.12l1.2-64.08C431,67,428.52,82.44,429,99.36c.36,16,.48,31.92.24,47.88q-.9,64.44-2.16,129-1.26,64.08-1,129.12t-5.88,128.88q-1.62,15.48,7.2,23.4c2-17.28,3.48-35.16,4.32-53.52,1.92-42.84,2.76-85.8,2.4-129.12l-.36-80.52,3.48.24,88.56-3.48c.72,39.24.6,78.6-.24,117.84-1,42.84-2.52,85.44-4.8,128L519.36,532a15.93,15.93,0,0,1-2.4,4.44A88.57,88.57,0,0,0,524.4,563a2.59,2.59,0,0,0,.72-1.68,1139.88,1139.88,0,0,0,7.44-116.76c.48-43.08.48-86-.12-129.12s-1.44-85.92-2.52-129-2.76-85.8-5.52-128.28C520.68,72,519.24,87.24,519.84,103.92Z" transform="translate(-36.89 -52.8)"/></svg>