<svg id="Layer_1" data-name="Layer 1" xmlns="http://www.w3.org/2000/svg" viewBox="0 0 595.57 842.18"><defs><style>.cls-1{fill:#fff;}.cls-2{fill:none;stroke:#fff;stroke-linecap:round;stroke-linejoin:round;stroke-width:0.38px;}.cls-3{fill-rule:evenodd;}</style></defs><rect class="cls-1" x="0.31" y="0.31" width="595.08" height="841.68"/><rect class="cls-2" x="0.19" y="0.19" width="595.2" height="841.8"/><path class="cls-3" d="M162.84,298.56a929.75,929.75,0,0,0-1.32-106.68c-2.76,7.68-4.08,16.44-4.08,26.28q.18,64.44-3.36,128.16a159.2,159.2,0,0,1-5,32c-2.52,9.72-1.44,17.64,3.36,23.76a73,73,0,0,0,4.56-20.4l4.32-58.08c9.84-13.92,19.2-28.2,28.08-42.72l.12.6q20,61.38,43.68,119.4a10.29,10.29,0,0,0,2-10.08q-18.36-59.94-41.64-117c5.28-9,10.32-18,15.24-27.12a74.91,74.91,0,0,1,6.48-10.32c10.2-13.8,14.76-28.2,13.56-43.2q-15.66,23.94-29.88,51A328.7,328.7,0,0,1,164,296.88Zm143.4-102.12A935.44,935.44,0,0,0,304.8,303.6a432.29,432.29,0,0,1-2.28,64.8c-1.32,11.88-.12,22.56,3.72,32.28a2.14,2.14,0,0,0,1.08-1.44,439.49,439.49,0,0,0,5.16-74.52q-.9-64.8-5.64-128.28Zm60.12.24c-3.84,3.36-4.8,8-2.76,14q7.38,22.5,13,45.36a595.81,595.81,0,0,1,16.56,125.4c.12,9.48,2.64,16.8,7.32,21.72l1.68-3.6.48,1.68a77.71,77.71,0,0,0,10.08-21.6l36.36-122a193.71,193.71,0,0,0,8.28-62.28,1.24,1.24,0,0,0-1.32.48,46.88,46.88,0,0,0-5.88,14.64q-14.76,61.38-32,122a194.17,194.17,0,0,1-11.4,30.12,61.8,61.8,0,0,0-5.16,15.24,45.84,45.84,0,0,1-1.56-9c-1.08-15.72-2.88-31.44-5.28-46.92a1197.3,1197.3,0,0,0-26.4-123.6l-.84-.84Z" transform="translate(0.19 0.19)"/></svg>