<svg id="Layer_1" data-name="Layer 1" xmlns="http://www.w3.org/2000/svg" viewBox="0 0 518.38 572.94"><defs><style>.cls-1{fill-rule:evenodd;}</style></defs><path class="cls-1" d="M42.36,497C31.2,507.72,25.68,520.8,25.68,536.52c0,16.92,7,30.24,20.88,39.84q21.78,14.94,40-4.2a40.37,40.37,0,0,0,6.72-10Q116.1,582,144,583.8c5.4.72,10.44-.72,15.24-4.32,9.48-7,12.12-15.48,7.68-25.56a26.84,26.84,0,0,1-9.6,13.2c-6.84,5-14,6-21.6,3A381.23,381.23,0,0,1,97,551.76a55.36,55.36,0,0,0-2.16-30.6A45,45,0,0,0,73.32,496Q56.58,486.78,42.36,497Zm16.8,6.36.6,2.28c5.4,3.72,10.92,4.8,16.8,3.24q18,15.66,14,39.24l-13.8-7.32-3.24.36-3.24,2.16c-3.84,5.28-3.84,9.48-.12,12.48l2-2.52,7.8-.84,7.56,5.64q-25.74,26.1-49-4.68c-5.88-7.8-7.68-16.8-5.28-26.76C36.12,515,43.08,506.88,54.12,502l2.76.36ZM129,496c-8.64,14.52-9.24,29.16-1.8,43.8q13,25.2,32.4-2.4c10.44-14.64,12.36-29.16,6-43.44a63.11,63.11,0,0,1-11.52,33.36c-10,14.4-17.28,15.6-22.08,3.48a47,47,0,0,1-3-17.64Zm58.2,38.64a40.34,40.34,0,0,0,27.12,1.08l.48-.72a11,11,0,0,0-1.08-10.56c-8.76,1.32-17.4,2.28-25.92,3l-.48.84A8.33,8.33,0,0,0,187.2,534.6Zm25.2-44.88L221,502.44q4.68-22.32-17.64-27.36Q163.26,523,192.48,582.6c3,6,7.8,7.68,14.52,4.92l5-2.28c11-9.6,13.92-20.28,8.76-32.16-3,14.28-11.64,21.72-25.8,22.44q-23.76-49,10.2-83A9.77,9.77,0,0,1,212.4,489.72ZM150.84,285.36a463.4,463.4,0,0,0-.72,68.28l44.16,1.68A12.14,12.14,0,0,0,195,342.6l-41-1.68v-.72A301.92,301.92,0,0,0,155,274.44C152.52,277.2,151.2,280.8,150.84,285.36ZM86,149.4l7.56-1.92q25.56,25.2-7.44,38a19.26,19.26,0,0,1-7.56,1.2l4-34.8Zm-2.88-4.56-2.52-5.16-7,46.68-6.84,65.52,2.76-.36L77.28,198l12.84.24a9.5,9.5,0,0,0,1,5.52l16.56,30.6,1.2,2.16A57.53,57.53,0,0,0,129.6,256a16,16,0,0,0,1.2-2.88c1.56-5.28,0-9.72-4.68-13.2a28.52,28.52,0,0,1-4.32-4.2A434.84,434.84,0,0,1,94.2,197a14.12,14.12,0,0,0,6.84-4.56,40.07,40.07,0,0,0,9.6-25.68l-.12-1.8a42.61,42.61,0,0,0-15-26.4l-4.8,1.08-2.4.84-2,1.32ZM156.48,55Q142.62,14.1,96.36,16.56C71.28,25.08,53.16,41.64,42,66a273.51,273.51,0,0,0-23.16,80.76,800.22,800.22,0,0,0-6.12,129.36c1.44,42.12,2,84.36,1.68,126.48-.12,22.8,7.68,42,23.16,57.6A162.42,162.42,0,0,0,93,496.8c6.36,2.52,13.08,2.28,19.92-1q34.2-15.66,46.32-52.92c3-9.24,1.68-15.84-3.72-19.8a150.49,150.49,0,0,1-16.32,38c-9.6,15.72-23.76,21.6-42.48,17.4a127.33,127.33,0,0,1-37-14.4Q30.24,447.06,26,414.24a786.6,786.6,0,0,1-6.12-95.52q-.18-47,1-94.08c.6-25.2,2-50.16,4.56-74.88A213.2,213.2,0,0,1,52,65.52a71.06,71.06,0,0,0,8.28-9.6q20.16-28.8,54.84-21.84,31.32,6.3,40.2,35.76A17.91,17.91,0,0,0,156.48,55Zm20.4,96.84a74.33,74.33,0,0,0-18,44.16,59.92,59.92,0,0,0,7.92,35.28c7.32,12.84,18.48,20.16,33.36,22.08A48.93,48.93,0,0,0,224,235.92c2.88-3.84,2.52-7.68-1.08-11.64l-2.16,4.08L198.24,240c-13.32-.72-22.92-6.84-28.56-18.48a43.47,43.47,0,0,1-4.32-22l40.8,4.2.84-1.32.72-1.92a7.38,7.38,0,0,0,0-4l-1-3.24-.24-.48L166.68,191a50,50,0,0,1,6.12-20.76l3.6-6.6a30.25,30.25,0,0,1,20-1.32,28.65,28.65,0,0,1,11.28,6.48l1.68,1.68,3.84-.48a19.63,19.63,0,0,0-6.12-12.6,23.23,23.23,0,0,0-11-6,30.58,30.58,0,0,0-10-.84ZM187.8,42.24Q161,96.42,195.48,144.84a12.24,12.24,0,0,0,11.64,5.52q50.94-4,57.24-55.32c1.56-13.32-.72-25.44-7.08-36.6a196.37,196.37,0,0,0-12.24-19C235.44,26.4,223,19.56,207.72,19.2A60.79,60.79,0,0,0,187.8,42.24Zm33.72-7.44a83.07,83.07,0,0,1,30.72,31.44c8.28,14.88,8.52,29.88.48,45-7.8,14.52-19.8,22.68-35.88,24.48-16.32,1.68-27.12-6.36-32.52-24.24a87.75,87.75,0,0,1-1.2-46.92c4.2-16.92,14.28-28,30.12-33.24a18,18,0,0,1,6.12-.84Zm152.4,242.52a554.5,554.5,0,0,0-1.2,78.84,1143.36,1143.36,0,0,1-.48,128.28c-1.32,22.8-8.52,43.32-21.84,61.44a79.12,79.12,0,0,1-17,17c-12.84,9.36-27.12,12.12-42.6,8.28q-32.22-8.1-35.28-40.8a844.11,844.11,0,0,1-2.16-128c2.52-43.2,2.88-85.92,1.32-128.28a108.5,108.5,0,0,0-4.32,29q-.72,45.36-2.64,90.84-2.7,63.9-1.92,128.28.54,39.42,32.76,59.28c10.32,6.36,21.12,7.68,32.4,3.84q60.12-20.34,65.76-83a1104,1104,0,0,0,3.72-129.24c-.72-21.36-.72-42.72,0-64C380.76,297,378.6,286.32,373.92,277.32ZM506.28,301c-9.48-21.12-26.64-30.6-51.72-28.44q-22.86,9.18-33.84,32a335.52,335.52,0,0,0-29,92.64,510.83,510.83,0,0,0-4.08,127,56.61,56.61,0,0,0,7.32,22.8q18.9,32.22,57.84,41a54.86,54.86,0,0,0,30.48-1.8c35.88-12.6,51.36-37.44,46.56-74.28l-1.2-.6-1.68-.6-.6-.36-.72-.84-1.92.84,1,2.88A78.83,78.83,0,0,1,519,540.36q-7.74,19.8-28.8,26.28-38.34,11.7-72.72-10.56a38.56,38.56,0,0,1-13-13.8C393.36,522.6,388.44,501,390,477.48c1.32-20,3.24-40,5.76-59.64a125.28,125.28,0,0,0,47.4-2.52l.48-.84a13.48,13.48,0,0,0-1.56-13l-44.76,4.56a385.81,385.81,0,0,1,21.72-82,61.17,61.17,0,0,1,23.76-29.4c16.08-10.68,32.16-10.2,48.36,1.68,7,5,12,10.56,15.12,16.68A15.2,15.2,0,0,0,506.28,301ZM406.44,22.68A265,265,0,0,0,392.16,73q-11.52,62.82-21.72,125.88-2.52,15.84-5.76,31.32a63.66,63.66,0,0,0-1.44,14.64q-14.76-49.86-30.84-99l.36-1.56-.24-.84a11,11,0,0,0-2.16-7.32l-.6,1.8-.48-1.44-.12,3.36C319.68,169,311,198.84,303,229.44l-.72,2.88q-2.34-42.66-7.8-85.92Q286.56,82.5,275.16,20c-2.16,8.28-2.4,17.64-.72,28q7,42.66,11.64,85.8l13.68,126.84a2.55,2.55,0,0,0,2.16,2.16,2.17,2.17,0,0,0,1.68-2.16l-.12-3.36,1.2,2.76.48-1q11.88-52,24.72-103.32a139.14,139.14,0,0,0,6.72,29.76c5.64,16.92,11.16,33.84,16.32,50.76a136.63,136.63,0,0,0,12.6,29.16,8.16,8.16,0,0,0,1.8-5.64,458.3,458.3,0,0,0,9.48-49.56q8.46-63.18,19.92-126.12a215,215,0,0,1,8-31.08c3.72-11.28,5.28-22,4.56-32.16h-.24A5.79,5.79,0,0,0,406.44,22.68Z" transform="translate(-12.27 -16.41)"/></svg>