<svg id="Layer_1" data-name="Layer 1" xmlns="http://www.w3.org/2000/svg" viewBox="0 0 305.37 214.32"><defs><style>.cls-1{fill-rule:evenodd;}</style></defs><path class="cls-1" d="M164.16,317.4a51.91,51.91,0,0,0-5.64,9.48l.24-5q3.6-64.8,1.92-128.4a116.1,116.1,0,0,0-4.92,30q-2.88,64.08-4.68,128.28a200.14,200.14,0,0,1-2.16,24.12c-1.92,12.12-.84,22.8,3.12,31.92a19.45,19.45,0,0,0,3.84-11.4c.36-15.6.84-31.2,1.56-46.68Q175.62,318,193.2,285.24l.6,1.92a525.27,525.27,0,0,1,16.68,57.48c2,9.24,3.84,18.36,5.4,27.48,1.92,11.64,5.88,21.48,11.88,29.64q3.42-20-4-41.4a123.41,123.41,0,0,1-4.32-15,677.11,677.11,0,0,0-20.88-70.2l17.52-33.24a57.35,57.35,0,0,1,7.2-10.92c9.48-11.28,13.56-23.28,12-35.88a976.17,976.17,0,0,0-62.76,108.6A89,89,0,0,1,164.16,317.4ZM302.88,208.08c-1.32,42.84-1.56,85.92-.6,129,.24,10.92,0,21.72-.6,32.4a137.42,137.42,0,0,0,1.92,32.64q7-6.84,6.48-18.72c-1-19.8-1.56-39.6-1.8-59.28L306.48,196C304.2,199.08,303,203.16,302.88,208.08Zm96.48,60.36a211.54,211.54,0,0,0-30.6,5.88c.12-26.28-.48-52.32-1.56-78.12a51.84,51.84,0,0,0-4,20q-.9,64.44-3.48,129c-.36,10.68-1.08,21.48-2.16,32.28-1,9.72.72,17.76,4.92,24a1.44,1.44,0,0,0,.84-.84q3.24-37.62,4.44-76.2c.48-12.6.84-25.2,1-37.68l53.64-4.32a13.86,13.86,0,0,0,.48-12.12l-.48-.84c-.36-.36-.6-.48-.84-.48ZM369.6,208.32a353.24,353.24,0,0,0,82,1.92,12,12,0,0,0,1.8-5.64,8.76,8.76,0,0,0-1.44-4.92l-.36-.84-.84-.48a123.58,123.58,0,0,0-22.08-1.68,216.29,216.29,0,0,0-59,4.32,9.77,9.77,0,0,0-.48,4.92l.12.84.24.72Z" transform="translate(-147.99 -193.44)"/></svg>