<svg id="Layer_1" data-name="Layer 1" xmlns="http://www.w3.org/2000/svg" viewBox="0 0 587.76 599.04"><defs><style>.cls-1{fill-rule:evenodd;}</style></defs><path class="cls-1" d="M251.88,482.76c9.6,1.56,18,7.8,25.32,18.72,7.68,11.64,11.52,25,11.52,40.08a52.17,52.17,0,0,1-1.8,10.08A103.35,103.35,0,0,1,280.44,570c-8.16,17.16-19,25.68-32.52,25.68-16,0-26.28-6.72-30.84-20.28a45.25,45.25,0,0,1-2.4-14.4l.12-7.56c0-25.68,3.84-44.76,11.64-57.12C233,485.64,241.56,481.08,251.88,482.76Zm75.48,48.12a3.24,3.24,0,0,1,.6,2.28q0,4.5-4.32,28.08l-.36,1.92c3.72-3,9.48-7.2,17-12.36q24.3-15.66,27.72-18.36a6.27,6.27,0,0,1,2,1.56,5.22,5.22,0,0,1,.6,2.76c0,2.16-7,7.92-20.76,17.4,4.8,3.72,10.8,8.88,18,15.24,12.72,11.4,19.08,18.36,19.08,21a9.69,9.69,0,0,1-.36,3l-1.32,2q-34.38-25.92-40.92-37.56c-10.44,7-18.12,11.76-22.92,14.52-2.28,11.28-4.44,18.72-6.24,22.44a2.8,2.8,0,0,1-1.44-1.44,6.48,6.48,0,0,1-.48-3c0-4.08,1.92-14.52,5.76-31.44,2.4-10.92,4.68-20.52,6.72-28.8ZM279,517.56c-2.52-6.72-7.8-11.76-15.6-15.24a52.21,52.21,0,0,0-8-2.76l-4.56-1.32-.6,2.52-.72,2.4-1.08.24.6-1.32a6.67,6.67,0,0,0,.48-2.76A13.19,13.19,0,0,0,249,496a12.64,12.64,0,0,1-.6-3.12c-10.68-6.6-19,.84-24.72,22.56a186.06,186.06,0,0,0-4.44,24.36c-.72,6.48-1.08,11.16-1.08,13.92a51,51,0,0,0,3,17.4c3.48,9.72,9.12,14.64,16.92,14.64,17.4,0,30.36-7.32,39-22a62.67,62.67,0,0,0,6.36-15.36,30.31,30.31,0,0,0,1.56-7.32c0-1.8-.84-5.88-2.64-12.24A104.93,104.93,0,0,0,279,517.56Zm51.12-85.8a50.2,50.2,0,0,0-7.2,1.2l-6.36,1.2c-.12,8.64-.36,18.72-.84,30.24l-.48,12.36q26.46-.9,36.36-6.12c4.08-2,6.12-5.16,6.12-9.24,0-1.32-.72-3.6-2.28-6.72a61.76,61.76,0,0,0-6.12-10C342.84,436.08,336.48,431.76,330.12,431.76Zm-8.16-9c4.44-.12,9.72,1.8,16,5.64a58.28,58.28,0,0,1,15.84,14.16c4.8,6.24,7.2,12.24,7.2,18.12,0,6.12-1,11-2.88,14.64-4,7.2-11.4,10.8-22.56,10.8l-20.64-.24-.12,19c0,12.48-1.08,22.8-3.24,30.84l-1.44.24c-.84-1.32-1.32-3.48-1.32-6.48l.84-10.2,1.32-14.16c.12-3,.12-7.44-.24-13.32l-.36-5.88H309l-.72-1.32a8.06,8.06,0,0,1-.36-2.76c0-2.4.6-4.08,1.68-4.92h.48c.12-9.12.24-16.44.48-22.08.72-16.68,2.28-27.6,4.68-32.88a10.25,10.25,0,0,1,1.08,2.88A7.35,7.35,0,0,1,322,422.76Zm12.72-121.2a27.14,27.14,0,0,1,3,13.2l-.24,2.52-.48,1.56c-.6-.6-1.08-1.92-1.68-4.2l-1.68-6c-1.8-5.28-5.16-7.92-10-7.92-11.4,0-20,11.52-25.68,34.44a183.63,183.63,0,0,0-5.16,35.64l-.12,6.24a44,44,0,0,0,1.8,11.76c3.12,10.92,10,16.44,20.52,16.44,11.4,0,19.2-4.56,23.28-13.8a34.39,34.39,0,0,0,2.64-10.08l.6-5.88.84-.36a26.58,26.58,0,0,1,1.32,7.8,44.79,44.79,0,0,1-3.84,17.4q-5.94,14.4-18.36,14.4c-16.32,0-26.52-6.84-30.6-20.64a47.3,47.3,0,0,1-1.8-14.88l.48-8.16a177.52,177.52,0,0,1,5.4-43.56c5-19.8,12.48-31.44,22.2-35.16C325.44,292.32,331.2,295.44,334.68,301.56Zm-61-54.12c4-5.16,6.72-8.28,8.28-9.24,1,1.8,1.56,8.4,1.92,19.92a1078.6,1078.6,0,0,1-6.84,123Q265.74,481,240.24,481t-31.32-43a191.46,191.46,0,0,1-1.68-29.76l.6-13.68q0-11.88,4.32-69.24,4.86-63,8.16-80.64a7,7,0,0,1,1.68,2.88,10.34,10.34,0,0,1,.48,3.72q-10.26,135.9-10.32,142.44c0,21.48.6,36.24,1.68,44.28,2.76,19.8,9.12,30,18.84,30.84,18.12-4.68,29.88-20.4,35.16-46.92a230,230,0,0,0,3.36-31c.72-13.2,1.2-20.76,1.56-22.56,1-11.4,2-28.2,3.12-50.4,1.2-23.16,2.28-40.2,3.12-51.12v-18.6l-.24-.6c-1.32.6-3.48,2.52-6.6,5.64l-6.72,6.6h-.84Zm67.8-1.08,1.92.24-1.08,2.16ZM108.24,417.72c-1.32,17.88-2.4,30.12-3.24,36.48v48.72q.18,4.32-.36,13.32l-.48,9.84c0,4.68,1.68,9.48,5.16,14.16,5.16,7.08,12.84,10.56,23,10.56,24.12,0,42.48-22.92,54.84-68.64a336,336,0,0,0,9.36-48.6c1.56-11.88,2.28-20.16,2.28-24.6,0-8.16-1.08-19.8-3.12-34.92-3.12-21.6-7.08-32.4-12-32.4l.24-4.92A23.58,23.58,0,0,0,182.28,326c-4.44-10.44-16.44-15.6-36.12-15.6Q119.88,338.52,112.44,381C110.88,390,109.44,402.24,108.24,417.72Zm-49.8-52.56-14-.24-.84-.36c-.6,5.16-1.8,12.24-3.36,21l.48-.24a51.15,51.15,0,0,1,9.6-2.16,59.53,59.53,0,0,0,9.72-2c3-1,4.44-2.28,4.44-4.08,0-1.32-.84-3.24-2.64-5.64A19,19,0,0,1,58.44,365.16Zm-14-7.32,14.28.24q5.58,5.4,7.2,9.36c1.08,2.28,1.56,5.4,1.56,9.36a14.15,14.15,0,0,1-4.92,10.56,21.86,21.86,0,0,1-6.72,4.08l6.36,13.44,6.6,14.64-.24,2.4-1.08,1.68c-1.56-1.32-4.68-7.2-9.6-17.4-2.76-5.88-4.8-10.32-6-13.56l-9.6,1-3.6-.12q-2.88,14.58-7.2,34.2a4.08,4.08,0,0,1-1.56-2,9.18,9.18,0,0,1-.36-3c0-2.64,1.44-12.48,4.44-29.4,3.24-18.48,6.12-31.8,8.52-40l1.2,1.08a5,5,0,0,1,.48,2.52V358Zm125.52-56.52q18.9,0,28.2,53.88a393.79,393.79,0,0,1,5.64,54.36c0,12.12-1.44,26.64-4.32,43.32a354.17,354.17,0,0,1-12.72,50.88q-9.18,26.82-20.52,42.12c-8.76,11.76-17.88,17.64-27.6,17.64-18.6,0-30.72-5.88-36.36-17.52a33,33,0,0,1-3-12.72l.12-6.84.6-9.72.72-13.8V449.28c.6-5.4,1.68-18,3.24-37.68a370.13,370.13,0,0,1,4.56-37.92c5.64-29,18.12-53.64,37.68-73.8Zm-80-245.4q-.18.36-1.8.36c-1.08,0-9.6-10.56-25.68-31.8C51.48,30,44.4,34,41.16,36.24L39,36l-.12-.6c-2.4,16-5,26.64-8,32.28a11.58,11.58,0,0,1-1.32-6.12q0-1.26,4-24.48C36,21.6,37.32,11.52,37.32,6.72a9.53,9.53,0,0,1,.36-3.12,4.12,4.12,0,0,1,1.56-1.92,18.27,18.27,0,0,1,2.4,9.24c0,3.24-.72,9.72-2,19.56C41.88,27,48.6,22,59.88,15.24L85.8.24a6.78,6.78,0,0,1,1.08,2l.24,2.88c0,4.2-6.12,9.6-18.36,16.32a69.23,69.23,0,0,1,10.8,11.16,85.53,85.53,0,0,1,7.68,11.28c2,3.72,3.12,6.36,3.12,7.92l-.24,3.6Zm46.2-44.4-6.84,1.08.12,2.52a34.11,34.11,0,0,1-1.56,8.4,67.81,67.81,0,0,0,22.92-5.16A16.1,16.1,0,0,0,136.08,11.52Zm17.76,11.76a6,6,0,0,1-2,3.72,17.52,17.52,0,0,1-3.72,1.92l8.76,8q12.6,12.24,12.6,15.48l-.36,2.88-1.08,2A158,158,0,0,1,151.44,42a142.42,142.42,0,0,1-10-11.16L132,32.52h-7.08l-1.08,2.88c-2.76,7.68-5,13.56-7,17.64a7.12,7.12,0,0,1-2.16-1.56,5.4,5.4,0,0,1-.48-2.76q0-2,5-18.36c2.16-6.84,4.08-12.48,5.64-17l-2,.24-.36-.72a7.5,7.5,0,0,1-.24-2.16c0-2.52,1.68-4.32,4.92-5.16a22.17,22.17,0,0,1,10.92-.12A25.83,25.83,0,0,1,149,9.84c3.24,2.52,4.92,5.4,4.92,8.64ZM291.6,191.64l-2,1.08,3.72-3.24a67.12,67.12,0,0,0-16.2,9c-4.68,3.72-7,7.32-7,10.8,0,4.2,3.72,8.16,11.28,11.88,8.28,4,18.72,6.48,31.44,7.32l9.72-.84c7.2.84,13.2-.6,18-4.08,3.72-2.76,5.52-5.28,5.52-7.8q0-2.34-4-6.48A51.9,51.9,0,0,0,331.2,201a69.34,69.34,0,0,0-36.48-10.44A5.45,5.45,0,0,0,291.6,191.64ZM279.84,185q11.34-5.58,28.8-2.16a72.81,72.81,0,0,1,28.8,12.6q13,9.9,13,20.52a20.51,20.51,0,0,1-4.56,13.2c-4.8,5.88-13,9-24.36,9.36l-4.68-.24-5-.6C291.48,234.24,278.28,230,272.4,225a13.72,13.72,0,0,1-4.92-7.56,37,37,0,0,1-.72-8.64C266.76,197.4,271.08,189.48,279.84,185ZM190,115.32l.24,2.64-.24,2.88a5.76,5.76,0,0,1-3.84,3.36H144l-2.52-.24-.36-2A19.53,19.53,0,0,1,141,119c0-9,.24-17.64.6-25.92.6-11.52,1.44-18.6,2.64-21.36,1.08,10.32,1.56,23.88,1.56,40.56,12.12.6,25.56.72,40.32.48A3.61,3.61,0,0,1,190,115.32ZM205.08,102c-.84,8.76-1.8,21.84-2.88,39.36-1.56,21.72-2.28,37-2.28,45.72a96.48,96.48,0,0,0,2.28,21.12c2.52,12.6,7,19,13.2,19,10.2,0,17.52-16.08,22.2-48.24,1.56-10.08,2.64-21.24,3.36-33.48q.72-11.34.72-16.2.54-14.4,0-19.08c-.36-3.6-2.52-11.4-6.48-23.52-4.8-14.76-11.16-17.4-19-7.92a53.51,53.51,0,0,0-7.68,13C206.52,96.36,205.32,99.72,205.08,102ZM194.64,88.2A100.74,100.74,0,0,0,178.8,77.88c-12.84-6.84-25-10.2-36.48-10.2q-51.3,0-84.24,40.56C41.4,128.76,29.52,154.68,22.68,186c-.6,3.24-3.6,13.56-8.76,31.2C10.2,230,8.16,240.12,7.8,247.68L6.6,278.52C6.24,290,6,299.88,6,308.16c0,1.32.24,3.72.6,7.2s1,6.6,1.56,9.48V402c1.2,6.36,3.24,20.76,6.12,43,2.28,18.36,4.92,32.88,7.92,43.8q12.78,46.8,46,67.08C83.64,565.32,101.52,570,121.8,570q32.94,0,51.48-14.76a44.76,44.76,0,0,0,9.84-10.44l3-5.4a45.74,45.74,0,0,0,4.08-8.76l2.52-8.52c2-6.48,5.16-11.28,9.12-14.4,1.68,1,2.76,2.76,3.12,5.4l.12,5.16c0,1.68-1.32,5.64-4.08,12a132,132,0,0,1-12.36,23q-22.14,32.22-52.2,32.16-43,0-70.32-16.32Q42.18,554.94,28.56,527.4q-10.8-22.14-17-57.36-2.16-12.42-4.68-31.32L2.76,407.4V330.24c-.6-3.48-1.08-7.68-1.56-12.72-.36-4.68-.6-7.8-.6-9.24a547.88,547.88,0,0,1,6.12-82.56c4.68-30.12,11.64-56.88,20.88-80Q43.26,106.26,66.48,84,92.4,59,126.6,56.52c24.12.84,42.24,4.68,54.24,11.76Q193.8,76,196,87.36l.24.48C196.32,88.08,195.72,88.2,194.64,88.2ZM218.16,68c4.2-2.76,7.92-3.36,11.4-1.8q5.94,2.88,9.36,14.4c3.48,10.56,5.52,19.2,6.12,25.8.24,2.76.36,10.2.36,22.44a487.73,487.73,0,0,1-4.08,55.56q-7,53.28-22.68,53.28c-10.08,0-16.8-8.16-20.28-24.36a103.47,103.47,0,0,1-2-17.28l-.12-8.76c0-12.12.72-28.8,2.28-50.16,1.56-20.64,3-35.76,4.44-45.48a33.15,33.15,0,0,1,5.28-12.84C211.2,74,214.44,70.44,218.16,68Zm-23.4-30.12a9.4,9.4,0,0,1-.24-2.52c0-1.32.36-2.28,1.08-2.64a10.9,10.9,0,0,1,3.84-1.32l13-26q3.42,8.1,9.72,28.44c4,12.84,6,20,6,21.48l-.24,4.44a1.51,1.51,0,0,0-.84.48l-1.32.6c-2.88-4.68-5.28-11.4-7.32-19.92l-.12-.6-16.08-.24c-4,7.08-8.16,12.48-12.72,16.2a8.07,8.07,0,0,1-.36-3.24q0-1.08,6.48-14ZM212.4,19.8,206.88,31l4.2.12,5.16.24-2.52-10.2ZM322.68,5.28,323,3.84a2.37,2.37,0,0,1,.6-1.68c4.08,6,6.6,14.28,7.68,24.84.48,4.2.72,13,.72,26.16q0,5.22-2.16,22a384.43,384.43,0,0,1-7.56,42.6q-14.58,60.12-39.84,60.12c-14.64,0-23.88-7.08-27.84-21.12a63.87,63.87,0,0,1-1.92-15.36v-8.52c-2.16-12.72-3.24-29.52-3.24-50.28a383.41,383.41,0,0,1,2.4-39.12c2-18,4.44-29.88,7.32-35.64,1.44.84,2.16,2.52,2.16,4.92q0,1.26-4.32,29.52-4.32,28.08-4.32,40.32c0,24.12,1.08,41.64,3.24,52.8,4.2,21.84,13,32.76,26,32.76,15.24,0,27.6-18.84,36.84-56.64A359.69,359.69,0,0,0,328.2,53a174,174,0,0,0-2-25.92c-2.16-13.2-5.4-20-9.6-20.4Q322,6.72,322.68,5.28Zm32.16,295.08.48-1c2.28.72,3.6,3.6,3.84,8.64a61,61,0,0,1-.36,9c0,4.92-1,17.16-2.76,36.6a115.38,115.38,0,0,1,18.48-2.88c0-.12.6-.24,1.68-.24h9.72c3-23.16,5.4-41.28,7.32-54.36a54.5,54.5,0,0,1,1.32,13c0,6.24-1.92,25.2-5.76,57-3.72,31.44-6.24,49.56-7.56,54.24-1.92-2.4-2.88-4.32-2.88-5.64q0-3.78,5.76-50l.72-5.52c-7.56-.6-13.68-.36-18.12,1-3.48,1.56-5.52,2.28-6.24,2.28l-5.16-.6-.36,3q-4.5,45.18-8.28,59.4a2.75,2.75,0,0,1-1.44-1.8,7.4,7.4,0,0,1-.48-3.12c0-3,1.56-18.36,4.8-46.08s4.92-51.36,4.92-70.44A5.9,5.9,0,0,1,354.84,300.36Zm142.56,21V382.2q-1.08,26.46-2.64,79.2-1.62,46.62-4.68,79.08V572.4l1.68-2.16,1.8-2.16.6.48a5.08,5.08,0,0,1,.24,1.92,43.45,43.45,0,0,1-2,12.24l-.12.48,10.2-6.36c13.08-8.4,23.4-16.44,31.2-24.12a173,173,0,0,0,30.72-39.84c4-7.08,8.28-20.28,13.08-39.48s7.2-32.88,7.2-41.28q0-42.3-12.36-75.24c-14.4-38.52-39-55.2-73.8-49.8A100.64,100.64,0,0,1,497.4,321.36Zm.48-23q57.78-5.94,79.32,54.12,11.16,31.32,11.16,79.32c0,18.12-.72,31.44-2.16,39.84-2,11.28-6.84,25.8-14.52,43.68-1.68,3.84-5.16,9.72-10.56,17.64A290.37,290.37,0,0,1,541.2,559.2q-29.34,34-48.72,34.08a8.44,8.44,0,0,1-4.68-1.08l-1.2,1.32a5.34,5.34,0,0,1-1.08-2.4,12.08,12.08,0,0,1-.36-3.24,13.38,13.38,0,0,1,.36-3.24l.72-2.52v-47q5-46.08,6-70.44c.36-8.28.48-27.84.48-58.68,0-2.64.48-10.8,1.44-24.36V316.68c.72-1.56,1.08-4.92,1-10.08l-.6-.84a8.37,8.37,0,0,1-.36-2.88c0-2.16.48-3.6,1.56-4.32h.36l1-1.56ZM452.4,249.84q-38.52,0-49,88.2a569.08,569.08,0,0,0-3.6,68.88l1.68-1,62,.36,1.2,2a8.06,8.06,0,0,1,.36,2.76,8.37,8.37,0,0,1-.36,2.88l-1.2,2-62,.24-1.68.36.6,19.68,2.16,75.48c.36,17.52,1.56,30.12,3.48,37.8a74.47,74.47,0,0,0,21.72,37c22.2-3.72,34.8-9.24,37.8-16.68.36-.84.84-3.84,1.44-9.24a13,13,0,0,1,4.32-8.52,14.52,14.52,0,0,1,1.92,7.32,37.17,37.17,0,0,1-1.2,6.72,76,76,0,0,1-4.2,13.68q-8.1,19.44-22,19.44-26.46,0-37.44-16.92A44.93,44.93,0,0,1,403,569l-1.92-9.6a127.41,127.41,0,0,1-2.16-19.8l-.6-20.76c-.6-11.4-1.08-28.08-1.56-50-.36-17.28-.6-28-.6-31.92,0-15.48.72-35.28,2.28-59.52l3.48-60.72q1.26-32.76,13.68-52.92c7.2-11.64,16.08-18.72,26.76-21.48,9.84-2.52,18.48-.72,26,5.16,7.8,6.36,11.64,15.36,11.64,27.24l-.24,3L478.68,280a71.32,71.32,0,0,0-6.48-15.6C466.8,254.64,460.2,249.84,452.4,249.84ZM373.2,118.2l.36-.36,1.2-.72a18.44,18.44,0,0,1,1.32,7c0,2.64-1.32,11.52-3.84,26.52-2.88,16.68-5.28,27.6-7.2,33a243.81,243.81,0,0,1-9-25.92l-7.8-26.76-.48-.48C346,134.88,344,143,341.88,155c-2,10.8-4.56,19.32-7.68,25.56l-1.32.24-.6-.84-.24-2.4q7.92-44.46,15.72-60.48c1.8,5.28,4.56,14.16,8.28,26.76,3.48,11.28,6.24,20,8.52,26.4,1.32-5.88,2.88-14.16,4.44-25.08C371,131.4,372.36,122.4,373.2,118.2Zm94.92-110a15.33,15.33,0,0,1,2,3.84l1,3a10.57,10.57,0,0,1-.6,3.48l-1.8,3.12-16.56-.72H423.24L396.6,22.56l.12,5.16q0,22.14-9.72,140.76v43c-.72,5.88-1.68,20.88-2.88,45.24-.84,18.36-2.76,33.24-5.76,44.88a10.66,10.66,0,0,1-2.88-4.56,15,15,0,0,1-1-4q0-13.14,2.88-46.8c1.8-21.72,3.12-35,4.2-39.72v-43q1.8-16,2.52-38.52L385,86.52c.72-25.8,3-47,6.72-63.72l-7.2.36L342,25.2a4.71,4.71,0,0,1-3.24-3.12,21.1,21.1,0,0,1-.24-3.72,18.41,18.41,0,0,1,.24-3.6A4.48,4.48,0,0,1,342,11.64l44-1.92,37.2-2.4L454.8,8C457.68,8.16,462.12,8.28,468.12,8.16Z" transform="translate(-0.6 -0.24)"/></svg>