<svg id="Layer_1" data-name="Layer 1" xmlns="http://www.w3.org/2000/svg" viewBox="0 0 309.38 209.97"><defs><style>.cls-1{fill-rule:evenodd;}</style></defs><path class="cls-1" d="M277.8,395.4c2.4-23.64,3.72-47.4,4-71.52q.72-65-2.28-128.28A510.76,510.76,0,0,0,274,269.76c-.12,42.84-.6,85.68-1.56,128.28q.72,2.88,3.24,2.16A7.39,7.39,0,0,0,277.8,395.4ZM156.6,199q-3.06,43.74-2.88,89.28c.12,21.6-.72,43.2-2.4,64.68a244.86,244.86,0,0,0,.72,48,9.74,9.74,0,0,0,5.64-9.12L160,329.28q16-24.66,29.64-51,6.48,36,15.12,72.12a211.78,211.78,0,0,1,4.8,28.56c1,9.6,4.2,16.44,9.84,20.64l1.08-1.68a20.92,20.92,0,0,0,1.08-12.12l.6-.84a3.47,3.47,0,0,0,.24-3.24l-.24-.36c-1.08,1-1.92.84-2.4-.36l-.12-.84a709,709,0,0,0-27.72-106.32c4-7.8,7.8-15.84,11.52-23.88a169.67,169.67,0,0,1,14.76-25.68c7.08-10.32,9.12-19.92,5.88-28.92a513.59,513.59,0,0,0-27.24,49.32,385.36,385.36,0,0,1-28.92,49.44,55.86,55.86,0,0,0-7.32,15l1.2-46.32a374,374,0,0,0-4.32-64.2A1.85,1.85,0,0,0,156.6,199ZM313,214c-5,8.76-7.68,17.64-7.8,26.88l.72.12q23.22-22.5,6.12-46.08a.8.8,0,0,0-1.2.6c-1.8,5.88-.84,11.52,2.76,16.92Zm145.92-18.24A92.29,92.29,0,0,0,454.8,220l-2.88,68.52A61.79,61.79,0,0,0,424.44,295q.18-36.18-1.8-72c-3.12,2-4.68,5.4-4.8,10.08-.6,43-1.56,85.92-3.12,129a77.37,77.37,0,0,1-2,15.84c-2.28,9.84-1,17.88,4,24.24a3.68,3.68,0,0,0,2.16-3c1.8-15.84,3.24-31.8,4.08-47.88q1.26-22.68,1.44-45a171.45,171.45,0,0,0,26.88-3.36L449,348.24c-.48,8.16-1.32,16.2-2.4,24.12q-2.52,17.82,3.6,32.4a1.69,1.69,0,0,0,1-1.44c2.16-26.52,4.08-52.92,5.64-79.44q4.14-64.8,2.64-128.28Zm-33,3.12q-46.08,0-90.6,1.44l-.36.72a12.67,12.67,0,0,0,0,7.32,252.4,252.4,0,0,0,42.84,6.12q-3.42,62.64-6,125.4c-.36,10.8-1.2,21.6-2.28,32.28-1.2,12.24.24,22.8,4.44,31.8A33.58,33.58,0,0,0,378.36,386c-.36-17.28-.12-34.56,1-51.84q3.42-60.66,2.16-119.64a253,253,0,0,0,44.4-2.16l.48-.6A11.6,11.6,0,0,0,425.88,198.84Z" transform="translate(-150.48 -194.79)"/></svg>