<svg id="Layer_1" data-name="Layer 1" xmlns="http://www.w3.org/2000/svg" viewBox="0 0 595.57 842.18"><defs><style>.cls-1{fill:#fff;}.cls-2{fill:none;stroke:#fff;stroke-linecap:round;stroke-linejoin:round;stroke-width:0.38px;}.cls-3{fill-rule:evenodd;}</style></defs><rect class="cls-1" x="0.31" y="0.31" width="595.08" height="841.68"/><rect class="cls-2" x="0.19" y="0.19" width="595.2" height="841.8"/><path class="cls-3" d="M263.16,316.68q-5.76,5.58-4,14.76L257,334.8l.6,2.28,2.4-1a314.64,314.64,0,0,1,2.4,96.6q-5,38.52-33,63.24a19.28,19.28,0,0,1-10.68-3.6c-13.68-10.08-20.16-24.36-19.32-42.72.6-11.88.6-23.64.12-35.52a365,365,0,0,1,5.16-78.6c1.32-7.44-.36-12.36-4.8-14.88a70.53,70.53,0,0,0-4.2,17.88c-2,17-3.24,34.32-3.72,52a511,511,0,0,0,5.76,94c3,19.32,13.8,29,32.52,29.4q32.4-27.18,39.24-70.32a312,312,0,0,0-6-127ZM45.36,383.76a381,381,0,0,0,6.48,127.8,58.79,58.79,0,0,0,10,22.32q18.9,25.56,52.56,19a33,33,0,0,0,17.52-9.36,161.25,161.25,0,0,0,19.44-23.64A369.27,369.27,0,0,0,194,562.68a22.64,22.64,0,0,0,18.36,5.64,27.06,27.06,0,0,0,18-10.56c10.2-12.84,14.4-26.52,12.6-40.92-4,1.08-7.08,4.32-9.36,9.6a82.63,82.63,0,0,1-15.36,23.64,7.75,7.75,0,0,1-4,.72c-16-.84-29.52-8-40.44-21.6a110.49,110.49,0,0,1-12.48-19.32l-1.92-3.48q18.72-35.1,17.28-78.72a245.05,245.05,0,0,0-10.2-62.76c-11-36.6-35.16-58.56-72.36-65.64-14.16,6.12-25,16.32-32.28,30.48A157,157,0,0,0,45.36,383.76Zm77.88-63.24,2.16,8.64,4.32,3.48,1-.12q44.1,45.9,37.8,111.6a162.84,162.84,0,0,1-8.64,38.52,97.73,97.73,0,0,1-6.72,14.4c-10-12.6-22.32-19.08-37.32-19.44a11.65,11.65,0,0,0-1.32,13.2h4l1.56,1.32c11.28-.12,19.32,6.12,24.24,19-10.44,16.56-25.08,25-44.16,25.32a53.71,53.71,0,0,1-20.4-3.48,16.21,16.21,0,0,1-9-7.68,127.82,127.82,0,0,1-14.4-36.12,367.18,367.18,0,0,1-9.12-81.84c.12-28.8,9-54.12,26.88-76a78.27,78.27,0,0,1,19.8-17.4l27,5.28Zm5.16-215q-.18,64.44-3.72,128.4A313.73,313.73,0,0,1,121.2,266c-1.92,12.12-.72,22.8,3.72,31.92a9.51,9.51,0,0,0,2.88-6.48l5.52-91.68.36-4.08a72,72,0,0,0,30.36-.48q-.9,38.16-2.4,76.32c-.6,12.24,1.32,22.8,5.52,31.8q4.68-51.12,5.52-103.92,1.08-64.8-1.44-128.28a486.54,486.54,0,0,0-6.12,71.4l-.6,37.68c-10.2,1.56-20.28,3.24-30.36,5.28a1033.15,1033.15,0,0,0-.84-114.12A113.5,113.5,0,0,0,128.4,105.48ZM97.92,80.4,111,89.28Q107.4,58,83.52,75.48A64.07,64.07,0,0,0,58.8,112.2c-3.72,14.52-7.2,29.16-10.56,43.8a220.22,220.22,0,0,0-5.64,40.44A182.18,182.18,0,0,0,45.12,236a215.85,215.85,0,0,0,10.32,38.88c6.48,17.4,18.48,21.24,35.88,11.76,14.28-7.68,22-19.68,23-35.88a30.7,30.7,0,0,0-1.32-11c-7.56,22.44-22.32,34.8-44,37.08q-39.06-72-9.36-155.52A82.22,82.22,0,0,1,81,88.68,29.47,29.47,0,0,1,92.52,82ZM208.2,83.52a70.94,70.94,0,0,0-15.6,34.68,674.05,674.05,0,0,0-7.92,128.64,90.46,90.46,0,0,0,6.84,31.8q13,31.86,44.4,12.6a55.27,55.27,0,0,0,23-28q23.22-62.1,8.16-126.24l-5.64-24q-7.2-31.86-36.36-39.72A27.81,27.81,0,0,0,208.2,83.52Zm7.44,6.84c7.08-3.72,13.92-4.08,20.76-1.32l.72.48A211,211,0,0,1,262.8,162a169.73,169.73,0,0,1,.6,50.52,172.88,172.88,0,0,1-11.16,42.24,38.13,38.13,0,0,1-9.84,14.4c-9.48,8.64-20.4,11.76-32.76,9.24-8-1.44-13.08-6.84-14.88-16.2a333,333,0,0,1-1-121.92,150.31,150.31,0,0,1,7.56-27l1.32-3a88,88,0,0,1,8.76-14.52Zm94.44-14.28c-1.56,17.4-2.52,35-2.88,52.68-.84,42.84-2.16,85.68-4,128.28-1.8,43.08-4,86-6.72,129s-5.64,86-8.64,129.12A114.36,114.36,0,0,1,285.72,531c-2.52,12.72-1.2,23.28,4.08,31.8a21.25,21.25,0,0,0,5-13c1.08-30,2.88-60,5.64-90q5.94-63.72,7.44-128.4t3.6-129c1.32-43.44,1.92-86.16,1.56-128.28h-.36A5.23,5.23,0,0,0,310.08,76.08ZM471.24,308.76q-23.22-1.26-32.4,24.48a302.77,302.77,0,0,0-11,39.6,313.66,313.66,0,0,0-5.88,41.28,299.47,299.47,0,0,0-.12,34.44,299.83,299.83,0,0,1-.24,37.44,107.55,107.55,0,0,0,6.12,44.52c6.48,17.88,17.52,23.64,33,17.28,15.24-6.36,25.08-17.4,29.76-33.12a48.56,48.56,0,0,0,1.44-22l-3.36-.48-3.84,7.2-3.12,1.08,1.68,3.24c-5.52,15.72-16.32,25.56-32.28,29.4a12.49,12.49,0,0,1-7-.12c-18.36-29.64-23.4-63.48-15.36-101.28l40-7.08c3.6-5.88,3.48-11.76-.48-17.52l-39.48,11q-4.14-53.64,30.24-94.56c10.2-1.56,18.84,1.44,25.92,8.76l2.76,3.12c1.32-9.84-2.64-18-11.64-24.6A14,14,0,0,0,471.24,308.76ZM421.2,205q-7,69.12-70.44,95.76l1-34q1.08-64.26,7.2-128.16a425.36,425.36,0,0,0,1.68-50.76q31.5-.18,45.6,29.52A163.11,163.11,0,0,1,421.2,205ZM358.08,75.6l-.24,1.2h-.12l-1.08.6a13.31,13.31,0,0,0-1,4.92,8.61,8.61,0,0,0,.72,3.48c-3,19.32-5.16,38.76-6.36,58.56-2.52,42.36-4.2,85-5,127.56a1167.09,1167.09,0,0,1-9.48,128.28Q327.24,463.56,320.88,527v-1.32a148.3,148.3,0,0,0-.6-22l-2,21.84c-1.32,13.56-.24,25.92,3.24,37.2a130.52,130.52,0,0,0,9.24-40.2q4.86-63.9,12.36-127.68c3-25.8,5.28-51.84,6.84-77.88a128.34,128.34,0,0,0,22.44-10.44l.12.48q9.54,53.46,19.2,106.68,11.7,63,21.36,126.36c1.8,12,5.52,22.08,10.92,30.24l.72-.84a34.9,34.9,0,0,0,4-23.52c-.24.36-.36.6-.24.72.36,2.64-.24,4.32-2,5-1.32-1.2-2.28-3.36-2.88-6.36L400.56,419.28c-7.08-39-14.52-77.76-22.2-116.52q32.94-22.5,43.92-65.76,16.38-64.08-9-125.64-13.86-34-49.68-35.28l-3.6.36-.12-2C358.8,74.28,358.2,74.64,358.08,75.6Z" transform="translate(0.19 0.19)"/></svg>