<svg id="Layer_1" data-name="Layer 1" xmlns="http://www.w3.org/2000/svg" viewBox="0 0 595.57 842.18"><defs><style>.cls-1{fill:#fff;}.cls-2{fill:none;stroke:#fff;stroke-linecap:round;stroke-linejoin:round;stroke-width:0.38px;}.cls-3{fill-rule:evenodd;}</style></defs><rect class="cls-1" x="0.31" y="0.31" width="595.08" height="841.68"/><rect class="cls-2" x="0.19" y="0.19" width="595.2" height="841.8"/><path class="cls-3" d="M339.84,286.08a125.28,125.28,0,0,1-1.32,45.36,83.11,83.11,0,0,1-19.44,38.76C307.8,383,294,386.88,277.8,382c-14.52-4.44-23.28-14.88-26.4-31.56A262.76,262.76,0,0,1,247,308a187.23,187.23,0,0,1,3.84-43.32A90.09,90.09,0,0,1,269.52,225c11.64-14.16,23.52-19.92,35.88-17.16a103.85,103.85,0,0,1,22,33.72A184.7,184.7,0,0,1,339.84,286.08Zm-184.2,18q1.8-55.44.72-109.8c-3.12,5.76-4.8,12.84-5.16,21.12q-2.88,64.26-5.4,129a326.57,326.57,0,0,0,3.6,63.84,48.3,48.3,0,0,0,4.32-21.6c-.12-17.76.24-35.64.84-53.64a12.73,12.73,0,0,0,4.2-5.52q13.5-28.26,28.44-55.68a756.73,756.73,0,0,1,25.92,112.08c1.32,9.24,4.32,16.32,8.76,21.48a10.14,10.14,0,0,0,2.64-6.6,89.66,89.66,0,0,0-1.44-18,717.32,717.32,0,0,0-31.92-116.28q13.68-24.84,28.68-49c4.92-7.92,5.88-15,3.12-21.24-16,23.4-31,47.76-45.12,73.32-4.68,8.28-9.84,16.44-15.24,24.24A69.5,69.5,0,0,0,155.64,304.08ZM308,193.8A19.91,19.91,0,0,0,294.36,191c-17.88,8-30.48,21.24-37.92,39.84Q232.14,291.72,243.12,357q4.86,28.8,29.76,42.48a28.47,28.47,0,0,0,21,2.76q37.08-9.18,47.64-46.8a199.87,199.87,0,0,0,7-54.36c-.36-40.92-12.72-76.68-36.84-107.28l-1.08.48-1.08.24Zm56.4,56.4c-3,15.48-5.28,30.84-7.08,46.32a309.71,309.71,0,0,0-1.68,43.56,137.59,137.59,0,0,0,8.88,43.8,115.69,115.69,0,0,0,4.8,11.16c10,10.92,22.56,15.24,37.8,12.72a56.36,56.36,0,0,0,33.36-17.52l3.6-4.32,3.24,20.4a139.93,139.93,0,0,0,5.52-67.08l-18.36,4.08a8.88,8.88,0,0,0-1.68,9.6l.6,1.56,11.88-1.8-.72,13.68c-11.64,14.52-26.88,22.2-45.6,23-11,.6-19.08-3.72-24.24-13a92,92,0,0,1-11.64-41.28,249.81,249.81,0,0,1,1.8-42.36,427.91,427.91,0,0,1,8.64-46.44c2.88-11.64,9.36-20.28,19.56-25.92q31-16.74,54.36,8.76c1.08-16.92-7.8-26.88-26.4-29.76-16.68-2.28-30.36,3.12-40.92,16.44A76.26,76.26,0,0,0,364.44,250.2Z" transform="translate(0.19 0.19)"/></svg>