<svg id="Layer_1" data-name="Layer 1" xmlns="http://www.w3.org/2000/svg" xmlns:xlink="http://www.w3.org/1999/xlink" viewBox="0 0 582 591.6"><defs><style>.cls-1{fill:none;}.cls-2{clip-path:url(#clip-path);}.cls-3{fill-rule:evenodd;}</style><clipPath id="clip-path" transform="translate(-8.88 -0.84)"><rect class="cls-1" x="8.88" width="582.12" height="592.56"/></clipPath></defs><g class="cls-2"><path class="cls-3" d="M433.92,548c0,3.24-5.16,9.36-15.6,18.12,14.88,9.36,24.48,17.16,28.8,23.28l.24.72c.12.48-.48.72-1.56.72-2.88,0-13.44-6.48-31.56-19.56l-1.2-.84-1.32,1.08c-10.56,8.28-19.08,14.52-25.44,18.48l-1.44-.24c-.36-.12-.48-.84-.48-2q0-.54,18.36-16.92l4.92-4.2c-13.56-9.84-20.28-15.24-20.28-16.2a13.18,13.18,0,0,1,.12-2.52l.36-1q5.58,4.14,24.48,15.48c8.4-7.32,15.36-13.2,20.76-17.64l.6,1A7.88,7.88,0,0,1,433.92,548Zm-39.6-25.44,1.56.12.48-3.36c1.68-12.12,3-19.44,4-21.84l1.68,2.4c-1.56,5.76-2.64,13.32-3.48,22.8V523H412.8c.48.12.84,1,1.2,2.52a147.37,147.37,0,0,1,4.2-26.16H419l.72,2.16v2.76c0,5.64-1.32,20.28-4,43.8h-1.92l-.36-.72a5.94,5.94,0,0,1-.24-2c0-6.36.24-12.48.6-18.12l-.24,1.44H398c-.84,8.76-1.44,14.88-2,18.12l-.48.48-.6.84a8.79,8.79,0,0,1-1-3,27.37,27.37,0,0,1-.12-3.6c0-2.28.48-6.84,1.32-13.68l-.48-.48a5.47,5.47,0,0,0-.6-2.52Zm-22.8-24.24q3.6.9,3.6,8.64a7.5,7.5,0,0,1-.24,2.16l-.84.48-2.4-3.48c-1.08-1.44-1.92-2.16-2.76-2.16-5.76,0-10,4.08-12.72,12.36a48.75,48.75,0,0,0-2.4,14.28c0,2,1.32,4.56,4.08,7.8s4.92,4.8,6.72,4.8c4.32,0,8.88-1.92,13.56-5.64,3.48-2.76,5.52-4.68,6-6l.24-.24.24,1.8c0,2.76-1.56,6-4.8,9.72-3.72,4.44-7.8,6.6-12,6.6-5.64,0-10.08-2.88-13.2-8.64a21.17,21.17,0,0,1-3-9.84,44.18,44.18,0,0,1,11.76-28.56C366.6,499.2,369.24,497.88,371.52,498.36Zm-269.88-35a165.36,165.36,0,0,1-3.36,33.6c12.48,0,19-.12,19.56-.48l14.28.24.84,1a7.88,7.88,0,0,1,.24,2.28,8.56,8.56,0,0,1-.24,2.28l-.84,1-7.32.48-8,.84-20-.24-.6-1.08-.24-2.52c0-23.52,1.68-39.36,4.92-47.52C101.4,455.28,101.64,458.64,101.64,463.32Zm216.6-24.48c-2.64,16.2-5.64,32.88-9,49.92l-4.44,21.6a68.53,68.53,0,0,1,12.36-3.12l12.36-.72,1.2.12q-9-49.86-11.28-74.64Zm3.36-31.44c.48,12.48,2.16,27.48,4.92,45,1.56,10,4.08,25.08,7.56,45.12,1.08,7.08,4.32,24.36,9.48,51.84,4.44,23.52,6.72,36.12,6.72,37.8a11.13,11.13,0,0,1-.36,3.12l-1.32,2.16c-3.12-8.52-8.52-34.2-16.32-76.8h-.12c-3.72,2.16-11.4,3.24-23.28,3.24l-5.76-.48c-7.32,33.36-13.8,57-19.68,70.8a9.25,9.25,0,0,1-2.16-1.8,5.22,5.22,0,0,1-.6-2.76q0-3.24,16-71.28,15.66-66.78,22-97.2c.12-2.76.12-4.44.24-5.28q.36-2.52,1.44-3.24l.24-.84.24.72Zm-232,5.4q0,4.5-.72,12.24l13-1.2,2-.48a2.1,2.1,0,0,0,1.44-2.16q0-.9-2.16-4L99.72,413l-10.08-.48ZM82.32,426v-.24l2.52-.24c1.08-8.76,2-15.36,2.64-19.56a4.14,4.14,0,0,1,1.44,1.44l11.88.24a28,28,0,0,1,5.52,7.32,15.41,15.41,0,0,1,1.8,7q0,3.78-1.08,5.4c-1.32,1.8-4.2,3-8.76,3.36,1.56,1.2,4.8,5,9.72,11.4,5.28,7,7.92,11.28,7.92,13.08l-.36,2.52-.72,1.08a43.9,43.9,0,0,1-6-7.68c-2.52-4.08-4.2-6.6-5-7.68-3.72-4.56-9-8-15.84-10.56l-.36,2.28a223,223,0,0,0-2.28,23.16l-.36.48-.72.84-1.92-.24-.48-2a19.91,19.91,0,0,1-.24-2.88c0-1.8.72-9,2.28-21.6l.12-1.2-1.68-.48a7.77,7.77,0,0,1-.24-2.76A10.5,10.5,0,0,1,82.32,426ZM66.84,12.84A57.33,57.33,0,0,0,45.12,8.4c-8.76-.24-16,1.08-21.72,4.08-6.6,3.36-9.84,8.4-9.84,15,0,1.8,2.4,4.44,7.32,8,5.4,4,10.2,5.88,14.64,5.88C50.76,41.4,61.8,40,68.64,37L67,35.16a8.38,8.38,0,0,0-5.4-2.4l-7,.6c.36.6.12,1.2-.6,1.8l-.6-.6a9,9,0,0,1-.24-2.4c0-6.36,5.16-6.48,15.36-.48l4.68,2.88,1.32-1.32a7.93,7.93,0,0,0,2.64-6l-.48-3.72C76.68,19.32,73.44,15.84,66.84,12.84ZM128.4,76l-.84.84A45.43,45.43,0,0,0,119.4,67,35.53,35.53,0,0,0,95,57.36q-15.12,0-31.32,25.2A159.09,159.09,0,0,0,48,113.4L37.08,142.32a205.4,205.4,0,0,0-8.4,29.52L16.8,233.64a348,348,0,0,0-4.08,55.8c0,6.6.72,21.6,2.28,45.12,2.16,34.68,5,66.36,8.76,95.28Q41.22,567,73.44,567c11.4,0,20.4-1.2,27.24-3.48a37.47,37.47,0,0,0,16.08-10.44c3.36-3.72,7.08-9.48,11.16-17.4,4.92-10.08,9.12-18.24,12.6-24.36a9.61,9.61,0,0,1,2.16,6.48c0,1.44-1.32,5.28-3.84,11.4a152.9,152.9,0,0,1-11,21.12c-12.36,19.56-25.44,29.4-39.24,29.4-11.4,0-20.52-2.16-27.48-6.36-6-3.72-10.68-9.24-14.16-16.56-2.4-5.16-4.68-12.84-6.72-22.8-2.88-13.68-4.8-22.2-5.76-25.44-2.88-10.08-5.64-22.2-8.4-36.36l-6.6-36.72c-1.32-6.84-3.36-31-6.24-72.12-2.88-40.2-4.32-64.92-4.32-73.92,0-25.8,1.32-47.52,4-64.92Q17,197.7,29.52,154c3.48-11.88,7.08-22.92,11-33.12a312.34,312.34,0,0,1,15.6-34.2c4.44-8.52,8-14.64,10.68-18.12A53.44,53.44,0,0,1,85.32,53c10.44-5.4,20.88-4.32,31.2,3.12A35.9,35.9,0,0,1,126,66.24c2.28,3.72,3.24,6.72,2.88,9.24ZM88.56,48.12a22.16,22.16,0,0,1-15.12-6c-3,3.24-7.32,4.92-13,4.92C39.24,47,24.72,44.4,17,39a13.25,13.25,0,0,1-6-11.4q0-8.46,7.2-14.76c3-2.52,9.48-6.48,19.44-12l17.4,1.32C65.76,2.16,73,5.4,76.44,12c1.56,2.88,2.4,6.72,2.4,11.64A37.9,37.9,0,0,1,76.8,37L84,42.48a22.39,22.39,0,0,0,8.16-1.8q.9-.36,5-2.52l1.68,1.56c-.12,1-1.08,2.4-2.88,4.44C93.6,46.8,91.08,48.12,88.56,48.12ZM157.8,6.84l.12,3.6a44.56,44.56,0,0,1-4.2,18c-3.12,7.08-7.2,12-12.12,14.64-9.6,1.56-16.44-.84-20.4-7.32a23.17,23.17,0,0,1-3.36-12.48c0-1.8.72-5.16,2.28-10.32a92.62,92.62,0,0,1,3.12-9.12l2,2.16a3.3,3.3,0,0,1,1,1.8,46.28,46.28,0,0,0-3.12,5c-2,3.84-3.12,7.32-3.12,10.44a15.34,15.34,0,0,0,2.16,7.32,11.28,11.28,0,0,0,10.56,6.24q16.92,0,21.6-14.76a54.75,54.75,0,0,0,1.92-18.6h.84Zm137.76,153.6L305.88,220c2.52,14.88,4.2,26.16,5,33.72,1,8.28,1.56,17.52,1.8,27.48.12,5.76.24,19.2.24,40.32q0,34.74-8,79.68a562.71,562.71,0,0,1-22.8,88.68c-10.68,30.6-22.68,54.72-35.88,72.12-15,19.8-30.84,29.64-47.28,29.64-16.92,0-28.44-10.68-34.32-31.92a127.47,127.47,0,0,1-4-24.36l-1-16.2q-1.08-12.06-2.52-36.72l-2.52-37.92q-3.06-34.74-5.4-71-3.42-50.58-3.36-77.16c0-18.12.84-40.68,2.52-67.8,2-33.84,5-65,8.76-93.72Q172.86,15.06,201.12,4.08q57.78-.54,79.8,67.68c4.8,14.64,8.4,32.16,10.8,52.68C293,135.12,294.36,147.12,295.56,160.44Zm38.76-27.24q-2.88-18.54-4.32-31.68l-8.88,33Zm8.88-.6c.24.36.48.48.6.48A4.61,4.61,0,0,1,344,135l-.12,1.92a3.18,3.18,0,0,1-2.28,1.56l-4.32,1c1.8,12,4.08,24.48,6.72,37.32v4.68l-.48.36-1.08.72L335.76,142l-.48-2.28L319.92,141l-.48,1.56h-.6c-4.2,15.48-6.72,28.56-7.32,39.12-.12,0-.24.12-.36.48l-.72.84a11.35,11.35,0,0,1-.84-3.48,26.56,26.56,0,0,1-.24-3.84c0-3.72,2.16-14.76,6.6-33.24l-.6.12-.24-.6a7,7,0,0,1-.36-2.52,4.2,4.2,0,0,1,2.88-4.08c5.88-23.76,10.44-39.24,13.68-46.32,1.08,13.92,2.76,28.56,5,44ZM176.64,46.68q-11,32.58-12.6,84.24-5,43-10.8,79.44c-2.16,16.2-3.24,38-3.24,65.76q0,29.34,3.48,75.84l5.52,76.8q2.52,50.22,4.32,76.32c1.44,21.48,3.6,37.32,6.36,47.52,4.92,17.52,13,26.28,23.88,26.28,23.16,0,43.2-13.2,60.36-39.48,13.8-21.24,25.32-50.28,34.68-87.36a689.24,689.24,0,0,0,15.72-88.2c2.52-21,3.72-35,3.72-42.12,0-27-1.32-49-3.84-65.88q-6.66-37.44-12.6-79.68L287.16,140A372.31,372.31,0,0,0,281,102.72q-9.9-43-34.2-68.4C229.08,15.72,214,8.76,201.36,13.2,191.16,16.92,183,28.08,176.64,46.68ZM393,360.6c.84,6.48,1.32,16.8,1.32,30.84,0,9.12-.6,21.6-1.8,37.56,2.76-5,7.92-13.32,15.48-25q18-27.9,29.4-42.72l1.08,2.28.24,3.12c0,4.32-7.32,17-21.84,38l-1.08,1.56c2.4,9.24,7,25.92,13.8,49.92,7.08,24.84,10.56,38,10.56,39.6a9.05,9.05,0,0,1-.48,3.36,9.22,9.22,0,0,1-2,2.64c-3.84-9.24-9.12-26.4-15.72-51.72q-8.82-32.76-9.36-39.24L391.68,439.8h-.12l-.84,10.2c-2.4,25.8-4.56,43.32-6.6,52.32-1.08-1.08-1.68-3.12-1.68-6.24,0-10.08,1.08-24.24,3.36-42.6l5.28-40.92V363C391.68,361.44,392.28,360.6,393,360.6Zm-12.36-20.52a28,28,0,0,0,11.4-2.52c3.24-1.56,4.8-3,4.8-4.44,0-2.52-1.2-4.92-3.48-7.2-2.76-2.76-6.6-4.2-11.64-4.56L381,327.6c-.12,1.32-.12,4.2-.12,8.76Zm-.12-25.56a6.78,6.78,0,0,0,1.68,1.08v.48c4.68-.36,9,1.8,12.72,6.48A29.65,29.65,0,0,1,399,329a14.59,14.59,0,0,1,1.32,4.08q0,4-4.32,8.28c-3,3-6.24,4.56-9.72,4.56l-6-.24-.12,1.44-1.44,15.6-.48.48-.6.84a4,4,0,0,1-1-2.4,23.36,23.36,0,0,1-.12-3.36c0-1.44.24-4.2.6-8.16l.6-4.44H377l-.36-.72a9.2,9.2,0,0,1-.12-2.16,7.88,7.88,0,0,1,.24-2.28,8.18,8.18,0,0,1,.84-.6l1,.12.12-1-.6-9.84-.48-7.56c0-3,.12-5.52.24-7.68H380Zm-15.84-85.44,1-1.08c1,2.16,1.44,5.88,1.44,11.28l-.36,14.28q-.9,15.84-2.88,28.8c-4.32,27.48-12,41.16-23,41.16-8.4,0-13.44-6.72-15.12-20.28A77.63,77.63,0,0,1,325.2,289l.48-6.84c0-15,.12-25,.48-29.64.84-11.28,3-20.28,6.24-27l.6,1.2.24,2.52c0,1.8-1,8.28-2.76,19.56A210.19,210.19,0,0,0,327.84,282l-.24,6.36a90.68,90.68,0,0,0,.48,11.88c1.08,10.92,4.2,16.44,9.24,16.44l7-.24c10-11.64,16-25.92,18-43,.6-5.16,1-12.6,1.08-22.08.24-10.08.6-17.4,1-21.84Zm13.92,4.68q-.54,9.36-3.6,31.32l.72-.48,7.8-4.8c7.56-4.92,11.4-9.48,11.4-13.68a9.75,9.75,0,0,0-2.88-6.84C389.16,236.16,384.72,234.36,378.6,233.76Zm18.48,13.44c0,5.88-1.44,10.2-4.2,12.84a37.27,37.27,0,0,1-6.84,4.44l7.92,22c3.84,10.92,7.44,19.92,10.68,27.24v4.92c-.12,0-.24.12-.36.48l-.72.84q-3.42-6.66-11.52-27.72c-5.4-13.92-8.4-22.68-8.88-26.16l-8.76,4.2-1.32,8.4c-3.48,24-6,38.52-7.44,43.44a1.92,1.92,0,0,1-.84-1.08l-.24-2.64c0-4.68,1.8-19.32,5.28-43.92,2.64-18.72,4.8-32.28,6.48-40.8h-.12l-.48-.24v-1.8a4.34,4.34,0,0,1,.36-2.16l.48-.36h.72l.6-2.52a4.13,4.13,0,0,1,.6,1.32l.12,1.32c8.28.36,13.68,2.64,16.32,6.84Q397.08,239.1,397.08,247.2Zm117.6,22.68.12-.84a104,104,0,0,1,28.92,15.84,123.65,123.65,0,0,1,22.8,22.68,92.5,92.5,0,0,1,14,25.08c3,8.76,3.84,16.44,2.4,23.28l5.16,48c1.8,19.08,2.76,34.8,2.76,47.4,0,16-.72,27.24-2,33.6l-11.52,39.84c-.84,3-4.08,8-9.48,15A220.52,220.52,0,0,1,548,561.48q-29.16,27.9-48.12,28h-.12l-.12,1.08-1.44.36c-.36-.84-.72-1.68-1-2.4l-.12-.12v-.12l-.12-.72a15.15,15.15,0,0,1-.36-3.6v-1.08q.36-10.26,7.2-87.12L514.2,379.8V300.24a122.09,122.09,0,0,0-.24-12.72l-.48-9.24a17.73,17.73,0,0,1,1.08-6.84Zm.84,4.44,1.32,28.32c.84,19.44,1.2,32.76,1.2,40,0,32.28-2.16,74.52-6.6,127q-3.6,43.74-10.56,109A138.67,138.67,0,0,1,516.6,569c15.24-8.28,23.76-13.32,25.56-15,7.08-5.88,12.48-10.68,16.32-14.4,7-6.6,11.4-12.48,13.2-17.76,5.88-17.16,9.6-29.16,11.16-36.24a146.39,146.39,0,0,0,3.72-34.44c0-7.56-1.2-24.36-3.48-50.28l-3.84-42.24a81,81,0,0,0-4.92-22.92,89.08,89.08,0,0,0-14-23.4q-12.06-14.4-30.6-27.72L518.76,277Zm-41.88,13.32c3.12-7.44,6.6-12.72,10.32-16,3.6-3,6.72-3.24,9.24-.84s4,7.56,4,15.24a8,8,0,0,1-2.64,5.76q-2.16-2.16-2.52-8.28c-.12-3.36-1.08-5-2.64-5q-16.38,0-27.24,121.32l-.36,4.68,3.36-.24,21.84-1v-.6a10.27,10.27,0,0,1,2.4,3.36l.48,1.8v2.88a4.54,4.54,0,0,1-2.88,3.36c-7.44,0-13.08.12-16.8.48l-4.92.36-4.44-.6c-3,35.64-5,71.16-6.36,106.8a299.29,299.29,0,0,0,1.2,30.48c1.68,18.12,5,27.24,10.2,27.24,5.76,0,10.44-5.76,13.92-17.16l3.84-14.16q2.34-7.92,4.68-11.16l1.32,2.52a8.21,8.21,0,0,1,.6,3.24l-1.8,8.28q-2.34,9.18-5,16.92c-5.64,16-11.28,24-17,24q-11.7,0-15.12-33.84c-.72-7.08-1.08-15.12-1.2-23.88l.12-12.24q0-17.46,4.2-74.64c2.52-34.8,4.2-55.2,5-61.32,1.32-9.12,2.64-20.52,4-34.08l3.36-34.08C467.88,305.88,470.16,296,473.64,287.64ZM451,280.44l-.24,1.68-.6.48-3-2c-1.8-1.08-2.88-1.68-3.48-1.68a19.12,19.12,0,0,0-6.72,1.32,95.67,95.67,0,0,0,12.72,13,9.5,9.5,0,0,1,2.88,3.6,19.46,19.46,0,0,1,.84,6.72c0,11.88-6.84,17.88-20.52,17.88-4.92,0-8.4-2.64-10.68-8a23.55,23.55,0,0,1-2-8.76l.24-.48.48-.6c1.08.84,2.52,3.12,4.08,6.72a9,9,0,0,0,7.92,4.56c6.24,0,11.16-1.56,14.64-4.8,2.52-2.28,3.72-4.44,3.72-6.48,0-1.44-1-3-2.76-4.68l-5.88-4.8c-5.76-4.56-8.64-9.24-8.64-13.92a6.61,6.61,0,0,1,1.92-4.8,7.87,7.87,0,0,1,4.68-2.28C445.08,272.4,448.56,274.92,451,280.44Zm-93.6-94.68q0,4-2.88,15.48t-2.88,14.4v1.44l10.56,1.08,26.76,1.44-.6,2.76-1,2.64L374,224.76l-13.44-.6L349,223.68a13.31,13.31,0,0,1-.6-4.08,110.7,110.7,0,0,1,2.28-20.16,108.87,108.87,0,0,1,4.2-16.68l1.8.72C357.12,183.84,357.36,184.56,357.36,185.76Zm38-43.68-.72,1.08a38.66,38.66,0,0,0-4.68-3.48l-3.72-2.52-7.92.36-2.28,2.16-2.76,2.88a35.68,35.68,0,0,0,8.28,8.76c1.56,1.08,4.44,3,8.88,5.52a34.79,34.79,0,0,1,7.08,5.16,11.06,11.06,0,0,1,2.76,7.56,8.42,8.42,0,0,1-2.64,6.48c-2.28,2-6,3.6-11.4,4.44H370.56a40.87,40.87,0,0,1-6.72-6,10.8,10.8,0,0,1-2.52-7,11.69,11.69,0,0,1,.6-3.36l.84-3.12,1.08-.36,3.6,7.8q2.7,5.58,4,5.76c9.6-.12,16.32-.6,20.16-1.56a16,16,0,0,0,5.28-2.76,52.69,52.69,0,0,0-9.36-8.52l-8.28-5.28a21.7,21.7,0,0,1-5.88-5,12.78,12.78,0,0,1-2.16-7.56c0-2.88.24-4.92.84-6s2.52-3.12,5.64-6c7.08,0,12,1.2,14.76,3.72a11.08,11.08,0,0,1,3.36,5.16ZM478.8,3.84,479,6.36a9.59,9.59,0,0,1-.36,3.6c-.48,1-1.8,1.68-3.84,2.28-3.36,1-15.24,2.52-35.52,4.56H425.76c-.12,6.6-.72,15.12-1.8,25.32-1,9.72-2,19-3.36,27.72v45.48l1.08,3.24v69.72c-.12,14.76-.48,26.16-1.08,34-.36,6.12-.84,15.48-1.2,27.84-.72,10.68-2.16,19.68-4.44,26.88a8.16,8.16,0,0,1-2.76-6.48q0-19.44,3.48-75.36C417.6,164,418,139,416.88,119.64V65.16a107.74,107.74,0,0,0,1-14.16l.24-14.52A75,75,0,0,1,421,16.8l-59-.6-.72-1.32a8.06,8.06,0,0,1-.36-2.76c0-2.4.48-4,1.56-4.8l44.4-.24L440.4,6a190.75,190.75,0,0,0,26-2.52c7.2-1.2,11.28-1.44,12.12-.72Zm71.4,42.72L522.36,47l-4.68,1.2L506.4,49.8,504.72,49a4.43,4.43,0,0,1-.48-2.52,5,5,0,0,1,.6-2.64,6.17,6.17,0,0,1,1.56-1.56l9-.84,7.2-.84v-.48l27.6.24,1.8,1.56a5.34,5.34,0,0,1,1.44,2.52l-1.08,1.44A3.35,3.35,0,0,1,550.2,46.56Zm3.6-34.2a24.39,24.39,0,0,0-16.56-6.12c-14.16,0-24,8.16-29.64,24.6a79.77,79.77,0,0,0-4.44,26.76,29.08,29.08,0,0,0,3.48,13.8C510.48,78.48,516.48,82,524.76,82q21.42,0,31-8.28a24.52,24.52,0,0,0,5.52-7.08l2.52-6,1.56.72a3.24,3.24,0,0,1,.6,2.28c0,.72-.84,2.4-2.64,4.92a58.77,58.77,0,0,1-7.08,8.64C548.76,85,541.92,88.8,535.68,88.8c-16.68,0-27.48-4.56-32.16-13.56a23.43,23.43,0,0,1-2.64-10.32L501,58.2a95.89,95.89,0,0,1,2.28-20c2-10,5.16-18,9.12-24.12q17.46-26.46,53,3.24l-.48.6a3.57,3.57,0,0,1-2.28.48,7,7,0,0,1-4.2-1.8Z" transform="translate(-8.88 -0.84)"/></g></svg>