<svg id="Layer_1" data-name="Layer 1" xmlns="http://www.w3.org/2000/svg" viewBox="0 0 524.27 398.14"><defs><style>.cls-1{fill-rule:evenodd;}</style></defs><path class="cls-1" d="M144.36,151.32q-4.86,64.44-4,127.68l11.52-.36c11.76-1.08,22-.24,30.72,2.52,1.8-2.64,4.92-3.48,9.48-2.4,4.44-6.12,4.44-12.36,0-18.48A227,227,0,0,1,146.4,259c.84-9.24,1.32-18.36,1.56-27.6a150,150,0,0,1,1.8-20.88,241.83,241.83,0,0,0-1-79c-2,.24-3.12,1.56-3.24,3.84Zm-21.72-50A63.4,63.4,0,0,0,87.72,129a270.32,270.32,0,0,0-20,38.88A239.64,239.64,0,0,0,57.24,199.2c-2.52,10.32-4.92,20.76-7,31.2s-3.84,20.88-5.16,31.44-2.4,21.12-3.24,31.8c-1.08,13.44-1.56,26.88-1.32,40.32a311,311,0,0,0,3.24,39.6,371.72,371.72,0,0,0,9.84,46.2,156,156,0,0,0,18.84,41.76c8.76,13.8,21,22.2,36.72,25.44,14.76,2.88,27.72-1,38.76-11.64a202.46,202.46,0,0,0,29.76-36.72,36.41,36.41,0,0,0,5.4-25.44l-3.48-1.68-3.6,3.84L171.36,418l-.12,4.68a168.5,168.5,0,0,1-40.08,39.84c-11.16,7.8-22.44,8.28-34,1.44a79.12,79.12,0,0,1-21.12-18.24,80.7,80.7,0,0,1-10.56-17l-2.76-6.24-2.16-6.6q-2.34-7.74-4.32-15.48a217.5,217.5,0,0,1-4.44-23.4,361.19,361.19,0,0,1-3.24-55.68,504,504,0,0,1,10.2-94.08A367.81,367.81,0,0,1,73.8,174c7.32-19.8,19.2-35.76,35.64-47.64q23.94-17.28,49.68-4.8a29.87,29.87,0,0,1,13.44,12.36,13.62,13.62,0,0,0,2.76-12.36,27.5,27.5,0,0,0-9.24-14.64C152.16,98.4,137.64,96.48,122.64,101.28Zm240.12,35.88q-18.54-36.54-57.6-41.88l.24-.84.12-.36-.72-.36-1.08.24-2.16.48-.12,1.32L280.2,98.64a24.2,24.2,0,0,0-16.8,9.24q-40.5,52.56-49.32,119.52a802,802,0,0,0-6.6,128.16,283.37,283.37,0,0,0,9,63.72q8.46,32.4,36,52.68l11.16,8c16.68,12.12,34,15,52,8.4a77.84,77.84,0,0,0,20.4-11c22.92-17.16,38.64-39.48,47.4-67a409.51,409.51,0,0,0,19.2-127.08,279.93,279.93,0,0,0-28-122.16Zm18.6,70.8a329.39,329.39,0,0,1,8.4,126.84c-2,16-4.8,31.92-8,47.64q-12.42,59.22-63.84,86.28A34.21,34.21,0,0,1,293.64,472a106.16,106.16,0,0,1-16-4.8q-27-10.26-43.08-33a58.67,58.67,0,0,1-7.8-15.48,243.54,243.54,0,0,1-12.48-72.36A676.7,676.7,0,0,1,223.56,219a219,219,0,0,1,43.2-99.12l1.44-.6a162.39,162.39,0,0,1,26.16-6.12c17.16-.12,31.32,6.36,42.72,19.44h2.16l1.08.24a240.81,240.81,0,0,1,25.8,37.44A164.34,164.34,0,0,1,381.36,208ZM498.12,104.4A544.91,544.91,0,0,0,475.8,210.48c-4.68,42.36-9.84,84.6-15.72,126.72-4.44,32.28-9.24,64.56-14.16,96.72q-3.78-42.66-9-85.08-7.74-63.36-20.64-125.76-13.14-63-27.24-124.32c-1-.12-1.44.24-1.32,1.08a861,861,0,0,0,17.64,112q13.86,62.46,22.44,125.88,8.28,61.74,11,124.2c-2,2.52-1.92,4.68.6,6.24l.12.24q-2.16,13.32,5.76,20.88a17.23,17.23,0,0,0,4.08-13.08l-.6-8.28q7.2-33.48,11.52-68.16,7.92-63.36,15.24-126.84,7.56-63.54,18.36-126.6A54.52,54.52,0,0,1,497,134.76c4.08-11.16,5.28-21.84,3.48-32.16A2.12,2.12,0,0,0,498.12,104.4Zm29.88-.6A59.21,59.21,0,0,0,508.2,138a1002.45,1002.45,0,0,0-17.4,128.52c-3,42.36-6.6,84.48-10.8,126.6q-4.68,47.16,17,88.44C520,492.48,538,487.32,550.8,466.2l6.12-10c8.28-13.08,10-26.16,5.28-39a3.54,3.54,0,0,0-3.24,2c-4.56,9.12-9.12,18.36-13.56,27.84q-14,29.7-44.88,15.84a75,75,0,0,1-8.88-25.32,290,290,0,0,1-2.4-76.32q3.78-38.7,7.08-77.16l3.72.6a147.77,147.77,0,0,0,38.4,2.4l.72-1.68a18.69,18.69,0,0,0,.84-10.56l-.12-.84a6.19,6.19,0,0,0-2.52-4.8l-1.68.24a155.18,155.18,0,0,1-38,0l2.76-35.64a432.15,432.15,0,0,1,20.76-103.56c2-6.36,6.36-10.2,12.72-11.4,12-2.28,21.12,2.16,27.24,13.44a10.62,10.62,0,0,0,1.8-8.88c-3.48-15.48-12.84-23.28-28.32-23.4A16.64,16.64,0,0,0,528,103.8Z" transform="translate(-40.5 -93.72)"/></svg>