<svg id="Layer_1" data-name="Layer 1" xmlns="http://www.w3.org/2000/svg" viewBox="0 0 595.57 842.18"><defs><style>.cls-1{fill:#fff;}.cls-2{fill:none;stroke:#fff;stroke-linecap:round;stroke-linejoin:round;stroke-width:0.38px;}.cls-3{fill-rule:evenodd;}</style></defs><rect class="cls-1" x="0.31" y="0.31" width="595.08" height="841.68"/><rect class="cls-2" x="0.19" y="0.19" width="595.2" height="841.8"/><path class="cls-3" d="M333.48,311.4q-.54,41.22-31.2,66.36A15.72,15.72,0,0,1,292,381.6c-20.4-.12-32.28-10.92-35.76-32.28a211.05,211.05,0,0,1,5-90.72,158.28,158.28,0,0,0,3.48-16.68c2.64-16.08,11.4-25.32,26.4-27.84a29.91,29.91,0,0,1,15.72,8.28c17.16,17.16,26,38.4,26.64,64ZM270.72,209.28A144.47,144.47,0,0,0,258.12,237,317.68,317.68,0,0,0,248,275.4q-11.7,57.6,11.64,109.44a20.72,20.72,0,0,0,12,11.16q34.38,12.78,50.88-21.84Q350.82,314.94,338,249.6q-7.74-39.06-42.6-54.24l-4.32.48a4.13,4.13,0,0,0-3.48,3l-5.16.36-1.68.24A29.31,29.31,0,0,0,270.72,209.28ZM224.88,198q-26.46,58.68-54.24,116.4A115.86,115.86,0,0,1,163,328l-2,3.24.12-10.32c.12-21.72.48-43.32,1.32-64.8a472.85,472.85,0,0,0-1.68-64.2h-.48a828.32,828.32,0,0,0-6.12,115.2,530.15,530.15,0,0,1-3,64.8c-1.32,12.24-.24,22.8,3.12,31.8a3.34,3.34,0,0,0,1.08-1.68c1.8-13.08,3.12-26.16,4.2-39.36a16,16,0,0,0,3.24-4.92q14-32.94,29-65.52c3.36,17,7.44,34.2,12.12,51.6a251.3,251.3,0,0,0,24.48,59.4,3.32,3.32,0,0,0,2.16-1.8,26.82,26.82,0,0,0,2.16-19.68l-.84.36-3.24.24a317.06,317.06,0,0,1-18.12-53.64,267.17,267.17,0,0,0-15.12-44.28c6.72-14.52,13.56-28.8,20.64-43.08,1.8-3.48,3.6-6.72,5.4-9.84,7.44-12.48,10.32-25,8.52-37.44A6.06,6.06,0,0,0,224.88,198Zm230.52-4.44c-3,31.92-4.56,64.2-4.44,96.84l-5-.6a94.75,94.75,0,0,0-29.76,2.76l2.16-36.84a475.71,475.71,0,0,0,0-64.08,220.31,220.31,0,0,0-9,55.08q-1.08,28.44-1.44,57.6a518,518,0,0,1-4.92,64q-2.52,17.82,2.88,32.4a2.33,2.33,0,0,0,1.2-1.44,237.2,237.2,0,0,0,6.6-47.76l1.8-45.36q17.82.72,35.64.36l.24,9.48a351,351,0,0,1-4.2,64.68c-1.68,10.2.12,18.12,5.28,23.64a49.53,49.53,0,0,0,4.32-17.88c1.56-42.72,2.4-85.68,2.76-129a560.87,560.87,0,0,0-3.24-64.2C455.64,193.32,455.4,193.44,455.4,193.56Zm-75.6-1.44-2-.24q-32.58,36.54-8.16,85c6.72,13.08,13.2,26.28,19.32,39.6a57.14,57.14,0,0,1,4.92,30.36c-1.8,15.84-10,26.16-24.48,30.84a29.56,29.56,0,0,1-19.56-.48c3.48-7,2.76-12.6-2.4-17q-17.1,39.78,24.84,33.12c9.36-1.32,16-6.48,19.8-15.36a83.42,83.42,0,0,0,5.4-50,213,213,0,0,0-22-60.72,66.54,66.54,0,0,1-6.84-46c2-10.2,8.4-14.28,19.08-12.48l1.56,1.92,4.56-.72C394.44,199.92,389.76,193.92,379.8,192.12Z" transform="translate(0.19 0.19)"/></svg>