<svg id="Layer_1" data-name="Layer 1" xmlns="http://www.w3.org/2000/svg" viewBox="0 0 581.4 590.92"><defs><style>.cls-1{fill-rule:evenodd;}</style></defs><path class="cls-1" d="M397.8,527l-1.8.72-6.6-.24a70.42,70.42,0,0,0-1,9.84,53.3,53.3,0,0,1-1.32,8.28l-.12.72.84.12a27.29,27.29,0,0,0,15.24-4.32c3.6-2.28,5.4-4.32,5.4-5.88,0-2.52-1.44-4.68-4.44-6.48Zm-7.32-6.24-.6,3.24c4.92-.72,8-1.56,9.48-2.52a13,13,0,0,1,5.88-2.4,15.3,15.3,0,0,0-2.52-4,11.63,11.63,0,0,0-5-3.6l-5.4-.36Zm1.92-12.72,6,.24a50,50,0,0,0,6.6,4.8,5.82,5.82,0,0,1,2.4,5.16,6.21,6.21,0,0,1-2.52,4.8,19.38,19.38,0,0,1-3.48,2.28,8.72,8.72,0,0,1,5.52,3,12.58,12.58,0,0,1,2.64,8.4c0,2.52-1.8,5.4-5.4,8.4a21.89,21.89,0,0,1-14.64,5.4l-2.76-.48-.6-.24-.72,2.52h-1.08l-.24-3.12-.24-.12a5.9,5.9,0,0,1-.36-2.4.55.55,0,0,1,.6-.36c.12-4.2.84-10.32,1.92-18.12,1.2-8.16,2.52-14.28,4.08-18.36l-.12-.48.36-.84.24-.48H391l1-1.92.36,1.08ZM593.28,553.2l-.6.48-.72.84L590.64,552a2.77,2.77,0,0,0-2.52-1.8q-8.46,0-17.28,13.32l-1.92,3.12,3.36-.84c6.84-1.56,11.88-2.28,15-2.28l.36,1.2.48,1.2-.84,2.4c-6.12-.36-11,.12-14.64,1.32-2.64,1.32-4.32,2-5,2h-1.32l-.72,1.68c-1.32,3-2,5-2,6a7.74,7.74,0,0,0,1.44,3.36,15.6,15.6,0,0,0,2,3c11.16-.24,17.28-.84,18.6-1.8a3.21,3.21,0,0,0,.72-1.92,4.28,4.28,0,0,1,1.32-2.76l2.88.24.24.24.12,2.16c0,1-1.44,2.76-4.32,5.52-3.12,2.76-5.64,4.2-7.68,4.2l-12.12-.24a61.18,61.18,0,0,1-3.84-6.36,15.56,15.56,0,0,1-1.08-6.36,19.72,19.72,0,0,1,1.56-7.44l-1-.12-.24-.24V569c0-.36.84-.72,2.64-1.32l1.92-3.72a60.29,60.29,0,0,1,10.92-13.08c4.32-3.84,7.92-5.88,10.92-6.24,3.24-.36,4.92,1.68,4.92,6.12C593.52,552.6,593.4,553.32,593.28,553.2Zm-456.84-6.72.48,1.8.12,2.64a134.72,134.72,0,0,1-1.2,17.64,134.27,134.27,0,0,1-3.12,16.92l2.4.24,30.36-1.08,3.84,2.16.48.48a1.62,1.62,0,0,1-1.2,1.8,10.56,10.56,0,0,0-4.2,2.52H135.12l-4.08-.48V580.56a84.46,84.46,0,0,0,3.36-16.92l1.32-17.16ZM123.12,439.56a18.79,18.79,0,0,0-4.92-6.12c-5.76-4.68-13.56-6.24-23.28-4.56.24,4.44.36,10.32.36,17.4L94.92,463l2.16-.72,8.4-2.52v-.12h.36l2.4-.72c10.92-3.72,16.32-8.52,16.32-14.52A10.73,10.73,0,0,0,123.12,439.56Zm180.6,75-10.8,16.2c-4.44,6.84-7.32,12.12-8.64,16h-1.44q-.18-7.56,7.92-19.44l14.64-20a150.58,150.58,0,0,0,3.72,16c2.28,7.8,3.72,13.32,4.32,16.44l.24.84,14-16.68,14.4-16.8c3.84,6,7.44,12.36,10.92,19.2a182.07,182.07,0,0,1,9.36,21.12h-.12l-.6.72c-3.24-3-6.72-8.4-10.44-16-4.44-9.24-7.56-15.24-9.6-18.12l-13.2,16.32-13.32,16.44c-2-3.24-4.08-8.4-6-15.36-2-7.8-3.48-13.2-4.56-16.32ZM337.56,468l.36-.48,1-.6c2,3.12,5.88,8.28,11.52,15.36,4.68,6.6,7.56,12,8.52,16.32,1.2-.72,4.68-3.84,10.56-9.48,5.16-4.92,8.28-7.32,9.24-7.32,2,0,5.16,2.64,9.36,8s6.84,7.92,7.68,7.92c3.12,0,8.88-4,17.4-12,5.64-5.4,12.36-12.48,19.92-21l1.44,1.08a2,2,0,0,1,1,1.08,144.48,144.48,0,0,1-18.84,24c-8.4,8.76-14.52,13.08-18.48,13.08-3,0-6.36-2.64-10.32-8l-4.2-5.52c-1.56-1.56-2.76-2.4-3.84-2.4s-4.44,2.64-10.56,7.92c-6.36,5.4-10.08,8.4-11.4,8.88l-10.68-16.32c-6.36-10-9.6-16.32-9.6-19ZM94.44,423.72c12.6-3,21.72-1.08,27.12,5.64a22.11,22.11,0,0,1,4.68,14.16c0,5.28-2,10.08-6,14.4A30.38,30.38,0,0,1,109.92,465c4.44,7,7.92,12.84,10.56,17.76a134.14,134.14,0,0,1,11.4,25.32l-.48.36-.84.72c-4-6.48-9.12-15.36-15.24-26.52-4.32-7.68-7.2-13.2-8.76-16.44a51.1,51.1,0,0,1-11.28,2l-.6-.48-.48,4.44c-1.32,10-2.4,22-3.24,35.88l-.48.48-.6.84a9.2,9.2,0,0,1-1-3.36,28.47,28.47,0,0,1-.12-3.72c0-13.8.36-27.24,1.2-40.08s2-24.12,3.6-33.72a6.51,6.51,0,0,1-.24-2,10.45,10.45,0,0,1,.12-2.28l.12-.36.84-.12v0Zm25-244.44q0-2.34-4.68-3.24l-12.36-1.92-1.92,16,2.4.12a15,15,0,0,0,5.76-1.2l.24-1.44h.72l.84.48,4-2.64Q119.4,181.26,119.4,179.28Zm1.08-.12c0,3.12-1.44,6.36-4.2,9.72l-1.92,1.92c4.92,3.48,8.88,6.48,11.88,8.76Q136,207.3,136,210l-.12,1.92-.48.24v.24a88.48,88.48,0,0,1-16-10,43.83,43.83,0,0,1-8.76-9.12,16.61,16.61,0,0,1-7.8,1.8l-3.12-.36c-1.68,11.16-2.76,17.4-3.36,19a1.61,1.61,0,0,1-.72-.84l-.12-2.52c0-10.68.24-18.48.72-23.28.72-6.84,2-12,3.84-15.6.12-.84.24-1.32.36-1.32s.24.12.24,0h.12l1.2-1.56.36.48.24,1.32c8.88.72,14.4,2,16.68,3.84a3.91,3.91,0,0,1,1.44,2.52Zm-35.4,33a7.14,7.14,0,0,1,.72,3.24l-.72,9.6c-.48,5.4-1,9.72-1.44,13.08v45.36L80.4,323.16v4.68l4.08-.84,29.16-.24c7.32-.6,12-.36,13.92.72.84.6,1.32,1.92,1.32,4l-.24,2.64-.48,1.8-14.52-.48-29.52.24c-.48.36-2.4.84-5.64,1.32-.6-2.16-.84-5.76-.84-10.92q0-30.06,3.24-47.52V233.28l1.2-12.36a72.57,72.57,0,0,1,1.56-11.16ZM108.24,35l-.6,1-6.48-10.68c-3.36-5.16-6.84-8.4-10.56-9.84l-8-1.2-4.92-.72Q50.1,13.56,33,104.64a787.09,787.09,0,0,0-11.64,91.44A189,189,0,0,1,17,235.44v57.48c-.72,4.32-1.08,10.92-1.08,19.92,0,17.4,1.2,39.36,3.48,65.64,2.88,33.24,4.56,55.68,5.16,67.08.48,8.52,2.4,19.8,5.88,33.84A338.87,338.87,0,0,0,43.8,522c6,15.36,12.12,27.48,18.24,36.36,7.08,10.32,13.92,15.48,20.28,15.48l6.72-.36a81.58,81.58,0,0,0,23.76-26c3.72-6.36,7.92-15.48,12.36-27.24a8.19,8.19,0,0,1,1.68,3.84l.48,3.24c0,7.08-4.32,17.52-12.84,31.44-8.88,14.52-17,23.52-24.36,27H80.64Q44.82,578,25.8,469.44c-4.68-26.52-8.16-55.8-10.68-87.84-2-25.8-3-48.48-3-68.16a230.59,230.59,0,0,1,1.08-25.92V230.88Q15,212,22.08,165.24q6.12-41.58,7.68-65.88a249.29,249.29,0,0,1,6.6-32.64A330.22,330.22,0,0,1,47.64,33.6Q55,14.7,66,7.32A23,23,0,0,1,86,4.2a31.29,31.29,0,0,1,16,11.4c4.32,5.64,6.48,11.28,6.48,17.16A8.56,8.56,0,0,1,108.24,35ZM219.72,15.72A37.76,37.76,0,0,0,207,19.92a26.89,26.89,0,0,0-7.2,4.92,40,40,0,0,0-13.2,16.92c-1.56,3.48-3.36,9.24-5.4,17.52q-10.62,42.66-12.72,69c-2.28,27.24-4.08,50.4-5.16,69.48q-2.16,38-2.16,68.76,3.42,79,13.2,154.68Q193.8,571.86,225,571.92q17.1,0,31.32-26.28A141.61,141.61,0,0,0,270.48,507c3-14.52,5.16-25.56,6.48-33.24,2.28-13.32,3.36-24.36,3-33.36l5.16-64.8c2.28-29.16,3.48-51.72,3.48-67.56q0-32.94-2.52-70.2-2.88-42.3-7.8-67.68-7.38-45.9-11.88-69.24-7.92-41.22-20-68.76C240.84,19.56,232,14,219.72,15.72Zm22.44-3.6c8.52,0,16.68,18.84,24.72,56.4,2.76,12.72,5.64,28.92,8.88,48.6l6.84,43.08q2.7,15.48,6.72,68.28c2.76,36.36,4.08,62.88,4.08,79.32a498.07,498.07,0,0,1-3.72,62q-4.14,32.94-4.92,77.52c-.12,9.48-1.8,21.72-4.92,37a337.73,337.73,0,0,1-12.6,45.84c-5.76,16.44-11.88,29.52-18.24,39-7.32,11-14.64,16.56-21.84,16.56-14.64,0-25.44-9.72-32.28-29a174.07,174.07,0,0,1-5.76-22.08C187.44,525.84,186.36,521,186,520c-3.72-9.6-6.72-21.12-9.24-34.56-1.08-5.88-2.76-17.28-5-34.44q-2.88-20.7-8.88-73.8c-4.2-37.44-6.36-58.56-6.36-63.48a18.57,18.57,0,0,1,.36-4v-92.4l4.68-57.72c1.92-23.64,4.08-42.84,6.36-57.6l5.52-28.08a249.86,249.86,0,0,1,7.44-29.52,113.93,113.93,0,0,1,5.28-13.92c3-6,6.48-10.56,10.68-13.68,12.36-9.24,23.52-12.72,33.6-10.56C235.56,7.32,239.4,9.24,242.16,12.12Zm65-1.8C304.08,13.68,301,18.6,297.72,25l-.84,1.68c3.84.6,10.68.72,20.64.36C314,19.56,310.68,14,307.2,10.32Zm12.48,13.32,1.56,3.24,1.44-.12.24.48.24,2.28L323,31.08a73.57,73.57,0,0,1,4.44,12.72l-.72,1.44c-1.56-2.16-3.84-6.48-6.84-13.08l-4.8.6c-10.2,0-17-.6-20.28-1.8l-4.68,9.12h-.48l-.48-1-.12-2.28c0-1.08,1.08-3.72,3.24-8.16l-.12-.6.12-2.64,1.2-.48c-.36.36-.24.6.24,1l2.16-4.08c4.8-9.24,8.64-15.12,11.64-17.76A137.78,137.78,0,0,1,319.68,23.64Zm40,381.6c1.8-2.28,2.76-4,2.76-5.16,0-3.48-2.16-7.08-6.48-10.68-5.64-4.56-13.44-6.84-23.16-6.72.36,4,.48,8,.48,12.24,0,4.92-.72,13.08-2,24.72,6.84.12,13.92-2.52,21-7.68A45.77,45.77,0,0,0,359.64,405.24Zm4.68-5.52a15.23,15.23,0,0,1-1.8,5.64,34.38,34.38,0,0,1-5.52,8.28,35.25,35.25,0,0,1-9.48,7.8l4.44,4.8,10,11.76c1.8,2.28,5.4,6.24,10.8,11.76,4.68,5.28,7.32,10,8.16,13.92-.12,0-.36.12-.48.48l-.6.84c-4.68-4.44-11.76-12.12-21.36-23.16q-12.24-14.22-14.76-18.72a25.66,25.66,0,0,1-8,1.32l-4.08-.12-.84-.12-.84,6.24-4.2,31.8-.48.6-.6.84a7.28,7.28,0,0,1-1-3.12,26.3,26.3,0,0,1-.12-3.48l3.84-34.44c2.28-19.2,3.72-32.52,4.08-40l-1.68.12-.24-.36-.12-1.68.12-1.8.24-.24,10-.36c8.28.36,14.76,3.24,19.44,8.88C362.64,391.44,364.32,395.52,364.32,399.72Zm69.24-103.2a4.91,4.91,0,0,1,.36,2.28c0,.6-7.68,11.4-23.16,32.4q-25.92,35.28-34.56,49.32-4.86-25-21.6-55.08c-10.44-16.68-15.72-25.8-15.72-27.36l.12-2,.12-.72H340A153.3,153.3,0,0,1,364.56,333a261.33,261.33,0,0,1,13.08,37.56c11.4-16.92,20.16-29.88,26.28-38.64q16.2-22.86,29.16-36.36Zm-82-33-6.72-.24a5.34,5.34,0,0,1-1.44-2.52l-.24-3.12,5.88-.36,14.16-.6a6.85,6.85,0,0,1,1.68-1.56V256l14,.36.36.48.12,1.92c0,1.8-.12,2.52-.24,2.4l-7.68.48-6.24.6.12,14.4-.6,9.12c-.36,5.28-.84,8.52-1.32,9.6a184.93,184.93,0,0,1-.72-19.2,92.84,92.84,0,0,1-1.32-10.8v-2.76l-3.72.24ZM424.32,256a6.26,6.26,0,0,1,.6,2.76c0,7.8-.12,14.4-.48,19.68a108.16,108.16,0,0,1-3,19.92l-.6.48a1.26,1.26,0,0,1-.6-1.08l-.12-2.64.84-16.2.12-.36-13.2,1.92-7.8.48-3.12.72-.72,15.84h-.84L395,282l-.36.12-.24-.36-.12-1.68a2.37,2.37,0,0,1,.6-1.68l-.6-18.6a6.77,6.77,0,0,1,1.32-3.24,7.66,7.66,0,0,1,1.68-2.16l.36,1.08.24,2.52-.84,19.08c2.28-.72,5.88-1.56,10.8-2.64l8.88-.6,4.56-.24,1.2-19h.84Zm13.92-128.88.24,2.76q0,2-3.24,15.48l-7.2,31.2q-10.8,48.42-12.6,74.28c-.36,0-.48.24-.48.84q-7.2-13.68-27.72-57.24-17.64-37.44-29.64-59c-2.64,14-5.64,33.36-9.12,58-4,28.32-6.72,47.88-8.52,58.56h-.48a51.18,51.18,0,0,1-.84-9.36c0-5,2.52-23.52,7.68-55.32,4.56-29,7.92-49.08,10.2-60.24l.84-.36q30.06,45.9,55.92,112.56h.36c1.32-7.32,2.88-16.8,4.56-28.68,2.28-15.72,3.72-25.44,4.32-29.28,3.72-23.16,8.64-41.88,14.88-56.16ZM368.4,77.52,368.16,80a5.9,5.9,0,0,1-.36,2.4l-.48,1.44-3.84-.24-4-.6-6.36.24-6.36.6A15.05,15.05,0,0,1,341.28,85l-7.56-.24-.6-1.2L333,81c0-5.88.6-15.84,1.68-29.64s1.8-28.32,1.8-43.8V4.8L337,3.48h.84q.9,1.26,1.44,8.64l.48,9.6a167.8,167.8,0,0,1-.6,17.52c-1,6.36-1.8,15-2.64,25.92v12L342,76.08l4.2-.84,20.88.84C367.92,76.44,368.4,76.92,368.4,77.52Zm7.32-32.76v.48q0,11.88-2.52,43.2l-2.64,29.76c12.6-.24,21-4.08,25.44-11.4q3.24-5.58,3.24-16.2a127.26,127.26,0,0,0-1.08-14.28A75.9,75.9,0,0,0,396,63c-1-3.12-4.92-7.08-11.76-11.76A101.52,101.52,0,0,1,375.72,44.76Zm-4.32-5c13.08,1.56,22,8.4,26.4,20.64,2.4,6.72,3.6,16.68,3.6,30l.12,9.24a25.41,25.41,0,0,1-1.2,8.64c-2.16,6.24-8.16,12.24-17.88,17.88l-12.84-.24-.12,1.08-.6.48-.48-1.56h-1.08l-.6-1.2-.24-2.52a6.18,6.18,0,0,1,.36-2.52l1-1.44h.12c.12-7.56,1.08-20.76,2.64-39.72l2.88-35.88ZM502.2,99.36c-1.8-6.12-6.36-9.24-13.44-9.24-6.84,0-12,6.24-15.72,18.72-1.68,5.64-3.24,14.28-4.56,25.68-1.32,12.84-2.28,28-2.88,45.48v53.52l-.84,16.8,19-2.76h16.44l-1.2,3.72-1.2,3.36-7.32.36-7.8.72-4.68.36-5.16.72-7.56,1.08-.84-.6-1.68,35q-2.7,56.34-2.64,72.6L460,386a141.56,141.56,0,0,0,2,24.48c3.72,19.8,13.08,33.72,27.84,41.76,19-4.68,30.12-11.76,33.6-21.36.84-2.28,1.56-6.24,2.16-12,.48-4.92,1.44-8.76,3-11.28h.84l.72,2.4.36,3.24c0,1.08-.6,3.72-1.8,8.16a136.71,136.71,0,0,1-5.52,16.32c-6.6,15.24-14.28,22.92-23.28,22.92l-11.4-.24c-15.48-8.16-25.08-23.16-29-45a156.5,156.5,0,0,1-2.28-27l.24-23.16q0-15.66,2.64-74.88c1.08-27.24,2-47.28,2.76-60.12v-52.8c1.08-5.64,1.8-15.6,2.4-29.76q.9-19.8,3.24-30.24c2.28-9.72,5.52-17.4,9.84-23,3.72-4.92,7.8-7.68,12.12-8.28s7.68,1.08,10.44,4.68c3,3.72,4.44,8.88,4.44,15.48l-.12,3.24a10,10,0,0,1-.72,2.52l-.48.24a23.36,23.36,0,0,1-.6-5.52A35.64,35.64,0,0,0,502.2,99.36ZM562,21c2.64,2.76,4,4.44,4,4.8a8.81,8.81,0,0,1-.24,2.88l-.36.48-2,.36c-1.56,0-3.24-.84-5.28-2.64L552.12,21c-5.88-5.64-12-8.52-18.36-8.52-10.44,0-17.4,3.48-20.64,10.56-1.2,2.76-1.8,6.6-1.8,11.76q0,13.14,11,63L546.6,207q35.28,166.86,35.28,271.68l-.12,30.12c-.6,11.64-2.4,21.84-5.52,30.36-1.08,3.24-3.72,7.68-7.68,13.32a138.16,138.16,0,0,1-14.52,18c-14,15-26.4,22.56-36.84,22.56-21.24,0-35.76-8.88-43.8-26.52a72.82,72.82,0,0,1-5.64-29.28c0-4.56.12-7.8.24-9.72.6-5.4,1.8-8.16,3.72-8.16l3.12.48,1.56.36q-.9.9-2.88,8.28c-1.32,4.8-2,7.68-2,8.76a36.44,36.44,0,0,0,1.92,9.24,76.38,76.38,0,0,0,6,15.12c7,13.56,15.6,20.28,25.92,20.28,17.52,0,33.72-7.56,48.6-22.56a102.4,102.4,0,0,0,13.32-16.44c3-4.56,4.8-7.68,5.16-9.36q5.76-22.86,5.76-54,0-101-35-268.56L519,100.44c-7.32-34-10.92-55.92-10.92-65.64V25.44a18,18,0,0,1,1.44-6.72C511.08,15,515.76,9.84,523.68,3c8-2.52,17.4.36,28.2,8.76A81.44,81.44,0,0,1,562,21Z" transform="translate(-12.12 -2.12)"/></svg>