<svg id="Layer_1" data-name="Layer 1" xmlns="http://www.w3.org/2000/svg" viewBox="0 0 509.79 349.99"><defs><style>.cls-1{fill-rule:evenodd;}</style></defs><path class="cls-1" d="M226.32,159.84l.36.84c7.92,3.72,16,7,24.12,10a33.84,33.84,0,0,1,5.52,2.76c32,20.28,45.24,49.44,39.84,87.6q-8.28,57.6-68.88,63.24-31.68,2.88-50-23.52-21.78-31-16.32-69.84,7.56-55.62,62-75.24a5.14,5.14,0,0,1,1.92.6l.24.48.48,1.56Zm-1.2-12.36q-46.44,6.66-62.4,51.84A170.09,170.09,0,0,0,153,250.8q-1.62,44.46,28.8,75.24a46.14,46.14,0,0,0,20.4,12.12c26.28,7.44,50.76,3.12,73.2-12.84a37.26,37.26,0,0,0,10.32-10.92q35.46-58.14,8.88-121.56a66.79,66.79,0,0,0-22.92-28.68,157.39,157.39,0,0,0-41.16-21.24l-1.08.24-2.4,1.32L226,146.16Zm-47.88-42.24c-11.4-13.32-26-19.8-44.16-19.44a56.86,56.86,0,0,0-32.88,17A160.55,160.55,0,0,0,63,164,349.09,349.09,0,0,0,44.76,286.56q1.8,68,42,122a50.74,50.74,0,0,0,33.6,20.52c21.24,3.72,41.52.36,61.08-10,18.48-9.72,27.6-25.44,27.36-46.92l-.36,1a50.68,50.68,0,0,1-3.36,7.32l-1.56,3.84-.6,1a171.45,171.45,0,0,1-50,22.32q-47.7,12.78-71.64-28.8Q47.58,320.52,52,252.6A267.7,267.7,0,0,1,84.12,141.36q19.26-35.64,58-37.92a18.85,18.85,0,0,1,8.28,1.44c11.16,4.68,21.36,8.64,30.84,11.76a4.63,4.63,0,0,0,.36-2.52,9.67,9.67,0,0,0-1.68-4,14.37,14.37,0,0,1-1.56-2.52l-.6-1.56ZM473,154.56a67.58,67.58,0,0,0-27.6,33,264.33,264.33,0,0,0-12.72,42.36L431.4,236l-3.36.24a11.1,11.1,0,0,0-.48,8.76,6.85,6.85,0,0,0,1.56,2.52c-5.64,28.44-2.4,55.56,10,81.48a44.36,44.36,0,0,0,15.48,18.12,52.3,52.3,0,0,0,27,9.12l16.68-1.08a95.41,95.41,0,0,0,43.68-17.76,29.63,29.63,0,0,0,11-14.88,28,28,0,0,0,.6-15.72,134.64,134.64,0,0,1-57.48,27.84c-15.84,3.48-30,.12-42.48-10-17-14-23.76-32.76-20.28-56.4a198,198,0,0,0,2-20.52l70.08-3.12,6.12,3.36a11.82,11.82,0,0,0,2.88-8.64,21,21,0,0,0-1.44-6.6q-36.36-8.46-76.44,2.88c2.88-28.92,16.44-51.24,40.8-66.72A68.14,68.14,0,0,1,520.68,158a53.46,53.46,0,0,1,27.72,9.24c-3.84-17.16-14.76-25.68-32.64-25.44A80.5,80.5,0,0,0,473,154.56ZM403.2,109.2q-17.64-29.7-51.48-28.56L331.2,86.88a20,20,0,0,0-6.48,3,7.92,7.92,0,0,0-.72,3.24l.36,2.4.36.84h.6a24.83,24.83,0,0,0-1.2,10.08q3.42,63.9,5.16,128.16a1144.21,1144.21,0,0,1-3.6,128.28,240.48,240.48,0,0,1-5,32c-2.4,10.32-.72,18.24,5.16,23.64a10.9,10.9,0,0,0,2.28-4.92A661.12,661.12,0,0,0,336,344.76c2-33.48,2.64-67.08,1.56-100.68,20.88,5.88,40.44,3.24,58.56-7.68a41.62,41.62,0,0,0,18.6-22.92Q432.72,159.12,403.2,109.2Zm3.48,99.48Q393,227.4,368.88,229.2l-31.8,1.8-7.2-134.88,43-2.28A84.54,84.54,0,0,1,400.68,122,121.85,121.85,0,0,1,417,164.76C419.88,180.72,416.4,195.36,406.68,208.68Z" transform="translate(-44.61 -80.6)"/></svg>