<svg id="Layer_1" data-name="Layer 1" xmlns="http://www.w3.org/2000/svg" viewBox="0 0 305.26 212.88"><defs><style>.cls-1{fill-rule:evenodd;}</style></defs><path class="cls-1" d="M304,307.56c14.28,6.6,22.92,17.52,25.92,32.88,3.24,16.8-2.76,29.4-18.12,37.68s-28,4.44-38-11.52c-8.52-13.56-10-28-4.32-43,5.52-14.52,16.44-21.48,32.88-20.88Zm-31-10.2C258.72,320,256.08,344.52,265.08,371a47.52,47.52,0,0,0,20.16,25.8c9.12,5.88,18.12,5.76,26.88-.24q32.76-22.14,26.88-61.32-6.48-43.74-50-45.84a27.34,27.34,0,0,1-6,1.56A13.3,13.3,0,0,0,273,297.36Zm-109.56-4.68C165,259.2,165,226,163.68,193c-3.24,25.8-5.88,52.56-7.68,80.28q-4.32,64.08-4.68,127.44l1.32-.24q6.48-39.6,9.24-80l.36-4.56.12.12c9.24-13.08,18.24-26.52,27.12-40.08,11.4,36.12,21.6,72.6,30.84,109.2,2.4,9.48,6.6,16.32,12.6,20.76l.84-1.56a21.84,21.84,0,0,0,1.56-13.8l-.36-.6-2.28-1.56-.6-1.68A1084.44,1084.44,0,0,0,193,270.36c8.28-13.08,16.44-26.28,24.24-39.72a48.43,48.43,0,0,1,4.44-6.24c8.76-10.08,10.56-19.44,5.64-28-13.56,23.16-27.84,46-42.84,68.64a195,195,0,0,1-17,22.56A36.31,36.31,0,0,0,163.44,292.68Zm287.64-90.12q-18.72,61.38-35.64,123.12a306.3,306.3,0,0,1-9.84,30.24c-6.12,15.72-8,31.08-5.76,46.2a124,124,0,0,0,14.76-35.64Q429.72,304.38,447,243c1.44-5.16,3.12-10.2,4.92-14.88,4.44-11.52,5.76-21.84,3.72-31.08A8.51,8.51,0,0,0,451.08,202.56Zm-96.84-4.32a384.44,384.44,0,0,0,14.28,79.08,505.22,505.22,0,0,1,13.8,62.52,349.53,349.53,0,0,0,14.88,61.08,2.48,2.48,0,0,0,2-2.88A473.07,473.07,0,0,0,388,320.88q-14.4-62.46-32.4-123.36C354.6,197.28,354.12,197.52,354.24,198.24Z" transform="translate(-151.32 -192.96)"/></svg>