<svg id="Layer_1" data-name="Layer 1" xmlns="http://www.w3.org/2000/svg" viewBox="0 0 507.76 267.1"><defs><style>.cls-1{fill-rule:evenodd;}</style></defs><path class="cls-1" d="M140.64,145.32q3.78-30.06-29.16-31.68c-31.32,14-50.88,38.4-58.92,73a378.63,378.63,0,0,0-7.32,127,99.25,99.25,0,0,0,16,43.8c15.24,22.92,35.4,29,60.6,18.12,19-8.28,31.44-21.24,37.32-39.12l-.36-.84-.24-.84-.6-.72c-.48-.48-.84-.6-1.08-.48a166.88,166.88,0,0,0-31,19.8,32.66,32.66,0,0,1-17.64,7.2Q66.66,365,57.48,324.6a279.93,279.93,0,0,1-.12-124.2q9.54-43.2,47.4-65.64c7.68-4.44,15.12-4.32,22.2.48a88.28,88.28,0,0,1,13.44,10.92Zm78.48-10.2.6.24A102.5,102.5,0,0,1,251.28,184a299.3,299.3,0,0,1,8.88,36.84q11.7,67.14-30.12,120.6c-9.72,12.48-21.72,14.28-35.88,5.28A30.79,30.79,0,0,1,180.84,329q-18.54-62.46-1.08-126.36l8.88-31.8c4.68-16.2,13.56-28.2,26.76-35.88Zm11.4-3.72a20.51,20.51,0,0,0-17.28-11,8.08,8.08,0,0,0-5,3.12q-24.66,29.34-34.2,68.28a342.54,342.54,0,0,0-6.6,127.92q4.14,30.6,30,46.56c7.68,4.68,15.12,4.8,22.44.36q27.72-17.1,39.12-49.32a211.32,211.32,0,0,0,11.88-77.64q-2-61-35.52-110.28l-2.4.6-1.56,1.2-.6.6ZM371.76,116c-4.56,5.64-6.36,13-5.52,22.08.84,8.16,1.44,16.2,1.8,24.24,1.08,25.32,1.32,50.4.72,75.48a190,190,0,0,1-27.36,94.8q-14.94,25-40.32,13a58.87,58.87,0,0,1-8.52-29.28,1184,1184,0,0,1,4-127.44,349.06,349.06,0,0,0,0-63.36,97.57,97.57,0,0,0-6.72,38.16,351.17,351.17,0,0,1-1.68,38.88A753.92,753.92,0,0,0,286,330.12c1.08,16.56,8.4,28.92,21.72,37a11.65,11.65,0,0,0,11,1c21.48-8.64,36.12-24.24,43.68-46.92A248.72,248.72,0,0,0,374.52,261a956.51,956.51,0,0,0,1.56-125.4q1.08-.9-1.08-3.24v-.84A20.23,20.23,0,0,0,371.76,116Zm66,19.8,10.08.84a19.88,19.88,0,0,1,6.72,8A43.54,43.54,0,0,0,457.8,151l.36-.6c4.44-17.4-2.16-27.48-19.8-30.48C421.92,129.84,411.12,145,406,165A529.57,529.57,0,0,0,389.4,286.32a143.06,143.06,0,0,0,6.48,46.44c7.32,23.28,22,30.12,43.68,20.64,9.12-4,15.84-9,20.28-14.88C459,348.84,461,357.36,466,364a15.75,15.75,0,0,0,3.36-11.4A126.1,126.1,0,0,1,472,318.84c3.36-15.72,1.68-30.12-4.92-43.32l-2.76-.24-2.16-.12A33,33,0,0,0,444.6,285l-.84,3.12c-.6,3.48.24,6.12,2.64,8.16,6.12-4.44,12.6-6.24,19.2-5.4l-1.92,14.4a17.68,17.68,0,0,0-7.44,6.24,7.47,7.47,0,0,0-1.68,5l2.16-1.68a5.45,5.45,0,0,1,2.76-1v.24a32.42,32.42,0,0,1-12.12,17Q423.6,349,405.24,329.4a10.76,10.76,0,0,1-3.12-6.12,394.07,394.07,0,0,1-3.24-87.48A208.7,208.7,0,0,1,429.12,141a59.93,59.93,0,0,0,6-3.48Zm111.24-16a253.7,253.7,0,0,0-8.28,67.32c0,14-.24,28-.72,41.88-13,.36-25.68.36-38.16.12,1.56-36.84,1.68-73.2.6-109.32-1.68.48-2.64,1.8-2.76,4q-4,46.8-5.4,94.2c-1.32,42.84-4,85.56-7.68,128.28-1.08,12.12.6,22.8,4.8,32.16a2,2,0,0,0,1.8-2.16q4.32-64.08,7.68-128.28l.36-4.56a160.32,160.32,0,0,0,38,2c-1.32,23.4-3.48,46.56-6.48,69.72-2.76,22.32-2.4,43.8,1.32,64.32a1.64,1.64,0,0,0,2.16-1.68q7.38-63.36,9.72-127.32l.36-11.4.12-3.48,4.2-113.4-.48-.72Z" transform="translate(-42.92 -113.64)"/></svg>