<svg id="Layer_1" data-name="Layer 1" xmlns="http://www.w3.org/2000/svg" xmlns:xlink="http://www.w3.org/1999/xlink" viewBox="0 0 575.3 600.36"><defs><style>.cls-1{fill:none;}.cls-2{clip-path:url(#clip-path);}.cls-3{fill-rule:evenodd;}</style><clipPath id="clip-path" transform="translate(-13.63 0.24)"><rect class="cls-1" x="13.44" width="576.12" height="600.24"/></clipPath></defs><g class="cls-2"><path class="cls-3" d="M384.24,466.2q-22.68,23.22.36,48.24Q396.3,527,381.72,535c-3.12,1.68-6.24,1.2-9.48-1.44a8.59,8.59,0,0,0-.48-5.76,3.69,3.69,0,0,0-2.16-2.28q-7.56,20.88,13,23l2.16-.12q23.76-30.6-5.4-55.8l-2.16-2a18.6,18.6,0,0,1,5.28-13.2l1.44-1.44,2.52-.36,3.24,10.68a17.13,17.13,0,0,0,.24-15.48l-2.16-4.08-1.32-.36ZM126.72,570.48l2.52,5.4c-3.12,5.64-7.92,8.28-14.4,8.16-11.16-11.16-11.88-23.4-2-36.72,12.12,1.2,18.12,8,18.12,20.64l-4.08-5.4-7.32,1.32-2.16,8.52,5.4-1.92Zm8.64,2.76c3-13.56-1.08-24.48-12.48-32.88l-2.52-1.92-7.8-.84c-10.92,12.24-14,26.4-9.24,42.6,2.88,9.6,9.48,13.68,19.92,12.36l3.12-.48,5.88-10.8a32.61,32.61,0,0,0,19.56,13.2,17.43,17.43,0,0,0,6.6-6.6,6.34,6.34,0,0,0,.24-6.36l-11.76,2.88Zm49-32.88-1.2-3c-.84,15.84-5.28,29.76-13.44,41.88a154.21,154.21,0,0,1-8.76-44.16,78.14,78.14,0,0,0,2.52,45c1.08,3.12,2.4,6.24,3.72,9.24l4.08,1.2c8-6.36,12.48-15.24,13.32-26.88A32.44,32.44,0,0,0,184.32,540.36Zm1.8-37.92-23-.24-.48-44.64a330.32,330.32,0,0,0-3.84,55,76.11,76.11,0,0,0,27.24-2ZM323,532c0-20-.36-39.84-1.08-59.28-.84,8.52-1.56,18-2.4,28.44a130.74,130.74,0,0,0,1.08,30.6c2.28,15.48,10.56,19.08,24.6,11a59.34,59.34,0,0,0,8.28-18.12,175.24,175.24,0,0,0,3.84-18.24q2.7-18.9-4.32-32.4a250,250,0,0,1-4.44,45.12Q343.74,544.68,323,532.8Zm-.12-104.52c-.12,15.12,0,30,.12,44.76a47.74,47.74,0,0,1,24.6-1.68c2.76-3.72,2.76-7.56,0-11.4-9.24,1.32-16.2,1.2-21.12-.48l.12-.84a94.28,94.28,0,0,0-.6-40.56C324,419.76,322.92,423.12,322.92,427.44ZM254.64,328l22.56,106.2a182.46,182.46,0,0,1-32.64,11.76l-14.64,3.6-3,.72q9-52.2,22.2-103.56C250.68,340.44,252.6,334.2,254.64,328Zm2.16-28.08a9.42,9.42,0,0,0-5,6.48c-5.4,19.32-10.32,38.64-14.76,58.2-6.84,30.6-13.08,61.44-18.72,92.28a14.16,14.16,0,0,0-1.44,8.52l-4.2,24.48a229.65,229.65,0,0,1-7.44,31.08,191.2,191.2,0,0,0-9.6,62.16,2,2,0,0,0,1.68-.6,81.1,81.1,0,0,0,8.88-21.84q8.64-36.18,14.52-73.08l3.72-22.92c13.8-4,27.72-7.32,42-10.32,6.24-1.32,10.8-3.48,13.56-6.36l5.4,27.84c2,10.2,4.44,20.4,7.2,30.36q9,31.5,17,63.24a134.26,134.26,0,0,0,11.88,30.72,2.35,2.35,0,0,0,1.32-2,207.52,207.52,0,0,0-13.32-65.16,221.16,221.16,0,0,1-9.24-31.2q-8.82-38.34-18.72-76.2a1038.93,1038.93,0,0,1-24-119.28Zm26.52-4.08a438.35,438.35,0,0,0,4,56v.72a354.75,354.75,0,0,0,8.4,69,449.66,449.66,0,0,0,10.8-52.2l1.44,27.6c.48,10.44,2.4,19.44,5.88,27a89.82,89.82,0,0,0,6.48-24,522.63,522.63,0,0,1,13.56-71,84.73,84.73,0,0,0,2.76-32,599.15,599.15,0,0,0-22.2,107.64l-.24-.24a309.1,309.1,0,0,0-7.92-54.36c-4.2,17.28-7.8,34.56-11,51.84v-.84q-3.24-53.1-11.4-105.48C283.44,295.56,283.32,295.68,283.32,295.8Zm-117,84.84c1.08,10.92-4.08,15.24-15.24,13.08l-2.76-.48.36-14.4,14.76-2.16Zm-18.6-6.12-3.6,17.64-2.4-1v6.48l1.56.84.24,23.16,4-20.88,13.2.72,13.8,19.56a5.73,5.73,0,0,0,3.6,2.88,49.37,49.37,0,0,0-13.44-26.4c6.12-8.28,6.24-16.2.36-23.88a16.39,16.39,0,0,0-4.8-4.32ZM164,258.12A584.41,584.41,0,0,0,162,332h35.16c2.88-3.72,2.76-7.32-.48-10.56-11.16-.48-21.72-.48-31.44,0l.12-.84c1.08-24.36,1.68-47.88,1.56-70.56A14.87,14.87,0,0,0,164,258.12ZM87.72,11.4Q56.22,21.12,39.12,49A119.35,119.35,0,0,0,23.28,90.12a372.72,372.72,0,0,0-5.64,47.4q-3.78,63.9-4,128.16-.36,65,1.8,129.24a381.84,381.84,0,0,0,20,110q13.14,38.52,53.28,39.36a5.08,5.08,0,0,0,3.72-1.08q35.64-26.1,37.56-70.56l-1.32.36h-.84l-1.32-.24-.6.12-.72.6-1.08.84-.84.72a97.68,97.68,0,0,1-21.84,45.36,12.91,12.91,0,0,1-8.76,4.8q-39.24,5.22-52.68-32.64a283.6,283.6,0,0,1-15.84-77.76C21.6,372,19.92,329,19.32,285.72c-.36-21.84-.72-43.44-.84-64.92A792.17,792.17,0,0,1,23.76,125l1.68-16.44q4.5-56.34,53.88-81.72a21.09,21.09,0,0,1,18-1.2,55.58,55.58,0,0,1,28,22.2,18.62,18.62,0,0,0-2.16-14.64A80,80,0,0,0,106.56,13.8l-2.4-.72A35.92,35.92,0,0,0,87.72,11.4Zm250,199.68C326.28,218.16,320.4,228.84,320,243a70.47,70.47,0,0,1-1.8,14.28c-3.24,15.24-.24,28.44,9.12,39.36,13.56.6,20.64-4.92,21.36-16.8-10.2,8.88-19.2,9-26.76.24.24-12.12.72-24,1.32-35.76.72-14,7.08-21.84,19-23.28a4.45,4.45,0,0,1,2.76,3.24c.6,2.52,2,3.48,4.08,3a5,5,0,0,0,.48-3.72,20.37,20.37,0,0,0-7.32-12.24Zm12.12-.24a133.22,133.22,0,0,0,2.16-41.4,90,90,0,0,0-2.76,36.48ZM187.92,19.56c.12-5.4-.12-10.92-.48-16.32a.5.5,0,0,0-.72.36c-.84,5.28-1.56,10.56-1.92,15.72a95,95,0,0,0-23.64,1.92c0-6.36-.24-12.6-.72-18.84a68.48,68.48,0,0,0-4.68,24.12c-.36,9.72.84,18,3.36,24.6l.24-.36c.84-7.68,1.44-15.24,1.68-22.8a184.64,184.64,0,0,0,23.16.36,168.18,168.18,0,0,0,.84,23.4l.48-.6c1.08-7.68,1.92-15.36,2.28-23l2.88-.24.6-.84a6.35,6.35,0,0,0-.6-7.2ZM270.6,11.4c7.44-2.64,9.72-1.8,6.72,2.64.48,1.8,2,1.92,4.56.36a4.42,4.42,0,0,1,3.24,2.52c1.8,3.6,3.72,5.4,6,5.28l7.68,15.36a238,238,0,0,1,25,107.76q-.18,64.8-34.56,119.16c-9.36,14.76-22.68,20.52-40,17.52-11.64-2-20-8.64-25-19.56a258.65,258.65,0,0,1-22.8-114.72c.24-11,.72-21.84,1.32-32.52q4-68.76,64.2-102.72l2.4-.48ZM292.32,6A44.31,44.31,0,0,0,270.6-.24a121.79,121.79,0,0,0-41.28,31.08A90.66,90.66,0,0,0,210,66.48a355,355,0,0,0-11.4,127c1.2,13.44,2.88,26.76,5,40.08a96.72,96.72,0,0,0,27.48,53.76q19.08,19.26,43.56,6.48a64.51,64.51,0,0,0,29.16-30.12Q332.46,204.78,331.92,138a205.83,205.83,0,0,0-15.6-77.4L293.88,6.48Zm76.92,382.44a679.67,679.67,0,0,0-.72,79.68A194.59,194.59,0,0,0,392.88,464a8.25,8.25,0,0,0,0-8.16,103.06,103.06,0,0,0-22-.48l.12-.84a614.41,614.41,0,0,0,1.56-77.16A21.07,21.07,0,0,0,369.24,388.44ZM353,259.8l-14.28,1.92-.24,3.84,13.2,1.56.24,29.16a57.89,57.89,0,0,0,2.16-31.92Zm28.2-43.68-1.08-.24c-17.88,23.28-21.6,50.28-11.4,81,9.48,3.48,13.56.72,12.24-8.4l-11.16-.6c-10.44-27-6-48,13.32-62.76l3.84,2.4C388.56,221.88,386.64,218,381.24,216.12Zm-4.32,48.24-.48,4.56,7.2,2.52a59.56,59.56,0,0,0,1,29.52,115.54,115.54,0,0,0,.72-39.6ZM369,124.8l-10.8,30.48L352,125a123.36,123.36,0,0,0-12.36,41.4,3.56,3.56,0,0,0,.24,1.92l11.64-29,5.64,28.2A66.11,66.11,0,0,0,369,130.44Zm57.36,1.8c-10.2,5.4-16.44,13.92-18.6,25.68a452,452,0,0,0-7.56,81c-.24,43.08.72,86.16,3,129s3.72,86,4.56,129.12a239.62,239.62,0,0,1-1.68,32.16q-4.5,37.08,11.16,67.68a21.47,21.47,0,0,0,15-2.16c11.16-6.12,13.2-13.2,6.12-21.36C432.72,574,426,576,418.08,573.84a8,8,0,0,1-.72-2.4q-4.14-58.14-4.56-117.72-.18-50.4-2.16-100.68a47.3,47.3,0,0,0,25.56,3.12,7.26,7.26,0,0,0,1-2.52l.12-.72.12-1.68a12.73,12.73,0,0,0-1-5.64q-.36-.54-.72-.36a48.82,48.82,0,0,1-25.44-3.36l-.72-16.44c-.6-10.92-1-21.72-1.2-32.4-.84-39.24-1.2-78.48-1.32-117.72-.12-20,8.64-32.64,26.16-37.56a17,17,0,0,1,1.44,5.76c.36,4.68,2,7.8,5,9.6a8.57,8.57,0,0,0,2-5.64,28.48,28.48,0,0,0-8.28-20.28l-1.56-.36Zm-28-2.88a318.19,318.19,0,0,0-12.84,35.64l-.6-1.08a124.69,124.69,0,0,0-6.72-31.68l-.36,1a429.77,429.77,0,0,0-10.08,43.2,6.29,6.29,0,0,0-.84,2.88c-1.08,13.32-1.92,26.64-2.52,39.84a26.18,26.18,0,0,0,16.56-3c3,1.08,5.52,1.08,7.56-.24a8.67,8.67,0,0,0,0-7.32,24.43,24.43,0,0,0-20,1.44v-.84a140.37,140.37,0,0,0,.84-34,132.79,132.79,0,0,0,8.88-30.48l.12.84a93.56,93.56,0,0,0,7,30.6l.6-.72a116.3,116.3,0,0,0,12.6-46.08ZM372.24,11.52q13.14,23.58-14,31.32l.6-31.68Zm.6-5.88A29,29,0,0,0,356,2.76l-.36.24-1,5.4,3,2.28-4.44,32-1.68,1.2-.12,4.8.84,1.2-.24,38.88,5.4-37.2,9.24-3.24,24.6,39.84A83.25,83.25,0,0,0,370.8,45.48c8.52-8,11.76-17.88,9.84-29.52A13.15,13.15,0,0,0,372.84,5.64ZM555,124.92a908.83,908.83,0,0,1,19.92,96.36,820.92,820.92,0,0,1,8.64,128.88c-.24,21.6-.6,43-1.2,64.08a362.14,362.14,0,0,1-23.4,120Q545.64,569,509.4,577.08a27.84,27.84,0,0,1-15.72-1c-13.32-5-26.52-6-39.36-3,1.44-17,2.4-34.32,2.76-51.72q1.26-64.08,4-128.16a1157.4,1157.4,0,0,0-1.8-129.12c-3-42.6-4.32-85.32-4.2-128.28q.18-61.74,1.8-121.56A144.23,144.23,0,0,1,501.12,37.2a132.36,132.36,0,0,1,42.12,53.4A236.42,236.42,0,0,1,555,124.92Zm7.08,4c-5.52-33.72-20-62.4-43.44-85.8A139.84,139.84,0,0,0,458,6.72l-.72.12-1.56.36-1,.6a6.27,6.27,0,0,0-.48,2.52v.24a7.79,7.79,0,0,0-.6,2.64c-2,18.36-3.36,37.08-4.2,56q-2.7,64.08,1,128.28Q453.9,262,455,326.64c.84,43-.24,85.68-3,128.28a1267.56,1267.56,0,0,0-1.8,128.16,2.32,2.32,0,0,0,2.16,2.16l.84,1.32A46.13,46.13,0,0,1,473.76,588a135.71,135.71,0,0,0,18.36,4.2A44.86,44.86,0,0,0,524.28,586q40.5-25.38,50.76-72.72a540.12,540.12,0,0,0,12.12-93.48c1.8-42.84,2.28-85.92,1.2-129.12a520.45,520.45,0,0,0-18.6-126.48A324.34,324.34,0,0,1,562.08,128.88Z" transform="translate(-13.63 0.24)"/></g></svg>