<svg id="Layer_1" data-name="Layer 1" xmlns="http://www.w3.org/2000/svg" xmlns:xlink="http://www.w3.org/1999/xlink" viewBox="0 0 592.84 599.17"><defs><style>.cls-1{fill:none;}.cls-2{clip-path:url(#clip-path);}.cls-3{fill-rule:evenodd;}</style><clipPath id="clip-path" transform="translate(-3.1 2.76)"><rect class="cls-1" x="2.76" width="592.56" height="597.72"/></clipPath></defs><g class="cls-2"><path class="cls-3" d="M399.24,587.52a206,206,0,0,0,3-53A41.62,41.62,0,0,1,422.4,546Q430.14,577,399.24,587.52Zm1.08-60.24v6.84l-2.76,54-1.44.36-.72,7.8c9.48,1,17.76-3.36,24.6-13.08q14.22-19.62,4-41c-4-8.28-10.8-12.84-20.52-13.44Zm-24.24-16.92c7.8,13.92,4.44,23.64-10.08,29.28,1.32-10.2,2.28-20.28,2.88-30.48A18.19,18.19,0,0,1,376.08,510.36ZM366.24,504a586,586,0,0,0-10.44,73.92,28.14,28.14,0,0,0,.72,10.32l8-38.52L374,547a106.68,106.68,0,0,0,17.52,44,120.78,120.78,0,0,0-15.36-46.32q18-21.42-.36-42.48l-5.76-.24Zm125.88,29.76,10.32-114.12a156.13,156.13,0,0,0-7.08,30.48c-2.52,19.8-4.68,39.6-6.72,59.52l-.36,4L470,418.32a317.3,317.3,0,0,0,4.2,45.24c2.52,14.76,5.28,29.4,8.28,44a139.49,139.49,0,0,0,8.88,28.2l-.24-3.48Zm-28.2-.24a474,474,0,0,0,4.92-116,338.73,338.73,0,0,0-2.52,42.24,280.32,280.32,0,0,1-3.84,45.12c-1.92,10.92-1.56,20.76,1,29.52ZM191.52,543l-2.4-13.68-.48,38.4,2.64-18.36,16.8.12L210.36,565a90.38,90.38,0,0,0-.12-33.6l-2,10.32ZM293,234.84c5.64-2.76,9.72-2.28,12.12,1.68a18.22,18.22,0,0,0,2,3,192.24,192.24,0,0,1,38.52,59.76c5.28,12.72,10,25.8,14,39.12a253.56,253.56,0,0,1,5.64,128.16q-12.42,58.86-57,101.16c-20.52,11.88-38.4,8.88-53.4-9a32.47,32.47,0,0,1-6.24-11A482.28,482.28,0,0,1,226.2,421.56l-2.76-64.08q-2-56.34,28.44-101.52a47.59,47.59,0,0,0,8-5.88,154.11,154.11,0,0,1,17.88-13.8l6.84-.24A28.44,28.44,0,0,0,293,234.84ZM123.6,310.32,121,391.56a387.4,387.4,0,0,0,42.48.24,10.68,10.68,0,0,0,0-9.72,161.68,161.68,0,0,0-38.16-1.92v-.72a578.05,578.05,0,0,0,1.56-78.84Q123.78,304,123.6,310.32Zm-.48-120c.12-5.76.12-11.52,0-17.4,6.36-1.56,12.12.12,17,4.92l-.36.72a15.71,15.71,0,0,0-.72,3.24v.84l-4.2,5.64L133.32,190l-3.24.6Zm-1.68-25a9.19,9.19,0,0,0-4.56,7.68l.12,1.2,2.88-.24a106.25,106.25,0,0,0,0,51.36l2.76-27.12,10.44-2.16c2.64,13.68,9.36,24.12,20.28,31.2a79.31,79.31,0,0,0-17.52-32.52c8.52-6.36,10.44-15,5.88-25.68a21.32,21.32,0,0,0-15.12-4Zm38.88-100.2v-2.4l-.12-.84-.6-.72a28.22,28.22,0,0,0-3.6-4l-1.32-.72-.24-.48Q128.34,29.76,89.88,30.6A278.78,278.78,0,0,0,64,42.48,45,45,0,0,0,50,53.16C34.32,70.8,23.52,91.68,17.4,115.68A476.87,476.87,0,0,0,3.12,237c.36,43.08,1.68,85.8,3.72,128.28C9,408.36,13.2,451.2,19.32,493.56,22.8,518.16,33,539,49.68,556.2a131.58,131.58,0,0,0,22.44,18.36c19,12.36,38.52,13.2,58.56,2.76a92.61,92.61,0,0,0,38.76-37.8q20-36,14.76-73.56A290.5,290.5,0,0,0,176,499.08a109.08,109.08,0,0,1-12.36,34.2q-16.38,29.34-49.32,36c-16.32,3.24-31.56,0-45.84-9.6a80,80,0,0,1-22.8-23.4c-16.44-25.08-25.68-53.16-27.84-84-3-42.6-5.64-85.44-8-128.28a1017.3,1017.3,0,0,1,.84-128.28,413,413,0,0,1,22.68-110c5.4-15,15-26.28,29-33.72q38.7-20.7,76.44,2.52c7.8,4.8,14.76,8.88,21,12.12A2.31,2.31,0,0,0,160.32,65.16ZM198,130.68l-24.6-.84-1.08-45.36a207,207,0,0,0-2.4,54.12l28-.6ZM186.72,20.88,183,22.56l-14.4-6.24L167.76,22l5.88,3.36A31.16,31.16,0,0,1,148.2,17a8.11,8.11,0,0,1,3.72-7.44,9,9,0,0,1,10.44-.48l1.56,1.44L181.8,16Zm35.16,16-.6-3.24a43.4,43.4,0,0,1-18.84-2.52c-4-1.44-7.92-3-11.76-4.8l-.24-13.8A60.72,60.72,0,0,0,154.68-.84c-12,8-12.84,16.8-2.64,26.4q12.6,11.7,29.16,6.12a48.77,48.77,0,0,0,38.16,9.24ZM269.76,6.72A946.2,946.2,0,0,0,293.88,113.4l4.2,14.16a339.41,339.41,0,0,0-57.12,7.2,729.48,729.48,0,0,1,18.48-73A229,229,0,0,0,269.76,0q-9.18,35.82-19.2,73.44C244.92,94.08,240,115,235.56,136l-1.56.48-.12.72a9.81,9.81,0,0,0,.12,3.24l.6.6q-2.7,12.42-5,25.2a184.08,184.08,0,0,1-8.4,31.2c-4.2,11.64-4.56,21.84-1,30.72A276.43,276.43,0,0,0,235,170.28c1.32-9.36,2.88-18.72,4.68-28l61.8-3.48.12-.12q15.3,49.86,34,97.56c2.52-13.56.6-27.36-5.52-41.52a549.87,549.87,0,0,1-25.08-69.84q-17.82-61.74-33-123C270.12,2.64,269.4,4.2,269.76,6.72ZM491.88,420.84v-.24a.62.62,0,0,1,.84-.36v.84Zm-49.8-84.6-2,25-1,1.2v2.52c13.56,1.32,19-4.92,16.2-18.84.24,6.12-3.36,10.68-10.92,13.8l-2.16.72.84-23.88,10.92,4.2-.12-.36c-1.8-5.88-5.76-8.52-12-7.68l-1.08,2.4Zm-78.72-13Q351.84,292.32,339,262q-11-26.1-32.76-40.08l-1,.6-.84.84-.36.72-27.6,1.68Q231.3,252.54,225.12,305a691.85,691.85,0,0,0-3.24,128.16c1.44,21.6,3.24,43.08,5.28,64.32a185.9,185.9,0,0,0,17.16,61.8,55.71,55.71,0,0,0,28.56,27.36c9.84,4.32,19.2,3.72,28-1.92,22.68-14.76,40-34.68,51.72-60a278.7,278.7,0,0,0,25.68-106.92A241.8,241.8,0,0,0,363.36,323.28Zm62.52,52.32,9.24-.84,10.08,9c-.12-12.24-6.72-17.64-19.92-16.32q-31,39.6.6,77.64l14.28,1.08,2.28-2,2.64,7.2a41.83,41.83,0,0,0,4-29.4l-15.24-2c2.76,4.8,7.08,7.2,13,7.08l-2.52,8.4q-26.46,9.72-28.44-26.52A50.55,50.55,0,0,1,425.88,375.6Zm-32.4,43.8a277.63,277.63,0,0,0-3.6,57.36l.48-.84a220,220,0,0,0,3.84-56.76C393.84,419,393.6,419,393.48,419.4Zm30-112-12.12,15-8.76-16a25.15,25.15,0,0,0,7.8,18.24l-2.88,13L424.2,313.8ZM388,293.4l4,3.84a14.91,14.91,0,0,1-12.48,5.88l1.2-9.36,5.4.6Zm-7.32-10.68,4.92,2.52,1.08,3-5.76,1.44Zm-2.28-3.12a2.26,2.26,0,0,0-.24,1c-.12.48.12.72.6.84L377,312l1.44-4.68c6.12,2.16,11,.6,14.76-4.56l.72-1.08c1.08-4.8-.24-8.64-3.72-11.4l-2.52-9.12-8.28-2.64ZM393.72,253a63.94,63.94,0,0,0,1.56-30.84,42.16,42.16,0,0,0-2.16,29.16Zm19.08-50.28q-1.44,39.6-2,77.88a107.24,107.24,0,0,1,36.24-2.4,10.68,10.68,0,0,0,0-9.72,71.89,71.89,0,0,0-32.76,0v-.84a402.1,402.1,0,0,0,1.68-73.08C413.88,196.32,412.92,199.08,412.8,202.68ZM399,115.44a769.76,769.76,0,0,0-22.68,94.32v-3.24a219.31,219.31,0,0,0-7.8-48,4.47,4.47,0,0,0-1.8,3.24,173.33,173.33,0,0,1-10.92,43.08l-.12-.84a381.86,381.86,0,0,0-29.88-94.44c-.48.36-.6.72-.48,1.08a844.47,844.47,0,0,1,29.16,114c1.08.12,1.68-.48,2-1.56,4-14.28,8.16-28.44,12.48-42.36a23.92,23.92,0,0,1,.6,4.08,426.68,426.68,0,0,0,5.4,43.08,243.75,243.75,0,0,0,13.44-47.16,268.31,268.31,0,0,1,13.32-47.52c3.48-9,3.12-16-1.32-20.88A14.73,14.73,0,0,0,399,115.44Zm-24.6-54A93.35,93.35,0,0,1,369,99.36c-18.12,9.24-26,2.88-24-19.08.84-8.52,1.32-17.16,1.56-25.92q-19.08,36.18,8.64,57a4.73,4.73,0,0,0,6.12.12c12.48-8.88,18-21.36,16.44-37.32A39.15,39.15,0,0,0,374.4,61.44ZM371.52,23c-4,9.24-4.8,19.32-2.52,30.48a31.66,31.66,0,0,0,10,2.28,20.12,20.12,0,0,0,8.52-1.08v-6.6l-15.24-2.4Zm-15.6-8.88L354,18.24l-22.2,1.92V4.2l19.08,3.6Zm43.68,11a60.42,60.42,0,0,0-3.48,30.6A25.69,25.69,0,0,0,407,58.44a27.33,27.33,0,0,0,11.52-2.16l.12-6.36-19-2ZM588.72,60.48Q568,3.06,504.36,5.4q-28.08,8.82-38.28,37.44-21.6,60.66,14,116.28l35.64,55.44A442.45,442.45,0,0,1,569,333.24a479.69,479.69,0,0,1,13.8,65.88,670.68,670.68,0,0,1,6.24,74.64,279,279,0,0,1-7.2,58.32,48.78,48.78,0,0,1-9,18.6q-28.8,36.18-76,25-41.22-9.72-52.32-47.88a21.09,21.09,0,0,1,1.92-16.8,43.68,43.68,0,0,0,3.84-9.48A37.66,37.66,0,0,1,449.28,491l.24-5.28L448.08,483a56.7,56.7,0,0,0-11.4,32.4q-1.8,47.88,42.24,67.92,43.92,21.42,83.28-4l1.68-.12.6-.24a53.5,53.5,0,0,0,17.64-22.32,182,182,0,0,0,13.8-67.44A583,583,0,0,0,583.68,365,547.24,547.24,0,0,0,547,252.12a306.4,306.4,0,0,0-40.8-67.2,208.38,208.38,0,0,1-40.56-83.28q-8.46-35.82,12.6-65.88c6.48-9.48,15.48-14.52,27.12-15.12q59.94-3.42,82.32,49.44C589.68,67.32,590,64.08,588.72,60.48Zm-49.44,4.68,5.52,2.28q.18-14.22-14-7.92c-14,6.36-19.92,17.52-17.64,33.6s11,21.6,26.52,17.16c4.32-1.2,6.12-4,5.52-8.28q-11.7,2.34-20.52-3.6c-5.4-3.72-7.92-9.12-7.32-16.2l24.12.84V75.36l-22.08-.84a20.4,20.4,0,0,1,16.32-8.88ZM339.84-.84c-4.08-1.2-7.56-.36-10.32,2.52l-.24.6-.12.72.36.6a2,2,0,0,0,.72.36l-1.32,16.2-2-.12-.36,7.32a41.74,41.74,0,0,0,28.32-.24C363,12,358.56,2.76,341.64-.48Zm-113-1.68c3.24,12-.36,19.44-10.56,22.44l-4.44.6L207.24-.6a39.29,39.29,0,0,0-.6,24.36l3.84,4.92c6.84,3,12.6,1.56,17.16-4.32l2-2.76C233.88,12.84,233,4.8,227-2.76Z" transform="translate(-3.1 2.76)"/></g></svg>