<svg id="Layer_1" data-name="Layer 1" xmlns="http://www.w3.org/2000/svg" viewBox="0 0 498.58 495.22"><defs><style>.cls-1{fill-rule:evenodd;}</style></defs><path class="cls-1" d="M335.28,474.72c2.52,16.56-1.92,30.48-13.56,41.88-10.44,10.2-23.28,15.72-38.4,16.32a90.34,90.34,0,0,1-45.72-9.24l-2-1.56q-16-48.24,18.72-85.44c16.08-8.64,32.4-10.2,49-4.8l1.08,5,4.92,3C324.12,447,332.76,458.64,335.28,474.72ZM266.16,418.8a42.58,42.58,0,0,0-19.68,10.56c-18.6,25.32-26.4,53.88-23.28,85.44a25.2,25.2,0,0,0,10.2,18.48,73.61,73.61,0,0,0,29.76,13.32,76.94,76.94,0,0,0,27.72.72q45.9-7.2,52.08-52.8a72.31,72.31,0,0,0-3.24-34.44Q325.14,418,279.24,415.92ZM167.88,254a290.47,290.47,0,0,0-1.2,46.8,108.46,108.46,0,0,0,2.52,18.84l44,.72-.12-10.92a153.16,153.16,0,0,0-20.76-1.8,61.06,61.06,0,0,0-18.6,2.52l-3.6,1.2q2.7-29.88,4-60.12a293.12,293.12,0,0,0-.36-35.76v.24C171.24,228.36,169.2,241.2,167.88,254ZM153.48,73c-8-16.44-22-22.68-42-18.84C93.12,60.72,79.32,72.36,69.84,89a254.86,254.86,0,0,0-29.76,85.2A836.16,836.16,0,0,0,29.52,303.12q-.36,64.26.24,128.16A177.16,177.16,0,0,0,55.2,522.6c7.8,13,19.2,20.52,34.32,22.56q38.88,5.4,62.76-27.24c4.68-6.6,9.24-13.2,13.56-19.8,6.84-10.44,7.2-19.44.84-27-2.52,4.44-5,9.12-7.56,14.16Q144.9,513.9,116.28,527c-11.52,5.28-22.92,4.92-34.08-1q-36.72-19.26-41.88-61.92A720.23,720.23,0,0,1,35.4,351.24q1.62-48.6,1.08-96.6a347.56,347.56,0,0,1,19.8-120.36q12.78-36.36,42.48-58.2c10-7.32,21-8.88,33.24-4.44,11.64,4.08,19,12,22.2,23.64Q159.06,84.3,153.48,73Zm136,58.44q9.18,62.64,19,125.52l2.52,15.36a184.7,184.7,0,0,0-57.84,7.92l6.48-31Q272.88,186.78,283.44,124c1.44-8.28,2.52-16.56,3.36-24.72A266,266,0,0,0,289.44,131.4ZM199.32,87.72c-1.56,12.84-7.92,21.72-19.08,26.88l-1.56.72L178,68.88C194.4,64.92,201.6,71.28,199.32,87.72ZM176.16,62.28q-5.94,68-5.76,137.4c9.72-21.24,12.36-45.36,8.16-72.36l7.92-4.8a181.06,181.06,0,0,0,25.08,80.76q-2.16-41.22-23.28-82.2A48.52,48.52,0,0,0,204,97l1.08-4.32.36-1.68.36-1.68a27,27,0,0,0-5.16-23.64A22,22,0,0,0,196.8,62a33.91,33.91,0,0,0-10.68-5.16Zm112.32,3.84-.12-5.76-.6.12a290.76,290.76,0,0,0-11.4,49.92q-8.46,62.46-21.12,124.32Q242.1,298.26,227,361.08a227.19,227.19,0,0,1-9.84,30.6c-4.08,10-3.12,17.76,3,23.4a258.36,258.36,0,0,0,12.48-41.16l18.12-83a64.87,64.87,0,0,1,28.44-1.56,321.32,321.32,0,0,0,34-2.88c5.16,32.52,10.68,64.92,16.44,97.44,2,12,6.36,22.2,12.84,30.6a3,3,0,0,0,1.56-2.4A80.93,80.93,0,0,0,341,385q-12.24-42.66-20.16-86.28Q311,244,303.48,189q-8.64-63.18-14-126.72H289Zm106,359.4,36.84,36.24a595.33,595.33,0,0,1-24.84,60,25.17,25.17,0,0,0-2.52,14.52,24.44,24.44,0,0,0,2.52,8.4l31.92-78.36a121.53,121.53,0,0,0,15.36-31.68,30.33,30.33,0,0,0,1.32-15L435.72,451.2a140.54,140.54,0,0,0-39.6-32.64l-1.92,3.24Zm23.88-211.8c-1.44-.12-2.28.72-2.52,2.28a85.9,85.9,0,0,0-.6,9.6c-4.68,16.68-9.24,33.36-13.68,50.28a642.4,642.4,0,0,0-18.36,108.48l-2.76-19.8-7.8-52q-9.18-63.36-19.68-126.36-10.62-63.36-26.64-125c-3.12,2.28-4.08,5.76-2.76,10.68,7.68,30.12,14.4,60.6,20,91.2q11.7,63,18.6,126.84l7,63.6a247.12,247.12,0,0,0,15.12,62,2.4,2.4,0,0,0,1.92-2.88l-.84-10a5,5,0,0,0,1.92-3.84,501.06,501.06,0,0,1,10.32-61.44c7.56-32,13.92-64.2,19.32-96.6l.6,2.4q16,61.38,36.36,121.32a181,181,0,0,1,7.68,31.08c1.8,11.88,5.88,21.6,12,28.92a30.61,30.61,0,0,0,2.76-10.32,2.87,2.87,0,0,0,.84-1.56,438.78,438.78,0,0,0,11.16-66.24q4.5-47.88,9.6-95.64A1178.72,1178.72,0,0,1,518,124.68a208.4,208.4,0,0,1,6.36-22.92C528.6,90,529.08,79.32,526,69.84a219.3,219.3,0,0,0-13.8,44.28q-12.42,63.54-19.68,128C487.8,284,483,325.8,478,367.68a76.52,76.52,0,0,1-3.48,15.72,48.65,48.65,0,0,0-2.16,9.48q-8.28-28.62-17.88-57.12Q434.82,278.52,420,220.56l1.32-8.4a2.85,2.85,0,0,0-2.88,2Z" transform="translate(-29.4 -53.02)"/></svg>