<svg id="Layer_1" data-name="Layer 1" xmlns="http://www.w3.org/2000/svg" xmlns:xlink="http://www.w3.org/1999/xlink" viewBox="0 0 595.57 842.83"><defs><style>.cls-1,.cls-3{fill:none;}.cls-2{fill:#fff;}.cls-3{stroke:#fff;stroke-linecap:round;stroke-linejoin:round;stroke-width:0.38px;}.cls-4{clip-path:url(#clip-path);}.cls-5{fill-rule:evenodd;}</style><clipPath id="clip-path" transform="translate(0.19 0.84)"><rect class="cls-1" x="5.52" width="588.72" height="596.52"/></clipPath></defs><rect class="cls-2" x="0.31" y="0.96" width="595.08" height="841.68"/><rect class="cls-3" x="0.19" y="0.84" width="595.2" height="841.8"/><g class="cls-4"><path class="cls-5" d="M431.88,596.4,450.6,581l15.6,14.76a10.69,10.69,0,0,0,1.56-8.76l-.36-1a23.77,23.77,0,0,0-10.2-11l6.6-5.76c1.8-4,1.32-7.44-1.56-10.68l-.48-.48-.72-.48-2.4,4.32-7.8,7.2-10.08-8.4,5,13.08-15.72,16Zm-79.56-41.88-1.44-24.72q-9.72,16.38.36,33.84l11.64-.6q10.26-15.48,4.32-33.48l-5.76,24Zm62.16-10.2L412.56,532c-5.16,10.92-5.28,22.32-.48,34.08l2.4-14.76,8.76-.6L426,564.84a84.24,84.24,0,0,0-.36-32.88l-2.28,10.68Zm6.36-47.4-17.16,1-2.16,1.32-.12,3.36,1.08,1.2a94,94,0,0,0,1,31.2L405,519.12A11.85,11.85,0,0,0,416.64,516l-.12-4.56c-3.36-1.56-7.2-1.32-11.52,1l-.36-7.8a22.53,22.53,0,0,0,15.6-.48ZM386.4,530.64c-8.52,8.52-11.52,19.08-9,31.56l5.16,5.76,4.92.48,8.52-7.32,2.64,4.08a22.78,22.78,0,0,0,1-20.28l-12.12,3.24,10.2,3.84c-2.52,2.52-6.12,4.32-10.8,5.52l-5.4.36c-2-4.44-1.68-8.88.84-13.56a30.35,30.35,0,0,1,3.72-5l4.08,1.44c2.52-1.8,2.64-4.44.36-7.8l-.6-.84Zm59.76-36.48-22.44,3.12-.48,3.84L435,504.84l-.12,29.76a61,61,0,0,0,2.52-30.12l9.36-3.36Zm42.24-22.32a17,17,0,0,0-.6,14.64c5.16.12,8.76,2.28,11,6.36-5.16,2.76-10.44,1.92-15.6-2.52l-.84,8.88A19.3,19.3,0,0,0,499,503.28l4.8-2.88c2.88-8.52.36-15-7.44-19.44a16.54,16.54,0,0,0-5.76-2c4.08-3.48,8.16-3.6,12.36-.12l.6.6c3-6.84.48-10.68-7.56-11.28h-2.4ZM118.08,439.68c-.36,8.52-1,17-1.92,25.8l-2,1.2.24,7.92,1.56,1c-3,22.2-2.64,43,1,62.52l3.36-63.48a22.93,22.93,0,0,0,14.76-5,315.89,315.89,0,0,0,33.36,64.92q-7.2-36-29.76-69,16.2-27-13.92-31.32C120.36,433.56,118.2,435.48,118.08,439.68Zm22.08,12.72-9,9.48-11.28,1.8-1.08-19.2,4.32-3.48q11.16-2.88,15.84,6.84A15.07,15.07,0,0,1,140.16,452.4ZM130.92,253l1.68,1.68-5.76,5.64-1.92-.36-.6,1.56-3.48,1.08-.12-9.36Zm4.92,9.12c2.64-7.68.6-13.32-6.24-16.8l-3-1.2-8.16,3.84-.24,5.64c-4.44,10.44-4.56,20.76-.24,30.84l2.52-16,5,.48,1.32-.6L142,285l1.08-9-11-10.92ZM106.2,191.4a135,135,0,0,1,1.68,23.16l31.2,2.16a9.87,9.87,0,0,0,.72-10.56l-27.24-3.24a161.06,161.06,0,0,0,.24-46.2C106.44,166.68,104.28,178.2,106.2,191.4ZM65.28,149.16q42.3-20,67,17.28a32.56,32.56,0,0,0,1.08,4.92l1,3.12.48.84c3-4.8,3.24-10.32.72-16.44A56.91,56.91,0,0,0,113,132l-2.28-.6a62.36,62.36,0,0,0-22-4q-52.92,9.72-65.52,60.84A592.73,592.73,0,0,0,6.72,312a1063.28,1063.28,0,0,0,4.2,128.28c1,10.8,1.44,21.6,1.32,32.4Q12.06,528.3,41,573.24c6.84,10.56,16.08,16.68,28,18.48q43.2,6.48,59.28-33.72a235.74,235.74,0,0,0,12.36-41.88c1.8-9.36-.24-16.32-5.88-20.76a180.11,180.11,0,0,1-18.24,59.52,32.47,32.47,0,0,1-22.8,18q-40.5,9.54-58.32-28.44a75.56,75.56,0,0,1-5.16-16.56A1085.8,1085.8,0,0,1,14.4,400a766.27,766.27,0,0,1,1.8-124.2c1.92-20,4.2-39.84,7-59.52q5.4-39.06,34.2-63.84A78,78,0,0,0,65.28,149.16ZM69.6,27.6A64.53,64.53,0,0,1,81.12,71.88a49.61,49.61,0,0,1-3.48,13.8c-10.2-6-19.2-4.8-26.76,3.6l-.6,4.92c7.2-2.64,14.64-2.4,22.44.84-8.52,15-20.88,21.48-37.08,19.32a29,29,0,0,1-8.28-2.64Q5.22,58.62,37.32,11C47.76,7,56.76,9,64.08,17A22.45,22.45,0,0,1,69.6,27.6ZM170.52,48.48a74.93,74.93,0,0,1-9.36,44.88,53.4,53.4,0,0,1-5.4,8.16c-14.28,4.2-23-.12-26.16-13.2A220.56,220.56,0,0,1,125.16,6.6l-.36-.84-2.52-.6a329.71,329.71,0,0,0-3.12,78.36c1.08,13.92,8.16,23.76,21.12,29.4,10,4.32,17.76,1.92,23.64-7.2a76,76,0,0,0,8.4-17.52A144.1,144.1,0,0,0,177,10.68c-1.2-5.64-2.52-7.8-4-6.24A135.1,135.1,0,0,0,170.52,48.48ZM223.44,45a163,163,0,0,0,7.32-43.32q-12.42,33.84-23.4,70.56c-2.76,9.24-2.28,16.8,1.2,22.8q5.58-21.24,12.24-42.12a80.1,80.1,0,0,0,23.88,1.92c6.6,13.32,12.72,26.52,18.24,39.6,2.4-7.56,1.44-15.48-2.76-23.76A485.11,485.11,0,0,1,231.84,1.92c-1.32,14.76,1.44,29.64,8.52,44.4Zm91.32-30.84C310.32,7.44,303.84,4,295.44,3.72l-3.12,1.92-1-.36H291a605.61,605.61,0,0,0-8.52,88.44l6.84-38.16,14.76-1.68C308.16,70,315.36,83.4,325.8,94.2a96.59,96.59,0,0,0-18.72-41.52Q330.12,37,314.76,14.16Zm1.56,21.24-2.52,1.44-.72,1.56-22.8,7.44L291.6,13.2c10.56-1.92,19.56,1.44,26.88,10.08a9.81,9.81,0,0,1-1.32,10.44ZM581,344.16l-2-.24c-14.52,17.4-18.48,38.88-12.12,64.68,15.12,10.56,23.76,7.2,25.8-10.2a2.32,2.32,0,0,0-.36-1.2c-7.92,8.88-15.24,9.48-22,1.92A6.53,6.53,0,0,1,569,397l1.44-14.88a21.12,21.12,0,0,0,18.6,1l-.36-7a24.35,24.35,0,0,0-16.2-1.92l-2,1.92,5-21.36c6.72-2.52,11.64-.48,14.88,5.88l.48.36,2.16-1.08C594.12,350.76,590,345.48,581,344.16ZM361.56,355.68A771,771,0,0,1,345.6,482c-7.8,36.36-27.12,64.8-58.08,85.56a12,12,0,0,1-5.4,1.8c-25.32,1.32-46.08-8.16-62.28-28.2A108.63,108.63,0,0,1,196.2,484a1167.29,1167.29,0,0,1-7.08-128.4c-.12-42.84.84-85.68,2.88-128.28Q194.88,167,235.92,125l2-.84A57.65,57.65,0,0,1,264,115c15.24-.72,28.32,4.32,39,15.24l1.2,1.56a57.72,57.72,0,0,0,5,5.76l.6,2.28.72,2.52a70.15,70.15,0,0,1,16.92,25.32A494.77,494.77,0,0,1,359,291.72,406.28,406.28,0,0,1,361.56,355.68Zm6.36-58.56A433.35,433.35,0,0,0,339,173.4a335.45,335.45,0,0,0-16.2-34.68c-13.56-25-34-38-61-39.36l-7.32,3.12q-51.84,23.4-61.44,80.76a753,753,0,0,0-10.2,126.6q.36,63.9,2.88,127.44,1.26,31.14,4.68,61.92c4.2,38.76,23.52,66.12,58,82.32,16.56,10.44,32.4,10.08,47.52-.84a123.84,123.84,0,0,0,24.84-24,154,154,0,0,0,23.4-41.16,360.66,360.66,0,0,0,22-89.88A656.69,656.69,0,0,0,367.92,297.12Zm92,54.36c12.12,11.88,13.08,23.28,3,34.08a16,16,0,0,1-12.72,5.16l-1.68-1.2L448.8,351Zm-11.64-10.8a253.81,253.81,0,0,0-5.52,47,268.9,268.9,0,0,1-5.88,49.2c-2.64,11.76-2,22.2,1.92,31.2l.48-.84a525.71,525.71,0,0,0,8.52-64.92l.72.48c18.48-1.2,27.36-11.28,26.76-30.24-.6-16-7.44-26.76-20.76-32.16a16.37,16.37,0,0,0-3.72,1.68,6.32,6.32,0,0,0-2.4,1.92ZM488.16,187.8a712.13,712.13,0,0,0-34.08,64.44,65.19,65.19,0,0,1-9,14.28L444,267.84c2.64-27.48,4.44-55,5.4-82.2q-7.74,46.26-13.68,94.92c-1.32,10.44-3,20.88-5.16,31.32-2.4,11.4-2.28,22.08.24,31.8a111.67,111.67,0,0,0,8.4-31.32L442,288.72c5.4-8.76,10.56-17.64,15.36-26.64a409.25,409.25,0,0,0,10,43.32,84.89,84.89,0,0,1,3.24,18.84c.36,9.6,2.88,17.28,7.56,23.16l.24-.72A229.82,229.82,0,0,0,460.08,257c4.68-9,9-18.24,13.08-27.48a111.24,111.24,0,0,1,11.76-20.88Q493.2,197,488.16,187.8ZM377.4,126a97.73,97.73,0,0,0,1.68-33.24,42.08,42.08,0,0,0-5.64,16.92c-1,7.56.24,13.32,3.48,17.28Zm-.72-66.72L348.6,78.36l.12-19.92a19.72,19.72,0,0,0-4.92,8.88C341.16,78,341.88,88,346.08,97.44l2-13.8,16-9L385.2,93.48l-.6-3.84a24.81,24.81,0,0,0-2.4-6.24,29.17,29.17,0,0,0-10.56-11L370,71.28l9.6-5.52-.48-6.48Zm7.2-53L342,4.08l-1.32,8L364.08,16a185.86,185.86,0,0,0-2.52,48.6,134.59,134.59,0,0,0,5.16-48.48l17.52-.6Zm59.88,85.44a126.74,126.74,0,0,0-43.08.6l-2.16.48L398,98.52l23.64,1.08A242.49,242.49,0,0,0,416,185.4a553.28,553.28,0,0,0,7.44-85.8h19.68ZM440.52,5.16,408.36,1.92,408,8.4l12.24,3.72c.36,1.08-.72,2.28-3.12,3.48-7.44,3.24-11.28,8.28-11.64,15.12a213.81,213.81,0,0,0,49.08,3.36l.6-2,.36-2,.12-.72a6.54,6.54,0,0,0-2.16-5.76l-29.76-1.08L441,13.56ZM582,91.68c-8.16-29.88-27.6-48-58.2-54.6-11.4,2-19.68,8.16-25.08,18.36Q470.46,109.62,496,166.92a735.31,735.31,0,0,1,30.12,79.2A496.82,496.82,0,0,1,548.52,365a525.87,525.87,0,0,1-1.8,93.24q-6.3,58.14-54.6,91.56c-11.4-.24-19.68-5.76-24.84-16.44a12.73,12.73,0,0,1-.84-8.88c4.2-15.48,4.2-30,0-43.44a5.8,5.8,0,0,0-1.56,1.92,118.45,118.45,0,0,0-6.6,19.68c-6.6,27,.84,48.72,22.08,65.28,3.72,2.76,7.56,3.12,11.64.84a113.09,113.09,0,0,0,39.6-34.92,92.5,92.5,0,0,0,13-26.28A366.45,366.45,0,0,0,559.92,388a625.56,625.56,0,0,0-16.8-123.36,323.4,323.4,0,0,0-20.4-59.28,549.43,549.43,0,0,1-28.44-75.72c-7.08-23.64-3.24-45,11.28-64Q516.9,50.88,534,57.72c22,8.64,37.44,22.92,46.68,42.72A10.75,10.75,0,0,0,582,91.68ZM41-.6,37.92.24a33.24,33.24,0,0,0-6,7.68q-29,49.14-11.76,105.72c2,6.84,6.48,11,13.2,12.6,15.72,3.6,28.32-1.44,37.8-15.24a101.16,101.16,0,0,0,7.32-12.36A644.38,644.38,0,0,0,140.28,132a46.68,46.68,0,0,0,16.2,4.44q32,2.7,27.72-27.36-14,26.1-43.56,11.52a127,127,0,0,1-20.76-12.48A169.78,169.78,0,0,0,83,87.84Q92.76,59.22,80.28,27C73.2,8.52,60.12-.72,41.16-.84Z" transform="translate(0.19 0.84)"/></g></svg>