<svg id="Layer_1" data-name="Layer 1" xmlns="http://www.w3.org/2000/svg" viewBox="0 0 502 362.4"><defs><style>.cls-1{fill-rule:evenodd;}</style></defs><path class="cls-1" d="M170.16,128q-4.5-36.18-43.56-37.68a69.4,69.4,0,0,0-37.92,26.88A223.21,223.21,0,0,0,49,214.56a385.29,385.29,0,0,0,1.68,127L59,388.08q7.74,43.2,47.76,59.28a30.86,30.86,0,0,0,20.76,1,158.35,158.35,0,0,0,59.4-32.4A22.35,22.35,0,0,0,188.88,402c-.6-2.88-2.16-4.56-4.92-5a5.88,5.88,0,0,0-3,2.16,7.63,7.63,0,0,1-5.4,3.24h-.84a99.37,99.37,0,0,1-15.36,14.4c-23.88,18.36-47.4,18.6-70.44,1a20.9,20.9,0,0,1-6.36-7.44Q55,355.2,52.08,292.56A327.22,327.22,0,0,1,68.52,172.8q13-38.52,46.56-60.84a26,26,0,0,1,21.48-3.6c14,3.48,24.72,10.92,32.28,22.08A2.19,2.19,0,0,0,170.16,128Zm20.16-10.68q-2.52,64.44-4.2,128.4A119.84,119.84,0,0,0,225.6,249c4.56-6.36,4.2-12.36-1.08-17.88a134.29,134.29,0,0,1-33.24.24,10.78,10.78,0,0,0,.84-3.24,1209.7,1209.7,0,0,0,3.24-128.28C192.36,104.52,190.68,110.28,190.32,117.36ZM389.52,378a368.24,368.24,0,0,0,21.12-125.52A315.53,315.53,0,0,0,384.48,127.8q-15.66-36-53.28-40.08a21.8,21.8,0,0,0-17.4,3.72,18.68,18.68,0,0,0-6.72,9,47.94,47.94,0,0,0-13.2,11.88,196.8,196.8,0,0,0-36,77.64,563.44,563.44,0,0,0-12.72,128l.36,32.4q.72,49.68,36.72,80.88c10.92,9.48,23.28,13.8,37,12.72q30.78-2.34,48.6-25.68A152.32,152.32,0,0,0,389.52,378Zm-7.8-227.28A267,267,0,0,1,395,189.36a261.61,261.61,0,0,1,7,39.48,269.28,269.28,0,0,1,.6,40.56,320.68,320.68,0,0,1-5.28,43,416.65,416.65,0,0,1-10,40.56,175,175,0,0,1-19.08,42,62.53,62.53,0,0,1-36,27.36c-15,4.44-29.28,3-42.84-4.56S266.88,399,262.68,384a316.13,316.13,0,0,1-9.12-46.08,235.91,235.91,0,0,1-1.8-41.16c.6-12.84,1.44-25.8,2.64-38.88,1.32-15,3.36-29.88,6.12-44.76a232.88,232.88,0,0,1,12.24-43.8,196.41,196.41,0,0,1,19.92-38.88l-.6,4,5.52-10.68,3.36-3.48a60.11,60.11,0,0,1,18.48-7.32,55.61,55.61,0,0,1,14.76-1,23.69,23.69,0,0,1,9.84,3.12,20.69,20.69,0,0,1,7.32,7.08c1.08,1.8,2,2.88,3,3.24l.12-11.52A100.83,100.83,0,0,1,381.72,150.72ZM486,95l-4.32,2.76c-25.44,16.44-41.52,40.44-48.36,71.76q-9.9,45.36-15.24,91.68a347.86,347.86,0,0,0,7.8,126.6A52.21,52.21,0,0,0,446.4,418.2c21.72,15.36,44,15.12,66.72-.6,14.4-10.08,23.16-21.84,26.16-35.4q-1.08,22.14-3.24,43.92c-2.76,1.68-2.52,2.64.84,2.76l.12-.12c-.12,4,1.2,7,4.2,9a1.23,1.23,0,0,0,.72-.6,405.11,405.11,0,0,0,1.92-107c-11.16,2.16-22.32,4.56-33.24,7.32l-.48.84a9.69,9.69,0,0,0,.24,9.72,138.71,138.71,0,0,0,29.76-2.16v.84l-.24,16.56c-.36-2.52-.84-4.92-1.44-7.44-3.24,1-4.68.36-4.32-1.92v-1.56l-.12-.48c-3.48,5.28-4.8,11.4-3.84,18.48a34.83,34.83,0,0,1,.48,5.76q-14.4,24.48-42,32.88a41.46,41.46,0,0,1-25.32-.24c-15.36-4.8-25.44-14.88-30.24-30.12a237.8,237.8,0,0,1-10.2-87.24,726.19,726.19,0,0,1,17.76-119.28,116.46,116.46,0,0,1,35.52-60.84c20.64-4.68,38.76-1.44,54.48,10,.6-6.48-2-11.64-7.8-15.6a56,56,0,0,1-8.16-6.84L512.52,98A50.36,50.36,0,0,0,486,95Z" transform="translate(-44.5 -87.27)"/></svg>