<svg id="Layer_1" data-name="Layer 1" xmlns="http://www.w3.org/2000/svg" viewBox="0 0 427.18 245.04"><defs><style>.cls-1{fill-rule:evenodd;}</style></defs><path class="cls-1" d="M154.44,132.84a32.76,32.76,0,0,0-23.52-4.8,56.62,56.62,0,0,0-10.08,6.36,80.43,80.43,0,0,0-27.6,39.84,367.24,367.24,0,0,0-17.16,127A125.63,125.63,0,0,0,93.6,361.56c4.8,8.28,11.76,11.88,20.88,10.92Q161.1,367.8,176.64,326l-1.08.36h-1.92l-1.56.24c-10.56,8-21.48,15.72-32.64,23a36,36,0,0,1-24.6,6.12c-16.56-1.56-26.16-11.28-28.8-29a301.22,301.22,0,0,1,7.32-125,154.89,154.89,0,0,1,20.28-44.88q12.78-19.44,35.28-10.44A52.46,52.46,0,0,1,169.56,161q3.78-8.1-1.8-16.2a40.41,40.41,0,0,0-11.4-11.16A5.51,5.51,0,0,1,154.44,132.84ZM223,131.28c-10.56,4.8-17.76,13-21.72,24.48A337.09,337.09,0,0,0,183.6,279.48a101.14,101.14,0,0,1-.24,12.12q-2.88,40.68,22.8,69.12a16.26,16.26,0,0,0,6-1.32q42.84-17.82,53.52-63a242.58,242.58,0,0,0-4-127C255.36,148.44,242.52,135.72,223,131.28Zm12.84,13.56,2.28,1c7.68,17.4,14.88,35.4,21.48,53.76a116.93,116.93,0,0,1,7.08,43.56A153.8,153.8,0,0,1,259,288a129.06,129.06,0,0,1-19.56,37.32,43.35,43.35,0,0,1-28,17l-6.36,1.08c-12.36-23.16-18.24-48.84-17.64-77.28a335,335,0,0,1,11.4-79.44,126.8,126.8,0,0,1,19.8-41.4l2-.72A20.55,20.55,0,0,1,235.8,144.84ZM381.6,366.36a939.66,939.66,0,0,0-12.12-95.28L347.28,147.6l.36-2-.6,1-.24-1c-.84-.24-1.32,0-1.2.84v2.16a75.94,75.94,0,0,0-10.2,24.36l-6.6,29.16c-4,18-7.8,36-11.4,53.88-4.32-37.8-7.92-75.48-10.92-112.8l-1.8,3.48v-5.4a420.61,420.61,0,0,0-21.24,99.84,537,537,0,0,1-17,94.56c-3.24,11.64-2.88,22.2,1,31.8a9.38,9.38,0,0,0,3.84-6.24q13.5-62.46,21.12-125.76c1.92-15.72,4.56-31.32,7.8-46.8l2.28-12.72,3.84,60.72A336.66,336.66,0,0,0,316,300.36a2.43,2.43,0,0,0,1.2-1.56l1.44-6.6.12.36A111.41,111.41,0,0,0,324.6,270c6.12-39.12,13.08-77.52,21.12-115.32a520.9,520.9,0,0,0,8.52,80.4q11.7,62.82,19.68,125.64a2.56,2.56,0,0,1,1.68,2.4c-.84,4.2.24,7.32,3.24,9.48A6.31,6.31,0,0,0,381.6,366.36Zm90.24-195.84,4.32-3.24a36.53,36.53,0,0,1,22,2.88l2.4,1.08c2.52-8.52-1-14.4-10.2-17.76a22.39,22.39,0,0,0-10.92-.84q-38,37.8-5.52,88.44c16.92,26.28,24.12,54,21.84,83.16a42.18,42.18,0,0,1-10.56,24.6L480,354.48a22.29,22.29,0,0,1-18.12-2.4,31.16,31.16,0,0,1-6.84-5.76l-4.32.36q-.54,33.66,30.36,20.64c8.88-3.72,14.64-10.2,17.28-19.68a130.4,130.4,0,0,0,3.12-54,118,118,0,0,0-7.8-28,112,112,0,0,0-11.88-21.36C466.8,222.84,463,199.8,470.4,175Zm-39.48-19.2c-15.84-.48-25.92,7.8-30.36,25a360.53,360.53,0,0,0-8,40.8A376.55,376.55,0,0,0,390.48,259L389,301.68a107.6,107.6,0,0,0,7.32,43.08,112.82,112.82,0,0,0,11.16,21.36c17.88-.36,28.56-9.24,31.92-26.4a16.34,16.34,0,0,0-.6-9,97.67,97.67,0,0,1-24.48,17.52,11.77,11.77,0,0,1-5.76,1.08,168.73,168.73,0,0,1-11.52-93l32.28-4.92a10.44,10.44,0,0,0,2.52-8.28,8.2,8.2,0,0,0-2.28-5,50.16,50.16,0,0,0-32.52,5.52c-2.28-28.44,4.68-54.36,20.64-77.76a34.49,34.49,0,0,1,23,.36c1.56-5.28.12-9.6-4.44-12.84A10.4,10.4,0,0,0,432.36,151.32Z" transform="translate(-75.8 -127.59)"/></svg>