<svg id="Layer_1" data-name="Layer 1" xmlns="http://www.w3.org/2000/svg" viewBox="0 0 567.36 510.4"><defs><style>.cls-1{fill-rule:evenodd;}</style></defs><path class="cls-1" d="M211.08,75.48a61.25,61.25,0,0,1-5.16-7.32,56.43,56.43,0,0,0-7.68-10c-8.16-8.28-19.2-12.48-33.12-12.48q-34.92,0-56.88,9.72a73.39,73.39,0,0,0-32,26.76C69.6,92.16,64,105.84,59.28,123c-1,3.72-4.8,20.88-11.64,51.48q-10.8,49-14.4,68.16-7.74,43-7.8,70.32c0,10.92.12,17.16.24,18.6l3,26.28v44.64l.24,6.72a133.07,133.07,0,0,0,1.08,14,136.36,136.36,0,0,0,10.8,40.2q25.74,56.7,98.28,56.76,39.06,0,64.68-30.84a151.3,151.3,0,0,0,17.88-28.08l12.72-27.12a15.55,15.55,0,0,1,2.16,7.68c0,4.68-1.8,11.64-5.52,20.88a141.38,141.38,0,0,1-17.28,31.56q-30.06,41.4-74.64,41.4-57.78,0-88.92-43.08C41.64,480.84,35,467,30.36,451.32a173.83,173.83,0,0,1-7.08-42.84V363c-1.92-16.32-2.88-25.56-3-27.72-.12-2.52-.24-10-.24-22.44q0-30.24,10.2-83.52l8.16-42.48c3-16.08,5-29.88,6.24-41.28A164.61,164.61,0,0,1,55.2,102.72a138.5,138.5,0,0,1,24.36-40.8c12.6-14.28,27.12-23.88,43.56-29a86.92,86.92,0,0,1,43.68-2.16c13.32,2.76,24.48,7.8,33.6,15.12q13.32,11,13.32,22.68A10.31,10.31,0,0,1,211.08,75.48ZM423.72,317q0,8.64-6.24,89.76L408.6,519.12l25.44-.84,31.08.36,6.6,1,7.2.6a23.12,23.12,0,0,0,7.44-1.8c3.48-1.32,5.28-1.92,5.64-2a16.33,16.33,0,0,1,2.16,7.8c0,3.12-.48,5.4-1.32,6.84q-2.7,4.68-11.16,4.68l-8.64-.84-7.92-1.08-32.64.24c-1.08.36-10.2.48-27.12.24q-1.26-1.26-1.8-6.84a69.37,69.37,0,0,1-.36-7q0-41.58,5.88-112.92,5.76-70.2,11.4-99.84a8.14,8.14,0,0,1,3.12,4.92A36.62,36.62,0,0,1,423.72,317Zm-29.4-274c.12,1.2.24,3.6.24,7.32,0,11-.24,20.52-.6,28.56a277,277,0,0,1-2.64,28v62.52c-.72,5.4-1.08,13.44-1.08,24.36l.72,16.08q.72,15.3,1.44,24.48v50.28a215.5,215.5,0,0,1,3,31.68c.12,4.2.24,14.76.24,31.56a328.64,328.64,0,0,1-5.76,60.6q-6.3,32.76-17.88,58.68c-8.52,19.08-18.48,34-30.12,44.4-13,11.64-27.36,17.52-43.08,17.52q-37.62,0-49.32-58.08a225.68,225.68,0,0,1-4.32-40.32v-19c0-21,1.44-54.12,4.32-99.6l6-90.24L257.4,174c.84-21.72,1.44-37.8,2-48,2-37.08,5.88-67.8,11.76-92.16a15.55,15.55,0,0,1,2.16,7.68q0,19.44-6.12,101.28T261.12,227l-5.28,81.72q-5.22,83.88-5.28,103.2l.48,17.16a285.33,285.33,0,0,0,3.6,34.8q8.46,49.86,30.6,49.8,62.28,0,88.8-69.24c6.12-16.2,10.68-34.68,13.44-55.44a330.79,330.79,0,0,0,2.76-41.64c0-23.16-1.08-42.48-3.24-57.84V238.44q-.72-9.72-1.44-27l-.72-18.12a283,283,0,0,1,1.08-28.8V102l1.32-32a181,181,0,0,1,4.08-32.88C392.88,37.44,394,39.36,394.32,43.08Zm71.4,25.56c-6.84-17.52-18.48-24.48-34.92-21l-1.68-.12a278.5,278.5,0,0,1-4.32,42.36v56.76H433a35.54,35.54,0,0,0,10.56-3c.48-1.08,1.08-1.68,1.92-1.56v.48C451.56,139.2,457,134,461.76,127a67.32,67.32,0,0,0,7.2-14.4c1.56-4.68,2.4-8.52,2.4-11.64A89.34,89.34,0,0,0,465.72,68.64Zm11,32.64a78.4,78.4,0,0,1-1.32,11.4,95.44,95.44,0,0,1-6,20.76c-5.4,12.84-12.84,21.48-22.08,25.68q3.78,24.66,13.68,57.24l11.76,37.08c4.8,14.88,8.52,27.12,11,36.6a4.68,4.68,0,0,1,2.16-2.16,12.31,12.31,0,0,1,2.76,7.68,14,14,0,0,1-1,5l-2.64,6.84.12.36a3.52,3.52,0,0,1-2,.36c-3.24,0-7.2-9.6-12.12-28.68-5.4-23.16-9.36-38.76-11.64-46.8-4.56-15-8-27.12-10.56-36.36-4-14.88-6.24-26.64-6.6-35.28a41.45,41.45,0,0,1-10.44,1.32l-7.08-.12v19.32l-4.56,57.72c-2.28,22.2-5.64,41.64-10,58.08q-1.44-1.62-2.16-5.76a37.66,37.66,0,0,1-.6-6.12c0-1.44,1.68-17.28,5.16-47.4,3.72-32.52,6-53.52,6.72-63V158l-.12-.48a16.49,16.49,0,0,1-1-4.44,25.93,25.93,0,0,1,.24-4,8.15,8.15,0,0,1,.84-2.4V84.12c.48-4.32.84-9.36,1-15l.12-15a38.8,38.8,0,0,1,1.44-10.92l-.36-3.12a12.81,12.81,0,0,1,2.16-7.32l8.16-.84c19.2.6,32.28,10.56,39.36,29.88C475,72,476.76,85.2,476.76,101.28Zm53-60.36q0,2.7-3.24,32.4c-2.16,19.8-3.24,31.92-3.24,36.24,0,7.56-.72,19-2.16,34.08S519,170.28,519,177.84l.72,12.84q.72,11.52,1.44,18.72v47.16c.72,10.2,1.08,25.92,1.08,47l-.12,33.24c-.24,13-1,24-2,33.24v50.28c-.6,7.08-1.56,22.92-2.64,47.64-1.08,23.16-1.68,37-1.68,41.64,0,3.48,0,5.64.12,6.6q.54,4.5,2.88,6.12l15.12,1.08a146.46,146.46,0,0,0,21.12-2c7.8-1.32,13.32-2,16.56-2q11.7,0,14.76,4.68a5.36,5.36,0,0,1,1.08,3.36l-.24,2.28a11.18,11.18,0,0,1-2.64,7.8l-2.28-1.56a5.45,5.45,0,0,0-3.12-1.08c-4.2,0-6.72.24-7.56.84a42.26,42.26,0,0,0-14.4,1.2c-4.44,1.32-7.68,2-9.48,2l-8.4-.24-7-.6q-16.38,4.14-20.52-5.76a30.67,30.67,0,0,1-1.56-9.84l.12-10.44c1.56-50,3-82.32,4.32-96.6V364.32c.6-8.52,1.08-20.88,1.56-37.08l.6-24c0-18.72-.36-32.64-1.08-41.88V213.48q-.72-7.56-1.44-20.88l-.72-14.4q0-12.42,4.56-70.68,4.86-61.2,7.32-75.84A8.93,8.93,0,0,1,529,36.12,13.5,13.5,0,0,1,529.8,40.92Z" transform="translate(-20.04 -28.91)"/></svg>