<svg id="Layer_1" data-name="Layer 1" xmlns="http://www.w3.org/2000/svg" viewBox="0 0 595.57 842.18"><defs><style>.cls-1{fill:#fff;}.cls-2{fill:none;stroke:#fff;stroke-linecap:round;stroke-linejoin:round;stroke-width:0.38px;}.cls-3{fill-rule:evenodd;}</style></defs><rect class="cls-1" x="0.31" y="0.31" width="595.08" height="841.68"/><rect class="cls-2" x="0.19" y="0.19" width="595.2" height="841.8"/><path class="cls-3" d="M119.64,177c-.12,15.24-.24,30.48-.12,45.72l59.88-1.08.24-9.72-57.12-.6,4.32-121.8c-6.6,12.36-9.36,26.16-8.4,41.52S119.76,161.52,119.64,177ZM152.4,77.28q-19.26-23.22-51.72-19.92Q67.2,65.1,53,97.32A318.14,318.14,0,0,0,26,221.64c-.6,43.08-.72,86-.6,129.12A535.36,535.36,0,0,0,41,475.56,57.58,57.58,0,0,0,51.36,497q29.34,37.8,76.32,20,26.46-9.9,38.52-35.16c5.52-11.4,5.64-21,.48-29q-11.52,50.22-62.88,54.6-45.9,4-57-38.88A532,532,0,0,1,29.64,340.44c-.24-21.6-.24-43.2-.12-64.92a779.67,779.67,0,0,1,6.84-98.28,243.62,243.62,0,0,1,22-73.56q13-26.82,42.24-31.32,42.48-6.3,57.36,29.16C160.56,93,158.76,84.84,152.4,77.28ZM329,76.08a8.53,8.53,0,0,0-1.92,4.8,24.42,24.42,0,0,0-3,3.12l.36,2.28.72-1.08c3.48,4.08,5.4,9.36,5.76,16,1.92,34.2,2.52,68.52,1.8,103.2q-1.26,64.44.72,129a361.05,361.05,0,0,1-19,128.28,106,106,0,0,1-16.92,31.44q-27,34.38-69,11.28c-9.48-11.64-14.52-25.68-15.24-42.12L211,407c-1.92-42.6-2.52-85.44-1.8-128.28.48-27,1.32-53.88,2.64-80.4q3.06-64.44,2.76-127.44a280.09,280.09,0,0,0-5.88,39.6q-4.86,64.08-5.28,128.4-.18,65,.36,130A947.19,947.19,0,0,0,213,494.64a16.53,16.53,0,0,0,2.4,7.08c13.56,22.44,34.2,30.24,62,23.64a27.12,27.12,0,0,0,15.24-10q39.42-51.12,42.84-116.52c2.16-42.84,3-85.8,2.4-129.12-.36-21.6.12-43.2,1.32-64.8A602.19,602.19,0,0,0,333,77.4C332.16,75.48,330.84,75,329,76.08Zm27.36,268.8-.12-4a174.17,174.17,0,0,0-4.08,35.76q-1.26,64.26-4.8,128.16-.18.9-.72,1.08c-.36.12-.48-.24-.6-1.08-2.16,5.76-1.32,12.24,2.4,19.56a293,293,0,0,0,7.2-55.08c.48-15,.84-30,1.08-44.76a36.54,36.54,0,0,0,14.52-2.4,704.08,704.08,0,0,0,21.84,98.4,4.16,4.16,0,0,0,3.48,2.52,2.36,2.36,0,0,0,1-2.4q-10.44-49.86-24.72-99.24c9-4.32,14.52-13.08,16.44-26.16q5-34.74-18.84-55.44a16.34,16.34,0,0,0-12.24,1.08,4.77,4.77,0,0,0-1.68,3.24Zm17.28,5.52a46,46,0,0,1,11.88,26.4c2.52,22.44-7,35.4-28.68,38.64q.54-34.74-.36-69.12a7.56,7.56,0,0,0,1.2,3.6A21,21,0,0,1,373.68,350.4Zm106.8-83.88a39.28,39.28,0,0,0,4.44,9C506.16,308.52,516,345,514.68,385a171.93,171.93,0,0,1-16,70.08l-5,11.16c-14.4,31.56-38.4,48.36-71.88,50.16,1.44-9.72,2.4-19.68,3-29.88-.36-8.52-.24-17.4.12-26.52,1.8-43.08,1.92-86,.6-129.12q-.9-31.32-1.08-62.64c14.52,1.2,27.6-3,39-12.6l1.2-1A109.12,109.12,0,0,0,480.48,266.52Zm-58.92-187v.84l.24.84.24.6a76.21,76.21,0,0,0-1.68,15.36q-.18,38.16-1,76.2c-.72,43.08-1,86-.84,129.12l.36,129.84A527.29,527.29,0,0,1,415,497c-1.2,9.6-.6,18,1.92,25.32a18.76,18.76,0,0,0,1.2,7.68l2.16,1.68q38.7,2.7,61.2-28.8a196.54,196.54,0,0,0,33.72-78.72q12.06-64.26-8.16-125.64c-7-21.24-19.2-37.68-36.84-49.08,22.68-22,32.76-49.2,30.24-82a223.88,223.88,0,0,0-8.16-46C483.24,90,462.48,74.4,430,75h-3.6l-1.8.12V73.56l-.6,1.56h-.72l-.84.36a5.75,5.75,0,0,0-.84,2.4v1.68Zm52,22.56a135.62,135.62,0,0,1,17.64,36,96.75,96.75,0,0,1,2.4,50.64q-12.42,57.06-69.12,67.08,0-27,.72-54,1.44-60.48-.36-119.64a105.54,105.54,0,0,1,35.76,7.92l2.64.48A59.07,59.07,0,0,1,473.52,102.12Z" transform="translate(0.19 0.19)"/></svg>