<svg id="Layer_1" data-name="Layer 1" xmlns="http://www.w3.org/2000/svg" viewBox="0 0 580.67 563.7"><defs><style>.cls-1{fill-rule:evenodd;}</style></defs><path class="cls-1" d="M156.84,467.28l-31.32-2.76a137.53,137.53,0,0,0-.84-43.8c-5.88,17-6.72,35.64-2.64,55.8l34.56.48Zm144.36-26.4V428.64l12.12,3.72Zm45.36,49.92c-5.64,17.28-7.32,35.88-4.8,55.92q.9,7.74,1.08,15.48l38.4-5.4v-9.72l-33.84,2.16.72-56.76Zm-64.2,10c-1.44,22.2-2.28,44.4-2.4,66.6,13.32-.12,27-.12,40.92,0a9.86,9.86,0,0,0,.84-10.56,194.35,194.35,0,0,0-37.08-1.08V555A339.3,339.3,0,0,0,286,491.64,14,14,0,0,0,282.36,500.76Zm31.44-54.6q7.56,7,4.68,17.64l-4.32,4L298.8,468,301,448.92l7.2-3.36Zm-13.2-20A107.47,107.47,0,0,0,296,470.64l1,7.2.48-2.16,18.84.84c6.84-8.76,8-18.12,3.72-28.08a33.94,33.94,0,0,0-5.76-8.64,9.85,9.85,0,0,0,1.68-5.28,16.41,16.41,0,0,0-2-8.4l-1.44-2.52-11.16-1.08ZM117,46.32q-3.42-34-39.12-32.52a61.9,61.9,0,0,0-19.44,6.48A60.23,60.23,0,0,0,30.36,49.44a211.46,211.46,0,0,0-19,87.72C11,180.48,9.6,223.44,6.84,266.28S3.24,351.72,4,394.44A813,813,0,0,0,16.32,521.88,37,37,0,0,0,22.68,537,94,94,0,0,0,50.4,562.44a40.82,40.82,0,0,0,23.4,6.12c19.44-.84,33-10.92,40.56-30.24,3-7.56,1.92-12.84-3.24-15.6a55.42,55.42,0,0,1-19.92,28.2,13.19,13.19,0,0,1-7.44,2.76c-19.32,1.08-36.48-5.4-51.72-19.2a13,13,0,0,1-3.36-4.8A248.79,248.79,0,0,1,11.76,450q-2.88-64.08-1.68-128.28c.84-38.28,2.4-76.44,4.92-114.48,1.44-22.2,2.28-44.28,2.64-66.48,1.8-14.52,3.12-29.16,3.84-43.92C22.8,72.48,32.88,52.8,52,37.56a59.48,59.48,0,0,1,25-8.52A34.1,34.1,0,0,1,93.72,31,52.9,52.9,0,0,1,116.88,47ZM324.36,160.08a109.52,109.52,0,0,1-12.6,45.12,53.77,53.77,0,0,1-16.08,19.08L292.8,90.12q23.22,4.68,28.08,27A152,152,0,0,1,324.36,160.08ZM292.2,82.92A2.8,2.8,0,0,0,290.52,86l.12,1.68.12,1.08a62.13,62.13,0,0,0-1.32,15.36q1.44,64.8-.48,129.12c-1.32,43.08-3,86-5.28,129a272.17,272.17,0,0,0,4.2,64.68,1.52,1.52,0,0,0,.84-1.32c.12-28,.6-56.16,1.68-84.36q2-53.1,3.24-106.44l.84.36,3.12,1.08c2.28-2.4,4.44-4.8,6.48-7.32q4,36.54,10.08,73.44Q324.42,365.58,340.92,427a2.41,2.41,0,0,0,1.56-2.88q-6.12-38.7-13.32-78-11-60.3-22.68-120.12c14-18.36,21.36-39.84,22.2-64.44l.84-25.92q1.26-42.12-37.32-52.8ZM273.48,23.28c-2,40.68-2.64,81.36-1.8,121.8-.84,6.12-1.44,12.36-1.68,18.6q-.72,19.44-2.16,38.88a928.9,928.9,0,0,0-.72,129.24,984.55,984.55,0,0,1,.12,129q-3.06,46.44-33.48,79.56a43.43,43.43,0,0,0-12.48,6.72l-15.72.84c-9,.12-14.64-4.08-16.68-12.36a461,461,0,0,1-13.2-127q2.16-64.62.48-129.12t-1.92-129Q174.06,86,178.56,23l-.6-.84-1.08-.84a2,2,0,0,0-.72.36,865.67,865.67,0,0,0-7.68,112Q168.3,197.94,170,262t0,128.16A971.48,971.48,0,0,0,175,518.64,77.37,77.37,0,0,0,185,549.36c9.24,16,23.16,19.56,41.52,11a33.34,33.34,0,0,0,13.2-10.56q36.36-47.34,36.84-108.6c.24-43.56-.48-86.76-2-129.84s-1.32-86,1-129.12q3.24-64.08,4.56-129,.54-17.82-5.76-31.68A2.27,2.27,0,0,0,273.48,23.28ZM361.8,403.92l6.12-4.32c11.52,11.28,17.28,25.56,17.4,42.84.12,16.44-7.56,27-23,31.92l-5.64-2.4,2.28-68ZM358.44,338l-.24-.12-1.08,6.6,13.32,5c9.24,16.56,6.84,30.48-7,41.88l-4.68,3.48-2.52-54.24q-4.86,67.14-4,134.16a24.76,24.76,0,0,0,1.08,7.08l1.32,1.32,11,3,10.92-5.16c14.16-23.88,15.84-48.36,5.16-73.2a39.47,39.47,0,0,0-9.6-13.44l7.44-20.16C382.68,356,375.6,343.92,358.44,338Zm8.28-33.36c2-7.32,4.56-14.52,7.32-21.6a104.11,104.11,0,0,0,7.2-43.56l-25,71.64-16-59.76-5.64-17.88a309.39,309.39,0,0,0,5.52,34.92,440.22,440.22,0,0,0,12.12,45.24l3.72,11a50.09,50.09,0,0,0,6.48-9.36A50.65,50.65,0,0,0,366.72,304.68ZM407,208q-4.32,64.26-3.84,129.24.54,64.08.48,128.16c0,21.48-1.08,42.84-3.12,64q-4.32,41.76,35.64,48.12a29.3,29.3,0,0,0,9.6-8.76c5.76-8.52,5.76-15.48.12-21-5.64,13.8-15.12,16.32-28.68,7.56a18.7,18.7,0,0,0-1.92-2.4,7.78,7.78,0,0,1-3.12-5.76c-1.92-40.44-2.88-81.36-2.76-122.52,0-26,.12-51.84.48-77.64a89.26,89.26,0,0,0,24.6-2.4l.48-.6c2.52-4.56,2.28-8.88-.48-13q-12.24,1.44-24.48,4l.6-39.48c.36-21.48.6-42.84.6-64.08a342.75,342.75,0,0,1,7.92-73.92c8.76-11.4,19.32-13.56,31.56-6.48l.6-.84a16.2,16.2,0,0,1,1.8-3.12l.84-.84-1-1-.36-.72-.12-1.56a15.71,15.71,0,0,0-.72-3.24l-.24-.84-.84-.72a23.42,23.42,0,0,0-16.68-5q-23.76,9.54-24.84,36ZM352,136.68q-11.16,30.42-9.36,65c.36,6,.36,12,.24,18L388,221.64l1.08-8.4-41.64-6,5.88-68.16ZM559.2,108.24q22.32,61.38,19.56,128.88c-.84,21.48-1.32,43.08-1.56,64.92a714,714,0,0,1-11.88,124.2,572.68,572.68,0,0,1-21.24,80.28,32.55,32.55,0,0,0-5.64,7.08q-26.64,43.92-78.36,40.56c.48-40,1.92-79.68,4.44-119.4,2.76-43.08,4.2-86,4.08-129s-1.32-85.8-3.72-128.28l3.84-123.36a152.19,152.19,0,0,0-1-24.72l.72-.12q17.1-2.52,31,6.12a72.36,72.36,0,0,1,17.28,8.52,67.79,67.79,0,0,1,14.76,13.92A183.85,183.85,0,0,1,559.2,108.24ZM545.28,63.72Q518.46,19.44,465.36,17l-.36.36A7.32,7.32,0,0,0,463,23a13.36,13.36,0,0,0,1,3.6q-3.06,45.18-2.88,90.84c.12,21.48.24,42.84.48,64.08.48,42.84.72,85.8.72,129.12-.12,43-1.68,85.92-4.92,128.88q-4.5,63.9-2.76,128.4a2.35,2.35,0,0,0,1.08,1.8,5.6,5.6,0,0,0,2.76,3,91.9,91.9,0,0,0,30.36-3.24c25.56-7.08,44.88-22.56,58-46.68a174.75,174.75,0,0,0,16.56-43.2A702.36,702.36,0,0,0,581.4,351c2-42.84,3-85.68,3-128.28a334.3,334.3,0,0,0-9-77.64,342.86,342.86,0,0,0-29.88-80.64Z" transform="translate(-3.73 -13.74)"/></svg>