<svg id="Layer_1" data-name="Layer 1" xmlns="http://www.w3.org/2000/svg" viewBox="0 0 270.34 214.56"><defs><style>.cls-1{fill-rule:evenodd;}</style></defs><path class="cls-1" d="M181.8,191.88c-3.36,40-5.52,80.52-6.36,121.44a512.74,512.74,0,0,1-5.4,63.84c-1.44,9.84,0,17.88,4.2,24.12,2.52-13.8,4.56-27.72,6.12-41.88l5.76-7.08q23-31,45.24-62.64a10.44,10.44,0,0,1,3.24,3.24,435.79,435.79,0,0,1,40.08,86.88q5.4,16.2,14.76,26.64a15.33,15.33,0,0,0,1.8-15.36,800.91,800.91,0,0,0-52.92-111.24l21.48-31.32c11.88-17.4,19.08-35.64,21.84-54.72a100.56,100.56,0,0,0-14.16,20.64,585.06,585.06,0,0,1-71,105.84q-5.4,6.48-11.16,12.24l-2.88,3.24.84-15.6c1.56-43.08,1.32-85.92-.84-128.28ZM429.72,306.36A196.22,196.22,0,0,1,428,348.24q-6.12,41.4-50.88,39.12a18.82,18.82,0,0,1-8-2.28c-13.68-7.32-19.44-19.44-17.4-36.36L352,348a176.36,176.36,0,0,0,1.44-56Q341,334.8,349.8,381.72c1.92,10.2,7.92,16.8,18.12,19.56q43,11.88,62.64-26.64a84,84,0,0,0,8.88-31.92c1.32-18.48-.6-35.4-6-50.76A22.82,22.82,0,0,0,429.72,306.36Z" transform="translate(-169.5 -191.88)"/></svg>