<svg id="Layer_1" data-name="Layer 1" xmlns="http://www.w3.org/2000/svg" viewBox="0 0 595.57 842.18"><defs><style>.cls-1{fill:#fff;}.cls-2{fill:none;stroke:#fff;stroke-linecap:round;stroke-linejoin:round;stroke-width:0.38px;}.cls-3{fill-rule:evenodd;}</style></defs><rect class="cls-1" x="0.31" y="0.31" width="595.08" height="841.68"/><rect class="cls-2" x="0.19" y="0.19" width="595.2" height="841.8"/><path class="cls-3" d="M149.4,197.64a102.51,102.51,0,0,0-1.92,20.16c.12,43.08,0,86-.6,129.12a190.82,190.82,0,0,1-3,32.16c-1.08,6.36-1,11.88.6,16.44l-.24,1a8.29,8.29,0,0,0,1.32,6.36,525.85,525.85,0,0,0,66,.84l.72-.84a10.67,10.67,0,0,0-.72-12.12,168.72,168.72,0,0,1-41.88-1.32c-7.8-1.2-14.4-.36-19.92,2.4q4.32-48.78,5-99.24A901.88,901.88,0,0,0,151,196.68C150.12,196.56,149.52,196.8,149.4,197.64ZM53.28,207q-34.38,28.26-37.8,74.4c-2.28,31.08-3.36,62.16-3.48,93.36q0,64.62,6.24,128.4a101.36,101.36,0,0,0,16,46C44.64,565.56,59.76,573.6,79.56,573c27.48-.84,46.32-13.92,56.52-39.48l.36.48a4.87,4.87,0,0,0,2,.6l-.24-.48a26.84,26.84,0,0,1-.84-11.4,13.17,13.17,0,0,0-1-6.48,2.59,2.59,0,0,0-2.76-1.56,23.25,23.25,0,0,0-4.92,7.2,51.76,51.76,0,0,1-15.84,20.76q-32.22,25.38-65,1.8A37.75,37.75,0,0,1,32,519.72,809.57,809.57,0,0,1,18.84,391.8a684,684,0,0,1,8.4-125.64q5.58-34.2,35.4-48.84Q96.48,200.58,129,214.8l.6-1.56a11.92,11.92,0,0,0,0-8.16A13.26,13.26,0,0,0,127,201l-1-.72-2.28-.84c-13.08-6.6-27.6-8.88-43.68-7.08L76.2,194A74.54,74.54,0,0,0,53.28,207ZM108.72,22.2C92,47.52,75.36,73.44,58.92,99.84a87.54,87.54,0,0,1-8.52,11.64l-2.52,3.24.24-95.52c-1.08-.12-1.56.36-1.68,1.2q-5.22,53.82-5.52,108.72a287.27,287.27,0,0,1-1.8,32.16c-1.08,9.72.24,17.64,4,23.52a157.35,157.35,0,0,0,4.68-37.32V134.4L73.32,94.8v.12l14,38.76A274.85,274.85,0,0,0,109,181.56a4.14,4.14,0,0,0,1.08-4A372.31,372.31,0,0,0,77.88,92.28v-.84l-.48-3,23.88-37.56C107.64,40.68,110.16,31.2,108.72,22.2ZM279.24,36.6a160.48,160.48,0,0,0-1,45.6q7.56,62.82,15.6,125.64,4.86,39.6,12.12,78.72L241.44,295l10.32-87.48q7.38-63.72,19.56-126.6a201.15,201.15,0,0,0,3.84-47.28A169.76,169.76,0,0,0,262.92,75q-10.26,63-17.64,126.24L230,327.84q-7.74,63.54-17.4,126.6a508.93,508.93,0,0,1-13.8,62.76c-4.8,16.44-6.12,32.28-3.84,47.52,3.24-1.8,5.4-4.8,6.36-9.12Q214.86,493,224,429.72c4.44-31.56,8.64-63.24,12.6-94.8l3.24-26.52A503.6,503.6,0,0,0,308.64,301c2,10.68,4.2,21.24,6.48,31.92,6.72,31.32,12.84,62.88,18.48,94.44q11.34,63.18,22.08,126.48c1.8,9.84,5.64,17,11.52,21.72a6.6,6.6,0,0,0,.84-4.68q-5.4-30.6-10.68-62-7.74-47-17.16-93.84-12.78-62.64-24.48-125.52-11.88-63-19.2-126.48C291.6,120.6,286,78.36,279.72,36.48ZM477,55.44c-.12,42.84-.12,85.8,0,129.12.12,43.08.6,86,1.44,129.12s1,85.92.24,129c-.6,30.6-1.44,61.2-2.28,91.68q-5.22-31.5-9-63.24-7.56-63.54-18.12-126.48T427.8,218.76c-3.24-18.48-6.36-37-9.12-55.56A1147.27,1147.27,0,0,0,392,38.4l-.72.24-.12-2.16c-3,6-4.44,13.32-4.44,22l-.12,129.12q-.18,64.62-2,129c-.6,21.6-1.44,43.2-2.52,64.92q-3.24,64.26-5.4,129a429.58,429.58,0,0,0,2.4,65q7.92-8.64,7.56-22.68c-1.32-43.32-.84-86.28,1.44-129.12s3.84-85.92,4.56-129,1.08-86,1-129.12c-.12-31.68-.48-63.12-1.32-94.2q13.14,62.46,25,125.52l17.64,94.68q11.7,62.64,18.84,126.12l14.4,126c1.44,12.12,5.16,22.44,11.28,31l.72-.6a29.54,29.54,0,0,0,1.8-6.36l1.56,2.88a16.81,16.81,0,0,0,3-10.56q-2.52-64.26-1.32-129t0-129c-.84-43.08-1.32-86.16-1.2-129.12q.18-65.16-3.12-128.28C478.32,47.28,477,50.88,477,55.44Zm66.36-13.8Q507,60.9,504.72,104a1126.81,1126.81,0,0,0,3.6,168.36,14.34,14.34,0,0,0,3.48,8.16A30.89,30.89,0,0,0,518,286.2a46.38,46.38,0,0,0,5.16,3.24,38.44,38.44,0,0,0,5.16,2,12.26,12.26,0,0,0,5.16.72c10-1.2,17.88-6.12,23.76-14.64-.72,9.12.72,17.16,4.2,24a226.91,226.91,0,0,0,.48-74.28,26.54,26.54,0,0,0-19.2,5.76l.6,6.6,16-.12.36,10.32-2.4,4.92-3.72,1.56,3.6,1.92c-3.12,11.4-10.56,18-22.44,20q-12.78,2-18-9a59.4,59.4,0,0,1-5.4-25.2l-.48-47.88L510.6,164l.24-32.28c0-4-.12-7.92-.48-12-2.28-28.68,8.64-50.52,33-65.64A39,39,0,0,1,568,67.44c.48-14.76-6.72-23.28-21.48-25.44Z" transform="translate(0.19 0.19)"/></svg>