<svg id="Layer_1" data-name="Layer 1" xmlns="http://www.w3.org/2000/svg" viewBox="0 0 548.51 575.52"><defs><style>.cls-1{fill-rule:evenodd;}</style></defs><path class="cls-1" d="M260.88,314l37-280L330,292ZM149.16,328.56l-5.52-.84a14.91,14.91,0,0,0-13,4.08l-1.56,1.44-.12-6.6a482.12,482.12,0,0,0-5.76,52.92l-1.68,41a459.85,459.85,0,0,1-4,47.88,77.26,77.26,0,0,0,1.56,28.8l1,3.6A411.2,411.2,0,0,0,128,415a62.4,62.4,0,0,0,23.88-6.24l2.76-1.44,38.64,100A360.55,360.55,0,0,0,170.16,429c-3.48-8.28-7.2-16.32-11-24.36a32.14,32.14,0,0,0,15.36-21.36,82.47,82.47,0,0,0,1.68-12A93.4,93.4,0,0,0,176,361.2a41,41,0,0,0-9.24-22.56A28.77,28.77,0,0,0,149.16,328.56Zm10.32,14.52q22.14,24.84.72,48.72a115,115,0,0,1-31.8,11.64c.6-20.76.84-41.52.72-62.16a35.85,35.85,0,0,1,19.08-3.6A16.07,16.07,0,0,1,159.48,343.08ZM89.88,6.24q-58.14,19.26-67,80.52c-3,20.4-5.4,40.8-7.32,61.2a1179.78,1179.78,0,0,0-4.44,128.88c.84,43.08,1.92,86,3,129A557.3,557.3,0,0,0,31.08,528.72q11.7,45.54,56.64,51.48a27.23,27.23,0,0,0,12.84-1.2q33.12-11,48-44.28c7.44-16.56,10.08-33,7.8-49.32a2.14,2.14,0,0,0-1.44,1.44,315.4,315.4,0,0,1-17.4,43.44,63.19,63.19,0,0,1-23.28,25.92q-25.74,16-50.16-.72Q40.5,539.28,34.2,510.12a668.17,668.17,0,0,1-15-129.48c-.84-42.72-1.68-85.44-2.76-128.16a761.06,761.06,0,0,1,2.88-90.84c2.28-26.4,5.88-52.44,10.56-78.24,4-21.84,15.12-39.48,33.24-53S99.48,16.2,117.6,28.44a71.8,71.8,0,0,1,15.24,16.08,86.32,86.32,0,0,1,13.8,30.72,36.8,36.8,0,0,0-1.44-28.08Q128.46,10.26,89.88,6.24Zm90,82.92Q179.7,49.38,181,9.48A274.93,274.93,0,0,0,175.8,55l-1,32.28L174,119.4l-.72,32.28L172.56,184c-.24,13.56-.12,27.12.48,40.56l1.2,23.4.24-1.68.36,2.4a200.15,200.15,0,0,0,52.56,3l7.32-.84.6-.6L234,241.32a396.73,396.73,0,0,1-53.28-1.8l-.12.12-.36.24-.72.24-3,1.08-1.44,1a742.07,742.07,0,0,0,5.16-77.76l.12-13.2-.12-13.44-.24-32.4ZM301.68,11.4l-.6-.84L300,9.72a588.91,588.91,0,0,0-22.2,109.56q-6.66,63-14.4,125.88c-3,24-6.36,48-10.32,72l-1.44.48a10.38,10.38,0,0,0-.48,10.68c-2.52,14.52-5.16,28.92-7.92,43.44L218.76,498.48a216.26,216.26,0,0,1-8.4,31.08c-6,16.68-6.84,32.52-2.64,47.28a342,342,0,0,0,16.44-61.2q11-62.82,23.28-125.4,6.12-31.5,11.28-63.12,36.9-9.9,72.72-21.72,6.3,59.4,15.24,118.44a1171.07,1171.07,0,0,1,12.24,126.6c.48,12.24,3.36,22.44,8.76,30.48a4.75,4.75,0,0,0,1.68-4.08c-.6-20-1.68-40.08-3.36-60.12Q360.78,453,350.64,390c-6.84-41.88-12.24-84.12-16.32-126.48s-8.76-84.6-14-126.72C315.12,96,308.76,55.56,301,15.6ZM418.92,168.48l-.84-1.8A357.87,357.87,0,0,0,393.72,273.6l-11.4-104.52a935.87,935.87,0,0,0,7.2,134.64,77,77,0,0,0,1.68,8.88,40.41,40.41,0,0,0,3,7.2l.12-.24Q401,260.52,413,202.2l3-13.8a1992.09,1992.09,0,0,0,35.52,236.4l.36-.12a755.71,755.71,0,0,0-18.84-144.84c-2.16-9.6-4.08-19.32-5.64-29-3.24-19.44-5.64-38.88-7.44-58.44l-1.32-14.76A12,12,0,0,0,418.92,168.48Zm-40.68,3.6c-3.24,28.44-5.4,57.12-6.72,86-2,42.84-5.4,85.56-10.32,128a99.09,99.09,0,0,0,1.32,32.4A289.25,289.25,0,0,0,372,360.48c2.76-42.6,5.28-85.44,7.56-128.28,1.2-22,1.8-43.32,1.68-64.2C379.44,168.48,378.48,169.8,378.24,172.08Zm40.56-62.76c1.44-16.2-6.12-25.08-22.68-26.52-11.76,9.72-14,21.72-6.72,35.76l10.44,8.4q23.76,15.3-4,25.08c-7.68,2.76-13.68-.72-18.12-10.56q-.36,37.08,28.44,15.36c10.32-7.8,11.52-17,3.6-28a119,119,0,0,0-13.56-15.72,18.09,18.09,0,0,1-5.76-14.88c12.12-6.12,21.24-3.12,27.36,8.88Zm131.88,90a112.37,112.37,0,0,1-22.8,63,96.82,96.82,0,0,1-40,31.56q-6.84,3.06-9.72,6.84c.6-31.08.72-62,.36-93.12-.12-21.72-.12-43.44.24-65q.9-58.32-3.36-114.72l.24.36L487,27.12a44.54,44.54,0,0,1,18.72,1.56c22,6.36,34.68,21.12,38.4,44.28A592.19,592.19,0,0,1,550.68,199.32Zm-13.44-161C529,24.36,517,16.2,501.12,13.68a39.64,39.64,0,0,0-25.68,4l-1.08-3.24a106.76,106.76,0,0,0-3.48,16.08,89.64,89.64,0,0,0-.6,17q5,93.78,3,187.92-3.78,164.34-9.48,328.68a22.08,22.08,0,0,0,7,17.64L478,312.48l2.52,3.6a26.94,26.94,0,0,1,6.12-3.72,111,111,0,0,0,11.28-5.76,108.67,108.67,0,0,0,30.36-24.36,104.73,104.73,0,0,0,25.08-51.12,348.41,348.41,0,0,0,5.88-78.24c-.12-12.12-1-24.24-2.28-36.36S554,92.64,552.24,80.76A120.48,120.48,0,0,0,537.24,38.28Z" transform="translate(-10.93 -6.24)"/></svg>