<svg id="Layer_1" data-name="Layer 1" xmlns="http://www.w3.org/2000/svg" viewBox="0 0 502.33 440.73"><defs><style>.cls-1{fill-rule:evenodd;}</style></defs><path class="cls-1" d="M140.64,68.16C118.8,70.68,102,81,90.36,98.88A296,296,0,0,0,50.76,190a463.62,463.62,0,0,0-10.32,58.8A995.61,995.61,0,0,0,35,377.16q1.62,69.48,49.2,119.52a38.36,38.36,0,0,0,24.48,11.88A37.63,37.63,0,0,0,133.08,503c22-13.32,35-31.2,39.24-53.4a296,296,0,0,1-54.84,41.64,8.56,8.56,0,0,1-8.28.72q-32-13.68-49-45.24a147.94,147.94,0,0,1-17.52-64.08A972.35,972.35,0,0,1,45.6,255.84,332.87,332.87,0,0,1,62.16,177.6a337,337,0,0,1,33.6-70.2A60.39,60.39,0,0,1,125.4,87.24a53.71,53.71,0,0,1,24.24-1.92c9.24,1.44,16.32,5.64,21,12.6a16.52,16.52,0,0,0-.48-13.68l-3.24-6.6-.84-.84C159,70.44,150.6,67.56,140.64,68.16Zm73.56,64.2q11,63,24.72,125.52l3.48,16.2q-39.78,1.62-78.48,5.52,12.24-40.32,21.6-81.24,13.14-56,24.24-111A314,314,0,0,0,214.2,132.36ZM341,146.64a145.66,145.66,0,0,1,3.72,47.28,114.21,114.21,0,0,1-13.32,45.24,59.3,59.3,0,0,1-33,28.92l-9.24,3.12L283,269q4.5-73.62,3.24-152.52l-.72-28.92c16.68.84,29.52,8,38.76,21.6A117,117,0,0,1,341,146.64ZM209.76,78.48a110.29,110.29,0,0,0-11.52,32q-12.78,61.38-30,121.8-17.82,61.74-37.92,123.36c-6.84,21.12-14.16,41.76-21.72,62-5.16,13.8-6.6,27-4.2,39.6,4-3,6.6-7.32,8.16-12.84Q129.3,382.92,150.24,322l10.56-32.28a488.74,488.74,0,0,0,84.84-.24q9.54,46.44,16.92,93.36,9.9,63,19.08,125l3.48-.84a231.33,231.33,0,0,0-2.52-60.24q-11.16-62.82-23.52-125.4l-7-35.28a12.88,12.88,0,0,0-1.56-12.24l-.84.12-16-77.88q-13-63-21.36-124.68A16.15,16.15,0,0,0,209.76,78.48Zm76-.24-.84-3A271.26,271.26,0,0,0,280,138.36c.72,16,.72,31.92.12,48l-1.44,32-2,32a111.47,111.47,0,0,0,.48,21,89.1,89.1,0,0,0,2.16,11.28l2-3,.6,1.68c6.12,4.68,12.72,5.4,19.8,1.92l4.56-2.88,2.88-2.16,5.76-5.28a92.37,92.37,0,0,0,12.6-13.92q27.54-36.72,25.44-82.92c-1.32-28.68-10.2-54.12-26.64-76.56-8.76-11.88-20.16-18.84-34.2-21Zm121.2,224.28Q380.46,314,372,342.48a419.41,419.41,0,0,0-15.36,77.64q-4.5,43.92,24.84,73.8c6.36,6.6,14,9.12,23,7.8,35.16-5.16,57.72-23.76,67.92-56-.6-1.08-1.44-1.08-2.52.24a6.51,6.51,0,0,1-3.36,2.28l-1.44.72-3.12,4.2c-18.6,24.84-42.48,35.52-71.88,32.28l-12-9.6-2.28-1.8c-13.32-24.6-16.8-51.48-10.68-80.52a366.26,366.26,0,0,1,13.2-46.08q13.32-37.08,52.44-33.48a7,7,0,0,0-1.44-6.12C424.2,301.44,416.64,299.64,406.92,302.52Zm-50.52.36-.84-1.68L319.2,301l-43.8,5.4.24,8.88,41.52-.24A1207.44,1207.44,0,0,0,313,475.08L314.28,508l.24.6c4.68-4.08,7.08-10.56,7-19.32L319.68,315l36.36-.84A11.17,11.17,0,0,0,356.4,302.88Zm105.72.72q-10.8,42.66-9.84,90.36c.24,13.08-.12,26.28-1.08,39.48a45.61,45.61,0,0,0,3.84,22.2,386.71,386.71,0,0,0,5.4-70.56,174.58,174.58,0,0,0,52.44.36l-2.16,121.68,2.52-.12a997,997,0,0,0,6.84-122.76c3.48-3.72,4.08-7.92,1.92-12.6l-.84-1.68,1.92-65q-13.86,29.16-10,66.12l-53,4.44a299.78,299.78,0,0,1,4.8-65.64ZM427.32,97.8l12.12-1.68Q427,75.42,402.36,92.76a58.72,58.72,0,0,0-23.52,34.08,418.11,418.11,0,0,0-8.64,42.24c-2.16,14.28-3.84,28.44-5.16,42.72a111,111,0,0,0,5.16,45.72c5.88,17.4,17.16,24.36,33.84,20.76,14.28-3.24,24.12-11.64,29.76-25a73.7,73.7,0,0,0,2.4,31.08q12.78-42.3,5-88.56l-40,1.92-.24,6.6,38.4,2.4-4.08,37.08c-13.44,13.92-29,19.92-46.92,18.12-6.36-.6-10.32-4.32-11.76-11.16a209.27,209.27,0,0,1-4.56-33.12c-.36-5.16-.48-10.32-.36-15.24.12-8.52.36-17,.84-25.56q2.88-49.5,40.32-74A34.3,34.3,0,0,1,427.32,97.8ZM531,99.48l-2.88-5.64c-16.32-5.64-29.52-1.92-39.72,11a87.47,87.47,0,0,0-16.8,34.92,337.81,337.81,0,0,0-7.68,43.8c-1.56,14.76-2.76,29.64-3.36,44.4a99.15,99.15,0,0,0,8.16,43.92c7.08,16.08,19.2,20.52,36.12,13.32,15-6.36,25.08-17.16,30.36-32.52l1.92-6.24L533.88,249l-2.16.24c-10.92,13.8-25.08,21.6-42.48,23.16a15.81,15.81,0,0,1-13-3.84,7.72,7.72,0,0,1-2.4-4,228.74,228.74,0,0,1-6.36-49.44c-.12-7.08,0-14.16.48-21.12l47.76-2.16a10.84,10.84,0,0,0,2.28-5.76,12.75,12.75,0,0,0-1.68-7l-.24-.36A125.82,125.82,0,0,0,469,184a222.25,222.25,0,0,1,22.44-73.32,76.32,76.32,0,0,1,37.32-8.4Z" transform="translate(-34.79 -68.08)"/></svg>