<svg id="Layer_1" data-name="Layer 1" xmlns="http://www.w3.org/2000/svg" viewBox="0 0 449.31 507"><defs><style>.cls-1{fill-rule:evenodd;}</style></defs><path class="cls-1" d="M62.52,365.28c.6,42.84.36,85.8-.48,129a432.89,432.89,0,0,0,3.48,64.2l1-.84q3.78-37.62,4.32-76A14.68,14.68,0,0,0,76.32,476c11.16-19.56,21.84-39.24,32.16-59.28A65,65,0,0,0,111.36,441a1148.6,1148.6,0,0,0,43.92,118.8,5,5,0,0,0,2.28-4.08,64.1,64.1,0,0,0-5.4-29.64A934.31,934.31,0,0,1,112,410c7.8-15.6,15.48-31.32,22.92-47.28a106,106,0,0,1,11.88-20.16c6.24-8.52,7.08-15.6,2.52-21.12v.12a56.8,56.8,0,0,0-7,8A953.94,953.94,0,0,1,91.92,426a114,114,0,0,1-8.76,12.72c-6.12,7.8-10.2,15.6-12.24,23.64l-.12-11.88c-.6-43.2-1.56-85.92-3.12-128.16C64.08,335.16,62.4,349.56,62.52,365.28ZM98,65.64C72.72,89.52,57.24,119,51.6,154.44a492.6,492.6,0,0,0-5.16,109c1,15.24,6.84,27.84,17.64,38,10.68,10,23.52,13.32,38.28,10.08,20.28-4.44,32.4-15.84,36.36-34.44l-.48.12-1.68.84-2.88.36q-25.38,24.3-59.52,15.48l-7-5.4a49.11,49.11,0,0,1-8.76-9.24,249.05,249.05,0,0,1-7.32-58.44,271.74,271.74,0,0,1,24-114.12C82.56,90.12,94.8,79.44,112,74.52c12.6-3.48,22.68.36,30.36,11.76l.24-.84c1.44-16.92-7.44-26.52-26.76-28.56a8,8,0,0,1-3.24,1.2A29.75,29.75,0,0,0,98,65.64Zm104.4,58.08q-2.7,37.08-35.76,46.68c.72-31.8.36-63.48-1.08-94.8l1.8.12c6.6-7.2,14.28-8,23-2.4A83.43,83.43,0,0,1,202.44,123.72Zm86.76,65.76q12.78,62.1,23.64,124.44l1.92,10.32-52.92-1.68-8.64,1.08-9.12.6L256,235.32q8.64-63.36,14.88-127.2c.72-7.32,1.2-14.4,1.44-21.36Q278.76,138.42,289.2,189.48Zm-110.52-128c-5.28-.84-9.84,1-13.56,5.4l-.72-3.12A2110.83,2110.83,0,0,0,160,307l3-1,3.36-121.8,19.8-9.84A462.2,462.2,0,0,0,205.44,303.6a12,12,0,0,0,3.72,5.64q-.36-62.46-22.32-135.48c12.24-10.2,19.08-23.52,20.64-39.72a194.48,194.48,0,0,0-1-41.76C204.48,74.88,195.24,64.68,178.68,61.44Zm92.64,1c-1.08.36-1.56,1.2-1.44,2.76a60.53,60.53,0,0,0-6,24.12q-3.24,63.36-11.64,125.88l-15,110-1.56.6-.48,1.68a9.31,9.31,0,0,0-.12,4.8l.12.72.24.84.48.72-1.08,7.2Q226,405.3,214.2,468.48c-4,21.36-8.64,42.6-13.8,63.6q-4.5,17.82,2.52,31.32,9.72-37.08,16.56-75.12Q230.82,425.28,239,362l3.36-25.68q38,0,75.12,2,9.9,50.76,24.36,100.32,9,31.32,16.32,63a369.57,369.57,0,0,0,20,62.16,4.62,4.62,0,0,0,1.68-4.68,789.07,789.07,0,0,0-29-122.16A943.18,943.18,0,0,1,320,313.2q-11.34-63-23.76-125.4-12.42-62.82-24-125.16l-.12-1.8ZM487.8,87.24c-11.88-10.92-26.16-15.72-43-14.4q-51.66,22.5-60.72,80.76a824.28,824.28,0,0,0-9.36,124.32c0,43.08.6,86.16,1.8,129a418.37,418.37,0,0,0,23.28,127.32,24.08,24.08,0,0,0,13.56,14.64q30.78,13,49.32-13A217.43,217.43,0,0,0,484,499.44L485,497l-.12,27.12a81.63,81.63,0,0,0,5.4,30.48,15.57,15.57,0,0,0,4.44-11.88,1256.94,1256.94,0,0,0-7.2-128.28,380.54,380.54,0,0,1-39.72,4.68l-.48.84a13.27,13.27,0,0,0,.12,8.88,43.62,43.62,0,0,0,34.08.48l2.28,1.44,1,44.28-2-2.88-1.08.84-1.2,1.68a7.21,7.21,0,0,1-2.4,2.64v.48a97.16,97.16,0,0,1-19.68,45.24c-9.48,12.36-21.84,15.84-37.32,10.56-12.12-4.08-19.92-13-23.4-26.52A478.27,478.27,0,0,1,383.52,412c-2-42.84-3-85.92-3.12-129.24a706.36,706.36,0,0,1,10.92-126.6q6.3-34.38,32.52-55c19.92-15.48,41-16.8,63.24-3.72a3.82,3.82,0,0,0,1.8-3l.24-2.4a10.11,10.11,0,0,0-.48-3.24L488.4,88Z" transform="translate(-45.46 -56.88)"/></svg>