<svg id="Layer_1" data-name="Layer 1" xmlns="http://www.w3.org/2000/svg" viewBox="0 0 429.95 311.7"><defs><style>.cls-1{fill-rule:evenodd;}</style></defs><path class="cls-1" d="M287,146.88a150.25,150.25,0,0,0-15,56.88,339.9,339.9,0,0,1-4.2,34.8l-5.76,31.68-6.48,31.44c-2.28,10.44-4.8,20.88-7.44,31.32l-8,31.2A258.33,258.33,0,0,1,229.8,395a40.47,40.47,0,0,0-.6,31.08q21.06-69.3,35.28-140.16a97.33,97.33,0,0,0,35.88-8.28c4.2,38,6.72,76.2,7.8,114.48a30.2,30.2,0,0,0,1.08,8,56.28,56.28,0,0,0,2.4,7.2l3,6.6c4.68-25.68,4.44-52.32-.48-79.8-3.6-19.56-6.36-39.24-8.4-59.16l3.72-2.64-4.32-3.84L290.28,139.68a790.47,790.47,0,0,0,9,128.28L265.92,278,288.36,149.4ZM204.36,167q-11-37.62-50.76-38.76c-21.24,8.52-35.16,24.36-41.64,47.28a500.77,500.77,0,0,0-16,80.76q-7.56,65,19,123.72,13,28.8,44.88,23.4a84.47,84.47,0,0,0,49.44-27c10.44-11.64,16.56-24.24,18.24-37.92a22.67,22.67,0,0,0-5,5.52,135,135,0,0,1-47.88,43.44,38.2,38.2,0,0,1-28.8,3.36c-20.52-5.4-33.24-18.84-38.28-40.56a303.43,303.43,0,0,1,13-177.84q14.58-37.08,53.76-30.36a64.22,64.22,0,0,1,25.92,25.2l2.52,1.32.72.24.48-.36.36-.72Zm295.44-6.48-3.6-8.16a30.62,30.62,0,0,0-20.64-13.32l-3.72-.48c-27.24,13.68-35.76,37.92-25.8,72.84a389.92,389.92,0,0,0,30,75c7.68,14.52,15.24,29.28,22.56,44a210,210,0,0,1,13.08,34.08,153.07,153.07,0,0,1,5.88,40.32,16.56,16.56,0,0,1-1.56,7.2,10.42,10.42,0,0,1-5.52,5.76c-28.68,13.32-56.16,11.16-82.68-6.36l1.2,8.64c22.68,20.28,48.36,25.08,77,14.16a18.82,18.82,0,0,0,10.32-8.88,64.55,64.55,0,0,0,5.4-13.32,78.21,78.21,0,0,0,2.4-15,70.76,70.76,0,0,0-1.32-18.24,176.8,176.8,0,0,0-8.64-29.16,140.43,140.43,0,0,0-14.52-28A306.9,306.9,0,0,1,448.92,184.8a37.68,37.68,0,0,1,6.6-26.52c7.08-10.44,16.8-13.32,29-8.64A36.21,36.21,0,0,1,499.8,160.56ZM396.36,176.64a68.39,68.39,0,0,1,4.08,44.52c-3.72,16.56-13,28.8-27.48,36.72a48.32,48.32,0,0,1-19,5.28,1063.82,1063.82,0,0,0,7.68-115.68C377.64,150.84,389.16,160.56,396.36,176.64Zm-33.72-35.76L361,139.56l-2.88,2.52.48,6.24L348.12,263.4l-2.88-.12-.24,5.64,2.4,1.92A596,596,0,0,0,336,417.72a689.85,689.85,0,0,0,16.8-144.36A23.81,23.81,0,0,0,370,270.84a697.69,697.69,0,0,0,39.36,144.72,680.43,680.43,0,0,0-36.24-146.64,86.8,86.8,0,0,0,30-44.16l.72-2.64.6-2.88a85.39,85.39,0,0,0,1.2-26.52l-.36-3.12-.48-3.12-.6-3.24a66.07,66.07,0,0,0-5.76-17.64,45.2,45.2,0,0,0-25.08-22.68A30.21,30.21,0,0,0,364.2,141Z" transform="translate(-94.33 -128.28)"/></svg>