<svg id="Layer_1" data-name="Layer 1" xmlns="http://www.w3.org/2000/svg" viewBox="0 0 558.48 534.14"><defs><style>.cls-1{fill-rule:evenodd;}</style></defs><path class="cls-1" d="M143.16,301.68q23.76-.36,42.48,9.72a42.68,42.68,0,0,1,12.12,8.76c3,3,4.44,5.64,4.44,7.92a7.41,7.41,0,0,1-.84,3.72,3.46,3.46,0,0,1-3.24,2.16c-.6,0-1.8-1.2-3.84-3.48a40.77,40.77,0,0,0-8.52-7.44c-10.92-7.32-27-11-48.48-11q-31.5,0-55.44,22.2a111.3,111.3,0,0,0-22.56,30.72c-6,11.88-9.6,21.48-10.8,28.92-.36,2.76-.6,11.16-.6,25.44l-.84,20a165,165,0,0,0,4.68,40.8q14.58,58.5,70.08,58.44,43.74,0,63.72-10.32a45,45,0,0,0,12.6-9.6l7.56-9.48a48.29,48.29,0,0,0,5.76-9.36c1.92-4,3.48-7,4.56-9A37.16,37.16,0,0,1,231.12,475l1.44,1.92a4.31,4.31,0,0,1,.72,2.64q0,6.12-4,15.84a77.42,77.42,0,0,1-15.84,24.36c-20.52,21.48-51.36,32.16-92.76,32.16-15.24,0-31.8-6.36-49.56-19.2a101.75,101.75,0,0,1-18.24-16.2c-4.92-5.64-7.68-10.2-8.28-13.92C43.8,497.64,42,489.12,39,476.88A100.53,100.53,0,0,1,36.24,454c0-5.4.12-9.48.24-12.24v-47c2.88-14.16,6.48-25.44,10.68-33.84C53.52,348.24,63,337.68,75.48,329a61.68,61.68,0,0,0,9.12-8.64,60.93,60.93,0,0,1,9.84-8.88C104.16,305,120.36,301.8,143.16,301.68ZM100.68,32.76c0,1.56-4.8,11.52-14.28,29.88Q68.22,97.38,65.52,103.32l-2,4.44.12.48c3.84,8.88,7,19.92,9.48,33,1.68,4.92,3.72,12.36,6,22.32,2.52,11,4.56,18.72,5.88,23.16l16.56,49.08c8.52,25.08,12.72,38.88,12.72,41.4a4.3,4.3,0,0,1-1.92,3.72,4.85,4.85,0,0,1-3,1.08c-3.72,0-9.24-11-16.56-33C87,231.6,82,213.36,77.64,194.52l-11.4-47.16C63,133.8,60.6,123.72,59.16,117.12L49.56,139A230.31,230.31,0,0,1,33.12,169.2l-3,37.32Q24,272.94,20.52,273c-2.52,0-4-1.32-4.56-4.08v-4.56c0-9,3-45.12,8.88-108.12q8.46-92,12.24-120.84c2.76-1.68,4.56-1.2,5.64,1.56a15.65,15.65,0,0,1,.84,5.88c0,3.72-.72,9.72-2,17.88s-2,14-2,17.52l-1.92,27.6Q35.4,134.1,35.4,138.6l-1.2,15.6,6.48-14.28c10.44-23.16,16.8-37.44,19.08-43.08a334.28,334.28,0,0,1,26-51.6c4.44-7,7.92-11.64,10.56-14C99.24,28.68,100.68,29.16,100.68,32.76ZM302.88,197.4q-7-46.26-16.8-123.48c-7.08,37.08-14.4,73-22,107.4l-4.92,22.2,25.44-1.68c3-.36,8.64-1.68,16.68-4.2ZM190.2,78a42.59,42.59,0,0,0-4.68-16.2c-6.6-12.24-19.68-19.08-39.12-20.4l.24,5-1.08,9.12-1.08,9.12L145.8,88l1.08,23.4L146.4,122l-1.32,14.88v26l7.92-5.52,6.84-5.4c.36-1.92,1.08-2.52,2.16-1.68,8.4-7.08,14.52-13.68,18.48-19.92,5.28-8.4,8.4-15.36,9.48-20.88.36-2.16.6-8.76.6-19.68Zm7.08,23.4a64.56,64.56,0,0,1-.12,8.64q-1.08,8.1-9.36,23.4c-3.72,7.08-10.56,15.24-20.52,24.36l3.12,5.64,11.16,22.44c5.28,10.56,9.72,19.08,13.32,25.44q6.84,13.86,16.56,36.72c7.56,17.52,11.28,27.6,11.28,30.24A4.74,4.74,0,0,1,221,282a6.29,6.29,0,0,1-4,1.32c-4.8,0-10.32-8.64-16.56-25.8-6.36-20-10.56-33-12.72-38.88-1-2.52-3.12-7-6.36-13.2L172,187.92c-5.28-10.2-8.88-18.48-10.8-24.6-6.36,5.28-11.64,8.76-16.08,10.44v11.88c-1.32,18-3.48,37.56-6.72,58.56-3.72,24.48-7,36.72-9.6,36.72s-4.2-1.08-4.8-3.12v-3.6c0-7.32,1.92-23.64,5.88-48.72,4.2-24.48,6.36-37.8,6.6-40.08V174a4,4,0,0,1-1.44-1.68l-.24-2.88,1.68-1V135c.48-3.48,1-8,1.56-13.44l.84-10.08L137.76,96.6l-1.08-14.76.24-25.56a43.72,43.72,0,0,1,5.16-13.8l.84-1.32h-3.24l-.36-1.32.36-1.68c26.64.36,43.92,7,52,19.92A40.11,40.11,0,0,1,196.8,75c.12,1.56.24,6.6.24,15ZM273,77.28c1.32-9.48,2.28-15.84,3-19.32,3-14.28,8-20.64,15.12-19,2.52,3.12,3.84,8.16,4,15,.12,8.52.72,14,1.56,16.68,2.64,8,4.08,18.36,4.32,30.84a250.88,250.88,0,0,0,2.76,31l4.44,30.72c.72,5.16,4.92,24.12,12.48,56.64q10.8,49.32,10.8,66.72a10.76,10.76,0,0,1-.72,4.08,5,5,0,0,1-4.92,3q-7.56,0-20.88-83.16l-.6-4.32A67.69,67.69,0,0,1,292,208.8a192.46,192.46,0,0,1-30.6,2.52l-4-.12c-11.4,48.6-19.2,73-23.64,73a3.36,3.36,0,0,1-3.48-2.16l-.24-1.68c0-1.92,4-19.32,11.88-52.08q13.14-55.08,16.2-71.28l5.28-30.84c2.28-13,4.32-23.28,6.36-30.84Q271.2,89.7,273,77.28Zm93.36,78.6q-15.12,102.42-23.28,146.4-4.14,23.58-13.32,63.36l-3.6,16a198.29,198.29,0,0,0,24.24-2.28l23-4.08A98.61,98.61,0,0,1,385,373.8l-2.88-37.2-3-42.36L375,246.84q-4.32-45.9-4.32-60.12c0-12.24-.36-29.76-1.08-52.44Zm10.2-112.8q2.34-3.06,3.6-2.16c1.08.6,1.68,2.76,1.68,6.72a118.27,118.27,0,0,1-1.68,15.84,111.66,111.66,0,0,0-1.56,15.36q0,98.46,19.08,288.48c2,20.76,6.48,62,13.08,124.08,4,37,6,58.2,6,63.84a11.84,11.84,0,0,1-1.08,5.28,5.58,5.58,0,0,1-5.4,3.24q-8.28,0-20.52-134.64l-4-45.36c-3.84,1.08-9,2.16-15.6,3.36-14.88,2.64-26.4,4-34.68,4l-11.4-.24-8.64,38.76q-9.36,44.28-19.2,78.72C287,540.6,280,556.68,274.92,556.68c-3,0-4.8-1.08-5.64-3.24l-.36-3.72c0-1.2,2.52-10.08,7.44-26.64L294,462.24q11-39.42,19.68-74.4v-.24l.24-1.56c0-1.68.36-2.88,1.08-3.48,8-33.12,14.28-63.12,19-90l10.68-63.72c4-24.84,7.2-46.44,9.6-64.56.6-7,2-17.64,4.32-32.16,2.52-14.76,4-25.44,4.56-32C363.36,97.8,364,92.4,365,84c1-7.32,1.56-12.72,1.68-16.32l1-7.8a39.34,39.34,0,0,1,1.92-8.52c1.44-3.72,3.6-6.36,6.6-7.8Zm63.72,44c-.72,14.4-1,31.68-.6,52v52.8c1,11.4,1.44,28.2,1.44,50.64l-.36,24.6c-.36,16.68-1,29.52-1.56,38.4V376a180.72,180.72,0,0,1-.6,23.52l-2.4,24.36V543.72h6.48l16-2.16,20.88-3.24,70.32-.24q15.66-.9,21.24,2.52a6.54,6.54,0,0,1,3.36,6.12c0,2.88-1.68,4.92-5.16,6q-9.18,2.7-35.64,0h-52l-21,2.52-22.8,2.28c-11.16,0-17-4.8-17.4-14.4a45.72,45.72,0,0,1,1.32-11.64,76.19,76.19,0,0,0,1.44-8.88V487c0-28,.12-45.36.24-52,.36-15.24,1.44-35,3.24-59.28V303.6L428,292.68c.36-4.92.72-8.52,1.08-11V200.52L428.4,194v-55.2c.12-6.12-.48-14.88-1.8-26.52C425,98.28,424.2,88.8,424,84c-1.08-22.2,3-37.68,12.24-46.68,4.68-4.44,6.72.36,6.12,14.52L441,70.68C440.4,78.48,440.16,83.88,440.28,87.12Z" transform="translate(-15.96 -29.62)"/></svg>