<svg id="Layer_1" data-name="Layer 1" xmlns="http://www.w3.org/2000/svg" viewBox="0 0 595.57 842.18"><defs><style>.cls-1{fill:#fff;}.cls-2{fill:none;stroke:#fff;stroke-linecap:round;stroke-linejoin:round;stroke-width:0.38px;}.cls-3{fill-rule:evenodd;}</style></defs><rect class="cls-1" x="0.31" y="0.31" width="595.08" height="841.68"/><rect class="cls-2" x="0.19" y="0.19" width="595.2" height="841.8"/><path class="cls-3" d="M246.48,427.68l.72-23.88,4.92-3.6c10.92-3.36,19.32-.72,25.2,8l.84,1.68c-5.4,11.64-14.64,17.4-27.48,17.28Zm9.84-40.56h-2c-10.44,9.6-15.72,22.68-15.6,39.36A189.36,189.36,0,0,1,235,465.84c-2.64,13.32-1.2,25.32,4.2,36l6.6-60.12,17-2.28a160.94,160.94,0,0,0,25.56,57.72,6.23,6.23,0,0,0,.6-.36,183.07,183.07,0,0,0-21.12-60c9.24-5.88,14.16-14.16,14.76-25a26.22,26.22,0,0,0-2-11.76c-3.48-8.28-9.72-12.48-18.84-12.84Zm-14.52-72a363.26,363.26,0,0,1,0,45.72c-.6,7.32.72,13.68,3.72,19,14.28-2.64,29.64-1.92,46.08,2.28a8.91,8.91,0,0,0,2.4-5.88,11.22,11.22,0,0,0-.48-4l-.6-1.68-.36-.6-.6-.72-.6-.48a92.79,92.79,0,0,0-40.2-2l-4,.6A381.65,381.65,0,0,0,247,273,110,110,0,0,0,241.8,315.12Zm-191-130a574.65,574.65,0,0,0-3.24,95.76q3.24,63.9,1.08,128.16c-1.56,43.08-3.84,86.16-6.84,129a169.15,169.15,0,0,0,3.12,48,2.4,2.4,0,0,0,2.64-2.4q3.42-46.44,6.48-93.24,4-59.58,2.4-119.88c12.72-18.6,24.84-37.8,36.36-57.36L104,293.88a201.78,201.78,0,0,0,7.32,42.6q17.1,61.2,33.84,122.16,16.92,62.1,36.84,122.52a4.81,4.81,0,0,0,3.48,1.68,5.11,5.11,0,0,0,2.28-4.8,208.28,208.28,0,0,0-3.6-27.72V550c-1.08.12-1.8.84-1.92,2.28-1.56-4-3.48-9.72-5.52-17q-17.1-61.38-33.84-122.76Q125.82,350.7,106.56,290h-.24c17.4-29.28,34.8-58.44,52.44-87.36l.36-.84a12.11,12.11,0,0,0-1.68-11.28,44.53,44.53,0,0,0-14.64,16.2Q112,262.38,78.72,316a230.7,230.7,0,0,1-19.08,26.4,48.86,48.86,0,0,0-4,5.64q-1.62-57.42-1.2-115a329.22,329.22,0,0,0-3.12-48Zm4.8-151.68A64.24,64.24,0,0,0,34.2,72.36c-2.52,15.24-4.56,30.6-6,45.84A73.76,73.76,0,0,0,37,161.64c8.52,15.6,21.12,20.28,38,14.16s24.24-17.64,22.44-35l-.6-3.84q-14.58,31-46.2,20.16c-9.12-3.12-13.8-9.72-14.16-19.68a273,273,0,0,1,4.44-58.56,60.09,60.09,0,0,1,8.28-21c6.6-10.2,15.24-14.52,26.16-13,9,1.32,16.44,6,22.08,13.8C100,40.92,92.16,30.6,74,27.6,67.32,26.52,61.2,28.56,55.56,33.48Zm54.24,53.4a523.34,523.34,0,0,1-2.52,58.2c-1.2,12.6.48,23.16,4.92,31.68l1.32-2.88a88.8,88.8,0,0,0,55,6.36,10.49,10.49,0,0,0,1.68-4.92l.12-2.4L170,170.4l-.24-.72a7.24,7.24,0,0,0-3.72-5.64l-10.08.6a104.31,104.31,0,0,1-39.6-2l.36-4.56c1.44-43.08,1.32-85.92-.48-128.28A216.41,216.41,0,0,0,109.8,86.88ZM222,37.32c-1.8,42.84-2.76,85.8-2.88,129.12q0,64.44,1.56,129c1.08,43,.6,86-1.2,129.12q-2.7,64.08-2.52,128.28a1.66,1.66,0,0,1-.48-.36l-1.08-3.24a86.79,86.79,0,0,0,4.8,31.68,2,2,0,0,0,1.32-1,128.74,128.74,0,0,0,4.44-34.8q-.36-64.26,1.08-129c.36-21.72.48-43.32.24-64.92q-.9-64.26-2.16-129.12C224.28,179,224.64,136,226.44,93c.36-10.8,1.08-21.6,2.16-32.28a127,127,0,0,0-.84-32.52C224.16,29.76,222.24,32.88,222,37.32ZM430.2,52.8c-6.36,9.48-9.84,20.88-10.44,34-1.92,42.6-3.12,85.32-3.6,128.4q-.72,65,2.52,129c1.08,21.72,1.68,43.44,1.8,64.92q.36,62.1-.12,123.6a885.62,885.62,0,0,1-22.92-118.44c-5.28-42.36-10.8-84.72-16.56-126.84a1239.58,1239.58,0,0,0-24-125.28,1130.16,1130.16,0,0,0-37.32-122l-.48.12-.36-3.12h-.6v3.84a3.36,3.36,0,0,0-.48,3.12l.24,1.2q-1.44,44.82-.6,91.68,1.08,64.26.6,129.12c-.24,43.08-1.08,86.16-2.64,129-1.44,43.08-3.12,86-4.92,129.12a183.61,183.61,0,0,1-2,19.92c-1.92,12.48-.24,23.16,5,31.92a60.13,60.13,0,0,0,4.92-23.52q1.44-64.62,4-129T325,294.36l.48-129q.36-53.64-4.44-105.72,9,40.86,20,81.36A1196.57,1196.57,0,0,1,368.4,267.36q10.26,63,17.64,126.48,7.2,62.82,19.68,124.68a245.81,245.81,0,0,0,20.64,61.08,3.31,3.31,0,0,0,2.4-3.72l-.6-8.28,1,1.44a20.09,20.09,0,0,0,3.12-16.56,234.2,234.2,0,0,1-5.4-48.36q-.72-64.08-1.08-128.28c-.12-43.08-.72-86.16-1.8-129q-1.62-65.16,1.8-129.24a284.57,284.57,0,0,1,3.72-32A100.76,100.76,0,0,0,430.2,52.8ZM539.4,56l-7.56-4.32C516.6,49,503,52.8,491.16,63a75.34,75.34,0,0,0-23,35.4c-4.32,14.28-8,28.68-11,43.2s-5.52,29.16-7.56,43.92a247.6,247.6,0,0,0-2.16,44.16,128.26,128.26,0,0,0,9.72,44.52c6.6,16,18.36,22.92,35.16,21.12s29.52-9.84,38.64-23.76a63.64,63.64,0,0,0,4.56-8.4,77.41,77.41,0,0,0-.6,22.92,15.58,15.58,0,0,0,6.6,11l.72-93.72-45.36,2-.84,1.08-.12.6-.36,2.64.24,1.92.72,1.68.84,1.8a152.9,152.9,0,0,1,36.36,1.44l4.8,1-.48,7.56-.6-1.32-2.76,4.8-4.08-3.6,1.68,5.52,1.8,1.2A38.46,38.46,0,0,1,530.28,254a51.88,51.88,0,0,1-21,22.68,39.61,39.61,0,0,1-10,4.08,27.19,27.19,0,0,1-9.84.84,28.76,28.76,0,0,1-12.12-3.84,35.38,35.38,0,0,1-17.16-23.16q-15.12-61.38,1-124.32,11-43.56,50.4-61.8a41.62,41.62,0,0,1,27.72-2.76Z" transform="translate(0.19 0.19)"/></svg>