<svg id="Layer_1" data-name="Layer 1" xmlns="http://www.w3.org/2000/svg" viewBox="0 0 351.95 500.64"><defs><style>.cls-1{fill-rule:evenodd;}</style></defs><path class="cls-1" d="M205.32,423.48a81.52,81.52,0,0,1-7.32,10l-7.2,1.32,3.12-50.64,4.32.6C213,394.68,215.28,407.52,205.32,423.48Zm1.8-41.76-2.76-2.16-3.24-2.16-1.68-1-5.76-2.76c-6.36,8.64-9.72,22-10.08,40.08-.12,10.44-.24,20.64-.24,30.6l-.24,25.56-.48,25.44a130.25,130.25,0,0,1-3.12,24.84q-3.78,16.38,2.52,27.36l.6.72c7.56-30.12,10-63.12,7.44-99l7.8-3.6A267.57,267.57,0,0,0,221.52,548.4a474,474,0,0,0-21-104.88c13.8-13.32,18.72-29.28,15-47.88A23.73,23.73,0,0,0,207.12,381.72ZM163.2,266q-33.48,54.54-65.64,110.28A119.33,119.33,0,0,1,84,395.4a64.6,64.6,0,0,0-11.88,20.16L73,376.08q1.8-64.62-1-127.44c-3.6,7.32-5.16,16-4.8,25.92,1.32,28.68,1.32,57.48.24,86.16-1.8,43.2-3.36,86.16-4.44,129a511.49,511.49,0,0,0,2.16,64.2c1-.36,1.44-.72,1.56-1.08a222,222,0,0,0,4.8-47.64c-.12-23.64-.12-47.4.24-71a492.49,492.49,0,0,0,29.76-46.44l18-31a490.87,490.87,0,0,0,22.8,113.64,431.21,431.21,0,0,1,15.12,61.92c1.56,9.24,4.56,16.32,9.24,21.24a2.86,2.86,0,0,0,1.08-2.4,296.22,296.22,0,0,0-14.28-76.44A1236.43,1236.43,0,0,1,121.2,354c15-25.32,30.24-50.16,46-74.52,6.12-9.48,8.16-18.84,6.24-28.08a4.2,4.2,0,0,0-3.12,2.28ZM95,74.4c11.76,10,18,23.52,18.72,40.44l2,44.76a67.9,67.9,0,0,1-12.24,42.84c-5-4.8-10.56-6.24-16.68-4.32l-.6,8L97.44,210c-5.4,8.16-12.24,10.92-20.28,8.28a6.54,6.54,0,0,1-3.24-2,90.42,90.42,0,0,1-22.2-51.6q-4.5-45.9,16.8-84A37.66,37.66,0,0,1,79,68.52a17.14,17.14,0,0,1,14.4,2.64Zm161.4-7a3.86,3.86,0,0,0-1.56,3.24q-4.68,63.72-5.64,128.16-1.08,64.62-2.76,129.12t-4.56,129.12c-1,21.72-2.88,43.2-5.88,64.56q-2.52,18.9,5,31.68a320.34,320.34,0,0,0,5.76-51.12q2.16-64.08,3.6-128.28,1.44-64.44,2.52-129t3.72-129.12a138.49,138.49,0,0,1,1.32-16C259.56,87.72,259.08,76.92,256.44,67.44Zm-74.64-3.6c-1.32,26.52-1.8,53.52-1.56,81.24q.36,36.18-20.4,64.08a30.45,30.45,0,0,1-8,1.32c-6.6-5.16-9.72-12.36-9.12-21.6,2.52-42.84,3.84-85.32,3.72-127.44A25.52,25.52,0,0,0,143,72.72q-5.58,62.82-5.16,125.88c.12,9,3,16.68,8.88,23,2.28,2.4,4.44,3.72,6.72,4.08a47,47,0,0,1-28,10.2,9.64,9.64,0,0,1-3.84-5.64c-2.28-8.64-6-15.84-11.28-21.6A102.85,102.85,0,0,0,121.68,156q-1.26-31.68-4.68-62.64Q113.22,59,80,53.28C70.32,57.12,64,64.2,60.84,74.52A255.12,255.12,0,0,0,54,200.64a46.37,46.37,0,0,0,10.92,22.44c13.56,15.72,26.4,14.88,38.52-2.76l1-1.44a353.87,353.87,0,0,0,20.52,31.44c11.16,1.08,20.4-2.88,27.6-11.64l4.08-6.84q2.52-3.78,1.44-7.2a19.24,19.24,0,0,0,3.84-3.36q23.94-27.9,25.2-66l2.16-60C189.72,82.44,187.2,72,181.8,63.84Zm116,2.76c-.6-.12-1,.12-1.08.84q-5.22,47-6.48,94.92c-1.32,42.84-2,85.8-2,129.12-.12,21.72-.48,43.32-1.08,64.92q-2,64.62-6.72,128.88a292,292,0,0,0,2.28,64.2c.84-.24,1.2-.48,1.32-.84l.12-1.08.6.48,1.56,1,1.56.48a30.5,30.5,0,0,1,11.88-1.32Q337.56,551.4,375,552a15.59,15.59,0,0,0,1.92-6.48V543a23.94,23.94,0,0,0-.6-4.92,5.2,5.2,0,0,0-2.4-3.12H369a405.48,405.48,0,0,1-67.08-5.16l-1.08.36A43.61,43.61,0,0,0,289.08,534l-3.6,2q4.32-40.32,5-81.48l3-129c1.08-43.08,1.92-86,2.52-129.12q.9-64.08,4-127.44l-.6-.72ZM353.4,82c-.24-4.68-1.92-8.28-4.92-10.8C346,84.24,344.16,98,342.84,112.44q-4.32,47.88-5.88,96-2,64.44-6.12,128.28c-2.76,42.84-6.12,85.44-10,128q-1.62,18,4.32,31l.72-1,1.32-6.6a162.72,162.72,0,0,1,71,5.64,7.5,7.5,0,0,0,1.56-2.4,18.77,18.77,0,0,0,.84-10.56l-.72-2.52a7.93,7.93,0,0,0-1.68-2.4l-1.68-.6A121.2,121.2,0,0,0,357.12,470l-19.92,1.2a35.08,35.08,0,0,0-8.64,2.16c.36-12.36.84-25.08,1.68-38l7.2-128.28,5-95.64q3.42-63,8.4-125.88l.12-.48c1.08,0,1.92-.72,2.4-2.28Z" transform="translate(-49.13 -53.28)"/></svg>