<svg id="Layer_1" data-name="Layer 1" xmlns="http://www.w3.org/2000/svg" xmlns:xlink="http://www.w3.org/1999/xlink" viewBox="0 0 482.76 599.16"><defs><style>.cls-1{fill:none;}.cls-2{clip-path:url(#clip-path);}.cls-3{fill-rule:evenodd;}</style><clipPath id="clip-path" transform="translate(-3.84 2.16)"><rect class="cls-1" x="3.84" width="482.88" height="597.12"/></clipPath></defs><g class="cls-2"><path class="cls-3" d="M164.76,560.76l5,17.16c2.28,7.92,3.36,12.24,3.36,13,0,1.8-.12,2.52-.24,2.4l-.36.36-.48.48a23.07,23.07,0,0,1-5.64-10.8,111.34,111.34,0,0,1-1.92-12.24c-1.08,2.52-2.28,7-3.84,13.44-1.8,5.88-4.56,10-8,12.48A91.41,91.41,0,0,1,150,585.12L148,573l-5.64,10.92-5.88,12a1.7,1.7,0,0,1-1-1.08l-.12-2.64c0-1.08,1.8-5.64,5.52-13.92,3.84-8.52,6.72-14.28,8.76-17.52a160.15,160.15,0,0,1,4.08,26.88v.24a261.66,261.66,0,0,0,10-26.76Zm-86.52,9.72a16.84,16.84,0,0,0-4-2.88,7.42,7.42,0,0,0-5-1L68.52,573l1.56.24,4.56-.48,3.24-.84Zm-4.68-10.2A11.55,11.55,0,0,1,78.84,564a10.71,10.71,0,0,1,2.4,6.72,30.89,30.89,0,0,1-.24,4.92,9.62,9.62,0,0,1-2,2.52,42.25,42.25,0,0,0,4.32,4.92,9.63,9.63,0,0,1,3.36,7.08l-.24,2.52-.6,1.08c-.48-.24-2.76-3.12-7-8.52L74.64,580l-5.88-.24-1.2-2-.48,2-3.72,13.8-1.08.24a12.5,12.5,0,0,1-.6-4c0-2.16.84-6.72,2.4-13.8a88.31,88.31,0,0,1,2.16-8.88V567L66,564.48c0-2.16.84-3.6,2.4-4.32A6,6,0,0,1,73.56,560.28Zm-8.4-40.56a181.65,181.65,0,0,1-.24,32.4v.6h22.8c3.24-.24,5-.6,5.16-1.2a3.05,3.05,0,0,1,.48-2.64,14.78,14.78,0,0,1,.84,5.28,26.11,26.11,0,0,1-.6,5l-6.84-.72-7.44-1.08c-6.12-.6-11.28.36-15.48,3.12A6.78,6.78,0,0,1,62,559.2a5.44,5.44,0,0,1-.36-2.52l1.2-15.24,1.56-21.72ZM30,534c-4.92,1.8-9.36,6.6-13.32,14.16-3.48,6.6-5.28,12-5.28,16.32,0,3,1.32,6.84,3.84,11.76,3.48,6.6,7.68,10,12.6,10L36,586l11-8.88,1.56,1.2a5.54,5.54,0,0,1,.6,2.76c0,2.28-1.32,4.68-4,7.44a41.58,41.58,0,0,1-9.48,6.72c-12.84-1.08-21.12-5.28-25-12.84a28.16,28.16,0,0,1-2.52-9.6l-.12-8.16c0-8,1.32-14.76,4.08-20.4,3.36-6.72,9.36-13.2,18.12-19.44l14.28.36a15.9,15.9,0,0,1,3.48,4.56,7.27,7.27,0,0,1,1.08,2.64,7.77,7.77,0,0,1-.24,2.76l-.48.48-.84.84-2.4-1.32-1.68-1.32Zm-7.32-30.72a10.05,10.05,0,0,0,3.12,7.44c1.08,1.08,4.08,3.12,8.88,6.24l13.2-.24a15.92,15.92,0,0,0,5.64-6c-1.8-1.2-3.6-2.52-5.28-3.84s-2.76-2.28-2.76-2.52a14.6,14.6,0,0,1,.12-2.52l.12-.6c2.76-1.08,6.12-.24,10.08,2.64a22.47,22.47,0,0,0,.48-5c0-3.72-.48-6.36-1.56-7.8s-4.32-3.84-9.48-6.84l.24,3.24-.48.48-.6.84L42,487.44l-1.92-1.32-8.16.24a63.86,63.86,0,0,1-7.2,9.72A11.92,11.92,0,0,0,22.68,503.28ZM93.6,516.72c-2,1.8-6.12,2.64-12.36,2.64a50.56,50.56,0,0,1-24.12-6.48c-1.56,3.24-4.68,6.84-9.48,10.8-13,0-21.24-2.88-25-8.52a15.87,15.87,0,0,1-2.16-7.08v-5.76l.12-6.84a6,6,0,0,1,1.08-3,96.61,96.61,0,0,0,9.72-13.08l8.64-.36,2.16-1.8,6.72.24c5.52,6.48,8.52,10.32,8.88,11.4.36.84.6,4.2.6,10.08l-.12,7L64,510.36a11.45,11.45,0,0,0,6.36,2.28c7.2,0,11.88-.12,13.92-.36,4.68-.48,7.92-1.68,10-3.72l.72,1a4.91,4.91,0,0,1,.36,2.28C95.28,514.08,94.68,515.76,93.6,516.72Zm1.92-34.92.6,1.08.24,2.64a41.65,41.65,0,0,1-3,14.16c-2.52,7.32-5.88,11-10,11-7.92,0-12.6-3-14.16-8.88a18,18,0,0,1-.36-6.36l.36-3.36c0-6,.12-10.56.36-13.56h1.08c.84,1.56,1.08,3.84.84,7l-1,8.52c-.6,6.6,2.16,10,8.16,10,6.36,0,10.68-3.6,13.08-10.8a43.33,43.33,0,0,0,1.56-7.68l.24-3.72Zm49.56-27.24a19.38,19.38,0,0,1-1.08,6.12v30.24a30.09,30.09,0,0,0,19.44-7.8c4.44-4,6.72-7.68,6.72-10.92a12.48,12.48,0,0,0-1.44-4.56,28.64,28.64,0,0,0-4.92-7.44c-4.92-5.28-11.28-7.8-18.84-7.56Zm-4.32-7.68q19.44-2.34,27.72,9.72a26.19,26.19,0,0,1,4.68,15.12c0,5.16-2.28,10.08-6.84,14.52Q158.58,494,144,497.76v15.72L140.76,559l-.48.48-.6.84a11.46,11.46,0,0,1-1.68-3.12,10.17,10.17,0,0,1-.48-3.48,233.56,233.56,0,0,1,4.32-43.44V497.52l-1.32-.48a1.84,1.84,0,0,1-.84-1.2V490.2c.12,0,.36-.24.48-.84.12,0,.12.24.12.84s.48.84,1.56.84V456.6l.84-3.84-2.52.36-.36-.72a9.2,9.2,0,0,1-.12-2.16l.12-2.4C139.92,447.48,140.28,447.24,140.76,446.88Zm52.08,8.4-.72,1.08V507.6h.12l3.84.48c7.56,0,13.56-3.48,18.24-10.32a39.6,39.6,0,0,0,3.84-7.44,15.48,15.48,0,0,0,1.08-4.32,55.63,55.63,0,0,0-3-19c-3-8.76-8-13.56-14.88-14.52l-8.16.36Zm29.4,18c.12,1.44.24,5.64.24,12.6a44.16,44.16,0,0,1-3.48,17c-4,9.48-10.56,14.28-19.8,14.28l-7.08-.24-1-1.08-.12.48v45.48c-1.92,5.16-2.76,8.4-2.4,10l.84,2.28a15.68,15.68,0,0,1,.48,4.44,37.63,37.63,0,0,1-1.08,7.44c-.84,3.48-1.56,5.76-2.4,6.72-1.32-.72-1.92-2.64-1.92-5.64,0-1.44.48-6.36,1.32-14.76s1.56-13.68,1.92-15.24V512.4l1.08-3.24V454.68l-.72-1.44a9.18,9.18,0,0,1-.36-3c0-4.32,1.56-6.72,4.68-7.32,2.52-.48,6,.36,10.32,2.52a47,47,0,0,1,10.68,7.32c3.36,3,5.28,5.28,5.76,7.08A78.51,78.51,0,0,1,222.24,473.28ZM207,235.68a8.13,8.13,0,0,1,2.16-1.56l.6.84a9,9,0,0,1,.24,2.4c0,1-1.2,2.64-3.72,4.92s-4.68,3.48-6,3.48c-13.08,0-19.56-4.68-19.56-14.16a14.3,14.3,0,0,1,2.4-7.44,19.47,19.47,0,0,1,5.16-5.64c2-1.44,3.84-2,5.28-1.68s2.4,1.68,2.4,4.2q0,2.7-.36,2.52l-3.72-.36c-2.88,0-5.16,1.32-7,4.08-1.32,1.92-2,3.36-2,4.32,0,.6,1.44,1.92,4.44,4.08s4.68,3.24,5.4,3.24c6.36,0,10.44-.6,12.36-1.68Zm23.4,10.56a4.23,4.23,0,0,1,.72,2.76c0,1.8-4.8,12.72-14.52,32.88l-4.2,9c2.16,12.24,6.36,31.8,12.6,58.56L235.44,394c0,2.52-1,5.28-2.76,8.52-1.56-3.72-5.64-19.8-12.24-48.36s-10.2-47.52-10.92-57.48l-13.08,27.12v31.92c-1.08,4.2-2,11.64-2.64,22.32-.72,10.08-1.8,17.4-3.24,22.08a8.55,8.55,0,0,1-1.44-4l-.24-4.32a194.17,194.17,0,0,1,1.56-21.24c1-8.76,1.92-15,2.76-19V301.44l1.08-3.24V252.72a9,9,0,0,1,1.32-2.88,7.42,7.42,0,0,1,2.76-2.76l1.08,1.8.24,2.64a10.64,10.64,0,0,1-.72,3.6l-1.44,3.36v44.64l-1.08,3.24v6.12c2-5.16,5.64-13.32,10.68-24.36,8.88-19.68,16-34.2,21.24-43.44Zm108.36-.48a97.35,97.35,0,0,0-10-11.16c-7.08-6.84-14-10.32-20.88-10.32-22.68,0-38.16,17.52-46.68,52.68a251.68,251.68,0,0,0-6.6,57.84c-1.32,13.56-2.76,30.84-4.2,51.84l3.36-.12c15.24-.12,33-2.28,53-6.48a15,15,0,0,1,2.16,7.32,25.35,25.35,0,0,1-.24,4.44,8.06,8.06,0,0,1-4,5c-6.24,3.72-19.8,5.64-40.68,5.64l-13.56-.24-1.08-1.68-3.24,44.64v55.2c-.72,4.44-1.08,11.28-1.08,20.76a94.47,94.47,0,0,0,4.56,28c5.4,16.8,13.8,25.2,25.44,25.2q35.46,0,54-28.92c3.6-5.64,7.8-14,12.48-25.08s8.4-18.6,10.68-22.32a15.34,15.34,0,0,1,2.16,7.32c0,2.4-1.56,7.68-4.8,16a181.72,181.72,0,0,1-14,28.68q-24.48,39.78-55.32,39.84c-18.12,0-30.24-11.16-36.48-33.6A113.46,113.46,0,0,1,240,532.8l-.24-11.52c0-11.88.36-20.88,1.08-26.76v-56l4.68-65.76c2-26.52,3.36-48.48,4-65.64a164.07,164.07,0,0,1,5-32.4,303.37,303.37,0,0,1,10.68-33.36c4.68-12.6,11.52-21.6,20.4-26.76,7.68-4.44,16.08-5.76,25.32-4.08A42.86,42.86,0,0,1,332.4,220.8c6.12,5.52,9.12,11.16,9.12,17A11.56,11.56,0,0,1,338.76,245.76ZM170.52,424.44h.72a7.49,7.49,0,0,1,0,3.36,13.54,13.54,0,0,0-.12,3.72c.6,2.76,4.2,4.2,10.68,4.2l9-.24L193,434.4A74.5,74.5,0,0,0,180.6,422a11.39,11.39,0,0,1-4.2-9.12,13.22,13.22,0,0,1,1.2-4.68,9.64,9.64,0,0,1,3.12-4.68l9,.24,5.16,4.92a3.8,3.8,0,0,1,1.08,2.76c0,1.8-.12,2.52-.36,2.4l-.6.48-1.2.84a10.79,10.79,0,0,1-5.16-4.8l-7.32.24-1.08.84a2.22,2.22,0,0,0-.84,1.08,59.55,59.55,0,0,0,6.12,6.36l5.28,4.92c3.48,3.36,5.16,7,5.16,10.8a15.88,15.88,0,0,1-.6,5.28c-.72,1.8-2.28,2.64-4.8,2.64-10.68,0-17.4-1.68-20.28-5.16a6.41,6.41,0,0,1-1.56-3.72l.12-2.28a13.83,13.83,0,0,1,.36-3.6A13,13,0,0,1,170.52,424.44Zm-22-15.24a2,2,0,0,0-1.08,1.92c0,1.8.84,3.36,2.64,4.92l5.88,4.08c5.64,3.84,8.52,8.4,8.52,13.8a18.15,18.15,0,0,1-1.32,7.32,7.52,7.52,0,0,1-7.32,4.56c-7.32,0-13-1.92-16.8-5.64-2.52-2.52-3.72-4.8-3.72-7a13.14,13.14,0,0,1,.24-2.64l1.32-1.8q1.44.9,5.76,5.76c3,3,5.52,4.56,7.8,4.56a18.32,18.32,0,0,0,8.64-1.92c2.16-1.08,3.24-2,3.24-3q0-2-2.88-4.32l-6.36-4.2c-6.12-4.2-9.12-9.24-9.12-15,0-2.76.24-4.56.84-5.16l5.64-5.16,7.8.24a19.31,19.31,0,0,1,5,5.28A11.09,11.09,0,0,1,165.6,412l-.24,2.28-.6,1-3.36-4.08L158,407l-7.08.36Zm18.72-12.6c1.8-3.24,4.32-9.12,7.44-17.64,3.48-9.24,5.88-15.36,7.44-18.36l.6,1.08.12,2.52q0,2.34-6.12,18.72c-4,10.68-7,17.88-8.76,21.48-2-2.52-5.16-7.56-9.12-15.36-4-7.56-7.44-13.08-10.56-16.56a174.82,174.82,0,0,0-3.24,17.4c-1.44,7.32-3.6,13.2-6.48,17.76l-1-.6-.12-2.4c0-1.44,1.32-7.56,3.84-18.36,2.88-11.88,5.16-19.92,7-23.88A105.15,105.15,0,0,0,156.84,380Q160.62,386.7,167.28,396.6ZM91.2,319.32l.24,2.76c0,2.76-8.16,18-24.48,45.6l-4.8,8c1.56,5.64,3.12,12.12,4.56,19.44l5,28.2q1.26,7.38,9.72,30.24c5.16,14.28,7.8,22.2,7.8,23.76a7.77,7.77,0,0,1-.24,2.76c-.12,0-.24.12-.6.48l-.72,1c-4.92-7.32-11.52-26.28-19.56-56.76C63,405.6,59.64,391.56,58,382.56q-18.72,30.6-29.52,42.6a423.45,423.45,0,0,1-10.08,57.12,4.25,4.25,0,0,1-1.2-1.92,9.18,9.18,0,0,1-.36-3c0-6.24,1.92-24.48,5.76-54.84l6.12-48.72V331.56c-.84-.84-1.2-2.52-1-4.8a9.32,9.32,0,0,1,1.56-4.32c1.32,3.36,2,8.16,2.4,14.4.12,2.4.24,7.44.24,15,0,23.88-.84,45.6-2.64,64.92,4.2-7.2,13.44-21.84,27.6-43.8a4,4,0,0,1,.48-1.8,6,6,0,0,1,2.4-3l.12.12c2.28-3.84,7.08-12.72,14.28-26.64,5.88-11.4,11.16-19.56,16-24.36A6.78,6.78,0,0,1,91.2,319.32Zm81.48-112.08-1,16.56c-.72,11.28-1.08,19.56-1.2,24.84l-.6,19.8a78.5,78.5,0,0,1-3.12,18.24l2.28.48,4.56,4a4.55,4.55,0,0,1,1.68,3c0,1.8-.12,2.64-.24,2.52l-.6.72-4.08-2.88c-2-1.32-5.16-1.92-9.12-1.92-7.56,0-13.68,5.28-18.12,16a52.86,52.86,0,0,0-3.6,11.4,44.09,44.09,0,0,0-1,6.24,49.07,49.07,0,0,0,2.76,16c2.76,7.56,6.84,12.48,12.36,14.64C164,355.56,171,352.68,174.6,348l3.36-5.52a13.53,13.53,0,0,1,4.2-4.68l.6,1a9.84,9.84,0,0,1,.12,2.28c0,2-2.28,6.12-6.72,12.24-5,6.84-9.24,10.2-12.72,10.2l-10.32-.24c-6.36-2.28-10.92-8-13.8-17.16a65,65,0,0,1-2.88-19.68,57.56,57.56,0,0,1,5.64-25c5.28-10.92,13.08-15.84,23.4-14.88-8-25.32-14.76-49.32-20.16-71.76h-.84q-.54,2.88-1.08,9c-.36,4.08-.72,7.08-1.08,8.88v49.56L141,285.48a60.7,60.7,0,0,1-1.8-14c-.12-2.4-.12-7.68-.12-16a189.37,189.37,0,0,1,1.2-23.4c1.08-8.4,1.92-19.32,2.28-32.64L143,199l1.2-.6,11.52,36.84a368.33,368.33,0,0,1,10.08,37.56q.36-13.5,2.52-39.24c-1-9.24-1.44-16.2-1.56-21.12-.12-8.76,1.44-14.52,4.44-17.28C172.2,197.88,172.68,201.84,172.68,207.24ZM71.4,203.4a39.44,39.44,0,0,1,4.44,6.84,11.58,11.58,0,0,1,1.56,4,6.18,6.18,0,0,1-.36,2.52l-1.32,1.68c-1.8-.72-3.6-2.76-5.4-6s-3.84-5.52-6.48-6.48l-10,.24c-9.72,8.28-18.6,20.52-26.64,36.84-7.68,15.72-11.52,28.8-11.52,39.12,0,1.2.72,3.48,2.28,6.84a72.14,72.14,0,0,0,6.6,11.4c7.32,10.2,15,15.24,23,15.24,14.28,0,24.84-4.68,31.56-14.16A35.7,35.7,0,0,0,84,291.6l1-4.44c1.44.84,2.16,2.52,2.16,5.16q0,8.1-6.48,16.2C77,313,71,318.24,62.76,324.6Q33.42,319.38,21,305.52a34.09,34.09,0,0,1-8.52-23.16c0-13,4-28,11.76-44.88,8.4-18.36,18.36-31.8,29.88-40.44C60.48,195.12,66.24,197.28,71.4,203.4Zm-12,7.08a4.23,4.23,0,0,1,.72,2.76l-4.56,30.84c-3.36,22-5.52,36.48-6.36,43.8v6.24l3.24.24,2.16-1.08c2.76-1.44,8.4-2.16,16.8-2.16,1.8,0,3,.6,3.6,1.92l.24,2.4-1,2L71.4,301l-13.8,1.2-5.64,1-7.08-.36L44,300.6l-.24-3.12c4.2-45.84,8.64-75.36,13.56-88.56A6.56,6.56,0,0,1,59.4,210.48ZM38.4,93.12c0,6.6-1.92,23.16-5.76,49.92L52,123.12c15-15,26.16-26.16,33.6-33.24a6.27,6.27,0,0,1,2,1.56,5.22,5.22,0,0,1,.6,2.76c0,1.08-7.68,9.48-23.16,25.08l-1.2,1.08c3.72,8.64,8.52,22.2,14.4,40.56,6.6,20.52,10,32,10,34.32a11.06,11.06,0,0,1-1.56,6.12q-6.3-12.78-16.92-46.44-7.2-23.22-9-31.32-20.34,20.34-28.8,26.64l-.36-.72c-4.44,29.76-7.44,46.56-8.88,50.4a4.25,4.25,0,0,1-1.2-1.92,9.18,9.18,0,0,1-.36-3c0-6.48,1.56-22,4.68-46.32C29.52,119.52,33.36,99.6,37.08,89l.84,1.32A5.69,5.69,0,0,1,38.4,93.12Zm8-82.2L40.32,7.08l-7.8-.36q-9.9,1.44-18.36,21.6c-4.68,11.4-7.08,20.76-7.08,28q0,4.68,5.4,12.24c4.44,6.12,9.24,9.12,14.64,9.12,12.12,0,21.72-3.12,28.68-9.48l-5-4.44c-3.24-2.16-6.12-2.16-8.52-.12a4.76,4.76,0,0,1-1.32-1.8A7.6,7.6,0,0,1,40.56,59a7.77,7.77,0,0,1,1.08-3.84A5.6,5.6,0,0,1,43.32,53l6.72.24,10.2,10.2,1.2-2c4.2-6.36,6.24-12.72,6.24-19.08a54.72,54.72,0,0,0-2.76-17.52Q61.32,14,54.12,14C52.8,14,50.28,13,46.44,10.92Zm67-7.44.36-.48,1-.84c1.32.6,2.28,2.16,2.64,4.68l.12,5.76a202.75,202.75,0,0,1-3.24,30.48C110.64,61.92,105,71.4,97.44,71.4c-6.12,0-10.44-1.56-12.72-4.8a21.62,21.62,0,0,1-1.8-3.72,7.61,7.61,0,0,0-1.2-2.76V11.4a19.38,19.38,0,0,1-1.08-6.12c0-2.76.6-4.44,1.92-5A26.39,26.39,0,0,1,85,5.16V54.72l2.16,4c1.68,2.52,3.6,3.84,5.64,3.84,10.2,0,16.8-8,19.68-24.24C114.36,28.08,114.72,16.44,113.4,3.48Zm28.44,5c0,3.24-1,16.56-2.76,40l-3.72,44.88V190.8l-2.28,12.12V278.4q1.08,27.54,1.08,83.52c0,1.08-.12,1.56-.48,1.44l-.6-.6V407.4q0,54-2.16,88c-1.44,22.2-2.16,45-2.16,68.28,0,2.88-.36,7.8-1,14.88-.84,9-1.68,14.4-2.76,16.32-2-.36-3.72-2.88-5.28-7.56a33,33,0,0,1-1.8-9.48l5.16-68.4c3.24-46.44,4.44-78.36,3.48-95.52V316.44a161.2,161.2,0,0,0,0-32.28v-86l1.08-6.48,1.08-6.6V87.72c.12-4.8.72-13.08,1.8-24.72,1-11.16,1.44-19.68,1.44-25.68.36-2.76.72-6.84,1.08-12.48s.72-10,1.08-12.72q.36-13.86,4-13c1,.24,1.8,1.32,2.52,3.12A15.23,15.23,0,0,1,141.84,8.52Zm87.36,205,.24,2.52-.6,8.64a5.72,5.72,0,0,1,.6,2.64l-.24,2.4-.24.6h-.6l-1.56,13.8-1.08.24a31.77,31.77,0,0,1-.6-6.84l-.12-7-7.44,1.08-1.68-1a89.52,89.52,0,0,0-1.8,13.68l-1,.48-1.56.6-.36-1.08a14.6,14.6,0,0,1-.12-2.52,98.93,98.93,0,0,1,1.44-14.4c1.2-7.8,2.64-12.48,4.2-13.92l.6,1a7.88,7.88,0,0,1,.24,2.28,57.83,57.83,0,0,1-.72,8.16,17,17,0,0,1,4.56-1.56l3.72-.36c.36-5.4,1.44-9,3.48-10.56ZM183,130.32a8.25,8.25,0,0,0-1.2,3.6l-.36.48-.72,1a4.93,4.93,0,0,1-2.76-1.2l-2.64-2.88-12.36.24a50.26,50.26,0,0,0,8.76,6.84l7,4.2A13.55,13.55,0,0,1,185,154.68a27.58,27.58,0,0,1-.12,4,6.89,6.89,0,0,1-3.12,3.72c-18.6.36-31.2-1.08-37.8-4.2-3.6-1.56-5.4-4-5.4-7.08,0-2,1.08-4.08,3.24-6l.6,2,.12,2.76c0,.6,2.52,1.68,7.68,3.36,4.92,1.56,8,2.4,9.36,2.4l11.88-.24,10.68-.84c-.84-1.92-2.64-3.84-5.4-5.88l-8-5.16c-7.08-4.44-10.68-8.76-10.68-13.08a7.4,7.4,0,0,1,.48-3.12,5.72,5.72,0,0,1,2.76-2.88c13.32.6,20.64,1.68,22,3.12C183.72,128.16,183.6,129,183,130.32Zm3.12-10.2L152,119.88a12.06,12.06,0,0,1-.84-3.84,28.58,28.58,0,0,1-.24-4c0-9.36.72-22.2,2.16-38.64l3-36.36a5.34,5.34,0,0,1,1.08,2.4l.24,3.24c0,14-.12,25.32-.48,34.08-.48,12.48-1.44,23.88-2.76,34.2h30.12a9.65,9.65,0,0,1,2.64,2.76,3.81,3.81,0,0,1,.84,2.16,7.3,7.3,0,0,1-.36,2.64ZM273.84,3.48a13.91,13.91,0,0,1,.6,4.08,9.6,9.6,0,0,1-1.2,3.48,13.65,13.65,0,0,1-3.72,5.16l-17.64,1.68-11.64,1.56-18.84.36-1.92,41.64-2.4,58.92a667.8,667.8,0,0,1-11.4,101.28q-2-1.26-2.52-5a41.71,41.71,0,0,1-.24-5.28c0-6.6,1.44-25.2,4.2-55.8l4.44-47.28c.48-6.48.84-15,1-25.44l.36-26.28A271.15,271.15,0,0,1,216,19.8l-24.36.72-7.08-.24q-22.86-2.7-28.44-5.76a5.35,5.35,0,0,1-2.88-3.24l-.12-3.72V.36l2.76-.12C164.16,3.48,174,5.16,185.4,5.16c3.72,0,6.24-.24,7.32-.84l47.52-.48a40.23,40.23,0,0,0,12.24-1.68,61.82,61.82,0,0,1,17-2.16C271.56,0,273,1.2,273.84,3.48ZM379.44,218.4c-.12,18.36-1.92,54.84-5.16,109.56q-4.14,68.22-6.84,103V506.4c-.6,8.88-1.2,22.32-1.8,40.2a147,147,0,0,1-2.52,18.72l3.48-1.56a119.08,119.08,0,0,0,16.32-10c3-2.28,7.44-6.6,13.32-13.08,7-7.8,11.4-12.72,13.44-14.52A176.28,176.28,0,0,0,433,499c4.56-6.48,10.56-15.84,17.88-28,11-18.36,19-36.84,23.76-55.68,4.32-16.8,6.48-35.28,6.48-55.56q0-66.78-52.44-109c-8.4-6.84-20.4-14.76-36.12-23.88q-8.82-5.22-11.88-7.56Zm-1.08-12.48q65.7,26.46,91,73.44,17.28,31.86,17.28,80.52c0,16.68-.12,27-.24,30.72a165.8,165.8,0,0,1-2.52,24.12q-4.32,21.06-24.36,60.84-18.72,37.26-37.32,58.56c-16.68,19.08-38,35.4-64.08,48.72l-1.44,3.36-1-2-6.6,3.12a12.81,12.81,0,0,1-2.16-7.32c0-3.12.72-5.52,2-7.08q1.62-2,6.12-4c.48-3.24,1.32-7.2,2.4-11.64,2-8.88,3.24-15.36,3.48-19.44l.36-18.84c.12-8,.36-14.4.72-19.32V426.6q1.26-16.74,6-110.88,3.06-61.56,8.16-101.28l-.12-.72a15.15,15.15,0,0,1,1-5.52l.12-1.2.24.36A4.32,4.32,0,0,1,378.36,205.92ZM45.48-1.08q16.74,0,22.68,20.88a73.54,73.54,0,0,1,2.76,22.68,52,52,0,0,1-1.32,8.64,91.56,91.56,0,0,1-4.92,15l-.6,1.32.36.36c9.24,8.76,16,13.08,20,13.08a26.83,26.83,0,0,0,18.72-7,31.4,31.4,0,0,0,6.36-7.68l.84,1.32a6.26,6.26,0,0,1,.6,2.76c0,2-2.16,5.64-6.48,10.68-5,5.88-10,8.88-14.64,8.88a29.53,29.53,0,0,1-16.56-5.4c-3.48-2.28-7.56-6-12.36-11.16Q52.5,86.64,40.08,86.64c-15.24,0-25.8-4.44-31.68-13.2C5.4,68.76,3.84,63,3.84,56.28,3.84,46.8,6,36.12,10.2,24.36,15.84,8.88,23.28,0,32.52-2.16l11.64.72Z" transform="translate(-3.84 2.16)"/></g></svg>