<svg id="Layer_1" data-name="Layer 1" xmlns="http://www.w3.org/2000/svg" viewBox="0 0 494.1 456.22"><defs><style>.cls-1{fill-rule:evenodd;}</style></defs><path class="cls-1" d="M299.4,180a108.3,108.3,0,0,1-11.76,41.88,120.9,120.9,0,0,1-26.4,34.92,112.41,112.41,0,0,1-32.52,21.12q.54-95.4,4.44-190.8a75.9,75.9,0,0,1,37.44,7,84.9,84.9,0,0,1,23.88,39.24A130.55,130.55,0,0,1,299.4,180Zm-112-67.68A24.64,24.64,0,0,0,180,99.48,41.73,41.73,0,0,1,173.64,92l-1.92-.84a110.23,110.23,0,0,0-54.84-15.48A91.59,91.59,0,0,0,79,97.2Q46.2,127.62,33.84,169A409.93,409.93,0,0,0,16.92,295.44q1.44,64.62,5.76,128.28a150,150,0,0,0,25.44,75,70.54,70.54,0,0,0,15.72,16.92q42.3,32.58,83,0c23.4-18.6,34.32-41.4,33-68.4a2,2,0,0,0-1,1.08,116.34,116.34,0,0,1-41.16,54.84q-30.78,22.68-63.36,2c-19.8-12.36-32-30.12-36.72-53A735.3,735.3,0,0,1,23.52,331.44,617.9,617.9,0,0,1,31.8,206.52a173.59,173.59,0,0,1,12.84-42.6,161,161,0,0,1,50-62.52,34.3,34.3,0,0,1,16-6.84q44.82-6.66,76.08,23.16A8.33,8.33,0,0,0,187.44,112.32ZM229,78.48l-1.2,8.4,2.64.48a1266.64,1266.64,0,0,0-9,193.68l-2.52,1a19.76,19.76,0,0,0-1.32,8.76c.12,2.4,1,4.2,2.76,5.28q-1.08,107.46-8.76,215.64a18.08,18.08,0,0,0,2.4,10.2,2057.08,2057.08,0,0,0,14.52-227.52l19.32-11a2273.63,2273.63,0,0,0,66,239.16,12.06,12.06,0,0,0,4.68,6.24A1609,1609,0,0,0,249.6,282.24,111,111,0,0,0,292.44,231c12.72-30.12,15.24-61.44,7.68-93.72l-1.32-5.64L297.24,126l-1.8-5.52-1.8-5.4-2.16-5.52A175,175,0,0,0,281.16,88.2c-13.44-9.48-28.08-13-44-10.44ZM487,306.24a243.68,243.68,0,0,1,13.56,41.88,226.64,226.64,0,0,1,5.4,44,193.85,193.85,0,0,1-4.2,44.76,158.46,158.46,0,0,1-15.84,42.6c-6.6,12.12-15.84,19.8-27.48,23.28a90.32,90.32,0,0,1-24.24,3.48l-24.72.12q5-112.86,2.4-225.84A63.32,63.32,0,0,0,456,274.68C470.16,280.8,480.48,291.24,487,306.24Zm.84-186.12q31.14,57.42-2.76,114a53.41,53.41,0,0,1-16.68,17.28A93.16,93.16,0,0,1,412,266.88c.12-19.8.24-39.6.6-59.28.84-41.4.24-82.2-1.8-122.64q40.5-4.68,68.4,23.52A50.55,50.55,0,0,1,487.8,120.12ZM408,77.88l-.36,1.68V82l.12,1.68.24.84a3,3,0,0,0,1.68.48q-3.24,44.64-4.2,90.12-1.44,64.62,0,129.12c.84,43.08.72,86.16-.48,129-.6,21.72-1.92,43.32-3.84,64.8-1.08,12.24.24,22.8,4.2,31.8a3.4,3.4,0,0,0,1.44-2.4l1-6.24a120.87,120.87,0,0,0,18.36,2.64,112.22,112.22,0,0,1,18,2.64,21.31,21.31,0,0,0,17.16-2.64,77.62,77.62,0,0,0,20.16-19,119.6,119.6,0,0,0,16.68-31.08A210,210,0,0,0,509.4,423a330.91,330.91,0,0,0-4.56-95c-5.16-26.88-19-46.2-41.16-58.08q38.88-26.28,45-75.72c3.48-27.36-1.32-52.92-14.16-76.56Q473.1,78,428.64,75.72a118.88,118.88,0,0,1-13.08,0A11.3,11.3,0,0,0,408,77.88Zm-52.2,25.44c.72,43.08.24,86-1.32,129.12S352,318.6,351.84,361.56s-.48,86-1.2,129c-.24,12.12,1.8,22.68,6,31.68a261.74,261.74,0,0,0,3.72-56.88q-2.7-64.44-2.16-129c.36-43.08,1.32-86,2.88-129.12,1.56-43.44,1-86.16-1.56-128.28A70.67,70.67,0,0,0,355.8,103.32Z" transform="translate(-16.82 -75.71)"/></svg>