<svg id="Layer_1" data-name="Layer 1" xmlns="http://www.w3.org/2000/svg" viewBox="0 0 595.57 842.18"><defs><style>.cls-1{fill:#fff;}.cls-2{fill:none;stroke:#fff;stroke-linecap:round;stroke-linejoin:round;stroke-width:0.38px;}.cls-3{fill-rule:evenodd;}</style></defs><rect class="cls-1" x="0.31" y="0.31" width="595.08" height="841.68"/><rect class="cls-2" x="0.19" y="0.19" width="595.2" height="841.8"/><path class="cls-3" d="M282.84,318.48a225.42,225.42,0,0,0,1,79.8l4.56,3.24,7.08.24c12.84-6.84,18.24-16.68,16.2-29.76-6.6,8.88-14.64,13.08-24,12.48-.24-.24-.36-.48-.24-.72q1.44-42.3.72-84.48c-1.2.48-1.92,1.56-2.28,3.36C284.76,307.8,283.68,313.08,282.84,318.48Zm8.28-63a22.64,22.64,0,0,0-6.72,20l3.84,1.56a16.82,16.82,0,0,0,7.44-13.2,11.38,11.38,0,0,0-2.16-7.92Zm-56.28-60.6a895.27,895.27,0,0,0-48.12,83.88c-4.92,9.6-10.08,18.84-15.48,27.84a100.11,100.11,0,0,0-8.16,17l2.76-69.24a315.61,315.61,0,0,0-3.24-64.2,106.44,106.44,0,0,0-2.88,22.8c-.84,42.72-2.16,85.44-4.2,128.16A263.44,263.44,0,0,1,152,373.32c-2,12-1.08,22.8,2.76,32.52A50.78,50.78,0,0,0,161,382.68l1.2-35.88A196,196,0,0,0,180,316l11.52-24.24q16.38,56.7,37.68,112.2,1.62,2.7,4.32,1.08l.6-.84A33.78,33.78,0,0,0,237,389.64l-.12-.84c-.12-1.44-1.08-1.92-2.64-1.32l-.6-.72c-13.56-34.68-26.16-69.12-38-103.44,13.56-27.12,27.72-53.76,42.72-79.8l.48-2.52a11.22,11.22,0,0,0-.48-4l-.6-.72Zm185,62.88c-4,16.2-13.2,28.44-27.6,36.84-10.68,6.12-21.36,7.08-32.16,2.88L363,207.24c16.32-5.28,31-2.4,43.8,8.76S424,241.08,419.88,257.76ZM364.2,196.2l-.48.48-1.44,1.68v.12l-.48-3.36c-.48-.12-.72,0-.84.36A813.61,813.61,0,0,0,350.64,305.4a471.36,471.36,0,0,1-6.24,63.84c-2,11.88-1.08,22.8,3,32.52a637.76,637.76,0,0,0,10.92-88.08c11.52,3.6,22.92,2.16,34.32-4.44a177,177,0,0,0,13.92,39.6A364.44,364.44,0,0,0,438,401.76a6.77,6.77,0,0,0,1-7.44l-41-88.44q34.38-24.66,29.16-66.48Q421.5,196,377.76,191.88l-9.6,3.12Z" transform="translate(0.19 0.19)"/></svg>