<svg id="Layer_1" data-name="Layer 1" xmlns="http://www.w3.org/2000/svg" viewBox="0 0 595.57 842.18"><defs><style>.cls-1{fill:#fff;}.cls-2{fill:none;stroke:#fff;stroke-linecap:round;stroke-linejoin:round;stroke-width:0.38px;}.cls-3{fill-rule:evenodd;}</style></defs><rect class="cls-1" x="0.31" y="0.31" width="595.08" height="841.68"/><rect class="cls-2" x="0.19" y="0.19" width="595.2" height="841.8"/><path class="cls-3" d="M255.72,504.6a12.13,12.13,0,0,0-3.36-2.64,37.1,37.1,0,0,0-20.16.12l-6,1.56c-10.68,12.36-15.84,26.88-15.72,43.44.12,11.16,4.32,19.92,12.48,26.16,14.4,10.92,28.68,10.92,43,.24,6.24-4.68,9.36-10.32,9.24-17.16l-3.48-.6a51.86,51.86,0,0,1-31.44,15.84,15.91,15.91,0,0,1-13.2-4.08q-19.26-16.92-5.76-41.52c6.36-11.64,16.44-16.68,30.36-15.36l4,2.76c.84-.12,1.44-.84,1.56-2a12.76,12.76,0,0,0-.12-3.72A5.67,5.67,0,0,0,255.72,504.6ZM223,413.16q14.58-6.84,27.36,3.6l.12.24c-6.36,10.44-15.72,15.36-28,15l-2.52-.24,2-16.68Zm-4.44-.36L216,431.16l-.72.12a.84.84,0,0,0-.48.6,513.33,513.33,0,0,0-.48,56l.6,6.6,4.32-53.88,13.68-.6a152.49,152.49,0,0,0,22.2,49.32l4.56,6.36q3.78-17.28-11.16-36a125,125,0,0,1-13.2-20.28c8.52-1.8,14.16-6.72,17-15A29.7,29.7,0,0,0,253.92,411l-.36-3.24a48.9,48.9,0,0,0-22.92-6.24h-3.36l-8.64,5.64Zm51.6-147.6q-11,61-22.8,121.92l-.24-.48q-13-62.1-22.8-123.36a230,230,0,0,0-8,51,533.51,533.51,0,0,1-5.64,53.4c-1.8,11.88-1.44,22.08,1.2,30.84l.6-2.4c5.16-35.88,9.12-72.12,11.64-108.48q5.76,44.28,13.08,88c1.8,11.16,5.4,20.28,10.68,27.24a250.27,250.27,0,0,0,13.08-54.24,442.33,442.33,0,0,1,10.56-54c3-11.88,2.88-22.2-.6-31.08A5.08,5.08,0,0,0,270.12,265.2ZM41,385.8c.84,43.08,1,86,.36,129.12a289.68,289.68,0,0,1-2.16,32.28c-1.44,12.24-.48,22.92,3,32.16,2-23.64,3.36-47.64,4-71.76a15.76,15.76,0,0,0,1.2,3.84,33.19,33.19,0,0,0,3.48-7.2l20.4-52.44a48.37,48.37,0,0,0,.72,5.64A683.11,683.11,0,0,0,108.72,579c1.32,1.8,2.88,2.16,4.56,1.08a35.24,35.24,0,0,0-2.88-20.16A543,543,0,0,1,74.64,443.4q11.7-29.16,23.52-58c4.08-10,8.28-19.56,12.72-29,3.36-7.2,4.68-13.68,4.08-19.44a1.66,1.66,0,0,0-1.68,1.2q-25,57.24-49.2,114.48c-4.2,9.6-8.64,19.2-13.32,28.92a51.48,51.48,0,0,0-4.32,11.64l.12-22.44c-.12-42.84-1.2-85.56-3-128.16A250.59,250.59,0,0,0,41,385.8Zm54.6-177.24q-4.14,47.16-4,94.2c13.92-.24,28.08-1.08,42.48-2.64,3-3.84,3-7.68,0-11.4L95,292.2v-.72q2.88-45.18,3.72-89.28C97,203.52,95.88,205.56,95.64,208.56ZM79,193.8c-16,.48-27.72,8.28-35.4,23.28a128.07,128.07,0,0,0-13.2,44.16,196.57,196.57,0,0,0,.24,42c2,18,11.52,29.4,28.44,34.08,15.72,4.44,30,1.44,42.84-8.76a25.27,25.27,0,0,0,9.6-15.48L109.32,312A77,77,0,0,1,68.4,329.4c-9.48,1.2-17-2-22.44-9.84A67.83,67.83,0,0,1,34.2,289.44q-6.48-48.06,28.08-79.56c8.76-8,18-8.4,27.6-1a6.63,6.63,0,0,0-.36-4.8,26.67,26.67,0,0,0-5.52-8A6.6,6.6,0,0,0,79,193.8Zm-17.28-164Q83.1,37,90.48,63.24a155.66,155.66,0,0,1,5.88,45.84,126.5,126.5,0,0,1-9,45.12l-1.44,3.6L72.48,143.64l-5.4,3-.24,10.68L68.52,154l5.4-2.64L77.4,154l4.32,11.88C75.24,175.92,66,180.84,54,180.72c-9.36-.12-16.56-3.84-21.6-11.28a56.63,56.63,0,0,1-9.72-28.8c-1.92-33.48,5.4-64,22.08-91.68A69.91,69.91,0,0,1,61.68,29.76Zm77.52-1.92A675,675,0,0,1,134,141.24c-1.8,14.4-9.24,20.4-22.08,18.12a724.4,724.4,0,0,1,.24-98.16,118.85,118.85,0,0,0-1.56-31.44c-1.8,14.4-3.12,29-4,43.8A565.1,565.1,0,0,0,110,169.44a28.65,28.65,0,0,0,9.84.72c-4.68,8-11.16,12.84-19.2,14.4a29.49,29.49,0,0,1-7.44-11,82.16,82.16,0,0,0-3.72-8c4-6.6,6.36-14.52,7.44-23.52,1.32-11.16,2.28-22.44,2.88-34,1.56-32.28-7.2-60.6-26.28-84.72L72,23.76l-.84.36L69.6,23.4a12.1,12.1,0,0,0-9-1.2C43,34.08,32.16,50.76,28.44,72.24c-3,17.4-5.28,34.92-7,52.56-2,21,1.44,40.08,10.44,57a3.57,3.57,0,0,1,1.32.84A15.18,15.18,0,0,0,37,185l1.44,1.08a74.05,74.05,0,0,0,11.4,2.4,27,27,0,0,0,12.12-1.32C71.28,184,78.84,179,84.48,172.44a56.4,56.4,0,0,0,20.4,22.92q16.74-8.82,15.48-25.2c6.84-1.2,11.4-6.36,13.56-15.48A340.43,340.43,0,0,0,139.8,27.6C139.44,27.48,139.2,27.48,139.2,27.84Zm101,111.6a44.2,44.2,0,0,1,8.16,3.12,7.83,7.83,0,0,0-.84-8l-.6-.84q-25-13-34,16.8a145.94,145.94,0,0,0-6.48,41.88,114.22,114.22,0,0,0,8.28,44.88c5.4,13.44,15.84,14,31.32,1.92a50.28,50.28,0,0,0,16.08-21.6,76.42,76.42,0,0,1-42.84,20.52q-21.24-49.5,8.16-94.2C230.52,139.44,234.72,137.88,240.24,139.44ZM190.08,30.36a992,992,0,0,0-3.24,125.52q2.34,64.44,3.6,129.12c1,43.08.84,86.16-.48,129q-2,64.62-5.64,128.88a87.82,87.82,0,0,0,4,32.4,2.92,2.92,0,0,0,1.2-1.56,92.6,92.6,0,0,0,4.68-28.2q.54-64.44,2.52-129.12,2-64.26.36-129l-3.36-129.12Q191.88,93.66,191,30C190.44,29.88,190.08,30,190.08,30.36Zm34-2.76a9.68,9.68,0,0,0-3.72,0L218,28.92,217.8,33l1,1.2-2.88,29.28-3,.12.36,5.64,2.16,1.08a182.48,182.48,0,0,0,1.56,45l3.24-44.64,7.56-1.2a116.88,116.88,0,0,0,20.88,51.72L229.92,68.64c13.08-6.12,16.56-16.2,10.32-30C237.24,31.8,231.84,28.08,224,27.6Zm17.52,23A37.4,37.4,0,0,1,220.44,63c.36-9.6.48-19.2.6-28.8a23.67,23.67,0,0,1,11.88,1,25.82,25.82,0,0,1,7.92,9.72A8,8,0,0,1,241.56,50.64Zm168.6-14.76a544.61,544.61,0,0,0-34,90.12q-17.1,61.92-38.28,122.76A259.84,259.84,0,0,1,325.08,279a76.18,76.18,0,0,0-7.2,20q-.36-36.36-1.44-72.6c-1.32-43.08-1.2-86.16.48-129,.84-22,1.32-43.44,1.56-64.2-6,18.36-9.12,38-9.48,59.28-.6,42.6-.12,85.44,1.2,128.28s1.68,85.92,1.32,129.12-1.68,86.16-4.08,129c-1.32,21.72-3,43.32-5.28,64.8-1.2,11.88.12,22.68,4.08,32.28a3,3,0,0,0,2.4-2.88q3.42-44.46,5.76-89.28,3.06-63.9,3.6-128.28V323.64q17.82-42.48,32.76-87.36a678.25,678.25,0,0,0,15.48,75.12q16.38,61.2,36,121.92Q422,494.7,438,557.28c2.4,9.36,6.24,16.32,11.4,21a4.12,4.12,0,0,0,1.08-3.24,183.51,183.51,0,0,0-10.56-50.16c-6.24-17.52-12.24-35-18-52.44q-20-61.2-36.72-123.12l-32-120.12,6.6-21L397.32,85.44a113.78,113.78,0,0,1,14-29.64c7-10.32,9.6-20.76,8-31.2A27.18,27.18,0,0,0,410.16,35.88Z" transform="translate(0.19 0.19)"/></svg>