<svg id="Layer_1" data-name="Layer 1" xmlns="http://www.w3.org/2000/svg" viewBox="0 0 595.57 842.18"><defs><style>.cls-1{fill:#fff;}.cls-2{fill:none;stroke:#fff;stroke-linecap:round;stroke-linejoin:round;stroke-width:0.38px;}.cls-3{fill-rule:evenodd;}</style></defs><rect class="cls-1" x="0.31" y="0.31" width="595.08" height="841.68"/><rect class="cls-2" x="0.19" y="0.19" width="595.2" height="841.8"/><path class="cls-3" d="M179.16,208.8q-2,64.26-7.44,128.16a383.91,383.91,0,0,0-.12,64.32,2.69,2.69,0,0,0,2.64-2.76c2-16.8,3.84-33.72,5.28-50.64l1.56-1.44c5.76-9.24,11.88-18.36,18.24-27.24l25-34.44a290.78,290.78,0,0,0,9,34.44,328.16,328.16,0,0,1,12.6,48.6c2.16,12.12,6.6,22,13.32,29.64a3,3,0,0,0,1.32-3.12,465.93,465.93,0,0,0-33-114.12l28.56-40.08,8.52-11.64q12.42-16.38,10.8-34.2a117.94,117.94,0,0,0-21.12,33.84,235.84,235.84,0,0,0-15.72,23.52q-13.5,14.4-25.92,30.24L190.2,310.44A56.58,56.58,0,0,0,181,326.52l.36-5.88q3.6-64.8,3.24-128.28C181.2,196.56,179.4,202.08,179.16,208.8Zm187,102.12c-1,13.68-2.64,27.36-4.92,41.16-2.76,16.92-.72,32.4,6.24,46.44,19.56-1.8,28.56-11,27-27.6a54,54,0,0,1-25.92,10.56l-.24-.72q3.06-41.4,3.24-82.08Q366.66,302.82,366.12,310.92Zm7.32-40.8,1.56-3.84c1.92,1.56,1.32,2.76-1.68,3.84Zm-.12-16.32-4.56,1.92a32.87,32.87,0,0,0,1.92,25.2h5.64c5.52-6.48,7-13.56,4.2-21.24a16,16,0,0,0-3.36-5.64Z" transform="translate(0.19 0.19)"/></svg>