<svg id="Layer_1" data-name="Layer 1" xmlns="http://www.w3.org/2000/svg" viewBox="0 0 300.04 211.64"><defs><style>.cls-1{fill-rule:evenodd;}</style></defs><path class="cls-1" d="M277.68,295.56Q245.82,314.28,246,353a83.42,83.42,0,0,0,7.2,34.32c7.8,17.76,21.72,22,41.52,12.72,15.24-7.08,20.16-17,14.76-30a50,50,0,0,0-5.16,4.92A58.18,58.18,0,0,1,293,384.72a55.93,55.93,0,0,1-28,4.08c-10.2-11.64-14.64-24.6-13.44-39l1.32-1.08c13.32-1.8,26.76-3,40.32-3.48l.48-.84c1.92-4.92,1.08-8.52-2.64-10.8A160.86,160.86,0,0,0,254,337.44l1.68-5.16a39,39,0,0,1,12.72-17.64c13.08-10.44,26.88-11.76,41.64-4.08l-.12-.72c-3.72-12.12-12.12-18-25.32-17.4A44.34,44.34,0,0,0,277.68,295.56Zm-48.36-95.64a80.6,80.6,0,0,0-10.2,13.8c-8,16.56-16.56,32.88-25.8,49s-19,32.28-28.68,48.24a70,70,0,0,0-6,12q1.08-35.82.6-71.76a160.75,160.75,0,0,1,2.88-32.28c1.8-9.36,1.08-17.4-1.92-24a328.48,328.48,0,0,0-7,79.8,614.5,614.5,0,0,1-4.68,96.48c-1.56,12-.48,22.56,3.48,31.68a12,12,0,0,0,2.16-5.76l1.68-17.64,1.92-34.8a37.92,37.92,0,0,0,9-12c6.48-13.32,13.2-26.64,20-39.72a600.86,600.86,0,0,0,38.28,110.76c1.8-.84,2.4-2.4,2-4.44a210.09,210.09,0,0,0-21.72-64.32l-.36-.84a478.68,478.68,0,0,0-15.48-46.44q17.82-33.84,37.08-67.08c4.8-8.28,5.76-15.24,2.76-20.88Zm212.16.12-10.2,25.56A1258.28,1258.28,0,0,0,391,347.4a185.34,185.34,0,0,1-10.8,29.16,23.56,23.56,0,0,0-1.68,4.2,446.2,446.2,0,0,0-10.8-59.16q-15.48-61.92-33.84-123c-.6.12-.84.12-.84.24a175.06,175.06,0,0,0,7.56,51.6q7.74,25.74,14.76,51.84A471.73,471.73,0,0,1,369.48,380c.84,9.6,4.08,16.56,9.6,20.88l.36-.72,1.32-3.72,1.8,1.8A154.9,154.9,0,0,0,390.48,374a823.52,823.52,0,0,1,39.6-121.32c4-9.72,8.16-19.32,12.36-28.8,4.68-10.44,6.36-20.76,5-30.72A12.62,12.62,0,0,0,441.48,200Z" transform="translate(-147.87 -193.2)"/></svg>