<svg id="Layer_1" data-name="Layer 1" xmlns="http://www.w3.org/2000/svg" viewBox="0 0 514.92 484.46"><defs><style>.cls-1{fill-rule:evenodd;}</style></defs><path class="cls-1" d="M109,346.08,103.8,433c-2.52,42.36-3.36,84.84-2.28,127.44.36,1.92,1.44,2.64,3.12,2.16a76,76,0,0,0,3.6-23.52c-.12-26.4.36-52.68,1.68-79a114.42,114.42,0,0,0,16.8-17.16l28.8-35.52.12.6a398.7,398.7,0,0,0,14.64,62.16c6.6,20.4,12.48,40.92,17.88,61.68,3,12,7.92,21.6,14.52,28.8a13.34,13.34,0,0,0,1.56-8.88,193.08,193.08,0,0,0-5.76-25.68Q180.66,464.7,157.2,405.6h-.12l20-24.12c6.48-7.68,12.84-15.48,19-23.4s5.88-14-.24-18.72a416.68,416.68,0,0,1-69.6,83.52c-8,7.56-13.32,15.72-15.72,24.6L113,410.16a239.15,239.15,0,0,0-3.24-64.32C109.2,346,109,346,109,346.08ZM120.6,90c6.36,12.48,13.44,25.2,21.48,38.16a99,99,0,0,1,14,38.28,235.41,235.41,0,0,1,2.64,40,205.14,205.14,0,0,1-6.12,46.8,227.23,227.23,0,0,1-11.4,34.08l-7.56-12.6c-8-4.68-14.76-3.84-20.16,2.28l-2.4,2.52.12,5.64c11.4-4.92,20.16-1.68,26.28,9.6-9.48,20-24.12,29.88-44.16,29.52-6.12-.6-10.92-3.84-14.4-9.6a147.93,147.93,0,0,1-12.12-26.16A124.37,124.37,0,0,1,60,255.72a485.36,485.36,0,0,1,.12-63.36c2.64-37.08,15-69,37.2-95.52C103.68,89.28,111.48,87,120.6,90Zm-8-11.4-9.72-.36a32.63,32.63,0,0,0-16.08,14A206.18,206.18,0,0,0,62,159.12,383.2,383.2,0,0,0,60.12,286.8,85.9,85.9,0,0,0,79.2,329.64c12.6,15.24,26.28,15.6,40.8,1.2a152.1,152.1,0,0,0,20.88-25.92A62.52,62.52,0,0,0,172,340a8.85,8.85,0,0,0,6.48.84c19.56-5.16,27.84-17.64,25-37.2a17.08,17.08,0,0,0-5,7.2c-4.44,12.36-12.84,17.52-25.08,15.6A15.47,15.47,0,0,1,162.84,320c-5.76-8-11.28-16.2-16.56-24.6a142.49,142.49,0,0,0,12.84-35.52,258.75,258.75,0,0,0-2.76-126.72q-8.64-31.32-31.92-50.88l-1.08.48-.84.72-.48.12-.84-.84-.84-.84-2.76-1.08-1.8-1.08L115,79Zm68.28,11.28q-.36,60.66-2.28,121c-.36,10.8-1.2,21.48-2.4,32.16-2.52,21.72,2.52,40.56,14.88,56.28l6.48,1.08A24.92,24.92,0,0,0,211,287.64a34.75,34.75,0,0,0,8.88-14.52,245.59,245.59,0,0,0,11.76-98.4,449,449,0,0,1-.36-64.8c.6-10.32-1.56-17.88-6.48-22.8a263.19,263.19,0,0,0,.36,56.64q7.38,66.78-14.4,128.52c-4.44,8.52-10.8,12.48-19,12.12a22.78,22.78,0,0,1-2.16-5,195.18,195.18,0,0,1-6.72-67.8A1063.69,1063.69,0,0,0,184.2,83.4C182,84.48,181,86.64,180.84,89.88ZM401,171.36a70.31,70.31,0,0,1-22.68,22.2l2.52-93.6c19.08-.36,29.52,8.76,31.2,27.6A66.53,66.53,0,0,1,401,171.36ZM386.4,88.92q-4.68-1.8-6.84,1.44l-.6.84a8.45,8.45,0,0,0-1.08,3.48,30.42,30.42,0,0,0-1.8,11.64A405.41,405.41,0,0,1,374.4,159q-5.94,63.72-11.52,127.56a87.17,87.17,0,0,1-2.52,15.84c-2.4,9.72-1.32,17.88,3.24,24.24a1.9,1.9,0,0,0,1.56-1.68l8.16-73.68c1.56-14.64,3-29.28,4.08-43.92l.36.24a109.11,109.11,0,0,0,9-6.6,835.52,835.52,0,0,0,17.52,99.12c2.88,11.76,7.68,21.6,14.28,29.52a23.85,23.85,0,0,0,1.08-19.44,697.24,697.24,0,0,1-29.16-112.44c16.44-14.76,26-33.48,29-56.4q5.4-40.86-32.88-52.32Zm-25.56,15-.24-.84-.48-.84C351.84,91.08,340,86.76,324.72,89l-1.08.24a108.77,108.77,0,0,0-28.8,3.12A11,11,0,0,0,288.72,97a179.68,179.68,0,0,0-26.64,74.4q-7,58.14-8.88,117.12-1.44,48.06-2.52,96.48a669.2,669.2,0,0,0,9.12,128.16,51.68,51.68,0,0,0,17.64,31.32c7.2,6.12,15.48,7.68,25,4.56,20.52-6.6,36.48-19.44,48-38.28q16.2-26.82,8.88-54-5.4,15.12-10.8,32a85,85,0,0,1-10.8,22q-22.14,31.32-58.8,20.4A46.31,46.31,0,0,1,267,508.2a437.06,437.06,0,0,1-9.84-96.36c.12-30.6.48-61.2,1.08-91.56a10.5,10.5,0,0,0,2,4.2,512.47,512.47,0,0,0,57.36-4.32l.72-1q3.78-7.2-.72-13.68a332.64,332.64,0,0,0-58.44,7.56l-.84,2.52.72-32.88A907,907,0,0,1,270.6,157.56c3.24-20.76,11.52-38.52,24.6-53.4a201.82,201.82,0,0,0,22.68-2.76q25.38-4.68,43.56,7.92l.36-.6a7.62,7.62,0,0,0-.48-3.24Zm94.68-13c-4,36.6-6.6,73.56-7.8,111.12-1.32,43.08-2.88,86-4.56,129.12q-2.34,64.08-4.32,128.28a390.8,390.8,0,0,1-7.08,63.84c-2.4,12.12-1.44,22.8,2.76,31.92a7.42,7.42,0,0,0,2.88-4.8,561.11,561.11,0,0,0,7.68-73.92l4.44-129.12q2.16-63.9,4.8-128.16c1.8-43.32,2.4-86,1.56-128.28Zm108.36,37c-2.76,42.6-5.16,85.44-7.2,128.28l-6.24,128.16q-2.7,55.08-3.6,110.76c-1.92-9-3.6-18.24-5.16-27.72a1153.85,1153.85,0,0,0-28.2-125Q496,280.44,484.56,217.44q-11.34-63.18-24-125.16H460a122.92,122.92,0,0,0,1.92,48c4,16.8,7.56,33.6,10.92,50.52,5.52,28.2,11.4,56.52,17.52,84.72Q503.82,338,520,400.08A1132,1132,0,0,1,544.56,525c1.56,11.88,4.92,22.08,10.08,30.72l.48-.84c1.8-10.56,1.56-20-.48-28.32.48-13.8.84-28,1-42.24Q556,420.06,558.84,356L565,227Q568,162.42,570.6,99.6A82.49,82.49,0,0,0,563.88,127.92Z" transform="translate(-55.68 -78.24)"/></svg>