<svg id="Layer_1" data-name="Layer 1" xmlns="http://www.w3.org/2000/svg" viewBox="0 0 456.99 372.6"><defs><style>.cls-1{fill-rule:evenodd;}</style></defs><path class="cls-1" d="M162.84,138.6q-5.76-31.5-40.56-32.52C95,111.24,75.24,126.12,63,151A293.25,293.25,0,0,0,32.28,271.68a630.46,630.46,0,0,0,1.8,79.68,199.78,199.78,0,0,0,38,102.12c13.92,19.08,30.24,21.36,49,6.6,7.32-5.76,14.64-11.4,22-16.8,13.32-9.72,18.84-21.36,16.56-34.68A255.36,255.36,0,0,0,136,432a70.21,70.21,0,0,1-34.56,22,9.16,9.16,0,0,1-7.56-.72Q56.22,430.74,47,386a467.88,467.88,0,0,1-8.28-126.72,323.85,323.85,0,0,1,10.56-61.56,124.18,124.18,0,0,1,40-62.88c19-16.2,39.12-18.84,60.6-7.68l.84,1.56.48.84,2.28,1.8c1.8,2.28,3.84,4.56,6,6.84,1.2,1.2,2.28,1.56,3.36,1.08Zm35.4-32.52c-2.16,1.2-3.24,3.36-3.36,6.48q-1.44,51.48-3.36,103.08-2.7,64.26-8.64,128.16-5.94,64.26-7.08,128.4a4.61,4.61,0,0,0,4.68.6,28.06,28.06,0,0,1,9.48-1.56q44.28.54,89.52-.48c2.76-5.28,2.64-10.44-.6-15.36l-12.72-.48a142.43,142.43,0,0,1-14.4-.36A479.5,479.5,0,0,0,181,455l2.76-28.32c4.44-42.6,7.56-85.32,9.6-128.28q2.88-64.08,6.36-128.16A437.81,437.81,0,0,0,198.24,106.08ZM357.72,150c-4.68-16.44-16-25.56-34.08-27.36q-40.86,8.64-59.16,46.8a254.58,254.58,0,0,0-22.56,73.44c-1.44,9.24-2.52,18.48-3.12,27.72l-4.56,1.08-.12.84a14.12,14.12,0,0,0,.48,8l3.6.12a388.33,388.33,0,0,0,.48,40.92,217.91,217.91,0,0,0,40.2,113.52,9.63,9.63,0,0,0,6.36,4.2q60.12,11.34,104.4-32.16a22.42,22.42,0,0,0,1.44-10.56q-.9-6.66-6.84-6.48-33.48,38.7-88,37.44a14.71,14.71,0,0,1-11.52-5.4c-22-26.76-35.4-57.48-40.44-92.4a231.6,231.6,0,0,1-1.92-49.08,261.54,261.54,0,0,0,77.4-11.76l.36-.72A11.84,11.84,0,0,0,318.72,256a236,236,0,0,1-30.48,6c-15.36,2-30.24,4.56-44.76,7.68l.36-3.36A302.14,302.14,0,0,1,268.2,180c8.28-18.36,21.6-31.08,40.2-38.16,19.08-7.32,35.52-4.44,49.32,8.88Zm57-24.36a324.52,324.52,0,0,0-3.72,40.2q-2,63.54-3.6,127.44-1.62,65-8.52,129.24c-1,9.48-2.28,18.72-4.08,28-2,10.44-.24,18.12,5.4,22.8q5.22-48.24,9.12-97.44c3-37.08,5.28-74.16,6.72-111.48a497.34,497.34,0,0,0,57.48-3.72,15.67,15.67,0,0,0,1.44-5.76,13,13,0,0,0-1.68-7.32l-1-.48L463.2,246l-46.8,6.84.24-5.28c1.32-41.16,1.08-81.84-.48-122.16,23.64-3,47.16-6.72,70.56-10.92l.48-.84q3.42-6.84-.72-13c-25.08,4-50,8.76-74.64,14.64-1.56,4-1.2,7.44,1.08,10.56Z" transform="translate(-31.76 -100.68)"/></svg>