<svg id="Layer_1" data-name="Layer 1" xmlns="http://www.w3.org/2000/svg" viewBox="0 0 303.29 213.72"><defs><style>.cls-1{fill-rule:evenodd;}</style></defs><path class="cls-1" d="M267.48,305.28A121.65,121.65,0,0,0,256,350c-1,16.32,4.32,30.12,15.72,41.28,11.88,11.76,25.92,13.92,42,6.36Q332,389,326.28,369.6q-7.56.36-8.64,8.64c-17.88,12.36-34.2,11.28-49-3a44.79,44.79,0,0,1-4.92-5.64l-.12-22.08,45.72-.36c3-5,2.88-10-.36-14.88a102.64,102.64,0,0,0-43.92,3.48c4.8-25.8,19-37.32,42.48-34.32a24.69,24.69,0,0,1,13.08,5.4c1.44-9.72-2.52-16.8-12-21.24l-4.32-1.8C287.64,281.4,275.28,288.6,267.48,305.28Zm-105.84,7.8q2.88-62.46,2-123.36A549.68,549.68,0,0,0,155,273.36c-.6,21.24-1.8,42.48-3.48,64a369,369,0,0,0,.48,64.2,2.3,2.3,0,0,0,2.52-2.4C157,379,158.88,358.56,160.2,338c10-16.2,19.56-32.64,28.68-49.56q7.56,27.9,16.32,56.16a373.43,373.43,0,0,0,23.64,58.8c4.32-6.6,5-13.92,2.28-21.84-11.88-33.24-25.2-65.64-39.84-97.44,5-9.48,10-19,14.76-28.56a252.53,252.53,0,0,1,15.48-27c8-12.12,11.16-24.36,9.24-36.72l-55.44,100.8a63.43,63.43,0,0,1-6.48,9.84A82.29,82.29,0,0,0,161.64,313.08ZM452.88,198.6l-.48-1.2q-40.5,60.48-82.92,124.92a1081.67,1081.67,0,0,0-2.28-127.8q-6.3,77.94-8.64,156.72a66.79,66.79,0,0,1-1.32,12,111.89,111.89,0,0,0-1.8,12.72,48.27,48.27,0,0,0,3.84,23.64L368.16,344l36.36-52.68a667.84,667.84,0,0,0,45.12,110.76A199.88,199.88,0,0,0,431,332.88c-5.16-11.16-10.56-22.44-16.2-33.6l-6.72-13.56,41-71.76C453.48,209.64,454.68,204.48,452.88,198.6Z" transform="translate(-150.4 -189.72)"/></svg>