<svg id="Layer_1" data-name="Layer 1" xmlns="http://www.w3.org/2000/svg" viewBox="0 0 522.73 475.92"><defs><style>.cls-1{fill-rule:evenodd;}</style></defs><path class="cls-1" d="M248,90.6q-26.82,80.1-47.28,163l-2.52-.6a6.14,6.14,0,0,0-4.32,4.68,10.81,10.81,0,0,0-.12,4.8l.24,1.44,3.36,2a557.64,557.64,0,0,1-44.16,142,72.55,72.55,0,0,0-6,19.8A23,23,0,0,0,149,440.4l.84,1.68a445.21,445.21,0,0,0,32.64-91.56c6.84-28.92,13.92-57.6,21.24-86.28l26.4-7.56a505,505,0,0,0,43.92,128.88,488.42,488.42,0,0,1,30.6,77.28l5,16.32a33.74,33.74,0,0,0,10.56,16A365.56,365.56,0,0,0,282.72,373.2,880,880,0,0,1,238.2,270a41,41,0,0,1-2.28-14l-1-1c20.64-8,35-22.44,43.2-43a178.42,178.42,0,0,0,11.76-46.44,190.71,190.71,0,0,0,.84-31Q289,104.4,265.68,85.56c-6.36-5.16-13.32-6.12-20.88-3l-.72,4.08q22.32,3.78,31.68,25.92a113,113,0,0,1,9.12,42.12,127.58,127.58,0,0,1-6.36,43.44,66.44,66.44,0,0,1-27.36,35.52,138.51,138.51,0,0,1-39.84,17.88l-4.44,1.08L250,93.12Zm-32.28,12.12q-25.38-27.9-64.32-26.64Q119.22,79.14,100,105.72a235,235,0,0,0-39.72,88.44A853.86,853.86,0,0,0,42.12,321.48,347,347,0,0,0,56.64,447.6,134.92,134.92,0,0,0,93,506.52a25.48,25.48,0,0,0,12.36,6.36c29.16,5.64,55.32-2.28,78.36-24,5.64-5.28,11.52-10.32,17.52-15.24,11.64-9.48,17.88-20.4,18.72-32.88a45.61,45.61,0,0,0-17.28,12.72,160.19,160.19,0,0,1-59,43.68c-26.76,11.88-47.4,5.64-61.92-18.48a241.54,241.54,0,0,1-35-125.76A746.33,746.33,0,0,1,57,225.84a279.5,279.5,0,0,1,38.16-101,68.3,68.3,0,0,1,18.12-19.44q46.08-33.66,98.52-4.44l1.08.84a5.79,5.79,0,0,0,2.64,1.8l.36-.24ZM356.16,156c-23.88,19.32-39.12,44.16-46,74.64a403.85,403.85,0,0,0-8.4,52l-4.2,2a7.92,7.92,0,0,0-.72,3.24,6.53,6.53,0,0,0,.84,3.24l.48.84a3.87,3.87,0,0,0,2.76.72,402.53,402.53,0,0,0,0,65.88,115.3,115.3,0,0,0,17.4,53.4q18.18,29.34,52.44,17.64,35.1-12.06,48.6-44.52,5.22-13-4.32-17.64a20.34,20.34,0,0,1-2.52,12.12c-11.88,20.52-29.4,33.12-52.44,38-12.84,2.76-23.76-.48-32.52-9.72C314.88,394.32,307.68,378,306,359a376.32,376.32,0,0,1,0-67.8,226.06,226.06,0,0,1,82.56-8.52,6.46,6.46,0,0,0,1.2-2.4,10,10,0,0,0-1.92-9.6l-1-1-3.24-.36-21.12-1c-8,.6-16.2,1.44-24.48,2.76a135.17,135.17,0,0,0-31,9,378.5,378.5,0,0,1,8.28-46.08c6.6-27,20.52-49,42-65.88,19.08-15,34.44-13.08,45.84,6l-.6,1.68-.36,1.56v.84l.36.6.36-.6c2.4-19.92-6.72-30.36-27.36-31.44A42.67,42.67,0,0,0,356.16,156Zm94.56-79a112.37,112.37,0,0,0-2,19.56q-2,64.08-5.52,128.16T432.72,352.32Q425.88,416,423,480.48a289.45,289.45,0,0,1-3.48,32.16,67.44,67.44,0,0,0-.72,6.72A37.21,37.21,0,0,1,392.88,510l-.36-.72c-1.2-1.8-2.52-2.16-4-1.2A13.9,13.9,0,0,0,387,513c-1,5.76,1.2,9.84,6.6,12.12a77.56,77.56,0,0,0,25.8,6.72,46.29,46.29,0,0,0,4.32,12.84l2-12.6c15.24-.24,30.12-5.76,44.4-16.56q53.1-39.78,75.48-101.88a307,307,0,0,0,17.64-127,426,426,0,0,0-27.6-124.56q-23.58-61.74-83-93.36c-1.56.48-2.28,1.68-2.4,3.48A21.72,21.72,0,0,0,450.72,77Zm13.8,8.52Q519.6,121.38,538,184A473.07,473.07,0,0,1,557.4,309.6a246.74,246.74,0,0,1-30.48,126q-29.88,54.72-87,78.84a66.87,66.87,0,0,1-12.12,3.84,618.07,618.07,0,0,0,4.8-62q2-64.44,8.4-128.28t9.72-128.16q3.06-61,1.44-120.6A70.82,70.82,0,0,1,464.52,85.56Z" transform="translate(-41.31 -68.76)"/></svg>