<svg id="Layer_1" data-name="Layer 1" xmlns="http://www.w3.org/2000/svg" viewBox="0 0 461.95 457.08"><defs><style>.cls-1{fill-rule:evenodd;}</style></defs><path class="cls-1" d="M159.6,260l-6,107.88A993.46,993.46,0,0,0,155,496.2c18.84,9.72,38,11.16,57.84,4.32,2.76-5.52,2.28-10.68-1.32-15.36-17.88,4.92-35,4.44-51.36-1.68A628.86,628.86,0,0,1,158.88,386c2.76-43.2,3.72-85.92,2.64-128.16C160.32,257.88,159.72,258.6,159.6,260ZM152.52,56.28a764.79,764.79,0,0,0-33.84,81A966.57,966.57,0,0,1,67.56,256.56l-3,5A83.73,83.73,0,0,0,51.6,289l.48-58.44q.9-64.8,5.4-129C58.68,85,59.16,69,59,53.52c-3.24,2.28-5,5.76-5.4,10.56Q48.06,128.16,46.2,193.2C45.12,236,44.52,279,44.64,322.32c.12,42.84.24,85.92.48,129a70.58,70.58,0,0,1-1.44,16c-1.8,10-.12,18,5,24.36a3.5,3.5,0,0,0,1.92-3c1.56-43.08,2-86.16,1.44-129L51.6,306q15.66-27,29-55.68a137,137,0,0,0,6.84,40c5.76,17.88,10.68,35.76,14.88,53.64l29,124c2.76,11.64,6.48,21.6,11.16,29.76a14.32,14.32,0,0,0,2.76-10.56,196.32,196.32,0,0,0-6.72-33q-13.5-45.9-24.6-92.52Q99.78,302.34,83.4,244.08,108.78,188.64,130,130.32A390.78,390.78,0,0,1,148.8,86.76C154.68,75.36,155.88,65.16,152.52,56.28ZM334.2,89.64c-3-21-16.2-30.48-39.84-28.2-23.16,8.28-40.68,23.28-52.44,45.24A286,286,0,0,0,208.8,219.24q-5.22,64.08-6.12,129-.9,64.62,27.12,121.32c6.72,13.68,17.28,22.92,31.56,27.6q32,10.62,53.88-11.16a187.24,187.24,0,0,0,16.44-18.72c9.24-11.88,11-23,5.16-33.6L322.56,459q-16,28.26-50.28,24.84c-12.36-1.08-22.2-7-29.28-17.4Q210.06,418,210.48,357.72q.18-43.56,2.16-86.76l79.8,2.88.36-.84a11.69,11.69,0,0,0,1.44-4.8l-.12-3.36a6.17,6.17,0,0,0-3-4.8l-6.48.12-30.36-2.52L213,261.48l1.68-31.92a262.79,262.79,0,0,1,31.2-110.16c9.48-17.64,23.28-30.24,41.64-37.8q31.14-12.78,45,13.68A6.44,6.44,0,0,0,334.2,89.64ZM483,79.44a62.57,62.57,0,0,0-31.68-3.36,86.13,86.13,0,0,0-45.72,36.6,215,215,0,0,0-29.28,74,608.14,608.14,0,0,0-11.16,127.2q.72,39.78,2.52,79.56,2.52,58.5,49.2,91.08a62.05,62.05,0,0,0,17.4,8.64c15,4.68,28.8,2,41.16-7.92,10.44-8.52,17.76-18.24,21.84-29.16a235.23,235.23,0,0,0,.84,54.48c2.4-.36,3.72-2,4-4.92a957.21,957.21,0,0,0,1.44-125.76l-.84-.6-2.64-.48a230.2,230.2,0,0,0-30.36,2.64l-.84,2.4a11.14,11.14,0,0,0,.6,4.92,82.29,82.29,0,0,0,29.76,4.08q.9,16.56.36,33.12l-.12-.12-2.16-.24a3.75,3.75,0,0,0-1.44,1.68,49.8,49.8,0,0,0-2.76,9.12,52.84,52.84,0,0,1-18.84,31.68c-13.56,10.8-28,13-43.44,6.36q-38.7-16.56-47.52-55.32a538.21,538.21,0,0,1-13.8-128,507.2,507.2,0,0,1,17.28-124.68c7.56-28.2,23.4-50,47.28-65.52,24.36-16,45.6-14.16,63.6,5.16,3-7.08,1.44-13.44-4.68-19L485.4,80Z" transform="translate(-42.98 -53.52)"/></svg>