<svg id="Layer_1" data-name="Layer 1" xmlns="http://www.w3.org/2000/svg" viewBox="0 0 595.57 842.18"><defs><style>.cls-1{fill:#fff;}.cls-2{fill:none;stroke:#fff;stroke-linecap:round;stroke-linejoin:round;stroke-width:0.38px;}.cls-3{fill-rule:evenodd;}</style></defs><rect class="cls-1" x="0.31" y="0.31" width="595.08" height="841.68"/><rect class="cls-2" x="0.19" y="0.19" width="595.2" height="841.8"/><path class="cls-3" d="M316.32,312.24c-4.56-16-14.52-20.64-29.76-14-11.76,4.92-20.16,13.92-25.32,26.76a86.93,86.93,0,0,0-4.44,50.28c2.76,13.56,10.8,21.6,23.88,24,15,3,27.84-1.08,38.28-12.12,5.76-6.12,5.88-12.24.24-18.6-12.36,16.08-27.12,20.4-44.52,13-7.56-3.24-11.52-9.36-12-18.36-.24-4-.24-7.8-.12-11.64l43.92-.12a13.13,13.13,0,0,0,1.68-9.72,11.82,11.82,0,0,0-2.4-5.28,108.22,108.22,0,0,0-41.16,2.88A55.72,55.72,0,0,1,284.88,309a37.15,37.15,0,0,1,29.64,2.28ZM232.44,197.16l-54.84,98a91.69,91.69,0,0,1-9.36,13.68,49.72,49.72,0,0,0-7,10.8L164,260.52a241.23,241.23,0,0,1,3.36-32.28,120.27,120.27,0,0,0,1-32.64c-3,1.08-4.8,3.6-5.28,7.32-3,22.8-5,45.72-6.36,68.88-2.4,42.6-4.08,85.2-5.16,127.56.48,2,1.68,2.52,3.48,1.56a50.48,50.48,0,0,0,2.4-12.12L160,344.16a19.28,19.28,0,0,0,5.76-6.24l25.2-45.36a324.15,324.15,0,0,0,14.76,50.64,500.46,500.46,0,0,0,26.4,57.72,6.58,6.58,0,0,0,1.56-6.6,1061,1061,0,0,0-39.84-107L227,226.2c5.4-10,7.32-19.68,5.88-29.16Zm222.84,3q-2,47.7-2.52,95.4a121.32,121.32,0,0,0-27.48,3c-.36-22.32-1.32-44.4-2.64-66.36-.84-.24-1.44,0-1.56.84a151.68,151.68,0,0,0-2,23.52c-.24,26-.84,52.32-1.8,78.6a566.78,566.78,0,0,0,1.08,64.2,114.48,114.48,0,0,0,7.08-39c.24-16.8.24-33.6.12-50.28l27,.24-.12,19a249.27,249.27,0,0,1-3.24,40.32c-1.92,12.24-.72,22.92,3.72,31.92a14.69,14.69,0,0,0,3.84-9.72c1.08-22.2,1.92-44.76,2.4-67.44l.24-14h1.2l.6-.84a12.32,12.32,0,0,0-.6-13.8h-1.08c.24-33.48-.24-66.72-1.44-99.48C456.36,196.68,455.4,198,455.28,200.16Zm-24,6.36L377.76,204a344.91,344.91,0,0,0-56.88,3.24,15,15,0,0,0-.72,6.48l.12.84.12.84.24.84.36.72,1,.84c18.6.12,37.08.48,55.44.84a12.59,12.59,0,0,0,.6,9.72l-2.28,84.36c-.6,21.72-2,43.32-4.44,64.8q-1.62,14.58,5,23.4a403.4,403.4,0,0,0,6-58.32q2-62.46-1.92-124L431.52,220a10.49,10.49,0,0,0,2-9l-.48-1.56-.12-.72-.36-.84-.48-.84A.91.91,0,0,0,431.28,206.52Z" transform="translate(0.19 0.19)"/></svg>