<svg id="Layer_1" data-name="Layer 1" xmlns="http://www.w3.org/2000/svg" viewBox="0 0 568.97 578.56"><defs><style>.cls-1{fill-rule:evenodd;}</style></defs><path class="cls-1" d="M69.36,496.92l.48,4.2a94.93,94.93,0,0,1,28.92,34.32,28.09,28.09,0,0,1,2.4,18C94,544.92,85.68,541.8,76.44,544a8,8,0,0,0-5.28,4.2l.84,6.48,8-2.4,6.6,1.68L98,560.76a26.4,26.4,0,0,1-16.2,9.6,34.7,34.7,0,0,1-24.72-4.8q-33.48-21.24-11.76-56.88C51.12,499.2,59.16,495.36,69.36,496.92Zm-13.08-12A34.48,34.48,0,0,0,46.2,491.4a53.86,53.86,0,0,0-8.88,10,72.47,72.47,0,0,0-5.76,46.56c3.24,16.44,12.6,27.12,28.08,31.92,16.68,4.92,30.84,1.32,42.6-11l2.16-2.64A88.78,88.78,0,0,0,144,590c12.24,3.48,22.32.84,30.12-8.16a21.29,21.29,0,0,0,5.28-11.52c-12.36,7.8-24.84,9.12-37.44,4.2a197.58,197.58,0,0,1-34.2-17,55.55,55.55,0,0,0-2.16-30,65.7,65.7,0,0,0-29.16-35.4A54.91,54.91,0,0,0,56.28,484.92Zm145.44,23-3.48-.12.36,9.72c-2,16.8-10.44,28.32-25.44,34.68-16,6.84-25.44,2.16-28.32-14.16a136.4,136.4,0,0,1-1.8-37c-9.24,16.68-9.36,33.48-.36,50.16q14.94,27.54,40,7.68A53.16,53.16,0,0,0,194,546.6,52.34,52.34,0,0,0,202.2,509ZM163.08,295.68a301.78,301.78,0,0,1,3.6,36.12l49.8,1.56.24-11.4-46.8-3.24L168,249C162.12,263.16,160.44,278.76,163.08,295.68ZM134.16,23.76Q81.78,127.62,39,236.88L27,266.76A2300,2300,0,0,0,36,13Q21.42,225.9,13.08,439.32a173.64,173.64,0,0,0,2.52,37A43.35,43.35,0,0,0,19,487.08a1370.72,1370.72,0,0,0,7.56-201.36l2.16,3A895,895,0,0,1,69.6,188.52a2179.33,2179.33,0,0,0,88,295.44l1.56,3.36q8.46-31.32-7.56-63.84A558.08,558.08,0,0,1,126.72,365Q97.38,283,75.72,198.6l-3.84-15.12a1167.93,1167.93,0,0,1,59-136.92C137.52,40.2,138.84,33,135,25.2ZM297,37.92q32.58-9.72,47.16,17.52a10.41,10.41,0,0,0,.36-9.24q-11-26.64-43.68-24Q259.26,45.78,254.4,95.52a1002.91,1002.91,0,0,0-4.32,129.12q2,64.26-.36,128.88t.6,129.24a222.72,222.72,0,0,1-.84,32.28q-4.5,47,36,68c10.92,5.64,21.72,6.12,32.64,1.44,30.6-13,46.32-36.12,46.92-69.36h-3l-1.44.24q-7,30.78-32,48.12a37,37,0,0,1-26.4,6.48Q260,565,258.6,523.8c-1.32-43.2-1.92-86.16-1.56-129q.36-47,.12-94.32l60.24-9,.24-.84a10.85,10.85,0,0,0-1.08-11.4A226.44,226.44,0,0,0,257,290.76l-.24-25.08c-.6-42.6-1.44-85.32-2.28-128.16-.84-34.08,8.88-64.08,28.92-90A25.66,25.66,0,0,1,297,37.92ZM409.8,415.56q-2.34,64.44-3.12,128.28a419.73,419.73,0,0,1,43.8,4.32l.36-.84a11.43,11.43,0,0,0-.36-8.88,111.24,111.24,0,0,0-40.32-7.56l2.4-38.16a1270.06,1270.06,0,0,0,1.08-128.16C411.84,380.76,410.52,397.68,409.8,415.56ZM379,368.28q1.62,40,.72,80.28c-.84,43.44-2,86.52-3.36,129.12a567.47,567.47,0,0,1,68.52.24,12.08,12.08,0,0,0,.24-10.56c-21.72-2-43-3.48-63.84-4.32q.54-34.92,1.8-69.84a1213.61,1213.61,0,0,0-1.8-129C379.68,364.8,378.84,366.12,379,368.28ZM435.6,191.64a37.93,37.93,0,0,1,23.64,8.4c1.56-3.48,1-6.84-2-9.84a26.7,26.7,0,0,0-11.52-7.32,44.52,44.52,0,0,0-24.12-1,39.58,39.58,0,0,0-19,10.44,145.29,145.29,0,0,0-18,41.52,192.53,192.53,0,0,0-5.76,42.24,103.33,103.33,0,0,0,8.88,44.52c6.6,15.24,18,24.84,34.08,28.8,17.4,4.44,31.56.24,42.72-12.84L465.6,361a73.92,73.92,0,0,0,7.68-29,194,194,0,0,0-1.56-39.24,187.46,187.46,0,0,0-29.28-1.92,2.55,2.55,0,0,0-2.52,1.8l29.76,9.12a42.14,42.14,0,0,1-10.56,27.84,25.54,25.54,0,0,1-11.64,8,41.51,41.51,0,0,1-23.88,1c-19.08-4.8-31-17-35.88-36.72q-15.3-60.66,27.48-102.24A27.48,27.48,0,0,1,435.6,191.64Zm-63.36-85A269.62,269.62,0,0,1,355,180c-10.44-23.88-20.52-47-30-69.36a61.74,61.74,0,0,0-4.08,16.2,185.43,185.43,0,0,1-5.16,25.56,152.36,152.36,0,0,0-5.88,41.88A255.6,255.6,0,0,0,326.52,128a487.63,487.63,0,0,0,28,64.92l.84-.6c15-27,20.76-55.56,17.52-85.8Zm13.2-66.36L381,52.8l-15.24,6.6L366.24,32l13.68.72Zm-19.32-16a246.63,246.63,0,0,0-6.48,46,241.1,241.1,0,0,0,.84,39.72l4.92-41.88,7.8.12A169.19,169.19,0,0,0,395,112.56a112,112,0,0,0-17.76-45.72C385,61.2,389.16,53.4,390,43.68A18.91,18.91,0,0,0,382.08,26a15.71,15.71,0,0,0-13.56-2.76Zm85.2,72.12a22.61,22.61,0,0,1-11.88,12.6l-22,2c1.08-12.12,1.8-24.36,1.92-36.48l.72-.12a47.39,47.39,0,0,0,12.24-4.08c11.64,2.88,18.24,10.44,20,22.68ZM439.08,66.24q16.38-22.5-7.2-37.8c-5.52-3.6-11.64-4.56-18.48-3l-1.32,5.64L415,32.16,414.84,65l-3.84.12-.48,7.32,4.08,2c-4,16-3.36,31.44,1.8,46.2,20.28,4.68,32.88-2.88,37.56-22.56C457.44,83.88,452.4,73.2,439.08,66.24ZM441.36,49c-4.92,8.28-12.24,13.32-21.84,15.36-.12-10.68-.48-21.48-1.08-32.16l1.32-.12c12.12-1.32,19.8,3.36,23.16,13.92Zm103-8.88a89.09,89.09,0,0,1,35,40A17.3,17.3,0,0,0,580.44,64c-9.12-21.24-24.36-34.8-45.84-40.44q-42.66,7-47.88,50a176.47,176.47,0,0,0,1.56,53.28,614.82,614.82,0,0,0,27.48,103,1064.11,1064.11,0,0,1,35.76,121.44A612.85,612.85,0,0,1,562.44,412a350.89,350.89,0,0,1-2.16,103.92,51.37,51.37,0,0,1-9.12,21.84q-18.72,25.56-53.88,19.44c-17-3-25.44-13.32-25.08-31.2.24-10.2-1.8-17.76-6-22.68a94.49,94.49,0,0,0,1.8,44,26.65,26.65,0,0,0,8.64,13.8c16.2,14,35.16,16.8,57.12,8.4a30.28,30.28,0,0,0,11.88-8c16.2-17.64,24.72-38.76,25.68-63.6A595.68,595.68,0,0,0,562.8,372a844.14,844.14,0,0,0-31.2-122.16c-6.84-20.16-14.16-40.08-22.2-59.76a254.66,254.66,0,0,1-19-99.72c.36-29.16,14.28-46.56,42-52.44A16,16,0,0,1,544.32,40.08Z" transform="translate(-12.95 -12.96)"/></svg>