<svg id="Layer_1" data-name="Layer 1" xmlns="http://www.w3.org/2000/svg" viewBox="0 0 595.57 842.18"><defs><style>.cls-1{fill:#fff;}.cls-2{fill:none;stroke:#fff;stroke-linecap:round;stroke-linejoin:round;stroke-width:0.38px;}.cls-3{fill-rule:evenodd;}</style></defs><rect class="cls-1" x="0.31" y="0.31" width="595.08" height="841.68"/><rect class="cls-2" x="0.19" y="0.19" width="595.2" height="841.8"/><path class="cls-3" d="M177.24,210.84c-1.08,42.48-3.6,85-7.8,127.32-1.08,10.8-2.52,21.6-4.32,32.28-2,11.88-1.08,22.68,2.64,32.4a32.79,32.79,0,0,0,5.76-17.52l3-45.24c7.56-9.48,15-19.44,22.32-29.76l22.56-31A674,674,0,0,1,268,374.16,89.11,89.11,0,0,0,284,400.92a9.51,9.51,0,0,0,2.64-7.68,45.71,45.71,0,0,0-3.36-13.68,597,597,0,0,0-58-105.6c10.2-14,20.64-27.84,31.08-41.64,3-4,6.12-7.68,9.36-11.28,8.52-9.12,10.8-18,7-26.76-9.48,14-19.32,27.84-29.76,41.4q-21.06,25.56-41.52,51.48c-4.44,5.52-9.12,10.92-13.92,16.08a59.88,59.88,0,0,0-9,12.36c1.56-19.2,3.48-38.4,5.52-57.6a201.18,201.18,0,0,0-2.76-64.2,2.49,2.49,0,0,0-2.88,2.28A122.35,122.35,0,0,0,177.24,210.84Zm200.52,76.32c-13.92,6.72-23.64,17.88-29.16,33.36a88.86,88.86,0,0,0-4.08,44.76c2.64,16.44,11.76,26.52,27.48,30.24,16.68,3.84,29.64-1.44,39.12-15.72,3.48-5.28,3.84-10.8,1.2-16.68-9.84,12.6-22.44,18.84-37.8,18.6-9.12-.12-15.72-4.56-19.68-13.32a50.43,50.43,0,0,1-4.8-20.52A131.31,131.31,0,0,0,388.8,345a12.19,12.19,0,0,0,1.44-8.64,11.5,11.5,0,0,0-1.44-3.84l-.36-.24-37.2,3c2.64-15.48,11.4-25.32,26.4-29.4a37.92,37.92,0,0,1,30.48,4,42.1,42.1,0,0,0,5.64,2.88c-4.08-14.76-13.8-23.16-29-25Z" transform="translate(0.19 0.19)"/></svg>