<svg id="Layer_1" data-name="Layer 1" xmlns="http://www.w3.org/2000/svg" viewBox="0 0 487.41 298.85"><defs><style>.cls-1{fill-rule:evenodd;}</style></defs><path class="cls-1" d="M253.2,190.92l8.52,26c-22.92,4.92-45.84,9.24-69,13,3-8.28,6.36-16.56,9.84-24.72q18-42.12,37.56-81.48A266.51,266.51,0,0,0,253.2,190.92Zm-65.52-53.64q-4.86-30.06-40.56-26.28c-25.08,6.12-44.64,20-58.68,42a187.13,187.13,0,0,0-26,64.68,256.78,256.78,0,0,0-2,90.84A238.12,238.12,0,0,0,80,372.72a59.85,59.85,0,0,0,27.72,28.8,73.93,73.93,0,0,0,29.64,7.8,63.28,63.28,0,0,0,41.4-12c20.16-14.52,33.84-33.12,41.16-56l-.6-1.68-.6-.72-.72-.36A71,71,0,0,0,199,359.28c-10,16-24.12,25.68-42.36,29.16a185.17,185.17,0,0,1-20.16,2.76c-21.12,1.8-36.72-6-46.8-23.16a181.61,181.61,0,0,1-25.56-92,333,333,0,0,1,5.76-63.72c5.4-28.2,19.32-51.6,41.52-70.08,25.32-21,50.76-22.44,76.08-4.2Zm52.2-16.08a292.65,292.65,0,0,0-58.2,110.4l-4.2.6-.24,7.32,1.56.12a634.24,634.24,0,0,1-30.36,81.6,85.82,85.82,0,0,0-6.48,22,110.91,110.91,0,0,0-1.2,11l.36.84,2.76,1.08a407.61,407.61,0,0,0,33.24-78.6c3.84-12.72,7.8-25.32,12-37.68a297.89,297.89,0,0,0,77-8.88A810.1,810.1,0,0,0,316,373.68c5.88-9.36,5.88-19.8,0-31.44a436.39,436.39,0,0,1-25.08-58.56l-10.2-30.24-8.4-26.4a10.31,10.31,0,0,0,.6-9l-.84-1.56-1-1.68-2.4.6-26-96.84-1.8-2.88Zm172,49.68c5.52,20.76.24,38.28-16,52.8-13.32,11.76-28.32,14.64-45.12,8.64-.48-16-.72-31.8-.84-47.76-.12-20.28-.36-39.84-.72-58.8a139,139,0,0,0,23.64,7.44C393.36,137.88,406.44,150.36,411.84,170.88Zm-61-55.44-4.56-.12L345,124l2.4,1.08a501.46,501.46,0,0,0-5.16,115.32c3,43.56,4.08,87.24,3,130.8a49.76,49.76,0,0,0,4.92,22.8,785.84,785.84,0,0,0,1.92-130.2l-1-17.4c10.8,4.44,21.36,4.56,31.56.48a55,55,0,0,0,25.08-19.56,61.64,61.64,0,0,0,10.92-27.6,67,67,0,0,0,.48-8.64,79.42,79.42,0,0,0-1.8-18.36l-.72-3.24A68.56,68.56,0,0,0,392.76,131,66.6,66.6,0,0,0,350.88,115.44Zm179.4,8.76c-14.76-5.28-29.28-4.2-43.56,3.12a86,86,0,0,0-34.08,31.44A127.86,127.86,0,0,0,436,200.88c-2.76,13.44-5,27-7.08,40.68a258,258,0,0,0-2.52,43.08,173.49,173.49,0,0,0,6.72,43.68,101.68,101.68,0,0,0,21.72,40.2c11.4,13.08,25.44,18,42.24,14.88a62.54,62.54,0,0,0,38.88-23.16,38.94,38.94,0,0,0,8.76-22.8q-26.28,25.38-60.36,26.28a27.89,27.89,0,0,1-16.56-4.92,63,63,0,0,1-25.56-34.2,145.75,145.75,0,0,1-6.48-33.72,252.74,252.74,0,0,1-.48-33A399.26,399.26,0,0,0,507,254a11.81,11.81,0,0,0,1.08-9,11.63,11.63,0,0,0-2.16-4.8l-70,7.2a175.69,175.69,0,0,1,25.44-82A65.3,65.3,0,0,1,495,137.76a72.19,72.19,0,0,1,36.72-3.84Z" transform="translate(-57.27 -110.58)"/></svg>