<svg id="Layer_1" data-name="Layer 1" xmlns="http://www.w3.org/2000/svg" viewBox="0 0 595.57 842.18"><defs><style>.cls-1{fill:#fff;}.cls-2{fill:none;stroke:#fff;stroke-linecap:round;stroke-linejoin:round;stroke-width:0.38px;}.cls-3{fill-rule:evenodd;}</style></defs><rect class="cls-1" x="0.31" y="0.31" width="595.08" height="841.68"/><rect class="cls-2" x="0.19" y="0.19" width="595.2" height="841.8"/><path class="cls-3" d="M166.08,318.12c-6.12-17.28-20-24.48-41.64-21.48A84.35,84.35,0,0,0,84.36,316.2a81.39,81.39,0,0,0-19.08,23.88,69.25,69.25,0,0,0-6.72,20,484.32,484.32,0,0,0-6.36,90.36q1.26,55.08,37.44,94.68a6.2,6.2,0,0,0,4.08,2.28q43.38,1.62,74.16-30.84c14.52-15.48,23-33.36,25.32-53.64-5.4,7.08-11.52,15.12-18.12,24.12-19.8,27.48-46.44,43-79.8,46.2A85.72,85.72,0,0,1,82.8,520.2a75.21,75.21,0,0,1-11.88-22.8,250.19,250.19,0,0,1-6.84-126.24,83.54,83.54,0,0,1,4.08-14.76C73.68,341.4,84,329.64,99,321.12c23-13.08,45.36-13.8,66.84-2.4ZM126.48,95a154.49,154.49,0,0,1,8.88,44.28A202.76,202.76,0,0,1,132.48,186a159.71,159.71,0,0,1-5.88,22.56,54,54,0,0,0-28.08-19.44l-6,2.76a16.45,16.45,0,0,0-4.2,13.68A3.43,3.43,0,0,0,91,208.68l2.16-4.92c11-3.48,19.8.84,26.28,12.72a27.06,27.06,0,0,0,2.88,4.32q-9,33.66-39.84,46.32a35.8,35.8,0,0,1-9.36,2.4l-2.16-1.68-2.4-.24c-16.8-21.72-26.16-46.68-28.2-75.12A332.38,332.38,0,0,1,42,129.72,91.54,91.54,0,0,1,56.52,90.48a89.58,89.58,0,0,1,25.8-25.8l6.12.24,1,7,4.2-4.44C109.56,69.48,120.6,78.6,126.48,95ZM91.2,55Q52.32,58,41.64,101.88a290.23,290.23,0,0,0-7.92,67.44,252.35,252.35,0,0,0,15.12,85.44,58.92,58.92,0,0,0,9.6,17.16,22.69,22.69,0,0,0,18.84,8.76c10.32-.12,19.32-4.56,26.88-13.2A155.59,155.59,0,0,0,128.4,230.4a188.77,188.77,0,0,0,45.24,60.48c19.44-5.64,30.36-18.24,32.76-38a43.47,43.47,0,0,0,.24-6.84,57.17,57.17,0,0,1-32.16,29.76q-27.9-22.14-41.28-57,23.94-79-13.8-149.28a45.71,45.71,0,0,0-17.64-18.12,10.71,10.71,0,0,0-9.48,2.52Zm132.48,7c-1.56,38.28-1.56,76.68-.24,115.32q1.26,31.5-19.08,53.64-5.22,5.76-11.16,1.44c-13.08-9.48-19.32-23.4-18.72-41.88q2.52-65.7.84-128.16a49.14,49.14,0,0,0-6.48,31,218.7,218.7,0,0,1,1.08,30.6A727.48,727.48,0,0,0,173,219.72c1.32,13.8,7.92,23.4,19.68,29,3.48,1.68,6.6,1.44,9.48-.84,18.12-14.52,27.6-33.84,28.2-58a896.24,896.24,0,0,0-5.88-128.28C223.92,61.8,223.68,61.8,223.68,61.92Zm70.92,44.16a462.16,462.16,0,0,1,11.64,49.44Q317,218,325.08,280.68l1.8,14a473.87,473.87,0,0,0-72.48,8.4c5.16-39.72,11.16-79.32,17.76-118.8Q282.78,121,289.2,58a95.7,95.7,0,0,0-10,34.8q-6.48,63.36-17.88,126-11.34,63-20.52,126.48-9,63.9-21.84,126.84a248.2,248.2,0,0,1-8.16,30.84c-3.84,11.88-3.48,22.56,1.2,32a2.43,2.43,0,0,0,1.2-1.56q11.88-47.52,20.64-96.48c7.32-41.16,13.8-82.44,19.2-123.84l75.6-5.52c4.92,33.48,11.16,66.84,18.48,100.08Q361,470.28,375,532.44q2,2.16,4.32,0a38.35,38.35,0,0,0,.12-24.6Q368.46,472,360,434.16q-14-62.46-24.24-125.4l-.24-1.8.84-.12.48-.84c2.28-5.16,1.44-9-2.4-11.64l-1,.12-18.36-112.2Q304.68,119.1,291.6,57.12h-.48A110.3,110.3,0,0,0,294.6,106.08ZM539.52,309.24A165.89,165.89,0,0,0,524.4,378a716.54,716.54,0,0,0,10.2,123.48c2.64,15.6,9.84,27.48,21.72,35.64A60.39,60.39,0,0,0,572.88,523c11.64-14.4,16.68-30.12,15.12-47.28a45.92,45.92,0,0,0-5.52,9.24c-6.6,14.28-15.84,25.44-27.84,33.48a31.18,31.18,0,0,1-10.44-14.88,223.49,223.49,0,0,1-10.32-44.64c-1.8-15.48-2.88-31-3.12-46.32a54.19,54.19,0,0,0,24.84.36c15.84-3.48,23.64-11.76,23.4-24.6l-1.08-.72-1.56-1a124.26,124.26,0,0,1-45.6,13.56,436.63,436.63,0,0,1,5.88-64.92c3.48-20.52,14.64-31.68,33.72-33.24a13.17,13.17,0,0,1,4.44,4.8,2.89,2.89,0,0,0,2.4,1.68l.48-1c2.76-11.64-1.8-18.12-13.8-19.68C552.6,291.12,544.44,298.32,539.52,309.24Zm-73.2-125.76q-9,55.8-51.6,93.12a39.27,39.27,0,0,1-11.28,6.6,55.28,55.28,0,0,0-8.88,4.32c-.36-35.16-.24-70.2.48-105.36l2.28-120.48c19.8-2.76,36,3.36,48.36,18.36a90.24,90.24,0,0,1,19.44,41.16A172.33,172.33,0,0,1,466.32,183.48Zm-109-128a465.94,465.94,0,0,0-3.72,84.48,1217,1217,0,0,1-.84,129c-.72,12.12,1,22.68,4.92,31.68a850.56,850.56,0,0,0,3-113.64C359,144.12,358.44,101.28,359,58.68l-.36-.84A4.38,4.38,0,0,0,357.36,55.44Zm37.2-2.4-.6.24-.36.84a16.73,16.73,0,0,0-.36,4.92l.24,2.4.24.84.6-.12a80.44,80.44,0,0,0-3.72,25.2l-1.2,129.12c-.48,43.08-.48,86,.12,129.12l2,129a241.41,241.41,0,0,1-1.68,32.28c-1.2,9.84.48,17.64,4.92,23.4a4.21,4.21,0,0,0,.72-1.68,585.29,585.29,0,0,0,3-88.44c-1.68-42.84-2.88-85.92-3.6-129l-.24-9.84.84,1a24.62,24.62,0,0,0,17-7.2l2.88-2.64A47.8,47.8,0,0,0,421.56,312a942.92,942.92,0,0,1,54.6,115.08,902.75,902.75,0,0,0,54.12,113.28,4.33,4.33,0,0,0,2.4-3,27.58,27.58,0,0,0-2.4-19.44,3.8,3.8,0,0,1-2.4-2.16,1197.74,1197.74,0,0,1-53.16-116.52,659.07,659.07,0,0,0-55.08-110l3.84-2.4a22.29,22.29,0,0,1,4-4.92,42.24,42.24,0,0,0,5.88-6.48l1-1.56a145.17,145.17,0,0,0,25.08-42.72q23.22-61.74,8.4-125.76c-8-34.68-29.76-52.68-65.16-54.24l-.84.36Z" transform="translate(0.19 0.19)"/></svg>