<svg id="Layer_1" data-name="Layer 1" xmlns="http://www.w3.org/2000/svg" viewBox="0 0 307.85 213.48"><defs><style>.cls-1{fill-rule:evenodd;}</style></defs><path class="cls-1" d="M291,292.92a33.42,33.42,0,0,0-10.68,2.76l-4,1.8,20.52-69.72,8.52,66.12-12.12-1.08Zm1.8-83.4q-16.74,61.74-34.92,122.76a131.47,131.47,0,0,1-8.4,22c-7.44,15.6-10.56,31.32-9.48,47,4.8-2.52,8.28-7.2,10.32-14.16q12.06-38.7,22.8-77.76l.12.12,31.44-3a11.9,11.9,0,0,0,2-4.56c4.2,27,8.16,54,12.12,81.12,1.32,9.84,4.8,17,10.44,21.72a2.94,2.94,0,0,0,.6-2.4c-2.64-25.32-6.24-50.88-10.8-76.44q-10.26-58.14-18.72-116.28a73,73,0,0,0-.36-14.52A38.71,38.71,0,0,0,292.8,209.52Zm-66.12-14.4a508.76,508.76,0,0,0-37,64.08,119.65,119.65,0,0,1-13.44,21.48c-7,9-11.28,18.36-12.84,28.2A1128.89,1128.89,0,0,0,161.52,193c-2.28,1.44-3.48,3.84-3.36,7.32q.9,64.44-2.52,128.28c-.84,16.2-2.52,32.4-4.8,48.36-1.56,10.32.36,18.24,5.52,23.76q4.86-38.52,6.6-78.84l.24,2c.84,0,1.44-.24,1.56-.6L191,274a202.24,202.24,0,0,0,7.68,44.76c4.92,17,9.36,34.32,13.2,51.84,2.52,12,7.08,21.6,13.44,28.8a10.8,10.8,0,0,0,1.2-7.92q-14-61.2-34-120.48,12.78-23.76,26.64-46.8c6-10,8.76-19.68,8.28-29.28A1.4,1.4,0,0,0,226.68,195.12ZM455.4,406.44l.48-2.16-.48-.12ZM352.8,245.16a8.3,8.3,0,0,1,.72,4.8l-.12,1.68-2.76,4.08-.48.6C344,257.76,337.8,259,331.68,260a29.41,29.41,0,0,0,5.76,17.88c12.6,1.56,21.48-3.72,26.52-15.72q5.58,25-21.6,28.08a9.73,9.73,0,0,1-9.72-4.2l-2-1.92q-7.74-27.18,5-52.8a18.54,18.54,0,0,1,13.92-10.56c10.44.36,14.64,5.28,12.72,14.76l-.48,1c-13.08-7.08-22.2-3.48-27.6,10.8l-.12.12a34.94,34.94,0,0,1,16.8-3.84l1.08.72Zm76-22.68-.48,4,.6.12ZM449,274.08a430.16,430.16,0,0,1,5.76-77.88q1.44,63.18,1.68,128.16a533.33,533.33,0,0,1-5.28,78.72,2.54,2.54,0,0,1-1,1.44,2.32,2.32,0,0,1-2.16-2.16q1.44-48.06,1.2-96.72a50.35,50.35,0,0,1-20.76,1.44c.12,22-.12,44-.6,66a78.31,78.31,0,0,1-5.88,29,3.76,3.76,0,0,1-2.4-2.28,1231.58,1231.58,0,0,0,1.2-128.16c-.72-17.4,1.2-33.72,5.88-48.72.84,20.76,1.44,42.12,1.68,64.2l.12,8,20.76-4Zm9-78.48v1.56h.12Zm-26.64,13a13,13,0,0,0,.24-4.8,16.06,16.06,0,0,0-1.08-3.12l-1.44-2.52-43.56-2.28a160.79,160.79,0,0,0-42.72,5.76v8.16l42.72,1.8a523.38,523.38,0,0,0-5.76,67.2q-.9,52.56-6.48,104.76a39.22,39.22,0,0,0,1.44,15.84l2.4,7.08a29.9,29.9,0,0,0,7.56-20.76,777,777,0,0,1,1.68-86.88c2-29,3-58.08,2.64-87.24L430,212.64l.84-1.92Z" transform="translate(-150.31 -192.96)"/></svg>