<svg id="Layer_1" data-name="Layer 1" xmlns="http://www.w3.org/2000/svg" viewBox="0 0 456.1 494.46"><defs><style>.cls-1{fill-rule:evenodd;}</style></defs><path class="cls-1" d="M152,416.64c5.4,36.12-1.92,69.12-22.2,99.12a12.15,12.15,0,0,1-9.48-2.16,79.17,79.17,0,0,1-3.72-27.6c1.08-27,1-53.52-.6-79.56a168,168,0,0,0-4.32,30.48l-2.16,32.4c-1.56,21.48,2,41,11,58.56a20.91,20.91,0,0,0,10.08.84c21-27.24,30.72-58.32,29-93.48-.36-9.24-2.88-16-7.44-20.16A2.51,2.51,0,0,0,152,416.64Zm-117.36.84A108.87,108.87,0,0,0,15.48,464q-7.38,44.46,12.12,83,11,12.06,25.56,8.28a35.27,35.27,0,0,0,19.08-12.24,148.49,148.49,0,0,0,10.56-15q10.26,20.52,32.4,23a20.07,20.07,0,0,0,5.88-7.8,19,19,0,0,0,1.44-12.48l-.6.24a5,5,0,0,0-1.32,2.16l-.24.84a2.79,2.79,0,0,0-3.36,1.56l-1.56,2.52c-4.8,2.16-9.36,1.56-13.8-1.8a15.77,15.77,0,0,1-4.32-5.16,64.24,64.24,0,0,0-8.76-13.56c14.16-29.16,14.76-60.36,1.8-93.84-5.76-14.76-16.08-23.52-30.84-26.16A57.56,57.56,0,0,0,34.68,417.48ZM62.76,408,65,414.72l3.36-2.64,5,4q38.7,41.58,11.88,98.16c-8-9-17.52-12.84-28.2-11.52l-.84,7.08c10.32,0,18.24,4.08,23.64,12.36q-35.46,43-55.56-5.16a82.58,82.58,0,0,1-6.48-29.64,88.9,88.9,0,0,1,18.24-58.44,77.22,77.22,0,0,1,23.4-21.12ZM45.48,262.92a78.79,78.79,0,0,0-17.16,41.4q-2.52,21.42-3.24,43.2c-.6,16.56,4.92,30.12,16.32,40.68,3.6,3.36,8.16,4.68,13.8,3.84,16.44-2.16,29-10.08,37.8-23.88a8.92,8.92,0,0,0,.84-8.16q-26.46,26.46-56,14.76c-1.68-.6-2.76-2.16-3.24-4.44a181.7,181.7,0,0,1-3.84-42.6A145.07,145.07,0,0,1,34,298.92q8.82-41.94,41.4-32.76l5.4,1.2.36-5.16Q65.82,237.72,45.48,262.92ZM132.72,290c-2.76,12.36-10.2,20.52-22.32,24.36l2.28-51.48C130.68,261,137.4,270,132.72,290Zm-22-26.76-6.84,52.56-1.68.24a382,382,0,0,1-6.12,59.28,34.32,34.32,0,0,0,1.8,18.36,217.39,217.39,0,0,0,11.52-68.28c3.72-1.56,7.32-3.12,10.92-4.68a164,164,0,0,0,26.28,74.76c3.48-4.08,4.2-8.52,1.92-13.44l-2.16-.6L122.64,319.2a41,41,0,0,0,18.72-27.6,42.9,42.9,0,0,0-1.08-19.92,31.44,31.44,0,0,0-16.68-19.8l-11-.12-1.92,2.88Zm3.72-201.12a1012.12,1012.12,0,0,1-53.76,86.4l-4.44,5.64L60.6,61.8a621.3,621.3,0,0,0-9.84,102.36,175.73,175.73,0,0,1-2.28,25.32c-1.56,9.48-3,18.84-4.2,28.32A62,62,0,0,0,43.8,226a53.41,53.41,0,0,0,2.76,15.72Q48,185.52,76.08,139.56q13.5,43,28.8,85.68a90.29,90.29,0,0,0,8.4,17.52C107.64,205.92,96.12,169.92,79,134.88l37.2-67.2Zm132.12,78.6c5.88,31.8,10.8,63.6,14.88,95.64L271,309.24h-1.44a321.32,321.32,0,0,0-59.88,7L212.4,297l18.12-126.72a568.78,568.78,0,0,1,11.52-60C243.12,120.48,244.68,130.68,246.6,140.76ZM240.24,85a85.11,85.11,0,0,0-8.16,27.12q-8.1,63.54-17.52,127.08l-12,79.68a18.56,18.56,0,0,0-.72,3.72v.72l-6.48,42.24q-9.9,63.18-19.08,126.72a170.27,170.27,0,0,1-7.56,31.08c-3.24,9.6-2.16,17.28,3,22.92a2.63,2.63,0,0,0,1.2-1.68c9.24-39.84,16.44-80.16,21.84-120.84C199,391.92,203.4,360,208,328.2l65.16-2.88,5,37.8q8.64,62.82,14.52,126.24c1,10.68,1.68,21.24,2,31.8.36,12.36,3.84,22.56,10.2,30.6a2.45,2.45,0,0,0,1.08-2.4Q301.14,493,295.56,435.6c-4.2-42.48-9.12-84.72-15-126.84Q272.82,253.5,263,198.84q-11.16-63.36-16.8-126A16.29,16.29,0,0,0,240.24,85ZM333,86.88c.72,10.08,1.08,20,1.08,30q0,64.44-1.56,128.28-1.62,64.44-2.52,129c-.72,42.84-2.4,85.68-5,128.28a114.3,114.3,0,0,1-2,15.84c-2.64,12.6-1.44,23.16,3.6,31.8a663,663,0,0,0,8-85.2c1.32-43,1.8-86,1.68-129.12s.24-86.16,1.32-129q1.26-47.88,3.24-95.76a98.49,98.49,0,0,0-3.72-32.52C334.08,79.92,332.64,82.68,333,86.88Zm48.12-14.52c-2.52,26-4.56,52.32-6,78.6q-3.42,63.9-4,128.28-.72,64.8-4.92,129L357.6,536.4c-.6,7.56,1.56,12.48,6.36,14.76l.84-4.32q51.3-.36,103,1.92a12.47,12.47,0,0,0,1.8-5.76l-.24-3.24-.24-.72-.24-.84-.24-.84-.84-1.68a1.09,1.09,0,0,0-.84-.36A473.18,473.18,0,0,0,389.64,532l-19.44,3-3,.72-.6.24a252.64,252.64,0,0,0,2.28-31.8c.12-15.72.72-31.32,2-47q4.86-63.9,5.52-128.28.72-64.8,4.68-129a1275.69,1275.69,0,0,0,1.2-128.4C381.6,71.28,381.24,71.64,381.12,72.36Z" transform="translate(-13.46 -61.8)"/></svg>