<svg id="Layer_1" data-name="Layer 1" xmlns="http://www.w3.org/2000/svg" viewBox="0 0 395.24 375.54"><defs><style>.cls-1{fill-rule:evenodd;}</style></defs><path class="cls-1" d="M147.12,166.08q-2,54,0,108a262.4,262.4,0,0,1-.84,32.28,199.48,199.48,0,0,0,1.44,48.12l2.64-.12A848.45,848.45,0,0,1,270,341.28c4.08-6,4.08-12,0-17.88A957,957,0,0,0,153.36,337a368.13,368.13,0,0,0,1.8-51.36l-4.44-128.16Q147.3,160.5,147.12,166.08Zm139.2,46.68-19.56.72-15.48.84,32.64-93.84,13.44,93.72A34.5,34.5,0,0,0,286.32,212.76ZM177.6,103.2c-8.28-13.56-21-19-38-16.32A48.66,48.66,0,0,0,114.84,97.2,106.56,106.56,0,0,0,82.2,140.28,333.44,333.44,0,0,0,55.8,264.12c-.36,16-1.08,31.8-2.16,47.76Q49.14,377.4,80.4,433.2a46,46,0,0,0,12.48,13.92q40.86,29.16,82.92.24,29-19.62,37.08-50.76l-.6-.6a3.57,3.57,0,0,0-1.8-.6c-.24,0-.48.12-.84.48l-.48.72-.6.84-.6.36-2.64.72-4.44,5.76q-20.7,27.72-52.8,38C130,448.2,113.88,445.68,100,435q-23.4-18.18-29.64-48.12a475.24,475.24,0,0,1-9.12-128A327.56,327.56,0,0,1,88.08,146.28q17.28-39.6,59.16-44.4a22.38,22.38,0,0,1,13.68,2.64,86.36,86.36,0,0,1,22,17,7.11,7.11,0,0,0,1.68-5.52,17.24,17.24,0,0,0-3.24-8.16,28.22,28.22,0,0,0-3.6-4Zm107.52-8.76a66.88,66.88,0,0,0-8.28,17.4l-33,103.08-5.28.48-.12.84c-.24,1.32-.36,2.64-.48,4.08a10.29,10.29,0,0,0,.6,3.24l.36.72,1.8.48-3,9.36a210.56,210.56,0,0,1-12.12,30.12c-5.52,11.16-6,21.48-1.56,31.2q7.92-20,14.76-42.12l8.76-27.84,8.16-.24c16.2-1.8,30.84.12,43.92,5.64l1.92,14.28q8.46,63,15.36,126.36a56,56,0,0,1-.12,11.88c-1.8,12.36.36,22.68,6.24,31.08a11.26,11.26,0,0,0,3.72-8.88A513.28,513.28,0,0,0,323,342.12c-4.44-35.76-9.24-71.4-14.64-106.92a4.77,4.77,0,0,0,2.52-3,18.27,18.27,0,0,0-.12-9.84,4,4,0,0,0-1.56-2.4l-1.32-.84-2.16-1.32-.36-1.92q-9.9-63.54-19.44-126Zm106.2,140.88c4.44-10.2,3.72-20.88-1.92-32.16q-28.8-57.6-61.2-113.28-7.2,20.88,13.08,47.76a242.36,242.36,0,0,1,24.84,40,414.81,414.81,0,0,1,19.08,45A95.75,95.75,0,0,1,388.32,233ZM441.6,108.84a186,186,0,0,0-22.8,56.88q-6.84,29.7-15.6,58.92a1142.64,1142.64,0,0,0-29.88,124.8c-1.8,10.44-4,20.76-6.24,31.08q-5.22,23.58-.72,44.28a2.26,2.26,0,0,0,1.44-1.32,224.5,224.5,0,0,0,11-51.6,364,364,0,0,1,9.36-53.28q9.9-39.24,18.72-78.72a808.05,808.05,0,0,1,35.52-116.52l2.88-.48,1.92-.84a16.77,16.77,0,0,0,1-4.08,13.27,13.27,0,0,0-1.44-8l-1.44-.6Z" transform="translate(-53.07 -86.23)"/></svg>