<svg id="Layer_1" data-name="Layer 1" xmlns="http://www.w3.org/2000/svg" viewBox="0 0 595.57 842.18"><defs><style>.cls-1{fill:#fff;}.cls-2{fill:none;stroke:#fff;stroke-linecap:round;stroke-linejoin:round;stroke-width:0.38px;}.cls-3{fill-rule:evenodd;}</style></defs><rect class="cls-1" x="0.31" y="0.31" width="595.08" height="841.68"/><rect class="cls-2" x="0.19" y="0.19" width="595.2" height="841.8"/><path class="cls-3" d="M132.24,249.84q-24.3-17.82-57.6-11.16a45.47,45.47,0,0,0-24.12,19.56,155.92,155.92,0,0,0-23.4,69.84,942.85,942.85,0,0,0-2.4,127.56c1.8,36.72,15.84,67.44,41.88,92.28q30.6,29.16,66.6,6.24c15.48-9.84,22.56-22.8,21.24-38.76l-.84-.72-1.2-1L152,513v-2.4l-.12-.84-.24-.6-.48-.24a41.09,41.09,0,0,1-14.64,23.52,57.5,57.5,0,0,1-10.2,6.36q-38.88,17.46-67-14.52a69,69,0,0,1-13-21.48,272.9,272.9,0,0,1-17-111.6q2.16-41.94,8.28-82.8A83.5,83.5,0,0,1,66,256.56a88.44,88.44,0,0,1,42.84-4.44c13.08,1.8,22.8,7.32,29.4,16.8C141,261.12,139.08,254.76,132.24,249.84Zm-42,22.8-.12-1.8-1.56,4.08a543.45,543.45,0,0,0-5.88,91.56q.18,5.4,2.88,7.92L91,317.64l15.24-.72.36,5.4,27.6,56.16q-2.7-32.4-23-64.32c18.24-15.48,18.48-31.08.6-46.56A26.91,26.91,0,0,0,92,271.32ZM120.6,292l-2.28,4.92c-7.56,7-16.68,9.48-27.12,7.56l-.6-24.84,20.88-1.2,4.2,4ZM24,51a197,197,0,0,0-11.64,66.12A249.58,249.58,0,0,1,10.56,147c-3,25.8,2,49.08,15.24,70.08,8.52,13.56,19.32,14.76,32.16,3.6a83.47,83.47,0,0,0,19.2-23.16c6,8.52,11.76,17,17.28,25.8,4.8,7.56,11.28,10,19.32,7,16.8-6.12,23.76-16.68,21-31.92-7.8,10.2-17.52,16.32-29.28,18.36l-1-.84c-7.2-10-14.76-19.56-22.68-28.92a81.44,81.44,0,0,0,3.72-13.08Q96.9,116.46,73.32,64.68a37.76,37.76,0,0,1-2.52-6.24C65.28,42,54.72,32.64,39,30.36A44.62,44.62,0,0,0,24,51Zm32.4-1.32A198.19,198.19,0,0,1,75.12,91.44a130,130,0,0,1,6.24,45.48,176.56,176.56,0,0,1-6.84,41.64l-12.84-14-5.4.84A16.42,16.42,0,0,0,50,175.08a4.13,4.13,0,0,0,.6,3.12,10.32,10.32,0,0,0,2.4,3.12l4.08-3.48,5.64.24,8.28,11A45,45,0,0,1,49.8,212,11.47,11.47,0,0,1,39,212a25.75,25.75,0,0,1-12.12-13.32c-11.4-28.2-15.72-58.44-12.72-90.72A125,125,0,0,1,38.64,43.8l15.48,2.76ZM156,40a599.54,599.54,0,0,1-6.6,119.28c-1.8,11.64-8.4,18.84-19.8,21.36-12,2.64-17.88-2.28-17.76-14.76q.72-64.8-1-128.28c-3,1.92-4.44,5.16-4.44,9.84q0,40.68-3.48,81a151.53,151.53,0,0,0,7.92,64.32c17.64,8.88,30.6,4.08,38.64-14.28a147.56,147.56,0,0,0,12.36-56.88c.48-20.28,1.2-40.56,2.28-60.84.48-10-1.8-17.64-6.72-22.8A2.05,2.05,0,0,0,156,40Zm97,25c2.28,34,4.92,68.16,8.16,102.6,3.48,37.32,7.92,74.4,13.08,111.36l3.84,29.4-10.68-.84-54.6,5.88q5.4-36.72,11.16-73.56,9.9-63,19.2-126.24A110.81,110.81,0,0,1,246.6,97.8,157.26,157.26,0,0,0,253,64.92ZM252.12,51a13.64,13.64,0,0,0-4.32,6.72A413.17,413.17,0,0,0,233.16,127C228,169.08,222,211.08,215.4,253l-20,126.6Q185.28,442.92,174.6,506.4a152.16,152.16,0,0,1-8.76,30.72c-4.08,10.2-2.88,18,3.48,23.52a398.77,398.77,0,0,0,16.92-67.92q9.9-63,18.84-126.12l6.12-42c22.92.72,45.84.36,68.76-1,3.24,27.24,5.88,54.48,8.16,81.72,3.36,42.36,7.92,84.48,13.56,126.6a1.29,1.29,0,0,1-.12,1.08c-.48.36-1-.12-1.56-1.32a50.66,50.66,0,0,0,9,24.6,3.49,3.49,0,0,0,1.44-3.24q-3.42-48.24-8.76-96.84l-14-127.08c-2.88-26.52-6.36-53-10.44-79.32s-7-52.68-8.76-79.2A1014.57,1014.57,0,0,0,252.36,44.16c-.36-.12-.6-.12-.6.12Zm168.24,1.44a425.43,425.43,0,0,0-30.48,81.12Q373.5,195.84,352.56,256.8a155,155,0,0,1-13.8,29.64,83.76,83.76,0,0,0-6.48,13.2l1.08-29c1.32-32,3.12-63.84,5.64-95.64A1196.21,1196.21,0,0,0,342.24,47.4a468.24,468.24,0,0,0-7,55.92q-4.14,64.26-6.72,129.12c-1.56,42.84-3.12,85.92-4.44,129.12L320,489.72a297,297,0,0,0,4.92,64.2c1.8.12,2.76-.72,3.12-2.52a90.93,90.93,0,0,0,1.68-22.8q-3.24-64.44-1.08-129l2.64-71.76a398.22,398.22,0,0,0,24-55.92L367.2,236.4A508.61,508.61,0,0,0,375.12,310q11.52,62.82,25.08,124.8c4.68,21.24,9,42.48,13.2,63.72A220.23,220.23,0,0,0,435.12,560l.48-.6c3.36-9.24,3.6-19,.84-29.16l-.48,1.2-.84,6.12q-9.36-29.52-17-60.12-15.66-62.1-27-125l-22.2-121.56q12.78-40.68,23.52-82a431.38,431.38,0,0,1,34.32-89.64l.24-.84c1.32-3.6.6-6.6-2.16-8.88A5,5,0,0,0,420.36,52.44ZM530.76,64C519.48,54.84,506.4,50.88,491.4,52.2a34.24,34.24,0,0,0-10,3.12,87.82,87.82,0,0,0-16.56,10.92A119.05,119.05,0,0,0,454,90.12a472.08,472.08,0,0,0-21.48,125.52q-1.08,35.64-.24,71.52c1.2,43.08,3.84,85.68,8,128,3.24,31.8,6.84,63.6,11,95.28q4,30.78,28.92,45.48a12,12,0,0,0,5.28,1.8c12.72.6,24.12-4.08,34.32-14a86.8,86.8,0,0,0,16.32-21.6c6.36-11.88,6.84-22.44,1.2-31.8L535.68,492a4.05,4.05,0,0,0-1.08,2.28l-.48,1.68-1.68.24-.36-.24-.24-.72-.12-1c-.84.24-1.2,1-1.08,2a6.06,6.06,0,0,0,1.2,2.52,4.32,4.32,0,0,1,1,1.44A68.29,68.29,0,0,1,505,536.88C494,544.2,483.84,543,474.36,533s-15.48-22.2-17.64-36.72a1212.73,1212.73,0,0,1-12.84-128.64q-1.62-35.46-4.2-71.28l-.48-7.32L477.84,292a11.13,11.13,0,0,0,2.4-8.88L480,281.4a9.7,9.7,0,0,0-1.32-3.24,1.93,1.93,0,0,0-.84-.48L447,275.52l-.6.12-1.32.36a15.25,15.25,0,0,0-6.48,1.2A615.42,615.42,0,0,1,440,201.36q2.7-33.48,6.6-66.72Q451,97,477.24,71.76a51.12,51.12,0,0,1,38.52-2.16A17.8,17.8,0,0,1,525,76.44l13,19.08a27.61,27.61,0,0,0-.6-18.12c-1.68-4.32-3.6-8.52-5.64-12.72Z" transform="translate(0.19 0.19)"/></svg>