<svg id="Layer_1" data-name="Layer 1" xmlns="http://www.w3.org/2000/svg" xmlns:xlink="http://www.w3.org/1999/xlink" viewBox="0 0 595.57 843.07"><defs><style>.cls-1,.cls-3{fill:none;}.cls-2{fill:#fff;}.cls-3{stroke:#fff;stroke-linecap:round;stroke-linejoin:round;stroke-width:0.38px;}.cls-4{clip-path:url(#clip-path);}.cls-5{fill-rule:evenodd;}</style><clipPath id="clip-path" transform="translate(0.19 1.08)"><rect class="cls-1" x="11.16" width="583.8" height="594.96"/></clipPath></defs><rect class="cls-2" x="0.31" y="1.2" width="595.08" height="841.68"/><rect class="cls-3" x="0.19" y="1.08" width="595.2" height="841.8"/><g class="cls-4"><path class="cls-5" d="M359.64,534.72l.12,4.92a117.29,117.29,0,0,1-1.44,16,139.79,139.79,0,0,1-2.88,15.24v5.64l43,.6,1,1.2a6.32,6.32,0,0,1,.48,2.76,7,7,0,0,1-.84,3.36,3.27,3.27,0,0,1-3,2.16l-1.8-.24-.12-.6-40.8-.6c-.72-2.16-1.08-5.64-1.08-10.56a121.55,121.55,0,0,1,1.56-15.6,178.81,178.81,0,0,0,1.68-25.8,6.43,6.43,0,0,1,.6-2.88,1.52,1.52,0,0,1,1.32-.84C358.56,530.4,359.28,532.2,359.64,534.72ZM78.72,570.12a5.73,5.73,0,0,0-1.92,1,5.3,5.3,0,0,1-1.2-2,8.37,8.37,0,0,1-.36-2.88q0-3.42.72-4.32c1.44-1.56,5-1.92,10.92-1.08l4.68,4.92,2.16,2.4A19.07,19.07,0,0,0,97.92,556,16.09,16.09,0,0,0,95,547.32a34.13,34.13,0,0,0-8.4-8.16l-10.32-.6c-2.76-5.64-10-7.56-21.36-5.76A57.94,57.94,0,0,0,42.48,536c-3.84,1.44-6.48,2.76-7.8,4a21.72,21.72,0,0,0-10.92,10.56,24,24,0,0,0-2.64,10.92q0,5.94,7.56,12.6a30.21,30.21,0,0,0,20.52,7.8c18.12,0,31.32-3,39.6-9.12l-3-3.36Zm-19.2-46c11.16-.12,20.76,2.64,28.68,8.28,8.64,6.12,13,14.28,13,24.24a27.74,27.74,0,0,1-1.2,7.2,70.49,70.49,0,0,1-2.88,7.56l2.16,2.16c7.92,7,16.2,10.44,24.72,10.44,6.36,0,10.56-1.08,12.84-3.24l2-2.76a7.16,7.16,0,0,1,1.92-2.4l1.2,1.92a7.3,7.3,0,0,1,.36,2.64c0,2-1,4.32-3,6.84a14.55,14.55,0,0,1-12.12,5.64c-10.8,0-20.52-3.6-29.28-10.68l-4.68-4.32c-6.6,8.76-16.08,13.2-28.32,13.2-22.2,0-36.6-4.56-43.32-13.8a20.79,20.79,0,0,1-3.84-10.2l.12-6.12c0-11.64,4.32-20.88,13.08-27.6C38.64,527.16,48.12,524.16,59.52,524.16Zm279,40.44q-.9,16.38-1.8,25.92a6.12,6.12,0,0,1-3-5.16q0-9.54,2.16-30.24c1.44-13.32,2-22.68,1.92-27.84.84,4.32,1.32,11,1.32,20.28ZM179.64,530.16a17,17,0,0,1,1.56,5.52,33.73,33.73,0,0,1-1.2,7.44A67.11,67.11,0,0,1,175.8,556c-5.4,11.64-13.2,17.52-23.4,17.52-13.44,0-21.48-4.8-24.12-14.52a29.92,29.92,0,0,1-.72-10.56l.72-5.76a35.34,35.34,0,0,1-1.56-8c-.48-5.64.72-9.12,3.48-10.56.48,1.8.48,5.28-.12,10.44a102.34,102.34,0,0,0-1,13.44c.24,11.16,5.52,16.68,16,16.68q20,0,27.72-14a33.85,33.85,0,0,0,4-16.32,4.75,4.75,0,0,0-1.08-2.76,5.39,5.39,0,0,1-1.08-2.88,7.6,7.6,0,0,1,.36-2.76,5.47,5.47,0,0,1,1.32-2.16A19.65,19.65,0,0,1,179.64,530.16Zm160.08-20.4c4.68,5.52,11.88,8.28,21.36,8.28,6.48,0,11.16-2.64,14.16-7.92a24.42,24.42,0,0,0,1.92-4.32l1-5.88V495l-21.6-.72-.84-1.32a14.57,14.57,0,0,1-.24-2.76c0-2.16.48-3.6,1.56-4.32l23,.24c.84,2.16,1.32,5.64,1.32,10.56l-.24,5.4.24,3.48a17.53,17.53,0,0,1-1,5L379,524.28l-.48.48-.84.84a8.07,8.07,0,0,1-1.44-3.72l-.24-3.24c-3.72,5.4-8.4,8-14,8-12.6,0-21.48-4.44-26.52-13.44a32.17,32.17,0,0,1-3.84-15.48c0-12.24,1.32-22,4.08-29.28,5.28-14.16,15.36-21.24,30.36-21.36l8,6.84c1.32,1.32,1.92,3.36,1.92,6.12v2.16l-.24,1.44-.48.48-.84.84-4.68-3.6a13.36,13.36,0,0,1-4.8-5.64c-12.84-.6-21.6,5.28-26.4,17.4-2.52,6.36-3.72,14.52-3.72,24.36C334.8,501.72,336.48,505.8,339.72,509.76ZM149.64,125.16q0-32.4-39.84-39.48c-1.32,12.6-6.48,39.84-15.24,81.84,18.84-1.92,33.36-7.92,43.44-17.88C145.8,142,149.64,133.8,149.64,125.16ZM109.08,74.88l4.56-.36c4.68.84,10.08,3.6,16.2,8.4a64.77,64.77,0,0,1,16.08,18.24c4.92,8.16,7.32,16.44,7.32,24.72,0,13.8-5.88,26.4-17.76,37.56a60,60,0,0,1-16.08,11l-2,1.08c6.12,17.16,13.8,39.48,23,66.72,10.68,32.16,16.08,49.44,16.08,51.72l-.24,5.28-.6.48-1,.84q-9.9-20.88-26.52-72.48c-8.88-28-13.92-44.88-15-51a32.75,32.75,0,0,1-9.24,1.44l-11.64-.12-.36,1.68Q72.66,271.2,62.28,297.36q-1.44-2-1.44-6.12c0-1.56,3.72-16.44,11.28-44.76C80.4,214.92,85.68,193.56,88,182.16l1.2-6.72A13.82,13.82,0,0,1,89,173a9.2,9.2,0,0,1,.72-4.08l.6-.84,1.8-13.56c1.44-12.36,2.52-21.48,3.36-27.6C98,107.88,101.76,92,106.44,79.44a5.54,5.54,0,0,1,1.32-3.72l.72-1.8Zm159-48L262.2,62.52q-9.72,58.14-12.84,93.6c-1.8,19.56-5.4,44-11,73.32l-14.16,72.84-3.84,24.36c4.44-3.48,15.24-7.68,32.64-12.72l25.44-7.2a102.4,102.4,0,0,0,12.84-4.56q-6.12-63.36-11.76-128Q269.58,64.5,268.08,26.88Zm-58.8,17.76a7.82,7.82,0,0,1-3.12,4.92c-.84-.84-1.68-3-2.4-6.48a24.89,24.89,0,0,0-3.24-9.36C195.36,25.92,182.88,22,163,22c-18.36,0-33,1.56-43.8,4.56-10.44,3-19.08,7.8-25.8,14.52-5.52,5.64-11,14.28-16.56,25.68-3.48,7.08-9.12,19.68-17,38a260.6,260.6,0,0,0-14.28,42.6,315.35,315.35,0,0,0-7.56,44.28L27.6,270.72c-6.48,52.2-9.72,83.64-9.72,94.08a194.63,194.63,0,0,0,1.92,23.28A258.85,258.85,0,0,0,29.52,435q20.7,66.78,67.08,66.84c18.36,0,33-1.56,43.8-4.68,10.44-3,19-7.8,25.44-14.64,5.52-5.76,10.92-14.4,16.08-26L197.52,418a15.55,15.55,0,0,1,2.16,7.68c0,1.32-2.52,8.64-7.44,21.72Q183.6,470,182.16,474.72a43.5,43.5,0,0,1-4.2,8.88A72.29,72.29,0,0,1,166.8,498c-13.08,12.84-29.76,19.2-49.92,19.2-17.16,0-30.48-1-39.84-3-10-2.28-18-6-23.88-11.4-5.64-5-10.68-12.72-15.24-23-3-6.72-7.56-19.32-13.8-37.8-8-23.88-12.36-38.28-12.72-43.44a81.15,81.15,0,0,1,.24-11.64c.6-7.2.84-14.4.84-21.6,0-11.4,3.36-44.16,10-98.52q8.46-68.22,10.8-83.52c2.16-13,5.4-28,9.84-45.12C46.2,125.64,50.4,110.4,55.8,92.28c1.56-5.88,4.92-13.44,10-22.68L78.24,46.8c2-4.68,3.72-8.4,5.16-10.92a39.89,39.89,0,0,1,9-12c10.2-9.24,27.36-14.76,51.6-16.8q42.48-2.34,57.72,12.48c5.16,5,7.68,11.88,7.68,20.64A36.62,36.62,0,0,1,209.28,44.64ZM273.36,17.4q0,27.54,11.76,156.6,5.94,64.44,11.88,125.52,2,40.68,14.28,162Q323,577.08,322.92,580a49.37,49.37,0,0,1-1.32,8.28,31.12,31.12,0,0,1-1.92,6.6c-2-4.2-3.36-10.08-4-17.4-.36-8.28-.84-14.28-1.44-18.24-1.08-8.52-2.16-20.64-3.24-36.6q-2.7-38.16-7.56-72.24-3.78-26.64-6.6-72.36c-1.56-25.2-2.88-44.76-4.08-58.68-2.76,1.8-10.32,4.2-22.68,7.08l-19.32,6.84c-10.68,3.72-19.92,5.52-28,5.52-1.8,0-3.12-1-4-3-1.68,11.88-3.36,25-5.16,39l-9,73.08q-11.34,89.64-26.28,146.28c-2.28-1.32-3.72-3.6-4.44-7.08a27.79,27.79,0,0,1-.48-6.24,71.64,71.64,0,0,1,0-7.2c.36-4,1.68-6,3.84-6,3.24,0,8-18.24,14.28-54.72q9.18-52.56,11.16-87.6,4.14-24.66,9.24-70.92c3.48-32.52,6.48-56.28,8.88-71q2.16-13.32,12.6-71,8.1-44.46,11.52-71c1.08-8.52,2-20.4,3.12-35.52,1.08-17.28,2-29.28,2.64-35.88,2.88-28.2,8.88-51.48,18-69.6l.36.72a3.3,3.3,0,0,1,2.4-2c4.44,2.16,6.12,5.16,5,9.12L274.68,13A12.39,12.39,0,0,0,273.36,17.4Zm77.88,360-.36-.12.24,4.08q0,7.92-3.24,24.12a63.21,63.21,0,0,0,12.48-1.32l.84-.24a26.17,26.17,0,0,0,8.88-3.84c3.36-2.28,5-4.8,5-7.32,0-5.16-4.68-9.36-14.16-12.36Zm28,16.08c0,4.44-1.92,8.64-5.88,12.6a31.07,31.07,0,0,1-5,3.84l5.52,8a283.19,283.19,0,0,1,15.12,26.88c0,2.4-.48,4.2-1.56,5.28-2.28-2.64-7-9.24-14-19.92q-7.56-11.34-14.4-15.48l-.12-1.32-10.44,1-2.4-.12-1.2,4.92c-3.6,15.72-6.24,25.56-8,29.64C335.4,448,334.8,446,334.8,443c0-3.72,1.32-10,4-18.84l3.72-13.08v-1.44l.12-3.24.12-1.2.84.12,1.2-18.84q.54-7.92,2.52-11.52a1.8,1.8,0,0,1-.48-1.32l.12-3,.12-1.08,5.64-.48c11.88,0,19.92,3.6,23.88,10.92C378.36,383.4,379.2,387.84,379.2,393.48Zm17.28-166.92.36,3.6c0,6.36-9,30-26.88,71.16-17.28,39.72-29,64.32-35.16,74q-5.58-18.72-17.64-77.88c-7.8-39-11.76-61.44-11.76-67.08a16.2,16.2,0,0,1,.72-4.44c.6-1.92,1.44-3.24,2.52-3.84,5.88,32.28,10.32,55.56,13.08,69.72q7.74,40,14.76,70.2,16.38-29.7,32-69.12l25.56-69.36,1.08-.36A14.93,14.93,0,0,1,396.48,226.56Zm-12.36-71.28a5.69,5.69,0,0,1,.48,2.76c0,.72-8.4,8.76-25.32,24.24C339.48,200.4,327.72,211.2,324,214.8l19-.48,14-1.08,27.36.24,1.08,2,.24,2.88c0,2-.36,3.36-1.08,3.84l-4.32.36a116.08,116.08,0,0,0-24.36.36l-6.24.36L343,224l-27.6-.24-.72-1.32a8.06,8.06,0,0,1-.36-2.76c0-4.2,9.36-15,28-32.16,9.36-8.76,18.84-17,28.32-25l-46,.36-3.6.72-3.48.6-.84-1.92-.24-2.64a8.37,8.37,0,0,1,.36-2.88,3.55,3.55,0,0,1,1.32-2l7.56-.6v-.48l57.6.24ZM403.56,4a5.91,5.91,0,0,1,.84,2.64c0,1.44-2.28,12-6.72,31.68-4.92,21.84-7.8,35.52-8.76,41L384.24,115q-2.88,21.78-7.2,35.28-5.22-13.14-12.24-33.12L353,83.76C343.32,57,333.72,34.92,324,17.28c-1.32,6.84-4.68,29.28-10.32,67.08-4,27.24-8.28,49.56-12.72,67H299.4c-.36-3.24-.6-5.76-.6-7.32,0-3.12,3-23.4,8.88-60.84C313.32,47,317.76,20.52,320.76,3.48l.72-.36a2.49,2.49,0,0,1,1.2-.72q16.38,25.74,30.24,64.32l11.16,32.16c4.44,13,8.52,23.88,12.12,32.64v.24q7-43.56,10.8-66c4.56-26.28,9.36-47.76,14.4-64.68A12.92,12.92,0,0,1,403.56,4Zm78.84,34a13.59,13.59,0,0,1-1.92,3.24,21.55,21.55,0,0,1-5.4-5.52l-4.2-6.72c-3.6-5.64-8-9.36-13.2-11h-10.8q-18.9,14.22-27.36,89a994.9,994.9,0,0,0-5.64,110.16,145.89,145.89,0,0,1-1.2,17.4L410.52,252l-.36,4.8c20.28-.6,31.08-.72,32.4-.6,2,.12,3.24.72,3.6,1.68a26.59,26.59,0,0,1,.12,4.08c0,3.12-.36,5.28-1.2,6.48q-3.06,4.32-13.32,4.32l-22.08-1.2a69.5,69.5,0,0,0,2,15.84v71.4C409,387,407.4,403.2,407,407.52q-.72,11.16-.72,39.24l.12,21.12a325.35,325.35,0,0,0,3.36,40.2q8.82,56.52,36,56.52c12.84,0,21.48-5.88,26.16-17.76a70.34,70.34,0,0,0,3.36-14.16c.6-5.4,1-8.76,1.32-10.32a269.14,269.14,0,0,1,14-43.8A10.05,10.05,0,0,1,493.8,483l.12,4.08c0,1.32-1.2,6.6-3.48,15.6-2.88,11.4-6,22.08-9.36,31.92Q465.06,580,449,580q-31.86,0-40.68-28.44a90.71,90.71,0,0,1-3.36-21.6c0-7.92-.12-12.72-.36-14.28-2.52-19.08-3.72-41.64-3.72-67.8,0-17.16.36-32.16,1.2-44.76.48-8.64,1.92-25.2,4.2-49.68V292.56l.12-22.68a13.41,13.41,0,0,1-1.2-5.76,14.18,14.18,0,0,1,1.32-6l.36-43.32c.36-32.76,1.32-59.64,2.88-80.88q7-92.7,37.08-131.76,20.52-6.84,36.24,31.68A12.19,12.19,0,0,1,482.4,37.92Zm105.84,151.2q3.42,65.7,4.44,92.88c1.44,35.16,2.16,66.48,2.16,93.72a291,291,0,0,1-20.4,108.12q-23.4,58.86-72.24,107c-2.52-2-3.72-5.16-3.72-9.24a6.78,6.78,0,0,1,1.2-2.52l-.12-3.12,3.72-48.12c2.52-31.56,3.84-52.32,3.84-62.28v-110c0-20.28,1.08-55.2,3.24-105s3.24-82.32,3.24-97.8q0-11.7-4.92-68.76-4.86-57.24-4.8-72.12a16,16,0,0,1,.6-4.08,4.21,4.21,0,0,1,.72-1.68V5.88a4,4,0,0,1,3-3.48q44.46,41.58,63.24,93Q585.3,133.2,588.24,189.12ZM543,61.56c-3.72-4.92-9.6-11.64-17.4-20.28-7.08-7.8-11.88-13.44-14.4-16.8q4.68,24.66,6.6,67.92c1,21.6,1.32,41.76,1.2,60.36,0,19.56-.84,52.68-2.64,99.6s-2.76,93.72-2.76,140.88l-1.08,68.64c0,8-1,26.88-2.88,56.76-1.56,22.68-3,40.32-4.44,52.8l11.88-14.76,20-24,17.4-26a215.17,215.17,0,0,0,15.12-26.76c1.56-3.72,5.28-20.28,10.92-49.56,5.88-30.12,8.76-48.6,8.76-55.2,0-2.64-.72-7.2-2.16-13.8V316.68a37.25,37.25,0,0,0,1.08-9.12c0-4.2-1.2-25.44-3.6-64-2.52-40-4.44-68.4-5.88-85.08a180.08,180.08,0,0,0-7.08-36.84,248.83,248.83,0,0,0-13.92-37A135.76,135.76,0,0,0,543,61.56Z" transform="translate(0.19 1.08)"/></g></svg>