<svg id="Layer_1" data-name="Layer 1" xmlns="http://www.w3.org/2000/svg" viewBox="0 0 545.08 530.18"><defs><style>.cls-1{fill-rule:evenodd;}</style></defs><path class="cls-1" d="M334.8,482l20.52-63,9.6,53.76ZM107.88,401.76a119.23,119.23,0,0,0-4.68,34.68c.36,43.2,1.2,85.92,2.28,128.28a146.72,146.72,0,0,0,50.64-3l.48-.84a13.86,13.86,0,0,0-.48-12.12q-23.22,1.26-45,1.08l-.24-20.28q-1.26-64.8-2.16-128.28C108.12,401.4,107.88,401.52,107.88,401.76ZM55.8,394.68,53,394.2c-22,16-33,39.24-32.88,69.84a476.11,476.11,0,0,0,4,58.32,146.07,146.07,0,0,0,10.44,38.76,17.36,17.36,0,0,0,4.8,6.6,17.81,17.81,0,0,0,10.44,4.44A35.45,35.45,0,0,0,76.92,561.6c6.12-6.12,8.28-13.44,6.48-22.08l-4.92,4.08c-7.8,11.88-18.84,15.36-33.12,10.68q-9.36-3.06-11.52-14.4C32.16,531,30.84,522,30,513c-1.68-17.28-2.88-34.68-3.48-52.08-.84-22.68,8.16-40,26.88-52.08l3.72-2.16L73.2,418.56C74.52,405.48,68.76,397.44,55.8,394.68ZM73.44,283.56a81.55,81.55,0,0,1,.84,44.88,82.49,82.49,0,0,1-10.2,23.88l-13-23a13.88,13.88,0,0,0-5.28,1.44,10.32,10.32,0,0,0-3.12,2.4,5.86,5.86,0,0,0-1.32,3.72,9.13,9.13,0,0,0,.72,4.32l.6,1.2,8.16-2.16,7.32,19.44a42.54,42.54,0,0,1-19.8,10.92,8.38,8.38,0,0,1-9.12-2.4,55.67,55.67,0,0,1-13.92-26Q2.58,286.68,38.16,248.4q8.46-9.18,17.64-6.48A222.4,222.4,0,0,1,73.44,283.56Zm-12.72-52.8c-16.92-4.08-29.64,2.16-38,18.84a116.47,116.47,0,0,0-11.4,36.48,282.85,282.85,0,0,0-3,46.2,73.18,73.18,0,0,0,12.36,39.6c9.48,14.28,22.32,15,38.28,2.16l4.2-4,10,16,5.4.36a28.4,28.4,0,0,0,11.88-15.48,17.69,17.69,0,0,0,.6-8.28l-14,10.56-2.4.24L69,362.88q22.5-42.3,10.8-89.28a137.16,137.16,0,0,0-18.36-42.12Zm82.68,3a411.38,411.38,0,0,0,1.8,64c3.24,28.8-5,52.68-24.6,71.64a12,12,0,0,1-11.88.6A35.49,35.49,0,0,1,106,356.88q-1.26-65-2.88-128.28a143.55,143.55,0,0,0-4.8,43.92,382.31,382.31,0,0,1-1,46.92q-2.7,34.56,9.84,64.2a15.08,15.08,0,0,0,13.44.84l8.52-8.4a44.62,44.62,0,0,0,13.56-24.24,388,388,0,0,0,7.68-86.4C150,253.44,147.72,242.88,143.4,233.76ZM101.16,44.16a605.88,605.88,0,0,0-39.6,62.16c-5.88,10.56-11.64,21.24-17.28,31.92l-1.2,3.12L42.48,42a410,410,0,0,0-7.8,95.52c.6,20.28.72,40.44.36,60.72a60.4,60.4,0,0,0,2.88,19.56,212.22,212.22,0,0,0,5.16-61l25.08-42a422.66,422.66,0,0,0,20.76,81.24,175,175,0,0,0,12.84,27.6,1.85,1.85,0,0,0,.72.48Q98.34,190,83.4,151.08a337.48,337.48,0,0,1-13-40.44l22.2-37a37,37,0,0,0,8.88-25.8ZM280.92,67.92Q282.54,47,260.76,46q-47.34,14.76-57.48,63.6a499.8,499.8,0,0,0-10,87.72l-1.56,91.44-3.24.84-.36.84a10.4,10.4,0,0,0,.72,8l2.76-.48-.36,28.44q-.72,64.62-2,129A273.62,273.62,0,0,0,199,534.6a24.59,24.59,0,0,0,11.76,15.24q27.18,16,52.56-.36,40.86-26.28,31.68-71.4c-.72.36-1.08.6-1.2,1a98.28,98.28,0,0,1-8.16,26.88q-18.9,40.5-64.08,32.28c-10-1.8-15.84-7.68-17.4-17.64a726.52,726.52,0,0,1-8.76-128.76q.9-47.34.84-94.68c17.88-3.48,35.88-6.48,53.76-9.24l.48-.84a10.48,10.48,0,0,0-1-10.44,455.51,455.51,0,0,0-53.28,10.8l-.12-24.6a1126.1,1126.1,0,0,1,6.12-127.68q4.68-45,40.8-69.48c15-10.2,27.6-9.12,37.56,3.12Zm75.36,333.84A255.79,255.79,0,0,0,338.52,444c-4.32,13.68-8.16,27.48-11.4,41.28l-3.48,3.36,1.44,4a321.49,321.49,0,0,1-13.68,38.64A68.8,68.8,0,0,0,308,541.92a29.74,29.74,0,0,0,2.28,19.8l22-70.44L367,483.12c4,21.48,8.76,42.6,14.64,63.6a102.2,102.2,0,0,0,6.72,17.4,10.32,10.32,0,0,0,1.92-6.48,113.31,113.31,0,0,0-3.12-22.8L373.8,480.12l-.48-8.28-1.68-.72-15.12-65.28Zm12-328.68C361.2,55.92,347,49.44,325.8,53.88c-11.88,8.28-20,19.44-24.72,33.6a435.46,435.46,0,0,0-21.24,129q-.9,62.46-.36,125Q280,380.4,309,402.84c21.72,3.72,38.88-3.36,51.72-21.24q18.72-25.92,17.52-55.56a2.66,2.66,0,0,0-1.56,1.44A207.45,207.45,0,0,1,351.36,371c-13.56,17.88-30.36,21.36-50.28,10.2a13.81,13.81,0,0,1-1.68-2,47.37,47.37,0,0,1-5.4-14.52,558.57,558.57,0,0,1-10-109.2l.36-16.92,46,2a12.52,12.52,0,0,0,.72-9.72l-.72-1.68q-.36-.54-.72-.36a32.92,32.92,0,0,1-12.84-.72,89.55,89.55,0,0,0-32.16,1,822.91,822.91,0,0,1,9.6-99q5.76-36.9,31.2-62.16a125.29,125.29,0,0,1,21.36,1.44q13.14,2,20.88,11.52A8.22,8.22,0,0,0,368.28,73.08Zm180.24-2.4q-2.34,56.34-5.4,112.68-3.24,63.9-5,128.4-1.62,64.44,1.2,129,2.34,48.6,4.08,97c-8.28-37.56-15.72-75.24-22.08-113.28Q510.66,361.26,497.52,299,484,236.22,470,174A1058,1058,0,0,0,435.12,52.44L434,51.72l-.84-.6c-2,4.32-2.28,9.24-1,14.76a609,609,0,0,0-2.76,63.24q.54,64.62,4.8,129c2.76,42.48,4.08,85.2,3.72,128.28-.36,42.84-2.28,85.56-5.52,128.16a235.59,235.59,0,0,0,1,48c4.08-3.48,6.12-8.52,6.24-14.88.6-36.36,1.56-72.6,2.64-108.84,1.32-43.08.84-86.16-1.44-129-2.28-42.6-3.84-85.44-4.56-128.28q-1.08-54.36-1.8-108,18.54,59.76,31.92,120.6l26.88,125q13.5,62.28,23.88,125.16,10.08,61,23.64,121.44.72,2.7,3.24,2.16l.24-.48.12,1.56a2.32,2.32,0,0,0,2.16,2.16l.72-.6c1.56-42.72,1-85.68-1.56-128.88-2.52-42.84-3.24-85.56-2-128.4q1.62-64.8,4.92-129.12,3.42-65,4.68-128.16C550.44,59.88,548.88,64.8,548.52,70.68Z" transform="translate(-8.24 -42)"/></svg>