<svg id="Layer_1" data-name="Layer 1" xmlns="http://www.w3.org/2000/svg" viewBox="0 0 595.57 842.18"><defs><style>.cls-1{fill:#fff;}.cls-2{fill:none;stroke:#fff;stroke-linecap:round;stroke-linejoin:round;stroke-width:0.38px;}.cls-3{fill-rule:evenodd;}</style></defs><rect class="cls-1" x="0.31" y="0.31" width="595.08" height="841.68"/><rect class="cls-2" x="0.19" y="0.19" width="595.2" height="841.8"/><path class="cls-3" d="M357.12,504.36a3.65,3.65,0,0,0-1.92,2.4,108.8,108.8,0,0,0-4.44,27.6c-.6,16.92,6.84,26.52,22.56,29,10-8.16,16.32-18.84,19.08-31.92,2.4-11.28.6-19.8-5.28-25.56a79.86,79.86,0,0,1-7.92,35.76,6.1,6.1,0,0,1-4.56,3.84c-13.08,2.76-18.24-3.36-15.6-18.36C360.6,518.4,359.88,510.84,357.12,504.36ZM444.24,532l-27.6,5.4c3.72-14,12.6-21.36,26.4-22a34.84,34.84,0,0,1,9.36,1.68,13.3,13.3,0,0,0,1.2-6.48,10.55,10.55,0,0,0-1.2-4.32l-.84-1.44-15.36-3.48c-13.8,8.52-23,20.76-27.48,36.84-4.44,15.72-1.44,29.76,8.76,42a24.48,24.48,0,0,0,11.64,7.8c10.08-1.8,18-6.6,23.88-14.64a21.51,21.51,0,0,0,4.32-12.48c-13.56,10.2-25.92,12.36-37.32,6.36-2.88-1.56-4.56-4.2-5.16-8a51,51,0,0,1-.24-12.84l30.48-2.28a12.91,12.91,0,0,0,1.56-5.16,8.85,8.85,0,0,0-1.44-5.64ZM242.4,583.08a460.4,460.4,0,0,0-.48-84.36c-3.48,12.84-5.16,27.24-5.16,43,0,15.48,1.68,29.52,5.16,42.24Zm57.36-70.56c17.64-.84,27.12,8.4,28.44,27.84a22.68,22.68,0,0,1-1.08,9,41.21,41.21,0,0,0-23-3.72L298.2,552l1.08,8,5.64-3.24,16.56,2.4c-16,16.2-29.16,15.48-39.84-2.16-7.68-12.72-6.6-24.36,3.12-34.92A35.48,35.48,0,0,1,299.76,512.52Zm-28.2,16c-4.32,16.08-1.44,30.6,8.76,43.56q16.74,21.06,40.44,4.32a23.67,23.67,0,0,0,8.64-12.48q21.78,29.88,50.88,22.8a23.73,23.73,0,0,0,16.08-12.12c4.2-7.68,4.56-15.6,1.32-23.88a25.13,25.13,0,0,1-12.6,20.52c-11.64,7.08-23.64,5.64-35.76-4.44L333,552.6q5.94-29-14.64-51.12l-2.88-3.12-9.24.6-1.92,2.4C286.92,502.68,276,511.68,271.56,528.48ZM176.52,422c-1,33.24-2.4,66.6-4.32,99.84a378.81,378.81,0,0,0,1.44,64.2c13.56,1.44,26.88,3.36,40.08,5.64,4.2-5.64,4.2-11.16,0-16.8l-35.16-5.64q-.18-11,.36-22A1087.38,1087.38,0,0,0,179,419.16Q176.7,419.16,176.52,422ZM333.6,282.36a544.09,544.09,0,0,0,11.16,88.08,99.8,99.8,0,0,0-34.08,7c3.72-17.16,7.32-34.44,10.56-51.72a185.06,185.06,0,0,1,8.76-31.2A81.32,81.32,0,0,0,333.6,282.36Zm-268.68-170a58.65,58.65,0,0,1,44.4.48,79.59,79.59,0,0,1,34,25.8c.12-6.24-2-12.6-6.72-19.08Q119.82,95.58,90.48,95q-36.9-.9-53.88,35.64A273.64,273.64,0,0,0,11.76,230.4a1334.22,1334.22,0,0,0,.48,159.48q3.42,54,8.28,107.76a93.49,93.49,0,0,0,8.64,32,77.2,77.2,0,0,0,5,9.24,86.94,86.94,0,0,0,6,8.76c2.28,2.76,4.56,5.52,7.08,8.16a91.43,91.43,0,0,0,12.6,10.92,68.8,68.8,0,0,0,9.48,5.76,39.82,39.82,0,0,0,20.16,4.92A40.57,40.57,0,0,0,111,571a102.19,102.19,0,0,0,23.88-21,98.08,98.08,0,0,0,22.56-52.8l.84-8.76a224.8,224.8,0,0,0-16,27.72,76.57,76.57,0,0,1-33,35l-1.92,2.4a41.84,41.84,0,0,1-32,1.92c-14-4.68-24.24-13.44-30.48-26.28a191.45,191.45,0,0,1-16.8-53.88,1075.82,1075.82,0,0,1-12.6-208A411.16,411.16,0,0,1,33.12,161.88a103.34,103.34,0,0,1,20.4-37.56C57.12,120.12,61,116.16,64.92,112.32ZM98.88,7l-.36-1.32A425.74,425.74,0,0,1,43,54a12.89,12.89,0,0,0-3.84,4.2l.12-55.44a218,218,0,0,0-3.12,82.68l.24-.36L38,71.16,67.32,47.4l26.4,37.44C92.88,69,86.28,56,74,45.84L71.4,43.68,92.64,24.36C98.76,19.68,100.8,13.92,98.88,7Zm85.56,196.8a41.37,41.37,0,0,1-11.64,15.6l-.84-1.68-.72,3L158,228.84,158.52,92l15.12-2.16q21.42,30.6,22,69A137.07,137.07,0,0,1,184.44,203.76Zm11.52-7a181,181,0,0,0,4.56-46.08,193.31,193.31,0,0,0-7.32-46.2C188.28,87.12,177.36,78.6,160.68,79L157.2,83a167.09,167.09,0,0,0-2.64,26.76c-.84,40.56-1.68,81-2.28,121.32q-1.26,81.9-6,164.28a45.72,45.72,0,0,0,3,19.32,424.11,424.11,0,0,0,7.2-76q.18-47.88,1.2-95.76l13.44-7.2c7.44,32.76,16.44,65.28,27.12,97.32a514.71,514.71,0,0,1,17.52,70.32c1.56,8.76,4.92,15.6,9.84,20.28a262.82,262.82,0,0,0-11-63.6q-19.62-64.26-38.28-128.4a49.52,49.52,0,0,0,9.84-10.8,69,69,0,0,0,7-13.56A80.83,80.83,0,0,0,196,196.8ZM311.28,36.48c-2.76-18.36-13.44-27.72-32-27.84l-4,2.76q-35.1,23.22-41.4,65.88a813,813,0,0,0-8.4,129.24c.72,43.08,1.92,86.16,3.6,129,.84,21.12,1.44,42.24,1.8,63.24a193.15,193.15,0,0,0,18.24,79.56,76,76,0,0,1,9.72,7.68,28.84,28.84,0,0,0,12.72,6.6q31.86,7.38,49.68-19.92c8.88-13.56,11.16-27.12,6.72-40.56a210.84,210.84,0,0,1-18.36,30.6c-11,15.24-25.2,18.72-42.36,10.2a31,31,0,0,1-15.84-16.8,181.07,181.07,0,0,1-12.6-55.32C236,358,234.36,315,233.52,271.68l-.6-37c15.24-2.16,30.36-4.68,45.48-7.68l.36-.84a11.38,11.38,0,0,0-1.2-10.56,348,348,0,0,0-44.76,9.12c-.36-27.24-.36-54.36-.24-81.36a246.26,246.26,0,0,1,19.2-95c8.28-19.8,22.68-28.08,43.44-24.6A22,22,0,0,1,304.08,33c1.68,3.36,4.08,4.8,7.08,4.32Zm273.6,331.2-19.68,1.68-.48,9.72c7.56,3.48,14.76,3.12,21.84-1.08l-.24-9.72ZM588,347.76a11.34,11.34,0,0,0-.12-10.56l-.36-.36-16.08-3.24q-21.6,36.36-8.52,79c13.2,5.28,20.16,1.2,21-12.36l-17.64,2.4c-6.36-19.44-4.44-38,6-55.92ZM386,424.2c8,.12,16.2,0,24.36-.36a279.76,279.76,0,0,0-.24,79.44l.6-.6c2-26.76,3.36-53,3.84-79.08L435.12,422l.36-.72a10.7,10.7,0,0,0-1-10.56,149,149,0,0,0-48.12,4.56l-.48.84A10.94,10.94,0,0,0,386,424.2Zm-32.52-53.64A1066.58,1066.58,0,0,1,334.68,263c-1.08-.12-1.56.48-1.56,1.56v1.8a303,303,0,0,0-23,76.08A416.19,416.19,0,0,1,295,404.4a377.41,377.41,0,0,0-14.64,62.28,2.93,2.93,0,0,0,3.72,1.68,52.64,52.64,0,0,0,8.88-18.24q8.1-30.42,15.12-61l1,1.56a184.63,184.63,0,0,1,39-6q14.4,61.38,26.76,122.64c2,0,3-1.08,3-3.24a235.17,235.17,0,0,0-6.12-56.28c-4.44-20.16-9.24-40.2-14.16-60.24l-.72-3.12h.12l.6-.84c2.28-4.56,2-8.88-.84-13ZM430,171.72v-3.36a262.63,262.63,0,0,0-32,70.08c-1,3.24-2,6.48-3.36,9.72l.72-76.08A458.4,458.4,0,0,0,386,261.84c-.12,14.88-.84,29.64-2.16,44.4a52,52,0,0,0,1.8,20.16l2.28,7.2A672.22,672.22,0,0,1,403.8,248a428.62,428.62,0,0,0,12.36,80.16c1.32,5.28,2.88,6.84,4.92,4.68a522.57,522.57,0,0,0-11.88-81.6l-2.52-11.4,16.8-43.2A53.31,53.31,0,0,0,430,171.72Zm-68-159.6a24.57,24.57,0,0,0-15.6-1.8Q329,22.2,322.56,43.08a374.17,374.17,0,0,0-16.2,88.08c-2.52,38.28,1.32,75,11.76,110.4a22.26,22.26,0,0,0,7.2,11Q348,271.14,367,247.2q16.38-20.52,9.72-42.84l-1.32.72-1.08.84-1,.84-1.68,8a32.3,32.3,0,0,1-14.16,22.08c-16.68,11.64-28.08,8.4-34-9.6a247.26,247.26,0,0,1-12-78.12l.12-5.16a283.17,283.17,0,0,1,42.48-3l.36-.84c2.28-5.16,1.44-9-2.76-11.64a157.32,157.32,0,0,0-39.6,3.84,315.58,315.58,0,0,1,16.8-85.44c6-17.28,17.52-24.12,34.68-20.4a37.69,37.69,0,0,1,8,10.08,4.56,4.56,0,0,0,4.2,2.4c2.16-4,2.16-8,0-12.36A42.19,42.19,0,0,0,364.2,13Zm49.32.36c16.68,13.56,20.76,30,12,49.44a42.44,42.44,0,0,1-11.76,15.24l-10.56,2.4c-.36-24.84-.6-46.2-.48-63.84Zm-11.52-1.2-.12-3.72-.6.36a394.93,394.93,0,0,0-5,61.68c0,21.24-.48,42.48-1.32,64-.48,12.36,1.32,22.92,5.4,31.56a124.55,124.55,0,0,0,3.48-29.28L401,89.4l10.2-.36c13.56-11.16,20.88-25.56,22.08-43.44Q435.3,13,406.92,3a13.34,13.34,0,0,0-5.52,4.2A8.48,8.48,0,0,0,399.72,11.28Zm132.36,29c-1.32-21-13.08-32.88-35.28-35.4a55.78,55.78,0,0,0-16.44,8.28,21.87,21.87,0,0,0-8.28,10.68q-20.16,56.88-.36,115.44c10.56,31.32,20.76,62.76,30.72,94.56q18.9,60.48,31.92,122.52a680.39,680.39,0,0,1,14.4,123,196.24,196.24,0,0,1-11.52,72,13.5,13.5,0,0,1-6.72,7.56q-33.12,16.92-51.36-14.28a73.14,73.14,0,0,0,2.16-16.2c.12-7.2-2-11.76-6.48-13.8a7.93,7.93,0,0,0-1.8,4.08l-1.8,11.88q-5.4,34.56,26.64,53.76c6.48.36,13,.48,19.44.24,11.16-.48,18.84-5.64,23-15.6q19.62-46.62,16.92-99.36A811.32,811.32,0,0,0,540.6,344.16,1127.39,1127.39,0,0,0,507,221.76c-12-35.64-23.28-71.64-33.84-107.76a132.48,132.48,0,0,1-.84-73.32q3.42-12.78,16.56-16.56,27.9-8.1,43.08,17Z" transform="translate(0.19 0.19)"/></svg>