<svg id="Layer_1" data-name="Layer 1" xmlns="http://www.w3.org/2000/svg" viewBox="0 0 311.72 210.48"><defs><style>.cls-1{fill-rule:evenodd;}</style></defs><path class="cls-1" d="M288.12,208.8c13.68-2.64,25.68,1,36.12,10.8l1.8,1.8c-3.24-24.6-17.4-32-42.48-22.08a55.16,55.16,0,0,0-28.92,26,147.36,147.36,0,0,0-16.32,49A342.7,342.7,0,0,0,235,343.56a62.91,62.91,0,0,0,9.6,30.6,48.11,48.11,0,0,0,8.4,10.08c17.64,16.2,37.2,18,58.44,5.16,9.24-5.64,13.92-13.8,14.16-24.24a23.47,23.47,0,0,0-1.92-10.44c-14.76,20.52-33.6,27-56.52,19.68q-20-6.12-23-27.72a251.06,251.06,0,0,1-2-52.8l65-6.72a10,10,0,0,0,2.28-5.88,12.5,12.5,0,0,0-1.8-7.08l-.36-.36a175.15,175.15,0,0,0-64,8.4c3-29.64,16.2-52.92,39.36-69.6Zm-66.6-10.56Q192.9,244,168.72,292.68a121.66,121.66,0,0,1-8,13.8q-1.62,2.7-2.88,5c.6-39.72.72-79,.48-117.48a31.26,31.26,0,0,0-3.84,14.52c-2,42.84-3.24,85.92-3.36,129.12-.12,10.8-.72,21.6-1.8,32.28-1.2,12.12.12,22.68,3.84,31.8a9.35,9.35,0,0,0,2.16-5.64c.84-20.4,1.56-41,2-61.8l.72,1.2,27-55.2.12-.36A48.17,48.17,0,0,0,186,292.2c5.16,27.24,11,54.24,17.52,81.24,2.76,11.76,7,21.6,12.6,29.4,3.72-3.6,4.68-7.92,3.12-13A911.21,911.21,0,0,1,189.6,271c7.92-15.48,16.44-30.48,25.68-45.24,6.12-9.84,9.12-19.56,9-29A3,3,0,0,0,221.52,198.24Zm238.92,75.24-.6-1.92-1.2-2.28-.36-.36-1-76.56a106.39,106.39,0,0,0-6.72,37.32l-.72,38.64a107.82,107.82,0,0,0-28,6l-3.84,1.44-.84-56.28a321.09,321.09,0,0,0-8.4,83.64l2.64,96.72a1.2,1.2,0,0,0,.6,1.2c4.2-8.76,6.48-19.68,6.6-33,.24-16.8.24-33.6-.12-50.52l-.36-29.88,31.32-5.4a681.37,681.37,0,0,0,.6,109.56,34.12,34.12,0,0,0,2.76,10.8l5.76-121.68a7.5,7.5,0,0,0,1.92-5.4ZM417.72,194q-39.78,3.06-79.56,10a5,5,0,0,0-1.68,3,12.64,12.64,0,0,0,1,8.16c13.32.6,26.64.48,40.08-.24A457.08,457.08,0,0,0,372,289.56q.18,40.32-3,80.28c-1,12.12.72,22.68,4.92,31.68a126.74,126.74,0,0,0,4-34.92c-.6-32.28.24-64.44,2.28-96.48a404.45,404.45,0,0,0-.24-55.32,390.81,390.81,0,0,0,43.56-5,12.29,12.29,0,0,0,1.32-3.24,15.1,15.1,0,0,0-1.32-11.4l-1-.6Z" transform="translate(-148.85 -192.36)"/></svg>