<svg id="Layer_1" data-name="Layer 1" xmlns="http://www.w3.org/2000/svg" viewBox="0 0 482.49 530.55"><defs><style>.cls-1{fill-rule:evenodd;}</style></defs><path class="cls-1" d="M73.8,532.68q-3.42,16.74,2.52,29.52a45.56,45.56,0,0,0,3.84-14.52c1.56-14.88,3.48-29.64,6-44.4a420.06,420.06,0,0,0,6.12-58.68A208.81,208.81,0,0,0,79,498.84C77.76,510.24,76.08,521.52,73.8,532.68ZM11,446.76a225.89,225.89,0,0,0,4.08,43.92c2.52,13.92,5.76,27.72,9.6,41.4q3.78,13.5,8.28,26.64l1.92-4.08,2.16,4A293.78,293.78,0,0,0,49.68,493,182.68,182.68,0,0,0,63,544.56a68.39,68.39,0,0,0,9,15.6C70.8,542,65,524.4,54.6,507c-4-6.6-5.52-13.08-4.56-19.2a65,65,0,0,0-10,26,187,187,0,0,1-5.4,22.92c-.48,1.56-.84,3.24-1.2,5a519,519,0,0,1-13.2-60.6A177.88,177.88,0,0,0,11,446.76Zm277.92,30-5.16,8.16,7.08-6.6c13.08,12.12,16.08,26,9,42-5.52,12.24-15.36,19.2-29.4,21-15.72,1.8-27.6-3.6-35.4-16-8-12.84-6.72-24.6,4.08-35.4a56.76,56.76,0,0,1,34.68-16.68Zm4.92-11.4-3,.24c-13.92-6.84-27.84-6.12-41.76,1.92-14.4,8.28-23,20.4-26,36.6C220,521,224.88,534.36,237.72,544s26.76,12.36,42.12,8.4c15.72-4.08,25.92-14.28,30.72-30.6q7-23.58-5.76-45A35.42,35.42,0,0,0,293.88,465.36Zm-78.24-90.12a85.08,85.08,0,0,0-8.88,29.88,79.92,79.92,0,0,0,7,43.32c7.08,15.36,17.88,18.84,32.4,10.32q15.66-9.18,20.52-28.08a89.3,89.3,0,0,0,.72-42.12,25.47,25.47,0,0,0-4.44-9.48l-1.8,8-1.44,2.16,1.44-.24a107.9,107.9,0,0,1-1.56,37.8A44.9,44.9,0,0,1,246.48,450c-8.76,3.24-16,1.8-21.72-4.2-8.52-8.88-12-19.68-10.44-32.52ZM326,289.8c2.52-13.44-3.12-21.6-16.92-24.36l-2.88-.48q-28.44,42.66-22.2,97.8a155.44,155.44,0,0,1,.12,35,114.39,114.39,0,0,0,3.36,40.92,142.73,142.73,0,0,0,4.92,15.36,13.63,13.63,0,0,0,7.32,7.92,28.22,28.22,0,0,0,24.84-.24c14.28-6.72,20.4-17,18.6-30.84a4.53,4.53,0,0,0-1.68-2.88l-4.92,3c-4.8,16.44-14.88,22.08-30.24,17-7.8-2.4-12.24-7.68-13.32-16a104.11,104.11,0,0,1-1-20.16c.6-14.28.84-28.44.72-42.72a128.34,128.34,0,0,0,27.84-4.2,10.31,10.31,0,0,0,.6-9.36l-1.44-2.76a76.8,76.8,0,0,0-27.12,7.92q-7.92-45.18,13.32-84L320.28,282ZM202.32,39.12a488.8,488.8,0,0,0-8.4,97.32q.72,61.74,1.08,123.48l-.24-.12c-26.28,4.2-52.2,9.12-77.76,15,.36-16.68.36-33.24.12-49.92-.6-43.2-.24-86.28,1.32-129.12a628.36,628.36,0,0,0-1.08-64.08c-.84-.12-1.32.12-1.44,1a607.43,607.43,0,0,0-5.4,78.6c-.12,42.6,0,85.44.6,128.28.6,43.32-.72,86.4-4.2,129q-5.22,64.26-6.12,129.12a178.11,178.11,0,0,1-1.92,24c-2,12.6-.12,23.16,5.52,31.92l.72-.84a17.57,17.57,0,0,0,1-14.52c.72-18.6,1.2-37.32,1.56-56q.9-64.62,5.64-128.28c1.68-22.44,2.88-44.76,3.48-67.2l3.36.72Q157.74,282,195,275.64c-.12,39.6-2,79-5.52,118.08q-5.58,64.26-9.72,129-1.08,18.36,5.76,31.68a5.06,5.06,0,0,0,2-4.08c.72-20.28,1.92-40.44,3.6-60.72q5.4-63.9,8.16-128.4,2.7-64.08,2-129-.54-64.62,1.2-129.12.9-33.12.36-64.08ZM295.08,69q25,59.58,14.76,124.68a75.63,75.63,0,0,1-23.76,44.64c-14.76,13.56-28.92,13.92-42.48.84a29.54,29.54,0,0,1-8.88-16.8A349.49,349.49,0,0,1,236.88,95q6.66-34,39.84-38.52c7-.84,12.24,1.68,15.72,7.44A33.88,33.88,0,0,1,295.08,69ZM276,43.56q-36.9,7.38-44,46.2c-2.16,12-4.08,24.12-5.64,36.36a580.7,580.7,0,0,0-4.8,63.6q-.9,34.56,18.24,61.44a16.22,16.22,0,0,0,6.72,5.76q30.78,14.58,49.44-14Q318.6,208,318.48,165.12c-.12-21.36-.84-42.48-2.28-63.48q-2.52-34.56-27.84-55.32l-2.28-.84A21.94,21.94,0,0,0,276,43.56ZM443.76,209.64c2.4-17.64,12.84-27.36,31.32-29.28a23.07,23.07,0,0,1,13.8,2.88c0-13.08-6.48-17.64-19.56-13.44q-31.14,9.9-34.44,46c-1.56,19,4.56,33.24,18.6,43a24.44,24.44,0,0,0,21.48,3.6c13.68-4,19.8-12.12,18.36-24.24-8.28,7.68-18.36,11.4-30.48,11.28-11.4-.12-18.24-7.08-20.52-20.76a51.72,51.72,0,0,1-.48-13l.6,2.52a53.79,53.79,0,0,0,28.92.24,7.89,7.89,0,0,0,1.44-5.64l-.6-2.28-1.08-2.4-24.12.48ZM441.84,50a112.8,112.8,0,0,0-9.72,36.6c-4.2,42.6-8.76,85.08-13.44,127.44q-7,61.2-13.32,122.28c-1.08-6.36-2.4-12.84-4.08-19.2a1026.68,1026.68,0,0,1-24.36-124.44l-1.32,11.16.24-12.84c-1.08-.12-1.68.48-2,1.56a399,399,0,0,0-10,51c-4.68,36.84-8.76,73.44-12,109.92L341.16,236.76c-3.72-42.6-6.48-85.32-8-128.28A249.79,249.79,0,0,0,322.8,45.24c.36,12.6,1.32,26.4,2.64,41.4q4.14,47.52,7.2,95.64,4,64.08,8.88,128.28c.84,10.92,1.32,21.72,1.44,32.52.12,11.88,2.52,22.2,7.2,30.84a12.15,12.15,0,0,0,2.28-4.68c1.32-.6,2.16-2.16,2.52-4.56q9.54-62.82,17.88-126.36c1.08-8.76,1.92-17.28,2.4-25.68a176.27,176.27,0,0,0,3.12,35.88Q390.24,311,403.92,373.08c.84,1.8,2.16,2.52,3.84,2.16l.12-5.4.72,1.68a208.07,208.07,0,0,0,5.28-34.8q4.14-63.9,10.44-127.44l6.24-64.44a546,546,0,0,1,9.6-62.76A94.25,94.25,0,0,0,441.84,50Z" transform="translate(-11.03 -31.65)"/></svg>