<svg id="Layer_1" data-name="Layer 1" xmlns="http://www.w3.org/2000/svg" viewBox="0 0 302.89 209.16"><defs><style>.cls-1{fill-rule:evenodd;}</style></defs><path class="cls-1" d="M340.08,218.16l-9.24,14.52.24,4.68c17-10.2,19.08-24.36,6-42.24-3.48,6.72-3.12,13.44,1.08,20ZM160.8,196.32a52.43,52.43,0,0,0-4.92,21c-1,42.84-2.16,85.92-3.72,129a228,228,0,0,1-2,24.12c-1.8,12.6-.24,23.16,4.44,31.68q4.86-38.16,6.12-77.88l.6-18.24a484.94,484.94,0,0,0,56.28-2.28c-1.08,11.88-2.4,23.64-4.2,35.4a187.61,187.61,0,0,0,1,64.08,291.3,291.3,0,0,0,6.6-49.2c1.8-32,3.84-64,6.36-95.76a265.29,265.29,0,0,0-2.76-64.2c-2.4,26-4.2,53.16-5.28,81.12l-.48,13a519,519,0,0,0-57.24,6q1.08-49.68,0-98.16Zm141.84,1.44q-1.44,36.54-2.16,74.52-1.44,64.08.36,128.16c.6,2,1.68,2.52,3.48,1.68a26.45,26.45,0,0,0,2.16-11.4q-1.08-64.8,1.32-129a282.75,282.75,0,0,0-4.56-64.2C302.88,197.4,302.64,197.4,302.64,197.76Zm74.52-.24L376,199.2l-.12-.6c-2,1.2-2.88,3.24-2.64,6.24a31.6,31.6,0,0,0-1.68,6.24Q360.9,273.9,351.6,337.2a228.15,228.15,0,0,1-7,31.08q-5.58,17.82,1.08,31.32a144,144,0,0,0,11.52-44.52,753,753,0,0,1,15.24-93.84c1.8-8.28,3.24-16.56,4.2-24.84q5.58,47.52,14,94.44l.12.6-.12,3c.6,2,1.68,2.52,3.48,1.56l1.2-6.12a9.35,9.35,0,0,0,.72-3.72,738.31,738.31,0,0,1,21.6-84.84,120.42,120.42,0,0,0,5.4-25.08q4.32,54.18,12.72,108.24,3.78,23.58,5.4,47.16c.84,12,4.08,22.2,9.48,30.72a2.55,2.55,0,0,0,1.56-2.4,724.16,724.16,0,0,0-7.08-74.88q-9.36-62.82-21.48-124l-.24-6.24a14.34,14.34,0,0,0-5.88,9.36,268.78,268.78,0,0,1-9.6,37.2,326.77,326.77,0,0,0-14.76,63.48c-4.56-32-9.72-64-15.48-95.52Z" transform="translate(-149.39 -194.04)"/></svg>