<svg id="Layer_1" data-name="Layer 1" xmlns="http://www.w3.org/2000/svg" viewBox="0 0 456.83 347.64"><defs><style>.cls-1{fill-rule:evenodd;}</style></defs><path class="cls-1" d="M72.48,117.72Q68.52,174.6,68,233q-.36,48.6,1.68,96.48A699.41,699.41,0,0,1,67.08,426q-1.62,17.82,4.32,32.4a333.48,333.48,0,0,0,5.76-82.56c-1.08-21.72-1.68-43.32-1.8-64.92V271.44q45.36,1.62,92.16,1.44l-1.08,29.4q-2.52,63.54-1.92,127.44l-.6-1a8.23,8.23,0,0,0-3.24-4.8l.12.72a55.11,55.11,0,0,1,3.36,11.52c-2.76,7.68-1.68,13.56,3.24,17.52a334.58,334.58,0,0,0,5.4-68.16q-1.26-56.52-.36-112.68l2.28-.12a9.16,9.16,0,0,0,2.52-6.48v-.84l-.24-4.08a5.07,5.07,0,0,0-2.76-4H172.8v-.84q1.44-64.44,1.44-127.44l-.6-.72-1.32-1a326.33,326.33,0,0,0-3,45.72q-.18,42.3-1.32,84.24l-39.24.84-27-1.2-5.52,1.44-4.32.6A92,92,0,0,0,75.36,261c.12-26.28.6-52.68,1.2-79.2a414.85,414.85,0,0,0-3.48-64.08Zm222,33a2.26,2.26,0,0,0,1,.24q2.7-.54,6.84,5.4A125.41,125.41,0,0,1,325,214.08a331,331,0,0,1-7.68,128,241.7,241.7,0,0,1-24.6,60.48q-21.6,37.62-65.88,31.92a9.52,9.52,0,0,1-7.44-4.44q-19.62-30.24-19.56-67.2a1143.2,1143.2,0,0,1,7.2-128.4,157,157,0,0,1,16.68-54.6c12.6-24.12,32.28-37.2,58.8-39.12l2.64,1.2,8.64,4.44.6.48v.84L294,149.4A1.64,1.64,0,0,0,294.48,150.72Zm-6.12-20.16c-5.4-3.72-11.76-4.68-18.84-3.12q-34,11.34-51.12,43.2a141.08,141.08,0,0,0-15.12,45.12c-3.36,20.64-5.88,41.52-7.68,62.52a558.28,558.28,0,0,0,3.48,127.44,89.72,89.72,0,0,0,10.08,30.36q13.32,24.12,43.56,15.72,24.48-6.84,37.8-27.72a263.44,263.44,0,0,0,37-94.92,478,478,0,0,0,7.68-95.64c-.72-38.76-13.2-72.24-37.56-100.68l-2,1.68-.36.48a10.5,10.5,0,0,1-3.84-2.64l-.84-.84A5.71,5.71,0,0,1,288.36,130.56Zm134,174.36c-5.4,1.68-8.88,5.4-10.44,11q-15.3,61.74-28.08,122.4l-.36-1.68a780.37,780.37,0,0,0-17.76-83.52,1.61,1.61,0,0,0-.72.84q-9.54,33.48-16.56,67.8A670.74,670.74,0,0,1,345.84,338c.36-10.56-1.68-19.2-6-25.8-1.08,18.36-1.44,37-1,56l1.2,56.76c.12,11.88,2.4,21.84,7.08,29.76l.84-1.68c6.84-24.36,12.6-48.84,17.52-73.56,2.16,13.32,4,26.64,5.52,40q2.52,22.14,13.68,38.88a231.49,231.49,0,0,0,15.48-51.84,358.37,358.37,0,0,1,12.72-51.48,142.34,142.34,0,0,0,7.32-46.92l.6-.6A3.63,3.63,0,0,0,422.4,304.92ZM522.48,129l.36-.72.36-1.68.24-.84V125l.12-.84-.12-2.4a11.84,11.84,0,0,0-1.56-4.92l-76.2-3V122l2,.84a535.24,535.24,0,0,0-3.48,70.68,1713,1713,0,0,1-10.56,220.56,238.62,238.62,0,0,0-1.44,32c.12,6.6,1.08,11.64,3,15.36a474.92,474.92,0,0,0,7.32-54q6.12-79.56,6.72-159.6a101.88,101.88,0,0,1,43.56-6.72,104.83,104.83,0,0,1,15,2,12.84,12.84,0,0,0,1.56-3.72l.24-1.32.12-1.32v-1.32l-.48-2.88-.48-1.56-.6-1.68-.36-.84a100.84,100.84,0,0,0-41.52,0,61.35,61.35,0,0,0-16.92,5.76l.36-110.88a206,206,0,0,0,62.16,7.68l9.24-.48ZM413.16,146.64a217.49,217.49,0,0,1,10.32,70.92,142.3,142.3,0,0,1-7.32,42,58.4,58.4,0,0,1-13.92,22.68c-10.56,10.68-23.4,15.84-38.64,15.48q-13-17.1-13.68-41a278,278,0,0,1,3-50.88,96.53,96.53,0,0,1,14.4-37.92,73.82,73.82,0,0,1,23.52-23.28l1.56.12,3.12-2.64,12.72,1.08Zm-5.64-21.84L404,125c-24.12,8-40.44,25.08-48.72,51.36q-19.8,62.64-1.8,126.24a9.27,9.27,0,0,0,5.64,6.6q25.38,10.62,44.64-10.44a70.2,70.2,0,0,0,14.52-23.52,209.5,209.5,0,0,0,12.6-88.68,142.46,142.46,0,0,0-18-60.72l-4.56-.84Z" transform="translate(-66.73 -113.88)"/></svg>