<svg id="Layer_1" data-name="Layer 1" xmlns="http://www.w3.org/2000/svg" viewBox="0 0 580.15 521.09"><defs><style>.cls-1{fill-rule:evenodd;}</style></defs><path class="cls-1" d="M326.28,529.8a281.61,281.61,0,0,0,29.28,15.12c13.68,3.48,25.8,1.2,36.48-6.6a22.33,22.33,0,0,0,9.36-16.2c2.16-22.2-8-38-30.72-47.28l-1,.24-2,1.08-9.36-.24a22.35,22.35,0,0,0-10.56,1.8Q312.12,494.28,326.28,529.8Zm5.28-10c-3.48-16.92,4.56-27.36,24.12-31.2,15.48-2.88,28,2.52,37.2,16.08a48.58,48.58,0,0,1,5.4,10.2Q377.94,544.8,344,526.32Zm1.8-189.72c-.84,14.64-1.32,29.76-1.32,45.48a232.92,232.92,0,0,1-11.88,75.24,20.2,20.2,0,0,1-14.4,13.68c-5.88,1.68-9.6-.36-11-6.12a170.87,170.87,0,0,1-3.12-69.48,351.88,351.88,0,0,0,4.08-64,605,605,0,0,0-11.16,83L282,442.8c-1.68,20.16,6.36,32.88,24.24,38.28a34.46,34.46,0,0,0,18.84-22.2,343,343,0,0,0,12-127.08C336.48,329.76,335.16,329.28,333.36,330.12Zm-2.52-90.6a20,20,0,0,0-4.68-10.8,31.87,31.87,0,0,0-19.92-11.4l-4.68,2.4a297.81,297.81,0,0,0-11.76,84.72,39.14,39.14,0,0,0,1.8,11.4l6.84-42.72,13.92,1.56a89.87,89.87,0,0,0,12.36,28.8c3.6,5.4,7.32,9.24,11.16,11.28a100,100,0,0,0-15.12-36.48l-2.88-4.68c7.56-5.76,11.88-13.68,13-23.64A50.6,50.6,0,0,0,330.84,239.52Zm-15.36-10.08,8.4,4.08,2.16,3.84c1.56,10.2-1.32,18.6-8.64,25.08l-17.76-.24,2.4-35.4,11.76,1.08Zm-262.8-16.2c-3,27.24-7.2,54.48-12.6,81.48C35.16,276.12,30,258,24.84,240.6c-2.52,14.28-5.52,28.68-8.88,43L10.8,229.92q-.9-11.16-5.4-16.2a56.46,56.46,0,0,0-.72,18c2.16,17.16,3.48,34.44,4.08,51.84C9,292.92,11.4,300.36,16,306a148.18,148.18,0,0,0,10-40.32c2.52,17.52,7.68,33.24,15.72,47.16l.6-1A280.32,280.32,0,0,0,53.52,213C53,213.12,52.8,213.12,52.68,213.24ZM152.88,37.92a495.78,495.78,0,0,0-6,78.12q0,48.42-2.52,96.72c-1.08,19.44-1.8,38.88-2.16,58.2l-9.12-.36-55.44,3.12.6-73.2c.12-10.8.84-21.6,1.92-32.28a553.87,553.87,0,0,0-.6-127.68c-.6.12-.84.24-.84.36C78.6,68.64,77.64,96.84,76,125.28q-3.78,63.9-3.12,128.28c.36,43.08-.24,86.16-2,129.12S65.4,468.24,60,510.6c-1.32,9.84.24,17.64,4.68,23.52a3.71,3.71,0,0,0,1.32-2.4Q70.14,495,73,457.8q4.86-63.72,4.68-128.16V283a250.74,250.74,0,0,0,64.32.6c-.24,19.32-.24,38.76.12,58.2a1231.55,1231.55,0,0,1-4.8,128.16,301.16,301.16,0,0,0,.72,64.2l3.24-1.08c1.8-14.64,3.24-29.52,4.08-44.52,2.52-42.84,3.36-85.8,2.76-129.12-.6-43.08,0-86,1.92-129.12,1.8-42.6,3.36-85.44,4.56-128.28A591.44,591.44,0,0,0,152.88,37.92Zm87.36,112.92a511.91,511.91,0,0,1,31,123.84,666.15,666.15,0,0,1,3,128.52q-4.86,66.6-46.44,117a11.08,11.08,0,0,1-9.12,4.44c-16.92,0-27.84-9-32.52-27.12a609.19,609.19,0,0,1-19.2-126,934.7,934.7,0,0,1,3-128.4,291.83,291.83,0,0,0,1.44-32.28C171,174.48,185,146,213.24,125.52c6.6-1.8,11.88-.12,15.6,4.8A78.07,78.07,0,0,1,240.24,150.84Zm-15.72-36.36-11.28-1.32q-29,14.4-37.56,46.32a401.24,401.24,0,0,0-12.36,73.92,1171.8,1171.8,0,0,0-2.4,128.4A784.2,784.2,0,0,0,175.8,488.28a101.94,101.94,0,0,0,19.92,43.56c10.32,13.08,21.12,14.16,32.52,3.24a135.21,135.21,0,0,0,36.24-59.88,413.39,413.39,0,0,0,16.8-126.12,793.64,793.64,0,0,0-12.84-127.44,374.5,374.5,0,0,0-37.44-108,9.13,9.13,0,0,0-3.6,1.2l-1.2.12Zm7.32-64.08c-8.4-21-21-23-37.8-6.36C181.92,55.92,178.2,70.2,182.76,86.76c5,18.24,16.8,25.08,35.4,20.64,13-3.24,22-10.92,27-23.28A90.49,90.49,0,0,1,200,92.64c-6.24-.84-11.16-4.08-14.76-9.84l.84-4.92c13.68,3.24,27.36,2.16,41.16-3.24l-1.44-7.56a108.54,108.54,0,0,0-38.4-.72c8.28-22.2,22.68-27,43.32-14.64Zm96.36,21c4-11.4,4.32-22.2.84-32.16a36.7,36.7,0,0,0-6.72,17L304.08,182.16a128.62,128.62,0,0,1-4.56-30.84c-.12-8.28-2.28-14-6.48-17.16l-.36.84a367.71,367.71,0,0,1-11.52,53.64c-1.08-8.52-1.8-16.92-2.28-25.32a861.21,861.21,0,0,0-15.6-126.48c-2.88,7.08-3.72,15.24-2.4,24.36a1157.52,1157.52,0,0,1,12,127.2c.36,9.84,3.24,17.16,8.76,21.84a185.27,185.27,0,0,0,12.48-41.88l.24.72a375.37,375.37,0,0,1,7.32,38.16,3.32,3.32,0,0,0,2.4,2.16,2.33,2.33,0,0,0,1.2-1.44c8-39.84,14.4-80,19.32-120.72A69.13,69.13,0,0,1,328.2,71.4ZM405,412.2c-6.12,16-12,32.16-17.88,48.36a361.93,361.93,0,0,1-22.92-43.08c-4.08,3.24-6.72,7.92-7.92,13.8a93.35,93.35,0,0,1-4.2,14.28c-4.56,11.52-4.8,21.36-.6,29.52l.36-.72,12.36-42.24a101.48,101.48,0,0,0,24.36,42.48A164.35,164.35,0,0,0,402,444.24a73,73,0,0,0,3.36-32.16Zm-27.6-68.76c.12-17.88-6.72-20.76-20.64-8.76-5.52,4.92-6.24,10.44-2.16,16.68a261.56,261.56,0,0,1,14.88,25.8c3.48,6.6,2.88,13.08-1.8,19.2-5.76,2.76-11.28,2.4-16.44-1.08l-1.8-9.12c-5.28,4.92-6,11.76-2.28,20.52,25.56,6.36,34.32-4.68,26.52-33.12a47.7,47.7,0,0,0-18.12-26.16c1.92-8.52,7-11.64,15.12-9.12l3.48,1.32ZM358.8,202.92l-.6-1.56-31.08-2.16a575,575,0,0,0,5.4-81.24,140.84,140.84,0,0,0-10.44,51.6l-.24,22.2A157.57,157.57,0,0,0,323,213l35,.48A12.49,12.49,0,0,0,358.8,202.92ZM509.28,60a109.27,109.27,0,0,1,32.88,47.16A536.9,536.9,0,0,1,571.68,235.8a902.41,902.41,0,0,1,4.2,127.56,609.73,609.73,0,0,1-5.76,62.76,189.47,189.47,0,0,1-30.36,79.32,85.77,85.77,0,0,1-18.48,17c-11.64,7.8-23.52,11.76-35.76,12,1.8-34.92,2-70,.48-105.36-1.8-43.08-3.36-86.16-4.44-129q-1.62-64.8-3.72-129.12-2-60.3-2.16-119l21.6,1.32A34.79,34.79,0,0,1,509.28,60Zm-58.92,4.32c2.52-8.28.12-14.64-7.44-18.84-12.84-.6-20.52,5.16-23,17.4a562.14,562.14,0,0,0-12.12,129q1.44,64.44-2.52,128.88c-1.8,30.24,4.08,57.84,17.88,82.92l7.44,1.2a14.54,14.54,0,0,0,7.2-.6c19.8-7.44,28.44-21.12,25.68-41.16-5.64,15.72-16.44,24.48-32.16,26.16a4.3,4.3,0,0,1-3.72-1.2c-8.4-10-12.84-22-13.2-36-.84-37.56-1.56-75.12-2-112.92l-.12-14.88a98,98,0,0,0,33.48.36l.6-1a10.38,10.38,0,0,0-1-11.28,297.89,297.89,0,0,0-33.12,3q.18-52.38,3.24-104.4c.6-10,1.32-19.8,2.4-29.52,1.56-15.84,9.84-24,24.84-24.6l.48.48A30.43,30.43,0,0,1,447,61.44l.24,1.56c.12,1.92,1,2.64,2.76,2.16Zm91.32,21.24c-13.56-33.24-38.64-49-75.24-46.92a2.66,2.66,0,0,0-1.8,1.92,11.85,11.85,0,0,0-.72,6.48,10.89,10.89,0,0,0,1.2,4l.84,1,2.64.12,4.2-.12a231.56,231.56,0,0,0-3.72,47.64q1.62,64.62,2.4,129c.36,43.32,1.8,86.28,4.08,129.12s4.08,85.92,5.28,129a138.46,138.46,0,0,1-3,32.16,60.2,60.2,0,0,0-1.2,15.12l-4.44-.72a8.77,8.77,0,0,0-3.24,5.64c-1.2,8.16,2.28,13,10.32,14.4A54.14,54.14,0,0,0,506,550.8q25.92-9,40.8-32.88A216.69,216.69,0,0,0,577.32,434a664.19,664.19,0,0,0,6.36-128.52A937.81,937.81,0,0,0,568.92,178.2,471.48,471.48,0,0,0,541.68,85.56Z" transform="translate(-4.27 -32.91)"/></svg>