<svg id="Layer_1" data-name="Layer 1" xmlns="http://www.w3.org/2000/svg" viewBox="0 0 595.57 842.18"><defs><style>.cls-1{fill:#fff;}.cls-2{fill:none;stroke:#fff;stroke-linecap:round;stroke-linejoin:round;stroke-width:0.38px;}.cls-3{fill-rule:evenodd;}</style></defs><rect class="cls-1" x="0.31" y="0.31" width="595.08" height="841.68"/><rect class="cls-2" x="0.19" y="0.19" width="595.2" height="841.8"/><path class="cls-3" d="M160.32,319.8q-1.8,41.4-7.32,81.84c0,.36-.36.72-1,1A287.2,287.2,0,0,1,151,338.28c1.92-21.24,3-42.6,3.12-63.84a609.71,609.71,0,0,1,6.36-82.8c1.32,33.6,1.68,67.56.84,101.88,14.64-3.24,29.4-6.24,44.4-9.12l3.6.6,1.2.48c.72-23.16,1.2-46.32,1.32-69.48.12-8.52,2-15.48,6-21.12q-.54,63.18-2.52,128.16a746.44,746.44,0,0,1-6.48,77,1.69,1.69,0,0,1-1,1.44c-3.6-9.72-4.44-20.52-2.64-32.52,1.2-7.8,2-15.84,2.52-24,.84-15.48,1.68-30.84,2.28-46.32a146.6,146.6,0,0,1-49,3ZM295,194.88A304.41,304.41,0,0,1,299.52,259q-2.16,64.8-3.84,129a28.22,28.22,0,0,1-3.24,12.24c-1.32,1.56-2.64,1.56-4.08.24l4.32-128.16a574.81,574.81,0,0,0-1.68-69C290.64,199.2,292,196.44,295,194.88Zm105.48,4.32q36.9-2.7,49.44,27.48a2.79,2.79,0,0,1-.48,3.12l-1.32-.36a44.68,44.68,0,0,0-5.88-4.8,13,13,0,0,1-3.84-3.84c-19.08-10.92-36.84-10.32-53.52,2a30.39,30.39,0,0,0-9.6,12.48,264.54,264.54,0,0,0-21.72,86.52c-1.56,19.32,2.64,36.6,12.6,52.08C373.08,384.6,382.68,389,395,387q36.18-6.12,49.32-35.28l1-5.64A64.62,64.62,0,0,0,414,347.4c-2-3-2-6,.24-8.88,10.44-6.24,22.32-8.28,35.4-6.24A262.63,262.63,0,0,1,446,402l-.72.84c-4.08-6.72-5.52-14.4-4.2-23.16a76.57,76.57,0,0,1-37,22.92,42.12,42.12,0,0,1-16,1.56q-19.44-1.8-29.16-19.8a96.72,96.72,0,0,1-11.76-46.44,280.79,280.79,0,0,1,19.8-106.08A63,63,0,0,1,385,206.64,33.21,33.21,0,0,1,400.44,199.2Z" transform="translate(0.19 0.19)"/></svg>