<svg id="Layer_1" data-name="Layer 1" xmlns="http://www.w3.org/2000/svg" viewBox="0 0 307.15 214.32"><defs><style>.cls-1{fill-rule:evenodd;}</style></defs><path class="cls-1" d="M157.56,302.28l51.6-1.92L208.8,309c-1,21.48-2.76,42.84-5.52,64-1.44,11.88-.24,22.68,3.48,32.4a75.46,75.46,0,0,0,5.64-29q.54-43.56,5.16-86.64A571.2,571.2,0,0,0,220,193.8C215.28,224,212,255,210,286.68l-3.24-.36a175.48,175.48,0,0,0-49,5.88c.84-34.2,1.44-67.92,1.56-101.16a191.13,191.13,0,0,0-6.6,48.72q-.9,64.26-5.52,128.16c-1,12.12.6,22.68,4.8,31.68q3.78-39.42,5-80.4Zm145.56-94.2-2.64,129a621.85,621.85,0,0,0,2,64.2,2,2,0,0,0,2.28-1.92,743.76,743.76,0,0,0,4.2-75.48c.36-43.08,0-85.92-1.08-128.28C304.8,198.48,303.24,202.68,303.12,208.08ZM373.68,196c-2.76,3.72-4.2,8.64-4.08,14.52q2,64.44.24,129.12c-.36,10.8-1.2,21.48-2.52,32.16-1.56,12.24,0,22.92,4.44,31.92a52,52,0,0,0,3.6-20.28c-.12-19.8.48-39.48,1.56-59.16l1-25.44a142.28,142.28,0,0,0,41.52-1.44l.72-.84a12.54,12.54,0,0,0-.72-13.8L378.12,287A787.69,787.69,0,0,0,374.88,208q38.7,2.52,77.28,2.28a12.06,12.06,0,0,0,1.56-9.72l-.48-1.68-.6-1.56a.91.91,0,0,0-.84-.48c-7.32-1.2-14.76-2-22.08-2.52-18.6,1-37.2,2.52-55.8,4.56Z" transform="translate(-146.97 -191.04)"/></svg>