<svg id="Layer_1" data-name="Layer 1" xmlns="http://www.w3.org/2000/svg" viewBox="0 0 428.98 375.48"><defs><style>.cls-1{fill-rule:evenodd;}</style></defs><path class="cls-1" d="M251.16,212.76c-2.76,42.72-5,85.44-7.08,128.16a633.08,633.08,0,0,1-5.76,64c-1.68,11.88-.36,22.68,4.08,32.4a2.67,2.67,0,0,0,1.08-1.56c4-29.64,6.6-59.64,7.68-90q2.34-64.08,6.24-128.16a749.92,749.92,0,0,0-2.76-128.28c-2.76,8.76-3.72,18.6-3.12,29.28A770.93,770.93,0,0,1,251.16,212.76ZM182.64,85.32c-2,15-3.48,30.12-4.2,45.36q-2.52,59.94-3.12,120l-21.72-2-53.28,2.16c1.92-42.12,3.24-84.24,4.08-126.6a206.79,206.79,0,0,0-4.32-47.88c-3.6,3.12-5.28,7.68-5,13.8q2.16,64.26.12,128.16L91,347.4c-.72,21.72-2.4,43.32-5.16,64.68-1.56,12.12-.48,22.92,3,32.52A2.67,2.67,0,0,0,89.88,443a317.08,317.08,0,0,0,6.72-61.56q.54-59.22,3.24-118.32c25.32,2,50.4,3,75.24,3.12-.36,41-2.16,81.84-5.16,122.4a175,175,0,0,0,2.64,48c.84-.36,1.32-.72,1.44-1.32a153,153,0,0,0,5.64-45.24c-.24-16-.24-31.92,0-47.76.72-43.32,2-86.28,4-129.12,2-43.08,1.92-85.92-.24-128.28Q182.64,85.14,182.64,85.32Zm177.72,2.4L358.8,88a23.22,23.22,0,0,0-11,4.08c-25.08,17.28-41.88,40.8-50.16,70.68A481.15,481.15,0,0,0,280,291.12c-.12,16-.36,32-.72,48-.6,27.24,6.12,52,20.16,74.4a10.52,10.52,0,0,0,5,4.44q40.14,16.38,77.52-8.64c8.52-5.64,14.52-12.12,17.88-19.32a164.27,164.27,0,0,0-.24,49.08h.72a340.52,340.52,0,0,0,7.2-113.52l-31.68,5.88-.6,1a12.57,12.57,0,0,0,0,8.88,64.21,64.21,0,0,0,28.68-1.08c-.12,9.72-.6,19.32-1.44,28.92l-1.56-6.24-2,.48-1.44.6c-3.24,14.52-11.76,25.2-25.8,32.28a157.34,157.34,0,0,1-25.32,10.2q-34.38,10.62-48.6-18.24a102.66,102.66,0,0,1-10.56-41.52,775.45,775.45,0,0,1,4.44-126,249,249,0,0,1,26.16-85q18.54-36,58.32-31.8l.48.36a7.47,7.47,0,0,0,5.16,2.4.61.61,0,0,1,.6.48,142.5,142.5,0,0,1,8.16,12.12,23.5,23.5,0,0,0,4,5.52,23.32,23.32,0,0,0-1.68-16.08,160.31,160.31,0,0,0-8.28-15.6l-1.32-.84A48,48,0,0,0,360.36,87.72Zm84.24,5.64A131.9,131.9,0,0,0,440.16,125q-1.26,63.9-4.92,128.16c-2.52,42.6-4.8,85.44-7.08,128.4a151.28,151.28,0,0,1-5.16,32c-2.76,10.2-1.2,18.12,4.44,23.64a21,21,0,0,0,4.44-11.4q2.7-38.34,6.12-76.92,3.06-36.36,5.4-72.84a466.74,466.74,0,0,0,58.2,1l.84-.6-.48,15c-1.32,43-4.08,85.68-8.52,128.16-1.32,12.12.24,22.8,4.44,32.16,3.48-3.24,5.16-7.44,5.28-12.72q.36-44.28,1.92-88.44,2.34-64.8,6.36-129a1275.82,1275.82,0,0,0,1.8-128.28,396.8,396.8,0,0,0-7.68,69l-2.76,98.88-1.2-1.44a174.06,174.06,0,0,0-57.6,3.84l2.16-43.08q2.7-64.8.24-128.28Q444.78,92.1,444.6,93.36Z" transform="translate(-85.1 -76.32)"/></svg>