<svg id="Layer_1" data-name="Layer 1" xmlns="http://www.w3.org/2000/svg" viewBox="0 0 304.45 212.08"><defs><style>.cls-1{fill-rule:evenodd;}</style></defs><path class="cls-1" d="M303.72,400.68c-.12-24.36,0-49.32.48-74.64q1.26-65,.12-128.28a307.42,307.42,0,0,0-5.64,51.72c-1.08,43.2-1.68,86.16-1.56,129,.12,9.6,2,17.52,5.88,23.64A2.07,2.07,0,0,0,303.72,400.68ZM163,305.76l58.8-5.64q-1.44,36.72-5.64,73.08c-1.44,12.24-.12,22.8,4.08,31.8a490.12,490.12,0,0,0,8.16-83.52l1.56-128.28q-8.46,23-7.92,51.12c.36,14,.48,28,.12,42l-15.36-.6a209.37,209.37,0,0,0-44.88,7,14.54,14.54,0,0,0,.36,12.24ZM155.88,210q-1.62,63.9-2.52,128.16A195,195,0,0,1,150,370.32c-2.4,12.36-1.2,23.28,3.72,32.52a35.25,35.25,0,0,0,4.56-17.52q.36-63.9,3.84-128.16a544.72,544.72,0,0,0-.24-64.2,1.08,1.08,0,0,0-1.32.48A32.44,32.44,0,0,0,155.88,210ZM373.44,397.56a615.21,615.21,0,0,0,77.28.48l.72-1q4-7.2-.72-13.68-37.8.36-75.36,1a507.61,507.61,0,0,0,4.08-59.64q.72-65.16-2.52-129.12a753.42,753.42,0,0,0-3.6,81.72A918,918,0,0,1,369,373.8c-.6,6.84-.12,12.72,1.56,17.88a11.91,11.91,0,0,0,2.28,5.76l.36.12.12.12Z" transform="translate(-148.8 -192.92)"/></svg>