<svg id="Layer_1" data-name="Layer 1" xmlns="http://www.w3.org/2000/svg" viewBox="0 0 502.52 425.6"><defs><style>.cls-1{fill-rule:evenodd;}</style></defs><path class="cls-1" d="M325.8,154.44a112.19,112.19,0,0,1,19.8,42.36,403.79,403.79,0,0,1,9,127.2,431.74,431.74,0,0,1-30.24,124.68,117.43,117.43,0,0,1-42.72,53.4c-11,7.68-21.84,7.56-32.4-.24-15-11.28-22.92-26.64-23.76-46.2-1.56-42.6-3-85.32-4.08-128.16a646.82,646.82,0,0,1,9.36-127.8c6.12-34.92,23.4-62.52,51.72-82.56a47.83,47.83,0,0,1,31.68,11.16A64.16,64.16,0,0,0,325.8,154.44Zm-141-51.84q-5.22,61.74-4.32,124.92c.36,22,.48,43.92.6,65.88l-.12-.12a1.93,1.93,0,0,0-.84-.48A513.51,513.51,0,0,0,126,289.56a96.56,96.56,0,0,0-42.84,3q.72-64.44,2.64-128.28a158.44,158.44,0,0,1,4.32-32c3-12.12,2.28-22.68-2.4-31.56a360.23,360.23,0,0,0-9.12,83q0,64.62-.72,129.12-.72,65-4.56,129c-.6,10.8-1.56,21.6-2.88,32.28-1.32,12.36.6,22.68,5.88,31.08a44.26,44.26,0,0,0,4-21.24c-1.08-20.64-1.2-41.16-.36-61.68q2.52-59.94,3.24-119.88l97.8,4,.12-.12-.36,50.4q-.72,64.8-6.24,128.88c-1.08,12.72,1,23.28,6,31.56a4.08,4.08,0,0,0,.84-1.8,161.89,161.89,0,0,0,3.36-26.52c2-42.84,3-85.8,3.12-129.12q.18-64.26,0-129.12-.36-65-2.52-128.28C184.92,102.36,184.8,102.48,184.8,102.6Zm177,124.32A183.52,183.52,0,0,0,326.88,132l.12-.6,1.68-1.8h-.48l-.84-.24c-8.88-17-23.52-26.16-43.8-27.36l-1.08.36-3.24.48a113.83,113.83,0,0,0-42.6,58.44,415.07,415.07,0,0,0-20.52,124.8L215,414.24q-.18,50.22,18.12,94.92A106,106,0,0,0,252,523.32,21,21,0,0,0,270,525q34.2-11.7,50.4-44a390.51,390.51,0,0,0,38.28-125.52A613.19,613.19,0,0,0,361.8,226.92ZM525.24,127.8c.6-9.6-1-17.52-4.68-23.88a95.85,95.85,0,0,0-4.32,30.84q.9,64.44-4,128.28l-2.4,28.2c-4.2,42.6-7.2,85.32-8.88,128.4a585.94,585.94,0,0,1-6.12,64.8c-1.8,11.76-1.08,22.68,2.4,32.64a242.42,242.42,0,0,1,71.52,6.24,6.09,6.09,0,0,0,2.76-3c1.44-3.24,1.32-6.12-.36-8.76a89.35,89.35,0,0,1-6.48-12.6l-1.56-.24,2,3.48-61.44-6.84c1.8-15.24,3-30.72,3.84-46.2q3.06-64.26,7.56-128.28,4.5-64.26,7-128.28Zm-28.08-21a864.72,864.72,0,0,0-22.68,122.28q-7.2,64.26-15.12,128.28-7.74,62.82-15.12,125.4l-9.12-71.4q-8.28-63.72-17-127.32c-1.08-7.44-3.84-12.24-8.4-14.52a559.69,559.69,0,0,0-8.88,59q-6.3,63.54-16.92,124.68-.9-63.18-5-125.76-3.24-47.88-5.16-96A644.31,644.31,0,0,0,356,105.84l-.84-.84-1.08-.84c-2.52,2.16-3.24,5.28-2.16,9.24a309.56,309.56,0,0,1,11.64,73.8q2.52,64.26,7.56,128.4c3.24,42.48,4.68,85.2,4.08,128.16A277.92,277.92,0,0,0,381.48,507a2,2,0,0,0,1.32-1c6.12-25.8,11-51.84,14.88-78.36q9-62.64,15.48-125.16l10,91.8q7,64.08,20,125.76Q449.1,517,450,509.64l15-129.12q7.38-64.26,15.36-128.4,6.66-56,16.56-111.24A30.48,30.48,0,0,1,498,126.36a17.33,17.33,0,0,1,2.52-4.92c1.8-5.76,1.08-10.92-2.16-15.6A1.71,1.71,0,0,0,497.16,106.8Z" transform="translate(-70.04 -100.68)"/></svg>