<svg id="Layer_1" data-name="Layer 1" xmlns="http://www.w3.org/2000/svg" viewBox="0 0 558.38 464.64"><defs><style>.cls-1{fill-rule:evenodd;}</style></defs><path class="cls-1" d="M20.88,268.92A953.79,953.79,0,0,1,30,396.36q.18,46.62,2.76,93.36A922.84,922.84,0,0,0,48.72,385c4.68,5.88,7.44,13.68,8.4,23.16s2.16,18.72,3.72,28c2.52,14.76,5.28,29.52,8.4,44.16q4.32-63,7.56-126.84c1.08-23.4,2.88-46.68,5.16-69.84-2-2.28-2.88-4.2-2.64-5.88,1.56-.36,3.36-2.28,5.16-5.76a281,281,0,0,1,.24,64.32c-2.28,21.24-3.84,42.6-4.44,64a892.53,892.53,0,0,1-10,110.16c-6.84-30.72-13.08-62-19-94a607.39,607.39,0,0,1-19.92,98.28,276.6,276.6,0,0,1-6.72-64q.18-63.9-3.24-128.16c-1-17.88-1.44-35.64-1.32-53.28Q20.16,268.74,20.88,268.92ZM195.36,60.6a499.73,499.73,0,0,1-.6,64.2c-1.56,21.72-2.52,43.32-2.76,64.92-.6,43.08-2.16,86.16-4.56,129s-5.28,85.56-8.52,128.28q-2.7,36-7,71.4a2.13,2.13,0,0,1-2,2.16c-3.6-9.48-4.8-20.28-3.6-32.28q6.66-64.44,11.64-129c2-25.8,3.72-51.6,4.8-77.52a349.58,349.58,0,0,0-72.24-4.56l-3.24,101.88c-1.44,42.84-3.6,85.68-6.48,128.28a7.49,7.49,0,0,1-3.36,6.24c-4-9.72-5.28-20.52-4.08-32.4q6.66-63.72,8.4-128c1.08-43.08,2.52-86,4.08-129.12q2.34-64.08,4-128.28.54-21.24,7.56-38.16a576.1,576.1,0,0,1-.24,64.32q-3.78,64.08-5.76,128.16l-.48,14.28a34.88,34.88,0,0,1,4.68-1.44,47.78,47.78,0,0,1,17.52-.12,233.4,233.4,0,0,1,49.44,6.36l.84.24,1.08-38.28q1.26-63.9,3.6-127.44C188.64,88,191,73.56,195.36,60.6ZM304.8,98.28l-.72-.36-1.32-.48A26.64,26.64,0,0,0,295,86a31.87,31.87,0,0,0-17.88-8.16c-30.12,3-47.76,19.2-52.68,48.6a672.33,672.33,0,0,0-8.88,128.4c1.08,43.08,1.08,86.16-.24,129A334.3,334.3,0,0,0,229.8,493a15.84,15.84,0,0,0,5.28,7.56c28.2,6.12,47.4-3.84,57.48-29.64A454,454,0,0,0,322.2,343.44,813.81,813.81,0,0,0,323,214.32,703,703,0,0,0,305.16,99ZM300.36,75l1.56-.24A12.76,12.76,0,0,1,306,76.2l1.92,1a538.73,538.73,0,0,1,21.48,98,677.09,677.09,0,0,1,3.84,127.68A908,908,0,0,1,316,430.44q-9.72,47.16-39.12,82.44a7.52,7.52,0,0,1-5.76,2.88c-21,10.44-37.08,6.48-48.36-12.12a65.32,65.32,0,0,1-9.12-26.52,810.71,810.71,0,0,1-5.52-126.72q1.62-47.88.6-95.76a733,733,0,0,1,7.92-126,97.56,97.56,0,0,1,16.2-41.16,61.21,61.21,0,0,1,33.36-24.72c13.08-1.08,24.24,2.88,33.36,11.88Zm108.48,6.72a58.07,58.07,0,0,0,6.24-12.12q5.4,13.86.36,31.32A195.88,195.88,0,0,0,409,132q-8.28,63.54-16.08,127.44a114.16,114.16,0,0,1-4.56,21.12c-4.68-5.16-7.2-12.36-7.68-21.48a637.69,637.69,0,0,0-7.8-69.12,441.08,441.08,0,0,1-16.68,85.32l-.6.24q-7.92-62.28-16.92-124.92-6.12-42.84-8.52-83.52,12.24,60.66,20.52,124.56c2.64,20.28,4.92,40.68,6.72,61.08q8.46-48.78,14.76-97.92a5.08,5.08,0,0,1,.72-1.68c3.12,16.08,5.76,33.12,7.92,51.24l6.12,53.52C393,217.2,398.52,176,403.68,134.16c2.52-19.68,5-37.68,7.56-54.12-.36,1.56-1.2,2.28-2.52,2Zm44-.48a42,42,0,0,0-19.44-5.16q-.54,58.68-6.36,118.32-3.78,38.34-6.12,76.8a110.16,110.16,0,0,0,27.36-13.08c15.84-26.52,23.88-55.8,24-87.6a258.59,258.59,0,0,0-12.24-80.64A15.14,15.14,0,0,0,452.88,81.24Zm21.72,25c1.8,21.24,2.76,42.6,3,64.32a209.1,209.1,0,0,1-17.88,86.88,65.5,65.5,0,0,1-14.4,21,40.86,40.86,0,0,1-7.56,4.56q16.38,57.24,28.32,116.4c3.12,15.6,6.48,31.08,10,46.56q8.1,36.36,13.08,72.36a3.63,3.63,0,0,1-2,4c-5.88-8.52-9.84-18.84-12.12-30.84Q463.26,428.58,449,366.24a786,786,0,0,1-14.16-82,38.32,38.32,0,0,1-14.76,2.64l-1.68,35.52q-2.52,64.26-6.72,128.4a356.87,356.87,0,0,1-10.56,67.08L399.84,519a112.38,112.38,0,0,1-1.44-44l2-14.4a30.76,30.76,0,0,1,.6,8.88l-.12.84c4.2-41.88,7.68-84,10.2-126.6L418.8,215.4l5.52-87.84L426.12,96a73.46,73.46,0,0,1,4-21.36l-.36-1.8a9.63,9.63,0,0,1,.48-4.92l.24-.84a35.63,35.63,0,0,1,14.4-3C463,71.4,472.8,85.44,474.6,106.2ZM537,78.72a216.77,216.77,0,0,0-29.64,104.52q-1.44,50.58-1.44,101.16a187,187,0,0,1,35.76-4.56c3.12,4.68,3.6,9.84,1.56,15.36l-.48.84-36.84,1.68.12,13.8c.36,43.08.36,86,.24,129a124.75,124.75,0,0,0,8.16,45.6c3,8,9,11.52,18,10.68q28.08-25,36.84-62.52a19.27,19.27,0,0,1,3.24-7.32c5.64,4.68,7,11.52,4,20.4a169.86,169.86,0,0,1-32.76,58.08,66.84,66.84,0,0,1-10.44,9.72c-19-1.68-29.16-12.48-30.6-32.52q-3.6-51.66-4.32-103.8-.9-63.9-.12-127.44c.36-27,1.2-53.88,2.64-80.4q3.24-60.66,37.2-109.44a7.68,7.68,0,0,1,4.2-3.12c21,6.12,33.12,20.64,36.12,43.8a12.67,12.67,0,0,1-1.2,7.32l-1,.6-2,.48c-3.24-20-14-31.44-32.52-34.44Q538.8,75.66,537,78.72Z" transform="translate(-20.14 -57.6)"/></svg>