<svg id="Layer_1" data-name="Layer 1" xmlns="http://www.w3.org/2000/svg" viewBox="0 0 529.67 493.2"><defs><style>.cls-1{fill-rule:evenodd;}</style></defs><path class="cls-1" d="M160.2,88,159,217.08l-.24,33.72a371.9,371.9,0,0,1-50.52-7.8,301.74,301.74,0,0,0-58.44,3.72L51.24,145.8a554.64,554.64,0,0,1,4.92-64.68,105.8,105.8,0,0,0-.36-32.64c-3,.72-4.56,2.64-4.92,5.88-3.72,42.36-6,85.2-6.6,128.28s-.72,86-.12,129.12c.36,43.32.24,86.4-.36,129a190.88,190.88,0,0,1-3.12,32.16c-1.8,10.08,0,17.88,5.28,23.28a558.88,558.88,0,0,0,4.68-92.28q-2-64.26-1.2-129l.24-18.24A171.57,171.57,0,0,1,78,256.44l29.88,3c16.8,2.28,33.72,4,50.64,4.8l-1.08,81.84c-.84,43.08-1.92,85.56-3.48,127.44v-1.68c-.24-6.84-.72-13.56-1.32-20.16l-1.56,5.64a182.7,182.7,0,0,0,5.76,41.88,3,3,0,0,0,2.4-3c2.52-28.68,4.2-57.72,4.8-86.88q1.26-64.44,1.08-129-.36-64.44,1.68-129a724.1,724.1,0,0,0-3.12-95.88A158.94,158.94,0,0,0,160.2,88ZM295.44,67.08a61.32,61.32,0,0,0-32.52-7c-17.88,2.16-32,11-42.24,26.64a63.84,63.84,0,0,0-6.12,12.12,360.69,360.69,0,0,0-22.32,126.84q.36,64.44-.48,129a542.92,542.92,0,0,0,12.72,124.2,25,25,0,0,0,6.36,11.88q19.26,20,46.56,5.16c17.88-9.72,31.68-24,41.4-43.08a305.34,305.34,0,0,0,22-57.48A556.41,556.41,0,0,0,338,300.72a442,442,0,0,0-6.36-127.08,513.5,513.5,0,0,0-30.6-100.08L298.56,71l-.36-.72-.36-.72-1.08-1.68Zm-4.92,12.84L290,81.6l1.8,1.68L292,83l.24.48a18.37,18.37,0,0,1,5,10.08,360.65,360.65,0,0,1,32,103.56,395.86,395.86,0,0,1-1.56,129.24q-4.5,24.48-9.72,49c-7.56,34.92-22.92,65.64-46.32,92.16-14.76,16.68-33,21.36-55,14A224.32,224.32,0,0,1,199.08,395l-1.56-129a703.62,703.62,0,0,1,9.84-128.52c5.4-32.16,23.28-53.16,53.4-63.12a115.1,115.1,0,0,1,30.12,3Zm84.48,289q-6.3,56.34-14.64,112l-2.16-35.76q-3.24-64.62-9.12-127.44c-3.84,15.84-4.44,32.88-1.8,51a464.36,464.36,0,0,1,4.44,53.4c.48,21.36.48,42.72,0,64.2-.24,12.12,1.8,22.68,6,31.68A520.16,520.16,0,0,0,378,401.76c4.92,25.2,9.48,50.4,13.92,75.48,1.44,8.52,2.64,16.92,3.72,25.44,1.2,9.84,4.56,17,10,21.48a920.08,920.08,0,0,0,17.64-109.44q3.24-32,8.52-64,3.06-18.9-4.32-31.68c-3.24,17.64-6,35.76-8.16,54.24l-14.76,127.2c-6.6-29.64-12.36-59.4-17.4-89.52A192.65,192.65,0,0,1,385,390.6c-.6-10.32-3.84-17.88-9.72-22.56Zm25-286.8c1.8-1.8,1.32-2.52-1.68-2.28q-27,11.52-32.16,42.6c-2.64,16-5,32-7.08,48.12-4.68,37.56-2.64,74.16,6.36,109.8A16.49,16.49,0,0,0,375,292q26.1,12.24,40.68-12.6A166.49,166.49,0,0,0,437,217.68q9.18-66.42-22.8-123.48a19.66,19.66,0,0,0-7-7.08,6.16,6.16,0,0,1-2.76-3.48L403.2,84A21,21,0,0,0,400,82.08Zm-28.08,9.48A345.27,345.27,0,0,0,350.16,215.4a391.58,391.58,0,0,0,5.52,63c4.44,25.68,19.56,36.84,45.6,33.36A82.32,82.32,0,0,0,435,264.36a282.91,282.91,0,0,0,5.64-127.2c-2-10.8-4.32-21.48-7-32.16Q425.58,72.78,394,67.08C383.4,72,376.08,80.16,371.88,91.56ZM567.72,61.44h-.6A7.63,7.63,0,0,0,563.64,63q-18,38.34-35,77.4Q502.5,199.62,477,259.32A128.14,128.14,0,0,1,469.68,274a54.22,54.22,0,0,0-5,12.12l1.8-94,2.4-128.28c-1.08-.12-1.56.48-1.68,1.68q-4.68,53.82-5.76,108.72l-2.64,129.12q-1.44,64.62-6.48,128.28c-1.8,21.6-4,43.2-6.48,64.68-1.56,12.24.12,22.8,4.92,31.8a3.2,3.2,0,0,0,.84-1.68q5.4-38.34,7.68-77.76c2.52-42.48,4.2-85.2,4.8-128.28l.36-17.28.48,1.8a2.66,2.66,0,0,0,1.56-1.44q13.68-29.52,27-59.52A63.79,63.79,0,0,0,495.12,260q14,62.28,26.88,124.8t25.92,124.32a96.44,96.44,0,0,0-13-19.68,4.05,4.05,0,0,0-.24,3.12c3,7.92,6.36,15.72,10.2,23.52,4.68,9.36,9.24,17.88,13.56,25.56a3.38,3.38,0,0,0,2-3.72,512.48,512.48,0,0,0-10.68-61.8q-14.58-62.28-27.6-124.68-12.42-59.76-23.76-119l18.12-41.88q12.78-29.88,23.88-60.12A303.5,303.5,0,0,1,569,72l.24-.84A11.91,11.91,0,0,0,567.72,61.44Z" transform="translate(-40 -48.48)"/></svg>