<svg id="Layer_1" data-name="Layer 1" xmlns="http://www.w3.org/2000/svg" viewBox="0 0 304.35 206.88"><defs><style>.cls-1{fill-rule:evenodd;}</style></defs><path class="cls-1" d="M160.92,193.2q-3.24,58.86-5,118.44c-.6,21.72-2.28,43.32-4.92,64.8q-1.8,14.58,4.68,23.4a583.22,583.22,0,0,0,7.8-78.6L164,303a359.16,359.16,0,0,0,60-.72l-1.56,58.08a70.09,70.09,0,0,1-2.28,15.84c-3,10.56-1.2,18.24,5.16,23.16a233.07,233.07,0,0,0,4.32-43.08q.54-48.06,4-95.64a500.11,500.11,0,0,0,.6-64.2q-6.66,15.66-7.56,35.64l-2,53.4a340.48,340.48,0,0,0-60.36,5.76c.36-33-.48-65.76-2.76-98.28Zm102,4.08q-5.76,59.22-7.32,120.12a227.3,227.3,0,0,0,7.2,63.84,12.72,12.72,0,0,0,9.84,10c25.32,6.24,44-2,55.92-24.72,13.56-25.8,19.92-53.64,19.2-83.76l-1.32-64.92c-.12-8.88-2.4-15.12-6.84-18.6-1.08,26.88-1.32,54.24-.48,82a164.44,164.44,0,0,1-10.2,63.48q-13,34.92-51.24,32.52a5,5,0,0,1-4-2q-14.22-21.24-12.24-49.68a1205.38,1205.38,0,0,0,1.8-128.16Zm103,9.48c3.48,12,6.84,24,9.84,36.12A970.35,970.35,0,0,1,398.88,368.4,85.6,85.6,0,0,0,408,398.76a74.16,74.16,0,0,0,14.28-28.68q15.84-62.1,29.4-124.92A142.89,142.89,0,0,0,454,198.6c-1.08.24-1.68.6-1.8,1.2-4.92,18-8.88,36.24-12,54.72a845.22,845.22,0,0,1-30.84,123.24c-2.28-19.32-5.52-38.64-9.48-57.84q-13-63-31.32-123.48C365.28,198.72,364.44,202.08,365.88,206.76Z" transform="translate(-150.57 -192.96)"/></svg>