<svg id="Layer_1" data-name="Layer 1" xmlns="http://www.w3.org/2000/svg" viewBox="0 0 562.68 540.72"><defs><style>.cls-1{fill-rule:evenodd;}</style></defs><path class="cls-1" d="M232.68,394.56a116.24,116.24,0,0,1,3.6,18.72c.24,3.12.36,12.12.36,27.12,0,8.76-.12,17.52-.48,26.4l2.88.36c19.56,0,34.8-4.8,45.72-14.28A40,40,0,0,0,294,441.24a18.9,18.9,0,0,0,2.64-8.76c0-2.52-.72-6-2-10.56q-2.34-7.56-4.68-10.44l-4-5.16a19.46,19.46,0,0,0-4.44-4.44c-4.2-3.12-11.88-5.76-23-7.8ZM229.32,383l30.6.24c16.44,2.4,27.84,9.6,34.44,21.6,4.08,7.44,6.12,16.8,6.12,28,0,2.76-.84,6.36-2.4,10.8a63,63,0,0,1-7.8,15.24c-9.24,13-21.24,19.44-36.12,19.44l-10.32-.6-8-.48-1.56,23.16c-1.56,21-4,41-7.08,60.12a6.4,6.4,0,0,1-2.76-4.32,32.84,32.84,0,0,1-.24-4.44c0-5.76,1.44-20.76,4.32-45.12,1.2-10.32,2.16-20.16,2.88-29.64l-.12-.12a36.21,36.21,0,0,1-.6-5.64c0-1.08.12-2.28.24-3.48v-1.44l1.2-.12c.48-8.88.72-17.28.72-25.32,0-6.24-.84-16.2-2.64-30L228,394.68h-.36a18.44,18.44,0,0,1-1.08-2.28,16.56,16.56,0,0,1-.24-3,8,8,0,0,1,.84-3.72A9.44,9.44,0,0,1,229.32,383Zm39.12-65.52c3.72,5.4,8.52,13.56,14.52,24.36,8.76,15.72,13.2,24.72,13.2,27,0,4.32-1.68,6.72-5.16,7.32-2.52-9.6-8.16-22.08-16.92-37.56l-8.4-14.52-1.56-2.64q-12.42,11.7-24.48,22.32c-1.56,16.44-3.48,25.44-5.52,27L233,368.4a22.44,22.44,0,0,1-.24-3.24c0-12.6.72-28.92,2-49.08,1.8-26.4,4.08-40.44,6.6-42.12l1.32,2.28a9.69,9.69,0,0,1,.36,3c0,15-.84,32.52-2.4,52.68l-.12,1.68c2.52-3.24,6.6-7.8,12-13.44L268.32,304A233.12,233.12,0,0,1,285,285.12c10.32-10.44,15.48-12,15.48-4.8,0,4.08-9.6,15.48-28.92,34.08ZM126.6,382c4.68,5.4,12.72,16.68,24.24,34,10.32,15.48,16.32,25.2,17.88,29.28l6.72-22.2c5.88-18.24,12.48-32.88,19.8-44a14.21,14.21,0,0,1,1.92,7.32c0,1-4.2,13.2-12.6,36.6q-14,39.24-18.12,54.36Q154,523,139.08,566.76c-1.32-1.92-1.92-4.44-1.92-7.68,0-2.4,3.36-15.6,10.08-39.48,5.76-20.64,10.68-37.68,14.88-51.12L166.44,453c-6-8-13.92-19.2-23.64-33.6-12.36-18.24-18.6-28.56-18.6-30.84C124.2,385.56,125,383.28,126.6,382ZM100.68,36.48c0-5.64.36-8.64,1.2-9.24q.9-.72,2.52,4c2.52,7.32,3.84,13.44,3.84,18.36V82.32c0,7.08-.24,19.2-.84,36.36s-1,27.12-1.32,29.88V194l-1.68,11.28-1.56,11.28v47.88l-1.08,4.08V398.4q1.08,19.62,1.08,59.76c0,28.8-.12,46.2-.48,52.2-.84,16.68-3.48,35.16-7.68,55.32-1.44-1.08-2.52-3.24-3.12-6.36a35.48,35.48,0,0,1-.6-6.24c0-1.68.6-8,1.8-19.2q2-18.54,3.6-26.64V409a17.28,17.28,0,0,1-1.08-4.08V263.64a33.2,33.2,0,0,1,1.08-4.8v-.12l-1.92.12-5.64.72-6.72.36-7.44.72-8.28.36-9,.84-18,1.2-6.84,1-6.6-.24v25.32L24.84,294v48.72q-.54,4.14-1.08,12.6c-.36,5.64-.72,9.84-1.08,12.48v54.48c-.36,7.8-.84,19.8-1.2,36-.36,15.84-.84,27.84-1.32,36-1.8,27.72-6.36,51.6-13.68,71.4-1.56-.84-2.64-2.4-3-4.92A48.7,48.7,0,0,1,3.24,555,172.26,172.26,0,0,1,6.6,521.88C10,505,12.12,492.6,13,484.8c-.6-8.76-.36-20.28.72-34.44L16.2,415v-52.8q.54-4.14,1.08-12.6T18.36,337V288.24l1.08-4.8V229.8l1.08-4V158.52l1.08-4V87.12c.6-4.2,1-14.52,1.08-30.84.12-13.2,1.32-23.16,3.84-30,1.92.48,3.12,2.4,3.6,5.88.12,1.08.24,4.08.24,8.76l-.72,21L28.2,94.44V160.2l-1.08,4.08v67.2l-1.2,4.08V248l1.92-.72c8.28-2.76,28.92-4.68,62-5.52v-.6l6.48.12v-29.4l1.56-11.4,1.68-12.24V143.64q.54-3.24,1.08-9.72t1.08-9.72V43.8A36.7,36.7,0,0,1,100.68,36.48Zm88.08,10.68Q183,40.32,168.6,40.32c-16.2,0-28.08,14.16-35.88,42.48a207.7,207.7,0,0,0-6.84,44.4l-1,15.6c19.8-2.16,32.52-2.28,37.92-.36,1.92.6,3,1.56,3.24,2.76a7.16,7.16,0,0,1-.24,2.64,10.65,10.65,0,0,1-2.4,7l-6.72.36-7.32.72-12.84.36-12.36.36-.6,9.84c-1.32,25.2-2,41.28-2,48.24l-.48,9.48a94,94,0,0,0,1.56,18.24Q127.5,268,146.4,268q27.54,0,36.72-17.28a41.6,41.6,0,0,0,4-13.2c.36-4.68.72-7.56.84-8.4l1.32-.84c1.8.24,3.12,1.44,4,3.48a15.24,15.24,0,0,1,.6,4.08,45.21,45.21,0,0,1-1.44,8,81,81,0,0,1-5.52,15.48q-10.62,22-28.8,22c-21,0-34-7.8-38.88-23.52-1.8-5.64-2.76-12.72-2.88-21.48l.36-20.76c0-13.32.72-31.32,2.16-54.24l3.48-52.8A149.11,149.11,0,0,1,135.36,55c4.8-10.92,10.92-18.72,18.48-23.4a30.74,30.74,0,0,1,37.44,3.6c4.68,4.44,7,9.12,7,14,0,3.48-1,5.76-3,6.84a9.58,9.58,0,0,1-3.12-3.6ZM213.6,33.24a5.38,5.38,0,0,1,3.24-3.72,367.73,367.73,0,0,1,3.84,46.68c.12,5.28.24,20.88.24,46.68l-.12,17c-.12,11.16-.48,19.8-1,25.92v69.72q-1.8,22.5-4.92,69.84-3.06,41.94-7.2,69a4.48,4.48,0,0,1-3.24-3.12,12.48,12.48,0,0,1-.36-3.72q0-12.06,5.28-73.08l5.52-64.08V160.68c.72-8,1.08-20.64,1.08-37.68,0-18.36-.48-34-1.56-46.8s-1.68-25.56-1.68-38A12.84,12.84,0,0,1,213.6,33.24Zm85,17.64a6.5,6.5,0,0,1-2.76-3.36l-1.68-3.84c-1.56-3-5.16-4.44-10.68-4.44q-25.2,0-38.4,41.64a189.69,189.69,0,0,0-8.4,43.92l-.12,6.24a66.79,66.79,0,0,0,1.2,11.64c2.16,10.8,7,16.2,14.28,16.2l9-.36c4.32-1.56,9.12-5.4,14.4-11.64a60.94,60.94,0,0,0,5.76-7.68c1-7.32,1.8-13.08,2.52-17.16-9.72-1.08-16-2.4-18.72-4.2q-1.8-1.26-1.8-4.32c0-2,1.2-3.48,3.72-4.08a15.81,15.81,0,0,1,8.4.48,20.53,20.53,0,0,1,8.4,4.2c2.52,2.28,3.84,4.68,3.84,7.44L287,134a7.5,7.5,0,0,1,1.2,2.64l.36,2.52a21.5,21.5,0,0,1-3.24,10.8l-.12.24c-1.32,10.32-2.76,18.24-4.44,23.88,11.4-.48,19.2,1.2,23.64,5a10.15,10.15,0,0,1,3.6,8,8.21,8.21,0,0,1-.6,3.24,5.4,5.4,0,0,1-1.8,1.92l-3.36-4.44a7.29,7.29,0,0,0-5.88-2.52l-18.6.24a13.91,13.91,0,0,0-5.88,4.68C270,192.6,269,194.4,269,195.6c0,1.8,2.64,4,7.8,6.48L294,210c16.56,8.88,24.84,20.4,24.84,34.68a19.94,19.94,0,0,1-7,15.48c-5.28,4.68-14,8.88-26.28,12.48l-27.6-.36c-4.08-2-7.44-5.76-10.08-10.92-2.16-4.2-3.24-7.68-3.24-10.56l.24-2.64.6-1.8,1.08-.84a6.94,6.94,0,0,1,1.8,4.44l.6,5.28c.84,4.2,4.32,6.24,10.56,6.24q30.6,0,45.36-7.2c6.36-3.24,9.6-6.6,9.6-10.08a19.42,19.42,0,0,0-7.68-15.6q-4.86-4.14-16.92-9.36-12.42-5.58-16.92-9c-5.16-4-7.68-8.88-7.68-14.52,0-5.4.48-9.12,1.32-10.92,1.44-3.24,5.28-6.72,11.4-10.56h1l-.36-1.32a17.39,17.39,0,0,1-.36-3.84c0-2.52.24-6.12.6-10.8a47,47,0,0,1-16.8,11.4H251.52c-9.24-3.24-15.12-10.08-17.4-20.52a66.72,66.72,0,0,1-1.44-13l.12-10.8a135,135,0,0,1,3-28.56l7.8-31.92a51.24,51.24,0,0,1,13.32-24,40.78,40.78,0,0,1,19.08-11c6.72-1.56,12.36-1.08,17,1.44,4.92,2.76,7.44,7.08,7.44,13.08A9.71,9.71,0,0,1,298.56,50.88Zm55.56,238.8a5.83,5.83,0,0,1-3,4.32,27.51,27.51,0,0,0-3.12-4.56,10.15,10.15,0,0,0-8-3.6c-9.48,0-16,15.24-19.32,45.72-1.08,9.36-1.92,22-2.64,37.92l-1.2,22.44a28,28,0,0,1,5.64-1.32l27-.6c2.52,1.2,3.84,3.72,3.84,7.56a13.59,13.59,0,0,1-.72,4.32,10.59,10.59,0,0,1-2,3.84l-27.36.6-2.28,1.56A8.93,8.93,0,0,1,317,409l-1.8-.12-7.44,56.88c-4.32,31.56-6.48,48.36-6.48,50.64a78.77,78.77,0,0,0,2.16,18.84c2.76,10.92,7.68,16.44,14.64,16.44,8.28,0,16.44-8.16,24.48-24.36,2.4-4.92,5.16-11.4,8.16-19.32s5-12.84,5.76-14.28a10.39,10.39,0,0,1,2.64,5.28,29.25,29.25,0,0,1,.6,5.76c0,1-1.08,4.56-3.24,10.68a219.88,219.88,0,0,1-8.64,21.36C338.4,556.92,329.64,567,321.36,567c-11.76,0-19.56-8.28-23.28-24.84a91.79,91.79,0,0,1-2.16-17.28V516.6q0-12.42,7.44-72.36L311,383.88c1.56-8.76,3-19.8,4.32-32.88,1.32-14.52,2.4-25.56,3.24-32.88s1.56-12.84,2.16-16.2a91.56,91.56,0,0,1,4.32-17.16c2.28-5.88,5.16-10.08,8.64-12.36a10.79,10.79,0,0,1,9.72-1.44,14.08,14.08,0,0,1,7.68,5.64,14.8,14.8,0,0,1,3.24,9ZM353.52,49V65.64c0,5.88-.48,16.2-1.56,31.08a8.12,8.12,0,0,1,2.64,6l-.24,2.64-.6,1.8-2.52.48-1.44,17.64c-2.52,32.16-4.56,50.52-6,55.2a36.21,36.21,0,0,1-.6-5.64c0-4.56,1-19.08,3-43.44l1.8-23.64-7.2.48a94.79,94.79,0,0,0-12.6,1.32l-4.68.84-6.84-.24-.12,23.76a334.5,334.5,0,0,1-4.2,46.32l-1.32.24a19,19,0,0,1-1.32-7.32q0-25.2,1.8-75.84c1.32-35.4,2.52-57.24,3.6-65.64.84,8,1.44,17.28,1.56,28V99.48l9.48-1.08,14.64-1.56v-.48l8.28.24.6-7.8V36a5.46,5.46,0,0,1,1-2.28,1.72,1.72,0,0,1,1.2-1A103.68,103.68,0,0,1,353.52,49Zm71.16-19.44a15,15,0,0,1,2.16,7.32,15.34,15.34,0,0,1-2.16,7.32h-16.2l-.84-.6-7.2-.36-7.92-.72h-.36v1a263.28,263.28,0,0,1-4.32,48.24v43.08q-1.26,12.24-1.8,31L385,197.16q-1.8,38-9,63.24a8.23,8.23,0,0,1-4.32-7.32,224.56,224.56,0,0,1,2.76-31.32l4.8-31.8,3.24-62.52v-43c.84-4.8,1.8-13.8,3-26.88.48-5.64,1.08-10.68,1.68-15.12l-22.8.24c-3.24-.12-5.28-1.2-6.24-3.24a9.17,9.17,0,0,1-.48-3.72,9,9,0,0,1,1.08-4.08,11,11,0,0,1,4.8-4.56q29.7.18,30.6.72l15.12,1.08Zm113.16,43-.24,4.44c-.24,1.08-1.2,2.76-3,5a112.56,112.56,0,0,0-13.2-17.64c-10.08-10.92-19.8-16.44-29.28-16.44q-36,0-52.32,32.28a88.38,88.38,0,0,0-7.68,22.44,63.44,63.44,0,0,0-1.44,10.8c0,9.24,7.08,25.32,21.12,48.48q12.78,20.88,46.44,73c20.52,33,36.12,62,46.56,86.88,14,33.48,21.12,63.48,21.12,90.24a192.9,192.9,0,0,1-4.44,38.76,185.48,185.48,0,0,1-11.28,36.72c-1.68,4-4.2,10.2-7.56,18.48a78.2,78.2,0,0,1-12.72,19.68q-2.34,2.7-6.48,8.64a40,40,0,0,1-10.68,9.36q-18.18,11-64.8,14.76c-26.64-3.6-44.88-8.4-54.72-14.52-7-4.32-10.68-10.32-11.28-18-.24-2.28-1.44-8.52-3.48-19-2-10.08-3-15.6-3-16.68a17.64,17.64,0,0,1,1-6.72c.48-.84,2.64-4.08,6.6-9.6,1.2.72,2,2,2.64,4.08a19,19,0,0,1,.6,4.56,34.54,34.54,0,0,1-1.08,5.88,32.63,32.63,0,0,0-1.08,5.88c0,5.16,0,8.28.12,9.36a42,42,0,0,0,4.56,15.84c7.32,14.16,22.56,21.24,45.6,21.24q43.92,0,69.24-12.6,29.7-14.94,39.84-49.56c3.72-12.36,6.84-23,9.24-31.8,4.44-16.44,6.72-28,6.72-34.8q0-29.7-21-77c-4.92-10.8-11.16-23.76-19-38.76l-18-34.32a328.9,328.9,0,0,0-26.4-43.44l-25-34.44c-8.52-12.36-14.76-23.28-18.72-32.88a102.69,102.69,0,0,1-7.2-38.16,160.11,160.11,0,0,1,1.08-21.12,63,63,0,0,1,6.36-20.16c7.56-14.28,23-28.08,46.68-41.28,18.12-.36,33.12,5.28,45.24,17.16a58.2,58.2,0,0,1,10.8,14.28C536.64,66.24,537.84,69.72,537.84,72.48Z" transform="translate(-3.24 -26.28)"/></svg>