<svg id="Layer_1" data-name="Layer 1" xmlns="http://www.w3.org/2000/svg" viewBox="0 0 305.8 211.56"><defs><style>.cls-1{fill-rule:evenodd;}</style></defs><path class="cls-1" d="M303.24,195.12c-.36.12-.48.12-.48.24-1.32,28-1.92,56-1.8,84.48a802.12,802.12,0,0,1-5.28,96.36c-1.2,10.2.84,18,6,23.4a20.75,20.75,0,0,0,1.56-17.88c2-17.64,3.24-35.52,3.72-53.52,1.08-42.84.6-85.68-1.2-128.28l-.24-.84A7.38,7.38,0,0,0,303.24,195.12ZM220.8,196.2c-3,24.36-5.16,49.32-6.6,74.64l-1,19.32-.6-.24-9.12-.6a311.7,311.7,0,0,0-40.68,4.2,950.32,950.32,0,0,0-3.48-99.72H159c-2,26.4-3.24,53.16-3.84,80.28q-1.26,64.44-3.6,128.28a2.15,2.15,0,0,0,2.16,2.16A785.12,785.12,0,0,0,161.88,322l.72-17.52a249.22,249.22,0,0,0,50-1.08q-1.8,47.7-1.56,95.76a2.32,2.32,0,0,0,2.16,2.16,12,12,0,0,0,4-9.48c.24-22.44,1.08-44.88,2.64-67.32a1090.93,1090.93,0,0,0,1.44-128.28Zm154.56,1.56-.6-.48h-.36q-1.08,35.28-1,72.24.18,64.62-2.52,128.16a3.32,3.32,0,0,0,2.4,2.16,2,2,0,0,0,1-1.44A538.7,538.7,0,0,0,380,327.12q.9-60.48-2.88-120.12a257.7,257.7,0,0,0,17.16,51,790.37,790.37,0,0,1,42.84,118.68c3,11.28,7.32,20.88,12.84,28.68l.24-4.44,1.08,3a1.68,1.68,0,0,0,1-1.32c2.52-26.52,4.08-53.4,4.68-80.4A1264,1264,0,0,0,453.72,194a206.05,206.05,0,0,0-3.36,48.72,1047.19,1047.19,0,0,1-2.88,128.88l-.12,1.92a100.8,100.8,0,0,0-5.16-15c-6.48-15.24-12.72-30.48-18.6-46q-22.5-59-46.44-118.32c-1.56,0-2.28.84-2,2.52Z" transform="translate(-151.56 -193.8)"/></svg>