<svg id="Layer_1" data-name="Layer 1" xmlns="http://www.w3.org/2000/svg" viewBox="0 0 500.49 428.53"><defs><style>.cls-1{fill-rule:evenodd;}</style></defs><path class="cls-1" d="M183.72,61.2a577.41,577.41,0,0,0-5.64,89.28q.54,46.62.36,93l-5.28-.48a591.57,591.57,0,0,0-87.72,3.12L88,188.28A1036.42,1036.42,0,0,0,86.88,60.12C84.12,65.88,83,72.6,83.64,80.4a632.38,632.38,0,0,1,1.08,67.44q-2.34,64.8-5.76,129c-2,42.84-2.76,85.92-2.16,129A130.7,130.7,0,0,1,73.56,438c-2.76,12.12-1.8,22.8,2.76,32a318.26,318.26,0,0,0,8.16-88.56c-1.08-21.72-1.32-43.32-1-64.92.36-19.68.84-39.36,1.56-59.16,30.6.36,61.68.24,93.24-.6L178,279.48q-.9,64.8-4,129.12a220.21,220.21,0,0,1-4.08,32.16c-2,10.44-.36,18,5.16,22.68a48.37,48.37,0,0,0,3.6-16.92l4.56-128.4q2-64.44,1.32-129-.72-65.16-.36-128.28C183.84,61,183.72,61.08,183.72,61.2Zm97.92,30.48c1.56,8.64,2.88,17.28,4.2,26q9.18,64.08,13.68,129A618.46,618.46,0,0,1,295.08,375a227.66,227.66,0,0,1-17.88,63c-9,20.28-24.84,26.52-47.52,19A24.5,24.5,0,0,1,219,442.32a319.81,319.81,0,0,1-10.2-101.16q3.6-64.44,4.92-129a651.43,651.43,0,0,1,8.76-95.64C225.72,96.72,236,82.8,253.2,75a157.37,157.37,0,0,1,17.4,3.24,24.12,24.12,0,0,1,4,4.68l4.32,7.2,1,.72Zm-2.76-18.12c-6.24-7.8-14.76-11.64-25.68-11.64q-25,9.72-32.4,37.08a334.47,334.47,0,0,0-12,78.48q-2.34,64.08-5.28,128.28a901.52,901.52,0,0,0,3.24,127.44c2.76,28.68,18.24,43.2,46.44,43.8,15-4.68,25.32-14.4,30.72-29.4a390.13,390.13,0,0,0,23.52-126.36,951,951,0,0,0-6-128.16q-3.78-32-5.76-64.44A160.21,160.21,0,0,0,283,74.4l-1.56.12h-1.08l-.84-.12Zm119,330.12A93,93,0,0,1,390,436.92a69.88,69.88,0,0,1-22.44,28.32c-9.72,7.32-19,6.6-27.84-2.16-17.16-17.16-24.48-39-21.84-65.76a349.93,349.93,0,0,1,11.64-61.92l1.92-6.84c8.76-8,19-11.64,30.6-10.56l14,5.88C392.28,348,399.48,374.64,397.92,403.68Zm15.24-18.12a178.6,178.6,0,0,0,27.6,2.4,19.64,19.64,0,0,0-.6,6.12,336.28,336.28,0,0,1,.36,41.16,333.94,333.94,0,0,0,1.56,52.92l.6-.12A307.73,307.73,0,0,0,445.08,388a175.55,175.55,0,0,0,27.36-2.4l.36-.6a11.59,11.59,0,0,0-.36-13l-59.52,4.68-.24.84A14.12,14.12,0,0,0,413.16,385.56Zm-48.48-94.68a262.36,262.36,0,0,0,17.16-58.56A128.58,128.58,0,0,0,383.16,197l-18.72,76.32L344.16,220l-16.2,52-11.64-80a248.67,248.67,0,0,0,.6,55.08,202.42,202.42,0,0,0,7.68,34.8,24.92,24.92,0,0,0,3.84,7.8l17-52.56,11.16,37.44Zm-1,16.08c-17.52-4-29.64,1.92-36.36,17.76a188.7,188.7,0,0,0-11.28,37.56,217.65,217.65,0,0,0-3.72,40.44A209.06,209.06,0,0,0,317,446.88c3.48,16.56,12.72,28.2,28,35s28,3,38-11.76a128.88,128.88,0,0,0,18.6-41.64,135.94,135.94,0,0,0,3.24-44c-1.2-13.32-2.76-26.64-4.56-39.72-2.4-17.64-11.16-29.28-26.28-35A54.81,54.81,0,0,0,363.72,307Zm75.36-111q-2.34,40.86-4.08,82c-1,21.48-3,42.84-6,63.84-1.32,9.72.24,17.64,4.68,23.52a275.06,275.06,0,0,0,5.64-41.4l1-19.56,1.32,2.52.6-.6,16-29.76-.12,1.68a81.25,81.25,0,0,0,3.12,20.76c7.56,25.8,15.72,51.12,24.24,75.84l3.48-.36.6-.72q5.22-7.74-1.08-14l-.24-.84c-7.8-29.28-16.56-58-26.52-86a6.09,6.09,0,0,0-2.16,1.08q14.94-29,27.84-59.28a10.05,10.05,0,0,0,3.48-3.24l.24-.84a11.41,11.41,0,0,0-1.32-10.56c-.6.12-1,.24-1.08.6a207.76,207.76,0,0,0-26.16,49.2,105.76,105.76,0,0,1-16.32,28.92,44.54,44.54,0,0,0-5.28,8.52c.84-30.6.6-61.2-1-91.56C439.32,195.72,439.08,195.84,439.08,196ZM421.92,76.8a203.4,203.4,0,0,1-10.44,78,78.73,78.73,0,0,1-10,6.48,19.63,19.63,0,0,1-15.24,2c-18-5.4-25.92-17.76-23.64-37.08a370.62,370.62,0,0,0,2.4-51,84.42,84.42,0,0,0-6.48,36c.24,12.6,1,25.32,2.16,37.92,1.08,11.28,6.84,19.56,17.16,24.84s20.28,3.72,29.4-4.56Q425.46,152.7,426,127a209.07,209.07,0,0,1,1.92-25.8c1.32-10.44-.6-18.72-5.88-25.08Zm144,17C567,72.24,555.84,61.92,532.44,63L520.2,66.84a9.3,9.3,0,0,0-4.92,3.36Q487,112.86,499.44,164.88a64.49,64.49,0,0,0,3.24,10q18.36,41.58,34,84.84a474.45,474.45,0,0,1,26.52,120.48c.6,6.12,1.32,12.24,2.4,18.36,3.84,23.88-.84,45-14.16,63.6-10.56,7.2-22.44,9.6-35.64,7.32-16-2.88-25.44-12-28.44-27.24a151.12,151.12,0,0,0-8.4-29c-4.44,11.4-4.68,23.16-1,35.28a67.86,67.86,0,0,0,10.32,19.8Q514.2,501.9,553.92,480l7.2-9.6a27.92,27.92,0,0,0,5.16-11.16,238.32,238.32,0,0,0,5.64-71,523.51,523.51,0,0,0-22.8-121.8,320.36,320.36,0,0,0-24.84-58.32A196.74,196.74,0,0,1,504,154.2q-8.46-39.6,11.16-72.72c23-10.92,39.84-6.6,50.4,13.2ZM534.6,84.36l-2.16.6a80.35,80.35,0,0,0-19.32,39.12c-3.24,16.68.6,30.72,11.4,42.12,6.48,6.84,14.52,8.88,24.24,6.24,13.68-3.72,19.08-12.48,16.2-26a47.78,47.78,0,0,1-22.08,12.48c-10.2,2.76-16.92-1-20-10.92a49.1,49.1,0,0,1-2.28-17l33,2.52a7.8,7.8,0,0,0,2-3.24,12.42,12.42,0,0,0,.12-5.16,10.23,10.23,0,0,0-1.44-4.32l-.24-.36-31.8-1q2.34-14.22,14.76-19.8a26.39,26.39,0,0,1,16.32-1.92l-.48-9.24a51.37,51.37,0,0,0-9.6-3.72Z" transform="translate(-72.02 -60.12)"/></svg>