<svg id="Layer_1" data-name="Layer 1" xmlns="http://www.w3.org/2000/svg" viewBox="0 0 457.74 418.08"><defs><style>.cls-1{fill-rule:evenodd;}</style></defs><path class="cls-1" d="M202.68,303.72A386.67,386.67,0,0,0,193.08,426q2.34,31.14,32,35.64,47-22.14,54.36-73.92a187.79,187.79,0,0,0-.84-60.24q-7.56-44.1-52.44-48.24C213.6,283,205.68,291.12,202.68,303.72Zm44.4-4.32c14,8.76,22.8,21.36,26.28,37.68a108.19,108.19,0,0,1,.36,45.6A106.28,106.28,0,0,1,256.32,423c-9.48,13.56-21.84,19.2-36.84,17-12.48-1.8-19.32-10.2-20.64-25.32a384.84,384.84,0,0,1-1.32-44,246.94,246.94,0,0,1,5.64-46.92c3.72-17.16,13.8-26.64,30.24-28.32A19.65,19.65,0,0,1,247.08,299.4ZM99,288.24Q92.88,351.42,82.56,413.4l-.24-.48c-4.8-34.2-10.2-67.68-16.32-100.68a3.48,3.48,0,0,0-1.32,1.8,925.58,925.58,0,0,0-16,93.72c-2.64-22.68-4.68-45.6-6.12-68.52A226.72,226.72,0,0,0,30.36,276.6a1,1,0,0,0-.84,1.2q4.86,51.12,8.88,103.32A360.14,360.14,0,0,0,48.72,444l.72-.6Q58.62,395,64.68,346.08A282.94,282.94,0,0,0,70,385a282.94,282.94,0,0,1,5.28,38.88c.6,10.56,3.6,19.08,8.88,25.56q9.36-52.56,17.4-106.08a225.37,225.37,0,0,0,.72-63.48l-1,.12a3.24,3.24,0,0,0-1.92,2l-.84-.36c-1.56-1-1.92-.72-.84.84A9,9,0,0,1,99,288.24ZM201.24,58.44l-1.08-2.64A541.18,541.18,0,0,0,187.2,160c-.84,28.44-2.16,57-4.08,85.44a66.49,66.49,0,0,0-35.76-3.24L130.2,245.4a1264.16,1264.16,0,0,0,5.28-191.88q-9.18,106.74-14,213.84-2.7,56.16-7.68,112.08c-1,10.68-2.28,21.24-4,31.92l-2.64,17.76-.48,5.16a25.23,25.23,0,0,0,5.88,17Q127.5,399.66,127,342.24c-.36-28.44.48-57,2.4-85.44l52.92,2.28a1293.39,1293.39,0,0,1-16.44,169.68,49.73,49.73,0,0,0,.48,18.84,34.31,34.31,0,0,0,3.6,9.36,347.79,347.79,0,0,0,14.28-85.8q3.06-74.16,7.44-148.44,2.7-47.7,6.24-95.52l3.48-40,1.08-7.92A35.45,35.45,0,0,0,201.24,58.44Zm91,22.44A1213.32,1213.32,0,0,1,288,208.2a56.17,56.17,0,0,1-7.32,23.64c-10,17.28-24.72,21.72-44.52,13.32a25.23,25.23,0,0,1-4.44-8.52,306.38,306.38,0,0,1-7.8-114.12,219.58,219.58,0,0,0-1.8-64.08l-.36.12c-1.68,15.6-3.12,31.68-4.44,48.12a546,546,0,0,0,4.56,129.12c3.24,20.64,15.36,30.24,36.48,28.92,10.44-.72,18.36-5.52,23.76-14.52a120.84,120.84,0,0,0,16.56-58.56A1083.91,1083.91,0,0,0,295,63.36q-5.22,2.7-4.68,9.72a5.17,5.17,0,0,0-2.4,2.4l-.24.72c.12,1.32.72,1.08,1.56-.72C291.24,76.32,292.2,78.12,292.2,80.88Zm61.2-1.2.12,1.2a198.63,198.63,0,0,0-5.52,31q-4.5,47.7-12.48,94.68-10.62,63-20,126.24-4.68,31.68-11.16,63-6.66,31.86-10.2,63.72a5.16,5.16,0,0,0,2.64,2.4c1-.36,1.56-.84,1.68-1.44a637.67,637.67,0,0,0,18.36-82.32q9.9-63.18,18.36-126.48T353.64,125.4l2.76-19.8q5.22,50.58,5.76,102.24c.12,21.24,0,42.6-.6,64.08-.24,8.76,2.16,15,7.2,18.48a2.59,2.59,0,0,0,.72-1.68v-2l.12-.12a72.48,72.48,0,0,0,6-20.16q8.46-63,18.84-126,2.52-15.66,6.12-31.32A187,187,0,0,0,404,89.76q1.26,46.8,4.68,94.08c3,42.6,5.52,85.32,7.8,128.16l6.72,128.28q.9,18.54,8.28,31.32a3.49,3.49,0,0,0,1.44-3.24l-4.68-82.08c-2.28-42.72-5-85.44-8-128-1.44-21.48-2.64-42.84-3.72-64.32-1.92-40.2-5.76-80-11.4-119.28.12-4.32.12-8.64-.12-13a61.4,61.4,0,0,0-8,22.56l-13.2,74.52q-8.28,45.9-14,91.8c0-19.8-.24-39.48-.72-59.28A829.58,829.58,0,0,0,358.92,78.6l.6-16.32-2.28,6.48-1-4.92Q352.14,70.14,353.4,79.68ZM460,63.36q-36.9,62.46-31.92,139a526,526,0,0,0,8.4,65.52c1.68,8.64,6.48,13.92,14.52,16a12,12,0,0,0,8.4-.6l5.76-2.64a66,66,0,0,0,11-7.92A31.09,31.09,0,0,0,486,256.2a30.33,30.33,0,0,0-.6-16.68l-4.8,4.32-3.84.48L480,247a35.19,35.19,0,0,1-18.84,19.44,48,48,0,0,1-10.68,3.36l-3.24-1.08q-18-43.74-8.64-91.92a36,36,0,0,0,27.72,2.16,11.93,11.93,0,0,0,1.8-9,13.14,13.14,0,0,0-2.16-5.16,55.46,55.46,0,0,0-27.24,4.92,192.35,192.35,0,0,1,21-91.8,43,43,0,0,1,27.36,9.6l.12-.24c.6-14.52-6.36-22.56-20.64-23.88Z" transform="translate(-29.5 -53.52)"/></svg>