<svg id="Layer_1" data-name="Layer 1" xmlns="http://www.w3.org/2000/svg" viewBox="0 0 422.68 381.06"><defs><style>.cls-1{fill-rule:evenodd;}</style></defs><path class="cls-1" d="M185.88,94.44l-6,126.6-1.2,29.52-2.28-.24a291.6,291.6,0,0,1-61.68,6.48,27.69,27.69,0,0,0-11.4,2c.6-13.32,1.44-26.76,2.4-40.08A1064.57,1064.57,0,0,0,107.64,90.6c-2.76,1.08-4.08,3.48-4,7.08.12,42.84-1,85.56-3.48,128.16l-2,38.16a14.43,14.43,0,0,0-.48,8.28l-1,17.88q-3.06,64.62-1.68,129a18.53,18.53,0,0,1-1.44,7.32c-4.32,9.72-3.72,18,1.68,24.6a44.91,44.91,0,0,0,7.2-25.2q.18-39.24-.36-78.72c-.36-25.32-.12-50.4.72-75.48q37.8-1.62,75.36-6.72c-.84,28.08-1.08,56.16-1,84.36a402.63,402.63,0,0,1-4.8,64.68c-1.56,10.2.48,18,5.88,23.52a276.74,276.74,0,0,0,4.92-43c.6-14.64.72-29.28.6-43.8q-.9-64.44,3.24-128.28a879.68,879.68,0,0,0-.72-128.28C186,94.32,185.88,94.32,185.88,94.44Zm26.4,7,.36,1.92a1022.7,1022.7,0,0,1,42.36,122l2.52,7.68c1.8,4.08,3.6,8,5.64,11.88a114.19,114.19,0,0,0,6.24,10.44q-26.46,88.74-44.52,178.2a37.28,37.28,0,0,0-.48,3.84,27.29,27.29,0,0,0,1.8,11.16l.24-.12q30.06-108,55.32-217.08c2-8.88,4.32-17.64,6.6-26.4,4.68-17.4,9.72-34.92,14.88-52.32a336.72,336.72,0,0,0,9.24-38.76c1.32-7.56,2.16-15.24,2.76-22.92A862.69,862.69,0,0,0,272.16,243.6q-13.86-36.36-27.72-75.36a91,91,0,0,1-2.64-9.36c-1.8-8-4-16-6.48-23.64a228.6,228.6,0,0,0-10.92-27.12L218,95l-1.56-.48C212.88,94.2,211.44,96.48,212.28,101.4ZM360.36,84.48c-5.88-1.32-10.32.48-13.44,5.16-2.88,4.32-3.72,8.16-2.4,11.52a63.45,63.45,0,0,0-2.28,16.56c-.36,24.6-1,49.32-2,73.92-.84,21.36-1.92,42.72-3.24,64l-.48,8.52-.12,3.36q-3.42,58.5-7.44,117.24A324.37,324.37,0,0,1,325.08,417a137.93,137.93,0,0,0-.12,48.12c2,0,3.12-1.08,3.36-3.24,4.68-42.36,8.52-84.72,11.76-127.32,1.2-16,2-32,2.52-48l.48-11.52a58.54,58.54,0,0,0,28.08-5.28Q400,257,410.4,228.48a142,142,0,0,0,7.8-66.12Q411.9,106,360.36,84.48ZM407.88,213c-12.24,28.44-33.6,43.44-64.2,45.24q2-50.4,4.8-100.68a421.49,421.49,0,0,0-.24-53.76l.24-.48a4.22,4.22,0,0,0,.36-2.4l-.12-1.56c11.64-3.84,21.84-1.56,30.6,6.72q39.6,37.62,32.64,92.28A55.24,55.24,0,0,1,407.88,213Zm77-119.88a41.83,41.83,0,0,0-23.52,13.2,29.68,29.68,0,0,0-6.12,10.2A514.08,514.08,0,0,0,431,243.6l-.72,11.4-1.68.12a10.64,10.64,0,0,0-1.2,5.76,10.78,10.78,0,0,0,.84,3.24l1.44.36-5,74.64a242.29,242.29,0,0,0,6.12,74.64q7.2,29.7,33.48,41A264.27,264.27,0,0,0,508.44,410c6.6-8.52,6.6-15.6.24-21.48a73.37,73.37,0,0,1-9.12,12.84c-10.92,12.24-22.32,23.88-34.2,35l-5.28-.24-1.68-.6a59.5,59.5,0,0,1-16.56-18.48,47.59,47.59,0,0,1-6-19.8A860.45,860.45,0,0,1,434,280.56l1-15.12a88.89,88.89,0,0,0,40.44-2.4,12.47,12.47,0,0,0,1.8-5.76,12.89,12.89,0,0,0-1.8-7.2,1.24,1.24,0,0,0-1-.48l-5.88-.6c-10.8,2.28-21.72,4.08-32.88,5.4a1009.78,1009.78,0,0,1,12.72-100.56,67.45,67.45,0,0,1,17.64-34.92q21.24-22.32,41.76-4c2.28-4,2.16-8-.12-12.36l-2.52-4.68-1.08-.72A27,27,0,0,0,484.92,93.12Z" transform="translate(-90.74 -84.06)"/></svg>