<svg id="Layer_1" data-name="Layer 1" xmlns="http://www.w3.org/2000/svg" viewBox="0 0 520.57 399.36"><defs><style>.cls-1{fill-rule:evenodd;}</style></defs><path class="cls-1" d="M157.2,99.84C152,142.2,148.68,185,147.12,228.12L146,261.84q-36.54.36-72.48-.72v.12l-3.24.24-1.08.12-1.2.24q1.62-46.26,3.72-92.52c.48-10.8,1.2-21.6,2-32.28A220.2,220.2,0,0,0,73,89c-1-.12-1.56.24-1.68,1.08-4.2,37.56-6.84,75.36-7.8,113.64L60,332q-1.8,64.44-6.12,128.16a21.53,21.53,0,0,0-4.68-2.4,34.35,34.35,0,0,1,4.68,5.64c-1.32,6.48.12,11,4.32,13.56a254.6,254.6,0,0,0,6-51.12Q65.1,362,67,297.72l.84-25.92a305.25,305.25,0,0,0,77.64,5.52L144,324.72c-1.2,42.36-3.36,84.36-6.36,125.76a2,2,0,0,1-1.08-1.2,6.13,6.13,0,0,1,0-3.6l-1,1.2a7,7,0,0,0-.84,4.68l.36.6a5.43,5.43,0,0,1,2.28,2.64c-2.76,8.88-1.68,16.08,3.24,21.72a10.79,10.79,0,0,0,4-7.8l4-54.36q4.86-63.72,4.92-128.28c0-43.08,1.08-85.8,3.36-128.4a166.81,166.81,0,0,1,4.92-31.92c3-12.12,2.4-22.68-1.56-31.56A7.17,7.17,0,0,0,157.2,99.84Zm147.12,25a66.73,66.73,0,0,1,19.8,27.84,320.21,320.21,0,0,1,20.16,111.72A340.08,340.08,0,0,1,319.8,392.64c-13.32,33.24-37.68,53.76-73.32,61.68a8.88,8.88,0,0,1-8.16-2,422.29,422.29,0,0,1-38.64-37.56C185.88,382,180.36,347.4,183.24,310.8c1.2-16,2.28-31.92,3.12-47.88a294.41,294.41,0,0,1,26.76-108c12.12-26.28,31.92-41.64,59.64-45.84l1.8.24.12.24.6.72,1.2,1a20.64,20.64,0,0,1,14.88,4.2,41.08,41.08,0,0,1,9,9.84l1.32-.36.84-.48.48-.24A2.66,2.66,0,0,1,304.32,124.8ZM282.48,87.12l-.36.48a6.06,6.06,0,0,0-1.8,3.84,5.76,5.76,0,0,0-5.76,2.76c-19.8.72-36,8.88-48.84,24.36a170.74,170.74,0,0,0-36.36,76.8c-4,20.28-7.2,40.8-9.6,61.44a516.61,516.61,0,0,0,1.56,128.4,96.12,96.12,0,0,0,9.6,30.84,195.6,195.6,0,0,0,35.64,49.8,12.9,12.9,0,0,0,9.12,3.84q56.16.36,81.12-50.52A331,331,0,0,0,350,295.92a467.07,467.07,0,0,0-8.16-127.44Q331.08,115,283,92.28v-.6C284.64,89.64,284.52,88.08,282.48,87.12Zm106.2,15.6c-2.16,1.68-3.12,4.32-2.88,8a142.12,142.12,0,0,1-1.92,32.64l-21.6,125.52L351.36,332q-11.16,64.08-27.48,125.28l-.24-.6a13.69,13.69,0,0,0-.84-4.92l-.48.48a42.52,42.52,0,0,0-.84,8.76,7.5,7.5,0,0,0,1.56,2.4v.84a22.8,22.8,0,0,0,1.32,9,3.66,3.66,0,0,0,3.6,1.8,107.13,107.13,0,0,0,10-26.88q14.22-62.1,23.76-125.4L381,196.08c1.56-10.44,3.72-20.88,6.24-31.08L390,152.16q7.56,53.28,13.68,106.8c1.2,10.56,2.16,21.12,2.76,31.8.48,9.6,3.12,17,8,22.32l.6-1,.12-.12.36.84a45,45,0,0,0,6.12-17.28q9.18-63.36,22.44-125.76c1.32-6.12,2.52-12,3.36-17.88a187.15,187.15,0,0,0,2.28,21.36c1.32,7.56,2.4,15.24,3.24,22.8,5.16,42,11.28,83.76,18.12,125.4,6.84,42.12,12.48,84.36,16.8,127,1.32,11.88,4.8,22.2,10.44,30.72a5.76,5.76,0,0,0,2.4-4.08,84.09,84.09,0,0,0-1-26.28q-8.82-43.74-16-87.84Q473.22,297.78,465,234.12q-8.1-63.36-14.28-126.72h-.12l-.12-1.08a47.72,47.72,0,0,0-6.48,17.4q-11,63-23.28,126c-1.56,7.56-3.24,15-5,22.44l-.12-2-.72,1.56-1.2,3.24c-2.28-15.12-4.32-30.24-5.88-45.48-4-39-9.12-77.52-15.36-115.8-.24-4.2-.6-8.28-1.2-12.48l-2,1.08-.36-.24ZM569.4,130.44c2.28-16.32-6.12-24.84-25-25.44-10,1.68-17.16,7-21.84,16-17.64,34.2-25.92,71-25.08,110.4q1.44,64.62.12,129.12A474.84,474.84,0,0,0,506,461.16c3.12,15.84,12.12,24.24,27,25.32a104.58,104.58,0,0,0,15.48-10.2q23.76-18.72,17-44.16a180.29,180.29,0,0,0-16,18.84,36.19,36.19,0,0,1-13,11.16c-13.56,6.84-21.72,2.4-24.72-13.32a374.74,374.74,0,0,1-6.6-78.12c.36-23.28.36-46.56.12-69.84,12.36-.84,25-1.08,37.56-.72a9.2,9.2,0,0,0,2.64-5.76,14.49,14.49,0,0,0-1.32-8l-.72-1.68-1.32-.36-20.64-1a67.31,67.31,0,0,0-16.44,4.08c-.24-15.24-.6-30.48-1.2-45.72a253.62,253.62,0,0,1,17.64-102.84A23,23,0,0,1,531.84,127q21.78-12.42,37.44,4.32Z" transform="translate(-49.2 -87.12)"/></svg>