<svg id="Layer_1" data-name="Layer 1" xmlns="http://www.w3.org/2000/svg" viewBox="0 0 478.08 401.16"><defs><style>.cls-1{fill-rule:evenodd;}</style></defs><path class="cls-1" d="M145.68,101.4l-2.76,43.8c-2.28,33.24-4,66.48-5,100a11.65,11.65,0,0,0-2-4.92c-23,2.28-45.84,3.36-68.4,3.36Q68.88,183.3,72,123.12A354.76,354.76,0,0,0,69.84,59c-2.52.6-3.72,2.52-3.6,5.64.12,42.84-.72,85.68-2.4,128.28L59.4,322C58.08,365.4,56.88,408.12,56,450.24c1.32.84,2.16.6,2.52-1a317.74,317.74,0,0,0,7.2-68c.12-43.08.72-86.16,1.56-129a198.87,198.87,0,0,0,68.52,1.08l.6-1,1.32-3.24L137,274.44q-1.62,63.9-2.28,128.16l-.36,16.2q-.54,18.18,5.76,31.68a435,435,0,0,0,3.6-69q-1.62-64.62.6-129t7.44-128.16c1.8-21.84,2.52-43.2,2.4-64.2C149.28,72.48,146.52,86.16,145.68,101.4ZM212,170.16c.84.24,1.2.48,1.2.72a14,14,0,0,0,3.6,7.56c17,18.84,24.6,41.28,22.8,67.08q-2.52,37.62-34.56,55.92c-3.72,2.16-7.08,2-10-.24q-26.46-21.06-21.72-57.72c1.8-13.56,4-26.88,6.72-40.08C184.08,184.56,194.64,173.4,212,170.16Zm-8.64-13.8a24.07,24.07,0,0,0-10.8,9.6q-31.14,52-22.8,112.68c2.28,16.08,9.84,28.56,22.92,37.32a11.54,11.54,0,0,0,11.16,1c18.36-7.32,30.24-20.64,35.76-39.72q17.1-58.14-14.52-108.6a13.57,13.57,0,0,0-6.6-10.08L217,157.2l-4.92-.36Zm95.52-88.2-.72.24a368.75,368.75,0,0,0-21,72q-11.34,62.82-24,125.28-12.78,62.82-27.36,125.16a160.5,160.5,0,0,1-7.08,22.68c-5.64,13.8-7,27-4.2,39.72,3.12-1,5.16-3.24,6.12-6.72q15.84-62.1,29-125l9.84-48.36A481.08,481.08,0,0,0,322.32,270l4.08,23.88a1043.34,1043.34,0,0,1,14.52,127,81.27,81.27,0,0,0,7.56,31.32,2.85,2.85,0,0,0,1.08-1.44,305.6,305.6,0,0,0-2.16-73.92l-14.64-95q-7.38-47.34-16-94.56A948.5,948.5,0,0,1,302.16,60.36q-7,40.32.72,83.76,5.58,31.5,10,63.36,3.42,24.3,7.2,48.6a375.69,375.69,0,0,0-58.44,7.08l12.84-67.56Q286.14,132.78,300,70.68l-.24-.84Zm91.32,103.92c7.56-1.32,13.56,1.08,18,7.32q2.7-15.3-10.44-22a29.34,29.34,0,0,0-13.56-3.24q-34.38,24.66-39.6,70.68A292.8,292.8,0,0,0,343.8,281q2.34,29.34,28.8,34.2a38.09,38.09,0,0,0,29.16-6.6,41,41,0,0,0,10.8-11.52,6.39,6.39,0,0,0,.48-5.88l-4.32-1a74.13,74.13,0,0,1-43.56,10l-2.88-.36c-9.12-16-12.6-34-10.56-53.76a337.22,337.22,0,0,1,7.44-43.8C363.48,185.4,373.8,175.32,390.24,172.08ZM534.12,63.36q-14.94,32.94-14,73.44.9,43.2-1.56,86.52L516.24,221l-76.56,7.2L445.32,66a593.8,593.8,0,0,0-11.16,162.84l-1.2.84-.36.72-.72,2.4-.36,1.32c-.6,2.88.12,4.8,2.28,5.88q-3.42,95.58-13.56,190.2a40.2,40.2,0,0,0,1.44,16.08l1.2,3.84a12.59,12.59,0,0,0,1.68,3.36h.6A1192.49,1192.49,0,0,0,438,291.36c.12-17.16.6-34.2,1.2-51.36l78.12-4.08q-1.62,94.86-10.2,192.48a75.79,75.79,0,0,0,.6,17.28l.84,3.84,1,3.84,1.32,3.48,1.68,3.36A982.4,982.4,0,0,0,523.8,320.28q.54-64.26,4.68-128.16l1.8-32,1.92-32,1.92-32.16Z" transform="translate(-56.04 -59.04)"/></svg>