<svg id="Layer_1" data-name="Layer 1" xmlns="http://www.w3.org/2000/svg" xmlns:xlink="http://www.w3.org/1999/xlink" viewBox="0 0 595.57 842.23"><defs><style>.cls-1,.cls-3{fill:none;}.cls-2{fill:#fff;}.cls-3{stroke:#fff;stroke-linecap:round;stroke-linejoin:round;stroke-width:0.38px;}.cls-4{clip-path:url(#clip-path);}.cls-5{fill-rule:evenodd;}</style><clipPath id="clip-path" transform="translate(0.19 0.24)"><rect class="cls-1" x="13.8" width="579.84" height="586.32"/></clipPath></defs><rect class="cls-2" x="0.31" y="0.36" width="595.08" height="841.68"/><rect class="cls-3" x="0.19" y="0.24" width="595.2" height="841.8"/><g class="cls-4"><path class="cls-5" d="M565.44,520.32c4.68-2.28,8.88-2.88,12.6-1.68s5.76,4.08,5.76,8.28a7,7,0,0,1-.36,2.52L582.12,531l-5.64-2.76c-2.52-1.32-4-2-4.08-2-7.2,0-13.08,5-17.52,15.12l-2.16,5.52A71.53,71.53,0,0,0,576,541.32l.84,1.32a5.69,5.69,0,0,1,.48,2.76c0,3-2,5-6.24,6.24q-11,2.34-20.88,5a17.54,17.54,0,0,0,2,8.52c1.68,2.88,4.68,5.88,8.88,9.12,7.8-1.32,14.28-3.72,19.44-7.08a84.06,84.06,0,0,0,10.8-8.64,4.58,4.58,0,0,1,1.56,1.32,5.54,5.54,0,0,1,.6,2.76c0,.48-.84,1.68-2.4,3.72a57.71,57.71,0,0,1-6.48,6.84c-7.08,6.48-13.8,9.72-20.28,9.72s-11.52-4.08-14.64-12.36a54.68,54.68,0,0,1-2.28-8.76,26.74,26.74,0,0,1-.48-4.32c0-9.48,1.92-17.76,5.76-24.6A30.58,30.58,0,0,1,565.44,520.32ZM20,3.48c1.68,3.12,3,13.8,4.08,32.16C24.84,49.2,25.2,61.8,25.2,73.32q0,25.74-2.76,73.8c-1.32,24-2.16,47.16-2.52,69.36l2.88,1.08,4.8,1.92q33.48,0,58-5.76,5.94-1.44,6.84-.72c.6.48,1,2.64,1,6.6a10.51,10.51,0,0,1-1.08,5.28,4.56,4.56,0,0,1-3.12,1.92l-18.84,1.56-20.88,2.4-13.68,1.92c-7.2,0-12.48-.72-16-2.28v7.68c0,26.16.12,43.44.48,51.84.6,16.44,2.16,36.24,4.92,59.28v54.36l1.08,4.08v43.8c.72,2.76,1.08,7.08,1.08,13.08q0,21.06-8.4,121.68c-.48-.36-1.44-2.88-3-7.32s-2.16-7.32-2.16-8.4a221.34,221.34,0,0,1,1.56-25.8c.84-7.2,2-16.32,3.84-27.48,2.16-13,3.24-30.48,3.24-52.68a38.18,38.18,0,0,0-1.08-8.16V411.72a18.89,18.89,0,0,1-1.08-4.08V353.28c-2.64-22.08-4.32-42.36-4.92-60.72-.36-9-.48-27.24-.48-54.48V225.6l-.12-1.32.12-2.52.12-1.68q.54-38.34,2.64-78c1.8-32.52,2.64-55.44,2.64-68.76L18.12,9.6A9.12,9.12,0,0,1,20,3.48Zm83,8c0,17.88-.12,33.12-.48,45.84-.6,16.8-1.44,32.28-2.76,46.32V168.6a33.2,33.2,0,0,1-1.08,4.8v73.08l-1.08,4.92v67.32A238,238,0,0,0,96.6,345c0,14.52,1,34.68,2.76,60.6S102,458.28,102,485.52c0,16.44-.36,28.8-1.08,36.84V567a45.87,45.87,0,0,0-.36,8.76A16.51,16.51,0,0,1,97.92,584c-1.92-.48-3.12-1.92-3.72-4.32a32.6,32.6,0,0,1-.36-6.24c0-2.76.72-6.72,2.28-12.12v-43.8c.72-7.08,1.08-17.88,1.08-32.52q0-34.92-2.76-73.92c-1.8-25.92-2.76-47.88-2.76-65.76q0-20,1.08-30.6V247.32a35.67,35.67,0,0,1,1.08-4.92V170.16l1.2-5.64V99.6c.36-6.36.6-14.52.84-24.72l.48-25.8c.6-20.64,2.16-36.6,4.8-47.76C102.48,3.84,103.08,7.32,103.08,11.52ZM182.88,23A90.18,90.18,0,0,0,167.16,37q-7,7.74-9.36,13.68-17.28,44.82-21.72,108.72c-.84,12.12-1.68,30.48-2.4,54.84s-1.56,42.48-2.4,54.72v60.84c-1.8,13.56-2.88,21.6-3,23.88-.12,2-.24,8-.24,17.88l1.08,18.12,1.08,18-1.08,22.08L128,451.92c0,6.6.6,16.32,1.68,28.92,1.08,12.24,1.68,22.44,1.56,30.72,0,13.68,1.68,23.64,5.16,30,2.64,4.92,6.84,10.44,12.48,16.68C156,566,161.64,570,165.84,570q31.5,0,55.2-58.44a325.4,325.4,0,0,0,13.44-40.8L239,451c3.12-16,5.52-36,7.08-60,1.32-27.12,2.52-47.16,3.48-60.12V277.32a33.2,33.2,0,0,1,1.08-4.8V224.64c.72-4.32,1.08-11.28,1.08-20.76q0-16.74-2.88-56.52c-2-29.16-3.24-46.68-3.36-52.68a111.13,111.13,0,0,0-4.08-27.36,106.19,106.19,0,0,0-11.28-27,40,40,0,0,0-22.32-17.64C198.6,19.44,190.2,19.56,182.88,23Zm52.32,7.44,5.16,13.32a110.38,110.38,0,0,1,8.52,26.64c1.2,6,2.76,15,4.56,27q.54,2.7,1.8,47.52c1,29.88,1.44,49.56,1.44,59.16q0,16.74-1.08,24.84v47.88l-1.08,4.8v53.52c-2.28,32.52-6,73.92-11.4,124.2C242,469.92,238.92,482.52,234,497a309.56,309.56,0,0,1-17.28,40.56Q206.28,557.94,196.2,570c-7.32,8.76-13.56,13.2-18.72,13.2q-40.32,0-51-58.08a250.38,250.38,0,0,1-3.84-44.28l.48-29.16,1.08-22,1.08-22c-1.44-20-2.16-32.16-2.16-36.12,0-11.4.12-18.48.24-21.24.36-4.92,1.32-13.44,3-25.68V264.6a202.46,202.46,0,0,0,.48-21L126.36,229q0-5.58,2.88-47.88c2-29.64,3.6-49.2,4.68-58.44,2.76-24.36,5.88-42,9.12-53.16A134,134,0,0,1,172.68,16.2c5.52-6,15.72-7.44,30.6-4.44A102.3,102.3,0,0,1,227,19.44C230,21.24,232.8,25,235.2,30.48ZM287.76,92l-6.24-19.8q-3.42,8.1-7.2,19.8ZM282.6,59.76c.72,2.64,4.56,13.44,11.64,32.28a5.14,5.14,0,0,1,2,1.56,4.23,4.23,0,0,1,.72,2.76,5.37,5.37,0,0,1-.48,2.4c5.4,16.08,8,27.12,8,33.24l-.24,4.08-.72.48-1.2.6c-3-8-6.48-18.6-10.56-31.8l-1.08-3.72-10.92-.48-8.16-.6-.48,1.8c-4.68,16.44-7.8,26.52-9.12,30.48a13.88,13.88,0,0,1-2.4-3,6,6,0,0,1-.6-1.8c0-1.08,1.68-6.24,4.92-15.72l4.92-15.12-.12-.84a5.54,5.54,0,0,1,1.32-4.08,112.88,112.88,0,0,1,4.32-16.68C276.84,68.4,279.6,63.12,282.6,59.76Zm111.24,320c8.76,15.12,16.92,29.4,24.36,43,10.8,19.56,16.2,30.12,16.2,31.92l-.24,2.88-1.08,2-19.8-34.08c-8.4-14.52-14.64-26-18.6-34.68a536.43,536.43,0,0,1-27.6,63.36c-1.8-3.36-5.64-12.12-11.28-26.28-4.68-11.88-9.24-21-13.92-27.36-2.52,6.12-6.6,16.56-12.12,31.32-5.16,13.32-10.2,23.76-15,31.2l-2.16-1.56a5.4,5.4,0,0,1-.48-2.76c0-2.4,3.48-11.88,10.32-28.56q10.8-26.28,18.36-39.6A155.15,155.15,0,0,1,356,416.76l11.28,26.88a326.8,326.8,0,0,0,14.4-32.16C387.24,397,391.32,386.4,393.84,379.8Zm1.56-48.6c0,2.28-2.4,10.92-7.32,26.16-5.4,16.44-9.84,27.36-13.2,33-5.4-5.64-12-13.92-19.56-24.84q-12.78-18.18-18-24.48c-.72,3.6-1.32,8-1.92,13.44l-1.32,13.2c-1.2,10.44-3.6,19.08-7.32,25.92a4.49,4.49,0,0,1-1.32-2,9.18,9.18,0,0,1-.36-3c0-2.76,1.32-11.16,3.84-25.2,2.88-15.72,5.4-26.16,7.56-31.2,5.28,4.92,11.64,12.84,19.2,23.76,7.32,10.8,13.8,18.72,19.44,23.88l9-28.08c3.6-11.16,7-19.8,10-25.68l1.08,2.16Zm-30.24-73.56c0,3.48-1.8,5.16-5.4,5.16l-3.24-1a31.79,31.79,0,0,0-9.24-1.8l-6.24-.36-6.48-.72L323.4,260l-6.36.84c-.36,0-2.28-40.44-6-121.2l.24-2.4.6-1.44a498.44,498.44,0,0,1,5.88,55.92q1.62,31.14.36,59.4l11.4-.6,6.72.24,12.12,1.08c8,.24,13.08,1,15.36,2.16Q365.16,254.94,365.16,257.64Zm51.72-7.44.24,2.76c0,4.56-7.8,18.12-23.4,40.8L377,317.52c-5.4,7.56-8.28,12-8.88,13.32-.12,0-.36.12-.6.48l-.84.84c-1.68-3.36-3.84-8.64-6.6-15.84l-6.12-16c-1.08-2.52-4-8.64-8.88-18.24-4-7.8-6-12.24-6-13.44a14.15,14.15,0,0,1,.24-2.64l.12-.6.36-.48,1-.84c5.64,6.72,10.68,16,15,27.84l4.92,14.52c1.92,5.76,3.6,10.2,4.92,13.32l26.64-37c10.32-14.64,18.12-26.16,23.52-34.68Zm53.76-57.36c3.72-1.8,7.68-.6,12,3.48a48.63,48.63,0,0,1,9.6,14c2.52,5.64,3.84,10,3.84,13L496,227.4c-.36,1.32-1.8,2.64-4.2,4a50.74,50.74,0,0,0-1-14.88c-2.16-9.24-7.32-13.8-15.48-13.8q-17.82,0-26.88,81.48c-2.4,22.32-4.08,44.64-4.92,67.08,2.52-1.44,6.72-2.64,12.6-3.72,5.76-.84,16.8-1.92,33.24-3.24l1.08,2,.24,2.88a8.06,8.06,0,0,1-.36,2.76l-1.2,1.8a194.24,194.24,0,0,0-22.2,3.36,113.45,113.45,0,0,1-20,2l-3.6-.36-.24,7.08c0,5.16.24,13.32.72,24.36.84,18.12,2,34.8,3.72,49.92q7.74,71.46,24.84,71.4c15.6,0,28.08-9.72,37.32-29.16a107.47,107.47,0,0,0,7.44-22c1.56-6.48,2.16-11.16,1.8-14.16l.48-.48,1.08-1.08c1.08,1.92,1.68,4.8,1.68,8.52,0,17.52-4.8,33.12-14.28,46.68s-20.28,20.28-32.4,20.28c-13.08,0-22.2-12-27.24-35.88a184.79,184.79,0,0,1-3.36-25.92l-.72-14.52c-2.88-42.36-4.32-68.16-4.32-77.16,0-13.92.84-31.92,2.4-54.12,1.56-23.64,3.36-39.84,5.16-48.72a493.37,493.37,0,0,1,12-52C462.36,201.36,466.2,195,470.64,192.84Zm-112-151.56c0-5.4-2-11.4-6.24-18.24C347.28,14.28,340.8,10,333.24,10a26.24,26.24,0,0,0-8,1.32l-2.64,1.08,1.8,12.36c1.92,14.76,2.88,24.36,2.88,28.68V65.52A36.24,36.24,0,0,0,341,64.08L342.12,63l.36.48a26.41,26.41,0,0,0,10.44-8.16,31.26,31.26,0,0,0,4.68-9.12A19.28,19.28,0,0,0,358.68,41.28Zm3.24-.84A42,42,0,0,1,358.32,58a26.69,26.69,0,0,1-12,13.08c3.6,7.08,8,16.92,13.44,29.52,7.92,18.24,11.88,28.44,11.88,30.72l-.24,2.88-1.08,1.92q-7.56-13.5-19.8-41l-9.6-21.84-.72.12h-13c-.12,10.56-.24,18.12-.48,22.68-.72,16.32-2.52,30-5.4,41.16a32.16,32.16,0,0,1-2-6.72,33.15,33.15,0,0,1-.72-6c0-6.84,1-18.6,2.76-35.52L323,71.16l-.12-1.92.24-2.4.24-.48c.36-5.4.6-9.6.6-12.84,0-4.2-.84-13.44-2.64-28l-1.44-11.28-.48.6c-1.32-.72-1.92-2.64-1.92-5.64a13,13,0,0,1,1.08-5.76h.12A4.54,4.54,0,0,1,320.28,0L321,2.76c14-4.08,25,0,32.76,12.36a53.53,53.53,0,0,1,6.48,15.24A45.51,45.51,0,0,1,361.92,40.44ZM379.44,4.92c-.84-1-1.32-1.56-1.32-1.92a13.93,13.93,0,0,1,.24-3.24c23.4,3.12,41.52,22.2,54.12,57.12a233.62,233.62,0,0,1,10.8,42.48,210,210,0,0,1,3,33.24c0,14-2.16,25.92-6.48,35.76-7.56,17.16-21.12,26.28-40.56,27.6l-14.16,1.2-5.28,1-11.4-.36-.84-2.16-.24-3.12a12.53,12.53,0,0,1,.84-5.16,47.18,47.18,0,0,1,4.08-6.6,13.88,13.88,0,0,1,1.32,8.16l1.44-.12-.12-4.68a402,402,0,0,1,4.32-55.8V39a51.9,51.9,0,0,1-1.08-12.24c0-6.84.12-11.52.24-13.8A57,57,0,0,1,379.44,4.92ZM413,31.44c-3-3.24-10-8.76-20.88-16.68-4.92-3.6-8.64-6.36-10.92-8.28.24,14.76.6,35.28,1.2,61.56l-.24,63.36c-.36,20.76-1.32,39.72-2.76,56.88l4.56-.48,16.32-1.68c17.4-2,29.52-9.84,36.48-23.4,4.2-8.16,6.24-18.24,6.24-30.24,0-9.48-1.2-20.76-3.48-33.84-.84-4.08-3.24-15.36-7.32-34a60.9,60.9,0,0,0-6.48-16.08A84.83,84.83,0,0,0,413,31.44ZM453.6,5.16c2.4,1.32,3.6,3.6,3.6,6.72L457,14.4,456.12,16l-.12.6c-.24.36-1,.48-2,.48-.24,0-1.2-1-2.76-2.76S448,11.4,446.28,11.4c-4.2,0-6.84,2-8,6.24a20,20,0,0,0-.6,6.6l.24,5.76q11-1.62,14.4,0c1.08.48,1.68,1.68,1.68,3.6,0,1.56-.24,2.64-.84,3.24C452,38.28,449.52,39,445.8,39l-7.32-.24.36,4.56c.84,11.4,1.8,17,2.88,17,5,0,8.64-1.44,10.68-4.32A8.17,8.17,0,0,0,454,49.2l.48-.48,1.08-1.08a11.24,11.24,0,0,1,1.68,6.48c-2.76,10.08-6.48,15.12-11.4,15.12-5.16,0-8.52-6.84-10.2-20.52-.36-2.88-.72-6.24-.84-10.08h-.36l-.72-1.2a8.06,8.06,0,0,1-.36-2.76,10.92,10.92,0,0,1,.24-2.52l.84-1.56h.12l-.12-6.24c0-5.4,1.2-9.84,3.6-13.44a13.87,13.87,0,0,1,7.8-6.12A9.66,9.66,0,0,1,453.6,5.16Zm75.6,31.68c-7.32-14.28-17.52-21.36-30.6-21.36-10.56,0-19.08,6-25.68,18.12a68.9,68.9,0,0,0-5.64,13.92,41.21,41.21,0,0,0-1.68,9.6c0,6.84,5.28,24,15.72,51.36l16.08,41.28c7.32,18.6,13.44,34.8,18.48,48.6q50.22,137.34,50.28,221.4,0,8.46-4,43.92-3.6,32.58-4.68,38.16-4.14,22.86-26.4,52.08a135.18,135.18,0,0,1-18.6,20.16c-6.24,5.4-11.16,8-14.76,8-19.32,0-35-3.36-47-10-8.76-4.68-14.28-10.2-16.8-16.56-1.32-3.24-2.4-8.16-3-14.52a93.07,93.07,0,0,0-2.4-14.64c-1.44-4.44-2.76-14.88-4.08-31.32-1.08-13.56-1.68-22.44-1.68-26.76a9.12,9.12,0,0,1,1.92-6.12c2.16,1.56,3.84,6.24,5,14.16a83.23,83.23,0,0,1,1.2,12.72,72.88,72.88,0,0,1-1.08,7.68,72.88,72.88,0,0,0-1.08,7.68c0,6.84,1.8,15.84,5.28,27.24,4.68,14.76,10.56,24.72,17.76,29.64,4.56-.84,9.36.24,14.28,3l5,3.12a7.74,7.74,0,0,0,3.36,1.44c12.84,0,23.52-2,32-6a53.3,53.3,0,0,0,19.8-16c4.08-5.4,8.52-13.2,13.32-23.52L553,495.36c2-4.2,4.08-15.6,5.88-34.2,1.68-16.56,2.52-30.12,2.52-40.56q0-45-15.72-106.56C537.72,283.2,526.2,246.84,511,205.2q-25-66.42-34.56-92.16C466,84.36,460.68,65.52,460.68,56.64c-.12-6.84-.12-11.76,0-14.88a40,40,0,0,1,2.76-13.68c4-9.72,14.16-18,30.48-25.08,8.52-3.72,16.2-2,23.28,5a86.13,86.13,0,0,1,7.68,9.24,35,35,0,0,0,6.72,7.32c6,9.24,9.24,14.52,9.72,15.72q1.08,2.52,1.08,11.88l-.12,6.48c-.36,3-1.08,5.16-2.28,6.24q-1.08-1.8-4.32-11.52A141.23,141.23,0,0,0,529.2,36.84Z" transform="translate(0.19 0.24)"/></g></svg>