<svg id="Layer_1" data-name="Layer 1" xmlns="http://www.w3.org/2000/svg" viewBox="0 0 474.36 398.52"><defs><style>.cls-1{fill-rule:evenodd;}</style></defs><path class="cls-1" d="M156.6,73.56q-.18,52-1.8,104.76c-.6,18.48-1.08,37-1.2,55.44a289.86,289.86,0,0,0-84.12,10.92l2.16-45q3.42-65,2.52-128.28c-1.32-.12-2,.36-2.16,1.68q-4.86,51.3-6.72,103.08-2.34,64.26-2.64,129.12A866.67,866.67,0,0,1,52.44,434C50.64,446.28,52.44,457,58,466a17.18,17.18,0,0,0,3.6-9.72q4-63,5.28-127.44.9-37.8,2.28-75.36a6.87,6.87,0,0,0,3.36,1.68l47-2.76a159.09,159.09,0,0,0,34-4.44c0,19.8.24,39.72.6,59.52a921.73,921.73,0,0,1-5.76,128.88c-1.32,12.48.36,22.92,5,31.44A364.18,364.18,0,0,0,158,427.2c2.76-42.72,3.6-85.68,2.76-129q-1.26-64.62,2.16-129a425,425,0,0,0-5.52-95.88C156.84,73.44,156.6,73.44,156.6,73.56ZM381.12,183.12a302.21,302.21,0,0,0-39.72-93h-2.28l-1-.24-.48-1-.84-1.56-.72-1.56-.36-.84-1.32-.84a75,75,0,0,0-37.92-14.88,93.39,93.39,0,0,0-16.32,5.52,92,92,0,0,0-38.4,31.8,299.86,299.86,0,0,0-18.72,30.12,261.38,261.38,0,0,0-32.52,125,755.86,755.86,0,0,0,9.36,125.64c4.44,27.48,18.84,47.88,43,61.2q40.5,22.32,80,1.68a47.57,47.57,0,0,0,19.2-17.88A332.49,332.49,0,0,0,386.4,310.08,325.6,325.6,0,0,0,381.12,183.12ZM365.88,362.28a262.51,262.51,0,0,1-21.36,46q-21.78,37.44-66.24,33c-31.8-3.24-55-18.6-69.72-46.2l-.36-2.4A626.68,626.68,0,0,1,196.32,265.2,243.64,243.64,0,0,1,229.68,143l9.84-16.8q20-33.3,55.92-41.52a63.1,63.1,0,0,1,38.16,13.2l.84,1.68a10.1,10.1,0,0,0,3.72,4.08c4,10.44,8.28,20.64,13.08,30.72a324.58,324.58,0,0,1,28.68,99.24A276.11,276.11,0,0,1,365.88,362.28Zm84.84-262.2A213.39,213.39,0,0,0,419.4,182.4a607.15,607.15,0,0,0-6.72,128c1.08,21.72,1.68,43.32,1.56,64.8-.12,31.8,10.08,59.4,30.84,82.68a18.75,18.75,0,0,0,11.4,6.48q30.78,5,54.72-17.64,22.5-21.42,11-46.92a.93.93,0,0,0-.84.36,10.74,10.74,0,0,0-2.76,10.2l.6,4.08c-6.12,13.2-15.36,23.16-28,29.76q-33.48,18-52.8-12.6A110.82,110.82,0,0,1,421.32,376q-1.62-45.54-4.32-90.84c13.92-2.88,27.84-5.16,41.64-6.72l.6-.84c2.28-4.56,2-8.88-.84-13a206.36,206.36,0,0,1-25.56,3.12c-8.4.48-13.92,2.64-16.56,6.36A353.32,353.32,0,0,1,430.8,156.24a105.34,105.34,0,0,1,30-48.24c21.24-19.32,40.44-18.24,57.6,3.48a14.24,14.24,0,0,0-1.2-11.4,55.61,55.61,0,0,0-16.68-19.2l-2-.84a19.35,19.35,0,0,0-13.56-1.56l-3.24,1.08A83.28,83.28,0,0,0,450.72,100.08Z" transform="translate(-51.77 -69.24)"/></svg>