<svg id="Layer_1" data-name="Layer 1" xmlns="http://www.w3.org/2000/svg" viewBox="0 0 511.58 470.37"><defs><style>.cls-1{fill-rule:evenodd;}</style></defs><path class="cls-1" d="M152.4,70.2q-6.12,35.64-14.76,71.16a636.26,636.26,0,0,0-16.68,109q-13.14-56.7-27.84-112.56l-.84-.84-1.08-.84v-.48c-.36.12-.6.24-.6.36q-12.06,51.3-21.12,103.68a76,76,0,0,1-4.32,14.88l-.72,1.8q-7-36.18-11.28-72.72Q45.78,119.7,36.24,56.88c-1.32-.12-1.92.36-1.92,1.56a438.53,438.53,0,0,0,4.2,65c5.88,42.12,11,84.24,15.48,126.6a92.46,92.46,0,0,0,8.28,30.84c.84-2.28,1.56-4.68,2.16-7a17.52,17.52,0,0,0,2.64,4.2,646.79,646.79,0,0,0,18.6-79,368.81,368.81,0,0,0,5.52-58.92q9.36,58.86,21.36,118.68c1.92,9.24,5.28,16.2,10,20.88a34.31,34.31,0,0,0,1.8-12l.36-1.08c1.44-10.56,3-21,4.68-31.44Q140,172.14,152.52,109.44a240.46,240.46,0,0,0,4.92-47.16Q153.3,64.44,152.4,70.2Zm115-5.4a338.51,338.51,0,0,0-6.24,73q.72,48.06-.6,95.76l-1,30.6a38.36,38.36,0,0,0-7.44-1.08l-77,7,.6-16q1.8-64.08,5.76-128.16a641.59,641.59,0,0,0,.84-64.2l-.84.24a163.79,163.79,0,0,0-7.08,43.56l-4.8,128.28c-1.68,43.08-3.48,86-5.52,129.12Q161,427.14,154.68,491c-1.2,12.24.48,22.8,4.92,31.68a17.63,17.63,0,0,0,4.2-11.28Q165.42,447,169.56,383c2.28-34.08,4-68.28,5.28-102.48l4.8.6c26.52.36,52.92-.6,79.44-2.76-1.08,28.2-2.52,56.16-4.2,84.12q-3.6,64.08-8.64,127.8c-1,1.32-1.68,3.72-2.16,7.32-1.44,10.68.48,19.44,5.88,26.52a2,2,0,0,0,.84-1c3-23.88,5.16-48.12,6.72-73C260.16,407.64,262,364.8,263,322c1.08-43.08,2.52-86.16,4.32-129,1.8-43.32,2-86.16.48-128.28ZM432.6,169.68c.12,42.6.48,85.44,1.08,128.28.36,21.6-.24,43.2-1.56,64.8Q428,427,420.6,491c-1.44,12.24,0,22.8,4.2,31.68l.48-1.92a291.34,291.34,0,0,0,81.72.36l.36-.84q4-9.54-1.44-14.4l-78.48,3.24a449.66,449.66,0,0,0,5.88-54.6c1.08-21.48,2.52-43,4.08-64.2a1186.3,1186.3,0,0,0,2.76-129Q438,197.1,438.72,133.08c.24-22-.48-43.32-2-64.08-4.68,14.76-6.48,31-5.52,48.72C432.12,135.12,432.6,152.52,432.6,169.68Zm-43-63.48A679.47,679.47,0,0,1,409,232.44,861.84,861.84,0,0,1,407,360.6a345.61,345.61,0,0,1-27.72,107.64c-13.8,31.56-38,45.24-72.48,41.28a8.16,8.16,0,0,1-6.84-4.8A158.57,158.57,0,0,1,285.48,434q1.26-64.62,4.68-128.28c2.28-42.84,3.72-85.56,4.08-128.28q.54-56.16,38.52-95.76l1.68-.6,11.28-3.48c14.4-1.68,25.92,3.12,34.56,14.28a67.31,67.31,0,0,1,9.12,14.64ZM363.24,63a33.53,33.53,0,0,0-15.84-1.56Q311,73.5,299.64,112.08a242.05,242.05,0,0,0-9.48,54.72l-6.84,128c-2.28,42.84-4,85.8-5,129.12a272.61,272.61,0,0,0,11.88,88.44c2.52,7.8,7.8,12.36,16.08,13.68q51.12,7.92,74-38.4a347.73,347.73,0,0,0,34.68-125,917.43,917.43,0,0,0,2.16-128.4c-1.08-21.6-2.64-43-4.68-64.2A274.35,274.35,0,0,0,390.12,83.4h-2.4a53.51,53.51,0,0,0-7.56-8c-4.44-4-9.12-7.8-13.8-11.52Zm173.64,40.92Q539,69.18,501.12,72.48c-7.2,2.28-12.24,7.2-15.12,14.52a306.84,306.84,0,0,0-21.24,96.36q-3.6,63.9-5.28,128.4a980.7,980.7,0,0,0,5,127.44,31.49,31.49,0,0,0,7.8,18c16.44,18.12,33.48,19.56,51.36,4.44a96,96,0,0,0,15.84-16.92c7.8-10.68,8.4-20.28,1.92-28.8l-11.76,20.64c-7.32,12.72-18.48,18.36-33.24,16.92-14.28-1.32-22.32-8.64-24.12-21.72a814.71,814.71,0,0,1-6.48-128.16l.72-24.12c15.24-.48,30.48-1.68,46-3.72l.36-.84a13.78,13.78,0,0,0-1.44-13,89.07,89.07,0,0,0-44.4,6.48c1.2-30.84,3-61.68,5.28-92.28a264.92,264.92,0,0,1,16.44-73.56c5.88-15.36,17.88-19.68,35.88-13.08A29,29,0,0,0,529,92.76l1.08.84,1.2,3.36a34.67,34.67,0,0,0,4.44,7.68l.84.12Z" transform="translate(-34.29 -56.86)"/></svg>