<svg id="Layer_1" data-name="Layer 1" xmlns="http://www.w3.org/2000/svg" viewBox="0 0 307.4 221.52"><defs><style>.cls-1{fill-rule:evenodd;}</style></defs><path class="cls-1" d="M163.08,189.24a464.8,464.8,0,0,0-4,55.08q-.54,64.62-2.4,129c-.36,12.48,1.44,22.92,5.4,31.44q3.24-43.2,3-87.72V300l1.08,1.44,49.92-1.56-.12,68c-.12,12.12,1.68,22.68,5.28,31.68a23.63,23.63,0,0,0,3.12-13q-1.26-65-1.2-129l.24-64.2c-5.76,13.44-8.52,28.56-8.16,45.48l.72,47.76-17.88-1.44a174.51,174.51,0,0,0-31.44,3.12,10.64,10.64,0,0,0-1.68,3l-1-102.48A1.89,1.89,0,0,0,163.08,189.24ZM314.16,207.6l-.24.48-.6.84a73.08,73.08,0,0,1,12.84,15.6q36.72,59.94,7.32,123.24C321.84,373,302,380.4,274.32,370.08a42.37,42.37,0,0,1-13.68-21.6,204.43,204.43,0,0,1-1.8-102.12c6.36-26.88,23.52-40.08,51.72-39.6l1.68.36,1.56.36ZM270,206.52A158.79,158.79,0,0,0,248.4,268c-1.8,12.36-3,24.84-3.72,37.44q-2.7,41.4,19.92,74.28a23.4,23.4,0,0,0,9.36,7.8c27.24,11.64,47.4,5.4,60.72-19q32.94-59.94,13.68-124.92c-5.76-19.8-15.84-35.88-30.24-48.48l-1,.6-.84.72-.72.6-1.2.48-.6-.24a74.84,74.84,0,0,0-24.84-2.4,38.73,38.73,0,0,0-13.56,7.8A33.92,33.92,0,0,1,270,206.52Zm186.12-11.16q-2.88,43.2-1.8,86.64l-3-.36-33.48,5.52q0-47.34-.84-93.36c-4.2,11.76-6.12,24.84-5.88,39.24q.9,64.62-2.64,129a98.52,98.52,0,0,1-1.92,15.84c-1.8,9.84-.36,17.76,4.44,23.64A496.56,496.56,0,0,0,417.72,322l.12-22.2,37-2.16,1.44,25.08a307.8,307.8,0,0,1-2.28,64.8c-1.44,10.2.36,17.76,5.52,22.92a439.51,439.51,0,0,0,4-87.36L462,296.88a12.85,12.85,0,0,0,1.92-8.64,11.84,11.84,0,0,0-1.56-4.92l-1.08-.48c-1.56-29.4-3-58.8-4.32-88C456.36,194.64,456.12,194.76,456.12,195.36Zm-70.8-1.92c-12.6,7.32-19.08,18.6-19.56,33.72a124.23,124.23,0,0,0,8.64,49.2,250.12,250.12,0,0,1,13.2,45.24,97.62,97.62,0,0,1,0,37.32c-2.52,13-10.68,20-24.24,21.24L348,369.6c-5.28,9.48-3.6,17.64,4.92,24.36,7.56,6,15.24,5.88,23-.24l6-5a30.89,30.89,0,0,0,9.12-15.12c9-34,5.4-67.92-11-101.76-9-18.6-10.32-36.36-4.08-53.52,3-8.28,9.12-11.76,18.48-10.44l6.48,7c3-3.48,3.36-7.68,1.32-12.36a14.18,14.18,0,0,0-9.36-8.76Z" transform="translate(-156.68 -188.88)"/></svg>