<svg id="Layer_1" data-name="Layer 1" xmlns="http://www.w3.org/2000/svg" viewBox="0 0 595.57 842.18"><defs><style>.cls-1{fill:#fff;}.cls-2{fill:none;stroke:#fff;stroke-linecap:round;stroke-linejoin:round;stroke-width:0.38px;}.cls-3{fill-rule:evenodd;}</style></defs><rect class="cls-1" x="0.31" y="0.31" width="595.08" height="841.68"/><rect class="cls-2" x="0.19" y="0.19" width="595.2" height="841.8"/><path class="cls-3" d="M376,483.72a354,354,0,0,0,.72,59.88l.48-.6a620.36,620.36,0,0,0,4.08-118.44c-3.48,3-5,7.32-4.68,13.08A422.5,422.5,0,0,1,376,483.72ZM208.2,435.24,215.76,465a72.38,72.38,0,0,0-22.08,5.88Zm15.24,29.88L208.08,424.2A129.16,129.16,0,0,0,190.8,459a158.07,158.07,0,0,1-11.88,27.72A145,145,0,0,0,165.36,521c-1.32,5.16-.72,9.48,1.68,13.08,7.2-18.6,17.16-34.68,29.88-48,5.28-5.52,12.48-9.24,21.48-11.28a188.58,188.58,0,0,0,18.72,48.84c2.28,4.2,4.68,8.28,7.2,12.36a14,14,0,0,0,.36-12.36,576.81,576.81,0,0,1-20.88-58Zm48.84,54.6a94,94,0,0,1-5.16-40.92c1.56-19.44,2.52-38.4,2.64-56.76-2,1.56-3.24,4.08-3.48,7.44-1.44,22.08-3,44.16-4.8,66.36-1.32,15.6,2.64,28.92,11.76,39.84l11.4,2.76c17.16-9,26.64-23,28.56-42.12l4.44-43.8c1.08-11.28-.84-20.4-6-27.48a397.47,397.47,0,0,1-6.84,75.36q-3.42,18-21.24,23.76C277.92,526,274.08,524.52,272.28,519.72Zm67.8-96.6a91.43,91.43,0,0,0-9.48,45.12l1.08,39a124.69,124.69,0,0,0,3.12,26.64l5.4-99.12a589.64,589.64,0,0,0,33.24,103.68c.24.48.72.72,1.56.84A643.32,643.32,0,0,0,345.24,442l-5-13.32ZM298.92,299.88c-.84,12.84-6.84,22.32-18,28.68l1.68-35.88,8.76-2.64ZM289,282l-8.4,5.4.24,5.64c-5.16,35.16-9.36,70.56-12.48,106-.36,4,.72,7,3.12,8.88l8.76-70.2,4-.84a215.44,215.44,0,0,0,15.24,73.32l-12.72-74.4c11.64-7,17.4-17.64,17.28-31.92a20.14,20.14,0,0,0-3.36-11.4A26.47,26.47,0,0,0,289,282ZM147.12,62.4,146,59.76a583.18,583.18,0,0,0-14.28,155c.72,16.2,1,32.28.72,48.48A282.43,282.43,0,0,0,42,276.84q-.36-110.52,3.72-220.68a8,8,0,0,0-.84-3.72q-16,37.8-12.24,88.68c2.28,32,3.36,64.32,3,96.6l-1,96.72-.48,32.28L34,399v32.28c0,22.92-.72,45.72-2,68.64a99.86,99.86,0,0,0,1.8,25.44,23.23,23.23,0,0,0,3.36,7.92l1.56,2.16a1846.61,1846.61,0,0,0,4-185.88c-.6-20.52-.72-41-.6-61.56a782.85,782.85,0,0,1,90.24-9.84q-1.08,119.52.6,238.8a48.5,48.5,0,0,0,3.84,18.48l.36-.36q3.78-145.44,3.12-291.12c-.24-43.08,1.32-85.92,4.68-128.76.36-5.28,1-10.56,1.68-15.84l2.28-16A40.39,40.39,0,0,0,147.12,62.4ZM325.8,169.08q-25.74,32.76-6.12,72.48a301.62,301.62,0,0,1,29.16,97.08,218.26,218.26,0,0,1,1.32,36.48,42,42,0,0,1-2.4,12.84,15.54,15.54,0,0,1-6.48,8.16,31.12,31.12,0,0,1-18.12,5.28c-9.84-.36-15.72-5.52-17.76-15.36l-3.48-.48c-2.64,17.88,6,27.48,25.8,29a32.43,32.43,0,0,0,12.6-1.44q32.94-50,11.52-111.72-13.68-39.24-31.08-77.16a43.58,43.58,0,0,1-4-21.24,60,60,0,0,1,4.08-18.36l1.32-3.6c11.88-1.32,22.32,1.68,31.44,9.12-1.92-13.8-10.2-20.76-24.84-21Zm-44.52,39.84,2.28,46.92a45.74,45.74,0,0,0,3.72,15.36l5.16-106.44C284.4,177.12,280.68,191.88,281.28,208.92Zm-54.72-132A36.91,36.91,0,0,0,212,75.24c-20,13.32-31.68,32.4-35.16,57.24A1240.63,1240.63,0,0,0,165.72,260a555.92,555.92,0,0,0,8.76,119q6.3,34.2,40,21.24A34.61,34.61,0,0,0,231.12,387q36-54.36,33.24-121.32L261.6,201.6a492.43,492.43,0,0,0-16-104.4,31,31,0,0,0-8.88-14.88l-1.2.36q-2-5.76-8.28-6.12Zm-36.48,4.32A221.08,221.08,0,0,0,164.16,175c-2.16,42.6-3.36,85.32-3.72,128.4l-.24,47.88q0,36.9,21,64.92a32.59,32.59,0,0,0,27.36,4.8,34.22,34.22,0,0,0,17.16-10.32q41.94-46.26,44-110a1269.3,1269.3,0,0,0-2.16-128.28A313.59,313.59,0,0,0,243,68.52l-2.76-.72-.6.12-1.8.24-1.08-.6a47.56,47.56,0,0,0-26.88-6.36A49,49,0,0,0,190.08,81.24ZM451,73.92a185.91,185.91,0,0,1,57.12.48,10.23,10.23,0,0,0,2.64-7.32,23.92,23.92,0,0,0-.6-4.08,6.46,6.46,0,0,0-1.2-2.4,1.93,1.93,0,0,0-.84-.48l-27.6-3.24C437.4,62,394,65.64,350.16,67.44a12.21,12.21,0,0,0-1.44,7.2,23.61,23.61,0,0,0,.6,4.2,4.24,4.24,0,0,0,1.92,2.4l61.2-3c12.36-1.08,24.72-2.4,37-4.2-4.44,15-6.24,31.44-5.4,49.08q2.88,64.26,4,129.12,1.08,64.44.24,129t-3.6,129a94.24,94.24,0,0,0,4,32.52c1.08-.24,1.68-.6,1.8-1a598.79,598.79,0,0,0,4.92-85.92q-.9-64.44-1.2-129c-.12-43-.72-86-1.56-129.12-.84-41.76-1.32-83-1.68-123.84Z" transform="translate(0.19 0.19)"/></svg>