<svg id="Layer_1" data-name="Layer 1" xmlns="http://www.w3.org/2000/svg" viewBox="0 0 501.82 407.93"><defs><style>.cls-1{fill-rule:evenodd;}</style></defs><path class="cls-1" d="M201.48,284.52,231,140.88l19.8,134.4ZM66,100.68a685,685,0,0,0-2.76,73.8c.6,42.84,1,85.8.84,129.12Q63.72,367.68,58.2,431a5.61,5.61,0,0,0-2.76,2.16c-3.84,8.4-3.84,16.56,0,24.36,8-10,12.24-22.08,12.72-36.48q2-63.9,1.8-128.4v-3.36a342.49,342.49,0,0,0,72.48-4.2q.18,39.42-.6,79.08c-.48,21.48-1.92,43.08-4.2,64.68-1.08,10,.6,17.76,4.92,23.52a5.18,5.18,0,0,0,1.56-3.36c1.56-13.08,2.76-26.28,3.72-39.6,1-14.52,1.32-28.8,1.2-43.08-.36-43.08-.6-86-.48-129s-1.2-85.68-4.08-128.28c-.6.12-.84.12-.84.24a490.45,490.45,0,0,0-2.88,62.52l1.08,63.36.48,36.36-.48-.36q-36.18,3.06-71.88,9l-.24-116.52c0-22.2-.72-43.56-2.28-64.08A1.26,1.26,0,0,0,66,100.68Zm166.08,16.08-.24-6.36Q218,164.94,207,222l-12.48,64-.72.12a7.34,7.34,0,0,0-.48,4.8l.12.36L182,347.76a573.26,573.26,0,0,1-16.44,61.92c-5.4,16.32-6.72,32.16-3.72,47.64a2.2,2.2,0,0,0,1.32-1.44A266.72,266.72,0,0,0,172.92,424q14.58-62.28,25.92-125.28l1.08-5.88a130.37,130.37,0,0,0,43.56-1.32l.84-.6,1.08-.84,5.64-.6.6-.12.84-1.32q7.2,56.7,11.88,113.76a453.61,453.61,0,0,0,9.48,63.12c4.08-16,4.08-32.64,0-50.16a334.69,334.69,0,0,1-7.32-50.16Q262.38,300.84,252.6,238L233.16,112.08Zm167.76-9.6a256.08,256.08,0,0,0-13.2,60.48c-4.2,42.36-9.24,84.72-15.24,126.84q-9,63.54-20.64,126.36V421L347.88,401q-8.82-58.14-18-115.56l.48-15.36A46.9,46.9,0,0,0,328,275a8.48,8.48,0,0,0-2.64,6,89.27,89.27,0,0,0-4.44,18.36Q313,357.72,301.32,415.32c-.84-17.28-2.28-34.44-4.2-51.48Q289.74,299.94,282,236.4q-7.74-63.72-16.56-126.48c-1.56.36-2.16,1.56-2,3.48q4.5,63.9,12.36,127.44,7.74,63,14.28,126.48c2.16,21.36,3.24,42.72,3.36,64.2q.18,18.36,7.2,30.6a3.87,3.87,0,0,0,1.56-3.24v-4l.6,1q11.7-60.84,22-122.28c1.32-8.28,2.52-16.44,3.36-24.48,3.6,33.72,8,67.2,13.44,100.68,1.68,10.56,2.88,21.24,3.6,31.92.6,10,3.72,17.4,9.36,22.56l.6-.84a59.43,59.43,0,0,0,2.4-16.56,19,19,0,0,0,1.56-6.36c.6-5.4.36-8.64-.6-9.48,2.28-23.52,5.28-47.16,9.24-70.92q10.62-63,18-126.36,3.78-31.68,9.48-63A288.23,288.23,0,0,0,399.84,107.16Zm33.48,100.56,8.52,31.44c2.76,10.44,5.4,21,7.8,31.44l7.08,31.68c3.24,14.64,5.64,29.28,7.44,44a165.06,165.06,0,0,1-1.44,47.4,121.66,121.66,0,0,1-16.08,42.48,95.35,95.35,0,0,1-30.84,31.44A129.21,129.21,0,0,1,373,485.4a136.67,136.67,0,0,1-34.2,3.24l3.72-3.48-6.72-3.6-5.88,1.32a17.66,17.66,0,0,0-1.56,13.56,10.6,10.6,0,0,0,5.28,6.72l2.64,1.32,2.88.84,9.72,1.56a59.88,59.88,0,0,0,19.08-.24,131.87,131.87,0,0,0,33.6-10.56,112.51,112.51,0,0,0,29.16-19.44,111.08,111.08,0,0,0,28.68-40.8,151.61,151.61,0,0,0,10.44-78.6,1355.54,1355.54,0,0,0-32.16-168c-6.12-23.76-1.2-43.8,14.52-60.12l13.44.72a35.79,35.79,0,0,1,11.16,3.6,11,11,0,0,0,1.44-6.12,13.94,13.94,0,0,0-1.8-6.24,10,10,0,0,0-5.4-4.44l-1.8-1.08-16.8-1.68a45.63,45.63,0,0,0-8.4,7.56,35.69,35.69,0,0,0-6.24,9.6,108.05,108.05,0,0,0-9.12,42.48A117.66,117.66,0,0,0,433.32,207.72ZM529.2,122A21.35,21.35,0,0,0,517,130.8c-15.72,22.44-24.12,48-25.2,76.44-1.56,42.84-4.2,85.44-7.92,128A997.27,997.27,0,0,0,481,463.8a14.59,14.59,0,0,0,2.28,7.32c9.48,15,21.72,15.84,36.48,2.52,7.8-7.08,15.36-14.4,22.56-22.08,11.64-12.36,14.88-25,9.72-37.92a8.54,8.54,0,0,0-4.44,4.92l-.48.84a3.11,3.11,0,0,1-3.6-.6l-.72-.24.36.72,1.44,1.8.36.72c-3,5.52-6.12,10.92-9.6,16.2-10.44,16.2-24.72,24.84-42.84,26-4.92-5.4-7.08-12-6.6-20l6.6-128.28.6-10.56a188.31,188.31,0,0,1,45.12-6.72l.48-.84c2.88-6.72,1.92-11.88-3-15.6a105.37,105.37,0,0,0-41.88,9.72q2.7-52,7.08-103.44c1.56-19.08,8.4-35.28,20.76-48.6a9.57,9.57,0,0,0,1.92-1,18.63,18.63,0,0,1,14.4-2.64,8,8,0,0,0,6.48,2.76l.72-.24a9.91,9.91,0,0,0,0-9,17.79,17.79,0,0,0-5.4-6.48,1.8,1.8,0,0,0-1.32-.48Z" transform="translate(-52.56 -99.6)"/></svg>