<svg id="Layer_1" data-name="Layer 1" xmlns="http://www.w3.org/2000/svg" viewBox="0 0 595.57 842.18"><defs><style>.cls-1{fill:#fff;}.cls-2{fill:none;stroke:#fff;stroke-linecap:round;stroke-linejoin:round;stroke-width:0.38px;}.cls-3{fill-rule:evenodd;}</style></defs><rect class="cls-1" x="0.31" y="0.31" width="595.08" height="841.68"/><rect class="cls-2" x="0.19" y="0.19" width="595.2" height="841.8"/><path class="cls-3" d="M182.28,105.84c-4.32,8.52-6.48,18.6-6.48,30q.18,55.08-4.08,109.56l-75.84-3.6.36-7.92a974.9,974.9,0,0,0-.48-128.4c-.48.12-.72.24-.84.48a152,152,0,0,0-4.32,29.88C89,178.68,87.72,221.76,86.88,265c-.84,43-3,85.32-6.24,127.08-1.08,7.92.48,14.64,4.92,20a2,2,0,0,0,1-1.44c4.44-42.36,7-85.08,7.8-128.16l.84-25.92a407.83,407.83,0,0,0,75.36,4.2l-.36,3.36c-4,42.48-6.12,85.2-6.24,128.16l-.24.36a4,4,0,0,1-2.76,1.32c-1.32.24-.6,1.44,2.16,3.48q-1.44,9,5.76,11.16A178.12,178.12,0,0,0,174,362.28q-.72-54,3.48-107.16v-.6l1.8-20.52c2-21.24,3.6-42.6,4.68-64A420.94,420.94,0,0,0,182.28,105.84Zm184.2,191.4a160.73,160.73,0,0,1-31.68,60.84q-41.94,51.12-101.28,18.24a70.28,70.28,0,0,1-16.2-31.56,244.49,244.49,0,0,1,3.6-126.84,453.16,453.16,0,0,1,23.52-61.44c9.24-19.68,23.88-31.56,43.68-35.76a97.37,97.37,0,0,1,34.68,5.64l-.24.72-.72,1.08-.36.6v2.52l1.68,1.32.72.36,2.4.48,17.88,18.84A65.91,65.91,0,0,1,357,171.36Q384.36,232,366.48,297.24ZM380.4,200.4q-7-54.36-52.2-83.28l-.72-.6A74.63,74.63,0,0,0,289,105c-14.4.12-25.68,6.12-33.72,18A305.08,305.08,0,0,0,207,244.68a266.46,266.46,0,0,0,8.52,124.8C221.88,390,235.8,403,257.4,408.6a63.06,63.06,0,0,0,45.72-5q47.34-23.94,64.68-75.48A280.55,280.55,0,0,0,380.4,200.4ZM492.72,335l44.16-1.68c-2,10.8-3.84,21.6-5.52,32.4l-5.52,33c-1.56,9.24.24,16.44,5.52,21.72l1-.84q3.42-25.38,8.28-50.76a153.76,153.76,0,0,0,1.08-52.32C523.56,315,507,318.12,491.88,326l-.24.84A9.7,9.7,0,0,0,492.72,335Zm47.64-194q-9.54-32.22-44.64-33.84-36,9.36-56,40.44a258,258,0,0,0-38.52,104.52l-4,29.88q-8.1,65.88,33.6,115.8a22,22,0,0,0,7.56,6.24c25.2,13.08,48.36,10.56,69.48-7.32a82.94,82.94,0,0,0,9.36-9q18.54-20.7,10.44-43.2a4.91,4.91,0,0,0-4.56,3.24L522,351.12l-.84,1.8a1.94,1.94,0,0,1-1.08.36c-1.56,0-2.76.24-3.36.84l-1,1a2.74,2.74,0,0,0-.6,2.4l.24,2.4c.12,1,.48,1.44,1.08,1.32l.36-.48c.24,1.2-1.2,3.84-4.32,8q-26.28,34.38-70.92,19.8A158.23,158.23,0,0,1,427.2,372a96.27,96.27,0,0,1-19.56-49.32A291.07,291.07,0,0,1,421.2,200.4q16.38-49.14,62.64-73c12.84-6.6,25-5.64,36.36,3.12a68.8,68.8,0,0,0,20.16,11.28Z" transform="translate(0.19 0.19)"/></svg>