<svg id="Layer_1" data-name="Layer 1" xmlns="http://www.w3.org/2000/svg" viewBox="0 0 398.37 397.14"><defs><style>.cls-1{fill-rule:evenodd;}</style></defs><path class="cls-1" d="M198.84,86.76A272.83,272.83,0,0,0,191,157.2l1.2,87.48-.72-.6c-12.84.84-25.8,2.28-38.88,4.2l-15.24,1.08c-14.28-.12-26.76,2.76-37.68,8.4V194c.12-16.2.6-32.4,1.56-48.6a278.11,278.11,0,0,0-3.36-64.2c-.48,0-.72.12-.84.36a514.82,514.82,0,0,0-3.6,69.72c.84,43,1.08,85.92,1,129q-.18,65-3.72,129c-.6,10.8-1.56,21.6-3,32.28q-2.52,18.9,5,31.68a71.18,71.18,0,0,0,4.44-21q3.6-64.08,2.88-129.24l-.36-56.52c31-1.32,61.8-4,92.64-8.16l.12,28q.36,65-3.48,129c-.48,8.16-1.32,16.2-2.4,24.12q-2.88,18.9,4.68,31.68A1275.89,1275.89,0,0,0,198,343.68l.12-129.12c-.12-43.32.36-86.16,1.56-128.28C199.08,86.4,198.84,86.52,198.84,86.76ZM432.72,259.68a18.12,18.12,0,0,0,3.12-2.16q22.14,5.76,30.6,32.4a308.85,308.85,0,0,1,10.2,42.84A160.75,160.75,0,0,1,478.32,375a113.16,113.16,0,0,1-13.56,44.52,79,79,0,0,1-33,32.76c-14.28,7.68-28.8,7.92-43.44.6l3-12.72-3,4.2q8.82-87.66,9.36-181A46.29,46.29,0,0,0,432.72,259.68ZM354,136q3.78,64.62,1.32,129a664.36,664.36,0,0,1-17,126.24q-8.46,35.64-36.48,57.48a13.61,13.61,0,0,1-6.36,2.76c-23.16,3.24-37.56-6.84-43.44-30.24A418.3,418.3,0,0,1,240.12,294c1.2-21.6,1.68-43.2,1.32-64.8a546.71,546.71,0,0,1,4.68-79.32A297.48,297.48,0,0,0,248,85.56a298.62,298.62,0,0,0-8.52,55.68q-3.78,64.26-5.64,129.12-1.62,63.9,2.16,127.44,2.52,42.3,33.48,68c9.24,7.56,18.6,8.16,28.08,1.68,30.12-20.88,48-50,53.4-87.6A1126.73,1126.73,0,0,0,362.4,250.8q2.16-64.08,2-128.16c0-12.84-2.76-23.28-8.4-31.44A203.88,203.88,0,0,0,354,136Zm103.56,56.4c-1.44,16.2-7.56,30-18.24,41.4-11.16,11.64-24.84,16.92-41.16,15.72a891,891,0,0,0-.6-152.88q23.76-1.26,37.8,17.28a114,114,0,0,1,22.2,78.48ZM395.88,88.44a7.92,7.92,0,0,0-.72,3.24l.36,3.12q-1.62,18.36-1.8,37.8c-.12,40-.72,79.92-1.56,119.76l-.36,2.28.12,3V260c-.48,18.84-1.08,37.44-1.8,55.92a1280.94,1280.94,0,0,1-11.28,129c-1.56,12.24-.36,22.8,3.72,31.8a3.4,3.4,0,0,0,1.44-2.4l.36-2.76q27.9,14.58,53.28-2.28a78.58,78.58,0,0,0,25.08-27q32.4-56.7,18.6-122.52c-2.28-10.68-4.68-21.36-7.44-32-4.8-18.12-14.4-31.32-28.8-39.84,9.36-11.64,15.24-25.44,17.52-41.4a181.83,181.83,0,0,0-.12-54.72q-5-32.4-28-54.6l-3.24-.84-.84-.84a48.05,48.05,0,0,0-17-9.24A35.44,35.44,0,0,0,395.88,88.44Z" transform="translate(-87.09 -81.24)"/></svg>