<svg id="Layer_1" data-name="Layer 1" xmlns="http://www.w3.org/2000/svg" viewBox="0 0 472.6 407.52"><defs><style>.cls-1{fill-rule:evenodd;}</style></defs><path class="cls-1" d="M197.76,82.32a593.21,593.21,0,0,0-4.92,76.2l-.24,84.72-13-.24a476.86,476.86,0,0,1-90.12,7.56l1-40.08Q92.28,145.86,88,82.32h-.48c-2.52,30.6-3.84,61.8-4.08,93.36-.48,42.84-.72,85.92-.84,129s-1.32,86.16-3.72,129c-.6,11.88.84,22.68,4.56,32.28a2.54,2.54,0,0,0,1-1.44q4.32-62.1,4.32-124.92,0-39.06.6-77.76l8.64.48a729.79,729.79,0,0,0,94.56-4.92l-.36,30.24-1.92,129a240.62,240.62,0,0,1-2.64,32.28c-1.56,10.44.48,18.24,6.12,23.52a5.07,5.07,0,0,0,1.44-3.24c2-42.84,3.24-85.92,3.36-129s.72-86.16,1.32-129.12c.6-43.56.12-86.64-1.2-129.12C198,82.08,197.76,82.2,197.76,82.32ZM411.6,254.52c-4.44,18.24-8.4,36.72-11.76,55.56q-11.34,63.54-21,126.84-.9-59-.24-118.44a204.09,204.09,0,0,1,2.88-32.16c2.16-12.6,1-23.16-3.72-31.68a109.38,109.38,0,0,0-7.2,28.2Q362.82,346.92,351,410.4a162.8,162.8,0,0,1-6.36,23.88c-4,11.64-4.92,22.56-2.64,32.76A79.69,79.69,0,0,0,348,451a948.08,948.08,0,0,0,24.24-126.48c.48,19.8.48,39.6,0,59.16-.6,19.8-1.2,39.6-1.92,59.28q-.72,18.36,6.84,31.68a171.28,171.28,0,0,0,9.72-38.16q8.82-63.9,22.44-127.2,2.7,46.26,9,91.8A602.17,602.17,0,0,1,424,465.12c.24,7.44,2.64,12.36,7.08,14.64a168.08,168.08,0,0,0,2.4-35.76l-.12-.36c-1.08.12-1.56,1-1.44,2.28-.36.72-.6.48-.84-.6-5.64-42.24-9.84-84.72-12.36-127.44q-2-32.58-5.76-64.08C412.2,253.68,411.72,253.92,411.6,254.52Zm-60-136.32c-.48-12-2.76-22.56-7-31.56-3.24,6.12-4.2,11.76-2.88,17A238,238,0,0,0,343.08,133a949.14,949.14,0,0,1,5.4,128.16c-.48,21.6-2,43.08-4.56,64.32a388.73,388.73,0,0,1-36,122.52,13.38,13.38,0,0,1-6.24,6.36q-28.26,13.5-47.4-12a60.87,60.87,0,0,1-10.56-22.8,433.74,433.74,0,0,1-10.44-79.08q-2.7-64.62.24-129c1.92-43.32,2.52-86,1.8-128.4l-.48.12c-3.48,27.84-6,56.28-7.32,85.2-2.16,42.6-2.76,85.44-1.68,128.28.72,32.28,1.68,64.56,3,96.6a112.58,112.58,0,0,0,21.6,63q22,30.6,55.32,16a146.94,146.94,0,0,0,17.88-34.8,549.09,549.09,0,0,0,28.68-125.88,760,760,0,0,0,2.4-129.12C353.4,160.92,352.32,139.56,351.6,118.2ZM458.4,82.8a6.38,6.38,0,0,0-1.44,3L456.72,89a7.61,7.61,0,0,0,.6,3.6c-1.08,35.4-1.56,71-1.2,107,.36,43.08.12,86-.84,129.12s-3,86-6.48,129c-1,12.24.72,22.8,5.16,31.68a398.4,398.4,0,0,0,5.64-51.84q2.16-47.88,2.76-95.88l1-75.6.24.6a17.19,17.19,0,0,0,10,9.24q35.28,8.1,54.36-20.16,38.7-57.42,13.56-120.6Q520,80.88,458.88,82.56ZM544.2,185a116.21,116.21,0,0,1-9.6,44c-6.6,15.36-18,24.84-34.2,28.56a65.67,65.67,0,0,1-26,.48,11.37,11.37,0,0,0-6.72-4.32,14.63,14.63,0,0,0-3.24,0l-.72.6q1.08-78.84-3.84-161a159.89,159.89,0,0,1,45.72,13.8A79.69,79.69,0,0,1,535,141,96,96,0,0,1,544.2,185Z" transform="translate(-78.71 -81.96)"/></svg>