<svg id="Layer_1" data-name="Layer 1" xmlns="http://www.w3.org/2000/svg" viewBox="0 0 560.04 520.92"><defs><style>.cls-1{fill-rule:evenodd;}</style></defs><path class="cls-1" d="M210.12,462l-2.28,30c-1.8,20.88-2.76,34.2-3.12,39.84l32.4.6,1.08,1.8.36,2.64a6.56,6.56,0,0,1-.48,2.88l-1.2,1.56-35.16-.24c-.72-1.68-1.08-4.44-1.08-8.16,0-8.4,1.08-23.88,3.24-46.32,2.28-23.28,4-35.52,5.16-36.72A50.76,50.76,0,0,1,210.12,462ZM258,367c0,8.88-.6,22.8-1.92,41.76-1.44,20.64-2.28,33.84-2.4,39.72l-2.88,37.92c-1.8,22.8-2.76,37.08-2.76,43,0,1.08.12,1.68.24,1.56l.48-.36,35.76,1.08,13.2.48L299,534a7.3,7.3,0,0,1,.36,2.64,7.41,7.41,0,0,1-.6,3l-1.32,1.92-7.32-.24-7.8-.6-35.16-.48-3.6-3.36a3.94,3.94,0,0,1-1.08-2.64c0-15,2.16-47.64,6.48-98.16,3.72-45,6.36-72.24,7.68-81.72A52.67,52.67,0,0,1,258,367Zm-22.2,6c0,4.92-1.56,10.32-4.56,16.32a27.28,27.28,0,0,1-6.72,8.76c1.92,5.16,4.2,12.36,7,21.84,3.72,13.08,5.64,20.64,5.64,22.68,0,1.8-.12,2.52-.24,2.4l-.48.48-.6.84c-2.76-4.68-6.12-14.28-10-28.8-2.16-7.8-3.6-13.56-4.32-17.52a16.8,16.8,0,0,1-7.32,1.68h-1l-.48,2.64c-2.76,20.88-4.44,33.36-4.8,37.44l-.48.48-1,.84-1.2-1.56A6.18,6.18,0,0,1,205,439c0-10.08,1.2-25.2,3.72-45.24,1.8-14.16,3.36-25.56,4.92-34.2h-1.08l-.36-.48a7.5,7.5,0,0,1-.12-2,8.56,8.56,0,0,1,.24-2.28l.84-.36c9.36-.48,15.84,1.92,19.44,7.08Q235.8,365.94,235.8,373Zm-6.12-7.8c-3.48-3.6-8.4-5.52-14.52-5.64.24,2.64.36,5.88.36,9.6a243.51,243.51,0,0,1-1.44,25.08,26.43,26.43,0,0,0,13.44-7.56q6.12-6.3,6.12-13.32C233.64,370.68,232.32,367.92,229.68,365.16Zm11.52-99.48a9.58,9.58,0,0,0,.6,3.12v53.64q1.08,4,1.08,13l-.36,11.4-.48.48-.84.84c-1.08-12.84-1.92-22.44-2.28-28.92-.6-10.92-.72-20.76-.36-29.28q-10.62,40.5-15.48,56.88h-1.92a204.92,204.92,0,0,1-.84-22.32l1.2-18.24,1.08-18.36-.36-6.12H222a234.09,234.09,0,0,1-4.08,32,247,247,0,0,1-8.88,33h-.84l-.36-.72a9.2,9.2,0,0,1-.12-2.16c0-6.6,1.8-20,5.52-40.44,3.72-20,6.6-32.88,8.76-38.52a58,58,0,0,1,3.12,12.12l.12,11.16-.6,8.76-1.56,11.64v25.08c3.48-7.56,6.6-18.72,9.24-33.6,3.12-17.52,5.52-29,7.32-34.44Zm39.24,2.88c1.8,6.36,3.36,18,4.8,34.92,1.32,15.72,1.92,28.92,1.92,39.36a22.59,22.59,0,0,1-1.32,8.52q-1.8-10.08-3.24-29.52c-1.08-14.4-2.16-24.6-3-30.6l-.24-.48c-1.56,5.52-3.72,14.4-6.24,26.76-2.64,12.84-4.92,22.56-6.72,29.28l-.48.48-.84.84c-2.52-24.24-3.36-43.08-2.76-56.52l-.24-.6a427.32,427.32,0,0,1-9,55c-.84-1.08-1.32-3.24-1.32-6.24q0-5,4.68-35.64l5-34.2.48-.36,1.2-.72c1.56,7.32,2.52,17.28,2.76,29.64l.72,29.4c3.48-7.32,6.24-18.48,8.28-33.6C277,280,278.76,271.32,280.44,268.56ZM92.76,38a2.94,2.94,0,0,1,1.68-1.56C95.52,40.8,96,46.92,96.12,54.84c.12,8.4.6,14.52,1.32,18.24v46.2l.24,7.32q0,13.68-5.76,86.88l-5.88,77v42.12L82.8,381.36v55.2c-.36,2.28-.72,5.64-1.08,10.2-.36,4.92-.72,8.64-1.08,10.92v57.6c-.84,2.28-1.2,6.84-1.08,13.8.12,6.24-.72,11-2.76,14.4-.6-.72-1.32-2.52-2.16-5.52l-1.08-4.32L74,523.32c.36-6.12.72-10.92,1.2-14.52V452c.36-2.16.72-5.52,1.08-10.2s.72-7.92,1.08-10.08V377.28Q79.56,344.34,84,266H37.92c-7.56-1-13-2.28-16-4v13.56a40.15,40.15,0,0,0-1.08,9.72c0,8.28.12,21.48.48,39.36l.6,39a137.07,137.07,0,0,0,2.16,22.92A160.16,160.16,0,0,1,26.28,414c0,13.08-.12,23.52-.48,31.32A315.85,315.85,0,0,1,23,476.88q-1.08,7-.72,31.32c.24,13.2-.84,23.4-3.36,30.72-1.56-4.2-2.4-9.6-2.76-16.2-.12-2.52-.24-8.16-.24-17.16,0-10.44,1-25.08,2.76-43.92s2.64-34.68,2.64-47.76a101,101,0,0,0-1.44-17.64c-1.2-7.32-2-14.4-2.64-21.36-.36-4.92-.24-12.48.12-22.56l.72-15.6L16,285.24A70.87,70.87,0,0,1,17,271V227.28l1.08-4.8v-41.4c2.28-19,4.08-43.56,5.64-73.92.36-4.92.48-11.16.36-18.84L24,69.12c.12-15,1.68-26.76,4.44-35.28A105.93,105.93,0,0,1,30,46.32l.36,9c0,5.16-1.08,25.68-3.24,61.8L23,184.8V227L22,232v18l5.88,1.56,10.08,2,46.8.24.36-5.88c3-55.32,5.76-98.4,8-129.36V77.16C92.64,72.24,92.28,65.28,92,56L91.68,41.4A5.36,5.36,0,0,1,92.76,38ZM240.24,212.16c0,4.68.12,8.88.48,12.72,1.08,12.24,3.72,18.36,8,18.36,2.52,0,6.12-3.6,10.8-10.92l.24-2.64c1.08-12.12,1.68-19.92,1.68-23.4l-.12-1.92h-.12c-.36,0-.6-.24-.6-.84l-4.08.6a13.11,13.11,0,0,0-3.48,1l-2.88-2a2,2,0,0,1-.6-1.44,4.59,4.59,0,0,1,2.28-3.72,8.75,8.75,0,0,1,5-1.68c4.92-.12,7.32,3.12,7.32,9.72,0,4-.48,10.92-1.32,20.88L264,229l.24,3c0,1.44-.84,3.72-2.4,6.84-1.2,12.24-1.8,19.2-1.92,20.76-.72-.84-1.2-2.64-1.56-5.4a34.34,34.34,0,0,1-.36-4.44l.36-5.16c-3.24,4.92-6.12,7.32-8.64,7.32q-8.46,0-11.16-14.4a60.26,60.26,0,0,1-1.08-10v-4.68c0-18.84.6-31.56,1.68-38.28,2.4-14.28,8.16-26.16,17.16-35.4l7.92.24,4.8,4.44a4.81,4.81,0,0,1,1.44,3.48q0,2.7-.36,2.88l-.48.84-3.24-2.52a37.37,37.37,0,0,0-3.24-2.16l-7.08.36c-3.72,2.52-7.44,10.08-10.92,22.8-3.24,11.4-4.8,20.28-4.8,26.64Zm-7.68-59.76q4.32,3.42,4.32,7.2l-.24,2.4-.6,1a65.32,65.32,0,0,1-6.36-5.28c-3.24-3-5.52-4.56-6.6-4.56l-7.08.36c-3.72,1.8-6.24,8.4-7.32,20-.48,4.92-.72,13.2-.72,25,0,4.8.24,11.64.84,20.64.84,12.12,1.92,19.68,3.24,22.56A25.57,25.57,0,0,0,226.2,229.8a44.7,44.7,0,0,0,4.68-14.64h.72a20.7,20.7,0,0,0-.36-4.32c-1.2-4.32-3.48-6.48-7-6.36l-3.36.24c-.84,0-1.32-.48-1.32-1.44a10.45,10.45,0,0,1,.12-2.28l.12-.24q10.44-4.5,13.32,5.76c.48,2,.72,6.6.72,13.8l-.12,13.08c-.12,2.64-1.08,8.52-2.88,17.76l-1.08.24a5.41,5.41,0,0,1-.6-2l-.12-2.88,1.08-13,.48-5.88-4,8.64c-4.56,9-8.76,13.44-12.48,13.44-5,0-8-8.28-9-25-.36-5.28-.36-11-.24-17.4l.24-8c0-31.32,3.72-49.2,11.16-53.52l7.8.36A48.8,48.8,0,0,0,232.56,152.4ZM248,89.16l-3.48,47.52a8.41,8.41,0,0,1,2.28-2.4,55.26,55.26,0,0,1,6.48-4.56c6.12-4.56,9.24-10,9.24-16.08s-.6-10.8-1.8-14C258.6,94,254.4,90.48,248,89.16Zm-28.8-3.6-.72,8.76c-1.2,16.44-2.16,28.08-3,35,6.48-1.8,11.4-4,14.64-6.24,4.32-3,6.48-6.84,6.48-11.4a42.35,42.35,0,0,0-3-15.6C230.52,87.72,225.72,84.24,219.24,85.56Zm-2.64-48,.84-.48c7.2,2,12.48,5.4,15.84,10.32a22.21,22.21,0,0,1,3.84,12.84c0,2.52-1.2,6.48-3.6,12L229.8,80l4.8,15.12c3.12,10.2,4.68,16,4.68,17.4,0,6.72-1.2,11.64-3.72,14.76-3,3.72-9.84,7.8-20.28,12.36-2.52-1.8-3.84-3.36-3.84-4.8l.12-3.24.12-1.2,1.08-.24v-.72l2.16-16.68c1.44-10.8,2.16-17.88,2.16-21.12l.12-7.32-.12-1.8.24-1,.36-11.52.48-14.52a46.15,46.15,0,0,0-1.44-7.32l-1.44-6a6,6,0,0,1,.72-3.12l.36-.36A6.75,6.75,0,0,1,216.6,37.56ZM196.2,40.2a6.6,6.6,0,0,1,3.36-3.12c1.68,3.48,2.76,13.44,3.12,29.76L202.8,102c0,18.84-.72,47.88-2.16,86.88s-2.16,68-2.16,87.12l2.16,81.24c0,7.08-.36,17.4-1.2,31-1.32,23.16-3.48,44.4-6.36,63.6q-13.68,90.9-45,90.84c-23.16,0-38-16.44-44.4-49.2a219.22,219.22,0,0,1-3.6-38.52l.36-27.24q0-20,4.44-83.4,4.86-62.64,5.28-70.92V188.28a55.85,55.85,0,0,0,1-9l.36-9.6V85.2l.24-.72V38.16c.6-2,1.32-3,2.16-3a13.53,13.53,0,0,1,1.56,3.24V84.72l.24.84v84.36l.24,10.92c0,6.24-.36,10.68-1.08,13.44v84.24l-5.16,70.08q-4.5,58.5-4.44,79.32l-.12,17.76A289.05,289.05,0,0,0,107.64,480q7.2,48.42,30.72,48.36,28.8,0,41.16-37.92A182.12,182.12,0,0,0,185.64,462c1.08-10.2,1.92-16.2,2.28-18.12,1.56-7.8,3.24-23.88,5-48,1.56-20.64,2.28-33.6,2.28-38.88l-2.16-81.12c0-33,.12-52.44.24-58.56q.36-8.46,4.08-75.24v-78a101.49,101.49,0,0,1-1.32-11.28c-.36-4.08-.6-7-.6-8.64A9.73,9.73,0,0,1,196.2,40.2Zm54,10.2c0,4.44-.6,14.52-1.68,30.24l3.84-5a32.33,32.33,0,0,0,5.88-18.36,15,15,0,0,0-5.28-12l-3.12-2.52Zm-2.4-14.28.24-1h1.08c5.64,3.12,9.12,7,10.68,11.64.84,2.28,1.2,6.36,1.2,12.24q0,4.5-2.88,13.68l-2.88,8.52A13.78,13.78,0,0,0,256.8,86l3.48,7.32q5,11.52,5,20.88l.12,8.4a12.85,12.85,0,0,1-1.32,6.12c-1.8,3.48-7.56,8.16-17.52,13.8a6.72,6.72,0,0,1-2.16-1.32,4.65,4.65,0,0,1-.48-2.64v-.24l-.6.72a8,8,0,0,1-1.2-3.48,34,34,0,0,1-.12-4c0-7.2,1.08-23.88,3.12-50.16,1.56-20,2.64-33.48,3.48-40.08a6,6,0,0,1-1-3.12Zm-27,10.8.12,8.88c0,3-.36,10.68-1.2,22.92l.12-.12,6-3.72c5.76-3.84,8.64-8.88,8.64-15.24,0-4.92-3-8.88-9.12-12l-4.8-2.4ZM372,43.8c4.2,3.84,6.36,7.68,6.36,11.52l-.48,8.52-.72.48-1.2.6A64,64,0,0,0,368.88,54c-4.56-5.52-9.36-8.28-14.52-8.28q-37.44,0-51.36,51.48a184.13,184.13,0,0,0-6.6,52.32l.12,1.68.12.36v93.36c.36,4.92.72,12.24,1.08,22.2l.12,1.2,41.88-1.08a4.78,4.78,0,0,1,2.88,3,10.41,10.41,0,0,1,.6,3.36c0,4-1.2,6.12-3.48,6.6-7.56-.12-15.72-.12-24.6,0l-12.72.24-4.08-.48.48,9.48v46.2c.72,2.16,1.2,3.84,1.44,4.92v56c.36,2.52.24,11.88-.48,28.08-.84,18.24-1,32.88-.36,44q3.06,58.14,32.4,58.2,37.8,0,56-53.28A219.08,219.08,0,0,0,397,434.16q2.34-16,1.8-23.76l.48-.84,3.24,11.64a44.48,44.48,0,0,1,.6,8.76c0,3.36-.84,10-2.64,19.8A254.3,254.3,0,0,1,390.6,488c-12.6,36.12-30.36,54.12-53,54.12q-33.3,0-40.68-43.44a224.48,224.48,0,0,1-2.28-32.16c-.12-11.64-.48-18.24-.84-19.68v-52.8l1.08-4.08V347a21.35,21.35,0,0,1-.84-9v-43c-.48-13.44-1-32.88-1.44-58.2l-.72-36.6V155.16c.36-13.92,1.68-31.08,3.72-51.48.72-6.84,3.12-14.52,7.08-23a257.74,257.74,0,0,1,14-24.84c5.4-8.76,12-14.88,19.56-18.12a31.79,31.79,0,0,1,20-1.8A33.19,33.19,0,0,1,372,43.8ZM562.44,171.24Q570.72,200.58,576,327a397,397,0,0,1-4.44,60.36Q565.8,425.88,554,444.72q-26.82,43-76.44,73.92a222.46,222.46,0,0,1-38.28,19.56c-11.16,4.2-19.92,6.48-26.4,6.6l-1.2,3A11.28,11.28,0,0,1,410,544a6,6,0,0,1-1.32-2.64l-.24-3.6a12.2,12.2,0,0,1,1.32-6.12l1.08-1.32a36.77,36.77,0,0,0,.84-6.84c.72,0,1.08.6,1.08,1.68H413q2.34-18.54,7.2-66.48c3.12-32.16,4.68-50.16,4.68-54.12a48.74,48.74,0,0,0-1.08-11.76V340l-1-5.28-1.2-6.12V266.88q-1.08-8.82-1.08-27c0-12.72.36-22.08,1.08-28V164.76c.48-5.52.84-12,1-19.44l.36-19.44V84.48l1.56-26.16a112.05,112.05,0,0,1,2.16-18,5.46,5.46,0,0,1-1-3.24q0-16.92,24.12-5.76c11.88,5.4,23.52,13.08,35.16,23q7,6.48,22,19.44c8.4,7.56,14.28,14.16,17.76,19.56A440.88,440.88,0,0,1,547,131.88,218.46,218.46,0,0,1,562.44,171.24ZM543,140.16c-5.16-10.32-12.12-22.56-20.64-36.84-2.88-4.68-8.4-11-16.44-19-5.76-5.64-12.48-11.76-20-18.36-1.8-1.56-5.88-4.32-12.24-8.52l-12.12-7.92c-7.08-4.8-15.48-7.32-25.44-7.44l-5.76-.36q0,71.28-3.72,127.68v47c-.72,4.92-1.08,12.6-1.08,23.16s.36,18.24,1.08,23.16v60.72l1,5.28,1.2,6v52.8c.48,4.44.84,10.68,1.08,18.6l.24,12.72q0,14.22-5.4,60.12c-2.52,20.76-5,37.08-7.44,49.08l1-.12q38.52,0,86-42.48a319.53,319.53,0,0,0,30.84-31.44,214.21,214.21,0,0,0,15.12-18.84c7-9.84,12.36-26.88,16.2-51a367.11,367.11,0,0,0,4.68-58.2q0-17.82-3.6-68.52-4.32-62.82-9.36-80.28A228,228,0,0,0,543,140.16Z" transform="translate(-15.96 -26.88)"/></svg>