<svg id="Layer_1" data-name="Layer 1" xmlns="http://www.w3.org/2000/svg" viewBox="0 0 549.2 488.9"><defs><style>.cls-1{fill-rule:evenodd;}</style></defs><path class="cls-1" d="M421.2,443.16c-15.36-6.36-29.88-5.52-43.44,2.28-3.6,2-5.16,5.4-4.68,9.84q2.52,25,25.92,32.4c13.68,4.44,24.12,12.36,31.44,23.76q-22.68,23.94-57.12,12.72a74.14,74.14,0,0,1-16-7.32c1.08,15,10.8,22.92,29.16,23.52,17.16.48,30.6-5.76,40.32-18.6Q438,507,423.6,496.2a206.35,206.35,0,0,0-30.48-19A38,38,0,0,1,375,457l3.6-6.36a87.69,87.69,0,0,1,43.2-1.2ZM152.52,70.92a120.12,120.12,0,0,0-4.2,37.08c1.44,42.84,2.28,85.92,2.4,129v22.56l-10.08-.36-95.4,10L43,190.8q-2.16-65.16-.48-128.28a.94.94,0,0,0-1.2.84,431.76,431.76,0,0,0-5.28,99q4,64.26,5,129.12,1.08,64.62-1.32,129c-.84,21.72-1.44,43.44-1.68,64.92-.12,11.88,1.56,22.56,5.28,32.16a10.53,10.53,0,0,0,3.84-8.64l.36-60c.12-43.08-.24-86-1.08-129.12l-1-42a35.5,35.5,0,0,0,17.28,2.4l88.08-6.84q.36,46.44,1,92.76c.6,43,.36,85.92-1,129a84.14,84.14,0,0,0,4.92,32.28q1.08-.72,1.08-1.44c2.16-33,2.88-66.36,2.28-99.84q-1.26-64.44-1.44-129l-.12-27.84a10.1,10.1,0,0,0-.12-6.24c-.36-31.8-1-63.48-2-95-.72-21.6-.6-43.2.48-64.8C156.48,91.2,155.4,80.4,152.52,70.92Zm44.64.48a198.54,198.54,0,0,0-8.76,53.88q-1.62,53.82-1.92,108l-.72,129a633,633,0,0,0,12.72,129,111.67,111.67,0,0,0,11.64,31.92,14.19,14.19,0,0,0,9,7.2q49,14.4,71.4-27.36a68,68,0,0,0,11.64-23.88A527.9,527.9,0,0,0,319,368.28Q322,304,322,239.16q-.18-64.62,4.32-128.88c.84-12.72-1.2-23.28-6-31.56-2.52,26.76-3.72,53.76-3.72,81.24q0,64.62-1.92,129c-1.32,42.84-3.48,85.56-6.48,128.4a166.26,166.26,0,0,1-24.24,76.56c-8,13.44-19.8,20.88-35.16,22.2a63.13,63.13,0,0,1-24.24-2.52c-11.16-3.48-18-11.64-20.52-24.6a686.13,686.13,0,0,1-11.64-127.8l.36-129q.18-48.6,3-96.6C197,113.64,197.52,92.16,197.16,71.4ZM364.8,410.76q4.14-47.52,5.64-94.2c-2.64,1.32-4.08,3.6-4.44,7q-4.68,49.68-4.8,100A176.75,176.75,0,0,0,431,427l.36-.72a11.73,11.73,0,0,0-.36-9,59.48,59.48,0,0,0-13.08.24c-20.4,2.52-38.16.48-53.28-6ZM433,218.88a556.42,556.42,0,0,1-27.6,88.2l-.6-.36a477,477,0,0,1-37.56-94.8,75.65,75.65,0,0,0-7.2,25.56c-1.08,9.24-2.52,18.24-4.32,27.24A199.19,199.19,0,0,0,352,313.08a17.91,17.91,0,0,0,1.8-4.8Q361.68,268,366.6,227h.12a391.63,391.63,0,0,0,38,93.12,67.24,67.24,0,0,0,13.56-25.56c2.64-9,5.52-17.76,8.64-26.4a142.48,142.48,0,0,0,8.4-51.72A2.79,2.79,0,0,0,433,218.88ZM428.88,99.36c2-.84,2.88-2.4,2.52-4.92a9.66,9.66,0,0,0-2.28-4.56,10.32,10.32,0,0,0-3.48-2.64l-1.08-.48c-14.88-6.84-28.44-3.84-40.8,9.24a75.52,75.52,0,0,0-20.16,42.12,92.16,92.16,0,0,0,4.68,45.72c5.88,16,17.28,24.84,34.32,26.52q26.82,2.34,39.24-19.8a18.4,18.4,0,0,0,1.92-4.44,111.34,111.34,0,0,1-40.56,10,27.46,27.46,0,0,1-23.52-9.72c-9.24-10.44-13.2-22.92-11.88-37.68q4.14-51.3,52.08-55.08Zm154.8-26.52A103.19,103.19,0,0,0,569,95l-13.2,25.68Q525.78,177.78,498.72,236c-4.44,9.24-8.88,18.48-13.44,27.48a90,90,0,0,0-6.36,15.72q.72-37.44.36-74.88-.72-65-3.84-128.28a69.43,69.43,0,0,0-4.32,24.36c-.36,26.16-.24,52.44.6,78.72q2,64.26.36,128.28c-1.08,43.08-2.76,86.16-5.28,129-1.2,21.6-2.52,43.2-4.08,64.8-.84,12.24,1,22.8,5.4,31.8a3.26,3.26,0,0,0,1.32-2.4q3.6-34.2,4.32-69,1.26-64.08,3.72-128.28l.84-28.2A99.16,99.16,0,0,0,490.8,280.8q5.4-15.3,11.52-30.24a96.26,96.26,0,0,0,4.32,30.12c5.4,17.4,10.32,35,14.88,52.8a951.74,951.74,0,0,1,19.32,93.6q9.9,63.36,23.64,124.32c5.76-9,6.24-18.12,1.56-27.24a147.66,147.66,0,0,1-5.28-21.48L540,376.56a213.23,213.23,0,0,0-5.16-23C523.92,315,514.92,276.48,507.6,238a700.11,700.11,0,0,1,36.6-72.84,269.54,269.54,0,0,0,14.52-28.8,213.6,213.6,0,0,1,18-33.48C583.32,92.88,585.72,82.8,583.68,72.84Z" transform="translate(-35.18 -62.5)"/></svg>