<svg id="Layer_1" data-name="Layer 1" xmlns="http://www.w3.org/2000/svg" viewBox="0 0 504.36 451.92"><defs><style>.cls-1{fill-rule:evenodd;}</style></defs><path class="cls-1" d="M64.08,77.64A746.76,746.76,0,0,0,57,166.2q-1.26,64.8-.48,129,.36,40.14,1.44,80.4a648,648,0,0,1-4.56,96.48c-1.56,12.12,0,22.68,4.56,31.68a106.61,106.61,0,0,0,4.32-26.64c1.56-43.08,2.4-86,2.28-129.12-.12-21.12-.48-42.24-1.2-63.36a523,523,0,0,1,102.6-1.8c-.36,21.24-.72,42.36-1.32,63.48-1.32,43.08-3.36,86.16-6.12,129-.84,12.6,1.08,23,5.64,31.44a164.62,164.62,0,0,0,4.56-35.64L171.36,342c1-42.84,1.56-85.92,1.68-129,.12-21.72.84-43.32,2.16-64.92,1.44-22,2.28-43.32,2.52-64.2a5.54,5.54,0,0,0-3.24,4.32,960.31,960.31,0,0,0-8.28,129.12c.12,17.88,0,35.88-.12,53.88l-60-3.84v.12L65.76,272a10.38,10.38,0,0,0-2.76.72q-2-59.22.36-118.8a290.54,290.54,0,0,1,2.88-32.28,216.82,216.82,0,0,0,1.44-48.12C65.64,73.92,64.44,75.24,64.08,77.64Zm255.72,27.6c.12,8.64.48,17.52,1,26.52l6.72,127.44a907.92,907.92,0,0,1-2.76,129.12,190.64,190.64,0,0,1-35.16,94.8q-17.82,24.84-44.4,8.76l-1.56-.36-1.2-.48-8.52-13.68a77.88,77.88,0,0,1-12.48-38.28q-3.78-63.54-2.16-128.16T220,181.8a493.26,493.26,0,0,1,3.36-64c1.44-11.88,1-22.68-1.44-32.28a519.41,519.41,0,0,0-7.68,95.52q.54,63.9-.12,128.16c-.24,21.48-1.44,42.84-3.72,64-4,38.52.72,75.24,14.28,109.92,5.52,13.92,15,23.64,28.56,29.28,6.84,2.76,13.44,2.76,19.8-.24q28.8-13,40-44.64a397.86,397.86,0,0,0,22.8-127.68c.36-21.6.12-43.32-.72-65-1.56-43.08-3.6-86.16-6-129a181.56,181.56,0,0,1,.12-24.24q1.26-18-5-31.68l-.6.84Zm195.72,135.6,23.76,2.4L539,320.16l2.52,1.8A296.24,296.24,0,0,0,543,243.48l-1.32-11a16.75,16.75,0,0,1-6,.12,59.45,59.45,0,0,0-19.56,2.16c-.24,0-.48.24-.6.6l-.36,1.2ZM367.08,103.2l.12-7.68a119.62,119.62,0,0,0-6.6,35.16q-2.7,63.9-4.32,128.28Q355,307,353.16,354.72q-2.34,65-9.72,128.88c-1.56,12.6.12,23.16,4.8,31.56a133.74,133.74,0,0,0,5.88-34.8c1.92-42.6,4-85.44,6.24-128.28q3.24-63.9,4.56-128.28l1.8-100.44q10.08,63.18,24.36,125.76T418.32,374a1230.57,1230.57,0,0,1,19.08,125.4c.84,8.28,3.36,15,7.44,20l1.08,6L447,521.4a4.6,4.6,0,0,0,1.32-3v-2.76A155.86,155.86,0,0,0,451.44,486q.9-64.26,4.08-128.28c2-43.08,2.76-86,2.4-129.12q-.54-65-1.68-128.16-6.48,17.1-6.12,38.88,1.08,64.26.6,128.28c-.36,43.08-1.44,86.16-3.48,129.12-1.08,21.6-2.52,43.2-4.44,64.68v.36q-9.9-56.52-22.56-112.68-14.22-62.82-28-125.28t-24-125Zm190.08,27.6C555,108.36,541.68,97,517.32,96.36Q489.06,106.62,482,135.84a430.86,430.86,0,0,0-12,93.6q-.72,40.5,23.64,70.92c4.44,5.64,10.08,7.8,16.8,6.48,19.44-3.84,28.32-14.52,26.64-31.92l-13.56,12q-13.14,11.34-24.48,0c-14.76-14.52-22.2-32.76-22.08-54.72a321.88,321.88,0,0,1,15.12-97.08,26.16,26.16,0,0,1,14.4-16.44q32-14.94,48.72,15.84A3.82,3.82,0,0,0,557.16,130.8Z" transform="translate(-52.81 -73.56)"/></svg>