<svg id="Layer_1" data-name="Layer 1" xmlns="http://www.w3.org/2000/svg" viewBox="0 0 364.19 265.68"><defs><style>.cls-1{fill-rule:evenodd;}</style></defs><path class="cls-1" d="M180,127.2q-.36,52.38-2.76,104.76l-.12,3a655.38,655.38,0,0,0-72.24,8.28c.6-21.12,1.56-42.24,2.64-63.24a306.9,306.9,0,0,0-3.12-64.2c-.84-.12-1.32.12-1.44.84q-3.06,41.58-5,83.52-3.24,64.44-4,129.12a254.45,254.45,0,0,0,4,47.88c4.08-4,6-9.36,5.88-16.2-.24-17.4-.24-34.8-.12-52,.12-17.4.36-34.68.84-52.08a370.47,370.47,0,0,0,71.76-4.56l-5,107.76c-.84,6.12.84,10.56,5.16,13.56a102.14,102.14,0,0,0,5.4-36q-.9-45.18,1.8-89.64a16,16,0,0,0,.48-7.08,1188.49,1188.49,0,0,0,1.44-127.32C181.8,116.76,180,121.32,180,127.2Zm45.12-14.52q-7.38,44.82-10.68,91.56a1064.42,1064.42,0,0,0-1.32,128.28Q214.92,369.6,250,378a26.2,26.2,0,0,0,12-5.16c14.28-10.68,23.16-25.2,26.76-43.44A479.35,479.35,0,0,0,296.28,201a266.13,266.13,0,0,1-.48-32.4,109.48,109.48,0,0,0-7.92-47.88q-4.5,3.42-4.32,9.72l-1,.6a2.83,2.83,0,0,0-.36,4c.6.24,1,.48,1,.84,3,40.44,5,80.88,5.88,121.56q1.08,52-24.24,95.76c-10.2,5.4-20.4,5.52-30.6.48-11.28-13.8-16.68-30-16.2-48.72q1.44-64.62,7.2-128.16a359.07,359.07,0,0,0,.36-64.2Zm145.56,10.2A217,217,0,0,0,328.32,121l-.12-2.16L328,121h-.6c-2,.36-3.12,1.8-3,4.32l.12,4.08.24,1.56a8.27,8.27,0,0,0,1.8,3.36,609.8,609.8,0,0,0-2.28,81.48,975.68,975.68,0,0,1-3.6,127.32l-.24-.84a49,49,0,0,1-.84-7.2l-.36.24a269.3,269.3,0,0,0-.24,40.56,3.15,3.15,0,0,0,3.6,1.56,2.55,2.55,0,0,0,1.92-2.16,797.81,797.81,0,0,0,8.88-128.16L333,226.44c10,3,20.64,2.52,32-1.32l.48-.84c2.64-5.88,2.16-11.28-1.32-16.2l-31.44,5.16q-1.08-39.24-3.48-78A192,192,0,0,1,375,139.68a8.11,8.11,0,0,0,2.64-5.76,15.93,15.93,0,0,0-.36-4.8l-.36-1.68a6.11,6.11,0,0,0-3-4.08ZM404,125.16q-4.5,53.1-4,108.48c.12,10.68,0,21.24-.6,31.92l-1.92,32.28L396,314l-3.24,24.12A158.94,158.94,0,0,0,391.2,355a47.09,47.09,0,0,0,5.28,23.28l.36-.36a1183.69,1183.69,0,0,0,12.24-151.44l33.36-4q5.58-8.46-.36-16.56l-32.76,6.36L408,141.12a104.73,104.73,0,0,0,43.08,6.12l4.8,1.32c3.12-5.52,3-11-.24-16.56a125.35,125.35,0,0,1-48.48-6.24Z" transform="translate(-93.95 -112.56)"/></svg>