<svg id="Layer_1" data-name="Layer 1" xmlns="http://www.w3.org/2000/svg" viewBox="0 0 514.62 496.75"><defs><style>.cls-1{fill-rule:evenodd;}</style></defs><path class="cls-1" d="M388.56,477.12a467.85,467.85,0,0,0,.24-59.4A274.84,274.84,0,0,0,380.52,477a286,286,0,0,0,3.72,59,8.33,8.33,0,0,0,3-7.08C386.88,511.56,387.24,494.28,388.56,477.12ZM325.08,416l-.24.24,1.44,4q-6.66,41.58-12.36,83.4a85.9,85.9,0,0,0-.6,16.68,31.42,31.42,0,0,0,4.08,13.92A725.65,725.65,0,0,0,328.32,425q20.16,50,44,98.16l7,13.32c3-4.68,3.24-9.84.72-15.72l-12-28.2a401,401,0,0,0-39.6-73.44q1.26-5.76-1.08-3.24l-.48,1.08ZM148.08,57.6l-1-3.48a264.52,264.52,0,0,0-13.44,86.76q.54,56.16,3.84,112.32a289.56,289.56,0,0,0-47.88-1.56A168,168,0,0,0,55,257.76c-5.64,1.68-11.28,3.6-16.8,5.64q4.5-105.48,12.12-210.72c.36-6.12-.72-8.76-3.24-7.8a806.08,806.08,0,0,0-13.2,140.28q-.72,88.92-.36,177.72c.12,32-.48,64.08-1.56,96.12-.48,13.56-.36,27.24.24,40.8l.72,8.28c.6,6.36,2.16,11.16,4.68,14.52Q43.68,412.44,38.88,302c-.36-9.48-.6-19.08-.72-28.68a362.15,362.15,0,0,1,99.84-6.6q5.58,124.2.6,248.52a27.22,27.22,0,0,0,4.8,16.8l.72,1.08Q150.78,425,147,310.68l-5.16-169.32a204.47,204.47,0,0,1,.72-24.24c.84-7.8,2-15.6,3.6-23.64l1.56-7.92A55.17,55.17,0,0,0,148.08,57.6ZM341.76,178.92c14.64,9.72,20.52,23.4,17.64,40.92-3.72,22.44-15.6,36-35.88,40.68q.72-40-.12-79.32A71.28,71.28,0,0,1,341.76,178.92ZM287.52,62.4l.36.12a6.26,6.26,0,0,1,1.68-4.08l.72-.84c4.8,8.76,7,19.32,6.48,31.8q-1.26,32.4.72,64.8C300,197,301.2,240,301.2,283.32a1126.19,1126.19,0,0,1-7.68,129A350.29,350.29,0,0,1,262,522a24.31,24.31,0,0,1-18.48,14.28q-38.52,7.38-52.8-25.8a83,83,0,0,1-6.12-22.92A839.43,839.43,0,0,1,179.64,361q2.34-64.44,2.52-129c.12-43.2.24-86.28.6-129.12a187.55,187.55,0,0,1,5.52-46.56c2.64,9.36,3.72,20.16,3.36,32.28-1.56,43-2.52,85.92-2.64,129s-1.08,86.16-2.76,129a1116.45,1116.45,0,0,0,2.4,128.4,58.2,58.2,0,0,0,16.32,37,23.4,23.4,0,0,0,11.64,6.84c12.72,3.24,25,2.4,36.6-2.76A154.92,154.92,0,0,0,280,452.16q2.88-16.38,5.4-32.76a856,856,0,0,0,9.36-129c-.12-43.32-1.56-86.28-4.32-129.12-1.92-31.32-2.88-62.64-2.76-94.2l-.48-.12A6.05,6.05,0,0,0,287.52,62.4Zm127,213.12,4.08,4.8,1.44,6.36,2.88,1.56c2-6.6,1.2-12.48-2.64-17.76-6.12-8.52-14-10.56-23.76-5.88q-11.7,5.4-11.88,18.72c1.08,16.2,7.44,30.48,19.08,43.08,10.92,11.88,15.84,25.92,14.52,42.24-1.44,19.44-9.24,25.68-23.4,18.6a41.05,41.05,0,0,1-13.8-11.4,23,23,0,0,0,1.92,22.08c6.24,9.72,14.28,12.6,24.12,8.52,6.48-2.64,10.92-7.56,13.2-14.64Q431.4,357.42,414.6,326l-18.36-34.32q-7-13.5,7.2-16.2A28.48,28.48,0,0,1,414.48,275.52ZM356,179.4c-7.32-10.2-16.92-13.56-28.8-10.2l-4.08,1.32L323,168l-1.8,3.12q-8.82,29.52-7,69.48a454.12,454.12,0,0,1-4.44,87.48,187.23,187.23,0,0,0,4.8,80.16l8.64-134.16a22.49,22.49,0,0,0,16.44-4.8,721.3,721.3,0,0,0,27.72,137.64q1.08-69.66-24.24-139,35.46-39.78,13.32-87.72ZM544.44,61.68l-70.08-3.6-31-.84-31.08-.72A68.26,68.26,0,0,0,392,57.84,56.17,56.17,0,0,0,380.4,61.2l1.08,10.56a270.44,270.44,0,0,1,32.64-3l6.6-.12h6.6l54.12,1.8A178.62,178.62,0,0,0,477,95.64l-.48,6.6-.24,6.72q1.62,71.46,2.16,142.68.9,141.84,6.6,282.72a24,24,0,0,0,1.44,7.08,170.2,170.2,0,0,0,3.36-25.92l.24-6.6V502.2c-1.2-22.44-1.92-44.88-2.28-67.08L482.88,70.56l61.56,3.36a12.33,12.33,0,0,0,1.44-3.36l.12-.72.24-.84v-.84l-.36-2-.72-2.76Z" transform="translate(-31.62 -44.69)"/></svg>