<svg id="Layer_1" data-name="Layer 1" xmlns="http://www.w3.org/2000/svg" viewBox="0 0 485.02 382.64"><defs><style>.cls-1{fill-rule:evenodd;}</style></defs><path class="cls-1" d="M236.16,137.88a323.86,323.86,0,0,0,1.08-48,225.23,225.23,0,0,0-10.44,66.84q-.9,64.26-3,128.28c-1.56,42.12-2.16,84.36-1.92,126.48.12,18.84,7,34.08,20.52,45.84,10.2,9,21.48,10.92,33.6,6a47.75,47.75,0,0,0,24.6-22.2A342.33,342.33,0,0,0,339.12,317a692.31,692.31,0,0,0,2.4-129.12c-1.56-21.6-2.16-43.32-1.68-65,.36-12.36-2.16-22.92-7.32-31.68A81.22,81.22,0,0,0,330,123.72a914.52,914.52,0,0,1,5.4,128.16A583,583,0,0,1,318,378.6,143.14,143.14,0,0,1,287.52,438q-10.26,12.24-25.92,10.08-25.38-3.42-29.16-28.08a462,462,0,0,1-4.92-88.32c1.8-43.08,3.36-86.16,4.56-129C232.68,181,234.12,159.36,236.16,137.88ZM182.88,92.64a488.79,488.79,0,0,0-2.4,78.6l3.84,86.28-6.84-.48c-32.28,5.16-64.92,8.88-97.8,11.4.36-16.2,1.2-32.28,2.28-48.36a803.82,803.82,0,0,0-1.32-128.4H80q-2.52,38.52-3.72,78.84-1.44,48.24-1.68,96.6C74.52,310,74,352.68,73,395.28a146.7,146.7,0,0,1-2.4,24.12c-2.28,12.12-1.08,22.8,3.6,31.92a514.88,514.88,0,0,0,6-102.24q-1.44-36.18-.72-72A608.13,608.13,0,0,0,185,272.64l1,27.6a826,826,0,0,1-5.28,128.88c-1.32,11.88-.24,22.8,3.24,32.52a2.67,2.67,0,0,0,1.08-1.56,730.25,730.25,0,0,0,7.2-110.16q-.36-39.6-1.2-79.08a10.67,10.67,0,0,0,1.32-7.92,9.67,9.67,0,0,0-1.68-4l-1-38.16c-1.32-43.08-3.48-85.92-6.36-128.28Zm180.84,225.6a178.59,178.59,0,0,1,.84,21.12q-1.8,64.8-1.44,128.16a587.26,587.26,0,0,0,86.52,4.92c4.56-6.12,4.56-12.36,0-18.48a402.37,402.37,0,0,1-81.72-3.72c-.12-7.92.12-15.72.48-23.52a1114.67,1114.67,0,0,0-1-128.28C364.08,303.72,362.88,310.32,363.72,318.24ZM469.44,148.56q-.36,64.44,1.68,129.12c1.32,42.84,1.32,85.92-.12,129a351.41,351.41,0,0,0,3.6,64.08,276,276,0,0,0,77.16-3.24c3.72-5.28,3.6-10.44-.36-15.36a267.09,267.09,0,0,1-73.08,1.8L478,325.8l-.48-96.6c-.36-43.44-1-86.16-2-128.28A193.9,193.9,0,0,0,469.44,148.56Zm-67.08-30.48q10.44,36.18-20.4,54.48l-.48-1.56-.84,2-11.4,3.12a429.23,429.23,0,0,0,2.52-74.52c10.44-1.08,19.2,1.92,26.28,9.12A18.24,18.24,0,0,1,402.36,118.08ZM369,92.76a10,10,0,0,0-1.2,4.92,7.92,7.92,0,0,0,.72,3.24l.24.84,1.08-.12a101.36,101.36,0,0,0-4.32,23.28L356.76,253.2c-.84,12.6,1.08,23,5.52,31.44,2.4-20.16,3.84-40.68,4.44-61.68.36-10.92.84-21.72,1.56-32.4a45.52,45.52,0,0,0,13.92-4.08,246,246,0,0,0,10,42.6q10.26,31.32,28.56,55.32a15.06,15.06,0,0,0,.12-15.24,519.29,519.29,0,0,1-35.28-84.48A46.49,46.49,0,0,0,395.88,176c12.24-13.56,17.76-29.88,16.44-49-1.56-21.72-13.08-33.6-34.56-35.4a24.83,24.83,0,0,0-8.16.72Z" transform="translate(-69.44 -89.88)"/></svg>