<svg id="Layer_1" data-name="Layer 1" xmlns="http://www.w3.org/2000/svg" viewBox="0 0 459.77 383.4"><defs><style>.cls-1{fill-rule:evenodd;}</style></defs><path class="cls-1" d="M64.92,102.72a64.68,64.68,0,0,0-3.12,23.4q1.44,39.42.84,78.72c-.72,43.32-2.52,86.28-5.28,129.12l-2.64,32.28a319.32,319.32,0,0,0-.36,64.2q1.26-.36,1.44-1.08a124.66,124.66,0,0,0,6.12-37.8q.36-64.44,3.24-128.4L65.64,252a185.24,185.24,0,0,0,63.72,8.76l1,85.92a292.81,292.81,0,0,1-3.6,48.24q-3.06,18.54,4.68,32a267.24,267.24,0,0,0,6-60q-.72-55.8-.72-111.24l.36-2.4a10.5,10.5,0,0,0-.36-2.88v-12.6c.12-43.56-1.68-86.64-5.28-129h-.48Q128.4,162.3,129,217.56l.24,29.64a150.68,150.68,0,0,1-55.68-5,9.87,9.87,0,0,0-7.44,1.2l2.4-44.88a521,521,0,0,0-3-95.88ZM246,101.88a84.22,84.22,0,0,0-2.4,33.36A978.91,978.91,0,0,1,250.8,260a318.09,318.09,0,0,1-27.48,129q-14.94,33.66-49.92,19.2a327.88,327.88,0,0,1-11.76-112.08q4.14-64.44,7.68-128.88a496.09,496.09,0,0,0-.48-64.2,9.8,9.8,0,0,0-3.12,6.48C164,123.12,163,136.92,162.36,151Q160.2,215.22,156,279.24a502.84,502.84,0,0,0,8,128.28q5.76,29.7,38,21A21.56,21.56,0,0,0,214.2,420c20-28.56,32.52-60.48,37.68-95.64a649.49,649.49,0,0,0,6.6-95.76,771.8,771.8,0,0,0-11.16-127.44C246.6,101,246.12,101.28,246,101.88Zm256,37.44q.9,60.84,2.28,121.44a347.14,347.14,0,0,1-55.8,1.92l-.24-32.4q-.9-65.34.12-128.28c-5.52,16.44-7.92,34.32-7.08,53.64q2.52,64.26.24,128.28A1278.57,1278.57,0,0,1,430.2,412.8c-1.68,11.88-.36,22.68,3.84,32.28a601.78,601.78,0,0,0,11.28-86.52c1.8-28.2,2.76-56.4,3.12-84.72a155,155,0,0,0,56,2.4,857.83,857.83,0,0,1-7.08,120.24,135,135,0,0,0,2,48.84,1.71,1.71,0,0,0,1.2-1,489,489,0,0,0,10.08-77.64q3.06-64.26,1.32-129.12c-1.08-43.32-2.76-86.28-5-129.12C503.4,117.36,501.72,127.68,502,139.32ZM399.84,127.68c1.32-13.32-5.76-20.4-21-21.12a25.17,25.17,0,0,0-10.8,4.56,27.32,27.32,0,0,0-6.72,7.2,207.23,207.23,0,0,0-28.92,90,1089,1089,0,0,0-3.24,128.28,257.85,257.85,0,0,0,10.08,63.84,48.56,48.56,0,0,0,18.84,27c12,8.52,23.88,8.64,35.76.48,16-11,24.72-26.16,26.4-45.36l-1.2,1.08a33.6,33.6,0,0,0-3.72,6,1.87,1.87,0,0,1-2.4.84,66.85,66.85,0,0,1-10.68,13.2,37.57,37.57,0,0,1-16.32,9.24c-18.12,4.68-30.36-1.08-36.84-17.52A210.92,210.92,0,0,1,334.2,322l-.6-31.56A554.79,554.79,0,0,1,346.08,164C349.56,148.56,357,136,368.4,126.12a16.12,16.12,0,0,1,13.2-3.84,46.28,46.28,0,0,1,18,6.24ZM369.6,61.92,202.32,68.76l-.36.84A13.67,13.67,0,0,0,202.08,80a4,4,0,0,0,1.92.6q49.32,0,98.64-1.08a209.49,209.49,0,0,0-3.24,33.24c-1.08,42.6-1.32,85.44-.48,128.28q1.26,65-3.48,129c-.84,10.92-2,21.6-3.84,32.28q-3.24,18.9,4.68,31.68a848.57,848.57,0,0,0,9.12-105.48c1.08-43,1.32-86,1-129.12q-.72-60.48-1.8-119.88l66.36-2.16.48-.84C373.44,71.16,372.84,66.36,369.6,61.92Z" transform="translate(-52.91 -61.92)"/></svg>