<svg id="Layer_1" data-name="Layer 1" xmlns="http://www.w3.org/2000/svg" viewBox="0 0 368.59 323.52"><defs><style>.cls-1{fill-rule:evenodd;}</style></defs><path class="cls-1" d="M271,253l-4.92.48-4.8.72-4.68,1.08,24-114.48,9.84,112.8a53.43,53.43,0,0,0-14.4-.84ZM281.4,130.08l.24-10a861.37,861.37,0,0,0-22.32,86.16L248.52,258l-1,.48-.24,1.56a10.42,10.42,0,0,0,.12,2.76Q240.06,297,232,331.08q-7.38,31.14-17.76,61.56c-4.2,12.24-4,22.56.84,31.08a26.14,26.14,0,0,0,3-7.32q14.22-61.74,29.52-124l6.72-27.36A108,108,0,0,0,291,263c2.52,32.76,5.16,65.52,8.16,98.28a427.1,427.1,0,0,0,10.32,62.88,2.23,2.23,0,0,0,1.08-1.32,201,201,0,0,0-1.08-48c-5.88-42.12-10.32-84.6-13.2-127.2S289.2,162.84,283.8,121A53.42,53.42,0,0,0,281.4,130.08ZM190.8,193.2,188.52,250c-16.68-4.92-34.08-5.88-52.2-3.12a108.07,108.07,0,0,0-21.48,1.2l.6-10.2a1016.53,1016.53,0,0,0-.24-128.28l-.48.12a292.6,292.6,0,0,0-4.2,51.84c.12,42.84-1.44,85.68-4.68,128.28s-5,85.44-5.16,128.28c.72,1.56,1.92,2,3.72,1.56a512.64,512.64,0,0,0,4.8-53.52q2-53.64,5-107.16c25.56-.12,50,1,73.68,3l-2.64,59.52c-1.08,21.36-2.76,42.6-5.28,63.84q-2.16,17.82,4,32.4a207.45,207.45,0,0,0,6.36-47.52c.84-35.88,2.28-71.76,4.56-107.64l6.72.72.36-2.52v-2.28l-.72-2.52-.24-.84a15.64,15.64,0,0,0-4.56-2.64l-1-.24.6-10.32a1207.45,1207.45,0,0,0,2.16-128.28A699.09,699.09,0,0,0,190.8,193.2Zm192.36,217a168.65,168.65,0,0,1-42.48,5c.84-10.8,1.32-21.72,1.68-32.88,1.08-42.84,3-85.68,5.52-128.28a1037.64,1037.64,0,0,0-.24-128.16c-2.28,1.56-3.48,4.08-3.36,7.56.6,42.84-.48,85.56-3.48,128.16-2.76,42.84-4.92,85.8-6.24,129.12-.12,5.4-.6,10.8-1.2,16-1.32,10.08.84,17.88,6.24,23.52a16.83,16.83,0,0,0,2-5.64c16.32,4.68,32.64,3.6,49.08-3.24a9.58,9.58,0,0,0,1.08-5.76,10.2,10.2,0,0,0-1.32-4.08L389,411ZM423,132.84,418.56,135l1.32,7.56q-4.14,142.74-1.44,290.52c6.84-39,8.76-80.16,6-123.36-.72-11.4-1-22.8-.84-34.2L424,264a139.84,139.84,0,0,0,44.4-8.28c1.56-3.24,1.08-6-1.2-8.28L465.6,246l-41.16,6.36-.36-110.28L467.52,132q-16.56-12.6-39.24-1.44c-1.56.72-3.12,1.44-4.68,2l-.12-2.16Z" transform="translate(-100.68 -109.56)"/></svg>