<svg id="Layer_1" data-name="Layer 1" xmlns="http://www.w3.org/2000/svg" viewBox="0 0 456.6 407.16"><defs><style>.cls-1{fill-rule:evenodd;}</style></defs><path class="cls-1" d="M285.48,120.36l17.64,152-41-.36,20.64-131Zm-92.4-26.52A1210.91,1210.91,0,0,0,185.52,223l-.36,41.64L154.68,263c-20.28,1.68-40.32,4-60,6.72l-.6,1c1.32-36.36,1.92-72.72,2-109.2A238.38,238.38,0,0,1,101,113.28a79.9,79.9,0,0,0,.12-32.88c-7.44,14.52-11,31-10.92,49.44Q90.42,194.46,87.6,259q-3.06,64.44-5,129c-.6,21.48-1.56,43.2-2.76,64.92-.6,12.48,1.44,23,6.24,31.68A380.76,380.76,0,0,0,91,419.64q-.36-64.44,2.4-129l.36-9.36,1,2.28Q140,278.88,185,278.28l-.84,73.8c-.36,21.6-1.32,43.2-3,64.8A222.61,222.61,0,0,0,185,480a2.14,2.14,0,0,0,1.08-1.44Q189,430.86,190,382.8q1.26-64.62,2.16-129,.72-64.8,4.2-129A47.25,47.25,0,0,1,198.24,113c2.64-9.48,1.8-17.28-2.4-23.52A5,5,0,0,0,193.08,93.84Zm93.36,5.88-.24-6.12q-3.06.9-4,4.68c-6.84,32.76-12.48,65.88-17,99.12q-4.32,31.32-10.44,62.28L230.28,385.56q-6.3,31.86-15.24,63c-3.48,12-2.76,22.44,1.92,31.44a114.54,114.54,0,0,0,8-25l25.92-124.92q4.86-22.86,9-45.72a250.47,250.47,0,0,0,44.76,2.16l.24-.36,5.28,41.52q8.1,63.54,17.88,126.72c1.8,12,5.28,22.2,10.44,30.48A15.41,15.41,0,0,0,341,472.8l-6.12-35.28c-5.64-31.08-10.8-62.4-15.24-93.72-6-42.12-11.64-84.24-17-126.6s-9.84-84.48-13.2-126.84A45,45,0,0,0,286.44,99.72Zm84.12,29.4c-1.44-17.16-10.08-28.68-26-34.68-4.44-1.68-8.76-1.08-13,1.68l.12-3.6A806.59,806.59,0,0,0,319.56,281a30.37,30.37,0,0,0,1.32,7.2A785.87,785.87,0,0,0,328.56,186l18.72-3.6A424.15,424.15,0,0,0,373.44,288a504.6,504.6,0,0,0-24.6-106.56l9.12-8A63.39,63.39,0,0,0,370.56,129.12Zm-7.2-2.28q5.4,39.6-34.44,47.88l2.4-70.08a27.4,27.4,0,0,1,24.48,5.76A29.77,29.77,0,0,1,363.36,126.84ZM487.44,97.68l-.12-3h-.24a5.53,5.53,0,0,0-2.76,1.92,115.79,115.79,0,0,0-4.92,17q-12.78,63-25.08,125.88c-2,10.44-4.56,20.88-7.56,31.08l-1.32,5.52-10.56-55.8q-10.26-52-15.6-104.16c.72-7.92,1.08-15.72,1.2-23.4-1.56-.12-2.4.72-2.76,2.28l-.24,1.08-.24-2.52c-.6.12-.84.24-.84.36-.84,4.92-1.32,9.84-1.68,14.76a806.7,806.7,0,0,0-15.48,102.36L388,339.24q-5.4,63.36-13.56,125l-.12-.84-.6-10.56a1.66,1.66,0,0,0-.48.36c-1.8,12-.12,22.32,5,30.84a753.21,753.21,0,0,0,14.64-103.8l3-48.12Q399.66,267.72,407,204c2.28-19.32,4.92-38.64,8.16-57.84.48,4.56,1.08,9.12,1.92,13.68q11,62.82,20,125.88c1.32,9.48,4.32,16.8,8.76,22.2l1.8-8.28,1.2,2a458.84,458.84,0,0,0,11.4-50q10.26-60.66,23.4-120.72l.12,2c3.72,42.12,8.16,84,13.56,125.88q8.1,63.18,18,126.24Q521,420.9,524,456.84c1.08,12.12,4.44,22.32,10.08,30.72,3-13.56,2.88-28-.24-43.2-6.6-31.08-11.88-62.52-16.08-94.2Q509.52,287,500.4,223.8q-9-63.36-12-126.6c-.48-.12-.72-.12-.84.24Z" transform="translate(-79.7 -80.4)"/></svg>