<svg id="Layer_1" data-name="Layer 1" xmlns="http://www.w3.org/2000/svg" viewBox="0 0 301.41 216.79"><defs><style>.cls-1{fill-rule:evenodd;}</style></defs><path class="cls-1" d="M300.6,335c7.32,11.16,14.88,22.32,22.44,33.48a85.14,85.14,0,0,1-36.24,12.72,10,10,0,0,1-4.08-4.56c-8.76-18.6-5-32.88,11.4-43.08l1.8,1.44a4.36,4.36,0,0,0,4.08,1l.6-.84ZM276,286.56c-2.88,2.76-3.72,6.12-2.4,10.2l.48,1.68,6.72,4.32,10.2,17.4c-18.36,14.52-24.12,33.24-17,56.28A50,50,0,0,0,286.2,397.2,84.14,84.14,0,0,0,331,379.92c5.28,10,11.64,17.64,19.08,23.28,3.48-3.72,3.6-7.8.6-12.48q-34-52.2-69.84-103.32ZM156.6,194.28q-3.6,59-3.6,119.88a428.8,428.8,0,0,1-5.16,64.68c-1.92,12.24-.84,22.92,3.12,31.92A358.74,358.74,0,0,0,159.72,323V302.76l.48,2.4.36.84,1.32,1.68a33.79,33.79,0,0,1,7.68-1.68,373.88,373.88,0,0,1,72.36.24c-.36,21-1.32,41.88-2.88,62.76a110.94,110.94,0,0,0,1.8,32.52,3.89,3.89,0,0,0,2.64-3.36,570.2,570.2,0,0,0,5.16-74.52V307.08l3,.24a7.85,7.85,0,0,0,2.28-2.88,5.72,5.72,0,0,0,.48-2.4l.12-1.68V298.8a15.57,15.57,0,0,0-1-4.08,5.1,5.1,0,0,0-1.92-2.52h-3.12q-.36-49-2.28-96.84c-4.56,13.32-6.36,28.2-5.52,44.64.84,17.16,1.2,34.44,1.32,51.6l-4.68-.48C219,289,200.52,287.4,181.8,286.56l-1.32.6-7.68,1.56a28.16,28.16,0,0,0-7.68,2.88,16,16,0,0,0-4.68,3.84l-.48,1.68-.12.72-.12.36c.24-13.32,1-26.64,2-40a219.72,219.72,0,0,0-4.32-64.2C156.84,193.92,156.6,193.92,156.6,194.28ZM378.36,305l1.2-1.44,11-2.76c16.44-2.4,29.52,3,39.12,16.32,9.48,13.08,12.84,27.6,10.2,43.56-2.64,15.72-13,24.12-30.84,25.32a113.08,113.08,0,0,1-37-3.72l1.68-76.2Zm-7-100.2-.72-6-.6.12a494.08,494.08,0,0,0-3.36,67.32q1.08,64.44-.12,128.16a3.32,3.32,0,0,0,2.4,2.16h.24a4.49,4.49,0,0,0,2.28,3,98.61,98.61,0,0,0,50.76,2c7.8-1.8,13.44-6,16.8-12.72q15.48-31.5,5-65.88c-5.52-18.12-16-29.52-31.44-34.2,9-7.8,13.44-18.48,13.56-31.8q.18-45-40.44-60.84a20.67,20.67,0,0,0-8.52,1.56C373.56,199.44,371.52,201.84,371.4,204.84Zm2.52,5.4.72.24c16.2-.6,29.28,6,39,20q16.2,23.58-3.36,40.68a102,102,0,0,1-36.36,20.88,577.37,577.37,0,0,0-2.16-84Z" transform="translate(-146.91 -193.97)"/></svg>