<svg id="Layer_1" data-name="Layer 1" xmlns="http://www.w3.org/2000/svg" viewBox="0 0 439.75 379.32"><defs><style>.cls-1{fill-rule:evenodd;}</style></defs><path class="cls-1" d="M257.4,248.76l22.44-118.44,9.24,114.48ZM117.84,91q-4.5,79.74-4.2,160.68l-.12,5.16L110,258.12l.84,9.72q-3.6,81.36-4.8,166.32a18.93,18.93,0,0,0,1.2,7.2l1.44,3.48,11-178.2,70.44-8.76.24-6.48a137.32,137.32,0,0,0-70.32,3.24l1.44-154Zm82.8,7c-2.52,40.2-4.56,80.52-5.88,121q-2.16,64.44-6.6,128.4c-1.56,21.72-3.24,43.2-5.28,64.68-1.08,12.48.72,23.28,5.4,32.28a2,2,0,0,0,1.08-1.2,75.86,75.86,0,0,0,2.88-21c-.12-22.68.6-45.36,1.92-68,2.64-42.6,5-85.44,7.08-128.28q3.06-65,.36-128.28C201,97.32,200.64,97.44,200.64,97.92Zm81.48,1.56a8.41,8.41,0,0,0-1.8,2.28c-2.64,10.92-4.8,22.08-6.6,33.24q-9.9,63-25.92,124.92-16.38,62.28-28.44,125.16c-2,10.56-4.56,21-7.44,31.2-3.48,11.88-3.24,22.32.72,31.2a30.77,30.77,0,0,0,4.44-12.12Q223,393.42,233.16,352q11.52-47.16,22.2-94.44a66.36,66.36,0,0,0,34.2-4.32l.84,17.4c1.8,42.6,4.2,85.2,7.44,127.56l2.28,32.52c.6,9.84,3.6,17.52,9.12,23,.48-.6.72-1.08.6-1.44q-4-49.86-7.44-100.8-4.14-64.08-8.88-128.16c-3-40.2-6.24-80.4-9.84-120.36l.12-1.2-.24-.84-.12-.12-.48-5-.72,3.6Zm123,30.84q-1.44,43-4,86C399,253.68,397.32,291,396,328.56q-1.26,41.22-4.32,82.32c-1.44-10.08-2.76-20.16-3.84-30.36-1.56-14-3.24-28-5.16-41.76q-7.74-55.08-16.08-110.16-9.54-62.82-23-124.68a1,1,0,0,1,.24-.72l.84-2.28-.36-.84a8.92,8.92,0,0,0-2-4c-1.56.24-2.16,1.32-1.92,3.24l.6,4.44Q335,151.86,333.36,201q-2.16,64.26-6.24,128.4c-2.76,42.84-4,85.56-3.84,128.16q.72,2.88,3.24,2.16a33.06,33.06,0,0,0,2.88-13.8q.36-46.08,2.64-92.4l7-128.4c2-36.6,3.12-73,3.48-109.08q4.32,34,9.24,67.8,9.54,63.54,19.2,126.72c5.64,36.36,10.68,72.72,14.88,109.2a76.55,76.55,0,0,0,5.88,22.8,49.12,49.12,0,0,0,4.92,13.32l.6-.84q3.42-63.36,5.4-128.16,1.26-48.06,4-95.88,3.6-64.8,5.28-127.92C407.64,111.12,405.48,120.12,405.12,130.32Zm137.52,3.12c-6.84-22.44-23.52-32.64-50.16-30.36-11.16,3.36-19.44,10.32-24.84,21a248,248,0,0,0-18,46.44A704.47,704.47,0,0,0,427,296.16a345.83,345.83,0,0,0,4.56,95.16,111.87,111.87,0,0,0,32.88,61c6.12,6,13.2,7.68,21,5a125.87,125.87,0,0,0,40.8-22.92,62.17,62.17,0,0,0,10.92-11.88c-.84,8.4-1.68,16.8-2.76,25.2-1.32,9.48.12,17,4.32,22.56A8.6,8.6,0,0,0,541,466.2a41,41,0,0,0,1.2-6.48,15.3,15.3,0,0,0-1.32-7.32L543.48,424a549.26,549.26,0,0,0,1.44-82,18,18,0,0,0-3.48-3.24c-12.12-2-24.36-3.72-36.6-5.16l-1-.6-2.28-1.56a2.51,2.51,0,0,0-2.28,1,3.74,3.74,0,0,0-1.08,3.12,9.37,9.37,0,0,0,2.28,5.76l2,.6,38,9.36c0,14.4-.48,28.8-1.32,43.08-6.36,15.12-16.8,28-31.32,38.64a48.07,48.07,0,0,1-32.76,9.72A12.31,12.31,0,0,1,467,439a107.94,107.94,0,0,1-30.84-59.64,312.14,312.14,0,0,1-4.32-63.48,561,561,0,0,1,18.24-125.4,271.19,271.19,0,0,1,24.12-61,18.87,18.87,0,0,1,11.64-9.6c24-7.08,43-2.4,56.88,14.28Z" transform="translate(-106.06 -90.96)"/></svg>