<svg id="Layer_1" data-name="Layer 1" xmlns="http://www.w3.org/2000/svg" viewBox="0 0 545.6 576.03"><defs><style>.cls-1{fill-rule:evenodd;}</style></defs><path class="cls-1" d="M407.64,522.12c1.56-7.92-1.08-13.68-7.92-17.4a23.83,23.83,0,0,0-14.4-2.76c-14.4,9.36-20.4,23-18.12,40.92s11.28,27.84,27,29.64c7.68.6,13.56-2.4,17.76-9.12l1.92,21.84q11.52-26.1,1.68-51.72a70.56,70.56,0,0,0-25.92,4.92v7.32l24.6-.6-.84,4.68-.84-3c-4.68,11.16-12.24,15.6-22.92,13.2-11-2.52-16.44-10-16.32-22.44a37.83,37.83,0,0,1,6.24-20.52,19.8,19.8,0,0,1,18.48-1.2A29.56,29.56,0,0,1,407.64,522.12ZM403,478.8c-7.08,6-15.48,8.52-25.08,7.68a388.06,388.06,0,0,0,3.48-55.08c19.2-1.2,29.28,7.92,30.24,27.48A23.63,23.63,0,0,1,403,478.8ZM304.8,499.32a331.36,331.36,0,0,0-1.8,63.24,3,3,0,0,0,.84-1.44c4.68-36,9-72.12,12.72-108.48a892.68,892.68,0,0,0,21.6,116.16,54.73,54.73,0,0,0,10.44-26.52Q354,501.6,360.12,461c1.8-11.64,1.32-22.08-1.32-31.08-.36.24-.6.48-.6.84-5.64,39.6-11.88,79.2-19,118.68l-.12-.48q-12.78-61.92-21.48-124.2-5.4,6.48-6.48,16.92ZM279.48,304.56a226,226,0,0,1,2.76,32.64,164.84,164.84,0,0,1,42.12,1.32,11.11,11.11,0,0,0,.36-12.12l-37.92-3.84a243.49,243.49,0,0,0-.6-63.36C279,272.4,276.72,287.52,279.48,304.56ZM127.92,28.44h-.36a405.7,405.7,0,0,0-9,101.4c1.32,39.24,2,78.48,2.4,117.84l-38.64-1.2L34.8,247.56l1.08-97.32c.36-43.08,1.44-85.92,3.36-128.28L39,21.12a7.3,7.3,0,0,0-1.92-3.24c-2.28,2.52-3.48,5.76-3.84,10-1.56,24.84-2.64,50-3,75.48-.6,43.08-1,86-1,129.12l.12,17.4-.24,1.8.12.84v2.4l.12.84-.12,105.84c0,21.48-.48,43.08-1.32,64.8L22.08,555.48c-.36,9.72,1.56,17.52,5.76,23.28l.6-1.68c1.56-13.32,2.64-26.88,3.12-40.44,1.8-42.6,2.4-85.44,2-128.4s-.24-86,.6-129l.36-21.72c29.28,1.08,58.08,1.68,86.52,2q.36,64.62-3.84,128.52-4.14,64.08-3.48,129a205.93,205.93,0,0,1-2.16,32.16c-1.8,12.36-.24,22.92,4.68,31.92a648.61,648.61,0,0,0,6.84-108.72q-1.26-64.8,2.28-129.12a1156.12,1156.12,0,0,0,.36-129q-3.24-64.26-.48-129.12a238,238,0,0,1,3.6-32A51.51,51.51,0,0,0,127.92,28.44Zm94.44,29.88,8.52,80c4.56,42.12,9,84.12,13.2,126.24l2.4,22.56-.24-.36a319.26,319.26,0,0,0-62,14.4L192.12,248l18.24-126.72q4.5-31.86,11.88-62.76Zm1.32-30.6-.24-1.2c-.6-.12-.84.12-1,.48a1053,1053,0,0,0-20.4,109.8Q193.62,200,183.24,262.68l-21,125.88q-10.62,63.54-22.8,126.72a232.63,232.63,0,0,1-8.28,31.08c-4.2,12.12-3.84,22.68.84,31.92A626,626,0,0,0,151.32,500q11.34-62.82,21.48-125.88l9.84-62.64Q214,305,246.24,299.88l.6-1,.72-1.32q4.86,47.16,10.68,94.08a301.85,301.85,0,0,0,5.52,31.44,542.36,542.36,0,0,1,14.64,127.8,86.66,86.66,0,0,0,5.16,31.32q5.76-11.88,5-27.36a628.34,628.34,0,0,0-9.72-82.44c-7.8-41.76-13.8-83.76-17.76-126.12q-5.94-63.9-14.76-127.2c-3-21.24-5.52-42.48-7.8-63.6L225.12,28.92l-.84-.72Zm46.2,74.76-.36,4.68q27.54,11.16,7.8,32.16h-5l-2.52-2-1.08-30.36q-10.62,41.4-6.72,78.24l6.24-37.44,6.6,1.56,1.44,3.12c6.36,12.36,13.32,22.44,20.64,30.24A77.51,77.51,0,0,0,279,146.76c14.76-14.52,15-29.16.48-43.92l-1.32-.36ZM378.6,426.72l-5.4,44a60.26,60.26,0,0,0,2.88,26.88c12.48,4.2,22.56,1.92,30.24-7.08A43.65,43.65,0,0,0,414,477.48c4.92-13.32,4.2-26-2.16-38.4-7.32-14.28-18.12-19.08-32.4-14.64ZM409.08,275.4q-20,56.88-35.16,115.56l-2.76-10.2a1156.92,1156.92,0,0,0-44.88-119.4c-4,3.84-4.68,8.76-1.92,14.88A809.93,809.93,0,0,1,362.28,381.6a182.64,182.64,0,0,0,11,29.16,238.43,238.43,0,0,0,17.76-54.36,220.88,220.88,0,0,1,19-55.2c5.88-11.64,6.36-21.48,1.2-29.76A12.75,12.75,0,0,0,409.08,275.4ZM383.4,116.64c-7.2,37.8-14.64,75.6-22.2,113.16l-.12-.6c-4.44-39.72-8.16-79.56-10.92-119.28q-9.72,34.74-22.2,70.68-11.34,32.76-9.24,63.48a884.43,884.43,0,0,1,28.92-107.4q4.68,57.78,11.16,115.2a1.86,1.86,0,0,0,1-1Q374.52,195.3,385,138.6a1093.91,1093.91,0,0,0,24.12,120.6q4.5-8.28,2.16-18.72-15.3-63.54-24.84-127.08A7.76,7.76,0,0,0,383.4,116.64Zm172.8-53q-17.1-34.92-59.4-39c-13.8.24-25.08,6-33.84,17.16a114.22,114.22,0,0,0-22.44,50.76,156.07,156.07,0,0,0-.12,54.36,481.22,481.22,0,0,0,26.16,93.24,316.68,316.68,0,0,0,21.12,43.56,644.79,644.79,0,0,1,54.6,117.84,350.3,350.3,0,0,1,19.08,124c-.48,20.28-9.48,34.56-27.12,43.08-22.2,10.68-44.28,11-66.24.84-30.72-14-41.52-37-32.4-68.52a39.3,39.3,0,0,0,10-11.88c1.92-3.72,1.32-6.72-1.8-9.24a36,36,0,0,0-5.88,4.44c-7.92,7.32-12.48,16.68-13.56,28.32-2,21,3.84,39.12,17.88,54.36q35.82,39.24,88,21.48c17.16-5.88,27.72-17.76,31.56-35.64a256.84,256.84,0,0,0,1.68-101.28A383.59,383.59,0,0,0,523.8,337.2c-15.48-29.4-30.24-59-44-89l-13.44-28.68c-16.56-34.92-23.4-71.28-20.64-108.84a121.64,121.64,0,0,1,16.2-52.92,33.72,33.72,0,0,1,22-16.44A61.7,61.7,0,0,1,529,46.56,43.65,43.65,0,0,1,544.08,59.4,236.23,236.23,0,0,0,559,78.24,28.3,28.3,0,0,0,556.2,63.6Z" transform="translate(-22.04 -17.88)"/></svg>