<svg id="Layer_1" data-name="Layer 1" xmlns="http://www.w3.org/2000/svg" xmlns:xlink="http://www.w3.org/1999/xlink" viewBox="0 0 576.6 604.32"><defs><style>.cls-1{fill:none;}.cls-2{clip-path:url(#clip-path);}.cls-3{fill-rule:evenodd;}</style><clipPath id="clip-path" transform="translate(-9.48 6.48)"><rect class="cls-1" x="9.48" width="576.72" height="597.96"/></clipPath></defs><g class="cls-2"><path class="cls-3" d="M250.08,574.08a29.6,29.6,0,0,1,1.08-9c.24.6.24,2.28.12,5a19,19,0,0,0,.6,6.84c1.92,5.64,8.52,8.52,19.8,8.52,6.36,0,11.76-1.32,16.2-4.08q5.4-3.06,5.4-5.4a8.59,8.59,0,0,0-4.2-7.56,48.86,48.86,0,0,0-9.24-3.72,28.33,28.33,0,0,1-9.36-4.44c-2.76-2.28-4.2-5.64-4.2-9.84,0-4.68,1.44-7.92,4.32-9.6,2.52-1.32,5.76-1.44,9.6-.24a24.49,24.49,0,0,1,9.6,5.76c2.88,3,4.32,5.88,4.32,8.88v2.52l-.48,1.2-.6.24a23.32,23.32,0,0,0-5.28-8.88c-3.12-3.48-6.6-5.16-10.44-5.16-3.24,0-5.64.72-7,2.16a4,4,0,0,0-1.08,2.76c0,2,1.44,3.84,4.2,5.4,1.8.84,4.92,2.16,9.48,4q13.68,5.94,13.68,17.28,0,4.14-5.76,9c-4.92,4.2-11.4,6.24-19.2,6.24-9.48,0-15.84-2.76-19.2-8.16A18.21,18.21,0,0,1,250.08,574.08Zm-25.2-95a7.3,7.3,0,0,1,.36-2.64l1-1.08,16.08.72a7.12,7.12,0,0,1,1.56-2.16l.72,2.4,12.24,1.44,1,1.32a8.06,8.06,0,0,1,.36,2.76,5.9,5.9,0,0,1-.36,2.4l-1.2,1.32-10.92-.6L246,491c0,5.16-.72,13.44-2,24.84s-2,19.44-2,24.24v2.28l-.24,1.32-.48.48-1,1-2.16-.36-.24-1.08a12.73,12.73,0,0,1-.24-2.52c0-3.72.84-9.6,2.4-17.88,1.56-8,2.28-13.68,2.16-16.68-.84-8-1.44-14.16-1.68-18.24v-4l-14.76-1.32-.6-1.32Zm124.8,54.24.48-3.12c.72-5.88,1.32-15,1.8-27.12.6-13.08,1.08-22,1.44-26.4h.84A6.53,6.53,0,0,0,356.4,478c-1.32,22.44-2.52,40.32-3.84,53.76,2.52-.84,6.36-1,11.4-.6a58.33,58.33,0,0,1,10.08,1.8l2,.72c2.16-30,3.12-49.92,2.76-59.76l2.4-.24a63.08,63.08,0,0,1,1.44,14.28c0,4.68-1.08,21-3.12,48.84-2.28,30.6-4.08,50.64-5.64,60.24l-1.08.36a13,13,0,0,1-1.08-5.76l3.84-50.88-1.08.36-11.16-1.2-11.52-1a474.67,474.67,0,0,1-8.16,52.68l-1.08.36a15,15,0,0,1-1.08-6.48c0-2,1.32-10.92,4-26.76L349,537.84l-.48-2.16A4.17,4.17,0,0,1,349.68,533.28Zm-28-105.84a10.29,10.29,0,0,1-.6,3.24l-1.32,2.4-1.08.24a23,23,0,0,0-3.6-6.72c-2.52-3.24-5-4.92-7.68-4.92q-26.64,0-36.24,37.68a142.6,142.6,0,0,0-4.44,39.36,46,46,0,0,0,2.76,16.56c3.72,9.6,10.32,14.4,20,14.4,9.12,0,17.16-3.36,24.24-10a64.14,64.14,0,0,0,6.24-7.2l3-3.72-1.68,5.52a59.24,59.24,0,0,1-4.44,10.32c-5.28,9.72-12,14.52-20.28,14.52-15.72,0-25.92-6.24-30.6-18.6A50.36,50.36,0,0,1,263.4,507l.12-7.68c0-10.32.12-17.64.48-22.08a95,95,0,0,1,3.36-20.88c4.2-14.76,13.56-29,28.08-42.72,9.12-.48,16.08,1.2,21,4.92C319.92,421.32,321.72,424.2,321.72,427.44ZM241.56,303.12l.12,4.08c0,5-2.28,20.16-6.72,45.24.6-.36,1.2-.84,2-1.44l1.92-1.44.12-1.08.12-1,1.08,1.2,6.84-4.8c9.72-7.08,14.64-12.6,14.64-16.44a30.36,30.36,0,0,0-1.2-6,60.89,60.89,0,0,0-3.84-10.68C252.48,302.16,247.44,299.64,241.56,303.12Zm17.64,2.28a55,55,0,0,1,4,13.32,46.07,46.07,0,0,1,1.2,8.52c0,1.56-.84,4-2.52,7.44a73.77,73.77,0,0,1-6.72,10.56,49.17,49.17,0,0,1-10.44,10.68c2.76,5.4,5.16,12.48,7.32,21.24l4.32,17a66.79,66.79,0,0,0,5.88,14.52,10.78,10.78,0,0,0,0,4l.24,4.2-.24,4-.6.48-1.32.6C257,412.8,252.6,399,247.08,380.4c-3-10-5-17.4-6.36-22.44l-3.72.72-3.12-.24-.48,2.76c-5.64,31.08-9.84,50.4-12.6,57.84a5.68,5.68,0,0,1-2.16-1.8,6.48,6.48,0,0,1-.48-3c0-1.8,1.8-10.44,5.28-25.92,3.84-16.92,6.12-28,6.84-32.88,1.56-10.56,3.12-21,4.92-31.32,2.16-12.24,4-20.88,5.4-25.8a12.33,12.33,0,0,1,.84,4C248.76,294.48,254.64,295.44,259.2,305.4ZM233.64,246l2.28-1.68c11.28,1.8,18.48,4.2,21.48,7.32a8.11,8.11,0,0,1,2.16,4.56l.24,4.92c0,4-.84,6.84-2.64,8.64-3.24,3.24-9.6,4.92-19.08,4.92l-5.16-.36-.6,4.68c-1.92,13.92-3.24,21.6-4,23.16l-1.08-1.68A9.4,9.4,0,0,1,227,298a217.41,217.41,0,0,1,1.56-25.56,6.8,6.8,0,0,1-.24-1.92,8.56,8.56,0,0,1,.24-2.28v-.36l.48.12,3.12-23H233Zm1.56,4.92a158.66,158.66,0,0,1-1.56,17.52l4.44.24c7.44,0,12.84-1.08,16.32-3.24,2.16-1.32,3.24-2.88,3.24-4.44q0-4-5.4-7.2a46,46,0,0,1-7.56-4.32l-9.48.72ZM88,52.44v54.48L86.4,138.6c-.6,12.6-1.44,23.16-2.52,31.56v43.92l-1.08,4.8V278c-1.08,12.36-2.16,28.32-3.12,47.88L77.4,373.8v54.36c-.6,4.2-1,11.52-1.32,22a171.08,171.08,0,0,1-1.92,22v86L72.6,578c-.6,8.52-1.68,15.12-3.36,19.8a9.44,9.44,0,0,1-2.88-4.2,11.69,11.69,0,0,1-.6-3.36c0-8.4.12-14.88.48-19.44a115.65,115.65,0,0,1,2.52-19.56v-85.2q.9-7.92,1.8-22c.48-10.32,1-17.64,1.44-21.84V368.64l2.28-47.52c1-18.72,2-34.44,3.12-47.28v-7.92l-10.32-.24q-2.7,1.44-8.64,1.44c-17.64.6-29.16-.24-34.8-2.76L22,296.16v55.2c-.48,9.72-.6,24.12-.48,43,.12,9.48.24,18.6.48,27.24l-.6,19.92c-.48,12.36-1,20.28-1.56,23.52v56l-3.24,34.44c-1.32,13.68-2.16,25.68-2.76,36.12-.12,0-.36.12-.72.48l-1.2,1c-1-1.08-1.68-4.56-2-10.32q-.36-4.86-.36-9.36a261.15,261.15,0,0,1,2.16-29.64q2.7-22.86,3.24-29.16V460.08L17,450.36v-57.6a331.51,331.51,0,0,1,0-46.32v-55.2c.36-6.84,1.44-25.08,3.24-54.6,1.44-22.44,2.16-40.68,2.16-54.84a128.45,128.45,0,0,0-1.08-19.44v-43.8l.24-.84V50.28c-.36-5.28-.84-12.24-1.2-21l-.6-14.64.12-11.4c.24-5.88,1-9.12,2-9.72q2.7,23.22,4,57.6v66.6c.24,14,.72,35.64,1.44,64.56q0,21.6-2.16,56.88L24.36,253l4.2.36,9.36,1.08L53,253.32l15.12-1.08,3.84.48,5.4.6V214.56a33.2,33.2,0,0,1,1.08-4.8V166.68c1.44-8,2.4-18.72,3-32L83,101.76V52.2c-.24-12.6-.24-22.2-.12-28.68Q83.46,6.06,89-2.76C90.36-.48,91,2.52,91,6.24L89.28,27.6C88.2,40.68,87.84,49,88,52.44Zm154,79.56c-2.28,3-3.48,5.52-3.48,7.68,0,5,2.52,10.2,7.44,15.36l16.32,14.28c7.32,6.36,12.84,12.48,16.44,18.24a50.33,50.33,0,0,1,7.44,26.88,18.32,18.32,0,0,1-1.68,6.6,35.27,35.27,0,0,1-5.4,8.76,29.42,29.42,0,0,1-23.52,10.8c-19.2,0-31.32-5.16-36.24-15.48a27.81,27.81,0,0,1-2.64-11.76l.48-7.68c0-8.16.12-14.4.48-18.72l2.16-1.32L218.16,196a44,44,0,0,0-.12,15.36c2.88,13.32,15.36,20,37.44,20A29.27,29.27,0,0,0,275,223.8c4.8-4.2,7.2-7.68,7.2-10.56a37,37,0,0,0-7.2-22c-3.12-4.2-8.52-9.48-16.08-15.84-7.92-6.6-13.2-11.64-16-15.12a31.24,31.24,0,0,1-7.32-19.92c0-6.84,2.28-12.24,6.84-16.32A27.76,27.76,0,0,1,272.4,121q6.84,4,6.84,10.8l-.12,3-.36,2.76-3,1.08c-.12-.24,0-.72.36-1.32a5.57,5.57,0,0,0,.72-2.76c0-2-1.56-4-4.56-6a24.33,24.33,0,0,0-13-3.48C251.52,125,245.76,127.32,241.92,132ZM181.44,25l-8.76,36.36q-14.4,60.48-20.88,92.88c-2.16,11.16-7.44,35.64-15.72,73.68l-6.48,30.6,12.24,1.08,16.2,1.32a117,117,0,0,0,21-1.8l12.6-2.76a13.71,13.71,0,0,1,4.92-.6l-.6-8Q181.74,62.1,181.8,26.76ZM306.6,20.88c0,5.16-2.4,9.24-7.08,12.12a133.16,133.16,0,0,1,16.2,11.16c9.24,7.32,13.92,11.52,13.92,12.72l-.36,4-.12.48c-.12.24-.84.36-1.92.36-4,0-11-4.32-21.48-13-6.72-5.64-11.16-9.84-13.44-12.84a78.28,78.28,0,0,1-17.4,1.68h-3l-.24.72-6.24,24.24c-2-1.56-3-3-3-4.56,0-5.16,1.92-15.48,5.64-31,3-12,5.28-20.76,7.08-26.16a78.1,78.1,0,0,1,1.08,9.36l.36,7.2c0,1.08-.84,5-2.64,12l.48-.12a90.15,90.15,0,0,1,11.64-2.16,90.64,90.64,0,0,0,11.52-2.28c3.48-1.2,5.16-2.76,5.16-4.8,0-2.28-2.76-4.92-8.4-8-6.12-3.48-11.64-4.92-16.68-4.44l-.6-1-.24-2.28c0-2.16,1.56-3.24,4.68-3.36a22.62,22.62,0,0,1,10.2,2.4,29.21,29.21,0,0,1,10.2,7.08Q306.6,15.3,306.6,20.88Zm90.48,334.8a4.65,4.65,0,0,1,.48,2.64c0,4.92-6.36,18-19.2,39.24l-4.8,7.8c2.52,6.36,5.64,18.36,9.24,35.76,4.2,20.16,6.36,32.64,6.36,37.32L389,480.6,388.8,482l-.48.48-.84.84-3.84-19.56a151.08,151.08,0,0,1-3.12-19.92c-.36-4.32-2.16-11.16-5.64-20.64a118.63,118.63,0,0,1-4.2-13.32L358.32,429l-1.44-.36-.6,3.84c-3.36,23-5.88,38.16-7.44,45.48-1.32-.72-1.92-2.4-1.92-5.16q0-9.72,6.12-58c4-31.8,7-51.84,8.76-60.24a11.36,11.36,0,0,1,1,3.6l.12,3.72-1,17-1,17c0,2.28-1.2,11.64-3.48,28.2L371.4,399c11.28-20.28,19.2-35.16,23.64-44.64A7.26,7.26,0,0,1,397.08,355.68ZM378.36,237a26.6,26.6,0,0,1-2.16,9.84,37.81,37.81,0,0,1-8.4,12.84c-10.56,10.8-26.76,16.2-48.48,16.2l-1.32-.12-.84,9.24c-2,22.08-6,46.32-11.64,72.84l-.48.48-.84.84c-1.08-1.68-1.68-4.32-1.68-7.8,0-2.52.72-7.92,2.28-16.2l4.8-28.32a589.18,589.18,0,0,0,7-89.76,189.16,189.16,0,0,0-1.44-22.32l-1.44-13.68c0-2.4.48-3.72,1.56-4.08l1.2,2.76.72-.6q29.7-2.52,47.76,22.44a76.11,76.11,0,0,1,10.32,20.16C377.28,227.88,378.36,232.92,378.36,237Zm-7-14.88a74.91,74.91,0,0,0-9.6-15.24c-9.72-12.12-19.92-18.72-30.6-19.92l-12.84.24a74.86,74.86,0,0,1,1.2,9.6l.24,19.92c0,19.32-.48,36.48-1.32,51.72a55.67,55.67,0,0,1,5.4-1.44l20.88-4.44Q375,254.64,375,234.84C375,231.48,373.8,227.28,371.4,222.12Zm108-22.68c-.84,10.44-1.44,16.8-2,19V331.92c-.6,12.12-1.08,29.64-1.56,52.68q-.9,37.26-1.44,53.64v56c-1,10.68-1.68,27.12-2.28,49.32a241.21,241.21,0,0,1-3.84,34.2c4.68-2.16,14.4-8.64,29.4-19.56,14.52-10.56,26.76-19.92,36.84-28.08a88,88,0,0,0,21.24-24.6c3.84-6.6,7.44-15.12,10.92-25.68A267.89,267.89,0,0,0,578,429.24a373.94,373.94,0,0,0,3-50c0-14.76-1.32-32.52-4.08-53-2.76-21-5.88-37.44-9.48-49.2-1.68-7.8-3.36-14.52-5-20.4a113.56,113.56,0,0,0-11.76-28.8Q528.72,191,480,191ZM423,186.12c6.12-10.44,13.32-13.56,21.48-9.24a21.81,21.81,0,0,1,7.8,7.08c2,3,3.12,5.52,3.12,7.68,0,1-1,2.88-3,5.88l-4.68-5.88c-2.76-3.48-5.16-5.16-7.2-5.16-10.2,0-17,7.08-20.52,21.12a121,121,0,0,0-2.52,16.68l-.72,12.48-2,25.8c-.72,11.64-1.44,20.28-2,26v60l-2,23.76c3.72-1.08,9.72-1.44,17.76-1.2l15.36,1.32c4.68.6,7.08,1.2,7.08,1.8,0,6.36-3.48,9.84-10.56,10.56a51.77,51.77,0,0,1-7.32-.12h-2.28l1.2.24h-2.16c-9.36-.12-16-.84-19.92-2l-.48,4.68c-1.2,15.24-2.16,28.2-2.88,39v61.68c-.72,8-1.08,20.4-1.08,37l-.48,10.08a145,145,0,0,0,.48,19.56c1.8,18.36,7.56,27.6,17,27.6,6.84,0,12.72-5.64,17.64-16.8l5.28-13.2c2-4.68,3.72-7.92,5.28-9.6l.36,1.2.12,2.52a63.7,63.7,0,0,1-1.2,9.36,126.4,126.4,0,0,1-4.2,17c-5.16,15.84-11.88,23.76-20.28,23.76-14,0-22.56-11.64-25.44-34.8a159.92,159.92,0,0,1-.72-24.48l.72-12.12c0-19,.36-33.36,1.08-43.08V426.36c-.36-10.8.36-24.36,2.16-40.56,2.16-18.6,3.72-32.4,4.56-41.52V283.44c1.44-8,2.64-18.72,3.72-31.92L414,218.64a97.22,97.22,0,0,1,3-16.8A60.71,60.71,0,0,1,423,186.12Zm118.2,17.52q10.44,9.9,13.32,14.76,6.84,11.34,11.88,29.16c1.2,4.08,3.72,14.28,7.56,30.72,3.6,15.12,6.6,34.68,8.88,58.8,2.16,22.68,3.24,43,3.24,61,0,11.52-2.28,29.4-6.84,53.52-4,21-7.56,36.48-10.68,46.68-2.4,7.56-6.84,15.84-13.44,24.72a169.9,169.9,0,0,1-23.4,25.68c-4.68,4.2-15.72,12.72-33,25.44-18.24,13.32-28.2,20-30,20-4.8,0-7.92-1.68-9.48-5.16a12.06,12.06,0,0,1-.84-3.72v-2a20.93,20.93,0,0,1,.36-4.56c.36-1.8,1.2-2.64,2.4-2.64a2.31,2.31,0,0,1,1.44.48q1.26-20.7,6.84-88V434.16l1.92-53.64L473,327V213.48c.6-2.88,1.2-10,1.56-21.12a62.27,62.27,0,0,1,.6-7.2l.48-2.76a20.24,20.24,0,0,1,3-7.92,12.55,12.55,0,0,1,1.32,4.08c4.08-1.44,10.68-1.08,19.8,1a150.63,150.63,0,0,1,18,5.4c5.4,1.92,8.88,3.48,10.44,4.56C529.92,192.12,534.24,196.8,541.2,203.64ZM532.8,8.52a10.57,10.57,0,0,1-.6,3.48l-1.8,3.12L503.16,17.4,469,19.92a40,40,0,0,1,1.08,9c0,1.8-2.28,22.68-6.72,62.4q-7.38,65.34-9,83.76l-.72.48-1.2.84c-.72-1.08-1.32-3.12-1.8-6.24a43.09,43.09,0,0,1-.6-5.64c0-.6,2.28-21.84,6.84-63.6Q462.78,46.74,465,20l-4.92.24H422.16c-10.44-1.32-16.56-2.52-18.6-3.6a2.81,2.81,0,0,1-1.68-2V11.76c0-2.64.6-4.32,1.92-5q3.42-2,14,1.08l42.24-.48L506.64,3.6l24.24-1.2A10.55,10.55,0,0,1,532.8,8.52ZM184.32,0l1.08-3.48L187.2.24a10.23,10.23,0,0,1,.84,4l.24,1.8-1.8-.36A26.57,26.57,0,0,0,185,10.32l15,209.52q9.54,130.86,17,220.8v43.8c2.28,15.48,3.6,28.08,4.08,38,.12,3.6.24,14.64.24,33.12l-.12,19.92a92.6,92.6,0,0,1-2.64,19.08A6.79,6.79,0,0,1,216,590V527.52c-1.08-4.92-1.92-11.16-2.76-18.72l-1.68-18.6V446.28q-7.92-97.74-14.28-180.6L194,268.44c-4.68,3.48-10.92,5.16-18.72,5.16-25,0-40.8-1.32-47.64-3.84l-.36-.12c-2.52,12.12-4.56,22.92-6.12,32.16-3.72,21.24-7.2,45.84-10.68,73.8l-8.4,74.16Q91.5,544.26,80.4,597.36c-.84-.84-1.56-2.64-2.28-5.4a27.73,27.73,0,0,1-1-5.52l.24-8.64.84-.24.24,4.08.24.24q19.62-173,40.44-293.76l4.44-25.32a12,12,0,0,1,0-3,1.73,1.73,0,0,1,.84-1.32Q148.38,126.54,180,14.76c-.24-7.32,1.2-12.48,4.32-15.6ZM147.6-.84C152.52,1.56,155,6,155,12.6a7,7,0,0,1-.36,2.52L154,16.2q-.54-.18-1.44-2.16l-1.92-3.72c-2.28-3.24-5.76-4.92-10.68-4.92-10.68,0-18.72,5-24,15.24A49.2,49.2,0,0,0,113,27.36l.84.24,29.28.84.84,1.32a5.69,5.69,0,0,1,.48,2.76l-.24,2.4-1.08,1.56H114.24l-2.88-2a19,19,0,0,0-.36,3.12,29.5,29.5,0,0,0,1.68,10.56c2.16,5.88,6.24,8.76,12.36,8.76,17,0,27.48-1.56,31.44-4.8A22.64,22.64,0,0,0,159.72,48a10.19,10.19,0,0,1,5-3.84l.24.24.12,1.68c0,3.12-1.8,6.72-5.28,10.8a37.62,37.62,0,0,1-12.6,9.36c-19,1.92-31.2-1.56-36.6-10.56a22.75,22.75,0,0,1-3-10.68V37.92a50.79,50.79,0,0,1,.6-7.56L108,29a10.45,10.45,0,0,1,.12-2.28l.12-.24h.84a41.33,41.33,0,0,1,6-13.68A34.75,34.75,0,0,1,131.4-.36C137.64-2.88,143-3,147.6-.84Z" transform="translate(-9.48 6.48)"/></g></svg>