<svg id="Layer_1" data-name="Layer 1" xmlns="http://www.w3.org/2000/svg" viewBox="0 0 282.46 208.32"><defs><style>.cls-1{fill-rule:evenodd;}</style></defs><path class="cls-1" d="M296.88,381.12l-2.28-89.64q-15.66,53.82.84,104.4c19.68-1.8,31.32-12.48,34.92-32.28C322.2,370.92,311,376.8,297,381.24Zm2.88-124.56-3,3c-5.88,4.44-7.08,10.44-3.84,18l.24.24c7.8-3.24,10.8-8.76,8.76-16.56A14,14,0,0,0,299.76,256.56Zm-66.24-58.32a501.57,501.57,0,0,0-5.4,68.88L228,286l-20.16-.48A127.61,127.61,0,0,0,164,289.8l.72-92.52a350,350,0,0,0-7.68,71.4c-.36,43.08-.84,85.92-1.44,128.28l1.2-.24a373.92,373.92,0,0,0,7-71.28l.24-25,63.72-2.28c-.6,32.64-1.92,65-3.72,97.08a3.45,3.45,0,0,0,4.08,2.16,436.41,436.41,0,0,0,6.24-71.4l.12-29.28a11.19,11.19,0,0,0,.12-9q0-45.36-.36-90C233.76,197.88,233.52,198,233.52,198.24Zm160.56,99.48,1.8-1c16.44,4.44,27.72,14.52,33.6,30.36,6.84,18,3.12,32.64-10.92,43.8q-23.22,18.36-52.44,12.6l4.32-82A36.13,36.13,0,0,0,394.08,297.72Zm-21.84-91.56c18.72-1.92,32.28,5.76,40.68,23.16a35.83,35.83,0,0,1,1.56,29.16q-11,29.52-43.92,28.8c.36-27.72-.24-55.08-1.68-82.32Zm-4-11.28a61.19,61.19,0,0,0-3.48,22.2c.6,42.84-.12,85.92-2.16,129a228,228,0,0,1-2.4,24.12,58.39,58.39,0,0,0,.24,20.52,31.65,31.65,0,0,0,1,5.88l1.08,1.08,1.92,4.08.24-2.28.6.36q31.86,5.76,58.2-10.8l.72-1.56.36-.84a15.87,15.87,0,0,0,5.64-6.6,85.92,85.92,0,0,0,7.32-46.32Q433.92,301,407,289.44c9.12-8.16,14.28-19.56,15.48-34.32,2.52-31.56-11-52.2-40.44-61.68A39.67,39.67,0,0,0,374.4,195a14.65,14.65,0,0,0-6,3.24Z" transform="translate(-155.64 -193.44)"/></svg>