<svg id="Layer_1" data-name="Layer 1" xmlns="http://www.w3.org/2000/svg" viewBox="0 0 224.55 210.96"><defs><style>.cls-1{fill-rule:evenodd;}</style></defs><path class="cls-1" d="M268.68,209.16l-5.28,71.52-17.76-.6a391,391,0,0,0-51.12,6.24c-4.92.84-8,2.52-9.6,5q1.08-48.78-.6-96.48a530.92,530.92,0,0,0-6.6,82c-.12,21.6-1.08,43.2-2.76,64.8a278.4,278.4,0,0,0,2,64.2c.6-.24.84-.48,1-.84q4.32-40.5,6-82l.84-23.76.84,2.16a392,392,0,0,1,76.8-8.88l-3.48,44a260.66,260.66,0,0,1-4.56,32c-2.52,12.6-1.2,23.16,4,31.8a636.5,636.5,0,0,0,10.2-77.88c3-42.84,4.56-85.32,4.44-127.44Q269.22,200.7,268.68,209.16Zm99.48,89a338.22,338.22,0,0,0,.6,96.6,8.8,8.8,0,0,0,9,1.44c14.28-5.4,21.24-14.52,20.76-27.48a98.53,98.53,0,0,1-25.92,13.56l-.36-.6q-1.62-46.08-.72-90.84A11.06,11.06,0,0,0,368.16,298.2Zm1.92-50.28c-6.12,7-7.44,13.92-3.72,21l1.08-4.32,4.8,6.24c4.68-5.64,5.76-12.24,3-19.56a4.7,4.7,0,0,0-2.76-2.88Z" transform="translate(-173.99 -194.88)"/></svg>