<svg id="Layer_1" data-name="Layer 1" xmlns="http://www.w3.org/2000/svg" viewBox="0 0 543.73 541.46"><defs><style>.cls-1{fill-rule:evenodd;}</style></defs><path class="cls-1" d="M215,425.52q-13.14,65.16-30,128l-.12.84c-.84,2.88-.36,5.28,1.2,7.08a64.14,64.14,0,0,0,8.4-21.84q12.24-64.62,30.6-127.8a178.85,178.85,0,0,1,.36,22.68,564.78,564.78,0,0,0,9.36,128,544.92,544.92,0,0,0,33.84-126.12c4,33.72,8.76,67.44,14.16,100.92a215.51,215.51,0,0,0,7.68,31.44,9.52,9.52,0,0,0,2.28-8.16q-8.28-59.58-16.92-119.4a102.49,102.49,0,0,1,.36-32c1.32-7.44-.36-12.48-4.92-15a98.8,98.8,0,0,0-5.64,21,952.16,952.16,0,0,1-29.52,128.16,196.78,196.78,0,0,1-2.4-28q-1.44-64.44-6-128.28A156.91,156.91,0,0,0,215,425.52Zm-61.2-33.12C162,414.6,170.4,437,179,459.48a3.09,3.09,0,0,0,2.16,1.8l-14.28,41.16a155.81,155.81,0,0,0-9.48,60.6c.72-.36,1.2-.72,1.32-1.32l15.36-52.32A1122.1,1122.1,0,0,1,215.4,389.88l-.48-.72-1.44-1.68a257.07,257.07,0,0,0-26.76,57.12L183,455.88a159.87,159.87,0,0,0-28.32-66.48A2.12,2.12,0,0,0,153.84,392.4ZM132.6,49q-.9,63.9,1.68,128.16l1.44,38-.24-.6a1.93,1.93,0,0,0-.84-.48l-3.72-.6a616.36,616.36,0,0,0-95.4,17.76l-.12-33.48A1166.18,1166.18,0,0,1,41.64,69.6a213,213,0,0,0,.84-32.52A133.57,133.57,0,0,0,32.16,85.2C30.72,128,29.88,171,29.52,214.32v18.6l-.6.12-.6,3.12a7.84,7.84,0,0,0,1.08,5.28q-.18,50.94.72,102c.72,43.08.6,86.16-.24,129A538.45,538.45,0,0,1,25,536.28q-2.34,18.9,5,31.68a825.7,825.7,0,0,0,6.48-112.08q-.54-64.44-.6-129L35.64,241q49.68-8.46,99.6-15.84l.84-1.32,2.76,81.6a1042.56,1042.56,0,0,1-4,128.4c-4.2,43.08-6.24,86.16-6.12,129,.6,2,1.68,2.52,3.48,1.68q4.68-36.54,6.84-73.8,3.42-64.08,4.92-128.4T141.84,234q-1.8-32-2.16-64.08c-.6-43.56-1.56-86.64-2.76-129C134,42.24,132.6,45,132.6,49ZM259.56,149q-2.34,57.78-.36,113.76l63.84.48c3-4.56,3-9.12,0-13.56-20.64-.36-40.8-.72-60.36-1.08l.24-.72c1.56-37.8,1.68-75.24.36-112.08A29.4,29.4,0,0,0,259.56,149ZM194.64,41.64q-2.34,46.08-.72,93.36c1.56,42.84,2.4,85.92,2.28,129.12-.12,42.84-1,85.56-2.76,128.16a3.32,3.32,0,0,0,2.4,2.16A150.63,150.63,0,0,0,201,346.8c-.6-16.08-.84-32-.72-47.76q.72-64.62-.12-129.12-.72-64.8-5.16-128.28ZM414.48,279.48c-11.64,10.8-18.24,25.44-19.56,43.8-1.08,13.68-1.8,27.48-2.4,41.4a179.51,179.51,0,0,0,3,41.76c1.68,9,6.72,15.12,15.24,18.6A35.37,35.37,0,0,0,423,407.76l.72-2.16c-1.08,9.48-.12,16.56,3.12,21.36a118.09,118.09,0,0,0,3.84-47.28,53.53,53.53,0,0,0-4-14.88l-14.88.48L411,374.4l14.88,2.76-2,20.76L407.16,410a148,148,0,0,1-9.36-59.28,252.46,252.46,0,0,1,5.88-45.36,14.36,14.36,0,0,1,7.8-10,15.52,15.52,0,0,1,9.84-1.56l7.56,8.88a10,10,0,0,0,1.56-10.08,22.83,22.83,0,0,0-4-7.56,11.43,11.43,0,0,0-8.4-4.92Zm-33.24,3.24c-1.56.36-2.28,1.44-2.4,3.36l-5.4,122.52c-1.56,38.76-3.72,77.64-6.36,116.4q-14.76-60.3-28.56-121.08L314,298.2l-1-18.36a49.19,49.19,0,0,0-1.8,6.36l-1.44-6.12q-1.08-.18-1.08.72l1,14.4a100.36,100.36,0,0,0-.48,12.24c.84,42.72,1.08,85.44,1,128.16q-.18,65-4,129.12a2.55,2.55,0,0,0,2.16,2.16,2.67,2.67,0,0,0,2-2.28,174.62,174.62,0,0,0,3.84-27.36q3.6-63.54,3-128.4-.36-38-1.8-75.6c6.84,36.6,14.88,73.08,24.12,109.2q15.66,61.74,28.08,124.2a3.15,3.15,0,0,0,2,2l.36,1.2.72-1.44a2.77,2.77,0,0,0,1.32-2.64v-.72a66.92,66.92,0,0,0,4.2-25c-.36-42.84.24-85.56,1.8-128.4s3.24-85.2,5-127.32l-.84-.84Zm-22.44-132c-2,37.8-3.12,75.36-3,112.8a258.85,258.85,0,0,0,61.68-1.32,11.83,11.83,0,0,0,.6-13c-20,2.64-39.12,2.4-57.12-.84v-.84c1.32-36.12,2-71.88,1.92-107.16C360.36,142.92,359,146.28,358.8,150.72Zm194.4-78.6C541.08,42.48,518,27.84,483.84,28.44c-18,2.28-31,11.4-39,27.12A106.88,106.88,0,0,0,433.56,102a167.13,167.13,0,0,0,9.84,59.52A291.57,291.57,0,0,0,471,218.28q12.42,20.16,26.28,39.24a335.68,335.68,0,0,1,51.6,106.2,339.57,339.57,0,0,1,12,69.48,175.6,175.6,0,0,1-14.28,83.64,77.4,77.4,0,0,1-32.28,24.84q-30.24,12.24-61,2.16c-30.6-10.2-45.6-30.6-44.76-61.44q.54-22.86-5.4-41.4a207,207,0,0,0-1.08,61,57.59,57.59,0,0,0,10.32,26.4Q446.1,575.7,503.16,561a71,71,0,0,0,39.12-25.2c16-20,24.48-43.2,25.56-69.24a370.57,370.57,0,0,0-12-109.68,193.11,193.11,0,0,0-23.28-54q-34.74-55.62-68.64-112.2A166.15,166.15,0,0,1,444.24,71.16a66.5,66.5,0,0,1,6.72-8.4c18.72-20.28,41-24.36,67.08-12C535,58.8,546.36,71.64,552,89,555.36,84,555.72,78.36,553.2,72.12Z" transform="translate(-24.4 -28.42)"/></svg>