<svg id="Layer_1" data-name="Layer 1" xmlns="http://www.w3.org/2000/svg" viewBox="0 0 317.5 365.65"><defs><style>.cls-1{fill-rule:evenodd;}</style></defs><path class="cls-1" d="M265.44,98.52q-3.6,2.34-3.24,7.56c1.2,19.44,1.44,39,.72,58.56L258.48,292.8q-2.16,64.8-8.88,128.88c-1.32,12.6.48,23.16,5.52,31.56a473.13,473.13,0,0,0,6.72-65.76l3.6-128.28q.72-32.4,2.88-64.8A509.77,509.77,0,0,0,265.44,98.52Zm-63.36,2a647.21,647.21,0,0,0-7.08,72l-3.84,80.52h-8a530,530,0,0,1-66.24-3,8.48,8.48,0,0,0-4.44.6l-3.12,1.08-.6.12-.84.48q2.34-43.74,5.4-87.72a424.06,424.06,0,0,0-.24-64.2c-.6.12-.84.24-.84.36a377.05,377.05,0,0,0-7.56,64c-1.56,42.84-3.24,85.56-5.28,128.28S95,378.72,92.28,421.32a141.49,141.49,0,0,1-2,16c-1.92,9.84-.36,17.64,4.8,23.52A171.59,171.59,0,0,0,100.92,421c1.32-42.6,2.88-85.32,4.92-128.16l1.32-25.8q40.86-1.26,83.16.48L188.4,301q-4,64.26-9.72,128c-1,10.2,1.2,18,6.36,23.4q5.58-47.7,7.68-96.6,2-44.1,4.8-88h.72a12.76,12.76,0,0,0,1.92-8l-.24-1.68v-.72l-.24-.84a5,5,0,0,0-1.2-2.4l1.92-26.52a1135.42,1135.42,0,0,0,2.52-127.56C202.32,100.2,202.08,100.32,202.08,100.56Zm199.08,59.28A85.37,85.37,0,0,0,379.92,120a81.48,81.48,0,0,0-37.08-23.28,34,34,0,0,0-16.56-1q-9.9,139.5-20.28,279.6a493.93,493.93,0,0,0-.12,69.24,35.87,35.87,0,0,0,2.52,11.28,870.92,870.92,0,0,0,13.68-177A49.22,49.22,0,0,0,355,282.24a47.64,47.64,0,0,0,11.16-4,62.49,62.49,0,0,0,31.8-30.72,88.35,88.35,0,0,0,9-41.4A231.83,231.83,0,0,0,401.16,159.84Zm-36.6-38.16q45.18,44.1,30.84,105.84a36.59,36.59,0,0,1-7,14.4q-25.2,31.5-65.52,21.84l2.52-37.92q4.14-59.58,3.24-118.32a141.35,141.35,0,0,1,25.56,7.56A29.84,29.84,0,0,1,364.56,121.68Z" transform="translate(-89.45 -95.15)"/></svg>