<svg id="Layer_1" data-name="Layer 1" xmlns="http://www.w3.org/2000/svg" viewBox="0 0 356.48 327.6"><defs><style>.cls-1{fill-rule:evenodd;}</style></defs><path class="cls-1" d="M163.08,93.72A969.53,969.53,0,0,0,157.56,191c-.12,19.8-.12,39.6,0,59.28-25.2.84-50.28,1.08-75.24.48L84.6,216A1018.18,1018.18,0,0,0,85.8,87.72c-4.2,6.36-6,14.4-5.4,24.36A676.38,676.38,0,0,1,80,191.64l-4,59.16-.36.48a12.08,12.08,0,0,0-.48,10l-4.08,58.68-4,47.64a216.7,216.7,0,0,0,1,47.76A33.59,33.59,0,0,0,74,397.8c1.2-17.76,2.16-35.64,3-53.52q2-40.86,4.44-81.72a403.08,403.08,0,0,0,76.2,3.12l1.08,54.48a486.77,486.77,0,0,1-2.64,64.68c-1.08,10,.84,17.76,5.88,23.4a363.75,363.75,0,0,0,3.12-57.48c-.6-28.44-.84-57-.72-85.44l1.68-.12.72-.6c2.52-5.16,2.28-10-.72-14.52H164.4l.36-28.44q.9-65-.84-128.28C163.32,93.48,163.08,93.6,163.08,93.72Zm58.8-5.52a206.64,206.64,0,0,0-2.52,46,1115.77,1115.77,0,0,1-.24,128.28q-3.78,64.44-6.84,129c-.36,7.56,1.92,12.36,6.6,14.64a562.62,562.62,0,0,0,4.32-60.84l2.28-128.16c.6-32.28.84-64.56.48-96.72A126,126,0,0,0,221.88,88.2Zm182.4,302.28c-40.68-.84-80.52-2-119.64-3.36-.12-13.32.24-26.52,1.2-39.72q4.5-63.9,5.88-128.16c1-43.32.48-86.16-1.44-128.28-2.16,1.32-3.24,3.6-3.24,6.72l-.36,52q-.18,64.44-4.44,128.16-4.32,64.62-2.52,128.28,62.46.18,124.56,2.16C408.72,402.36,408.72,396.36,404.28,390.48Zm15-64.8-1-1.2A323.93,323.93,0,0,0,337.68,322q5.4-116.1,5.88-232.08a864.09,864.09,0,0,0-12.48,154.8l.6,95.16a330.8,330.8,0,0,1,87.72,3.84C424,337.56,424,331.56,419.28,325.68Z" transform="translate(-66.33 -87.72)"/></svg>