<svg id="Layer_1" data-name="Layer 1" xmlns="http://www.w3.org/2000/svg" viewBox="0 0 485.78 415.68"><defs><style>.cls-1{fill-rule:evenodd;}</style></defs><path class="cls-1" d="M136.56,78.24c-.36.12-.48.12-.48.24l-3.36,70.68c-1.56,34.2-3.48,68.52-5.52,102.84a289.56,289.56,0,0,1-77.52-2.52c.84-13.56,1.92-27,3-40.32,3.48-42.6,8.16-84.72,13.92-126.6l-.24-.84A20.14,20.14,0,0,0,63,70.32C58.32,97,54.72,124.56,52,153q-4.86,47.88-7,96.12l-.36.12a2.44,2.44,0,0,0-1.2,2.4l-.12.84v.84l-.12,1.56a9.69,9.69,0,0,0,1,4.08l.36.24-.84,23q-2,63.9-6.6,127.32a355.36,355.36,0,0,0,.84,63.12,9,9,0,0,0,3.24-7q3.06-64.08,4.68-128.28c.6-25.8,1.68-51.36,3.24-76.92a207.44,207.44,0,0,0,77.4,3.48l-.84,13.32c-2.76,42.6-4.92,85.44-6.48,128.28-.48,10.8-1.32,21.6-2.4,32.28-1.32,12.36.12,23.16,4.44,32.16l.6-.72a12.23,12.23,0,0,0,1-12c.84-38.52,2.4-77,4.8-115.32l8-128.16c2.52-42.6,3.6-85.2,3.12-127.56l.48-1.68a8.45,8.45,0,0,0-.72-4.8l-.84-.84Zm40.68,89.64c-3.24,12.84-6,25.8-8.4,38.76A314.92,314.92,0,0,0,163.92,246l-1.08,18.12c-1.44,26.76-1.68,53.76-.72,80.76q.72,22.5,2.88,44.64a104,104,0,0,0,1.56,10.68,122.6,122.6,0,0,0,13,36.48C185.88,448.32,195.36,456,208,459.6a56.87,56.87,0,0,0,43.32-4.68,61.17,61.17,0,0,0,30-34.08,59.53,59.53,0,0,0,3.12-13.68Q261,441.9,222,445.68a42.33,42.33,0,0,1-22.08-3.48,32,32,0,0,1-12.12-9.72,42.07,42.07,0,0,1-4-7.2c-2.4-5.88-4.56-12-6.48-18.24-2.16-7.32-4.08-14.88-5.64-22.44a283.63,283.63,0,0,1-5.52-52.32c-.12-15.48.12-30.84,1-46.32L168,270.6a234.52,234.52,0,0,1,77.16.24,11.58,11.58,0,0,0,1.92-10.44,4.72,4.72,0,0,0-1.56-2.52,155.34,155.34,0,0,0-76.68,2.76q-1.62-83.88,47.76-146.52a43.64,43.64,0,0,1,30.48-17,49.72,49.72,0,0,1,27.24,4.44l4.92,6.72c-1.2-21.48-13.68-28.92-37.32-22.08a73.3,73.3,0,0,0-39.12,27.48A155.51,155.51,0,0,0,177.24,167.88ZM299.4,99.48c-2.28,40.56-4.44,81.12-6.24,121.8-1.08,22.2-1.2,43.56-.48,64.2a26.32,26.32,0,0,0,4.68-3.48,372.17,372.17,0,0,0,53.52,6.48,12.67,12.67,0,0,0-.24-12.24,397.31,397.31,0,0,1-52.8-8.88c-.24-17.4.24-34.8,1.32-52q4.14-64.8,4.08-128.28A23.55,23.55,0,0,0,299.4,99.48Zm179.88,44.28,10.2,126.48q5.22,64.08,12.24,128.16,3.6,32.4,7.8,64.56,2,14.58,9.72,23a14.11,14.11,0,0,0,2.28-11.4A1047.33,1047.33,0,0,1,502,348c-3.84-42.36-7-85-9.48-127.56-2.52-43.08-7.2-85.56-13.8-127.32A342.55,342.55,0,0,0,479.28,143.76Zm-1.68-58.2c-4.44,5.4-7.08,12.36-8.16,20.88q-7.92,63.36-19.8,126.12a612.33,612.33,0,0,1-15,62.76A60.92,60.92,0,0,0,432,310Q423.72,261.18,418.56,209q-5.76-58.86-14.16-116.4l.6-8.52-1.32,3.24-.84-5a.75.75,0,0,0-1,.24,9.61,9.61,0,0,0-.12,9.36,145.1,145.1,0,0,0-8,32.16q-8.46,62.64-18.24,125-9.9,63.54-20.64,127a332.39,332.39,0,0,1-16.56,62.4c-5,13.8-6.48,27-4.44,39.6a2.62,2.62,0,0,0,1.44-1.32,373.94,373.94,0,0,0,21-76.92l20.88-126q10.62-63.18,20.64-126.24c2-13.2,3.84-26.28,5.16-39.12.84,10.44,1.8,20.88,3.12,31.32q7.56,63.54,11.64,127.56a229.45,229.45,0,0,0,12.48,62.52l.6-1a29.88,29.88,0,0,0,2.16-7.56l1.56,5.28q14.58-55.08,24.36-111.84,10.8-62.82,19.44-126V88Z" transform="translate(-36.08 -70.32)"/></svg>