<svg id="Layer_1" data-name="Layer 1" xmlns="http://www.w3.org/2000/svg" viewBox="0 0 509.08 444.84"><defs><style>.cls-1{fill-rule:evenodd;}</style></defs><path class="cls-1" d="M180.12,62.76c-4.2,5.28-6.36,12-6.24,20,.6,43.08-.24,86.16-2.28,129.12L170.28,239l-2.52-.12L69.24,235.2v.12l-1.2.12c.84-15.6,1.8-31.08,2.88-46.56A1027.58,1027.58,0,0,0,72,61.44h-.6q-6.12,58.5-9.24,118.44c-2.28,42.84-3.48,85.8-3.72,129.12Q57.9,373.08,57,437.28a289.58,289.58,0,0,1-2,32.28c-1.2,10.68,1.08,18.24,7,22.92a235.18,235.18,0,0,0,3.84-46.32q-1.08-64.62-.24-129c.36-22.68,1-45.36,1.92-67.8a918.44,918.44,0,0,0,102.24,4.56c-1.08,28.68-1.68,57.48-2,86.28q-.72,64.26-4,127.92l-.36-1.08a12.57,12.57,0,0,0-2.4-4.92,175.88,175.88,0,0,0,6.84,35.52,196.65,196.65,0,0,0,6.6-49.32l1.32-129C176,276.48,177,233.64,178.56,191Q181.26,125.88,180.12,62.76ZM283,62.88c-16.2-3.48-30.24,1.2-42.12,13.8A87.31,87.31,0,0,0,221,111c-4.56,15-8.4,30.12-11.64,45.36s-5.52,30.6-7.2,46.2S199.32,234,199,250l-.6,32q-.18,16,0,32l.48,32c.24,13.32,1.08,26.76,2.64,40.2,1.32,11.88,3.12,23.76,5.4,35.4A228.4,228.4,0,0,0,220,464.4c6.12,14.52,16.56,24.72,31.32,30.36,13.8,5.28,27.12,4.08,40.08-3.72,13.8-8.28,23.76-19.56,29.76-33.72a20,20,0,0,0-.84-17.88l-5,4.32-.72,3.24q-23.22,35.1-62.88,28A29.86,29.86,0,0,1,231,461.52a98.07,98.07,0,0,1-14.52-38.64c-2.4-15-4.56-29.88-6.6-44.76s-3.48-30-4.56-45.12c-1.08-15.6-1.56-31.2-1.44-46.92l.6-31.44,68.76,3.48a12.37,12.37,0,0,0,2.52-11.4,11.92,11.92,0,0,0-2-4.32A375.24,375.24,0,0,0,205.08,244q-4.5-83.16,39-149.28c9.48-14.4,22.56-19.92,39.24-16.68A39.83,39.83,0,0,1,309,94.44C310.08,77,301.32,66.6,283,62.88Zm99.12,4.92c-15.48,6.36-26.76,16.8-33.6,31.44a312.63,312.63,0,0,0-26.64,91.08,619.5,619.5,0,0,0-3.6,126.6,639.56,639.56,0,0,0,22.56,127.8q7.92,28.62,31,46.32a10,10,0,0,0,10.56,1.44,132,132,0,0,0,50.76-35.64,34,34,0,0,0,9-26.64c-1,.6-2.16.24-3.48-1.08V431a19.47,19.47,0,0,0-5.88,4.68,175.1,175.1,0,0,1-42.84,35q-14.22,8.46-23.76-5.76a163,163,0,0,1-22.68-50.4A617.21,617.21,0,0,1,326,319.92a540,540,0,0,1,1.8-127.56q3.24-23.94,8.64-47.52,7.38-31.5,30.36-52.08,26.64-23.58,48.72,0l.6-.6c2.64-17.16-5.88-26.28-25.44-27.24A72.86,72.86,0,0,0,382.08,67.8Zm173.4,45q9.9-22.86,7.92-45.36a286,286,0,0,0-19.56,43.68c-5.64,15.72-11.88,31-19,46q-27.18,57.78-48.6,118.08a51.4,51.4,0,0,1-5,10.68,57.77,57.77,0,0,0-5.28,11c.12-11.64,0-23.4-.12-35.16-.36-21.72.12-43.32,1.44-64.92A1063.66,1063.66,0,0,0,467,68.52h-.6q-5.22,53.46-6.72,108.72-1.8,64.26-1.56,129.12a1150.1,1150.1,0,0,1-6.84,128.88,207.72,207.72,0,0,0,2.64,64.2c.72-.24,1.08-.48,1.2-.84q4.5-53.64,7.8-107.88c1.32-22.44,2.28-44.88,2.64-67.44l.36,1a109.63,109.63,0,0,0,17.76-34.8c4.32-13.8,9-27.6,13.92-41.28q5.76,30.06,13.8,60.12c2.52,9.48,4.8,19.08,6.6,28.68Q529.92,399.42,544,461.28a148.12,148.12,0,0,1,3.36,24c.6,9.84,4.08,16.8,10.32,21a7.55,7.55,0,0,0,1.68-6.36q-10.62-59-23-118l-6.48-31.2a976.35,976.35,0,0,0-29.4-110.4c8.76-23.64,18.48-46.8,29.16-69.72Q542.88,142,555.48,112.8Z" transform="translate(-54.65 -61.44)"/></svg>