<svg id="Layer_1" data-name="Layer 1" xmlns="http://www.w3.org/2000/svg" viewBox="0 0 519.47 436.2"><defs><style>.cls-1{fill-rule:evenodd;}</style></defs><path class="cls-1" d="M162.72,100.92c.6,42.6.24,85.32-.84,128.28l-.12,7.44-.48-.12a71.49,71.49,0,0,1-9.72,2.64l-9.84.72A379.11,379.11,0,0,0,59,246.48c1.08-39,3.36-77.76,6.84-116.52a411.16,411.16,0,0,0,.72-64.2c-5.16,13.2-8.16,27.84-9,44-2.28,42.6-4.32,85.44-5.88,128.28s-4,85.56-7,128.16-4.44,85.2-3.84,127.56a3.47,3.47,0,0,0,3.48,1.92,2.54,2.54,0,0,0,1-1.44q4.32-53.64,7.8-107.88,4.14-63,5.52-126.48a673,673,0,0,0,102.48-5.64l-1.8,46.2q-2.88,63.9-9.72,127.32v-1.08l-.36-4.56-1.2,2.16A164.5,164.5,0,0,1,147,455c-2,17-.48,32.64,4.44,46.92a2.4,2.4,0,0,0,1.92-2.16q3.42-53.28,9-106.2a1209.92,1209.92,0,0,0,7.2-128.4V252.12a8.06,8.06,0,0,0,1.56-3.6,12.75,12.75,0,0,0-1.56-8.76q.36-52,1.08-103.68c.12-5.4.36-10.8.84-16.08a227.29,227.29,0,0,0-1.08-48C165.12,79.92,162.6,89.52,162.72,100.92Zm106.8-22q-41.58,7-57.48,45.6A189.83,189.83,0,0,0,199,174.72a1246.3,1246.3,0,0,0-7.44,128.88q-.36,62.1.12,124.2c.12,27.72,9.24,51.6,27.48,71.4q32.22,8.28,60.48-10.2,29.7-19.26,26.16-50.4l-1.2-.48-1.44.12-1.68,1.2-1.2-1.2L300,438a7.69,7.69,0,0,1-1.8,1.68v.24a22.4,22.4,0,0,0,1.8,3.84,17.14,17.14,0,0,1-2.76,7.08c-18,27.48-43.8,37.56-77.28,30q-21.42-26.28-21.72-60.6-.72-64.8-.48-129.12L197.52,275c-.24-7.32-.36-14.64-.24-21.72Q226.62,252.24,256,249a9.13,9.13,0,0,0,3.24-6.24,10.37,10.37,0,0,0-3.24-9l-4.92-.12-5.4-.12c-16,2-32,4.44-48,7.2a436.53,436.53,0,0,1,12.84-89.4A80.66,80.66,0,0,1,226.32,120q26.1-31.86,64.56-21.24l1,2.4.72,1.68c.48,1.56,1.56,2,3.12,1.32l.48-.84C297.72,86.4,288.84,78.24,269.52,79ZM525.6,271.2a92.24,92.24,0,0,1,21.24,36.24,158.37,158.37,0,0,1,7.44,45.6A187.59,187.59,0,0,1,550,396.36a160.8,160.8,0,0,1-16.44,43.44c-7.44,13.32-18.48,22-33,25.92-12.12,3.24-24.36,6-36.48,8.28a1729.34,1729.34,0,0,0-3.24-208.44c11.4-1.44,21.12-7.08,29-16.8A89.5,89.5,0,0,1,525.6,271.2Zm-5.52-120.6c5.4,15.48,4.44,30.6-2.88,45.48a114,114,0,0,1-27.6,35.64,104,104,0,0,1-29,17.64q1.8-76.5-2.52-152.88a52.68,52.68,0,0,1,39,16.92A103.16,103.16,0,0,1,520.08,150.6ZM391.8,204.12q-16.74,40-59.64,32.76c.12-8.88.6-17.76,1.44-26.76a728.81,728.81,0,0,0,2.16-116.64A46.58,46.58,0,0,0,344,95.64a49.07,49.07,0,0,1,31.56,19.08,110.48,110.48,0,0,1,20.52,45.12A71.89,71.89,0,0,1,391.8,204.12Zm11.4-33.6a174.89,174.89,0,0,0-10.32-45.12A60.65,60.65,0,0,0,363.36,92a73.61,73.61,0,0,0-27-7.8l-1.8-2.52-.6,3-1.68.84.48,6.72q-4.14,66.24-5.4,133.08-2.7,127.08-7.32,254a37.49,37.49,0,0,0,4.08,18.72A661.05,661.05,0,0,0,332,402.24q.9-74.34.24-148.56a6.14,6.14,0,0,1,3.6,0A49.16,49.16,0,0,0,347,255.36a22.39,22.39,0,0,0,9.6-1.8,828.39,828.39,0,0,0,13.44,82.32A900.59,900.59,0,0,0,415.92,485.4c2.76,6.6,6.36,11.88,11,15.84A39.08,39.08,0,0,0,424.2,475,627.58,627.58,0,0,1,368.28,281c-1.32-10.44-2.76-20.76-4.56-31a77.84,77.84,0,0,0,22-16.2,67.09,67.09,0,0,0,17.88-37.8A91.08,91.08,0,0,0,403.2,170.52Zm53.16-79.44q-3.6,56.7-4,114.6-.18,64.26,4.8,128.16a696.27,696.27,0,0,1-1.8,128.52l-.24-.48-1.08-5.52-1.2,2.4a34.08,34.08,0,0,1,0,11q-2.34,16.2,5.76,25.92l1.32-4.08a112,112,0,0,0,39.72-6.72A61.37,61.37,0,0,0,523,469.68q26.64-27.9,33.6-66.6,11.34-64.26-12.12-125.76a40.39,40.39,0,0,0-10.08-15A105.43,105.43,0,0,0,499,240.24l9-9.72q31.86-36.72,17.28-83.28a131.92,131.92,0,0,0-13.8-30.48Q493.08,86.52,458.88,85A3.65,3.65,0,0,0,457.32,86V85h-.6l-.12,2.88-.12.6Z" transform="translate(-40.78 -65.76)"/></svg>