<svg id="Layer_1" data-name="Layer 1" xmlns="http://www.w3.org/2000/svg" viewBox="0 0 452.63 357.37"><defs><style>.cls-1{fill-rule:evenodd;}</style></defs><path class="cls-1" d="M184.44,79.32c-3.6,8.4-5.16,18.24-4.8,29.52q1.8,57.42,1.92,114.84l-5.16-.12-40.08-.84-56.76,1.8c.6-6.48,1.2-12.84,1.92-19.2A859,859,0,0,0,86,77.64c-.6-.12-1,0-1,.36a291.42,291.42,0,0,0-4,29.52q-5,64.08-8.76,128.4l-7.8,128.16c-1.44,22-2.16,43.32-2,64.2,1.8.84,2.76.36,3.12-1.68A950.24,950.24,0,0,0,75.72,301c.24-22,1.2-43.92,3-65.76a653.71,653.71,0,0,0,102.84,4.2c-.12,20.88-.36,41.76-.84,62.64-.84,43.44-2.64,86.4-5.16,129a3.16,3.16,0,0,0,4.08,1.32,732.14,732.14,0,0,0,8.28-94.92c1.08-42.84,1.32-85.92,1-129.12S187.08,121.92,184.44,79.32Zm94.92,19.56a76.24,76.24,0,0,1,28.56-.12l.12-.84c-1.56-12-9.36-17.52-23.4-16.44a49.66,49.66,0,0,0-31,18.48,140.56,140.56,0,0,0-31,76.32c-3,30.6-4.8,61.56-5.52,92.64A583.47,583.47,0,0,0,228.6,397.2c4,19.08,14.76,31.2,32.64,36.36a35.66,35.66,0,0,0,15.48,1c27.12-4.68,39.6-19.92,37.44-45.48-6.6,13.8-17.52,22.68-33,26.64q-32.94,8.28-42.84-22.44a293,293,0,0,1-14.16-86.64c-.24-14.52-.24-29.16.12-43.68a83.67,83.67,0,0,0,55.44-.12l.48-1A13.25,13.25,0,0,0,278.64,249a142.09,142.09,0,0,1-54.12,1.56q1.08-36,4.2-71.52,4.14-47,39.12-77A54.52,54.52,0,0,1,279.36,98.88Zm94.8,179.28Q359,332.88,344.4,388.32l-.36-1.2c-6.84-37.68-14.64-75-23.16-112a500.22,500.22,0,0,0-27.24,73.32,73.94,73.94,0,0,1-5,13.08c-5.28,10.68-6.24,20.88-2.88,30.48,10.68-31.08,21.6-62.28,33-93.6,4.2,19.2,7.8,38.52,10.92,57.84a444.85,444.85,0,0,0,13.44,58c11.16-33.48,22-67.68,32.16-102.48q3.78,36.72,9.72,73c1.32,8.28,2.52,16.44,3.6,24.6,1.32,9.48,4.8,16.44,10.56,20.64a3.87,3.87,0,0,0,1.32-4A788.43,788.43,0,0,1,382.8,300C382.2,290,379.32,282.72,374.16,278.16Zm4.08-41.88c-14.64.72-28.92.84-43,.48v-27.6c.12-43.08-.72-85.92-2.52-128.28a169.76,169.76,0,0,0-5,44.16q0,64.08,2.88,128.28a268.89,268.89,0,0,0,45-1.68q2,2.7,4,0C382.32,246,381.84,241,378.24,236.28ZM481.56,120.6a85.71,85.71,0,0,1,24,38.76,65.61,65.61,0,0,1-2,45.12c-6.12,15-17,25.32-33,30.72a153,153,0,0,1-31.32,7.68l-4.44-141.36c10.2,2.76,20.4,5.76,30.48,9.24A42.26,42.26,0,0,1,481.56,120.6Zm-51-29.28-.36,1.2c-1.8,37-1.68,73.8.12,110.52,2.16,42.84,3,85.92,2.64,129a527.67,527.67,0,0,1-4.68,64.68c-1.68,12.6.24,23.28,5.76,32.16a3,3,0,0,0,.84-1.44q4-39.06,4.44-79.44.54-45.9-.48-91.56l1.08,1.2,22.8-3.48a62.53,62.53,0,0,0,32-16,51.23,51.23,0,0,0,13-19.68Q528.06,163.26,492.6,116a43.68,43.68,0,0,0-10.56-10,118.06,118.06,0,0,0-48.6-18.72,1.54,1.54,0,0,0-1.44.48A6.39,6.39,0,0,0,430.56,91.32Z" transform="translate(-62.51 -77.6)"/></svg>