<svg id="Layer_1" data-name="Layer 1" xmlns="http://www.w3.org/2000/svg" viewBox="0 0 524.07 455.94"><defs><style>.cls-1{fill-rule:evenodd;}</style></defs><path class="cls-1" d="M326.16,476.28a69.85,69.85,0,0,0,3.72,29.64l3.48-37.8,27-4.68V454.8l-26.88,4.8-.6-18.48,30.24.12a6.54,6.54,0,0,0,1.44-5.52l-.48-2.28-.48-1.2-.72-1.2a85.56,85.56,0,0,0-31.68,2.4Q327.78,454.5,326.16,476.28ZM48.12,63c-2.4,42.36-3.72,85.2-4,128.28s-.24,86.16.36,129.12c.6,43.32-.48,86.28-3,129.12a313.74,313.74,0,0,1-3.36,32.16c-2,12.6-.84,23,3.84,31.56a7.14,7.14,0,0,0,2.16-4.8c1.8-20.76,3.24-41.52,4.32-62.52q3.42-64.26,2.28-129l-.48-35A173.6,173.6,0,0,0,69.6,284.4L80,283.68a168.12,168.12,0,0,1,61.8-1.8c-.12,12.12,0,24.36.24,36.6a1048.33,1048.33,0,0,1-5.52,129,302.07,302.07,0,0,0,0,64.2c1.44.24,2.28-.36,2.4-1.68q7-60.12,10-120.84Q152,324.72,150.48,260c-.48-21.72-.48-43.44-.12-64.92l2.52-128.28A164.43,164.43,0,0,0,145.2,127c.84,20.76.72,41.64-.48,62.4-1.56,26.28-2.52,52.56-2.76,79.08A113.6,113.6,0,0,0,126.6,265a737.68,737.68,0,0,1-76.32,6.12q-.18-41.58.36-83.28.9-65.34.72-129.12Q48.3,59.4,48.12,63ZM284.4,211.56c-3.48,11.88-4,22.92-1.68,33.12a6.87,6.87,0,0,0,1.68-3.36c3.84-16.32,7.44-32.76,10.8-49.2a225.4,225.4,0,0,0,25.92,57.36,53.47,53.47,0,0,0,6.36-17.76A81.49,81.49,0,0,1,333,213.6q8.1-18.54,4.68-36.36a7.76,7.76,0,0,0-3,3.24l-.6,3.12c-4.92,17.64-9.72,35.4-14.28,53.16l-.24-.48q-13.68-30.42-25.2-59.52ZM271.08,71.16l-8.16-.84q-44.64,4.14-62.4,43.44a284.68,284.68,0,0,0-22.2,75.12A1162.35,1162.35,0,0,0,166.2,316.8q-1.8,48.06.36,95.88a174.73,174.73,0,0,0,14.76,62.76q20,44.64,70.32,38.4a57.74,57.74,0,0,0,28.2-11.4,144.43,144.43,0,0,0,25.08-24.12c9.6-11.64,11.16-22.68,4.56-33a50.12,50.12,0,0,0-7.8,11.16Q288.54,483.84,260.52,493c-27.72,9-49.44,2.52-65.28-19.2-13.44-18.6-20.64-39.6-21.6-63.24-1.68-42.36-1.56-84.84.24-127.2a31.58,31.58,0,0,0,15.36-.6,201.16,201.16,0,0,1,75.6-6.48,11.34,11.34,0,0,0,1.68-10.56l-.36-.72-.24-.84-.48-.84a1.09,1.09,0,0,0-.84-.36L223,261.72a109.46,109.46,0,0,0-16.56,3.84,158,158,0,0,1-31.92,6.24,725.12,725.12,0,0,1,12.36-99.36q7-35.82,27.72-63.6,25-26.46,63.24-22a29.81,29.81,0,0,1,12.48,8.52c3.24,3.72,6.6,6,10.32,6.84a11.39,11.39,0,0,0-.72-13.08,48.54,48.54,0,0,0-21.24-17.4Zm171,351.36-40.8,6.84-.36,6.24,20,1a291.81,291.81,0,0,0-4.8,35.4c-1,13.08,1.32,24.6,7,34.44l1.44-70.08,17.88-2.64,1.56-9.36Zm-77-12.36-48.72,2.4v-.72a379.31,379.31,0,0,0-4.32-55.2c-2.4,2.28-3.48,5.28-3.36,9.24.84,19.92,2.16,39.6,3.84,59.16a245.29,245.29,0,0,0,52-3.48A9.73,9.73,0,0,0,365,410.16Zm-6.6-61.8a444.17,444.17,0,0,0-16.2-70L317.88,334l-11.4-56A144.22,144.22,0,0,0,286.92,327a111.77,111.77,0,0,0-2.16,18l-.12,4.32L305.4,292A104,104,0,0,0,319,346.32l21.72-52.44,16.44,55.68ZM427,293.88c12.6,13.68,11.76,27.24-2.76,40.56a152.09,152.09,0,0,1-25.92,3q-.54-23.58-1.44-46.8a82.06,82.06,0,0,1,20.28-1.32A14.1,14.1,0,0,1,427,293.88Zm7.32-9.24q-18-12.6-36.36-2.52l-.72.48-.36.24a4.7,4.7,0,0,1-.48-1.68,1020.89,1020.89,0,0,0-4.68,127.08,49.38,49.38,0,0,0,4.2,18.12,261.18,261.18,0,0,0,2.64-77.52q32.94,5.22,41.16-27.36a44.12,44.12,0,0,0,.72-18.6,67.21,67.21,0,0,0-2.52-10A86.1,86.1,0,0,0,434.28,284.64Zm47.52,25a62.26,62.26,0,0,0-2,42.48,67.72,67.72,0,0,0,23.4,34.56c11.64,9,22.8,18.6,33.72,28.68,12.6,11.52,18.12,25.56,16.56,42-1.68,18.36-11.4,28.2-29.28,29.52a58.64,58.64,0,0,1-40.32-13,66.72,66.72,0,0,1-10.08-10.08l-2.16-10.56c-7.08,8.16-6.6,17.76,1.56,28.68A61.59,61.59,0,0,0,496.32,501a58.51,58.51,0,0,0,20,5.4A35.93,35.93,0,0,0,538,501c16.2-9.72,23.88-24.72,23.28-44.76q-1.26-38.16-32-61.44a193.91,193.91,0,0,1-35.4-34.68c-13.56-17.4-14-34.44-1.2-51.24,9.72-12.72,22.2-17.76,37.56-15.12a27.07,27.07,0,0,1,19.92,13.68c2.76-6.6,1.92-13-2.64-18.84A26.26,26.26,0,0,0,528.72,278a33.06,33.06,0,0,0-14,2C499,284.76,487.92,294.6,481.8,309.6Zm-23-102a29.12,29.12,0,0,1,9.84-13.2,31.3,31.3,0,0,1,16.32-6.12l8,1.92a4.18,4.18,0,0,0,1.2-3.48c-.84-8.64-6.12-12.36-15.84-11q-25,14.58-25.56,43.2-.9,45.18,38.76,29.52c7.56-3,11.28-7.8,11.28-14.16l-3.6-1.8-34.08,8.88a26.09,26.09,0,0,1-4.92-7,33.52,33.52,0,0,1-2.88-19.92,68.63,68.63,0,0,0,29.64,1.8l4.08-.84v-6.48l-2.88-2.28-6.6-1Zm-51.84-14c2.52-2.88,2.28-5.88-.48-9-4.44-4.8-10-6.6-16.8-5.4-13.56,10.08-20.4,23.64-20.76,40.8-.48,19.08,8.52,29,27,30.12a35.74,35.74,0,0,0,27.24-10.32L425,236.4l-2.64-4.8a59.93,59.93,0,0,1-35.76,2.4q-14.4-3.6-12.24-19.44c2.52-17.16,12.24-24.72,29.28-22.68ZM462.36,64l-.72-1.44a263.18,263.18,0,0,0-63.48,39.24l-46.44-36c-2.52,2.52-3.12,5.4-1.8,8.88l.48,1.44a215.49,215.49,0,0,1,38.52,32.4l-46.44,35.76a12.57,12.57,0,0,0,0,8.88l1.08,2.52a341.2,341.2,0,0,0,54.12-39.36l67.44,54.24c3-6.6,1.68-12.72-4-18.48l-3.36-3.24-9.36-7.2c-13.8-10.44-27.36-21.12-40.8-32.28L463,73.92A11.19,11.19,0,0,0,462.36,64Z" transform="translate(-37.2 -58.68)"/></svg>