<svg id="Layer_1" data-name="Layer 1" xmlns="http://www.w3.org/2000/svg" viewBox="0 0 305.92 211.92"><defs><style>.cls-1{fill-rule:evenodd;}</style></defs><path class="cls-1" d="M325.08,304.32c-4.8-14.76-14.52-18.72-29-12.12-13.68,6.24-22.44,17.28-26.4,33.12a118.78,118.78,0,0,0,3.36,69.6,12.22,12.22,0,0,0,7.68,7.68c10.68,4,21.12,3.12,31.2-2.64,13.68-7.8,18-18.84,12.84-33.12C314,382,299.52,389.52,281.16,389.4A73.47,73.47,0,0,1,272,348.84l1.2,3.12,9.24-5.4,29.28-.84a14.77,14.77,0,0,0,1.56-9.84,13.66,13.66,0,0,0-2.16-5.28,70,70,0,0,0-36.72,6.84c.36-7.32,3.72-15.72,10-25.08,11.28-9.48,24.84-12.12,40.56-7.92Zm-90.84-97.56q-.72,38-2.16,76a208.64,208.64,0,0,1-27.48-1.56,81.46,81.46,0,0,0-39.48,6.36c1-30.6.6-61-1.08-91.32a1.89,1.89,0,0,0-1,.36q-2.7,29-4,58.32-2.52,64.26-8.4,128.16c-1,9.72.72,17.52,4.92,23.4,3.24-26.76,5.76-54,7.68-82l1.32-25.68a319,319,0,0,1,67-3.36l-1.8,39.48a167.53,167.53,0,0,1-4.44,32c-2.88,12-2.28,22.92,1.92,32.64a2.33,2.33,0,0,0,2.28-2,448.67,448.67,0,0,0,8.64-73.92L239,293a10.89,10.89,0,0,0,.24-7.56l-.12-.36c.48-30.12.24-60.12-.6-89.76C235.8,197.88,234.36,201.72,234.24,206.76Zm182.4-12.24c-11.88,1.32-21.36,6.48-28.44,15.6a138.1,138.1,0,0,0-23.64,45.48q-19.62,63.18,4.08,125c8.52,22.44,25,29.28,49.08,20.52l17.64-6.36a59,59,0,0,0,9.12-4.2,34.7,34.7,0,0,0,4.44,13.68l.48-1c1.2-6.6,2.16-13.08,2.88-19.56,4.68-6.12,5.4-13.68,1.92-22.68.36-10.08.36-20-.24-29.88a112.09,112.09,0,0,0-30.24,4.8c-1.56,4-1.2,7.44,1.08,10.56l24.6-1.32c-.84,8-1.92,16.08-3.24,24q-26.46,19.62-59,17.64-22-27.72-23.52-64.08a191.76,191.76,0,0,1,16-85.2c10.2-23.64,29-33.12,56.28-28.44a31.3,31.3,0,0,1,11.88,11.16,2.26,2.26,0,0,0,2.76,1.08A21,21,0,0,0,446.76,206a37.51,37.51,0,0,0-10.08-9.84l-3.48-.6Z" transform="translate(-150.46 -194.52)"/></svg>