<svg id="Layer_1" data-name="Layer 1" xmlns="http://www.w3.org/2000/svg" viewBox="0 0 438.32 444.24"><defs><style>.cls-1{fill-rule:evenodd;}</style></defs><path class="cls-1" d="M202.56,96.36q-1.26,64.62-4.32,129l-2.52,57.24-69.12-5.28-23.76.36a17.73,17.73,0,0,0-8,2c.84-21.12,1.92-42.24,3.12-63.24A1205.21,1205.21,0,0,0,99,88.2a1.85,1.85,0,0,0-.84.36q-4.32,44.64-5.4,90c-1.2,43.08-2.52,86-4,129.12q-2.16,64.08-3.72,128.16c-.24,10.92-.84,21.72-1.92,32.4-1.08,12.72.6,23.28,5.28,31.56a88.65,88.65,0,0,0,3.48-26c-.36-43.08,0-86,.84-129,.36-18.12,1-36.36,1.68-54.48L195,297.6l-2.28,56.88-5.16,128.16c-.48,12.12,1.44,22.68,5.64,31.68a191.76,191.76,0,0,0,4.44-43c-.36-42.84.12-85.68,1.44-128.28l1.68-45,8.64.72,1.08-1.44a11,11,0,0,0,1.44-4.08v-2.4l-.12-.84-.12-1.56a8,8,0,0,0-.72-2.4l-.72-1.68a.91.91,0,0,0-.84-.48l-8-.72c.84-22.92,1.92-45.72,3.12-68.4Q207.9,149.64,207,86.64C204.12,88.8,202.68,92,202.56,96.36ZM363,124.44c-6.36-25.32-23.88-36.6-52.44-34.08-15.72,7.8-28,20-36.48,36.48a357.3,357.3,0,0,0-33.24,96.84,533.06,533.06,0,0,0-8.52,127.56,667.15,667.15,0,0,0,9,79.08A180.59,180.59,0,0,0,272.16,505a15.58,15.58,0,0,0,9.48,6.6q40.86,10.62,70.92-22.92a41.16,41.16,0,0,1,10.32-8.52c14.64-8.52,18.84-19.32,12.72-32.28l-1.44.48a3.83,3.83,0,0,0-3.24,2l.12.72.48.72c-7.08,6.36-13.92,13.08-20.76,19.92-13.44,13.8-29.4,22.56-48,26-15.6,3-26.76-2.52-33.6-16.8a301.45,301.45,0,0,1-26.52-88.44,478.64,478.64,0,0,1-4.2-91.68l72.72-3.72.72-1c2.88-5.28,2.64-10.32-.72-15.24-24.12,1.2-48,3.12-71.88,5.76.6-7.2,1.32-14.4,2.16-21.72a614.69,614.69,0,0,1,10.92-62.88A233.11,233.11,0,0,1,285,124.8c11.4-17.28,27.48-23,48-17.28,12.72,3.48,22.8,9.36,30.12,17.76Zm46.32-26.16H409v1.2l-.36-1.2c-3.24,1.8-4.32,5-3,9.48l2.52,8.88q-2.16,43-4.8,87.12-3.78,64.44-5.88,129.12Q395.28,397,391.92,461c-.6,10.8-1.68,21.48-3.24,32.16q-2.7,18.36,3.6,32a5.45,5.45,0,0,0,2.4-4.08q5.76-50.22,7.32-101.52c1.2-42.84,2.52-85.92,4-129,1.56-42.72,3.72-85.44,6.72-128.16.6-8.76.84-17.52.6-26l1.44,5.76c4,16.08,8.16,32,12.72,48q17.46,61.74,31.32,124.56c4.68,21,9,41.88,13.2,62.76q12.42,61.38,22.32,123.24c1.92,11.76,5.64,21.84,11.16,30.12l1.56-1.2,1.08,1.2a609.22,609.22,0,0,0,3.48-70.32c-.24-21.48,0-43,.84-64.2l3.12-96.48,4.2-129.12c.72-22,1.2-43.32,1.44-64.2A1.75,1.75,0,0,0,519,108a381.59,381.59,0,0,0-8.4,77l-1.32,129.12q-.72,64.8-3.36,129.12c-.72,17.76-1.8,35.4-3.12,53q-7.38-43.92-15.48-88-11.7-62.82-27.72-125l-16.08-62Q428,161.88,410.4,104Z" transform="translate(-82.84 -86.64)"/></svg>