<svg id="Layer_1" data-name="Layer 1" xmlns="http://www.w3.org/2000/svg" viewBox="0 0 510.57 448.44"><defs><style>.cls-1{fill-rule:evenodd;}</style></defs><path class="cls-1" d="M143,100.08c-1.56,21.48-3,42.84-4.08,64.2q-2.7,48.06-4.68,95.88a7.9,7.9,0,0,0-4.44-.6c-24.36.72-48.72,1.32-73.32,1.8l4-68.4c1.32-21.48,3-42.72,5-64a247.89,247.89,0,0,0,0-48.12q-.9-.18-1.08.36A753.57,753.57,0,0,0,52.92,188.88L48,317.16c-.84,21.48-1.56,42.84-1.92,64.08q-.9,48.24-5.16,95.76-1.62,18.36,5,31.68a321.08,321.08,0,0,0,4.8-58.44c-.36-43.32.6-86.4,2.64-129.12l2.52-47.88a763,763,0,0,0,77.76,2.88L133,293.28c-.84,21.72-1.8,43.32-3.12,64.8-2.52,42.72-3.48,85.56-2.64,128.4.12,9.72,2.4,17.52,6.72,23.28a8.09,8.09,0,0,0,2.4-5.64c.24-13.08.24-26-.12-39q-.9-48.06.36-95.76c1.08-43.2,2.52-86.28,4.08-129.12q1.8-48.06,6.6-95.52A386.81,386.81,0,0,0,148.8,80.4C145.56,85.68,143.64,92.28,143,100.08Zm44-2.52a305.51,305.51,0,0,0-24.72,111.6q-2.16,64.26-4.08,129.12-1.44,50.94-.12,101.4c.84,33,14,58.92,39.36,77.88l10.2.36c25.8-13.8,44-34,55-60.6,3.24-7.8,2.16-13.08-3.48-15.72a108.28,108.28,0,0,1-16.92,30.72Q224.46,494.82,198,499q-31.68-23.58-32.52-64.68-1.62-64.26-.12-129l.84-28.44a158,158,0,0,0,51-.84l.72-1c2.76-5.16,2.4-10-1-14.4-16.8,2-33.6,3.36-50.28,4,1.32-29.16,3.24-58.08,6-86.76a199.33,199.33,0,0,1,18.24-66.72C198.72,94.68,212.4,89.4,232,95a28,28,0,0,1,14.4,9.36,71.45,71.45,0,0,1,10.92,17.16A10.69,10.69,0,0,0,259,115Q256.62,77.7,215.4,77.88C201.84,78.6,192.36,85.2,187.08,97.56Zm195.84,180.6a435.48,435.48,0,0,0-16.08-126.6q-15.48-54.9-69.72-69h-1.44v-.24l-.12.24-2.28.12-.6.12a5,5,0,0,0-1.68,3,21.42,21.42,0,0,0-.12,4.8l.24,1.44a47.82,47.82,0,0,0-1.92,14.28q.18,64.62-2.52,129t-4.56,129.24q-1.8,64.62-6.48,126-2.7,14.22,3.6,24.84a2.33,2.33,0,0,0,1.2-1.44l.12-.84,1.08,2c12.36-.84,22.44-7.08,30.36-18.48l17-24.36a246.38,246.38,0,0,0,33.6-68A450.7,450.7,0,0,0,382.92,278.16Zm-17.64-106.8a419.15,419.15,0,0,1,7.08,149.28A329.65,329.65,0,0,1,365.28,361a315.38,315.38,0,0,1-13.56,42.72,288.34,288.34,0,0,1-17.88,36.72,298.65,298.65,0,0,1-23.16,34.08,105.72,105.72,0,0,1-21.48,20.64v-3.24l-2.4,3.24-2.64,1.44a136,136,0,0,0,1.56-17.28q1.62-70,5.16-139.68,4.5-93.42,5.4-187.2c.12-19.2,0-38.4-.36-57.72a78.34,78.34,0,0,1,21,8A71.73,71.73,0,0,1,335,116.88a141.1,141.1,0,0,1,18.84,25.44A102.39,102.39,0,0,1,365.28,171.36Zm56.28-80.88q-27.72,44.28-26.64,99,1.26,64.62-1,129L389.28,445.8q-1.62,42.48,25.44,72.36a16.16,16.16,0,0,0,14.64.48c12.6-5.52,21.72-14.76,27.48-27.6l-2.28,14.64c-1.68,9.6.24,16.44,5.64,20.64a36.58,36.58,0,0,0,3-13.08A323.67,323.67,0,0,1,467,476.16a119.43,119.43,0,0,0-2.16-49.8c-8.4,1.2-16.32,2.52-23.88,4.08l-.36,1a13.68,13.68,0,0,0,1,11.28c7.56,1.56,14.16,1.56,19.68,0-1.08,9.84-1.92,19.68-2.64,29.64a15.31,15.31,0,0,0-4.08-5.28,44,44,0,0,0-6,11.28,44.94,44.94,0,0,1-14.88,20.4l-7.32.84c-9.36.12-16.44-4.32-21.36-13.56a97.13,97.13,0,0,1-3.72-19.56,965.09,965.09,0,0,1-1.68-129.12q3.42-64.44,2.28-129A324.09,324.09,0,0,1,407,145.2L411.36,122q3.24-18.54,20.88-22.32c12.12-2.64,21.72-.12,28.8,7.44l.36-.84c1-16.8-8.16-24.6-27.36-23.52a10.13,10.13,0,0,1-3.24,1.32A13.58,13.58,0,0,0,421.56,90.48ZM550,119.88C551,101.52,542.28,91.32,523.8,89a45.21,45.21,0,0,0-7.08,3.84q-25.38,16.38-32,48.24a425.71,425.71,0,0,0-9,97.56c1,43.08,1.08,86,.36,129.12A1014,1014,0,0,0,482,496a25.73,25.73,0,0,0,6.72,15.12q17.1,18.9,38.16,1.2a77,77,0,0,0,22.32-31.92c3.48-9.48,2.28-16.92-3.72-22.32a14.6,14.6,0,0,0-3,6.48c-4.44,21-16.56,34-36.6,38.76l-7.2-2.52a6.83,6.83,0,0,1-4.44-4.44,220,220,0,0,1-10.08-70.2c.6-42.84.36-85.92-.72-129l-.24-14.52a182.2,182.2,0,0,0,40.08-3.84l.6-1c3-5.4,2.76-10.44-.6-15.36l-40.2,6.6q-.36-48.42,2.88-96.12,2.7-39.78,29.16-66.6a42,42,0,0,0,7.68-1.8c3.72-1.32,7.08-1,9.84,1.08a108.48,108.48,0,0,1,17.16,15.12Z" transform="translate(-40.6 -77.88)"/></svg>