<svg id="Layer_1" data-name="Layer 1" xmlns="http://www.w3.org/2000/svg" viewBox="0 0 595.57 842.18"><defs><style>.cls-1{fill:#fff;}.cls-2{fill:none;stroke:#fff;stroke-linecap:round;stroke-linejoin:round;stroke-width:0.38px;}.cls-3{fill-rule:evenodd;}</style></defs><rect class="cls-1" x="0.31" y="0.31" width="595.08" height="841.68"/><rect class="cls-2" x="0.19" y="0.19" width="595.2" height="841.8"/><path class="cls-3" d="M74.64,84.24c-2.64,20.28-4.44,41-5.28,62.4L65.76,227,59.64,355.2q-.72,16-2.16,32.4c-1.08,11.88-.12,22.68,3.12,32.28a24.89,24.89,0,0,0,5-15.12L67.44,301c.24-16.92,1-33.72,2-50.4l7.92.6a315.37,315.37,0,0,0,89.88-9c-1.56,36.84-2.64,73.92-3.24,111A341.46,341.46,0,0,1,160,401.52c-1.92,12.6-.48,23.16,4.2,31.68a492.54,492.54,0,0,0,7.44-91.68q-.54-64.8,2.4-129.12,2.7-65,2.88-128.28c-3.24,2.64-4.8,6.48-4.92,11.64Q171.06,160,168,224l-.12,4.44A423.09,423.09,0,0,1,70.2,239.76c.72-9.12,1.56-18.12,2.52-27.12A767,767,0,0,0,75.24,84.12ZM260.16,124l19.56,103-8-.48a164.19,164.19,0,0,0-49.08,8.76l5.28-19.2Q239,177.3,248,138.24a167.5,167.5,0,0,1,9.84-29.88l.36-1A100.2,100.2,0,0,0,260.16,124Zm-.36-35.88-1.2-2.88A25.57,25.57,0,0,0,252,98.4a422.38,422.38,0,0,1-12.24,45.84,1030.41,1030.41,0,0,0-32.88,125.4Q194.64,331.56,180.12,393a85.22,85.22,0,0,1-4.92,14.76c-4.2,9.6-3.36,16.92,2.76,22a33.09,33.09,0,0,0,4.56-11q13.86-62.46,26.4-125.4c3.24-16.2,7-32.4,11-48.36,20.16-1.32,40.8-3.48,61.92-6.72l2,11q11.7,62.82,20.76,126a282,282,0,0,1,2.88,31.8c.48,11.88,3.48,22.08,9,30.72a3.29,3.29,0,0,0,1.44-3.12,810,810,0,0,0-11.52-95.88l-22.68-126Q272.28,149.58,260,87.12ZM402.36,150.6a188.64,188.64,0,0,0-11.16,43q-3.06,21.06-4.68,42.12c-1.08,14.28-1.56,28.44-1.68,42.72,0,10.68-.12,21.36-.48,32l-1.2,44.16a212.11,212.11,0,0,0,4.2,46.92,218.88,218.88,0,0,0,9.6,33.6q24.66,6.66,44.28-13a50.4,50.4,0,0,0,12.6-20.88,52.58,52.58,0,0,0,2.4-13l-3.84,2.16c-10,17.4-24.72,27-44.4,28.56l-8.4-.24a506.59,506.59,0,0,1-7.08-176L448.08,240a12.56,12.56,0,0,0-.6-13.8,281.56,281.56,0,0,0-54.72,6.48q-5.58-66.6,43.56-103.56a40.18,40.18,0,0,1,20.16-7.92l4.32,2q-.72-27.54-31-7.2A70.44,70.44,0,0,0,402.36,150.6Zm21.36-66.12a1327.5,1327.5,0,0,1-141.24,2.88l-.48,1a11.61,11.61,0,0,0,.24,8,50.25,50.25,0,0,0,16.56,3.36c21.84.72,43.68.84,65.64.48A463.69,463.69,0,0,0,362.76,151c.6,43.08,1,86,.84,129.12s-2,86.16-5.64,128.88c-1.08,12.6.72,23,5.4,31.56,3.24-40.2,5.28-80.76,5.88-121.8.6-43.08,1-86.16,1-129a882.46,882.46,0,0,0-4.56-89.64l58.08-2.64.6-1C426.6,92.28,426.48,88.2,423.72,84.48Zm107.52,2.4a31.58,31.58,0,0,0-22.56-4.56A29.25,29.25,0,0,0,497.16,91,72.78,72.78,0,0,0,482.76,119a85.16,85.16,0,0,0-1.44,38.88,315.22,315.22,0,0,0,31.56,88.8,550.88,550.88,0,0,1,37.8,89.76q15.12,47.7-10,89.52C534.24,436.92,525,442.32,513,442.44a55.19,55.19,0,0,1-21.36-19c-9.24-14.28-13.44-29.28-12.48-45-4.8,2.28-7.2,6.12-7.32,11.64a95.92,95.92,0,0,0,8.28,39.72q13,29.88,44.28,31.2Q571,419.64,562,355.68a299,299,0,0,0-37.8-109.32,412.07,412.07,0,0,1-35-78.6c-9.24-28.2-3-52.2,18.48-72h14a46.67,46.67,0,0,0,9.24,4.44l2.4.72a61.76,61.76,0,0,1,14.16,13.2,50.2,50.2,0,0,0,8.88,8.76,16.88,16.88,0,0,0-2.4-16.92,64.7,64.7,0,0,0-19.8-18A6,6,0,0,1,531.24,86.88Z" transform="translate(0.19 0.19)"/></svg>