<svg id="Layer_1" data-name="Layer 1" xmlns="http://www.w3.org/2000/svg" viewBox="0 0 297.15 215.28"><defs><style>.cls-1{fill-rule:evenodd;}</style></defs><path class="cls-1" d="M300.12,220.2l8.76,60.36-25.08,3ZM161.28,189.72a670.6,670.6,0,0,0-9.84,116.76,518.85,518.85,0,0,1-3.72,64.08c-1.44,11.88-.12,22.56,3.84,32.28a185.29,185.29,0,0,0,6.84-52.44c0-17.88.36-35.88,1-53.76a334.54,334.54,0,0,0,53.28-3.36l.6-.6,1.08-2.4-2.64,52.56a222.62,222.62,0,0,1-2.4,24c-1.8,12.6-.24,23.16,4.8,31.68a22.93,22.93,0,0,0,3.24-11.4q1.62-64.08,5-128.16a570.6,570.6,0,0,0,0-64.08c-3.6,5.16-5.52,11.76-5.64,19.68-.48,22.68-1.2,45.24-2,67.68a13,13,0,0,0-2-4.08,313,313,0,0,0-52.92,6.72l1.56-31a548.06,548.06,0,0,0,.6-64.2Zm140.16,4.8a503,503,0,0,0-23.76,78.6q-6.66,31.32-16.44,62a331.26,331.26,0,0,0-13.44,63.12c.6,2,1.68,2.52,3.48,1.56l1.56-3c10.68-32.88,20-66.12,27.84-99.72L311,294.84A792.93,792.93,0,0,0,337.68,405q6.12-8.82,2.52-20.52a473.37,473.37,0,0,1-14.4-60.6q-10.44-61.74-24.24-122.52ZM375,296.76l23.28-1.44c16.68.12,28.08,8.28,34.2,24.72,5.64,15,4.92,29.64-2,43.92-6.6,13.68-18.24,20.64-35.16,20.76a63.94,63.94,0,0,1-24.6-4.56l3.6-58.92Zm45-49.92c-5,23.64-19.92,35.64-44.64,36.24q.72-40.32-.36-80.16,29.52,4.5,43.32,32A17.35,17.35,0,0,1,420,246.84Zm-47.52-46.56A63.28,63.28,0,0,0,371,212.4q-2.7,64.08-6.12,128.16a354.5,354.5,0,0,0,2.52,64.2c.6-.24,1-.48,1-.84l.84-8,1.44,1.56a122.19,122.19,0,0,0,19.44,5.16c24.12,4.44,40.08-4.44,48.12-26.64a102.82,102.82,0,0,0,5.52-45.48c-2.52-24.84-13.92-40.56-34.32-47.4a60,60,0,0,0,6.48-7,40.1,40.1,0,0,0,9.24-24.72q1.26-46.62-45-58.44l-3,.24-2.4,1.2V193l-.72,1.92-.72.48-.36.84-.48,3.24Z" transform="translate(-147.15 -189.72)"/></svg>