<svg id="Layer_1" data-name="Layer 1" xmlns="http://www.w3.org/2000/svg" viewBox="0 0 406.95 352.56"><defs><style>.cls-1{fill-rule:evenodd;}</style></defs><path class="cls-1" d="M99.36,179.64q-2,64.08-4.68,128.28c-1.8,43-3.84,85.68-5.88,128.28.48,1.92,1.68,2.4,3.48,1.56a537.89,537.89,0,0,0,5.28-60.84q1.26-45.72,3.6-91.2A542.22,542.22,0,0,0,171,286l-1.08,27.12c-1.8,42.72-2.52,85.44-2.4,128.16.36,1.92,1.44,2.64,3.24,2.28,2.52-20.52,4-41.28,4.56-62.52l2.88-95.52,2.28-.24.72-1.68a11.06,11.06,0,0,0-.48-9.72l-.6-.6-1.56-1,.6-20.4q2.16-65,.84-128.16A384,384,0,0,0,174.12,184q-.9,43.74-2.52,87.48a235.33,235.33,0,0,0-70.08,7.32l1.8-30.12a1090.36,1090.36,0,0,0,.84-128.28C101.64,139.2,100.08,158.88,99.36,179.64Zm171.12-19.08,11.76,112-38,4.44,20.16-84.72Zm2.76-31.2-.6.12a531.83,531.83,0,0,0-18,65.88Q246,237.3,236.16,279.12l-4.08,1.2a22.09,22.09,0,0,0-.6,4.92,10.13,10.13,0,0,0,1,4.08h1.32l-7.56,31.32c-8.28,24.36-15.36,49-21.48,73.8A178,178,0,0,1,196.8,419c-4.92,12.24-4.8,22.8.24,31.68q11.7-34.92,21.48-71.88,11.7-44.64,22.68-89.28a215,215,0,0,0,42.6-4c4.92,40.44,10.56,80.88,16.8,121.08a91.78,91.78,0,0,1,1,16.2c-.48,12.24,2.4,22.56,8.52,30.84a2.77,2.77,0,0,0,1.32-2.4,196,196,0,0,0-1.32-30.12c-1.2-10.92-2.52-21.84-4.08-32.64q-9.18-63.18-17.28-126.6c-5.4-42.36-10.56-84.48-15.72-126.36Zm188.88-2.16Q424,163.38,420.84,217.68a2075.91,2075.91,0,0,0-1.08,218.52,15.44,15.44,0,0,0,7.2,12.24,42.1,42.1,0,0,0,16.56,7q38.34-31.14,45.48-79.32a8,8,0,0,0-3.6-8.52l-3.84,5.4q-7.38,35.82-39.24,61.32c-5.28,4.2-9.84,3-13.8-3.6A54.17,54.17,0,0,1,421,399.84q2.7-60.12,6.12-120.36l44-.48a14,14,0,0,0-.24-14.52l-.48-.48a93.17,93.17,0,0,0-42.72,1.32q-7.74-64.62,25.92-117,23-12.42,35.52,12.84a73.72,73.72,0,0,0,6.24,10.08c2.52-22.56-7.32-37-29.76-43.2ZM385.92,125c18.12-.72,36.24-1.2,54.24-1.32a11.09,11.09,0,0,0,2.28-8.16l-.36-1.68-.6-1.56-.72-1.68-.72-.36a219.65,219.65,0,0,1-40.68-1.2q-43.74,4.68-88.2,6.72A9.73,9.73,0,0,0,309,124l.36,1.56.6,1.56,1.2,1.68L383.64,125a893.19,893.19,0,0,0-6.48,110.88q.36,64.8-1.56,129.12a506.48,506.48,0,0,1-6.24,64.68c-2,12.12-1,22.8,3.48,31.92a68,68,0,0,0,6.48-25.08q4.68-63.72,3.48-128.4t2.28-129C386.16,160.56,386.4,142.56,385.92,125Zm-34.68,18.72a24.78,24.78,0,0,0-13.08-10.56l-14.52-.6c-12.48,6.6-18.36,16.68-17.52,30.48a61.11,61.11,0,0,0,18,40.8,120.57,120.57,0,0,1,26.4,41.64C355.2,257.88,351,267,338,272.88c-10.32,4.68-20.64,4.44-31-.6l.12-1v-1.44a10.52,10.52,0,0,0-2.64-5.28,4.38,4.38,0,0,0-2.28-1.68l-.6-.12c-3.72,5.76-3.24,11.52,1.2,17.28,6.84,8.76,15.72,12.48,26.64,11a27.91,27.91,0,0,0,15.6-7.68c12.36-11.52,14.76-25.56,7.08-42q-17.46-38.16-37.44-75.84c-2.88-5.4-1.56-10,3.84-13.68,11.28-7.92,22-6.6,32.16,3.84C353.88,152.52,354,148.44,351.24,143.76Z" transform="translate(-88.8 -109.08)"/></svg>