<svg id="Layer_1" data-name="Layer 1" xmlns="http://www.w3.org/2000/svg" viewBox="0 0 303 213.72"><defs><style>.cls-1{fill-rule:evenodd;}</style></defs><path class="cls-1" d="M269.64,287.64,285,232.08,291.12,285ZM154.08,212.4q-1.8,64.08-4.8,128.28A451.5,451.5,0,0,0,151,404.76c1.44-.12,2.16-1,2.28-2.52q3.42-39.42,4.68-80.28l.84-25.32,1.44.72a304.57,304.57,0,0,1,46-5.88A7.25,7.25,0,0,0,209,287l-3,60.12c-.36,8-1.2,16.08-2.28,24.12-1.68,12.12-.12,22.8,4.56,31.92A40.79,40.79,0,0,0,213,385.32c1.08-42.6,2.64-85.44,4.56-128.28,1-22,1.08-43.32.48-64.08-3.84,7.08-5.88,15.48-6.24,25.2l-2.52,65.16a9,9,0,0,0-3.12-5.4l-1.68-.36-5.28-.24a81.52,81.52,0,0,0-40.2,8.16c.84-30.6,1.32-60.84,1.68-91C156.48,198.84,154.32,204.84,154.08,212.4Zm185.16-6.24,4.92,11.16c3-4.32,3.72-9.24,1.92-14.88a21.48,21.48,0,0,0-5.76-9.24c-13.08,4.44-21.6,15.24-25.56,32.16L312,238.08l-2.76,1.44-.36,7.2,2.28,1.32c-1.68,14.4,2.4,25.68,12.24,34a10.28,10.28,0,0,0,7.2,2.4c6.36-3,10.08-7.56,11.28-13.8a6.42,6.42,0,0,0-1-4.44l-.48-.6q-6.84,2.88-14.76,0c-7.08-2.64-9.48-8.4-7.2-17.16a19.6,19.6,0,0,0,15.6-7.08,5,5,0,0,0,1.32-3.84v-.6l-3.12-3.6-11.88,1.44a79.1,79.1,0,0,1,14.28-28.8Zm-50-13.2-2.64,2.64q-13.68,48.06-25.32,96.6l-5.4,23.4a207.71,207.71,0,0,1-11.76,36.72,37,37,0,0,1-4,7.08c-7.32,10-10.2,20.64-8.88,32.28a19.54,19.54,0,0,0,2.52,7.44,442.26,442.26,0,0,0,32.64-99.6l24.84-2,1.2-2.52a363.18,363.18,0,0,0,19.8,111.72,27.4,27.4,0,0,0,2.4-21.48l-4.2-15.36a311.08,311.08,0,0,1-7.2-39.36L298.92,294q-4.86-42.66-10.2-85.32Zm72.84,2.4a68.81,68.81,0,0,0-1.32,20.4l5.4,60.12a1154.52,1154.52,0,0,0,18.36,126.48,25.69,25.69,0,0,0,4.56-8.52c4.2-10.92,8.4-22.32,12.48-34.08q20.7-60.66,42.36-120.6a124.52,124.52,0,0,0,7.92-46,43.75,43.75,0,0,0-10,17.64,1204.13,1204.13,0,0,1-42.48,121,202.1,202.1,0,0,0-12.6,44.88c-3.24-18.72-5.64-37.56-7.32-56.4Q373.5,256,365,193.8l-.72.12Z" transform="translate(-148.83 -192.96)"/></svg>