<svg id="Layer_1" data-name="Layer 1" xmlns="http://www.w3.org/2000/svg" viewBox="0 0 545.32 551.26"><defs><style>.cls-1{fill-rule:evenodd;}</style></defs><path class="cls-1" d="M398.28,450.36c-13.68-2.28-25.56-.84-35.64,4.2l-.12,3,65.28,5.76a460.12,460.12,0,0,1-28.2,38.16Q371.16,536,365.76,574.92l77.88-3.84,1.08-2.76.24-1.08v-1.08l-.12-1.2-.24-1.2a5.47,5.47,0,0,0-2-2.64,342.76,342.76,0,0,1-43,2.76l-25.8-1.08a241,241,0,0,1,22-39.72,648.41,648.41,0,0,0,39.12-64.68,4.24,4.24,0,0,0,.24-2.76ZM539.4,471.72c-6.84-11.16-16.44-13.56-28.8-7.08A55.45,55.45,0,0,0,486,490.32a87.12,87.12,0,0,0-7.2,24.12l-3.84.12-.12,2.64,3.36,1.32q-10.26,39.24,21.24,55.32a34.36,34.36,0,0,0,25.8,2.52,29,29,0,0,0,17.52-12.84,14.35,14.35,0,0,0,1.92-11c-14.28,11.64-30.6,16-48.84,12.84q-9.54-1.8-12.24-11.16a83.34,83.34,0,0,1-2.52-35.28,75.71,75.71,0,0,0,43-6.12v-6.84a393.87,393.87,0,0,1-42,8.4c3.24-22,14.64-35.76,34.08-41.16A50.07,50.07,0,0,1,536.4,472ZM135,99.12q.9,52.56.6,105.24l-.36,53.28-.48-.84-.48-.48A31.41,31.41,0,0,0,121,254.64a218.7,218.7,0,0,0-42.48,5.16A110.45,110.45,0,0,1,42.12,262l.36-26.28L44.28,131q.9-52.56-.84-104.52c-1.32,14-2,28.68-2,43.92q0,51.84-.84,104.52L38.88,280.2c-.48,34.92-.48,69.72,0,104.64q.9,52.74-.24,105.12-.54,26.46-3.6,52.2C34,552.48,35.4,561,39.48,567.84a132.34,132.34,0,0,0,1.44-17.16l2.16-104.52c.72-35.16.6-70.32-.24-105.24-.6-24.84-1-49.8-.84-74.76a125.82,125.82,0,0,0,49.68.24,245,245,0,0,1,43.08-4.32l.36-.84-.72,48.36c-.6,34.92-.72,70-.12,105.12q.9,53.1-1.68,105.24a276.12,276.12,0,0,0,2.4,52.2,32.64,32.64,0,0,0,3.36-14.4c.36-34.92.36-69.84,0-104.52-.36-35.16-.24-70.2.12-105.24l.72-105.36q.36-52.56-.24-105.12c-.36-35.4-.12-70.2.72-104.64A372.88,372.88,0,0,0,135,99.12Zm206.16,78.72q-1.26,52.56-6.36,104.4c-.84,9.84,0,18.48,2.76,25.92a440.16,440.16,0,0,0,3.84-44.28L345.24,160A42.16,42.16,0,0,0,341.16,177.84ZM254.76,63.36q8.1,40.68,15.12,82.2c5.88,33.72,11.88,67.32,18,101l2,11.52-9.36-.84-70.2,2.52v-.24c5.88-34,12.12-67.92,18.84-101.64Q239.28,107,252.12,56.76l.48-1.92C253.2,57.6,253.92,60.48,254.76,63.36Zm-2.4-25a40,40,0,0,0-4.44,11.88c-7.56,34.08-15,68.4-22.08,102.84q-10.26,50.4-19.08,101.16l-1,5.88H205l.48,1.44q-8.28,47.34-17.88,94.56-6.48,32-13.92,64.08-11.52,50-19.68,100.68a279.58,279.58,0,0,0-3.48,50.52,206.11,206.11,0,0,0,9.6-43.56,893,893,0,0,1,17.16-102.36q7.38-32.22,13.92-64.08c6.72-32.52,13-65.28,18.6-98a686.4,686.4,0,0,0,81.84,3q7.56,41.22,15.72,82.2l20.76,101.88q10.26,50.4,17.16,101.4Q347,566.1,352.8,576a79,79,0,0,0-.48-26.52q-9.72-50.76-19.8-101.76l-20.4-101.4q-10.26-50.94-19.56-101.88L274,142q-8.46-47.52-20.4-93.72A28.79,28.79,0,0,0,252.36,38.4ZM519.48,333c8-4.08,16-3.84,23.64.6-1.08-8.52-5.76-12.72-14.28-12.84-13.68-.12-23.52,6.36-29.4,19.44q-15.84,35.1,1.08,65.64A20.9,20.9,0,0,0,507,413q15.66,3.06,27.72-6.84a30.61,30.61,0,0,0,9.84-14.64q-16.2,10.62-37.08,10.44c-7.08-7.8-10.08-17.4-9.12-28.8l.24-3.36a40.08,40.08,0,0,0,22.56-1.2,46.05,46.05,0,0,0,9.24-5l-.72-4.56-30.24,3.48C500.88,348.84,507.6,339,519.48,333Zm-94.92-29.88c-8,14.52-21.48,20.88-40.2,18.84q.9-25,.72-50a49.75,49.75,0,0,1,36.12,9,21.65,21.65,0,0,1,5.4,13A16.17,16.17,0,0,1,424.56,303.12Zm-73-35-.12.84-.12-1ZM395.4,265l-10.44.72L383,267.6l-11,145a242.2,242.2,0,0,0,12-81.48l18-.84A230.32,230.32,0,0,0,441.84,415a559.89,559.89,0,0,0-38.4-85.2q33.12-9.54,24.48-43.68a24.34,24.34,0,0,0-4.56-9.36,27,27,0,0,0-5.28-5.16,29.92,29.92,0,0,0-8.28-4.2A53.21,53.21,0,0,0,395.4,265Zm-5-96.6q-2.16,43.56-6.72,86a601.4,601.4,0,0,0,75.24-2.88,6.86,6.86,0,0,0,.24-8.52l-71,2.28.12-.6a471,471,0,0,0,4.68-82.08Q390.54,164.4,390.36,168.36Zm41.4-121.08a107,107,0,0,0-19.2,24.24c-2.28,4-4.8,7.8-7.44,11.64L389.52,106A87.83,87.83,0,0,0,377.88,76.2l-3.72-7C369.6,60,364.56,51,359.16,42a47.83,47.83,0,0,0,8.64,25.92,49.11,49.11,0,0,1,3,5.52,230.23,230.23,0,0,0,14.64,28.68l3.24,5.16a115.86,115.86,0,0,0-23.28,53.16l.24.36,1.08.48a270.82,270.82,0,0,0,12.12-27.72,37.78,37.78,0,0,1,3.24-7.08,294.37,294.37,0,0,1,31.08-46c5.88-7.32,11.64-14.76,17-22.32a15,15,0,0,0,2.4-6.6A6,6,0,0,0,431.76,47.28Zm115.56-4.2a37.38,37.38,0,0,0-23.16-6.84,27.91,27.91,0,0,0-13,13.56q-22.86,48.42-10,101.16a346.58,346.58,0,0,0,31.2,81.36c5.16,9.48,10.44,18.84,16.08,27.84q28.62,46.44,25,101.88a67.29,67.29,0,0,1-14.64,38.64q-19.26,24.84-49.2,28.92a138.68,138.68,0,0,1-12.36-8.28,44.8,44.8,0,0,1-18.48-32.16q-4,3.06-2.88,9.36,4.68,29,32.4,42.24a16.57,16.57,0,0,0,11.76.36Q557,428,571.56,393.24a112.76,112.76,0,0,0,8.4-46.92,128.52,128.52,0,0,0-6.12-35.88,458.05,458.05,0,0,0-31.92-75.36c-10.68-20.28-20.76-40.68-30-61.44A196.21,196.21,0,0,1,501.6,91.56c1.56-18.72,9.12-34.08,22.44-46.08l6.72.6A56,56,0,0,1,558,58.44v.24l1.08,1.68,2.4,2.16.48-.12A7.93,7.93,0,0,0,560,53.52a68.8,68.8,0,0,0-10.92-9.6A6.08,6.08,0,0,1,547.32,43.08Z" transform="translate(-34.69 -26.52)"/></svg>