<svg id="Layer_1" data-name="Layer 1" xmlns="http://www.w3.org/2000/svg" viewBox="0 0 452.51 362.88"><defs><style>.cls-1{fill-rule:evenodd;}</style></defs><path class="cls-1" d="M162.36,97.8q-6.3,61.92-7.08,125.76l-.48,31.56a6.52,6.52,0,0,0-2.76-3.24l-5.88.12a146.78,146.78,0,0,1-34.68-1.92l-5.76.12L92,251.4l6.12-93.24c1.32-22,2-43.32,1.92-64.32C94,106.2,90.6,120,90.12,135.48q-2,58.14-5.88,116.16H82.8A13.2,13.2,0,0,0,82,257.4l.12.72.48,2.4a6.08,6.08,0,0,0,.84,1.8l-.12,2.4Q78.78,328.44,79,392.88a149.7,149.7,0,0,1-3.36,32c-2.76,12.84-1.32,23.52,4.2,31.8a308,308,0,0,0,7.44-73.92c-.72-32.28,0-64.32,2.28-96.36l1.56-22c21.12,2,42.12,3.24,62.88,3.72l.72-1.32q-1.08,43-3,85.68c-1,21.72-2.88,43.32-5.88,64.68-1.68,12.12-.12,22.92,4.56,32.4,3.72-4,5.64-8.88,5.88-15l4.44-128.28,3-80.4q2.52-64.8-.84-128.28Zm177.72,65.64q4.86,47.52,9.24,95.28l-29-2.16-4.08.24q9.54-42.12,16.92-84.48a331.07,331.07,0,0,0,5-47.88A361,361,0,0,0,340.08,163.44ZM231.36,131.88c10.92-13.08,24.36-16.56,40.56-10.56,7.56,2.88,13.08,7.56,16.44,14.16,1-14.16-4.8-23.76-17.28-28.92q-29.34-12.06-45.24,17.76A343,343,0,0,0,188.4,247.56a638.55,638.55,0,0,0,1.2,148.32,70.65,70.65,0,0,0,7.08,22.92c1.8,3.6,3.84,7.08,6,10.56a52.76,52.76,0,0,0,6.12,8.28l2.76,2.76,2.76,2.16,3,1.68a19.44,19.44,0,0,0,10.08,1.56,80.11,80.11,0,0,0,38-13.92c17-11.64,23.4-27.36,19-47.4a87.61,87.61,0,0,1-40,39.12c-13.44,6.72-24.36,4.08-32.88-8a88.26,88.26,0,0,1-15.24-37.32,338.4,338.4,0,0,1-.84-104.4,238,238,0,0,0,57.72-4.44,12,12,0,0,0,2.64-11.4,11.47,11.47,0,0,0-3.72-5.76l-55.32,7.92Q197,194.1,228.24,137ZM366.6,408.6a103.66,103.66,0,0,0,12.24,32.16A992.57,992.57,0,0,0,364.32,299q-11-63-16.56-126.6l-6-63.36-2.52-2.52-1,10.56-.48-8.28q-20.52,93.06-40.92,186.6a261.32,261.32,0,0,1-14.76,46.44l-1.68,4.44-1.08,4.08-.6,4.2.12,8,.6,3.72.48,2,.72,1.92.84,1.8,1,1.8a759.72,759.72,0,0,0,31-105.48,90.84,90.84,0,0,0,31.2,2.16l1.68-2.16,3.24-.72a1230.66,1230.66,0,0,0,21.12,148.2ZM500,110.4c-11.4,7.2-19.08,17.52-23.28,31a602.3,602.3,0,0,0-20.76,95q-8.64,62.82-13.2,126.6c-1.8,23.4,4.32,44.4,18.36,62.76a20,20,0,0,0,11.4,7.2c18.84,4.2,34.2-1.68,46.08-17.88q16.56-22.5-.72-38.16a15.31,15.31,0,0,1,2.28,4.92l.36,1.56A45.35,45.35,0,0,1,512,400c-9.24,11.4-21,16.2-35.52,14.4a16.42,16.42,0,0,1-13.68-9.6c-11.4-22.68-15.12-47.16-11.4-73.32l7.8-56.4,45.36-1.68a16.61,16.61,0,0,0,2.4-10.68,10,10,0,0,0-4.32-7.2l-1.56-.36-11.88-.72a162.32,162.32,0,0,0-28.08,5.88l6.72-54.48A175.07,175.07,0,0,1,497,127.2l1.8-.72a11.3,11.3,0,0,1,7.68-.6,32.31,32.31,0,0,1,3.84,3.24,46.61,46.61,0,0,1,7.2,10.2l.24-.72C519.84,123.72,513.84,114.36,500,110.4Zm-125.16,6a11.19,11.19,0,0,0-2-9.84q-5.22,17.46-2.52,39.24L386,272.4q7.74,63.36,16.56,126.48a146,146,0,0,0,7.56,31.32,23,23,0,0,0,4.44-11.4l1,1.08a112.58,112.58,0,0,0,5-27.48q3.78-63.9,10.2-127.56a278.61,278.61,0,0,1,5.16-32,620.1,620.1,0,0,0,14.52-126.24,36.69,36.69,0,0,0-5.4,17.28,147.71,147.71,0,0,1-2.64,19.2Q429.66,206.58,423,271q-5.94,58-12.36,115.92l-2.52-16.68Q399.3,307,390,244.08c-6.12-42.12-11.28-84.36-15.24-127Z" transform="translate(-74.24 -93.84)"/></svg>