<svg id="Layer_1" data-name="Layer 1" xmlns="http://www.w3.org/2000/svg" viewBox="0 0 435.19 386.4"><defs><style>.cls-1{fill-rule:evenodd;}</style></defs><path class="cls-1" d="M183.72,91A576.17,576.17,0,0,0,176,181.8l-.36,81.12h-1.2l-10-.72a779,779,0,0,1-81,6.36c.24-17.4.84-34.68,1.8-52.08q3.78-64.8,1.8-128.28a266.46,266.46,0,0,0-7.2,57.12q-1.44,61.56-2.64,123.36H76.8a10.47,10.47,0,0,0-2.64,9.84,5.46,5.46,0,0,0,1,2.28l1.08,1.68H77q-.9,60.48,1.44,121a233.78,233.78,0,0,1-2.76,47.64c-1.68,10.2.12,18,5.4,23.52l.48-.84a749.53,749.53,0,0,0,3.72-128.28c-1.2-21-1.8-41.88-1.8-62.88,31,.36,61.68-.36,92.16-1.92v30.24c.12,42.84-1.44,85.8-4.44,128.88-.84,12,.48,22.8,4.08,32.4A62.44,62.44,0,0,0,182,441.6q-.9-46.8,0-93.36l1.32-67.92,3.36-.24a12.12,12.12,0,0,0,3-9.48,13.39,13.39,0,0,0-1.68-5.52l-1.32-1.8h-3l.72-44q1.08-65.16-.24-128.28Zm110.64-1.08c-16.92,1.68-30.12,9.48-39.72,23.4a195.27,195.27,0,0,0-20.4,37.44,183.15,183.15,0,0,0-10.68,36.36c-2.52,13.56-4.68,27.12-6.36,40.68s-3,27.36-4.08,41l-1.32.72-.72,4.08-.12,4.8a3.71,3.71,0,0,0,1.44,3.12,673.87,673.87,0,0,0,.84,109,140.26,140.26,0,0,0,11.88,45.12,34.71,34.71,0,0,0,15.24,16.56,36.08,36.08,0,0,0,8,3.12,74.62,74.62,0,0,0,17.76,2.52,53.09,53.09,0,0,0,33.36-10.08,90.09,90.09,0,0,0,13.56-11.64,30.33,30.33,0,0,0,8.28-17.4c1-8.52-1.2-12.48-6.6-11.88l-1.2-2,.36,4.56a58.26,58.26,0,0,1-24.12,21.6,64.46,64.46,0,0,1-22.68,6.48l-14.4-.48a31.07,31.07,0,0,1-5.4-1.68,29,29,0,0,1-10.44-7,42.14,42.14,0,0,1-9.72-15.72,144.41,144.41,0,0,1-7.32-33.72,599.63,599.63,0,0,1-1.68-79.08c.36-6.6.48-13.08.6-19.68h69.36a34.5,34.5,0,0,0,2.16-4.8,15.16,15.16,0,0,0,.36-6.6,7.29,7.29,0,0,0-2.28-4.08A331.49,331.49,0,0,0,219.24,266a317.74,317.74,0,0,1,28-122.4,63.09,63.09,0,0,1,17.4-23,73.64,73.64,0,0,1,19.8-12.24,36.48,36.48,0,0,1,6.84-1.92,25.85,25.85,0,0,1,16.68,1.92,37.59,37.59,0,0,1,14,12c1.08-10.32-2.4-18.48-10.56-24.48A32.5,32.5,0,0,0,294.36,89.88Zm62.16,209.88C346,308.28,340,319.68,338.64,334c-.84,9-1.56,18-2,27.12l-3.84.12.24,9.72,3,1.2c-4.8,32,1.68,59.52,19.56,82.2,2.28,2.76,5.4,3.48,9.48,2.16a55,55,0,0,0,16.68-9.6c7.44-6.36,10.56-14.28,9.48-23.88a25.19,25.19,0,0,0-1.56-6.6l-27.12,24.36-7,.12q-18.18-31-12.72-68.16A162,162,0,0,0,391,369.36a15,15,0,0,0,1.8-10.2A9.34,9.34,0,0,0,391,355a348.9,348.9,0,0,0-47.4,5.64l9-46.2c11.64-10.2,23.88-12.12,36.48-5.88Q380.94,279.9,356.52,299.76Zm67.8-150.6q-1.26,64.26-5,128.16L412,405.6c-.6,10.8-1.68,21.48-3.12,32.16-1.56,12.36.12,22.92,5.16,31.92a2.59,2.59,0,0,0,.72-1.68l.48-4.32.12.36a264.09,264.09,0,0,0,90.12.84l.72-1c4-5.76,3.84-11.4-.24-16.92l-16.68,1.8-14.16.72-58.92,3.36c2.88-33.24,4.92-66.48,6.12-100q2.34-64.44,6.6-128.28A1145,1145,0,0,0,430,96.36,295.36,295.36,0,0,0,424.32,149.16Zm-63.84-15c1.92,21.48,4.32,42.84,7.08,64.08l-25.44-1.08c4-13.44,8.16-26.88,12.48-40.32A157.73,157.73,0,0,0,360.48,134.16Zm.12-41a356,356,0,0,0-11.52,46.2c-2.88,15.36-6.48,30.6-10.8,45.6l-3.36,11.28-4.8,1.32v8.16l2,.6a171.15,171.15,0,0,0-16.68,69.36,11.62,11.62,0,0,0,2,7.08h.6l20.76-74.52,30.6,3.84A255.13,255.13,0,0,0,389,287.88c3.6-11.16,3.24-22.68-1.2-34.68a161.3,161.3,0,0,1-8.4-33.72l-1-7.56c2.76-2.28,3.48-5.28,2.4-9l-.24-.84-.36-.72-.48-.84-.36-.6-.72-.72-.72-.6-.84-.48C371,161.76,365.64,127.32,361,95Z" transform="translate(-73.86 -88.2)"/></svg>