<svg id="Layer_1" data-name="Layer 1" xmlns="http://www.w3.org/2000/svg" viewBox="0 0 304 210.72"><defs><style>.cls-1{fill-rule:evenodd;}</style></defs><path class="cls-1" d="M161.28,191.88a464.71,464.71,0,0,0-7.56,80.4q-.54,64.44-3.24,128.16a2.32,2.32,0,0,0,2.16,2.16,2,2,0,0,0,1-1.44,590.56,590.56,0,0,0,6.48-80.28l.24-15.48a143.61,143.61,0,0,0,45.12-3.24l1.08-1.68c-1.08,26-3.36,51.72-7,77.28-1.44,10,.36,17.76,5.52,23.16a284.93,284.93,0,0,0,6.12-45.84q2.88-47.7,4.08-95.88c.48-22,.36-43.32-.48-64.08-5.64,16.32-8.28,34.32-7.8,53.88.36,14.28.24,28.44-.12,42.48l-1-2.16-1-.6-2.52-.48-41.76,5c.36-12.36.84-24.84,1.56-37.2a476.78,476.78,0,0,0-.36-64.2ZM277.8,205.44c-16.92,14.4-27.84,33.12-32.52,56.16a550.62,550.62,0,0,0-8.88,61.08q-4.32,49.14,34.68,75.6,29.52,2.16,48.72-21.36a42.56,42.56,0,0,0,4-13c.6-4.8-.84-7.68-4.56-8.76a59.78,59.78,0,0,1-28.08,24.36,19.43,19.43,0,0,1-15.12.36q-29.88-11-30.36-43.92A252.43,252.43,0,0,1,247,304.32a249.77,249.77,0,0,0,55.2,1.44A13.77,13.77,0,0,0,304,296l-.24-.84a7.29,7.29,0,0,0-2.28-4.08,9.71,9.71,0,0,0-2.64,0A113.48,113.48,0,0,1,265.08,290v.12l-11.76,1-4.8,1a254.46,254.46,0,0,1,13-51A38.32,38.32,0,0,1,279.84,220c22-11.76,39.6-7.56,53.16,12.72l.36-.24c-3.12-22.92-16.8-34.56-41.16-35.16A43,43,0,0,0,277.8,205.44Zm127.08-2.88a67.82,67.82,0,0,0-31.8,32.16,140.12,140.12,0,0,0-11.88,37c-2.64,15.24-4.56,30.48-5.88,45.84a159.75,159.75,0,0,0,2.4,44.76c3.36,17.28,12.84,28.56,28.32,33.84,15.24,5.28,30.24,4.44,45.24-2.64a38,38,0,0,0,13.2-10.32L448,395a178.34,178.34,0,0,0,6-62,59.57,59.57,0,0,0-36.72,10.56l1.08,7.32,29.16-2.4c-2.64,15.36-11.28,25.8-26,31.44a51.35,51.35,0,0,1-24.72,3.48,41.82,41.82,0,0,1-9.6-2.52c-13.2-5-20.64-14.52-22.32-28.56a252.41,252.41,0,0,1,4.56-85.44q8.28-36.54,41-50a42.07,42.07,0,0,1,30.6-.36l5.76,8.52c1.92-2.28,2.28-5.52,1.08-9.48a50.54,50.54,0,0,0-4.08-9c-10.92-6.84-22.8-8.4-35.64-4.8Z" transform="translate(-150.48 -191.88)"/></svg>