<svg id="Layer_1" data-name="Layer 1" xmlns="http://www.w3.org/2000/svg" viewBox="0 0 438.63 418.81"><defs><style>.cls-1{fill-rule:evenodd;}</style></defs><path class="cls-1" d="M181.68,177.24q-.36,46.08-3.36,91.68a801.14,801.14,0,0,0-91.2,4.2c1.32-37.8,4.32-75.36,9.24-112.8a229.72,229.72,0,0,0-.6-64.2c-.6,0-.84.12-.84.36-1.92,14.88-3.6,30-5,45.24Q83.94,206,81.48,270.84l-5,128.28L73.8,463.2c-.6,12.6,1.44,23,6,31.44a2.59,2.59,0,0,0,.72-1.68q2.52-37.44,3.36-75.48l2.76-129,.12-2.64q45.9.54,90.36-.24l-1.8,20.76Q169.56,369.9,169,434.52a415.94,415.94,0,0,0,4.44,64.2c4-2.52,5.88-6.6,5.64-12.24-1.56-43.08-1.32-86,.48-129l3.6-72h2.16a13.63,13.63,0,0,0,0-14.64l-1.32-.48,2.4-41.16c2.76-43.32,3.48-86.16,2.16-128.28A436.07,436.07,0,0,0,181.68,177.24Zm45.12,34.08c-1.92,12.48-3.48,25-4.8,37.32l-3.24,31.44-1.8.24A651.13,651.13,0,0,0,225.72,459a94.54,94.54,0,0,0,25.08,49.08,20.7,20.7,0,0,0,14,6.84A48.76,48.76,0,0,0,285,511a86.22,86.22,0,0,0,10.44-5.64,71.74,71.74,0,0,0,18.84-17.76l2.16-3.12,2.76-4.68,2-4.8,1.32-4.92a45.39,45.39,0,0,0-.6-24.36q-11.34,38.7-49.44,49.56c-7.08,1.92-13.8.72-20.16-3.72a47.64,47.64,0,0,1-19.8-27.72A350.57,350.57,0,0,1,222,404.88a360.14,360.14,0,0,1-1.44-42.6c.6-23.64,1.8-47.16,3.84-70.68a643.21,643.21,0,0,1,82.68-11.52,10,10,0,0,0,1.08-9.72,13.26,13.26,0,0,0-2.64-4.08,322.07,322.07,0,0,0-79.92,12.6q-4.68-86.22,53.28-145.2c11.16-11.4,23.64-13,37.44-4.44l7,4.68,1.68,3c-.84-18.84-11-27.24-30.36-25.32-15.48,1.68-27.48,9-36.24,22a204.63,204.63,0,0,0-20,37.08A183.19,183.19,0,0,0,226.8,211.32Zm253.68-70.44q38.16,44.82,20.28,102.72a23.19,23.19,0,0,1-5.88,10C481.8,266.88,465.6,275.28,446.16,279a17.13,17.13,0,0,0-1.56,6.48,10,10,0,0,0,2.88,8.16,221.43,221.43,0,0,0,33.6-9.72,25.18,25.18,0,0,0,13.8-12c15.72-29.52,20.76-61.2,15.36-95-5.4-33.12-23.88-53.4-55.68-60.84a40.73,40.73,0,0,0-15.48,5.16A15.36,15.36,0,0,0,438,127a6.61,6.61,0,0,0,1.92,4.8l2.16-.84c-1.32,17.52-2,35.52-1.92,53.88q.54,65-4.68,129c-3.36,42.84-4.92,85.8-4.8,129.12A146.44,146.44,0,0,1,428.76,467c-2,12.36-.48,22.92,4.68,31.92A96.53,96.53,0,0,0,438,469.68c.6-29.4,1.32-58.8,2.4-88.32,1.56-42.84,3.36-85.56,5.52-128.4a867.07,867.07,0,0,0-2.4-122.52,33.44,33.44,0,0,1,21.12-.12A34.59,34.59,0,0,1,480.48,140.88ZM369.72,158.76c2,34.2,5,68.28,8.76,102.24l-10.56.36a34.15,34.15,0,0,0-13,.84l-9.72,2.64,20.52-86.64Q368.1,168.48,369.72,158.76Zm-2.52-28.2L338.76,255.48l-2.88,12.36-2,.6a32.38,32.38,0,0,0-.72,4.92,7.92,7.92,0,0,0,.72,3.24H334q-12.06,52-23.52,104c-2.4,10.68-5.28,21-8.64,31.2q-5.94,17.82,1.8,31.32A62.43,62.43,0,0,0,308.76,428q12.78-62.82,27.48-125.28l6.12-25.8q18.54-.9,37.8-.72c1.92,17.88,3.6,35.88,4.92,54q4.86,64.08,11.52,127.68a93.94,93.94,0,0,0,8.16,31.32,2.85,2.85,0,0,0,1.08-1.44,231.37,231.37,0,0,0-1.56-55.32c-2.88-19.2-5.52-38.4-7.8-57.6-4-32.76-7.32-65.52-10.2-98.52l9,.24a7.59,7.59,0,0,0,1.92-4.08,9,9,0,0,0-2.28-8l-1-1-1.68-.6-7.2-1.32-1.2-14.76-5-64.32c-1.44-16.68-3.48-32.76-6-48.24.48-6.36.72-12.6.84-19a33.33,33.33,0,0,0-3.36,5.64l-.24-1.08-.6,3.24A54.53,54.53,0,0,0,367.2,130.56Z" transform="translate(-73.7 -96.12)"/></svg>