<svg id="Layer_1" data-name="Layer 1" xmlns="http://www.w3.org/2000/svg" viewBox="0 0 297.47 210.72"><defs><style>.cls-1{fill-rule:evenodd;}</style></defs><path class="cls-1" d="M288.48,370.08c-2.76,11.88-2.16,22.8,1.56,32.52A298,298,0,0,0,300,325c0-43.56-1.44-86.64-4.32-129a80.27,80.27,0,0,0-4,29.16c1.56,43.32,1.2,86.28-1,129.12A98.78,98.78,0,0,1,288.48,370.08Zm33-153.6c-7.08,6.36-9.6,13.32-7.44,21,17.88-12.6,18.6-25.8,2.28-39.36-3.24,5.4-2,11,3.48,16.68ZM264,196.8c-6.84,34.68-13.8,69.48-21.12,104.64l-13,62.88c-.48,2.52-.84,5-1.08,7.44-5.16-30.84-11.4-61.56-18.84-91.92l-.72-.84-.12-3.24-1.08,2.4c-1.56.12-2.28,1.08-2.16,2.76l.12,2.28A152.52,152.52,0,0,0,196.32,323a141.58,141.58,0,0,1-6.6,29.52A108.6,108.6,0,0,0,185,373.2a391.44,391.44,0,0,0-5.52-53q-10.62-62.82-26.64-124h-.48a252.84,252.84,0,0,0,5.52,50.28,1157,1157,0,0,1,18.6,125.16,112.35,112.35,0,0,0,7,30.72,4.65,4.65,0,0,0,1.56-3.24l.12-3.12.48,3.36a3.65,3.65,0,0,0,1.56-1.44,70.4,70.4,0,0,0,6.12-17.28l11.52-58.32c1.32-6.6,2.28-13.2,3-19.56l1,7.56a483.73,483.73,0,0,0,21.72,91.2l1-.72a27.54,27.54,0,0,0,2.4-5.88,14.74,14.74,0,0,0,4.44-9.72A967.94,967.94,0,0,1,259.2,259.44a215,215,0,0,0,5.4-62.76Zm145-1.68c-2.76,40.44-4.08,81.36-4.08,122.52,0,13.56-.36,27.12-1.08,40.56a198.15,198.15,0,0,0,3.12,47.64,130.67,130.67,0,0,0,4.56-41.16c-.36-13.8-.48-27.6-.12-41.4l.36-23.16a108.18,108.18,0,0,0,30.48.48l-1,56.52a99.92,99.92,0,0,1-1.68,16c-2.28,12.36-1.32,23.16,3.12,32.52.48-.24.72-.48.72-.84,2.52-26.4,4.2-52.92,4.8-79.56l.48-27.24c1.56-3.48,1.56-6.24.12-8.52.12-31.08-.36-61.8-1.56-92.4A115.24,115.24,0,0,0,442.8,229l-.48,58-30.48,1.56c.12-31.32-.72-62.52-2.52-93.36Zm-38.88,3.48-2.16-.24q-30.24,29.34-9.48,73.8,14.58,31.32,26.64,64.08a25.19,25.19,0,0,1,1.56,8.88,32.15,32.15,0,0,1-6.24,18.72q-17.82,24.48-42.48,8.64c-10.2-6.6-15-16.68-14.28-30a28.66,28.66,0,0,0-4.44-17q-13.86,35.1,12.12,64c6.12,6.84,13.56,9.72,22.2,8.64a56.13,56.13,0,0,0,10.32-2c8.16-2.52,13.8-7.44,17-15q17.82-43-2.88-86.16-17.64-36.9-15.12-75.36c.24-4,2.64-6.24,7.2-6.6l4.68-.24,15.12,27.6c3-12.6,0-24.24-9.12-34.92A13.54,13.54,0,0,0,370.08,198.6Z" transform="translate(-152.4 -195.12)"/></svg>