<svg id="Layer_1" data-name="Layer 1" xmlns="http://www.w3.org/2000/svg" viewBox="0 0 309.6 207.93"><defs><style>.cls-1{fill-rule:evenodd;}</style></defs><path class="cls-1" d="M160.68,228c-1.32-12-4.32-22.2-9.12-30.48a160,160,0,0,0,2.88,43.92q13,62.82,19.92,125.88c1.32,11.88,4.44,22.2,9.6,31l.84-1q12.6-45.9,20.88-92.4l.12.84a628.51,628.51,0,0,0,16.56,95.76,2.41,2.41,0,0,0,1.32-1.08,209,209,0,0,0,16.08-62.16,497.94,497.94,0,0,1,14.64-78.36A179.31,179.31,0,0,0,260.28,197a349.94,349.94,0,0,0-14.52,57.48Q235.5,316.8,224,379.08a715.23,715.23,0,0,1-11.52-87.48c-.84-10.68-2.88-20-6.36-28.32l-.6.84q-8.46,54.54-22.08,107.4-6.3-39.78-13.68-79.92Q164,260.1,160.68,228Zm198.48,34.8a315.41,315.41,0,0,0-3.6-64.2c-4,3.48-5.76,8.28-5.64,14.64q1.26,52.74,2,105.48c.36,24.84-7.2,46.2-22.44,64.08-11.28,5-22.2,4.2-32.88-2.64a12.21,12.21,0,0,1-3.72-3.72c-9.84-16.08-13.92-34-12.36-53.76a1092.21,1092.21,0,0,0,3.24-128.16q-4.86,39.42-7.56,81.6a472,472,0,0,0,3.24,95.76,27.9,27.9,0,0,0,6.6,15.12c13.32,15.24,28.8,19.08,46.44,11.28,15.36-16.44,23.4-36.12,24-59.28Q357.6,301,359.16,262.8ZM395,304.44q6.66,31,10.2,62.4c1.32,11.88,4.8,22.2,10.32,30.84A101.21,101.21,0,0,0,428,365.76Q441.54,303.3,457,241.68a122.52,122.52,0,0,0,2.52-47.4,355.8,355.8,0,0,0-15.84,57q-12.06,62.46-27.48,124c-4.92-27.48-10.2-54.84-15.84-82.32Q393.66,261.24,388,229.8c-2.28-12.36-6.6-22.2-12.72-29.52a101.62,101.62,0,0,0,2.64,26Q386.7,265.38,395,304.44Z" transform="translate(-151.13 -194.28)"/></svg>