<svg id="Layer_1" data-name="Layer 1" xmlns="http://www.w3.org/2000/svg" viewBox="0 0 395.16 337.08"><defs><style>.cls-1{fill-rule:evenodd;}</style></defs><path class="cls-1" d="M259.2,160q.54,41.58-1,83.52-2.52,64.62-6.84,129c-.72,10,1.2,17.76,5.88,23.4q5.22-58.86,8.16-118.56a1013.21,1013.21,0,0,0-1.92-128.16Q259,152.58,259.2,160Zm-25-41.16a275.29,275.29,0,0,0-15.84,63.36c-5.64,42.36-11,84.84-16,127.44q-6.3,53.82-10.8,107.28L182.76,364q-11-63.54-27.72-124.8v-4.8A126.59,126.59,0,0,0,145,266.16Q132.9,329,119.88,391.32a178.36,178.36,0,0,1-6,22.2,371.93,371.93,0,0,1-6.6-50.28q-4-64.08-11.64-127.68C90.48,193,84.48,151.08,77.4,109.92c-.6,0-.84.12-.84.24a294.21,294.21,0,0,0,1.92,51.24q8.1,63.54,15.36,127.44,7.38,63,11.88,126.48a80.1,80.1,0,0,0,3,16.92,15.8,15.8,0,0,0,5,12.48l.6,1.2a27.88,27.88,0,0,0,2.28-6.48,95.12,95.12,0,0,0,5.16-17.52q12.78-62.46,26.28-124.8a283.35,283.35,0,0,0,6.48-46.2A323,323,0,0,1,162.72,290q8.82,63.36,20.4,126.12a48.71,48.71,0,0,1,1,8.16c.48,10,3.36,17.16,8.76,21.84a15.12,15.12,0,0,0,1.92-10.44,249.16,249.16,0,0,0,6.72-38.4l4-41.28c4-42.36,8.28-84.6,13.2-126.84a440.79,440.79,0,0,1,7.92-46.68A303.76,303.76,0,0,0,234.24,118.8ZM433,143c13.92-7.08,26.76-6.6,38.4,1.68V144c-1.08-13.92-9.12-20.4-24.36-19.56a116.2,116.2,0,0,0-30.36,13.08,89.53,89.53,0,0,0-15.36,25.56A347.27,347.27,0,0,0,378,263.16a887.19,887.19,0,0,0-1.2,127.56A80.18,80.18,0,0,0,389,429.24c12.84,20.52,28.08,23.28,46,8.16a187.39,187.39,0,0,1,15.6-12.12C465,415.08,469.8,403,464.88,389l-1.56.12-2,.72-.48.24-.72-.24-.72-.36q-.36.36,0,1.08l.6,1a324,324,0,0,1-23.28,27.72q-13.5,14.22-30.6,6.84a25.94,25.94,0,0,1-15.6-18.24A332.27,332.27,0,0,1,381.12,314c.36-8.76,1-17.52,1.68-26.28l.84,1c19.08-.6,38.28-1.92,57.6-4.08l.72-.84c2.76-5.16,2.4-10.08-1-14.52a344,344,0,0,0-57.12,6.84A683.14,683.14,0,0,1,398,188.76Q405.24,157.26,433,143Zm-75.84-31q-28.26,2.34-56.52,7.2l-.48,1.08L300,118a289,289,0,0,0-6.12,55.2q-1.08,64.26-3.36,128.28-2.34,64.8-8.4,128.88c-.72,7.56,1.32,12.48,6,14.76a668.72,668.72,0,0,0,6.12-69.72L299,255a116,116,0,0,0,53.28,7.44,10,10,0,0,0,2.64-7.32l.12-.72-.12-2.52a13,13,0,0,0-1.92-4.8l-.72-.48a238.28,238.28,0,0,1-50.88-4.44l-1.8.24c1.44-37.32,1.68-74.4.84-111l1,1a546.49,546.49,0,0,1,69.24-2.76,18.14,18.14,0,0,0,1.56-9.72,17.26,17.26,0,0,0-1.8-4.92l-1.68-.84A18.49,18.49,0,0,0,357.12,112.08Z" transform="translate(-76.2 -109.92)"/></svg>