<svg id="Layer_1" data-name="Layer 1" xmlns="http://www.w3.org/2000/svg" viewBox="0 0 401.78 414"><defs><style>.cls-1{fill-rule:evenodd;}</style></defs><path class="cls-1" d="M236.16,98.28a268.53,268.53,0,0,0-14.76,62.28l-7.56,63.24q-7.38,63.54-11.4,127.68c-1.32,21.24-3.24,42.24-5.88,63.12a225.55,225.55,0,0,0-1.92,32.16Q188.88,401,182.4,355.08q-8.82-63.54-18.72-126.48l-1.08.72v-1.2a15.65,15.65,0,0,0-5,10,719.84,719.84,0,0,1-15.72,79.08q-13.68,52.92-24.72,106.2-1.8-41.58-6.6-83.16l-15-127.44Q87.78,149,82.8,85.2c-3,2.64-4.56,6.48-4.44,11.64a791.78,791.78,0,0,0,6.72,89.52l16.44,126.36a884,884,0,0,1,7,127.44c-.24,12.6,2.16,23.28,7.32,32a5.39,5.39,0,0,0,2.4-4.68v-4.44l.6.36,9.12-47.64q12.06-62.64,27.24-125a252,252,0,0,0,6.6-39.36q2.52,40.5,8.64,80.88,9.54,63.18,16.68,126.48c1.08,9.6,4.08,17,8.76,22.32a10.24,10.24,0,0,0,1.56-3c2.64-.6,4.08-2.52,4.2-5.64q2.7-44.28,4.92-88.56,3.24-64.26,10.68-127.56T235,130.08A124.64,124.64,0,0,0,236.16,98.28Zm40,0a601.19,601.19,0,0,0-9.48,101.4c-.48,43.08-1.56,86-3.12,129.12s-4,86.16-7.44,129c-1,12.24.84,22.8,5.28,31.68a32,32,0,0,0,3.84-17.88,410,410,0,0,1-.12-52.92q4.14-63.18,6.84-126.48l1.32,1.68c19.32.12,39,.48,59,1.32-.72,14.16-1.56,28.32-2.64,42.48-3.24,42.6-5.88,85.32-8.16,128.16-.48,10.2,1.8,18.12,7,23.64q4.14-34.38,5-70.68,1.62-61.74,4.68-123.36h1.44l1.08-.84.72-.72a12.19,12.19,0,0,0,1.2-8.16l-.12-.72-.6-1.68-.84-1.56-1.8-1.68H339q3.06-59.4,6.72-118.44c1.44-22.08,1.8-43.44,1.08-64.2-.84-.12-1.32.12-1.44.84a723.14,723.14,0,0,0-10.2,111.12Q334.62,244.86,333,280l-23.16-1.44-27.36-1.68-2.16.36-.48.12a15.54,15.54,0,0,1-4.92,1.92l-1,.36-1.56,1,4.56-119q1.26-32.94.36-64.08C276.6,97.32,276.24,97.56,276.12,98.28Zm114.36,63.36q17.64,53.1,32.28,107.28a86.84,86.84,0,0,0,9.12,22.2l-1.92,7.2q-17.46,62.1-31.2,124.8-7,32.4-15.12,60.12a24.28,24.28,0,0,0,5.4,16,112.57,112.57,0,0,0,7.44-25.08q11.16-62.82,28.68-124.44,8.82-30.78,16.56-61.8L473,164.28a222,222,0,0,0,7-62.76q-11,34.92-19.44,73.56c-7.56,34.68-15.84,69-25.08,103.08a382.56,382.56,0,0,0-17.4-57.72A1053.16,1053.16,0,0,1,379.32,98.76c-3.72,9.24-3.48,19.68.6,31.44Z" transform="translate(-78.35 -85.2)"/></svg>