<svg id="Layer_1" data-name="Layer 1" xmlns="http://www.w3.org/2000/svg" viewBox="0 0 301.03 212.46"><defs><style>.cls-1{fill-rule:evenodd;}</style></defs><path class="cls-1" d="M323,400.56a522.77,522.77,0,0,0,5.64-76.92c-.12-43.08-1.32-85.92-3.72-128.28a622.28,622.28,0,0,0-3.48,77.16c.36,21.48,0,43.08-1.2,64.8a355.61,355.61,0,0,0,1.68,64.2A1.75,1.75,0,0,0,323,400.56ZM154,193.2c-.72-.12-1.08.12-1,.72q4.86,40.86,12.6,82.2Q176.94,337.86,185,400.2l.48.72,1.68,1.44L188,402l2.76.12q8.28-41.4,14.16-82.8a133.23,133.23,0,0,1,4.56-20.76q6.48,36.36,10.2,73.08c1.2,12.12,4.32,22.2,9.48,30.48a8.6,8.6,0,0,0,1.56-5.64l-.36-2.64a16.51,16.51,0,0,0,2.52-13.44l.48-1.56q9.54-63.36,24.12-125.52a286.3,286.3,0,0,0,7.92-62.76,152.15,152.15,0,0,0-10.56,31.8q-13.5,62.1-23.76,125.28a100.15,100.15,0,0,1-3.84,15.72l-.36,1.2q-5.22-40.5-12.84-80.28c1.08-6.12.48-11.64-1.92-16.44a19.32,19.32,0,0,0-4.32,8.4,665.25,665.25,0,0,0-19.32,109.2c-1.32-22.32-3.84-44.52-7.32-66.6q-10.26-62.64-25.32-124L155,194ZM419,292.32c13.56,6.12,22.92,16.68,28,31.8,5.28,15.84,2.88,29.88-7.08,42.12q-14,17.1-37.08,18.72a53.54,53.54,0,0,1-19.56-1.08A624.12,624.12,0,0,0,389,299.16C400.2,302,410.16,299.76,419,292.32Zm6.48-23.4c-8.76,13.44-20.88,18.48-36.36,15l-1-76.56c15.84-.6,28.2,5.88,37.08,19.56C434.4,241.2,434.52,255.12,425.52,268.92ZM386.76,196.2l-.12-2.76-.36,3.24-1.44,1.44-.84,41a346.06,346.06,0,0,1-4.2,46.44,16.27,16.27,0,0,0,1.68,10.68A799.75,799.75,0,0,1,377,390.12a33.25,33.25,0,0,0,.48,10.44l.24.48,2.64.24.36-1.8a45,45,0,0,0,23.88,3.12,80.75,80.75,0,0,0,19-5.16,65.63,65.63,0,0,0,20.88-13.92,11.31,11.31,0,0,0,2.4-3.48q13.5-33.66,1.44-68.16a53.3,53.3,0,0,0-21.24-27.6,48.09,48.09,0,0,0,10.68-24.48,60.42,60.42,0,0,0-.12-17.4A68.46,68.46,0,0,0,432,223.92l-2.16-3.84c-9.24-14.88-22.56-23.52-40.2-25.8Z" transform="translate(-152.98 -190.56)"/></svg>