<svg id="Layer_1" data-name="Layer 1" xmlns="http://www.w3.org/2000/svg" viewBox="0 0 303.33 210.24"><defs><style>.cls-1{fill-rule:evenodd;}</style></defs><path class="cls-1" d="M311.64,380.16q-.9-27.54.72-57.6a1006.26,1006.26,0,0,0-1.44-129.12c-2.64,6.48-3.84,14-3.72,22.56q1.62,64.8-2,129c-.6,10.8-1.68,21.48-3.24,32.16-1.44,10.2.6,18,6.24,23.52a32.84,32.84,0,0,0,5.16-21.84l-.12-.48C312.48,378.48,312,379.08,311.64,380.16ZM194.28,366.24a365.68,365.68,0,0,0-7.92-48.12Q172.32,256,155,194.88c-2.76,10.68-2.16,22.44,1.56,35.28a1067.9,1067.9,0,0,1,28.56,123.72,151.16,151.16,0,0,1,1.92,16.32c.72,11.52,3.48,21.48,8.28,30a2.59,2.59,0,0,0,.72-1.68v-.72a7.37,7.37,0,0,0,2.64-4.32q12.06-62.82,20.16-125A217.4,217.4,0,0,0,202,329.16,257.33,257.33,0,0,1,194.28,366.24Zm24.6-95.88c7.56,34.44,14.64,68.88,21.48,103.56a78.1,78.1,0,0,0,12.36,29.76,4,4,0,0,0,1-1.68l1.2-5.16A21.22,21.22,0,0,0,259.8,385q7.38-63.36,20.76-125.64A240.23,240.23,0,0,0,286,195.6a419.8,419.8,0,0,0-10.56,44.64L252.24,365.88a63.55,63.55,0,0,0-1.2,13.2,598.64,598.64,0,0,0-31.32-110.4C219,268.92,218.76,269.52,218.88,270.36ZM331.2,200.52l-1.68,7.8,6,6.48a36.73,36.73,0,0,0-3.84,24.36c11.4-12.24,12.12-25.08,2.16-38.4ZM451.68,352.68l-.72-1.56.84-.24ZM383.52,204.24a167.56,167.56,0,0,0-29.76,78.48l-3.24,29.64Q346.2,355,370.44,389c7.32,10.44,17.4,14.52,30,12.48,22.68-3.72,39-15,48.72-33.84l-2.64,9.84c-3,9.24-2.28,17.16,2,23.76a7.9,7.9,0,0,0,2.4-4.08,167.33,167.33,0,0,0,4.92-59.28l-.84-.48-4.8-.6a92,92,0,0,0-27.36,7.08,11.37,11.37,0,0,0-.6,4.92l.6,2.4a132.2,132.2,0,0,0,23.76.36c-4.2,11.64-12,20.28-23.16,26.16A56.17,56.17,0,0,1,390.36,384a21.9,21.9,0,0,1-17.76-11.64q-20.34-36-15.84-79.68a158.75,158.75,0,0,1,34-83.52q29-8.82,47.4,14a143.61,143.61,0,0,1,14.28,20.64,11.79,11.79,0,0,0,.6-7.32q-9.9-43.74-56.88-42.48A27.48,27.48,0,0,0,383.52,204.24Z" transform="translate(-153.32 -193.44)"/></svg>