<svg id="Layer_1" data-name="Layer 1" xmlns="http://www.w3.org/2000/svg" viewBox="0 0 507.86 377.16"><defs><style>.cls-1{fill-rule:evenodd;}</style></defs><path class="cls-1" d="M313,155.4C309,145,301.44,139.68,290,139.68c-20.76,5-35.52,17.16-44.52,36.48a287.05,287.05,0,0,0-26.4,108.12c-1.8,37.56,11.4,68.52,39.36,92.88a20.35,20.35,0,0,0,9.36,4.68c17,3.36,31-2.76,41.76-18.48a160.54,160.54,0,0,0,22.8-48.84A288.1,288.1,0,0,0,342.48,237q-.36-46.62-29.4-80.88ZM253.2,179.64a58.56,58.56,0,0,1,36.72-24.72c8.76-1.8,15.12,1.32,19.32,9.6A240.58,240.58,0,0,1,331.92,244q4.86,44.64-14.88,84.48a85.7,85.7,0,0,1-14,20.4,110.17,110.17,0,0,1-21.84,18.36c-19.32-2.52-33.36-13-42.36-31.08-15-30.36-17.88-62.4-8.52-95.88a339.77,339.77,0,0,1,20.16-54.72ZM236.4,70.8l-1.08-2.88A660.83,660.83,0,0,0,202,223.44c-1.56,15.84-3.24,31.8-5.16,47.76l-4.08,31.44-6.84,47.16-4.8,31.32L180,389.64l-.84,8.52q-22-94.68-38.52-190.56l-3.48-2.28a1243.7,1243.7,0,0,0-30.6,136.32l-6.84,41C98.64,388.8,97.8,395,97.08,401.4l-1,9.24a2531.18,2531.18,0,0,0-46-344q9.18,127.8,30,255.12,3.78,23.58,5.4,47.16l2,31.8,1,19.44.48,3.36a34.78,34.78,0,0,0,1.68,5.76,20.58,20.58,0,0,0,2.52,5.16l3.12,4.44q24.3-106.74,41-216a1854.07,1854.07,0,0,0,45.24,218.4q12.78-103.32,27.24-207.6c4.44-31.56,9.12-63,14.28-94.56,1.92-11.88,4.08-23.64,6.36-35.4l2-7.56,1.56-3.84A28.6,28.6,0,0,0,236.4,70.8Zm181,89c4.8,6.36,9.84,12.72,15,19.08a82.19,82.19,0,0,1,17,36.6q13.5,70-25.2,127.08Q407.1,368,377.76,368.28a16.79,16.79,0,0,1-5-6.6q-17.82-41.4-12.12-88.2c2.64-21.48,5-42.84,7.32-64.2,2.76-25.44,14.76-44,35.76-55.8,4.2-1.56,7.8-1,10.8,1.56A39.09,39.09,0,0,0,417.36,159.84Zm-13.68-20.52c-13.08,4.2-22.2,13-27.36,26.4A347.7,347.7,0,0,0,354,276l-1.68,31.56q-3.06,45.54,23.76,78.84c13.08,1.56,24.6-1.8,34.32-10.08a12.4,12.4,0,0,1,3-4.08,117.34,117.34,0,0,0,34.68-53.88Q467.34,255.9,451.92,192c-5.4-22.68-18.48-40-39-52.08l-1.68-.36Zm75.84-66.6q-4,45-4.92,91c-.84,42.84-2.76,85.68-5.64,128.28q-4.32,64.8-13.92,128.88c-1.56,10.68.48,18.24,6.24,22.92a18.53,18.53,0,0,0,2-4.08A26.76,26.76,0,0,0,475.68,443a676.91,676.91,0,0,0,79.8-2,13.18,13.18,0,0,0,2.28-5.52q1.26-7-3.6-11.52l-5.4.12-4.32-.6a273.63,273.63,0,0,1-79.68,4.08q5.94-58.68,10.08-117.72c3-42.6,5.16-85.44,6.48-128.28.72-21.6,1.68-43.2,3-64.8a264.59,264.59,0,0,0-1.08-48C481.08,68.88,479.88,70.2,479.52,72.72Z" transform="translate(-50.16 -66.6)"/></svg>