<svg id="Layer_1" data-name="Layer 1" xmlns="http://www.w3.org/2000/svg" viewBox="0 0 297.09 215.57"><defs><style>.cls-1{fill-rule:evenodd;}</style></defs><path class="cls-1" d="M154.44,194.52a557.59,557.59,0,0,0,5.76,105.72,457.74,457.74,0,0,1,4.92,64c.12,12.12,2.28,22.32,6.72,30.6q13.14-49,21.6-99.6c2.28,13.08,4.08,26.28,5.52,39.72s2.64,26.64,3.72,40c.84,10.32,3.6,19,8.4,26a56.94,56.94,0,0,0,8.52-22.56q10.8-64.26,24.24-127.56,3.42-16.2,7.56-32c2.64-10,1.32-17.76-4.08-23.16-4.44,16.8-8.4,34.08-11.64,51.72l-23.52,126.6a621,621,0,0,1-10.08-89.64q-.72-17.64-8.28-28.8L172.68,361.2c-1.08-13.44-2.28-26.88-3.72-40.32q-6.48-63.54-13.68-126.6C154.8,194.4,154.56,194.4,154.44,194.52Zm197.88-5.64c-3.24,1.8-4.8,4.92-4.44,9.48a915.32,915.32,0,0,1,0,128.28q-2.52,34.74-28.68,56.52c-7.68,6.36-16.32,7.8-25.8,4.08-13.2-5.16-20.4-15.24-21.48-30A663.45,663.45,0,0,1,274.68,229c1.44-12.12-.24-22.68-4.92-31.44-.84,15.6-1.92,31.56-3.48,47.88A603,603,0,0,0,268,373.68c1.8,14.16,9.24,23.52,22.32,28.2q26.46,9.18,42.24-14.4c14.16-21,22-44.52,23.52-70.32A724.89,724.89,0,0,0,352.32,188.88ZM409.8,285.6c16.2,5.88,27.12,17.52,32.52,34.8,4.56,14.52,3.6,28.44-2.88,41.88-4.68,9.84-12.6,16.44-23.52,19.8a65.35,65.35,0,0,1-39.24.12,547.68,547.68,0,0,0,5.88-89.76,40.05,40.05,0,0,0,25.08-5.64Zm20.88-44.88q-8.82,37.08-48.24,38c-.12-24.24-1.08-48.36-2.64-72.24,24.36-1.56,41,8.16,50.28,29.16A7.58,7.58,0,0,1,430.68,240.72ZM394,196.56a26.41,26.41,0,0,0-14.4,1.8l-.12.84-.12.24-.24-3.84h-.36q-3.42,53.46-3.6,108A428.8,428.8,0,0,1,370,368.28c-1.8,11.88-.72,22.68,3.36,32.4l.6-2.64.84,1.08q27,9.54,52.68-.84a27.83,27.83,0,0,0,16.32-17.16,133,133,0,0,0,6.12-61.44c-2.64-21-12.48-34.8-29.64-41.52,17.64-15,21.6-34.68,11.88-59.28l-.72-.84q-13.5-20-37.44-21.6Z" transform="translate(-153.98 -188.88)"/></svg>