<svg id="Layer_1" data-name="Layer 1" xmlns="http://www.w3.org/2000/svg" viewBox="0 0 305.22 211.56"><defs><style>.cls-1{fill-rule:evenodd;}</style></defs><path class="cls-1" d="M307.08,325.32A1013.12,1013.12,0,0,0,304.32,197a359.67,359.67,0,0,0-2.76,44c0,43.08-1.2,86.16-3.72,129-.6,12.48,1,22.92,4.92,31.44Q305.46,363.9,307.08,325.32ZM163.92,244.56C171,286.2,176,328.32,179.28,370.8c.84,12,3.48,22.2,7.68,30.48a5.22,5.22,0,0,0,1.44-4.08v-.12l.48,1.2a96,96,0,0,0,6.12-23.4c3.48-23.64,7.92-47,13.32-70.44l1.8-8.88c1.44,15.48,3,31.08,4.8,46.8a321.12,321.12,0,0,0,12.84,61.56l.72-.84c2.64-4.8,3.6-9.48,2.88-13.92a12.76,12.76,0,0,0,1.08-4.2,1019.29,1019.29,0,0,1,22-125.64,231,231,0,0,0,6.72-62.88c-8.64,34-16.44,68.64-23.52,104.28L225.48,359.4q-6.3-38.34-14-76.68c.12-3.48,0-6.84-.12-10.2l-1.44,3.12-.72-3.36c-.84-.12-1.2.24-1.08,1l.48,5.52A185.69,185.69,0,0,0,195,330.84a206.13,206.13,0,0,1-7.2,36.24l-1.08,4.68q-3.78-49-11.4-97.32A398,398,0,0,0,155,196.68c-2.28,7.08-1.68,15,1.8,23.64A112.47,112.47,0,0,1,163.92,244.56Zm265.2,154.2,20.52-1.08c6.6-6.84,9.6-15.24,9.24-25.2-1.2-24.6-2.88-48.84-4.92-73-3.6,12-4.56,25.44-3,40.32a120.11,120.11,0,0,1-2.64,42.24l-18.6-.36c-.6-4.92-2.52-7.56-5.76-8C420.12,383.16,421.8,391.44,429.12,398.76Zm23.16-130.92.36.84,2.28,1.32a43,43,0,0,0,.12-29.76A47.6,47.6,0,0,0,452.28,267.84Zm-101-68.64-1.68,8.52L399.24,206a110.54,110.54,0,0,0-1.44,12.84q-2.34,41.22-2.88,82.68c-.12,4-.24,7.92-.6,11.88a549.66,549.66,0,0,0-2.52,56.4,126,126,0,0,0,3.72,31.68h.12l.36-1.2q6.66-74.52,6.36-149l-.24-15.12L401,205.92,453.72,204l-.36-10.08L421,192.36Z" transform="translate(-153.69 -192.36)"/></svg>