<svg id="Layer_1" data-name="Layer 1" xmlns="http://www.w3.org/2000/svg" viewBox="0 0 422.23 393.42"><defs><style>.cls-1{fill-rule:evenodd;}</style></defs><path class="cls-1" d="M70.92,89.28A1071.75,1071.75,0,0,1,89,215.88q5.4,63.72,12.84,127.32,4.86,42.48,13.32,84.48A50.07,50.07,0,0,1,113,456.24a99.35,99.35,0,0,1-7.8-30.72c-2.28-21.48-4.8-43-7.8-64.44q-8.46-63.36-14-127.2c-3.6-42.36-8.64-84.6-15.24-126.48a35.06,35.06,0,0,1,1.56-17.64A1,1,0,0,1,70.92,89.28Zm129.72,75.48q-6.84,63.72-9.6,128c-1.8,42.84-4.56,85.68-8.52,128.28a251.51,251.51,0,0,1-7.8,43.8,47.18,47.18,0,0,1-2.76-6.24c-4.32-4.68-6.84-11.52-7.68-20.4q-5.58-63.9-17.52-126.72a365,365,0,0,1-6.84-71.4q-4.14,49.86-8.76,100.56c-3.48,37.08-7.32,73.8-11.28,110.4-1.8.48-2.88-.24-3.36-2.16,1.08-42.36,3.84-84.72,8-126.84,3.6-36.12,8.88-71.64,16-106.8l.36-.84v-.36l.12.36a1.36,1.36,0,0,1,1-.36l-.36,5.64q6.84,60.3,17.88,120.84c5.64,30.72,9.72,61.56,12.48,92.4v-.12A115.33,115.33,0,0,0,175,417c4.44-42.6,7.8-85.32,9.84-128.28s4.56-85.68,7.56-128.28a281.85,281.85,0,0,1,10.56-60A447.62,447.62,0,0,1,200.64,164.76ZM256.8,97.44a1036.32,1036.32,0,0,1,3.84,128.28l-3.6,129a1062,1062,0,0,1-9,114.36,2.37,2.37,0,0,1-.72,1.68c-4.8-9-6-19.56-3.48-31.92A98.52,98.52,0,0,0,245.76,423q3.42-64.44,5.16-129.12,2-64.26,2.52-128.28C253.68,141.72,254.76,119,256.8,97.44ZM378.72,263.52q15.3-65.52-15-125.28c-4.92-9.6-12.72-15.12-23.64-16.68-12.24-1.8-20.16-7.2-23.64-16.2q4,62.46,2.4,125.76l-1.68,69.24a88.42,88.42,0,0,0,53.4-22.92A27,27,0,0,0,378.72,263.52Zm10.2-66.6a294.23,294.23,0,0,1,1.68,39.84,106,106,0,0,1-10.08,43.08,64.5,64.5,0,0,1-63.6,37.08q.36,40.5-2,80.76t-7.56,80.16a36,36,0,0,1-4.2-17.16q-.18-62.82,3.24-125.64,5.58-99.18,7.44-198.6a363.7,363.7,0,0,1,2.64-37.92,107.55,107.55,0,0,1,25.68,7.8A50.91,50.91,0,0,1,361.2,121Q387.3,153.54,388.92,196.92Zm28.92-38.16a343.72,343.72,0,0,0-26.64,119.4l-4.56,95.76q-2.7,49.32,19.44,92.16c9.36,17.88,22.8,21.36,40.2,10.2a182.15,182.15,0,0,0,32.64-26.64q15.66-16,8.64-33.48a3.3,3.3,0,0,0-3.48,1.92,102,102,0,0,1-50.28,46.8,8.25,8.25,0,0,1-7.68-.24q-25.2-14-28.2-44.4a658.25,658.25,0,0,1-3.12-88.44l1.08-24.36A211.88,211.88,0,0,0,457,308.76l.84-1a13.28,13.28,0,0,0-.48-14.52l-60.84,3.36c1.92-29.4,5.16-58.68,9.84-87.6q8.82-56,58-86.76c5.76-2,11.16-1.92,16.2.6a20.8,20.8,0,0,1,4.8,8.88,16.79,16.79,0,0,0,4.2,7.92l.12-.84c1.92-17.52-5-27.48-21-30a99.57,99.57,0,0,0-32.4,22.44A86.26,86.26,0,0,0,417.84,158.76Z" transform="translate(-67.68 -89.25)"/></svg>