<svg id="Layer_1" data-name="Layer 1" xmlns="http://www.w3.org/2000/svg" viewBox="0 0 549.15 480.24"><defs><style>.cls-1{fill-rule:evenodd;}</style></defs><path class="cls-1" d="M27.48,91q3.42,64.44,8.28,128.28l9.6,125.88q4.86,63.36,9,126.6c.84,11.88,3.12,22.08,7.08,30.48A1087.68,1087.68,0,0,0,76.2,379.68Q80,316.86,86.28,254c2.52,37.56,5.28,74.88,8.52,112.08q5.4,63.54,11.52,126.72c1.2,12.12,4.2,22.2,9.12,30.48,5.76-39.24,10-78.72,12.48-118.68a899.44,899.44,0,0,1,11-95.4q10.62-63.18,18.36-126.84a556.39,556.39,0,0,1,11.28-62.88,199.15,199.15,0,0,0,5-63.72,276.18,276.18,0,0,0-12.36,52.56q-9,63.9-19.56,127.44-10.44,63-14.76,126.84-4.32,63.54-13.08,124.92c-1.32-9.12-2.4-18.36-3.36-27.6q-6.3-63.18-11-126.72C96.48,290.88,91.92,249,86,207.6c-.72.24-1.08.48-1.08.84l-6.48,68.88c-1.8,21.24-3.48,42.36-4.92,63.48-3,42.12-7.32,83.64-13,124.8-2.28-20.64-4-41.4-5-62.4-1.2-20.76-2.76-41.64-4.56-62.4C47.16,298.92,43.56,257,40.32,214.92S35,130.68,34.08,88.2a109.53,109.53,0,0,0-4.56-30.6A140.24,140.24,0,0,0,27.48,91Zm174.6-4.68q-.72,46.62-2.88,93.24c-2,42.84-3.12,85.92-3,129.24q.18,64.26-1.8,128.16c-.48,16.2-1.32,32.4-2.4,48.6-.84,12.24.6,22.8,4.44,31.8a3.18,3.18,0,0,0,1.44-2.4,686,686,0,0,0,4-70.68c.36-42.84.48-85.92.36-129V287.52c17.4-.6,35.16-.84,53-.72l-1.32,53c-1.32,43.08-2.88,86-4.68,129.12-.36,10.8-1.08,21.6-2.16,32.28-1.08,10.44,1.08,18.12,6.48,22.92,2.16-26.52,3.6-53.4,4.32-80.4,1.08-42.6,1.92-85.44,2.4-128.28.6-43.08.84-86.16,1-129q0-65.34,1-128.28a60.42,60.42,0,0,0-4.8,23.52c-1.08,43-1.68,86-1.56,129.12.12,21.6,0,43.2-.36,64.92l-37.92-1.08q-5.4,1.62-11.52,2.88l-3.72.6c.36-30.84,1.2-61.44,2.64-92q3.06-65,1-129A116.6,116.6,0,0,0,202.08,86.28ZM361,91.2c3.72,4,6.72,10.68,8.88,19.92a792.06,792.06,0,0,1,18.84,128,672.84,672.84,0,0,1-4.2,129.12,457.18,457.18,0,0,1-35,125.88q-11.52,26.28-38.52,20.16a17.25,17.25,0,0,1-4.8-7.56,465,465,0,0,1-16.2-106.56c-1.56-43.08-2.52-86.16-3.12-129a990.62,990.62,0,0,1,6.48-128.4Q299,94.38,342,77.16a48.6,48.6,0,0,1,6,1.44,19.67,19.67,0,0,1,10.44,8l1,2a7.91,7.91,0,0,1,1,3ZM351.6,70.56l-4-3.12-3.72-1.2a9.33,9.33,0,0,0-5.16-.48Q296.64,86.1,289.44,134.4a788.64,788.64,0,0,0-8.28,112.08q0,64.62,2,129.12a1233.3,1233.3,0,0,0,10.56,126.6c1.44,10.44,6.36,18.6,14.64,24.48,12.36,8.76,23.16,7.2,32.28-4.44a188.2,188.2,0,0,0,33-66.12A641.33,641.33,0,0,0,395,329.28,726.71,726.71,0,0,0,392.64,201l-4.8-48q-4.32-46.62-29.4-83.76l-1.44,1-.36.72-.84,2.16C354.24,72.24,352.92,71.4,351.6,70.56Zm168.72,8.76a197.44,197.44,0,0,0-6.24,56.52q1.62,64.08,3.84,128.16,2,65-1.56,129.24L509,521.4c-.48,7.56,1.68,12.36,6.36,14.64,3.72-36.12,5.76-72.6,6.24-109.68l1.68-95.64.24-20.52,1,.48,2.52,1.08c28.68-10.68,44.4-31.92,47.4-63.72a408.47,408.47,0,0,0-7.56-128q-8.82-40.5-47.4-48.24a3.71,3.71,0,0,0-1.08,1.44,9,9,0,0,0-.48,3.12,4.33,4.33,0,0,0,.48,2.4Zm-54.84,8.4a76.68,76.68,0,0,1,8,21.12q14,63.36,22.56,127.68a630.44,630.44,0,0,1,4,129.36,336.26,336.26,0,0,1-34.8,127.32c-7.92,15.84-20.16,22.92-36.6,21.12A178.46,178.46,0,0,1,413,436.44c.36-21.48.6-43,.6-64.2.12-43-.84-85.92-2.64-128.88a545.94,545.94,0,0,1,9.72-128.52Q427,82.26,457.8,76.56A91.77,91.77,0,0,1,465.48,87.72ZM454,70.32q-20.34.9-28.44,22a269,269,0,0,0-18.24,95.52q-.36,64.62,1.32,129.12a774.63,774.63,0,0,1-2.28,80.16Q400.74,463,421.44,523.92a8.35,8.35,0,0,0,7.8,6.12c17.88,1.68,31.08-6,39.84-23.16A343.82,343.82,0,0,0,504.84,384.6a484.76,484.76,0,0,0,2-63.36Q504.72,257.16,497,193.8c-1.56-13.08-3-26.16-4.08-39.24q-4.5-50.58-32.4-90.48a1.73,1.73,0,0,0-1.44,1.08,56.85,56.85,0,0,0-2.4,7.32A7.88,7.88,0,0,1,454,70.32Zm96.72,31.2a63.68,63.68,0,0,1,8.4,18.6,309,309,0,0,1,7.44,127.56q-5.94,38.34-42.84,50.64c.12-32.28-.72-64.56-2.28-96.72a1114.39,1114.39,0,0,1,.12-121.8c5.76,1.92,11.64,4,17.52,6.24l6.24,6.36A24.52,24.52,0,0,1,550.68,101.52Z" transform="translate(-27.26 -55.8)"/></svg>