<svg id="Layer_1" data-name="Layer 1" xmlns="http://www.w3.org/2000/svg" viewBox="0 0 488.47 367.44"><defs><style>.cls-1{fill-rule:evenodd;}</style></defs><path class="cls-1" d="M265.56,198.84l.36-.48,2.52,2.64q51.84,27.54,38.88,90.72A85,85,0,0,1,293.76,323a64.59,64.59,0,0,1-20.4,18.72c-9,5.16-18.12,5.28-27.12.36Q211.32,323.58,211,281a132.75,132.75,0,0,1,7.2-44.28,53.61,53.61,0,0,1,10.08-17.64,76.78,76.78,0,0,1,37.08-24l-1.2,3.12C263.4,200.52,263.88,200.76,265.56,198.84ZM237,193.2a68.4,68.4,0,0,0-22.44,35.4,209.87,209.87,0,0,0-7.44,45,128.16,128.16,0,0,0,5.4,44.76,68.26,68.26,0,0,0,25.92,36.48c12.72,9.24,26.52,9.48,41.52.84A64.38,64.38,0,0,0,308.64,322,150.58,150.58,0,0,0,318,279.72a170.19,170.19,0,0,0-2.64-46.2,68.33,68.33,0,0,0-22-38.88,49.46,49.46,0,0,0-22.8-11.4l-4.08,2.88a34.78,34.78,0,0,0-26.88,5.4ZM219.12,92.28A128.84,128.84,0,0,0,203.4,142.2q-6.48,63.54-15.84,126.72-9.36,63.36-20,126.36l-.24,1.92c-3-15.24-6.48-30.6-10.2-45.84L126.84,228.12q-1.44-.36-1.44.72l.12.36A100.7,100.7,0,0,0,116,262q-8.1,63.18-19.68,126.12A85.71,85.71,0,0,1,92,403.68a57.74,57.74,0,0,0-2.64,9,400,400,0,0,0-3.84-46l-13.2-95c-3-21-6.24-41.88-10-62.76q-11-63.18-18.6-126.12c-2.52,1.08-3.72,3.36-3.48,6.72A889.22,889.22,0,0,0,54.84,205.08c4,20.76,7.32,41.76,10.08,62.76Q73,331.2,80,394.8a57.49,57.49,0,0,1,.24,12c-1,12.84,1.92,23,8.52,30.72a3,3,0,0,0,.48-1.68l.24-9a25.1,25.1,0,0,0,3.24,7.92,56.72,56.72,0,0,0,5.52-17Q108.9,354.72,120,292a346.75,346.75,0,0,0,5.76-60.24A792.17,792.17,0,0,0,139,314.28q13.5,63,32,123c2-1.08,2.76-2.88,2.4-5.28l-1.32-8.28c5.64-25.8,10.08-52.08,13.32-79.08l15.36-127.08Q208.32,154,220,92A1.15,1.15,0,0,0,219.12,92.28Zm295.8,110.64a155.92,155.92,0,0,0,12.6,12.6l.6.12c1.8-20.16-7.56-30.12-28.08-30q-50.58,38.88-7,85,20,21.06,24.12,46.8c1.08,7.08-.84,13.32-5.76,19A39.23,39.23,0,0,1,482.16,350a15.89,15.89,0,0,1-12.48-5.16,20.46,20.46,0,0,1-4.56-7.2l-3.24-.84q-6.84,38.88,36.24,26.88,20.52-5.76,27.36-25.92a58.26,58.26,0,0,0-.84-40.8,75.12,75.12,0,0,0-24.72-33.12,47.25,47.25,0,0,1-12-13.8Q468.84,217,503.64,203.52A19,19,0,0,1,514.92,202.92ZM467.76,92q-10.26,43.74-17.64,88.32-10.44,63.18-21.72,126.36a839.8,839.8,0,0,0-11.76,97.44c-1.56-16.32-3.72-32.64-6.36-48.84-6.6-40.44-13.92-80.4-22.2-120L388,229l-1,1.2-.12-.36c-.84-.24-1.32,0-1.32.72l.12,1.44a37,37,0,0,0-5.4,15.48,1117.8,1117.8,0,0,1-24.48,125.4l-4.56,16.56L346.32,343q-6.84-63.9-19.8-126.48-13.14-62.82-24-125.28c-4.2,7-5.4,15.36-3.6,25.08,4.92,26.76,10.2,53.64,15.72,80.4q13,62.82,20.28,126.6l9.84,88.2a33.92,33.92,0,0,0,2.16,19.68l1.8,16.92a3.53,3.53,0,0,0,3,2.16q5.58-14.22,2.52-31l.6-2.76q13-62.46,26.88-125.16a296.51,296.51,0,0,0,5.4-34.68c1.56,21,3.84,42,6.84,63.24q9.18,63.9,22.2,125.76c2.28-.6,3.24-2.16,3.12-4.92l-.36-6.84.6-.48c2.76-12.48,5.16-25.2,7.44-38.16-.84-.24-1.44.36-1.68,1.68l1-7.08,18.84-126.6q9.54-63.18,20.16-125.76,1.44-8.1,3.6-15.84a84.08,84.08,0,0,0,3.6-32.16A4.79,4.79,0,0,0,467.76,92Z" transform="translate(-40.29 -82.8)"/></svg>