<svg id="Layer_1" data-name="Layer 1" xmlns="http://www.w3.org/2000/svg" viewBox="0 0 550.61 517.8"><defs><style>.cls-1{fill-rule:evenodd;}</style></defs><path class="cls-1" d="M349.68,259a24.41,24.41,0,0,1,1.68,9.24q0,12.42-8.16,109.44C337.92,440.4,334,484,331.32,508.08v10.56l33.84-2.4c18.48-1.68,28.44-3.48,30-5.52a44.74,44.74,0,0,0,1.44-12.12h.72c.24,1.92,1,5.16,2,9.84a37.46,37.46,0,0,1,1.56,9.24,10.91,10.91,0,0,1-.84,4.2,8,8,0,0,1-1.92,3.48l-47,4.8c-11.4,3.12-19.08,4.68-23.28,4.68-1.32,0-2.4-1.56-3-4.8l-.6-5q0-12.6,5.52-70.44c3-31.32,5.16-52.44,6.48-63.12.6-7.32,1.68-18.48,3.36-33.36L343,324.84c.48-3.84,1.08-15.24,1.92-34.08C345.48,277.32,347,266.76,349.68,259Zm-147.24-63.6c-.48,5.28-1.32,23.52-2.4,54.72-.84,22-2.52,40-5,53.88V347c-.84,5.4-1.2,13.8-1.2,25.2a335.85,335.85,0,0,0,2.76,38.64c1.56,12.72,3.36,25.2,5.64,37.56l2.88,18.72c1.2,8.52,2.28,15,3.12,19.44a53.59,53.59,0,0,0,9.36,22.08c6.84,9.24,15.48,13.92,26,13.92,8.28,0,15-1.2,19.92-3.48a24.94,24.94,0,0,0,11-9.84c2.16-3.36,4.32-8.4,6.48-15.24l6.48-19.8c1.92-5.4,4.56-13.68,7.8-24.84,3.24-11.4,5.76-19.68,7.56-24.72a493,493,0,0,0,14.88-49,447.85,447.85,0,0,0,9.48-49.32V253.56q1.08-10.62,1.08-32c0-31.92-.24-53.76-.6-65.52q-1.8-46.62-8.4-73.68Q300.06,4,241.2,86.64a171.93,171.93,0,0,0-28.56,54C207.48,156.36,204.12,174.6,202.44,195.36Zm-6.12-161a5.43,5.43,0,0,1,1.8,2.16,7.25,7.25,0,0,1,.84,3.6c0,2.64-3,21.48-9.12,56.52-6.6,37.92-10.32,61.32-11.4,70.08-1.56,12.6-3.48,33.48-5.76,62.52-2.28,27.6-4.32,48.6-6.12,63.12-1.68,13.56-4,34.44-6.72,62.64-2.76,28-4.92,49-6.72,63.24q-9,74-25.56,126.36-17.28-51.3-24.6-130.44l-5.4-65.76c-2.16-26-4.44-47.76-7-64.92l-.24-.6-4,63.36q-2.34,37.44-5,63.36-7.2,72-22.68,126.6c-3-8.52-4.92-18.84-6-31.08l-1.8-31.44c-.36-5.64-.72-16-.84-31-.24-13.32-.72-23.88-1.32-31.56-2.28-25.32-4.08-46.2-5.28-62.52-1.68-23.4-2.76-44.28-3.36-62.52q-.9-25-10-135.36-9-107.1-9-115.32A2.26,2.26,0,0,1,21.36,34a7,7,0,0,1,2.76-2.88q11.7,96.48,20.64,241.32l7.08,121q4.32,73.26,7.68,120.36c5.88-31.08,10.08-54.36,12.84-70.08q7-41.58,7-70.68c0-14.16.36-25.92,1-35.28A229.42,229.42,0,0,1,85.2,302.4a427.61,427.61,0,0,1,3.6-69.72q4.68,30.06,8.4,72.48l5.76,73q3.78,42.48,8.64,73a513,513,0,0,0,16.8,72.6Q139.56,472,150.72,381.6q6.3-51.66,17.64-160,10.08-96.3,14.76-130.56,7.38-53.82,13.68-54c-1.08,0-1.56-.36-1.32-1.08Zm98.52,4.2q13,2.88,19.44,2.88c5.64,0,10,11.28,13.2,33.72a448.12,448.12,0,0,1,4.08,56.4q.54,30.06,2.16,89.64c0,16-.36,28.08-1.08,36.24v73.68l-12.72,58.2c-6.12,26.76-12.12,49.44-17.76,68-16.44,53.28-33.24,79.92-50.16,79.92-13.2,0-23.64-2.64-31.44-8C214,524.76,209.16,518,205.92,509c-2.28-6.36-4.08-15.24-5.4-26.52-1.68-15.84-2.76-25-3.12-27.24l-8.28-47.64a86,86,0,0,1-.36-12l.24-23.16c0-13.56.36-23.76,1.08-30.84v-41.4q2.7-22.5,6-69.36,3.24-46.26,6.12-69.36,2-15.3,10.08-34.2a325,325,0,0,1,18.6-35.64c11-18.12,20.4-31.44,28.2-40,6.84-7.56,13.32-12.24,19.32-13.8C282.48,36.84,288,37,294.84,38.52Zm82.44,34-16.2,87-1.56,8.88,19.32-1-1.56-13.68V95.28C377.64,87.72,377.64,80,377.28,72.48ZM382,39V95l.24.72V149.4l2.28,18,1,.12c1.68.24,2.64.72,2.88,1.56l.12,3.72a10.55,10.55,0,0,1-1.92,6.12h-.6l2,15.6c2.64,22.56,4,39.12,4,49.8l-.12,5.28c-.36,2.64-1.32,4.2-2.88,4.8-2-13.56-4.2-30.24-6.36-50.16L380,179.16l-4,.36-4.92.48-13.8-.24c-5.16,26.76-9.84,49.56-14.16,68.64l-.48.48-.84.84c-1.32-2.28-1.92-5.4-1.92-9.48,0-1.32,3-15.84,9.12-43.8l3.72-17.52-.72-1.44a7.75,7.75,0,0,1-.48-3.12q0-4,2.16-5.76l1.32-.12,6.24-32Q370.14,86.76,380,34.08A13.6,13.6,0,0,1,382,39ZM566.64,185.88a339.61,339.61,0,0,1,5,56.64q0,29.34-6.72,76.92-5.58,40.14-12.6,72A176.55,176.55,0,0,1,526.8,451a222.78,222.78,0,0,1-39.72,45A203.15,203.15,0,0,1,445,524.64c-12.84,6.36-23.28,9.6-31.56,10h-1.2c-1.8,0-2.88-1.2-3.48-3.48a34.43,34.43,0,0,1-.24-4.2,4.85,4.85,0,0,1,1.2-3.6l1.44-1.32c.6-8.16,1.92-23.64,4.2-46.56l5.28-55.08V340.8q-1.26-67.68,5.76-158.52,1.62-21.6,14.28-155.52l.6,6.6,1.8-2.52c18.84,5.88,34.56,13.08,47.16,21.84A112.28,112.28,0,0,1,517.2,79C521.52,84.84,527,94.2,533.88,107c6.6,12.24,12.12,21.24,16.68,27.12C557.4,144.6,562.68,161.76,566.64,185.88Zm-39.48-74.76C520.08,99.36,514.56,90.6,510.72,85c-4.68-7.08-11.4-13.2-19.92-18.36-5.64-3.48-13.44-7.08-23.16-10.8-10.32-4-16.68-6.72-19.2-8A20.15,20.15,0,0,1,442,42.48l.12,1.8.48,17c0,9.12-.84,24.36-2.64,45.6L434,176.16q-8.46,107.1-8.52,204c0,26.52-.84,54.6-2.52,84-1.32,23.16-3,40.8-4.92,52.92q89.28-15.3,126.12-123,22.5-65.52,22.56-152c0-15.6-2.16-34.08-6.6-55.44q-7.38-35.28-16.92-49.68C539.88,131.88,534.48,123.24,527.16,111.12Z" transform="translate(-21.07 -26.76)"/></svg>