<svg id="Layer_1" data-name="Layer 1" xmlns="http://www.w3.org/2000/svg" viewBox="0 0 507.16 332.82"><defs><style>.cls-1{fill-rule:evenodd;}</style></defs><path class="cls-1" d="M342.6,137.64l-2.88-3-.36-1.56,6.84,6.12Zm-93.12-28.32-.6.12a361.62,361.62,0,0,0-17.64,81.12Q224.58,254.28,213,317.28c-1.92,10.44-4.08,20.88-6.6,31.2A357.09,357.09,0,0,0,197.76,403l-.6-2.52L178,339.6a856.27,856.27,0,0,1-29.16-124,16.45,16.45,0,0,0-4.56,13.2A1113.07,1113.07,0,0,1,117.6,347.4c-3.48,12.48-7.08,25-10.92,37.32l-7.56-63.84q-5.94-47.88-13-95.52Q76.62,161.82,62.28,99.84c-.6-.12-1,0-1,.36a108.39,108.39,0,0,0,.24,37.32q11.16,63,23.28,125.88A683.89,683.89,0,0,1,97,389.64c.12,12.12,2.88,22.44,8.52,30.84a9.28,9.28,0,0,0,2.88-4.56,34.57,34.57,0,0,0,3.84-10.2q13.5-62.46,29.52-124.2a235.36,235.36,0,0,0,6.12-33.12c2.52,11.76,5.28,23.52,8.28,35.16q14.22,54.18,27,108.84c2.76,11.76,6.84,21.6,12.48,29.4a27.32,27.32,0,0,0,2.64-8.4,2.85,2.85,0,0,0,3.36.24c5.88-22.08,10.8-44.52,14.52-67.32q10.44-63.18,18.24-126.6,4-31.86,10.68-63A191.87,191.87,0,0,0,249.48,109.32ZM382,247.44a322.59,322.59,0,0,1-32.4,122.76q-20.34,41.94-67.2,36c-7.56-.84-12.36-4.8-14.52-11.76a281.85,281.85,0,0,1-12.24-102.6A620,620,0,0,1,276,166.32q8.64-32,38.88-39.12a91.05,91.05,0,0,1,22.2,4.32l1,2.16.48,1.68.24.72.6.84,2.4,2.16.72.84,4.44.12q18,20,27.48,49.32A153.53,153.53,0,0,1,382,247.44Zm5.64-39.24q-7.74-54.72-44-94.32a3.41,3.41,0,0,0-1.56,0,3.72,3.72,0,0,0-1.56.72l-.6.72-.6.72-.12.48a172.7,172.7,0,0,0-31.8-5.52,38,38,0,0,0-15.72,11,142.3,142.3,0,0,0-33.48,73.56,953.71,953.71,0,0,0-10.44,128.64,230.2,230.2,0,0,0,11.76,77.52c7.32,22.2,24,30,49.8,23.28a49.5,49.5,0,0,0,25.44-16,225.26,225.26,0,0,0,41.4-74.16A277,277,0,0,0,387.6,208.2ZM412.2,155c.6,43.08.84,86,1,129.12a1041.31,1041.31,0,0,1-7.8,128.16c-2.28,6.72-1.56,12.72,2.16,17.88,1.08-.24,1.56-.6,1.68-1.08A743.62,743.62,0,0,0,420,308.52l.24-25.2,1.32,2.4a4.7,4.7,0,0,0,2-2.52c4.2-11.88,8.52-23.64,13.08-35.28q6.84,29.7,14.52,59.76,15.48,61.38,29,123.12a3.66,3.66,0,0,0,3.6,1.8,4.39,4.39,0,0,0,2.64-3.72,70.25,70.25,0,0,0-2.64-28.2c-5-16.8-9.48-33.84-13.44-51-9-38.76-18.36-77.28-28.32-115.56l9.72-23.88c7.68-13.8,15.12-27.84,22.32-42,2.4-4.8,5-9.36,7.8-13.8,7.2-11.52,10.2-23.28,8.88-35.16a646,646,0,0,0-50.28,94.08c-6.36,14.52-12.72,28.92-19.32,43.2l-.84,1.8,1-79c.36-22-.36-43.32-1.92-64.08C414.48,127,412.08,140.28,412.2,155Zm122.4-27.6a20.44,20.44,0,0,0-13.92,13.2A292.72,292.72,0,0,0,502,239.52l-1.68,64.8A843.69,843.69,0,0,0,503,406c1.56,18,11.28,26.76,29.16,26.4a22.45,22.45,0,0,1,4.2-3.36,72.05,72.05,0,0,0,8.76-6.48c13.68-12.36,17.76-25.8,12.24-40.44a38.82,38.82,0,0,0-8.28,9.84A93.8,93.8,0,0,1,530,414.48,18.18,18.18,0,0,1,516.72,411l-2.4-1.68a45,45,0,0,1-5-19.44q-1.62-55.26-1.08-111.24a130,130,0,0,0,30,4.68,15.5,15.5,0,0,0,1.8-9.84,12.36,12.36,0,0,0-1.8-4.8l-.84-.36-15.72-1.8-2.16.24L508.32,268v-7.08a419.92,419.92,0,0,1,14-101.28c4.2-15.36,14.88-20.64,32.28-16a27.73,27.73,0,0,1,8.88,13c.6,1.92,1.68,2.16,3.12.84a29.78,29.78,0,0,0-2.16-16.32,26.39,26.39,0,0,0-10.92-12.84l-4.8-.36Z" transform="translate(-59.82 -99.8)"/></svg>