<svg id="Layer_1" data-name="Layer 1" xmlns="http://www.w3.org/2000/svg" viewBox="0 0 457.5 340.93"><defs><style>.cls-1{fill-rule:evenodd;}</style></defs><path class="cls-1" d="M242,127.44l4.68-5,7.56-7.92a42,42,0,0,1,29.88-.24l2.4,1.08,2.4,5.52,2.64.72c22.8,29.88,35.64,64,38.64,102a291.54,291.54,0,0,1-4.68,79.08,300.93,300.93,0,0,1-13,45.72A144.71,144.71,0,0,1,299,375.24a174.88,174.88,0,0,1-12,16.08A61.09,61.09,0,0,1,267,407a37.31,37.31,0,0,1-26.16,2.76c-17-4.44-27.6-15.12-31.8-32.16a351.36,351.36,0,0,1-7-125.28,404.9,404.9,0,0,1,16-73.44,249.3,249.3,0,0,1,18.84-44.28A34.23,34.23,0,0,1,242,127.44Zm-42.36-30a172.11,172.11,0,0,0-11.28,38.64q-16.92,104-28,208.68c-1.56,15-3.36,29.88-5.4,44.76l-31.2-157.08a203,203,0,0,0-10.44,35.4l-20.64,103L67.44,174.48c-2.76-20.88-5.76-41.64-9-62.4l1.92-3.24-5-15.48a107.81,107.81,0,0,0-1.56,38.76l15,107.76L74.28,279l2,15.24,2,15.12L80,324.6l1.68,15.12,2.76,30.48,2.28,30.6v3.48l-4,2.64,2.64,1.8,5.4,11.52,31.8-146.88q13.86,67.5,26.88,135c1.56,7.8,4.32,13.8,8.52,18l.24-12.24a25.89,25.89,0,0,0,5.16-13.68q7.74-88.56,19.32-176.88c1.44-10.56,3-21.12,4.8-31.56l2.76-15.84,3-15.6,3.24-15.72A146.28,146.28,0,0,0,200,103.32ZM264,96.36a24,24,0,0,0-16.8,7.92q-24.66,26.64-34.32,63.12a544.3,544.3,0,0,0-18,127.56c-.48,21.48-.36,43,.36,64.2q1.08,36,25.44,59.76A33.3,33.3,0,0,0,244.8,429c28.44.12,49-13.08,61.56-39.36a310.7,310.7,0,0,0,30.48-124.8,571.41,571.41,0,0,0-1.44-64.2q-4.68-58-43.2-99.12l-.6.24-1.08.48-1.32.36h-.84l-1.08-.84A35.33,35.33,0,0,0,264,96.36Zm166.2,4.56c-4,4.44-6.48,10.44-7.68,17.88-6.6,41.88-12.48,83.88-17.4,126a1211.16,1211.16,0,0,1-21.48,126.84c-1.8,7.8-3.72,15.6-5.88,23.28-.84-14.64-2.28-29.28-4.32-43.8C367.8,309,361.92,266.76,356,224.64L338.16,98.52c-2.28.36-3.24,2-3.12,4.8A1008.2,1008.2,0,0,0,346,209q9.9,63.18,18.6,126.48a252.36,252.36,0,0,1,2.28,31.68,219,219,0,0,0,9.24,63.24,21.56,21.56,0,0,0,3.6-5.88l1.32,1.08q8.1-35.82,15-72.36,11.88-62.82,18.84-126.6,4.32-39.6,12.36-78.36A163.65,163.65,0,0,0,430.2,100.92Zm79.56,28.32c-4.2-19.08-15.72-28.32-34.68-27.48q-26.46,10.08-33.48,38.52a530.68,530.68,0,0,0-15.24,101.28q-3.6,63.36-5.52,127.56c-.6,22.68,5.16,43.2,17.4,61.32a7,7,0,0,0,5.16,3.36c23.4,2.64,42.84-5.28,58.08-23.88,7.8-9.36,7.8-17.52.12-24.36-13.08,21-31.92,31.32-56.28,31.08-10.44-10.92-15.6-24.36-15.72-40.56-.12-35.4.72-70.68,2.28-106a5,5,0,0,0,3.24.72c12.12-3.48,24.12-6.48,36-9.12l.48-1a14,14,0,0,0-1.32-14.52,122.47,122.47,0,0,0-37.8,12.24l.6-10.68a549.06,549.06,0,0,1,14.28-97.92c5.4-22.2,19.44-32.76,42.36-31.68a4,4,0,0,1,3.36,1.68l15.6,20A16.14,16.14,0,0,0,509.76,129.24Z" transform="translate(-52.7 -93.36)"/></svg>