<svg id="Layer_1" data-name="Layer 1" xmlns="http://www.w3.org/2000/svg" viewBox="0 0 297.38 211.24"><defs><style>.cls-1{fill-rule:evenodd;}</style></defs><path class="cls-1" d="M308.52,330.84l4.44-7.92,2,8.4Zm4.2-25.92L297.6,332.64l-1.92,1a78.33,78.33,0,0,1-4.2,8.4,9.93,9.93,0,0,0,.6,11.52l.84,1.08,8.4-11.64,16.8-2.76c2.52,8.28,6.24,14.28,11.16,18.24a119.11,119.11,0,0,0-14.4-45Zm-152-81.48c-.72-11.64-3-22-7-31.08a392.23,392.23,0,0,0,5.52,81.36,537.77,537.77,0,0,1,7.08,63.48,295.3,295.3,0,0,0,10.08,63l.36-.24.24.72q9.18-32.22,16.32-65.64c3.84-17.64,7.2-34.8,10-51.72A1175.84,1175.84,0,0,0,224,401.76a2.93,2.93,0,0,0,3.72,1.68,27.36,27.36,0,0,0,2.52-4.92,18.59,18.59,0,0,0,2.4,3.84,95.05,95.05,0,0,0,7.68-29q7.2-63.18,13.68-126.84a77.62,77.62,0,0,1,3.12-15.72,65.66,65.66,0,0,0,2-32.16,146.14,146.14,0,0,0-11.64,46q-6.12,63.54-15.12,126.6a42.31,42.31,0,0,1-1.92,7.68,46.06,46.06,0,0,0-1.92,7.2l-.24-.48-.24-.6q-11.88-54.18-23.28-107.88h-.6l.6-4.56a57,57,0,0,0-10.56,23.28q-7.92,36-17.52,71.4a482.86,482.86,0,0,0-5.16-48.72Q164,271.14,160.68,223.44Zm180.48-13.68a77.28,77.28,0,0,1,13.2,22.32q24.84,65-10.32,125.4-16.38,28.08-50.52,16.44-22-20.7-20.28-52c.6-10.32.84-20.64.84-30.84q0-44.46,31.08-73.8a4.16,4.16,0,0,0,1.92-1,41.56,41.56,0,0,1,29.52-8.76l2.64.6a4,4,0,0,1,1.56.84Zm-16.44-14.88A64.56,64.56,0,0,0,295.32,211a29,29,0,0,0-5.88,7.8q-25.74,51.3-23.52,110.52a91.71,91.71,0,0,0,14.16,46.32q19.26,30.6,54.6,12.36a167.94,167.94,0,0,0,35.52-83.64q8.1-57.78-23.4-106.2h-3.48l-1.32-.84A27.29,27.29,0,0,0,324.72,194.88Zm68.76,93.6a726,726,0,0,0-1.32-81q38.88-2.16,50.4,33.24,7,21.24-6.12,38.16C425.28,293.52,410.76,301,393,301.32Zm-2.76-95.88A276.64,276.64,0,0,0,385,279.84c.72,8.4,1,16.8.84,25.32-.24,13.8-.6,27.72-1.2,41.76a162.87,162.87,0,0,1-2.52,24,53.91,53.91,0,0,0,3.72,31.92,471.17,471.17,0,0,0,6.48-85.32c12.24,2,23.4-.84,33.48-8.4l4.8-3.72a47.42,47.42,0,0,0,12.36-15.24,60.17,60.17,0,0,0,3.48-8A82.79,82.79,0,0,0,450,244a65.57,65.57,0,0,0-14-32c-2.28-2.76-4.68-5.52-7.2-8.16a33,33,0,0,0-24-10.08,36.32,36.32,0,0,0-13.44,2.16Z" transform="translate(-153.43 -192.36)"/></svg>