<svg id="Layer_1" data-name="Layer 1" xmlns="http://www.w3.org/2000/svg" viewBox="0 0 301.9 209.64"><defs><style>.cls-1{fill-rule:evenodd;}</style></defs><path class="cls-1" d="M323.88,211.56c20.76,23.4,31.08,51.36,31.2,83.64a130.47,130.47,0,0,1-14.4,61.08Q327.9,380.94,302,372a16.06,16.06,0,0,1-8.28-6.48q-26.28-42.12-18.24-93.84a140.92,140.92,0,0,0,1.56-15.48q1.8-37.8,36.72-46.2A15.11,15.11,0,0,1,323.88,211.56Zm-3-13.8c-20.28-2.4-33.48,5.28-39.6,23.16q-21.06,61.56-9.84,126.48,5.22,29.34,30.72,43.08A19.49,19.49,0,0,0,317,392.16q30.78-9,38.88-40.92,16-64.26-5.76-125.88c-4.56-13-12.36-22.56-23.28-28.92l-.12.12-1.2.84-.84.6-.6.36Zm-70.68-3.12q-13.32,59.94-22.56,122.76a197.47,197.47,0,0,1-7.08,31.08,102.62,102.62,0,0,0-3.48,13.92,719.62,719.62,0,0,0-20.76-83.52l.12-8.52a100.48,100.48,0,0,0-9.12,30.12c-2.52,17.88-6,35.64-10.2,53.28v.36c-.6-12.24-1.68-24.48-3.36-36.84q-8.82-63.36-19.8-125.64-4.68,8.1-2.88,19.08,9.9,62.82,17.4,126.36a186.45,186.45,0,0,1,1,31.68c-.48,9.48.72,17.64,3.72,24.72l.6,7.8q4.68-2.34,5.76-8.28l10.92-59c2-10.92,3.48-21.84,4.56-32.64l1,3.36a153.76,153.76,0,0,1,6.72,32,226.69,226.69,0,0,0,13,57.24l.24,2.16.48-.36.6,1.68a23.62,23.62,0,0,0,2.52-5.28,21.7,21.7,0,0,0,3.36-8.16q13.68-62.46,22.92-125.88a463.55,463.55,0,0,0,4.8-63.6Zm143.28.48a1048.67,1048.67,0,0,0-6.6,114.12,431.31,431.31,0,0,1-5.16,64.68c-1.68,10.32,0,18.24,5.16,23.76l.36-1.68A519.81,519.81,0,0,0,450,398.28,13.8,13.8,0,0,0,451.8,386l-.24-.72a5.1,5.1,0,0,0-1.92-2.52l-3.48-.24L422,381.72c-10.8.36-21.72,1.2-32.88,2.64A444.7,444.7,0,0,0,394.44,323q1.08-64.8-.24-128.16C393.84,194.76,393.6,194.76,393.48,195.12Z" transform="translate(-150.58 -191.64)"/></svg>