<svg id="Layer_1" data-name="Layer 1" xmlns="http://www.w3.org/2000/svg" viewBox="0 0 432.37 340.92"><defs><style>.cls-1{fill-rule:evenodd;}</style></defs><path class="cls-1" d="M247.8,280.8,265,157l15.12,122.52Zm21.12-171.48-1.08.24v-.72l-.24.84a4,4,0,0,0-1.68,2.4,850.55,850.55,0,0,0-19.44,112.68q-6.66,63.54-17,126.72-5.22,31.68-11.88,62.88c-2,10-.24,17.64,5.4,22.92q8.64-45,15.6-91,4-26.28,7.56-52.56l36,1.2q7.2,55.8,13.32,112.08c1.32,12.48,5.28,22.68,11.88,30.48a5.19,5.19,0,0,0,1.56-4.8q-5.58-34.74-9.72-70.8-4.14-35.46-9-70.92a12.85,12.85,0,0,0-1.44-11.4l-6.36-44.28Q274.08,179.16,269,122.88C269.16,118.32,269.16,113.76,268.92,109.32Zm64.32,18.36c10.92,12.6,13.56,27,7.68,43.2-4.32,12.12-12.48,20.52-24.6,25.2L319,119.52ZM213.48,160.32q-9,63.9-13.56,128.52c-3,42.36-6.6,84-11,125.16-1.32.12-2.16,2-2.64,5.76a37.12,37.12,0,0,0-.36,7.2c-4.92-24.84-10-49.92-15.24-75q-12.24-58.32-26.4-115.8l-5,.24.24,2.16c-3,10.56-5.52,21.48-7.56,32.64l-22,121.56c-2-13.44-4.2-26.88-6.48-40.2q-11-63-19.8-126.24Q74.82,162.78,61.2,100.68c-5.16,3.48-7,9-5.4,16.68q13.5,62.64,22.92,126,9.54,63,19.56,126a163.53,163.53,0,0,1,2,31.56c-.36,12.6,2.4,22.92,8.4,31a3.81,3.81,0,0,0,2.16-2.52l1.08-4.08,1.32,2.52a84.11,84.11,0,0,0,4.56-19.32A562.16,562.16,0,0,1,127,351.84a873,873,0,0,0,14.76-94.32c1.32,9.72,3.12,19.32,5.16,28.92q13.32,62.46,26.28,124.92,3.78,18.36,13,30.24a6.24,6.24,0,0,0,1.56-5.52l-.36-2a18.26,18.26,0,0,0,5,7.56,613.57,613.57,0,0,0,8.76-76.32c2.28-43,6-85.68,11.4-128.16s10.32-84.84,15-126.72A181.15,181.15,0,0,0,213.48,160.32Zm145,138.48a356.22,356.22,0,0,0-24.84-95.4c10.44-9,16.68-20.76,18.84-35.52,4.68-32-7.56-52.68-37-62a6.19,6.19,0,0,0-3.36,6.24,11.6,11.6,0,0,0,1.44,5.64l.84.24q-5.76,62.82-7.92,126.36-.54,12.24-2.16,24.12c-1.8,12.48-.48,23.28,4.08,32.52a2.24,2.24,0,0,0,2-2.28l4.92-86,2.76.6a71.8,71.8,0,0,0,10-5.64l11.16,42A553.45,553.45,0,0,0,356,303.36,3.79,3.79,0,0,0,358.44,298.8Zm25.2-186.48A82.7,82.7,0,0,0,376,151.2c.6,19,1.08,38,1.44,57.12l.24,32.28-.36,32.16c-.24,14.88-.72,29.64-1.32,44.4l-2.4,42.24-2.76,41.52-1.2,20.64-1.32,1.56,6.12,13.8A2059.66,2059.66,0,0,0,385.92,208.8c-.12-20.4-.36-40.8-1-61.32a1590.3,1590.3,0,0,1,82.08,273,5,5,0,0,0,1.32,2.64,16.11,16.11,0,0,0,1.2,5.4,8.1,8.1,0,0,0,5.52,4.92l2.52,2.88a1193.42,1193.42,0,0,0,9.24-197.64c-.84-21.6-.72-43.2.24-64.92.12-5.4.24-10.68.12-16.08l-.72-31.8q-12.42,56-10.08,117.72,1.44,40.5.24,80.76l-1.44,32.28-1.8,32-.6,14.64A2105.92,2105.92,0,0,0,394.32,148.8c-3.72-9.6-7.08-19.2-10.32-28.92Z" transform="translate(-55.26 -100.68)"/></svg>