<svg id="Layer_1" data-name="Layer 1" xmlns="http://www.w3.org/2000/svg" viewBox="0 0 269.65 209.64"><defs><style>.cls-1{fill-rule:evenodd;}</style></defs><path class="cls-1" d="M156.36,192.12q-3.6,21.24,2.52,45.36c3,12.24,5.88,24.6,8.4,37,3.12,15.6,5.88,31.2,8.16,46.8s4.32,31.44,5.88,47.16A91.82,91.82,0,0,0,190,399.12l28-98.16,33.72,98.88,2.4,1.92Q273.3,331,288.12,259.32l6.48-31.44,6.48-30.6q-25,33.84-29.64,79.8c-1.56,16-4,31.8-7.08,47.52l-5,23.64c-.84,4-1.92,7.8-3,11.64l-5.64,17.76a285,285,0,0,0-25.92-77.52,50.64,50.64,0,0,1-5.16-17l-.48-4.08-2.64,2.52-2.4-2.76-1,9.36A357.12,357.12,0,0,0,190,373.32,1195.74,1195.74,0,0,0,160.32,207.6ZM393.48,308.88q34.56,19.26,15.84,52.56c-8.52,14.28-20.64,21.84-36.48,22.92q-14,.9-18-11.88c-8.64-28.2-1.08-50.88,22.56-67.8A32.48,32.48,0,0,1,393.48,308.88ZM364.92,296.4a80.39,80.39,0,0,0-17.28,26.52Q329.46,367.2,361,399.84q39.42,6.3,56.28-30.6c14-30.6,8.16-56.16-17.4-76.56h-1.56L377.76,289A26.36,26.36,0,0,0,364.92,296.4Z" transform="translate(-155.03 -192.12)"/></svg>