<svg id="Layer_1" data-name="Layer 1" xmlns="http://www.w3.org/2000/svg" viewBox="0 0 304.57 210.27"><defs><style>.cls-1{fill-rule:evenodd;}</style></defs><path class="cls-1" d="M322.56,310.56q18.54,16.74,13.32,40.68c-3.84,17.88-14.52,27.48-32.16,28.8-16.68,1.2-26.4-6.84-28.92-24.24-2.52-16.68,1.68-30.72,12.48-42,9.48-9.84,21-12,34.44-6.48Zm-31.44-21.84c-12.36,10-19.56,23.16-21.84,39.48a102.1,102.1,0,0,0,4.08,46.2c5.76,17.76,17.64,25.08,35.52,22.08,16-2.76,26.76-12,32.52-28a68.6,68.6,0,0,0,1.32-44.64,80.74,80.74,0,0,0-14.28-27.36,144.64,144.64,0,0,0-33-7.32Zm-39-92.16q-14.58,48.42-24.6,98.88l-12.72,61.8L213,347.4l-12.24-59-1-.6-.12-5.76a58.69,58.69,0,0,0-6.12,18q-5,28.26-11.52,56.52l-2,10.68c-.48-15-1.32-30.12-2.4-45.12A617.57,617.57,0,0,0,155,197.28l-.84-.84-1.08-.84c-1.08-.12-1.44.12-1.32,1q5.58,36.54,11,74.16c5.88,41.4,10,83,12.48,124.8a3.43,3.43,0,0,0,3.36,2l.48,4.8a4,4,0,0,0,3.24-3.48c4.32-18.84,8.28-37.68,12-56.64a274.27,274.27,0,0,0,4.68-33.72,904.6,904.6,0,0,0,16,96.84q3.06,1.08,3.24-2.52v-1.92a27.29,27.29,0,0,0,2.52-8.76,811.8,811.8,0,0,1,20.52-125.28l6-22.92a148.52,148.52,0,0,0,5.4-47.52Zm112.32,1.68a360.44,360.44,0,0,0,9.36,48.84,760.49,760.49,0,0,1,21.6,125.16c.84,9,2.76,16.92,6,23.76a14.63,14.63,0,0,0,3,5.52l.12.24,1.32,1.44a560.64,560.64,0,0,0,20.4-67.44q11-46.8,24-92.88a149.44,149.44,0,0,0,6-47.52,1.68,1.68,0,0,0-2,1.2Q436,256.68,421.92,318A474.76,474.76,0,0,1,405,374.4a295.71,295.71,0,0,0-6.36-51.6l-13.2-63.36A264.91,264.91,0,0,0,365,198.12Z" transform="translate(-151.78 -195.34)"/></svg>