<svg id="Layer_1" data-name="Layer 1" xmlns="http://www.w3.org/2000/svg" viewBox="0 0 410.58 248.16"><defs><style>.cls-1{fill-rule:evenodd;}</style></defs><path class="cls-1" d="M242.76,265.32l-29.4,3.12L233,183.84a476.22,476.22,0,0,0,6.36,61.32Zm-40.92-114a236.65,236.65,0,0,0-16.56,59.88q-9.18,63.18-17.64,126.6c-.36,2.52-.6,5-.72,7.44-9-35.88-18.6-71.76-28.68-107.4l-.6-.72-.36-.36-.36-3.48c-.6.12-.84.24-1,.48l-.72,2.16c-2.76,2.52-4,6-3.6,10.2a660.13,660.13,0,0,0-20.88,78.36c-1.2,5.88-2.64,11.64-4.2,17.4q-8.28-35.46-13.92-71.52-9.9-63.72-22.8-125.64C65.4,149.64,64,156,65.28,164L86.76,289.56q5.58,31.68,9.48,63.48c1.2,9.72,4.44,17,9.84,22.2a41.59,41.59,0,0,0,2.76-8.52L110,368q9.9-47.88,23.4-95.4l2.4-9.72c9.48,36.84,20,72.72,31.92,107.76a9.9,9.9,0,0,0,2.52-3l.72,1.68a33.18,33.18,0,0,0,6-19.2,563.62,563.62,0,0,1,4-57,834.58,834.58,0,0,1,16.92-94.32A153.61,153.61,0,0,0,201.84,151.32ZM220.08,198c-3.72,13.08-7,26.52-9.6,40.08-2.64,13.32-4.92,26.64-6.72,39.84a291.83,291.83,0,0,1-8,37.92,142.36,142.36,0,0,0-5.4,46c.24,5.88,1.44,10.44,3.72,13.92L211,282.24l34.44-.6Q253.68,323,259,364.8a45.15,45.15,0,0,0,2.28,9.24,29.8,29.8,0,0,0,6.12,9.6c4.68-8.76,5.76-18.84,3.12-30.24-5.4-22.56-10-45.36-13.92-68.28q-11.34-65.52-21.24-130.56A404,404,0,0,0,220.08,198Zm34.56-38.88a16.24,16.24,0,0,0,.24,11.4,176.25,176.25,0,0,0,47.4,5.76A356.84,356.84,0,0,0,297.6,230q-1.08,64.62-6,127.44v.84a15.57,15.57,0,0,0,.84,4c-1.8,5.4-1.08,10.32,2.16,14.64l3.6-.84q4.5-54.9,6.12-111.12c.36-10.68.84-21.48,1.68-32.4a327.37,327.37,0,0,0-.48-56.4,207.79,207.79,0,0,0,29.4-3.24l.72-.6q5-8.46-.72-16.2a345.53,345.53,0,0,1-76.32.84l-1.08.24a4.83,4.83,0,0,0-2.4,1.08Zm171.72,2.52a495.61,495.61,0,0,0-6.72,76.2q-.9,64.62-4.44,128.88-.9,15.3,6.84,23.4c1.8-11.16,4-22,6.6-32.4a20,20,0,0,1-3,4.56q-.72-34.92,1.08-72.48l.48-10.32,37.32-1.8q0,37.08.6,74.16c-1.2,15,.36,28.68,4.56,41,4.44-10.2,6.36-21.72,5.52-34.68-1.8-28.44-2.64-56.76-2.28-85.2a15.15,15.15,0,0,0,.12-8.64c.12-11.64.48-23.4,1.08-35.16,1-22,1.08-43.32.24-64.08a3.06,3.06,0,0,0-2.52,2.52A270.35,270.35,0,0,0,465,223.8l-.36,35.64a162.69,162.69,0,0,0-37,5.64q1.44-52.2-.72-103.56Zm-33.72,26.52a2.77,2.77,0,0,0,3.36,1.32l1-.36.24-.84c.84-13.2-6.36-19.8-21.6-19.68-22,15.36-35.16,36.6-39.84,63.6-3.6,20.88-6.36,41.88-8.4,63.12q-3.78,38.34,16.2,69.24c8.16,12.84,18.72,15.72,31.56,8.76,17-9.24,25.08-22.44,24.24-39.36l-1-.36-1.92-1.08-1.2-.24a169.74,169.74,0,0,1-12.84,16.56c-10.92,12.48-22.08,13-33.24,1.44q-14.58-14.94-15.48-36.36c-1.56-38.52,5.64-74.52,21.36-108.24,7.8-16.8,20-22.92,36.72-18.48Z" transform="translate(-64.81 -144.72)"/></svg>