<svg id="Layer_1" data-name="Layer 1" xmlns="http://www.w3.org/2000/svg" viewBox="0 0 302.65 212.85"><defs><style>.cls-1{fill-rule:evenodd;}</style></defs><path class="cls-1" d="M325,301.44c13.92,6.72,22.08,17.4,24.48,32.16,2.64,16.08-1.32,30.12-11.76,42.24-10.8,12.6-24,15.12-39.48,7.68C284.4,377,277.44,365,277.32,347.4c0-16.32,6.24-29.4,18.6-39.36C304.8,300.84,314.52,298.68,325,301.44ZM151.2,197.88c7.8,35.76,15.24,71.88,22.08,108.36a396.72,396.72,0,0,1,6.84,63.24c.36,11.88,3.36,21.84,9,29.64v-.6a2.63,2.63,0,0,0,1.44.6,187.86,187.86,0,0,0,10-36.36,239.31,239.31,0,0,1,9-36A95.71,95.71,0,0,0,213.84,309a304.47,304.47,0,0,0,5.4,35.64,483.92,483.92,0,0,0,15.6,56,3.53,3.53,0,0,0,1.92-1.8v1.32c4.8-2.76,7.8-7.8,9-15.24l20.16-125.88a426.94,426.94,0,0,0,5.16-63.48,405.08,405.08,0,0,0-16,77.88,508.07,508.07,0,0,1-10.8,63,276.91,276.91,0,0,0-7.44,57.84,749.91,749.91,0,0,0-21.72-104.88l-.36-6.12-.6.12a498.79,498.79,0,0,0-25,106,490.4,490.4,0,0,0-5.52-70.8,663.53,663.53,0,0,0-30.6-123.24C151.56,195.36,150.84,196.2,151.2,197.88Zm208.32,139.8q0-36-30.48-50l-1.08.48-1.68.24-.48-.48c-5-3.48-10.8-4.56-17.4-3.24-14.76,3-24.24,11.76-28.44,26.16-8.28,27.72-7.44,54.6,2.28,80.88a17,17,0,0,0,11,10.56c27.6,9,46.8,1.44,57.48-22.92A100.48,100.48,0,0,0,359.52,337.68Zm57.72-37.92c13.8,6.6,23.52,17.76,29,33.24,6.12,17.4,3.36,31.32-8,41.88a31.68,31.68,0,0,1-15.48,7.8,110,110,0,0,1-36,1.2,516.09,516.09,0,0,0,5.52-78.12Zm11.88-30.12c-8.52,13.32-20.76,20.28-36.72,20.64l-2.52-81.36c16.92-1.8,30,4.68,39.12,19.44C437.64,242.4,437.64,256.2,429.12,269.64Zm-40-71-.12-.24c-.48.12-.72.12-.72.24q-3.06,63.54-4.08,127.44a280,280,0,0,1-5.16,48.36c-2.52,12.6-1.2,23.16,3.72,31.68l1.08-5.4a141.24,141.24,0,0,0,37.68,1.8q25.38-2.34,29.88-25.92a134.18,134.18,0,0,0,1.2-42.12c-2.52-18.24-10.32-32.64-23.52-43.08a36,36,0,0,0,4.44-5.88c7.32-12.48,10.32-26.28,9-41.52-2.28-26.76-16-43.68-41-50.52a11.19,11.19,0,0,0-7.08,1A16.37,16.37,0,0,0,389.16,198.6Z" transform="translate(-151.11 -193.23)"/></svg>