<svg id="Layer_1" data-name="Layer 1" xmlns="http://www.w3.org/2000/svg" viewBox="0 0 427 293.85"><defs><style>.cls-1{fill-rule:evenodd;}</style></defs><path class="cls-1" d="M53.4,101q3.42,41.94,8.16,84.72L75.24,313.2a353.6,353.6,0,0,0,12.48,62.88,3.47,3.47,0,0,0,2.64-2.88,50.55,50.55,0,0,0,1.2-16.44A302.18,302.18,0,0,0,99.48,314a580.36,580.36,0,0,1,9.72-57.48c1.8-8.28,3.36-16.68,4.44-25A353.26,353.26,0,0,0,121,286.92q6.66,31.68,12,63.48A78.12,78.12,0,0,0,144.48,381a4.54,4.54,0,0,0,1.8-4.08l-.72-10c4.2-21.72,7.68-43.68,10.2-66.12q7.38-63.54,19-126.36A459.92,459.92,0,0,0,182,111a164,164,0,0,0-13.44,44.64q-9.9,63.18-18.36,126.84c-2.4,18.24-5.28,36.36-8.76,54.24-1.08-5.64-2.4-11.4-3.72-17q-13.68-56.52-22-113.52L116,193l-.48.12-1.08,4.08-.36-2.88h-.48l-.36,7.68A1049.52,1049.52,0,0,0,91.92,307.32c-1.2,7.92-2.64,15.72-4.44,23.52q-7.92-52.2-12.24-104.76A779.51,779.51,0,0,0,54.72,100.44C53.76,100.2,53.28,100.44,53.4,101Zm273,96.84q-4.32,41.58-43.44,60.24a28.16,28.16,0,0,0-1.2,6.48l1.2-23.28q3.42-57.78,2.52-114.48,34,14.76,40.32,52.32A69.63,69.63,0,0,1,326.4,197.88Zm-5.16-54.12L315.48,132a53.9,53.9,0,0,0-28.8-17l-.72.12-1.2-1.92q-10.08,100.62-14.52,203c-.6,15.84-1.56,31.68-2.64,47.52L266.52,358l1.08,9.24a25.85,25.85,0,0,0,0,12.84,18.22,18.22,0,0,0,3,6.36q16.2-57.06,11-120.6l2.76,7.8,13.2-5.4,42.24,126q11-25-3.6-52.44a372.49,372.49,0,0,1-22.44-51.6l-9.24-26.88q27.54-23.22,29-59.88A116,116,0,0,0,332,179.16c-.6-4-1.44-7.92-2.4-11.88A111.89,111.89,0,0,0,326,155.4,108,108,0,0,0,321.24,143.76Zm-103.68-3.12a822.49,822.49,0,0,0,8.28,90.6l2.88,19.68h-1.44c-10.2.24-20.16.24-29.88.12q7.2-43,14.64-85.68C213.6,157.08,215.4,148.8,217.56,140.64Zm0-30a1044.64,1044.64,0,0,0-25,118.68L189,252l-1,.72-.24.84-.24.84v3.24l.24,1.8c-5.4,32-11.76,64-18.84,95.64-2.64,11.64-1.92,22.08,2,31.56a2.55,2.55,0,0,0,1.2-1.56c7.08-31,13.32-62.28,18.48-94l4.68-27.84a97.69,97.69,0,0,0,35.52,3.36q6.12,45.54,11,91.2a100.14,100.14,0,0,0,8,31.2c4.44-7,6-15.12,4.44-24.36q-10.26-62.82-19.08-126.24-8.64-63.9-15.12-126.72a4.93,4.93,0,0,0-1.56,1Zm187.44,17a2.35,2.35,0,0,0-2.28,1.2l-1-5.16c-.84,4.8-1.32,9.72-1.68,14.64A881,881,0,0,0,382.44,232Q374,295.32,362.28,358c-4.32,9.72-4.44,19.44-.24,28.92.72-.36,1.2-.72,1.32-1.32q8.46-33.3,14.4-67.8,11-63.18,20.4-126.6L401,169.68c.6,5,1.44,10.2,2.52,15.36a596.86,596.86,0,0,1,9.24,62.16c1,10.56,1.68,21.12,2,31.8s2.76,19.8,7,27.6l.6,4.92c4.44-2.88,7.2-7.44,8-13.68q7-51.3,16.68-102.24c1.32-7.32,2.52-14.52,3.6-21.72l.48,3.72c4.68,42.12,9.72,84.12,15,126.24a441.1,441.1,0,0,1,3.48,63.6q-.18,1.44,2.16,1.44c-.6,9.12,1.92,15.72,7.56,19.92a2.85,2.85,0,0,0,1-2.4q-4.5-61.92-12.36-124.2c-5.4-42.48-9.72-84.72-13.2-126.6l-.12.6.12-3.36A465.35,465.35,0,0,0,431,232.56,273.71,273.71,0,0,1,425.28,264l-1.8,8.52-2.76-23.16q-7.2-56-16.44-111.24Z" transform="translate(-53.38 -100.35)"/></svg>