<svg id="Layer_1" data-name="Layer 1" xmlns="http://www.w3.org/2000/svg" viewBox="0 0 289.72 203.64"><defs><style>.cls-1{fill-rule:evenodd;}</style></defs><path class="cls-1" d="M277.2,320.88c0,12.12-.48,24.36-1.44,36.48-1.44,17.88,4.2,31.92,16.92,42.24l20-.24c16.68-7.08,26.64-19.32,30-36.72a276.84,276.84,0,0,0,4.44-36.24c.84-14-1.44-26.16-6.84-36.6a88.8,88.8,0,0,0-.72,34.8c4.2,26.52-4.92,46.08-27.12,58.56-20.28,3.84-30-4-29.16-23.28a555,555,0,0,0-1.44-72.24C278.64,297.36,277.08,308.4,277.2,320.88Zm-8-111.6q-10.26,63-24,125.16a284.45,284.45,0,0,1-8.64,31.08l-1.2,3.84a764.6,764.6,0,0,1-15.84-76.8,93.74,93.74,0,0,0-.6-14.4l-2,5.16-1.2,3.48a216.19,216.19,0,0,0-10,42.12,195.34,195.34,0,0,1-6.84,31.2,83,83,0,0,0-4,19.68C192.36,360,189,340.2,185,320.28q-12.78-62.82-28.68-124.08c-3.72,3-4.8,7.44-3.48,13.2q14.58,62.28,27,125c2,10.44,3.6,21,4.8,31.56,1.2,11.64,4.68,21.72,10.32,30.12l.36,2.64a6.64,6.64,0,0,0,4.32-5c6.12-26.76,11.88-53.76,17-81l9.24,58.2c1.92,11.52,5.88,21.12,11.88,28.68l.6-.84a24.37,24.37,0,0,0,1.8-9.24c1.32-4.2,2.52-8.4,3.48-12.72q14.58-62.1,24.72-125.16a194.24,194.24,0,0,1,7.56-31c3.12-9.36,2.76-17.28-1.08-23.64A23.32,23.32,0,0,0,269.16,209.28Zm162.6,54.84c-6.12,15.6-17.16,25.2-33.24,28.8a51.45,51.45,0,0,1-17.64,1l-2-82.32c16.68-2.76,31,1.44,43.08,12.36C434.4,235.2,437.64,248.64,431.76,264.12Zm-53.52-64.56L378,196l-.6,4L375.6,201l.36,9.48a1636.06,1636.06,0,0,0-2.28,186.24c5.64-27.36,7.92-56.16,7.08-86.52A52,52,0,0,0,418.32,301a70.19,70.19,0,0,0,9.12-7.68l1.44-1.68,1.44-1.68,1.56-1.8a47.65,47.65,0,0,0,8.4-18,57.84,57.84,0,0,0,1.68-12,88.08,88.08,0,0,0-1.56-21c-3.12-14.88-11.4-25.68-24.72-32.52a55.81,55.81,0,0,0-35.76-5.4Z" transform="translate(-152.34 -195.96)"/></svg>