<svg id="Layer_1" data-name="Layer 1" xmlns="http://www.w3.org/2000/svg" viewBox="0 0 480.85 359.88"><defs><style>.cls-1{fill-rule:evenodd;}</style></defs><path class="cls-1" d="M108,259.32l.48-.84-6.24,4.8-.24,4.08,1.68,2.4L86.88,435.12A881.36,881.36,0,0,0,56,341.52,409.29,409.29,0,0,1,33.6,435.84,721,721,0,0,0,13,261.36,906.75,906.75,0,0,0,33,458.64,285,285,0,0,0,58.2,370.2a331.91,331.91,0,0,0,30,87.6,872.7,872.7,0,0,0,21.48-172.68l.24-7.92v-7.92a55.48,55.48,0,0,0-.6-7.8l-.6-.72Q107.46,260.58,108,259.32Zm118.44-134q44.1,41,46.08,102a634.75,634.75,0,0,1-2.52,79.8,243.58,243.58,0,0,1-36.72,107.4C218.76,437.64,199,443.88,174,433l-.6-.72A111,111,0,0,1,148,403.68,328.26,328.26,0,0,1,132.84,290c.84-21.48,2-42.84,3.84-64.2q5.4-67.5,54.6-112A114.9,114.9,0,0,1,226.44,125.28ZM191.52,98.76c-23.64,17.4-39.6,40.44-47.64,69.36a468.33,468.33,0,0,0-17.4,127.32c0,21.6.48,43,1.44,64.2q2.34,53.46,41.4,88.32c6.84,6.12,15.12,8.76,24.72,7.92q38.7-3.42,55.56-41.16a345,345,0,0,0,26.52-91.08,456,456,0,0,0,1-127.8Q269.52,139,225.6,102.6a7,7,0,0,0-5.76.84l-1,.72-.72,1.68-.72,1.44-.48.36-1-.48A49.51,49.51,0,0,0,191.52,98.76ZM483.6,122l.36-.84.12-.84.12-.72-.12-1.56-.84-2.88a8.66,8.66,0,0,0-1.68-2.88,21.12,21.12,0,0,0-15-2.64c-17.16,2.4-29.76,11.64-37.56,27.84q-30.6,63.72,9.48,119.64c6.84,9.48,16.08,13.08,27.48,10.56a45.42,45.42,0,0,0,20.4-9.72,20.23,20.23,0,0,0,7.32-13.92,26,26,0,0,0-1.8-12.12l-3.24,2.16-1-.6-.72-.24-.24.36.12.6a7,7,0,0,1-1.92,6.12c-13.08,14-26.16,15.84-39.48,5.4q-23.94-18.54-20.52-51.12a136.06,136.06,0,0,0,39.48-1.8l5.64-1.2,1.08-3.12a22.58,22.58,0,0,0,.6-4,7.87,7.87,0,0,0-1.44-5.16,9.65,9.65,0,0,0-2.76-2.64l-42,6.6a87.1,87.1,0,0,1,14.64-42.48c9-13.32,21.72-19.44,38.16-18.24l4.92.24Zm-82.8,35.28c1.56,42.84,1.2,85.56-1.32,128.16-2.16,37.8-5,75.48-8.64,113.28l-.24-.84q-14.94-62.46-33.12-124a450.91,450.91,0,0,0-16-45.36,613.14,613.14,0,0,1-35.76-122.52c-.6.12-.84.24-.84.36v.72l-.24-1.92c-.72-.12-1.2.12-1.32.72a271.2,271.2,0,0,0-8.76,72.12q.9,64.44-2,129-2.88,63.9-7.68,127.68l-.36-.24c-.84-2.88-1.68-4.44-2.64-4.56v.84a5.86,5.86,0,0,0,1.08,4l-.12,1-.12,1.56a44,44,0,0,0,6.24,16,2.06,2.06,0,0,0,1-1.44q7-59.58,9.48-120.12,2.88-64.44,2.76-129,0-32.76,2.88-64.8l.12-1.2a174,174,0,0,0,10.44,43q23.22,60.66,40.68,122.88A1115.57,1115.57,0,0,1,383,424.8c1.92,12.24,6.24,22.08,13.08,29.52a5.71,5.71,0,0,0,1.68-4.08c-.12-5.28-.48-10.56-1.08-16q4.86-32.58,6.84-65.88Q407.7,304.32,409,240c1-43.56.48-86.64-1.44-129C402.36,124.68,400.2,140.16,400.8,157.32Z" transform="translate(-12.94 -98.76)"/></svg>