<svg id="Layer_1" data-name="Layer 1" xmlns="http://www.w3.org/2000/svg" viewBox="0 0 296.33 208.56"><defs><style>.cls-1{fill-rule:evenodd;}</style></defs><path class="cls-1" d="M335.64,305.16q4.32,39.6-11.52,73.92c-9.12,6.12-19,7.08-29.52,2.64a14.79,14.79,0,0,0-5.64-2.88,85.17,85.17,0,0,1-6.72-45.6,205,205,0,0,0,.48-44.52,256.72,256.72,0,0,0-5.28,83.4c1.32,13.08,8,21.12,20.16,24.36,21.48,5.64,34.68-2.52,39.6-24.24A286.53,286.53,0,0,0,344,320.4c.36-10.68-1.68-19.32-6.36-25.8A17.67,17.67,0,0,0,335.64,305.16Zm-67.8-105.48c-2.16,9.12-4.08,18.36-5.64,27.72q-10.8,63-26.28,125.28a219.28,219.28,0,0,0-6.36,39.6q-6.3-53.28-16.44-106.56l1.44-10.56-2.4,7.08c-.72-.12-1.08.12-1.08.84l.12,2.28q-9.9,30.78-17,63.72a123.33,123.33,0,0,1-8,24.36l-.36.84-.48-3.72-8.16-49.08q-11-63-18.6-126.12c-4.2,14.52-4.56,30.12-1,46.92a999.24,999.24,0,0,1,18.6,126.36,88.63,88.63,0,0,0,6,26.64,27.72,27.72,0,0,0,2.64,8.64,32,32,0,0,0,2.4-5.52,739.22,739.22,0,0,0,24.36-102.6,445.65,445.65,0,0,0,5.76,52.92c1.32,7.68,2.28,15.36,3,22.92,1.08,11.64,4.2,21.6,9.12,29.88a1.2,1.2,0,0,0,1-1.56l.36-.24a92.44,92.44,0,0,0,10.8-28.56q12.78-62.82,24.72-125.76a240.55,240.55,0,0,0,4.56-47.28l-.72.12ZM378.24,213q31.68-4.68,51.48,21.12c5.64,11.16,4.68,21.48-2.88,31.2q-18,22.86-47.4,28.56.36-40.86-1.2-81Zm9.24-13.08-9.12,3.48-.6-1.2q-3.78,47.7-6,95a24.22,24.22,0,0,0,.12,4.2,222.7,222.7,0,0,1-1.8,59.16,139.8,139.8,0,0,0-2,21.12,41.37,41.37,0,0,0,4,18.48,442.87,442.87,0,0,0,7.32-93.48l21.12-5.16a546,546,0,0,0,39.72,86.88l7.68,13.08A16.6,16.6,0,0,0,451.32,389l-.12-2-.48-2-.48-2.16L447,381.48l-41.76-82a60.13,60.13,0,0,0,21.48-15.24L429,281.4a41.22,41.22,0,0,0,7.8-19.92,65.94,65.94,0,0,0,.48-9.72A62.18,62.18,0,0,0,431.52,227a44.2,44.2,0,0,0-11.4-15.12,40.07,40.07,0,0,0-9-5.88,64.51,64.51,0,0,0-20.88-5.76Z" transform="translate(-155.09 -195.36)"/></svg>