<svg id="Layer_1" data-name="Layer 1" xmlns="http://www.w3.org/2000/svg" viewBox="0 0 269.32 205.32"><defs><style>.cls-1{fill-rule:evenodd;}</style></defs><path class="cls-1" d="M150.72,199.2c-.84,0-1.32.36-1.2,1,1.08,14,3,28.32,5.52,43.08q10.8,62.82,19,125.76a51.18,51.18,0,0,1,0,12.12c-1.08,9.84,1.08,17.4,6.48,22.56l1.2-1.32a1.74,1.74,0,0,0,1.56-.6,146.26,146.26,0,0,0,16.44-46.32A312.22,312.22,0,0,1,212.16,307l2-6.36a57.78,57.78,0,0,0,2.76,9.6,329.48,329.48,0,0,1,10.32,31.32A285.34,285.34,0,0,0,250,400.68a18.18,18.18,0,0,0,2.52-4l1.32,2a2.05,2.05,0,0,0,2.64-1.56A724.8,724.8,0,0,0,280,300.12,466.42,466.42,0,0,1,295.2,238.2a106.69,106.69,0,0,0,5.16-39.6,226.25,226.25,0,0,0-19.8,58Q268.14,318.66,255.12,381a18.09,18.09,0,0,0-2.88,4.08q-17.82-49-35-98.52l.24-.84a8.53,8.53,0,0,0-1.08-5.52l-.48-4.44-.6.12a304.47,304.47,0,0,0-23.4,76.92,41,41,0,0,1-3.36,10.68,81.8,81.8,0,0,0-6.84,22.68c-1.32-20.28-3.48-40.56-6.24-60.6q-9-62.82-22.56-124.8L152,200Zm259.44,88.68-1,.72L407.76,290a156.8,156.8,0,0,0,1.2,32.64q4.32,30.78-15.6,53.28-19.8,22.32-42.12,6.12a29.4,29.4,0,0,1-3.12-13.8c.36-26.76-.36-53.28-2.4-79.56-.72.24-1.08.6-1.08,1a546.91,546.91,0,0,0-3,87.48c.48,10.92,5.4,18.48,14.64,22.92q23.94,11.52,41.4-11.64,23.94-31.68,20.76-72.84Q417.18,299.22,410.16,287.88Z" transform="translate(-149.5 -198.6)"/></svg>