<svg id="Layer_1" data-name="Layer 1" xmlns="http://www.w3.org/2000/svg" viewBox="0 0 303.84 210.48"><defs><style>.cls-1{fill-rule:evenodd;}</style></defs><path class="cls-1" d="M319.92,381.72c-16.44,2-24.84-5-25.32-21.24-.36-11.16,4.44-19.44,14.28-24.84l21.84,42.48A24.06,24.06,0,0,1,319.92,381.72ZM298.8,318.36a21.73,21.73,0,0,1,4,5.28c-12.6,12-17.88,26.76-15.84,44.4q3.06,27.18,27.72,30.6c9.48,1.08,17.4-1.8,23.88-8.64l8.28,11.28c4.68-9.12,4.08-17.88-2-26.16a405.85,405.85,0,0,1-33.48-54.84A165.35,165.35,0,0,0,289,287.4C285.6,298.08,288.84,308.4,298.8,318.36ZM151.8,199.2q-1.08-.18-1.08.72a268.49,268.49,0,0,0,4.8,44q12.06,62.46,19,125.88,2,17.46,9,30.6a5.71,5.71,0,0,0,1.92-4.8V394l1.32,2.4a114.72,114.72,0,0,0,7.56-27.48,252.35,252.35,0,0,1,5.52-27.12,205.78,205.78,0,0,0,5.4-31.08l.72,1.92a687.18,687.18,0,0,1,20.64,67.08c3,11.4,7.56,20.52,13.92,27.24a5.92,5.92,0,0,0,1-4.68l-.84-4.2a22.54,22.54,0,0,0,2.64,5.4,47.77,47.77,0,0,0,5.64-16.92q8.82-63.54,19-126.6a326.12,326.12,0,0,0,4.08-63.48,45.3,45.3,0,0,0-6.36,18L247.8,341.16a209.65,209.65,0,0,1-7,31.2,46.44,46.44,0,0,0-2.16,17.52,631.34,631.34,0,0,0-31.44-98.16l-1.2,2-.12-7.68a276,276,0,0,0-16.56,60.72,165.93,165.93,0,0,1-5,21.6l-.48,1.92c-1.32-15.24-3.24-30.36-5.52-45.48Q168.6,262.38,154,200.76l-.84-.72Zm232.44,1.32c-2.88,38.76-4.32,77.64-4.32,116.88a321.21,321.21,0,0,1-1.56,32.28,199.13,199.13,0,0,0,1,48l3.24-1.08h.12V397a6,6,0,0,0,1,2.4,1.72,1.72,0,0,0,1.2.48,217.4,217.4,0,0,0,67.8,1.68A16.36,16.36,0,0,0,454,389.4l-.12-.84a4.42,4.42,0,0,0-2.52-3.24l-49.8.6-16.2-1L384,386.52a529.88,529.88,0,0,0,4-58.92q.9-64.8-2.4-128.16A1.15,1.15,0,0,0,384.24,200.52Z" transform="translate(-150.72 -196.44)"/></svg>