<svg id="Layer_1" data-name="Layer 1" xmlns="http://www.w3.org/2000/svg" viewBox="0 0 527.78 395.88"><defs><style>.cls-1{fill-rule:evenodd;}</style></defs><path class="cls-1" d="M168,233.76a185.92,185.92,0,0,0-2.52,43.92,425.82,425.82,0,0,1-.36,46.32q-4.32,64.26-6,128.16a2.32,2.32,0,0,0,2.16,2.16,87.29,87.29,0,0,0,5-28.2c.72-24.6,1.68-49.08,2.76-73.68L204.36,345c-.48,37.32-1.2,74.4-2,111.48a2.32,2.32,0,0,0,2.16,2.16,61.32,61.32,0,0,0,5.52-24q1.62-35.82,2.28-72.36,1.44-64.62-3.12-128.16h-.36q-4,46.44-4.44,94.08v4.44l-2-.36A145.31,145.31,0,0,0,169.56,343l2.4-45A258.69,258.69,0,0,0,168,233.76Zm3.72-157.92q-8.64,48.78-14.88,99c-5.16,42.24-10.8,84.48-17.16,126.6Q130.14,365,120.12,427.2c-2.76-13.8-5.28-27.48-7.68-41.28A1179.88,1179.88,0,0,1,97.32,259.08c-.84-12.36-4-22.44-9.6-30.48q-3.06,35.82-6.6,72.24A1065.49,1065.49,0,0,1,60.84,427a3.57,3.57,0,0,1-1-2.16c-3.6-42.12-6.72-84.24-9.36-126.6S44.4,213.6,40.08,171.48c-2.16-21-4.08-42.12-5.64-63.36A128.27,128.27,0,0,0,28.68,77.4,99.69,99.69,0,0,0,27,113.28c5.16,41.88,9.36,84.12,12.36,126.48s6.24,84.48,10,126.6c1.8,21,3.12,42.12,3.72,63.36.24,10,3.24,17.28,8.88,21.84,4-13.92,7.2-28.08,9.84-42.36Q83.46,346.38,91,282.72q4,43.2,10.8,85.92,5,31.68,9.48,63.48c1.32,9.6,4.44,17,9.36,22.44a335.17,335.17,0,0,0,14-62.28q7.92-63.54,17.28-126.84,9.18-63.18,18.84-126.36a247.17,247.17,0,0,0,1.8-63.6C172,75.6,171.72,75.72,171.72,75.84ZM325,80.64a203.43,203.43,0,0,0-4.32,36.48q-2.16,64.8.24,128.28c5-5,6-10.2,3-15.36-.36-7.32-.36-14.64,0-21.72,2.28-43.32,3-86.16,2.16-128.28A.81.81,0,0,0,325,80.64ZM287,80.28Q292.26,133,301,186.12q7.92,48.42,18,96.36a238.19,238.19,0,0,0-53.4,6.36q5.94-40,10.2-80.16c2.28-21.36,4.8-42.72,7.8-64a268.52,268.52,0,0,0,1.32-63.48,425.3,425.3,0,0,0-8.16,53.4Q271,197.28,262,259.56l-4.8,31.56L254,292l-.24.84a8.62,8.62,0,0,0,1.08,7.32h.84c-4.92,29.16-10.44,58.08-16.68,87-2.4,10.8-5.28,21.48-8.64,31.92-4.44,13.8-5.76,27-3.72,39.6l.6-.24a845.85,845.85,0,0,0,30.84-123L264,299.64l57.84-4.08,3.36,15.36q13.86,62.46,22.2,125.88C349,449,352.92,459.24,359,467.28a4.61,4.61,0,0,0,1.08-4c-2.76-18.36-5.64-37-8.88-55.56q-6.66-39.24-15.48-78.12-14.22-62.28-24-125.4-9.54-63.18-23.64-124.92C287.28,79.32,286.92,79.68,287,80.28Zm91.2,17.4q-.54,51.66-2.4,103.68l-1.08-2.64Q351.9,139.14,327.12,80c-.72-.12-1.08.12-1,.72a203.39,203.39,0,0,0,13.08,47.88c6.72,16.56,13.2,33.24,19.32,49.92a276.76,276.76,0,0,1,12.84,46.32,117,117,0,0,0,9,28.92A107.5,107.5,0,0,0,382,233.28,79.58,79.58,0,0,0,384.48,213c.12-43.32-.6-86.16-2.16-128.28C379.56,88,378.24,92.28,378.24,97.68Zm141.24-10.8a3.52,3.52,0,0,0-1.56,1.44,88.71,88.71,0,0,0-9.48,20.52,188.25,188.25,0,0,0-10.32,19.56q-26.46,58.86-54,116.16A158.08,158.08,0,0,1,427,272.76a37.79,37.79,0,0,0-6.12,11q1.26-35.82,1.44-71.88c.12-43.32-1.56-86.16-5.28-128.28-.36.12-.6.12-.6.24-1.8,29.16-2.16,58.56-1.32,88.44q2,64.62-1.32,128.28-3.24,64.62-8.16,129c-.84,12.6,1,23,5.4,31.44a2.58,2.58,0,0,0,.72-1.56q2.52-59.4,6.24-118.56c.84-14.28,1.68-28.44,2.28-42.72l1.32,3.84Q440.1,270.9,455.76,238c4.68,18.84,10.44,37.56,17,56q21.42,59.58,44.76,118.2a226.33,226.33,0,0,0,33.84,59.16l.72-.84c2.76-6.36,2.28-12.6-1.2-18.72a500.91,500.91,0,0,1-48.24-102Q482.16,290.58,458,233.28l10.2-22.8q25.2-59.22,54.84-115.2l.36-1.56a5.58,5.58,0,0,0-.72-5.76l-.84-.6Z" transform="translate(-26.12 -75.48)"/></svg>