<svg id="Layer_1" data-name="Layer 1" xmlns="http://www.w3.org/2000/svg" viewBox="0 0 311.18 331.76"><defs><style>.cls-1{fill-rule:evenodd;}</style></defs><path class="cls-1" d="M67.92,110c2.52,37.2,5.64,74.76,9.12,112.8q6.12,63.9,14,127.44a295.29,295.29,0,0,0,14.4,62.28,2.11,2.11,0,0,0,.72-1.56v-7.92l1,4.44a2.67,2.67,0,0,0,1.08-1.56c4.32-19.8,8.16-39.6,11.4-59.64q7.92-48.6,13.68-96.6a267.68,267.68,0,0,0,2.4,27.6q9,63.72,19.68,126.48c1,5.28,2.76,9.36,5.28,12.12l.6,3.48.48-2.52a7.32,7.32,0,0,0,1.92,1.44,6.6,6.6,0,0,0,.84-4.68l-1.08-5c2.28-11.64,4.08-23.52,5.4-35.76q6.84-63.72,19-126.6,12.06-63.54,20.28-126.12a993.53,993.53,0,0,0-25,110.4l-21,125.76A213.28,213.28,0,0,0,159.24,386c-2.16-12.12-4.08-24.36-5.88-36.72-5.52-40-11.4-79.56-17.76-119l1-10-2,3.84-.12-.6c-.36-.12-.6-.12-.72.24v2.28a75.91,75.91,0,0,0-6.6,23.28q-7.92,63.54-20.28,126.48a74,74,0,0,0-1.32,11.28,240.07,240.07,0,0,0-3.36-24.24A1243.56,1243.56,0,0,1,85.92,236.4,1113.79,1113.79,0,0,0,68.76,109.92C68.16,109.8,67.8,109.8,67.92,110Zm178.92,41.4,13,126.12-37.68,4.92,17.28-100.8Zm1.68-22.68-.72-1.8a127.13,127.13,0,0,0-12.24,38.16q-9.9,63.18-23.4,125.88a977.17,977.17,0,0,0-18.48,124.32l.48.72,1.68,1.44q11-54,21.6-110l3-15.84a268.38,268.38,0,0,0,40.2-1.68q3.78,56,6.48,112c.48,10,3.48,17.28,9.12,21.84a278.46,278.46,0,0,0-.6-42.36q-4.32-46.62-7.8-93.24A11,11,0,0,0,267,278l-1.68-24.12a1097.14,1097.14,0,0,0-16.2-126.48ZM370.2,154q-8.1,34.92-18.72,69.24c-6.24,20-12.72,40.08-19.44,59.88-7.08-29.76-14.16-59.4-21.48-89q-7.92-32-17.28-61.2A61.72,61.72,0,0,0,294.6,163q17.46,62.1,32.88,124.44l1.32,5.4c-6,17.64-12.12,35.16-18.36,52.68-1.8,5-3.72,10-5.76,14.64q-13.5,31.86-12,63.36a2.26,2.26,0,0,0,1.44-1.32c10.44-35.16,21.84-70.44,34-105.84l3.84-10.8c8,35.16,14.52,70.56,19.32,106.44,1.56,11.76,5.16,21.6,11,29.64a4.82,4.82,0,0,0,1.44-4c-2.76-19.2-6-38.52-10-57.84q-6.3-30.78-13.32-61.2L335.16,296l9.12-26c10.56-29.88,19.92-60,28-90.6a196.81,196.81,0,0,0,6.84-47.64A74.78,74.78,0,0,0,370.2,154Z" transform="translate(-67.9 -109.84)"/></svg>