<svg id="Layer_1" data-name="Layer 1" xmlns="http://www.w3.org/2000/svg" viewBox="0 0 364.34 334.22"><defs><style>.cls-1{fill-rule:evenodd;}</style></defs><path class="cls-1" d="M271.2,269l21.6-121.56L304.32,262.2ZM78.72,98.28a119.93,119.93,0,0,0,1.32,27q10.08,63,19,126.24t16.8,126.84a89.4,89.4,0,0,1,.48,16c-.6,10.32,2.52,17.64,9.48,22.08l.36-1.56-.6-8.64q6.12-38.7,14-77.28,10.44-51.48,17-103.2A313.58,313.58,0,0,1,166.68,265q12.24,62.82,21.24,126.12,2.7,17.82,10.08,31l.84-.84a42.46,42.46,0,0,0,.12-22.92q-9.36-36-16.32-72.48c-7.56-40.2-15.6-79.32-23.88-117.48l.6-5.4-1.68.36-.24-.84-.36-.84a18.51,18.51,0,0,1-2-4.08c-4.2,4.2-5,9.6-2.64,16.2l.72,2c-2.76,14-5.4,28.08-7.92,42.36-7,40.68-14.4,81.36-22.32,121.8-1.2-10.2-2.52-20.52-4.08-30.84q-9.9-63.18-17.4-126.72-7.56-63.9-21-125.76C79.32,96.48,78.72,97.08,78.72,98.28ZM295.44,108a140.18,140.18,0,0,0-11,42.6q-1.26,14.58-4,29.16L275,208.92c-2.76,15.12-5.64,30.24-8.76,45.24l-8.88,43.68c-2.88,14.64-6.12,29.28-9.84,43.8-3.84,15-7.08,30.24-9.84,45.48-2.4,14-2.76,27.12-1,39.24l32.76-148.92,36-4.8A857,857,0,0,0,324,409.2a58.86,58.86,0,0,0,2,7.56l2.4,7.2a785.2,785.2,0,0,0-8-78.36c-.84-5-1.44-10.08-1.92-15l-2.76-30.12-3-32.28L302.64,173c-.84-8.52-1.92-17.16-3.24-25.68-1.56-10.92-2.64-21.72-3.36-32.64Zm-47.88,5a210.81,210.81,0,0,0-17.28,57.6q-9.9,63.54-17.88,127.44Q204.48,360.9,201.24,424a2.55,2.55,0,0,0,2.16,2.16,345.9,345.9,0,0,0,9.72-60.48q4.68-64.08,13.2-127.56,8.46-63.9,22.8-125.76A1.37,1.37,0,0,0,247.56,113Zm136.8,166.44a108,108,0,0,0,12.72-10.56l4.44-4.32c12,7.08,20.64,17.52,25.8,31.2a165,165,0,0,1,10,45.12,90.07,90.07,0,0,1-8,44.64c-4.32,9.36-12.12,15.12-23.4,17.4a354.59,354.59,0,0,1-42.24,6.72l2.28-122.88A41.92,41.92,0,0,0,384.36,279.48ZM371.64,118.2c18.48,8,31.2,22.08,38.28,41.88a114.92,114.92,0,0,1,6.24,48.84q-4,46.8-49.68,63.12l1.68-36.84a908.23,908.23,0,0,0-1.32-118.56A32.05,32.05,0,0,1,371.64,118.2ZM364,116a124.06,124.06,0,0,0-1.32,22.56c.36,11.4.36,22.8.12,34.08q-1.08,49.5-1.68,99.36l-.6.48-.6.84-.24.72a26.61,26.61,0,0,0-.84,8.16,7,7,0,0,0,2,4.8l-.12,14.64c-.24,21.72-1.32,43.44-3.24,64.92a293,293,0,0,0,1.32,64.2,76.42,76.42,0,0,0,2.52-7.92l.12.84q36,5.22,67.56-14.64a11.33,11.33,0,0,0,5.28-6.72q18.18-56.7-2.28-114.24c-4.92-14-13.44-24.12-25.32-30A81.1,81.1,0,0,0,421,221.4a148.17,148.17,0,0,0-8.64-74.28q-13.68-35.64-49.8-41.28a2.3,2.3,0,0,0-1.44,1.92,21,21,0,0,0-.6,4.8A4.65,4.65,0,0,0,362,115.8Z" transform="translate(-78.47 -96.58)"/></svg>