<svg id="Layer_1" data-name="Layer 1" xmlns="http://www.w3.org/2000/svg" viewBox="0 0 283.43 211.56"><defs><style>.cls-1{fill-rule:evenodd;}</style></defs><path class="cls-1" d="M303,341.28c4.8,12.84,9.48,25.68,14.16,38.76l1,2.76-4.92,1.8c-13,3.84-20.28.12-22.08-11.16C288.84,358.44,292.8,347.64,303,341.28Zm-16.92-43.44c4.32,10.68,8.52,21.6,12.72,32.52-7.32,5.64-12.24,13.32-14.64,23.28q-6.84,29,13,46.56a41.29,41.29,0,0,0,15.36-.24c5.16-1,9.12-2.52,11.76-4.56A69.38,69.38,0,0,0,333,406.92a3.67,3.67,0,0,0,1.32-3.84,291.08,291.08,0,0,0-17.16-53.4,412.12,412.12,0,0,0-28.8-55.56C286,294.48,285.24,295.68,286.08,297.84ZM151.32,196.92a352.22,352.22,0,0,0,8,52.32A860.07,860.07,0,0,1,179,374c1,11.76,3.6,21.6,7.92,29.64a2.58,2.58,0,0,0,.72-1.56V400.2l1.2,2.64a155.52,155.52,0,0,0,4.8-17.88c3.6-18.12,7.56-36.12,11.76-54,1.08-4.8,2-9.6,2.88-14.28.6,5,1.44,10.08,2.4,15.12,3,14.76,5.64,29.76,7.92,44.88,1.56,10.92,4.8,20.4,9.72,28.32l.72-.6,1.32-2.4q5.94-2,6.48-10.44l.6-7.68q7.38-63.54,20.4-125.88a280.61,280.61,0,0,0,6.48-62.64Q250.14,250.8,239,308.4a456.53,456.53,0,0,0-8.64,78.24l-1.2-.84-.12-.72C223.92,356.16,217.56,328,210,300.24c.24-4,.36-7.92.24-11.76l-2.16,4.68L207,289.32c-.36.12-.48.12-.48.24l.12,7.08a152.88,152.88,0,0,0-9.12,33.12,340.23,340.23,0,0,1-10.2,44.16v.36a490.71,490.71,0,0,0-5.52-54.36,779,779,0,0,0-30-123.24ZM361.8,195.6a229.9,229.9,0,0,0-4.44,76.2A287.14,287.14,0,0,1,358.92,304l-.12,32-.24,8.16a145.21,145.21,0,0,1-1.32,16.08A87.07,87.07,0,0,0,360,396.72l1.32,3.12a553.93,553.93,0,0,0,4.44-76l-.12-31.8,45.12-.6a15.63,15.63,0,0,0,1.44-8.76,12.76,12.76,0,0,0-1.08-4.2l-.72-1.68-.36-.36a84.62,84.62,0,0,0-44.64,4.44l-2.4-64.2,70-.12a12.89,12.89,0,0,0,1.68-8.4,10.34,10.34,0,0,0-2.16-5.28l-70-.12Z" transform="translate(-151.32 -195.36)"/></svg>