<svg id="Layer_1" data-name="Layer 1" xmlns="http://www.w3.org/2000/svg" viewBox="0 0 295.14 206.64"><defs><style>.cls-1{fill-rule:evenodd;}</style></defs><path class="cls-1" d="M288.24,357.72c-3.48,15.72-1.92,30.12,4.44,43.2,12.24-2,19.68-9.48,22.2-22.08a6.26,6.26,0,0,0,3-4.92c-6.12,1.32-12.6,5.4-19.44,12.12l-4.56-.72-.12-.84A850,850,0,0,0,298.92,296a84.48,84.48,0,0,0-6.6,30.24A181.76,181.76,0,0,1,288.24,357.72Zm16.32-98.16c.6,2.76-.24,4.68-2.52,5.64-.6.12-.84-.24-.6-1.08Zm-.84-9.72a25.07,25.07,0,0,0-4.56,24.6l3.48.72c4.92-4.2,7.08-9.84,6.72-16.68a19.91,19.91,0,0,0-2.88-8.76ZM258.36,213.6,235.68,338.76A229.37,229.37,0,0,1,228,369.12q-8.46-45-18.72-90.36l-.12-4.68-.48,1.56-.6-2.28-1,.12.6,4.8a331.88,331.88,0,0,0-17.52,73.08,117.17,117.17,0,0,1-6.12,25.8c-.72-18.72-1.92-37.56-3.6-56.64a483.78,483.78,0,0,0-27.6-124.08c-1-.12-1.32.24-1.2,1.32,2.52,15.36,5.52,30.84,9,46.32a661.42,661.42,0,0,1,15.6,125.76c.36,11.88,2.88,22.44,7.68,31.44a1.45,1.45,0,0,0,.72-1.08v-1.08l1.44,2.16a270.25,270.25,0,0,0,11.28-47.64c2.4-16,5.4-31.8,8.88-47.52a117.37,117.37,0,0,0,2.64-16.68q4.5,39.78,9.84,80.88c1.56,11.88,4.8,22.2,9.6,31l.36-.36.12.36.6-1.56a20.1,20.1,0,0,0,2.52-7.08,141.53,141.53,0,0,0,4.92-21.36q9.9-63.18,23.4-125.52a179,179,0,0,0,4.08-47.4A37.62,37.62,0,0,0,258.36,213.6ZM376.68,374.16Q369.12,317.1,360,259.08a362.38,362.38,0,0,0-15.6-62.4l-.48.24q4.14,39.78,10.44,80.64,9.72,62.46,20.64,124l.72-.24,2-4.2.72,1.2a277.73,277.73,0,0,0,12.24-29.88L432,247.92c3.6-10.32,7.44-20.4,11.64-30.12,3.72-8.76,4.2-16.32,1.2-22.92A103.44,103.44,0,0,0,434,218.16q-20,60.3-42.24,120.36c-3.84,10.32-8.16,20.4-12.84,30.12A41.45,41.45,0,0,0,376.68,374.16Z" transform="translate(-151.66 -194.88)"/></svg>