<svg id="Layer_1" data-name="Layer 1" xmlns="http://www.w3.org/2000/svg" viewBox="0 0 440.36 356.52"><defs><style>.cls-1{fill-rule:evenodd;}</style></defs><path class="cls-1" d="M319.92,122a962.45,962.45,0,0,0-5.16,108.84q.54,64.62-1.08,129-.9,32.58-4.32,64.8c-1.08,9.84,1,17.76,6.12,23.64a421.86,421.86,0,0,0,6-70.56l1.08-129.12q.54-65.34-.84-128.28A1.67,1.67,0,0,0,319.92,122Zm-107-10.68a559,559,0,0,0-21.24,110.16q-5.94,63.72-10.08,127.56c-1.08,15.6-2.4,31.08-4.2,46.44q-13.86-58.86-28.92-117.36c-4.92-19.32-10.56-37.92-16.68-55.8l.24-2.64-.6-.84-1.32-1.56v.24l-.24-.48-.36.48.12,1.2a254.33,254.33,0,0,0-10,42.84Q110.46,325,102,388.56a247.79,247.79,0,0,1-6.36,31.2l-.12.6c-1.44-18.12-3-36.24-4.8-54.36-4.2-42.36-9.24-84.6-15.36-126.72Q66.18,177,59,114.48l.6-.72a4.7,4.7,0,0,0,1.2-4.2l-.24-.72-3.72-7.32c-3.48,4.2-4.92,9.84-4.08,17,4.8,42.6,10.2,85,16.2,127.32q8.82,63.18,14.76,126.72c2,21.12,3.48,42.24,4.44,63.36.36,7.32,2.88,12.24,7.32,14.52l.84-1.32,1.08,2.4c8-34.32,14.4-69.6,19.32-105.84,5.16-38.76,10-77.4,14.16-116a487.19,487.19,0,0,0,14.16,67.56A935.66,935.66,0,0,1,171.36,420.6c1.68,11.64,4.68,21.48,9.12,29.64a128.27,128.27,0,0,0,1.8-19.08c3-22,4.92-44.16,5.88-66.84q2.52-63.9,9.6-127.44Q205,172.8,213.48,111C213.12,111,212.88,111.12,212.88,111.36Zm15.84,22.56Q230,198.54,227.52,263T224,392a321.69,321.69,0,0,1-2.28,32.28c-1.32,10,.48,17.76,5.28,23.52a3.29,3.29,0,0,0,1.32-2.52c2.28-25.08,3.36-50.52,3.48-76.2q0-41.22,1-82.44l.72-.36c15.36-1.44,30.84-2.28,46.32-2.4.24,26.28.36,52.44.36,78.72a647.35,647.35,0,0,1-3.48,64.8c-1.08,10.2.84,17.88,5.76,23.28a429.36,429.36,0,0,0,5.16-73.8l-1.56-129.84c-.12-21.6.24-43.2,1.08-64.92A567.8,567.8,0,0,0,286,118a235.62,235.62,0,0,0-7.08,57.12c-.12,19.56,0,39,.36,58.44l.48,36.6h-1.56a103.89,103.89,0,0,0-45,4.44l1-34.56q2.34-65.16.12-128.28C230.4,117.72,228.6,125.16,228.72,133.92Zm216.12,8q8.64,63.18,16.68,126.48T476,395a293.38,293.38,0,0,0,13.2,63c3-2.28,4.2-5.76,3.48-10.2q-5.22-35.28-9.6-70.92c-5.16-42.24-10.68-84.36-16.32-126.48Q458.34,186.72,448.32,124C445.08,128.88,444,134.88,444.84,142ZM383.4,121.2a257.55,257.55,0,0,0-8.28,52.44c-2.4,42.36-6,84.48-10.68,126.6q-7.38,64.44-20.88,127.2-4.86,14.58,3.6,20.88a26.51,26.51,0,0,0,3.6-9.6q11.7-62.64,19.32-126,7.38-63.36,12.84-127.2A412,412,0,0,0,383.4,121.2Zm2.52,1.68a644.54,644.54,0,0,0,6.72,112.56c3.12,21.12,5.64,42.24,7.44,63.36a79.67,79.67,0,0,0,8.52,30.84,32.17,32.17,0,0,0,3.36-17.4q9.54-47.52,16.92-95.88c1.68-10.56,3.84-20.88,6.36-31.08a272.85,272.85,0,0,0,8.76-63,44.31,44.31,0,0,0-7.32,17.16q-13.14,62.46-23.76,125.88c-1.32,7.68-2.76,15.36-4.44,22.92L402.84,249q-8.46-63.54-16.2-126.36C386.28,122.52,386,122.52,385.92,122.88Z" transform="translate(-52.57 -101.52)"/></svg>