<svg id="Layer_1" data-name="Layer 1" xmlns="http://www.w3.org/2000/svg" viewBox="0 0 280.62 208.92"><defs><style>.cls-1{fill-rule:evenodd;}</style></defs><path class="cls-1" d="M300.84,294.36A349.85,349.85,0,0,0,294,346l-2.28,31.56c-1.2,14.4,4.32,22.44,16.68,24,13.8-6.36,20-16.08,18.72-29.28-7.44,7.92-16,12.6-25.68,14.16a250,250,0,0,1,2.28-68.76C305.28,308.52,304.32,300.72,300.84,294.36Zm1.68-22.68L303.6,266l.84,6.48,3.24.84c4.68-6.48,5-13.32,1.08-20.4l-2.52-.24c-5.64,4.56-7.32,10.08-4.8,16.68ZM268.92,198A576.07,576.07,0,0,0,252,272.88q-5,31.5-11.88,62.28c-3.48,15.24-6.24,30.48-8.4,45.72a318.58,318.58,0,0,0-5.52-43.44A436.68,436.68,0,0,0,211,281l.36-9.36-2.4,4.32q-.9,0-.72.72l.12.36a76.44,76.44,0,0,0-6.6,20.76,733.92,733.92,0,0,1-18.12,81.6q-1.26-29-5-58.32A777.28,777.28,0,0,0,152.88,197c-.72-.12-1.08.12-1,.72q4.32,38.16,10.92,76.56,10.44,61.56,17.88,124c.48,1.8,1.44,2.4,2.88,1.92a15.67,15.67,0,0,0,2.52,4.32c7.68-27.72,14.28-56.28,19.92-85.44a286.66,286.66,0,0,0,4.2-29.28c5.52,35.88,11.52,71.52,18.12,107.16l.36.72.72.6v.48a2.93,2.93,0,0,0,3.72,1.68A366.5,366.5,0,0,0,244.92,355Q257,292.68,268,229.44a138.12,138.12,0,0,0,2-31.92C269.4,197.4,269,197.64,268.92,198Zm131.4,110.28,9.6,3.36q22.86,22,8.64,49.8c-7.32,14.28-19.32,21.6-36,22.08a55.65,55.65,0,0,1-18.84-2.28l5.16-67.8A33.1,33.1,0,0,0,395,311.76,26.82,26.82,0,0,0,400.32,308.28ZM369.84,206.16C387,209,400,217.92,408.72,232.92c8,13.92,9.12,28.08,3.36,42.48-6.48,16.2-18.24,24.36-35.4,24.6l-6.24-.48L368.28,195.6l-10.2,183.84-1.44-.6a16.19,16.19,0,0,0-2,8.88,23,23,0,0,0,1.2,6.48l1.44,1.2.84,3.24,3.12-.6a39.94,39.94,0,0,0,29.28,2.88c16.44-4.44,28.32-14.16,35.64-29.28a61,61,0,0,0,3-47.28,43.17,43.17,0,0,0-8-14,34.23,34.23,0,0,0-5.64-5.4,43.16,43.16,0,0,0-6.84-4.68A58,58,0,0,0,423.12,268c2.16-17.88-2.16-34.32-12.84-49.08-10-13.8-23.16-20.88-39.6-21l-1.2,5.88Z" transform="translate(-151.9 -195.6)"/></svg>