<svg id="Layer_1" data-name="Layer 1" xmlns="http://www.w3.org/2000/svg" viewBox="0 0 557.52 589.72"><defs><style>.cls-1{fill-rule:evenodd;}</style></defs><path class="cls-1" d="M381.6,507a72.21,72.21,0,0,0-10,10.32,22.69,22.69,0,0,0-3.24,5.16c.48-1,1.56-1.68,3.36-2q6.66-1.44,28.8,1.44l.6.84a9,9,0,0,1,.24,2.4c0,1.8-.12,2.52-.24,2.4h-.24l-.6.48-10.08-1-6.12-.84-7.92,1-7.8,1.68-.36-1.08a12.73,12.73,0,0,1-.24-2.52,7,7,0,0,1,.36-2.52,12.08,12.08,0,0,0-1.44,5.28c0,5.88,4.92,11.28,14.88,16l14.64-.24,4.08-2.88c2.28-1.68,3.84-2.64,4.56-2.76l.6,1.08.24,2.64a5,5,0,0,1-1.44,4q-1.08.9-8.28,5l-15.72-.24c-8.28-6.36-13-10.2-14.16-11.76a6.48,6.48,0,0,1-1.44-3.84l-.12-7c0-6.12,1-11.28,3-15.24,2.76-5.4,7.56-9.72,14.4-12.84,10.08,1.08,16.56,2.28,19.44,3.72a4.59,4.59,0,0,1,2.16,4.32,7.77,7.77,0,0,1-.24,2.76l-.6.84c-1.56,0-4.08-.84-7.32-2.4-2.88-1.68-4.44-2.52-4.56-2.52Zm-40.32,79.56c0-2.76,2.76-22.68,8.4-59.76L361.32,448a6.56,6.56,0,0,1,2,1.56,4.23,4.23,0,0,1,.72,2.76c0,5.52-2.4,26.16-7.32,62q-7.2,52.38-10.32,67.56l12.72-.84L372.24,580h28.08a4.76,4.76,0,0,1,2,2,6,6,0,0,1,.72,3.12l-.24,3.12c-.6,1.68-2,1.92-4.44.72l-13.32.24-13.92.6-6.24.24-6.84.84-15.6-.36-.84-1.2A9.06,9.06,0,0,1,341.28,586.56Zm-11.88-1.2a6.45,6.45,0,0,1,.6,2.52,4.91,4.91,0,0,1-.36,2.28l-.72.72-37.32-.36-.48-1.08a13.18,13.18,0,0,1-.12-2.52q0-4.14,2.88-17.64c2.28-10.92,4.68-18.12,7.08-21.48l.6,1a7.88,7.88,0,0,1,.24,2.28q0,5.22-2.52,15.84L295.08,584l31.92-.48A3.63,3.63,0,0,1,329.4,585.36ZM304,506.52a14.15,14.15,0,0,1,.24-2.64l.12-.72,20.28-.6v-.48l15.36.24.6,1a7.88,7.88,0,0,1,.24,2.28,5.17,5.17,0,0,1-.36,2.4l-.72.6-7.8.36-8.4.72h-1.08v.24c0,3.6-.84,10.2-2.4,19.92-1.56,8.76-2.76,14.76-3.6,18.24l-1.08.36-.48-2.28-.12-3c0-1.32,1-7.56,2.76-18.84l2.28-14.64-15.24-.24-.36-.72A7.5,7.5,0,0,1,304,506.52Zm-12.24,2c-.36.12-1.08,1.08-2.28,2.76a24,24,0,0,0,4.56,4.92l5.16,3.84c4,3.24,5.88,6.84,5.88,10.92a21.26,21.26,0,0,1-2.64,9.84c-2.4,4.44-5.52,6.72-9.24,6.72-5.16,0-8.52-1.56-10.08-4.8a10.58,10.58,0,0,1-.84-3.48l.12-1.8.36-.24.72-.48,2.28,2.64a2.67,2.67,0,0,0,2,1.32c2.52,0,5.88-1.32,9.84-4,3.48-2.4,5.28-4.08,5.28-4.92,0-1.08-.84-2.16-2.52-3.48l-5.52-4.2c-5.4-4.08-8.16-8.4-8.16-12.84a8.86,8.86,0,0,1,2.4-6,11.3,11.3,0,0,1,5.16-3.12,6.83,6.83,0,0,1,5.16.12,4.08,4.08,0,0,1,2.4,4.08c0,1.8-.12,2.64-.24,2.4l-.12.12-.12.48-2-.72a10,10,0,0,0-3.72-1C293.76,507.72,292.44,508,291.72,508.56Zm17-97.56c-.36,7-2,17.4-4.8,31.32q19.26-.18,27.36-6.84c3-2.52,4.56-5.4,4.56-8.52,0-2.64-1.32-5.4-3.84-8.28l-8.52-8.28-12,.72Zm-5-2.28a2.76,2.76,0,0,1-.48-1.68l.24-1.08.12-3,.12-1,4-.48,4.92-.12c12.12,0,20.16,4,24.12,12,1.56,3.24,2.4,7.68,2.4,13.32a28.86,28.86,0,0,1-3.24,13.44,19.72,19.72,0,0,1-14.16,10.56q4,6.66,10.8,21.6c5.88,13.08,8.76,20.52,8.76,22.32v2.28l-.24,1.32-.48.48-.84,1c-3.12-4.92-7.68-13.92-13.68-27.24-5.64-12.6-8.52-19.44-8.52-20.76v-.48H316L302.4,451l-.24-.24L300.72,457c-3.6,16-7,29.64-10.2,41.28l-1.08.36-1-2.28-.24-3c0-4.2,1.8-12.84,5.28-25.92l5.4-19.56a3.51,3.51,0,0,1-.84-2c0-1.92.24-3,.6-3.24l1-.12,2.52-19.08a108.89,108.89,0,0,1,2.64-13.56Zm-57.24-145.8L245,271.2v98.28A35.67,35.67,0,0,1,244,374.4v64.08c.48,37.32-.6,74.76-3.24,112.08-2.16-1.8-3.36-6.72-3.48-14.52l.24-12.36,1.08-117.24v-8.52H216.84c-.24-.36-1.92-.72-4.92-1.08l-9.12-1v103.2c-.6,3.48-1.44,12.36-2.76,26.88q-1.62,16.38-4.32,25.92a4.2,4.2,0,0,1-3.48-3.48A30.13,30.13,0,0,1,192,544,224.75,224.75,0,0,1,193.68,518c.6-5.88,1.92-14.4,3.72-25.68V350.28A220.77,220.77,0,0,0,200,314.16c-.36-15-.48-26.16-.48-33.72-.72-9-1.08-15.72-1-20.16.12-7.8,2.28-12.6,6.36-14.28a15,15,0,0,1,2.16,7.32l-.6,27.24L206,304.68c0,4.2-.24,12-.84,23.64-.72,14.76-1.56,24.36-2.4,28.68v23.76c3.24-.6,8.52,0,15.72,2l20.16.48c.24-8,.6-14.52,1-19.44V264.12l1.44-9c.6-4.08,1.56-6.72,2.88-8a5,5,0,0,1,3,4.08l.24,4.8A55.8,55.8,0,0,1,246.48,262.92ZM227.28,9.24a13.42,13.42,0,0,1,1,3.84c0,2.76-1.68,14.88-5.16,36.12l-12.24,74Q191.94,240.6,186,302.4q-9.18,96.84-14.16,144.12-8.46,81-17.76,144c-5.52-8.64-8.76-20.28-9.84-34.92-.12-16.44-.72-28.32-1.56-35.64q-1.26-12.42-5.76-35.64c-3.36-17.28-5.52-29.28-6.36-35.88Q123.18,395,107,305.64q-3.6,47.34-5.88,70.56c-2.52,26.76-5.28,50.76-8.52,72Q87.24,484.38,76.92,529,66.12,575.22,59,590.52,57.6,574,48.72,489.12L31.32,319.2Q7.56,80,7.56,13.56c0-4.92.72-8.16,2-9.6,1.08-1.2,2.52-.84,4.08,1.08s2.64,4.8,3.48,8.52a32.4,32.4,0,0,1,.12,12.72L17.4,43.8c.12,6.84.48,13,1,18.12.84,8.76,1.68,20.52,2.4,35.4.84,17.16,1.56,28.92,1.92,35.28l4.8,71c1.92,30.12,3.6,53.64,5,70.8,1.56,19.68,4,43.2,7.44,70.56l9.24,71Q60.54,503.88,60.6,558.6h.24q19.62-63.9,30.24-162.36L99,314.76c3.24-32.4,6.36-59.28,9.6-80.64,3.12,8.88,4.8,22,5,39.12.24,19.8,1.2,33.72,2.88,41.88l8.4,40.56c3.24,16.2,5.52,29.64,7,40.56q12.42,95.4,19.44,163.2h.36q6.3-53.1,15-139.56Q178,308.1,180.84,281q5.22-47.88,7.92-69.48c3.24-25.8,6.72-49,10.2-69.24q2.52-13.86,5.4-34.92l4.8-34.68q5.94-41.4,14.76-68.4A11.14,11.14,0,0,1,227.28,9.24Zm54.36,79.92c-1.8,15.72-2.28,26-1.44,31.2v48c-.36,1.68-.72,4.32-1.08,7.8-.36,3.72-.72,6.6-1.08,8.4v50.28c-.36,1.32-.72,5.16-1.32,11.52s-.84,10.68-.84,12.72c0,2.28.24,6.72.84,13.2.48,6.12,1,10.32,1.32,12.72v69l1.44,23.4.72,15.6q0,53.1-3.48,108.36-5.22,81.36-15.48,89.16c-1.8-2.64-2.76-6.12-2.76-10.56,2.52-19.08,5.16-41,7.68-65.76q7.56-74.52,7.56-121.32L273,380.16c-.48-7.56-1-13.68-1.44-18.48v-69c-.24-1.56-.72-7-1.32-16.08s-.84-14.52-.84-16.8c0-2.52.24-8,.72-16.68.6-9.24,1.08-14.64,1.44-16.08V177.48c2.52-7.8,3.48-18.12,2.88-30.72-1.2-14.28-1.8-24.84-1.8-31.8l1-14.28c.6-9.48,1.08-16.68,1.2-21.36a81.7,81.7,0,0,1,5.28-21c3-7.56,4.44-5.4,4.44,6.48ZM305.76,24,294.24,11.88q-4,0-18,13.68l11.52-.72,10.8-1.08Zm41.52,28,1.08-1.08c1.32,1.92,1.92,4.8,1.92,8.52,0,6.6-2.76,28.92-8.4,67.2q-8.1,56.7-11.88,73.68c-2.76-7.56-5.16-18.12-7.2-31.56-2.76-18.36-4.44-29.28-5.28-32.88-1.92-9.12-3.84-19.8-5.64-32.16-1.2-7.8-2.64-18.48-4.32-31.92H307c-1.2,8.28-2.4,18.84-3.48,31.56l-2.64,32c-2.52,26-6.36,47.64-11.76,64.56h-1.56a80.71,80.71,0,0,1-.6-8.88c0-5.52,1.8-18.12,5.28-37.92l5.52-32.76c1-16.44,1.8-28.8,2.52-37.32,1.32-15.12,3.84-25.8,7.32-31.92,2.52,16.44,6.12,37.2,10.68,62.52L329.76,177v.24a562.82,562.82,0,0,0,10.44-61.56l6.6-63.24Zm-35.4-19.8-6.48.48-6.84,1-5.64.24-6.24.84-17.88-.36-.48-.72c-6.36,6.72-11.4,12.72-14.88,18.12l-2.52-2.4a2.76,2.76,0,0,1-.48-1.68c0-6.24,5.64-15.36,16.92-27.24A91.21,91.21,0,0,1,281.28,8c4.8-3.48,8.52-5.28,11-5.28,3.6-.12,11.28,6.6,23,20,11.52,13.08,17.28,20.88,17.28,23.64l-.24,3-1.08,2.28-18.84-20.4ZM487.8,420.72A30.5,30.5,0,0,0,484,431.64c0,8.28,3.84,16.32,11.52,23.88,3.36,3.24,11.76,9.72,25.32,19.32,11.64,8.28,20.16,15.6,25.32,22.2a52.07,52.07,0,0,1,11.4,32.76c0,16.92-7.44,31.68-22.2,44.28a76,76,0,0,1-20.16,12.36,50.22,50.22,0,0,1-19.56,4.44c-35.4,0-57.84-8.4-67.56-25.2a34.86,34.86,0,0,1-4.92-17.4l.72-8.16a22.31,22.31,0,0,1,.6-5,7.82,7.82,0,0,1,2.4-4.56,66.41,66.41,0,0,1,2.52,12.24,75.89,75.89,0,0,0,2.4,12.12c2.28,6.72,7.8,12.36,16.68,16.8a52.37,52.37,0,0,0,23.88,5.88q51.12,0,70.56-22.68a37.78,37.78,0,0,0,9.84-25.56c0-9.24-3.84-17.64-11.52-25.44-4-4-12.36-10.32-25.32-19.2-11.88-8-20.28-15.24-25.32-21.36A47.78,47.78,0,0,1,479,431.88c0-14.28,3.48-24.36,10.56-30,6.12-5,13.92-6.12,23.28-3.12,9,2.88,16.68,8.4,23.28,16.68,7.08,8.88,10.56,18.48,10.56,28.92a20.63,20.63,0,0,1-.6,5.28,11.37,11.37,0,0,1-2.88,4.56l-1.68-8.88a60.27,60.27,0,0,0-4.68-14.88c-6.36-13.32-17.28-20-32.88-20C497,410.4,491.64,413.88,487.8,420.72Zm-97.2-21.48c8.28-.12,14,2.16,17.52,6.6a16,16,0,0,1,3,9.84,14.42,14.42,0,0,1-2.4,7.68,11.29,11.29,0,0,1-4.08,3.84,86,86,0,0,1,5.28,8.28c3.72,6.36,5.52,10.32,5.52,11.88l-.12,2.52-.6,1.08c-1.44-1.44-4.2-5.52-8.28-12.36-2.76-4.68-4.56-8.16-5.52-10.2l-1.68.12-13.56-.36-.36-.12c-2.52,11.64-4.32,18.84-5.52,21.84a2.6,2.6,0,0,1-1-1.08l-.12-2.76c0-1.56,1.2-8.16,3.48-20,2.52-12,4.32-20.52,5.64-25.44h.84l.6,2,.24,2.88q0,2.7-2.88,16.2h.48c8.88,0,15-1,18.36-3,1.8-1,2.64-2.16,2.64-3.6a6,6,0,0,0-2.88-5.28c-2.64-1.8-7.68-3.24-15.24-4.32l-.36-.72a9.2,9.2,0,0,1-.12-2.16l.24-2.4A2,2,0,0,1,390.6,399.24Zm-.6-56-.24,2.88-1.08,2a177.59,177.59,0,0,1-9.36-16.56c-3.24-6.24-5.88-12.12-8.16-17.52L354.84,332.4c-6.36,7.2-11,12.84-14,17-1.2-2.76-3-8.64-5.28-17.64-2-7.68-4.32-13.68-7-18.12-3.24,4.68-7.56,10.92-12.84,19A110.34,110.34,0,0,1,301,350.28L299.52,349a7.6,7.6,0,0,1-.36-2.76c0-1.68,3.72-7.92,11.28-18.84,7.8-11.4,14-19.2,18.48-23.4q5,6.12,8.28,16.92c1,3,2.28,8.88,4.08,17.52l13.92-16,15.36-18.12c1.56,1.56,5.16,7.8,10.8,18.84C387.12,334.44,390,341.16,390,343.2Zm-25.32,8.88a6.32,6.32,0,0,1,.48,2.76c0,1.92-5.76,7.2-17.4,15.72L324,387.84l23.28,1.44,6.72.24,7.32.84,10.08.48.84,1.32a6.32,6.32,0,0,1,.48,2.76l-.24,2.4L371.4,399H360.84l-.6-.6-14-1.08-33-.48-.84-1.8-.24-2.64c0-4.92,5.4-11.28,16.08-19.08,5.64-4.2,12.48-8.76,20.76-13.8-13.56.12-22.68.72-27.12,1.56l-.72-1.32a8.06,8.06,0,0,1-.36-2.76,4.23,4.23,0,0,1,.72-2.76c1.2-1.56,4.08-2.64,8.52-3.12v-.6l33.84.24Zm36.24,4.68v-1.92a12.54,12.54,0,0,1,.12-2.64c.24-.6,1-1.08,2.16-1.32l20.64,1.56,13.08.36,5.64-.12c3.36,0,5.52,1,6.48,2.76a7,7,0,0,1,.48,3.24c0,2.88-5.52,8.76-16.68,17.76-8.52,6.72-14.76,11.4-19,13.92l12.48-.84,10.8-1.08,10.8-1.08,6.72.24,1,1.32a5.69,5.69,0,0,1,.48,2.76l-.36,2.4-1.08,1.68-3.12.48c-2.16.36-3.36.6-3.6.84l-5.64.36-6.24.72-5.16.36-5.64.72-8.52-.24-8.64-.6-9.36-.48-.84-1.32a14.57,14.57,0,0,1-.24-2.76q0-2,17.64-15.12c13.08-9.72,20-15,21-16-.36-.36-2.88-.72-7.32-1.2l-6.72-1c-10.32-.12-16.8-.84-19.56-2.16C401.64,358.08,401,357.48,400.92,356.76Zm-17.76-202c4.56,3,6.84,8.16,6.84,15.36a21.41,21.41,0,0,1-1.32,8.16,11.81,11.81,0,0,1-2-4.44l-1.8-6c-1.8-4.92-5.28-7.44-10.2-7.44l-8.16.24c-9.6,1.56-17.76,14.64-24.6,39.48a243.21,243.21,0,0,0-6.12,28.8,149.19,149.19,0,0,0-2,20.4,72.4,72.4,0,0,0,3.6,23c4.2,13,11.52,19.44,21.84,19.44l16.56-.24c2-1.32,4.08-4,5.88-7.92l3.36-8,.48-8.88-.36-3.36a11.61,11.61,0,0,1-.48-3.12L370,258.6c-.84-.12-1.44-.48-1.56-.84v-2c0-2.52.6-4,1.68-4.56,2.28-1.32,7.8-1.32,16.44.24q.9,3.42,1.8,8.64l.6,7.08-1.08,13.32-.24,3.36c-.6,8-1,14.28-1.08,18.6l-.48.48-.84.84a38,38,0,0,1-1.32-12.12l-7.08,8.88H358.68q-28.26-3.6-28.2-51c0-11.28.48-20.4,1.56-27.48.36-2.76,2.52-13.68,6.36-32.52a51.76,51.76,0,0,1,11.52-24.36c5.16-6,10.92-10,17.4-11.88C373.56,151.44,378.84,151.92,383.16,154.8Zm-8.28-93.36-9.72-4.68a11.4,11.4,0,0,1-3.72-2.64,45.22,45.22,0,0,1,.48,7.56c0,2-.84,8.16-2.64,18.6L357,92.52l1.92.24c12.12,0,20.76-2.28,25.8-7,2.76-2.76,4.2-5.76,4.2-9C388.92,71.4,384.24,66.36,374.88,61.44Zm-9.12-12.6c3,.24,6.6,1.68,10.8,4.44a42.15,42.15,0,0,1,10.68,10.44c3.24,4.68,4.92,9.36,4.92,13.92a29.42,29.42,0,0,1-3.12,13c-3.72,7.44-9.6,11.16-17.88,11.16-10,0-16.2-1-18.48-3a2.22,2.22,0,0,1-.84-2.16l.36-1.08.12-3,.12-1.08h.84a143.35,143.35,0,0,1,2-20.16c1.44-8.64,3.24-15.36,5.28-20.16l.24,1C361.2,49.8,362.76,48.72,365.76,48.84Zm196.56,1.32c-.6,2-1.56,3.24-2.88,3.72-6-11.4-10.68-19.44-14.16-24.12-7.92-11-15.6-16.56-22.92-16.56q-36.72,0-50.28,30.6a74.37,74.37,0,0,0-6.48,33.36c0,13.32,5.16,25.56,15.48,36.6,6.24,6.6,17.64,16.44,34.2,29.28q23,19.62,34.32,41.28,15.48,29.7,15.48,72.6,0,40-25.92,66.84A84,84,0,0,1,513.6,342a66.59,66.59,0,0,1-27.72,6.36q-54.54,0-69-27.84a42.21,42.21,0,0,1-4.68-20l.84-10.8a14.5,14.5,0,0,0-1.08-5.76l-1.56-3.36c-.84-2.28.72-6.24,4.56-12,2.76,3.6,4.08,9.12,3.72,16.68l-.6,9.24a50.87,50.87,0,0,0,.36,9c1.32,6.84,6,13.44,14,19.56,10.32,8,23.28,12.12,38.76,12.12q54.36,0,76.92-37.08a86.12,86.12,0,0,0,10.32-26.64,71.16,71.16,0,0,0,1.8-14.64q0-41.94-15.6-68.52c-7.08-12.12-18.48-24-34.2-35.76L492.12,139a114.51,114.51,0,0,1-15.84-15c-10.44-12.36-15.6-28.08-15.6-47a101.74,101.74,0,0,1,5-32Q472.38,24.18,487,13.2c11.4-8.52,22.32-12.48,32.76-12q12.78.54,23.76,10.44A65.44,65.44,0,0,1,558,31.08c3.24,6.48,4.92,11.4,4.92,14.88A17.73,17.73,0,0,1,562.32,50.16Z" transform="translate(-7.56 -1.16)"/></svg>