<svg id="Layer_1" data-name="Layer 1" xmlns="http://www.w3.org/2000/svg" viewBox="0 0 418.02 426.77"><defs><style>.cls-1{fill-rule:evenodd;}</style></defs><path class="cls-1" d="M332.64,347.76c-3.48,40.92-7.92,81.6-13.44,122.28l-1.56-6.84q-13.86-62.64-28.2-124.08-4.32,3.06-5,10.08Q280.62,390.42,277,432a302.61,302.61,0,0,1-4.44,31.32c-2.4,12-1.68,22.32,2,31a30.15,30.15,0,0,0,2-8.16q7.92-61.74,12.84-124.08c6.12,36.72,12.84,73.32,19.92,109.68,2,9.72,5.76,16.92,11.28,21.48a530.73,530.73,0,0,0,14.76-95.64,207.22,207.22,0,0,1,4.44-31.32c2.16-9.84.48-17.28-4.92-22.32A4.82,4.82,0,0,0,332.64,347.76ZM217.92,291.12l-.6,40.32-20.52,1c-7,1.08-11.52,3.36-13.68,7l1.68-51c.48-10.68,1.44-21.48,2.88-32.16a174.73,174.73,0,0,0,.12-48.12c-4.68,7.92-7.32,17.4-7.8,28.32-2.28,42.6-3.48,85.32-3.6,128.4a602.32,602.32,0,0,1-7.92,95.52q-3.06,17.82,2.52,32.4a321.44,321.44,0,0,0,10.08-75.24c.36-22.44,1-44.76,1.68-67.2a134.79,134.79,0,0,1,34.44-4.68l-.72,74.64a334.1,334.1,0,0,1-2.4,39.6c-1.56,12.12-.24,22.8,4,31.8a419.18,419.18,0,0,0,6.84-82c-.36-21.72-.36-43.44-.12-64.92V343.2a11.05,11.05,0,0,0,.12-8.52l.72-118A403.88,403.88,0,0,0,217.92,291.12ZM184.44,80.64a2.22,2.22,0,0,0-2.64,2.16q-8.46,56.34-13.44,113.64Q162.6,260.34,156.12,324q-6.66,63.18-17,125.4c-.84-18.6-2.16-37.08-3.84-55.56q-5.58-63.9-12.84-127.44a171.07,171.07,0,0,1-.84-32.28c.6-10.32-1.8-17.64-7.44-22q-5.58,52.74-9.72,106.2-5,63.18-14.88,125.16-2.88-37.44-6.6-74.76Q76.8,304.86,69,241.32c-5.16-42.36-9-85-11.76-127.56-.84-12.12-3.6-22.32-8.52-30.36q2.16,55.08,7.8,111.12,6.3,63.9,13.56,127.56C74.88,364.44,79,406.8,82.32,449.4a91.31,91.31,0,0,1,0,16.2c-.84,10,1.32,17.4,6.48,22.56a459.43,459.43,0,0,0,14.88-73.8c4.92-41.76,8.88-83.76,12.12-125.88.6,3,1,6.12,1.32,9.36,4.68,42.36,8.16,85,10.44,127.56A286.61,286.61,0,0,0,138,488.64c3.72-3.48,6.12-8.16,7-14.28q9.54-63.18,16.56-127c4.68-42.36,8.88-84.72,12.72-127.32q5.58-63.54,14.64-125.88c-.36-.36-.48-.6-.48-.84A19.41,19.41,0,0,0,184.44,80.64Zm79,10.56q.18,55.44-1.56,110.4c-1.44,43.08-2.64,86-3.6,129.12a1240.84,1240.84,0,0,1-9.48,128.76c-1.56,11.88-.36,22.68,3.36,32.4a270.6,270.6,0,0,0,7.8-52.44q3.42-64.08,4.8-128.28,1.08-48.42,3.48-96.48a1090.36,1090.36,0,0,0-1.44-128.4C264.48,86.76,263.4,88.44,263.4,91.2Zm17.76,4.56,27.48,1.68c-2.28,41.4-3.36,82.92-3.48,124.44.6,2,1.8,2.52,3.6,1.68a36,36,0,0,0,2.52-12.24c1.56-38.28,2.28-76.08,2.16-113.64,8.28.12,16.44.12,24.72,0a5.55,5.55,0,0,0,1.56-2.16,16.83,16.83,0,0,0,.72-4.92L340.32,89l-.24-.84-.24-.84-.12-.72L339,85a.91.91,0,0,0-.84-.48l-24.84-.84V83l-.6.6L282.48,83a3,3,0,0,0-1.56,1.44,10,10,0,0,0-1.2,5.64l.12,1.56.12.84.12.84.24.84ZM459,368.76l2.16-.12c1.44-3.72.72-6.84-2-9.36-12.36-11-21.48-8.16-27.24,8.76a276.65,276.65,0,0,0-15,88.2c-.24,18.36,3.6,34.44,11.52,48.36,1.08,2,3.24,3,6.48,2.76a18.57,18.57,0,0,0,9.24-2.88l4.2-3.12,4-4.2c8.76-10.44,10.44-21.84,5-34a22.87,22.87,0,0,0-4.56,7.32c-4.44,10.92-12.24,17.88-23.4,21.12a41.72,41.72,0,0,1-5.4-25.32c1.08-12.24,1.8-24.48,2.4-36.6l7-1.32a67.19,67.19,0,0,0,21.12-7.92l.12-.48,1.68-4.2A12.25,12.25,0,0,0,454,403.92l-26.64,11c-2-16.56,1.92-30.6,11.76-42.12C445.32,365.52,451.92,364.2,459,368.76Zm-60.72-3.48c2.88-19.8-4.8-27.24-22.92-22.32a2.74,2.74,0,0,0-1.44.72q-41.58,77.76-7.2,153a13.63,13.63,0,0,0,1.8,2.76c24.12-2.76,33.72-17.52,28.56-44.16l5.76-.24a112.52,112.52,0,0,0,1.92,51.72q8.82-30.24,2-64.92c-9.6-2.52-19.08-1.44-28.56,3l.24,8.88,13.8,1.44c.24,11.16-4,20.28-12.72,27.24l-10.8-.24q-23.94-62.82,8.4-125.76c5.4-3.72,10.68-3.48,16,.48a59.73,59.73,0,0,0,3.72,7.92C397.08,365.28,397.56,365.4,398.28,365.28ZM418.56,89.64q-5.4,45.54-8.16,91.68-3.78,63.9-8.16,128.16c-.84,12.6,1,23,5.52,31.44l7.92-116.52c13-1.44,26-2.52,39.36-3.12q-2.52,58-8.64,114.48c-.6,6.48,1.32,10.44,5.76,12a435.53,435.53,0,0,0,7.08-63.36c.84-21.12,2-42.24,3.6-63.24,3-43.08,4.2-85.56,3.84-127.56a946,946,0,0,0-11,113.88l-3.24-.24a91.48,91.48,0,0,0-36,5.52q4-62.46,3-123.48C418.8,89.4,418.56,89.52,418.56,89.64ZM355.8,98.52a97.46,97.46,0,0,0-13,32.16c-2.76,12.84-5.16,25.68-7.32,38.76s-4.08,26-5.76,39.12A452.83,452.83,0,0,0,326,254.64c-.48,13.2-.6,26.28-.48,39.24.12,16.92,6.24,30.6,18.24,40.8q21.24,18.18,39-2.16c8.88-10,11.16-21.48,6.84-34.32l-3.84,4.92-2.88,2.28,1.68,1.68c-5,16.2-15.72,22.08-32,17.88a21.65,21.65,0,0,1-9.24-5.28,28.63,28.63,0,0,1-5-7,46.59,46.59,0,0,1-3.24-9.48,164.09,164.09,0,0,1-3.24-21.36,216.5,216.5,0,0,1-.72-21.72q.9-82.62,35.4-154.92c1.92-4.08,5.4-6.12,10.32-6.24a25.72,25.72,0,0,1,14.4,4.08l3.6-1.56-2.88-9.6C377.88,80.76,365.76,82.92,355.8,98.52Z" transform="translate(-48.72 -80.63)"/></svg>