<svg id="Layer_1" data-name="Layer 1" xmlns="http://www.w3.org/2000/svg" viewBox="0 0 353.57 332.41"><defs><style>.cls-1{fill-rule:evenodd;}</style></defs><path class="cls-1" d="M328.92,134.52q-3.6,51.66-4.68,104.4c-1,43.08-2.64,86.16-5,129q-1.62,32.58-5.4,64.8c-1.2,10,.6,18,5.4,24A362.78,362.78,0,0,0,326.64,391c1.08-42.6,2.64-85.32,4.44-128.16a1087.05,1087.05,0,0,0-1.8-128.28ZM214.56,135a735.1,735.1,0,0,0-21.72,127.32q-5.22,63.9-11.4,127.56l-1.32,12.48c-5.88-23.88-10.8-47.88-14.52-72.24Q156.42,271.8,143.28,215l.84-10a12.54,12.54,0,0,0-2.52,2.52l-.72-2.76-.72,4.92A19.11,19.11,0,0,0,138,216.6q-8.64,63.54-20.4,127L110,385.68,95.76,267.24,81.24,141.48l.48-.84a5.46,5.46,0,0,0,.6-2.4l-.12-.72a30.08,30.08,0,0,0-4.8-9.84c-.6-.12-1,0-1,.36a368.08,368.08,0,0,0,2.16,64.8q7.74,63.72,16.08,127.32a947.13,947.13,0,0,1,7.44,95.76,92,92,0,0,0,6.12,31.32l2.16-9.72.36-1.08.6-5.52.12-.84.24-2.64.24-1.92c3.48-31.56,8.4-63,14.52-94.32q9.18-46.08,14.4-92.28c.48,3.36,1.2,6.72,2,10.2a774.84,774.84,0,0,1,15,76.08q9.18,63.36,23,124.8c4.68-6.6,6.36-14.4,5.16-23.4l3.48-38.4c3.72-42.6,7.8-85.2,12.24-127.56L215.4,133.92A1.36,1.36,0,0,0,214.56,135Zm21.72,10.08q-.9,55.26-3.6,110.28l-1,19.08-.72.24a13.38,13.38,0,0,0,.12,10.32l.12.48q-2.16,49.32-3.12,99a237.24,237.24,0,0,1-2.64,32.16c-1.92,12.24-.48,22.92,4.44,31.92a345.71,345.71,0,0,0,5.76-61.68c.12-33.48.84-66.84,2.4-100.08,16.56-.12,33.24-.84,49.92-2.4l-.84,20.52q-2.52,64.8-8.52,129c-1,10.2,1.08,18,6,23.4a565.68,565.68,0,0,0,5.76-67.44c.84-35.4,2.16-70.8,3.72-106.2l1.08-.12A13.67,13.67,0,0,0,297.72,273a7.79,7.79,0,0,0-2.76-4.8h-.12l.24-7.32c2-43.08,2-85.92-.12-128.28-4.44,13.2-6.48,28-6.24,44.16q.72,45.72-.36,91.2l-4.8-.12a213.19,213.19,0,0,0-44.76,5l.72-14.28q3.78-64.62,1.32-128.16C237.84,133.92,236.4,138.84,236.28,145.08Zm138.12-.36q26.46,7.2,39.72,32.52a75.16,75.16,0,0,1,8.52,43.92c-1.68,17.16-9.24,31.08-22.8,41.76a62.4,62.4,0,0,1-30.12,13c2.76-43.32,3.6-86.52,2.4-129.84Zm-1-13.44-3.84,3.24-.6.84a21,21,0,0,0-.6,4.8,10,10,0,0,0,1,3.72,395.13,395.13,0,0,0-5.16,57.48c-.84,42.72-2,85.44-3.84,128.28q-2.7,64.62-6.72,128.16A3.74,3.74,0,0,0,358,460a407.51,407.51,0,0,0,7.44-69q1.26-49.86,3.6-99.6a7.21,7.21,0,0,0,6,2.52,194.24,194.24,0,0,0,31.44-19.08,44.28,44.28,0,0,0,16.2-22.08c9.84-28.2,9-56.16-2.4-84.12Q406.92,136,374.4,130.68Z" transform="translate(-75.88 -127.64)"/></svg>