<svg id="Layer_1" data-name="Layer 1" xmlns="http://www.w3.org/2000/svg" viewBox="0 0 560.04 591.29"><defs><style>.cls-1{fill-rule:evenodd;}</style></defs><path class="cls-1" d="M284.4,525.6c1.92-.84,6.6-.48,14.16,1.08l17.4-.84,2,1.56a5.54,5.54,0,0,1,.6,2.76l-1,2.28a12.18,12.18,0,0,1-2.88,3.24l-8.4-.24-8.88-.6-11-.84h-.36c-.36,4.08-1.08,10.44-2.4,19.2,4.44-2,13.44-2.4,27.12-1.08l.84,1.32a6.32,6.32,0,0,1,.48,2.76l-.24,2.4-1.08,1.68-26.88,1.32a.62.62,0,0,0-.36.84c.24.48-.12.84-1.2,1.08l-.36-.36c-2.64,16-5.28,26.16-7.8,30.6l-.84-1.68-.24-2.76c2.52-27.48,5.76-47,9.72-58.56v-.36C282.84,527.64,283.32,526.08,284.4,525.6Zm-19.08,9.24-1.08,1.56H241.68l-1.44,15.72c3.24-1.56,9.48-1.92,18.6-1.08a12.19,12.19,0,0,1,1.8,2.28,7.8,7.8,0,0,1,0,6q-.72,1.44-2.16.36l-16.68.72a4.37,4.37,0,0,0-2.76,2l-.12-.12c-2,16.2-3.72,26.28-5,30.36C232.56,592,232,590,232,587c0-4.32,1.2-14.52,3.48-30.72,1.32-9.6,2.52-16.68,3.36-21.12a16.85,16.85,0,0,1-.24-2.76,6.48,6.48,0,0,1,.72-3.24,10.17,10.17,0,0,1,1.92-2.28l6.24.24,6.48.6,10.32.6.84,1.32a5.69,5.69,0,0,1,.48,2.76Zm14-57.6-1.56,11a5.37,5.37,0,0,0,2.4.48c12.12,0,18.12-1.8,18.12-5.4a18.63,18.63,0,0,0-.36-4.68,2.45,2.45,0,0,0-2-1.8l-15.72.36Zm-.48-8.64.6-.24a17.48,17.48,0,0,1,9.36-1.08,14.28,14.28,0,0,1,9.36,4.32c2.76,2.88,4.2,6.84,4.2,12,0,9.48-4.2,14.16-12.48,14.16l-10.32-.24a13.24,13.24,0,0,1-2.52-3.24l-.36,2.28c-2,15-3.72,25.44-4.92,31.2-1.32-1.32-1.92-3.84-1.92-7.68,0-4.44,1-13.32,2.88-26.52,1.08-7.56,2-13.56,3.12-18l-.24-.24a5.44,5.44,0,0,1-.36-2.52c0-1.32.72-2.4,2.28-3.36l.72-1.68Zm36.48-122.52c0,2.52-.36,8.16-1.2,16.8l4,.36c6.48,0,11.76-1.56,15.72-4.8,2.76-2.28,4.2-4.2,4.2-5.76,0-1.08-2.16-3-6.36-5.64s-6.48-3.84-7.08-3.84l-9.6.36Zm-4.92-8.88a9.79,9.79,0,0,1,3.24-2.88c12.6.84,20.76,3.36,24.6,7.32,2,2,3,5.64,3,10.8A21.54,21.54,0,0,1,338.4,363c-3.48,6.12-9.12,9.24-17,9.24l-8.16-.6v.48c-1.68,16.08-3.24,26.52-4.56,31.2-1.32-1.32-1.92-3.6-1.92-6.84,0-2.16.72-10.68,2-25.68l.12-1.08c-.72-.6-1.08-2-1.08-4.08a16.16,16.16,0,0,1,.12-2.64l.12-.6,1.68-.12,1.68-17.88-.84-1.44a6.26,6.26,0,0,1-.6-2.76A6.8,6.8,0,0,1,310.44,337.2Zm-62.16,27.6q0,8.28,5,18c1.68,3.36,5.4,9.24,11.16,17.76a155.21,155.21,0,0,1,11.16,19.08,53,53,0,0,1,5,21.84,26.47,26.47,0,0,1-3.48,13.8c-4,6.6-10.92,10-20.88,10q-14,0-20.52-16.2A51.55,51.55,0,0,1,232,430c0-4.32.12-7.2.48-8.52.84-4.2,2.64-6.6,5.52-7.08l1.2,1.92a5.18,5.18,0,0,1,.48,2.64c0,1-.72,2.76-2.16,5.52s-2.16,4.92-2.16,6.6c0,4.44,1.44,9.36,4.32,15,3.48,6.84,7.68,10.32,12.36,10.32,9.12,0,16-2,20.52-6.24,3.24-2.88,4.92-6,4.92-9.48,0-5-1.68-10.68-5-17-1.44-2.76-5.16-8.52-11.16-17.4a132.78,132.78,0,0,1-11.16-19.32,55.32,55.32,0,0,1-5-22.56c0-8,1.2-14.52,3.48-19.32,4.44-8.76,12.48-13.32,24.36-13.68q4.32,6.48,6.48,10.08c2.28,4.08,3.48,7,3.48,8.64l-.24,3.24a5.34,5.34,0,0,1-1.08,2.4c-.6-.36-1.08-1.32-1.44-3.12l-1.2-5.28c-1.32-4.92-3.72-7.32-7.08-7.32q-16.38,0-21.6,12.24A24.07,24.07,0,0,0,248.28,364.8Zm41.88-48.36a6.82,6.82,0,0,0,2.52-2.4,11.86,11.86,0,0,1,2.28,4,11.32,11.32,0,0,1,1,3.36l-.36,2.4-1.08,1.56-3.12.48a10.55,10.55,0,0,0-3.6,1l-32.76.48c-1.08.72-6,1.68-14.88,2.76a5.68,5.68,0,0,1-2.16-1.8,5.93,5.93,0,0,1-.48-2.88c0-3,1.08-11.76,3.36-26.52,2.52-16.44,4.8-28.32,6.84-35.76a6.83,6.83,0,0,1,2,1.44,4.23,4.23,0,0,1,.72,2.76c0,.84-1.08,8.52-3.24,22.92-2.28,16-3.72,25.68-4.08,29l-.12.24-.12.48,8.28-.84c2.28-.36,3.72-.6,4.08-1l31.68-.6ZM159.48,416.76c.6,9.48.84,16.32.84,20.52q0,15.12-2.16,48.24c12.36-1.44,20.76-1.68,25.2-.84l.36-12.6c.36-13.56.72-22.56.84-26.88,1.08-21.24,3.84-37.92,8.52-50a10.55,10.55,0,0,1,1.92,6.12c0,5.88-1.2,23.52-3.48,52.68l-4.2,50v72.24a62.42,62.42,0,0,0-.24,9.12c-.24,3.84-1.32,6.6-3.24,8.4q-1.62-1.26-2.16-6.84l-.24-5.88a50.76,50.76,0,0,1,1.08-12.12v-70.8l-17,.72-8.16-.24-1.68,23.16c-3.24,43.92-6,66.84-8,68.76a20.93,20.93,0,0,1-1.92-9.72q0-7.92,4-55.8,4-49,5.76-61.92V412.8c-2.28-9.48-1.68-15,1.92-16.56Q158.58,399.3,159.48,416.76ZM260.64,138.6c6.72,0,11.88,1.32,15.6,3.84,3,2.16,4.44,4.56,4.44,7.2l-.24,2.88-1.08,2-4.32-4a12.12,12.12,0,0,0-7.56-3.12c-7.68,0-13.2,4.56-16.56,13.56a47,47,0,0,0-2.64,14.16,10.49,10.49,0,0,0,3,7.68c2.52,2.76,6.48,4.08,11.64,4.08,6.72,0,13.2-3.12,19.32-9.24a102.17,102.17,0,0,0,9-10.8l1,1.32a6.32,6.32,0,0,1,.48,2.76q0,2.34-9,13c-6.6,8-11.64,12-15.36,12-11.52,0-18.84-3.12-22-9.24A13.88,13.88,0,0,1,244.8,180l.24-3.84a63,63,0,0,1,2.76-19.56A39.35,39.35,0,0,1,260.64,138.6ZM180.48,7.92c1.32-3.24,2.28-4.68,3-4.32,1,.6,1.44,3.72,1.44,9.48q0,28.26-16.2,153.72l-11.4,87.72c-3.6,28-5.64,44.64-6,50.28Q149.88,328.92,148,377q-2.16,49.32-3.48,73.08-4.86,85.68-16.32,144.72-4.32-25.74-8.28-61.92L113,470.28q-8.46-77.4-20.16-124.56Q89.46,396.3,76,469.56L64.08,531.72c-5,26-8.88,46.8-11.64,62-3.12-7.8-4.8-19-5.16-33.48l-.36-17.88a163.61,163.61,0,0,0-1.44-17.64c-1.32-8.64-2.52-20-3.6-34.32L39,455V406.32Q33.78,359,21.48,202.68,8.7,41,8.64,16a22.22,22.22,0,0,1,.72-4.68A12.85,12.85,0,0,1,11.88,5.4c4.2,13.8,7.08,30.12,8.4,48.84.48,7.68,1,24.36,1.32,50.16q.9,44.28,5.52,98.28,2.88,35.46,9,98.28l9.36,98.88v47l5.4,48.72c2.28,19.56,3.36,35.76,3.24,48.72v.24C55.92,532,59.88,511.32,66,482.4c5.88-27.6,9.84-48.72,11.64-63.36l3.24-30.72c1.32-13.2,2.64-23.76,4-31.8.6-4,1.08-9.24,1.56-15.72l1.08-16a137.58,137.58,0,0,1-.24-15.24c.36-6.12,2-11.16,5.16-15.12q8.46,39.6,13,64.8c4.44,24.6,7.44,46.56,9.24,66q2,22.68,7.44,64.92,5.76,46.08,7.68,64.92v.24q6.12-61,10.68-140.16Q142.74,372.9,147,274q1.26-26.46,7.92-69.6,9.18-58.14,10.56-70.68l2.28-35.4c.84-14,1.92-25.8,3.12-35.28l2.52-17.4,2-17.4A68.68,68.68,0,0,1,180.48,7.92Zm49.32,3a25,25,0,0,1,.6,4.92l-.6,10-1.56,13.92v71.52c-1.8,14.16-3.12,31.68-3.84,52.68l-1.56,53.64V322.08a35.67,35.67,0,0,1-1.08,4.92v53.52c-.84,4.68-1.2,12.84-1.08,24.36.12,10.32-.6,18.48-2.16,24.36v50.4l-1.08,4.08v42.12c-1.08,7.8-1.8,19.2-2.16,34-.84,13.08-3.12,24.12-7.08,32.88-1.32-.6-2.16-2.52-2.52-5.64l-.24-6.48q0-4.68,2.52-31.68c1.56-16.44,2.52-26.52,3-30V476.64l1.08-4.08V423q2.34-7.92,2.16-23.4-.18-17.46,1.08-24.48v-55.2l1.08-4V212.16l2.28-53.52c.84-21.36,1.92-39.24,3.12-53.64V31.92a31.32,31.32,0,0,0,.6-6.72l.24-7.32q.54-9,5-12.24A17.43,17.43,0,0,1,229.8,10.92ZM292.32,7.8l1.08,2.28.36,3q0,4.86-9,54.36l-11.88,65.4-.6.48-1.32.6-7.68-55c-3-21.84-5.16-40.32-6.6-55.44l-.6-.48c-.84,6.84-3.48,24.72-8,53.76-4.2,26.28-6.24,40.56-6.24,42.84a5.73,5.73,0,0,0,1.08,3,5.73,5.73,0,0,1,1.08,3,8.76,8.76,0,0,1-1.08,4.2l-2.76,4.08c-1.08-2-1.56-5.64-1.56-11q0-13.32,8.4-64.92c2.76-17.28,5.64-34,8.64-50.16q4.5,21.78,9,53.64l7.2,53.28c3-12.72,6.36-30.36,10.08-53,4.2-25.8,7.32-43.56,9.36-53.52Zm61.32,390.84a4.23,4.23,0,0,1,.72,2.76c0,2.16-5.28,8.76-15.84,19.68a198.35,198.35,0,0,1,13.8,18.48c6.36,9.48,9.6,14.88,9.6,16,0,1.8-.12,2.64-.24,2.4l-.48,1.2a3.17,3.17,0,0,1-2.16.48c-1.68,0-9.72-11.64-24.12-34.8L316.44,443l-1.32,19.56-.48.48-1,.84a6.42,6.42,0,0,1-1.32-3.36l-.24-3.72c-.6-13.92-.72-24.36-.6-31.32.36-12.24,2.28-21.24,5.76-27.12l.84,1.32a6.32,6.32,0,0,1,.48,2.76c0,4-.48,13.92-1.56,29.88,3.24-4,7.92-9.12,14-15.36,6.48-6.6,13.32-13.2,20.52-19.92A6.56,6.56,0,0,1,353.64,398.64Zm21.12-185.16-12.36.84-24.84,1.08h-1.68c-.12,7.8-1.56,27.48-4.32,58.92-3,34.2-4.56,52.32-4.56,54.24l-.6.48-1.32.72A101,101,0,0,1,324,312.6c0-10.68,1.2-29.64,3.6-57.12,1.56-18.6,3-31.92,4.08-40.2l-3.6-.12-7.8-.6-7.92-.24-8.4-.84q-13.68,1.26-17.64-2.52a4,4,0,0,1-1.32-2.88v-1.56a20.7,20.7,0,0,1,.36-4.32l1-.48v.48q.9,2,18.72,3.24l16.32,1.08,27.24-1,14.88-1,23,.24.84,1.32a5.69,5.69,0,0,1,.48,2.76l-.24,2.4L386.52,213Zm2-145,.24,3q0,6.84-29.4,43.32l-3.24,4c4.08,6.6,10.44,18.24,19,34.68,12,23.16,18,36.84,18,40.8l-.24,3.24-.48.48-.84.84c-5.64-10-13.92-25.56-24.6-46.92-7.08-14-11.76-23.64-14.16-29l-26.52,31.44-8,42.36c-1.32-.72-1.92-2.64-1.92-5.64,0-5.4,2.4-23.64,7.08-55,4.68-31.56,8.4-52.92,11-64.32a22.34,22.34,0,0,1,1.32,8.4c0,13.8-2.28,33.84-7,60l-.6,2.88c4-5.4,10.68-14,20-25.92,20.4-26,33.48-43.08,39.24-50.88A6.37,6.37,0,0,1,376.8,68.52ZM351.6,19.2l-7-4c-2.28-1.32-3.84-2-4.92-2C325.56,13.2,316,18.48,311,28.92c-2.16,4.68-3.24,10.44-3.24,17.52a11.24,11.24,0,0,0,1.92,6.84c1.8,2.52,4.56,3.84,8.4,3.84,13.92,0,25.68-1.8,35.16-5.28,4.68-1.8,8.16-3.48,10.2-5.28l1.32,1.8a7.3,7.3,0,0,1,.36,2.64c0,2.76-3,5.88-8.88,9.36A42,42,0,0,1,335.4,66c-16.92,0-27.12-3-30.48-8.88a10.11,10.11,0,0,1-1.2-6.6l.84-4c0-12.84,2.52-22.92,7.56-30.12a26.18,26.18,0,0,1,16.8-11.28A28.12,28.12,0,0,1,345.6,6.6c5.16,2,7.68,4.56,7.68,7.56l-.12,2.28-.24,1.44-.48.48ZM442,13.08v2.28l-.24,1.44-.48.48-.84.84-2.64-1.44a5.91,5.91,0,0,1-2.52-2.28L431.52,14l-4.08-.84-18.72.36Q392,24,386.76,30.12l-1.2,1.56,5-.84c0-.12,5-.12,15.24.12l21.6.48,8.88.24,1.8,2.16a7.59,7.59,0,0,1,.6,3.12,7.41,7.41,0,0,1-.6,3c-.48,1-1.2,1.08-2,.36l-4.56.24-5.16.6-8.76-1.08-5.4-.84c-13.32,0-21.72.48-25,1.32A3.87,3.87,0,0,1,384.12,42a3.46,3.46,0,0,1-2.28-.72,22.47,22.47,0,0,0-.48,5,7.06,7.06,0,0,0,2.76,5.4c2.52,2.16,6.72,3.24,12.48,3.24,17,0,29.76-1.32,38.16-3.84a60.33,60.33,0,0,0,8.76-3.36,52.47,52.47,0,0,1,7.92-3.12l.84,1.32a5.54,5.54,0,0,1,.6,2.76c0,3.24-4.32,6.48-13.08,9.72A85.39,85.39,0,0,1,409,63.84c-16,0-25.92-2.64-29.64-7.8a8.2,8.2,0,0,1-1.68-5.76l.48-3.6a77.49,77.49,0,0,1,.72-12.48,24.39,24.39,0,0,1,3.6-9.48C385.92,19.44,394.8,12.6,409,4.32l18.72.24c2.52,1.68,6,2.88,10.56,3.72a8.26,8.26,0,0,1,2.88,1.2C441.72,10.08,442,11.28,442,13.08Zm93.12,93a15.34,15.34,0,0,1-2.16,7.32c-1.44-.84-3.36-3.12-5.88-6.84a80.64,80.64,0,0,0-7.8-10.8c-8.52-9.48-20.52-14.28-35.88-14.28l-19.44.24c-8,1.08-15.48,10.32-22.56,27.72a141.09,141.09,0,0,0-6.48,20.16c-1.56,6.24-2.4,10.8-2.4,13.8,0,4.32,1.92,9.72,5.88,16.08,3.12,5.16,8.28,12,15.48,20.76l21.72,26c9.72,11.64,18,22.2,25.08,31.8,20.28,27.6,35.76,55.2,46.68,82.8a298.94,298.94,0,0,1,21.36,111.84q0,51.3-16.92,84.6-27.54,54.9-100.56,73.56-78.12-7.74-100.68-36.36a48.21,48.21,0,0,1-9.84-24.6,107,107,0,0,1-.6-11.64l.12-10.2c0-7.8,1.32-20.88,3.84-39l.72-.48,1.44-1.2a17.55,17.55,0,0,1,2.76,9.84l-1.68,14.4c-1.08,8.88-1.56,14.64-1.56,17.16A48.41,48.41,0,0,0,348.36,523,70.14,70.14,0,0,0,360,545.4q23.22,30.06,73.08,30,68.94,0,103.68-51.12,13.68-20.16,20.52-46.44a174.14,174.14,0,0,0,6-44.88,265.14,265.14,0,0,0-21.36-104.4c-10.68-25.32-26.28-52-46.92-79.68-6-8-14.28-18.84-25-32.16s-17.88-22.44-21.84-27.84c-14.28-19.2-21.36-34.44-21.36-45.6,0-4.32.84-10.44,2.52-18.24a159.54,159.54,0,0,1,7.2-25.32c7.92-21.48,17.16-32.64,27.6-33.72q28.26-4.86,52,15.12a73.11,73.11,0,0,1,14,15.24C533.4,101,535.08,104.28,535.08,106.08Z" transform="translate(-8.64 -3.55)"/></svg>