<svg id="Layer_1" data-name="Layer 1" xmlns="http://www.w3.org/2000/svg" viewBox="0 0 498.72 364"><defs><style>.cls-1{fill-rule:evenodd;}</style></defs><path class="cls-1" d="M35.4,97.2a866.2,866.2,0,0,0,9.24,119.16c6.12,41.88,11.16,84.12,15.12,126.48,2,21,3.24,42.12,3.84,63.24.36,12,2.52,22.44,6.72,31.44l.36-.36,1.32,3a241,241,0,0,0,7.8-38.76C84.6,359,90.12,316.92,96.36,274.8a625.77,625.77,0,0,0,6.6-77.16q1.26,35.46,5.16,71.4c1.8,16,3,31.92,3.72,47.88A932.87,932.87,0,0,0,126,443.52c3-1.8,4.32-4.56,3.84-8.28l-.24-1.92a12,12,0,0,0,1.2-5.88A595.26,595.26,0,0,1,141,309.6q11.7-62.82,19.92-126.24a138.45,138.45,0,0,1,2.76-16,220.31,220.31,0,0,0,4.56-63.72,355.47,355.47,0,0,0-9.6,47.88q-8.46,63.36-19.2,126.24-9.54,56.88-14.64,114.48-4.5-41.94-7.2-84.6A1161.87,1161.87,0,0,0,103.08,181.2v-1.56l-.24,1.44-.24.24v1.08q-8.82,48.78-14.16,100.32l-6.84,63.6a497.92,497.92,0,0,1-10.44,59.52c-.48-18.36-1.68-36.6-3.6-55Q61.08,287,53,223.44c-5.4-42.36-10.92-84.6-16.8-126.6C35.64,96.72,35.4,96.84,35.4,97.2ZM307.08,200c1.32,17.64,2.76,35.16,4.44,52.8a55.84,55.84,0,0,0-23.16,3.48q5.58-39.78,12.12-79.44A334,334,0,0,0,304.56,138C304.8,158.4,305.64,179,307.08,200Zm-2.28-84.36-.12-2.28c-2.28.72-3.6,2.52-4.08,5.52q-9,62.82-16.68,126-7.56,63.72-19.44,126.6a328.54,328.54,0,0,1-12.36,46.56c-4.08,11.88-3.84,22.32.6,31.32a60.08,60.08,0,0,0,8-20q12.6-62.82,21-126.12l4.92-34.92,1.2.36a71.81,71.81,0,0,1,24.72-3.6c2,20.88,4.2,41.64,6.72,62.4,1.32,10.8,2.28,21.6,2.64,32.52a886.76,886.76,0,0,0,9.72,95.64,2,2,0,0,0,1.2-1,80.52,80.52,0,0,0,1.92-30.84c-2.28-17.88-4.2-35.88-5.88-54q-6.12-63.9-10.68-127.8-4.5-64.44-11.76-127.32C305.52,114.6,304.92,115,304.8,115.68Zm-78.24-6.24a74.57,74.57,0,0,0-16.68-2.88c-5.52,2-9.48,6.12-11.76,12a399,399,0,0,0-28.2,128.16q-3.42,62.64-6.12,125.76-1.8,41.76,15.84,77.16a20.49,20.49,0,0,0,9.84-1.2,132,132,0,0,0,56.28-45.36c6.36-9,6.36-16.56-.12-22.68l-.72.84-1,1.68a3.47,3.47,0,0,1-1.92,2.16,1.08,1.08,0,0,0-.72.72,186.54,186.54,0,0,1-18.24,26C211.44,425.88,197.4,433,181,433.2A36.55,36.55,0,0,1,176,419.4a485.47,485.47,0,0,1-4.32-93.48c1-18.12,2.16-36.12,3.6-54.24,18.12-.36,36.24-.84,54.6-1.56l.72-1c3-5.4,2.76-10.44-.72-15.36A226.33,226.33,0,0,0,176.4,259c1.68-19.68,3.6-39.24,5.88-58.8a215.81,215.81,0,0,1,23.64-77l1.68-.72a20.58,20.58,0,0,1,8.52-1.44,7.68,7.68,0,0,0,3.12,1.2,33.26,33.26,0,0,1,10.32,3.12A105.68,105.68,0,0,1,248.88,138a13.58,13.58,0,0,0-1.32-13.32A42.5,42.5,0,0,0,231,110.4Zm137,1.56a29.63,29.63,0,0,0-3.24,13.44q-.72,64.26-3.72,128.28L351,381a469.23,469.23,0,0,1-4.32,48.48c-1.32,9.72.24,17.52,4.8,23.4l.84-3,1.08,1.68a184.43,184.43,0,0,0,49.44.24l.48-.72c2.88-6.12,1.92-10.92-2.88-14.16l-45.84,1.56a107.12,107.12,0,0,0,1.2-13.92q1.8-64.26,5-128.28c2.16-42.84,3.48-85.92,3.84-129,.12-10.92.6-21.72,1.56-32.4C367.08,125.52,366.12,117.6,363.6,111Zm103.92-8.76a314.58,314.58,0,0,0-78.48,12,15.88,15.88,0,0,0-1,4,8.45,8.45,0,0,0,2,6.6c17.16-2.64,34.56-4.8,52-6.36-1.92,15.12-3.12,31-3.72,47.4q-2.52,64.08-3.72,128.28A1151,1151,0,0,1,425.28,423c-1.32,10,.24,17.88,4.44,23.76a23.5,23.5,0,0,0,4.92-13.44c2.88-42.6,4.8-85.32,5.64-128.4.48-21.48,1.32-43.08,2.4-64.8,2-40.92,2.28-81.6.6-121.8L472.44,116a8.15,8.15,0,0,0,2.16-4.44,13.83,13.83,0,0,0-1.32-8.28l-1-.48Zm60.84,34.68c-.6,22.2-1,44.4-1.32,66.6l-.72,40-2.52-.24a111.21,111.21,0,0,0-37.44,12.48q2.16-60.84,1-120.72a140.53,140.53,0,0,0-5.76,37.32L478,300.6c-1.08,43.08-4,85.68-8.64,128-1.32,12.12,0,22.68,4.2,31.92a630.08,630.08,0,0,0,7-68.16c2-41.88,4-84,5.52-126.12a13.76,13.76,0,0,1,5.4-1.32l1.2-1,1-.72c11-1.8,21.84-4.08,32.52-6.72l-1.8,76q-1.8,65-2.88,128.28a2,2,0,0,0,1.68-.6,49,49,0,0,0,6.12-22.08q3.06-64.26,3.36-128.28l.24-64.92q.36-65.16,1.32-128.28C530.4,122,528.48,128.76,528.36,136.92Z" transform="translate(-35.4 -96.8)"/></svg>