<svg id="Layer_1" data-name="Layer 1" xmlns="http://www.w3.org/2000/svg" viewBox="0 0 302.59 210.96"><defs><style>.cls-1{fill-rule:evenodd;}</style></defs><path class="cls-1" d="M298.56,292a131.85,131.85,0,0,0-20,39.48c-8.28,26.28-5.28,50.64,8.76,72.84l4.32.72,2.76.84a60.54,60.54,0,0,0,11.16-3.6c16.92-7.56,22.8-19,17.52-34.32a6.21,6.21,0,0,0-3.84,1.92l-.72.84c-6.48,13.2-16.92,18.48-31.2,16A49.13,49.13,0,0,1,282.12,364c0-4.2.24-8.16.6-12.12l38.4-3.36.72-.84c2.76-5.16,2.4-10.08-1-14.64a155.6,155.6,0,0,0-35.16,4A88.22,88.22,0,0,1,306,300.6l5.16.6q9,2.52,17.28,5l.24-.48c0-12.84-7.44-19.2-22.44-19.2A15.1,15.1,0,0,0,298.56,292ZM278.64,197a1009.66,1009.66,0,0,0-24.84,109.2c-3.72,21-8.28,41.64-13.92,62l-1.2,5.16q-8.28-47.34-20.88-93.12h-.24l.24-4.56c-10.2,29.64-19.2,60.36-26.76,92l-.6,3.48-.36-1.32c-3.48-16.92-6.6-33.84-9.24-50.76A1055.61,1055.61,0,0,0,154,194.88c-3.48,4.92-4.2,10.92-2.28,17.88A824.29,824.29,0,0,1,176.16,338.4a317.76,317.76,0,0,0,13.32,62,8.11,8.11,0,0,0,2.76-3.6l1,2.28c4.92-20.28,10-40.8,15.36-61.32a283.63,283.63,0,0,0,8.52-49.2c1.8,18.12,4.2,36.36,7,54.48a313.26,313.26,0,0,0,15.6,61.44,13.22,13.22,0,0,0,3.24-7.2l.12-1.2a257.1,257.1,0,0,0,10.56-42.6q10.26-63,23.64-124.92a108.15,108.15,0,0,0,2.28-31.92A.62.62,0,0,0,278.64,197Zm173,1.08-1-1.68-82.44,1.32c-2.76,9.48-3.84,20.4-3.36,32.52.36,10.68.6,21.48.72,32.28v32.28l-.24,32.28A233,233,0,0,1,361,371q-3.24,16.74,6.48,27.36l6.36-97.68,50.4-3c3.24-5.16,3-10.44-.48-15.72a144.82,144.82,0,0,0-49.8,4.68l-4.2-76.44a228.05,228.05,0,0,0,81.72-.36A11.22,11.22,0,0,0,451.68,198.12Z" transform="translate(-150.64 -194.88)"/></svg>