<svg id="Layer_1" data-name="Layer 1" xmlns="http://www.w3.org/2000/svg" viewBox="0 0 518.52 591.6"><defs><style>.cls-1{fill-rule:evenodd;}</style></defs><path class="cls-1" d="M177.24,515.28c0,3.84-1,15.36-2.76,34.44-2,22-4,36.72-5.64,44-1.44-1.56-2.16-4.2-2.16-7.8,0-9.12.6-21.24,1.92-36.48l.12-1.08c-7.08.84-12.72,1.8-16.8,3.12a58.42,58.42,0,0,0-10,4.56l-.6,5.64c-1.56,15.48-3.24,25.2-4.92,29.16-1.08-.84-1.8-2.52-2.16-4.92l-.12-6.24c0-3.72.84-9.84,2.4-18.6s2.28-14.64,2.28-17.88a54.9,54.9,0,0,0-.12-9.84l-1-10.44c-.6-8,.84-12.6,4.32-13.8,1.08,3.72,1.56,10,1.56,18.6,0,4.92-.24,10.92-.72,17.88a16.27,16.27,0,0,1,3.84-2.4c5-2.4,12.72-3.84,22.92-4.44,1.56-14.88,3.6-24.36,6-28.32l1.2,2A8.06,8.06,0,0,1,177.24,515.28ZM277.32,426h1.08c.84,1.44,1.8,6.24,2.76,14.52.84,7.32,1.32,12.36,1.32,15.12A215.47,215.47,0,0,1,280.56,481c-1.8,13.56-2.76,21.72-2.88,24.6l2.64.48,2.76.12,7.44-.36,6.12-.72,16.44-.6,4.68-.84c2.64-.36,3.84-.72,3.48-1.08l-.36-.72c3.48,2,5.16,3.84,5.16,5.64a8.56,8.56,0,0,1-.24,2.28l-.84,1-5.76.48-6.36.84-7.92.36-8.28.72H276l-2.16-.48a8.81,8.81,0,0,1-.24-2.88c0-3.72,1.08-12.24,3.36-25.32s3.36-22.68,3.36-29c0-1.44-1.08-10.2-3.24-26.4l.12-2ZM177.84,19.32q0,3.78-13.2,110.16-14.58,118.62-19.32,173.4L133,444.6Q125,526.32,115.32,586.2c-5-5-7.8-11.52-8.28-19.32a170.11,170.11,0,0,0-.12-21.24l-1.44-20.76c-.48-8.52-1.08-15.36-1.8-20.64q-1.62-11-4-40.68c-1.44-17.64-3-31.44-4.68-41.28-3.72-21-6.72-48.36-9.24-82.08-3.24-46-5.28-73.2-6.24-82h-.24q-2.34,34-7,82.08l-8.52,82c-.84,8.88-2,22.44-3.36,40.56-1.32,18.6-2.4,32.4-3.36,41.4Q52.26,553,41.64,585.72L21.48,301.8Q5.64,73.74,5.64,43.08,5.64,28,6,24c.48-7.56,1.8-13.44,4-17.52a22.72,22.72,0,0,1,1.68,9L10.56,29,9.48,42.6q0,14.22,14.76,227.28,16,232.2,19.08,291.48c4.92-23.76,9.12-54.12,12.36-91.2q4.5-62.1,7.92-92.52L68,331.44,72.24,285l3-45.36c1.32-18.6,3.24-34,6-46.08q3.42,62.1,5.52,91.92,3.6,51.84,8.28,92.64,4.14,36.18,9.72,92.64l9.12,92.16q6.48-57.06,14.76-138.72L142.32,285q5.22-51.84,16-139.08Q170.88,43.14,174.84,7.56c1.44.72,2.4,2.64,2.76,5.76ZM298.68,88.68c-.48,4.92-2.16,16-4.92,33.36v.6c12.36,1.2,21.36-.48,27.24-5,4-3,5.88-6.36,5.88-10.08,0-4-3.24-8.28-9.6-12.72S304.8,88.2,298.68,88.68Zm-.36-5.28a5.37,5.37,0,0,1,3.6-.84c3,.12,6.72,1.44,11,4a42.27,42.27,0,0,1,11,9.36q5,6.12,5,11.88a25.34,25.34,0,0,1-2.64,11.16c-2.4,5-5.88,8.28-10.32,9.6l-23.4.24c-2.52,16.56-3.6,28.08-3.36,34.44l-2.16,9.72h-.84a46,46,0,0,1-.6-8.88c0-5.88,1.44-19.08,4.2-39.72,2.64-19.44,5-32.4,7.08-38.88l.24-.72L298,82.8ZM323.4,52,322,52.2a43.73,43.73,0,0,0-8.64-19.56C306,22.92,296,18.12,283.56,18.12q-50.22,0-75.84,55.2Q199.08,92,193,118c-2.28,9.36-4.56,20.88-7.08,34.44q-5.76,27-7.8,68.28l-2.28,55.44.6-.48,9.36-.24,16.68-.6v-.6l50.28.24,2.64.36,15.48.84,1.44,2.4a11.17,11.17,0,0,1,0,6.48l-1.44,2.4-18.12-.48-52,.24-4.8.48-20-.48-.48-.36-.12,3.12v55.2c-.48,5.4-1,12.72-1.44,22.2L173.16,382a40.15,40.15,0,0,0,1.08,9.72v47.88c4,48.12,12.84,84.12,26.88,108,14.76,25.32,35.4,37.92,62.16,37.92q23.22,0,45.84-30.72a285.52,285.52,0,0,0,16.08-25.08l11.76-20,1,2.28a10.8,10.8,0,0,1,.36,3c0,1.08-2.16,5.88-6.36,14.16a320.78,320.78,0,0,1-16.32,28.44Q289,598,268.44,598.08q-57.78,0-82.32-64.32c-5.52-14.64-9.72-31.68-12.48-51.12-1.08-8.16-2.4-20.76-3.72-37.92v-47q-1.08-4.86-1.08-15.84l.72-16.8c.48-10.68,1-19,1.44-25.08v-55.2c1.8-35.64,3.48-62.52,4.92-80.4,2.4-30.84,6.12-57.48,11.28-80.16a360.51,360.51,0,0,1,11.52-40.32A181.09,181.09,0,0,1,218.64,43.8c10.44-15.72,22.2-26.28,35.52-31.92A53.42,53.42,0,0,1,288.72,9a58.43,58.43,0,0,1,26.16,14q10.44,9.72,10.44,18.36C325.32,45.84,324.72,49.44,323.4,52Zm76.08,299.28a12.34,12.34,0,0,0,1.8,3.6l-.24,1.68a3.47,3.47,0,0,1-1.92,1.08,17.77,17.77,0,0,0-4.08-7.08,10.17,10.17,0,0,0-7.56-3.48c-7.32,0-12.72,1.68-16.2,5.16q-3.24,3.24-3.24,6.48c0,3,2.52,5.76,7.44,8.28,3,1.56,8.4,4,16.32,7.2,7.32,3.48,12.72,7.2,16.44,11.16a29.36,29.36,0,0,1,7.44,20.28,14.92,14.92,0,0,1-1.44,5,45.51,45.51,0,0,1-4,8c-4.8,7.32-10.56,10.92-17.4,10.92l-7.32-.24-5.64-.6c-14.28-.84-23.16-4-26.64-9.24a12.76,12.76,0,0,1-2-6.84l.24-5.88a39.58,39.58,0,0,1,.84-9.72c1.08,1.08,1.56,3.24,1.68,6.24.12,4,.48,6.6,1.08,8.16,2.28,6.6,10.92,10.44,25.92,11.28a37.21,37.21,0,0,0,23.64-6.48c5.88-4,8.88-7.68,8.88-11,0-6.36-2.52-11.64-7.44-16.08-3.24-2.88-8.76-6.12-16.44-9.6-8.28-3.72-13.8-6.6-16.32-8.52-4.92-3.6-7.44-7.92-7.44-13,0-4.56.48-7.44,1.32-8.52s4.68-3.84,11.64-8.28c10,1.2,16.32,3.24,18.84,6.12A10.42,10.42,0,0,1,399.48,351.24ZM375.6,256.8l.24,2.76c0,4.32-4,19-11.88,43.8L350.76,344a393.71,393.71,0,0,1-24.12-76.56,266.33,266.33,0,0,1-5.52,36.6,304.13,304.13,0,0,1-10.2,36.72l-.24.24-1.44-.24c-.36-.12-.48-.84-.48-2,0-2.28,2.16-13.44,6.36-33.24,4.56-21.24,8.52-38.16,12-50.52.84,10.44,4.08,24,9.48,40.8l13,40.44q4.5-12.24,12.24-40c5-18.24,9.24-32,12.72-41.28ZM391,172.56c1.92,1.08,6.6,1.92,14.16,2.28l.84,2.76-.36,2c-.12,0-.36.24-.72.6A100.14,100.14,0,0,1,386,177.72c-6.84-1.56-11.4-2.52-13.44-2.64l-12.12.84-3.36-.12-1.32-.12v-.12l.36,9.24c0,8-.12,16-.48,23.76l17.88-1.2,15.24-.84.6.6a7.5,7.5,0,0,1,.24,2.16,10.92,10.92,0,0,1-.24,2.52l-.84.84-13.32.36-13.68.72-6.12-.12c-.72,15.48-2,30.24-4,44.16l-.72.48-1.2.84-.84-.84a9.4,9.4,0,0,1-.24-2.52c0-7.08,1-22.2,2.88-45.6l3.12-38.28h.84v-2.4l4.68.12,14.28.6C383.28,170.76,388.92,171.48,391,172.56ZM522.24,11a10.6,10.6,0,0,1,1.32,9.6l-1.8,3.12L502,24.84l-8.4,1.08L465,26.28l-14.4.24V99.6Q452,137,456.12,199.8q2.34,35.82,2.28,83.88l-.12,20.16c-.12,13.56-.48,23.88-1,31v79.56l-.72,42.72c-.36,17.16-1.2,31.32-2.52,42.6-.6,4.92-1.44,19.08-2.4,42.72C451,559.8,449,573.6,445.92,584a4.07,4.07,0,0,1-3.48-3.48,30.13,30.13,0,0,1-.24-4.44c0-12.12,1.56-43,4.68-92.28l5-74.64V329.76c.48-6.6.84-15.84,1-28l.12-18.36q-.72-56.88-2.16-85.2l-3-40.32c-1.56-21.24-2.4-36-2.4-44.52,0-6.72.12-11.64.24-14.88V26.64l-10.56.48L404,27.36c-20.76.36-31.32.6-31.68.84H364.8c-2.76-.36-4.56-1.68-5.4-3.84a12.48,12.48,0,0,1-.36-3.72c0-2.76.36-4.68,1.08-5.52a3.27,3.27,0,0,1,3-.6l4.56.84A9.74,9.74,0,0,0,373.44,14c42.24-.36,63.84-.72,64.92-1.08l56.28-.48,1.92-.36,10-.72v-.6Z" transform="translate(-5.64 -6.48)"/></svg>