<svg id="Layer_1" data-name="Layer 1" xmlns="http://www.w3.org/2000/svg" viewBox="0 0 278.21 211.8"><defs><style>.cls-1{fill-rule:evenodd;}</style></defs><path class="cls-1" d="M156.12,199.92v.84l1.32,1.68-.72,1.56Q169,265.92,182.64,327.84a323.93,323.93,0,0,1,7.56,70.92,1.9,1.9,0,0,1-1.92,2.16q-7.92-29.52-13.56-61.8-11-63.36-23.88-125.88a37.15,37.15,0,0,1,1.68-22.08l.6-.12A25.1,25.1,0,0,1,156.12,199.92Zm119-3.72A240.27,240.27,0,0,1,268.92,259q-14.22,62.46-24.6,125.64a34.58,34.58,0,0,1-3.48,10.8l.48,3.48a3.55,3.55,0,0,1-1.68,4c-5.88-8.28-9.84-18.12-11.88-29.76q-6.84-38.7-11.76-77l-1.2,6.6C208,334.92,200.16,367,191.64,398.76q0,.36-1.44.36a224.56,224.56,0,0,1,4.8-47.4,693.14,693.14,0,0,1,18.84-72.36l-.24-2.4c-.12-.6.24-.84,1-.72l.24.48,1.92-5.88a121.77,121.77,0,0,1,.36,13.32,449.32,449.32,0,0,1,13.44,53.64l6,32.76c5.16-19.56,9.72-39.36,13.68-59.16q11.7-58.14,24.24-114.84Q274.44,196,275.16,196.2Zm151,136.08-.48-33.84-6,34L397.2,337l.24-40.44q-6.66,31.14-11,62.88c-1.92,14.28-.12,27,5.52,38.28l4.68-48.12,22.08-3.24c-6.36,19.32-6.36,37,0,53.16l6.84-54.84,1.44-.48a12.09,12.09,0,0,0-.12-10.56ZM363.6,317c.36-19.8-9-25.56-28.08-17-14.88,6.6-23.52,18.12-26,34.56A92.63,92.63,0,0,0,314.4,381c6.36,16.92,18.84,22.32,37.2,16.2s24.48-16.32,18.24-30.6l-2.16,6.48q-22.14,20.52-43.8,4.32c-7.92-5.88-11.64-13.92-11.28-24.12a125.77,125.77,0,0,0,44.76-4.56,10,10,0,0,0,.6-9.36l-1.32-2.76-42.12,5.28q9.18-37.08,41.4-29.28A13.92,13.92,0,0,1,363.6,317Z" transform="translate(-149.91 -191.04)"/></svg>