<svg id="Layer_1" data-name="Layer 1" xmlns="http://www.w3.org/2000/svg" viewBox="0 0 507.37 315.53"><defs><style>.cls-1{fill-rule:evenodd;}</style></defs><path class="cls-1" d="M177.36,148a11.53,11.53,0,0,1-2.28,6.6c-3,13-5.76,26-8.4,39.24q-11.16,54.72-21.36,109.68c-5.16,28.56-9.12,57.24-11.64,86.16-1.08-7.2-2.52-14.4-4.08-21.6A974,974,0,0,1,110.52,244.8l1.2-6.12c-.48,0-.72.12-.72.24l-1.32,3.36-.12-.12-1.08-.84c-.36.12-.6.24-.6.36V247c-4.56,12.36-8.64,25.08-12.36,38.28-4.56,16.44-8.88,33-13.08,49.56a464.5,464.5,0,0,0-10.08,54l-.6-4.44Q62.4,321.18,54.84,257.88,47.28,194,34.92,132c-.48-.12-.72,0-.72.24q4.86,57.06,12.6,115.08c5.64,42.12,10.8,84.24,15.6,126.6,1.08,10.68,1.92,21.24,2.4,31.8a61.36,61.36,0,0,0,4.56,21.72l-.12,1.2a2.82,2.82,0,0,0,1.44,1.92,58.19,58.19,0,0,0,3.48,5.88,3.18,3.18,0,0,0,.6-1.68V417.48c3-18.36,6.48-36.48,10.56-54.6q12.06-52.74,22.68-105a459.87,459.87,0,0,0,9.24,83.52,542.67,542.67,0,0,1,9.12,63.48,64.5,64.5,0,0,0,4.8,20.28l-.24,4.56c.6,1.92,1.68,2.52,3.48,1.68l2.76,4c.48-.6.72-1.08.6-1.56-.12-5.64-.48-11.28-.84-16.8l7.68-48.72q9.54-63,20-125.88c5.28-31.56,9.6-63.12,13.08-94.44Zm53.16-.24a64.22,64.22,0,0,0-27,29.64,300.84,300.84,0,0,0-26.76,99.36c-1.92,20.76-3.36,41.52-4.2,62.52-1.56,34.44,6.72,65.76,24.6,94.08a16.59,16.59,0,0,0,7.8,6.6Q236.1,452.7,255,423c7.8-12.12,10.44-24.36,7.92-37a14.74,14.74,0,0,0-3.84,5.88c-6.48,18.36-18.84,30.24-37,35.4a16.22,16.22,0,0,1-13.92-2,36,36,0,0,1-13.68-17A232.7,232.7,0,0,1,180.6,297.48l.24-1.8c20.88-1.8,41.52-4.2,61.8-7l.48-.84C246,281.52,245,276.6,240.24,273c-19.32,2.52-38.52,5.52-57.84,9,2-15.72,4.2-31.44,6.72-47.16q7.2-44.46,40.8-72.72l5.28.36a122.87,122.87,0,0,1,32.64,12.36,3.87,3.87,0,0,0,1-2.52,15,15,0,0,0-3.12-9.12,39.93,39.93,0,0,0-4.32-4.68l-2.28-.84A73.85,73.85,0,0,0,230.52,147.72Zm129,98.64q-4.86-52.2-40.8-88.32a4.44,4.44,0,0,1-2.16-1,40.74,40.74,0,0,0-23-6.36v0A2.78,2.78,0,0,0,291,153.6c0,1.68.12,3.36.24,4.92l.36,2.52h.24a386.63,386.63,0,0,0-4.2,56.28q-.36,64.26-4.56,128.16c-1.56,21.6-3.48,43.2-5.88,64.8-1.32,12.6.36,23,5,31.56l1.44-6c6.84,8,16.56,8.64,29,1.56A61.5,61.5,0,0,0,334,417.48q35.82-55.26,29.88-123Zm-.6,63.72a189.7,189.7,0,0,1-4,45.12,100.32,100.32,0,0,1-18.84,41A83,83,0,0,1,298.8,424c-3.6,1.32-6.24.72-7.8-2l5.64-9.24-9.48,7q4.14-91.62,7.08-185,1.08-36.54-.24-73a61.28,61.28,0,0,1,36.48,26.16,126.18,126.18,0,0,1,18,42.48q4.5,19.62,7.2,39.6A373,373,0,0,1,358.92,310.08ZM427.2,181.8a29,29,0,0,1,17.4,4.68c1.2-14-5.52-20.28-20-18.72-21.24,2.28-34,14.52-37.92,36.72a871.59,871.59,0,0,0-11.76,215.64,21.21,21.21,0,0,0,10.56,17.76A36.85,36.85,0,0,0,393,441.6a11.93,11.93,0,0,0,9.12-.36L412.2,436l7.2-4.8a86.06,86.06,0,0,0,16.2-16.8l1.32-1.68a86.05,86.05,0,0,0,6.24,34.8,424.32,424.32,0,0,0,4.8-118.8,136.14,136.14,0,0,0-42.36,1.68l-.48,10.56a81.57,81.57,0,0,0,37.8,1.92q4.5,47-32.76,73.68-27.72,20.16-28.92-16.32a955.72,955.72,0,0,1,13.68-192.36C399.24,191.4,410,182.64,427.2,181.8Zm110.16,6.6-.24-8.4a49.53,49.53,0,0,0-29.52-7,53.38,53.38,0,0,0-11.4,1.2,124.09,124.09,0,0,0-25.08,60.48,1068.16,1068.16,0,0,0-9.48,138.48L461.16,389a54.22,54.22,0,0,0,.36,10.8,38.44,38.44,0,0,0,2.4,9.72,33.61,33.61,0,0,0,20,19.56c11.4,4.44,22.56,2.4,33.24-6.24a66.35,66.35,0,0,0,23.64-39.36,35.84,35.84,0,0,0,.36-12.36,303.46,303.46,0,0,0-19.32,26.64A34.48,34.48,0,0,1,503.76,412a37.15,37.15,0,0,1-7,1.8l-5.64.36-6-.24-6.24-1q-16.74-44.28-10.68-93.24l1.56-16L525.24,289a9.42,9.42,0,0,0,2.28-6.36,9,9,0,0,0-1.08-4.44l-1.68-2.52c-18.84,0-36.84,5.16-53.76,15.48.84-33.6,8.64-64.56,23.64-92.76a21.72,21.72,0,0,1,13.68-10.92A38.09,38.09,0,0,1,524.76,186l9,1.68Z" transform="translate(-34.2 -131.95)"/></svg>