<svg id="Layer_1" data-name="Layer 1" xmlns="http://www.w3.org/2000/svg" viewBox="0 0 300.7 210.73"><defs><style>.cls-1{fill-rule:evenodd;}</style></defs><path class="cls-1" d="M335.28,309.48c1.44-9.36-2.64-16.32-12.36-20.76l-3.12-1.32c-16-2.16-27.72,5.16-35.16,22.08A131.83,131.83,0,0,0,273.84,351c-1.44,15.72,1.92,29.64,10.2,42a20.84,20.84,0,0,0,17.76,9.84c17.28.36,29-7.08,35.16-22.56,1.8-4.44,1-8.64-2.52-12.36l-4.32,7.56a54.33,54.33,0,0,1-38.52,12.24l-3.36-1.8a57,57,0,0,1-8.52-34.2L319,352.8c4.2-4.68,4.56-9.48,1-14.4l-.48-.48a121.23,121.23,0,0,0-36.72-1c3.24-19.2,15.36-29.88,36.12-32A22.63,22.63,0,0,1,335.28,309.48ZM273.6,196.08q-15.12,54.18-25.2,110.28c-3.72,21-8,42-12.72,62.88l-1,5.76c-5.16-25.08-10.08-50.28-14.52-75.36a165.91,165.91,0,0,0,.84-17.16l-2.88,5-.12-.12c-.72-.12-1.08,0-1.2.36l-.12,2.28A98.15,98.15,0,0,0,208,316.32a230.15,230.15,0,0,1-10,37,142.45,142.45,0,0,0-7.32,29.4,396.77,396.77,0,0,0-6.24-64A1222.86,1222.86,0,0,0,155,194.88c-1.44.24-2,1.32-1.92,3.12,3.24,24.84,7.68,49.68,13.08,74.28Q179.88,334,188.88,396.12h.6V397a2.32,2.32,0,0,0,2.16,2.16,543.25,543.25,0,0,0,23.76-72.36l1.8-8a232.31,232.31,0,0,0,6.48,37.56A187.69,187.69,0,0,1,228.6,381c1.2,8.64,4.2,15,8.88,19.2v.24l.12-.12.72.6a6.39,6.39,0,0,0,.84-4.68L239,396a242.06,242.06,0,0,0,9.84-42.36q8.82-63.54,23.64-125.76A78.44,78.44,0,0,0,274.08,196Zm93.84,120.36a977.58,977.58,0,0,0,1.08-124.32c-3.84,7.2-5.52,15.84-5.16,26a747.87,747.87,0,0,1-1.56,85.32q-2.7,32.22-8.28,63.72Q350.1,385,356,399.6a3,3,0,0,0,2.52-2.88c2.76-18.24,4.92-36.6,6.72-55l.48.72,31.44-50.16.24.72q18.36,35.46,34.44,72.84l7.56,18c3.36,8,7.44,13.92,12.12,17.88a7.79,7.79,0,0,0,1.68-4.8,69,69,0,0,0-8.76-32.4q-22.14-40-41.4-81.6L431.4,238.2a151.08,151.08,0,0,1,14-18.6c8.64-9.72,10.56-18.84,5.88-27.24q-31.5,49-64.44,97.68c-5.88,8.64-12.12,17-18.48,25.08Z" transform="translate(-153.11 -192.12)"/></svg>