<svg id="Layer_1" data-name="Layer 1" xmlns="http://www.w3.org/2000/svg" viewBox="0 0 470.36 372.01"><defs><style>.cls-1{fill-rule:evenodd;}</style></defs><path class="cls-1" d="M246.24,96.12c-4,3.6-6.48,8.64-7.68,15.12Q226.14,174.6,217.44,238.8,208.8,302.16,202,365.64c-1.8,15.72-3.72,31.32-5.88,46.8l-.6,5.52a700.29,700.29,0,0,1-16.2-80c-5.64-39.24-12.6-77.88-21.12-116a19.39,19.39,0,0,0-2.4-10.8,1.73,1.73,0,0,0-.72,1.2q-14.22,45-25.68,91.44Q116.22,357,107,410.88a632.26,632.26,0,0,0-7.8-65q-11-63.18-20.76-126.48-9.9-62.82-25-124.32l.48-1L54.36,91l-.24-.84L49.2,81.24c-2.64.84-4,3-3.84,6.48A40,40,0,0,0,46.68,97.8,1254.27,1254.27,0,0,1,72.6,224.16q9.72,63,20.28,125.76a486.62,486.62,0,0,1,6.36,63.24c.36,12.12,3.24,22.44,8.4,30.84a2.58,2.58,0,0,0,.72-1.56v-.84l.36.24.84-1.68a14.26,14.26,0,0,0,0-10.44c4.08-18.36,7.92-36.72,11.4-55.08Q133,311.64,149,249.36a92.72,92.72,0,0,1,5-14.4c4.68,22.68,9,45.36,12.84,68.28q10.44,62.82,20.28,125.88c1.44,9.36,4.56,16.8,9.48,22.2a49.57,49.57,0,0,0,2-10.2l1,2.4a586.91,586.91,0,0,0,7.92-62.4q4.5-63.9,13.32-127.08,8.82-63.54,23.28-126A93.83,93.83,0,0,0,246.24,96.12Zm239.4,195A349.48,349.48,0,0,1,503.28,334a115.52,115.52,0,0,1,6,42.84,94.46,94.46,0,0,1-13,43.32c-8.52,14.52-21.12,20-37.92,16.56a282.8,282.8,0,0,1-33-8.4q7.92-79.56,8.16-159.6L454,262.2A57.19,57.19,0,0,1,485.64,291.12Zm-5.52-95.64Q476.7,241.38,434,256l.84-33.84a964.37,964.37,0,0,0-3.6-115q45.9,5.58,49,53.52A240.6,240.6,0,0,1,480.12,195.48Zm-108.84-71.4q-11.52-36.54-49.68-23.16c-16.44,5.64-28.2,16.8-35.16,33.24A329.51,329.51,0,0,0,266.76,197a498.84,498.84,0,0,0-8.64,62.52c-.84,12.36-1.56,24.72-2,37.2a473.61,473.61,0,0,0,3.84,79.32c.48,4,1.2,7.92,2,11.88a144.76,144.76,0,0,0,4.92,17,188.58,188.58,0,0,0,18.24,37.32,18.23,18.23,0,0,0,12.72,8.52A102,102,0,0,0,353,444.6a117.88,117.88,0,0,0,39.6-26.52c5.88-5.88,7.8-12.6,5.64-19.92q-34,25.56-77.4,38.64a28.7,28.7,0,0,1-25.32-3.72,29.36,29.36,0,0,1-11-12.48,214.93,214.93,0,0,1-15-40.44,231.79,231.79,0,0,1-6.36-38.64,368.14,368.14,0,0,1,.24-59.76,351.45,351.45,0,0,0,82.32-7.08,13.06,13.06,0,0,0-1.08-13.8l-80.52,9.36q-3.06-81.36,45.12-142.56c14-17.88,31.44-21.48,52.2-11l4.92,3,.6,1.44Zm56-20.4.36,1.92c.24,27,.6,53.88,1.2,80.88q.9,48.06-.72,95.76-2.16,64.62-9,128.16a64.79,64.79,0,0,0,.36,18.12,12.43,12.43,0,0,0-3.36,7.92,11.5,11.5,0,0,0,3.24,8.88L430.08,448A257.87,257.87,0,0,0,472,453.24a14.26,14.26,0,0,0,10.56-3.84q42.48-38.16,30.6-96.84a364.56,364.56,0,0,0-19.2-63.12c-6.6-16.2-17-27.84-31.08-34.92A76.83,76.83,0,0,0,483,216a185.71,185.71,0,0,0,.6-73.68C478,112.56,460.2,97,430.08,95.52L430,93.84l-1.08,2.28a5.8,5.8,0,0,0-1.56,4.32Z" transform="translate(-45.35 -81.24)"/></svg>