<svg id="Layer_1" data-name="Layer 1" xmlns="http://www.w3.org/2000/svg" viewBox="0 0 580.08 587.52"><defs><style>.cls-1{fill-rule:evenodd;}</style></defs><path class="cls-1" d="M358.68,555l-.6,7c-1,11.64-1.8,20.52-2.52,26.76a31.72,31.72,0,0,0,20.88-8.16q7.92-7,7.92-13.32c0-2.52-1.56-5.88-4.68-10.32q-4-5.76-8.28-7.2A77.1,77.1,0,0,1,358.68,555Zm1.56-22.56-1.08,17.28,1.08-.6,7.2-3.24c7-3.24,10.44-6.48,10.44-10,0-2.4-3.12-6-9.48-10.8l-5.52.12-3,.12A61.82,61.82,0,0,1,360.24,532.44Zm-1.44-11.88,10.44.24c4.92,2.64,7.92,5.28,9.24,7.8.6,1.44,1,4,1,7.68,0,4.8-1.32,8.4-4,10.68l-.84.72a14.2,14.2,0,0,1,7.92,6.6A25,25,0,0,1,386,567.6a22.35,22.35,0,0,1-5.16,14c-4.08,5.52-10.2,10-18.48,13.2h-7.8l-.24,1.68-1.08.24-.48-1.92v-.6l-.72-.72a2.91,2.91,0,0,1-.48-1.56l.6-3.24H353l2.64-28q2.16-23.58,2.16-35.28l-1.08.12-.48-.24v-1.8a2.93,2.93,0,0,1,.84-2.4l.6-.36-.12-1.44h.84Zm-29.88,36.72h-6.36l-.24,1.44-4,26.52,4,.24c12.48,0,20.4-2.4,23.64-7.08a10.84,10.84,0,0,0,1.8-5.64l-.24-4.08A19.25,19.25,0,0,0,346,560.4a8.94,8.94,0,0,0-8.28-5.64A21.61,21.61,0,0,1,328.92,557.28ZM324.36,521l.24,8.64a177.45,177.45,0,0,1-1.2,21c8.88-1.32,14.28-3,16.32-4.92a4,4,0,0,0,1.2-3l-.12-3.48c0-6.6-3.12-11.52-9.24-14.76l-6.24-3Zm-1.92-2.4v-2l.12-.6.12-1.8h1.08l.24,1.68c8.52,1.44,14.16,4.68,16.8,9.6,1.44,2.76,2.16,7.44,2.16,14.16,0,5-.24,8.28-.84,9.84l-.36.84c3,1.08,5,4.32,6.36,9.6.84,3.6,1.32,9,1.32,16.2a14.34,14.34,0,0,1-3.6,9.72q-5.76,6.3-19.08,6.12h-8.64l-1.2-.48-.48.12-.24-.48a2,2,0,0,1-1.08-1.32,4.1,4.1,0,0,1-.36-2v-.12a10.84,10.84,0,0,1-.48-3.36q0-9.36,4-33.12c2.28-13.56,3.6-24.24,4.2-32.16ZM297.72,469a62.08,62.08,0,0,0-6.12-14q-11.16-17.82-30.6-14.4-.18,14.4-2.16,34.92L256,508.68c15.36,2.76,27.12-.6,35.16-10.2a38.3,38.3,0,0,0,6.6-11.88,28.74,28.74,0,0,0,1.68-8.28A38.66,38.66,0,0,0,297.72,469Zm4.44,9.36a47.27,47.27,0,0,1-4.56,20.28c-5.88,12.24-16,18.36-30.36,18.36l-13.56-.24-1.2-2a6.56,6.56,0,0,1-.48-2.88c0-1.32.12-2,.48-2.4l1.2-.72v-.36c0-15.24.24-28,.84-38.4q1.26-22.32,4.32-36.36l1.32,1.2.24-.24,1.44-1c16.56-.36,28.08,5.64,34.68,18.24C300.24,459,302.16,467.88,302.16,478.32ZM330,474.84a57.78,57.78,0,0,0-.84,8c0,5.88.48,9.72,1.56,11.76,1.92,3.84,6.6,7.08,14.16,9.6l7-.24a53.6,53.6,0,0,0,8.28-9.6,28.38,28.38,0,0,1,7.2-7.08l.48-6.36.6-.84q-2.7-.72-7.2,1.08l-4.2,1.92-3.84-.24-1.8-.24-.48-.36-.12-1.68a8.56,8.56,0,0,1,.24-2.28l.12-.36,8.4-2.16c5.88-1.32,10-1.92,12.36-1.56l.24.6.12,2.64c0,11.16-1.32,24.36-3.84,39.72l-1.08.36c-.48-7.44-.6-14.52-.48-21.12l-3.12,5c-4,5.64-7.92,9.36-12.12,11.16-12.48-1.56-20.28-5.76-23.52-12.84a23.13,23.13,0,0,1-1.8-8.76l.12-7.68c0-13.8,2.16-25.32,6.6-34.32,3.6-7.44,8.28-12.6,14.16-15.48,5.16-2.4,9.84-2.64,14.16-.6A10.41,10.41,0,0,1,367.8,443l-.12,2.4-.6.84-5.28-4.8a12.91,12.91,0,0,0-8.88-3.84c-8.4,0-14.88,7.2-19.32,21.72A91.7,91.7,0,0,0,330,474.84ZM167.64,343.44l.12,3.6c0,1.8-.84,14.52-2.64,38.16l.6-.24,17.4-1.56,2.4-42.6h.72a86.59,86.59,0,0,1,.84,12.6q0,33.3-4.2,79.92l-.36.48-.72.84a12.8,12.8,0,0,1-.84-3.24,25.94,25.94,0,0,1-.24-3.72c0-2,.72-14.76,2-38.28l-16.08,2-1.8-1.56-3,43.2-1.2.24a66,66,0,0,1-.48-9.72q0-36.18,5.64-83h1.08A8.39,8.39,0,0,1,167.64,343.44ZM285,204.72V240q0,12.42-3.72,85.32-3.78,73.26-5.4,93.36l2.16,1.08q40.5-.18,42.48-.72c1.8,1.08,2.64,2.88,2.64,5.52a9.17,9.17,0,0,1-1.8,5.76l-45-.24c-3.72-3.72-5.64-6.12-5.64-7.08,1.8-19.56,3.72-40.92,5.52-64q5.58-69.12,5.52-120l-2.16-59.28a31.94,31.94,0,0,1,0-4.8c.12-2.88.84-4.92,1.92-6A217,217,0,0,1,285,204.72ZM179.64,21.12q0,17.28-14.28,210.48-16.2,218.34-18.48,256.92v41.4c-.72,4.44-1.68,13.8-2.76,28.08-.84,11.64-2.28,20.88-4.2,28q-14.4-68.58-25.56-142.8-11-73.26-18-145.44h-.24Q90.9,383.22,84.6,441.48q-8.46,78.3-22.68,143.64-5.58-26.82-7.8-69.36l-1.56-35.28c-.6-14-1.32-26-2.28-35.76-1.56-16.92-3-40.56-4.44-70.68q-2.52-49.86-4.2-70.56-2.7-34-15.24-161.4Q15.06,28.14,15.12,21.48a27.46,27.46,0,0,1,.36-5.28L16.56,16q13.5,117.54,25.8,277.92,7,92.88,19.92,278H63c4.92-36,9.6-73,14.28-111Q91.14,347.52,91.2,321.48a31.15,31.15,0,0,1,1.08-9.36V249.6l.48-1.56a3.63,3.63,0,0,1,.84-1.68A298.3,298.3,0,0,1,100,285.6l3.36,39.48,3.36,39.48c1.56,15.6,3.36,28.92,5.64,40.08,4,19.92,8.76,46.32,14.16,79.32q9.72,59.94,13.2,78.72,7.74-156.06,15.72-275.76,9.9-149.4,22.44-273.12A15.37,15.37,0,0,1,179.64,21.12Zm131.16,23c0,1.8-.24,2-.6.72a173.22,173.22,0,0,0-14-10.8c-7.44-5-14.52-7.56-21.36-7.56q-33.48,0-52.92,64.08a367.29,367.29,0,0,0-13.68,69.48q-4.32,26.82-6.36,67.32c-.6,12.84-1.44,30.72-2.52,53.88l11.88-.6h33.48c9.6-2.16,15.72-3,18.24-2.52,1.8.24,2.64,1.56,2.64,4l-.12,2.64a3.2,3.2,0,0,1-2,1.56l-19,3.6-33-.24-.48-.84-12-.48-.24,6.48v60.84c-.72,4.32-1.08,11-1.08,20.28,0,4,.72,18.24,2.28,42.84,1.8,28.68,3.36,48.24,4.8,58.68l5.88,40.92c2.28,13.2,4.8,23.52,7.56,30.84q5.22,13.14,13.32,19.44c6,4.44,13.8,6.72,23.28,6.72,20.52,0,36.12-7.2,47-21.6a72.47,72.47,0,0,0,8.76-15.72c1.8-5.28,3-8.28,3.48-9A9.51,9.51,0,0,1,315.6,535c0,1.8-1.08,5.28-3.12,10.44a90.25,90.25,0,0,1-9.24,17.52c-10.68,16-22.92,23.88-36.6,23.88-15.36,0-27.6-3.36-36.84-10q-11.88-8.46-18-25.2c-3-8.28-5.28-19.56-6.84-33.6-1.44-16-2.76-27.72-3.84-35.16-1.32-9.72-3-29.64-4.8-59.64q-2.52-39.78-2.52-47.52c0-11.4.36-19.8,1.2-25.2v-60c1.92-37.56,3.36-62.64,4.32-75.48a805,805,0,0,1,9.48-80.16q16-91.26,54.12-115.68a68.86,68.86,0,0,1,34,9.6,45.79,45.79,0,0,1,10.2,8C309.6,39.6,310.8,42,310.8,44.16Zm42.12,319.08v50.64q3.78-12.06,12.6-36.72l12.36-35.52c1.32,13,2.16,27.72,2.28,44.4.12,9.6,0,23.88-.12,42.84l-.24,2.64-.84,1.8a108,108,0,0,1-4-27.12,187.2,187.2,0,0,1,1.2-28.08V357.84l-.24-.48q-1.44,4.68-11.88,34.2c-5.16,14.64-8.52,26.52-10.32,35.52l-.36.36-.72.48a3.21,3.21,0,0,1-1.92-.72l-.48-1.2V361.92l-.24-.6c-2,6.84-4.92,17.4-8.76,31.92-3.6,13.8-6.48,24.36-8.64,31.44l-1.08.24-.48-1.8v-2.64c0-5.4,3.24-19.8,9.84-43.2L351.12,343c2.16,1.8,3.24,4.92,3.12,9.24C354.24,353.64,353.76,357.36,352.92,363.24Zm20.4-23-6.24.36-14.64.24-14.88.48-10.32.84c-.6-1.08-.84-3.24-.84-6.48,2.52-44.76,3.84-70,3.84-75.84q0-3.42,2.16-4c.6,2.76.84,7.2.84,13.44,0,11.76-.12,21-.48,27.6A201.35,201.35,0,0,1,330.24,324v9.48l7.32-.84,29.76-1.32.48-.84.48,1.32c.12.36.72.6,1.8.6a3.12,3.12,0,0,1,3.24,2.4l.24,2.64C373.56,339.24,373.44,340.2,373.32,340.2Zm69.48-52.44h-.48a5.11,5.11,0,0,1-.12-2.4l.36-3.24c-5.64-12.84-9.36-19.2-11.4-19.2-12.6,0-20.76,8.52-24.48,25.68a129.17,129.17,0,0,0-2.28,19.8l-.84,13.44c-4.32,25.8-6.72,46.32-7.32,61.68l-.6,19.2,5.52-1.32a144.86,144.86,0,0,1,16.08-2.64c15.6-1.8,23.4-.6,23.4,3.72,0,1.8-.12,2.64-.24,2.4l-13.32,1.44-11.64.72-10.08-.12-9.84-.36Q393,490.08,393,506.16c0,3.84.12,8.28.48,13.32a250,250,0,0,0,2.88,25.68c4.2,24.12,11.64,36.24,22.32,36.24,13.32,0,22-3.72,25.8-11.16a28.89,28.89,0,0,0,2.4-8.52A33.64,33.64,0,0,1,448,556l1.08,1.8.24,2.64c0,6.6-.84,11.88-2.64,15.84-4,8.64-11.76,13-23.64,13-14.52,0-24.36-13.44-29.4-40.2a212.78,212.78,0,0,1-3.12-28.32l-.12-14q0-30.06,1.32-71.64c1-28.68,2-51.12,3.24-67.2a338.8,338.8,0,0,1,3.48-34.44c2.52-15.84,4.2-27.6,5.16-35.28,1.92-14.16,5.28-24.72,10-31.68,4-5.88,8.64-8.76,13.8-8.64,4.56.12,8.64,2.4,12.12,6.84a23.59,23.59,0,0,1,5.28,15A15.8,15.8,0,0,1,442.8,287.76ZM438.72,89.28c0,1.92-3.72,13.92-11.28,36.12-8,23.28-14.16,39.84-18.48,49.56-6.12-16.92-11.16-30.36-15.12-40.2a420.76,420.76,0,0,0-18.12-40.32,390.53,390.53,0,0,1-9,39.24c-2.28,8-6.12,21.24-11.64,39.36h-1.32a50,50,0,0,1-.24-5.28c0-4.68,1.68-12.24,4.92-22.44,3.84-10.68,6.12-17.64,7-20.88a62.15,62.15,0,0,0,1.8-10.68l1.2-12.12c1.08-9.72,3.6-15.6,7.32-17.76a328.62,328.62,0,0,1,18.48,40.2l14.52,39.72c3.12-7.2,7.68-20.28,13.68-39.12,5.88-18.36,8.76-28.56,8.76-30.48A9.58,9.58,0,0,1,433,89a15.14,15.14,0,0,1,4.2-4.56l1.2,2A8.06,8.06,0,0,1,438.72,89.28ZM533.16,48.6c-3.72-3.24-10.2-7.8-19.68-13.68-1.08-.72-4.32-1.92-9.72-3.48L488,26.4c-7.8-2.76-13.44-5.28-16.92-7.68v1l.6,7.92V93.36c.72,4.32,1.08,11.4,1.08,21.12q0,30.24-1.68,70.8l-3.36,71v108c.72,8.64,1.08,22.2,1.08,40.56q0,51.84-2.76,91.8a774.29,774.29,0,0,1-9.12,80.4,20.27,20.27,0,0,1,5.88-2.16l10.68-2.16a110.94,110.94,0,0,0,13.68-3.84c4.68-1.68,9.72-4.68,15.36-9.12,5.64-4.68,9.36-7.68,11.4-9a103.23,103.23,0,0,0,20.64-18.36,106.07,106.07,0,0,0,15.36-22,249.84,249.84,0,0,0,17-43.08,415.5,415.5,0,0,0,10.32-43.8q4.86-26.46,9.72-99.12,3.78-59.22,3.84-73.8c0-6-2.28-26-7-60.24q-7-52.38-10.08-64.56-6.66-26.46-28.68-62.52A61.1,61.1,0,0,0,533.16,48.6Zm32.28,41.52c6.12,16.2,10.44,26.76,13.2,31.92q4.14,17.82,10.56,71.64c4,33,6,52,6,56.88q0,8.64-4.56,74.4-5,73.26-8.52,102.12a261.23,261.23,0,0,1-9.24,44.4,251.27,251.27,0,0,1-17.76,44.16,161,161,0,0,1-12.84,19.44,212.18,212.18,0,0,1-22.2,24.84q-32,30.6-60.24,30.6c-3.24,0-5.28-.84-6.12-2.4a10.24,10.24,0,0,1-1.44-5.76c0-10.32,1.68-31.8,5.16-64.56q5.22-50.22,5.4-56.88c.36-16.44.36-41.16.24-74.16l-.24-46.32c0-53.88.36-94.44,1.08-121.44,1.44-23.64,2.4-43.68,2.88-59.88.84-22.2,1-42.48.6-60.84V30.84a46,46,0,0,1-.72-9.36,20.72,20.72,0,0,1-.24-4.56,9.35,9.35,0,0,1,.6-2.76l-.12-1a28.58,28.58,0,0,1,.24-4Q499.74,15,520.8,28.32a91.16,91.16,0,0,1,29,28.8C554.88,65,560,76.08,565.44,90.12Z" transform="translate(-15.12 -9.24)"/></svg>