<svg id="Layer_1" data-name="Layer 1" xmlns="http://www.w3.org/2000/svg" viewBox="0 0 481.89 370.2"><defs><style>.cls-1{fill-rule:evenodd;}</style></defs><path class="cls-1" d="M275.64,112.68a324.55,324.55,0,0,0,3,73.2q7.74,50,13,100.56a20.06,20.06,0,0,0-8-1l-34.68,1.8,7.2-44q10.26-63,19.08-126.36l-.24-.84-.84-1.56a243.53,243.53,0,0,0-13.44,58.32q-6.12,57.78-16.92,115l-.48.72a7.09,7.09,0,0,0-.84,5.64v.36l-.84,4.32Q229.14,362,215.88,424.92q-3.78,17.82,2.16,31.32c6.84-28.44,12.6-57.24,17.4-86.64l12-73.56,45.36,2,1.44,15q5.58,63,7.44,126.6.54,18.54,9.72,30.6a9.81,9.81,0,0,0,1.8-7.32c-4.08-32.52-7.32-65.16-9.6-98.16q-4.5-63.9-12.24-127.44L276,111.72A1.36,1.36,0,0,0,275.64,112.68Zm-45.36,23.16q-10.62,63.36-19.56,126.84c-5.76,42.12-11,84.24-16,126.6a251.54,251.54,0,0,1-5.52,31.32,56.45,56.45,0,0,0-1.8,13.68l-1.08-1.68c-5.64-24.12-10.44-48.48-14.16-73.2L152.88,233.52l-1.68,2.64.6-4.56c-.36,0-.6.12-.6.24a424.83,424.83,0,0,0-15.84,63.6L114,421.32a81.59,81.59,0,0,0-1.08,10.32c-4-23.4-7.68-47.16-11-71Q92.7,297.06,81.36,234T61.44,108.24l-.24-.84A21.06,21.06,0,0,0,58,100.08h-.6a391.77,391.77,0,0,0,7,73.92Q76,237,85.2,300.48q9.18,63.18,19.68,125.88c1.92,11.88,5.52,22.2,10.92,31A1.8,1.8,0,0,0,117,455l-.48-2.88.48-1.44c4.92-30.84,10.2-61.92,15.6-93,6.36-35.88,11.88-71.28,16.56-106.44l8.52,55.8q9.9,63,19.56,125.88c1.44,9.72,4.8,16.92,10.2,21.6a35.12,35.12,0,0,0,2.16-6.24L191,451.8A616.81,616.81,0,0,0,205,367.56Q210.9,304,220.32,240.84q9.36-63.72,20.16-125.88C235.08,120.48,231.72,127.44,230.28,135.84Zm152.52,251,41.16.84-4.8,80.4,2.64.48a319.63,319.63,0,0,0,6.36-76.32,93.61,93.61,0,0,0-2.28-17,129.6,129.6,0,0,0-44.4,4.44ZM411.72,134a23,23,0,0,0-18.84-6.36c-.24.36-.72.48-1.56.36a29.76,29.76,0,0,0-23.4,5.4c-17.64,13.08-28.8,30.72-33.48,52.68a768,768,0,0,0-14.64,106C319,305,318.36,318,318.12,331a369.12,369.12,0,0,0,14,110.28,24.39,24.39,0,0,0,9.24,13.32q34,25.38,62.28-6.24c12.72-14.28,17.64-29.64,14.64-46.2-4.44.6-7.08,3.12-7.68,7.8a15.93,15.93,0,0,0,.36,4.8,57.74,57.74,0,0,1-23,30.84c-8.88,6.12-18.6,7.08-29.28,2.88-17.64-7-27.48-20.4-29.4-40.32a881.26,881.26,0,0,1-2.88-128.28,356.75,356.75,0,0,1,26-117.6,25.67,25.67,0,0,1,7.8-10.32q27.9-21.78,55.92-7.2a5.8,5.8,0,0,0-.48-3.24,11.86,11.86,0,0,1-1.8-4l-.72-2.52Zm124.56,22.68c-5.52-16.68-17.16-24-34.8-22.2-16.92,1.8-28.32,10.68-34.2,26.4a287.08,287.08,0,0,0-12.36,43,267.37,267.37,0,0,0-4.68,33.48l-1.68,23.88-1.2,23.88-1.2,24c-.6,13.32-.72,26.88-.36,40.56a279.86,279.86,0,0,0,4,40.2l7,39.48c3.24,18,12,30.12,26.52,36.48,15.36,6.6,29.16,4.32,41.52-7,12.6-11.64,16.92-25.44,13.2-41.64a102.07,102.07,0,0,1-24.72,29.52q-14.58,11.7-33.48,7.56Q449.7,398.88,452.64,334.8c.6-12,.84-24,.84-36l38.4-1.08A11.3,11.3,0,0,0,493.8,289a13,13,0,0,0-1.92-4.8l-38.16,4.92q-4.5-71.46,29-130.92c6-10.44,14.88-14.4,26.76-11.64A108.5,108.5,0,0,1,531,154.08Z" transform="translate(-57.36 -100.08)"/></svg>