<svg id="Layer_1" data-name="Layer 1" xmlns="http://www.w3.org/2000/svg" viewBox="0 0 300.66 211.82"><defs><style>.cls-1{fill-rule:evenodd;}</style></defs><path class="cls-1" d="M278.88,307l12.72-71.4q2,34.38,5,68.4A67.13,67.13,0,0,0,278.88,307ZM152.52,196.08a264.24,264.24,0,0,0,7.56,64.08c3.72,15.48,6.72,31,9,46.56,2.28,15.84,4.2,31.68,5.64,47.4l1.92,20.28a64.24,64.24,0,0,0,8.16,26c7.8-28.44,14.52-57.36,19.92-86.64a151.33,151.33,0,0,0,2.64-25.56c4,30.6,8.64,61.32,14,91.92a98.85,98.85,0,0,0,2.88,11.76,58.44,58.44,0,0,0,4.56,10.44,125.65,125.65,0,0,0,4.08-19.8l.48-5.76a284.59,284.59,0,0,1,5.4-44.88l5.88-28.2a787.33,787.33,0,0,0,13.92-81.84c.84-7.8,1.32-15.48,1.44-23.28a1425.67,1425.67,0,0,0-33.12,155.76l-19.68-78.6A406.33,406.33,0,0,0,187,353.64L185,363.48A1008.42,1008.42,0,0,0,163,228.24c-2.52-10.68-5.4-21.24-8.76-31.44Zm172.2,1.68a114.17,114.17,0,0,0-18.6,57.48,50.66,50.66,0,0,0,4.2,23.52,44.21,44.21,0,0,0,10,14.52c10.2-5.52,15.84-13.8,17.16-24.84a28.47,28.47,0,0,0-.84-10.56c-3.84,8.76-9.6,15.24-17.4,19.44-4.32-6.12-6.12-13.44-5.28-22l21-3.72a8.09,8.09,0,0,0,2.4-5.64,8.43,8.43,0,0,0-1.56-5.4l-.36-.36a19.47,19.47,0,0,0-12-1.32,18.83,18.83,0,0,0-7.68,3.6c.24-10.2,4.2-21.24,11.88-33.36l4.68.48a29.07,29.07,0,0,1,.84,5.64,5.14,5.14,0,0,0,.72,2.64,4.12,4.12,0,0,0,1.92,1.56l.84.24c2.52-4.2,2.76-9,1-14.28a36,36,0,0,0-4.8-9l-4.8-.24Zm-28-2.4a79.79,79.79,0,0,0-8.16,22.92q-12.6,62.46-24.48,125a153.64,153.64,0,0,1-9.36,31q-7.74,18.18.36,31.32a567.62,567.62,0,0,0,21-82.68l.84-5.16a49,49,0,0,0,20.88.12c1.44,14.76,3,29.52,4.8,44.16a81.37,81.37,0,0,1,.6,16.2c-.48,10.2,2.16,18.12,7.92,23.52a108.66,108.66,0,0,0,.24-37.44q-3.06-19.08-4.68-38.16c-3.48-39.48-6.72-78.84-10-118l1.92-10.44-.36-.72Zm154.56-.48a836,836,0,0,0-7.2,95.64,108.24,108.24,0,0,0-28.8,6.12l2-38.52c1.2-22,1.92-43.32,2-64.08-5.64,13.32-8.64,28.2-9,44.88-.48,42.84-2.16,85.68-5.16,128.28A72.9,72.9,0,0,1,403.32,379c-2.52,9.84-1.32,17.88,3.6,24.24a30.86,30.86,0,0,0,5.16-16.8c.72-25.8,1.56-51.48,2.64-77.28L444,305.4v2.28a580.83,580.83,0,0,1-3.36,64.68c-1.44,12.6.24,23,5,31.56a593.28,593.28,0,0,0,6.24-82l.24-19.08.36-1a14,14,0,0,0-.24-9.12l.36-99C451.8,193.68,451.44,194,451.32,194.88Zm-83,2.88a35.25,35.25,0,0,0-12.72,11.4,53.76,53.76,0,0,0-2,40.92c8,23.64,16.68,47.16,25.68,70.68a267.16,267.16,0,0,1,8.64,26.76c4.2,15.36.72,27.84-10.68,37.44a2.91,2.91,0,0,1-1.56.48c-4.56.12-9.12.12-13.56-.12-22.56-1.2-34.8-11.76-36.84-31.68l-1.56-5.76c-.6-2.64-2.16-3.84-4.44-3.72-3.36,10.44-2.52,20.76,2.64,31.2q16.38,32.94,55.32,27.24a27.34,27.34,0,0,0,13.56-19.08c5.28-26.76,2.64-53.16-7.8-79L358.2,244c-3.84-9.36-2.64-17.88,3.6-25.44,10.56-13,20.88-13,30.84.12l.12-.84q1.8-21.24-20.52-22.68A20.64,20.64,0,0,1,368.28,197.76Z" transform="translate(-152.52 -193.78)"/></svg>