<svg id="Layer_1" data-name="Layer 1" xmlns="http://www.w3.org/2000/svg" viewBox="0 0 516.38 410.4"><defs><style>.cls-1{fill-rule:evenodd;}</style></defs><path class="cls-1" d="M215.4,76.08q-13.14,55.62-22.56,112-10.44,63.18-22.92,125.88Q157.5,376,143,437.52q-7.2-50-16.56-99.6-5.94-31.14-9-62.64c-1-9.6-4.08-17-9.24-22.32q-3.42,32.58-7.2,65.76A939.6,939.6,0,0,1,77.88,442.08a1102.1,1102.1,0,0,0-10.2-122.64c-5.88-41.88-11-83.76-15.6-125.88s-10-83.28-16.32-124a5.92,5.92,0,0,0-2.64,5.64c1.56,28.2,3.84,56.4,6.6,84.48,4.2,42.12,9.36,84.12,15.72,125.88A1257.16,1257.16,0,0,1,68.16,411.36a460.93,460.93,0,0,0,7.56,62.16A258,258,0,0,0,91.8,419.28q11.52-61.56,19.32-123.84l.24.84q11.7,62.82,21.72,125.64a111.18,111.18,0,0,1,1.08,23.64c-.72,12.48,1.68,22.68,7.32,30.6q13.32-50.22,23.88-101.52,13-62.82,23.76-126,10.8-63,25-125.4,1.8-8.1,4.32-15.84c4.68-13.8,5.64-26.88,2.88-39.48l-.84.24a19.66,19.66,0,0,0-4.32,6l-.48-.24C213.6,73.2,213.6,73.92,215.4,76.08Zm49.8-2.52A635.34,635.34,0,0,0,274,192.24q7.38,43.38,13.08,87a60.53,60.53,0,0,1-6.6,0,153.79,153.79,0,0,0-52.8,4.32l4.68-22.92q12.42-62.82,23-125.88c1.8-10.44,3.72-20.88,5.88-31.2a102,102,0,0,0,2-32.16,5.52,5.52,0,0,0-4.2,4.68c-5.64,28.44-11,57.12-16.32,85.8q-11.34,62.1-24.48,124.2-13.5,63.54-30.12,126.24A249.58,249.58,0,0,1,177.84,443q-7.38,18.18.72,32,14.58-43.74,26-90c7.56-30.6,14.64-61.44,21.12-92.28a299.78,299.78,0,0,0,63.12.24l3.24,25.8q7.38,63.72,16.2,126.6c1.8,11.88,5,22.32,9.84,31.08a3.4,3.4,0,0,0,2-3,142.52,142.52,0,0,0-2.64-37.68q-11-54.54-17.4-109.92c-4.92-42.36-10.8-84.48-17.4-126.6-6.6-42.36-11.88-84.72-16-126.84C265.68,72.36,265.2,72.72,265.2,73.56ZM381,298.08c4.32,15.12,8.88,30.12,13.68,45.12s10,30.12,15.12,45c4.44,12.6,8.76,25.08,13,37.68a381.46,381.46,0,0,0,17.16,43,29.91,29.91,0,0,0,7,9.48l3.24-32.4-3.72,12.72q-31.68-82.44-58-166.8c-3.24-10.08-6.24-20.28-9.12-30.48A75.06,75.06,0,0,0,381,298.08Zm46.68-176.76q9.18-23.22,7.92-46.08a172.16,172.16,0,0,0-14.4,34.08q-18.54,60.66-39,120.6a343.94,343.94,0,0,1-27,59.88c-1.08,1.92-2,3.84-2.88,5.64q.36-62.1,1.2-124.2a763.91,763.91,0,0,0-4.8-95.76h-.36q-3.06,45.72-2.88,93.12c.12,43,.12,86-.24,129.12s-2.64,86-6.48,128.88a136.09,136.09,0,0,1-2.4,15.84c-2.64,12.48-1.44,23.4,3.48,32.64a175.93,175.93,0,0,0,8.52-46.44c2-36.84,3.36-73.68,3.84-110.76l1.44,2.52A584.88,584.88,0,0,0,380,256.56q20.88-60.12,42.12-120.48ZM527,85a52.58,52.58,0,0,0-18.36-5.16q-43.92,38.88-48.84,101.88a1444.83,1444.83,0,0,0-3,169.08,441.6,441.6,0,0,0,5.76,53.64c1.08,5.88,2.16,11.76,3.48,17.52s2.52,11.64,4.08,17.28a62,62,0,0,0,4.32,11.4,36.14,36.14,0,0,0,3.24,5l4.68,5.76a25.32,25.32,0,0,0,7.56,5.76,20,20,0,0,0,13.68,1.92,51.91,51.91,0,0,0,25.68-12.36c13.08-11.4,19.8-25.32,20.16-41.88a133.19,133.19,0,0,0-2.88-29l.48,10.56a63.67,63.67,0,0,1-22.92,42.36,50.43,50.43,0,0,1-27.48,12,12.2,12.2,0,0,1-8.4-1.92,15.92,15.92,0,0,1-3.24-3.12,20.67,20.67,0,0,1-2.64-4.44A77.17,77.17,0,0,1,476.88,426l-3.48-16.56-3.6-22.56c-1.68-11.4-3-22.92-4-34.32Q463,318,463.32,283.44l.72,2.64a238.55,238.55,0,0,0,50.88,1.8,8.21,8.21,0,0,0,2.52-5.64,14.56,14.56,0,0,0-1.68-8l-.48-.84a419.31,419.31,0,0,0-49.2-1l-2.76,4.32q-5.76-82.26,26.16-154.8a77.93,77.93,0,0,1,18.12-25.8c16.68,2.16,30.48,10.08,41.16,23.76C549.36,104,542.16,92.4,527,85Z" transform="translate(-33.11 -67.92)"/></svg>