<svg id="Layer_1" data-name="Layer 1" xmlns="http://www.w3.org/2000/svg" viewBox="0 0 361 349.32"><defs><style>.cls-1{fill-rule:evenodd;}</style></defs><path class="cls-1" d="M273.84,301.56l-33.48-4.92,8.76-43A630.89,630.89,0,0,0,261.72,167q2,34.56,5.76,69C269.88,257.76,272,279.6,273.84,301.56Zm53-100.2q1.62,64.8-1.56,129.12t-2,128.16c1.32.84,2.16.6,2.28-.84A534.8,534.8,0,0,0,330.12,388q.18-64.62,3-129a971.62,971.62,0,0,0-2.76-128.28A452.16,452.16,0,0,0,326.88,201.36ZM217,126.12a635.49,635.49,0,0,0-18.24,103q-6.3,63.9-13.08,127.56c-2.28,20.88-5,41.64-8.4,62.28q-5.4-35.1-12.6-70.44Q151.86,286,139.8,223.56c-.36-.12-.72-.12-.84.24l-.72,2.16-.6-.84-.36.12L119.4,324.36c-7.32,40-12.84,80.16-16.8,120.36a534.25,534.25,0,0,0-4.68-73.2C92.28,329.16,87.24,286.8,82.68,244.2s-9.24-84.72-14.16-126.48q-2.34.36-2.52,3.24a592.93,592.93,0,0,0,4.56,78.12q7.92,63.54,14.52,127.32,6.84,64.62,15.6,126.24l1.44-1.2c.48,1.56,1.56,2.16,3.36,2a274.89,274.89,0,0,0,5.16-39l10.8-59q10.26-56.88,16.32-114.12c2.64,20.28,6,40.32,10.08,60.36q12.78,62.28,22.44,125c1.32,8.16,4,14.52,8,19a31.17,31.17,0,0,0,1.8,5,11.88,11.88,0,0,0,2.76-7.2q5.4-63.9,12.84-127.44,7.56-63.36,15.84-126.6Q215.7,157.26,217,126.12Zm38.64,40.56q-8.82,63.18-22,125.76l-.72,3.36c-1.2.12-1.92,1-2.28,2.4a9.81,9.81,0,0,0-.12,3.24l.24,1.68.36,1.56q-11.7,56.7-21.24,113.64c-2,12-.84,22.56,3.36,31.68q6.3-34.38,12.12-70.56,5.94-35.82,12.72-71.28c12.6,2.4,24.84,4.2,36.72,5.52,1.32,16.8,2.4,33.6,3.48,50.52,1.2,21.48,2.28,43,3.24,64.2.48,11.88,3,22.32,7.44,31.08a111.55,111.55,0,0,0,1.2-36.48c-1.56-12.12-2.76-24.36-3.6-36.48-1.8-25.32-3.72-50.76-5.76-76.08v-3.6l-.6-2.4-4.08-46.08q-5.22-58.68-13.2-115.44l.36-15.24A5.19,5.19,0,0,0,260,132Zm169.2-31.8c-16.2-.6-32.64-1.92-49.2-4a3.34,3.34,0,0,0-3.12,3,2.63,2.63,0,0,0-.6,1.44q-4.5,51.84-4.8,104.64-.36,48.42-3.24,96.48c-2.52,42.72-4.2,85.56-4.8,128.4a3.32,3.32,0,0,0,2.4,2.16,2.31,2.31,0,0,0,1.92-2.16q3.6-36.72,5.76-73.8c1.56-26.28,2.88-52.8,3.72-79.44a94.9,94.9,0,0,0,33.84-.72l.6-1a11.64,11.64,0,0,0-.84-12.84,83.46,83.46,0,0,0-33.36,4.8l.84-40c.48-40.92.48-81.24-.12-121.2a23.36,23.36,0,0,0,4.56,1.68,133.77,133.77,0,0,0,40.2,3.72l.84.36,3.12,1.08,1.2.24,1.92-.36a10.32,10.32,0,0,0,1.32-5.64V141l-.24-1.68-.36-1.56a4.83,4.83,0,0,0-1.08-2.4C425.16,135,424.92,134.88,424.8,134.88Z" transform="translate(-65.98 -117.72)"/></svg>