<svg id="Layer_1" data-name="Layer 1" xmlns="http://www.w3.org/2000/svg" viewBox="0 0 502.66 480.24"><defs><style>.cls-1{fill-rule:evenodd;}</style></defs><path class="cls-1" d="M153.12,247.44a347.38,347.38,0,0,0-7,61.32l-1.68,71.16-.24.84a14.15,14.15,0,0,0,.12,6.72l-1.08,50.28c-.36,21.72-1.8,43.32-4.08,64.8-1.08,10.68,1.32,18.24,7.2,22.92a82.21,82.21,0,0,0,2.76-21.12q0-57.6,2-115.08a320.41,320.41,0,0,0,40.08-.72l-.36,43a647.93,647.93,0,0,1-4.32,64.8c-1.44,11.88-.12,22.68,3.84,32.4a68.37,68.37,0,0,0,5.4-24c2.16-42.84,3-85.8,2.4-129.12q-.9-65.34.36-128.28c-.6-.12-1,.12-1.08.48a184.14,184.14,0,0,0-7,54.72q.72,36.54.72,73.08a287.67,287.67,0,0,0-39.72,3.12l.12-3.36c1.56-43.44,2.4-86.16,2.28-128.28C153.48,247,153.24,247.08,153.12,247.44Zm2.16-185.76c-5.88,8.64-9.6,18.84-11.16,30.48-5.16,42.48-8.88,85.2-10.92,128.28q-2.88,64.26-7.32,128.4-4.14,62.64-7.44,125.52a46.77,46.77,0,0,1-1.56-9.12c-3.48-43.08-8.28-85.8-14.4-128.4-3.12-21.36-5.4-42.72-7-64.2a92.38,92.38,0,0,0-7.32-30.72c-3,37.56-5.88,75.36-8.4,113.64C77,397.68,73,439.44,67.68,481.08l-.12-2.76Q65,413.88,57.36,350.16,49.62,286.26,44.76,222c-3.36-42.6-6.36-85.08-8.88-127.68A128.6,128.6,0,0,0,30.6,63.84a198.79,198.79,0,0,0-.36,41.4c4.2,42.6,7.8,85.44,10.8,128.28S48.12,319.2,53,361.8a1183.37,1183.37,0,0,1,8,127.44c.12,12.12,2.4,22.2,6.84,30.48a771.61,771.61,0,0,0,12.6-94.92q4.32-63.54,9.6-124.44,11.52,63.54,17.64,128.16c2,21.36,3.48,42.72,4.08,64.2A92.16,92.16,0,0,0,118,524.16a7.88,7.88,0,0,0,3.6-6.24c3.72-42.6,6.72-85.44,8.76-128.28s4.44-85.68,7-128.4,5.76-85.56,9.6-128.16A159.62,159.62,0,0,1,153,101.16C157,87.36,157.8,74.28,155.28,61.68Zm118.56-2.4a42.69,42.69,0,0,0-27,18.36A144.42,144.42,0,0,0,223.2,138a610.36,610.36,0,0,0-6.6,105,1115,1115,0,0,1-4.44,128.28,513.57,513.57,0,0,0,4.56,128.16c2.28,13.8,9.12,24.24,20.76,31.32q33.66,20.7,54.72-11,25.74-38.16,22.68-82.2a194.77,194.77,0,0,1-36,76.2,17.06,17.06,0,0,1-14,6.84q-39.6-.18-43.8-38.88a645.32,645.32,0,0,1-1-128.28c1.8-19.68,2.52-39.36,2.4-59.16A215.46,215.46,0,0,1,270,291.48a7.94,7.94,0,0,0,6.48-2.52l.36-.72a11.41,11.41,0,0,0-1.44-11.4,159.75,159.75,0,0,0-53,9.36L222,274a620.77,620.77,0,0,1,7.08-126,192.83,192.83,0,0,1,14.16-48.12c9-20.16,24.24-28.32,45.48-24.6a20.3,20.3,0,0,1,7.32,11c.84,3.6,2.4,5.16,4.56,4.68l.24-.84C302.88,70.56,293.88,60.36,273.84,59.28Zm77.4,242.88-1.68.6q-34.56,59.58-31.08,131c1.08,23.4,2,46.68,2.76,70.08a40.94,40.94,0,0,0,6.36,20.76,50.4,50.4,0,0,0,6.24,7.92,21,21,0,0,0,16.2,7l4.8-.84A42.55,42.55,0,0,0,373.2,527c10.92-11.64,15.24-25.32,12.84-41q-10.26,39.42-44.52,32.4c-7.56-1.68-11.76-7-12.72-15.72-1.08-9.6-1.92-19.2-2.28-28.8A468.32,468.32,0,0,1,328.08,413a113.3,113.3,0,0,0,40.2-2.64,10.8,10.8,0,0,0,1.2-7.92,11.39,11.39,0,0,0-2-4.2l-39,6.84q-9.18-56.88,29.76-94.2c9-.36,15.84,1.92,20.64,7C378.24,299.4,369,294.12,351.24,302.16Zm6-116.64-42.6-.72c4.2-22.2,8.52-44.28,13-66.48a116.31,116.31,0,0,1,7.32-22.68A79.48,79.48,0,0,0,338.28,87a608.65,608.65,0,0,0,13.56,76.08Zm6.48,0c-5-17.76-9.48-35.76-13.32-53.88-2.76-13.56-5-27.12-6.84-40.8L340.2,64.92l-2.16.84a26.45,26.45,0,0,0-2.16,4.92c-2.88,9.72-5.52,19.56-8,29.52q-11.16,44.64-19.08,89.28c-1.8,10.8-4.2,21.6-7.08,32.52s-5.52,22.08-7.8,33.12a42.22,42.22,0,0,0,2.4,25.8l16.8-87.12,46.44,1.92C364.2,216,368.28,236.52,372,257q1.26,6.3,2.88,12.6a93.67,93.67,0,0,0,6.84,17.76,3.4,3.4,0,0,0,1.32-3.24c-1.08-11.16-2.52-22.32-4.32-33.36a505.91,505.91,0,0,0-12-55.08l3.12-.12.6-1.08.36-1.2.36-1.32v-2.88l-.36-1.56-.24-.84-.48-.72-.72-.48ZM532,68.76c-3.84,4.2-6.24,9.6-7.2,16.32a1265.56,1265.56,0,0,0-10.44,128.4c-1.32,43-3.12,85.92-5.16,129l-5.4,117.84-4.44-25.92q-11.7-63-26.4-125.52T440.64,185.16c-1.56-5.28-2.88-10.44-4.2-15.6-7.32-29.64-13.92-59.4-19.56-89.28L417,66l-1.2,8.76-1.08-5.52c-2.52,5.28-3.12,11.4-1.68,18.48l.72,3.84L411,116.28a1028,1028,0,0,0-4.8,129.12c1.08,43.08,1.8,86.16,2,129q.18,64.62-5.16,128.28c-1.08,12.12.48,22.68,4.44,31.68a46,46,0,0,0,4.2-17.76q2.16-64.26,1.92-129.12-.36-64.44-1.92-129c-.6-21.6-.12-43.2,1.2-64.92q2.7-44.64,3.6-88.68l8.4,39.72c8,36.84,17,73.68,26.76,110.28q16.38,61.56,28.92,124c8.16,40.92,14.76,82.2,19.92,123.6,1.56,12.24,5.28,22.32,11.16,30.36.48-.6.72-1.08.6-1.56l-2.64-27.84c.6-22,1.32-43.92,2.4-66.12q3.24-64.08,4.32-128.28c.84-43.32,2.4-86.28,4.68-129.12a564.61,564.61,0,0,1,7.2-63.84A257.62,257.62,0,0,0,532,68.76Z" transform="translate(-29.33 -59.28)"/></svg>