<svg id="Layer_1" data-name="Layer 1" xmlns="http://www.w3.org/2000/svg" viewBox="0 0 503.37 363.96"><defs><style>.cls-1{fill-rule:evenodd;}</style></defs><path class="cls-1" d="M176.88,116.4a410.45,410.45,0,0,0-15.72,61.92q-11,63.18-18.24,127.08-7,62.46-16.8,124.56c-1.8-19.56-3.84-39.12-6-58.68q-7-62.82-12.6-126c-1-11.64-3.84-22-8.52-30.72a310.48,310.48,0,0,0-6.84,64.2,1011.52,1011.52,0,0,1-8.52,124.08L72.24,304c-4.68-42.12-9.72-84.12-14.88-126A193.87,193.87,0,0,0,39.48,116.4a2.18,2.18,0,0,0-1,2.28l12,71.88Q57,229.44,61.68,268.8q7.38,62.82,11.76,126a513.44,513.44,0,0,0,8.28,62.52,2.15,2.15,0,0,0,1.2-1.08A404.52,404.52,0,0,0,93,397.2q5.94-62.1,7.92-124.68L112.8,378c2.28,21,3.84,42.12,4.56,63.36a79,79,0,0,0,7.08,31.32A53.93,53.93,0,0,0,133.68,448q8.1-63.18,15.48-126.72,7.38-63.72,19.68-126.6a303.49,303.49,0,0,1,7.68-31.2c4.92-16.68,5.52-32.52,1.56-47.64C177.48,115.92,177,116,176.88,116.4Zm72,1.2a217.32,217.32,0,0,0-5.16,46.68q-.36,61.74-2.52,123.48l-37.44,3,.6-37.2q1.08-65-2.52-128.28c-2.52.48-3.72,2.16-3.84,4.92q-2,49.32-1.92,99,0,64.44-.48,129a527.82,527.82,0,0,1-4.32,64.8c-2.16,17-1.56,33.12,1.92,48.12a2.15,2.15,0,0,0,1.2-1.08,392.31,392.31,0,0,0,9.24-87.48q-.36-38.88,0-77.64a157.24,157.24,0,0,0,36.84,1.92q-2.16,57.78-3.72,115.56a70.09,70.09,0,0,1-2.28,15.84c-3.36,12.84-2.16,23.52,3.6,32.28a1.6,1.6,0,0,0,.84-1,393.56,393.56,0,0,0,8.88-94.8q-.9-35.64,0-70.92c1.92-4.44,2-8.16.24-11.4.48-15.6,1.2-31.2,2-46.8a991.86,991.86,0,0,0-.6-128.16ZM415.44,243.12,418.92,278l-45.24,9.12,29.4-115.32,8.28,43.32C413.16,224.4,414.48,233.76,415.44,243.12ZM372.6,159.6l1.32,1.68c4.2-16.92-3.24-27.72-22.32-32.64-16.44-4.2-30.48.36-42.24,13.8A207.23,207.23,0,0,0,284,179a148.08,148.08,0,0,0-15,41.88,292.1,292.1,0,0,0-5.16,39.36l-2.64,38.52c-.84,14.52-1.08,28.92-.6,43.44s1.2,28.92,2.4,43.2a160.92,160.92,0,0,0,9.72,42.36A110.21,110.21,0,0,0,298.2,467c31.32.12,52.2-16.2,62.4-49a37.59,37.59,0,0,0,1.2-17.88l-3.6-1.68c-10.56,25.32-27.84,40.08-52,44.52-2.76.36-5.4-.84-8-3.6q-36.9-40.86-30.6-98.16a285.26,285.26,0,0,0,1.92-33.6l62.16-15q5-8.82-1.08-16.92a225,225,0,0,0-60.48,14.64Q264.36,206.16,324.84,154c10.44-9,21.72-10.8,34.08-5.16A37.52,37.52,0,0,1,372.6,159.6Zm32.76-29.4A179.19,179.19,0,0,0,390.6,174q-7.74,39.24-18.24,77.4l-12.84,46.68-9,31.08-6.6,21.24a85.62,85.62,0,0,1-4.68,11.28,86.43,86.43,0,0,0-7.68,26.16c-.84,7.68.24,14,3.48,19.2a772,772,0,0,0,34.08-103,208,208,0,0,0,51.6-7q6.3,80.1,11.52,160.2a31.6,31.6,0,0,0,4.44,14c5.64-22.2,6.72-46.08,3.24-71.4a1020.9,1020.9,0,0,1-8.64-111.24,17.81,17.81,0,0,0-1-5.52l-.84-3.72q-2-9.54-3.24-19.44L422.52,232a756.67,756.67,0,0,0-15.84-83.4Zm131.52-7.92c-39.72,2-79.32,4.56-118.56,7.56l-.84,1.68a18.75,18.75,0,0,0,.84,14.64c20.88.24,41.88-.12,63-1a65.14,65.14,0,0,0-1,13.08q.18,64.44-3.72,128.4-4.14,64.26-11,128c-1.2,10.8-2.76,21.6-4.56,32.28-2.16,11.88-1.2,22.8,2.76,32.76.84,0,1.44-.12,1.56-.48a89.06,89.06,0,0,0,7.44-29.52c3.48-42.6,6.72-85.44,9.72-128.28l4.8-64.08a719.66,719.66,0,0,0,.48-112.56l51.24-3.6.6-1C543.36,133,542.4,127,536.88,122.28Z" transform="translate(-38.49 -115.8)"/></svg>