<svg id="Layer_1" data-name="Layer 1" xmlns="http://www.w3.org/2000/svg" xmlns:xlink="http://www.w3.org/1999/xlink" viewBox="0 0 542.16 594.6"><defs><style>.cls-1{fill:none;}.cls-2{clip-path:url(#clip-path);}.cls-3{fill-rule:evenodd;}</style><clipPath id="clip-path" transform="translate(-2.16 1.92)"><rect class="cls-1" x="2.16" width="542.28" height="592.8"/></clipPath></defs><g class="cls-2"><path class="cls-3" d="M367.8,526.56c-3-4.2-8.28-6-15.72-5.4l-3,21.72,4.32-.72a21.71,21.71,0,0,0,4.68-1.08l9-.6q3.24-3.06,3.24-6.48A13.84,13.84,0,0,0,367.8,526.56Zm-36.24-10.08.36,3.6c0,18.36-.12,29.52-.36,33.6-.72,12.6-2.64,23.4-5.64,32.52h-1.68a68,68,0,0,1-.48-7.32q-.54-14,0-28.08c.84-18.24,3-30.84,6.48-37.68A14.93,14.93,0,0,1,331.56,516.48Zm18.84-5.64.36-1,.48.84.6-.24a16.24,16.24,0,0,1,9.48,2,24.55,24.55,0,0,1,9.48,7.92,22.45,22.45,0,0,1,4.32,13.44c0,1.32-1,4.2-2.76,8.76a68,68,0,0,1-4.2,9h-.48l1,1.44a40.5,40.5,0,0,0,6,7.44L386.4,572.4c6.24,6.48,9.36,10.68,9.36,12.48l-.24,2.88-.6,2,.12.36q-.18.36-1.8.36c-4.08,0-11-6.72-21-20.28-3.36-4.56-6.6-9.24-9.72-14.16l-2.28-3.6-4.32.6-6.48,1-2-.12L342.48,587l-.6.48-1.08.84a10.14,10.14,0,0,1-1.56-3.24,15.54,15.54,0,0,1-.36-3.72q.54-13.86,2.16-28.8c1.8-15.12,4.08-27,7-35.52a4.11,4.11,0,0,1-.48-2.16A4,4,0,0,1,350.4,510.84ZM307.08,443.4c-.48,0-2.16-1-5-3a15.2,15.2,0,0,0-8.88-3c-10.68,0-19.08,6.36-25.32,19l-1.56,3.36,3.84-1c2.4-.72,8.64-1.2,18.72-1.56v-.6l8.88.24,1.32,2.28a11.13,11.13,0,0,1,.36,3.12,6.53,6.53,0,0,1-1.92,5.16l-4.56.36-5.16.72-17.28,1.2a52.83,52.83,0,0,1-8,1.68l-1,4.92c0,3.48,1.44,7.68,4.44,12.6,3.84,6.48,8.64,9.72,14.28,9.72,7.08,0,13.44-2.64,19.2-7.92,4.2-4,6.72-7.2,7.32-10,1.56.84,2.4,2.64,2.4,5.64s-2.16,7.32-6.48,13.08c-5.16,6.84-10.44,10.2-16,10.2q-19.62,0-26.28-16.2a42.62,42.62,0,0,1-2.52-11.52l-.12-5.88q0-17.64,7.92-30.24a41.49,41.49,0,0,1,17.76-15.72c6.6-3,12.48-3.72,17.64-2.28,5.4,1.44,8,4.68,8,9.84l-.24,2.88-.6,2,.48.36C308.76,443.28,308.16,443.4,307.08,443.4Zm38.4-1.44-4.68.6-.36-.24c-.12,7.8-1,18.48-2.28,32.16-.84,8.4-1.56,15.48-2.4,21.12a26.39,26.39,0,0,1,5.16-1.92l16.44-4.2q23.76-6.84,23.76-19.08a42.88,42.88,0,0,0-.84-7,68.72,68.72,0,0,0-1.92-8.4,8,8,0,0,0-2-3.84L373,447.72c-2.16-2.64-4.08-4.2-5.76-4.56a7.71,7.71,0,0,0-4.32.72,11.2,11.2,0,0,1-5,1.08c-2.52-.12-5.28-1.2-8.4-3.24Zm.36-11.16,4.68.6c13.32-4.44,23,.12,29.16,13.8A60.2,60.2,0,0,1,385,469.56c0,7.32-2.4,14-7.08,20.4-7.08,9.48-18,14.28-32.76,14.28l-9.24-.24-1.2-1.56-.6,3.48-1.44.24a20.06,20.06,0,0,1-1.32-7.68c0-5.88.48-15.48,1.32-28.8,1.32-18.84,2.88-31.44,4.92-37.92l1.32,1.44a9.43,9.43,0,0,1,3-2.52ZM280,321q-13.5,70.38-25.2,101.76c-1.32-1.8-1.92-4.56-1.92-8,0-1.56,3.6-18.36,10.68-50.64,8.28-37.56,13.56-61.56,15.6-72,1.56-8,4.68-28.68,9.24-61.68,3.48-25.32,7.44-45,11.88-59.16q4.14,27,13.8,83c2.28,14.88,4.2,28.68,5.52,41.28h.12a10.55,10.55,0,0,1,1.92,6.12,11.31,11.31,0,0,1-.6,3.6l-.36.72c1.08,11.4,1.8,22,2,31.56v63.36A50.08,50.08,0,0,1,323.76,413a45.24,45.24,0,0,1-.48,7c-.48,3.72-1.32,6-2.52,7.08-2.76-2.76-4.2-6.6-4.32-11.28,0-1.68.48-5.76,1.32-12.24V341.88c-.12-9.6-.84-20.76-2.16-33.6l-33.24-.12ZM138.6,15.48a18.09,18.09,0,0,1,.84-5.76c1-3.24,2.64-5,5-5.16A150.25,150.25,0,0,1,147,28.2c.12,3.6.24,11.64.24,24.24l-.12,18c-.12,11.88-.48,21-1,27.48V157.2q.18,43.92-7.44,108.6l-6.84,55c-3,23.16-5.16,41.4-6.6,54.72-1.56,14.28-4,32.28-7.32,54l-8.64,54.72c-1.08,7.56-2.64,25.56-4.44,54-1.44,22.68-4,40.8-7.44,54.48C94.2,578,91.8,558.12,90.36,532.92q-2.7-47-4.32-60.12c-1.32-11-4.92-31.08-10.68-60.24-4.92-25.8-8-45.72-9.36-59.88h-.24Q64,406.5,52.2,471.24q-8.64,47.34-26.28,118.2c-1.8-2-2.88-6.6-3.24-13.8v-11.4q0-14.94,2.16-78.48,2.34-63.54,2.28-84.36c0-13.08-1.32-37.68-4-73.56l-4.8-63.6V217.92c-2.64-28.92-4.8-62.76-6.48-101.28q-.54-14.94-5.4-50.76-4.32-32.4-4.32-50.4c0-3.48.12-5.88.24-7Q3.3,4,6,3.48c7.08,27.48,11.64,62,13.92,103.68l2.16,52.2c.72,21.24,1.68,38.52,2.76,52V257.4q1.44,22.32,5.52,71.88,3.24,44.82,3.24,72.24l-.6,43.2c-.36,21.84-.48,37.68-.48,47.4L31.8,505q-.72,11.52-1.44,18.72v17.64c1.8-10.44,5.52-30.48,11.28-60.36q7.38-38.7,10.8-60.84A300.29,300.29,0,0,0,55.68,388c.6-14.88,1.2-25.92,1.56-33.12,1.44-26.28,4.92-44.88,10.44-56,2.4,23.64,7.8,62.52,16.08,116.4q11.7,74.88,13.68,102v.36q17.1-137.7,22.56-183.12Q132.24,230.94,139.68,151V91c.72-8.16,1.08-20.28,1.08-36.24,0-2.16-.36-9.36-1.08-21.48ZM299.64,197q-6.48,50.4-15,98.4l29.64.12c-1.08-8-2.28-16.68-3.72-25.92-6.12-40-9.48-64.08-10.32-72.12ZM197.76,12.72l-1.2,11,.6,11.64.48,8.76q-.18,44.82-2.16,67.32c-.6,7.08-1.2,18.12-1.8,33.24-1,13.56-2.64,24.84-4.92,33.6a16,16,0,0,1-2.52-9.36l3.84-51.48,1.56-21.24-4.32-.12-6.72-.6c-7.68.48-12.72-.72-15.24-3.6v38.52c-.84,3.84-1.8,11.28-2.64,22.32-.84,10-1.92,17.4-3.36,22.32H157.8a80.62,80.62,0,0,1-.6-8.52c0-6,.48-13.32,1.32-22,.84-7.8,1.92-15,3-21.48V27.36c.36-3.48.72-8.52.84-15,.12-6.84.24-11.52.6-14.28,1.92,1.32,3,4.32,3.36,9.24l.12,8.64a91.3,91.3,0,0,1-1.08,16.2V81.6l3.72,1.2a72.62,72.62,0,0,0,13.68,2.4l8.52-.72,1-.36c.72-13.08.84-22.08.48-26.76V7.08l.84-2.28a5.82,5.82,0,0,1,1.08-1.56C197,5.16,198.12,8.28,197.76,12.72ZM267,43.92c-3.12-1.68-5.64-2.52-7.44-2.52-13.32,0-22.8,12.84-28.32,38.4-1.08,5.16-2,10.32-2.64,15.6l22.32,4c16.08-.24,24.48-.48,25.2-.6l1.2,2.28a6.8,6.8,0,0,1,.48,3,8.51,8.51,0,0,1-2.76,6.12h-24.6l-.6-.6-14.52-1.92-7.8-1.44c-.36,4.68-.6,9.48-.6,14.16a56.47,56.47,0,0,0,3.84,20.4c4.44,11.4,11.88,17,22.32,17,8.76,0,15.6-3.12,20.52-9.48a24.83,24.83,0,0,0,4.92-9.48q2.52,2,2.52,6.48a19,19,0,0,1-4.8,12.84c-3,3.48-7.8,7.08-14.4,10.68-17.16-.6-28.68-7.32-34.44-20.28-2.88-6.36-4.32-15.6-4.32-27.6a206.32,206.32,0,0,1,1.08-20.88l.36-3.36a256.2,256.2,0,0,1,6-31.32c6-23.16,13.56-34.8,22.56-35,9.24,1,15.36,2.52,18.36,4.8,2,1.56,3,3.84,3,7.08a7.75,7.75,0,0,1-.48,3.12,6.11,6.11,0,0,1-1.92,2A18.41,18.41,0,0,0,267,43.92ZM280.2,32Q275,22,266.88,22c-18.24,0-31.44,8.16-39.72,24.48a102.09,102.09,0,0,0-7.68,22.92c-.6,2.76-2,10.44-4.2,22.92L208.44,128c-2.64,14.4-4.32,26.28-5.16,35.64-3.24,38.76-5.16,64.44-5.76,77.28-.36,6.84-.48,18.84-.6,36l7.56-.24c3.24.36,8.64,1.8,16.44,4.32l31.08-.36c3.84-1.56,6.48-.6,7.8,2.64a13.63,13.63,0,0,1,.84,5.64,14.86,14.86,0,0,1-.84,5.88c-1.32,2.52-3.84,3.84-7.8,3.72l-31.08-.24c-7.8-2.64-12.6-4-14.28-4a93.91,93.91,0,0,1-9.84-.12v11.4L196.08,357q-.18,54.9,2.88,82.56c.72,6.12,1.44,17.28,2,33.6.6,14.28,1.56,25.44,2.88,33.6,4.08,25.8,14.76,47.52,32.16,65.4,27-2.4,43.92-6.84,50.88-13.2a18.32,18.32,0,0,0,5.16-8.52,52,52,0,0,1,3.24-8.64c2.28-3.48,4.8-8.88,7.32-16.2,3-8.16,5-13.44,6.24-15.72a25.46,25.46,0,0,1,2.64,11.88c0,1.68-1,5.76-2.88,12.12A143.77,143.77,0,0,1,299.16,557q-17.1,32.76-41.76,32.76l-22.08-.36q-29.88-28.26-37.2-69.72-2.52-13.86-3.6-36c-.84-19.32-1.56-31.32-2-36q-2.7-29.34-2.76-87.84l.6-54.6.12-18.6-.12-.84.12-.36c0-31.92.24-53.16.6-63.84q1.62-47.52,7.92-83L207.36,97c3.6-17.4,6.12-31.44,7.56-42,2-14.76,7.32-26.76,15.84-35.76,7.44-8,16.08-12.72,26-14.28,9.6-1.32,17.76.48,24.48,5.64,7.2,5.4,10.8,13.32,10.8,23.52q0,7.74-5.4,11.16a16.92,16.92,0,0,1-3-5.4ZM382.32,346.8a8.39,8.39,0,0,1,.48,3.24c0,2.76-3.12,13.8-9.36,33.24-6.72,20.76-12,34.68-15.84,41.64-1.32-4.8-5.28-18.36-12.12-40.68-5.88-19.32-8.76-29.52-8.76-30.48L337,351a5.76,5.76,0,0,1,2.76-3.72c2.52,6.6,5.88,16.8,9.84,30.84,4.2,14.28,7.44,24.48,9.6,30.36,4.08-14.76,7.2-25.68,9.48-33,3.84-12.84,8-23.16,12.48-31.2Zm38,10.8-.6.48-1.08.84c-.84-.36-2.88-1.8-6.36-4.08-2.64-1.8-4.44-2.64-5.52-2.64-7.08,0-13.08,8.16-18,24.6l1.68-.12,4.44-.12,14.28.24,1.32,2.28a9.69,9.69,0,0,1,.36,3,7,7,0,0,1-1.92,5.28l-14,1.32-5.4.84-3.84-.12L384,397.8a79.38,79.38,0,0,0-1.2,9.6,15.36,15.36,0,0,0,1.08,5.76c1.08,2.76,3,4.2,5.64,4.2,13.08,0,20.64-1.44,22.44-4.2a9.52,9.52,0,0,0,.84-3.84,4.56,4.56,0,0,1,1.92-3.36,12,12,0,0,1,1.56,6.6l-.48,2.64a24.91,24.91,0,0,1-1.92,5.52c-2.52,5.16-5.88,7.8-10.32,7.8-13.44,0-21.48-3.24-24.24-9.84a12.34,12.34,0,0,1-1-7.08l.6-4.2c0-14.64,2.16-27.6,6.48-38.76,3.72-9.48,8.52-16.68,14.4-21.72,5.28-4.44,10.08-6.24,14.28-5.16s6.48,4.8,6.48,10.92Zm-25.68-92c0,2.16-2.4,13.2-7.2,33.24q-7.74,32.58-12.6,45-14.22-43-25.2-68.16H349q-2.34,11.7-6.12,35.28c-2.52,13.8-5.28,25.56-8.52,35a5.24,5.24,0,0,1-1.44-2.28,7.75,7.75,0,0,1-.48-3.12q9.54-59.58,16.2-80.64c4.44,8.28,9.24,19.44,14.28,33.24l12.24,33.24h.36q5.94-29.88,15.6-66.48C393.48,261.72,394.68,263.52,394.68,265.56Zm2.28-20.4a6.67,6.67,0,0,1,1,3.12,12.08,12.08,0,0,1-.36,3.24l-1.32,2.4-20.88.48-21.6.84-5,.36-5.76.72-6.72.36-7.32.72-2.52-.24a34.51,34.51,0,0,1-.48-5.64c0-6.6,1.32-21,4.08-43q4.14-34.2,4.32-38.88l.72-20,.6-20.52-.84-20.88c-.36-8.28.72-14.64,3-19.2a83,83,0,0,1,1.56,14.64l.12,14.52c0,18-.72,40.32-2.28,67-1.56,29.16-3.36,49.2-5.28,60.12l12.12-.84,10.8-1.08c26.16-.36,39.48-.72,40.08-1.08A12.47,12.47,0,0,1,397,245.16Zm3.12-226.68c0,1.92-2,4.56-6.24,8Q389.52,30.12,378,38c-20.52,14-35.52,25.44-45,34l-2.16,1.08,12.72,1.32,8,1.08,22.8,1.08,32-1.32,4.68-.6c1.32,1.56,1.92,3.72,1.92,6.6a9.71,9.71,0,0,1-1.92,6.48h-10.8l-13.8-.24-14.28-.6-10.68-.36-11-.72-6.24-.36-6.72-.72-10.08-1.2L315.36,82a6,6,0,0,1-1.08-2.16,19.34,19.34,0,0,1-.24-3.12c0-1.44,9.6-10,28.92-25.56l35.16-28.44L377,22l-8.64-.36-9.24-.72-30.84-.6a82.21,82.21,0,0,0-6.6-6.12l-1.2-1.08c0-2.64.36-4.2,1-4.8,1.08-.84,3.6-.48,7.44,1.2l31.32,1.08,20.64,1.08,8.64,1.08,8.88.48,1.32,2.28A9.69,9.69,0,0,1,400.08,18.48Zm110.16,8-.6.48-1.08.84q-3.78-3.78-11.88-6.48a52,52,0,0,0-16.2-2.64c-18.6,0-33,6-43.32,18.12a62,62,0,0,0-4.68,6.36l50.4-.48,1.44-.24,8-.84v-.48a10.19,10.19,0,0,1,3,3,4.44,4.44,0,0,1,1.08,2.52c0,1.08-.24,1.8-.6,2l-2,.6a27.27,27.27,0,0,0-11.16,4.8L427.32,55A15.37,15.37,0,0,0,426.6,59c0,3.72,5.28,7.68,15.84,12,9.72,4,18.48,6.24,26,6.6l10.92-.84c12.24-.72,20.28-1.92,24.12-3.72A8.67,8.67,0,0,0,507,70.44l2.16-3c1.56.84,2.4,2.64,2.4,5.64a11.23,11.23,0,0,1-4.92,9.72c-5,3.36-14.52,5.4-28.32,6L473,88.56,467.4,88c-17.16-1.2-29.64-5-37.2-11.64q-7.92-6.84-7.92-16.2a53.84,53.84,0,0,1,1.08-11V48.6c0-2.28.48-4,1.44-4.92a43.61,43.61,0,0,1,11.28-17.52Q447.6,15,466.32,11c11.16-2.28,21.24-2.4,30.36-.12s13.8,6,13.8,11.16ZM544.08,159.6a8.45,8.45,0,0,1-3,5.76A69.72,69.72,0,0,0,517,125.76,58.78,58.78,0,0,0,501.24,116a35.13,35.13,0,0,0-13.56-3.24c-25.08,0-41.28,9-48.36,26.88-3.6,9.12-4.68,19.08-3.24,30,0,10.92,5.28,27.12,15.72,48.6,6.24,12.84,17.76,34.92,34.56,66.48,15.24,30.36,26.76,58,34.56,83q15.84,50.58,15.84,98.4l.24,16.68a48.62,48.62,0,0,1-.36,9c-.36,2.16-4,13.8-10.8,34.8-1.08,3.84-3.48,8.64-7.08,14.28a116.77,116.77,0,0,1-14.4,18.84c-14.64,15.6-29.88,23.4-45.6,23.4l-17.16-.6a22.77,22.77,0,0,1-9.84-3.6c-2.28-1.56-5.16-4.56-8.64-8.88L410,553.44c-4.68-5.76-7.92-11.16-9.72-16.32a41.1,41.1,0,0,1-2.16-14c0-7.44.24-12.24.84-14.28,1.56-5.64,5.4-10.32,11.64-14a15,15,0,0,1,1.92,4.2,14.77,14.77,0,0,1,.72,4.32,15.4,15.4,0,0,1-4.32,11c-2.88,3.12-4.32,6.12-4.32,8.88q0,2.34,14.4,22,15.12,20.52,19.44,20.52,49.14,0,73.08-33.6,18.54-26.1,18.6-65.76,0-45.54-15.72-92.52-11-33.48-34.56-78.36l-18.48-34.8c-6.84-13-12.24-23.76-16.08-32.4Q429.66,193.5,429.6,169c0-26.52,6-46.08,17.88-58.92,10.2-11,23.4-15.72,39.48-14,14.88,1.56,28,7.8,39.36,18.72,12,11.52,18,24.72,18,39.48Z" transform="translate(-2.16 1.92)"/></g></svg>