<svg id="Layer_1" data-name="Layer 1" xmlns="http://www.w3.org/2000/svg" viewBox="0 0 461.52 412.41"><defs><style>.cls-1{fill-rule:evenodd;}</style></defs><path class="cls-1" d="M306.24,287.4l3.84-2.52c4.92,8,3.48,16.44-4.44,25.32q.36,2.34,4,.72h.72q15.84-23.76-.48-47.64l-3.6-1.08c-4.68,6.36-6,13.92-4.08,22.44Zm42.24-142.08c.6-22,.6-43.32.24-64.08a157.47,157.47,0,0,0-7.08,45.36q-.9,64.44-7.8,126.72c-1,3.24.36,7.2,3.84,11.88a371.51,371.51,0,0,0,8.4-59.76C347.16,185.64,348,165.6,348.48,145.32ZM241.32,72.84a42.91,42.91,0,0,0-8,18.6q-12.06,63.18-20.88,127.08c-5.88,42-10.32,84.24-13.56,126.72-1.68,21-4.08,42.12-7.2,63.12a122.63,122.63,0,0,0-1.08,13.08c-2.28-10.56-4.2-21.12-5.88-31.8a538.2,538.2,0,0,0-33.84-121.92l-.12-2.52a46.45,46.45,0,0,0-6,16.8L122.16,408.12a264.16,264.16,0,0,1-7.32,31,44.46,44.46,0,0,0-1.8,7.68q-7.38-39.24-13-78.84L93.36,320.4q-8.82-63.18-19.8-126.12-5.58-31.86-9-63.72a451.47,451.47,0,0,0-11.28-62.4c-.36.12-.48.24-.48.36A625.58,625.58,0,0,0,64.68,179.76c2,10.56,3.84,21.12,5.4,31.8q7.56,55.08,16.56,109.92Q96.9,384.3,103.32,447.6c1,9.72,4.08,17.16,9.24,22.44l1.68-3.24,1.56,4.32a901.47,901.47,0,0,0,20-95.4q3.42-23.58,9-46.8a224.07,224.07,0,0,0,6-42.12l.36,1.44a942.71,942.71,0,0,1,28.32,124.44A419.83,419.83,0,0,0,193.68,474a48.59,48.59,0,0,0,2.88-25.8c3.24-26,5.76-52.32,7.68-78.6q4.5-64.08,12.84-127.44l16.56-126.6a44.56,44.56,0,0,1,4.92-15.24C244.08,89.88,245,80.76,241.32,72.84ZM290,73.92c-17.4,11-28.32,27.12-33,48.36a1206.13,1206.13,0,0,0-28.2,257.64q-.18,47.52,22.92,86.64c6.6,11.16,15.48,15.72,26.64,13.44a52.15,52.15,0,0,0,25.44-13l6.6-6.48,5.88-7L321.6,446a94.49,94.49,0,0,0,4.56-8.28l4.32-8.76a29.54,29.54,0,0,0,1.8-6.12,15.26,15.26,0,0,0-.84-7.68,13,13,0,0,0-4.44-6l-3.12-.48.84,4.44c-7.32,24.12-22,39.24-43.68,45.6-14.76,4.2-24.36-1-28.56-15.72q-23.22-80.82-8.4-165.72l43.2-6.48a11.79,11.79,0,0,0,.6-11.76l-1.68-2.76a89.41,89.41,0,0,0-41.28,7.32q-3.06-88,31.44-166.32Q297.6,83.46,316,103.2a50.51,50.51,0,0,1,8.52,12.36c1.56-16.2-4.68-28.32-18.84-36.24A45.56,45.56,0,0,0,290,73.92ZM481.32,358.44A12.63,12.63,0,0,0,480,345.6a256.68,256.68,0,0,1-25,8.88,10.36,10.36,0,0,0,1.2,10.56,43.54,43.54,0,0,0,24.6-5.64ZM486.48,264l-7.08-1a20.45,20.45,0,0,0-12.84,7.56q-20.88,25.92-21,60.12-.18,47,1,94.08c.48,19.32,6.6,35.88,18.36,49.56a36.28,36.28,0,0,0,11.52-2Q510.6,461,514.32,427.8a17.7,17.7,0,0,0-8.76,7.32c-10,15.36-23.64,22.68-41,21.84A67.93,67.93,0,0,1,454,423.84,728,728,0,0,1,455,311.76c1.8-20.88,12.36-32.52,31.44-34.92l3.84,3.24.72.84a30.51,30.51,0,0,1,1.68,5.64c.36,1.56,1.2,1.92,2.64,1.32a10.44,10.44,0,0,0,1.92-7.32,23.24,23.24,0,0,0-8.64-16.2ZM378,84.24V80c-2.76,2-4.2,4.92-4.44,8.88l-5.16,76.2q-4.5,64.08-7.44,128.4-2.88,63.9-7.56,127.2v-1.08a138.16,138.16,0,0,0-.6-18.72,134.76,134.76,0,0,1-5.16,41c-3,10.56-1.68,18.72,4.08,24.48a6,6,0,0,0,1.68-3.24,805.11,805.11,0,0,0,13.32-127.44q.72-28.26,2.16-56.52a104.42,104.42,0,0,0,16-9.24l.12.36c5.16,27.12,10.68,54.24,16.32,81.36A1206.7,1206.7,0,0,0,434,475.44q4-3.06,2.88-8.64-7.56-41.22-17.4-82.44-14.22-59.58-30-118c11.52-9.36,20.64-21.48,27.24-36.24a103,103,0,0,0,6.36-19.8,222.67,222.67,0,0,0-.72-92.52q-7-31.86-37.08-40.2-4.86.18-6.84,5Zm2,6.36c18.12-.84,29.88,8.88,35,29.16A293.86,293.86,0,0,1,423,167.88a92.05,92.05,0,0,1-8,45.72,105.76,105.76,0,0,1-27.84,37.2,88.69,88.69,0,0,1-17.4,11.76q7.56-87.3,8.28-174.72Z" transform="translate(-52.8 -68.16)"/></svg>