<svg id="Layer_1" data-name="Layer 1" xmlns="http://www.w3.org/2000/svg" viewBox="0 0 527.54 400.82"><defs><style>.cls-1{fill-rule:evenodd;}</style></defs><path class="cls-1" d="M222.72,204.84Q214.26,268.38,203,331.32c-6.36,36.12-11.52,72.36-15.36,108.48a912.17,912.17,0,0,1-13.56-91.2,1167.74,1167.74,0,0,0-19-124.8l1-10.08-.36.12-1.32,5.64-.84-.24-.12,4.8q-11.34,52.2-20.4,105.72-5.22,31.86-12.72,63a394.24,394.24,0,0,0-9,52.32l-.36-1.56q-9.54-45.18-15.6-91.08Q86.94,289.08,77.28,226q-9.54-63.54-21.84-125.88c-1.08-.12-1.56.48-1.44,1.56A915.73,915.73,0,0,0,66.72,203.52Q78.06,266.34,85,329.88a910.14,910.14,0,0,0,22.68,125.76,9,9,0,0,0,3.12-4.2l-.36,5a2.15,2.15,0,0,0,2.16,2.16A1115.68,1115.68,0,0,0,139.8,340q8.82-50,13.8-99.48a235.14,235.14,0,0,0,3.6,31.08Q168.54,334.38,174.72,398c1.08,10.68,2.28,21.36,3.84,31.92a77.21,77.21,0,0,0,7.56,24.36l-.24,3a3.89,3.89,0,0,0,2.4,2.16l.36-1,1.32,2a3.92,3.92,0,0,0,1.2-3.84l-.84-3.84a213.14,213.14,0,0,0,5.76-26.4q9.18-62.82,19.2-125.88l10.08-63c7-42.6,12.48-84.48,16.56-125.88A666.66,666.66,0,0,0,222.72,204.84Zm187,215,4.56-2.88,20.28-2.76L447,476.52a20.8,20.8,0,0,0,4.56-18.12l-4.08-22.68L443.4,412.2l11.4-3.6a7.84,7.84,0,0,0,.6-8.76l-.84-1.08-1.08-1.08-12.12,1.68-9.12-88.44c-4.68,5.52-9.12,17.16-13.2,35-3.24,14.16-6.84,28.2-10.8,42a247.35,247.35,0,0,1-14.16,37.44q-11.16,23.58-2.52,46.44c9.36-16.68,15.24-35.52,17.64-56.28Zm19.08-69.72c.6,16.68,1.92,33,3.84,49.2h-.72c-10-.12-16.68,2-20,6.6q8.1-29.7,16.8-59ZM356,211.56l1.08,6.6,4.68.36C351.24,251,355.92,279.6,376,304c6.72,8.16,15.48,10.32,26.4,6.48A284.91,284.91,0,0,0,458,283.2l4.08-2.64a15.69,15.69,0,0,0-.36-12.72A8.28,8.28,0,0,0,459.6,265a138.63,138.63,0,0,1-60.24,27.48q-38,7.2-36.12-35.76c.48-12.72,1.56-25.44,3.24-38a412.42,412.42,0,0,1,70.8-4.92,12.3,12.3,0,0,0,0-11.88l-1.2-2.16a220.69,220.69,0,0,0-67.92,9.12,147.06,147.06,0,0,1,39-73c13.08-7.44,26.88-8.16,41.28-2l2,1q-14-25.38-37.56-12.84a66,66,0,0,0-22.56,19.32A140.56,140.56,0,0,0,362.88,210Zm11.4-78.48-8.16-14.52c-13.56-9.48-27.6-10.44-42-2.88a85.13,85.13,0,0,0-32.52,29.76,192,192,0,0,0-19.56,39.48,264.29,264.29,0,0,0-11.28,41.4,416.3,416.3,0,0,0-6,45c-1.08,13.56-1.68,27.6-1.92,42.12a374.92,374.92,0,0,1-2.64,40.32,176.45,176.45,0,0,0,.24,42.84,89.66,89.66,0,0,0,16.92,41.88c9.36,12.84,22.2,18.6,38.4,17.52a135.38,135.38,0,0,0,44.76-8.64A90.6,90.6,0,0,0,381,421.56c7.08-8.28,9.12-17.76,5.88-28.2q-28.26,32.22-70.08,44.76a47.56,47.56,0,0,1-36.48-2.76,59.37,59.37,0,0,1-20.76-16.56,12,12,0,0,1-2.28-5,403.3,403.3,0,0,1-6.12-53.64,679.2,679.2,0,0,1,.84-81.24l88.32,2.28a12.62,12.62,0,0,0,2.52-5.64,10.69,10.69,0,0,0-.24-5.16,8.27,8.27,0,0,0-1.8-3.36,390.16,390.16,0,0,0-87.72,1.2q2-60.48,35-109.32A105.49,105.49,0,0,1,318.36,129a38.34,38.34,0,0,1,22.2-6.36,39.6,39.6,0,0,1,15.36,3.72A78.14,78.14,0,0,1,367.44,133.08ZM580,104.76,561.12,152c-10.2,25-20,50.16-29.28,75.6a824.46,824.46,0,0,1-38.16,89,91.16,91.16,0,0,0-6.24,15.72l6.36-101.16c3-43.08,4.08-85.8,3.24-128.4a427.76,427.76,0,0,0-7.08,60l-6.6,128.28c-2.28,42.84-5.52,85.56-10,128a267.24,267.24,0,0,0,1,64.32c.84-.24,1.2-.48,1.2-.84,4.68-40.2,8-80.64,10.32-121.44A733.43,733.43,0,0,0,518.52,284c3.72,26.52,8.52,52.92,14.4,79.44q14.22,62.28,30.48,123.24c.84,6.36,3,11.16,6.72,14.16A6.08,6.08,0,0,0,571.8,496a230.28,230.28,0,0,0-13.44-64.44,301.59,301.59,0,0,1-11.52-40.68q-12.06-57.06-26.28-112.44,21.06-58.14,45.72-114.48a179.12,179.12,0,0,0,15.24-60A1.45,1.45,0,0,0,580,104.76Z" transform="translate(-53.98 -100.06)"/></svg>