<svg id="Layer_1" data-name="Layer 1" xmlns="http://www.w3.org/2000/svg" viewBox="0 0 524.72 429.89"><defs><style>.cls-1{fill-rule:evenodd;}</style></defs><path class="cls-1" d="M99.36,247.68l2.16.6,3.36.24,4.2,1a26.28,26.28,0,0,1,4,1.44l3.84,2.28,1.92,1.44a127.11,127.11,0,0,1,22,37.56,251.52,251.52,0,0,1,11.52,41.88,214.37,214.37,0,0,1,3.12,45.48,261.27,261.27,0,0,1-5.64,44.4c-3.36,15.72-11.64,28.08-24.84,36.84a83.36,83.36,0,0,1-44.64,14.52,169.37,169.37,0,0,1-23.4.6l8.64-214.56a26.31,26.31,0,0,0,9.6-1.08,45.71,45.71,0,0,0,7.68-2.88,47.87,47.87,0,0,0,10-6.6C95.28,248.64,97.56,247.56,99.36,247.68Zm17.76-143.52q20,44.46,6,90.12c-9,29.52-28,46.68-57.12,51.48,1.32-36.36,3.48-72.6,6.72-108.72a411.26,411.26,0,0,0,.84-56.88Q104.16,75.3,117.12,104.16ZM71.52,73.92a14.63,14.63,0,0,0,0,3.24,673.22,673.22,0,0,0-8.76,80.28L56.64,285.6q-3.06,63.9-4.2,128.4a435.84,435.84,0,0,1-5,61.44,24.22,24.22,0,0,0,.12,4.2,11.87,11.87,0,0,0-.72,4.2,12.17,12.17,0,0,0,4.56,9.72,100.94,100.94,0,0,0,38.88.12c33.48-6.6,54.36-25.8,62.64-57.84a254.17,254.17,0,0,0,.6-127,312.69,312.69,0,0,0-10-32.28q-10.26-27.72-34.92-38.76,25.56-26.64,26.4-67.92a207.28,207.28,0,0,0-7.92-62c-5.88-20.52-18.36-34-37.2-40.44A28.81,28.81,0,0,0,72,71.4Zm203.4,9.72-.6-.84c-8.76-10.08-20-14.64-34.08-13.56A53.56,53.56,0,0,0,227,79.32C209.16,97.68,197.88,119.64,193,145a810.63,810.63,0,0,0-14.4,127.8c-1.44,42.84-2,85.92-1.8,129q0,8.46-.36,16.2-2.16,50.4,38,76.56c4.68,3.12,9.84,3.48,15.48,1.2q44.46-18.9,59-65a594.63,594.63,0,0,0,24.84-126,617,617,0,0,0-2-128q-6.3-52.56-32-96l-.84,1a4.84,4.84,0,0,1-2.16,1.68Zm7,20c5.16,13.44,9.84,27.36,13.92,41.76a372.25,372.25,0,0,1,12.72,127,866.09,866.09,0,0,1-18.36,126.84q-9.54,43.38-43.56,70.2a30.93,30.93,0,0,1-11.88,6c-18.84,4.56-32.16-2.16-39.72-20.16a147,147,0,0,1-11.76-57.84c-.24-43.08.48-86.16,2.28-129A748.44,748.44,0,0,1,201.6,141.6C206.76,117,219.6,98,240,85c18.84-2.4,31.44,4.68,37.8,21.36,1.08,1.32,2,1.32,2.88.24A6.16,6.16,0,0,0,281.88,103.68ZM387.6,294.36a173.51,173.51,0,0,0-9,45.84c-2.76,42.84-7.44,85.56-14.16,127.92l-7.2-66.48c-1.08-9-3.6-16.08-7.68-21.48a421.55,421.55,0,0,1-19.44,82.56c.48-15.24.48-30.84,0-46.56-1.32-43.08-3.12-85.8-5.16-128.28-2,1-3.12,2.88-3,5.76q.54,63.72.48,127.32a356.43,356.43,0,0,0,5.52,64,236,236,0,0,0,22.68-73.68,339.73,339.73,0,0,1,4.56,39c1,14.64,4.08,27.72,9.48,39.24A53.18,53.18,0,0,0,371.16,470q9.54-63.9,16.44-128.88A297.17,297.17,0,0,0,389,293,2.26,2.26,0,0,0,387.6,294.36Zm62.88,17.16c2.28-14.76-4.32-22-19.68-21.72h-3.36q-41.76,39.42-38,103.08c1.08,18.24,2.4,36.48,4,54.84A49.91,49.91,0,0,0,408.84,480a48.26,48.26,0,0,0,18.6,11c21.72-9.48,31.68-25.08,29.88-47l-4.08,3.6-1,.48-.36-.12c-3.72,13.56-12.48,22.92-26.28,28.2q-36.18-30.24-28.8-83.28a36.52,36.52,0,0,0,25.08,2.88,11,11,0,0,0-.36-12.6L397.68,385q-4.32-52.2,34.56-80.16c4.08-3,8.16-2.76,12.36.72A39.77,39.77,0,0,1,450.48,311.52ZM422,105.84c.36-.24.6-.36.72-.24a47.1,47.1,0,0,1,9.36,4.32,149.45,149.45,0,0,1,13.08,26.76,105.13,105.13,0,0,1,6.12,26.88q5,54.18-38.76,87.12-36.9,27.54-64.32-10.44c-7.56-16.68-9.36-34.32-5.28-52.92a345.09,345.09,0,0,1,16.56-53.16c7.8-19.08,20.64-31.68,38.76-37.56l.48-.12A33.9,33.9,0,0,1,422,105.84Zm-46.2-13.56a230,230,0,0,0-35.52,77.28c-2,8.52-3.84,17-5.28,25.56q-7.56,46.44,27.24,75.48c13.32,11.16,27.12,12.12,41.52,3Q463.56,236,459.6,164.76a173.22,173.22,0,0,0-4.56-31.2q-8.28-35.64-40-49.08l-2.16.12-1.68.12-1.32-.48a59.89,59.89,0,0,0-13.8-2.76L391.8,83A46.35,46.35,0,0,0,375.84,92.28ZM478.08,88a68.25,68.25,0,0,0-3.6,19.32c-2.28,42.84-3.12,85.92-2.28,129.24l1.68,96.6a1095.23,1095.23,0,0,1-5.28,127.44v-.84l-.72-4.44-.6,1.68-.6.84-.6-.36v6.36C466,475,468.24,484,472.68,491a736.85,736.85,0,0,0,7.8-85.2q2.34-64.8-.48-129.12l-.6-15.84.6,1.32A126.37,126.37,0,0,0,502.56,250a689,689,0,0,0,17.76,87.48q17.1,62.82,36,124.32A135.13,135.13,0,0,0,569,491a13,13,0,0,0,1.8-11.88L538.2,363.36Q521.82,305,506.64,246.84c17.64-14,29.4-33.24,35.28-57.84q13.5-56.7-20.76-103a4.44,4.44,0,0,1-2.16-1,36.68,36.68,0,0,0-25.44-6.84l-9.72,2.52a11.17,11.17,0,0,0-4.92,3.12A15.42,15.42,0,0,0,478.08,88Zm55.68,100.32a89.22,89.22,0,0,1-25.32,37A274.76,274.76,0,0,1,479,247.56l1.44-153.12c15.24-6.36,28.32-3.36,39.12,9.12A78.08,78.08,0,0,1,538,142.44,88.9,88.9,0,0,1,533.76,188.28Z" transform="translate(-46.8 -67.3)"/></svg>