<svg id="Layer_1" data-name="Layer 1" xmlns="http://www.w3.org/2000/svg" viewBox="0 0 528.81 524.65"><defs><style>.cls-1{fill-rule:evenodd;}</style></defs><path class="cls-1" d="M547.92,450.24a2.12,2.12,0,0,0,1.32-1.68,12.48,12.48,0,0,0,.6-3.48,19.82,19.82,0,0,0-.6-4.56l-.48-1.68q-20.52-18-39.84-2.16Q490.38,452,487.32,477a318.41,318.41,0,0,0-2.16,42.72c.36,18.12,8.16,30.6,23.52,37.44,15.84,7.08,29.76,4.32,41.76-8.52,6.12-6.48,8.52-14.16,7.44-23.16a42.35,42.35,0,0,1-19.2,18.6,35.43,35.43,0,0,1-21.12,3.24,22.25,22.25,0,0,1-11.16-4.68c-12.84-10.44-17.28-25.44-13.08-44.88l45.36-8.88v-5.64c-14.76-5.4-29.52-4.08-44.4,4-.12-17.88,6.84-31.56,20.76-40.8,7.8-5.16,16.08-5.88,25.08-2.16Zm-366.36,23c1.56-13.2,2.64-26.4,3.36-39.72,8.64-1.56,15.84,1,21.48,7.8,9,10.92,7,21.36-6.24,31.08Zm3.6-47.4-9.84,47-3.24-.24-.6,8.16,2.52,1.8c-1.8,15.24-4.2,30.48-7.32,45.72-1.56,7.56-.84,14.16,1.92,20l11.52-63.72,16-.36a111.88,111.88,0,0,0,12.12,40,82.74,82.74,0,0,0,19.92,25.44c1.92-3.36,1.68-6.48-.6-9.36a145.26,145.26,0,0,1-25.32-45.6l-3.6-11.52a30.66,30.66,0,0,0,11.76-11.4,38.23,38.23,0,0,0,4.44-28.44A19.13,19.13,0,0,0,202.92,429a29.17,29.17,0,0,0-7.8-2.28ZM95.64,231q51.3,48.6,54.72,119.88A324.4,324.4,0,0,1,132.6,475.2q-12.24,35.1-42.72,53.52A112.86,112.86,0,0,1,39.72,543c1.44-15.84,2.4-31.92,3-48.12q2.34-64.44,4-129c.84-37.8.72-75.36-.6-112.92l5.28-.84a58.32,58.32,0,0,0,22.32-10.68,144.54,144.54,0,0,0,17.4-15.36ZM48.72,41.64a6.65,6.65,0,0,0-2.28,3.84,5.49,5.49,0,0,0,.24,3.12l.36,1,.84-.12a599.8,599.8,0,0,0-9.84,104q-.36,43.2.6,86.16l-1.56.12a14.84,14.84,0,0,0-1.2,6.48,13.17,13.17,0,0,0,1,4.8l.48.84,1.68.48,1,30.12c1.68,43.08,1.68,86,0,129.12-1.56,42.84-4.08,85.44-7.44,128q-1.26,14.76,5,23.4l.6-4.56a123.67,123.67,0,0,0,31-4.44,73.73,73.73,0,0,0,29.16-15.12q35.82-30.24,46.92-76.56a366.94,366.94,0,0,0,8.28-127.56q-6.84-64.26-52.56-109.68a2.26,2.26,0,0,1-1.08-.48,31.25,31.25,0,0,0-4.32-3.6c17.4-20.64,27.24-45.6,29.28-74.88a296.26,296.26,0,0,0-2.28-62.76Q116,37.86,69.24,38.4A47.48,47.48,0,0,1,58,40.92ZM119,95c5,35.4-.24,69.12-16,100.92q-18.54,35.46-57.6,42.6l-.12-1.92a1026,1026,0,0,1,2-128.88C49,87.84,49.56,68.28,49.2,49.2a101.14,101.14,0,0,1,49.32,4.68,28.48,28.48,0,0,1,5.76,5.64A72.63,72.63,0,0,1,119,95Zm65.4-15a168,168,0,0,0-11.16,43.32,419.11,419.11,0,0,0-3,56.28c.6,34,1.8,67.8,3.36,101.52a597.91,597.91,0,0,0,4.44,85.32,164.77,164.77,0,0,0,9.6,38.16c8.28,21.72,23.88,27.48,47,17.52a35.9,35.9,0,0,0,18.84-17.76A313.53,313.53,0,0,0,285.36,282a695,695,0,0,0-4.92-128.52l-8.52-63.72c-4-29.64-21-45.12-51.12-46.2Q195.06,53.64,184.44,80Zm73.92-7.2a68.38,68.38,0,0,1,6.24,19.68q6.3,42.3,11.88,84.84A496.38,496.38,0,0,1,276.72,306a279.31,279.31,0,0,1-21,77.28c-10,23.4-27.6,31.92-52.68,25.56a7.19,7.19,0,0,1-5.4-4.32A203.16,203.16,0,0,1,181,331.44c-1.92-42.6-4-85.44-6.24-128.28a263.11,263.11,0,0,1,.48-32.28c1.2-16,2.28-32,3.24-48.12q2.7-47,42.36-68.64a37.3,37.3,0,0,1,17.52,1.32,7.57,7.57,0,0,0,1,2.76,3.79,3.79,0,0,0,3.36,1.92l.84,1.08ZM365.76,331q4.5,64.44,3.6,129a169.51,169.51,0,0,1-7.44,47.52q-11.16,35.64-47.64,32.16a7.45,7.45,0,0,1-6.48-4.08,84.48,84.48,0,0,1-10.56-43.92l1.08-54.36c.6-43.08,1.44-85.8,2.76-128.28l-.36.12a887.55,887.55,0,0,0-8.4,89.16,1088.88,1088.88,0,0,0,2.16,128.28,31.15,31.15,0,0,0,11.28,22.2q10.8,9,24.48,4.68c21-6.84,34-21.36,38.76-43.32A248.09,248.09,0,0,0,374.76,460c.84-42.6.6-85.32-.48-128.16-.24-7.32-2.4-12.24-6.6-14.64A33,33,0,0,0,365.76,331Zm59.52-156.72-14,6.24a37,37,0,0,0-6.12,26.88l.48,2.4a103,103,0,0,1,35.16,41.64c-7.56,14.52-19.56,21.48-36,21a14.85,14.85,0,0,1-13.8-8.52c-5.76,6.36-4.32,12,4.44,16.92a29,29,0,0,0,22.32,3c10.56-2.64,17.64-9.12,21.36-19.44,7.44-20.76,1-39.12-19.32-55.32a89.34,89.34,0,0,1-10.32-9.72c4.32-8.64,11.52-12.12,21.6-10.56l5.64,1,4.2,8.64c4.68-6.48,3.6-12.84-3.36-19.08A18.1,18.1,0,0,0,425.28,174.24ZM356.76,78.48l.36.24,2.76-1.92,10.2,2.52A246.8,246.8,0,0,1,384,205.44c-1.68,11.28-3.6,22.56-5.76,33.72a71.18,71.18,0,0,1-14.64,31.68,27.07,27.07,0,0,1-15.36,9.6,56.27,56.27,0,0,1-21.48.84q-23.58-3.06-28.08-27.72A356.07,356.07,0,0,1,302.16,109a165.42,165.42,0,0,1,7.44-24.6l1.8-4.8q20.52-19.08,44.64-7.2l-.24,4.44Zm3.84-13.92a41.65,41.65,0,0,0-22.92-8.28,44.6,44.6,0,0,0-24,10.32,26.25,26.25,0,0,0-9.12,13.8,443.57,443.57,0,0,0-14.64,104.4c-.48,21.48-.6,43-.48,64.2q.18,33.66,29.4,43.92c12.12,4.2,23.64,3.48,34.44-2.16A45.08,45.08,0,0,0,373,270.6,173.92,173.92,0,0,0,391.44,205,391.68,391.68,0,0,0,381,79.56c-2.88-11.4-9.36-16.2-19.56-14.4ZM561.12,52.2V50.64L561,49.8l-.48-1.68-.36-.72L558.6,45,395.4,43.68l-1.08,1.56-.12.72-.24.84-.24.84v4.08a3.87,3.87,0,0,0,2.16,4l1.8.24,1.44-1,75.12,1A201.89,201.89,0,0,0,470,111c.6,10.68.84,21.48.84,32.28v32.28l.12,32.28q.9,168.3-4.8,336.12a35.72,35.72,0,0,0,4.32,18.24c2.28-15.72,3.72-31.44,4.56-47.28l.6-16,.48-15.84.12-15.84Q475.2,261.54,476.4,56H559L560,54.72l.48-1,.36-.72Z" transform="translate(-32.31 -38.39)"/></svg>