<svg id="Layer_1" data-name="Layer 1" xmlns="http://www.w3.org/2000/svg" viewBox="0 0 300.96 213.4"><defs><style>.cls-1{fill-rule:evenodd;}</style></defs><path class="cls-1" d="M293.88,246.48l8,.36a19.72,19.72,0,0,0,6.24,2.88q20.52,23.22,10.44,52.68c-6.84,19.56-20.16,29.28-40,29a33.45,33.45,0,0,1-5.28-8.28q-15.48-34.56.48-68l1.08-.84A32,32,0,0,1,293.88,246.48ZM264,263.4c-7.32,28.92-3.36,55.92,12,80.76,8.28,4.32,16.08,3.48,23.64-2.52,24.72-19.8,34-45.48,27.72-77.28-4.56-23.16-18.48-35.16-41.64-35.76a14,14,0,0,0-10.32,9.48,14.46,14.46,0,0,1-5.4,7.08A147.26,147.26,0,0,0,264,263.4ZM159.6,301.32A75.82,75.82,0,0,0,193.32,299l1.32-.24a11,11,0,0,1,6.84,1.08c19.32,10.68,27.12,26.88,23.52,48.84a19.36,19.36,0,0,1-6.36,11.88c-17.52,15.48-37.92,20.88-61.32,16.44C157.44,351.72,158.16,326.4,159.6,301.32ZM174.72,208a42.55,42.55,0,0,1,21.12,9.12c11.88,9.6,18,21.84,18.12,36.84.24,18.12-10,28.56-30.72,31.56l-22.8.84,3.24-79ZM250,209.88c-1.32,25.68-2.76,51.36-4.56,77.16a578.78,578.78,0,0,0,1.68,95.76,22.19,22.19,0,0,0,7.56,15c11.4,10.2,25.08,12.48,41.28,7a45.15,45.15,0,0,0,23.52-17.88c19.08-28.2,28.68-59.76,28.56-94.68-.12-21.24.36-42.6,1.32-64.08.6-12.36-1.44-22.92-6.24-31.92-.36.12-.6.36-.6.48q-1.8,49.68-2.64,100.68a144.12,144.12,0,0,1-15.36,63.24Q305.94,397.68,261.12,389l-6-4.8a155.27,155.27,0,0,1-5.52-57.72,1259.92,1259.92,0,0,0,4-127.32A18.34,18.34,0,0,0,250,209.88Zm-66.48-13.56a59.88,59.88,0,0,0-9.24-1.8l-11.16,1.68-.12-1.92c-3.36,2-5.16,5.28-5.52,10q-3.24,40.5-4.68,81.36l-1-.12a18.5,18.5,0,0,0-1.56,8,8.18,8.18,0,0,0,2.16,5.76l-.72,34.08a321.39,321.39,0,0,1-1.92,32.28,70.1,70.1,0,0,0,.12,16.68A19.27,19.27,0,0,0,152,392l.24.12a32.17,32.17,0,0,0,2.28,5,18.06,18.06,0,0,0,1.92-4.08c17.4,3.72,34.32,1.32,50.52-7.44,19-10.2,28-26.16,26.88-48.12-1-20.16-8.76-35.64-23.52-46.32a13.6,13.6,0,0,0,2.88-3.6q25.92-50.58-19.2-86l-3.12-1.32a12.25,12.25,0,0,1-5.28-3.6ZM365.4,259.2a354.38,354.38,0,0,0-5.28,46.56,410.21,410.21,0,0,0,.6,47c1.2,16.92,9.24,28.8,24.12,35.76,15.24,7.08,30,6.48,44.28-1.56A43.86,43.86,0,0,0,444,373.32l1.68,25.56,2.52-.12a238.51,238.51,0,0,0-.72-67.92c-7.92-2.28-15-1.2-21.12,3V341l17.88,2.28L444,357l-1.92-2c-15.24,21-35.28,25.8-59.88,14.16-4-1.8-6.6-5.16-7.92-9.84a195.29,195.29,0,0,1-3.84-91.56,87.39,87.39,0,0,1,9.36-25.8,52.47,52.47,0,0,1,14.64-16.56c11.64-8.64,24.12-10.44,37.68-5.4a48.17,48.17,0,0,1,15.36,9.24c-.24-18.12-9.6-27.48-28-28.08-16.32-.84-29,5.4-38.28,19A100.54,100.54,0,0,0,365.4,259.2Z" transform="translate(-149.32 -194.28)"/></svg>