<svg id="Layer_1" data-name="Layer 1" xmlns="http://www.w3.org/2000/svg" viewBox="0 0 453.54 393.48"><defs><style>.cls-1{fill-rule:evenodd;}</style></defs><path class="cls-1" d="M117.6,232.2a113.17,113.17,0,0,1,22,39.48,145.64,145.64,0,0,1,6.84,43.08,131.59,131.59,0,0,1-7.8,44.76A125.71,125.71,0,0,1,116,398.76a145.64,145.64,0,0,1-11.16,11.64l-36.72,4.32,6-176a95.49,95.49,0,0,0,29.16-14.76,16.1,16.1,0,0,0,9.72,7ZM82.8,99.12c15.36-2.28,27,5,34.8,21.84a79.51,79.51,0,0,1,7.2,46.44,61.54,61.54,0,0,1-21.48,39.72A53.52,53.52,0,0,1,75.24,219.6a492.21,492.21,0,0,0,3.84-115.8ZM72.72,105.6a880.06,880.06,0,0,1-1.8,100.68l-1.08,15.24c-7.56,3.72-9,10.08-4.32,19.32l3-.6q-3.24,47-5.28,94.2c-1,21.36-2.52,42.72-4.8,64a78.36,78.36,0,0,0,.48,22L58.68,422a13,13,0,0,0,3.6,9.84L93,430.8a19.05,19.05,0,0,0,7.68-2.76q26.1-15.84,39.24-44.88a166,166,0,0,0,13.92-52.92q5.58-63.9-35.4-111.6l-2.4-.24-.24-.24-4.2-1.68c9.72-10.08,15.72-22.56,18-37.56a138.38,138.38,0,0,0-2.88-55.32c-5.4-20.88-17.76-34.44-36.84-40.8a13.38,13.38,0,0,0-10,4c-3.24,3.12-5,6.48-5.4,10A17.07,17.07,0,0,0,72.72,105.6ZM181.2,92.28a277.18,277.18,0,0,0-3.36,39l-2.28,84.36q-2,64.44-5.76,128.4l-1.56,24.12q-2.88,39.06,22.8,64.2c15.84-1.56,28.32-9.24,37.56-23a141,141,0,0,0,24.48-75.12q2.7-64.44,1.56-129.12a777.92,777.92,0,0,1,2.64-80.28c1.08-13.08-1.44-23.64-7.8-31.68-3,3.6-4,7.92-3.12,13A192,192,0,0,1,249,144.24q-2.16,64.26-1.2,128.28A417,417,0,0,1,238.2,368q-8.46,38.7-46.44,47.52a18,18,0,0,1-5.16-4.8,61.11,61.11,0,0,1-10.8-33,764.19,764.19,0,0,1,2.28-95.16c1.8-21.12,3.24-42.36,4.32-63.84q3.42-64.62.72-128.4A2.06,2.06,0,0,0,181.2,92.28ZM304.44,69.84,336,71.16,337.8,69l.36-.48.24-.72.36-1.56L339,63a10.87,10.87,0,0,0-2.76-8.4l-37.56-2.16-66.6,8.76L232,70.08a3.69,3.69,0,0,0,3.84,2l65.76-2.28c-.84,16.68-1.2,33.36-1.32,50q-.36,145.26-15,289.44a39.36,39.36,0,0,0,1.68,16.32,22.92,22.92,0,0,0,4,7.32,6.38,6.38,0,0,0,1.8-4.08Q302.4,295,305.16,160.2q.9-37.62-.24-75.24Zm206.64,8.4a88.61,88.61,0,0,0-5.76,31.68q-1.08,64.62-6.24,128.28l-.6,7c-20.28.72-40.44,2.4-60.72,5,.72-15.84,1.2-31.68,1.56-47.52q1.44-64.8-.48-128.28l-.6.12a180.68,180.68,0,0,0-5.52,45.36Q432.9,184,429.12,248c-2.52,43.08-5.28,86-8.4,129.12a322,322,0,0,1-3.84,32.16c-2,12.12-1.08,23,3,32.52,2.4-1.44,3.72-3.72,4.08-7l8.76-103.8c1.8-22.56,3.36-45.12,4.44-67.8a500.28,500.28,0,0,0,60-1.44Q493.38,314,491,366.36c-.72,16.08-2.16,31.92-4.44,47.64-1.8,12.6-.12,23.16,5.28,31.92a192.11,192.11,0,0,0,6.24-47.16q.9-64.26,6.36-128.16c3.48-42.48,5.76-85.2,6.6-128.28Q511.8,109.38,511.08,78.24ZM357.36,101.16c-22.08,20-35.16,45.36-39.36,75.72a764.48,764.48,0,0,0-7,127.56,314.29,314.29,0,0,0,17,94.68,29.14,29.14,0,0,0,11,14.88c13.08,9.24,26.76,9.48,41.16.6a72.43,72.43,0,0,0,22.32-21.24q10.26-14.94,0-25.56c-7,19.8-20.52,31.8-40.68,35.76-12.12,2.28-20.4-1.8-25.08-12.48a228.34,228.34,0,0,1-18.72-80.4,659.81,659.81,0,0,1,5.28-126,129.42,129.42,0,0,1,31.08-68.88,23.37,23.37,0,0,0,4.92-2.4l3.72-2.28,1.08-.72a110,110,0,0,1,37.56,2.16,4.57,4.57,0,0,1,2-1l1-.12.24-.24-.48-.84c-7.8-11.52-19.2-16.8-34.44-15.72A24.88,24.88,0,0,0,357.36,101.16Z" transform="translate(-57.9 -52.44)"/></svg>