<svg id="Layer_1" data-name="Layer 1" xmlns="http://www.w3.org/2000/svg" xmlns:xlink="http://www.w3.org/1999/xlink" viewBox="0 0 560.72 589.24"><defs><style>.cls-1{fill:none;}.cls-2{clip-path:url(#clip-path);}.cls-3{fill-rule:evenodd;}</style><clipPath id="clip-path" transform="translate(-24.81 0.97)"><rect class="cls-1" x="24.72" width="561" height="591.24"/></clipPath></defs><g class="cls-2"><path class="cls-3" d="M565.8,532.8c5.4,3.24,11,3.24,16.8.24a6.26,6.26,0,0,0,1.68-4.08,9.59,9.59,0,0,0-1-4.8l-13.2,1.08a7.17,7.17,0,0,1-2.4-5.52V519a67.62,67.62,0,0,0,10.56-3l.48-.84a6.76,6.76,0,0,0-.48-7.32A20.44,20.44,0,0,0,569,511.2c1.92-4.92,5.76-8.4,11.4-10.32a2.62,2.62,0,0,0,3.12,1.08,2.72,2.72,0,0,0,1.92-2.16,4.08,4.08,0,0,0-.36-2.4,13.43,13.43,0,0,0-5-4.68h-3.24l-2,1.32-3.12,1.32a34.18,34.18,0,0,0-4.56,9.12A49.48,49.48,0,0,0,565.8,532.8Zm-436-34.08a18.27,18.27,0,0,1,3.84,3.12,21.14,21.14,0,0,1,6.12,13.56c-4.2,6.36-9.84,9.72-16.68,10.2.48-8.52.72-17.16.6-25.68A27.61,27.61,0,0,1,129.84,498.72ZM120,501c-.84,18-2.28,38.16-4.56,60.48l-3.24,3c-1.56,6.24-.12,10.92,4.32,14.16l6-43.2,9.36-1.08a231.8,231.8,0,0,0,16.8,52.32,130.23,130.23,0,0,0-14-54.6q17.1-19.26-.36-36.72a21,21,0,0,0-6.6-4.56L119,496Zm215.52,35.52-1.08,5.76,11.4,33.36,3.24.72,8.64-18.12,6.48,19.44c12-12.36,17.64-27.24,17-44.88l-16.56,31.08a28.25,28.25,0,0,0-4.92-16.08l-3.12-4.2L348,562.8a64.42,64.42,0,0,0-8.64-20.52A68.6,68.6,0,0,0,335.52,536.52Zm-28.08-2.16a178.9,178.9,0,0,0,1.32-43.8,78.44,78.44,0,0,0-5.64,22.8c-1,9,.36,16.32,4,21.84Zm-32.52-.48-6,2.16c-8.52,15.24-7,28,4.92,38q5.22,4.5,12.24.36l2.88-1.68-.24-9.12q-11.52,8.46-18-2.16a14.34,14.34,0,0,1-1.8-4.2l2.76,2,9.12-4.2a10.87,10.87,0,0,0,1.32-2.64,5.38,5.38,0,0,0-.48-4.08l-1.08-1.8-11.88,5.64-.24,2.64a17.5,17.5,0,0,1,1.32-9.12l7.32-4.08,6.48-.72a4.77,4.77,0,0,0-2-4.8,7.48,7.48,0,0,0-5-2.16Zm-6.36-74.76q5.58,34.56-11,63.36l-3.24.72c-11.76,1.2-17.64-4-17.64-15.6.12-19.44.24-38.4.6-56.88a203.09,203.09,0,0,0-8,54.48c-.36,20.76,9.6,30.12,30,28.08a44.65,44.65,0,0,0,11.28-20.76,170.65,170.65,0,0,0,3.84-21c1.56-13.56.36-25.92-3.72-37A4.11,4.11,0,0,0,268.56,459.12Zm79.92-9.6-7.56-1.44Q322.38,465,333,488.76a33.69,33.69,0,0,0,4.08,6.6c8.52,1.32,14.4-1.56,17.76-8.4a4.44,4.44,0,0,0-1-5.76l-15.36,5.28a11.37,11.37,0,0,1-4.68-5.4,11.51,11.51,0,0,1-.84-4.92l17.4-3.24L351,471l.24-2a3.82,3.82,0,0,0-1.8-3,18.68,18.68,0,0,0-13.44,1l-1.68.72c2.28-9.24,7-12,14.28-8.52a4,4,0,0,1,2,2.16c.84.36,1.32-.24,1.56-1.56a9.75,9.75,0,0,0-1.56-7.8ZM154.32,416.4A711.3,711.3,0,0,0,151,506.52a2.89,2.89,0,0,0,2.4-1.68,5.13,5.13,0,0,0,4.32-2.16l28.44,4.68q3.42-6.66-1.08-12.24A140.12,140.12,0,0,0,153.6,493l.24-.48c2.76-28.32,4.32-56.16,4.44-83.64A10.68,10.68,0,0,0,154.32,416.4ZM73.56,241.68a50.84,50.84,0,0,1,15.12,21A341.93,341.93,0,0,1,112.44,380.4a609.46,609.46,0,0,1-10.2,127.32A58.38,58.38,0,0,1,97,523.32C83.88,548.88,62.52,561.12,33.12,560c.36-3.24.6-6.6.72-10q1.62-64.44,4.32-129C40,378,40.32,335,39.24,292l-.84-42.48A43.54,43.54,0,0,0,51,247a92.64,92.64,0,0,0,16.2-8A26.89,26.89,0,0,1,73.56,241.68ZM154.08,298a22,22,0,0,1-8.4-.12l-1-44.16c17.88,1.56,25.8,11.4,23.76,29.28C167.4,291.36,162.6,296.4,154.08,298Zm-9.24-51.72a3.14,3.14,0,0,1-.72-1.56l-1.44,4-2.52,47.64q-3.78.9-2.88,6.48l.24,1.2.36,1.2,1.92,1.92A331,331,0,0,0,137,362.64a39,39,0,0,0,2,11l6.24-64.8,11.88-.48,22.68,63.84a21.78,21.78,0,0,0,1.2-17.16,470,470,0,0,0-18.6-48.84,28.43,28.43,0,0,0,11.28-14.4c4-10.8,3-21.36-2.76-31.8a33,33,0,0,0-15-14.16,11.58,11.58,0,0,0-10.68.12ZM40.92,11.4C68.16,14,85.2,29.28,92.28,57a269.39,269.39,0,0,1,8.28,59A210.63,210.63,0,0,1,88,194.4q-13.32,36-49.8,39.48c-.36-23.88-.6-47.88-.6-71.76q0-64.8,4.56-129A79.79,79.79,0,0,0,40.92,11.4ZM37.44,4.68A5.37,5.37,0,0,0,37,7.08V8.64C36.12,16.56,35.4,25,35,33.72Q32.34,98,31.92,163q-.18,64.44.84,129t-1,129.12q-2,65-6.36,124.92l-.12-.36c-.36,9.6-.6,19.8-.48,30.72a3.33,3.33,0,0,0,3.84,1.92l1-2.64,1.2,1.2a61.84,61.84,0,0,0,36.36-3.48c18.24-7.56,30-20.52,35.28-39.12A447.29,447.29,0,0,0,119.28,408a673.65,673.65,0,0,0-13.44-127.56q-6.48-32.22-31.44-47C85,224,92,211.56,95.76,196a365.13,365.13,0,0,0,6.72-127.32Q96.72,21.12,54.12,2.4A55,55,0,0,0,38.76,3.6l-.84-2.52ZM250,15.48a144.58,144.58,0,0,1,27.24,52.8,532.29,532.29,0,0,1,16,75.36,942.06,942.06,0,0,1,8.28,127.8,552.47,552.47,0,0,1-15,127.08q-5.4,22.86-24.12,36c-3.24,2.4-6.6,2.76-9.84,1.08-15.84-8.28-24.24-21.24-25.2-39.12-2.28-42.6-3.84-85.32-4.44-128.28l-2-129.12c-.36-21.84-.48-43.44-.12-64.92q.54-35.46,22.56-61.2A7,7,0,0,1,250,15.48Zm70.68,4.32,6.12-4,2.28.72-6.24,4Zm46.2,257.88a824.44,824.44,0,0,1-18.48,128.64c-3.24,14-10.68,23.64-22.32,29a21.65,21.65,0,0,1-8.4-12.24,294.29,294.29,0,0,1-10.44-82.44l.36-36.12a585.48,585.48,0,0,0-.6-79.44l-.36-13.56L305,146.64A505.51,505.51,0,0,1,315.72,26.52l.84-.84a32.35,32.35,0,0,1,13-7l.6-.24c3.72-.36,6.24,1,7.32,4.2a492.14,492.14,0,0,1,28,125.88A858.45,858.45,0,0,1,366.84,277.68Zm45.48,51.12q-17.46,45.72-32.16,94.08a88.36,88.36,0,0,0-4.08,31.44l.48-.12Q395.1,398.58,413,341.52a286.12,286.12,0,0,0,6.12,53.88l-.84,8.52,1.8-4.2,1.2,4.8.36-.84V396c2.4-6.36,4.56-13.08,6.6-20.4a174.25,174.25,0,0,1,10.8-29.28,43.89,43.89,0,0,0,3.12-8.88,171.35,171.35,0,0,0,2.4,41c3,17.28,5.4,34.56,7.32,51.84,1.08,9.36,3.6,16.8,7.8,22.32l.24-.72c-3.72-41.28-9.48-82.44-17-123.36l-.36,3.24a17.89,17.89,0,0,0-1-5.16l-.48.72a197.31,197.31,0,0,0-20,55.8A332.62,332.62,0,0,0,415,334.68c.48-1.92.24-3.48-.84-4.56l-.48-1.92c-.36-.12-.6,0-.6.36v.6Zm-3.72-19.2-5.76,12.12L392.4,322.8l1.08-27.72,5-.12,7.44,7.2ZM389.88,290l-.24,1.68a85.81,85.81,0,0,0-.12,42.36l1,2.52.72-4.68,9.72.6c13.32-12.72,14.16-25.8,2.76-39.36a47,47,0,0,0-5.4-5.52l-5.16-.48ZM360.24,68.76a281.09,281.09,0,0,0-16.68-56.88l-2.64.12-1.08-.36-.36-.6a27.7,27.7,0,0,0-14.76-5.4,11.13,11.13,0,0,0-4.44,3.24l-4.8,4.68A163.11,163.11,0,0,0,304,67.08q-2,50.22-2.4,100.44l-4.44-38.64A359.09,359.09,0,0,0,264.6,17l-3.12-.6-.72-.48.24-.72c1.56-2.16,1.32-2.88-.6-2l-.36.6L256.32,10A31.17,31.17,0,0,0,248,3l-5.64-.24A35.64,35.64,0,0,0,229,21.6a276.68,276.68,0,0,0-13.56,88.56l1.32,128.28q.72,63.36,3.12,125.76a142.5,142.5,0,0,1-.24,16.08c-1.92,28.2,7.32,51.6,27.72,70a41.72,41.72,0,0,0,10.2,1.32,26,26,0,0,0,15.6-12.6,261,261,0,0,0,29.16-86.4l.12-.48-.84,18.48c-1.8,29.4,5.28,55.44,21,78,3.48,2.16,6.72,2.16,10,0a33,33,0,0,0,11.88-15.72,439.35,439.35,0,0,0,25-108.24,984.34,984.34,0,0,0,4.2-129.24A859.45,859.45,0,0,0,360.24,68.76Zm82.32,142.08q-6.48,34.56-15.6,66.84l-.36-1q-5-34.92-11.88-68.88a146.71,146.71,0,0,0-10.2,38.4c-1.8,14.4-1.92,27.36-.24,39l.36-.84L414.48,224q1.8,36.54,13,67.68,8.64-24.66,15.48-50.76,4.5-17.64,0-31ZM388.32,168.6l-.6-3.48c-5.16,11.64-6.36,24.48-3.48,38.64l22.68,1.08v-7.32l-19-3.24A71,71,0,0,0,388.32,168.6ZM425,124.2l4.08,3.24c-2,5.16-6.24,7.8-12.6,7.8l.48-10.68Zm-8-4.2-.6-1.44-.72,2.16L414,121.8l1,1.32L412.32,135c-2.4,8.4-3.24,18.6-2.4,30.6l5.88-24.12,6.24-1,24.12,25.92c.6-12.12-6.24-21.24-20.4-27.24,7.44-3.72,9.12-9.36,5-17l-.84-1.8A11.77,11.77,0,0,0,419,119.28Zm-25.8-18.72c8,6.12,7.08,10.8-2.76,14.16l-4.2.6-1.56-1.2L384,101.28Zm2.28-14.52-.24,4.44L385.56,94l.48-8.4,5.28-.48Zm-10.2-7.08L381,83,382.2,85l-3,29.76-.84,1.2,1.32,8.52.6-2.4a12.73,12.73,0,0,0,11.28,2.16l1.8-.48a20.35,20.35,0,0,0,6.12-14.16,12.86,12.86,0,0,0-5.16-11.28q5.58-5.94,1.8-13a13.73,13.73,0,0,0-9.72-7.08ZM467,18.12,449,19.8c3.72-7.2,9.6-10.8,17.64-10.92a5.85,5.85,0,0,0,4.56-.6l-.72-8.52q-25.2-1.62-28.44,28.44a34.54,34.54,0,0,0,.36,10c9.24,8,19.2,9,30,2.76,2-3,2.28-6,.6-9l-.84-1.32a30,30,0,0,1-25.8,1.92V26.88l21.12-.36Zm67.44,62.76a64.35,64.35,0,0,0-23-30.6l-2.64-1a14.44,14.44,0,0,0-7.44-1.68l-1-.84-1-.84a11.09,11.09,0,0,1-3.24-1,21.15,21.15,0,0,0-11.28-1.68c-15,9-23.64,22.68-25.92,40.92a165.87,165.87,0,0,0,0,42.24,515.13,515.13,0,0,0,31,124.8q23.22,59.94,40.2,121.08a537.79,537.79,0,0,1,19.56,125.16,113.19,113.19,0,0,1-9.36,49.68Q527.58,576.36,493,570q-40.32-7.38-37.92-45.84l1.68-1.2.24-.48a10.5,10.5,0,0,1,2-3.36l.48-.72-.12-.72c-.36-1.2-1-1.32-1.92-.36l-.48.24a6.83,6.83,0,0,0-2.76-4.68,8.09,8.09,0,0,0-2.88-1.44,15,15,0,0,0-6.72,12.12,13,13,0,0,0,2.88,8.88,52.12,52.12,0,0,0,3.72,22.32c10.2,25.32,30.12,36.36,59.52,32.88q32.76-3.78,39.36-36.24a314.77,314.77,0,0,0,3.48-101.28,614.06,614.06,0,0,0-27.72-120.36q-21.06-62.64-43.92-124.2a280.06,280.06,0,0,1-18-98.64q0-28.62,19.08-47.16,23-2,36.72,16.92L534.6,97.44A23.83,23.83,0,0,0,534.48,80.88ZM417.72-.6A106.3,106.3,0,0,0,388.8,1l-5.4,1-.6,5.28c1.56,1.56,4.08,2,7.32,1.68l18.72-.72-29.52,27.6.12,7.08,45.84,1.8.36-.84.48-1.32.36-1.44.12-1.44a4.74,4.74,0,0,0-1.32-4l-.72-.72L391.8,33.6,420.48,7.08l.12-1.68V3.84l-.24-1.68-.12-.72A2.33,2.33,0,0,0,419,0Z" transform="translate(-24.81 0.97)"/></g></svg>