<svg id="Layer_1" data-name="Layer 1" xmlns="http://www.w3.org/2000/svg" viewBox="0 0 302.09 216.12"><defs><style>.cls-1{fill-rule:evenodd;}</style></defs><path class="cls-1" d="M151.56,380.16a696.63,696.63,0,0,0,2.64-89.52l23-3.48q23,12.42,28.44,36.72,4.86,22-9.36,39.24c-9.6,11.52-22,17.4-37,17.52Zm5.28-120.72a215.56,215.56,0,0,0,.36-51.24C167.28,208,176,211.92,183.48,220a45.75,45.75,0,0,1,5.64,16.2c1.92,12.72-1.92,23.52-11.64,32.52a120.85,120.85,0,0,1-22.2,5.76Zm-6.6-50.64c-1,22.08-1.68,44.28-2.28,66.72l-2.64.24-.6,1.56a22.73,22.73,0,0,0-.36,9.84,5.61,5.61,0,0,0,2.28,3.24l1,.12c-.36,14.64-.6,29.4-.72,44.16A267.05,267.05,0,0,1,144.6,367a67.17,67.17,0,0,0-.72,11.88h-.24A6.12,6.12,0,0,0,142,382a9.62,9.62,0,0,0,1.68,7.92l2.28,2.64a51.62,51.62,0,0,0,2.4,6.84l.84-4.08c6.36,4.44,14.64,4.68,24.72.72a61.44,61.44,0,0,0,23.88-16.08,62.72,62.72,0,0,0,16.8-39.12q3.06-43.92-32.4-63.12c11.52-10.8,16.2-25.2,14.16-43.2-2.76-24.36-16.32-37.56-40.44-39.6l-.12.12-.48.24v-.12a1,1,0,0,0-.72.24l-.12.12-3.36,1.44-1.2.6a6.81,6.81,0,0,0-1.56,3.24,11.43,11.43,0,0,0,.72,6.36l.84,1.8Zm81.48-5.16-6.36,91.8c-1,15.72-2.4,31.32-4.44,46.92-3.48,28.44,5.88,49.8,28.2,64.32,12.84,2.28,24.36.12,34.8-6.6,26.28-16.92,41.4-41.64,45.6-74,2.64-20.76,4.2-41.88,4.8-63.24A248.76,248.76,0,0,0,328,198.6c-4.2,8.76-5.76,18.48-4.56,29.4a311.65,311.65,0,0,1-7,111.72q-7,28.44-31.56,43.08c-13.32,7.92-27,8.52-41.28,1.8-6-2.76-9.36-7.44-10-13.8a527.25,527.25,0,0,1,1.2-113.4,329.53,329.53,0,0,0,1.56-64.2Q232.26,196.62,231.72,203.64ZM353,194.76c-1.56,1.32-2.4,3.48-2.52,6.24-1,22-1.32,43.92-1.2,65.76.36,42.84-1.08,85.32-4.08,127.44a4.08,4.08,0,0,0,3.84,2.4,558.18,558.18,0,0,0,8.64-106.2v-.12l54.36-3.48c3-4.56,3.24-9.36.6-14.52l-.84-.84L395,271.2a246.68,246.68,0,0,0-37.44,5.28c-.12-16.68-.12-33.48.12-50.28a134.89,134.89,0,0,0-1.08-19.92,433.11,433.11,0,0,0,85.2,5.28,12,12,0,0,0,1.8-5.64,11.64,11.64,0,0,0,0-4.08A6.31,6.31,0,0,0,441,197l-9.12-.12a288.72,288.72,0,0,1-61.8-5.28,35.89,35.89,0,0,0-16.68,2.16Z" transform="translate(-141.73 -191.44)"/></svg>