<svg id="Layer_1" data-name="Layer 1" xmlns="http://www.w3.org/2000/svg" viewBox="0 0 551.8 417.48"><defs><style>.cls-1{fill-rule:evenodd;}</style></defs><path class="cls-1" d="M113.52,277.2q19.08,63.72-1.8,127.32A63.93,63.93,0,0,1,91.2,435q-25.92,21.24-59.28,17.88a363.18,363.18,0,0,0,6-47.76c2.4-42.6,5.28-85.2,8.64-127.56l4-45.6,6.84.24a140.4,140.4,0,0,0,17.28-10.92,27.37,27.37,0,0,1,15.6,10.2A139.74,139.74,0,0,1,113.52,277.2ZM148,90.12q33.84,9.54,32,47.16-2,36.54-33.24,46.8C148.32,152.64,148.8,121.32,148,90.12ZM102,162c-2.52,16-9.84,29-22.08,39.24A69.91,69.91,0,0,1,52,216a597.66,597.66,0,0,0,7.2-118.8c17.4-4.44,29.88,2.16,37.32,19.68A80.74,80.74,0,0,1,102,162ZM71.4,79.92A22.83,22.83,0,0,0,56,86.64a13.49,13.49,0,0,0-1.2,7.2A4.11,4.11,0,0,0,55.32,96Q50.1,140.82,47,186.72,42.9,250.8,37.8,314.28,34,362.16,28.2,409.8a389.14,389.14,0,0,0-2.88,43.92A11.56,11.56,0,0,0,24,458.64a15.31,15.31,0,0,0,1.44,8.16l.24,7.2,1.44-.24,1-3.72C51,473.88,71.52,469,89.88,455.4a31.1,31.1,0,0,0,7.68-8.16q34.38-53.64,31-119-3.24-62.82-38.16-113.64L88.8,214a18.13,18.13,0,0,0-3.48-1.56A74.93,74.93,0,0,0,99.6,192.24q20.52-42.3,1.44-85.68C94.92,92.52,85,83.64,71.4,79.8Zm77.88.48-2.52.48-1,.6L145.44,83l-.12,1.2a4.31,4.31,0,0,0-.72,2.64l-5.28,99.24h-.24a6.88,6.88,0,0,0-.48.84,19,19,0,0,0-1.08,7.32,12,12,0,0,0,1.08,4.2l-.84,16.68q-1.8,32.22-6.48,63.72c-1.8,12.24-.72,22.92,3.48,32a55.3,55.3,0,0,0,6.48-25.2q1.08-37.62,4-75.36l.72-10.68a21.15,21.15,0,0,0,9.84-3.48,367.74,367.74,0,0,0,31,117.72,6.94,6.94,0,0,0,1.44-7.08,1099.27,1099.27,0,0,1-28.08-114.12l.6-.6q28.44-29.7,23.28-73.44c-2.52-21.72-14-34.56-34.32-38.28Zm113.4,14.28a42.75,42.75,0,0,1,16.2,5.16,194.33,194.33,0,0,1,10.56,23.28,572,572,0,0,1,31.2,123.72,425.52,425.52,0,0,1-1.8,128.28,144.48,144.48,0,0,1-24.48,60.6q-20,28.8-50.76,9.48c-10.2-6.48-16.32-15.48-18.48-26.88a603.19,603.19,0,0,1-10.44-108.48q-.36-64.62,2.88-128.16c.6-10.92,1.32-21.84,2.28-32.76,2.28-27,15.12-45.24,38.76-54.48ZM280,88.44l-1-.6a42.7,42.7,0,0,0-22.56-7,28.09,28.09,0,0,0-19,13.2q-29,46.26-28.92,103c-.12,42.36.24,85.2,1,128.28l.72,64.8q.18,36.72,23,63.48c10.2,11.88,22.92,17,38.28,15.48A28.87,28.87,0,0,0,293,456.6q32.22-45.9,37.2-102.84a521.88,521.88,0,0,0-4.32-128.4l-5-32.64c-6.12-38.28-18.84-73.32-38.4-105.36l-1.32.72ZM435.6,265.68l.6,2.52a305.73,305.73,0,0,1-9.48,126.36c-6.84,23.4-20.52,41.52-40.8,54.12a7.11,7.11,0,0,1-7.8.36c-16-8.52-25.56-22.08-28.56-40.56a429,429,0,0,1-2-127.56,106.29,106.29,0,0,1,23.64-55l13.08-.6q18.72-4,29.88,9.72A249.85,249.85,0,0,1,435.6,265.68Zm-11.88-35.16q-17.46-26.1-51.48-18.6a8.27,8.27,0,0,0-5.64,3.84,157.85,157.85,0,0,0-26.76,74.16,476.06,476.06,0,0,0,4.32,126.6q5,29.7,29.64,47.52a7.64,7.64,0,0,0,8.64.84c26.52-13.56,43.68-35.4,51.48-65.76a414.85,414.85,0,0,0,11.76-127.2c-1.2-17.88-8.4-31.32-21.48-40.56Zm-21.84-144c-7.56,33.24-16.2,66.48-26,100-5.64-18-10.8-36-15.48-53.88a3.48,3.48,0,0,0-1.32,1.8,373.25,373.25,0,0,1-16,49.56l-.12-.72A585.15,585.15,0,0,0,322.2,89c-1.32-1.56-2.76-1.68-4.32-.24l-.6.84a8.21,8.21,0,0,0-.24,4.8,3.82,3.82,0,0,0,2.16,2.16,640.35,640.35,0,0,1,14.64,83.76c1.2,10.56,4.08,19.68,8.64,27.48a292.08,292.08,0,0,0,17.64-46.32c2,16.92,7.44,31.8,16,44.64A155,155,0,0,0,390.36,169q4.68-19.08,9.72-37.8A111.81,111.81,0,0,0,403.2,86C402.36,85.92,402,86,401.88,86.52ZM458.76,91c-1.2,30.12-1.92,60.6-2.28,91.68q-.54,64.26-3.84,128.28a1100,1100,0,0,1-14,128.76,140.81,140.81,0,0,0,0,48.12c.84-.24,1.2-.6,1.32-1q7.56-36.72,12-74.4,7.56-63.72,9-128.28L463.68,155A341.64,341.64,0,0,0,459.12,91ZM567.6,201l-5.16,129.12q-2.7,61.2-4.8,122.76Q542,395.64,523.8,338.76a1133,1133,0,0,1-32.28-124q-12.6-62.46-30.24-123.36c-1-.12-1.32.48-1.2,1.56,5.64,37,12.48,73.92,20.28,110.76q13.14,62.46,30.84,123.36,18.18,62.82,38.52,124.08a62.1,62.1,0,0,1,2.88,16.08c.48,11.52,3,21.48,7.44,30a61.06,61.06,0,0,0,2.16-11.16l2.52,4.44a266.48,266.48,0,0,0,2.88-42.24q-.9-64.8,1.44-129.12c1.32-32,2.88-64.2,4.92-96.36a881.18,881.18,0,0,0-1.2-128.4Q569.7,146.82,567.6,201Z" transform="translate(-23.94 -79.8)"/></svg>