<svg id="Layer_1" data-name="Layer 1" xmlns="http://www.w3.org/2000/svg" viewBox="0 0 304.88 208.92"><defs><style>.cls-1{fill-rule:evenodd;}</style></defs><path class="cls-1" d="M196.08,238.92c.36,21.48-10.92,32.52-33.72,33-.12-21.84-.84-43.68-2.16-65.4,13.2-1.56,23.4,3.24,30.48,14.52A34.26,34.26,0,0,1,196.08,238.92Zm-34.8,85c.6-12.6,1-25.32,1.08-37.92a42,42,0,0,0,13.92-1l.72,1.08a23.27,23.27,0,0,0,6.48,1.56,46.39,46.39,0,0,1,24.24,28.44c5.88,18.24,2.88,34.56-8.76,49q-17.1,21.06-40.68,16.56C159.48,362.4,160.44,343.2,161.28,323.88ZM272.4,195a598.21,598.21,0,0,0-6.6,75.36q-1.62,63.9-5,127.32c.84,1.92,2.28,2.64,4.08,2.16a312.88,312.88,0,0,0,4.8-38.88l2.16-38.88q3.24-64.62,1.44-127.56C272.64,194.64,272.4,194.76,272.4,195Zm-96.84-.6-10-1a8.27,8.27,0,0,1-5.4,1.56l-1.08.36-.24.48a2.37,2.37,0,0,0-1.44,2.52c-.36,42.84-1.08,85.56-1.92,128.16a382.88,382.88,0,0,1-4.2,48.6l-.48,4.44-2-.72a11.63,11.63,0,0,0-2.16,6.48A16.65,16.65,0,0,0,148.8,395a46.21,46.21,0,0,0,6.24,2.64l.6.84L156,398c12.48,4,24.84,1.8,37-6.48q27.9-26.1,24.12-65.16c-2-21.72-11.16-38-27.36-49.2l1.92-2.64q29-44.1-12.48-79.68ZM374.4,226.8c3.48-19-4.56-29.76-23.88-32.52l-2-.24Q306,228.42,340.2,271.32a148.94,148.94,0,0,1,30.12,64.44q3.6,18.18-4.68,33.48a26,26,0,0,1-9.24,9.84c-8.28,5.16-17,6.36-26.28,3.36q-30.6-9.72-29.76-44.76-17.82,50.4,31.56,61.08a37.67,37.67,0,0,0,31.2-6.36A33.14,33.14,0,0,0,376.68,372a90.64,90.64,0,0,0,2.16-25.56,95,95,0,0,0-14-45.48,326.93,326.93,0,0,1-29.4-60.48c-2.4-6.6-1.44-13,3-19,10.8-14.52,21-14.16,30.48,1.32A8.89,8.89,0,0,0,374.4,226.8Zm25.8-31.68a493.7,493.7,0,0,0-4.92,74.64c.36,43.08-.84,85.92-3.72,128.28q.54,2.88,3.24,2.16a38.23,38.23,0,0,0,3.36-13q3.78-41.94,4.8-84.6c10.56-2,21.6-3.72,33-5.16a31.19,31.19,0,0,0,7.92-2c-.24,19.56-1,39-2,58.56a114.36,114.36,0,0,1-2.16,15.84c-2.64,12-2,22.8,1.92,32.52a2.67,2.67,0,0,0,2-2.28,525.39,525.39,0,0,0,7.2-75.36q1.44-65-.36-128.28c-5,7.8-7.44,17.28-7.08,28.44.6,19,.72,37.8.6,56.64l-.24-.36a259.58,259.58,0,0,0-40.56,7.56l.12-29.76c-.12-22.2-1.08-43.56-2.64-64.08Z" transform="translate(-146.59 -193.44)"/></svg>