<svg id="Layer_1" data-name="Layer 1" xmlns="http://www.w3.org/2000/svg" viewBox="0 0 516.6 364.8"><defs><style>.cls-1{fill-rule:evenodd;}</style></defs><path class="cls-1" d="M146.64,288.24A153.5,153.5,0,0,1,156.48,334a100.87,100.87,0,0,1-7,44.16A93.26,93.26,0,0,1,122,416a83.23,83.23,0,0,1-40.8,18.6l-10,1.08q7-79.2,6.84-159a56.55,56.55,0,0,0,33.12-12.36C128.52,263.76,140.28,271.68,146.64,288.24Zm-6.36-104.52a63.53,63.53,0,0,1-11.16,44.4A78.45,78.45,0,0,1,93.84,256.8a61.79,61.79,0,0,1-15.36,4.08Q80.64,195.54,81,130.2c16.2-6.84,30-3.24,41.4,11A80,80,0,0,1,140.28,183.72ZM76.56,128.64,77,130a1051.66,1051.66,0,0,0-6.36,131.88l-8.4.12L61.8,274.2l8.76,2.16a1473.69,1473.69,0,0,1-7.08,156H60.24c-4.08,4.44-4.44,9.72-1.2,15.72l9.48,5.16q32.94-.36,56.52-23c4-3.84,7.68-7.92,11.28-12.12l7.32-9.48A115.83,115.83,0,0,0,161.88,367c.72-3.72,1.32-7.56,1.68-11.4l.6-7.8a119.84,119.84,0,0,0,0-16.08A140.62,140.62,0,0,0,146,270.84a46,46,0,0,0-21-19.56q22.5-25.92,21.6-60.24A115.74,115.74,0,0,0,144,168.72a138.81,138.81,0,0,0-4.92-16.2,66.77,66.77,0,0,0-30-35.76,45.15,45.15,0,0,0-10.44-4.56l-7.68-2-11.4,7.92C76.2,120.12,75.24,123.72,76.56,128.64ZM187,152.52q-3.06,64.08-5.76,128.4t-6.84,128.16a52.5,52.5,0,0,1-3.36,15.6c-2.4,6.24-2.88,11.64-1.44,16.32a9.2,9.2,0,0,0,1.92,6.24l1.8.36,1,1,.48-.6a150.64,150.64,0,0,0,41.64,1.8l12.84.48c15.72,2.76,30.36,1.68,43.8-3.24l.48-.84c2.76-5.88,2.28-11.28-1.32-16.2a4.27,4.27,0,0,0-4.56,3,288.44,288.44,0,0,1-38.28.72l-17.76-.48a232.2,232.2,0,0,0-33.6,2.28A507.51,507.51,0,0,0,185,365c1.32-42.72,3.24-85.44,6-128.16a1042.38,1042.38,0,0,0,.72-128.4A329.79,329.79,0,0,0,187,152.52ZM365,118.2c-10.92,27.72-20.88,56.16-29.88,85.56l-15.24,48.6A97.17,97.17,0,0,0,312,226.08a1248.8,1248.8,0,0,0-58.44-113.52c-3.48,1.32-4.2,4-2.28,7.8q29.16,57.78,53,118.92A175.55,175.55,0,0,0,316.2,264l-20.4,61.92Q285.54,356.7,274,387c-4.32,11.4-4.32,21.84-.12,31.32a111.36,111.36,0,0,0,10.56-25.44q17.1-61.56,38.16-122.4,15.48-45,30.24-90.12A260.34,260.34,0,0,0,365,118.2Zm50.52,39q-.54,64.44-4.8,128.28-4.32,64.08-7.08,128.16a71,71,0,0,1-2.16,16c-2.52,10-1.08,18,4.32,23.88a4.7,4.7,0,0,0,2.76-3.84c2.28-19.2,3.72-38.64,4.44-58.32,1.56-40.2,3.48-80.28,5.76-120.48A112.77,112.77,0,0,0,462,264.6q-2.52,46.62-4.44,93.36A537.66,537.66,0,0,1,451,421.8c-2,12.6-.12,23.52,5.76,32.52a20.48,20.48,0,0,0,5.52-14.16q1.08-63.9,4.44-128.28t7.56-128.16l2.4-32.4a305.46,305.46,0,0,0,.12-48c-2.4,1.56-3.72,4.2-4.08,7.92-3.72,39.24-6.6,78.72-8.88,118.44l-1.2,22.2a10.35,10.35,0,0,0-2.64-2.4,152.91,152.91,0,0,0-40.56,11.4q3.6-63.9,2.16-126.12C417.6,140.88,415.56,148.32,415.56,157.2Zm32.52-67.68L327.6,98.76a14.16,14.16,0,0,0-1,9.72l.72,2.52,3.6,2.28.48.12,56.28-3.6-.48,4.32L382.56,242.4c-1.56,42.84-3.72,85.68-6.48,128.28-1.08,16-2.76,31.8-5.28,47.52-2,12.72-.48,23.28,4.44,31.8a76.71,76.71,0,0,0,5.64-26.76c1.8-42.84,3.6-85.68,5.64-128.28q2.88-64.26,7.8-128.16a253.45,253.45,0,0,0-1.92-57.36l66.24-3.36a12,12,0,0,0,2.52-9.84,16,16,0,0,0-2-5.64,1.09,1.09,0,0,0-.84-.36Zm125.16,42c1.56-14.76-5.16-23-20.16-24.6A50.58,50.58,0,0,0,531,124.2c-17.88,24.36-28.32,52.08-31.56,83-1.92,18.6-3.72,37.2-5.28,55.92a823.32,823.32,0,0,0-1.32,127.56,93.41,93.41,0,0,0,15.36,46.44,13.13,13.13,0,0,0,10.32,6.12q30.06,2,45-25.8c5.16-9.6,4.44-16.56-2.4-20.88-6.48,14.16-17.4,23.4-32.64,27.6-9.84,2.76-16.2-.6-19.2-10a256.46,256.46,0,0,1-11-95.28q1.8-25,2.52-50a253.51,253.51,0,0,0,46.32-4.56l.48-.6c3.72-6.84,3.12-12.24-2-16.44-14.64,3.48-29.4,6.24-44.4,8.4v-.84a285.24,285.24,0,0,1,20.64-102.36c7.44-18.48,20.52-28.92,39.36-31.32a16.24,16.24,0,0,1,6.84,6.48c1.44,2.76,3.12,4.32,5.16,4.68Z" transform="translate(-56.86 -89.52)"/></svg>