<svg id="Layer_1" data-name="Layer 1" xmlns="http://www.w3.org/2000/svg" viewBox="0 0 514.14 441.18"><defs><style>.cls-1{fill-rule:evenodd;}</style></defs><path class="cls-1" d="M109.8,259.2c14.76-2.28,25.44,3.72,32.28,18A213.28,213.28,0,0,1,156,314.76a180.5,180.5,0,0,1,6.48,46.8,178.83,178.83,0,0,1-5.88,46.56,93.6,93.6,0,0,1-22,40.32,104.7,104.7,0,0,1-36.48,25.8,218.35,218.35,0,0,1-34.8,11.4L72.6,269.76a59.34,59.34,0,0,0,36.12-10ZM83.52,91.32q22.5-11,40.68,7.56a94.12,94.12,0,0,1,22.92,37.8,91,91,0,0,1,3.12,45,97.3,97.3,0,0,1-18,41.28A74.75,74.75,0,0,1,95,249.84a83.72,83.72,0,0,1-21.48,4.56l8.16-161ZM80.76,79.2,80.64,79l-.6.12L79.8,80.4a7.1,7.1,0,0,0-1,6.36,578.44,578.44,0,0,0-6.72,69.84q-1.62,49.14-4.32,98.16l-4.2.12-.72,1.68a18.66,18.66,0,0,0-1,7.32,11.69,11.69,0,0,0,1.44,4.8l3.6.6L66.12,285,58.8,413.16c-1.32,21.36-3,42.72-5.16,64a74.38,74.38,0,0,0-.12,15.48l-.36,3.12a11.13,11.13,0,0,0,2.52,7.8l1.68,5.16L59,504.6l5.64-.24,2.16-1.56,2.4-1.68a88.94,88.94,0,0,0,41.16-13.8c5.52-4.92,11.28-9.6,17.16-14q23.76-17.46,31.68-44.64,18.18-62.28,1.44-125.88-8.82-33.48-32.52-56.28l-1.56-.12h-.36c18.6-17.64,28.8-40.32,30.36-68a175.16,175.16,0,0,0-3.12-44.16q-9.72-48.6-55-64.32a91.87,91.87,0,0,0-11.28,4.92A20.31,20.31,0,0,0,80.76,79.2Zm239.88,3.6q-11.16,32-9.84,69.12c.72,21.36.84,42.72.48,64.08l-2.16,129c-.6,43.08-2.64,86.16-6.12,129-1,12.12.72,22.68,4.92,31.68a7.64,7.64,0,0,0,2.64-5.64l4.32-128.28L317.76,276q2-64.44,1.44-129.12Q318.84,113.94,320.64,82.8Zm-69.36,22.44a77.46,77.46,0,0,1,16.2,40.56,112.65,112.65,0,0,1-4.2,44.76,116,116,0,0,1-21.12,40.08,67.23,67.23,0,0,1-34.8,23,1264.53,1264.53,0,0,0,3-167.16C227.28,85.92,241,92.16,251.28,105.24ZM211,75.36l-6,1a2.41,2.41,0,0,0-1,.48,10.11,10.11,0,0,0-.48,3.24l-.12,2.52.12.72.72,2.52,4.08.6q-2.7,45.54-5.16,92.16l-6.84,128.28q-3.42,64.08-8.52,128.28a291.42,291.42,0,0,1-4.32,32.16c-2.28,12.24-1.2,22.92,3.24,31.92a422.43,422.43,0,0,0,10-69.72c2.52-42.6,4.92-85.44,7.08-128.28l1.56-30.36a99.77,99.77,0,0,0,21.84-12.36,155,155,0,0,1,8.28,33.24,477.24,477.24,0,0,0,11.76,56.52,950.75,950.75,0,0,1,25.08,124.08c1.56,11.76,4.8,21.6,10,29.64a4.65,4.65,0,0,0,1.56-3.24,166.42,166.42,0,0,0-2.88-39.24q-12.06-62.82-29.16-124.2a322.34,322.34,0,0,1-8.52-39.84,138.24,138.24,0,0,0-11.88-40.2,108.32,108.32,0,0,0,25.08-30.48q27.9-49.14,13.2-105.12-11.7-44.1-58.68-44.4ZM391.44,271.68a30.61,30.61,0,0,1,8.4,5.76c19.08,18.6,30,41.64,32.52,69.36l2.52,26.76q6.3,69.12-45,112.08A73,73,0,0,1,354,487.08a162.05,162.05,0,0,0,1.68-17.28c1.68-42.84,3.84-85.56,6.36-128.4q2-31.86,3.24-63.72a30.09,30.09,0,0,0,25.92-6Zm29-115.32Q436.32,216.3,392,257.88a81.93,81.93,0,0,1-26.16,5.64c.6-16.68,1.08-33.48,1.44-50.28.84-40.2.36-80.4-1.2-120.6a81.26,81.26,0,0,1,36.48,16.68A250,250,0,0,1,420.48,156.36Zm-57.36-64.2q-1.8,38.7-1.8,78.84c.12,42.84-1,85.56-3,128.28s-4.8,85.68-8,128.28c-1.2,16.2-2.88,32.4-5,48.48-1.68,12.12-.36,22.8,3.84,31.8l1.8-6,.6.84c9.72,4.92,19.56,6,29.64,3.24a29.7,29.7,0,0,0,6.6-2.88c28-17.64,44.4-42.84,49.32-75.84q9.54-65.34-8-127.08c-5-17.52-15.12-29.4-30.12-35.76Q443,218.64,427,153.72q-1.8-7.74-3.24-15.48-9.54-50.76-58.44-57.6a2.41,2.41,0,0,0-2,.48,6.91,6.91,0,0,0-2.4,6A10.49,10.49,0,0,0,362.52,92ZM537,105.48c-1.32-14.76-9-22.8-22.92-24v.12a71.34,71.34,0,0,0-22,11.52A172.72,172.72,0,0,0,463.32,163a602.19,602.19,0,0,0-9.48,95.76q-1.44,64.26-2.64,129a589.23,589.23,0,0,0,4.08,78.72c1.8,14.52,8.16,26.16,19.2,35q23.76,19.26,44.76-.36A227.42,227.42,0,0,1,563.4,468.6a16.25,16.25,0,0,0,3.84-9.6,13.3,13.3,0,0,0-4.44-11.52,142.71,142.71,0,0,0-37.32,29.64c-9,9.72-19.56,15.24-31.68,16.44-19.92-5.76-30.48-19.08-31.68-39.84q-2.7-47.7-2.52-96.48.18-42.12.72-84A86.85,86.85,0,0,0,507,271.92l.36-.72c2.76-6.36,2.28-12.36-1.44-17.88a169.56,169.56,0,0,1-45.36,7.8l.36-32.16a291.35,291.35,0,0,1,20.4-103c7.8-20,22.32-29.52,43.32-28.56a23.49,23.49,0,0,1,5.88,8.88,27.69,27.69,0,0,0,4.44,8.16A15.6,15.6,0,0,0,537,105.48Z" transform="translate(-53.15 -69.84)"/></svg>