<svg id="Layer_1" data-name="Layer 1" xmlns="http://www.w3.org/2000/svg" viewBox="0 0 398.13 382.36"><defs><style>.cls-1{fill-rule:evenodd;}</style></defs><path class="cls-1" d="M161.88,260.16Q190.14,289.32,191.4,332c.84,28-4.68,54-16.8,78.36a28.82,28.82,0,0,1-8.76,10.8q-28.26,22.5-64.68,23.52l3.6-104,2.16-75.12c14.52-.36,27.24-4.32,38.16-12.12a27.1,27.1,0,0,0,10.2,3.48A10.51,10.51,0,0,1,161.88,260.16ZM149.52,106.92a75,75,0,0,1,23.16,37.68,95.06,95.06,0,0,1,.48,46.44,82.61,82.61,0,0,1-21.84,39.36A64.68,64.68,0,0,1,110,250.2l-2.76.24.6-153C122.64,92.16,136.56,95.28,149.52,106.92Zm85.8,25.92c-.6,42.84-.6,85.68,0,128.28A1210.31,1210.31,0,0,1,230.16,390a261,261,0,0,0,1.68,64.32c3.48-1.56,5.16-4.56,5.28-9Q238.56,381.06,241,317q1.8-48.42,2.28-96.48.54-64.8-2.4-128.28A151.33,151.33,0,0,0,235.32,132.84ZM181.2,162.36a116.28,116.28,0,0,0-11-44,60.86,60.86,0,0,0-33-31.2,87.84,87.84,0,0,0-23.52-5.88L107.4,83.4,107,84.72l-2.64,2.4-1,15.24c-2.52,35.64-3.36,71.52-2.4,107.4.36,13.68.48,27.36.12,41-1.8.6-2.64,2.16-2.64,4.92l.12,4.08a15.71,15.71,0,0,0,.72,3.24l.84,1.56.48.48L95.52,415.32c-.36,13.92-1.32,27.6-2.64,41a6.12,6.12,0,0,0,3.48,6.36,191.49,191.49,0,0,0,28.2-1.8q27.54-3.6,42.84-24.48a162.18,162.18,0,0,0,31.8-84c3.48-38.64-6.6-71.52-30-98.52A30.53,30.53,0,0,0,155,244.8,89.05,89.05,0,0,0,169.68,224a86.68,86.68,0,0,0,7.68-21.72A144,144,0,0,0,181.2,162.36ZM299.52,92.88A738.43,738.43,0,0,0,291,197.52c-.6,43.08-2,86.16-4.56,129s-4.32,85.68-5.28,128.28a3.57,3.57,0,0,0,3.48,1.92l.72-.6.84,1.2a36.4,36.4,0,0,0,9.72,2.76,414.27,414.27,0,0,0,88.8,2,18.46,18.46,0,0,0,1.92-5.64v-3.24l-.36-2.4a8,8,0,0,0-3.72-5.76c-9.48-.12-19.08.12-28.56.48a464.28,464.28,0,0,1-67.2-2h-.12q4.14-46.26,6.84-92.76c2.64-42.84,4.08-85.8,4.2-129.12,0-21.6.84-43.2,2.64-64.8a383.7,383.7,0,0,0,0-64.32C299.76,92.64,299.52,92.76,299.52,92.88Zm189.6,36.36q-8.46-27-42.12-24.84-33.3,10.62-46.92,45a320,320,0,0,0-22.2,102.48A895.6,895.6,0,0,0,380.52,380q3.06,35.82,25.8,62.28,23.22,27.18,55,5.88c5.4-3.48,10.56-7.32,15.6-11.28,13.2-10.56,17.16-22.68,11.76-36.24a7.51,7.51,0,0,0-5.28,4.08q-14.22,25.56-41.52,33.72c-7.8,2.28-14.76,1.08-20.64-3.84q-36.9-30.6-37.44-80.4-.54-45.18,2-90a474.92,474.92,0,0,1,53.88-.12,16.85,16.85,0,0,0,1.56-4.08,16.55,16.55,0,0,0-1.08-9.6l-1.08-1.8-1.32-.48a103.82,103.82,0,0,0-21.12-1.68l-30,3.72L388.56,226A176.65,176.65,0,0,1,420,138.6c9.24-13.32,22-18.6,38-15.6,11.28,2,21.6,4.32,30.84,6.84Z" transform="translate(-92.85 -81.24)"/></svg>