<svg id="Layer_1" data-name="Layer 1" xmlns="http://www.w3.org/2000/svg" viewBox="0 0 312.31 212.4"><defs><style>.cls-1{fill-rule:evenodd;}</style></defs><path class="cls-1" d="M308.4,327.6q.36-65.16-3.72-129c-4,12.72-5.64,26.88-4.92,42.6a1072.7,1072.7,0,0,1-2.28,128.88c-1,12.6.84,23,5.28,31.44A512.41,512.41,0,0,0,308.4,327.6ZM197.64,265.68c-9.84,11.88-21.72,17.16-35.76,15.84q-.18-38.34-1.68-75.72a28,28,0,0,1,20.4,3.36q16.92,9.9,22.68,30.24C206,249,204.12,257.76,197.64,265.68Zm-35.88,56,.12-24.6c10.68,1.44,19.8-.24,27.24-5.16a15,15,0,0,1,5.28,2.28c21.24,14.28,29.28,33.84,23.88,58.68a35.6,35.6,0,0,1-6.12,13.56q-20.88,28.62-55.2,15A424.15,424.15,0,0,0,161.76,321.72ZM159.6,193.44c-6.6,28.2-7.8,57.24-3.84,87.12l-2.88-.72c-2.88,6.36-2,11.76,2.4,16.2a389.77,389.77,0,0,1-5.76,83.4l-1.8.48c-3.12,5.52-3.24,11.16-.24,17l6,4.32c19.68,5.88,38.4,2.4,56.16-10.68A27.88,27.88,0,0,0,219,379.44a85.64,85.64,0,0,0,7.8-47.88,82.19,82.19,0,0,0-2.88-13.32,78.1,78.1,0,0,0-24.36-36.6c11.88-18.6,13.8-38.4,5.76-59.16a51.85,51.85,0,0,0-9.84-16.08,48.5,48.5,0,0,0-25.56-14.76Zm225.12,1.44-1,1.2-1.2.12a11.3,11.3,0,0,0-1,3.84,20.86,20.86,0,0,0-1.32,9.36q3.06,64.44.72,128.28a178.54,178.54,0,0,1-4,32.16c-2.52,12.12-1.44,22.8,3.36,31.92a3.32,3.32,0,0,0,1.56-2.4,696.19,696.19,0,0,0,6.6-76.32c.36-11.64.6-23.16.6-34.68,13.56-.36,27-.48,40.2-.48a11.87,11.87,0,0,0,2.64-9,9,9,0,0,0-2.88-6.36l-1.68-.24-10.8-.84A75.84,75.84,0,0,0,388.92,274c-.36-22.2-1.32-44.16-3-66.12a350.18,350.18,0,0,0,70,.84,13,13,0,0,0,.72-11.52A7.39,7.39,0,0,0,454,194l-12.36-.24L384.84,196Z" transform="translate(-145.3 -191.64)"/></svg>