<svg id="Layer_1" data-name="Layer 1" xmlns="http://www.w3.org/2000/svg" xmlns:xlink="http://www.w3.org/1999/xlink" viewBox="0 0 575.41 593.04"><defs><style>.cls-1{fill:none;}.cls-2{clip-path:url(#clip-path);}.cls-3{fill-rule:evenodd;}</style><clipPath id="clip-path" transform="translate(-7.56 3.48)"><rect class="cls-1" x="7.56" width="576.48" height="589.68"/></clipPath></defs><g class="cls-2"><path class="cls-3" d="M345.72,486c5.88,7,6.12,15.12.6,24.36a107.06,107.06,0,0,1-22,8.64c1.32-12.6,2.28-25.2,2.64-37.92,5.52,1.32,11.28,2.4,17.16,3.24ZM326,480.84a558.86,558.86,0,0,0-12.6,79.68c-.36,3.48-1.56,6-3.6,7.44a6.68,6.68,0,0,0-.72,4.92,3.57,3.57,0,0,1-.12,1.56l-.36,1.68a10.7,10.7,0,0,0,1.56,7.44l1.08,1.32h.48L323,530l13.32-2,14,58.32,2.4-.12a132,132,0,0,0-13.32-58.08,48,48,0,0,0,14.16-20.28q6.3-16.38-5.76-28.44c-6.48-6.36-13.8-7.44-22.08-3.48ZM75.72,220.68a38.85,38.85,0,0,1,8.4,7.44,137,137,0,0,1,28.68,58.8,855.94,855.94,0,0,1,18.84,128.4q4.5,65-21.84,123.24a21.74,21.74,0,0,1-9,9.84Q64.08,568.92,22,560l-.12-.48C23.52,548,24.6,536.4,25.2,524.64q3.24-63.72,5-128.28l3.72-129,1.08-43c13.2-.84,24.72-4,34.44-9.36A22.26,22.26,0,0,0,75.72,220.68ZM108.36,97.92A202.91,202.91,0,0,1,97,160.8c-10.32,29.4-31,45.48-61.8,48,.12-23.4,0-46.92-.48-70.56A814.06,814.06,0,0,1,41.52,12.12l16.92-4,.6.24A59,59,0,0,1,81.72,18.72a73.49,73.49,0,0,1,14.4,20.52A128.28,128.28,0,0,1,108.36,97.92Zm80.88-66.24A422.77,422.77,0,0,0,160.2,156c-3.48,42.6-5.16,85.32-5.16,128.4l-.48,129a1111.18,1111.18,0,0,0,6.6,128.4c2.52,23.88,15.72,36.36,39.36,37.44a55.77,55.77,0,0,0,18.48-2,68.18,68.18,0,0,0,40.56-31.44,281.12,281.12,0,0,0,39.6-120.6c4-42.6,6.24-85.44,7-128.28q.9-65-1.08-129.12a504.57,504.57,0,0,0-19.8-125.64C276.72,12.48,256.32-1.56,224-.24a42.79,42.79,0,0,0-23.76,14A64.34,64.34,0,0,0,189.24,31.68ZM256.8,22.2c12.24,7.56,20.28,18.6,24,33.24a593.25,593.25,0,0,1,18,126.84c1.56,43.08,1.8,86.16,1,129.24-.36,21.48-1.32,43-2.64,64.2A441,441,0,0,1,281.4,470.4a261,261,0,0,1-25.56,61.08q-22.68,39.24-68.64,29a12.46,12.46,0,0,1-9.36-7.8,221,221,0,0,1-16.2-80.52c-.84-42.84-1.44-85.8-1.92-129.12q-.54-64.26,3.24-128.28,4-64.08,14-126.84,6.66-41,36.24-68.76l2-.72a25.25,25.25,0,0,1,8.4-2.52l.6-.12,13.2.48A40.06,40.06,0,0,1,256.8,22.2ZM376.08,331.56Q364.56,385,356.16,439.92l-.36,2.28A759.33,759.33,0,0,0,332,341.4l.48-8L331,338l-.6-1.92-.6.12.6,3.48a201.58,201.58,0,0,0-8.64,44.64,444.37,444.37,0,0,1-8,53.4c-2.52,11.88-2.28,22.2.72,31.08a27.9,27.9,0,0,0,3.36-9.48q9.72-56.16,13.8-112,5.94,35.28,14.16,70.68A115.59,115.59,0,0,1,349,446.76a37.53,37.53,0,0,0,3.84,18,17.23,17.23,0,0,0,3.84,7.68l1-5a11.77,11.77,0,0,0,1.08-5.76c4.2-22.2,7.92-44.64,11.4-67.08q4.86-32.58,6.84-63.36C376.44,331.08,376.2,331.2,376.08,331.56Zm50.28-166.2c-7.2,5-11.4,12.12-12.72,21.24-6.12,42.36-10.32,85-12.36,128q-3.06,64.26-8.16,128.28c-3,38.28-4.56,76.8-4.68,115.32q-.18,26.64,24.48,30.24l6.36-4.56C436,572.28,441.6,557.76,436.2,540.6l-1.32.84-2.64,2-.36.6a29.16,29.16,0,0,1-2,7.2c-5.28,13.92-14.52,19.8-27.72,17.76A22.14,22.14,0,0,1,395.76,556a168.75,168.75,0,0,1-1.2-37.32q4.86-64.08,8.64-128.28L404.52,369a35.72,35.72,0,0,0,28.92,1,15.56,15.56,0,0,0,1.44-6.6l-.36-3.24a6.52,6.52,0,0,0-2.16-4l-1,.12a44.85,44.85,0,0,1-26,.6q2.88-47.34,6.36-94.56a232.9,232.9,0,0,0,.24-31.68c-1.08-19.8,4-37,15.24-51.24a7.81,7.81,0,0,1,7.44,2l11.76,12.84c2.28-1.56,3.12-4.08,2.4-7.44a33.88,33.88,0,0,0-12.12-20.16l-2.4-.48Zm-66.6,16.44q-6.84,63.18-13,126.36c-1.92-11.76-3.72-23.52-5.52-35.4-1.2-8.76-4-15.12-8.28-19.2a572,572,0,0,1-11.28,60.12c-2-38.28-2.64-76.8-1.8-115.32q.36-18.18-6.84-30.6a19.91,19.91,0,0,0-2,9.84q3.24,63.72,4,127.32c.12,11.76,2.16,22.08,5.88,30.84a227,227,0,0,0,13.8-55.2A457.64,457.64,0,0,0,348,335c4.44-26.76,7.8-53.88,10.32-81.24.84-9.12,1.92-18.24,3.36-27.36a299,299,0,0,0,3.6-63.48C362.4,168.12,360.6,174.36,359.76,181.8Zm19.68-90.12q0,18.9-1.08,38.16c-2.52,42.6-4.2,85.2-5,127.56l28.44-2.52.36-.84a10.47,10.47,0,0,0-.36-8.88l-24-1.32V240.6q5-63.9,8.16-128.16c.6-12-.6-22.68-3.84-32A22.1,22.1,0,0,0,379.44,91.68Zm168.84,76.8c6.36,42.12,11.64,84.48,16.08,127.08a747,747,0,0,1,2.4,125.88,480.39,480.39,0,0,1-7.8,61.44c-3.48,18.36-11,34.08-22.68,47.4a18.39,18.39,0,0,1-6.12,7.08l-26.52,18.12c-13.8,9.12-28.2,13-43.2,11.4a294.88,294.88,0,0,0,3.72-44.16c.6-43,.84-85.92,1-129s-.12-86-.48-129.12-1.32-86.16-2.64-129c-1.32-43.32-2.16-86.16-2.52-128.28-4.92,9.48-7.2,20.4-7,33,.84,43.08,2,86,3.36,129s2,85.92,1.68,129.12q-.36,64.44.48,129c.6,43-.84,85.56-4.08,127.8v-.6a58.08,58.08,0,0,0-.48-13,14.64,14.64,0,0,0-.84,5.64,88.34,88.34,0,0,1-1.08,16.08c-1.08,7.08-.36,13.08,2.16,18.12a2,2,0,0,0-.84,2.4,4.23,4.23,0,0,1-.6,3.6,2.05,2.05,0,0,0-.12,2,2.63,2.63,0,0,0,1.68-1.2,2.94,2.94,0,0,0,.12-2.28,2.94,2.94,0,0,1,.6-2.4l.84.48,1.32,1.68L457,585c7.92,4.08,16.08,4.2,24.6.36,7.8-3.6,15.48-7.08,23-10.56q39.06-17.82,51.6-56.4a391.45,391.45,0,0,0,19.2-125.52q-.72-64.62-6.6-128.28a1207.15,1207.15,0,0,0-18.48-126.48A439.07,439.07,0,0,0,532.8,76.2q-18.54-50.76-67.92-71l-2.64.24-.84.36-.84.72-.36,1.68a14.67,14.67,0,0,0-.24,4,11.51,11.51,0,0,0,.84,3.36q34.74,12.42,55.56,44.64a167.27,167.27,0,0,1,23.76,60C543.12,136.2,545.88,152.28,548.28,168.48Zm33.24-143a19.57,19.57,0,0,0-1.8-13.8,19.86,19.86,0,0,0-11.4-10L566,.84A42.43,42.43,0,0,0,545.88,27.6q-6.3,24.66,2.16,47.52a17.92,17.92,0,0,0,13.68,12A37.27,37.27,0,0,0,580.8,72.6c3.12-4.68,2.88-9.24-.72-13.92l-3.48,6-3.84,1.92-1,2.4c-4.32,4.32-9.24,5.16-14.88,2.64-8.28-4-11.52-11-9.6-21.48a48.7,48.7,0,0,0,19.08-.6l6.36-1.44V38.4l-23.64-.24a47.39,47.39,0,0,1,18-25.68l6.48,3.24ZM56.52-3.12A80.92,80.92,0,0,0,43.8.6L42.72,1.8,39.84,4.68,38.4,2.76C32.76,19,30,36.84,30.24,56.28c.6,42.84.36,85.68-.6,128.28L29,210.84a16.9,16.9,0,0,0-1.32,6.48,10.49,10.49,0,0,0,1,4.44L26,313.68q-2.16,64.44-4.68,129c-1.68,42.6-4.44,85.08-8.16,127.2l-.24-.36C11,566,9.24,562.56,7.56,559a48.05,48.05,0,0,0,9.72,22.2,2.14,2.14,0,0,0,1.08-1.44l.24-.72a122.08,122.08,0,0,0,24.72,2,204.25,204.25,0,0,0,40.08-4.68c11.76-2.64,20.64-9.12,26.52-19.56q29.88-53.46,28.68-116c-.36-21.6-1.44-43-3.24-64.2a613.75,613.75,0,0,0-24-124.68q-8.28-27.54-31-41l-.36-.36-1.56-1.32h-.24c11.64-9.24,20-22.44,25.32-39.72a317,317,0,0,0,11.52-58.08Q121.2,49.62,82.8,6a9,9,0,0,1-2.16-1A53.58,53.58,0,0,0,57.36-3.48Z" transform="translate(-7.56 3.48)"/></g></svg>