<svg id="Layer_1" data-name="Layer 1" xmlns="http://www.w3.org/2000/svg" viewBox="0 0 296.75 209.58"><defs><style>.cls-1{fill-rule:evenodd;}</style></defs><path class="cls-1" d="M185.76,268.56a35.33,35.33,0,0,1-25.92,4.2l.12-67.2c16.92,2,29,10.32,36.48,24.72C204.72,246.72,201.24,259.44,185.76,268.56ZM288,275.28l6.84-15.48a118.45,118.45,0,0,0,1.2,14.64Zm7.32-24.6-.24.12C285,260.76,277,273,271,287.64a48,48,0,0,0-3.12,25.92l14.4-26,16.68-.6,13.32,27.72q-.72-28.08-14.4-55.08a7.12,7.12,0,0,0-.6-7.08l-1.44-1.68ZM336,241.2A158.23,158.23,0,0,1,346,276a116,116,0,0,1-5.76,60.72q-17.82,46.62-71.76,45.36a17.27,17.27,0,0,0-5-2.76,17.23,17.23,0,0,1-9.36-8q-19.8-37.8-12.48-82.2l5.28-31q7.38-41,46.44-51.36c10.32-1.44,19.2,1.2,26.76,8A94.44,94.44,0,0,1,336,241.2ZM158,322.08l1.32-33.36a53.82,53.82,0,0,0,19.56-1.44,32.82,32.82,0,0,0,7.92-3,29.88,29.88,0,0,1,14.88,10q17.1,20.52,14.4,47.88C213.84,367,199.8,379.8,174.24,380.4a92.92,92.92,0,0,0-20.4-5.76C155.88,357.24,157.2,339.72,158,322.08Zm30.6-120.84a44.74,44.74,0,0,0-28.44-8.52,4.24,4.24,0,0,0-1.8,2c-2,1.92-3.12,4.68-3.24,8.16-1.08,42.84-3,85.68-5.64,128.28-.72,10.68-1.8,21.48-3.24,32.16a63.6,63.6,0,0,0-.36,15,18,18,0,0,0-.48,2.88,14.5,14.5,0,0,0,2.52,8.88l1.2.6a36.25,36.25,0,0,0,2.16,4.32l.36-3.12a55.37,55.37,0,0,0,44.76.6,21.69,21.69,0,0,0,10.8-9.36c12.36-21,16.92-44.28,13.44-69.6-2.4-17.52-10.44-30-24.12-37.56a37.37,37.37,0,0,0,3.6-6.12c11.76-24.6,8.76-47.16-9.12-67.44A14.93,14.93,0,0,1,188.64,201.24Zm162.72,56.28c-3.36-10.68-6.48-21.24-9.48-31.8-3.36-12.24-10.32-19.56-20.76-22l-.6-.72c-7.44-7.8-16.56-11.52-27.24-10.92a62.77,62.77,0,0,0-18.84,6.48,21,21,0,0,0-7.92,6.48c-19.56,25.32-30.12,54.36-31.8,87.36-.84,15.48-1.44,30.84-1.8,46.32q-1.08,42.66,34.92,61.92,32.76,1.26,58.2-20.16a48.71,48.71,0,0,0,7.2-7.8q25.92-37.44,23.52-84.84A116.81,116.81,0,0,0,351.36,257.52Zm57.12,35.16c16.92,4,26.16,15.72,28,35.16q2.34,26.64-17.64,42.84-21.42,17.46-50.64,10,4.32-41,6.12-82.44A54.78,54.78,0,0,0,408.48,292.68Zm8-23c-11.88,10.44-25.8,14.88-41.76,13.08A507.59,507.59,0,0,0,376.44,210c19.08-2.4,34.2,3.84,45.48,18.6Q437.22,251.46,416.52,269.64Zm-41.64-68.52-1.2-4.92a321.06,321.06,0,0,0-4.56,49.8c-.84,43-3.72,85.68-8.4,128-1.08,9.84.6,17.64,4.8,23.4l.24-.12,1.44,1.2c23.16,6.84,42.36,2.4,57.84-13.2a46.72,46.72,0,0,0,11.28-17.88q15.3-43.74-9.36-80.64l-2-1-4.32-2a38.15,38.15,0,0,0,5.52-8c15.48-29.52,9.72-54.48-17.52-74.76l-2.28-.6a47.64,47.64,0,0,0-13.44-3.72,23.26,23.26,0,0,0-17.88,3.6l-.12.72Z" transform="translate(-145.43 -192.06)"/></svg>