<svg id="Layer_1" data-name="Layer 1" xmlns="http://www.w3.org/2000/svg" viewBox="0 0 543.52 552.58"><defs><style>.cls-1{fill-rule:evenodd;}</style></defs><path class="cls-1" d="M373.2,501.48a153.36,153.36,0,0,0,1.8,21l-9.24,1.8A84.42,84.42,0,0,0,373.2,501.48Zm76.92-69.24-.48-3.12a314.71,314.71,0,0,0-41.88,72.24,320.43,320.43,0,0,0,.84-72.72c-6.84,21.6-10,45.48-9.12,71.76a198.21,198.21,0,0,1-2.4,36.6,118.05,118.05,0,0,0-1.44,20.52,54.34,54.34,0,0,0,4.2,18.84,176.7,176.7,0,0,0,7.08-51.24,24.59,24.59,0,0,0,9.72-12.48l3.6-9.84a215.17,215.17,0,0,0,22.68,64.92,11,11,0,0,0,2.28,3c-.84-21.48-6.6-44.52-17.4-68.88l-3.72-8.76,19.68-37.92A35,35,0,0,0,450.12,432.24Zm-113,134.64,21.24-29.28,19.2-1.92C380.4,549.6,385.2,561,392,569.76l-18.12-83.28-26.64,44.28a43.51,43.51,0,0,0-10.68,31.56ZM166,331.44a526.84,526.84,0,0,1-8.4,88.32,215.64,215.64,0,0,0-2.28,64.32A292.86,292.86,0,0,0,209.64,486c3.48-5.28,3.48-10.44-.24-15.48A217.66,217.66,0,0,1,160.2,467c1.08-4.2,2-8.52,2.76-12.72a578.2,578.2,0,0,0,6.36-127.68C167.16,327,166.08,328.68,166,331.44ZM86.4,215.52a82,82,0,0,1,32.28,39A307.44,307.44,0,0,1,142,379.92,289.16,289.16,0,0,1,111.6,503.16a58.12,58.12,0,0,1-10,14.4c-14.52,15.24-33,22.92-55.32,23.28l-2.76-.12.48-4.56,1.56-1.92,6.6-7.44a21,21,0,0,0-5,3.72L44.4,533q4.14-34.56,5-69.84,1.8-63.9,1.68-128.16-.18-52.2,1.08-104a24.67,24.67,0,0,0,11.88-1.44A65.08,65.08,0,0,0,81,220ZM64.32,43.08q46.26,16.2,50.76,66.24a133.62,133.62,0,0,1-9,63q-14.58,37.08-53.4,40.2l.12-6.6L55.92,76.8a199.82,199.82,0,0,0-2.4-37.44Zm34.8,4.68C86.64,34.44,71,27.36,52.44,26.76l-.48.12-2.4,1a6.53,6.53,0,0,0-.84,3.24v4.08l.48,2.4.12.12A405,405,0,0,0,46.68,90.6c.6,41.64.24,83.28-.84,124.68l-.24.6a25.19,25.19,0,0,0,0,9.48c-.12,8.64-.12,17.28.12,25.92,1.32,42.84,1.2,85.56-.48,128.4s-3.84,85.92-6.12,129a201.5,201.5,0,0,1-2.88,24,58.67,58.67,0,0,0-.84,18.72,16.11,16.11,0,0,0,1.68,9h.12l1.8,4.8a2,2,0,0,0,1.2-1.44l.6-3.6c8.64-.48,17.64-1.32,26.88-2.64,16.8-2.4,29.4-10.44,37.92-24A288.82,288.82,0,0,0,147.72,415a326.18,326.18,0,0,0-9-127.44q-4.32-16-9.72-32C122.16,235,110.64,219.12,94.2,208c15.72-17.16,25.08-38.28,27.84-63.36q5.94-52.74-22-95.88ZM371.88,329.28a682.35,682.35,0,0,1-16.44,127q-11.7,51.3-53,82a31.45,31.45,0,0,1-11.4,5.52q-37.44,10.08-42.12-27.6-7-55.08-8.76-111.24-2-64.26,0-129.12c1.32-43.08,4.8-85.68,10.32-128,1.08-8.28,1.92-16.56,2.64-24.84q4.14-44.64,37.8-71.16a15.2,15.2,0,0,1,13.8,2.4l1.92,2.76a129.4,129.4,0,0,1,17,24.72A377.61,377.61,0,0,1,364,201,653.15,653.15,0,0,1,371.88,329.28Zm47.4-39.72,11.28-99.72,16.68,96.48Zm86.16,138.72a6.87,6.87,0,0,0-2.88,3.84,149.78,149.78,0,0,0-3.12,82.56,5,5,0,0,0,5.4,1.08l2.76-2.52c7.2-8.76,8.16-17.16,2.76-25.08a2.92,2.92,0,0,0-1.08,1.68,22.18,22.18,0,0,1-6.6,11.52l-.6-6.24a111.48,111.48,0,0,1-1.2-21.72,58.27,58.27,0,0,0,17-1.56l.6-.6a13.52,13.52,0,0,0-.6-14.52,97.43,97.43,0,0,0-15.72,2.4,97.25,97.25,0,0,1,4.32-16.68,3.42,3.42,0,0,1,1,1.68c.84,2.52,2.4,3.6,4.44,3.12l.84-2.52c1.44-6.36-.12-11.64-4.68-16.08ZM466.92,149.4c-17.4,1.8-21.84,11.88-13.32,30a256.23,256.23,0,0,1,15.12,42.24l1.56,6.24a9.7,9.7,0,0,1-4.56,5.16,5.52,5.52,0,0,1-5.76-.36,23.18,23.18,0,0,0-5.16-13.32,5.38,5.38,0,0,0-1.56-1.2c-4,6.48-4.2,14-.84,22.8a18.89,18.89,0,0,0,6.48,8.52c13.08-3.12,18.84-11.88,17.28-26.16a95.88,95.88,0,0,0-9.36-31.08A161.26,161.26,0,0,0,454,170.76c1.68-6.12,5.76-8.52,12.24-7.44l2.64,2.4,3.36,8.4c4.56-6.6,4.44-13.44-.48-20.76A9.8,9.8,0,0,0,466.92,149.4Zm-106.44-8.52Q349.14,81.48,309,40.56l-.36.72q-2.34,2-4.32-1.44L303.6,39l-2.52-.48-10-1A30.23,30.23,0,0,0,279,46.08q-25.38,29.34-29.4,68.76c-.6,6.24-1.44,12.36-2.4,18.24a917.29,917.29,0,0,0-12.84,127.2q-2,64.62-1.08,129.12a1070.61,1070.61,0,0,0,9.48,127.32,105.16,105.16,0,0,0,9.12,31.08c8.28,17.88,22.56,22,42.6,12.24a87.6,87.6,0,0,0,27-20.52,184.89,184.89,0,0,0,43.32-87,711,711,0,0,0,14-127.8,734.33,734.33,0,0,0-8.64-128.16C367.32,178,364.08,159.48,360.48,140.88Zm73,8.52q-1.62-.18-1.8,1.08a888.55,888.55,0,0,0-16.56,110.28,1075.56,1075.56,0,0,1-18.72,127c-1.32,6.6-3.12,10.8-5.4,12.48h-.36a28.45,28.45,0,0,0,2.76,15.36,328.42,328.42,0,0,0,21-84.24l3.72-31.08a197.57,197.57,0,0,0,31.56.12c5.64,32.76,10.56,65.76,14.88,98.76l-.12.72c-.36.6-1.08.36-2-.72.12,1.32,1.2,3.12,3.24,5.64-.36,5.88,1,10.68,4.08,14.4a2.06,2.06,0,0,0,1-1.44,322.53,322.53,0,0,0-7-77.16c-3.12-14.76-6.12-29.64-8.88-44.4a11.26,11.26,0,0,0-1.8-9.48l-1.8-9.6c-7.08-39.24-12.84-78.6-17-118Q434,154.08,433.44,149.4Zm-59-95c-.84,31.92-.84,63.84-.24,95.88A236.06,236.06,0,0,1,425.64,144a13.36,13.36,0,0,0,0-13.08,171.79,171.79,0,0,0-47.4,3.24l.12-.72A390.05,390.05,0,0,0,378,44.88C375.72,47.16,374.52,50.28,374.4,54.36ZM528.12,37.92a911.28,911.28,0,0,0-106.56,13.8l-.12,10.92q34.2-1.08,70.2-4.68-4.14,146.7-6.72,293.88-.9,48.24-1.44,96.6-.54,53.1-4.2,106.08a37.7,37.7,0,0,0,3.6,19.08l1.68,3.24a1489.71,1489.71,0,0,0,8.52-176.64q-.54-48.42,1-96.84,2.88-93.78,1.56-187.68l-1.08-58L529.8,55c3.72-5.28,3.72-10.32,0-15.24Zm13.32,6.72a106.17,106.17,0,0,0-6.12,35.76,831.92,831.92,0,0,0,10.32,128.28A1252.76,1252.76,0,0,1,559,336.12q3.24,63.9,9.84,127.32a240.61,240.61,0,0,1-6.6,86l-1.08,1.8a23.17,23.17,0,0,1-6.6,7.08l-1.44,1q-29.16,5.94-46.08-14.64l-1.08-.72-1.56-.24-.6.12c-3.6,4.92-4.2,10.44-1.8,16.68a13.15,13.15,0,0,0,3.48,5,12.08,12.08,0,0,0,1,4.68,22.85,22.85,0,0,0,2.52,4.32l.24-.36a6.13,6.13,0,0,0-.48-3.24l-.48-1.68-.12-.84c14.16,9.48,29.88,12.84,47.16,9.84a17.76,17.76,0,0,0,5.64-6.36q19.08-35.1,17.52-76.56-1.8-48.24-5.88-95.88c-3.72-42.36-7.68-84.84-12-127.2-4.32-42.6-9.6-85.2-15.84-127.56a295.34,295.34,0,0,1,0-86l14.64-.48a4.8,4.8,0,0,1,3.48,1.32A93.43,93.43,0,0,1,575.52,74.4l.36-.84Q580.56,41,545.52,42.24l-.6.24-2.64,1.44Z" transform="translate(-35 -26.76)"/></svg>