<svg id="Layer_1" data-name="Layer 1" xmlns="http://www.w3.org/2000/svg" viewBox="0 0 438.82 313.92"><defs><style>.cls-1{fill-rule:evenodd;}</style></defs><path class="cls-1" d="M99.72,242a34.74,34.74,0,0,1,23.52,16.2,144.51,144.51,0,0,1,21.48,62.88c2.4,23.16-5.76,43.2-24.48,59.88-13.08,11.64-28.32,16.8-45.6,15.36l2.76-2.76-2.28-.84a56,56,0,0,1-9.84,2.4,297.55,297.55,0,0,0,4.2-49.08c.12-31.08.72-62.28,1.92-93.36a42.24,42.24,0,0,0,20.88-5.88ZM73.56,107.64a11.69,11.69,0,0,0-1.44,4.92,16.29,16.29,0,0,0,.36,3.48,84.57,84.57,0,0,0-2.76,17.64q-3.06,51.12-4.44,102.48l-4.08.12a6.46,6.46,0,0,0-1.2,2.4,24.11,24.11,0,0,0-.12,9.72,4.74,4.74,0,0,0,2.4,3.24l2.64.48-.24,10.68q-1.26,63.54-6,126.6l-.12.36-1-2.88c-3,11.16-2,21.36,3,30.6l1-3.72c19.2,3.72,38,1.44,56.64-6.6a29.69,29.69,0,0,1,4.32-5.88q49-52,23.88-118.44L140.88,267Q132.6,241.62,111,232.44q20.34-21.06,20.4-54.6a115.6,115.6,0,0,0-5-33.84c-6.84-22.32-21.6-34.68-44-37.08l-5.64.24-.36-.6c-.6.12-.84.24-1,.6l-.12.12-.6.12ZM80,118.8c12.6.6,22.8,6.24,30.6,17,11.52,16.2,15.36,33.6,11.52,52q-8.82,42.84-50,47.88,2.34-56.52,5.76-112.8A6,6,0,0,0,80,119.64Zm163.44,11c6.36,1.44,12.48,5.76,18.36,12.84,15.84,19.08,24.36,41.16,25.68,66.48a545.49,545.49,0,0,1-.6,64.2,185.7,185.7,0,0,1-24.84,81.12c-14.52,25-36.12,34.56-65,28.92-8.76-1.68-14.64-6.48-17.88-14.52a250.19,250.19,0,0,1-18-106.56,342.35,342.35,0,0,1,18.24-96.48l.6-.84c12.36-21.36,30.72-34.56,54.84-39.72l6.6,1-.12.36.36,2.4a1.37,1.37,0,0,0,.84,1Zm.6-17.76a26.54,26.54,0,0,0-16.44.24C192.72,124,171.84,148,164.88,184.08a563.13,563.13,0,0,0-9.6,127.44Q156.9,358,181.2,395.88q36.36,21.06,68.76-4.32a44.83,44.83,0,0,0,11.28-12.48q33.84-55.26,34.68-121c.24-21.6-.24-43-1.32-64.2-2-35.88-17.4-64.08-46.2-84.36l-2.16.24A3.42,3.42,0,0,0,244.08,112.08Zm225.6,157.2A68.58,68.58,0,0,0,445,304a235,235,0,0,0-10.08,46.56c-1.8,15.72,2.52,29.16,12.84,40.44,9.72,10.56,20.88,11.16,33.6,1.68,13.8-10.2,16.92-22.68,9.48-37.56l-7.8-.24v14a28.4,28.4,0,0,1-23.64,11.64,35.37,35.37,0,0,1-13.2-2.52L443,342.24a85.58,85.58,0,0,0,30.84-2,15.76,15.76,0,0,0,3-8.16,9.77,9.77,0,0,0-.84-5.52,12.92,12.92,0,0,0-2.16-2.88l-2-1.92L444.6,328.2a75.26,75.26,0,0,1,16.2-33.48,92,92,0,0,1,8.88-9.24l6.24-.12,8.64,12.36q5.22-5.58,1.08-15.48a36.37,36.37,0,0,0-8.88-12.72Zm-72.24-154c-3.84,4.92-5.76,11.16-5.88,18.6-.12,42.72-.6,85.44-1.2,128.28a739.72,739.72,0,0,1-13.2,127.92l.12.84.72,1.32c-1.92,5.76-1.92,10.56-.12,14.28l-.36,1.56a12.33,12.33,0,0,0,1,7.2,537.36,537.36,0,0,0,72.24,5.16,13.21,13.21,0,0,0,2.16-4.8,14,14,0,0,0-3.24-12.24L447,403l-1.32-.12-1-.72a24.3,24.3,0,0,0-8.28-4.08l-.36.12a16.43,16.43,0,0,0,4.92,5,283.66,283.66,0,0,0-57.12.48,510.22,510.22,0,0,0,12.72-95.16q2.7-64.26,3.72-129.12A508,508,0,0,0,397.44,115.32ZM381.36,125,381,123.6a17.32,17.32,0,0,0-1.56-3.72,16.66,16.66,0,0,0-4.44-5.16L350.4,240.84a325.2,325.2,0,0,0-17-70.92l-15.72,58.44q-10.08-58.14-17.52-115.8A4.78,4.78,0,0,0,299,110l-.48-.12-.48.12a1166,1166,0,0,0,11.28,130.68l.12,1.8-.12,1.8a26.3,26.3,0,0,0,1.44,9.6,17.23,17.23,0,0,0,4.2,7.32l2,2L333.6,198.6q-.54,37.8,18.12,67.92a1214,1214,0,0,0,29.64-140Z" transform="translate(-55.9 -106.56)"/></svg>