<svg id="Layer_1" data-name="Layer 1" xmlns="http://www.w3.org/2000/svg" xmlns:xlink="http://www.w3.org/1999/xlink" viewBox="0 0 571.2 598.23"><defs><style>.cls-1{fill:none;}.cls-2{clip-path:url(#clip-path);}.cls-3{fill-rule:evenodd;}</style><clipPath id="clip-path" transform="translate(-19.2 1.23)"><rect class="cls-1" x="19.2" width="571.32" height="597.12"/></clipPath></defs><g class="cls-2"><path class="cls-3" d="M125.28,535.08l4.2-.6,3.6-1,28.44.24,3.12.36c2,0,3.24.12,3.72.48l.48,3.24-.48,2.88a16,16,0,0,1-4.08.12l-3.84-.6L129,541.56l-1.92.84-5.28.48a12.5,12.5,0,0,1-.6-4c0-3.48,1.56-12,4.56-25.8C129.12,497.76,132,488,134.52,484l.6,1.08.24,2.64c0,1.32-1.44,8.4-4.2,21ZM324.72,430.2a2.26,2.26,0,0,1,1.32-1.44q5.58,32.94,9.12,75.48c1.08,12.36,2.76,37.44,5.28,75.48V580c4.68-15.24,8-28,10.32-38.28a199.75,199.75,0,0,0,4.8-40.2L356,501l1.2-1.08L364,540.36c2.76,17.16,5.52,31,8.16,41.52l.48.24q8.28-28.26,14.4-73.92c2-16.56,3.72-29,4.8-37.32,2-14.4,4.08-27,6.24-37.8l1.32-1.32a4.25,4.25,0,0,1,2.52,3,21.1,21.1,0,0,1,.24,3.72q0,3.78-11.16,67l-16.2,90.48-.6.48-1.32.6c-6.36-21.24-11.4-45-15.36-71.4l-.6-.48c-.36,2.52-1.2,8.4-2.4,17.52-1,7.32-1.92,13.08-2.76,17.52-2.76,13.32-7.2,24.6-13.44,33.6l-7.44-73q-6.66-70.2-6.6-87.24A9.05,9.05,0,0,1,324.72,430.2ZM53.52,229.08H42.72l-5.16-4-2.64,59.64V397.68l-2.4,27.12c-1,11.64-1.92,20.76-3,27.24v52.8c-.12,1.32-.6,13.92-1.44,38-.36,7.8-.84,14.88-1.56,21.24,13.8,2.52,28.2-1.92,43.44-13.2,11.16-8.28,19.8-17.4,25.8-27.24l13.92-20.88c5.88-9,9.84-16.32,11.88-22.08,10.44-29.4,15.6-57.6,15.6-84.84,0-5.16-1.2-15.36-3.48-30.48a427.94,427.94,0,0,0-12.48-57.6q-23.58-80.28-64.44-80.64ZM41.76,24.6,40.32,39.72C38.88,55.08,38.16,64.56,38.16,68c0,1.68.48,9.72,1.56,24.12s1.68,24.12,1.68,29.4q0,11.52-2.88,81L38,214.44c.84,1.08,2.64,1.56,5.52,1.56l8.88-.12a5.7,5.7,0,0,1,1.68-2.76h4.32Q86.34,195.84,97,170.88c5.16-12.12,7.8-27.6,7.8-46.44q0-43.74-13.2-69.36Q75.9,24.66,43.32,24.6ZM109.2,95.52c.24,4.92.36,14.64.36,29.28a241.41,241.41,0,0,1-1.08,25.56A100.52,100.52,0,0,1,102,177.12c-5.88,14.64-16,27.72-30,39.24,12.48,5.4,23.64,17.4,33.36,36a266.89,266.89,0,0,1,13,30.36c4.08,11.16,6.6,17.52,7.56,18.84,5.76,20.28,9.72,36.48,12,48.48a258.13,258.13,0,0,1,4.2,46.08c0,19.56-2.88,40-8.64,61.32a255,255,0,0,1-23.28,58.44Q94.68,543.78,76,559.56C62.4,571,48.72,576.72,34.68,576.72l-10.2-.24-1.2,5.4c-2.76-1.56-4.08-4.2-4.08-7.68,0-19.32,1.8-44.16,5.4-74.28V448c1.08-6.48,2-15.48,3-27.12L30,393.6V281.52L33.6,201q2.88-68.4,2.88-79.8L34.92,97.56c-1.08-14.28-1.68-24-1.68-29-.12-8.76,0-17.28.48-25.8a140.63,140.63,0,0,1,3-23.16l-.24-2.16a6.15,6.15,0,0,1,1.08-4.08A7.48,7.48,0,0,1,39,12.24l1.56-3.36,1,2.28,4-.84Q62.94,8,83.64,32.64A146.83,146.83,0,0,1,97.2,52.08c3.48,5.88,5.88,10.44,7,13.8C106.8,74.16,108.48,84,109.2,95.52ZM134.64,7.8c-1.32,16.92-2.76,31.8-4.2,44.88,14-1.44,24.84-4.56,32.4-9.24,6.6-4.08,9.84-8.52,9.84-13.44,0-6.84-6.72-12.24-20-16.2l-13.8-4A17.12,17.12,0,0,1,134.64,7.8Zm106.56,28q29.34-50.94,59.16,7.08c10.56,19.8,18.12,43.56,22.8,71,1.68,9.84,3.24,21.84,4.8,35.88l3.48,35.16v46.32l-.12.72.12,2.16c0,19.44-.48,36-1.44,49.8-.48,7.32-1.56,17.88-3.12,31.68q-4.68,40.32-4.92,96.6c0,16.56-2.28,34.92-6.72,55.2A329.26,329.26,0,0,1,297,524.64c-8.16,19-17,33.84-26.76,44.76-10.68,12.12-21.36,18.24-32.16,18.24l-14.52-.36a131.64,131.64,0,0,1-33-49.92,233.67,233.67,0,0,1-7.32-25l-6-25v-47q-.72-8.28-1.44-21.6l-.72-14.52c0-5.4,1.68-27.12,4.92-65q5-58.14,7.56-77.4c1.2-9,2.4-20.88,3.72-35.52,1.56-17.88,2.64-29.64,3.24-35.16q4.5-41.58,14.64-70.68c4.44-14.76,8.52-27.36,12.12-38C228,62.64,234.6,47,241.2,35.76ZM192,96.6c3,4.44,4.44,7,4.44,7.68l-.24,3.24-.48.48-.84.84c-3.12-2.4-11-10.92-23.76-25.68-10.2-11.76-16.56-19.68-19-23.64a44.61,44.61,0,0,1-13.56,2l-9.12-.24q-3.78,31.5-8.28,45.36a5.75,5.75,0,0,1-1.32-1.8,12.68,12.68,0,0,1-.24-2.76q5.58-72.18,12.36-100l.6.36L132.84.6c19.32,2.16,31.92,6,37.68,11.4a16,16,0,0,1,4.68,8.28,43.42,43.42,0,0,1,.72,9.48c0,6.48-2.76,13-8.4,19.32a33.1,33.1,0,0,1-9.6,7.8c6.6,5.4,14.28,13.56,22.92,24.48C185,86.64,188.76,91.68,192,96.6ZM302.76,63.72a88.84,88.84,0,0,0-13.56-21.6q-19.08-21.78-37.56-5.52c-7.8,9.12-14.16,21.48-19.08,37L226.92,92.4a118.47,118.47,0,0,1-7.2,18.12q-10.62,21.24-25.44,134.16-6.3,47.7-10.2,91.08Q179.94,380.94,180,404l.6,13.08c.48,7.8,1,14.16,1.56,19v47c4,19.44,8.16,34.56,12.48,45.48a135.63,135.63,0,0,0,29.16,45.48h14.28c21.24-12.72,37.56-26.52,49.2-41.4a113.38,113.38,0,0,0,20.88-42.24q4.14-15.66,5.76-42.84c1.32-21,2.76-35.4,4.08-43.2q2.52-15.3,2.88-42.84.54-33.12,1.44-43.2c1.08-11.52,2-25.2,2.88-41.16,1-18,1.44-32.52,1.44-43.68q0-43.74-2.88-70.2Q320.88,136.5,310.68,87A106.85,106.85,0,0,0,302.76,63.72ZM417,378l.24,3c0,3.24-.84,17.64-2.52,43.08s-3,43.68-4,54.72l19.92.6h6.6c3,0,4.92.6,5.76,1.92a7.67,7.67,0,0,1,.24,2.4l-1.32,1.2-4.68,4.2H409.2a5.68,5.68,0,0,1-2.16-1.8,6.26,6.26,0,0,1-.6-3c0-15,1-34.68,3-59,2-26.28,4.2-42.72,6.48-49.56Zm-12-7.32c-4,6.84-10.08,10.68-18.6,11.28l-3.72-2.28c-.36-.36-.6-.6-.6-.84l.12-.48h-.6a42.72,42.72,0,0,1-.6-8.4q0-12.24.72-23.4c.72-9.48,1.8-16.8,3.12-21.72h.72a14.78,14.78,0,0,1,.84,5.28c0,3.6-.6,12-1.8,25.32l-2.16,22.44a12.4,12.4,0,0,1,3.6-2.76c1.56-.84,4.32-2.28,8.52-4.44,8.28-4.56,12.48-9.84,12.48-16S403.8,343,397.2,338c-3.24-2.28-5.4-4-6.72-5-2-1.8-3-3.48-3-5.16l.12-2.4.12-1.44.36-.24c9,9,14,14.16,15.12,15.6,4,4.92,6,10,6,15A32.08,32.08,0,0,1,405,370.68ZM380.16,301.2c-1.8,8.52-2.28,16.08-1.32,22.8l-.48.48-.6.84a9.87,9.87,0,0,1-1-3.72,36.35,36.35,0,0,1-.12-4.08c0-3,1.08-11.52,3.36-25.68l3.72-22.2h.72A184.09,184.09,0,0,1,396,294.12l10,24.24c1.8-4.92,3.72-12.84,5.64-23.76s4-18.84,6.24-24.12a2.23,2.23,0,0,1,1.56.84A4.47,4.47,0,0,1,420,274c-5.16,27.48-9.84,44.88-14,52.44-2.76-4.92-6.12-12.72-10.32-23.28-4.56-11.4-7.92-19.2-10.08-23.52Zm80.76-51a50.9,50.9,0,0,1,3.24-9.72c3.24-7.32,8.76-12.6,16.68-16.08,16.2-7,30.6-6.6,43.32,1a38.28,38.28,0,0,1,11.52,10.32q4,5.4,4,9c0,1.8-.12,2.64-.36,2.76l-.6.48-1.32.6a33.53,33.53,0,0,0-8-10.32c-7.08-6.48-16.2-9.72-27.12-9.72-23.64,0-38.4,19.08-44.52,57.12-2,12.12-3,26-3.12,41.88,10-.12,16.8-1,20.64-2.4s11.16-2.4,21.6-2.64l14-.6v-.48a4.35,4.35,0,0,1,3.24,1.8,5.58,5.58,0,0,1,.6,2.52c0,1.8-.48,3.12-1.56,3.72-2.52,1.44-8.4,2.4-17.4,2.76C485,332.4,478,333,474.36,334a33.87,33.87,0,0,1-6.72,2.52h-13l.48,19-1.08,19.08L453,393.6l.12,6.48a69.52,69.52,0,0,0,2,13.08c3.24,12.12,9.36,18.24,18.36,18.24,22.2,0,38.88-5,50.28-15,10.2-9,17.64-23.88,22.56-44.52l1.32-.72a9.26,9.26,0,0,1,2.16,4.2l.6,3c0,1.8-1.2,5.76-3.48,11.64A113.23,113.23,0,0,1,536,411.12q-19.26,29.34-46.8,29.28-25.38,0-33.84-14c-3.72-6.24-5.64-17.16-5.64-32.88l.48-21.48c.36-11.76.6-24.36.6-37.8v-3.36c.24-8.76,1.2-20.76,2.76-36.24,1.8-17.28,3.48-28.8,5-34.68ZM363.72,172c-2,4.32-5.4,11.16-10.08,20.4l8.64-1.32,6.6-1.08c-1.32-4.92-2.76-10.44-4.08-16.68C364.56,173.28,364.2,172.8,363.72,172Zm0-9.72c2.76,6,6.6,16.44,11.76,31.2s7.68,22.92,7.68,24.72a7.77,7.77,0,0,1-.24,2.76l-.36.36-.48.48a147,147,0,0,1-10.56-23.52l-.72-2.16-1.68.48-19,3.12A123.67,123.67,0,0,0,342.6,219l-1.08.24-.48-1.68-.12-2.76q0-4,6.48-18.72v-.36l.12-1.92.24-1.08H349L351.6,187Zm48.48-48.48c.6-3.48,1.92-5.64,3.72-6.48l.6,1,1.32-1.2c9.48-2.28,16.8,2.64,22.2,14.76a66.75,66.75,0,0,1,4.2,13.56,37.92,37.92,0,0,1,1.2,7.56c0,7.32-2.64,15.12-7.92,23.28a49.83,49.83,0,0,1-8.64,10.32c2.76,11.4,7.08,28.08,13.08,50,7.32,26.52,11,40.44,11,41.76l-.24,4-.6.6-.84.84c-3.72-9-9.24-27.36-16.68-55.32q-7.2-27.18-9.72-38.88A40,40,0,0,1,414,184.8v7.68c-.6,5.64-1.44,19.2-2.76,40.56-1.08,17.28-2.4,30.84-4.2,40.68a7.37,7.37,0,0,1-2.16-3.12,6.41,6.41,0,0,1-.6-2.4c0-11,.72-24.24,2.16-39.48L410.76,189v-4.92l-.84-1a9.4,9.4,0,0,1-.24-2.52,3.1,3.1,0,0,1,1.08-1.68V122.4Zm4.68,2.64-.72,3.48L414,127.56v48.6l.6-.36,10.32-7.2a6.43,6.43,0,0,1,1.8-1.8l.12.36c9.72-7.68,14.52-15.6,14.52-23.64A34.81,34.81,0,0,0,437,127C432.6,118.56,425.88,115.08,416.88,116.4ZM363.72,61.8a4.46,4.46,0,0,1-.72,2.76l-1.44,1.32-4-3.24c-2.52-2-4.44-3-5.52-3-7.56,0-13.08,4.08-16.56,12.12a37.22,37.22,0,0,0-3.24,14.64,9.23,9.23,0,0,0,2.4,6.24L342.6,100h9.48l3.36-4.2,1.8-2.52V86.76l-9.24-.6-.36-.72a5.94,5.94,0,0,1-.24-2l.24-2.52.84-1,11.16.24.6,1.32.24,2.76c0,3.12-.6,10.92-1.92,23.52h-1.92a8.85,8.85,0,0,1,.6-6.48V101l-.84,1.08L352.92,107l-11.4-.36-4.92-3.6q-4.5-3.6-5.4-6.12c-.72-2-1.08-5.52-1.08-10.56,0-8.76,1.8-16,5.28-21.72a23.3,23.3,0,0,1,11.52-9.84c4.2-1.56,8-1.68,11.52-.24S363.72,58.44,363.72,61.8Zm9.12-3.12q0,12.24-2.16,37.44c-1.44,16.68-2.16,29.16-2.16,37.32q0,9.9,1.44,13.32,3.42,8.64,16.2,8.64c8,0,13.32-6.72,16.08-20,1.32-6.84,2-16.8,2-30-.36-11.4-.48-19.92-.48-25.56a118.73,118.73,0,0,1,2.64-25.56c2,3.12,3.12,8.16,3,15l-.84,17.52a270.34,270.34,0,0,1-1.08,39.72c-2.64,25.32-9,37.92-19,37.92-11.88,0-19.2-4.56-22.2-13.8A31.09,31.09,0,0,1,365,140.16l.24-6.6c0-11.76.48-25.92,1.56-42.36,1.32-21,2.88-33.24,4.68-37L372.6,56ZM462.48,104c4.2,11.52,10.92,28.44,20,50.88l6.36-22.44a140.24,140.24,0,0,0,4.68-24.12l.36-.48.72-.84a6.78,6.78,0,0,1,1.8,1.32,6.09,6.09,0,0,1,.36,2.64c0,3.72-1.92,13-5.88,27.72l-6.24,22.92-.72.48-1.2.84c-3-5.88-6.48-13.56-10.32-23.28l-9.12-23.52-.84-.48c-.72,4.8-1.68,12.48-2.76,23.16-1.2,9.48-2.88,16.92-5.16,22.32q-2.16-2.34-2.16-4c0-5.88,1.2-15,3.72-27.6,1.56-8,3.36-16.56,5.52-25.56ZM526.92,10c-11.52,0-19.44,7.2-23.64,21.48a74.05,74.05,0,0,0-2.88,21.72c0,9.6,1.32,17.76,4.08,24.36,1.8,4.44,6.84,13.32,15.12,26.76a287.54,287.54,0,0,1,13.56,25.92q4.14,9,10.8,25.2c5.64,13.8,10.08,30.84,13.44,51.24l4,25.44c1.56,10.2,3,18.84,4.44,25.68q9.36,44.46,14.4,100.44,4.5,51.66,4.56,103.32a247.68,247.68,0,0,1-4.2,44.76A196.78,196.78,0,0,1,567.48,550q-20.7,46.26-55.56,46.32-40.86,0-59.52-34.92a98.44,98.44,0,0,1-9.12-25.68,72.86,72.86,0,0,1-1.92-14.88c0-4,1.32-9.84,3.84-17.52,2.88-8.64,5.88-14,8.88-16.08a10.55,10.55,0,0,1,1.92,6.12c0,1.08-1.56,5.52-4.8,13.32s-4.68,12.48-4.68,14.28a53.23,53.23,0,0,0,1.92,11.88,83.32,83.32,0,0,0,8.28,21q16.56,29,50.28,28.92,43.56,0,62-52.8,11-31,10.92-68.16,0-54.54-4.32-102.48A844.34,844.34,0,0,0,560.4,257.16q-5.94-34-9.36-50.76c-4-19.8-9.12-37-15.24-51.48A310.52,310.52,0,0,0,519.48,122l-12.72-21.48a82.6,82.6,0,0,1-8.28-19.68c-2-7.56-3-16.68-3-27.48,0-13.92,2.64-25.8,8-35.76q7-13.14,17.64-17.28C528-2.4,534-1.56,538.92,2.88c5.28,4.8,7.92,12.72,7.92,23.88a20.24,20.24,0,0,1-.36,4.2,11.92,11.92,0,0,1-2,4.32q-1.08-1.44-1.8-6.12l-1.56-8.4C539,13.56,534.36,10,526.92,10Zm60.24,1.44-.24,3.24-.48.48-.84.84-4.32-3.84c-2.16-2.16-3.48-3.24-4.08-3.24-8.4,0-14.76,4.2-19.2,12.48l-1.44,2.88c3.36-.84,8.4-1.08,15-1v-.6l8.88.36.84,1.32a5.69,5.69,0,0,1,.48,2.76l-.24,2.4-1.08,1.56-4.68.48-5.28,1c-10-.36-15-.36-15.36-.12l.48,1a1.84,1.84,0,0,1,0,1.92l-1.8-1.2-.12,1.8c0,2.88,1.32,5.64,3.84,8.16,3.6,3.48,9,5.28,16.2,5.28l7.32-.24L584.4,45l3.84-4.8a2.66,2.66,0,0,1,1.56,1.44,6.61,6.61,0,0,1,.6,3c0,1.92-1,4.2-2.76,6.84A31.55,31.55,0,0,1,581.52,58h-8.4c-9.24.48-15.72-2.52-19.44-8.88a24.9,24.9,0,0,1-3.24-12.84,49.41,49.41,0,0,1,4-19.44c3.6-8.4,9-14,16.08-16.8l7.8.24,6.72,6A6.79,6.79,0,0,1,587.16,11.4Z" transform="translate(-19.2 1.23)"/></g></svg>