<svg id="Layer_1" data-name="Layer 1" xmlns="http://www.w3.org/2000/svg" viewBox="0 0 538.44 494.16"><defs><style>.cls-1{fill-rule:evenodd;}</style></defs><path class="cls-1" d="M215.64,417.6c18.72-1.08,31.08,2,37.08,9.6a21,21,0,0,1,4.08,9.72c.12,1.44.24,4.08.24,8a43,43,0,0,1-1.32,12,20.78,20.78,0,0,1-7.44,9.84c-4.2,3.24-11.28,6.48-21,10,6.24,7.32,13.68,18.6,22.44,34.08C254,518.52,258,526,261.48,533.16c3.24,6.48,4.8,10.2,4.8,11a7.78,7.78,0,0,1-2.16,5.76c-6.6-9-15.6-23.64-27.24-43.8-7.56-13.2-12.6-22.44-15.12-27.6-6.84,2.28-14.64,4.44-23.64,6.72q-6.48,46.08-10.56,62.28Q185,545.4,185,541.08c0-2.52,1.32-12.48,4.08-29.88l4.44-28.32a6.45,6.45,0,0,1-.6-2.52,2.9,2.9,0,0,1,1.2-2.28l.72-13.68c.36-7.44.6-12.84.84-16.08a87.13,87.13,0,0,1,3.12-18l-2.16-.24-.36-.72a7.5,7.5,0,0,1-.12-2c0-1.08,1.44-2.64,4.44-4.44l2-1.08,1.08-1.68.36,1A46.62,46.62,0,0,1,215.64,417.6Zm-10.56,10.8c-.36,6.12-2.28,21.72-5.64,46.8l3-1.08c3.84-1.2,10.8-3.12,21-5.64q13.86-4,20.88-8.28c6.36-4,9.48-8.76,9.48-14.28a18.69,18.69,0,0,0-4.56-12.6c-4.8-5.4-13-8-24.6-8-8.76,0-15.24,1-19.44,3ZM207.6,252v67.44a24.19,24.19,0,0,1,1.08,7.68l-1.08,17.64-1.08,17.64.24,28.44,5.88.48,4.92.6,31.68.6a31.82,31.82,0,0,0,6.48,2.16c2.52.36,5-.36,7.8-2.16a2.66,2.66,0,0,1,1.56,1.44,6.61,6.61,0,0,1,.6,3,18.64,18.64,0,0,1-.72,4.8,14.5,14.5,0,0,1-1.92,4.56l-11.64-1c-1.92-.24-3.12-.6-3.48-1L232.44,404l-16-.72c-7.32,1.08-12.12.12-14.16-2.76a6.46,6.46,0,0,1-1.08-3.12l.12-1.44,2.4-71.4V251.52a15.51,15.51,0,0,1,.6-3.48,4.36,4.36,0,0,1,1.56-2.52C206.64,246.6,207.24,248.76,207.6,252Zm-91.92-10.2A88.34,88.34,0,0,1,95.52,252a90.88,90.88,0,0,1-30.6,5.76l-.84,17.52q-3.24,63.54-3.24,97.2c0,7.56-1,20.64-2.76,39.24-1.08,11.64-2.4,23.16-3.72,34.56v65c-.72,2.16-1.08,7.2-1,15l-.12,4.56,1.8,1.2a11.49,11.49,0,0,0,6.84,2.52q38.16,0,67.32-26.52c13.32-12.12,25.32-28.56,36.12-49.56,9.48-18.6,15.36-32.28,17.52-40.92,2-7.68,3-19.92,3-36.6,0-15.12-1.08-26.4-3.12-33.72-1.08-3.24-2.88-8.52-5.64-15.84l-9.6-25.56a146.94,146.94,0,0,0-8.4-18.84,207.11,207.11,0,0,0-10.56-18.48c-3.48-5.4-10.8-12-22.08-19.8ZM58.8,62.52a26.75,26.75,0,0,1-.36-4,12.44,12.44,0,0,1,.12-2.4l.12-.36Q121,61.74,143.4,101.28a92.2,92.2,0,0,1,10.8,32.4,179.33,179.33,0,0,1,1.68,26.4c0,31.32-10.2,56.16-30.6,74.28l-2.76,2.4,7.2,4.32a153.11,153.11,0,0,1,13.92,10.32,67.43,67.43,0,0,1,8.4,7.68c1.56,3.48,4.92,10.08,10.08,19.92a225.48,225.48,0,0,1,9.72,20.64l10.44,27.48c2.76,7.32,4.68,13,5.76,17,1.8,7.32,2.76,19.56,2.76,36.72a178.43,178.43,0,0,1-11.88,63,202.26,202.26,0,0,1-30.36,53.88Q130,521.52,108.24,535.32C93.48,544.8,79.32,549.48,66,549.48q-12.42,0-16.2-5.76a12,12,0,0,1-1.68-6.84,10.84,10.84,0,0,1-.48-3.36c0-1.8.12-5.64.48-11.52.48-6.84,1-12.12,1.44-16.08V442.56c1-8.76,2.16-21.12,3.48-37l3.24-37v-43c.84-11.52,2.16-33,4-64.32l.24-4.44a3.89,3.89,0,0,1-1.92-2.4l-.36-3.6c0-.84,1-1.8,2.76-2.88l1.8-37.56c0-10.44-.12-17-.24-19.8a84.21,84.21,0,0,0-3-19.92v-41.4a79.75,79.75,0,0,1-.84-11v-8c0-4.56-.6-12.84-1.92-24.84s-2-19.68-2-22.68q0-3.78,1.8-4.32c3.24,8.28,5,19.32,5.64,33.24l.48,17c.24,6.6.6,12,1.2,16.32v42.24A101.61,101.61,0,0,1,67,189.12l.12,21.48-1.56,35,2.52-1.2c4.08-1.68,11.76-4.68,23.16-8.88q36.54-14.22,46.8-26.64c2.28-2.76,5.16-10.68,8.64-23.52,3.24-12.48,4.92-21,4.92-25.68,0-21.24-4.2-38.64-12.6-52.08-14.52-23.16-41.16-37-79.68-41.4Zm371.4,30A124.32,124.32,0,0,1,446.52,119,180.89,180.89,0,0,1,456,146.16c6.72,24.6,10.92,43.44,12.48,56.52q1.8,14.94,1.8,50.4,0,46.62-2.52,70.56c-2.28,20.88-7.2,46.32-15,76.44a348.15,348.15,0,0,1-12,37,284.68,284.68,0,0,1-17,36.84c-2.28,4.2-5.28,10.32-8.88,18.6a59.24,59.24,0,0,1-13.56,18l-22.92,20.16c-12.24,10-20.76,15-25.44,15-8.52,0-14.88-.48-19.08-1.32a20.39,20.39,0,0,1-10.56-5.16c-2.28-2-4.68-5.76-7.32-10.92l-9.36-18.6c-4.44-8.16-7.8-14.4-9.84-18.72-3.72-7.68-5.88-13.92-6.72-18.6-1.08-7.2-3.36-19.8-6.72-37.68q-4.5-23.58-6.48-37.8V343.2c-.6-11.88-.84-30.6-.84-56a321.37,321.37,0,0,1,4.08-50.76c4.32-27.24,7.08-46,8.16-56.16q3.06-30.06,12.24-52.56c7.8-19.32,20-37.32,36.48-53.76,14-14.28,32.16-16.68,54.6-7.32C405.12,72.24,418.08,80.88,430.2,92.52ZM358.8,73.8c-10.68-.12-17.28,2.88-19.68,9.24-15.48,15.72-27,32.88-34.56,51.24-6,14.64-10,31.68-12,51.12l-6.36,46.08c-4,28.92-5.88,47.52-5.88,56l1.2,16.56c.84,11,1.2,19.32,1.2,24.84s-.12,13.68-.48,24.6l-.6,16.44c0,5.64.6,14.52,1.68,26.88a429.58,429.58,0,0,0,8.4,55.44q17.64,79.56,56.28,79.56c8.16,0,18.36-4.92,30.72-14.88,3.72-3,8-6.84,12.72-11.28l7.92-7.68q7.38-6.3,13-17.28c3.6-8.16,6.36-14,8.16-17.64,12.6-23.76,21.72-47,27.12-69.84a652.91,652.91,0,0,0,13.32-70.92,558.22,558.22,0,0,0,4-68.64q0-28.62-2.88-47.88c-1.92-12.6-6-30.48-12.24-53.4-2.88-10.68-5.88-19.32-9.12-25.92a89.3,89.3,0,0,0-18.48-25.32c-2.4-2.28-8.16-5.76-17.28-10.68l-17.4-9C378,76.56,368.52,73.92,358.8,73.8Zm225.12-8.64a17.33,17.33,0,0,1,1.56,4.44,20.71,20.71,0,0,1,.6,4.56q0,7.74-4.44,71.88l-5.28,78.24V277.8c-1,8.16-2.28,22-4.08,41.4-1.56,18.36-3,32.4-4.2,42-4,32-9.48,54.84-16.56,68.64q-10.62-38.7-17.64-91.68c-.6-4.2-4.2-35-10.56-92.64h-.24c-1.56,34.56-4,65.4-7.44,92.52a684.43,684.43,0,0,1-17.76,92.28c-1.56-4.68-2.4-23.88-2.4-57.72q0-13.5-5.88-80-5.22-58.14-6.84-72l-4-38.28c-1.56-16.44-2.88-29-4.2-38-1-7.32-3.72-21.84-8.16-43.56-4-19.44-5.88-30.12-5.88-31.92l.24-2.88a15.13,15.13,0,0,1,.6-1.8q13.14,25,17.28,67.8l2.76,35.52A354.69,354.69,0,0,0,486,202.68q3.06,23.94,7.2,70.56,4.5,48.6,7.2,71.4V398.4c5.64-36.72,9.72-66.36,12.48-88.92q5.94-50,7-90l.36-.36c.12-.36.84-.48,1.92-.48s5.16,24.36,12.12,73q13.32,91.62,18.36,119.88,10.62-78.12,18.36-139.2v-53.4l1.2-38.16c.6-15.84,1.2-28.8,2-38.88l.72-19c.12-9,.36-15.48.6-19.44C576.48,88.2,579.24,75.36,583.92,65.16Z" transform="translate(-47.64 -55.8)"/></svg>