<svg id="Layer_1" data-name="Layer 1" xmlns="http://www.w3.org/2000/svg" viewBox="0 0 309.04 214.88"><defs><style>.cls-1{fill-rule:evenodd;}</style></defs><path class="cls-1" d="M161.4,284.76a731,731,0,0,0-3.72-77.88,38.22,38.22,0,0,1,21.72.12c8.76,11.52,12.48,24.72,11.4,39.48C189.24,266.76,179.52,279.48,161.4,284.76ZM275.88,298l13.32-.36L300,322.68l-13-57.24,1.2,26.16-7.56-2.52A48.78,48.78,0,0,0,286,269v-2.76Q264.18,286.8,264.6,316.8Zm28.8-78q33.3,40,32,91.68a92.23,92.23,0,0,1-16.92,52q-14.4,20.52-39.24,24.48c-25,4-39.72-5.52-44.16-28.68a132.48,132.48,0,0,1-1.2-43,281.8,281.8,0,0,1,15.72-62q9.9-25.74,29.64-42.84c8.64-1.2,15.6.84,20.88,6l-2.16,1.68c-1.32,1.08-1.92,2-1.68,2.88l2-1.2A6.79,6.79,0,0,1,304.68,220Zm-131,76.8,5-5.16,11.88.36a44.31,44.31,0,0,1,13.56,20.88q11.7,38.88-19.08,64.08l-28.2.84,3.36-55.2,1-21A15.45,15.45,0,0,0,173.64,296.76ZM156.48,195.48l-.12-.36c-.6-.12-.84,0-.84.24v.48l-1,.36a12.38,12.38,0,0,0-1.08,7.2,8.81,8.81,0,0,0,1.8,4.2h.12c-.48,32.52-1.08,65-1.92,97.8-.6,21.48-2,42.84-4.44,64.08-1.32,12.12-.36,22.8,3,31.8a15.42,15.42,0,0,0,3.24-5.76c29,4.92,47.52-6,55.44-32.52,10-33,3.48-61.32-19.68-84.84L188.4,278q13.5-23.58,8.4-54.24c-3-17.76-12.24-28.44-28-32.16a32.28,32.28,0,0,1-5.4,1.68Zm123.84.48c-11.64,7-20.52,17-26.76,30.36A295.84,295.84,0,0,0,225.48,352q-.18,34.38,28.08,51.48a20.88,20.88,0,0,0,10.08,3q49.86,2,69.36-42.48a147.18,147.18,0,0,0,12.12-55.2Q346.38,249.9,309,205.68l-2.16.12-1.08-.12-.6-.72A32.66,32.66,0,0,0,280.32,196Zm167,92.28-11.16-.36L403.08,292,405,260.28a640.21,640.21,0,0,0,1.08-64.08,108.92,108.92,0,0,0-6.84,38.16c-.12,13.92-.6,27.72-1.2,41.4-1.56,32-4.2,64-7.92,95.52-1.32,12.24.12,22.92,4.32,31.92a32,32,0,0,0,3.84-14.64q1.8-43.74,4.2-87.12A120.8,120.8,0,0,0,447,302.76q-1.08,37.08-2.76,74-.72,14.58,5.76,23.4a16.36,16.36,0,0,0,4-11.4c-.24-42.84.72-85.92,2.88-129a544,544,0,0,0-.6-64.2,176.4,176.4,0,0,0-8.16,52.32Zm-76.2-92c-12.36,12-17.64,27.48-15.84,46.32a54.37,54.37,0,0,0,4,15.48,243.3,243.3,0,0,1,19.56,78.6,146.43,146.43,0,0,1-4.92,23.52c-4.56,15.36-15.48,22.8-32.76,22.44a19.2,19.2,0,0,0-2.16,8.16,11.84,11.84,0,0,0,3.24,8.88h8.16c8,.12,14-3,18.12-9.36q24.3-38.52,14.76-84.6a72.56,72.56,0,0,0-8.52-21.72c-14.28-23.76-16.56-47.88-7.08-72.36a25,25,0,0,1,17-2.16,8.92,8.92,0,0,0,.84-8.16,5.71,5.71,0,0,0-2.16-3.12l-1.32-.72A14.77,14.77,0,0,0,371.16,196.2Z" transform="translate(-148.47 -191.64)"/></svg>