<svg id="Layer_1" data-name="Layer 1" xmlns="http://www.w3.org/2000/svg" xmlns:xlink="http://www.w3.org/1999/xlink" viewBox="0 0 586.68 575.4"><defs><style>.cls-1{fill:none;}.cls-2{clip-path:url(#clip-path);}.cls-3{fill-rule:evenodd;}</style><clipPath id="clip-path" transform="translate(-9.72 -13.2)"><rect class="cls-1" x="9.72" y="13.2" width="585.6" height="575.52"/></clipPath></defs><g class="cls-2"><path class="cls-3" d="M302.4,500.52a8.06,8.06,0,0,1,.36,2.76q0,11.34-6.48,66.6v.6l10.32-1.56,17-2.52L361.56,565l1.08-.72c1.56.6,2.64,1.92,3.36,4.08a11.52,11.52,0,0,1,.72,4,9.16,9.16,0,0,1-.6,3.24l-.84,2.16a5.84,5.84,0,0,1-3-.72L343,577.2l-19.92.48q-7.38.54-16.2,1.8A77.48,77.48,0,0,0,295,582.12c-2.28-1.68-3.48-4.44-3.48-8.4.24-9.84.84-20.16,1.8-30.84,1.8-21.24,4.44-36,7.92-44.4Zm-228.6-279-3.36-3.6a88.1,88.1,0,0,1-26,4.8l-8-.24q-9.9,246.42-21,353.4,36-.36,67.08-41A176,176,0,0,0,102.24,502c4.92-10.44,7.56-18.84,8.16-25.2L117.24,429q6.12-44.1,6.12-56.52c0-17.4-.48-28.92-1.32-34.44-2.64-11.88-5.76-27.12-9.24-45.48a125,125,0,0,0-26-56.88A185.8,185.8,0,0,0,73.8,221.52Zm59.4-34.92.24,2.88c0,3.84-1.56,17-4.68,39.48l-5,36.72v.6a18.77,18.77,0,0,0,6.24-1.2,20.43,20.43,0,0,1,5.4-1.8,12.46,12.46,0,0,1,5.16,0l3.72,1.08c2.76.6,6-.84,9.48-4.32,1.56,2.52,2.4,4.68,2.4,6.48l-.24,2.4-1.08,1.44a48.9,48.9,0,0,0-20.4,1.32,49.08,49.08,0,0,0-5,1.92l-1.68,1.08-6.48-.24c-.12-1.68-.24-4.56-.24-8.64,0-9.6,1.68-25.68,5.16-48.24,3.24-21.48,5.4-32.52,6.24-33ZM109.32,68.52C97.68,47.52,74.64,33.24,40,25.92l1,10.32c.84,11.64,1.32,19.2,1.32,22.8q-2.7,80.82-5.4,151l7.8-.24q44.82-2.52,63.24-37.92C115.32,157.32,119,140,119,119.76A195,195,0,0,0,118,95.88,74.81,74.81,0,0,0,109.32,68.52Zm13,24.48a258.24,258.24,0,0,1,1.08,27.24c0,22.32-3.72,41.64-11.28,58.08q-11,23.94-31,34.92a48.77,48.77,0,0,1,6.12,5.52c13.56,14,23.52,36,29.64,65.88q2,13.5,8.28,49c1.68,9.24,2.52,22.08,2.52,38.76,0,10.32-1.92,30.72-5.64,61.08-3.6,28.32-6.12,45.24-7.56,50.88-1.8,6.36-4.32,13.8-7.56,22.08a223.69,223.69,0,0,1-17.76,35.16q-29.52,47-68.64,47l-9.12-.36a10.55,10.55,0,0,1-1.68-6.12,18.73,18.73,0,0,1,.24-3.84l1-2-.12-1.32c0-6.12,1.08-16.92,3.24-32.28s3.24-26.4,3.24-33.12l3.36-32c1.32-13.32,1.68-24,1-32,1.08-14.16,2-35.64,2.76-64.56.6-28.44,1.56-50,2.76-64.56q.72-21.42,4.8-97.92a15.21,15.21,0,0,1-.48-4.08c0-2.16.12-4.08.24-5.64l.6-.48.24-.24,1.08-19.8C36.48,135,37.92,92,37.92,59c0-2.64-.6-9.6-1.68-21L34.68,21.6a15.71,15.71,0,0,1,.72-4.92,3.86,3.86,0,0,1,1.92-2.88l.6-.6q56.34,8.46,75.48,47.52A95.86,95.86,0,0,1,122.28,93Zm22.08-48.24L153.6,44l.12-1,1.08.72a27.83,27.83,0,0,0,8.76-2.88c3.72-1.8,5.52-3.84,5.52-5.88,0-2.88-1.8-5-5.4-6.6a19.83,19.83,0,0,0-7.8-1.68l-10.56-.24v1C145.32,32.88,145,38.64,144.36,44.76Zm37.8,48.84-.6.48-.84,1c-4.68-5.64-10.56-15-17.64-28-3.48-6.24-5.88-11-7.44-14.4l-12.36-.12-1,6c-.84,5.16-3,15.24-6.24,30.24l-.72.48a4.17,4.17,0,0,1-1.2-2.4,19.84,19.84,0,0,1-.24-3.48,229.86,229.86,0,0,1,2.88-34c1.32-9,3-17.28,4.8-24.72l-.12-1.92a6.18,6.18,0,0,1,.36-2.52,6,6,0,0,1,1.08-1.56c12.12-1.56,20.64,0,25.32,4.56,2.76,2.76,4.08,6.6,4.08,11.4a23.7,23.7,0,0,1-2.64,9.72c-2,4.2-4.44,6.84-7.44,7.92,2,3,4.08,6.48,6.36,10.68l13.56,25ZM256.68,34c-4,1.56-6.36,2.28-7.2,2.28a11.26,11.26,0,0,1-1.56-6.48c-21.24,13.8-36.12,31.32-44.4,52.44a203.16,203.16,0,0,0-7.92,27.72l-6.12,27.24c-1.8,10.68-5.4,29-10.8,55q-7.38,35.1-10.08,54.72c-1.92,14-4.8,48.36-8.64,103.2-4.2,58.44-6.24,97.44-6.24,116.76,0,1.68.48,6.84,1.44,15.36,1.32,11.76,3,22.56,5,32.52,6.36,31.32,14.4,47,24.36,47q30.24,0,50.16-25.8,12.06-15.84,22.32-46.08c2.76-8.4,6.48-20.28,11-35.64,5.4-18.24,9-30.48,10.92-36.72q7.74-24.84,11.52-70.32,2.7-35.1,2.76-73.8-.9-61-5.4-121.32Q279.24,31.62,262.8,31.68Zm26.64,45a264.51,264.51,0,0,1,5.52,31.92c1.08,8.28,2.28,19.32,3.36,33.12,1.2,14.28,2.4,35,3.6,62.16,1.32,28.56,1.92,51,1.92,67.2,0,24.84-1.2,51.12-3.72,78.6-2.76,31.8-6.6,56-11.28,72.84q-16.92,60.3-34.2,97.2Q224,574.38,201.36,574.44l-13.68-.36a26.38,26.38,0,0,1-10.32-2.76c-5.64-3.12-10.2-10.68-13.68-22.8l-4.56-14a60.56,60.56,0,0,1-3.24-13.56q-.72-7-4-27.72a182.92,182.92,0,0,1-2.52-26.64q0-12.78,5-96.12,5.76-94.86,10.08-129.6c2.52-10.68,6.84-32.76,12.84-66q8.46-46.62,14.76-71.64c6.6-25.44,13.8-45.12,21.84-58.92,9.72-16.68,21-25.92,34-27.72,15.24-2.52,25.32,5.64,30.36,24.72a141.53,141.53,0,0,1,3.48,22.32C282.6,73,283.08,78.12,283.32,79ZM369.6,294.48q-12.24-131.94-13.2-203-5.22,29-13.44,70.2-11,52.92-22.32,104.64l-4.68,34c30.48-1.56,47-3,49.68-4.2.72-.36.6-1.08-.36-1.92s-.48-1.8,1.08-2.4A7.19,7.19,0,0,1,369.6,294.48Zm73.08-13.08a10.24,10.24,0,0,1,1.32,3.84l-.24,4.08-.84.48-1.32.84a49.88,49.88,0,0,0-5-7c-3.12-3.72-6.48-5.52-10.08-5.52-8.4,0-14.4,4.32-18.12,12.84a35.15,35.15,0,0,0-3,12.84c0,6,2.64,11.28,7.92,15.72,1.08,1,7,4.68,17.4,11.28,7.8,4.92,13.68,10.08,17.4,15.36,5.28,7.44,7.92,16.68,7.92,27.6a42.66,42.66,0,0,1-4.08,18.36c-4.8,10.44-13,15.6-24.36,15.6q-17.82,0-29.16-18.36a64.52,64.52,0,0,1-6.84-15.48,47,47,0,0,1-2.16-13,21.47,21.47,0,0,1,.12-3.24,6.46,6.46,0,0,1,1.2-2.4c1,1.92,2,5.76,3.36,11.4q2.52,10.26,4,14.76c4,11.88,10,17.88,17.88,17.88q23.76,0,32.76-11.52a22.29,22.29,0,0,0,4.56-13.92c0-9.24-2.64-17-7.92-23.28-3.36-4-9.24-8.4-17.52-13.32-8.64-5.16-14.4-9.48-17.4-12.72-5.4-5.76-8-12.84-8-21.24A57.68,57.68,0,0,1,405.24,285c2.88-8.76,7.44-13.92,13.68-15.24,7.8-.84,14.28,1.08,19.44,6A21.43,21.43,0,0,1,442.68,281.4Zm-16-169.32.84,1.8.24,2.64c0,5.16-5.76,11.64-17.28,19.56l-7,4.8a127.51,127.51,0,0,1,10.92,16.56c6,10.44,9,16.56,9,18.24V178l-.24,1.44c-.12,0-.48.24-.84.84-4.08-4.2-9.72-11.88-16.92-23.16l-7.8-12.72-2.28,1.44-13.68,8.4a64.43,64.43,0,0,0-1.56,14.64,13,13,0,0,1-1.08,4.8l-2.4,5.52a4,4,0,0,1-1.2-1.8,14.77,14.77,0,0,1-.12-2.88,73.34,73.34,0,0,1,1.2-14.16c.36-1.8,1.2-5.4,2.52-10.56,2.52-9.24,3.84-20.28,3.84-32.88a6.14,6.14,0,0,1,1-3.36c.6-.84,1.08-1.32,1.68-1.44a30.81,30.81,0,0,1,1.08,9.24,103.57,103.57,0,0,1-2,22c3.48-3.84,9.12-8.52,17-14l15.6-10.44C422.52,115.32,425.64,113.16,426.72,112.08Zm-62-88.32a6.74,6.74,0,0,1,1,2.16l-1.2,8.28c-.36,7.08-1.56,17.16-3.48,30.24-.6,6.24-.84,11.88-.84,16.8q0,39.6,4.68,107c1.32,19.8,3,40.44,4.8,62.16l.36,4,3.24,35.4,4.44,51.48,4.2,52.44c.6,7.56,3.36,26.64,8.16,57,4.68,28.92,7,44.4,7,46.44a16,16,0,0,1-1.32,6.72v.24c-5-4.32-7.44-7.08-7.32-8.4a12.29,12.29,0,0,0,1.92-7.32q-8.46-69.66-16.92-155.16l-2.76-29-.36.48c-.36.36-1.44.6-3.24.6a11.87,11.87,0,0,0-4.2.72l-4.56,1.8c-5.88,1.8-16.08,2.64-30.72,2.64l-13.08-.24c-4.44,29.64-8.4,54-12.12,73.32q-12.42,65.7-30,117.36a8.5,8.5,0,0,1-2-4.56,12.72,12.72,0,0,1-.48-3.48c0-1.08,4.56-17.52,13.56-49.32,9.72-34.44,15.6-57.6,17.88-69.6,2.52-13.32,5.4-32.88,8.76-58.68l1.08-7.8-.12-2.16a15,15,0,0,1,.24-2.88,7.89,7.89,0,0,1,.72-1.44c2.76-20.28,4.92-35.16,6.6-44.64q5.58-31.5,22.32-118.8c6.6-34,11.88-62.76,16-86.16V50c.72-10.56,2.28-19.2,4.56-25.92l.48-3,.48.6.36-.84A8.08,8.08,0,0,1,364.68,23.76ZM445,22.08l.24,2.76c0,5.4-1.2,17.52-3.48,36.36l.84.48c1,.6,1.44,1.68,1.44,3.48l-.24,3.36a1.47,1.47,0,0,0-1.08.48h-1.92l-.84,5.64-5.64,42.84H433c-.12-2.76-.24-7.2-.24-13.44a277.45,277.45,0,0,1,2.4-35L419,68.76l-.48,3.72c-2.88,22.44-4.8,36.36-5.88,41.76h-1.32a33.7,33.7,0,0,1-.36-6.12,181,181,0,0,1,1.56-18.72c-6.84,14.52-15.12,21.84-25.08,21.84-9.12,0-15.36-4.56-18.6-13.56a38.84,38.84,0,0,1-2-9.6c-.12-1.32-.12-3-.12-5a86.51,86.51,0,0,1,5.4-31C376.68,40,384,30.6,394,24.12c8,.72,13.08,1.68,15.12,3,1,.6,1.44,1.68,1.44,3.48a13.93,13.93,0,0,1-.24,3.24,2.16,2.16,0,0,1-2.16,1.32,11.49,11.49,0,0,1-4.2-1.32,13,13,0,0,0-4.2-1.32c-9,0-16.8,8.16-23.28,24.6a127.42,127.42,0,0,0-5.28,17.28,53,53,0,0,0-1.8,8.64c0,2,1.08,5.52,3.24,10.68,2.64,6.12,5.28,9.12,7.92,9.12,10.92,0,19.08-2.76,24.48-8.4a23.91,23.91,0,0,0,4.56-6.6l2-4.8,1.08-.24.6,1.08L416.4,61.2c3.36-23.88,5.4-36.48,6-37.92l.72,1.32.36,2.76c0,4.32-1.08,15.48-3.36,33.48l7.44-.48v-.6l8.76.36C437.88,50.52,440.4,37.2,444,20Zm43.32,7,1.2,3.12v8.16l-.48.48-.84.84A3.31,3.31,0,0,1,486.84,39l-.48-3.36c-.84-2.76-4.08-4.2-9.84-4.2l-10.32.24c-6.36,2.16-12.48,19.08-18.24,50.64-1.08,5.64-2,11.28-2.88,17a31.71,31.71,0,0,1,6.12-1.56l44.52-4v-.48c1.8.24,3,.84,3.36,1.8a9.4,9.4,0,0,1,.24,2.52,3.76,3.76,0,0,1-2.52,4c-1.32.6-4.08,1.08-8.52,1.32a375.64,375.64,0,0,0-43.44,5l-1-.24-1.2,8.88c-1.32,10.08-1.92,16.56-1.92,19.44l-.12,8.76a52.36,52.36,0,0,0,1.8,13.2q4.86,17.28,22.32,17.28c12.6,0,23.4-5.4,32.28-16.2a64.33,64.33,0,0,0,12.72-24.6,9.46,9.46,0,0,1,1.2,3.36l.24,3.48c0,1.56-1.08,4.56-3.24,8.88a72.57,72.57,0,0,1-9.24,14.28c-10.32,12.84-21.6,19.2-33.84,19.2-13.68,0-22.2-7.44-25.68-22.2a72.35,72.35,0,0,1-1.56-16.08l.48-9A197.79,197.79,0,0,1,440.4,111l1-6.72V104a3.83,3.83,0,0,1,.36-1.68c1.32-8.88,2.88-17.76,4.8-26.52q9.72-44.82,20-52.8,15.3.54,19.44,3.24A5.59,5.59,0,0,1,488.28,29Zm97,166.68,9.24.72a9.71,9.71,0,0,1,1.92,6.48c0,2.52-.36,4.2-1.2,5.28-2,2.16-6,2-12-.36H548.52l-42.24,4.68-1,6-2,9.36v60.84q-2.34,19.26-2.88,43.56Q500,344,500,374.76l2.16,105.6-.84,19.8L500,530.64c-.12,5.16-.24,13.44-.12,24.72a111.05,111.05,0,0,1-3.12,25.32A32.26,32.26,0,0,1,493,571.2a41.58,41.58,0,0,1-1.56-10.56c0-2.28.72-8.4,2.16-18.6s2.16-17.28,2.16-21.36l1.56-24.12.6-16.56-2.16-105.12c0-22.2.12-35.4.24-39.72.12-2.4,1.08-19.92,3-52.44V221l1.32-8-22.44,1.08-10.2-.84-9.84-1.08-27.24.24c-3.12.6-5-.24-5.88-2.28a18.63,18.63,0,0,1-.36-4.68,9.05,9.05,0,0,1,.48-3.36,7,7,0,0,1,1.68-2.64h30.24l10.56,1.08,10.92.84c11.16,0,26.16-1,44.88-3l26.76-3.24,33.36.24Zm-51.36-163q0,17.82-6.6,82.44l-6.12,56.88c27.48-.36,46.32-10.2,56.28-29.76,4.92-9.48,7.32-21.48,7.32-35.76a109.14,109.14,0,0,0-2-18.12A126.61,126.61,0,0,0,575,61.56Q560.82,27.9,533.88,31.68Zm1.08-9c18.12-3.12,32.16,7.92,42.36,33.12a151.43,151.43,0,0,1,8.4,29.4,114.26,114.26,0,0,1,2.28,19.8,100.58,100.58,0,0,1-1.2,14.52,110.62,110.62,0,0,1-6.36,25.2q-13.5,34.74-44.64,34.68l-15.72-.24-.24,1.08h-1.32l-.24-1.8-1.68-2.4a4.73,4.73,0,0,1-.6-1.68l.12-2.16.24-1.44.6.12,1.32.12c.12-8.76,1-20.64,2.4-35.52l4-37.2q.18-3.6,2.16-18.72A140.8,140.8,0,0,0,528,61.2l1.56-18.84c.6-7.08,1.08-12.36,1.68-15.84l.24-1.32a5.59,5.59,0,0,1,1.56-3C533.64,22.2,534.24,22.68,535,23.76Z" transform="translate(-9.72 -13.2)"/></g></svg>