<svg id="Layer_1" data-name="Layer 1" xmlns="http://www.w3.org/2000/svg" viewBox="0 0 294.02 209.4"><defs><style>.cls-1{fill-rule:evenodd;}</style></defs><path class="cls-1" d="M178.08,273a33.78,33.78,0,0,0-12.24,1.2c-.24-23.16-1.2-46.08-3-68.88a38.74,38.74,0,0,1,21.84,12.48C203,238.56,200.88,257,178.08,273Zm113.64,2,6.48,22.68-18.36-.6A97.54,97.54,0,0,1,286,286.2,61.75,61.75,0,0,0,291.72,275ZM295,252.72l-1.92,2.4A265.24,265.24,0,0,0,269,296a74,74,0,0,0-7.56,37.56,10.34,10.34,0,0,0,2.28,6L275,307.92l26.28,1.44q3.24,20.88,13.68,36a376.58,376.58,0,0,0-19.92-84.72ZM166,290.16l12.12-.72,5.16-3.36c18.36,4.68,28.8,17.76,31.2,39.24,2.28,20.28-4.68,36-20.64,47.28a91.83,91.83,0,0,1-33.6,6.84,521.6,521.6,0,0,0,5.16-58.2Zm-5-93.72-.24,2.88v.12a728.6,728.6,0,0,0-2.76,74.64,598.82,598.82,0,0,1-2.76,64,311.52,311.52,0,0,0-.12,64.32c.84-.24,1.2-.6,1.32-1.08l1-4.8c14.76,3,28.2.36,40.44-7.68a23.11,23.11,0,0,0,7.8-8.16q27-46.26,2.52-95.64l-.84-.84a52.74,52.74,0,0,0-13.32-8.4c7.68-10,10.8-22.08,9.48-36.48-2.28-25.08-15.24-40.56-38.64-46.32a5.58,5.58,0,0,0-2.76,1.56l-.12-1.56h-.6ZM306.84,210a44.81,44.81,0,0,0,6.72,2.4l2.4.6a17.28,17.28,0,0,0,4.8,10.08,91.13,91.13,0,0,1,16.92,25.56q22.86,53.64-7.8,103.44-20.52,33.3-60.24,28.44a8.94,8.94,0,0,1-7.2-4.68c-17.88-29.4-22.56-61.32-13.92-96,1.8-7.56,3.36-15.24,4.56-22.8q7-45,52.08-47.64ZM356,304.32q7.38-61-35.16-103.32l-2.64.6-.84.24-1-.6a29.63,29.63,0,0,0-19.92-6.12,39.33,39.33,0,0,0-29.4,11.64,58.5,58.5,0,0,0-14.76,23,257.16,257.16,0,0,0-10.92,127.44,64.26,64.26,0,0,0,20.28,37.68c8,7.44,17.52,8.88,28.68,4.44q50.58-20.7,62.28-75C354.12,317.76,355.2,311.16,356,304.32Zm20-7,1.2-35.4a313,313,0,0,0-2.88-52.2c10.44,2,21.12,4,31.92,5.52,17.4,2.64,28.32,12,32.76,28.2,4.2,15.24.36,28.08-11.52,38.64Q405.6,301.56,376.08,297.36ZM372,203.88c-1.68,20.28-2.76,41.52-3.36,63.72q-1.62,64.26-4,128.28a2.55,2.55,0,0,0,2.16,2.16,9.92,9.92,0,0,0,4.08-7.8q2.88-38.88,4.68-77.64a66.9,66.9,0,0,0,31.92-.6l1.08-.84.72-.84a19.29,19.29,0,0,0,4-1.44q41.76-20.7,32.52-67.32-8.28-42.3-55.08-44v.12l-16.8,1.2-.84,1-.12.36-.36-2.4-.48,5.4Z" transform="translate(-153.43 -192.96)"/></svg>