<svg id="Layer_1" data-name="Layer 1" xmlns="http://www.w3.org/2000/svg" viewBox="0 0 533.13 410.28"><defs><style>.cls-1{fill-rule:evenodd;}</style></defs><path class="cls-1" d="M178.92,271.44c-.12,37.32-1.2,74.52-3.48,111.84-1.32,22-1.8,43.32-1.44,64.2l8.76.48a269.49,269.49,0,0,1,29.16,3.84,274.23,274.23,0,0,0,71.4,4.08c3.12-4.92,3.24-10,.48-15.36a17.37,17.37,0,0,0-4.32-.12,261.21,261.21,0,0,1-99.6-10.2l2.64-41.4a1172,1172,0,0,0,.84-128.16C180.36,262.92,178.92,266.52,178.92,271.44Zm-75.6-27.36q26.82,6.84,38.28,34.56a142.47,142.47,0,0,1,10.92,56.88,120,120,0,0,1-4.2,30.72A118.24,118.24,0,0,1,130.68,404,52.9,52.9,0,0,1,97.8,425.88a116.14,116.14,0,0,1-49-.36L64.08,253.08a40.34,40.34,0,0,0,29.4-2.76Zm28.92-49.56q-19.62,45.72-67,43.2l1.32-17.4c3-40,4.08-79.56,3.48-118.8,24.6-9.48,43.56-2.88,56.64,19.8a86.85,86.85,0,0,1,11.64,38.4A75.6,75.6,0,0,1,132.24,194.52ZM66.72,98.16a39.4,39.4,0,0,0-3.36,15.72Q62.28,175.62,58.2,237a13.83,13.83,0,0,0-2,8.16,12.26,12.26,0,0,0,1.2,4.68q-4.14,59.94-10,119.88a447.08,447.08,0,0,1-7.2,47.4c-2.52,11.88-1.8,22.8,2,32.52l3-8.76.72,1,4.68.24q35.82,16.38,66.6-5.88a51.08,51.08,0,0,0,10.08-9.6Q170.7,373,157.08,306.24c-5.76-28.2-19.08-51.6-40-70l-1.32-.36a10,10,0,0,1-2.52-.72A119.33,119.33,0,0,0,140.64,191c6.84-18.84,7.08-37.92,1-57.24-8.4-26-25-42.6-49.56-49.92L67.68,91.44l-.48,1.68A18,18,0,0,0,66.72,98.16ZM375.24,244.08a236.75,236.75,0,0,1-28.56,123.6,68.77,68.77,0,0,1-33.36,31.08Q269.58,418.2,239,383.64a61.42,61.42,0,0,1-15.6-35.52A626.61,626.61,0,0,1,223.68,220a202.13,202.13,0,0,1,16.92-62.64,114.19,114.19,0,0,1,9.6-17.16Q274.86,103.8,317,99.36l3.24.48a27.43,27.43,0,0,1,8.76,3.84l1.08.72a106.29,106.29,0,0,0,12.72,23.52,139.85,139.85,0,0,1,20.4,41.88A297.42,297.42,0,0,1,375.24,244.08Zm7-13.8q1.26-56.7-28-103.8a36.24,36.24,0,0,1-4.08-8.76c-7.56-22.44-23.28-33.36-47.16-33a81.7,81.7,0,0,0-18.72,9.72q-57.06,38.7-65,106a1229.21,1229.21,0,0,0-8,128.4q-.54,53.64,42.12,85.2a35.33,35.33,0,0,0,13.8,6.36q54.72,11.88,82-35.88A243.58,243.58,0,0,0,381.72,262C381.84,251.28,382,240.72,382.2,230.28ZM455,92.76a6.43,6.43,0,0,0,2.52-3.84,16.57,16.57,0,0,0,.12-4.2l-.48-2.52-1.32-3.48a48,48,0,0,0-30.48-2,59.64,59.64,0,0,1-9.24,1.68l-.36-1.68-.48,1.8-55.2.48a11.32,11.32,0,0,0-1.44,7.44,17.51,17.51,0,0,0,1.8,5.16l52.8,1.2Q410.4,224.88,402.12,357c-1.32,21.6-3,43.2-4.92,64.68a254,254,0,0,0,.24,47.76q16.2-47,16.8-103.56.54-48.06,1.92-96.24,1.44-46.62.84-93l-.84-84L450,91Zm-2.4,9c-18.36,25.32-27.48,54-27.24,86.28a615.1,615.1,0,0,1-2.64,61.56A1169.89,1169.89,0,0,0,418.2,378l.48,32.4c.12,20.4,8.28,36.12,24.24,47.28,11.64,8,22.44,7.68,32.52-1.08a195.65,195.65,0,0,0,24.12-24.72c11.64-14.16,19-29.4,21.84-45.84l-1.8,3-2,3.84-.24.84a48.12,48.12,0,0,0-7.92,7.68,25.06,25.06,0,0,1-10,7.44l-2.88,4.08A161.2,161.2,0,0,1,467,444.6a37.74,37.74,0,0,1-26.88-7.08,15.52,15.52,0,0,1-6.72-10.32,468.74,468.74,0,0,1-6-127.8,672.94,672.94,0,0,0,2-95.88c-1.56-34,7.08-64.32,26.16-91a34.36,34.36,0,0,1,17-2.4l.36.24,2.64,1.2,1.56.48a27.25,27.25,0,0,1,5,9.12c.6,1.32,1.32,1.68,2.28.84l.36-.84c2.88-16.56-4.32-25.08-21.72-25.44A14,14,0,0,0,452.64,101.76ZM567.36,127Q566.64,191,560,254.4l-.48,5.52-7.56.36-29.16-1c-8.4-.72-15.84.6-22.44,4l1.92-27.12c2.88-42.6,6.48-84.72,10.68-126.6v-.72q.18-3.06-2.16-3.6c-5.16,7.56-7.92,16.68-8.16,27.12q-.72,43.38-5,86.64c-4.08,42.36-8,85-11.76,127.56a190.81,190.81,0,0,1-5.88,32c-3.24,11.64-2.76,22.32,1.56,31.8a159,159,0,0,0,10.92-46.68q3.78-45,7.2-89.88c19.32-.24,38.76,0,58.44.72q-2.52,29.7-4,59.4a1059.33,1059.33,0,0,1-13.8,128.16c-1.8,10.2,0,17.88,5.16,23.28a994.88,994.88,0,0,0,12.84-118.56c1.32-30.24,3.24-60.36,5.52-90.36l1.08.24.6-.12c2.52-3.24,3-7,1.68-11.16l-1-2.4-1.08-.84-.24-.12,2-23.52a1206.22,1206.22,0,0,0,4.68-128.16A34,34,0,0,0,567.36,127Z" transform="translate(-38.72 -75.12)"/></svg>