<svg id="Layer_1" data-name="Layer 1" xmlns="http://www.w3.org/2000/svg" xmlns:xlink="http://www.w3.org/1999/xlink" viewBox="0 0 575.4 594.44"><defs><style>.cls-1{fill:none;}.cls-2{clip-path:url(#clip-path);}.cls-3{fill-rule:evenodd;}</style><clipPath id="clip-path" transform="translate(-15.72 3.08)"><rect class="cls-1" x="15.72" width="575.76" height="591.48"/></clipPath></defs><g class="cls-2"><path class="cls-3" d="M430.68,580v-.12l-.12.6ZM203.52,496.08l13.56-1,5.88-.84q-16-53.64-18.24-69.36c-1.92,5.52-5.88,15.72-11.76,30.6l-18,43.92,18.84-2.28Zm69.36,38.16.72,1a4.91,4.91,0,0,1,.36,2.28,9.62,9.62,0,0,1-.36,2.76l-.48,1.32-9.6.6-10.44,1.32c-2.16-1.56-3.24-4.44-3.24-8.4,0-3,.72-8.64,2.16-16.68,1.56-8.52,2.4-13.92,2.52-16.32h1.08a8.39,8.39,0,0,1,.72,2.88v3.6a71.5,71.5,0,0,1-1.68,13.32c-1.56,7.56-2.4,12.24-2.64,14v.24c7.32-1.44,12-2.16,14.16-2.16ZM270.12,374.4a256,256,0,0,1-3.48,35.16l-.84.24a7.67,7.67,0,0,1-.72-2.64v-3.48c0-9.48.24-22.92.6-40.08s.72-31,.72-41q0-3.24,2.16-4c1.32,4.32,1.92,11,1.92,20.28C270.48,356.76,270.36,368.52,270.12,374.4ZM303.36,325a8.37,8.37,0,0,1,.36,2.88q0,12.24-4.92,102.6Q293,533,288.84,573v4.8L306,577c6.6-.24,14.28-.24,22.92.12h18.36a4.32,4.32,0,0,1,3.12,3.12l.12,3.24c0,2.28-.6,3.84-1.92,4.68-3.36,2.28-10.68,2.28-21.84.24l-30.6.12q-8.64.18-10.08,2.88c-.84-1-1.44-2.76-2-5.4a30,30,0,0,1-.6-4.92c0-4.2,1.44-25.08,4.32-62.4,3-37.92,4.44-60.36,4.56-67.2q.9-12.42,1.8-32l1.32-33c1.2-26.52,3.48-47.76,6.72-63.48Zm-79.08,85.68a3.94,3.94,0,0,1,1.08-2.76l7.8,38.88c2.76,14.76,5,27.6,6.6,38.76q7.56-24.3,6.84-40l1.08-.48a6.16,6.16,0,0,1,1.44-.6l4.92,22.2a193,193,0,0,0,6.12,22.08c1.44-4,5.28-17.16,11.4-39.6,4.56-16.44,9.36-29.64,14.28-39.6l.84,1.8.24,2.64c0,.84-3.72,13.08-11.28,36.72-8,25.08-12.84,41.88-14.4,50.52-3.24-4.2-5.88-10.56-7.8-19-2.76-12.36-4.44-19.32-4.92-20.76l-.24-.6-3.48,18.6-4,19.56h-2.16l-7.92-42.24c-4.44-24-6.72-38-6.72-42.12A30.68,30.68,0,0,1,224.28,410.64Zm-18.6,5.4q8.1,28.44,21.36,84.12c1.68,7.2,6.84,23,15.6,47.4,8,22.8,12.12,34.68,12.12,35.64l-.36,2.52-.72,1.56v.36q-8.1-18.18-28.44-85.56l-1-3.24-.48,1.56-1.08,1.92-3.36.48c-2.28.36-3.36.72-3.36.84l-6,.36c-4,.36-6,.6-6,.84l-5.16.24-5.64.84-10.92.36-6.36.36h-4c-1.8,4.56-6.72,18.24-15,40.92-6.36,17.28-12.48,31.2-18.36,41.88l-2.16-.24a11.54,11.54,0,0,1-.36-3.6c0-1.68,2.4-9.48,7.32-23.28,5-14.28,10.92-30.24,17.76-47.76l4.32-10.92-.36-.48.84-.84q23.94-59.94,38.88-86l.24.48ZM330.84,268.92a59.74,59.74,0,0,1-10.68,1.8l-1,36.48a53.6,53.6,0,0,1-.6,8l2.16.36c13,0,21.24-2.76,24.72-8.4a16,16,0,0,0,2.16-7.32l-.12-6.84a26.65,26.65,0,0,0-1.08-5.64,46.55,46.55,0,0,0-4-9.24C339.24,272.52,335.4,269.52,330.84,268.92Zm-45-1.56,14.4-2.4c2-.6,3-1.44,3-2.76,0-2.88-1-4.92-3-6.12-2.28-1.44-7-2.88-14.28-4.32l.48,10.08Zm-3.24-36.48,1.92-.36.24-.36.12.36a14.87,14.87,0,0,1,11.88,3.24c3.24,2.64,4.8,5.52,4.8,8.52l-.12,3.6c-.48,1.32-1.68,2.16-3.72,2.64,3.72,2.4,6,4.56,6.72,6.6.24.72.36,3,.36,7,0,2-.36,3.6-1.2,4.56l-5.88,6.48h-1.2c1.44,4.92,3.72,12.12,6.84,21.84a180.34,180.34,0,0,1,6,24.48l-.36.48-.72.84c-3.48-4.68-6.12-11.28-8-19.68-1.68-9.24-3-15.84-4.08-19.8a106.54,106.54,0,0,0-7.56,19.2l-6,19.2-.24.24c-2-4.32-3.36-10.2-4-17.76-.84-10.2-1.32-16.32-1.68-18.24a59.16,59.16,0,0,0-6.72,16c-.6,2.28-1.8,8.16-3.6,17.4h-.6l-.48-1.32V313.2c0-2.52,1.8-9.48,5.28-20.88,3.24-10.44,5.28-16.44,6.12-18.12,1.44,3.72,2.52,9.24,3.36,16.56l1.68,17.52.6.36c1.56-2.88,3.84-8.88,6.84-18.12,2.76-8.52,5.16-14.28,7.08-17.4H285l-.24.84h-1.08a31.17,31.17,0,0,1-1.08-10.32l.24-10.68v-1.8l-1.08-.24-.12-.24-.12-1.68a12.44,12.44,0,0,1,.12-2.4l.12-.24h1.08a49.49,49.49,0,0,1,0-6l.48-5A6,6,0,0,1,282.6,230.88Zm7.32,4.08-3.48.24-1.44.12.6,10.8,5.64-1.08c3.84-1,6.24-1.92,7.32-3q-.72-2-4.68-4.68C291.6,235.8,290.28,235,289.92,235Zm30.48,29c8-1,13.68-2.28,16.92-4.08a9.05,9.05,0,0,0,4.8-8.52,12.85,12.85,0,0,0-4.8-10.32q-5.58-4.5-16.56-5.4l.24,7.08Zm-5.28-32.52,3.48-.48v-.84h.84l.36.84c9.72-.72,16.56,1.44,20.4,6.48q3.6,4.86,3.6,14l-.12,5.28a12.77,12.77,0,0,1-2.52,6.12,16.41,16.41,0,0,1-4.32,3.6c5,2.64,8.64,7.8,10.68,15.6a56.12,56.12,0,0,1,1.92,18.6c0,5.64-1.08,10.32-3.24,13.92-3.24,5.16-8.64,7.8-16.2,7.8l-8.28-.84c-4.2-.6-6.6-1-7-1.32v-5.76l1.2-.12c.12-6.84.48-21.24,1.32-43.44H315.6l-.6-1.08-.24-2.52A10.5,10.5,0,0,1,315,265l.12-.48,2.4-.24,1-28.68H316l-.48-1.8A8.86,8.86,0,0,1,315.12,231.48ZM154.44,371.76a21.89,21.89,0,0,1,4.44,13.56c0,3.12-1.68,6.48-5.16,10.2a21.23,21.23,0,0,1-7.92,5.4c1.8,5.88,4.92,14.76,9.24,26.76,5.64,15.48,8.4,23.88,8.4,25.08l-.36,2.52-.48,1.08c-1.68-2.76-5.28-11.88-10.92-27.36q-7.74-21.42-8.64-27.36l-3.36.36-7.68-.24c0,13.56,0,22-.12,25A146.3,146.3,0,0,1,128,456.36H126.6V448.2l1.68-11.28,1.56-12.24V367.56h-.24l-.24-.24v-1.68a3.77,3.77,0,0,1,.84-2.52v-.6l.24-3.6h.84l.12,2.88.6-.72C142.44,362.16,150,365.64,154.44,371.76Zm-22.8-4.44c.24,7.56.36,17.52.36,29.64a29.88,29.88,0,0,0,17.52-4.68q7.2-4.5,7.2-7.92a14.76,14.76,0,0,0-3.72-9.72c-2.88-3.24-7.2-6.12-12.84-8.4l-7.68.84Zm-69.72-135a56.69,56.69,0,0,1-26.16,5.88l-2.28-.48c.12,1.8.24,3.48.36,4.8V313.2l-1.08,3.24v41.4c-1.32,15.12-2.52,30.84-3.48,47-1.08,19.56-1.68,35.76-1.68,48.72q0,9-2.88,59.4c-1.44,26.16-2.76,46.56-4.08,61.08l2.64-.36c11.4-1.08,24.24-4,38.4-8.88,2.88-1,6.48-3.48,10.68-7.68l10-10.44c4.44-4.68,8.4-11,12-18.84,3.6-8.88,6.36-15.36,8.28-19.32q5-10.44,8.64-36.72a285.67,285.67,0,0,0,3.24-39.12c0-21.12-.84-37.2-2.4-48.36l-10.32-56.88q-5.94-33.66-13-51.84A139.59,139.59,0,0,0,67.56,238.8C65.52,236.4,63.72,234.24,61.92,232.32ZM31.32,2l.36-.36v.24c30.6-3.72,52.08,13.8,64.68,52.44q10.8,33.48,10.8,79.44A135.25,135.25,0,0,1,105.24,154a176.55,176.55,0,0,1-9.12,35.52C89,207.48,79.68,220.56,68,228.6a93.69,93.69,0,0,1,7.08,9.72c14.28,22,25,50.52,31.8,85.44l9.84,59.76c1.68,12.84,2.52,29.52,2.52,50.28,0,10.8-.24,20-.84,27.72a253.18,253.18,0,0,1-9.36,52.2Q86.76,587,24.84,587a11.34,11.34,0,0,1-5.4-1.08L19,590.52c-1.2-1.08-2-3.72-2.64-8a65.2,65.2,0,0,1-.6-8c0-5.88,1.44-37,4.32-93.48,3.24-61.56,5.76-105,7.8-130.2v-41.4l1.08-3.24V246.84c-.72-5.88-1.08-15.24-1.08-28s.36-22,1.08-27.84V122.88a42.24,42.24,0,0,0-.72-13V41.64a99.3,99.3,0,0,0-.48-10.8l-.84-11.4A39.06,39.06,0,0,1,28,8.16l-.12-1.68A19.8,19.8,0,0,1,28.2,2.4ZM88,57.36Q68.16,6.6,32.76,10q.18,4.86,0,11.52c-.36,11.28-.36,18.24-.24,20.76v61.68c.36,2.76.72,6,1,9.72l.36,9.72v73.08a66,66,0,0,0-.36,12.6l.36,9.12-.24,6.24a5.74,5.74,0,0,1,2.16-.72Q73.38,219,90.84,184.92c8-15.48,12-32.52,12-51.12a202.6,202.6,0,0,0-3.24-32.88A220.87,220.87,0,0,0,88,57.36Zm39.72,47.88-.48,7.8a54.5,54.5,0,0,1-1.68,10.08V128l10.8.36,6.6.72,14.28.48.72,1a4.91,4.91,0,0,1,.36,2.28,9.62,9.62,0,0,1-.36,2.76l-.48,1.32-7.8-.24-8.16-.6-18.36-.72-.6-1.32-.24-2.76c0-7.8.24-15,.84-21.48.84-8.76,2-15.12,3.84-19.2A109.25,109.25,0,0,1,127.68,105.24Zm-1.2-58.8a16.81,16.81,0,0,0-5,2.28c.48,2,.84,4.32,1.2,6.72a72.16,72.16,0,0,1,.72,9.36v1.08c2.28-.6,5.16-1.32,8.64-2h.36a6.88,6.88,0,0,1,.48-.84l.84.6c8.28-1.68,12.48-3.36,12.48-5.16,0-1.56-1.68-4.08-5.16-7.56-3.72-3.72-7-5.64-9.72-5.64A19.77,19.77,0,0,0,126.48,46.44Zm17.16,2.16a17.3,17.3,0,0,1,4.68,11.88L148,64.56a4.24,4.24,0,0,1-2.64,2.52l-4.68,1.44c4,3,7.08,5.4,9.36,7.44,6.72,6.12,10.08,11.52,10.2,16.32l.12.48q-.18.36-1.8.36-2.7,0-14.76-13.32l-9-10-12,2.4-1.2,8.16-1.92,13.2-.84.24a7.67,7.67,0,0,1-.72-2.64L118,87.84c0-1.56.6-5.28,1.68-11.4l.84-5.16L118.56,70c-.36-.36-.6-.6-.6-.84,0-.84,1.08-1.56,3.12-2.4l.12-2a52.23,52.23,0,0,0-1.32-7,52.23,52.23,0,0,1-1.32-7l.12-2.16a2.65,2.65,0,0,1-.48-1.92c0-3,1.56-4.92,4.8-5.76,2.88-.84,6.36-.48,10.32,1A24.53,24.53,0,0,1,143.64,48.6ZM318.72,207.24l-.12-1.8.12-1.68.12-.24h12.48a75.7,75.7,0,0,1,.6,11.16c0,6.48-.6,11.4-1.68,14.64l-.48.24a14.73,14.73,0,0,1,.24-7.92l-1.92,2.28a11.18,11.18,0,0,1-7.8,2.64c-5.4,0-8.52-2-9.6-6a18,18,0,0,1-.24-4.56l.36-2.88a45.34,45.34,0,0,1,3.48-18.48c1.92-4.32,4.44-7.56,7.56-9.6,2.76-1.92,5.4-2.52,7.68-1.92S333,185.4,333,188a8.39,8.39,0,0,1-.48,3.24l-1,2.52-.72.24a5.61,5.61,0,0,1,.48-4.08,5.28,5.28,0,0,0-1.92-1.44,8.61,8.61,0,0,0-3.48-.72c-4.44,0-8,4.2-10.8,12.48a66.12,66.12,0,0,0-2.76,12.84,15.88,15.88,0,0,0,.6,5.28c.84,1.8,2.88,2.64,5.88,2.64a22.27,22.27,0,0,0,5.64-1.2c3-.84,4.92-1.32,5.52-1.44l.24-.48v-9.84l-11.4-.48Zm-32.28,1.08-.36-1.56.36-2.4h4.08l11.64.48a111.84,111.84,0,0,1,.48,12.84l-.24,12.12-.6.6a16.4,16.4,0,0,1-1.32-2.76,2.9,2.9,0,0,1,.48-1.8V209.16l-7.92-.72A42.48,42.48,0,0,0,286.44,208.32Zm11.28-24.6a15.77,15.77,0,0,0,3.6,4.92c.84.6,1.32,1.08,1.32,1.44l-.24,3.72-1.08.24L299.64,193a10.9,10.9,0,0,1-2.64-3.84l-9,.36-5.76,12.24c-2.28,5.16-3.36,9.12-3.36,12a12.53,12.53,0,0,0,.84,5.16,8.35,8.35,0,0,0,5.64,4.2c6.84-.24,11-1,12.36-2.16l.84-1.44a2.41,2.41,0,0,1,1.32-1.08l.48,1,.12,2.52c0,1.44-.84,2.88-2.64,4.44a9.24,9.24,0,0,1-5.76,2.4c-7.68,0-12.48-2.28-14.28-6.72a13.06,13.06,0,0,1-.84-5l.24-3.36a49.58,49.58,0,0,1,2.52-15.36,41.51,41.51,0,0,1,8-14.76ZM252.6,26.52c-.36,0-1.32-.84-2.64-2.4l-4.8-5.28c-5.16-4.68-10.32-6.48-15.72-5.28l-5.88,5.52a24.47,24.47,0,0,1-7.08,5c-.36-1-.12-3,.6-6.24v-.6q-24.3,17.64-38.88,132.48-5,40.14-8,85.68c-1.56,24.12-2.4,42.48-2.4,55.08,0,23.64,1.44,41.64,4.32,54.24q6.48,29,27.12,55.56c22.8-6.36,38.88-29.88,48.36-70.8q8.46-36.9,8.52-84.36l.72-14.4q.72-13.32,1.44-21.6V120.72l.48-1.68.6-1.56V68.76l.72-1.2A7,7,0,0,0,260.4,65a196.49,196.49,0,0,0-.84-20.64C258.36,32.52,256.08,26.52,252.6,26.52Zm96.72,36.36c-7.2-7.08-12.24-10.68-15.24-10.68-2.16,0-6.24,5.4-12.12,16.32,3.12-1,7.68-2,13.56-3.24Zm-85.08,13.2V124l-1.08,3.24v86.88c.6,8.28,0,22.32-1.56,42.24a673.47,673.47,0,0,1-8.64,67.2q-7.38,39.42-18,62.16C226.44,403.92,216.6,413,205.68,413l-8.16-.24q-23.4-29.7-30.12-61a181.53,181.53,0,0,1-3.48-29.28c-.36-5.88-.48-16.32-.48-31.08q0-23.76,6.24-98.16,5.94-70.74,8.16-79.92c1.08-5.28,2.28-12.72,3.36-22.44,1.44-11.28,2.52-19,3.24-23.16,3-18.36,8.52-32.76,16.32-43,12-15.72,22.68-24.72,32-27.24q11.52-3.06,19.8,7.56c4.32,5.64,7.68,13.56,10.2,24a103.57,103.57,0,0,1,2.76,22.08l-.24,10.44Q265,70.86,264.24,76.08ZM385.32,185.16Q394,178,404,179.76a25.88,25.88,0,0,1,15.36,9.36,26.61,26.61,0,0,1,6.36,17l-.12,3.72a11.57,11.57,0,0,1-1.2,3.6,37.24,37.24,0,0,1-2.88-5.88,47.36,47.36,0,0,0-4.08-7.92,20.42,20.42,0,0,0-18.24-10c-10.44,0-18.84,8.28-25.32,24.72-3.6,9.12-6.36,20.16-8.28,33-.84,6.36-1.92,16.2-3.24,29.64-1.2,13.68-2.28,23.88-3.24,30.48v38.16c10.44.24,21.48,0,33.12-.84l5,.36c.6.36.84,1.32.84,3.12a10.74,10.74,0,0,1-1.8,4.56,16.61,16.61,0,0,1-3.6,4.44H370.08q-8.1-.54-9-1.44l-2.16-.12-1.2,31.8L357,412.2c0,29.76.84,52.56,2.64,68.52q5.22,45.72,20.16,53.28c18.6-5.28,30.72-13.8,36.6-25.56q2-4,5-14.76c1.8-6.12,3.84-10.68,6-13.8a13.19,13.19,0,0,1,2.4,8.16c0,1.2-1,4.68-2.76,10.44a156.71,156.71,0,0,1-7.8,20.4c-9,19.32-19,28.92-29.76,28.92q-27.54,0-34.92-67.32A423.51,423.51,0,0,1,352.32,434l.36-21.36,1.44-57.24H354l-.84-2-.24-2.88a7.6,7.6,0,0,1,.36-2.76l1.08-2h.12q1.26-47.34,2.52-66.6c2-14.64,3.72-25.68,4.8-33.12a234.07,234.07,0,0,1,7.44-33.36C373.2,199.92,378.6,190.8,385.32,185.16Zm-13.2-89.64a11.29,11.29,0,0,1,.36,3.36c0,1.8-2.64,13.92-7.8,36.36-5.76,25-9.24,40.56-10.32,46.92-4.68-10.32-10.44-23.4-17-39.36l-16.56-40.2-5,40.2c-2.16,17.28-3.72,31.08-4.68,41.52l-.6.48a13.16,13.16,0,0,1-.84-3.72,30.68,30.68,0,0,1-.24-4.08c0-4.92,1.32-18.6,4.08-40.92,2.88-23.88,5.28-39.12,7.08-45.48q22,50.58,32.76,79.08c5.16-28.2,10.92-53.76,17.28-76.92A7.85,7.85,0,0,1,372.12,95.52ZM354.6,68.28c-2.76,1.32-7.2,2.4-13.32,3.48L319.2,74.4h-.48c-5,9-9,14.52-11.76,16.8l-.48-.48V88.8c21.6-39.24,32.4-53.16,32.4-42l16,15.36,2.52-.24.48.72a6.3,6.3,0,0,1,.24,2.16v.48L363.72,71c9.84,10.2,14.88,16.92,15,19.92l-.48.48-.6.84c-1.92-1.32-5-4.2-9.24-8.88L356.16,70ZM582.72,202.2c2.28,16.2,3.48,36.48,3.48,61q0,28.26-2.16,60.84c-.48,7.32-2,19.32-4.68,36.24L575.64,385c0,14.76-5.76,34.32-17.28,58.44-10,20.76-23.28,43-39.72,66.6q-22.32,31.86-43.44,54.6c-14,15.12-23.4,22.68-28.32,22.68-8.76,0-14.16-1.2-16-3.48a3.87,3.87,0,0,1-.72-2.16l-1.68,6a5.45,5.45,0,0,1-3-3.36,17.61,17.61,0,0,1-.24-3.24l6.84-47.64c4.8-33.24,7.44-58.2,8-74.64.84-23.88,1.68-43.92,2.76-60,1.44-22.44,3.36-42.72,5.88-61V296.4Q452,269,452,224.16l-2.16-49.8c0-1.8.24-10.92.84-27.24l1.56-43V49.8c.36-1.68.84-9.6,1.68-23.64a68.15,68.15,0,0,1,3-17.88,3.57,3.57,0,0,1-.6-1.8,13.93,13.93,0,0,1,.24-3.24l2.28.48.12-.48.36.6c14.76,3.72,27.48,11.52,38.28,23.4,3.24,3.72,7.68,9.36,13.2,16.92,5.64,7.8,9.84,13.32,12.84,16.68a102.56,102.56,0,0,1,26.4,33c3.48,6.6,7.92,17.88,13.44,33.84Q577.92,168.9,582.72,202.2Zm5.16-109.68c2,1.56,3,3.24,3,4.92s-.12,2.52-.36,2.4l.48.48c.36.24-.12.36-1.2.36l-3.6-2a18.52,18.52,0,0,0-4.08-2c-4.92,0-8.52,3.72-10.8,11l-.36,1.44,11.52.84.72,1.2a8.06,8.06,0,0,1,.36,2.76l-.24,2.4-.6,1.44-11.88-.24-1.2-1.44-.24,2.88c0,2,1,4.44,2.76,7,2,2.88,4.32,4.32,6.72,4.32,4.92,0,7.32-1.44,7.2-4.2l-.36-3.72a4.48,4.48,0,0,1,.84-3.48,4.46,4.46,0,0,1,2.28,3.12l.12,3.6a20.06,20.06,0,0,1-.84,6.6c-1.2,3.72-3.6,5.64-7.08,5.64q-9.72,0-13-8.64a31.42,31.42,0,0,1-1.32-9.84A23.23,23.23,0,0,1,568,111a49.87,49.87,0,0,0,2.52-12c.48-3.72,1.8-6.48,4-8a8.92,8.92,0,0,1,7-1.32A13.22,13.22,0,0,1,587.88,92.52Zm-57-12.6L515.88,63q-3.06-3.6-11.52-15.84a111,111,0,0,0-13.68-16.8,37.19,37.19,0,0,0-6.6-4.08l-11.76-6.36a92.74,92.74,0,0,1-11.64-7.68A243.43,243.43,0,0,1,456.6,56V110.4c-.48,6.48-1,15.36-1.44,26.76L454.44,155l2.4,69.72c0,32.28-1.08,58.32-3.24,77.88v42.24c-1.8,16.44-3.24,36.72-4.32,61.08l-2.76,60.84c-2.28,42.24-7.2,78.12-14.52,107.64l4.68-.36c7.68.24,16.08-2.76,25.08-9q4-2.7,10.08-10.08l8-10.2a462.26,462.26,0,0,0,31.92-40.56c9.36-13.56,17.76-27,25.32-40.32a324.81,324.81,0,0,0,19.32-40.08q12.78-32.4,19.8-79.8a542.16,542.16,0,0,0,6.24-81.24c0-27.48-1.2-48-3.48-61.56q-4.14-23.94-20.64-71.88c-1.92-7-3.48-12.36-4.8-16.08a57.6,57.6,0,0,0-8.76-17.16A203.93,203.93,0,0,0,530.88,79.92Z" transform="translate(-15.72 3.08)"/></g></svg>