<svg id="Layer_1" data-name="Layer 1" xmlns="http://www.w3.org/2000/svg" xmlns:xlink="http://www.w3.org/1999/xlink" viewBox="0 0 582.12 600.12"><defs><style>.cls-1{fill:none;}.cls-2{clip-path:url(#clip-path);}.cls-3{fill-rule:evenodd;}</style><clipPath id="clip-path" transform="translate(-6.48 -0.12)"><rect class="cls-1" x="6.48" width="582.24" height="600.36"/></clipPath></defs><g class="cls-2"><path class="cls-3" d="M436,543a5.4,5.4,0,0,1,.48,2.76c0,1-6.48,6.6-19.32,16.92l-1.2,1.08a96.92,96.92,0,0,1,14.88,11c7.32,6.6,12.84,13.2,16.56,20l.12.6c.12.48-.48.72-1.56.72-.48,0-6.72-4.92-18.6-14.88-7.8-6.36-13.08-11-16-13.92l-12.84,10.08-4.2,21.72-.72.36-1.2.72a25.44,25.44,0,0,1-.84-7.8c0-6,1.2-14.76,3.48-26.28,2-10.32,4-17.76,5.76-22.2l1.68,2a5.4,5.4,0,0,1,.48,2.76c0,3.12-1,9.84-2.88,20l9-7.8.12-.6.36.12,3.6-2.88q15.12-12.42,20.88-16.2A5.66,5.66,0,0,1,436,543Zm-81.72-36.72-.24,5.64,11.64-.24a9.05,9.05,0,0,1,2.4-2.4,12.57,12.57,0,0,0-3.6-3.6c-1.92-1.08-5.4-1.32-10.32-.84Zm39.6,1.92a5.71,5.71,0,0,1-.6,2.16v2.88c6.36-.24,10.68-.72,12.72-1.44a5.1,5.1,0,0,0,2-1.2l1.92-1.08a19.72,19.72,0,0,0-4.8-3.36,11.8,11.8,0,0,0-5.4-1.8c-3.48,0-5.4.6-5.76,1.92Zm16.68-50a12.77,12.77,0,0,1-1.08,5.64c-.48-.24-1.32-1.68-2.52-4.44s-2.76-4.8-4.32-5.88l-11.28.36a24,24,0,0,0-3.6,3.12c-.72.84-1.08,1.32-1.08,1.56,0,1.08,1.32,2.64,4.08,4.56l9,5.88c8.64,5.88,13,11.88,13,17.88a9,9,0,0,1-1.92,5.76c-2,2.64-5.52,4-10.32,4h-.12a21.65,21.65,0,0,1,3.36,1.08,31.29,31.29,0,0,1,9.12,5.64c2.76,2.52,4.2,4.56,4.2,6.24l-.24,3.72a6.13,6.13,0,0,1-3.12,3.48c-3.36,1.92-10.2,3.48-20.4,4.68l-.24,8.88c-.6,9.24-2.52,15.6-5.52,19.08a5.22,5.22,0,0,1-1.2-2.28,19.67,19.67,0,0,1-.12-3.12c0-10,.12-17.16.48-21.84l-1.8.12-.6-1.08-.24-2.52a6.35,6.35,0,0,1,2.4-5.28h1.32A53.28,53.28,0,0,1,391,501.12l1-2.16.24-.48v.12a5.1,5.1,0,0,1,2.52-1.92l1.08-.24c-11.64-.84-19.68-4.56-24-11.28a18.57,18.57,0,0,1-2.88-7.92v-3.72a21.47,21.47,0,0,1,.12-3.24,5.06,5.06,0,0,1,1.2-2.4c1,1.8,2,5.16,3.36,10.08a19.26,19.26,0,0,0,10.2,10.2c15-.24,23-1,24.36-2.16a74.26,74.26,0,0,0-11.52-10.44l-7.44-4.68a9.72,9.72,0,0,1-4-4.08c-.84-1.8-1.2-4.56-1.2-8.52a40.68,40.68,0,0,1,.36-7c.84-2.88,3-4.92,6.36-6.12,8.28-.84,14,.72,17.28,4.8A13.21,13.21,0,0,1,410.52,458.16Zm-81.24,91.92a74.85,74.85,0,0,1-2.16,15.12l-3.24,15v4.56l10-1.08,11.4-1.08,17.64.24,1.68,2a5.93,5.93,0,0,1,.48,2.88l-.24,2.4-.6,1.32c-6,3-13.8,3.84-23.52,2.52L330,592.8a21.57,21.57,0,0,0-10.2,2l-.6-2.28-.12-3.12c0-3.84,1.2-12,3.72-24.6,2.16-10.92,3.48-17.28,4.08-19.08a5.66,5.66,0,0,1,1.92,1.56A5.4,5.4,0,0,1,329.28,550.08ZM345,542.64a134.2,134.2,0,0,1,1.68-21.72,64.55,64.55,0,0,1,5-17.52l-.12-.24-.12-2.76a8.13,8.13,0,0,1,.48-3.12,2.91,2.91,0,0,1,1-1.32c8.88.72,14.52,2.52,17,5.4,1.08,1.2,1.56,3.6,1.56,7.32a19,19,0,0,1-.36,4.92c-.6,1.56-2.64,3.72-5.88,6.48H353.16l-1.32,8.76c-1.8,10.92-3.84,17-6,18.36l-.72-1.92Zm-121,12.6-23.16,18.48c3.24-.6,7.08-2.4,11.28-5.16L236.88,567C231.36,562.2,227,558.24,224,555.24Zm20.88,18.6-1.56.6c-4.32,1.44-14.76,2.4-31.44,2.76l-5.52,1.08L199.2,580c-1.8-.24-2.88-.84-3.36-1.92l-.12-.36c-7,5.52-13.56,10.44-19.8,14.88l-.6-1.08-.24-2.52c0-3.48,7.32-10.92,22.08-22.44,15.72-11.76,24.72-18.72,26.88-20.76,3.48,5,12.84,13.56,27.84,25.44,14.16,11.4,22.68,19.56,25.44,24.72l.24.6c.12.48-.48.72-1.56.72-1.68,0-9.6-5.76-23.64-17.28ZM348.48,449.52c2.4,2.4,3.6,4.68,3.6,7l-.24,2.52-.84,1.56-4.44-4.32c-2.76-2.52-5-3.84-6.72-3.84a16.59,16.59,0,0,0-6.48,1.08l-.24-.12a3.87,3.87,0,0,0-.24,1.8c0,1.8,1,3.72,2.76,6l6.24,6.6C348,474.12,351,481,351,488c0,3.48-.84,6-2.52,7.68-3.36,3.48-10.2,5.16-20.52,5.16-8.64,0-14.16-2-16.44-6.24a9.17,9.17,0,0,1-1.32-4.44l.24-2.52v-1.2l2.28-6.6,1.44-1a10.16,10.16,0,0,1,.24,4.44l-.48,4.56a3.68,3.68,0,0,0,1.92,3.24,10.59,10.59,0,0,0,5.64,1.32q18.36,0,23.76-2.88c1.2-.6,1.92-1.32,2-2.16l-.12-1.32q0-1.8-2.88-5.4L338,473.28c-6.12-7.56-9.24-13.8-9.24-19q0-6.66,3.6-9c2-1.32,4.8-1.56,8-.6A20.55,20.55,0,0,1,348.48,449.52Zm-199-143c-.6-5.64.6-9.48,3.36-11.52,1.56,6.12,2.28,13.56,2.28,22.32,0,5.64-.36,13.08-1.2,22.32,11.16-.48,18.12-.12,20.88,1.2,1.08.48,1.8,1.08,1.92,1.92v2.16l-.12,2.28-.24,1.32-1.08.6H152c-.48-5.88-.72-15-.72-27.24a54.92,54.92,0,0,0-.72-7.8Zm-53-56.88a128.85,128.85,0,0,0-11.76-12.24c-5.88-5.4-13.56-8.52-23.16-9.36-7.68,3.72-14.88,5.52-21.48,5.52l-7.32-.24-5.64-.6a39.62,39.62,0,0,1-8.88-1.08l-.12,2.76c-1.56,28.2-3.24,52.2-5.16,72.24v51.12c-.72,8.16-1.08,20.52-1.08,37s.36,28.8,1.08,37v53.52c.72,8.64,1.08,22,1.08,39.84l-.24,30.84A170.23,170.23,0,0,1,11.4,579q83.7-10.08,116.28-77.88,19.62-40.32,19.56-99.84a209.24,209.24,0,0,0-4.56-44.4c-.48-2.28-4.8-18.6-13.08-49a111.3,111.3,0,0,0-9.48-23.4,167.62,167.62,0,0,0-14.64-23.64C103,257.4,100,253.56,96.48,249.6ZM139.92,156a31.15,31.15,0,0,1-1.08,9.36V210l-1.68,14.88a95.3,95.3,0,0,1-2.64,16v.48l2-.36,4.2-.36q6.3,0,7.56.72l28.44-.24a10.6,10.6,0,0,1,3.36,2.28,3.74,3.74,0,0,1,1,2.64l-.36,2.4-1.08,1.32-48.12-.24-.72-1.8-.12-2.64a136.64,136.64,0,0,1,1.92-20.64c1-6.84,2.16-13.44,3.48-19.56V160.2l1.2-7.44a20,20,0,0,1,1.56-6.12A31.15,31.15,0,0,1,139.92,156ZM30.84,53C28,70.2,26.28,82.56,25.92,89.88l-2.16,35.64c-1,14.76-1.68,27-2.16,36.6l-2.64,55a3.85,3.85,0,0,1,1.08,1.8c1.2,1.32,4,1.92,8.16,1.92a90.46,90.46,0,0,0,23-2.88l.36-1a5.12,5.12,0,0,1,1.44-2.4l6.72.48C72.6,210,84,201.6,94,189.72a99,99,0,0,0,16.44-27.6c3.6-9.24,5.4-17.88,5.4-25.68a167.19,167.19,0,0,0-1.92-24.6,155,155,0,0,0-10.2-38.76Q82.8,24.3,34.2,26.28A265.41,265.41,0,0,1,30.84,53ZM158.28,64.92c3.48-1.08,5.16-2.88,5.16-5.28,0-2.76-1.68-4.8-4.92-6.12-3.24-1.08-8.64-1.68-16.44-1.8-.12,5.4-.24,10.44-.48,15.24l5.52-.36,4-.36a4.33,4.33,0,0,1,1.8-1.8L153.6,66ZM103.2,52.8c4.44,6.48,7.2,12.12,8,17l6.24,34.2a212.08,212.08,0,0,1,2.64,33.12,89.4,89.4,0,0,1-8,36.72A112.89,112.89,0,0,1,92,204.6a117,117,0,0,1-16.92,15.24C87.72,226,99.72,237.6,111,254.52a191.62,191.62,0,0,1,16.32,30.84,133.67,133.67,0,0,1,7.44,21c4.92,21.12,9.48,38.88,13.92,53.4a103.76,103.76,0,0,1,2.28,15.6c.36,5.4.6,14,.6,25.92,0,10.92-2,28.68-6,53-3.72,22.68-6.84,38.28-9.48,46.8q-12.42,39.42-57.36,67.68A182.63,182.63,0,0,1,44,586c-10.44,4-18.72,5.88-24.6,5.88l-10.2-.36a11.67,11.67,0,0,1-2.76-8l.12-3.36-.12-1.68Q9.72,530.52,9.72,524c0-14.88-.36-25.8-1.08-32.88V436.8c-.48-5.88-.84-14.28-1-25.32l-.12-16.92c0-19,.36-33,1.08-42.24V301.2q2-28.08,4-73.32L16,154.68c2.76-50.88,6.72-94.32,12.12-130.44l-.48-1.08a10.46,10.46,0,0,1-.48-3.6,4.14,4.14,0,0,1,2.28-4l1-5.64A10.89,10.89,0,0,1,34,14.52l.12.24c4.8,0,12,1.68,21.6,5.16A171,171,0,0,1,76.8,28.8c6.72,3.36,10.92,5.88,12.72,7.68A164.08,164.08,0,0,1,103.2,52.8Zm72.48,52.44-.6.48-.84.84L161.88,90a162.59,162.59,0,0,1-9.48-14.52l-11.52-.12-.36,2.52c-1.56,12.24-4,20.4-7.44,24.36a4.54,4.54,0,0,1-1.08-1.56,10.58,10.58,0,0,1-.24-2.64c0-4,.84-11.52,2.52-22.8h-2.76l-.72-1.8-.12-2.76c0-1.44,1.56-2.52,4.8-3.12a153.51,153.51,0,0,1,3.12-15.84l-1.68-.12-1.56-.24a11.54,11.54,0,0,1-.36-3.6q0-4.14,5-5c3-.6,6.72-.12,10.92,1.32a30.67,30.67,0,0,1,11,6.12c3.24,2.88,4.92,6,4.92,9.24a22.17,22.17,0,0,1-2.16,9.36c-1.56,3.36-3.6,5.52-6.12,6.36L163,81.48A169.66,169.66,0,0,0,175.68,97.2ZM317.52,35.52A18.8,18.8,0,0,0,315,29.28c-3-4.44-10-7.68-20.64-9.84-4.2-1.92-8.16-3.6-11.88-4.92q-11-3.78-16.2-.72a35.08,35.08,0,0,0-12.36,6.12,64.21,64.21,0,0,0-8.16,7.44C231.48,41.88,221.88,59.88,217,81.12c-1.56,6.48-3.12,15.6-4.68,27.48-1.68,12.84-3.12,22.08-4.2,27.48a991.58,991.58,0,0,0-16.32,109.68q-4.5,49.68-4.56,108.24c0,2.28,1,17.64,2.76,46.32,1.56,26.16,2.16,40.92,1.68,44.28-2.4,14.28.24,29.16,8,44.64C208,505.68,220.32,519,237,529.32q42.3-.72,64.56-58.08a261,261,0,0,0,12.12-42.72l4.56-26.64a775.71,775.71,0,0,0,14-129.12V224q-1.08-53.64-2.16-79.56V96.6c-3.72-22.92-7.32-41-11-54.36ZM322.8,33l6.36,28.44c2.4,11.16,4.2,20.64,5.28,28.44V138.6q1.08,29.16,2.16,87.6,0,35.28-2.64,77.28Q330.18,362.34,322.08,409,299.22,542,249,542l-12.48-.24q-27.54-15.66-40-42.72c-6.6-14.52-9.72-31-9.36-49.08.12-5-.48-21.6-2-49.68-1.56-28.68-2.28-43.92-2.28-45.72l.12-15.48-.24,2.76-.24,3.84-.72.36v-4.8l.12-5.76A4.56,4.56,0,0,1,183,338.4q1.44-108.9,21.36-210.72L208.8,100c1.8-11.52,3.6-21,5.52-28.32A132.18,132.18,0,0,1,246,14c5.28-5.64,12.36-9.6,21.12-12.12,12.24-3.48,24-1.92,35.16,4.8,8.88,1.8,14.64,5.64,17.4,11.52C321.24,21.48,322.2,26.4,322.8,33Zm40.92,364c4.56.6,9.12,3.48,13.68,8.76l6,7.44,3.48,4.08c7.2-6.48,14.76-13,22.56-19.44l.84,1.8.24,2.64c0,2.52-5.88,9.48-17.64,20.64l11.4,9c8.52,7.32,12.72,12,12.72,14l-.24,4.08-.24.12-.6.72c-4.68-3.36-13.8-11.28-27.36-23.88l-1,.84c-13.68,12.6-23,20.64-28.2,24.12a12.48,12.48,0,0,1-.36-3.72c0-3.48,7.2-11.88,21.72-25.44l1.8-1.56c-12.84-12.12-19.2-19-19.2-20.64l.12-2.16ZM395.4,354.6c0,1.92-2.76,8.76-8.16,20.52-4.08,9.12-7.92,17-11.4,23.76-3.36-4.44-6.72-10.8-10-19L357.72,359c-1.32,4.44-3.12,11.76-5.4,22.08-2.52,9.36-5.16,16.68-8.16,22.08a7.31,7.31,0,0,1-1.92-2,6.48,6.48,0,0,1-.48-3c0-1.08,1.32-5.16,4-12q4.32-11.16,5-14.4l2.64-13.56c1.2-5.16,2.52-9,4.08-11.28,7.8,17.64,13.68,31.44,17.52,41.4q3.78-5,9-18c3.84-9.36,7-16.08,9.48-20.16a3,3,0,0,1,1.44,1.56A5.93,5.93,0,0,1,395.4,354.6Zm60.12-49.68a5.4,5.4,0,0,1,.48,2.76q0,6.66-19.08,31l-6.84,8.64c1.08,6.24,2.28,12.6,3.6,19.2,2.16,10,4.56,19,7.08,27V400l-.6.48-.72.84c-1.44-2.4-3.84-11-7.08-26-2.64-11.64-4.2-19.92-4.8-24.84l-5.16,6.12c-4,20.52-6.48,34.32-7.56,41.28l-.6.36-1.32.72a7.67,7.67,0,0,1-.72-2.64l-.12-3.48c1.56-10.8,3.12-20.76,4.68-30l-1.68,1.44-.6-1.08-.24-2.52c0-1,1.44-3.6,4.2-7.92,4.2-23.64,8.4-41.16,12.6-52.32l.84,2,.24,2.88c0,1.2-2.28,13.56-7,37.2l3.48-5c8-11.4,16.32-22.8,24.84-34.08A6.27,6.27,0,0,1,455.52,304.92ZM427.8,196.44c.72,8.64,1.08,22.08,1.08,40.2l-.12,8.16,9.6-.48v-.48c4.68-.12,8,.36,10.08,1.2l.12-4.56c1-21.72,2.76-36,5.28-43l.72,1.32.36,2.76c0,3.24-.6,12.24-1.92,27-1.08,14.4-1.92,23.28-2.4,26.52V299l-.48.48-1,.84c-.84-5.16-1.32-13.8-1.32-25.68,0-7.56.12-14.88.24-21.72l-19.56-.12-.24,8.4-1.56,39.12-.6.48-.72.84-2.16-.24A39.15,39.15,0,0,1,423,297q0-18.18,3.24-28.08V198.36l.72-1.2Zm-18.6,12.48q-19.62,0-26.88,52.8a403.41,403.41,0,0,0-3.24,54.36,85.67,85.67,0,0,0,1.08,13q1.8,11.88,5.4,11.88c11,0,19.2-4,24.36-11.76a39.4,39.4,0,0,0,4.2-9l2-5.76,1.44,1.32a5.4,5.4,0,0,1,.48,2.76c0,1.32-.6,3.48-1.92,6.72a59.64,59.64,0,0,1-5.28,10.32c-6.12,9.24-12.84,13.8-20.16,13.8-6.72,0-11.16-5.52-13.2-16.44a81.81,81.81,0,0,1-1.08-11.52v-5.52a434.53,434.53,0,0,1,5.28-68.16q7.38-45.18,20.88-47.16,8.82-.54,11.52,2.88a4.14,4.14,0,0,1,.72,3.72l-.12,2.28-.12,1.44c-.24,0-.48.24-.84.72l-1.92-1.68A4,4,0,0,0,409.2,208.92Zm-43.56-10.68c9.24.24,15.12.84,17.88,1.92q2,.72,2.16,1.8l-.12,1.8-.24,3.24.48.24-1.56.36-13.8-.84-4.32-.24q-.18,27.18-5.4,91.44l-.48.48-.84.84q-1.44-2.16-1.44-8.64c0-7.2.72-22,2.16-44.4q1.62-26.64,3.24-40l-5-.6-14.64-.6-.6-1.08-.24-2.52c0-2.16.48-3.6,1.32-4.2l15.24.84,5.28.12.36-1.8ZM381,49c.84,3.24,1.32,8.28,1.32,15a361.34,361.34,0,0,1-4.32,46c-4.68,29.76-11.52,44.64-20.76,44.64-6.84,0-11.28-6.84-13.32-20.4a117.36,117.36,0,0,1-1.08-13.92v-6.6c0-9.12.48-21.6,1.56-37.44,1.32-19.68,2.76-30.12,4.44-31.32a13,13,0,0,1,1.08,5.76l-2.16,28.08c-1.44,19.32-2.16,30.84-2.16,34.8l1.08,16.68c1.32,10.68,3.72,16,7,16q18,0,23.4-38.16c1.08-7.92,1.8-18.6,2.4-32C380.16,61.2,380.64,52.2,381,49Zm44.16-1.32c3.24,1.2,4.8,5,4.8,11.64l-.24,2.4-.84,1.68a8.57,8.57,0,0,1-1.44-2.76L427,58.08c-.6-1.8-2.64-2.64-6.12-2.64-11.76,0-19.92,11.16-24.36,33.36a162.79,162.79,0,0,0-3.24,34.44,37,37,0,0,0,1.56,11.88,20.15,20.15,0,0,0,8.88,11l6.84-.36a27.82,27.82,0,0,0,14-12,28.89,28.89,0,0,0,4.32-13.92l1.08-.24.12.24.48-7.32c-.24.6-1.2.84-3,.84l-12.48-.24a10.56,10.56,0,0,1-.72-2l-.12-2.88a28.08,28.08,0,0,1,.36-4.56c.24-.12.6-.12,1.2.24L417,105q12.24-1.62,15.84,0c1,.48,1.44,1.68,1.44,3.48,0,9.6-.12,17.28-.48,23.16A207.2,207.2,0,0,1,431,156.36h-1.32c-.12-8.28-.12-15.72,0-22.56a35.31,35.31,0,0,1-19.44,20.76c-9.84-2.16-16.08-7.08-18.6-14.76a33.3,33.3,0,0,1-1.32-9.12l.12-7.2a206.62,206.62,0,0,1,2-24.48c1-7.68,2-15.12,3.36-22.2.84-4.2,3-8.88,6.6-14a49.9,49.9,0,0,1,11.64-11.88C418.56,47.76,422.28,46.68,425.16,47.64Zm54.48,3,.12,3.72L478.2,85.2l-.6,10.56V97c-.72,13.8-1.08,22.92-1.08,27.24l-.12,17.52a97.38,97.38,0,0,1-2.28,17.88l-.84-25-.48-16.92V100l-10.68,1.92-13.68,2.52v19.8l-1.68,16.2a95,95,0,0,1-2.76,17h-1.32c-.12-1.08-.24-3.24-.24-6.48,0-5.52.24-10.92.72-16.32a103.4,103.4,0,0,1,2.52-16.08V73.92A149.42,149.42,0,0,0,448.2,59c.72-6,1.92-10,3.48-12a15,15,0,0,1,1.08,6.48,69.66,69.66,0,0,1-1.44,12.72,102.61,102.61,0,0,1-2.88,12.48V95.16l1.44-.12,22.92-2.88L473.16,80c.72-15.48,2.52-26.52,5.52-33A11.36,11.36,0,0,1,479.64,50.64Zm52.68,163.08V325.8c-.12,7.32-.84,18.36-1.92,32.88-.6,13.08-.36,24.12.84,32.88V494.64l-3.12,50.28c-.84,14.88-2.16,27.72-3.72,38.4l.6.12q25,0,41.4-32.28a165,165,0,0,0,9.48-23.88l3.72-14.16c.48-1.8,1.44-13.32,3-34.56s2.16-34.44,2.16-39.36c0-6.6-1.44-25.8-4.2-57.36-2.88-33.24-5-53.4-6.6-60.36-1.2-5.16-3.24-16.32-6-33.6q-4-24.66-7.2-37.8c-6.36-25.68-15.12-39.84-26.16-42.36Zm0-20c1.56-1.08,3.84-.6,6.72,1.44q9.18,6.48,17.28,24.12c4.32,13,7.44,23.52,9.24,31.56,4.92,20.88,8.88,41.76,12.12,62.52,1.2,8,3.36,29.16,6.36,63.36,3,34.92,4.56,55.8,4.56,62.52q0,56.7-10.32,95.76c-10.44,39.36-27.6,59-51.72,59l-4-.36-.36,1.44-1.2-1.92a5.79,5.79,0,0,1-2.88-2.4c-.36-.6-.48-2.16-.48-4.56a9.2,9.2,0,0,1,.72-4.08,4.25,4.25,0,0,1,1.92-1.92l1.2-17-1.44,4.08c-7,18.36-16.92,27.6-29.76,27.6-18.84,0-30.72-10.92-35.88-32.76A123.72,123.72,0,0,1,451.68,538c.12-8.4.12-13.32,0-14.64q-.54-5.22-1.44-37.8-.72-30.78-.72-38.52c0-30.84.36-53.76,1.08-69l1.08-6.36v-.36a15,15,0,0,1,.24-2.88l.48-1,3.72-23.88c1.8-13.32,3-24.84,3.36-34.56.24-6.12,1-17.64,2.28-34.56,1.2-15,1.92-26.52,2-34.44.24-12.84,2.76-23.28,7.44-31.2,4-6.72,9.12-10.92,15.36-12.6a16.59,16.59,0,0,1,15,2.64q6.84,5.22,6.84,14.76a10.23,10.23,0,0,1-.84,4l-1.56,3a8.1,8.1,0,0,1-1.8-3l-2.16-5c-2.4-4.56-5.64-6.84-9.84-6.84-14.52,0-23,8.76-25.8,26.16a98.2,98.2,0,0,0-.84,19.44l.6,11.76c-.6,7.2-1.08,17.52-1.68,30.84L463,324.72c-.84,12.84-2,26.52-3.6,40.92l16.68-1.8A228.94,228.94,0,0,0,508,357.72l1.2,2.4a12.08,12.08,0,0,1,.36,3.24l.48,1.08c.12.48-.24,1-1.32,1.56-3,1.56-11.52,3.24-25.44,5-1.68.12-5.88,1.08-12.72,2.88l-10,2.52-2.4-.12-1.92,16.44c-2,15.48-3,33.6-3,54.12l.12,34.08a408.57,408.57,0,0,0,2.88,46c4.92,38.4,15.48,57.6,31.92,57.6,11.4,0,20.64-8,28-24.24a99.76,99.76,0,0,0,6-17.76c1.2-5.28,1.56-8.64,1.2-10.2l.48-.48.24-.24,3.36-40.68V395l-1.08-3.24v-43c.36-2.76.72-7.08,1.08-12.72q.54-8.82,1.08-13.32V209.16l1-8,.24-1.44C530,196.56,530.88,194.52,532.32,193.68Zm46-173.88c-.72,1.56-1.56,2.4-2.64,2.4l-2-.48-2-.84c-2.88-1-8.52-1.44-17-1.44-8.76,0-21.72,1.44-38.76,4.32.72,5.88,1.2,12.72,1.44,20.4l.24,28.32q0,27.18-2.52,60.48c-1.08,13.2-2.88,34-5.4,62.16l-1.32.24a49.86,49.86,0,0,1-1.56-11.28l-.12-12.24a482.11,482.11,0,0,1,3.24-51.72c2.28-19.8,3.36-35.64,3.36-47.76l-1.2-22.68-1.08-22.8.24-2.4-5.16.84Q473,31.08,454.08,31.08c-9.48,0-15.24-.72-17-2.16a2.72,2.72,0,0,1-1.08-2.4l.24-2.88c0-1.68,1.56-3,4.56-4a125,125,0,0,1,16.68-2.76l87-9.84c16.92-.36,27.6.48,32,2.64,1.56.84,2.52,1.8,2.76,2.88a10.52,10.52,0,0,1-.12,2.64A11.83,11.83,0,0,1,578.28,19.8Z" transform="translate(-6.48 -0.12)"/></g></svg>