<svg id="Layer_1" data-name="Layer 1" xmlns="http://www.w3.org/2000/svg" xmlns:xlink="http://www.w3.org/1999/xlink" viewBox="0 0 575.4 596.04"><defs><style>.cls-1{fill:none;}.cls-2{clip-path:url(#clip-path);}.cls-3{fill-rule:evenodd;}</style><clipPath id="clip-path" transform="translate(-10.32 1.92)"><rect class="cls-1" x="10.32" width="575.52" height="594.24"/></clipPath></defs><g class="cls-2"><path class="cls-3" d="M454.56,530.52c-13.56,0-22.68,5.64-27.24,16.8a40.36,40.36,0,0,0-3,18.24,41.67,41.67,0,0,0,1.08,11c2,6.36,6.36,9.6,13,9.6,4.2,0,11-1.68,20.52-5.16l15.48-6.12.6.84a9,9,0,0,1,.24,2.4c0,1.08-4.2,3.84-12.48,8.16-8.64,4.44-14.64,6.72-17.88,6.72-11.52,0-18.72-4.32-21.6-13.08a28.39,28.39,0,0,1-1.44-9.36l.36-5.16c0-13.08,2.64-23,7.92-30.12A25.67,25.67,0,0,1,447.6,525a28.92,28.92,0,0,1,17.4,2.52c5.4,2.52,8,5.28,8,8.52a8.81,8.81,0,0,1-.24,2.88l-.6.72-6.6-5.16A18.59,18.59,0,0,0,454.56,530.52Zm-10-51.72c6,3.84,15.12,10.08,27.24,18.84,15.6,11.16,23.4,17.52,23.4,19.32l-.36,3.24.24.72c.12.36-.48.6-1.56.6q-6.12,0-56.64-39.48-34.38,24.48-46.2,36a8.28,8.28,0,0,1-1.32-2,15,15,0,0,1-.24-2.88q0-3.42,14-15.48c7.68-6.6,16.68-13.56,27.12-20.88L401,453.36c0-5.88,7-3.6,21,6.84,4.8,3.6,9.84,7.56,15,12a288.76,288.76,0,0,1,28-17.28c9.24-4.8,13.92-5.64,13.92-2.64L443.16,477.6ZM550,531.24l-.12,2.28-.24,2.4-.6,1.56c-4.68-3.36-7.2-5.28-7.8-5.88-18.84.12-31.32,4.92-37.68,14.4a25.29,25.29,0,0,0-3.6,9,199.38,199.38,0,0,0,21.72-2.28l26.28-3.84.6.84.12.36.12,2.52-.36,2.52-.72,1.08c-13.08.84-22.68,1.92-28.8,3.48a56.88,56.88,0,0,1-14.52,1.92l-5.28-.12-.12,3.36c0,15,5.4,22.44,16.32,22.44,14.88,0,25.56-2,31.92-6.24a22.92,22.92,0,0,0,5-4.68,11.66,11.66,0,0,1,3-2.88l.84,1a8.56,8.56,0,0,1,.24,2.28c0,.84-.6,2.16-1.92,4a32.37,32.37,0,0,1-5.64,5.88,31.47,31.47,0,0,1-20.52,7.56l-7.92-.24-6.12-.6c-8.52-.36-14-4.56-16.32-12.36a39.31,39.31,0,0,1-1.2-9.24l.12-6.84v-3.48h-.48l-.36-.72a7.5,7.5,0,0,1-.24-2.16,14.15,14.15,0,0,1,.24-2.64v-.72h1l.12-1.2A20.31,20.31,0,0,1,499.2,546c1.92-4,8.4-11,19.32-21.24,15-.48,24.6.6,28.92,3.36A4.81,4.81,0,0,1,550,531.24ZM341.88,586a8.06,8.06,0,0,1-.36-2.76c0-2.4,2.16-10.44,6.36-24a297.38,297.38,0,0,1,13.92-37.32c3.24,7.2,6.84,16.32,10.68,27.24l9.12,27.12v.24c2.76-5.16,6-13.8,10-25.8s7.2-20.52,10-25.92l1.32,2.28a11.13,11.13,0,0,1,.36,3.12c0,1.8-3.12,10.92-9.36,27.6-7.08,18.6-10.92,29.28-11.76,32-3.6-6.12-7.32-15.24-11.16-27.24-4-13.56-6.84-23.16-8.88-29-1.08,3-2.4,7.08-3.72,12.24l-3.6,13.8c-3.24,11.64-7.2,20.88-12.12,27.72ZM150.48,305.28c0,7.44-1,18.12-3,32.16l-4.56,29.88,18.48,1.56,7.44.84c3.24,0,5-.36,5.28-1.08a5,5,0,0,1,.12-3,8.67,8.67,0,0,1,1.68,3.12l.48,2.52a9.92,9.92,0,0,1-1.08,5.28l-10-1c-3.12-.36-4.8-.72-5.16-1l-20-.6-.36-.72a7.5,7.5,0,0,1-.12-2L144,339.36c2.88-21.36,4.44-35.64,4.56-42.72h1.08C150.24,298.32,150.48,301.2,150.48,305.28ZM168,196a26.39,26.39,0,0,0,1.92-8.64,19.77,19.77,0,0,0-7.08-15.6c-5.16-4.44-13.2-7.8-24.24-10.08v1.56c0,4.2-1.8,23.16-5.4,57.12l-.36,3.36a36,36,0,0,0,13.56-2.76l.24-1.08h.84l.24.48a36.77,36.77,0,0,0,14.16-12.24A52.23,52.23,0,0,0,168,196ZM136.44,158a10.92,10.92,0,0,1,.24-2.52l.24-.36V155H137l.48-.24c15.12,2.76,25.2,7.56,30.12,14.4,3,4,4.44,10.2,4.44,18.72,0,8.28-2.28,16.44-6.72,24.72-3.72,7-8.52,11.88-14.4,14.88l17.28,37.08c9,19.56,13.56,30.12,13.56,31.56a6.33,6.33,0,0,1-.84,3.72c-1.08,1.56-3.12,2.4-6.12,2.76l-.36-.72a5.94,5.94,0,0,1-.24-2,4,4,0,0,1,1.32-2.76,3.58,3.58,0,0,0,1.2-2.64L161.4,260.64c-6.84-15.36-11.4-26-13.68-31.92a30.81,30.81,0,0,1-10.2,1.68l-5.4-.24c-3.48,31.8-6.24,53.88-8.4,66h-.84a19.79,19.79,0,0,1-.6-5.64c0-2.28,2-21.24,6-56.76l8.16-73.92Zm-111,55.68c0,8.88.36,20.4,1.08,34.68.6,12.12,1.32,22.8,2.16,32.28V329.4c.24,1.56.72,8.76,1.32,21.84.6,12.84.84,20.88.84,24.12q0,47.16-4.56,116.88Q23.22,536.7,20,561.6l.6,2.28a24.4,24.4,0,0,1,.24,5l2,.48,4.2.6q47.16,0,76.32-31.8a106.16,106.16,0,0,0,16.44-23.76,93.13,93.13,0,0,0,6-14.76c1.8-6.6,3.48-18.36,5.28-35.16,1.68-16.32,2.52-29.28,2.52-38.76a466.13,466.13,0,0,0-3.6-58.8A351.75,351.75,0,0,0,117.48,308l-8.16-29.52A232.87,232.87,0,0,0,99,248.76a119.71,119.71,0,0,0-27.72-38.64L60.24,200l-.6-.48a45.94,45.94,0,0,1-13.08,1.8l-20.64-.24Zm24.12-187-19.8-7.68-1-.36v1.44l-.36,19.56c-.36,5.4-.36,13.2-.24,23.64l.48,15.72c0,1.08-.12,1.68-.48,1.68l-.6-.36v46.2c.84,8.4.84,22.56-.24,42.48L26.52,186q45.18.9,61.2-30.6c5.4-10.44,8-24.48,8-42,0-6.84-1.08-16-3.12-27.48A262.83,262.83,0,0,0,86,58.2c-2.4-8-7.32-14.76-14.76-20.28C66.12,34,58.8,30.24,49.56,26.76ZM100.2,83.88c.6,5.64,1,15.6,1,29.88a146.64,146.64,0,0,1-7.44,45.84c-5,15.12-12,26.16-20.76,33,2.4,2.64,4.92,5.88,7.68,9.6,7.56,10.68,14.76,24,21.84,39.72a375.43,375.43,0,0,1,20.16,57.72c6.84,24.72,11.28,46.44,13.56,65.16q2.88,23.76,2.88,61.56c0,16.32-.48,29.16-1.32,38.64-1.56,18.12-5,34.08-10.2,48.12q-22,59.22-85.32,72.36l-8.52-.24-8.88-.6-8.64-.48-1.08,3.48c-1.44-1.2-2.64-3.48-3.72-6.72a22.88,22.88,0,0,1-1.08-5.4c0-1.8.84-9.6,2.4-23.16l5.16-47q7.56-74.7,7.56-130c0-4-.24-11.28-.84-21.72-.6-10.68-1-16.8-1.32-18.48V285.6a279.5,279.5,0,0,1-3-35.64c-.12-5.64-.24-17.76-.24-36.24,0-14,.24-26.28.6-36.72l1.56-44.64V36.48c.72-2.88,1.08-8.76,1-17.52l.12-4.32a7.32,7.32,0,0,1-2.16-5c0-3.48,1.44-5.88,4.32-7V2.4l.12.24,1.56-.48c3.36-.72,8-.12,13.92,1.68A76.33,76.33,0,0,1,57.36,11a61.21,61.21,0,0,1,12.72,9L82.8,36.48c4.32,5.88,7.32,10.92,8.88,15.24C96.12,63.84,99,74.64,100.2,83.88Zm81.48,60.36.12,2.52-.24,2.52-.84,1.2-9.24-.84-7-1.08-12.24-.36-12.6-.72-7,.12L125,148a12.5,12.5,0,0,1-.6-4c0-1.08,1.92-11.28,5.88-30.48,4.08-19.8,6.24-32.64,6.6-38.52h.84l1.2,1.2a5,5,0,0,1,.72,2.76c0,2.28-1.56,11.76-4.56,28.68-2.88,16-5,26.88-6.36,32.76l5.64.36,6.36.72,24.84,1.08,15.48.6ZM223,47.88l-28.44.24-3.12,1.2-4.68,1.32-1.08-2.4c-10.2,13.2-18.24,23.4-24.36,30.48-1.32-1.32-1.92-3.36-1.92-6.24,0-2.4,7.68-13.68,23-33.72C196.68,19.92,207.12,7.08,213.48.24c5.88,8.88,13.8,22.44,24,40.8C247.8,59.88,253,70.32,253,72.48a8.39,8.39,0,0,1-.48,3.24l-1.32,2.16c-5.76-6.6-11.76-16.32-17.88-29.16l-4.68-.24Zm5-10.08c-5.52-11-10.56-19.44-15-25.08L194.28,37l.6-.12q29.34.18,30.24.72ZM365.28,342.48c0-14.4-.72-32.4-2.28-53.88q-2.88-41-8.28-75.12-14.94-95.94-42.48-100.08c-8-14-16.92-21.36-26.88-22.08-8.16-.6-16.68,3.12-25.56,11.4A111,111,0,0,0,240.12,128c-5,8.52-8,14.88-9,19.2-6,19.8-10.08,33.6-12.36,41.52q-6.12,22.86-9.36,41-12.24,69.84-14.16,83.64c-4.2,29.64-6.36,56.76-6.36,81.6l.48,31.44a461.49,461.49,0,0,0,6.84,62.4q17.1,88.74,66.24,88.68,25.38,0,55.44-52.56c6.36-11.16,13.08-24.24,19.92-39.48,6.12-14.16,10-22.68,11.28-25.44,5.28-10.92,9.48-29.76,12.48-56.4A525.59,525.59,0,0,0,365.28,342.48Zm.6,65.28q-5.22,40.32-11.88,60.48c-3.6,10.68-9.12,23.16-16.44,37.68-7.32,14.16-15.12,27.72-23.52,40.8-8.76,13.8-16.92,24.72-24.24,32.88-8.16,9-14.52,13.44-19.2,13.44q-59.58,0-79-89.4-6.3-29.16-7.8-66.48-.36-8.1-.36-41,0-23,6.12-67.92c4-28.8,9-59,15.36-90.72q9.72-49.86,19.68-85.44c7.44-26.4,14-43.56,19.68-51.6,17.16-24,36.84-28.92,59.28-14.64,7.56,4.92,14.76,11.64,21.84,20.16,5.4,6.6,9,11.88,10.68,15.84a241.88,241.88,0,0,1,14,37,302.17,302.17,0,0,1,8.64,36.84q4.32,26.1,8,70.56,3.78,47,3.84,76.68C370.68,360.84,369.12,382.44,365.88,407.76Zm61.56-30.6c.84-2.88,3.12-4.56,6.6-4.92,7.92,0,13.2,1.2,15.84,3.72a6.59,6.59,0,0,1,2,5.16,13.17,13.17,0,0,1-.24,2.88,5.18,5.18,0,0,1-4.08,3.12,18.38,18.38,0,0,0-1.92-3l-3-3-8.88.24-3.36,1.8a4.94,4.94,0,0,0-.24,2c0,1.44,1.44,3.36,4.32,5.64l9.24,7.32c9,7.44,13.56,15.36,13.56,23.76l-.36,3.84a29.7,29.7,0,0,1-2.4,7.8q-5,11.16-17.28,11.16l-21.12-.24c-7.56-5.4-11.88-9.48-13.2-12.24a14.47,14.47,0,0,1-1-5l.12-7.08a43.23,43.23,0,0,1,.84-7.68,33.26,33.26,0,0,1,2.4-8.64c1.44.84,2.16,2.52,2.16,4.92a31.4,31.4,0,0,1-1.08,5.64,30.27,30.27,0,0,0-1.08,5.76v4.68a4.89,4.89,0,0,0,1.2,2.64c1,1,4.56,3.72,10.92,8.28,14.52.6,24.72-1.08,30.6-4.8q5.4-3.42,5.4-9a13.78,13.78,0,0,0-4.08-9.6c-1.32-1.44-4.44-3.84-9.12-7.2a46.34,46.34,0,0,1-9.12-8,18.75,18.75,0,0,1-4.2-12C427,380.88,427.08,378.24,427.44,377.16Zm6.36-141.24-.12,2.64a5.71,5.71,0,0,1-2.88,3c-4,2-12.12,3.36-24.6,4.2l.36,7.8.12,17.4q0,23.58-1.08,34.92v53.64c-.12,1.56-.36,4.08-.72,7.8a15.33,15.33,0,0,1-3.36,8.16l-2.4-.36a61.79,61.79,0,0,1-.48-9.24,20.88,20.88,0,0,1,1-6l2.28-6.36V299.88l.36-1.56.72-1.68V248l-.72-2-2,.12A73.47,73.47,0,0,0,387.6,248l-7.08,1.56-1.68-.36c-.12-.36-.6-.6-1.32-.72a35.31,35.31,0,0,1-.6-5.28,11.55,11.55,0,0,1,.24-2.88,2.83,2.83,0,0,1,2.16-1.8c1.92-.72,9-2,21.12-3.84l29.88-3.36q2.7-.18,3.24.72Zm81.72-11.76a22.59,22.59,0,0,1,1.32,8.52q0,11-8.88,67.8c-2.76-1.56-4.08-3.12-4.08-4.92a106.51,106.51,0,0,1,1.44-17c.6-3.72,1.44-8.28,2.64-13.68L500,266.16l-11,.24-11.64.84-15.72-.36-.84-.84-.72,7.08c-1.8,16.44-2.88,25.32-3.36,26.52a5.6,5.6,0,0,1-2.16-1.68,6.48,6.48,0,0,1-.48-3c0-10.92.6-22.68,1.8-35.4.84-9.12,2.28-20.64,4.2-34.56,1.08,1.08,1.8,3.6,2.16,7.68a57.92,57.92,0,0,1,.48,8c0,2.88-.36,8.4-1.08,16.44l.84-.48.72,1,.36.6,14.88-.84,21.6-1.08,9,.36.72.72c.6-3.36,1.32-8.88,2.16-16.44S514,227.88,515.52,224.16ZM427.32,95.52l-1.68,2.76a5.16,5.16,0,0,1-1.08-2.76l-.6-2.64c-.72-2-3-3.72-7-4.92q-26.82-2.88-40.44,33.24a146.1,146.1,0,0,0-7.2,28,111.88,111.88,0,0,0-1.92,18.6,134.43,134.43,0,0,0,2.76,28.44c3.72,16.92,10.56,25.32,20.52,25.32,9.48,0,17.16-4.68,22.92-14a52.63,52.63,0,0,0,4.8-10.44l2-6.24c1.44.84,2.16,2.64,2.16,5.28-8,22.92-16.8,34.32-26.52,34.32-15.36,0-25.32-10-29.76-29.88a113.18,113.18,0,0,1-2.28-21.36L364.2,168,364,154.08a61.3,61.3,0,0,1,.48-9c.6-4.44,3.36-14,8.4-29,4.2-12.24,9.6-21.72,16.2-28.32,5.64-5.64,11.76-8.76,18.24-9.6,5.64-.72,10.44.36,14.64,3.36C426,84.24,428,87.84,428,92.16A8.47,8.47,0,0,1,427.32,95.52Zm-62.16-30a8.39,8.39,0,0,1,.48,3.24,8.39,8.39,0,0,1-.48,3.24L364,74.4h-24.6l-.6-.48-6.84-.36-7.2-.72L316.8,73l-8.88.36A19,19,0,0,1,306.6,66c0-13.56.36-24.24,1-32.28,1-12.84,2.76-22.92,5.52-30.24,1.08,3.84,1.68,9.84,1.68,17.88l-.24,13.08c-.72,4.2-1.68,10.92-3,20.28V61.2l14.28,1.32,15.12,1.08c14.64-.12,22.32-.36,23-.6ZM570,31q-10.26-15.48-22.32-15.48c-14.28,0-24.84,5.88-31.68,17.76A50.63,50.63,0,0,0,511.2,46a32,32,0,0,0-1.08,6.84c0,11,3.6,24.24,10.92,39.48,2,4.2,5.88,11.4,11.28,21.6s9.84,18.72,13,25.08a327.66,327.66,0,0,1,24.12,66.36q11,44.46,11,98.16,0,47.34-8.88,86C562.8,427.8,549,446.88,530.4,446.88q-32.76,0-49-31.44a88.14,88.14,0,0,1-7.92-22,56.72,56.72,0,0,1-1.8-10.8q0-12.42.36-15.48c.84-6.24,3.12-11,6.84-14.28a4.92,4.92,0,0,1,2.4,2.88,12.71,12.71,0,0,1,.6,3.72L479.28,370c-1.8,6.72-2.76,10.68-2.76,11.88s1,4.44,2.76,9.6a130.73,130.73,0,0,0,7.8,17.64q13.32,24.48,28.44,24.48c27.72,0,46-21.36,55-64.08a269.31,269.31,0,0,0,5-44.52V303.72q0-49-10.92-91.68c-5.4-21-13.56-42.84-24.24-65.52Q522.9,112,516.24,97c-7.32-16.68-11-31.32-11-43.92,0-17.28,4.2-30.12,12.6-38.64q11-11,27.72-9.36a45.46,45.46,0,0,1,27.6,13.08q12.6,12.06,12.6,28.44a10.44,10.44,0,0,1-2.88,7.32A105.05,105.05,0,0,1,577.2,43.8C574.2,38.16,571.8,34,570,31ZM447.36-1.92a135.87,135.87,0,0,1,1.44,18.36l.12,18.24c0,8.28-1,27.36-2.76,57.24,3-7.2,7.8-18.12,14.64-32.64C473.4,32.76,484,12.72,492.48-1.08A4.41,4.41,0,0,1,495.36,2l.12,3.6c0,.72-1.8,5.4-5.4,13.92C486,29,481.56,39,476.64,49.2L468,67.08a68.72,68.72,0,0,1,2.52,10.56L472,88.92A65.75,65.75,0,0,0,473.88,99q6.66,30.06,8.64,40.68l12.36,38.88c7.56,24.12,11.4,38.16,11.4,42.12l-.24,4.8-.6.48-1.08,1c-7.32-23.16-14.52-46.8-21.36-70.8-10.92-37.92-17.4-64.56-19.68-79.92q-10.44,19.8-18,29.52l-1.8,27.48q-5.4,80.1-7.08,90.48c-2.16-1.8-3.24-4.56-3.24-8.16L437,183.36c2.52-22.2,3.72-37.08,3.72-44.76l1.56-38.16c.6-15.72,1.56-28.68,2.88-39V1.32A4.31,4.31,0,0,1,446-.84C446.52-1.56,447-1.92,447.36-1.92Z" transform="translate(-10.32 1.92)"/></g></svg>