<svg id="Layer_1" data-name="Layer 1" xmlns="http://www.w3.org/2000/svg" viewBox="0 0 303.95 208.89"><defs><style>.cls-1{fill-rule:evenodd;}</style></defs><path class="cls-1" d="M184,277.08a38.4,38.4,0,0,1-20.76,6l-1-75.24c17,4.2,29.64,14.16,37.8,30C204.24,254.52,198.84,267.6,184,277.08Zm106,34.56q24.66,13.86,25.92,41c.6,13.68-5.4,23.4-17.88,29.16q-29.88,14.22-35.76-14.76a58.45,58.45,0,0,1,4.44-38c4.2-9,11.28-14.76,21.24-17Zm-8.52-11.28a20.29,20.29,0,0,0-11.76,9.24c-12.84,21.48-17.28,44.64-13.2,69.72,2.64,16.44,12.24,23.16,28.92,20q40-7.56,41.28-49.8,1.08-34-29-48.48l-1,.24ZM161.28,324.24l1.44-25.44a48.27,48.27,0,0,0,15.6-1.44q3.42-2,6.48-4a15.87,15.87,0,0,0,6.84,4.2q23.76,34.38,9,73.44a17.51,17.51,0,0,1-9.24,10.32,44.54,44.54,0,0,1-33.48,2.76C158.88,364.08,160,344.16,161.28,324.24ZM161.52,196c-2.64,2.52-4,6-4,10.56q-.18,39.78-1.56,79.8a13.15,13.15,0,0,0-.72,3.12,9.34,9.34,0,0,0,.48,3.72l-2,41.52c-.6,10.8-1.44,21.6-2.76,32.28-1.44,12.12,0,22.68,4.32,31.8l.48-.48,1,1.56a44,44,0,0,0,30.48,3.84,46.67,46.67,0,0,0,19.32-18.36,113.35,113.35,0,0,0,7-53.76c-1.92-18.48-9-33.12-21.24-43.8l6-5.64A24.89,24.89,0,0,0,204.6,271c9.48-34-2.52-58.44-35.76-73.2a12.9,12.9,0,0,0-7.08.84Zm216.12.48c-2.16,34.44-3.48,69-3.84,103.92q-.36,32.4-2.16,64.8c-.6,12.36,1.2,23,5.52,31.8a2.59,2.59,0,0,0,.72-1.68q2.52-35.1,3.36-70.56.36-18.9.36-37.8A147.36,147.36,0,0,0,425,285a10.14,10.14,0,0,0,2.28-5.76,13,13,0,0,0-1.68-7.32,2.41,2.41,0,0,0-1-.48l-5.88-.6c-12.36.84-24.84,2.28-37.32,4.32-.36-20.76-1.08-41.52-2.4-62.28l.24.36c24.12-.12,48.24.6,72.48,1.92a12.14,12.14,0,0,0,1.92-11.4l-.24-.84-.84-1.56-.84-.48-55.68-2.52-10,.24-5,1.44-2.76,1-.36-4.56Z" transform="translate(-150.42 -195.96)"/></svg>