<svg id="Layer_1" data-name="Layer 1" xmlns="http://www.w3.org/2000/svg" viewBox="0 0 504.78 324.64"><defs><style>.cls-1{fill-rule:evenodd;}</style></defs><path class="cls-1" d="M130.68,271.44a225.51,225.51,0,0,1,24.72,7.8,17,17,0,0,1,7.56,5.64q31,41.4,25.56,93.24-3.6,34.38-36,43.08-37.8,9.9-72.48-5.88l-.48.6Q84.42,366.06,87.12,315l1.8-35.28a65.75,65.75,0,0,0,41.4-9.84Zm30.6-57.36c-10.2,25.08-28.08,41.76-53.4,50.28l-18.24-.48L93,186.72a394.7,394.7,0,0,0-1.32-52.08q22.14-8.1,40.32,5.4,28.44,21.42,31.92,55.8A38.47,38.47,0,0,1,161.28,214.08ZM89.64,123.36c18.48-8.28,35.76-5.16,51.84,9.6a90.75,90.75,0,0,1,24.6,37.44,78.82,78.82,0,0,1,2.88,44,85.58,85.58,0,0,1-20.76,40.32,85,85,0,0,1-8.76,8.64c15.48,2.76,28,10.2,37.44,22.56a72.56,72.56,0,0,1,13.32,28,171.77,171.77,0,0,1,1.56,72.48A75.82,75.82,0,0,1,169,428.28,55,55,0,0,1,137,442.92q-32,3.42-58.2-13.44l-1.2,4.8c-7.2-9.24-10-19.92-8.16-32A998.14,998.14,0,0,0,79.56,298.68l7.68-169.56a8.67,8.67,0,0,1,1.56-4.56Zm192.84.36Q240,147.66,227.4,196.92a508.93,508.93,0,0,0-15.6,127.32c.12,10.92-.12,21.6-.48,32.28-.84,23.52,5.88,44.28,19.92,62.16a20.73,20.73,0,0,0,10.56,7.08q33.48,9.9,51.48-18.72a272.08,272.08,0,0,0,41.52-119.4,323.29,323.29,0,0,0-11.16-127.08C317.28,138.84,303.6,126.48,282.48,123.72Zm16.44,21.36a53.08,53.08,0,0,1,13.8,19.44q24.3,61.74,14.16,128.4A272.06,272.06,0,0,1,288.72,396.6l-3.12,3A44.17,44.17,0,0,1,264,410.52q-30.42,6.12-37.92-22.2a294.23,294.23,0,0,1-9.36-75.72,382.12,382.12,0,0,1,22-125.64q13.5-38,49.2-50.88l5.4.84,3.24.84.12,1.56a17,17,0,0,1-.6,7.8c-.6,1.32-.36,2.28.72,2.76a4.83,4.83,0,0,0,1.08-2.4,4.75,4.75,0,0,1,.84-2.28ZM397.2,121.8l-8.64,2.28a3.44,3.44,0,0,0-2.4,1.56q-26.1,38.88-7.56,83.52a390.22,390.22,0,0,0,32.52,61.44,144.47,144.47,0,0,1,19.56,44.76q15.66,63-37.44,101.16a3.85,3.85,0,0,1-3.6,1q-36-7-43.92-42.48v-1.68l-.24-1.32a.5.5,0,0,0-.72-.36l-.12.36a8.9,8.9,0,0,1,.36,4.2c-5.4,26.52,5.4,46.2,32.16,59a7.66,7.66,0,0,0,6,.72q28.08-7.38,43.2-33.48,24.84-43.38,12-90.72a250.53,250.53,0,0,0-41.64-85.2q-31.5-41.76-11.16-87.24c15-5.4,27.36-3.12,37.32,6.84l.12-.84C423.12,129.36,414.48,121.56,397.2,121.8Zm168.72,65.76c.6,21.12.84,42.36.84,63.6l-.48-.84a1.39,1.39,0,0,0-.84-.6l-2.64-.48a666.93,666.93,0,0,0-90.6,12l.6-13.2a1267.57,1267.57,0,0,0-.36-128.16q-5.22,16.92-5,38.16.9,64.26-3.24,128.16Q460,350.64,456,415.32c-.48,7.56,1.68,12.36,6.36,14.64a521.54,521.54,0,0,0,4.92-53.52c1.32-34.68,2.76-69.36,4.44-103.8A222,222,0,0,0,516,270.72l4.92-.12c17.16,2.52,32.4.36,45.72-6.36l-.24,19.92q-1.08,64.26-5.52,128c-.72,10.2,1.32,18,6.24,23.4a505.08,505.08,0,0,0,3.72-56c.6-43,1.32-85.92,2.4-129S573.6,165,571,123.12c-2.4,1.2-3.72,3.48-3.84,6.72C565.8,149,565.44,168.24,565.92,187.56Z" transform="translate(-68.95 -118.86)"/></svg>