<svg id="Layer_1" data-name="Layer 1" xmlns="http://www.w3.org/2000/svg" viewBox="0 0 439.67 392.1"><defs><style>.cls-1{fill-rule:evenodd;}</style></defs><path class="cls-1" d="M124.92,295.8a196.74,196.74,0,0,1,12.36,42.84A174.4,174.4,0,0,1,139.2,384,80.91,80.91,0,0,1,123,426.72a75.38,75.38,0,0,1-33.72,25.8,89.57,89.57,0,0,1-29.76,6.12l-3.72-2.4Q61,366.6,58.32,275.52c12.84.12,24.48-4.08,34.8-12.36C107.88,269.16,118.56,280.08,124.92,295.8ZM165,276.24q-20.16,71.28-16.2,150.12a71.82,71.82,0,0,1-2,20.88l-.72,2.88-.36,2.76a24,24,0,0,0,.84,9.72L148.8,470a127.18,127.18,0,0,0,63,3.24l5.76,3.48a3.48,3.48,0,0,0,3.24-2,8.5,8.5,0,0,0,1.08-3.36A16.56,16.56,0,0,0,220,460.92L213.72,458a173.72,173.72,0,0,1-60-.72L164,309Zm-47.28-131q24.48,56.7-20,98.88A101.54,101.54,0,0,1,58.2,259.8c0-35.64,1.44-70.92,4.2-106.08a341.35,341.35,0,0,0,0-52Q93.72,98,108.72,126.48,113.58,135.66,117.72,145.2Zm-59-57a18.23,18.23,0,0,0-1.2,5.64,15.36,15.36,0,0,0,1.08,5.76,317.32,317.32,0,0,0-4.2,41.88c-.6,18.12-.84,36.36-.84,54.48q.18,64.44-1.08,129c-.84,42.84-2.28,85.68-4.32,128.28a6.9,6.9,0,0,1-3.36-3c1.2,6.36,2.4,13.92,3.72,22.68A3.47,3.47,0,0,0,52,474.84L53,473.52c2.88,3.24,8.52,4.32,16.8,3.36,32.76-4,54.72-20.52,66.12-49.68a180.22,180.22,0,0,0,10.68-90.84q-6.66-48.6-40.08-82.56l-1.56-.24c17.4-16.68,26.52-39,27.12-67.08a153.27,153.27,0,0,0-3.84-37.08q-9.72-41.58-44.4-60.6l-.48-.36c-4.68-3.24-10.2-4.08-16.32-2.64l-7.44,1.92A2.41,2.41,0,0,0,58.68,88.2Zm316.8,152.88a257.14,257.14,0,0,0-8.64-63.6,438.35,438.35,0,0,0-21.72-62.16C340.56,105,334,100.56,325.44,102l-.36.24a40.07,40.07,0,0,0-18.84-2.64c-21.72,2-39.72,11.64-54.24,28.8a134,134,0,0,0-30.48,68.76,878.9,878.9,0,0,0-9,128.4,341.91,341.91,0,0,0,22.92,123.36,20.75,20.75,0,0,0,9,10.68,82.48,82.48,0,0,0,53.64,11.52,11.26,11.26,0,0,0,6.36-3q41.94-41.58,56.28-99.6A493.69,493.69,0,0,0,375.48,241.08Zm30.12,32.76A56.26,56.26,0,0,0,431.88,267a38.73,38.73,0,0,1,13.92,11.64c21.24,28,31.92,60.36,31.8,97q0,51.3-46.2,74.88a63.14,63.14,0,0,1-39.84,6.24,384.76,384.76,0,0,0,7-53.28c2.52-42.72,4.92-85.56,7-128.4Zm-42.84-75a428.79,428.79,0,0,1-1,128.16q-10.26,65-50.52,116a18.71,18.71,0,0,1-7.08,5.64c-15.24,6.84-31.08,7.32-47.4,1.2a20.27,20.27,0,0,1-11.64-10.32A258.46,258.46,0,0,1,219,330.12a676.31,676.31,0,0,1,10-127.44,139.67,139.67,0,0,1,16.8-46.2q22.5-38.88,67-41.76a11.29,11.29,0,0,1,6.36.6l1.2-.6a22.2,22.2,0,0,1,8.88,6.48V121l.6-.6,1.44-.24a239.87,239.87,0,0,1,20.4,38.4A164.62,164.62,0,0,1,362.76,198.84Zm48.72-85.32a55.77,55.77,0,0,1,33.36,9.84A91.88,91.88,0,0,1,461,149.52q11.88,29.34,1.2,58-15.12,40.86-55.8,50.4c1.56-31.8,3.48-63.6,5.52-95.4A316.67,316.67,0,0,0,411.48,113.52ZM409.2,98.28l-2.52,1.56c-2.52,4.92-2.4,9.36.6,13.56q-5.94,162.18-22.08,323.4l-1.8,15.84-.6-1.44-.72,4.2,1.08,2.64c-2.28,6.6-.84,12,4.32,16q29.16,7.92,55.56-8.76a49.3,49.3,0,0,0,7.44-5.76,61.39,61.39,0,0,0,6.72-7l4.56-5.76,1.32-2,2.4-4.2,1.8-3.24,3-6.6,4-10.2,4.32-13.56a164.44,164.44,0,0,0,5.76-49.56c-1.08-30.6-9.72-58.32-26.16-83a51.28,51.28,0,0,0-15.48-15q34.38-37.44,29.52-89.16a126.85,126.85,0,0,0-3.84-19.92,96.76,96.76,0,0,0-8-18.84l-7.2-12.12-4.2-6-4.68-5.88a83.31,83.31,0,0,0-27.6-8.64Z" transform="translate(-44.76 -85.12)"/></svg>