<svg id="Layer_1" data-name="Layer 1" xmlns="http://www.w3.org/2000/svg" viewBox="0 0 408.71 361.77"><defs><style>.cls-1{fill-rule:evenodd;}</style></defs><path class="cls-1" d="M398.28,429.36q.54-.54.72.36c.24,3.72-.6,4.92-2.4,3.72v-.72A3.31,3.31,0,0,1,398.28,429.36ZM139.08,262.8Q165.18,265,175.8,288a113.21,113.21,0,0,1,10.44,40.56,363.8,363.8,0,0,1,.12,47.16,52,52,0,0,1-17.64,37Q149.46,430,122.28,428.16l-24.36-2.88,7.2-156.48a29.28,29.28,0,0,0,23.52-1.68l9.72-5.64ZM154,131.16a88,88,0,0,1,14.16,43.44,92.82,92.82,0,0,1-8.28,44c-6.84,14.76-17.88,24.72-33.36,30a61.45,61.45,0,0,1-20.76,3.6l8-136.92C130.8,110.76,144.24,116,154,131.16ZM112.2,103.32l-.24-1.08c-4.44,8.4-7.08,18.24-7.92,29.64-.84,10.44-1.44,21-2,31.68-2.28,42.6-3.72,85.32-4.32,128.4a1239.25,1239.25,0,0,1-8.4,127.2l-.48-1.08L88.44,414l-.24-.84a9.55,9.55,0,0,0-3-3.84,27.55,27.55,0,0,1,.72,8.88c-1.08,11,1.32,19.68,7.08,25.8l.84-2.16c10.92,2.28,22,4.08,33.24,5.4,16.56,1.92,30.72-3,42.36-14.76a47.35,47.35,0,0,0,9.36-13.92q25.56-60.3,9.48-125.28-8.1-32.22-36.36-42.48c8.76-8.52,15.36-19.2,19.8-31.92a106,106,0,0,0,4.08-54.36q-8.64-46.62-49.2-67.32a8.92,8.92,0,0,0-5.52.6A21.28,21.28,0,0,0,112.2,103.32Zm205.44,21.6a6,6,0,0,1,3.24,1.68l.24.84.12,1.68.24,1.56.36,1.56.36.84a44.25,44.25,0,0,1,16.08,14.16A233.19,233.19,0,0,1,381.12,266q5.58,68.58-31,127.92a127.55,127.55,0,0,1-25.68,30q-35.64,30.6-72.84,4.32a14,14,0,0,0-2-3.72q-20.16-26.46-22.92-58.8A715.64,715.64,0,0,1,227,237.48a298.25,298.25,0,0,1,8.4-47.52c9.72-37.32,33.72-59.4,71.88-66Zm67.08,104.76a263.57,263.57,0,0,0-39.48-94.92v-.6l-1.2-1-.48-.36-.48-.84c-9.24-15.84-22.92-24-41.16-24.36a94.87,94.87,0,0,0-42.48,20.52,61.83,61.83,0,0,0-17.88,24.6,331.61,331.61,0,0,0-24.72,126.72,275.63,275.63,0,0,1-1.44,28.2q-6.3,61.74,18.72,116.88c7.8,17.16,20.64,28,38.76,32.52,17,4.2,32.4.6,46.08-10.68q43.2-35.46,59.88-90A253.38,253.38,0,0,0,384.72,229.68ZM474,153.48q27,50.58-9.48,93.36a15.41,15.41,0,0,0-6.36,2.52,91.05,91.05,0,0,1-37.32,15.36l1.32-23.4a746.79,746.79,0,0,0-2.52-116Q457.08,121.68,474,153.48Zm-55.56-39.72-.12-.6c-.6.12-.84.24-.84.36a316.44,316.44,0,0,0-2.64,57.6A847.33,847.33,0,0,1,411.6,299.4l-12.48,128a6.64,6.64,0,0,0-3.6,3.84v4.92a7.93,7.93,0,0,1,1.68,2.4c-1.56,7.32.24,11.88,5.64,13.8a729.87,729.87,0,0,0,10.8-82.8q3.42-44.1,6.12-88.44a52,52,0,0,0,35.16-10.32q46.08-33.3,37.68-91.08-7-46.26-46.2-68.52l-3.48-.24-17.64-.84-4.8.84a1.47,1.47,0,0,0-1.08.48Z" transform="translate(-85.2 -97.01)"/></svg>