<svg id="Layer_1" data-name="Layer 1" xmlns="http://www.w3.org/2000/svg" viewBox="0 0 525.94 484.96"><defs><style>.cls-1{fill-rule:evenodd;}</style></defs><path class="cls-1" d="M130.8,311.28a84.6,84.6,0,0,1,27.12,33.36,195.53,195.53,0,0,1,17,103.2c-2.64,25.08-13.08,45.84-31.32,62-4.44,2-9.12,4-13.8,5.64-25.8,9.36-49.44,8.76-71.16-1.92.72-13.56,1.2-27.36,1.32-41.4.36-34.92.48-69.72.6-104.64q0-36.9.6-73.44l39.72,5.28A64.92,64.92,0,0,1,130.8,311.28ZM58,55.68a9.77,9.77,0,0,0-.12,4.56L58,61.56l.72.24a29.69,29.69,0,0,0-.12,4.68l.36,15.24,1.2,105.12q.36,52.56-1.56,104.64T55.8,396q-1.08,52.56-2.88,105.24a57.74,57.74,0,0,0,.6,11.28,4.85,4.85,0,0,0,0,4.08L55,519.72A38.69,38.69,0,0,0,57.84,527l.12-3c4.44,4.8,10.68,7.56,18.72,8.4a158.29,158.29,0,0,0,37-1,61.12,61.12,0,0,0,34.92-17.16Q175,488.4,178.56,450a225.34,225.34,0,0,0-13.8-103.2q-20.16-53.46-76.08-58.44a102.13,102.13,0,0,0,37.2-23.28A61.59,61.59,0,0,0,141.48,241,183.58,183.58,0,0,0,148.8,138.6a93.47,93.47,0,0,0-9-24.84C123.12,82,97,62.28,61.2,54.48l-.12-1.32-.48,1.2L59,54.12C58.44,54.24,58.08,54.84,58,55.68Zm70.32,47.88c18.12,31.32,24.72,65.28,19.56,101.88a88.81,88.81,0,0,1-10.32,31.08q-24.48,44.1-76.2,50L61.8,263,64.32,157.8q.9-48.06-2.52-95.4a146.63,146.63,0,0,1,50.28,23.4A55.89,55.89,0,0,1,128.28,103.56ZM292.2,88q3.06,51.12,5.4,102.48c1.56,34.92,1.92,69.84,1.2,104.52q-1.08,52.92-6.12,104.76a330.74,330.74,0,0,1-27.48,104.4,40.27,40.27,0,0,1-22.68,13c-11.52,2.4-19.68-1.56-24.6-12q-16.38-34.92-13.44-74.88,3.78-51.84,6.48-103.8c1.8-34.8,2.64-69.72,2.76-104.64s1.08-69.84,3.36-104.52a272.62,272.62,0,0,0-1.32-51.72q-2.88,43.2-3.6,86.76c-.6,35.16-1.68,70.2-3,105.12s-3.48,69.72-6.24,104.52a835.59,835.59,0,0,0-1.8,104,109.25,109.25,0,0,0,11.52,44.4q12.78,25.74,40,13.68a40.6,40.6,0,0,0,22.8-24.84,430.49,430.49,0,0,0,21.36-101q4.68-52,5.76-104.76,1.08-52.2-1.56-104.52c-.36-6.6-.48-13.32-.36-19.92A859.54,859.54,0,0,0,296,64.44C292.8,71,291.6,79,292.2,88ZM452.88,60c-1.8,18.84-2.64,38.4-2.64,58.68.12,35,.72,70.2,2,105.36C453.36,259,454,293.88,454,328.56l.12,104.52q.36,52.74-1,104.64c1.56.84,2.88.36,3.84-1.56a222.75,222.75,0,0,1,119.76-11,10.9,10.9,0,0,0,1-11.28Q515.58,502.5,457,522.72c1.32-14.52,2-29,1.92-43.68L457.8,373.8c-.48-34.92-.6-69.72-.24-104.64s-.12-69.84-1.2-104.52ZM359.4,67.56a50.43,50.43,0,0,0-27.84-6.48l-.6,5.16,2.52.36q-2.88,52.56-4.08,105c-.84,39.48-3.12,78.84-6.6,118q-3.42,37.26-7.56,74.76c-3.72,32.52-6.72,65.16-8.88,97.68l-2.64,39.84a41.25,41.25,0,0,0,2.88,18.6A168.06,168.06,0,0,0,311,487.56q2.34-75.42,10.92-150.48l4.32-41.76,19.08-3.72Q355.08,335.16,368,378q13,43.2,29.52,85.2,14.58,37.26,32.16,72.84l.24-.36a65.57,65.57,0,0,0-4-21c-6.36-18.36-13.56-36.36-21.36-54.24a620.82,620.82,0,0,1-26.52-72.84c-9.72-32.4-19.8-64.68-30.48-97l8.52-5.28a112.76,112.76,0,0,0,23.76-25.2,106.27,106.27,0,0,0,14.4-31.08,184.74,184.74,0,0,0,6.48-35.88,241.25,241.25,0,0,0,.48-32.28,265.38,265.38,0,0,0-3.48-32.28,106.55,106.55,0,0,0-12.36-35.28A65.68,65.68,0,0,0,359.4,67.56Zm22.32,28.56a97.83,97.83,0,0,1,13.68,33.12,156.15,156.15,0,0,1,3.36,35.88,223,223,0,0,1-3.36,32.28A257.81,257.81,0,0,1,387.6,229a100.69,100.69,0,0,1-16.32,31,68.28,68.28,0,0,1-28.44,21.6A86,86,0,0,1,327,286.08q7.74-85.14,8.52-170.64c.12-16.2-.24-32.52-1.2-48.84a62,62,0,0,1,22.08,5.28l1.44,1A73.68,73.68,0,0,1,381.72,96.12Z" transform="translate(-52.88 -53.16)"/></svg>