<svg id="Layer_1" data-name="Layer 1" xmlns="http://www.w3.org/2000/svg" viewBox="0 0 501.21 394.68"><defs><style>.cls-1{fill-rule:evenodd;}</style></defs><path class="cls-1" d="M152.64,263.28q31.14,60.84,10.68,125a53.31,53.31,0,0,1-23.64,30.12Q99.54,443.1,58,419.64l.72-.84.24-.12a2.84,2.84,0,0,1-1.08-1.8l-.84.6-1.8,1.32h-.48q5.76-43.92,8.28-88.68c1.44-26.28,2.76-52.68,3.84-79,17.64.12,34-5.4,48.72-16.56C132.24,237.84,144.6,247.32,152.64,263.28Zm-12-78.48a70.68,70.68,0,0,1-30.72,34.44l-2.52,1.2-1.8,2.64a85.33,85.33,0,0,1-38,9.84Q73.5,159.3,76.2,86.16c14.4-.6,28,4.68,40.68,15.72A87.2,87.2,0,0,1,142.2,139.8,59.63,59.63,0,0,1,140.64,184.8ZM75.72,69l-1.08.24-.84.84a12.87,12.87,0,0,0-4.08,10.56,7.38,7.38,0,0,0,1.68,4.68,445.93,445.93,0,0,0-8.64,70L59.28,234a13.49,13.49,0,0,0-1.2,4.68v6.48a12.1,12.1,0,0,0,.6,3l-1.56,35.4q-2.7,63.36-9.72,126.12l-.12-.48A13.6,13.6,0,0,0,46,404.28c1.2-2.28,1.08-3.12-.24-2.52A73.61,73.61,0,0,1,44,418.68q-3.78,17.1,6.84,25.92l.84-5.52c8.52,3.12,17.28,5.88,26,8.4,31.8,9.24,58.08,2.4,78.84-20.76q29.52-50.76,21.84-110.4a327.69,327.69,0,0,0-9.84-47.52q-9.54-34-39.84-45.84c19.08-20,26.64-44.76,22.68-74.4Q142.8,83.94,80,67.68A8.76,8.76,0,0,1,75.72,69ZM178.8,106c-1.56,24.36-4,48.6-7,73a312.35,312.35,0,0,0-1.2,64.32l38.16-4.32a8.64,8.64,0,0,0,6,2.16c3.12-3.84,4.08-8.4,3-13.56-.36-1.8-1.2-2.76-2.52-3.12a104.84,104.84,0,0,0-38.64-1.92,330.19,330.19,0,0,0,4.92-40.68c.72-13.44,1.8-26.88,3.36-40.44a362,362,0,0,0,1.8-64.2Q179.88,89.58,178.8,106ZM493,267.12q21.42-8.46,34.2,7.92c4.32,5.64,5.52,12,3.6,19.2q-7.38,27.36-35.64,33.48C495.24,307.44,494.52,287.16,493,267.12Zm10.32-16.44q-20,1.62-13.68,17.28a456.76,456.76,0,0,0-3.36,46.8L486,329.64a16,16,0,0,0-1.8,6.72,10.88,10.88,0,0,0,1.32,6.24c-1.32,33.72-4,67.08-7.92,100.32l-.36.12a9,9,0,0,1-.48-3.12l-.12-.36c-2,3.48-1.68,6.24,1,8.28q.18,5,4,7.2a2.55,2.55,0,0,0,2.16-2.16c4-22.92,7-46.2,8.88-69.6,1.08-13,1.92-25.92,2.28-38.88a82.74,82.74,0,0,0,12.24-3.12A211.74,211.74,0,0,1,521.52,394a176,176,0,0,0,19.68,60.36c2.52-1.56,3.48-3.84,2.88-7a577.21,577.21,0,0,0-29.88-109.2c14.64-7.8,22.92-21.36,25-40.8q3.42-33.66-25.56-47ZM357.36,119.52l-.12-.36C357.6,118.08,357.6,118.2,357.36,119.52ZM404.52,97q36,3.06,49,36.48a76.57,76.57,0,0,1,4.44,41.64c-5.88,34.68-26.4,56.64-61.56,65.64,1.32-30.24,2.4-60.48,3.48-90.72.6-18.36.36-36.36-.48-53.88Zm-10.8-1.8c-2,25.68-3.36,51.72-4.2,78q-2,64.08-5.4,128.28-3.6,64.44-13.44,127.92v-1.08l.48-16.08-1.2,4.32-1,1.56h-.12l-1.2,9.12c-1.8,11.76,0,21.6,5.16,29.52a229.22,229.22,0,0,0,11.64-50.88c4.68-42.24,8.16-84.72,10.2-127.56l.84-19a80.43,80.43,0,0,0,24.84-9.12c1.2,8.16,2.64,16.32,4.2,24.48Q437,337.14,445.2,400.32a314.58,314.58,0,0,0,14.76,62l.72-.6a107.13,107.13,0,0,0,2.76-35.64l-.72,1a13.42,13.42,0,0,0-1.44,4.2Q455,399.06,451,366.48a666.93,666.93,0,0,0-25.56-119.4l5.88-4.08a65.58,65.58,0,0,0,8.88-8.4Q481,187.44,461.28,127q-13.86-43.38-59.76-45.72l-4.32.36-1.08.48-.84.72a17.19,17.19,0,0,0-1.08,4.92,13.23,13.23,0,0,0,.24,3.72A17,17,0,0,0,393.72,95.16Zm-34-1.68a47.08,47.08,0,0,1,1.32,18l-.12,1.08q.9,40.86-.6,81.24-2.16,64.62-7.92,128.28A225.17,225.17,0,0,1,324,413.64q-16.38,28.62-47.88,23c-20-3.48-31.08-14.4-32.88-32.76a590.05,590.05,0,0,1-1.92-88.56q3.06-56.34,10-111.72A812.15,812.15,0,0,0,257,76.08q-6.3,5.94-5.76,16.56a268.09,268.09,0,0,1-1.92,52.92q-8.64,64.08-13,128.76-4.32,63.18-4.2,126.6c.12,31.32,16,49.92,47.76,56a22.48,22.48,0,0,0,13.56-1.32q41.76-18.72,53.16-63.48a677.8,677.8,0,0,0,19.68-128.28c2.52-42.36,3.24-84.84,2.4-127.44a180.22,180.22,0,0,1,2.16-32.28c1.56-10.2-.6-17.88-6.72-22.92-3,2.76-4.2,6.48-3.6,11Z" transform="translate(-43.05 -67.68)"/></svg>