<svg id="Layer_1" data-name="Layer 1" xmlns="http://www.w3.org/2000/svg" viewBox="0 0 552.64 523.08"><defs><style>.cls-1{fill-rule:evenodd;}</style></defs><path class="cls-1" d="M190.44,558.24l.24-1.56v-1.44l-.12-2.4a5.68,5.68,0,0,0-2.28-4.08,265.37,265.37,0,0,1-46.92-1,15.29,15.29,0,0,0-6.6,1.44L142,405a223.35,223.35,0,0,0-13,75.84c-.12,27.48.6,54.24,2,80.52l2.28-1.32.24-2.52a179.54,179.54,0,0,0,55.8,3.36ZM69.24,229.68a126.45,126.45,0,0,1,17.88,15.24q8.46,20.16,15.48,41a383.7,383.7,0,0,1,19.44,127,218.45,218.45,0,0,1-21.24,92.76q-21.42,44.64-70.56,37.56c.84-14.76,1.32-29.88,1.56-45.12.84-42.84,1.92-85.68,3.24-128.28l3.84-129V239.4l1.92.6,3,.6A76.39,76.39,0,0,0,69.24,229.68Zm94.44-67c15.72,14.4,21.72,32.52,17.76,54.24-3.36,18-12.84,28.44-28.32,31.2a728.45,728.45,0,0,0,1.2-84.12,25.36,25.36,0,0,0,4.56-2A4,4,0,0,1,163.68,162.72Zm-13.56-4.2a15.5,15.5,0,0,0-.12,4.08,7.26,7.26,0,0,0,1,2.52l1.44-.36c-.6,33.36-2.88,66.48-6.6,99.48a1206.68,1206.68,0,0,0-7.56,128.4c.84,0,1.32-.12,1.44-.48a68.93,68.93,0,0,0,4.68-25.44,718.08,718.08,0,0,1,5.16-82.2l2.64-25.2a7.65,7.65,0,0,0,6.36-1.56l1.08-.72a84,84,0,0,0,.6,13.44,943.59,943.59,0,0,0,23.16,124,37.94,37.94,0,0,0,1.56-21.36q-12.06-59.4-22.32-118.32,28.62-23,24.24-62.76-3.06-27.9-25.56-39.6l-2.16.36A15.89,15.89,0,0,0,150.12,158.52ZM87.24,67.08a134.63,134.63,0,0,1,16.68,48.48,115.7,115.7,0,0,1-7.2,60.6c-10.8,26.76-29.88,42.6-57.36,47.28q2.16-55.62,8-110.76c1.92-19,2.88-37.56,3-55.8a32.85,32.85,0,0,0,9-1C72,52.92,81.24,56.64,87.24,67.08ZM45.12,49.2a12.83,12.83,0,0,0,1.2,6.36l.72,1h.12a456.68,456.68,0,0,0-7.92,54.6c-3.48,42.6-5.64,85.32-6.48,128.4-.12,10.92-.24,21.72-.24,32.4.24,43.32-.84,86.28-3.24,129.12-2.52,42.48-5,85-7.8,127.32q-1.08,14.94,4.32,25.2A11.55,11.55,0,0,0,28.44,563c17.88,4.08,33.84,1.32,48.12-8.4a58.21,58.21,0,0,0,14-13.08q36.18-46.62,38.4-106.92A504.19,504.19,0,0,0,117.84,307.2a414,414,0,0,0-13.2-47.76c-5.4-16-14.76-27.84-28-35.52l7.56-7.44a86.12,86.12,0,0,0,21.48-43.92A235.15,235.15,0,0,0,103.8,79.2q-8.1-36-44.28-36.48A35.43,35.43,0,0,1,47.64,45a2,2,0,0,0-.6.24A5.26,5.26,0,0,0,45.12,49.2ZM342.24,62.28c-1,18.6-1.2,38.4-.84,59.28a958,958,0,0,1-6.24,128.88,79.33,79.33,0,0,0,2.52,32.28,3.1,3.1,0,0,0,2.16-2.88q4.68-44.46,6.84-89.28A772.93,772.93,0,0,0,342.24,62.28ZM312.48,69a345,345,0,0,0-2.64,48.72q.9,64.8,0,129.12-.9,64.8-2.76,129a544.67,544.67,0,0,1-18.36,126.48,36.57,36.57,0,0,1-8,15.24C270.84,529,257.4,534,240.24,532.68a9.75,9.75,0,0,1-6.6-2.64c-10.44-10.08-16.08-22.92-17.16-38.52-1.08-16.2-1.92-32.4-2.28-48.84-1.08-42.84-1.56-85.92-1.44-129s1.2-86.28,3.48-129.24a1005.38,1005.38,0,0,0-1.44-129c-1.8.12-2.76,1.2-2.76,3.24L209.76,144,206,273q-1.8,64.44-1.08,129.12a766.46,766.46,0,0,0,11.52,126.6q3.6,20.7,23.76,21.6c30.6,1.56,49.32-11.76,56.4-40A611.54,611.54,0,0,0,314,382.08c1.32-42.84,2.28-85.8,2.88-129.12q.9-64.26.12-129a169.91,169.91,0,0,1,2.64-32.28c2.28-12.36.72-23-4.44-31.92-4,4.2-5.88,8.64-5.76,13.56l.48-.6C310.8,70.68,311.64,69.36,312.48,69Zm58.08,247.92a56.08,56.08,0,0,1,43.8,6.12c6.36,3.72,9.84,9.12,10.44,16.32,4.44-8.64,2.16-16.8-6.84-24.6-24.36-21-45-19.68-61.68,4-6.48,9.12-8.76,19.32-6.72,30.72Q357.12,391.56,393,420q25,20,28.32,51.24A82.38,82.38,0,0,1,417,507a81,81,0,0,1-7.44,15.6,41.71,41.71,0,0,1-17.16,15.72,34.12,34.12,0,0,1-22.32,2.88c-24.48-4.92-39.24-20.88-44.28-48.12l.48,7.2q-2.52,18.36,7.56,34.92c14.28,23.4,34.2,29,60,16.8a50.77,50.77,0,0,0,26.4-28.44q17.82-46.62-3.72-91.8a116.56,116.56,0,0,0-40-46.56,48,48,0,0,1-16-17.64,58.72,58.72,0,0,1-7.08-22.2c-1.08-10.68,2.4-19.08,10.68-25.2A21.25,21.25,0,0,1,370.56,316.92Zm19.8-249.48a244.24,244.24,0,0,0-6.72,54.36c-.6,42.36-2,84.72-4.44,126.84-1.8-19-4.56-38-8.28-57.12Q358.86,129.06,344.4,66.84H344a339.16,339.16,0,0,0,7,62.4q12.78,62.28,20.76,125c1.56,11.88,4.56,22.2,9.24,31,.36-.36.48-.6.48-.84l-.36-10.08a56,56,0,0,0,2.76,7.92c2.4-28.68,4-57.72,4.8-86.88q2-65,2.28-128.28ZM444.6,86.28c2.28-13.8-3.48-21.72-17.4-23.76l-3-.24q-31.32,32.58-28.44,80.28a287.15,287.15,0,0,1-2.88,62.52c-3.84,24.6-1.32,48.24,7.68,70.68a42.53,42.53,0,0,0,2.76,5.76l1.8,2.76,1.8,2.52c15.84,2.64,27.6-3.36,35.28-17.88,4.44-8.52,4.68-16.92.48-25.32-4.44,17.76-15.84,27.24-34.08,28.32l-3.84-4.08A544.69,544.69,0,0,1,415.08,89.16c2.76-11.88,9.48-15.48,20.28-10.8a41,41,0,0,1,5.16,2.52ZM573.48,57.72a425.66,425.66,0,0,0-7.68,92.16q1.44,57.42.24,114.6c-29.52-.12-59.16-1-88.8-2.28v.12l-7,.6-.36.12.24-16.56q.9-64.8,4.8-129a476.53,476.53,0,0,0-.36-64.2l-.6.12a553.56,553.56,0,0,0-8.52,86.76q-1.44,64.26-2.64,129.12l-2.28,129q-1.26,64.8-6.48,129.12c-1,11.88.6,22.56,4.8,32.16a291.49,291.49,0,0,0,6.48-55.8L468,375.6l1.8-100,.48.6a566.1,566.1,0,0,0,95.4,1.92l-.12.84q-1.8,64.62-4.08,129-2.34,64.62-1.44,126.36a18.55,18.55,0,0,1,.72,8q-2,14.94,5,23.4a28.42,28.42,0,0,0,3.6-15.48q-2-53.46-1-106.32c1-42.84,2.16-85.92,3.72-129q2.16-64.26,1.68-129.12c-.36-43.56-.36-86.4,0-128.28Z" transform="translate(-21.3 -42.72)"/></svg>