<svg id="Layer_1" data-name="Layer 1" xmlns="http://www.w3.org/2000/svg" viewBox="0 0 559.32 528.48"><defs><style>.cls-1{fill-rule:evenodd;}</style></defs><path class="cls-1" d="M340.2,456.6a14,14,0,0,1,1.08,6.12q0,9.72-5,47.52L331,548.4h17.88l19.2-2.76,24.12.24.72,1.2a7,7,0,0,1,.36,2.52,5.47,5.47,0,0,1-.48,2.64l-1,1.56-24,.48-6.72,1.2L348.48,557l-21-.36a16,16,0,0,1-.84-5.64c0-3.84,1.8-19.68,5.52-47.4,3.72-28.44,5.76-44,5.88-46.8ZM127.92,284.76l-1.8-9.24c-1.68-7.68-4.56-13.68-8.64-18.12q-17.64-18.9-33.12-24.12l-2.64-.6C69.84,238.92,55.56,242,39,242l-2.88-.24L34.2,265c-1.92,25.2-3,46.2-3.36,63.12v42.24L27.48,419c-1.32,19.32-2.16,35.52-2.64,48.72l-1.32,24.36c-.72,10.8-1.2,18.84-1.32,24.24s-.24,13.56-.12,24.48l-.48,7.92a7.6,7.6,0,0,1,2.76,1c21.48-5.16,39-11.52,52.32-19.08,11.16-6.36,20.16-14,26.88-23,4.32-5.88,8.88-14.16,13.56-24.84,4.92-11.4,8.88-19.44,12-24a66.06,66.06,0,0,0,9.24-22.92,96.15,96.15,0,0,0,1.8-25c-.36-6.36-.24-15.72.24-28.08l.84-18.6a226.24,226.24,0,0,0-2.64-35.64,203.45,203.45,0,0,0-8.76-35.4A70,70,0,0,1,127.92,284.76ZM58.44,40.92c23.88,1.56,42.12,17,54.48,46.32a160.56,160.56,0,0,1,10.2,34.44,144.23,144.23,0,0,1,2.76,25.08c0,18.6-3.84,35.76-11.64,51.48A77,77,0,0,1,93.36,225a47.85,47.85,0,0,1,8.64,4.2A32,32,0,0,1,112.08,238a34.73,34.73,0,0,1,11,11.4,51.18,51.18,0,0,1,6.24,13.56l7.32,25.68c2.88,10.44,4.92,19.08,6.24,26.16,1.8,10.32,3,30.12,3.6,59.28q.54,22.32.36,44.28c0,17.64-4.08,35.76-12.12,54.36A198.28,198.28,0,0,1,105,520.32c-11.76,13.92-24.12,25.08-37.08,33.6s-24.6,12.84-34.32,12.84l-12.48-.24A5.8,5.8,0,0,1,18.48,563l-.6,1.56c-.72-1.08-1.32-4.44-1.68-10.2-.36-4.2-.48-7.92-.48-10.92q0-35.82,4.32-131t4.32-119.76Q29.94,244.44,36,166.08q6.12-79.2,8.88-111.36a7.13,7.13,0,0,1-2.4-5,6.69,6.69,0,0,1,.36-2.88,3.09,3.09,0,0,1,1.92-1l1-.24L46,42.48l1.56,2.64A60.33,60.33,0,0,0,58.44,40.92Zm.24,12.6-10,1.08q-.36,49.32-8.4,139.8l-3,33.24a79.25,79.25,0,0,1,10.8-1.92l17.64-2.28a98.8,98.8,0,0,0,19.8-5.52A35.49,35.49,0,0,0,100,207c2-2.52,4.56-6.72,7.68-12.6a121.66,121.66,0,0,0,9.12-22.92c2.76-9.48,4.2-17.76,4.2-24.84,0-2.4-.72-7.92-2.28-16.44a242,242,0,0,0-8-32.16Q95.7,52.5,71.4,52.44Zm102.48,7.8c-4.92-3-11.64-5.28-20.16-6.6v.36c0,2.4-1.32,13.08-4.08,31.92,9-.84,16.44-2.52,22.56-5.28s9.36-5.64,9.36-8.88C168.84,68.4,166.32,64.56,161.16,61.32Zm15.24,73.2-.48.36-1.08.72c-2.52-4.32-6.84-13.32-13-26.88-3-6.72-5.28-11.88-6.84-15.6a29.4,29.4,0,0,1-10,1.56l-9.24-.24-4.56,33.24-.48.48-1,1a11.57,11.57,0,0,1-1.2-3.6,34,34,0,0,1-.12-4,349.76,349.76,0,0,1,2.28-39.72c2-19.44,5.16-30.36,9.12-32.88l.24.72v-.12c12.36.6,21,3.48,25.8,8.64,3.36,3.6,5,8.76,5,15.36,0,4.2-1.92,8.4-5.88,12.72a24.28,24.28,0,0,1-6.84,5.4l7.56,14.64c7.32,14,10.92,22.44,10.92,25ZM311.16,50.64a3.09,3.09,0,0,1,2.16-.6c2.16,0,3.48,3.12,3.84,9.24a62.48,62.48,0,0,1,0,9.48q0,27.18-8.64,157.32V356.76l-.36.84v87.6q-9.36,55.44-24.72,86.4-18.72,37.8-45.36,37.8c-23.88,0-40.08-22.8-48.36-68.4a354.14,354.14,0,0,1-5-48.72q-.36-8.82-.36-25.92c0-8.16.12-14.16.24-17.88V351.6l4.2-75.84c1.8-29.88,3.36-55.56,4.68-76.8v-64.8l3.24-44.64,2.16-22.68c.84-9.24,2.88-15.84,6-20a11.12,11.12,0,0,1,1.92,6.48c0,4.92-1.32,19.68-4,44.4l-4.44,41.64V205L193.92,287q-4,73.08-4,96.12V410.4c.36,21.24,1.56,40.8,3.48,58.44q9.36,84.42,38.76,84.36c23.88,0,42.24-17.52,54.84-52.68a275.84,275.84,0,0,0,10.2-38.4q4.32-20.7,5-22V358.08l-.24-.72V220.08q1.26-13,4.68-68,4-62.46,4-82.8a16.61,16.61,0,0,0-1.08-7.08v-.24a23.69,23.69,0,0,0-1.2-7.56,5.53,5.53,0,0,0,2.52-3.24Zm42.48,333.72a1.64,1.64,0,0,0-.48-1.32c-1.8,8-4.2,18.24-7.44,30.6l-7.44,30.24-1.08.24-.48-1.68-.12-2.76c0-2.52,1.44-9,4.2-19.68l4.2-15.6a117,117,0,0,1,1.68-18.12c1.32-7.32,3-12.48,5.16-15.48q2.34,8.46,10.44,32.76c4.92,14.64,8.28,25.8,10.32,33.36,2.4-6.36,6.36-16.44,11.76-30.24l12.36-31.2a4.14,4.14,0,0,1,1.44,1.44,6.8,6.8,0,0,1,.48,3q0,3.6-25,67L362.52,416C358.2,403.56,355.2,393,353.64,384.36Zm0-91.56L347,320l-1.8,7.44c1.56.72,4.44,1.08,8.76,1.08a38.91,38.91,0,0,0,12.12-1.8l.24-.36.24.24a28.65,28.65,0,0,0,7.8-4.2c4.44-3.24,6.6-6.24,6.6-8.76,0-3.72-2.52-7.8-7.44-12.24L362,292.68l-3.84-.12-4.2.36Zm1.44-5.28c11,1,19,4.68,23.64,11.28,3,4.2,4.44,9.24,4.44,15.24,0,4.08-1.92,8.4-5.64,13a26.62,26.62,0,0,1-5.88,5.28l10.2,10.92c6.72,7.2,11.52,13.44,14.28,18.72l-.48.36-1.08.72c-2.76-2.28-8-7.68-15.72-16.2-5-5.64-8.64-9.84-10.68-12.72a22.93,22.93,0,0,1-7.68,1.32c-4.56,0-7.08-.24-7.56-.84l-8.16-.48-.84-.84c-3.36,13.32-5.4,22-6.24,25.68l-.36.48-.72.84-1.92-.24a20.46,20.46,0,0,1-.24-3.6c0-1.8,2-10.8,6.24-26.88l-.24-.6v-1.68l.48-.84-.36-.36c-.12-.24.24-.36,1.2-.36,4.68-18.12,8.52-30.84,11.4-38.16l.24.36v-.12Zm158.28,27L525,313.44l15.12-1.56v-.6l3,.24.36,1a3.79,3.79,0,0,1,.48,2.28,3.52,3.52,0,0,1-1.32,2.28l-2.52,2.4c-8.16.36-13.92.84-17.16,1.56l-10.44,1.44-.6-1.08a4.1,4.1,0,0,1-.12-1.32A82,82,0,0,0,509,336.12c0,2.52,1.92,6.72,5.88,12.48,4.44,6.6,8.52,9.84,12.24,9.84,14.28,0,24.84-3.24,31.92-9.84,4.68-4.2,7.08-8.52,7.08-13a4.28,4.28,0,0,0-1-2.76l-1.8-2a8,8,0,0,1,4.2,4.44,12.43,12.43,0,0,1,1,4.56,14.84,14.84,0,0,1-1.92,6.24A38.35,38.35,0,0,1,561,355c-6.6,7.56-14.64,11.28-24.12,11.28q-17.82,0-25.92-14.4a31.5,31.5,0,0,1-4.68-15.72,86.46,86.46,0,0,1,3.6-24.12c2.52-8.76,5.76-16.08,10-21.72,4.68-6.36,9.6-9.6,15-10,6.24-.48,12.6,3.12,19.08,10.68l-.48,1.68-5.88-3c-3.48-1.8-5.52-2.76-6.36-2.76-11.88,0-20.76,8.16-26.76,24.36Zm9.72-178.32q0,4.14-37.32,82.92l-19,40.2a210.25,210.25,0,0,1,7.68,28.56c4.56,22,7.32,34.56,8.28,38,5.16,22.2,12.84,47.28,23,75.48q4,11.34,33.12,87.84,22.5,59.4,22.56,63.12a14.79,14.79,0,0,1-2.4,8.16c-11.64-20.52-22.68-45.36-33-74.28-3.72-10.2-7.92-22.92-12.84-38.28l-12.36-38.4c-4.44-13.56-11.64-39.72-21.72-78.24q-12.42-47.16-15.84-64.8l-29.88,63.72-1.32,20.88c-.36,5.16-1.56,22.68-3.36,52.68-1.32,22-2.88,39.84-4.44,53.64l-3.24,25.92c-1.32,10.68-2.28,19.68-2.76,26.88-.36,5.4-.84,14-1.2,25.92-.84,10.68-2.52,19.44-5.28,26.28a20,20,0,0,1-1.92-9.36q0-28.44,8.28-113.16,8.82-90.18,9.12-97.44c.48-11.4.84-28.92,1.2-52.44s.84-41.16,1.2-53c1.8-41.4,6.12-75.84,13.2-103.32l1.08,2a9.36,9.36,0,0,1,.36,2.88c0,6.72-1,15.24-2.76,25.68Q438,184.62,437.28,192a252.69,252.69,0,0,0-.84,26c.12,13.08,0,22-.24,26.64-.36,8.4-1,26-1.56,52.8l-.48,15.84q8.64-22.86,32.52-74.16,35.64-76.14,54.48-109A10.46,10.46,0,0,1,523.08,136.2Zm-154,68.52c-14.4,0-25,6-31.68,17.88a45.58,45.58,0,0,0-6.24,22.68A31.34,31.34,0,0,0,337,263.16c6,9,15.6,13.56,28.92,13.56s24-3.84,31.8-11.4a37,37,0,0,0,8.76-12.48h.84c-.6,4.44-3.84,10.44-9.72,17.76-6.84,8.52-13.44,12.84-19.8,12.84-23.16,0-38-5.88-44.88-17.52a29.33,29.33,0,0,1-4-13.08l.12-8.16c0-10.92,2.52-20.28,7.56-28.2A38,38,0,0,1,354.84,201a34.91,34.91,0,0,1,22.92-.84c8.16,2.52,15.24,7.56,21.12,15.36l-1.68,1.08a91.39,91.39,0,0,0-13.32-7.44C377.52,206.16,372.6,204.72,369.12,204.72Zm-17-149.52c-5.4,0-9.24,1.56-11.64,4.68a9,9,0,0,0-2.16,5.64c0,2.76,1.92,6.84,5.88,12.12L357.24,94.2c12.6,17.16,18.84,34.8,18.84,52.8a73,73,0,0,1-3.48,23.28c-4.68,13.8-13.44,20.64-26.28,20.64-9.48,0-16.44-3.36-20.76-10.08-2.52-3.84-3.84-7.56-3.84-11.16-.12-6.12-.12-11.88.24-17,.84-10.32,2.76-15.48,6-15.48a5.57,5.57,0,0,1,2.76.72,2.69,2.69,0,0,0,1.8.36l-4,11.4q-3.24,9.54-3.24,12.6c0,3.24,1.2,6.84,3.48,10.92,3,5.16,6.72,7.68,11,7.68,13.8,0,23.28-5,28.68-15.24a40,40,0,0,0,4.32-19.08A54.57,54.57,0,0,0,367,122.28c-2.52-5.4-6.84-12-12.84-20-6.84-9-11.16-15-13-18.24-4-6.6-5.88-12.84-5.88-18.72,0-4.44.6-7.8,1.68-10.2q2.34-5.4,9.36-8.28c9.72,1.2,16.44,4.2,20.4,9,2.52,3,3.72,7,3.72,11.64l-.24,6.12a2.33,2.33,0,0,1-1.68,1.08q-2.88-8.28-4-10.44C361.2,58.2,357,55.2,352.08,55.2ZM462.72,105l-.84,1.8,1.92,1.08c16.32,8.76,26.88,13.08,31.8,13.08,7.56,0,12.84-2.88,16.08-8.76a30.92,30.92,0,0,0,2.76-7c.84-2.76,1.44-4.56,1.92-5.16l.6.12a1.08,1.08,0,0,1,.72.72l-1.44,6.72a55.56,55.56,0,0,1-2.76,9.12c-3.24,7.56-8,11.28-14.52,11.28-9.6,0-22-4.44-37.08-13.44l-3.48-2c-5.52,7.2-13.68,10.8-24.36,10.8q-35.28,0-45.72-13a18.82,18.82,0,0,1-4.08-10.08v-7c0-15.36,4.32-27,12.84-35,7.56-6.84,17-10.2,28.44-9.84A47.09,47.09,0,0,1,454,58.56c8.52,6.84,12.84,15.12,12.84,24.84C466.8,91.56,465.48,98.76,462.72,105Zm-4.56-1.68a53.31,53.31,0,0,0,4.68-11.88,35.93,35.93,0,0,0,1.2-8c0-7.08-4.08-13.32-12.12-18.72a51.92,51.92,0,0,0-26.64-8.52c-10.92-.6-19.8,1.92-26.76,7.56-8,6.48-12.12,16.32-12.12,29.52q0,7.74,3.6,12.24c3,3.6,8.76,7.32,17.52,11.16l27.6-.24c7.44,1.2,13.68-1.08,18.72-6.72l-8.76-5.16c-6.12-3.48-11-5.64-14.88-6.6-2.28-.72-3.12-3-2.64-7,5.16,1.32,15.24,5.88,30,13.56Zm25.32-50a7,7,0,0,1,.36,2.52c0,1.8-1,6.36-3,13.92a77.1,77.1,0,0,0-3,19.8c0,3.72,1,6.72,3,9,2.4,2.76,6.12,4.08,11.16,4.08,8.28,0,14.4-6.48,18.36-19.56a75.17,75.17,0,0,0,3.48-21.12l-.24-3a7.76,7.76,0,0,0-2.16-4.56l2.28-1.56a8.46,8.46,0,0,1,1.8-1.08c.72,2.16,1.08,5.76,1.08,10.92a98.6,98.6,0,0,1-3.48,25.56c-4,14.28-10.08,21.36-18.48,21.36-13,0-19.44-6.48-19.44-19.56a121.18,121.18,0,0,1,2.28-20.52c1.68-9.6,3.48-15.36,5.28-17.28Zm75.36,3.24c-11.52,0-20.16,5.76-25.92,17.4l-2.16,4.68,1.08-.12,23.76-1.32.6.84a11.13,11.13,0,0,1,.12,2.4,8.56,8.56,0,0,1-.24,2.28l-.84.72-9,1.2-6.12,1-9.24-.36-1.2-1.2-.48-.6-.72,3a34,34,0,0,0-1.08,7c0,3.24,1,7,3,11.4,2.76,6.36,6.72,9.48,11.64,9.48,13.2,0,22.2-4,26.88-12A23.66,23.66,0,0,0,572,87.84l.84-1.8L574,85.8a19.27,19.27,0,0,1,1.08,6q0,1.62-1.8,6.12A56.07,56.07,0,0,1,568.32,108c-5.64,9-11.88,13.56-18.48,13.56-11.88,0-19.56-4.44-23.16-13.32a25.5,25.5,0,0,1-2-9.36V94a56.26,56.26,0,0,1,5.28-24.12c4.44-9.48,11-16.08,19.92-20,7.92.36,13.92,1.92,18.12,4.56,3.12,1.92,4.68,4,4.68,6.24l-.24,2.88-.6,2-.6.24c-.6-2.16-2.52-4.32-5.76-6.36C562.56,57.48,560.4,56.52,558.84,56.52Z" transform="translate(-15.72 -40.92)"/></svg>