<svg id="Layer_1" data-name="Layer 1" xmlns="http://www.w3.org/2000/svg" viewBox="0 0 495.12 475.2"><defs><style>.cls-1{fill-rule:evenodd;}</style></defs><path class="cls-1" d="M84.72,248.16a12.65,12.65,0,0,1,7.44,5c18.6,27,28.56,57.24,30.12,90.72q3.06,67.5-27.36,126.6a60.1,60.1,0,0,1-31.56,29,56.64,56.64,0,0,1-28.8,4q.18-61.2,3.24-122.28c2-41.88,4.2-83.88,6.72-125.76l.36.24c12.12.6,23-2.52,32.52-9.6Zm57,10.44c-2.64,42.6-3.48,84.48-2.64,125.88a132.56,132.56,0,0,0,44,2.4l.36-.72a15.51,15.51,0,0,0-.36-12.24,119.75,119.75,0,0,1-39.24-3.24c.48-20.64,1.2-41.52,2-62.52.84-21.24,1.08-41.76.48-61.68A20,20,0,0,0,141.72,258.6Zm-41.4-65.16C92,221.64,73.8,237,45.48,239.28c1.2-16.8,2.88-33.48,4.92-50.16a695.68,695.68,0,0,0,4.8-118c14.28-2.4,25.68,1.92,34.32,13.08a85.3,85.3,0,0,1,17.64,48A181.29,181.29,0,0,1,100.32,193.44ZM55.8,60.12l-1.08,1.32-.6.12A422.94,422.94,0,0,0,48.36,109l-8.88,128.4Q35,301.62,31.56,365.52q-3.42,63.54-6.12,126.6c-1.2.84-1.92,3.36-2,7.56C23,510.36,25,519.48,29.28,527a23.3,23.3,0,0,0,3.6-6.84,50,50,0,0,0,15.24.12q39.6-5.22,57.36-43.56A237.13,237.13,0,0,0,123.12,423,303,303,0,0,0,122,295.8,127.48,127.48,0,0,0,93.6,238.44l-1.44-.6-4-2a64.55,64.55,0,0,0,9.48-15.36q26.1-60.3,8.28-124.92C99.6,72.6,84.84,60.24,61.68,58.68A8.24,8.24,0,0,1,56.28,60ZM156.12,76.8l3.48,3.84q18,19.62,2,40.68a31.47,31.47,0,0,1-19.44,12,251.84,251.84,0,0,0-.12-55.44Zm-15.24-8.28-.12,1.8L139.32,72a1296.53,1296.53,0,0,0-7.68,143.64l.36,7.56A239.92,239.92,0,0,0,141.36,143l10-1.8a305.67,305.67,0,0,0,24.24,81.84A386.86,386.86,0,0,0,156,139.2,36.07,36.07,0,0,0,172.8,114l1-6.36a44.25,44.25,0,0,0-.12-13.2,35.07,35.07,0,0,0-14.4-23.52,54.71,54.71,0,0,0-8.88-5.4L141.12,70ZM247,180.24c2.52,21,5.4,42,8.4,63l8.4,56.52L223,298.44v.12l-2.16.24-.6.24-1.08.24-2.4.24L220,260.76q4.86-64.26,15.36-127.08c1.8-11.16,3.24-22.2,4.08-33.12Q242.1,140.7,247,180.24ZM239.88,70.56l-.24,1-1.08,3.24A313,313,0,0,0,228,123q-8.82,63.18-13.8,126.72c-3.48,42.72-7.68,85.2-12.84,127.56S189.12,461,180.12,501.6c-4.2,8.52-3.6,17.16,1.68,26A27.39,27.39,0,0,0,188,514.32q11.7-62.46,19.32-126,4.5-38,8.16-76a388.84,388.84,0,0,0,50.16.84L274,370q9.18,63.54,15,127.68c1.08,11.76,4.08,22.08,9.24,30.84a3.18,3.18,0,0,0,.6-1.68,502.72,502.72,0,0,0-6-78.84q-9.9-63.18-20-126.24c-6.84-42.12-12.48-84.48-17-126.84L241.56,68.16l-1.32,2ZM278.76,79q.72,64.44-2,128.28c-2.88,5.76-1.92,10.08,3,13.08a86,86,0,0,0,3.6-22.44A1270.41,1270.41,0,0,0,281.64,69.6Q278.76,73,278.76,79Zm5.88,20.88,8.76,46.32,8.76,46.2a92.15,92.15,0,0,0,11.4,30.36l1.2-7.92,1.8,4.44c2.52-38.52,3.72-76.92,3.6-115.44,0-5.28-.24-10.56-.6-15.84l-1.44-15.48-7.44,119.64q-11.16-61.74-28-122A118,118,0,0,0,284.64,99.84ZM372,273.36c1.44-16.56-5.76-29.16-21.72-37.68-15.24-8.28-29.4-7-42.24,3.72q-18.18,14.94-12.6,39.6a72.16,72.16,0,0,0,22.68,38.76,317.58,317.58,0,0,1,31.08,32.52,117.77,117.77,0,0,1,21.24,38,219.72,219.72,0,0,1,10,43.92,170.71,170.71,0,0,1-.72,45.6c-2.52,16.8-11.52,28.32-27,34.44q-16.2,6.48-31-3.6A62.22,62.22,0,0,1,316,468.12l-2.16,6.6c-7.8,9.24-8.64,20.4-2.4,33.36,6.36,13.32,16.8,20.76,31.08,22.44,17,2,29-5,36.12-21.24a121.07,121.07,0,0,0,9.84-39.12,163.49,163.49,0,0,0-2.64-45.84,325.2,325.2,0,0,0-22.44-70.68,70.33,70.33,0,0,0-23.88-28.92,130.51,130.51,0,0,1-28.56-27.12q-18.9-24.48-1.32-44c5-5.52,11.52-8.28,19.56-8.16,15,.24,27.48,6.24,37.32,17.88A29.56,29.56,0,0,1,372,273.36Zm36-196.2a174.4,174.4,0,0,0-1.92,34.92l4.8,126.48-1.2.12a8.15,8.15,0,0,0-.84,2.4,11.61,11.61,0,0,0,.84,6.36l1.08,1.8h.48c1.32,40.2,2.28,80.52,3.12,121A1210.67,1210.67,0,0,1,410,499.08c-1.08,12,.48,22.8,4.44,32.28a113.87,113.87,0,0,0,6.36-35.4c1.08-42.72,1.32-85.68.48-129q-1.08-58.86-3.12-117.12l1.2-.12L500.28,247q2,63.18,6.36,125.64,4.5,64.26,4.32,129c0,7.08-.36,11.16-1,12.24l-.36.36a9.84,9.84,0,0,0,1.2,6.36q-2.34,9.18,4.32,13.32a1.86,1.86,0,0,0,.84-1.44,595,595,0,0,0,2.4-64.08q-.9-64.62-4.56-128.28-3.6-63.9-6.12-128.16c-1.68-43.08-3-85.92-4-128.28-4,9-6,19.56-5.88,31.68.12,38.76.84,77.28,1.92,115.56l-7.32-.6L417.84,238v-.12q-2-48.42-1.44-96.6a248.08,248.08,0,0,0-7.8-64.08Zm-52.68.24-2.52.24q-25.74,33.3-27.6,78.48a108.87,108.87,0,0,0,14.52,59.52l4.92,8.16c23.88.36,33.36-9.84,28.68-30.6-4.92,10.56-12.84,16.32-23.76,17.16l-4.32-.6q-20.7-58.86,7.08-114.6c.84-1.8,2.52-2.88,5-3.36a140.65,140.65,0,0,1,17.52-1.68C372.6,79.92,366.12,75.6,355.32,77.4Z" transform="translate(-23.36 -58.68)"/></svg>