<svg id="Layer_1" data-name="Layer 1" xmlns="http://www.w3.org/2000/svg" viewBox="0 0 432.12 478.08"><defs><style>.cls-1{fill-rule:evenodd;}</style></defs><path class="cls-1" d="M248.64,398.28a188.13,188.13,0,0,0,41.88.6,193.32,193.32,0,0,0-2.64,44,321.39,321.39,0,0,1-1.8,52.68c-1.32,12-.12,22.56,3.36,31.8a9,9,0,0,0,2.4-5.76,893.47,893.47,0,0,0,.24-122.88,223.79,223.79,0,0,0,30.12-5.4l.48-.72a11.39,11.39,0,0,0-.72-11.4q-36.72,5.76-73.08,8.16l-.36.84A10.94,10.94,0,0,0,248.64,398.28Zm-64-144.84,17.64-141.36L216.24,247.8ZM279,285.36c-2.52,13.8-11.16,19.2-25.8,16.2.84-14.76,1.44-29.4,1.56-43.68h.12c11.88-4.68,19.56-1.32,23.16,10.08A35.82,35.82,0,0,1,279,285.36Zm7.56-13.92q-5-29.88-31.68-24.12v-4.08A363.8,363.8,0,0,0,243,378.12a11.49,11.49,0,0,0,1.32,4.68l8-69.12H268.2a172.77,172.77,0,0,0,22.68,64.8,194.06,194.06,0,0,0-18.48-66.36C284.64,301.56,289.32,288,286.56,271.44Zm-200.16-34a14.89,14.89,0,0,1,9.72,7.68q31.5,58.14,29,125.88a636.7,636.7,0,0,1-5.4,64.32c-4.2,31.68-19.32,56.16-45.12,73.56a101.32,101.32,0,0,1-25.8,5.64,45.11,45.11,0,0,0-1.2-11.28Q50.7,441.54,52,379.08q1.26-64.62,3.12-129l.12-2.76C67.2,248,77.64,244.8,86.4,237.48ZM80.76,67.8a17,17,0,0,1,10.56,7,103.06,103.06,0,0,1,18.6,41.64,195.29,195.29,0,0,1,3.6,42.6A101.69,101.69,0,0,1,102,203.4c-7.56,14.52-19.32,23.76-35.28,27.48a68.12,68.12,0,0,1-11,1.68l9.24-160.8A17.43,17.43,0,0,1,80.76,67.8Zm-4-13.32A28.26,28.26,0,0,0,64.44,58.8V57.6c-.6.12-.84.24-1,.48L63,59.64,61.2,61.2a16.67,16.67,0,0,0-1,6.48,4.82,4.82,0,0,0,.36,1.8,270.42,270.42,0,0,0-6.12,42Q50,175.2,48.24,239.76q-1.8,64.26-3,129.12-1.08,64.44-5,128.16c-.72,12.12,1.2,22.2,5.64,30.48a13.12,13.12,0,0,0,2.28,4.2,50.59,50.59,0,0,0,34.08-8.16,56.93,56.93,0,0,0,18.36-19.44,218.41,218.41,0,0,0,28.68-89.28,397.88,397.88,0,0,0-7.32-127.44C117,265.32,107.28,246.48,93,230.88l.12-.12q34.74-41.22,24.6-96.12c-2.52-13.2-5-26.4-7.8-39.48q-6.3-30.6-33.12-40.8Zm184,22.44c5.28,0,9.48,1.92,12.48,5.64q35.46,44.28,19.44,101.16c-6.6,16.92-19.44,26.28-38.4,28.08,3.48-27,6.12-54.6,7.68-82.56a269.69,269.69,0,0,0-2.16-52.32ZM205.08,60.36c-4.2,7.32-6.72,16-7.68,25.92q-6.48,63-14.28,125.88L167.4,339q-8.1,63.9-20.16,127.32c-2,10.68-4.56,21.36-7.56,31.8-3.48,11.88-3.12,22.44,1,31.92a2.33,2.33,0,0,0,1.2-1.44,1011.45,1011.45,0,0,0,20-103.92q8.82-63.18,17-126.48l4.32-32.64a29.31,29.31,0,0,1,14.76-.12,93.85,93.85,0,0,1,19.68-4q5.58,54,9.36,108.36,4.5,63.9,10.8,127.68c1.2,12.36,4.8,22.44,10.8,30.36a3.4,3.4,0,0,0,1.32-3.24Q246.54,485,242,445.08q-7.2-63.54-12.48-127.44T217,190.2q-6.3-54.36-11.52-108.48A209.66,209.66,0,0,0,205.08,60.36Zm60,6.72-4.32.12-2.4.36-.48-2.64a58.82,58.82,0,0,0-3.48,22.8A561.94,561.94,0,0,1,251.52,163a265.36,265.36,0,0,0,.6,64.08l.6-4.2,1.08,1.2a30.78,30.78,0,0,0,17.4-1.68,31.77,31.77,0,0,0,17.28-16.2q24.12-50.76,7.68-105.72C291,83.16,280.68,72,265.08,67.08ZM408.84,424.8c-.6,13.32-1.68,26.52-3,39.72a240.88,240.88,0,0,0-1.2,40.56c.36,7.8,1.2,15.6,2.28,23.4A24.83,24.83,0,0,0,411.84,515c1.08-18.12,1.92-36.48,2.28-55l39.24-2.76a255.57,255.57,0,0,1-3.24,54.24,27.12,27.12,0,0,0,0,9.84,25.56,25.56,0,0,0,4.44,11,19.68,19.68,0,0,0,4.56-13.2,606.9,606.9,0,0,1,2.76-64.68,46.23,46.23,0,0,0,.12-7.08,391.81,391.81,0,0,1-.72-55.68A167,167,0,0,0,454,444.72l-39.6,2.4-.72-59.64A244.27,244.27,0,0,0,408.84,424.8ZM356.4,396.36a70.58,70.58,0,0,0-23.16,38.52,184.35,184.35,0,0,0-5,41.4c-.12,16.44,5.64,29.88,17.52,40.44q20.34,18.18,38.52-3.12,7.74-9.18,2.16-19.8L374.16,510q-29.7,7.74-37.08-26.52a112.52,112.52,0,0,1-1.68-38,83.84,83.84,0,0,1,7.44-24.84c6.12-12.6,16.32-19,30.48-19.08l11.4.84,5.16,4.68,1.2-4.08Q379.74,376.14,356.4,396.36Zm2.88-331.2q-42.66,31.32-45.48,86.4c-2.28,44-3.48,88.08-3.72,132.36a185,185,0,0,0,3.24,36.48,140.86,140.86,0,0,0,3.84,15.6l2.52,7.68a46.2,46.2,0,0,0,4.56,9.48,43.27,43.27,0,0,0,9,10.2,26.89,26.89,0,0,0,17.88,6.24,36.26,36.26,0,0,0,28.8-14.16c.12,7.68,1.92,14.16,5.52,19.44a282.87,282.87,0,0,0,1.44-76.68l-24.6,3.48.6,8,20.52,3.36-1.08,12.72-3,3.24.48,1.68C374.16,349,362.52,355,344.64,348.84c-8.88-3.24-15-9.36-18.48-18.48A98.18,98.18,0,0,1,320.4,307q-1.26-9.72-1.8-19.08L317.88,275c-.48-12.72-.6-25.44-.36-38,.6-31.32,2.64-62.64,6-93.72a108.51,108.51,0,0,1,10.32-36.12c11.28-23.64,25.68-30,43.32-19.32L383,91.68a1.57,1.57,0,0,0,2.28-.24c.84-16-6.72-24.72-22.8-26.16Zm92,9.24a38.63,38.63,0,0,0-23.88,13.68,27.1,27.1,0,0,0-4.32,6.36,194.46,194.46,0,0,0-21.48,89.28q-.18,48.24-1.8,96.6a269.18,269.18,0,0,0,8,74.76q8.28,32.58,41.28,26.16a37,37,0,0,0,16.08-14.52c6.48-10.56,6.48-19.56.12-26.88l-.72.84-1.32,2-.6,1c-2,11.16-8.88,18.36-20.4,21.48-5.88,1.56-10.8.48-14.64-3.36-13.32-13.44-20-30-20-49.8l.36-77,30,1,.72-.84c2.76-5.16,2.4-10.08-1-14.52a152,152,0,0,0-29.64,1.92l.6-38.76.72-31.68q1.44-45.36,40.8-63.6H460a11,11,0,0,1,6.12,6.36c1.08,3.12,3,4.92,5.52,5.28l.36-.84C473.52,83.76,466.68,75.48,451.32,74.4Z" transform="translate(-40.05 -54.36)"/></svg>