<svg id="Layer_1" data-name="Layer 1" xmlns="http://www.w3.org/2000/svg" viewBox="0 0 311.86 213.19"><defs><style>.cls-1{fill-rule:evenodd;}</style></defs><path class="cls-1" d="M296,326.52c6.36,15.24,13.2,30.24,20.52,45.24a31.86,31.86,0,0,1-6.84,4c-18.84,8.28-28.56,3-28.92-15.84a10.73,10.73,0,0,0,1.32-5.76,22.16,22.16,0,0,1,5.64-16A74,74,0,0,0,296,326.52Zm-94.56-53.28C192.6,289.32,179.16,295.56,161,292q.54-41.22-.84-81.84,24.84-8.82,39.48,16.2Q213.9,250.44,201.48,273.24Zm82.08,18.36,8.4,25.08c-15.36,18.12-20.64,39.24-15.84,63.12a16,16,0,0,0,9.6,12.36A31.19,31.19,0,0,0,309,393.24a30.14,30.14,0,0,0,13-8.64l10.56,16.92h1.08l2-.36Q325,358.32,299.76,317.88l.84-2.64-3.24-2c-4-8.76-8.52-16.08-13.68-21.72Zm-127.8,89.16c2.28-18.84,3.72-37.8,4.44-57.12l.48-16.8c14.52,4.2,26.64,1,36.36-9.48l6.72,1.08a76.94,76.94,0,0,1,19.32,32.88c3.72,12.6,1.08,23.88-7.68,33.6Q191.64,391.2,157,381.24Zm2.16-179.88-2.64,2.64a22.44,22.44,0,0,0-.36,4.08,4.82,4.82,0,0,0,1.44,4l.72-.24c-1.56,21.36-2.76,42.84-3.6,64.32Q151.32,328,151.2,379.92h-2.4a6,6,0,0,0-2.88,4,19.44,19.44,0,0,0,1.56,12.24l3.72,1.44.12,6.36,1.32-.12.84-5.52c19.56,6.6,38.28,3.6,55.92-8.76a39.64,39.64,0,0,0,16-21.84q13.5-47-21-80.4a47.71,47.71,0,0,0,5-12.84q13-51.66-31.32-80.16c-7.08-.6-13.2,1.08-18.24,4.92l-.24-3.84c-.84-.24-1.32,0-1.44.84Zm213.6-4.44-1.68,1.32-.12,6.48a.73.73,0,0,0,.36.72l.72.12-9.6,158.28L360.6,374q-.18,4.32,0,8.64a49.5,49.5,0,0,0,3.36,15l1.56,3.24a786.24,786.24,0,0,0,7.32-92.16l.24-16a194.17,194.17,0,0,1,49.32-1.68,11.92,11.92,0,0,0,0-12l-.6-.84-33-1.68-3.24.48a37.52,37.52,0,0,0-6.24,1.92c-2,1-4.08,2-6,3.12l-1.44-77,83.16.6a9,9,0,0,0,2.28-7.32l-.12-.84-.36-1.56-.6-1.68-.36-.72-.36-.36a221,221,0,0,0-74.4,1.44l-9.6,2Z" transform="translate(-145.55 -190.73)"/></svg>