<svg id="Layer_1" data-name="Layer 1" xmlns="http://www.w3.org/2000/svg" viewBox="0 0 353.33 339.36"><defs><style>.cls-1{fill-rule:evenodd;}</style></defs><path class="cls-1" d="M121.56,254.28q31.86,13.86,44.28,48.12a140.07,140.07,0,0,1,8.28,46.68A65.25,65.25,0,0,1,168,377.76a70.69,70.69,0,0,1-23.88,28.56,114.83,114.83,0,0,1-47,19.68,32,32,0,0,1-14.4-.72l.84-3.48-.84-2.16.12-.48a5.34,5.34,0,0,0-2.4,1.08L80,421.8q1.62-74.88,10.92-157a50.16,50.16,0,0,0,26.28-7.92Zm-11.76-128a65.63,65.63,0,0,1,32.28,29.88c7.92,14.76,9.36,29.76,4.32,45.12A63.9,63.9,0,0,1,117.72,237a67.37,67.37,0,0,1-25.2,8.88A648.45,648.45,0,0,0,100.08,124Zm-12.48-18.6-.24.72-2.88.48-.6.24-.84.48a11.69,11.69,0,0,0-1.44,4.92l.12,4.08a5.83,5.83,0,0,0,2,4c-.6,3.72-1.08,7.44-1.32,11.28-2.52,42.84-6,85.56-10.2,128.28q-6.3,63.54-9.24,127.56c-.48,10.8-1.44,21.6-2.88,32.28-1.32,10,.72,18,5.88,24l1.68-1.68a68.64,68.64,0,0,0,35-3l2.16-.72q57.6-14.94,63.6-72.36a242.87,242.87,0,0,0-.24-53.64q-5.58-48.42-45.24-69.24a76.52,76.52,0,0,0,17.52-27.72q12.6-33.12-.12-67.32Q136.62,113.7,99,108.48l-.84-.12-.24-1Zm168.84,18.24A175,175,0,0,0,269,161.16q9,49.14,19.08,98.16l-.84-.36c-13.56-.36-26.88-.36-40.08.24a35.53,35.53,0,0,0-7.8,1.2l2.52-11.28c4.92-20.76,10.32-41.4,16.44-61.92a160,160,0,0,0,6.24-63c-4.68,14-8.88,29.28-12.6,45.6q-14.22,62.1-29.4,124.08-15.66,63.18-33.48,124.68v-.48q.36-4.86,1.08-9.36l-1.44.84a51.25,51.25,0,0,0-.72,13.56c-2.64,6.72-2,12.72,1.92,17.88.84-.36,1.32-.72,1.44-1.32,7.56-21.72,14.16-43.8,20-66.24q12.42-48.06,23.88-95.88a520.32,520.32,0,0,1,56.4-.84l1.8,8.64A1212.82,1212.82,0,0,1,313.2,411.72q2,18.18,10.44,31a2.06,2.06,0,0,0,1.44-1.68,114.7,114.7,0,0,0-1-36.72c-5.64-31.32-12-62.4-18.84-93.48-4.68-20.88-8.52-41.88-11.28-63.12a937.75,937.75,0,0,0-25.08-124.8C267.12,122.88,266.16,123.84,266.16,125.88Zm-74.64,4.56c10.68,9.72,14.28,21.48,10.8,35.52q-4.5,18.18-23.76,21.24l.36-56.16Zm-14.88-8.64-1.8,1.2-.12,9.6A583.68,583.68,0,0,0,167.4,263a225.93,225.93,0,0,0,9.36-63.6L191.64,196l10.08,60.6,8.16,11.28a272.21,272.21,0,0,0-15.24-73.68c19.8-22.68,20.16-46.2.84-70.8l-2.88-3.24C186.12,118.08,180.84,118.56,176.64,121.8Zm238.44,34.08c1.44-19.44-7.32-25.92-26.4-19.56-10.44,3.48-18.24,10.2-23.64,20.16a248.34,248.34,0,0,0-17,39.36,213.1,213.1,0,0,0-9.36,42.48c-1.32,11.88-2.16,23.88-2.64,35.76q-.9,18.18-.36,36c.36,13.56.36,27,.12,40.44a145.77,145.77,0,0,0,7.2,46.56c5,15.48,14.64,26.64,28.8,33.6q9.9,4.86,19.44-2.16a77.27,77.27,0,0,0,18.24-18.72l-.6,35,4.32,1.92c10.8-32.28,12.48-64.2,5.16-96a67.64,67.64,0,0,0-36.6.48l-.48,13,33,5.16-1.68,16.56-1.8-4.44-3.6-.24c-4.92,15.72-15,26.52-30,32.4l-2.4.84q-40.86-37.44-35.4-98c1.44-15.48,2.64-31,3.72-46.68a386,386,0,0,1,11.4-69.24A96.29,96.29,0,0,1,371.88,165,56.43,56.43,0,0,1,386,151.92a19.16,19.16,0,0,1,6.72-3.12l9-.24A30.37,30.37,0,0,1,415.08,155.88Z" transform="translate(-69.45 -107.4)"/></svg>