<svg id="Layer_1" data-name="Layer 1" xmlns="http://www.w3.org/2000/svg" viewBox="0 0 404.59 402.36"><defs><style>.cls-1{fill-rule:evenodd;}</style></defs><path class="cls-1" d="M271.92,289a302.4,302.4,0,0,0-4.08,37.56Q265,390.78,258,454.68c-1.08,10,.36,17.64,4.44,23.16l.48-3.48.6,1.32A97.7,97.7,0,0,0,312,476.76l1-3.24.12-.84v-1.56a9.14,9.14,0,0,0-.36-2.52,5.57,5.57,0,0,0-1.56-2.4H309.6a70.26,70.26,0,0,1-37.92-.6v.24l-5.4.6a4.16,4.16,0,0,0-2.76,1.44c1.92-16.68,3.6-33.48,5.16-50.52A1042.8,1042.8,0,0,0,271.92,289ZM165,410.88q-4.14,37.8,20.52,63.12l2.76.6.84.84.84.72h4.56c12.48-12.6,20.28-28.08,23.28-46.44A910.43,910.43,0,0,0,229.2,318c.6-12.6-1.92-23.16-7.32-31.92l-.48.24c-2.88,4.2-2.88,8.4.12,12.72a988,988,0,0,1-3.12,101.4c-2,24.36-10.2,45.72-24.72,64.08l-3.24.36a28.18,28.18,0,0,1-10.32-8.28,22.61,22.61,0,0,1-4.32-11.4,681.13,681.13,0,0,1-.12-128,173.45,173.45,0,0,0,.12-32.52A266.3,266.3,0,0,0,168.12,351,590.46,590.46,0,0,1,165,410.88Zm-13.2-92.16a192.75,192.75,0,0,1,5.28,39.6,266.62,266.62,0,0,1-1.56,40.32A71.56,71.56,0,0,1,136.8,440a69,69,0,0,1-38.52,21.12,73.29,73.29,0,0,1-33.84-1.08l8.4-187.44,29.88-14.16C119.28,254,131.4,261,139.2,279.6A280.29,280.29,0,0,1,151.8,318.72ZM95.16,96.6a90.27,90.27,0,0,1,28.2,35,96.64,96.64,0,0,1,9.24,40.92,108.35,108.35,0,0,1-8.88,44.4,65.77,65.77,0,0,1-31.08,33.36,82.92,82.92,0,0,1-19.44,7.32l9.6-156.72,7.08-4.56ZM89.88,81.72a18.1,18.1,0,0,0-7.08,6.72L82,89.76l-.24-4.56a126,126,0,0,0-7.08,34.08q-4.86,64.08-8.28,128.4l-.6,11.52a15.7,15.7,0,0,0-1.8,8.16,13.48,13.48,0,0,0,1.2,4.92l-1.92,40.2Q60.36,376.56,56,440.76a114.3,114.3,0,0,1-2,15.84c-1.92,10-.24,17.88,5,23.88a22.79,22.79,0,0,0,2.4-4.44q21.06,8.28,44.64,2.88a43.83,43.83,0,0,0,7.92-2.64c22-10,35.88-26.52,41.76-49.92a243.54,243.54,0,0,0-1.32-126.6q-9.54-34.2-36.84-54.6c12.12-13.8,19.32-31.56,21.6-53.52Q145.86,124.32,95.76,82ZM250,125q-.18,46.8-2.76,93.36l-6.84,128.16c-1.08,21.48-2.88,42.72-5.4,64a274.37,274.37,0,0,0,.12,64.32c.84-.24,1.32-.6,1.32-1a365.84,365.84,0,0,0,7.68-57.48c2-42.6,4-85.44,5.52-128.28.84-21.36,2.16-42.72,4-64a849.9,849.9,0,0,0,1.32-128.4C251.64,104.16,250.08,113.88,250,125Zm173.76,44q-25-57.42-86-68.64l-.72.24-.12-1.32-.12,1.56a4.91,4.91,0,0,0-2.52,4.56,11.35,11.35,0,0,0,1.08,4.92l.24.12c-3.72,33-6,67-6.84,101.64-.84,43.08-1.32,86-1.32,129.12,0,42.84-1.8,85.44-5.4,128-.6,7.56,1.56,12.48,6.24,14.76a29.24,29.24,0,0,0,1.68-3.36c8.52-.12,17,0,25.68.36A258.32,258.32,0,0,0,406,454.8a49.74,49.74,0,0,0,12-10.92c22-28,34.32-60,36.84-96.36l2.52-38.16q4.14-66.6-25.92-124.32C428.64,179.76,426,174.48,423.72,169.08ZM380.4,130.44a250.6,250.6,0,0,1,56,81,175,175,0,0,1,14.4,63.72,354.6,354.6,0,0,1-16,120.72,73.9,73.9,0,0,1-16.44,28.32Q383,462.54,331.68,464.52c.84-14.28,1.68-28.68,2.28-43q2.52-64.44,1.2-129c-.36-21.72-.12-43.44.72-64.92Q338.4,169,337.2,111.36a89.18,89.18,0,0,0,20.4,7.08A46.16,46.16,0,0,1,380.4,130.44Z" transform="translate(-53.23 -81.72)"/></svg>