<svg id="Layer_1" data-name="Layer 1" xmlns="http://www.w3.org/2000/svg" viewBox="0 0 310.13 208.32"><defs><style>.cls-1{fill-rule:evenodd;}</style></defs><path class="cls-1" d="M282.24,381.24l2.88-80.4a175.27,175.27,0,0,0-7.56,90.24,9.65,9.65,0,0,0,4.44,6.48,27.6,27.6,0,0,0,9.12,3.72c15-7.2,20.16-18.6,15.72-34.08-5,10.92-12.72,15.72-22.92,14.4ZM198.72,264.72c-9.24,10.92-20.4,15.48-33.72,13.68a516.5,516.5,0,0,0-2-70.92c24.36,0,38,12.6,41.28,37.92C205.2,252.84,203.4,259.32,198.72,264.72Zm85.32-1.2c-3.72,8.4-3.6,16.44.36,24.24l3.72.12c5.88-7,7.44-14.76,4.56-23.28a8.38,8.38,0,0,0-1.32-2.52ZM164.16,293.88a32.6,32.6,0,0,0,26.28-5.16l5.76,1.08a43.3,43.3,0,0,1,13.92,13.68c8.28,13.32,11.4,27.48,9.36,42.24a23.55,23.55,0,0,1-10.92,17,100.32,100.32,0,0,1-51.12,17Q161.22,337,164.16,293.88ZM158,200.28l-.12,2.28a8.46,8.46,0,0,0-.24,3.12c.84,23.76,1.08,47.52.48,71.4l-.72-.24-.36.84a24.18,24.18,0,0,0-1.32,9.72,7.33,7.33,0,0,0,2,4.2c-.6,14.16-1.32,28.32-2.28,42.48a260,260,0,0,1-4.2,32,55.39,55.39,0,0,0-1.32,13.8h-2.52a15.69,15.69,0,0,0-2.16,7.2,11.34,11.34,0,0,0,3.48,9l5,1.08.36.84.72-.72a51.54,51.54,0,0,0,14.88-.24,82.49,82.49,0,0,0,25.2-8.64q45-23.76,29.64-73.08c-4.92-15.6-13.56-27.12-25.92-34.44,10.44-12.12,14.16-27,11.28-44.52-4-23.88-17.4-37.68-40.08-41.52l-7.56.72a9.75,9.75,0,0,0-3.48,1.44ZM453.84,282q.36-44.1-.12-87.12a38.92,38.92,0,0,0-6.24,21.36l-1.2,64.2a220.35,220.35,0,0,0-39.84,3.12q.72-45.36,0-89.76a164.63,164.63,0,0,0-7.08,47q-.72,64.62-4.44,129c-.72,11.88.72,22.68,4.44,32.28a2.85,2.85,0,0,0,1.08-1.44c2.52-25.92,4.08-52.2,4.92-78.72l.84-26.52c13.08.6,26.28.6,39.72,0l-1.68,49.8a288.59,288.59,0,0,1-3,32.16c-1.44,10.2.48,18.12,5.76,23.52A661.88,661.88,0,0,0,453.24,323l.48-28.8C456,289.92,456,285.84,453.84,282Zm-96.72-86.4c-11.16,10-16.68,22.68-16.32,38a72.65,72.65,0,0,0,13.44,41.16,260.8,260.8,0,0,1,23.16,39.6,64.17,64.17,0,0,1,5,42.12c-3.48,16.68-14.16,24.12-32,22.2-16.8-2-27-11.4-30.72-28.32l-1.2-6.48,2.28-5.76-5.64-5.76c-3.84,10-4.32,21-1.32,32.88A55.43,55.43,0,0,0,333.12,396,21.73,21.73,0,0,0,349,400.8c13.2-1.2,23.52-7,30.84-17.4q20.7-29.34,6.24-65.52a543.15,543.15,0,0,0-38.88-79.56,10.53,10.53,0,0,1-.84-8.76,51.5,51.5,0,0,1,10.8-19.8l8.16-.6,3.72,2.4,1.92,7.44,1.92,1a7.47,7.47,0,0,0,2.88-5.64,18.75,18.75,0,0,0-1.56-9.84,15.05,15.05,0,0,0-9.48-8.64Z" transform="translate(-145.31 -193.8)"/></svg>