<svg id="Layer_1" data-name="Layer 1" xmlns="http://www.w3.org/2000/svg" viewBox="0 0 553.1 587.89"><defs><style>.cls-1{fill-rule:evenodd;}</style></defs><path class="cls-1" d="M230,523c.84-5.4,5-8.28,12.48-8.64l15.72,1,.24.6v2.76c0,1.8-.12,2.52-.24,2.4l-8.4-.6-3.48.72.24,16.56-.12,25.2a133.45,133.45,0,0,1-2.88,24.72h-1.92a8.85,8.85,0,0,1-.36-3.36c0-9.72.48-21.36,1.32-35l1.92-27.72-9.72,1.92Zm-42-61.2c0-2.64-1.92-5.16-5.64-7.56-4.2-2.76-9.36-3.72-15.72-3V452c0,2-.72,9-2.16,21.12,8-.36,14.16-1.68,18.36-4.2C186.36,466.92,188,464.52,188,461.76Zm-11.28,17.16a51.15,51.15,0,0,1,8.16,14.28l5.64,20.52-.48.48-.6.84c-3.24-4.2-7.08-10.92-11.28-20.28-3.72-8-5.64-13.2-6-15.72l-8.4-.24-.12,1.32c-2.16,17.16-3.84,28.92-5.16,35.16l-1.08.36a20.39,20.39,0,0,1-1.08-6.48l-.48-2.4c0-.24.48-.36,1.56-.36.36,0,1.08-3.72,2.16-11.28a146.73,146.73,0,0,0,1.68-17.4q0-11.7.36-15.12c.36-4.92,1.32-8.52,2.76-11l-1.2.24-.24-.48a4.34,4.34,0,0,1-.36-2.16,8.56,8.56,0,0,1,.24-2.28l.12-.24c10.8-2.16,18.48-1,23.16,3.72,3,3,4.44,7,4.44,11.88,0,2.76-1.32,5.52-4.08,8.28C184.92,472.08,181.68,475,176.76,478.92ZM314,514.56c.84,10.8,1.56,22.44,1.92,34.8l12.12-.36,8.4-.36,7.8.24c1.68-14.88,1.44-23.4-.72-25.44l1.8-3.6a12.44,12.44,0,0,1,2.16-3.48,20.59,20.59,0,0,1,1.08,6.12q0,10.44-5.4,66.24l-.48.48-.84.84-1.32-2.28a8,8,0,0,1-.6-3.12c0-2,.48-6.48,1.32-13.32l2.28-16.2-27.6-.24.24,17.28L316,587.64a3.41,3.41,0,0,1-1.68,1.08q-.54-15.3-1.08-43.2L312.6,518a4.65,4.65,0,0,1,.48-2.64A1.16,1.16,0,0,1,314,514.56Zm-19.56-70.92A15.21,15.21,0,0,1,297.6,448a8.59,8.59,0,0,1,1,3.24l-.24,2.4-.6,1.68-1.92-1.56a9.82,9.82,0,0,1-2.4-3l-7.32.24c-7.92,7.92-13,20.76-15.12,38.4-.84,7.44-1.32,21.6-1.32,42.36a226.24,226.24,0,0,0,1.08,25.56c2,15.12,6.12,22.68,12.48,22.68,5.88,0,10.2-1.92,12.72-5.64a11.73,11.73,0,0,0,1.8-4.32l.84-3a24.87,24.87,0,0,1,1.32,7,10.42,10.42,0,0,1-2.28,6.48l-7.44,7.68h-8.4c-7.32-1.08-12-9.24-13.92-24.36-.6-4.92-1-15.24-1-31.2,0-24.24.48-40.8,1.56-49.56,2.52-20.88,8.28-34.08,17.16-39.6ZM243.84,373.8l.6-.48c2,5.88,4,14.76,6,26.52,2.28,13.56,4.08,22.92,5.4,27.84,1.44-6,3-14.88,4.8-26.52,2-14.16,3.6-23.4,4.44-27.84h1.32l.84,2.28.24,3c0,2.52-1.44,12.24-4.32,29-3,17.4-5.28,28.68-6.84,33.6a148.55,148.55,0,0,1-7.2-27.84l-3.84-28h-.84c-1.08,23.88-3.12,42.72-6.36,56.52l-.84-1.56a9.4,9.4,0,0,1-.24-2.52A261.78,261.78,0,0,1,239.16,407l4.2-33Zm5-151.44.24,3c0,14.76-2.16,59.28-6.6,133.8l7.8.24,7.92.6,11.4.6a12.19,12.19,0,0,1,1.8,2.28,6.61,6.61,0,0,1,.6,3,6.18,6.18,0,0,1-.36,2.52l-1.2,1.68-7.44-1-6.36-1c-8.76,2.4-14.4,1.92-16.92-1.32a5.34,5.34,0,0,1-1.2-3.72l.12-2.16q0-20.34,2.16-64.44c1.92-39.48,4.32-64.8,7.2-76.2ZM166.56,373.92l.12,3a346.41,346.41,0,0,1-4.32,55.56v.84c7.2-1.8,11.52-2.64,13-2.64l19.8.24.6,1a7.88,7.88,0,0,1,.24,2.28,4.91,4.91,0,0,1-.36,2.28l-.72.72c-11.88.12-20.64.84-26.28,1.92q-5.94,1.62-9,2.16a21.43,21.43,0,0,1-.48-5.76c0-4.44,1-16,2.76-34.56,1.56-16.2,2.52-26,2.88-29.28h1.08A9.89,9.89,0,0,1,166.56,373.92ZM68.28,249.48l-17.4,2-18.12-.24v61.08c-.72,6.48-1.08,16.68-1.08,30.48S32,367,32.76,374v41.4c.72,6.6,1.08,16.68,1.08,30.48q0,31.68-1.92,73.32c-1.08,24.24-2.4,41.64-4.08,52.32l1.56.48a27.6,27.6,0,0,0,5.52,1.44q32.4,0,66-22.8a172.39,172.39,0,0,0,22-17.64c5.28-4.92,9-9,11-12C137,516.6,140,507,143,492.36c2.52-13.2,3.84-23.28,3.84-30.12,0-15.48-2.16-34.44-6.48-57-5.4-25.32-9.36-43.92-11.64-55.56a218.08,218.08,0,0,0-7.68-28.08c-2.52-7.8-6-17-10.44-27.84Q101.82,272,80.4,257Zm81.36-25.56a51.16,51.16,0,0,1,1.56,9.84l.36,7.56-1.08,14.28-1.08,14.16c0,5.4.12,8.76.48,10,1,3.12,3.6,5.4,7.92,7l9.12-.24c7.2-7.08,11.28-16.68,12.24-28.56.24-3.72.24-8.76.12-15.36-.24-7.32-.24-12.36-.12-15.12,3.24.6,4.8,2.4,4.92,5.4a13.5,13.5,0,0,1-.84,4.8c0,5.76-1.44,14.88-4.44,27.48-3.48,14.88-7.2,24.12-11,27.84-10.08,1.92-16.44-1-19.2-8.52a27.8,27.8,0,0,1-1.56-8.76l.24-5.52c0-6,.24-12.6.72-19.92s.6-15.48.6-24.24v-1.68l.24-.36Zm-3.12-69.48-1.44,29.76q12.42-.72,20.52-6.12c5-3.48,7.56-7,7.56-10.68a10.59,10.59,0,0,0-4.56-9.12C164.28,155.16,157,153.84,146.52,154.44Zm-2.28-2,.12-.72.12-2.52h.84l.48.84a8.08,8.08,0,0,1,3.36-.84,25.35,25.35,0,0,1,10.68,1.56,28.08,28.08,0,0,1,10.68,6.12,13.77,13.77,0,0,1,4.8,10.44q0,5.94-5.4,13a24.82,24.82,0,0,1-8.64,7.2l8.28,14.4q7.92,14.22,7.92,16.56c0,1.8-.12,2.52-.24,2.4l-.36.24-.48.48q-4.86-5.22-13-20.88l-5.88-11.76a31.81,31.81,0,0,1-9.24,1.32l-3.6-.12c-.72,13.32-1.56,24.48-2.64,33.6l-1.44-1.32a4.08,4.08,0,0,1-.72-2.64c0-2.88.6-12.72,1.8-29.64l-2.64-.12-.36-.72a9.2,9.2,0,0,1-.12-2.16,7.88,7.88,0,0,1,.24-2.28l.84-.48h2.4l2.16-31.08Zm-30.6-81a251.1,251.1,0,0,1,12.84,39.36,176.07,176.07,0,0,1,4.8,39.48,183.17,183.17,0,0,1-2.4,28.92c-2,11.88-4.68,20.88-8.16,27A137.83,137.83,0,0,0,114,220a52.59,52.59,0,0,1-9.6,13.8c-4.92,4.92-11.64,8.76-20,11.64Q101.64,259.26,115,285c6.36,14.52,12.48,34.2,18.48,59.28q9.18,38.52,12.84,59.4a342.88,342.88,0,0,1,5.52,58.8c0,5.76-1.44,17-4.32,33.72-3,16.92-5.28,27.24-7.08,30.72a106.48,106.48,0,0,1-9.84,16,94.34,94.34,0,0,1-15.24,15.72c-4.08,3.24-14.52,9-31.2,17.16-17.16,8.4-27.6,12.6-31.08,12.6-16.32,0-26.28-1.56-30-4.8a4.16,4.16,0,0,1-1.56-3.6l.72-2.16a20.93,20.93,0,0,1,.36-4.56l3.12-51.12q3.24-55.8,3.24-76.32a234.53,234.53,0,0,0-1.08-26V377.64q-1.08-11.34-1.08-34.92t1.08-34.92V248.4a7.68,7.68,0,0,1-1.08-4.08,7.44,7.44,0,0,1,1.08-3.84v-23.4l.36-.84v-95l1-5.28,1.2-6V64.44c-.84-12-1.2-21.12-1.2-27.36a66.05,66.05,0,0,1,1.8-18,1.36,1.36,0,0,1-.36-1l.24-3.48c0-4.32,2.88-6.48,8.52-6.36s13.92,2.64,24.48,7.44l9.6,9.72L83,34.68a198.08,198.08,0,0,1,17.4,17.4C106.92,59.52,111.36,66,113.64,71.4ZM95.52,59.52Q81.66,41,65.28,30.36,50,20.46,35.4,19.56l-.72,67.68c0,4-.24,10.8-.84,20.52-.48,10.2-1,16.2-1.32,18.12v90.84l.24.84v19.92L52,236.4l11.76,1.08a4.78,4.78,0,0,1,2.88-.84l4,.48q28.8-2.88,43.8-33.72A115.17,115.17,0,0,0,124.2,172a123.69,123.69,0,0,0,2.16-21.48,146.44,146.44,0,0,0-8.64-49.08A155.6,155.6,0,0,0,95.52,59.52ZM223,13.56l-1.08,20.28L220.8,54.12,221,75.24q.54,21.06,1.08,32.4V235q3.42,43.38,4.32,58.32c1,17.64,1.44,36,1.44,55.32,0,49.56-.6,95.4-1.8,137.28q-2.7,94.5-8.52,101.16c-1.32-.48-2.16-1.68-2.76-3.72a14.51,14.51,0,0,1-.72-4.56q2-39.06,4.2-87.36,4.14-96.3,4.2-143.16l-.36-50.88c-.6-16.08-2.16-34.68-4.8-55.92V112.56c-.72-4.32-1.08-10.92-1.08-19.92,0-7.8.12-13.68.24-17.4V26.52L217.92,15c.6-5,1.68-8.28,3.12-9.6C222.36,7.32,223,10.08,223,13.56ZM298.2,75.24a5,5,0,0,1,.6,2.64q0,4.5-5.76,31c-4.32,19.56-8,32.64-11.28,39.12-3.84-7.8-7.44-18.12-10.8-30.72-3.48-14.16-6.24-24.72-8.4-31.68-1.08,6.6-2.52,17.16-4.56,31.56a207.54,207.54,0,0,1-7.56,33.12l-.84.24-.48-.36v-1.68c0-3.24,1.68-14.52,5-34,3.24-18.6,5.88-31.8,7.68-39.48q6.48,20.52,19.68,64.92l.6.24q4.32-12.78,8.28-34.2l6-31.56A3.16,3.16,0,0,1,298.2,75.24Zm74.52,224.64c0,2.16-7.2,18-21.72,47.52L341.28,367q.54,42.66,16.68,91.44c2.76,8.16,6.6,18.48,11.52,30.84,3.48,8.76,5.16,13.8,5.16,15.12l-.48,5.28a16.52,16.52,0,0,1-1.92,5.4,369.48,369.48,0,0,1-24.48-67q-9.9-38-10-68.64l-.6-4.32L317.76,413.4v65.4L316.32,495c-.6,7.08-1.8,12.48-3.36,16.32a4.54,4.54,0,0,1-2.28-2.76,8.92,8.92,0,0,1-.72-3.36A136.65,136.65,0,0,1,311,488.64a120.16,120.16,0,0,1,3-16.32V396c.36-2.4.72-6.24,1.08-11.4s.72-8.88,1.08-11.28v-52.8a84.57,84.57,0,0,0-.36-10.2l-.48-8a19,19,0,0,1,.48-4.56q.54-2.7,1.44-3.24c.6,2.88,1.2,12.24,1.8,28.2.6,13.8.84,22.92.84,27.48l-.6,20.4-1.44,30.24q5.4-12.42,19.44-40.68l33-66.36A9.63,9.63,0,0,1,372.72,299.88Zm105.72,4.92c-.36,14.76-2.4,44.28-5.88,88.44v56l1.08,4.08V495.6l-4.2,46.2-4,38.16c10-7.32,20.76-15.6,32.16-24.84q39.42-31.86,54-53.28A106.13,106.13,0,0,0,569,457.32a178.14,178.14,0,0,0,1.56-21.6l-.12-22.44a125.27,125.27,0,0,0-6.6-40.44,117.86,117.86,0,0,0-18-34c-7.8-10-16.44-17.76-26.16-23.4-10.2-5.88-20.52-8.88-31.2-9l-.48-.84-9.24-.6Zm-2.28-3.24a5.91,5.91,0,0,1-.6-2.16q0-5.58,6.12-6.48c3.84-.48,9,.36,15.48,2.4,13.56,4.44,26.76,11.64,39.6,21.72a105.67,105.67,0,0,1,16.8,18.6,64.08,64.08,0,0,1,9.72,19.44c5.88,20.64,9.36,34.56,10.32,41.88.6,4.92,1,16.32,1,34.08a197.29,197.29,0,0,1-5.4,43.8c-4.44,18.84-10.08,31.92-17,39.36q-19.62,21.42-41.76,42.48Q476,588.9,466.32,589l-2.52-.24-1.44-.6h-.6l-.36-2-.24-2V583h.12c1.2-16.08,2.4-34.56,3.72-55.32q3.78-62.64,3.84-106c0-22,.72-42.12,2.28-60.48,2.28-21,4.08-40.44,5.64-58.56ZM454.68,314l-.24,3.24-.48.36-1.08.72a25.86,25.86,0,0,0-3-8.28c-2.52-4.44-6.84-6.6-12.72-6.6q-30.78,0-45.24,55.2a277.85,277.85,0,0,0-8.4,58.08l.24,8,8,1.68c8.28,1.08,20.76,1.32,37.2.6l1.92-.12q1.08.18,1.08,1.8a10.6,10.6,0,0,1-1,4.08,7,7,0,0,1-2.28,3.24l-8,.48-8.52.84q-20.7-1.8-25.56-3.24a8.45,8.45,0,0,1-2.76-1.32v41.88c1.44,6.36,2.4,15,2.76,26,.6,14,1.2,22.92,1.68,26.88a80.87,80.87,0,0,0,7,26.28,65.77,65.77,0,0,0,19.08,23.88l6.84-.24a56.05,56.05,0,0,0,19-20.4c1.56-3,3.24-6.84,5-11.28l4.32-11.64.72-.36,1.2-.72a14.93,14.93,0,0,1,1.32,3.36l.36,3.6c0,4.68-4.08,13-12.36,25.08-8,11.88-14.64,19.68-19.92,23.16l-8-.24c-13.08-8-21.24-18.84-24.72-32.64a115.66,115.66,0,0,1-2.4-17.88l-1.32-16.8c-2.76-22.2-4.32-35.28-4.44-39L380,453c0-20.28.24-35.76.84-46.44,1-18.12,2.88-33.36,5.88-45.72a155.54,155.54,0,0,1,19-45.48c11.28-17.88,22.68-25,34.2-21a22.9,22.9,0,0,1,10.8,8.52Q454.68,308.64,454.68,314ZM461.16,2.16c1.32.24,1.92,2,1.92,5.28,0,8.52-14.52,13.2-43.68,13.8-4.92.12-14.52,0-28.8-.24a121.71,121.71,0,0,1,1,14.28L391.68,56q0,12.6-3.12,78.12T385.44,260l-.12,13.68c-.24,2.64-1.2,7.92-2.88,16-3.24-4.44-4.68-10.8-4.44-19.08,1-9.6,1.44-16.68,1.44-21.12,0-18.12.36-31.56,1.08-40.08V168c1-9.72,2-24.84,3.36-45.36s2.52-36.12,3.48-46.32V30c.24-.84.24-3.72.12-8.64V21h-.6l-20.16.6h-32.4q-20.88-1.8-25.56-4c-1.32-.6-2.16-1.32-2.28-2.16V13a15.66,15.66,0,0,1,.24-3.24,2.32,2.32,0,0,1,2.52-1.56c1.8,0,5.76.84,12.12,2.64l46.44-.48c32.76.12,60.12-1.92,82.08-6.36C456.48,2.64,460.32,2,461.16,2.16Z" transform="translate(-21.46 -2.15)"/></svg>