<svg id="Layer_1" data-name="Layer 1" xmlns="http://www.w3.org/2000/svg" viewBox="0 0 304.8 209.68"><defs><style>.cls-1{fill-rule:evenodd;}</style></defs><path class="cls-1" d="M196.08,269.88c-7.44,8-17,12-28.68,11.76l-4.2-75.36c15.84,3.12,27.84,11.16,36.12,24Q212.82,251.52,196.08,269.88Zm103.8,38.28c-11.4,10.08-18.6,22.92-21.72,38.4-3.24,15.72-.6,29.64,7.92,42q14.76,21.42,38.16,10.8c10.68-4.8,13.92-12.24,9.48-22.2-9.6,7.32-20.76,10-33.6,7.92a30.3,30.3,0,0,1-14.64-6.24l-1.68-24a61.93,61.93,0,0,0,39,.72,15.53,15.53,0,0,0,1.68-6.12,10.9,10.9,0,0,0-.84-5.16L322,340.92l-37.8,2.64c1.8-9.72,7.32-16.92,16.32-21.48,10-5.16,20-5.4,30.36-1,.6-6.72-2.4-11.76-9.24-15.12-5.76-3-11.52-2.88-17.4.12Zm-141,71.4,8-81.24a26.44,26.44,0,0,0,16.2-2.4,10.94,10.94,0,0,1,9.48-.48q27.54,10.62,33.48,42.72,3.24,18.18-11.16,29.88c-15.72,12.84-33.24,16.92-52.68,12.48Zm-.36-184.2L160,282.24h-1.68a14.64,14.64,0,0,0-.84,10.8l.72,1.92.6.84.72.84a616.39,616.39,0,0,1-8.28,75.72c-.84,4.32-1.56,8.76-2.16,13.2a9.36,9.36,0,0,0,1.2,6.24l3.24,2.28,2.16,4.2.48-3a57.45,57.45,0,0,0,34.92,4.2,49.36,49.36,0,0,0,11.64-4c13.08-5.64,21.6-15.12,25.44-28.44A98.28,98.28,0,0,0,231.84,342c.36-22.2-7.92-39.84-24.6-52.68a25.92,25.92,0,0,0-7.32-4.08A49.8,49.8,0,0,0,213,254.4a51.88,51.88,0,0,0-.72-13.68c-3-18-12.24-31.32-27.84-40.08a55.41,55.41,0,0,0-22.08-6.6Zm201,2.52q11.7,53.1,21.6,107.52a433.58,433.58,0,0,1,7,62.4c.48,11.4,3,21.36,7.44,29.88l.84-1.08.84,1.68a174.11,174.11,0,0,0,12.6-36.72A1053.28,1053.28,0,0,1,445.56,239a132.6,132.6,0,0,0,8.16-45.84,128.82,128.82,0,0,0-13.44,28.68q-20,60.84-36.12,123.12a226,226,0,0,1-7.2,22.08l-.36.84c-.84-16-2.52-32-4.92-48.12A635.51,635.51,0,0,0,361,196.44Q359.16,196.26,359.52,197.88Z" transform="translate(-148.92 -193.2)"/></svg>