<svg id="Layer_1" data-name="Layer 1" xmlns="http://www.w3.org/2000/svg" viewBox="0 0 255.99 209.16"><defs><style>.cls-1{fill-rule:evenodd;}</style></defs><path class="cls-1" d="M213.12,293.28l1.56-1q41.22,13.86,33.84,58.32c-2.52,15.48-11.76,25.08-27.6,28.56-14.28,3.12-27.6.6-40-7.44l4.92-74.4A38.43,38.43,0,0,0,213.12,293.28ZM227.4,263.4c-8.76,15.48-21.84,22-39.24,19.2l-2-.36-1.92-78.36q24.3.18,39.24,18C234.36,234.72,235.68,248.64,227.4,263.4Zm-43.8-68.16-.12-1.8c-.6-.12-1,0-1,.36q-3.42,35.82-4.08,72.72c-.84,43-2.52,85.68-5.28,128.28a2.32,2.32,0,0,0,2.16,2.16,5.62,5.62,0,0,0,3.12-4.56l.84-6.72c9.6,12.36,23.76,16,42.48,10.68,16.08-4.44,26.52-14.64,31.2-30.48q13.86-46.08-19.8-79.8l-2-.84a37.93,37.93,0,0,0-6.24-2q18.72-21.42,13.8-50.52c-4.2-25.56-19.08-38.64-44.88-39.48l-7.68.6a4.83,4.83,0,0,0-2.4,1.08ZM365.88,352.68l.6-3.6-.12-1.92a5.24,5.24,0,0,0-2.16-3.24c-12.24-.24-24.24,0-35.88.72l-1,.6v8.16a63.73,63.73,0,0,0,37.92,1.08Zm63-47.52-6.36,36.48L399,344l-.48-41.88a50.49,50.49,0,0,0-4.32,19.68,164.78,164.78,0,0,1-2.64,25.56,148.3,148.3,0,0,0-.48,52.44l7.2-45.24,22.8-1.08a201.37,201.37,0,0,0-1.56,48.6l.36.24a151,151,0,0,0,5.52-24.72,404.7,404.7,0,0,0,3.72-60.36Zm-60.36,9-.6-7.32-8.4-8.16-10-1.56q-27.9,11.88-31,43.44a102.42,102.42,0,0,0,3.48,38.64c4,14.28,12.72,20.4,26.28,18.24,17.64-2.52,25.8-11.64,24.48-27.6q-19.26,23.4-37.56,8A24.93,24.93,0,0,1,326.52,362a61.58,61.58,0,0,1,4.08-34.8c5.64-13.44,15.84-18.72,30.36-15.84l3.24,3.84Z" transform="translate(-173.16 -193.2)"/></svg>