<svg id="Layer_1" data-name="Layer 1" xmlns="http://www.w3.org/2000/svg" viewBox="0 0 303.47 209.43"><defs><style>.cls-1{fill-rule:evenodd;}</style></defs><path class="cls-1" d="M191.76,237q-1.44,30.78-30.6,37.8c.72-22.2.6-44.16-.48-66,11.88-1.32,21.24,3.48,28.2,14.4A27.79,27.79,0,0,1,191.76,237Zm100.32,60.12c-14.88-.12-25.44,8.16-31.68,25.08A109,109,0,0,0,254,365.64c1.08,18.84,10.2,29.64,27.24,32.16,19.2,2.76,28.8-4.32,28.8-21.48-12.36,7.56-25.08,9.12-38,4.44a9.9,9.9,0,0,1-5.64-5.4,57.66,57.66,0,0,1-5.76-20.88l32.88-4.92A7.47,7.47,0,0,0,295,341l-.84-2A60,60,0,0,0,261,344.52c4.92-30.12,18.72-39.12,41.16-26.88a7.92,7.92,0,0,0,7.32.48c.24-9.72-4.8-16.32-15.12-20ZM175.32,285.6q24.12,8.64,30.6,34.92a64.88,64.88,0,0,1-3.84,42.6q-11.7,26.1-37.44,16.56a31.8,31.8,0,0,1-10-5.76l5.88-83.4a15.23,15.23,0,0,0,13.44-4Zm15.6-75.24a34.9,34.9,0,0,0-24.24-15.24,15.09,15.09,0,0,0-5.4,1.44l-1.2.72-.48-5.16c-3.12,3.48-4.68,8.4-4.8,14.64-.6,42.72-2,85.44-4.08,128.16a191.66,191.66,0,0,1-4.08,32.16q-3.78,18.18,3.24,32l1.44-6,1.8,1.32c13.92,9.48,28,9.48,42,0,11.64-7.8,18.12-19,19.68-33.6a136.54,136.54,0,0,0-3.6-48.48c-4.44-16.92-13.44-28.68-27-35,17.4-18.84,20-40.92,7.68-66Zm173-7.68-1.44-5.4a498.1,498.1,0,0,0-13.44,83.64c-.72,10.56-1.92,21.12-3.48,31.68l-5,31.56-1.44,8c-2.16,9.48-4.56,19-7.08,28.44a19.69,19.69,0,0,0,3.48,18.12,187,187,0,0,0,16.08-62.64c1.68-21.24,3.84-42.36,6.48-63.48l4.8-37.8,1.32-9.36.48-3.36q4.32,37.44,11.4,74.16c.72,3.72,1.32,7.32,1.8,11a67,67,0,0,0,1.56,8.28c.6,2.64,1.44,5.16,2.28,7.68a43.71,43.71,0,0,0,5.16,10.32L421.2,219.12q8.46,79.92,16.08,160a22.21,22.21,0,0,0,.84,4.92,25.13,25.13,0,0,0,1.56,4.2,31,31,0,0,0,2,4,19.74,19.74,0,0,0,4.44,5,97.82,97.82,0,0,0,.12-44.52c-3-13.56-5.4-27.36-7.08-41.28l-4-31.92-4.68-31.56c-2.76-17.64-5.76-34.8-9.24-51.72L386,303.6,364,198.84Z" transform="translate(-145.32 -192.12)"/></svg>