<svg id="Layer_1" data-name="Layer 1" xmlns="http://www.w3.org/2000/svg" viewBox="0 0 501.51 507.2"><defs><style>.cls-1{fill-rule:evenodd;}</style></defs><path class="cls-1" d="M92.16,226.56C74.52,238,55.08,241.8,34.08,238v1.2q-.36,52.56,1.32,105.24c1.2,34.92,1,69.72-.72,104.64q-1.62,36.18-5.28,71.28a181.19,181.19,0,0,0,74.76-25.92c15.84-9.72,26.28-23.64,31.44-41.52a273.5,273.5,0,0,0,9.24-102.12,244.46,244.46,0,0,0-30.6-97.44A99.32,99.32,0,0,0,92.16,226.56ZM73,47.28l-.36-.48-.24-.24A265.86,265.86,0,0,0,39.24,34.8,867.48,867.48,0,0,1,38,134.64c-2.16,31.08-3.48,62.28-3.84,93.84,28.56,3.48,53.4-4.92,74.52-25a69.22,69.22,0,0,0,19.44-33.36q14.22-56.52-23.76-100.68a76.36,76.36,0,0,0-30.72-21.6ZM50.28,30.48c34.44,8.64,59.28,28.8,74.28,60.6q17.1,35.82,9.12,75.48a102.7,102.7,0,0,1-18.84,41.88,46.33,46.33,0,0,1-16.92,13.92l-2.76,2c19.32,14.76,33,34.08,41,58.2A306.8,306.8,0,0,1,151.8,385a228.44,228.44,0,0,1-21,92.76A68.18,68.18,0,0,1,108.24,505a116.73,116.73,0,0,1-59,22,38.57,38.57,0,0,1-21,4.92l-.36,3.24-1.56-3.48-1.08-.12a8.59,8.59,0,0,1-2-6.6l.6-2.52A49.66,49.66,0,0,1,23.88,509q4.86-38.52,6.48-77.88,2.16-52.2.6-104.64c-.84-26.28-1.2-52.44-1.08-78.72V235.44l-.36-2.28A6.67,6.67,0,0,1,30,230.4c.36-29.16,1.44-58.32,3.36-87.24,2.28-34.92,3.36-69.84,3.24-104.52a15.15,15.15,0,0,1,1-5.52V30.48l.36-1.32.48-.48,4-.6A8.1,8.1,0,0,1,50,30.24Zm133.68,9,2.88,98.16c.84,29.64,1.68,59.4,2.28,89.16,23.4-2.28,38.88-14.88,46.2-38a377.63,377.63,0,0,0,15.36-76.68,88.5,88.5,0,0,0-21-53.4,133.39,133.39,0,0,0-12.84-13.2A151.29,151.29,0,0,0,184,39.48Zm-4.2-.84-.12-.72-.12-.6V36.6a3.8,3.8,0,0,1,.48-1.92l3.72-.84.12-.72v.72a45.64,45.64,0,0,1,14-.24,59.35,59.35,0,0,1,17.76,3.72l1.68.36q38.16,31.14,36.36,80.16-2,54-28.08,100a37.14,37.14,0,0,1-13.44,13.8q13.32,45.9,25.32,93.24,12.78,50.4,27.72,100.2a827.8,827.8,0,0,1,24,100.56c.48,3-.36,5.4-2.4,7a2.3,2.3,0,0,1-1.92-1.68C278.28,497.4,270.24,464,260.76,431q-12.6-43.56-23.88-87.6l-26-100.32A37.86,37.86,0,0,1,209.4,233a36.54,36.54,0,0,1-7.2,2.52,39,39,0,0,1-13,1.08l.12,6.36c.6,34.68.36,69.6-.72,104.52L185.28,452a341.8,341.8,0,0,1-11.4,76.56c-2.76-8.16-2.64-17,.36-26.52a97.82,97.82,0,0,0,3.84-19.44c3.48-34.68,5.76-69.48,6.84-104.64.6-17.52.72-35.16.6-53q-.54-45.9-.6-92l-.24-1.92.24-1.44-.12-9.12c-.12-35-.72-70-2-104.64-.84-26-.72-51.48.6-76.32l-3.6-.24ZM359.4,33.48l1.92.48A87.74,87.74,0,0,1,380.76,52.8a9.61,9.61,0,0,1,2,6.6c-3.48-1.08-7.56-3.84-12.12-8.52-12.6-12.72-25-12.12-36.84,1.92a112.83,112.83,0,0,0-21.12,37.56,237,237,0,0,0-11.64,87.36q.54,11.52,0,23l-1.2,31.44,1.08-.12h1.92a263.83,263.83,0,0,0,41.28.84l1.08.12.72.36,1.08.6.84.6.48.6.24.6.12.72.12.72-.12.6-.12.72-.12.6-.36.6-.36.72a153.26,153.26,0,0,1-48-3.6c-.6,22.68-.6,45.6-.24,68.52q.72,39.24,3.12,78a463.12,463.12,0,0,0,18.36,103,47.25,47.25,0,0,0,16.32,24,82.82,82.82,0,0,0,14.28,7l1.92,1c13.8-.6,24-7.44,30.84-20.64L398,472.32q-1.08,30.06-25.8,51.12a45.18,45.18,0,0,1-12.12,7.44,46.29,46.29,0,0,1-21.48-8.64q-29.7-24.48-33.48-64.44c-1.56-16.44-3.24-32.76-5.16-49.2a851.11,851.11,0,0,1-5.64-103.92q.18-52.56,2.28-104.64,1.8-45.54,6.6-90.48a109.62,109.62,0,0,1,4.2-20.16q9.72-32.58,35-53.52a13.43,13.43,0,0,1,8.76-3.24A20.85,20.85,0,0,1,359.4,33.48ZM482,65.76q-18.9-24.3-50.28-25.2a35,35,0,0,1-.84,8.4l-.24.72q2,51.84,1.44,103.8-.54,40.32,0,80.52c21.48-5.52,38.76-17.28,51.6-35.28l.36-.6q16.92-33.48,14.64-72.84a242.86,242.86,0,0,0-3.6-29.76A71.26,71.26,0,0,0,482,65.76Zm-.6-7.32q24.12,31.5,20.16,73c-.84,8.52-1.2,17-1.32,25.68-.6,36.24-16.32,63.24-47.4,80.88l24.6,90.6Q491,379,502.2,429.84q8.28,37.62,20.16,74a44.69,44.69,0,0,1,.72,25.68,106.79,106.79,0,0,1-8.52-24.12q-11.7-49.68-22.92-99.84L483,366.72q-11.34-51.3-27-101.28a126,126,0,0,1-5.28-26.28A57.29,57.29,0,0,1,432.24,245l.24,13.8c.6,34.92.6,70.08.12,105.24-.48,34.92-1.68,69.72-3.48,104.64a338,338,0,0,1-7.68,57.48c-3.36-7.56-4-16.32-1.68-26a161.37,161.37,0,0,0,3.84-26.28c2.28-34.92,3.72-70.08,4.44-105.24s.84-70.32.48-105.24l-.12-19a4.77,4.77,0,0,1-.84-2.4v-3.36l.84-2.88c-.12-25.8-.12-51.72.24-77.64q.72-52,.24-103.92a98.35,98.35,0,0,1,1-13.8c-1.08-.24-1.56-1-1.32-2.28l.24-1.32.12-.12.84.24.48.24.24.12.72-2.88.36,2.64,1.8-.36,1.8-.24c19.08-.84,34.44,6.36,46,21.48Z" transform="translate(-23.11 -27.88)"/></svg>