<svg id="Layer_1" data-name="Layer 1" xmlns="http://www.w3.org/2000/svg" viewBox="0 0 434.37 424.84"><defs><style>.cls-1{fill-rule:evenodd;}</style></defs><path class="cls-1" d="M307.92,318q18.72,19.08-5.76,37.08a17.81,17.81,0,0,1-6.48,3l.36-40.8Zm-13.8-10.32-3,1.32a15.24,15.24,0,0,0-.6,4.08,9.39,9.39,0,0,0,.6,4.08h1.56q-5.94,36.54-9,74.4a89.31,89.31,0,0,1-3.84,19.68c-3.72,12-3.12,22.44,2,31.44a43.07,43.07,0,0,0,6-18.6c1.8-16.92,3.72-33.84,6-50.76a22.6,22.6,0,0,0,7.44-1.32,16,16,0,0,0,1.56,6.6A365.87,365.87,0,0,1,320.4,428c2.88,10.32,5.4,20.52,7.44,30.72,2,9.12,5.76,15.72,11.16,19.92a5.08,5.08,0,0,0,.72-1.68,65.83,65.83,0,0,0-2.88-28c-9-27.24-19-54-30.12-80.16a35.74,35.74,0,0,0,13.56-18.36q10.08-28.26-11.28-44.76a33.49,33.49,0,0,0-13.92,1.68l-.12-1.08h-.6ZM124.2,273a108.51,108.51,0,0,1,28.68,45.12,165.29,165.29,0,0,1,8.4,55.56,202.34,202.34,0,0,1-4.08,35.16A175.08,175.08,0,0,1,143.88,448,57,57,0,0,1,119,474.36q-26.46,14.4-56.16,5L78,289.44a94.37,94.37,0,0,0,35.76-17.28Zm21.72-77.88q-9.18,59.22-67.08,77.76,2.88-63.36,8.88-126.12A370.18,370.18,0,0,0,89.16,98c13.44-1.92,24.84,2.52,34.32,13.32q21.24,24.3,23.52,58A116.53,116.53,0,0,1,145.92,195.12ZM88.44,85.8l-.24-3.24c-.6-.12-1,0-1,.36l-.6,4.44A11,11,0,0,0,85,94.44l.48,2.16q-6.66,52.56-10.08,106.08l-7.8,128.16c-2.4,42.84-5.76,85.68-10,128.28A115.14,115.14,0,0,1,54.72,475L54,477.72l-4.8-1a17.43,17.43,0,0,0-2.28,7.32,12.31,12.31,0,0,0,3.36,9.72l8.16,3.12,1.32,1.2.24-.72q36.54,11.7,70.92-9.84A40.43,40.43,0,0,0,146.28,470a209.06,209.06,0,0,0,14.64-41.64,229.4,229.4,0,0,0-5.4-127.2c-5.76-17.64-16-30.72-30.48-39.36L130.2,256a89.93,89.93,0,0,0,15.72-29.28Q160.14,182,147.72,136c-7.08-25.8-23-43.2-48.12-52.08l-5.4.48A15.67,15.67,0,0,0,88.44,85.8ZM333.36,98.28Q277,146,283.92,225.24a92.68,92.68,0,0,0,10.44,35.64,40.79,40.79,0,0,0,14.88,16.32,7.53,7.53,0,0,0,5.16.72,36.76,36.76,0,0,0,19.92-9.72c11.16-10.56,14.76-22.44,10.92-35.64-6.6,17.16-19,26.28-36.84,27.48q-26.46-52-5.28-112a52.82,52.82,0,0,1,20.16-26.76,66.55,66.55,0,0,1,13.8-7.44L353.4,126.6c2.76-15-3.36-24.24-18.48-28ZM273.72,96a29,29,0,0,0-18.36-2.64A64.25,64.25,0,0,0,223,116a176.49,176.49,0,0,0-36,90c-2.76,25.8-5.28,51.48-7.44,77.28H179a1.87,1.87,0,0,0-.72,1q-2.34,5.4.36,9.72l-3,41.28a543.9,543.9,0,0,0,6.48,126.84A68.22,68.22,0,0,0,201,499.44a9.59,9.59,0,0,0,6.84,3.12q33.48,1.08,56-25.44c10.92-12.84,13.2-25,6.72-36.36a3.18,3.18,0,0,0-2.16,1.68l-1.32,2.4-.36.84a1.94,1.94,0,0,1-1.08.36v-2q-10.62,31.14-47.88,40.56c-8.52,2-14.52-.72-18.24-8.28a144.21,144.21,0,0,1-14.28-53.76,935.43,935.43,0,0,1,.36-127.08,307.87,307.87,0,0,0,57.6,0l.6-.84q4.86-9.54-2.52-14.76L186.6,283l3.48-52.8a209.62,209.62,0,0,1,25.56-88.8c12.12-22.44,30.6-33.12,55.44-32.28l3.48,3a13.6,13.6,0,0,0,3.24,1.56l1.08.6a13,13,0,0,0,1.92,3.6,8.46,8.46,0,0,0,5,3l1-.12c1.8-5.64.72-10.8-3-15.6a90.82,90.82,0,0,0-7.32-7.92Zm202.56,40.44c5.4-11,6.36-21.12,3.12-30.36q-21.06,51.3-44.4,103.2a933.83,933.83,0,0,1-45.12,88l-1.92,3.6q1.62-36.18,4.08-72a913.61,913.61,0,0,0,0-128.16c-4,9.24-5.76,19.8-5.28,31.44a791.29,791.29,0,0,1-1.8,95.52q-5.22,63.9-7.2,128.52a1198.5,1198.5,0,0,1-10.92,128.16l-.36-.12c-1.32-.84-1.56,0-1,2.52-.6,8.28,1.2,15.12,5.64,20.64a3.81,3.81,0,0,0,2.16-2.52A161.62,161.62,0,0,0,377,484.92c4.92-42.36,7.8-84.84,8.88-127.68l1.08-32,1,1.92q10.26-22.5,21.6-45.36l11.64-23.88.24,1.2q12.78,63,22.08,126.48l7,46.92c2,13.08,3.48,26.16,4.44,39.24,1,12.24,4.32,22.44,10.2,30.48a15.41,15.41,0,0,0,2.52-12.12Q456.3,427.44,447.72,364.2q-8.1-59.58-21.24-117.48c12.84-27,25-54.12,36.6-81.48C467.28,155.52,471.6,145.92,476.28,136.44Z" transform="translate(-46.89 -82.52)"/></svg>