<svg id="Layer_1" data-name="Layer 1" xmlns="http://www.w3.org/2000/svg" viewBox="0 0 580.44 591.36"><defs><style>.cls-1{fill-rule:evenodd;}</style></defs><path class="cls-1" d="M405.12,436.8a11.27,11.27,0,0,1,1,3.72l.12,4c0,4.92-2,26.4-6.24,64.56l30,.24,2.28.12q2.7-46.8,5.28-71.52a47,47,0,0,1,1.08,11.64c0,3-.84,13.56-2.4,31.68-1.56,17-2.16,26.4-1.92,28.08v1.2l.84,1.08a13.17,13.17,0,0,1,.24,2.88l-.24,3.24.48.24-1.32.24V558L431,593.76h-1.32L429,587c-.36-2.76-.6-4.56-.6-5.52q1.62-35.28,3.24-63.36c-1.56-.12-2.52-.36-2.76-.72L399.72,517v63.48a46.45,46.45,0,0,0-1.44,7.32l-.36.36-.72.48a8.1,8.1,0,0,1-1.92-3.12l-.48-2a16.13,16.13,0,0,1,.72-4.32l1.44-4.68V506.28l3.24-35.76L401.76,453C402.36,445.44,403.44,440,405.12,436.8Zm179.16,85.08q0-7.38-4.32-20.16A133.84,133.84,0,0,0,567.6,475.2q-20.34-32.94-45.84-30.84l-.12-.12L523,458.52c.84,11.4,1.2,20.4,1.2,27.24,0,27.48-.24,44.52-.6,51.12a205.82,205.82,0,0,1-6.72,43.92l3,.24q27.18,0,47.88-26.28a98.29,98.29,0,0,0,12.36-19.92C582.84,528.84,584.28,524.52,584.28,521.88Zm-32-74.88q3.24,3.6,11.88,12.6c5,5.4,8.16,9.6,9.24,12.6q7.74,20.34,9.36,25.2c2.76,9,4.2,17,4.2,24.36q0,25.2-25.44,47.88a97.43,97.43,0,0,1-21.24,14.64c-7.08,3.6-12.84,5.4-17.4,5.4l-11.4-.36-.72-1.8-.12-2.64a17.61,17.61,0,0,1,.24-3.24,3.09,3.09,0,0,1,1-1.56l-.12-1.56.12-3.36a16.53,16.53,0,0,1,.72-3.12,4.39,4.39,0,0,1,1.92,4.08v.24c3.48-18.12,5.64-34,6.36-47.76.36-6.6.6-20.88.6-42.84V462.24a48.11,48.11,0,0,0-2.16-11.88c-1.44-5.16-2.16-8.88-2.16-10.92l.12-.48-.12-1.32c0-4.68,4.32-5.64,13.08-3A59.93,59.93,0,0,1,552.24,447ZM242.76,527.4l-.72,8.88-1.44,12.24V555a29.84,29.84,0,0,0,10.8-2.16l11.52-1.44L276,550.08c3.24,0,5.28.72,6.24,2.28a7,7,0,0,1,.48,3.24l-.24,2.28-1.08,1.44-3.6.36q-3.6.36-4,.72c-14.16-.36-22.44,0-24.84,1.32a3.32,3.32,0,0,0-1.56,1.32,8.23,8.23,0,0,1-3.84.6l-3.84-.12-1.68-.12c-.12-2.16-.24-5.88-.24-11,0-3.84.24-8.64.6-14.4s.48-11.28.48-16.44a6,6,0,0,1,1-3.24,3.19,3.19,0,0,1,1.8-1.44C242.4,519,242.76,522.48,242.76,527.4ZM343.8,485q11.52-41.94,26.4-46.44l7.8.36a17.62,17.62,0,0,1,6.36,7.08,18,18,0,0,1,2.28,8.16,7.75,7.75,0,0,1-.48,3.12,7.54,7.54,0,0,1-1.68,2.16h-1.32a34.4,34.4,0,0,0-2-7c-1.56-3.72-2.88-5.52-4.2-5.52q-21.06,0-32.64,47.76a288,288,0,0,0-7.32,48.6,74.76,74.76,0,0,0,3.24,21.12c3.72,12.6,9.84,19,18.12,19,10.44,0,17.76-5,22.2-15A45.41,45.41,0,0,0,384,557.28c.6-4,1.08-6.36,1.32-7.2a9.13,9.13,0,0,1,1.2,3.6l.12,3.72a34.92,34.92,0,0,1-1.2,6.24,103.9,103.9,0,0,1-3.84,11.76c-4.44,10.92-9.36,16.44-14.64,16.44-14.88,0-24.84-8-29.76-24.12a70.11,70.11,0,0,1-2.88-16.56l-.12-7.8a166.73,166.73,0,0,1,2.52-25A282.51,282.51,0,0,1,343.8,485ZM293,444.84l1.32-.84c1.68,1,2.52,3,2.52,6,0,3.24-3.48,15.12-10.44,35.4-7.32,21.24-11,32.52-11.28,33.6-6.72-8.4-13.08-18.84-19.2-31.2-3.48-7.08-8.28-18.12-14.28-32.88h-.84c-2.16,7.2-4.68,18.12-7.56,32.64-3.24,12.72-8.16,23.16-14.64,31.44a22.21,22.21,0,0,1-.24-3.72c0-1.56,2.76-11.4,8.4-29.28l13.44-43.08c6.12,13.32,11.28,24,15.36,32.28,6,12.24,11.76,23.28,17.4,33h.6c4.56-12.36,8.16-22.8,10.8-31.08C288,465.72,290.88,455,293,444.84Zm-9.12-111.36-17.4-30.12-16.08,29,32.88,1Zm-41.64,0,.12-1.44,1.08-.12h.24c10-17.88,17.64-31,22.8-39.12q3.78,6.3,28,44.52C306.12,355.8,312,365.64,312,366.72l-.24,3.24-.24.12-.6.6a202.45,202.45,0,0,1-22.08-28.92l-7.2-.84-35.76-.48-18.36,32.4c-2.52-1.56-3.72-3.24-3.72-4.8l18.36-33.36ZM148,402.36a185.27,185.27,0,0,1,.84-18.72,76,76,0,0,1,3-17.28q1.08,2.52,1.08,9c0,4.2-1.32,24.36-3.84,60.36l-4.8,67.08v5.64L154.8,508l15.12-1.08a4,4,0,0,1,3.84,2.64,7.92,7.92,0,0,1,.72,3.24l-.24,3.24-5,.6-14.4.48-13.56-.24a8.37,8.37,0,0,1-.72-2l-.12-2.88c0-2.88,1.08-15.12,3.24-36.84s3.24-33.72,3.24-36.12c0-4.08.24-10.2.6-18.24Zm-59.64-160c-4.56-6.36-10-13.32-16.32-20.88l-.84-1C60.72,224.88,48.48,227,34.68,227l-2.16-.12v77.76l-1.08,3.24V367.2c-.36,2.52-.72,6.24-1.08,11.4s-.72,8.88-1.08,11.28V433q-3.06,25.92-6.12,78-3.42,38.52-10.8,66.48,49-11.52,77.16-33.6,24.84-19.62,30.12-44.28c5.88-25,9.6-41.4,11.16-49.2,2.28-11.4,3.36-25.2,3.36-41.4,0-22.2-.48-37.08-1.56-44.76-.84-5.88-4.68-23.76-11.64-53.76Q113.4,277.5,88.32,242.4ZM170,305.64c-4-4.44-9-6.36-15.24-5.76l.24,9.72c0,4.8-.24,10-.72,15.6l8.28-1.32c8.28-1.2,12.48-3.12,12.48-5.64Q175.08,311.58,170,305.64Zm-16-13.8,4-.36c8.4,0,14.16,4.08,17.28,12.36a39.39,39.39,0,0,1,2.52,14.64q0,6.84-1.08,9c-1.68,3.24-5.28,5.16-10.92,5.52a121.28,121.28,0,0,1,4.92,12.24c4,10.44,6,16.92,6,19.32l-.24,2.4-.84,1.56q-3.42-3.6-8.28-19.44c-2.88-9.36-5.16-14-6.72-14-1.08,0-1.44-.24-1.32-.84l.24-1.2-6.12-.12-.6,4.2-4.32,29.28-.6.48-.72,1a10.2,10.2,0,0,1-2.88-4.44,8.43,8.43,0,0,1-.72-2.76l3.84-20.28a241.39,241.39,0,0,0,3.84-42.6v-1.08c0-2.28.6-3.72,1.8-4.44l.48-.12.36-.36ZM34.44,17.52l.24,2.28V77.4c.72,3.24,1.08,8.28,1.08,15a69.53,69.53,0,0,1-1.08,14.16v59.28c-.36,3.6-.72,9-1.08,16.32s-.72,12.72-1.08,16.2V214.8l7.92-1.44a143.11,143.11,0,0,0,25.8-6.6l.36-.6.48.36a173.52,173.52,0,0,0,19.2-8.16c5.64-2.76,10.32-7.44,13.8-14a115.87,115.87,0,0,0,6.24-16q2.7-7.92,4.68-33.12c1.08-13.08,1.56-22.08,1.56-27q0-52.92-41.64-76.08c-6.6-3.72-16.2-7.68-28.68-11.88ZM115.68,81c.84,4.56,1.2,13.8,1.2,27.6l.72,22.8a146.59,146.59,0,0,1-5.52,40.2Q102.9,202.38,80,216c17.88,16.44,32.16,44.28,43.08,83.76A442.41,442.41,0,0,1,135,360a379.36,379.36,0,0,1,3.6,49q0,80.82-27.24,123.48-30.42,48.06-100.8,58.8a6.18,6.18,0,0,1-1.68,2.52c-1.56-1.44-2.4-4.08-2.4-7.8l.12-2.76L6.48,581c0-3.24,1.8-15.6,5.52-37.32,4-23.4,6-36.6,6.36-39.84l6.48-77.16V384.48c.36-2.52.72-6.24,1.08-11.4.36-5.4.84-9.48,1.2-12.12V302.52l1.08-4.08V193q.54-5.22,1.08-16.2c.36-7.32.72-12.84,1.08-16.32V101.16a38.52,38.52,0,0,0,1.08-9.36,27,27,0,0,0-1.08-8.4V25.68a60.82,60.82,0,0,1-1.56-7.44,62,62,0,0,1-.6-6.36c0-3,.84-5,2.4-5.88l1.56,1.68a13.36,13.36,0,0,1,5.4.6c2.52.6,7.2,2.16,13.8,4.56l23.28,8.52a91.29,91.29,0,0,1,28.68,29.28C109.92,61.56,114.12,71.76,115.68,81Zm185-69.24c3,3.48,4.56,8.16,4.56,14.16,0,3.6-.6,6.36-1.92,8.16a20.63,20.63,0,0,1-1.56-3.6,33,33,0,0,0-3-6.48c-3.72-5.88-9.36-8.88-16.8-8.88q-38.34,0-55.8,42.36a172.19,172.19,0,0,0-9.6,33.6l-4.44,25c-3.36,15-6.24,32-8.76,51-1.56,12-3.24,28.08-5,48.12h.84l5.4-1,17.28-1.8,6.36-1.08,3.36-1.08,44.64-.48.84-.6,7.92.24a9.76,9.76,0,0,1,1.8,6.12,9.54,9.54,0,0,1-2.16,6.12l-4,.36-4.68.72-46,.48-4.2,1.56a30,30,0,0,1-7.2,1.2l-14.52,1.56-4.92.6-1.92-.36q-2,26.82-6.12,96.24-5,85.32-5,99.72a193.24,193.24,0,0,0,1.08,23.64v46.2c.6,2.52,1.32,9.24,2.4,20.4A89.25,89.25,0,0,0,194,535.68c6.36,16.92,22.2,29.16,47.28,37l30.6-.36c10.92-3.24,19.44-8.4,25.8-15.72a72.91,72.91,0,0,0,6.36-9.24l4.44-8.28c1.56-3,4.44-9.36,8.4-19S323,505,323,504.12s-.84-2.4-2.4-5.16-2.4-4.92-2.4-6.6a39.15,39.15,0,0,1,.24-4.44l.72-.48,1.2-1.2a38.57,38.57,0,0,1,6.72,9.36,18.86,18.86,0,0,1,1.92,8.52c0,4-2.4,11.52-7.08,22.8a204.86,204.86,0,0,1-8.88,19.44q-8.46,15.66-13,20.88c-7,8-16.44,14-28.44,18.12l-15.48-.24-16-.6q-39.42-13-50-39.36c-2.4-6.12-4.08-13.8-5-23.16-.72-10.08-1.44-17.52-2.28-22.2v-47a287.38,287.38,0,0,1-1.08-28.92q0-17.1,5.4-108.72,4.86-81.54,6.6-103.56c3-26.4,5.64-47,7.68-61.92q5.4-39.78,12.12-66.6C226.2,32.88,244.92,6,269.52,2.4,284.76,2.28,295.2,5.4,300.72,11.76Zm50,211.2.36.48c.12.24-.48.36-1.56.36l-11.88-1.56-35.16-1.92a10.56,10.56,0,0,1-.72-2l-.12-2.88c0-4.44,1.44-16.08,4.2-34.92q3.78-26.1,5-31.68c.72,2.16,1.08,5.64,1.08,10.56L309.36,181c-1.8,13.32-3,22.08-3.84,26.28v4.92c6,.12,15.24.84,27.84,2.4q9,1.26,11.88-2.16a10.54,10.54,0,0,1,4.92,3.72,6.15,6.15,0,0,1,.84,3.6ZM419.4,257a66.16,66.16,0,0,0-8.28-14.64c-6.72-9.36-13.92-14-21.48-14-12.36,0-20.64,4.68-25.08,14-2.28,4.56-3.36,10-3.36,16.32,0,10.08,3.48,19.68,10.44,28.68,3.72,5,11.28,12.6,22.68,22.8,10.68,9.6,18.24,17.52,22.68,23.88a57.17,57.17,0,0,1,10.32,32.64,63.62,63.62,0,0,1-5.4,24.84,80.54,80.54,0,0,1-13.56,22,76.39,76.39,0,0,1-18,15.48c-6.6,4-12.72,5.88-18.6,5.88-21.24,0-35.4-3.36-42.24-10.2a16.65,16.65,0,0,1-4.68-7.92,44.4,44.4,0,0,0-1-5.76,124.79,124.79,0,0,0-8.16-19.44L312,385.32l.12-3,.12-1.08.24-.36c.12-.24.84-.36,1.92-.36,3.72,0,6.48,2.28,8.52,6.84a103.94,103.94,0,0,1,4.56,15c2,6.84,4.8,11.88,8.16,15.12,4.44,4.56,10.8,6.84,18.84,6.84,26.76,0,46.08-8.76,58.2-26.16a63.82,63.82,0,0,0,8.88-19.68,45.57,45.57,0,0,0,1.92-12.12c0-8.52-3.48-17.16-10.32-25.68-3.12-4-10.68-11.4-22.68-22.56C380,308.4,372.48,300,367.8,292.8a62.47,62.47,0,0,1-10.32-34.32c0-14.76,3.24-25.68,9.84-32.64,5.64-5.88,13-8.28,21.84-7.2A37.92,37.92,0,0,1,410.88,229c6.6,6.12,10,13,10,20.4A17.9,17.9,0,0,1,419.4,257Zm-52-151c7,19.8,11,31.2,12.24,34.08,3.24-7,7.32-17,12.48-30.24l12.36-31.68v-.36l-4.56.6-.6-1.2-.24-2.52c0-2,.36-3.48,1.08-4.08q2.16-2.16,9,0l.12,1.2.12,2.76c0,1.56-4,12.6-11.88,33-6.84,17.4-12.6,31.8-17.4,43.32-4.44-8-9.12-18.84-13.92-32.4-5.16-15.36-9-26.64-11.76-33.84L347.4,118.8a207,207,0,0,1-11,34.08l-1.32.24a7.67,7.67,0,0,1-.72-2.64L334.2,147v-3.6q.54-2.16,2.16-2.16c2.28,0,5.28-8.88,8.88-26.76,4.56-22.44,7.68-35.88,9.24-40.32C358.2,81.72,362.52,92.4,367.44,106.08ZM583.2,5.52a15.66,15.66,0,0,1,.24,3.24c0,2.28-.48,3.84-1.56,4.68-2.4,2-7.8,3.12-16.08,3.12l-4.68.72-4.8.84-22.08.36-23.4.72-17.16.36-9.6.24c.6,6.24,1.08,13.32,1.44,21.12l1.56,31.56v47.16c-.36,5-.48,12.24-.36,21.72l.36,14.76-.36,14.76c-.12,9.48,0,16.68.36,21.84v47Q486.54,245,486,256c-.36,7.32-.72,12.84-1.08,16.32v64.08A258,258,0,0,0,483,362.28L482,389q-1.62,31.5-10.08,51.84,22.14,1.08,29.88,5.4,5,2.88,5,9.36a9.34,9.34,0,0,1-.6,3.36L505,461.4l-1.08.24a39.43,39.43,0,0,0-4.08-6.84c-3.36-3.72-7.92-5.64-13.8-5.64l-16.56.36c-11.16,4.92-18.84,16.92-22.92,36.12a161.49,161.49,0,0,0-3.12,25.8c2.4-.84,9-1.56,19.92-2.4l28.92-.6.84-1.32a25.6,25.6,0,0,1,4,2c.72.84,1.08,2.16,1.08,4.2l-.24,2.4-1.08,1.32-34.56.6-7.08,1-8.16.6-3.72-.12H443l-.12,8.64A112.1,112.1,0,0,0,446.28,555c4,16.08,10.32,24.12,19.2,24.12,16,0,26.28-4.56,30.84-13.56a24.18,24.18,0,0,0,2.52-9.72,31.8,31.8,0,0,1,.12-5.76,8.86,8.86,0,0,1,2.52,6.6c0,5.52-1.68,11.16-4.92,17-5.16,9.24-13,13.8-23.52,13.8-15.6,0-25.68-9.72-30.36-29.16a104.29,104.29,0,0,1-2.52-20.52l.12-10.08c0-19.8,1.2-35.4,3.72-47,4.44-21.12,13.08-34.44,25.8-40h.12a19.14,19.14,0,0,1-3.6-4.2,13.83,13.83,0,0,1-.84-5.76l.12-3.48.12-1.44a9.36,9.36,0,0,1,4.56.84c3.6-12.12,6-28.08,7.2-47.64l1.32-24.48c.48-9.72,1.08-17.76,1.8-24.24V267.12c.36-5.64.84-22.56,1.44-50.64.48-27.48.72-47.64.72-60.6l-3.12-136-4.44.36-40.08.6L428,21.6l-7,.84-27.36.6-3,1.32c-1.44-1.2-2.16-3.12-2.16-5.88a21.39,21.39,0,0,1,.24-4A15.33,15.33,0,0,1,392.88,10l29.28-.48,7-.84,7.08-.84c27-.36,41.16-.72,42.24-1.08L514.2,5.64l42.48-.48,4.68-.84,4.8-.84,13-.48V2.4A5.69,5.69,0,0,1,583.2,5.52Z" transform="translate(-6.48 -2.4)"/></svg>