<svg id="Layer_1" data-name="Layer 1" xmlns="http://www.w3.org/2000/svg" viewBox="0 0 543.62 591.28"><defs><style>.cls-1{fill-rule:evenodd;}</style></defs><path class="cls-1" d="M403.92,573.12l-27.24-3.24-1.92-52c-5.16,11.16-6.84,23.52-4.8,37.08a192.9,192.9,0,0,1,2,27.6l31.2,1.08A9.89,9.89,0,0,0,403.92,573.12ZM378.84,461c-2.28,8.4-7,13.08-13.92,13.92.12-7.32,0-14.76-.48-22.08A32.22,32.22,0,0,1,377.16,457l1.08,2.52Zm-17.4-13.2-.24,3.72.48.84,1.08.36q-10.8,34.2-3.24,66.6l4.8-33.48,6.6-2.16c1.8,11.4,6.72,22.32,15,33a66.75,66.75,0,0,0-12.36-35.52c9.12-8.4,11.64-18.6,7.44-30.48q-8.1-7.74-17.64-4ZM313.56,585.48a179.81,179.81,0,0,0,37.68-1.32l1.08-8.28a98.54,98.54,0,0,0-35.28-1.2l.6-56.76c-7.08,10.2-9.36,22.8-7,37.8A247.32,247.32,0,0,1,313.56,585.48ZM276,366.36l-5.4,2.16v8.16c22.32-.36,31.8,10.32,28.32,32-1.68,10.32-7.92,16.68-18.6,19l-9.12,1.92-2.52-62.4a159.58,159.58,0,0,0-3.36,63.6l-2.88.48.48,10.2,2.64.48L267,521.28a180.82,180.82,0,0,0,4.44-79.56,40.17,40.17,0,0,0,27.36-14Q310,476.1,332.4,516.24a382.89,382.89,0,0,0-32.16-90.36c7.92-12.12,9.36-25.2,4.32-39-3.24-9.12-9.84-15.12-19.56-18.12A83.2,83.2,0,0,0,276,366.36ZM109.68,320.64A319,319,0,0,1,112.44,415c-2,16.2-4.44,32.28-7.32,48.24q-12.78,70.74-73.2,106L32,563.4q-.18-39.06,2.16-77.88c2.64-42.6,4.2-85.44,4.56-128.28.36-38.88.12-77.64-1-116.28l3.36.12a132.6,132.6,0,0,0,18.72-12.24,14.41,14.41,0,0,0,6.12.6,57.69,57.69,0,0,1,24.6,27.72A291.2,291.2,0,0,1,109.68,320.64ZM33.12,5.52l-.36.72L32.4,9.48a7.51,7.51,0,0,0,.36,3.24l.48,1.68h.24a231.27,231.27,0,0,0-3.84,34c-1.8,42.72-1.92,85.44-.12,128.28,1.8,43.08,3.12,86,3.84,129.12a1285.76,1285.76,0,0,1-4,129.12q-5,63.72-5.88,128.16h-.36l-2.28-11.28a147.63,147.63,0,0,0,4.32,36.72l2-3.24a15.13,15.13,0,0,0,2.52,3.84A116.1,116.1,0,0,0,82.44,541.8a265.51,265.51,0,0,0,32.76-83.64,339.73,339.73,0,0,0,2.4-127.92l-7.92-47.16q-6.66-41-39-64,29.88-30.24,30.84-78.12.54-31.68-1.8-62.64Q95,20.76,42.24,2.4l-5.4.48-1.68.36-.48.6-.84.72Zm46.2,39q18.9,42.66,16.92,91.08-2.7,62.82-58.92,88.92-1.44-46.62-1-93c.36-39.48.36-78.6-.24-117.12A50.66,50.66,0,0,1,66.36,27,48.08,48.08,0,0,1,79.32,44.52ZM266,34.8C263.52,17.28,253.8,8.4,237,8.16a124.29,124.29,0,0,1-21.6,2.16,98.78,98.78,0,0,0-33.48,41.52,293.05,293.05,0,0,0-20.16,72.24,1220.81,1220.81,0,0,0-11.52,122.4l-1.8,45.36a11,11,0,0,0-.36,7.8l-.84,26.4a888.16,888.16,0,0,0,5.4,129l5.28,48.12c3,31.44,16,57.48,38.64,78.12,11.16,10.2,24.36,14,39.72,11.76q38.52-5.58,55.92-39.24c10.32-19.8,14.52-39.72,12.6-60l-2.52.84-2.52.6c-3.36,11.52-7,23-10.8,34.44a63.74,63.74,0,0,1-28.44,35.64q-39.6,23.4-69.48-9.24a90.45,90.45,0,0,1-22.2-44.16A655.67,655.67,0,0,1,156,383.4c-.12-26.52.12-53.16.6-79.68a188,188,0,0,0,52.56-3.12l.48-.84c2.28-5.16,1.92-10.08-1.32-14.52-17.16,2.28-34.32,4-51.48,5.16l1-35.28a1110.12,1110.12,0,0,1,10.56-124.8c1.32-10.2,3-20.4,4.92-30.48q8.1-43.92,42.12-72.72l29.76-1.2c2.16,0,3.6.72,4.44,2.16a74.56,74.56,0,0,0,14.76,17.4A19.2,19.2,0,0,0,266,34.8ZM292.32,7.32A810.56,810.56,0,0,0,286,105.48a610,610,0,0,1-3.84,64.8,187.38,187.38,0,0,0,.36,47.88,451.63,451.63,0,0,0,9-83.4l2-128.28A1,1,0,0,0,292.32,7.32ZM386,392.76l16.56,2.76,3.72,49.08a130.52,130.52,0,0,0-1-52.8l-1.68-7.08-17.28,2.76-.36,1.68ZM359.52,319.2a181.76,181.76,0,0,0-8.28,40.56,186.87,186.87,0,0,0,1.44,44.88c2.52,17.28,10.8,28.92,24.84,34.8,7.8,3.24,14.64,1.8,20.76-4.2,4.44-4.2,5.64-9.36,3.72-15.36-6.72,8.4-15.6,10.44-26.76,6.24a19.1,19.1,0,0,1-11.4-10.8A134.5,134.5,0,0,1,352.56,368q-1.8-30.78,19.08-51.12a35.35,35.35,0,0,1,19.92-9.84l3.72,2.52,3.36,8.76c2.64-1.2,3.72-4,3.24-8.4a24.12,24.12,0,0,0-6.36-13.68l-2.4-.36C376.2,294.72,365,302.52,359.52,319.2ZM354.12,5.4a188.63,188.63,0,0,0-5.76,50.4,763.53,763.53,0,0,1-4.8,95.52A261.07,261.07,0,0,0,341.88,186c-4.92-18.72-9.84-37.44-14.64-56.28L295.68,6a203.66,203.66,0,0,0,5.64,47.28q14.4,62.1,31.08,124a177.92,177.92,0,0,1,5.4,31.8c.6,7.08,2.88,12.24,6.84,15.24a77.1,77.1,0,0,0,.6-19.68q3.6-35.28,5.76-71.76Q355,68.22,354.12,5.4ZM368,157.56c-1.8,4.32-1.68,4.32.24-.12ZM371.52,144a707.74,707.74,0,0,0-8.16,94.2,278.19,278.19,0,0,0,3.12,48,30.48,30.48,0,0,0,2.52,7.92,246,246,0,0,0,5.76-80.88c-1.8-19.2-2.76-38.4-3.12-57.72L386,161a164.76,164.76,0,0,1,13.68,98c-2,11.64-8.76,18.24-20.28,20l-5.28.36c-2.4,4.68-1.56,7.68,2.52,8.88a14.55,14.55,0,0,0,13.2-2.16c11.28-7.8,17.52-19,18.72-33.24,2.76-33.72-3.36-65.16-18.12-94.2-3.72-7.56-9.84-11.52-18.24-11.88ZM477.6,4.92l-64.92-.48-.48,8.76,49,2.52A109.86,109.86,0,0,1,441,34a323.8,323.8,0,0,0-25.68,19.8c-5.16,4.32-7.44,10-7,16.8l.24,2.28,73.56-4.32,1-1.56.36-.72.36-.84.12-.84.24-.84a8.43,8.43,0,0,0-.72-4.2l-.24-.84-55-.24L477.84,13.8Zm71.76,161.64c-4.2-21.48-13.68-40.92-28.2-58.56l-2.4-1.56-.6-.6-.36-.84c-8.52-13.08-20.28-21.12-35-24.12-24.48,10.44-38.16,29.52-40.92,57a118.55,118.55,0,0,0,8.4,58.8,789,789,0,0,0,58,112.92,337.68,337.68,0,0,1,46.08,120.12,191.2,191.2,0,0,1-6,93.12c-9.24,28.8-29,44.64-59.16,47.64a37.81,37.81,0,0,1-17.28-2.16q-39.6-15.12-43.68-56.4a12.23,12.23,0,0,1,1.08-6.6c4.8-10.08,4.92-19.56.48-28.32a23,23,0,0,0-7.32,12.24c-1.08,4.68-2,9.24-2.76,13.8q-2.52,45.54,32.64,76a31.88,31.88,0,0,0,11.64,6.48q46.62,13.5,75.84-22.68a128.89,128.89,0,0,0,10.08-20.4q20.7-53.64,12.12-111.6a316.74,316.74,0,0,0-43.32-119.4c-18.12-29.76-35-60.12-51-91.08a166.55,166.55,0,0,1-18.48-61.92q-4.14-43.56,33.6-61.2l5-.36a37,37,0,0,1,11.28,6.72c26.28,22.44,42.6,49.68,48.84,81.48A32,32,0,0,0,549.36,166.56Z" transform="translate(-20.87 -2.4)"/></svg>