<svg id="Layer_1" data-name="Layer 1" xmlns="http://www.w3.org/2000/svg" viewBox="0 0 478.96 358.8"><defs><style>.cls-1{fill-rule:evenodd;}</style></defs><path class="cls-1" d="M126.6,242.64c23.64,12.6,38,32.28,43.44,59.16q12.78,63.72-34.8,104.88a328.19,328.19,0,0,1-58.92,22.68A301.59,301.59,0,0,0,78,388.8a512.45,512.45,0,0,1,1.56-56c2-27.48,4.08-54.84,5.88-82.2l.6.24a82.56,82.56,0,0,0,33.84-11.28A48.6,48.6,0,0,1,126.6,242.64Zm6.6-30.72a102.13,102.13,0,0,1-46.92,25.56l1.08-16.56A763.85,763.85,0,0,0,86,103.68L103.8,105q32.58,27.36,41.4,67.44C148.56,188,144.6,201.24,133.2,211.92ZM82.32,92.76a7.12,7.12,0,0,0-1.2,3.36,10.74,10.74,0,0,0,1.32,6.36l.36.48a169.14,169.14,0,0,0-1.68,28.8c.84,43,.24,85.8-2,128.4q-3.42,64.62-7.68,129c-.72,10.8-1.8,21.48-3.12,32.16Q66.3,437,74.4,444l.12-1a13.74,13.74,0,0,0,2.64,2.64A138.46,138.46,0,0,0,147.72,412a54.3,54.3,0,0,0,11.4-14.16Q191.34,339.3,169,275q-11-31.5-38.4-43.08a42.19,42.19,0,0,0,7-7.8q26.64-40.68,4.2-85.44a246.94,246.94,0,0,0-13.2-23.28C119.4,101.28,107.28,93.24,92,91.2a36.2,36.2,0,0,0-9.24,1.2Zm234.72,36a1221.75,1221.75,0,0,1-5.88,127.56c-4.2,42.72-8.52,85.44-13.2,128a200.21,200.21,0,0,0,.24,48,202.76,202.76,0,0,0,73.56,4.56c4.44-6.36,4.2-12.48-.6-18.36q-35.1,7.38-67.08-4.32c1.8-40.92,4.92-81.48,9.48-121.92l7-63.72A657.15,657.15,0,0,0,322,100.08C318.6,108.36,316.92,117.84,317,128.76Zm-87.24-.24c9-15.36,21.6-20.64,37.56-15.84A35.35,35.35,0,0,1,288,128.76l3.12,1.2c-.84-13.08-7.2-23.28-19.08-30.36A42.87,42.87,0,0,0,250,93.36c-23.4,16.44-38.76,39.36-46.08,69a610.55,610.55,0,0,0-9.12,250.2c2.28,13.32,9.12,22,20.76,25.92a38.43,38.43,0,0,0,26.4-.36,122.83,122.83,0,0,0,13-5.4,103.8,103.8,0,0,0,17.28-10.2,38.09,38.09,0,0,0,7.8-7.44,22.58,22.58,0,0,0,3.72-6.12,28.72,28.72,0,0,0,1.8-6.48,24,24,0,0,0-.72-9.24l-.72-2.52a126.55,126.55,0,0,1-43.56,28.56,60.1,60.1,0,0,1-28.44,4.2c-11.16-14.64-17.16-31.8-18.12-51.48a732.29,732.29,0,0,1,1.68-97.32,154.44,154.44,0,0,1,58-1.92,11.73,11.73,0,0,0,1.32-3.6,15.12,15.12,0,0,0-.24-7,5.07,5.07,0,0,0-1.92-3.24q-29.16-7.38-56.16,3.6A296.86,296.86,0,0,1,224.4,139.32Q226.92,133.74,229.8,128.52Zm168.12,30.12q16.2-37.08,55.56-36.84a24.22,24.22,0,0,1,4.92,8q.54,1.8,2.16,1.08v-.72c2.28-14.76-4-22.56-19-23.28q-38.88,10.26-50.76,47.64a473.78,473.78,0,0,0-21.72,126.6,425.2,425.2,0,0,0,13.8,124.68q7.56,28.44,39,21.6,34.92-7.56,31-38-19.8,23.76-51.84,19.68a8.09,8.09,0,0,1-7-4.92,242.25,242.25,0,0,1-19.08-87,478,478,0,0,1,12.12-126A191.4,191.4,0,0,1,397.92,158.64Zm143.88-29q-3.6,64.08-6.36,128.28l-.36,9a7.42,7.42,0,0,0-1.8,2.4,125.47,125.47,0,0,0-47.4,5.16l1-36.36c.6-21.6,1.44-43.2,2.76-64.8,1.32-22,1.68-43.32,1-64.2a140.39,140.39,0,0,0-7.92,44.64L478.92,282c-1.2,43.08-4.44,85.56-9.72,127.68a22.73,22.73,0,0,1-.36,9.84c-2.76,11.16-1.56,20,3.84,26.4A620.82,620.82,0,0,0,482,366.36c1.32-27,2.52-54.12,3.48-81.12a253.81,253.81,0,0,0,37.92-1.08l5.52-1a41.37,41.37,0,0,0,5.4-1.68c-1.8,34.92-4,69.84-6.6,104.52a221.3,221.3,0,0,1-4.92,32.16c-2.88,12.6-1.56,23.28,4,31.8a25.16,25.16,0,0,0,4.44-12q7-63.54,8.52-128.4.72-32.22,2.88-64.08Q547,181.26,546.84,118C543.84,120.84,542.16,124.68,541.8,129.6Z" transform="translate(-67.89 -91.2)"/></svg>