<svg id="Layer_1" data-name="Layer 1" xmlns="http://www.w3.org/2000/svg" viewBox="0 0 451.62 426.24"><defs><style>.cls-1{fill-rule:evenodd;}</style></defs><path class="cls-1" d="M141.12,249.24q30.42,21.78,39.12,60.84c1.56,7.44,2.88,14.88,4,22.44Q192.3,393.9,161.28,444l-3.36.84a282,282,0,0,1-67,34.92,55.08,55.08,0,0,1-15.84,1.92c1.8-13.56,3-27.36,3.6-41.16l1.8-35.76c2.52-42.84,5.16-85.44,8.16-128C107,274.8,123.24,267,137,253.44ZM163,144.36a87.41,87.41,0,0,1,1.68,43.08,93.73,93.73,0,0,1-19.8,40.92A95.28,95.28,0,0,1,109,256a88.67,88.67,0,0,1-19.32,6.24,948.3,948.3,0,0,0,6.24-170,69.21,69.21,0,0,1,43.44,16.2A70.49,70.49,0,0,1,163,144.36Zm-66.6-65-.6.24-.84.48-1.32.84-1.08.84L92,83.4l-.36,4a10.78,10.78,0,0,0,.84,3.24l.84,1.32-7,118.92-3.12,53.52a14.2,14.2,0,0,0-.48,8.28l-4,66.48Q75.06,403.38,68.4,467.28A87.61,87.61,0,0,0,68,481l-1-.12a10.72,10.72,0,0,0-2.88,6.48,13.24,13.24,0,0,0,3.48,10.56l3.48.48.24,1.08,1-.84a56.2,56.2,0,0,0,11.88.24,44.33,44.33,0,0,0,13.08-3.12,265.61,265.61,0,0,0,54-30.6q35.82-26.1,37.56-71.64l1.92-44.64q2.88-65-42.12-108.24,35.82-45.18,18.12-104.88-14.4-48.6-64-56.76ZM265.32,93q2.52,43.2,7.08,87,5.22,49.5,10.08,98.76a353.8,353.8,0,0,0-51.6,5.88l3.72-20.16q11.7-62.82,24.48-125.28A261.57,261.57,0,0,0,264.36,92a9.84,9.84,0,0,0-4.08,6.12,574.06,574.06,0,0,0-11.88,57.48c-2.88,17.4-6.12,34.56-9.84,51.72q-13.32,62.46-24,125.52-10.62,62.82-25.68,124.8a114.33,114.33,0,0,1-5,15.72c-4.08,9.84-3.12,17.4,2.88,22.56a290.93,290.93,0,0,0,12.12-42.84q12.6-62.82,24-125.64l5.28-28.68L284,294.72l1.2,12.72c4,42.36,7.56,84.72,10.8,127.32,1.08,16.08,2,32,2.76,48,.36,9.48,3.12,17,8.28,22.44a3.49,3.49,0,0,0,1.44-3.24q-1.8-45.9-5.64-91.92c-3.48-42.6-7.44-85-11.88-127.32-2.16-21.48-4-42.84-5.52-64.2A817.75,817.75,0,0,0,266.76,92C265.68,91.8,265.2,92.16,265.32,93ZM369.84,274.68l9.24,1.92a147.72,147.72,0,0,1,32.4,70.2c1.32,7.32,2.28,14.88,2.88,22.44a128.29,128.29,0,0,1-3.72,42.24A132.05,132.05,0,0,1,388,458.4a53.73,53.73,0,0,1-25.08,18.24,50.53,50.53,0,0,1-33.12.36l2.76-1.68-2.16-1.2-2.64.6,11.64-185.88a50.64,50.64,0,0,0,27-15.12l2.52-2.52Zm14.28-130.2q23,62.1-18,114l-1.44.72a63.83,63.83,0,0,0-10.8,8.16,60.83,60.83,0,0,0-13.68,3.72l1.68-45.36a968.73,968.73,0,0,0-3.72-115.32c14.4-2.64,26.4,1.56,36,12.48A146.35,146.35,0,0,1,384.12,144.48Zm-7.92-36.12a43.89,43.89,0,0,0-22.32-12.84,24.91,24.91,0,0,0-16.8,3.84l-.24-1.92-.6,2.52-.24.12a16.47,16.47,0,0,0-.84,4.08v1A147.09,147.09,0,0,0,333,139.68a1234.21,1234.21,0,0,1-.48,128.16L325.2,396.12c-1.32,21.72-3.72,43.2-7,64.56-1.56,10.68-1,20.28,1.8,28.92l.36,1,1.08,2.64h.12l1.2,1.68,22.32,3.36a26,26,0,0,0,19.32-3.6Q418.62,461.16,420,397a410.6,410.6,0,0,0-1.56-45.6q-4.5-50.76-38-88.32l-4.08-.12c9-11.4,15-24.72,18.12-40.08q12.06-59.94-17.28-113.52Zm100-8.28q-44.82,55.26-45.72,131.16-1.08,98.28.48,196.8a91.68,91.68,0,0,0,4.68,28,65.75,65.75,0,0,0,5.52,12.6,64.75,64.75,0,0,0,4.8,7.8,88.35,88.35,0,0,0,5.64,7.56l3.12,3.72L458,491q37.62-2,55.92-41.76a16.52,16.52,0,0,0,0-15l-2-3.84-8.64,9.48c-7.56,21.48-22.2,32.76-44.16,33.6-18.6-25.2-27-54.72-25.44-88.44q2.34-47.7,2.88-95.4a91.51,91.51,0,0,0,36.12-.72c3-3.48,3.6-7.32,1.8-11.76a17.5,17.5,0,0,0-2-3.6,105.92,105.92,0,0,0-35.64,5q-9.9-89.46,36.12-162.84c13.56-4.56,25.2-1.8,34.92,8.16-.6-18.36-10.56-26.28-29.64-24Z" transform="translate(-64.14 -78.96)"/></svg>