<svg id="Layer_1" data-name="Layer 1" xmlns="http://www.w3.org/2000/svg" viewBox="0 0 421.63 421.14"><defs><style>.cls-1{fill-rule:evenodd;}</style></defs><path class="cls-1" d="M124.44,249.72a33.37,33.37,0,0,1,15.48,8.16q49.32,45.36,45,112.56a124.05,124.05,0,0,1-20.4,61.44q-32.4,49-89.16,34.56a344.36,344.36,0,0,0,4.2-46.8q1.26-63.9,1.44-128.16v-24l5-.84A93.6,93.6,0,0,0,118.8,250.2,8.69,8.69,0,0,0,124.44,249.72Zm-16-161.52c7.56,9.24,15,18.72,22.08,28.32,20.76,28.44,23.76,58,9,88.8-12.72,26.52-32.28,42.24-58.68,47.4q-.36-45.18-2.16-90.36a136.54,136.54,0,0,1,2.64-32.16A154.36,154.36,0,0,0,84.6,91.44l3.48-2.52,1.8-1.56C96.36,84.84,102.6,85.08,108.48,88.2Zm-14.28-16a21.79,21.79,0,0,0-8.52,3.84L79.8,80l-.24.84a20.17,20.17,0,0,0-.48,10.68l.36,1.08a420.46,420.46,0,0,0-7.92,103c1.8,43,2.52,86,2.4,129.12Q73.56,389,67.32,453.6c-1.2,12,.12,22.8,4.08,32.4l1.2-4.92.72,1.08a87.05,87.05,0,0,0,22.2,5.4,48.89,48.89,0,0,0,20.76-2.28c36.6-12.12,59.52-36.84,69-74.16q16.38-64.26-8.88-125.64-14-34.2-46.08-46.2a107.22,107.22,0,0,0,9.24-12.12,82.49,82.49,0,0,0,14-47.76q-.54-59.4-42.72-103.92L109.8,75A26.93,26.93,0,0,0,94.2,72.24ZM283,151.32q10.08,62.82,22,125.28a194.12,194.12,0,0,0-57.84,4l2.16-11.76Q261.12,206,271.68,142.68a345.23,345.23,0,0,0,4.32-41C278,118.2,280.32,134.76,283,151.32Zm-101,1.8,2.28-69.36c16.68,6,23.52,18.36,20.76,37.2C202.92,135.6,195.24,146.28,181.92,153.12Zm3.12-81-3.48,1.2-.36.84a16,16,0,0,0-.72,4.8,22.29,22.29,0,0,0-.72,4.08q-1.8,36.9-4.8,73.44l-1.8.72a9.87,9.87,0,0,0-3,7.32,9.19,9.19,0,0,0,2.4,6.48l1.2-.36-4,39.84a88.09,88.09,0,0,1-3.12,15.84q-4.32,14.76,2.88,23.76a3.18,3.18,0,0,0,1.2-1.8,375.12,375.12,0,0,0,7.68-47.64c1.08-11.16,1.92-22.2,2.64-33.24,2.4-1.32,4.68-2.64,6.84-4.08a86.58,86.58,0,0,0,6.84,31.2,192.41,192.41,0,0,1,11.76,38.76c2,10.2,6,18.48,11.76,24.6a3.8,3.8,0,0,0,1.56-4,330.3,330.3,0,0,0-29-92.64c12-9.36,19.2-22.68,21.6-40.08Q217.26,85,185,72Zm89,9.12-.24.84L254.28,207q-5.76,38.16-12.84,76.32l-.72,4.08-9.12,45.84q-13,63-30.6,124.8l-.12-.48a11.17,11.17,0,0,0-.72-4.92l-.24,1.68a20.78,20.78,0,0,1-1.56,8.28c-4.44,11.4-4.08,21.36,1.32,29.88a869.8,869.8,0,0,0,25.44-98.4l19.32-99.48,62.64-2.4.48-.48q4,24.66,6.12,49.32c3.6,42.12,7.8,84,12.6,125.4.48,9.36,3.24,16.56,8.16,21.72a9.45,9.45,0,0,0,2-7.32l-4.92-49.68q-4.86-51.66-12.24-102.84-9-63.18-19.32-126.12Q289.56,139,277.56,76.56A5.76,5.76,0,0,0,274.08,81.24Zm92.28,210.48q-6.84,56.52,26,107,18.18,27.9,5.4,57.48a39.59,39.59,0,0,1-8.4,12.36,47.86,47.86,0,0,1-29.28-6.24L353,464c-2,5-1.8,9.6.48,13.8a82.21,82.21,0,0,0,37.2,6.48q30.6-38.16,9.6-83.64A664.38,664.38,0,0,1,373,331.08a95.84,95.84,0,0,1-4.68-26.16l1.8-3.24q15.66-15.66,35.64-1.8l1,.24.48-8.16a36.6,36.6,0,0,0-26.16-11Zm92.52-4.32C437.64,302.88,430.68,324.48,438,352a24.16,24.16,0,0,0,4.2,8.64c22.92,29.88,33.12,63.48,30.48,101a9.25,9.25,0,0,1-5.16,8.16c-14.76,7.92-30.36,9.12-46.8,3.48a13.54,13.54,0,0,0-1.8,9.72,16.77,16.77,0,0,0,1,4.08C434,494,448.44,495,463,490a15.48,15.48,0,0,0,10.2-10.2q18.72-59.94-19.08-109.56c-18.6-24.36-18.12-47.52,1.56-69.24a52.35,52.35,0,0,1,23,1.08l.48-1a5.07,5.07,0,0,0,.24-4l-.72-2.4-.36-.84-1.2-1A22.34,22.34,0,0,0,458.88,287.4ZM377.76,80.88c-33.72,18.72-51.48,48.6-53,89.64a155.81,155.81,0,0,0,4.92,45.84,83,83,0,0,0,6.6,17.16,95.6,95.6,0,0,0,29,33.24c14.64-.6,24.6-7.32,29.88-20a17.34,17.34,0,0,0-.12-14c-7.32,10.32-16.92,16.08-28.92,17.4q-35.1-27-33.72-73.92A109.43,109.43,0,0,1,363,103.44c8.76-9.12,18.72-10.68,29.76-4.68l3.48,1.8,3.12-3.36c-3.12-9.48-9.72-14.76-19.68-16Zm88.68,7.56a29.22,29.22,0,0,0-17.28,7.68,40.64,40.64,0,0,0-10.32,14.76q-24.66,60.66-13.08,124c3.48,19,14.16,28.68,32,29A159.29,159.29,0,0,0,481.68,243c8.16-8.76,9-17.28,2.64-25.44-3.24,3.48-6.48,7-9.48,10.68a146.23,146.23,0,0,1-18.36,19.32l-7.08.36c-10.56-5.16-16.68-13.92-18.36-26.4A190.88,190.88,0,0,1,430,182.76l.24.48a173.88,173.88,0,0,0,32.52-.84l.6-1c3-5.28,2.76-10.32-.6-15.24a108.7,108.7,0,0,0-31.32,3.48,202.31,202.31,0,0,1,14.52-50.88q9.9-22.86,38.16-16.56c2.28-3.48,2-6.84-.72-10.2l-2.28-2.76-3.84-.36Z" transform="translate(-66.89 -72)"/></svg>