<svg id="Layer_1" data-name="Layer 1" xmlns="http://www.w3.org/2000/svg" viewBox="0 0 552.8 588.85"><defs><style>.cls-1{fill-rule:evenodd;}</style></defs><path class="cls-1" d="M344.52,426.48l.24,2.76c0,7.8-5.88,23.52-17.52,47.16l-3,5.88,6.48,43.32q7.56,51.12,7.56,60.48l-.24,4.44-.72.48-1.2.6c-2.16-8.76-5.28-28-9.36-57.84-3-22.2-4.92-37.44-5.52-45.6l-10.8,20.16a788.3,788.3,0,0,1-8.4,80.4,4.6,4.6,0,0,1-2.64-3.12,19.73,19.73,0,0,1-.12-3.24c2.52-33,4.92-55.32,7.2-67.2l-1.8,2.88-.84-1.8-.24-2.64c0-1.08,1.08-4.2,3.36-9.6V471.48l-.12-26.28a43.63,43.63,0,0,1-1-7.44q-.36-6.84,2.88-9c.6,6.6,1.08,16,1.68,28l.72,18.24-.24,19.68c2.16-5,4.8-11,7.92-17.88q13-28.62,24.6-52.32A6.78,6.78,0,0,1,344.52,426.48Zm-39.24-88.92-1.56-.12a5.44,5.44,0,0,0,1.56,2l.48-1.92Zm16.92,10.32a3.88,3.88,0,0,1,1.44,3.36l-.36,2.52-.48,1.08.24.48c0,.24-.6.36-1.68.36-.36,0-.48-.24-.6-.6l-.36-1.32c-.6-1.32-2.4-1.92-5.16-1.92l-8.16.36c-6.6,1.8-11.76,8.64-15.72,20.52-3,9-4.56,17.16-4.56,24.48a26.27,26.27,0,0,0,2.52,11.88c2.64,5.52,7.2,8.28,13.8,8.28,6.12,0,10.8-1.44,13.92-4.44a12,12,0,0,0,2.52-3.12l.84-1.92.72,1.2a6.18,6.18,0,0,1,.36,2.52c0,1.32-1.32,3.6-3.84,6.84-3,3.84-6,5.76-9.12,5.76-11.16,0-18.48-4.2-22-12.72-1.32-3.12-1.92-7.92-1.92-14.28a89.82,89.82,0,0,1,4.2-28.2c4-11.64,10.08-19.68,18.6-23.88C315,345.12,319.92,346.08,322.2,347.88ZM128.28,366.12l-.72,17.16-1.44,25.44v4.92l2.52-1.68,10.44-6.36c10.08-7,15.12-15.24,15.12-24.72,0-5.4-1.8-10.68-5.4-16-4.92-7.08-11.76-10.32-20.76-9.48Zm-.6-19.92c12.36-.12,21,4.44,25.68,13.68,2.76,5.4,4.08,12.24,4.08,20.64a58.67,58.67,0,0,1-4.56,22.08c-3,7.32-7.08,12.36-12.24,15.36l8,43.32c4.44,24.6,6.6,38,6.6,40.56L155,505.2,154,508.32c-2.76-8.4-6.48-25.2-10.92-50.52-3.36-19.44-5.28-32.16-5.88-38.28a26.8,26.8,0,0,1-8.4,1.32l-2.64-.12v36.72c-.36,2-1.08,10.32-2.16,24.6q-1.08,14.58-5.76,24.12a3.52,3.52,0,0,1-1.44-1.56,8.37,8.37,0,0,1-.36-2.88c0-1.8.84-9,2.4-21.36,1.8-12.84,3.12-21.84,4.08-27V405.48l1.56-31c.36-7.56.72-14,1.32-19.44l-.36-.72a8.06,8.06,0,0,1-.36-2.76,6,6,0,0,1,.72-3.12l.84-1.2.36-1.92.24,1.44ZM27.24,293.76l-.72,19.92c0,9.24.6,20.28,1.68,33.12s1.56,29.88,1.56,50.88c0,17.88-.36,31.32-1.08,40.56v60c-1,10-2,25.56-3.36,46.8-.84,10.8-2,20.52-3.6,29.28,16.68-.36,34.32-9.72,53-27.84a153.37,153.37,0,0,0,19-22c4.92-7,7.8-12.24,8.88-16,1.08-4.2,2.76-15.6,4.92-34.2,2.28-19.44,3.48-32.64,3.48-39.72,0-10.2-.84-24.12-2.4-41.52-1.08-13.08-2.52-26-4.2-38.76q-2-16-16.2-40.68Q86,310.08,68,294.6c-6-5.16-10.32-9.12-13.08-12a76.84,76.84,0,0,1-25.68,4.08l-1.68-.24Zm99.24-41a4.23,4.23,0,0,1,.72,2.76l-.24,2.4-.84,1.68v42c-.48,3.48-1,7.68-1.44,12.72-.48,4.68-.72,7.8-.72,9.24l.24,4a5.12,5.12,0,0,0,1.32,3.36L148,331.92l10.32.48.84,1.32a5.69,5.69,0,0,1,.48,2.76l-.84,2a13.35,13.35,0,0,1-2.4,3.12c-.12-.24-1.68-.48-4.92-.84l-5-.84c-13.08.36-21.48-.84-25.08-3.48a4.23,4.23,0,0,1-1.92-3.12l.24-1.92c0-7.08.12-13,.48-17.64a109.08,109.08,0,0,1,2.76-16.8V254a7.27,7.27,0,0,1,1.56-2.88A5.14,5.14,0,0,1,126.48,252.72ZM64.32,36.84,48.24,28.08C39.72,23.4,33.84,19.32,30.36,16c.6,4.32,1.08,9.84,1.56,16.68C32.64,44,33,54.72,33,64.92q0,49.68-3.24,82.8v69.84l-1.08,4.08V263l-.36,7.32h.12q45,0,67.32-46.08a150.16,150.16,0,0,0,12.12-37,147.31,147.31,0,0,0,3.12-28c0-15.24-1-26.76-2.76-34.44-.84-3.72-2.28-9.12-4.56-16.44L95.52,82.32a107.85,107.85,0,0,0-21.36-39C73,42,69.72,39.84,64.32,36.84Zm36.6,37.08c7.2,21.72,11.64,37,13.2,46,1.56,8.52,2.28,21.84,2.28,40.08a198.76,198.76,0,0,1-11.52,65.76c-8.28,23.4-20.28,40.08-35.76,50l.72.48a159.91,159.91,0,0,1,13.8,14.28,98.68,98.68,0,0,1,8.64,11.28,144.68,144.68,0,0,1,11.16,22.44,90.51,90.51,0,0,1,6.48,22.2c1.56,12,2.88,26.28,4.2,43,1.56,19,2.28,34.2,2.28,45.6,0,6.6-1.32,21.6-4.08,45q-3.24,29.34-4.68,37.8-4.14,25.38-42,51.12a201,201,0,0,1-28.2,16c-8.64,4-14.64,6-18,6l-1.2-.36-.36,1.08c-2.88-1.68-4.32-4.68-4.32-8.88,0-2.76,1.44-16.8,4.32-42.24L23.28,491V432.48c.72-7.56,1.08-19.08,1.08-34.8s-.6-30.48-1.68-44.52S21.12,325.92,21.12,314l.72-22.44c.48-14.88,1-26.52,1.44-35v-41.4l1.08-4.08v-69q3.24-62.64,3.24-76.8L25.44,13A16,16,0,0,1,26,8.88,10.19,10.19,0,0,1,27.6,5.64l.24.36C30.6,3.12,38,5,50,11.64a178.27,178.27,0,0,1,17.4,11,100.36,100.36,0,0,1,10.44,8.16A80,80,0,0,1,92.4,51.72,179.61,179.61,0,0,1,100.92,73.92ZM234,54.36l-.36-4c-2.52,21-6.48,52.32-11.88,94.2q-14.4,111.24-22.08,159.72c-1.56,10.2-3.24,22.44-4.92,36.72,4.44-4.08,14.4-10.2,29.88-18.24,10.08-5.16,20.76-10.56,32-16-1.8-18.12-3.84-38.28-6.36-60.36q-10.8-94.5-12.72-115V85.2Zm-2.88-35.28a23.67,23.67,0,0,1,.72-5.76c.6-2.52,1.44-4,2.52-4.44,2,3.12,3.24,8.4,3.84,15.72l1.56,18.48L243,79.56v46.32L272.76,388.8q20,180.54,20,193.56a17.85,17.85,0,0,1-.6,4.32,9.19,9.19,0,0,1-2.16,3.84,114,114,0,0,1-7.44-28c-1.08-7.56-1.92-17.28-2.52-29.4-.36-6.6-1.32-16.08-2.88-28.32-1.8-14.4-3-24.12-3.36-29.28-.84-10.92-3.24-30-7-57.12-3.24-24.24-5.28-43.32-6-57.36-.6-11-1.56-23.4-2.64-37l-1.08.6a238.13,238.13,0,0,0-21.72,10.44c-22.92,11.64-35.28,17.52-37.32,17.52a5.61,5.61,0,0,1-4.44-1.68L191,374.88q-5.4,54.54-7.56,71.16a696.68,696.68,0,0,1-12.24,71,426,426,0,0,1-22.92,70.2c-1.32-.84-2.16-2.52-2.52-4.8a56.25,56.25,0,0,1-.24-6.24c4.8-12.84,9.72-28.44,14.76-46.56q15.3-54.36,17.76-94.44c1.2-19.8,3.6-43.44,7.2-71.16l9.84-70.92c2.52-18.72,5.52-42.36,8.76-70.8q5.4-48.06,8.16-72,9-75.42,19.2-126.6Zm38.64,84.36c0,1.56,1.44,3.84,4.2,6.72l9,9.12C291.72,128.52,296,138,296,147.6A26.38,26.38,0,0,1,292.56,161c-4.08,6.6-11,10-20.88,10-10.92,0-17.88-3.48-20.88-10.32a18.29,18.29,0,0,1-1.44-7.44l.12-4.32c0-3.6,0-5.88.12-7,.36-2.88,1.32-4.68,2.64-5.52a6.27,6.27,0,0,1,2,1.56,5.22,5.22,0,0,1,.6,2.76,14.07,14.07,0,0,1-1.08,4.2,14.07,14.07,0,0,0-1.08,4.2,14.34,14.34,0,0,0,2.76,7.8c2.28,3.48,5.16,5.16,8.64,5.16,10.2,0,17.88-1.92,23-5.64,3.72-2.76,5.64-5.64,5.64-8.64,0-4-1.44-7.92-4.2-12.12A101.89,101.89,0,0,0,279.24,125,86.11,86.11,0,0,1,270,114.72q-4.32-5.94-4.32-11.52c0-4,.48-6.6,1.56-8L276,86.64l11.16.24q6.3,4.14,7.92,7.2c.6,1.2,1,3.48,1,6.84a11.5,11.5,0,0,1-.6,3.72,8,8,0,0,1-2.16,3.36,5,5,0,0,1-1.32-2.76l-.6-3.6a7.35,7.35,0,0,0-5.28-6.12l-9.48.24-4.8,4.44C270.48,101.52,269.76,102.6,269.76,103.44Zm-.48-81.24A501.22,501.22,0,0,1,265,87.12l-1.44.24c-.84-3.72-1.32-9.6-1.32-17.4,0-8,1.44-28,4.32-60a12.75,12.75,0,0,1,2.64,6.12ZM462.84,353.52l.12,10.2-.6,18-1.56,27v52.8q-1.62,13.32-2.88,32.76l-2,33c-1.08,15.24-2.64,29-4.68,41.16l1.2-1.44a11.53,11.53,0,0,1,1.56,2.4,13.06,13.06,0,0,1,.36,3.36,13.83,13.83,0,0,1-2.4,7q36.9-14.94,59-28.08C525.48,543,536.64,534.12,544.2,525a71.21,71.21,0,0,0,14.64-28.56q3.24-13,3.24-34.2c0-15.6-.24-25.32-.6-29.28a91.25,91.25,0,0,0-8.4-29.88c-3-7.08-5.28-12.24-6.84-15.6A46,46,0,0,0,536,373.56q-16-14.22-60.84-20.64Zm12.6-11.4c31.8,4.08,53.52,11.52,65.4,22.32a42.41,42.41,0,0,1,11,15.84,123.92,123.92,0,0,1,5.28,17.4c5.76,22.44,8.76,34.92,9,37.32.36,3.72.24,12.72-.36,26.76,0,15.72-1,28.08-3,37.32a78.67,78.67,0,0,1-14.16,31.56c-7.56,10.08-18.72,19.92-33.48,29.4q-22.68,14.58-60.6,30.84l-7-.36-.84-1.08-.84,3.24a10.14,10.14,0,0,1-1.56-3.24,15.54,15.54,0,0,1-.36-3.72l5.64-53.16q5.94-55.8,7.44-76.8v-52l1.44-33.24q.9-20.7,2.88-31.68L462,343l.24-.36C464.16,340.08,468.6,340,475.44,342.12ZM432.36,99.36c2.76,3.72,4.08,8.76,4.08,15.12a28.55,28.55,0,0,1-.6,4.92c-.48,2.88-1.2,4.8-2.28,5.88a50.39,50.39,0,0,1-2.64-7.32,49.21,49.21,0,0,0-3.24-8.76c-3.36-7-8.4-10.44-15.24-10.44q-20.88,0-35.28,40.92a262.23,262.23,0,0,0-11.28,46.8c-3.24,19.32-5,35.16-5.4,47.4-.24,7.92-.12,21.48.24,40.56l-1.44,38.64,1.2-1.56,27-.48q15.3-3.42,20.16,0c1.2.84,1.8,2.52,1.8,4.8a9.73,9.73,0,0,1-.72,4,11.86,11.86,0,0,1-2.76,3.72l-8.4.24-9,.84-28.68-.36L359,322.8l-.48,12.84.72,23.4q.72,23.4,1.44,36.72v66.48c-.36,4.92.12,13.44,1.56,25.56a330.4,330.4,0,0,0,6.84,38.76q11.88,50.94,28.08,51c11.4,0,21.6-7.92,30.84-23.64a115.42,115.42,0,0,0,8.28-16.8c2.52-5.64,3.84-8.76,4.2-9.12a13.48,13.48,0,0,1,3.48,9.36c0,6.72-5.64,17.28-17,31.68a144.59,144.59,0,0,1-13.44,15c-4.44,4.32-7.8,6.6-9.84,6.84-13.8.12-24.36-8.76-31.44-26.76a122.25,122.25,0,0,1-5.88-20.76l-3-13.92c-2.28-8-3.84-18.36-4.92-31l-2.64-31.56V402c-.48-9.48-1-23-1.44-40.56l-.72-26c0-13.8.24-27.84.6-42.12s.48-26.64.48-37.32q0-49.68,8.64-90.24,13-60.48,42.6-80.16C418.8,88.56,427.68,93.12,432.36,99.36Zm-58-86.76a69.5,69.5,0,0,0-10.68,5.76L333.6,19.44v1.08A127.1,127.1,0,0,1,332,39.6c-.84,5.52-2,12.48-3.84,20.76V122c-1.56,4.2-2.28,9.84-2.16,17,.12,8.16-.24,13.8-1.08,17v55.2l-1,31.56q-.54,19.26-1.44,32-2.34,37.26-9.72,63.48c-1.56-1.8-2.4-4.44-2.4-7.92,0-4.56,1.08-15.36,3.36-32.28l4.2-30c.36-6.84.72-17,1.08-30.84s.72-24.12,1.08-30.84v-56c.72-3.24,1.08-9,1-17-.12-7.2.72-12.84,2.28-17V54.72a77.37,77.37,0,0,0,1.2-11l.48-11.16a41,41,0,0,1,2.64-12.72l-11.64.72-8.88.36-9.48.72-6.84.36-7.8.48a9.12,9.12,0,0,1-1.92-6.12,11.72,11.72,0,0,1,1-4,10.09,10.09,0,0,1,2.52-3.72L305.4,7.56l11.76-1.08,27-.48c15.6-2.28,25.56-2.76,29.76-1.44,1.56.48,2.52,1.2,2.88,2.28l.12,2.76C376.92,10.92,376.08,11.88,374.4,12.6Z" transform="translate(-13.56 -3.83)"/></svg>