<svg id="Layer_1" data-name="Layer 1" xmlns="http://www.w3.org/2000/svg" viewBox="0 0 428.13 389.64"><defs><style>.cls-1{fill-rule:evenodd;}</style></defs><path class="cls-1" d="M303.6,242.4,274.32,242,292.2,122l13.2,124.32Zm-209.88,10,1,1.2,8.88-.24a44.61,44.61,0,0,1,17.64,18.6q30.6,60.12,12.6,126.6A30.49,30.49,0,0,1,127.2,411q-29.7,34.38-75.6,38.88a302.9,302.9,0,0,0,2.52-33.24c.84-43.08,2.28-86.16,4.32-129l1.44-27a67.93,67.93,0,0,0,32.64-7.56ZM65.64,95.88a229.31,229.31,0,0,0-4.2,29.28c-3,40-5.76,80.16-8.16,120.36l-.84-.12a4.83,4.83,0,0,0-1.08,2.4,28.31,28.31,0,0,0,0,9A8.61,8.61,0,0,0,52.44,260Q49,320.88,48.24,382.56a455.15,455.15,0,0,1-5.16,64q-2.34,14.58,5,23.76l.84-3.84A112.69,112.69,0,0,0,119.4,440a34.75,34.75,0,0,0,9.48-12A190.65,190.65,0,0,0,146,325.68q-5-50.22-40.2-83.52l2.4-3.36q36.72-58,12.12-121.68-12.6-32.4-45.72-35.64v.12l-4.8,1.68V80.64l-.6.12-.84,3.12h-.24A6.58,6.58,0,0,0,65.52,86a9.57,9.57,0,0,0-.84,4.08,15.56,15.56,0,0,0,.24,4.08A4.21,4.21,0,0,0,65.64,95.88Zm28.56,2q49.14,50,19,115.32c-10.44,22.44-27.84,33.48-52.32,32.88L64,208.2q5.22-56.52,5.76-112.56a41.75,41.75,0,0,1,18.48-.12l1.08.84,1.2.6ZM220.92,173.4a124.19,124.19,0,0,1-9.6,46.08c-6.48,15.24-17.76,25-33.72,29.16L185,103.44c16.2-1,26.52,8.16,31.2,27.48A168.36,168.36,0,0,1,220.92,173.4ZM187.8,89.28l-3.12,1.56-1.2.72-.12-1.68c-3.36,2.28-5.16,6-5.4,11q-1.62,45.54-4.44,90.84Q169.56,256,165,320a1067.8,1067.8,0,0,1-16.2,126.12q-1.62,9.9,4.32,15.48a11.62,11.62,0,0,0,2.64-5.76q10.26-62.82,15.48-126.6l5-64.8a15.58,15.58,0,0,0,9.72-3l8.4-6.72a276.74,276.74,0,0,0,4,52.32q11,63,18.24,126.48c1.32,12.12,4.92,22.44,10.68,31a2.54,2.54,0,0,0,1.68-2.76c-2.76-28.68-6.12-57.48-9.84-86.4A1118.54,1118.54,0,0,0,196.2,253.2q29.16-27,31-69.24a218.17,218.17,0,0,0-6.24-62c-4.68-18.36-15.48-29.28-32.64-32.88ZM292,100.44c-4.68,7.08-7.32,15.48-8.16,25q-4,43-10.44,85.56-9.72,63.18-23.16,126-6.84,31.5-16.56,62.52c-3.72,12-3.12,22.44,1.68,31.32a138.48,138.48,0,0,0,9.84-32.28q11.7-62.64,23-125.52l2.88-16.44c10,3.72,20.88,4.08,32.52,1.08l.6-.72a18.08,18.08,0,0,0,1.8-5.64l1.92,18.6c4.32,42.12,8.52,84.36,12.6,126.48,1.08,11.52,1.56,21.12,1.2,28.68l-.36.12a3.72,3.72,0,0,0,1.44,4c.48,9.72,3.24,17.16,8.4,22.44a18.5,18.5,0,0,0,2.52-13q-6.66-44.82-10.92-90L310.56,221A1239.21,1239.21,0,0,0,292.44,95.28h-.36ZM400.8,140.28a135.12,135.12,0,0,0,3.48-39.36c-2.52,1.08-4.08,3.24-4.8,6.48a1224.69,1224.69,0,0,0-21.36,126.72q-7.2,63.54-18,126.36Q358.86,368,358,375.6l-2.64-19.92c-5.4-42.12-9.84-84.48-13.32-126.84a1082.22,1082.22,0,0,0-17.88-126.6c-2.52,1-3.72,3.12-3.48,6.6,1.32,19.32,3.36,38.52,5.88,57.72q8.46,63,15.84,126.24,7.2,63.18,11.16,127c.72,11.88,3.6,22.2,8.52,30.72a2.27,2.27,0,0,0,.84-1.68,153.12,153.12,0,0,0-.48-44.4q8.28-52.56,14-106.32,6.66-63.72,17.88-126.6C396.12,161,398.28,150.6,400.8,140.28Zm41.88-37.44A24.11,24.11,0,0,0,428,115.68a122.28,122.28,0,0,0-13.2,46.68q-4.68,64.26-10.68,128.16-5.94,64.08-10.92,128.28c-1.08,14.28,2.28,26.88,10.2,37.92q14.22,19.8,32-.6l21.24-24.84c7.32-8.76,7.2-16.44-.48-23a28.24,28.24,0,0,0-6.36,7.68,5.07,5.07,0,0,1-3.48,2.4v-4.68c-.36,0-.48.12-.48.24a12.26,12.26,0,0,0-.12,5.52l.12.84-.24.72a87.41,87.41,0,0,1-16.32,21.72q-8.1,8.1-18.36,2.52a10.26,10.26,0,0,1-5.64-9.12,792.57,792.57,0,0,1,5.16-124.92,451.56,451.56,0,0,0,3.24-47.64h34.8l.72-.6c5.16-6.6,4.68-12.36-1.2-17.16-12.6-1.2-24.12.36-34.32,4.56v-3.24A379.51,379.51,0,0,1,426.48,140.4c4.08-15.24,13.2-22.56,27.48-21.84a26.81,26.81,0,0,1,7,8.16c2.16,4.08,5,6.36,8.52,6.72a12.31,12.31,0,0,0,.24-10.08,48.52,48.52,0,0,0-15.72-20l-10.2-.48Z" transform="translate(-42.52 -80.64)"/></svg>