<svg id="Layer_1" data-name="Layer 1" xmlns="http://www.w3.org/2000/svg" viewBox="0 0 501.01 362.04"><defs><style>.cls-1{fill-rule:evenodd;}</style></defs><path class="cls-1" d="M341.88,125.64l11.64,135.84L311.64,264ZM125,257.16q21.24,62.82-.84,125a71.68,71.68,0,0,1-20.4,30.24q-25.2,22-56.16,13.68l-.24-.24c3.48-25.08,6.48-50.4,8.76-76.2,3.6-39.72,6.36-79.44,8.4-119.4a20.36,20.36,0,0,0,9.6-2,103.75,103.75,0,0,0,9.6-5.16c2.88,2.28,7,2.52,12.36,1C110.28,231,119.88,242,125,257.16ZM73,95l.12-.36q30.78-.54,43.08,29.52a67.92,67.92,0,0,1,1.32,49.32,75.17,75.17,0,0,1-24.72,35,67.35,67.35,0,0,1-27.84,13.32L70.56,94.56A2,2,0,0,0,73,95Zm-8.88-3.36,3,1.2a338.86,338.86,0,0,0-3,34.2c-1.56,42.6-3.84,85.08-6.6,127.56-2.76,42.84-6.72,85.44-11.76,128a339.92,339.92,0,0,0-2.4,39.48l-.6-.84c-1.8-1.32-3.24-1.2-4.32.24l-.72,3.24a15.56,15.56,0,0,0,1,8.16l5.16,4.68.6,8.28,1.08-7,1.56,1.2c16.68,4.44,32.64,2.16,48.12-6.6a34.85,34.85,0,0,0,10.32-8.76q26.28-32.22,32.52-74.28,9-60.66-18.12-115.32l-1.2-1.08A60.62,60.62,0,0,0,96.6,217.8H91.08c13-10.08,22.44-23.52,28.56-40.44,6.36-17.64,6.24-35.4-.36-53.52A70.86,70.86,0,0,0,101,96.6C92.52,88.8,82.32,85.32,70.2,86.16l-1.68-2.28L68,86.4l-3.12.48-.12.24-.6.72-.24.6-.12.84v.84Zm102.84,11.64q8.82,26.82-12.36,48.24A18.06,18.06,0,0,1,148.2,156l-3.36,3L153,100.32ZM151.44,92.64c-4,12.6-6.6,27.36-7.92,44.16-.6,8-1.56,16-2.64,23.88l-1.8-.48a6.68,6.68,0,0,0-4.2,4.92l-.12,1.56v.84l.12,1.2,4.44,1.92a139.43,139.43,0,0,0-5.16,59.88l9.12-60.72,5.76-3.48,20,67a199.49,199.49,0,0,0-17.76-68.64,72.31,72.31,0,0,0,21.12-27.48c5.64-12.84,5.16-24.84-1.56-36a13,13,0,0,0-6.36-5.52,42.77,42.77,0,0,0-10.2-2.76l-1.44-5.16ZM214.8,159c-4,12.6-7.56,25.32-10.56,38.28a415.75,415.75,0,0,0-8.4,46.8A372.78,372.78,0,0,0,193,284a323.49,323.49,0,0,0,1.44,40.32c1.44,15.72,3.72,31.44,6.72,47a119.85,119.85,0,0,0,17.16,42.72c9.24,14,21.48,18.48,36.6,13.2a93,93,0,0,0,37.56-24.72c7.08-7.44,9.48-16.08,7.32-25.92a110.7,110.7,0,0,1-43.56,37.68c-10.2,4.92-19.8,4.08-28.56-2.76a47.23,47.23,0,0,1-7.8-7.68,60.49,60.49,0,0,1-6.12-9.12,41.15,41.15,0,0,1-2.76-6.24,202.67,202.67,0,0,1-9-35.76,309.84,309.84,0,0,1-3.72-58.68L199.32,268l51.48,2.4-.12-10.08a103.92,103.92,0,0,0-50.76-.72q1.62-74.34,41.88-135.48c7.8-12,18.72-16,32.64-12a16,16,0,0,1,6.6,3.84,35.52,35.52,0,0,0,7.2,5l1.2.72c-.84-6.36-4.8-12.72-12.12-19.08-15.84-5.28-29.52-.48-40.92,14.52A136.19,136.19,0,0,0,214.8,159ZM356.4,288.84l4.92,47.64c2.16,21.36,3.36,42.72,3.6,64.2.12,11.88,2.4,22.08,6.84,30.84a387.83,387.83,0,0,0-1.2-63.36q-6.12-63.9-11.64-127.44-5.4-61.38-14.76-121.44a7.84,7.84,0,0,0-.84-7.56l-.84,2.88c-1,.6-1.32,1.8-1.2,3.6v.6q-12.78,44.28-23.16,91.44-13.86,63.18-33.6,124.08c-3.72,11.52-4.44,22.2-2,32a510.61,510.61,0,0,0,18.84-59.76l9.12-37.44a143.19,143.19,0,0,0,44.16,3.24Zm79.92-169.32-1-2a97.48,97.48,0,0,0-10.92,30.6q-11.88,62.82-25.2,125.16-6.66,31.5-15.72,62c-4.8,16.44-6,32.16-3.6,47.28a25.92,25.92,0,0,0,4.32-10q13.14-62.46,25-125.52t27.24-124.8V122c3,39.24,6.72,78.84,11.4,118.56,2.4,21.24,3.84,42.6,4.44,64.08.36,11.64,2.64,21.84,6.84,30.84V326A243.25,243.25,0,0,0,470,280.44a1220.77,1220.77,0,0,1,24.84-124.8,118.92,118.92,0,0,0,2.76-14.88,66.65,66.65,0,0,0,.12,10.92c3.24,42.36,7.92,84.6,14,126.48,6.24,42.36,11.76,85,16.56,127.56,1.32,12.12,4,22.56,8.16,31.2a9.72,9.72,0,0,0,1.92-7.2c-1.56-16.44-3.6-32.76-5.88-49Q523.74,317.58,515.28,254q-8.64-63.54-15-127.08a60.54,60.54,0,0,0-2.16,9.48,80.48,80.48,0,0,0,.24-12,1.92,1.92,0,0,0-2.28,1.56,1226.44,1226.44,0,0,0-27.6,125.88,292.42,292.42,0,0,1-6.84,31.32c-1.44,5.4-2.52,10.68-3.36,15.84-.84-18.24-2.4-36.72-4.56-55.32q-7.38-63.72-17.28-126.6h-.36Z" transform="translate(-37.52 -83.88)"/></svg>