<svg id="Layer_1" data-name="Layer 1" xmlns="http://www.w3.org/2000/svg" viewBox="0 0 561.81 535.05"><defs><style>.cls-1{fill-rule:evenodd;}</style></defs><path class="cls-1" d="M327.12,363c3.6,11.88,7.32,23.64,11.28,35.52l2.76,8.28a80.45,80.45,0,0,0-40.68.36L320,327.48A186.25,186.25,0,0,0,327.12,363Zm.84-14-6.36-35.4-28,97.68-.72,3.24c-3.48,16-7.32,32-11.28,48a199.47,199.47,0,0,0-4.32,23.64q-.9,8.82,1.08,13.32l19.8-83.88A111.24,111.24,0,0,1,326.4,413l11.4,1.08,5.76.84q8.28,28.62,13.68,58l2.52,13c2.28,10.44,5.16,20.76,8.4,31a43.88,43.88,0,0,0,2.16,5.52,355.76,355.76,0,0,0-5.4-42l-4-20.64a205.06,205.06,0,0,0-11.88-39.48,28.41,28.41,0,0,1-2.52-10.8v-1l-1.68-1.32a346.6,346.6,0,0,1-14.4-46.44ZM147.6,378.36q2.16-47.34,0-94a432.6,432.6,0,0,0-4.2,58.2c-.12,16.68.12,32.88.84,48.36,16.2,2,32.4,3.24,48.6,3.72a9.71,9.71,0,0,0,.6-10.32,283.43,283.43,0,0,1-45.84-5.28ZM85.08,263.88c21,31,32.16,65.4,33.72,103.44.72,17.4.6,34.92-.36,52.44a171.6,171.6,0,0,1-31.08,90.6A122.54,122.54,0,0,1,40.2,546.24l-.84.72-.6.6L26,550q1.44-26.1,2.16-52.2c1.08-34.8,1.8-69.6,2.4-104.52s.72-69.84.36-104.64L30.84,265l1-.36.36-.36,1.08-1a45.28,45.28,0,0,0,29.52-12.72l6.36-6A138,138,0,0,1,85.08,263.88Zm87.6-84.36c-3.24,12.84-11.88,20.76-26,23.52l.84-47.28c7.8,0,14.52,2.4,19.92,7.2C172.56,167.52,174.24,173,172.68,179.52ZM33.84,28.2l-.12-1.08-.36,1.44-.72.36-.12,1.32L32.4,31l.12.6v.24a78.09,78.09,0,0,0-1.68,12.6c-.36,6.48-.48,12.84-.48,19.08-.36,26-1.08,52.2-2.16,78.24-1.56,34.68-2.28,69.6-2,104.52q.54,52.92.12,105.24T24,456.12q-2,47.34-1.56,94.68l-.84,2a14.22,14.22,0,0,0,1,8.64,30.21,30.21,0,0,0,24.6-5.28H48.6L49,556a136.63,136.63,0,0,0,52.68-55,182.11,182.11,0,0,0,20.64-71,392.76,392.76,0,0,0-4.92-104.16,169.31,169.31,0,0,0-43.2-86.16,114.62,114.62,0,0,0,30.72-58.56A185,185,0,0,0,97.44,79.32C87.12,50.88,67.32,33.72,38.16,27.6H35.28l-.84.24Zm66.72,78.48A136.19,136.19,0,0,1,102,170.4c-7.08,33-25.2,59.16-54.36,78.24a15.81,15.81,0,0,1-5.28,1c-5-.12-8.88.6-11.64,1.92-.12-22.68,0-45.48.24-68.16.12-17.4,1-34.8,2.28-52.2a728.71,728.71,0,0,0,1-97.08l1.08.12A43.53,43.53,0,0,1,56,41l2.16.48A83.12,83.12,0,0,1,88,73.92,159.37,159.37,0,0,1,100.56,106.68Zm76.2,66c-1.44-11.88-8-19.2-19.92-21.84a20,20,0,0,0-9.24,0V147.6l-.48,3.24-1.32,1-.12,2.64.84,1.32-8.88,101,.12,5.16a28.19,28.19,0,0,0,2.52,8.76,161.48,161.48,0,0,0,6-58.8l10.92-3a497.29,497.29,0,0,0,25.92,70.56l2.16-.6a162.67,162.67,0,0,0-17.4-51c-2.76-5.16-5.28-10.32-7.56-15.72l-1.08-1.44-.6-2.52a29.41,29.41,0,0,0,16.2-17.64l1.2-4A38.77,38.77,0,0,0,176.76,172.68ZM278.4,42.84a98.34,98.34,0,0,0-25.92,20.64,124.57,124.57,0,0,0-16.56,24.36,190.68,190.68,0,0,0-21.24,89.4q.18,52.74-1,105.12t-3,104.64c-1.08,33.72-1,67.56.48,101.28.84,18.12,8,32.76,21.84,44,16.2,13.08,33.6,16.08,52.44,9.12a81.58,81.58,0,0,0,13.92-15.6c8.28-12.48,10.2-25,5.52-37.32a75.22,75.22,0,0,1-9.72,28.2c-10.56,17.88-26.28,22.08-47,12.84l-1-1.2a69.14,69.14,0,0,0-10.44-6.6Q215,504.3,214.8,475q-.18-52.74,1-105.12l1.8-89.28a119.85,119.85,0,0,0,40.32-.36l.24-.72c1.56-3.72.84-6.36-2.16-8.16a117.4,117.4,0,0,0-38.4,7.32l.36-14Q219,212.22,220.44,160A144,144,0,0,1,240.6,89.64c2.52-4.2,5.16-8.4,7.92-12.48Q265.08,52.68,293,49l.24.24.36.48.72.6,1.2.12,3.24.36c1,.12,1.56-.24,1.68-1.08V48.36a11,11,0,0,0-1.08-2.76,5.4,5.4,0,0,0-1.8-1.92l-1.68-.48-.36-.36-.6-.72-.84-.6-2.88-.6-4.44-.72a6.24,6.24,0,0,1-2.52,1.32Zm90.36,18.24a7.51,7.51,0,0,0,1.08-6.48,8.89,8.89,0,0,0-2.52-4.8c-11.88-6.6-23-5.4-33.6,3.6A97.75,97.75,0,0,0,312,79.68,107.12,107.12,0,0,0,300.48,110c-2.52,11.64-4.56,23.16-6.36,34.8a352,352,0,0,0-3.84,37.2c-.36,8.52-.6,16.92-.48,25.44l.6,25.44a103,103,0,0,0,7.8,36.48q7.38,17.82,26.28,21.6c12.72,2.76,23.52-.72,32.28-10.44a19.56,19.56,0,0,0,5-17.16,38,38,0,0,1-21.36,15.84,39,39,0,0,1-18.6,1.2,21.71,21.71,0,0,1-16.56-12,31.15,31.15,0,0,1-2.76-7l-2.64-10.32c-.84-3.48-1.44-7-2-10.44a262,262,0,0,1-2.4-54A152.62,152.62,0,0,0,339.72,191v-7.68l-44-1.8c-2.52-38.76,6.48-73.44,27.24-104.28a55.75,55.75,0,0,1,27.24-21.36,22.86,22.86,0,0,1,15.48-.12Zm88.2-4.2a29,29,0,0,0-17.4-7.08,26.32,26.32,0,0,0-7,2.76,23.74,23.74,0,0,0-7,6.36,21.2,21.2,0,0,0-6,4.08,125,125,0,0,0-25.2,35.28,133.74,133.74,0,0,0-11.16,35.64,977.89,977.89,0,0,0-11.52,102.72c-2,34.68-2.52,69.48-1.56,104.64a873.49,873.49,0,0,0,8.64,103.32,141.5,141.5,0,0,0,17,50.52Q406,512.94,425.4,517.8a16.44,16.44,0,0,0,11-.84c20.52-9.72,33.36-25.68,38.4-48.12l-.12-.6-.84-1.2-.6-.24-1,.24a173.55,173.55,0,0,1-23.88,32.76,16.07,16.07,0,0,1-9.6,5.28C420.6,508,407.52,501,399.48,484.32a241.68,241.68,0,0,1-22.68-84.6A922.55,922.55,0,0,1,374,295q1.62-52.2,6.84-103.92l5.4-51.72A98.57,98.57,0,0,1,403,93.84c4.8-7.08,9.84-14,15-20.88,10.32-13.32,22.68-16.8,37-10.68l.36.48A12.74,12.74,0,0,0,458.76,66l3.24.24-.6-1.44a14.14,14.14,0,0,0-2.28-4.68,12.72,12.72,0,0,1-1.32-2.52Zm122.64-.24a371.36,371.36,0,0,0-1.8,51.72c1.2,34.68,1.2,69.24,0,103.92L576.12,266l-5.16-.12c-10-.36-19.92-.6-30-.72l-41.28,1.08.12-6q2.16-52.2,6-103.92a577.75,577.75,0,0,0-1.68-103.92,285.14,285.14,0,0,0-1.56,34.44c.24,12.24.24,24.36-.12,36.48-.6,21.6-1.44,43.2-2.52,64.92L494.28,292.8q-2.7,51.84-3.24,103.92-.72,52.2-3.36,103.92a91.07,91.07,0,0,1-1.68,13c-1.92,9.72-1.2,18.48,2,26.52a395.47,395.47,0,0,0,6.84-70.68c.36-34.8.84-69.6,1.68-104.52q1.08-46.62,2.88-93.12a324.69,324.69,0,0,0,76.44,3.72l-1.2,41.28q-1.26,52.56-4.56,104.64Q566.7,473.82,563.64,526A94.94,94.94,0,0,1,562.08,539c-1.56,8-.48,14.4,3.36,19.2,3.24-28.8,5.64-58,7-87.36l4.8-104c1.68-34.68,2.88-69.6,3.72-104.52l1.92-104.52q.9-52.92-1.08-103.92A2.84,2.84,0,0,0,579.6,56.64Z" transform="translate(-21.31 -27.12)"/></svg>