<svg id="Layer_1" data-name="Layer 1" xmlns="http://www.w3.org/2000/svg" viewBox="0 0 447.04 455.16"><defs><style>.cls-1{fill-rule:evenodd;}</style></defs><path class="cls-1" d="M170.4,317.16a330.12,330.12,0,0,1,11.4,60.12c2.64,28-2.28,54-14.76,78.36a87.16,87.16,0,0,1-29.52,33.12,120.35,120.35,0,0,1-30.6,14.88c-14.64,4.68-25.8,2.52-33.6-6.36L72.24,497c1.32-10.68,2.64-21.6,3.84-32.52a1234.92,1234.92,0,0,0,6.72-128.4c.12-28.56.48-57.12,1.32-85.56a42.54,42.54,0,0,0,27.48-9,51.08,51.08,0,0,1,27,16.8A154.79,154.79,0,0,1,170.4,317.16ZM86.64,83.88A137.61,137.61,0,0,0,82.2,112q-3.78,63.36-4.32,127.56-.54,64.62-2.88,129a1037.15,1037.15,0,0,1-12.6,128c-2,12.36-.24,23,5.28,31.92l1.92-12.36a25.72,25.72,0,0,1,5.64,2.4,33.59,33.59,0,0,0,24,3.72,110.42,110.42,0,0,0,45.12-21.12,89.71,89.71,0,0,0,28.2-36.24q20.52-47.7,13.92-101.52A267.83,267.83,0,0,0,151.8,260.28a8,8,0,0,1-4-4L146.4,253l-1-.84a61.77,61.77,0,0,0-25-17.64L122,233q39.78-42.66,25.44-100.56Q135.06,81.9,85.56,73.32l-.12.12a4.11,4.11,0,0,0-2.16,4.44l.12,2.52a7.92,7.92,0,0,0,.72,3.24Zm39.72,22.2q24.48,32.58,16.44,72.12-10.26,50-58.32,58.44L85.56,207c1.8-41.52,2.76-82.56,2.64-123C103.92,85.8,116.64,93.24,126.36,106.08Zm60-20.52a180.52,180.52,0,0,0-7.44,43.08c-2.28,42.84-3.72,85.32-4.2,127.68,11.4-.36,22.68-.36,33.6,0q5.58-8.28-1.08-15.48c-9.84.12-19.2.12-28.2-.24.36-9.24.84-18.48,1.56-27.72Q185.64,148.44,186.36,85.56ZM272.16,95a189.44,189.44,0,0,0-20.4,49.44A588.51,588.51,0,0,0,233.88,273.6L233.16,302h-1.08l-.24,1.56a11.79,11.79,0,0,0,.6,7.32l.48.12-1.08,58.32a534.77,534.77,0,0,0,10.08,112.8c3.84,19.92,15.24,32,34.08,36.48a26.5,26.5,0,0,0,12.72-6.6q26.1-23.94,35.4-55.8c-.12-.36-.36-.48-.48-.48l-1,.24-1,.24-1.08.24A32.19,32.19,0,0,1,315,463a81.46,81.46,0,0,0-16,19.2Q284.46,506.1,260.76,496a79.56,79.56,0,0,1-17.28-42.84,954.17,954.17,0,0,1-4.92-96.72c0-14.88.24-29.64.6-44.4A128.42,128.42,0,0,0,287,309.84l.36-.84c2.28-5.16,1.44-9-2.76-11.64a302.61,302.61,0,0,1-45.36,4.56q.9-36.54,3.24-73.08a356.54,356.54,0,0,1,24.6-110c5.4-13.8,14.64-19.44,27.84-17a19.57,19.57,0,0,1,4.44,5.52c1.56,2.88,3.72,4,6.36,3.36l.12-.72c-.36-13.56-7.44-21.36-21.24-23.64a14.48,14.48,0,0,0-5.76,2.88Zm163.44-.36-.48.12L434.64,98l-.6-.12a5.12,5.12,0,0,0-1.32,1.44,5.94,5.94,0,0,0-.84,3.24l.36,2.4.24.84.12.72.84.24A474.06,474.06,0,0,0,430,168.6q.54,64.8,3.72,129c2.16,42.84,2.64,85.8,1.56,129.12a646.31,646.31,0,0,1-5,64.68c-1.32,10.44.84,18,6.24,22.92a131.65,131.65,0,0,0,5.4-32.28,1287.73,1287.73,0,0,0-1.2-129.12c-2.52-42.84-3.84-85.8-3.72-129.12q0-58.86-1.08-116.4l2.52.6a65.66,65.66,0,0,1,16,6.24c24.12,13.08,39.24,33.36,45.48,61.08a122.09,122.09,0,0,1-.36,56.64q-11.52,47.52-57.6,55.68a15,15,0,0,0-1.44,6.48,15.25,15.25,0,0,0,.84,5.76,4.24,4.24,0,0,0,1.92,2.4c18.6.6,33.24-7,44-22.56a104.1,104.1,0,0,0,14.16-28.56q17.1-53.82-6-107.76c-11.4-26.76-31.2-41.76-59.64-45.24ZM367.68,99.6Q343.56,125,338,161a578.65,578.65,0,0,0-6.12,108.12l.72,26.28h-2l-.36,1.68a13.81,13.81,0,0,0,.6,7.32l2,.24c.24,20.16,0,40.32-.6,60.36a554.61,554.61,0,0,0,11,128.4c1.68,8,5.4,14.52,11,19.2,4.2,3.48,8.88,4.08,14,2q42.3-16.74,48-61l-1.92.12-.84.24-1.32.48c-3.48,5.88-7.08,11.52-11,16.92a102.89,102.89,0,0,1-25,24.48c-7.68,3.36-15,3.12-21.84-.6A381.35,381.35,0,0,1,341,401.28q-.9-47.7-2.88-95.76v-.24a134,134,0,0,0,52.32-5.76l.48-.72c3.24-4.8,3-9.12-.84-13.08A289.83,289.83,0,0,1,337.8,295a882.4,882.4,0,0,1,3.84-116.76c2.52-26.28,12.12-48.72,28.8-67.56a52.36,52.36,0,0,1,24.6-1.32l.12-.84c1-11-5.52-15.36-19.56-13l-.6.24-5.88,3.12Z" transform="translate(-61.58 -73.32)"/></svg>