<svg id="Layer_1" data-name="Layer 1" xmlns="http://www.w3.org/2000/svg" xmlns:xlink="http://www.w3.org/1999/xlink" viewBox="0 0 576 591.96"><defs><style>.cls-1{fill:none;}.cls-2{clip-path:url(#clip-path);}.cls-3{fill-rule:evenodd;}</style><clipPath id="clip-path" transform="translate(-11.16 -1.08)"><rect class="cls-1" x="11.16" width="576.12" height="593.16"/></clipPath></defs><g class="cls-2"><path class="cls-3" d="M138.12,582.48a3.89,3.89,0,0,1,1.08,2.88c0,4.2-2.4,5.76-7.32,4.68l-28.2.24-3.72.84c-2.16.36-3.36.6-3.6.84-1.44-.24-2.4-1.92-2.76-5l-.24-6.24c-.36-13.92-.36-24.36-.12-31.2.36-11.76,1.8-21.36,4.44-28.68,1.08,5.4,1.68,13.44,1.68,24.36l-.6,13.8c-.48,8.52-1,15.36-1.56,20.28v.48l5.64-.84,30.36.36Zm164-207.84c1.32,1.2,3.84,5,7.68,11.4,3.84,6.6,5.76,10.68,5.76,12.12l-.12,2.76a4.93,4.93,0,0,1-2.88,3.48,93.23,93.23,0,0,1-5-9.48,28,28,0,0,0-6.84-9.48l-6.72.24c-10.2,3-17.76,23.28-22.92,61-1.08,8.28-2,16.56-2.76,24.84l2.16.48L291,473.64l8.88-.48,1.32,2.4a14.76,14.76,0,0,1,0,6.48l-1.32,2.4H289.44l-.6-.48-21.12-.6-.36-.36c-1.08,14.52-1.56,29.16-1.56,43.92l-.24,9.72a101.63,101.63,0,0,0,1.32,18.84c3.12,17.64,10.8,26.4,23,26.4,6.48,0,12.36-4.68,17.76-14.16,4.2-7.44,6.36-13.44,6.6-18l-.12-.36c0-.36.6-.48,1.68-.48a3.64,3.64,0,0,1,3.84,3,7.85,7.85,0,0,1,.24,3.36c-9,25.2-18.36,37.8-27.84,37.8l-3.84-.48-8.64-1A54.94,54.94,0,0,1,263.16,560a127.1,127.1,0,0,1-1.2-16.56l.12-16.56a642.58,642.58,0,0,1,5.64-88.2c5.64-40.2,14.4-61.68,26.52-64.32ZM143,340.8a33.64,33.64,0,0,0-4.92-17.16c-4.56-8-11.4-12.48-20.64-13.32-.12,7.08-.72,14.88-1.56,23.64q-1.26,11.88-3.6,28.8v18c10.8-.6,19-6.12,24.6-16.32A48.89,48.89,0,0,0,143,340.8ZM50.16,233.52a56.94,56.94,0,0,1-16.56,2.4l-7.44-.12,1.44,77.88q0,18.18-2.16,48.24c-1.8,26-2.88,42.36-3.24,48.72v47.88l-1.08,4.08V504q-1.26,12.42-2.88,43.92l-1.8,26,.36-.12a5,5,0,0,1,1.32,2.4h7.8c16-2.4,31-14.52,45.24-36.24A180.43,180.43,0,0,0,84.6,515.28a87,87,0,0,0,6-16.44,262.73,262.73,0,0,0,5.64-40.32c.36-7.2.6-20.28.6-39.24L97.08,393a128.54,128.54,0,0,0-.48-14.76c-.36-3.72-4-22.2-10.8-55.56-1.32-6.72-3.36-14.88-6-24.48L73.08,274C68,255.6,61.8,243,54.24,236.4Zm66.48,65.88c12.48,1.56,21.12,7.32,25.8,17.4,2.88,6,4.32,13.92,4.32,23.88a75.93,75.93,0,0,1-5.4,28.8c-3.72,9-8.76,15.36-15.36,19.08,2.52,15.48,5.4,36.36,8.64,62.88.84,6.72,3.6,20.4,8.52,41.16C147.72,512.16,150,522.36,150,523a12.08,12.08,0,0,1-.36,3.24l-1.56,2.88c-4.2-11.64-9.6-36.84-16.32-75.36-6.24-35.64-9.36-56.52-9.36-62.88v-.48a28.51,28.51,0,0,1-4.56,1.32l-5.52-.12v75.12L110.64,495c-.6,12-1.56,21.72-2.64,29.28l-1.44.24a20.06,20.06,0,0,1-1.32-7.68c0-10.92.24-20,.6-27.6A225.49,225.49,0,0,1,108.48,462V357.36c.36-2.76,1.32-13,2.76-30.6A170.38,170.38,0,0,1,114,305.4l-.12-1.2a18.19,18.19,0,0,1,.24-2.76l.24-2.28,1.08.12.48-1.56Zm-16.2-89.16v4.92c17.64,1.56,28.08,2.76,31.44,3.84,1.68.6,2.64,1.2,2.88,2l.12,2.88a8.16,8.16,0,0,1-.48,3.6c-.6,1.08-2,1.68-4.2,1.68l-6.48-1-10.08-1.8L97.92,226a8.32,8.32,0,0,1-2.4-6.12,233.37,233.37,0,0,1,3.24-36.12c.36-1.8.84-7.92,1.56-18.36.48-7.44,1.44-13.08,2.76-16.8,1.08,3.24,1.68,8.28,1.68,15A263,263,0,0,1,100.44,210.24ZM31,23.64a77.18,77.18,0,0,1-1.2,13.68q0,7.56-2.16,73.68t-2.16,91.2l.36,17.16.72,1H33.6c22-6.72,36.72-18.24,44.52-34.44Q85,171.66,85,147.36c0-6.84-.48-16.32-1.56-28.2a368.42,368.42,0,0,0-7.32-48.48C66.36,28.56,51.36,11.88,31,20.88ZM31.44,5.4q34.2-13.68,49.8,58.2a430.64,430.64,0,0,1,7.56,53.64c1.08,12.84,1.56,23.28,1.56,31.08,0,6-.12,11.16-.48,15.6a145.23,145.23,0,0,1-5.64,29.88c-5.28,16.44-13.32,28.08-24,34.92l2.16,3.72a224.21,224.21,0,0,1,15,34.2,334.78,334.78,0,0,1,13,46.32q10.08,47.34,11.16,58.68a164.2,164.2,0,0,1,.84,18.72l-.12,28.92c0,4.2.24,11.52.6,22,.36,9.72.6,17.4.48,22.8-.24,17.88-2.88,32.52-7.8,43.68-9.24,20.64-16,35.28-20.28,43.8-6,11.64-11.4,20.28-16.32,25.92A42,42,0,0,1,41.4,589.8Q32.4,593,17.28,593c-3,0-4.8-1.32-5.64-3.84L11.4,585v-1.32l-.24-3,.24-9.36c0-23.4.36-41.88,1-55.44.36-7.56,1.92-28.8,4.44-63.84V403.32L20,355.56q2.16-31.68,2.16-49.68L20,201.72c0-20.52.48-51.72,1.56-93.36S23.28,35.52,23.28,15q0-6.66,3.24-9.36A13.78,13.78,0,0,1,28.8,9,9.38,9.38,0,0,1,31.44,5.4Zm257.64,22q-8.46,35.64-15.6,86.16c-2.76,19.32-6.6,48.36-11.64,87.36l-2.28,15.6c24.72-.36,37.32-.72,37.92-1.08l7.2-.48-.24-1.8Q290.22,71.28,289.08,27.36ZM256.32,41a13.81,13.81,0,0,1-3.24,6.36c-.84-1.2-1.32-3.6-1.56-7.2a49.67,49.67,0,0,0-1.44-9.6c-2.52-7.92-10.32-11.88-23.16-11.88q-26.1,0-42.12,36.48a169,169,0,0,0-8.88,26.64A129.18,129.18,0,0,0,173,97.44l-4,40.2c-1.56,15.6-3.12,29-4.68,40.2q-.54,3.6-2.64,71l-1,28.56c10,0,17.4.12,22.2.36l14.28-.6,18.24-.84,1-2A5.14,5.14,0,0,1,219,271.8a19.13,19.13,0,0,1,1.56,4.2,19.61,19.61,0,0,1,.6,4.32,23.28,23.28,0,0,1-.6,6.12,32.83,32.83,0,0,1-3.12,5.64l-4.56.36-5.16.72-47.28-.24c-.6,21.72-1,36.48-1,44.28a1141.24,1141.24,0,0,0,6.84,122q10.26,96.66,31.32,112.68h8.88C224,566.28,236.16,557,243,544.2a84,84,0,0,0,6.36-17l4.8-16.92.72-.48,1.44-1.2a17.43,17.43,0,0,1,2.76,9.72c0,2.4-1.2,7.08-3.48,13.92a158.73,158.73,0,0,1-10.32,23.4c-11.64,21.36-24.48,32-38.76,32l-10.2-.36a120.52,120.52,0,0,1-29.88-63.12,296.43,296.43,0,0,1-2.64-31.08c-.72-14.64-1.44-25-2.16-30.84l-3.84-55.32q-3.78-56.52-3.72-69.6c0-14,.12-29.28.48-45.48a13.1,13.1,0,0,1-1.56-6.6,30.13,30.13,0,0,1,.24-4.44,10.87,10.87,0,0,1,1.56-3.12l1.08-36.84c1.32-39.72,2.88-69.84,4.68-90.12L166,104c2.52-18.12,5.76-33.72,9.72-46.68C181,40.2,188.4,26.76,197.88,17c8.4-8.52,17.4-13.32,26.88-14.28,9-.84,16.56,1.8,22.68,7.8,6.36,6.36,9.48,14.88,9.48,25.68A24.92,24.92,0,0,1,256.32,41ZM293,23.64l-.12,23.16,3.24,45.48c3.6,46,6.12,76.44,7.56,91.68.6,7,1.68,17.16,3.12,30.72l.72-.12,1.2,2.52a14.76,14.76,0,0,1,0,6.48l-.84,1.8L315,289.92q8.1,73.08,8.16,76.2l-.24,3.48A13,13,0,0,1,321.6,373q-3.24-2-3.6-9l.36-7.56q0-4.5-12.6-130.32l-3.48.36-5.88.84L258,227l-.12-.12c-3.72,23.28-7.56,43.92-11.76,61.8a559.11,559.11,0,0,1-27.36,87.48H216a31.45,31.45,0,0,1-.48-5.16c0-.72,1.2-4.68,3.72-11.76l8.64-24.48q13-38,14.64-57.6c3.84-12.36,7.08-27.72,9.84-46.2,2.64-20.52,4.92-36,6.72-46.2,2.16-12.36,4.44-27.72,6.72-46.2l5.64-47q7.38-56.88,18.48-90.48C292.08,6.72,293.16,14.28,293,23.64ZM373.8,383c-6.84,5.88-14.28,12.48-22.2,20-16,15-26.76,27.12-32.16,36.24l9.48.48,9.72-.48,29.52.24a18.42,18.42,0,0,1,3.48,3.24,3.92,3.92,0,0,1,1.08,1.92l-.48,1.56c-.84,1.08-2.52,1.68-5.16,1.92l-14,.24-14.4.6-10.08-.24-10.2-.6-7.32-.48-.84-1.8-.24-2.64c0-4.56,7.44-14.52,22.32-30,12.36-12.84,20.28-20.64,24-23.28-6-1.08-15.48-2.16-28.44-3.36-2.16-.24-3.48-.6-4.08-1.08s-.84-1.56-.84-3.36a24,24,0,0,1,.24-4.56c.36-.6,1.68-1,3.84-.84l11.52,1.08,23.88.84,10.08.24.84,1.32A5.69,5.69,0,0,1,373.8,383Zm-17.52-69a59.47,59.47,0,0,1,.72,11.28l-.12,10,12-.48v-.48l5.4.24-.48-15.72-.48-13.8a10.92,10.92,0,0,1,.24-2.52l.84-.72a39.63,39.63,0,0,1,2,12l.12,13.08v7.68h.24l.6,1a7.88,7.88,0,0,1,.24,2.28,5.17,5.17,0,0,1-.36,2.4l-.72.6h-.12l-.24,11.76a122,122,0,0,1-3.6,23.52l-2-.6-1-1.44a4.18,4.18,0,0,1-.72-1.68l2.76-14A143.16,143.16,0,0,0,374.28,341l-1.8.12q-4.14.36-4.68.72l-11.16-.24c-.48,10.56-1.44,21.6-2.88,33.24l-.36.48-.72.84-1.8-1.56a5.44,5.44,0,0,1-.36-2.52c0-6.6.72-16.8,2.16-30.84L355.44,314Zm1-1.68q-3.42,1.26-12.24,1.08l.12,9-2,53.88-3.36.12V373.8l.12-34.68a166.21,166.21,0,0,1,2.64-25.68l-7.92-.48-9.24.72a3.16,3.16,0,0,0-1.8.84,1.7,1.7,0,0,1-1-1.08l-.12-2.64q0-4,1.08-4.68H344l.24-.72.12.72h11.52l2.52.36.6.84a11.13,11.13,0,0,1,.12,2.4l.12,1.08A3.2,3.2,0,0,1,357.24,312.36ZM360,240.84l-5.64,27.72c-2.28,11.16-4.56,21.12-6.84,29.76-2.16-6.6-3.6-15.72-4.2-27.48l-1.44-28.44-.24-.48c-1.8,6.12-4.2,15.72-7.2,28.56-3.24,11.28-7.56,20.52-13.08,27.84l-1-.6-.12-2.4q0-2.7,7.56-25.56c4.2-12.72,8.88-26.16,14-40.2A238.66,238.66,0,0,1,345.24,258l2,28.92c3-6.12,5.28-15.24,6.72-27.36,1.44-12.6,3.48-21.84,6.24-28l8.64,61.56v4.92l-.36.48-.72.84a556.66,556.66,0,0,1-7.56-58.08Zm.84-131.28c0-6.24-1.32-11.16-4.08-14.76-5.16-7.08-14.88-10.68-29.28-10.68l-1.68,11-4,24.48v16.44h.24c14.52,0,25.2-3.72,32-11C358.56,120.12,360.84,115,360.84,109.56Zm-2.4,20.28a29.59,29.59,0,0,1-17.16,13.44c4.08,10.32,9.24,25.2,15.48,44.76,7.08,21.84,10.56,33.84,10.56,36.12,0,2.52-.6,4.2-1.68,5.28-4.68-8.28-10.8-24.6-18.24-48.84-6-19.2-9.36-31.32-10.2-36.36l-9.36.84-6-.24v47c-.6,3.24-1.08,8.52-1.68,16.08-.72,6.72-2,12.24-4,16.44l1.08.36L317,226a4.32,4.32,0,0,1-1-1.44l-.12.36a3.55,3.55,0,0,1-1.32-2,9.18,9.18,0,0,1-.36-3,137.54,137.54,0,0,1,4.32-33.72V115.56a85.16,85.16,0,0,0,1.2-11.76c.36-5.28.6-9.24.72-11.76.72-9.24,2.88-16,6.48-20.28l1.08,1.8.24,2.16c15.6-.12,26.16,4.32,31.56,13.2,2.76,4.68,4.2,11.28,4.2,19.92A39.86,39.86,0,0,1,358.44,129.84Zm60.6,23a34.18,34.18,0,0,1,8.52,8.88,15.29,15.29,0,0,1,2.52,8.4l-.24,4.08-1.2.48-2.88.36-2.16-5.16a44.36,44.36,0,0,0-5.64-8.4l-10.32.36c-7.8,2.28-13.32,12.6-16.68,31.08a228.07,228.07,0,0,0-3.12,39.48q0,19.26,2.16,58.32l.36,6.24,3.36.12,10.68,1.2,13.56-.6,1.08,2.16.24,2.76a8.06,8.06,0,0,1-.36,2.76l-1.32,1.8-7.32-.12-7.56-.6-9.48-.6a11.42,11.42,0,0,1-2.52-1.68q1.44,29,1.44,45a462,462,0,0,1-2.64,49.56c-1.8,16.68-2.76,25.68-2.76,26.76a45.05,45.05,0,0,0,.36,7.32,13.76,13.76,0,0,0,4.56,7.32l10-.36a57,57,0,0,0,12-19.44c1.68-4.44,3.24-11.28,4.8-20.28l-.24-.36c-.12-.36.48-.48,1.56-.48,1.56,0,2.76,1.2,3.36,3.6a14.91,14.91,0,0,1,.48,4c0,1.56-2.76,8.16-8.4,19.68-6.12,12.48-10.68,20-13.8,22.56l-10.32-.24c-3.72-1.32-6-4.8-7-10.32a84.1,84.1,0,0,1-.6-12.24c0-5.4,1-16.08,2.76-32.28a403.58,403.58,0,0,0,2.64-44.52c0-13-.72-32.4-2.16-58.44s-2.16-45.48-2.16-58.32V212.52a161.5,161.5,0,0,1,2-22.32c3-17.4,10.08-30,21.24-37.56ZM522.48,52.08c17.4,17.88,28,36.72,31.44,56.76C570.6,140.76,581,177.84,585,220v43.92c.48,6.36.6,15.84.48,28.44L585,311.16l1.08,22,1.08,22c0,10.44-5,32.76-15,67.2C567,439.8,561.36,458.4,555,478q-14.76,50.76-68.28,85.2a201,201,0,0,1-42,20.76c-12.36,4.44-22.56,6.72-30.36,7l-.36.72-.48-.72c-1.8,0-2.88-1.32-3.48-3.84l-.36-4.2c0-3.48.6-6,1.92-7.68q6.12-31.14,12.12-70.56,13.14-84.42,13.08-138.36L439,322q2.16-43.56,2.16-71.76c0-15.6-.6-38.52-1.68-68.64s-1.56-61.92-1.56-95.64c0-21.12.12-34.44.24-39.84A270.68,270.68,0,0,1,440.28,19c-1.56-1.56-2.4-3-2.4-4.32q0-5,2.16-7.92Q490.8,19.86,522.48,52.08Zm45.84,121c-5.16-21.12-11.76-39.6-19.56-55.32-4.92-11.4-9-20.16-12-26.28a112.81,112.81,0,0,0-19.32-28.08C512,57.72,504.6,52.2,494.88,46.8c-6.24-3.48-15-7.8-26.28-12.84s-18.48-8.52-21.72-10.32L442.68,21l.48,26.16L443.28,87q0,43.2,1.56,86.64t1.68,75.6q0,38.7-1.68,71.64c-1.08,22-1.56,41.88-1.56,59.88q0,15.3-10.8,105.84c-1.8,11.64-4.56,31-8.16,57.84-1.2,8.16-2.4,15.36-3.6,21.72l.84-1.08a20.44,20.44,0,0,1,2.16,7.08q62.46-14.94,91.8-47.88a149,149,0,0,0,19.92-29c6.72-13.08,11.88-22.56,15.48-28.56,1.92-3.24,7.44-20.64,16.56-52.44q14.22-49.86,14.28-60l-.84-14.52c-.72-9.72-1.2-16.92-1.32-21.6s.12-11.64.48-21l.6-14.4c0-6.12-.36-10.44-1.08-13.2V226.44l-5.28-26.28C572.16,189.48,570.12,180.36,568.32,173Z" transform="translate(-11.16 -1.08)"/></g></svg>