<svg id="Layer_1" data-name="Layer 1" xmlns="http://www.w3.org/2000/svg" viewBox="0 0 432.31 395.88"><defs><style>.cls-1{fill-rule:evenodd;}</style></defs><path class="cls-1" d="M89.52,76.44a461.58,461.58,0,0,0-5.88,75.36q.18,64.44-2.28,128.28c-1.8,43.08-3.84,86.16-6.36,129.12a321.19,321.19,0,0,1-3.48,32.16c-1.68,10.32.48,18.12,6.36,23.52a4,4,0,0,0,1.2-2l.12-.12L83,460l1.08-.72,7-3.72,1-.72q57.06.18,114.36-.48a8.45,8.45,0,0,0,2.52-5.64l.12-.84.12-3.24-.12-.84a12.66,12.66,0,0,0-1.92-5.52l-1-1c-13.2,0-26.4.12-39.48.48-21.72.48-43.32,0-64.92-1.32l-1.68.36-8,.72a44.09,44.09,0,0,0-12.12,7.92q2.34-55.8,5-112.08,3.24-64.44,4.68-129c1-43.32,1.2-86.16.72-128.28C89.76,76.2,89.52,76.32,89.52,76.44Zm94.32,30.48c-1.92,42.84-3.48,85.92-4.8,129s-2.76,85.92-4.56,129c-.6,12.6,1.44,23,6,31.44,2.4-40,3.72-80.16,4-120.84.36-43.32,1.56-86.28,3.6-129.12.6-10.8,1.32-21.6,2.4-32.28.84-9.24.12-17.28-2.16-24A36.38,36.38,0,0,0,183.84,106.92ZM358.8,86c-4,6-6,13.44-6,22.2.12,43-1.8,85.68-5.52,128.16s-6.6,85.44-8.64,128.28c-.84,20.16-2.64,40.2-5.4,60q-17.46-55.8-31.68-112.32c-9-36.12-17.64-72.24-26.16-108.48q-14.58-62.46-26.28-124.56c-.6-.12-1,.12-1,.72l.36,5.16a777.84,777.84,0,0,0-6,100.2c.12,42.84-1.08,85.68-3.72,128.28q-4.14,64.26-4,128.16l-.24.84a16.87,16.87,0,0,0,.48,12.12,3.21,3.21,0,0,0,4.08,1.44A418.55,418.55,0,0,0,242.64,397c-.24-19.8.24-39.48,1.56-59.16,3-42.48,4.68-85.32,5.28-128.4.36-21.48,1-43.08,1.92-64.8.48-8.76.6-17.52.48-26.16q3.06,23.58,7.92,46.8l10.32,47.52Q283.62,275,299.4,336.84q15.84,62.1,33.12,124c1.08,1.92,2.52,2.4,4.32,1.56a39.93,39.93,0,0,0,2.16-15q5.94-51.84,7.8-104.88Q349,278,354,214.2C357.48,171.12,359.16,128.4,358.8,86Zm99,5.64a27,27,0,0,0-19.32,9.48,223.15,223.15,0,0,0-48.36,91.32A682.15,682.15,0,0,0,369.48,319.8l-2,31.56c-2.52,38.16,5.4,73.56,24,106.08a23.05,23.05,0,0,0,12,10.32q29,11.34,56-7.92a75.46,75.46,0,0,1,16.32-9.12c16.2-6.6,21.12-16.68,15-30.24a11.67,11.67,0,0,0-6.36,2.28,262.05,262.05,0,0,1-45,26.16q-36.36,16.74-49.8-18.24-19.08-49.14-14.76-103.32c1.32-17,3.24-34,5.64-50.76a194.43,194.43,0,0,0,65.64,0l.48-1c2.28-5,1.92-9.6-1.32-13.68l-63,2.64c3-19.44,6.84-38.76,11.4-58.08q3.24-13.86,7.2-27.36,12.42-42.66,45-70.92A73.46,73.46,0,0,1,477,106.56a50.11,50.11,0,0,1,15.6,12.36,16.39,16.39,0,0,1,3.12,5.88l2,1.68,3.72,2.52.48.6a3.32,3.32,0,0,0,.12,1.56l.24-.12.6-.72.36-.72a39.23,39.23,0,0,0-5.4-16.2,56.91,56.91,0,0,0-20-20.28l-4.32-.48Z" transform="translate(-70.97 -76.08)"/></svg>