<svg id="Layer_1" data-name="Layer 1" xmlns="http://www.w3.org/2000/svg" viewBox="0 0 310.04 203.37"><defs><style>.cls-1{fill-rule:evenodd;}</style></defs><path class="cls-1" d="M348.12,328.2a399.52,399.52,0,0,0-1.32-127.68c-4.2,5.52-5.88,12.72-5,21.72a421.84,421.84,0,0,1-6.48,126.48,40.66,40.66,0,0,1-6.6,15.36c-15.48,22.44-36.24,28-62.52,16.32a28.14,28.14,0,0,0-5.4-7.32,548.1,548.1,0,0,1,.12-107.76A204.43,204.43,0,0,0,257.52,201c-2.4,31.8-4.44,64.32-6.24,97.32a409.36,409.36,0,0,0,3.36,79.56c1.68,11.28,8,18.24,19.08,21,32.52,8.28,54.36-3.12,65.4-34A190.87,190.87,0,0,0,348.12,328.2ZM155.52,213.72q-2.7,59.4-8.64,118.56a278.26,278.26,0,0,0,.84,64.08q39.78-.54,79.32-1.56c3.84-5.88,3.72-11.52-.36-17q-38.52,1.62-74-.36a355.49,355.49,0,0,1,2.28-51.84,859,859,0,0,0,5.52-127.44c-.48.12-.72.24-.84.48A32.17,32.17,0,0,0,155.52,213.72ZM381,213.24q-4,42.3-4.2,87.12-.18,32.58-2.88,64.8c-1,11.88.36,22.68,3.84,32.28a2.14,2.14,0,0,0,1.08-1.44,672.33,672.33,0,0,0,4.92-68l.36-31.8a206.92,206.92,0,0,1,43.08-2.64,10.65,10.65,0,0,0,2.28-8.88,10.92,10.92,0,0,0-1.68-4.08L427,280a33,33,0,0,0-11.4-1.2,84.81,84.81,0,0,0-31.44,5.64c0-23.16-.36-46.08-1.2-68.88a168.67,168.67,0,0,0,70,8.52,5.25,5.25,0,0,0,1.92-3l.12-.72.24-1.68a11.71,11.71,0,0,0,.24-4.08,12.7,12.7,0,0,0-1.68-4.8.87.87,0,0,0-.72-.48,212.59,212.59,0,0,1-67.2-7.08h-.48l-2.88.72-.12-3.24-.36,3.48-.48.12-.24.72-.24.84-.36,1.56a15.56,15.56,0,0,0-.24,4.08A6.67,6.67,0,0,0,381,213.24Z" transform="translate(-145.43 -198.12)"/></svg>