<svg id="Layer_1" data-name="Layer 1" xmlns="http://www.w3.org/2000/svg" viewBox="0 0 375.96 388.42"><defs><style>.cls-1{fill-rule:evenodd;}</style></defs><path class="cls-1" d="M286.68,316.44C278.16,342,269,367.56,259.56,393v-.36a30.27,30.27,0,0,0-5.28-18.12,695,695,0,0,1-37.32-63l-1.32-.72-1.32-.36a2.66,2.66,0,0,0-1.56,1.8,13.53,13.53,0,0,0-.12,8.16,29.44,29.44,0,0,1,7,10.68A241.88,241.88,0,0,0,257,398.28l.84-.84-15.36,40c-4.56,11.64-4.44,22,.48,30.72q20.16-56.7,38.64-114.48a99.15,99.15,0,0,1,5.76-14.76c5.16-10.92,6.84-21.36,5-31.44A20.16,20.16,0,0,0,286.68,316.44ZM83.4,106.56q-4.32,64.26-7.2,129.12Q73.32,299.4,73.32,364a418.81,418.81,0,0,1-4.8,63.84c-1.8,12.6-.36,23.16,4.56,31.92l.48-2.4.48,1.2,1.2,1.68a207.58,207.58,0,0,1,41.88-6.72l17.64-.72q46.08-1.08,89.52-.6l1.2-2.4a15.35,15.35,0,0,0,0-9.84,6.46,6.46,0,0,0-1.2-2.4l-.84-.6a55,55,0,0,0-21.12-3.48,63.77,63.77,0,0,1-31,1.8,126.28,126.28,0,0,0-36.84-1.32A250.2,250.2,0,0,0,75.36,447.6,372.69,372.69,0,0,0,80,385.8c-.12-43.08.48-86.16,1.92-129,.6-16.2,1.56-32.4,3.12-48.6A966.09,966.09,0,0,0,88.2,80.64c-.6-.12-1,0-1,.36A149.19,149.19,0,0,0,83.4,106.56ZM251.76,87.24Q248.7,122.7,247.68,160l-4,128.88c-.36,12.24,1.56,22.8,5.76,31.8a165,165,0,0,0,4.2-40.56c-.6-43.08,0-86.16,2-129.12a330.9,330.9,0,0,0-3-64.08C252.12,86.76,251.88,86.88,251.76,87.24ZM388.2,88.68A140.06,140.06,0,0,0,347.88,155a586.23,586.23,0,0,0-13.68,60.84,985.22,985.22,0,0,0-13,127.8c-.6,15.72-1.44,31.32-2.52,46.92q-2.52,35.1,18.72,61.68c16.08,20.28,34.2,22.08,54.24,5.64a525.76,525.76,0,0,0,42.72-39c10.44-10.68,12.12-20.76,5-30.12a275.38,275.38,0,0,1-52.56,52.44q-29.7,22.32-50.52-8.76a28.41,28.41,0,0,1-4.68-12.12,389.07,389.07,0,0,1-3.12-95.28l4.68-44.88a251.93,251.93,0,0,0,65.88.36l.84-1c3.6-5.4,3.6-10.8-.12-16.08-22.08,1-43.8,2.76-65.28,5.28q4.14-34.56,9.36-68.88a208.08,208.08,0,0,1,37.92-92.28,11.29,11.29,0,0,1,7.08-4.56c18.84-3.6,32.88,3.24,42.36,20.64l.12.72a2.63,2.63,0,0,0,.6,1.44,1.67,1.67,0,0,0,1.2.6v-.36l-.24-.84c-2.16-22.68-15.12-36.12-39-40.08A14.57,14.57,0,0,0,388.2,88.68Z" transform="translate(-67.78 -80.6)"/></svg>