<svg id="Layer_1" data-name="Layer 1" xmlns="http://www.w3.org/2000/svg" viewBox="0 0 300.36 208.8"><defs><style>.cls-1{fill-rule:evenodd;}</style></defs><path class="cls-1" d="M157.8,397.2A229.53,229.53,0,0,0,218,398.28a5.25,5.25,0,0,0,1.92-3,15.67,15.67,0,0,0-1.08-11.4,1.93,1.93,0,0,0-.84-.48,31.51,31.51,0,0,0-5.88-.6,140.44,140.44,0,0,0-53.4,4.32l3.12-63.72Q165.48,259,163,195.12c-4.44,5-6.48,11.64-6.36,19.68q1.26,64.44-1.92,128.28c-.48,10.8-1.32,21.6-2.52,32.28-1.08,9.84.36,17.64,4.56,23.4l1-1.68ZM302.64,196.32A142.75,142.75,0,0,0,299.76,227c.6,43.08.6,86,.24,129a384.69,384.69,0,0,0,2.52,47.88l3.24-1.08a78.38,78.38,0,0,0,2.64-19.44l.84-59.28a1104.76,1104.76,0,0,0-6-128.16Zm70.68,10.44-2.52,129c-.12,10.8-.84,21.6-1.92,32.28-1.2,12.12.12,22.8,4,31.8l1.08-7.92v.72a7,7,0,0,0,2.16,5.64,626.26,626.26,0,0,1,73.56,1.08,11.13,11.13,0,0,0,2.52-7.8v-.84a12.32,12.32,0,0,0-1.68-5.76,1.09,1.09,0,0,0-.84-.36l-49.2-2.52a54.44,54.44,0,0,0-23.28,1.8,9.52,9.52,0,0,0-2.76,3.84,575.36,575.36,0,0,0,4.08-63.36c.6-43.2,0-85.92-1.56-128.16C374.64,198.72,373.44,202.32,373.32,206.76Z" transform="translate(-151.82 -195.12)"/></svg>