<svg id="Layer_1" data-name="Layer 1" xmlns="http://www.w3.org/2000/svg" viewBox="0 0 314.25 214.56"><defs><style>.cls-1{fill-rule:evenodd;}</style></defs><path class="cls-1" d="M157.2,197.76a681.81,681.81,0,0,0-10.08,75.72,967.09,967.09,0,0,0-2.4,116.16,6.92,6.92,0,0,0,.12,4.68l.24,4a3.87,3.87,0,0,0,1.68-2.4q42.84-.9,85.92-4.68a2,2,0,0,0,3,1.08l.6-.72c2.88-4,2.88-8,.12-12.24a507.13,507.13,0,0,0-89.28,8.88q1.44-61.38,5.16-122A455.35,455.35,0,0,1,160.2,204l.24-.36Zm175.92-3.48c1.56,29.4,2.52,59.52,2.64,90.12a223.5,223.5,0,0,1-8.4,63.72q-12.24,43.38-60.36,42a15.5,15.5,0,0,1-6.72-8.4,141,141,0,0,1-6.6-54.24q4.5-64.62,10.08-127.2c-3.84,6.84-6.12,16-7,27.48l-8.52,127.32c-1.32,19.56,4.92,35.64,18.48,48.12,18.48,1.32,34.68-4.08,48.72-16.08a57.66,57.66,0,0,0,6.24-8,129.17,129.17,0,0,0,19.56-59.16,466.54,466.54,0,0,0-6.36-127.56C333.6,192.36,333,193,333.12,194.28Zm83.88,70-6.6,85.08c-1,12.36-1.44,24.6-1.44,36.84a44.47,44.47,0,0,0,2.64,15.36l1.32,3.48,7.68-96.72,29.28-1.68a344,344,0,0,1-3.12,44.52,175.56,175.56,0,0,0,0,44.88,43.15,43.15,0,0,0,2.88,10.92c2-13.8,3.48-27.84,4.56-41.88,1.56-21.36,2.64-42.72,3.12-64.2q1.26-53.1.72-106.56l-7.92,99.48-29,4.2,1.32-77.16C420,235.2,418.2,249.72,417,264.24Zm-63.12-50.16,35.88,1.56Q385.62,261,385,308.4c-.36,22-1.08,43.56-2.4,64.92q-1.08,18.18,4.32,31.68a18.1,18.1,0,0,0,3.84-13.8l-.36-.6a4.09,4.09,0,0,1-1.32-2.28,101,101,0,0,1,0-14.76q1.62-21.06,2.16-42.12c.84-39,1-77.52.12-115.8,13.32.36,26.64.48,40.2.36a12.47,12.47,0,0,0,1.32-9l-.24-.84-.72-1.56c-.24-.36-.48-.48-.6-.48l-31.92-1.44a159.74,159.74,0,0,0-45.48,3.24,9.06,9.06,0,0,0-.72,5.64l.24.84Z" transform="translate(-143.96 -192.36)"/></svg>