<svg id="Layer_1" data-name="Layer 1" xmlns="http://www.w3.org/2000/svg" viewBox="0 0 275.02 204.85"><defs><style>.cls-1{fill-rule:evenodd;}</style></defs><path class="cls-1" d="M156.6,213q-.36,59.94-5.28,119.16a317.74,317.74,0,0,0,.72,64.2c21.84-2.28,43.44-3.6,64.92-3.72q6.66-9.36-1.08-17.64l-59.16,2.76q.18-27.18,2.16-53.64a1005.38,1005.38,0,0,0,1.56-127.44C157.92,201.12,156.6,206.52,156.6,213Zm165.84-9.48c-.36,34.8-1.08,69.72-2.4,104.64a126.43,126.43,0,0,1-14.64,55.2q-16.92,32-47,14c-9.84-14.52-14-31-12.6-49.56,3.6-43.08,5.76-85.44,6.6-127.32a71.46,71.46,0,0,0-7,27.72c-2.28,42-3.72,84.24-4.08,126.72-.12,12.24,3.84,22.8,11.88,31.56,17.4,19.2,34.44,19,51.36-.84a48.32,48.32,0,0,0,9.72-18.12,416.5,416.5,0,0,0,15.48-127c-.12-5.52-.12-10.92.12-16.2.36-10-1.68-17.76-6.24-23.4A2.87,2.87,0,0,0,322.44,203.52Zm68,97.32c15.12,7.08,24.48,18.84,28,35,3.6,16.92-2,29.88-16.92,38.76-14,8.28-28.92,9.84-44.76,4.68l-2.28-.84,4.8-69.48A45.91,45.91,0,0,0,390.48,300.84Zm-28-89.64q33.3.36,43,34.56c3.24,11.76.48,22.44-8.4,32-9.84,10.68-22.2,15.6-37,15l.24-93.12a1018.26,1018.26,0,0,0-10.2,198.84l2.88-5.88c18.84,13.32,36.72,11.64,53.76-4.8q22.5-21.78,17.28-53.88a68,68,0,0,0-23.16-41.28c13.68-16.2,16.92-34.8,9.72-56q-9.9-29-39.48-38.28l-8.28,3.72-1.32,6.48Z" transform="translate(-150.04 -196.68)"/></svg>