<svg id="Layer_1" data-name="Layer 1" xmlns="http://www.w3.org/2000/svg" viewBox="0 0 567 572.16"><defs><style>.cls-1{fill-rule:evenodd;}</style></defs><path class="cls-1" d="M98.76,472.8c-7.32-3-15.84-3.36-25.32-1.08-10,2.4-16.8,7-20.28,13.56-3.24,6.24-5.4,11-6.36,14.52a47.28,47.28,0,0,0-1.56,13.56v8.16A37.33,37.33,0,0,0,48,534.12c4.92,10.92,16,16.44,33,16.44q29.34,0,40.68-18.36A39.33,39.33,0,0,0,127.56,511,29.51,29.51,0,0,0,126,505.2a95.63,95.63,0,0,0-4.08-11.28c-4.68-10.68-9.24-16-13.8-16A34.58,34.58,0,0,0,98.76,472.8Zm2-14.88a83.61,83.61,0,0,1,23,25.92c5.16,9.24,7.8,18.48,7.8,27.6a61.84,61.84,0,0,1-1.32,10.2,79.63,79.63,0,0,1-5.16,16.92c-6.6,15.36-16.32,23-29,23-28,0-45.36-7.8-52.44-23.28a36.63,36.63,0,0,1-3.24-16.44l.84-8.28c0-3.36.84-8.76,2.4-16.32,1.44-7.32,2.76-12,3.84-14.16A41.35,41.35,0,0,1,52,475.56a29.72,29.72,0,0,1,7.68-7.8c2.16-1.56,7.8-3.36,17-5.52,9.84-2.16,15.6-3.72,17.28-4.56Zm138,31.68v3.24H239a5.71,5.71,0,0,0,0-3.48Zm-26.52,31.56a38.25,38.25,0,0,0,1.08-7.8c0-2.88-2.16-9.84-6.36-20.76-4-10.08-6.12-15.36-6.6-16-14.4-3.24-25.92,3.48-34.68,20.4a89.6,89.6,0,0,0-7.2,19.32c-1.32,5.52-2,9.6-2,12.12a48,48,0,0,0,2.28,15.84c2.52,7.8,6.84,11.64,13.2,11.64,16.2,0,28-6.72,35.16-20.28A56.3,56.3,0,0,0,212.28,521.16Zm4.8-8.28a77.32,77.32,0,0,1-1.32,10.92,145.82,145.82,0,0,1-4.8,18.36C205,558.72,197,567,187.08,567c-15.48,0-25.32-3.24-29.76-9.72-2-3-3.36-7-4-12-.36-3.48-.6-9.12-.6-16.8a80.71,80.71,0,0,1,8-36.24q12.6-25.74,40.68-26.64c3.72,3.6,7.44,12.12,11.16,25.44C215.64,502.2,217.08,509.4,217.08,512.88Zm49.8-37.2a44,44,0,0,1-1.56,10.8A53.8,53.8,0,0,0,263.64,500c0,5.16.72,16.44,2.16,33.6S268,560.4,268,562.56c0,5.16-.48,9-1.56,11.76a32.24,32.24,0,0,1-5.28-10.44,35.93,35.93,0,0,1-2.28-11,8.46,8.46,0,0,1,.48-3.72q.54-.72,2.52-.72c1.08,0,1.44-1.2,1.08-3.48a31.78,31.78,0,0,1-.84-5.52L261,524.16c-.72-10.44-1.2-18-1.44-22.92q-7.38,23.22-11.16,33.84-6.84,19.26-13.68,33.84a13.31,13.31,0,0,1-1.68-4.8l-.24-4.68c0-5.88.72-15.72,2.28-29.4,1-9.12,2-18,3.12-26.64v-6.48c-3,7.32-7.56,19.92-13.68,38s-10.8,31.32-14.16,39.36a5.34,5.34,0,0,1-1.08-2.4,22.44,22.44,0,0,1-.24-3.24c0-3,4.2-18.36,12.72-46.08q13.32-43.2,20.76-61.44c1.08,3.24,1.68,8.64,1.68,16,0,7.08-.48,15.6-1.32,25.56-.84,9.24-1.92,17.4-3,24.24v15.72c3.48-8,7.8-20.16,12.84-36.6,5.28-17.4,9.48-29.76,12.6-37.2a13,13,0,0,1,1.32,3.36Zm-21.6-118c-.12,3.72-1.44,13.08-4,27.84,2.28-1.08,6-2.64,10.92-4.56a77.42,77.42,0,0,0,13.2-6.24c4.08-2.64,6.12-5.4,6.12-8.4,0-1.08-1.44-2.64-4.32-4.8a18,18,0,0,0-11.4-4.08Zm-8.16-4.08c0-3.36.6-5.76,1.92-7.32,17-1.08,28.2,1.56,33.36,7.8a13.43,13.43,0,0,1,3.12,7.32l.12,4.92a21.36,21.36,0,0,1-6.12,15.48c-4.8,4.92-13.8,10-27,15.36,3,4.92,8.28,16.56,16,34.68,7.8,18.6,11.64,29.16,11.64,31.8l-.12,2.88-.6,1.92.12.48c-.12.24-.84.36-1.92.36-.72,0-3.36-5.28-7.8-15.72l-9.12-22.2c-1.08-2.76-4.68-10.08-10.56-22l-2.28-4.8-1.32,6.6c-5.16,26.88-8.88,45.48-11.28,55.92h-1.56c-.36-3.24-.6-5.76-.6-7.32,0-8.28,3-28.8,8.88-61.68l1-4.92-.12-.24.36-1.44c2.4-13.08,4.32-23.28,5.88-30.36a5.33,5.33,0,0,1-1.56-2.52A22.34,22.34,0,0,1,237.12,353.64ZM152.64,257.4a90.41,90.41,0,0,1,2.76,20.28q0,31.86-16.92,55.92a61.41,61.41,0,0,1-18.6,18,42.63,42.63,0,0,1-22.68,6.72c-27.24,0-44.28-6.36-51.36-19.08a24.38,24.38,0,0,1-3.24-13.08l.84-6.24c0-17.4,1.68-33.12,5.16-46.92,4.68-18.84,12.24-32,22.68-39.48,31.32-22,54.48-22.92,69.72-2.76C146.16,237.6,150,246.48,152.64,257.4Zm-13.08-17.76c3,2,5.76,8.16,8.4,18.48,2.52,10,3.72,16.68,3.72,20.28,0,14.76-2.88,27.12-8.76,36.84q-12.6,21.06-44.64,31.68l-27.84.24C60.72,344.28,54,340,50.52,334.32c-2.28-3.6-3.36-8.4-3.36-14.4,0-21.36,4.08-40,12.12-55.92q15.66-30.6,47.52-34.44c2.28-1.56,6-2.28,11-2.28q12.42,0,18.72,7.56A21,21,0,0,1,139.56,239.64Zm28.92.36q0,40.5-7.68,110.16l-5.16,47.28c-1.56,15.24-2.4,26-2.4,32.4,0,5.76.12,9.48.48,11a15.2,15.2,0,0,0,7.08,9.84h21.12Q204.78,435.42,216,407c5.88-15,9.72-33.72,11.28-56.16.6-7.08,1-25.68,1.32-55.92.24-20.28,1.68-34.68,4.2-43.08V232.44l-.24-.48-1.2.6.12-2a10.39,10.39,0,0,0-1.92-6.24A42.07,42.07,0,0,1,233,220c2,1.32,3.24,5,3.6,11q.18,4.68,0,9.72a906.19,906.19,0,0,1-6.48,112.44Q216.66,462.06,181.68,462l-21.12-.24c-5.4-1.32-8.88-6-10.32-14.16q-.72-4.32-.72-18,0-8.82,7.2-94L166.8,218.88C167.88,223.2,168.48,230.28,168.48,240ZM49.56,27.6c.36,3.48.6,6.36.6,8.4,0,10.92-.12,19.92-.48,27.12A247.11,247.11,0,0,1,46.92,91.2V157Q41,189.72,39.24,247.08L37.56,292.2q-1.08,25.38-3.6,45v128c-1,10.32-2.28,28.68-4.08,55-1.56,24.72-2.4,38.52-2.4,41.28l-.12,3a1.89,1.89,0,0,0,.84,1.8c.84.84,4.56,2,10.92,3.72l56.52.48c5.16,2.64,13.68,4.44,25.68,5.28,6.6.48,15.72.72,27.12.72,6.12,0,10.2-1.8,12-5.28a22.69,22.69,0,0,0,5.28,1.68l2,4.2q2.52,4.86,2.52,6.48a16.78,16.78,0,0,1-.6,4.08c-.6,2-1.44,3.36-2.64,4h-18.6c-4.2-1.32-13.2-2.16-26.88-2.28q-18.9-.18-25.92-3.6l-57.36-.6Q24.06,581,21,578.28A5.07,5.07,0,0,1,19.08,575a37.88,37.88,0,0,1-.12-4.56c0-1.2,1.32-16.56,4-46.2l5.64-64.92V332c1.56-12.84,2.76-27.84,3.6-44.88l1.68-45.72c1.2-38.76,3.72-69,7.68-90.48V86.88c.6-4.92,1.56-16.44,2.64-34.68,1-14.76,2.28-25.56,3.84-32.4C48.6,20.64,49.2,23.28,49.56,27.6Zm130,23.28a4.09,4.09,0,0,1-2.28-1.56l-2.76-2.88q-4.86-4-16.56-4-51.3,0-72.36,46.32A130.27,130.27,0,0,0,79.08,107l4.08-1L117.84,105l18.36-.6v-.48l22,.24,1.2,2.28a9.69,9.69,0,0,1,.36,3,7.41,7.41,0,0,1-1.8,5.28l-11,.36-11.76.72-8.88.36-9.48.72-33.84.6-4.2.72-2.16.24-.72,4.2a133.42,133.42,0,0,0-1.56,19.68q0,16,4.68,28.44c6.48,17.28,18.48,25.92,36.12,25.92,23.16,0,40.8-4.08,53-12.24a79.76,79.76,0,0,0,16.8-15.6c3.84-4.56,9.36-12,16.56-22.2l1.08-.24a11.26,11.26,0,0,1,1.56,6.48c0,1.56-1.8,5-5.28,10.56A121.29,121.29,0,0,1,184,182.16q-25.2,25.74-53.16,25.68-42.66,0-55.68-31.68a64.78,64.78,0,0,1-4.8-22.32l.12-11.4a179.73,179.73,0,0,1,2.16-28.68v-.24a9.88,9.88,0,0,1,.36-3.24l.48-1q4.14-22,14.4-38.52c9.48-15.48,22.2-26.52,38-33.24,13.32-5.52,26-7.2,38.16-5.16q7.92,1.44,12.6,4.68c3.24,2.28,4.8,4.92,4.8,7.92A8.9,8.9,0,0,1,179.52,50.88ZM365.4,367c0,2.16-.84,4.56-2.64,7.32h-1.68c.84-3.72,0-7.44-2.28-11.16-2.52-4.2-6.36-7.08-11.52-8.88Q319.92,346.86,302.4,427q-2.34,10.62-4.32,22.32c3.24-.84,9.6-1.44,19-1.92l1.92-.24H332.4l1.2,2.28a7.5,7.5,0,0,1,.48,3,7,7,0,0,1-1.92,5.28L311.76,459l-10,.84a10.51,10.51,0,0,1-5.28-1.08c-1.44,9.24-2.76,19-3.84,29-2,17.64-3,30.72-3,39.12l-.24,6.24a50.34,50.34,0,0,0,1.32,11.76c2.88,10.92,9.84,16.44,20.76,16.44,7.08,0,14.4-4.92,22-14.88a65.65,65.65,0,0,0,7.08-11.28c1.8-3.48,2.64-6,2.64-7.44A32.62,32.62,0,0,0,341,515.88a27,27,0,0,1-2.16-9.6l.12-2.16.12-1.56.6-.48L340.8,501l5.88,15.24q.36,1.26.36,11.52c0,8.88-4.2,18.6-12.72,29.28a59.54,59.54,0,0,1-10.92,11q-5.94,4.32-9.72,4.32c-14.28,0-23.16-7-26.64-21a59.53,59.53,0,0,1-1.56-15.24l.36-8.4c0-12.6,1.08-28.2,3.24-47a554.73,554.73,0,0,1,9.84-59.52q16.2-72.9,39.72-78.12c9.48.36,16.68,3.72,21.48,9.84C363.6,357.36,365.4,362,365.4,367Zm-2.52-337.2a12.08,12.08,0,0,1,.36,3.24q0,3.42-26.88,70.2Q303.78,184,294.84,208.68c-7.92-26-13.8-45.6-17.52-58.92-6.6-23.16-11.52-43-14.76-59.64q-5.4,18.9-14.4,56.88-8.82,34.2-19.68,57.36c-2.64-11.16-5.28-25.2-7.8-41.88l-6.24-42.6c-2.76-17.4-4.56-31.44-5.4-42.24q-.72-7.74-5.4-22.32Q199.32,42,199.32,35.88a19.34,19.34,0,0,1,.24-3.12,6,6,0,0,1,1.08-2.16c6.84,20.28,12.6,46.44,17.28,78.72l5.28,40.2c2.16,16.08,4.08,29.16,5.88,39.36v.24a439.17,439.17,0,0,0,18.72-56.88c3.48-13.8,7.56-33.12,12.36-58.08l.48-.48,1.2-1.2q7.74,22.5,17.28,60.6,12.6,50.22,15.72,61c3.72-10,13.44-35.64,29.4-76.92q18.54-48.06,29-78.48l.24-.48a40.07,40.07,0,0,0-5.16,2l-6.48,2.88a6.42,6.42,0,0,1-1.44-2,6.8,6.8,0,0,1-.48-3c0-3.24.84-5.4,2.4-6.6,3-2.4,9.36-3.72,19.32-4.08ZM531.12,132a276,276,0,0,0-23.64-38.16A102.36,102.36,0,0,0,489.84,75.6a126.17,126.17,0,0,0-31.32-18,272.19,272.19,0,0,0-30.36-10.2L403.2,41c-8-2-13.56-3.84-16.68-5.52a12.12,12.12,0,0,1-4.08-2.76v1.92q0-1.08-2.16,11.52c-1.44,8.28-2.16,13.92-2.16,16.8a40.48,40.48,0,0,0,1.08,9.84v47q2,32.22,5.28,73.92c1.56,22.08,2.28,44.52,2.28,67.32q0,43.74-9.72,174.6-8.1,110-13.8,138.24l1,.48c2.28,1.08,6.48,1.68,12.6,2l31.08-.24q63.54-22.68,99.12-61.68c8.28-9,16.68-20.16,25.44-33.48,9.12-14.52,16.08-25.08,20.76-31.8q16.2-22.86,22.8-63.6c3-18.84,4.56-41.16,4.56-67q0-42.3-5.88-74a291.6,291.6,0,0,0-25.56-76.08Zm23.4,28.44a325,325,0,0,1,25,79.56Q586,275.64,586,318.36a484.93,484.93,0,0,1-4.92,72q-6.84,45.72-22.68,67.08c-3,4-10.08,14.88-21.48,32.64-9,14.28-17.52,26-25.44,35Q474.9,566.7,407.88,592L376,591.6c-10-1.44-16.2-3.36-18.72-5.88a5.23,5.23,0,0,1-1.8-3.6V578l.12-3.36L354.48,572a20.5,20.5,0,0,0,2.52-7.92l.36-5.64,1.08,2.64.24.24q3.78-30.06,12.48-137.76,10.26-124.38,10.2-162.6c0-21.48-.72-43.32-2.28-65.52L373.8,125V77.88c-.72-3.24-1.08-8.28-1.08-15.36a94,94,0,0,1,4.92-29.88c1.08-3.24,1.92-5.16,2.76-5.76.36-3,2.52-4.68,6.24-5s9.24.48,17,2.64q14.4,4,56.4,18.6a97,97,0,0,1,32.64,18.6c4.92,4.2,10.92,10.92,18.24,20q13,16,25.2,39.6C538.92,126.72,545,139.68,554.52,160.44Z" transform="translate(-18.96 -19.8)"/></svg>