<svg id="Layer_1" data-name="Layer 1" xmlns="http://www.w3.org/2000/svg" viewBox="0 0 300.68 209.04"><defs><style>.cls-1{fill-rule:evenodd;}</style></defs><path class="cls-1" d="M157.2,196.68a1261.38,1261.38,0,0,0-11,158.28L146,361.2v6l.12,6c.12,5.76.6,11.52,1.2,17.4a32.55,32.55,0,0,0,2.52,10.92l2.52-5.88a245.6,245.6,0,0,0,79-1.2,6.14,6.14,0,0,0,2.16-4.56,9.19,9.19,0,0,0-.84-4.44l-1.2-2.64L154,387q-1.08-88.56,5.16-179.76l1.2-1.44-.72-2.64ZM321,202.56l.48,1.44,4.8,3,5.4,9c-6.36,7.68-10.2,15.72-11.4,24.24,16-9.36,19.8-22,11.28-37.8a25.75,25.75,0,0,0-4.2-6l-2.4-.72Q319.38,195.72,321,202.56Zm-25.68,6-4.68,128.28a290.54,290.54,0,0,1-2.88,32.28c-1.8,12.12-.48,22.68,3.84,31.8a634,634,0,0,0,7.2-75.36c1.56-43.08,1.56-85.92.12-128.28C296.64,200.16,295.44,203.88,295.32,208.56Zm82.44-.72q42.66-1.44,61.32,35a16.3,16.3,0,0,1,1.08,13c-9.72,30.12-31.8,44.76-66,43.68l-1.32-.84c.84-30.6,1.44-61,1.56-91.32Zm-3.36-9-.72-.72-1.08-.84c-1.68,14.76-3,30.48-4,47q-3.42,64.08-7.2,128.16c-.72,12,.36,22.8,3.24,32.28a2.05,2.05,0,0,0,2-2.16c2.52-25.2,4.32-50.64,5.16-76.2l.48-11.52c23.16,2.76,43.08-4.92,60-22.8,13.32-14.28,17.4-30.72,12.12-49.56-7.8-27.72-26.52-42.6-55.92-44.76a21.77,21.77,0,0,0-14.16,2.16Z" transform="translate(-146.04 -195.72)"/></svg>