<svg id="Layer_1" data-name="Layer 1" xmlns="http://www.w3.org/2000/svg" viewBox="0 0 311.07 212.88"><defs><style>.cls-1{fill-rule:evenodd;}</style></defs><path class="cls-1" d="M151.32,214.08q-.18,64.62-2.28,129-.54,12.24-2.16,24.12c-1.32,10-.72,18.72,1.92,26.16l.36,2.76.12.84a3,3,0,0,0,1.68,2.4c23.4,2.76,46.32,4.56,69,5.4a4.83,4.83,0,0,0,1.08-2.4l.48-3.24v-.84l-.24-3.24-.24-.84a4.83,4.83,0,0,0-1.08-2.4,1.93,1.93,0,0,0-.84-.48,425.65,425.65,0,0,0-65.4-5.52l-.12.24-.84.24c2.4-21.72,3.84-43.8,4.44-66.24q1.44-65-.84-128.16C153.12,198,151.44,205.32,151.32,214.08ZM303,210a39.82,39.82,0,0,1,19.8,2.64l2.4,1.08-5.4,5.64,6.84-1.92q37.26,41.94,27.72,97.68a113,113,0,0,1-10.68,32.4A60.15,60.15,0,0,1,330,365.28a55.24,55.24,0,0,1-22.8,12.12c-21.24,5.52-35.64-1.8-43-22a174.36,174.36,0,0,1-7.56-94.68,74.74,74.74,0,0,1,17.52-35.88,41.87,41.87,0,0,1,21.12-13Zm-24.24-3.6C259.2,227,249,251.76,248.4,280.56a120.49,120.49,0,0,1-2,19.92Q235.74,359,279.24,395c21.24,4.2,39.84-.72,56-14.52a41.23,41.23,0,0,0,8.28-10.08q32.22-58.86,12.72-124-8.28-27.72-27.84-46.56l-1,1-.72.48-1,.24-1.44-.72A71,71,0,0,0,295.44,197,31.08,31.08,0,0,0,278.76,206.4Zm100.56,2.16a394,394,0,0,1,10.32,42.24c7.68,41.64,13.56,83.64,17.64,126.24,1,9.48,4,16.68,8.88,21.72l.84-1.32.48.84A57.93,57.93,0,0,0,423.6,383Q438.9,321.3,451.92,259a243.67,243.67,0,0,0,5-62.76q-11.7,53.46-22.44,109.2a376.92,376.92,0,0,1-17.64,61.8l-.24.6L398.16,257.64a313.45,313.45,0,0,0-16.92-62.28,2.31,2.31,0,0,0-2.52,2.16A22.93,22.93,0,0,0,379.32,208.56Z" transform="translate(-146.2 -191.88)"/></svg>