<svg id="Layer_1" data-name="Layer 1" xmlns="http://www.w3.org/2000/svg" xmlns:xlink="http://www.w3.org/1999/xlink" viewBox="0 0 593.18 366"><defs><style>.cls-1{fill:none;}.cls-2{clip-path:url(#clip-path);}.cls-3{fill-rule:evenodd;}</style><clipPath id="clip-path" transform="translate(5.33 -102.6)"><rect class="cls-1" y="102.6" width="590.04" height="366.12"/></clipPath></defs><g class="cls-2"><path class="cls-3" d="M-3.24,152.4H-3C-6,156.36-6.12,156.36-3.24,152.4ZM93,102.72a505.64,505.64,0,0,0-7.44,81.6l-1.68,129-1.8,123L82,438.84v2.88A7.09,7.09,0,0,0,83,444.6c31.08,4.2,61.68,7.92,92,11a9.08,9.08,0,0,0,2.4-4.92l.24-1.56v-4l-.24-1.68a14.51,14.51,0,0,0-1.92-4.92,4.3,4.3,0,0,0-1.32-.48,647.28,647.28,0,0,1-72-7.32h-.6l-13.8.72c1.32-13,2.16-26,2.4-39.24q1.62-64.26,1.56-129Q92,215,95,166.8a356.48,356.48,0,0,0-1.44-64.2Zm204.12,39.6a187.37,187.37,0,0,1,31.56,81.84,359.66,359.66,0,0,1-5.4,127.2C317.4,377.88,303,398,280,411.6q-26.64,15.66-53.76,5.4l-2.64-2.88-3.84-4.8-1.08-1.56a133.64,133.64,0,0,1-12.6-38.4,364.58,364.58,0,0,1,.72-127.08,289.23,289.23,0,0,1,19.08-63.48c10.92-25.32,29.52-41.16,55.56-47.52a35.63,35.63,0,0,1,8.88,3.12c1.56.72,1.92,1.68,1.08,2.76l-1.32,1.2a11.16,11.16,0,0,1,2.76,2.52,35.9,35.9,0,0,1,3.84,1A.94.94,0,0,1,297.12,142.32Zm2.16-14.88-1.8,1.44-.36.24a27.92,27.92,0,0,0-4.68-4.56l-6.24-5.28a6,6,0,0,1-2.88-1.08c-2.28-1.56-5.16-1.68-8.4-.48a45.71,45.71,0,0,0-23,13.68q-39.06,41.76-49.68,98.88a477.13,477.13,0,0,0-6,128.16,147.15,147.15,0,0,0,18.12,59.16q19.8,35.46,59.28,16.32c30.84-15,49.8-39.36,57.12-73.2a436.9,436.9,0,0,0,8.16-128.16A215.2,215.2,0,0,0,301.44,127.2Zm54,243.24,11-42,8.52,39.24Zm12.24-71.52-.24-2.52-.84.12C356.76,324,349.08,351.84,341.28,380c-2.76,9.84-5.88,19.44-9.48,28.68-6.36,16.44-8.28,32.4-5.76,47.76a317.9,317.9,0,0,0,19.44-55.8l4.44-17.4A130.46,130.46,0,0,1,375.48,382q6.3,35.1,9.48,70.68a3.75,3.75,0,0,0,3.6,1.92,2.55,2.55,0,0,0,1.92-2.16A120.83,120.83,0,0,0,390,423q-8.82-63.72-23.64-125.64ZM422,128.4l.48,2.4c-2.28,35.88-3.6,72.12-4.2,109-.72,43.08-1.2,86-1.44,129.12a579.58,579.58,0,0,1-4.32,64.68c-1.56,12.48.12,23.28,5.16,32.4a2.85,2.85,0,0,0,1.08-1.44,904.54,904.54,0,0,0,6.12-114.36c-.36-43.08-.24-86.16.6-129.12.36-21,1.44-41.76,3.12-62.4q10.62,47.52,24.48,94.32Q471.3,314.7,486,376.8q7.38,30.78,13.08,62.16c2.16,11.88,6.24,21.72,12.36,29.64a4,4,0,0,0,.84-1.56c.24-4.68.36-9.24.24-13.92a5.44,5.44,0,0,0,1.44-3.48q2.7-33.3,3.24-67.32c.84-42.84,1-85.92.36-129q-.9-65.34,1.08-129.12l-.48.12-3.48,4.8a249.34,249.34,0,0,0-4.56,49.44c.24,43.08,0,86-.72,129.12l-2.28,115.44q-13.5-48.06-25.68-96.48-9.9-39.24-20.88-77.88-17.28-61.2-33.36-122.88l-.6-.84-1.8-1.68C422.4,124,421.44,125.64,422,128.4Zm148-4.68-2.88-.36-11,6q-34.92,66.24-26,142.08a80.44,80.44,0,0,0,14.76,38.64,9.64,9.64,0,0,0,7,4,27.5,27.5,0,0,0,11.64-1.32A45.88,45.88,0,0,0,580.08,303q12.06-11.34,5.4-27l-5.64,4.56c-8.4,15-19.92,18-34.56,9.24a10.88,10.88,0,0,1-5.4-8.88,319.07,319.07,0,0,1-1.08-56.64l27.48-1.56a11.22,11.22,0,0,0,.36-12.72,13,13,0,0,0-2.76-3l-24,2.88q-3.78-42.66,25.44-66.24a18.93,18.93,0,0,1,12.36-4.32l7.68,7.32,2-.24C589.2,133.08,583.44,125.52,570,123.72Z" transform="translate(5.33 -102.6)"/></g></svg>