<svg id="Layer_1" data-name="Layer 1" xmlns="http://www.w3.org/2000/svg" viewBox="0 0 305.55 214.84"><defs><style>.cls-1{fill-rule:evenodd;}</style></defs><path class="cls-1" d="M153.12,207.6c1.8,43,2.76,85.92,2.64,129a222.2,222.2,0,0,1-2.28,32.28c-1.56,12.12-.6,22.68,2.88,31.8l1.08-1.08,60.36-2.4a15.43,15.43,0,0,0,1.8-6.48,9.64,9.64,0,0,0-3.72-8.16l-7-.24c-16.68.6-33.24,1.68-49.68,3.36,2-21.24,3-42.84,3.12-64.56q.18-65-5.16-128.16c-.48-.12-.84,0-1,.36A26.94,26.94,0,0,0,153.12,207.6Zm166.68,2.52a10.5,10.5,0,0,1,5.4,4.44q34.74,56.7,16.08,121.44-12.6,43.56-60.36,41.16A7.43,7.43,0,0,1,276,375q-23.58-22.86-24.48-57.36a308.82,308.82,0,0,1,4.56-60.24q7.56-42.84,49.08-48.72A27.47,27.47,0,0,1,319.8,210.12Zm9.24-5.76c-9.48-7.8-20.76-10.68-33.6-8.4q-28.44,8.46-38.28,37.2a260.52,260.52,0,0,0-11.88,51q-7,53.82,19.44,100.68c3.24,5.64,8.16,8.64,14.88,9.24q48.06,4.14,64.56-38.76a184.45,184.45,0,0,0,12-53.52q3.78-53.82-23.4-98.28l-2.4,1-.84.36Zm68.76-8.76h-1.68q-36.9,35.46-12.36,87.48a144.53,144.53,0,0,1,14,57.12A40.45,40.45,0,0,1,394.08,359a33.07,33.07,0,0,1-14.4,15.6,30.57,30.57,0,0,1-11.4,3.84l-2.52-1.32q-7.92,9.18.36,18.72c18.6-.72,30.6-11.4,36.12-32A98.19,98.19,0,0,0,401,309.6a206.67,206.67,0,0,0-12.24-31.32,90.42,90.42,0,0,1-9.24-36.12c-.84-21.6,8.28-32.76,27.36-33.36l2.88-.48C410,200.16,406.08,196,397.8,195.6Zm21.12,9.24-1.8,37.2q-3.42,64.08-5,129.12c-.24,12.12,1.44,22.68,5.16,31.68q3.06-39.42,4.32-80.28l.48-19.44,27.36,1.32-2.76,71.64c-.48,12.12,1.2,22.68,5.16,31.68a55.59,55.59,0,0,0,4-21.12c-.12-20.76.36-41.52,1.2-62.4q2.7-64.8,0-128.28a322.21,322.21,0,0,0-5.52,51L450,290.52l-4.08-.72-23.64,1.8q.9-49.14.12-97.32C420.24,196.92,419,200.4,418.92,204.84Z" transform="translate(-152.76 -192.91)"/></svg>