<svg id="Layer_1" data-name="Layer 1" xmlns="http://www.w3.org/2000/svg" viewBox="0 0 447.89 340.94"><defs><style>.cls-1{fill-rule:evenodd;}</style></defs><path class="cls-1" d="M83,97.44q-5.4,63.9-7.08,128.28-1.62,64.62-2.88,129a357.32,357.32,0,0,1-5.28,55.8q-2.7,14.94,4.68,23.76l.36-.48L73,434q64.62-2.34,128.88-7.68l.72-.6c5-7.08,4.56-13.08-1.32-18q-61.74,5.4-123.72,13.32l.36-3.6,3.24-128.16C82.2,246.24,84,203.16,86.76,160.2A335,335,0,0,0,85,96.12,1.41,1.41,0,0,0,83,97.44ZM378.72,328.08c-8.52,32.76-26.28,58.8-53.16,77.88a62.17,62.17,0,0,1-26.16,10.92c-27.48,4.68-48.72-4.32-63.48-27.24a65.58,65.58,0,0,1-7.68-19,432.83,432.83,0,0,1-10.32-109.32A293.62,293.62,0,0,1,231.24,182q16.56-53.46,69.12-70.56a35.9,35.9,0,0,1,18.48,2.64,44,44,0,0,1,15.48,11.16A185.22,185.22,0,0,1,376.68,200Q395.4,263.94,378.72,328.08Zm14.88-99.36q-4.14-51.3-35.4-90.72c-3-4.68-6-9.48-8.88-14.4-5.76-9.48-12.84-16.32-21.12-20.52l-.36.24a41.14,41.14,0,0,0-27-6.72,25.78,25.78,0,0,1-5.76,3q-55.26,22-71.76,79a274.48,274.48,0,0,0-9.72,54.36,621.88,621.88,0,0,0,2.76,125,101.16,101.16,0,0,0,22.2,52.56q35.46,43.38,84,15.6A79.43,79.43,0,0,0,340.68,412q47.16-50.22,52.8-118.92A396.92,396.92,0,0,0,393.6,228.72ZM510.72,97.92a26.06,26.06,0,0,1-4.8,21.6q-13.86,79.74-35.16,158.16-2.34-52.92-22.92-95.4l-20,80.52a555.34,555.34,0,0,0-28.2-164Q411.48,183,419.28,268c.24,2.76.6,5.52,1.08,8.16s1.08,5.28,1.8,7.8,1.56,4.8,2.4,7.08l1.32,3.36A509,509,0,0,0,450,212.16a364.17,364.17,0,0,0,20.76,89,716.93,716.93,0,0,0,34.08-126.6c1.8-10.44,3.84-20.76,6.36-31.08l2.4-12.24a101.59,101.59,0,0,0,1.2-12,77,77,0,0,0-.12-11.76,89.68,89.68,0,0,0-1.44-11.4h-.12Z" transform="translate(-67.08 -96.06)"/></svg>