<svg id="Layer_1" data-name="Layer 1" xmlns="http://www.w3.org/2000/svg" viewBox="0 0 306.24 208.12"><defs><style>.cls-1{fill-rule:evenodd;}</style></defs><path class="cls-1" d="M292.56,319.44l2.88,9.48-7.2-1.56,3.12-7.08ZM291.36,301l.36,7.32L278.4,326.4l-2.88.6-1.32,4.68c-4.2,3.24-6.24,7.32-6,12.36l.24,1.32.84,2.52c4.44-1.08,8.52-4.44,12.36-10.2l16.08-.24a47.4,47.4,0,0,0,11,18.6l2,1.8a244.12,244.12,0,0,0-16.56-53.16Zm19-81.36,3.24.36c22.2,27.24,29.52,58.32,22.2,93.48a142.57,142.57,0,0,1-12.12,34.8,57.26,57.26,0,0,1-12.12,16.32,30.09,30.09,0,0,1-19,8.76c-27.24,2.88-42-10.2-44-39.36a226.05,226.05,0,0,1,18.84-108.84l6.72-8,5.16-3.36c11-2.28,21.12-.48,30.36,5.52Zm-152.4-23.88a442.88,442.88,0,0,0-3.84,73c1.08,43.08,1,85.92-.6,128.28.36,1.8,1.56,2.64,3.48,2.64l.12-.72c18.84.84,37.8,1.08,56.88.48a7.71,7.71,0,0,0,2.28-4.08,14.76,14.76,0,0,0-1.44-9.6l-1.08-1.8h-1.56l-18.36-.72A109,109,0,0,0,159,388a343,343,0,0,0,3.48-64.2q-2.16-64.62-4-128.16Zm113.4,7.2a260.73,260.73,0,0,0-19,41.64,198.58,198.58,0,0,0-9.36,39,234.21,234.21,0,0,0-2.4,41,125.23,125.23,0,0,0,8.16,41.52q9.18,24.12,33.48,25.2c16.2,1.2,28.92-4.92,38.28-18.48a153.87,153.87,0,0,0,19.56-39.24,150,150,0,0,0,7.68-46,127.23,127.23,0,0,0-7-42.84,125.44,125.44,0,0,0-21-38.28l-40.56-8.4ZM453.72,356l-.12.72-.36-.72ZM413,198.24c-19.32,16.2-32.28,37-39.12,62.28A227.17,227.17,0,0,0,375,384a15.7,15.7,0,0,0,7.68,10c23.88,13.8,46.08,10.68,66.36-9.36l.72-.72a39.85,39.85,0,0,0,4.2,16l.6-.84a148.32,148.32,0,0,0,3.84-58.32A62.33,62.33,0,0,0,434.52,348l-.24.84a9,9,0,0,0,1.32,8l15.36-1a4.9,4.9,0,0,0-1.8,2.52,8.6,8.6,0,0,0-.48,4.92l.24,1.68q-21.78,23.22-53.28,18.72c-5.16-.84-9-3.36-11.4-7.8a101,101,0,0,1-12.48-53.52,211.18,211.18,0,0,1,26.76-95.64,28.32,28.32,0,0,1,10.68-10.92C428,205.2,441.72,209,450.48,227.52l.36-.84q3.42-31.86-32-32.4A41.21,41.21,0,0,0,413,198.24Z" transform="translate(-153.48 -194.28)"/></svg>