<svg id="Layer_1" data-name="Layer 1" xmlns="http://www.w3.org/2000/svg" viewBox="0 0 525.97 383.64"><defs><style>.cls-1{fill-rule:evenodd;}</style></defs><path class="cls-1" d="M287.4,302.28a1.08,1.08,0,0,0-.72.72L319.2,143l17.16,153.48-5.16.6a126.36,126.36,0,0,0-27.72,1.32A84.68,84.68,0,0,0,287.4,302.28ZM50.4,153.72q-1.08,64.62-2.76,129l-1.56,65Q44.82,412,46,475.92l98.76,6a11.79,11.79,0,0,0,.48-13.08c-32.52-2-64.08-4.68-94.92-7.8L52,408.24q.36-16.2,0-32.4c-1-43.08-.36-86.16,1.68-129,2.16-43.08,2.76-85.92,1.8-128.28A134.35,134.35,0,0,0,50.4,153.72ZM323.88,124.2A424.73,424.73,0,0,0,297,220q-10.26,63.18-25.56,125.16c-3.24,13-6.84,25.8-10.8,38.4a265.45,265.45,0,0,0-12,62.88c.84,0,1.2-.12,1.32-.36a555.72,555.72,0,0,0,20.88-71.88q7.2-32.58,13.92-65.28a473.24,473.24,0,0,1,47.52-3.6,14.15,14.15,0,0,0,4.56-5.76v-1.08c2.76,20.16,6.12,40.32,10,60.36a382,382,0,0,1,7,63c.36,12.12,3,22.44,7.68,31.08a5.74,5.74,0,0,0,2.52-4.56,68.54,68.54,0,0,0-.48-13.08c-1.92-18.12-4.44-36.12-7.44-54q-10.62-63.18-18-126.84T322.92,128.28Zm-132.6,15.72q36.9,13.14,49.2,52.32A260.51,260.51,0,0,1,247.68,319c-1.08,5.52-1.8,11-2.4,16.44q-4.86,45.9-32,82.08a53.34,53.34,0,0,1-13.8,12.72q-36.9,23.76-70.08-7.32A37.87,37.87,0,0,1,119.88,409,230.12,230.12,0,0,1,105,297.72,527.28,527.28,0,0,1,115.8,234q15.3-67.32,73.08-102H190l.36,3.84A11.93,11.93,0,0,0,191.28,139.92Zm-1.92-14c-15,4.68-27.48,13.8-37.2,27.24A269.54,269.54,0,0,0,103.32,271.8a334.89,334.89,0,0,0,4.56,127.44c5.64,24.6,20.88,41.88,45.48,52Q178,461.1,198,445.08a119,119,0,0,0,29.76-35.28,176.41,176.41,0,0,0,18.6-48.36A436.29,436.29,0,0,0,257,267.12a340.53,340.53,0,0,0-5.76-64.44c-6.36-34-24.12-59-53.28-75.48l-2.16-.48Zm246,5a345.11,345.11,0,0,0-15.72,57.72q-11.88,63.18-25.8,126.12Q380,376.86,367,439.08A380.26,380.26,0,0,0,359,502l1.32-.36A1118.62,1118.62,0,0,0,386,381.12q9.9-63,23.64-125.4c8.76-40.32,17-80,24.6-119.28A471.29,471.29,0,0,0,438.6,196c5.64,42.36,10.44,85,14.28,127.56s8.88,84.36,15.24,125.64a28.82,28.82,0,0,0,3-6.12l.72,2.88.48-.6a36.28,36.28,0,0,0,2.76-8.64v.72c-1.2,3.12-1.2,5.64-.12,7.44l-.12,1.56,1.68-.6v.36l.36.24.36-1c2.16-1.56,3.6-4.08,4.32-7.8,4.56-23.88,8.52-48,12-72.12q6.66-47.7,11.88-95.4c3.72-34.2,8.16-68.28,13.56-102,7.32,40.68,14,81.72,20,122.88,6.12,41.88,12,83.76,17.4,125.88a587.72,587.72,0,0,1,4.8,63.36q.54,14.94,8.28,22A76.43,76.43,0,0,0,570.84,476q-4.68-38.34-9.84-76.32Q552.18,336.18,541.92,273q-9.54-59.58-20.76-118.32l1.92-11a16.76,16.76,0,0,0-3.24,4l-.12-.12v.36a20.81,20.81,0,0,0-2.88,7.92Q509.1,206,502.44,256.32q-8.28,63.9-19.2,126.72c-2.64,15-4.8,29.88-6.48,44.52l-.24-.84-.36.12a17.81,17.81,0,0,1-3.12,5.52,21.45,21.45,0,0,0-2.28-8.4c-1.56-11.4-3-23.28-4.2-35.88-4-42.6-8.16-85.2-12.84-127.56s-11-83.88-19.32-124.92Z" transform="translate(-45.43 -118.56)"/></svg>