<svg id="Layer_1" data-name="Layer 1" xmlns="http://www.w3.org/2000/svg" xmlns:xlink="http://www.w3.org/1999/xlink" viewBox="0 0 560.76 588.25"><defs><style>.cls-1{fill:none;}.cls-2{clip-path:url(#clip-path);}.cls-3{fill-rule:evenodd;}</style><clipPath id="clip-path" transform="translate(-25.92 -1.19)"><rect class="cls-1" x="25.92" width="560.88" height="589.56"/></clipPath></defs><g class="cls-2"><path class="cls-3" d="M37.2,21.48l.12,13c-.72,26.76-1,46.68-.84,59.76v46.2Q35.94,152.64,35,175l-.72,22.56.12,18.36c.24,7.8,1,13.68,2,17.76v60.12c.36,4.08.72,10.2,1.08,18.24s.72,14.28,1.08,18.24V409L39,431.4c0,16.8-.72,34.44-2.28,52.8-2.28,28.56-3.72,47.88-4.2,58v22.68l3.12-1a8.5,8.5,0,0,1,3.36-1,136.41,136.41,0,0,1,18,1.68L73.56,567l20.76,1.92,20.4,2.4c7-.6,11.52.48,13.8,3a7.63,7.63,0,0,1,1.32,4.8v4.08a2,2,0,0,1-2.16,1.92l-7.8-.72-6.24-1.2-16.92-1.56L86.64,580l-14.16-1.08L60,577.32l-10.2-1.68a105.64,105.64,0,0,0-15.12,1.92l-3.84,1.08c-2.52,0-4-1.2-4.56-3.72l-.36-4.08c0-4.44.48-12.48,1.44-23.88l3.12-37.8q4.5-59.22,4.44-114.48-1.08-63.36-2.16-95V238.8c-.6-2.52-1.08-8.76-1.56-18.72-.36-8.76-.6-16-.6-21.84L31.32,174c.48-16.08,1-28.56,1.44-37.32V93.6l.36-21.24c.12-8.28.48-15.6,1-21.72a59.4,59.4,0,0,0-1-10.8L31.32,28Q29.7,13.74,34.92,8.88A46.51,46.51,0,0,1,37.2,21.48Zm186.72,5.4a72.58,72.58,0,0,0-10.68-6.48c-11.4-5.16-22.68-4.2-33.6,2.64a176.55,176.55,0,0,0-20.28,16.8c-7,6.6-12.24,12.36-15.72,17.52Q122.76,88.14,111.48,128q-7.92,27.54-11.88,69.12Q96.36,231.9,96.36,269q0,48.24,2.4,73.68c2.28,22.92,7.08,49.32,14.4,79Q126.48,475.5,147,518q25.38,52,47.28,52,23.22,0,42.12-36.6c5-9.72,10.32-23.4,15.84-40.8l12-39c4.32-14.28,7.92-27.24,10.92-38.88,1.56-6.24,4.92-29.64,9.84-70.32q8.1-65.52,8-85.2c0-5.88-1.92-25.2-5.76-58.2-3.48-29.88-6-49.44-7.44-58.92-1.08-7.32-3.48-17-7.2-29.4-4-12.84-8.28-25.2-13.08-37q-18.18-45.36-30.24-45.36C228.84,30.36,227,29.16,223.92,26.88Zm28,14.88c3.6,6.6,5.64,11.28,6.24,14.28A141.52,141.52,0,0,1,274,89.16q3.42,10.62,9.36,34.2c1.8,7.56,4.56,28,8.4,61.32q6.3,54,6.24,74.16,0,20.88-8.28,89.52-7.74,63.9-10.2,73.56c-11.64,45.6-23.16,81.12-34.32,106.44-16.44,36.84-33.12,55.2-50.28,55.2q-20.16,0-39.12-34.08a258.42,258.42,0,0,1-12-25.56l-6-15.84-16.32-39c-6.6-16-10.8-29.52-12.6-40.56-6.36-36.6-10.68-64-12.72-82.2A666,666,0,0,1,92,269.76q0-48.6,3.12-83c2.76-29.16,7.44-54.72,14.16-76.44q23.94-78.3,87.36-107C209.16-2.4,222.84,3.6,237.6,21A129.49,129.49,0,0,1,251.88,41.76Zm278.4,381.72.36,7.2q0,2.7-5.4,26.28c7.8-2.4,13.68-4.92,17.88-7.56,5.88-3.72,8.88-8.16,8.88-13.32,0-3.84-.6-6.48-1.92-8C547.08,424.32,540.48,422.76,530.28,423.48Zm-1.56-5c12.12-2.52,20-1,23.52,4.68a17.57,17.57,0,0,1,2,7.2l-.12,5.76a19.36,19.36,0,0,1-1.92,7.56,44.5,44.5,0,0,1-5.64,9.84,33.07,33.07,0,0,1-9.48,8.52c3.72,4.56,8,11.4,13.08,20.4C557.4,495.24,561,502.68,561,505l-.12,2.16-.24,1.44-.36.36-.12.48c-4-6-8.76-14.4-14.52-25.32l-11-20.76a23.66,23.66,0,0,1-9.6,1.92h-1.68c-4.68,19.56-8.28,33.12-10.8,40.92a4.19,4.19,0,0,1-1.56-1.8,8.37,8.37,0,0,1-.36-2.88c0-1,2.88-13.08,8.52-36.48h-.6v-4.92l.24-1.32,2-.48c4.8-20.16,7.32-33.48,7.68-39.84ZM361.08,381.12a19.24,19.24,0,0,0-15-3.84A33,33,0,0,1,335.52,379l-8-.12-1.08,15.24-1.68,23.16a35.14,35.14,0,0,1,4.56-2L344.64,410Q367,401.94,367,389.16C367,386.64,365,383.88,361.08,381.12ZM384,423.84a13.27,13.27,0,0,1,3-3.72c2.28,1.68,3.48,3.48,3.48,5.28q0,6.3-13.08,68.88-14,67.14-22.32,95.16c-6.12-13.92-11.52-30.24-16.44-48.84-3.24-12.72-6.84-29-10.68-49.08l-.48-.48q-3.06,15.3-8.28,47.88c-3.72,19.32-8.16,35-13.44,47.28l-11.28-88.44q-8.46-66.24-8.4-73.44a9.34,9.34,0,0,1,.6-3.36,2.28,2.28,0,0,1,1.56-1.44Q294.9,448.5,300,493l8.16,74c3.6-14,7.08-31.44,10.32-52.2l7.92-53.64c1.92,7.2,6.24,25.32,13,54.48,5.16,22.92,10.32,41.76,15.36,56.52q6.48-24.3,18.12-85.32,11-56.88,10.92-61.56A4.48,4.48,0,0,1,384,423.84Zm-29-75.36A19.51,19.51,0,0,0,344.52,341l-10.44,1.32-6.36,1.2-.12-.12.48,9.48.12,11.88-.24,7.08c9.6-.84,17-2.64,22.44-5.16s8.16-5.64,8.16-9.36C358.56,354.6,357.36,351.72,355,348.48Zm.24,22.92a38.24,38.24,0,0,1,7.32,3.72,19.37,19.37,0,0,1,4.2,3.24c1,2,1.8,7.92,2.64,17.88a16.21,16.21,0,0,1-2.28,7.44,34.5,34.5,0,0,1-7.2,9.12c-8,7.32-18.48,11-31.32,11l-4.08-.12-1.92-.12a20.46,20.46,0,0,1-.24-3.6l.36-1.08-.12-.84-.24-4.32.72-15.84,1.08-19.2h-.72l-.6-1-.24-2.28a16.16,16.16,0,0,1,.12-2.64l.12-.6,1.8-.12,1.08-17.52q.72-12.06,1.44-18.72l.24,1.92c.72-2.16,2.4-3.36,4.92-3.72,3.24-.36,7.2.84,11.88,3.36a41.44,41.44,0,0,1,12,9q5.4,5.94,5.4,11.16,0,6.48-5.76,13l-.72.84Zm39.6-113.52.24-1.2.24-.48.84-1a200.1,200.1,0,0,1,9.24,34,295.51,295.51,0,0,1,4.08,34.56l.24.24c.84-3,3-15.12,6.6-36.24,2.52-14.88,5.64-26.64,9.36-35.16l.84,1.8.24,2.64q0,5.22-16.2,79.92c-2.28-4.44-3.84-10.68-4.68-18.6l-2.4-19.56c-.6-2.88-2.4-9.72-5.52-20.4-2.28-7.8-3.36-13.92-3.36-18.48A7.13,7.13,0,0,1,394.8,257.88ZM512.16,178.2a37.93,37.93,0,0,1,6.72,10.08,20.35,20.35,0,0,1,2,7.68l-.24,4.44-.48.48-.6.84c-1.08-3.48-4-8-8.52-13.92-6.36-8-12.24-12.12-17.76-12.12q-32.4,0-44.52,53.4a256.37,256.37,0,0,0-6.12,56.76l-2.76,39,1,.48a30.91,30.91,0,0,0,5,1.44c26.16-.24,39.48-.48,40.08-.84a4.44,4.44,0,0,1,4.44,2.28,5.7,5.7,0,0,1,.72,2.88l-1.44,1.8a13.43,13.43,0,0,0-3.12,4.44L445.2,337c-1.08-1-2.88-2.64-5.64-4.92l-.48,5.4C437,370,436,391,436,400.32l-.24,17.76a233.26,233.26,0,0,0,2.4,33.48q7,46.62,32.76,46.68c14.76,0,26.28-7.92,34.44-23.88A92.88,92.88,0,0,0,512,456.6L514.68,446H516l.36,1.92.24,2.64q0,3.42-2.16,11.88a107.61,107.61,0,0,1-7.08,20.16c-8.52,18.12-19.68,27.24-33.24,27.24q-31.5,0-39.84-52.44a232.59,232.59,0,0,1-2.64-37.2l.48-19.2c0-10.2,1.08-32.28,3.36-66.48,2-32.52,3.36-50.52,4-54.12l3.48-29.4a240.64,240.64,0,0,1,4.92-31q8.64-36.18,34.92-53.64C494.76,166.08,504.6,169.92,512.16,178.2Zm-94.56,7.92.24,9.12-.24,11.88a24,24,0,0,0,9.72-1.44l1.08.24q-.18-9.36,0-14.76a90.58,90.58,0,0,1,1.56-16.8c.36,4.2.72,10.08.84,17.88l.24,12.6c0,18.84-1,35-3,48.84-1.44-2-2.16-5.16-2.16-9.24,0-1.44.24-6.24.84-14.28l1.08-15-1.2.12-5.52.24c-1.56,0-2.52-.36-3-1.08l-.6-1.2-.12,6.24-1.2,37.2v.24c-1-2.28-1.56-5.88-1.68-10.8-.12-1.8-.24-5.52-.24-10.92,0-25.08,1-45.48,2.76-61.08Zm-46.32,9.6L370,181.08q-4.86-51.84-14.4-159.72-6.48,33.3-13.8,79.08L329.52,180,326,201.72l4.08-.84c7.56-.84,15.72-2,24.36-3.84l16-3.24.72,1.32Zm10.8-8.64-.84-.24A8.81,8.81,0,0,1,381,184c0-1.44.12-2.4.48-2.76a5.78,5.78,0,0,1,3.36-1.56l13.08-1.32a1.1,1.1,0,0,1,.72-.48l.12.48,13.32-1.2.6,3.24c-.48,2.64-2.88,4.44-7.2,5.52l-5,.84v3l-.84,16.2-1,16.2a164,164,0,0,1-.84,16.8,120.7,120.7,0,0,1-2.16,15.84c-.6-.72-1.08-2.28-1.44-4.56a23.76,23.76,0,0,1-.48-4.68,253.65,253.65,0,0,1,1.8-28.8c1-9,1.56-18.84,1.68-29.76l-12.36.36Zm49.8-92-1.44,32.76-1.8,32.52.24-.12c15.72-1.68,26.28-6.72,31.68-15.24,3-4.68,4.56-11.4,4.56-20.16,0-8.52-1.32-14.76-4-18.84-4.8-7.32-14.52-12.24-29.28-14.76ZM430,84.48l.84.12c.12-.6.12-.84.24-1l.24,1.08C449.16,88,460.44,94,465,102.6a26.54,26.54,0,0,1,3,11.76c.12,2.76.12,6.72-.12,11.88a62.92,62.92,0,0,1-4.32,24Q456,168.6,437.28,168.6l-9.24-.24-.6-1.2-.12-1.32a17.64,17.64,0,0,1-1-3l-.12-4.44c0-7.44.72-21.6,2-42.6L430.08,91H430a13.93,13.93,0,0,1-.24-3.24,16.16,16.16,0,0,1,.12-2.64ZM357.48,2.4q7.38,70,17.64,178.8,13,136.44,13,152.76l-.36,6-.6.48-1.2.6q-7-63.72-14.4-142.92c-.36,1.56-4.68,3.72-13.2,6.36A101.13,101.13,0,0,1,329,209l-4.2-.12q-13,78.48-25.8,129.48l-1.32.72-1-.36a8.07,8.07,0,0,1-.12-2.16q0-.72,11.76-61.68,7.38-38.34,12.12-67.2a11.07,11.07,0,0,1-.12-2.28,16.16,16.16,0,0,1,.12-2.64l.12-.6h.84c2-12.48,3.6-23.52,4.92-33.12l4.68-42c2-16.32,4.44-30.12,7-41.52.84-4.2,2.52-11.28,4.92-21l5-21.24,3-21.6C352.32,13,354.48,6.6,357.48,2.4ZM430.56,5A5.4,5.4,0,0,1,431,7.8c0,2.76-1.68,14.64-5.16,35.52L420,80l-.36.36-.24.48c-3.48-6.36-8-16.92-13.92-31.44-5.88-14.76-10.68-25.8-14.4-32.88a281.26,281.26,0,0,1-4.44,30.36c-2.28,10.68-5,21.36-8.28,31.8l-.84.24-.72-1.8-.12-2.64q0-2.34,5.76-31c4-19.92,6.12-32.76,6.72-38.4,5,7.56,10.32,18,15.72,31.08L418.32,69c4.2-29.4,7.56-51.24,10.32-65.52A5.66,5.66,0,0,1,430.56,5ZM585,48.84l-.36,5.28a30.93,30.93,0,0,1-1.2,5.4l-1.32-.36L580.68,59c2.28-7.92-1-15.6-10-23-9.48-7.92-23.28-13.56-41.4-17C511.56,14,498.84,18.6,491,32.52a48.74,48.74,0,0,0-5.4,15.24,52.94,52.94,0,0,0-1,8.28c0,3.6,5.28,17.16,16,40.68q22.32,49.32,35,83,50.94,134.82,51,255.24c0,11.16-.48,24.6-1.56,40.08l-2.76,41q-2.88,46.08-27.12,62.4a60.84,60.84,0,0,1-23.52,8.76,155.65,155.65,0,0,1-25.2,1.68c-38.28,0-67-16.68-86.28-50a143.15,143.15,0,0,1-14.4-35.52c-2.28-8.76-3.48-14.88-3.48-18.48,0-9.12.24-14.76.72-16.8.48-2.4,3-9.72,7.44-22.08a14.5,14.5,0,0,1,2.16,8.16c0,2.88-1,7.92-2.76,15s-2.64,12.36-2.64,15.84,1.32,9.12,3.84,17.16A127.78,127.78,0,0,0,426,532.92q28.44,42.48,80.52,42.48c13.56,0,24.24-.84,32.16-2.64,8.76-2,15.72-5.52,20.88-10.2,5.16-4.92,9.24-11.76,12.24-20.64q4.14-12.42,6.48-33.84a698,698,0,0,0,4.08-73.44q0-112.32-50.76-247.92-9.9-26.82-34.92-85.44-15.84-37.44-15.84-45.72c.24-11.64,2.52-22.08,6.84-31.2q12.42-27,42.72-16.2c18.36,4.2,32.16,10,41.64,17.52C580.68,32.52,585,40.2,585,48.84Z" transform="translate(-25.92 -1.19)"/></g></svg>