<svg id="Layer_1" data-name="Layer 1" xmlns="http://www.w3.org/2000/svg" viewBox="0 0 474.36 333.12"><defs><style>.cls-1{fill-rule:evenodd;}</style></defs><path class="cls-1" d="M106.08,122.64q-1.44,63.9-2,128.16c-.36,43.32-2.88,86.4-7.44,129a206.66,206.66,0,0,0,.24,48c9.48.12,18.84-.24,28.2-.84l10.92-.84A662.31,662.31,0,0,1,272.16,425c4.2-5.52,4.2-11.16,0-16.8a355.94,355.94,0,0,0-102.24,0,282,282,0,0,1-67.08,1.92q3.06-58,5-116l2.52-64.92q2.7-64.62,1.32-128.28C108.24,106.8,106.32,114,106.08,122.64Zm154.68,8.64,6.6.48,1.56.6a156.54,156.54,0,0,1,49.32,73.32q21.06,66.24-18.36,120.48-22.32,30.78-60.36,28.08A33.78,33.78,0,0,1,228,351.48Q183.9,332,181.2,283.56a271.19,271.19,0,0,1,16.32-110C208.08,144.6,229.2,130.44,260.76,131.28Zm-75,52.32A264,264,0,0,0,180,310.44q9,45.54,52.2,59c14.64,4.68,28.44,3.12,41.28-4.56,31.56-19.08,50.28-46.44,56-82.32q10.44-65.34-20.4-122.88a179.33,179.33,0,0,0-10.32-16.8c-7.8-10.92-17-18.6-27.72-22.8l-.24-.24a63.48,63.48,0,0,0-27.36-2.4,51,51,0,0,0-29.28,16.08A125.33,125.33,0,0,0,185.76,183.6Zm172.68-16.68c-.12,43.08-1,86.16-2.76,129-1.8,43.2-2.28,85.92-1.2,128.28a88.47,88.47,0,0,0,16,2.52L482.16,434c4.56-6.36,4.2-12.24-1.08-17.88A703.22,703.22,0,0,0,389.4,411a94.42,94.42,0,0,1-29-4.08c.24-15.72.72-31.32,1.44-47q2.88-64.44,2.28-129-.54-64.8-2.28-128.28c-2,1.68-3.12,4.2-3.12,7.56Zm73.92-60.84c-.6,4-1,8-1.2,12.12-2,32-3.48,64.32-4.44,96.6q-1.26,39.78-4.32,79.44a266.21,266.21,0,0,0,2.4,64.32,712.84,712.84,0,0,1,142.08-2.76c3.84-5.88,3.72-11.52-.24-17a996.78,996.78,0,0,0-138,.84L430.8,299l2.76-67.32q2.34-64.62,1.8-127.56h-.24A5.53,5.53,0,0,0,432.36,106.08Z" transform="translate(-95.32 -100.92)"/></svg>