<svg id="Layer_1" data-name="Layer 1" xmlns="http://www.w3.org/2000/svg" viewBox="0 0 560.88 565.92"><defs><style>.cls-1{fill-rule:evenodd;}</style></defs><path class="cls-1" d="M348.12,514.8a9,9,0,0,1,.24-2.4l.12-.12c1.56-15,2.28-24.48,2.28-28.68q0-3.42,2.16-4c.72,2.16,1.08,5.76,1.08,10.92q0,5.22-1.44,20.16l6.36-.6,14.4-1v-.6l24.6.24c2.16-14.88,4.44-26.16,7-33.84l1,1.92.12,2.64c0,2.16-.6,6.24-1.92,12.24s-2,10.08-2,12.12l-.12,4.92h1.92l1,1.32a6.32,6.32,0,0,1,.48,2.76l-.36,2.4L403.8,517h-2.16c-.36,6.36-1.08,12.36-1.92,17.88L394.08,570c-1.32-1.32-1.92-3.84-1.92-7.68,0-5,1.08-16.8,3.36-35.4l1.2-9.72-8.4.24-16.08.84-12.12.48-5.28.36H351.6l-4.8,40.08.6-.84a1.89,1.89,0,0,1,1.56-.84L346.8,564a35.46,35.46,0,0,0-1.44,8.16l-.6.48-1.2.6a11.27,11.27,0,0,1-1-3.72,34,34,0,0,1-.12-4l4.2-36,1.44-13.68Zm-58-121.2c13.32-18.48,27.24-17.64,42,2.4l-.48.48-.6.84a54.36,54.36,0,0,0-6-5.64q-6.84-5.4-12.24-5.4c-11.88,0-21.72,9.24-29.76,27.72-4.68,10.68-8.28,23.64-11,39.12l-6.36,34.08a202.65,202.65,0,0,0-3.36,33.72,55.4,55.4,0,0,0,3.84,20.64c4.68,11.76,12.84,17.64,24.36,17.64,15,0,26.16-3.48,33.36-10.32,5.16-4.92,7.68-10.44,7.68-16.8h.84l.24.72V535a24.29,24.29,0,0,1-5.88,16.2c-4.44,5.16-12.24,10.8-23.52,16.68H290.52c-13.32,1.44-22.56-5.16-27.6-19.8-2.52-7.44-3.84-16.44-3.84-27.12a230.83,230.83,0,0,1,3.36-40.44c.6-3.84,3.72-18.12,9.12-42.84a138,138,0,0,1,6-19.44C281.4,408.12,285.6,400,290.16,393.6Zm8.64-98.16c4.44-2.16,13.32-2.76,26.88-1.68l6.72.24.72,1.08a7.3,7.3,0,0,1,.36,2.64,7,7,0,0,1-.36,2.52l-1,1.08a20.45,20.45,0,0,1-8.76-1.56,26.06,26.06,0,0,0-4.32-2.28c-2.88-1.2-9.24.72-19.2,5.64-.12,5.76-.48,12.12-1.2,19.08l2.88-.24,6.72-.12,7.8.24,6.36.6h10.8c2.16,1.56,3.24,3,3.24,4.08a2.86,2.86,0,0,1-.72,1.68,6.93,6.93,0,0,1-2.52,2.4l-5.76-.36-6.12-.72-13.92.48h-9.36l-.36-.36-.6,4.44c-1.08,7.8-3.12,19.2-5.88,34.08h-1.8l-.6-1.32-.24-2.76c0-7.8,1.08-19.44,3.24-35,1.8-12.12,3.48-21.36,5.16-28l-.36-.36a1.5,1.5,0,0,1-.48-1.32,3.32,3.32,0,0,1-.12-1.56,4.8,4.8,0,0,1,2.4-2.52ZM46.44,36a7.93,7.93,0,0,1,1.44-3.84C49.8,38,51,49.32,51.48,65.76c.12,5.28.24,17.64.24,37.08,0,13.8-1.2,57.6-3.72,131.16L44.4,347v47c-2.76,19.56-5,46.32-7.08,80.4q-3.42,57.42-5.88,80.4c31.44.48,54.12,1.56,68,3.36a208.51,208.51,0,0,1,32.4,7.44q2.16-1.26,2.52-5l.72-6.12,3,8.28a25,25,0,0,1,1.56,6.84c0,6.36-2.28,9.6-6.72,9.6l-14.76-4c-10-2.76-16.08-4.08-18.12-4.2l-14.52-1.32-6.36-1.08c-5.16-.6-21.84-1-49.92-.84a9.34,9.34,0,0,1-2.76-4.92,14.22,14.22,0,0,1-.6-3.84q0-10.08,6.24-83l7.08-84.6Q41,358.86,42,308.16l1.32-83v-41.4c1.08-7.68,2-17.52,2.88-29.64l1.68-29.64V76.56l.24-9.36L47,54.12,46,40.92A22.08,22.08,0,0,1,46.44,36Zm175.8,11.88C194,41.4,169,55.68,146.76,90.72a297.92,297.92,0,0,0-20.64,40.8l-11.28,26.76c-2.52,8.76-5.28,26.28-8.4,52.68s-4.68,46.32-4.68,59.16q0,2.34.72,9.72c.48,5.28,1,9.6,1.44,13.08v48.72c.36,2.4.72,6,1.08,10.92s.72,8.52,1.08,10.92v52.8l6.36,37.8c2.52,15.24,5.4,27.72,8.88,37.68a198.89,198.89,0,0,0,22.8,46.44c12.12,18.36,23.4,27.48,33.72,27.48,14.76,0,30.12-17,45.84-51.24a417.22,417.22,0,0,0,25.44-71.88q10.62-42.48,14.76-61.08a573.13,573.13,0,0,0,10.56-62.28V268.8c.84-5.28,1.2-13.44,1.2-24.6,0-39.24-2.88-74.52-8.76-105.6Q253.38,67,222.24,47.88Zm89.52,103.56A362.39,362.39,0,0,1,309,188.76c3-1.32,8-3.24,15.24-5.76,12.36-5.16,18.48-10.92,18.48-17a11.35,11.35,0,0,0-1.32-4,17.55,17.55,0,0,0-4.68-6.36C330.84,150.36,322.44,148.92,311.76,151.44Zm2.4-7.32a28.91,28.91,0,0,1,12.72,1.56A31.45,31.45,0,0,1,339.6,153a18.36,18.36,0,0,1,5.76,13.44c0,1.68-.72,4-2,7a40.59,40.59,0,0,1-6,9.24c-6.72,7.8-14.64,11.64-23.64,11.64L308.4,194l-5.52,41.88a2.11,2.11,0,0,1-1.56,1.08,7.63,7.63,0,0,1-.72-2.16l-.12-3.12c0-9.36,1.2-23.76,3.72-43.08,2.52-20.28,4-35.16,4.08-44.64h1.44l1.32.72ZM243.6,49.56l7.08,13.8c2.64,5.28,4.68,9.84,6.24,13.8a265.5,265.5,0,0,1,15.72,55.92c2.28,13.8,4.08,31.68,5.64,53.88q2.16,31.86,2.16,56.88,0,20-1.08,29.52v50.4q-1.62,23.22-11.52,65.16C261,418.08,253,446.28,243.72,473.76Q228.06,520.2,213,547.32q-17.46,31.32-31.32,31.32c-13.56,0-24.12-5.52-31.92-16.44a94.69,94.69,0,0,1-7.2-13.2c-2.4-5.16-4.2-8.28-5.28-9.6a86.59,86.59,0,0,1-13.44-20.52l-6.6-18.48c-3.6-9.72-6.72-22.8-9.24-39.24l-6.24-39.48V367.32c-.36-2.28-.72-5.64-1.08-10.2-.36-4.92-.72-8.52-1.08-10.92V296.64c-.48-3.72-1-8.64-1.44-15-.48-5.64-.72-9.36-.72-10.92q0-68.94,12.36-113.4,17.64-63.54,64.8-108.84c3.36-3.24,8.4-5.76,15-7.56a74.33,74.33,0,0,1,20.4-2.4,71.79,71.79,0,0,1,19.92,2.88C236.28,43.32,240.84,46.08,243.6,49.56ZM361.68,382.2a22.91,22.91,0,0,1,1.08,7.32c0,6.12-1.44,16.92-4.44,32.4a231.2,231.2,0,0,1,19.56-19.08c10.56-9.24,19.56-16.2,27-20.64l.84,1.32a14.57,14.57,0,0,1,.24,2.76L382.2,407.16l-4.32,3.72c7.56,4.68,15.48,13.56,23.88,26.76,3.12,5,6,10.2,8.76,15.48,2.28,4.32,3.36,6.72,3.36,7.2l-.24,2.64-1.08,1.8a326.64,326.64,0,0,1-25.32-31.32c-7.44-10.32-11.76-16.8-12.84-19.56l-16.32,13.8-1-.12-.12.72c-4.08,20-6.24,31.8-6.48,35l-1.08,1.44a8,8,0,0,1-1.2-3.6,31.7,31.7,0,0,1-.12-3.84,73.1,73.1,0,0,1,2.52-18.24l5-20.4a67.52,67.52,0,0,0,.84-10.08c-.12-4.92-.12-8.64,0-10.92C356.76,389.16,358.44,384,361.68,382.2ZM481.8,211.56l.72,1.32a8.06,8.06,0,0,1,.36,2.76v2.76A2.44,2.44,0,0,1,481.2,220c-1.32.48-7.32,1.68-18.12,3.6l-11,.24-2,.12c-.6,8.52-2.4,28.08-5.4,58.44-3.72,38.28-6.48,64.08-8.28,77.64l-.6.48-1.32.6a13.76,13.76,0,0,1-1.08-6q7.2-93.06,14.28-131l-7.2.6c-11.4-.84-20,0-26.16,2.4l-5.88,2.76a15.39,15.39,0,0,1-5.88,1.32l-3.12-.24-1.2-.36a13.93,13.93,0,0,1-.24-3.24c0-2.28,4.44-4.44,13.32-6.72A175.54,175.54,0,0,1,441.48,216l7.8-.24v-.12l.12.12,13.92-.36a101.19,101.19,0,0,0,11-2.4A35.54,35.54,0,0,1,481.8,211.56ZM420.36,46c-.12-1.2-2.16-3.72-6.24-7.44-4.68-4.44-8.52-6.6-11.64-6.6q-16.2,0-24.84,6.48c-4.2,3.12-6.24,6.36-6.24,9.72q0,7.56,9,14c1.92,1.56,8.52,5.28,19.68,11.4,9,4.92,15.48,9.6,19.68,14,6,6.36,9,13.56,9,21.84,0,1.56-.84,3.72-2.64,6.48a39,39,0,0,1-7.92,8.88c-9,7.56-19.92,11.28-33,11.28q-28.62,0-43.92-16.2a40.85,40.85,0,0,1-7.68-11.64c-1.32-3-2-5-2-6.24a23.33,23.33,0,0,1,.36-5.4,60.68,60.68,0,0,1,2.88-8.4C336.24,89,337,91,337,93.84a9.43,9.43,0,0,1-1.08,3.72,9.54,9.54,0,0,0-1.08,3.6c0,.6,1.2,2.16,3.48,4.8a66.66,66.66,0,0,0,9.36,9c10.44,8.52,20.88,12.72,31.56,12.72,13.2,0,24.72-2.52,34.44-7.56a38.19,38.19,0,0,0,8.88-6.12c2-1.92,3-3.48,3-4.68,0-7.32-3-13.56-8.88-18.6-3.36-2.76-9.84-6.48-19.56-10.92-9.24-4.44-15.84-8.28-19.56-11.64a26.63,26.63,0,0,1-8.88-20.4c0-7.92,3.24-13.8,9.72-17.52C383.88,27,390.72,25.8,399,26.4c7.8.6,14,2.52,18.72,6,5,3.72,6.36,7.92,4,12.48A1.43,1.43,0,0,1,420.36,46Zm162.36,31V79.2l-.24,1.44-.48.48L581,82c-.84-1.2-2.16-4.68-3.72-10.44a129,129,0,0,0-5.16-16.08c-6-14-15.24-21.12-27.84-21.12q-25.38,0-34.08,43.08c-2.52,12.48-3.84,28.32-3.84,47.4,0,12.6,4.2,30.48,12.6,53.88q7.38,21.06,27.6,72.24Q565,300.06,574.2,340.2q12.6,54.18,12.6,105.24c0,5.16-.84,18.48-2.64,40.08-1.68,20.4-2.76,31.56-3.12,33.36a80.49,80.49,0,0,1-17,36.48c-2.76,3.36-9.72,9.84-21.12,19.56C531.12,585,524.4,590,522.6,590l-25.44-.24c-9-3.24-17.64-8.76-25.8-16.44a81.56,81.56,0,0,1-14.16-16.92c-3.72-5.52-7.08-10.68-9.84-15.48-5.52-9.12-8.28-15.36-8.28-18.6a11.91,11.91,0,0,1,2.4-7.32c9,16.92,18.24,30.84,27.72,41.88,11,12.84,20.52,19.32,28.56,19.32,20,0,37.56-6.72,52.8-20,14.16-12.6,22.8-27.84,25.92-45.48.48-2.64,1.44-13.08,3-31.44,1.56-18.84,2.4-30.36,2.4-34.32q0-47-12.48-98.64-8.82-37.26-27.36-87.24L527.4,220.32c-5.64-14.76-9.84-26.52-12.84-35.52q-12.42-37.26-12.48-60a280.75,280.75,0,0,1,4.32-52.32q9.18-48.42,34.08-48.36c11.52,0,22,8.52,31.44,25.68a131.29,131.29,0,0,1,8,18.12C581.76,73,582.72,76,582.72,76.92Z" transform="translate(-25.92 -24.12)"/></svg>