<svg id="Layer_1" data-name="Layer 1" xmlns="http://www.w3.org/2000/svg" viewBox="0 0 307.16 208.56"><defs><style>.cls-1{fill-rule:evenodd;}</style></defs><path class="cls-1" d="M296.52,291.36c-12.36,8.28-20.4,20.16-23.88,35.52a78.53,78.53,0,0,0,2.88,45.84c6.48,17.28,18.6,24.6,36.36,22.08,16-2.16,27.84-10.32,35.88-24.48,7.8-13.8,9.6-28.32,5.4-43.8-4.68-17.64-15.48-28.2-32.16-31.68A167,167,0,0,0,296.52,291.36Zm33.6,23.88q21.24,15.66,12.24,39.24c-5.64,15-16.56,23.16-32.64,24.6q-27.18,2-32-22.68c-3.36-16.68.72-30.24,12.36-40.68,11.88-10.8,24.12-11,36.72-.84ZM153,205.68q1.62,64.44-2.16,129a294,294,0,0,0,2.88,63.84l1.08-1.44.72,1.68.84.84a544.84,544.84,0,0,1,87.36-.48,14.38,14.38,0,0,0,1.8-8.88,22.91,22.91,0,0,0-1.32-4.92l-.48-.84-.84-.48a170.2,170.2,0,0,0-35-3.6,204.11,204.11,0,0,0-50.52,5.88q.18-63.18,4.08-127a248,248,0,0,0-4.2-64.2,1.54,1.54,0,0,0-1.68,1A16.72,16.72,0,0,0,153,205.68Zm215.28-9.12a1144.9,1144.9,0,0,0,24.12,118.8,393.77,393.77,0,0,1,10.8,62.52c.72,8.88,3.48,15.84,8.16,20.76l.48,2.28a2,2,0,0,0,1.2-1A704.1,704.1,0,0,0,437.64,302c3.72-21,8.28-41.64,13.92-62.16a156.2,156.2,0,0,0,5.76-47.52,612.8,612.8,0,0,0-28,107.16,456,456,0,0,1-14.88,61.92,84.55,84.55,0,0,0-3,11.76,325.81,325.81,0,0,0-9.24-54.36q-7.92-31.14-14.64-62.64A353.21,353.21,0,0,0,369,195.36.92.92,0,0,0,368.28,196.56Z" transform="translate(-150.27 -192.36)"/></svg>