<svg id="Layer_1" data-name="Layer 1" xmlns="http://www.w3.org/2000/svg" viewBox="0 0 449.72 500.96"><defs><style>.cls-1{fill-rule:evenodd;}</style></defs><path class="cls-1" d="M321.12,532.92a79.8,79.8,0,0,0,7.92,12l2.16-6.48A162.55,162.55,0,0,1,312,489.72C310.32,504.48,313.32,518.88,321.12,532.92Zm-56-86.52-4.8,2.52-1.32,2.4q-24.48,23.4-24.48,60A48.74,48.74,0,0,0,241.2,536a46.9,46.9,0,0,0,10.44,12.36c14.52,1,25.32-4.92,32.52-17.52A14.34,14.34,0,0,0,286,523l-4.08.6c-6.84,9-15.6,13.2-26.4,12.72-6.48-.12-10.44-3.24-12-9.36-5.16-20.28-2.16-39.24,9.24-56.76a81.69,81.69,0,0,1,10-12.36l13.32-.24a8.63,8.63,0,0,0,.12-5.76,7.84,7.84,0,0,0-4.44-5Zm63.48-.84-.6-2.64-28.8,52.8,3-44a20.8,20.8,0,0,0-1.32-8.52,247.29,247.29,0,0,0-11.4,66.12,84.73,84.73,0,0,0,6,34.56l2.88-33.48,1.2,2.88,23.64-47.76A25.15,25.15,0,0,0,328.56,445.56ZM281.16,329a27.07,27.07,0,0,1,6.24,12.24c3.6,16.44-1.8,26.52-16.2,30.36q.54-22,.72-43.56Zm-13-2.52,2.52,1.32q-5.58,39.42-7.56,79.2a92.82,92.82,0,0,0,2.4,25.8c.6,2.76,1.56,4.68,2.88,5.88L271,381.36c11.16,1,18.24-4.8,21.12-17.16a52.42,52.42,0,0,0,0-23.64,41.57,41.57,0,0,0-11.52-20.76l-11.88,1.92Zm35.16-5.88c-2.52,2.64-2.52,5-.12,7.32l-4.56,107.76a627.41,627.41,0,0,0,5.88-107.16c13.8,9.48,19,22.08,15.24,38a33.52,33.52,0,0,1-3.84,9.72l-2.16,3.24-8.88,2.52.84,10.56,5.88-.84A38.25,38.25,0,0,0,326.16,368a53.53,53.53,0,0,0,.84-7.8,45.52,45.52,0,0,0-1.8-16.2A36.88,36.88,0,0,0,318.36,331a45.09,45.09,0,0,0-12.12-10.32Zm7-62.16,2.76-8.16,6.48-5.64,18.12,1.8q-8.1-25.56-25.2-.12c-8.76,13-6.12,24.36,7.8,34.2a86.83,86.83,0,0,1,13.8,12c-13.56,10.44-28.2,12.36-44,5.88l-1,9.36q26.28,16.56,45-8.52c2.88-3.72,3.48-8.16,1.68-13.08-4.2-11.88-12.24-20-24.36-24.48ZM55.08,48.36a45,45,0,0,0-4.2,16.8,849.26,849.26,0,0,0,1.32,128.4q5.4,64.26,6.48,129l2.16,128.16A222.07,222.07,0,0,1,59.28,483a230.14,230.14,0,0,0,1.56,64.32c.84-.24,1.2-.6,1.32-1l.36-2,.36,1.2.48.72a321.76,321.76,0,0,0,106.2-3.48,8.06,8.06,0,0,0,3.6,1.56l1.32-.24.72-1.56a16.73,16.73,0,0,0-.12-13l-.36-.84-1.08-.48-17.88-1.44a44.71,44.71,0,0,1-7.68,2,319.72,319.72,0,0,1-83.64,3.72,287.9,287.9,0,0,0,2.4-33.84q.72-64.26-.24-129.12c-.6-43.08-1.8-86.16-3.36-129.12-.84-21.48-1.92-43-3.24-64.2q-3.78-64.62-4.2-128.16Zm255.48,98-33.48-1.32-.6,2.4-.24-4.08a283.49,283.49,0,0,0-3.6,80.52,24.3,24.3,0,0,0,3,9.6l1.8-49.08,28.8.6v-9.36l-28.92,1.2-.72-27.24.48,1.92,33,3.72ZM214.92,84.24a1038.06,1038.06,0,0,1,24.36,125.4A846.29,846.29,0,0,1,246.6,338,469.52,469.52,0,0,1,227,464a78.93,78.93,0,0,1-22.2,35.88q-21.06,19.8-42.6-2.52a43.82,43.82,0,0,1-9.48-14.76,279.43,279.43,0,0,1-18.36-82.08,973.23,973.23,0,0,1-1-128.28q3.6-63.9,13.56-127,8.28-52.56,49.92-83.4a16.25,16.25,0,0,1,14.88,7.32C212.64,74.28,213.6,79.32,214.92,84.24ZM198,49a61.3,61.3,0,0,0-22.56,19,190,190,0,0,0-34.2,80.64,1098.72,1098.72,0,0,0-14.28,127,872.31,872.31,0,0,0,2.28,129,295.3,295.3,0,0,1,1.44,32.4c-.12,36.6,14.16,65.16,42.6,85.92,10.44,7.56,20,7.08,29-1.44a122.76,122.76,0,0,0,35.52-61.32,555.12,555.12,0,0,0,15.72-126.72,877.36,877.36,0,0,0-7.92-128.16L233,110.76A139.54,139.54,0,0,0,212.4,53.28a6.11,6.11,0,0,1-2-.84A26.25,26.25,0,0,0,198,49Zm276.6,314.4q28.62,59.22,14.52,125-9.18,43-56.16,39.72l-.6-.48a3.08,3.08,0,0,0-3.12-.72,503.62,503.62,0,0,0,6-70.2l2-112.56,15.12-1.08,7.08,4.2A42.19,42.19,0,0,1,474.6,363.36ZM374.4,324.72q-38,81.54-28.68,174.48A67.51,67.51,0,0,0,355,527.4a71.55,71.55,0,0,0,7.44,10.44,75.8,75.8,0,0,0,9.36,9.24c14.64-1,26.64-7.44,35.88-19.56a18.23,18.23,0,0,0,3.84-11.16,19.34,19.34,0,0,0-.72-5.28Q392,535.2,368.88,527.88a8.92,8.92,0,0,1-4.56-3.72,93.93,93.93,0,0,1-11.16-24.48,86.62,86.62,0,0,1-2.88-13.2l-.84-9.24a145.55,145.55,0,0,1,.6-26l.6-7.2,35.4-4.08,1.68-8-2.16-2.52L350.88,434A215.49,215.49,0,0,1,375,335.76c10.32-.48,18.72,3.36,25.2,11.4.12-14.88-7.44-22.32-22.56-22.44Zm63.12,3.84-1,6.24-1.8.48L434.4,337a16.15,16.15,0,0,0,.24,4.8l.6,1.92a573.88,573.88,0,0,0-4.68,68.4,955,955,0,0,1-5.88,96.48c-1.44,12-.72,22.56,2.28,31.8l.36-1.68c14.88,4.68,28.92,2.76,42-5.76q20.34-13.14,24.84-38.16a279.23,279.23,0,0,0-1.8-110.16q-8.64-40-45.36-52.08v.12a75.46,75.46,0,0,0-9.6,1.92Zm1-273.84a317.15,317.15,0,0,0-44,.48,390.64,390.64,0,0,1-41.16,2.16l-17.52.12L334,66l76.92.48c-2.52,19.08-4.2,38.16-4.92,57.48-.6,14.76-.72,29.52-.12,44q1.62,39.6,1.92,78.84c.12,21.12-.24,42.36-1.08,63.6a21.65,21.65,0,0,0,5.28-8.88,18,18,0,0,0,1-5.64q-.18-44.82-1.08-89c-1-44.52-.6-89.16,1-133.68a31.58,31.58,0,0,0-.36-6.72l62.16-.24.48-10.2Z" transform="translate(-49.07 -48.12)"/></svg>