<svg id="Layer_1" data-name="Layer 1" xmlns="http://www.w3.org/2000/svg" viewBox="0 0 454.43 392.68"><defs><style>.cls-1{fill-rule:evenodd;}</style></defs><path class="cls-1" d="M91.08,105a16.17,16.17,0,0,0-4-11.4l-.6.12a344.47,344.47,0,0,0-10,91.68q1.62,64.62.48,129-.9,64.8-6.36,129c-.84,10.08.12,19,2.88,26.76a10.76,10.76,0,0,0,.84,4.68,6.89,6.89,0,0,0,5.52,2.4l109-4.32.6-.6a13.52,13.52,0,0,0-.6-14.52,527.43,527.43,0,0,0-112.2,8.52A981.06,981.06,0,0,0,82.56,364.8c.36-43.08.36-86,0-129.12a1134,1134,0,0,1,5.88-126.6L91,105.84ZM353.52,419.52a213.25,213.25,0,0,1-26,29.88q-23.22,22-52.08,14.76a90.58,90.58,0,0,1-9.6-3c-25.56-9.24-43.8-25.56-54.48-49a129.84,129.84,0,0,1-11.88-48.72,764.75,764.75,0,0,1,4.68-128.4,212.93,212.93,0,0,1,6.24-31.8q17.82-64.62,77.52-96.12a84.17,84.17,0,0,1,45.48,7.56,6.59,6.59,0,0,0,2.64,5,23.26,23.26,0,0,1,7.56,9.6,49.78,49.78,0,0,1,22,24.72A247.89,247.89,0,0,1,385,233.64a671.49,671.49,0,0,1,.72,95.76C383.52,362.64,372.84,392.76,353.52,419.52Zm145.2-125.64a188.48,188.48,0,0,1,14.76,39.24,161.47,161.47,0,0,1,4.8,40.8,111.44,111.44,0,0,1-10.2,45.72,84.87,84.87,0,0,1-29.28,35,66.09,66.09,0,0,1-42.48,11.64L424.56,465q8.46-93.42,9.24-187.08a60.9,60.9,0,0,0,34.32-9.72A49,49,0,0,1,498.72,293.88ZM473.4,123.12a310.55,310.55,0,0,1,18,30.36,80,80,0,0,1,6,48.6c-6.72,35.64-28,55.8-63.6,60.24L433.44,229c-.84-40.32-2-80.4-3.84-120.36,11.64-4.8,22.92-4.32,33.84,1.32A131.13,131.13,0,0,1,473.4,123.12Zm-101,23.76c-15-36.84-42.72-55-83.4-54.36l-9.12,4.2a96.44,96.44,0,0,0-23.64,15.36,161.92,161.92,0,0,0-48.36,70.8,200.48,200.48,0,0,0-10.32,46.68,1090.39,1090.39,0,0,0-5.16,126.84,169.7,169.7,0,0,0,19.44,77,22.77,22.77,0,0,0,7,11.76,203.64,203.64,0,0,0,56.88,36.36,23.9,23.9,0,0,0,16.08,1.2A100.63,100.63,0,0,0,327.84,465q33.66-25.56,46.92-64.92a372.33,372.33,0,0,0,19.8-126,469,469,0,0,0-5-63.84A272.29,272.29,0,0,0,372.36,146.88Zm55.44-46q-3.06,2.88-2.88,8.64l2.16,83.64q1.62,64.26-1.32,128.28c-2,43.08-5,86.16-8.88,129a70.81,70.81,0,0,0,.24,16.8,35.51,35.51,0,0,0-.84,6.24,10.4,10.4,0,0,0,4,8.88c16.32,4.68,31.68,3.48,46-3.72Q505.26,463.74,517,423q18.36-63.54-6.24-124.92-11-27-34.92-37.68l3.6-4.08q34.92-43.2,19.56-96.24a241.46,241.46,0,0,0-11.16-31.2Q474.3,97.74,442.68,94.2l-10.32,3.48a12.1,12.1,0,0,0-4.08,2.16Z" transform="translate(-70.39 -92.51)"/></svg>