<svg id="Layer_1" data-name="Layer 1" xmlns="http://www.w3.org/2000/svg" viewBox="0 0 568.68 590.67"><defs><style>.cls-1{fill-rule:evenodd;}</style></defs><path class="cls-1" d="M347.52,576.48V586l36.84-.24c5.16-.84,8.52-.72,10.32.48,1.08.6,1.56,1.8,1.56,3.6s-.12,2.52-.24,2.4l-4.08.48-7.8.6-18.24.36-18.6.72-2.16-.24c-.12-2.76-.24-6.6-.24-11.76,0-13.08.12-22.32.48-28,.6-10.92,2-19.44,4.32-25.8a65.52,65.52,0,0,1,.84,12.6C350.52,555.72,349.56,567.48,347.52,576.48Zm-72.72-47.4,1.32-.48A245.38,245.38,0,0,1,278,577.32v5.4c17,.72,27.72,1.56,31.92,2.64a7.08,7.08,0,0,1,3.72,1.8,6.09,6.09,0,0,1,.36,2.64l-.36,2.64c-.24.36-1,.6-2.16.6l-6.72-.72L301,591c-4-1.08-12.24-1.2-25.08-.48,0-8-.24-18.36-.84-31s-.84-22-.84-28.2A3.24,3.24,0,0,1,274.8,529.08Zm-9-58.44c-.36-.48-.48-1.8-.48-4l.84-.6c7.56-1.8,13,0,16,5.4a23.14,23.14,0,0,1,2.4,10.8v4.08a8,8,0,0,1-2.16,5,17,17,0,0,1-7.2,4.2l7.56,9.36c7,9,10.44,14.88,10.44,17.4l-.24,2.28-.6,1c-11.88-14.52-19-24.12-21-28.92l-10.92,1.68-.24,1.2c-3.48,15.48-6.12,25.2-7.8,29.28h-.84L251,527l-.12-2.64c0-3,1.8-11.88,5.52-26.4l.12-.36-.24-2.16a2.33,2.33,0,0,1,1.08-2.88h.48c3.24-13.08,5.16-21,5.52-23.76h.84a16,16,0,0,1,.84,5.64c0,1.8-1.2,8-3.48,18.6a24.49,24.49,0,0,0,10-1.32,28,28,0,0,0,4.68-2.28c4.08-2.64,6.12-5,6.12-7.32s-1.08-4.92-3.36-7.44C275.88,470.88,271.44,469.56,265.8,470.64Zm56.88,8.16c0,4.56-1.08,13.2-3.12,26l-3.12,17.76v.84a56.16,56.16,0,0,1,11.4-3.12q14.58-2.52,16.2-3.6a22.38,22.38,0,0,0,7.32-7.68,17.39,17.39,0,0,0,2.4-8.64c0-6.36-2.28-12.84-7-19.32-6.12-8.28-14.4-12.36-24.84-12A61.61,61.61,0,0,1,322.68,478.8ZM324,461c2.16-.6,4.92-.24,8.4,1.08a33.68,33.68,0,0,1,18.36,16.44,27.31,27.31,0,0,1,4.44,10.92,66,66,0,0,1,.72,10.92,33.8,33.8,0,0,1-5,18.12c-5.4,8.76-14.16,13.08-26.28,13.08l-9.24-.24-.24,1.08h-1.44v-1.8l-1-1.2a5.63,5.63,0,0,0-1.68-2.52,9.92,9.92,0,0,1,2.4-1.92v-.72q0-8.64,3.24-30.24l4-26.16-.12-1.68C320.52,463.44,321.72,461.76,324,461Zm-8.88-30a14.56,14.56,0,0,0-11.16-6.6l-7.56,5.64-1.68-.84-.48,2.64-4.32,27.36c5.4-.36,11.28-2.52,17.88-6.6,7.32-4.56,11-8.52,11-11.88C318.84,437.76,317.64,434.52,315.12,431Zm-13.56-32.4-3,.12c0,2.76-1.08,11.4-3.12,25.8l6.6-3.24c6.6-3.48,9.84-8,9.84-13.44a3.49,3.49,0,0,0-1.44-3c-1.56-1.08-3.24-3.24-4.8-6.48Zm-4.08-4.8,9,.24c3.6,1.8,5.76,4.2,6.6,7.08a37.81,37.81,0,0,1,.36,7v6.24a6.12,6.12,0,0,1-1.44,3.72l-3.24,2.76q5.58.54,9,8.28c2.16,4.92,3.24,9,3.24,12.48s-2.4,7.92-7.2,13.44c-5.76,6.48-11.88,9.72-18.48,9.72l-3.24-.24-3.84-.6v-.48l-.36-.72a10.45,10.45,0,0,1-.12-2.28v-1.08c.24-3.72,1.44-13.44,3.6-29,2-14.28,3.6-24.84,4.8-31.44l-.24-1.56L297,394.8v-.12ZM79.56,274A152.25,152.25,0,0,0,86,254.88c2.4-8.64,4.68-15.24,7-19.68q11.16-22.86,43.2-34.2,61.2,2.7,89.64,70.56c6.84,16,11.76,34,15,54a247.93,247.93,0,0,1,3.6,40.08c0,6.36-.12,11.52-.48,15.48s-.6,9.6-.6,17a241.37,241.37,0,0,1-4.92,46.08,291.28,291.28,0,0,1-15.6,52.56q-24.48,61.38-67.08,91.32-30.6,1.26-54.84-39.12a259.07,259.07,0,0,1-15.24-30.6L77.4,498.84q-4.86-8.46-9.72-42.12Q63,425.22,63,407a72,72,0,0,1,1.08-14.52v-41.4a181.87,181.87,0,0,0,3-19l2.4-19.68Q72.72,288.54,79.56,274Zm56.64-63.48c-24.72,8.76-42.72,32.64-53.88,71.88a368,368,0,0,0-9.24,43.56c-2.64,16.68-4.32,26.16-5.16,28.68v43.08a40.65,40.65,0,0,0-1.08,8.88c0,10.44,1.8,25.56,5.28,45.48q5.4,30.42,10.44,41.4l8.52,19.8c4.68,10.68,9.12,19.8,13.32,27.6,12.84,23.4,24.12,35.16,34,35.16l17.64-.36q49.86-43,69.72-104.16,14.4-44.28,14.4-105.6c0-3.72-1.56-15-4.68-33.6-3.48-21-6.48-34.56-9.12-40.68l-7.2-19.08C216,265,212.4,258.84,208.44,254.4q-7-7.92-24.12-22.68-15.48-13.32-16.2-13.32h-.24l-2.28-1.92-2.88-.84c-3.12-1.2-5.64-2-7.56-2.64C150.72,211.44,144.36,210.6,136.2,210.48ZM38.4,33.12l.24,25.08q0,8.1-5.16,95.52-5.58,90.9-8.64,130.8v54.36c1,3.84,1.44,9.72,1.44,17.52,0,6.84-.48,19.68-1.44,38.28-1.08,24.36-2.4,40.44-4,48.12v47c-1.8,10.68-3,24.6-3.72,41.52-1,22.68-1.68,36.36-2,41a125.68,125.68,0,0,0,20.16-2.16l11.28-2.16c10.56,0,18.36.84,23.28,2.64s11.16,2.52,18.48,2.52c7.08,0,10.8-.84,11-2.52a3.32,3.32,0,0,0-.6-2.28,6.54,6.54,0,0,1-.84-2.52l.84-.24a21.61,21.61,0,0,0,3.48,6.24,7.23,7.23,0,0,1,1.92,4.8q0,5-1.08,6.48c-1.68,2.4-5.52,3.6-11.64,3.6-10.68,0-18-1-21.72-2.76s-10.08-2.64-19.08-2.64l-14.16,2.88c-10.32,2-18.12,3-23.52,3L11,587A11.62,11.62,0,0,0,10,586.2a34.51,34.51,0,0,1-.48-5.64c0-16.2.48-32.4,1.56-48.6A416.18,416.18,0,0,1,16,485.52V437.64c2.64-23,4.2-39.36,4.8-49.08,1.32-18.84,1.2-35.28-.24-49.08V280.2c2.16-27,5.16-70.32,8.88-129.72Q35,64.62,34.92,58.32a200.17,200.17,0,0,0-1.44-27.24,115.47,115.47,0,0,1-1.56-18.6c0-3.72.6-6,1.92-7.08C36.36,17.16,37.92,26.4,38.4,33.12ZM178,104.88c-10.2-34.92-20-64.2-29.52-88.08-5.76,12.12-11.88,27.12-18.36,44.76l-16.56,46.08-1.8,5,12.6-1.44,1.08-.84,30.36-1.56,23.16-1.2Zm164.76,39.84a5.8,5.8,0,0,0-1.68,2.4,25.1,25.1,0,0,1-1.32,3.6l-1.2-.48c-.36-.24-.48-1-.48-2.16,0-1,.84-3.36,2.64-7.2,1.92-4.44,3.72-7.56,5.52-9.36a14.5,14.5,0,0,1,2.16,8.16q0,20-6.36,105.36-6.12,81.9-7.44,88.44c-4.8-9.48-8.52-24-11-43.8-2-16-4.2-30.6-6.24-43.68l-7-43.68c-2.88-17.28-6-32.28-9.36-44.88l-.24-.48c-2.88,19.8-5.64,49.32-8.4,88.8q-5,53.1-17.52,88.56a4.76,4.76,0,0,1-1.32-1.8,7.6,7.6,0,0,1-.36-2.76L281,292.44c5.16-26.28,7.8-47,7.8-62.4a197,197,0,0,1,1.92-24.84l3.48-25.56.84-12,.36-12.84c.6-10.32,2.52-18.36,5.52-24.12,1.44,8,4.44,22.8,9.12,44.28,4.2,19.32,7.08,34.32,8.76,45,1.56,9.72,3.72,24.36,6.48,44.16,2.64,17.88,5.4,32.88,8.16,45h.6c2-16.92,3.72-38.16,5.28-63.72,1.56-28.56,2.76-49.8,3.6-63.6V145.32ZM256.08,198.6c.36-1.56,1-2.64,1.68-3,1.92,6.36,3.12,14.16,3.6,23.64l.12,23.88-.24,22.32-.6.48-1.08.84c-2.4-9-3.72-19.44-4.08-31.56l.12-32.28A16.44,16.44,0,0,1,256.08,198.6ZM196,143.4c8.52,25.32,12.84,42.48,12.84,51.48l-.6,3.36a7.42,7.42,0,0,1-2.16,4.2c-.84-.6-1.44-2.4-1.92-5.28s-1.68-4.44-3.48-5.28a.76.76,0,0,1,1.08-.24l1.32.72-21.48-75.24L174,118l-23.4.6L108.48,121q-18.72,47.7-39.72,78.72l-1.44-1.92a6.56,6.56,0,0,1-.48-2.88q0-1.26,18-37.08,20-40,26.64-58.8l16.68-48.12C135,32,141.24,16.68,147,4.56q15.3,18.36,22.68,46.8c1.2,4.68,3,12.72,5.28,24.36,2,10.32,4,18.36,5.64,24.12l3.36,10,.48,1.32ZM293.4,77.52a5.34,5.34,0,0,1-2.88,1.8,25.46,25.46,0,0,1,2.88-5.76,44.68,44.68,0,0,1,4.08-5.64l1.32,2.4a12.08,12.08,0,0,1,.36,3.24c0,4.44-3.84,23.76-11.4,58q-11.52,52-17,69.48c-4.68-8.88-8.4-21-11.4-36.48l-3.6-18.72c-1.44-7.2-2.88-13.32-4.44-18.36a141.49,141.49,0,0,0-5,18.24L242.4,164c-3.24,14.76-7.8,26.76-13.68,35.88l-11.16-62.28q-10.26-57.78-10.2-65.16a5,5,0,0,1,1-3,5.75,5.75,0,0,1,1.8-1.32L221.4,127c4.68,24.24,7.68,43.92,8.76,58.92l.48.24a233.22,233.22,0,0,0,10.56-35.4c3.48-16.44,6.24-28.56,8.16-36.48l.48-.48,1.08-1.2a355.21,355.21,0,0,1,10,37l7.92,37.68.6.48.48.6c3.36-13.2,7.56-31.92,12.72-56.16,5.76-27.6,9.84-46.44,12.24-56.4ZM283.2,7.8l.36-.36,1.2-.72c.84,2.76,1.32,7.32,1.32,13.8a96.69,96.69,0,0,1-4.2,26.88q-7,22.68-21.24,22.68c-12.24,0-20.28-3.72-24-11-1.44-2.88-2.16-7.32-2.16-13.44l1-18.48,1-18.48A5.18,5.18,0,0,1,236.88,6a2.52,2.52,0,0,1,1.32-.84c.36,2.76.72,6.48,1,11.16l.12,8.28L238.2,34.92l-1.08,10.32a16.15,16.15,0,0,0,3.12,10.2c3.24,4.32,9,6.48,17.16,6.48,12.12,0,20-8.88,23.76-26.52A110.56,110.56,0,0,0,283.2,7.8ZM380,263.88a53.9,53.9,0,0,0,6.48,7c2.64,3,3.6,5.52,3,7.44l-.48.48-1.2.6-3-4.08a8.5,8.5,0,0,0-5.64-3.72h-7.56a53.9,53.9,0,0,0-16.08,24.12q-2.7,8.1-5,24.84l-2.64,23.88c-1.44,14.16-2.16,22.68-2.16,25.68a11.84,11.84,0,0,0,1.56,4.08,36.66,36.66,0,0,0,4.8,7.32c5.76,6.6,12.72,10,20.88,10,5.4,0,10.32-3.48,15-10.32a54.45,54.45,0,0,0,6.72-13.8h.48l.72,3,.48-6.12,1.8-24.72.24-.36-7.8.84-4-.48-6.84-.84a8.07,8.07,0,0,1-.36-3.24,14.15,14.15,0,0,1,.24-2.64l.12-.6h9.6l10.92-.24c.84,1.32,1.32,3.6,1.32,6.84q0,4.14-2.16,29.52C398,385.08,397,396,396.24,400.92h-.84a37.75,37.75,0,0,1-.72-9c0-2.4.12-6.36.48-11.88a67.68,67.68,0,0,1-5.28,9.24c-5,7.32-9.48,11-13.32,11q-18.9,0-28.08-13c-4-5.64-6-11.16-6-16.68a255.28,255.28,0,0,1,1.92-28.56c1.44-12.36,3.36-24,5.76-35,6.12-28,13.08-42.48,21-43.56Zm1.08-221.64c0,4.92-1.92,9.72-5.64,14.64-5.76,7.32-14.4,11-26,11l-5.4-.48-10.32-.84L333,65.4a7,7,0,0,1-.36-2.52,5.9,5.9,0,0,1,.36-2.4c0-6.72,1.08-16.68,3.24-30,1.8-10.56,3.24-18.24,4.56-23.16v-3c16.08-2.4,27.48,2,34.2,13.2C379.08,24.24,381.12,32.52,381.12,42.24Zm-4.56,3a9.47,9.47,0,0,0,1.8-3.72,33.56,33.56,0,0,0-6.72-20C365,12.72,355.2,8.88,342,10v.24l.12,4A169.22,169.22,0,0,1,340,38.64L336.72,58.8l7.44.6,5.28.36a31.27,31.27,0,0,0,21.72-8.4A26.05,26.05,0,0,0,376.56,45.24ZM542.4,71.16h-1.32c-.12-4.2-.36-8.28-.84-12.24a54.68,54.68,0,0,0-5.76-19.8q-14-26.64-56.76-26.64-39.24,0-57.48,43.56a136.42,136.42,0,0,0-10.44,45.84c0,12.72,4,25.08,12,37.2a206.62,206.62,0,0,0,13.92,18.36l18.48,22,30.72,39.24c12.84,16.2,23.4,28.56,31.8,37.08q30.6,30.42,47,74.88,14.4,38.88,14.4,77.16a341,341,0,0,1-3.48,47.52,323.2,323.2,0,0,1-9.84,46.2c-3.48,12.12-6.12,20-7.8,23.88a68.48,68.48,0,0,1-16.8,22.44l-11.88,10c-5,4.2-9.24,7.92-12.72,11.4l-4.08,5.16a66.93,66.93,0,0,1-5.16,6.24c-.6.6-4.92,1.8-12.84,3.48-8.28,1.8-14.16,2.76-17.52,2.76q-57.06,0-82.44-49c-11.64-22.2-17.4-49.2-17.4-80.76a32,32,0,0,1,1.8-11.4l.84-1.92.12.12a8,8,0,0,0,4.68,3.72c-1.68,4.68-2.52,7.68-2.52,9.12a177.42,177.42,0,0,0,12,60.48c15,37.2,41,55.8,77.88,55.8,9.48,0,17.16-.84,22.92-2.64a38.9,38.9,0,0,0,13.56-7.56l11.76-11.64A147.86,147.86,0,0,1,537,535.92,52.79,52.79,0,0,0,553.56,516c2-4.44,4.44-12,7-22.56q12.78-69.84,12.72-85.68a167.81,167.81,0,0,0-16.56-73.44c-9-18.48-26.4-45-52.44-79.44-7.08-9.48-17.88-22.32-32.16-38.64-15.48-17.64-26-30.12-31.92-37.44-10.92-13.92-19-26.4-24.36-37.56C409.2,127.8,406,115,406,102.72q0-46.62,21.48-73.08C439.8,14.4,455.64,5.88,474.72,4.08a68.73,68.73,0,0,1,25.2,2.16A64,64,0,0,1,522,16.92c14.28,10.8,21.48,25,21.48,42.48A48.74,48.74,0,0,1,542.4,71.16Z" transform="translate(-9.48 -3.69)"/></svg>