<svg id="Layer_1" data-name="Layer 1" xmlns="http://www.w3.org/2000/svg" viewBox="0 0 300.16 210.67"><defs><style>.cls-1{fill-rule:evenodd;}</style></defs><path class="cls-1" d="M267.36,293.88a206.77,206.77,0,0,0-7.92,42.24,79.68,79.68,0,0,0,8.4,43.32A58.48,58.48,0,0,0,284,399.12a57.34,57.34,0,0,0,33.24-4.8,32.07,32.07,0,0,0,15.24-14,114,114,0,0,0,13.8-46.56,125.4,125.4,0,0,0-3.12-39.84A314.81,314.81,0,0,1,331.8,358a33.32,33.32,0,0,1-12.72,18.24,39.37,39.37,0,0,1-22.68,7.68c-20.64-1.2-30.6-14.16-30-38.76a369.47,369.47,0,0,1,4.44-48.6ZM157.92,194.64a860.56,860.56,0,0,0-6,111.84,290.11,290.11,0,0,1-1.44,32.4,226.6,226.6,0,0,0,2.16,64,1.52,1.52,0,0,0,.84-1.32l.24-3,.84,2.4a6.13,6.13,0,0,0,1.8,2.52c28.8,1.8,57.72,2.16,86.64,1.32a12.84,12.84,0,0,0,2.16-11.4,19.14,19.14,0,0,0-1.44-3.24l-1.56-.48a61.77,61.77,0,0,0-14.88-1.08c-24.36,1.68-48.6,2.28-72.48,1.92l-.48,1.08q2.7-34,3.6-68.76,1.62-65,.6-128.28ZM379.44,294.72q2.16-40.68,3.36-81.36c21.48-4,38.28,2.4,50.64,19.08a75.46,75.46,0,0,1,4.92,16.32,11.76,11.76,0,0,1-2.16,9.36C421.68,276.6,402.84,288.84,379.44,294.72ZM382,201.48a3.59,3.59,0,0,0-1.2,2.52l-3.36,1.44,1.08,8-6.6,82.92-2,.36c-3.72,4.92-4.08,10.08-1.08,15.24l.84,1.08a317.53,317.53,0,0,0-3,86.76,13.06,13.06,0,0,0,.84,3.6,546.83,546.83,0,0,0,11-91.44l25.08-10.68a393.76,393.76,0,0,0,42.6,99l1.92,2.88c3.36-17.16,0-33.72-10.2-49.68a384.58,384.58,0,0,1-20-35.76l-9.12-18.36a55.62,55.62,0,0,0,25.44-17.64l2.28-3.24a43.59,43.59,0,0,0,7.2-21.12,94.17,94.17,0,0,0,0-11.64,57.8,57.8,0,0,0-4.8-19.56A41,41,0,0,0,428.28,212a55.1,55.1,0,0,0-12-7.68,42.42,42.42,0,0,0-33.12-1.68v-.48C382.56,201.6,382.08,201.36,382,201.48Z" transform="translate(-149.18 -194.52)"/></svg>