<svg id="Layer_1" data-name="Layer 1" xmlns="http://www.w3.org/2000/svg" viewBox="0 0 570.84 593.88"><defs><style>.cls-1{fill-rule:evenodd;}</style></defs><path class="cls-1" d="M340.32,551.76,335.88,557a4.24,4.24,0,0,1-2.28-3l-.48-4.2c-.48-3.48-3.48-5.28-8.88-5.28l-10.8.24-1.92,1.08a89.49,89.49,0,0,0,12.12,13.32l10.8,9a44.16,44.16,0,0,1,7.92,7.8,17.47,17.47,0,0,1,3,10.08c0,8.28-4.08,12.36-12.12,12.36a25.82,25.82,0,0,1-7.92-.84l-27.24.24c-10.2-2-17.76-5.4-22.44-10.08-3.72-3.6-5.52-7.56-5.52-11.88a21.7,21.7,0,0,1,1.08-7l1.44-.84a7,7,0,0,1,3.24,4.32,16,16,0,0,0,2.76,5.76c4.08,4.68,15,7,32.64,7l23-.24.84-.36q1.26-.36,2.88-.72A73.45,73.45,0,0,0,326.16,570l-10.68-8.4c-3.72-2.76-6.36-5.16-7.68-7.08a15.39,15.39,0,0,1-3-9.72,17.92,17.92,0,0,1,1-6.84c1-2,3.24-4.2,6.84-6.6Q341,532.44,341,546.84C341,549.36,340.8,550.92,340.32,551.76Zm-48.72-27-.36,4.08-.6.48-1.2.6a114,114,0,0,1-13.08-27.12c-2.16-6.36-4.8-15.72-7.8-28.08l-12.72,29c-5.64,12.12-11.16,22.32-16.8,30.48-2.28-13.2-4-22.92-4.8-29.28A229.83,229.83,0,0,1,232,474.48l-.24-.6L211.92,502a220.93,220.93,0,0,1-24.6,28l-2.4-2.28a2.89,2.89,0,0,1-.48-1.8c0-.84,6.24-9.36,18.84-25.44C219,480.36,228.6,468,232,463.32c3.24,6.36,5.4,16,6.48,28.92l2.28,28.8.24.24c4.8-7.32,10-17.52,15.48-30.84q8.46-21.06,11.88-28.44l14.4,37C288.6,514.44,291.6,523.08,291.6,524.76ZM337,477.48c0,3-.24,7.92-.72,14.52l10,1.2c9.24,0,15.72-1.8,19.44-5.52a9.24,9.24,0,0,0,3.24-6.84c0-1.56-1.56-4.2-4.8-7.68-4-4.32-8-6.48-12.48-6.48a61,61,0,0,0-10.56,1.2l-4.44,1A85.17,85.17,0,0,1,337,477.48Zm.12-18.72c4-1,8.88-.6,14.52,1.2a39.61,39.61,0,0,1,14.52,8c4.44,4,6.6,8.16,6.6,12.6a23.08,23.08,0,0,1-3.48,12.6c-4,5.88-10.56,8.88-19.8,8.88l-13.92-.6c-1.32,15.12-2.76,24.6-4.44,28.44a7.92,7.92,0,0,1-1.44-3.24L329.4,523c0-8.64.12-16.2.48-22.56l-4.56-1.32c-3-1.32-4.56-2.76-4.56-4.56,0-2.76,1-4.08,2.88-4.08l6.84.72a127,127,0,0,1,3.48-21.6,13.5,13.5,0,0,0-1.8.84,1.82,1.82,0,0,1-1.2-1.08,5.18,5.18,0,0,1-.48-2.64C330.48,462.48,332.64,459.84,337.08,458.76Zm-9.24-95.28c2.76,0,4.68.36,5.64,1.08l.12.6.12,2.64a6.65,6.65,0,0,1-.72,3.36c-.84,1.44-2.64,2.16-5.16,2.16a16.12,16.12,0,0,1-6.24-.84l-2.16-1.56q-2.7-1.44-16.56.72c.36,6.12.6,13.68.6,22.68l-.24,4.32a7.57,7.57,0,0,1,3.84-2.4,27.38,27.38,0,0,1,10.44-1.08,37.48,37.48,0,0,1,10.44,2c3.12,1.32,4.68,2.64,4.68,4.2l-.24,3.24-.36.12-.72.72H303.48l-.36-.6-.84,16.68c-.72,19.08-1.2,33.6-1.32,43.44l-.6.48-1.2.6q-1.08-6.48-1.08-19.8c0-2.64.12-6.6.48-11.76a127.43,127.43,0,0,1,1.68-16.32V365.4c.48-1.56,1.08-2.52,1.92-2.64v.36l.72-.72,13.2.48ZM233.28,361l.12-1.2h.36l.12-.24.24.24a47.66,47.66,0,0,1,10,1.8,50.22,50.22,0,0,0,10.08,1.68l9.6-1L274,360.6l1.08,2,.24,2.76a6.15,6.15,0,0,1-1.08,4.08c-1.44,1.8-4.44,2.76-9.12,2.76a120.33,120.33,0,0,1-22.2-1.8l-7.68-1.68L233,400.92a15,15,0,0,1,2.76-2.76l29.64-1.8c1.8.12,2.76.6,3.12,1.44a14.5,14.5,0,0,1,.24,3.36c0,2-.12,3.12-.48,3.24l-7.32.48L249.84,406,233,407.64l-.36-.6-.12,1.2c-1.8,25.56-3.24,42.36-4.08,50.28l-.6.48-1.32.6c-.72-1.56-1.08-4.44-1.08-8.52,0-12.12.84-28.2,2.4-48.36,1.56-20.76,3.36-34.56,5.28-41.16Zm5.88-104.16c-4.68-2.28-11.88-3.48-21.48-3.48l.24,6.24c0,3.84-1.32,13.08-4,27.6a36.93,36.93,0,0,0,8.88-3,4,4,0,0,1,1.08-1.68l.48.84A53.36,53.36,0,0,0,234.48,276a59.47,59.47,0,0,0,10.2-11.76C244.68,261.12,242.88,258.6,239.16,256.8Zm9.12,7.92c0,5-3,10.56-9.12,16.44a126.35,126.35,0,0,1-10.92,8.76c4.92,8.52,11,19.56,18.36,33.36,9.72,18.48,14.64,28.44,14.64,30l-.24,3.24-.48.48-1,.84q-7.92-13-22.32-39.6c-6.48-12.12-10.8-20.52-13.08-25.44l-5.64,3.84-6.36-.24-3.36,17L199.32,360a13.18,13.18,0,0,1-1.56-5.4l-.36-3.84q0-6.48,8.28-47.88l1.32-6.72a12,12,0,0,1-2.52-3.12,5.6,5.6,0,0,1-.6-1.92c0-1.92.24-3,.6-3.24l4-.24h.24l7-34.44c-2-.12-3.24-.72-3.84-1.8a4.84,4.84,0,0,1-.36-2.4c0-2,.36-3.36,1.08-4.08,1-.84,3-1.32,6-1.32,13,0,21.84,3.36,26.52,10.2A18.68,18.68,0,0,1,248.28,264.72ZM36.48,20.64a30.81,30.81,0,0,1,.36-5.76c.36-2.52,1.32-4.2,2.64-4.92q4.86,27.18,5.76,43.56c.36,5.16.48,17.16.48,36,0,22-.12,35.64-.36,40.92a228.48,228.48,0,0,1-6.12,41.88v69.84a70.34,70.34,0,0,1,1.08,14.16q0,9.54-5.4,84.36L36,358.8l1.08,18c0,9.12-1.08,25.2-3.24,48.12l-4.32,43.56v61l-1.08,4.08V573l55.44,2.4a22.34,22.34,0,0,0,7.92-1.08c1.8-.72,6-1.08,12.36-1.08,4.92,0,8.52-.84,10.68-2.52a32.27,32.27,0,0,1,2.64-3.48c1.56.36,2.64,1.92,3.36,4.44a19.58,19.58,0,0,1,.72,5.4,13.51,13.51,0,0,1-.6,4.8c-.36,1.08-1.44,1.68-3,1.68a21.38,21.38,0,0,0-5.64,1.08,35,35,0,0,1-9.72,1.08l-8,1.32-7.92,1.32L74,587.64c-8.52-.36-16.32-.36-23.16,0-13.56.48-22.32-.6-26.16-3.36a5,5,0,0,1-2.28-3.48v-3a20.39,20.39,0,0,1,1.08-6.48v-43l1.08-4.08V464.16l4.56-42.24c2-20.16,3-35.28,3-45.36l-1.08-18.12-1.08-18,2.64-44.52c1.68-27,2.28-43.44,1.68-49.08V168a230.18,230.18,0,0,0,6.12-40.8c.36-4.8.48-17.28.48-37.56a362.24,362.24,0,0,0-2.28-43.56C37.2,33.36,36.48,24.84,36.48,20.64ZM213.36,212.28q-2.88,18.18-8.64,28.8a18.2,18.2,0,0,1-2.52-2.28,2.89,2.89,0,0,1-.48-1.8c0-4.44,1.8-14.4,5.28-29.76,4.2-18.36,8.52-30.36,12.84-36,3.72,7.68,7.44,18.36,11.28,32,4.68,16.92,7.92,27.6,9.6,32.16h.72c1-8.52,2.52-19.32,4.56-32.16l5.52-32a7.3,7.3,0,0,1,1.8,2.88,14.87,14.87,0,0,1,.36,3.72q0,5.76-5,34.56c-3.48,19.8-5.88,31.2-7.44,34.44q-5.4-10.62-11.16-32.4c-3.84-14.76-7.56-25.56-11-32.64C217.8,186,215.88,196.2,213.36,212.28ZM203.88,13.2a14.52,14.52,0,0,1,1.92,7.32c0,4.92-1.2,15.12-3.48,30.84l-4.08,26v64.92a761.35,761.35,0,0,0-13.08,123.36v61.56c-2.4,34-3.72,54-4.08,60.12-1.2,23.4-1.2,43.32,0,60,.6,9.24-.24,20.4-2.52,33.72a219.91,219.91,0,0,1-10.2,38.64c-4.8,13.44-10.2,24.12-16.08,31.92-6.6,8.76-13.44,13.2-20.28,13.2-7.8,0-16.56-3.6-26.4-10.8s-15.48-14.16-17.4-21.12A80.91,80.91,0,0,1,85.56,516l-1.44-17.16V414.36c-.48-8.76-1-21.12-1.44-37L82,353.52q0-17.28,2-78.48,1.62-47.88.12-81.24V122.28c2.76-20.52,4.56-38.28,5.16-53.4.12-5.88.24-22,.24-48.48,0-3.72,1-6.12,3-7.2.84,1.56,1.68,5.28,2.28,11.16.48,4.92.72,8.76.72,11.64,0,12.6-.72,27.72-2.16,45.48L89,127v62.52c.72,10.2,1.08,25.8,1.08,46.56,0,19.8-.6,40.56-1.68,62.16S86.88,338,86.88,352.92l.72,22.56Q88.32,398,89,410v82.8l.6,15.24a61.46,61.46,0,0,0,2,14.88q2.88,9,18,19.44a87,87,0,0,0,10.8,6.6c3.24,1.8,5.4,2.64,6.48,2.64q31.14,0,43.2-54.6a263.88,263.88,0,0,0,5.28-38.64c.24-3.84.48-10.68.72-20.4l1.56-57.72c.6-23.4,1.44-42.6,2.76-57.6V262c1.32-44.4,5.52-85.8,12.84-124.2V72.84C195.12,58,196.68,47,197.76,40,199.56,27.48,201.6,18.6,203.88,13.2Zm129.84,72Zm-13.2,17.16a4.15,4.15,0,0,1,2.4,3.72l-.24,3.24-.48.48-2,.36c-2.28,0-4.8-1.32-7.56-3.84-16.2.84-27.48,11.88-33.84,33A143.4,143.4,0,0,0,274,164c-.6,4.92-1.32,10.68-1.92,17.28-.84,4.68-2,17.76-3.84,39-1.8,21-2.64,33.72-2.64,38.16l.12,15.6c.36,11.52,1.08,22,2.16,31.44,3.36,29.88,10,44.76,19.68,44.76,12.72,0,22.08-6.36,28.2-19.2a74.82,74.82,0,0,0,4.8-14.64c1.08-5.28,1.8-8.52,2.16-9.6l1.08-.24,1.08,1.8.24,2.64c0,1.32-.72,4.32-2.28,9.12a115.9,115.9,0,0,1-6.6,16.32q-11.34,22.68-25.2,22.68-20.34,0-26.52-49.56A327.36,327.36,0,0,1,262.2,275l.12-16.56c0-11,.72-24.6,2.28-40.56l4.2-41.52c-.6-7.56.12-16.2,2.28-26.16a126.24,126.24,0,0,1,9.12-27.84c4.32-9.24,9.12-16,14.52-20.4,6-5,12.12-6.48,18.24-4.32ZM272.76,46.2c4,4.44,8.76,10.44,14.52,18,9.36,12.12,14,18.84,14,19.92L301,87.36V88c-.12.36-.72.48-1.8.48-1.8,0-8.16-7.44-19-22.2l-13-18.12a90.06,90.06,0,0,1-23.88,2.76,3.5,3.5,0,0,1-2.64-.84c-3.48,17.88-6.12,30.72-7.92,38.4-1.32-1.2-1.92-3.72-1.92-7.68,0-1.2,1-6.84,3-16.8l3.84-20.16,2-19.2A66.28,66.28,0,0,1,241.08,16l-.12-.24a14.57,14.57,0,0,1-.24-2.76,11.31,11.31,0,0,1,.6-3.6,4.27,4.27,0,0,1,2.28-2.64l.84,1.08.24.6c19.32-1.68,31.92,1.08,38,8.28A14.66,14.66,0,0,1,286.08,29a16.13,16.13,0,0,1-5.52,12.12A27.29,27.29,0,0,1,272.76,46.2ZM269.4,17.64l-23.28-.48v.24c0,2-1.44,10.68-4.2,25.8a20.33,20.33,0,0,1,4.44-1.68l14.88-2.4A82.39,82.39,0,0,0,276.12,36c4.44-1.68,6.72-4.08,6.72-7.2,0-2.4-1.32-4.44-4-6A91.76,91.76,0,0,1,269.4,17.64Zm112,154.8-1.08,68.28-.12,10.68.12,1.92-.24,2.4-.12.12c-.36,10.32-1.2,23.16-2.28,38.4-1.8,24-2.76,39.72-2.76,47.28a10,10,0,0,0,1.08,3.72,8.49,8.49,0,0,1,1.08,3.6c0,1.56-.72,4.32-2,8.52-1.32,4-2.28,6.36-2.76,7-1.08-2.52-1.68-6.48-1.68-11.88l2.16-32.16c1.44-21.48,2.16-35.52,2.16-42.36a97.74,97.74,0,0,0,3-20.52l-21,1.44-7.44,1-12.72-.24c-.12,5-.12,11.28,0,18.84l.24,16.44-1.08,17.4-1.08,17.4a55.26,55.26,0,0,0,1.08,7,52.19,52.19,0,0,1,1.08,7,90.23,90.23,0,0,1-1.8,9.12c-1.32,5.4-2.28,8.64-2.76,9.48a10.75,10.75,0,0,1-2.52-2.76,3.28,3.28,0,0,1-.48-1.68c0-11.64.6-24.48,1.68-38.4s1.56-29.4,1.56-46.32c0-1.56.24-5,.72-10.68l.48-5.4-.12-1.44L334,253l.24-.36.6-5.52v-71.4l-.84-2-.24-2.88a5.12,5.12,0,0,1,.72-2.88c.36-.6.72-1,1.2-1,1.32,5.88,2,13.32,2.4,22.44V211.2l-.12,17.16c-.12,9.6-.36,17.28-.72,22.92l12.6-1,7.2-.84c0-.36,7-.36,21-.24l-.24-8.28c-1.2-16.68-1.8-29-1.8-37,0-10.08.12-16.68.36-19.92.48-8,1.68-14.52,3.72-19.32A20.5,20.5,0,0,1,381.36,172.44Zm26.4-161.16a4.23,4.23,0,0,1,.72,2.76c0,1.32-10.56,13.8-31.68,37.56l-15,16.92c3.48,9.24,8.76,25.2,16,47.88q15.48,48.42,15.48,52.56v2.28l-.24,1.44-.48.48-.84.84c-4.92-9.48-11.88-29.64-21.12-60.6C364.68,93.84,360.84,80,359,71.76,346,86.76,336.72,97.44,331.56,104v11.52c-1.2,12.12-2.16,20.88-3,26.16-.12,1.56-.24,7.32-.24,17.28q0,2.88-2.16,9.36l-1.08.24c-.72-2.76-1.08-7.32-1.08-13.8a240.3,240.3,0,0,1,4.32-43.8v-7.56l-.36-.72-.72-1.8a5.57,5.57,0,0,1,1.08-2.16V49.2c.36-1.8,1.32-8.4,2.76-20,1-8.52,2.52-14.88,4.56-19.2l1.68,2.76a8.05,8.05,0,0,1,.72,3.36c0,2.52-.84,8.4-2.64,17.88L331.56,53V94.2c4.68-6.24,13.32-16.8,25.68-31.56l.48-.6.12-.6.6-1.32.36.6c20.52-24.6,36.24-41.64,46.92-51A6.56,6.56,0,0,1,407.76,11.28Zm59.16,31.8c-.72-.6-1.68-2.4-3-5.28l-3.72-8.64c-3.48-7.68-6.48-11.52-9.24-11.52-15.24,0-25.44,13.68-30.36,40.92a266.86,266.86,0,0,0-3.72,48.6q-3.6,39.24-12,90.12v47.88a35.67,35.67,0,0,1-1.08,4.92v5.28l.48,2.76c.24,2.4,1.32,4,3.12,4.68l21.36-1.08,7.32-.84c5.88,0,9.84,1.68,11.88,5.16a11.53,11.53,0,0,1,1.32,5.64A26.89,26.89,0,0,1,449,276q-.36,2.16-2.16,2.16l-7.8-1.08L427.44,276c-10.2,0-18.12-.84-23.64-2.52v18c.36,2.76.72,6.72,1,11.88l.12,9L402.72,379l.12,24c.12,18.36.48,35.28,1.08,50.64q2.7,73.08,11,73.08c15.12,0,26-8.16,32.88-24.48a137.23,137.23,0,0,0,5.64-19.44,127.29,127.29,0,0,1,3.72-13.92A33.2,33.2,0,0,1,459,480.6c0,1.68-.72,5.4-2.16,11a128.06,128.06,0,0,1-6.72,20.16c-8,18.84-17.88,28.2-29.28,28.2l-8-.36q-8.1-22.5-12.12-76.68-2.7-39.42-2.76-83.52c0-16,.12-37.56.48-64.92l.6-43-2.64-2-.84-1-.84-7.32a13.58,13.58,0,0,1,1-5.16,7.41,7.41,0,0,1,3.6-3c.12-4.8.48-8.76.84-12V193.2c1.92-12.36,4.32-30.72,7.08-55.08,3-25.92,5.4-44.4,7-55.32,1.2-12,2.28-21.12,3.12-27.36a101.31,101.31,0,0,1,7.68-27.84C430.32,16.2,435.84,9,441.6,6q7-3.6,14,1.8c3.72,2.88,6.84,7.32,9.6,13.32q3.6,8.1,3.6,13.32A17.06,17.06,0,0,1,466.92,43.08Zm92.88,48.6q9,19.26,14,32a260.86,260.86,0,0,1,16.8,63.72c1.8,13.92,2.64,34.2,2.64,60.84q0,13.14-3.24,46.08a782.35,782.35,0,0,1-15.12,95.52Q561.06,450,540,484.32q-26.46,42.66-62.76,42.6H476l-.24,2.28,15.84-3.72A584.28,584.28,0,0,1,560,513.12a11.23,11.23,0,0,1,1.2,9.72l-1.8,3a326.58,326.58,0,0,0-39.12,7L499.92,538l-2.28,25.56c-1.68,16.8-2.76,25.8-3.12,27-.84-1-1.44-3-1.92-6.24a39.17,39.17,0,0,1-.48-5.64c-.48-13-.6-22.68-.24-29.16a74,74,0,0,1,1-9.72l-4.8,1.32-11.28,2.64-15.84,2.76A41.82,41.82,0,0,0,446,551.4a29.48,29.48,0,0,0-4.68,3.48c-6.72,0-11-1.32-13.08-4.08-.84-1.08-1.2-2.76-1.2-5.28a10.17,10.17,0,0,1,.48-3.48,9.28,9.28,0,0,1,2-3.12c10.68-1.8,25.68-4.92,44.76-9.36-1.56-2.4-2.28-6.48-2.4-12.36l.6-10.08c0-8,.12-17,.48-27.12.6-17.16,1.44-28.56,2.76-34.2V393a123.91,123.91,0,0,0,1.68-15.48l.48-10.8-1.08-19.08-1.08-19.08L477.12,314a166.74,166.74,0,0,0,.84-21.48L476.88,258c0-13.56.24-23.28.84-29.16,1.08-10,2.28-22.56,3.48-37.8V32.76a142,142,0,0,1,4.68-15.48l-.36-2c0-4.8,2.64-6.72,7.8-5.88C498,10.2,504,13.2,511.2,18.48a119.09,119.09,0,0,1,20,19q10.26,12.24,14.4,23.76Zm-18-21.84a53.32,53.32,0,0,0-14-22.92A83.5,83.5,0,0,0,509,33.72c-8-4-13.56-7-16.44-8.76l-2.52-1.8-1.2,5.4-2.76,9V195.12q-2.7,32.4-5.4,133l1.08,19.08,1.08,19.08-.12,15.36c-.24,7-1,12.12-2,15.48v53.64c-1.2,9.36-2.16,22.8-2.76,40.2l-1,21.36a1.93,1.93,0,0,0,1.32.36q33.66,0,58.44-40.68c13.32-21.72,24.36-51.72,33.24-89.76a753.62,753.62,0,0,0,14.88-90.72c2.28-21.48,3.48-36,3.48-43.44,0-25.44-1-44.28-2.88-56.64q-3.78-24.3-17.64-62.28c-2.28-6.12-6.72-16-13.32-29.76C548.28,86.52,544.08,76.68,541.8,69.84Z" transform="translate(-22.44 -4.56)"/></svg>