<svg id="Layer_1" data-name="Layer 1" xmlns="http://www.w3.org/2000/svg" viewBox="0 0 308.6 208.01"><defs><style>.cls-1{fill-rule:evenodd;}</style></defs><path class="cls-1" d="M309.36,315a75.37,75.37,0,0,1,1.56,37.92q-7,33.3-40.32,32a51,51,0,0,1-5.76-5.64,123.1,123.1,0,0,1-3.12-45.48,232,232,0,0,0,.48-44.64,320.91,320.91,0,0,0-7.68,75.48c.12,14.76,5.4,26,16.08,34.08a10.87,10.87,0,0,0,11.28,1.32c25.32-9.84,38-28.44,38.4-55.92.12-9-.12-18-.72-26.88-.84-11.4-4.2-20-10.32-25.92A41.72,41.72,0,0,0,309.36,315ZM160.2,400.32l75.12-1a6.9,6.9,0,0,0,2.88-4.56l.24-1.56.12-1.68-.24-1.68-.24-1.56a4.77,4.77,0,0,0-1.68-3.24q-14-.36-29.16-.36l-30.6-1.44a26.65,26.65,0,0,0-17.28,5.28l-.36,9.72Zm-4-202.8A342.71,342.71,0,0,0,155.16,239a1124.62,1124.62,0,0,1-3,128.88c-1,12.48.6,22.92,4.56,31.44,3-24.84,4.8-49.92,5.52-75.48a1085.41,1085.41,0,0,0-3.72-128.28A1.93,1.93,0,0,0,156.24,197.52ZM408,215c2.76-5,2.64-9.84-.48-14.52l-89.88,6.72c-1.56,4-1.2,7.56,1.08,10.56,15.72.6,31.32.72,47,.36q-5.22,59.22-6.48,119.28a219.46,219.46,0,0,1-3,32.16c-1.92,12.36-.36,22.92,4.68,31.92a32.6,32.6,0,0,0,4.2-16.2c-.12-15.84.24-31.8,1-47.88,1.92-40.2,2.4-80,1.32-119.28l40.08-2.52Zm43.56-1c-.12,19.68-.36,39.48-1,59.28l-.36,17.16L430.8,290a109.59,109.59,0,0,0-21.48,3.36c-.12-20.76-.72-41.28-1.8-61.8-3.24,4.56-4.8,10.32-4.92,17.4q-.54,64.44-3.84,128.88-.72,14.76,5.76,23.4a3.7,3.7,0,0,0,.84-1.68c1.56-13,2.64-26.16,3.12-39.6.6-19,1-37.8.84-56.52,13.2.72,26.76.84,40.68.24-.6,32.64-1,65.28-.84,97.8.6,2,1.68,2.52,3.48,1.68q4.5-38.52,5.76-77.88l.6-22.92a12.18,12.18,0,0,0,.6-10.44l-.48-.84L459,291q.36-47.34-3.12-94C453,201.6,451.56,207.24,451.56,214.08Z" transform="translate(-151.88 -195.59)"/></svg>