<svg id="Layer_1" data-name="Layer 1" xmlns="http://www.w3.org/2000/svg" viewBox="0 0 447.74 356.88"><defs><style>.cls-1{fill-rule:evenodd;}</style></defs><path class="cls-1" d="M105.6,134.52c-1.32,20.76-2.16,41.64-2.52,62.52-.84,43.08-2.4,86-4.44,128.88-2.16,43.08-2.76,85.8-1.8,128.4a8.79,8.79,0,0,0,4.44,1.68q89.46,6.3,178.68,4c3.6-5.4,3.84-11.16.6-17q-84.24.18-169.68-.72a17.41,17.41,0,0,1-9.12-2.52q2.7-61.56,3.72-123.36c.84-43.08,2.16-86,4.2-129.12a539.86,539.86,0,0,0-1-64.08q-3.78,1.26-3.24,6.48A33.28,33.28,0,0,1,105.6,134.52ZM356,135.84a584.39,584.39,0,0,0-1.32,79.56A345.74,345.74,0,0,1,338,341.88a77.56,77.56,0,0,1-17.76,29.52q-36.18,37.44-89.16,18.84a22.74,22.74,0,0,1-10.2-7.2c-14.64-17.64-22-38.52-22-62.4a1112.77,1112.77,0,0,1,7.68-128,416.58,416.58,0,0,0,2.52-64.32,248.1,248.1,0,0,0-7,39.48c-3,31.08-6.12,62-9.36,93.12Q186,327.3,208.08,388.56q26.46,30.06,69.24,22.56,51.3-9,66.48-58.8c3.24-10.92,6-21.84,8.28-32.88a547.33,547.33,0,0,0,10-127.8q-.54-16.38.36-32.4C363,149.16,360.84,141.36,356,135.84Zm186.48,21.84q-20.88-29-59.76-22.08a133.2,133.2,0,0,0-48.12,26.76A88.07,88.07,0,0,0,412.56,191,252.38,252.38,0,0,0,390,268.44a598.33,598.33,0,0,0-3.24,111.72,113.63,113.63,0,0,0,12.84,46.2q20.34,39.06,67.68,31.92a133.53,133.53,0,0,0,28.2-7.32c18.84-7.08,31.44-19,37.8-35.88l-.24,14c-.12,6.24-.48,12.36-1.2,18.48-1.32,11.88-.12,22.68,3.84,32.4A13.06,13.06,0,0,0,540,469.68q-.18-35.64,1.2-71.28a632.79,632.79,0,0,0-.6-64.2l-69,2.16-.24.84a13.19,13.19,0,0,0,.24,6.48,273.29,273.29,0,0,0,64.68,5.16c-.84,11.64-1.44,23.4-1.92,35l-2.64-3.72q3.6,23.58-14.76,38.52Q485.82,444.24,446,440.52q-44.64-4.14-49.68-47.4c-1.68-15-3.12-30.12-4.44-45.36a326.52,326.52,0,0,1,13-122.88q10.8-35.82,41.64-57.72,49.5-35.1,96-.48Q545.76,162.36,542.52,157.68Z" transform="translate(-96.4 -123.12)"/></svg>