<svg id="Layer_1" data-name="Layer 1" xmlns="http://www.w3.org/2000/svg" viewBox="0 0 487.88 414.6"><defs><style>.cls-1{fill-rule:evenodd;}</style></defs><path class="cls-1" d="M77.88,83.16A419.86,419.86,0,0,0,66.36,161.4c-2.28,42.6-3.84,85.44-4.92,128.4s-2.4,85.56-4.2,128.28a320.49,320.49,0,0,1-3.12,32.16,32.55,32.55,0,0,0,.6,15l-.12.72-.12.84-.12,2.4a16,16,0,0,0,.6,4.08l.84,1.56a738.38,738.38,0,0,0,127.56,7.08,6.21,6.21,0,0,0,2.28-3.24l.12-.84.48-2.4a9.87,9.87,0,0,0,.24-3.24l-.36-3.36a6.83,6.83,0,0,0-2.76-4.8H181.8a531.56,531.56,0,0,1-111.48-4.56l-8.28.6c2-18.6,3.48-37.44,4.08-56.4q2.16-64.08,3.24-128.16Q70.44,210.9,77,147.36A386.54,386.54,0,0,0,78.48,83Zm262,75.36q8.1,68.58-52.68,102.36l2.64-40.56A1100.54,1100.54,0,0,0,291,107.88c11.52-.6,21.24,3,29,10.68A65,65,0,0,1,339.84,158.52Zm-92.4-55.68q1.62,54.54,2,109.56a991,991,0,0,1-7.56,128.28q-5.22,42.48-32.88,74a18.61,18.61,0,0,1-9.36,5.88q-37.8,9.54-53-26.28A122.21,122.21,0,0,1,136.92,348c-.6-42.84.36-85.92,2.64-129s4-85.56,4.92-127.56a149,149,0,0,0-7.08,39.72c-.6,14.52-1.44,28.92-2.4,43.2q-4.32,63.9-5.88,128.16A368.71,368.71,0,0,0,139,398c4,16.32,13.08,28.56,27.48,36.84q35.28,20.16,56.76-15A149.69,149.69,0,0,0,241.32,376,614.24,614.24,0,0,0,258,247.32c.72-32-.12-63.84-2.52-95.64a140.1,140.1,0,0,1,1.2-32.4q2.34-15.48-6.12-23.76A8.25,8.25,0,0,0,247.44,102.84ZM289.92,92l-.36,3.6-.48.36-.72.6a4.83,4.83,0,0,0-1.08,2.4,15.27,15.27,0,0,0,.36,6.6,3.27,3.27,0,0,0,.84,1.56q-4.86,51.66-6.12,104.16c-1,43.08-3.6,85.8-7.8,128.4C270.36,382.56,265.32,425,259.2,467a47.37,47.37,0,0,0,4.32,22.68,1.71,1.71,0,0,0,1.2-1q6.84-38,10.44-76.8c4-42.48,7.32-85,10.32-127.56l.48-5.76.24.12a111.26,111.26,0,0,0,20.16-13.44,372.15,372.15,0,0,0,9.48,69.36q14.4,62.1,25.08,125c2,12,6.24,22.2,12.48,30.6A16.68,16.68,0,0,0,357,476.4c-1-6.36-2.16-10.44-3.6-12.12q-9.9-42.3-19.08-86L310,262.2a124,124,0,0,0,21.36-26.28q30.42-50,8.76-103.8-12.78-31.86-44.64-37.44a9.81,9.81,0,0,0-4.92.6L290.28,92Zm122.4,61.44c-17.16,4-28.92,13.92-35.4,30.12a396.63,396.63,0,0,0-16.8,52.8q-15.66,65.34,11.52,125.52a41.53,41.53,0,0,0,10.68,14.52c17.28,15,35.76,14.28,55.32-1.92a93.47,93.47,0,0,0,12.48-12.36c9.6-11.64,10.68-22.44,3.36-32.28a3.18,3.18,0,0,0-1.92,1.8A58.07,58.07,0,0,1,426,361.32q-34.2,20.16-49.92-12.84a112.5,112.5,0,0,1-10.8-40.2,306,306,0,0,1,9-100q9.9-38.34,48.6-38.16a28.12,28.12,0,0,1,5.88,5.4c2.16,2.52,4.56,3.6,7.08,3a8.15,8.15,0,0,0,.84-7.92,33.47,33.47,0,0,0-13-15.6,6,6,0,0,1-2.88-1.08C418.44,152.4,415.56,152.16,412.32,153.48Zm127.32-17.64a108.07,108.07,0,0,0,1-32.76c-4.68,4.56-7.44,10.8-8,18.6-3,40-5.76,79.92-8.28,120.12l-2,31.08-1.08-1.68a245.17,245.17,0,0,0-43.08,1.56q.54-55.44,5-110.28a501.35,501.35,0,0,0,1.2-64.2c-3.72,4.92-5.76,11.28-6.12,18.84-1,20.52-1.68,41.16-2.28,61.8q-2,64.26-6.12,128.16l-8.4,129.24a259.44,259.44,0,0,1-3.84,32c-1.8,10.2,0,18.12,5.64,23.52a149.41,149.41,0,0,0,6.36-39.72q2-64.26,7.2-128.16c.84-10.92,1.32-21.72,1.32-32.52v-6a177.31,177.31,0,0,0,43.08,1.92q-3.06,41-7.44,82.08L507,433.2a202.25,202.25,0,0,0,3.36,64.44c.72-.36,1.08-.6,1.08-1,3.24-29.64,5.76-59.28,7.56-89.16,2.76-42.6,6-85.2,10-127.56q5.94-63.9,9-128A143.13,143.13,0,0,1,539.64,135.84Z" transform="translate(-53.54 -83.04)"/></svg>