<svg id="Layer_1" data-name="Layer 1" xmlns="http://www.w3.org/2000/svg" viewBox="0 0 251.06 204.72"><defs><style>.cls-1{fill-rule:evenodd;}</style></defs><path class="cls-1" d="M172.2,318.24q-2.52,40.14-1.68,80.28c1.32-4.08,2.28-5.16,2.76-3.24l1.08,2,88.08.36a9.6,9.6,0,0,0,2.76-7.56l-.24-2-.36-2.52-.6-1.68-.72-1.56a50.39,50.39,0,0,0-17.88-2,54.89,54.89,0,0,1-17.16-.84c-18.72-4-36.36-1.92-52.8,5.88q4.86-67.68,6.72-135.6l.36-16.32q.18-20-1.44-39.6a627.71,627.71,0,0,0-7.8,92.52C173.16,297,172.8,307.56,172.2,318.24Zm242-26.64A279.61,279.61,0,0,1,404.76,359a58.88,58.88,0,0,0-5.16,5.76c-11.28,13.56-25.08,17.28-41.28,11.16-5.28-2-8-5.88-8.16-11.52q-1.62-38.52-3.6-76.32-3.78,3.6-4,10.08c-.36,11.16-1,22.56-1.92,34a129.84,129.84,0,0,0,4.44,46.2A16.44,16.44,0,0,0,353.76,389q32,16.92,52.68-13.44a12.72,12.72,0,0,0,5.52-7.44A210,210,0,0,0,421.32,312C421.68,302.52,419.28,295.68,414.24,291.6Z" transform="translate(-170.29 -193.8)"/></svg>