<svg id="Layer_1" data-name="Layer 1" xmlns="http://www.w3.org/2000/svg" viewBox="0 0 421.58 320.88"><defs><style>.cls-1{fill-rule:evenodd;}</style></defs><path class="cls-1" d="M92.4,136.44c.6,29.52.48,59-.6,88.44C90.24,268,89,310.92,88.08,354a201.32,201.32,0,0,1-3.24,32c-1.32,7.08-.84,13,1.56,17.64l.12,1.68.12.72A10.3,10.3,0,0,0,88,410l1.32,1.8A375.06,375.06,0,0,1,198,410.76a17,17,0,0,0,2.4-13l-.12-.84a10.51,10.51,0,0,0-1.92-3.84l-1.92-1.92L191,391l-72-3-14.16,3-3.12.6-8.16,2a235.45,235.45,0,0,0,1.92-27.72c.6-43.08,1.92-86.16,4-129a1016.71,1016.71,0,0,0-1.56-128.4C94,116.28,92.16,125.52,92.4,136.44Zm89.4-18.84a387,387,0,0,0-7.32,80.16q.9,64.26,3.24,128.16,1.44,38.88,35.4,55.92t54.24-11.64a42.16,42.16,0,0,0,5.76-11.64,244.48,244.48,0,0,0,11.64-79.8c-.72-43.32-1.8-86.28-3.12-129.12-.36-12.6-3.36-23.16-8.88-31.44l-.6,1a50.43,50.43,0,0,0-3.24,16.92,195.06,195.06,0,0,1,4.2,31.44c2.52,43.08,3.48,86,3,129.12a134.13,134.13,0,0,1-8.76,47.16c-8.52,22.68-25,30-49.56,22q-24.66-7.92-29.52-32.76A421.37,421.37,0,0,1,181,245.76c.48-22,1.08-43.68,1.68-65q1.08-32.94.72-64.08C182.52,116.52,181.92,116.76,181.8,117.6ZM483,121.08a69.1,69.1,0,0,0-25.2-7.68C432.48,135.24,417.12,162.72,412,196a620,620,0,0,0-6.48,131.64,251.06,251.06,0,0,0,7,46.32,115.29,115.29,0,0,0,7.68,20.88l1.56,2.88,1.92,2.76,4,5A48.36,48.36,0,0,0,443,417a31,31,0,0,0,21.48,2,46.78,46.78,0,0,0,27.72-19.44A37.2,37.2,0,0,0,495.72,428l.84,1.32q12.42-43.56,1.08-85-1.8-6.3-9-7.92a40.31,40.31,0,0,0-16.08-.12L467,337.68c-2.76,3.36-3.12,7.32-1.08,11.76l.48.6,30.36,5.76c1.32,5,.24,9.24-3.24,12.72a41.1,41.1,0,0,1-17.28,25.8,30.45,30.45,0,0,1-19,5.64,32.69,32.69,0,0,1-16.08-5.16A41.34,41.34,0,0,1,429,382.08l-2.16-3.72-2.16-3.6-3.6-7.68A90.19,90.19,0,0,1,414,342.72a382,382,0,0,1-3.72-64.2,334,334,0,0,1,19.8-105.6A118.43,118.43,0,0,1,454.8,132.6q30.06-3.6,50.64,25.2C507.24,142.32,499.8,130.08,483,121.08Zm-91.2,4.32q-7,58.5-8.64,118.44-1.62,54.54-5.88,108.72a982.52,982.52,0,0,0-29.16-113.4q-19.62-60.66-37-121.56v-.48l-.12.36h-.48l-.36,2.88A127.49,127.49,0,0,0,306,157.8l1,43.8q1.08,64.8-3,129.12c-1,16.2-2.76,32.4-5.28,48.36q-2.7,18,3.24,32.4a114.65,114.65,0,0,0,8.4-37.68c2.4-42.6,4.08-85.32,4.92-128.4.6-28.2.12-56.16-1.2-84.12l1.32,4.2q21.06,61,37,123.72Q367.8,349.5,379.08,411c1,2,2.4,2.52,4.32,1.56a2.11,2.11,0,0,0,.72-1.56c.12-10.08,0-20.16-.48-30.24,2.16-21.72,3.72-43.68,4.56-65.88,1.56-42.84,3.24-85.56,5.28-128.16q1.62-32.94.72-64.08A3.08,3.08,0,0,0,391.8,125.4Z" transform="translate(-84.12 -108.48)"/></svg>