<svg id="Layer_1" data-name="Layer 1" xmlns="http://www.w3.org/2000/svg" viewBox="0 0 433.28 411"><defs><style>.cls-1{fill-rule:evenodd;}</style></defs><path class="cls-1" d="M275.88,427.32c-4.44,15.84-3.24,30.84,3.84,44.88A95.12,95.12,0,0,0,285.48,448l5.28-54.12c1.32-13.08,2.4-26,3.24-39a1017.79,1017.79,0,0,0,21.12,119.64l3.36-.36a164.74,164.74,0,0,1,3.72-19.56,30.21,30.21,0,0,0,1-6.6q1.8-44.28,5-88.32a318.85,318.85,0,0,0,0-47.88A755.68,755.68,0,0,0,315,424.44L296,312c-4.8,8.64-8,20.28-9.84,35-1.32,11.88-2.4,24-3,36.24A199.9,199.9,0,0,1,275.88,427.32ZM83,76.68a718.17,718.17,0,0,0-6.48,82.68q-1.44,64.44-1.8,129.12l-.6,129a78.3,78.3,0,0,1-1.68,16c-1.92,8.76-.84,15.84,3.24,21.48V455l.36,1.68a6.77,6.77,0,0,0,1.32,2.4l1.08.84a287.66,287.66,0,0,1,28.92,2.64A373.24,373.24,0,0,0,186.72,466a7.35,7.35,0,0,0,2.76-4.8l.12-1,.12-.72.12-1.68a22,22,0,0,0-.36-5.64,8,8,0,0,0-2.16-4l-1.2-1-19.44.12q-43.2-1.08-86.4-4.92a555.53,555.53,0,0,0,1.56-60.12c-1.2-43.08-1.2-86.16-.12-129q1.62-64.62,4.92-129a215.92,215.92,0,0,0-2.76-48C83.28,76.44,83,76.56,83,76.68Zm181,21c1.92,4.92,3.12,12.12,3.48,21.6,2,42.6,3.72,85.44,5,128.28A477.44,477.44,0,0,1,259.32,375a104.81,104.81,0,0,1-13.08,30.84q-22,34.74-58,12.48a24.7,24.7,0,0,1-11.52-16,469.64,469.64,0,0,1-11.88-95.52q-1.44-64.62-.72-129a502.1,502.1,0,0,1,4.92-64.8,119.18,119.18,0,0,0,.24-32.64c-4.2,3.48-6.6,8.52-7.08,15.36-2.76,35.88-4.32,72.24-4.68,108.84-.6,42.84.12,85.68,2.16,128.28.72,16,1.32,31.92,1.8,47.76.6,22,8.88,39.72,24.6,53.52,10.44,9.12,22.32,12.48,35.52,10.08,10.44-1.8,18.12-7.2,23.28-16a257.82,257.82,0,0,0,34.32-117.6,1076.39,1076.39,0,0,0-1.32-129c-1.08-16.32-1.8-32.64-2.16-48.84A210.69,210.69,0,0,0,269.52,85,21,21,0,0,0,264,97.68Zm115.92,216c-15,7.56-24.36,19.8-28.2,36.6a381.55,381.55,0,0,0-9.48,78.6,63.1,63.1,0,0,0,13.08,40.92c8.28,10.68,17.4,11.88,27.6,3.36,13-10.8,17.16-22.92,12.6-36.48a5.81,5.81,0,0,0-4,3,106.14,106.14,0,0,1-14.16,20,18.19,18.19,0,0,1-13.32-1,10.81,10.81,0,0,1-6.48-7.44,188.3,188.3,0,0,1-2.52-88.08c4.08-20.4,15.72-31.56,34.8-33.6l1.68,1.56.84.48,2.4-.24a9.55,9.55,0,0,0,1.2-7.2,17.38,17.38,0,0,0-4.8-9l-1.08-.6A32.41,32.41,0,0,0,379.92,313.68Zm-24.24-215q-27.18,7.56-31,33.48a60.09,60.09,0,0,0,7.56,39.72,86.6,86.6,0,0,0,25.56,28.08,76.48,76.48,0,0,1,20.52,21.6c12.72,20.28,12,39.24-2,56.64-17,5.76-34.08,4.92-51-2.4-9-4-17-7.8-24.24-11.64a17,17,0,0,0-1.92,7.32,9.49,9.49,0,0,0,1.8,6.36c11.64,15,27.84,23.16,48.84,24.36q34.74,2.16,41.88-30.24,12.6-56.34-33.6-90.6A86.39,86.39,0,0,1,338.4,160.8Q319.5,133.44,349.08,118q32.58-16.92,49.2,11.4l.6-.72q4.5-29-26.64-34.2ZM502.8,95.28a587.61,587.61,0,0,0-7.08,118.44c.84,21.6,1.08,43,.84,64.2v.48A596.77,596.77,0,0,0,428,285.24l1.92-66c1.56-43.32,1.68-86.16.24-128.28-1.08-.24-1.56.12-1.68,1.08-4,41.88-6.36,84-7.2,126.6q-1.44,64.62-3.72,129c-1.56,43.32-3.12,86-4.44,128.28a3.47,3.47,0,0,0,3.48,1.92,2.14,2.14,0,0,0,1.08-1.44A1103,1103,0,0,0,427,348.24l.84-49.08a395.6,395.6,0,0,0,68.4-4.56c-.6,37.56-1.92,75-3.72,112.44-.6,10.68-1.56,21.48-2.88,32.16-2,16.92-1,33,3.36,48.12a2.65,2.65,0,0,0,1.56-1.2,39.73,39.73,0,0,0,4.56-16.56c1.08-18,1.8-36.12,2.28-54.48,1.2-42.6,1.92-85.44,2-128.28l.6-129c.12-22,.36-43.44.84-64.2A1.63,1.63,0,0,0,502.8,95.28Z" transform="translate(-71.56 -76.32)"/></svg>