<svg id="Layer_1" data-name="Layer 1" xmlns="http://www.w3.org/2000/svg" viewBox="0 0 295.52 213"><defs><style>.cls-1{fill-rule:evenodd;}</style></defs><path class="cls-1" d="M305.52,333.12c8.64,11,16.8,22.44,24.48,34.32a57,57,0,0,1-41.64,8.16,17.82,17.82,0,0,1-3.72-11.4A49.91,49.91,0,0,1,289,344.64,29.26,29.26,0,0,1,305.52,333.12Zm-25.08-46c-3,13.56,2.76,25.56,17,35.88q-24.66,20-18.72,53.28a20.43,20.43,0,0,0,1.8,5.4,14,14,0,0,0,3.36,4.2q19.44,16.38,41.88.48l10.2-7.08,21.36,19.8q2-20.7-13-36.36A296,296,0,0,1,321,334.68c-7.32-9.84-14.76-19.56-22.56-29.28A112.72,112.72,0,0,0,280.44,287.16ZM160.68,205.68c1.32,42.84,1.92,85.92,1.8,129A204,204,0,0,1,160,366.84c-1.8,12-.72,22.8,3.48,32.52a6.23,6.23,0,0,0,2.28-2l.48,1.2,1.08.84,1.08.84,1.08.72c31.08,1.32,61.68,2.16,91.92,2.28a15.81,15.81,0,0,0,1.56-5.76v-4l-.12-.84-.12-.84-.24-.84-.24-.84a8.66,8.66,0,0,0-1.08-2.4l-1.44-.36q-45,1.08-90.84-1.56l-1.32.48c1.8-22.44,2.76-45,2.88-67.8q.18-65-5.28-128.28C161.88,193.92,160.44,199.08,160.68,205.68ZM441,268.2c-14.88,16.44-33.48,25-55.68,25.32L384,210.12c16.68-5.64,31-2.64,43,9.12,11.64,11.4,16.68,25.2,15,41.4ZM382.56,193h-.48a480,480,0,0,0-5.16,77.16l.24,24.84-.36,1.56a25,25,0,0,0-.12,7.32,4.11,4.11,0,0,0,.48,2.16c0,30.84-.48,61.68-1.56,92.28.48,2,1.68,2.52,3.48,1.56a47,47,0,0,0,2.76-13.68c1.56-25.68,2.52-51.48,3.12-77.4A84.9,84.9,0,0,0,413,303a28.59,28.59,0,0,0,1.8,8.4q12.78,31.86,23.64,64.2c3.6,10.92,8.52,19.56,14.76,26.16a4.33,4.33,0,0,0,1.2-4.56q-14.58-49.5-33.84-97.56a95.34,95.34,0,0,0,10-6,35,35,0,0,0,14.4-20q11.88-43.92-21.24-74.16a9.43,9.43,0,0,1-3.12-1,53.77,53.77,0,0,0-20.16-4.68L394,195.12a34.88,34.88,0,0,0-10.8,4.2Z" transform="translate(-159.12 -190.2)"/></svg>