<svg id="Layer_1" data-name="Layer 1" xmlns="http://www.w3.org/2000/svg" viewBox="0 0 306.79 213.96"><defs><style>.cls-1{fill-rule:evenodd;}</style></defs><path class="cls-1" d="M283.8,347.16l25,28.68a49.53,49.53,0,0,1-25.44,7.08l-6.6-.12-2.64-2.4c-2.88-12.24-.48-23.28,7.08-33.24ZM254.64,297.6l-.12,7.8A119.12,119.12,0,0,1,278,336.84q-20.34,26.28-5.52,55.2a12.85,12.85,0,0,0,9,6.48c14.52,3,27.48-.6,38.88-10.68l17.28,16.68c6-12.84,2.28-22.92-11.28-30l-4.92-8.76-2.76,2.64A183.68,183.68,0,0,1,270,304.32l-12.48-8.88Zm-97-90.84-2.28,129A289.79,289.79,0,0,1,153.12,368c-1.08,8.88-.6,16.68,1.32,23.52l-.12,3.24.36,2.4.48,1.56,1.2,1.68c31.08-1.2,61.32-1.08,91,.48a6.81,6.81,0,0,0,1.44-3.12,17.49,17.49,0,0,0-.12-6.6l-.36-1.56-.48-1.56L247,386.4a1.93,1.93,0,0,0-.84-.48A218.77,218.77,0,0,0,196,382.56l-.6.24-35.52,3.12A539.16,539.16,0,0,0,164.16,320q.18-64.8-1.2-128.16C159.48,195.6,157.8,200.52,157.68,206.76Zm293.4-.6.24,14.64-.12,70.44a136.86,136.86,0,0,0-32.76,6.6q-.54-33.84-2.52-67.32A406.21,406.21,0,0,0,410.16,306a321,321,0,0,1-2.64,46.92,132.9,132.9,0,0,0,2.16,48,1.58,1.58,0,0,0,1.2-1.08,150,150,0,0,0,7-41c.48-16.44.72-32.88.72-49.2a151,151,0,0,0,32.52-3.24l-.84,43.44a200.13,200.13,0,0,1-1.92,24.12c-1.8,12.36-.24,22.92,4.56,31.92,3.48-4.2,4.44-9.12,3-14.64C457.32,368.64,458.4,346,459,323a1104.88,1104.88,0,0,0-4.2-128.16C452.16,197.64,451,201.36,451.08,206.16Zm-46.32-7.56a715,715,0,0,0-85.56,10.08l-.6,2.28a20.25,20.25,0,0,0,.12,6.6l.48,1.56.6,1.68,49.8-2.64q-2,63.9-2.52,128.16A178.15,178.15,0,0,1,364,378.48c-2,10.2-.36,18.12,5,23.64a308,308,0,0,0,6.6-61q.54-62.28-2.52-123.24c16.92-.6,33.72-.84,50.64-.84l1.08-1.8a14.35,14.35,0,0,0,1.08-10.44,9.7,9.7,0,0,0-1.32-3.24,1.09,1.09,0,0,0-1-.48Z" transform="translate(-152.55 -191.88)"/></svg>