<svg id="Layer_1" data-name="Layer 1" xmlns="http://www.w3.org/2000/svg" xmlns:xlink="http://www.w3.org/1999/xlink" viewBox="0 0 578.64 595.7"><defs><style>.cls-1{fill:none;}.cls-2{clip-path:url(#clip-path);}.cls-3{fill-rule:evenodd;}</style><clipPath id="clip-path" transform="translate(-4.56 -0.58)"><rect class="cls-1" x="4.56" width="578.76" height="596.4"/></clipPath></defs><g class="cls-2"><path class="cls-3" d="M245.4,547.32a25.78,25.78,0,0,1-5.64,1.32l-.24,3.72v5.28l2.4.6,4.56.72a17.24,17.24,0,0,0,9-2.16c2-1.2,3-2.28,3-3.36s-1.2-2.76-3.6-4.8c-2-1.8-3.36-2.76-3.72-2.76A23.57,23.57,0,0,0,245.4,547.32Zm63.36-59v6A319.35,319.35,0,0,1,306.84,528l3.48.72,7.08,1.2c12.48,0,22.92-2.64,31.44-8a37.07,37.07,0,0,0,7.2-6.12c1.56-1.8,2.28-3,2.28-3.72,0-9-5.64-15.24-16.92-18.84a106.73,106.73,0,0,0-12.48-2.88c-4.2-.84-6.72-1.56-7.44-2.28Zm-38.64,8.64-10,22.08c-3.84,8.64-6.6,15.72-8.4,21.24a12.68,12.68,0,0,1,5.64,3.24c2.52,2.52,3.72,5.76,3.72,10,0,3.48-.12,5.64-.48,6.24-1,1.92-3.72,4.08-8.4,6.48l-7.2-.6-5.88-.6-.48,6.72c-.48,3.72-2,11.28-4.56,22.92a5.26,5.26,0,0,1-2.76-4.8,91.87,91.87,0,0,1,1.8-18.12c1.08-6.12,1.68-15.24,1.68-27.36l.12-2,.24-1a4.52,4.52,0,0,1,2.88,1.2,18.35,18.35,0,0,1,2.76-1.8,15.55,15.55,0,0,1,8.28-1l1.68.36c-2-4.92-3.36-11.64-4-20.28-.84-13.68-1.32-21.36-1.68-23.16a79.48,79.48,0,0,0-4.92,9.36l-4.8,10.2a70.32,70.32,0,0,1-14.64,20.52c-1.44-1.56-2.16-2.52-2.16-3.12q0-1.8,9.36-18.72c7.08-12.84,13.44-22.92,19.08-30.12.48,4.32,1,11.28,1.44,21a139,139,0,0,0,2.88,21.72c4-5.64,7.68-13.2,11.4-22.92L270.6,482c1.08,3.48,2.76,11.52,4.92,24.12,1.8,10.92,4.2,19.44,7.2,25.68v4.92l-.48.48-.84.84c-4-5.4-6.6-12.12-7.92-20.28A172.56,172.56,0,0,0,270.12,496.92Zm52.44-16.44c16.56,0,28,4.56,34.32,13.8,3.48,5,5.16,11.16,5.16,18.24,0,1.44-.72,3.48-2,6.12a37.19,37.19,0,0,1-6.24,8.88,35.9,35.9,0,0,1-26.88,11.4c-10,0-16.92-.48-21.12-1.44l-1.08,7.68c-2.52,17.4-5.52,33.6-9.24,48.6a4.41,4.41,0,0,1-1.2-1.68,8.37,8.37,0,0,1-.36-2.88q0-8.1,6.12-44.28l1.56-9.24a1.43,1.43,0,0,1-.48-1.32l.36-1.92c-.12-1.8-.24-2.88-.24-3.48a1.57,1.57,0,0,1,1.56-1.44c2.16-15,3.24-25.8,3.24-32.52a31.4,31.4,0,0,0-1.08-5.64l-.24-1.08a5.76,5.76,0,0,1-3.48-2.4,7.13,7.13,0,0,1-.24-2,18.62,18.62,0,0,1,.12-2.76l.12-.6,3.24-.12.24-.72a2.74,2.74,0,0,1,1.44.72l4.2-.12C315,480.12,319.08,480.24,322.56,480.48ZM223.2,424.2l-1.32,19c8.52-.48,15-2.16,19.44-5.16,3.72-2.4,5.52-5,5.52-7.8,0-1.68-2.88-3.36-8.52-4.92A36.22,36.22,0,0,0,223.2,424.2Zm1.08-6.72a23,23,0,0,1,10.08.6,30.25,30.25,0,0,1,10.08,4.8c3,2.4,4.56,5,4.56,7.8A20,20,0,0,1,245.76,442a16.09,16.09,0,0,1-8.52,6.84c6.36,5.4,12.48,14.16,18.48,26.16a7.77,7.77,0,0,1-.24,2.76l-.48.48-.6.84c-1.8-1.8-6.24-7.08-13.32-16.08q-7.38-9.54-9.72-13l-3,.12-7.08-.12-.12,1.44-3,32.28-1.08.24c-.6-1.56-.84-4.2-.84-7.68-.36-10.68-.48-19.56-.36-26.4H214.8l-1-1.32a6.26,6.26,0,0,1-.6-2.76v-2l.24-1,.72.24,1.8.36c.48-9.24,1.8-16.08,3.84-20.28l-.12-1.2C219.72,419.64,221.28,418.08,224.28,417.48Zm-7.8-105.12c-1.08,4.68-2.64,12.12-4.56,22.32-2,9.24-4.8,16.8-8.4,22.92l-.84-.48a5.94,5.94,0,0,1-.24-2c0-2,2-10.68,6-25.8s7.44-27,10.2-35.52a17.6,17.6,0,0,1,.6,6.6l-.36,5.52c0,5.4,1.56,13.32,4.8,23.88l7.2,22.44h.48A388,388,0,0,1,245,312.48c6.48-16.2,10.8-24.72,12.84-25.32l1.08,1.92.24,2.64c0,1.68-3.84,12-11.52,31.08-9.72,23.88-15.24,38-16.8,42.36H230c-1.08-5-3.24-13.68-6.48-26-3.12-11.76-5.28-20.64-6.48-26.76ZM264,237.72a7,7,0,0,1,.36,2.52,7.3,7.3,0,0,1-.36,2.64L263,244c-3.84.36-11,2.16-21.72,5.4q-.18,6.84-3.6,21.24c-2.28,9.48-3.24,17.16-2.88,22.8l-.48.48-1.08.6-1.44-1.92a5.7,5.7,0,0,1-.72-2.88c0-2.76,1.32-10.56,3.84-23.16,1.44-7.08,2.64-12.6,3.6-16.32-8.28,2.28-15,3.48-19.92,3.48l-9.24-.24-.6-1a10.45,10.45,0,0,1-.12-2.28,7.6,7.6,0,0,1,.36-2.76l1-1.32a143.2,143.2,0,0,0,29.76-5.28,97.4,97.4,0,0,1,23.52-4.2ZM24.84,16.8c0-3.48.84-5.88,2.52-7.08,2.28,13.56,4.08,40,5.4,79.44.84,26.28,1.32,46.08,1.32,59.64,0,14-.72,34.92-2,62.52s-2,48.48-2,62.52Q30,292,23.28,396.6q-7.2,112.5-11.64,148v21.6c10.92.6,17.88.36,21-.84l3-1.44a21.32,21.32,0,0,1,5.52-.6l45.48,1.32c2.64,1.32,4,4.32,4,8.88a14.79,14.79,0,0,1-2.4,8.16L62,580.44,46,579.72,35,580.8a67.2,67.2,0,0,0-9.12,1.92H8.64A10.4,10.4,0,0,1,5.28,577l-.72-3.84q0-2.52,6.84-89.28c4.68-61.08,7.56-102.12,8.4-123l5-114.6c2.52-58.44,3.84-91,3.84-97.32l-.6-19.2L26.76,100.2V55.56c.12-5.16-.12-12.84-.84-23.16Zm108.84,10c-2.52,10.92-7.56,29.4-15.12,55.56-12,40.92-18.36,63.84-19.2,69q-4.14,26.1-8.64,67L83.4,285.36l-4.08,30.48c4.92-.72,13.2-.6,24.6.36l57.36-.6a53.63,53.63,0,0,1,9.36-2l-.72-5.76c-6.12-40.68-12.24-82.32-18.12-125Q134,55.32,133.92,28.2Zm1.92-10.44-.12,1.2c2.64,7.32,4.32,16.2,5.16,26.52l1,17.76c.36,7.32.72,13.32,1.32,17.88,4.2,23.4,7.92,47.28,11.28,71.4q4.14,29.16,10.44,70.8l11,72.12,3.12,22.44a11.34,11.34,0,0,1,.84,4.92v1.44q6.3,49.14,15.12,136.92,11,107.82,10.92,119.16a33.41,33.41,0,0,1-.24,4.92,6.64,6.64,0,0,1-3,4.56c-4.32-9.84-7.08-21.48-8.4-35-.84-15.48-1.56-27.24-2.4-35.28L188.4,483.6,185,448.2l-7.2-69.72-5.16-47.16A33.61,33.61,0,0,1,162.36,333H103.92c-13.08-.36-22-1.56-26.52-3.6-4.68,32.28-9.72,62.4-15.36,90.24Q47.46,492.54,27.12,553.8c-.84-1-1.92-3.36-3.12-7.08a29.3,29.3,0,0,1-1.56-6.84,7.88,7.88,0,0,1,.48-3l.6-2.28c.24,0,.48.24.72.84l.36,1.32q20.16-58,33.24-132.36,7-40.32,19-133.32,10.8-86,19.92-133,13.5-68.4,33.84-123.36l-.12-.72a2.32,2.32,0,0,1,.72-2l.48-.36,1.8-4.56A20.5,20.5,0,0,1,135.6,16.32Zm162.12,170.4a18.41,18.41,0,0,1,.24,3.6L297.6,194A12.2,12.2,0,0,1,296,197.4H295a26.23,26.23,0,0,1,.24-5.76c-.84,0-1.44-.12-1.56-.48-7.92-1.56-15.12,1.32-21.48,8.4a38,38,0,0,0-5.76,8.52c-1.32,2.64-2,4.68-2,6.12,0,2.52,1.32,5,3.84,7.32,3.36,3,8.16,4.56,14.28,4.56,5.4,0,9.36-.6,12-1.8,1.32-.72,2.16-1.32,2.28-1.92l.12-.36a3.81,3.81,0,0,0-.72-2.4l-1.2-1.32c-6.24.12-10.32-.6-12.24-1.92-.72-.48-1.08-1-1.08-1.56v-.72a12.73,12.73,0,0,1,.24-2.52l.12-.36,6.6-.24L301,210.6l1,1.32a8.06,8.06,0,0,1,.36,2.76c0,2.76-.72,7.2-2,13.44l-3,13.08q9.9-.9,14.4,3.6l3.48,3.84a6.64,6.64,0,0,0,4.44,2c-.72,2.28-2.4,4.8-5.16,7.56a29,29,0,0,0-3-4.2,8.59,8.59,0,0,0-7-3.6c-14.52,0-24.6,15.6-30,46.8-2.76,15.48-4.08,33-4.08,52.8,0,13,.72,22.68,2.16,29.28,3.84,16.68,11.88,25.08,24.12,25.08,8,0,14.88-3.72,20.76-11a44.55,44.55,0,0,0,5.16-8.16,16.3,16.3,0,0,0,1.68-4.92,3.16,3.16,0,0,0-1-2.4A8.12,8.12,0,0,1,322,376.2l1.8,1.2,2.64.48a2,2,0,0,1,2.16,1.8l.24,3.84c0,4.2-2.64,9.84-7.92,16.8S310,412.44,304.2,415.44c-17.4,4.56-28.92-3.72-34.32-25a114.16,114.16,0,0,1-3.24-24.36l-.12-15.36c-.36-14.4-.48-24.36-.24-30,.36-8.28,2.28-19.56,5.64-33.84,2-8.88,3.36-14.16,3.84-15.84a110.88,110.88,0,0,1,5.4-15.84c2.16-4.92,3.48-7.56,3.84-8.16a13.49,13.49,0,0,1,9.72-5.64l1.2-.12a19.86,19.86,0,0,1-1-5.64l.12-2.28a7,7,0,0,1-4,1.08l-5.64-.24c-2.52-.12-3.84-.36-4.08-.6-9.24-1-15.24-4-18-9.12-1.08-2-1.68-5.76-1.68-11a31.47,31.47,0,0,1,5-16.8,30,30,0,0,1,17.88-13.32l10.08.24A4.58,4.58,0,0,1,297.72,186.72ZM194,194.52a89.13,89.13,0,0,1-1.68,14c-1.08,6.12-1.56,9.36-1.56,10,0,.84,1.08,2.76,3.12,5.76a71.23,71.23,0,0,0,4.92,6.12c10.92-1.08,17.76-4,20.64-8.4a13.61,13.61,0,0,0,2-5.52,21.42,21.42,0,0,1,1-4.8A40.85,40.85,0,0,1,224,201.12a37.64,37.64,0,0,0,1.68-8.88c0-1.08-.36-1.56-1-1.32l-1.2.24,2-3.36,1.2-2.28h1.56l.6,7.68a93.75,93.75,0,0,1-3.24,24.72c-3.84,13.92-10.2,20.88-19,20.88l-9.24-.24c-4.68-3.48-7.68-7-8.88-10.68a45.19,45.19,0,0,1-.6-9.24,50.51,50.51,0,0,1,1.68-12.6,44.89,44.89,0,0,0,1.56-10.92A12.76,12.76,0,0,0,190.2,191a12.76,12.76,0,0,1-1.08-4.08,2.47,2.47,0,0,1,.72-2A8.82,8.82,0,0,1,193,183.6C193.68,185.76,194,189.36,194,194.52ZM212.64,76.2c0,4.8-.84,8.28-2.64,10.56-3.6,4.44-10.8,6.72-21.72,6.72L180,93l-.36,4.2a180.13,180.13,0,0,1-4,25.44c-1.08-1.08-2.16-3.48-3-7.2a37.27,37.27,0,0,1-1.08-8.16q0-12.78,1.44-28.8a124.66,124.66,0,0,1,2.4-16.68h-.12a13.93,13.93,0,0,1-.24-3.24,4.6,4.6,0,0,1,3-4.68l.84-.84v.48l2-.36c3.72-.48,8,.24,13,2a34,34,0,0,1,12.84,8C210.72,67.2,212.64,71.52,212.64,76.2Zm-7.32-5.76a17,17,0,0,0-3.84-4.56C198.24,63.48,191,62.16,180,61.8l.12,2,.36,8.16-.12,11.52,7-.36c10.68-.36,18.12-2.64,22.08-7A36.88,36.88,0,0,1,205.32,70.44Zm78.84-40.92-1.08.24a66.22,66.22,0,0,0-2.28-11.28c-1.92-5.64-5.28-8.52-10-8.52C258,10,249.12,14,244.44,22.2a27,27,0,0,0-3.6,14.16c0,7.08,2.28,14.64,6.84,22.44.84,1.56,5.76,8.76,15,21.84a130,130,0,0,1,14.88,26.76,102.08,102.08,0,0,1,6.84,37.68,52.06,52.06,0,0,1-5.4,23.16C273.24,180.12,264,186,251.16,186c-10.68,0-19-6.24-24.72-18.6a69.67,69.67,0,0,1-4.32-13.08,37.92,37.92,0,0,1-1.08-6.48,44.49,44.49,0,0,1,1.32-6.48,37.91,37.91,0,0,0,1.2-6.48l1.8-1.68a48.9,48.9,0,0,0,5.16-5.64,9.07,9.07,0,0,1,2.16,2.88,5.91,5.91,0,0,1,.84,2.64,12.28,12.28,0,0,1-4.2,9.12c-2.76,2.64-4.2,4.44-4.2,5.52,0,2,1.68,6.84,5.16,14.16,4.08,8.76,7.8,13.08,11,13.08,16.44,0,27.72-4.56,34-13.56a28.45,28.45,0,0,0,4.8-16.68,83.27,83.27,0,0,0-6.72-34c-2.76-6.6-7.68-14.4-14.52-23.64-7.32-9.84-12.24-17.16-14.64-22a64.1,64.1,0,0,1-6.6-29c0-9.84,2.52-18,7.44-24.48,4.32-5.88,9.72-9.36,16.2-10.56s11.76,0,16.32,3.72C282.48,9,285,15.12,285,23.4A17.49,17.49,0,0,1,284.16,29.52ZM386.52,357.84l.12,2.64c0,4.2-7.68,15.84-23.16,34.92l-6.24,7.68c6.24,7.08,11.76,19.8,16.68,37.92,1.92,7.2,3.6,14.64,4.92,22.32a107.26,107.26,0,0,1,1.68,10.8l-.12,2.16-.24,1.44-.48.48-.84.84c-1.92-1.32-3-2.76-3.24-4.2l.24-3.12c0-1-1.32-6.12-4-15.6l-5.76-19.56c-2.28-7-5.16-14.76-8.64-23.28l-3-7-15.72,18.24-.24,1.2c-2.88,15.24-6.36,32.64-10.32,52a6.44,6.44,0,0,1-1.56-2.64,22.91,22.91,0,0,1-.24-3.36c0-2.76.84-8.76,2.52-17.76l5.76-28.8.12-.36-.12-1.8.6-.84c5.16-27.12,7.8-47.52,7.8-61.32a6.09,6.09,0,0,1,.84-3.36,2.94,2.94,0,0,1,1.68-1.56c.72,2.16,1.08,5.64,1.08,10.56,0,9.12-2,25.44-6.24,48.84l13.08-16.8c14.76-18.84,25.44-33.12,32-42.6ZM387,142.92a193.25,193.25,0,0,1-.84,21.48v47l-4.32,46.68c-1.68,19-3.36,34.56-4.92,46.68a8.46,8.46,0,0,1-3.84-6.24,67.53,67.53,0,0,1-.24-7.56l.84-.24.36,1.56a2.82,2.82,0,0,0,.48,1.44c1.44-10.92,2.88-25.32,4.32-43.32,1.8-23.28,2.88-37.92,3.48-43.92v-2.4l-4.56.6-19.44,1.56H344.16l-3.72-.84-8.64-.72-1-1.2c-.72,8.88-1.8,18-3.12,27.36v52.8c-.24.6-.72,3.12-1.56,7.8q-.9,5.4-2.52,6.84A8,8,0,0,1,321,294l-.36-2.88.24-6.84,1.08,1.08,1.08-3.48.84-3.6v-52.8a384.32,384.32,0,0,0,3.84-42.6c.6-11.16.84-25.2.84-42.12a100.16,100.16,0,0,0-1.68-11.52L325.32,120a5.94,5.94,0,0,1,.84-3.24,12.08,12.08,0,0,1,1.8-2.16c5.16,5.28,7.44,14.28,6.84,27.12l-1.68,16.56Q332,168.54,332,174.12c0,6.6-.24,13.44-.6,20.4l4.32.84,7.32.72,8.88-.36,7.44-.72c11.52-1.8,19.2-2.16,22.92-1.08v-28.8c.24-2.52.48-11.16.72-25.8.12-10.32,1-17.88,2.52-22.8C386.52,122.4,387,131.28,387,142.92Zm18.24-137a7.3,7.3,0,0,1,.36,2.64,7.5,7.5,0,0,1-.48,3l-1.44,2-43.56-.24a198.52,198.52,0,0,1-2,27.24c-1.56,11.4-3.72,20-6.24,26.16a32.72,32.72,0,0,1-2.16-6.36,36.21,36.21,0,0,1-.6-5.64c.6-6.6,1.44-13.56,2.52-20.64a138,138,0,0,1,4.32-20.76L337.2,13.2l-11-.84c-6.84-.36-11.4-.48-13.56-.24l-.48-1.92A21.27,21.27,0,0,1,312,7.32c0-2.4.84-4,2.52-4.56q5.22-2,22.68.72l66.84.6Zm71.52,81.36-10-13.08c-6.36-7.8-11.52-11.76-15.48-11.76-15.84,0-25.8,13.68-29.88,40.92a204.33,204.33,0,0,0-2,30.24q0,8.82.36,18.36L418.56,197q-.72,26.46-.72,44.64,0,23.94-1.08,35.28v9.48c1.8-.48,4.32,0,7.56,1.56l27.6.6a9.13,9.13,0,0,1,4.8,4.44,9.41,9.41,0,0,1,.84,4,23.55,23.55,0,0,1-.48,4.92c-.6,2.52-1.44,3.72-2.52,3.72l-17.64-1-20.16-1.32v28L412,440.76q-3.78,92.16-3.84,106.56l-.36,5.52a75.44,75.44,0,0,0,.36,10.68c1.32,10.08,4.92,15.12,11,15.12,7,0,13.56-6.6,19.68-19.68,5.88-15,10.32-24.48,13.08-28.44,1.08.84,1.92,2.4,2.76,4.56a15,15,0,0,1,1,4.32c0,.72-1.08,4-3.36,9.84-2.64,6.72-5.4,13.2-8.4,19.44-8.76,18.36-15.72,27.6-20.64,27.6-11.88,0-19.08-8.16-21.6-24.6a77.22,77.22,0,0,1-.72-16.92l.6-7.92q0-13.32,4-107.76l4.8-114.24V271.2a33.2,33.2,0,0,1,1.08-4.8V209.52c.72-26.28,2.16-59.64,4.32-99.84.84-16.2,6.6-32.88,17.28-50.28,4.32-7.08,9.36-10.68,15-10.8,4.68-.12,9.72,2.16,14.88,6.84a59.34,59.34,0,0,1,11.28,14.28c3,5.16,4.56,9,4.56,11.52A9.93,9.93,0,0,1,476.76,87.24ZM567.36,171c-3.36-21.24-5.4-33.48-6.24-36.72q-4.86-19.26-16.56-32C539,96.12,531.72,90.6,522.48,85.56L511.92,80c-4-2-6.84-3.72-8.88-5a34,34,0,0,1-3.72-3.12l.72,6c.36,4.68.6,14,.6,28.32,0,17.4-.12,31.68-.48,43.08-.48,16.32-1.32,30.6-2.52,43v43.08l-3.72,88.08c-1.44,37.32-2.76,66.84-4.08,88.8q-5.22,91.62-15.72,160.08c27.84-2,51.72-22.32,71.52-60.6a276.49,276.49,0,0,0,18.24-44.76c3.72-12,6-21.36,7-28.2q3.06-21.42,4.8-78.36c.72-25.08,1.08-43.92,1.08-56.4,0-13.56-.6-31.56-1.92-54s-2-35.28-2-38.52C572.76,207.12,571,193.68,567.36,171ZM554.88,98.28c1.32,2.28,3.84,7.44,7.56,15.72a165.84,165.84,0,0,1,10,31.68,223.2,223.2,0,0,1,4.08,31.68c1.32,20.52,3,42.84,4.92,67,1.2,18.48,1.8,38.4,1.8,59.64q0,12.42-1.8,62.28c-1.56,40.68-3.12,68.16-4.68,82.2-1.56,15-5.88,31.2-13,48.48a259.16,259.16,0,0,1-24.12,45.6c-9.24,14.16-18.72,25.44-28.2,34-10,8.88-18.36,13.32-25.44,13.32l-15.72-.36-1.44-2.16-1.44-2.4a8.89,8.89,0,0,1-.84-3.84q0-3.06,8-73.32,9.18-80.1,11.4-102.84c.84-16.2,1.56-45.36,2.4-87.72.72-36.84,1.8-66.12,3.24-87.6V187.32q3.6-32.4,3.6-82c0-6-.84-15.6-2.52-28.92l-2.4-18.12A8.83,8.83,0,0,1,493.08,52l2.28,4.56A5.5,5.5,0,0,1,497,54c.12,2.76,6.36,7.44,18.6,14.28,15.48,8.52,23.88,13.2,25.08,14A59,59,0,0,1,554.88,98.28Z" transform="translate(-4.56 -0.58)"/></g></svg>