<svg id="Layer_1" data-name="Layer 1" xmlns="http://www.w3.org/2000/svg" viewBox="0 0 293.03 211.56"><defs><style>.cls-1{fill-rule:evenodd;}</style></defs><path class="cls-1" d="M296.28,337.92l28.08,35.28a33,33,0,0,1-13.56,5.64c-11.28,2-21.24-.84-30-8.4l-1.08-3.6a25.79,25.79,0,0,1,.6-4.08l1.8-9.12a37.93,37.93,0,0,1,7.92-16.2ZM160.92,199.2a1086.67,1086.67,0,0,0-2.4,112A374,374,0,0,1,155,375.84c-1.32,9.84.24,17.64,4.92,23.52l.36-2.28.36.36,1.2.6,3.72.48a573.88,573.88,0,0,1,85-3.72c3-3.72,3.84-7.92,2.64-12.84a6.53,6.53,0,0,0-2.64-4l-3.72-.24-13.08-.84a306.78,306.78,0,0,0-71.28,6.36A365.4,365.4,0,0,0,165.84,328q-.9-65-4-129.12A1.89,1.89,0,0,0,160.92,199.2ZM352.2,391.56a544.59,544.59,0,0,0-50.76-64.44l-.36-.72a144.67,144.67,0,0,0-31.56-39.24c-1.56.72-2.16,2.16-1.92,4.2a34.45,34.45,0,0,0,8.64,18.72l1,.72,2.52,1.68a16.11,16.11,0,0,0,1.44,3.6l6.48,9.24c-8,10.2-12.48,22.08-13.32,35.88a31.85,31.85,0,0,0,3,16.2q14.22,29,45.72,13.8l2.76-1.68a23.12,23.12,0,0,0,7-6.6c6,7,12.12,13.8,18.48,20.52a5,5,0,0,0,2.28-3.24A10.27,10.27,0,0,0,352.2,391.56Zm5.16-192.12a195.25,195.25,0,0,0,4.32,49.8A1197.31,1197.31,0,0,1,381.6,375c1.2,11.88,4.8,22.08,10.68,30.6l.36-.24.24.72.48-1.68a4.82,4.82,0,0,0,1.2-3.36q17.82-55.8,33.36-113.76c4.08-15.48,8.52-30.72,13.2-45.84a136.64,136.64,0,0,0,6.36-46.92c-3,2.52-5.16,6.12-6.48,10.92q-16.92,62.1-34.32,123.72a264.51,264.51,0,0,1-10.44,30.24,76.26,76.26,0,0,0-5.16,17.52l-7.56-53.28a1086.57,1086.57,0,0,0-24.72-125C357.84,198.48,357.36,198.72,357.36,199.44Z" transform="translate(-154.59 -194.52)"/></svg>