<svg id="Layer_1" data-name="Layer 1" xmlns="http://www.w3.org/2000/svg" viewBox="0 0 300.02 210.72"><defs><style>.cls-1{fill-rule:evenodd;}</style></defs><path class="cls-1" d="M295.92,373.32c-2.52,16,2.76,26.4,15.72,31.44,14.76-8.28,22.44-20.16,23-35.76A64.79,64.79,0,0,1,309,389.64a13.56,13.56,0,0,1-5.16-3.84V385q1.8-43.38-.6-85.2a172.51,172.51,0,0,0-5.4,45.48A182,182,0,0,1,295.92,373.32ZM300.36,262a34.38,34.38,0,0,0,.84,18.12l.72,1.92c6-5.16,7.92-11.16,5.64-18.24a13.41,13.41,0,0,0-3.48-5.64Zm-138-62q-2.52,54.36-2.76,109.56a462.34,462.34,0,0,1-4.44,64.68c-1.44,9.84.12,17.64,4.8,23.52l.48-2.76,1.44,2.52,83.28-5.88.6-1c2.88-4.8,2.64-9.36-.6-13.68A832.83,832.83,0,0,0,162,384.36a459.55,459.55,0,0,0,4.2-62.16L165.84,194A6.44,6.44,0,0,0,162.36,199.92Zm208.8,195V395l.48.72,1.2,1.68A317.63,317.63,0,0,1,452.16,394a12.61,12.61,0,0,0,2.16-10.56l-.72-2.4-.36-.84-1.44-1.68-2.64-.12-34.68-1-2,.12c-14.64-2-27.6.12-39,6.6-.6-19.56-.36-39.24.84-58.92A1141.76,1141.76,0,0,0,374.76,197q-3.24,51.48-4.68,104.88-.9,32.58-4.32,64.8c-1.32,12.48,0,23,4.08,31.56Z" transform="translate(-154.64 -194.04)"/></svg>