<svg id="Layer_1" data-name="Layer 1" xmlns="http://www.w3.org/2000/svg" viewBox="0 0 547.8 584.88"><defs><style>.cls-1{fill-rule:evenodd;}</style></defs><path class="cls-1" d="M159.36,478.32l8,6.72a9.31,9.31,0,0,1,1.44,5.64l-.24,4.08-.72.48-1.2.84a25,25,0,0,0-3.24-5.64,23.34,23.34,0,0,0-5.16-5.16l-7,.24a27.76,27.76,0,0,0-10,12A34.82,34.82,0,0,0,138.84,511a23,23,0,0,0,2.4,10.68c2.76,5.16,7.68,7.8,14.64,7.8l10-.36,3.6-2.64,4-2.76.6,1a8.56,8.56,0,0,1,.24,2.28q0,2.7-3.24,6.12a23.58,23.58,0,0,1-5.4,4.2c-14.64-.72-23.88-4.32-27.6-10.92a17.6,17.6,0,0,1-2.16-8.28l.24-7.08c0-8,.48-13.44,1.44-16.08q2.7-7.2,14-16.92ZM185,537.48l.36,2.76c0,2.88-2.88,11.52-8.52,25.8C171.12,580.8,166.8,589.8,164,593.28l-9-20.76a168.6,168.6,0,0,1-8.16-22.32q-2.7,5.58-5.4,18.72c-1.68,8.64-3.6,15.12-5.88,19.44h-.84a12.74,12.74,0,0,1-.6-4.08c0-1.2,1.68-8,4.92-20.64,2.76-11.28,4.92-19.56,6.48-24.72,5.16,9.24,8.88,16.56,11.4,21.84a106.18,106.18,0,0,1,8.16,23.52h.48q5-16.2,7.92-24.84c3.48-10.2,7.08-17.88,10.8-23.28Zm75.84-57.6a5.69,5.69,0,0,1,.48,2.76q0,6.12-18.72,29.88c2.64,2.28,4.8,5.88,6.48,10.68l3.12,10.8A92.29,92.29,0,0,0,256,545.16c.6,1.56,3.24,7.68,8.16,18.36,4.68,10.8,7.08,18.24,7.08,22.2l-.36,4.08-.6.36-1.32.72c-5.64-12.6-12-27.6-19.32-44.88-5.64-13.44-9.36-22.8-11.28-28-9.6,11.88-16.08,19.56-19.44,22.8Q215.1,577.56,212.4,592a9.41,9.41,0,0,1-1.8-3.48,16.14,16.14,0,0,1-.6-4.2q0-5.94,5-50.76c3.6-32.4,5.64-51.36,6-56.88a46,46,0,0,1,2.28,7.44l.24,5.52c0,3.6-1.2,17.64-3.72,42.24,2.64-4,6.84-9.84,12.72-17.64L260,478.56ZM224,305.4l-.24-2.76a9,9,0,0,1,.24-2.4l1.08-1.44c15.48-1.8,26.64,4.32,33.36,18.24a61.86,61.86,0,0,1,6.12,27.72,37.43,37.43,0,0,1-6.48,20.76c-6.36,9.72-15.84,14.52-28.68,14.52l-8-.24-.24-.36-1.44,23.64q-3.78,61.92-5.16,73c-1.32-.72-1.92-2.4-1.92-5.16q0-6.84,3.24-55.8l4.44-64.8v-50.4c.48-1.56,1.08-2.4,1.8-2.4,1,6.48,1.44,16.68,1.44,30.48,0,5.88-.6,20.28-1.92,43.2l.24-.36c14.28-.6,25-4.2,32-11,4.92-4.8,7.44-9.84,7.44-15a43.73,43.73,0,0,0-1.32-9,57,57,0,0,0-5.4-13.8c-6.84-11.88-16.92-16.92-30-15.24ZM151,422.88l-1.8,19.92,3.24.6v.72q12.06-.18,17.28-2.52c3-1.32,4.56-3.36,4.56-5.88q0-4.32-6.48-8.28C163.32,424.92,157.68,423.36,151,422.88Zm-1.44-5.28.12-.24c11,0,18.6,2.28,22.8,6.72,2.64,2.76,4,6.6,4,11.64,0,3.72-.48,6.48-1.32,8.16-1.8,3.24-5.64,5.76-11.64,7.56H151l-2.52-1.68c-1.56,14-3,23-4.2,27.12h-1.32a16.85,16.85,0,0,1-.36-4.08l2.64-22.08.48-4.2-.12-.6.48-2.64,2.76-24h.6Zm13.92-35.28a78.13,78.13,0,0,1-1.32-12q-4.68,8.46-11.88,22.68l-12.48,24.36h-.84a13.1,13.1,0,0,1-.48-4.08q0-2.7,9.72-23.4c7.08-14.64,12.48-24.48,16.44-29.64a207.37,207.37,0,0,1,4.56,23.64,229.87,229.87,0,0,1,1.92,23.52l.36.24c1.68-3.72,5-12.24,10-25.44,4-10.68,7.32-18.36,10.08-23.28,1.8,5.16,4.32,16,7.56,32.28,3,15.36,4.56,24.12,4.56,26.4l-.24,3.24a2.33,2.33,0,0,1-1.68,1.08,239,239,0,0,1-6-25.92l-4.8-25.92c-2,4.2-5.28,11.88-9.72,23.16-4.2,10.56-7.68,18.48-10.32,23.64-2-2.4-3.12-6-3.36-10.68.12-5.64.12-9.72-.12-12.36C165.24,391.8,164.52,388,163.44,382.32Zm-5.16-119.4q0,5.94,7.92,12.6c1.08.84,6.84,4.8,17.52,12.12,7.92,5.28,13.8,10.2,17.52,14.88,5.28,6.48,7.92,13.56,7.92,21.12,0,6.84-2.28,13.44-6.72,19.92-6.36,9-15.36,13.44-27.12,13.44-21.84,0-36.12-4.8-43-14.52a23.28,23.28,0,0,1-4.08-10.8v-6.36c0-2.4,0-4.08.12-5.16a14.16,14.16,0,0,1,2-6.12c1.56.6,2.16,2.52,1.92,5.64l-.84,6.48c0,5,2.16,9.36,6.48,13.08,7.32,6.12,19.68,9.12,37.32,9.12a30.51,30.51,0,0,0,23.76-10.44,31.85,31.85,0,0,0,5.64-8.52,16.62,16.62,0,0,0,1.8-6.48c0-5.4-2.64-10.56-8-15.6-2.76-2.76-8.64-7-17.4-12.72-8.28-5.4-14-9.84-17.52-13.56-5.28-5.64-7.92-11.76-7.92-18.12,0-8.28,2.28-14.52,7-18.72,4.08-3.72,9.24-5.28,15.36-4.68a25.59,25.59,0,0,1,15.36,6.72,19.57,19.57,0,0,1,7,15.12l-.12,3.12-.72,2.16h-.84a27.62,27.62,0,0,0-3.6-10.56c-3.72-6.48-9.6-9.72-17.52-9.72A17.92,17.92,0,0,0,162.36,254C159.6,257.52,158.28,260.52,158.28,262.92ZM33.24,18.48q0,30.06-.36,40.68a314.38,314.38,0,0,1-3.6,40.2v44.4C28,155,27,169.68,26.52,187.68c-.6,23.64-1,38.16-1.32,43.8V311c-2.52,31.56-4,49.44-4.08,53.52s-.24,17.64-.24,41c0,5,.36,15.36,1.08,30.84L23,461.64c0,5.4-1,24.48-3,57.24l-3.48,58.44c2,0,5.88-1.08,11.52-3.12a47.84,47.84,0,0,1,16.32-3.12l24,1.08,22,1.08a11.61,11.61,0,0,1,2.16,6.48,12.19,12.19,0,0,1-.72,4.08A8.61,8.61,0,0,1,89.88,587l-25.08-1.2-9.6-1a97.64,97.64,0,0,0-24.36,3.48c-8.76,2.4-14.4,3.6-16.8,3.6-1.92,0-3.12-1.44-3.48-4.32v-4.92c0-4.68,1.32-23.28,3.84-55.8s3.72-54.36,3.72-65.16c-1.44-33-2.16-51.72-2.16-56,0-24.6.12-39.24.24-43.92.36-8.52,1.68-26.88,4.08-55.08V227.16L22,183.36q1.08-25,2.88-43.92V95.76a127,127,0,0,0,2.88-22.32q.54-8.1.72-22.32C27.6,40.68,27.12,32.76,27,27.24c-.24-10,1.32-16.2,4.68-18.84C32.76,10.56,33.24,13.92,33.24,18.48Zm86.52-4.08a12.08,12.08,0,0,1,.36,3.24L119,36,118,54.48l-.48,52.08c0,20.4,1,37.56,2.88,51.36V354.36l1.2,4.08V415.2l1.08,4.08V521.52l.12,1,.12,2.28c0,6.12-.48,15.12-1.32,27-1.32,17.64-3,29.4-5.16,35a29.91,29.91,0,0,1-1.68-7.44,43,43,0,0,1-.48-6.36q0-16.2,1.8-50.4c1.08-22.68,1.68-39.36,1.68-49.8,0-23.64-.36-41-1.08-52.44V363.48a16.55,16.55,0,0,1-1.08-4V161.4c-.48-3.48-1-7.68-1.44-12.84-.48-4.8-.72-7.92-.72-9.48l.36-23c.24-15.72.24-27.6-.12-35.64v-52l.36-9.36c.36-4,1.68-6.36,4.2-7.2A9.6,9.6,0,0,1,119.76,14.4Zm58.8,181.68a152.71,152.71,0,0,1-5,22l-6.84,21c-1.44-1.56-2.16-2.52-2.16-3.12,0-2.64,1.08-7.08,3.36-13.32,2.4-7.08,3.72-11.4,4-13.08.72-6.36,1.32-11.16,1.8-14.28,1-5.64,2.4-9.24,4.2-10.56,1.8,4.44,5.16,11.4,9.84,21q6.3,13.5,8.28,22c1.32-3,3.84-9.6,7.56-19.92a226.55,226.55,0,0,1,8.64-21.48l1.08,2.28.24,3.12c0,1-2.28,7.92-7,20.76-5.76,16-9.24,25.68-10.32,29-2.76-4.92-5.64-12.24-8.88-21.72l-7.92-23.64ZM210,182.52l-38.4-.6c-.24-.36-2.28-.72-6-1.08a57.67,57.67,0,0,1-.24-6c0-4.2,1.2-13.92,3.72-29.4s4.32-24.36,5.4-26.28l.6,1a7.88,7.88,0,0,1,.24,2.28c0,1-.84,6.84-2.4,17.64-1.68,11.64-3,19.2-3.84,22.92v10.32l1.68.36a5.25,5.25,0,0,1,2.16.72H210a9.3,9.3,0,0,1,1.92,1.32,4.65,4.65,0,0,1,.48,2.64,5.73,5.73,0,0,1-.6,2.88A3.55,3.55,0,0,1,210,182.52ZM196.92,86.4a5.17,5.17,0,0,1,.36,2.4,4.91,4.91,0,0,1-.36,2.28l-.72,1-30,1.08-.24-.36v.12c-.6,12.84-1.32,22.68-1.92,29.52l-1.08.24a37.69,37.69,0,0,1-.6-7.68l1.08-20.76,1.32-28L161.88,66l-.36-.84a12.73,12.73,0,0,1-.24-2.52,10.45,10.45,0,0,1,.12-2.28l.12-.24,4.56-.36,6.84.6,33,.48.72,1a4.91,4.91,0,0,1,.36,2.28,3.76,3.76,0,0,1-.48,2.4l-.84.6-34.08-.24-4.08-.6h-1.08l.24,7.2-.48,13.32,1.56-1.56,28.44.36ZM372.48,331.32a4.25,4.25,0,0,1-1.92-1.56,6.8,6.8,0,0,1-.48-3c0-1.92-4.68-5.16-14-9.84-9.12-4.56-16-7.2-20.64-8Q301.56,297,286.2,382.8c-2.76,15-4.8,31.8-6.36,50.16,1.8-.84,4.2-1.92,7.2-3a187.39,187.39,0,0,1,23.64-6.48,145.31,145.31,0,0,1,23.64-3.36q10.8-.54,10.8,2.88,0,4.86-20.52,10.8a238.17,238.17,0,0,1-45.36,7.92l-.12-.12-.48,6c-1.08,16-1.56,29.28-1.56,40.08l-.36,15.48a130,130,0,0,0,3.6,30.36q11,43,50.16,43c17.52,0,29.88-5.52,37.2-16.44a124.08,124.08,0,0,0,6.48-13q3.24-7,6.12-9c-.24.6-1.32,4.8-3.12,12.6A112.46,112.46,0,0,1,371.52,568c-6.36,14.52-15.84,21.84-28.56,21.84-29.88,0-50.64-12.48-62-37.44a88.24,88.24,0,0,1-7.44-26.28,105.7,105.7,0,0,1-1-13.44q0-69.66,7.44-120.36,13-88.56,45.72-95c16.68,1.08,29.28,4.8,38,11.4,6.84,5,10.32,10.56,10.32,16.68A10.39,10.39,0,0,1,372.48,331.32Zm43-26.4v.48c0,14.76-1.2,38-3.6,70.08l-5,64.68v59.16l-1.08,4.08v51.12l-3.6,18.72q82.44-21.06,118.56-49.44,33.66-26.46,33.6-64.56a260.57,260.57,0,0,0-4.44-45Q545,386.7,538.32,373.56c-3.24-6.24-8-12.84-14.4-19.92a133.6,133.6,0,0,0-24.24-21c-6.36-4.2-23-9.84-50-16.8-12.36-3.24-20.76-5.64-25-7.08A35.89,35.89,0,0,1,415.44,304.92Zm65,8.64a213.56,213.56,0,0,1,26.16,12.84c20.28,13.32,33.36,29.28,39,48q12.78,41,12.72,96.12c0,10.8-3.72,23.28-11.28,37.56-8.52,16-18.36,26.64-29.52,32.16-15.72,9.48-31,17.88-45.72,25.08q-42.66,20.88-69.36,20.88l-2.76-.12-.48,2.28a4.67,4.67,0,0,1-3-3l-.12-.48a5.46,5.46,0,0,1-1.92-2.16,6.46,6.46,0,0,1-.48-2.64l.12-1.32c0-2.28,1-3.72,2.76-4.2.36-2.76.84-5.76,1.56-9.12l3.24-17V498l1.08-4.08v-57.6q2.34-47.34,4-71.28,2.7-42.12,7.2-69.48a21.42,21.42,0,0,1,1.44,4.44c1.56-1.56,4.68-2.4,9.36-2.28,6.24.24,14.64,1.92,25.32,4.92A279.29,279.29,0,0,1,480.48,313.56ZM389.76,16.08a10.57,10.57,0,0,1-.6,3.48l-1.8,3.12-27.6.6-19,1.8-20.52,2h-6.84l.12,3.72a157.32,157.32,0,0,1-.6,16.32c0,21.72-.72,41.76-2.28,60.36q-3.78,47.7-5,70.68v46.2q-.72,5.58-2.16,37.08c-.84,15.36-2.4,27.6-4.92,36.6-.84-1.08-1.56-3.12-2-6.36a39.37,39.37,0,0,1-.6-5.64c0-3.72.72-15.84,2-36.36l2.28-31V173.28l3.84-51.48,4-52.2V27.24l-31,.36-11.4.6c-24.12,0-39.24-1.56-45.6-4.56-2.28-1.08-3.48-2.28-3.6-3.84l.24-3.24a19,19,0,0,1,.36-4.08v-.6c.12-.36.72-.48,1.8-.48a34.91,34.91,0,0,1,6.84,1.8c6.12,1.32,15.72,1.92,28.92,1.92L267,14.88,278.16,14l30.6-.36.12-.12.24.12,12.72-.12,19.44-1.68,20-1.56,3.36-.36h23.16A10.55,10.55,0,0,1,389.76,16.08Z" transform="translate(-10.56 -8.4)"/></svg>