<svg id="Layer_1" data-name="Layer 1" xmlns="http://www.w3.org/2000/svg" viewBox="0 0 343.06 327.95"><defs><style>.cls-1{fill-rule:evenodd;}</style></defs><path class="cls-1" d="M108.24,100.2a164.11,164.11,0,0,0-4.44,36.48q-1.08,64.44-3.12,129t-5.16,129a96.83,96.83,0,0,0,1.32,21.6,13.08,13.08,0,0,0-.36,3.12A8.77,8.77,0,0,0,99,425.88h.36l.48,1.32c.84-.24,1.2-.48,1.2-.84l.12-.24a416.26,416.26,0,0,0,135-9.12,3.29,3.29,0,0,0,3,1.68l1.32-.36a11.44,11.44,0,0,0,3.12-5.64c1.2-5.28-.12-9.6-4-13.08l-7-.24a465,465,0,0,1-130.08,13c1.68-18.12,2.64-36.36,2.76-54.84.36-43.08,1.68-86.16,4.08-129a996,996,0,0,0-.72-128.4Zm93,78.6q-2,64.62-5.76,129a391.16,391.16,0,0,0,1.68,64.2c2.28-.12,3.6-1.56,3.72-4.08,2.28-42.48,4.44-85.2,6.24-128.16s1.8-85.92-.12-128.28A595.86,595.86,0,0,0,201.24,178.8Zm235.68-26.4c4.8-18-1.56-29.76-19.2-35.28Q368.4,165,369.48,237c.36,18.72-.12,37.32-1.2,55.92a347.7,347.7,0,0,0,11.28,113.52,15,15,0,0,0,10.8,10.68,45,45,0,0,0,7.2,1.32h2.28l2.28-.36a18.59,18.59,0,0,0,6.72-2.28,43.1,43.1,0,0,0,12.6-11.16,55.18,55.18,0,0,0,7.44-14.16,40.1,40.1,0,0,0,1.32-22q-13.86,27.54-42.48,31.08-23.4-56-10.92-118a113.94,113.94,0,0,0,34.68-5c3-5.16,2.76-10-.72-14.64l-33.36,6.36q-7-75.78,37.08-134.88l11.88-.48,4.44,9.24Zm-60.84-47.16a134.52,134.52,0,0,0-11.16,30.24L333.84,259.8q-15.66,62.1-30.72,124.08l-.6,2.76c-2.28-10.92-4.44-22-6.48-33q-11.7-62.82-27.24-124.8-15.66-62.46-29.16-124.08c-2.28.6-3.12,2.28-2.76,5.16a1133.16,1133.16,0,0,0,25,125.88q15.84,61.38,26.28,124c1.8,10.68,3.36,21.36,4.56,31.92C294.24,403.8,298,414,303.84,422a23.13,23.13,0,0,0,3.24-11.16q7.38-36,16.8-73.08l30.6-124.2q7.56-31.32,16.92-62a128,128,0,0,0,5.76-46.8C376.56,104.88,376.2,105,376.08,105.24Z" transform="translate(-95.4 -100.08)"/></svg>