<svg id="Layer_1" data-name="Layer 1" xmlns="http://www.w3.org/2000/svg" viewBox="0 0 531.36 547.2"><defs><style>.cls-1{fill-rule:evenodd;}</style></defs><path class="cls-1" d="M47.4,31.08c.12,1.2.24,3.84.24,7.92q0,38.34-16,258.12Q21.42,439,13,545.4v9.48l17-3q10.62-2,31.68-3.24l33.6-.6c18.6-.12,28.56-.84,30.12-1.92a7.45,7.45,0,0,1,2.28-1.08l12.84-.72c28.2-.36,42.6-.72,43.32-1.08a10.95,10.95,0,0,1,5.4,8.76,14.58,14.58,0,0,1-.84,5.76,5.33,5.33,0,0,1-5.64,3.84l-43.32.6-12.72.6a11.49,11.49,0,0,0-2.64,1.2c-2,1.08-12,1.8-29.88,1.92l-33.6.6L38.88,568l-6.72,1.8c-7.32,1.8-12,2.64-13.8,2.64l-11.28-.24A18.9,18.9,0,0,1,4.32,561.6q0-12.06,9.12-124.92Q23.7,309.42,24.84,292.92l4.44-67.32q2.7-38.88,5.4-67.32c.24-8.52.72-19.56,1.44-33.24L37.92,91V57.36c.6-13.08,2.64-23.88,5.88-32.16C45.72,25.56,46.92,27.6,47.4,31.08Zm140.52,5.4c.84,1.08,1.32,3.84,1.32,8l-1.08,42.24q0,26.28-4.32,114.24c-2.88,58.68-4.32,90.72-4.32,95.88l2.16,52.68q0,16.92-5.88,84.6-5.94,67.5-8.16,76.32c-1.08-1.2-1.92-3.36-2.52-6.36a28.88,28.88,0,0,1-.72-5.52c1.8-16.2,3.6-34.44,5.4-55q5.4-61.2,5.4-94.08L173,297.24q0-15.84,3.72-100.8,3.78-85.14,3.84-139c0-8.64,1.44-15.24,4.32-19.68C186.12,36,187.08,35.52,187.92,36.48Zm85.2,4a29.85,29.85,0,0,1,.6,5.52q0,2.7-5,39.24-5.76,42.3-6.84,52.56a467.08,467.08,0,0,1-9.36,50.88c-4.56,19.56-8.52,32.76-11.76,39.48-2.52-9.24-5.76-24.72-10-46.32-4-20.76-7.44-36.48-10.44-47l-6-23.64q-3.42-14-5-23.4c-.72-4.68-3-13.44-7-26.52-3.72-12.36-5.52-19-5.52-19.8,0-8.28,1-11.64,2.88-10,1.68,1.44,4,6.48,6.72,15.24a477.32,477.32,0,0,1,14.52,60.48c2.52,9.72,6.84,24.24,13.2,43.8,5.16,17.4,7.92,32,8.16,43.92h.24c3.48-13.08,6.6-26.64,9.12-40.68,2.52-14.28,4.44-27.72,5.52-40.56,1.8-19.8,3.48-34.56,4.92-44.28,2.52-17.16,5.4-29,8.88-35.52A22.43,22.43,0,0,1,273.12,40.44Zm52.56,9.72a45.57,45.57,0,0,1-.24,5.76,8,8,0,0,1-4.68,5.52,5.45,5.45,0,0,1-1.2-3.12l-1-4.2c-1.2-3.48-4-5.16-8.4-5.16q-16,0-22.44,51.48c-1,8-1.68,16.08-2.28,24.12,5.28-1.8,16.32-2,33.12-.84a12.31,12.31,0,0,1,3.84,9.24c0,1.56.12,3.24.24,5.16a2.93,2.93,0,0,1-2.16,2.64l-30.6,1.08a9.38,9.38,0,0,1-5.16-1.32l-.24,11.64.48,28.68c1,18.72,3,30.84,6.24,36.48l8.4-.24c4.44-4.8,9.72-11.28,15.84-19.32l12.84-16.68a24.18,24.18,0,0,1,2.76,11.64c0,7.44-2.64,14.16-7.8,20.28a107.41,107.41,0,0,1-9.72,9.48L300.24,234.6h-9.72c-6.24-7-10.2-22.2-11.76-45.72-.6-7.44-.84-15.48-.84-24l.12-12.24c0-26,1.08-48.12,3.36-66.48q5.94-48.06,21.48-54.72,15.48.54,20.52,8.64C325,42.48,325.68,45.84,325.68,50.16Zm32.4-3.24.36,10.32.72,12,1.44,23.64c.48,9.48.72,17.64.72,24.24L363,160.56c1.08,27.72,1.56,45.12,1.56,52q0,67-13.2,179.52-9.54,81.18-21.72,154.32a49.35,49.35,0,0,1,9.24-6.48c4.08-2.4,14-7.68,29.76-15.72,15.48-7.8,27.72-14.52,37-20,14-8.4,25.32-16.56,34-24.48q38-34.92,54.72-78c11.28-29.16,19.56-54.84,25-77.28q9.9-40.68,9.84-77.52a236.26,236.26,0,0,0-5.28-49.08c-2.52-11.4-7.32-28.32-14.4-50.88-3.48-10.92-6.36-19-8.64-23.88a99.66,99.66,0,0,0-16.68-25.32Q457.26,68.52,396.6,52.8l-2.28-1.68C376.8,52.2,364.68,50.76,358.08,46.92Zm-2.64-18.48c.6.36,2.76,1.56,6.24,3.72q55.26-2,94.08,24.36,32.58,22,52.32,62.76,15.66,31.86,22.68,72.84a327.12,327.12,0,0,1,4.92,55.08q0,41.94-7.68,77-6.3,29-25.08,82.08A196.86,196.86,0,0,1,483.24,446a268.3,268.3,0,0,1-31,39.84c-5.52,6-13.44,12.72-23.64,20a221.86,221.86,0,0,1-29.88,18.6l-37.32,20c-18.24,9.72-28.2,14.64-29.88,14.64a4.13,4.13,0,0,1-3.72-2l-.6,3.12c-3.24-2.16-4.8-6-4.8-11.4q8.82-57.06,17.76-127.56Q358,280.38,358.08,213c-1-35.64-2-58.08-3.24-67.44v-41.4a438.87,438.87,0,0,1-4.32-63.24,17.46,17.46,0,0,1,1-6.24c.6-1.08,1.2-1.8,1.8-1.92A14.59,14.59,0,0,1,355.44,28.44Z" transform="translate(-4.32 -25.2)"/></svg>