<svg id="Layer_1" data-name="Layer 1" xmlns="http://www.w3.org/2000/svg" viewBox="0 0 348.92 312.72"><defs><style>.cls-1{fill-rule:evenodd;}</style></defs><path class="cls-1" d="M106.8,131.76q-2.16,55.62-6,111.24-4.5,63.9-7.56,128.16a223.32,223.32,0,0,0,2.52,48,759.46,759.46,0,0,1,114.72,4.56q6.84-9.18,0-18.36a764.27,764.27,0,0,0-109.56-5.52c0-8.88.12-17.76.36-26.76q1.44-64.26,7.2-128.16A1008.3,1008.3,0,0,0,112,117.48C108.72,121,107,125.64,106.8,131.76Zm96.6-3.12a282.23,282.23,0,0,0-3.6,47.76,1058.6,1058.6,0,0,1-6.24,128.16A239.65,239.65,0,0,0,195,368.88l1.32-1Q201,312.66,204.6,256.8a933.54,933.54,0,0,0-.6-128.28Zm54.48,2.52a16.58,16.58,0,0,0-1,10.68l.84,3.72q.18,58-3.6,116.16l-8.4,128.16a61.71,61.71,0,0,1-1.8,11.76c-2.64,10.2-1.08,18.12,4.68,23.64,5.4-40,9-80.52,11-121.56q3.06-60.48,5.64-121.2l13.08,64.8Q291.18,309.78,302,372.84c1,5.52,1.8,11,2.4,16.44q2,18,10.44,31a2.59,2.59,0,0,0,1.92-2.52v-.84l.24.36a3.41,3.41,0,0,0,1.44-2.52c1.08-8.52,1.92-17.16,2.28-25.8q3.42-64.26,7.2-128.28,4-63.72,3.72-127.56a1.09,1.09,0,0,1-.36-.84,5,5,0,0,0-2-3.12c-2.16,1.92-3.24,4.68-3.24,8.4q-.18,64.44-4.56,128.16C319,302.76,316,339.6,312.72,376.44q-14-61.74-25.56-124.2c-6.6-35.64-14-70.8-22.56-105.6a164.29,164.29,0,0,0-3.24-19.2l-1.32.72V128l-.24.24A4.6,4.6,0,0,0,257.88,131.16Zm114.72-.24v-2.64c-3.72,6.6-5.76,14.52-6,23.52q-.72,38-2.76,76.2-3.42,63.9-4.8,128.4a268.36,268.36,0,0,1-4,39.36c-2.28,12.12-1.2,22.92,3.12,32.52a117.1,117.1,0,0,0,7.68-43.56c-.12-43,1-85.68,3.48-128.28q2.7-48.06,3.24-95c6.6,37.2,13,74.52,19.32,111.84q10.62,63.18,24.48,125.88a131.43,131.43,0,0,0,11,31.08,3.4,3.4,0,0,0,2-3v-8.28l1.56,1.32a15.55,15.55,0,0,0,1.08-13.8q1.44-45.72,4.8-91c1.56-21.36,2.16-42.72,2-64.08q-.54-65,2.88-128.28c-4.92,7.44-7.44,16.32-7.68,26.76q-1.26,42.84-1.92,86-.9,64.62-4.68,129.12c-.36,7.56-1.08,15-2,22.56l-1.92-7.92Q406.86,318.12,396,255.36q-10.8-63.36-22.32-126Z" transform="translate(-92.92 -117.48)"/></svg>