<svg id="Layer_1" data-name="Layer 1" xmlns="http://www.w3.org/2000/svg" xmlns:xlink="http://www.w3.org/1999/xlink" viewBox="0 0 516.73 594.17"><defs><style>.cls-1{fill:none;}.cls-2{clip-path:url(#clip-path);}.cls-3{fill-rule:evenodd;}</style><clipPath id="clip-path" transform="translate(-24.96 2.09)"><rect class="cls-1" x="24.24" width="519.36" height="592.2"/></clipPath></defs><g class="cls-2"><path class="cls-3" d="M244.32,570.12a158.37,158.37,0,0,0,1.32,16.8,2.18,2.18,0,0,0,1.2-1.56l4.2-34.44,17.76,39.72,1.44.84a76.54,76.54,0,0,0,9.36-22.68,34.9,34.9,0,0,0-3.6-26.88l-6.24,35.76-20.4-39A81.26,81.26,0,0,0,244.32,570.12Zm20.76-37.68,22.2.6,1.08-9-19.44-2.88,1.92-49.56a66.93,66.93,0,0,0-6.36,35C265.08,515.16,265.2,523.8,265.08,532.44Zm28.2-226.68L281.64,242.4l-15.72,48a184.27,184.27,0,0,0-6.36-45l-1.68-6.24a104.07,104.07,0,0,0-9.36,21.24c-4.2,13.56-5,26.4-2.64,38.64l11.64-45,7.08,48a90.64,90.64,0,0,0,12.6-26.4,93.83,93.83,0,0,0,3.36-16.92,115.41,115.41,0,0,0,10.08,42.36A30.73,30.73,0,0,0,293.28,305.76ZM284,314.64q-.72-23.58-20.52,0c-5.52,6.6-5.16,12.84,1.08,19a79.72,79.72,0,0,1,23.88,47.28c2.28,15.72-3.48,25.92-17.16,30.6l-4.8.84a54.66,54.66,0,0,1-16-25.68c-3.72,16.92,2.28,29,17.76,36.24-3,2.28-5.4,2.52-7.2.84A95.65,95.65,0,0,0,257,476.4l2.76-24.72c5.16,1.08,10.32-.12,15.6-3.6a4.67,4.67,0,0,0-.12-5.64L274,441l-13.44,4.32,1.68-12.48,18.36-2.4.6-7.08-2.76-1.2q30.78-41.58-1.68-85.08a113.43,113.43,0,0,0-14-15.36c3.48-6.72,9-10.2,16.56-10.56ZM36.84,10.8q-3.06,63.72-4,127.44c-.6,43.08-.72,86-.24,129.12.6,42.84.24,85.92-1,129l-4,129.12a233.5,233.5,0,0,1-2,24.12c-1.44,10.32-.72,19.32,2.28,27l-.24.36-.36.72a29.42,29.42,0,0,0-.24,3.24v2.4l1,2.4.6.84a489.61,489.61,0,0,1,121.44-.48,10,10,0,0,0,2.16-5.64,11.54,11.54,0,0,0-.24-4.08l-.36-1.56-1.2-2.28-1.2-1.08-3.24.24L97.44,569a328.06,328.06,0,0,0-63.36,3.24l-1.08.84-1,.6L31,574.2A422.44,422.44,0,0,0,34.44,526c.72-43.08,1.8-86.16,3.12-129q2-64.8.84-129.12c-.72-43.32-.36-86.52,1-129.84s.84-85.92-1.2-128.28A1.15,1.15,0,0,0,36.84,10.8ZM320.28,193.08c16.8-6.12,27.24.6,31.44,19.92,3.48,16.44-1,30.36-13.08,41.64a29.3,29.3,0,0,1-17.64,8L318,195ZM267,135.36q-14.94,21.06-.24,42.48c21.48,8.52,33.12,4,35.16-13.8Q277.26,183.3,262.68,157c2.76-14.52,11.16-23.4,25.2-26.52,2.76,3.6,5.64,4.68,8.52,3.24C289.56,117,279.72,117.48,267,135.36ZM199.56,58.2q-4.5,64.26-4,129c.36,43.08.84,86.16,1.68,129.12S199,402,199.92,444.6l-.12.72q-.72,65-5,127.44a36.31,36.31,0,0,0-3.72-5.88c1.44,8.4,4.44,14.76,9.12,19.2a257.44,257.44,0,0,0,5.16-45.48q1.44-64.62,1.2-129.12c-.12-43.08-.84-86.16-2.28-129q-1.62-48.24-1.44-96.6.54-64.8-2-128.28C200,57.48,199.68,57.72,199.56,58.2Zm1.68-55L181,31.56A139.93,139.93,0,0,0,160.08,3.48c-1.92-2-4.08-2.88-6.48-2.28l-.72,1.08L152.4,4l-.24,1.68a6.82,6.82,0,0,0,1.32,4l2.28,2.16,1.44,1a38.64,38.64,0,0,0,8.28,11,134.27,134.27,0,0,0,13.44,11,79.39,79.39,0,0,0-14.76,23.28c-1.2,3-.84,5.52,1,7.68a314.73,314.73,0,0,0,39.12-55.32C206.16,7,205.2,4.56,201.24,3.24ZM255,4.32c-1.08,19.56-2.52,39.24-4.44,58.8a278,278,0,0,0,.48,60l.6-.6A575,575,0,0,0,255.72,4.08C255.24,4,255,4,255,4.32ZM285.48,94.2a103.46,103.46,0,0,0,13,28.44,5.72,5.72,0,0,0,.72-4.8Q280.8,59.16,256.8,2.4c-1.08,14.64,2.28,29.76,10.08,45.24A303.76,303.76,0,0,1,285.48,94.2Zm10.2-2.76c0,11.16,1.56,20.88,4.68,29.28l.24-.84q2-59.22,2.64-116.88A479.62,479.62,0,0,0,295.68,91.44Zm61,110.88q-4.14-17.1-21.6-20.88a787.05,787.05,0,0,0,4-118.92,227.93,227.93,0,0,0-7.08,52.08,537.26,537.26,0,0,0,2.4,66.6,13.41,13.41,0,0,0-11.16,1.56c-2.76,1.8-4.68,2.52-5.76,2.28l-.48.12-2,9.36,1.2,1.08q1.8,74.7-1.56,148.8A21.82,21.82,0,0,0,317,355.32a291.56,291.56,0,0,0,4.2-83.64c10.44,0,19-4,25.56-12a40.81,40.81,0,0,0,7.2-12.84A73.45,73.45,0,0,0,356.64,202.32Zm9.12,157.2a284.44,284.44,0,0,0-63,6.84l.24,8.88,33.72-3.72a1277.48,1277.48,0,0,0-5.16,156.36L333,580.8a45,45,0,0,0,1.68,11.28A927.89,927.89,0,0,0,340.08,433c-1.08-20.52-1.68-41-2-61.56l28.2-4Zm11.4-287.28-.48-3q-29,26.46-37.44,62.28l16-20.28a284.55,284.55,0,0,0,19.68,70.92A254.84,254.84,0,0,0,356.4,109.8l13.08-16.2A27,27,0,0,0,377.16,72.24Zm158.4,57.84q-11-55.62-68-61.92a96.26,96.26,0,0,0-27.84,15,49.79,49.79,0,0,0-15.36,19.32,180.55,180.55,0,0,0-13.92,99,54,54,0,0,0,9.24,24.36,1159.1,1159.1,0,0,0,76.2,98.88,149.92,149.92,0,0,1,34.92,74,180.2,180.2,0,0,1-7.2,91,211.54,211.54,0,0,1-37.92,54.6A69.5,69.5,0,0,1,460.2,561a176.49,176.49,0,0,1-43.32,10.08c-9.72,1.08-17.88-2-24.6-9.36a65.56,65.56,0,0,1-8.16-11,127.32,127.32,0,0,1-16.68-44.4q-5.58,4.5-4.32,13a158.63,158.63,0,0,0,11.64,40.56,55.71,55.71,0,0,0,15.36,20.52,34.72,34.72,0,0,0,17.64,7.8q42.12,5.94,73.68-19.2a147.61,147.61,0,0,0,38.28-46.44q24.84-47.52,21.6-102.36-4-66.6-47.52-117.12-32.4-37.44-63.48-76.08a49.93,49.93,0,0,1-9.84-19.08c-8.28-30-7.2-60.12,3.48-90.36a79.71,79.71,0,0,1,14.52-17.76c18.36-16.92,38.76-19.2,61-6.72a56.56,56.56,0,0,1,24.12,26.88A119.07,119.07,0,0,0,535,140.76,21.32,21.32,0,0,0,535.56,130.08ZM443.76-1.32,412,24.84c-8.28-7.08-16.44-14.64-24.24-22.44-1.56.24-2.4,1.2-2.52,3a21.39,21.39,0,0,0,.6,7.32l.84.84,18.24,17L386,45.72l-.36.84L385,48.12a81,81,0,0,0-7.8,6.6c-1.44,4.32-.84,8,1.68,11,10.56-9.6,21.36-19,32.4-28a216.64,216.64,0,0,0,34.44,24.48A12.29,12.29,0,0,0,447,59a11.94,11.94,0,0,0-1.08-8.16l-.72-.6q-13.14-9-25.56-19.08c9.36-7.56,19-14.76,28.68-21.72l.24-.84a11,11,0,0,0-1.08-10.56A4.49,4.49,0,0,0,443.76-1.32Z" transform="translate(-24.96 2.09)"/></g></svg>