<svg id="Layer_1" data-name="Layer 1" xmlns="http://www.w3.org/2000/svg" viewBox="0 0 470.41 323.04"><defs><style>.cls-1{fill-rule:evenodd;}</style></defs><path class="cls-1" d="M114,132.36q-1.44,48.06-3.48,96.6c-1.8,42.84-5,85.56-9.48,128.16a216,216,0,0,0,2.28,64.2,623,623,0,0,0,116.88,1.32c4.68-6.36,4.68-12.84,0-19.2a6.61,6.61,0,0,1-4.8,0l-.24-.84q-.36-4.14-2.52-5.4l.12.84,1.2,4.8a373.14,373.14,0,0,1-106.56-.48q2-60.3,5.16-120.24c1.8-32,4.2-63.84,7.44-95.52a295.08,295.08,0,0,0-.48-64.32l-1.32.6A12.75,12.75,0,0,0,114,132.36Zm75.72-1.44a118.22,118.22,0,0,0,11.52,47.76c2.76,5.88,5.88,11.64,9.12,17.16a239.86,239.86,0,0,1,25.32,57.72q-23.76,54-44.88,109c-3.72,9.6-2.76,17,2.88,22.2A1043.6,1043.6,0,0,1,235,278.88q26.46-58.32,47.28-118.32A67.18,67.18,0,0,0,286,129.84l-.48.12q-19.62,55.62-44.16,111a35.27,35.27,0,0,0-3.24-8A715.13,715.13,0,0,1,191,130.2C190.2,130,189.72,130.2,189.72,130.92Zm258.12,20.16a191.17,191.17,0,0,0-26,55.8c-4.2,14.76-7.68,29.64-10.68,44.64a427.16,427.16,0,0,0-5.28,127.92q4.5,41.58,46.56,43.92a10.75,10.75,0,0,0,7.68-2.4c21.48-17.16,35-38.4,40.68-63.48l-1.2,1.32c-2.76,2.76-5.28,4.08-7.56,4.2a137,137,0,0,0-6.48,12.48q-15.3,34.2-51.36,25.56a13,13,0,0,1-8.64-6q-19.26-30.42-15.12-68.76c2.28-21.36,4.32-42.72,6.12-64.2a204.9,204.9,0,0,1,34.8-99.24A16.83,16.83,0,0,1,463.2,155c12.6-2,23.52,2,33,12.24v-.6c-1.92-16.44-11.52-26.52-28.68-30A33.25,33.25,0,0,0,447.84,151.08Zm-52-9Q391,206,387.24,270.24q-3.06,52-7.92,104c-3.12-18.84-7-37.68-11.52-56.4q-7.74-31.14-14.52-62.64A870.37,870.37,0,0,0,317.4,133.08a2.67,2.67,0,0,0-2,2.28l-.12-2.76c-1.32.12-2,.84-2.16,2.4q-1.8,34.92-4.8,69.84-5.4,63.54-10.32,127.32c-1.68,21.48-4.32,42.72-7.92,63.84-2,12.12-1,22.92,3.24,32.64a2.67,2.67,0,0,0,1.08-1.56,950.15,950.15,0,0,0,12.12-102.84c1.32-21.48,3.12-42.84,5.52-64.08a696.44,696.44,0,0,0,3.48-123.36V137l20.64,86.52q14.76,62.28,29.16,124.8a619.41,619.41,0,0,1,10.92,62.52,40.21,40.21,0,0,0,1.08,6.12,46,46,0,0,0,4.2,13.2l.48-2.4a23.67,23.67,0,0,0,3.6,4.08,3,3,0,0,0,.72-2.4L384.48,412c.84-6.24,1.32-12.6,1.68-19.08,2.4-42.84,5-85.68,7.92-128.28q4.32-64.8,4.44-128.16C397,137.52,396,139.44,395.88,142.08Zm168.72,12.6c-1.44,36.6-3,73.32-4.8,109.92h-.24a28,28,0,0,0-11.88-.72,79.94,79.94,0,0,0-26.28,5.64q4.14-61.92,3.84-122.28c-3,2.28-4.56,5.76-4.8,10.2L513.24,285a1259.3,1259.3,0,0,1-13.92,127.92q-2.7,18.18,4,32.4A92.83,92.83,0,0,0,510,410.76a29.33,29.33,0,0,1-.12-8.64c4.2-40,7.8-79.8,10.68-119.76a271.67,271.67,0,0,1,38.4-2l-.12,2.76q-3.24,64.26-10.68,128c-1.56,12.48-.12,23,4.32,31.8a5.24,5.24,0,0,0,2-3.24c2.28-13.56,4-27.24,5-41.28q5.22-63.9,8.4-128.28c2.16-43.08,2.64-85.92,1.56-128.28C566.52,145,564.84,149.28,564.6,154.68Z" transform="translate(-99.66 -122.28)"/></svg>