<svg id="Layer_1" data-name="Layer 1" xmlns="http://www.w3.org/2000/svg" viewBox="0 0 438.83 469.92"><defs><style>.cls-1{fill-rule:evenodd;}</style></defs><path class="cls-1" d="M283.92,316.92A66.72,66.72,0,0,0,257.16,338a89.46,89.46,0,0,0-18,45.24q-7.38,66.24,29.64,121.8c4.68,7.08,11.28,9.6,19.8,7.68Q328,503.58,335.76,464a6.36,6.36,0,0,0-5.76,3.24q-18.18,31.68-52.92,30a159.19,159.19,0,0,1-29-60.12,162.39,162.39,0,0,1-4.56-36.48q-.9-41.58,32.28-64.44,27.9-19.26,49.68,1.2l.36-.84c0-18-10.08-26.16-30.36-24.36A116,116,0,0,0,283.92,316.92ZM72,71.4a690.15,690.15,0,0,1-2,75.48,601.91,601.91,0,0,0-2,64.2,951.8,951.8,0,0,1-6.12,128.4Q54.42,403.2,50.28,467.4a300.55,300.55,0,0,0,2.16,64.32,1621.14,1621.14,0,0,0,193-5.76c3.48-5.28,3.48-10.44-.24-15.36l-3-1.08-.12-.84a15.8,15.8,0,0,0-.48-4.08l-.36.36-.72,4a137.4,137.4,0,0,1-43.32,4.56,158.38,158.38,0,0,0-23.88.6,560.6,560.6,0,0,1-116.16-.24q1.62-62.28,7.44-124c3.48-37.32,5.64-74.64,6.72-112.2.84-29.16,2.16-58.32,4.2-87.6A1162.44,1162.44,0,0,0,77.4,62.52C73.68,63.72,71.88,66.72,72,71.4ZM317.64,82c-4.44,15.72-6.48,33.12-6.12,52q1.62,64.8-1.8,129c-.6,12.12.6,22.8,3.6,31.8A478.33,478.33,0,0,0,319,210.24Q317.52,145.26,317.64,82ZM249.48,76.8l-.36-1.56q.54,42.66-1,88.44-2,64.62-5.52,128.28c.48,1.8,1.68,2.52,3.6,2.4A79,79,0,0,0,251,267.6q.9-64.08,3.24-128.28l.24-10.92a165.73,165.73,0,0,0,4.56,16.32Q278.7,205.56,292.8,268c2.76,12,7.32,21.6,13.68,28.92a16.05,16.05,0,0,0,.84-12.24q-13.86-42.48-26.4-85.44-18-61.74-30.72-124c-.36-.12-.6-.12-.6.24Zm-57.72,2.4q-3.78,40.68-3.6,82.08,0,64.26,1.32,129.12c.84,43,.12,85.92-2.4,128.88-.6,12,.84,22.8,4.44,32.28a2.14,2.14,0,0,0,1.08-1.44,1108,1108,0,0,0,2.76-123.24c-1.32-43.08-1.8-86-1.2-129.12.6-43.68,1-86.4.84-128.16A19,19,0,0,0,191.76,79.2ZM363.36,88q5,64.08,4.8,129.12Q368,281.88,364.32,346q-3.6,64.44-4.56,129.12a262,262,0,0,1-2.4,32.28c-1.44,10.44.6,18.24,6.24,23.52q3.6-35.46,4.32-72.24c.84-42.84,2-85.68,3.48-128.28,1.44-42.84,2.28-85.92,2.64-129a1079.06,1079.06,0,0,0-6.6-128.28C364.2,76.68,362.88,81.6,363.36,88Zm124.2-17.64a8.81,8.81,0,0,0-6.36,6.24q-20,60.3-43.32,119.16-24.3,61-52.8,119.16a113,113,0,0,0-12,52.56c.84,0,1.44-.12,1.56-.48q10.26-25.74,22-50.52c5.52-11.76,10.8-23.64,16-35.52l20.4,76.2q8.1,30.42,17.64,60.24,9.9,31,17.76,62.64a160.67,160.67,0,0,0,18.12,44.88,3.84,3.84,0,0,0,1.56-4,321.16,321.16,0,0,0-18-70.8,508.94,508.94,0,0,1-19-61.2,904,904,0,0,0-36-114l4.32-10.8q23.94-59,44.64-119.64a358.13,358.13,0,0,1,18.24-43.2C487.68,90.6,489.48,80.28,487.56,70.32Z" transform="translate(-49.48 -62.52)"/></svg>