<svg id="Layer_1" data-name="Layer 1" xmlns="http://www.w3.org/2000/svg" viewBox="0 0 479.08 467.31"><defs><style>.cls-1{fill-rule:evenodd;}</style></defs><path class="cls-1" d="M325.2,471.36l28.68,1.32a185.69,185.69,0,0,0,.48,57.12,290.82,290.82,0,0,0,3-68.52,49.76,49.76,0,0,0-32.4,5.16Zm13.32-60.48c2.4,1.56,4.8,2.88,7.2,4.2A13.66,13.66,0,0,0,343.56,403,18.69,18.69,0,0,0,331.2,395c-17.4-2.76-28.92,4.56-34.44,21.72A169.4,169.4,0,0,0,288.84,459,131.74,131.74,0,0,0,294,502.8c5.88,20.52,17.76,25.8,35.4,15.84,15-8.52,22.08-21.48,21-38.88a10.11,10.11,0,0,0-2-5.76,3,3,0,0,0-2-.36c-2.76.6-4.32,2.52-4.44,5.76a24.18,24.18,0,0,0,.6,6.6l1.44,1.68C339.6,501,330.84,508.8,317.64,511.2c-4.56.84-8.4-.6-11.64-4.2a54.62,54.62,0,0,1-13.44-35,115.74,115.74,0,0,1,15.6-62C318.48,404,328.56,404.28,338.52,410.88Zm-85-90.6a330.63,330.63,0,0,0-11.88-41.88l-.12-3.48a382.25,382.25,0,0,0-23.28,62.76A179,179,0,0,1,211,359c-4.56,11.16-4.68,20.64-.24,28.68,3.84-11.4,7.32-23,10.32-34.8,1.92-7.2,4.2-14.28,6.72-21.36l20.76-1.2c2,9.6,3.72,19.32,4.92,29.16,1.32,10.2,4,19.08,7.92,26.52l.24-.72a361.68,361.68,0,0,0-5.88-54.72l4.56.36a7.15,7.15,0,0,0,1.44-3.84,11.71,11.71,0,0,0-.24-4.08l-.72-1.56L260,321Zm-7.44-.72L231.36,322a103,103,0,0,0,9.72-33.6l4.56,29Zm67.8-17.4c-1.32,10.92-7.2,17.64-17.88,19.92l-2,.24.48-31.44c8.28-1,14.76,2,19.32,9Zm-20.4-19.44c-4.32,10.68-6.6,24.24-6.84,40.44-.12,14.76-1.08,29.4-2.64,44.16a28.39,28.39,0,0,0,3.6,17.64l5.76-51.24,10.56-2.4A141.08,141.08,0,0,0,325.68,383a143.38,143.38,0,0,0-17.4-55.44q17.46-18.18,4.32-37.44a27.48,27.48,0,0,0-10.68-9.24ZM72.72,63.36C71.4,94.68,69.84,126.12,68,157.44c-2.4,42.84-3.84,85.8-4.44,129.12q-.72,64.26-3.72,128.28c-1,21.48-2,43.08-3.36,64.8-.6,11.88.72,22.68,4.08,32.28l.48-.36.36.6a336,336,0,0,0,105.72,3,3.23,3.23,0,0,0,1.56-2.16l.72-3.24.12-.84v-3.24l-.24-1.56a9.7,9.7,0,0,0-1.32-3.24q-.36-.54-.72-.36A415.47,415.47,0,0,1,63.72,498a260.84,260.84,0,0,0,2.4-33.72q.36-64.62,3-129L72.24,255l4.44-128.4a432.37,432.37,0,0,0-2.52-64.08C73.32,62.4,72.84,62.64,72.72,63.36ZM182.16,106.2a141.74,141.74,0,0,0-20,41c-4.44,15-8.16,30.24-11.16,45.6a466.45,466.45,0,0,0-6.24,46.32c-1.32,15.6-2.16,31.32-2.4,47.16l-.6,24.6c-.36,13.32-.48,26.64-.12,40a320.73,320.73,0,0,0,3.6,40.2,313.24,313.24,0,0,0,8.28,39,349.62,349.62,0,0,0,15,42.48A68.78,68.78,0,0,0,197,505.08c13.44,7.8,27.36,8.52,41.88,2,15.36-6.84,25.32-18.12,30-34.08,2-7.08,1.68-13.2-1.08-18.12l-6,5.52q.36,13.14-11.52,23.4a53,53,0,0,1-19,10.32,26.12,26.12,0,0,1-8,1.2l-6.36.48a47,47,0,0,1-18.72-3.72L196.08,491a24.68,24.68,0,0,1-5.52-5,197.53,197.53,0,0,1-18.24-29.52,217.15,217.15,0,0,1-14.52-36.6,228.34,228.34,0,0,1-9.48-55.32q-2-37.26-.84-74.52l68.16-1.32a16,16,0,0,0,1.68-10.56,11.86,11.86,0,0,0-1.8-4l-.6-.36-45-1.92-21.84,4.44a369.73,369.73,0,0,1,23.4-129.12,139.81,139.81,0,0,1,23.52-41,12.57,12.57,0,0,1,3.84-3.24,63.32,63.32,0,0,1,10-4.8,59.7,59.7,0,0,1,27.6-2.88l7,1.44A65,65,0,0,1,254,100.08l.24-9.24a71.89,71.89,0,0,0-36.72-11A67.27,67.27,0,0,0,182.16,106.2Zm211.92,58.92q1.26,64.08.72,129c-.12,16.92-.6,33.72-1.44,50.52l-.12-.36Q381.54,282,367.8,219.6q-13.32-61.74-28.44-122.52L339,91.2l-.48,4.32-.36.36a38.9,38.9,0,0,0-1.08,13.92c-1.56,18.24-2.4,37.08-2.4,56.64q.36,64.44-4.44,128.28l-4.92,64.68c-.84,9.72.84,17.64,4.8,24a142,142,0,0,0,4.8-35.64q.72-64.44,4.56-128.4,2.7-45.9,1.32-91.08L364.68,239.4q13.14,61.74,21.6,124.2c1.56,11.64,4.56,21.84,9.24,30.6l.72-7.2,1.44,3.72A151.87,151.87,0,0,0,401,354.24q-1.08-64.62-.72-129.12l.36-128.28A292.51,292.51,0,0,0,394.08,165.12ZM415.56,184a365.53,365.53,0,0,0-5.76,58.68,339.43,339.43,0,0,0,1.08,34.92,10.11,10.11,0,0,0-.72,7.92,13.68,13.68,0,0,0,1.8,4.08l.6,1.56h1.68l1.32.84c15.24,4.44,25.56-.48,31-14.88a104.85,104.85,0,0,0,5.88-26.52q3.78-47.16-32.52-67.92Zm4.44,7.56c12.6,8.64,21,21.12,25.08,37.44s1.68,30.6-7.08,43.44c-6,9-13.32,10.56-22.08,4.8q.72-42.12,1.2-86.28Zm87.84-85.68c-7.32-7.08-16.44-10.08-27.36-9.24a32.18,32.18,0,0,0-22.68,17.16,23.53,23.53,0,0,0-2.76,12,285.5,285.5,0,0,0,28.08,113,769.18,769.18,0,0,1,41.4,106.44,122,122,0,0,1,3.36,58.8,196.26,196.26,0,0,1-22.2,61.2Q487.14,498.18,451,508.08c-19.2,5.16-37.8,6.12-55.92,2.76l-.48,1.68a21.63,21.63,0,0,0,.12,11.4,4.24,4.24,0,0,0,1.92,2.4q66.06,14.94,104.52-37.68,41.22-56.34,33-125.16a276.11,276.11,0,0,0-26.88-90.6A718.16,718.16,0,0,1,460.8,152.4a40.27,40.27,0,0,1-1.08-18.48q5.22-32.22,40.32-22.68a16.52,16.52,0,0,0,2.88,1.68,25.38,25.38,0,0,1,6.84,4.32l.24-.12a8.21,8.21,0,0,0,.24-4.8l-1.32-4.92-.24-.84Z" transform="translate(-56.38 -62.49)"/></svg>