<svg id="Layer_1" data-name="Layer 1" xmlns="http://www.w3.org/2000/svg" viewBox="0 0 415.17 348.32"><defs><style>.cls-1{fill-rule:evenodd;}</style></defs><path class="cls-1" d="M84,168.36q-1.26,64.26-4.32,128.28c-2,43-5.88,85.68-11.28,128-1.56,11.88-.36,22.44,3.6,31.8l.48-5.64a832.71,832.71,0,0,0,110.64-4.08l.24-.84A9.71,9.71,0,0,0,182,436.2a17.1,17.1,0,0,0-10.32-.6,44.45,44.45,0,0,1-10.44,1.32,482.2,482.2,0,0,0-88.08,6c2-21.72,3.72-43.44,5-65.28l8.28-128A1207.65,1207.65,0,0,0,88,121.2,360.1,360.1,0,0,0,84,168.36Zm237.72-11.64a50.78,50.78,0,0,0-34.92-17c-24.84,1.56-45,12.24-60.24,32A159.34,159.34,0,0,0,195.36,244,735.91,735.91,0,0,0,186,372.24a178.79,178.79,0,0,0,12.36,62.88c5.76,14.52,16.08,24.48,31.08,29.88a76.15,76.15,0,0,0,48.48,1.08A164,164,0,0,0,309.36,453q27.54-14.94,22.32-42.84c-4.2,11.64-11.76,21.12-22.8,28.44a121.52,121.52,0,0,1-24.6,12.48q-32.94,12.24-63.36-2.64a28,28,0,0,1-13.08-12.72C193.44,407,187.08,376.2,188.64,343c.6-12.48,1.56-25,3-37.32q51.3-7.38,103.8-10.2a11.5,11.5,0,0,0,3.36,1.8l1-.12.72-2.52a10,10,0,0,0-.36-6.48l-.36-.72-.84-.72c-6.24-4.44-13.56-5.52-21.84-3.12l-20.52,3.12A636.83,636.83,0,0,0,192.48,298a550.8,550.8,0,0,1,15.84-79,91.75,91.75,0,0,1,26.28-43.56q40.14-37.8,89.28-13.92l-.12-.84-.24-.84-.48-1.56-.24-.84A1.75,1.75,0,0,1,321.72,156.72Zm37.08-.36q10.62,63,25.44,125.4a319.7,319.7,0,0,1,7.68,47.4,586,586,0,0,0,24.72,124.56l.72-.6a26.74,26.74,0,0,0,1.8-12.24c6.72-24.36,13-49.32,18.84-74.64q14.22-62.1,27.48-124.32c4.44-20.64,9-41.28,13.92-61.92,2.76-11.4,4-22,3.36-31.44l-.48.36-1.8,2a207.34,207.34,0,0,0-7.68,30q-8.1,44.82-18.48,89-14.76,62.46-30.12,125.28c-2.52,10.56-5.52,20.88-9,31.08l-.48,1.32a82.35,82.35,0,0,1-5.4-21.72c-3.48-29.64-7.92-59-13.08-88.32q-4.86-27.9-10.44-55.8Q373.38,199,358.44,137.16c-1.56.48-2.28,1.68-2,3.6C357,145.92,357.84,151.2,358.8,156.36Z" transform="translate(-67.74 -121.2)"/></svg>