<svg id="Layer_1" data-name="Layer 1" xmlns="http://www.w3.org/2000/svg" viewBox="0 0 274.58 219.51"><defs><style>.cls-1{fill-rule:evenodd;}</style></defs><path class="cls-1" d="M280,217.56q7.56,35.64,13.92,71.52c-11.88-1.56-22.8-.12-32.52,4.2l10.08-35.64a248.29,248.29,0,0,0,8-42.6ZM157.08,385q1.8-63.9,4.44-128.16a332.56,332.56,0,0,0-3.24-64.08,656.26,656.26,0,0,0-5.76,77c-.84,43-1.8,85.68-3.12,128.28.48,2,1.68,2.52,3.48,1.56l.12-.12,1.2,1.2a211,211,0,0,1,58.44-2.4,6.25,6.25,0,0,0,2.28-4.56l.12-4.92-.24-1.56a11.53,11.53,0,0,0-1.32-3.36,1.09,1.09,0,0,0-.84-.36l-31.92-1.44-9.72.84a44.6,44.6,0,0,0-13.92,2.4Zm180.6-190.68c-11.88,8.76-19.44,21.6-22.44,38.4a302.79,302.79,0,0,0-4.32,41.4c-.36,11.88,3.24,22.32,11,31.08,9.6-.84,16.08-5.64,19.32-14.28a22.64,22.64,0,0,0,1.2-9.72l-.24-3L329,291.48l-8.16-.84a61.45,61.45,0,0,1-2-33,26.35,26.35,0,0,0,22.08-1.32l-.36-8.52a30.19,30.19,0,0,0-20.28.24,145.86,145.86,0,0,1,14.16-40.2l5.16-1.32,4.56,2.88,1.56,6.6c2.76-1.32,3.72-4.8,2.76-10.2a24.43,24.43,0,0,0-1.32-4.2,20.52,20.52,0,0,0-2-4l-1.56-2Zm-57.6.6a2.35,2.35,0,0,0-1.68,1.8q-15.3,61-31.8,121.8a396,396,0,0,1-21.84,61q-8.28,18.18-1.08,31.32A220,220,0,0,0,235.56,380q11.34-37.26,22.32-74.88a338,338,0,0,1,38.4-1.08l.24-.24,6.36,38.64a303.1,303.1,0,0,0,15.84,61.44,5.85,5.85,0,0,0,2-5.64Q315,357.42,307.32,316.2q-11.88-62.82-25.44-124.92c-.6-.12-.84.12-1,.48Zm86.28,97.8a551.93,551.93,0,0,0,2.88-84.48c16.08-1,29.16,4.92,39.36,17.64q16.2,20.34,5,43.92c-7.08,15-19.08,23-35.76,23.88Zm2-94.44-.12-2c-2.28,2.52-3.48,5.76-3.6,10q-3.06,64.26-7.8,128.28a290.51,290.51,0,0,1-4,32.16q-3.42,18.9,4,31.68a16.48,16.48,0,0,0,3.72-9.72c1.32-26.88,3-53.76,4.8-80.76a6.62,6.62,0,0,0,2,2q29.52,2,45-21.6,22.14-34,1.8-67.8C405,205,391.68,196.92,374.4,196.2a22.64,22.64,0,0,0-2.52.72Z" transform="translate(-149.4 -191.25)"/></svg>