<svg id="Layer_1" data-name="Layer 1" xmlns="http://www.w3.org/2000/svg" viewBox="0 0 443.94 389.88"><defs><style>.cls-1{fill-rule:evenodd;}</style></defs><path class="cls-1" d="M85.2,91.56A408.32,408.32,0,0,0,78.84,145q-3.6,64.08-6.48,128.4t-7.8,128.16c-.84,10.8-2.16,21.48-4,32.16a37.73,37.73,0,0,0-.24,12.12l-.24.12-.24.84-.24,2.4-.12,2.4a10.78,10.78,0,0,0,.84,3.24l4.56,1.2L66,457.32l.24-1.08a362.83,362.83,0,0,0,97.68,10,5.74,5.74,0,0,0,2.52-4.56l.12-.84.24-.72a16.26,16.26,0,0,0,.12-4.2,9.65,9.65,0,0,0-3-6.48l-2.64.12a214.4,214.4,0,0,1-81.72-6,36.31,36.31,0,0,0-11.4,0A743.18,743.18,0,0,0,76,347.76q.54-32,2.52-64.08,3.78-64.26,8.88-128.28A309.24,309.24,0,0,0,86,91.2C85.44,91.32,85.2,91.44,85.2,91.56ZM204.36,211.8c2.52,21,5.76,42,9.72,62.76L216,284.88a171.52,171.52,0,0,1-45.72-.12l6.72-27c7.56-30.84,14-61.8,19.2-93l3.36-22.32A643.51,643.51,0,0,0,204.36,211.8ZM200.52,102a396.1,396.1,0,0,0-10.8,52.08c-2.28,15.48-4.8,31.08-7.8,46.68-2.52,13-5.4,25.8-8.52,38.64-3.48,14.88-7.68,29.52-12.36,43.92a273.27,273.27,0,0,0-8.16,31.2c-1.8,8.28-3.84,16.44-6.24,24.6l-7.2,24.48-7.56,24.24a44.49,44.49,0,0,0-1.32,22.8,29.45,29.45,0,0,0,3.12,8.76l34.08-124.68A96.3,96.3,0,0,0,215.88,298l1.32-2.16q11.16,66.78,20.88,138.48l3,23.76c.6,6.12,2.52,8.4,5.76,7a185.85,185.85,0,0,0-2.16-48.84L237,374.4q-5.94-31-11.28-62.4c-2.28-13.56-4.44-27.36-6.24-41.16q-11.16-84.78-16.56-169.68l-2,4.44ZM494,118.8c-33-10.08-55.08,3.12-66.48,39.6A510.74,510.74,0,0,0,404.76,317,480.87,480.87,0,0,0,419,427.44a67.41,67.41,0,0,0,2.28,7l1.92,4.2,3.6,5.88a36.65,36.65,0,0,0,5.88,6.84,72,72,0,0,0,7.44,5.76,46.53,46.53,0,0,0,10.32,5.28,26.54,26.54,0,0,0,13,1.56q26.82-2.7,37.08-28.44a33.93,33.93,0,0,0,1.08-22.32c-11.88,26-30.12,35.28-55,27.72a27.08,27.08,0,0,1-15.24-11.64A109.21,109.21,0,0,1,414,376q-2.52-40.5-1.68-81a146.08,146.08,0,0,0,56.4-2c3-5.16,2.88-10.08-.6-15l-55.44,5.4q-5.94-86.94,46.44-149c4.44-5.28,10.56-7.56,18.12-7a65.51,65.51,0,0,1,16.56,3.36l9.48,6.48c.84-6.24-1.32-11.4-6.24-15.48A17.05,17.05,0,0,1,494,118.8Zm-128.4,42,8.64,128q4.14,64.08,7.2,128.4a273.06,273.06,0,0,0,10.32,63.84c3.36-3.84,4.56-8.64,3.72-14.4-4.8-33-8.4-66.12-10.68-99.6-3-42.84-5.64-85.56-7.68-128.4q-3.24-64.62-7.8-128.28A169.51,169.51,0,0,0,365.64,160.8Zm-.12-51.12q-12.06,51.66-19.8,104.76a449.44,449.44,0,0,1-13.44,62.76,77.36,77.36,0,0,0-2.52,10.08c-1.8-18.36-3.6-36.84-5.28-55.44-3.48-38.76-7.32-77.4-11.28-115.8l1-11.88c-.72-.12-1.2.12-1.32.84l-.6,2.4-.24-3-.6,6.84q-7.92,34.56-12.72,70.68-8.28,63.36-16,126.84T263.28,435.24c-2.28,11.64-1.68,22.08,1.8,31.44a9.69,9.69,0,0,0,3.84-7c4-34.32,8.28-68.52,12.72-102.48q8.46-63.18,18-126.24,6.3-41.58,10.56-83c.12,12.24.84,24.6,1.92,37.2,3.72,41.16,8.76,82.08,14.88,122.76a98,98,0,0,0,.36,16.8A213.88,213.88,0,0,0,344,266.88q6.84-47.16,16.08-94a314.08,314.08,0,0,0,6-63.6Z" transform="translate(-59.52 -91.2)"/></svg>