<svg id="Layer_1" data-name="Layer 1" xmlns="http://www.w3.org/2000/svg" viewBox="0 0 301.54 212.36"><defs><style>.cls-1{fill-rule:evenodd;}</style></defs><path class="cls-1" d="M156.12,209.4c-.36,43.08-1.2,86-2.64,129.12a511.62,511.62,0,0,0,1.8,64.08c.6-.24,1-.6,1-1l1-7.44.12,2.16.12,1.68a8.66,8.66,0,0,0,1.08,2.4A204.72,204.72,0,0,0,231,402.36a7.56,7.56,0,0,0,1.2-3.24l.24-1.68v-1.56a7.51,7.51,0,0,0-.36-3.24l-.12-.84a6.46,6.46,0,0,0-1.2-2.4.87.87,0,0,0-.72-.48,424,424,0,0,1-69.84-2.52,4.08,4.08,0,0,0-2.4,2.64c2.28-21.48,3.72-43.2,4.08-65.16q.9-65-1.2-128.28C157.68,198.84,156.12,203.52,156.12,209.4Zm189.12-17q-26.28,40.5-13.8,87.12a10.63,10.63,0,0,0,8.76,8.16l6.36-.48c8.16-10.2,10.44-21.24,6.84-33.36-1.68,9.48-5.88,16.68-12.6,21.72-8.88-5.28-11.88-14-8.88-26.28l15.48-2.4a8,8,0,0,0,1.92-7,8.77,8.77,0,0,0-2.52-4.44L333,237.36a102,102,0,0,1,12-33l3.48-.24,11,15.6c2.64-12.12-1.44-20.88-12.12-26.28Zm-42.6,1.92a443.38,443.38,0,0,0,10.08,98.88A90.65,90.65,0,0,0,280,300.48a426.28,426.28,0,0,1,14.88-57.84,124.35,124.35,0,0,0,6.24-47.52,126.65,126.65,0,0,0-10.32,28.2q-15.12,62.1-28.32,124.44a101.41,101.41,0,0,1-7.44,22.8c-5.4,11.64-5.88,22.2-1.2,31.56a625.74,625.74,0,0,0,24.36-91.44L316,307.2l2.52,9.72C324,337.68,328.8,358.44,333,379.44c1.8,9.6,5.64,16.8,11.4,21.48a4.83,4.83,0,0,0,.72-3.12c-4.32-26.28-10-52.56-16.8-79.08l-3.6-14,.24-.84a15.08,15.08,0,0,0-1.08-9.72l-.84-.6-1.08-.24c-7.8-33-14-66-18.72-99.24C302.88,193.92,302.64,193.92,302.64,194.28Zm135,19c6.36,4.56,11.88,8.4,16.68,11.4a19.32,19.32,0,0,0-3.48-15.72c-9-12.12-21.84-16.68-38.52-13.56-18,8-29.88,22-35.64,41.52A318.51,318.51,0,0,0,366.12,363c2.4,21.48,13.8,32.52,34.32,33,17.64.48,30.84-6.12,39.48-19.8l2.64-5a50.63,50.63,0,0,0,5.28,28A91.81,91.81,0,0,0,454.08,366a270,270,0,0,0-1.2-27.84A41.87,41.87,0,0,0,429,343.44l-.36.48,1.08,8.88,17.52.24a99.17,99.17,0,0,0-3.36,10.08,12,12,0,0,0-4.8-8.16c-1.32,6.12-4.44,10.68-9.6,13.68-15.24,9.24-31.08,11.28-47.4,6.36a43.43,43.43,0,0,1-7.92-19.44,247.86,247.86,0,0,1,10-115.32q10.44-31.32,42.84-30.6A18.14,18.14,0,0,1,437.64,213.24Z" transform="translate(-153.19 -192.36)"/></svg>