<svg id="Layer_1" data-name="Layer 1" xmlns="http://www.w3.org/2000/svg" viewBox="0 0 526.41 505.2"><defs><style>.cls-1{fill-rule:evenodd;}</style></defs><path class="cls-1" d="M47.88,64.68,46.32,124.2c-1,34.92-2.16,69.84-3.72,104.52L38.28,333.48C36.84,368.4,35.16,403.32,33.36,438c-1.8,35.28-2.28,70.08-1.2,104.52q43.56,5.4,86.76,8.64a9.33,9.33,0,0,0,.24-9.36c-28.32-3.24-56.52-6.72-84.48-10.68.84-16.92,1.32-34,1.44-51q.36-52.56,2.64-104.64Q40.92,322.92,44,270.84c2-34.8,3.72-69.6,4.8-104.52s1.44-69.84.84-104.52Q47.88,62.34,47.88,64.68Zm204.36,7.08c-1.8,32.16-2.4,64.8-2,97.92q.54,52.56-2.64,104.52C247,284,248,292.68,251,300a70.65,70.65,0,0,0,3.12-20.52c.36-34.68.48-69.6.12-104.52l-.72-104.52C252.72,70.32,252.36,70.8,252.24,71.76Zm-61.8,13.32c1.8,18.6,4.2,37,7.08,55.32,5.52,34.44,9.84,69.12,12.84,103.8l2.52,26.4,1.92,17.88-10.08-.36-52,3.6q4-32.58,8.64-64.92,7.56-51.3,17-102.24a158.22,158.22,0,0,1,9.36-31.2A55.13,55.13,0,0,0,190.44,85.08Zm-.84-9.6a12.84,12.84,0,0,0-3.48,6q-9.18,31.32-15.6,63.36-10.44,51.84-16.8,104.28-6.3,51.66-11.16,103.32c-3.24,34.2-6.24,68.28-8.88,102.48a505.78,505.78,0,0,1-6.6,50.76,95.37,95.37,0,0,0,0,37.8,9.9,9.9,0,0,0,3.24-6.36c4.2-34.2,7.32-68.64,9.6-103.32s5-69.36,8.64-103.92l3.72-33.6a237.61,237.61,0,0,0,63.24-.84c2.76,26,5.16,52.2,7.44,78.48l8.88,103.32c1.44,17.16,2.76,34.44,3.84,51.72a61.83,61.83,0,0,0,6.6,25.08,32.3,32.3,0,0,0,1.8-16.68c-4.68-34.2-8.52-68.64-11.28-103.08-2.76-34.68-5.88-69.36-9.12-104l-4.92-51.72q-5-51.66-12.84-102.84Q198,124.2,193.32,72.84l-.24-.72a3.31,3.31,0,0,0-1.44-1.92A8.11,8.11,0,0,0,189.6,75.48Zm134.64,19.8q.36,52.2,2,103.92c1.08,35.16,2.4,70.2,4,105.36q2.34,52,2.52,104.52c.24,34.92-1.2,69.84-4.2,104.52a213.11,213.11,0,0,1-3.72,26.28c-1.92,9.72-1.2,18.48,2.16,26a48.22,48.22,0,0,0,3.72-15.12q4.86-51.48,5.64-104l.72-52.32c.36-34.92-.6-69.84-2.88-104.52s-4-69.6-5.16-104.64q-1.8-52.2-3.24-104.52A61.23,61.23,0,0,0,324.24,95.28Zm190.92,319.8a6.79,6.79,0,0,0-.36-3.12l-1.08-2.28-42.6,4.8a204.19,204.19,0,0,1,7.56-79.2,65.2,65.2,0,0,1,12.24-22.68,62,62,0,0,1,36-8.88,45.43,45.43,0,0,1,28.44,13.56c2-4,1.2-7.56-2.76-10.68-17.4-13.32-35.4-15.48-54.24-6.36a38.38,38.38,0,0,0-20,23.16,284.64,284.64,0,0,0-14.52,99.84q1.62,50.58,8.28,100.8a38.44,38.44,0,0,0,2.4,9.72,71.84,71.84,0,0,0,4.56,9.12,44.65,44.65,0,0,0,11.4,12.36,34.66,34.66,0,0,0,8,4.32,28.27,28.27,0,0,0,9,1.44,42.12,42.12,0,0,0,20.28-5.16,54.82,54.82,0,0,0,21.6-20.28A59.81,59.81,0,0,0,558,506.4,41.32,41.32,0,0,0,545,524c-5.88,14.88-16.92,23.4-33.36,25.44C498.12,551,488,546.12,481.44,534.6a64,64,0,0,1-8.76-30.6c-1.08-27.72-1.56-55.44-1.68-83.16l43.56-2ZM370.8,75l.72-1.92a7.9,7.9,0,0,0-.84-5.28l-.6-.36q-50.22,10.08-97.32-1.92l-.12.24L272,66a3.92,3.92,0,0,0-1.32,1.8,9.83,9.83,0,0,0,0,5.88,204.1,204.1,0,0,0,55.08,7.08,219.44,219.44,0,0,0,44.64-5Zm85.44-3.48a81.77,81.77,0,0,0-3,24c.48,35.16.36,70.32-.48,105.24q-1.08,45.72-1.68,91.32l-36.36-1.68-11.4.24-7.32.48-.72-18.36q-2.7-52-3.72-104.64a870.26,870.26,0,0,1,4-103.92,7.79,7.79,0,0,0-3.72,6,457.9,457.9,0,0,0-4.08,51.6q-1.44,52.38,2.28,104.64A778.81,778.81,0,0,1,390.48,331c-2.28,34.68-3.84,69.6-4.8,104.52q-1.44,52.74-3.6,105.24c-.36,9.72.48,18.48,2.76,26.28a2,2,0,0,0,1.08-1.32A106.48,106.48,0,0,0,389,540.12c.24-34.92,1-69.72,2-104.64S393.6,365.76,395.4,331c.48-10.68.72-21.36.6-32a20.82,20.82,0,0,0,7.32.84,101.46,101.46,0,0,1,22.56,1.44c9.24,1.68,17.52,1.32,25.08-1.2l-.12,5.4-1.68,104.52c-.6,34.92-.84,70.08-.72,105.24A105.81,105.81,0,0,1,447,534.72c-1.56,10.2-.12,19,4.44,26.16A288,288,0,0,0,454,517.2c-.6-35.16-.48-70.32.12-105.24l1.44-104.64.12-9.24.36-.24.24-1.32v-.6l.24-1.44-.12-.6-.12-.6-.24-.72-.36-.24L457,202.8q1.08-52.56,1.2-105.24A153.79,153.79,0,0,0,456.24,71.52Z" transform="translate(-31.59 -61.8)"/></svg>