<svg id="Layer_1" data-name="Layer 1" xmlns="http://www.w3.org/2000/svg" viewBox="0 0 345.23 364.8"><defs><style>.cls-1{fill-rule:evenodd;}</style></defs><path class="cls-1" d="M86,96.84a162.91,162.91,0,0,0-5,33.24c-2.52,42.84-4.08,85.8-4.8,129.12q-1.08,64.62.24,129.12a221.31,221.31,0,0,1-1.68,32.16,77.12,77.12,0,0,0,0,19.68l-.72.36-.24,1.56a10.8,10.8,0,0,0,.48,6.48l.84,1.68,1.92.12.84,2.52L79,450.36q56.34,2.52,113.4,2l1.2-1.68a8.09,8.09,0,0,0,1.08-3.12,15.56,15.56,0,0,0,.24-4.08,10,10,0,0,0-2.76-6.6h-3.84a707.17,707.17,0,0,1-88.8-1.32,37.51,37.51,0,0,0-16.44,1,82.23,82.23,0,0,0,1.08-17.4Q81.78,354.72,82.2,290q.18-64.8,5.76-128.88A279.94,279.94,0,0,0,86,96.84Zm206.28,22.92a40.65,40.65,0,0,0-23.88-13.68c-26.28,15.24-43.56,38.16-51.6,68.76a488.22,488.22,0,0,0-16.08,126.84,282.74,282.74,0,0,0,26.88,120.48q13.5,28.8,43.44,16.68a156.63,156.63,0,0,0,28.8-15.12c14-9.24,18.24-20.28,12.84-33a113.63,113.63,0,0,1-53.16,34.8c-5.88,1.8-10.92.72-14.88-3.24q-29.16-29.7-34.68-72.12A464.64,464.64,0,0,1,206.16,282a318.53,318.53,0,0,0,83.64,4.08l1.08-1.68.36-.84.48-1.56a7.51,7.51,0,0,0,.36-3.24,12.47,12.47,0,0,0-1.8-5.76l-.72-.36a713.18,713.18,0,0,1-75.24-1.44h-.6a28.13,28.13,0,0,0-6.48,1.08l-.48.48-.36.48A471.22,471.22,0,0,1,210.84,223c5.28-36.36,19.56-68,42.84-95.28,7.8-9,16.68-10.2,26.4-3.48a253.36,253.36,0,0,1,21.36,16,17.1,17.1,0,0,0-2.4-9.6l-5.76-9.84ZM378.24,303.6q-6.3,28.08,5,60.36a88.69,88.69,0,0,1,4,16l-32.64,3.24c13.2-23.64,19.92-48.6,20.16-74.64q-22.68,61.38-49.56,120.6l-1.56,4.2a27.5,27.5,0,0,0-1.08,13.92l1,3.6a15.92,15.92,0,0,0,2.28,5L351,392.52l38.28.36a244.85,244.85,0,0,0,18.24,68.76q5.4-34.38-9-69.84l1.68-.24a4.88,4.88,0,0,0,1.68-2.4,7.33,7.33,0,0,0-1.2-7.44l-4.68-1.2L381.12,310.2Zm27.6-165.84,2.4-5.76q-12.78-24.84-37.44-10.44a115.17,115.17,0,0,0-33.48,29.28,123,123,0,0,0-20.88,40.8,132.51,132.51,0,0,0-5.16,44.52,89.13,89.13,0,0,0,13.44,43c4.68,7.56,12.24,11.52,22.68,11.64a333.6,333.6,0,0,0,45.12-2.64c20.28-3,28.8-13,25.56-30.12l-.84-2.52q-37.62,22.86-81.72,19.2a9,9,0,0,1-8.4-5.64,95,95,0,0,1-8.4-45.72c.24-4.92.6-9.72,1.2-14.64L387.84,213l-.12-6q-29.7-13.68-64.08-7.68c7.08-36.84,28.32-59,63.48-66.6a24.6,24.6,0,0,1,17.88,3Z" transform="translate(-73.52 -96.84)"/></svg>