<svg id="Layer_1" data-name="Layer 1" xmlns="http://www.w3.org/2000/svg" viewBox="0 0 542.16 496.2"><defs><style>.cls-1{fill-rule:evenodd;}</style></defs><path class="cls-1" d="M250.44,318.24c-.24,7-2.4,28.68-6.6,65l.6-.36c7.56-3.48,13.56-6.36,17.88-8.64,17.28-9,25.92-19.8,25.92-32.16a16.77,16.77,0,0,0-1.68-6.24,31.53,31.53,0,0,0-5.76-8.16c-6.6-6.72-15.12-10.08-25.8-10.2Zm4.8-16.44c17.88,4,29.52,10.2,34.68,19a26.66,26.66,0,0,1,3.6,11c.12,1.32.24,4.68.24,10.08A64.54,64.54,0,0,1,286.44,372a46.22,46.22,0,0,1-14,16.8c3.24,9.12,8.76,27,16.68,53.76q3.42,12.06,15.84,45.36,11.52,30.24,11.52,31.32a17,17,0,0,1-2.16,8.52,292.29,292.29,0,0,1-16.32-35c-4.68-11.76-8.76-23.88-12.36-36.36l-13.08-43.2c-2.76-9-4.8-15.84-6.12-20.64-6.84,3.48-15,5.4-24.36,5.64l-1,8.28q-10.44,88.92-17.76,123.48a9,9,0,0,1-3.24-4.68A11.08,11.08,0,0,1,219,521.4c0-4.8,2.16-22.32,6.6-52.68l8-56.52c2.16-23.76,4-41.76,5.28-53.88,1.56-15.24,3.48-28.68,5.52-40.32a13.59,13.59,0,0,1-1.56-6.48,26.56,26.56,0,0,1,.24-3.84,7.92,7.92,0,0,1,3.48-4.8l8.64-.48Zm-93-2.76c10.44-2.64,19.68-2.28,27.84,1.08,8.52,3.48,12.72,9,12.72,16.8a16.84,16.84,0,0,1-2.16,8.4l-8.4-7.08c-5.52-4.2-10.32-6.36-14.4-6.36-20.16,0-34.68,7.2-43.44,21.72a46.39,46.39,0,0,0-7.32,22.2v.12l36.72.36c15,1,23.4.72,25-.72a2.41,2.41,0,0,0,.12-1.44l2-.12a19.13,19.13,0,0,1,1.56,4.2,20.63,20.63,0,0,1,.6,4.44,16.63,16.63,0,0,1-.84,6.12,5.19,5.19,0,0,1-5.16,3.48L174.84,372l-11-.6-35.4.24-.48-.24a139.42,139.42,0,0,0,3.72,19c5.88,20.88,16.2,31.32,30.84,31.32,14.4,0,25.08-3.6,31.92-10.92a27.7,27.7,0,0,0,5.28-7.92,23.26,23.26,0,0,1,2-4.44,7.49,7.49,0,0,1,2.64,4.2,15.09,15.09,0,0,1,.6,4c0,1-.6,2.88-1.8,5.88a55.12,55.12,0,0,1-5.76,10.44c-6.6,9.48-14.4,14.28-23.28,14.28q-36.18,0-47.88-40.08a121.63,121.63,0,0,1-4.56-27.72l-.12-13.2c0-15.84,4.2-28.92,12.72-39.36A52,52,0,0,1,162.24,299ZM72.84,62.16c.12,1,.24,3.48.24,7.44,0,13.68-.84,34.44-2.64,62.4L66.6,188.88v56.88a72.51,72.51,0,0,0-1.08,7.68,72.51,72.51,0,0,1-1.08,7.68v49.32l-13.2,101Q44,469.62,40.92,512.64l.24.24,124.08,5.64c8.16.48,13.2,1.32,15,2.52,1.32.84,2,3.12,2,6.72a11.56,11.56,0,0,1-2.76,7.92l-95.64-6c-6.84-.36-21.48-.6-43.8-.6-3.6,0-5.88-1.32-6.72-4L33,520.8c0-3.72,3.48-34,10.56-91L59,304V256.32c.36-1.68.72-4.32,1.08-7.8.36-3.84.72-6.72,1.08-8.52V184l3-63.72c1.32-25.92,3.12-47.16,5.64-63.72C71.4,57.36,72.48,59.28,72.84,62.16Zm128.76,42.6a5.67,5.67,0,0,1-3.12,4.32l-3.84-8a66.14,66.14,0,0,0-6.24-10.68c-6.6-8.76-14.64-13.2-24.36-13.2q-32.22,0-51.48,55.32a260.75,260.75,0,0,0-13.2,57.24c-4.2,33-6.6,54.24-7.2,64l-.24,6.24,1.68.12,17.52,2.4,33.72,1.68c2.4,0,4.08,1.56,5.16,4.8a21.16,21.16,0,0,1,.84,4.8,15.34,15.34,0,0,1-2.16,7.32H116.16a5,5,0,0,1-2.88-.84l-1.2-1.08c-2-1-8.88-1.68-20.52-2.28l-.12,25.56L92,333a580.67,580.67,0,0,0,5.88,64.32q14.22,92.52,52.68,92.52c13.8,0,24.36-1.56,31.8-4.68a32,32,0,0,0,15.72-13.8c2.28-4,5.28-11.28,8.88-22a267.24,267.24,0,0,1,11.52-29.64A5.76,5.76,0,0,1,222,424.2a27.65,27.65,0,0,1,.24,4.44q0,2.7-3.6,14a204.87,204.87,0,0,1-10.44,26.16q-17.64,36.54-37.32,36.48c-18,0-31.92-2.16-41.76-6.6a40.25,40.25,0,0,1-20.28-19.32c-3.36-6.6-6.24-17-8.76-31.2l-7.56-42.48c-4.92-22.2-7.44-40.32-7.56-54.48,0-4.2.12-11.16.48-20.76.36-10.44.6-19.44.6-27L86.16,271l-.12-2,.24-4.8c.12-10.2.24-17.16.48-20.64Q88,228,97.2,160.68a162.54,162.54,0,0,1,9.36-36.36,173.71,173.71,0,0,1,17.52-35c9.36-14.28,19.08-23,29.16-26.52,8.4-2.88,16.68-1.92,24.84,3a51.1,51.1,0,0,1,17.16,17.52c4.32,7,6.48,12.72,6.48,17.4Zm70.44-26q-12.78,32.4-38.4,99l-2.4,5.76,68.16-7.68h1.2q-20.7-52.56-28.32-96.48ZM381.12,327.24c-.36,1.68-1.2,2.52-2.4,2.52-1.68,0-6.24-1.68-13.8-5-8-3.48-15.12-5.64-21.12-6.36-18.6,5.88-30.36,16.8-35.28,32.52a71.45,71.45,0,0,0-3,19.68c-.12,4.2-.12,9.84.12,17l.48,21,.36,6.72c4-1.32,10.68-1.8,20.28-1.44,13,.48,23.64-.36,31.92-2.4l7.08-2.28a14.29,14.29,0,0,1,3.72-1.08,17.75,17.75,0,0,1,2.16,8.64,13.44,13.44,0,0,1-2.76,8.52l-12.48,1.56-19.92,1.68-10.8,1.08c-8.28,0-14.4-.48-18.36-1.56.6,8.64,1.56,16.8,2.64,24.48,5.88,42.24,16.68,63.36,32.16,63.36,18,0,30.72-5.4,38.28-16.08a44.68,44.68,0,0,0,5.76-12.24,75.76,75.76,0,0,1,2.76-7.92c1.2.6,2,2,2.64,4.08a16.72,16.72,0,0,1,.6,4c0,1.32-.6,4-1.92,7.92a79.34,79.34,0,0,1-6.36,14.88c-7.8,13.92-17.88,20.88-30.12,20.88q-36.9,0-48.72-66.36a349.83,349.83,0,0,1-4.68-48.84c-.12-3.12-.12-12.84-.12-29v-22A96.64,96.64,0,0,1,304,340.44c5.88-19.32,19.44-31.8,40.68-37.2q23.22,3.06,31.32,8.64a12.39,12.39,0,0,1,5.4,10.8A38.17,38.17,0,0,1,381.12,327.24ZM356.76,285.6a8.61,8.61,0,0,1-1.92,3.24q-30.06-55.26-49.08-100.44a7.13,7.13,0,0,1-1.8,3.24l-14.28.48c-1.32.84-9.12,1.8-23.64,3.12q-21.42,2-22.68,2.88l-5,.24-5.76.84-7.68-.24q-18.72,44.82-36.12,77.76c-2.16-1.8-3.24-4.32-3.24-7.8,0-2,6.24-17.16,18.6-45.48L232,160c2.52-6,6.12-15.12,10.68-27.48,4.68-12.84,8-21.84,10.2-27l5.28-15.24q4-12.42,5.76-17.28,7-18.9,11.16-10.44l15.48,54q9.36,31.32,18.36,55.56,5.76,15.48,28.44,64c13.56,28.92,20.28,44,20.28,45.48A10,10,0,0,1,356.76,285.6Zm101.76-202,18.36,17.28c6.6,6.36,12.6,12.84,18.12,19.2,8.28,9.48,17.28,21.84,26.88,37.08,5.4,8.64,13,20.88,22.44,36.84,7.92,12.84,15.24,36,21.84,69.72q9,46.26,9,77,0,65.16-19.68,112.8-32.76,79-114,92.88a210.64,210.64,0,0,0-39,6.24A4.64,4.64,0,0,1,400,549l-.12-5v-1.2l-1.08-2.16a10.93,10.93,0,0,1-1.08-4A392.76,392.76,0,0,1,402,479.4V417.6q3.24-29.34,7.44-111.84,4.5-85.5,4.44-127.44c0-14,.48-30.84,1.44-50.64,1.32-25.08,3.24-44.16,5.52-57.24a7.26,7.26,0,0,1-.48-2.64c0-2.76.72-4.56,2.28-5.4l1-3.72,1.2,3.12c3-.12,7.56,1.8,13.56,5.76A115,115,0,0,1,458.52,83.64Zm-10.68,8-12.6-7.8a64.81,64.81,0,0,1-10-7.44L423,117.6q-2.7,52.92-2.64,85.2,0,14.94-5.16,104.16c-3.6,60.36-6.24,99.12-7.8,116v63.36L405.84,516c-.36,7.56-.84,14.16-1.68,19.8q101.7-3.06,142.32-84.24,23.22-46.44,23.28-110.64c0-4.08-1.32-16.2-3.84-36.24-2.4-19.08-4-30.12-4.56-33.12-3-12.6-6-23.88-9.12-33.72a306.64,306.64,0,0,0-12.84-34.32,238.48,238.48,0,0,0-19.92-35,309.3,309.3,0,0,0-26.28-34c-4.2-4.68-10.08-10.68-17.64-17.76-8.28-7.8-13.8-13.2-16.8-16.32A56.57,56.57,0,0,0,447.84,91.68Z" transform="translate(-33 -56.52)"/></svg>