<svg id="Layer_1" data-name="Layer 1" xmlns="http://www.w3.org/2000/svg" viewBox="0 0 434.65 329.76"><defs><style>.cls-1{fill-rule:evenodd;}</style></defs><path class="cls-1" d="M103,120.24l-2.64,33.24-2.16,32L96,217.68l-2.16,32-2,32-1.92,32c-.6,10.68-.72,21.48-.6,32.16A142.52,142.52,0,0,1,83,389.4a45.7,45.7,0,0,0-.84,25.68l4,2.88L207,424a15.07,15.07,0,0,0,.72-12.84l-.72-1.8L89.4,403.68c4.92-42.48,8.4-85.08,10.2-127.92l1.56-32,2.16-32.16,2.16-32,.6-8.16.48-8.16.24-8c.48-13.32.36-26.52-.24-39.84A5.76,5.76,0,0,0,103,120.24Zm117.84,34a179.8,179.8,0,0,0-44.64,81.12,224.82,224.82,0,0,0-4.8,26h-1.44a9.69,9.69,0,0,0-1,4.08,10.29,10.29,0,0,0,.6,3.24l1.08.84q-3.6,45.9,14.88,90.12a41.68,41.68,0,0,0,10.08,14.52c22.2,21.36,47.52,24.24,76.2,8.64,4.44-2.28,8.76-4.44,13.2-6.36q23.76-10.44,12.6-27.36-34.56,31.32-80,25.44a16.13,16.13,0,0,1-10.92-5.76c-24.36-28.2-34.8-60.72-31.08-97.8a267.92,267.92,0,0,0,88-8.52,7.83,7.83,0,0,0,2.16-3.72,8.83,8.83,0,0,0-1.32-7.32l-1-.6a10,10,0,0,0-5.88-1.08,418.61,418.61,0,0,1-80.76,11.52v-.36a201.13,201.13,0,0,1,35-84.84q24.3-34,62.52-20.4l1.56,2.28a8.59,8.59,0,0,1,1.92,5l-.24.72a.71.71,0,0,0,.6-.24c2.4-3.72,2.4-8,0-12.72l-2.52-4.92-1.2-.84-2.76-2.4-.84-.72L268,141a46.94,46.94,0,0,0-22.32-3.24A65.23,65.23,0,0,0,220.8,154.2ZM360.36,269.76l-16.92,1,25.2-107.4A962.08,962.08,0,0,0,375,270ZM372.84,146.4l-.36-.84-1.8-3.24a176.09,176.09,0,0,0-15,45.48q-8.28,42.48-18.12,84.72l-1.2.48a8.94,8.94,0,0,0-1,8.64l-7.56,30.6q-7.92,31.14-17.64,61.68a149.24,149.24,0,0,0-7.44,47.64c6.12-6.24,10.44-15,13-26.4L340.8,282.6l35.4-1.08q4.14,37.8,9.72,75.36c2.28,16,4.2,31.92,5.52,48,1.08,12.12,4,22.2,8.76,30.48a66.45,66.45,0,0,0,1.2-31.92,1276.26,1276.26,0,0,1-18.24-126.36V277l-.36-3L371.4,152.28ZM431.16,151l-.12-8.88q-6.66,50.58-11.16,103.68a1091.78,1091.78,0,0,0-3.24,128.52A53.07,53.07,0,0,1,415.08,390q-4.5,18.36,2.16,32a48.72,48.72,0,0,0,5-24.24,1037.71,1037.71,0,0,1,4-128.28q5.22-56.52,5-112.44A880.62,880.62,0,0,0,448.08,258q14,62.28,27.48,124.8a277,277,0,0,0,20.64,61.8,6.47,6.47,0,0,0,1.92-2.64,22.35,22.35,0,0,0,2.76,3.12,128.56,128.56,0,0,0,4.8-31.68q1.8-64.26,4.8-128.16c2-42.84,3.72-85.68,4.92-128.28l-.24-.84-.84-1.56-.72.12a639.27,639.27,0,0,0-7.2,75.24c-1.56,43-3.24,85.8-5.28,128.4-1,20.28-2.88,40.44-5.64,60.48a206.2,206.2,0,0,0-5-20.16A1259.63,1259.63,0,0,1,459,275q-12.78-62.64-26.88-124.32A2.26,2.26,0,0,0,431.16,151Z" transform="translate(-80.75 -115.32)"/></svg>