<svg id="Layer_1" data-name="Layer 1" xmlns="http://www.w3.org/2000/svg" viewBox="0 0 410.37 306.84"><defs><style>.cls-1{fill-rule:evenodd;}</style></defs><path class="cls-1" d="M103.32,131.76q-.9,64.26-5.88,128.16L87.24,388.2a93,93,0,0,0,.6,19.32l-.24.72-.36,4.08a6.81,6.81,0,0,0,1.2,4.08l1.2.12,1.2,4,1.2-3.6q55.26,6.84,112,9l.72-.6a9.47,9.47,0,0,0,1.56-4,16.73,16.73,0,0,0,.36-4.92,15.43,15.43,0,0,0-1.8-6.48l-.84-.48-104.52-6.6-2.64.6-1.56.36a134.27,134.27,0,0,0,2.52-24.48Q99.42,315.06,105,251a954.63,954.63,0,0,0,2.64-128.16C104.76,124.56,103.32,127.56,103.32,131.76Zm81.84,74.64A316.89,316.89,0,0,0,168.72,277l-2.88.12a7.65,7.65,0,0,0-1,5.64l.36,2.52,2.52,1.08a322.12,322.12,0,0,0-.84,40.32q1.8,42.48,34.44,68.28a20.61,20.61,0,0,0,11.16,4.44c35.88,2.76,70.56-3.84,103.8-19.8a10.18,10.18,0,0,0,1.32-3.12,15.74,15.74,0,0,0-.12-9.12,5.94,5.94,0,0,0-2-3.12q-29.7,10.08-60.84,18.72a78.4,78.4,0,0,1-35.76,1.56c-20.76-4-33.48-16.2-38.4-36.84a221.74,221.74,0,0,1-6-60.6,436.87,436.87,0,0,0,92.88-8.88,8.67,8.67,0,0,0,.72-6.48l-.72-2.4-1.44-.84a17.67,17.67,0,0,0-10.56-2.76,691.54,691.54,0,0,1-80.16,10.8,221.48,221.48,0,0,1,11.52-53.4A107.42,107.42,0,0,1,216.6,177c18.84-17.4,40.32-22.56,64.2-15.48A12.82,12.82,0,0,0,277,157.2a5.49,5.49,0,0,1-1.68-2l-.72-1-.6-.6a43.17,43.17,0,0,0-26.16-7.2Q201.72,160.08,185.16,206.4ZM387.48,398q-9.72-63.36-18.72-126.6-8.82-61.2-22.92-120.84a14,14,0,0,0-1.44-7.44,167,167,0,0,0-14,36.48c-8.52,31.8-18.24,63.12-29.4,94l-1.92.72-.6.6a7.92,7.92,0,0,0-.72,3.24,7,7,0,0,0,.48,2.76l-8,21a82.16,82.16,0,0,1-9.24,17.64c-7.08,10.68-10,21.24-8.52,31.92a2.25,2.25,0,0,0,3.48-.84A301.73,301.73,0,0,0,306.12,283l55.56-.72q5.94,42.3,10.2,84.6a223.76,223.76,0,0,0,15.6,62.88c3.48-3.6,4.56-8.16,3.36-13.56C389.52,410,388.32,404,387.48,398ZM360.12,271.32a131.73,131.73,0,0,0-24.72-2.4,185.52,185.52,0,0,0-25.8,2.16l34.68-113.4,10.92,82.44ZM487.92,184a78.91,78.91,0,0,1-.12,45.36Q475,273.24,429,272.88a932.31,932.31,0,0,0,1.32-120,126.16,126.16,0,0,1,29.28,4.32C474.36,161.16,483.72,170,487.92,184ZM428,143.4l-2.64,2.28-.6.72-.12.72a10.6,10.6,0,0,0-.24,3.36,5.9,5.9,0,0,0,.6,2.4h3.48c-2,40.92-4.56,81.84-7.44,122.52-3,42.84-6.84,85.56-11.28,128.16q-1.62,15.3,5.76,23.4a82.72,82.72,0,0,0,4.68-23.4Q423.3,344,428,284.4c13.56,3.24,26.28.12,37.92-9.36q25.56-20.7,30.36-53.76a91.26,91.26,0,0,0-2.64-39.48c-7.8-27.12-26.52-40.56-56.4-40.32l-1.08.6A38.56,38.56,0,0,1,428,143.4Z" transform="translate(-87 -122.88)"/></svg>