<svg id="Layer_1" data-name="Layer 1" xmlns="http://www.w3.org/2000/svg" viewBox="0 0 461.67 465.28"><defs><style>.cls-1{fill-rule:evenodd;}</style></defs><path class="cls-1" d="M289,374.16,245,380.76l33.84-58.92Zm-11.88-66.84a108.83,108.83,0,0,0-17,25.32q-28.8,57.6-62,112.92c-6.48,10.68-7,19.92-1.32,27.72q20.16-40.14,41.52-79.92L292.68,390l1.68,7.44q11.52,46.8,20.4,94a82.2,82.2,0,0,0,12.12,31.08,3.47,3.47,0,0,0,2-3.84,820.13,820.13,0,0,0-19.8-93.72c-3.24-11.76-6.24-23.52-9.12-35.28l4.68-.24.6-.72c4-6.72,3.12-12.24-2.28-16.44l-7,1c-5.64-24.12-10.8-48.12-15.24-72.24A8.78,8.78,0,0,0,277.08,307.32ZM58,102.24q-2.7,65-4.32,130c-1.08,43.08-1.92,86.16-2.76,129s-1.8,85.44-3.12,128.28A75.53,75.53,0,0,0,51,514.68l-.12,1.56a18.63,18.63,0,0,0,.48,2.52l.36,1.56C68.28,528.72,86,531.24,105,528q34.2-5.94,65.16-.6a16.89,16.89,0,0,0,1.56-10.56,9,9,0,0,0-1.56-4.08l-.84-.48a127,127,0,0,0-17.88-3.36A269.61,269.61,0,0,1,57.36,510l-2.16.48h-.36a442.5,442.5,0,0,0,2.4-60.84c-1.2-43.08-1.44-86.16-.84-129,.6-43.2,2.28-86.16,4.8-129Q65,127,64.08,64.08A156.72,156.72,0,0,0,58,102.24ZM192.6,76.8q-45.18,33.48-56,88.56a672.19,672.19,0,0,0-11.52,96q-3.06,63.36-.48,126.72A226.88,226.88,0,0,0,148,479.76q16.92,34.38,54.12,35.4c14.52-6,25.56-15.72,32.88-29.28,7.56-13.8,9-27.12,4.2-40a5.71,5.71,0,0,0-3.12,2.16,13.31,13.31,0,0,0-2.4,5.88l-.12.36-.36-.84L231.6,455h-.12l1.44,5.16c-3,15.84-11.88,27.36-26.64,34.68a20.72,20.72,0,0,1-19.8-.36C163.32,482.4,148.2,463,141.36,436.2a402.88,402.88,0,0,1-12.12-112.32l1.44-31.56a476.1,476.1,0,0,0,62.76-.12l.6-.84q4.86-9.54-2.52-14.76a383.87,383.87,0,0,1-60.24,4.32c1.56-28,4-55.92,7-83.64a187.3,187.3,0,0,1,34.92-90.72Q193.14,79,224,90.36a8.74,8.74,0,0,1,2,2.16,24.48,24.48,0,0,1,3.48,8.4,2.87,2.87,0,0,0,2,2.16l.48-.6c2.76-20.52-7.2-30.6-29.76-30.48A28.32,28.32,0,0,0,192.6,76.8Zm87.72,23.28c14.76-12.12,28.56-12.6,41.16-1.32l.48-.6c3-16.44-5-23.76-24.36-21.84a98.56,98.56,0,0,0-9.6,4.56,141.74,141.74,0,0,0-14.16,9q-31.14,44.46-36.6,99.72c-2.76,29.16,2.16,56.64,15,82.44a13.67,13.67,0,0,0,8.52,7.44c20.76,5.88,40,1.56,57.72-12.72a15,15,0,0,0,2.76-13.8,6.36,6.36,0,0,0-2.52-4,122.55,122.55,0,0,1-34.56,18.36c-14,4.68-23.76.84-29.4-11.52A134,134,0,0,1,243,201.12a367.3,367.3,0,0,0,64.92.48l.48-.84q3.78-9.18-3.24-14l-61.68,2.88,1-8.88a172.31,172.31,0,0,1,31-76.8l2.16-.84A16.4,16.4,0,0,1,280.32,100.08Zm193.8-8.64c-5.88,15-12.48,29.88-19.56,44.64q-28.26,58-54,117.12A397.44,397.44,0,0,1,379,296c-1,1.8-1.8,3.48-2.64,5.16,1.8-34.2,2.64-68.52,2.76-103.08.12-43.32,1.2-86.16,3.48-128.28a307.2,307.2,0,0,0-10.32,76.56q-.9,64.08-3.12,128.16-1.44,40.32-2.4,80.52c-1,42.84-2.88,85.32-5.76,127.68v-.6a23.32,23.32,0,0,0-2.16-10.56,171,171,0,0,1,.48,23.52c-.48,9.6,1.56,17.4,6,23.52a23,23,0,0,0,4.2-15.48,410.92,410.92,0,0,1-1-47c1.32-41.4,3.36-82.68,5.88-123.84A148.25,148.25,0,0,0,385.56,311q13.86-32.58,28.8-64.56A103,103,0,0,0,418.68,265q19.08,60.12,36.72,121A223.22,223.22,0,0,0,463,407.76a618.12,618.12,0,0,1,29.16,91.8c2.76,12.12,7.56,21.84,14.4,29.4a14.68,14.68,0,0,0,2-13.68c-4.56-13.92-9.24-27.84-14.16-41.64q-21.24-60.3-39.72-121.32Q437,294.54,418.56,237.72q27-56.7,51.6-114.72A108.41,108.41,0,0,1,477,109.56c6.24-10.44,8.28-20.76,6.24-31.08A29.82,29.82,0,0,0,474.12,91.44Z" transform="translate(-47.73 -64.08)"/></svg>