<svg id="Layer_1" data-name="Layer 1" xmlns="http://www.w3.org/2000/svg" viewBox="0 0 319.63 212.66"><defs><style>.cls-1{fill-rule:evenodd;}</style></defs><path class="cls-1" d="M193.08,271c-9.24,11.52-21.36,16.32-36.24,14.52a278.67,278.67,0,0,0,3.48-81.12c16.32,2.88,28.32,11.52,36.12,26S203,258.6,193.08,271ZM162.36,193.2c-10.92,2.76-15.12,12.24-12.6,28.32A210.08,210.08,0,0,1,152,263.28l-.84,21.24-6.48-1.8c-4.44,8.76-2.52,14.4,5.64,17.16a330.59,330.59,0,0,0-2.16,101.88,10.32,10.32,0,0,0,1.08,3.6,888.72,888.72,0,0,0,6.48-104.52l28.2.6a62.49,62.49,0,0,0,20.52-25.08l1.68-4.44a61.75,61.75,0,0,0,1.92-32,95.81,95.81,0,0,0-4.08-15,45.85,45.85,0,0,0-9.6-16.32,44.82,44.82,0,0,0-28.08-14.76Zm66.72,1.68c-3.48,24.24-6.36,48.72-8.4,73.44a520.84,520.84,0,0,0,.6,95.76q3.24,34,37.44,35.16a19.39,19.39,0,0,0,13.44-4.68C293.16,376.44,305,353,308,324.48c2.76-26.28,4.68-52.8,5.52-79.56A163,163,0,0,0,308.4,197c-4,10-5.4,21-4.32,33.24q5.58,66.6-15.12,128.28c-7,15.72-19.08,23.64-36.24,23.88-8.64.12-15-3.48-19-10.8a84.13,84.13,0,0,1-9.36-49,1046.91,1046.91,0,0,0,5.52-128.16C229.32,194.4,229.08,194.52,229.08,194.88ZM454.2,285.6l-55.92,12.72.24-61.8a510.13,510.13,0,0,0-8.64,87.72,116.4,116.4,0,0,1-2,20.4,131.8,131.8,0,0,0,.48,49.92l1.32,5.64A100.19,100.19,0,0,0,396,369.6c1-18.6,1.68-37.08,2-55.56l56.4-13.8a313.78,313.78,0,0,1-2.16,54.12c-.84,6.12-1.32,12.24-1.56,18.48-.6,11.28.48,20.88,3,28.92a215.33,215.33,0,0,0,6.84-37.32c.72-7.68,1.08-15.48,1.2-23.4Q463,269.58,458,198.36a215.73,215.73,0,0,0-3.84,44Zm-42.48-86.88a448.56,448.56,0,0,0-77.28-6,44.89,44.89,0,0,0-11.88,1.56l-.24,12.36,46.56,2.16q-5.4,62.82-9.36,125.64c-.84,13.68-1.56,27.24-2,40.8a56.2,56.2,0,0,0,4,23.52,718.54,718.54,0,0,0,11.28-101.28c.72-19.8.84-39.48.24-59l-.84-29.4,38.88,4.2,2-11.4Z" transform="translate(-142.39 -192.7)"/></svg>