<svg id="Layer_1" data-name="Layer 1" xmlns="http://www.w3.org/2000/svg" viewBox="0 0 485.31 358.02"><defs><style>.cls-1{fill-rule:evenodd;}</style></defs><path class="cls-1" d="M136.08,128.52q21.06,21.06,20.88,50.4a77.69,77.69,0,0,1-17.52,49.32,53,53,0,0,1-17,13.8,67.82,67.82,0,0,1-33.6,7.68l-.84-4.8-4,1.92q3.24-61.74,1.8-123.24c14.76-6.6,29.4-6.12,43.68,1.56ZM99.6,105.6a51.08,51.08,0,0,0-14.4,6.12,9.13,9.13,0,0,0-1.2,3.6,187.5,187.5,0,0,0-6.24,52.2q1.08,64.8-1.44,129.12c-1.56,42.84-3.72,85.56-6.24,128.16l-.36.48a1.48,1.48,0,0,0-1,1.92C66.48,439.32,67.56,449.52,72,458a514.52,514.52,0,0,0,9.48-86q1.44-53.64,2.28-107.4c11.88,4.92,24.12,3.24,36.48-5q51.3-34.38,43-97.2c-4.68-34-23.64-53.64-57.12-59A51.44,51.44,0,0,1,99.6,105.6Zm97.32,27.12c-3.12,40.92-5.88,82.2-8.4,123.6q-3.78,64.26-1.44,128.16,1.26,34.56,22.68,60.72Q230.1,470,260.88,456.6C278.4,449,290.76,436.44,298,419A334.72,334.72,0,0,0,323,301.2c1.32-42.84,1.32-85.68,0-128.28A251.1,251.1,0,0,0,317,125a26.82,26.82,0,0,1-5.64,5.4,8.5,8.5,0,0,0,2.16,3.24c.36,34.08,1.2,68.16,2.28,102.24a775.32,775.32,0,0,1-6.6,128.52q-6.12,45-42.24,70.8-23.4,16.74-47,1.08a30.16,30.16,0,0,1-9.48-9.6A113.79,113.79,0,0,1,192.72,370q-1.44-31.32-.36-62.64,2.16-64.62,9.24-128.16a349.38,349.38,0,0,0,1.32-64.2,1,1,0,0,0-.72.24A42.14,42.14,0,0,0,196.92,132.72ZM395,137.16q34-3.24,49,24.12a13.94,13.94,0,0,0,1-12.48q-12.6-30.6-48.84-27.84a44.83,44.83,0,0,0-23.76,22.92q-26.46,56,8,109Q409,296.58,433.32,343.2q19.08,36.54-1,72.36A81.79,81.79,0,0,1,421.44,427a17.64,17.64,0,0,0-4.2,5.16q-27.18,16-52.56-5.16a31.22,31.22,0,0,1-7.2-8.76,80.29,80.29,0,0,1-9.24-43l.24-.72.48-.84.36-.84-.12-.72-.48-2.52a2.23,2.23,0,0,0-1.44-1.92l-.48.36.72,1.68-.24,1.2a3.67,3.67,0,0,0-.84,2.4l-.12.6a26.53,26.53,0,0,0-6.6,17.64q-.18,31.14,22,51.36,29.88,27.18,59.64,3.84c13.32-11.16,22.08-25.68,26.28-43.32a85.53,85.53,0,0,0-.72-43.32,278.07,278.07,0,0,0-49.32-99,149.56,149.56,0,0,1-26-51.36C363,180,370.92,155.76,395,137.16Zm155-11.64a239.83,239.83,0,0,0-5.28,61.68q1.62,47.52.84,95.16l-2.28-2.28-61.8,4.08,1.08-31.68q1.62-65-.48-128.28l-.6.12a174,174,0,0,0-6,45.36L474.84,298A885.7,885.7,0,0,1,469,394.32,239.82,239.82,0,0,0,470,458.64q6.66-3.6,4.32-12.24l3.36-64.92c1.32-29.16,2.52-58.44,3.6-87.6a244.32,244.32,0,0,0,64,2l-.6,19.44Q542.34,380,536.4,444.48c-.72,7.56,1.32,12.36,6.12,14.64a194.62,194.62,0,0,0,4.2-28.2c2.52-37.32,4.2-74.64,5-112.2,1-43.08,1.32-86.16,1.08-129C552.72,167.76,551.88,146.28,550.08,125.52Z" transform="translate(-67.6 -103.32)"/></svg>