<svg id="Layer_1" data-name="Layer 1" xmlns="http://www.w3.org/2000/svg" viewBox="0 0 531.81 495.33"><defs><style>.cls-1{fill-rule:evenodd;}</style></defs><path class="cls-1" d="M135,298.44c22.2.24,35,11,38.28,32.4q5.94,38.7-23.4,60.24a86.49,86.49,0,0,1-29.16,4c4.08-30.84,7.08-61.56,9-92.4l3.48-2.4Zm-9.6.84-.24,1.68a4.87,4.87,0,0,0,.48,2.28l.48,1,1.56-.6c-.6,3-1.2,6-1.68,9.24Q117.54,376,107.28,438.6c-1.8,10.68-4,21.12-6.6,31.32a299.22,299.22,0,0,0-9.24,63.6c1.44,1.32,2.76,1.32,4.08-.24,8.52-36.84,15.6-74.16,21.48-111.84l2-14.4.6.12a58.69,58.69,0,0,0,19.56-.36,86.93,86.93,0,0,0,5.52,28.08q22,60.48,44.16,118.68c1.44-15.24-1.56-30.6-8.88-46.32A596.77,596.77,0,0,1,142.44,406c12-3.48,20.88-11.88,26.76-25.2A106,106,0,0,0,178,334.44c-.84-25.8-13.92-40.32-39.36-43.8l-.12.12-3.12.12-6.72,4.2a10.46,10.46,0,0,0-3.12,3.36ZM81.84,73a101.65,101.65,0,0,0-5.16,27.12c-2.52,42.6-4.08,85.44-4.92,128.28L71,261.84,62.52,260a7.42,7.42,0,0,0-1.08,3.24v3.24a7.82,7.82,0,0,0,1.92,4.92l7.32,1.8q-1.26,41.76-3.84,83.4-3.78,64.62-11.16,128.88a274.41,274.41,0,0,0,.12,64.32c3.12-2.52,4.8-6.36,4.92-11.4.84-27.72,2.28-55.44,4.56-82.92Q70.5,391.62,74,327.36l2.52-52.92q56,9.9,102.24-29.64A43.33,43.33,0,0,0,190.08,230q30.42-64.44-13.92-119.28Q146.1,73.5,100.68,63.6a77.2,77.2,0,0,0-23.52,2.16l-.6,1.68a6,6,0,0,0-.12,3.24l.36,1.56Zm38.4,6.12a121,121,0,0,1,35.76,20c27.72,22.68,42,51.6,42.6,86.76.24,17.4-6,31.92-18.6,43.32q-45.9,41.58-103,33.72c.84-21.48,1.44-43.08,1.92-64.56,1-42.36,2.16-84.24,3.48-125.4a133.85,133.85,0,0,0,23,.12C110.28,75.24,115.2,77.28,120.24,79.08ZM369.36,302a396.39,396.39,0,0,1,19.2,59.16q7.38,31.5,13.56,63.12-9.54,58.86-53.4,101.64a70.65,70.65,0,0,1-30,17.88,17.5,17.5,0,0,1-12.36-.6c-34-14.52-54.36-40.08-61-76.8a465.39,465.39,0,0,1-6.84-60.72c-2-42.84-3.24-85.8-3.36-129.12a397.69,397.69,0,0,1,19.56-126.24,131.2,131.2,0,0,1,27.72-48.12l3.24-.6a171.59,171.59,0,0,1,25.92-4.2l12.48.84a13.35,13.35,0,0,1,7.8,3.24l.24.72.12.84.12.84.12.84.24.72.24.84a242.28,242.28,0,0,1,56.88,88.32,289.06,289.06,0,0,1,18.72,93,851.92,851.92,0,0,1-4.44,120.24l-8.64-35.76c-4-15.84-7.56-31.8-10.8-47.76-2.64-12.84-7.92-22.68-15.72-29.64l-.12.72A10.37,10.37,0,0,0,369.36,302ZM411,193.8q-2.7,45,29,74.16a25.58,25.58,0,0,0,11.16,6.12q31.68,7.92,43.92-24A203.69,203.69,0,0,0,508.2,188.4a128.12,128.12,0,0,0-11.4-62.16A88,88,0,0,1,491,109.32q-6.84-30.78-39.72-28.44A29.92,29.92,0,0,0,431.4,93.72Q411.78,122.34,412,158.28C412.08,170,411.72,181.92,411,193.8Zm-50.88-73.56q-15.3-34.38-53.88-33.6l-8.64,1.2c-10.68.6-19.44,4.8-26.28,12.84a327.07,327.07,0,0,0-33,99.12,623.14,623.14,0,0,0-7.2,129q1.8,39.78,2.76,79.56A333.67,333.67,0,0,0,244,482.64q12.06,47.52,53.64,72.6a21.77,21.77,0,0,0,19.56,2.16A104.25,104.25,0,0,0,367.56,521a171.74,171.74,0,0,0,29.64-59.88c2.52-8.88,4.68-17.76,6.72-26.76,3.12,17.52,5.88,35.16,8.4,52.92a92.45,92.45,0,0,0,9.24,30.6,3.7,3.7,0,0,0,.84-1.68q11.16-61.2,18.36-123.36c2,22,4.92,43.8,8.4,65.52a354,354,0,0,0,15.72,61.68,473.37,473.37,0,0,0,17.64-104.76,273,273,0,0,1,10.92-62.88,158.59,158.59,0,0,0,6-62.88,112.21,112.21,0,0,0-8.88,28.92c-3.12,18-5.88,36-8.4,54.12Q473.88,434.88,464.88,497A377.17,377.17,0,0,1,451.8,421.2a219.27,219.27,0,0,0-13-61.56,2.27,2.27,0,0,0-.84,1.68,1190.08,1190.08,0,0,1-17.76,123.24q-6.12-32.4-13.32-64.68a573,573,0,0,0,9.12-70.2,390.48,390.48,0,0,0-10.8-124.08,386.24,386.24,0,0,0-35.64-91.08A52,52,0,0,1,360.12,120.24Zm107.4-27.48-.36,4.44A121.59,121.59,0,0,1,491.76,134a115.85,115.85,0,0,1,9.72,44A176.61,176.61,0,0,1,496.92,223c-4,16.56-12.84,28.56-26.88,36.12-10.2,5.52-19.56,4-28.32-4.68a78.39,78.39,0,0,1-22-40.56A172.78,172.78,0,0,1,416.28,168a286.7,286.7,0,0,1,5.88-44.28c3.48-16.56,13.56-26.64,30.12-30.36Zm62-10.44c-1.68,1-2.52,2.76-2.64,5.28q-2,43.92-6.24,87.6a1246.18,1246.18,0,0,0-6.24,129.24q.18,64.26-4.32,128.16a292.64,292.64,0,0,1-4,32.28,224,224,0,0,0-2.4,64.32,214.44,214.44,0,0,1,79.32-7.56c3.48-5.28,3.48-10.44-.24-15.36q-39.42-2-73.92,4.32c3-22.92,5.52-45.84,7.44-69,3.48-42.6,5.16-85.68,5-129q-.36-40.32,1.92-80.4c2.4-42.84,4.68-85.56,6.72-128.4.36-6.72.72-11.16,1.08-13.2l.36-.24C532.56,87.12,532,84.48,529.56,82.32Z" transform="translate(-53.85 -63.46)"/></svg>