<svg id="Layer_1" data-name="Layer 1" xmlns="http://www.w3.org/2000/svg" viewBox="0 0 472.41 455.7"><defs><style>.cls-1{fill-rule:evenodd;}</style></defs><path class="cls-1" d="M295.2,386.4l6.24,1.92c3-9-.36-14-10.32-15q-52.56,50.22-14.76,112c1.56,2.52,4.2,3.36,7.92,2.4a54.92,54.92,0,0,0,13.2-6.12c8-5.28,11.52-12.72,10.2-22.2l-.84-4.32c-8.16,12.48-19.32,17.76-33.6,15.72a62.62,62.62,0,0,1-5.16-41.28,92,92,0,0,0,34.8-4.8,12.46,12.46,0,0,0-.36-14.28l-32.28,9.36A89.1,89.1,0,0,1,287.88,388Zm-94.44,13.32c-4.92,20.76-9.6,41.4-14,62.16V460.8a339.34,339.34,0,0,0-10.92-86.88h-.48q2.34,54.72,9.12,109.32A173.72,173.72,0,0,0,202.32,424q8.1,32.94,19,64.2,13.68-39.6,26-82.32c3.24-11.28,2.28-20.52-2.76-27.84q-10.62,41.76-22.68,84.12a259.91,259.91,0,0,1-9-32.4,100.25,100.25,0,0,0-11.64-31ZM199.2,259.56q-25.38,51.66-2.28,103.32a10.47,10.47,0,0,0,6.36,6q40,14.94,74-11.16C292,338.88,298,317.16,295.2,292.8c-3.84-35.16-23.64-53.76-59.28-56a82.47,82.47,0,0,0-23.52,8.88A32.1,32.1,0,0,0,199.2,259.56Zm89.76,46c-.12,16.92-7,30.48-20.28,40.56a69.58,69.58,0,0,1-44,14.4c-17.88-.24-28.32-9.12-31.56-26.64a116.37,116.37,0,0,1,.36-44.64c3.24-15.84,11.88-27.6,26.16-35.16,16.08-8.52,27.72-7.32,35,3.84L270,264.12C282.84,274.56,289.2,288.36,289,305.52ZM117.6,252.24A32.25,32.25,0,0,1,135.24,271,348.43,348.43,0,0,1,153,334.2a238,238,0,0,1,4,45.12,139,139,0,0,1-15.48,63.48Q126.9,471.06,97.2,479.52c-4.32,1.2-8,.48-11-2.28-12.12-10.8-19-25-20.64-42.36a464.7,464.7,0,0,1,4.68-127.8q6.66-38.52,39.84-55.44A16.25,16.25,0,0,1,117.6,252.24Zm-7.2-14.16q-29,12.06-38.76,43.44A328.63,328.63,0,0,0,58.8,340.44a343.47,343.47,0,0,0,7.8,126.72c2.88,11.4,8.88,19.92,18,25.8A15.32,15.32,0,0,0,100,494q39.24-17.1,53.76-59.76a184.12,184.12,0,0,0,9.12-41.76A235.81,235.81,0,0,0,153,297.6c-1.8-5.64-3.36-11.28-4.68-16.8q-5.94-25.38-23.4-41l-1.56,1.56-.6.36-1.32-.6A20.34,20.34,0,0,0,110.4,238.08Zm3.12-53.4c-15.24,22.2-35.52,32.52-61.08,31q2.7-48.06,6.72-95.88a358.9,358.9,0,0,0,.72-53.16c27.72-7.08,47,2.76,57.72,29.76a124.28,124.28,0,0,1,8.88,43.56C126.84,156.6,122.52,171.48,113.52,184.68ZM107.64,61.2a57.56,57.56,0,0,0-38.4-12l-1.08.48A104.49,104.49,0,0,0,58,53.52l-2.16,1.2-.36.72a16.67,16.67,0,0,0-1,6.48A18,18,0,0,0,55,64.8a43.74,43.74,0,0,0-1.44,8.4q-4.86,63.9-8,128.4L38.64,329.76Q35,394,29.28,457.92q-1.62,18,4.32,32.4a2.54,2.54,0,0,0,1-1.44c4.32-37.32,7.44-75,9.48-112.8l6.6-128.16.84-15.6q20.7,6.3,38.16-5.76a103.56,103.56,0,0,0,34.08-38.64,81.74,81.74,0,0,0,8.52-29.28q5.22-53.64-23.52-96.72ZM224.76,85.8a787,787,0,0,1-3,98.16c-1.68,17.28-10.44,29-26.4,35.4-14,5.52-23.28,2-27.84-10.32a65.61,65.61,0,0,1-3.84-23.64c1-43.32,1.8-86.16,2.4-128.28a239.83,239.83,0,0,0-8.52,59.52c-.36,17.52-1.32,35-3,52.56q-3.42,35.64,13.92,64.32,11.7,8.1,24.84,2.52,37.62-15.84,37.8-58,.36-48.06,3.24-95.76c.6-9.84-1.32-17.64-6-23.28l-.6.84C224.64,69.36,223.68,78,224.76,85.8Zm163,48.12Q395.82,198.54,342,233a14.46,14.46,0,0,0-8.64-.48l2.64-90a222.59,222.59,0,0,1,3-32.16,277.93,277.93,0,0,0,3.6-36.48c18.6-.36,31,8.64,37.32,27A167,167,0,0,1,387.72,133.92ZM358.8,64.56a16.57,16.57,0,0,0-16.2-.24l-.12-2a55.63,55.63,0,0,0-6.72,21.36q-9.54,86.94-10.44,174.72Q324.24,367.62,314,476.28q-1.26,13.5,2.16,23c2-10.32,3.72-20.64,4.8-31.08q8.82-81.9,10.2-164.52c.36-18.24.84-36.48,1.56-54.72l9.24.24,10.2-6.48q4.14,37.26,10.8,73.8Q377.76,397.38,385.32,479a44.13,44.13,0,0,0,10.8,25.8,17,17,0,0,0,1.56-10q-6.12-37.44-10.8-75a1468.54,1468.54,0,0,0-33-178.44,81.5,81.5,0,0,0,13.68-12.84,91.93,91.93,0,0,0,16.56-29.28l2.4-7.68a207.32,207.32,0,0,0,7.32-46,131.11,131.11,0,0,0-6.36-46.8C382.44,83.76,372.84,72.36,358.8,64.56Zm140,23.16c-2.64-16.56-13.8-24.84-33.48-25C442.2,80.52,426,104,417,133.2q-14.22,45.72.84,90.36,8.82,26.28,36.72,26.28A53,53,0,0,0,490.68,236c11.16-9.84,13.56-19.92,7.2-30.36a9.93,9.93,0,0,0-5.4,6.72,6.92,6.92,0,0,1-4.92,5.16c-10.44,13.8-24.72,19.32-42.6,16.44a15.57,15.57,0,0,1-10.56-6q-22.86-29.16-16.92-65a147.78,147.78,0,0,0,44.16,1.32l.36-.84a13.78,13.78,0,0,0-1.44-13,270.81,270.81,0,0,0-40.92,2.28l1.92-6.48a270.94,270.94,0,0,1,21.36-47.76Q458.58,71,487.08,83a34.27,34.27,0,0,0,6.24,5.52c2,1.32,3.84,1.32,5.4-.12Z" transform="translate(-28.93 -49.14)"/></svg>