<svg id="Layer_1" data-name="Layer 1" xmlns="http://www.w3.org/2000/svg" viewBox="0 0 298.41 211.18"><defs><style>.cls-1{fill-rule:evenodd;}</style></defs><path class="cls-1" d="M154.32,315.24c-.84,13.56-1.92,27.12-3.12,40.68a233.88,233.88,0,0,0,.12,40l.72,7.8q12.78-26.28,10.44-57.84a310.15,310.15,0,0,1-.36-42.24,46.2,46.2,0,0,0,23-3,44.08,44.08,0,0,0,6.84-3.24,49.63,49.63,0,0,0,14-12.48,56.9,56.9,0,0,0,8.52-14.76,40.58,40.58,0,0,0,2.88-13,71.7,71.7,0,0,0-3.72-28l-1.8-4.68A47.27,47.27,0,0,0,192.6,203a50.09,50.09,0,0,0-34.92-6.84,126.29,126.29,0,0,0-2.52,42.6,252.33,252.33,0,0,1,1.2,39.24Zm8.88-28L164.88,260a212.78,212.78,0,0,0-2.64-52q31.5-1.44,46.56,26.76a21.8,21.8,0,0,1,2.4,11.28c-2,27.36-17.52,41.4-46.68,42.12Zm74.76-91a210.78,210.78,0,0,0-7.32,37.8c-4.44,42.36-6.84,85.2-7.44,128.52-.24,24.84,11.76,39.12,35.88,43.08S300.6,401,310.92,379.8q25.2-51.84,22-111.12a396.59,396.59,0,0,1,.36-47.76c.6-10.08-1.44-17.88-6.36-23.4a3.7,3.7,0,0,0-.84,1.68,354.89,354.89,0,0,0,.48,71.4c-.84,9.72-1.2,19.44-1.08,29.28q.54,51.3-34.92,85.92a72.29,72.29,0,0,1-41.28,1.68,17.26,17.26,0,0,1-13.08-11.64,120.16,120.16,0,0,1-6.24-52.32q6.48-64.62,8.4-127.32Zm142.8,14.52a166.53,166.53,0,0,0-34.56,85.68,260.6,260.6,0,0,0,.6,61.92A65.16,65.16,0,0,0,358.68,388q17.64,23.94,46.44,8.64c22.44-11.88,32.52-28.56,30.12-50.28l4.68.36Q437.58,360,434.52,373c-2.52,11-1.32,20.28,3.84,27.72l.48-.6a191.33,191.33,0,0,0,6.48-69.72,79.43,79.43,0,0,0-32.4,6.6l-.24.72a16.71,16.71,0,0,0,.24,7.32,8,8,0,0,0,4.8,2.4l8.28-1a19.77,19.77,0,0,0,1.56,6.36l.72,1.68c-6,14.76-16.92,24.36-32.64,28.56-20,5.4-32.52-.84-37.2-19a169.87,169.87,0,0,1-5.16-52.32,176.48,176.48,0,0,1,23.88-79.56c5-8.64,12.84-14,23.28-16.2q35.64-7.2,46.8,23.16a16.27,16.27,0,0,0,1-11.4c-5.76-21.48-21-30.84-45.6-27.84a25.35,25.35,0,0,1-8.76,3.12A20.31,20.31,0,0,0,380.76,210.84Z" transform="translate(-150.4 -195.48)"/></svg>