<svg id="Layer_1" data-name="Layer 1" xmlns="http://www.w3.org/2000/svg" viewBox="0 0 534.2 421.11"><defs><style>.cls-1{fill-rule:evenodd;}</style></defs><path class="cls-1" d="M95.28,245.16a60.17,60.17,0,0,0-29.16,30.48A176.8,176.8,0,0,0,52,330.48a456.16,456.16,0,0,0-2,46.2l-.12,35.88a66.67,66.67,0,0,0,11,37.8q17.1,25.74,35.64,3.6a112.25,112.25,0,0,0,24.12-52.32,329.47,329.47,0,0,0,4.8-39.36,251.37,251.37,0,0,0-.6-40.32A224.71,224.71,0,0,0,115.2,275a179.35,179.35,0,0,0-11.88-28.56Zm2.52,19.32L101,268.2l1.92-3.36a265.93,265.93,0,0,1,13.56,111,190.25,190.25,0,0,1-5.52,32,104.67,104.67,0,0,1-10.92,26.4,48.93,48.93,0,0,1-13,14.64L79.32,450q-32.94-23.22-26.4-69.48a275.29,275.29,0,0,0,2.76-41,117.46,117.46,0,0,1,12.48-54,45.92,45.92,0,0,1,17.16-19L92,262.44Zm4.92-93.6c-2.28,16.2-10.08,28.92-23.4,38.4A63.61,63.61,0,0,1,49,220.56l-5.28-1.44L52.92,61.44q24.3.36,37.44,20.16a85,85,0,0,1,14.28,42.24A228.48,228.48,0,0,1,102.72,170.88ZM50.88,51.72a4,4,0,0,0-1.08,2.4,23.15,23.15,0,0,0,0,4.08l.12.48a274.12,274.12,0,0,0-9.6,60.6c-1.8,42.84-3,85.8-3.48,129.12q-.72,64.44-2.64,129a471.14,471.14,0,0,1-6,63.84c-1.8,10.2,0,18.12,5.4,23.64A707.38,707.38,0,0,0,43,358.56q.72-61.74.72-123.24c11.64,3.48,22.8,1.56,33.6-5.88a68.38,68.38,0,0,0,28.8-42.6A220.59,220.59,0,0,0,109.2,105c-4.44-30.6-21.36-49.2-50.76-56a8.6,8.6,0,0,0-5.16.84A8.9,8.9,0,0,0,50.88,51.72Zm181.2,5.88q-2.34,52.74-2.4,107.16c0,43.08-.48,86-1.44,129.12-.48,21.72-.72,43.32-.72,64.92q0,45-25.08,80.52c-10.92,15.48-23.52,17.76-37.68,6.6l-4.56-2.4a23.07,23.07,0,0,1-3.36-7.68,343.69,343.69,0,0,1-5.76-105.36q6.3-64.26,9.6-128.88,3.42-64.26,2.64-129.12c0-7.08-1.8-12-5.4-14.52a449.69,449.69,0,0,0-1.68,49.44A1201.38,1201.38,0,0,1,152,235.56q-5.58,64.26-7.56,129.24c-.36,10.8-1.2,21.6-2.4,32.28-2.88,25.56,3.72,47,19.68,64.2A21.17,21.17,0,0,0,177,469.92a13.81,13.81,0,0,0,7.68-1.44,73.77,73.77,0,0,0,36.72-40.32,168.21,168.21,0,0,0,11.28-50c3-42.48,4.68-85.32,4.8-128.4s.72-85.92,2-129a331.34,331.34,0,0,0-4.2-64.2A4.12,4.12,0,0,0,232.08,57.6ZM302.52,105c6.84,15.72,13.44,31.56,19.56,47.4,10.68,27,7.68,51.84-8.76,74.4l-1.68.72a11.51,11.51,0,0,1-10-.48l-1.32-.84-1.08-.84a18.84,18.84,0,0,1-2.4-12.12,12.8,12.8,0,0,0-3-10.56c-4.92,3.48-7.2,9-6.72,16.32q1.62,25,24.48,27a12.06,12.06,0,0,0,5.4-4.32Q347.82,197.4,328,144.12a154.2,154.2,0,0,0-13.8-27.84c-8.28-13-10.2-25.8-5.76-38.4a18.86,18.86,0,0,1,7.44,1.8,85.37,85.37,0,0,1,12.12,7,13.77,13.77,0,0,0,.84-11.28,42,42,0,0,0-4.92-9.84l-1.56-1A17.89,17.89,0,0,0,308.4,61.2c-7.44,4.68-11,11.64-10.8,21.12A57.84,57.84,0,0,0,302.52,105ZM305,51.48l-3.12-.6a139,139,0,0,0-46.2,3.84L251,56l-.24,8.88,28-1.44q-8.64,79.74-12.24,159.84a20.71,20.71,0,0,0,3.72,13.2A776.22,776.22,0,0,0,280.68,92.88c-.12-9.72-.12-19.56,0-29.4l24.24.12a11.66,11.66,0,0,0,1.92-4.32,8.44,8.44,0,0,0-.24-4.56l-1-2.28Zm78.84,29.4q25.92-13.32,46.92,3.24a11.94,11.94,0,0,0,.72-8.64,24.29,24.29,0,0,0-11-14.88L417,59.76A35.58,35.58,0,0,0,406.92,58c-18.84-1.8-31.56,5.88-38,23.16A354.92,354.92,0,0,0,347,195.6c-.48,21.72-1.32,43.32-2.64,64.92A1174.52,1174.52,0,0,0,344,387.24q2.34,43.74,37.44,67.32a47.46,47.46,0,0,0,21.72.24l1.08-.84.72-.72a50,50,0,0,0,27.6-20,105.69,105.69,0,0,0,17.88-43.8l-.6-.72a19.9,19.9,0,0,1-1.44-3.72q-.9-2.88-3.6-2.16c-3.36,8.52-7,17-10.92,25.8-5.4,11.88-14.4,19.68-26.88,23.64q-38.34,12.06-47.88-26.4a356.22,356.22,0,0,1-10-95.4c1.32-42.84,3.12-85.56,5.28-128.4a264.1,264.1,0,0,1,20.88-91.8A18.58,18.58,0,0,1,383.88,80.88ZM558.72,69.6q-4,49-3.72,99,.18,36.18-.72,72.12a269.44,269.44,0,0,0-84.84,10.08l-.24.84-.12.24.72-59.76q1.08-65.34.24-128.28a619.66,619.66,0,0,0-7.68,101.52l.48,129q.18,65-5.4,129c-1.08,11.88.48,22.68,4.68,32.28a6,6,0,0,0,3.24-5.4c2.28-42.6,3.48-85.68,3.48-129l.24-63a7.5,7.5,0,0,0,1.2,2.4l83.52-3.36-1.56,40.44c-1.92,42.84-3.12,85.92-3.72,129-.12,11.88,1.68,22.68,5.64,32.16,3.6-5.88,5.28-12.84,4.92-20.88q-2.52-55.8-.6-112l2-71.64a13.18,13.18,0,0,0,.24-10.44l.6-46.92c.36-43.32-.12-86.16-1.56-128.28C559.2,68.64,558.84,68.88,558.72,69.6Z" transform="translate(-27.52 -48.87)"/></svg>