<svg id="Layer_1" data-name="Layer 1" xmlns="http://www.w3.org/2000/svg" viewBox="0 0 469.66 437.46"><defs><style>.cls-1{fill-rule:evenodd;}</style></defs><path class="cls-1" d="M249.48,381.48a972.71,972.71,0,0,0,11.76-128.16,485.42,485.42,0,0,1,9.6-86c-1.08,42.24-2.88,85-5.64,128.16q-4.14,63.9-13.68,127L249.24,440a8.11,8.11,0,0,1-3.6,6.12c-4.8-9.72-5.76-20.52-2.76-32.52C245.52,403,247.68,392.28,249.48,381.48ZM71.4,74.64v-2.4a5.23,5.23,0,0,1,1.8-3.6,2.41,2.41,0,0,1,1-.48q69.12-3.06,116.52,45.36,42.66,43.38,38.4,102.24a50.13,50.13,0,0,1-10.92,27.72q-28.8,36-76.2,43.08a346.13,346.13,0,0,1-56.28,4q.18,50.94-1.68,102.12a937.64,937.64,0,0,1-10.92,112.8c-4.68-9.12-5.76-19.8-3.24-31.92a238.5,238.5,0,0,0,4.56-32.16c3.24-42.84,4.56-85.8,4.08-129.12V290.4l-10.56-.6a7.42,7.42,0,0,1-1.08-3.24v-2.4a8.43,8.43,0,0,1,.72-4.2l.36-.72H78.36q.18-48.06,1.56-96.12,1.8-53.28,5.64-105c-4.44-.24-8.88-.36-13.32-.24A10.78,10.78,0,0,1,71.4,74.64Zm107.52,41.52C152.4,93,121.8,80.28,87.24,78.24q2,59.76-.72,120.48c-1,21.48-1.32,43.08-1,64.8l.12,15.36a276.65,276.65,0,0,0,114.6-31.2,32.91,32.91,0,0,0,11.28-9.48c19.08-25.56,19.92-52.56,2.28-81A183.2,183.2,0,0,0,178.92,116.16Zm153.6-35.52Q332,143.82,325.8,208.2q-6.12,63.9-15,127.2c-6,42.12-10.8,84.48-14.4,126.84A175.2,175.2,0,0,1,294.12,480q98.1-6.66,197.4-15.6a214.64,214.64,0,0,1,32.88-.72,4.73,4.73,0,0,1,3.24,1.2,17.28,17.28,0,0,1-.24,15.36,1314.59,1314.59,0,0,0-143.4,8.4q-47.7,5.4-95.64,8.64a170,170,0,0,1,0-48.12Q297,385.44,306.12,322q9-63,14.28-126.48l8.52-105.72A15.35,15.35,0,0,1,332.52,80.64ZM518.88,152.4l-.24.72a25.07,25.07,0,0,1-2.4-5.28,29.37,29.37,0,0,0-9.72-13.68q-41.4-7-66.84,27.72a259,259,0,0,0-39.24,78.48,244.87,244.87,0,0,0-8.16,34.92,515.4,515.4,0,0,0,104.52-15l2.64.48.84.6a12.33,12.33,0,0,1,1.44,8.16,3.4,3.4,0,0,1-1.44,2.4c-35.16,12.12-71.52,15.36-109.08,10a260.19,260.19,0,0,0,1.68,81.24q7,39.6,41,58.32A20,20,0,0,0,449,423.12a228.48,228.48,0,0,0,81.24-40H532l.84.24.72-.36a3.5,3.5,0,0,1,1.08-.24,1.09,1.09,0,0,1,.84.36l.48.84.48,2.4a10.5,10.5,0,0,1-1,5.76A243,243,0,0,1,482,429.48c-17.88,9.36-36.12,10.92-54.48,4.56a30.25,30.25,0,0,1-15-11.64Q378.9,373.8,382.2,314c.72-12.36,2-24.48,4-36.6l.24-1.92h.12a363.66,363.66,0,0,1,26.4-88.44c11.64-26.52,30.12-46.68,55.44-60.24a72.54,72.54,0,0,1,19.8-7.2C509.64,120.36,520,131.28,518.88,152.4Z" transform="translate(-66.81 -67.98)"/></svg>