<svg id="Layer_1" data-name="Layer 1" xmlns="http://www.w3.org/2000/svg" viewBox="0 0 291.92 215.21"><defs><style>.cls-1{fill-rule:evenodd;}</style></defs><path class="cls-1" d="M269.52,399.84a603.38,603.38,0,0,0,7.68-78.6c1.32-43.32,1.08-86.16-.72-128.28a131.1,131.1,0,0,0-5.64,38.4q-.72,64.62-4.32,129a114.3,114.3,0,0,1-2,15.84C262.32,386.4,264,394.32,269.52,399.84ZM196.2,277.68c-9.36,6.36-20.28,9.12-32.76,8.52.84-27,.6-53.76-.84-80.52,23.16,2,38.76,15,46.56,38.64C212.52,258.48,208.2,269.64,196.2,277.68ZM299.88,212.4l1.56,1.92c-2.88,6.48-3.12,12.72-.72,18.6,10.32-12.84,9.84-25.32-1.44-37.32C295.32,200.52,295.56,206.16,299.88,212.4ZM192.12,200.76c-10-7.08-20.16-10-30.72-8.4h-.24L158,194.64l-.6,10,2.76.84a1355.58,1355.58,0,0,0-6.48,194.4,370.07,370.07,0,0,0,9-98.16c39.48.84,56.28-20.16,50.16-62.76A57,57,0,0,0,200,210ZM384.6,228.6c1.8-20-7.44-32.16-27.48-36.24-28.2,19.32-33.6,43.8-16.08,73.68l24,40.68c9.24,15.72,12.84,32.16,11,49.56a32.23,32.23,0,0,1-12.6,22.32,35,35,0,0,1-22.08,7.8,35.45,35.45,0,0,1-17.16-6.24c-12.84-8.76-19.68-20.88-20.76-36.36l-3.84-3.48q-9.72,36.36,24,57.84c16.68,10.56,32.4,8,46.92-7.44a54.32,54.32,0,0,0,15.24-40.8,89.91,89.91,0,0,0-18-51.24A177.69,177.69,0,0,1,339,239.4q-3.24-11.34,4.68-20.52a42.34,42.34,0,0,1,7.2-6.72c15-3.48,26.16,2,33.48,16.68Zm20.76-33.24c-1.8,25.8-2.76,52.08-2.64,78.72q0,32.58-2.88,64.8a301.88,301.88,0,0,0,1.08,64.32c.84-.36,1.2-.84,1.2-1.2a678.74,678.74,0,0,0,7.2-80.28l.48-13.32A78.41,78.41,0,0,0,436.08,310l-.24,32.52a206.65,206.65,0,0,1-2.52,32.28q-3.06,17.82,2.88,32.4a48.07,48.07,0,0,0,5.76-21.6c1-21.36,1.68-42.72,2-64.08,1.08-43.2.72-85.92-.84-128.28l-.6.12a54.89,54.89,0,0,0-4.32,20c-.84,26.4-1.56,52.8-1.92,79.32A145.61,145.61,0,0,0,410,295.44c.48-34.44-.36-68.52-2.52-102A1.84,1.84,0,0,0,405.36,195.36Z" transform="translate(-152.7 -191.95)"/></svg>