<svg id="Layer_1" data-name="Layer 1" xmlns="http://www.w3.org/2000/svg" xmlns:xlink="http://www.w3.org/1999/xlink" viewBox="0 0 592.68 597.36"><defs><style>.cls-1{fill:none;}.cls-2{clip-path:url(#clip-path);}.cls-3{fill-rule:evenodd;}</style><clipPath id="clip-path" transform="translate(-4.08 -0.24)"><rect class="cls-1" x="4.08" width="591.24" height="597.72"/></clipPath></defs><g class="cls-2"><path class="cls-3" d="M407.28,460.68q-9.9-19.44-17.64-11.88v.72c0,4.44-.84,10.92-2.4,19.44a5.25,5.25,0,0,0,3,1c8.28,0,13.44-1.2,15.72-3.6C406.8,465.48,407.28,463.56,407.28,460.68ZM405.84,455c2.28,3.84,3.36,7.2,3.36,10.2a10.6,10.6,0,0,1-2.52,6.6,10.47,10.47,0,0,1-3.6,3,24.06,24.06,0,0,1,4.68,8.52q10.08,15.12,10.08,16.56c0,1.8-.12,2.52-.36,2.4l-.24.36-.48.48A66.11,66.11,0,0,1,405,488.88c-3.12-5.4-5.76-9.84-8-13.32l-10.8-.84-.72,3.48c-2.64,12-4.8,20.28-6.6,24.72a3.31,3.31,0,0,1-.84-1.08l-.24-2.76,4.56-22,.84-4a2.59,2.59,0,0,1,.24-2l.24-.48c2.28-12.12,3.36-21.36,3.36-27.6h.72l.48.72a2.55,2.55,0,0,1,2.88-1.8c2,.12,4.44,1.56,7.44,4.08A35.91,35.91,0,0,1,405.84,455ZM96.36,448.8a85.54,85.54,0,0,1,.84,10.68,283.78,283.78,0,0,1-1.68,28.44l-3.48,28V534.6l38.16.72c6.36,4.2,9.48,7,9.48,8l-.12,4a2,2,0,0,1-2,1.8l-4.68-.72a7,7,0,0,1-3-1.08l-41.64.48a14.71,14.71,0,0,1-1.56-7.32,411.7,411.7,0,0,1,2.88-43.68,506.52,506.52,0,0,0,2.76-52.08c0-3,.72-5,2.16-6C95.16,440,95.76,443.4,96.36,448.8ZM285.12,555.24l-2.64-3.36-15-.6c-1.08,3.72-3.24,9.6-6.36,17.64L274,568v-1l.12-.24.36-.24a6.84,6.84,0,0,1,1.92,1c7-1.56,10.44-4.2,10.44-8.16A6.94,6.94,0,0,0,285.12,555.24ZM193,569.88l-8.76-7.44c-8-7-12.12-11.16-12.12-12.72a8.56,8.56,0,0,1,.24-2.28v-.12a101.85,101.85,0,0,1,16.32,11,56.36,56.36,0,0,1,8,8c13.92-12.84,23.52-19.08,28.68-18.6-9.24,9.24-17,16.8-23.64,22.92l-1.56,1.56.36,1-.48.48-.84.84-1-.6L176.4,593a4.58,4.58,0,0,1-1.08-1.08,12.68,12.68,0,0,1-.24-2.76c0-.6,2-3,6.12-7.44C184.92,577.8,188.76,573.84,193,569.88Zm63.12-1.44c3-8.4,5.88-15.36,8.4-21l.12-1v-.24h.48l1.44-3.36,1.32,1.32a4,4,0,0,1,.6,1.92l14.28-.24c3.48,3.72,5.4,6.24,5.88,7.44.24.6.36,2.52.36,6,0,4.44-1.2,7.8-3.48,10.08a16.45,16.45,0,0,1-3.12,2.4l8.88,7.2c9.48,8.16,14.28,13.32,14.28,15.36,0,1.8-.12,2.52-.24,2.4l-.48.36-.6.48-16.92-14.88-9.72-9A61.86,61.86,0,0,1,262,575.4l-3.36-.12c-3.72,9.36-6.48,14.88-8,16.68l-.6-1.08-.24-2.64c0-1.44,1.32-5.88,4-13.2l-2,.12-.48-1.68v-5.64l3.48.36Zm32.16-214.08a52.54,52.54,0,0,1-2.76,16,133.07,133.07,0,0,0-4.92,20.52v.84l3.6-.84L289,390c8,0,14,.84,17.76,2.64s9.24,2.4,16.92,2.28l1.92,1.8a5.18,5.18,0,0,1,.48,2.64,7.3,7.3,0,0,1-.36,2.64l-1,1.08c-9.84-.36-17.4-1-22.8-2l-20.52-1.2-3.12-.12-1.2-.24a30.68,30.68,0,0,1-.24-4.08c0-5.88,1.44-13.8,4.2-23.76q4.5-15.66,5-26.28h1.08A29.6,29.6,0,0,1,288.24,354.36Zm5.88-35.88c2.64,5.64,6.48,13.8,11.64,24.24A197.27,197.27,0,0,0,316,319.2c5.16-13.68,8.16-21.48,9-23.28l1.08-.36.6,2.16.24,2.76c0,2.52-3.12,11.16-9.48,25.92l-11,25.2a197.36,197.36,0,0,1-19.56-45.72l-.24-.48c-1.68,4.44-3.72,11.76-6.12,22.2-2.76,9.48-6.48,16.68-11.16,21.84l-.48-.24-.12-1.8c0-.36,1.56-3.72,4.8-10.32,3.36-7,5.4-12.84,6-17.64a107.07,107.07,0,0,1,2.88-14.52c1.56-6.12,3.24-9.84,4.8-11.16C287.16,299.88,289.44,308.16,294.12,318.48ZM29.28,12c0,24.12-.6,43.32-1.68,57.48-2,21-3.84,44.16-5.64,69.6v41.4c-.84,5.88-1.44,12.36-2,19.44a130.38,130.38,0,0,1,13.2-1.68,96.12,96.12,0,0,0,17.4-2.76A37.92,37.92,0,0,0,66.84,186a117.26,117.26,0,0,0,10.68-12.48c3.72-5.16,6.12-9.24,7.2-12.48a217.1,217.1,0,0,0,6.36-25.44A168.63,168.63,0,0,0,92.76,111c0-13.32-.36-22.8-1.08-28.32A92.26,92.26,0,0,0,83,53.88c-8.16-17.16-20.52-29.4-37.2-36.48L30.36,11.88l-1.08-.48ZM96.12,79.2a263.74,263.74,0,0,1,1.56,32c0,22-3.36,41.64-10.2,59.16-11.52,29.4-31,44.28-58.2,44.88a25.75,25.75,0,0,1-10.08-.72c-.36,9-.48,20-.48,33.12L20.88,311c0,9.24-.36,16-1.08,20.28v43.8A164.1,164.1,0,0,0,19,391.56V403.2c0,3.36-1.32,20.28-3.84,50.76L10,514V587l-.6,2.76A5.94,5.94,0,0,1,6,593a25.94,25.94,0,0,1-1.56-3.36,16.63,16.63,0,0,1-.36-3.6,21.49,21.49,0,0,1,1.08-6.84V507.72c4.92-52.92,7.32-84.36,7.32-94.56,0-1.56.24-7.2.72-17.16.6-10.8,1.2-19.56,1.68-26.28v-43.8c.72-3.24,1.08-8.28,1.08-15L13.8,247.56c0-8.28.36-20.28,1-36.24a10.27,10.27,0,0,1-1-4.8,6,6,0,0,1,1.32-3.84C16.2,179,17.76,148.32,20,110.28Q24.54,34.86,26.52,10C25,8.88,24.12,7.8,24.12,6.6c0-2.4,1-3.84,3-4.2L27.36.24l.72,2a19.62,19.62,0,0,1,7.68,1.56C37.8,4.56,47,9,63.6,17,70.68,21.72,76.2,26.88,80,32.4c2.16,3,4.92,8.52,8.4,16.32C92.16,57.12,94.8,67.32,96.12,79.2Zm45-56.16C130,20.16,122.4,18.12,118.2,16.92l-2.76-1-1.8,7.56V86a94.76,94.76,0,0,0-2.52,14.52l-1.8,14.76v16l1.32-.36L126.72,126c16.8-5.64,28.08-12.72,34-21.24,5.4-7.92,9.12-14.16,10.92-18.6a49.42,49.42,0,0,0,2.88-17.64C174.48,55.2,171,44.76,164,37,158.88,31.08,151.2,26.4,141.12,23ZM294.36,208.8V212l-2.64,17.16L290,239.88,292.2,241c11.76-.48,20.64-2.4,26.52-5.64,4.68-2.64,7.08-5.76,7.08-9.48,0-4-2.4-7.56-7.32-11-5.88-4.2-13.32-5.88-22.2-4.92l-.48-.36v-1.68a12.44,12.44,0,0,1,.12-2.4l.12-.24c13.32-.12,22.32,2.16,27.24,7,3.12,3.12,4.68,7.68,4.68,13.8,0,4.68-1.92,9.24-5.88,13.44-5.16,5.52-12.6,8.28-22.2,8.28L291,247.2c2.28,8,4,15,5.28,21.12a149.61,149.61,0,0,1,3.6,24.36v.24c6.84-5.76,13.92-13.44,21.36-22.92l18.12-24.48q1.8,8.1,3.24,24.84c1.2,12.84,2.16,21.6,3,26.28v4.92l-.48.48-1,.84c-4.92-17-6.84-32-5.64-45.12q-7.38,5.94-18.36,20.16C312.36,288,306,295.2,301,299.64l-3-.24c.36-5.88-.48-13.32-2.52-22.44l-5.88-23A249.13,249.13,0,0,1,275,274.8a117.11,117.11,0,0,1-17.64,18.36l-.6-.48v-1.92c0-.6,4.44-6.72,13.2-18.48l16.92-22.56-.72-.84a5.4,5.4,0,0,1-.48-2.76l.24-2,.24-1.44L289,226.8l3.84-20.52h.84Zm-7.2-55.32-.36.48-1.68-1.2a4,4,0,0,0-2.64-1c-8.52,0-14.76,3.6-19,10.8a25.54,25.54,0,0,0-3.72,12.6c0,4.08,2.28,8.52,6.72,13.32,6,6.24,13.8,9.36,23.52,9.36l15.48-.48a35.38,35.38,0,0,0,9.6-9.84c2-3.24,3.12-6.24,3.12-9.12,0-4.68-4-10.08-12-16.32-7.2-5.64-13.8-9.36-19.92-11.16A4.23,4.23,0,0,0,287.16,153.48Zm1.8-8.64a51.22,51.22,0,0,1,21.6,13.8c6.6,6.84,9.84,13.32,9.84,19.68a27.13,27.13,0,0,1-2.76,12.6c-2.16,4-6.24,8.4-12.36,13.44H294.36c-14.76-.24-25.08-4.2-31.2-12a26.31,26.31,0,0,1-5.52-16.92c0-13.8,3.24-23.28,9.72-28.32C273,142.92,280.2,142.08,289,144.84ZM176.16,84A93.94,93.94,0,0,1,167,108c-7.2,12.72-16.56,21.6-28.08,26.76,2.88,9.84,6.48,20.64,10.68,32.28,2.64,7.08,8.28,21.6,16.8,43.56,2.28,6.12,9.6,22.32,21.72,48.48,10.92,23.64,16.44,36,16.44,37.08a11.55,11.55,0,0,1-2.16,7.08c-11.88-24.84-23.52-50.4-34.92-76.92q-28.26-65.7-33.12-89.76a66.71,66.71,0,0,1-21.84,3.36l-3.24-.12v38.76c-1.8,7.56-3.12,18.12-3.84,31.92-.72,16.2-1.56,27.24-2.4,32.88-.6,4.32-1.44,15-2.28,32-.72,13.68-2.16,24.6-4.44,32.64-.84-.6-1.8-2.76-3-6.48-1.32-3.48-1.92-5.88-1.92-7.08l.6-6.84.48-8.52.84-.24.36,6.12c.12,2.4.24,4.44.48,6l.48.24c1.8-37.8,5.16-76.92,10.32-117.24V138.84l-.6-1.44a7.75,7.75,0,0,1-.48-3.12c0-.36.36-.72,1.08-1.2v-21.6l1.32-15.36c.48-6.36,1.44-11.16,3-14.64V19l.6-6.24a5.58,5.58,0,0,1-2.28-4.32c0-1.32,1.08-1.92,3.24-2a7.4,7.4,0,0,1,2.76-4.2A9.07,9.07,0,0,1,115.8,5l.72,2.16C121,8,127,10,134.64,12.84q11,4.14,20.16,8.64c6.48,3.24,10.68,5.88,12.48,7.8,3.72,4.32,6.48,10.8,8.52,19.32A87.81,87.81,0,0,1,178.32,69,68.75,68.75,0,0,1,176.16,84Zm50.28-69.6V25.32l-.6,13.08-1.2,19v43.08a316.07,316.07,0,0,0-3,33.72c-.12,4.68-.24,15.24-.24,31.8a278.2,278.2,0,0,0,1.08,28.44v43.8c.72,4.32,1.08,11,1.08,20.28l-.72,13.44c-.48,8-1,14.76-1.44,19.92v47.88l-8.76,91V479.4l-5,54.72L206,548.4a7.51,7.51,0,0,0-4.68-.48l-1.32.36c1.08-8.52,2.16-18,3.24-28.56l4-46.56V425.28L216,335.16V286.44c.48-4.08,1-9.48,1.44-16.32l.72-11.64q0-10.26-1.08-15.12v-43.8c-.72-7.08-1.08-18-1.08-32.88,0-11.28.6-23.52,1.68-36.72,1.08-12.72,1.68-27.84,1.56-45.48-.24-34.92,1.44-62.16,5-81.48A39.13,39.13,0,0,1,226.44,14.4Zm100.92,37c1.32.84,2.16,2.52,2.52,5.16L329,58.68l-3.24-2.16A15.34,15.34,0,0,0,318.48,55l-8.4.24-1.08.48c-.36.24-.48.84-.48,1.92q0,.9,4.68,4.68l10.44,8.28c10.08,8.52,15.12,15.6,15.12,21,0,2.28-1.08,4.56-3.24,6.72q-4.32,4.32-11.88,4.32c-11.16,0-20-2.4-26.88-7.32-5.28-3.72-8-7.68-8.28-11.64l.72-.48,1.2-.6c.36,1,3.72,3.48,10.08,7.44,6.84,4.2,11.28,6.36,13.44,6.36,7.68,0,13.56-.84,17.52-2.4q4.32-1.62,4.32-3.6c0-1.32-1.56-3.48-4.56-6.24L321.12,75.6c-9.84-8.28-14.76-14.4-14.76-18.48a19.84,19.84,0,0,1,.24-3.48,14.28,14.28,0,0,1,3-4.44C319.32,49.2,325.32,49.92,327.36,51.36ZM309.6,11l-7.44-.24-7.8-.84L276.6,9.48l-.48-.72A9.2,9.2,0,0,1,276,6.6a9.4,9.4,0,0,1,.24-2.52,2.68,2.68,0,0,1,.84-.84l18.36.84,15.24,1.08,16.44.48c2.76,2,4.08,3.6,4.08,4.8,0,1.8-6.84,6.84-20.4,15.24L287.88,39.24l54.48.84.72.84a5.17,5.17,0,0,1,.36,2.4,4.91,4.91,0,0,1-.36,2.28l-.72,1-33.6.48c-22.32.36-33.6.6-33.84.84l-2.16-.24a22.21,22.21,0,0,1-.24-3.72c0-2.16,6.84-7.32,20.64-15.48l27.72-16.32-5.4-.24ZM414.12,197c5.28-1.08,10.92-.36,17,2A41.69,41.69,0,0,1,445,207.6c3.72,3.48,5.64,6.48,5.64,9l-.6,16.2-.84,1.32a54.25,54.25,0,0,0-4.08-15.6c-4.2-9.48-10.32-14.16-18.36-14.16q-36.18,0-55,67.8A388.4,388.4,0,0,0,362.28,320c-1.2,8.88-2.16,16.92-2.88,24.24a180.73,180.73,0,0,0-3.24,19l63-.84,1.68-.72,1.56-.36,1.2,2.28a8.13,8.13,0,0,1,.48,3.12,7.92,7.92,0,0,1-.72,3.24,4.59,4.59,0,0,1-3.36,2.76l-64.92-.24H355c-1.32,10.2-2.64,22.8-4,37.56q-4.86,50.76-4.92,75.48a145.94,145.94,0,0,0,2.4,24.24c1.56,9.48,3.48,17.4,6,23.76a52.23,52.23,0,0,0,7,11.64,112.33,112.33,0,0,0,12.72,14.64c12.12,11.64,23.52,17.52,34,17.52,1.32,0,4.56-2,9.72-6a82.28,82.28,0,0,0,9.12-7.56,9.88,9.88,0,0,1,3,2.88,4.78,4.78,0,0,1,.84,2.4c0,3-2.28,7-6.72,11.76C418.92,586.2,414,589,409.2,589c-11.4,0-23.76-7-37.32-20.76a121.91,121.91,0,0,1-13.68-16.68q-5.58-7.92-7.2-12.6a131.39,131.39,0,0,1-6.48-26.28,182.27,182.27,0,0,1-2.16-26.88c0-22.92,1.56-49.8,4.8-80.88,1.2-11.76,2.52-23.64,4.08-35.52V367.8a9,9,0,0,1,.24-2.4l.36-.48c1.68-12.48,3.6-25.08,5.64-37.92,2.28-17.16,4.32-30.24,5.88-39.24q4.5-23.4,12.24-40.32a244,244,0,0,1,22.68-39.72C402.48,201.84,407.76,198.24,414.12,197Zm-47.4-32.64c0-3.24-1.92-6.24-5.76-8.88-4.08-2.76-9.36-3.84-15.84-3.12l.12,3.6c0,2-1.32,7-4,15h.24l9.12-.24-.72-1.68a11.56,11.56,0,0,1,4.44,1.32,31.79,31.79,0,0,0,9.12-2.4Q366.72,166.38,366.72,164.4Zm1.08-4.8a14.23,14.23,0,0,1,1.32,5c0,1.8-1,4.2-3,7a13.21,13.21,0,0,1-4.08,4.08l5.88,5.64a98.82,98.82,0,0,1,14.16,18.48l-.48.48-.6.84a172.84,172.84,0,0,1-19.44-16.32,72.68,72.68,0,0,1-6.72-7.56l-15.24-1.08-10.32,28h-1.8l-.6-.72a5.94,5.94,0,0,1-.24-2l8-21.48,1.56-4.56-2-.84c-2-1.08-2.76-2.52-1.92-4.56l3.84.36,1.68.36c2.76-8.52,4.32-14.4,4.68-17.88l-1.8.36a30.06,30.06,0,0,1-.48-4.8q14.58-4.14,23,4.32A22.57,22.57,0,0,1,367.8,159.6ZM457.56,19.92l-.12,2.52-.36,1.08a92.68,92.68,0,0,0-7.8-7.68c-5.4-4.68-9.6-7-12.84-7q-42.12,0-59.76,43.32c-1.68,4.2-3.12,8.52-4.44,12.72l6.84-.24,49.8-1.92.84,1.08a12.73,12.73,0,0,1,.24,2.52l-.24,3.72-19.92.72-19.08.6-20.16-.12a138.92,138.92,0,0,0-3.36,27.6,61.38,61.38,0,0,0,5.16,24c5.88,14.28,15.48,21.36,28.68,21.36,15.84,0,27.72-2.28,35.64-6.72,9-5,15.72-14.28,20.4-27.6l2.16-.6c.72.12,1.08.84,1.08,1.92s-.6,3.36-1.92,7.08a68.14,68.14,0,0,1-6.48,14C443.88,145.44,433.2,152,420,152q-38.34,0-50.52-25.44a51.21,51.21,0,0,1-4.92-18V99.36A125,125,0,0,1,367.2,76.8l1.2-5.88-.12-.36a10.5,10.5,0,0,1-.24-2.4,2.65,2.65,0,0,1,1.68-2.64,142.3,142.3,0,0,1,8-23.52Q397.92-3.36,437.52,2.4a111.48,111.48,0,0,0,12.72,8.52C455.16,14.28,457.56,17.28,457.56,19.92Zm115.08,85.92a58.52,58.52,0,0,1,8.76,14.4c1.8,4.32,2.64,7.68,2.64,10,0,3.48-1.2,5.64-3.48,6.72l-2.16-8.16a46.36,46.36,0,0,0-4.92-11.28q-9.18-14.4-29.52-14.4c-19.56,0-32.76,7.56-39.84,22.56-3.24,7-4.8,15.36-4.8,25.08,0,14.76,5,30.72,15.24,48.12,3.36,5.76,8.52,13.8,15.6,24.12L548,249.72q22.32,34.92,33.48,68.88,15.3,45.9,15.24,101.88c0,14.28-2,31-6.24,50a321,321,0,0,1-17.28,55.08q-11.7,28.26-25.56,44.64c-10.32,12.36-20.76,18.48-31.32,18.48-32.28,0-55.08-6.48-68.16-19.44-14.52-14.4-19.32-38.52-14.16-72.36l-4.92,4.32c.36-.6,1-1.56,1.68-2.76a20.56,20.56,0,0,1,3.24-3.72,9.4,9.4,0,0,1,2.28,5.28l.72,6.12c3.48-1.44,5.16,1,5.16,7.2L441.12,522c-.72,4.92-1.08,7.92-1.08,8.76a32.38,32.38,0,0,0,1.32,7.44,46.67,46.67,0,0,0,7.08,14.52q14.94,20.52,49,20.52c32.28,0,57.48-22.44,75.36-67.32a267.6,267.6,0,0,0,14.52-51.48c2.76-14.4,4.08-25.8,4.08-34.2q0-54-15.12-97.2-10.8-30.6-33.36-64.56l-17.76-25.92a291.75,291.75,0,0,1-15.6-25.08c-10.08-18.72-15.12-37.56-15.12-56.64q0-11.34.36-15.84a56.7,56.7,0,0,1,3.84-16.8c5.28-12.84,16.56-22.32,34-28.32C549,88.08,562.32,93.48,572.64,105.84Z" transform="translate(-4.08 -0.24)"/></g></svg>