<svg id="Layer_1" data-name="Layer 1" xmlns="http://www.w3.org/2000/svg" viewBox="0 0 310.93 213.86"><defs><style>.cls-1{fill-rule:evenodd;}</style></defs><path class="cls-1" d="M192.72,267.48q-9.9,23.76-35.64,16.56c-.12-25.92-.72-51.6-1.56-77,8-4.92,15.6-3.84,22.8,3.48a64.34,64.34,0,0,1,15.24,24.72A43.51,43.51,0,0,1,192.72,267.48Zm74.88,8-7.8,1.32,7.56-18.72Zm.24-25.32c-8.16,13.44-15.84,27.36-23.16,41.88a37.31,37.31,0,0,0-2.76,26.4l13.32-30.6,13.2-2.88q1.62,14.58,4.68,29.16c1.2,5.4,3,8,5.28,8L269.52,253l.36-3.36L268,248.4ZM153.36,208.56a598.56,598.56,0,0,0-3.48,61.56q-.54,64.8.36,128.16c1.44,1,2.28.72,2.4-.84A674.59,674.59,0,0,0,157.2,322V300.48l13.8,2.28q27.36-6.66,30.6-35.28a110.21,110.21,0,0,0-2.16-37.68q-6.84-29.7-33.84-39a18.82,18.82,0,0,0-9.36,4l-1.08,1L155,193.8l-.24,2.28c-3.72,3.72-4.2,7.92-1.68,12.6Zm126.84-.72c9.12,2.88,15.48,8.4,19,16.44l12.48,28.8q18.9,44.46,2.52,88.92-16.38,44.28-65.52,34.32-27.54-13.86-33-43a141.83,141.83,0,0,1-1.32-43.92Q221,236,264.36,207A30.81,30.81,0,0,1,280.2,207.84Zm-16.2-16C241.8,204,226.44,222.36,217.68,247a241.21,241.21,0,0,0-12.36,57.84c-3.24,37.32,9.84,66.6,39.48,87.84a65.42,65.42,0,0,0,19.8,4.08A39.23,39.23,0,0,0,285.24,392c27.48-15,42.24-38.64,44-70.8a103.74,103.74,0,0,0-.72-19.32A375.29,375.29,0,0,0,301.44,201a40.74,40.74,0,0,0-8.64-5.28,12.41,12.41,0,0,0-5.52-.84l-1.56,1.56-.6.84-8.28-3.72a13.5,13.5,0,0,1-2.52-1.44Zm194.64,2.76q-4.14,39.42-4.68,79.44l-.12,4.8-9-.48c-17.16,1.56-34.44,3.72-51.84,6.24l1.92-26.76q2.52-32.94,2.52-64.08a380.73,380.73,0,0,0-11.88,79Q382.5,337,382.8,400.2q9.9-3.6,5.76-13.32V386q.9-45,3.6-89.64a407,407,0,0,0,61.44-3.72l-1.44,109.68q.54,2.88,3.24,2.16c2.76-27,4.32-54.24,4.8-82q1.08-64.8-.72-128.28C458.88,194.4,458.64,194.52,458.64,194.64Zm-90.84,1.92-2-.12c-24.84,16.68-31.08,38.4-19,65.16,4.56,10.2,8.76,20.64,12.48,31.32a102.29,102.29,0,0,1,3.36,56.28,27.28,27.28,0,0,1-9.6,15.48,61.68,61.68,0,0,1-30.48,13.56,15.76,15.76,0,0,0,.48,14.64c23.64.6,39.12-10.56,46.2-33.24a103.62,103.62,0,0,0,4.08-42.48,70.46,70.46,0,0,0-10-28.92,175.6,175.6,0,0,1-13.2-27Q336.48,225.6,368,211.68A16.52,16.52,0,0,1,379.8,211l.24-.48C381,201.6,376.92,196.92,367.8,196.56Z" transform="translate(-149.68 -190.8)"/></svg>