<svg id="Layer_1" data-name="Layer 1" xmlns="http://www.w3.org/2000/svg" viewBox="0 0 311.88 207.48"><defs><style>.cls-1{fill-rule:evenodd;}</style></defs><path class="cls-1" d="M159.36,256.32c.48-16.44.48-32.4,0-48,18.6-1.92,32.52,5.28,41.52,21.72a29.64,29.64,0,0,1,3.24,18.12c-3.84,26.76-19.08,39.84-45.6,39.48Zm-.48-59.16-.36-5c-3.84,3.12-5.88,7.68-6.12,13.8q-2.16,64.26-2.64,129a240.56,240.56,0,0,1-2.52,32.28q-2.7,17.82,3.24,32.4a22.83,22.83,0,0,0,4.92-14.28l2.64-81,8.64-.24a23.06,23.06,0,0,0,9.6-2.28q45.54-22.86,31.92-71.4c-6.36-22.68-21-34.2-43.68-34.8l-1.08.36Zm140.88,14.52q2.34,1.8,2.16,4c1.2-.6,2.28-.36,3.24,1q38,55.44,19.68,121.92c-6.12,22.2-20.64,34.68-43.56,37.68a48.15,48.15,0,0,1-20.76-1.68q-29.7-9.18-32-41.52a217.63,217.63,0,0,1,10.08-83.28Q250.8,212.1,289,208.08A15.15,15.15,0,0,1,299.76,211.68Zm-21.6-17.4a34.9,34.9,0,0,0-24.36,15.48q-36.18,53.1-34.8,118.68.72,32.4,23,55.68c14,14.52,31.56,17.28,52.68,8.52a55.16,55.16,0,0,0,23.52-18,96.15,96.15,0,0,0,19.32-45.12q9.54-63.36-19.08-119.64c-3.72-7.32-8.64-9.72-14.64-7.2l-.6-.24C297,195.12,288.6,192.36,278.16,194.28ZM355.32,198a126.89,126.89,0,0,0,3.36,22.32Q373.8,282.42,387.36,345a156.33,156.33,0,0,1,3.6,31.68c.12,9.84,3,16.8,8.64,21q20.7-53.1,36-108.12,8.82-31.32,19.92-61.8c4.2-11.88,3.6-22-1.8-30.48l-.6.84-3.48,7.32c-2.76,14.16-6.12,28.32-10,42.36q-17.1,62.64-40.08,122.28Q389.52,313,377.52,256.2a284.84,284.84,0,0,0-20.16-61.32C355.92,195.12,355.2,196.2,355.32,198Z" transform="translate(-146.4 -192.12)"/></svg>