<svg id="Layer_1" data-name="Layer 1" xmlns="http://www.w3.org/2000/svg" xmlns:xlink="http://www.w3.org/1999/xlink" viewBox="0 0 675.33 532.69"><defs><style>.cls-1{fill:none;}.cls-2{clip-path:url(#clip-path);}.cls-3{fill-rule:evenodd;}</style><clipPath id="clip-path" transform="translate(101.04 -34.07)"><rect class="cls-1" y="33.12" width="574.8" height="533.76"/></clipPath></defs><g class="cls-2"><path class="cls-3" d="M-99.72,174.48l-.12.36c-1.92,2.4-1.56,4.32,1.2,5.76l.36-.36Q-96.3,176.1-99.72,174.48ZM124.56,424.32c-3.84,13.32-11.76,22.2-23.88,26.4a41,41,0,0,1-21.6,1.68L81.6,385c12.36-3.72,23.4-1.56,33.24,6.48C125.28,399.84,128.52,410.76,124.56,424.32Zm-45.12-42.6v1a7.59,7.59,0,0,0-1.32,4.2q-2.7,51.66-7.56,103.32a232.91,232.91,0,0,1-4.08,26.16c-2,10-1.32,18.48,2.16,25.32,3.6-18.84,6.24-38,8-57.48l1.8-21.72,11.52.84a38.17,38.17,0,0,0,12.84-3.24,71,71,0,0,0,7,18.12A137.14,137.14,0,0,1,121.92,507a286,286,0,0,0,18.36,47c2.28-2.28,3-5,1.92-8.52a569.79,569.79,0,0,0-36.48-87,47.41,47.41,0,0,0,5.64-4q20-16.92,18.72-43.2C129,387.72,116,376,91,376.2l-.48.12-9.36,2.88a1.86,1.86,0,0,0-1.44,1.2l-.12.72ZM51.84,39.24V40a3.85,3.85,0,0,0-.24,2L52,43.08q-3.06,38.7-3.12,79.56c.12,34.68,0,69.24-.36,103.92q-.54,52.74,0,105.24c.36,35.4-1,70.44-4.08,105.36-3,34.68-4.32,69.6-3.84,104.52a2.31,2.31,0,0,0,1.8,1.8,3.4,3.4,0,0,0,1.92-3.12c1.2-27.72,2.76-55.56,4.8-83.28q3.6-51.66,4.08-104,.36-41.76.24-83.52A21.74,21.74,0,0,0,67.92,282c23,7.08,44.4,4.56,64.08-7.32a174.33,174.33,0,0,0,44.16-38.16A128.35,128.35,0,0,0,205.8,170q7.38-56-31.32-95.76c-26-26.64-57.36-39.84-94.2-39.6C70,33.12,60.6,34.56,52.32,39V37.92l-.12,1.2Zm149.64,122c-4.2,34-19.44,62.64-45.72,86.28a116.34,116.34,0,0,1-25.68,17.64q-41,21.06-76.2-3.48l-.6,1-.12-14.88c-.24-35.16-.12-70.32.36-105.24q.72-49.5-1-97.92l2.16.24.36-.12.36-.36.84-.48,5.52-.48Q121.92,35.7,166,75.6a116.58,116.58,0,0,1,29,40.08A86.94,86.94,0,0,1,201.48,161.28Zm287.4,80.28q50.58-11.16,85.2,23a9.43,9.43,0,0,0-2.16-8.28q-26.28-29.7-68-28-42.3,11.88-55.92,54.48a268.32,268.32,0,0,0-12.6,78.36,511.38,511.38,0,0,0,6.84,91.92,89.15,89.15,0,0,0,22.44,46.68q36.36,40.5,84.72,14.76a85.21,85.21,0,0,0,20.4-28.92c2.4-5.64,2-10.68-1-15.24l-.72.36a4.53,4.53,0,0,0-1.56,3.84A10.84,10.84,0,0,0,567,478v.6l-.72,2a71.57,71.57,0,0,1-13.44,17.64,32,32,0,0,0-4.56,5.4,22.76,22.76,0,0,0-4.56,2c-18.84,10.8-37.44,11.16-55.56,1.08q-38.88-21.42-44.4-65.16a500.23,500.23,0,0,1-3.84-69.6l2.88-.72c30.36-11.52,61.2-16.92,92.28-16.08l.6-2.64a11.22,11.22,0,0,0-.48-5.28l-.36-.6-.72-.48a97.29,97.29,0,0,0-20.52-1.08c-6.6.84-13.44,2-20.28,3.48A372.36,372.36,0,0,0,440,363.84c.24-7,.6-13.92,1.08-21a259.56,259.56,0,0,1,7.32-45.72Q457.44,261.3,488.88,241.56ZM427.56,69.84q1.62,21.42,1.8,42.84c.24,34.68,0,69.24-.6,103.92L427,321.24q-1.08,52.56-2.76,105.24a352,352,0,0,1-5.88,52.8,479.9,479.9,0,0,0-8.4,78.24l19,.36,49.2,2.16,87.48,6.72c2.28-3.36,2.4-6.84.36-10.56a233.62,233.62,0,0,1-38.64-3.48,495,495,0,0,0-112.68-6.84c3-22.2,5.88-44.28,8.4-66.36,4-34.44,6.6-69,8.16-103.8s2.16-69.6,2-104.52.24-70.08.84-105.24A915.85,915.85,0,0,0,430,61.32,11.65,11.65,0,0,0,427.56,69.84ZM363,97.32l.24.6.12.72a24.66,24.66,0,0,1,5.88,8.52l2.76,6.72.6.48.36.48.6.12.36.12.24.48,3.12,9.24c3.24,9.12,6.6,18,10.32,26.64a285.25,285.25,0,0,1,22.56,103.8A919.87,919.87,0,0,1,407,359.76q-2.88,33.12-8.76,65.88a282.54,282.54,0,0,1-39.72,101.52c-9,14.28-21.84,22.08-38.76,23.4q-31.14,2.7-56.16-16.8c-2.76-2.88-5.4-5.88-7.8-8.88q-32.58-41.94-34.08-95.76-1.44-52.2-2.52-104.52-1.08-52.74-1.32-105.36A486.58,486.58,0,0,1,228.6,115.8c6.48-30.12,24.24-49.68,53.4-58.92Q331.68,59,362.76,96.6Zm.72-9c-20.52-24.84-47.4-38.4-80.4-40.68-30.36,9.24-49.08,29.4-56.4,60.6a462.84,462.84,0,0,0-12.24,104.64q-.36,52.2.6,104.64l1.8,103.92a232.7,232.7,0,0,0,16,80.28,100,100,0,0,0,43.08,51.12A62.13,62.13,0,0,0,319.68,561q39.78-6.84,55.44-44.88a416.11,416.11,0,0,0,17.28-50.88,650.6,650.6,0,0,0,19.44-103.08q4.14-38.52,4.8-78a335.67,335.67,0,0,0-10-87c-4.2-16.44-8.88-32.88-14.28-49.08q-8.82-26.82-20-52.56a1.09,1.09,0,0,0-.84-.36,1.24,1.24,0,0,0-1,.48l-.48.6-.36.6-.24.48-.36-.84a7.44,7.44,0,0,0-2-2.64,4,4,0,0,1-1.44-2l-.84-2-.24-.6Zm104-25q-1.62,65.16-2.4,132c-.12,9,.12,17.64.84,26.16l2.16-.84,93.84,2.64.12-8.64-93.72-4.8L471.12,89.4Z" transform="translate(101.04 -34.07)"/></g></svg>