<svg id="Layer_1" data-name="Layer 1" xmlns="http://www.w3.org/2000/svg" viewBox="0 0 585.84 593.83"><defs><style>.cls-1{fill-rule:evenodd;}</style></defs><path class="cls-1" d="M363.6,439.08l.12,7.8-.6,30.6a30.27,30.27,0,0,1-.84,5.52L361,489.6l-.84.24a53.48,53.48,0,0,1-.72-10.44q1.08-37.62,1.08-44.28a7,7,0,0,1,.36-2.52l.72-.6C362.64,433.32,363.24,435.6,363.6,439.08Zm83.28-4.56.12,2.64c0,1.68-3.6,10.32-10.68,26C429,479,425.16,488.88,424.8,492.84l-.72.36c-1.8-6.24-5-14.4-9.72-24.6C408.6,456,405,448,403.68,444.48c-1.44,9.72-4.92,23.64-10.44,41.88h-1.92a7.77,7.77,0,0,1-.24-2.76q0-4.5,5.4-25.2c4-15,6.12-23.76,6.48-26.16H404a415.42,415.42,0,0,0,19,48.48c1.68-3,5.16-10.8,10.56-23.4,4.44-10.2,8.76-18,13.2-23.4Zm-375.6,112,.12,5a43.79,43.79,0,0,1-1.68,8.88c7.56.48,13.44,0,17.52-1.44,3.36-1.32,5-3.12,5-5.28,0-.36-1.2-1.92-3.48-4.44l-4.08-4.08-9.24.48Zm-1.08-3.6a5,5,0,0,1,3.36-2.28,14.47,14.47,0,0,1,8.28.6,21.18,21.18,0,0,1,8.28,4.44c2.52,2.28,3.72,4.8,3.72,7.44a14.34,14.34,0,0,1-2.64,8.52L90,563.16a38.9,38.9,0,0,1,9.36,6.48,119.27,119.27,0,0,1,14.28,15.48,5.9,5.9,0,0,1-.36,2.4l-.48.84a41.11,41.11,0,0,1-7.8-6.12l-6.48-6.84c-5.16-5.16-10.56-7.92-16-8.16l.24-.72h-.48l-11.16-.36A9.17,9.17,0,0,1,69,563l-2.52,8c-3,9.12-4.92,14.52-5.88,16.2a3.87,3.87,0,0,1-1-1.56,11.82,11.82,0,0,1-.12-2.52q0-3.78,4.68-19.44c3.36-11.4,5.28-18.36,5.64-20.88Zm25.2-8.76A5.42,5.42,0,0,0,94.2,537q-17.1-.54-22.32-.36a56.08,56.08,0,0,0-15.84,3,8,8,0,0,1-.72-2.4L55.2,534,58,487a3.24,3.24,0,0,1,.6-2.28l1.2-.48,1.32,11.64.6,8.64-1.56,13.2c-1.08,7.92-1.68,12.48-1.68,13.68L79,529.92c10.8,0,16.56.6,17.16,1.92C96.36,532.2,96.12,533,95.4,534.12ZM343.08,541a3.15,3.15,0,0,1,2.64-3.36L362,535.08l.6-.48,20.76.24.48.84a5.9,5.9,0,0,1,.36,2.4,4.91,4.91,0,0,1-.36,2.28l-.72.72-10.56.24-11,.84-8,.48L347.4,544l-.6-.24,1.68,10.2.48,5a11.49,11.49,0,0,1,4.2-1.32L387,553.8l.24,1.08.24,2.52a8.81,8.81,0,0,1-.24,2.88l-7.92.48-8,.84A122,122,0,0,0,357,564l-7.44,1.92v2.4c0,10-.24,17.28-.72,22.2h-2.52q1.08-7.38,1.08-23v-12.6a14.42,14.42,0,0,0-1.92-6.72c-1.32-2.52-2-4.08-2-4.68l.12-1.68C343.2,541.44,343.08,541.2,343.08,541ZM71.16,384.36a26.68,26.68,0,0,0-15.6-3.48L55.8,383c0,3-.6,9.12-1.92,18.48L62,402l.24-.84H63l.84.72a29.08,29.08,0,0,0,7.56-1.68c5.28-2,7.92-4.44,7.92-7.32q0-1.62-2.16-4A21.4,21.4,0,0,0,71.16,384.36Zm9.72,8.16c0,4.08-.48,6.72-1.32,7.8-1.2,1.56-4.8,3.72-10.8,6.24l9,9.48A213.86,213.86,0,0,1,92,433.56l-.6.48-.84.6q-2.34-2-15.48-15.84L64.32,407H53L49,433.32H47.88a39.15,39.15,0,0,1-.24-4.44c0-4.92.72-12.36,2.28-22.56l-1.68-1.08a5.44,5.44,0,0,1-.36-2.52L48,400.8l.12-.48,2.64.6c1.32-8.76,2.16-15.36,2.64-19.8l-2.76.48-.48-.24L50,379.68c0-1.2.24-1.92.6-2.16l1.8-.72c11.64,0,19.68,1.68,24,5C79.44,384.24,80.88,387.84,80.88,392.52Zm-37.56-108a138.28,138.28,0,0,1-1.2,16.2l-2,16L66.6,315.6c9,0,15.12.12,18.6.36l.24.48.12,2.76-.36,3.24L39,324.6l-1.8-1.92-.36-.84c0-2.76.6-8.64,1.8-17.76a221.76,221.76,0,0,0,1.68-26A6.48,6.48,0,0,1,41,274.8q.72-1.26,1.44-1.44C43.08,275.4,43.32,279.12,43.32,284.52Zm49.2-56.64-7,1-3.36.84.12,1.8a56.43,56.43,0,0,1-.6,7.56l7.44.36a19.67,19.67,0,0,0,12.36-4.2l-3-4.32A8.28,8.28,0,0,0,92.52,227.88Zm12.24,7.68c0,1.56-1.2,3.48-3.48,5.76-2.64,2.52-5.4,3.84-8.16,3.84h-1a87.32,87.32,0,0,1,6.48,8.4c5.64,8,8.52,13.44,8.52,16.2v2.4l-.6.84-.48.6c-10.92-15.24-17.52-24.84-19.68-28.92l-1.56-.24-4-.6-2.4,9-6.72,21-.36.24a2.23,2.23,0,0,1-1.56-.84,4.47,4.47,0,0,1-.6-2.64c0-4.92,1.68-13.2,5.16-24.72,1.92-6.36,3.6-11.52,4.92-15.36l-.72-.24c-.24-.12-.36-.84-.36-2,0-1.92,1.32-3.24,4.08-4a19.41,19.41,0,0,1,9.12,0,23.61,23.61,0,0,1,9.12,4C103.32,230.28,104.76,232.8,104.76,235.56ZM118,86.28c2.88,9.84,4.32,18.36,4.32,25.44,0,6.84-1.68,19.8-4.92,38.76Q112.68,178,110.16,184c-1.32,3.24-4.56,7.92-9.48,14a178.45,178.45,0,0,1-19.8,20.64Q50.28,245.46,22.2,245.4l-4-.12c-.24,18.12-1,42.48-2,72.84q-2.34,59.94-1.8,91.44v69a275.23,275.23,0,0,0-.6,27.6L14.52,534c.24,22.56-2,41.16-6.72,55.8-1.44-.36-2.76-3-4.08-7.68a36.26,36.26,0,0,1-1.8-9.36,18.91,18.91,0,0,1,.36-3.36l.48-3.24.72-.24a23.56,23.56,0,0,0,2.76,8.64c1.32-6.48,1.8-18.36,1.68-35.64l-.6-25.44L8,497.76c.48-9.72,1-17.52,1.44-23.28V409.56l.36-20.76c.12-7.92.48-14.76,1-20.64v-41.4q4.32-46.26,3.6-81.84A10.24,10.24,0,0,1,13,241.8a11.37,11.37,0,0,1-.48-3.6A10.51,10.51,0,0,1,14,232.32v-56.4c.36-2.76.72-7.08,1.08-12.72q.54-8.82,1.08-13.32V101.16c-.48-15.84-.12-32.16,1-49,1-12.12,2.28-23.52,3.84-34.08l-2.28-.24-1-2L17.64,13a13.58,13.58,0,0,1,.24-2.76l1.08-2,3.72.12.36-2,.36,2C57.6,10,83.76,24.6,102.12,52.08A124,124,0,0,1,118,86.28ZM98.76,61.92A108.26,108.26,0,0,0,89.4,49.56l-10.68-12C73.08,31.2,63.12,26.64,48.6,23.64L34,21c-4.56-.84-7.32-1.68-8.28-2.64l-1.44-.12.12,8.64-2,35.88C21,84.48,20.4,97.2,20.52,101.16V154c-.36,2.76-.72,7.08-1.08,12.72Q18.9,175.5,18.36,180v50.64c39-3.36,67-20.4,83.64-51Q118,150.3,118,111c0-10-1.2-17.64-3.6-23.16C113.28,85.32,108,76.68,98.76,61.92ZM203.4,30.36a172.9,172.9,0,0,0-31.2,19.32q-13.14,10.62-15.84,18a252.75,252.75,0,0,0-16.32,33c-4.68,11.64-7.8,22.56-9.12,32.76-1,7.32-1.8,18.24-2.64,32.76-.84,14.88-1.56,25.92-2.4,33q-.54,3.42-1.44,31.68-.72,26.46-.72,33.84l.12,21.6c.12,14.52.48,25.8,1,33.6v44.64c.72,8.52,1.44,26.16,2,52.92.6,22.44,1.8,40.08,3.84,52.68,2,12.12,3.6,20.76,4.68,26a132.05,132.05,0,0,0,8.88,26.52c9.48,19.8,25.2,36,47.4,48.6l31.32-.24q42.48-10.62,71.4-73.32a355.91,355.91,0,0,0,16.92-46l7.44-28q3.78-13.5,8.4-69.48c3.12-36.36,4.68-62.76,4.68-79.44q0-20.34-2.28-72c-1.32-33.24-2.4-53.16-3.12-59.76Q312.18,26.7,277.68,17c-10.2-2.88-22.32-2.88-36.36.12A162.66,162.66,0,0,0,203.4,30.36ZM315.6,50.88c1.56,8.52,2.88,14.16,4,17,3.24,8.76,5.88,20.28,7.92,34.32l4.32,34.68c1.08,7.44,2.16,28.44,3.48,63.12q2,50,1.92,74.76,0,24.3-5.28,83.52-4.68,54.9-7.68,73.08c-2.64,15.72-8,33.12-16.08,52a325.91,325.91,0,0,1-27.36,51.12c-10.56,16.2-20.88,28.92-31.08,38.16-10.92,10-20.28,14.4-27.84,13.56L191,586q-48.06-20.34-62.4-85.44c-3.48-15.36-5.52-33.24-6.24-53.52q-.36-8.1-.36-45l-.6-12.6c-.6-7.32-1.08-13.44-1.56-18.24V325.68c-.48-8.28-.84-20.4-1-36.36l-.12-23.76c0-31.32.36-53.52,1.08-66.36,1.8-31.8,5.76-59.52,12.12-83.28Q159.36,13.68,243.6,2.4c0-.36,7.32-.36,21.84-.24q34.92,9.9,44.88,30.84A78.66,78.66,0,0,1,315.6,50.88ZM472.8,383.76a6.75,6.75,0,0,1,2.4-5.4l22.56-1.08c4.68-.36,7.2-.72,7.68-1.08l43.32-.48c.72-.12,1.08-.36,1.08-.6l23,.36.84,1.2a6.32,6.32,0,0,1,.48,2.76c0,2.28-.48,3.84-1.56,4.92l-12.12.36-12.84.72-26.52.36V387q0,13.86-6.48,76.32-6.84,66.24-10.8,81.24v.24a11.63,11.63,0,0,1-1.68-4.56,23.54,23.54,0,0,1-.48-4.56c0-5.76,1.68-18.12,4.92-37.08s4.8-32.28,4.8-40.08c-.12-10.92,1-24.36,3-40.44l4.68-32.28L505.2,386l-8.28,1.08L473,388.2A41,41,0,0,1,472.8,383.76Zm-64-50.52C404.16,353,400,369.36,396,382.32a374.18,374.18,0,0,1-18,49.08c-4-12.84-7.44-29.28-10.2-49.2-2.76-22.92-4.92-40-6.6-51.36l-.24-.6L349.2,381.36Q342,412.5,337,432.48h-1.44V421.92q3.06-11,6.84-29.16l6.24-30.24c5.16-23.64,9.84-39,14.28-46.08.72,13.8,2.76,31.08,6.24,51.72C371,379.8,374,397,378,419.52l.36.24c4.92-11.76,10.32-28.44,16.08-50,6.24-23.52,11.16-40,14.76-49.44,2.4,9,6.48,27.72,12.24,56.4,5.88,29.64,8.76,46.56,8.76,50.64l-.24,5.16c-.12,0-.36.12-.48.48a1.92,1.92,0,0,0-.36,1C424.44,420.6,420.36,404,417,384.24l-7.56-50.52ZM450,169c0-2.52.48-4.08,1.32-4.8s2.4-.6,4.44,0c2.76.84,9.84,4.08,21,9.6q4.86,2.7,8.64,9.36l5.52,10.32c2.52,4,4.68,10.44,6.36,19.68a112.44,112.44,0,0,1,2.28,21.72,37,37,0,0,1-7,21.24c-7.68,10.92-20,16.44-37,16.44l-5.52-.24-.12,1.44c-2.28,24.72-4.08,41.64-5.4,50.88-.36,2-1.08,15.48-2.4,40.32-1.32,25.8-1.92,42.12-1.92,49l-.72,6.36a68.58,68.58,0,0,1-1.68,7.92,5.45,5.45,0,0,1-2.28-4.2,29.65,29.65,0,0,1-.24-4.56c0-2.88,1.32-20.52,4-53q3.6-46.08,5.88-70l2-24.12h-1l-1-2-.12-2.88a8.39,8.39,0,0,1,.48-3.24,5.87,5.87,0,0,1,1.68-2.4h.6q1.62-23.22,1.44-34.56c-1.08-14.88-1.56-32.64-1.56-53.16,0-4.92.6-8.16,1.68-10l.48,5.64Zm.24,2.52-.12-.6c.48,6.6,1.08,16.56,1.68,30,.84,18.24,1.2,29.28,1.2,33.24,0,2.88-.72,12.12-2,27.72,13.92.24,25.2-2.88,34-9.48a31.31,31.31,0,0,0,8.64-9.24,16.49,16.49,0,0,0,2.76-8.28,92.53,92.53,0,0,0-1.68-15.6,95.07,95.07,0,0,0-6.72-21.84c-8.28-18.36-20.64-26.64-37.08-24.72Zm57.12-55.8q0,2-13.32,11.52l-5.16,3.48a94.17,94.17,0,0,1,8.52,13.56c4.32,8,6.48,12.72,6.48,13.8a5.9,5.9,0,0,1-.36,2.4l-1,1.68c-3.84-3.48-8-9.84-12.72-19.08l-4.8-9.6-9.84,6.72-1.44-.6-.12,1.2c-1.92,14-3,22.8-3.36,26.52l-.84.24a31.73,31.73,0,0,1-.72-8.16c0-3.6,1.08-12.24,3.12-26q2.88-18.9,3.6-21.24c.6,1.56.84,4.32.84,8l-1.8,14c2.16-2,6.12-4.8,11.76-8.52,4.92-3.24,11.76-7.44,20.28-12.84l.6.72A6.3,6.3,0,0,1,507.36,115.68ZM354,68.16a56.42,56.42,0,0,0-3.12,9.6L348.6,88.08c-2.28,8.52-5.88,15-10.92,19.56l-.84-.48a4.94,4.94,0,0,1-.24-2l6.84-16.44c4.92-11.64,7.92-22.08,9.12-31.08L368.4,80.28l15.84,23,1.92,1.08c5.64-6.48,11.28-14.88,17-25.08L416.76,55.2a2.76,2.76,0,0,1,1.56.6,3.79,3.79,0,0,1,.6,2.52c0,2.76-4.8,11.64-14.52,26.88l-17.76,27.12c-2.64-4-8.28-11.4-17-22.32A237.06,237.06,0,0,1,354,68.16ZM476.28,91c0,2.64,1.08,5.28,3.24,8a14.08,14.08,0,0,0,11.64,5.4q16.2,0,23.76-4.68l4.68-3.6a11.64,11.64,0,0,1,4.56-2.28,35.51,35.51,0,0,1-6.72,10,26.89,26.89,0,0,1-19.56,7.92c-11.16,0-18.48-3.36-21.84-10a20,20,0,0,1-2-7.2l.12-3.84a42.84,42.84,0,0,1,5.28-20.88,31,31,0,0,1,12.84-13.2,20.94,20.94,0,0,1,16.2-1.92c5.88,1.8,10.8,6.12,14.88,13v.24l-1.92.84c-3-1.8-5.64-3.36-8-4.56-4.44-2.28-8.16-3.36-11.16-3.36-7.8,0-14.4,4.08-19.68,12.24-1.08,1.68-2,3.36-2.88,4.92l8.28.72,25.44.6.6.72a5.94,5.94,0,0,1,.24,2,6.18,6.18,0,0,1-.36,2.52l-.72,1-12.72-.24-13.08-.6a82.28,82.28,0,0,0-10.2.12A21.51,21.51,0,0,0,476.28,91ZM469,69.6c-5.16-5.88-9.12-8.76-11.88-8.76-17.88,0-31.32,7.8-40.08,23.28-6.48,11.52-9.72,25-9.72,40.2,0,4.8,1.32,10.68,3.84,17.52,3.24,8.76,7.32,13.2,12.12,13.2,15.24,0,25.8-2.28,31.8-6.84a17.11,17.11,0,0,0,6.36-8.88l.48,3.24c-.84,4.32-3.72,8.76-8.4,13.2-4.92,4.8-9.36,7.2-13.44,7.2-13.56,0-23-3.48-28.44-10.32-4.68-5.88-7.08-15-7.08-27.6,0-12.12,2.76-25.2,8.16-39,7.08-17.64,16.32-28.2,27.84-31.92,10.8-.84,18.84.72,24,4.92,3.24,2.52,4.92,5.28,4.92,8L469.32,69Zm106.32,35c7.92,5.64,11.88,13.56,11.88,23.88a44,44,0,0,1-1.08,10.56l-1.08.24c-1.44-1.56-2-3.12-1.8-4.44a14,14,0,0,0,.72-4.2q0-6.3-6.48-13a27.14,27.14,0,0,0-20-8.16c-16.56,0-28.56,6.48-36,19.56a51.75,51.75,0,0,0-5.4,14,38.25,38.25,0,0,0-1.08,7.8,125.18,125.18,0,0,0,11.4,51.48c2.76,6.24,6.72,13.8,11.64,22.68l13.44,23.64q16.92,30.78,25,59,11.34,39.6,11.4,89.88l-.72,33.6a498.78,498.78,0,0,1-7.92,67.92q-8.46,42.48-24,66.72-19.26,30.06-48.6,30c-12.72,0-22.44-7.92-29.28-23.76a99.51,99.51,0,0,1-5.64-18.24l-2.4-12.12h1.2l2.4-.24q.18,0,10.08,20.88c7.32,13.8,13.32,20.76,17.76,20.76,25.08,0,44-11.16,56.64-33.48q10.62-19.26,16.92-56.88c1.56-9.72,3.6-28.08,6-54.84,2.16-24.12,3.24-37.8,3.24-40.92,0-29.64-3.72-57-11.28-81.84-5.16-17.16-13.44-36.36-24.84-57.84L534,232.56q-7.2-14-11.52-24.84a150.65,150.65,0,0,1-11.28-56.88c0-15.12,4-27.48,11.88-37a40.59,40.59,0,0,1,26.16-14.76C559.2,97.56,568,99.48,575.28,104.64ZM550.68,4.2a7.88,7.88,0,0,1,.24,2.28c0,2.76-13.8,8.28-41.52,16.68l-28.56,8.4c26.64,9,53.4,18.6,80.16,28.56l-.36,3.24-.12.12-.36.6c-2-.36-31.68-10.32-89-29.64l-10.56,3.12c-11.16,4-26,8.64-44.52,14q-34.56,10.08-42.12,10.08l-2.76-.24-.72-.24a8.81,8.81,0,0,1-.24-2.88q0-.72,67.32-21.84l20.76-6.36c-52-17.64-78-25.8-78.12-24.72q0-7.56,87.6,21.72,52-16,82.32-23.88Z" transform="translate(-1.92 -2.09)"/></svg>