<svg id="Layer_1" data-name="Layer 1" xmlns="http://www.w3.org/2000/svg" viewBox="0 0 485.54 357.06"><defs><style>.cls-1{fill-rule:evenodd;}</style></defs><path class="cls-1" d="M103.08,111.12a115.16,115.16,0,0,1,29,15.6q44.46,32.58,28.2,85.08c-10,32.28-32,47.4-66.48,45.6l-.24-19.32a673.34,673.34,0,0,1,9.48-126.6Zm-2.64-11.4-.36-.36-.6.12a293.93,293.93,0,0,0-11.4,70.08q-2.7,64.26-3.72,129.24c-.6,42.36-2.4,84-5.4,125.16l-.24-1.56L78.24,411a31.66,31.66,0,0,0-1.92,8.88c-.84,10.92,1.32,19.8,6.48,26.88a18.45,18.45,0,0,0,4.32-10.44q2.52-34.38,4.32-69C93.12,336,94,304.44,94,272.88a160.81,160.81,0,0,0,22.8-.6,38.57,38.57,0,0,0,27-13.32q34.74-39.78,25.2-91.44Q158.52,111,102,99.6ZM280.8,124.2c23.76,13.32,40.2,33.12,49.44,59.64a264.66,264.66,0,0,1,12.6,126.72,200.14,200.14,0,0,1-37.92,92.64,78.88,78.88,0,0,0-10.56,10.44c-19.8,23.88-44.28,29.4-73.68,16.8a30,30,0,0,1-16.32-15.72A217.56,217.56,0,0,1,185.16,314,561.43,561.43,0,0,1,205,187.68q14.94-55.08,71.28-65.4l2.64-.24.24.48Zm8.76-18.72h-1.92q48.06,34.2,60.12,92.52a339.22,339.22,0,0,1,1.92,127.8Q338,392.58,288.84,438.48q-35.28,32.94-77.16,5.4c-14.28-9.48-22.92-22.8-25.92-40.08a361.42,361.42,0,0,1-5.16-48.24,761.78,761.78,0,0,1,6-128.4,202.23,202.23,0,0,1,35.28-90.48,51.45,51.45,0,0,1,25.8-19.44c13.08-4.56,25.8-9.12,38-13.8Zm147.12,17.64,2.76,2.28a16.79,16.79,0,0,0,4.92,3.48l.72.24a7,7,0,0,0,0-8.28c-9.24-14.64-23.76-21.48-43.56-20.4q-30.78,27.18-30,70.32a114.33,114.33,0,0,0,4.92,31.92A268.28,268.28,0,0,0,425.28,295c22.2,27.48,30.84,58.32,26.16,92.4a24.55,24.55,0,0,1-4.68,11.4q-29.52,39.42-80.64,23.64A40.33,40.33,0,0,1,360,403.2a25.18,25.18,0,0,0-1.8-7.32l-2.16-.36h-.84a45.55,45.55,0,0,0-2.28,26.28,28.36,28.36,0,0,0,7.32,14C369,445,379.92,449.16,393,448.56q54.36-2.52,65.4-53a115.51,115.51,0,0,0-2.16-60A236,236,0,0,0,412,253.92c-17.4-20.76-28-44.16-31.8-70q-5.76-39.78,21.12-67.32l11.52.84A117.15,117.15,0,0,1,436.68,123.12ZM560,111c-5.64,18.6-8.52,38.88-8.76,60.6-.36,30.6-1.32,61.08-3.12,91.56a189.14,189.14,0,0,0-64.44,7l1-39.24c.84-43.44.72-86.16-.6-128.28A339.94,339.94,0,0,0,478,166.44c-.36,43.08-1.08,86.16-2.16,129-1.08,41.16-3.84,81.48-8.52,121.08A53.51,53.51,0,0,1,467,429.6v.12l-.12.24-.6,3.48c-.6,5.76.84,10.68,4.44,14.64a2.57,2.57,0,0,0,1.2-1.44,863.15,863.15,0,0,0,8.4-86.76q1.8-38.7,3-77.64L547.2,279l-1.56,20.76c-3,38.4-4.92,76.92-6,115.68a47.11,47.11,0,0,1-.36,11.64v.72l-.12-.24-.72,4.2,1.08,4.08-.24,1a21.39,21.39,0,0,0,.48,13.68,3.75,3.75,0,0,0,3.6,1.92,5.88,5.88,0,0,0,3.12-5.4c.36-26.28,1.68-52.56,3.84-78.6,3.48-42.6,6-85.44,7.32-128.4.6-21.6,1.68-43.2,3.12-64.92A406.37,406.37,0,0,0,560,111Z" transform="translate(-76.14 -99.36)"/></svg>