<svg id="Layer_1" data-name="Layer 1" xmlns="http://www.w3.org/2000/svg" viewBox="0 0 561.36 588"><defs><style>.cls-1{fill-rule:evenodd;}</style></defs><path class="cls-1" d="M378.84,453.72q-32.94,59.76-11.16,126.72c6.84,2.76,11.64-.48,14.28-9.84l1.56,15.24a194.73,194.73,0,0,0,4.2-54.72A20.46,20.46,0,0,0,372.6,536l-.84,4.08,12.72,1.56a42.42,42.42,0,0,1-12,28.44q-14.58-41.76-2.4-90a20.08,20.08,0,0,1,2.76-6.36,37,37,0,0,1,8.16-8.64l3.48,8.64c3.48-7.56,1.92-13.92-4.44-19.08ZM109.32,464.28l1.08,1.32c-1.92,11-8.28,17.28-19,18.84l1-25.08C99.12,457.8,104.76,459.36,109.32,464.28Zm-14-15.36c-5.4,1.8-8,5.4-7.68,10.92l.24.72,1.56.84-3.24,24.48-1.44,1.56,1.08,7.08L87,521.16,90.6,495l8-2a66.9,66.9,0,0,0,20.64,34.92,126.68,126.68,0,0,0-16.8-37.8q20.88-17.64,4.92-39Zm237.36,84.72A212.52,212.52,0,0,0,342.84,582a418,418,0,0,0,11.88-93.36c.12-11.4-1-21.72-3.48-30.84a2.8,2.8,0,0,0-1.2,2.4,551.73,551.73,0,0,1-8,97v-.6q-7.74-53.46-14.88-106.32A280.24,280.24,0,0,0,318.84,501c-1.2,17.64-3,35.16-5.52,52.56-1.68,11.64-1.32,21.84,1.08,30.84l.48-1.68q7.38-49.14,11.64-98.64C329,500.52,331.08,517.08,332.64,533.64Zm4.56-80,.72-63.72a156.91,156.91,0,0,0-3.36,44.64A101.61,101.61,0,0,0,337.2,453.6ZM280.08,313.92c21.6,33,32.4,69.84,32.4,110.28a59.25,59.25,0,0,0-1.8,13.08q-2,69.3-48.24,119.4c-9.24,10-20.28,13.8-33.24,11.64-21.84-3.48-34.68-15.84-38.64-36.84a715.66,715.66,0,0,1-12.24-111c2.52-20.28,4.44-40.56,5.76-61,2.28-35.76,18.12-63.6,47.28-83.52a7.33,7.33,0,0,1,5.4-1c7.08,1.68,10.2,3.84,9.48,6.36l.12.36q6.3-1.26,10.08,3.24a9.41,9.41,0,0,0,.84,4A21.81,21.81,0,0,0,270,301.68,70.14,70.14,0,0,1,280.08,313.92Zm-8.52-31.32a62.7,62.7,0,0,0-40-21.24q-39.06,23-48.24,68.4a514.42,514.42,0,0,0-9.12,127.44c1.08,21.48,2.4,43,4,64.32C180,548.88,192.36,569,215,582c12,6.84,23.52,6.84,34.44-.24q42.66-27.18,57.84-77.4a291.87,291.87,0,0,0,9.6-127.08q-8.1-55.26-45-94Zm-150-81.24q1.08,61.56,3.36,122.52c10.56-4.92,22.08-6,34.68-3.24a9.88,9.88,0,0,0,.84-10.56q-17.46-4.5-32.76.36v-.84A1112.67,1112.67,0,0,0,125.76,191a1.44,1.44,0,0,0-1.56.72A16.81,16.81,0,0,0,121.56,201.36ZM74.64,29.76A141.17,141.17,0,0,1,102,87.48a238,238,0,0,1,5.76,63.84A221.44,221.44,0,0,1,90.6,228.84q-15.48,36.72-55.8,32.28l1-61.44.48-64.92C36.36,94.08,36,53.88,35.16,14.4A195.25,195.25,0,0,1,67.92,24.72,15.6,15.6,0,0,1,74.64,29.76Zm5.28-11.52A82.62,82.62,0,0,0,39.24,4.32l-4.56.36a1.47,1.47,0,0,0-1.08.48A7.42,7.42,0,0,0,32.52,8.4v2.4a8.36,8.36,0,0,0,.6,3,234.88,234.88,0,0,0-5.16,52l.36,129.12q0,64.44-1.92,129c-1.32,42.84-2.28,85.92-3.12,129-.84,42.84-.6,85.68.48,128.28.6,2,1.8,2.64,3.6,1.68q3.6-62.1,3.6-125c.12-43.08.72-86.16,2-129l1.44-53.88c6.36,5.88,14.64,7.32,24.6,4.32q25.56-11,35.4-36.6,23.22-60.3,16.92-125.88A246.08,246.08,0,0,0,81.48,19.2ZM324.12,132l22.2-.72v-8.16l-20-1.32,1.92-59.28c-6.72,13.44-9,28.8-6.72,46.08C322.56,116.4,323.4,124.2,324.12,132ZM244.68,35.52,262.32,161l-47.76,1.44,23.52-95.4Zm1.2-31a182.41,182.41,0,0,0-13,46,320.09,320.09,0,0,1-7.8,38.4q-6.3,23-11.52,46.08c-3.6,15.48-6.84,31-9.84,46.44l-5.64,31.2a234.51,234.51,0,0,1-7.56,31.08q-4,12.78,4,23l18.24-94.92,51.6,3.12a566.08,566.08,0,0,0,13.8,91.44,17.91,17.91,0,0,0,1.8,4.8c4.44-17.64,4.32-36.12-.48-55.44a375.09,375.09,0,0,1-7.56-41.28,12.38,12.38,0,0,0,.84-10.68l-.72-1.44-1-1.68-1.56.12L246,6.12Zm38.28,96.72c.84,9.6,1.2,19.2,1.32,28.92l23.28-1.92,1.2-7.68-21.6-.72.84-52.8Q282.54,82.56,284.16,101.28ZM311.4,0l-16,52.2-12-33.6-9.12,31.68-4.8-46.2a286.48,286.48,0,0,0,1.92,46.44,86.57,86.57,0,0,0,2.76,13.92l10.2-31.92a89.89,89.89,0,0,0,8,26l3.84,7.2A200.38,200.38,0,0,0,311.64,10.2,26.07,26.07,0,0,0,311.4,0ZM419.76,390.36l-2-.48q-29.52,36.18-26.28,88.68a502.41,502.41,0,0,1-.36,68.52,62.26,62.26,0,0,0,2,20.52,63.88,63.88,0,0,0,5.64,13.92l6.84-.36q29.7-15.66,24.36-46a86.78,86.78,0,0,1-25.2,34.08l-4.2.12a302.11,302.11,0,0,1-1.32-66.72l27-3.84a9.67,9.67,0,0,0,1.44-7.2,10.31,10.31,0,0,0-1.8-3.84L399.72,492q-11.34-52.2,18-91.32l4.32-.24,7.8,8c1.32,1.44,2.28,1.68,3.12.6C433.8,399.12,429.48,392.88,419.76,390.36Zm-55.08-3.48q-20.52,18.72-.48,40.32a41.55,41.55,0,0,1,8,12.72L369,445.68a10.78,10.78,0,0,1-7.68,1.68,11.42,11.42,0,0,1-4.44-2L355,436.68A14.42,14.42,0,0,0,351.72,447a13.18,13.18,0,0,0,4,8.64l1,1.08,12.12.6q14.58-21.6-2.52-41.4a38.94,38.94,0,0,0-8-7.32,13.16,13.16,0,0,1,3.6-8.88l2.64-2.52,3,.84,2.88,4.8a5.24,5.24,0,0,0,2.16-4.92,17.26,17.26,0,0,0-3.12-9.6ZM351.84,210.6q-2.7,34.38-34,41.28l-3.72-3.24a14.52,14.52,0,0,1-4.68-10.32q-2.52-52.56-1.8-104.64c-2.76,22.44-4.68,45.72-6,69.72A139.49,139.49,0,0,0,306,247.08c3,11.88,10.2,16.08,21.48,12.84a24.49,24.49,0,0,0,14.76-11.76,126.23,126.23,0,0,0,16.08-54.36c1.44-21.6-.72-41.52-6.6-59.64a279,279,0,0,0,.12,37.44A264.41,264.41,0,0,1,351.84,210.6Zm27-82.32q-20,21.06-.36,43a55.72,55.72,0,0,1,7.08,9.48L374.4,187l-11.28-11c-.84,17.52,5.88,22.92,20.16,16.08,7.92-3.84,9.84-9.84,5.64-18a66.33,66.33,0,0,0-15.84-20.52c-.36-6.24,1.8-10.8,6.48-13.8a4,4,0,0,1,2.52-.36l2.4,6.48c2.52-1,3.48-3.6,2.64-7.92a13.6,13.6,0,0,0-5.88-9.36ZM418.44,5.76l-2.88-.36Q390,55.8,397,114.36c2.16,18.36,3.36,36.72,3.72,55.08a34.66,34.66,0,0,0,3.6,14.64,42,42,0,0,0,6.84,10.56l1.8,1.8c17.28,3.24,29-3,35.16-18.72a11,11,0,0,0-1.92-11.52l.12-4.08-3.36,12.12c-6.6,7.8-15.12,11-25.32,9.72a13.48,13.48,0,0,1-4.92-1.2,220.79,220.79,0,0,1-8.4-75.48l28.92,1.2a6.4,6.4,0,0,0,1.68-3.36,9.21,9.21,0,0,0-.72-6.24l-.6-1.2a86,86,0,0,0-30.36.12,175.37,175.37,0,0,1,11.28-80.16c8.64-2.76,15.6.48,20.76,9.84,1.08,2,2.16,2.64,3.12,1.8C438.48,15.6,431.76,7.8,418.44,5.76ZM565.68,171a667.82,667.82,0,0,1,11.16,127.8A473.36,473.36,0,0,1,558.72,425a259.5,259.5,0,0,1-27.84,63.72A211.27,211.27,0,0,1,452,564.84q2-18.9,2.52-38.52c1.08-42.84,2.64-85.68,4.68-128.28,2.16-43.08,2.88-86,2.16-129.12s-1.8-86.28-3.48-129.12c-1.56-39.72-3.72-79.2-6.72-118.44l3,.72a126.8,126.8,0,0,1,65.88,41.28,74.86,74.86,0,0,1,16.08,20.76A308.42,308.42,0,0,1,565.68,171Zm-17.4-82.68q-29-60.84-94.56-77.52h-.24c-1.8-.6-3.24-.36-4.32.84A5.06,5.06,0,0,0,448,14v2.52l.24,2.16A48.45,48.45,0,0,0,447.36,30q3.06,64.08,5.16,128.28c1.44,42.84,2.52,85.8,3.12,129.12.6,43.08-.48,86.16-3,129s-4.68,85.44-6,128.28c-.24,6.6-.72,10.92-1.32,12.72-1.08.6-1.68,2.76-2,6.36a45,45,0,0,0,.12,10.68,19.86,19.86,0,0,0-.36,3.84,9.78,9.78,0,0,0,3.36,7.2l.72-.12,1.8,2.64.48-3.24a80.52,80.52,0,0,0,31.68-18A294.51,294.51,0,0,0,555,463.56a332.89,332.89,0,0,0,24.36-89.64,597.33,597.33,0,0,0,2.4-128.52,759.53,759.53,0,0,0-22.08-125.88A173.72,173.72,0,0,0,548.28,88.32Z" transform="translate(-22.77)"/></svg>