<svg id="Layer_1" data-name="Layer 1" xmlns="http://www.w3.org/2000/svg" viewBox="0 0 302.62 213.23"><defs><style>.cls-1{fill-rule:evenodd;}</style></defs><path class="cls-1" d="M250.32,374.52q5.22,29.16,37.56,23.76a6.16,6.16,0,0,0,2.88-1.2c16.68-12.6,24-29.76,22.2-51.36-2.16-25.32-14.88-42.24-38-50.52q-24.84,10.26-26.64,38.88A175,175,0,0,0,250.32,374.52Zm26.52-65.4C291.12,316,300,327.84,303.6,344.76c4,18.84-2.76,30.48-20.4,35q-25.74,6.48-30.6-22c-2.88-16.92,1.68-31.2,13.56-43.08A19.76,19.76,0,0,1,276.84,309.12Zm-108-102,2.4-1.68,10.44,1.2a34,34,0,0,1,22.8,13l1,.72c10.08,12.48,12.12,25.8,6.24,40.08-7.32,17.52-20.4,27-39.36,28.44l-4.92.24c-.6-31.56-1.2-59.28-2-83.16Zm22.2-12c-8.4-3.48-16.32-3.36-23.88.48l-1.2.72-1.56,5.16-1.2-6.6-6.12,157.44c-.24,5.4-.6,10.68-1.08,16.08l-.6,8.76a56.46,56.46,0,0,0,4.2,23,508.51,508.51,0,0,0,7.8-95.4q29.16-1.62,45.24-27l3-5,2.52-4.92a48.55,48.55,0,0,0,3.6-28.56,73.26,73.26,0,0,0-6.36-19.56,53.48,53.48,0,0,0-20.76-22.44ZM457.8,278.88c-.36-14.76-.36-29.4,0-44,.36-13.2.24-26.4-.48-39.72q-13.32,29.34-10.44,63a334.85,334.85,0,0,1,1.08,38l-43,6.6-1.68-59.64a937,937,0,0,0-8.88,103.2c-.24,9.36-.84,18.72-1.92,28.08a43.86,43.86,0,0,0,3.84,23.52l1.68,3.36a230.5,230.5,0,0,0,6.72-58.2c-.12-9.36-.12-18.72.12-28.08l42.84-2.16q.36,37.62-2.88,75.24a20.37,20.37,0,0,0,2.28,11.64l2.88,4.8c6.6-17.28,8.76-35.76,6.72-55.32A316.13,316.13,0,0,1,455,310.68,153.78,153.78,0,0,0,457.8,278.88Zm-54-77.28a428.13,428.13,0,0,0-97.8,4.32c-2.28,4.68-1.92,9,.84,13,17.64.36,35.16.36,52.68.12a155.92,155.92,0,0,0-3.84,26.88q-4.14,64.26-9.6,128.28c-1.08,12.24.6,22.8,5.16,31.68a3.18,3.18,0,0,0,1.44-2.4q2.16-32.4,5.4-64.8A910.19,910.19,0,0,0,362,219l61.68-1.92.72-1c2.88-5.4,2.64-10.44-.72-15.36l-10.2.6Z" transform="translate(-155.37 -192.61)"/></svg>