<svg id="Layer_1" data-name="Layer 1" xmlns="http://www.w3.org/2000/svg" viewBox="0 0 333.81 419.52"><defs><style>.cls-1{fill-rule:evenodd;}</style></defs><path class="cls-1" d="M228.6,296c-25.8-1.32-42.84,10.08-51.24,34.44A185.34,185.34,0,0,0,168.48,371q-6.66,66.6,38.76,113.88l5.76.6a8.18,8.18,0,0,0,6-1.2q55.62-37.44,55.2-104.76a195.16,195.16,0,0,0-2.4-30.24q-5.94-38.88-39.72-54.6l-1.44.24Zm1.08,17.88c15.24,4,25.56,13.32,30.72,28.2a100.09,100.09,0,0,1,1.8,62.16,216.45,216.45,0,0,1-15.12,38.4,44.48,44.48,0,0,1-21.84,20.88,32.58,32.58,0,0,1-19.08,2.4,136.67,136.67,0,0,1-32-79.56,86.32,86.32,0,0,1,17.52-60.12,85.34,85.34,0,0,1,12.84-13.44l22.68-2.52ZM103,314.76c.24,13.8.12,27.48-.48,41.16S101,383.16,100,396.72c-.84,10.68-2.16,21.36-4,31.92a122.54,122.54,0,0,0,1.08,45.84c3,13.56,12.48,20.4,28.68,20.52l46.92-2.28,9.36-1.08A19.62,19.62,0,0,0,184,486a14.87,14.87,0,0,0-1.08-7.92l-.84-1.92-71.64.6-7.68-4.8,7.08-183.48A50,50,0,0,0,103,314.76ZM83.88,90.36c13.08,5.4,22.56,14.64,28.68,28a144.53,144.53,0,0,1,11.76,40,125.48,125.48,0,0,1-.72,41.28,95.22,95.22,0,0,1-17.76,40.8,65.06,65.06,0,0,1-38.28,25.2L61.32,267,65.16,91.68a24.11,24.11,0,0,1,13.2-2.76A8.5,8.5,0,0,1,83.88,90.36Zm-22.2-.72a291.79,291.79,0,0,0-6.12,54.84q-1.08,47.7-1.44,95.76-.54,64.62-2.52,129.12a360.47,360.47,0,0,1-4.68,48.48q-5.76,33.48,1.2,64.32c1.8.48,2.76-.12,2.88-1.68,4.44-41.64,7.2-83.52,8.52-125.76.72-23.64,1.32-47.4,1.68-71l2.64.24a14.49,14.49,0,0,1,6.6-2.28c16.08-1.8,28.56-9.6,37.32-23.16,20.28-31,27.84-64.68,22.92-101.16a303.26,303.26,0,0,0-6.12-32.16c-6.84-28-23.76-44.52-51-49.68-6,.24-9.84,3.12-11.64,8.52A10.13,10.13,0,0,0,61.68,89.64Zm125.52,92a662.25,662.25,0,0,0,21.6-80c4.56,25.8,9.36,51.72,14.28,77.52A358,358,0,0,0,187.2,181.68ZM211,89.88l-.48-.84-1.32-1.68-.36,1.08-.72-1.56c-1.32.12-1.92.84-1.56,2.28l.72,4.08q-12.06,37.08-25.56,75.6a669.62,669.62,0,0,1-39.36,90c-5.16,9.72-4.32,17,2.4,21.72A701.92,701.92,0,0,0,176,212.28l6.12-16.2a318.33,318.33,0,0,0,44-1l3.72,19.08c3.12,15.72,5.52,31.44,7.2,47.4,1.08,9.84,4.32,17,9.84,21.72a4.42,4.42,0,0,0,1.08-3.24A789,789,0,0,0,231,181a263.51,263.51,0,0,1-5.64-31.8,204.27,204.27,0,0,0-14.88-56.64Zm166.2,198.48-.48-1.8a321.79,321.79,0,0,0-32.52,66.84,126.76,126.76,0,0,0-24.48-41.76c-4-4.44-8-8.52-12.24-12.48l-9.84-8.76c-2.76,11.16,1.68,22.2,13.32,33.24a55.8,55.8,0,0,1,11.64,16.08A96.8,96.8,0,0,0,340,364.2a1086.43,1086.43,0,0,0-43.2,117,8.81,8.81,0,0,0,.12,5.28,17.53,17.53,0,0,0,3.48,6,579.68,579.68,0,0,0,27-62.88q10.8-30.24,20.64-60.72a251,251,0,0,1,22.8-51.6C377.4,308.52,379.56,298.92,377.16,288.36ZM366.48,93.84q-18.36,61-33.72,123-4,15.84-8.28,31.32c-.48,1.8-.84,3.6-1.2,5.4a585,585,0,0,0-15.72-66.72l.36-10.68-2.16,4.8-.36-1c-1.8.72-2.52,2.28-2.16,4.8l.24,1.44a411.7,411.7,0,0,0-15,42.48,218.92,218.92,0,0,0-7.68,38.52c-.72-16.68-2.16-33.48-4.2-50.4a1073.91,1073.91,0,0,0-23-124.8q-3.6,16,0,35.28a1145.54,1145.54,0,0,1,17,126.36c1,11.88,4,22.2,9.12,30.72a2.64,2.64,0,0,0,1.56-2.16q5.58-2.16,7.2-10.8A350.1,350.1,0,0,1,298.8,231a188.85,188.85,0,0,0,7-28.44l4.44,31.2a173.26,173.26,0,0,0,16.08,52.56,3.4,3.4,0,0,0,1.32-3.24l-.72-5.88.72,1.2A56.82,56.82,0,0,0,332,263.88,1046.55,1046.55,0,0,1,362.28,140c4.92-15.84,6.72-31.44,5.16-46.68C366.84,93.48,366.6,93.6,366.48,93.84Z" transform="translate(-44.3 -75.48)"/></svg>