<svg id="Layer_1" data-name="Layer 1" xmlns="http://www.w3.org/2000/svg" viewBox="0 0 496.94 385.68"><defs><style>.cls-1{fill-rule:evenodd;}</style></defs><path class="cls-1" d="M119,305.88a338.46,338.46,0,0,1-2.28,34.56l.12-.12c2.28-1.08,5.88-2,11-2.88l13.92-2.52a55.2,55.2,0,0,0,13-4.08,149.05,149.05,0,0,0,17.52-10.56c6.12-4.44,9.24-7.92,9.24-10.44,0-6.48-3-12.36-8.88-17.64-7.32-6.36-17.88-10.44-31.92-12.24q-16.74-.36-22.68,0C118.68,289,119,297.6,119,305.88Zm-1.8-35.52,13.68-.12,10.92.48c19.56,4.2,32.4,10.68,38.76,19.68a29.07,29.07,0,0,1,4.92,11.88,88.72,88.72,0,0,1,.6,11.4c0,2.52-1.68,5.76-4.92,10a76.45,76.45,0,0,1-13.92,12.84,96.55,96.55,0,0,1-15.36,9c6.6,8.52,15.72,22.92,27.6,43.08,13.08,22.2,26.28,45.84,39.36,70.68,0,3.48-1,5.88-2.88,7.08-7.44-10.44-14.4-21-20.76-31.92a314.38,314.38,0,0,1-16.92-32.16c-2.76-6.24-10.08-18.36-21.84-36.48L145.2,348.24a76.93,76.93,0,0,1-25.08,4.2,16.44,16.44,0,0,1-4.68-.6c-1.32,10.32-2.88,22-4.92,34.92L99.6,459a16.65,16.65,0,0,1-2.16-9c0-7.56,1.92-24.24,5.88-50,4-25.08,6.12-38.88,6.24-41.28,2.52-33.36,4.8-59.52,6.6-78.6l-.84.12-1-2-.12-2.88.12-2.76,1-2,1.8-.12v-.24ZM223,177.84c0-18-4.2-32.88-12.48-44.52-13.56-19.08-37.56-30.12-71.88-32.88l-27.36.24a24.4,24.4,0,0,1-6.84,3.12l-3.12.6-1.8,54.48q-2,61.2-2,74.16L97.32,250l5.76.36c16,1.32,37.8-1.56,65.76-8.88,8.28-2,14.76-5.28,19.68-9.6a118.74,118.74,0,0,1,10.92-11,76.3,76.3,0,0,0,16.32-20.4C220.56,191.64,223,184.2,223,177.84Zm.48,16.32a107.91,107.91,0,0,1-15.36,28.92q-30.06,39.78-88,39.84l-23-.36c-.36,17.76-1,36.72-2,56.88l-4.92,89v49.44a13.6,13.6,0,0,1-1.92,4.92c-2-.84-3.72-2.76-5-5.52a16.77,16.77,0,0,1-1.44-7.44V449c.12-.12.48.12,1.08.48l1.92.84.48-.24V404.64c.6-7.32,1.44-28.44,2.4-63.6.72-26.52,2.52-48,5.52-64.68V184.8l.24-.84v-43.8c.6-3.12,1.2-11.4,1.8-24.72a86.61,86.61,0,0,1,1.68-14v-.48q0-4.14,1.8-5.4l1.2-2.76.72,1.56a75.89,75.89,0,0,1,10.92-4l27.36.24c36.6,2.16,62,14.52,76.08,37,8.28,13.08,12.36,29.88,12.36,50.28C227.28,181.32,226,186.72,223.44,194.16Zm214.08-28.68a224.31,224.31,0,0,1,3.72-23.16,106.79,106.79,0,0,0,1.32-11.64l1.08-13c1.32-10.08,4.44-16.56,9.24-19.44q12.78,100.44,21.6,220.56l.84,1.08c5-15.48,9.48-33.84,13.44-55,2.28-12.84,5.16-31.2,8.4-55,2.88-24.36,5.28-42.84,7.32-55.32,3.48-21.84,8.28-40.08,14.4-54.6Q533.46,155.34,557,304.56c5.88,37.32,11,71.76,15.36,103.08,4.2,29.88,6.24,47.16,6.24,51.6l-.12,5.28a6.61,6.61,0,0,1-3.36,4.32q-11.7-78.48-27.24-174.36Q537.3,228.6,519.12,119h-.24Q511.5,156.3,501.6,230,491.16,295.92,474.48,340q-9.18-46.8-14.4-108.36-.72-9-7.2-108.24l-.36-.48q-6.48,34.2-13.68,85.44L427,293.16q-7.38,48.06-15.72,84.48a688.39,688.39,0,0,1-25,85l-1-1.08a8.06,8.06,0,0,1-.36-2.76c0-1,1.44-7.56,4.44-19.68L400,395.28c10.92-46.92,18.24-86,21.72-117.48Q424,258,427.8,232.44l6.84-44.64Zm-68.64-55.92-31.32-2.4c-27.24-.6-47.28,15.24-60.36,47.4-4.2,10.44-7.56,22.68-10.32,36.72q-2.16,11-4,24.12c-.6,10-2.28,31.32-4.92,64-2.28,29.76-3.48,45.48-3.48,47,0,1.8.12,2.16.24.84v45.48c1.32,5.76,2.52,14.88,3.6,27.24,1.08,13.92,2.16,23.52,3,28.8,1.8,10.08,4.44,17.64,8.16,22.68,4.44,6.12,10.56,9.24,18.48,9.24q34.92,0,67.2-45.84a255.64,255.64,0,0,0,20.16-34.32c4.56-9.48,7.56-16.8,9-21.84,5.52-19.56,9.36-37.2,11.4-52.92a361.56,361.56,0,0,0,3-49.8L397.68,227c-.6-20-.72-35.16-.36-45.24s-4-24.36-13-42.48C374.88,122.28,369.72,112.32,368.88,109.56Zm6.48-4.32a39,39,0,0,1,15,18.72,144.69,144.69,0,0,1,8.76,24.6,141.47,141.47,0,0,1,4.2,24.84q1.26,16.38,1.08,48.6,0,41-1.44,64.08-2.34,37.44-9.36,63.36c-4.2,16-11.76,37.32-22.44,64.2-4.92,12.36-17.76,26.16-38.28,41.64a216.79,216.79,0,0,1-22.68,15c-7,3.84-11.52,5.76-13.8,5.76-16.68,0-28.32-6.84-34.68-20.64a80,80,0,0,1-5.64-19.8c-.6-3.48-1.32-10.44-2.4-20.64l-3.24-33.12c-.72-9.24-1.08-19.2-1.08-29.76q0-17.82,6.72-90.84Q263.64,179.16,269.4,157c2.52-9.6,6-17.88,10.56-24.72,5.88-9,14.16-17,24.84-24a69.56,69.56,0,0,1,22.92-9.48,72.2,72.2,0,0,1,25.2-1.56A51.74,51.74,0,0,1,375.36,105.24Z" transform="translate(-81.7 -90.36)"/></svg>