<svg id="Layer_1" data-name="Layer 1" xmlns="http://www.w3.org/2000/svg" viewBox="0 0 470.5 372.48"><defs><style>.cls-1{fill-rule:evenodd;}</style></defs><path class="cls-1" d="M142.8,210.24a15.5,15.5,0,0,1-1.8,7.44c-14.28,27.24-36.24,42.48-66.12,45.72l-.36-51.48q-.72-60.12.24-118.44,30.78-6.48,46.08,22.68a193.53,193.53,0,0,1,13.8,34.32A197.27,197.27,0,0,1,142.8,210.24ZM81.12,79.92a55.53,55.53,0,0,0-9.6,3l-1.68,1A11.21,11.21,0,0,0,69,88.8a11.52,11.52,0,0,0,.72,4L70,93a29.15,29.15,0,0,0-.48,3.6q-2.16,54.18-1.2,108.84c.36,20.28.48,40.44.36,60.72a12.21,12.21,0,0,0-.36,4.2l.36,3c-.24,20.4-.72,40.8-1.44,61.08-.84,21.72-2.64,43.32-5.4,64.68-1.56,12.24,0,22.92,4.8,31.92a632.36,632.36,0,0,0,7.68-90.12c.36-21.24.48-42.6.6-64.08,22.68-.84,42.24-10.08,58.8-28a49.21,49.21,0,0,0,13.56-33.48,249.22,249.22,0,0,0-19-100.44c-8.76-21.48-24.12-33.36-46-35.4Zm205.32,40.44c1.8-12.48-.12-23.16-5.64-31.92a78,78,0,0,0-4.08,26.88q.54,40.14,3.12,79.68a563.91,563.91,0,0,1-6.48,129q-9.72,57.78-52.92,95.64l-3.36,1.2a16.8,16.8,0,0,1-13.8.6c-18.12-6.6-28.44-20.16-31-40.44a525.46,525.46,0,0,1-3.6-93.36q3.42-64.26,4.08-129.12a221.88,221.88,0,0,1,2.64-32,213,213,0,0,0,2.28-48.24c-1.92,1.56-3.12,4-3.72,7.2a765.08,765.08,0,0,0-10,126.72c.12,42.72-1.08,85.44-3.36,128.16Q158,390,185.52,429.12a18.62,18.62,0,0,0,16.56,8.52q30.42-.54,46.44-28.8a289.47,289.47,0,0,0,37.68-127.2,944.4,944.4,0,0,0-1-129A145.74,145.74,0,0,1,286.44,120.36Zm74.88,104.16c-10.44,14.76-24.84,22.68-43.2,23.52l1.56-34.44a887.23,887.23,0,0,0-3.24-126.36L334.92,86a17.09,17.09,0,0,1,13.08,5q40.86,43,27.12,102.84A84.15,84.15,0,0,1,361.32,224.52Zm31,137.64A1084,1084,0,0,0,341,257.4c10.2-4.2,18.24-11.64,23.88-22.56q31-59.94,8.76-123.72c-7.56-21.72-22.44-34.2-44.64-37.2l-7.68,1.8a23.9,23.9,0,0,0-8.64,3,10,10,0,0,0-1.2,4.08A10.11,10.11,0,0,0,312,86l.48,1.68,2.52-.36a22,22,0,0,0-2.16,10.92c.36,15.72.48,31.44.24,47L311.28,252l-.12,5-.36,16.56a812.06,812.06,0,0,1-12.72,127.92c-2.16,12.12-1.08,22.8,3.36,31.92a670.6,670.6,0,0,0,11.52-91l4.44-81.12,8.4-.36a60.1,60.1,0,0,0,10.68-1.92c9.24,23,18.84,46.08,28.56,69q25,58.5,52.2,113.16c3.24-4.2,3.84-9,1.68-14.28Q406,394.38,392.28,362.16Zm55.2-278.28q36.36,14.22,42.84,54.72,10.8,67.14-43.32,109.56l-1.08-45.72c-1.08-40.68-1.08-80.64,0-120.12Zm-2.76-12a3.48,3.48,0,0,0-2.28,3.36,11.31,11.31,0,0,0,1.08,5.64l.72.48a260.33,260.33,0,0,0-4.44,65.88q3.6,64.26,3.72,129a1176,1176,0,0,1-7.08,128.88c-1.32,11.88,0,22.68,4.08,32.4a530.16,530.16,0,0,0,8.28-106.08L447.36,259l1.2,1.32a22.94,22.94,0,0,0,13-7.32l2.4-2.64c6.12,14.4,11.88,28.92,17.4,43.56a996.4,996.4,0,0,1,37,121.8c2.76,11.64,6.72,21.12,12,28.56,2.88-14.4,1.44-29.16-4.44-44.16-5.52-14.16-10.68-28.44-15.36-42.84q-18.54-57.06-41.64-112.8,38.34-47.7,27.72-109.2-8.28-47.7-51.72-63.48Z" transform="translate(-61.22 -71.76)"/></svg>