<svg id="Layer_1" data-name="Layer 1" xmlns="http://www.w3.org/2000/svg" xmlns:xlink="http://www.w3.org/1999/xlink" viewBox="0 0 545.68 597.48"><defs><style>.cls-1{fill:none;}.cls-2{clip-path:url(#clip-path);}.cls-3{fill-rule:evenodd;}</style><clipPath id="clip-path" transform="translate(-23.6 3.24)"><rect class="cls-1" x="22.68" width="546.72" height="596.28"/></clipPath></defs><g class="cls-2"><path class="cls-3" d="M532.8,518.4c-9.6,11.88-14.16,25.8-13.8,41.64.48,19.08,8.76,29.88,24.72,32.4,7.92,1.32,14.52-1.44,19.92-8.28A25.57,25.57,0,0,0,569.28,570c-9.36,12.84-20.52,16.56-33.48,11-4.8-2-7.8-6-8.88-11.76a64.53,64.53,0,0,1-1.2-18.6l26-.6-.24-6.72a42.5,42.5,0,0,0-24.48-.48A53.23,53.23,0,0,1,552,513l8.64.84a14.63,14.63,0,0,0,6,3.6q1.26.36,1.08-1.08Q553.5,492.6,532.8,518.4ZM301.08,547.92l5.16,6.12c-4.2,6.12-10.2,9.24-18.12,9.6l1-12.12Zm10.08,35.16,15.12,11.16,1.92-5.52-25.92-22.8a17.77,17.77,0,0,0,5.52-9c2-7.8-1.32-13-10.2-15.48l-8.4,3A76.71,76.71,0,0,0,282.84,591l4.32-20.4,9.36-1,13.56,11ZM325.8,463.8q-2.16,40.14-.36,80.28a86.45,86.45,0,0,0,37.68,2.16,8.55,8.55,0,0,0,.48-9.36,143,143,0,0,1-34.92-3V533c.6-25,.36-49.56-.48-73.92C326.76,460,325.92,461.52,325.8,463.8ZM102.12,318.72l-.48,30-.12,30.12,50.76-.36.24-9.6-47.52-2,3.48-118.92c-8.28,11.4-11.16,25.2-8.52,41.28A172.81,172.81,0,0,1,102.12,318.72ZM25.68,3.48a16,16,0,0,0-.6,4.08,9.41,9.41,0,0,0,.84,4l.6,1,.6-.12A897.61,897.61,0,0,0,24.6,134.28q3.06,64.62,4.44,129t2.4,129q.72,64.26,1,128.28a240.37,240.37,0,0,1-1.92,32.28c-1.44,12.12.12,22.8,4.68,31.92a297.11,297.11,0,0,0,5.28-65c-1.08-43.08-1.92-86-2.28-129q-.54-61.56-2.4-122.76l.48.48A37.56,37.56,0,0,0,61,266.16a30.8,30.8,0,0,0,12-9c20-25,31.2-53.76,33.24-86.28A476.07,476.07,0,0,0,97.44,43.56Q88.26-.72,42.24,0A44.92,44.92,0,0,0,26.52,2.88ZM101.52,98.4c-.12,15.84-.12,31.68,0,47.4A178.71,178.71,0,0,1,96,190.92a175,175,0,0,1-16,41.4C72,247.2,59.52,254,42.36,252.84l-7,.12-6-241.08A82.18,82.18,0,0,1,69,14.4,90.23,90.23,0,0,1,94.44,53.64,143.76,143.76,0,0,1,101.52,98.4Zm238.92,32.88C336.12,154.44,331,177.6,325,200.52l-.24-.6c-5.88-23.88-11.64-47.64-17-71.4a213.26,213.26,0,0,0-9.24,39.6c-2,14.76-2.52,28.32-1.32,40.56l.36-1.68c3.12-22.2,6.36-43.32,9.6-63.6a575.08,575.08,0,0,0,17.28,67.32l-4.08-.48a8.33,8.33,0,0,1-4.2,1.56,5.68,5.68,0,0,0-4.56,2.64c-14.28,21.12-18.84,44.52-13.44,70.2a13.46,13.46,0,0,0,7.92,9.84c16.68,8,28.2,3.84,34.68-12.48-4.2.48-8.52,2.52-12.72,6.24a33.61,33.61,0,0,1-18.48,1.32,23.05,23.05,0,0,1-9.6-18.36c-.24-6.72-.24-13.56.12-20.4,1-19.68,10.32-30.36,28-31.92a6.77,6.77,0,0,0,1.32-2.4v-.84l-.12-.72a9.54,9.54,0,0,0-4.2-4,360.52,360.52,0,0,0,16.92-59.64c1.56-8,1.2-15-1-20.88ZM304.68,93.6l10.2-1.32a106.71,106.71,0,0,0-.72,36L316.32,92l10-3.36a15.67,15.67,0,0,0-11.16-3.6,20.52,20.52,0,0,0-9.84,3l-1,.72-.12,3.12Zm-29-85c-1.32,22.56-1.92,45.6-1.56,69,.6,43.08,1.2,86.16,2,129.12s2.16,86.16,4.08,129a1017.57,1017.57,0,0,1-2.28,128.4A366.75,366.75,0,0,1,263,542.28c-7.56,24.72-24.84,33.72-51.6,27a20.11,20.11,0,0,1-13.8-10.8,97.56,97.56,0,0,1-10.92-39.72c-2.76-42.6-4.68-85.32-5.52-128.28s-1.32-86-1.44-129.12l-.12-129C179.76,89,178.56,46.2,175.8,4.08c-3.36,7.08-4.92,15.6-4.56,25.44q2.16,62.82,2.28,126.6l.12,129.12c.12,43,.6,85.92,1.68,129,1,42.84,3.48,85.68,7.44,128.28A65.78,65.78,0,0,0,189.6,566q16.92,32.4,54,19.2a28,28,0,0,0,13.2-9.6,121.4,121.4,0,0,0,23.52-61.08c4.44-42.6,6.84-85.44,7.44-128.52.36-32.28,0-64.56-1.08-96.6l-4.2-129q-2-64.26,1.08-129C284.16,21,281.52,13.32,275.64,8.64ZM300,37.92a156.72,156.72,0,0,0,.24,48L301,66.6,314.64,63c-3.24-3.72-7.08-4.32-11.52-1.92l-2,1.08L302.4,42.6A19.82,19.82,0,0,0,319,39.48c-3.6-4.44-8.88-5.28-16-2.52Zm26,8.4,1.44.48L326,60.36l.72,28L329.16,64a17.71,17.71,0,0,0,9-1.2A15.07,15.07,0,0,0,343,59.4l.84-1.08-.12-2-6.6-.48-2.16,1.56L330.48,57l-1.8-10.56,13.8-2.4V41.16a7,7,0,0,0-6.84-3,25,25,0,0,0-9.24,3.72Zm50.64,369.6c-.36-25.08-1.2-50-2.76-74.88,15.48.36,25,8.76,28.44,25.08Q410.28,402.3,376.68,415.92Zm-20.76,8.64q-4-42.12-10.44-86.28L325.2,407.16l-7.08-67.32a279.72,279.72,0,0,0-14.88,52.92l-1.56,10.92a143.72,143.72,0,0,0-.84,16v5.16l15.48-65.4a293.73,293.73,0,0,0,8.4,60.24l19.92-63.48,9,66.48Zm16.2-84.36c0,36.12-.72,72.24-2.16,108.12a376.27,376.27,0,0,0,2.64,63.36,327.48,327.48,0,0,0,4.08-47.88L376.8,428l1.32-.36c24.12-12.6,33.72-32.76,29-60.6q-5.22-30.78-33.84-34.56c-.36.12-.6.6-.84,1.2a9.66,9.66,0,0,0-.6,5.52Zm4.8-160.2c-8,18.12-16.68,35.76-25.92,53.16l2-61.32c-.84-.12-1.2.48-1.32,1.56A794.85,794.85,0,0,0,348,301c1.08,0,1.56-.6,1.56-1.68l1.2-57a121.3,121.3,0,0,0,10.68-18.6l6.36-12.6a549.39,549.39,0,0,0,25.56,87.72c1.44,0,2-.6,1.8-1.68C387.36,267.48,378.72,238.2,369,209l2.64-4.8c7.8-13.44,12.84-27,15-40.8Zm7.2-94.32c-11.4-4.32-24.36-4.56-38.64-.72l.12,5.64,20.52.48A394.45,394.45,0,0,0,365,169.92l2.16-78.84,15.6-1.8ZM489.6,47.88Q493,11,460-3.24A71.85,71.85,0,0,0,431.16,4a55.57,55.57,0,0,0-22.08,18.6q-26.46,38.7-19.32,85.32a152.55,152.55,0,0,0,15,46.8A1276.92,1276.92,0,0,1,459.12,276.6a650.81,650.81,0,0,1,32.64,116.52,648.16,648.16,0,0,1,10.56,122,79.47,79.47,0,0,1-4.68,26.16q-14.76,40-58.68,29.76a10.61,10.61,0,0,1-6.36-3.84Q415,544,411.72,513c-1.08-9.72-3.72-17.52-8-23.28a5.16,5.16,0,0,0-1.56,4.08,229.61,229.61,0,0,0,16.8,79.44,22.78,22.78,0,0,0,7.32,9.48q24.3,17.82,50.88,4.68C490,581,498.36,571.32,502.32,558a217,217,0,0,0,8-79.2,894.12,894.12,0,0,0-18.84-124.92,660.31,660.31,0,0,0-38-116.76A217,217,0,0,0,439,208.8a373,373,0,0,1-37.44-83.28,125.08,125.08,0,0,1-2-68.4q7.74-31.32,37.08-43.92Q463.38,1.5,478.2,25.32a106.6,106.6,0,0,1,11,23.16Z" transform="translate(-23.6 3.24)"/></g></svg>