<svg id="Layer_1" data-name="Layer 1" xmlns="http://www.w3.org/2000/svg" viewBox="0 0 553.91 461.47"><defs><style>.cls-1{fill-rule:evenodd;}</style></defs><path class="cls-1" d="M299.64,451.8q-4.5,9.9-18,10.08l.24-19.32Zm2.52-10.2L282,434.28l-5.88,28.92-1.8.24.72,10.2-.24,35.52,5.76-33.6,13.8-5.16,7.8,5,3,8.88a25.55,25.55,0,0,1-6.84,10.2,14.14,14.14,0,0,1-8,3.6l-10-4.56a8,8,0,0,0-1.92,3,11.1,11.1,0,0,0-.48,3.48,18.63,18.63,0,0,0,.36,3.72l11.76,6.6c11.4-4.2,17.76-12.48,19.2-24.72a20.75,20.75,0,0,0-6.12-18l-2.76-2.4c4.32-5.88,5.28-12.6,3-20Zm43.2-15.48q25.74,19.08,20.28,53.76-5,31.5-38.28,27.48c1.2-6.6,2.28-13.32,3.12-20.16,2.4-19.32,4.2-38.64,5.28-57.84l6.12-1.8ZM293.28,426l1.08,4,17.28-52,2.4,48.12,2.76,1.08,1.44,3.24c1.32-22.2-.48-46.08-5.16-71.4l-18.48,55.2a172.53,172.53,0,0,0-6.24-54.84A390.67,390.67,0,0,0,274,409a66.32,66.32,0,0,0-1.2,22.32l15.12-48.72A204,204,0,0,0,293.28,426ZM296,316.32l-1.68,7.56,10.8.84c-2.76,10.2-3,19.68-.6,28.68a73.71,73.71,0,0,0,4.2-40.08Zm3.48-42.24,7.32,1.44,5.16,8a15.71,15.71,0,0,0,1.08-10,10.86,10.86,0,0,0-4.8-7.2,19.25,19.25,0,0,0-8.52-3.12c-12.84,10-19.68,23.4-20.64,40.44a136.54,136.54,0,0,0,5.28,45.72l1.08,3.72,6.24,2.52a24.88,24.88,0,0,0,9-8.28,9.25,9.25,0,0,0,1.44-4.32,12.37,12.37,0,0,0-2.16-8.64,6.69,6.69,0,0,0-3.6,3.84L295,340.56l-2,1.56a7.79,7.79,0,0,1-3.72,1l-1-.36a61.36,61.36,0,0,1-3.72-31.8A78.38,78.38,0,0,1,299.52,274.08ZM70.08,283.92q-.54,64.62-3.24,128.16c18.24.12,35.76-.24,52.44-1.08,2-4.56,1.44-8.64-1.92-12.24-15.48-.36-30.72-.24-45.6.6l.36-7.32q4-64.8,4-128.16C72.12,269.28,70.08,276,70.08,283.92Zm9.36-200.4a23.92,23.92,0,0,1,9.48,7.8q30.6,42.12,24.36,95.4A49.61,49.61,0,0,1,109,202.2q-19.44,43.56-66.84,43.2c1.32-18.24,3-36.48,4.8-54.6A697.61,697.61,0,0,0,49,73.44,135.6,135.6,0,0,1,79.44,83.52ZM43.08,72.24l1.68.36q-.18,61.92-5.88,123Q32.94,259.5,30,323.88c-2,42.6-3.36,85.32-4.2,128.28a101.28,101.28,0,0,1-1.56,16c-2.4,12.36-1,23,4.44,31.92l.84-1.68a312.68,312.68,0,0,0,4.92-51.12C35,404.52,36.12,361.8,37.92,319c.84-19.08,1.8-38,3.12-57.12a54.17,54.17,0,0,0,20.64-1.44q50-13.86,57-64.08a229.19,229.19,0,0,0,.48-60.12q-5.22-42.66-37.44-68.76l-4.2-1.68-2.28-1.32L71.4,64A237.12,237.12,0,0,0,47,60.84h-.48L44.4,61a2,2,0,0,0-.6.24A6.24,6.24,0,0,0,42,65.76l-.12,2.4A6.81,6.81,0,0,0,43.08,72.24ZM341.4,171l-5.64,3.48a386,386,0,0,0-11.4,73.08c-.24,4,.84,6.84,3.12,8.52L334,209.52l9.48-.12,18.36,45a69.11,69.11,0,0,0-13.2-43.08l-1.8-2.64C358,200.16,360.72,190,355,178a27.36,27.36,0,0,0-5.16-7.2Zm-56.28,1.32a220,220,0,0,0-7.2,75.12,33.54,33.54,0,0,0,1.92,9.48l4.2-43.68,8.4-1a100.55,100.55,0,0,0,18.48,39.36l3.72,5.4a101.18,101.18,0,0,0-18-45.72c8-5.4,12.12-13,12.24-22.92a16.42,16.42,0,0,0-5.76-13.32,26.72,26.72,0,0,0-8.76-5.28Zm10.32,6.84,5,3.24a7.2,7.2,0,0,1,3.6,5.64c-2.4,9.24-8.88,14-19.32,14.4l1-22.32ZM255.12,76.32l4.44,112c1.56,42.84,2.28,85.8,2.16,129.12q-.18,16.38.36,32.4,2,57.78-21.24,109a82.89,82.89,0,0,1-21.36,28.8C203,502,185.4,502.92,166.8,490.44a43,43,0,0,1-8.4-7.68c-8.76-10.32-13.8-22.68-15.12-37a866.73,866.73,0,0,1-2.4-128.52c2.28-42.84,5.28-85.44,8.76-128a1032.77,1032.77,0,0,0,3.24-127.56,93.22,93.22,0,0,0-5.28,27.6c-2,41.4-4.2,82.92-6.6,124.32l-7.32,128.88A611.9,611.9,0,0,0,140.16,470q5.58,35.82,43.2,43.56Q217.74,520.8,236,490a187.81,187.81,0,0,0,18-39.72,290.12,290.12,0,0,0,14.4-83.88q1.44-64.26-.48-128.28l-4.2-128.16c-.24-6.84-.12-13.56.24-20.28q.9-14.94-6.48-23.4a7.43,7.43,0,0,0-2.16,4.92,23.1,23.1,0,0,0-3.48,4.08Zm53,5.4q-2,33.12-3.24,66.24-9.72-39.24-19.8-76.56A267.48,267.48,0,0,0,279,117.6,250.54,250.54,0,0,0,280.8,163l.6-1.68c2.4-22,4-43.8,4.56-65.76a429.7,429.7,0,0,0,20.52,72.24l.6-.84a556.2,556.2,0,0,0,3.84-96.6,1,1,0,0,0-.72.24c-2.88,2.52-3.48,5.64-1.8,9.48Zm53.76,313.44q-7.56,17.64-25.56,23.76,1.08-25.56.72-50.76c14.52,1.2,23,9.36,25.44,24.48A9.62,9.62,0,0,1,361.92,395.16Zm1.68-13.68c-4-14.28-13-21.6-26.76-21.84a1428.63,1428.63,0,0,0-13.68,142.44,65.65,65.65,0,0,0,1.2,16.08c12.84,3.72,23.4.72,31.44-9,11.88-14.16,17.28-31.08,16.2-50.88a43.72,43.72,0,0,0-12.48-29.16l-2.4-2.28-2.52-2.16-2.88-1.92C364.32,411.72,368.28,397.92,363.6,381.48Zm-6.48-99.24q.72-28.26-21.6-4.56c-11.64,12.48-17.4,27.36-17.4,44.52.12,16,7.56,24,22.32,24.36A16.46,16.46,0,0,0,348,345l.84-1.44,2.28,12.6a86.62,86.62,0,0,0,4.08-41.76l-14.28,1.68v6.48l10.8,4.08-2.16,9.12L348,332.88c-24.6,1.32-31.32-11.76-20.28-39.48,5-12.6,14.16-17.64,27.24-15.24Zm-4-96.12c-2,9.48-8.28,14.16-18.48,14l1-18.48,12.84-1.2,3.24,3Zm67.2-92.28a34.34,34.34,0,0,1,25.8-1.08c-3-19.08-13-22.68-29.88-10.56-11,7.8-17.4,18.48-19,32.16-1.56,13.32-2.88,26.52-4.08,39.72s-2.4,26.64-3.36,40l-1.56,26.76-1,30.12c-.12,11.52-.48,22.44-1.08,32.64l-1.56,33.24-1,33.12-.6,32.28v32c0,10.68-.12,21.36-.48,32a131.37,131.37,0,0,0,5.76,43.2c5.52,18,16.92,24.72,34.08,20.16q25.38-7,27.72-31.68a49.41,49.41,0,0,0-3.12-23.4c1.68,12.36-3.12,23.4-14.28,32.88-10.2,8.64-21,9.72-32.28,3.24-.84-.6-1.68-1.2-2.4-1.8l-2-2.28-.72-1.44-.48-1.32c-1.56-9.84-2.64-19.8-3.36-29.76l-.72-9.48-.6-9.36-.36-9.48-.48-19.08V377.52c.24-28.92,1.2-58,2.88-86.88a63.65,63.65,0,0,0,32.52,1.92,13.78,13.78,0,0,0,1.44-10.2,8.75,8.75,0,0,0-1.92-4l-31.2-.24Q387.9,184.92,415.8,98.64A7.5,7.5,0,0,1,420.36,93.84Zm-61.44-4.56c-1.2,20.64-2.64,41.16-4.2,61.68l-.6-.84a661.35,661.35,0,0,1-27-82c-1.56.48-2.4,1.8-2.4,3.84q1.44,48.06-1.68,94.92a4,4,0,0,0,2.28-3.48,455.83,455.83,0,0,0,5-62.52A486.87,486.87,0,0,0,355,168.84a6,6,0,0,0,2.64-4.56c2.52-21.48,4.8-43.2,7.08-64.92,1-9.24-.48-16.44-4.32-21.72l-.48.84c-1.44,3.24-1.68,5.4-.84,6.72Zm110.16-7.56a126.26,126.26,0,0,0-2.52,27.6c.12,43.32-.6,86.28-1.92,129.12-1.32,42.6-2,85.32-2.4,128.28q-.18,64.26-4.68,128.16l-.24.24c-.84-.12-1.2.48-1.08,1.68v.84l.72,1.56c-1.92,6.36-.6,11,4.08,14l1-1.32a12.65,12.65,0,0,0,4.68,9.72,16.45,16.45,0,0,0,11-.6,115.74,115.74,0,0,0,50.16-41.88A274.33,274.33,0,0,0,565.56,396a348.47,348.47,0,0,0,9.36-127.08,696.69,696.69,0,0,0-25-124.8q-18.18-60.84-79.2-73.8a6.35,6.35,0,0,0-2.76,5.4A12.21,12.21,0,0,0,469.08,81.72Zm89.4,123.12a702.78,702.78,0,0,1,10.08,95.28,288.55,288.55,0,0,1-6.36,71.76,244.73,244.73,0,0,1-58.92,114.6c-10.44,11.52-22.92,16.8-37.56,15.84l.36-3.36q3.06-64.08,2.88-128.28-.18-64.8,2-129.12.72-20.16,1.8-39.6A925.71,925.71,0,0,0,472,85.08l.48.48Q531.3,101,548.16,160.32A435.14,435.14,0,0,1,558.48,204.84Z" transform="translate(-23.12 -60.84)"/></svg>