<svg id="Layer_1" data-name="Layer 1" xmlns="http://www.w3.org/2000/svg" viewBox="0 0 514.92 446.78"><defs><style>.cls-1{fill-rule:evenodd;}</style></defs><path class="cls-1" d="M81.12,299.64a255.84,255.84,0,0,0-4.92,55.68c.84,43.56.6,86.64-.72,129,23.4,1.08,46.2,1.08,68.64,0,3-5.16,2.76-10.08-.72-14.64-21.12.12-42-.36-62.52-1.32a311,311,0,0,0,2.52-39.72q-.18-65.34-1.68-129.12Zm-12-207q28.26-6.48,48.12,14.16a160.11,160.11,0,0,1,25.32,34.92A79.92,79.92,0,0,1,152,187.08a87.79,87.79,0,0,1-14.52,42.36,85.65,85.65,0,0,1-36.24,31.32,76.83,76.83,0,0,1-39.72,7l7-165.72,1.32-2.64Zm18.6-11.76a56.73,56.73,0,0,0-25.44,3.84,13.21,13.21,0,0,0-.6,4.8,15.38,15.38,0,0,0,.6,3.24l.24.84,1.68.24,1-.24c-3.24,33.72-5.52,67.56-6.84,101.76l-2.88,73.32a10.29,10.29,0,0,0-.6,3.24,9.6,9.6,0,0,0,.36,3.72l-2.16,48Q50.16,387.9,45.48,451.8c-.84,11.88.6,22.68,4.32,32.28a2.06,2.06,0,0,0,1-1.44,583.3,583.3,0,0,0,4.8-60c1.32-42.6,3-85.44,4.8-128.28l.6-13.2a15.7,15.7,0,0,0,7.56,1.08q51.84-4.5,77.76-50.52A80.46,80.46,0,0,0,156.72,194q.9-55.26-35.76-96.6A16,16,0,0,0,114.6,90a146.49,146.49,0,0,0-15.84-8.76Zm202.32,0q-1.62,64.26,1.8,129.12,2.88,56.34,2,112.8a447,447,0,0,1-20.16,127.56c-6.12,19.56-18.36,32.28-37,38.16q-22.32,7.2-35.64-9.72c-10-12.6-14.76-27.48-14.4-44.52q1.26-63.72,3.12-127.44c1.32-43.08,1.2-86.16-.12-129-.36-10.92-.12-21.72.48-32.4,1.44-22.2,1.92-43.56,1.32-64.2a244.89,244.89,0,0,0-7.32,71.28q2.52,64.44.6,129.12t-4.68,129.12a214.17,214.17,0,0,0,6.72,63.72c6.84,25.8,24.36,36.36,52.32,31.44a20.09,20.09,0,0,0,11.64-6.12q39.6-40.68,43.8-98.4,4.68-63.9,4.56-128.4c-.12-43.08-.48-86.16-1.08-129a370.67,370.67,0,0,0-6.48-64.2C290.64,79.68,290.16,80,290,80.88Zm107.16,297a145.66,145.66,0,0,1-28.68-24.12,97.51,97.51,0,0,1-21.48-37q23.94-16.56,50.64-3.72l13.2,14.52q1.8-31.5-36.36-35.52c-15-1.56-24.12,4.08-27.12,16.68Q340.56,337,361.56,356.4a347.32,347.32,0,0,1,40.68,44.4c11.88,15.6,16.68,33,14.16,52.32a78.85,78.85,0,0,1-13.8,35A24.58,24.58,0,0,1,389,497.64c-21.6,6.12-39.84-1.44-54.6-22.44a47.25,47.25,0,0,1-8.64-23.4,66.62,66.62,0,0,1,.48-16.92q-16.74,19.26,1.8,49.32a85,85,0,0,0,32.28,30.6c13.08,7.08,25.44,5.76,37.2-4.2q22.5-19.08,26.64-49.44a115.09,115.09,0,0,0-9.12-62.4A47.32,47.32,0,0,0,397.2,377.88ZM413.4,79a17.84,17.84,0,0,0-7.2,4.68c-12,12.36-18.72,27.6-20,45.6q-4.68,62.46-6.6,125.88-.9,30.78,27.36,34.2A114.6,114.6,0,0,0,422.76,280c10.44-7.56,16.68-17.28,18.48-29.4a81.1,81.1,0,0,0-18.36,13c-10.56,9.72-21.24,11.16-31.92,4.08a35,35,0,0,1-2.88-13,753.15,753.15,0,0,1,5.4-127.44A67.76,67.76,0,0,1,399,107.64c7.08-15.72,18.48-18.84,34.2-9.12a7.27,7.27,0,0,0,1.08-7.92,17.72,17.72,0,0,0-8.4-9.12l-2.4-.72A28.79,28.79,0,0,0,413.4,79Zm-42.6,1.92c-.48,16.32-.84,32.88-1,49.56a1112.79,1112.79,0,0,1-8,124.2c-3.36-17.88-7.32-35.76-11.88-53.52q-16-62.46-28-125h-.48a712.83,712.83,0,0,0-5.28,72.24q-1.26,46.8-5.52,93.12c-1.08,11.88.24,22.2,4,30.84,1.32-14.88,2.28-29.76,3-44.76q2.88-62.46,5.16-124.68c1.32,9.12,3.12,18.24,5.28,27.36q14.4,62.82,25.44,125.52a110.23,110.23,0,0,0,9.6,30.6,287.14,287.14,0,0,0,7.8-51.12q4-62.28,6.72-125c.48-11.76-1.44-22.08-5.88-30.84A2,2,0,0,0,370.8,80.88ZM559,72.48c-5.16,7.44-7.92,16.32-8.28,26.76q-2.34,64.26-2.76,129.12l-.24,38.4q-40.86,5.94-82,9l.12-3.48q2.34-64.44,4-129.12c.6-22.08.72-43.44.48-64.2-3.72,3.24-5.76,7.8-5.88,13.8-1.44,43.32-3.12,86.52-4.92,129.84q-2.7,64.26-2.28,129.24.36,64.44-.12,129a91.84,91.84,0,0,0,5,32.16l.84-.6c3.6-13.2,4.08-25.2,1.56-35.88V467l.12-129.84q0-26.1.72-51.84a278.69,278.69,0,0,0,82.32-3.84q-.18,38,.24,76c.36,42.6,1.92,85.08,4.92,127.44A121.12,121.12,0,0,0,550.32,501c-.6,7.8,1.44,13,6.24,15.48a36.34,36.34,0,0,0,3.24-15.36q-.36-52.74-3.24-105.6-3.42-64.44-2.76-129l1.56-129a193.52,193.52,0,0,1,3.12-32.28A94.2,94.2,0,0,0,559,72.48Z" transform="translate(-45.25 -72.48)"/></svg>