<svg id="Layer_1" data-name="Layer 1" xmlns="http://www.w3.org/2000/svg" viewBox="0 0 567 586.2"><defs><style>.cls-1{fill-rule:evenodd;}</style></defs><path class="cls-1" d="M275.4,508.08a8.06,8.06,0,0,1,.36,2.76,9.36,9.36,0,0,1-.36,2.88l-1,2c-16.2-.36-27.24.36-33,2l-3.6,1.32v2.16q0,4.5-1.08,15.12l19.2,1.32a6.14,6.14,0,0,1,2.76,2.76l.84,1.8a5.31,5.31,0,0,1-.84,2.88,6.7,6.7,0,0,1-3.84,3.36l-13-1-6.36-.84L230,587.16v.36l-3-.36c-.36-3.24-.6-5.52-.6-6.84,0-7.44,1-19.56,3-36.36l-.24-.36a8.21,8.21,0,0,1-.6-3.24,9,9,0,0,1,0-2.64c.12-.6.72-1,1.68-1.2.72-5.88,1.44-10.68,2.28-14.64l-1.2.36a39.27,39.27,0,0,1-.48-6.48,15,15,0,0,1-.12-3.12,3.21,3.21,0,0,1,2.16-2.52c3-1.68,11.28-3.36,24.72-4.92v-.48l9,.6,7.44.72Zm28.8-2.64,14.52-.6,9.24-.72,1.2-.36,8,.12c3,2,4.56,4.08,4.56,5.88l.24,3a2,2,0,0,1-1.56,1.92c-2.28.84-10,1.32-22.8,1.32l-12.72-.12c0,1.32-.24,3.6-.6,6.84l-1.56,8.52v8.16l13.32-.6c0-.36,6.6-.48,19.68-.36l1.32,2.16a8.06,8.06,0,0,1,.36,2.76,9.36,9.36,0,0,1-.36,2.88l-1,2-22.8,1.32-10.56-.12v23.88l-1.08,4.92-1.32,4.56v.36a12.17,12.17,0,0,1-2-4.68,18.91,18.91,0,0,1-.36-3.36c0-4,.36-12.6,1.2-25.8H299l-.84-2-.24-2.88a13.58,13.58,0,0,1,.24-2.76,5.64,5.64,0,0,1,1.08-2h.48v-.72c.84-12.84,1.44-21.48,1.8-26a10.23,10.23,0,0,1-.36-2.76l.12-2.16A3.5,3.5,0,0,1,304.2,505.44ZM266,434l-3.84.24-4.08.6-5.16-.24c-.36,4.2-1.92,12.84-4.44,26.16h5.88l5.16-1.56a3.84,3.84,0,0,1,1.56-1.92l1,1.08,8.52-3c4-1.8,6-4,6-6.36q0-2.34-4.32-8.64C269.4,436.2,267.36,434.16,266,434Zm-16.56-9.24c12-4.44,20.88-1.92,26.52,7.44a33.64,33.64,0,0,1,5.16,18A19.92,19.92,0,0,1,276.6,463a21.51,21.51,0,0,1-5.88,5l8,8.64c9.48,10.68,14.28,17.16,14.28,19.2a7.5,7.5,0,0,1-.48,3l-.84,2q-3.42-2-17.28-16.56A133.72,133.72,0,0,1,263,470.76l-9.24,1-7.32-.24Q242,494.34,240,499.56h-2.16a32.72,32.72,0,0,1-.48-5.28q0-4.86,3.6-24.84c-1.68-2-2.52-3.72-2.52-5.28a17.88,17.88,0,0,1,.72-5.16l1.08-.84a4.45,4.45,0,0,1,2.52,1.92q3.42-17.64,5.76-27l-.12-.48-.24-2.88a13.58,13.58,0,0,1,.24-2.76ZM242.76,335c1.32.6,2,3.12,2.4,7.32l.24,8c0,8.52-.6,18.72-1.68,30.48L240.24,411v.36l9-1,6.24-1,5,.24,5.76.6,31.68.48,4.2.36,4.44.48.48,4.08a13.36,13.36,0,0,1-2.4,6.24l-7.32-.84-16-.36L265,420l-4.44.24-4.56.6-4.68.24-5,.84-4.2.24c-2.88.36-4.32.6-4.44.84a11.77,11.77,0,0,1-2-4.44,24.24,24.24,0,0,1-.36-4c0-5,.84-15.72,2.64-31.92A387.9,387.9,0,0,0,240.6,341a11.52,11.52,0,0,1,.72-4C241.68,335.88,242.16,335.16,242.76,335ZM265,245.4c0,25.92-1.08,48.36-3.24,67.44v6.48H262c2.64-11.76,5.88-28,9.84-48.72,4.44-23,7.56-39.24,9.6-48.72l1.08-.84q3.6,10.62,4.32,28.44c.72,15.84,1.32,25.68,1.92,29.52.36,2.28,2.52,12.36,6.48,30.12,3.6,16.2,5.4,25.44,5.4,27.48a13.72,13.72,0,0,1-.36,3.36l-1,2.88c-5.64-18.6-9.72-34.56-12.48-48.12-3.48-17.88-5.28-34.08-5.16-48.72l-.24-.6c-2.16,10.32-5.28,26.28-9.24,47.88-4,19.32-7.92,35.52-11.88,48.48l-2.88-.24-.48-2a19.53,19.53,0,0,1-.12-2.88c0-9.12.72-23.4,2.16-43s2.16-33.84,2.16-42.72L260.88,240C249,282.6,238.8,317.16,230,343.68h-1.92a37.66,37.66,0,0,1-.6-6.12c0-1.2,2.52-9.72,7.68-25.56,5.64-17.76,9-29.16,10.2-34.08,3-14,5.28-24.48,7.08-31.2,3-11.64,6.6-20.52,10.8-26.4C264.36,225.72,265,234,265,245.4ZM94.2,250l-4.32,23.88c12.36.36,20.28,1.32,23.64,2.88,1.2.48,1.92,1.08,2,1.92v1.68a9.36,9.36,0,0,1-.36,2.88l-1,2-8.16-.6-8.88.24-9,.6q-1.62-.9-2.16-4.68l-.24-5.28c0-7,1-17.16,3-30.72,1.44-9.84,3-19.08,4.8-27.72,1.32.12,2.28,1.2,2.88,3.12a14.68,14.68,0,0,1,.72,4.92C97.2,231.12,96.24,239.4,94.2,250ZM114.72,92.64v27.6l.12,26.28c-.36,6.6-1.8,16.92-4.44,31-.36,2.52-1.92,6.24-4.44,11.4a109.42,109.42,0,0,1-10.8,17.76c-11.88,15.72-24.84,23.64-38.88,23.64-10.92,0-18.48-.72-22.68-2.28v41.28c-.72,4.32-1.08,11.16-1.08,20.64q0,18,2.16,52.92t2.16,51.84q0,23.22-9.12,108.6-9,84.78-11.52,87.12c-.6-.84-1.2-2.64-1.56-5.52a30.83,30.83,0,0,1-.6-4.68q4.68-38.16,9.24-80.4,9.18-84.24,9.24-105.48c0-11.64-.72-29.16-2.16-52.44s-2.16-40.56-2.16-52a239,239,0,0,1,1.08-26.4V198.6a128.45,128.45,0,0,0,1.08-19.44,131.37,131.37,0,0,0-1.08-19.56V63A178.69,178.69,0,0,1,26.4,37.92Q26,30.72,26,18.84l-.6.12a10.55,10.55,0,0,1-1.68-6.12,9.94,9.94,0,0,1,.48-3.72,8,8,0,0,1,2.88-3.48l4.44.24,5.28.6C73.44,9,97.08,25.56,108,56.16,111.72,66.6,114,78.72,114.72,92.64ZM90.36,39.72c-10-10.2-28.44-17.4-55.68-21.36l-2.88.12a74.76,74.76,0,0,1,.84,13.2L32.4,44.52a57.68,57.68,0,0,0,1.2,12.84V154.8c.72,5.4,1.08,13.68,1.08,24.72S34.32,199,33.6,204.36V215a4,4,0,0,1,1.8,1.2,3.31,3.31,0,0,0,2.52,1.32q53.46,0,68.16-46.8A114.43,114.43,0,0,0,111,137.52l-.6-17.16L110.28,94a83.68,83.68,0,0,0-6.36-27.12c-2-5.88-3.6-10.32-4.92-13.32A45.1,45.1,0,0,0,90.36,39.72ZM237.24,17.16l.12-1.44V15c.12-.36.72-.6,1.8-.6l3,.12a5.73,5.73,0,0,1,1.92,1,78.59,78.59,0,0,1,.6,8.4c0,3.6-2,24.48-6,62.64l-8.16,78.24q-2.88,26.82-5.4,69.84l-4.32,70.68c-1.32,19-2.64,42.24-3.72,69.72l-2.76,70.68q-1.8,48.06-12,84.6Q187.56,583.2,160.2,583.2c-17.88,0-29.76-11.28-35.88-34-2-7.2-3.48-16.2-4.44-26.88L118,502.56c-1.92-11-2.88-27.72-2.76-49.92l.6-32.16q0-27.54,6.36-153.72l6.6-124.68v-52q2-29.52,3.6-44.28c2-17.28,5.28-29.52,9.72-36.6a8.8,8.8,0,0,1,1.92,6c0,5.16-1.68,18.72-5,40.8-3.72,25-5.64,38.28-5.88,40.08V148.8L126.6,269q-6.48,122.58-6.48,151.32l.12,24.48c.24,18.84,1.08,36,2.4,51.48q6.3,74.16,25.68,74.16,43.38,0,56.16-61.92c2.76-13,4.32-28.2,4.92-45.72.24-15.84.48-25,.84-27.48q3.42-25,4.2-68.4c.6-35,1.2-58.2,2-69.6Q237,40.86,237,20.52ZM306.6,70.92a14.71,14.71,0,0,1,1.56,7.32q0,10.08-7.32,70.32c-4.92,39.24-8.28,64-10.2,73.92v.24Q280,195.9,273.36,155q-6.48-45.54-11.16-68.16l-.24-.6c-2.28,14.64-4.8,37.08-7.8,67.32q-5,40.5-15.48,68a4.88,4.88,0,0,1-1.92-1.92,8.39,8.39,0,0,1-.48-3.24c0-3.48,2.16-15.48,6.6-35.76,4.68-21.24,7.08-34,7.44-38.16,1.32-16.92,2.4-29.64,3.24-37.92,1.56-14.52,4.44-26.16,8.64-34.8a267.19,267.19,0,0,1,8.4,34.08c1.32,7.32,3,18.6,5,34.08q6.12,45.18,13.92,68.16v.36q4-35.46,16-135.36Zm58,311.28c0,.48-.24.72-.84.72l-11.88-.84q-11.16,0-17.28,9c-2.76,4-4.2,7.32-4.2,10.08,0,1.32,1.56,3.6,4.68,7L345.24,419c10,11.4,14.88,22.08,14.88,32a40.22,40.22,0,0,1-4.8,19.44c-5.4,10.2-14.28,15.24-26.76,15.24L312,485.52a20.73,20.73,0,0,1-5.76-5.88c-1.92-2.76-2.88-5.28-2.88-7.44l.12-3,.12-1.08.6-.48,1.08-.84c1.08.6,2.28,2,3.48,4.32a8.34,8.34,0,0,0,4.08,4.08c16.44,1.32,28.56-1.8,36.24-9.12,4.92-4.56,7.32-9.48,7.32-14.76q0-6.3-4.68-13c-1.92-2.76-5.4-6.6-10.44-11.76s-8.64-9-10.44-11.76c-3.24-4.44-4.8-8.76-4.8-13,0-7.92,2-14.4,6-19.56a26.72,26.72,0,0,1,13.2-8.88,23.78,23.78,0,0,1,13.2-.48c4.08,1.2,6.12,3.12,6.12,5.88ZM356.4,272.52A53.63,53.63,0,0,0,355,261.84a88,88,0,0,0-5-15c-5.16-11.4-12-17.28-20.4-17.88l.24,5.52.12,17.88c0,7.8-.84,24.48-2.4,50.16,12.12,1.92,20.64-2,25.32-11.76C355.2,285.72,356.4,279.6,356.4,272.52Zm3.84,6.72a58.9,58.9,0,0,1-1.92,13.8c-3.6,13.08-11.4,19.56-23.28,19.56l-7.92-.36-.24-.6-.6,9q-3.6,55.26-5.4,63.36a9.5,9.5,0,0,1-1.92-4.56,12.72,12.72,0,0,1-.48-3.48q0-11.34,7.56-97.8V229.44a11.13,11.13,0,0,1-1.08-6.6,8,8,0,0,1,1.92-4.8q-17.82-1.62-23-12.6a21.41,21.41,0,0,1-1.92-9.36l.36-5.28a62.68,62.68,0,0,1,4.08-22.92c3.72-10,9.48-16.32,17.28-19.32,7,.12,12.24,2.52,15.72,7.32,2.28,3.24,3.48,6.36,3.48,9.48a9,9,0,0,1-.48,3.12l-.84,2.28-4.92-6.12c-3-3.72-5.52-5.52-7.56-5.52-8.52,0-15,5-19.2,15.12C307.32,180.36,306,186,306,190.92c0,4.44,1,7.8,2.76,10.08q5.22,6.84,19.8,6.84a33.63,33.63,0,0,0,12.24-2.16l7-2.76,1.2,2a9.36,9.36,0,0,1,.36,2.88c0,2.64-1.68,5-5.16,7.32A18.3,18.3,0,0,1,334,218.4h-.36c2.88,1.44,6,4.32,9.48,8.64A79.35,79.35,0,0,1,354.84,247a66.66,66.66,0,0,1,5.28,25ZM495,186.36c-2.52,16.68-3.72,29.28-3.84,37.68l-1.08,72.6c0,12.6.72,35.28,2.16,68.16s2.16,53.76,2.16,62.64q0,35.1-4.56,79.92c-1.44,14.76-4,36-7.68,63.84Q532,545.82,557.52,467.52a398.86,398.86,0,0,0,15.36-68,424.74,424.74,0,0,0,4.32-58.92,321.64,321.64,0,0,0-2.28-32.16,448.06,448.06,0,0,0-10.68-61.56q-21.24-83.16-66-86.76Q497.34,170.34,495,186.36Zm-4.08-29.64-.36-3.6a10.09,10.09,0,0,1,1.44-5.4l2.28.24a8.6,8.6,0,0,1,2.76-3.48,9.36,9.36,0,0,1,1.56,4.08q45.36,8.46,67.2,83a376,376,0,0,1,12.24,63,385.15,385.15,0,0,1,3,46q0,74-20.4,135.24-26.28,79.2-80,107.64l-.6,4.08a10.11,10.11,0,0,1-1.56-3l-3.84,1.92c-2.28-1.8-3.48-3.6-3.48-5.64a11.4,11.4,0,0,1,1.32-6l5.16-6a4.32,4.32,0,0,1,1,1.44l1.08-9.36,4.44-37.56q6.48-58.5,6.48-96c0-5.16-.72-25.08-2.16-59.88s-2.16-58.32-2.16-70.8q-.9-54.9,0-86.88c.6-24.12,2.28-41.52,4.8-52.44ZM405.24,212q-.9,7.38-1.8,16.92v43.8q-.54,13.86-6.84,64.44l.6-.24c22.8-2.28,36.6-3.12,41.52-2.52,2.16.36,3.36,1,3.72,1.92a7,7,0,0,1,0,3.24l-.48,3.24-.84,2.16c-10.08-2-18-2.52-23.64-1.56-7,1.92-13.56,3.48-19.68,4.8l-2.4-1.44q-5.94,47.88-6,70.44c0,10.2.12,18.72.48,25.68a250.33,250.33,0,0,0,2.76,25.44V522a195.16,195.16,0,0,1,2.52,19.92,190.2,190.2,0,0,0,2.64,19.2c3.12,13.44,10.2,20.16,21.12,20.16l8.88-.24c4.44-3,11.88-10.32,22.32-21.72,11.16-12.24,16.68-19.92,16.68-23.16a11.08,11.08,0,0,0-1.08-3.84,11.08,11.08,0,0,1-1.08-3.84l.12-3,.12-1.08.12-.48c.12-.36.72-.6,1.8-.6,2.16,0,3.48,2,3.84,6a33.42,33.42,0,0,1-.12,6c0,7.68-4.56,17.76-13.56,30.24-9.48,13.08-19.08,21.84-28.92,26.28-13.2-3-22.68-7.32-28.44-12.72-4.68-4.2-7.2-9.72-7.8-16.56-.12-2.4-.12-5.4,0-9.12l.6-9.12c.24-7.32-1-13.08-3.6-17.4V472.44c-1.68-13.44-2.64-23.28-3-29.4-.12-2.76-.24-11.4-.24-25.8,0-16.44,2.16-41.88,6.48-76.08q7-56.34,7.68-72.48v-43.8c1.08-8.64,2-15.24,2.88-19.92a144.91,144.91,0,0,1,4.56-20.88c5-16.08,13.68-28.68,25.8-37.68l6.72.24q11,6.84,13,9c1.8,1.92,2.76,4.92,2.76,8.88a16.93,16.93,0,0,1-1.32,7.08v.24l-3-.24c-1.56-9.72-5.52-14.64-11.88-14.64-13.56,0-23.4,10.32-29.4,31A157.53,157.53,0,0,0,405.24,212Zm-14.76-63.36V190c-.36,16-1.92,29.4-4.56,40.32-1.32-2.64-2-6.6-2.28-11.88-.12-1.68-.24-6.12-.24-13.2,0-9.6.24-17.52.6-23.76a34.48,34.48,0,0,0-11,4.68l-3.24,2.76a13,13,0,0,1-3.84,2l-.24,3.48Q362.22,227,361,232.2v.24q-1.62-.9-2.16-4.68l-.24-5.28q0-7.74,3.24-41c2-21.48,3.48-33.48,4.08-36.12a10.67,10.67,0,0,1,3,7.92c0,4.2-.6,13.2-1.92,26.88,2.76-4.08,8.76-7.08,17.88-8.88l.72-16.08c.36-7,1.44-12,3.24-15C389.88,142.08,390.48,145,390.48,148.68Zm18-139.56a8.06,8.06,0,0,1,.36,2.76,9.36,9.36,0,0,1-.36,2.88l-1,2L361,17.28l-5.16,1.08v1c0,8-3.36,51.84-10,131.64v.36c-.84-1-1.44-3.36-1.92-7.2a48.55,48.55,0,0,1-.48-6.6c0-16,2.88-55.44,8.76-118.68l-11.88,1.32-24.84,1.2L299,21.12l-.84-2L298,16.2a13.58,13.58,0,0,1,.24-2.76,6.78,6.78,0,0,1,1.08-2,338.25,338.25,0,0,1,38-.24l7.56-.6,16.68-3.84,45.72.36Z" transform="translate(-14.04 -5.64)"/></svg>