<svg id="Layer_1" data-name="Layer 1" xmlns="http://www.w3.org/2000/svg" viewBox="0 0 449.34 337.92"><defs><style>.cls-1{fill-rule:evenodd;}</style></defs><path class="cls-1" d="M146.88,139.56A57.11,57.11,0,0,1,171,178c2.76,15.72-1,30-10.92,42.6a61.35,61.35,0,0,1-37,22.92A29.52,29.52,0,0,1,104,241.2a901.49,901.49,0,0,0,2-106.56C119.88,128.28,133.56,129.84,146.88,139.56Zm-32-22.32a34.75,34.75,0,0,0-9.36,4.92V121a7.8,7.8,0,0,0-3.72,4.56l-.84.84-.36,3.24a7.51,7.51,0,0,0,.36,3.24l.12.48q-.9,53.82-4.44,108h-.24l-.24.84a21.78,21.78,0,0,0-1.2,7.32,10.85,10.85,0,0,0,.84,4.44l-.24,3.72q-4.68,63.9-7.44,128.16A319.47,319.47,0,0,1,85,418.08c-1.56,10.44.24,18,5.64,22.68A562.62,562.62,0,0,0,96,376.68c1.32-39.84,3.48-79.44,6.72-118.92,17.16,2.76,33.36-1.56,48.72-12.72,19.08-13.92,28.08-33.24,27.24-57.84-1.44-38.52-20.64-62.76-57.48-72.48Zm95.88,8.64q.36,45.9-1.8,91.68-3.06,64.44-7.8,128.28c-.6,8-1.56,16.08-2.64,24.12a236.31,236.31,0,0,0-1,64.32,288.52,288.52,0,0,0,96.36,11.88c3.72-5.28,4.08-10.92,1.08-17a7.83,7.83,0,0,1-2.52-1.92q-48.6,5.22-90.12-9.12c1.32-13.32,2.4-26.52,3.24-39.84q3.78-64.08,8.64-128.16a817.37,817.37,0,0,0-.48-128.28C211.68,122,210.72,123.36,210.72,125.88Zm146.4,57.6a341.58,341.58,0,0,0-3.72-64.2l-3.24,1.08a456.28,456.28,0,0,0-1.32,60.12c1.68,42.84,2.64,85.8,2.76,129.12a86.89,86.89,0,0,1-13,46.44c-9.72,16-23.52,23.52-41.52,22.8a18.4,18.4,0,0,1-13.68-6.24,48,48,0,0,1-11.16-22.32,299.39,299.39,0,0,1-5.52-71.88q2.88-64.44,8.64-128.16a96,96,0,0,0-2.16-32.52h-.48a866.21,866.21,0,0,0-9.48,103.92c-.6,21.24-1.8,42.6-3.48,64a227.69,227.69,0,0,0,7.68,80.28c4.44,16,14.28,25.68,29.52,29a19.47,19.47,0,0,0,11.16-.6c30.6-11.16,46.44-33.12,47.76-65.64q2.52-64.44,1.08-129C356.88,194.16,356.88,188.76,357.12,183.48ZM411.48,118l-1.08.6a737.36,737.36,0,0,0-23,115.08,1163.68,1163.68,0,0,1-22.44,126.24,500.86,500.86,0,0,1-19.2,62.52c-3.84,9.84-2.88,17.52,2.76,22.92a576.31,576.31,0,0,0,22.32-76q10.26-46.8,17.52-93.84,7.38-47.34,16-94.56,4.14-22.32,6.48-43.92A159.3,159.3,0,0,0,417.48,178a444.16,444.16,0,0,1,13.44,62.64,384.66,384.66,0,0,0,12.84,58v.24l.36,1,1,3c1.44.24,2.28-.36,2.4-1.68l.24-1.68a287.81,287.81,0,0,0,13.56-43.68l20.76-93,2-10.2L485.16,163q3.42,25,7.2,49.68,6.48,42.66,12.48,85.56,9,63.9,18.48,127.2c1.32,9.48,4.44,16.8,9.12,22.08a4.43,4.43,0,0,0,1.32-3.24A431.44,431.44,0,0,0,524.52,367q-13.32-62.64-20.76-126.12C499.2,201.12,493.44,161.76,486.6,123l-.12-7.68-1,1.44-.36-2-.48,3.48a77.7,77.7,0,0,0-8.88,25.08q-8.1,46.62-19.56,92.52c-3.48,13.8-6.36,27.48-8.88,41.16-.36-2.52-1-5.16-1.56-7.8l-8-34.2q-15.3-62.46-25.2-125.4Z" transform="translate(-84.42 -109.56)"/></svg>