<svg id="Layer_1" data-name="Layer 1" xmlns="http://www.w3.org/2000/svg" viewBox="0 0 385.63 325.22"><defs><style>.cls-1{fill-rule:evenodd;}</style></defs><path class="cls-1" d="M142,140.52c11,12.36,14.76,26.52,11.28,42.6-3.12,14.64-12.6,24.84-28.32,30.48A87.2,87.2,0,0,1,97.8,219a538.1,538.1,0,0,0,1.8-94.32C116,121.92,130.08,127.2,142,140.52Zm-47.28-23a36.72,36.72,0,0,0-1.92,11L89.16,256.8Q87.36,320.88,85,385l-.12.72a10.35,10.35,0,0,1-1.8-2q-1.26-1.8-1.08,0c.24,10,1,19.92,2.16,30a3,3,0,0,0,3.6,1.68,3.72,3.72,0,0,0,2.28-3,319.27,319.27,0,0,0,3.84-43L97.2,241.08l.12-4.92a113.1,113.1,0,0,0,37-7.32c14.16-5.28,22.8-15,25.92-29a96.68,96.68,0,0,0,0-43.08q-9.36-41.94-50.88-49.8a48.65,48.65,0,0,0-9.48,2.16,7.49,7.49,0,0,0-4.08,3,15.88,15.88,0,0,0-1,4Zm176.16,33.24c2.76,35.28,5.76,70.44,8.76,105.6a94.75,94.75,0,0,0-33.84,6.24q8.82-39.6,16.92-79.2c2.16-10.68,4.68-21.12,7.68-31.32Zm-22,52.8c-1.8,10.44-3.84,21-6.12,31.44l-7,31.32-7.08,31.2A290.78,290.78,0,0,1,217,336a93.53,93.53,0,0,0-6,43.2c.36,3.72,1.8,5.16,4.08,4.08l27.24-105.72,38.88-3.72a589.33,589.33,0,0,0,15.36,142.8c6.12-12.24,7.8-26.64,5.28-43.32-5.64-35.76-9.72-71.64-12.48-107.64l-.24-3.12-1.56-16.2-2.88-32c-1.8-21.24-4.08-42.36-6.72-63.6L274.08,119l-1.2.84a173.6,173.6,0,0,0-14,37.32C255,172.56,251.64,188,248.88,203.52ZM179.64,140.4c.36,43.08-1.32,85.8-5.16,128.4-3.72,42.84-7.32,85.32-10.56,127.56q-1.62,10.62,3.24,18.72c.72-.24,1.2-.6,1.32-1.08a330.83,330.83,0,0,0,63.6-1.44l1-.84c3-6,2.76-11.64-1-16.92-20.4,1.08-40.32,2.88-59.88,5.52A170.51,170.51,0,0,0,175.56,373c1.56-42.84,3.84-85.68,7.08-128.4s4.56-85.44,3.72-128.16C181.8,122.76,179.52,130.68,179.64,140.4ZM352.8,121.2a20.52,20.52,0,0,0-6.48,6c-13.56,19.08-18.12,40.8-13.8,64.92A219.27,219.27,0,0,0,346,237.24,302.72,302.72,0,0,1,370.2,360.12a57.55,57.55,0,0,1-6.36,26c-8.76,16.8-22.2,23-40.56,18.6l-.6.48-1.2.48-1.44.36a14.9,14.9,0,0,0-3.6,11.4,11.82,11.82,0,0,0,5.28,8.88l18-1a25.83,25.83,0,0,0,13.92-5.4c16.2-12.36,24.6-29,25.44-50a311.66,311.66,0,0,0-19.8-122.4,556,556,0,0,1-19.56-62.16q-7-27.9,11.16-47.64c10.56-2.28,18.6,1.08,24.12,10l.48-.84C377.76,130.68,370.2,122.16,352.8,121.2Zm53.28,18.12q.18,53.82-1.32,108l-.48,18a11.59,11.59,0,0,0-.36,8q-1.8,51.48-5.28,103.08a97.43,97.43,0,0,1-2.4,15.72c-2.76,12.36-1.8,23.28,3.12,32.64a13.91,13.91,0,0,0,5.16-10.2c.84-10.44,1.44-21,2-31.68,2-35.4,3.72-71,5.28-106.68a136.45,136.45,0,0,0,44.76.48c-2.28,42.6-5,84.84-8.28,126.48-1.92-1.08-2-.36-.48,2.4l-.12.84a51.93,51.93,0,0,0,.84,25.08c1.68,1.08,2.64.72,2.88-.84q8.1-56,11.76-113.52c.84-15.48,1.68-31,2.4-46.44l.12-3.24c1.08-26,1.68-52.32,1.8-78.6.12-22,0-43.32-.48-64.08-4.68,6-7.08,13.56-7.08,22.68q.18,56.34-2.52,112.68l-45,2.16.24-7.68a1169.26,1169.26,0,0,0-1.92-128.28Q406.08,130.86,406.08,139.32Z" transform="translate(-81.94 -106.92)"/></svg>