<svg id="Layer_1" data-name="Layer 1" xmlns="http://www.w3.org/2000/svg" viewBox="0 0 294.55 212.39"><defs><style>.cls-1{fill-rule:evenodd;}</style></defs><path class="cls-1" d="M297.6,340.56,312.24,374c-12.6,8.76-25.32,9.24-38.28,1.68a13,13,0,0,1-6.12-7.8c2.52-16.08,11.64-25.2,27.12-27.24Zm-17.28-48.12-2.76,1.68V305.4A31,31,0,0,1,292,324.6c-21.12,6.12-30.48,21.24-28,45.6,2.28,22.68,14.52,31.56,37,26.52a36.77,36.77,0,0,0,18.24-9.84l8.16,13.56Q318.18,345,286,295l-1.56-.84Zm-112.8-3.72a672.27,672.27,0,0,0-3.72-79.8c12.72,0,23.88,4.44,33.6,13.32,8.4,7.8,12.12,17.28,11,28.44q-3.6,38.52-40.92,41.88Zm18.12-90.12a40.73,40.73,0,0,0-21-2.76l-2.28.6-1-3.48-.84,4.2-3.12,1.44a19.93,19.93,0,0,0-.72,6.48,5.65,5.65,0,0,0,1.8,4.08q-4.14,94.5,0,188.28L167,308.76c19.44.72,33.48-8.52,42.24-27.6a85.94,85.94,0,0,0,5-13.44l1.2-5.4.72-5.28v-8a69.33,69.33,0,0,0-8.88-31.08L204,212.16ZM377.76,305.16a43.39,43.39,0,0,0,24.36-4l.24.72a10.72,10.72,0,0,0,6.72,0c15.84,4.08,26.52,13.32,32,27.84,5.28,14,2.64,26.16-7.8,36.12q-24.12,23.4-59.52,18a358,358,0,0,0,4.32-62.4ZM373.2,198.72l-.36-5.52c-3.48,8.52-5,18.36-4.44,29.52q3.42,64.62.48,129a104.48,104.48,0,0,1-1.68,16,52.93,52.93,0,0,0,.12,22.2L367.2,392a16,16,0,0,0,2.16,8.16c25.32,6.36,47.4,1.68,66.24-13.8A58.74,58.74,0,0,0,451,348.24q1.26-42.12-34.32-56.64c11.16-10,16.32-23.16,15.6-39.36-1.44-31.56-16.68-52.2-45.84-61.68l-6.48.72A14.93,14.93,0,0,0,373.2,198.72Zm1.2,11c11.64-8.64,23-7.56,34.32,3.24q28.62,27.36,10.44,60.6c-12.36,10.44-26.28,16-41.76,16.68C376.56,263,375.48,236,373.92,209Z" transform="translate(-156.45 -190.56)"/></svg>