<svg id="Layer_1" data-name="Layer 1" xmlns="http://www.w3.org/2000/svg" viewBox="0 0 578.52 568.56"><defs><style>.cls-1{fill-rule:evenodd;}</style></defs><path class="cls-1" d="M69.6,381.6q-.18,26.46-7.92,81l1.32.24c21.24,0,37-3.36,47.16-10,10.8-7.08,16.2-18.24,16.2-33.72a35,35,0,0,0-1.2-8.28,51.47,51.47,0,0,0-5.28-13.2C113,385.92,102.6,380,88.44,380l-16.32.72A7.79,7.79,0,0,0,69.6,381.6Zm6.12-14.28c23.4-.12,39.6,7.32,48.48,22.08,4.68,7.92,7.08,17.64,7.08,29.28l.12,10.92A55,55,0,0,1,127.2,449c-5.52,12.84-15.84,21.12-30.84,24.84,5.88,11.28,13.2,27.24,21.72,47.88,11.64,28.08,17.52,43.44,17.52,46.2a14.57,14.57,0,0,1-1.44,5.28,12.82,12.82,0,0,1-2.64,4.32q-7-10.08-12.24-26.64c-5-16-8.16-25.56-9.36-28.56L95.64,490.44,89,475.2,75.72,476c-7.32,0-12.6-.6-15.72-1.92l-1.32,8.52q-9.54,63-16.44,89.52a14.81,14.81,0,0,1-2.52-9c0-2,2.52-16.2,7.56-42.72,5.4-28.92,8.64-46.68,9.6-53.52.6-4.56,2-20.52,4.44-48,1.32-16.44,3-29.52,5-39.36a13.52,13.52,0,0,1-.6-3.84,7.9,7.9,0,0,1,.6-4.44Q68.52,367.14,75.72,367.32ZM135,73.68Q112.68,33.9,74.16,33.84a87.28,87.28,0,0,0-14.4,1.92L49.2,37.56l-.48-.72q-1.62,26.1-10.2,147.48L35.16,230.4a10.67,10.67,0,0,0,4.92.84q60.66,0,88.8-38.52,21.42-29.16,21.36-75.24c0-2.76-1.08-7.8-3.36-15.36A131.3,131.3,0,0,0,135,73.68ZM124.32,46.92c6.36,5.88,10.56,10.8,12.6,14.52,9,16.2,14.28,26.52,15.6,31C154.2,97.32,155,106,155,118.2a231.27,231.27,0,0,1-2,32.4,124.4,124.4,0,0,1-9,32.64,95.15,95.15,0,0,1-10.08,16.08,133.14,133.14,0,0,1-19,20.4Q86.34,244.38,53,244.44c-8.4,0-14.64-1-18.72-2.76L23,399v54.36c-2.28,32.88-4,54-4.8,63.48-2.28,23.64-5,44.64-8.52,62.88a7.13,7.13,0,0,1-3.24-4.56,36.11,36.11,0,0,1-.24-4.92c0-3.48,1.8-22.44,5.4-56.76,4-36.72,6.12-58.44,6.48-65V394.92Q26.4,313.74,30.6,239.16a6.67,6.67,0,0,1-1.8-4.08l.12-2.52a13.38,13.38,0,0,1,.36-3.24l.72-2.4,1.32-.84.84-17.88q1.26-28.62,5.4-93.24c.6-5.88.84-13.44,1-22.92l.36-23.88c.6-19.2,2.76-34,6.6-44.4A5.78,5.78,0,0,1,48.24,27l.12.12a10,10,0,0,1,2.76-3.24c2.76-2,6.48-3.12,11.4-3.36,11.64-.6,26.88,3.6,45.72,12.48ZM271.08,48,262.8,88.2l-17,80.4L232.2,234.12a42.77,42.77,0,0,1,6.24-1.56l19.44-3.36c10.56-1.8,20.52-3.72,30-5.88,0-.12.48-.24,1.56-.24H296l-7.32-44.76Q274,86.34,271.08,48ZM177.84,30.12c0,5.76-1.92,27.12-5.64,64.2l-6.6,65.28h19.92c9.72,0,14.64.12,15,.36L218.64,161l8.16.48a11.36,11.36,0,0,1,1.8,6.12,13.77,13.77,0,0,1-.72,4.44c-.6,2-1.56,3-2.76,3l-5.16-.6c-2-.36-3.12-.72-3.48-1.08l-8.52-.24-9.12-.84-12.48.24-13.2.6-9.72,1.08a4.16,4.16,0,0,1-4.32-3.48,29.25,29.25,0,0,1-.24-4.08c0-10.92,1.56-32.76,4.8-65.76q5.94-60.48,12.24-76.8A10.46,10.46,0,0,1,177.84,30.12Zm92.64-3.72c.36-3.24,1.32-5,2.88-5.52Q295.5,177.3,313.92,298.32q4.5,30.24,28.56,156.36c14.28,75,21.48,115.08,21.48,120.48,0,3.36-.84,6-2.4,7.8-3-4-4.68-9.6-5.16-17.16l-.36-9.12a46.31,46.31,0,0,0-1-8.28,306.46,306.46,0,0,1-6.84-34.2c-1.08-8-3-19.68-5.76-34.68-3-16.56-4.92-28-5.88-34.32-1.8-12.12-6.72-34.92-14.52-68.4q-10.26-44.28-12.84-69.6Q308.34,298,302,259l-4-23.52a250.48,250.48,0,0,0-29.64,4.68l-18.24,5q-16.92,4.5-21.24,4.68l-11.88,55.8Q186.84,441.9,148.32,579.72a9.93,9.93,0,0,1-2.52-7c0-3.48,9.36-41.64,28-114.24q31.14-121.86,39.24-161,5-24.66,13.2-68.88c6.12-32.88,10.44-56,13.2-69.48q15.3-76.86,31-128.88Zm255,347.28C539.76,362,552.6,357.12,564,358.8a18.67,18.67,0,0,1,12.72,7.32c3.24,4.2,4.8,10.08,4.8,17.4a13.19,13.19,0,0,1-2.4,8.16c-1.08-.6-2-2.16-2.88-4.44l-2.52-6.48c-3-5.52-8.52-8.28-16.8-8.28q-44.64,0-68,69a294.32,294.32,0,0,0-14.52,71c0,12.6,1.68,22.8,5.16,30.36q11.7,26.1,46.8,26c16.2,0,29.16-6.24,38.76-18.72a51.8,51.8,0,0,0,7.56-13.32c1.44-3.48,2.16-5.76,2.16-7q0-1.26-1.8-3.6a7.25,7.25,0,0,1-1.8-3.72,13.38,13.38,0,0,1,.36-3.24l.72-2.4,1.44-.84a7.86,7.86,0,0,1,3,.6l.24-1.08v-.36l-16.56,2.16-13.8,1.92a4,4,0,0,1-4.2-3.12l-.36-3.6a15.24,15.24,0,0,1,.6-4.08,7.13,7.13,0,0,1,1.8-3.24c19.8-3.48,32-4.56,37-3.24,1.92.48,3,1.44,3.36,2.76V509c0,4.44-1.2,16-3.6,34.8-2.76,21.84-5.52,36.72-8,44.52a20.93,20.93,0,0,1-1.92-9.72c0-2.88.6-10.92,1.8-24.24l-.84,1.8q-12.06,25.92-32,25.92-50.22,0-65.16-32.4a64,64,0,0,1-5.64-23.64l.12-13.68q0-47.88,17.52-86.64Q501.9,392.64,525.48,373.68ZM477.84,20.88a10.44,10.44,0,0,1,3.12,4,9.49,9.49,0,0,1,1,3.72c0,3.24-1.44,23.52-4.2,60.72-2.76,36.72-5,64-6.6,81.72v52.68c-.72,5-1.56,13.68-2.64,25.92-1,11.76-1.92,20.4-2.76,26v51.84l-1.08,4.08V450.12l-1.08,4.08v78.72l-1.44,25.68c-.6,10.2-2,18.48-4.32,24.6Q447.18,556,442.32,516.6c-1.08-8.76-2.28-20-3.36-34.08L436,449q-2-18.9-9.72-67.32c-4.68-29.16-7.56-51.72-8.76-67.44q-1.8-24.66-8-67.2c-4.92-34-7.92-56.4-9.24-67.44q-6.3-57.06-12.12-134.76h-.36l-1.56,32c-.6,13.44-1.56,24.48-2.76,33V222.6c-.36,4.2-1,22.92-2,56.4-.84,23.16-2.64,42.24-5.52,57.24v74.64q-1.08,12.06-1.08,37.8l2.16,75-.12,23.16A125.67,125.67,0,0,1,373.92,570c-3.6-3.24-5.28-21.24-5.16-54.12.84-36.36,1.2-58.8,1.2-67.2,0-19.32.36-33.48,1.08-42.72V333c2.52-15.12,4.32-34.2,5.16-57.24l2.4-57.24V105c.72-5.88,1.2-13.2,1.44-22.08l.6-22.2c.84-17.4,3.6-31.08,8.52-40.92q6.66,53.64,16.08,133.56L421,287.76q19.26,162.36,35.28,268.44l.48.24,1-13.56c.24-5.88.6-10.44,1-13.8V450.36a33.2,33.2,0,0,1,1.08-4.8V327l1.08-4.08V271.8q1.44-8.82,2.88-25.92c1.08-12.84,1.92-21.72,2.52-26.88V167.28Q467.1,153.6,472,94c2.76-34,4.08-52.2,4.08-55v-.84l-.36-1.68-.6.36.12-1.32a70.12,70.12,0,0,0-.72-10.92Z" transform="translate(-6.24 -19.8)"/></svg>