<svg id="Layer_1" data-name="Layer 1" xmlns="http://www.w3.org/2000/svg" xmlns:xlink="http://www.w3.org/1999/xlink" viewBox="0 0 584.04 595.87"><defs><style>.cls-1{fill:none;}.cls-2{clip-path:url(#clip-path);}.cls-3{fill-rule:evenodd;}</style><clipPath id="clip-path" transform="translate(-7.08 3.19)"><rect class="cls-1" x="7.08" width="584.16" height="592.8"/></clipPath></defs><g class="cls-2"><path class="cls-3" d="M380.76,524.76c0,3.48-1.08,11.52-3.12,23.88l1,.84c6.48,0,11.52-1.68,15.24-4.92,2.52-2.28,3.72-4.32,3.72-6.12,0-3.72-1-6.6-3-8.52q-3.42-3.42-14-6.84ZM379.2,521c.84-4.92,5.64-4.08,14.52,2.64a12.78,12.78,0,0,1,5,7.32,42,42,0,0,1,.36,7.32c0,4-.84,7.32-2.64,9.84-2.76,4-7.56,5.88-14.4,5.88l-5.4-.24-7.32,38.88h-.48l-.48-.48-.12-1.92c0-6.36,1.44-18.48,4.44-36.6L378,520.8h1.08ZM337,518.64c.36.12.48.84.48,2a56.43,56.43,0,0,1-2.16,13.56c-2.28,8.28-3.72,14-4.32,17.4l22.32-.84q3.06-.18,4-1.08l.6,1a21.72,21.72,0,0,1,0,4.56l-.6,1L329.88,556l-.48-1.8-.12-2.64c0-3.48.84-9.72,2.52-18.48,1.56-9,2.88-13.92,3.72-14.76Zm4.8-28.8a29,29,0,0,0-6-2.88l.36-2.16a2.25,2.25,0,0,1,.48-1.08l6.84.24,4.44,6.24a7.74,7.74,0,0,1,1.44,4.32c0,1.32-.84,2.88-2.4,4.92a10.06,10.06,0,0,1-4.56,3.36l2.76,5.88c2.76,6,4.2,9.36,4.2,10.2l-.12,1.92-.36.48a83.06,83.06,0,0,1-5.4-10,87.48,87.48,0,0,1-3.6-8.16l-6-.24-.72,1.92c-3.12,10-5.52,16.08-7.32,18.6l-.72-.24-.12-1.92c0-2.16,1.08-7.08,3.12-14.64l2.28-7.8v-.24h.12a61.79,61.79,0,0,1,5-11.64,1.76,1.76,0,0,1,1.44.84,4.65,4.65,0,0,1,.48,2.64,61.44,61.44,0,0,1-2.16,7.8h3.84v-.6l.24-.72h.84l.36,1.44a8,8,0,0,0,6.6-3.84Q345.9,492.54,341.76,489.84Zm-21.12-42.72a26.16,26.16,0,0,0,3.36,3.6,4.57,4.57,0,0,1,1.56,3.24c0,1.8-.12,2.52-.24,2.4l-.84.36-1.08.72a10.71,10.71,0,0,0-.84-3.12c-.84-1.68-2.76-2.52-5.52-2.52-5.88,0-10.08,3-12.84,9.12a34,34,0,0,0-2.52,9.36,17.63,17.63,0,0,0,2.16,8.52q3.42,6.48,11.16,6.48c2,0,6.12-1.8,12-5.28,4.44-2.76,8-5.16,10.68-7.2.24.36.48.48.6.36a3.87,3.87,0,0,1,.24,1.8c0,1.2-3.36,4-10,8.4-6.84,4.56-11.28,6.84-13.56,6.84-6.24,0-10.56-3.12-13-9.48a29,29,0,0,1-1.92-10.92l-.12-6.24a11.37,11.37,0,0,1,1-4.2c1.08-2,5.4-6.24,13-12.48ZM295.2,332.4l-4.68,63.36c-1.8,25.32-4.56,46.32-8,63l-2.4-.24a35.31,35.31,0,0,1-.6-5.28c0-6.48,1.92-28.44,5.88-65.76q5.94-57.06,9-76,7.74,20,17.28,61.32c6.36,27.72,12.24,48.24,17.4,61.8l10.2-63.48c4.2-25.08,7.68-45.48,10.68-61.44,1.08,1.92,1.56,4.56,1.56,8q0,14.22-9.6,73.8L331.8,451.8l-.6.48-1.08.84Q320.4,429.9,311,393.36q-9.9-40.86-15.6-61Zm-12.6-73.08a23.11,23.11,0,0,0,7.56-2.4l6.72-3.24a4.08,4.08,0,0,1-1.08-2.52l-.36-2.28c-.72-1.8-4.44-3-11-3.6A72,72,0,0,1,282.6,259.32Zm2-18.12,7.92.24a56.64,56.64,0,0,0,3.84,6,9.54,9.54,0,0,1,2,4.92c0,3.24-.6,5.4-1.68,6.36l-3.72,2a49.71,49.71,0,0,1,5.16,5.52l8.88,11.16L306.6,280c-4.8-4.44-8.16-7.68-10-9.72a35.27,35.27,0,0,1-5.4-8.76l-6.6,2.52-3-.48-3.24,13.92-.48.36-.48-1.08-.12-2.64a99.43,99.43,0,0,1,1.32-16.8c1.08-6.72,2.76-11.64,5.28-14.76v.12c0-.72.12-1.2.36-1.32Zm-217.8,177c0,1.2-1.08,4.68-3.36,10.56l6.36.12,9.72-1,.24.48c.12,0,.24-.6.24-1.68s-1.32-2.52-4-4.32-5.16-2.88-7.08-2.88c-.24-.12-.36-.24-.48-.24v-1.8c0-2.16.72-3.24,2-3.24s2.76.6,4.68,2.16C79.68,420,82,423.48,82,426.84a10.07,10.07,0,0,1-1.32,4.92,5.84,5.84,0,0,1-3.72,2.88A47.82,47.82,0,0,1,87.36,452l-1.08,1.08a128.15,128.15,0,0,1-8-10.8l-5-7.32-11.76-.6h-.12Q56.1,447.9,53,452l-.72-.24-.12-1.92c2.4-7.44,4.56-13.68,6.6-18.84a3.57,3.57,0,0,1,.48-2.28h.36c2.52-6.36,4.8-10.68,6.6-13l.48.48Zm-7.92-69.48a9.53,9.53,0,0,1,.36,3.12,190.4,190.4,0,0,1-1.44,26L52.8,409v.84l8.52-2.16c4.44-1.32,7.44-1.92,9-1.92l11.4.24H91.2l.36.48.12,2c0,1.8-.12,2.52-.24,2.4L85,410.4A126.55,126.55,0,0,0,64.56,412a98.59,98.59,0,0,0-10.44,2.4l-3.6-2-.48-.6q0-9.9,3.24-32c2.16-15.48,3.36-26.52,3.6-33.24h.72A5.06,5.06,0,0,1,58.92,348.72ZM75.48,288c0,4.2-1.2,7.2-3.72,8.88l2.52,7.32,2.28,7.08-.12,2.4-.36.84c-1.08-.84-2.4-3.6-4.2-8.4A42.16,42.16,0,0,1,69.6,298l-4.68.6-3.24-.12-1-.12A109.15,109.15,0,0,1,55.2,315.6l-.72-.6-.12-2.4c0-4.44,1.2-11,3.48-19.8,1.92-7.8,3.6-13.32,5.16-16.68l.12.12a2.4,2.4,0,0,1,.24-1.08l.48-.36A16.43,16.43,0,0,1,73,280.68,12.29,12.29,0,0,1,75.48,288Zm-1.56.24c0-1.32-1.8-3.36-5.4-5.88a33,33,0,0,1-4.92-4v1.44a70.9,70.9,0,0,1-1.92,14.76A20.55,20.55,0,0,1,66.84,293C71.52,292,73.92,290.4,73.92,288.24ZM30.72,20.16l.12,19.92c0,19.32-.84,39.6-2.4,60.84C27.12,119,25.08,139.8,22.2,163.44V212q31,9.18,50.76-29.76a139.4,139.4,0,0,0,10.92-29c2.16-8,3.24-13.44,3.24-16.08,0-15.72-.12-25.32-.24-28.92a194.53,194.53,0,0,0-5.16-38.76C73.68,37.2,56.52,19,30.48,15ZM30.36,0q43,4.5,56.52,61.2c3,12.72,4.8,27.48,5.4,44.16.12,3.24.24,13.8.24,31.68,0,2.52-.72,7.92-2.28,16a193.9,193.9,0,0,1-8.16,30.72c-10.44,28.92-24.36,43.44-42,43.44l-17.88-.24v5.4q-1.08,4.86-1.08,16.2l2.16,76.8L23,365.4c-.36,10.92-1.32,26.64-3,47.16v54.36a407.84,407.84,0,0,0-4.32,60.84c0,11.4-.36,21.36-1.08,30-.24,3-.24,8.16-.12,15.24-.24,6.36-1.68,11-4.2,14.28a31.37,31.37,0,0,1-3-7.68,63.72,63.72,0,0,1-.24-6.84c0-8,1.2-28.32,3.6-61l4-51.12v-52.8c1.68-15.24,2.64-29.52,3-42.72.12-4.92.24-18.12.24-39.6L15.72,248.4q0-14.94,1.08-22.32V224.4a6.08,6.08,0,0,1-.84-1.8,28.87,28.87,0,0,1-.24-4.44,26.89,26.89,0,0,1,.24-4.32,5.81,5.81,0,0,1,.84-2.16V157.2l8.64-89.28V15.12a37.08,37.08,0,0,1-1.32-7.8A7.42,7.42,0,0,1,28.68.24L29,1.92A4.9,4.9,0,0,1,30.36,0ZM126.6,41.28c-2.28-1.92-5.28-2.64-9-2l-2.52,11.28c7.2-.36,12.36-1.68,15.36-4C128.88,43.8,127.68,42.12,126.6,41.28Zm7.56,5c0,4.44-1.8,7.56-5.52,9.36l3.6,4.8a35.73,35.73,0,0,1,6.36,11.76l-.48.48-.6.84c-5.4-5-8.88-8.52-10.44-10.32A16.38,16.38,0,0,1,123.84,57l-4.8.36-5.64-.12c-2.28,8.52-4.44,14.28-6.24,17.16l-.84-.6-.24-2.4c.72-5.28,1.44-10.08,2.28-14.28h-.72l-.36-1.2a13.18,13.18,0,0,1-.12-2.52V51.24l.24-1.2.48.24,1.8.36C111.6,41.88,113.76,36,116,32.76l.24.24.6-.48c4.92-1.32,9.36.36,13.08,5.16a23.58,23.58,0,0,1,3.12,5.4A9.69,9.69,0,0,1,134.16,46.32ZM294.36,171l10.32.24,1.8,1.68.6,1.2-.36,1.8h-.12l-1.92-.24-10.8.24c-1.92,1.56-4,4.44-6.12,8.52s-3.36,6.84-3.36,8.52a16.17,16.17,0,0,0,2.16,8c2,3.72,4.92,5.52,8.64,5.52,6.6,0,12.24-1.56,16.92-4.8a19.29,19.29,0,0,0,5-4.68l.6.24c.12.12.24.6.24,1.68,0,2.52-1.56,5-4.8,7.56a23.19,23.19,0,0,1-14.4,4.56c-10.68,0-16.08-5.76-16.08-17.28a32.24,32.24,0,0,1,2.64-12.72Q288.6,173,294.36,171ZM178.44,74q-13.14,66.6-15.48,81.6l-10.8,71.52q-6.48,43.56-12,72l-1,5.16a63.76,63.76,0,0,1,11.52-5.88c7.44-3,18.12-6.6,32.16-10.68a143.53,143.53,0,0,0,14.28-6.84c8-4.32,13.44-7.08,16.2-8.4,6.48-3,11.28-4.32,14.4-3.72Q193.38,89.7,185.64,36.48ZM190,11l-.72,5.52q11,56,24.48,130.44L240,292.32q4.14,23,13.56,72.72l13.2,71.88q3.06,16.2,16.56,83.52Q295,577.68,295,581a37.4,37.4,0,0,1-.24,5.28,6,6,0,0,1-3,4.2Q282,549.3,234.72,305l-4.8-25.32c-5.16,5.88-18.72,13.56-40.68,22.8-14.52,6-32.28,13-53.52,20.88-2.52,14-5.28,29.76-8,47.16l-11.52,72.36Q101.58,531.3,86,587.28c-1.56-.36-2.64-1.8-3-4.32a44.18,44.18,0,0,1-.24-5.4c0-1.32,4.32-21.48,13-60.24q14-63.18,17.4-84.24l10.56-72.36c2.28-16.2,4.56-30.72,6.72-43.8a10.11,10.11,0,0,1,.48-3.24l4.44-25.08q7-38,24.72-143.76Q173.94,62.76,183.6,12.12l.12-1.8a12.06,12.06,0,0,1,1-4.2l1-4.8c1.08.6,2,2,3,4.2A15.24,15.24,0,0,1,190,11ZM242,48l6.6,15.84v.24c.84-3,2-7.8,3.48-14.4,1.44-6.36,2.64-11.16,3.6-14.52l1.08-.24.6,1.32.24,2.76q0,2.7-3.6,17.28l-4.56,16.8-1.08.24c-1.32-3.12-3.24-7.68-5.52-13.68L237,44.88c-1,3-2.28,7.92-3.84,14.64L229.44,74.4a4.08,4.08,0,0,1-.84-1.8,11.05,11.05,0,0,1-.24-2.76q0-4,3.24-18.36C233.28,44,234.72,38,235.92,33.6Zm24.84,30.24a6.94,6.94,0,0,0-1.68,4.08q0,2.7,3.24,6.48l7.08,7.68c6.84,7.56,10.2,14.76,10.2,21.6,0,5.16-.6,8.88-1.68,11.4-1.8,4-5.64,7-11.28,9.12-9.6,3-16.44-.24-20.52-9.84a42.34,42.34,0,0,1-2.76-10.56,36.72,36.72,0,0,1-.48-5.64,15.34,15.34,0,0,1,1.56-7.32h.84a39.33,39.33,0,0,1-.12,6.36,53.9,53.9,0,0,0,0,8.88c.72,7.56,4.56,11.28,11.52,11.28,9.48,0,15.84-2.16,18.84-6.48,1.32-1.8,1.92-4.2,1.92-7.32,0-2.16-1.08-4.8-3.12-7.8l-7.08-8.52C266.52,93.72,263,87.12,263,81.72c0-4.68,1.08-8.16,3.12-10.56a8.76,8.76,0,0,1,7.2-3.12,10.26,10.26,0,0,1,7.08,3.24,12.21,12.21,0,0,1,3.12,8.52l-.12,3.36-.72,3.12H282a21.93,21.93,0,0,0-.24-6.48c-.72-3.24-3.36-4.8-7.92-4.8A8.28,8.28,0,0,0,266.88,78.24ZM308,41.64a8.85,8.85,0,0,0-3.6-1.32l-7.32.24a28.7,28.7,0,0,0-7.8,8.16,18.07,18.07,0,0,0-2.52,9.48,9.68,9.68,0,0,0,1.92,6.24c1.8,2.28,4.8,3.48,9,3.48,6.84,0,11.76-1.08,15-3.24l2.64-2.4a4.55,4.55,0,0,1,2-1.44l.6,1a8.56,8.56,0,0,1,.24,2.28c0,1.44-1,2.88-2.88,4.44q-4.86,3.06-9,6.12c-10.68.72-17.4-1.56-20.28-6.72a13.45,13.45,0,0,1-1.56-6l.12-4.2a32.52,32.52,0,0,1,2.64-13q3.24-7.92,9.36-11.16c7.08.24,11.88,1.08,14.28,2.52a4,4,0,0,1,1.92,3.6c0,1.8-.12,2.64-.24,2.52l.48.36c.12.36-.48.48-1.56.48A7.08,7.08,0,0,1,308,41.64Zm85.44,346c0,4.92-2.4,23.88-7.2,56.64L385.2,452a140.86,140.86,0,0,1,13.32-13l22-19.32,17-21.24c7.32-8.88,13.92-15,19.56-18.48l.84,1.32a5.69,5.69,0,0,1,.48,2.76c0,2.76-11.28,15.84-34,39l-3.12,3.24c5.52,10.56,10.56,24,15.24,40.44l6.24,23c2.4,9,4.68,16.32,6.72,22a7.86,7.86,0,0,1,1.8-2.16l1.32,2a8.37,8.37,0,0,1,.36,2.88,8,8,0,0,1-.72,3.6,17.55,17.55,0,0,1-3.12,4.2q-8.46-14.94-20.52-54c-6-19.08-9.6-31.8-10.92-38.4L383.28,464c-4.08,26-7.68,44.4-10.68,55.08-1.32-.72-1.92-2.64-1.92-5.64s2.64-21.24,7.92-54.48c5.64-35.16,10.08-61.2,13.56-77.88C393,382.44,393.48,384.6,393.48,387.6Zm20.88-250.08a9,9,0,0,1,.24,2.4c0,1.56-.48,6-1.56,13.56l18.84-.84,10.2.24c.12-7.68,1.44-12.36,4.2-14l.48,1.08.24,2.52.24,17c-.12,6.84-1.2,12.48-3.24,16.68h-.72l-.36-1.08a13.14,13.14,0,0,1-.24-2.64c-.36-5.16-.48-9.6-.6-13.2l-4.08.24-6.12.72-19.8-.24-2.64,17.28h-.84a34.68,34.68,0,0,1-.48-7,191.51,191.51,0,0,1,1-19.44c1-8.52,2.52-13.2,4.68-14.16Zm-10.08-32.28a10.6,10.6,0,0,1,1.32,9.6L403.68,118l-3.36.36-4.2.72-15.48-.24-16.08-.6H364q2.52,23.22,5.52,90.72,4.14,90.9,4.2,129.48l-.12,24.72a197.68,197.68,0,0,1-2.28,25.32c-2.64-1.56-4-4.44-3.84-8.4a76.19,76.19,0,0,1,1.44-8.88V298.08l-5.52-98.64c-2.4-43.08-3.84-70.08-4.2-81.24L346.92,118l-18.12-.84-9-.48a9.45,9.45,0,0,1-3.36-3.6,11.5,11.5,0,0,1-.6-3.72c0-2.52.48-4.2,1.32-5,2-2,6.48-1.8,13.2.48l35.76,1.08c20-.24,30.36-.48,31.08-.84Zm-35.4-53,.24,2.52a7.3,7.3,0,0,1-.36,2.64l-.72.84-.84-.6-11.76.24-11.16.48c.12,2.4.72,4,1.92,4.8l6.72,4.8a72.8,72.8,0,0,0,15.6-1.56,22.94,22.94,0,0,0,6-2.52l.72,1a4.91,4.91,0,0,1,.36,2.28c0,1.56-1.44,3.12-4.32,4.92a14.69,14.69,0,0,1-7.56,2.64c-11.76,0-18.84-2.64-21.36-8a11.49,11.49,0,0,1-1-5.88l.6-3.12v-.36a4.5,4.5,0,0,1-1.08-1.92,4.51,4.51,0,0,1,1.8-3.24l.48-2.28a28.28,28.28,0,0,1,4.56-10.32c5.88-7.8,14.88-7.08,26.76,1.92v4.92l-.48.36a2.49,2.49,0,0,1-1.2.72,26.26,26.26,0,0,0-1.56-4.56q-2-2.52-8.64-2.52a16.87,16.87,0,0,0-15.24,8.4l-1.08,2.16,22,.24ZM464,43.44l-1.8,3.12c-7.32-3.72-20.52-11.76-39.36-24.12L420.72,21l-3.48,1.44c-4.56,2-11,5.52-19.56,10.2L386.4,39l-2.52-.24-1.56-.84a32.72,32.72,0,0,1-.48-5.28c0-3,3.6-6.84,10.68-11.64a124.8,124.8,0,0,1,15.6-8.52C399.24,6.36,394.8,3,394.8,2.28q0-12.78,27.36,4.32A91.18,91.18,0,0,1,439.8,1.68q10.8-1.44,10.8,3.6c0,2.76-.48,4.68-1.32,5.76-.72.84-2.4,1.68-4.92,2.28l-8.64,2.4c6,4.32,12,8.88,18,13.8C461,35.64,464.64,39,464.64,39.84A11.31,11.31,0,0,1,464,43.44Zm83.4,42.36q-28.08,0-36,20.52a44.89,44.89,0,0,0-2.4,22.32q0,27,12.84,67.8c3.12,10.08,7.44,22.8,13.08,38l15.12,40.92q19.26,52.74,28.2,90.24,12.78,53.28,12.84,101.4l-.6,19.92a234.11,234.11,0,0,1-6.12,39.72q-14.4,56.52-54,56.52-25.74,0-34.92-14.76Q489,558,489,534.24a64,64,0,0,1,.36-9.12c.48-2.52,2-6.6,4.8-12a4.39,4.39,0,0,1,2.28,2.88,12.08,12.08,0,0,1,.6,3.72,25.06,25.06,0,0,1-1.56,7.2,26.94,26.94,0,0,0-1.68,7.32,51.65,51.65,0,0,0,3.84,19.56C502,564.6,509,570,519,570l26.28-1.08q9.18-1.44,14-6.12c2.88-2.76,5.88-7.8,8.88-14.88l10.92-28c1.68-4.32,3.24-12.48,4.8-24.6a215.15,215.15,0,0,0,2.28-28.2q0-43.38-12.84-95-8.82-35.46-28.2-90.12c-15.36-43.32-24.72-70.8-28.2-82.2q-12.78-42.84-12.84-71c0-20.4,4.2-35.4,12.72-45.12,7.32-8.16,16.68-11.76,28.08-10.68,10.44,1,19.8,5.28,28.08,12.84,8.52,7.8,12.72,16.2,12.72,25.44l-.48,3.36a10.19,10.19,0,0,1-2.4,4.2l-3-7.08a70.22,70.22,0,0,0-6.6-11.16C565.92,90.72,557.4,85.8,547.44,85.8Z" transform="translate(-7.08 3.19)"/></g></svg>