<svg id="Layer_1" data-name="Layer 1" xmlns="http://www.w3.org/2000/svg" viewBox="0 0 303.34 212.28"><defs><style>.cls-1{fill-rule:evenodd;}</style></defs><path class="cls-1" d="M255.48,374c-2.16-17.4,5.64-26.64,23.4-27.84,4.08,10.68,8.4,21.24,13.08,31.68-8.52,5.88-18.48,7.2-29.76,3.72C258.24,380.4,256,377.88,255.48,374Zm-7.2-17.4c-4,16.92,1.2,29.28,15.24,37.08,11.88,6.6,23.52,5.88,34.68-2.16l7.56,12.84q8.82-9.9-.72-25.56a46.21,46.21,0,0,1-3.6-7.32h-1.68Q287,328.86,263.28,294.6L273.84,332c-8.64.72-15.48,4.92-20.4,12.6A39.51,39.51,0,0,0,248.28,356.64Zm-41.52-93.36q-13.86,31.86-47.4,31.08.9-43.38.6-86,26.82,2.7,42.84,24.48C210,242.64,211.32,252.84,206.76,263.28Zm-42.24-67.2h-4.8l-.12-4a19.89,19.89,0,0,0-3.12,5.4h-.12l-.24,1a31,31,0,0,0-1.56,9.24Q152.4,272,149.4,336.84A451.83,451.83,0,0,0,151,400.92a2.15,2.15,0,0,0,1.2-1.08,790.62,790.62,0,0,0,6.48-79.44l.24-8.52.72.36a40.32,40.32,0,0,0,28.32-6.72q27.9-18.54,27-50.88-1.26-49-50.4-58.68Zm286.32-2.4c-8.52,17-16.2,34.56-23.28,52.68q-23.22,59.22-43.2,119.52a55.31,55.31,0,0,0-1.56,5.52c-3.72-17-7-34.08-9.84-51.24a607.12,607.12,0,0,0-33.72-122.64c-2.64,1.32-3.6,4-2.88,7.8s1.68,7.44,2.76,11q9.36,30.42,15.6,61.56Q367,340.38,383.16,399.84l1.56-1.56A18.69,18.69,0,0,0,388,389c4.56-15.6,9.48-31,14.88-46.2q21.06-60.3,44.88-119c4.2-10.44,5.52-20.64,3.84-30.6A1.1,1.1,0,0,0,450.84,193.68Z" transform="translate(-148.92 -192.12)"/></svg>