<svg id="Layer_1" data-name="Layer 1" xmlns="http://www.w3.org/2000/svg" xmlns:xlink="http://www.w3.org/1999/xlink" viewBox="0 0 568.32 592.44"><defs><style>.cls-1{fill:none;}.cls-2{clip-path:url(#clip-path);}.cls-3{fill-rule:evenodd;}</style><clipPath id="clip-path" transform="translate(-19.44 0.84)"><rect class="cls-1" x="19.44" width="568.44" height="591.72"/></clipPath></defs><g class="cls-2"><path class="cls-3" d="M347.28,511.08l.48-5.88c0-6.48,0-10.44.12-12a23.42,23.42,0,0,1,2.16-8.52q2.7-5.94,19.08-23.76c11.4,1.8,18.48,3.36,21.24,4.8a3.93,3.93,0,0,1,2.16,2.28l.12,2.88v3.6c-.12,1.08-.72,1.56-1.92,1.56q-.9,0-15.12-4l-6.72.24a51,51,0,0,0-13.08,16.2,36.73,36.73,0,0,0-4.32,16.68A21.93,21.93,0,0,0,354,516.12c2.76,4.92,7.44,7.32,14,7.32a27.58,27.58,0,0,0,17.52-5.88l4.32-4.2,2.28-2.4,1.2,2.28a11.13,11.13,0,0,1,.36,3.12q0,3.42-5.4,10.08c-4.44,5.4-9,8.16-13.8,8.16-13.8,0-22.32-4.56-25.68-13.56A28.46,28.46,0,0,1,347.28,511.08ZM166.2,201.48h.72c9.48,20.16,15.6,36.84,18.24,50.16,2,10.32,3.12,25.56,3.12,45.6,0,18.72-1.8,34.2-5.28,46.32q-4.5,15.3-22.32,52.2l-.48-1.8v-2.64c0-1.08,1.32-4.68,4.08-10.8,4-9,6.84-16.2,8.88-21.48q13-34.38,13-62.64c0-19.08-3.36-39.24-10.2-60.48-1.44-4.44-3.84-11-7.08-19.8-2.16-5.76-3.24-9.36-3.24-10.68A12.5,12.5,0,0,1,166.2,201.48Zm-39.36-.84a122.57,122.57,0,0,1,9.6,10.8c3,3.84,4.8,6.6,5.4,8.4,2.28,8.76,4.2,15.84,5.88,21.48.6,2.52.84,8,.84,16.68a108.71,108.71,0,0,1-5.64,33.36c-3.48,10.2-7.92,17.76-13.44,22.56q7.2,27.54,18.84,79,13.14,58.32,13.2,63.12a15.51,15.51,0,0,1-.36,3.48l-1.56,3.36c-4.92-9.6-9.12-21.84-12.36-36.84q-4.68-25.38-7.92-37.8c-2.76-11.64-5.4-23-7.92-34.08q-5.76-26.1-6.84-36.72a25.67,25.67,0,0,1-12,2.88l-1.56-.12-1.44,15.72c-1.32,14-2.52,36.6-3.72,67.44-1.56,26.88-4.56,46.68-9,59.52a21.7,21.7,0,0,1-1.8-9.36c0-2.76,1.56-22.32,4.68-58.8,3.24-37.8,4.92-61.08,5.28-69.84.6-28.68,1.2-50.28,1.8-64.68,1.08-25,3.12-46,6.36-63l.24.6C113.88,191.88,118.32,192.84,126.84,200.64Zm-12.48.36a36.77,36.77,0,0,1,.6,6.72q0,54.18-2.88,98.4l11.28-4.32a18.83,18.83,0,0,0,8-7,50.72,50.72,0,0,1,4.2-7.32c1.8-2.52,3.6-7.2,5.4-13.92a59.28,59.28,0,0,0,2.64-15.36c0-13.56-5-27.12-15.12-40.44-2.16-2.76-5.64-6.84-10.32-12.24Zm-15,4.8.24,2.52c0,2.16-1.44,6.24-4.44,12.36-5.16,10.8-8.28,17.76-9.6,20.76q-14.22,33.3-14.16,66.72c0,14.76,3.12,32.16,9.24,52.44,1.44,4.92,3.6,11.28,6.36,19.2,1.92,5.52,2.88,8.64,2.88,9.48l-.12,2.4-.48,1.56-1.08.36Q84.06,384.24,77,354c-5.16-22-7.8-37.2-7.8-45.72,0-16.2,2.52-34.92,7.44-55.92,5.88-25.8,13.32-41.64,22.08-47.64ZM90.12,56.16q-20-39.24-58.56-36c.84,9,1.44,18.84,1.8,29.64.12,5.88.24,21,.24,45.24l-.12,19.8c-.24,13.08-.6,23.28-1,30.48v54.24l-.72,8.52.36.48a4.28,4.28,0,0,0,2.76,1q48.42,0,63.6-49.32A144.65,144.65,0,0,0,104,125.64l-.12-17q0-8.28-2.88-21.24A130.84,130.84,0,0,0,90.12,56.16Zm7.8-8a137.09,137.09,0,0,1,9.36,29.52,153.78,153.78,0,0,1,3.12,30.12,207,207,0,0,1-5.64,61.32c-9.72,38.76-29.4,58.08-59.28,58.08-6.6,0-11.52-.72-14.64-2.28l-.48,12c0,17.88.12,31.8.48,41.52.48,15.24,1.44,29,3,41.28,1.32,11.64,2.28,25.2,2.64,40.92l.36,41q0,51.84-2.76,100.2c-2.52,45.72-6.48,75-11.88,87.6a7.82,7.82,0,0,1-2.52-5.16,48.7,48.7,0,0,1-.24-5.76c1.8-20.28,3.6-42.72,5.4-67.56q5.58-74.34,5.52-109.8,0-48.78-3.24-87.48Q23.7,274.8,23.76,237.6l.72-17.16c.6-10.92,1.08-19.32,1.44-25.44V140.76a32.65,32.65,0,0,1,1.2-4.92V55.44A119.36,119.36,0,0,0,25.2,41.76c-1.32-6.84-2-11.76-2.28-14.52Q21.66,14.82,26.16,8.88c1.32-5.4,8.88-6,22.8-2A145.91,145.91,0,0,1,65.88,13c5.16,2.28,8.64,4,10.2,5.16A106.24,106.24,0,0,1,88.92,33,86.11,86.11,0,0,1,97.92,48.12Zm207.6,151.2c1.56,4.8,2.64,11.64,3.24,20.64.6,9.48,1.56,16.32,2.76,20.76V241l5.76-21.12c2.52-9.48,5-16.44,7.44-20.88,2.52,6.12,6,17,10.56,32.88q6.48,22.86,6.48,25.2a9.79,9.79,0,0,1-.72,4.2,4.86,4.86,0,0,1-3.84,2.4c-1.2-5.52-3.24-13.2-6-23-3.12-10.92-5.16-18.72-6.24-23.16l-.48-.6L317.64,240A131.45,131.45,0,0,1,309,262.56a185.77,185.77,0,0,1-3.6-23.4,229,229,0,0,1-1-23.64c-1.8,3.36-5.88,11.64-12.12,24.72A181.71,181.71,0,0,1,278.4,265.8h-2.64a34,34,0,0,1-.6-5.16q0-2.34,6.48-14.76l9-17.4c2.88-7.32,5.16-12.84,6.72-16.32C300.12,206.16,302.88,201.84,305.52,199.32ZM214.32,71.76a19.53,19.53,0,0,1,1.08-6.6c.84-1.8,1.68-2.88,2.64-3.24,2.52-.72,3.72,3.6,3.84,13.08V99.72c0,6.12-.48,25-1.56,56.76-1.08,34.32-2,56.88-2.76,67.68v48.72L216.48,277v51.12q-3.6,53.1-4.32,66.24c-1.44,25.44-2.16,47.52-2.16,66.12q-.18,40.5-2.16,65.88a416.52,416.52,0,0,1-9.72,65.28c-2.28-3.6-3.72-6.36-4.08-8.28a55.65,55.65,0,0,1-.24-6.36q0-12.42,7.56-122c5.28-76.68,8.16-121.32,8.64-134.16V270.48a35.67,35.67,0,0,1,1.08-4.92V216.84c1.2-12.36,2-27.72,2.64-46.2l1.68-46.2V78.24A20.39,20.39,0,0,1,214.32,71.76ZM308.64,40.2l.6,2.4c0,2.64-.6,4.56-1.8,5.88l-2.64-3.36c-10.44,13.08-17.88,21.84-22.08,26h-2.64a35.31,35.31,0,0,1-.6-5.28c0-.6,6.48-9.12,19.44-25.8l1-1.32-7.08-9.84C284.64,17.16,280.56,9,280.56,4.32a8.21,8.21,0,0,1,.6-3.24,5.8,5.8,0,0,1,1.56-1.92L297,20.52l7.68,12.24c10.92-14,19.56-24.48,25.68-31.44l1.32,2.52A12.08,12.08,0,0,1,332,7.08c0,2-7.08,12.12-21.36,30.36ZM414,419.52a5.34,5.34,0,0,1-1.08-2.4,22.44,22.44,0,0,1-.24-3.24c0-2.52,3.84-5.16,11.4-8.16a166.47,166.47,0,0,1,25.08-7.2,170.81,170.81,0,0,1,25.2-3.6c7.56-.36,11.4.36,11.4,2.28,0,4.56-8.52,8.64-25.68,12.36l-4.32.84q.9,5.22,1.44,11.88c.24,3.72.36,11.52.36,23.28l.84,27.84.24,18.36q0,9.18-1.8,49c-1.32,28-2.28,45-3,50.88h-1.68a116.17,116.17,0,0,1-.48-13.32c0-9.48.48-23.88,1.56-43.44s1.68-34,1.68-43.44c0-8.28-.6-22.8-1.68-43.56-.84-17-1.44-29.28-1.56-36.6l-14.88,2.88C427.08,416,419.52,417.84,414,419.52Zm-53.28-73.8a5.39,5.39,0,0,1-1.08-2.88,9.12,9.12,0,0,1,1.92-6.12c.48-.6,2.64-2.4,6.48-5.64a8.84,8.84,0,0,1,2,2.88,6.46,6.46,0,0,1,1,2.64c0,1.08-5.16,19.08-15.36,54q-16.38,56.16-20.16,76.8-7-20.7-16.92-59.4Q307.26,364.26,302,347l-.36-.6c-1.92,17-5.28,37.2-10.08,60.6l-13.2,61.2h-1.56a82.67,82.67,0,0,1-.6-8.88c0-8.76,1.92-19.8,5.76-33,4.68-14.76,7.8-25.68,9.48-32.76L293,377.28a139.26,139.26,0,0,1,2.76-16.2l1.32-16.32c.6-7,2-12.12,4.08-15.6q8.28,23,17.52,58.8l15.48,59.76h.48c1.8-8,7.08-26.76,15.6-56.4C358,365,361.8,350.76,361.8,348.6A5.39,5.39,0,0,0,360.72,345.72ZM371,273.12v3a9.05,9.05,0,0,1-.48,3.36,9.22,9.22,0,0,1-2,2.64l-2.4-2.16a8.24,8.24,0,0,0-4.56-1.68l-12.24.24c-4.44.24-7.8,4.56-10.32,13.08A57.63,57.63,0,0,0,336.36,308a24.47,24.47,0,0,0,1.56,9c1.92,4.8,5,7.2,9.48,7.2,2.76,0,6.84-1.56,12.36-4.68a48.94,48.94,0,0,0,10.92-7.68,6.52,6.52,0,0,1,2.64,2.76,5.12,5.12,0,0,1,1,2.52,43.87,43.87,0,0,1-7.32,9q-9.18,9-19.08,9c-7.56,0-12.48-4.44-14.52-13.32a43.71,43.71,0,0,1-1-9.24l.12-4.56a81.32,81.32,0,0,1,3-22.56c3-10.8,7.68-16.92,14-18.24,10.32-.12,16.92.84,19.68,2.88A4.23,4.23,0,0,1,371,273.12Zm113.88-7.44a6.77,6.77,0,0,1,.84,2.76c0,2.76-7.68,14.28-22.92,34.8l-1.44,1.92c4.2,10.68,9.72,24.84,16.32,42.48,9.72,26,14.52,40.92,14.52,44.52L492,396.6l-.6.48-1.08.84c-4.68-8.52-11.64-25.68-20.64-51.36C463.32,328.2,459.36,316,457.8,310l-24,30.84v.48a124.49,124.49,0,0,0-1.32,14.16l-.72,14.4q-1.08,17.82-6.12,29.16h-1.56a37.66,37.66,0,0,1-.6-6.12c0-5.64,2.16-24.36,6.48-56.4V270.72l1.68-5.76c.84-2.28,1.8-3.6,2.64-4a11.24,11.24,0,0,1,1.68,6.48,21.17,21.17,0,0,1-2.16,8.16v54.48q5.58-9.18,19.08-27.72c9.6-13.08,19.56-26.28,29.88-39.48A10,10,0,0,1,484.92,265.68Zm-65.28-125-.72,2.88L416.4,152V193.2l3.6.36c14.76-.72,25.56-4.08,32.28-10,4.68-4.2,7-9.12,7-14.76s-2.4-11.28-7.08-16.68-11-9.72-19.2-13.32Q423.06,139.2,419.64,140.64ZM413.76,138c0-6.12,2.52-9.6,7.68-10.44q7-1.08,16.92,4.68a54.52,54.52,0,0,1,16.92,15.36c5.16,7.08,7.68,14.4,7.68,21.84a74,74,0,0,1-.48,10.56,24.39,24.39,0,0,1-4.56,10.8c-6.24,8-19.2,12.84-39,14.64h-3l-1.08,24.84c-.6,14.4-1.68,26.16-3,35.28l-.6.48-1,.84c-1.32-1.68-1.92-4.56-1.92-8.64,0-17.88.84-35.52,2.52-53h-.12a5.34,5.34,0,0,1-1.08-2.4,22.44,22.44,0,0,1-.24-3.24,9.52,9.52,0,0,1,.6-4.08,5.14,5.14,0,0,1,2.16-1.8l.48-3.6V146.4c.36-2.64.72-4.92,1.08-6.72ZM368.64,81.84a4.64,4.64,0,0,1-2.76,3.36l-4.08-4.8c-2.52-2.88-4.8-4.32-6.72-4.32a26.8,26.8,0,0,0-9.24,1.68,35.38,35.38,0,0,0-5.4,2.64c.6,1.8,3.72,4.68,9.36,8.4,6.12,4.2,9.84,7.08,11.16,8.88,3.48,4.8,5.52,8.16,5.88,10,.36,1.32.24,3.84-.12,7.44,0,5-1,9.24-3,12.6-3.24,5.88-9.12,8.76-17.4,8.76-9.84,0-16.8-4.2-21-12.72a33.38,33.38,0,0,1-3.6-15.12,46.09,46.09,0,0,1,.24-6c.36-1.32,1.8-3.36,4.08-6a11.76,11.76,0,0,1,1.2,7l-1.2,5.28c0,2.76,1.2,5.52,3.72,8.52a34.36,34.36,0,0,0,10.08,7.92,27.94,27.94,0,0,0,16.2-3.36c4.56-2.52,6.84-4.56,6.84-6.36a10.46,10.46,0,0,0-4.2-8.28c-.84-.6-4-2.52-9.36-5.64a30.73,30.73,0,0,1-9.24-7.44c-2.88-3.72-4.32-8.52-4.32-14.16,0-5.16,1.68-9,5.16-11.52a16.87,16.87,0,0,1,11.4-3.12,21.44,21.44,0,0,1,11.4,4.08c3.48,2.64,5.16,5.76,5.16,9.48Zm92.4-79a5.91,5.91,0,0,1,.84,2.64c0,2.28-9.48,10.92-28.44,26.16L445.8,44c10,10.44,15,17.16,15,20.16,0,2.64-.6,4.56-1.8,5.88q-7.92-7.2-32-33.12c-26.4,21-40,31.68-40.56,32.28L384,69a35.31,35.31,0,0,1-.6-5.28c0-2.16,10.8-11.76,32.4-28.92l5.28-4.08c-15-16.2-22.44-24.84-22.44-25.8,0-7.32,4.56-6.24,13.68,3.12,4.44,4.56,9.48,10.32,15.36,17.4C446,10.92,456.48,2.4,459,0A11.08,11.08,0,0,1,461,2.88ZM538.8,82.56c-12.72,0-21,5-24.84,15.24a32.3,32.3,0,0,0-2,15.36q0,8.28,20.64,75.84,13.14,43.56,27,86.28,19.26,59.58,23.76,86A304.9,304.9,0,0,1,587,395c.48,9.84.72,23.76.72,41.88,0,10.92-.6,23.52-1.68,37.8L582.36,514a92.76,92.76,0,0,1-25.44,55.56,80.11,80.11,0,0,1-19,15c-6.24,3.48-11.64,5.28-16.2,5.28q-31.32,0-42.48-31.68a95.27,95.27,0,0,1-4.8-22.32l-.36-11c0-8.76.24-13.92.72-15.6,1-3.72,4.56-10,10.68-18.72a19.12,19.12,0,0,1,2.64,9.72c0,5.76-1.32,10.08-3.84,13.08a14.53,14.53,0,0,0-2.52,3.84,18.17,18.17,0,0,0-1.2,7.44,62.83,62.83,0,0,0,1.32,9,99.43,99.43,0,0,0,4.32,16.2c5.4,15,12.72,22.44,21.72,22.44q52,0,67.92-67.32a236.5,236.5,0,0,0,5.64-46.44L581.28,437c0-22.8-.12-37.56-.48-44.28a157.71,157.71,0,0,0-3.12-26.88q-2-9.18-9-32c-7.2-23.64-13.08-43.44-17.76-59.64-.84-3.24-4.08-12.72-9.48-28.44-6.6-19.08-11.64-34.44-15.36-45.84q-20.7-64.26-20.64-87.48c0-19.44,4.2-33.12,12.72-41.16,7.32-7,16.68-8.76,28-5.4C556.8,69.12,566,75.84,574,86.16c8.52,10.92,12.72,22.8,12.72,35.64l-.12,5.28a8.56,8.56,0,0,1-3.12,5.76c-.6-1.2-2-5.4-4.32-12.48a97.41,97.41,0,0,0-6.72-16.68C564.84,89.64,553.68,82.56,538.8,82.56Z" transform="translate(-19.44 0.84)"/></g></svg>