<svg id="Layer_1" data-name="Layer 1" xmlns="http://www.w3.org/2000/svg" viewBox="0 0 276.74 208.3"><defs><style>.cls-1{fill-rule:evenodd;}</style></defs><path class="cls-1" d="M256.32,353.52c-3.24,18.72.6,34.56,11.52,47.4a13.41,13.41,0,0,0,10.08.36c17.88-6.48,25.32-17.64,22.08-33.36a3.9,3.9,0,0,0-2.64,3.6c-7.68,9.36-17.28,14.16-28.92,14.52a15.44,15.44,0,0,1-4.68-4.56l-.12-.72q2.52-42.3,1.8-82.92a105.54,105.54,0,0,0-5.52,26.88Q258.84,339.12,256.32,353.52ZM200.88,228.6a75.81,75.81,0,0,0-13.68-16c-8.76-6.24-17.4-6.72-25.92-1.56q1.08,37.8.36,76.08A94.89,94.89,0,0,0,201,277.32C212.4,262.32,212.28,246.12,200.88,228.6Zm64.68,34.56c-2.52,6.12-1.68,11.52,2.28,16.32l3.48-.24,1-1c5.52-8.4,4.92-15.48-1.68-21.24l-.84.6a17.37,17.37,0,0,0-4.08,4.8ZM160.8,199.92l11.28-6.12,4.32,1.56a59.13,59.13,0,0,1,29,23,70.68,70.68,0,0,1,9.12,19.8,60.4,60.4,0,0,1,1.32,27.36,61,61,0,0,1-4.92,15L208.8,284q-17.1,23.22-47.52,18.36a546.13,546.13,0,0,1-9.48,98,545.68,545.68,0,0,1,1.32-97.92c-3.72-4.68-4.08-9.84-1.08-15.36h2.28A333,333,0,0,1,160.68,197ZM363.36,295.8q-.54,14.76-1.44,29.52c-1.2,17.4-2.52,34.68-4.08,52.08,18.84,6.48,35.52,4,50.28-7.56a19.75,19.75,0,0,0,6.84-9.6q11.52-34.38-10.44-60.6a29.58,29.58,0,0,0-15.24-9.84A58.67,58.67,0,0,1,363.36,295.8Zm-.84-86.52,1.32,71.16a108.39,108.39,0,0,0,18.24-4.2c15.72-5,22.8-15.36,21.36-30.84q-3.24-32.94-35.76-36.72l-4.56,2.16Zm-.36-6.48c2.88-4.8,7.32-7.2,13.2-7.32l4-.12c15.48,8.52,25.44,21.36,29.76,38.4a54.56,54.56,0,0,1-5.88,42.84,19.89,19.89,0,0,1-3.84,4.56Q425.46,295,426.72,327a88.63,88.63,0,0,1-19.44,59.4c-10.2,13.08-23.76,16.8-40.8,11.4l-10.2-3.36-.72,6q-8.46-74.16,0-159c1.56-14.76,3.6-29.64,6.24-44.4Z" transform="translate(-150.03 -193.8)"/></svg>