<svg id="Layer_1" data-name="Layer 1" xmlns="http://www.w3.org/2000/svg" viewBox="0 0 386.11 394.8"><defs><style>.cls-1{fill-rule:evenodd;}</style></defs><path class="cls-1" d="M311,298.68a89.24,89.24,0,0,0-13.32,41l-2,31.68q-1.26,20.88-3.24,41.4a66,66,0,0,0,10.2,43.8,45.67,45.67,0,0,0,15,14.52q31.14-3.78,41.88-32.16,2.88-7.74-2.16-14.76c-9.12,17.88-23,26.52-41.64,25.92a30.56,30.56,0,0,1-6.24-1.8q-22.86-72.18,9.24-138.24A54.32,54.32,0,0,1,329,295.2c11-4.08,20.64-2.16,28.92,5.76.12-19.08-9.12-25.08-28-18A37.29,37.29,0,0,0,311,298.68Zm-31.56-19.2a240.65,240.65,0,0,0-5,42.12q-2.16,58.5-6.72,116.88L266,432.84c-4-12.12-7.44-24.24-10.44-36.6q-13.86-56-32.52-110l-.72-13.68c-.6-.12-.84,0-.84.36l-.84,6.36-1.8-5.16c-2.88,7.32-2.88,15.6-.12,24.6-.84,9-1.56,18.12-2,27.24-1.08,19-1.8,37.92-1.92,56.88a193.7,193.7,0,0,1-6.24,47.4c-3.24,12.24-2.52,22.92,1.92,32.16a106.7,106.7,0,0,0,8.28-30.6c1.32-10.2,2.28-20.4,3-30.84q3.06-43.38,2.28-86c3.24,10.56,6,21.12,8.52,31.8a1209.36,1209.36,0,0,0,34.8,121.92,4.93,4.93,0,0,0,3-4.56v-1.2l2.64,1.68a95.84,95.84,0,0,0,4.56-28.32c.12-9.6.6-19.32,1.32-29.16a953.88,953.88,0,0,0,1.68-128.28Q279.66,278.4,279.48,279.48ZM149,207.36A57.56,57.56,0,0,1,114.6,233a61.28,61.28,0,0,1-17.64,2q1.26-65,5.76-129.6c15-5.52,28.32-.48,39.72,15.24A87,87,0,0,1,159,163,67.35,67.35,0,0,1,149,207.36ZM101.16,90.12l-1.8,4.8a9.68,9.68,0,0,0-1.8,5.4,124.27,124.27,0,0,0-5,29.52c-2,34.68-3.24,69.72-3.6,104.88l-1.2-.12a12.94,12.94,0,0,0-2,9.84,9.12,9.12,0,0,0,3,5.16v8.52a1181.65,1181.65,0,0,1-7.8,129q-2,16-3.24,32.4c-1,12.36.72,22.92,5.16,31.8a69.4,69.4,0,0,0,5.76-30,764.84,764.84,0,0,1,3-89.4q3.6-40.5,5-81.24a68.07,68.07,0,0,0,36.84-9.6q27.54-16,31.68-48.24a144.1,144.1,0,0,0-3.48-55.08Q151.2,97.8,112.56,86a22.55,22.55,0,0,0-11,6.24ZM320,121.56c3-18.48-5-27-24.36-25.68-10.68.72-19.32,5.64-25.68,14.76-10,14-11.16,28.56-3.84,43.44a79.84,79.84,0,0,0,27.36,30.6c13.56,8.88,22.44,20.4,26.88,34.56,2.52,8.28-.12,15-7.92,20.4-13.56,9.36-28.32,11.52-44,6.48a85.39,85.39,0,0,1-36-22.92q-1.62,31.14,35.4,38.76a70.22,70.22,0,0,0,37.32-1.68c12.36-4.08,20.16-12.24,23.64-24.48a23.38,23.38,0,0,0,1-7.56c-.36-16.92-7.2-30.6-20.28-41-16.2-12.84-28.92-27.72-38-44.88-2.88-5.52-2.52-11,1.2-16.68,8.52-12.84,20-17.52,34.44-14.16A18.46,18.46,0,0,1,320,121.56ZM198,92.88c-2.16,19.08-3.72,38.52-4.56,58.44-1.8,42.72-4,85.44-6.24,128.16s-4.44,85.44-6.36,128.28a98.59,98.59,0,0,1-2,15.84c-2.52,12.36-1.44,23,3.48,32a3,3,0,0,0,1.56-2.4c3.24-34.44,5.88-69.12,7.92-103.8q3.78-63.9,6.84-128.28,2.88-64.62,0-128.4Zm264,1.56a503.46,503.46,0,0,0-4.92,69q-.18,37.62-1.44,75.24a201.49,201.49,0,0,0-65.76,15.24,785.41,785.41,0,0,1,3-96.48,358.09,358.09,0,0,0,.48-64.08c-2.88,2.76-4.44,6.84-4.56,12.12q-1.08,22.14-2.88,44.64a974.82,974.82,0,0,0-2,128.4,750.09,750.09,0,0,1-1.08,95.76c-1.56,21.48-4.2,42.84-7.8,63.84-2,12.12-.72,22.92,3.84,32.4a78.11,78.11,0,0,0,7.32-29.64l5.64-91a476.25,476.25,0,0,0-.36-64.08l-1.2-19.68a525.57,525.57,0,0,1,64.68-10L453,291.6q-3.78,64.44-4.92,129.12a206,206,0,0,1-2.4,29.52c-1.32-1-1.2.6.48,4.8-2.88,10.92-1.56,19.44,4.08,25.8a123.19,123.19,0,0,0,5-34.08q.36-47.88,3-95.76,2.7-49.86,4.08-99.72a10,10,0,0,0,.24-8.28l.36-20.28c.84-43.2.72-85.92-.6-128.28Z" transform="translate(-77.38 -86.04)"/></svg>