<svg id="Layer_1" data-name="Layer 1" xmlns="http://www.w3.org/2000/svg" viewBox="0 0 347.89 359.28"><defs><style>.cls-1{fill-rule:evenodd;}</style></defs><path class="cls-1" d="M269.16,301.92q-5.22,55.26-7.08,110.88a494.77,494.77,0,0,0-14.16-62.52q-8.64-29.16-19-55.44l-.12-6.36q-.72.18-.72.36l-.48,2.52-.36-1a.7.7,0,0,0-.6,1l.36,3.36A468.49,468.49,0,0,0,221.4,370,252.88,252.88,0,0,1,217,417.48c-1.92,10.2-.24,18.12,4.92,23.52a79.28,79.28,0,0,0,4.92-24.36q2.88-54.18,2.4-107.16A586.18,586.18,0,0,0,247.56,389a183.83,183.83,0,0,1,6.72,30.84q2,14.22,10.08,20.88a3.9,3.9,0,0,0,1-3.12l-.6-6,.12-.12a43.3,43.3,0,0,0,4.56-16.92c1.08-17.16,1.92-34.56,2.52-52,.84-22,1-43.32.24-64.2C270.36,298.68,269.4,299.88,269.16,301.92ZM116.4,309.24c-1.56,43.08-2.64,85.92-3.36,128.28l49.8-4.08c3.36-4.92,3.6-10,.84-15.36-15.72.84-30.6,1.2-44.88,1.08l.12-4.08q4.32-65,2.52-128.28A58.77,58.77,0,0,0,116.4,309.24ZM119,116.4q31.68,20.52,33.72,58.92a25.81,25.81,0,0,1-2.4,12.12q-16.74,35.46-52.56,50.4c.84-23.76,1.8-47.52,3.12-71.4a331.27,331.27,0,0,0-1.68-54.72,43.09,43.09,0,0,1,14.52,2.16A23.62,23.62,0,0,1,119,116.4ZM96.36,102.84l-.36,4.8.24,1.56Q91,169.86,91.2,232c.12,21.72-.12,43.44-.6,64.92Q89,361.5,84.72,424.2c-1.68,4.44-.36,9.6,4.08,15.48A186.8,186.8,0,0,0,94.92,392q.54-64.62,2.16-129l.24-8a26.6,26.6,0,0,0,6-1.2,141.88,141.88,0,0,0,39.48-30.72,53.66,53.66,0,0,0,10-16.08,94.88,94.88,0,0,0,3.12-59.16q-10.62-40.86-51-49.56l-1.56.48a24.76,24.76,0,0,0-6.48,2.4ZM201.6,163q1.44,64.44,1.08,129Q202.32,356,198,419.64a44.7,44.7,0,0,1-4.32-7.8,2.15,2.15,0,0,0-.24,2.52,13.73,13.73,0,0,1,1.32,5.52c.36,9,2.76,16.32,7.32,21.72a652.54,652.54,0,0,0,7.56-78.72q2.34-64.26,1.08-129.12c-.84-43.32-2.4-86.16-4.8-128.28-1.68-.12-2.52.6-2.64,2.16A502,502,0,0,0,201.6,163Zm162,16c3,42.84,4.2,85.92,3.84,129a1021.51,1021.51,0,0,1-9.12,129c-1.08,7.56.84,12.36,5.64,14.64a291.82,291.82,0,0,0,6.6-49.44q2.52-56.88,3.24-114.24l.12.36a147.5,147.5,0,0,0,48.72-.12q.18,44.64-2.4,89.4c-1,16.2-2.52,32.4-4.68,48.36-1.8,12.6,0,23.16,5.16,31.68l.48-.84c4.68-42.36,7.2-85.08,7.8-128.16l.36-41.76.72-.84c2.64-5,2.4-9.72-.6-14.16L429.36,232c-.12-43.44-1.08-86.16-2.64-128.28-2.76,4.56-4.2,10.08-4.44,16.44q-2.34,63.72-.36,128.28l.6,24a300.29,300.29,0,0,1-48.6,2.88V273a1080.45,1080.45,0,0,0-6.48-128.28C364,154.68,362.76,166.08,363.6,178.92Zm-2.16-74.16a311.17,311.17,0,0,0-39.6,3.48,171.2,171.2,0,0,1-31.32,1.44c-16-.72-31.68-2.16-47-4.2l-3.84,1.44-.24.72a11.37,11.37,0,0,0,1.44,11.4,72.21,72.21,0,0,0,28.68,6c14.28.12,28.56-.12,43.08-.72a805,805,0,0,0-6.72,97.56c-.48,43.08-1.44,86-3,129.12-.84,21.72-2.52,43.2-5.16,64.68-1.56,11.88-.12,22.68,4.2,32.4a2.85,2.85,0,0,0,1.08-1.44Q309.48,393,310.8,338c.84-32.28,1.8-64.56,3.12-96.72,1.56-39.48,1.68-78.48.6-117.12,18-.84,36.12-2.16,54.24-4.08l.72-.84c2.64-5.16,2.28-10.08-1-14.52Z" transform="translate(-84.02 -98.28)"/></svg>