<svg id="Layer_1" data-name="Layer 1" xmlns="http://www.w3.org/2000/svg" viewBox="0 0 302.31 211.32"><defs><style>.cls-1{fill-rule:evenodd;}</style></defs><path class="cls-1" d="M283,303.6l3.6,1.2,6.72,4.68c2.28-12.36-3.12-19.68-16.2-22.08q-50.58,29.88-34.68,89.4c2.4,9.12,8,15.72,16.8,19.92,9.24,4.2,18.24,4.08,27.24-.48,14.88-7.56,19.2-17.64,13.08-30.48l-1.08-1.56q-35.46,36.9-51-3.6a36.49,36.49,0,0,1-2.16-15.36l50-2.76c3-4.92,2.88-9.6-.36-14.28L248,332c5.64-16,16.44-26,32.28-30.12ZM166.32,288.36q.18-41.58-3.36-82.56,35.28-7.2,51.6,24.72,17.64,34.56-10.8,57.72A46.23,46.23,0,0,1,168,290Zm12.24-97a30.6,30.6,0,0,0-16.68,3.48V194l-1.2,1.44L160,196l-.36,1.32q-2.7,4.86-2.16,12.24a925.32,925.32,0,0,1-.84,129,344.75,344.75,0,0,0,.84,64.08,1.75,1.75,0,0,0,1.08-1q5.4-39.24,7.08-79.32l.6-17q28.08,11.34,48.84-12a44.33,44.33,0,0,0,11.28-26.88,94.1,94.1,0,0,0-3.24-32.76q-9.9-36-44.52-42.36ZM454.8,202.68c-2.76,23.16-4.44,46.8-4.92,70.68l-.12,6.84c-13-2.16-25-.72-35.88,4.32-.36-21.12-1.2-42.12-2.4-63.12a223.25,223.25,0,0,0-5.16,49.44c.12,43-.12,85.68-.48,128.28a2.55,2.55,0,0,0,2.16,2.16,3.24,3.24,0,0,0,2.28-3c1.92-16,3-32.28,3.36-48.72.36-17.4.48-34.8.36-52.08a204.7,204.7,0,0,1,35.52-2.4c-.6,35.88-.36,71.4.48,106.44,5.4-3,8-8.64,7.8-17-.6-18.6-.72-37.2-.48-56q1.08-65-.36-128.16C455.64,200.4,454.92,201.12,454.8,202.68Zm-56.52-7.56a463.15,463.15,0,0,1-66,1.44c-7.8-.36-14.52,1.56-20.28,5.88l-.36,1.56a12.75,12.75,0,0,0,.12,5.64l.48,1.68c16.44.72,33.12,1.08,49.8,1-1,35.16-1.68,70.8-2,106.68a262,262,0,0,1-2.28,32.28,170.06,170.06,0,0,0,0,48.12q2.52-.18,2.88-3.24a950.19,950.19,0,0,0,7.56-128.28,448.77,448.77,0,0,0-3.84-55.68l44.28-1.32a11,11,0,0,0,2.52-8.16,11.6,11.6,0,0,0-1.8-5.64,1.39,1.39,0,0,0-.84-.6A57.88,57.88,0,0,0,398.28,195.12Z" transform="translate(-155.51 -191.28)"/></svg>