<svg id="Layer_1" data-name="Layer 1" xmlns="http://www.w3.org/2000/svg" viewBox="0 0 306.96 211.77"><defs><style>.cls-1{fill-rule:evenodd;}</style></defs><path class="cls-1" d="M281.88,298.2a34.88,34.88,0,0,1,7.8,7.32c2.4,3,2.64,5.88.6,8.88a3.44,3.44,0,0,1-4.2-.36,24.22,24.22,0,0,0-4.92-3.48,24.55,24.55,0,0,0-18.24.24l-2.16.6a92.26,92.26,0,0,0-14.52,26.76A145.31,145.31,0,0,1,276,334.44l3.72.6a1.93,1.93,0,0,1,.84.48,14.24,14.24,0,0,1,1.32,9.72,9.7,9.7,0,0,1-1.32,3.24,191.26,191.26,0,0,1-37.8,3l-1.2,8.52c-1.08,12,3,21.24,12.48,27.72,14.88-.6,27.36-6.84,37.32-18.72l1.2-.6,2.4-.48c5,14.64-1,25.56-18,32.64A46.65,46.65,0,0,1,262.32,404c-10.92.84-18.12-4.32-21.84-15.48A90.42,90.42,0,0,1,235.92,359q.36-40,29.16-63.84a31.19,31.19,0,0,1,13.8,2Zm-119.16-6.6Q194,293.76,215,271.68c4.92-5.16,6.72-11.16,5.16-17.88A69.58,69.58,0,0,0,205,223.92c-12.84-14.88-27.36-20.4-43.56-16.44A263.19,263.19,0,0,1,164,261.72C163.44,271.68,163.08,281.64,162.72,291.6Zm11.52-98.4,4.68.6C211.44,208,227.28,232.08,226.2,266a33.24,33.24,0,0,1-10.68,23.88q-22.5,21.6-53.28,17.4l-.36,19.2a486.19,486.19,0,0,1-6.6,73.8c-.12.36-.48.72-1.32,1a327.8,327.8,0,0,1-.84-64.32c1.08-11.76,1.92-23.64,2.64-35.52l-.12-1.44a17.68,17.68,0,0,1,.48-5.64q1.26-22.68,1.8-45.72A181.74,181.74,0,0,0,156.6,222Q155,210.3,158,201.48l.24-2.28a7.07,7.07,0,0,1,4.32-4,42.74,42.74,0,0,0,6.24-2.88ZM403,197.28a.75.75,0,0,1,1-.24,180.27,180.27,0,0,1,3.36,48c-.84,15-1.56,30-2,45A255.87,255.87,0,0,1,451.32,283c.12-22.2-.24-44.52-.84-66.72a58.83,58.83,0,0,1,3.24-22.2c3,42.6,4.8,85.32,5.16,128.16a407.45,407.45,0,0,1-6.72,78c-5-5.88-6.72-13.68-5-23.52a243.1,243.1,0,0,0,3.24-32.28c.48-15,.72-30.12.84-45.12A142.56,142.56,0,0,1,405,300.6c-.36,13.32-.48,26.76-.36,40.08a398.14,398.14,0,0,1-1.8,41.4,24.4,24.4,0,0,1-4.08,21.12c-4.32-9.12-5.4-19.8-3.36-32a101.4,101.4,0,0,0,1.68-16c1.32-42.6,2.28-85.32,3.12-128.16a111.62,111.62,0,0,1,1.92-17.88A13.72,13.72,0,0,1,403,197.28ZM362.52,196a25.49,25.49,0,0,1,12.84,3.84l1.8,1a38,38,0,0,1,7.8,18.72,11.9,11.9,0,0,1-1.8,8.64,22.93,22.93,0,0,1-3.48-6.84,25.18,25.18,0,0,0-4.44-8.28,21.84,21.84,0,0,0-5.64-2.52,9.55,9.55,0,0,1-3-1.32,12.86,12.86,0,0,0-8.76,3.48l-1,.84-3.6,9.84a75.5,75.5,0,0,0-2.64,8.88,528.45,528.45,0,0,1,29.88,76.2q12.78,41.4-6.48,77.88a20.92,20.92,0,0,1-10.44,9.6c-17.4,7.56-30.84,3.48-40.56-12.12-8.16-13.08-9.12-26.28-2.76-39.36,3.24.6,4.92,3,4.8,7.08-.12,2.76-.36,5.4-.72,8,8.76,21.48,23.28,25.68,43.56,12.84,6.72-4.2,10-10.56,9.72-19a226.9,226.9,0,0,0-25.92-98.16Q338,228.78,354.48,203A18.24,18.24,0,0,1,362.52,196Z" transform="translate(-151.94 -192.36)"/></svg>