<svg id="Layer_1" data-name="Layer 1" xmlns="http://www.w3.org/2000/svg" viewBox="0 0 446.78 442.13"><defs><style>.cls-1{fill-rule:evenodd;}</style></defs><path class="cls-1" d="M323.64,313.44c-4.68,40-8.88,80.16-12.84,120.72a318.11,318.11,0,0,0,.36,64.2l1.56-.48a7.93,7.93,0,0,0,1.68,2.4,444.91,444.91,0,0,0,80,6.72,3.87,3.87,0,0,0,1.68-2.4l.24-.84a13.05,13.05,0,0,0,.84-4.8,14.21,14.21,0,0,0-1.92-7.32l-.72-.36A235.2,235.2,0,0,1,329,485.64a49.34,49.34,0,0,1-13.92,1.2l4.56-46a989.12,989.12,0,0,0,4.44-127.56ZM142.56,151.68q19.08,70.56-28.68,124a35.56,35.56,0,0,1-13.56,9.6A55.17,55.17,0,0,1,72,288.72l.48-11.4c1.08-21.48,2-42.84,2.64-64.08q2-63.18,8-124.68c12.48-4,23.16-.72,31.92,10A137.26,137.26,0,0,1,142.56,151.68ZM77.4,80.16A128.11,128.11,0,0,0,73.2,115q.18,64.62-4.44,128.28l-3.24,44.4a3.9,3.9,0,0,0-1.2,2.16,20.78,20.78,0,0,0-.24,8.16,5.14,5.14,0,0,0,.6,1.92L60.36,371.4A1222.72,1222.72,0,0,0,60.12,499q2,2.16,4.32,0-.54-46.44,1.8-93.48l5-101.64a47.86,47.86,0,0,0,25.08,1.68q39.6-25.2,50.28-70.92,15.3-64.8-11.52-125.76C125.88,88,110.88,75.72,89.88,72l-8,2.4-1.32.6-1-1.92-1.32,4.2A7.38,7.38,0,0,0,77.4,80ZM290.52,193l15.6-87.6,11.4,81.36ZM226.2,69.24q-24.12,12.24-35.88,37.92a371.22,371.22,0,0,0-31.8,114.72q-4.32,39.24-4.8,79.56a703.56,703.56,0,0,0,9.6,126.48c1.8,10.8,4.08,21.48,7,32.16q8.1,30.24,36,42.72a19.16,19.16,0,0,0,15,.72c24-8,44-22.08,60.24-42.36,7.68-9.72,8-18.36,1-25.8a117.05,117.05,0,0,1-20.88,28.08c-15,14.88-32.52,22.08-52.8,21.48a13.14,13.14,0,0,1-9.48-4.44q-30.06-32.4-33.84-77.88-3.42-39.78-4.44-80.28c-.24-9.72-.24-19.32-.12-28.8a291.6,291.6,0,0,1,81.24-7.8l.6-.84q4.86-9.54-2.52-14.76a192.9,192.9,0,0,0-79,10.32,596,596,0,0,1,9-82.92,329.22,329.22,0,0,1,27.36-84.84c11.76-24.36,30.24-32,55.32-22.8a57.3,57.3,0,0,1,13.32,11.28l5.88,7.32,2.76.36a1.24,1.24,0,0,0,1-.48l.6-.72a37.51,37.51,0,0,0-6.48-16,60.34,60.34,0,0,0-16.2-16.44,6.46,6.46,0,0,1-3-1.08A45,45,0,0,0,226.2,69.24ZM304,81.72a197.87,197.87,0,0,0-9.24,38.64c-3.6,25.56-7.92,50.88-13,76.2l-1,.48-.24.72a13.63,13.63,0,0,0,0,5.4c-3,14.52-6.12,28.92-9.48,43.44A114.35,114.35,0,0,1,267.6,258c-4.44,11.76-4.8,22.56-.84,32.4a6.11,6.11,0,0,0,4.44-4.68q4.86-18.9,8.64-38.16L288,205.68c10.56-1.8,21.12-3.36,31.8-4.68l13,82.92a7.93,7.93,0,0,1,1.68,2.4q-.54,7.38,4.32,11.88,3.06-2,2.52-6.12-5.94-44.46-12.24-88.8l-.48-3.36,4-.48.36-.84a10.68,10.68,0,0,0,0-9.72l-.36-.84a1.09,1.09,0,0,0-.84-.36l-5-.48q-7.92-52-19.44-103.2l-.36-9.6-1.32,3.24c-1.2-.12-1.8.6-1.68,1.92Zm132.12-3.6q-2.7,38.88-5.28,78c-2.64,42.6-4.8,85.44-6.36,128.28s-3.72,85.44-6.12,128.16q-2,32.22-5.76,64.08c-1.56,12.36.12,22.56,4.92,30.72l1.32-2a402.78,402.78,0,0,0,61.68,3.6,11.29,11.29,0,0,0,9.84,1.92c14.28-3.24,18.36-10.8,12.36-22.68a6,6,0,0,0-4.8.48c-3.84,4.2-8.76,5.88-14.64,5a244.83,244.83,0,0,0-62-1.2q3.42-61,5.88-122.4l5.64-128.16,5.52-128.28a138.25,138.25,0,0,1,1.56-16c1.44-9,1-16.92-1.44-23.52A4.54,4.54,0,0,0,436.08,78.12ZM375.24,92.28c10.44,10.92,16.56,24.36,18.24,40.08,1.56,15.36-2.76,29.16-13.2,41.4A60,60,0,0,1,362.64,188a435,435,0,0,0,1.44-95.16ZM362,80a722.19,722.19,0,0,0-8,117.12l-.12,2.4c-1.2,16.92-2.16,34.08-3,51.24l-1.8,39.84c-.36,6.12,1.08,8.76,4.32,7.68q13.14-44.1,8.4-94.56l14.28-9c-.36,39.36,8.4,74.52,26,105.6a560.56,560.56,0,0,0-22.2-109.08c14.64-16.92,21.12-36.6,19.44-59.28l-.84-8.16a67.06,67.06,0,0,0-3.6-15.24,72.39,72.39,0,0,0-8.76-17.16,88.56,88.56,0,0,0-10.08-12.12Z" transform="translate(-58.57 -69.08)"/></svg>