<svg id="Layer_1" data-name="Layer 1" xmlns="http://www.w3.org/2000/svg" xmlns:xlink="http://www.w3.org/1999/xlink" viewBox="0 0 573.96 594.07"><defs><style>.cls-1{fill:none;}.cls-2{clip-path:url(#clip-path);}.cls-3{fill-rule:evenodd;}</style><clipPath id="clip-path" transform="translate(-15.72 -0.22)"><rect class="cls-1" x="15.72" width="574.08" height="596.52"/></clipPath></defs><g class="cls-2"><path class="cls-3" d="M361.8,534.24c8.4-3.48,13.44-6.84,15.12-9.84v-.48l-8.4-.6-4.32-.12Zm78.84-96.48.12,2.76c0,4.44-5.52,19-16.44,43.8l-6.24,13.8q10.08,32.4,20.52,78l1-.12,1-1a9.07,9.07,0,0,1,1.2,3.72l.12,4v4a15.14,15.14,0,0,1-1.08,3.72c-3.12-6.36-8.4-22.44-15.72-48-5.4-18.48-8.76-31-10.08-37.56-4.44,9.72-7.8,16.68-10.08,21l-1.68-.48c-1.56,33-2.4,54.6-2.4,65-.12,0-.36.24-.6.6l-.84.84-2.16-.36c-.12-2.16-.24-5.28-.24-9.36q0-11.7,3.24-65.52l3.24-51.72c0-2-.72-6.48-2.16-13.08l-2.16-10.08c0-2.16.48-3.6,1.32-4.2,2.52,1.68,4.2,6.24,5,13.8A115,115,0,0,1,406.2,465l-2.52,50.28c1.56-3.24,3.72-7.68,6.48-13.2l12.48-24.48c1.56-3.24,4.2-10.68,8-22.32,3-8.88,6-15.36,9-19.56Zm-106.56,6.48a3.43,3.43,0,0,1,1.68,2.64v2.28l-.12,2.88-1,2c-4-3.24-7-4.92-8.88-4.92l-12.12.36a33.21,33.21,0,0,0-11.88,15A42,42,0,0,0,299,480.36c0,3.24,1.08,8.16,3.24,14.64,3,9.12,7,13.68,11.64,13.68l13.2-.24,9-8,5.88-6.6,1,1.32a5.69,5.69,0,0,1,.48,2.76q0,3.42-5.76,9.36l-10.8,9.84c-15.24-2.64-24.84-8.16-28.68-16.44A28,28,0,0,1,296,490.08l.24-9.48.12-11a25.88,25.88,0,0,1,1.44-7.92c1.68-4.2,7.08-11.16,16.08-20.88C324.48,441.12,331.2,442.32,334.08,444.24Zm-49.44-147.6-13.2.24q-8.1,8.82-10.8,15.12a32.75,32.75,0,0,0-2.76,13.68c0,4,3,8.16,9.12,12.36q5.58,4,20.16,13c8.76,6.12,15.48,12.6,20,19.44,6.12,9.24,9.12,20.16,9.12,32.64a38,38,0,0,1-2,10.92,51.18,51.18,0,0,1-6.84,14.64c-8,12.12-19.32,18.12-33.6,18.12-15.48,0-26.64-5.64-33.48-17a38.23,38.23,0,0,1-4.8-12.12,30.77,30.77,0,0,1-1-6.12,77,77,0,0,1,.24-7.92l3.84-11.16c1.32.72,1.92,2.64,1.92,5.64a26.64,26.64,0,0,1-1.68,7.44,26.27,26.27,0,0,0-1.56,6,17.9,17.9,0,0,0,1.8,6,38.61,38.61,0,0,0,5.52,9q9,11.88,20.52,11.88c16.92,0,29.88-5,39-15.12a38.36,38.36,0,0,0,7.32-11.88,22.16,22.16,0,0,0,2.16-8.4,42.38,42.38,0,0,0-9.24-26.76c-4.2-5.4-10.8-11.16-20-17.52-11.16-7.56-17.76-12.36-20-14.52-6.12-5.64-9.24-11.52-9.24-17.76,0-7.8,1-14.28,2.88-19.56a42.1,42.1,0,0,1,13.68-18.6q42.48.36,42.48,30.24l-.24,8.16-.24.12-.6.72H309.6a13,13,0,0,1-.36-3.72,4.8,4.8,0,0,1,1.2-2.88,4.75,4.75,0,0,0,1.08-2.76c0-3.24-2.76-7.44-8.16-12.6C297.24,299.64,291,296.64,284.64,296.64ZM114.72,364a24.94,24.94,0,0,1,12.48.6,26.77,26.77,0,0,1,12.48,6.72A18.65,18.65,0,0,1,145.32,385c0,3.24-1.92,6.84-5.64,10.92a25.3,25.3,0,0,1-11,7.2l8.88,12.48c6.24,8.64,11.76,16,16.44,22v5.76l-.6.36-1.32.72-17.52-23.88C128.4,412,124.2,406.56,122,404.28l-4.08.24-11.4-.24-1,6.12c-3,18.24-5,29.16-6,32.88A4.22,4.22,0,0,1,98.4,441a19.67,19.67,0,0,1-.12-3.12q5.22-58,11.28-74.76l.84,2.88A8.1,8.1,0,0,1,114.72,364Zm-4.08,9.48c-.24,4.68-1.2,12.12-2.76,22.56l13.68-1,.72-.72.48.6c6.12-.84,10-1.8,11.52-3a14.29,14.29,0,0,0,2.52-3.12,13.66,13.66,0,0,1,4.68-3.72l-4-7.2c-1.8-2.64-5-4.8-9.48-6.6q-7.74-.18-11.16,1.44l-2.16,1.56A7.66,7.66,0,0,1,110.64,373.44Zm61.68-268.32Q177,123.66,177,138.6c0,7.68-1.44,16.56-4.2,26.52a131.27,131.27,0,0,1-15.12,34.8Q130.5,243.3,79,247.56q-35.1-.18-47.52-6.84l-1-.48-.72,14.28,2.16,91.68-1,40.56-1.2,33v41.4c-1.44,9-2.52,19.56-3.24,31.56L25.2,524.4l-1,15.84-1,15.84-.12,15.84c-.36,6.12-1.68,11.16-4.2,15.24-.48-.48-1.2-2.16-2-5a26.42,26.42,0,0,1-1.2-6.24c0-12.24,1.2-33.72,3.48-64.56,2.16-28.44,3.84-46.92,5.16-55.68V413.52l1.2-30.12c.6-19.2,1-31.68,1-37.32l-2.16-91.32c0-6.12.12-13.32.48-21.6a12.66,12.66,0,0,1-.48-3.72l.12-2.88.36-2.76.48-.12c.48-10.92,1.2-23.28,2.28-37.08q3.24-44.64,3.24-67c0-7.32-.36-16.32-1.08-27.12L27.6,65.16C27,57.6,26.52,46.8,26,33c-.36-11.16-.6-18.12-.6-21a13.44,13.44,0,0,1,.72-4.2,6.85,6.85,0,0,1,2-3.24c3,7.44,4.68,16.92,5,28.56.12,6.6.24,16.32.36,29.4l1.8,34.56.84,22.68L34.68,152.4c-1.08,20.28-1.56,31.92-1.68,35.16-.12,6.12-.6,18.72-1.68,37.92v1a13.63,13.63,0,0,0,2.76,1.8c5.88,3,15,4.44,27.6,4.44l10-.12L80,232q45.9-4.14,72.12-41.4a116.74,116.74,0,0,0,15-29.64c3-8.76,4.44-16.32,4.44-22.56,0-9.36-1.68-19.68-4.92-31.08A124,124,0,0,0,146.88,67Q110,17.1,33,17.88a17.38,17.38,0,0,1-1.68-3.36,11.37,11.37,0,0,1-.48-3.6,13.44,13.44,0,0,1,.72-4.2,6.85,6.85,0,0,1,2-3.24q81-1.44,118.92,56A146.42,146.42,0,0,1,172.32,105.12Zm155.4,43.44.48,1.92c0,7.92-3.24,20.4-9.84,37.32-3.48,9.12-8.28,20.64-14.16,34.68-4.92-8-9.84-18.48-14.88-31.44-6.6-16.68-10.92-27.24-13.08-31.68l-7.92,30.84-8.52,33a10.48,10.48,0,0,0-1.56.6l-2.28.84-.6-1.2-.24-2.52c0-.84,1.68-6.36,5.16-16.68,3.72-11.4,6-18.6,6.84-21.84a76.29,76.29,0,0,0,1.32-9.24l1-10.56c1-8.52,2.88-14.28,5.76-17q4.14,8.82,13.68,32c5.88,14,10.8,25.08,14.52,32.88q8.82-21.06,13-32c4.68-12.72,7.68-23.64,9-32.88A8.06,8.06,0,0,1,327.72,148.56ZM342.36,49.2A95,95,0,0,0,332,31Q320.7,15.12,305.76,15.12,269.22,15.12,250,31c-10.8,8.76-18.36,21.84-22.56,39.36-2.52,10.32-4.56,27.48-6.12,51.36-1.56,23.64-3.72,40.92-6.48,51.72v88.8l27.6-1.08,49.08-.48,1.2-1.08,1-.36a17.08,17.08,0,0,1,1.8,4.44,20.71,20.71,0,0,1,.6,4.56,33.41,33.41,0,0,1-.24,4.92q-.72,3.06-3.6,2.88l-25.92.24c-17.4.12-26.4.36-27.12.6l-25.44-.24c-2.4,28-3.72,43.8-3.84,47.76-.36,4.92-.48,21-.48,48,0,27.36.12,42.48.24,45.48.12,4.68,1.56,24.36,4.08,59.28l1.56,26c1,10.68,2.76,19.32,5.52,25.92,1.2,2.76,1.92,7,2.16,12.72.24,6.12.84,10.56,1.8,13.44,3.48,10.68,15.6,18.6,36.36,23.88l33.84-.36q39.06-20.88,51-46.68a86.62,86.62,0,0,0,6.36-23.16l2.16-23.4c1.56,1.08,2.64,4.92,3,11.4l.24,10.8c0,12.12-2,22.92-6,32.4a6.86,6.86,0,0,1,2.16-1.92l1.32-.84c2.52-9.48,4.92-16.56,7.2-21a6.45,6.45,0,0,1,.72-2.76H364c8.76.6,14.4,1.8,16.8,3.84a4.31,4.31,0,0,1,1.56,2.88v3c0,7.8-7.32,14.16-21.84,19.2,2.76,4.32,7.68,11,14.76,20.28,6.12,8.4,10.2,15.6,12.48,21.48v4.8l-.48.48-.84.84-9.48-11.88a72.36,72.36,0,0,1-7.56-12.12,55,55,0,0,0-11.28-16.2c-4.44,18.6-7.92,31.2-10.32,38h-1.44c-.12-1.56-.24-3.84-.24-6.84,0-3.72,1.92-14,5.88-30.72l1.08-4.44c-1.8-1.44-2.64-2.4-2.64-2.76l.12-.6A64.56,64.56,0,0,1,346,550.8Q331,573.48,293.28,594l-32.16-.24c-15.24,2.64-27.12-4.68-35.4-22a102.48,102.48,0,0,1-7-20l-2.76-13c-3.24-13.44-5.76-31.8-7.68-55.2-2.64-31.32-4.08-51.84-4.32-61.44v-49.8q0-43,.36-50.4c.36-9.48,2-30.6,5-63.24V168.6q4.86-72.18,16-110C238.08,15.72,257.88-3.6,284.64.84,305.16,0,321,5.16,332.4,16.44a48.48,48.48,0,0,1,9.6,13.8c1.8,4.2,2.76,7.8,2.76,10.92A14.39,14.39,0,0,1,342.36,49.2ZM514.44,376.08l.48,4.8c0,18.36-1.08,32.64-3.24,42.6v110.4l-1.56,28.32c-.36,7.32-1,13.68-1.56,19.08h1.2c26,0,46.44-12,61-36a112.66,112.66,0,0,0,11.88-27.12c2.16-7.56,3.24-13.44,3.24-17.52q-4-54.54-7.8-69.84a74.07,74.07,0,0,0-7-17.76,43.88,43.88,0,0,0-15.84-16.56c-6.72-4.08-17.28-9.24-31.56-15.6A78.38,78.38,0,0,1,514.44,376.08Zm-53.76,17.16a60.55,60.55,0,0,0-.48,9.36c0,3.48-.12,5.76-.48,6.84v42.24c-.6,7.56-1.2,16-1.68,25l2.88-1.44a37.31,37.31,0,0,1,11-2.52l10.92.48c3.36,1,5,2.76,5,5.28a9.36,9.36,0,0,1-.36,2.88l-1,1.92-12,1.44-16.8-.36c-.84,19-1.32,40.68-1.32,65.16,0,8.64.24,13.92.6,15.84,1,5,3.72,10.32,8.4,16,8.76-.36,15.12-3.12,19.32-8.28a17.79,17.79,0,0,0,4.2-11.28l-1.92-2.52a11.08,11.08,0,0,1-1.92-2.88,7.6,7.6,0,0,1,.36-2.76,6.78,6.78,0,0,1,1.08-2H496l1.32,2a8.06,8.06,0,0,1,.36,2.76,30.47,30.47,0,0,1-1.8,6.6A73.09,73.09,0,0,1,490.92,575c-5.52,11.16-11.28,16.8-17.4,16.8l-10-.36a40.43,40.43,0,0,1-10.08-21c-.48-2.76-.72-9.6-.72-20.64,0-20.28.12-37.32.48-51.12.48-18.6,1.44-35.64,2.76-51.12V404.52c-1.44-10.44-.24-18.72,3.48-24.72a17.24,17.24,0,0,1,13.92-8.4,20.34,20.34,0,0,1,15,4.92,19,19,0,0,1,7.08,15.12,7.86,7.86,0,0,1-.6,3,25.16,25.16,0,0,1-4,4.68c-2.52-1.56-3.6-3.24-3.12-5a13,13,0,0,0,1.68-5.4c0-1.32-1.56-2.88-4.8-4.44a29.42,29.42,0,0,0-13-2.64C465.36,381.6,461.76,385.44,460.68,393.24Zm49.44-21.72c0-7,5.16-8.28,15.36-3.84,7.92,3.36,18.6,10,31.92,19.8A68.86,68.86,0,0,1,574,406.2a72.7,72.7,0,0,1,7.8,18.6c2,7.44,3.84,19.44,5.52,35.88,1.56,16,2.4,29.16,2.4,39.72A81.41,81.41,0,0,1,586,524.16c-1.8,5.64-5.16,14.52-10.08,26.52-1.08,2.28-4.08,6.12-9.24,11.52a110.89,110.89,0,0,1-12.12,11.52l-7.08,5.76a48.71,48.71,0,0,1-7.32,5.16c-6.36,3.48-16.56,6.24-30.84,8.28a4.67,4.67,0,0,1-3.36-3.12l-.12-1.8-.6-2.88a34.51,34.51,0,0,1-.48-5.64c0-20.28,1.08-37,3.24-49.92V419.16q.54-4.5.72-13.32c.24-6,.48-10.44.84-13.44l.12-13.68a33.1,33.1,0,0,1,.6-6.48Zm-135.12-3a33,33,0,0,1,16.2,3.72c4.92,2.52,7.44,5.88,7.44,10a8,8,0,0,1-2.52,5.88,58.47,58.47,0,0,0-6.12-6.84c-4-3.72-7.68-5.64-11.16-5.64-8.28,0-14.76,1.56-19.44,4.56-3.48,2.28-5.16,4.32-5.16,6.24,0,2.52,1.92,5.16,5.76,7.68q3.42,2.34,12.6,7.56c5.64,3.48,10,7,12.72,10.56a26.75,26.75,0,0,1,5.76,16.92c0,5.4-.6,9.24-1.68,11.52-2.52,5.52-8.28,8.28-17,8.28-13.08,0-23.52-5-31.56-15.12a46.77,46.77,0,0,1-6.72-11.28c-1.32-3.24-2-5.52-2-7.08,0-3,.12-5.28.24-6.84l1-.48,1.2-.84q3.42.36,4.32,1.8l.36,2.52a9.4,9.4,0,0,1-.24,2.52c-.6,1-1.92,1.56-4.2,1.8,2.52,3.84,7,8.4,13.2,13.8q12.24,10.8,20.16,10.8c7,0,12.36-1.68,16.2-5.16,2.76-2.28,4.08-4.56,4.08-6.6,0-3.84-1.92-7.44-5.76-10.92q-3.06-2.7-12.6-8.64c-5.88-3.72-10.2-6.84-12.72-9.36-3.84-4.08-5.76-8.52-5.76-13.44a15.47,15.47,0,0,1,7.44-13.56C363.12,370.08,368.52,368.64,375,368.52ZM363.24,290a2.88,2.88,0,0,1,.72,1.8v2.28l-.24,1.32.36.48q.18.36-1.44.36a5.85,5.85,0,0,1-3-.72,3.4,3.4,0,0,1-1.08-1.2l-17.16.24-17.76.6-7.08-.24a7.79,7.79,0,0,1-.6-2.64l-.12-3.48c2.88-29.16,4.32-45.48,4.32-49.08a68,68,0,0,0-1.68-9.48l-1.56-7.2a10.56,10.56,0,0,1,1-4,24.66,24.66,0,0,1,1.44-2.4c1.32,1.32,2.28,5.16,2.88,11.28.36,4.08.6,7.8.6,11.28l-.12,24.12a103.92,103.92,0,0,1-3.12,23.16v.24l2.28-.12,2.88-.6,34.92.24ZM364,77.16c-.36,6.36-1.92,18.12-4.92,35.4,15.12-.24,26-2.52,32.76-7,4.2-2.76,6.24-5.52,6.24-8.4,0-1.08-1-2.76-2.76-5a40.79,40.79,0,0,0-7.68-7.32C380,79.2,372.12,76.56,364,77.16Zm-3.84-3.48c0-2.16.48-3.48,1.44-4.08,16.68,1.08,28,5.16,34.08,12.12,3.48,4.08,5.16,9.6,5.16,16.56q0,6.3-4.68,13a21.81,21.81,0,0,1-7.8,7.08c3.24,2.76,7.08,6.48,11.64,11.16,9.24,9.72,13.8,15.84,13.8,18.12l-.24,2.64-.84,1.8q-6.3-5-19.44-18.72c-5.52-5.76-9.36-10.08-11.52-12.84l-5,.48-19.08-.24-5.28,27.84-1.08.24a7.67,7.67,0,0,1-.72-1.92L350.4,144a204,204,0,0,1,2.28-25.8,3.52,3.52,0,0,1-1.2-2.28l.12-2.16.24-1.44,1.68.12L355.2,101c2-13.08,3.72-22,4.92-26.88Zm227-59.28a10.31,10.31,0,0,1-2.64,7L537.6,24a88.72,88.72,0,0,0-11.52,2.76l-56.64-.24c2.28,13.32,3.72,29.16,4.44,47.64.6,13.8,1.2,34.32,1.8,61.44l2.88,63.6c1,21.48,1.44,41.16,1.44,59.28,0,30.24-.12,49.68-.36,58.44-.72,24.12-2.52,42.12-5.52,53.76q-1.26-1.62-2.16-7.92a66.12,66.12,0,0,1-.6-7.2c2.16-55.32,3.24-87.84,3.24-97.8,0-16.32-.6-34.8-1.8-55.56q-2.16-33.66-2.52-63.36c-.12-9-1-30.72-2.76-64.92l-2.4-47.4H461.4l-57-4.32L377.64,21c-4.68-.12-7.2-.6-7.8-1.44a2.51,2.51,0,0,1-.36-2l.12-3.36c0-3.48.12-5.4.48-5.88.84-1.2,3.72-1.8,8.52-1.8l82.8,5.4,66.24-.24A96.81,96.81,0,0,1,541.8,8.52,151.74,151.74,0,0,1,565,6.72l19.8.36A13.28,13.28,0,0,1,587.16,14.4Z" transform="translate(-15.72 -0.22)"/></g></svg>