<svg id="Layer_1" data-name="Layer 1" xmlns="http://www.w3.org/2000/svg" viewBox="0 0 316.46 213"><defs><style>.cls-1{fill-rule:evenodd;}</style></defs><path class="cls-1" d="M201.48,276.24c-11.64,13.8-25.92,19.2-42.6,16.2a714.2,714.2,0,0,0-.6-83.28c19.56-3.12,34.8,4.44,46,22.8Q218.82,255.9,201.48,276.24Zm75.24,13.2a102.17,102.17,0,0,0-34.2,5.52L260,246.36a137.81,137.81,0,0,0,7-29.88Q271.14,252.84,276.72,289.44Zm-119-88.08-.24-2.76a1.85,1.85,0,0,0-.84.36,287.69,287.69,0,0,0-3.72,42.12c-.36,16.44-.84,33-1.68,49.44l-.48-.12-.24.72a17.2,17.2,0,0,0-.36,9.84l.48,1.44c-1.2,22.32-2.76,44.64-4.8,66.84-1.08,12.48.48,22.92,4.44,31.44a4.63,4.63,0,0,0,1-2.4q1.26-35.46,5-71.28l1.68-19.44a38.8,38.8,0,0,0,24-2.4c27.36-11.64,38.4-31.8,33.24-60.72Q208,205,169.92,193.8a12,12,0,0,0-11,5.4Zm109-.48-.48.12-.72,2.16q-22.5,65.7-46.2,131.64A81.47,81.47,0,0,1,213,348.36a147.94,147.94,0,0,0-8.64,16.8c-5.16,11.64-7.08,23.4-5.64,35l.24-.12a464,464,0,0,0,38.4-91.2l41.52-6a407.44,407.44,0,0,0,17.28,96,9.25,9.25,0,0,0,2.76,4.32,752.72,752.72,0,0,0-12.84-109.8q-6.48-33.3-13.56-66.48l-4.92-22.2C268.2,201.24,267.84,199.92,266.64,200.88ZM451.8,212.52q1.26,35.82,2.16,71.88l-3.72-.48A180.45,180.45,0,0,0,412,291.6c1-32.52.6-64.8-1.2-97.08a142.64,142.64,0,0,0-5,38.16c0,13.44-.36,27-1.2,40.56l-1.08,24-.24,1.2.12,2.4c-1.32,33.72-1.56,67.2-1,100.68l1.32-.12q4.68-38.7,7-78.6l.84-17,.84-.36,1.32-.84.84-.72c13.56-2,26.88-3.6,39.72-4.8l.72,41.64a137.57,137.57,0,0,1-3.48,32.16c-2.76,11.88-2,22.68,2,32.52a168,168,0,0,0,8.28-50.88q.54-48.06-.6-95.76a432.67,432.67,0,0,0-6.12-64.2c-.6-.12-1,.12-1.08.48A52.85,52.85,0,0,0,451.8,212.52Zm-94.92-3.84,4.32-2.16,7.56-.36,13,12.48c2-15.48-4.68-24.24-20.28-26.28q-39.42,40.32-1.8,85.56,26.46,32,25.56,72a51.62,51.62,0,0,1-11.88,32.16q-50,11.16-57.72-36.6a12.82,12.82,0,0,1,1-7l-3.48-10c-12.6,26.52-5.4,49,21.36,67.2a40.88,40.88,0,0,0,29.76,6.84A23.73,23.73,0,0,0,382.44,391a50,50,0,0,0,4-8,103.75,103.75,0,0,0,4.08-66,142.79,142.79,0,0,0-31.68-59.64q-18.18-20.34-4.32-44.4Z" transform="translate(-145.47 -192.36)"/></svg>