<svg id="Layer_1" data-name="Layer 1" xmlns="http://www.w3.org/2000/svg" viewBox="0 0 568.8 591.74"><defs><style>.cls-1{fill-rule:evenodd;}</style></defs><path class="cls-1" d="M52.44,511.68C51.6,504.36,51.12,499.44,51,497c-.6-11.4,1.2-19,5.52-22.8,1.08,4.32,1.68,10.92,1.68,19.92,0,10-.72,24.12-2.16,42.24l-3.6,40.08,17.88,1.08q11.16,2.52,16.92,0a7.47,7.47,0,0,0,3.72-3c2.28,0,3.72,1.2,4.56,3.72a15.24,15.24,0,0,1,.6,4.08,7,7,0,0,1-1.92,5.28l-4.56.24-5.16.84L77,588.48l-7.8-.6-20-.6a23.82,23.82,0,0,1-1.32-8.88l2.76-22.56c1.8-15.24,2.64-25.32,2.64-30.24A116.08,116.08,0,0,0,52.44,511.68ZM76.68,409.32c13.8.84,24.12-1.68,30.84-7.56,4.44-4,6.72-8.16,6.72-12.48a18.06,18.06,0,0,0-6-13.92c-5.64-5.28-14.76-7.56-27.36-7C80.76,378,79.32,391.68,76.68,409.32Zm3.24-52.56c14.52-1.56,25.32,2.4,32.16,11.88a33.29,33.29,0,0,1,6.72,20c0,4.92-1.68,10.68-4.92,17.16-4.2,8-9.6,12.72-16.44,13.8,2.52,6,5.64,14.52,9.12,25.68,5.28,16.92,7.92,26.52,7.92,29l-.24,4.44-.6.48-1.08.84c-3.48-6.36-8-18.36-13.68-36.24-3.72-11.88-6-19.92-7.08-24.12l-16.68-.12L74,426.24l-9.12,55C63.6,480,63,478,63,475c0-1.44,2.16-18.6,6.48-51.6l1.2-9.36.24-2.4,5.16-43.32-.84-1.8a19.34,19.34,0,0,1-.24-3.12,7.8,7.8,0,0,1,2.16-5.52L77.4,354A9.11,9.11,0,0,1,79.92,356.76ZM121,70.92a124,124,0,0,0-10-16.56,60.19,60.19,0,0,0-18.24-16c-15.48-8.64-30-13.2-43.8-13.56l-5.28-.48.84,11.4c.6,9.48,1,17.16,1,22.8,0,3.48-1.08,22.92-3.12,58.44l-4.44,72.72V229.2l1.32,1.08Q97.38,219.12,120,186.6c9.48-13.56,14.16-30.36,14.16-50.4a181.94,181.94,0,0,0-3.72-33.72C127.8,88.32,124.68,77.76,121,70.92Zm-2.4-26.52A78.53,78.53,0,0,1,128.28,63a200,200,0,0,1,9.84,37.44,228.72,228.72,0,0,1,2.64,36,118.4,118.4,0,0,1-8.64,44.76,119.38,119.38,0,0,1-22,35.28,103.17,103.17,0,0,1-29.4,23.16q-16,8.28-31,8.28l-11.88-.36v13.56c-1.32,8.16-2.4,14.16-3.24,17.88v47.76a154.63,154.63,0,0,0-2.76,20.64l-1.56,20.76v59.28c-1.2,10.92-2.28,24.36-3.24,40.56l-2.64,41.28Q21.06,559.5,14,592c-1.8-1.44-3.12-3.84-3.84-7.32l-.48-5.16c0-.84,1.32-12.24,4-34.32,2.76-23.52,4.44-38.64,5-45.24l1.92-39.36c.84-16.44,1.8-29.88,3.12-40.2V361.08l1.68-19.8a152.77,152.77,0,0,1,2.76-19.92V274.44l1.56-8.88,1.68-9.84V183.48l4.32-67.92C37.92,81.12,39,62.16,39,58.8L37.92,38.4,36.84,17.88A51.26,51.26,0,0,1,37,12.6c.48-2.52,1.68-4.2,3.6-4.8L41,9c3-2.76,9.36-3.12,19.08-.84C73,11.16,86.28,17,99.84,25.68A77.05,77.05,0,0,1,118.56,44.4ZM313.68,142v4.8a27.78,27.78,0,0,1-1.08,8.52l-1.44.36a24.83,24.83,0,0,1-.6-3.6,20.94,20.94,0,0,0-1.2-5.64c-1.8-5-5.64-7.56-11.64-7.56l-11.16.24A7.86,7.86,0,0,0,284.4,142a9.55,9.55,0,0,0-1.08,2.76c0,2.16,2.16,5.28,6.6,9.24l14.52,13c14,13.56,21.12,28,21.12,43.08a23.38,23.38,0,0,1-1.56,6.48A70.32,70.32,0,0,1,319.32,227c-5.4,9.48-11.88,14.28-19.44,14.28l-8.16-.24q-20.88-6.84-20.88-36.36a76.34,76.34,0,0,1,.36-9.36c.48-4,1.68-6.6,3.72-8.16a9.07,9.07,0,0,1,2.16,2.88,5.91,5.91,0,0,1,.84,2.64,9.9,9.9,0,0,1-1.68,5.76,8.84,8.84,0,0,0-1.56,5.28c0,4.2,1.2,9.12,3.72,14.64,3.72,7.92,8.64,11.88,14.88,11.88,8.76,0,15.84-3.48,21.48-10.44a34.11,34.11,0,0,0,5.88-11c0-6.6-2.16-12.84-6.36-18.84-2.76-3.72-7.44-8.64-14.16-14.76-7.08-6.36-11.76-11-14.16-14.16-4.32-5.64-6.48-11.28-6.48-17,0-4.44.12-7.2.48-8.16.84-2.52,3.12-5.16,6.84-8.16,12.84.12,21,2.88,24.72,8A13.37,13.37,0,0,1,313.68,142Zm-79.92-92.4c-.72,5.16-1.44,11.28-2.28,18.36l-2,18.12-4.68,35.64c-2.52,17.88-4.2,30.12-5,36.6q-7.74,59-25.92,144.36l-2.88,13.08A72.86,72.86,0,0,1,197.4,312c3-1.44,8-3.72,15.24-6.72,6.84-3.24,12.84-6.36,17.88-9.36a178.76,178.76,0,0,0,16-11.28c6.6-5.16,10.68-8.16,12-9a14.57,14.57,0,0,1,3.72-2q-6.12-47.7-13.92-131.4-8.1-86.4-9.72-112.68A142.48,142.48,0,0,0,233.76,49.56ZM243.6,14.4l-1,2.52q6.3,45.72,13.92,131.16,8.82,97.38,16.2,146.16,2.34,18,20.64,139.2Q310.68,553,310.68,586.08l-.24,5.4a7,7,0,0,1-3,4.44q-9.36-31.5-15.24-76.2Q287,480.3,286.8,451.8q-.18-30.06-7-72Q271,331.92,267.12,308c-.84-4.68-1.68-10.08-2.52-16l-4,2.76-10.08,5.4A103.23,103.23,0,0,0,235.92,310a220.47,220.47,0,0,1-24.6,16.68c-10.92,6.36-18.72,9.6-23.52,9.6l-1.44-.24c-9.48,41.28-19,78.24-28.2,110.76A1297,1297,0,0,1,107.64,591.6c-1.8-.24-3-1.68-3.48-4.32a42.2,42.2,0,0,1-.24-4.92c0-2.52,3.12-13.32,9.48-32.4l22.8-69.24q36.54-113.22,52.44-193.56l14.28-73.44c5.16-28,9.12-52.32,11.64-73.32l5.52-36.84c2.28-15.48,3.6-27.72,4-37,2.88-23.88,6.84-42.12,12-54.72,2.16-5.4,4-7.92,5.28-7.68C242.88,4.44,243.6,7.8,243.6,14.4ZM282,20.16c.12,2,.24,6.24.24,12.72,0,10.92.12,25.32.36,43.44a263.36,263.36,0,0,1-4.68,45.48l-1.32.24c-1-4.92-1.44-12-1.44-21.48,0-5.16.6-17.52,1.68-37l1.56-30.48-1.08-9.48L276.24,14a7.4,7.4,0,0,1,.48-3.12,4.54,4.54,0,0,1,1.68-2C280.32,10.2,281.52,14,282,20.16Zm39.6,32.76C328.2,79.2,332,93.72,332.88,96.6v.24l3.48-21.72c1.32-8.88,2.64-16.2,3.84-21.84.6-3.24,1.68-10.8,3.12-22.56,1.08-9,2.52-15.84,4.44-20.76a26,26,0,0,1,1.56,9.84c0,10.2-2,27.36-6.24,51.36l-8.4,47.64c-4.92-11.52-9.36-26.16-13.56-43.92q-6.48-30.06-10.44-45.36h-.24c-.6,10.44-1.08,26.28-1.68,47.4-1,18.6-2.88,34.32-5.64,47.28-1.32-1.68-1.92-4.32-1.92-7.8,0-5.88.72-14.88,2-27,1.44-12.6,2.16-21.72,2.28-27.48-.24-12.36-.24-21.48-.12-27.48.12-10.32,1.32-18.84,3.36-25.56C312.84,20.52,317.16,35.16,321.6,52.92ZM442.2,17.4v2A10.7,10.7,0,0,1,441,23a12.23,12.23,0,0,1-3.72,5.16L426.6,28l-11.28-.6L409.2,27l-6.84-.72-9-.72.12,2.4-4.56,52.56q-4.5,53.46-4.08,76.92.9,69.84-6.48,128.16v48.72c-2.52,18-4.8,39.48-6.72,64.44-1.08,14.4-2.52,35.88-4.44,64.56-.36,5.16-1.68,15.84-4.2,32-2.16,13.8-3.24,24.6-3.12,32.16l.24,15.72c.12,6.48.12,12-.12,16.44-.6,12.84-3,23.16-7.08,31.2-2.52-2-3.84-5.16-3.84-9.24,0-1.8,1.8-19.56,5.52-53.4,4-37.56,6.48-62,7.44-73.2l5.76-63.36q3.42-38.7,5-63.36V280.56c3-26.16,4.68-43.44,5.16-52,.24-4.44.36-18.84.36-43q-.18-34.92,1.44-70.56c1.8-41.64,5-71.52,9.6-89.88l-32.16-.36a9.51,9.51,0,0,1-3.84-4.92,9.38,9.38,0,0,1-1.08-3.84c0-6.48,2-8.64,6-6.6l33,.48,6.36.84,6.36.84,13,1.08c11.88-2,19.56-1.56,23.16,1.2A6.15,6.15,0,0,1,442.2,17.4ZM553.32,42.12c-7.2-9.84-15.36-14.76-24.6-14.76-17.88,0-32.76,2.64-44.88,7.8A65.25,65.25,0,0,0,456.6,56.88c-6.24,8.52-11.52,19.56-16,33.36-3,9.24-6.48,23.4-10.68,42.36a519.59,519.59,0,0,0-8.28,52.56l-5.52,53.76V276.6a7.41,7.41,0,0,1,3-.6l11.4-2a273.75,273.75,0,0,1,36-2.28L500,271.2c4.08-2,6.36-3.6,6.72-4.68l.12-1.08c.12-.36.6-.72,1.32-1.08,1.56.48,2.64,1.92,3,4.44a53.47,53.47,0,0,1,.24,6.12,23.14,23.14,0,0,1-2.16,10.44l-4.32.48-4.92.84-16.92.36-17.64.72-25.2.48a26,26,0,0,1-13.08,4.08l-8.28-.24a5,5,0,0,1-2.76-.72v53.76c-.48,5-1,12.12-1.44,21.12L414,380.88l.24,33.36a483.78,483.78,0,0,0,6.24,67.32q7.38,42.12,21.6,66.12c11.88,19.92,27,29.88,45.6,29.88,8.28,0,19-3.84,32.28-11.4,11.28-6.6,18.48-11.88,21.48-16,2.52-3.36,5.64-8,9.48-14.16l8.16-13.44c4-6.48,7.2-15.6,9.48-27.24,2.76-13.68,5.28-23,7.32-28a12.27,12.27,0,0,1,2.64,7.8c0,3.72-2.4,14.16-7.08,31.2-4.56,16.2-7.56,25.68-8.88,28.44A157.94,157.94,0,0,1,544,564c-4.44,5.64-12.84,12-25.08,19-11.64,6.72-19.8,10.08-24.24,10.08q-42.84,0-63.24-39.72c-8.52-16.68-13.8-38.16-16.08-64.56-2.76-30.36-4.56-49.92-5.16-58.8-1.08-12.6-1.56-28.92-1.56-49.08,0-2.52.24-8.16.6-16.92.48-10.92,1-19.44,1.56-25.32V234.12c2.28-28.8,4.32-50.52,5.88-65.16,2.76-25.8,7.2-47.76,13.08-65.64,1.32-4,2.64-9.48,4.2-16.68,1.56-7.56,2.76-13,3.84-16.44a70,70,0,0,1,22-32.64c15.36-13,30.24-20.88,44.64-23.88a55.33,55.33,0,0,1,33.72,3,54.13,54.13,0,0,1,21.24,16.2c4.92,6.12,7.32,11.16,7.32,15.36A48.7,48.7,0,0,1,566.4,54a7.29,7.29,0,0,1-3,5.28l-3.6-6.36A98.28,98.28,0,0,0,553.32,42.12Z" transform="translate(-9.72 -4.18)"/></svg>