<svg id="Layer_1" data-name="Layer 1" xmlns="http://www.w3.org/2000/svg" viewBox="0 0 368.27 418.8"><defs><style>.cls-1{fill-rule:evenodd;}</style></defs><path class="cls-1" d="M326.64,263.52c-3,42.6-5,85.44-6.12,128.28-.36,16-1.56,31.8-3.36,47.64q-2.16,18.9,5,31.68a232.77,232.77,0,0,0,5.28-51.24c-.36-42.6,1.32-85.32,4.8-128q1.44-18.18-3.24-32A4.17,4.17,0,0,0,326.64,263.52Zm-175-80q-10.26,44.28-53.16,53.88l3.84-103.08A473.55,473.55,0,0,0,101,78.6c25.8-.84,42.36,11.52,49.44,37.08A136.46,136.46,0,0,1,151.68,183.48ZM97.92,78.72a420.91,420.91,0,0,0-4.08,56.64q-.18,64.62-2.16,129L87.6,393.48A264.28,264.28,0,0,1,83,433.68c-2,10-.48,18,4.68,24.36a278.16,278.16,0,0,0,7.56-65.76c.12-43.08.84-86,2.4-129L98,251.76l2.64.36,4.8.12.84-.84.84-.84A42.41,42.41,0,0,0,136,231.24q36.18-56.88,19.92-122.4-9.54-38.34-47.64-44.16a34,34,0,0,1-9.72,2,2.59,2.59,0,0,0-1.68.72,12.8,12.8,0,0,0-1.2,6.48A7.46,7.46,0,0,0,96.72,77Zm87,19.08a426.24,426.24,0,0,0-8.4,42,318.9,318.9,0,0,0-3.6,42.72,161.08,161.08,0,0,0,6,45.48q8.64,30.06,32.76,13.44c11.16-7.68,15-18,11.76-31a54.48,54.48,0,0,1-29.16,22.8L188,229.44a145.55,145.55,0,0,1-8-61.56,72.3,72.3,0,0,0,31.2-3.48q4.32-5.94.36-11.88L210.48,151l-30.12,4.2q-1.62-36.72,19.56-65.64a12.9,12.9,0,0,1,9-5.16A18.11,18.11,0,0,1,220.2,85.8L225.6,92c1.56-8.76-1.2-16.08-8.4-21.72a19.31,19.31,0,0,0-3.36-2C198.84,71.28,189.12,81.12,184.92,97.8Zm84.72-29.52a559.89,559.89,0,0,0-27.72,108.24q-6.3,42.48-15.84,84.36l-.24,2.52-.36,2.76Q211.62,336.9,199,408l-.84,4-1.2,3.84-1.8,6.24a89.26,89.26,0,0,0-3.48,24,93.6,93.6,0,0,0,1.2,17.4l3.6-.72q19.62-80.46,31.44-162.6c1.32-9.24,2.88-18.36,4.56-27.48l53-3q8.64,85.5,11.4,171a45.73,45.73,0,0,0,2.76,14.4,29.06,29.06,0,0,0,3.48,7l3.36,4.2.24-.24Q301,361.74,290.52,257.64c-4.2-42.36-8.28-84.72-12.36-127.32l-6-63.24Zm-.12,24.36a447,447,0,0,0,3.36,55.2q6.48,53.1,11.28,106.32c-16.68,1.08-33.12,2.88-49.32,5.52L256.2,146.76a436.88,436.88,0,0,1,11.4-46.44A59.87,59.87,0,0,0,269.52,92.64Zm123.84-4.92c15.72,7.32,26.76,18.84,32.88,34.56a123.85,123.85,0,0,1,8.28,35.88q2.7,34.56-17.28,61.68Q394.38,251,359.88,264.6l.12-3.24c1.68-42.6,5.4-85.08,11-127.2a300.49,300.49,0,0,0,2.64-49.56A89.78,89.78,0,0,1,393.36,87.72ZM372.84,69.84l-.72,2.88A6.55,6.55,0,0,0,371,76.08v1.2a436.81,436.81,0,0,0-9.24,56c-4.2,42.6-7.2,85.32-9,128.4q-2.7,64.26-7.2,128.16A513.51,513.51,0,0,1,337,453.72c-2,10.32-.36,18.12,5,23.52a583,583,0,0,0,11.76-87.6c2-36.48,4-73,5.52-109.32a77.38,77.38,0,0,0,28.08-13.2,130.24,130.24,0,0,0,6,33.36c4.68,15,9,30.12,12.72,45.48q15.12,61.74,33.84,122.16c1.08,1.92.36,2.4-2.16,1.32-.84,1,.6,1.8,4.08,2.4.48,5.16,2.52,9,6.24,11.64a3.76,3.76,0,0,0,2.28-4.44,446.19,446.19,0,0,0-16.2-66.72c-3.48-10.68-6.36-21.72-8.88-32.88a880.68,880.68,0,0,0-33.72-115.56,102.27,102.27,0,0,0,10.2-10.2,188.18,188.18,0,0,0,21.24-30c16.92-29.16,21.36-60.84,13.08-95.16C428.16,95,407.28,76.2,373.32,71.76l-.36.12Z" transform="translate(-82.17 -64.68)"/></svg>