<svg id="Layer_1" data-name="Layer 1" xmlns="http://www.w3.org/2000/svg" viewBox="0 0 497.16 400.84"><defs><style>.cls-1{fill-rule:evenodd;}</style></defs><path class="cls-1" d="M138.48,95.64c31.56,16,45.84,41.64,42.72,76.8A88.85,88.85,0,0,1,165.36,216q-25.74,36.9-67.8,43.56,1.26-50.94.24-102.12a256.72,256.72,0,0,1,6.6-63.24C115.68,89.4,127.08,89.88,138.48,95.64ZM104.16,82.56l-2.4.6-.84.48-.84.84-.24.72-.12,1.44c-2.88,3-4.44,6.84-4.68,11.76q-2.52,48.78-3.36,98.28-1.26,64.44-2.4,129.12c-.72,42.36-2,84.48-4.08,126.6l-.6,1.08-1,1.08-.12.84c-2,7.32-.84,13.32,3.6,17.88a197.91,197.91,0,0,0,7.8-57.72q-.72-64.62,1.68-129l.6-12.72.72.6c14-.24,26.88-5,38.28-14.52,5.16-4.32,10.2-8.76,15-13.44q46.08-44.82,32.28-109-10.8-49.68-61.2-59.28a43.21,43.21,0,0,0-16.8,2.64,3.65,3.65,0,0,0-1,1Zm164.28,115.8,16.8,76.08-66.12-3.6a38.07,38.07,0,0,0-9.72.84h-.12c2.64-13.08,5.64-26,9.12-38.88q16.38-61.74,30.36-124.2a46.21,46.21,0,0,0,1.32-12.36Q256.92,147.36,268.44,198.36ZM247.8,86a893.61,893.61,0,0,0-26.88,101l-12.24,58.56-5.52,27.12-2.64,1.2-.72,7.2.24.6,1.08.36a765.43,765.43,0,0,1-43.68,162.12,29.51,29.51,0,0,0-1.92,5.76l-1.32,5.88-1,5.88-.84,5.76Q151,475.26,153.48,479a445.61,445.61,0,0,0,34.68-104.76c1.92-10.2,4-20.28,6.24-30.48l6.48-30.36,6.12-30.6,81.12,5.28a769.83,769.83,0,0,0,49.56,190.8q3.24-30.42-10.08-60.84a195.68,195.68,0,0,1-9.24-25.92l-3.48-13.32-3.36-13.68-3-13.56c-5.52-25.8-10.2-51.36-13.92-76.44l-1.32-.36A1662.3,1662.3,0,0,0,249.12,89.52Zm236.76,14.4q-13.14,62.1-25,125.28-11.7,62.82-25.2,125.64A538.06,538.06,0,0,1,417,414a91.74,91.74,0,0,0-4.8,22.44Q398.7,385,388,333a929.16,929.16,0,0,0-34.2-122.76q-21.24-60.12-38.88-121l-.72-.84-1.08-.72-.6.12a676.76,676.76,0,0,0,20,82.2c3,9.36,6.12,18.6,9.48,27.72a950.46,950.46,0,0,1,36.36,124.8q13.32,60.66,24.6,121.92c2.16,11.88,6.24,21.72,12.36,29.52a19.84,19.84,0,0,0,2.52-16.44l-1.08-3.84c4.2-14,8-28.44,11.52-43.32q14.94-62.1,25.32-125T478.44,160.2c2.4-10.32,4.56-20.64,6.6-31a128.55,128.55,0,0,0,2.28-31.8A3.59,3.59,0,0,0,484.56,100.44Zm61,2.16a16.09,16.09,0,0,0-9,6A227.1,227.1,0,0,0,501.36,184a393.45,393.45,0,0,0-12,79.44q-3.06,62.46-6.72,125a181.63,181.63,0,0,0,12.24,78.84l2.88,1.68,2.52,1.56,1.32.84c11.76,3,22.56,1.56,32.28-4.2a63.75,63.75,0,0,0,18.6-17.28c10.56-14.76,13.32-29.4,8.16-44-4.44,8-8.64,16.44-12.6,25.44q-12.78,28.62-45.84,20.88a14.87,14.87,0,0,1-6.72-10.32,291.49,291.49,0,0,1-4.32-72.36l4.92-77.28a106.45,106.45,0,0,0,45.6-2.64l.48-.84c2-5.52,1.56-10.68-1.56-15.36a264.82,264.82,0,0,1-43.8,6l2.28-38a276.82,276.82,0,0,1,26.16-101.76A39.73,39.73,0,0,1,532.32,129q23.22-26.1,47-1l.36-.84c-.12-18.36-10.44-27-31-26A10.14,10.14,0,0,1,545.52,102.6Z" transform="translate(-82.56 -78.2)"/></svg>