<svg id="Layer_1" data-name="Layer 1" xmlns="http://www.w3.org/2000/svg" viewBox="0 0 465.22 432.87"><defs><style>.cls-1{fill-rule:evenodd;}</style></defs><path class="cls-1" d="M219.6,265.8,260,97.68,278.4,259a276.29,276.29,0,0,0-44.4,4ZM92.52,75.12q27-5.58,47,16.56c19.8,21.72,30.36,47.88,31.56,78.24a136.49,136.49,0,0,1-2,29.76Q164.22,229,138.6,246.6c-15.48,10.68-31.8,17-49.2,18.84Q91,213.24,91.56,161c.24-21.72.84-43.32,1.8-64.92A120.08,120.08,0,0,0,92.52,75.12ZM88.8,64.44a13.59,13.59,0,0,0-1.56,6.48,7.42,7.42,0,0,0,1.08,3.36,644.31,644.31,0,0,0-4.08,76.44q.54,64.62-1.8,129.12-2.34,64.8-7.92,128.88c-1,10.8-2.4,21.6-4.32,32.28-2,11.76-1,22.56,3.36,32.28a2.92,2.92,0,0,0,1.2-1.56,315.13,315.13,0,0,0,7.8-53.28c2.64-42.6,4.68-85.32,6.12-128.4l.24-9.72a7.89,7.89,0,0,0,7.2.84A142.69,142.69,0,0,0,163.2,237a39.2,39.2,0,0,0,8.52-15.84,172,172,0,0,0,6.12-59.76Q173,90.48,109.8,59.76A34.64,34.64,0,0,0,90.12,63.6c-.36.12-.6.24-.6.36ZM262.44,69a22.75,22.75,0,0,0-7,13c-3.24,15.6-6.48,31.2-10,46.8C241,149.52,235.8,170,230,190.56q-11,38.7-20.16,77.88l-3.24.84a5.22,5.22,0,0,0-1.2,2.28,9.14,9.14,0,0,0,1.8,7.44h.12l-1,4q-14.22,62.64-31.32,124.2a127.11,127.11,0,0,1-8.88,23c-7.8,15.48-11,31.2-9.84,47q2.16,2.16,4.32,0c4.08-12.36,8.28-24.72,12.72-36.84a858.84,858.84,0,0,0,26.88-91l16.56-71.64,12.48-1.44a43.79,43.79,0,0,1,11.88.24c13.92,2.16,26.76,1.08,38.64-3.12,2.28,21.36,5,42.72,8,64q9.18,63,15.6,126.48c1.08,10,4.56,17.28,10.68,21.72a5.87,5.87,0,0,0,.6-2.28l-7.68-69.12c-4.68-42.36-10.2-84.72-16.32-126.84q-7-47.16-13.08-94.56c-5.4-42.36-10.2-84.72-14.4-126.84l-.84,3.48Zm117.72,1.92L369,71.76c-13.2,7.56-22.44,19.08-27.84,34.68-4,11.52-7.68,23-11,34.68a276.59,276.59,0,0,0-7.8,35.28c-2,13.32-3.48,26.64-4.2,40l-1.56,32-1.08,32-.6,32.16c-.12,13.56.24,27,1.08,40.44s2.16,26.52,4.2,39.72L326.4,432c2.52,16.2,10.08,28.92,22.44,38,13.8,10.2,28,9.72,42.24-1.44A77.16,77.16,0,0,0,411.48,445c-5.76,16.68-5.16,32.52,1.68,47.52a372.63,372.63,0,0,0,9.6-100,181.09,181.09,0,0,0-1.92-21.36L381,370a9,9,0,0,0-2.52,7.2L379,380l.6,1.68,37.92,3.84-2.16,26.64-2.4-.48-1.44.6-2.4,8.16-2.64,2.16-.12,4.8c-6.36,14.52-16.8,24.48-31.2,30.12a30.13,30.13,0,0,1-8.76,2l-10.08-.48a16.22,16.22,0,0,1-4.08-1.32l-1.68-1.08-2.16-2.4a20.89,20.89,0,0,1-2.16-4q-5.94-14-10.44-28.44A304.12,304.12,0,0,1,327,385.08a271,271,0,0,1-4.08-38A1293.23,1293.23,0,0,1,327,180q4.68-52.92,42-86c8.4-7.32,17.76-8.52,28.08-3.48a87.56,87.56,0,0,0,20.16,7c-.12-9-5.16-16-15-20.88a44.07,44.07,0,0,0-8.88-3.48A49.77,49.77,0,0,0,380.16,70.92ZM533,101.76c-5.52-15.84-16.68-24.12-33.48-25A57.37,57.37,0,0,0,474,80.88q-36.18,54.9-37.68,123.84a1876.85,1876.85,0,0,0,10,241.2,36.84,36.84,0,0,0,9.24,20.76,77.57,77.57,0,0,0,8.88,8.88,15,15,0,0,0,7.08,3.72l2.16.48,2,.6,2.16.24h4.32l4.08-.6a24.18,24.18,0,0,0,14-7.8q29.88-12.06,34-40.8A13.75,13.75,0,0,0,531.72,421l-4.08,5.88L525,428.28l-2.28-5.64,1,7.68a59.34,59.34,0,0,1-33.48,27q-17.28,5.94-28.08-7.92a56.6,56.6,0,0,1-9.36-18.12l-3.48-13c-1.08-4.56-1.8-9-2.4-13.32l-1.08-9.12-.36-4.56-.24-4.68-.12-4.68-.12-4.8-.12-48.24c-.12-17.4-.36-34.68-1-51.84l43-1A13.48,13.48,0,0,0,489,266a12.49,12.49,0,0,0-2.52-5.76L443.64,263a390.19,390.19,0,0,1,24.72-158.16,71.52,71.52,0,0,1,3-7q29.52-11.88,58,2Z" transform="translate(-69.2 -59.61)"/></svg>