<svg id="Layer_1" data-name="Layer 1" xmlns="http://www.w3.org/2000/svg" viewBox="0 0 526.69 547.92"><defs><style>.cls-1{fill-rule:evenodd;}</style></defs><path class="cls-1" d="M418.2,441.84q-20.52,22.5-42,50.28Q372.42,497,369,502.2l-1.2,2a376.54,376.54,0,0,0-1.32-67q-3.06,38.34-4.32,76.44c-.24,7.32-.36,14.52-.36,21.72a49,49,0,0,0,2.4,15c5.76-8.76,6.84-19.2,3.36-31.2l20.4-29.4a375.3,375.3,0,0,0,34.32,65.76q-2-27.9-22.92-53.88a128.91,128.91,0,0,1-10-14l29.52-43.08Zm-170-78.12-5.16,1.2,24.6-144.24,40,139.68-27.84-1.2-10.68,1-15.72,2.4ZM85,303.84q-3.42,2.52-3.6,7.92-1.44,41.76-2.16,83.4a115.71,115.71,0,0,0,37.44.72c1.68-2.4,1.56-4.68-.36-6.72a248,248,0,0,0-33.48-2.64v-.6c.36-26.76,1.44-53.28,3-79.44v-.6A5.23,5.23,0,0,0,85,303.84Zm21.6-201.12a143.2,143.2,0,0,1,5.52,35.52,80.77,80.77,0,0,1-6.24,34.08A188.37,188.37,0,0,1,88,205.08,65.19,65.19,0,0,1,62,227.52a44,44,0,0,1-19.68,4.8q-.54-99.72-6.24-200.16a43.11,43.11,0,0,1,35.16,9A80.59,80.59,0,0,1,93.84,69,200.58,200.58,0,0,1,106.56,102.72Zm-13.2-42.6q-13.32-35.64-51-36l-5.88,1.8-.6.36-.36,1.32v-.48A464.17,464.17,0,0,0,34.44,76c.48,16.92.6,33.6.36,50.28q-.72,52.56,1.92,104.52l.12,2.52a5.81,5.81,0,0,0-.36,2.16,18.27,18.27,0,0,0,.72,5c1.56,31.56,3,63.12,4.08,94.8q1.44,39.06.12,78.12Q39.6,465.6,36.6,518a175.55,175.55,0,0,1-3.48,26.16c-2,10-.84,18.72,3.48,26.16,2.16-16.32,3.84-32.88,5.16-49.68l3.48-49.56A1012.64,1012.64,0,0,0,47,366.48q-1.8-52.38-4.44-104.64l-.84-19.44c17.52.84,32.4-6.12,44.52-20.76,21.48-25.8,31.44-55.08,29.88-88.08A148.12,148.12,0,0,0,93.48,60.72Zm33.48-27.48a200.59,200.59,0,0,0,2.4,41.52v1.32c.12,15.24.6,30.48,1.32,45.6l-3.48,69.48c-.36,8.64.6,16.2,3.12,22.56q3.78-38.52,4-78.12a644.68,644.68,0,0,0-7.08-102.84ZM267.6,209.16a1,1,0,0,0-1.2.84c-4,18.6-7.68,37.32-10.92,56.16q-8.64,50.22-18.36,100.32l-1.08.24-.24.6-.12.72v2l.12.6.6-.12q-9.54,49.68-16,99.6A152.26,152.26,0,0,1,215,495.6c-2.76,9.48-2.88,18-.12,25.56a300.9,300.9,0,0,0,11.76-53.4c2.16-17.28,4.68-34.44,7.56-51.6l7.8-46.08a403.21,403.21,0,0,1,68-1.2l8,26.64a688.43,688.43,0,0,1,22.56,99.12h-.24L338.88,492a101.59,101.59,0,0,0,9.24,36.48l.36-1.32a406.42,406.42,0,0,0-13.68-84.72q-13.68-50.22-26.4-100.32a357,357,0,0,0-11.64-37A599.72,599.72,0,0,1,268.44,206Zm-29.88-132,2.16-34.32c16.2-.48,20.64,7.08,13.56,22.56C250.44,72,245.16,76,237.72,77.16ZM220.2,41.64c-4.8-8.88-12.6-13-23.4-12.36a17.64,17.64,0,0,0-6.6,3.84l-2,1.92a53.3,53.3,0,0,0-21.84,25.2,184.27,184.27,0,0,0-14.4,59.28c-2.52,32-4.44,64.2-5.52,96.72-1.32,34.92-3.24,69.72-5.52,104.52-2.28,34.44-3.72,69-4.56,103.92A320.64,320.64,0,0,0,151,529a70.22,70.22,0,0,0,28.56,38.28c9.72,6.6,19.2,6.36,28.32-.48,15.24-11.4,25.92-26.76,31.8-45.84l5.64-18.84c2-7.08,1.08-12.36-2.88-15.6a143.21,143.21,0,0,1-8.88,33.6,114.48,114.48,0,0,1-20.16,33c-7.08,8-15.48,10.08-25.2,6.36q-30.24-11.88-37.8-45.6A405.61,405.61,0,0,1,141,409.92q2-52.56,5.4-104.52l2.16-36.72,55.8,8.16.24-.48,1-2.52v-1.32l-.12-1.32-.12-.6-.6-1.44-.72-.36a203.85,203.85,0,0,0-52.2-4.2l-1.8.24-.84.24-.48.12c1.08-20.76,1.8-41.52,2.4-62.4q.9-33.3,2.88-66.24l4.56-41.76q4.14-37.08,36-56.52a10.43,10.43,0,0,1,9.6-.72,90.52,90.52,0,0,0,16.08,4.56Zm20-6.84-.84,3.84L237,42.72c-.84,19.08-2.52,39.12-5.16,60a125.48,125.48,0,0,0-.36,30l.24-.24,5.52-49,6.36-1.2,25.32,57,1.2-2A119.32,119.32,0,0,0,250.56,87.6l-4.44-6.36a26.1,26.1,0,0,0,15.12-16.08A18.25,18.25,0,0,0,261.48,53,22.24,22.24,0,0,0,250.2,39.12l-3.12-1.56-7,.6ZM427.56,303.36,428,296a209.15,209.15,0,0,0-49,.36,279.47,279.47,0,0,0-34.68,6.12L344,307.2,394,304.68a266.85,266.85,0,0,0-4.8,37.8c-1,17.88-2.28,35.76-4.08,53.64a101.34,101.34,0,0,0,.72,25.56l1.32,6.12,7.56-123.12ZM484.08,317l-2.28,7.44q-11,29.34,9.72,51.12a199.26,199.26,0,0,1,17.76,21.12,303.52,303.52,0,0,1,40,74c8.88,23.4,4.56,44.4-13,62.76l-17.16,8.88c-20.76,10.92-38.16,8-52.44-8.52a36.71,36.71,0,0,1-6.6-11.28,106.82,106.82,0,0,1-4.68-18.72,16,16,0,0,0-3.12,13.8c3.48,18.84,13.8,32.4,31,40.92,31.32,3.48,54.12-7.92,68.28-34.44a43.7,43.7,0,0,0,5-23.88,208.88,208.88,0,0,0-23.88-81,221.11,221.11,0,0,0-48.36-61.68,51.81,51.81,0,0,1-2-11.28c-.72-14.28,4.68-25.44,16.08-33.48,13-4.44,24.36-3,34.08,4.44l.12.48a17.09,17.09,0,0,0,3.12,4.56,1.78,1.78,0,0,0,2.4.48l.24-.36c-2.64-13.08-10.92-19.8-24.72-20.4l-15,1.56-6.48,5.16A58.19,58.19,0,0,0,484.08,317ZM384.6,53a83.82,83.82,0,0,1,29.28,2.4,20.07,20.07,0,0,0-9.12-9c-11-5.52-21.48-4.8-31.32,2.28C353.76,63,340.68,82.2,334.2,106.08A370.07,370.07,0,0,0,321.48,211.2a167.55,167.55,0,0,0,2.88,28.92c1,4.68,2,9.36,3.36,14s2.76,9.36,4.32,13.8a88.75,88.75,0,0,0,5.16,12.24,31.14,31.14,0,0,0,9.6,11.64A25.12,25.12,0,0,0,360.24,297a53.89,53.89,0,0,0,38.64-13.56A64.94,64.94,0,0,0,420,250.56a3.6,3.6,0,0,0-.6-3.24l-2.64.24-1.56,2-1.68.6a112.11,112.11,0,0,1-8.28,16A40.17,40.17,0,0,1,382,283.92c-10.92,3.48-21.36,2.64-31.08-2.52A35.74,35.74,0,0,1,334,262.56a95.68,95.68,0,0,1-6.12-19.92A76.32,76.32,0,0,1,326.4,232c-.6-9.24-1-18.6-1-28,.12-12.36.6-24.48,1.56-36.48A263.62,263.62,0,0,1,338.4,108a136.29,136.29,0,0,1,11.76-27.12,93.77,93.77,0,0,1,6.6-9.84C363.36,60.12,372.6,54.12,384.6,53ZM540,62.76q-14.76-15.3-39.6-13.32L488,54.72c-17.88,7.56-30,20.16-36.6,37.68a187.61,187.61,0,0,0-12,60.48l-1.68,47.64q-2,43.56,21.84,77.76a31.6,31.6,0,0,0,16.08,12.12c26,8.76,46.92,2.64,62.76-18.6,10.32-13.92,17.16-28.68,20.4-44.16a53.15,53.15,0,0,0-12.72,18.12q-16,36.54-55.44,38.4a23,23,0,0,1-14-3.84q-32-21.6-33.48-61c-.6-18.84-.48-37.44.48-56,17.16-1.32,34.32-3.48,51.24-6.24a10.81,10.81,0,0,0,1-3.36,7.53,7.53,0,0,0-.72-4.56l-.72-.48-3.72-.36a320.35,320.35,0,0,0-46.8,9.6c.6-9.36,1.32-18.72,2.28-28a127.1,127.1,0,0,1,12.48-43.68,81.16,81.16,0,0,1,25.92-20.4,39.16,39.16,0,0,1,10.8-3.48,109.88,109.88,0,0,1,44.28.72Z" transform="translate(-32.15 -24.12)"/></svg>