<svg id="Layer_1" data-name="Layer 1" xmlns="http://www.w3.org/2000/svg" viewBox="0 0 308.35 210.09"><defs><style>.cls-1{fill-rule:evenodd;}</style></defs><path class="cls-1" d="M155.16,290.88a608.69,608.69,0,0,0,4.44-81c16.68,2.76,28.8,11.28,36.48,25.44,8,14.88,7.8,29.4-.6,43.68-6.6,10.92-16.32,17.16-29.28,18.6ZM159,199.44l-.48-4.32c-2.64,2.28-4.08,5.76-4.2,10.56-.36,12.84-1,25.8-1.92,38.76-1.2,15-2.16,30-3,45.12a7.76,7.76,0,0,0-1.92,4.8,37,37,0,0,0,.36,7.32,4.31,4.31,0,0,0,.84,2.16c-1.08,22.92-1.8,45.84-2.16,69-.12,12.48,2.16,22.92,7,31.44a17.7,17.7,0,0,0,2.76-6.36q2.52-12.42-1.44-16.92a732.48,732.48,0,0,1-.48-74.4l2.16,1.32c4.68,3,9.24,3.72,13.92,2.16,30-9.72,43-30.72,38.76-62.76q-5.58-43-49-48.12A3.55,3.55,0,0,0,159,199.44ZM241.92,213a155.42,155.42,0,0,0-22.2,38.76,178.33,178.33,0,0,0-11.64,46A197.1,197.1,0,0,0,207.6,338a103.7,103.7,0,0,0,13.92,44c8.76,15,21.72,21.36,39,18.84A90.79,90.79,0,0,0,302.4,383c13.08-10.08,17.16-22.2,12-36.24l-5.4,2.52A31.64,31.64,0,0,1,295,372a72.44,72.44,0,0,1-41.4,12.84A22,22,0,0,1,236,379.2a42.36,42.36,0,0,1-10.8-15.6,162.1,162.1,0,0,1-7.92-24.48A119.31,119.31,0,0,1,214.2,310l73.92-1.56a11.74,11.74,0,0,0,1.8-6.84,13,13,0,0,0-1.8-6.12l-.36-.24a363.33,363.33,0,0,0-73,2.76,134.87,134.87,0,0,1,26.52-67.8c14.76-19.68,32.28-24.6,52.8-14.76a78.16,78.16,0,0,1,16.8,11c-2.76-16.68-12.36-26.52-29-29.28Q257.94,192.66,241.92,213Zm176.16-13.56a397,397,0,0,0-7,73.08c-.12,42.6-1,85-2.28,127.32a3.76,3.76,0,0,0,2.4,2.28,2.45,2.45,0,0,0,1-1.56,235.71,235.71,0,0,0,4.56-40.44l1.32-54.84a113,113,0,0,0,27.24-3.12l1.44,1v4c-.12,21.48-1.08,42.84-3,64.08-1.08,12.6.6,23,5.16,31.44A49,49,0,0,0,453,383.16c.36-19.44.48-38.88.48-58.44v-21.6a11.23,11.23,0,0,0,1.32-4.44,10.74,10.74,0,0,0-1.32-6.36q.36-48.06,1.32-95c-3,3.12-4.68,7.2-5,12.36q-2.16,40.14-2.76,80.28l-2.16-1a65.17,65.17,0,0,0-26.52,6.72l1.8-64.56a230.93,230.93,0,0,0-1-32.28A.81.81,0,0,0,418.08,199.44Zm-50.16-5.16q-23,17.46-17.64,48.24a46,46,0,0,0,10.08,21.6q31.32,37.62,37.08,85.44Q386.28,385,347.52,379.92c-14-1.8-21.24-9.12-21.72-22,3.24-2.52,4.08-5.76,2.52-9.48q-2-4.68-5.76-5.4a40.6,40.6,0,0,0-3.72,25.32,21.28,21.28,0,0,0,4.44,10.2q22.14,28.44,58,13c15.36-12.24,22.44-28,21.12-47a133,133,0,0,0-11.64-46.8,75.5,75.5,0,0,0-14.16-20.88C358.68,258.48,353.4,238,361,215.52a6.71,6.71,0,0,1,6.72-5c13.8-.12,25.44,4.56,34.92,14.16a11,11,0,0,0-1.08-10.56,55.24,55.24,0,0,0-17.88-17l-2.28-.84A31.58,31.58,0,0,0,367.92,194.28Z" transform="translate(-146.52 -194.19)"/></svg>