<svg id="Layer_1" data-name="Layer 1" xmlns="http://www.w3.org/2000/svg" viewBox="0 0 580.08 590.04"><defs><style>.cls-1{fill-rule:evenodd;}</style></defs><path class="cls-1" d="M227,528.6c-2,1.68-3,3-3,4.08,0,2.4,1.68,4.8,5.16,7.32a128.29,128.29,0,0,0,11,6.72c5,3.12,8.76,6.12,11.16,9.12a21.88,21.88,0,0,1,5.16,14.4,16.48,16.48,0,0,1-2.76,9.84c-3,4.08-8.64,6.12-16.8,6.12-13.92,0-25-2.28-33.24-6.84-4.8-2.52-8.16-5.64-10-9.12v-6.48l.36-.48.72-1.08c1.2,4,4.08,7.68,8.76,11C210,577.68,218,580,227.88,580c11.28,0,19.08-1.44,23.28-4.2A6.92,6.92,0,0,0,254.4,570c0-3.12-1.68-6.24-5.16-9.48a101.21,101.21,0,0,0-11.16-8c-5.16-3.48-8.88-6.24-11-8.52-3.48-3.48-5.16-7-5.16-10.56,0-4.92,1.56-8.52,4.56-10.8,2.52-1.92,5.88-2.64,10-2.28a19.54,19.54,0,0,1,10,3.84c3,2.28,4.44,4.92,4.44,7.92l-.24,4.92-.48.48a5.66,5.66,0,0,1-.72-1.8l-.12-2.88c0-1.2-1.68-2.64-5.16-4.44s-6.36-2.76-8.88-2.76A12.5,12.5,0,0,0,227,528.6Zm36,3.24-2.52-.24-2-.24-.6-.6v-1.92c0-2.28.24-3.72.6-4.08.6-.48,2.4-.6,5.64-.48L289,525.6v-.24l.6.24c9.48.36,17.52.6,24.36.6l5.64.24.6,2.64-.6,2.52a40,40,0,0,1-8.88,1.56q-6.84,0-7.56-.72l-11.88-.36-3.72,24.12c-2.76,18.12-4.2,28-4.2,29.4a7.86,7.86,0,0,1-.6,3l-1.32,1.92a12.17,12.17,0,0,1-2.64-3,4.73,4.73,0,0,1-.6-1.68c2.52-24.12,5.4-42.12,8.76-53.88l-5.28-.12Zm17.4-80.64c-.48,4-1.8,11.4-3.84,22.2l.24.24,10.32-.36v-.12h.6l1.2-.36,9-.48,2.88-3.48a4.54,4.54,0,0,0,1.2-2.64q0-2.7-4.32-8.28l-5.16-6.72-9.84-.12Zm3.48-6h9.72a59.21,59.21,0,0,0,8.76,12.36c1.2,1.32,1.8,4.08,1.8,8.52l-.36,6.12c-.6,2.16-2.16,4.44-4.8,6.84l-5.28.48-1.8.24,8.16,16.44q9.72,20.34,9.72,23.4l-.24,2.64-.84,1.8q-5.4-7-14-27-4.86-11.52-6.84-16.56l-12.36-.36-.24-.12-.84,4.08-6.84,34.8-.48.36-1.44.72-1.08-2a6.56,6.56,0,0,1-.48-2.88c0-9.24,1.68-22.68,5.16-40.32,3.72-19,7.08-29.64,10.2-32.16a14.73,14.73,0,0,1,1,3h2Q282.48,445.2,283.92,445.2Zm51.84-140.76a11.25,11.25,0,0,0-4.08.84l-2.52,1.08.12,6.24a192.73,192.73,0,0,1-2.16,29.76,20.31,20.31,0,0,1,2.76-1.32l8.4-2.52c8-2.64,12.12-5.88,12.12-9.6,0-3.12-1.44-7.68-4.32-13.8C342.72,308,339.24,304.44,335.76,304.44Zm-42.48-66.36a11,11,0,0,1-1.8,3.24H290c.36-4,.12-7-.72-9.12-1.32-4-5.4-6-12-6q-25.56,0-40,50.88c-1.8,6.12-3.24,12.36-4.56,18.72l15.12-.84,19.44-1.08,15.12-.6v-.48l3,.24.24,1.08.36,2.52a3.35,3.35,0,0,1-1,2.4l-2.64,2.4-7.8.36-8.4.72-9.48.36-10,.72-15.48-.24c-1.56,9-2.76,18.12-3.48,27.6a57,57,0,0,0,3.72,19.8c4.32,11.76,11.16,17.64,20.64,17.64,14.76,0,25.56-5.16,32.16-15.48,3.24-5,5.28-11.28,6.24-18.6l.84-.24.6,3.72a17.59,17.59,0,0,1,.48,4,30.11,30.11,0,0,1-1.68,6.72,64.12,64.12,0,0,1-5.4,12.36c-6.48,11.4-14.64,17-24.6,17-16.68,0-27.6-7.32-33-22-2.16-6-3.24-14.4-3.24-25.08,0-22.44,3.6-43.2,10.68-62,6.12-16.2,14-29.16,23.76-39.12q13.32-13.5,23.76-12.6c7.2.6,10.8,6.48,10.8,17.4A15.15,15.15,0,0,1,293.28,238.08ZM77.88,386.52q0,10.8-7,85.68Q63.18,556.08,57.6,588.72c-1.32-.36-2.16-1.92-2.52-4.44-.12-.84-.12-2.64-.12-5.4q0-14.58,9-100.8Q72.6,396,76.08,372.72C77.28,376,77.88,380.52,77.88,386.52Zm-42-367.68C35.52,30.72,34,67.68,31,130L26,230.28l8.88,4.56q34,0,52.8-45.36a187.06,187.06,0,0,0,9.6-32.16q2.52-12.42,2.52-16.56a259.55,259.55,0,0,0-2.4-32.52c-2.28-16.56-5.52-31.2-10-43.8C76,31.44,58.8,16.32,35.88,18.84ZM32.4,11.76l.12-2c1.56-.36,2.52,0,3.12,1.32C61.32,5.88,80.16,22.8,92.16,61.56c4.32,14,7.44,30.12,9.48,48.36a287,287,0,0,1,2,30.84c0,3-.84,9.12-2.64,18.6A232.8,232.8,0,0,1,91.8,196c-11.88,34.44-28,51.6-48.48,51.6-7.8,0-13.68-1.32-17.88-3.84l-2.76,45.84V373.8c-.72,8.28-2.52,24.72-5.4,49.08-2.52,21-4.08,37.68-4.8,49.92L9.36,524.28c-.84,15.72-1.2,31.56-1.2,47.28a97.31,97.31,0,0,1-1.08,10.56c-.72,5.52-1.32,8.52-1.68,9C3,584.28,1.8,575,1.68,563.28L2.16,535c0-10,2.64-39.6,7.8-88.68l8.4-76.56V284.64L20.64,239a10.07,10.07,0,0,1-1-8.28q.54-1.08,1.44-2.52L25.44,148,32,19.44l-2.76.6A16.85,16.85,0,0,1,28.92,16a14.15,14.15,0,0,1,.24-2.64l.12-.6Zm89.16-7.2V50c-.84,3.84-1.2,9.48-1.2,17a173,173,0,0,1,23.88.6,11,11,0,0,1,3.48,3.12,4.68,4.68,0,0,1,1.08,2l-9.12,1.08-9.24,1.32.12,1.44-7,.24-6.12-.6-.84-1.2a10.92,10.92,0,0,1-.24-2.52c0-7.56.12-18.72.48-33.36l.6-31.8a7.33,7.33,0,0,1,1-3.6,4.83,4.83,0,0,1,1.92-1.68A11.06,11.06,0,0,1,121.56,4.56Zm133.68,112.2c12.72,1.8,22.56,3,29.4,3.36l4.56.36,5.16.72,6.12.36c-4.56-46-8.16-80.28-10.92-103.2-15.24,42.24-27.12,75-35.88,98.28Zm-13-86.88-.6,1-1.68.6a14.59,14.59,0,0,1-2.64-4.56l-2.76-5.76c-3-4.68-8.4-7.08-16-7.08Q186.78,14,169.2,61.8A223.56,223.56,0,0,0,157,113.4c-2.76,13.8-4.8,30.84-6.24,51-.72,11.4-1.8,28.44-3.24,51.24-.6,7.8-1.44,18.36-2.28,31.8l1-1.2,28.56-1.56,48.84-1.92a9.45,9.45,0,0,1,3.36,3.6,11.5,11.5,0,0,1,.6,3.72c0,2.64-4.8,4.8-14.28,6.48-12.12,2.16-31,3.24-56.28,3.24l-11.4-.24-.84-1.56q-1.8,28.8-3.84,71.76-4,78.84-4,90.36A180.36,180.36,0,0,0,145,475q11.88,36.9,36.36,40.92c20.28-6.84,36.12-14.64,47.28-23.28a68.36,68.36,0,0,0,20.28-24.36A103.51,103.51,0,0,0,253.8,456c1.68-5.4,3-9.48,3.84-12.12,3.24-9.6,7.32-17.28,12.48-23l.72-.24.36,1.68a182.81,182.81,0,0,1-34.68,75.84c-7.8,10.2-15.84,18.24-24,24.12-8.52,6.12-16.2,9.12-23,9.12-26.52,0-44-18.48-52.8-55.32a198.62,198.62,0,0,1-5-38l-.12-17.52q0-19.44,6-117.84,4.32-71.46,6.72-106.44,1.26-17.64,6.48-55.8c3.36-24.24,5.4-43,6.24-56.28,1-15,6-29.52,15.12-43.44q12.24-18.54,29.16-29.16c11.16-7,20.64-9.36,28.44-7.08C238.2,7,242.4,14.64,242.4,27.6ZM290.4,3.48Q297.06,52.8,302.88,101l2.52,20.88,3.36.12a22.22,22.22,0,0,1-1.92,3.72l-.84,1.32q8.46,73.08,8.4,98.88l-.24,5.64-.6.48a2.66,2.66,0,0,1-1.32.6q-4.14-34.74-10.92-103.32h-7.44l-.6-.6-4.56-.24-5.16-.84-22.44-2.28c-4.92-.84-8.16-1.92-9.48-3.24q-23.22,61.56-44.88,104.64a12.18,12.18,0,0,1-2.64-3.12,4.73,4.73,0,0,1-.6-1.68l19.32-42.36c14.28-31.2,24-53.64,29.4-67.32l10.32-27.24c4-10.8,6.84-20.16,8.88-28,2.76-11.4,5.76-21.72,9-31.08C284.4,14.16,287.64,6.6,290.4,3.48Zm67.44,387.84-.6.84-5.52-7.32C349,381.12,347,379.2,346,379.2l-5.28.24-3.24.36A69.33,69.33,0,0,0,323.64,406c-1.68,5.88-3.24,14.88-4.56,26.88L316,459.24a236.22,236.22,0,0,0-1.56,25.92l-.12,9.72a45.13,45.13,0,0,0,1.56,11c2.52,8.64,8.52,13,18.12,13,10.32,0,17.76-4,22.32-11.76a48.79,48.79,0,0,0,3.84-9,26.35,26.35,0,0,1,2.76-6l.24.48v1.92a44.93,44.93,0,0,1-1,6.36,72,72,0,0,1-4,11.52q-7.38,16.2-20.52,16.2c-13.92,0-22.44-6.72-25.68-20.28a54.87,54.87,0,0,1-1.32-14.64l.48-8.52c0-8.52.72-19.92,2.16-34.44q2.88-28.26,7.56-47.52,6.12-25,14.4-30.24c6.84-4.08,14.52,1.92,23,17.88Zm-5.52-53-12.48,9.6H329a4.08,4.08,0,0,1-2.52-1.8c-1.2,6.24-3.48,16.56-7,31h-.84l-.6-1.8L318,372.6c0-1.8,1.44-10.2,4.2-25.44a239.57,239.57,0,0,0,4.2-43,12.15,12.15,0,0,1,.48-3.72c.36-1.2.84-1.92,1.32-2l.24,1a3.07,3.07,0,0,1,3.48-2.28q3.6.18,8.64,5.4a45,45,0,0,1,8.64,12.24,32.32,32.32,0,0,1,4,14.52l.12,5.76A6.46,6.46,0,0,1,352.32,338.28ZM473.76,156.6A159.57,159.57,0,0,1,476,175.68l.24,29.16c0,8.4-1,31.2-3,68.52q-2.7,52.74-3.24,58v66.6c-1.32,10.92-3.48,31.32-6.36,61.2l-4.32,40.8,6.12-.24q62.28,0,91.68-63.6c7.08-15.12,12.24-32.28,15.6-51.36a229.4,229.4,0,0,0,3.84-39.6c0-18.6-1.08-34.32-3.12-47q-3.24-20-13.32-51.84c-2.28-7.08-6.36-15.48-12.48-25.08a201.63,201.63,0,0,0-18.12-24.48q-7.38-8.46-34.56-25.56c-8.52-5.4-14-9-16.68-10.92Zm-1.68-7.8q3.6-5.94,23,6.48,20.16,13.14,41.76,34.68c2.52,5.16,7.92,14.28,16,27.36,6.6,10.92,11.28,19.68,13.8,26.28q15.12,40.5,15.12,106.08A256.75,256.75,0,0,1,580,379c-2.52,20.76-7,39.72-13.56,56.76q-13.5,35.46-37.08,55.44-29,24.84-72,25l-.6,4.08a10.12,10.12,0,0,1-2.88-4.2l-.12-.24a5.58,5.58,0,0,1-3.72-3.6l-.24-4.44c0-2.88.6-4.8,1.68-5.64a6.58,6.58,0,0,1,2.76-1.32c.6-8.64,1.8-21.72,3.36-39.36,3-33.48,5.52-56.64,7.56-69.24V327.24c1.68-16.68,3.24-36.48,4.56-59.16,1.56-25.8,2.28-47.16,2.28-64.08,0-5.28-.48-13.92-1.44-25.8s-1.56-21-1.56-26.88a10.39,10.39,0,0,1,.72-3.84c.36-1.08.84-1.8,1.44-1.92Zm-98.76,2.64.36,2.76c0,1.8-6.12,13.56-18.24,35.4l-7.68,13.68c2.52,10.44,6.12,27.24,10.8,50.52,5.16,26,7.8,40.44,7.8,43.2l-.24,2.64-1.08,1.8c-12.12-46.92-18.72-78.24-19.8-93.72-7.92,13.56-14.4,23.88-19.32,30.84-4,29.64-7,49.68-8.76,60.24a7,7,0,0,1-2.16-1.68,4.93,4.93,0,0,1-.6-2.76c0-1.56.84-6.72,2.4-15.48L322,248a646.93,646.93,0,0,0,7.32-94.56,4.13,4.13,0,0,1,1-2.16,5.77,5.77,0,0,1,2.28-1.92q1.08,4.14,1.08,13c0,10.68-2.16,32.52-6.36,65.64,3-6.12,8.16-15.72,15.36-28.56,13.08-23.4,23-39.72,30-49.2Zm60.24,9.12c2.28,4.92,3.48,9.12,3.48,12.84l-.24,7.32c-.12,0-.24.12-.6.48l-1.08,1c-.6-.6-1.08-2.28-1.68-4.8a33.58,33.58,0,0,0-1.8-7.2c-2.28-6.48-6.84-9.72-13.8-9.72q-25.2,0-32.76,44.64a236,236,0,0,0-2.76,31.68c-.12,6-.24,11.52-.24,16.56-3.24,22.56-4.68,40.08-4.44,52.44l.84,17.76L379,337.8c7.08-1.44,17.4-1,30.72,1.32,11.16,0,18,1,20.4,2.76a2.54,2.54,0,0,1,1.08,2.52l-.36,2.4-.36,3.24-.72,2.4.36.48c.12.24-.48.36-1.56.36a4.53,4.53,0,0,1-2.76-1c-.72-.6-1.2-1-1.44-1-10.68-.12-18.84-.12-24.48.24l-7,.6c-6.12,0-10.8-.72-13.8-2.28l-.24,29.52a228.15,228.15,0,0,1-3,30.36V491a237.47,237.47,0,0,0-1.08,26.4l-.12,15.36a85.48,85.48,0,0,0,1.56,16c2.76,12.24,9.72,22.08,21,29.64l7.92-.24a155.77,155.77,0,0,0,32-26c8.28-9,13.92-17.88,16.92-26.52h.84l.24,1.68c.48,10.44-4,21.36-13.2,32.88q-12.78,16-37.08,32l-8.16-.24c-13.44-9-21.84-21.12-25.08-36.12a102.08,102.08,0,0,1-1.92-19.68l.24-19.08q0-21.42,1.08-32v-80.4l1.56-17.4,1.68-17.52v-43c-.72-4.32-1.08-11-1.08-20.28a525.12,525.12,0,0,1,7.8-92.4q11.7-65,36.24-64.92C424.32,149.16,429.84,153,433.56,160.56ZM423.12,9.24l.36,2.52a7.76,7.76,0,0,1-.36,2.64l-1,1.56-22.44.36-23,.72-2.28.12L374.76,32c0,21.72-.6,38.88-1.8,51.72-3.24,33.6-5.16,55-5.76,64l-.48.48-.84,1c-1.08-2-1.68-5.28-1.68-10,0-18.12,1.08-40.56,3.24-67.56,1.44-17.64,3.24-35.76,5.4-54.48l-5,.24-9.48.72-7.56-.84a184.33,184.33,0,0,1-28.08-3.12c-6.36-1.2-10.2-1.56-11.52-1.2l-.6-.84a11.13,11.13,0,0,1-.12-2.4c0-2.28.36-3.72,1.2-4.2s2.52-.48,5.4,0l12.48,2,22.32,2.16,7.56-.84L377.76,7.8l44.64.36Z" transform="translate(-1.68 -2.16)"/></svg>