<svg id="Layer_1" data-name="Layer 1" xmlns="http://www.w3.org/2000/svg" viewBox="0 0 550.44 528.27"><defs><style>.cls-1{fill-rule:evenodd;}</style></defs><path class="cls-1" d="M76,65.64q30.24,8.82,44,35.88a203.55,203.55,0,0,1,19.08,57.84,156.32,156.32,0,0,1-6.48,78,48.38,48.38,0,0,1-7.8,14.52Q91.14,294.72,34.44,286.8c.12-38.4.48-76.8,1.32-115.2C36.6,130.44,37.44,89.88,38,49.68A186.25,186.25,0,0,0,76,65.64ZM107.4,75A195.52,195.52,0,0,0,37.32,42.72c-.84-.12-1.32.12-1.44.84A11.39,11.39,0,0,0,36,48.48l1.08.6a346,346,0,0,0-5.52,55.68c-1.08,42.84-1.8,85.92-2.28,129s-1.32,86-2.16,129.12q-1.62,64.44-4.44,129a147.06,147.06,0,0,1-1.68,16c-2.16,12.6-.84,23.28,3.84,32.28.48-.36.72-.6.72-1,4.2-36.12,6.6-72.6,7.44-109.44,1-42.84,1.44-85.92,1.44-129a97.88,97.88,0,0,0,38.28-.12c30.6-6.12,51.48-22.92,62.76-50.64A87.38,87.38,0,0,0,141,230.28,259.28,259.28,0,0,0,128.88,103.8,59.23,59.23,0,0,0,107.4,75Zm158.16-8.16C260.64,54.72,251,50.16,237,53.28,215.28,63,197.76,78.6,184.68,99.84a177.84,177.84,0,0,0-26.16,85.68c-1.92,42.6-3.6,85.44-5,128.28q-2.16,63.9-1.08,128.4,1.08,51.66,27.6,94.56c7.08,11.4,16.92,18.36,29.76,20.88a31.07,31.07,0,0,0,17.28-1.2q30.42-11.34,46.44-41.76c3.84-7.44,3.48-12.84-1.08-16.32-4.2,5.64-8.16,11.52-12,17.64-7.8,12.6-18.24,21.12-31.44,25.68-12,4.2-22.32,2.4-31-5.16q-33.48-29.34-37-74.76c-1.56-21-2.4-42.12-2.76-63.48-.48-29.88-.24-59.76.72-89.88l77.4-2.64,1-1.68a10.67,10.67,0,0,0-.36-9.72l-.84-.48-2.4-.6c-24.84,2.28-49.8,5.16-74.64,8.4l1.44-31.56c1.32-26.52,2-53,2.4-79.56q.72-61.92,42.48-106.56,26.46-28.26,60.24-16.32ZM391.68,346.56A13.37,13.37,0,0,0,399.6,348c-7.08-14-19.56-21.24-37.68-21.72-16.32-.36-30.24,5.28-41.88,17a86.41,86.41,0,0,0-21.48,37,404.64,404.64,0,0,0-10.08,44.88A279.37,279.37,0,0,0,285,470.88a313.49,313.49,0,0,0,3.36,43.68c2.28,15.84,9,29.16,19.92,39.84,11.64,11.4,25.32,14.76,41,9.84a143.86,143.86,0,0,0,40.92-19.92c10.68-7.56,16.32-17.76,16.92-30.72a342.88,342.88,0,0,1-39.72,26.76,71.1,71.1,0,0,1-32.16,9.6,104,104,0,0,1-21.12-1.2q-30.78-46.26-22.08-104.88a159.72,159.72,0,0,0,67.44-.36,10.31,10.31,0,0,0,0-10.2l-1.8-2.76-65.28,8.52c-.84-35.4,11.28-64.68,36.12-87.84a43.71,43.71,0,0,1,31-12A76.4,76.4,0,0,1,391.68,346.56ZM376.56,220.8a533.07,533.07,0,0,1,22.8,100.44,2.55,2.55,0,0,0,2.16,2.16c3.48-5.28,4.68-11.52,3.36-18.72a657.71,657.71,0,0,0-35.4-123A496,496,0,0,1,339.36,69l.48-2.4-.24-.84-.6-1.68-.24.72-.84-6.6a32.19,32.19,0,0,0-1.56,13.44q-10.08,29.52-17.88,62Q303.18,196.5,286,258c-3,10.56-6.24,21-9.84,31.2-4.08,11.88-4.32,22.32-.72,31.44a12.46,12.46,0,0,0,4.08-6.36l25.2-97.2A552,552,0,0,1,375,219.72l1.32.84Zm-4.08-11.88-51-3-7.68.36-3.12.24-1.2.24-2.4.48,4.2-16.2q14.4-56,26-112.2a565,565,0,0,0,31.08,119ZM423,63.24a783.91,783.91,0,0,0-.48,111.36q3.24,48.06,4.2,96.6c.84,42.84,1.44,85.8,1.56,129a535.33,535.33,0,0,1-8.16,96.24,208.45,208.45,0,0,0-1.8,64.44,241.59,241.59,0,0,1,28.08,2,931.79,931.79,0,0,0,122,8c2.88-5.28,2.64-10.2-.72-14.64a1349.71,1349.71,0,0,1-144.6-12.24l4.8-39.72a894.65,894.65,0,0,0,6.24-128.28l-2.28-96.6q-1.08-48.42-4-96.48a1238.26,1238.26,0,0,1-1.2-128.28C424.56,56.76,423.36,59.52,423,63.24Z" transform="translate(-19.99 -42.69)"/></svg>