<svg id="Layer_1" data-name="Layer 1" xmlns="http://www.w3.org/2000/svg" viewBox="0 0 571.44 590.28"><defs><style>.cls-1{fill-rule:evenodd;}</style></defs><path class="cls-1" d="M55,451.32c0,7-2,28.32-6,64-3.48,31.08-5.88,50.76-7,58.8l27.84,1.2,26.52,3.36,10.44-1,2.52-1a12.93,12.93,0,0,1,2.16,3,6.37,6.37,0,0,1,.84,2.64,9.94,9.94,0,0,1-.72,4.08,8.2,8.2,0,0,1-3.36,3.36l-14-.84c-3.6-1.32-8.52-1.68-14.76-1.32-5.88.36-10.68-.24-14.52-1.92l-10-.36-14.88,1.2c-2-.6-3.36-1.68-3.84-3.12A15.66,15.66,0,0,1,36,580.2q0-1.26,4.68-31c3.24-20,4.92-33.48,5-40.08l1.56-17.4L49,473.4a65.91,65.91,0,0,0,.12-8.88l-.24-10c0-7.92,1.44-13,4.44-15C54.36,442.32,55,446.16,55,451.32ZM219.72,476l-2.16,8.88c3.6-1.2,12.24-3,26-5.52l20.52-4.08L257.4,439.2q-5.76-29-12.24-50.76a392.49,392.49,0,0,0-14.28,43.8C229.32,437.88,225.6,452.4,219.72,476ZM324.6,446.28c3,3.48,4.44,6.72,4.44,9.48a6.56,6.56,0,0,1-.48,2.88l-1.44,2h-.72a32.75,32.75,0,0,0-3.6-7.8q-3.6-5.76-7.56-5.76l-7.08.24a23.34,23.34,0,0,0-4,10.56c0,3.6,1.8,7.08,5.4,10.56,1.56,1.56,5.52,4.44,11.88,8.88,5.52,3.72,9.48,7.08,11.88,10a21.57,21.57,0,0,1,5.4,14.16,17.4,17.4,0,0,1-3.24,10.44c-3.72,4.92-10.2,7.44-19.44,7.44-15.72,0-25.56-3.72-29.76-11a16,16,0,0,1-1.92-8l.24-4.56c0-4.2.12-6.84.48-8a12.22,12.22,0,0,1,5.28-8l.6.84a11.13,11.13,0,0,1,.12,2.4,29.07,29.07,0,0,1-2.16,5.64c-1.44,3.24-2.16,5.76-2.16,7.32a20.93,20.93,0,0,0,2.4,9.84c2.64,4.68,7,7,12.84,7a64.93,64.93,0,0,0,25.44-4.8c6.12-2.64,9.12-4.68,9.12-6q0-5.58-5.4-10.44-2.16-2-11.88-8.28c-5.4-3.6-9.36-6.84-11.88-9.84a23.77,23.77,0,0,1-5.4-15.36,56,56,0,0,1,.36-8.4c.84-3.24,2.88-6.24,6.12-9.12C315.12,439.44,320.4,441.36,324.6,446.28ZM246,373.56q8.46,27.18,25.68,114.84,17.1,85.86,17,98.64a12.08,12.08,0,0,1-.36,3.24l-1.2,2.4c-3.72-5.64-5.88-13.92-6.6-25.08l-.6-13.44a75.23,75.23,0,0,0-1.8-12.6L272,516.12c-2-9.36-3.84-17.88-5.28-25.68l-1.2-7.32a147.83,147.83,0,0,1-17.64,7.08c-14.28,5-24,7.56-29.28,7.56l-3.24-.12-1.2-.12q-3.42,12.78-6.48,22.32a338.29,338.29,0,0,1-17.16,43.68,7,7,0,0,1-1.56-2.28,11.13,11.13,0,0,1-.36-3.12c0-1.56,4.08-14.52,12.24-39,9-26.76,14.4-44.52,16.44-53.52,5-22.56,8.76-38.16,11.28-46.92C233.76,400.56,239.52,385.44,246,373.56Zm60.36-72.12q0,13.86-6.36,69.48l-7.2,62.4a4.65,4.65,0,0,0,2.64-.48c22.56.12,34.08.36,34.68.72a5.34,5.34,0,0,0,2.4-1.08,6.75,6.75,0,0,1,2.16-1.56l.6,2,.24,2.76-.24,4.08-6.24-.24-33.84.24-4.56.36A22,22,0,0,1,290,434q0-14.94,7.44-75.36c4.56-37.68,7.2-58,8-61l.6,1.2ZM317,234l-10.2,18.6c-10.44,19.32-16.92,33.72-19.2,43l-.36.36-.48.48c-4-10.2-8.88-24.48-14.76-43s-9-28.92-9-31a18.62,18.62,0,0,1,.12-2.76l.12-.84h1.08c9.72,23.88,16.92,46.2,21.36,67.2v.36c2-3.72,7.32-14.4,15.6-32,6.6-13.8,12.72-25,18.48-33.36h.84l.6,1.08.24,2.64C321.48,225.48,320,228.6,317,234ZM27.24,30.72c.24,3.24.36,11.16.36,24q0,16.74-1.08,24.84v67.32l-1.68,33c-.6,13.2-1.44,24.12-2.64,32.76v1.92c.84.24,1.8.6,3.12,1.08A15.24,15.24,0,0,0,30,217.08c8.76,0,18.36-5.28,28.68-15.84a135.43,135.43,0,0,0,17.88-23.16A69.44,69.44,0,0,0,85,157a103,103,0,0,0,2.16-21.6,246,246,0,0,0-1.92-30.84c-1.08-9-2.76-19.32-5.16-31.2C78.48,65.64,77.28,60.48,76.2,58A34,34,0,0,0,63.84,42.72c-8.76-4.56-16.56-8.64-23.28-12.36A129,129,0,0,1,26.28,21.6,68.65,68.65,0,0,1,27.24,30.72ZM69,31.44A48.48,48.48,0,0,1,80.76,48.72a118.52,118.52,0,0,1,5,17.52c2.52,12.84,4.32,24.6,5.4,35.4.84,9.72,1.32,20.88,1.32,33.72s-.24,21-.72,24.12q-1.62,10.44-10.08,27a132.49,132.49,0,0,1-17.4,25.68c-11.64,13.68-22.56,20.52-32.88,20.52a24,24,0,0,1-9.24-1.44v36.6l-1.08,4.92v82.68c-.36,2.4-.72,6-1.08,10.92s-.72,8.52-1.08,10.92v59.28c-1,5-1.56,13.68-1.92,26-.36,11.64-1.08,20.28-2.4,25.92v48.72L11.4,564.48c-1.32,11.64-2.64,20.52-3.84,26.4-2.52-2-3.72-5.16-3.72-9.24a224.49,224.49,0,0,1,1.68-24.72c.72-6.48,1.92-15,3.72-25.56V482.64c1.32-5.4,2.16-14.16,2.28-26s.72-20.64,2-25.92V371.4c.36-2.4.72-6,1.08-10.92s.72-8.52,1.08-11V266L16.8,262v-55.2c1.2-8.16,2-18.84,2.64-32l1.68-32.88V73.56c.72-3.72,1.08-10,1.08-18.6L21.12,35.64,20,16.32A12.15,12.15,0,0,1,22.2,8.88l.48.84c2.76-4.08,9.24-3.48,19.68,1.92A106.69,106.69,0,0,1,58.44,22.08C63.36,25.8,67,28.92,69,31.44Zm52.8,54.84c-2.52-3.84-6.6-6-12-6.36l-3.12,25.68q10.62-.72,15.12-4.68c1.8-1.68,2.76-3.48,2.64-5.28A16.71,16.71,0,0,0,121.8,86.28Zm-15.72-16c8.88-2.28,15.24,1,19,9.72a38.81,38.81,0,0,1,3.24,15.72,24.34,24.34,0,0,1-2.4,11.4A12.85,12.85,0,0,1,119,113.4l4.2,11.16c4.08,10.92,6.12,17.64,6.12,19.92l-.24,3.24-.48.48-1,1c-1.92-2.4-4.68-8.88-8.4-19.44-2.28-7-3.84-12-4.56-15.12l-3.24.12-6-.12c-2.52,18.6-4.92,31.56-7,38.88-1.08-1.08-1.68-3.24-1.68-6.24,0-5.64.84-16,2.64-31.2l.48-3-1.32-1.92a4.47,4.47,0,0,1-.72-1.8l.24-2.4.84-1.68.36.24,1.56.36a212.48,212.48,0,0,1,5.16-26.52,3.28,3.28,0,0,1-1.32-1.92,9.06,9.06,0,0,1-.36-2.76C104.4,72.48,105,71,106.08,70.32Zm183.84,85.56c-.36,4.2-1.32,11.64-3,22.44l8.16-.48.36-.36.24.24c4.68-.72,8.28-2,10.92-4s4.08-4,4.08-6c0-1.08-1.32-3.48-3.84-7.2s-4.44-6-5.64-6.6c-5.28.12-8.88.72-10.8,1.56Zm.24-8.4c2.76-.72,6-.24,9.72,1.32a23.7,23.7,0,0,1,9.6,7.56,20.55,20.55,0,0,1,4.44,13.08,12.88,12.88,0,0,1-4.56,9.72,21.08,21.08,0,0,1-10.08,5l5.16,10.68c5.64,11.64,8.4,18.84,8.4,21.84l-.24,2.88-.6,2c-2.4-4.56-5.88-11.88-10.32-22-3-6.72-5-11.64-6.12-14.88L290,185H286l-.12.72c-3.12,19.8-5.64,32.52-7.44,38h-.72a19.79,19.79,0,0,1-.6-5.64c0-1.8,1.68-13.08,5.16-34l4.44-27.48-.36-.48a6.61,6.61,0,0,1-.6-3,5.19,5.19,0,0,1,2.4-4.8l.12-1h1.08l.12.36ZM214,36.48A39.59,39.59,0,0,0,208,28c-7.08-7.56-16.56-11.4-28.56-11.4q-23.58,0-32.76,43.56A208.1,208.1,0,0,0,142.32,104c0,7.8.36,13.68,1.08,17.52v47c.72,3.72,1.08,9.84,1.08,18.24L142.92,218c-1,16.2-1.44,29.76-1.56,40.44q4.68-1.08,13.68,0l10.56-1.2a47.18,47.18,0,0,1,10.08.12l16-.36,1.44-1a2.68,2.68,0,0,1,1.2-.36,15.55,15.55,0,0,1,2.16,7.68,16.29,16.29,0,0,1-.72,5.4,7.75,7.75,0,0,1-4.08,4L174,271.92l-7.92,1a74.44,74.44,0,0,1-12.6.12,49.45,49.45,0,0,0-9.6,1.08l-2.76.6c-.24,7.92-.72,16-1.56,24.12-1.32,13.92-2.28,27.24-2.64,40.08-.12,3.6-1.08,15.36-2.88,35.4q-2.52,28.26-2.52,38.16c0,16.2.12,29.76.48,40.92.6,15.24,1.44,28.8,2.76,40.56.36,4.08.84,10.68,1.2,19.92a127,127,0,0,0,2.88,20.76c.6,2.52,2.16,5.76,4.8,9.72a63.42,63.42,0,0,0,10.44,12.36c10.8,10.2,22.44,15.24,35,15.24,8.52,0,15.72-8.76,21.36-26.4,1.08-3.36,3.12-10.56,6-21.48q3.24-12.06,5.4-16.56a12.38,12.38,0,0,1,2.76,7.8c0,1.08-.84,5.16-2.4,12.12-2,8.88-4.32,17.16-6.84,24.72-7.8,23.64-16.08,35.52-24.84,35.52-14,0-27.24-6.24-39.84-18.84A93.73,93.73,0,0,1,139,554.88a56,56,0,0,1-5-8.64c-2-5.28-3.12-12.6-3.48-22.08-.36-13.44-.6-21-.84-22.68-1.56-12.48-2.52-27.12-3.12-44-.24-10.08-.36-25-.36-44.76q0-5.94,6.48-102.24,6.48-96.48,6.48-123.72a46.78,46.78,0,0,0-1.08-11.4V127.44a197.27,197.27,0,0,1-1.08-24c0-14.88.48-26.88,1.56-35.88a133.86,133.86,0,0,1,8.76-35L149.76,24a33.21,33.21,0,0,1,4.56-9.48C159.72,7.08,169.44,3,183.48,2.4,197.76,4.92,208,9.48,213.84,16.08c4.32,4.8,6.48,10.92,6.48,18.24-.72,3.72-1.8,6.24-3.24,7.68ZM292.2,85.56c-1.56,26.4-6.48,47.64-14.52,63.6a13.31,13.31,0,0,1-.6-4.08l6.48-28c4.32-19.56,6.6-33.48,6.84-41.88l1.08-.24a591.82,591.82,0,0,1,20,60.6l5.28-32.28C319,90.72,321,79.92,323,70.68h.84a16,16,0,0,1,.84,5.64c0,2.16-1.8,13.2-5.4,33.24-3.72,21-5.88,33.36-6.24,37.32h-1.92a253.72,253.72,0,0,0-8.64-30.36L292.56,86ZM293.4,27c1.92,3,2.88,5.28,2.88,6.6a7.59,7.59,0,0,1-.6,3.12,5.4,5.4,0,0,1-1.8,1.92A30,30,0,0,1,289.56,34l-5.64-7.08c-5.52-6.12-11-9.24-16.56-9.24l-11,.24a208.84,208.84,0,0,0-19.32,51,331.14,331.14,0,0,0-7.8,51.6c-.6,6.36-1.56,23.64-3.12,51.72l-.72,12.6a44,44,0,0,0,9.48-5.16l36-.48.84-.6a9.07,9.07,0,0,1,2.16,2.88,5.91,5.91,0,0,1,.84,2.64,8.51,8.51,0,0,1-2.76,6.12L234.6,191l-2.4,1.08-3.84.6-3.24-.12h-.24q-1.26,17.82-3.24,30.6v50.4c-.72,6.36-1.08,16.68-1.08,30.72,0,15.84.48,26.88,1.44,33,2.52,15.24,7.8,23.16,16.08,23.76l11.16-.24c11.64-4,21.6-11.88,29.88-23.88,7.56-10.68,11.28-20.52,11.28-29.52,0-1.92.12-3.72.24-5.28l.6-.48,1.32-.72a12.8,12.8,0,0,1,3.48,4.56,25.35,25.35,0,0,1,.24,4.44c0,3.72-1.44,8.88-4.2,15.48a121.74,121.74,0,0,1-11,19.92c-11.16,16.44-21.84,25.32-32,26.88l-12.48-.36a26.2,26.2,0,0,1-16-15.12q-2.52-6.12-3.24-17.64c-.36-4.68-.48-11.52-.6-20.4v-14q0-23.76,1.08-36V217.56c1.32-11.88,2.76-30.72,4.2-56.52q2.34-40.14,4.32-59,3.42-32.4,9.72-54c5-17.52,11.88-31.32,20.52-41.52,10.08-1.32,19.56,2.16,28.56,10.68A49.39,49.39,0,0,1,293.4,27Zm97.8,69.84c-2.52-6.6-6-10-10.44-10-10.8,0-18.84,8-24.24,24-2.88,8.64-5.4,20.52-7.44,35.52-3.72,17.64-5.64,37.68-5.64,60.12q0,25.74,2,77l.36,9.6L364,292.08l24.12-1.56a2,2,0,0,1,1-1.08,2.68,2.68,0,0,1,1.2-.36,14.52,14.52,0,0,1,1.92,7.32,14.21,14.21,0,0,1-1.92,7.32l-10.32.48-10.8.84-14.52,1.2-7.68.72h-.48c.84,23.28,1.2,41.4,1.32,54.36v66.6l.6,1.68.48,1.56v46.32c1.08,2.16,2.52,7.2,4.44,15,2.28,6.72,5.76,10.08,10.2,10.08,12.36,0,22.2-6.12,29.28-18.36a82.46,82.46,0,0,0,6.12-13.68q2.7-7.74,3.24-8.28a14.52,14.52,0,0,1,1.92,7.32q0,12.06-8.28,24.12c-6.84,10-16.44,17.4-28.8,22.44l-8.16-.24c-3.84-3.72-7-9-9.48-15.6l-5.4-17.16V437.64a17.28,17.28,0,0,1-1.08-4.08v-77a42.2,42.2,0,0,0,1.08-10.2c0-11.76-.84-34.56-2.64-68.28s-2.76-57.48-2.76-71.52c0-16.68.48-29.76,1.44-39,1.32-12.36,4.08-26.64,8.28-43.08,4.56-17.76,10-30.84,16.32-39.12,5.4-7.08,10.92-10.32,16.8-9.72,5,.6,9.36,3.72,13,9.6a34.08,34.08,0,0,1,5.4,18.72,14.52,14.52,0,0,1-1.92,7.32,15.62,15.62,0,0,1-3.84-6.36Zm59.64-55-14.28-7.56c-4.44-2.52-7.56-4.8-9.36-7l-.72-.84L424.32,40.2c-2.52,16.2-3.84,28-3.84,35.28q0,11.88-1.08,36l-1.08,23.28q0,24.3,6.48,115.08,6.66,90.72,6.6,117.36a1304.52,1304.52,0,0,1-16.56,204.6v.12q9.18-6.3,44-29,28.26-18.54,47.16-32.4c10.2-7.56,19.08-17.88,26.4-31,3.48-6.24,8.52-17.28,15-33.24q15.48-38,19.68-66.12c1.8-12.48,2.76-32.88,2.76-61.32L569.76,280a319.18,319.18,0,0,0-2.52-33.48q-4.68-32.94-23.88-79.2C537,152,531.12,139.08,525.6,128.4A265.82,265.82,0,0,0,502.2,91c-5.52-8.28-9.84-14.64-13.08-18.84A85.67,85.67,0,0,0,469,52.8,164.15,164.15,0,0,0,450.84,41.88ZM551.16,163.44a278.84,278.84,0,0,1,21.6,79.44c1.2,11,1.92,23.64,2.28,37.68.12,6.6.24,19.8.24,39.36v35.64a275.38,275.38,0,0,1-2,29.28q-3.78,27.9-21.24,71.52c-6.12,15.48-11.52,27-16,34.68a134.41,134.41,0,0,1-27.84,33.48q-2.7,2.34-48.72,33.48l-46,30.72c-2.76,0-4.32-1.68-4.92-4.92v-5.16l.12-3.6-.12-1c0-6.84,1-16.68,2.76-29.4l5.88-40.8a1030.26,1030.26,0,0,0,8.64-136.8c0-13.56-2.16-50.16-6.48-110s-6.48-100.56-6.48-122.4l2.16-69.48c.12-3.12.48-8.88,1.32-17.4a145.33,145.33,0,0,0,.84-17.4,43.08,43.08,0,0,1,1.44-12,31.66,31.66,0,0,1,3.84-9c1.56-2.4,2.76-3.12,3.84-2.28a5.87,5.87,0,0,1,1.08,1.8,4,4,0,0,1,1.68,0c2,4.2,9.72,10.2,23.28,18.12,16,9.36,25.8,15.84,29.76,19.56,5.16,4.68,10.32,11.16,15.48,19.2l12.72,19.8a268.24,268.24,0,0,1,23.16,38.52C536.76,130.8,542.64,143.88,551.16,163.44Z" transform="translate(-3.84 -2.4)"/></svg>