<svg id="Layer_1" data-name="Layer 1" xmlns="http://www.w3.org/2000/svg" viewBox="0 0 459.9 363.6"><defs><style>.cls-1{fill-rule:evenodd;}</style></defs><path class="cls-1" d="M85.92,95.52a58.88,58.88,0,0,1,43.92,10c13.08,8.88,21.36,20.88,24.84,36.12a102.08,102.08,0,0,1,.48,45.48,97.07,97.07,0,0,1-20,41.16c-10.56,13-23.52,18.84-38.76,17.52a122.19,122.19,0,0,1-14.64-3.12q-1.44-71.1,3.24-142l1.56-3.48ZM80.64,92l.12,2.4.36,1.68,1.2.12a130.12,130.12,0,0,0-3.48,25.44C77.52,153,77,184.44,77.64,216l.24,25.44-6-2.28-.24,2.52a21.82,21.82,0,0,0,0,4l.6,2.52,5.52,2.64q-.54,47.34-5,94.32-3.06,32.58-8.16,64.44c-2,12.12-1,22.8,3,32a22.79,22.79,0,0,0,3.72-10.44l6.24-74.64q4.14-51.66,4.32-103.68L92.76,258a12,12,0,0,0,10.32,0q61.74-29.52,59.64-97.8c-1.2-38-20.64-63.36-58.32-75.72A53.88,53.88,0,0,0,82.2,88.8,3.87,3.87,0,0,0,80.64,92ZM241,109.68q17.64,1.26,31,14c-5.4-21-18.6-29.16-39.36-24.72-15.84,3.24-26.88,12.48-33,27.48A566.47,566.47,0,0,0,158.4,303.24a311.39,311.39,0,0,0,7.32,92.64,90.66,90.66,0,0,0,15.48,33.24,57.19,57.19,0,0,0,8.76,9.12,27,27,0,0,0,9.24,5.16,32.11,32.11,0,0,0,27.48-2.4,133.7,133.7,0,0,0,14.64-9.6q10.26-7.74,19.8-16.2a49.45,49.45,0,0,0,11.76-14.64,38.08,38.08,0,0,0,4.2-21.48c-16.2,24.72-37.8,40.56-65,47.4q-20,4.86-29.16-14-32.94-68.76-13.8-146.28l63.6-4a10.55,10.55,0,0,0,1.32-7.8,8.75,8.75,0,0,0-3.48-5.4l-60.12,7.2a402.87,402.87,0,0,1,34.32-124.92C212.52,116.88,224.64,109.68,241,109.68ZM489.72,132a73.43,73.43,0,0,1,20.16,40.44,85.84,85.84,0,0,1-4.44,44.64,92.61,92.61,0,0,1-26.64,38.64,75.24,75.24,0,0,1-35.16,17.64A967.94,967.94,0,0,0,448,119.64C464.64,116.4,478.56,120.48,489.72,132Zm-27-23.88a102.79,102.79,0,0,0-15.36,4l-.12-2.52-1.08,3h-.24l-.36,1.68-.12.36A35.81,35.81,0,0,0,444.36,125c.36,17.88-.12,35.64-1.44,53.4-3.24,42.6-6.12,85.44-8.64,128.28q-3.78,64.8-10.08,128.4a3,3,0,0,0,3.84,1.56,484.7,484.7,0,0,0,9.36-70.56c1.56-26.76,3.36-53.64,5.4-80.4,12.6-1.92,23.76-6.36,33.24-13.44q13.68,51.66,24.24,105a206.66,206.66,0,0,0,22,60.72,3.65,3.65,0,0,0,1.08-3.72q-15.66-54.36-26.76-111a263.06,263.06,0,0,0-16.68-53.88,78.79,78.79,0,0,0,14.28-16.32q40.5-60.48,6-121.92C492,116.64,480,108.72,464.28,107.4A2.71,2.71,0,0,1,462.72,108.12Zm-69.48,16.32c-3.72-12.48-12.48-18.6-26.4-18.36q-39.42,16.2-52,58.08A450.76,450.76,0,0,0,296,284.4c-.12,10.8-.72,21.6-1.8,32.28a224.1,224.1,0,0,0,11,95.76A66.44,66.44,0,0,0,326.76,443c6.72,5.4,14.28,6.48,22.8,3.12Q394,428.7,411.48,383.4l-.24-1.56-.36-.84-.48-.48-1.08-.12a148.81,148.81,0,0,0-22,24.84,61.13,61.13,0,0,1-36.84,25.08c-5.64,1.32-10.68,1-15.36-1.32-16.08-8-26.16-21.36-30.24-40.08a252.88,252.88,0,0,1-5.52-62.4l2.28-64.08c18.12-2.28,36.24-4.08,54.6-5.4l.36-.72c1.92-4.68,1-8-2.76-10.08a113.14,113.14,0,0,0-51.72,8.52A277.76,277.76,0,0,1,328.8,150.84c11.52-24.12,29.76-34.8,54.84-31.8l2.88,2.52a14,14,0,0,0,5.88,3.6l1,.12Z" transform="translate(-63.55 -84.47)"/></svg>