<svg id="Layer_1" data-name="Layer 1" xmlns="http://www.w3.org/2000/svg" xmlns:xlink="http://www.w3.org/1999/xlink" viewBox="0 0 579.48 604.7"><defs><style>.cls-1{fill:none;}.cls-2{clip-path:url(#clip-path);}.cls-3{fill-rule:evenodd;}</style><clipPath id="clip-path" transform="translate(-6.48 3.02)"><rect class="cls-1" x="6.48" width="579.6" height="601.8"/></clipPath></defs><g class="cls-2"><path class="cls-3" d="M135.36,536.76l-15.84,1L116.88,539v1.08a139.62,139.62,0,0,1-1.44,14l11.16-.84,14.88-1.68q6.84-1.62,6.84-5c0-1.32-2-3.36-6-6C138.6,538.08,136.32,536.76,135.36,536.76Zm-16.92-4.56,13.08-.36a31.23,31.23,0,0,1,13.08,4.56c4,2.64,5.88,6,5.88,10.08v4A8.22,8.22,0,0,1,147,555.6l-2.64,1.68,3.36,2.88c4.56,4.2,7.92,8,10.08,11.76.84,2.28,3.48,5.28,8.16,9s7.44,7.08,8.52,10.2l-.24,1.56a2.11,2.11,0,0,1-1.56,1.08c-10.44-8.88-19.2-16.8-26.28-23.64-4.56-4.44-7.8-7.8-9.84-10.2a121,121,0,0,1-22.32,2.64l-1.08,7.08q-3.6,22.5-4.32,25.2l-1.2.36a9.2,9.2,0,0,1-.6-2l-.12-2.88c0-3.6,1.08-12.84,3.36-27.6h-1l-3.84-2.28a.91.91,0,0,1-.48-.84c0-2.28,2.16-3.84,6.6-4.68L114.12,540l-1,.24-.48-1a10.45,10.45,0,0,1-.12-2.28c0-1.56,1-2.88,3-3.72l.48-1.68.36,1.32Zm231,60a13.38,13.38,0,0,1-.36-3.24c0-4.2,2-14.28,6.12-30.48C359,543.24,361.92,533.16,364,528q5.58,34,10.8,56.88a.87.87,0,0,1,.72.48l.6.6,6.12-27c2.52-11.52,3.84-20.16,3.72-25.8,1.8-.6,2.76-1.32,3-2a10,10,0,0,1,.72-2.52,6.63,6.63,0,0,1,1.92,1.32,4.47,4.47,0,0,1,.6,2.64c0,1.92-2.16,12.24-6.6,31-4.68,20-7.32,31.68-7.8,35.16l-.48.48a2.29,2.29,0,0,1-1.2.6,139.75,139.75,0,0,1-7.92-25.68l-5-26.28c-1.32,4.92-3.36,12.6-6,23.28L351,594.6h-.84ZM337.92,315.84c1.32,2.52,1.92,4.32,1.92,5.52,0,1.8-.12,2.52-.24,2.4l-.36.36-.48.48a59.47,59.47,0,0,0-7.32-9.12C326,310,320,307.2,313.32,307.2l-10.56.36q-28.8,14.94-37.92,55.8a200.19,200.19,0,0,0-4.2,33.72c-.24,5.16-.36,14.76-.36,28.68l.12,4.32c8.16,2.16,18,3.24,29.64,3.24a96.06,96.06,0,0,0,16-1.44l11.4-1.56a2.31,2.31,0,0,1,2.4,1.92,14.05,14.05,0,0,1,.36,3.84,6.07,6.07,0,0,1-1.92,4.8L296,443c-15.48,0-26.52-1.08-33-3.24l-2.4-1v67.32c.36,1.08,1.08,5,2.16,11.64a121.93,121.93,0,0,0,3.48,16.8q6.3,21.6,20.52,21.6c11.4,0,21.36-5.4,30.12-16.2a60.83,60.83,0,0,0,7.68-12.12c1.68-3.72,2.52-6.24,2.52-7.8a12.5,12.5,0,0,0-.6-4l-2.28-5.4,6.36,3.84c1,.72,1.44,2.52,1.44,5.52,0,2.76-1,6.72-2.88,11.76a80.21,80.21,0,0,1-8.28,15.48c-8.76,13-18.72,19.44-29.76,19.44q-23.76,0-31.32-43a231.42,231.42,0,0,1-3-31.32V474.6c-.24-16.56-.36-30.6-.24-42.24a518.12,518.12,0,0,1,3.6-56.28q9.36-70.74,43-77.28c11.52-1.44,21,1.44,28.56,8.76A34.14,34.14,0,0,1,337.92,315.84ZM111.24,55.8C103,42.48,85.8,31.44,60,22.68l-24.6-8-1.92-.72A110.4,110.4,0,0,1,35.4,29.64l.36,14.76A134.5,134.5,0,0,0,37.08,59v47.88c.48,13.08.84,28.32,1,45.48l.12,41.88,5.4.36q67.68,0,85.56-39a71.58,71.58,0,0,0,5.76-28.44,80.3,80.3,0,0,0-.36-10.56l-.6-5.64a60.43,60.43,0,0,0-5.16-25.56C126.84,81.24,121,71.4,111.24,55.8Zm4.56-7.08C126.6,66,133,77,134.76,81.84c2.76,6.84,4.08,16.68,4.08,29.4l-.24,23.88c-.84,12-3.12,22.56-6.84,31.56q-16.38,39.42-70.08,42.84c-11.4.84-19.32-.12-23.64-2.64L35.4,279.36c-2.16,54.36-4.08,92.4-5.64,113.88l-7.08,97.44q-4.86,56-11.88,97.2a11.47,11.47,0,0,1-3.24-5,12.05,12.05,0,0,1-1.08-4.08c0-10,1.44-27.6,4.2-53.16,4-34,7-61.8,9.24-83.52Q33.24,311.94,33.24,196.56c0-4.08-.24-11.52-.72-22.44s-1.08-17.28-1.44-18.84V107.4C31.8,102,32.16,94,32.16,83L30.36,24.6a49.29,49.29,0,0,0-1.68-9L27.6,11c-1.8-1.2-2.76-2.4-2.76-3.48A4.39,4.39,0,0,1,28.2,3l1.08-1.08.36.84a29.5,29.5,0,0,1,9.84.6c8,1.8,22.08,6.6,42.24,14.52A92.47,92.47,0,0,1,103.08,33,82.13,82.13,0,0,1,115.8,48.72Zm81.84,126a14,14,0,0,1,.12,2.76,8.37,8.37,0,0,1-.36,2.88l-1.2,1.92H171.6l-.6-.6c-4.68-.24-7.2-.6-7.56-1l-10.32-.48a24.54,24.54,0,0,1-1.32-9c0-6,1-24.24,2.76-54.6l2.64-46V25.2c.12-3,0-7.32-.36-13.08l-.48-9.72c0-2.52.6-4,1.92-4.32,1.8,3.24,2.76,7.92,2.88,13.8L161,25.68v41.4a29.6,29.6,0,0,1,1.08,9c0,4.2-1,20-2.88,47.64l-3.12,46.2,13.2,1.08,24.48.84A4.54,4.54,0,0,1,197.64,174.72ZM319.2,27.12a17.16,17.16,0,0,0-5.52-5c-5.16-3.24-15-5.88-29.28-8-11.88,1.08-22.68,7.8-32.64,20.28-8.4,10.68-15.84,25.08-22.2,43.2A319.54,319.54,0,0,0,216.72,127c-2.76,15.36-4.08,28.32-4.08,38.88l-5.88,48.48c-1.56,13.44-2.76,25.44-3.72,36,3.84-.12,10.56.12,20,.48,19.2.72,32.16,1.08,38.88,1l14.28.24a10.05,10.05,0,0,1,2.16,6.48,9.05,9.05,0,0,1-.48,3.36l-1.68,3.24-7.32.48-8,.84c-9.72-.12-20.52-.48-32.52-.84l-25.92-1.32L202,264c-.84,10.68-1.2,19.56-1.2,26.4l2.88,45.36q4.14,52.56,11.52,96.24,10.26,61,25,95.76,18.36,43.38,43,43.32,41,0,59.28-29.4a76.34,76.34,0,0,0,9.24-22.8c.84-3.36,1.8-8.64,2.88-15.72l.84-.24.24,12.12q0,28.44-24.12,51.12a85.12,85.12,0,0,1-21.36,15c-7.44,3.6-14.16,5.4-20,5.4q-42.84,0-65.28-71.4a334.75,334.75,0,0,1-11.52-50.52L210,438.72q-7-45.72-10.08-74.16a683.38,683.38,0,0,1-4.56-73.92q0-34.74,5.52-82.2c4.08-35.64,9.6-68.16,16.68-97.8q12.24-52,28.2-79.8c12.36-21.72,25.8-31.2,40.32-28.68,13.56,1.2,23.76,4.56,30.48,10.2q7.92,6.48,7.92,14.76l-.24,4.8-.6.48-1.08.84ZM385.56,418l-.12-.36c-.72,4-3.12,14.16-7.08,30.84a19.75,19.75,0,0,1,2.52,1.08,16.19,16.19,0,0,0,7.68,1.92,37.59,37.59,0,0,0,9.6-1.2c.12-3.36,1.8-3.84,5-1.56a64.8,64.8,0,0,0,6.6-3.12c5.88-3.36,8.88-5.76,8.88-7.32s-.84-3.48-2.52-6.24a32.71,32.71,0,0,0-6.72-7.92q-10.62-9.54-20.88-4Zm.6-4.08a27,27,0,0,1,3.48-3c11.64-1.68,20.28,1.8,26,10.56a32.93,32.93,0,0,1,4.56,10,27.42,27.42,0,0,1,1.08,6.6,15.53,15.53,0,0,1-1.08,4.08,42.07,42.07,0,0,1-4,7.2,25.66,25.66,0,0,1-6.24,6.24A178.42,178.42,0,0,1,421.2,469.8c7.68,10.56,15.36,22.08,23.16,34.68q0,2.7-.36,2.52l-.48.48-.84.84c-7.56-7.32-17-18.48-28.44-33.24-5.28-6.84-9.24-12.24-12-16.2l-5,.48q-15.3,0-20.52-4c-5.16,21.48-9.36,38.16-12.48,49.92l-1.08.24-.6-1.32-.24-2.76c0-2.52,2.64-15.24,8-38,5.76-25.08,10.44-42.6,14.16-52.32l1,2,.12,1.56Zm17-174.24c0,6.36-1.56,24.24-4.56,53.64-3,28.68-5,45.12-6,49.44v4.56a11.73,11.73,0,0,1,4.44-2.16l9.36-.84,9.24.24,8,.6,29,.6a8.37,8.37,0,0,1,2.64,6.12l-.24,1.92a4.07,4.07,0,0,1-2.76,2.16l-28.68-.48-8-.6-9.24-.24c-5.4,0-9.24.6-11.64,1.68a20.76,20.76,0,0,1-6.24,3.24,7.5,7.5,0,0,1-1.56-2.4,12.82,12.82,0,0,1-.36-3.48c0-7.32,1-17,3-29.16,2.28-13.56,3.48-23.52,3.84-29.64.12-3.24,1.2-13.56,3.12-30.84,1.8-16.44,2.76-25.44,2.76-27.24a5.05,5.05,0,0,1,.84-3.12,2.87,2.87,0,0,1,1.68-1.32A19,19,0,0,1,403.2,239.64Zm-47.76-95.52q-8.28-79.74-10.8-109.56c-2.16,11.64-5.88,29.64-11,53.76q-14.4,65.34-15.36,73.56L315.48,179c6.84-1,21.24-2.4,43.2-4.44Zm0,40.2-5.88.84a237.34,237.34,0,0,0-27.84,2.52l-8.28,1.56c-2.76,13.56-6.48,28-10.92,43.44q-5.94,20.16-22.68,70.56a31.54,31.54,0,0,1-2.28-4.56,8.84,8.84,0,0,1-.72-3.24q16.74-52.38,23.76-71.76a231.8,231.8,0,0,0,9.24-34.32,4,4,0,0,1-2.76-1.92,9.4,9.4,0,0,1-.24-2.52,12.58,12.58,0,0,1,.24-3.12c.6-.84,2-1.44,4.44-1.92l5-30c1.56-8.52,4.2-20.76,8.16-36.72l8.64-37.08,3.24-18.6c1.32-8,2.64-14.28,3.84-18.84q1.26-4.86,2.52-18.72l.36-4.32-.24-3.36c0-3.24.6-5.4,1.68-6.72l.84-2.76a78.1,78.1,0,0,1,1.08,9.36l.24,6.24q3.6,35.1,15.48,148,14,131.94,14,136l-.36,4.44-.48.48-1.08.84C370.8,283,365.76,241.56,359.64,184ZM423.72,31.8a21.59,21.59,0,0,0-7.08-16.56C409.8,9,398.88,5.76,383.76,5.52V6.84l.12,27.72c-.48,7.92-1.8,13.8-4.08,17.64,18.12-1.68,30.6-4.56,37.32-8.76A12.9,12.9,0,0,0,423.72,31.8ZM526.56,93.12c-9.48,2.28-16.08,3.48-20,3.48a8.14,8.14,0,0,1-4.2-.84L501,100.08a36.79,36.79,0,0,0-1.2,8.16,17.89,17.89,0,0,0,3.36,9.72,15.78,15.78,0,0,0,14.28,7.92c19.8,0,32.4-4.56,37.68-13.8l.84,2a6.32,6.32,0,0,1,.48,2.76,9.22,9.22,0,0,1-1.56,4.08,26.81,26.81,0,0,1-5.52,6.24c-6.6,5.64-15,8.4-25.44,8.4-12.84,0-21.36-4.08-25.44-12.24-1.68-3.24-2.52-7.8-2.52-13.8a55.2,55.2,0,0,1,1.56-10.92,108.67,108.67,0,0,1,5-16.68c5.88-14.52,13.56-21.84,22.92-21.84,9.6,0,16.2,1.2,19.8,3.48,2.76,1.8,4.08,4.44,4.08,8.16l-.36,4-.48.48-.84,1L540.48,72A19.42,19.42,0,0,0,531,69.84c-10.92,0-19.32,5.76-25.2,17.16,4.92-.84,12.48-2.88,22.68-6,9.72-2.28,14.64-.84,14.64,4.32C543.12,87.84,537.6,90.36,526.56,93.12ZM577.44,43.8,576,46.32c-10.68-10-18.6-16.8-23.52-20.28-12.24-8.52-24-12.84-35.4-12.84-25.08,0-42.48,10.08-52.44,30.36A70.57,70.57,0,0,0,458,64.92a73.18,73.18,0,0,0-1,10.68q0,46.62,20.16,86.76a260.86,260.86,0,0,0,20.64,34.08c4.08,5.88,12,16.56,23.64,32,10.2,13.56,18.12,24.48,23.64,33a275.15,275.15,0,0,1,20.64,36.84Q586,342.78,586,396.6c0,20.28-.84,37.08-2.64,50.16-2.28,16.2-6.6,34.08-13.08,53.64a159.07,159.07,0,0,1-11.52,26.4,149.19,149.19,0,0,1-17.52,25.56c-4,4.68-16.92,14.28-39.12,28.68-21,13.8-32.16,20.64-33.36,20.64q-36.54,0-52.44-23.28c-8-11.64-12-27.48-12-47.52a25.41,25.41,0,0,1-.36-5.76c.36-3.12,2.16-4.68,5.28-4.68l.24-.72-2.4.12a1.39,1.39,0,0,1-1.68-1.56c0-1.08.12-1.56.24-1.32l.36.84c2.4.24,4,.72,4.8,1.56l-.6,4a21.25,21.25,0,0,0-.48,4.2,77.38,77.38,0,0,0,10.32,39c7.56,13.08,16.8,19.68,27.6,19.68,12.84,0,26.52-3.48,40.8-10.56a165,165,0,0,0,36.84-25.44,177.12,177.12,0,0,0,27.36-31.08c7.2-10.56,11.4-19.56,12.48-27l8.4-43.92c4.68-25.56,7.08-42.6,7.08-51.12q0-48.6-20-90.48a280.53,280.53,0,0,0-20.64-35.28c-4.68-7.08-12.6-18-23.52-32.64-10.44-14-18.36-25.08-23.52-33a278.69,278.69,0,0,1-20.64-36.12q-20-43-20-93.84c0-13.2,1.2-23.64,3.6-31.2,4-12.24,11.52-22.68,22.92-31.32C489.72,4.8,501.6.6,514.32.48c10.56-.12,21.24,2.52,31.92,8A81.76,81.76,0,0,1,569,25.8c5.88,6.36,8.76,11.28,8.76,14.76A12.08,12.08,0,0,1,577.44,43.8ZM403.2-.6a36.7,36.7,0,0,1,16.44,10.68c4.92,5.76,7.32,12.84,7.32,21.36l-.12,8.16a19.09,19.09,0,0,1-4,9.6c-6.12,7.8-19.32,12.24-39.72,13.32l-7.08-.24-1.08-2a15,15,0,0,1-.24-2.88A13.58,13.58,0,0,1,375,54.6a6,6,0,0,1,1.08-2.16h.12l-.12-1.8c0-5.28.84-14.88,2.64-28.92.84-7.32,1.68-13,2.4-16.92l-1.2-1a4.65,4.65,0,0,1-.48-2.64c0-2.28,2.52-3.6,7.44-4.08A38.38,38.38,0,0,1,403.2-.6Z" transform="translate(-6.48 3.02)"/></g></svg>