<svg id="Layer_1" data-name="Layer 1" xmlns="http://www.w3.org/2000/svg" viewBox="0 0 457.91 546.39"><defs><style>.cls-1{fill-rule:evenodd;}</style></defs><path class="cls-1" d="M82.32,546q1.44-64.62.24-128.16c-2.52,5.88-3.72,12.6-3.84,20.28q-.18,64.26-1.08,128.16a315.83,315.83,0,0,1,66.84,7.92c2.76-4.2,2.64-8.28-.24-12.24Q112,557.1,82.32,553.32ZM155.88,93.36A222.69,222.69,0,0,1,149,219.84a37.86,37.86,0,0,1-10,15.48c-22.92,21.24-49.8,29.52-80.64,24.6.36-32,1-64.2,1.92-96.24,1.2-41.4.72-82.8-1.32-124a172.1,172.1,0,0,1,58.08,9.72Q148.26,60.42,155.88,93.36ZM150,67.8c-15.24-25-38.64-37.32-70-37a78,78,0,0,0-25.92,1.68,5.9,5.9,0,0,0-.6,2.4v2.4l.12.84.48,1.56h4.44c-1.8,36.12-3.12,73-3.72,110.52L53,259.08l-3.84-1a18.25,18.25,0,0,0-1.2,5.76,21.9,21.9,0,0,0,.6,4.8,5.84,5.84,0,0,0,1.68,2.52l2.64.6-.12,7.44c-.6,43.08-1.8,86-3.84,129s-4,86-5.76,129.12c-.48,12.36,1.32,22.92,5.28,31.44a56.68,56.68,0,0,0,3-18.72q-.18-64.44,3-128.28c2.16-42.84,3.36-85.92,3.6-129l.24-19.8a108,108,0,0,0,41.16-.24c28-5.64,46.2-21.6,55-48A241.78,241.78,0,0,0,162.12,98.4,93.85,93.85,0,0,0,150,67.8Zm54.84,140.4A477.83,477.83,0,0,0,188,304.68q-3.78,55.44-3.24,110.64a221.87,221.87,0,0,0,13.56,74.52,107.58,107.58,0,0,0,10.8,22.08,124.28,124.28,0,0,0,15.24,20,69.6,69.6,0,0,0,21.72,16.2,43.28,43.28,0,0,0,12,4.2,88.85,88.85,0,0,0,17.76,1.56A32.08,32.08,0,0,0,299.4,543.6a115.67,115.67,0,0,0,19.8-28.32A41.6,41.6,0,0,0,322,483.84q-8.1,34-35.88,52c-5.88,3.72-12.24,4.68-19.32,3.12q-46.26-10.8-62.52-56.76a269.22,269.22,0,0,1-14.4-115.68c.6-5.88,1-11.88,1.08-17.76l76.08-.48a7.11,7.11,0,0,0,1.56-4.68l-.36-2.28-1-2.28-.72-1.32L191,344a540.51,540.51,0,0,1,20.4-130.8,107.63,107.63,0,0,1,30.24-49.44,68.31,68.31,0,0,1,42.24-8.52,98.68,98.68,0,0,1,32.88,10.56l6.84,7.2,1.32-3.12a27.18,27.18,0,0,0-14.88-18.6c-25.92-12.84-49.56-10.92-70.8,5.52C222.12,170,210.72,187.2,204.84,208.2ZM441.12,389.4A260.78,260.78,0,0,0,460,456a218.46,218.46,0,0,0-56.64,17.4l10.2-23.52c8-19,16.56-37.8,25.8-56.52Zm2.28-17.52L440,378.24l-.36-1.32.12,1.8a628.1,628.1,0,0,0-29.64,67.68l-17.52,32.28-3.6,1.8a2.62,2.62,0,0,0,1.44,2.28l-26.76,47.88c-7.08,12.48-10.44,25-10.32,37.56a9.53,9.53,0,0,0,6-5.4c6.6-13.92,13.44-27.6,20.52-41.16s13.68-27.24,20-41a320.33,320.33,0,0,1,64.56-14.52l3.36,7a167,167,0,0,1,15.36,44.88,293,293,0,0,0,17.28,58.92,2.15,2.15,0,0,0,.48-1.56A401.71,401.71,0,0,0,490.56,516a109.87,109.87,0,0,0-6.84-19.44c-4.68-10.32-9.24-20.64-13.56-31.08l3.6-.36.48-.84c1.92-4.44,1.08-7.68-2.4-10L466,455c-9-22.68-16.8-45.6-23.64-68.88,1.8-5.4,2.28-10.32,1.44-14.64Zm16.8-126.72c-9.6-13.32-22.8-19.8-39.48-19.56-15,.12-27.6,6.36-37.8,18.48a81,81,0,0,0-18.48,40.68l-1.2,1.56-.12.48A74.59,74.59,0,0,0,372,332.88a29.75,29.75,0,0,0,19.8,14.88A155.69,155.69,0,0,0,448.08,350c13.92-1.8,20.64-8.76,20.16-21l-.48-1.92A104,104,0,0,1,406.32,340c-16.32-1.68-27.84-9.12-34.68-22.44a47.38,47.38,0,0,1-4.44-29.64A302.48,302.48,0,0,0,450.48,289l-1.08-9.72a330.93,330.93,0,0,0-81.48,4.08c4.32-16.92,13.92-29.76,28.8-38.76,12-7.2,24.72-9.24,38.16-6A112.42,112.42,0,0,1,459,247.32Z" transform="translate(-43.12 -30.45)"/></svg>