<svg id="Layer_1" data-name="Layer 1" xmlns="http://www.w3.org/2000/svg" viewBox="0 0 561.6 571.46"><defs><style>.cls-1{fill-rule:evenodd;}</style></defs><path class="cls-1" d="M41.64,24.24c2-3,4.44-2.88,7.08.12C83.52,31.2,108,48.6,122,76.8q13.14,26.28,13.08,62.64c0,21.48-4.32,40.32-12.84,56.64C108.72,221.88,85.56,237.72,53,243.6l-5.28-.24c-.6,12-1.2,22.92-2,32.64-3.48,40.68-6.12,77.52-7.8,110.28l-3.24,49q-2.16,30.42-2.16,50c-.12,11.28-.12,28-.12,50.16q-.9,28.44-6.48,48.6a15.59,15.59,0,0,1-5.52-8.16,31.75,31.75,0,0,1-1-8.64c0-2.4.72-9.72,2.16-22.08,1.44-12.12,2.16-20.52,2.16-25,1.44-20.52,2.16-36.24,2.16-47,0-12.36.72-28.2,2.28-47.52l3.24-47.52c.84-16.2,3-48.6,6.72-97.2q4.14-52.74,4.08-92.16a197.27,197.27,0,0,0-1.08-24V99C39.84,90.36,39,80.64,38.4,69.84c-.36-7.92-.48-17.52-.48-28.92a73.11,73.11,0,0,1,.6-7.8c.48-4.32,1.2-7,2-7.92l.36.24ZM104,68.88C100,62.76,95.28,58.32,89.88,55.8,74.4,48.24,60.12,43.92,47,42.6l-2.16-.24V49.2a70,70,0,0,0,.6,8.4l1,17.52,1.2,17.4v66.6a287.91,287.91,0,0,1,1.08,29.16c0,13.56-.12,26-.48,37.68,33.48-.12,56.76-13.8,70.08-41.16a102,102,0,0,0,10.32-45.12c0-11-1.08-19.92-3.36-26.52-1.08-3.24-5.76-13.08-13.8-29.76C108,76.08,105.6,71.28,104,68.88ZM211.2,72.24c.6,2.28,2.16,12.72,4.56,31.56,2.52,19.92,3.84,32.64,3.84,38.28A148.14,148.14,0,0,1,211,192.36q-11,30.78-32.76,41.76l1.2,4.44c4.08,15.72,8.4,36,13.08,60.6,1.44,11.88,4.2,27.48,8.28,46.56,4.92,23.28,8,38.64,9.36,46q4.14,25,23.4,106.56,17.46,74.34,17.4,78.48a27.29,27.29,0,0,1-.6,5.16,22,22,0,0,1-2,5.4c-5.88-11.88-10.92-26.52-14.88-44-4-19.92-7.2-35-9.72-45.24q-9.9-39.06-18.24-90.12-3.78-23.58-19.92-103.32-10.44-51.3-13.44-67.8a66.69,66.69,0,0,1-21.84,3.48h-1l-1.2,22.56V304q-5.58,23-6.84,57.24l-.6,28.56c-.24,11.52-.6,21.12-1.2,28.68v67.44c-.84,11.16-1.56,28-2.16,50.52-1.08,20.16-3.72,37.08-8,50.88-1.8-1.32-3.24-4.44-4.56-9.36a38.3,38.3,0,0,1-1.44-7.68c0-3.48.84-9.24,2.64-17.4a133.19,133.19,0,0,0,2.76-28.56l1.68-23.16A220,220,0,0,1,133,478V413c.36-26.28,2.4-62.4,5.88-108.36l4.8-66.12A5.84,5.84,0,0,1,142,236a6.83,6.83,0,0,1-.48-3.12l.12-1.8c0-3.72.12-5.76.48-6.36s1.08-.84,2.52-1.08l1.32-27.24v-87.6c1.68-15.36,2.52-28.8,2.64-40.44-.36-13.8-.48-25.8-.48-35.88V31.44a10.11,10.11,0,0,1-2.16-6.24c0-4.68,1-7.56,2.76-8.76s4.56-.72,8.64.84c5.16,2.16,17.52,8.88,37.08,20a49.46,49.46,0,0,1,11.16,17.4C207.12,58.8,209,64.68,211.2,72.24ZM192,55.44c-4.8-4.8-11.4-8.88-19.8-12.36-7.56-2.64-13.08-4.8-16.56-6.36l.12,10.92c0,13.44-.24,24.48-.6,33.24C154.68,93.6,153.72,105,152.4,115v88.56c-.84,5.16-1.56,11.64-2.16,19.32q14.94-2.34,34.2-10.44a23.16,23.16,0,0,0,12.12-10.68,126.14,126.14,0,0,1,5.4-12.84,86.47,86.47,0,0,0,9-23.4,104.7,104.7,0,0,0,2.16-22.92c0-1.8-1.08-10.56-3.24-26.52-2.16-16.44-3.84-28-4.92-34.32Q201.9,65.34,192,55.44Zm154.32-12a20.32,20.32,0,0,1,2,7.92,17.92,17.92,0,0,1-2.64,9,92.73,92.73,0,0,0-9.48-11.52c-7-7.08-14.16-10.68-21.72-10.68q-32.94,0-50.28,51.6a227.08,227.08,0,0,0-11.16,56.4q-.36,7-1.8,51.84-1.44,47.7-1.44,57.6c0,9.72.12,16.68.24,21.12l1.44-.6,1.32,1.68,26.16-1,25.32-1.56,1.2-1a2.68,2.68,0,0,1,1.2-.36,18.5,18.5,0,0,1,2.64,9.36,20.63,20.63,0,0,1-.6,5.28,9.75,9.75,0,0,1-2.64,4.56l-8.88.36-9.48.72-8.28.36-9,.72-19.2-.24.72,3.48v61.68c.84,3,2.28,16.56,4.56,40.44,2.52,28.56,5.16,51.48,7.68,68.88,9,62.64,22.08,94,39,94,8.52,0,15.6-1.92,21.24-5.88a41.44,41.44,0,0,0,11.76-14.16l7.44-16.92c2.88-6.6,5.76-11.52,8.52-14.52,2,1.56,3.24,3.12,3.6,4.92l.12,5.28c0,1.44-1.32,5.16-4.08,11.28a158.11,158.11,0,0,1-10.56,19.92C330,571.8,319.68,581,310.44,581c-19.32,0-32.16-7.32-38.28-22.08a56,56,0,0,1-4.2-17.64l-.72-13c-.6-6.12-2.4-15.12-5.16-26.76-3-12.36-4.8-21.24-5.4-26.88q-8.46-70.38-11.16-108V305c-.24-1.32-.6-8.76-1.2-22.56-.6-14-1-23.16-1-27.36,0-27.84.36-49.56,1-65.16,1.08-28,3.24-52.32,6.6-72.84Q264.78,32.34,305,20.52c14.76.36,26.16,4.56,34.32,12.72A33.55,33.55,0,0,1,346.32,43.44Zm106,9-.12,5.4A8.59,8.59,0,0,1,448,63.6c-.84-.84-1.44-2.52-1.92-5.16a25.5,25.5,0,0,0-2-7.08c-3.24-5.88-11.76-8.88-25.56-8.88q-24.84,0-42.84,41.88A200.54,200.54,0,0,0,362.4,127c-.6,5.64-1.68,12.6-3.24,21.12l-4.08,21.84c-3.24,17.88-4.32,32.16-3.48,43.08l-3.12,63.84a71.21,71.21,0,0,1,13.92-3c15-2,24.6-2.16,28.68-.36a4.13,4.13,0,0,1,2.76,2.88v3.24a18.14,18.14,0,0,1-2.76,9c-11.4,1.32-17.28,2-17.76,2.4-6.72-.36-11.64.12-14.88,1.32a29.23,29.23,0,0,1-10.08,1.92h-.72Q344,367.14,344,385q0,52.2,11.16,90.36,15.3,52.92,52.92,85c14.4.84,27.12-8.4,38-27.72a170,170,0,0,0,10.32-22.2c3-8,4.8-13,5.52-14.76,3.6,1.56,5.4,5.28,5.4,10.92q0,1.62-4.32,12.6c-3.48,8.52-7.08,16.56-11,24.36-11.64,22.92-21.36,34.32-29,34.32q-34.74,0-55.56-41.28A190.73,190.73,0,0,1,355,504.12L348.6,481q-9.9-34-11.16-51.48c-.36-4.68-.36-11-.24-19.08l.36-26q0-29.52,3.84-103.68l4.8-91.8c.84-13.08,3.36-29.28,7.44-48.6,5-22.2,8.64-38.76,10.92-49.68,3.72-17.4,10.44-31.8,20.28-43.2,8.52-10,18.36-16.56,29.4-19.68,10.32-2.76,19.2-2,26.52,2.4Q452.28,37,452.28,52.44ZM575.16,26.28c3.24,6.12,4.68,15.12,4.32,26.76l-1,14.64c-.48,6.12-.72,10.92-.72,14.16q0,11,1.08,15.84V251.16A33.2,33.2,0,0,1,580,256V386.52c.72,13,1.08,32.64,1.08,58.92,0,34.8-.24,57.84-.6,69-1.08,26-3.48,48.84-7.44,68.52-5.16-8.16-8.28-18.84-9.12-32.16-.12-15.36-.6-26.88-1.2-34.44q-3.06-40.5-10-67.32C548.16,431.4,543.6,409,538.92,382l-11.64-66.84c-3-15.48-6.24-38-9.48-67.44q-5.22-47.52-8.64-67.2c-1.2-6.84-2.88-19-5.16-36.36s-4.2-30.48-5.64-39.24c-4-23.52-8.88-39.48-14.64-47.88q-1.08,11.52-1.08,14c0,26.28.84,47.64,2.64,64.32S488,164.88,488,174.12c0,12-.6,29-1.68,51.12s-1.56,39.6-1.56,52.68l.12,23.64c.12,16,.48,28.32,1,36.84.36,6.72,1.44,16.92,3.12,30.6a216.7,216.7,0,0,1,2.28,28.2,71.08,71.08,0,0,1-.72,7.68l-1.44,9.84v53.52c-2.76,24.36-5.16,42.84-7.08,55.44a538,538,0,0,1-10.8,55c-2-1.08-3.6-3.84-4.8-8.4a30.07,30.07,0,0,1-1.2-7.44c0-.84,2.64-15.12,7.8-43.08,5.4-29.4,8.64-48.72,9.6-58.2v-52.8l1.2-5.88a30.82,30.82,0,0,0,1-5.52l-3.24-48.72c-2.16-34.68-3.24-57.84-3.24-69.72,0-21,.48-40.32,1.56-58.08s1.68-33.36,1.68-46.92C477.84,113.52,476,79,476,70a132.3,132.3,0,0,1,1.44-20,21.24,21.24,0,0,1-2.28-4.68,23,23,0,0,1-1.32-7.32,21.9,21.9,0,0,1,.6-4.8c.6-2.52,1.56-3.84,2.76-3.84a11.74,11.74,0,0,1,4.92,1.08q1.26-2.7,2.16-2.52c.72.24,1.2,1.8,1.32,4.68,7.56,6.24,13.8,21.48,18.48,45.6,2,11.16,4.08,25.2,6,42.24L514,157.8l7.32,63.72q4.5,38,8.64,64.32,7,41.94,25.8,128,15.66,77.76,15.6,128.52h.36c1.56-25.56,2.4-43.92,2.76-55.2.12-5.52.12-19.68.12-42.6,0-23.64-.36-41-1.08-52.44V262.44a33.2,33.2,0,0,1-1.08-4.8V105a197.27,197.27,0,0,1-1.08-24c0-14.28.12-23.4.36-27.6A126.67,126.67,0,0,1,575.16,26.28Z" transform="translate(-19.44 -15.82)"/></svg>