<svg id="Layer_1" data-name="Layer 1" xmlns="http://www.w3.org/2000/svg" viewBox="0 0 299.33 209.4"><defs><style>.cls-1{fill-rule:evenodd;}</style></defs><path class="cls-1" d="M202.2,272.88c-10.08,10.32-22.2,13.2-36.24,8.64l-.84-71c16.56.6,29.4,7.68,38.64,21.24Q219.42,255.12,202.2,272.88Zm116.52-48.6,3.36-.12c-1.08-17.76-10.8-25.56-28.92-23.28q-38.34,4.5-54,40.32a151.36,151.36,0,0,0-12.72,63,174.91,174.91,0,0,0,6.48,46,106,106,0,0,0,16.92,35.16,23.23,23.23,0,0,0,16,9.36,73.21,73.21,0,0,0,25.56-.6C309.6,390.24,322.2,380.16,329,364c2.64-6.12,2-12-1.68-17.64l-3.84,5.52v3.6c-17.88,19.2-40,26.4-66,21.48Q232.68,342,233.64,299l55.44-2.88,1.68-4.32a9.6,9.6,0,0,0-.48-7.08l-1.92-3.6A220.74,220.74,0,0,0,234.48,287q4.32-50.58,49.32-73.56c14.16-4.32,25.68-.84,34.68,10.32ZM195.48,204.84a37.41,37.41,0,0,0-22.2-9.84,17.65,17.65,0,0,0-9.12,2.76l-1-2H163l-.72,3.48-2.88,3,1.32,8.88Q154,301.62,155,392.64a30.11,30.11,0,0,0,1.2,7.32l1.2,3.48,7.8-106.32c14,5.88,27.12,4.32,39.12-4.56a22,22,0,0,0,3.84-3.6,34.48,34.48,0,0,0,6.48-10.08l2-6a63.5,63.5,0,0,0,1.92-23.76,65.73,65.73,0,0,0-14.88-35.52A63.78,63.78,0,0,0,195.48,204.84ZM375,194.52c-4.68,5.88-7.56,13.08-8.64,21.72q-7.74,63-21.24,125.16a176.49,176.49,0,0,1-9.84,31.08c-5,11.88-5.16,22.44-.36,31.44a83.89,83.89,0,0,0,8.28-21.84q14.58-62.28,25.92-124.92c1.8-9.6,3.12-19.08,4.2-28.44q1.62,21.06,5,42.12a295.56,295.56,0,0,0,16.08,61.44,9,9,0,0,0,2.64-6.72c6.36-26,13.32-52.32,20.88-79.08,2.28-8.28,4.92-16.44,7.68-24.6l.6,8,14.28,126.6c1.92,17,6,32.4,12.36,46.08a2.34,2.34,0,0,0,1.32-2.4q-2.88-38-8-76.56-8.46-63.54-17.28-126.36c-.48-.12-.72,0-.84.36l-.24,1.2-1.44-3.24a3.32,3.32,0,0,0-1.8,2.16l-12.84,37.56A352.26,352.26,0,0,0,395,313.68c-7.32-38-14-76.08-20-113.88Z" transform="translate(-154.89 -194.52)"/></svg>