<svg id="Layer_1" data-name="Layer 1" xmlns="http://www.w3.org/2000/svg" viewBox="0 0 432.14 365.52"><defs><style>.cls-1{fill-rule:evenodd;}</style></defs><path class="cls-1" d="M198.24,93.12a175.33,175.33,0,0,0-7.08,31.68q-8.46,62.82-21,124.92a187.23,187.23,0,0,1-9.48,31.2,100.1,100.1,0,0,0-7.92,33.36q-5.58-47.7-12.84-96.12c-5.4-37.08-11.4-73.8-17.88-110.4a44,44,0,0,0-2.52-13.92l-.24-1.32-.24.12L118,90.12c-.36.12-.6.36-.6.6-3.12,15.12-6,30.48-8.52,46Q98.4,198.78,86.76,261A1227.73,1227.73,0,0,1,56.28,386.64c-3.12,10.68-6.6,21-10.56,31.2-4.8,12.36-4.56,22.8.6,31.32,5.64-15,10.68-30.36,15-46q17.1-61.74,29-124.68l23.88-125.64,5.4-26.52q7,54.54,15,109c3,21.24,5.76,42.36,8,63.6,1.32,11.88,4.8,22.2,10.44,30.72a2.66,2.66,0,0,0,1.08-2.4l-.12-.48a192.49,192.49,0,0,0,16.08-44.52Q184.38,220,195.48,156.72A247.57,247.57,0,0,0,198.24,93.12Zm1.56,4.8a599,599,0,0,0,5,73.8q8.28,63,15.12,126.36c4.56,42.36,9.72,84.72,15.6,126.84,1.68,11.88,5.28,22.2,10.68,30.72a3.29,3.29,0,0,0,1.44-3.12q-5.4-50.76-13.68-101.64-10.26-62.82-15.72-126.6a1139.46,1139.46,0,0,0-17.76-126.6C200,97.56,199.8,97.68,199.8,97.92Zm189.36,63c-2.4,42.6-4.68,85.44-6.72,128.28s-6.12,85.68-12,128c-1.8,12.36-.24,22.92,4.56,31.92l.6-3.48q33.48,10.62,70.08,5.4l.6-1c3.24-6,2.88-11.64-1-16.92a231,231,0,0,1-68,1.44q8.1-54,11-109.68,2.34-47.88,5.64-95.76,4.32-64.26,2.4-127.44A413.28,413.28,0,0,0,389.16,160.92ZM471,171.6c.84-12.12-5.4-18-18.6-17.64-19.08,8.16-31,23-35.4,44.76A599.94,599.94,0,0,0,404.28,326c.12,5.4,0,10.8-.24,16.2-1.08,22.56,5.4,41.76,19.68,57.6q30.6,8.1,46.56-18.24c5.76-9.48,5.52-16.68-.84-21.72-1,.84-1.44.48-1.56-.84q-.18-.36-.36-.36L466,359c-2,19.32-14,27.72-36.24,25.08a7.68,7.68,0,0,1-6-3.72c-9-15.12-13.44-32.16-13.56-51.12-.12-17.4.48-34.56,1.8-51.6a105.55,105.55,0,0,0,36.36-.6l.48-.84c2.52-5.76,1.56-10.2-2.88-13.2a273.2,273.2,0,0,1-33,4.8,554.44,554.44,0,0,1,9.72-62.76q7.38-34.38,40.08-35.64l5.88,3,2.16-.12ZM355.56,150.24a61.14,61.14,0,0,0-2.76,23.16l.24-1.32a11.15,11.15,0,0,1,.6-3.24v13a377.59,377.59,0,0,0,2,38.76q7.2,67.68-19.92,128.76Q323,378.48,292.68,379.56A63.06,63.06,0,0,1,269,361a45.2,45.2,0,0,1-8.76-18.84,320.67,320.67,0,0,1-5.88-89.76c1.56-21.36,4.08-42.6,7.44-63.72a192.18,192.18,0,0,0,1.68-47.4c-6.84,14.76-10.92,31.2-12.36,49.32-3.48,42.12-5.16,84.6-5,127.68.12,35,15.12,61.32,45.24,78.72,20.76.84,36-8.28,46-27.12q30.6-58.68,25.56-125.88a473.76,473.76,0,0,1-.48-64c.84-12.48-1.32-22.68-6.36-30.6Z" transform="translate(-42.28 -90.12)"/></svg>