<svg id="Layer_1" data-name="Layer 1" xmlns="http://www.w3.org/2000/svg" viewBox="0 0 536.18 393.12"><defs><style>.cls-1{fill-rule:evenodd;}</style></defs><path class="cls-1" d="M248.64,361A258.52,258.52,0,0,0,243,430c1.08,21.84,12.24,34.32,33.48,37.56a28.64,28.64,0,0,0,8-8.52q26.1-43.74,12-91.8a17.22,17.22,0,0,0-3.84,4c.24,6.72.72,13.56,1.56,20.4q4.32,35.28-18.24,60c-16.92-1.68-25.56-10.92-25.92-27.84a213,213,0,0,1,1.2-29,156.21,156.21,0,0,0,.36-35H251A3.75,3.75,0,0,0,248.64,361ZM216.36,192.24a465.66,465.66,0,0,0-.84,95.88q4.86,50.22,54.48,62.64a10.36,10.36,0,0,0,8.52-1.68q42.3-29,50-80.64a287.41,287.41,0,0,0-9.24-126.6c-2-6.6-3.72-13.2-5.16-19.92q-7.38-33.84-40.32-37c-24.12,8.88-39.84,26.28-46.92,52.32A355.49,355.49,0,0,0,216.36,192.24Zm-37-101.16L179,83.64l-.6.12A219.9,219.9,0,0,0,167,125.64q-10.62,62.82-23.76,125.16a255.72,255.72,0,0,1-8.76,31,76.13,76.13,0,0,0-2.28,8.16,216.88,216.88,0,0,0-2.4-28.92c-2.52-17.28-4.68-34.56-6.24-52q-6.12-63.9-12.72-127.32l-1,.12-.12-2a167.37,167.37,0,0,0-12,45.6Q89.7,188.76,78,251.64,66.3,314.28,55.92,377.28A558.35,558.35,0,0,1,41.76,440c-3.48,12.24-2.76,22.56,2.4,31.08A733.53,733.53,0,0,0,60.84,395q10.44-62.82,21.48-125.88L105,143.4c1.44-8,2.64-16.08,3.48-24.12.36,10.56,1,21.12,1.8,31.56,3,42.6,7.32,85.08,12.72,127.44a90.23,90.23,0,0,1,.72,16.08c-.24,9,2.28,15.24,7.44,18.72l.72-7.44a42.6,42.6,0,0,0,2.28,8.28,311.31,311.31,0,0,0,16.56-57.12q12.06-63,24.84-125.76a181.8,181.8,0,0,0,3-19.2c-.36,14.16,0,28.56,1,43.32q4.5,63.54,12.24,126.36,7.92,63.72,13.68,127.68a215.44,215.44,0,0,0,15.36,63.72c3.72-9.72,4.08-20.52,1.08-32.16l-.36,1.68A19.64,19.64,0,0,1,221,447a372.08,372.08,0,0,1-7-41.64c-4.68-42.36-9.84-84.6-15.36-127Q190.44,215.22,187,151.32a538.12,538.12,0,0,0-7.32-63.6Zm109.44,12.84a8.78,8.78,0,0,1,2.4,3.24l.72-.6A70.12,70.12,0,0,1,305.4,128.4a351,351,0,0,1,18.24,67.8q11.7,71.1-32.76,125.28a19,19,0,0,1-9,6.12c-16.2,4.68-31.32,1.08-45.48-11a112.72,112.72,0,0,1-16.08-48.48A309.28,309.28,0,0,1,233.88,141c8-24.6,24.24-38.52,48.6-42a11.88,11.88,0,0,1,7,1.8l.84.72Zm117.6-.84,2.4.24a22.61,22.61,0,0,0,7,4.08,1,1,0,0,1,.6.6,10.28,10.28,0,0,0,1.2,4.92,343.82,343.82,0,0,1,31.8,99,478.58,478.58,0,0,1,3.36,129c-1.2,10.92-2.52,21.84-4.08,32.64-4.2,30.12-18.48,53.76-43.08,70.92-21.72,15-38.16,11.16-49.32-11.28a701.39,701.39,0,0,1-5.76-103.08q.72-48.42,0-96.6a341.07,341.07,0,0,1,15.24-107.16,71.19,71.19,0,0,0,7.56-11.28,27.61,27.61,0,0,1,12-12l14-.48Zm-26-13q-33.66,40.32-34.2,94.68-.72,64.44-2.16,129.12L343,378.84A201.63,201.63,0,0,0,354.36,450c3.84,10.92,11.16,17.4,22.08,19.44,15.24,2.76,28.56-1.32,40.2-12.48a64.07,64.07,0,0,0,10.8-13.32Q461.1,390.36,463.92,326a554.56,554.56,0,0,0-9.12-126.36,698.6,698.6,0,0,0-22.44-86.88,4.85,4.85,0,0,0,2,1.8l-.36-2.76-.36-.24a28.49,28.49,0,0,1-5.16-6.84l-.72-.84a9.11,9.11,0,0,0-1.32-4.08l-.48-.72-.72-.84-2-1.08-.72-.6-1-.84a2.89,2.89,0,0,1-1.8-.48C409.56,88.2,398,85.8,385.32,88l-2.4,1.2-1.92.72Zm192.72,15.36c-2.52.72-3.72,2.64-3.72,5.76q-.9,58.32-4,116.16c-2.28,42.84-4.92,85.68-7.68,128.28L554.4,404l-8.88-42.12c-6.84-31.08-13.08-62.4-19-93.72q-4.32-23.4-10.08-46.44Q501.18,160,488.16,97.92l-.84-.72-1.08-.84V95c-1.92,2-3,5-3.24,8.88-2.52,42.6-4.56,85.44-6.12,128.28q-2.34,64.62-6.12,129c-1.32,21.72-3.36,43.2-6.36,64.68-1.8,12.36-.12,22.92,4.8,31.92a855.52,855.52,0,0,0,10.08-106.32Q481.44,287.4,484,223.2c1.32-33.36,2.16-66.48,2.28-99.36a121.22,121.22,0,0,0,3.36,16.44q14.76,54.18,24.24,109.44,10.62,62.82,24.72,125,7,31.14,11.52,62.52c1.8,11.64,5.4,21.48,11,29.76a3,3,0,0,0,1-1.68,208.62,208.62,0,0,0,1.32-28.8,101.31,101.31,0,0,0,.48-10.44q-.72-64.44,3.12-128.28l8-128A325.88,325.88,0,0,0,573.12,105.48Z" transform="translate(-39.61 -79.8)"/></svg>