<svg id="Layer_1" data-name="Layer 1" xmlns="http://www.w3.org/2000/svg" viewBox="0 0 299.11 210.48"><defs><style>.cls-1{fill-rule:evenodd;}</style></defs><path class="cls-1" d="M291.12,242.16a107.85,107.85,0,0,0-30.84,14.4q-13.86,25-9,54.48c2.28,13.8,9,24.36,20.4,31.44,12.36,7.8,22.92,6.36,31.56-4.32q25.38-31.68,9.36-71C307.92,255.48,300.84,247.2,291.12,242.16Zm3.24,14.16a63.3,63.3,0,0,1,17.16,43.56c.36,16.92-7.08,27.48-22.32,31.44-12.36,3.36-21.48-.6-27.36-11.76-7.56-14.52-8-29.16-1.68-43.92,5.16-12.12,14.4-19.44,27.48-22.2l1.8,1.68ZM188.28,197.76l-1.08-5-19.56,111.6c-3.72,21-7.44,42-11.4,63-2.28,11.76-1.8,22.2,1.2,31.2a448.07,448.07,0,0,0,10-48.36q9.54-62.82,20.16-125.16c.36,6.72,1,13.44,1.56,20q2.52,25.74,2.52,51.84,0,18.72,7.2,31.32l.36-.48.48.48c4.68-16.56,8.52-33.36,11.64-50.4a469.37,469.37,0,0,1,12.12-50.52,71.31,71.31,0,0,0,2.88-11.88,352.14,352.14,0,0,0,3.72,62q7,47.34,11.88,95.28c1.32,11.88,4.2,22.08,8.88,30.48a440,440,0,0,0-7.44-79.8,1033.33,1033.33,0,0,1-15.72-124.2l-.12-3.24a188.18,188.18,0,0,0-15.84,53.52,292.25,292.25,0,0,1-12.84,52.8c-2.52-35.88-5.64-71.52-9.24-107.16Zm174.24,49.08a21,21,0,0,0-14.88,5q-27.18,22-25.68,59.28c.6,14.52,7.32,25,20.16,31.08,11.76,5.64,22,3.72,30.72-5.52a56,56,0,0,0,15.6-40.08Q388.26,263.7,362.52,246.84Zm-2.16,10.56c13,11.16,19.92,25.08,20.76,41.88.84,17.76-6.6,28.08-22.44,30.84-18.6,3.24-28.44-4.56-29.64-23.52-1.2-18.36,4.92-33.72,18.48-46.08A10.35,10.35,0,0,1,352.8,258Zm82.92,8.4c-6.84,14.16-18.12,21.6-34.08,22.32l-7.08-.12-2.64-82c16.68-1.56,30,4.8,40,19C448.68,238.32,450,252,443.28,265.8ZM396.6,199.08l-.36,3.36a5.26,5.26,0,0,0,.84,2.28l.6,1h.24c-1.08,21.36-1.56,43.32-1.44,65.76a628.91,628.91,0,0,1-2.88,64,269.46,269.46,0,0,0,1.44,64,602.59,602.59,0,0,0,6.72-77.64l.36-21.6a53.94,53.94,0,0,0,22-1.56c13.8-4,22.8-12.84,26.88-26.52a69.85,69.85,0,0,0,2.16-30.72c-4.2-28.2-20-43.68-47.28-46.44l-5.4.36-.6.12-1.08,1.08-.24-3-.12,3.36-1.08.84-.72.72Z" transform="translate(-154.81 -192.72)"/></svg>