<svg id="Layer_1" data-name="Layer 1" xmlns="http://www.w3.org/2000/svg" viewBox="0 0 565.05 493.23"><defs><style>.cls-1{fill-rule:evenodd;}</style></defs><path class="cls-1" d="M180.72,56.28q-5.4,32.94-7.68,67.32l-8.4,125.88Q160.14,313.2,153,376.2q-7.38,64.08-15.84,127.92c-.84-15.24-1.92-30.48-3.12-45.72-1.2-15.72-2.76-31.32-4.68-46.92-4.92-41.88-9.36-84-13.08-126.12L104.52,157.92A569.85,569.85,0,0,1,102,93.84c.12-7.32-1.92-12.24-5.88-14.52-4.68,30-9.72,60-14.88,90.12Q70.44,232.26,60.36,295c-2.16,13.2-4.56,26.4-7.2,39.48q-12.6,63.72-27,127.08a203.88,203.88,0,0,0-4.56,64,178.67,178.67,0,0,0,4.92-22.32q9.72-63.18,23.4-126t24-126.6q10.26-64.08,21.84-127.44l4.2,52.8q5.4,62.82,11.64,125.64l10.92,110.76q6.3,63.9,11.16,128c.84.12,1.2.12,1.32,0a95.9,95.9,0,0,0,10.08-34.2c4.44-41.88,9-83.88,13.92-125.88s8.76-84.36,11.52-126.72q4.14-64.08,9.36-127.44c.12,16.8,1,33.6,2.28,50.28a1167.85,1167.85,0,0,0,16.92,125.76c3.48,18.36,6.48,37,9,55.56Q216.54,422,229.8,485.28a475.64,475.64,0,0,0,17.52,62.88,7.48,7.48,0,0,0,1.8-6.24q-9.9-60.84-22.68-121.32c-3.24-15.48-6.12-31-8.64-46.68L197.4,247.8a591.17,591.17,0,0,1-7-63.36c-2.52-43.08-5.52-85.8-9.24-128.16Zm92.76,46.08c4.2,20,7.68,40.32,10.2,61.08q3.78,31.5,8.28,63,8.82,63-9.72,122.28c-3.72,12.12-11.88,17.76-24.24,16.92a14.39,14.39,0,0,1-9.48-4.68q-19.44-22.14-20-53-.9-47.7-4-95.76A388,388,0,0,1,234.84,93.6l.48-.84c3.72-8.16,9.6-13.08,17.88-14.88a8,8,0,0,1,6.36,1.68,25.47,25.47,0,0,1,10.68,20.52l2.28,3h.72Zm-5.16-24c-3.48-8.52-10-12.24-19.44-11.28a16.23,16.23,0,0,0-6.72,4.8,83.27,83.27,0,0,0-19.68,47.52,946.82,946.82,0,0,0-3.72,96,1005.89,1005.89,0,0,0,9,126.6c2.28,16.8,10.32,29,24.36,36.72,8.28,4.56,15.12,3.12,20.76-4.2,18.36-23.88,27.12-51.48,26.52-83-.84-42.84-3.36-85.44-7.32-127.56A325.29,325.29,0,0,0,273,80.4a10.37,10.37,0,0,0-2.52-.84l-1-.12-.6-.12Zm200,348.6-1.8,51.84q-1.62,37.62,12.36,70l4.32-.36a1.47,1.47,0,0,0,1.08-.48,15.07,15.07,0,0,0,3.36-4.8A11.59,11.59,0,0,1,490.8,539a30.85,30.85,0,0,0,1.44-6.6,7.64,7.64,0,0,0-.6-4,6.93,6.93,0,0,0-5.16,1.08l-.84.48-2.64,3.6a7.12,7.12,0,0,1-2.16,1.56,280.88,280.88,0,0,1-7.08-88.92l.36-6.12A258.37,258.37,0,0,0,510,433.68l.36-.72a12.35,12.35,0,0,0-1.2-11.4h-.48a2,2,0,0,0-1.92,1.92,160.63,160.63,0,0,0-32.52,6.12l-.72-13.32c-1.44-16.68,3.12-30.84,13.56-42.36a7,7,0,0,1,6.36,1.32,21.18,21.18,0,0,1,5.76,6.24l.36-.84c2-10.68-2.16-16.68-12.48-18a25.46,25.46,0,0,0-11.4,15.24A201.26,201.26,0,0,0,468.36,427Zm-36.72-58.44q.36,54.54.24,110.4a456.08,456.08,0,0,0,4.32,63.84,311.87,311.87,0,0,0,4-55q-.54-61-6.12-119.52l18.6-1.92.84-3.24a11.88,11.88,0,0,0-.84-6.48,1.93,1.93,0,0,0-.84-.48l-3.72-.6c-15.24-2-28.56,1-39.84,9l-.36,3.12a7.64,7.64,0,0,0,1.8,5.64A182.61,182.61,0,0,1,431.64,368.52Zm67.8-146.64a137.45,137.45,0,0,0-2.4,54.24,265.79,265.79,0,0,0,10.08,43,837.86,837.86,0,0,1,29.64,122c1.2,7.56,2.76,14.88,4.68,22.2q10.62,41.58-16.56,70.2l-9.48-.72a27.29,27.29,0,0,1-10.56-12.12,219.17,219.17,0,0,1-12.12-32.88,36.66,36.66,0,0,0-1.2,16.2,93.86,93.86,0,0,0,13.32,35l6,4.56,4.32,3.48c14,.84,23.16-6.12,27.24-20.76a161.31,161.31,0,0,0,4.08-70.68Q536.76,393.72,521,333.36a45.26,45.26,0,0,0-2.64-7.44,179.23,179.23,0,0,1-17.4-81c.36-19,10-26,28.8-21.12l.6.48a22.92,22.92,0,0,1,5,5.76,4.8,4.8,0,0,0,2.76,2.4,6.14,6.14,0,0,0,1.2-2.52l.36-3.12v-1.68l-.24-1.56-.48-1c-5.16-9.36-13.44-13.68-25-12.84A18.91,18.91,0,0,0,504,216.12C502.44,217.92,500.88,219.84,499.44,221.88ZM430.8,74.4q-37.62,56.7-11.88,121.92a334.81,334.81,0,0,1,20.28,76.32,99.3,99.3,0,0,1,.48,23.88A26.57,26.57,0,0,1,427.8,316a38.35,38.35,0,0,1-13.8,5.52c-3.84-8.64-6.24-18.72-7.32-30.24l-.84-2.76c-4.92,16.44-3.36,31.8,4.56,46,20.28.24,32-10.8,35.28-33A131.12,131.12,0,0,0,446.76,274a126.77,126.77,0,0,0-4.2-26,279.25,279.25,0,0,0-11.88-33.6c-3.6-8.52-6.72-17.16-9.48-25.92a157.06,157.06,0,0,1-6.6-34.08A171.33,171.33,0,0,1,418.8,99l12.72-12.72L434,86l4.32,2.16,10,15.12c2.4-13.32-2.64-22.56-15-28Zm-47.16-7.32c-.72-.12-1.08,0-1.08.6.12,42.36,1,85.08,2.28,128.28s3.12,86.16,5.52,129a1007.25,1007.25,0,0,1-1.44,129.12,148.37,148.37,0,0,1-21.84,67.44c-8.28,13.32-19.68,16.56-34.32,9.72a5.88,5.88,0,0,1-3.6-4.32,403.42,403.42,0,0,1-11-105.12q1.62-64.08-.6-128.16-2-64.8-6.12-129.12a432.4,432.4,0,0,1,.48-64.8c1.08-12.12,0-22.56-3.12-31.56A378.67,378.67,0,0,0,306,132.24q2.7,64.08,5.76,128.28,3.06,64.44,1,129.12A1087.13,1087.13,0,0,0,316,518c.84,11.16,5.88,19.68,15,25.8,13.92,9.24,25.8,7.2,35.76-6.24q25.92-35.1,28.92-79.92a1018.73,1018.73,0,0,0,.6-128.4q-3.6-64.26-4.92-129c-.84-42.72-2.4-85.2-4.44-127.44l-.6-1A8.33,8.33,0,0,0,383.64,67.08ZM560,84a494.26,494.26,0,0,0-13.56,108.36c-.6,40.2.24,79.92,2.52,119.4.72,11.4,5.88,17.4,15.48,17.88l6.12-6.84a28.53,28.53,0,0,0,7.08-16.8,7.83,7.83,0,0,0-2.52-1.92l-1-.24a33.54,33.54,0,0,0-4.56,4.68,51.23,51.23,0,0,1-6.84,7.56h-3l-.84-.24a28.72,28.72,0,0,1-3.48-11.4c-2.52-30.6-3.72-61.32-3.6-92.4a68.57,68.57,0,0,0,18.48-1.8l2.28.84h.48a8.27,8.27,0,0,0,1.8-3.36q1.62-6.3-2.88-10.44L568.2,197,552,199.8l.6-23.64c.36-13.32.6-26.52.72-39.72.12-20.28,5-38.28,14.88-54.12a7.51,7.51,0,0,1,4.68.48,34.94,34.94,0,0,0,11.28,3.84,8.5,8.5,0,0,0,1.32-2.52l.36-.72a6.61,6.61,0,0,0-2.16-5.52,71.61,71.61,0,0,0-8.76-7.2l-6.72-.36A24.29,24.29,0,0,0,560,84Z" transform="translate(-20.8 -56.28)"/></svg>