<svg id="Layer_1" data-name="Layer 1" xmlns="http://www.w3.org/2000/svg" viewBox="0 0 492.19 375.24"><defs><style>.cls-1{fill-rule:evenodd;}</style></defs><path class="cls-1" d="M204.48,86.64c-4.44,15.48-8.16,31.44-11.16,47.64q-11.52,63-27,125.28a106.17,106.17,0,0,1-5,15.48A51,51,0,0,0,159,281.4c-3.24-23.16-6.84-46.32-10.8-69.24-6.12-35.16-12.48-70.08-19.32-104.76a56.21,56.21,0,0,0-1.8-23.76l-2.52,2.88c-.36-.12-.48,0-.48.36v.36a28.78,28.78,0,0,0-3.84,10q-12.06,62.46-25,124.92Q82.32,284.76,71,347.64a368.67,368.67,0,0,1-16.56,61.68c-6,16.68-6.84,32.52-2.52,47.4,4.68-14.28,9-29.28,12.72-45.12q13-54.18,23.64-108.48L112.8,177.84c3.84-19.56,8.28-38.88,13.32-58.08A752.79,752.79,0,0,0,137.4,200.4a898.5,898.5,0,0,1,13.32,94.92c.6,7.32,3.12,12.12,7.56,14.52a5.57,5.57,0,0,0,1.32-3.36l.24-1.56.84,1.68a250.57,250.57,0,0,0,15.24-48.48l25.92-125.28a199.14,199.14,0,0,0,4.32-47A1.18,1.18,0,0,0,204.48,86.64Zm2.16.72a450.72,450.72,0,0,0,6.72,80.4q10.8,62.82,22.8,125.28,12.06,63.18,19.56,127c1.44,12.12,5.28,22.56,11.64,31.08a4.86,4.86,0,0,0,2.52-4.8,230.7,230.7,0,0,0-4.8-37.08q-7.74-34.74-14.52-69.84-12.42-62.82-21.36-126.12-9-63.54-22-125.88Zm176.52,80.52q-12.78-32.76-45.48-36.36l-.12.12-.36.24-.84.48-.84.72-.24.84-.36.84-.24.84-.24.84q-32.76-2.7-50.64,26.4A121.45,121.45,0,0,0,266.16,216a433.63,433.63,0,0,0,6.6,127.8c4.2,21,16.2,34.92,35.76,41.52a15.88,15.88,0,0,0,11.28-.24q62.82-24.66,75.12-91.32Q406.62,229,383.16,167.88ZM352,350.64c-12.48,12.84-27.36,18.24-44.52,16.32a17.24,17.24,0,0,1-13.2-7.8q-25.38-37.62-23.76-85.08c.72-21.48,1.8-43,3.36-64.2,2.4-34.44,20.76-54.6,55.2-60.24a49.59,49.59,0,0,1,8.4,1.68,29.24,29.24,0,0,0,9.12,1.08l2,1,.48-.24c8.52-.12,15.72,4.92,21.6,15A163.35,163.35,0,0,1,392,233Q399.78,301.62,352,350.64Zm151-253.44A457.73,457.73,0,0,0,489,145.8Q474.42,208.26,461.16,271c-7.8,36.84-15.24,73.68-22.08,110.64-1.44-16.2-3-32.4-4.8-48.6q-7-63.72-19.68-126.48t-24.48-125c-3.6,5.16-4.68,11.64-3.24,19.68q11.7,63.54,24,127.2a1224,1224,0,0,1,17.64,125.76c1.8,21.12,3.24,42.24,4.08,63.48.48,12.24,3.6,22.44,9.48,30.72a2.2,2.2,0,0,0,1.44-2.4l-1.68-29c2.76-12.36,5.28-25.08,7.56-37.92q11.16-62.82,24-125.4t27.72-125a54.8,54.8,0,0,1,6.12-15c7.08-11.76,8.28-22.2,3.6-31.2A53.11,53.11,0,0,0,502.92,97.2ZM539,160.68l2.4-1.32c-.72-10.68-6.24-17.52-16.56-20.76l-2.16-.6Q491,163.74,490.44,207.24c-.24,20.64-1.2,41.4-2.76,62.16a653.47,653.47,0,0,0-1.44,81,17.1,17.1,0,0,0,1.92,7.44,30.31,30.31,0,0,0,4.44,6.6,23,23,0,0,0,8.52,6.6c8.28,3.72,16.2,2,23.64-5.28,10.92-10.56,12.84-21.6,5.52-33.24l-17.52,24.36q-30.06-7.56-24.6-44.16c2.4-16.08,4.08-32.28,4.92-48.72l30.24-1.8a14.76,14.76,0,0,0-1.08-15.36L493.8,252.6q-2.52-56.52,30.24-96.36c1.8-2.16,4.2-2.28,7.44-.48A62.77,62.77,0,0,1,539,160.68Z" transform="translate(-49.25 -81.48)"/></svg>