<svg id="Layer_1" data-name="Layer 1" xmlns="http://www.w3.org/2000/svg" viewBox="0 0 577.44 572.04"><defs><style>.cls-1{fill-rule:evenodd;}</style></defs><path class="cls-1" d="M564.72,500.4a16,16,0,0,1-1.32,6.72v.24l-7.8-5.76c-4.44-3.24-7.44-4.8-9.24-4.8q-32.22,0-45.72,20.88a49.86,49.86,0,0,0-5,10.56c4.2-2.52,13-4.92,26.52-7.2,14.28-2.52,24.72-3.84,31.32-4.2l1.2,2.4a12.08,12.08,0,0,1,.36,3.24,9.2,9.2,0,0,1-.48,3.24l-.84,2.28c-14.28,1.2-25.44,2.52-33.72,3.84-4,.72-11.52,2.28-22.56,4.8a11.56,11.56,0,0,1-3.36-2.4,41.92,41.92,0,0,0-.72,7.8c0,5.64,2.76,10.44,8.16,14.64,8.28,6.36,21.84,9.48,40.68,9.48,10.56,0,18.48-3.12,23.76-9.48a38.56,38.56,0,0,0,6.72-12l1.44,2.28a9.69,9.69,0,0,1,.36,3c0,5.64-2.64,11.16-7.8,16.68-6.36,6.6-14.4,10-24.36,10-22.44,0-37.8-5.16-46.32-15.36a29.17,29.17,0,0,1-6.48-19.08c0-15.48,4-28.2,11.76-37.92a47.81,47.81,0,0,1,25.92-16.44c9.36-2.28,18-2.16,25.8.48S564.72,494.88,564.72,500.4ZM187.2,37.2a24.19,24.19,0,0,1-1.08,7.68V96.12Q185,105.84,185,125.64q0,87.12,31,269.28,5.94,35.64,21.12,119.28c6.48,35.4,9.72,55.2,9.72,59.64,0,3.72-1,6.36-2.76,7.92l-19-106.32c-7.44-41.64-13.56-77.16-18.24-106.32q-19.44-120.78-26.16-212.76V94.68c.72-3.72,1.08-9.48,1.08-17l-.24-13.8q-7.92,36.18-17,85.32-4.5,24.66-15.36,85.68c-2,11.76-4.2,26-6.24,42.72l-5,42.6q-6.48,51.84-16.32,85.2c-.36,0-.84-.36-1.32-1.08a9.21,9.21,0,0,1-1.2-2.16V345.24l-4.92-85.56q-4.86-85.32-4.8-105.12a278.2,278.2,0,0,1,1.08-28.44V66.84l1.08-4.08v-17l-.24-.48Q79,150.9,55.8,307.68,52,334.14,37.56,439.08q-11,80.64-19.44,130.56l-1.32.24a16.89,16.89,0,0,1-1.68-8.16q0-7,14.4-111.72,13.32-96.3,22.2-156.12Q63.6,212.7,75,159.48,91,84.42,112.8,27.6c1.56,1.32,2.52,5.16,2.88,11.28L115.8,52c0,9.24-.36,16-1.08,20.28v59.28c-.72,4.92-1.08,12.6-1.08,23.16l4.92,95c3.24,62.28,4.8,103.32,4.8,122.88v.24q7.56-34.74,14.28-86,6.84-57.6,10.92-86.52c1.56-11.16,4.32-25.68,8.52-43.44,4.68-19.56,8-33.72,9.84-42.6l7.92-43.08c3.24-17.64,6.72-31.8,10.56-42.48C186.6,30.6,187.2,33.48,187.2,37.2ZM472,345.24a9.4,9.4,0,0,1,.24,2.52c0,8.28-2.4,32.64-7.32,73.32q-7.2,60.48-10,72H452.4c-2.52-25.32-4.2-44.52-5.28-57.6-1.8-21.84-3-41.4-3.6-58.56l-.24-.48c-1.32,12.72-2.88,31.8-4.8,57.24A569.56,569.56,0,0,1,431,490.92h-1.32c-.12-1.68-.24-4.32-.24-7.8,0-3.72,2-25,6-63.72,4.2-41,6.6-65.4,7-73.08l1.32-.72c1.92,8,3.12,19.08,3.6,32.88.6,16.44,1.32,27.72,2.16,34q1.8,12.78,2.88,33.12l1.92,34.2.6.24q4.68-23.94,7.56-68.4c2.28-32.76,4.32-55.56,6.24-68.16Q471.42,343.62,472,345.24ZM355.08,268.92c0-23.16-.36-40.8-1.08-52.68a295.22,295.22,0,0,0-6.24-46.08q-9.9-44.64-45-103.32-26.28-44.1-49.2-7.92c-4.92,7.8-9.72,18.6-14.4,32.28-2.4,7.32-4.92,15.36-7.56,24.36-2,12.24-4.8,29-8.16,50.28l-8,51.24V309.6l-.6,2.88a13.54,13.54,0,0,0-.48,3.6c0,2,1.68,12.6,4.92,31.92q6.12,36.18,13.2,67.2,22.14,96.66,43.08,96.72,30.06,0,49.2-36,15.48-29,23.28-80.28a686.92,686.92,0,0,0,6.84-82.92Zm4.32,42a732.21,732.21,0,0,1-6.48,87.72q-7.56,55.26-23,86.76c-12.84,26.16-29.28,39.24-49.56,39.24q-24.3,0-39.84-46.92a305.24,305.24,0,0,1-9.12-35l-4.08-21.84c-6.6-27.48-10.92-46.08-13-55.56-2.88-14.4-4.32-30.84-4.32-49.2a51.9,51.9,0,0,1,1.08-12.24V210.48c.84-17.16,3.72-38.28,8.64-63.12Q228.18,103.8,239.64,74q14-36.54,29.64-43.44,18.54-8.1,37.56,27,31.5,67.86,42,109.68Q359.46,209.58,359.4,269Zm60.84-75c0-2.28,1.08-4.44,3.12-6.72,2.28-2.4,3.84-1.44,4.68,3l.36,13.32q0,11-1.08,15.84v98.28c-1.08,10.2-1.68,29.4-1.92,57.72-.24,24.84-1.44,44-3.48,57.6-1,6-1.8,15.48-2.64,28.56q-1.26,18.9-2.88,28.8c-3.72,22.2-13.56,40.68-29.4,55.2-15.72-2-25.56-9.24-29.64-21.6A49.71,49.71,0,0,1,355.08,551l.24-11.4q0-24.48,9-120.6l9.36-96.24V272.52c.72-3.72,1.08-10.68,1-20.64-.12-8.76.72-15.72,2.52-20.76,2.4,1.56,3.6,3.36,3.6,5.64q0,12.78-.36,19.44a134.06,134.06,0,0,1-2.88,21.12v49.56l-9.6,95.52q-8.82,92-8.88,117.24l-.12,9a37.74,37.74,0,0,0,1.44,9.72c2.4,7.56,8.52,13.68,18.48,18.6Q407.1,566.7,414.36,524a265.68,265.68,0,0,0,2.88-33c.6-13.44,1.08-21.48,1.44-24,2.16-13.08,3.24-31.44,3.36-55,.12-27.72.6-46.44,1.44-56.28v-99a32.76,32.76,0,0,0,1.08-9.72l-.24-7.32-1.68,1.32a5.84,5.84,0,0,1-1.92-1.92A7.66,7.66,0,0,1,420.24,235.92Zm87.12,1.68-3.72-.6-11.28-.24h-.72c.36,4.8.6,10.08.72,16l.12,26.76q0,24.84-6.12,132.72Q479.16,537.12,473,575.52c-1.44-1.2-2.4-3.48-3-7l-.24-5q0-2.88,8.4-102.36,8.82-103.5,10-139.2V236.52l-7.32-.6-46.2-.48-.6-1.2-.24-2.52c0-2.16.48-3.6,1.32-4.2,31.2.24,47,.48,47.4.84l6.24.12.36-.48a3.2,3.2,0,0,1,1.44-1.2l.36,1.8c9.72.36,16.08,1,19.08,1.92,1.32.48,2.16,1.08,2.28,1.68v1.92l-.36,3.24a1.47,1.47,0,0,0-1.08.48ZM399.72,34.08c13.56,4.32,23.28,17.76,29.4,40.2a187,187,0,0,1,5.76,47.88,240,240,0,0,1-3.48,50.76q-8.64,47.7-34.68,47.64l-17.64-.24c-8.88-6.72-14.64-16.2-17.28-28.56-1.44-6.48-2.16-16.8-2.16-31.08A436.19,436.19,0,0,1,364.8,91c4.68-29.4,11.88-48.36,21.6-57.12ZM397.2,49.8l-9.72.24c-8.28,2-14.76,17.4-19.2,46.2a418.08,418.08,0,0,0-4.92,64,125.69,125.69,0,0,0,2.88,27.6c2.88,12.6,7.44,20,13.68,22.2q34.74,4.68,46.08-36.6a146.8,146.8,0,0,0,4.8-31.56l.24-20a150.19,150.19,0,0,0-5.16-39.36C421.44,65.88,415,54.72,406.68,49l-1.32,4.92a10.21,10.21,0,0,1-3.72-2.28A6.37,6.37,0,0,0,397.2,49.8Zm70.68,54.6a46.9,46.9,0,0,1,5.16,5.76,11.2,11.2,0,0,1,1.32,5.64l-.24,2.88-.84,2a5,5,0,0,1-2.64-2.52,18.85,18.85,0,0,0-3.84-5.64l-10.32.24c-7.08,7.08-12.6,22.32-16.32,45.48-2.52,14.88-3.72,26.52-3.72,35A13.82,13.82,0,0,0,439.8,202c2.4,3.24,5.16,4.8,8.28,4.8,7.8,0,14.64-1.92,20.4-5.88a64.57,64.57,0,0,0,9.12-7.68l.72,1.32.36,2.76c0,2-2.4,5.28-7.2,10q-8.1,7.92-14.76,7.92-16.92,0-21.6-10.8a22.55,22.55,0,0,1-1.56-7.8l.24-4.08c0-9.72,1.44-23,4.44-39.84,4.44-25.08,10.56-41.16,18.48-48.48ZM536,128.16l-.6,15.84-1.56,23.52V198.6l.72,1.32.36,2.76-.24,2.4-.84,1.08V245.4l-3.12,47.4c-1.32,19.08-3.12,35.28-5.52,48.48l-.48.48-.84.84a13.72,13.72,0,0,1-2.52-7.08c0-1.08,1.32-14,4-38.64l5.88-55.56v-34.8l-15.72-.24V242.4c-.24,2.76-1.32,20-3.24,51.6-1.32,21.24-3,38.4-5.16,51.6l-1.08.24a16.81,16.81,0,0,1-.72-3.36l-.12-3.6c0-9.12,1.2-27.24,3.48-54.24l4.08-46.8V206.16h-.24l-.6-1.08-.24-2.52v-2a2.33,2.33,0,0,1,1.08-1.68v-6.48l-1.08-3.24v-56l2.52-13.44c1-5.4,1.8-9.36,2.4-12l1.44,2.52a7.14,7.14,0,0,1,.72,3.24,78.57,78.57,0,0,1-4.32,24.36v47l1.08,3.24v9.72c3.24-.6,8.4-.48,15.72.48v-34.8l1.44-28.08c.6-11.28,1.44-19.8,2.28-25.44C535.68,113.64,536,119.76,536,128.16Zm26.76-5.88-1.68-.24a8.08,8.08,0,0,0-3.36-.84c-8.4,0-13.44,11-15.24,33.12-.48,7-.72,16.32-.84,28.2,0,13.32-.12,21.48-.24,24.24l-.36,8.64a25,25,0,0,1,5-2.28c6.12-2.52,10.08-3.36,11.64-2.64l.72,1.32a8.06,8.06,0,0,1,.36,2.76c0,1.56-5.52,4.56-16.56,9.24h-1.56l-1.8,30.6c-.48,9.36-.72,22.2-.72,38.4l.12,19.56c.24,11.88,1.08,17.76,2.64,17.76,6.6,0,11.76-4.8,15.24-14.52a60.38,60.38,0,0,0,2.52-10.2l.6-4.92a26.18,26.18,0,0,0-1.08-5.28,26.18,26.18,0,0,1-1.08-5.28l.24-2.52.6-1.08c1.68,1.32,2.88,3.72,3.48,7.32a33.9,33.9,0,0,1,.6,6,79.3,79.3,0,0,1-3.36,20.76c-3.24,12.12-7.56,18.12-13.2,18.12s-8.88-6.6-10-19.8a145.77,145.77,0,0,1-.36-15.12l.36-10.44c0-19.2.12-33.36.48-42.48l1.44-27.12h-.12l-.48-1.2-.24-2.52a3.29,3.29,0,0,1,1.2-2.28l1-19,.84-23.52c.36-9.24.84-17.16,1.32-23.52l1.32-11.4A108.21,108.21,0,0,1,544.2,128q.54-2.16,3.6-6.12a33.55,33.55,0,0,1,6.36-6.6c6-4.68,9-3.48,9,3.72ZM574,125.52l-.6,20.52a223.63,223.63,0,0,1-2.64,25.56V303.12c-.24,1.68-.84,8.28-1.68,19.8l-1.44,14c10.92-2.28,17.76-13.68,20.64-34.44a204.16,204.16,0,0,0,1.56-24.72l-.12-18.48q-.18-48.24-1.08-71.76a174.37,174.37,0,0,0-1.92-17.4c-1.32-9.24-2.16-15.36-2.4-18.36-.72-6.6-3.48-14.28-8.28-22.92ZM572.4,115.2l.48-2a10.64,10.64,0,0,1,1,3.48c7.68,7.68,12.36,18,14.16,31.08.48,3.48,1,9.84,1.32,19.08a124.59,124.59,0,0,0,1.92,18q0,24.3,1.08,74.76l.24,21a202.59,202.59,0,0,1-1.92,27.84c-3.48,23.28-12.12,36.24-25.68,38.76a10.29,10.29,0,0,1-1.56-2.4h-.6v-1.32l-.24-1v-1.56l-.12-1.44a18.91,18.91,0,0,0-1-5.28v-4.92l1.68-.12,1.56,1L568,298.44V166.92l1.56-27.24a169.16,169.16,0,0,1,1.8-18.48c-1.56-2.52-2.28-4-2.28-4.32l.12-2.4a8.85,8.85,0,0,0,.72-1.32Zm-29-96.84a5.57,5.57,0,0,1,.84,2.16,7.23,7.23,0,0,1-.72,2.88,6.05,6.05,0,0,1-2.76,3.36l-49.92.36L488.16,55.8c-2,20.52-3.72,35-4.92,43.56A5.78,5.78,0,0,1,481.08,95a29.65,29.65,0,0,1-.24-4.56c0-5.64,1.08-18.36,3.24-38,1.2-10.92,2.28-19.44,3.12-25.32l-45,.24-1.08,2.4a14.54,14.54,0,0,1-4.44-3.36A7,7,0,0,1,435.36,22a8.39,8.39,0,0,1,.48-3.24,6.81,6.81,0,0,1,1.44-2.16L540.36,16l.84-.48A9.94,9.94,0,0,1,543.36,18.36Z" transform="translate(-15.12 -15.48)"/></svg>