<svg id="Layer_1" data-name="Layer 1" xmlns="http://www.w3.org/2000/svg" viewBox="0 0 521.59 322.2"><defs><style>.cls-1{fill-rule:evenodd;}</style></defs><path class="cls-1" d="M325.08,254.64a68.4,68.4,0,0,1-8.64,42.24c-8.28,14.52-20.52,22.44-36.6,23.64-9.24,1-15.84-3.48-19.68-13.44a125.11,125.11,0,0,1-8.88-45.84,118.37,118.37,0,0,1,8.4-44.16l2.52-1.68,1.08-2.4c14.76-10.44,28.44-9.84,41.28,1.8A61.8,61.8,0,0,1,325.08,254.64ZM256.8,204a184.37,184.37,0,0,0-13,49.44,117.71,117.71,0,0,0,1.32,37.8,91.79,91.79,0,0,0,18.36,39.84q15.3,19.26,37.2,3.24a73.91,73.91,0,0,0,27.36-37.2,110.48,110.48,0,0,0,5.76-42.36,79.21,79.21,0,0,0-14.64-42.12A116,116,0,0,0,295,187.8l-12.6-1-6.24,8.28-1.8.24-5.28.72a12.09,12.09,0,0,0-3.84,1.68l-3.6,2.76Zm-59.4-80.52-.24-7.44c-9.24,34.32-17.76,69.48-25.32,105.48a277.16,277.16,0,0,1-8.64,31.08,76.83,76.83,0,0,0-4.68,28.68c-3-14.28-5.16-28.8-6.72-43.32q-6.66-63.9-18.48-126.48l-.24.12-.48-1.68-.6.12A535.88,535.88,0,0,0,106.2,187q-16,62.46-30.12,125-7.2,31.5-17.16,61.92c-5.4,16.2-6.84,31.8-4.56,46.8q1.26-.36,1.44-1.08,17.64-61,31.2-123.24,13.5-62.46,31.68-124.08A248.89,248.89,0,0,1,130,141.48l2-5c.84,11.4,1.8,22.92,2.88,34.44A1216.41,1216.41,0,0,0,154,297.36a12.18,12.18,0,0,0,5.16-8.52l.48,3.36a2.7,2.7,0,0,0,2.64-2q15.48-55.08,28.68-111.48a236.53,236.53,0,0,0,6.48-54.24q4,43.56,11.28,87.12,10.62,62.82,21.72,125.76a595.27,595.27,0,0,1,7.8,63.48c.84,11.64,3.24,22.08,7.44,31.32a2.85,2.85,0,0,0,1.08-1.44,184.42,184.42,0,0,0-1.92-56.76q-11.52-62.82-21.36-126-10.08-63.54-24.84-124.8C198,123,197.52,123.12,197.4,123.48Zm299.4,32.64c-10.44-16.44-20.76-16.2-31.08,1a116.12,116.12,0,0,0-14.64,38.16c-2.76,13.8-4.8,27.84-6.36,42S442,265.68,441,280q-1.62,23.22-1.08,46.44c.36,16.2,6.84,29.16,19.68,38.88s23.4,4.56,31.92-15.12c3.12-7.2,6.12-14.52,8.88-22.08l-8.52-.48c-4.92,16-15.12,24.36-30.6,25.32-18.6-24-23.88-52.44-16.08-85.2a363.32,363.32,0,0,0,8-47,180.36,180.36,0,0,1,17.52-61.56l23.76-1.32ZM387.6,197.28a2.28,2.28,0,0,1,.12,1.56,6.85,6.85,0,0,0,2.16,7.8c28.32,10.2,38.88,32.28,31.56,66.48a85.72,85.72,0,0,1-19.68,39.24q-10.08,11.52-25.2,8.64c-18.48-3.48-29.16-16.32-31.92-38.52a89.12,89.12,0,0,1,12.12-58.8A45,45,0,0,1,378.84,205Zm-.12-4.32c-16.56,1-29,9.36-37.44,25.08a94.83,94.83,0,0,0-11.52,42,151,151,0,0,0,4.8,45.84,53.79,53.79,0,0,0,25.2,33.48,54.39,54.39,0,0,0,35-11.16A52.12,52.12,0,0,0,422,302.4a255.2,255.2,0,0,0,9.12-36A87.57,87.57,0,0,0,428,222.24c-6.24-18.84-18.36-29.4-36.24-31.68Zm178.8-28.68q-.54,42.84-3.36,85.44A336.11,336.11,0,0,0,524,251.88l.84-10.68a936.18,936.18,0,0,0,.6-128.4q-4.86,10.62-5,25.2-.18,64.08-6.48,127.32-6.3,64.08-13.56,128.16-2.16,18.18,4,32.4a4.31,4.31,0,0,0,2.88-3.84c2.28-17.64,4.44-35.4,6.24-53.28q5.58-53.82,10-108a119.84,119.84,0,0,0,38.28,5.76l-2.28,25.08q-6.12,64.62-10,128.28a4.46,4.46,0,0,0,3.6,2.16,294,294,0,0,0,9.48-53.16q4.68-51.48,8.4-103.32l.12-.48a15.23,15.23,0,0,0,.72-11.64l.84-12a1017.31,1017.31,0,0,0,.48-128.28Q566.46,136.38,566.28,164.28Z" transform="translate(-53.32 -109.92)"/></svg>