<svg id="Layer_1" data-name="Layer 1" xmlns="http://www.w3.org/2000/svg" viewBox="0 0 302.79 209.64"><defs><style>.cls-1{fill-rule:evenodd;}</style></defs><path class="cls-1" d="M199.8,195.84a194.45,194.45,0,0,0-8.28,31.92q-11.16,65-28.2,129.24a128.75,128.75,0,0,1-5.16,15.84c-4.56,11.4-6,22.2-4.2,32.16a213,213,0,0,0,12.12-33q17.82-63.9,30.84-128.4,4.86,59.76,4.68,121c-.12,11.88,1.8,22.44,5.64,31.56a198.43,198.43,0,0,0,14.64-40.44q15.84-64.44,34.56-127.56A1044.63,1044.63,0,0,0,267.6,337.8a171,171,0,0,1,2,32.28q-.54,18.18,5.76,31.68a119.82,119.82,0,0,0,2.4-45.48c-4.2-31.8-7.56-63.72-10.32-95.76a435.54,435.54,0,0,0-10-64.08,360.56,360.56,0,0,0-13.68,42.12q-16.38,64.08-34.2,127.8L208,323.64c-1.56-43.08-4-85.92-7.2-128.28C200.16,195.48,199.92,195.6,199.8,195.84Zm171.72,24q1.62-15.12-5.76-23.4a474.4,474.4,0,0,0-5.64,91.8,165.56,165.56,0,0,1-10.68,64.68c-8.28,21.72-23.4,28.92-45.12,21.84a155.1,155.1,0,0,1-1.68-51.12,566.41,566.41,0,0,0,1.68-127.44c-1.92.6-2.88,2.28-2.88,4.8,0,7.44-.12,14.76-.48,21.84q-2.7,63.36-6.48,126.72l-.84,16.2c-1,19.08,7.92,28.8,26.64,29.4a9.89,9.89,0,0,0,6.48-1.92q37.26-29,38.52-77.76Q366.54,267.42,371.52,219.84Zm17.16-14.4c-.6,43-2.88,85.68-7.08,128.16-1.08,10.68-2.4,21.48-3.72,32.28-1.56,12.6,0,23,4.92,31.56q4.86-35.1,7.8-71.28l1.2-15.24,1.08,1.92.36-.36c6.36-9.72,12.48-19.44,18.6-29.28A126.31,126.31,0,0,0,418,317.88a261.8,261.8,0,0,1,10.8,49.32c1.44,11.88,4.92,22,10.32,30.24a4.46,4.46,0,0,0,1.8-4,470.71,470.71,0,0,0-25.2-116.64q21.06-34.92,40-71.16l.24-.84a6.79,6.79,0,0,0-.48-4.08l-.6-.72-1.08-.84a1.33,1.33,0,0,0-1.68.6l-43.56,68.28a182.35,182.35,0,0,1-11.76,16.32,47.12,47.12,0,0,0-3.84,5.64,910,910,0,0,0-.6-92.28C390,199.32,388.8,201.84,388.68,205.44Z" transform="translate(-153.21 -195.36)"/></svg>