<svg id="Layer_1" data-name="Layer 1" xmlns="http://www.w3.org/2000/svg" xmlns:xlink="http://www.w3.org/1999/xlink" viewBox="0 0 599.4 601.17"><defs><style>.cls-1{fill:none;}.cls-2{clip-path:url(#clip-path);}.cls-3{fill-rule:evenodd;}</style><clipPath id="clip-path" transform="translate(-0.6 4.89)"><rect class="cls-1" x="0.6" width="594.72" height="596.4"/></clipPath></defs><g class="cls-2"><path class="cls-3" d="M338.4,550.56a10.59,10.59,0,0,1,2,3.72l-.24.84.24.12-1.68.12L332.28,554a44.49,44.49,0,0,0-6.48-1.32c-5.16,0-9.36,3.48-12.6,10.56l-.72,1.56,14.76-1.08,14-.48.6.48a6,6,0,0,1,.12,1.92,8.56,8.56,0,0,1-.24,2.28l-.84,1-11.76,1.32-5.52.84-13.44-.24a19.6,19.6,0,0,0-.6,4.2,12.14,12.14,0,0,0,2.4,6.84,9.63,9.63,0,0,0,8.4,4.68c16.44,0,26.4-1.2,30-3.6a8.83,8.83,0,0,0,2.52-3.12,7.19,7.19,0,0,1,3.24-2.76l.72.84a5.17,5.17,0,0,1,.36,2.4q0,3.06-7.92,7.56c-5.64,3.24-10.92,4.8-16,4.8q-20,0-24.84-8.28a10.54,10.54,0,0,1-1.44-6.12l.36-3.72a19.21,19.21,0,0,1,.48-3.84l-.36-.6a9.2,9.2,0,0,1-.12-2.16,7.88,7.88,0,0,1,.24-2.28l.84-.6h.72a40.3,40.3,0,0,1,3.6-8.88c5.4-10.08,13-12.84,22.68-8.16A6.46,6.46,0,0,1,338.4,550.56ZM348.6,497l.24-.36.72-.84c7.32,12.24,13.32,26.76,17.76,43.44l5.28,21.48q3.24,14,5.4,22l.12.48.24.6c1.32-4,2.88-10.8,4.68-20.4,1.68-8.88,3.48-15.84,5.52-20.76l1.08-.84c3.12,4.2,5.88,10.44,8.4,18.72,3,10.44,5.4,17.52,7.08,21.12,1.32-8.76,4.68-25.08,9.84-49,4.8-22,7.2-33.24,7.2-34,0-1.08-.48-1.56-1.32-1.32l-1.44.6,3.12-3,1.8-2.16,1.92,1.56a5.4,5.4,0,0,1,.48,2.76c0,1.44-2.76,14.76-8.4,39.84-6.6,29.28-10.56,48-12.12,56a126.11,126.11,0,0,1-8.4-20c-3-9.36-5.4-16.2-7.08-20.64l-.84-.48c-.72,2.64-2.52,10.08-5.52,22.32a187.38,187.38,0,0,1-6.6,22.08l-7.92-24.12a196,196,0,0,1-6.48-25.2c-.84-5.4-3.6-14.52-8.28-27.24-4.44-11.88-6.6-18.84-6.6-21Zm-71.52-74.76-.24-2.16.84,1.56Zm-.84-11.16c-10.32,6.48-18.48,19.08-24.36,37.68a141.33,141.33,0,0,0-7,42.84c0,11.52,1.32,21.12,3.84,28.8,5.28,16.08,15.24,24.12,30,24.12,26,0,43.8-9.36,53.52-28.2,6.36-12.12,9.48-30.12,9.48-53.88a69.73,69.73,0,0,0-.72-11.64,23.53,23.53,0,0,0-3-7.2,254,254,0,0,1-15.72-23c-2.16-3.48-6.36-6.48-12.48-9a53.55,53.55,0,0,0-17.76-3.84c-6.36-.36-10.92.6-13.8,2.76a7,7,0,0,0-1.92,2.28Zm0-14c.6-1.92,1.92-2.64,4.08-2.16C283.56,396,290.88,398,302.4,401c8.52,2.16,13.8,4.08,16.08,5.76,4.2,3.12,9.48,9.48,15.84,19,7,10.32,10.44,17.76,10.44,22.44l-.24,18A205.88,205.88,0,0,1,340,501.84q-11.34,50.58-44.52,50.52c-22,0-37-6-44.88-18-5.64-8.52-8.4-22.56-8.4-41.88A159.31,159.31,0,0,1,247.44,451q6.48-23.94,20.16-40.32a64.89,64.89,0,0,1,5.4-4.44c2-1.44,3-3,3-4.8A26.89,26.89,0,0,1,276.24,397.08ZM248.4,110.16l4.08-3,.24-.24q-22.32,13.5-33.24,77.64a542.79,542.79,0,0,0-7.56,91.2l.24,13.08c.36,9.24,1,17.76,1.92,25.44,2.88,24,8,36,15.36,36q39.06,0,58.44-72.72a363.89,363.89,0,0,0,12-74.76c0-25.44-2.4-46.92-7.2-64.56Q279.9,91.44,249,110.64ZM175.92,4.56,174,13.8v6.84c0,5.16.12,8.88.24,11V81.24c1.44,12.6,2.88,28.2,4.2,46.68l3.12,47.28q4.14,57.6,12.48,94.2v46.2q2.52,40,15.24,154.68Q221,578.1,221,580.68a16.12,16.12,0,0,1-1.8,7.68c-4-7.68-6.48-18.48-7.32-32.4l-.84-17.28a133.62,133.62,0,0,0-1.92-16.8c-1.92-9.72-3.6-20.76-4.92-33-1.08-9.48-2.16-20.88-3.24-34.44-1-12.84-3-35.28-6.12-67.08q-4.14-42.48-5.76-66.84V273.36q-4.32-22.68-12-113-7.2-85.14-7.2-102.36L170,30.72l-3.48,14.4c-6.84,28.08-11.16,47.28-12.84,57.72-2,12.24-4.56,28.56-7.32,49l-6.72,49.08q-4.32,28.44-12.48,97.92C123,334,119.28,362.4,116,384.36v3a85.58,85.58,0,0,1-.48,10.56l-.72.48-1.2.84-.36-2.76a37.59,37.59,0,0,1-1.56-5,28.42,28.42,0,0,1-1.08-5.4l.84-6.72q-8.1-72-20.64-210.48-9.9-108-12.6-144.6l-2.4,8.88q-7.56,28.44-10.08,48.6c-1,8-2.28,20.16-4.08,36.6L57.6,154.8c-2.28,19.08-4.8,43.32-7.56,73l-6.72,73-7.2,73Q32,416.34,28.2,446.88c-1,7.44-2.4,21.36-4.32,41.88Q21,521,19.2,536.64c-4.32,37.08-9.12,55.56-14.52,55.56a3.58,3.58,0,0,1-3.84-2.64,16.56,16.56,0,0,1-.24-3q0-5.22,6.48-34.2c4.68-21,7.44-34.2,8-39.72,1.8-9.72,3.6-22,5.16-36.6l3.84-36.48q11.16-91.8,15.6-146.88l6-73.68q3.6-42.84,7.32-73.8,8.82-76.14,24.24-134l-.12-4.8a13.56,13.56,0,0,1,.6-4.2c.6-1.32,1.44-2,2.52-1.92L80.4,0C82,3.72,82.8,6.48,82.8,8.28l-1.2,4Q89.7,92.7,102,225.72q8.46,91.08,11.88,131.16,27.54-247.5,56.76-344c.72-9.84,2-15.24,3.84-16.08l-.12,4.32.12-.48,1.08,1.2A8.06,8.06,0,0,1,175.92,4.56Zm112.68,100c.84,2.4,2,6.36,3.6,12,1.32,5.16,2.52,8.88,3.6,10.92a261.26,261.26,0,0,1,6.48,38.28,348.14,348.14,0,0,1,1.92,37.56A490.75,490.75,0,0,1,291.48,284q-19.26,77.22-52.32,77.28c-15.48,0-25.2-14-29.4-42.12a197.85,197.85,0,0,1-2-29.28l.36-13.8.12-40.44a238.71,238.71,0,0,1,1.68-28.44q2.52-19.62,18.72-83.52A40.37,40.37,0,0,1,239.52,104c7.8-7.8,18.6-12,32.16-12.6C279.36,91.08,285,95.4,288.6,104.52ZM525.48,345.36c14.88,0,24.72-5.64,29.64-17a37.46,37.46,0,0,0,2.88-12l.12-6.24c0-15.6-5.52-30.84-16.68-45.6a108.26,108.26,0,0,0-11.52-13.08l-.72-.6q.36,7,.36,16.92,0,14.94-2.16,42.84c-1.32,15.36-2.52,27-3.6,34.8Zm-154.8,23.52c-5.16,5.76-9.24,16.56-12.12,32.4a201.57,201.57,0,0,0-3.24,35.52c0,12.24,1,21.6,2.76,28.2,3.24,11.64,9.72,19.68,19.44,24.36,16,1.08,28.56-11.76,38-38.76a201.55,201.55,0,0,0,8-31.8,139.52,139.52,0,0,0,2.28-22.2c0-4-1.32-9.36-4.08-16.08a63,63,0,0,0-11.64-19c-5.52-5.88-11.4-8.64-17.52-8.28C385.32,353.88,378,359,370.68,368.88Zm53.4,1.68c3.36,7.32,5,16.08,5,26,0,2.28-.72,8-2.28,17.52a335.69,335.69,0,0,1-7.32,34.32Q406,497.22,386.4,497.16l-10.32-.24c-12-9.24-19.32-19.32-22.08-30a58.59,58.59,0,0,1-1.56-14.76l.12-15.72c0-15.24,1-28.32,3-39,2.76-15.24,7.56-28.08,14.64-38.52l.48-.84a27.44,27.44,0,0,0-4.8,1.44l-.6-.6a54.3,54.3,0,0,0,12.6-7.68,46.17,46.17,0,0,1,8.52-6.12h15.12C412.2,352.56,419.64,361.08,424.08,370.56Zm-73-65.52.72-.48q2.34,2.7,3.24,15.12l.24,13.56.24,17.52a64.43,64.43,0,0,1-1.68,14.88q-4,14.94-22.68,32.76-39.06,4.86-39-52.08c0-4.44.72-12.24,2-23.4,1.56-13.32,3.12-21.48,4.8-24.6l.6,1.32.24,2.76-2.76,19.8c-1.8,13.56-2.76,21.48-2.76,24a80.84,80.84,0,0,0,3.6,25.2c4.2,13.08,11.76,19.68,22.44,19.68l11-.24c10.44-10.32,16.8-20.16,19.32-29.52a52.57,52.57,0,0,0,1.8-13.32V333.36l-.72-10.92c-.6-6.84-1.2-11.64-1.68-14.28l.6-2.76Zm23.16-58.68c0-2.16-.72-5.52-2-10a97.31,97.31,0,0,0-5.64-14.64c-6.24-12.72-13.08-19.44-20.52-20a15.41,15.41,0,0,1-1.92,5.16,6.73,6.73,0,0,1,.24-2.52l.36-2.64v-.24c-16,6.12-25.92,14-30,23.76A36.15,36.15,0,0,0,312,238q-.18,4.32,0,12.6c0,10.08,1,18.36,2.76,24.84,3.72,13.68,11,20.52,21.84,20.52,14.4,0,25-8.16,31.8-24.36a86,86,0,0,0,4.8-17A52,52,0,0,0,374.28,246.36Zm1.32,10.2a119.4,119.4,0,0,1-4.92,19.32c-6.36,18.24-15.12,27.36-26.52,27.36-17.88,0-29-8.16-33.48-24.6a63.88,63.88,0,0,1-1.92-17.88l.48-10.2c0-16.92,3.48-30.48,10.56-40.68,6.36-9.24,14.16-14.16,23.28-14.64S360,199,366.36,207.48c7.08,9.48,10.56,22.44,10.56,39.12A77.67,77.67,0,0,1,375.6,256.56Zm78.72,40.92c0-2.4.6-3.72,1.68-4.08l.48,2,.6-1.2a23.32,23.32,0,0,1,1.92,7.68l.12,3.48c2.4,8.4,5.4,18.24,9.12,29.4l15.12,44.88Q498.48,424.5,501.12,442l.48-2.76c.6-4,1.08-6.48,1.44-7.8V368.88c-.72-5.88-1.08-15.24-1.08-28V317c.24-5.4.48-9.36.72-12,.6-4.68,1.92-7.92,4.2-9.72l.84,1.8.24,2.76a86.36,86.36,0,0,1-1.56,10l-1.68,9v43.92L505.8,366v71.4c-.36,1-.84,4-1.68,8.88a39.62,39.62,0,0,1-2.64,9.84,13.25,13.25,0,0,1-2.4-4.44l-1-2.88.12-.84q-12.42-34.74-22.68-65.4-12.24-37.08-17.4-59.76v58.32c.12,9.72.6,24.36,1.32,43.8A53.8,53.8,0,0,1,458,436.44a109.84,109.84,0,0,0-2,15.36l-.6.36a2.37,2.37,0,0,1-1.32.72,31.48,31.48,0,0,1-1.92-10.2l.48-6.24.36-7.92.84-.36.48,7.08c.6-6,.84-14.88.84-26.64-.12-13.8,0-23.16.24-28.08v-71.4A78.78,78.78,0,0,1,454.32,297.48Zm70.44-52.8.24-1.08a16.85,16.85,0,0,1,3.48,0v-.24l.12.24q14.58,1.44,24.12,26.64a141.34,141.34,0,0,1,6.12,22.68,94.12,94.12,0,0,1,1.92,17c0,10.68-1.08,18.84-3.24,24.36-4.92,12.84-15.24,19.2-31,19.2q-6.84,0-7.56-.72a3.84,3.84,0,0,1-.6-1.56l-.48-2.88.6-3.24h2.88v-.24c0-16.68.6-33.72,1.8-51.36,1.08-16,2.64-30.72,4.44-44.16l-3-2.76Zm-126.6-46.92a17.64,17.64,0,0,1,3.36-3.12c5.88-1.8,11,.84,15.48,8a46.56,46.56,0,0,1,3.72,8.16,17.3,17.3,0,0,1,1.2,4.44c-2.4,4.8-4.92,8-7.44,9.72l8.76,11c5.64,7.32,8.4,11.28,8.4,11.88,0,1.8-.12,2.16-.24,1.2l-.36.72c-3.12-2.28-7.56-7.32-13.44-15.12l-6.12-8.52-1.2.12-7.2-.12-.24,1.44L400.2,252l-.84,1.44-2-1.56a5,5,0,0,1-.6-2.64c0-4.92.72-12.6,2.16-23.28l-.24-.12V224a10.45,10.45,0,0,1,.12-2.28l.12-.24h.6c1.2-8.16,2.4-15.36,3.72-21.48H404l.36,1.2.12,2.52c0,4.8-.36,10.68-1,17.76l6.12-.72.12-.12.48-.36.12.24a23.31,23.31,0,0,0,4.32-1.8c3-1.68,4.44-3.36,4.44-5.16s-1.08-4.44-3.24-8c-2.52-4.2-5-6.24-7.56-6.24-4.56,0-7.32.48-8.4,1.32a18.88,18.88,0,0,1-1.92,3.48l-.36-1.8a16.16,16.16,0,0,1-.12-2.64A4,4,0,0,1,398.16,197.76ZM396.48,47.88,397.32,71c.36,9.36.72,16.92,1.32,22.8l1.8-.48,3.24-.6,18.72.36.72,1.08.36,2.52v.48a16.81,16.81,0,0,1,.72,3.36l.12,3.48c0,4.56-.72,12.24-2,23.16s-2,18.6-2,23a44.71,44.71,0,0,1-1.92,11.88l-1.08.24a8.37,8.37,0,0,1-.72-2l-.12-2.88c0-6.36,1-16.32,2.76-30l.24-1.92-4,1a37.63,37.63,0,0,0-8,2.52l.12,12.36-.48,5.4a28.78,28.78,0,0,1-1.68,6.36l-1.08.36-.36-2c-1.68,3.24-5.4,9.36-11,18.12-9,14-14.64,24.24-17,30.48-3.48-3.72-8.64-11.52-15.36-23.4q-9.72-17.1-9.72-19.8a9.2,9.2,0,0,1,.12-2.16l.36-.72c4.32,4.2,8.76,10.08,13.2,17.76l10.32,19.2c2.88-4.68,7.32-12.6,13.2-23.52,5.4-9.72,10.68-17,15.84-22.2l.48-13.68v-2.28a3.79,3.79,0,0,1-.6-2.52,6,6,0,0,1,.72-3.12l-.12-12.84-.6.72q-2.7,2.16-11.88,2.16h-1l.36,3.48.6,8L390.24,154l-1.08.24c-.36-5.4-.6-13.32-.6-23.88l.12-16.68L375,113.4l-.36-.72a9.2,9.2,0,0,1-.12-2.16,18.62,18.62,0,0,1,.12-2.76l.12-.6,27.84-1.68V105a2.78,2.78,0,0,1,1.68.84,4.47,4.47,0,0,1,.6,2.64l-.12.84h.36c.84,2.28,1.56,6.36,1.92,12.36q3.42-.9,13-1.44,1.62-13,2.16-19.8l-10.32.48L398.28,102A8,8,0,0,1,395,96.6a56.25,56.25,0,0,1-.24-6.24l.6-42.48Zm60.6.12a15,15,0,0,1,5.4,3.72,7,7,0,0,1,2.16,4.56l-.24,4.08-.48.48-.6.84L460,57.6c-1.8-1.8-4.32-2.64-7.56-2.64-8.52,0-14.64,20.88-18.6,62.52l2-.84A62.17,62.17,0,0,1,447.72,114c11.4-1.32,17.16.24,17.16,4.8a8.06,8.06,0,0,1-.36,2.76l-1.2,1.8c-1.32-.36-5.76-.36-13.2,0l-12.84.84-4.08-.36c-1.8,20.64-2.76,41.28-3,62l-.12,3.12a18.58,18.58,0,0,0,.12,4.56c.84,4,3.12,6,7.08,6,17.52,0,29.64-5.28,36.36-16a37.26,37.26,0,0,0,4.68-11.88l1-7.2.36-.48,1.2-.6c.84,1.32,1.32,3.48,1.32,6.48a34,34,0,0,1-1.44,6.84,73.16,73.16,0,0,1-5.16,13.32c-6.6,12.6-15.48,19-26.4,19-12.36,0-19.68-3.48-22.08-10.56a16.06,16.06,0,0,1-.72-7.68l.6-4.56c0-11.88.36-24.48,1.2-37.92s1.8-26,3.24-38.16l1.8-18.6c.84-7.8,1.92-14.28,3-19.56l2.16-9.6a32.2,32.2,0,0,1,4.92-10C447,47.28,451.68,45.84,457.08,48ZM581.52,8.28a7.67,7.67,0,0,0-4.8-1.56c-5.88,0-10.68,4.56-14.28,13.56l-.36,1h.84l17.4,1,.6.48A6,6,0,0,1,581,24.6a9,9,0,0,1-.24,2.4l-.84.84L562.2,27.6c-1.08-.6-1.8-1-2-1.08a27.34,27.34,0,0,0-1.56,8.4q0,1.62,5.4,6.48c3.6,3.24,6,4.92,7.08,4.92a14,14,0,0,0,9.48-3.48L584.28,39c2,2,3,3.12,3,3.36q0,2.88-5,6.84C579,51.72,576.48,53,574.56,53a16.64,16.64,0,0,1-14.76-8.16q-3.6-5.58-3.6-9.72,0-13.86,5-22.68A22.51,22.51,0,0,1,572.4,2.4a15.74,15.74,0,0,1,11.16-.6c3.48,1.08,5.16,2.88,5.16,5.52,0,1.8-.12,2.52-.36,2.4l-.24.36-.48.48A12.82,12.82,0,0,1,581.52,8.28ZM530.4-.84c10.2,5.64,18.36,16.32,24.72,32.28l-.6,2.88a12.48,12.48,0,0,0-1.44.6l-2.64.48c-.36,0-1.32-1.56-3-4.56a99.36,99.36,0,0,0-6.12-10.08C534.36,10.92,526.44,6,517.44,6,499.68,6,487,15.12,479.28,33.24A81.35,81.35,0,0,0,473,61.68q0,31.68,19.8,68.64c4.56,8.4,11.4,19.68,20.4,33.84l23.28,37.2Q565.68,250,580.2,295.8,600,358.62,600,434.64q0,31.14-.36,39.24a206.34,206.34,0,0,1-5.88,40.68q-10.44,42.12-50.52,62.64a126.33,126.33,0,0,1-32.16,11.52A121,121,0,0,1,486,591.6q-40.86,0-52.2-26.76A48.86,48.86,0,0,1,430,546.36l.6-8.64c0-1.44,1.32-6.24,4.08-14.4L439,509.64h.36l.72.6-1.92,7.08a50.77,50.77,0,0,0-1.68,7.44,12.63,12.63,0,0,0,1.32,4.32,11.79,11.79,0,0,1,1.2,4.32,34.54,34.54,0,0,1-1.08,5.88,32.63,32.63,0,0,0-1.08,5.88,36.83,36.83,0,0,0,.72,5.4,47.56,47.56,0,0,0,3.6,10.8c4.68,10.2,11.88,15.36,21.6,15.36L501,576.6c8.76-.36,15.72-1.44,20.76-3.12,4.56-1.56,10.68-4.92,18.36-10l31.2-20.64a31.07,31.07,0,0,0,13.44-17.16,74,74,0,0,0,2.4-9.84l1.8-9.48a216.48,216.48,0,0,0,5.4-37c.12-3.12.24-14.88.24-35.28q0-71.28-19.68-131.52-14-43-43.2-92.16l-23.16-37.8Q495.42,151.44,488.4,137q-19.62-39.42-19.68-75.36,0-22.5,9.72-40.32c6.12-11.16,14-19,23.52-23.16C511.8-6.24,521.28-5.88,530.4-.84ZM371.28-.72l1.08-1c2.64,5.88,4.2,13.56,4.8,23l.36,23.52a355.81,355.81,0,0,1-5.76,54.48q-9.54,51.3-30.24,51.36c-16.92,0-27.36-8-31.08-24.24-1.32-5-1.92-11.52-2-19.56-.12-9-.36-14.16-.48-15.24q-1.8-13.14-2.52-29.88c-.36-7.8-.48-17.64-.48-29.76,0-9.24.12-15.24.48-18a53.26,53.26,0,0,1,4.44-17,21.49,21.49,0,0,1,1.08,6.84l-1.68,11.64a134.93,134.93,0,0,0-1.56,16.44,446.1,446.1,0,0,0,3.48,56q7,53.46,24.24,53.52,23.76,0,33.48-47.76a241.5,241.5,0,0,0,4.8-48.12L373,30.12c-.6-9.72-1.2-17.4-1.92-23L369.24,9l-2,2h-.84a22.85,22.85,0,0,1,2-5,18.17,18.17,0,0,0,2.28-6.24Z" transform="translate(-0.6 4.89)"/></g></svg>