<svg id="Layer_1" data-name="Layer 1" xmlns="http://www.w3.org/2000/svg" viewBox="0 0 307.25 210.11"><defs><style>.cls-1{fill-rule:evenodd;}</style></defs><path class="cls-1" d="M325.8,196a1213.9,1213.9,0,0,0-6.12,122.52A325.81,325.81,0,0,1,316.44,367c-1.68,12.12-.24,22.8,4.44,31.8a15.55,15.55,0,0,0,3.6-9.6c1.08-21.6,2-43.2,2.88-64.92,1.56-43.32,1.2-86.16-1.08-128.28Zm-130.32.6-.12-1.68q-.9-.18-1.08.36A451.83,451.83,0,0,0,181,246.48,1036.61,1036.61,0,0,1,147.6,370.32c-4,12-3.6,22.44,1.2,31.44a96.37,96.37,0,0,0,8-19.8q17.1-62.1,32-124.32A242.2,242.2,0,0,0,195,217.08a215.25,215.25,0,0,0,3.6,30c3.36,17.52,6.6,35.16,9.6,52.8A101.06,101.06,0,0,0,218,330.36a9.84,9.84,0,0,0,2.52-8.88l-.36-2.88c8.76-29.88,18.12-60,28.08-90.6l.24-1q6.66,56.16,14.16,112.2,4.5,32.58,11.16,62.88c1.8-.84,2.64-2.4,2.64-4.68A544,544,0,0,0,271,325.08q-8.82-61.38-19.68-121.44A40.17,40.17,0,0,0,250,197a15.72,15.72,0,0,0-4.32,7.56,601.08,601.08,0,0,1-19.2,58.8A141.67,141.67,0,0,0,217.56,302c-5.64-35.64-12.6-70.92-21.12-105.6ZM405,286.32c17.76,1.2,29,10.56,33.84,28.2a86.74,86.74,0,0,1,.36,45q-4,15.12-19.08,21.6c-14.76,6.48-29.16,6.84-43.44,1l-2.76-1.32a685.63,685.63,0,0,0,4.44-90.24Zm12-23.4A55.87,55.87,0,0,1,378.36,276l-2.64-65c16.44-2.76,30.12,1.68,41.28,13.32Q437.7,245.7,417,262.92Zm-42.36-63.84-.84,3.6v3.84c-2.16,21-3.36,42.84-3.48,65.4-.36,35.76-1.08,71.4-1.92,106.92h-.12l-1.08.48a14.16,14.16,0,0,0-2,6.48,7.72,7.72,0,0,0,2.16,6.12l.6.6-.24,7.68q.72,2.88,3.24,2.16l1-6.36c14,10.92,30.84,11.88,50.4,2.64q34.74-16.38,29-56.88c-1.08-8-2.16-16-3-23.76-2.28-20-11.16-33.6-26.4-40.8,12.36-10.08,16.32-24.6,12-43.68-5.76-25.08-22-37.44-48.6-36.84l-6.48.36-2.16.48-1.92,1.08v-.84Z" transform="translate(-144.89 -194.84)"/></svg>