<svg id="Layer_1" data-name="Layer 1" xmlns="http://www.w3.org/2000/svg" xmlns:xlink="http://www.w3.org/1999/xlink" viewBox="0 0 598.92 587.88"><defs><style>.cls-1{fill:none;}.cls-2{clip-path:url(#clip-path);}.cls-3{fill-rule:evenodd;}</style><clipPath id="clip-path" transform="translate(1.08 -3)"><rect class="cls-1" y="3" width="595.32" height="588"/></clipPath></defs><g class="cls-2"><path class="cls-3" d="M270.84,473.16l.36,10.56a174.85,174.85,0,0,1-1.68,18.48l6.48-1.08V501l.24.12,4.08-.6c11.16-2.52,16.8-9.48,16.8-20.88,0-4.44-1.8-9-5.4-13.8-4.2-5.64-9-8.4-14.64-8.4a12.56,12.56,0,0,0-7.08,2.4C270.36,463.2,270.72,467.64,270.84,473.16Zm13.44-19.8a43,43,0,0,1,11,11.76c3.36,5.28,5,10.32,5,15,0,6.84-.72,12.36-2.16,16.32-2.76,7.44-7.56,12-14.64,13.68a50.31,50.31,0,0,1,2.64,6.6l3.48,10.08a37.91,37.91,0,0,0,5.28,9.6l10.56,18.36c5.88,10.8,8.88,18,8.88,21.48l-.24,2.88L313.08,581c-17.52-34.92-28.8-57.72-33.84-68.16-.24,0-.36.12-.48.48l-.6.84-1-3.48h-.12l-8.52-.12-3.48,23.88c-3.84,24.84-6.36,38.88-7.44,42.24a12.74,12.74,0,0,1-1.32-3,15.15,15.15,0,0,1-.36-3.6l.48-6.24L257,556c.36,0,.72.24.84.84l.24,1.56h.36c1.68-11.16,3.6-27.48,5.64-48.72l-.24-.48a8.06,8.06,0,0,1-.36-2.76,2.73,2.73,0,0,1,1.08-2.16c1.92-20,3.6-34.8,4.92-44.16l-1-1.08a7.3,7.3,0,0,1-.36-2.64c0-4.68,1.68-7.08,5-7.32C276.24,448.68,280,450.12,284.28,453.36Zm4.2-50.88-.12-.84.48.36ZM309.84,360c-1.8,10.44-5.64,24-11.52,40.8C289.44,426.36,284.76,440,284.16,442l-1.08.36c-1.2-6.24-2.16-16.92-2.76-32-.6-14.28-1.68-25.32-3.48-33-1.92,6.48-4.44,17-7.56,31.8-3.48,13.2-7.92,23.4-13.32,30.72l-.36-.72a7.5,7.5,0,0,1-.12-2c0-1.92,3-14.16,9.12-36.84q9.18-34.38,16-57a20.8,20.8,0,0,1,1.44,8.64l-1.08,9.72-1.08,9.72c0,5.88.72,14.88,2.16,27.24s2.16,21.24,2.16,26.76c2.28-6.48,6.6-20.16,12.72-40.92,5-17.16,9.84-30.84,14.28-41.16,1.68,9.36,4.2,25.92,7.44,49.56,4,28.68,5.88,46.68,5.88,54l-.24,3.6-.72.48-1,1-2.4-.36.36-7.8a10.3,10.3,0,0,0-4-8.4q.36-.54,1.44-.36l1.56.36c-3-16.2-5.16-28.44-6.36-36.84a231.94,231.94,0,0,1-3.12-37.8Zm8.88-158.4.12-1.2-.72,4.8Zm18.36-59.16a9.69,9.69,0,0,1,.36,3q0,13.32-27.6,199.92h-2.76l-17.16-90.48c-6.6-34-12.84-64.08-18.48-90.36h-.24Q266.34,254,256.8,330.84H256l-.36-.72a9.2,9.2,0,0,1-.12-2.16c0-9.72,2.28-41.28,6.84-94.92q6.3-73.8,8.52-92l1.08-.24q5.76,36.9,17.28,93.6l19,93.72h.6c1.8-12.48,3.72-28.32,5.76-47.4L319.8,233q6.66-57.06,16-92.88ZM178.92,7.08V9.24l1.08-3,1.2,2.4a12.08,12.08,0,0,1,.36,3.24l-1.92,11.64q3.24,70.2,6.72,125Q191.22,224.7,197.28,291q2.7,31.14,18.84,158.52,14.76,116.64,14.76,125.28a13.92,13.92,0,0,1-2.28,8.4q-7-27.18-12-65.88l-7.68-67.2c-2-17.16-4.44-39.36-7.44-66.84l-7.2-67.08q-4.14-35.46-11.16-146.28c-4.44-69.72-6.72-110.28-6.72-121.44l.12-6q-10.8,67.14-21.72,146Q128,383.28,128,475l-.36,31.92c-.24,5.76-.84,12-1.8,18.84.84,12.72,1.32,22.32,1.32,28.8a10.67,10.67,0,0,1-2.76,7.32c-4.68-18.12-8-41-10.08-69L112,458.16c-1-13.8-2-25.32-3.12-34.8-2.28-17.88-4.44-40.68-6.72-68.4l-5.76-69.6q-7.56-59.58-14.88-121.8C74.76,106.8,70.32,64.8,68.28,37.32L57.12,130.2q-15.3,126.54-19,165.36-2.7,29.7-7.2,71L23,438.48q-2.7,23.4-6.24,71.16Q12.66,551.76,3.24,581A10.14,10.14,0,0,1,0,576.36a12.05,12.05,0,0,1-1.08-4.08L2,560a184,184,0,0,0,4.44-22.2l2-17.52,2-18.24,8.4-71.4,7.32-71.16Q31,313.44,33.84,288.6l18-152.28q10.08-83.7,15.36-117c-.24-4.2-.36-7.68-.36-10.68a8.17,8.17,0,0,1,1-3.72C68.4,3.84,69,3.12,69.6,3l.24,2.64,1,1.56A8.06,8.06,0,0,1,71.16,10L70.8,14q18.9,159.48,29.52,255,14.76,132.48,21.36,205.44l.36-33.24q0-7.74,8.64-92.16,9.18-89.82,14.4-126.24c1.92-13.56,4.08-31.68,6.48-54.6q4.5-41.22,6.12-55.08Q165.24,52.5,178.08,12C178.32,9.12,178.56,7.44,178.92,7.08Zm79.2,10.2a9.16,9.16,0,0,1,.6,3.24L253,49.32c-3.84,19.8-5.76,35.88-5.88,48.36-.12,5.16-.84,17.88-2.4,38.16-1.32,16.2-1.44,29.16-.6,39v55A160.81,160.81,0,0,0,243,251.4c0,4.08.72,16.56,2.16,37.56s2.16,34.68,2.16,41.52l-.6,13.32c-.6,8-1.08,14.4-1.56,19.2v75.48l-1.08,4.08v112a61.59,61.59,0,0,0-.36,10.44c-.12,4.44-1.44,7.8-4,10.2-1.08-1-1.68-3.24-2-6.84-.12-1.32-.12-3.84-.12-7.32,0-6.24.36-10.68,1.08-13.44V438l1.08-4.92V358.44c.48-4.08,1-9.6,1.56-16.44l.6-11.64c0-8.88-.72-22-2.16-39.36s-2.16-30.48-2.16-39.72a233,233,0,0,1,1.08-26v-51c.6-9.36,1.2-23.16,1.68-41.52.6-20.52,1.08-35,1.56-43.56,1.92-34,6.84-58.8,14.88-74.28ZM410.76,241.92c-3.84-4-9.6-5.88-17.28-5.88q-30.06,0-42.72,55.92a291.75,291.75,0,0,0-6.84,58.56L340.2,385l15.36-.6,26.52-1.08v-.48a5,5,0,0,1,2,1.68,5.28,5.28,0,0,1,.72,3,6.31,6.31,0,0,1-.72,3.12A4,4,0,0,1,381,393l-29.16,1.08H339.12L331,465.84v43a73.31,73.31,0,0,0-1.08,14.64c0,13.2,2.28,24,6.72,32.52,5.4,10.08,13.32,15.12,23.88,15.12,16.44,0,29.16-6.24,38.16-18.6a55.41,55.41,0,0,0,6.84-13l2-6.6a4.3,4.3,0,0,0-2.16-1.08l-3.24-.48,3.84-1.92a9.89,9.89,0,0,1,3.84-1.08c1.08,0,1.8.12,1.92.36l-.12.36a37,37,0,0,1,.48,5.76c0,2-.84,5.4-2.52,10A71.07,71.07,0,0,1,401,560.88c-10.2,14.16-23.28,21.24-39.48,21.24-6.48,0-13.92-4.08-22.2-12.12a65.48,65.48,0,0,1-8.16-9.6c-2.16-3.12-3.36-5.4-3.48-7-.48-4.2-.84-10.08-1.2-17.4L326,523.92c0-9,.36-15.6,1.08-19.92V460.92Q334.68,384.6,342,331.08c1.08-8,3.24-18.72,6.24-31.8l7.56-33.12a117.82,117.82,0,0,1,4.44-16.8c2.76-7,6.6-12.24,11.28-15.72,6.36-4.56,12.84-7,19.56-7.32a28.75,28.75,0,0,1,16,4,26.85,26.85,0,0,1,10,9.36c2.16,3.72,2.52,6.72,1.08,9.12l-.48.48-.84,1a15.16,15.16,0,0,1-2.52-3.48A24.93,24.93,0,0,0,410.76,241.92ZM383.28,126a6.32,6.32,0,0,1,.48,2.76l-.36,2.52-1.08,1.56-17.28.48-18.72.84L295,133.92l-.72-1.32a8.06,8.06,0,0,1-.36-2.76q0-4.14,2.88-28.8c1.8-16.44,2.76-25.56,2.76-27.12l-.72-28.68c-.24-11.76.24-20.4,1.32-25.8l1.44,33.36.72,21.84a132.78,132.78,0,0,1-1.68,22.44A89.44,89.44,0,0,0,299,111.6l.24,13.44H348l1.56-.6,32.76.36Zm179.64-4c-2.28-4.8-7.8-15.72-16.8-32.76-5.4-10.44-17.64-21.12-36.72-32.16C488,44.76,463.92,35.76,437.16,30.36l-1.44,18.12C434.64,60,434,66.84,434,69c0,4.32.12,7.56.24,9.72v86c1.2,8.64,2.16,19.56,2.76,32.76l1.56,32.88V301a134.7,134.7,0,0,1,1.08,19.92c0,9.48-.36,16.44-1.08,20.76v42.24l-8.76,101.64q-4.68,50.4-9.48,91.44a14.62,14.62,0,0,0,2.88-5l.48,1.56.6,1.08q46.26-10.62,75.48-28.44,24.66-14.94,38.64-36.12c6.72-10,12.6-22.92,17.64-38.76l5.76-18.72A156.06,156.06,0,0,1,568.08,435q6.12-14.22,15.12-68.52,9.18-55.44,9.24-80,0-13.14-8.76-72.12c-4.8-32.28-7.92-52.08-9.36-59.28C572.52,145.56,568.8,134.64,562.92,122Zm14.64,22.2q5.4,27.18,11.52,65.88,8.82,55.8,8.76,76,0,23.58-10.2,84.24-9.54,55.8-14.88,73.32c-5.4,16.92-9.72,29.88-13.08,38.88a287.94,287.94,0,0,1-18.24,39.84Q527.58,547,481.08,570.6a309.23,309.23,0,0,1-34.68,14.76c-10.44,3.72-17.88,5.52-22.08,5.52l-8.16-.36A12.81,12.81,0,0,1,414,583.2a3.44,3.44,0,0,1,1-2.52l1.44-.84c.12-19.08,2.64-54.84,7.8-107,5.64-53,8.76-84,9.6-93V336.72c.36-2,.6-4.92.84-8.64l.24-7.2c0-6.72-.36-11.76-1.08-15v-71.4q-3.24-37.62-4-60.84c-.24-8.28-.36-25.08-.36-50.64q0-45,.36-56.16c.48-14.16,1.56-27.24,3.12-39.36l-.6-1.08a9,9,0,0,1-.72-3.72,5,5,0,0,1,2.76-4.8l1-5.76A26.62,26.62,0,0,1,436.68,17c2.4-.6,5.64-.6,9.84,0,9,1.2,20.4,4.92,34.2,11a241.12,241.12,0,0,1,38.16,20.76c12.72,8.64,21.48,16.68,26.4,24,9.48,17.16,16,29,19.2,35.76C571.32,122.52,575.64,134.4,577.56,144.24Z" transform="translate(1.08 -3)"/></g></svg>