<svg id="Layer_1" data-name="Layer 1" xmlns="http://www.w3.org/2000/svg" viewBox="0 0 315.38 208.32"><defs><style>.cls-1{fill-rule:evenodd;}</style></defs><path class="cls-1" d="M305,199.92c-2.64,42.84-3.24,85.8-1.92,129.12a237.83,237.83,0,0,1-2.28,40.32q-2.7,17.82,3.24,32.4a68.65,68.65,0,0,0,5.64-30.6c-1.32-43.08-1.2-86,.6-129A348,348,0,0,0,309,194.28C306.6,195,305.28,196.92,305,199.92ZM193,199.68c-10.68,35.64-19.68,71.76-27.12,108.6-4.2,21-9.36,41.64-15.6,62.16q-5.58,17.82,1.8,31.32a70.25,70.25,0,0,0,6.6-18.24q14.22-62.46,27-125.28c2.16-10.56,4.68-21,7.56-31.2a87.22,87.22,0,0,0,1.92-8.64Q201.06,269,207.6,320c.36,1.68,1.2,2.52,2.52,2.4l-.12.84a2.15,2.15,0,0,0,2.16,2.16,19.7,19.7,0,0,0,4.68-10.08,505.47,505.47,0,0,1,16.68-72,132.85,132.85,0,0,0,3.72-14.76l.48,3L258,357.12a155.83,155.83,0,0,1,2.16,23.52c.24,10,3.12,17.28,8.52,22a67.27,67.27,0,0,0,.72-27.72q-7.38-41.22-13.08-82.8A756.28,756.28,0,0,0,239.64,207c.12-3.72,0-7.32-.24-11a4.37,4.37,0,0,0-3,3.12A576.1,576.1,0,0,0,211.08,313.2,576,576,0,0,0,196.2,199.68l-.24-.12-.6-4.68q-.9-.18-1.08.36l-.84,3a.8.8,0,0,0-.6.84Zm260.88,8.16q-1.26,43.38-1.8,86.76a35.72,35.72,0,0,0-23.76,2c-.12-26.76-1.2-53.28-3.48-79.56-1.08-.12-1.56.24-1.56,1.08q-1.62,64.26-5,128.16a205.43,205.43,0,0,1-4.2,32c-2.28,10.2-.6,18.12,4.8,23.76a289.16,289.16,0,0,0,8.4-56.88c.6-11.4.84-22.8,1-34.2a91.51,91.51,0,0,0,23.64.6v25.2a222.25,222.25,0,0,1-2.4,32.28c-1.8,12.24-.6,22.8,3.48,31.8a7.86,7.86,0,0,0,2.28-4.8q4-34.92,4.56-70.68l.24-14.88,1.32-.24a14.69,14.69,0,0,0,1.92-8.16,14,14,0,0,0-1.92-6.48,1.09,1.09,0,0,0-.84-.36l-.36-.12c.12-33-.36-65.64-1.68-97.92C455.4,199.56,454,203,453.84,207.84Zm-34-12.72a575.63,575.63,0,0,1-73.08,3.72,20.43,20.43,0,0,0-1.2,8.16,6.93,6.93,0,0,0,2.4,4.92,310.89,310.89,0,0,0,37.92,2.4c-3.24,30.12-5.16,60.84-5.76,91.92a516.3,516.3,0,0,1-5,64c-1.56,12.12-.24,22.8,4.2,31.92a538.64,538.64,0,0,0,8.88-73q3.06-58,.48-114.84A317.49,317.49,0,0,0,430,210.84a14.57,14.57,0,0,0,1.8-9,15.54,15.54,0,0,0-1.8-5.64.91.91,0,0,0-.84-.48Z" transform="translate(-147.84 -194.28)"/></svg>