<svg id="Layer_1" data-name="Layer 1" xmlns="http://www.w3.org/2000/svg" viewBox="0 0 572.4 592.44"><defs><style>.cls-1{fill-rule:evenodd;}</style></defs><path class="cls-1" d="M357.36,474.24l-.48-.6c-.12,7.92-1,24.36-2.64,49.44q-2.34,36.36-4.68,55.08,37.62-1.8,56.52-14.76c9.6-6.6,14.4-14,14.4-22.2,0-3.48-1.2-8.52-3.72-15.36a108.69,108.69,0,0,0-11.4-22.32q-19.26-29-46-29ZM343.08,578.4h.6c.12-8.64,1-23.64,2.52-44.88q3.6-48.6,9.12-69.36l1,2.52c.6-4.92,4.2-6.72,10.68-5.16,7,1.56,15,6.24,24,14a106.38,106.38,0,0,1,23.76,28.68c7.32,12.6,10.92,25,10.92,37.08q0,16-10.8,29.16-17.82,22-58.68,22l-13.56-.24a12.54,12.54,0,0,1-1.68-3.36,10.17,10.17,0,0,1-.48-3.48C340.44,582.24,341.28,580,343.08,578.4ZM278.16,403.32q-1.26,18.9-2.52,47.88l-2.16,48.6q-2.7,58.86-8.28,97.2a3.3,3.3,0,0,1-1.8-1.08,4.47,4.47,0,0,1-.6-2.64c0-3.72,1.08-20.64,3.36-50.76,2.4-31.44,3.72-49.92,4-55.56.84-27.24,2.88-62.64,6.12-106.44l1.08-.24q12.78,35.1,25.2,88.08l20.28,88.08.24.24c1.32-6.84,2.76-16.68,4.2-29.28L331,497.76V449.88l3.72-37.08c1.68-15,4.2-26.76,7.68-35.16a13.43,13.43,0,0,1,2.16,7.68c0,3.24-1.32,14.64-4.08,34.44l-4.68,34.92v47.88l-4.92,41.16a356.89,356.89,0,0,0-2.64,40.92l-.12,4.08a5.9,5.9,0,0,1-2.76,4.32C321.72,580,318,564.36,314,546.24L304,498.84q-12.78-58.86-25.2-95ZM157.44,15.6l.24,1,1.68-3,.84,2,.24,2.76c0,1.68-1.44,8.16-4.2,19.56l-1.44,6q2,44.46,19.92,143.64,10.26,57.06,23,119.64l28.32,159.12c12.6,71.4,18.84,109.08,18.84,113.28s-.72,7.68-2.16,10.2q-13.5-54-26.64-134.76-13.86-90.18-21.84-135.6Q181.5,255,171,197.16,153.18,99.24,150.84,60.24l-4.08,17.4Q132.36,140.46,129.84,183q-2,36.18-8,82.08C119,285.48,115,313,109.32,347.52l-3.12-5a9,9,0,0,1-.72-4v-.36l-1.08-2.4a13.84,13.84,0,0,1-1.32-4.8c1.8-8.4,2.76-13.68,2.76-15.84q0-14.76-8.4-83.16L88.8,163.44q-3.42-29-9.24-83.88L76.2,47.4,74.52,62.64a253.62,253.62,0,0,0-2,31.2q0,9.54-9.72,113.4Q52.32,317.58,51.12,339.72,45.18,450.78,14,584.28c-1.44-1.08-2.64-3-3.72-5.76a15.53,15.53,0,0,1-1.08-4.08,67.79,67.79,0,0,1,1.08-8.52,2.41,2.41,0,0,1,.48-1.56l1.32,7Q37.5,458.46,52.68,288.84L64.32,147.36C68,102.12,71.4,63.6,74.64,31.8c-1.08-11-1.56-17.64-1.56-19.8a41,41,0,0,1,.24-4.44A2.23,2.23,0,0,1,75.48,8L77,8.88l.12-1.08.48,1.44h0a23.31,23.31,0,0,1,.84,7.08L78,22.56l3.48,26,5.64,39.6c.84,7.08,1.8,19.92,3,38.28,1.08,16.68,2.28,29.28,3.48,38l9.24,69.12c3.12,25.08,5.28,45,6.6,59.76,1.56-12.6,3.48-27.48,5.88-44.64q10.26-67.14,10.8-73.68c1.56-17.88,2.88-31.32,3.72-40.56q2.52-24.3,5.76-41.4c3.48-18.48,6.48-32.28,8.88-41.4A179.79,179.79,0,0,1,151.92,29c1-8.52,2.4-13.68,4.2-15.48Zm103.68-4.2A14.21,14.21,0,0,1,263,18.72c-2.28,16.68-4.44,35.16-6.72,55.44-4.56,40.44-6.84,76.92-6.84,109.2L256,295.56q6.48,116.28,6.48,137.4,0,38-2.28,71.28l-5.52,80.88v.48l-1.92.36c-2.4,0-4-1.44-4.56-4.32l-.24-4.56c0-2.64,1.56-20.88,4.56-54.6S257,458.64,257,432c0-22.44-.48-41.88-1.32-58.44l-4.08-65.76-4.56-60.48c-2-27-3-48.12-3-63.36,0-21.72,1.44-52.2,4.44-91.68C252.24,42.24,256.44,15.36,261.12,11.4Zm53.16,6.36-1.56,10.08c-1.32,8.64-2,13.92-2,15.72L310.2,49l14.16-2.4a9,9,0,0,1,1-2.16l2,1.8c8.16-1.32,14.16-2.88,17.88-4.56,5.64-2.4,8.4-5.76,8.4-10,0-3.24-2.16-5.64-6.48-7.32-2.28-.84-10.8-3.12-25.68-6.72Zm62.4,205.8a4.08,4.08,0,0,1,2.16,2.88v1.92l.12,3c-.36.72-1.8,1.32-4.56,1.68l-51.84,2.52-10.8,1.08q-6.3,0-7.56-4.32a6.15,6.15,0,0,1-.24-3l.24-1.44q0-4.32,2.88-39.24c1.8-23.16,2.76-44.28,2.76-63.36a22.44,22.44,0,0,1,.24-3.24l1.08-2.4c2.64,1.8,4.08,6,4.32,12.48A66.75,66.75,0,0,1,315,142c0,7.44-.84,22.32-2.4,44.52-1.32,18.6-2.4,31.08-3,37.44l7.56-.84,6.48-1.08,28.2-1.08C364.68,220.08,373,221,376.68,223.56ZM359.4,258.84,325.32,361.92Q318.66,341.58,312,305.4c-4-25.08-6.72-41.52-8.16-49.08a173.9,173.9,0,0,0-9.12,27.36c-1,4-3,13-6,27.24A270,270,0,0,1,282,338a130.63,130.63,0,0,1-11.64,26.88,35.31,35.31,0,0,1-.6-5.28c0-4.08,4.32-21.6,12.84-52.56q13.68-50,21.6-66.36c1.32,8,5.4,25.2,12,51.48C321.72,314,325,331.56,326,344.64l.36.24,6.36-26.4a192.89,192.89,0,0,1,8.16-26.88q2.34-5.94,4.68-14L349.32,264c3-10.44,7-18.6,11.64-24.72l8.16,30.84q4.86,18.18,9.72,31.68c1.32,3.84,6,15.6,13.92,35.4,6.84,16.68,10.2,25.68,10.2,26.88l-.24,2.88-.36,2.76c-.12,0-.36.12-.72.48l-1.2,1q-22.86-45.36-40.32-111Zm-1.68-227.4c0,6.6-3.36,12.24-10.08,17.16a53.19,53.19,0,0,1-13.08,6.48c4.2,5.64,9.48,13.32,16,23.16,13.8,21.12,20.76,34.2,20.76,39.24a8.39,8.39,0,0,1-.48,3.24,13,13,0,0,1-1.68,3c-3-3.72-6.48-9.72-10.44-18.24-4-8.76-7.8-15.24-11.52-19.68A236.78,236.78,0,0,1,331.92,63l-3.36-6.12a115.26,115.26,0,0,1-19.8,2.88L306,76.44c-3.48,20.52-6.48,33.48-8.88,38.88a11.79,11.79,0,0,1-1.68-6.48c0-6.12,1-14.4,3-24.6l4.68-24.84c-2-1.44-3-2.88-3-4.44s1.2-3,3.72-4.08l1.68-16.8a72.53,72.53,0,0,1,3.84-16.32l-3,.12-.36-1.2a12.73,12.73,0,0,1-.24-2.52,7,7,0,0,1,1.08-3.6,6.85,6.85,0,0,1,1.68-1.92l14,.84c14.28,2.64,23.88,5.76,28.92,9.24C355.68,21.72,357.72,25.92,357.72,31.44ZM473.88,12.12q5.4,5.22,5.4,9.36a7.75,7.75,0,0,1-.48,3.12l-1.2,2.16a67.88,67.88,0,0,0-6.48-5.16A26.22,26.22,0,0,0,456.24,17q-20.52,0-27.36,23.4a142.9,142.9,0,0,0-3.72,19.92c-1.08,8.76-2,14.52-2.76,17-.6,2.16-2.16,11.4-4.68,27.84-2.64,17.52-4,28.32-4,32.28a36.71,36.71,0,0,0,1.08,8.88v75.36l.12,5.16L451.32,225l2.4-.12L470,225a4.79,4.79,0,0,1,3.6,3.48,13.47,13.47,0,0,1,.72,4.56l-.12,4.08q-.54,1.62-4,2.16c-3.72.72-16.8,1.08-39.48,1.08L415.44,240l1,18.6,1.92,37.8v47.88c1.08,5.52,2.4,16.08,4,31.8S425.4,403.92,427,412c5.4,27.6,16,41.4,31.44,41.4,7,0,14.76-1.8,23.28-5.52a107.27,107.27,0,0,0,22.56-13.56c7.08-5.52,12.6-11,16.56-16.68q6.3-8.82,5-15.12l-.12-.48.36-1.08a86.24,86.24,0,0,1,2.16,8.76,61,61,0,0,1,1.56,9c0,.6-1.68,3.36-5.16,8.28a136.64,136.64,0,0,1-13.8,16.92c-15.24,16.2-29.64,24.36-43.2,24.36q-38.52,0-47.88-53.88c-1.56-9-2.76-22.44-3.72-40.08-.72-13.92-1.8-22.08-3.12-24.6V301l-1.68-40.08c-.6-15.72-1.08-29-1.32-40.2V151a69.82,69.82,0,0,1-1.08-13.44,537.38,537.38,0,0,1,9.6-67.68q13.5-65.34,34-65.28C461.52,4.56,468.72,7.08,473.88,12.12ZM580,47.52a10.57,10.57,0,0,1-.6,3.48,8.53,8.53,0,0,1-2,2.88,89.22,89.22,0,0,0-10.08-16c-8-10.2-16.2-15.24-24.36-15.24q-45,0-60.6,42a110.36,110.36,0,0,0-6.84,44.16q0,42.3,16.68,77.4A272.67,272.67,0,0,0,509,216.36c4.2,6.48,10.68,16.32,19.56,29.52q25,38.34,36.36,72.72,16.74,49.68,16.68,116.52c0,43.56-5.4,78.24-16.2,104.28q-20.34,49.32-64.32,49.32c-22.44,0-36.72-4.8-43-14.52a22.78,22.78,0,0,1-3.6-11.16c-.12-4.2-.36-6.72-.72-7.68a43.8,43.8,0,0,1-1.92-8.76l-1.32-8.52a30.09,30.09,0,0,0-8.4-16.2,9.93,9.93,0,0,0,4-4.08,5.6,5.6,0,0,1,3-2.76c2.88,3.12,4.92,7.92,6,14.52l2.4,15,1.2,6.12a28.87,28.87,0,0,0,4,9.6c5.4,8.64,14.64,13,27.84,13,14.76,0,26.16-.84,34.32-2.64q13.32-2.88,21.24-10.08c5.16-4.68,9.48-11.64,13-20.76,2.88-7.56,6.12-19.08,9.6-34.44,4.44-19.44,6.84-32.4,7.44-38.88l.12-31.8q0-61.38-16.56-108.36c-7.32-20.88-19.32-44.52-36.24-70.8L504,225a281.74,281.74,0,0,1-16.92-32q-16.56-37.8-16.56-83.28c0-11.88.24-20.16.6-24.72a106,106,0,0,1,6.24-29.76q13.86-36,57.36-45.24c10.2-3.12,20.64,1.68,31.56,14.4a86.61,86.61,0,0,1,10,14.28C578.76,43.08,580,46.08,580,47.52Z" transform="translate(-9.24 -4.56)"/></svg>