<svg id="Layer_1" data-name="Layer 1" xmlns="http://www.w3.org/2000/svg" viewBox="0 0 438.44 301.92"><defs><style>.cls-1{fill-rule:evenodd;}</style></defs><path class="cls-1" d="M301.56,172.8a19.15,19.15,0,0,1,10.08-4.44,47.7,47.7,0,0,1,26.52,5q21.42,26.1,25.92,60.6a222.35,222.35,0,0,1-20.52,127.44c-4.08,8.4-8.52,16.56-13.44,24.6-10.32,16.8-24.72,24.6-43.08,23.28q-19.08-27.54-17.76-63t.84-71.4q-.54-56.34,30.24-101.52ZM217,151v-4.32l-.48.12A872.07,872.07,0,0,0,194.28,262a959.81,959.81,0,0,1-21.36,115.8l-1.08-13.56c-3-31.92-5.76-63.84-8-95.88a972.13,972.13,0,0,0-17.4-126.48,1.78,1.78,0,0,0-1.56,1.44l-.36-7.2a291.42,291.42,0,0,0-23.76,67.2L92.4,328.56a638.06,638.06,0,0,1-17.16,61.92C71.28,402.6,72,412.8,77.4,421q16.74-60.3,29.76-122.52A1164.22,1164.22,0,0,1,139.8,174.72a100.7,100.7,0,0,0,5-28.32c.72,16.8,1.92,33.48,3.48,50.16L161,323.76a497.71,497.71,0,0,1,2.28,64.2c-.36,12.36,2.4,22.56,8.4,30.6l1.08-10.92.84,1c6.36-23.52,11.52-47.52,15.72-72.12Q200,273.3,211.08,210.36a403.65,403.65,0,0,0,5.4-47q3.78,36.18,6.12,72.72,4,64.26,14,127.44a145.38,145.38,0,0,1,1.68,32.28c-.84,12.6,1.92,22.8,8.16,30.6a205,205,0,0,0-1-53.4q-6.84-47.7-10-96A846.88,846.88,0,0,0,217.8,150.48Zm153.72,65c-4.32-27.24-16.56-49.08-36.84-65.28l-1.56-.12-17.4-1.2v.12l-1.8.36a3.5,3.5,0,0,0-3,1.08l-.48.84a4.08,4.08,0,0,1-2.28,2.4,7.61,7.61,0,0,0-5.28,2.52q-30.42,32.22-34.56,77.88c-4,42.6-5.88,85.08-6,127.44q0,38.34,24.48,65.76c11.52,3,21.84.12,31.08-8.76a173.88,173.88,0,0,0,45.12-75.12A282.91,282.91,0,0,0,370.68,216Zm117.48-62c-14,5.64-22.8,16.44-26.16,32.28A776.06,776.06,0,0,0,446.28,314.4c-.72,21.12-1.92,42.12-3.72,63.12Q439.68,413,463.8,436.2a18.1,18.1,0,0,0,12.12-4.08l11.4-10c11.64-11.16,15-23.28,10-36.36a3.87,3.87,0,0,0-3,.84l-1.68,1.2-.12-.12-2.52,3.6v.24l.12.72.24.84-1.56,3.36c-5.16,11.4-13.32,18.48-24.48,21a25.7,25.7,0,0,1-10.56-17.64,304.77,304.77,0,0,1-3-54.36c.72-18.6,1.56-37,2.64-55.32l16.8,1.68,6.84.36a5.81,5.81,0,0,0,2-3.24,14.25,14.25,0,0,0-1.68-11,6.25,6.25,0,0,0-1.68-1.92l-5.4-.36-16.08-1a436.29,436.29,0,0,1,15.24-87.48l1.44-2.52c2.76-7.44,7.92-12,15.36-13.56,10.92-2.4,18.48,1.56,22.68,11.76a11,11,0,0,0,2-8.88,26.91,26.91,0,0,0-11.52-18.72L496,154.8Zm-96,32.52q1.26,20.88,1.08,41.4a1197,1197,0,0,1-8,128.28,408.23,408.23,0,0,1-8.64,48.12c-2.52,10-1,17.76,4.68,23.16l.24.84a173.68,173.68,0,0,0,56,9.72,6,6,0,0,0,1.2-2.28,17,17,0,0,0,1-4.92l-.12-3.24a16.14,16.14,0,0,0-1.8-5.76l-1-.84-1.2-1.08-.12-1.56V418l-1,.6-.24,1.2A222.91,222.91,0,0,1,386,415.32,80.45,80.45,0,0,0,388.32,403c4.68-42.24,8-84.72,9.84-127.56a1168.06,1168.06,0,0,0-1.56-128.16C392.64,158.88,391.2,172,392.16,186.48Z" transform="translate(-72.73 -136.08)"/></svg>