<svg id="Layer_1" data-name="Layer 1" xmlns="http://www.w3.org/2000/svg" viewBox="0 0 468.94 302.16"><defs><style>.cls-1{fill-rule:evenodd;}</style></defs><path class="cls-1" d="M86.4,129.84,86,128l-.6.12Q70,183.24,57.24,239.88,43.2,302.16,31.32,365a115.89,115.89,0,0,1-4,15.72c-3.72,11.64-3.48,22.32.84,31.8a2.14,2.14,0,0,0,1.08-1.44q13.14-54.9,23.64-110.88a1205.72,1205.72,0,0,1,30-124.56l1.92-7.08c.36,8.16,1.08,16.44,2.28,24.72C93,235.44,97.44,277.8,100.2,320.52c1.32,21.48,2.16,42.84,2.4,64.2.12,11.88,2.28,22.32,6.72,31.44a2.92,2.92,0,0,0,1.2-1.56l1.56-6.24,1.56,2.88a163.77,163.77,0,0,0,8-37.8q6.3-63.72,16.56-126.84,5.22-31.5,12.24-62.64a135,135,0,0,0,3-20.4C156,197.28,159.6,231,164.4,265c5.88,42,10.2,84.24,12.72,126.6.72,11.88,3.48,22.2,8.4,30.84a8.55,8.55,0,0,0,3.24-6.48,119.5,119.5,0,0,0-.6-19.68c-4.68-42.48-9.6-85-14.52-127.44q-7.2-61.38-19.8-121c-.12-3.84-.48-7.68-1-11.4a655.16,655.16,0,0,0-18.12,85.08Q125.58,284.88,117,348.24a246.27,246.27,0,0,1-4.56,24.6L100.92,255q-6.3-63.72-13.8-126.72h-.6Zm157.2,38.64,17.52,111-34-.72L238.8,206Zm.48-21.36v-4.8a487.86,487.86,0,0,0-14.28,65c-2.28,16-3.84,31.92-4.56,48.12a192.17,192.17,0,0,1-3.12,28.32L210.6,339.72c-1.68,8.28-3.24,16.56-4.56,24.84-1.32,7.92-2.52,15.84-3.36,23.88a149.26,149.26,0,0,0,.12,31.92l.6.6,2.16-.6,19.8-128.76,37.92,2.16,13.2,105-4.2-6a9.48,9.48,0,0,0,.72,5.64,40.56,40.56,0,0,1,2.16,7.44,64.14,64.14,0,0,0,3,11.16l2.52,6.84c1.08,2.88,2.28,4.8,3.84,5.76a55,55,0,0,0,2-13.32,123.93,123.93,0,0,0-.84-16.32c-2.28-18.72-5.16-37.32-8.76-55.68a271.53,271.53,0,0,1-5.4-58.56l-.36-3a5.79,5.79,0,0,0-2.28-3.48L246.24,143.4Zm233.16,1.2a10,10,0,0,0-4.92,4.08c-14.76,22.68-23.52,48.36-26.16,76.8q-2.7,28.08-6.48,55.8a522.83,522.83,0,0,0-2.76,114.6c1.68,19.68,12.12,29.88,31.2,30.6a78.22,78.22,0,0,0,23.52-41c2-9.24.24-15.24-5.4-17.88a2.23,2.23,0,0,1-1.32,1.08c-.84.12-1.08-.48-.72-1.92l.12-.84c-1.08-.6-1.68.84-1.56,4.08l.24,2.4a4.23,4.23,0,0,1,.48,3.12,55.31,55.31,0,0,1-16.2,31.8,13,13,0,0,1-9.72.24,12.23,12.23,0,0,1-7.44-7.56A150.68,150.68,0,0,1,442,336c1.44-14.52,3-29,4.56-43.56a51.37,51.37,0,0,0,23.76-.48l.6-.6c3.48-5.64,3.24-11-.6-16.2-7.44,2-14.88,3.84-22.44,5.28l7.08-62.88C457.2,196.8,464.64,178.92,477,164l4.56.24a1.93,1.93,0,0,1,.84.48,10.88,10.88,0,0,1,2.4,5,20.79,20.79,0,0,0,6.6,12.6,4.85,4.85,0,0,0,2.28-4.56c-.36-10.92-3.72-20.4-10.2-28.44a2.66,2.66,0,0,0-1.32-.6Zm-123.36-5.16q-3.6,51.66-2.4,104.76a595.5,595.5,0,0,1-11.4,129.24c-3.72,19.08-14.64,29-32.76,30a8.47,8.47,0,0,1-4-6.36,745.68,745.68,0,0,1-8-115.08q.18-65,6.72-129c.72-7.32-.84-12.24-4.68-14.64a593.2,593.2,0,0,0-6.84,65.64q-2.88,64.08-1.2,128.4c.24,10.8.12,21.6-.48,32.28q-1.62,32.22,16.32,56.16c7.08,2.52,13.32,1.56,18.72-3A69.63,69.63,0,0,0,347.4,381a696.82,696.82,0,0,0,12.72-127.68l.48-65a257.89,257.89,0,0,0-4-47.88A2.58,2.58,0,0,0,353.88,143.16Zm20.52,1.44a417.73,417.73,0,0,0,2.76,90.6,1001.78,1001.78,0,0,1,9.24,127.44,232.75,232.75,0,0,0,9.12,63.24c1.32.12,1.92-.36,2-1.68l.24-15.36.48.48q9.18-38.52,16.56-79.2,11.34-62.82,19.56-126a163.75,163.75,0,0,1,7.32-31.2c3.12-9.24,3.12-17-.12-23.52a360.71,360.71,0,0,0-19.92,79.32Q413.22,291.9,400.8,354.6l-3,14.76-.12-1.92v-.36a2.37,2.37,0,0,0-1.8,2.52c-.6-32.76-2.64-65.52-6.36-98.52-4.68-42.48-9.6-84.72-14.52-126.6Z" transform="translate(-24.75 -128.04)"/></svg>