<svg id="Layer_1" data-name="Layer 1" xmlns="http://www.w3.org/2000/svg" viewBox="0 0 436.38 330.84"><defs><style>.cls-1{fill-rule:evenodd;}</style></defs><path class="cls-1" d="M301.92,132.84Q273.66,150.12,264,183.12a370.62,370.62,0,0,0-14.88,92.52,787.64,787.64,0,0,0,6.48,128.28c2.52,19,11.4,33.48,26.88,43.44,5.28,3.24,10.08,2.76,14.28-1.68Q341.94,398.34,348,331.56c1-10.32,1.44-20.64,1.56-31a499.52,499.52,0,0,0-14-127Q328.32,144.12,301.92,132.84Zm-1.08,14a10.72,10.72,0,0,1,10.32,3.84,212.08,212.08,0,0,1,27.36,80.88c1.92,15.48,3.12,31,3.6,46.56A283.44,283.44,0,0,1,316.68,404c-6.84,15-17.4,24-31.8,27l-.84-.84-1.08-.84L278.64,428l-3-4.44q-17.82-26.82-19.08-60.48A1143.19,1143.19,0,0,1,259,234.84q3.78-50.76,38.64-86.88l2.16-.6ZM193.08,130.8l.12-6.84c-4.08,4.56-6.6,10.56-7.56,17.88l-8.28,59.76Q168.54,265,158.28,328.08a224.08,224.08,0,0,1-7.56,31,120.1,120.1,0,0,0-3.12,12.12Q139.14,312.84,130,254.64a1112.32,1112.32,0,0,1-12.6-125.88l-.12-.12-1-9.84a37.58,37.58,0,0,0-2.64,4.32c-1,0-1.44.6-1.44,1.68v1.56a41.32,41.32,0,0,0-2.52,10.08,598.13,598.13,0,0,1-12.24,61.44Q82,260.16,71.64,323.4a389.46,389.46,0,0,1-15.48,61.92c-4.68,13.8-6,26.88-3.72,39.48l3.36-.24a853.67,853.67,0,0,0,26.88-118.2A963.14,963.14,0,0,1,110.76,181.8l2.64-10.08c1.32,22.92,3.48,45.72,6.72,68.52l17.64,126.48a72.2,72.2,0,0,1,.6,16.08C137.52,395,140,405.48,146,414.24a55.2,55.2,0,0,0,2.4-7.92l.12-.12a810.16,810.16,0,0,0,23.64-124q5.22-47.7,14.64-94.68c1.56-7.56,2.76-15.24,3.72-22.8a190.85,190.85,0,0,0,4,32.64,554.41,554.41,0,0,1,9.72,63q5.76,63.36,13.2,126.72L220.92,419q1.8,17.82,10.08,30.6a20.87,20.87,0,0,0,3.48-17.16C231,415.56,228,398.4,225.6,381.24Q216.78,317.7,209,254q-7.56-63.54-14.76-126.6l-.6.12Zm294,28.8c2.28-11.4-1.44-20.88-11.16-28.32l-.6-.36-8.88-.72-14.28,9.12A374.75,374.75,0,0,0,427.08,282c.24,16.44.24,32.88.12,49.44a778.84,778.84,0,0,0,3,78.36,90.76,90.76,0,0,0,4.08,20.28,24.45,24.45,0,0,0,12,14.64,7.33,7.33,0,0,0,3.6,1,9.26,9.26,0,0,0,4.2-1.44,45.68,45.68,0,0,0,12.36-8.88c11.64-11.64,15.36-25.32,11.4-41.16l-4.56-.36L471,397.32l.36,8.76a33.81,33.81,0,0,1-16.08,19.08,21.19,21.19,0,0,1-6.72,2.28L444,425.28a295,295,0,0,1-9.36-109.56c.84-7.44,1.44-14.88,1.92-22.32a65.38,65.38,0,0,0,31.2,1.8,15.22,15.22,0,0,0,1.68-11.4,7.57,7.57,0,0,0-2.4-4l-30.36.24q-9.9-74.7,28.2-129.36c2.4-3.48,6.12-4.92,11.28-4.56a26.29,26.29,0,0,0,9.24,12.6A3.18,3.18,0,0,0,487.08,159.6ZM373.68,144c16.92-4.56,29.52,1.44,37.8,17.88a68.66,68.66,0,0,1,6,46c-3.48,16.08-12.36,28.32-26.76,36.6a24.93,24.93,0,0,1-17.64,2.88l-2.52-103Zm-7.92,13.8c1.8,42.84,1.92,85.68.24,128.28-1.68,43.08-4.32,85.44-7.8,127.32l-.12-.84a115,115,0,0,1,.12-17,197,197,0,0,0-.48,50.4q2.34,1.26,2.88-1.08a225.71,225.71,0,0,0,8.4-56.52q1.62-62.64,3.6-125.4a15.92,15.92,0,0,0,5.64,4.68,17.17,17.17,0,0,0,12.36-2.52q43-27.36,34.92-78.12a226.09,226.09,0,0,0-6.36-28.08q-7.74-25.56-31.68-32.76a26.64,26.64,0,0,0-19.56,5.64,21.49,21.49,0,0,0-.84,7.32v.84A76.38,76.38,0,0,0,365.76,157.8Z" transform="translate(-51.35 -118.8)"/></svg>