<svg id="Layer_1" data-name="Layer 1" xmlns="http://www.w3.org/2000/svg" viewBox="0 0 569.88 398.3"><defs><style>.cls-1{fill-rule:evenodd;}</style></defs><path class="cls-1" d="M333.72,466.32l20-1.8,23,.24,1.44.24,7.2.84,1.2,2a5.69,5.69,0,0,1,.48,2.76,5.93,5.93,0,0,1-.48,2.88l-1.2,2-10-.6c-15.36-.12-25.44.12-30.12.72l-8.88,1-6.72-.24-.48-2a19.53,19.53,0,0,1-.12-2.88c0-4.2.48-12.6,1.44-25.32,1.08-14.4,2-22.8,2.88-25.32.36,6,.6,13.44.6,22.44Zm-20-100c0,4-1.56,8-4.8,12a17.57,17.57,0,0,1-6.24,5,93.72,93.72,0,0,0,5.4,16.8c3.72,9.48,6,16.68,6.72,21.48l-.48.48-1.08.6-7.44-19c-3.24-8.4-4.92-15-5-19.68a18.54,18.54,0,0,1-6.36.84l-.24,2.16q-3.78,29.7-4,31.32l-.48.48-.84.84a9,9,0,0,1-1.2-3.84,41.32,41.32,0,0,1-.12-4.32c0-4.8.72-14.4,2.28-28.68,1.8-17.16,3.6-28.32,5.52-33.72l1.44.48c5.88-2.52,10.44-.84,13.68,4.92A24.53,24.53,0,0,1,313.68,366.36Zm-5.76-9c-2.52-2.64-6-3.24-10.2-1.92-.36,4.32-1.2,12.12-2.64,23.52,5.16-1.08,9-2.64,11.76-4.92a11.56,11.56,0,0,0,4.2-9.12A10.72,10.72,0,0,0,307.92,357.36Zm-77.76-5.76a4.61,4.61,0,0,1,.24,1.92,55.91,55.91,0,0,1-1.68,12.24c-1.08,4.68-1.56,10.8-1.56,18.6,0,4.68-.84,14.64-2.52,30S222,440.28,222,446c0,4.2,1.32,9.6,3.84,16.2,3.36,8.76,7.32,13.08,11.88,13.08l8-.36c10.2-8.16,17.76-17.52,22.68-28,4.08-8.52,6.72-18.72,7.8-30.36.48-4.92.84-15.36,1.08-31.56.12-13.2,1.08-23.76,2.64-31.56l.48-.48.84-1.2c.84,2.16,1.32,5.52,1.32,10.2,0,13.56-.24,23.4-.6,29.52-.48,7.8-1.68,18.84-3.72,33.36a96.07,96.07,0,0,1-2.88,12.36,178.72,178.72,0,0,1-7,19.68c-7.32,17.4-14.88,26.16-22.92,26.16l-9.12-.24c-7.68-5.16-12.72-11.16-15-18-1.44-4-2.16-10-2.16-18.24,0-7.68,1-22.2,2.76-43.56,2.28-26.76,4.8-44,7.56-52Zm3.48-45C239.52,291.48,244.2,280,247.92,272a234.46,234.46,0,0,1,9,32l1-.12.48,1a4.91,4.91,0,0,1,.36,2.28l-.24,2.4-.36.6c1.92,10.2,3.6,21.6,4.92,34.44l-.48.36-1.2.72-2.16-1.44c.24-7.8-1-18-3.6-30.72l-.72-3.12-7.92,1-8.88,1h-3c-4.44,11.16-8.52,20.28-12.12,27.6h-.24l-.24-.24V338q0-2.34,9.72-27.72l.48-1.44a4.45,4.45,0,0,1,.24-1.68Zm14.28-27c-2.4,5.76-5.88,14.4-10.32,26l16-1.32c-2.76-13.32-4.2-21-4.56-23.28Q248.46,281,247.92,279.6ZM54.12,123.36Q48.54,162.24,43.92,213q-2,21.78-7.32,90.48-9,116.82-20,181.56H15.12a74.54,74.54,0,0,1-.48-8.16q0-4.14,7.8-80.28c6-58.68,9.72-96.12,11.16-112.08,1-11.16,1.92-27.12,3-48,1.2-22.2,2.16-38.28,3-48.24q4.5-56.34,17.28-93.6c1.08,15.72,3.72,46.68,7.68,92.88q5.22,58.68,7.2,93.72,7-34.2,14.88-92c6.6-48.6,11.16-79.8,13.44-93.72,2.88,5.52,4.2,13.32,4.08,23.52-.12,12.36.12,20.52,1,24.36v43.8L109,260.52q2.88,43.2,9.12,73.56,4.5,22.68,13.68,76.08c6.84,40.2,10.2,63.48,10.2,69.6a17.46,17.46,0,0,1-2.28,9.36c-5.52-18.12-10.44-42.84-14.88-73.92l-5.16-37.8c-2-14.52-4.08-26.76-6.12-36.84-4.2-20.52-7.2-45.48-9.24-74.76l-3.84-74.52v-43a74,74,0,0,1-1-9.72c-.12-2.16-.12-5.4-.12-9.84l-.36-.48c-3,19-6.36,47.88-9.84,86.64-4,35-10.32,64.2-18.84,87.48q-5.94-36-10-89.28C57.84,173,55.68,143.16,54.12,123.36Zm144.84,8q13.32,74.7,15.84,97.32,2.88,27.54,2.88,83.64c0,10.68-.6,23.52-1.68,38.52a510.77,510.77,0,0,1-6.72,53.28Q197,471.66,173,471.72q-19.44,0-27.24-69.48-2.52-21.78-3.6-47.88l-.6-22c0-10.44-1.2-29-3.72-56s-3.84-42.72-3.84-47c0-13.32.84-28,2.4-43.68l4.44-46.44c.72-2.52,1.44-6.24,2.28-11.16a111.28,111.28,0,0,1,2.28-11.88,34.23,34.23,0,0,1,16.2-21.48c12.24-7.2,22-4.32,29,8.52C194.88,110.88,197.64,120.24,199,131.4Zm24.6,63.84h1.32l3.48,31.68,3.24,31.56c2.88-4,5.64-9.84,8.16-17.76,2.64-8.76,4.68-15,6-18.72,1.08,4,2.16,10.08,3.48,18.24a68.83,68.83,0,0,0,6.24,18.24v.36a87.66,87.66,0,0,0,4.56-16l3-17c1-7.08,1.8-12.48,2.4-16.32,1.32-6.84,2.76-11.76,4.32-14.52l.6,1.2.24,2.76c0,2.28-1.92,12.72-5.64,31.32-4,19.2-7,32.28-9,39.36l-1.08.24c-3.72-11.28-7.08-23.16-10.2-35.76a65,65,0,0,1-4.32,16,68.79,68.79,0,0,1-9.24,16.56c-5.4-34.68-8.16-55.8-8.16-63.36A40.16,40.16,0,0,1,223.56,195.24Zm-40-80.76c-4.92-5.52-10.44-7.2-16.8-5.16-5.76,1.8-10.8,6.24-15.24,13.2a45.45,45.45,0,0,0-7,23.16c-.84,11.4-2.28,25.8-4.08,43.2-1.44,14.76-2.16,28.2-2.16,40.44,0,2.76.6,15,1.92,36.6q2.7,42.66,6,78.72,10.44,113.94,23.52,113.88,18.54,0,28.44-29.52A191.73,191.73,0,0,0,204,405l2.88-18.72q5-31.14,5.76-41c.12-2.28.12-13.08.12-32.4,0-21.24-.12-36.48-.48-45.72a265.74,265.74,0,0,0-2.4-27c-4.56-25.08-9.48-56.28-14.64-93.36C193.2,131.64,189.24,120.84,183.6,114.48ZM364.08,281.4c0,5.28-.24,10.56-.72,15.72a93.23,93.23,0,0,1-2.52,14.76v45.48c-.72,4.44-1.32,9.84-1.8,16.32l-1.2,16.44c-1.2,13.2-3.6,24.12-7.32,32.64q-8.1-55.26-20.76-130.44l-.36-.48v43c-.72,7-1.92,21.6-3.48,43.92-1.32,18.12-2.76,32.76-4.32,43.8h-.84a13.59,13.59,0,0,1-.48-4.08c0-7.68,1-23.64,2.76-47.88,1-13.68,2-26.88,3.12-39.72V282.12l1.8-4.32c.84-1.68,1.56-2.64,2.28-3l10.68,65q7,40.86,10.2,65.64v.24c1.32-6.48,2.52-15.36,3.6-26.52,1.08-13.08,2-22.08,2.88-26.76V307L359,292a73.71,73.71,0,0,1,2.88-15,3.65,3.65,0,0,1,1.56,1.44A6.61,6.61,0,0,1,364.08,281.4Zm66.36-69.12-.6,1.56a47.7,47.7,0,0,0-4.8-8.76c-3.72-5.28-8-7.92-13.2-7.92-11.4,0-19.56,15.36-24.48,46l-3.48,23c-1.32,8.88-2.16,16.68-2.52,23.28l-.12,1.92c3.48-1.44,10.92-2.4,22.32-2.76V288l6.84.24,1,1.32a8.06,8.06,0,0,1,.36,2.76l-.24,2.64c-.36.72-1.44,1.32-3,1.8-2.88.84-12.12,2-27.6,3.72l-.36-.12L377.28,338q-2.16,22.5-2.16,43.56l-.48,7a46.11,46.11,0,0,0,.6,10.44c1.8,9,7.2,13.56,16.44,13.56q17.1,0,27-17.64a56.61,56.61,0,0,0,5.52-13.2,32.51,32.51,0,0,0,1.56-8.28,4.91,4.91,0,0,1,.84-3l1.92-2.28c1.2,1.92,1.8,4.8,1.8,8.52a40.68,40.68,0,0,1-2.16,10.92,74.55,74.55,0,0,1-6.72,15.48c-7.68,13.08-17.28,19.68-28.68,19.68-11.88,0-19-6.72-21.36-20.28a66.54,66.54,0,0,1-.72-14.16l.72-7q0-27.72,2.16-49.32l5.64-59.4c1.08-14.4,4.56-32.52,10.32-54.48C392.76,206,397,197.52,402,192.84c4.08-4,8.52-5,13.44-3.48,4,1.32,7.56,4.2,10.8,8.76,3,4.2,4.44,8.16,4.44,11.76ZM547.8,193q19.44,78.66,19.44,119.28A405.67,405.67,0,0,1,564.48,358c-2.52,21.12-6,34.8-10.44,41.16a67.45,67.45,0,0,0-5.76,10.08c-2.52,4.92-4.56,8.52-5.88,10.56-5.4,8.76-13.68,16.32-24.6,22.44-12.36,8.28-23.4,15.48-33.12,21.84-19,12.12-31.2,18.12-36.72,18.12l-10.32-.24a12.54,12.54,0,0,1-1.68-3.36,10.46,10.46,0,0,1-.48-3.6,8.59,8.59,0,0,1,2.76-6.84l.48-.12,3.48-52Q446,355.56,445.92,340q0-23.58-1.08-34.92v-85.2a94.07,94.07,0,0,1-1.08-16.56c0-18.12.84-37.8,2.52-59.16,1.68-22.68,3.84-40.32,6.48-53.16l1.08,2.76c2.76-4,11.52-.6,26.4,10.08a274.94,274.94,0,0,1,35,29.88,138.23,138.23,0,0,1,21.12,29.64A133.1,133.1,0,0,1,547.8,193Zm-14.64-18.48a151.77,151.77,0,0,0-18.6-28.08C507,137.16,494.4,126.24,477,113.52c-6.12-4.44-11.76-8.4-17-11.76l-5.4-3.36v2.28c0,4.32-1.08,18.12-3.24,41.52s-3.24,43.56-3.24,60.72a51.9,51.9,0,0,0,1.08,12.24V301c.72,8.76,1.08,21.84,1.08,39.48a1015.13,1015.13,0,0,1-7.68,126.36Q521.4,442,547.44,394.08c6.72-12.36,11.16-26.64,13.2-42.6,1.2-8.88,1.8-22.08,1.8-39.48,0-14.52-2.28-33-7-55.56L543.24,201.6A106.27,106.27,0,0,0,533.16,174.48Zm47.4-74.28a6,6,0,0,0,.48,3.6l-.84,1.32a6.29,6.29,0,0,1-.84-2.88l-.48-2.76c-.6-1.8-2.88-2.76-7.08-2.76l-7.56.24c-2.64,2.16-5.64,7.8-9,16.8-3,8.28-4.56,13.68-4.56,16.44v4.44l.36-.24c1.2-.6,4.44-1.2,9.6-1.68l1.68-.36,11.64.12.6.48a4.61,4.61,0,0,1,.24,1.92,4.91,4.91,0,0,1-.36,2.28l-.72,1-15.12,1.2-6.6,1-1.32-.48-.12,2.16c0,7.32.12,13,.36,17,.6,7.2,1.2,11.88,1.92,13.92,2,5.88,6.48,9.84,13.32,12l10-.24a20.51,20.51,0,0,0,5.16-5l-2.76-4.44L580.2,173a9.64,9.64,0,0,1,3.36,3.84,8.13,8.13,0,0,1,1,3.12,14,14,0,0,1-1.8,6.6c-1.68,3-4,4.56-6.84,4.56-13.92,0-22.56-7-26-20.76a57.48,57.48,0,0,1-1.44-14.88l.36-7.92q0-20.7,1.44-29.88c2.16-13.56,6.72-22.32,13.68-26.16q14.58.18,16.56,4.68A8.18,8.18,0,0,1,580.56,100.2Z" transform="translate(-14.64 -90.82)"/></svg>