<svg id="Layer_1" data-name="Layer 1" xmlns="http://www.w3.org/2000/svg" viewBox="0 0 307.07 207.54"><defs><style>.cls-1{fill-rule:evenodd;}</style></defs><path class="cls-1" d="M311.28,280.2,305,280a121.08,121.08,0,0,0,4.8-11.76Zm-1.44-26.88-.6,3.72a108.8,108.8,0,0,0-24.6,52.44,17.6,17.6,0,0,0,1.08,10.08l2.64.24L299,292l14.16-.36,8.64,28.56a106.15,106.15,0,0,0-4.56-44c-1.56-4.92-3.36-9.6-5.28-14.28,2.64-3.24,2.64-5.88,0-7.8-.72,1.2-1.32,1.2-1.68.12Zm21.36-45.24,1.56,2.4,2.16.6Q360.66,261.48,352.8,319a102.23,102.23,0,0,1-13.2,37.8,53.54,53.54,0,0,1-20.4,19.68c-8.64,4.68-17.4,5.64-26.4,2.76-10.8-3.48-17.28-11.28-19.44-23.52a253.27,253.27,0,0,1,2.4-100.56,81.33,81.33,0,0,1,18.12-35.64l7-7.92a48.29,48.29,0,0,1,28.68-3.72Zm-46.8,4.32a130.35,130.35,0,0,0-16.56,48.84A312.69,312.69,0,0,0,275,383.52c1.8,7.08,6.24,11.28,13.2,12.84q37.08,7.74,53.64-25.8,20.52-41.4,20.52-89.16-.18-43-21-78.72l-2.28.12-1.2.24-1.32-.12-.84-.84q-9.18-10.8-25.2-7.2a40.18,40.18,0,0,0-11.76,4.92A35.26,35.26,0,0,0,287,211.08l-1.32.6ZM193,194.88l-1.56,3.72-.36-3.24q-17.82,61.38-32.52,126.24l-8.88,37.32c-.48,1.92-.84,4-1.2,6l-1,6a97.72,97.72,0,0,0-.6,17.76l.84,11.52a650.93,650.93,0,0,0,29.16-111.6c1.8-10.44,4.2-20.76,7-31.08l2.52-9.72,2.28-9.72c2.28,33.12,7.44,64.2,15.72,93.36l28.2-97.8A664.47,664.47,0,0,0,256,401.52q.36-52.38-11.52-108.36a231.13,231.13,0,0,1-4.32-28.56l-1.32-14.4-1.2-14.4a236.16,236.16,0,0,1-.72-34.44l.36-5.76-1,1.8-.12-2-31.8,109-11.88-94.8ZM397.2,213.12a195.5,195.5,0,0,0-26.52,94.8,254.15,254.15,0,0,0,6.36,63,32.13,32.13,0,0,0,14.88,20.76q23.76,14.94,46.92-.6a45.54,45.54,0,0,0,7.56-6.24l.36,13.2q.54,2.88,3.24,2.16l.48-.84a174.78,174.78,0,0,0,1.32-60.12,86.18,86.18,0,0,0-20.28,3l-.12.84a15.09,15.09,0,0,0,.12,7.32,83.56,83.56,0,0,0,17,3v.72l-1,8.16C442.44,372.84,433.92,379,422,380.52c-25.32,3.36-39.24-7.2-42-31.56a245.5,245.5,0,0,1,13.32-111.84c4.32-11.88,12.24-19.44,23.88-22.68q19.26-5.4,31.68,9.36l.24-.84c.36-17.52-9.48-26.4-29.28-26.76A33.87,33.87,0,0,0,397.2,213.12Z" transform="translate(-146.71 -193.98)"/></svg>