<svg id="Layer_1" data-name="Layer 1" xmlns="http://www.w3.org/2000/svg" viewBox="0 0 303.55 204"><defs><style>.cls-1{fill-rule:evenodd;}</style></defs><path class="cls-1" d="M299.88,282.12l4.08-7.44.84,7.08Zm8.52-15.84c-.48-4-1.44-7.08-2.88-9.12l-.36.12-1.8,7.8c-14.88,12.6-22.08,28.68-21.48,48.24l10.56-17.76,13.08-2.76,9.36,29.4a149.72,149.72,0,0,0-6.48-55.68ZM322,222.12q33.66,20.7,29.16,69.6a245.4,245.4,0,0,1-8.4,44.76A70.27,70.27,0,0,1,331.32,360c-8.76,11.64-20.4,15.6-34.92,11.64C277.8,367,268.32,353.76,268,332.16a410.26,410.26,0,0,1,2.4-54.12,124.74,124.74,0,0,1,10.2-38.28,144.83,144.83,0,0,1,13.8-25,39.36,39.36,0,0,1,25.92,3.36Zm20.4-4.56c-12.24-12.84-28.2-19-48-18.36a58.39,58.39,0,0,0-17.4,25,227.71,227.71,0,0,0-14.88,77.76,284.26,284.26,0,0,0,6,64.2q4.68,21.42,25.92,24.48,38.52,5.4,50.88-32.52a232.49,232.49,0,0,0,5.4-125.52A31.89,31.89,0,0,0,342.36,217.56Zm-154.44-9.24q-12.6,63.72-22.68,127.8a176.86,176.86,0,0,1-8.28,31.8c-4.2,11.4-5.28,22.08-3.24,31.92a98.17,98.17,0,0,0,13.92-38.64q9.54-64.44,24-125.28c.36,11.4.84,22.68,1.56,34.08a322.85,322.85,0,0,1,0,34.08c-.6,9.24,1.32,16.44,5.64,21.72,11.52-28.68,21.6-57.84,30.36-87.72a734.45,734.45,0,0,0,7.08,96.36,268,268,0,0,1,2.64,32.4c.24,12.12,3,22.32,8.4,30.84a2.11,2.11,0,0,0,.72-1.56,412.88,412.88,0,0,0-5-70.68,471,471,0,0,1-5-95.64c.6-12.24-1.56-22.68-6.36-31.2q-14,48.6-30.24,97.68c-1.32-16.2-2.16-32.52-2.28-48.72a236.75,236.75,0,0,0-5.28-48.72A14.27,14.27,0,0,0,187.92,208.32Zm266.28-6.6A201.54,201.54,0,0,0,449,242.16L446.88,306l-18.24-.48c-5.64-.12-9.84.72-12.36,2.76-.24-24.12-.6-48.12-1.2-71.76h-.6a408.79,408.79,0,0,0-5.76,82.68,300.46,300.46,0,0,1-2.4,47.76c-1.56,12-.36,22.8,3.84,32.4a92.41,92.41,0,0,0,6.24-34.68V322.44a207,207,0,0,0,29.88-.48L444,371.16c-.6,12.6,1.44,23,6,31.44,2.76-23.88,4.44-48.12,5.28-73q2.16-65-.48-128.28Zm-98.88,10.92,1.32,1.68,30.6.6q-4.5,60.66-6.72,121.44a204.5,204.5,0,0,1-3.6,32.16c-2.16,11.88-1.2,22.68,3,32.4a344.57,344.57,0,0,0,9-64.56c1.8-40.92,1.92-81.48.24-121.44l31.56.72a11.34,11.34,0,0,0,1.68-10.56l-.36-.72-.72-1.68a1.24,1.24,0,0,0-1-.48,64.79,64.79,0,0,0-23.16-1.68c-12.24.12-24.48.36-36.72.84a22.21,22.21,0,0,0-4.92.84,13.92,13.92,0,0,0-.48,9.6Z" transform="translate(-152.72 -198.6)"/></svg>