<svg id="Layer_1" data-name="Layer 1" xmlns="http://www.w3.org/2000/svg" viewBox="0 0 296.31 208.8"><defs><style>.cls-1{fill-rule:evenodd;}</style></defs><path class="cls-1" d="M333.24,320.88a56.7,56.7,0,0,1,5,34.44q-5.58,34.38-43.56,28a5.55,5.55,0,0,1-4.44-3Q270.66,338.52,303.84,303C317.4,302.52,327.24,308.52,333.24,320.88Zm-13.32-30.36a49.58,49.58,0,0,0-15.84-2.16q-25.56,23.58-29.4,59.64c-2,19.8,2.88,36.48,14.76,50.28q31.5,9.18,49.2-17.28c7.44-11.28,10.56-24,9.24-38.28Q345.18,311,322,290.88ZM190,198.6a192.85,192.85,0,0,0-5.64,20.16Q170.1,281.22,158,343.8q-3.06,15.84-7.2,31.32c-2.64,10-1.56,17.64,3.36,23.16,3.6-14.52,6.72-29.4,9.24-44.52q10.62-60.12,25.56-119.4c3,25.56,5.16,51.12,6.72,76.56.72,11.64,3.12,22,7.2,30.84l.48-.84,1,1.92c7.8-38.52,17.16-76.68,28.08-114.72l1.08-4.2a163.63,163.63,0,0,0,2.16,24q9.9,62.82,15.12,126.36c1.08,12.12,4,22.2,8.64,30.48a2.8,2.8,0,0,0,1.2-2.4,678,678,0,0,0-5.52-76.44q-7.92-60.66-19-119.88.18-5.22,0-10.08a283.77,283.77,0,0,0-19.44,56.64c-4.2,17.88-8.52,35.76-13.08,53.64q-4.86-45-10.92-89.64A82.28,82.28,0,0,0,193,197l-.72.12Zm253.68,1.08L376.92,196a779.3,779.3,0,0,0-7,103c0,8-.12,16.08-.48,24.12-.6,12.12-1.56,24.12-2.76,36.12C366,366,365.64,373,365.52,380a59.68,59.68,0,0,0,2.88,19.44l1.2,3.36a691.24,691.24,0,0,0,8.76-113.16A168.1,168.1,0,0,1,428,288.36c3.72-4.68,4-9.72.72-15.24l-.24-.36a76.88,76.88,0,0,0-50,3.48l-1-65.88,65.64,4c2.88-3.72,3.36-8,1.44-12.72Z" transform="translate(-149.44 -195.96)"/></svg>