<svg id="Layer_1" data-name="Layer 1" xmlns="http://www.w3.org/2000/svg" viewBox="0 0 280.09 203.64"><defs><style>.cls-1{fill-rule:evenodd;}</style></defs><path class="cls-1" d="M256.68,397c-1.08-39.24-3-78.84-5.88-118.56a398.55,398.55,0,0,0-13.56-78.72,250,250,0,0,0,1.32,40.68Q245.4,303.9,248,367.8c.48,11.88,3.12,22.08,7.92,30.72A2.58,2.58,0,0,0,256.68,397Zm55-109.8c-15.72,2.4-26.76,11.52-33.24,27.24a103,103,0,0,0-7.68,46.92c1.2,16.92,9.48,28.56,25,34.8,9.36,4,18.12,1.44,26.16-7.32A72,72,0,0,0,340.32,351a76.7,76.7,0,0,0-6.12-45.84C329.76,295.56,322.2,289.56,311.64,287.16ZM299.16,304c18.48-3,29.4,4.92,32.76,23.64,2.88,16.08-.72,30.48-10.68,43.2q-19.08,24.3-35.4,1.08a42,42,0,0,1-7.56-31.08A61.29,61.29,0,0,1,296,304.92ZM194,197.28a40.62,40.62,0,0,0-5.52,14.16L163.44,337a221.1,221.1,0,0,1-8.64,30.84c-4.2,11.88-4.44,22.32-.6,31.56a52.36,52.36,0,0,0,5.4-14.64q12.06-62.46,28.2-124.56a188.35,188.35,0,0,0,5.4-27.72c.6,4.2,1.32,8.28,2.16,12.48,3,14.76,5.52,29.64,7.44,44.52a126.16,126.16,0,0,0,2.4,12.72c-.84,7.08.24,13.32,3.48,19l1.32-4.68.84,1.68a4.08,4.08,0,0,0,1-3.12l-.36-3.72c5-17.64,10.32-35.52,15.84-53.52a192.67,192.67,0,0,0,8.88-61.56,880.92,880.92,0,0,1-27.24,91.68q-5.22-43-14.52-85.2Zm228.72,91.8a512.19,512.19,0,0,0-6.24,72.72q-.36,22.14-19.08,19.44c-1.2-2.88-3.12-4.44-5.64-4.56-5.16,12.6-.84,20.4,13,23.16,4.92-.72,8.28-3.24,10.08-7.68a142.18,142.18,0,0,0,10.44-48,381.27,381.27,0,0,0-1.8-55.2Zm-.84-18.6a43.63,43.63,0,0,0,2.88-29.64c-6.72,9-7.8,19-3.12,29.76Zm7.2-70L341.4,204c-1.56,4-1.2,7.44,1.08,10.56a386.28,386.28,0,0,0,45.36,2.64q-3.6,41.22-6,83.16c-.6,10.44-1.32,21-2.4,31.44a261.43,261.43,0,0,0,1,64.32,1.75,1.75,0,0,0,1.08-1c2.76-18.6,4.8-37.44,6.24-56.64a976.76,976.76,0,0,0,1.44-121.32l40-2,.72-1Q433.62,207,429.12,200.52Z" transform="translate(-151.48 -196.2)"/></svg>