<svg id="Layer_1" data-name="Layer 1" xmlns="http://www.w3.org/2000/svg" viewBox="0 0 569.28 415.56"><defs><style>.cls-1{fill-rule:evenodd;}</style></defs><path class="cls-1" d="M407.88,444.12l3.48-2.88-6.6-7a7.74,7.74,0,0,0-3.84-2.28l-6,.24-13.32.6h-.48l.12,2.52-.6,10.2,25.56-.36ZM103.68,105.84C96.36,131.4,89.52,161,82.92,194.52c-2.64,13.32-8,43.2-16.08,89.4Q57.3,339.18,49.68,373.2q-10.8,49-24.24,88.8a5.94,5.94,0,0,1-2.52-3.24,11.68,11.68,0,0,1-.72-4.08c0-.84,3.36-13,10.2-36.6,7.44-26,12.36-44.88,14.64-56.4L56.88,315c4-19.08,7-34.68,9.12-46.56q3.06-16.38,7.56-46.08c3.24-22,5.76-37.56,7.32-46.8,6.36-37.08,14.28-68,23.52-93q2.88,23.22,3.6,58.32c.12,8,.24,28,.24,59.76l.12,26.28c.12,17.88.48,31.44,1,40.68v55.08l.24.84v65.76l3.84,43.8h.24A859.34,859.34,0,0,0,131.16,345q5.76-38.52,10.32-88l7.2-44.28c2.88-18.12,4.08-32.76,3.72-44.16a195.61,195.61,0,0,1,.24-22l1.92-21.84c.36-9.84.84-17.4,1.44-22.56,1-9.24,2.76-16.08,5.52-20.28,2,19.32,4.68,50.52,8.16,93.72,3.24,40.44,6.12,71.88,8.64,94.08q11.88,109.62,36.24,188.76l-.6.24,1.44.24,2.64-.48a5.24,5.24,0,0,0,1.92,2l-1,2a134.45,134.45,0,0,0-5.28,12.72q-23.22-76-36.24-175.8-4.86-37.44-9.6-88.08L160,124l-.36-.6q-7,104.58-15.12,169.56-11.7,93.78-31.92,170.16c-2.88-8.28-4.68-19.2-5.52-32.76-1.2-20.52-1.92-31.92-2.28-34.32V322.92l.24-.84V272.76l-1.08-3.24V106.32ZM514.56,401.76c5.76,7.08,10.2,12.72,13.2,16.8A164.94,164.94,0,0,1,542.52,442c-.12,0-.24.12-.48.48l-.24,1c-2.4-2-8.4-9.36-18-21.72-6.12-7.92-10.32-13.8-12.72-17.52-8.28,5.64-13.8,9.6-16.8,11.88-2,9-3.84,15.84-5.52,20.28h-1.08l-.6-1.32-.24-2.76c0-2.28,1.2-9.84,3.72-22.68,2.76-14.52,5.28-24.36,7.32-29.76,1.08.36,1.56.6,1.56.72a3.24,3.24,0,0,1,.6,2.28c0,2.76-1.2,10.2-3.6,22.56A88.66,88.66,0,0,1,511,394c10.68-7,20-12,28.32-15.24l.6.84a9,9,0,0,1,.24,2.4c0,1.8-6.84,7.32-20.52,16.44Zm-10.44-62-.24,1.08c2.76-.72,7.68-.6,14.64.24l9.48,1.08,16.68.6.84.84a9,9,0,0,1,.24,2.4,9.62,9.62,0,0,1-.36,2.76L545,350l-9.36-.24-9.36-.6-4.44-.36-4.8-.72-13.2-.24-1.2-.48a65.13,65.13,0,0,0-.48,8.52c0,3,1.44,5.64,4.2,8.16,3.48,3.24,8.64,4.8,15.36,4.8a113.5,113.5,0,0,0,24.12-2.16c7.08-1.56,11.64-4,13.68-7l.36-.36c.12-.12.24.48.24,1.56,0,3.48-2.4,6.84-7.08,10.2-5.76,4.08-13.2,6.12-22.2,6.12-15.24,0-25.2-3.36-29.76-10.2a16.65,16.65,0,0,1-2.52-7.56l.12-4.2A59,59,0,0,1,500.88,341c1.68-6.48,3.84-11.76,6.6-15.72,7.44-11.28,16.56-10.08,27.24,3.6l-.84,1.56c-.24,0-2.64-1-7.08-2.76s-7-2.88-7.68-2.88C511.8,324.84,506.88,329.76,504.12,339.72Zm-117.84-3.84c4.2-14.28,6.36-23.16,6.36-26.64q0-65.7-11-107Q364.86,139,319.32,100.68q-33.66-28.26-72,14.4a218.42,218.42,0,0,0-24.72,34.56c-4.2,7.08-8.4,14.52-12.36,22.2-5.4,10-10,26.28-13.68,49.08-3.48,20.76-5.28,39.24-5.28,55.44,0,9.12.72,20.16,2,33,2.52,22.44,6.48,42.84,12.12,61.2q11.52,37.62,30.72,59c16,17.64,35.28,26.52,58.2,26.52,27,0,51.48-23.4,73.2-70.08A362.52,362.52,0,0,0,386.28,335.88ZM367.8,402.24c-9.84,20.28-20.4,36.36-31.68,48-12.6,13.08-25,19.68-37.32,19.68q-38.88,0-65.16-28.92c-14-15.48-25.2-37-33.36-64.2a347.06,347.06,0,0,1-12.36-66q-1.8-18.54-1.8-34.2c0-15.72,1.8-33.48,5.52-53a314.21,314.21,0,0,1,19.08-65.16c10.2-23.64,22.56-42.24,37.32-55.8Q274,78.66,307.68,77.4q46.44,35.28,70.32,98.52a302.86,302.86,0,0,1,19.8,108.24c0,16.8-2.76,35.88-8.16,57.36A322.59,322.59,0,0,1,367.8,402.24Zm56.76,4.8c0,4.2,1.56,8.52,4.68,13.08A20.13,20.13,0,0,0,447,429.6c10,0,18.48-1.8,25.8-5.52l6.6-4A18.23,18.23,0,0,1,483,418a43.3,43.3,0,0,1-7.32,10.44l-3.84,3.6a5.27,5.27,0,0,0-4.32,1.56,6.86,6.86,0,0,0-1.32,1.92A27.05,27.05,0,0,1,454.56,438c-15.24,0-25.32-4.56-30-13.8a25.69,25.69,0,0,1-2.64-10.32v-6.36a51.61,51.61,0,0,1,2.4-16.68c3.36-9,9.48-13.56,18.36-13.56,3.6,0,7.32,1.44,11.16,4.44,3.48,2.76,5.4,5.28,5.64,7.56a75.06,75.06,0,0,1-7.56-2.64c-4-1.56-6.36-2.28-7.08-2.28-8.28,0-14.16,3.48-17.52,10.56A27.63,27.63,0,0,0,424.56,407Zm-45.24,19.2,17.16-1.8,13.32,9.84c3.24,2.28,4.8,4.92,4.8,7.68a5.65,5.65,0,0,1-1.92,4.08l-6.48,6-26,.48c-.72,10.56-1.08,18.48-1.08,23.88l-.48.48-.84.84c-.84-2.52-1.32-6.6-1.32-12.24,0-4.44.12-10.08.36-17.16l.36-16-.24-.12a7.77,7.77,0,0,1-.24-2.76,4.34,4.34,0,0,1,.36-2.16A3.66,3.66,0,0,1,379.32,426.24ZM474.12,317l.24,2.4.36,1.8c.12.84-.36,1.44-1.2,1.92q-3.6,2.16-20.52,2.16l-10.92-.6c1.32,25.44,1.92,40,1.92,43.56a14,14,0,0,1-1.08,6.12H441.6l-.48-23.16-.6-15.48c0-4.68.12-8.4.24-11.16l-1.08-.12-11.88-1-7.44-1-11.16-1a11.54,11.54,0,0,1-.36-3.6,2,2,0,0,1,1.08-2,26.14,26.14,0,0,1,6.84-.84h54.12A3.21,3.21,0,0,1,474.12,317Zm36-76.8a24,24,0,0,1,1.08,7.32c0,5.76-.6,14.52-1.68,26.28h5.76v-.48l23.52,2.76V266a23.13,23.13,0,0,0,1-6l.6-6.72c.72-5.52,2.52-9.48,5.4-12l.84,1.08.24,2.64c0,2.4-.72,6.72-2,13-1.32,5.4-2.4,9.6-3.36,12.6v6.48a2,2,0,0,1,1,1.08l.12,3-.24,3-.48,1.92-.36-.12v34.8l-.6.48-1.2.6-1.2-2.16a8.13,8.13,0,0,1-.48-3.12l.24-2.64.6-1.8V284.4l-.72-.12c-3.24-1.08-10.68-1.92-22.32-2.76-.12-.24-.72-.48-1.8-.6l-5-.48-.6,5c-1.8,16.92-3.24,28.32-4.44,34.2H502.2a48.22,48.22,0,0,1-.24-5.28L503,299.88q1.08-14.4,1.08-21.6c0-1.08.72-6.72,2-16.68s2-16.08,2-18a4.46,4.46,0,0,1,.72-2.76A1.67,1.67,0,0,1,510.12,240.24ZM494.28,153,509,152l.72,1.32.36,2.76-.24,2.4-.6,1.44-4.32.24c-2.88.36-4.32.6-4.32.84l-6.24.72-3.72.36a20.47,20.47,0,0,0,1,5.16V220l.24-.72.12,1.44c0,1.8-.12,2-.36,1v59.88L487.56,327c-1.8,19.08-3,34.8-3.48,47l-.48.48-.84,1c-1.08-2-1.68-5.76-1.68-11.16,0-6,1.32-21.48,3.84-46.32L489,280.68v-111a55.18,55.18,0,0,1-.6-7.68l-4.08-.24-4.56-.72-12.72-.6-.6-1.08-.24-2.52a6.47,6.47,0,0,1,.36-2.64l1.08-1.8,7.68.72,8.88.84Zm-89.76,44L404,221.88A155.18,155.18,0,0,1,403,243l-.72.48-1.2.6c-.6-5.88-.84-15.24-.84-28.08,0-15.48.12-25.56.24-30,.48-11.76,1.68-21.12,3.6-28.2a32.76,32.76,0,0,1,1.08,9.72ZM479.28,89.88l-.84,1.32a19.11,19.11,0,0,0-4.92-5.76,17.82,17.82,0,0,0-12-4.8c-9.24,0-15.72,4.92-19.68,14.88a44.44,44.44,0,0,0-3.24,15.84c0,2.64,2.16,8.52,6.6,17.64l14.16,28.92q20.7,43,20.64,62.64a27.21,27.21,0,0,1-5.88,17c-5.52,7.08-13.68,10.56-24.36,10.56-16.68,0-27.48-4.56-32.28-13.8a23.28,23.28,0,0,1-2.52-10.2l.12-6.48q0-5.4,2.16-8.28c1.32,1.8,1.92,4.56,1.92,8.28,0,5.64.84,9.84,2.4,12.6,3.24,5.64,9.48,8.4,19,8.4,10.92,0,19.92-2.4,27.12-7.32,5.76-3.84,8.64-7.56,8.64-11,0-7.56-2-16.68-6.24-27.6-2.76-7.08-7.44-17-13.92-29.64-7.2-14-11.88-23.4-13.92-28.2-4.2-9.72-6.24-17.4-6.24-23,0-12.36,2.28-21.84,6.84-28.56a20.73,20.73,0,0,1,15-9.72,21.61,21.61,0,0,1,14.88,3.24c4.56,2.88,6.84,6.24,6.84,10.2A8.81,8.81,0,0,1,479.28,89.88ZM586.56,96.6,585,98.28,582.12,95a32.72,32.72,0,0,0-6.24-5.52c-7.44-5.16-17.76-7.8-30.84-7.8-11.88,0-21.36,5.76-28.68,17.28a60.66,60.66,0,0,0-5.88,12.6c-1.2,3.36-1.8,5.64-1.8,7q0,12.78,13,40.32,7.74,16.38,28.44,57.12,18.9,38.88,28.56,70.08,12.78,41.94,12.84,79.56a135.19,135.19,0,0,1-2.88,29.76l-8.4,33.84q-3.78,17.1-36,38.16a200.11,200.11,0,0,1-22.92,13.08q-10.26,5-12.6,5c-15.24,0-26.28-4.32-33.12-12.84-4.2-5.16-6.36-10.56-6.36-16a10.56,10.56,0,0,1,2.16-6.12l2.16-2.52-.12-1.32h.12a48.56,48.56,0,0,0,2.76,8.88c4.32,10,10.8,15,19.44,15q48.06,0,72.6-40a123.39,123.39,0,0,0,13.92-34.56,132.49,132.49,0,0,0,3.84-30.48q0-33.48-12.72-72.48-9-27.54-28.08-67.08c-16.68-34.44-26-54.24-28.08-59.16-8.52-20-12.84-36.36-12.84-48.72,0-16.68,4.32-29.28,13-37.68C524.64,73.44,534.12,70,545.76,70a58,58,0,0,1,28.56,7.56c8.52,5,12.84,10.56,12.84,16.68A4.41,4.41,0,0,1,586.56,96.6Z" transform="translate(-22.2 -69.96)"/></svg>