<svg id="Layer_1" data-name="Layer 1" xmlns="http://www.w3.org/2000/svg" viewBox="0 0 266.39 210.75"><defs><style>.cls-1{fill-rule:evenodd;}</style></defs><path class="cls-1" d="M202.92,194l-4.08,2.52Q180.12,272,163.2,348.72l-1.2,3.84-2.76,7.56-1.68,5.16a78.31,78.31,0,0,0-3.36,14.64,70.74,70.74,0,0,0,0,18.84,989.68,989.68,0,0,0,46.68-178.92q2.7,59.58,22.92,112a584.87,584.87,0,0,0,41.28-116.52l.6-3.72a1018.19,1018.19,0,0,0,34.08,184.08,3.9,3.9,0,0,0,1.2,2.16l.84,1,1,.84a910.9,910.9,0,0,0-17.88-113.28c-1.2-5.16-2.28-10.44-3.12-15.72L278.88,255l-5.76-31.32c-2-10.68-4.32-21-7-30.84l-1,2.76a776.82,776.82,0,0,1-41.52,112.08L202.92,209.4ZM413.4,297.36a376.87,376.87,0,0,0-3.84,45.48c-.36,16.32-7.56,28.92-21.36,37.68-16.44,10.68-27.84,7.56-34-9.36-4.92-13.44-6.24-27.72-4.08-42.84a152.55,152.55,0,0,0,1.08-33.12c-8.88,25.32-11.4,52-7.68,80.16,1.8,13.32,9,22,21.48,26,18.6,6.12,32.88-.6,42.6-20.16,12.12-24.36,15.24-49.56,9.6-75.84A18.53,18.53,0,0,0,413.4,297.36Z" transform="translate(-153.57 -192.84)"/></svg>