<svg id="Layer_1" data-name="Layer 1" xmlns="http://www.w3.org/2000/svg" viewBox="0 0 552.61 349.56"><defs><style>.cls-1{fill-rule:evenodd;}</style></defs><path class="cls-1" d="M191.76,107.4a1004.71,1004.71,0,0,0-22.2,106.32L150.24,340.56c-2.28,14.76-4.8,29.4-7.56,44.16q-2.34-28.62-6.84-57.24-7.38-47.16-10.68-94.92c-3-41.76-7.56-83-13.92-123.72l.48-5.52-.84-.72-1.08-.84a345.42,345.42,0,0,0-18.72,61.68L64.68,288.72Q51.54,350.46,35.16,411.48l-.12-.24c-4.44,9.6-3.84,18.12,1.8,25.68a93.38,93.38,0,0,0,8-21.72q14.76-62.46,28-125.16t28.44-124.68c3.36-13.56,6-27.12,8-40.68q2.7,45.9,6.12,91.8,4.86,64.08,14.28,127.32A479.15,479.15,0,0,1,135,408c.24,12.24,3,22.8,8.4,31.68a2.77,2.77,0,0,0,1.32-2.4L144.6,424a466.07,466.07,0,0,0,7.92-48.6q5.4-47.88,12.6-95.28Q175,216.9,188,154.68A173.06,173.06,0,0,0,191.76,107.4Zm2.16,5.16a200.23,200.23,0,0,0,.84,48.48c5.4,42.12,10.92,84.36,16.8,126.48S222.84,372,228,414.36q2.34,18,10.08,31c4.32-5.52,5.4-12.12,3.36-19.68q-7.56-29-12.24-58.68-10.08-63.18-17.28-127-7.2-63.18-15.84-125.76l-.84-.84ZM387.12,289.2a294.23,294.23,0,0,0-6.6,52.56c-.36,10.68-1.2,21.48-2.52,32.28a274.53,274.53,0,0,0,0,64.32,23.79,23.79,0,0,1,5.64,3.24c14-2.64,26-.72,36,5.64,5.76-7.68,5.88-15.12.24-22.2l-36.72-3.24.12-5.64A1264.2,1264.2,0,0,0,388,288.72C387.36,288.84,387.12,289,387.12,289.2Zm99.36-153.12,2.4.36a69.26,69.26,0,0,0,8.64,9.12,3.1,3.1,0,0,0,2.52.6c.72-18.6-8-26.52-26.28-23.52-7.8,1.44-13.32,6-16.68,13.8q-7.74,18.36-14.4,37.44a301,301,0,0,0-16,78.6l-2,31.92c-1.08,15.24-1.56,30.48-1.68,45.84a297.4,297.4,0,0,0,3.36,47.28,284,284,0,0,0,11,45.36q8.46,25.38,32,18.36c19.8-5.88,25.68-16.68,17.64-32.64-7.32,11.4-17.64,17.16-31.2,17.28q-35.46-54.54-28.8-124.44c3.6-38.52,8.88-76.68,15.84-114.72a85.86,85.86,0,0,1,19.92-42.24,25.85,25.85,0,0,1,12.24-7.92,46.29,46.29,0,0,1,9.48-2ZM363,119.76a14.94,14.94,0,0,1,1.32,5.64l1-.36q-.18,33.84.36,67.32c.6,42.84.24,85.68-.84,128.28Q363,386.7,311.4,424.56A42.8,42.8,0,0,1,290,423.48c-9-5.4-14-13.56-15.12-24.24a1216.7,1216.7,0,0,1-5.4-125.88q.54-64.8,2.52-129.12c.36-12-1.2-22.44-4.44-31.44a420.28,420.28,0,0,0-3,44.64q-1.26,62.64-1.92,125.88A850.82,850.82,0,0,0,271,412.2q4.68,34.38,40.68,30.24,31-17.46,43.32-50a284.1,284.1,0,0,0,18.36-89.52c1.8-43.08,2.52-86,2.16-129.12a384.6,384.6,0,0,0-5.88-64.2l-.48.12c-2.88,1.8-4.2,4.56-3.84,8.28Zm216,.48a299.34,299.34,0,0,0-3.6,53.52q1.08,47,.24,93.72c-19.44.84-38.76,2.52-58,4.92q2.7-62.28,9.36-124a92.61,92.61,0,0,0-1.56-31.8,219,219,0,0,0-9.72,52.2c-3,42.6-5.4,85.44-7.44,128.28q-2.88,63.9-10.44,128-1.8,14.94,6.48,22.68c3.24-17.16,6.12-34.2,8.64-51.24l-.6,1-2,4q4.32-57.78,6.72-115.2a304,304,0,0,0,58.2-1.56l-.6,18c-1.32,42.72-3.36,85.2-5.88,127.44v-.84A54.39,54.39,0,0,0,567.12,414c-1.8,14.28.24,26.64,6,37.32a14.7,14.7,0,0,0,4.44-9.6c1.92-21.24,3.12-42.72,3.6-64.32l3.24-129a1032.36,1032.36,0,0,0-4.8-128.28Z" transform="translate(-32.11 -101.76)"/></svg>