<svg id="Layer_1" data-name="Layer 1" xmlns="http://www.w3.org/2000/svg" viewBox="0 0 476.08 347.18"><defs><style>.cls-1{fill-rule:evenodd;}</style></defs><path class="cls-1" d="M164.64,100c-1.8,13.08-3.6,26.28-5.64,39.36l-19.32,127.8q-9.9,64.44-24.48,127.32c-1.2-14-2.28-28.08-3.12-42.12l-2.88-43q-4.5-63.72-5-128.28a615.49,615.49,0,0,1,2.64-64.92c.6-7.32-1.08-12.24-5.28-14.64q-4.86,35.1-11,70.44Q79.32,236.4,66.24,300.48C61.8,322.08,57,343.56,51.6,364.92a168.23,168.23,0,0,0-5,48q16-62.28,28.8-126.12Q88,222.72,99,159.12v4.08q-.18,64.08,3.72,127.44l7.92,128.16c.84,1.8,2,2.52,3.72,2.16a508.34,508.34,0,0,0,16.08-60.72c4.08-20.16,7.8-40.44,11.16-60.72q10.8-64.8,19.92-127.2c1.2,32.52,2.64,64.92,4.44,97.44,2.28,43.32,6.36,86.52,12,129.36,1.68,12.12,5,22.56,10.08,31.08A17.52,17.52,0,0,0,190,418.08q-10.8-63-15.84-126.72-5-63.9-4.56-128.16A490.06,490.06,0,0,0,166.08,99C165.24,98.88,164.76,99.12,164.64,100Zm152.16.12c-2,39-2.52,78.6-1.44,118.56a841,841,0,0,1-6,129.12q-4.68,38.34-31.2,64.08a57.53,57.53,0,0,1-43.08.24C224.16,394.92,219,375.48,219.36,354l3-129.12c1.08-43.08.36-85.92-2.4-128.28a176.52,176.52,0,0,0-4.08,40.08q.18,64.44-1.92,129a1158.72,1158.72,0,0,0,2.64,127.56c1.56,19.44,11,31.68,28.56,36.6,9.48,2.64,18.48,1.92,26.76-2.28q32.58-16.56,39.6-54.48a665,665,0,0,0,10.8-129.24c-.72-43.08-.6-86,.36-129.12C322.8,107.4,320.88,102.48,316.8,100.08ZM424,108q-2.88,63.9-7.44,127.44c-3,42.72-5.52,85.44-7.32,128.28a241.57,241.57,0,0,1-3.12,31c-1.32-6.48-2.52-13.44-3.72-20.88q-10.26-63-25.44-125.28c-2.52-10.44-4.92-20.76-7-31.2q-11.34-54.54-19.08-109.08l-1.32,7.68-.84-14.4q-2.7,49.5-4.2,100.92c-1.32,42.84-3.24,85.68-5.76,128.28-1.32,21.72-3.36,43.32-6.12,64.68-1.56,12.72,0,23.28,4.8,31.56a71.5,71.5,0,0,0,3.84-21q2.7-64.08,5.88-128.28l2.4-47.88q2.16-43,1.08-86.28l.84,4.2q7.56,33.66,13.2,67.68c2.52,15.48,5.64,31,9.24,46.44Q386.52,316,394.2,371.16a383.66,383.66,0,0,0,13.8,62,38.08,38.08,0,0,0,3.6-19.56c2-38.4,4.32-76.92,6.6-115.68,1.32-21.36,3-42.72,4.8-64.08a944.54,944.54,0,0,0,2.64-127.56C424.56,106.2,424.08,106.8,424,108Zm98.52,36.72q-1.08-31.5-34.32-38.88l-5.4,2.88a27.05,27.05,0,0,0-7.68,6.24,59.39,59.39,0,0,0-23.88,31.56,369.88,369.88,0,0,0-18.6,128.64q1.62,50.22,4.08,99.84,1.8,35.1,29.28,53.64a77,77,0,0,0,21.6,2.4,89.84,89.84,0,0,0,8.28-4.32c6-3.72,10.56-7.8,13.56-12.48-.12,10,.24,19.8,1,29.52a2,2,0,0,0,2.28-1.68,145.13,145.13,0,0,0,5.16-27.36A232.58,232.58,0,0,0,514.68,348H513a35.21,35.21,0,0,1-12.72-2.4l-.24-.12a10.84,10.84,0,0,0-9.72,2.76l-.24.84v2.4l.24,1.68,22.2,7.8a37.64,37.64,0,0,1,0,9q-1.44,11.34-2.16,22.68a62.41,62.41,0,0,0-7.56,8.88q-15.66,21.6-39.6,7c-11.76-7.32-18.24-18.24-19.56-32.76q-3.42-40-4.68-80.52a453.8,453.8,0,0,1,9.12-107.76,156.36,156.36,0,0,1,18.48-48.12c7.08-12.12,17-18.36,30-19a40.19,40.19,0,0,0,7,5.88,59.73,59.73,0,0,1,18.72,19.32Z" transform="translate(-46.4 -96.6)"/></svg>