<svg id="Layer_1" data-name="Layer 1" xmlns="http://www.w3.org/2000/svg" viewBox="0 0 583.2 573"><defs><style>.cls-1{fill-rule:evenodd;}</style></defs><path class="cls-1" d="M349.68,541.2a29.53,29.53,0,0,0,6.12,6.12c6.84,5.16,15.36,7.8,25.44,7.8,13.08,0,22.68-3,28.8-8.88a35,35,0,0,0,5-6.6l2.16-9.48L416,529a4.88,4.88,0,0,0-2.52-.6q-4.68,0-14,2.52l-10.32,2.64-3.36-.36-1.32-.24-.36-.72a3.8,3.8,0,0,1-.36-2c0-.24,1.92-1.2,5.88-3a85.52,85.52,0,0,1,13-4.68q18.72-5.22,18.72,5.76a129.84,129.84,0,0,1-2,21.84,113.14,113.14,0,0,1-5.52,20.76h-.84c-.36-2.16-.6-5-.84-8.52l-.24-7a41.8,41.8,0,0,1,1-5.88l-3,3c-8.16,7.32-16,11-23.4,11q-25.56,0-36-13a26.36,26.36,0,0,1-4.68-9.12,18.55,18.55,0,0,1-.72-4.68c0-9.12,2.4-18.84,7.32-29.16,5.76-12,13.2-20.16,22.2-24.48,16.56-1.32,28.2.24,34.8,4.68,3.48,2.28,5.28,4.92,5.28,7.92,0,1.8-.12,2.52-.36,2l-.12.12-.36.72-1.2.24a4.17,4.17,0,0,1-1-3.36,6.17,6.17,0,0,0,.12-2.52c-.84-1.56-7.2-2.28-18.84-2.28-14.52,0-25.92,5-34.32,15.24a46.94,46.94,0,0,0-10.8,30.84C347.76,537.84,348.36,539.28,349.68,541.2ZM191.28,39.12l-2.16,69q0,43.38,3.84,115.44,4.5,84.06,5.16,113.76l8.76,105.6c5.64,68.28,8.52,109.32,8.52,122.88a8.27,8.27,0,0,1-2.16,5.88c-4.08-14.4-6.6-32.16-7.68-53.4-.6-23.88-1.2-41.64-2-53.52-.6-7.32-2.52-25-5.76-52.8-2.52-22.2-3.84-40-4-53.52q-.36-41.76-3.36-106.44l-5-106.2V70.32a40.65,40.65,0,0,0,1.08-8.88l-.36-.6q-4.68,28.26-18.6,128.28-11.16,79-20.88,127.32-8.46,42.3-24.84,127.32-14.94,74.88-28.68,127.32c-.72-.36-1.32-1.44-1.92-3V379.8a45.83,45.83,0,0,0,1.08-10.92Q92.28,344,82.44,203L71.76,49.56,71.4,49Q45.84,139.86,32.52,256.2C29,286.56,25.8,321.36,22.8,360.36c-1.32,17.76-3.6,52.44-7.08,104.16v55.92c-2,23.52-3.24,40.32-3.84,50.4l-.36.48-.72.84c-.84-2.52-1.32-6.36-1.32-11.52l1-18.36,1-18.6a25.56,25.56,0,0,1,.24-3.24l.84-2.4V461.16c2.76-49.08,5-84.84,6.6-107q4.32-59.94,9.84-107.64Q43,126.42,71.4,31.92l1.08-.84Q82.56,151.14,86.4,207.72,93.24,305.46,95,383.28V550.56h.24q19.62-97.74,51.12-262.32,12.42-87.66,19-131.52,11.7-77.22,24.36-129.36C190.8,30.12,191.28,34,191.28,39.12Zm134.64-6.48,1.2,4.92v72.36Q326,117.12,326,132.6a486.78,486.78,0,0,0,3,49.32c2.52,25.8,4.08,43.08,4.56,52,.84,13.8,1,34.32.6,61.56l-.84,38.76,3.24,86.4c0,5.4-1.32,19.56-4.08,42.72-2.52,22.2-4.2,34.44-4.8,36.84-4.92,17.88-11.4,34-19.68,48-11.76,20-24.24,30-37.44,30l-10.32-.36a228.56,228.56,0,0,1-18.36-53.28,368.15,368.15,0,0,1-7.08-54c-.36-5.4-1.08-23.52-2.28-54.12q-1.26-32.94-4-53.64c-1.08-9.12-3.24-43.92-6.24-104.28-3-59.88-4.56-96.6-4.56-109.92,0-25.92.6-47.28,1.68-64,1.68-26.76,4.8-45.12,9.48-55.32a14.45,14.45,0,0,1,1.8,1.2,3.81,3.81,0,0,1,.84,2.76c0,2.76-1.44,9.72-4.2,20.88-3,11.64-4.68,19.68-4.92,24.36q-.9,14.58-1.08,44.64,0,41.94,11,221.52c1.08,13,2.28,31.44,3.36,55.32,1.08,25.56,2.16,44,3.12,55.44,3.48,43.32,11,80.16,22.8,110.76h10q33.48-14.4,49.56-68.28a273.47,273.47,0,0,0,11-77.64c0-25.08-1.08-46.08-3.24-62.88V311c2-20.76,1.68-46.68-1.08-78l-3.72-38.88c-1.56-15.48-2.52-28.44-3-38.88V109.92c.72-7.56,1.08-19.56,1.08-35.76q.36-9,0-17.64-.72-16.74-4.68-21.6a13,13,0,0,0,3.72-4,4.63,4.63,0,0,1,2.88-2.28A10.4,10.4,0,0,1,325.92,32.64Zm77.88,337.8a7.3,7.3,0,0,1-.36-2.64,12.73,12.73,0,0,1,.24-2.52v-.36c31.08,6,52.08,12.84,63.24,20.64A33.05,33.05,0,0,1,478.08,398a37.2,37.2,0,0,1,2.76,15c0,8.28-.84,14.64-2.52,19.2-2,5.4-6,10.2-11.64,14.28s-14.52,8.52-26.16,12.72c-10.68,4-26.28,8.76-46.56,14.4a9.86,9.86,0,0,1-1.92-3l-.48-1.68a3.14,3.14,0,0,1,1.08-2.28v-1.8c0-4.68,1.2-22,3.6-51.72l3.48-46.08,2.16-.36a35.93,35.93,0,0,1,1.08,10.2c0,10-1.08,26.76-3.36,50.16-1.68,16.44-3.12,28.92-4.2,37.68a44.66,44.66,0,0,1,9.72-3.72c5.4-1.68,15.24-4.44,29.76-8.4,13.08-4.2,22.92-8.88,29.76-14.16,9-6.84,13.56-15.24,13.56-25q0-12.78-16.92-23.76C448,381,429.36,375.24,405.36,372.24Zm101.64-66.6a44,44,0,0,1,7.68-21.36,39.11,39.11,0,0,1,17.16-13.56,33.15,33.15,0,0,1,17.16-2.64c5.16.72,7.8,2.64,7.8,5.64L555,275l-.48,2.16-.6.24a11.43,11.43,0,0,0-2.16-3.36,3.53,3.53,0,0,0-1.92-1.2c-17.4,0-29.52,5.64-36.48,17a37.14,37.14,0,0,0-4.56,11.16,27.47,27.47,0,0,1,7.44-1.92c5.4-.84,19.08-1.8,40.92-3l.24,1.08.36,2.64c0,1.56-1,2.76-2.76,3.48a33.57,33.57,0,0,1-8.52,1.56l-15.24,1.2-22.56,2.52L508,308v1c0,5.16,1.92,11.16,5.88,18.24,5.16,9,11.4,13.56,18.72,13.56,9.48,0,16.68-1.2,21.72-3.48,4.68-2.28,7-5.28,7-9.24l1.2-.48,1.44-.84a8.07,8.07,0,0,1,2,1.8,5.4,5.4,0,0,1,.48,2.76,10,10,0,0,1-1.32,3.12,27.21,27.21,0,0,1-4.08,6.12,25.39,25.39,0,0,1-19.8,8.64c-14.4,0-24.72-6.24-30.84-18.6a46.94,46.94,0,0,1-5.16-21.24l.12-3.6-.12-.72Zm-30.6-77.16c-5.64-4.92-13.56-7.92-23.76-8.76l.24,3.24-4.92,43.92c5.64-2.52,10.08-4.8,13.56-6.6,14.52-7.56,21.72-14.28,21.72-19.92Q481.68,232.62,474.84,226.68ZM451.68,129.6l-1.08,36.12c0,7.8.48,13.44,1.32,16.92,20.16-.6,34.8-.6,44,.24l.84,1.08a13.14,13.14,0,0,1,.24,2.64l-.24,3.48-29.28-1q-13.14-.54-15.12,1.44l-3.24-.24c-.84-5.28-1.32-13.2-1.32-23.76-.84-9.72-1.2-17-1.32-21.72C446.4,136.56,448.08,131.4,451.68,129.6Zm-72.36,72.6c3.72-.36,8.16.48,13.08,2.64a33.3,33.3,0,0,1,13,9.84,25.33,25.33,0,0,1,6,16.2q0,2-3.6,8.64a82.73,82.73,0,0,1-10.2,15A65.85,65.85,0,0,1,383.88,267c7.32,10,16.92,24,28.68,42A301.44,301.44,0,0,0,436,339.24v-1.68c0-3.72,1.68-21.36,5.16-53l.84-7.8c-2.52-3.72-3.84-6.24-3.84-7.44,0-.24,1.68-1.08,4.92-2.64,2.52-22.2,4.56-38.4,6.24-48.84l-3.36-.12a22.27,22.27,0,0,1-4.8-4.56l3.84-.48-.12.48,6.12,1.2a106.69,106.69,0,0,1,13.44,3.84q19.44,7.56,19.44,20.52,0,8.46-8.64,16.56c-6.36,6.12-15.84,11.64-28.2,16.32q18.36,27.36,33,45.24,20.7,25,42.84,42.36c1.08-.12,1.56-1.2,1.56-3.24l.84-.24.24.48v1.92l-.48,9-1.08,1.32q-14.76-10.62-50.64-52.56c-13.32-15.48-22.8-27.24-28.56-35.16-2.64,24.6-4,40.68-4,48.36a50.85,50.85,0,0,1-1.08,9.48l-.84,4c4.2,4.68,8.52,9,12.84,13l.24-1,.48-1.2,1,3.48.48,3.84c0,1.8-.12,2.52-.36,2.4l.48.36c.12.36-.48.48-1.56.48q-5.94,0-40.2-46.56c-8.4-11.4-16.08-22.32-23.16-32.64-5.16-7.56-8.28-12.6-9.6-15a45.7,45.7,0,0,1-19.08,5.4L359,285c-.6,5-1.2,11.4-1.68,19.2L356,323.64c-1.2,15.48-3.6,28-7.2,37.68H347.4a47.34,47.34,0,0,1-.24-5.16q0-12.6,7.92-67.08l2.16-14-3.24-.12-2.16-.12a8.07,8.07,0,0,1-.36-3.24,14.15,14.15,0,0,1,.24-2.64l.12-.6,6.36.6c4.92-31.08,9.72-52.56,14.16-64.56l2,.24C375.36,203.28,377,202.56,379.32,202.2Zm-5,8.28-2.16,4a27,27,0,0,0-4.08,13,56.05,56.05,0,0,1-1.44,9.72l-2,9.72c-1.08,4.8-2,11-3,18.6l-.48,3.36c8.76-1,18.48-5.88,28.92-14.64a100.61,100.61,0,0,0,13.8-13.92q5.4-6.66,5.4-9.36c0-1.92-2-5.76-6-11.4s-7-9.12-9.24-10.44l-14.28.84c-2.28.36-3.72.72-4.08,1.08Zm15.36-68.16L389,154.8l-1.56,18.36v10.32L399.12,181a106.33,106.33,0,0,1,19.2-1.56c8.28,0,14.76.12,19.2.24l.84,1a8.56,8.56,0,0,1,.24,2.28,9,9,0,0,1-.24,2.4l-.84.84-10.8.6h-7a132.07,132.07,0,0,0-23,1.8,45.45,45.45,0,0,0-8.16,2l-3-1.92c-.36-.24-.48-.72-.48-1.44l1.2-22.92c.84-16,1.32-27.84,1.44-35.76h1.08C389.4,131.28,389.64,135.84,389.64,142.32Zm23.28-1.92-8.16-21.12c-3.48-9-6.48-15.84-8.88-20.76L378.6,123.24c-7.32,10.32-14.28,18.36-20.88,24.24l-.36-1a10.45,10.45,0,0,1-.12-2.28c0-.6,5.16-7.08,15.6-19.44C384,110.64,391.2,99.48,394.56,91.44c3.48,4.2,7,11,10.44,20.28,4.2,10.92,7.2,18,9,21.12l16-23.64a211.24,211.24,0,0,1,16.32-22.32c5.4,8.76,11,18.48,17,29.4,7.32,13.2,11,20.88,11,22.92l-.36,2.52-.72,1.2a173.31,173.31,0,0,1-15.84-24,252.69,252.69,0,0,1-11.76-24.48L429.36,118.2A227.54,227.54,0,0,1,412.92,140.4Zm50-135,.6,3.24c-4.68,4.08-12.84,9.72-24.24,16.92C426.12,34,417.72,39.48,414,42.24q-17.1,12.24-40.8,33.24l-.84.6,28.8-4.32c18.12-2.76,28.68-4.08,31.8-4.08l6,.24,5,.6,56.4.48.72,1.08a7,7,0,0,1,.36,2.52,4.43,4.43,0,0,1-.48,2.52l-1,1.2-56-.24a378.19,378.19,0,0,0-47.28,4.32c-11.52,1.8-24.36,4.44-38.4,7.8l-2-1.92a2.21,2.21,0,0,1-.48-1.56q0-4.5,44.52-37.8c24.6-18.6,40.44-30,47.28-34.44l-15.72-.36c-11-.36-19.92-.36-26.64-.12-12.36.36-20.52,1.68-24.24,4.2l-11.88,1.08c-3.24,0-5.64-.48-7-1.56L361,14a6.16,6.16,0,0,1,.24-1.92l.36-1.32L367.8,10l14.28-1.32L400,8.28c8.28-.48,14.16-1.56,17.88-3.12h43.32ZM571.8,106.92c1.92,4.32,3.84,10.92,5.64,19.68l-.72.48-.84,1a60.63,60.63,0,0,0-7.56-16.44C562,102,553.08,97.2,541.8,97.2c-21.36,0-36.24,2.4-44.64,7.32-4.68,2.76-7.08,6-7.08,9.72,0,10.68,5.16,23.76,15.6,39.12,2.76,4,8,11.4,16,22.2,7.68,10.32,13.8,18.84,18.36,25.68,15,22.68,26.52,45.6,34.32,68.64Q590,316,589.92,371c0,8-.84,19.44-2.52,34.08a408,408,0,0,1-13.08,67.68C566,501,555.12,523.08,541.8,539Q517,568.92,481.68,568.92c-14.52,0-25.92-6.36-34.08-19a52.77,52.77,0,0,1-7.08-15.84,47.91,47.91,0,0,1-2.16-13.32,56,56,0,0,1,1.32-13.2,32.86,32.86,0,0,1,3.6-8.88l5.88-10.44a147,147,0,0,0,8.16-17.88c2.52,1.8,3.84,3.72,3.84,5.64,0,2.16-3.12,9-9.24,20.52s-9.24,19.68-9.24,24.24a28.72,28.72,0,0,0,1.32,6.48,50.65,50.65,0,0,0,5.52,12.12c7.2,11.4,17.88,17,32.16,17q33.84,0,57.72-28.44,19.08-22.68,31.08-62.64a379.7,379.7,0,0,0,12.72-63.6c1.56-13.68,2.4-23.88,2.4-30.6q0-56.88-15.6-101.64c-7.56-22.2-19-43.92-34.08-65.4-3.84-5.4-10-13.56-18.24-24.36q-11-14.22-15.84-21.6c-10.44-15.6-15.6-30.24-15.6-43.8a34.42,34.42,0,0,1,.84-9,17.73,17.73,0,0,1,7.2-10.44q15.66-11.52,61-3.48Q566.58,95.22,571.8,106.92ZM564.24,13.2l.6,1.2.12,2.52c0,2.64-11.64,9.36-34.92,20-17.52,7.92-31.08,13.68-40.8,17.4,29.16.6,54.24,2.64,75.24,5.88,18.6,2.76,27.84,5.52,27.84,8a13.45,13.45,0,0,0,.36,2.88c0,.6-.6.84-1.68.84l-35.16-4.32c-22.32-3-38.88-4.8-49.56-5.16l-50-.6-.6-.84-.24-2.4c0-.6,14-6.12,42.24-16.68,30.36-11.4,48.72-18.72,55-22.2l-27-1.8-13.68-.72-27.6-.48-1.08-1.2a4.43,4.43,0,0,1-.48-2.52A8.56,8.56,0,0,1,483,10.8l.24-.48,22.2.84,30.84,1.56Z" transform="translate(-9.48 -5.16)"/></svg>