<svg id="Layer_1" data-name="Layer 1" xmlns="http://www.w3.org/2000/svg" xmlns:xlink="http://www.w3.org/1999/xlink" viewBox="0 0 582 539.16"><defs><style>.cls-1{fill:none;}.cls-2{clip-path:url(#clip-path);}.cls-3{fill-rule:evenodd;}</style><clipPath id="clip-path" transform="translate(-14.4 -21.12)"><rect class="cls-1" x="14.4" y="21.12" width="580.92" height="539.28"/></clipPath></defs><g class="cls-2"><path class="cls-3" d="M159.36,29.76V86.64q.54,3.24,1.08,9.72t1.08,9.72V166.2l1.08,5.64v54.24Q168.54,283.5,181,371.16l20.64,146,.36-8.4a55.77,55.77,0,0,1,1-8.88l.84-.24c-.84,11.64-.48,21.6,1.32,30a121.13,121.13,0,0,1,3,24,10.17,10.17,0,0,1-.48,3.48,8.82,8.82,0,0,1-1.92,3.12q-10.26-31.68-16.56-82.8L184.2,436c-2-16-4.08-29.64-6.36-41-4.68-22.68-8.64-50-12-81.84q-5.22-55.26-8-82.92V175.08a35.67,35.67,0,0,1-1.08-4.92V109.32a35.67,35.67,0,0,1-1.08-4.92h-.36q-11.7,138.6-25.2,226.44Q111,455,78.48,556.68c-.84-12-1.44-25.44-1.68-40.2-.12-7.08-.24-20.4-.24-39.72,0-17.64-.36-30.72-1.08-39.36V391.08c-.48-4.44-.72-10.92-.84-19.56V357.84q0-35.28-8.88-158.88L56.28,67.44q-9.18,73.8-17.28,174L25.92,417.12V465c-1,7.8-2.16,22.56-3.6,44.16-1.32,19.08-2.88,34.44-4.68,46l-.72.48-1.2.6a36.58,36.58,0,0,1-1.32-10.56l3.12-31c2-22.2,3-37.32,3-45.36A37.91,37.91,0,0,1,21.6,462V413.28q2.16-23.58,7.8-98.64,4.68-61.56,8.52-98.64c1.2-12.24,2.4-28.68,3.48-49.32,1.32-24.84,2.4-41.28,3-49.44q4.5-58.32,17.28-96.12a4.37,4.37,0,0,1,3,3.12,15.66,15.66,0,0,1,.24,3.24l-2.16,19.8C61.32,61.08,60.6,70.8,60.6,76.2l9.12,130.32Q79.08,340.26,80.4,387.36v45.48l1.08,4.08v82a44.6,44.6,0,0,0-1,7.8c-.12,1.8-.12,4.44-.12,8.16q18.36-58.14,31.68-127.32Q122.7,352.8,132,279.6q6.12-46.8,13.68-135c5.16-61.08,9-100.92,11.28-119.76A11,11,0,0,1,159.36,29.76ZM304.68,50.28q-32,108.54-54.48,247.8l-3.84,25,28.56-2.28,6.72.24,7.32.6,21.36-.84,5.76-.24,3.36.36-2.52-41.28c-2.16-36.12-3.84-67.44-5.16-93.72v-57.6c-1.8-16.68-3.24-29.76-4.08-39C306.36,75,305.28,61.92,304.68,50.28Zm6.84,26L316.08,124v57.6c1.32,18.6,3,47.4,5.28,86.28q3.42,56.88,5.4,86.76,7.2,101.7,19.32,174.24h.6l.24-4.08a2.91,2.91,0,0,1,.48-1.56,109.62,109.62,0,0,1,1.68,16l-.24,13.2a11.37,11.37,0,0,1-2.52,7.08c-3.24-5.52-5.16-13.08-6-22.8q-.54-16.38-1.8-23.76l-4-23.52c-1.68-9.84-2.76-17.64-3.36-23.52l-4.8-46.68c-1.8-18.24-3.12-33.84-3.84-46.68L320,330.24l-1.8.6-7.92.6-22.44-.6-6.72.12-7.32.6-27,.6-.12.24-1.92.24c-4,26.88-8.16,56.52-12.36,89L216.72,545.16a5.29,5.29,0,0,1-1.44-1.32,5.69,5.69,0,0,1-.48-2.76Q214.8,517.5,231,402l10.08-69.72a4.39,4.39,0,0,1-3.12-2l-.36-2.4a9.4,9.4,0,0,1,.24-2.52,6.28,6.28,0,0,1,3.6-1.56l.84-.12,5.64-39.12q9.72-62.46,24.6-128.28,14.76-64.62,33-126.48C307.56,42.84,309.6,58.44,311.52,76.32Zm82,200h.84a188.51,188.51,0,0,1,0,30.84v49.68a2.85,2.85,0,0,1,1.8-.36l12.24.24.72,1.08a7.3,7.3,0,0,1,.36,2.64,6.18,6.18,0,0,1-.36,2.52l-1,1.08-12,1.08L393,365l-1.2-.12-.24-30.84.6-22.92Zm9.72-102.12q-4.5-6.66-13-6.12-.18,11.52-2.52,47.52l3.24-.36.12-.36h.84q5.76-2.16,10.08-10.8a61.81,61.81,0,0,0,3.84-10.68,31.17,31.17,0,0,0,1.2-7.2A21,21,0,0,0,403.2,174.24ZM381,208.68c0,8.88-2.76,18.12-8.28,27.84-4.8,8.4-10.68,14.52-17.64,18.24q8.64,21.6,23.16,70.56c10,33.48,15,51.6,15,54.36,0,1.8-.12,2.64-.36,2.76l-.48.48a2.45,2.45,0,0,1-1.08.6,203.6,203.6,0,0,1-10.08-32l-7-32.88c-1.32-6.12-5.52-18.36-12.6-37-5.16-13.68-8.4-22.2-9.48-25.56a40.76,40.76,0,0,1-8.52,2.4l-.12-.24-.12.24v48l-3.36,35.28-3.48,36.12-.36.48-.72.84-2.16-.24a60.6,60.6,0,0,1-.24-6.12q0-4.14,7.56-70.2v-47q1.26-3.78,1.8-12.24a85.52,85.52,0,0,1,1.44-13V172.92l.84-4.68-1.08.12-.36-.72a7.5,7.5,0,0,1-.24-2.16,5.17,5.17,0,0,1,.36-2.4l.72-.48,1.92-.12.6-1.2.72,1.2c11,.36,19.8,6.72,26.28,19.32a76.86,76.86,0,0,1,5.76,16.08A47.31,47.31,0,0,1,381,208.68Zm-4.32-10.08a72.51,72.51,0,0,0-6.36-14.16C364,174,356.64,168.6,348.24,168.12a34.58,34.58,0,0,1-1.56,7.8V233.4q-.9,3.42-1.44,13l-.72,6.84,4-3a140.36,140.36,0,0,0,12.36-9.72c12-10.68,18-21.48,18-32.52Q378.84,204.9,376.68,198.6ZM384,169.44a12.84,12.84,0,0,1-.6-2.76l.36-2.16c10.08-2.28,17.28.12,21.6,7a28.44,28.44,0,0,1,3.84,15A61.69,61.69,0,0,1,406,204.72c-2.76,8.88-6.72,14.28-11.76,16.2l8.52,23.28a219.84,219.84,0,0,1,8.88,31.44l-.48.48-.84.84c-2.16-3.48-6-13.44-11.4-29.88-4.08-12.12-6.6-20.64-7.56-25.44l-1.68.12-2.4-.12c-2,29.64-4,47.28-5.64,52.8l-1.08.36-.6-1.08-.24-2.52q0-8.1,4-54.72l4-48ZM371.52,36.36l.84-1a2.35,2.35,0,0,1,1.68,1,3.66,3.66,0,0,1,.72,2.64L370,85.44c-3.24,30.36-4.92,49.8-4.92,58.2l-.48.48-.84,1c-3.84-13.08-7.92-29-12.24-47.76L340.92,49.56h-.24l-6.12,44.16c-2.52,17.88-5.16,32.64-7.68,44l-.6-.48a6.3,6.3,0,0,1-.24-2.16q0-10.44,6.84-52.92c4.2-25.8,7-41.52,8.4-47.28l10.32,45L362,126.36c1.56-12.24,3.24-26.76,4.8-43.56l4.2-46ZM416,34.56l.72-.48c1.56,1.56,2.4,2.88,2.4,4,0,2.88-2,19.8-6,50.64-3.72,29.16-6.72,51.84-9.12,68.28-3.24-22.08-5.64-39.84-7.32-53.16-2.4-20.64-4-38.64-4.56-54l-.36-.6-7.2,45.6c-3.12,19.32-5.4,34.92-6.84,47l-.48.48-.6.84a9.2,9.2,0,0,1-1-3.36,28.47,28.47,0,0,1-.12-3.72c0-9,2.4-28.44,7.2-58.56L390.72,30c3.12,6.6,5,15.36,5.88,26.28l1.68,28.44q3.42,30.78,4.68,54.36l.24.24,5.4-51.12c2.28-19.8,4.56-37.56,7.08-53.28ZM454,48.36a13.12,13.12,0,0,0-10.2-4.8c-11.88,0-19.08,20.88-21.36,62.52a547.5,547.5,0,0,0,0,62.76l-.72,32.52.24,1.44,15,1,20.4.6a12.47,12.47,0,0,1,2.4,3l.6,1.56a6.18,6.18,0,0,1-.36,2.52l-1,1.08-17.76-1L421.44,210l-1,38.28a293.07,293.07,0,0,1-2.64,41.16c-1.8,12.6-2.76,30.36-2.76,53.4,0,8.28.12,13.44.48,15.48.84,6.12,3,10.92,6.6,14.64,10.8-3.36,19-8.4,24.6-15,3.36-3.84,7.08-9.6,11-17.16l1.32,2.28a9.69,9.69,0,0,1,.36,3c0,.36-1.08,2.4-3.12,6a124.36,124.36,0,0,1-7.68,12.24c-8,11.76-14.28,17.64-19,17.64l-8.16-.36c-4.92-4-7.92-10.08-9.12-18.36-.36-2.76-.6-9.36-.6-19.56l4-91.32q3.6-83,2.88-101.4V108c1.2-5.76,2.28-13.2,3.36-22.44l2.28-22.2c1-8.76,3.48-15.24,7.44-19.56a14.87,14.87,0,0,1,12-5.4A17,17,0,0,1,455,42.48c3.36,2.64,5,5.64,5,8.88l-.24,2.4-.6,1a10.81,10.81,0,0,1-2.4-2.64Zm94.8,28.8L553.44,86c4.8,8.52,9,19.56,12.6,33,1.08,4.08,3.72,15.24,7.68,33.6q7.38,34.92,16.92,71,5.76,26.1,5.76,61.56c0,7.2-1.44,20.64-4.2,40.32s-4.2,32.16-4.2,37.2C588,375,583.92,392,575.88,414a316.57,316.57,0,0,1-21.72,47.76c-3.12,5.4-6.84,13.8-11,25.44-4,11.16-7.8,19.56-11.52,25.32-5.76,9.24-13.8,17.16-24,24C495.48,544.8,479.28,552,459,558.36l-8.16-.24a9.12,9.12,0,0,1-1.92-6.12c0-2.76.48-4.68,1.32-5.52a24.85,24.85,0,0,0,3.36-3.84l-.12-.48.36-3.36.24-3.12a3,3,0,0,1,.48-1.68,15,15,0,0,1,.6,4.56l.84.36q3.78-33.3,6.84-83.88c2-38,3.6-66.12,4.8-84.48V204.12a235,235,0,0,1-1.08-26.28c0-23.16.84-49.56,2.52-79,1.32-23.16,2.88-40.32,4.68-51.36l-.48-.36c-2.88-1.92-4.32-4.32-4.32-7.32q0-4,7.2-3.24a14.06,14.06,0,0,1,1.44-3l1.8,2.88.36.72a109.2,109.2,0,0,1,16,4.8c9,3.24,18.12,7.08,27.6,11.52,8.64,3.72,15.36,8.64,20.16,15C545,70.8,546.84,73.68,548.76,77.16Zm-8.52,1.56a49.88,49.88,0,0,0-18.48-14.64A143.2,143.2,0,0,0,502,56.64L485,52l-5.52-1.8-2.88,23.76c-2.52,22.2-3.84,37.56-3.84,46.2l-1.68,40.08c-.6,16.2-.36,29.52.84,40.2V374.88L466.44,464c-2,31.44-4.2,58.56-6.24,81.48q28.8.54,54.48-28.8c15.72-17.88,30.12-43.44,43-76.56a561.56,561.56,0,0,0,25.8-89q8.64-41.76,8.64-65.76a312.94,312.94,0,0,0-6.6-62.4q-2.34-11.7-15.84-64.92c-3-14-5.52-24.72-7.32-31.8-3.24-12.36-7.44-22.92-12.72-31.56A142,142,0,0,0,540.24,78.72Z" transform="translate(-14.4 -21.12)"/></g></svg>