<svg id="Layer_1" data-name="Layer 1" xmlns="http://www.w3.org/2000/svg" viewBox="0 0 475.13 414.67"><defs><style>.cls-1{fill-rule:evenodd;}</style></defs><path class="cls-1" d="M291.24,320.64l16.92-186,17.16,178.92Zm-85-229.32L205.92,88,205.8,89l-.24-.84a232.21,232.21,0,0,0-10.32,48.36q-6.84,63.54-15.36,126.72L162.6,390c-3,21-7,41.64-11.88,62.16-5.4-37-10.08-74-14.28-111.12-4.68-42.24-9.36-84.48-13.8-126.84s-9.12-84.6-14.16-126.48l-1.08,2.16V88.8c-1.08-.12-1.68.48-1.92,1.68q-12.06,61.74-22.32,124.2-10.44,63-21.72,125.76Q50.1,403.62,33.72,466c-3,11.88-2.52,22.32,1.44,31.08Q47,451.32,56.76,403.8q12.78-62.64,22.2-126,9.54-63.18,22.8-125.4a276.38,276.38,0,0,0,4.92-32c3.24,37.08,7,74.16,11.16,111q7.2,63.18,13.08,126.72a1179.19,1179.19,0,0,0,18.36,126.24,17.23,17.23,0,0,0,2.28-3.72l1.56,3.48a673,673,0,0,0,14.64-78.6l16.2-127c5.64-42.36,10.92-84.84,16.08-127.32q2-15.48,5-30.6c.24,7.56.72,15.36,1.32,23.28l10.8,126.84c3.6,42.6,8.28,85.08,14,127.2,2.88,21.48,5.28,42.84,7.2,64.32,1.08,12,4.32,22.2,10,30.72a44.69,44.69,0,0,0,2.16-24.6Q238.86,405.54,232,342c-4.44-42.36-8.76-84.84-12.72-127.44-3.72-38.88-7.68-77.4-12.12-115.56A53.71,53.71,0,0,0,206.28,91.32Zm103.44,2.76.12-4.56a2.31,2.31,0,0,0-2.28,2.4q-5.4,35.28-8.76,71.4c-4.08,42.36-7.92,85-11.52,127.56L277,418.44a239.72,239.72,0,0,1-4.68,32c-2.4,11.88-1.56,22.8,2.64,32.52a15.46,15.46,0,0,0,4.8-11c3-42.6,6.12-85.08,9.6-127.56l1.08-13.92a124.78,124.78,0,0,0,36.12-1.92l1.08,13.08c3.72,43.08,8.52,85.32,14.4,126.48a37.7,37.7,0,0,0,5.4,20c3.72-5.4,5.16-11.76,4.2-19.32-2.52-19.92-5.28-39.72-8.52-59.4q-5-31.68-8.4-63.72L332.4,325l.12-.72a10.8,10.8,0,0,0-1.08-8.28c-3.48-32.52-7-65.16-10.2-97.8q-6.48-64.08-10.32-127.56c-.48-.12-.72,0-.84.36Zm109.92-1c-1.08,25.44-1.32,50.88-1,76.32.6,43.08.72,86.16.48,129s-1.92,85.92-4.68,129a574,574,0,0,0-.48,64.2,329.45,329.45,0,0,0,90.12,4.92c3.84-5.88,3.72-11.52-.36-17.16a254.93,254.93,0,0,1-83-5.64q5-63.18,5-127.44c0-42.84.12-85.92.24-129q.36-65.16-3.6-128.28C420.6,89.52,419.76,90.84,419.64,93.12Zm-50.76,2.4a76.42,76.42,0,0,1,13.92,40.32c1.08,16.2-3.24,30.48-13,43.08a41.12,41.12,0,0,1-16.92,13l1.56-96.12ZM365.76,83a20.14,20.14,0,0,0-11.52,3.36l-.12-2.76a222.69,222.69,0,0,0-6.6,47.88q-2,64.08-4.8,128.28a188.78,188.78,0,0,1-4.2,32c-2.28,9.72-1.08,17.88,3.48,24.48a23.24,23.24,0,0,0,4.8-13.56c1.2-30.6,2.88-61.08,5-91.68l.24-4.44c2,.84,4.2.6,6.72-.48l4.68-3.72,10.08,54.36a352.54,352.54,0,0,0,16.56,60.6,3.29,3.29,0,0,0,1.44-3.12A882.77,882.77,0,0,0,368.16,198a56.59,56.59,0,0,0,13.2-24.12,169.4,169.4,0,0,0,5.28-32.28q2.34-34.2-18.36-58.2Z" transform="translate(-31.78 -83.03)"/></svg>