<svg id="Layer_1" data-name="Layer 1" xmlns="http://www.w3.org/2000/svg" viewBox="0 0 343.14 201.86"><defs><style>.cls-1{fill-rule:evenodd;}</style></defs><path class="cls-1" d="M272.64,268.2,286,208.44l8.64,56.64Zm15.48-81.36c-.12-2.76-.48-5.4-.84-7.92-5.16,5.52-8.52,12.72-10,21.6A1009,1009,0,0,1,249.6,325.44c-3.36,11.64-2.88,22.32,1.44,31.8,6.84-25.2,13.08-50.76,19-76.68a104.8,104.8,0,0,0,27.48.48q5.76,30.6,12.84,60.48l-.6-.48c.84,7.68,3.24,14.28,7.32,19.68a6.48,6.48,0,0,0,2.88-6.24,269.78,269.78,0,0,0-7.32-46.68c-2.76-10.92-5.28-21.84-7.56-32.88a13.35,13.35,0,0,0-2.16-10.32c-5.64-27.24-10.08-54.72-13.44-82.2Zm-99.48,5.76c1.56,11.64,2.76,23.4,3.6,35A835.43,835.43,0,0,0,212,354c2.88-2.28,4.08-5.52,3.6-9.48l-4.92-41.76q-7.92-63.9-20-126.36a11.68,11.68,0,0,0-1.8,2.88v-1.8c-.72-.12-1.08.12-1.2.48a910.67,910.67,0,0,0-25.44,109.32,186.1,186.1,0,0,1-8,31.2,66.43,66.43,0,0,0-2,7.2,389.6,389.6,0,0,1-18.36-93.6A298.18,298.18,0,0,0,125.64,180a57.47,57.47,0,0,0-.72-14.4,1.59,1.59,0,0,0-1.92,1.2l-.84,2.76c-.84.12-1.32.6-1.2,1.68v2.52Q106.38,224.7,95.28,277A350.62,350.62,0,0,1,81.6,323.52c-4.68,12.36-4.2,22.68,1.44,31.2a89.38,89.38,0,0,0,6.24-16.08q16.92-62.1,28.8-124.92c1.08-5.16,2.28-10.32,3.84-15.24.48,8.52,1.08,17.16,1.92,25.8a541.27,541.27,0,0,0,26.52,124.56,22.34,22.34,0,0,0,2.52-4.68,37.28,37.28,0,0,0,2.64,5.4,640.9,640.9,0,0,0,17.88-77q5.22-31.68,12.48-62.88A135.46,135.46,0,0,0,188.64,192.6ZM355.8,255.24l-.6,24.24c-.36,12-1.32,24-2.76,35.88-1.92,16,.36,30.6,6.72,43.68l5.64-152.76A767.44,767.44,0,0,0,399.72,338c2.76,7.56,5.76,15,9.24,22.32l3.36,7.08a110,110,0,0,0,5.16-33.72c-.12-10.44.24-20.88.84-31.32l.72-11.88,1.44-24a674.7,674.7,0,0,0,0-76.32A357.13,357.13,0,0,0,409,300.48c.48,10.68.48,21.24.12,31.8A1014.22,1014.22,0,0,1,364.2,180a140.75,140.75,0,0,0-8,44.64Z" transform="translate(-78.42 -165.58)"/></svg>