<svg id="Layer_1" data-name="Layer 1" xmlns="http://www.w3.org/2000/svg" viewBox="0 0 309.75 210"><defs><style>.cls-1{fill-rule:evenodd;}</style></defs><path class="cls-1" d="M323,336.48l15.48,38.76a22,22,0,0,1-7.32,5.16,30.87,30.87,0,0,1-19.2,1.44l-2.16-.6-10.32-13.8a34.76,34.76,0,0,1,11.76-27.6A13.06,13.06,0,0,1,323,336.48ZM190,193.44c-.6.12-.84.24-1,.48l-1.44,6.36c-1.56,1.2-2.16,3.24-1.56,6.12v.12q-7.92,33.3-14.28,67.56-11.7,62.64-20.4,125,.54,2.88,3.24,2.16a150.91,150.91,0,0,0,9.48-34.8q8.82-63.18,22.2-125.76a150.64,150.64,0,0,0,2.88-17.16c3.24,16.68,6.72,33.24,10.68,49.8a199.82,199.82,0,0,1,4.2,26.52c1,11.76,3.84,22,8.64,30.72a7.66,7.66,0,0,0,1.92-4c7-22.92,13.68-46.32,20.28-70,3.72-13.56,6.72-26.88,9-40.2,2.88,19.44,6.36,38.88,10.32,58.2q13,61.56,21.84,123.84a3.32,3.32,0,0,0,4,2.16,2.58,2.58,0,0,0,.72-1.56,512.71,512.71,0,0,0-7.8-77.4Q262.08,261.78,245.76,204l1.2-9.48-2.76,4-.12-.72c-1.8.24-2.64,1.44-2.28,3.48l.12,1.2a57.67,57.67,0,0,0-4.44,12.12Q229,248,218.28,280.92A99.44,99.44,0,0,0,213,313.68q-8.64-57.42-22.68-113.28ZM355.32,386.28a296.86,296.86,0,0,1-18.84-43.44,183.93,183.93,0,0,0-29.64-55.44c-3.24,1.8-3.84,4.68-1.68,8.64a274.88,274.88,0,0,1,12.36,26.16H317a34.94,34.94,0,0,0-13.56,12q-23.22,34.56,6.6,64.32c11.28,3,21,1.08,29.28-5.64a39.22,39.22,0,0,0,5.88-6,156,156,0,0,0,9.48,13.32A12.51,12.51,0,0,0,355.32,386.28ZM383.76,195l-.36-1.8q-2.52,54.9-2.52,112.8l-.24,16.2-.36,8.16-1.56,24.24c-.6,8.28-1,16.56-1.08,25a64.53,64.53,0,0,0,4.44,23.64,427.33,427.33,0,0,0,6.48-117.84A118.52,118.52,0,0,0,430.8,281c3-5.16,2.88-10.08-.6-15l-41.4,6a355.65,355.65,0,0,0-3-64.92l73.8,8.28a13,13,0,0,0-.12-12.24l-1.08-1.8A403.37,403.37,0,0,0,388.56,194Z" transform="translate(-151.32 -193.2)"/></svg>