<svg id="Layer_1" data-name="Layer 1" xmlns="http://www.w3.org/2000/svg" viewBox="0 0 503.01 349.92"><defs><style>.cls-1{fill-rule:evenodd;}</style></defs><path class="cls-1" d="M274.92,208q5.58,37.8,10.08,75.72a269.67,269.67,0,0,0-40.56,2.4l1.32-9q9.54-64.26,24-125C270.6,170.88,272.28,189.48,274.92,208Zm-7.08-95.28q-11.7,63.18-21.6,126.72L239,286.92l-3.12.48-.48,1.56a8.65,8.65,0,0,0,.24,5.76l2,.36-10.68,71a227.8,227.8,0,0,1-6.84,31.08,174.46,174.46,0,0,0-7.56,47.64,152.76,152.76,0,0,0,13-41.16c6.12-35.88,12-71.76,17.4-107.64a264.56,264.56,0,0,0,43.92,3.6q7,57.24,15.36,114.48c.84,5.88.48,8.52-1.2,7.68a37.66,37.66,0,0,0,9.48,23.28,4.74,4.74,0,0,0,1.32-4c-5.4-41.88-10.32-84.12-15-126.72l-2.64-20.52a7.68,7.68,0,0,0-1.08-7.2c-1.08-6.6-2.16-13.2-3.48-19.8a634.83,634.83,0,0,1-11.16-95.4,490.69,490.69,0,0,0-6.36-63.24C269.76,108.6,268.32,110.16,267.84,112.68ZM348.6,146.4Q348.24,181,312,184.56l.72-13.56c.84-17.4,1.44-34.44,1.56-51.12,11.64-5.76,21.24-3.36,28.56,7.32A32,32,0,0,1,348.6,146.4ZM187.8,115A222.63,222.63,0,0,0,178,148.8q-14.58,70.56-31.44,140.52-15.3,63.36-26.4,127.68-2.88-76.86-7.92-153.36-4.5-66.78-6.48-133.92a11.81,11.81,0,0,0-5.28-9.6L40.92,447.36l2.64-.12A49.86,49.86,0,0,0,48.84,433L87.12,235.44,99.36,171.6q4,47.7,7,95.64,5,80.28,6.48,160.8a24,24,0,0,0,4.92,14l1.8,2.16a35.34,35.34,0,0,0,5.28-13.68q10.26-58.86,24-117.24,16.92-71.82,32.76-143.88.54,74.7,0,149.16c-.24,35.16-1.2,70.44-2.76,105.6a46.59,46.59,0,0,0,4.56,22.8,8.11,8.11,0,0,0,2.64-5.76q2.7-90.54,2.76-181.08l-.24-64.8c.24-15,.84-29.88,1.92-44.64A127.53,127.53,0,0,0,187.8,115Zm168.6,22.8c-2.28-12.36-8.88-21.6-19.56-27.72a53.4,53.4,0,0,0-13.2-5.64l-9.24,4.8-.6-2a109.93,109.93,0,0,0-6.72,33.12q-1.62,34-6,67.92a273.78,273.78,0,0,0,2.16,82.92,15,15,0,0,0,1.68,4.92l6.48-99,13.8-2,29.52,101,2.4,2.16c3.12-13.32,1.32-28-5.52-44.16-4.92-11.76-9.6-23.76-13.92-36l-8.76-24.48a41.67,41.67,0,0,0,19-15.6,61.05,61.05,0,0,0,3.6-6A51.18,51.18,0,0,0,356.4,137.76Zm47.76-11.4c19.32,3.24,32.16,13.56,38.76,30.84l.24-.84q-.54-41.94-46-45.72a7.79,7.79,0,0,0-5.4,3.72q-21.42,32.4-9.36,71.16,18.9,60.84,43.32,120.36,20.7,50.4-1.44,98.16c-8.4,18.12-22.08,27.12-40.92,27.24A62.85,62.85,0,0,1,357,398.16c-3-8.52-7-14.88-11.76-19.32a4.36,4.36,0,0,0-1.68,4A99.27,99.27,0,0,0,363,435.24c11.16,15.36,25.08,18.84,42,10.56a44.6,44.6,0,0,0,18.24-16.08q27.72-42.66,18.24-93.84a292.81,292.81,0,0,0-18.36-61.32c-13.44-32-25.56-64.56-36.24-97.32q-9.72-29.52,9.24-51.36Zm139.2-11.88a707.62,707.62,0,0,0-8.16,83.64L532,283.68a123.39,123.39,0,0,1-26.52-2.52,200.76,200.76,0,0,0-34.2,1.44l1.2-37.2q2.16-64.8,0-128.28l-.6.12A982.91,982.91,0,0,0,464.76,221q-.9,64.62-3.6,129.12a405.11,405.11,0,0,1-5,48.36c-2.76,16.92-2.4,33,1.2,48.24l1.2-1.08a334.78,334.78,0,0,0,10-72l2.4-79.8a432.16,432.16,0,0,0,60.48,5.4,1104.18,1104.18,0,0,1-11.64,122.64c-1.8,12.12-.48,22.92,4.08,32.4A320.35,320.35,0,0,0,533,401.88c2.88-31.8,4.92-63.84,6.24-95.88l2.4-64.08q2.7-64.62,2.16-127.44Z" transform="translate(-40.92 -104.4)"/></svg>