<svg id="Layer_1" data-name="Layer 1" xmlns="http://www.w3.org/2000/svg" viewBox="0 0 490.86 351.24"><defs><style>.cls-1{fill-rule:evenodd;}</style></defs><path class="cls-1" d="M337.68,260c12.24,11.88,16.44,26.16,12.6,42.72-3.24,14.4-11.88,24.12-25.8,29.16l-.12-73.2ZM266.16,156q7.74,60.12,13.92,120.48l-.6-.24a153.18,153.18,0,0,0-39.24,7.2l1.92-12.72c6.36-40.2,14.28-80.28,23.52-120Zm2.76-42.6c-5.16,4.08-8.4,10-9.72,17.52q-12.06,63.36-22.32,127l-4.68,28.44-1.44.48-.24,1.56a13.62,13.62,0,0,0,.24,6.6l-14.4,88.8c-1.8,10.44-4,20.88-6.72,31.08-3.24,12.36-2.28,22.8,3,31.32a3.48,3.48,0,0,0,1.32-1.8,449.76,449.76,0,0,0,9.48-47.52q7-50.4,14.76-100.8a245.62,245.62,0,0,0,43.68-2.76l12,115.8-.12.72a13.91,13.91,0,0,0,.12,11.76l-.24.84-.12,1.56a80.84,80.84,0,0,0,8.4,28.2c3.6-3.72,4.92-8.52,4.08-14.4-4.92-32.52-9.12-65.28-12.72-98q-5.22-47.52-9-95.28A1161.88,1161.88,0,0,0,269.4,127.92,83.16,83.16,0,0,0,268.92,113.4ZM181.32,150c.24,19.68,1,39.36,2.16,58.92q4.14,64.08,7.2,128.16c.84,16,1.08,31.92,1,47.88a194.66,194.66,0,0,0,9.6,64,2.16,2.16,0,0,0,1.8-2.16q.36-37.62-1.8-75.6-3.78-64.26-6.84-128.28-3.06-64.44-10-127.32l-1.08.24-.24-3.24h-.24a5.53,5.53,0,0,0-2.76,1.92c-4.08,16-7.44,32.28-10.2,48.72Q159.84,224,143.76,283.44c-1.32-17.28-3.24-34.56-5.64-51.72q-8.1-57.6-17.76-114.12a45.61,45.61,0,0,0-1.92-14.52c-7.56,9.48-12.36,21.12-14.52,34.92L83.64,264.36Q73.38,327.54,58,389.88a178.81,178.81,0,0,1-6.84,22.8c-4.8,13-3.84,23.4,3,31.32a170.35,170.35,0,0,0,9.12-30.6q12.6-62.46,22.68-125.28,9.9-63.36,22.92-126.12a192.75,192.75,0,0,1,7.8-26.64l.12-.24Q124.86,191.46,132,248c1.92,15.72,3.24,31.44,4.08,47.28.6,11.88,3.36,22.2,8.4,30.72A3.58,3.58,0,0,0,146,322.8l-.24-7.32q11.7-45.72,20.64-92.64c4-21,8.28-42,13-62.76Zm302.4,211.8A58.73,58.73,0,0,0,463.92,401a66.11,66.11,0,0,0,10,41.88c8.64,13.8,21,15.12,37.08,3.72,10.32-7.32,13.32-16,9.12-26.16l-4.68,1.32c-7.08,12.72-18.24,19.68-33.24,20.88-8.52-8.64-12.48-19.2-11.76-31.8l2.52,1.08,2.16-1.56L496,406.08a9.74,9.74,0,0,0,.6-9.24L495.12,394l-24.36,6.36c2.16-19.8,13-32.28,32.52-37.2l6.6,5.28c1.68,1.2,3,1.2,3.84.12Q507.6,340.26,483.72,361.8ZM406,360.6a62.66,62.66,0,0,0-18.6,38.28,64,64,0,0,0,10.92,44.88c15.72,4.56,29.4,1.68,41-8.52l5.28,17.64,1-47.28-25.08,3.48-1.92,7.32c6.72,2.28,14.28,2.28,22.68.24l-.24,1.44-.24.12h-.6l-3.24,4.2A51.83,51.83,0,0,1,399.84,431c-10.92-21.72-8.4-42,7.44-60.6,5.76-6.72,13-9,21.72-6.72l7,.48Q428.76,337.92,406,360.6Zm-51.48-84.72a73.87,73.87,0,0,0-16.32-28.32l-14.28-.12V246l-.72,1.68-4.2,1.56,1.32,8.52a84.55,84.55,0,0,0-1.2,12.36c-.24,11.52-.84,22.92-1.68,34.08a299.74,299.74,0,0,0-.72,41.28c-.72,14.28-1.92,28.56-3.48,42.84-1.08,9-1.8,17.88-2.16,26.76a150.18,150.18,0,0,0,2.76,35.16c1.8-9.36,3.24-18.6,4.32-27.84,1.2-9.48,2.16-19.08,3-28.56,1.32-16,2.28-32.16,2.88-48.36l15.48-8.4c2,13.8,4.32,27.6,7.08,41.28s5.52,27.48,8.52,41A244.62,244.62,0,0,0,363.24,448h1a6.16,6.16,0,0,0,1.8-2.76l1-3.36a28.34,28.34,0,0,0,.48-7.2,34.61,34.61,0,0,0-4.08-15l2.4-12.12-3.24,10.56-20.76-83.4a82.74,82.74,0,0,0,5-7.56A69.44,69.44,0,0,0,352.44,316,58.34,58.34,0,0,0,354.48,275.88Zm79-139.92a32.1,32.1,0,0,1,7.56,5.88q2.88-20.7-19.44-24.12c-19-2.88-31,5.52-35.88,25.32a452.09,452.09,0,0,0-12,155.88,76.31,76.31,0,0,0,11.4,33.36,120.84,120.84,0,0,0,9.36,12.48c17.64,2.4,32.88-2.4,45.84-14.4,7.56-7,8.88-15,4-24q-18.9,24.12-49.44,20.76c-14.76-22.44-21.36-47.76-19.56-76.2a427.47,427.47,0,0,1,19.08-104C404,130.92,417,127.32,433.44,136Zm-68.16-25a364.7,364.7,0,0,0-64.44,6.72l-.24,8.88,32.28-.6q-4.32,37.26-5.88,74.64a66.65,66.65,0,0,0,7.08,33l.12-.24A629.38,629.38,0,0,0,334,126l32.4-3.72Zm171.6,10.92a289.93,289.93,0,0,0-6,68.88l.48,26.76a398.68,398.68,0,0,0-50.52,5.4L481,212.4a698.45,698.45,0,0,0-5.52-95.76,97.72,97.72,0,0,0-3.72,30.24L473.88,276a239.69,239.69,0,0,1-1.8,32.16c-1.56,12.6,0,23.16,4.92,31.68a306.29,306.29,0,0,0,4.56-63.24q-.54-20.34-.72-40.32c17.4-.6,34.2-1.68,50.52-3.48,0,12.72-.24,25.44-.6,38.28a269.81,269.81,0,0,0,4.92,64q1.08-.72,1.08-1.44a680.21,680.21,0,0,0,1.68-82.8c-.84-21.6-.84-43.2-.12-64.8.72-22,.36-43.32-1-64.2Z" transform="translate(-48.13 -103.08)"/></svg>