<svg id="Layer_1" data-name="Layer 1" xmlns="http://www.w3.org/2000/svg" viewBox="0 0 466.26 347.28"><defs><style>.cls-1{fill-rule:evenodd;}</style></defs><path class="cls-1" d="M267.84,133.92c-.6,13.56-.72,27.12-.6,40.56q.54,64.62-1.08,129.12-1.62,65-8.28,128.88-1.62,15.3,6.12,23.4a407.5,407.5,0,0,0,6.72-69c.6-42.84,2-85.92,4.2-129a801.35,801.35,0,0,0-3.84-128.28Q268,130.14,267.84,133.92Zm-67.68-5.28A860.9,860.9,0,0,0,164.64,286l-1.32,7.92-1.8,7.68-1.92,7.8-1.68,7.8Q146.58,219.42,132.84,122l-.84-3.72v.12l-1.08-2q-29.7,134.28-61.8,268.08L66,396l-2.4,7.68-2,7.8L58,427a116.12,116.12,0,0,0-3,32l.36.6q27-65,38.64-140.16l2.64-15.72,3-15.72,6.24-31.32,13.08-62.4c3.24-15.48,7.32-30.84,12.12-46.08q11.88,96.66,19.2,193.68l.48,4.2.84,4.2,1.08,4,2.4,7.68c1.08,3.48,2.88,5.64,5.16,6.48q12.42-87.3,31.68-175.92l2.28-11.16,2-11,1.8-11,1.56-11q16.74,144.18,23.16,289.2l.6,4.32,1,4,1.2,3.84a61.49,61.49,0,0,0,3.6,6.84,12,12,0,0,0,2.52,3.12A1745.64,1745.64,0,0,0,218.76,257.4c-.6-5.16-1.2-10.44-1.68-15.72l-1.32-15.84-1.68-15.72-3.6-31.32a433,433,0,0,0-8-47.88Zm192,19.92-3.36,86q-2.7,64.08-3.84,128.28-.36,25.38-2.88,50c-1.32-11-3-22.08-5.16-33Q364.68,317.28,349.56,255q-14.94-62.28-32.16-123.48c-.72-.12-1.08.24-1.08.84a98.23,98.23,0,0,0-.36,11.88l-.72-15.72c-.36.12-.6.12-.6.24q-4,53.1-5,107.16-1.44,64.8-5.28,129.12c-1.44,22.2-2.88,42.48-4.32,61.08-3,11.64-2.16,22.32,2.52,31.92a404.36,404.36,0,0,0,9-73l4.92-128.28q2-53.64-.24-106.44a138.65,138.65,0,0,0,5.16,29.4q17.82,61.74,31.92,124.56a991.81,991.81,0,0,1,20.16,124.44c1.08,11.64,4.56,21.6,10.2,29.88a2.55,2.55,0,0,0,1.56-2.4l-.24-7.68,1.44,1.68a285.8,285.8,0,0,0,5.28-56.88c-.12-42.6,1.32-85.2,4.32-128a943.1,943.1,0,0,0,.36-127.56C393.6,140.28,392.28,143.88,392.16,148.56Zm25,60.6A317.07,317.07,0,0,0,407.76,254a378.46,378.46,0,0,0-3.48,42.12c-.48,15.72-.72,31.56-.84,47.52a176.46,176.46,0,0,0,4.8,41.28A152,152,0,0,0,422.16,422a114.09,114.09,0,0,0,28.08,34.2q18.36,14.94,40.08-2.28a76.44,76.44,0,0,0,20.52-25.32,57.59,57.59,0,0,0-.48,27.12c.84,3.48,2,6.12,3.84,7.92a209.5,209.5,0,0,0,2.64-79.2l-35.52,3-.24,5.16,3.24,4.56,16.08,3.24,5.52,9.36a50.86,50.86,0,0,1-10.32,19.44,47.74,47.74,0,0,1-27.24,16,25,25,0,0,1-11.88-.72,20,20,0,0,1-7.8-4.32,75.31,75.31,0,0,1-11.28-13.32A81.4,81.4,0,0,1,430.8,415a194.41,194.41,0,0,1-16.44-65.28,464.28,464.28,0,0,1-.12-65.88,428,428,0,0,1,11.16-73.92q11.16-46.8,55.08-49.68A48.18,48.18,0,0,1,502,164.52a35.88,35.88,0,0,0,14.88,10.8l2.88.84A8.88,8.88,0,0,0,520,167a42,42,0,0,0-9.12-11.52l-1.68-1.32c-11.88-10.08-25.08-13.68-39.36-10.8q-23,4.68-34.92,24.84A177.53,177.53,0,0,0,417.12,209.16Z" transform="translate(-54.84 -116.4)"/></svg>