<svg id="Layer_1" data-name="Layer 1" xmlns="http://www.w3.org/2000/svg" viewBox="0 0 389.61 330.86"><defs><style>.cls-1{fill-rule:evenodd;}</style></defs><path class="cls-1" d="M263,374.4c-.48,15.48-.84,30.84-1,46.08,0,4.44,1.44,7.8,4.2,9.84l29.4,1.2a82.72,82.72,0,0,0,18-1.32,11.91,11.91,0,0,0,1.92-4.56,11.78,11.78,0,0,0,.36-4.08,10.87,10.87,0,0,0-.72-3.84l-1.92-4.08-45.6,3.24L270,335C265.8,346.2,263.4,359.28,263,374.4Zm49.32-124.92a306.91,306.91,0,0,1-9.84,55.2l-.48-.84-31.44-63.6a2.31,2.31,0,0,0-1.68,2.16,231.77,231.77,0,0,1-6,41.88c-3.36,14.28-3.12,27.12.6,38.52a12.62,12.62,0,0,0,2.52-5.64,497.15,497.15,0,0,0,7.44-53.64l.6,1.44a330.32,330.32,0,0,0,30,63,87.93,87.93,0,0,0,9.24-27.24q2.52-13.86,5.76-27.36c2.64-11.64,1.32-21.48-3.84-29.52A7.47,7.47,0,0,0,312.36,249.48Zm-5-129.12a34.32,34.32,0,0,0-15.12,11.4A82.14,82.14,0,0,0,276,169.08c-4.2,25.2.72,47.88,14.52,68a3.69,3.69,0,0,0,4.08,1.8q29.52-5.94,24.12-31.68a3.3,3.3,0,0,0-1.8,1.08c-6.24,10.92-14.76,15.6-25.56,14.16a62.25,62.25,0,0,1-10.56-35.76q.18-33.48,26.28-51.12a20.14,20.14,0,0,1,6,.84l9.12,2.88a10.35,10.35,0,0,0,1.44-6.48c-.72-5.64-3.84-9.6-9.24-12.12Zm-116.88-3.84.24-4a1.22,1.22,0,0,0-1.68.84,119.06,119.06,0,0,0-6.72,25.68q-9.9,63.18-22,126.12A298.51,298.51,0,0,1,153,295.8q-3.78-30.78-6.12-61.56a906.62,906.62,0,0,0-18.36-125.16l-.36-3.24-.48.12-.48,1.8c-.48.24-.72.72-.84,1.56v2.28Q113.22,166.32,103,222.72L80.28,348.6a230.45,230.45,0,0,1-7.68,31.08c-5.4,16.32-6.72,32.16-4.08,47.52A2.11,2.11,0,0,0,70,426a101.67,101.67,0,0,0,6.72-21.24q12.24-62.82,22.8-126.12T124.8,153.12a133.82,133.82,0,0,0,3-16.32L128,138q8.64,62.82,14.16,126.36c1,10.92,1.68,21.72,2,32.52q.72,16.74,8.28,28.44l1.08,2.88.36-.84.24.36a7,7,0,0,0,2.16-6.36l-.24-2.64q9.72-39.06,17.52-80.16,9-47.34,14.16-94.92v.72c4.44,42.36,8.28,84.72,11.76,127.32L202.08,304c2.28,31.92,4,63.84,4.8,95.88.36,12.36,3,22.56,8.16,30.6a2.11,2.11,0,0,0,.72-1.56,638.36,638.36,0,0,0-3.12-75.48c-1.56-15.72-2.88-31.56-4-47.28-1.44-21.36-3.12-42.6-5-63.84q-5.94-63.72-13-126.72Zm53.16,6.84c-.12,37.56-1.32,75.12-3.36,112.92l-6.72,129c-.6,10.8-1.44,21.6-2.52,32.28-1.2,12.6.6,23.16,5.4,31.8a527.41,527.41,0,0,0,4.68-73.8c-.12-15,.12-29.88.6-44.64,1.32-43.32,4-86.28,7.68-129a254.19,254.19,0,0,0-2-64.2C244.8,118.32,243.6,120.24,243.6,123.36Zm112.92,19.2-1.68,129.12c-.6,43-2.16,85.68-4.44,128.16l-.12.48a21.27,21.27,0,0,1-.12-2.88q-3.78,18.18,2.16,39.24a1.63,1.63,0,0,0,2-1.68q6.12-54.18,7.08-109.44l.84-1Q384.6,284.82,405.36,244a126.45,126.45,0,0,0,7,52.68,935.76,935.76,0,0,1,33.6,122.76c-.6.6.12,1.2,1.92,1.92l.12.72,3.12,9a3.66,3.66,0,0,0,3.48,1.92,3.82,3.82,0,0,0,2.16-4.44,469.72,469.72,0,0,0-14.88-66.84q-18.54-61.2-34.2-122.52l13.92-28.08Q435.24,183,449.4,155.16C454.68,145,456.6,135,455,125a85.75,85.75,0,0,0-17.28,26.76,1097.07,1097.07,0,0,1-55.08,114.84,124.1,124.1,0,0,1-9,13.8,71.29,71.29,0,0,0-11.76,21.12l1.44-56.4c1.32-43.32,1-86-1.32-128.28C358.44,124,356.64,132.6,356.52,142.56Z" transform="translate(-67.2 -105.84)"/></svg>