<svg id="Layer_1" data-name="Layer 1" xmlns="http://www.w3.org/2000/svg" viewBox="0 0 575.76 590.16"><defs><style>.cls-1{fill-rule:evenodd;}</style></defs><path class="cls-1" d="M452.52,518.4l2.76,3.48-.6,1.56c-.84-.24-3.72-1.56-8.76-3.84-4.8-2.28-7.32-3.48-7.68-3.48-11.16,0-19.8,4.68-25.92,14.16a47.45,47.45,0,0,0-6.24,14.28c1.44-.6,4.92-1.2,10.44-1.68v-.48l29.52.24c.12.36.48.48.84.6s.48,1,.48,2-.12,1.8-.48,2L446,548l-29.76.84-2.4,1.08-3.84.6-3.48-.12-1.32-.24-.12-.12a44.22,44.22,0,0,0-.48,7c0,3.48,2.28,7.44,6.84,11.76,5.88,5.52,13.2,8.4,22.08,8.76,11.88-1.08,19.8-3.24,23.76-6.24l3.84-4.08a17.74,17.74,0,0,1,4.08-4l.84,1.2.24,2.76c0,2.28-2.16,5.52-6.36,9.84-4.92,4.8-9.72,7.2-14.16,7.2-17.16,0-29.52-3.84-36.84-11.52-4.32-4.56-6.48-9.6-6.48-15.24a70.29,70.29,0,0,1,5-25.2c4.08-10.68,9.6-18.12,16.68-22.44q17.46,1.26,24.12,5A19.66,19.66,0,0,1,452.52,518.4Zm78,11.28c-2.28-4.8-6.24-8.28-11.88-10.56-4.92-.36-7.44-.72-7.68-1.08l-15.6-.72a29.83,29.83,0,0,0-5.52-.12l-.24-.12c-.24,8.28-1.2,19-2.76,31.8-1.56,12.6-2.52,22.44-3.12,29.28l4-1.68L506,570c17.76-7.2,26.64-16.68,26.64-28.56A28.21,28.21,0,0,0,530.52,529.68Zm5.16,12.84c0,8.88-4.32,17.28-13.08,25.08q-14.94,13.32-40.32,17.28H482l-2.16.24-.36-1.08a14.6,14.6,0,0,1-.12-2.52c0-.72.72-1.44,2.16-2.28v-2q0-1.08,1.44-15.48l1.8-18.24V525.84c0-6.48,1.2-11.52,3.48-15.12l.72.48c.36.24.6.84.6,1.92v.24l.36-.6,1.32-1,4.8.36,16.56,1,7.08.6c6,1.56,10.32,5.76,13.08,12.84A42.47,42.47,0,0,1,535.68,542.52ZM334.8,558.36a54.75,54.75,0,0,0,7.44,8.64c7.8,7.8,15.6,11.64,23.16,11.64,10.92,0,17.88-1.44,21.12-4.2l2.4-3.36a5.88,5.88,0,0,1,3-2.16l-.72,2.76a26.59,26.59,0,0,1-2.4,5.64c-3,5.4-6.72,8.16-11.16,8.16-19.56,0-33.24-4.92-41.16-14.88A28,28,0,0,1,330,552.72c0-8.52,1.56-15.6,4.8-21.24,3.84-6.6,10.92-13.08,21.12-19.44l5.16.24,5.4.6c11.16,1.2,18.12,2.88,20.64,4.92l.24,2.4-.48,1.2a3.76,3.76,0,0,1-2.4.48c-.72,0-2.88-.72-6.48-2s-7.8-1.8-13.08-1.56l-9.24.36c-8.76,6.36-14.88,12-18.36,17a29.52,29.52,0,0,0-5.16,17.16C332.16,553.8,333,555.6,334.8,558.36ZM278.16,457.68q-3.6,20.52-10.32,62.16c-4.2,25.08-8.16,46.32-12.12,63.72H254.4a22,22,0,0,1-.36-4.44q0-6.48,24.72-149.88,7.2,42.84,25.08,142.08h.36q2.34-14.58,10-72.72c3.84-29.88,7.8-53.52,11.76-71.16a9.12,9.12,0,0,1,1.92,6.12c0,4.92-2.76,26.52-8.16,65q-9,64.44-15.24,89.52c-3.36-8.28-6.36-19-8.88-32-2.52-14.76-4.44-25.68-6-32.88q-6.3-29.7-10.8-64.92Zm-6.72-165.84a32.76,32.76,0,0,1-1.08,9.72v56l-1.56,27.24a231.65,231.65,0,0,1-2.52,26.28l23,1.08,27.84,1.08,11-.48,1.32,2.28a9.69,9.69,0,0,1,.36,3,8.57,8.57,0,0,1-1.92,5.76L316.08,423c-27,.84-44,.12-51-2-2.52-.72-3.84-1.68-4.2-3l.24-3c0-9.48.48-19.92,1.56-31.08.72-7.56,2-18.36,3.84-32.28V297.24a35.87,35.87,0,0,0,.6-10.08L266,275.76c-.84-9.24.36-15,3.72-17.28.6,4.44,1,11,1.32,19.68Zm-80.64-222,3.6,67.32v46.92q2.7,38.34,9.36,104.64,7.74,75.6,10.08,104.88v42.12c.36,5.16.72,13.08,1.08,23.64s.72,18.36,1.08,23.52v71.4a90.09,90.09,0,0,1,3.12,12.48,79.07,79.07,0,0,1,1.2,13.2,18.6,18.6,0,0,1-2.4,9.24c-2.76-2.4-4.68-6.36-5.64-11.76l-.84-7a33.89,33.89,0,0,0-1.32-6.48V491c-.36-5.16-.72-13-1.08-23.16s-.72-18-1.08-23.16v-43.8Q205.44,371.58,197.88,296c-4.44-44.16-7.68-79.08-9.48-104.64V144.48C186.84,130.2,185.64,113,184.56,93l-2-51.6c-2.28,33.48-5.76,71.52-10.2,114.12-2.52,23.64-6.72,61.8-12.84,114.36-1.68,14.88-4.68,34-9.12,57.36-5.88,31.56-9.24,50.52-10.32,57.12-1,5.52-2.88,15-5.88,28.44q-4.32,18.9-5.76,29.16-1.26,8.82-3.6,31.32c-1.68,12.84-3.6,21.12-5.64,25q-5.94-79.38-17.88-233.64Q89,106.74,83.4,30.84h-.24Q63,141.18,43.56,310.8,38.16,357.42,28,450.72,18.78,533.34,11,590.28c-.6-.84-1.2-3.72-1.68-8.76-.36-3.72-.48-6.72-.48-9.12q0-32.22,26.28-243.84Q58.74,137,69.36,67.68c.6-3.48,1.56-8.88,3-16s2.4-12.24,3-15.72a43.3,43.3,0,0,0-.24-8.52l-.84-9.84C73.92,9.84,76,5.76,80.16,5.16c6.6-1,10.32,5.76,11.28,20.16.24,4.32.36,10.56.24,18.84-.24,8.76-.24,14.4-.12,17,1.08,16,2.88,37.08,5.28,63.36l5.52,63.12q3.42,41.4,11.64,125.64,7,75.78,7.92,126.84v.24L142.2,331.08q11.7-64.8,14.88-109.56c1.8-15,3.72-33.24,5.76-55l5-54.84c4.2-43.92,9.24-80.4,14.88-109.32Q188.16,30.48,190.8,69.84ZM226.44,1.68a491.5,491.5,0,0,1,7.92,57c1.56,19.56,2.4,39.36,2.4,59.4,0,10.56-.36,18.24-1.08,23.16v45.48q-1.08,7.38-1.08,22.68c0,10.32.36,17.88,1.08,22.8v51.12c.48,3.6,1,13.92,1.56,30.84.36,14.16.6,23.76.6,28.8,0,9.24-.24,21.12-.6,35.88-.48,16.56-1,26.88-1.56,31.08V457.8l-1.08,3.36v78.72c-.84,4.32-1.2,13.08-.84,26.4q.54,17.1-3.24,25.56a11.8,11.8,0,0,1-5.4-6.72,24.35,24.35,0,0,1-.84-7.44c0-7.32.36-15.12,1.08-23.16.84-8.52,1.92-16.44,3.24-23.88V453.48l1.2-4v-48c1.08-4.68,1.68-14.16,2-28.2l.12-30.6-.84-27.36c-.6-14.76-1.08-23.16-1.32-25V240c-.84-6.48-1.2-16.44-1.2-30s.36-23.52,1.2-30V132.84a69.53,69.53,0,0,0,1.08-14.16c0-9.12-1.08-29.88-3.36-62.16l-3.24-47A14.11,14.11,0,0,1,226.44,1.68Zm53.88,101.16c-2.88,2.4-4.32,4.2-4.32,5.52,0,3.12,3.12,7.44,9.48,13.08l21,18.36Q336.9,169.86,337,208.2a40,40,0,0,1-8.76,25.2c-9.48,12.36-25.08,18.6-46.8,18.6q-18.54,0-25.92-14.76a38.73,38.73,0,0,1-3.84-17.16,58,58,0,0,1,.72-7c.36-3.24.84-6.36,1.44-9.24l.48-.48,1.2-1.2a11.06,11.06,0,0,1,1.56,6.12,33.29,33.29,0,0,1-1.08,6,34,34,0,0,0-1.08,5.76c0,3.36,1.32,7.44,4.08,12.24,4.08,7.2,9.72,10.8,16.8,10.8q31.14,0,47.16-14a38.13,38.13,0,0,0,8.88-11.52,22.48,22.48,0,0,0,2.4-9.24c0-15-3.24-28.2-9.6-39.6-4.68-8.28-11.76-16.56-21.24-24.72q-15.48-12.06-21.24-17.64c-6.36-6.24-9.6-12.48-9.6-18.6a12.66,12.66,0,0,1,3-8c.6-.6,3.24-3.36,8-8.16,10,1,18.6,3.36,25.68,7.32q10.08,5.4,10.08,10.8l-.24,2.4-.6.84a63.7,63.7,0,0,0-8.76-7.56A33,33,0,0,0,290,98.88Q285.36,98.88,280.32,102.84Zm53.16-89-12.84.48-13.44.84-5.88.48c-.12,8.28-.6,18.84-1.56,31.68-1.08,15.84-1.8,27.36-2,34.68l-.6.48-1.2.6c-.72-4.32-1.08-11.16-1.08-20.64,0-14,.12-23.28.24-28a134,134,0,0,1,2-18.36l-1.56.12a28.44,28.44,0,0,0-5.64,1.08L262.32,17l-.72-1.32a8.06,8.06,0,0,1-.36-2.76l.24-2.4.84-1.68,27.84-.72q.72-.54,5.76-1.08L308.28,6V5.4l25.2.24L334.32,7a6.32,6.32,0,0,1,.48,2.76l-.24,2.4Zm61.44,338.88c-5.4,1.8-13.2,3.12-23.4,3.72l.12,4.2A359.47,359.47,0,0,1,369.48,397l-4.32,36.6-2.64,36.6c-1,14.64-2.76,26.76-5.52,36.24a8.28,8.28,0,0,1-1.32-2,15,15,0,0,1-.24-2.88c0-7.8,1.92-31.56,5.76-71.52q5-52,8-73.32c-5.4.24-11.4.36-18.12.36l-18.48-.48-.72-1.08a7,7,0,0,1-.36-2.52,19.91,19.91,0,0,1,.24-2.88l.12-.84c24.12-.84,44.76-2.88,62.16-6,4.44-.84,7.08-1.2,7.8-1s1.2,1.56,1.2,4S400.32,350.88,394.92,352.68Zm-17.52-97.2a4.61,4.61,0,0,1,.24,1.92c0,1.08-6,7.56-18,19.56l-5,5L365,306.48A290.54,290.54,0,0,1,375.48,337l-.48.48-1.2.6c-2.52-5.52-7.08-16.56-13.68-33L352,284.64l-15.6,16q-4,26.64-6.12,36.72h-1.92l-.36-.72a9.2,9.2,0,0,1-.12-2.16c0-2.52,1.32-14.16,4.08-34.92q4.14-30.42,6.12-41.76h.84l1.44,1.8a5.18,5.18,0,0,1,.48,2.64c0,4.2-1.2,15.12-3.72,32.76,3-3.6,7.68-8.88,14.16-15.72l.48-.72,1-1.08.12.24C364,265.92,372,258.36,376.8,255ZM495,183.84c0,4.68-.84,16.68-2.64,36-1.8,19.08-2.76,39.6-2.76,61.44a319.84,319.84,0,0,1-2.88,46,86,86,0,0,1,11.88-4.08c16.2-4.68,27.48-8.16,34-10.68q49.32-18.72,49.32-50.64c0-6.36-1.32-13.68-3.84-21.84a91.52,91.52,0,0,0-14-27.48q-24.3-32.76-69.12-33.24Zm-1.32-12.12L494,173c33-.6,57.72,11.28,73.92,35.64a99.51,99.51,0,0,1,13.32,29.88,89.88,89.88,0,0,1,3.36,23.16c0,17.76-6.12,32-18.48,43q-23.22,20.52-80.28,29.64l-.36-.24-.48,2.4a9,9,0,0,1-1.68-4.32l-.24-1.8-.12-2.52.12-6.84q0-17.28,2.16-44.64V234.12l7.32-54.84a8.81,8.81,0,0,1-.24-2.88,16.16,16.16,0,0,1,.12-2.64l.12-.72h1ZM417.6,188.16c3.24-6.72,8-11.16,14.16-13.44,5.28-2,11.16-2.16,17.64-.48a39,39,0,0,1,15.12,7.56c4.32,3.6,6.48,7.08,6.48,10.56q0,2.7-.36,2.88l.12.36c-.12.36-.72.48-1.8.48-3-2.52-6.24-5.16-9.72-7.68-6.84-5-11.64-7.56-14.52-7.56-16.68,0-28.32,12.12-35.16,36.24a149.49,149.49,0,0,0-5.28,35.76l5.52.6,15.48,1.8H456.6l5.16.6.12.24.12,2.16a5.7,5.7,0,0,1-.72,2.88A6,6,0,0,1,456.6,264H425.28c-12.48-1.8-19.56-3.12-21.12-3.72V272a107.74,107.74,0,0,0,3.48,23.88c6.12,22,19.08,33,38.64,33,4.2,0,10.44-4.2,19-12.6a114.59,114.59,0,0,0,15.24-17.76l1.2,2a8.37,8.37,0,0,1,.36,2.88c0,.84-.72,2.88-2.28,6.36a82.21,82.21,0,0,1-7,12.36q-11.7,17.28-25.92,17.28l-4.44-1a45.84,45.84,0,0,0-8-1.8c-11.16-4.44-19.8-13.08-26.16-25.68-5.16-10.2-7.68-20.16-7.68-29.88a21.19,21.19,0,0,1,.36-4.44v-41.4a128.09,128.09,0,0,1,6.48-23.16C409.92,205.56,413.28,197.52,417.6,188.16ZM387.84,176c3.24,4,4.92,10,4.92,18.12l-.12,2.4-.48,1.68-1.08.24a82.42,82.42,0,0,0-3.6-12.36c-2.52-6.36-5.64-9.6-9.6-9.6-2.76,0-5.88,1.92-9.48,5.76-3.24,3.36-4.92,5.64-4.92,6.84,0,2,1.56,4.68,4.8,7.92l10.44,9.72q15.12,14.22,15.12,24.12c0,4.68-1.92,9-5.64,13.08-5.76,6.36-14.76,9.48-26.88,9.48-10.32,0-17.16-2.76-20.52-8.4-1.56-2.64-2.4-6.72-2.4-12.24l.12-5.64c.6-3.24,1.68-5,3.36-5.64l1,.84a5.17,5.17,0,0,1,.36,2.4,16,16,0,0,1-1.08,4.44,16,16,0,0,0-1.08,4.44c0,2.52,1.68,5.16,4.92,7.92a18.82,18.82,0,0,0,12.12,4.56c12.6,0,21.72-2,27.36-6.24,3.6-2.64,5.4-5.52,5.4-8.76s-1.56-6.48-4.56-10.08A114.54,114.54,0,0,0,376.08,211,84.05,84.05,0,0,1,366,200.64q-4.68-6.12-4.68-11.52a16.75,16.75,0,0,1,4.92-11.76,17.65,17.65,0,0,1,10.8-5.64A11.55,11.55,0,0,1,387.84,176ZM449,5.88a6.32,6.32,0,0,1,.48,2.76l-.24,2.4-1.08,1.68c-6,.36-18.24,2-36.72,4.92l-12.84,1.92.12,1.68-3.36,99L395,138.36l-1,28.2-.48.48-.84.84-1.56-1.8a5.54,5.54,0,0,1-.6-2.76l.48-8.76q.54-7.38,1.08-11.52V99.12l-1.08-3.24V52.08a74.65,74.65,0,0,0,.72-9.48L392,31.8c.24-5.16,1-9,2.16-11.64l-18.6,1.32-8.4-.12-6.72-.48-9.24-.6L350.4,19a5.69,5.69,0,0,1-.48-2.76,5.9,5.9,0,0,1,.36-2.4l1-1.68,4.8.12,5.52.48A499.23,499.23,0,0,0,411.36,8,301.34,301.34,0,0,1,448.2,4.56Z" transform="translate(-8.88 -1.68)"/></svg>