<svg id="Layer_1" data-name="Layer 1" xmlns="http://www.w3.org/2000/svg" viewBox="0 0 294.9 210.84"><defs><style>.cls-1{fill-rule:evenodd;}</style></defs><path class="cls-1" d="M307,293.16a421.68,421.68,0,0,0-8.4,55.56,142.77,142.77,0,0,0,4.2,48.72c14.28,3.72,26.28-.6,35.76-13.2q8.82-15.48-2.52-24.12l-.6.6a14.93,14.93,0,0,0-2,10.44c-7.08,10.44-16.44,14.16-28,10.92v-.84q1.8-45,2.52-88.56C307.32,292.56,307.08,292.8,307,293.16Zm1.44-52.32c-3.24,3.48-4.08,7.8-2.76,12.72l.6,1.92-.48,11.28,3.72,2.52c6.36-9,6.36-17.88.24-26.88ZM197.28,194.52a667.44,667.44,0,0,0-20,76.2c-4.2,21-9.12,41.64-14.64,62.16a350.31,350.31,0,0,0-11,63,2.32,2.32,0,0,0,2.16,2.16,47,47,0,0,0,7.2-16.56l27.48-124.2a388.61,388.61,0,0,0,6.84-39.48l.6,3.84a762,762,0,0,1,11.28,80.16,53.49,53.49,0,0,0,4.44,17.88,16.55,16.55,0,0,0,4.32,8.52,133.64,133.64,0,0,0,6.36-25.2,669,669,0,0,1,17-75.24q8.1,57.42,17.52,114.84a288.66,288.66,0,0,1,3.6,31.92c.6,12,3.48,22.32,8.52,30.84a33.69,33.69,0,0,0,2.64-20.4l-9.72-60.24q-9.36-57.42-19.2-113.52a72,72,0,0,0,0-16.08l-1.8,5.4-.36-1.32a22.17,22.17,0,0,0-3.12,11.4A495.14,495.14,0,0,0,219,284.4a112.82,112.82,0,0,1-4.92,19A638.92,638.92,0,0,0,197.28,196l-.12.24Zm236.16,71.16c-4.68,15.36-14.52,25.68-29.76,30.84a93.76,93.76,0,0,1-22.92,4.68l2.52-89a53.78,53.78,0,0,1,39,9.72l2.28,1.68C435.12,236.16,438.12,250.2,433.44,265.68Zm-48.84-65L383.4,196l-.84,5.64c-2.28,12.36-4,25.32-5.16,38.64-1.2,13.56-2.16,27.24-3,41q-1.08,21.42-2.88,42.48L367.2,368c-1.44,13.44-.48,25.2,2.76,35.4a256.29,256.29,0,0,0,6.84-40.8c1.08-13.08,2-26.16,2.76-39.24l.48-8.64a50.1,50.1,0,0,0,19.8-1.56,55.28,55.28,0,0,0,10.68-4.32,501.93,501.93,0,0,0,30.36,88.68,16.16,16.16,0,0,0,4.2,5.64,37.63,37.63,0,0,0,.24-19.32,169.72,169.72,0,0,0-5.52-17.76L429.48,340.2c-4.68-11.4-9.6-22.56-15-33.6a55.34,55.34,0,0,0,19.92-21.48,72.48,72.48,0,0,0,7.08-20.64,59.71,59.71,0,0,0,.84-14.64,59,59,0,0,0-9.24-27.48q-16.56-26.28-47.16-22.2Z" transform="translate(-151.56 -194.52)"/></svg>