<svg id="Layer_1" data-name="Layer 1" xmlns="http://www.w3.org/2000/svg" viewBox="0 0 552.52 593.4"><defs><style>.cls-1{fill-rule:evenodd;}</style></defs><path class="cls-1" d="M434.88,547.32v36A250.62,250.62,0,0,0,440,552l1-13.56a259.55,259.55,0,0,0-.24-27.36L436.2,535,397,543.12,396.48,513l-6,32-1,1.08V556.8q.18,7,.72,13.68A52.16,52.16,0,0,0,394,586.2l2.64-34ZM295.2,511l-18.48,39.36-1.56,3.24c-5.28-14.76-13.92-27.84-26-39.48a2.17,2.17,0,0,0-2,1.8,14.23,14.23,0,0,0,.48,7.44l1.44,1.8c7.56,11.88,15.48,23.28,23.88,34.2a101.5,101.5,0,0,0-7,35.4c6.12-6.24,10.8-14.76,14-25.44a177.15,177.15,0,0,1,11.52-28.08c5.64-11.28,8-22.44,7.44-33.36A5.08,5.08,0,0,0,295.2,511Zm29.16-53.64c9.12.36,18.36.6,27.6.72a89.79,89.79,0,0,0-1,16.32,592.26,592.26,0,0,1-3.84,92.4c-1.2,9.6,0,17.52,3.48,23.88a42.88,42.88,0,0,0,4.2-16.92c2-38.76,2.28-77.4,1-115.68l22.68-.48.48-.84a9.13,9.13,0,0,0-1-9.72,206,206,0,0,0-22.68-.6l-.12-1.08-.36,1.08a182.37,182.37,0,0,0-30.48,3.6l-.12.84A11.89,11.89,0,0,0,324.36,457.32ZM171.24,9.72,169.44,14l-.12-.48c-.6-.12-.84,0-.84.36l-.6,3.72a119.34,119.34,0,0,0-5.64,22.56q-9.54,63.54-21.36,126.72Q129.18,229.38,120,292.56l-1.44,11.64c-.84-12.84-1.8-25.68-3-38.52q-5.58-63.9-7.8-128.28-2-56.88-7.32-112.8c.12-6.72,0-13.44-.36-20-.48.12-.72.24-.84.48Q87.18,66.24,76.92,128.16,66.3,191.34,57.24,255q-6.66,47.52-12.84,95.16Q36.3,413.7,24.84,476.52l-11.64,63a324.08,324.08,0,0,0-5.4,47.4,3.16,3.16,0,0,0,4.08,1.32,57.74,57.74,0,0,0,4.68-15.48q11-62.82,20.16-125.88Q46.08,383.7,54.48,320.4q8.46-63.54,18.72-126.6T95.52,68.16l.72-4q4.68,58.86,7.56,118.08,3.06,64.26,7.8,128.28c.72,10.92,1.08,21.84,1,32.52-.12,10.2,2.4,17.88,7.56,23.28a2.41,2.41,0,0,0,.48-1.56l-.24-19.08q8.46-49.32,15.24-99.6,8.64-63.18,19.68-126c3.24-18.72,6.84-37.32,10.8-55.92l.6,10.32q5,63.36,10.56,126.48,4.32,47.52,10.08,94.8l15.84,127.56q7.92,64.26,17.52,128.4A88.9,88.9,0,0,0,231,583.32a4.22,4.22,0,0,0,1.8-4,433.54,433.54,0,0,0-6.84-58Q214.44,458.58,206,395.16C200.4,353,195.48,310.8,191,268.44S182.52,183.6,179,141q-4.32-53.1-8.16-105.84A150.64,150.64,0,0,0,171.24,9.72Zm127.68,129.6a.81.81,0,0,0-1.08.6,25,25,0,0,0-.84,13.92c-2.28,30.84-3.48,62.28-3.36,94.32q.18,64.44,1.32,129a223.72,223.72,0,0,1-1.68,32.4c-1.56,11.64-.84,22.44,2.16,32.28a102.31,102.31,0,0,0,5.4-38.64q-2.7-64.44-.72-129.12,1.8-59.4-1.32-117.12l.48.48L306.72,195q12.24,62.28,28.8,123.12a913.37,913.37,0,0,1,20.4,93.72c2,11.76,5.16,21.84,9.6,30.24a7,7,0,0,0,1.56-5.52A743.73,743.73,0,0,0,341.4,312.12c-4.56-15.24-8.4-30.72-11.64-46.44Q317,203.22,301.44,141.84l-.6-.84Zm-39.84-77c1.56,42.84,2.28,85.92,2.28,129s.48,86.16,1.56,129.12,1.08,86.16.12,129a321.69,321.69,0,0,1-2.28,32.28q-2.16,17.82,4.32,32.4a1.62,1.62,0,0,0,1.08-1.44q5.58-59.76,5.4-120.84c-.12-43.2-.72-86.16-2-129-1.32-43.08-1.8-86-1.56-129.12.36-43.32-1.2-86.16-4.44-128.28-.6-.12-.84,0-1,.36A280.7,280.7,0,0,0,259.08,62.28ZM392.64,387.72l31.2-1.68a909.08,909.08,0,0,0-7.56,92,116.61,116.61,0,0,0,.84,17,61.46,61.46,0,0,0,3.72,14.16l.12-.12,3.6-123.24,21.84-3.36.72-8.64a170.75,170.75,0,0,0-54.6,7.32Zm25.08-87.6L400.56,320l-6.6,8.52.84-30.12a176.91,176.91,0,0,0-5.64,64l1.08,8.76,3-33.24,6.36-8.28,2.16-2.28,21.12,42a108.86,108.86,0,0,0-17-46.56c8.76-4.56,13.56-10.92,14.16-19.2A3.14,3.14,0,0,0,417.72,300.12Zm-3.24-79.8c-7.8,4.68-12.84,11.76-15.24,21q-6.84,26.82,5,50.4c11,6.72,21,5.28,29.76-4.32a6.12,6.12,0,0,1,1.8-4.08l.84-.84-2.16-.24a138.19,138.19,0,0,0-20.28,2,4.28,4.28,0,0,1-4.68-2q-18.18-26.82,4.68-51.72a110.39,110.39,0,0,1,17.88,2.16c1.08-3.72.24-6.72-2.76-9l-3.72-3.12Zm109.44,96.24q27.18,11,32.4,39.24a20,20,0,0,0,2-15.24q-7.74-35.82-44.28-41.28c-3.6,1.56-7.32,3.36-11,5.28a21.27,21.27,0,0,0-9.48,8.88q-17.82,31.86-11.52,70a65.7,65.7,0,0,0,22.08,40.32,149,149,0,0,1,44.76,69.36,86.09,86.09,0,0,1,.48,49.56c-6.36,21.6-20.76,32-43.44,31.44-20-.6-30.48-10-31.08-28.08-.36-10-3.12-17.76-8.4-23.28a100.44,100.44,0,0,0,.72,36.84,31,31,0,0,0,7.8,15.72q26.1,28.8,59.64,8.4a38.66,38.66,0,0,0,15.12-17.88q22.86-53.46-3.6-105.84a74.93,74.93,0,0,0-20-25.2c-16.68-13.56-28.44-30.12-35-49.68a108.25,108.25,0,0,1-5.4-24.72C484,342.6,489.72,328.92,503,319.2,509.64,314.4,516.6,313.56,523.92,316.56ZM486,249.12l-.84-1.2L465.24,254a48.91,48.91,0,0,1,12.84-23.52L492.72,232l-.6-8.16a16.21,16.21,0,0,0-12.84-4.08l-2,.24c-12,12.6-17.88,28.08-17.76,46.2a97.63,97.63,0,0,0,3.24,23.64c9.84,7.2,19.92,6.84,30.24-1,4.92-3.72,7.92-7.8,9.12-12.48a102.16,102.16,0,0,1-21.12,8,17.15,17.15,0,0,1-14.52-3,51.45,51.45,0,0,1-1.92-24.12l.6,4.08a25.29,25.29,0,0,0,21-3.84A7.87,7.87,0,0,0,486,249.12ZM367.8,157l-2,84.36c-1.2,42.84-1.92,85.8-2.28,129.12a406.1,406.1,0,0,0,4.44,63.84,2.77,2.77,0,0,0,1-1.32q2.7-45.9,2.16-92.52c-.24-21.72.12-43.32,1-64.92q2.34-64.62-.48-128.28C369.24,149.52,367.92,152.76,367.8,157ZM357.48,40.08A75.5,75.5,0,0,0,339.24,16l10.32-4.08,10,9.48c2.88-10.8-1.08-17.4-12-19.68l-2.28-.36c-8.88,4.44-12.36,11.52-10.32,21.36l7.56,9a27.91,27.91,0,0,1,14.64,19.2c-11.88,10.2-22.92,9.12-33-3q8.82,36.9,31.8,8.16C359.76,51.12,360.24,45.84,357.48,40.08ZM390.24,77.4a179.57,179.57,0,0,0,17.64,41c2,3.72,4,7.44,5.76,11.4a437.06,437.06,0,0,0-23.16,69.84,148.48,148.48,0,0,0-3.6,23l30.48-83.64c6.84,20.28,14.16,40.44,21.72,60.48a110.58,110.58,0,0,0,10.08,20.76l1.92,2.88c3.36-10.68,2-21.6-3.84-32.88a497,497,0,0,1-26.52-60.72A178.62,178.62,0,0,0,435.36,85a77.36,77.36,0,0,0,1.32-17.28,110.65,110.65,0,0,0-12.6,29.52c-2.16,7.56-4.56,15.24-7.08,22.92A169.32,169.32,0,0,0,391.32,75.6ZM401.52,3.84c-12.12,19-8,34.56,12,46.92l2,1.2c-5.88,6.6-13.08,8.64-21.72,6.24l-1.8-.6L389.76,55l-2.88-.6c-1.92,11.4,3.72,16.08,16.8,14,12.84-1.8,17.76-9.12,14.76-21.84L417,41.64c-16.08-4.92-21-14.16-14.64-27.6l11,1.92,5.16,4.32C420,9.48,415.08,4,403.92,3.84Z" transform="translate(-7.8 -1.32)"/></svg>