<svg id="Layer_1" data-name="Layer 1" xmlns="http://www.w3.org/2000/svg" viewBox="0 0 452.84 350.37"><defs><style>.cls-1{fill-rule:evenodd;}</style></defs><path class="cls-1" d="M222.48,150q0,39.42,3.12,79.2c3.24,42.36,8.28,84.6,15.12,126.48a382.84,382.84,0,0,1,5,64.2c0,12.72,3.24,22.92,9.6,30.6a25.51,25.51,0,0,0,3-17.16l-7.92-50.76c-6.36-42-11.76-84.24-16-126.72-2-21.36-3.24-42.72-3.48-64.2A280.08,280.08,0,0,0,225.84,139a49.87,49.87,0,0,0,.6-13.92,11.47,11.47,0,0,0-7.2,8.28q-17.1,62.1-28.68,125.16a196.3,196.3,0,0,1-8.28,31,59.72,59.72,0,0,0-2.4,9.36A453.54,453.54,0,0,1,171,242.28a612.3,612.3,0,0,0-21.36-114.72l.24-10.08a1.37,1.37,0,0,0-1.8.72l-.6,1.8-.84-2.52c-1-.24-1.44,0-1.32.72l.24,6.72c-1.68,4.56-3.24,9.24-4.8,13.92a888.61,888.61,0,0,0-27.12,109.44c-3.84,21-8,42-12.6,62.76q-13.5,62.1-25.56,123.72a3.83,3.83,0,0,0,3.48,3c4.44-12.84,8.28-26.28,11.76-40.2q11.52-46.44,18.36-93.72A685.24,685.24,0,0,1,139.2,179.76a196.17,196.17,0,0,0,8.16-32l2,13.92q11,63,20.88,126.24a110.84,110.84,0,0,0,9.36,31.44,11.61,11.61,0,0,0,2.28-2.64l1.8,3.12a102.77,102.77,0,0,0,5.76-19.32q11.7-62.64,24.48-125.4a101.49,101.49,0,0,1,7.44-22.56Zm140.64-16.56a655.64,655.64,0,0,0-38.4,106.32l-7.44,29-6.84-25.08A630.38,630.38,0,0,0,264.6,125c-3,1.68-3.6,4.56-2,8.64a846.94,846.94,0,0,1,39.84,121.2c2.52,10.44,6.6,18.84,12.12,25.32Q304.44,322,296.64,364.08q-5.76,31.14-13.92,61.32c-3.24,11.88-2,22,3.48,30.48q9.18-35.64,15.6-72.84,11-63.18,28-125,16.92-61.38,35.52-122.64l-.36-.72ZM421,142l39.84.6a7.49,7.49,0,0,0,2-3.36l.48-2.88a26,26,0,0,0-.12-4.32,10.74,10.74,0,0,0-2.16-6l-36.84-1.2-44.88,6.12L378.84,143l39-1.08L407,300.72q-5.4,76.14-6.84,152.76l3,1.92A211.19,211.19,0,0,0,412,406.32q8.28-128.7,9.36-257.52Zm105.6-13.44Q516.48,158,518,193.32q2.16,49,2.76,98.16l-1.32-.6-46.92,2q.36-38,1-76.2a375,375,0,0,0-4.32-64.08c-1-.12-1.56.12-1.68.84a87.75,87.75,0,0,0-2.4,18.6c-.48,21.6-.6,43.2-.36,64.92q.72,64.62-.84,129.12a382.91,382.91,0,0,1-4.2,48.48c-2.4,16.92-1.8,32.88,1.92,48.12l1.2-1A823.81,823.81,0,0,0,472,345.84l.36-37.8a262.91,262.91,0,0,0,48.6.24l.12,14q.18,64.26-5.28,128.16l-.36.48c-.84.12-1.2-.6-1.08-2-1.32,8.52.84,14.76,6.48,18.84a671.88,671.88,0,0,0,6-97.32c-.36-43.08-.48-86-.24-129.12q.18-32.4,1.44-64.8A316.54,316.54,0,0,0,526.56,128.52Z" transform="translate(-75.48 -117.39)"/></svg>