<svg id="Layer_1" data-name="Layer 1" xmlns="http://www.w3.org/2000/svg" viewBox="0 0 415.67 352.32"><defs><style>.cls-1{fill-rule:evenodd;}</style></defs><path class="cls-1" d="M305.52,149.16l-.72,129q-.72,64.44-3.24,129a282.92,282.92,0,0,0,2,47.88,492.12,492.12,0,0,1,107.16,1.2q5-7.38.72-15.48a551.05,551.05,0,0,0-102-4.08c-.12-20.28.12-40.56.6-60.84q1.44-64.62,1.32-129-.18-64.8-1.56-128.28A110.83,110.83,0,0,0,305.52,149.16Zm-32.88,41a841.35,841.35,0,0,1-7.56,128.16c-1.68,11.88-.6,22.68,3.36,32.4a399.1,399.1,0,0,0,7.08-56.64c2.4-43.08,3.48-85.92,3.12-128.28C274.44,172.56,272.4,180.72,272.64,190.2ZM217,124.56q-10.8,44.82-18.48,92-10.44,63-19.92,125.88L169,404l-1.56-11.88q-4.5-30.6-9.36-61.2c-4.92-31.56-9.72-63-14.16-94.56q-8.82-61.92-16.68-123.48l-.36-5.76a467.36,467.36,0,0,0-19,72.72q-11.16,62.46-28.2,124Q62.22,366.66,40.92,428.28c-4.2,11.64-4,22.08.72,31.2q9.36-36,20.28-72.24Q80.46,326,96,263.4q15.3-61.92,28.8-124.2l1.68-10.44c.36,13.8,1.08,27.72,2.16,41.52a1152,1152,0,0,0,17,126.72,1204.76,1204.76,0,0,1,17.4,126.48c1,12,3.84,22.2,8.64,30.48a2.6,2.6,0,0,0,1.2-2.28l-1-16.32q6.3-33.12,9.36-67.32c1.8-21.24,4.32-42.48,7.32-63.72q9.18-63,23.88-125.16a234.37,234.37,0,0,0,6-39.48q1.62,14.94,2.88,29.88c3.6,42.12,7.08,84.36,10.32,126.48,3.24,42.6,7.56,85.2,12.72,127.56,1.44,11.76,4.92,22,10.44,30.72.48-.6.72-1.08.6-1.56q-3.06-42.12-9.12-84.72C240.24,325.92,236,283.56,234,240.84a881.23,881.23,0,0,0-15.12-126.6A17.58,17.58,0,0,0,217,124.56Zm232.68,237c-31.8-1.08-63-1.68-93.84-1.68q.72-52.38.72-105.48.18-64.8-2.4-128.28a720.13,720.13,0,0,0-5.28,85.2q-.36,64.08,2,128.28l-.24.84a161.21,161.21,0,0,0-.48,34q50.76,1.44,101.64,2.52C454.8,371.16,454.08,366,449.64,361.56Z" transform="translate(-37.94 -107.16)"/></svg>