<svg id="Layer_1" data-name="Layer 1" xmlns="http://www.w3.org/2000/svg" viewBox="0 0 250.33 205.92"><defs><style>.cls-1{fill-rule:evenodd;}</style></defs><path class="cls-1" d="M199.68,196.2q-5.76,2-6.84,8.64-10.44,62.46-24,124.92a156.88,156.88,0,0,1-13.44,37.68c-5.76,11.52-6.36,22.2-1.68,32.16a232.87,232.87,0,0,0,16.2-46.92l28.2-124.56,1.2-6.6a284.21,284.21,0,0,0,7.68,43.8q8.28,32,18.6,60.72l.6-.48.48,1c9.24-26,17.52-52.68,24.84-79.68a269.79,269.79,0,0,1,8.4-25.8,38.13,38.13,0,0,0,2.28-9,147.73,147.73,0,0,0,4,32.4q14.94,61.74,23.76,124.8c1.68,11.88,5.28,22.08,10.68,30.36a2.67,2.67,0,0,0,1.2-2.4A547.38,547.38,0,0,0,291.72,324q-12.78-62.82-27.12-124.08a1.9,1.9,0,0,0-2.16,1.92l-.12,4.44a21.08,21.08,0,0,0-2.64-8.16,331.77,331.77,0,0,0-16.2,47.64,393.66,393.66,0,0,1-16.44,50,53.71,53.71,0,0,0-2.76,8.88q-9.72-50.58-23.88-100.32C200.28,201.6,200,198.84,199.68,196.2ZM360.12,365q-3.42,27.18,18.72,37.08c16.92-5.88,24.12-16.92,21.6-33.36a41.4,41.4,0,0,0-8.16,9c-5.16,2.76-10.2,5.28-15.36,7.8l-3.24-1.08a25.5,25.5,0,0,1-6.24-21.12,332.94,332.94,0,0,0,1.92-62.52,191.09,191.09,0,0,0-6.72,39.36Q361.74,352.62,360.12,365ZM369,266.76q-3.42,11,3.24,17.64l.84-.24c7-7.44,9-15.72,6.24-25a6,6,0,0,0-4.56,1.68A22.37,22.37,0,0,1,369,266.76Z" transform="translate(-150.6 -196.2)"/></svg>