<svg id="Layer_1" data-name="Layer 1" xmlns="http://www.w3.org/2000/svg" viewBox="0 0 422.77 265.68"><defs><style>.cls-1{fill-rule:evenodd;}</style></defs><path class="cls-1" d="M325.44,158.64l5.4,1.8a11.91,11.91,0,0,0-1.44-10.2,24.74,24.74,0,0,0-4.56-5.4,52.55,52.55,0,0,0-8.4-6.24,30.2,30.2,0,0,1-4.2-3.6c-14.88-4.68-28.2-2.16-40.08,7.56a133.53,133.53,0,0,0-28.8,32.16,125.34,125.34,0,0,0-17.16,40.56,309.38,309.38,0,0,0-6.48,39.36,295.14,295.14,0,0,0-1.56,47.16,227.54,227.54,0,0,0,6.6,45c3.84,15.6,13,27.12,27.48,34.44q21.06,10.62,42.48,0c14.76-7.32,23.76-18.72,27-34.44a36.27,36.27,0,0,0,.24-13.92,228.94,228.94,0,0,1-24.6,27A31.37,31.37,0,0,1,285.48,367a41.54,41.54,0,0,1-13.32,1.8,55.87,55.87,0,0,1-12.6-2.52,59,59,0,0,1-12.84-5.88,20.08,20.08,0,0,1-8.52-9.84,190.63,190.63,0,0,1-13.68-85.8l67.08,2.88a10.31,10.31,0,0,0,1.8-5.28,13.41,13.41,0,0,0-1.2-7.44l-.6-1a155.66,155.66,0,0,0-46.68-3.72A149.78,149.78,0,0,0,225.6,253,189,189,0,0,1,245,189.72a82.72,82.72,0,0,1,27.84-31.44,57.2,57.2,0,0,1,28.32-10,24.08,24.08,0,0,1,12.24,3.84A77.21,77.21,0,0,0,325.44,158.64ZM178.56,124.8q-11.16,49.68-25.08,99.72-17.64,63.54-31.44,128c-1.32-33.84-2-67.8-2.4-101.76q-.72-65-4.44-128.16l-.6.12a156.67,156.67,0,0,0-8.76,28.44c-6.6,30.6-13.32,61.08-20.4,91.56Q70.5,307.74,53,371.52c.48,2,1.68,2.52,3.48,1.56a787.14,787.14,0,0,0,24.24-77q16.56-64.44,29.88-127,4.14,64.08,4.68,129.12c.12,16.2-.36,32.4-1.2,48.6-.72,12.6,1.68,23.28,7.08,32a24.18,24.18,0,0,0,4.68-10.2c5.4-24.6,11.4-49.2,17.76-73.68q16.74-64.08,32.76-128.28a22.08,22.08,0,0,1,.48,4.92q.9,65,7.08,129c2,21.6,3.24,43.32,3.6,65,.12,10.32,3,17.88,8.52,22.68a323.33,323.33,0,0,0-2.28-62.64,1151.27,1151.27,0,0,1-9.84-129q-.54-24.3.72-48.6C185.16,138.12,183.12,130.32,178.56,124.8Zm250.08,11.28a81.92,81.92,0,0,0-38.64,23,81.08,81.08,0,0,0-17.88,30.12,405.48,405.48,0,0,0-10.68,39.36c-2.88,13.32-5.16,26.64-6.84,40.2A253.86,253.86,0,0,0,353,312.6a166.9,166.9,0,0,0,8.16,44c5.4,16.2,16.32,25.32,32.52,27.36a66.53,66.53,0,0,0,41.88-8.4,65.09,65.09,0,0,0,28.92-32.88L465.6,386c6.84-5.16,9.84-13,9.12-23.4a297.61,297.61,0,0,1,.72-50.64,76.56,76.56,0,0,0-1.68-25.08l-2.4-9.6a189.86,189.86,0,0,0-44.4-1.2,11.69,11.69,0,0,0-7.32,3.72l.12,4.8,49.44,6.48-3.12,35-1.8-.6A57,57,0,0,1,446,347.64,106.51,106.51,0,0,1,426.36,359l-11.28,5a106.16,106.16,0,0,1-10.92,3.72,18.77,18.77,0,0,1-13.68-1.92A35.64,35.64,0,0,1,374,347q-20-51.48-11.88-108.24a118.17,118.17,0,0,1,22.44-54.72,77.82,77.82,0,0,1,40.56-28.68c15.72-4.68,30.84-3,45.36,4.8L470,148.8a55.94,55.94,0,0,0-17.16-9.48A61.71,61.71,0,0,0,431.52,136Z" transform="translate(-53.04 -122.64)"/></svg>