<svg id="Layer_1" data-name="Layer 1" xmlns="http://www.w3.org/2000/svg" viewBox="0 0 306.59 211.9"><defs><style>.cls-1{fill-rule:evenodd;}</style></defs><path class="cls-1" d="M308.16,295.44a35.49,35.49,0,0,0-16.8,16,91.18,91.18,0,0,0-11,45.24c.24,17,6.36,30.84,18.36,41.28,8.52,7.56,18.36,8.4,29.4,2.76,12.12-6.36,16.32-15.84,12.36-28.68-10.92,10.68-24.6,14.16-40.92,10.44-7.2-1.56-11.28-6.36-12.36-14.4a57.22,57.22,0,0,1,.72-18.24l40-5.76a13.24,13.24,0,0,0,1.92-9.72,11.82,11.82,0,0,0-2.4-5.28,128,128,0,0,0-38.4,7.32q4.86-35.1,37.08-29.52A29.88,29.88,0,0,1,333.6,309l.48,1.32,5.4,1.92Q334.8,283.26,308.16,295.44Zm-112.8-97.92q-6.66,6.48-8.64,16.92Q175.2,276.9,161.16,339.12a214.42,214.42,0,0,1-9.48,31c-4.8,12.24-4.56,22.68.72,31.2,9.24-30.84,17.16-62.28,23.76-94.08,4.44-21,9.24-41.64,14.4-62.16l2.4-10.32q.36,6.3,1.08,13a473.08,473.08,0,0,1,3.72,48.6,86.11,86.11,0,0,0,2.52,19.92,87.14,87.14,0,0,0,.48,16.8l3.12-6.12.12.24.6-.84v-1a157.55,157.55,0,0,0,10-28.92A316.81,316.81,0,0,1,226,258.72a194.06,194.06,0,0,0,9.24-34.56c1.32,37.32,4.08,74.52,8,111.6,1.08,10.92,1.8,21.72,1.92,32.52.12,12.6,3.12,23,8.88,31.32a107.14,107.14,0,0,0,.84-36.72q-6.66-47.52-9.36-95.64a440.8,440.8,0,0,0-8.16-63.6l.12-7.2q-11.16,29.34-20.64,61.08c-2.88,9.72-6.12,19.2-9.72,28.56L205,292.44a546,546,0,0,0-9.36-88.32Zm183-.36-.12-1.8c-.6-.12-.84,0-1,.36q-4.14,56.7-4.68,114.12c-1.08,18.6-2.64,37.2-4.8,55.8-1.56,12.48-.24,23.4,4,32.64a14.69,14.69,0,0,0,3.84-9.72c1-21.84,2-43.68,3.36-65.64.72-11.64,1.2-23.28,1.56-34.8a293.08,293.08,0,0,1,37.56-3.48l.24-.72c2.28-4.92,1.92-9.48-1.08-13.8a80.48,80.48,0,0,0-36.6,5.64q.54-36-1.8-71.64a410.15,410.15,0,0,0,74.64,3.72,11.94,11.94,0,0,0,1.08-8.16,9.7,9.7,0,0,0-1.32-3.24l-.6-.84a1.93,1.93,0,0,0-.84-.48l-22.08-1.68a139.87,139.87,0,0,0-51.24,3.24Z" transform="translate(-148.25 -192.44)"/></svg>