<svg id="Layer_1" data-name="Layer 1" xmlns="http://www.w3.org/2000/svg" viewBox="0 0 286.04 208.68"><defs><style>.cls-1{fill-rule:evenodd;}</style></defs><path class="cls-1" d="M305.64,302.16a46,46,0,0,0-16.8,22.44,133.52,133.52,0,0,0-8.16,43.8c-.24,17.88,8.4,28.2,25.92,31.2,10.68,1.8,19.56-1.56,26.64-10.32,6.36-7.8,6.12-15.24-.48-22.44-8.4,14.76-19.8,19.68-34.2,14.52a23.6,23.6,0,0,1-8.52-5l.6-24.48,33.72-.6c4.68-5.64,4.44-10.92-.72-15.72L293,338.4q9-37.26,43.92-25.68C333,293.4,322.56,289.8,305.64,302.16ZM190,193.44c-3.6,4.92-6,11-7.2,18.48Q173,274.74,160,337.32c-2.28,10.44-4.8,20.76-7.68,31.08-3.36,11.88-2.76,22.32,1.92,31.2a70.38,70.38,0,0,0,5.52-18.48q9.9-63.36,23.76-125.16a250.16,250.16,0,0,0,4.8-27.84,340.54,340.54,0,0,0,18.48,94.68,2.32,2.32,0,0,0,2.16-2.16l.24-1,1.32,2.88A161.14,161.14,0,0,0,220.56,291,265.71,265.71,0,0,1,230,259a167.08,167.08,0,0,0,9.72-39.36c6.36,40,12.48,79.92,18.24,120.12a233.13,233.13,0,0,1,2.64,31.44c.12,12.24,2.64,22.44,7.44,30.6A268.09,268.09,0,0,0,265.56,326q-11-63.18-24-125.52l-.72,1v-4.8c-7.56,22.68-14.88,46.32-22.2,70.8-2.52,8.28-5.28,16.32-8.52,24.24a38.64,38.64,0,0,0-1.92,6l-1.92-6a144.93,144.93,0,0,1-8-30.12q-4.5-27.54-8.28-54.72ZM420.48,257c-.12,14.28-6.72,24-19.56,29.16a54.1,54.1,0,0,1-30.24,3.72c.6-27.12,0-54.12-1.56-81A61.71,61.71,0,0,1,399,218.28C413.52,227.52,420.6,240.48,420.48,257ZM369,199.2l-.36,1.56-.36-5.16q-4.68,53.46-6.36,109.56a491.25,491.25,0,0,1-6,63.84c-2,12.24-.72,22.92,4,31.92a506.63,506.63,0,0,0,9.6-76.92l.84-18.6a37.81,37.81,0,0,0,27.12-1.8l1.32-.72c2.28,10.32,5.16,20.64,8.52,31,4.68,14.16,9,28.44,13.08,42.84,3.12,10.92,7.8,19.44,13.92,25.44a41.59,41.59,0,0,0-1.2-28.2q-14.4-37.26-30.24-73.08,30.06-16.92,24-54c-4.44-27-20.16-43.2-46.92-48.72l-7.68.24A9.2,9.2,0,0,0,369,199.2Z" transform="translate(-150.15 -193.44)"/></svg>