<svg id="Layer_1" data-name="Layer 1" xmlns="http://www.w3.org/2000/svg" viewBox="0 0 538.43 434.44"><defs><style>.cls-1{fill-rule:evenodd;}</style></defs><path class="cls-1" d="M199.56,89.88l-.24-6.48a265.2,265.2,0,0,0-9.84,43L170.64,253.08c-5.16,35.64-10.92,71.16-17.52,106.56q-.9-29.34-2.88-59-3.06-48.06-7-95.76L133.92,89a115.7,115.7,0,0,0-.24-13l-1,1.68-.24-.24-1.32-1a52.5,52.5,0,0,0-1.08,6.72,109.18,109.18,0,0,0-7.44,22.92q-13.86,62.46-24.12,125.4Q87.9,294.78,72.36,357.12q-15.66,62.1-27.12,124.2a3.21,3.21,0,0,0,3.48,2.76,39.26,39.26,0,0,0,5.16-12.6c6.84-30.12,13.8-60,20.88-89.88q14.94-62.28,24.6-125.4,9.9-63,25.44-124.92c1.32-5.4,2.88-10.56,4.44-15.72l1-3.36c2.16,38.76,4.92,77.4,8.16,116.16,1.32,16,2.4,32,3.36,48q3.6,63.9,4.44,128.16c.12,10,2.64,17.16,7.8,21.84V409.68a21.09,21.09,0,0,0,3.6-9.6c4.68-42.36,10.2-84.6,16.44-127s13.08-84.36,20.88-126.24c1.56-8.52,2.76-17,3.6-25.44l6.6,109.92c2.52,42.6,4.56,85.44,5.88,128.28S215.4,445,220.2,487.08c1.44,1.32,2.76,1.2,4.08-.36A28.36,28.36,0,0,0,226.8,472c-4.56-42.6-7.8-85.2-9.6-128s-4.08-85.68-6.84-128.28-6-85.2-9.84-127.44Zm96.12,10.44A51,51,0,0,1,319,116l.12-.72C318,95.4,306.6,85.32,284.64,85.2a19.91,19.91,0,0,0-11.52,9.24,201.82,201.82,0,0,0-28.8,91.92Q240,250.8,237.24,315.48a1202.92,1202.92,0,0,0,1.44,128.28c1.2,17.76,7.32,33.12,18.48,46.08a12.05,12.05,0,0,0,11.28,4.32c20.28-3.12,36-13.8,47.4-31.92l10.68-17.88q9.9-17.64.36-29.88a6.41,6.41,0,0,0-2.28,4.08,7,7,0,0,1-3.24,5.28l-1.32.36-.36-.24a1.42,1.42,0,0,0,.12,1.2l1.32,2v.6a102.17,102.17,0,0,1-20,33.24c-10.2,11.4-22.44,16.92-36.48,16.56a5.16,5.16,0,0,1-4.8-2.64q-18.9-29.7-18.36-67,1.08-64.26,3-128.16l.12-.48a168.35,168.35,0,0,0,59-2l.48-.84a13.31,13.31,0,0,0-1.56-13.68l-57.6,5A1140.43,1140.43,0,0,1,255.48,153a92.69,92.69,0,0,1,22.32-48.6C282.48,99.12,288.36,97.8,295.68,100.32ZM361.44,304.2q-.9,53.82-6.84,107.28a377.64,377.64,0,0,0-9.12-44A274.79,274.79,0,0,1,339,336.36a220.8,220.8,0,0,0-18.36-61.44h-.48l-.36-3.48h-.6q-7.38,47.7-12.36,96.48c-1.68,16-4.08,31.92-7.2,47.64-2.28,11.64-1.56,22.2,2.28,31.68a4.69,4.69,0,0,0,2.88-3.72c5.4-36.12,10.32-72.24,14.52-108.6a293.14,293.14,0,0,0,2-39.48,139.37,139.37,0,0,0,3.12,15.36c3.48,12.84,6.72,25.56,10,38.4a525.31,525.31,0,0,1,13.2,78.48q1.62,17.46,10.08,29.88a2.59,2.59,0,0,0,.72-1.68l-.12-6.36A292.4,292.4,0,0,0,364,408.6q4.14-64.62,3.48-127.44C363.6,287.52,361.56,295.2,361.44,304.2ZM471.84,292a36.19,36.19,0,0,0-12.48,23.88q-6.84,54.18-9.6,109.44c-.84,16.2,5.64,27.12,19.44,32.52a45,45,0,0,0,10.92-10.92C489.36,433.56,493,421,490.8,409.32v.84l-.36.36-.72.36-1.56.36-3.12,4.2L468.6,439.68l-2.4-.24-1.68-.6a11.44,11.44,0,0,1-4-7.44,459,459,0,0,1-1.08-68,168.36,168.36,0,0,1,12.36-55.2l4.32-.24,3.6.24,1,1,3.12,3.48a4.23,4.23,0,0,0,2.16,1.56,7,7,0,0,0,2.4-6.24,23,23,0,0,0-7.32-15.36l-4.92-.48ZM388.32,104.4l-3,5.4q-15.66,28.8-13,63a186.79,186.79,0,0,0,16.32,62.52q10.44,22.86,21.6,45.72,27.72,56.88,22.56,121.2a149.72,149.72,0,0,1-25.92,73.2q-24.3,16.74-53.52,11.88l-2.16-2.16-1.8-1.8-.36-.6a40.87,40.87,0,0,0,2.16-5.76,16.73,16.73,0,0,0,.48-4.8h-.24a6.87,6.87,0,0,0-1.92,4,8.32,8.32,0,0,1-1,3.36l-.36.72-1.44.12-1.56.36-1.08.6c-4.32,8-3.24,14.88,3.24,20.76,9,8.28,20,10.44,33,6.6Q413,499,426.12,468a161.33,161.33,0,0,0,12-43.92A308,308,0,0,0,429.48,301,103.9,103.9,0,0,0,416,271.8,217.32,217.32,0,0,1,379,158a55.38,55.38,0,0,1,10.32-35c7.08-10,16.44-11.88,28.2-6a67.77,67.77,0,0,1,23.76,19.44,6.93,6.93,0,0,0,1.32-5.64c-4.44-21.24-18.12-32.52-41-33.6a86.37,86.37,0,0,0-10.32,5.52Zm191-5.28c-2,19.68-3.36,39.72-4,60-1.08,35.4-1.8,71-2,106.68l-1.92-1.68c-19.8,4.68-39.6,9.72-59.4,14.88,1.8-38.28,3.48-76.68,4.8-115a567.77,567.77,0,0,0-1.08-64.2q-2.16-.18-2.52,2.16c-2.4,18.72-4,37.68-4.68,56.76L506,219.6c-1.68,37.56-2.76,75.12-3.12,112.92a392.45,392.45,0,0,1-3.24,47.76A839.69,839.69,0,0,0,493,508.68c1.08,0,1.56-.12,1.68-.48a169.18,169.18,0,0,0,8.88-45v-.6c-.72-1-1.2-.48-1.32,1.44l-.24.72a229,229,0,0,1,.6-27.12c1.56-16.56,2.76-33.12,3.72-49.68,1.8-31.8,3.6-63.72,5.16-95.64V291a290.65,290.65,0,0,0,61.68-12l.12-.24v9.48c0,21.72.24,43.32.72,64.92a1139.63,1139.63,0,0,1-4.08,128.16l-.24.24c-1.32-1.2-2.4-1.44-3-.72a8.77,8.77,0,0,0,3.24,5.64q-2,11.16,3.24,19.44c4.32-7.08,6.24-15.72,5.88-25.92-.36-9.24-.36-18.48-.24-27.6q.9-64.8,1.08-129c.12-32.28,1-64.56,2.52-96.6a951.91,951.91,0,0,0-1.92-128.28C579.84,98.4,579.48,98.52,579.36,99.12Z" transform="translate(-45.24 -76.08)"/></svg>