<svg id="Layer_1" data-name="Layer 1" xmlns="http://www.w3.org/2000/svg" viewBox="0 0 533.88 408.78"><defs><style>.cls-1{fill-rule:evenodd;}</style></defs><path class="cls-1" d="M338.28,360.24l-.12,2-.12.48a20.62,20.62,0,0,0-3.24-3.24,13,13,0,0,0-7.92-2.76q-30.24,0-40.8,49a209.43,209.43,0,0,0-4.68,50.76,50.15,50.15,0,0,0,4.08,19.08c4.56,11.16,11.64,16.8,21.36,16.8,11.88,0,21.24-3.36,28-10.2a56.49,56.49,0,0,0,6.12-7.68c2-2.76,3.6-4.56,4.68-5.16-.36.84-1,3.36-2,7.56a53.35,53.35,0,0,1-4.56,12c-5.88,10.68-14.88,16-27.24,16-15.24,0-25.44-7.68-30.84-23-2.52-7.08-3.84-15.84-3.84-26,0-4.92,1.08-15.84,3.12-32.88s3.12-27,3.12-29.64a42.72,42.72,0,0,1,8.64-26,46.33,46.33,0,0,1,18.84-15.12c7.2-3.24,13.44-4.2,18.84-2.88C335.4,350.64,338.28,354.36,338.28,360.24ZM76.68,104.76l1.2-1.08c2.64,5.28,3,13.68,1.08,25.08v65c.36,5.16.72,13.08,1.08,23.64.36,10.8.84,18.84,1.2,24.24v94l4.08,64.92c1.68,25.08,3.24,47,4.8,65.76v.36q11.52-72.18,22-182.4l8.28-91.08c3.36-35.88,6.36-66,9-90.12,3,39,5.4,71.28,7.2,96.6,2.52,35.88,4.32,68.16,5.52,96.6,0,1.8,3.24,30.72,9.84,86.52q9.54,86.76,9.6,106.2a16.89,16.89,0,0,1-1.92,8.52q-5.76-15.66-7.56-39.24c-.72-17.88-1.56-31.32-2.4-40.32-.72-7.32-2.52-20.76-5.52-40.2-2.52-16.92-4.2-30.36-4.8-40.2-.72-10.68-1.44-24-2-40.2l-1.44-40.2q-2.16-48.06-7.56-80.16l-.24-.6c-2.28,19.8-4.8,46-7.8,78.36l-7.44,79c-.84,7.92-1.8,21-2.88,39.12-1.08,16.92-2.16,30.12-3.24,39.48q-5,46.08-19.56,77.52c-1.32-3.6-2-8.4-2-14.52.12-7.2-.12-12.12-.6-14.64v-41.4c-1-8.52-2.28-21.6-3.84-39.36l-3.84-40.2v-94.8q-2.16-50.4-2.16-76.32H74.4c-2.4,19.08-5,45.24-7.92,78.72q-4.86,56.34-7.32,78.84Q48.9,418.86,25.92,482.28a3.3,3.3,0,0,1-1.8-1.08,4.47,4.47,0,0,1-.6-2.64c0-1.68,1.08-5.88,3.12-12.48l7.08-22.56c7-23.52,10.92-43,12-58.32.72-10.44,2.52-26,5.52-46.68,3.12-22,5-37.44,5.88-46.56q2.7-31.68,9.36-92.88,6.84-63.54,9.6-93.84Zm238.56,106.8.24,3.24c0,6.36-9.48,23.52-28.32,51.72,2.52,7.92,8.4,20.76,17.52,38.64,10.08,20,15.12,30.72,15.12,32.16l-.24,3.24-.48.48-.84.84q-31.32-58.5-33.6-71.64L264,299.76l-1.08,15.48c-.72,13.56-2.16,24.24-4.44,32l-1.44.24a18,18,0,0,1-1.08-2.16,17.67,17.67,0,0,1-.24-3c0-1.8,1-10.56,2.76-26.28l1.32-10.68v.12l-.84-.6a9,9,0,0,1-.24-2.4,20.06,20.06,0,0,1,1.92-3.72l2.16-16.08v-57.6a12.18,12.18,0,0,0,.48-4.08v-4.32h1.08a10.05,10.05,0,0,1,2.16,6.48,13,13,0,0,1-1.08,5.76v54.36c-.24,1.92-.48,4.92-.84,8.88l15-24.84q24.84-40.5,34.56-58.2A5.34,5.34,0,0,1,315.24,211.56ZM211.08,160.44c-1.08,18.6-3.6,46.68-7.32,84.36C200,283,197.52,311,196.44,329.16L196,340.8l2.16-.36a142.23,142.23,0,0,1,19.68-2,144.67,144.67,0,0,1,16.56.24l-.84-5.64q-4.68-31-11.28-85.56-7.56-62.82-10.92-86.4Zm4.32-20.16c0,13.32,3.48,46.68,10.32,99.84q5.22,40.14,10.8,79.08c.6,4.92,1.56,11.64,2.88,20,4.68.84,7.08,2,7.08,3.72l.36,2a2.36,2.36,0,0,1-1.08,2,12.29,12.29,0,0,1-4.92,1.56c2.88,18.6,6.84,43.44,12,74.76,7.68,47.4,11.52,72,11.52,74a10.17,10.17,0,0,1-.48,3.48,12.54,12.54,0,0,1-1.68,3.36c-4.44-5.16-7.44-11.64-9-19.68-1-4.68-1.68-12.24-2-22.56-.24-4-1.56-11-3.84-21-2.28-9.6-3.48-16.92-3.48-22a362.76,362.76,0,0,0-3.6-43.08L236,349.08l-6.6.12q-24.66,0-33.84-.72L195,371.4c-.48,18.84-1,32.76-1.56,42q-2.88,48.78-15.6,83.76l-1.92-1.2a5.54,5.54,0,0,1-.6-2.76c2-7.8,4.08-16.44,6.12-25.68q6.12-27.9,6.12-46.08c0-7.56.48-19.44,1.44-35.76s1.56-28.08,1.56-35.28v-2.76c-1.08-.36-1.68-.72-1.68-1.32l.24-2.28c0-.6.6-1.08,1.8-1.68,1-14.76,3.72-47,8.16-97.08q9-100.8,14.4-145.92c.36,1.08.84,7.32,1.32,18.84Zm58.44-41.76,37.08-.6q10.08-2.34,13-.72c1,.36,1.44,1.56,1.44,3.48v1.44a1.51,1.51,0,0,1-.84,1.2c-1.32.84-5.64,2.16-12.72,3.84l-19.2.36-8.88.12.24,4.44v43.8a98.3,98.3,0,0,1,2.28,19.44l.12,19.08c0,9.48-.48,16.44-1.32,20.76a315.7,315.7,0,0,1-3.48-39.36c-.24-6.6-.36-19.8-.36-39.84l.24-15.24.24-13-8.88.48-22,.24-4.68.84-4.8.84-15.6.48-.6-.84a9,9,0,0,1-.24-2.4,3.28,3.28,0,0,1,1.08-2.76c2.28-1.56,7.44-2.64,15.72-3.12l4.68-.84,4.8-.84,15.84-.6Zm157,7.56c6.36,3,9.48,5.64,9.48,7.68,0,1.8-.12,2.28-.24,1.2l-.36.48-2.16.12c-2.52,0-6.12-.72-10.8-2.28S418.44,111,416.16,111q-35.1,0-48.24,57.12a268.76,268.76,0,0,0-6.36,61.68l-3.48,50.28,3.48.48,26.16-1.2,18.72-2c5.52-.48,9.36-.48,11.4.12a4.36,4.36,0,0,1,3.72,4.68,10.8,10.8,0,0,1-.36,3l-1.2,2-.84-.6-1.92-.24-24.48,1.44L381,289.32c-10.92,0-18.6-.84-23.28-2.4l-.48,6c-1.32,18.84-1.92,38-1.92,57.6,0,5.88-.6,14.16-1.68,24.72a338.66,338.66,0,0,0-1.56,34.56L351.6,423a187.46,187.46,0,0,0,1.56,28.2c3.72,27,13.2,40.56,28.44,40.56q27.54,0,49.44-27.12c6.84-8.4,13.8-20.16,20.88-35.4h.84q.54,28.26-27.72,54a112.19,112.19,0,0,1-22.56,16.2c-7.32,4-12.84,5.88-16.56,5.88-20.28,0-32.88-15.72-37.56-47.28a200,200,0,0,1-2-32.76l.84-15.24,4-66,3.48-58.56a3.7,3.7,0,0,1-1.68-2.88A16.16,16.16,0,0,1,353,280l.12-.72,1.8.24,1.2-25.92q2-59.76,12.12-98,14.22-54.36,42.48-54.36A46.87,46.87,0,0,1,430.8,106.08Zm107.4,19.44.12.48c0,.24-.48.36-1.56.36l-6.36-2.64c-4.2-1.8-6.72-2.76-7.56-2.76-16.44,0-28,4.92-34.68,14.88a32.1,32.1,0,0,0-5.64,18.24c0,3.6,3.84,10.56,11.64,21L520,208.92c25,34.92,37.44,65.88,37.44,93.12,0,15.6-7,29.64-21,42a70.69,70.69,0,0,1-18.48,12.24c-6.36,2.88-11.88,4.32-16.8,4.32l-5.16-.24-3.48-.6q-21.6,6.3-44.76-15.48A112.6,112.6,0,0,1,433.8,328.2c-3.48-4.92-5.16-7.8-5.16-8.76,0-3,.6-4.92,1.8-6a25.06,25.06,0,0,0,5.28-7.44h.72c0,.84-.6,2.28-1.68,4.56L433,314c0,.72,2.28,3.12,6.72,7.32a105,105,0,0,1,9.84,9.72A24.54,24.54,0,0,0,459,340a3.58,3.58,0,0,1,2.16,2.52,2.31,2.31,0,0,0,1,1.92c2.16,1,12.6,1.8,31.44,2.4,19.32-1.8,34.8-8.4,46.2-19.56a48.77,48.77,0,0,0,10.2-14c2-4.32,3.12-8.16,3.12-11.52,0-14.76-3.84-30.12-11.64-46.08-5.64-11.4-14.16-24.72-25.56-39.72-12.36-15.48-20.88-26.64-25.56-33.36-7.8-11.16-11.64-20.28-11.64-27.36,0-13.56,3.12-24.12,9.36-31.8a33.63,33.63,0,0,1,20.64-12,38.86,38.86,0,0,1,20.4,1.44c6.24,2.28,9.36,5.28,9.36,8.76Z" transform="translate(-23.52 -96.54)"/></svg>