<svg id="Layer_1" data-name="Layer 1" xmlns="http://www.w3.org/2000/svg" viewBox="0 0 471.64 363.36"><defs><style>.cls-1{fill-rule:evenodd;}</style></defs><path class="cls-1" d="M285.84,281.76,303,154.2l15.48,124.56Zm17.88-147.24-.12-10.32-.6.12q-12.06,55.8-19.92,113.28-8.64,63.54-17.88,126.72a278.44,278.44,0,0,1-6.36,31.32Q254,413.46,261.36,427a42.69,42.69,0,0,0,4.92-14.4c5.16-32.76,10.2-65.52,14.88-98.28l2.64-18.6c12.6.36,24.84.24,37-.24l.12.72q8.46,63.18,12.48,126.84c.72,12.12,4.08,22.32,10.2,30.72a2.64,2.64,0,0,0,1.44-2.4,146.69,146.69,0,0,0-2.76-36.72c-2.52-12.72-4.56-25.56-5.88-38.64-2.76-27-5.88-53.88-9.12-80.88a17,17,0,0,0,1.92-7.2,10.4,10.4,0,0,0-4-8.88l-4-29.76q-8.64-63.72-15.84-126.6C304.68,126.48,304.08,130.44,303.72,134.52Zm-96-21.24-1.56,5.28-.24-2.16-1.44,7.68a599.56,599.56,0,0,0-17.28,80.76,779.33,779.33,0,0,1-28.8,125.52l-.48,1.56c-4.2-31.08-8.28-62-12.12-93.12q-7-54.9-14.16-109.44a55.87,55.87,0,0,0-.24-20.52l-2,3.6-.12-.12c-.84-.12-1.2.12-1.2.84v1.68a101.17,101.17,0,0,0-10.44,32.64q-10.08,63-25.2,125.16Q77.28,335.1,64.08,397.8a151.6,151.6,0,0,1-6.6,22.92c-4.68,11.88-4.8,22.44-.6,31.44a142.81,142.81,0,0,0,9.36-30Q79,359.52,93.6,297q14.58-62.28,26.88-125a248.2,248.2,0,0,1,8.16-30.84l.12-.24c1.32,32.76,4,65.52,8.16,98.28q8.28,63.9,20.28,126.48c3.48-1.56,4.8-4.56,4.2-9l-.24-1.56q12.42-41.22,21.12-84.6l18.12-93.72,2.76-16.08.72,7.2,14.64,127.2q7.2,63.72,11.64,127.68c.84,12.36,4.56,22.44,10.92,30.48a4.11,4.11,0,0,0,1.44-3.24,244.65,244.65,0,0,0-3-38.4c-2.28-13.8-4.32-27.72-6.24-41.76q-8.64-63.18-14.4-126.84-5.22-57.78-11.64-114.84l1.08-15C208,113.16,207.72,113.16,207.72,113.28ZM496.8,124.44c-17.88,14.16-28.68,33.48-32.16,58a1032.2,1032.2,0,0,0-5.4,246.48,59.05,59.05,0,0,0,10.56,28.68,19.77,19.77,0,0,0,8.64,7,11,11,0,0,0,7.08.84,16.12,16.12,0,0,0,3.24-.84l1.68-.84a82.37,82.37,0,0,0,7.8-6.72,84.6,84.6,0,0,0,24.12-47.4,9.13,9.13,0,0,1,3.12-5.88l-2.4-4.92-3.36,1.68-.72,3.48A160.63,160.63,0,0,1,496.68,438c-4.92,5.76-11.16,8.4-19,8q-22.14-71.82-14.4-149.4a69.67,69.67,0,0,0,36.48,0,12.64,12.64,0,0,0,2.28-8,14.73,14.73,0,0,0-1-4.56l-1.2-2.4-35.4.84c-3.36-39.48,1.8-78.84,15.36-117.84a47.33,47.33,0,0,1,19.56-25,58.59,58.59,0,0,1,19.44,26.76l.12-.24c2.4-16.2-3-28.92-16.32-38.16A59.32,59.32,0,0,0,496.8,124.44ZM367.32,196c1,43.08.6,86.16-1.08,129s-2.76,85.68-3.36,128.28c1,2,2.4,2.52,4.32,1.56,2.52-23.64,4.2-47.76,5-72.12l1.8-56.52,2.88-.12c6.84-18,13.68-36.12,20.28-54.48l1.68-4.8A69.53,69.53,0,0,0,401,278.52c3.24,12.6,6.12,25.2,8.52,37.8q12.06,63,23.88,125.52c2.28,12.36,6.48,22.44,12.48,30.36A4.12,4.12,0,0,0,447,469,783.9,783.9,0,0,0,428.64,367.2Q414.78,311,403.2,255.12q19.62-52.2,43-102.48c4.8-10.32,6.24-20.4,4.32-30.36a.62.62,0,0,0-.48.24q-27.9,58-51.48,119c-2.76,7.44-5.88,14.76-9.36,22.08a174.65,174.65,0,0,0-14.76,46.08c.36-18.72.48-37.44.6-56.16q0-65.34-1.32-128.28A313.75,313.75,0,0,0,367.32,196Z" transform="translate(-53.84 -108.84)"/></svg>