<svg id="Layer_1" data-name="Layer 1" xmlns="http://www.w3.org/2000/svg" viewBox="0 0 308.46 207.95"><defs><style>.cls-1{fill-rule:evenodd;}</style></defs><path class="cls-1" d="M317.76,294a807.76,807.76,0,0,0,18.36-81.6c4.56,26.28,8.88,52.68,13.08,79A137.47,137.47,0,0,0,317.76,294Zm-128-96.24a152.89,152.89,0,0,0-.24,21q-12.24,47.7-21.12,97.32a514.7,514.7,0,0,1-15.36,62c-3,9.48-2,17.16,2.64,22.8a76.53,76.53,0,0,0,6-17.64q12.78-62.1,26.64-124.08c1.32-5.88,2.4-11.88,3.36-17.76l1.32,7.68c3.24,18,5.76,36.12,7.44,54.36A87.41,87.41,0,0,0,207.84,333l-.24,5.76c5-4.08,8.4-10.44,10.2-19.08a550.14,550.14,0,0,1,17.52-63.36,178.33,178.33,0,0,0,7.32-28.56c5.88,41.88,10.8,83.88,15,126.12a91.33,91.33,0,0,1,.24,16.2c-1,12.6,1.32,22.8,7,30.6,4.2-6.72,4.56-13,1.32-18.6-.24-19.68-1.32-39.12-3.36-58.44-4.2-40.92-10.08-81.36-17.88-121.2l-.12-8.16-1,3.48a1.3,1.3,0,0,0-1.56,1.2l-.6,6.6q-10.26,35.28-22.44,71a208.68,208.68,0,0,0-9.36,37c-4.08-31.8-9.24-63-15.48-93.84.6-7.8,1-15.6,1-23.28l-3.24,12.24ZM364,333.6c-1.44-10.92-3.12-21.72-4.92-32.64L339,199.44a818.35,818.35,0,0,0-29.4,87.24l-5,19.44c-3,12.36-6.12,24.72-9.6,36.84l-3.72,11.4a110,110,0,0,1-4.56,10.92,91.33,91.33,0,0,0-5.16,14.16,28.47,28.47,0,0,0,.24,17,24.52,24.52,0,0,0,2.28,5l29.76-94.08a219.91,219.91,0,0,0,37.68-1.32,552.34,552.34,0,0,1,8.52,73,36.3,36.3,0,0,0,1.32,8,40.17,40.17,0,0,0,6.36,13.56,284.2,284.2,0,0,0-1.56-48.36Zm26.76-134.76-.48.84a11.93,11.93,0,0,0,.24,8.16H391c-1.68,20-2.76,40.68-3.36,61.92-1.2,42.84-2.76,85.68-4.8,128.28a3.32,3.32,0,0,0,3.6,2.64,559.54,559.54,0,0,0,8-77.52l.48-18.12c13.56-.48,27.12-1.56,40.68-3.12l.6-.6a13.52,13.52,0,0,0-.6-14.52,156.07,156.07,0,0,0-40.44,4.56q.36-42.12-2.16-83.28a458.69,458.69,0,0,0,64.32.6l.6-1c2.64-4.8,2.4-9.36-.6-13.68a244.49,244.49,0,0,0-65,4.56l-.24-3.72-.36,3.84Z" transform="translate(-151.28 -193.57)"/></svg>