<svg id="Layer_1" data-name="Layer 1" xmlns="http://www.w3.org/2000/svg" viewBox="0 0 447.18 365.53"><defs><style>.cls-1{fill-rule:evenodd;}</style></defs><path class="cls-1" d="M231.36,283.68l25-161.76,16.56,159ZM333.48,113.4q-8.1,63.18-10.44,127.44c-.24,5.52-.6,11-1.08,16.68-1.08-8.52-2.4-17-3.72-25.56Q308,168.42,295.68,106.32c-1.68.48-2.4,1.8-2.16,4.08l.72,6.6a414.27,414.27,0,0,0-4.32,52.92q-.9,48.24-5.28,95.64c-1.08,12.48.84,23,5.88,31.8,2-20,3.36-40.56,4.08-61.68q2-51.48,1.44-101.76,5.94,51.3,13,102.48a336.29,336.29,0,0,0,14.64,62.88,4,4,0,0,0,2.28-3.24H326a454.85,454.85,0,0,0,5.52-55.92q2.52-64.62,3.12-127.56A.94.94,0,0,0,333.48,113.4ZM256,108.72a765.18,765.18,0,0,0-26,128.76L227,260.88a119.88,119.88,0,0,1-5.28,22.68,26.69,26.69,0,0,0-.84,5.16,526.88,526.88,0,0,1-11.64,78.12,22.08,22.08,0,0,0-.48,4.92,19,19,0,0,0,3.72,12l1.8,2A552.3,552.3,0,0,0,229.56,296l44.52-.48a1486.45,1486.45,0,0,0,11,151.68,86.15,86.15,0,0,0,3.12,14.88l.36-.36a786.8,786.8,0,0,0-1.92-102.24l-5.52-69.6-.36-3a212.18,212.18,0,0,1-4-28.8q-5.58-76.86-17.64-152.64l-1,2Zm-78-4.56-.24-4.56a2.2,2.2,0,0,0-2.16,1.92q-10.26,49.86-19.32,101.4Q149,244,144,285.12l-4.08-60.84a1079.23,1079.23,0,0,0-12.6-112,13.16,13.16,0,0,0-2.28-13l-.36-1.68c-1.08-.12-1.56.48-1.68,1.68a67.17,67.17,0,0,0-.6,7.2,405.35,405.35,0,0,0-16.92,66.24Q94.86,235.44,81.24,297.48q-14,63.18-28.44,126.24a33.88,33.88,0,0,1-2.52,7.44C44.4,442.8,44,453.36,49.2,462.72a16.27,16.27,0,0,0,3.12-6.48C59.88,424.92,67.68,393.6,76,362.16a1185.9,1185.9,0,0,0,25.92-125c5.88-37.8,13-74.4,21.48-109.92Q130,188.94,134.88,251a544.88,544.88,0,0,1,1.56,64.2c-.36,12.12,2.4,22.32,8,30.84a4,4,0,0,0,.84-1.56c.24-8.76.24-17.64.12-26.64,4.32-20,7.92-40.2,10.92-60.48q9.18-63.18,19.8-126V131c.12,4.08.36,8.16.72,12.36l11.4,128.16c3.72,42.36,7,85,10,127.56q1.08,16.2,1.08,32.4-.18,18.36,6.84,31.68a4.65,4.65,0,0,0,1.92-4.08q-.18-52.56-4.92-104.76c-3.72-42.6-7.44-85.08-10.92-127.44Q187,162.66,178.8,99.6Zm296,14-7.56,3.6q-31.5,69.3-24,148.92a331.75,331.75,0,0,1,.36,55.68,464.41,464.41,0,0,0,2.88,101.76,53.75,53.75,0,0,0,4.44,15.72l1.32,2.88,1.44,2.88c14.76-1,25.44-8.4,32-22.44a86.08,86.08,0,0,0,7.44-23.64,47.83,47.83,0,0,0,.36-8.28l-.84,4.08c-8.76,16.68-21.6,27.72-38.4,33A1097.91,1097.91,0,0,1,449,293.28a38.34,38.34,0,0,0,28.56-3.72c3.6-4.92,3.36-9.36-.72-13.44a9.46,9.46,0,0,0-1.8-1.44l-26,7.92q-7-76.68,20.52-143.76c1.8-4.2,5.28-6.6,10.44-7.32l11,12.12c1.56-12.12-3.36-20.4-14.76-24.72Zm-79-9.36a44.94,44.94,0,0,0-5.4-1.44q-48.78,98.82-42.36,213.72c1.56,26.28,2.76,52.8,3.72,79.32A133.24,133.24,0,0,0,358.2,439,126.07,126.07,0,0,0,365.28,455a10.87,10.87,0,0,0,3.24,3.72,6.71,6.71,0,0,0,4.2,1.08l3.12-1,4.68-1.92,4.44-2.28A50,50,0,0,0,397,446,78,78,0,0,0,413.4,423.6,58.18,58.18,0,0,0,417.24,460q14.58-50.58,3.24-100.56l-.36-.36-32.88.84-.72,10.8a55.7,55.7,0,0,0,32.28,4.08l-1.08,12.48L413.28,393l1,1.44a107.59,107.59,0,0,1-34.32,46.08l-9.36,1q-27.18-110.34-10-226.08a318,318,0,0,1,23.88-81.72l5.16-11c11.76-1.32,20,3.48,25,14.4a8,8,0,0,1,.48,5.52C420,126.24,413.4,115,395,108.84Z" transform="translate(-45.58 -97.66)"/></svg>