<svg id="Layer_1" data-name="Layer 1" xmlns="http://www.w3.org/2000/svg" viewBox="0 0 296.02 209.03"><defs><style>.cls-1{fill-rule:evenodd;}</style></defs><path class="cls-1" d="M291,209.4q-27.36,42.84-28.44,94.68a252.08,252.08,0,0,0,10.56,78.48q8.64,28.62,38.64,16.8,35.64-14.22,32.88-50l-2.76-.84h-1l-.6.24a6.35,6.35,0,0,0-2.28,3.72,12.73,12.73,0,0,0-.36,4.2l.24,1.56q-14.58,33.84-52.2,28.2c-10.92-14-16.32-30.6-16.32-49.56,0-13.32.6-26.76,1.8-40.08q25.92-.54,50.76,0c3.24-3.12,3.84-6.72,1.8-10.92a7.76,7.76,0,0,0-2.88-3.36l-12.48-.24-35.64,1.92-.36.24,3.6-29.76c2.28-17.64,10.8-31.08,25.32-40.08q29.52-18.54,44.16,8.16a17,17,0,0,0-.24-13.08A41.54,41.54,0,0,0,339,199.2c-.72-.36-1.32-.72-1.92-1.08a22.94,22.94,0,0,0-16.8-4.08,72.73,72.73,0,0,0-20.4,7.2A23.31,23.31,0,0,0,291,209.4Zm-95.64-15.6-2.4,1.56a1086.53,1086.53,0,0,0-39.12,173.52c-1.56,10.32-2.52,20.64-3.12,31.08l.48-.12a1125.94,1125.94,0,0,0,26-112.08c1.8-10.56,4.08-21,6.72-31.32l5.76-22.2,1.92-6.48A737.33,737.33,0,0,0,204.72,337a11.82,11.82,0,0,0,1,3.36l2.64-3.72,30.12-120.12a1662.16,1662.16,0,0,0,21.48,184.8l2.64-1.44q-7.38-104.22-22.32-206l-33,111.12-11.76-91.56ZM423.12,300.12c12.12,10.92,17.88,25,17.28,42.36s-9.48,29.28-26.88,35.64c-14.16,5.28-28.08,6.48-41.88,3.6l-4-1.2,4.8-80.64A130.63,130.63,0,0,1,423.12,300.12ZM372.24,197.76a14.39,14.39,0,0,0-1,7.8,4.63,4.63,0,0,0,1.56,2.76c16.92-4.44,30.72.48,41.4,14.52,10.2,13.56,11.52,27.84,4.08,42.84-7.08,14.52-19.44,21.84-37.2,22.08h-8.28l-2.76-90.24q-5.22,97.92-9.72,196.2a15.23,15.23,0,0,0,.72,5.76l.72.36h.6l.48-.6a87.6,87.6,0,0,0,52-4.56,44.32,44.32,0,0,0,24.36-23.16C447.72,353.16,449,334.08,443,314a147.2,147.2,0,0,0-7.44-19.44l-18-9.12q14.58-24.3,9.36-52.92A43.46,43.46,0,0,0,412.68,207Q397,192.78,377,196.56A21.64,21.64,0,0,0,372.24,197.76Z" transform="translate(-150.72 -193.8)"/></svg>