<svg id="Layer_1" data-name="Layer 1" xmlns="http://www.w3.org/2000/svg" viewBox="0 0 424.22 364.83"><defs><style>.cls-1{fill-rule:evenodd;}</style></defs><path class="cls-1" d="M197.16,104.16v.24a25.55,25.55,0,0,0-1.32-4,6.86,6.86,0,0,0-2.76,4.2c-4.2,14.64-7.8,29.4-10.68,44.4q-12.06,62.82-25,125.28l-2.76,11.76c-.48-17.88-1.44-35.76-2.88-53.76q-5-63.54-9.48-126.48L142,105c.12-3-1.08-4.92-3.48-6l-.12,2-.24.36a255,255,0,0,0-9.72,36.84L105,263.64Q93.3,326.46,78.84,388.56c-1.8,7.8-4.08,15.36-6.6,22.92-4.08,11.76-4.2,22.2-.36,31.44,7.44-27,14-54.72,19.8-82.92l25.08-125.52,21.12-108.24c.12,4.68.36,9.6.72,14.52q4.5,64.26,8.64,128.16c.48,8.28.6,16.32.48,24.36q-.54,17.82,6.48,31a2.59,2.59,0,0,0,.72-1.68v-1.08a382.69,382.69,0,0,0,9.24-41.16q10.44-63,23.4-125.52c1.8-8.88,4.08-17.64,6.6-26.28l4.08,73.92a562.82,562.82,0,0,0,7.44,63.72A945.19,945.19,0,0,1,218.88,394l.72,20.4c.48,12.12,3.24,22.56,8.16,31.56a3.49,3.49,0,0,0,1.44-3.24q-2.16-41-5.88-82.92c-2-21.36-4.68-42.6-8.16-63.72a631.38,631.38,0,0,1-7.32-63.72q-3.78-62.1-10.08-123.24l-.36-3Zm82.8,1.08q-21.78,20.7-27.72,52.92A520.08,520.08,0,0,0,243.48,254c-.12,41.4-.6,83.16-1.44,125a226.25,226.25,0,0,0,8.16,65.76,8.09,8.09,0,0,0,4.68,1.56c24.6,0,44.88-10.56,60.6-31.68,7.8-10.2,8.88-19.8,3.24-28.68a112.81,112.81,0,0,1-28.56,35.88q-18.54,15.48-37.8,7.2A1055.64,1055.64,0,0,1,248,309c.36-16.44.84-32.76,1.56-49.08a371.33,371.33,0,0,0,47.16-2.28A14.42,14.42,0,0,0,298,247a4.45,4.45,0,0,0-2.52-3.12h-3l-10-.6c-10.92,2-21.72,4.44-32.52,7.32C251,228.24,252.6,206,254.4,184a136.16,136.16,0,0,1,22.92-65.76,79.42,79.42,0,0,1,34.08-1.56l.24.24.6.48,1.08.84,2.16.36.48.24.84.48,1.32,2.16a29.82,29.82,0,0,1,4.44,10l.36,1a7.86,7.86,0,0,0,1.8,2.16c2-7.8.72-15.36-4.2-22.56a22,22,0,0,0-8.28-7.2l-3.84-.36-24.84-1.56A11.82,11.82,0,0,0,280,105.24Zm77.88,241.08a185.84,185.84,0,0,0,2.52,30.24l-12.12,4.92c2.64-10.44,5.52-20.88,8.52-31.2Zm9.48,27.48c-2.64-16.2-5-32.52-7.2-48.84l-.6-5.88a193.79,193.79,0,0,0-13.92,45.6A232.23,232.23,0,0,1,332.16,412c-4.68,11.88-4.8,22-.24,30.48,4.92-15.24,9.12-30.72,12.72-46.44l1-4,2.64-.24,10.92-1.92,3.72-.6.24,1.08a240.3,240.3,0,0,1,4.2,24.36c1.44,11.88,5,22.08,10.92,30.6a2.81,2.81,0,0,0,1.2-3c-3.6-18.36-7-36.84-10-55.44,5.16-2.88,6.84-7.44,5.28-13.8l-1.2-.72-1.32-.6ZM470.76,113.16q-43.74,43.74-12.36,97c1.44,2.4,4,3.36,7.44,2.76a39.49,39.49,0,0,0,16.92-6.48c9-6.12,12.24-14.4,9.72-24.6a60.32,60.32,0,0,1-33.6,18.12,62.87,62.87,0,0,1-9.36-25.2L480,171.84l4,1.92c4.92-14.88-3-19.68-23.88-14.28l-10.56,2.88q4-38.7,43.2-38.16c-4-8-10.68-11.76-20-11.16ZM365.4,208l-7.2.72c-14,8-22.32,20.52-24.84,37.68a76,76,0,0,0,6.12,44.28c7.8,17.16,20.16,21.24,37,12,10-5.52,14.4-13.8,13.44-25-7.68,9.72-17.64,15-30,15.6-8.16.6-13.92-3.36-17.28-11.76a86.75,86.75,0,0,1-4.8-18l42.84-3.24a9.23,9.23,0,0,0,1.8-6.12,10.64,10.64,0,0,0-1.32-5.16l-.24-.36a67.24,67.24,0,0,0-43.44,5.16c-.12-16.44,7.2-27.12,21.84-31.8A25.27,25.27,0,0,1,378,223l1.92,3.84q3.42-8.1-3.24-14.76A15.28,15.28,0,0,0,365.4,208Zm100-117.84a336.49,336.49,0,0,1-117.12,16,8.07,8.07,0,0,0-.84,4.08l.36,3.24.24.84c16.68,3.84,34.44,4.92,53.52,3.36A69.5,69.5,0,0,0,414,115.44l8.16-2.16a193.57,193.57,0,0,0-3.24,40.2c.24,14.88.24,29.76-.12,44.64-.84,42.84-1.2,85.92-1.32,129V454.56c1.8.84,2.76.36,2.88-1.68a726.46,726.46,0,0,0,3.84-84.36q-.54-64.44,1.8-129a978.63,978.63,0,0,0-3.48-126.24,228,228,0,0,1,56.64-7l.72,1.56a3.05,3.05,0,0,0,1.44,1.32l1.08.12a15.67,15.67,0,0,0,1.8-12.24,9,9,0,0,0-4.2-5.64l-3.48-.36Z" transform="translate(-69.09 -90.12)"/></svg>