<svg id="Layer_1" data-name="Layer 1" xmlns="http://www.w3.org/2000/svg" viewBox="0 0 304.93 209.04"><defs><style>.cls-1{fill-rule:evenodd;}</style></defs><path class="cls-1" d="M285.84,204.84q-34,46.8-32.16,106.08c.24,7.92.24,15.72-.12,23.4q-1.8,40,25.08,66.6a41.19,41.19,0,0,0,22.92-3.36A87.22,87.22,0,0,0,312,391.68c15.24-10.44,20.28-23,14.88-37.8-10.92,19.44-27,29.16-48.48,29.28a30,30,0,0,1-10.56-16.44A217.31,217.31,0,0,1,261.36,298l15.24,1.56a68.89,68.89,0,0,0-.6,17.88,172.35,172.35,0,0,1,6.48-17.52c4.92.24,9.84.24,14.88.12A105.47,105.47,0,0,0,306,323.64l.12-.84-4-22.92,17.64-1.44.72-.84q3.78-7.2-.72-13.68-10.26,0-20.16.36l-4-25.08-.36.6a130.6,130.6,0,0,0-.48,24.6l-5.52.12c3.6-8.76,5.4-17.16,5.28-25.32a55.65,55.65,0,0,0-9.6,14A121.08,121.08,0,0,0,280.2,285l-17.76,1.08a226.58,226.58,0,0,1,9.48-41.88A56.31,56.31,0,0,1,286.44,221q19.26-18.54,38.52-.72a12,12,0,0,0-1-12c-6.36-9.84-16.2-13.08-29.64-9.72A16.22,16.22,0,0,0,285.84,204.84Zm-67.2,1.56c-7.44,23.88-14.4,48.36-20.88,73.68-1.08,4.44-1.92,8.64-2.52,12.84-1.32-30.6-4-61-7.92-91.32l.48-7.32-.6.12-.6,2.28c-1.32-.12-1.92.48-1.92,1.68v4.8a628.24,628.24,0,0,0-15.48,71.4,791.82,791.82,0,0,1-20,93c-3.36,11.76-2.76,22.2,1.8,31.2a81,81,0,0,0,5-16.92l24-124.92q3.06-15.84,5-31.32a793.19,793.19,0,0,0,9.24,100.2l1.32-.36.36,1.92,20.64-84.72,2.52-12.12.72,8.76,11.28,127.44c1.08,11.64,3.84,22,8.52,30.72a5,5,0,0,0,2.52-4.8l-5.76-66.72c-3.72-40.68-8.52-80.76-14.4-120.48l.12-10.08-1.32,4.08c-1.32.36-2,1.44-2,3.24Zm193.44,1.68q-5.58,63.54-9,128.16a421.57,421.57,0,0,0,1.2,64.2c3-1.8,4.56-4.68,4.92-8.88,1.56-22,2.64-44.16,3.36-66.6l.72-26.76,30.48-.12A495.45,495.45,0,0,1,439,370c-1.68,12.12-.24,22.8,4.2,31.8A394.08,394.08,0,0,0,449.52,323l-.24-25.2h.36a11.53,11.53,0,0,0,2-9.48,9.9,9.9,0,0,0-1.2-3.12l-.84-.6-.48-.12q-.18-44.82,1.32-88.92c-5.16,14-7.68,29.4-7.56,46.32l.6,41.52-5.16-.12a168.46,168.46,0,0,0-24.72,4l2.28-89.76A19.28,19.28,0,0,0,412.08,208.08Zm-49.56-5.64a151.29,151.29,0,0,0-4,15.36,75.31,75.31,0,0,0,4.32,44.76q12.06,29.34,21.24,59.4c6.6,21.24,4.2,40.44-7.2,57.36a74.62,74.62,0,0,1-8.16,3c-5.76,1.56-10.56.48-14.52-3.48-10.68-10.92-16.56-24.48-17.4-40.92a2,2,0,0,0-1.2-1.08,9.4,9.4,0,0,0-3.12-.48c-2.52,15.48-.36,30.84,6.36,46.2,6.48,14.88,17.64,19.92,33.6,15.12A16,16,0,0,0,383,388.56q17.1-36,4.08-75.36L362,236.76a150.89,150.89,0,0,1,4-21,7.41,7.41,0,0,1,5.4-5.64c13.2-3.24,22.92,1.8,29,15.24l.36-.6q1.62-24.66-23-32l-1.08.36A21.77,21.77,0,0,0,362.52,202.44Z" transform="translate(-147.02 -192.72)"/></svg>