<svg id="Layer_1" data-name="Layer 1" xmlns="http://www.w3.org/2000/svg" viewBox="0 0 459.3 337.44"><defs><style>.cls-1{fill-rule:evenodd;}</style></defs><path class="cls-1" d="M320.64,128.52a15.56,15.56,0,0,1-.36,11.88c-2.28-5.76-7.2-8.88-14.64-9.48a49.08,49.08,0,0,0-34,9.84,219.4,219.4,0,0,0-20.76,82.68c-.6,12.6-1.08,25.32-1.32,38,12.48-2.52,24.84-5.4,37.2-8.76l4.56,1.2a.91.91,0,0,1,.84.48,8.37,8.37,0,0,1,.72,6.36l-.72,2.52a59.73,59.73,0,0,1-42.84,7.92c-.6,26.52-.36,53,.48,79.68a306.66,306.66,0,0,0,7.44,58.44,21.74,21.74,0,0,1,3,1.92,16.21,16.21,0,0,1,3.12,4l.6.72c24.36,1.32,40.56-9.36,48.84-31.8,1.08-3.24,2.88-4.56,5.28-4.2q.9,37.8-36.48,50.28c-16.2,5.4-26.28-.12-30.12-16.44a298.43,298.43,0,0,1-7.8-62.76q-1.26-64.8,1.2-129.12a196.15,196.15,0,0,1,27.6-94.2,14.72,14.72,0,0,1,7.8-6.36,119.3,119.3,0,0,1,19.44-5.76,25.55,25.55,0,0,1,18.12,5.76l.6.72ZM188.52,107.4v4.68l.36.24,1.32.84q8.64,62.28,15.84,125.16,5.58,47.7,10.44,95.4,4.32,40.14,10.8,80.28a79.62,79.62,0,0,1,.24,23.88,3,3,0,0,1-2.4,2.88A705.94,705.94,0,0,1,207.48,316q-3.6-64.26-12.36-127.56c-2.76-19.56-5.28-39-7.56-58.44a265.67,265.67,0,0,1-6.84,40.2q-15.3,62.28-29.4,124a6.06,6.06,0,0,1-1.2,2.52l-.84-2.16v8.28a3.29,3.29,0,0,1-1.32,2.52c-6.24-7.92-9.48-18.12-9.84-30.6A525.73,525.73,0,0,0,124.2,165.12,165.83,165.83,0,0,1,119.64,127a78.32,78.32,0,0,1-1.92,8.52c-4,15.36-7.44,31-10.2,46.68L84.48,308,62.4,428a8.24,8.24,0,0,1-2,4.08q-7.38-8.82-2.16-23a86.17,86.17,0,0,0,4-15.72q10.26-63.18,22.32-126,11.88-62.82,23.28-125.64a159.7,159.7,0,0,1,11.76-38.4l.84,6.6.6-4.8q0-.18.72-.36,8.1,63,19.56,126.12c2.52,14,4.68,28.2,6.36,42.48a53,53,0,0,1,1.8-7.92c5.64-20.52,10.8-41.16,15.48-62.16,5.64-25.32,11.52-50.16,17.88-74.4l-.48.24,1-1.92,1.08-4.08a30.53,30.53,0,0,1,1.32-10.32c.36-1,1-1.44,1.8-1.32Zm325.08,6,1,.84.6.72a617.89,617.89,0,0,1-43.44,117.72c9,38.76,17.4,77.76,25.2,117.24q8.1,41.22,18.24,81.6a4.89,4.89,0,0,1-1.56,5.16q-10.8-10.62-13.68-29.52c-.84-5.4-1.8-10.92-3-16.44L471,265.92a127.13,127.13,0,0,1-2.76-26q-15.12,30.06-31.68,57.24-1.44,35.46-2.28,71.16a313.1,313.1,0,0,1-8.16,64.92c-4.56-8.52-5.88-19.08-3.84-31.68a563.62,563.62,0,0,0,6.24-63.84q2.34-64.26,5-128.4,1.8-46.44,5-92.4c.24-2.76,1.44-4.56,3.48-5.16q1.26,63.36-2.52,128.28l-1.92,34.32a67.17,67.17,0,0,1,6.72-13.92c5.76-9.12,11-18.6,16-28.32a1177.06,1177.06,0,0,0,50.16-116.16A3.43,3.43,0,0,1,513.6,113.4ZM406,135l-5-1.08c-14.76-5.16-27.12-1-37.08,12.84a71.46,71.46,0,0,0-11.52,25.08,506.44,506.44,0,0,0-13.8,88c9.84-1.8,19.68-3.84,29.4-6q16.56-2.7,13.32,10.8l-.24.84-1.08.84-.6.48-.48.36a144.9,144.9,0,0,1-41,3c-.36,8.88-.6,17.76-.6,26.76,0,18.84-.72,37.8-2.28,56.64-1.56,19.32,1.8,36.84,10.08,52.8a8.48,8.48,0,0,0,4.08,3.84q29.16-4.5,42.84-30.6a9,9,0,0,1,4.2-4c4.92,12.36,1.56,23.76-10.2,34.32a68.22,68.22,0,0,1-36.84,17.28c-16.2-14.52-23-33.6-20.64-57,1.08-10.44,1.8-20.88,2-31.44q1.62-63.9,6.48-127.44,3.42-45.18,29.16-80.88a35,35,0,0,1,10-9.24,29.48,29.48,0,0,1,11.4-4.32c10.8.48,17.52,5.88,20,16.32v.72A1.27,1.27,0,0,1,406,135Z" transform="translate(-56.04 -103.32)"/></svg>