<svg id="Layer_1" data-name="Layer 1" xmlns="http://www.w3.org/2000/svg" viewBox="0 0 312.2 219.41"><defs><style>.cls-1{fill-rule:evenodd;}</style></defs><path class="cls-1" d="M153.24,192.24c4.68,40.68,10.92,81.36,19,122q6.12,31.5,9.24,63.36c1,9.48,3.6,16.92,7.92,22.2a258.07,258.07,0,0,0,7.92-30.48q12.42-62.82,23-126.12a101.2,101.2,0,0,1,4.2-15.72c4.44-12.12,4-22.56-1.32-31.32a212.37,212.37,0,0,0-11.88,46.2q-8.82,62.46-23,123.72c-1.8-16.8-4.2-33.48-7.08-50.16q-10.8-63.36-27-124.08C153.48,191.76,153.12,191.88,153.24,192.24ZM316,195A166.59,166.59,0,0,0,311,251.64a305.51,305.51,0,0,1-11.4,111.24,16.79,16.79,0,0,1-10.2,11.4c-18.48,7.44-28.08,1.56-28.68-17.64q-2.16-63.54,1.32-128.16c.72-12.6-1.56-23.16-6.72-31.44-1.2,13.08-2,26.64-2.52,40.44-1.68,43.08-1.56,85.8.48,128.4q.9,22.5,20.16,29.16c5.4,1.8,10.2,1.08,14.52-2.28,16.92-13.44,26-31.56,27.6-54.24q3.06-47.7,4.56-95.76a221.59,221.59,0,0,0-3.6-47.88Zm85.56,14.4q-.72,63.9.72,129.12a263.06,263.06,0,0,1-1.32,32.28c-1.2,11.88.12,22.68,3.84,32.4A47.43,47.43,0,0,0,410,380.64l-.84-72.72c13.44-2.16,26.76-4.08,40.08-5.88-1.32,25.8-2.4,51.6-3.48,77.52-.48,12.24,1.56,22.8,6,31.68a163,163,0,0,0,4.68-43.8c-.36-14.76,0-29.64,1-44.52l1.2-22.08,4.08-.48.6-1c3-5.28,2.76-10.32-.6-15.24l-3.36.24q1.26-45.18-1.32-89.88c-2.4.6-3.6,2.28-3.72,4.92q-.54,25.92-2.16,51.84l-1.92,33.84a218.38,218.38,0,0,0-41.28,8l-.84-41.52a57.05,57.05,0,0,1,.24-7.92A145.7,145.7,0,0,0,405,195.6a.62.62,0,0,0-.84.36A34,34,0,0,0,401.52,209.4Zm-24.84-14.28c-12,8.76-18.84,20.64-20.4,35.76a71.18,71.18,0,0,0,9.84,45.48,144.17,144.17,0,0,1,17.16,44.76,94,94,0,0,1-1.08,42.48c-4.08,16.44-14,25.44-29.88,27.12a28,28,0,0,1-17.88-4.2c-4.56,6.6-3.12,12.6,4.44,17.88,6.84,4.92,14.16,5.64,22.2,2.16a31.06,31.06,0,0,0,13.56-11.64,91.48,91.48,0,0,0,11.76-27.48q12.6-52.56-15-101.52c-9-16-9.6-32.28-2-48.72,3.24-7.32,9-9.6,17-7a8.72,8.72,0,0,0,1.68-3.72,13.06,13.06,0,0,0-.48-6.48,8.29,8.29,0,0,0-4-4.68Z" transform="translate(-153.22 -191.84)"/></svg>