<svg id="Layer_1" data-name="Layer 1" xmlns="http://www.w3.org/2000/svg" viewBox="0 0 489.05 265.87"><defs><style>.cls-1{fill-rule:evenodd;}</style></defs><path class="cls-1" d="M34.92,125.64Q47,181.44,60.84,237.84q14.94,61,26.52,122.64H87c-1.8-1-2.76-.84-3.12.24a78.9,78.9,0,0,0,8.64,16.2l1-1.2a59.34,59.34,0,0,0,1.8,6.6,2.85,2.85,0,0,0,1.08-1.44q7.56-37.08,14-74.52,11-63,26.64-125.16a317.84,317.84,0,0,1,9.6-31q5.58-14.94,2.16-27.36-.9-.18-1.08.36a688.93,688.93,0,0,0-29.88,103.32q-12.78,62.82-23.16,121.2l-.6.12c-.48,2.28-.84,4.56-1.2,6.84-5.4-37.32-12.48-74.4-21-111.24a1118.57,1118.57,0,0,0-35-121.92C35,122.16,34.44,123.6,34.92,125.64Zm190.8,3.84a52.14,52.14,0,0,0-26.64-4.2c-13.56,8.64-23.16,21.12-28.68,37.56A346.47,346.47,0,0,0,155,228.6,432.07,432.07,0,0,0,157,355.44c3.12,18.84,13.8,28.68,31.92,29.52,27.72-15.72,46-39.36,55-71.16a294.93,294.93,0,0,0,10.92-77.52c.36-36-6.84-69.84-21.84-101.52l-3.36-2.28-.72-.72-.48-.84-.6-.72ZM229.56,154q24.3,60.3,14.88,126.12a145.51,145.51,0,0,1-25.56,64.2c-10.92,15.48-25.2,23-43.08,22.44a28.35,28.35,0,0,1-4-5.4q-15.12-29-14.52-63.6a485.21,485.21,0,0,1,18.36-126.48c5.88-20.52,19.08-30.84,39.72-30.84l1.68.36a22,22,0,0,1,8.76,2.28l.84.6A34.75,34.75,0,0,0,229.56,154Zm232.2,14.64q.18,64.8-2.76,129.12a549.89,549.89,0,0,1-6.72,64.56c-1.56,10.2.24,18.12,5.52,23.52a5.19,5.19,0,0,0,1.44-2.64l1.32,1.08a279.22,279.22,0,0,0,61.68,1.56,15.19,15.19,0,0,0,1.56-7.32v-.72l-.48-3.36a9.62,9.62,0,0,0-1.44-3.24l-1.2-.24a181.24,181.24,0,0,1-56.4-3.12l-1.08.36-2.16.72h-.24q5.4-57.24,6.6-115.32,1.44-64.8-.36-128.28A158.76,158.76,0,0,0,461.76,168.6Zm-99.6,45.24-3.6,31.8-3.84,31.68c-1.8,15.48-4.32,31-7.32,46.32l-6.6,33.72q-15.3-63.18-26.52-127.2a76.57,76.57,0,0,1-1.2-14.76l-2.4,3.6-1.32-3.36a556.3,556.3,0,0,1-10.8,65.76l-13.08,57.24q-2.7-93.24-10.92-186c-1-10.8-2.28-21.36-3.84-31.68a242.17,242.17,0,0,0-2.16,57.48q2.88,36.18,5.16,72.36L276.48,299l.72,16c.36,10.8.36,21.6-.24,32.28-.6,12.72,2.52,23.64,9.6,32.88l25-128.88c4.92,37.8,11.76,75.12,20.28,112.2a46.72,46.72,0,0,0,4.2,11.64l3.72,6.72a17.25,17.25,0,0,0,2.16,3l.24-.24a254.29,254.29,0,0,0,11-39.84c1.8-8.64,3.24-17.28,4.44-26l2.64-21.24,3.12-27.6Q368.58,224.34,375,179a224.8,224.8,0,0,0,1.08-55.32,281.24,281.24,0,0,0-8.76,43.44C365.52,182.76,363.72,198.36,362.16,213.84Zm50.28-88.08-3.36-.24Q369.3,189.42,375.36,268c2.28,28.92,3.12,58,2.76,87a47.7,47.7,0,0,0,1.32,10.92,27.47,27.47,0,0,0,2.88,7.08l1.56,2.52.84,1.2,1,.84c6.84,6.12,14.4,7.68,22.8,4.68A49.93,49.93,0,0,0,433.2,364c7.68-10.68,10.32-22.32,7.8-35.16l-5.16,5.64-2.64,1.2-1.92,4.68c-4.92,16.56-15.84,25.32-33,26.4a9.3,9.3,0,0,1-8.88-6.12,33.49,33.49,0,0,1-3-14.28l-.24-32.76L386,302.64l-.12-11,.12-11V254a68.24,68.24,0,0,0,34.44,5.76,9.47,9.47,0,0,0,2.64-6.24,14.05,14.05,0,0,0-1.92-8l-.24-.36-34.44-1.56c-3-33.24,3.36-65.16,18.84-96l2.88-5.52a35,35,0,0,1,24.12,7.08,9.57,9.57,0,0,0,1.92,1C435.12,134.88,427.92,126.84,412.44,125.76Z" transform="translate(-34.76 -120.96)"/></svg>