<svg id="Layer_1" data-name="Layer 1" xmlns="http://www.w3.org/2000/svg" viewBox="0 0 306.72 210.24"><defs><style>.cls-1{fill-rule:evenodd;}</style></defs><path class="cls-1" d="M152.4,210l17.28,69.48a669.34,669.34,0,0,1,16,93.84c1.32,11.88,4.56,21.72,10,29.52,3.72-11,7.08-22.32,9.84-34a1264.56,1264.56,0,0,1,36-124.8c5.52-15.84,7.08-31.32,4.8-46.56Q236,223.8,227.76,253.32,210.3,314.52,195,375.6c-1.2-10-2.76-19.92-4.8-29.76l-18.36-91.2a246.83,246.83,0,0,0-20.4-60.84L151,194l-2.16,1.32a9.14,9.14,0,0,0-.72,2.4,15.18,15.18,0,0,0,.72,7.32A8,8,0,0,1,152.4,210Zm117.48-12.72c-.84,42.36-3.12,84.6-6.6,126.6a227.69,227.69,0,0,0,3.6,64c1.56,7.8,6.36,12.72,14.4,14.64q33.48,8.1,44.4-25.92A406,406,0,0,0,345,259.2,240.33,240.33,0,0,1,347.52,227c1.8-12.48,0-23.16-5.28-31.92-3.72,36.12-6.6,72.6-8.4,109.56a188.6,188.6,0,0,1-14,63.12c-7.08,16.92-19.8,23.16-38,19a6.85,6.85,0,0,1-5.4-4.56,124.69,124.69,0,0,1-7.2-59.64,692.41,692.41,0,0,0,2.76-128A2.65,2.65,0,0,0,269.88,197.28Zm101.28-2.52a451.54,451.54,0,0,0-3.72,56c-.12,21.72-.72,43.2-1.8,64.56l-1,16.2-.84,16.08-2,36a28.25,28.25,0,0,0,3.36,14.88,47.62,47.62,0,0,0,2.76,4.68,539.57,539.57,0,0,0,6.36-117.72l.72,1.32,56.52-2.16c3-4.2,3.24-8.88,1-13.92L432,270a160.5,160.5,0,0,0-57,3.84,365.32,365.32,0,0,0-1.2-65.52,129.83,129.83,0,0,0,67,6.48,44,44,0,0,0,10.8-3.6l1-.72.6-.84.84-2.16a11.07,11.07,0,0,0,.48-5.88,10.12,10.12,0,0,0-4.2-6,264.81,264.81,0,0,1-77.88,2.4Z" transform="translate(-147.92 -193.8)"/></svg>