<svg id="Layer_1" data-name="Layer 1" xmlns="http://www.w3.org/2000/svg" viewBox="0 0 508.07 474.84"><defs><style>.cls-1{fill-rule:evenodd;}</style></defs><path class="cls-1" d="M183.48,307.92a434.94,434.94,0,0,0-3,72,1186.15,1186.15,0,0,1-2.28,129,93.79,93.79,0,0,0,2.52,32.28,2.54,2.54,0,0,0,1-1.44c3.48-34.44,5.28-69,5.52-103.92q.54-64.26-3-128.16C183.84,307.56,183.6,307.56,183.48,307.92Zm82.44,5.52Q210.3,350,214.8,421v.12c-1,13.32-1.32,26.76-1.2,40.2a265.07,265.07,0,0,0,4.08,44.64c2.76,15.84,11.28,27,25.56,33.6,14.52,6.6,28.08,3.24,40.56-10.08,10.8-11.64,16.08-25.68,16-41.88a23.51,23.51,0,0,0-1-6.24,20.6,20.6,0,0,0-6,11.28,42.1,42.1,0,0,1-7,16.56,40.54,40.54,0,0,1-23.4,16.68c-12.48,3.6-22,.12-28.56-10.44-9.72-15.48-14.52-32.76-14.64-51.84,0-11.64.24-23.28.6-34.92a321.17,321.17,0,0,0,38.76.24,42.58,42.58,0,0,0,16.2-5c6.36-3.48,8-8.76,4.92-15.84l-59.4,11.52a230.07,230.07,0,0,1,5-38.64,75.53,75.53,0,0,1,7.44-20.4,74.05,74.05,0,0,1,35.4-33.36,88,88,0,0,1,15.84-5.4l7.32,3.84,5.4,4.08a5.21,5.21,0,0,0,1.44-4.8,19.72,19.72,0,0,0-5.28-9.24Q280.68,303.72,265.92,313.44ZM195.36,76.32a534.88,534.88,0,0,0-15.84,55.08q-14.58,62.82-28.68,126Q137,319.68,125.64,382.32q-11.16,61.92-19.92,124.2-5.4-56.52-12-113-7.38-62.64-16.92-125T55.2,144a255.11,255.11,0,0,1-4.08-31.56c-.84-11.88-3.36-22-7.56-30.48A734.88,734.88,0,0,0,58.92,203.88Q72.06,265.8,80.28,328.56c5.4,41.64,10.08,83.28,13.92,125.16,1.92,20.88,3.12,41.76,3.6,62.52.24,10.08,3.12,17.4,8.52,22a103.32,103.32,0,0,0,5.52-23.52q8.1-63.18,19.56-126.12,11.34-63.18,25.44-125.64,13.86-62.46,31.68-123.72A177.53,177.53,0,0,0,195.36,76.32ZM268.08,99l.36,4.08c11.4,9.36,17.52,22.44,18.6,39.36q1.44,23.22,1.44,46.44a279.3,279.3,0,0,1-4,46.92,101.85,101.85,0,0,1-17,41.88c-10.08,14.4-23.4,20-40,16.8a33.64,33.64,0,0,1-17-8.4,241.4,241.4,0,0,1-11.76-84.72,402.82,402.82,0,0,1,7-60.12,71.61,71.61,0,0,1,10.44-26C226,100,239.88,91,257.76,88.2c5.88-1,10.32,1.32,13.08,6.84Zm8.4-6.24q-9.36-25-35.52-12.84A119.26,119.26,0,0,0,224.76,89Q187,153.3,190.68,229.44a205.12,205.12,0,0,0,10.44,55.2,37,37,0,0,0,9.36,15,51.7,51.7,0,0,0,12.48,9,31.78,31.78,0,0,0,12.48,3.48,21.16,21.16,0,0,0,11.88-3.24q31.86-19.08,39.6-55.44a378.11,378.11,0,0,0,6.6-113.28,98.45,98.45,0,0,0-9.72-35A107.84,107.84,0,0,0,276.48,92.76Zm168,1.56c-2.88,13.68-5.52,27.36-7.92,41.16q-11.16,63.18-21,126.84-9.72,63-18.84,126-9,62.28-13.56,124.2c-1.08-13-2.52-25.92-4.08-38.76q-7.74-62.64-10-126.12c-.24-7.32-2.52-12.24-6.84-14.52-3,17.64-5.4,35.4-7.2,53.4a1251.54,1251.54,0,0,1-19.56,124.92l-1.08-24.6q-3.06-63.18-5-126.72a1256.31,1256.31,0,0,0-9.84-125.76c-5.4-41.76-9-83.76-11-125.88-.6-11.64-1.92-21.84-4.2-30.6a447.23,447.23,0,0,0,1.8,87.72q7.38,63.18,13.56,126.72,6.12,62.28,7.2,125.76Q328,481.26,332.76,543a143.36,143.36,0,0,0,13.44-41.4Q356.82,439.5,364,377.16c0,3.72.24,7.56.6,11.28q7.2,62.82,10.92,126c.6,12,3.24,22.32,7.68,31.08a85.52,85.52,0,0,0,7.56-32.4,1101.09,1101.09,0,0,1,12.72-127.56l20-125.88q10.08-63,21.72-125.76c1.08-5.4,2.28-10.56,3.84-15.72,4.8-16.2,6.12-32,3.84-47.52A79.37,79.37,0,0,0,444.48,94.32ZM547.8,99.24C537.12,82.8,521.28,76.68,500,80.64c-11.52,4.68-19.2,13.32-23,25.68q-20.7,66.06,13.56,127.08A304.15,304.15,0,0,1,528.36,352a288.66,288.66,0,0,1-6.24,97.92,160.24,160.24,0,0,1-34.8,68.28c-8.28,7.32-17,9.24-26.52,5.52a10.7,10.7,0,0,1-4.08-2.76,110,110,0,0,1-24.84-44.4q-3.78,31.5,19.32,57.6c9.84,11,20.16,12,31.08,2.76,26-22.2,42.48-50.64,49.08-85.44a345.62,345.62,0,0,0,1.56-124.2,269.12,269.12,0,0,0-30.84-87.84,215.82,215.82,0,0,1-25.44-74.76q-5.58-38.7,18-68A22.74,22.74,0,0,1,499,95.28q38-7.2,51.12,23.76C552.72,112.32,552,105.72,547.8,99.24Z" transform="translate(-43.56 -70.68)"/></svg>