<svg id="Layer_1" data-name="Layer 1" xmlns="http://www.w3.org/2000/svg" viewBox="0 0 301.23 214.8"><defs><style>.cls-1{fill-rule:evenodd;}</style></defs><path class="cls-1" d="M151.8,197.76a164.85,164.85,0,0,0,6.24,40.8Q175.86,301,189.48,364.44a131.56,131.56,0,0,0,10.68,31.08,2.33,2.33,0,0,0,1.2-1.44q10.62-43,17-87.36,4.68-31.86,12.12-63a112.08,112.08,0,0,0,1.56-47.52,170.7,170.7,0,0,0-13.2,45.72q-9.54,62.46-18.72,125l-11.28-46.08q-16-63.54-36.36-124.68A2.58,2.58,0,0,0,151.8,197.76Zm185.76.36Q335,243.48,335,289a154.54,154.54,0,0,1-16.32,70.32c-6.6,13.32-17.4,18.72-32.28,16.32A20.89,20.89,0,0,1,271.32,365c-7.68-12.84-11-27.24-10-43.08a1274.86,1274.86,0,0,0,1.92-128.16c-.36,0-.6.12-.6.24a1087.71,1087.71,0,0,0-7.08,121,284.63,284.63,0,0,0,3.6,47.64c2.52,15.84,11.28,25.92,26.28,30.36a17.27,17.27,0,0,0,11.28-.12q30.42-10.62,37-43.2a524.24,524.24,0,0,0,10.2-89,293.81,293.81,0,0,0-5.16-64.2A3,3,0,0,0,337.56,198.12Zm33,112.44c1.56-38.76,1.44-77.16-.12-115.44A364.89,364.89,0,0,0,363.6,257c-1.08,42.72-3.24,85.44-6.24,128.16-.72,10.2,1.32,18,6.24,23.4q3.6-35.46,5.64-71.4l29.28-44.4c2.52,15.6,5.88,31.08,10,46.44a277.64,277.64,0,0,0,23.88,60.36,6.47,6.47,0,0,0,1.68-7q-15.3-54.18-29.88-108.6l32.16-50.88a59.92,59.92,0,0,1,7.08-9.36q13.68-15.12,7.92-28.44a660.73,660.73,0,0,0-38.52,55.08A580.26,580.26,0,0,1,375,304,37.43,37.43,0,0,0,370.56,310.56Z" transform="translate(-151.8 -193.8)"/></svg>