<svg id="Layer_1" data-name="Layer 1" xmlns="http://www.w3.org/2000/svg" viewBox="0 0 437.49 230.76"><defs><style>.cls-1{fill-rule:evenodd;}</style></defs><path class="cls-1" d="M154.08,159.36c-1.56,42.84-4.32,85.68-8.16,128.28a323.63,323.63,0,0,1-4.44,32.16c-2.28,12.24-.84,22.92,4.08,32q7.92-45.36,11.76-92.52a1008.29,1008.29,0,0,0,2.28-127.56C156.24,139.56,154.44,148.8,154.08,159.36ZM51,181.68q12.24,62.82,25.68,125.4a158.85,158.85,0,0,1,2.76,16.56c1.2,9.36,4.44,16.68,9.84,22a41.43,41.43,0,0,0,2.52-13.08h2a12.84,12.84,0,0,0,2.64-5.64Q107.1,263.7,120,201a252.78,252.78,0,0,1,8.4-31.08c4.44-13.68,5.88-26.88,4.2-39.48-.6.12-.84.24-1,.48A462.42,462.42,0,0,0,110,205.8c-7.8,39-14.28,78-19.2,116.88a61,61,0,0,0-1.8-6.24,310.06,310.06,0,0,1-15-64.2,571.84,571.84,0,0,0-29.16-124c-1.56,0-2.28.84-2.16,2.64Q46,155.94,51,181.68Zm176-29.76,5.4,2,1.8,5.16c6.36-17.76-.48-24.48-20.76-20.28-8.76,1.8-14.64,7.32-17.52,16.44a349.8,349.8,0,0,0-11.16,44.16,253.47,253.47,0,0,0-4.2,45.84c0,12.84-.6,25.8-1.68,38.64a143,143,0,0,0,3.84,46.92q6.84,27.54,32,18.72c17.28-6.12,24.24-18,21-35.4l-.48-1.56-4,1.68Q222,345.06,194,333a14.2,14.2,0,0,1-4.44-3.12l-2.28-80.4,35-7.32a13.06,13.06,0,0,0-1.08-13.8l-33.36,9c-3.48-36.6,7-64.68,31.32-84.48C221.52,151.08,224,150.84,227,151.92Zm238,22.8q19.08,31.5-8.76,57.72a141.91,141.91,0,0,0-21.6,5.28c1.8-26.52,2.4-52.92,1.56-79.2a114.07,114.07,0,0,0,20,7.32A28.13,28.13,0,0,1,465,174.72ZM358.8,138.84A246.69,246.69,0,0,0,343.2,190q-11.88,60.66-29.76,119.88c-4-23.16-7.68-46.32-11.28-69.24l-1.44,1.56-.36-5.64a328.68,328.68,0,0,0-14.16,51.24c-1.56,8.16-3.48,16.2-5.76,24l-1-6.36a331.25,331.25,0,0,1-4.8-43.56A638.86,638.86,0,0,0,256.8,135.36c-3,6.6-3.72,14.16-2.16,22.92a999.4,999.4,0,0,1,12.84,127.2,265.94,265.94,0,0,0,9.6,63l1.2-3.84,1.68,3.12a34.19,34.19,0,0,0,5.64-13.68c2.64-14.16,5.88-28.08,9.6-41.88A166.63,166.63,0,0,0,299.52,271c.84,8.4,1.92,16.8,3,25.08a193.54,193.54,0,0,0,7.32,32.4,32.69,32.69,0,0,0,4.56,16.8l1-1.8,3.36,7.56a3.2,3.2,0,0,0,1.32-3.12l-2-11.52a21.89,21.89,0,0,0,.48-7.8c1.32-6.24,2.76-12.36,4.56-18.36q17.64-61.38,32-123.84A153.31,153.31,0,0,0,358.8,138.84ZM391.44,165l4.44-3.72,11.88,8.16c2.88-8.28.84-14.76-6.12-19.56A24.78,24.78,0,0,0,394,146.4c-13.08,8.4-20.4,20.88-21.72,37.32l-2.52,34.44-1.92,31.68c-.6,10.68-1.44,21.24-2.52,31.92a176.9,176.9,0,0,0,1.44,46.44,49.91,49.91,0,0,0,12.6,26.28c12.84-3.12,21.6-10.92,26.16-23.4a10.29,10.29,0,0,0,.6-3.24l-.12-3.36-.6-1.68a19.73,19.73,0,0,0-3.84-6.48,38.16,38.16,0,0,1-18.12,19.44l-3.48,1.68a288.32,288.32,0,0,1-6-84.6l1.44,3.36L397,257a13.12,13.12,0,0,0,2.52-8.4,7.85,7.85,0,0,0-2.64-5.64l-21.6.84q-6.12-35.64,12.84-74.64A14,14,0,0,1,391.44,165Zm44.28-17.4-.12-3.6-.48.12A288.83,288.83,0,0,0,429,196.68a843.34,843.34,0,0,1-13,128c-2,12-1.2,22.8,2.76,32.52a3.85,3.85,0,0,0,2.4-3.12c4.08-27.48,7.56-55,10.56-82.68l1.56-16.08,8.4-1.8a30.57,30.57,0,0,0,8-2.88,52.34,52.34,0,0,0,2.16,20.64,439.46,439.46,0,0,1,13.08,58c1.8,11.52,5.4,21.48,10.68,29.76a4.47,4.47,0,0,0,1.8-4.68c-5.88-36.24-13.44-71.88-22.44-107q26.46-18.18,25.08-52.8-1.8-40.32-42.84-48.36l-.12.12Z" transform="translate(-42.71 -128.28)"/></svg>