<svg id="Layer_1" data-name="Layer 1" xmlns="http://www.w3.org/2000/svg" viewBox="0 0 296.41 209.69"><defs><style>.cls-1{fill-rule:evenodd;}</style></defs><path class="cls-1" d="M150.72,198.6a87.33,87.33,0,0,0,4.08,26.52l15.72,48.36A536.11,536.11,0,0,1,192.24,367c1.68,11.64,4.92,21.36,9.84,29.4a1053.32,1053.32,0,0,0,32.64-122.64,244.85,244.85,0,0,1,8.16-30.24c5.4-15.72,6.84-31.08,4.44-46A214.78,214.78,0,0,0,231,249.36q-11.7,61.38-28.08,121.8c-1.8-10.08-3.72-20.4-5.76-30.84-3.72-18.24-8.4-36.24-13.8-54.12-9.48-30.6-19.56-60.6-30.24-90.24C151.56,196,150.72,196.8,150.72,198.6Zm119.88-2c-3,25.8-5.64,52.2-8.16,79.08l-5.64,63.24q-3.42,39.6,31.8,53.52c6.36,2.52,12.24,1.92,17.64-1.92q26.82-19.26,33.48-52.32a301,301,0,0,0,6-52.08q.9-31.86,2.52-64.08c.6-10.44-1.56-18-6.48-22.8a238.93,238.93,0,0,0-2.28,44.64,296.15,296.15,0,0,1-16,110.16c-7.32,21.24-21.72,27.84-43,19.92a12.22,12.22,0,0,1-7.68-7.68q-12.6-35.82-5.76-75.84c1.68-9.84,3.24-19.68,4.68-29.64a206.3,206.3,0,0,0-.72-64.32Zm118-1.44c-10.32,13.44-14.16,28.68-11.4,45.84,4.92,30.84,19.08,57.72,42.24,80.64a75.73,75.73,0,0,1,16.32,23.64c4.8,10.8,3.6,20-3.48,27.84a47.31,47.31,0,0,1-23.88,14.28,49.23,49.23,0,0,1-23.64,0,42.67,42.67,0,0,1-24.36-14.76c-3.6-4.2-7.08-8.52-10.56-13-4.2,13.44-.6,24.24,10.8,32.52,22,15.72,43.92,16.56,66,2.28a36.6,36.6,0,0,0,15.72-20.64A59,59,0,0,0,439,330.72a92.77,92.77,0,0,0-20.4-28.08,172.35,172.35,0,0,1-24.36-27.72,66.37,66.37,0,0,1-11.64-29.28,84.06,84.06,0,0,1,1.32-30.48l3.84-4.08c14.76-1.92,29,.84,42.72,8.16a29.85,29.85,0,0,1,14.76,17.64c4-7.08,1.8-14.76-6.36-23Q418.32,192.78,388.56,195.12Z" transform="translate(-150.72 -194.89)"/></svg>