<svg id="Layer_1" data-name="Layer 1" xmlns="http://www.w3.org/2000/svg" viewBox="0 0 369.74 352.92"><defs><style>.cls-1{fill-rule:evenodd;}</style></defs><path class="cls-1" d="M295.08,257.64l13.32.84A146.09,146.09,0,0,1,331.8,331a198.15,198.15,0,0,1-2.16,41.28,113.69,113.69,0,0,1-14.76,41.16,32.3,32.3,0,0,1-19.68,15.24,42.27,42.27,0,0,1-26.4-.48l-2-.72-2.16-1.8L272.28,270q10.62-2,20.52-10.44ZM229.92,103.32c-5,10.2-7.92,22-8.52,35.16-2,42.84-4.44,85.56-7,128.28s-5.76,85.56-9.72,128.16c-.6,5.4-1.44,10.8-2.52,16-2.76,12.72-1.44,23.28,4.2,31.8a51.46,51.46,0,0,0,4.92-18.6c3.24-42.6,6-85.44,8.52-128.4q3.6-63.9,9.36-128A412.24,412.24,0,0,0,229.92,103.32Zm46.2,12.6c14.76,2.52,25.08,11.28,31,26a127.54,127.54,0,0,1,9.36,45.24,66.46,66.46,0,0,1-14.28,43.92,67.78,67.78,0,0,1-29,22.2,822.73,822.73,0,0,0,3.6-130.92ZM198,101.64a285.06,285.06,0,0,0-12.48,42.48q-13.14,62.46-29.76,124.08-15.12,56-26.88,112.32l-7.2-29.76q-14.58-62.64-23.76-126A1033.13,1033.13,0,0,0,72,99.6c-2.52.84-3.48,2.88-3,5.88,1.44,9.48,3,19,4.8,28.68L96.72,259.08l6.12,31.2q13.5,62.82,20.64,126.36c1.08,9.72,4.32,17,9.6,22.2a150.84,150.84,0,0,0,1.08-25.56,841.85,841.85,0,0,1,24-124.8q16.74-62.1,32.52-124.2a248.57,248.57,0,0,0,7.92-62.76C198.24,101.52,198,101.52,198,101.64Zm79.08-.12-2.64.6-1.2.72-.6,1.68a19.14,19.14,0,0,0-.84,6.84,72.71,72.71,0,0,0-1.44,13.08Q269.82,188.7,266,252.6c-2.52,42.72-4.68,85.56-6.72,128.4a238.46,238.46,0,0,1-4,32c-2.52,12.24-1.2,22.92,3.84,32l2-4.92q18.18,18.54,44.4,2.28c12.36-7.56,20.52-18.48,24.48-32.88a338.49,338.49,0,0,0,9.24-46.2q8.82-68.22-31.44-120.36a81.34,81.34,0,0,0,12-29.52q13-61.38-26-108.48l-2.28-.84A22.51,22.51,0,0,0,277.08,101.52Zm126.6,5.64A35.24,35.24,0,0,0,388.32,117C364.44,142.8,351,173.88,348,210q-5,64.08-6.12,129.12a245.58,245.58,0,0,0,16.8,94.68c7.2,18.36,19.68,23.16,37.32,14.64a96.35,96.35,0,0,0,35-29c9-11.88,10-22.92,3-33a15.92,15.92,0,0,0-5.88,4.68,5.15,5.15,0,0,1-3.36,2.28l.12.84a9.64,9.64,0,0,0,2.28,3.6v.48Q410.1,432.12,373.92,434q-22.68-28.44-23.4-66.6-1.08-49.14-.36-97.92c14.16.12,28.2,0,42.12-.24l.72-.72c3.36-5.64,3.12-10.92-.72-16.08a166.66,166.66,0,0,0-41.76,3.84l.36-17.88c1.08-36.72,11.88-70.08,32.64-100.08a30.23,30.23,0,0,1,15.72-11.76c12.6-4.2,23.4-1.32,32.28,8.4l.36-.84C432.12,117.6,422.76,108.6,403.68,107.16Z" transform="translate(-68.88 -99.6)"/></svg>