<svg id="Layer_1" data-name="Layer 1" xmlns="http://www.w3.org/2000/svg" viewBox="0 0 299.58 209.16"><defs><style>.cls-1{fill-rule:evenodd;}</style></defs><path class="cls-1" d="M227.16,257.64a183.91,183.91,0,0,0,11.4-62.28,774.82,774.82,0,0,0-31.92,112.08c-3.6,17.64-7.32,35.28-11.28,52.8-1.56-14.52-3.84-29.16-6.84-43.68A882.36,882.36,0,0,0,154.2,193.44c-4.32,5.88-5,12.84-2.16,21.12A712.29,712.29,0,0,1,183.6,339.12c1.68,10.68,3.12,21.24,4.2,31.8a79.37,79.37,0,0,0,5.88,23.64,49.68,49.68,0,0,0,2.28,5.88l.12-1.08.6,1.08a3.49,3.49,0,0,0,1.44-3.24l-.24-6.84c6.36-33.48,13.08-67.32,20.4-101.52A231.6,231.6,0,0,1,227.16,257.64ZM305,195.72a576.54,576.54,0,0,0-7.2,79.44c-.84,42.84-.72,85.32.6,127.44a2.48,2.48,0,0,0,1.8-.6,27.63,27.63,0,0,0,5.28-17.28l-.84-127.32.24-1a448.48,448.48,0,0,0,.48-60.84Zm73.2,98.64L377,211.92a108.5,108.5,0,0,1,41.28,9.84c14.64,6.72,22.44,18.48,23.28,35.16s-7.08,28.44-23.76,35.16A60.64,60.64,0,0,1,378.24,294.36Zm-3-97.56q-3.06,36.18-4,73Q369.66,334.2,366.6,398q.72,2.88,3.24,2.16c3.48-24.84,5.88-49.92,7.2-75.48l.72-15.72c14.16,4.92,28.68,3.24,43.56-4.92,24.12-13.32,33-33,26.52-59.28-6.6-26.52-23.76-41.64-51.24-45.36l-10.08.84a28.3,28.3,0,0,0-10,3.6l-.48-7.44C375.48,196.56,375.24,196.68,375.24,196.8Z" transform="translate(-150.31 -193.44)"/></svg>