<svg id="Layer_1" data-name="Layer 1" xmlns="http://www.w3.org/2000/svg" viewBox="0 0 309.35 208.32"><defs><style>.cls-1{fill-rule:evenodd;}</style></defs><path class="cls-1" d="M300.24,209.76c-1.08,43.08-1.8,86.16-2.4,129A289.68,289.68,0,0,1,295.68,371c-1.56,12.6,0,23,4.92,31.56A30.24,30.24,0,0,0,304.44,388c.84-42.84,1.44-85.92,1.8-129,.12-22.08-.48-43.44-1.92-64.08A28.55,28.55,0,0,0,300.24,209.76Zm-64.56-11.52a966.51,966.51,0,0,0-33.12,124.2l-6.48,31.32-1.56,8.16c-3.24-14.88-6.12-29.76-8.64-44.76a710.17,710.17,0,0,0-32.76-122.88c-2.4.84-3.36,2.88-3,5.88a246.81,246.81,0,0,0,11,47.64,545,545,0,0,1,26.4,123.84,71.19,71.19,0,0,0,6.12,23.88l.6,4.92,1-1.8,1.44,2.64a31.36,31.36,0,0,0,2.88-14,112.34,112.34,0,0,0,3.84-18.72A631.84,631.84,0,0,1,230,244.08a140.71,140.71,0,0,0,7.2-46.8A1.28,1.28,0,0,0,235.68,198.24Zm149.88-2-.24,2.28-1.56,6.6.36.72.6.24A808.62,808.62,0,0,0,383.4,301c.72,14.88.84,29.76.24,44.64-.36,10.92-.6,21.72-.48,32.4a109.92,109.92,0,0,0,2.4,23.16A306.57,306.57,0,0,0,392,343.8c.36-16.44,0-33-1-49.56l40.68-4.08a13.06,13.06,0,0,0,1.92-10.08l-.48-1.92-.72-1.8-1.2-1.92-40.68,7.2-4.2-75.12A211.1,211.1,0,0,0,458,208.68a14,14,0,0,0,.6-10.56l-.72-1.56-.24-.48a213.29,213.29,0,0,0-51,.12l-21,2.16Z" transform="translate(-150.05 -194.28)"/></svg>