<svg id="Layer_1" data-name="Layer 1" xmlns="http://www.w3.org/2000/svg" viewBox="0 0 300.72 223.44"><defs><style>.cls-1{fill-rule:evenodd;}</style></defs><path class="cls-1" d="M151.32,197.52l24.6,78.72a781.69,781.69,0,0,1,27.6,121c.48,2,1.68,2.52,3.48,1.56a12.26,12.26,0,0,0,1.2-4.68,31.48,31.48,0,0,0,2.28,5.52,110.49,110.49,0,0,0,7-29,627.32,627.32,0,0,1,25.92-124.68,139.42,139.42,0,0,0,6.84-46.68A509.87,509.87,0,0,0,220,307.32q-5.22,31.14-12.24,61.92c-.48,2-.84,4.08-1.2,6A417.75,417.75,0,0,0,196,315.72a838.07,838.07,0,0,0-40.68-120.6h-.48A4.62,4.62,0,0,0,151.32,197.52ZM298.08,209.4q2.34,63.72,1.68,128.28a179.21,179.21,0,0,1-3.12,32.16c-2.28,12.12-1,22.8,3.72,31.92a62,62,0,0,0,5.4-23.4l2-70.68a761,761,0,0,0-5.28-111.24C299.28,199.44,297.84,203.76,298.08,209.4Zm121.08,4.32c13.2,9.84,17.4,23,12.72,39.48C427.44,268.8,418,280,403.32,286.68a56.91,56.91,0,0,1-26.4,5.28,373.42,373.42,0,0,0-1.44-88.08C391.32,200.52,405.84,203.76,419.16,213.72Zm-44.4-13.32-1.08-5.88a1.1,1.1,0,0,0-.72.48,35.26,35.26,0,0,0-2.76,13.68q.54,64.44-5,128.16A324,324,0,0,1,360.6,369c-2.28,12.48-1,23.28,4.08,32.52a3.33,3.33,0,0,0,1.92-1.68A46.42,46.42,0,0,0,369.48,387L375,305.76c5.4,2,11.28,1.92,17.4-.36a90.26,90.26,0,0,0,13.8-6,381.8,381.8,0,0,0,15.6,55,317.16,317.16,0,0,0,27.84,57.72,7.31,7.31,0,0,0,2-7.8q-8.64-29-19.2-57.84a532.28,532.28,0,0,0-21.6-49.8c19.56-12.6,28.92-32.28,28.32-59-.6-28-15.24-44.28-44.16-49l-6.6.24a25.11,25.11,0,0,0-13.44,8.4l-.12,1.56Z" transform="translate(-151.32 -188.64)"/></svg>