<svg id="Layer_1" data-name="Layer 1" xmlns="http://www.w3.org/2000/svg" viewBox="0 0 507.36 433.42"><defs><style>.cls-1{fill-rule:evenodd;}</style></defs><path class="cls-1" d="M157.8,99q-10.62,63.18-20.28,127.2Q128,288.84,119.16,351.84l-17.4,126.24-3-19.56q-9-63.36-19.32-126.48L59.16,205.8Q49.26,142.26,41.4,79.32c-.48-.12-.72-.12-.72.24A812.12,812.12,0,0,0,50.76,192.12q10.08,63.18,21,126.12T90.12,444.6a484.38,484.38,0,0,0,11.64,63A683.4,683.4,0,0,0,115,430.8L130.32,304q7.92-63.18,19.92-125.88,6.12-31.68,14.52-62.64c3.24-12,2.4-22.56-2.4-31.56a1.86,1.86,0,0,0-1,1A98,98,0,0,0,157.8,99Zm63-13.44c-12,3.36-20.4,11-25.2,22.92a327.9,327.9,0,0,0-24.12,125.28q0,64.44-3.12,129a415.71,415.71,0,0,0,13,127c3.84,14.52,13.08,22.08,27.6,22.92A16,16,0,0,0,221,508.32c24.84-22.8,40.32-51.24,46.68-85.32a586.5,586.5,0,0,0,9.48-128.4q-2.16-64.26-9.12-127.44a255.92,255.92,0,0,0-21.84-78.72l-2.16-.72L243,87.36l-2.28,1.56-.48.12L238.8,87.6l-1.56-1a1.47,1.47,0,0,0-1.08-.48Zm18.6,13.56a12.55,12.55,0,0,1,4.08,4.68,182.31,182.31,0,0,1,16.8,54.36,1134.83,1134.83,0,0,1,12,128.28,544.7,544.7,0,0,1-10.56,128.28,340.69,340.69,0,0,1-13.32,47.76c-8.88,24.84-25.56,36.72-50.16,35.88a109,109,0,0,1-21.36-55.8,673.37,673.37,0,0,1-2.52-96c1.08-21.6,1.08-43.2.24-64.8a494.23,494.23,0,0,1,11.88-127.68l3.6-16.56c3.72-19.32,13.92-32.88,30.36-40.68C227.76,94.56,234,95.28,239.4,99.12Zm127.44-7.68-.12-.84V89l-.12-.84-.12-.36-1.44-2L317.64,85c-15.84-.36-31.56-.24-47.16.12a8.21,8.21,0,0,0-4,1.08l-.36,7,6.6.72a3.81,3.81,0,0,0,3.36,2.28l36.36,1.68h11a275.38,275.38,0,0,0-5.64,53.4q-.36,48.6-.24,97.08.54,128.88,3.84,257.4a66.67,66.67,0,0,0,3.36-17.4q2.34-54,1.68-108.12-2-141.3-1.08-282.36l39.6-.6,1.08-2.52.48-1.56Zm76.08,2.16c-9.24-7.92-20.16-11.28-32.76-10.2a41,41,0,0,0-19.32,19.92,265.58,265.58,0,0,0-25.44,111q-.9,64.44-2.52,129.12l-1,32.28A226.19,226.19,0,0,0,373.8,458.4c8,23.16,23.88,32.16,47.76,27a72.62,72.62,0,0,0,11.88-10,55.43,55.43,0,0,1,6.24-5.76c3.72-6.24,7.2-12.6,10.32-19.2a46.85,46.85,0,0,0,4.8-24.6,10.46,10.46,0,0,0-4.32,5.88c-6.84,20-19.56,33.6-38.16,40.44a14.18,14.18,0,0,1-11.88-.6c-17.28-8.76-26.76-23-28.32-42.72a1153.77,1153.77,0,0,1-3.84-129l.24-8.88a223.43,223.43,0,0,0,51.36,1.2l.48-.84a10.48,10.48,0,0,0-1-10.44l-50.52,1.8q1.8-55.44,6.48-110.28a136.66,136.66,0,0,1,25.2-69.24C407.16,94.08,416,92,427.32,97c9.36,4.08,16.92,8.88,22.68,14.52l.24-1.56a20.63,20.63,0,0,0-4.08-12.36L444,94.44ZM544.44,116c-3-17.16-13.32-27.24-30.84-30.48A46.67,46.67,0,0,0,494,86c-18.24,18.84-25.32,41.16-21.24,67.2a682.9,682.9,0,0,0,40.8,149A383.56,383.56,0,0,1,537.48,394a236.58,236.58,0,0,1,2.16,34.56,71.19,71.19,0,0,1-.72,10.08c-.6,3.36-1.32,6.6-2.16,9.84a90.54,90.54,0,0,1-5.16,13.8,87.37,87.37,0,0,1-17.4,25L510.36,491c-20.4,1.2-34.44-7.32-42-25.44l-.6-.84a25.05,25.05,0,0,0-2.16,19.56c9.72,12.6,22.2,19.8,37.56,21.48q6.48.9,12.24-4a77.59,77.59,0,0,0,23.76-34.2A152.71,152.71,0,0,0,548,415.32c0-5-.24-10-.72-14.88-.6-5.16-1.32-10.32-2.16-15.24-2.52-12.84-5.28-25.68-8.52-38.28a495.28,495.28,0,0,0-16.56-52.08c-9.48-25.08-18.6-50.16-27.6-75.36A356.45,356.45,0,0,1,477.12,162q-5.94-32.76,14-59.16l3.12-4.08q29.7-6.12,48.36,17.76C543.48,117.48,544.08,117.36,544.44,116Z" transform="translate(-40.68 -79.25)"/></svg>