<svg id="Layer_1" data-name="Layer 1" xmlns="http://www.w3.org/2000/svg" viewBox="0 0 439.61 320.77"><defs><style>.cls-1{fill-rule:evenodd;}</style></defs><path class="cls-1" d="M278.16,140.4a234.3,234.3,0,0,1,25.2,59.52,233.66,233.66,0,0,1,8.28,59q.9,66.06-33.72,121.8a43.9,43.9,0,0,1-17.76,16.32q-31.32,16-49.32-12.48Q193.56,357.24,193.68,323a663.41,663.41,0,0,1,12.48-127.56c6.6-33.48,26.28-53.16,59.28-58.8l7.32.24A16.06,16.06,0,0,1,278.16,140.4Zm-12-18.84c-16.92.12-31,7.08-41.88,20.88a145.28,145.28,0,0,0-30.36,74.16A916.58,916.58,0,0,0,188,345q1.08,45.54,36.36,71.76a18.11,18.11,0,0,0,11.76,4c26.52-.6,45.12-13.68,56-39a342.75,342.75,0,0,0,17.16-50.88,338.49,338.49,0,0,0,10-93.84q-1.8-61.92-37.44-111.12H278.4l-.6-.36-.84-.72A15.64,15.64,0,0,0,266.16,121.56Zm-88.68-6.84a19.51,19.51,0,0,0-5,9.48q-14.22,62.46-27.6,124.92Q131.34,311.76,116,373.8l-.84,4.2q-8.64-42.12-18.48-83.88L82.32,232.2q-14.22-62.64-32-123.72c-.6-.12-.84,0-1,.36a69.46,69.46,0,0,0,1.92,36.6A1087.74,1087.74,0,0,1,82.32,270.12Q94,332.22,109.8,393.36c-1.56,6.84.12,12.48,4.92,16.8a13.57,13.57,0,0,0,3.84-5.88l.6-1.08q14.22-58,26.64-116.52Q158.94,224.22,171,161.4A73.75,73.75,0,0,1,175.8,146C181.2,134.16,181.68,123.72,177.48,114.72ZM395,407a112.24,112.24,0,0,1-43.32-3.84,136.41,136.41,0,0,0-18.36,2,99.57,99.57,0,0,0,4-24.72c1.8-42.6,4.44-85.2,8-127.56a762,762,0,0,0,.36-128.16c-.6-.12-.84-.12-.84.24-1.92,33-3.6,66.12-5.16,99.6-2,42.84-5,85.68-8.88,128.28a254.51,254.51,0,0,1-4.92,32c-2.4,11-1.92,21.12,1.44,30.12a5.16,5.16,0,0,0,2.16,4.08c22.8,2.28,45.24,4,67.44,4.8a10.35,10.35,0,0,0,2.52-6.48l.12-3.24a9.87,9.87,0,0,0-3-7.32ZM487.32,159.6q-2.16-29.34-32-35.28l-4-.6c-28,23.76-42.36,55.56-43,95.4q-1.26,77.4,2.28,154.92a88.66,88.66,0,0,0,19.56,52.32c15.36,5.88,29,2.64,41-9.6a42.63,42.63,0,0,0,12.84-31.56,37.28,37.28,0,0,0-.84-8.28l-6-2.52-1.08,1.2-1.2,1.8a4.74,4.74,0,0,0-.48,2.52c0,1.08.6,1.44,1.68,1.2l1.08-1.68c-.36,13.8-7.2,23.52-20.76,29.4-11.88,5.28-21,3-27.12-6.84a92.23,92.23,0,0,1-14-44.64l-.12-7.8.48-59.88.24-20,29.4,8A7.27,7.27,0,0,0,447,273.6,18.74,18.74,0,0,0,445.08,263l-28.92-5.64Q408.24,192.06,447,141l4.32-2.16L469.44,144a87.1,87.1,0,0,0,17.64,16Z" transform="translate(-47.71 -108.43)"/></svg>