<svg id="Layer_1" data-name="Layer 1" xmlns="http://www.w3.org/2000/svg" viewBox="0 0 505.41 442.44"><defs><style>.cls-1{fill-rule:evenodd;}</style></defs><path class="cls-1" d="M339.72,318.48q-2.7,64.26-7.56,128.16a460,460,0,0,0-.48,64.2,312.43,312.43,0,0,1,67.92,5.4,14.78,14.78,0,0,0,0-13.8,591.69,591.69,0,0,0-63.6-7.56c1-22.56,2.16-45,3.48-67.44q4.14-64.62,5.16-128.16C341.64,304.44,340.08,310.8,339.72,318.48ZM201.12,213.24q-.9,64.44-2.88,129.12a415.59,415.59,0,0,0,15.48,127Q221.64,497,247,509.88q30.42,15.48,43.56-16.8c6.48-16,12.36-32,17.76-48.36a343.45,343.45,0,0,0,16.56-126q-3.42-64.26-9.84-128.16c-2.16-21.24-4.56-42.36-7.32-63.6Q302.46,85.56,260.76,86q-26.1,12.24-39.24,39.84A210.1,210.1,0,0,0,201.12,213.24ZM192.36,82.56a224.45,224.45,0,0,0-6.84,30.84Q176,177.12,161,240.24q-14.76,62.1-27.84,124.44t-25.8,124c-1.32-9-2.4-18.12-3.48-27.24q-7-63.54-18.36-126.48-11.52-63-28.32-124.8A611.2,611.2,0,0,1,36.48,85.56l-.12-.84L33.84,79.8a105.51,105.51,0,0,0-.24,43q12.24,63.54,27.84,126.6,15.48,61.92,25.2,124.8,9.54,62.28,14,125.16c.6,9.12,2.76,16.8,6.48,22.92a9.74,9.74,0,0,0,3.36-6.12c2-14,4.56-28.08,7.44-42q13.14-63.54,25.56-127.32,12.06-62.46,26.76-124.68Q185,159.66,196.44,97.2C197.76,89.88,196.44,85,192.36,82.56Zm94.44,24,1.68.84,2.4.84a287.93,287.93,0,0,1,18.48,80q5.58,64.26,9.36,129.12a355.84,355.84,0,0,1-15.6,127.8q-10.08,32-31.44,55.68a27.23,27.23,0,0,1-18.84-2.16q-29-13.5-36.84-46.08A431.06,431.06,0,0,1,203.88,342q1.26-64.44,1.32-129,0-65.88,45.84-111.24l2.16-.72a30.25,30.25,0,0,1,6.48-2.52c9.36-1.68,17.64-.6,25,3.24a5.72,5.72,0,0,0,.48,2.4A7.93,7.93,0,0,0,286.8,106.56Zm120.72,3.12q20-14.58,31.32,6.12L439,115c1.08-16-6.72-24-23.4-24.36q-26.1,20.7-32.76,56.64A818.34,818.34,0,0,0,370,273.36c-.48,18.84-1.2,37.68-2.16,56.64a696.4,696.4,0,0,0,5.64,127.68c2.64,19.32,12.48,32.76,29.64,40.2,15.84,6.84,28.08,4.08,36.6-8.52,10.68-15.48,14.64-31.44,11.64-47.76a15.31,15.31,0,0,0-4.8,8,72.7,72.7,0,0,1-20.4,35.76q-20,3.24-35.64-8.64l-.6-1.68a6,6,0,0,0-2.16-3.24l-.84-.72a90.82,90.82,0,0,1-4.44-14.76A415.37,415.37,0,0,1,373,359l1.32-54a259,259,0,0,0,49.92-1.92l.48-1a10.48,10.48,0,0,0-1-10.44,273.18,273.18,0,0,0-49.2,4.08c.6-21.72,1.32-43.44,2.16-65A351.64,351.64,0,0,1,398.28,122,26.61,26.61,0,0,1,407.52,109.68ZM531.36,109a31.78,31.78,0,0,0-19.92-21.6L500,87.12a41.68,41.68,0,0,0-10.56,7.32c-3.72,3.72-7.32,7.32-10.56,11a112.6,112.6,0,0,0-12.12,47.16A334,334,0,0,0,484.32,275q21.06,61.74,40.56,124.32a152.43,152.43,0,0,1,6.36,31.8c1.56,18.12-3.12,34.2-14.28,48.48-15,19.08-31,21-48.12,5.76a44.24,44.24,0,0,1-.36-17.76c1.08-6.36.48-12-2-16.92a21.07,21.07,0,0,0-3.72,6.84c-6.36,20.88-1.8,37.92,13.92,51.24a10.86,10.86,0,0,0,7.68,2.76q32.58-.54,46.44-31a69.57,69.57,0,0,0,6.12-31.08,376.74,376.74,0,0,0-25.68-123,864.47,864.47,0,0,1-38-124.44,143.48,143.48,0,0,1,5.16-81.36l7.08-9A43.86,43.86,0,0,1,499,99.6,45.92,45.92,0,0,1,510.48,101c9.84,2.52,16,8.52,18.24,18.24a3.17,3.17,0,0,0,4,1l.6-.6A46.44,46.44,0,0,0,531.36,109Z" transform="translate(-31.51 -79.8)"/></svg>