<svg id="Layer_1" data-name="Layer 1" xmlns="http://www.w3.org/2000/svg" viewBox="0 0 303.91 212.64"><defs><style>.cls-1{fill-rule:evenodd;}</style></defs><path class="cls-1" d="M152.76,197.76c2.28,15,5.16,30.36,8.64,46q13.68,61.74,21.48,124.8c1.44,11.64,4.56,21.48,9.48,29.52a58.32,58.32,0,0,0,7.92-21.12q10.8-63.18,21-126.6a121.39,121.39,0,0,1,6-22.92c4.32-11.64,4.08-22-.6-30.72a215.72,215.72,0,0,0-13.92,52.68c-5.52,41.16-12,82.2-19.56,122.88-3.12-17.4-5.88-34.92-8.16-52.56A523,523,0,0,0,154,196.44C153,196.32,152.64,196.68,152.76,197.76ZM317,214.2a8.86,8.86,0,0,0,3.6,3.36Q350,269.76,336,327.36a85.67,85.67,0,0,1-19.08,36.72q-20.34,23-49.68,10.68a10.63,10.63,0,0,1-5.88-5.52q-24.12-51.66-7-107.4c7.56-24.6,22.32-42.6,44-53.76a29.23,29.23,0,0,1,17.28,3.84Zm-1.68-13.92a31.41,31.41,0,0,0-16.68-5.16Q266.64,209,253.92,243q-23.22,61.74-4.44,125.88c6.6,22.68,22.2,31.56,47,26.64a28.06,28.06,0,0,0,14.16-7.2c22.44-21,35-47.4,37.8-79q5.22-60.66-27.36-110.52c-1.56-1.08-3-.84-4.2.84l-.6.84Zm140.88,99.84a12.29,12.29,0,0,0-.6-8q.18-49.14-1.92-97.2A118,118,0,0,0,448,230.52q-.54,29.34-.72,58.68a114.34,114.34,0,0,0-31.92,4.2,910.7,910.7,0,0,0-8.16-97.8q-1.62,37.08,0,77.28c.84,21.24.6,42.6-.6,63.84-1.32,21.72-1.92,43.2-2,64.2,2.28.72,3.72-.36,4.2-3.12a418.19,418.19,0,0,0,6.84-73.92V304.44a164.53,164.53,0,0,0,31.68-.24c0,18.48.12,37,.48,55.32a468.29,468.29,0,0,0,3,48,2.15,2.15,0,0,0,1.2-1.08,109,109,0,0,0,4.44-40.32c-.84-14.4-1.2-28.8-1-43.08l.24-21.36ZM379.92,195.36c-20.52,15.36-25.08,35.64-13.92,61,5.76,13.2,11.88,26.28,18.24,39.12A68.51,68.51,0,0,1,391,332.88a61.16,61.16,0,0,1-17,37.2,45.34,45.34,0,0,1-18.72,12c-2.64,5.16-2.52,10.08.48,14.88l1,1.32c16.32-4.92,27.84-16.2,34.44-34.08a108.91,108.91,0,0,0,6.84-33.84,80.77,80.77,0,0,0-9.36-41.64c-11.64-22-17.28-44.28-17.16-67.2.12-6.36,3.24-10.92,9.6-13.92l7.08-2.52-1.68-6.84Z" transform="translate(-152.74 -194.88)"/></svg>