<svg id="Layer_1" data-name="Layer 1" xmlns="http://www.w3.org/2000/svg" viewBox="0 0 308.18 209.04"><defs><style>.cls-1{fill-rule:evenodd;}</style></defs><path class="cls-1" d="M313.32,302.76c15,10.8,23.76,25.2,26.4,43.08,1.8,12.72-2.28,22.44-12.48,29-16.44,10.68-31.08,7.92-44.16-8.4-10.92-13.56-13-28.44-6.24-44.64,4.68-11.16,13.2-18.12,25.32-20.76Zm-32.76-4.2c-9,9.84-13.92,21.84-15,36.12q-3.06,38.52,28,60.24c6.12,4.32,13.08,5.28,20.76,3,25.8-7.92,37.32-25.92,34.8-54q-2.88-30.42-23.88-51.24l-4.44-1a87.45,87.45,0,0,0-18.84-3.84L298.68,289A29,29,0,0,0,280.56,298.56Zm-47-91.2q-13.14,62.1-27,124.32A139,139,0,0,1,202,347.4a115.72,115.72,0,0,0-6.36,25.8c-4.68-18.6-8.52-37.32-11.4-56.16a639.2,639.2,0,0,0-31.08-122.76q-2-.18-1.8,1.8a312.3,312.3,0,0,0,10,49.08,700.08,700.08,0,0,1,23.76,124c1.2,12,4.68,21.84,10.56,29.64a30.3,30.3,0,0,0,2.52-10.32A414.67,414.67,0,0,0,221.4,306q5.4-31.5,12.72-62.28a182.66,182.66,0,0,0,5.28-47.52A20.12,20.12,0,0,0,233.52,207.36ZM382.08,399.6a456.28,456.28,0,0,0,7.8-76.8q1.26-65.16-3.24-129a527.7,527.7,0,0,0-4.56,74c.12,43.32-1.08,86.28-3.6,129.12A3.32,3.32,0,0,0,382.08,399.6Zm6.48-208.32A152.39,152.39,0,0,0,400,240.12c5.64,13.56,11,27.12,16.32,40.68,5.76,14.76,10.8,29.76,15.24,45,4.8,16.32,8.88,32.88,12.36,49.8a72.72,72.72,0,0,0,9.36,24.72,339.36,339.36,0,0,0,6.24-67.8q-.54-53.1-2.28-106.08l-1.44-31.8a647.21,647.21,0,0,0-5.16,123c.84,15,1.32,30.12,1.44,45.24q-28.44-86-61.92-170.64Z" transform="translate(-151.3 -191.28)"/></svg>