<svg id="Layer_1" data-name="Layer 1" xmlns="http://www.w3.org/2000/svg" viewBox="0 0 421.38 291.65"><defs><style>.cls-1{fill-rule:evenodd;}</style></defs><path class="cls-1" d="M77.4,212q15.48,61.74,26.4,124.32a313.94,313.94,0,0,1,4.68,47.28c.24,11.88,3,22.08,8.4,30.6a2.16,2.16,0,0,0,1.8-2.16,271.53,271.53,0,0,0-.84-32.76,2.74,2.74,0,0,0,.72-1.44l11.76-59.64q12.06-62.82,25.32-125.4a49,49,0,0,1,6.12-15.36q9.9-16,6.48-31.68a24.68,24.68,0,0,0-10.56,13.56,408.63,408.63,0,0,0-13.8,48.72q-13.68,62.46-26.4,125a136,136,0,0,0-2.76,22.68l-.6-2.88q-11.7-63-24.72-125.64-6.48-31.5-14-63.24a140.67,140.67,0,0,0-10.44-29.88c-3.48,8.4-3.72,17.76-.72,28.2C68.88,178.92,73.32,195.48,77.4,212Zm254.52-61.32a460.77,460.77,0,0,0-4.44,55.2q-1.08,64.26-3.72,128.28a382,382,0,0,1-5.28,48.36c-2.16,12.24-.84,23,4.08,32.52,3.72-5.88,5.4-12.84,4.8-20.88l1.32-1.56.12-2.52L327.36,392c1.2-18.84,2.28-37.68,3.36-56.52s2-37.8,3.36-56.64a789.9,789.9,0,0,0-1.56-128.4Zm-117.36,16c10.44-6.36,21.24-7.2,32.4-2.64l1.68,5.64A82.4,82.4,0,0,1,270,194.16q26.64,45.9,21,99.36A156.6,156.6,0,0,1,267.48,361a164.88,164.88,0,0,1-13,18.12,56,56,0,0,1-17.4,14.52,47.42,47.42,0,0,1-23.52,5.76,55.21,55.21,0,0,1-16.44-3A136.07,136.07,0,0,1,168.24,323,247.2,247.2,0,0,1,187,202.44,59.91,59.91,0,0,1,214.56,166.68Zm14.88-20.28a25.52,25.52,0,0,0-19.68,8.28c-25.56,27.48-40.44,60.72-44.52,99.48-1.68,15.48-2.88,31.2-3.48,46.92q-2.34,55.62,25.08,102.6A23,23,0,0,0,201,414.84q35.64,9.72,59-20.88,41-53.82,38.88-123.12l-1.08-31.68q-1.62-54.72-45.12-87.6l-3,.24H248.4l-1.2-.6A68.17,68.17,0,0,0,229.44,146.4Zm195.12,34.68a101.86,101.86,0,0,1,32.4,30,107.76,107.76,0,0,1,17.64,41.4,182.08,182.08,0,0,1,3.12,44.88A152.79,152.79,0,0,1,469,340.8,161.52,161.52,0,0,1,449,379.44a15,15,0,0,1-7,5.52,55.68,55.68,0,0,1-27,18.36,61,61,0,0,1-34.68,1.44c2.76-30.6,4.56-62.16,5.64-94.68a1096.18,1096.18,0,0,0-5-143A100.24,100.24,0,0,1,424.56,181.08Zm-45.36-27.6c-1.32-.12-1.92.48-2,1.8-.36,16.44-.6,33-.72,49.56L375.84,334a481.3,481.3,0,0,1-4.68,64.68c-1.56,10.44.72,18.24,6.6,23.4l.12-1.2a13.68,13.68,0,0,0,1.2,2.28l2.52,1.08c23.64,4.92,44-1.44,61.44-19a104,104,0,0,0,22.2-32.88q25.92-60.3,15-124.92-8.46-49.68-47.64-80.52L431,166.2a124.63,124.63,0,0,0-49.56-13.8A3.17,3.17,0,0,0,379.2,153.48Z" transform="translate(-62.12 -134.16)"/></svg>