<svg id="Layer_1" data-name="Layer 1" xmlns="http://www.w3.org/2000/svg" viewBox="0 0 305.28 206.4"><defs><style>.cls-1{fill-rule:evenodd;}</style></defs><path class="cls-1" d="M313.32,304q19.44,14.58,18,40c-1.08,17.16-9.6,28.8-25.8,34.92-17,6.36-30.24,1.8-39.6-13.44-8.28-13.44-9.36-27.6-3.48-42.36C269,306.36,281,299,298.2,301A99.17,99.17,0,0,1,313.32,304ZM298,287.16H281.4Q262.32,301,256.56,325.32a84.39,84.39,0,0,0,1.68,46.32c5.28,16.44,16.92,24.84,35,25,16.92,0,28.8-7.92,35.52-23.64a100,100,0,0,0,8.16-46.2Q335.34,301,313.2,289a52.94,52.94,0,0,0-11.28-4.56Zm-145.2-91.44A32,32,0,0,0,155,214.8a526.27,526.27,0,0,1,35,123.12c3.48,21.48,9.48,41.16,18.24,59l1.08-1.44c4.44-6.48,7.2-14.28,8.28-23.52a723.57,723.57,0,0,1,25.44-124.56,260.74,260.74,0,0,1,10.8-29.88q5.76-13.5.36-23a136.81,136.81,0,0,0-12.72,30.12q-17.46,61.74-30.12,124.44a144.46,144.46,0,0,0-2.64,40.32c-4.2-24.72-8.88-49.56-14.28-74.52a552.31,552.31,0,0,0-40.56-120C153.24,194.76,152.88,195,152.76,195.72ZM454.44,327c-2.76-21.36-4.8-42.72-6.24-64.08a211.84,211.84,0,0,0-13.92-63.24c-1.68,7.56-1.68,16.2.12,25.68q7.56,39.78,11.28,79.92c2,21.36,3.12,42.84,3.24,64.32q.18,18.36,7.56,30.6A357.58,357.58,0,0,0,454.44,327ZM383.88,196.92l-.48-.72c-.36.12-.6.24-.6.36a1152,1152,0,0,0-26.88,124.8,255.31,255.31,0,0,1-6.72,31.32c-4.56,16.32-6.12,32.16-4.56,47.52a2.4,2.4,0,0,0,2.64-1.92,601.86,601.86,0,0,0,16.08-72.84q8.82-57.42,19.8-114.12a200.24,200.24,0,0,0,3,38.4c3.36,19.44,6.24,39,8.76,58.68a111.66,111.66,0,0,0,7.56,29l-.12,1.8c.84,0,1.32-.12,1.56-.48a57.79,57.79,0,0,0,7.56-17.88A1009.52,1009.52,0,0,0,432.12,195.6c-7.32,26-14.16,53-20.76,80.88a352.16,352.16,0,0,0-6.6,36.12q-10.62-59.76-20-118.8h-.48Z" transform="translate(-152.2 -193.8)"/></svg>