<svg id="Layer_1" data-name="Layer 1" xmlns="http://www.w3.org/2000/svg" viewBox="0 0 489.5 327.38"><defs><style>.cls-1{fill-rule:evenodd;}</style></defs><path class="cls-1" d="M59.52,99.24q9,60.3,16.68,121.08Q84.3,284,97.32,347a126.25,126.25,0,0,1,2.76,31.44c-.48,12.12,2,22.44,7.56,30.84l1-4.44,1,.72c5.52-5.52,8.76-12.84,9.6-22.08,2.28-22.92,4.92-46,7.68-69q7.74-63.36,21.12-126a283.81,283.81,0,0,1,8.52-31.08c5.4-16.2,7.56-32,6.36-47.52a65.05,65.05,0,0,0-9.36,21.72Q138.18,194.82,128.16,259,119,317.82,110.28,376.44A132.61,132.61,0,0,0,108.6,363L95.28,286.56Q84.66,223.38,75.84,160a318.93,318.93,0,0,0-15-62.28C59.76,97.56,59.4,98.16,59.52,99.24Zm274.2,50.88q3.42,64.08,2.64,129.12a208.18,208.18,0,0,1-22.68,93q-11,21.78-35.28,23a6.78,6.78,0,0,1-6.84-3.84c-8.4-16.32-12-34.56-10.92-54.6,2.52-42.72,4.44-85.44,6-128.28.36-10.8,1.08-21.6,2.16-32.28a347.78,347.78,0,0,0,.12-64.2c-3.72,4.8-5.76,11-6.12,18.84L257,252.6q-3.06,63.9-.48,127.56a39,39,0,0,0,10.92,26.4c8.4,8.76,17.64,9.36,27.84,1.68,22.92-17.4,36.72-40.56,41.28-69.72a661.26,661.26,0,0,0,7.32-128.28c-.84-21.48-1.32-42.84-1.2-64.08.12-12.12-2.16-22.68-6.72-31.68a15.34,15.34,0,0,0-3.48,8.88c-4.08,3-5.76,7.08-5.16,12.24q5.22.9,1.08-1.44c-.12-2.52,1.2-4.08,3.84-4.8C332.88,136.08,333.36,143,333.72,150.12ZM200.88,118.68l-.12-7.68c-.6,0-.84.12-.84.48a1119.49,1119.49,0,0,0-26.76,114.24q-11.34,62.82-28.32,125a325.62,325.62,0,0,1-10.44,31.08c-4.92,12.24-4.56,22.8.84,31.8a9.45,9.45,0,0,0,4.32-6.12q15.3-62.1,28.32-124.8l.72-3,.72.84c16.68.12,33.24-.24,49.92-1.08l6,43c2.76,21,4.8,42.24,5.88,63.48.6,12.12,3.84,22.32,9.72,30.72a15.4,15.4,0,0,0,2.88-13c-2.52-12.84-4.68-25.8-6.48-38.64L225,276.72a12.87,12.87,0,0,0-1.56-12.6h-.24l-3.6-25.92q-9-63.54-15.84-126.72A26.6,26.6,0,0,0,200.88,118.68Zm-1,16.68a569.19,569.19,0,0,0,6.6,60.72q5.58,34,10.44,68a216.28,216.28,0,0,0-46.2,5.16q11.7-55.62,25.2-110.88A201.33,201.33,0,0,0,199.92,135.36ZM362.64,286.8q-3.6,50.76-9.72,101.4c-1.44,12.6.24,23.16,5,31.44a24.21,24.21,0,0,0,2.64-4.92,200.18,200.18,0,0,0,63.12,7.08,12.2,12.2,0,0,0,2.76-11l-.12-.84-.12-.84a17.21,17.21,0,0,0-1.68-4.08,1.09,1.09,0,0,0-.84-.36,282.72,282.72,0,0,1-51.48-1.8l-8.64.72-1.08.12h-.12q4.5-61.92,4-122.76C364.08,281.76,362.76,283.8,362.64,286.8Zm2-89.28a450.36,450.36,0,0,1-4.32,47.64c-1.68,12.6,0,23.16,5.16,31.68a123.42,123.42,0,0,0,5.76-31.56,1146.06,1146.06,0,0,0,.24-128.4Q366.3,155.94,364.68,197.52Zm8.16-78a224.76,224.76,0,0,0,13.08,68.4c7.32,20.52,13.56,41.16,19,61.92,3,11.64,7.56,21.36,13.68,29.4a2.59,2.59,0,0,0,.72-1.68l.12-6q7-50.4,9.6-102.12a454.21,454.21,0,0,0-.12-47.88A273.56,273.56,0,0,0,418.8,190a500.69,500.69,0,0,1-4.56,55.32L412.8,241q-20.7-61-39.12-121.92C373.08,118.92,372.84,119,372.84,119.52ZM541.2,123.6l-96.36-6.12v.12a1.94,1.94,0,0,0-1.92,1.68l-.48,1.68-.24,1.68-.12.72a12.79,12.79,0,0,0,1.44,7.32,12.64,12.64,0,0,0,5.76,1.92l40.68,4a213.78,213.78,0,0,0-3.6,38.28l-1.08,112.8c-.6,43-2.64,85.44-6.36,127.44.36,4.56,2.28,7.92,6,10a1.61,1.61,0,0,0,.72-.84A900,900,0,0,0,491,322c-.36-43.08,1-86.16,3.84-129A263.92,263.92,0,0,0,493,136.8l53,3.6.72-.6a5.19,5.19,0,0,0,1.56-3.24l.6-3.24.12-1.56v-.84a9.08,9.08,0,0,0-3-7.2Z" transform="translate(-59.5 -97.66)"/></svg>