<svg id="Layer_1" data-name="Layer 1" xmlns="http://www.w3.org/2000/svg" viewBox="0 0 304.77 218.76"><defs><style>.cls-1{fill-rule:evenodd;}</style></defs><path class="cls-1" d="M289,309c17.76-2.88,30.72,4,38.76,20.4s5.4,30.36-7.92,41.4q-21.06,17.46-36.12-1.56c-10-12.36-12.24-26.16-7.08-41.16A55.88,55.88,0,0,1,287,309.48Zm-9-10.32a106.61,106.61,0,0,0-14,47.4c-1,16,4,28.8,14.64,38.64q19.26,17.82,40.92,3.72c13.56-8.76,19.92-21.48,19.2-38.28a74.86,74.86,0,0,0-15-42.6,82.34,82.34,0,0,0-9.72-10.8l-5,1.32a26.39,26.39,0,0,0-10.2-4.68,23.37,23.37,0,0,0-13.44,1.44A27.63,27.63,0,0,0,281.4,298Zm-38.28-94.32q-13.5,62.82-28,125.4c-1.8,7.68-4.08,15.24-6.6,22.68a112,112,0,0,0-5.4,22.56,428.94,428.94,0,0,0-8.64-57.48,967.35,967.35,0,0,0-35.64-122.4c-1.08-.24-1.56.12-1.44,1A280.75,280.75,0,0,0,168,255a607.65,607.65,0,0,1,25.2,124c.84,9.12,3.6,15.84,8.28,20l.12,1.2.6-.6v-.12a33.94,33.94,0,0,0,7.68-16.32q12.42-62.82,28.32-124.8A270.84,270.84,0,0,0,247,195.6,13.88,13.88,0,0,0,241.68,204.36ZM414.24,193a445.81,445.81,0,0,0-5.76,84.36c1.08,43.08.48,85.92-1.8,128.28q.54,2.88,3.24,2.16a442.45,442.45,0,0,0,6.6-86.88l-.12-11.28,36.72-1.8.36,39a290,290,0,0,1-1.8,32.4c-1.32,11.88,0,22.68,4,32.28a2.23,2.23,0,0,0,1.08-1.32,656.67,656.67,0,0,0,3.84-88.44c-1.08-43.32-3-86.16-5.76-128.28-3.48,7.08-4.92,15.12-4.44,24.36q1.8,37.62,2.52,75.6l-3.72-.12a75.75,75.75,0,0,0-33,2.52q-.9-52.2-1.44-103.08C414.36,192.72,414.24,192.84,414.24,193Zm-38.64,4.68L372,199a65.74,65.74,0,0,0-15.72,39,86.89,86.89,0,0,0,8.16,45,329.62,329.62,0,0,1,16.08,41.52A67.38,67.38,0,0,1,379.44,369q-7.74,20.7-31,16.56c-3,5.16-2.76,9.84.84,14.28,3,4,7.2,5.4,12.36,4.32a23.31,23.31,0,0,0,12-6,52.25,52.25,0,0,0,17.64-37.32q2.16-44.82-19.56-85.92-12.78-24.12-5-49.68c3.48-11.4,11.64-16.56,24.24-15.48l4.8,1.68a10.63,10.63,0,0,0-1-10,9.91,9.91,0,0,0-7.68-4.92A23.44,23.44,0,0,0,375.6,197.64Z" transform="translate(-155.98 -192.72)"/></svg>