<svg id="Layer_1" data-name="Layer 1" xmlns="http://www.w3.org/2000/svg" viewBox="0 0 302.26 205.39"><defs><style>.cls-1{fill-rule:evenodd;}</style></defs><path class="cls-1" d="M325.08,366.36c-6.84,11.64-17,15-30.6,10C276.12,369.48,268.8,355.8,272.4,335c2.88-17.28,12.36-27.84,28.44-31.8,15.72,3.12,25.44,13,29.4,29.4A44.89,44.89,0,0,1,325.08,366.36ZM294.36,289.8c-14.52,7.8-23.64,19.92-27.48,36.36a72.05,72.05,0,0,0,3,43c6.36,16.32,18,24.12,34.92,23.52,16.92-.84,27.24-10.2,30.84-27.84A86.85,86.85,0,0,0,334,322.2a91,91,0,0,0-12-25.92l-4.92.48a32.07,32.07,0,0,0-11-5.64A38.16,38.16,0,0,0,294.36,289.8ZM153.48,200.16a279.37,279.37,0,0,0,7.44,45,1118.06,1118.06,0,0,1,23.52,124.92c1.56,12.12,4.92,22.2,10.08,30.36l1.44-2.28,1.8,3.36a14.7,14.7,0,0,0,3.36-7.32q12.06-62.82,25.32-125.28a272.36,272.36,0,0,1,14.16-46.08c3.6-9,4.2-16.56,1.8-22.92a57,57,0,0,0-11.88,23,1137.92,1137.92,0,0,0-26.76,125.16A104.45,104.45,0,0,1,197.4,371a48.55,48.55,0,0,0-2.4,7.44l-9-56.16a725.5,725.5,0,0,0-30.72-124Q153.3,198.18,153.48,200.16Zm232.44-3.72a858.6,858.6,0,0,0-6.6,104.4,364.92,364.92,0,0,1-5.52,63.84c-2,12.24-1,22.92,3.36,31.92l1.08-4.68.6,2.28.48.84c24.12-1.32,48.84-1.68,73.92-1.08a11.74,11.74,0,0,0,2.4-9,15.7,15.7,0,0,0-1.8-5.52l-1-1-2.4-.36a175.3,175.3,0,0,0-43.56-2c-8.76,1.56-17.52,3.36-26.4,5.4l-.24.12a376.3,376.3,0,0,0,6.12-57.12c1.44-43.32,1.56-86.16.24-128.28C386.28,196.08,386,196.08,385.92,196.44Z" transform="translate(-153.46 -196.13)"/></svg>