<svg id="Layer_1" data-name="Layer 1" xmlns="http://www.w3.org/2000/svg" viewBox="0 0 304.51 208.85"><defs><style>.cls-1{fill-rule:evenodd;}</style></defs><path class="cls-1" d="M270.36,300.36c-.12,18.84-1,37.8-2.28,56.64-1.32,19.8,6.6,33,23.76,39.84a27.55,27.55,0,0,0,10.68,1.92c19.08-.36,32.28-9.36,39.36-27.12a138.49,138.49,0,0,0,9.6-48c.24-10.56-2.16-18.84-7.32-25a145.69,145.69,0,0,0-2.16,34.2,56,56,0,0,1-4.68,25.92q-16,36-53.52,19.68c-8-12.36-11.4-26.64-9.84-42.84a214.93,214.93,0,0,0,.12-42.12C271.56,294.84,270.36,297.12,270.36,300.36ZM236.4,210a828,828,0,0,0-30.24,125.52c-1.68,10.44-3.84,20.88-6.48,31.2a48.68,48.68,0,0,0-1.8,16.2Q187.8,320.1,175.8,257.76A209.08,209.08,0,0,0,154,196.2c-2.16,1-3.12,2.88-2.88,5.64a31.73,31.73,0,0,0,1.92,9.48,620.29,620.29,0,0,1,28.2,125.52,271.25,271.25,0,0,0,14.16,60.6,18.11,18.11,0,0,0,3-10.92,37.16,37.16,0,0,0,3.48,10.68c7.2-35.88,14.52-72.12,21.84-108.48a361.72,361.72,0,0,1,18.6-62c4.32-10.8,5.64-21.36,4-31.56A29.91,29.91,0,0,0,236.4,210Zm182.4,84.24a17,17,0,0,0,10.08,1c16.44,17.64,22.56,39.24,18.6,64.8a15.68,15.68,0,0,1-4.32,8.52c-14.52,14.28-32,19.8-52.68,16.8q2.34-42.12,4-84.36a24.9,24.9,0,0,0,12.36-1.44A73.74,73.74,0,0,0,418.8,294.24Zm-25.56-88.32a2.45,2.45,0,0,1-.6-1.08,55.78,55.78,0,0,1,38.16,23c10.2,13.8,9.48,27.24-2,40.08-8.88,10-20.16,15.84-33.72,17.88a623.28,623.28,0,0,0-1-78.24l1.32-.72-.24-.12-1.08-.36Zm-2.16-10c-.48-.12-.72,0-.72.24l-2,90.6-2.76.36a11.52,11.52,0,0,0-.72,4v3.24a7.3,7.3,0,0,0,1,3.24l2,1.2-.36,13.2a445.81,445.81,0,0,1-6.6,64.68c-1.8,10.32-.24,18.24,4.92,23.76l.84.84a84.13,84.13,0,0,0,37.08-1.56c12.36-3.24,20.64-10.56,25.08-21.84a97.06,97.06,0,0,0,6.72-39.12c-.6-22.68-9-40.32-25-53.16,11.64-11.28,16.08-27,13.44-47.16q-5.58-42.84-51.12-44.64A4,4,0,0,0,391.08,196Z" transform="translate(-151.04 -193.8)"/></svg>