<svg id="Layer_1" data-name="Layer 1" xmlns="http://www.w3.org/2000/svg" viewBox="0 0 311.76 209.64"><defs><style>.cls-1{fill-rule:evenodd;}</style></defs><path class="cls-1" d="M312.24,297.12c-1.68,16.44-2.76,33-3.12,49.68-.36,12.84-5.52,23.28-15.72,31.08q-25.74,20-36.24-13.32a100.84,100.84,0,0,1-3.72-43.68,106.14,106.14,0,0,0,.12-25.44A321.83,321.83,0,0,0,244.8,337,81.64,81.64,0,0,0,251.28,383q11.7,25.38,37.8,14.64c14.76-6.12,23.88-17.52,27.12-34a167.65,167.65,0,0,0,2.88-43.8A54.19,54.19,0,0,0,312.24,297.12ZM236,199.8a734.64,734.64,0,0,0-30.36,126.12,360.39,360.39,0,0,1-10.32,46.44,59.6,59.6,0,0,0-2,10.68c-1.8-22.08-4.68-44-8.4-65.88A670.45,670.45,0,0,0,151.8,194.88c-1.56.24-2.28,1.32-2.28,3.24a51.27,51.27,0,0,0,2.16,16,1060.66,1060.66,0,0,1,27.24,125.4,545.67,545.67,0,0,0,12.72,61.2c1.92-1.08,2.76-2.76,2.64-5.28v-1a33.87,33.87,0,0,0,3.24,8.4c7.56-32.64,14.16-65.88,19.56-99.72a354,354,0,0,1,16-62,130.37,130.37,0,0,0,7.8-46.8C238.56,195.12,237,196.92,236,199.8Zm220.68-5.16a470.34,470.34,0,0,0-4.08,65.64v22.2c-8.4,2.28-17,4.32-25.8,6.12-6.12,1.32-10.44,3.24-13.2,6-.84-20.52-2.64-40.8-5.4-61.08-3.48,7.92-4.8,16.92-4.08,26.88a769.84,769.84,0,0,1-1.8,128.88c-.84,7.56,1.2,12.36,5.88,14.64a284.53,284.53,0,0,0,5.16-42.12c.84-17.76,1.08-35.4.72-53q19.08-5.94,38.52-10.44-.18,45.54-1.44,91.08c-.12,7.44,2.16,12.24,6.84,14.52a725.51,725.51,0,0,0,3.12-81.12l-.72-30.24a11.8,11.8,0,0,0-.12-5q-1.26-46.8-3-93Zm-30.36,18.6.24-.84.12-.84L427,210a12.91,12.91,0,0,0-1.32-9l-91.8-1.32-.84.72-.72,1.44-.48,2-.12,2v.84a12.88,12.88,0,0,0,1.08,4.08l44,4q-4.32,45.36-6.24,91-1.44,34.2-4.44,68.4a61.76,61.76,0,0,0,4,28A62.54,62.54,0,0,0,374.4,386c1.56-11.52,2.76-23,3.48-34.56a1298.09,1298.09,0,0,0,1-136.68l46,.6,1.08-1.32Z" transform="translate(-149.51 -194.28)"/></svg>