<svg id="Layer_1" data-name="Layer 1" xmlns="http://www.w3.org/2000/svg" viewBox="0 0 304.5 208.32"><defs><style>.cls-1{fill-rule:evenodd;}</style></defs><path class="cls-1" d="M273.48,292.56a259.42,259.42,0,0,0-5.28,44.52,87.92,87.92,0,0,0,11.28,47c4,7.08,10,10,17.88,8.76,13.32-2,22.8-9.84,28.2-23.4A130.09,130.09,0,0,0,335,314.64c-.36-8.76-2.76-15-7.44-18.6a162.68,162.68,0,0,1-7.2,61.8c-5.16,16.44-16.08,23.4-32.76,21a48.44,48.44,0,0,0-6.48-5.76,92.64,92.64,0,0,1-6.12-41.4,254.54,254.54,0,0,0,.12-40.56C274.32,291,273.72,291.48,273.48,292.56ZM150.72,198.84a244.23,244.23,0,0,0,7.8,45.84A816,816,0,0,1,181,369.48q1.8,17.1,9,29.88l1.32-2.16v1.56c5.28-4.92,8.52-12.48,9.84-22.44q4.68-36.72,12.48-73.08c3.48-15.72,7.56-31.2,12.24-46.68a209.46,209.46,0,0,0,9.24-63.12Q218.16,247.62,205,304.68L197.76,336a254.58,254.58,0,0,0-6.36,47.88c-3.24-20.76-6.12-41.52-8.64-62.52a503.15,503.15,0,0,0-31-123.24Q150.72,197.94,150.72,198.84Zm226.44,10.68q-4.5,95.94-2.76,191.52l.24.24a451.64,451.64,0,0,0,7.92-88.2l.12-15.72,38.88-2.76c3-4.44,3-8.88,0-13.44l-38.88,4.2-3.84-75.84a361.28,361.28,0,0,0,74.64-4.44c2.52-4.2,2.28-8.16-.6-12.12L378,200.52l-1.92,2.4Z" transform="translate(-150.72 -192.96)"/></svg>