<svg id="Layer_1" data-name="Layer 1" xmlns="http://www.w3.org/2000/svg" viewBox="0 0 298.46 204.29"><defs><style>.cls-1{fill-rule:evenodd;}</style></defs><path class="cls-1" d="M263.16,288.24q-16.2,51.84,9,95.28c3.84,6.72,9.84,10.68,17.88,12q30.42-14,36.72-47.4,5.58-29.34-7.56-55.08c-1.44,15.48-2.52,31-3.12,46.68S307.92,367,293.4,373.8c-13,6.12-21.84,1-26.64-15.24a103,103,0,0,1-3.12-42.48A89.8,89.8,0,0,0,263.16,288.24Zm-14.4-91.08A295.84,295.84,0,0,0,234.6,242q-14.4,62.1-28.2,124.44l-.12.24a317.66,317.66,0,0,0-11.16-51.24q-18.72-61.38-42-120.12c-.6-.12-.84,0-.84.24a139.12,139.12,0,0,0,10.44,51.24A612.46,612.46,0,0,1,197.4,368.52c1.92,10.92,5.16,20.64,9.84,28.92a6.32,6.32,0,0,0,1.44-1.68l.72,1.68c2.4-9,4.44-18.48,6.24-28.32q11-62.82,27.84-124.92A156.61,156.61,0,0,0,249.12,197Zm193.56,124a62.52,62.52,0,0,1-24.6,37.32,106.76,106.76,0,0,1-39.36,18.36,192.91,192.91,0,0,1-19.92,3.6l-3-1.56q5-73.62,4.08-150.24a100.76,100.76,0,0,0-1.32-15.84,117.6,117.6,0,0,1,57.36,27.84,105.86,105.86,0,0,1,23,35A73,73,0,0,1,442.32,321.12ZM356,203.28l-2.16-6.6a214.1,214.1,0,0,0-2.28,41.76,869.89,869.89,0,0,1-4.92,128.88c-1.32,12-.36,22.8,2.88,32.28a2.33,2.33,0,0,0,1.2-1.44l.6-3c10.68,4,21.84,4,33.48-.24a111.92,111.92,0,0,0,26.64-13.68q47.7-32.94,37.44-91.92-12.06-68.58-80.4-87.72A19.08,19.08,0,0,0,356,203.28Z" transform="translate(-152.28 -195.31)"/></svg>