<svg id="Layer_1" data-name="Layer 1" xmlns="http://www.w3.org/2000/svg" viewBox="0 0 238.48 202.69"><defs><style>.cls-1{fill-rule:evenodd;}</style></defs><path class="cls-1" d="M175.8,196a400.09,400.09,0,0,0,8,76.32q12.78,63,26.64,124.92c1.8.36,2.88-.24,3-1.8l.24.48c2.16-5.4,4.2-11,6.12-16.8l39.72-121.2c3.36-10.2,7.08-20.16,11-30.12,4.44-10.92,5.64-21.36,3.72-31.56l-.6.12q-15.84,38.34-28.32,78.48c-9.48,30.72-20.28,60.84-32.16,90.36a36.55,36.55,0,0,0-2.28,7.32q-3.6-26.1-9-52.2-13.14-62.64-25-124.92C176.16,195.24,175.8,195.36,175.8,196ZM408.48,296.52l-1.56-3a95.1,95.1,0,0,0-2.16,42.72q3.42,20.52-11.52,34.92-16.92,16.74-36.72,4.32c-9.24-5.64-12.6-14.16-10.32-25.56a131.26,131.26,0,0,0-.48-53.4c-2.64,17.64-4.56,35.52-5.88,53.64-1,15.24,4,28.2,14.88,38.64q22,21.06,41.88-6c13.32-18.12,19.08-38.76,17.4-62.16A52.31,52.31,0,0,0,408.48,296.52Z" transform="translate(-175.8 -195.32)"/></svg>