<svg id="Layer_1" data-name="Layer 1" xmlns="http://www.w3.org/2000/svg" viewBox="0 0 375.94 306.6"><defs><style>.cls-1{fill-rule:evenodd;}</style></defs><path class="cls-1" d="M219.24,125.4q-19.62,61-34.08,123.24Q170.94,310,152.28,369.84l-1-3.6Q136,304.32,122.76,241.68q-13.32-62.82-28.08-124.2c-3.48,2.76-4.56,6.84-3.36,12.36l26.4,124.8q13.14,62.64,25.68,125.16a102.26,102.26,0,0,0,10.8,30.6,6.68,6.68,0,0,0,2.4-5.64l-.48-9.6c2.16-6.36,4.08-12.72,5.64-19.32L182,292.32q15.12-62.46,34-123.24a154.23,154.23,0,0,0,7.2-46.8A4,4,0,0,0,219.24,125.4Zm31,1c-4.2,36.36-7.44,73.2-9.72,110.28A1117.92,1117.92,0,0,0,240,365a73,73,0,0,0,11.76,36.36q19.26,29.7,51.6,16.44a30.16,30.16,0,0,0,15.24-13.32,172.28,172.28,0,0,0,18.72-49.2,302.9,302.9,0,0,0,6.36-53.88l3.6-128.28A168.07,168.07,0,0,0,342,125.28a8.88,8.88,0,0,0-4.44,8.16q.9,58.14,2.28,116A388.5,388.5,0,0,1,322.2,376.32a33.75,33.75,0,0,1-7,12.48q-24.12,27.54-53.52,5.64a21.36,21.36,0,0,1-8.88-14.76,593,593,0,0,1-4.8-128q4.5-64.26,4.68-127.44A2.07,2.07,0,0,0,250.2,126.36ZM376.08,191A655.71,655.71,0,0,0,360.6,311.52a195.37,195.37,0,0,0,8.64,65.64,78.28,78.28,0,0,0,17.16,30l7,7.56a52.46,52.46,0,0,0,32-4c15.36-7.08,26-18.36,32.16-34a364.35,364.35,0,0,0-2.16,39.48,8.91,8.91,0,0,0,4,7.8c4.68-9,7.08-20,7.32-33.12a392,392,0,0,0-1.68-47.4,64.76,64.76,0,0,0-3.36-15.6,138.22,138.22,0,0,0-25.2-2.64,30.63,30.63,0,0,0-16,4l.36,10.8a106.89,106.89,0,0,1,33.72,3l4.32,1.08-.36,5.76-2.28-3.84a128.68,128.68,0,0,0-11.4,22.32c-5.88,14.4-16.44,23.28-31.68,26.52a54.46,54.46,0,0,1-19.2,1.2,32,32,0,0,1-12.84-19.92,412.2,412.2,0,0,1,.24-181.2c3.6-16,10.8-29.4,21.48-40.32,13.08-8.76,27.24-10.8,42.24-6a36.37,36.37,0,0,1,18.12,12.84,25.29,25.29,0,0,0-9.6-22q-24.3-19.62-49.32,2.88Q382.5,161.88,376.08,191Z" transform="translate(-90.85 -117.48)"/></svg>