<svg id="Layer_1" data-name="Layer 1" xmlns="http://www.w3.org/2000/svg" viewBox="0 0 298.98 209.4"><defs><style>.cls-1{fill-rule:evenodd;}</style></defs><path class="cls-1" d="M270.36,293.88c-1.92,10.68-3.36,21.36-4.32,32.28-2,24.84,2.64,47.28,14.28,67.56a39.81,39.81,0,0,0,50.52-20.4q16-35.64,8.76-75.72c-.84-1.68-2-1.92-3.6-.84a15.33,15.33,0,0,0-3,11.52,137.34,137.34,0,0,1-.24,32.16c-3.48,27.24-19.68,40.2-48.36,39.12a29.11,29.11,0,0,1-10.08-22.68c.12-21.72-.6-43.2-2.16-64.2C271.08,292.56,270.48,292.92,270.36,293.88Zm-114.84-99a154.56,154.56,0,0,0,6.36,49.68,738.15,738.15,0,0,1,25.44,125q2,17.46,9.36,29.52l.48-.48a17,17,0,0,0,2.52,4.2q10.62-15.66,13-36.72A630.8,630.8,0,0,1,240,241.56c5.16-15.84,6.84-31.44,4.8-46.68-6.84,20.76-13,42.24-18.6,64.32q-15.3,61.2-25.68,123.36a4.88,4.88,0,0,0-3.12,1.56,523.24,523.24,0,0,0-9-66.48,1065.39,1065.39,0,0,0-32-123.12A1.85,1.85,0,0,0,155.52,194.88Zm210,1.56a475,475,0,0,0,6.24,68,675.83,675.83,0,0,1,8.16,74.64,254.39,254.39,0,0,0,10.8,63l.84-.48,1.32,2c5.4-16,10.56-32.4,15.6-49.32Q426.84,293,448.8,232.92A85.46,85.46,0,0,0,454,194.28a95.33,95.33,0,0,0-12.48,26q-19.08,61.38-38.64,122.4c-3.24,10.2-6.84,20.16-11,30l-.48,1.2c-1.08-17.16-2.52-34.56-4.08-52A881.3,881.3,0,0,0,366.36,196.2C365.76,196.08,365.52,196.2,365.52,196.44Z" transform="translate(-155.42 -194.28)"/></svg>