<svg id="Layer_1" data-name="Layer 1" xmlns="http://www.w3.org/2000/svg" viewBox="0 0 239.94 212.4"><defs><style>.cls-1{fill-rule:evenodd;}</style></defs><path class="cls-1" d="M169.92,198.24a544,544,0,0,0,23.52,90.36c3.6,10.32,6.84,20.64,9.84,31.08a381,381,0,0,1,10.2,46.92c1.8,11.52,5,21.48,10,29.76l.72-1.2a31.86,31.86,0,0,0,2,5.28A137.72,137.72,0,0,0,247.8,357Q266,295.44,283.44,234a125.69,125.69,0,0,0,4.92-38.64,40.81,40.81,0,0,0-11.64,20.76q-14.58,62.46-32.52,123A103.48,103.48,0,0,1,230,369a39.7,39.7,0,0,0-3.6,6c-4.2-19.8-9.24-39.6-14.88-59.4q-17.46-61.2-38.88-121.32C170.4,194.4,169.56,195.72,169.92,198.24ZM375.48,340.8l17.16,36.36a63.81,63.81,0,0,1-14.28,7.92,73.83,73.83,0,0,1-15.84,4.32,21,21,0,0,1-6.6-10.32c-4.2-14.28-.12-25.8,12.24-34.32A39,39,0,0,1,375.48,340.8ZM361.8,312.72A78.89,78.89,0,0,1,370.56,329c-9,4.44-15.24,11.64-18.84,21.36q-11,30.06,8.64,55.2l7.56,1.08c5.76-2.76,11.64-5.16,17.64-7.44a24.78,24.78,0,0,0,11.64-8.4l1.8-2.52,9.84,15.36c2.16-11,.6-22.56-4.56-34.56A455.46,455.46,0,0,0,358.2,287.4C353.76,294.72,355,303.24,361.8,312.72Z" transform="translate(-169.84 -194.28)"/></svg>