<svg id="Layer_1" data-name="Layer 1" xmlns="http://www.w3.org/2000/svg" viewBox="0 0 299.52 215.4"><defs><style>.cls-1{fill-rule:evenodd;}</style></defs><path class="cls-1" d="M294.6,339.72c6.12,12,12.48,23.76,19.2,35.28-11.88,9-25.32,9.72-40.56,2.16a10.91,10.91,0,0,1-2.52-6.48C269.64,351.6,277.68,341.28,294.6,339.72Zm-14.28-26.16A92.59,92.59,0,0,1,287.76,326a28.62,28.62,0,0,0-19.2,17.52c-6,14.76-5.28,28.32,2,40.92,6,10.2,15.24,14.76,27.6,13.68a35.85,35.85,0,0,0,23.4-10.08l12.84,20.52q8.1-14-6.84-28.08c2.28-6.36,1.2-11.64-3.48-16.08l-3,3.6-42.48-83-2-1C269.28,290,270.48,299.88,280.32,313.56ZM247.68,213.12a1021.87,1021.87,0,0,0-29.28,125.4,230,230,0,0,1-7.56,31.08,51.3,51.3,0,0,0-2.64,13.32q-7-32.58-15-65.52A857,857,0,0,0,154.2,196c-.84-.24-1.32,0-1.32.72a160.84,160.84,0,0,0,9,49.2,912.56,912.56,0,0,1,33.24,122.4c2.28,11.64,6.72,21.6,13.2,29.76l1.32-1.44a23.49,23.49,0,0,0,1.44,4.08,204.36,204.36,0,0,0,14.4-52.2,767.09,767.09,0,0,1,29-123.84c3.48-10.92,4.68-21.36,3.36-31.44A61.27,61.27,0,0,0,247.68,213.12Zm202.8-16.92h-.12a233.38,233.38,0,0,0-21.72,37.32q-19.44,27-40.08,53a114.72,114.72,0,0,0-22.92,47.64l.24-11.16c.84-43.32.48-86-.84-128.16a703,703,0,0,0-6.24,79.56c-.48,21.6-1.32,43.2-2.4,64.8a307.31,307.31,0,0,0,3.12,64.2c.84-.24,1.32-.6,1.32-1,2.28-19.8,3.72-39.84,4.56-60.12a3.44,3.44,0,0,0,2.52,1q14.94-26.82,31.8-52.56,22.14,54.9,44.28,110.52c1.08,1.92,2.52,2.4,4.32,1.56a5.48,5.48,0,0,0,1.08-5.4A497.25,497.25,0,0,0,403,285.72q11.16-16.56,23-32.76a156.59,156.59,0,0,0,26.4-54.6l-.48-.6Z" transform="translate(-152.88 -193.2)"/></svg>