<svg id="Layer_1" data-name="Layer 1" xmlns="http://www.w3.org/2000/svg" viewBox="0 0 283.89 206.19"><defs><style>.cls-1{fill-rule:evenodd;}</style></defs><path class="cls-1" d="M294.84,379.08c-.36-26.64-.36-53.16-.24-79.56a254.87,254.87,0,0,0-5,86.76q.9,9.18,9.72,6.84c15.6-4.2,23-13.8,22.44-28.92C314.52,373,305.64,378,295,379.56Zm.36-112L293,271.2c-1.32,5.28-.6,9.48,2.4,12.72l.84-.36c5-5.16,5.88-10.92,2.64-17.52A3.09,3.09,0,0,0,295.2,267.12Zm-59.88-55.2q-16.38,61.92-31.2,124.44c-2.52,10.56-5.28,20.88-8.52,31A316.51,316.51,0,0,0,188.76,318a1240.14,1240.14,0,0,0-33.48-122.64c-.84-.12-1.44.12-1.56,1-2.4,15.48-.48,31.08,5.64,46.68a388.71,388.71,0,0,1,24.12,93,558.76,558.76,0,0,0,11.4,61.2l.84-.84.72,1.68A372.93,372.93,0,0,0,209,352q13-62.64,30.72-123.84a97.11,97.11,0,0,0,4-31.44A32.08,32.08,0,0,0,235.32,211.92ZM422.76,267.6c-7.32,13.2-18.72,22-34.44,26.28a41.77,41.77,0,0,1-12.84,1.32l-3.6-82.8a69,69,0,0,1,48.6,11.4C430,238.56,430.68,253.2,422.76,267.6Zm-52.08-65.76-.24-2.4c-2.52,2.28-3.6,5.52-3.36,9.84a694.06,694.06,0,0,1,.72,86.52,19.93,19.93,0,0,0-1.08,7.56,12.1,12.1,0,0,0,.6,3c-.72,10.32-1.68,20.64-2.76,30.84a363,363,0,0,0-1.44,64.32,1.75,1.75,0,0,0,1.08-1,492.52,492.52,0,0,0,10.08-72.84l.72-16a29.72,29.72,0,0,0,15.48-1.2,37.41,37.41,0,0,0,13.2-7.56q38.34-19.44,32-60.48c-4.8-30.6-23.4-44.76-55.8-42.24a15.69,15.69,0,0,0-8,1Z" transform="translate(-152.72 -195.33)"/></svg>