<svg id="Layer_1" data-name="Layer 1" xmlns="http://www.w3.org/2000/svg" viewBox="0 0 535.92 482.88"><defs><style>.cls-1{fill-rule:evenodd;}</style></defs><path class="cls-1" d="M223.2,68.4l-4-1.8a7.89,7.89,0,0,0,4.2-.12l2.76-2A16.41,16.41,0,0,1,229,73.68c0,3.24-4.32,35.4-12.84,96.24Q201.72,272,198.6,299.64l-6.36,56.52c-2.52,23.16-4.8,42-6.6,56.4-1.56,12.36-3.12,31.2-4.68,56.64-2.16,22.68-6.36,41.16-12.6,55.56q-9-44.82-25.8-114.72c-12.6-51.72-21.72-90-27.6-115q-5-22.14-15.48-57.24L82.8,180.6C79.08,167,71.16,144,58.92,111.72,48,82.8,42.48,67.68,42.48,66.24c0-2.28.48-4,1.32-4.8q39.6,90.9,73.08,218.88C124.2,308.64,133.32,345.6,144,391.2c13.56,58.2,22.2,94.8,25.92,110h.24q4.32-34.74,12-107.52,7.74-72.18,12.12-108.36c1.32-11.4,6.84-51,16.56-118.56q12.78-88.56,12.72-96.48Zm31.2-1.56v42.24l.24,14.4q0,13-6.48,100.68v89.28L243.72,417c-1.68,39.48-2.88,74.16-3.72,104.28l-.72.48-1.2.84c-1-1.08-1.68-4.44-2-10.2-.24-3.24-.36-6.48-.36-9.84,0-14.52,1.2-50.28,3.72-107l3.84-86.88V220.08l4.32-79.68c1.8-30.72,3.36-56.64,4.92-77.64A7.64,7.64,0,0,1,254.4,66.84Zm241.44,10.8q-8.64,44.1-20,110.64L456.72,299.64Q433.14,433.56,409,522.12c-6.36-32.16-12.48-69-18.12-110.52q-4.14-30.42-13.92-111.24-8.46-70.56-14.64-111.48Q353.1,127.5,342.12,77.64l-22.32,112q-12.06,65.16-16.56,113.28c-1.2,12.6-2.52,31.2-4.08,55.8-1.56,25.68-2.76,44.52-3.84,56.64-4,44.4-10.68,81.72-20.4,112-2.52-3.24-3.72-5-3.72-5.4,2-5.52,4.08-12,6.12-19.32,4.32-14.88,6.72-27.6,7.2-38,.24-4.44,1.44-13.92,3.72-28.44,1.92-12.36,2.76-22.08,2.52-29.28l3.84-57.48c1.56-24.36,3-43.68,4.2-57.72,3-31.8,8.64-70.08,17.16-114.84l22.92-116.4.36-.36c.24-.36,1-.48,2-.48,5,0,9.84,13.68,14.52,41.16q2,11,5.4,36c2.28,15.36,4,26.16,5,32.28q3.6,20,6.12,54c2,28,3.6,46.2,4.68,54.84,3.36,26.52,8.4,62.88,15.24,108.84q12.06,81,15.84,109.44h.6c9-33.36,17.64-70.44,25.68-111.36q8.46-42.3,19.92-111.48Q468.9,187.2,473.4,162q11.34-62.64,22.68-110.64c3.24,6.6,5.52,15.84,6.84,28,.6,6.84,1.32,16.68,2.16,29.76a247.75,247.75,0,0,1,3.72,29.4L511.32,169c2.88,31.08,4.8,50.88,5.64,59.64,2.4,22.56,5,42.48,7.8,59.64l9.6,60q5.58,35.1,10.8,59.4,3.24,15.66,19,68.16c9.48,32,14.28,49.08,14.28,51.12a15.18,15.18,0,0,1-.36,3.36l-1,3.24v.36l-1.92.36c-3.48,0-9.12-14.4-16.92-43.08q-9.54-34.92-16.92-71.4c-2.76-13.8-6.12-32.52-9.84-56.28l-9.36-57.36q-7.74-44.64-14.64-113.52L496.08,79Z" transform="translate(-42.48 -51.36)"/></svg>