<svg id="Layer_1" data-name="Layer 1" xmlns="http://www.w3.org/2000/svg" viewBox="0 0 303.32 212.64"><defs><style>.cls-1{fill-rule:evenodd;}</style></defs><path class="cls-1" d="M292.56,366.72a289,289,0,0,0,2.4-64.2,309.81,309.81,0,0,0-10.2,53.4c-1.92,18,.72,34.32,7.92,48.84q21.42-5.94,22-28.08c-6.72,3.6-13.8,7.56-21.12,11.88A55.5,55.5,0,0,1,292.56,366.72Zm6.48-104q-2,0-3.6,2.52a13,13,0,0,0-1.44,6.24,12.15,12.15,0,0,0,1.44,6.12q1.62,2.52,3.6,2.52c1.32,0,2.52-.84,3.48-2.52a12.15,12.15,0,0,0,1.44-6.12,13,13,0,0,0-1.44-6.24C301.56,263.52,300.36,262.68,299,262.68ZM153.24,193.2A151.38,151.38,0,0,0,163.8,247a497,497,0,0,1,30.12,122.28c1.32,11,4.2,20.76,8.76,29.16l.24,3.12a152.88,152.88,0,0,0,14.64-35.88q17.1-61.92,31.68-123.84c1.32-5.4,3-10.68,4.8-15.84,4.32-11.4,5.16-21.72,2.4-31.08a71.38,71.38,0,0,0-8.64,20.52q-15.66,61.38-30.24,123.48a74,74,0,0,1-5.76,15.6,87.56,87.56,0,0,0-9.12,29.4,443,443,0,0,0-11-70.08A978.83,978.83,0,0,0,154,193C153.48,192.84,153.24,192.84,153.24,193.2Zm301.68.36-1-1.44a798,798,0,0,1-104.4,7.8l-.24,9L397.8,212q.9,71.1-4.68,141.84l-2,20.76a46.34,46.34,0,0,0,4.8,26.88,324.47,324.47,0,0,0,6.84-74.64c-.24-12.12-.12-24.36.48-36.48a535,535,0,0,0-1.8-78.48l51.84-5.16,2.16-2.4A11.15,11.15,0,0,0,454.92,193.56Z" transform="translate(-153.24 -192.12)"/></svg>