<svg id="Layer_1" data-name="Layer 1" xmlns="http://www.w3.org/2000/svg" viewBox="0 0 296.45 215.14"><defs><style>.cls-1{fill-rule:evenodd;}</style></defs><path class="cls-1" d="M295,367.68c1.32-22.2,1.92-43.8,1.8-64.92a116.16,116.16,0,0,0-7.92,31.44c-2.76,24.6-.36,47.88,7.2,70.08a18.6,18.6,0,0,0,13,2.16c13.2-8.52,19.2-19.56,17.88-33.36A176.05,176.05,0,0,1,309,391.8a12.45,12.45,0,0,1-11.16-1.32A60.58,60.58,0,0,1,295,367.68Zm4.56-84.12c5.76-6,5.88-12,.24-18.12q-11,8.46-1.44,17.28ZM153.48,197a171.33,171.33,0,0,0,12.12,50.4A557.84,557.84,0,0,1,199,369a82.21,82.21,0,0,0,8.4,26.4l.24,5.28c4.2-2,7.08-6.24,8.88-12.36q13.86-48.6,24.36-98.52c4.44-21,9.48-41.76,15.36-62.28A76.35,76.35,0,0,0,259,196.2a42.41,42.41,0,0,0-8.76,18.24Q235.62,276.18,221.52,338a74.36,74.36,0,0,1-5.16,15.6,93.81,93.81,0,0,0-7.8,25A439.43,439.43,0,0,0,196.44,317,862.55,862.55,0,0,0,154,197Zm210,1.08c-1.32,40.2-2.4,80.76-3.48,121.68a468,468,0,0,1-3.72,48.6c-1.56,12.12-.36,22.68,3.6,31.8a3.29,3.29,0,0,0,1.32-2.52c2.16-19.8,3.72-39.6,4.8-59.52a126.68,126.68,0,0,0,8.64-13.32c8.28-14.52,16.8-28.92,25.56-43.32l1.32,4.32q22,59.94,46,117a9.84,9.84,0,0,0,2-9.36c-3.48-12.6-7.2-25.32-11.28-38.16a585.23,585.23,0,0,0-33.12-82c11.64-19.32,23.52-38.4,35.64-57.48,5.76-8.88,7.08-16.92,4.08-24.24a75.76,75.76,0,0,0-7.08,8.64l-.36,1.56-.12.84q-28.08,49.14-60.84,95.4A71.6,71.6,0,0,0,367,316a1011.48,1011.48,0,0,0-3-117.84Z" transform="translate(-153.48 -191.64)"/></svg>