<svg id="Layer_1" data-name="Layer 1" xmlns="http://www.w3.org/2000/svg" viewBox="0 0 304.68 209.04"><defs><style>.cls-1{fill-rule:evenodd;}</style></defs><path class="cls-1" d="M252.36,241.68a156.75,156.75,0,0,0,5.52-46.8q-15.66,47.52-27.12,98.4-7,31.14-16.2,61.2a111.91,111.91,0,0,0-5,32.64,377.1,377.1,0,0,0-13.08-71.4A950,950,0,0,0,154.2,196c-4.2,5.28-4.8,11.76-1.56,19.32A841.67,841.67,0,0,1,193.2,338.16,273.74,273.74,0,0,1,199.08,369c1.56,11.64,5.16,21.12,10.68,28.68l.24-.48.48,4.08A2.34,2.34,0,0,0,211.8,400c9.24-31.8,17.52-64.08,25.08-96.84Q244.08,272.34,252.36,241.68Zm40.32,56.52c-.72,20.76-2.16,41.64-4.32,62.4-1.44,13.8.36,26.28,5.52,37.44l9.12-.84c11.52-8.88,16.92-19.92,16.2-33.24a148.62,148.62,0,0,0-17.52,18.6l-6.48-.84V381a693.55,693.55,0,0,0,.48-89.28C293.76,292.92,292.8,295.08,292.68,298.2ZM298.8,260l-1.68,3.84-2.52-1.68c-2.4,4-2.52,7.8-.24,11.52l.72.48c5.16-2,7.2-6,6.24-11.88C301,260.52,300.12,259.68,298.8,260ZM449.16,292a1.51,1.51,0,0,0-.72,1.32q-2.16,44.82-6.6,89.28a16.67,16.67,0,0,1-14.64,1.32l-.12-.72c.12-3.36-1-5.76-3.36-7.32Q416,391.32,428,401.76c13.92.84,21.24-5.28,21.84-18.36l2.76-63.24A77.82,77.82,0,0,0,449.16,292ZM453,275.64a38.15,38.15,0,0,0-.36-23.16c-3.48,7.56-3.48,15.24.24,23.28Zm-.84-74.16a504.75,504.75,0,0,1-97.2,3.6l-.6,10.32,38.4,4.56q-4,80.46-10.56,160.68a56.2,56.2,0,0,0,.24,11.88l1.8,11.4A24.15,24.15,0,0,0,388,387.24l-.24-1.2a702.56,702.56,0,0,0,7.44-135.72L393.6,220a272.6,272.6,0,0,0,59.28-5.4c3.24-4.32,3.12-8.4-.12-12.36Z" transform="translate(-150.57 -194.88)"/></svg>