<svg id="Layer_1" data-name="Layer 1" xmlns="http://www.w3.org/2000/svg" viewBox="0 0 307.69 208.48"><defs><style>.cls-1{fill-rule:evenodd;}</style></defs><path class="cls-1" d="M289.92,372.84c-2.28,15.72,3.24,25.8,16.32,30q20.88-11.7,18.72-34.92l-16.2,17.88a8.12,8.12,0,0,1-9.84-.48,176.77,176.77,0,0,1,.24-42.12,193.26,193.26,0,0,0,.84-41.52c-4.44,10-6.84,21.36-7.08,34.08A293.32,293.32,0,0,1,289.92,372.84ZM303.24,276v-.12C304,279.12,304,279.12,303.24,276Zm.84,12.24c7.8-6.12,8.76-13.2,3-21.36l-5.16,4c-3.72,5.4-3.72,10.8-.24,16.32ZM154,199.2a161.91,161.91,0,0,0,7.8,46.68q19.26,61,32.52,123.24a74.46,74.46,0,0,0,12.84,29.4l.12,1.68c4.2-4.44,7-10.2,8.4-17a1097.14,1097.14,0,0,1,32.88-123.24A229.38,229.38,0,0,0,260,197.76c-10.8,30.84-20.64,62.28-29.52,94.56-5.64,20.52-11.76,40.8-18.48,61.08a99.17,99.17,0,0,0-5.64,31.68c-3.84-21.48-8.76-42.84-14.64-64.32q-17.1-61.92-36.72-122.4C154.32,198.24,154,198.6,154,199.2Zm254,79.2-30.84,4.32q0-43.2-3.48-86c-2,23.16-3.36,47.16-4.2,72.24-1.32,42.84-2.64,85.56-3.72,128.28.6,2,1.8,2.52,3.6,1.56q5-36.36,6.72-73.68c.48-11.4.84-22.8,1-34.08a186.52,186.52,0,0,0,38.28.72A14.08,14.08,0,0,0,417,286.8a12.23,12.23,0,0,0-1.44-6.48l-.6-.6A15,15,0,0,0,408,278.4Zm-31.68-70.08a465.23,465.23,0,0,0,83.88,1.08,15.48,15.48,0,0,0,.36-12.24l-.36-.72-.72-.36-14.64-.72A183.13,183.13,0,0,0,376.32,201a13.19,13.19,0,0,0-.24,6.48Z" transform="translate(-153.96 -194.36)"/></svg>