<svg id="Layer_1" data-name="Layer 1" xmlns="http://www.w3.org/2000/svg" viewBox="0 0 450.96 510.72"><defs><style>.cls-1{fill-rule:evenodd;}</style></defs><path class="cls-1" d="M204.12,49.68l-2.28.12-2.16.24c1.92-2.88,3.36-4.44,4.44-4.8a5.91,5.91,0,0,0,3.12-1.68,10.31,10.31,0,0,1,3,7.68q0,6.84-21.24,106.56L158,302.4q-8.82,42.3-24.36,125.76-14.58,74-30.6,125C95.88,519.48,90,477.6,85.56,427.8q-6.48-84.6-10.92-127.08C73,284,71,263,69,237.48l-5.16-63.36c-.84-10.2-4.92-33.36-12-69.48C45,70.2,41.64,51.6,41.64,48.72a6.7,6.7,0,0,1,1.2-3.36,7.09,7.09,0,0,1,1.8-2.64Q65.7,143,80,288.6L91.32,411.48Q98,488.34,103.08,534.24q13.68-45.54,27.72-120l11.4-61q6.66-35.46,12.6-61.2,9.18-40.14,25-121,16.38-82.8,24.84-120.84A.61.61,0,0,0,204.12,49.68Zm54-.72a39,39,0,0,0,1.44,6.48v68a190.62,190.62,0,0,1-.84,27.6v52.8l.48-.6c.36-.12.6.36.6,1.44l-.36,13.8a169.33,169.33,0,0,0,.36,20.28V285q-2.34,44.46-6.72,133-4.5,76.5-12.84,131.52a15.11,15.11,0,0,1-1.92-4.68,23.18,23.18,0,0,1-1-4.8c3.24-40.44,6.36-82,9.36-124.8q9-128,7.68-176.4V147l.12-2.16-.12-3c0-.84.24-3.6.6-8.16l.72-11V60.36A83.76,83.76,0,0,1,254.16,50c-.12-4.56.72-7.08,2.64-7.56A31.19,31.19,0,0,1,258.12,49ZM454,88.44l-.36,3.24-.48.6-.84.84A43.5,43.5,0,0,1,443.16,84l-8-10.56c-7.56-8.52-18.36-14-32.64-16.56l-30.24.48Q343.62,59.7,331.2,84c-5.16,10-7.68,21.12-7.68,33.48q0,20,26.4,52.44c5.64,6.84,14.76,17.16,27.12,31,14.28,15.72,24.6,27.48,31.08,35,25.68,30.12,45,58.44,58.08,84.72,17.64,35.4,26.4,71.64,26.4,108.48,0,12.12-1,22.44-3,30.84-1.56,6.24-5.28,17.52-11.28,33.72-.72,2-2.88,5.64-6.6,10.8a132.26,132.26,0,0,1-16.44,19.2Q427.92,550,397.08,550c-21.72,0-37.8-.36-48.24-1.2-16.92-1.32-30.72-4-41.52-7.92-13-4.92-22.68-12-29.28-21.48-7.32-10.56-10.92-24.36-10.92-41.52,0-13.2.36-22.32,1-27.24s2.88-15.72,6.84-32.4l1.68,4a14.67,14.67,0,0,1,.72,4.2l-2.64,22.8c-1.8,15-2.76,24.48-2.76,28.68,0,6.36.36,11.28,1.2,14.64A38.73,38.73,0,0,0,283.2,511.2c14.76,15.48,43.8,23.88,87.12,25l27.84-.24q45.18-2.7,70.56-44.16a127.64,127.64,0,0,0,14.64-34.32q4.32-15.84,4.32-28.44c0-34.92-8.76-69.36-26.28-103.08q-18.9-36.54-58-81.48l-31-34.92c-11.64-13.2-20.64-23.88-27-32.16Q319.2,142.8,319.2,117.72c0-15.72,2.52-29,7.56-40.08,8.76-19.08,24.24-29.88,46.56-32.16v-.6h29.16c11-.48,22.68,5.4,34.92,17.52a74.59,74.59,0,0,1,11.88,14.76C452.4,82.08,454,85.8,454,88.44Z" transform="translate(-41.64 -42.48)"/></svg>