<svg id="Layer_1" data-name="Layer 1" xmlns="http://www.w3.org/2000/svg" viewBox="0 0 280.89 262.94"><defs><style>.cls-1{fill-rule:evenodd;}</style></defs><path class="cls-1" d="M267.48,129.12c-2,32.76-3.24,66.12-3.84,99.84q-.9,64.62-4.68,128.88-.54,11.34,6.48,14.76,4-57.6,5-116,1.26-65.34-1.8-128.28C268,128.16,267.6,128.4,267.48,129.12Zm-44-5.16q-6.48,8.46-8.28,20.88-5.22,35.1-11.4,70.2-11.16,63-25.68,125.28a60.41,60.41,0,0,0-1.68,16.32Q161.82,298,149,238.8,135.36,176,116.28,115.56c-1.32-.12-1.8.48-1.56,1.68q9.18,49,20.16,98.52,14,62.82,32.28,124.56a39.91,39.91,0,0,1,1.32,16.32c-1.2,9.72,1.32,17,7.68,21.84a19.35,19.35,0,0,0,2.64-10.2l1.32,3.24A579.74,579.74,0,0,0,196,296.88q9.18-63.18,22.8-125.64A189.85,189.85,0,0,0,223.44,124Zm171.24,5.64c-31.08-1.08-61.8-1.08-92.16-.24l.48,9.72,77.16,9.48q-46.8,108.9-83,219.84a11.75,11.75,0,0,0,.48,8.76l2.28-5a305.16,305.16,0,0,0,92.4,4.2c3.24-4.44,3.72-9.12,1.56-14.28l-1.08-1.92Q349,362.64,304.2,362.4l78.72-195.24C393,156.48,397.08,144,395,130Z" transform="translate(-114.66 -115.54)"/></svg>