<svg id="Layer_1" data-name="Layer 1" xmlns="http://www.w3.org/2000/svg" viewBox="0 0 300.74 212.16"><defs><style>.cls-1{fill-rule:evenodd;}</style></defs><path class="cls-1" d="M297.72,362.88a301.62,301.62,0,0,0,3.36-57.48,172.89,172.89,0,0,0-9.24,38.76c-2.4,19.44.12,37.44,7.44,53.88a16.05,16.05,0,0,0,7.56-.12c19-5.52,26.4-16.92,22.2-34.32-5.4,12-14.28,18.6-26.52,19.8C298.08,377.76,296.52,370.92,297.72,362.88Zm7.44-94c-8.16,8.52-8.4,16.92-.84,25.44,7.08-7.56,7.68-15.6,2-23.88ZM152.88,211.68c7.08,20.52,13.8,41,19.92,61.68A1202,1202,0,0,1,202.2,394.8a3.62,3.62,0,0,0,3.48,2.88l.6-.36a29.73,29.73,0,0,0,2,4.44,94.66,94.66,0,0,0,6.6-19.92q13.14-62.82,32.28-124A204.47,204.47,0,0,0,257,195.6Q238.5,250.86,223.2,310.2c-5.28,20.52-11,40.8-17.16,61.08l-1,3.84q-5.4-30.6-13.08-61.2a1213.92,1213.92,0,0,0-38-121.8C150.6,197.76,150.24,204.36,152.88,211.68Zm202.92-14.4a199.75,199.75,0,0,0,4.8,48.12A836.3,836.3,0,0,1,378.72,371c.84,12.12,3.6,22.2,8.4,30.48l.48-.48,1.44,3.24a420,420,0,0,0,13.68-41.52,1216,1216,0,0,1,40.8-121.08,111.67,111.67,0,0,0,8.28-46.08,50.51,50.51,0,0,0-10.56,19.8c-6.6,22.8-13.68,45.6-21,68.52q-14.58,45.54-31.8,89.76l-1.08,3c-.84-18.48-2.52-37.08-5.16-55.68a1018.75,1018.75,0,0,0-25.92-124C355.92,197.16,355.8,197.16,355.8,197.28Z" transform="translate(-151.14 -192.12)"/></svg>