<svg id="Layer_1" data-name="Layer 1" xmlns="http://www.w3.org/2000/svg" viewBox="0 0 295.41 208.48"><defs><style>.cls-1{fill-rule:evenodd;}</style></defs><path class="cls-1" d="M284.52,355.56a225.84,225.84,0,0,0,.36-56.88,318.43,318.43,0,0,0-7,55,122.22,122.22,0,0,0,7.2,47.88h7.56c12.84-8.52,18.48-19.56,16.8-33.24a146.88,146.88,0,0,1-17.28,17.28l-5.64-.84v-.84c-.48-9.24-1.2-18.36-2.16-27.6Zm4.68-86.64c-2.76.48-4.2,2.28-4.32,5.52-2.76,3.24-3,6.6-.84,10.2l1.32-.24C290.76,280.2,292.08,275,289.2,268.92ZM155.64,193.44A187.4,187.4,0,0,0,161.88,244a630.22,630.22,0,0,1,19.56,124.92c.6,11.28,3.36,20.76,8.4,28.32l-.36,2.64a2.84,2.84,0,0,0,3.72,1.68q14.22-55.8,26.76-112.68a549.28,549.28,0,0,1,17.76-62.16c3.84-10.8,5.28-21.24,4.2-31.32a409.72,409.72,0,0,0-28.2,80.88Q200.4,331.86,191.4,387.72q-2.16-35.1-7.44-70.32a920.29,920.29,0,0,0-27.6-124.2C155.88,193.32,155.64,193.32,155.64,193.44ZM445.56,321.36c-1,15.6-7.2,28.56-18.84,38.88a90.21,90.21,0,0,1-38.28,20.28,94.6,94.6,0,0,1-38.88,2.4A1269,1269,0,0,0,354,209.4a167.19,167.19,0,0,1,63.72,26.16,93.44,93.44,0,0,1,22.56,39.12A139.43,139.43,0,0,1,445.56,321.36ZM353.4,201.6l-.36-4.32c-2.28,1.68-3.48,4.44-3.48,8.16q1.26,64.62-2.88,128.16a258.81,258.81,0,0,1-4.08,32.16c-2.28,12.12-1.32,22.68,3.12,31.92l.36-.72.72.72q47.7,9.9,84.24-21.6Q462,327.3,445,269a88.1,88.1,0,0,0-15.24-29.64c-16.44-20.76-37.92-33.72-64.68-39.12l-4.68-.12A13.72,13.72,0,0,0,353.4,201.6Z" transform="translate(-155.62 -193.2)"/></svg>