<svg id="Layer_1" data-name="Layer 1" xmlns="http://www.w3.org/2000/svg" viewBox="0 0 292.58 205.32"><defs><style>.cls-1{fill-rule:evenodd;}</style></defs><path class="cls-1" d="M276.84,303.12a282.12,282.12,0,0,0-2.28,84.6,8.16,8.16,0,0,0,9.48.84q17.1-12.6,18.72-31.68c-7.08,3.84-13.8,9.48-20.28,17l-4.32-.24-.12-.84a667.48,667.48,0,0,0,2.52-75.48A7.87,7.87,0,0,0,276.84,303.12Zm4-38.64c-2.52,4.08-2.16,7.8,1.08,11.28l1.44-.6a7,7,0,0,0,2.88-6.24l-.12-.84a6.16,6.16,0,0,0-4.68-4.2ZM238.32,212.4l-31.8,124a190.75,190.75,0,0,1-10.2,29.88l-1.8,4.68-7.32-52.44A502,502,0,0,0,154,196c-1.68.48-2.28,1.8-1.8,3.84l13.56,54.12a933,933,0,0,1,21.72,124c1.08,9.6,4.32,16.56,9.84,20.88a4.83,4.83,0,0,0,.72-3.12l-.24-1.56a80,80,0,0,0,4.08-12.48q14.94-62.1,31.32-123.72c2.76-10.2,5.88-20.16,9.36-30,4.2-11.4,5.16-21.84,3.12-31.2A46.18,46.18,0,0,0,238.32,212.4Zm113.52,172a22.33,22.33,0,0,0-4.92,1l-.6.24-.24-1.32q4.5-42.3,6.84-85.2a706.46,706.46,0,0,0-1-95.76q-3.42,33.66-4.2,70.56a699.32,699.32,0,0,1-8.28,95.52c-1.8,12.12-.84,22.8,3,31.92a24.52,24.52,0,0,0,3.24-6.36l.24.48.84,1,95.28,2.76.72-1a12.09,12.09,0,0,0,1.68-7.92l-.12-.84-.12-.84-.24-.84-.6-1.56-.48-.84a1.09,1.09,0,0,0-.84-.36q-40.32-.9-80.64-2.16V383l-.48.24-.84.12Z" transform="translate(-152 -195.96)"/></svg>