<svg id="Layer_1" data-name="Layer 1" xmlns="http://www.w3.org/2000/svg" viewBox="0 0 561.6 534.48"><defs><style>.cls-1{fill-rule:evenodd;}</style></defs><path class="cls-1" d="M197.16,35.4l3.12-3.72a13.37,13.37,0,0,1,2.64,8.52q0,5.22-20.28,107.88Q158.7,268.14,152.88,301.8q-7.56,43-18.36,130.32-11.16,78.48-28,130.32Q95,537.78,87.84,492.72c-1.56-9.72-3.24-21.36-4.8-34.8l-3.24-27-9-66.36q-5-37.8-8.28-66Q60.36,280.74,56,232.68c-2.52-28.2-4.8-50.28-7.08-66.24C47,153.12,42.24,127.2,34.68,88.92,27.6,53.52,24.12,35.4,24.12,34.44a11.52,11.52,0,0,1,.72-4c.36-1.2.84-1.92,1.44-2q17.82,79.74,26.4,129,12.24,70.92,14.76,129,2,50.58,15.84,128.16l12,64.68q7.2,38.7,11,64.44h.24q10.62-53.82,22.2-126.48l19.92-127.32Q173.34,131,195.36,38.16ZM345.24,68.28a45.26,45.26,0,0,0-6.72-12.12c-7.8-9.72-18.24-13.2-31.32-10.32l.36,11c0,13.8-1.68,37.92-5,72.6L304.8,128l9.48-5.52v-.12h.12l7.56-4.68C338.64,106.08,347,92,347,75.72,347,74.16,346.44,71.76,345.24,68.28Zm-54-2.64-.24,3.6-1.56,1.08A103.35,103.35,0,0,0,277.92,56c-8.28-8.52-16.92-12.72-25.68-12.72l-6.84.24q-36.18,31.5-57.12,153.84c-3.24,19.8-6.12,40.32-8.52,61.8q5.58-3.78,27.72-8.28c10-1.92,20.64-3.84,32-5.64a11.36,11.36,0,0,1,1.8,6.12c0,.6-1.44,1.8-4.32,3.48a91.15,91.15,0,0,1-12.12,5.28A120.77,120.77,0,0,1,184,267.24l-3.84-.12-1.2-.12c-1.08,9.72-2,19.68-2.88,29.64-2.52,30.12-3.72,56.4-3.72,79.08q0,59.58,9.84,104.76,14.76,68.58,47.88,68.64c22.68,0,41-12.12,55.32-36.24a137.88,137.88,0,0,0,11.52-25.56c2.28-6.84,3.36-11.16,3.36-13a26.06,26.06,0,0,0-.6-4.92,30.44,30.44,0,0,0-1.56-5.28l.84-.24h2.28c2.52,0,4,1.92,4.44,5.64a33.59,33.59,0,0,1,0,7c0,2.52-1.08,7.8-3.24,15.6a152.8,152.8,0,0,1-11.4,29.4q-21.42,41.4-57.24,41.4c-22.68,0-38.76-12.84-48-38.52a164,164,0,0,1-7.32-30.6c-1.44-11.88-2.52-19.32-3.12-22.56-.84-4.44-2.28-19.08-4.44-43.8-2.28-26.28-3.36-43.56-3.36-52,0-22.68,1.32-49.68,3.84-81.24q4.5-56.52,13-105.6Q206.64,56.7,245.76,32.76c7-2.16,16.44,1.92,28.56,12.12a94.34,94.34,0,0,1,12,12C289.56,61,291.24,63.84,291.24,65.64ZM427.68,334.56q-15.84-42.48-59.52-36.12c-.12,12.24-1.2,22.44-3.24,30.72v69l-5.52,73.2c-2,25.08-3.24,41.4-3.72,48.72l7.08-.36q43.38-9.54,61.44-58,11.34-30.42,11.28-72.24C435.48,367,432.84,348.6,427.68,334.56Zm-76.32-32.88q0,9.18-7.68,101.52-7.2,86.58-11.28,129.48c-3.6-15.72-6.72-34.08-9.36-55.2-.84-6.12-2.88-25-6.36-56.4-2.52-23.16-5-42-7.44-56.76A440.57,440.57,0,0,0,296.4,308q-7.38,37.26-14.76,104-8.1,75.06-13,103.8h-.84a19.53,19.53,0,0,1-.72-5.64c2.76-17.76,4.08-28.08,4.08-30.84,0-14.52,4.08-49.44,12.12-105q10.8-73.62,13.32-84.24c8.28,28.2,15.12,63.72,20.64,106.32l6.36,53.64q4,32.58,7.2,53.28c2.52-25.8,5.88-65.52,10.32-119.16q6.3-77.76,6.36-83.28v-1.44l-.48.12-1.92.6v-.6a14,14,0,0,0-.48-3.84,29.11,29.11,0,0,0,4.32-4.2,11.7,11.7,0,0,1,2,5.28A33.56,33.56,0,0,1,351.36,301.68Zm18.72-10.92,9.72-.24q40.5,6.66,53,43.92c3,8.64,4.8,18.72,5.52,30.36.24,3.84.36,12,.36,24.6,0,31.56-3.6,57.36-10.68,77.16-11.88,33.24-33.84,54.24-65.64,62.88L355,529.2l-1,2.88-2.4-2.28a2.89,2.89,0,0,1-.48-1.8v-2.88l.12-1.92c.36-10.8,2.16-32.88,5.28-66.24,3.72-38.76,5.52-59.4,5.64-62V325.08a44.24,44.24,0,0,0,.36-8.76l-.24-10.08c.12-8,1.68-12.84,4.8-14.4l.24.36A5.36,5.36,0,0,1,370.08,290.76ZM359,270.6l-1,1c-14.52-41.16-22.92-64.92-25-71.16-10.68-32.4-17-55.2-18.84-68.28q-5.94,3.06-12.6,5.76l-3.48,32.76-11.28,97.08-.48.48-.84.84a7.7,7.7,0,0,1-1.44-3l-.24-3.6q0-1.26,9.72-89.64l3.84-34.8-.36-.6-.12-2.64a3.3,3.3,0,0,1,1-1.8c4-37.92,6.72-67,8-87l-2,.6a13.93,13.93,0,0,1-.24-3.24c0-3.48,2.4-5.16,7.2-5.28s10,1.32,15.84,4.32A46,46,0,0,1,342.48,55.2a32.83,32.83,0,0,1,7.2,20.4c0,14-3.36,25.8-10,35.28q-7.74,11-21.6,19.08Q326.4,151,341.4,199.08q18.36,58.86,18.36,67.08l-.24,4Zm37-131.28a37.7,37.7,0,0,1-15.24,5.16c-1,9.72-1.44,15.36-1.56,16.92q-.9,34-2.16,57.24c-1,17.76-2.28,34.56-3.84,50.52,20.52.12,35.28-7.32,44.16-22.32,5.64-9.48,8.4-20.4,8.4-33a133.35,133.35,0,0,0-1.8-17.4,244.74,244.74,0,0,0-5.4-26.76c-6.36-23.16-13.8-33.24-22.56-30.24Zm23.76-65a26.56,26.56,0,0,0-5-16.2c-5.16-6.84-13.44-10.32-25-10.2-.24,8.16-1.92,27.48-5.16,58.08l-2.88,28.68a15.26,15.26,0,0,1,4.2-2.16c7.44-2.88,12.24-5.28,14.4-7.08a54.09,54.09,0,0,0,8.76-8.76,31.83,31.83,0,0,0,4.56-7.8,71.05,71.05,0,0,0,4.68-17.4A110.3,110.3,0,0,0,419.76,74.28Zm-30.24-34.8q21.78,2,29.52,14.76,4.32,7.2,4.32,19.8a104.07,104.07,0,0,1-8.16,40.8,61,61,0,0,1-11.52,18.24c7.8,5,14,16.56,18.84,34.44a178.13,178.13,0,0,1,6.48,46c0,14.88-1.56,26.64-4.56,35.28q-10.26,29.52-41.4,29.52L370.56,278l-1.56-1.8a6.47,6.47,0,0,1-.36-2.64,4.91,4.91,0,0,1,.84-3v-1.2c0-12.6,1.68-43.8,5-93.84q5.94-87.3,12.84-128.4l-.12-.24-.12-2.28a6.66,6.66,0,0,1,.84-3.36l.6-.84.12-.72.12.36Zm176.16,38a17.81,17.81,0,0,1-1.68,7,113.62,113.62,0,0,0-15.48-20c-11.16-11.4-21.72-17-31.8-17q-33.12,0-47,28.08a74.09,74.09,0,0,0-6.48,20A54.41,54.41,0,0,0,462,106c0,17.76,6.48,34.68,19.32,50.76A271.2,271.2,0,0,0,501.12,178l22.8,22.56q28.44,29.7,42.48,60.48,19.26,42.66,19.32,101c0,11.88-2,29.16-6,52.08l-9.24,49.8q-6.66,39.78-47.88,70.92A164.89,164.89,0,0,1,491,553.68c-9.48,4.44-16.68,6.6-21.48,6.6-22.2,0-38.16-6.12-48.12-18.48a40.43,40.43,0,0,1-7.2-13.44,29.24,29.24,0,0,1-1.44-8,14.34,14.34,0,0,1-.24-6.72c.6-3.24,2.64-5,6.12-5.52v.72a11.67,11.67,0,0,0,1.56,5.28c-1.32,2-2,3.6-2,4.44,0,1.68,1,4,3,6.84a41.45,41.45,0,0,0,8.4,8.88c9,7.44,18.72,11.16,29.4,11.16q41.94,0,70.56-27.48c15.24-14.76,27.36-35,36.12-61.08a289,289,0,0,0,13.2-62.52,285.12,285.12,0,0,0,1.92-32c0-35.16-6.36-66.12-19.2-92.64-9-18.6-23-38-42.36-58.44l-22.56-23.4a248.9,248.9,0,0,1-19.8-23.52c-12.84-18.12-19.2-37.68-19.2-58.44,0-14,2.76-26.76,8.28-37.92,7.56-15.24,19.56-26.16,36.12-32.76,16.44-1.56,31.8,3.84,46,16.44a76.2,76.2,0,0,1,13.08,15C564.12,71.4,565.68,75,565.68,77.52Z" transform="translate(-24.12 -28.44)"/></svg>