<svg id="Layer_1" data-name="Layer 1" xmlns="http://www.w3.org/2000/svg" viewBox="0 0 310.08 209.04"><defs><style>.cls-1{fill-rule:evenodd;}</style></defs><path class="cls-1" d="M304.2,322.68c-.84-15.12-9.6-21.36-26-18.84q-41.58,41.58-10.8,92.4c3.24,5.4,8.28,7.8,15.12,7.08,10-1.2,18.36-5.88,25.2-14.16,2.76-3.24,3-6.72,1-10.44q-43.74,30.42-49.92-23l32.88,1.2a7.45,7.45,0,0,0,1.08-7.68l-1.32-2.52a64.41,64.41,0,0,0-32.4.72c1.68-22.92,13.56-34.32,35.64-34.08a28.86,28.86,0,0,0,9,9.24ZM242,200c-7.92,23.88-14.88,48-20.88,72.6q-12.78,52.74-20.52,105.84A296.86,296.86,0,0,0,190,319.08q-17.82-61-36-121.8c-1.08-.12-1.68.48-1.8,1.56a58,58,0,0,0,1.8,24.84l25,85.2a372.29,372.29,0,0,1,12.6,60.6,80.9,80.9,0,0,0,6.84,25.32l-.24,2.4a2.15,2.15,0,0,0,2.16,2.16l.24-.6.24.6a2.59,2.59,0,0,0,.72-1.68v-1.32a192.15,192.15,0,0,0,9.72-34.8c2.4-12.72,5-25.32,8-37.92Q234,261.18,243.72,199.2A1.18,1.18,0,0,0,242,200Zm214.2-3a746.13,746.13,0,0,0-5,95.76,148.15,148.15,0,0,0-35.64,4.68q-.54-35.28-3-70.2c-1.8.48-2.76,1.8-3,4A397.85,397.85,0,0,0,407.4,276q.54,64.8-.72,128.28c2.88.24,4.56-1.44,4.92-4.92,1.56-14.4,2.64-28.92,3.12-43.68.6-15.72,1-31.44.84-47l36-1.68v1a432.38,432.38,0,0,1-2.64,64.8c-1.44,11.88-.24,22.68,3.48,32.28a378.73,378.73,0,0,0,6.84-80l-.36-18.36.6-.12.36-.48a11.59,11.59,0,0,0-.36-13h-.84L457,196.68A.5.5,0,0,0,456.24,197ZM412.92,196q-45.18,2.16-89.28,2.4a8,8,0,0,0,.72,8.88l48,2.64q-4,47.7-5.4,96.36a513,513,0,0,1-5.76,63.84q-2.7,18.9,4.32,31.68a440.86,440.86,0,0,0,8.4-73q2-59.94,0-118.92c13,.12,25.92-.12,39-1l.72-1C415.92,203.76,415.68,199.68,412.92,196Z" transform="translate(-151.56 -195.96)"/></svg>