<svg id="Layer_1" data-name="Layer 1" xmlns="http://www.w3.org/2000/svg" viewBox="0 0 290.77 207.74"><defs><style>.cls-1{fill-rule:evenodd;}</style></defs><path class="cls-1" d="M278.16,293l-3.24.24c-22.44,17.28-31.2,40.68-26.52,70.08A121.89,121.89,0,0,0,257,393.72l5.4,4c21.48,2.76,36-6,43.32-26.28,1.32-3.84.24-7.2-3.24-10-10,15.36-23.4,21.48-40.32,18.48a49,49,0,0,1-7.68-30.72l33.6-5.64a12.42,12.42,0,0,0,1.8-9.24,10.06,10.06,0,0,0-2.64-5.28,75.91,75.91,0,0,0-30,5.4l11.4-23.52c11.52-3.48,22.32-3.24,32.28.48C300.12,297.6,292.56,291.48,278.16,293Zm-34.68-96.48a1075.78,1075.78,0,0,0-32.64,122.52,300,300,0,0,1-12.24,42.84,225,225,0,0,0-7.08-43.8q-16-62.28-36.24-123c-1.2-.12-1.68.36-1.56,1.44a1061.69,1061.69,0,0,0,25.8,110.64,276.69,276.69,0,0,1,10.32,62.52c.48,11.4,3,21.36,7.68,29.88l.36-2.76a10.47,10.47,0,0,0,3.12-5.52q16-61.92,30.24-124.2c2.4-10.56,5.28-20.88,8.52-31.08a90.9,90.9,0,0,0,4.32-39.6C243.72,196.44,243.48,196.44,243.48,196.56Zm121.8-1-2,4.68-1.56,4.32a92.87,92.87,0,0,0-4.08,18.48A1234.37,1234.37,0,0,1,336,348.24a109.19,109.19,0,0,1-7.92,22.8c-5.88,11.88-6.48,22.32-1.8,31.56a71.76,71.76,0,0,0,7.8-18.72q16.38-61.74,27.24-124.8c1.56-8.52,2.64-16.92,3.36-25.32,4.92,34.44,10.8,68.28,17.88,101.76a30.82,30.82,0,0,0,3-8l1.56,3.12c4.8-14.4,9.24-29,13.2-43.8L412,243.6a161.47,161.47,0,0,0,3.72-17.4q9.18,57.24,17.28,114.6a279.68,279.68,0,0,1,2.52,31.44c.12,12.36,2.88,22.56,8,30.6a2.53,2.53,0,0,0,.6-1.56A391,391,0,0,0,440,326.4q-9.54-62.46-22.56-123.48l-.24-6.24A222.65,222.65,0,0,0,401,247.92a330.71,330.71,0,0,1-14.64,52.2,33.4,33.4,0,0,0-1.68,5.28c-4.92-25.32-9.12-50.76-12.36-76.44a122.83,122.83,0,0,0-6.84-29Z" transform="translate(-153.7 -195.1)"/></svg>