<svg id="Layer_1" data-name="Layer 1" xmlns="http://www.w3.org/2000/svg" viewBox="0 0 549.12 533.08"><defs><style>.cls-1{fill-rule:evenodd;}</style></defs><path class="cls-1" d="M228.24,24.12c2-.24,3.12,2.64,3.12,8.76q0,2.34-13.68,53.64c-10.2,38.28-16.8,64.2-19.56,77.52q-5.94,27.72-14.4,64.8L168.6,294.48c-.36,1.56-2.88,16.32-7.8,44.52q-8.82,50.58-16.32,89-25,126.9-36.24,126.84c-6.36,0-11.28-17.88-14.76-53.52C92.4,490.44,91.32,474.72,90,454c-1.44-21.84-2.52-36.24-3.12-43.32L76.68,343.2q-9.9-64.8-9.84-77c0-9.24-3.48-30.84-10.44-65L45.24,148.56Q44.16,143.16,30,86,18.12,38,18.12,31.68a4.8,4.8,0,0,1,1.08-3.24,4.27,4.27,0,0,1,3.48-1.68c5,0,11.16,16,18.24,47.76l8.28,40.56c3.36,16.44,5.88,28,7.68,34.8Q74,218.46,79.56,273.12c1.8,17.16,4.44,37.68,7.68,61.56,1.92,13.8,4.92,34.44,9,62,7.32,51,11.52,92,12.84,123.24q16.38-48.42,30.12-125l11-63.24q6.48-37.62,11.88-62.64L176,206.88c5.64-25.56,10.2-46.68,13.44-63.48,1.56-8.52,3.72-19.08,6.72-31.56L203.76,80c4.44-19.44,10.2-35.28,17.16-47.4C223.92,27.24,226.44,24.36,228.24,24.12ZM459.72,327.84l-1.56,1.56a12.31,12.31,0,0,1-4.2-4.68l-2.76-5.28c-2.52-4-7.32-6-14.4-6q-26.64,0-36,66.72a430.71,430.71,0,0,0-4.08,67v15.6a151.74,151.74,0,0,0,2.16,22.68c4,19.56,12.36,29.64,25.44,30.48H436.2a218.31,218.31,0,0,0,21.48-20.64l18-19.92c-1.08,1.92-1.56,4.56-1.56,8Q452,526.74,430.2,526.68c-20.88,0-34.44-9.84-40.56-29.52a76.45,76.45,0,0,1-3.24-20.4l.24-9.6a505.66,505.66,0,0,1,3.84-82.8q10.44-79,44.64-79,13.5,0,20.52,8.64c3.12,3.84,4.68,7.56,4.68,11.28A4.29,4.29,0,0,1,459.72,327.84ZM369.36,307.2q38.16-4.86,38.16,0c0,1.08-12.12,3.72-36.24,8.16L372,323c.6,7.92.84,16.92.84,27.12l-1.2,28.56c-1.08,22.2-2.28,42.48-3.6,61.08q-6.3,88.56-13,88.56c-2.52,0-4.08-1.68-4.56-5L350.4,518c0-4,.84-13.44,2.4-28.44L358,440.16c4.8-48.6,7.32-89.76,7.68-123.72-27.12,4.92-45.12,7.32-53.88,7.32l-4.08-.24-1.92-.36-.36-.84a4.48,4.48,0,0,1-.48-2.4c0-1,5.4-2.64,16.08-4.92q15.3-3.24,35.28-6.12L367,307.44C367.8,306.12,368.64,306.12,369.36,307.2ZM504,309.12a26.24,26.24,0,0,1,3,6.6,19.45,19.45,0,0,1,1.44,5.76c0,7.2-.72,18.6-2.16,34.32-1.32,14.64-1.92,26-1.56,34.2v23.16l2.4-.6c6.12-1.44,13.2-2.64,21.36-3.72,10.68-1.32,18.6-1.92,23.76-1.68l.24-7.2c.72-16,1.56-28.08,2.52-36.48,0-4,.36-10.2,1.2-18.6s1.2-14.64,1.2-18.72c3.48-14.52,6.12-21,7.8-19.32,1.32,1.32,2,6.48,2,15.72l-1,12-1,11.88q0,11.7-1.44,28.08l-2.4,28c-1.8,22.8-1.56,41.52.84,56v48.72c-.72,2.28-1,6.72-.84,13.32-.48,5.52-2.52,8.28-6.24,8.28-2.76,0-4.44-1.08-5-3.12l-.12-3.48a75.46,75.46,0,0,1,.72-8c.6-4.2,1.2-7.56,1.8-10.2V460.08c-.72-4.8-1.08-12.12-1.08-21.84q0-10.62.36-23.76l-7.44,2a145.23,145.23,0,0,1-35.76,4.32h-4v23.64q-.9,8.1-.72,25.56l.24,28.68c-.48,22.08-4.08,33.12-10.68,33.12-2.52,0-4-.84-4.56-2.52l-.24-2.88,2.52-17.28c1.68-11.64,2.64-20,2.88-25l.36-21.12c.24-8.4.6-15.48,1-21.12V389.28c.48-5.88,1-14,1.32-24.36.36-11.64.72-19.68,1.08-24.36l1.8-12.24a76.3,76.3,0,0,0,.72-12.12C499.92,307,501.12,304.56,504,309.12ZM360.12,48.84c0,7-1.68,11.28-5,12.84-3.24-1.56-4.68-3.36-4.32-5.16a12.53,12.53,0,0,0,1.56-5.28c0-3.72-2.88-7.68-8.64-11.76-6.72-4.68-14.88-7-24.36-7q-49,0-74.76,71.4a345.6,345.6,0,0,0-13.68,51.48c-1.8,9.72-3.36,19.2-4.68,28.2q-7.74,30.6-12.84,75.84L211.2,279.6h79.68c6.84-1.56,11.64-1.44,14.4.48a5.33,5.33,0,0,1,2.4,4.56c0,1.2-1,2.16-2.76,2.76l-13.8,3.6H210l-4.32,44.4v48.72c-.48,4.68-1,11.16-1.44,19.32L203.52,417l-.24,18.84c.6,13.56,2.52,25.92,6,36.84q16,51.84,68.4,51.84c17,0,30.12-7.32,39.36-22a62.9,62.9,0,0,0,7.2-15.72l2.4-8.52,7-25.44c2.52-10,4.44-18.72,5.76-26.52l.84-.36,2.16,15.84c1.2,9.6,1.8,15.36,1.8,17.16,0,4.56-1,10.44-2.76,17.64A101.89,101.89,0,0,1,331,503.16q-19.62,34.74-57.6,34.68-52.74,0-72-46.8c-7.2-17.64-10.8-42.36-10.8-73.92l.6-14.16c.6-8.76,1.08-15.6,1.56-20.76V333.48a634,634,0,0,1,9-85.32c4.44-26.28,10.56-55.08,18.6-86.64,4.32-18.72,7.8-33,10.56-43,4.8-17.4,10.2-31.68,16.2-43.08a122.39,122.39,0,0,1,14.16-21.6A103.49,103.49,0,0,1,286.8,32.52c19.8-12.12,37.8-13.92,54-5.64a45.67,45.67,0,0,1,14.4,11.76C358.44,42.84,360.12,46.2,360.12,48.84ZM534.72,55c-.72,0-4.2-2-10.32-6.12s-11-6.12-14.64-6.12Q472,42.72,437,65.4a160.16,160.16,0,0,0-22.8,18,82.57,82.57,0,0,0-11.88,13.2c-1.68,2.52-4.44,11.76-8.16,27.6s-5.64,25.8-5.64,30.48c0,20.76.72,37,2.28,48.6,1.8,14.52,5.16,25.92,10,34.44A47.26,47.26,0,0,0,423.48,258c10.2,4.44,23.64,6.72,40.32,6.72,17.16,0,29.4-6.36,36.72-19,4.32-7.56,7.56-20.16,9.6-37.56l.72.48V189L485,194.28l-23.4,5c-2.28,0-3.72-.72-4.56-2.16a4.88,4.88,0,0,1-.6-2.52c0-1.92,2.52-4.2,7.44-6.72a92.86,92.86,0,0,1,17.28-6.72c16.68-4.92,28.44-6.12,35.16-3.36,4.08,1.8,6,5.76,5.76,12l-.6,7.56a22.7,22.7,0,0,0,.24,6.72c-.48,7.8-.48,19.08-.12,33.84l.6,21.84-1.92,17.4c-1.68,11.16-3.72,16.8-6.12,16.8-3.48,0-5.52-2-6.24-6v-6.36l-.48-24.36C497.16,271,482.64,277.8,463.8,277.8q-56.34,0-75.72-39.24a84.74,84.74,0,0,1-7.92-27.6l-.48-13.8-1.08-13.44-1.08-13.44a244.84,244.84,0,0,1,3.48-42.6c3.12-17.52,8.28-31.08,15.48-40.8,3-4.2,10.08-10.2,21.36-18.24A246,246,0,0,1,458,45.12c17-7.68,31.92-11.4,44.64-11,15.48.36,27,6.72,34.68,19l-.36,1.2A2.88,2.88,0,0,1,534.72,55Z" transform="translate(-18.12 -21.8)"/></svg>