<svg id="Layer_1" data-name="Layer 1" xmlns="http://www.w3.org/2000/svg" viewBox="0 0 230.96 204.48"><defs><style>.cls-1{fill-rule:evenodd;}</style></defs><path class="cls-1" d="M216.24,361.2l-.6-2.52c-3.36-13.2-6.36-26.52-8.88-39.84Q194.88,256,177,195.12c-3.24,2.64-4.32,6.48-3,11.52q4.86,19.08,10.08,37.8A774.1,774.1,0,0,1,207.84,370c1.2,11.76,4.32,21.6,9.36,29.64a88.47,88.47,0,0,0,1.56-13.68q17.1-49.14,30.84-99a617.17,617.17,0,0,1,19.68-60.12c4.44-11.4,5.52-21.72,3.48-31.2a726.8,726.8,0,0,0-35.88,104.28,431.24,431.24,0,0,1-20.28,60.48Zm187.32-55.56a19.49,19.49,0,0,0-2-7c-13.08-12.84-25.92-11.4-38.76,4.32a79,79,0,0,0-17.16,40.2c-2,16,1.2,30.24,9.48,42.84,2.28,3.72,5.88,5.88,10.68,6.6,17.4,2.4,29.76-4,37.2-19.2a12.57,12.57,0,0,0-.84-13.08C391.56,370.68,379,375.24,364.44,374c-7-.36-10.92-4.8-11.88-13.56a76.54,76.54,0,0,1,.12-15.72l34.92-6.36a12.09,12.09,0,0,0,1.08-11.4l-1.8-3.72a59.19,59.19,0,0,0-30.12,6.12c7.08-16.68,19.56-25,37.68-24.72l7.08,4.8C403,308.88,403.68,307.56,403.56,305.64Z" transform="translate(-173.45 -195.12)"/></svg>