<svg id="Layer_1" data-name="Layer 1" xmlns="http://www.w3.org/2000/svg" viewBox="0 0 286.61 212.44"><defs><style>.cls-1{fill-rule:evenodd;}</style></defs><path class="cls-1" d="M295.44,220.32q7.38,33.84,14,67.92a83.83,83.83,0,0,0-27.84,3.6l7.68-32.64A318.58,318.58,0,0,0,295.44,220.32Zm-1.92-15.48a178.27,178.27,0,0,0-7,25.68q-11.88,62.82-29.88,124.2a57.69,57.69,0,0,1-7,15.12c-7.56,11.64-8.76,22.2-3.48,31.92A71,71,0,0,0,256,382.2q12.6-39.06,22.8-78.72a131.49,131.49,0,0,0,33.48-1.08l7.8,41a284.87,284.87,0,0,0,18.12,61.32,5.42,5.42,0,0,0,2-5.52c-4.2-26.64-9-53.28-14.64-79.92q-13.14-62.82-28.44-124.8c-2,.24-3.24,1.56-3.36,4.08C293.64,200.64,293.52,202.68,293.52,204.84Zm-52.92,3.24a979.6,979.6,0,0,0-33.72,124.68,288.62,288.62,0,0,1-7.8,30.36l-.36,1.44c-2.52-16.44-5.88-32.76-9.84-49.2q-15.3-61.74-35.76-122.4c-1.2-.12-1.8.36-1.8,1.56A223.13,223.13,0,0,0,163,254.64a643.86,643.86,0,0,1,28.32,123.48c1.32,9.72,4.68,16.68,10.32,21a4.52,4.52,0,0,0,1-3.24l-.36-3.12a4.88,4.88,0,0,0,1-2.28A1029,1029,0,0,1,229.8,273.6c3-10.56,6.48-20.88,10.44-31.08,6.12-15.72,8.88-31.32,8.16-46.92a.93.93,0,0,0-.84.36A34.5,34.5,0,0,0,240.6,208.08Zm166.08,62a70.65,70.65,0,0,1-34.2,22.68l.6-83.16c16.92-2.28,29.64,3.84,38.16,18.12C419.76,242.28,418.2,256.32,406.68,270.12Zm-4.2,22C415.8,299,424.2,310,427.92,325c3.24,13.32,1.44,25.56-5.4,36.84-9.84,16.44-24.6,25.08-44.16,26.16l-14.52-1.08L372,306.72a67,67,0,0,0,28.68-13.32Zm-31.32-93.72a229.35,229.35,0,0,0-4.08,36.48Q364.92,299.1,358.92,363a99.19,99.19,0,0,1-2.64,15.84c-2,9.12-1.2,16.56,2.76,22.32a10.41,10.41,0,0,0,1.92,2.76,76.62,76.62,0,0,0,48.48-6.24A34.12,34.12,0,0,0,423.24,386q21.42-30.42,11.64-66.72-6.3-23.4-24.48-35.28c8.52-10.44,12.72-23.64,12.72-39.36,0-26.76-13-43.08-38.88-48.72a11.4,11.4,0,0,0-6.6.48l-3.72,1.08-.84,1.44-.36,1-.12-2.64A1.13,1.13,0,0,0,371.16,198.36Z" transform="translate(-151.32 -192.94)"/></svg>