<svg id="Layer_1" data-name="Layer 1" xmlns="http://www.w3.org/2000/svg" viewBox="0 0 279.16 217.68"><defs><style>.cls-1{fill-rule:evenodd;}</style></defs><path class="cls-1" d="M302.28,218.28a502,502,0,0,0,11.64,73.8l-16.32-1.2A81.54,81.54,0,0,0,287.4,293l8.4-37.44C298.56,243,300.72,230.64,302.28,218.28ZM152.4,197a536.17,536.17,0,0,0,19.68,69.72A393.28,393.28,0,0,1,194.76,388c.12,7.08,2.4,11.76,6.84,13.8l.48-6.12.12.24Q217.68,337.56,233,278.76c3.24-12.84,7.08-25.56,11.4-38.28a117.54,117.54,0,0,0,6.12-46.68,74.66,74.66,0,0,0-10.92,25.08L207.48,343.32c-1.68,6.24-3.48,12.36-5.52,18.36a312.38,312.38,0,0,0-6.6-47.88,506.83,506.83,0,0,0-41.64-119.28A2,2,0,0,0,152.4,197Zm151.92-4.32-2,3.48c-.84-.12-1.32.12-1.32,1l.12,1.32A73.91,73.91,0,0,0,294.84,216q-14.58,62.46-25.44,125.4a134.21,134.21,0,0,1-9.24,31.08c-5.16,12.24-5.4,22.68-.72,31.2a71.25,71.25,0,0,0,9.24-23.4c5.16-24.84,10.56-49.68,16-74.4a175.75,175.75,0,0,1,32.76.12l3.24,11.52A539.28,539.28,0,0,1,334.56,380c1.92,12,5.4,22.08,10.44,30.36a6.36,6.36,0,0,0,1.92-5.52A536.36,536.36,0,0,0,331.08,320q-16-58.5-27.36-117.12ZM423.12,258Q414.3,294.54,375,293.64q.54-17.46,2.16-34.56a253.14,253.14,0,0,0-.36-54q39.78-1.26,46.8,37.8A33.9,33.9,0,0,1,423.12,258Zm-48.36-57.72.12,2.4Q372,237.42,370.68,273c-1.56,42.84-2.64,85.68-3,128.28q.72,2.88,3.24,2.16a642.57,642.57,0,0,0,3.84-79.56V308.76l.24.24q31.32,3.42,47.52-25.32,14-24.66,6.12-54.24c-5.76-21.24-19.08-32.88-40.08-35.16l-7.56.84a11.78,11.78,0,0,0-5.16,2.28l-.24-2-.24,2.4h-.12A6.27,6.27,0,0,0,374.76,200.28Z" transform="translate(-152.34 -192.72)"/></svg>