<svg id="Layer_1" data-name="Layer 1" xmlns="http://www.w3.org/2000/svg" viewBox="0 0 307.74 219.83"><defs><style>.cls-1{fill-rule:evenodd;}</style></defs><path class="cls-1" d="M276.12,284.76A273.33,273.33,0,0,0,289.2,196a259.6,259.6,0,0,0-16,58.56Q268.38,286,261.36,317a217.08,217.08,0,0,1-15.48,45.84,92,92,0,0,0-7.44,25,63.12,63.12,0,0,0-.6,15,75.9,75.9,0,0,0,14.52-25.08c1.32-3.48,2.4-6.84,3.36-10.32q9-34.2,17.16-68.76l30-8.76A812.11,812.11,0,0,0,326.16,399a33.31,33.31,0,0,0,2.52,6.84Q333,385,326.52,360.48a715.55,715.55,0,0,1-15.24-75l-1.44-8.16c-5.88-27-11.64-53.88-17.16-80.88-2.76,12.48-2.88,25.92-.36,40.44,2.4,13.44,5,26.76,8,40.08ZM241,195q-17.46,53.1-30.6,107.28l-15.12,60.84-.12.48c-1.92-15.36-4.08-30.72-6.48-46.2A457.62,457.62,0,0,0,152.88,196c-1.2,0-1.68.6-1.44,1.68,3.48,16.56,7.56,33.12,12.36,49.8a704.78,704.78,0,0,1,23.76,124.2c1.08,11.88,4.56,21.84,10.2,29.64a3.3,3.3,0,0,0,1.32-3.12l-.72-6.6A174.21,174.21,0,0,0,204.6,365a779.38,779.38,0,0,1,30.48-123.72,127.41,127.41,0,0,0,6.84-46.8C241.32,194.64,241.08,194.76,241,195Zm215.76,1.2a673,673,0,0,0-5.4,82.92l-8.64-.36a212.9,212.9,0,0,0-23.28,4.32l-.6.48c.6-22.44.72-44.64.36-66.84a449.68,449.68,0,0,0-6.72,57.36q-3.42,64.08-3.6,128.28.54,2.88,3.24,2.16a30.79,30.79,0,0,0,3.48-17l-.24-.84-1.08-1.32L416.4,345q1.44-25.2,2.16-50l32.76-2.28q0,58.14,1.32,115.32c1.08,1.92,2.52,2.52,4.32,1.68q2.16-42.3,2.16-85.32,0-64.8-1.8-128.16Zm-71.4-5.4a483.87,483.87,0,0,0-49.8,8,10.64,10.64,0,0,0-1.2,5.76l.6,2.4.36.84,44.64-1.8c-1.68,15.48-2.76,31.44-3.24,48l-3.84,129c-.36,9.72,1.44,17.52,5.64,23.4a40.62,40.62,0,0,0,3.6-22l-.36-.72-1.08-1.44c-.36-19.56-.12-39.12,1-58.44,1.92-39.48,1.92-78.84.12-117.84,15-.36,30-.48,45.24-.36a10.8,10.8,0,0,0,2.28-8.16,7.42,7.42,0,0,0-1.08-3.24l-.36-.84A1.93,1.93,0,0,0,427,193a163.32,163.32,0,0,0-40.56-2.4Z" transform="translate(-151.38 -190.23)"/></svg>