<svg id="Layer_1" data-name="Layer 1" xmlns="http://www.w3.org/2000/svg" viewBox="0 0 296.06 214.8"><defs><style>.cls-1{fill-rule:evenodd;}</style></defs><path class="cls-1" d="M324.48,291.84,299,296l13-72.12Zm-66.36-90.72q-15.84,61.74-28.92,124.2c-2.28,10.68-4.92,21-8.16,31.2a145.21,145.21,0,0,0-7.08,43.2,467.64,467.64,0,0,0-16.68-86.64q-17.82-61.38-40.92-120.72c-1.8.12-2.52,1.08-2,3.12q10.26,43.38,24.12,86.4Q188,312.3,195,343.8a500.74,500.74,0,0,0,17.16,60.12,2.21,2.21,0,0,0,1.8-1.56l.12,1.92c.84,0,1.44-.24,1.56-.6A138.49,138.49,0,0,0,228.24,367q12.24-62.82,28.08-124.8a176.59,176.59,0,0,0,5.88-47.28A9.8,9.8,0,0,0,258.12,201.12Zm94.44,206c3-11.4,2.76-23.64-.72-37s-6.72-27-9.48-40.8c-2.76-13.2-5.76-25.92-8.76-38.28-3.72-15.12-7.08-30.36-10.32-45.72s-6.24-30.48-9-45.84l-.12-3.12-2-1.68q-16.56,76.14-32.88,152.4c-1.8,8.76-3.48,17.4-4.8,26.16a140.82,140.82,0,0,0-1.2,29.28q18.18-34,20.88-74.88a128.32,128.32,0,0,1,2.52-19l30.84-2.52A426.77,426.77,0,0,0,351,403.92,20,20,0,0,0,352.56,407.16ZM405,202.68q-15.84,24.12-10,55.2a19.21,19.21,0,0,0,4.08,8.64q32.58,38.7,41.88,87.24c2,10-1,17.88-9,23.88-13.08,9.84-26.76,11.28-40.92,4.32a11,11,0,0,1-5.64-6A314.29,314.29,0,0,1,369.6,325.8a50,50,0,0,0-1.92,21.12c.84,7.08,1.8,14.28,2.88,21.36,3.72,25.44,18.12,37.2,43,35.16,12-1,20.76-6.6,26.28-17,9.48-17.76,11.16-36.84,5.28-57.12a118.87,118.87,0,0,0-28-48.72q-21.42-22.5-15.48-52.92,5.58-28.26,35.28-14.4a26.46,26.46,0,0,1,7.68,12.6l4,13.32.6-.36c4.68-25.08-5.88-39.72-31.44-43.92a14.76,14.76,0,0,1-4.56,2A13.93,13.93,0,0,0,405,202.68Z" transform="translate(-154.18 -192.36)"/></svg>