<svg id="Layer_1" data-name="Layer 1" xmlns="http://www.w3.org/2000/svg" viewBox="0 0 297.76 213"><defs><style>.cls-1{fill-rule:evenodd;}</style></defs><path class="cls-1" d="M298.68,196.2a34.7,34.7,0,0,0-12.84,5.88c-27.24,19.8-43.56,47.28-49,82.2a495,495,0,0,0-5.28,53.64q-1.44,35.82,24.48,59.4c6.48,5.88,14,7.8,22.8,6A91.64,91.64,0,0,0,301,395.4c18.12-9.24,24.84-22.44,19.92-39.6l-2,.48-1.2.6C307.2,377.16,290,387,266.16,386.64a36.5,36.5,0,0,1-19.32-20.76,122.46,122.46,0,0,1-6.6-59.76l.36-2.28.24.24a243.28,243.28,0,0,0,48.6-.48l.72-1c3-5.28,2.76-10.32-.72-15.24l-46.68,4.32a185.81,185.81,0,0,1,25.68-62.52c11-13.44,25.44-19.44,43.2-18.12a25.9,25.9,0,0,1,8.64,9.72c1.2,2.4,2.88,3.36,4.92,2.76a20.43,20.43,0,0,0-1.32-12.24,33.25,33.25,0,0,0-11.64-14.64l-12.48-.48ZM226.44,212q-14.94,62.46-28.68,125.4c-2,9.6-4.32,19.08-6.72,28.44C189.24,350,187,334.2,184,318.48q-12.06-62.82-29.76-124c-1.32-.12-1.8.36-1.68,1.56q9.18,54.18,20.4,108.72a615.71,615.71,0,0,1,9.36,62.88c1.08,11.88,4.2,22.2,9.36,31.08l1-.6.84,1.44A234,234,0,0,0,201.72,365,1000,1000,0,0,1,230,240.84a132.27,132.27,0,0,0,5.28-47.4A46.26,46.26,0,0,0,226.44,212ZM370,200.4l-1.08-3.84a285.51,285.51,0,0,0-19.32,76.68c-1.08,10.44-2.64,21-4.68,31.44l-6.48,31.2-4.56,19.68a171.7,171.7,0,0,1-5.52,16.8,51.85,51.85,0,0,0-1.44,34.08A870.59,870.59,0,0,0,368,228.36l.72-4.68c3.48,31.8,8.64,63.24,15.24,94.56.6,2.52,1.32,4.92,2.16,7.44l2.88,6.84c.36-.36.6-.48.72-.48a1.24,1.24,0,0,1,.72,1l.72,1.44,26.64-118.68q13.5,83.7,26.28,167.64a134.81,134.81,0,0,0,3.36,15.36,53.28,53.28,0,0,0,2.64,7.32,432.54,432.54,0,0,0-6.12-84l-5.4-31.56c-1.68-10.56-3.48-21.12-5.52-31.56L427,227.64l-6.72-31.2a224,224,0,0,0-28,86.4,175.63,175.63,0,0,1-4,22.2L370.08,198.72Z" transform="translate(-152.5 -193.44)"/></svg>