<svg id="Layer_1" data-name="Layer 1" xmlns="http://www.w3.org/2000/svg" viewBox="0 0 301.47 211.8"><defs><style>.cls-1{fill-rule:evenodd;}</style></defs><path class="cls-1" d="M286.92,207.36A106.18,106.18,0,0,0,266.76,248a251,251,0,0,0,.48,126.84c3,11.52,10.08,18.48,21.24,21q34.2,7.38,54.36-20.52c7.56-10.56,8-19.8,1.32-27.72a59.44,59.44,0,0,1-29.88,30.12c-14.16,6.72-25.92,5.4-35.28-3.84a15.2,15.2,0,0,1-4.08-6.72,212.67,212.67,0,0,1-8.76-69.48,420.57,420.57,0,0,0,53.4-1.2l.48-.84c2.4-5.76,1.44-10.2-3-13.2a248.35,248.35,0,0,0-50,3.36,218.76,218.76,0,0,1,8-41.16q5.22-17.64,19.8-27.36c18.84-12.48,35.28-11.64,49.56,2.64a.91.91,0,0,0,.48-.84C345.6,201.24,336,192.6,316,193q-7.2,2-15.12,4.68A30.05,30.05,0,0,0,286.92,207.36Zm-37.56,4.8a1013.1,1013.1,0,0,0-27.84,125.16c-1.8,10.56-4,21-6.72,31.32a38,38,0,0,0-1.2,5.76q-5.94-30.78-15-61.44A981.33,981.33,0,0,0,155.28,193.2q-4.86,11.7,1.08,27.36l11.16,28.56A813.24,813.24,0,0,1,204,369.84c2.52,11.28,6.24,20.88,11.16,28.68l.6-.6.72,1.68a123.57,123.57,0,0,0,8.4-32.88,699.29,699.29,0,0,1,26.4-124.56c4.92-16,7.2-31.56,6.6-46.8A49.29,49.29,0,0,0,249.36,212.16Zm203.52-15.48a1,1,0,0,0-1.08.48,596.77,596.77,0,0,1-67,103.08,59.89,59.89,0,0,0-8.52,13.68L377.76,288a499.82,499.82,0,0,0-3-95.88c-1.56,15.48-2.52,32-2.88,49.56q-.72,47.88-4.08,95.64a335.09,335.09,0,0,0,1.8,64.2c4.92-5.28,6.12-11.76,3.48-19.44.84-14.88,1.56-29.76,2.16-44.52a213.44,213.44,0,0,1,19.44-28.44c4.92-6.24,9.72-12.6,14.16-19a280.33,280.33,0,0,0,9.6,38c5.88,18,11.4,36.12,16.32,54.36,2.52,9,6.36,16.2,11.64,21.36a6.75,6.75,0,0,0,1.8-7,1038.27,1038.27,0,0,0-36-111.84,342.12,342.12,0,0,0,42.36-86.76l-.6-.72Z" transform="translate(-153.09 -192.12)"/></svg>