<svg id="Layer_1" data-name="Layer 1" xmlns="http://www.w3.org/2000/svg" viewBox="0 0 297.39 212.01"><defs><style>.cls-1{fill-rule:evenodd;}</style></defs><path class="cls-1" d="M290.4,280.56h-6.12l5.4-12.72C289.8,272.16,290,276.36,290.4,280.56Zm29.88-71.28a37.88,37.88,0,0,1,14.76,10l2.88,3c.84-8.76-1.92-16-8.16-21.6a29.89,29.89,0,0,0-21.48-8.4l-2-.12a65.18,65.18,0,0,0-36.12,25,116,116,0,0,0-19.44,42.48,271,271,0,0,0-6.6,46.92,294.52,294.52,0,0,0,1,39.84,86.79,86.79,0,0,0,14.88,41.52c8.88,13.2,21.84,17.4,39,12.6q24.3-6.66,35.64-28.8c3-6.12,2.28-11.76-2.28-16.92a90.18,90.18,0,0,1-21.6,24.12,45.65,45.65,0,0,1-23.76,9.36,27.54,27.54,0,0,1-17.52-7.08,49.86,49.86,0,0,1-8.88-10,54.5,54.5,0,0,1-8.76-23,200.44,200.44,0,0,1-.72-49.44h21.12L265.8,328.2a1.82,1.82,0,0,0,1.92-.6l1.08-1.32.84-2.28.6-2.52-.72-1.92L277,298.68l15.48.12,7.8,34.32L297,298.92l24.72.6a14.09,14.09,0,0,0,1.92-7.68,14.6,14.6,0,0,0-1.92-6.84l-27.48-4.2-4.44-20.28-.24,2-10.32,18.12L253.08,285c3.24-24.6,13-46,29.16-63.84a41.11,41.11,0,0,1,27-13.8A26.48,26.48,0,0,1,320.28,209.28Zm-81-11.88Q222,258.78,208.56,321.6c-3.24,15.6-7,31.08-10.92,46.32-2.16-16.2-4.8-32.52-7.8-48.84A620.17,620.17,0,0,0,154,197.28c-1.08-.12-1.44.48-1.32,1.56a507.88,507.88,0,0,0,14.16,58.68A621.78,621.78,0,0,1,191,380.88c.84,9.36,3.72,16.56,8.64,21.72a3.29,3.29,0,0,0,1.44-3.12L201,398.4a13,13,0,0,0,3.48-7.56A1005.26,1005.26,0,0,1,229.2,265.56c2-7.68,4.2-15.36,6.6-22.92a120.44,120.44,0,0,0,5.76-47.52A2.65,2.65,0,0,0,239.28,197.4Zm156.72,4a97.47,97.47,0,0,0-23.52,39.12A254.69,254.69,0,0,0,364,366.12a46.71,46.71,0,0,0,10.32,22.32q23.76,28.8,53.4,4.8a59.28,59.28,0,0,0,12-12.72c-.36,7.8,1.2,14.28,4.92,19.68a13.07,13.07,0,0,0,3.12-7.2,416.78,416.78,0,0,0,1.68-65.88,1.93,1.93,0,0,0-.84-.48l-8-.6a49.24,49.24,0,0,0-23,4.56,13.19,13.19,0,0,0-.24,6.48l.24.84a135.65,135.65,0,0,0,27.84,1.68l-1.8,15-19.44,21.6A25.79,25.79,0,0,1,411,384c-20.52,5.4-33.12-1.56-37.92-20.64a204.87,204.87,0,0,1,.36-102.24q7.74-30.06,28.08-50c19.08-2.16,34.32,2.76,46,14.64l.24-.84c-2.64-20.76-15.84-30.24-39.72-28.68C403.44,196.08,399.48,197.88,396,201.36Z" transform="translate(-152.62 -192.12)"/></svg>