<svg id="Layer_1" data-name="Layer 1" xmlns="http://www.w3.org/2000/svg" viewBox="0 0 290.26 206.42"><defs><style>.cls-1{fill-rule:evenodd;}</style></defs><path class="cls-1" d="M322.68,204.84c.36,11.4,1.08,22.68,2.16,34a426.35,426.35,0,0,1-1.92,95.88c-3.24,24.12-16.8,39.12-40.68,44.76a20.54,20.54,0,0,1-17.52-3.36c-6.72-4.8-10.44-11.52-11-20.16a803.28,803.28,0,0,1,1.68-127.2q1.8-19.26-5.4-31-2.52,43-4.56,86.88c-.48,9.72-1.32,19.32-2.4,29-3.72,29.64,2,56.28,17.28,79.68,10.56,5.16,21.12,5.52,31.8,1.08a42.13,42.13,0,0,0,16.56-12.24q26.82-32.22,26-75.84c-.24-15.48-.6-31-1.2-46.44a550.1,550.1,0,0,0-6.12-64C324.12,197.52,322.56,200.4,322.68,204.84Zm-98.88-3.48a6.4,6.4,0,0,0-1.92-2.76l-41.16-4.8-23.28.24-3.24,1.56a691.6,691.6,0,0,0-2.88,131.88,206.85,206.85,0,0,1,.48,24.36q-.54,12.06-2.16,24.12a38.4,38.4,0,0,0,1.2,16.08,29.63,29.63,0,0,0,3.6,7.32,359.5,359.5,0,0,0,4.08-107.16l47.4-4.56a10.13,10.13,0,0,0,1.68-3.84,14.34,14.34,0,0,0-.24-7.8,7.3,7.3,0,0,0-1.92-3.24,170.55,170.55,0,0,0-46.92,6.72l-.36-71.76a281.1,281.1,0,0,1,64.2,6.6,9.22,9.22,0,0,0,1.68-3A14.92,14.92,0,0,0,223.8,201.36Zm142.56,96.36A58.41,58.41,0,0,0,392,291q25.2-2,36,23c6.6,15.24,5.76,29.88-2.28,44.16-8,14-20.4,21.48-37.2,22.32a52.24,52.24,0,0,1-30.84-9.36l2.4-76.44Zm47.88-49.08c-4.56,14-13.56,23.76-27.12,29.16A59.73,59.73,0,0,1,367.2,282l-6.6-3.24L357.48,212c15.84-3.84,29.76,0,41.88,11.52A53.19,53.19,0,0,1,414.24,248.64Zm-56.52-48.72-.84,1.2-.24-4.44q-5.22,17.1-4.68,38.16c1.2,43.08.36,86.16-2.64,129-.84,12.24,1,22.8,5.16,31.68l1.08-7.32,8.64,6q14.58,8.46,32,5,34.38-6.84,41.16-39.72c6.84-33.6-2.64-60.48-28.68-80.64,9.84-10.32,13-22.68,9.48-37.2q-9-37.08-43.8-46.08v.12a29.63,29.63,0,0,0-16.2,3.48Z" transform="translate(-149.28 -193.8)"/></svg>