<svg id="Layer_1" data-name="Layer 1" xmlns="http://www.w3.org/2000/svg" xmlns:xlink="http://www.w3.org/1999/xlink" viewBox="0 0 532.86 595.44"><defs><style>.cls-1{fill:none;}.cls-2{clip-path:url(#clip-path);}.cls-3{fill-rule:evenodd;}</style><clipPath id="clip-path" transform="translate(-24.63 -1.68)"><rect class="cls-1" x="24.36" width="534.96" height="597.24"/></clipPath></defs><g class="cls-2"><path class="cls-3" d="M363.6,487.56,360.12,489q-7.2,31.32,18.72,55.32a18.53,18.53,0,0,1,5.64,11.88c1.56,15-4.56,21.72-18.48,20.4a15.58,15.58,0,0,1-13.2-9.24l.48-2.76-3.12-5.28c-4.32,17,2.28,27.48,19.92,31.44l3.24.72c12.6-7.92,18-19.44,16.2-34.68-2.28-18.48-10.68-33.72-25.08-45.72L361.2,499.8c10.32-2.76,17.16.72,20.4,10.44a30.63,30.63,0,0,1,1.56,7.32c3.84-13.92-.72-23.4-13.8-28.32C367.56,488.64,365.64,488,363.6,487.56Zm127,13.68L506,516.36c.72-8.64-2.4-15.48-9.24-20.64a27.08,27.08,0,0,0-14-5.16,43.86,43.86,0,0,0-8.28,25.92A172.76,172.76,0,0,0,492,558.84a49.34,49.34,0,0,1,5.64,16.08q-5.4,7-14,5c-6.36-1.56-10-5.52-11-12.12l-.48-2.76-4-.6q-4.5,10.26,2.88,19.8a26.39,26.39,0,0,0,7.2,6.48l2.88,1.8c9.48,1.44,15.24-1.92,17-10.08q7.2-32.22-13.68-59.16c-4.8-6.36-5.52-13.44-2-21.12Zm-34.92-11.88-.84-1.2a105.77,105.77,0,0,0-51.12,13v6.48l3.12,1.56,23.4-7.68a652.53,652.53,0,0,0-.12,95.64,457.26,457.26,0,0,0,1.08-95.88l24.72-3.36A8.94,8.94,0,0,0,455.64,489.36Zm-6-43.44-4.56-6L431.88,438c-12.36,11.4-15,25.2-8.16,41.4l1.08,2.16c5.4,3.6,11.28,4.2,17.64,1.68a23.64,23.64,0,0,0,5.64-3.48l-.84-8.16-15.36,4.08L427,472.92c-3.48-7.56-2.76-15,2.16-22.08l2.4-3,16.32,1.68Zm22.56-8.28-3.6-.36L460,442.44l-2.16,3.24c-5.4,14.28-4.92,28.08,1.68,41.4a27.79,27.79,0,0,0,12.6-3,28.47,28.47,0,0,0,7.92-6.24l-.72-8-18.48,7.8L457.32,467l20.76-5.4-.48-8.16L458,459a19.34,19.34,0,0,1,10.32-12l2.4-1.08,4.92,1.08,2.52-1.56c.6-2.88-.48-5.16-3.24-6.72A6.06,6.06,0,0,0,472.2,437.64ZM173.64,548.4l6.72,13.2-14.52-.12Zm-65.4-80.52C105.72,481.2,97.8,487.2,84.48,486l3.6-54.24C104.76,438.84,111.48,450.84,108.24,467.88Zm89.52,126.6a91.66,91.66,0,0,0-10-34A97.59,97.59,0,0,0,172.08,538a157.47,157.47,0,0,0-20.88,45.72,26.2,26.2,0,0,0-.84,9.12l11-22.8a34.8,34.8,0,0,0,11.16,1.44,34.16,34.16,0,0,0,11.16-2.16Zm46-14.4L239.4,576a68,68,0,0,1-2.16-37.32l-3-3a91.77,91.77,0,0,0,1.44,46.92c13.8,11.76,24,7.92,30.84-11.52a32,32,0,0,0-3.24-29.4c1.56,14-2,25.44-11,34.32A13.33,13.33,0,0,1,243.72,580.08Zm25.68-96,16.32,56.52,8.64-23.28,11.88,24.6a94.65,94.65,0,0,0,17.52-41.76c.72-4.44.12-7.92-1.8-10.2l-16.2,39.6a52,52,0,0,0-6.6-15.48,41.41,41.41,0,0,0-5.88-7.32l-7.8,20a158.86,158.86,0,0,0-16.08-43Zm-46.68-253.8,3.72-3.6A502.89,502.89,0,0,1,251.88,396.6l-.6,16.08c-.72,10.8-1.92,21.48-3.48,32.16s-3.48,21.24-5.88,31.68a101.67,101.67,0,0,1-7.08,21.12,56.86,56.86,0,0,1-9,13.8A53.36,53.36,0,0,1,213,521.76l-6,3.48q-32.94-93.42-21-196.56l3.24-28.92a364.87,364.87,0,0,1,11-56.76l4-14a25.79,25.79,0,0,1,20.52-5.88Zm15.48-2.4a52.18,52.18,0,0,0-9.84-15.72c-17.4-2-28.32,5.28-32.52,21.84a519.69,519.69,0,0,0-16.08,127.56,1194.07,1194.07,0,0,0,6.48,128.28,113.85,113.85,0,0,0,12.48,41.28c4.68,8.76,10.68,9.6,18.12,2.52,15.72-14.76,25.92-33.12,30.84-55.08a416.93,416.93,0,0,0,8.76-127.68A928.49,928.49,0,0,0,238.32,228.6ZM84.48,422.64,83,429.84l1.56,1.08c-1.44,20.28-3.36,40.08-5.88,59.64-1.92,15.48-3.24,31.32-3.84,47.28-.12,4.44.36,7.92,1.56,10.56l7-51.72,13.08-1.8A96.37,96.37,0,0,0,110.4,532.2a131.07,131.07,0,0,0,7.8,11.16q.9-13.5-8.28-28.08a86.77,86.77,0,0,1-9.84-21.72A25.37,25.37,0,0,0,115,475.08a51.77,51.77,0,0,0-3.12-32.64,30.54,30.54,0,0,0-16-16.2A48.42,48.42,0,0,0,84.48,422.64Zm12.6-318.48A777.5,777.5,0,0,0,97,187.8q3.24,64.44.36,129A419.26,419.26,0,0,0,99,381a167.27,167.27,0,0,1,60.36.48c2.88-5.16,2.64-10.08-.84-14.52a43.09,43.09,0,0,0-10.32-3.84l-.24.6c-.36,1.32-1.08,1.68-2.4,1.08a154.27,154.27,0,0,0-41.76-1.92l.12-2.4.6-129.12a1118.6,1118.6,0,0,0-6.84-127.44Zm11.16-91.44a221.48,221.48,0,0,1-80.4-8.4L27.6,3H27l-.12,1.2-.36.24a3.92,3.92,0,0,0-1.68,3.12,7.14,7.14,0,0,0,1,4.44,200.88,200.88,0,0,0-1,30.84c1.68,43.08,1.92,86.16.84,129S25,257.4,26.88,300c1.8,43.08,3.24,86,4.2,129.12A1072.51,1072.51,0,0,1,26.16,558c-1.2,12.24.36,22.8,4.68,31.8a10.23,10.23,0,0,0,3.36-7.2c2.88-42.84,4.2-85.8,4-129.12-.24-42.84-1.44-85.68-3.6-128.28-2-41.16-3.12-82.44-3-123.72a408.89,408.89,0,0,0,45.6,2,14.49,14.49,0,0,0,.72-11.4,3.89,3.89,0,0,0-2.16-2.4h-5l-9-.6a113.73,113.73,0,0,0-30,2.88Q32,129.9,33,67.08A332.15,332.15,0,0,0,29.52,14.4C54.84,24.24,82,27.84,110.64,25.2l.72-1.68a12.19,12.19,0,0,0,.72-4.08A9,9,0,0,0,109.8,13Zm91.8,62-4-1.08,1.08-13.92a23.33,23.33,0,0,1,16.08,6.6l1.8,1.8-5,6.36-4.32.72-1.2-1.68C204.36,75.36,202.92,75.84,200,74.76ZM213.48,57.6a23.91,23.91,0,0,0-14.64-2.28l-1.68.36V54.12a104.22,104.22,0,0,0-12.24,47.4,20.19,20.19,0,0,0,2,9.48l7.92-29.28,11.4,1.92a87.71,87.71,0,0,0,15.48,32.88,100.4,100.4,0,0,0-11.4-33.6l7.92-6.84-1.32-15ZM223,3a17.48,17.48,0,0,0-10.68,13.2q-7.38,33.3,25.8,40.92c13.8,3.12,21.36-2.28,22.68-16.08C263.28,15.48,250.68,2.88,223,3Zm10.92,8.28,2.28,3.12c21.24,7,24.48,16.56,9.48,28.68-6.6,5.4-13.32,5.28-20.28-.36-14.52-11.88-14.16-22.08.84-30.6Zm81,12.6c-2.28,17.76,5.52,27.6,23.28,29.64,19.32,2.52,28.08-5.64,26-24.72-1.32-11.88-7.44-19.2-18.48-22.08C327.6-1.56,317.4,4.2,314.88,23.88Zm1.92,3.48c2.76-12.6,10.8-17.76,24.36-15.24,9,4.56,15.12,11.88,18.24,22Q347.7,58,323.28,37.56A20.27,20.27,0,0,1,316.8,27.36ZM549,288.72h-.12C549.24,292.2,549.24,292.2,549,288.72Zm0-17.4-10-1.2q-32.4,44.64-16.8,106.2c15.84,11.16,26.4,7.2,31.68-11.64a11.31,11.31,0,0,0,.24-5.64c-19.92,21.24-30.84,16-32.76-15.6a102.64,102.64,0,0,1,7.32-45.36c8.28-20.52,17.4-21.84,27.6-4.2C559.2,284.64,556.8,277.2,549,271.32ZM475.44,381.24l-7.92-.24c-8.28,10.08-7.68,19.44,2,28.08a21.15,21.15,0,0,0,4.44,2.76,12.7,12.7,0,0,1-12.12,6.84,19.21,19.21,0,0,1-8.76-2.4c3.72,16.68,11,16.08,22-1.56,2.52-4,2.28-7.92-.6-11.88a18.74,18.74,0,0,0-9.6-7,7.25,7.25,0,0,1,3.36-5.4,9.72,9.72,0,0,1,5-1.68l.84.36,1.56,3.72L478.2,386ZM458,338.76l2.4,4c3.24-6.48.6-11-7.92-13.56-10.44-3.36-16.8,1.08-19.08,13.2-5,19.56,1.2,29.28,18.84,29.4,7.56.12,10.2-3.72,7.92-11.28l-5.52,5.16-9,1.08c-5.64-3.72-8.4-9-8.28-16a22.61,22.61,0,0,1,4.68-13.56,16.23,16.23,0,0,1,16,1.56Zm67.2-4.2h23.88V324.24H525.24Zm-90,53.16a154.16,154.16,0,0,0-4.32,34.68,40.86,40.86,0,0,0,1.32,11l2.88-7.56,1.56-38.4,15.48-2.16-.6-8.16-32.76,6-.48,8Zm-26.52-46q-2,63-7.44,125.52l-14-114.84a130.11,130.11,0,0,0-7.32-31,267.44,267.44,0,0,0-5.52,41.88q-3.42,63.36-3.24,125.52a15.66,15.66,0,0,0,2.76-8.52Q377,417.54,381,354.72c5.4,34.68,9.72,69.72,12.72,104.88,1.08,12,3.72,22.2,8,30.72a417.91,417.91,0,0,0,9-69.84c.84-21.36,2.52-42.6,4.8-63.84a73.16,73.16,0,0,0-2.64-31.08A35.33,35.33,0,0,0,408.72,341.76ZM357.36,89.52c1.56-12.84-.6-23.4-6.72-31.56a86.52,86.52,0,0,0-6,16.08l1.08,2.16,2.52-6.12v56c-.12,43.08.36,86.16,1.32,129a1265.93,1265.93,0,0,1-3.84,128.28l-3,32.64c-1.8,18.12-8.88,33.36-21.24,45.6a8.77,8.77,0,0,1-6.6,2.64c-14.28-.36-21.72-8.64-22.2-24.84-1.32-42.6-2.64-85.44-3.84-128.28s-1.44-85.92-.6-129,.24-85.92-2-128.28h-.48c-3,33.48-4.44,67.56-4.32,102q.36,64.44,2,129.12c1.08,42.48,1.32,85.2,1,128.16a154.87,154.87,0,0,0,9.72,55.32c5.16,13.92,14.4,17.4,27.84,10.56a18.24,18.24,0,0,0,8.16-8,223.3,223.3,0,0,0,24.12-91.08q3.42-64.08,2.28-129.12c-.6-42.84-1.08-85.92-1.2-129A223.19,223.19,0,0,1,357.36,89.52Zm132.36,84.84,8.16-1.08a23.47,23.47,0,0,1,10.2,13.32l.84,1.44c3-10.08-.24-18.48-9.72-25.08l-8.88-.36q-14,33.3,5.64,70.08c12.48,23.4,14.28,47,5.28,70.68A33.73,33.73,0,0,1,494,315c-17.16,1.8-26.28-5.88-27.36-23.28l-7.08-1.56,3.24,4.2c-1.8,19.44,6.6,30.72,25.32,34l5.88.24q33.12-35.82,13.44-86.52c-4.68-12.24-9.12-24.72-13.08-37.32l-8.16-25.32ZM471.84,158a37.78,37.78,0,0,0-20,6.72l.36,6.48,21.36-2.64c2.52-3.48,2.28-6.6-.48-9.48Zm-82.92,16.8a9.14,9.14,0,0,0,.72,2.4l22.44,1.68c-1.2,10.44-2,21.48-2.64,33a350.28,350.28,0,0,1-3.84,38.76c-1.56,10-.72,18.48,2.4,25.56l.48-.6A385.2,385.2,0,0,0,413,178.92L434.52,180a7.77,7.77,0,0,0,1.32-3.84,6.8,6.8,0,0,0-2.64-6.48l-1.32-.12-4.44-.12a178.38,178.38,0,0,0-37.56,1.32A8.9,8.9,0,0,0,388.92,174.84Zm17.76-43.68a36.55,36.55,0,0,0,10.08-18l1.32-6.6-16.8,18.12L393.36,136l.84-30.12a139.89,139.89,0,0,0-6.48,48.6A24,24,0,0,0,390,164.52l2.76-20.88,11-9.72a94.42,94.42,0,0,0,16,30.12l.12-.12a84.17,84.17,0,0,0-10.8-29Zm-6.84-43.32c-.72,9,.6,16.08,4.08,21.24l.48-.84a250.51,250.51,0,0,0,.6-56c-2.28,1.44-3.48,3.84-3.6,7.32C401,68.88,400.56,78.36,399.84,87.84Zm65.52,10.92c-12.6,12.48-18.36,28-17.52,46.44a154.28,154.28,0,0,1-2,34c-2.28,13.8.48,26.16,8.28,36.84l-1.8,2.52,12.12-1.32a14.53,14.53,0,0,1,4.56,0l-2.64-1.8A24.33,24.33,0,0,0,475,203a21.8,21.8,0,0,0,.72-11.76,34.55,34.55,0,0,1-20,17.4,166,166,0,0,1,0-77.52,57.53,57.53,0,0,1,3.84-11c1.8-3.6,3.6-7.08,5.64-10.56,2.88-.6,5,.12,6.36,2.28,2.28,3.72,4.44,7.56,6.36,11.52,2.28-8.28.6-15.6-4.92-22.2L471.12,99Zm7.44-96q-29.34-1.26-56.16,13.8L416.28,21l27.6-6a521.44,521.44,0,0,0-7.68,87.24,18.2,18.2,0,0,0,1.8,7.92l8.76-95,26.64-6Zm68.64-.84-13.32-.24C526,4.92,525.6,9,526.92,13.8a32.28,32.28,0,0,0,11.28,17,106.28,106.28,0,0,0,8.64,9.48,2.39,2.39,0,0,1,.84,3c-11.88,6.12-22.92,5.64-33-1.68l-.6.72a10.62,10.62,0,0,0-.48,7.92l.48.84C526,60.84,538,61,550,51.48c2.64-2,3.36-4.44,2.28-7.2a101.82,101.82,0,0,0-20.88-31.56q5-4.5,10.44.72l.48.6c3.48-1.56,3.84-4.8,1.2-9.48A14.14,14.14,0,0,0,541.44,1.92Z" transform="translate(-24.63 -1.68)"/></g></svg>