<svg id="Layer_1" data-name="Layer 1" xmlns="http://www.w3.org/2000/svg" viewBox="0 0 311.88 219.25"><defs><style>.cls-1{fill-rule:evenodd;}</style></defs><path class="cls-1" d="M225.72,201.72l.12-2v-3l-.48-2.4a6.34,6.34,0,0,0-1.08-2.4l-44.64-3.6a100.79,100.79,0,0,0-25,2.76,16,16,0,0,0-1.8,6.72q-4.5,96.12-4.92,192.36a12.39,12.39,0,0,0,.48,3.6l1.32,3.48,1.44,3.24a7,7,0,0,0,2-4.8q2-53.82,4.68-108l55.56-2.4a12.7,12.7,0,0,0,1.68-4.8l.24-1.68v-1.68L215,275.4l-1.32-3-1.08-1.8A112.8,112.8,0,0,0,174,271.8a77,77,0,0,1-15.6,1.92l-.48-71,66.36,3A7.19,7.19,0,0,0,225.72,201.72ZM242.64,207,236.4,335.28A112.08,112.08,0,0,0,244,382.44c6,15.48,17.64,21.24,34.8,17q36-8.64,40.44-46.2A827.63,827.63,0,0,0,324.72,260,370.91,370.91,0,0,0,319.8,196c-.72-.12-1.08,0-1.08.6a632.55,632.55,0,0,0-2.64,90.72,258.52,258.52,0,0,1-5.28,64C307.32,367.8,297.36,378,281,381.72q-34.2,7.74-35.52-24.84a984.42,984.42,0,0,1,3.12-129c1.08-12.36-.24-22.8-3.84-31.44A30.11,30.11,0,0,0,242.64,207Zm157.8-9.24q-5.76,55.62-7.2,112.08c-.6,21.6-2,43.2-4.44,64.68-1.44,12.6.24,23,4.92,31.56a149.5,149.5,0,0,0,5.4-34.8l2.52-77.64a288.6,288.6,0,0,0,49.2,4.08l.72,13.2a270.36,270.36,0,0,1-3.36,64.68c-2,12.12-.84,22.8,3.6,31.92A352.31,352.31,0,0,0,459.72,323q-1.62-65-4.68-128.16c-.6-.12-.84-.12-.84.24a678.92,678.92,0,0,0-3.84,87.12l-7.68-.12A85.37,85.37,0,0,1,428,280.56H415.56a36.5,36.5,0,0,0-13.68,2.52L403,243c.36-16.68.48-32.64.24-47.88A2.49,2.49,0,0,0,400.44,197.76Zm-34.68-4.32a16,16,0,0,0-4.8,4.2c-15.24,19.68-17.64,41.76-7,66.36a498,498,0,0,1,22.2,61.32,43.73,43.73,0,0,1-1.44,29.76c-9,22-25.8,29.88-50.4,24a17.94,17.94,0,0,0-2.16,12.24,8.3,8.3,0,0,0,4.68,6.36,108.1,108.1,0,0,0,21.6,2.16C373,390.6,385.2,373,385.32,347.16a103.45,103.45,0,0,0-1.68-18.36,293.6,293.6,0,0,0-25.44-76.2q-13.14-26.82,7.32-45l22,1.56a11.93,11.93,0,0,0,1-4.08,9.69,9.69,0,0,0-1-4.08l-1.08-2.4-1.44-.84A31,31,0,0,0,365.76,193.44Z" transform="translate(-147.96 -188.27)"/></svg>