<svg id="Layer_1" data-name="Layer 1" xmlns="http://www.w3.org/2000/svg" viewBox="0 0 304.48 206.36"><defs><style>.cls-1{fill-rule:evenodd;}</style></defs><path class="cls-1" d="M328.92,199.92a1054.64,1054.64,0,0,1-5.28,121.8,138.19,138.19,0,0,1-13.08,46.56q-12.6,26.1-41.64,15A23.93,23.93,0,0,1,255,370.56c-6.48-14.16-8.88-29.64-7.32-46.44A918.78,918.78,0,0,0,251.28,196a1018.89,1018.89,0,0,0-8.76,105.48q-.9,32.22.72,64.08c.84,16,8.64,27.12,23.4,33.24a42.18,42.18,0,0,0,29.4,1.68,21.15,21.15,0,0,0,12.36-10.08Q335,341.76,334.56,285q-.36-32.22,1.8-64.08c.72-10.08-1.32-17.88-6.24-23.4A2.54,2.54,0,0,0,328.92,199.92ZM227.4,198.24l-70-1.56c-2.64,2.52-4.08,6-4.32,10.32q-4.5,91.08-5.16,181.92a18.47,18.47,0,0,0,2,8.4l1.44,2.4,1.68,2a15.5,15.5,0,0,0,3.24-10.2c-.6-31.56-.6-63.12.24-94.56l45,.36a14,14,0,0,0,1.68-9l-.36-1.8-.72-1.92L201,283l-1.32-1.8-42.72,4,1.32-73.8L227,213.24a9.66,9.66,0,0,0,2.28-4.56l.12-1.2.12-1.32-.12-1.32-.24-1.44v-.72l-.6-2.4Zm215.52,75.12a144.59,144.59,0,0,0-2.4,54.36c-1.32,9.24-2.28,18.72-2.88,28.2-1.32,19.8-12,26.52-32,20.4l.12-.72a8.07,8.07,0,0,0-1.2-7.32c-2.28-2.4-4.68-2.88-7.08-1.32q-7.56,30.42,25.2,30.24a60.5,60.5,0,0,0,10.08-5.76,15.41,15.41,0,0,0,5.4-6.48,120.51,120.51,0,0,0,9.48-51.36c-.48-20.88-1.56-41.16-3.36-60.84C443.52,272.64,443,272.76,442.92,273.36Zm.84-42.84c-7.08,7.32-8.64,16-4.68,25.8,7.92-.36,12.36-4.2,13.2-11.76a19.48,19.48,0,0,0-.72-8.28l-2.4-1.44-2.76-4Zm-92.52-27-.48,12.24,38.16,2.52a802.26,802.26,0,0,0-7.08,178.56l.72-.12A612.6,612.6,0,0,0,391.08,304l.6-28.68.6-28.44.12-14.28V218.4l35.88.24.72-1.08a13.2,13.2,0,0,0,.24-12.84l-.48-.84L369,202.2Z" transform="translate(-147.96 -195.96)"/></svg>