<svg id="Layer_1" data-name="Layer 1" xmlns="http://www.w3.org/2000/svg" viewBox="0 0 303.49 211.8"><defs><style>.cls-1{fill-rule:evenodd;}</style></defs><path class="cls-1" d="M289.92,199.2c-1.32,10.68-2.52,21.36-3.48,32.28-1,11.64-1.44,23.4-1.56,35Q284.7,331,281.16,394.8q.54,2.88,3.24,2.16a442.76,442.76,0,0,0,8.4-70.56,1267.7,1267.7,0,0,0-1.2-128.28C290.64,197.88,290,198.24,289.92,199.2Zm-64.56,7.68.48-2.52a12.38,12.38,0,0,0-1.92-8.52l-35.64-5-29.64,4.68-.36-1.68-.36.12-.48,2-1.56.48-.36,11.28A1162,1162,0,0,0,151,402.6q13.68-52.38,6.72-112.44l48.84,3.12a8,8,0,0,0,2.4-4.8,18.56,18.56,0,0,0-.12-5.76,9.06,9.06,0,0,0-2.64-4.8A174.68,174.68,0,0,0,158,277l1.32-69.6a240.64,240.64,0,0,1,64.32,1.8A5.15,5.15,0,0,0,225.36,206.88Zm137.52-7.68v-1.44a39.09,39.09,0,0,0-4.8,13.68q-10.8,62.28-22.68,124.32a112,112,0,0,1-10.68,30.84c-6,11.76-6.6,22.32-1.68,31.68a310.28,310.28,0,0,0,22.44-74.64c3.48-20.88,7.56-41.64,12-62.28a239.46,239.46,0,0,0,5.76-51.6c3.72,29.28,7.8,58.8,12,88.56a115.78,115.78,0,0,0,8.4,30.72l.48-.48.6,1.2,21.36-71.88a259,259,0,0,0,9.84-48.24c.72,11.76,2,23.52,3.84,35.28q10.08,62.82,20.88,125.76a156.8,156.8,0,0,0,8.52,31.08q6.48-18.18-.36-38.88a213.68,213.68,0,0,1-9-38.52q-9-63.18-21.72-125.16a2.26,2.26,0,0,0-1.32.6L417,196c-9.24,24.36-17.4,49.92-24.72,76.92q-3.6,13.5-8.28,26.28l-1,3q-6.12-50.22-16.68-99.72l-.6-.84Z" transform="translate(-148.82 -190.8)"/></svg>