<svg id="Layer_1" data-name="Layer 1" xmlns="http://www.w3.org/2000/svg" viewBox="0 0 434.54 416.88"><defs><style>.cls-1{fill-rule:evenodd;}</style></defs><path class="cls-1" d="M169.32,84.24,77.4,82.32c-2.64.84-3.72,2.76-3.36,5.88l.12.84V90.6l.12.84a5.69,5.69,0,0,0,1.92,4A600.89,600.89,0,0,0,64.32,197.52q-2,64.26-2.52,129.12c-.36,42.6-1.68,85-3.84,127.32-.48,10,1.8,17.4,7,22.56A57.46,57.46,0,0,0,69,453.72q-.9-64.44,0-129c.36-26,.84-51.84,1.56-77.64l68.52-6,.6-.6c3-5.64,2.88-11-.6-16.2a267.81,267.81,0,0,0-68.16,9.6c.36-12.72.84-25.44,1.44-38.28a464.14,464.14,0,0,1,4.44-48.36,297.43,297.43,0,0,0,3.36-51.12,352.5,352.5,0,0,0,90,3.24A14.52,14.52,0,0,0,172.08,92V91.2l-.12-.84-.12-.84-.12-.72a16.85,16.85,0,0,0-1.56-4.08A.91.91,0,0,0,169.32,84.24ZM298.44,209.76c-6.36,3.36-12.72,6.6-19.2,9.6l-.6-2c-1.8,0-2.64,1-2.4,2.88v.6c-5.76,2.64-11.64,5.16-17.76,7.56l.72-14.28q2.7-59.4,2.28-117.48c16.8.36,28.92,7.8,36.48,22.2Q322.08,165.06,298.44,209.76ZM258.72,94.56a147.61,147.61,0,0,0-4.44,35.88q-.54,64.44-3.24,128.28c-1.8,43.32-4.44,86.28-7.8,129.12-1.68,21.36-4,42.6-6.84,63.84-1.68,11.88-.36,22.68,3.84,32.4a20.52,20.52,0,0,0,5.28-13.44q2.52-64.26,6.72-128.4,3.06-48.24,5.4-96.48h3.72a50,50,0,0,1,17.16-8.52c2.52,17.64,5.88,35.28,10,52.92q14.4,61.92,29.64,124c5.16,21,10,42.12,14.64,63.12,2,9.48,5.88,16.8,11.4,22l.48-.84a63,63,0,0,0,0-29.16l-.24-.36a3.15,3.15,0,0,0-1.08,3c-1-.84-1.92-2.88-2.76-5.88q-17.64-61.74-31.68-124.44Q297,288.06,283.44,235.68a31.68,31.68,0,0,0,10.32-7.32q30.6-32.58,21.24-79.2c-2-10-4.56-19.92-7.56-29.64q-10.8-34.38-46.68-35c-1.44.6-2.28,1.92-2.4,4a13.5,13.5,0,0,0,.12,4.92Zm-52.08-3.84a905.49,905.49,0,0,0-7.44,98.16L197,284.64q-1.62,64.62-6.12,129a257,257,0,0,0,3.36,64.2c.72-.24,1.08-.6,1.08-1q4.32-40.5,5.76-81.84,1.26-39.78,3.12-79.56c1.32-32,2.64-64.2,3.72-96.48,1.56-43.32,1.32-86-.72-128.4ZM449.4,96.84c9.12,3.12,15,9,17.76,17.76l.36,1.8c2.52-20-7.2-30.48-29.28-31.32a37.79,37.79,0,0,0-24.84,8.64,123.22,123.22,0,0,0-39.6,55.44,221,221,0,0,0-12.84,59L356.52,265,353,310.56q-.9,12.06-.72,24.12a418.08,418.08,0,0,0,7.92,71.16A218.11,218.11,0,0,0,366.12,429,79.32,79.32,0,0,0,374,446.52a74.75,74.75,0,0,0,8.64,12.24,68.68,68.68,0,0,0,35.4,22.68A55.45,55.45,0,0,0,460,476.76a64.78,64.78,0,0,0,23-20.4,49.47,49.47,0,0,0,9.36-31.92l-4,3.36q-11.16,26.46-39.12,34.92a57.1,57.1,0,0,1-40.56-2.64c-12.84-5.52-22.8-14.88-29.76-28a140.85,140.85,0,0,1-11.88-30.48,202.1,202.1,0,0,1-6.72-47.88l-.48-40.2c-.12-13.2.24-26.28.84-39.24a225.25,225.25,0,0,0,69-1.2,14.7,14.7,0,0,0,2-10.68,13.72,13.72,0,0,0-2.64-5.88l-67.56,4.56q-2-85.32,49.44-148A41.78,41.78,0,0,1,439,97.8Z" transform="translate(-57.9 -82.32)"/></svg>