<svg id="Layer_1" data-name="Layer 1" xmlns="http://www.w3.org/2000/svg" viewBox="0 0 507.34 468.72"><defs><style>.cls-1{fill-rule:evenodd;}</style></defs><path class="cls-1" d="M82.68,415.92c-.36,17.28-1.44,34.56-3.12,51.72-1.2,12,.12,22.8,3.84,32.4a9.06,9.06,0,0,0,2.4-2.88,205.93,205.93,0,0,0,65.4-2.52l.36-.84c2.76-6.24,1.8-11.64-2.76-16.2a527,527,0,0,0-61.56,8.28,1138.31,1138.31,0,0,0,2-119.52A212.37,212.37,0,0,0,82.68,415.92ZM104.16,217.8c17.4,2.16,24.36,11.16,20.64,27.12q-2.88,12.78-15.48,18.36a54.45,54.45,0,0,1-12.6,3.6l.48-44.28Zm-11.88-3.72L93.6,223,89.16,267.6l-7.68-.48a15.93,15.93,0,0,0-1.56,8.4A9.3,9.3,0,0,0,82.08,281l5.76,1.44q-3.24,33.12-7.68,65.76a23.57,23.57,0,0,0,2.64,14.64,227.74,227.74,0,0,0,13.08-80L107,281.16a186.26,186.26,0,0,0,29.88,77.4Q133.68,319.14,112.8,279a40.43,40.43,0,0,0,17.4-17.88c5.88-11.76,6.84-23.88,2.64-36.24a35,35,0,0,0-9.6-14.64q-10.8-9.72-22.68-3.6ZM139.08,54c-16-1.56-32-2.52-48.12-2.64C81.84,53.64,72.48,55.44,62.88,57a4.57,4.57,0,0,0-2,1,13.17,13.17,0,0,0-1,4.8V66l.24,1.44C56.16,110,53.88,152.88,53,196Q52,252.3,52,308.76q0,64.26.6,128.16a222.09,222.09,0,0,1-1.92,32.28c-1.68,12.36,0,22.92,5.16,31.92a21.12,21.12,0,0,0,4.08-13q.36-46.08,1-91.8,1.08-64.62-.6-129c-.6-22.2-.84-44.28-.6-66.36l74-1.8.6-1c3.36-5.64,3.12-11-.6-16.08-3,.12-6.12.12-9.12,0a193.67,193.67,0,0,0-64.68,6c.36-16.68,1-33.24,1.8-49.92.6-10.68,1.44-21.48,2.76-32.16a249.63,249.63,0,0,0,1.68-36.24Q102.66,68.4,139.8,69a14.51,14.51,0,0,0,1.92-4.92,15.1,15.1,0,0,0-.36-5.64l-1.08-3.24-.48-.84ZM192,59c-1.8,42.36-2.4,85.08-2,128.16s.24,86-.48,129.12-2.16,86-4,129a220,220,0,0,1-3.84,32.16c-1.92,10.32-.12,18.24,5.52,23.64A83.13,83.13,0,0,0,192.12,476q3.06-64.44,4.44-129.12,1.26-64.26-.36-129.12c-.24-10.8-.24-21.6.12-32.4,1.2-43.32.84-86.16-1-128.28a3.85,3.85,0,0,0-3.24,1.08Zm165.24,32c-4.44-17.88-17.4-27.48-39.12-28.56-17.88,5.16-31.32,16.2-40.32,32.88a292.75,292.75,0,0,0-31.56,92,802.77,802.77,0,0,0-11,128.4l-.48,32.4q-1.8,69.84,40.08,124.32,16.56,21.6,38.16,9.36c6.6-3.72,13-7.8,19.2-12a64.45,64.45,0,0,0,13.8-12.6l-1.56,7.92c-2.52,11.4-1.32,21.12,3.6,29.4a88.42,88.42,0,0,0,5.76-24.24,228.4,228.4,0,0,1,3.12-24.12c3-17.4,1.92-33.84-3.48-49.08a256.32,256.32,0,0,0-39.6,2.64l-.36,1a13.67,13.67,0,0,0,.12,10.44,246,246,0,0,0,37.32,2.16l-.36,7-1,.12-1.08.24a63.47,63.47,0,0,1-17.64,29.16A68.13,68.13,0,0,1,296,468.36q-37.8-28.44-46-75a525.36,525.36,0,0,1-6.72-128,630.87,630.87,0,0,1,19.8-119.52Q274,105.3,307.32,82a12.21,12.21,0,0,0,4-1.08,18.9,18.9,0,0,1,13.32-.48c11.64,3.72,22.32,7.56,32.28,11.28Zm91.44-19.92c-2.28,42.6-4,85.44-4.8,128.28l-1,55.68-7.8-.24a85.24,85.24,0,0,0-41.76,5.76,9.53,9.53,0,0,0-.72,2.64l.24-67.08c.12-21.72.6-43.32,1.68-64.8a476.22,476.22,0,0,0-1.2-64.32,2.62,2.62,0,0,0-2.64,2.76,1264.2,1264.2,0,0,0-4.56,128.28c.6,43.2.48,86.16-.6,129-1.08,43.32-3.24,86.28-6.72,129.12-1,10.8-2.4,21.48-4.2,32.16-1.68,9.84,0,17.64,4.92,23.52a3.56,3.56,0,0,0,1.56-2.4,541.92,541.92,0,0,0,6.12-55.92c2.52-42.6,4.08-85.44,4.68-128.28l.72-57.12a10.32,10.32,0,0,0,1.08,3.6l.72,1,48.36-1.92-.48,57.72c-.24,43.08-2.28,86.16-6,129-1,10.8-2.28,21.48-3.84,32.16-1.68,10.2.24,18.12,5.88,23.52A383.46,383.46,0,0,0,446,454.92c2.28-42.6,3.48-85.44,3.48-128.28l.36-56h1.2a13.28,13.28,0,0,0,.48-14.52l-.84-1h-.6c.36-19.2,1-38.4,1.68-57.6q2.34-65-1.08-128.28C449.4,69.12,448.8,69.84,448.68,71.16Zm84.84-11.88C511.08,60.6,489,62.76,467,65.76l-.72,2.4a13.74,13.74,0,0,0,1,8.76l.84,1,43.8-1.08a208.93,208.93,0,0,0-4,41.4c-.12,42.72,0,85.44.6,128.28.36,32.28-.24,64.44-1.56,96.48-1.8,43.08-4,86-6.72,129.12a169.79,169.79,0,0,0,3.48,48,4,4,0,0,0,3.48-4.08l6.36-128.28q1.62-32,1.44-64.08-.36-64.44-.12-129.12c.12-39.72-.12-79-.48-117.72L555,76.08l1-1.68a13.54,13.54,0,0,0-.48-12.84l-.84-1-3.24-.36Z" transform="translate(-50.01 -51.36)"/></svg>