<svg id="Layer_1" data-name="Layer 1" xmlns="http://www.w3.org/2000/svg" viewBox="0 0 473.84 339.6"><defs><style>.cls-1{fill-rule:evenodd;}</style></defs><path class="cls-1" d="M84.24,117.48a80.64,80.64,0,0,0-3.6,24.84c-.36,31.68-1.92,63.24-4.44,94.8Q71,301,69.6,365.64a319.32,319.32,0,0,1-2.28,32.16c-1.44,12.36.12,22.92,4.68,31.92a5.55,5.55,0,0,0,2.16-4.08c1.92-18.84,3-37.68,3.12-56.76.24-43.08,2.16-85.8,5.88-128.4l1.44-17.76c15.48,4.08,31.44,3.72,48-1.08l.36-.84a13.48,13.48,0,0,0-1.56-13L85.2,213c1.8-30.48,2.28-60.72,1.2-90.72a651.47,651.47,0,0,0,79.44-2.4l.48-.84c2.28-5.16,1.92-10.08-1.32-14.64q-40.14,1.62-79.8,5.76L85,111A12.35,12.35,0,0,0,84.24,117.48ZM220,207.72c-12.12-1.56-22.8.84-32.16,7.08,3.6-16.2,7.44-32.52,11.52-48.72a183.5,183.5,0,0,0,5.64-43.8C210.36,150.48,215.28,179,220,207.72Zm-15.84-102.6-.12-1.44q-4.32,5.22-5.76,14.4-9.72,62.82-22.56,125.4T148.32,368.4a173.61,173.61,0,0,1-10.08,30.72c-5.28,12.36-5,22.92.84,31.68a43.51,43.51,0,0,0,6.48-14.4Q160.68,353.94,172.2,291c4-21.24,8.16-42.48,12.84-63.72l.48.84a79.78,79.78,0,0,1,36.84-5.4l2.16,13.68q7.38,47.16,17.4,93.6a604,604,0,0,1,10.2,63.84,218.93,218.93,0,0,0,9.72,46.68,2.87,2.87,0,0,0,2.16-3,401.58,401.58,0,0,0-11.28-97.68q-14.94-62.1-24.12-125.4-2.34-16-4.32-32a337.71,337.71,0,0,0-19.44-77.64Zm144.36.36q-11.34,35.64-10.08,75.84,2,64.44,7.8,128.16A190.7,190.7,0,0,1,341.28,374q-10.26,40.5-50.76,43.2A150.07,150.07,0,0,1,280,366.12c-1.32-42.6-1.68-85.44-1.32-128.28L280,111.24c-1-2-2.16-2.16-3.72-.6-1,22.2-1.56,44.64-1.8,67.44l-1.56,128.28c-.12,10.8-.36,21.6-1,32.28q-2.34,51.12,17,95a32.68,32.68,0,0,0,11.4-.84c21.72-5.76,36.24-19.32,43.32-40.68a152.34,152.34,0,0,0,8-47.4,1266.53,1266.53,0,0,0-5.28-128.28,253.86,253.86,0,0,1,2.4-64,142.24,142.24,0,0,0,.24-47.28C348.72,105.24,348.48,105.36,348.48,105.48Zm22,.24a324,324,0,0,0,8.64,55A1165.59,1165.59,0,0,1,402,287.52a788.76,788.76,0,0,1,5.16,125c-.36,10,2.16,17.4,7.32,22.56q12.06-49.5,21.72-99.72,12.06-63.18,21.24-126.72a271.71,271.71,0,0,1,17-62.64c5.76-14,6.36-27.24,1.68-39.72a11,11,0,0,0-4.56,7.32,19.83,19.83,0,0,0-10,12.24,11.82,11.82,0,0,0,3.48-4.08c2.16-1.2,3.72-1.56,4.56-1.08A436.94,436.94,0,0,0,456,171q-9.9,47.52-17.64,95.52-10.26,62.1-22.44,124c-1-11.16-1.68-22.44-2-33.84A1075.39,1075.39,0,0,0,401.52,229.2a787.39,787.39,0,0,0-30-124.2Q370.44,104.82,370.44,105.72Zm157.2-3.48-6-.24q-29.7,19.62-36.84,61.32a1312.11,1312.11,0,0,0-19.32,228.84,80.36,80.36,0,0,0,3.6,23.76,39,39,0,0,0,11.52,17.4,44.43,44.43,0,0,0,9.36,6.36l3.6,1.92q43.56-19.62,47-65.28a20,20,0,0,0-2.16-10.44A113.54,113.54,0,0,1,504.24,417c-6.36,5.4-13.32,5.88-20.76,1.32l-3.72-2.4a457.84,457.84,0,0,1-1.2-142,109.53,109.53,0,0,0,42.84-.12c3.36-5.16,3.24-10.2-.24-15.36l-41.76,5a351.86,351.86,0,0,1,31.44-143.16l16.8-3.24L539,133.68c3.12-10.92-.24-21-10-30Z" transform="translate(-66.8 -102)"/></svg>