<svg id="Layer_1" data-name="Layer 1" xmlns="http://www.w3.org/2000/svg" viewBox="0 0 294.11 207"><defs><style>.cls-1{fill-rule:evenodd;}</style></defs><path class="cls-1" d="M253.2,376.44c9.72,17.52,24.48,23.16,44,16.8,17.64-5.76,31-16.68,39.72-32.76q32.22-59.22,8.52-122.4-15.66-41.4-61.92-40.56-25.2,10.62-33.36,39.6a294.6,294.6,0,0,0-10.08,93.12A106.39,106.39,0,0,0,253.2,376.44ZM290,285.36l8.16-17.76-1.92,17Zm10-21.48L296.76,265q-12.42,20.34-23.4,41.4c-3.12,5.88-3.24,11-.24,15.48l12.36-26.4,11.64-1.8a65.3,65.3,0,0,0,5.28,17,42.74,42.74,0,0,0,8.16,11.88L299,266.16ZM340.08,250c11.64,30.36,10.32,60.24-3.72,89.52-13.08,27.36-34.68,40-65,37.92l-3.72-2.76a23.31,23.31,0,0,1-9.12-11.52q-22.5-61.74-.48-125c5.16-15.12,15.12-24,29.88-26.52,10-.12,18,1.2,24.12,3.84-1.08,1-1.08,1.56.12,1.92a1.84,1.84,0,0,1,1.32,1.8l.12.84A56.39,56.39,0,0,1,340.08,250ZM228.84,196.8l-1.08-1.68a379.68,379.68,0,0,1-64,2.16l-.12-4.08a352.48,352.48,0,0,0-7.68,100,348.31,348.31,0,0,1-4.08,79.92,33.37,33.37,0,0,0,3.36,21.48l1.44,2.4a436,436,0,0,0,6.72-75.48l.48-36.48,3.84,2.16,42.48-3.6a11.59,11.59,0,0,0,.84-10.68l-1.2-2.64A77.35,77.35,0,0,0,178,270,46.56,46.56,0,0,0,164,275.16l-.12-67,1.2,1.2a142.85,142.85,0,0,0,63.36-.6A11.94,11.94,0,0,0,228.84,196.8ZM435,265.68c-3.12,16.68-12.84,27.12-29,31.2a63.55,63.55,0,0,1-22.32,1.8l-5.16-2.76-2.64-86.28A111.51,111.51,0,0,1,418.08,227C432.36,236.52,438,249.48,435,265.68ZM375.12,200.4l-.36-5.52q-2.88,53.46-4.8,109.8a419.06,419.06,0,0,1-7,63.72c-2.28,12.6-1.08,23.16,3.6,31.8A579.34,579.34,0,0,0,376.32,323l.72-13.68c9.48,8.88,21.6,10,36.12,3.36q36-16.38,31.92-54.24-5.22-48.42-52.2-60.72a86.5,86.5,0,0,0-17.64,2.16Z" transform="translate(-151.4 -193.2)"/></svg>