<svg id="Layer_1" data-name="Layer 1" xmlns="http://www.w3.org/2000/svg" viewBox="0 0 302.67 204.84"><defs><style>.cls-1{fill-rule:evenodd;}</style></defs><path class="cls-1" d="M277.08,285l3.72-9.6.36,10.32Zm4.44-19c-13.08,10.56-20.4,24.24-22.08,41a55.9,55.9,0,0,0-.24,7.8L270,296.76l12.36-2.88,8.76,24c3.24-11.16,2.28-23.76-2.88-37.68l-6.36-16.8Zm18.24-55.2q26.64,22.32,32.88,57.48a212.17,212.17,0,0,1,2.52,57.84,60.26,60.26,0,0,1-11.4,30.6c-19.08,26.4-44.4,33.6-75.72,21.72a19.67,19.67,0,0,1-5.88-3.24q-24.3-19.44-24.6-52A159.8,159.8,0,0,1,228,264.36q18-47.7,67.44-54.6l3.24.48ZM277.2,199.92q-35.82,14-51.72,49.56-27.72,62.46-1.68,124.92a28.17,28.17,0,0,0,12.12,14.16q43,25.74,80.76-4.32A45,45,0,0,0,331.56,363a212.4,212.4,0,0,0,7.56-107.52c-4.68-24.6-16.44-43.92-35.52-58.2l-1,.12-1.32.6-1,.36A37.33,37.33,0,0,0,277.2,199.92ZM218.88,212.4V201a404.29,404.29,0,0,1-46.56-3l-16.56-1.56a2.29,2.29,0,0,0-1.8,1.8l-.12.6-.12.84v.84l-.12,1.68.12.84.12.84a2.28,2.28,0,0,0,1,1.8,475.2,475.2,0,0,0-4.44,66.6c.36,43-.12,85.92-1.2,129,3.72-1.08,5.64-3.84,5.64-8.16q0-49.32,1.92-98.76l46.2,4.56a5.21,5.21,0,0,0,1.44-2l.24-.84.36-2,.12-1.92-.24-2.16-.48-2-.48-.72-1.44-2-45.6-.6-.48-78.12a127.06,127.06,0,0,0,54.36,7.08Zm170.88-2.88a70.27,70.27,0,0,0-24,38.64,290.3,290.3,0,0,0-7.2,42.84,331.39,331.39,0,0,0-1.32,46.32,74.92,74.92,0,0,0,15,42.72,96.57,96.57,0,0,0,9.24,10.68,54.39,54.39,0,0,0,34.92-1.08,49.18,49.18,0,0,0,22.2-15.48l2.4-2.88a39.8,39.8,0,0,0,2.16,28.32c6.84-12,9.6-25.32,8.4-40.08a235.77,235.77,0,0,0-3.6-26.76l-17.16-1.32a3.78,3.78,0,0,0-2.52,2.52,13.49,13.49,0,0,0-.84,6.48,3.16,3.16,0,0,0,.84,1.92l15.24,2.28L443.16,360l-3.72-5.28-12.72,13.8q-24.48,12.6-45.84-1.08a26.87,26.87,0,0,1-12.48-19.68,298,298,0,0,1-1.92-62c.6-8,1.68-16,3-24a62.71,62.71,0,0,1,12.72-29.16q18-23.22,45-14.88a76.93,76.93,0,0,1,16.56,7c2-6.12.84-11.52-3.84-16.2a25.15,25.15,0,0,0-8.52-5.64C416.16,197,402.36,199.32,389.76,209.52Z" transform="translate(-149.16 -196.44)"/></svg>