<svg id="Layer_1" data-name="Layer 1" xmlns="http://www.w3.org/2000/svg" viewBox="0 0 309.07 210.72"><defs><style>.cls-1{fill-rule:evenodd;}</style></defs><path class="cls-1" d="M310.56,210.84l2.76,4.8q29.88,21.78,33.24,61.92a120.17,120.17,0,0,1-5,46.08,103.71,103.71,0,0,1-17.88,33.72A45.61,45.61,0,0,1,294.48,375q-29.7,5.22-41.76-22.68c-10.68-24.6-12.72-49.8-6.36-75.84a141.55,141.55,0,0,1,20.4-46.2,52,52,0,0,1,14.88-14.52,64.52,64.52,0,0,1,16-7.44Zm-35.88-6.72a223.76,223.76,0,0,0-23.4,38.64,152,152,0,0,0-12.48,38,157.27,157.27,0,0,0-1.92,46.8,112.08,112.08,0,0,0,13.92,43.32c7.92,14.16,20,21.12,36.24,21a58,58,0,0,0,39.6-18,85.23,85.23,0,0,0,22.68-39.72,161.07,161.07,0,0,0,5.28-46A240.56,240.56,0,0,0,349,244.8c-3.6-16.08-11.52-29-23.88-38.88-13.08-10.44-27.24-12.72-42.24-6.84A24.31,24.31,0,0,0,274.68,204.12Zm-53.4-6.36-63.24-4h-.24l-.36-.84-.6,1.32-1.56.6a44.65,44.65,0,0,0-1.56,14.4A1140.25,1140.25,0,0,1,150,378.72a74.18,74.18,0,0,0-.36,10.32l.48,3a24.7,24.7,0,0,0,1.8,5.52,31.75,31.75,0,0,0,2.64,4.8,427.82,427.82,0,0,0,6.72-70.08c.24-14.52.24-28.8-.12-43.08l47.16,3.48a12.68,12.68,0,0,0,2.16-4.2l.24-1.32L211,286v-2.64a9.63,9.63,0,0,0-2.16-6.24l-47.52-1.92-3.12-70.08a179.51,179.51,0,0,0,55.2,8.28l8.16-.12,2.28-10.56Zm150.48-2.28v-.12h-.6V198l-.12,3.6q-1.62,49.86-2.28,100.92a527.93,527.93,0,0,1-5,64.68c-1.68,11.88-.6,22.68,3.12,32.4a2.15,2.15,0,0,0,2.16-2.16,656.12,656.12,0,0,0,6.72-73.8c.36-10.2.48-20.4.6-30.6,16,.6,31.92.6,47.64.24l.72-.84c2.64-5.16,2.28-10.08-1-14.52a117.51,117.51,0,0,0-47.4,3.12q-.18-38-3.6-75.36,41.94,3.06,83.52,2.16l.6-1a14.12,14.12,0,0,0,.48-13l-.36-.72a2.41,2.41,0,0,0-1.56-.48l-19.2-1.08-64,2.64-.36.84Z" transform="translate(-149.6 -191.64)"/></svg>