<svg id="Layer_1" data-name="Layer 1" xmlns="http://www.w3.org/2000/svg" viewBox="0 0 422.86 294.63"><defs><style>.cls-1{fill-rule:evenodd;}</style></defs><path class="cls-1" d="M218.4,146.16a224.2,224.2,0,0,0-34.8,97,370.12,370.12,0,0,0,7.08,127.56,61.69,61.69,0,0,0,23.4,36.24c11,8.4,24,10.44,39,6.24a52.85,52.85,0,0,0,14.16-6.72q56.34-38.34,63-106.32a384.68,384.68,0,0,0-9-127.56Q311.7,133,274.92,121l-1.8.72-1.8,1.44a63.52,63.52,0,0,0-37.32,8.4A45.61,45.61,0,0,0,218.4,146.16Zm-39.6-5.64c1.68-1.08,2.64-2.88,3-5.4a16.36,16.36,0,0,0-1.68-9.24,126.47,126.47,0,0,0-45.6-4.92,80.61,80.61,0,0,0-34.44,8.88l1.08,9.84q-1.26,126-8.88,252a8.39,8.39,0,0,0,4.08,8.16,1529.42,1529.42,0,0,0,10.08-170,153.44,153.44,0,0,0,45.6,5,9.48,9.48,0,0,0,2.64-7.8,12.6,12.6,0,0,0-2.28-6.84,136.6,136.6,0,0,0-45.84,1l-2.28-81.84,71.16-1.44Zm82.32-5.16a45.45,45.45,0,0,1,10.56,1.32,4.72,4.72,0,0,0,2.4,2.16,31,31,0,0,0,8.4,2.64l.48.6L284,143.4a9.28,9.28,0,0,1,6.12,2.4,87.18,87.18,0,0,1,29.52,52,502.23,502.23,0,0,1,6.6,57q4,67.86-38.52,119.76c-10.8,13.2-24.6,20.88-41.4,22.92-25.8,3.24-41.88-7.08-48.36-30.72A300.72,300.72,0,0,1,191.4,240l5.28-32.76q9.36-57.6,64.08-71.64C260.88,135.48,261,135.36,261.12,135.36Zm171.36,42.12a430.33,430.33,0,0,1,1.2,51.24c-1.56,43.32-4.32,86.28-8.52,129-1.08,10.8-2.52,21.48-4.44,32.16q-2.88,15.66,5.4,22.68a107.78,107.78,0,0,0,5.4-28.2q2.7-41.58,4.56-83.28a46.47,46.47,0,0,0,12.12-16.92q9.54-21.78,19.44-43.2a361.37,361.37,0,0,0,14.64,82.92,548.47,548.47,0,0,1,14.76,62q3.24,18.54,14,28.8A15.24,15.24,0,0,0,512.4,402c-4.2-13.2-8.16-26.4-11.88-39.48q-17.28-61.74-31.32-123.84l-.48-.12c10.8-23.64,21.72-47,32.88-70.44a50.36,50.36,0,0,1,5.88-9.48q10.08-13.32,6.84-26.28a14.66,14.66,0,0,0-5.4,4.08l-.24.72-.24,1.68a667.21,667.21,0,0,0-48.36,100,114.31,114.31,0,0,1-15.84,27.84,54.64,54.64,0,0,0-7.2,11.64l.72-22.32q2-64.8-1.32-128.28A153.71,153.71,0,0,0,432.48,177.48Zm-74-50.52a585.31,585.31,0,0,0-7.56,103.92,836.83,836.83,0,0,1-8,128.76,175.28,175.28,0,0,0-.6,48.12c1-.36,1.56-.72,1.8-1.32l.12.72a213.59,213.59,0,0,0,58,4.68l.6-1c3-5.28,2.76-10.44-.6-15.36a306.05,306.05,0,0,0-56.52,4.2,364.19,364.19,0,0,0,7.32-47.4Q358.5,288.6,358,224a481.35,481.35,0,0,1,3.84-64.68C363.36,147.36,362.16,136.56,358.44,127Z" transform="translate(-92.25 -120.64)"/></svg>