<svg id="Layer_1" data-name="Layer 1" xmlns="http://www.w3.org/2000/svg" viewBox="0 0 444.79 456.12"><defs><style>.cls-1{fill-rule:evenodd;}</style></defs><path class="cls-1" d="M118.56,276.84A1202.93,1202.93,0,0,0,115,405l-.12.84q-1.08,43-6.12,85c-1.32,5.28-.72,9.72,1.68,13.44v2l.12.84a4.49,4.49,0,0,0,1.44,2.4,572,572,0,0,0,81.24,1.92,9.08,9.08,0,0,0,2.4-4.92l.24-4.08a12.19,12.19,0,0,0-.72-4.08l-.24-.72a4.71,4.71,0,0,0-1.68-2.52l-1.56-.12a248.09,248.09,0,0,1-59.64-.36v.12a28.4,28.4,0,0,0-11.88,1.32l-5.76,2a841.65,841.65,0,0,0,5.76-95.52q.36-64.8.24-128.16A2.38,2.38,0,0,0,118.56,276.84ZM164.88,106l-1.56-26.4c24.6,4.2,28,11.88,10.2,23.28A22.54,22.54,0,0,1,164.88,106ZM139,75.6l-22.08-4.44A210.17,210.17,0,0,0,57.36,77.4L56.76,79l-.36,2.52L56.64,83l.48,1.68,1.56.12a1110.07,1110.07,0,0,0-3.24,126.48,921.26,921.26,0,0,1-5,129c-4.68,42.6-7.8,85.32-9.12,128.4-.24,5.88-.48,8.28-.72,7l-.48-.36L38.76,482c-1.08,10.44,1.08,18.6,6.48,24.24A5.08,5.08,0,0,0,46,504.6a334.53,334.53,0,0,0,3.48-39.72c1.44-42.6,4.08-85.2,7.8-127.56q4.5-52.56,4.56-105.6A158.85,158.85,0,0,0,109,235.44a4,4,0,0,0,1.56-2.4,14,14,0,0,0-1-11.4l-1.56-1a6.27,6.27,0,0,0-4.08-1L61.8,221.4l-.24-13.08q-1.08-48.42,2.16-96.48a150.44,150.44,0,0,0-.6-26.64l76.68,5.4.48-.84a15.28,15.28,0,0,0,1.32-8.88,11.09,11.09,0,0,0-1.8-4.8A.91.91,0,0,0,139,75.6ZM183.6,115A28.58,28.58,0,0,0,190.8,89q-5.22-26.82-32-18.36v8l2.52.6a370.23,370.23,0,0,0-2.76,91.44c8.52-15.6,10.8-32.64,7-51.12l14.28-2a112.17,112.17,0,0,0,18.84,52.56c1.2-14-1.92-28.32-9.36-43.08C187.2,123.12,185.4,119,183.6,115Zm193,188.4A430.51,430.51,0,0,1,338.4,428.28l-7.32,16.2c-13.32,30.6-36.48,46.08-69.72,46.32l-1.08-.84-1.2-.6-2.28-1a68.57,68.57,0,0,1-23.28-29.16,210.37,210.37,0,0,1-14.28-49.8,687,687,0,0,1-8.16-95.52c-.12-16.08-.12-32,.24-47.88A408.24,408.24,0,0,1,233,142.2q10.08-29.7,31-46.44l-.24.84-1.92,2.52a.3.3,0,0,0-.12.48.62.62,0,0,0,.48.24l1.68-1.8L266.52,94a9.75,9.75,0,0,1,2.16-2.28L270.6,91A62.34,62.34,0,0,1,295,86.88a82.06,82.06,0,0,1,36.48,6.84,14.73,14.73,0,0,1,5.88,4.56,176.87,176.87,0,0,1,35.52,76.56A375.91,375.91,0,0,1,376.56,303.36Zm4.2,91.92c1.56,21.6,3.36,43.32,5.64,65.16a329,329,0,0,0,11.88,61.2,588.83,588.83,0,0,0,21.12-68.4,284.23,284.23,0,0,0,23.76,70.56c9.36-11.88,15.36-25.92,18-42.24a217.66,217.66,0,0,1,11.76-43.32c6.24-16,8.28-31.68,6-47a24.63,24.63,0,0,0-8.16,8.64l-.24.6c-.12,1.44.6,1.56,1.92.24l.72-.12c-9.24,34.8-18.84,69.48-28.56,104-9.24-24-17.4-48-24.72-72a307.14,307.14,0,0,0-20.76,65l-.12-2.4a799.4,799.4,0,0,0-16.44-101.52C381.24,393.48,380.64,394,380.76,395.28ZM441.6,181.56c-19.08,2.4-31.44,12.72-37.08,31.08a236.58,236.58,0,0,0-9.72,55.2c-1.2,20.76-2.76,41.52-4.68,62.4q-3.24,36,23.88,56.88c29.16.36,51.24-12.24,66-37.8,4.92-8.52,4.32-15-1.92-19.68a59.33,59.33,0,0,0-6.12,9q-18.72,33.48-57.24,33.48l-3.84-3.24-1.8-1.44a15.18,15.18,0,0,0-3.72-2.4c-7.56-16.8-10.2-34.68-8-53.76,1.08-9.72,1.92-19.56,2.52-29.4a186.45,186.45,0,0,0,40.92-1.56l.48-.84a12.32,12.32,0,0,0-1.32-13,223.89,223.89,0,0,0-39.48,6.24l.48-14.88q.72-32.94,22-56.88,30.42-13.14,59,3.36c1.56-2.4,1.68-4.8.12-7.08C473.28,184.08,459.72,178.8,441.6,181.56ZM367,118.92c-8-25.08-24.12-42.24-48.24-51.24L283.8,68.76a18.7,18.7,0,0,0-1.92,2.4l-1.32,2.4a46.47,46.47,0,0,0-12.36,5.76Q241,97.68,229.68,129.48A339.66,339.66,0,0,0,212.4,203a1200.69,1200.69,0,0,0-8,128.16,409.59,409.59,0,0,0,18.36,126,119.8,119.8,0,0,0,11.64,25.92q20.52,34.38,57.12,20.28a37.74,37.74,0,0,0,11.16-6.84Q332,470.1,348.72,432.24a473,473,0,0,0,35-122.76A412.59,412.59,0,0,0,382.32,182,448.3,448.3,0,0,0,367,118.92Z" transform="translate(-38.49 -67.68)"/></svg>