<svg id="Layer_1" data-name="Layer 1" xmlns="http://www.w3.org/2000/svg" viewBox="0 0 423.16 346.32"><defs><style>.cls-1{fill-rule:evenodd;}</style></defs><path class="cls-1" d="M188.52,236.4l21-93.84,12.6,96Zm93.72,67.92a953.71,953.71,0,0,0-2.16,104.88c.72,19.92,11.28,29.76,31.56,29.4A60.37,60.37,0,0,0,336,415.44q17.82-29.88,14.88-65.64a159.79,159.79,0,0,1-.12-20q1.26-18.9-7.92-29.88A38.16,38.16,0,0,0,338.76,311l1.2,2.88.12-.24q.72-.54,1.08.72a30.84,30.84,0,0,1,.6,8.16h-.36v1.8l.36.36q0,14.22,1.08,28.44a83.34,83.34,0,0,1-9.12,45.48c-8.76,17.16-22.08,23.64-40.2,19.68-7.08-18.6-9.48-38.64-7.44-60.12A286.81,286.81,0,0,0,286.2,299C283.8,299.64,282.48,301.32,282.24,304.32ZM161.16,100.08,118,97.2A101.22,101.22,0,0,1,76,100l-4.8-.72-.24-2-1.56,1.68-2.76-.6A829.94,829.94,0,0,0,61,211q1.8,103.86-1.44,207.12a15.26,15.26,0,0,0,.24,4.08l1,4.08L61.8,430l1.44,3.6,1.68,3.36Q77,366.18,70.68,290.16c-1.32-16.56-1.92-33.12-1.8-49.8l53.88-.84a14.35,14.35,0,0,0,1.68-8,12,12,0,0,0-1.32-4.92l-1-2a135.8,135.8,0,0,0-52.92,2.28C72,188.88,73,151,72.36,113l89.4,1.92a11,11,0,0,0,1.68-6.36l-.48-4.92A5.76,5.76,0,0,0,161.16,100.08Zm122,83.28L283,180a520.23,520.23,0,0,0-17.88,55.56,215.17,215.17,0,0,0-5.76,31.92l-1.08-6.36a355.5,355.5,0,0,1-5.76-35.64q-7-63.9-18.24-126.48c-2.76,1.68-4,4.68-3.48,9l14.52,126.48c1.2,10.68,2.16,21.24,2.76,31.8.6,12.12,3.6,22.32,9,30.84l1.44-5.16c6-6.24,9.6-15.12,10.92-26.64a136.64,136.64,0,0,1,6.12-28,160.24,160.24,0,0,0,7.8-45.6q11.34,50.94,27,101.88a5.15,5.15,0,0,0,3.48,2.16q3.42-2,2.52-6.12l-1.08-5,6.84-58.2c2.4-20.28,5.64-40.44,9.84-60.48a234.77,234.77,0,0,0,4.92-63.72A225.72,225.72,0,0,0,327.48,138c-7.32,40.56-13.2,81.48-17.88,122.64A596.13,596.13,0,0,0,284,183.24ZM211.32,111c-.12-4.32-.48-8.52-.84-12.72A108.44,108.44,0,0,0,203,123.12q-11.34,61.92-25,123.36-13.86,63-32.28,125.16a236.36,236.36,0,0,1-11.64,31c-5.64,12.36-5.52,22.92.6,31.68a450.81,450.81,0,0,0,19.2-55q17.28-62.28,30.6-124.8l1.32-5.88a123.84,123.84,0,0,0,38.76,5.76l4.92,30q10.62,63,15.36,127,1.26,18,9.36,31.32a6.81,6.81,0,0,0,3.36-5.16,65.46,65.46,0,0,0,0-18.12q-9.18-63.18-19.2-126.36c-6.72-42.12-12.36-84.48-16.92-126.84A364.17,364.17,0,0,0,211.32,111Zm181.2-6.84-.24-1.92-.48.12a407.6,407.6,0,0,0-3.6,49.44c-.48,43.08-.72,86-.84,129.12q-.18,64.26-5,127.68l-.24-.6-.84-15.36a44.48,44.48,0,0,0-.72,14,33.28,33.28,0,0,1-.48,7.8c-1.8,9.72,0,17.52,5.28,23.52a2.14,2.14,0,0,0,1.08-1.44,675.44,675.44,0,0,0,7-109.44c-.6-32.28.24-64.44,2.28-96.48,1.32-21.84,1.8-43.56,1.2-65.16l2.16,8.28,35.16,123.6a864.19,864.19,0,0,1,25.8,124c1.32,9.6,4.56,17,9.72,22.2a3.49,3.49,0,0,0,1.44-3.24l-.36-6.12v.12a2.85,2.85,0,0,0,1.08-1.44,481.65,481.65,0,0,0,5.4-59.16q1.8-64.44,4.32-129,2.34-64.8-.48-128.28c-.6.12-.84.24-.84.36a181,181,0,0,0-5.4,39.6l-3.6,129.12-3.48,119.4a432.73,432.73,0,0,0-10.32-53.16Q441.6,290,423.24,228.48a1141.1,1141.1,0,0,1-29.88-124.32Z" transform="translate(-59.47 -97.2)"/></svg>