<svg id="Layer_1" data-name="Layer 1" xmlns="http://www.w3.org/2000/svg" viewBox="0 0 312.69 212.13"><defs><style>.cls-1{fill-rule:evenodd;}</style></defs><path class="cls-1" d="M323.28,307.92c13.56,11.4,19,26.4,16.2,45.12-1.92,13.8-10,23.28-24.12,28.56q-26.28,9.54-39.84-14.16c-8.28-14.64-8.76-29.64-1.44-44.88,7.2-14.88,19-22,35.4-21.36a25.13,25.13,0,0,1,7.68,2l2.64,4.56ZM267.72,319.8a94.36,94.36,0,0,0-3.6,46.2c2.88,17,12.6,27.24,29,30.6,16.92,3.24,30.72-1.56,41.4-14.52,9.72-12,13.92-25.92,12.84-41.64a61.32,61.32,0,0,0-19.2-41.52q-12.24-11.7-29.52-10.8Q275.82,296,267.72,319.8Zm-64-107.64V199.92a123.22,123.22,0,0,1-42.48-.6L155.52,198l-.24-3.12a46,46,0,0,0-4.56,22.44,1266.44,1266.44,0,0,1-3.36,161.16L147,382.2l-.24,3.36.12,3.24a23.66,23.66,0,0,0,3.24,11.4l1.44,2.4a358.51,358.51,0,0,0,6.84-64.08c.36-14.4.24-28.8-.24-43.08a90.21,90.21,0,0,0,40.44.84l.6-.12a7.17,7.17,0,0,0,1.44-3.36l.36-3-.24-3-.84-3-1-1.92-41,1.08-2-72a108.41,108.41,0,0,0,42.6,2.28Zm192.48-14.4a14.6,14.6,0,0,0,.48,9.84q-.18,15.66.36,32a728.5,728.5,0,0,1-6.6,128.16c-1.8,12.6-.36,23,4.32,31.56q5.94-37.08,8.64-75.36c.6-9.84,1.08-19.68,1.32-29.52l37.08,1.8a14.21,14.21,0,0,0,1.8-8.88,12.47,12.47,0,0,0-1.8-5.76l-1.68-.72A34.14,34.14,0,0,0,428.64,279a92.86,92.86,0,0,0-23.76,2.28A556.3,556.3,0,0,0,399.72,209a466.34,466.34,0,0,1,57.84-.72c2.64-4.2,2.52-8.16-.36-12.12-4.2-5.52-10.44-7.08-18.84-4.56A252.66,252.66,0,0,0,397,196.2Z" transform="translate(-146.76 -190.47)"/></svg>