<svg id="Layer_1" data-name="Layer 1" xmlns="http://www.w3.org/2000/svg" viewBox="0 0 509.62 461.52"><defs><style>.cls-1{fill-rule:evenodd;}</style></defs><path class="cls-1" d="M131.76,299.88q-.54,35.1-.72,70.56c-.12,43.44.48,86.16,1.56,128.28a662.59,662.59,0,0,1,99.24,1.56l.48-.84a13.71,13.71,0,0,0-.48-11.28,571.46,571.46,0,0,0-95.16-3.24c0-22.2-.12-44.4-.48-66.6q-.72-64.8-.6-128.28C133.08,292.32,131.76,295.56,131.76,299.88ZM205.44,77.52l.12-.84.24-1V75l.12-.84v-.84a12.77,12.77,0,0,0-1.56-5.64L78.48,59.88l-1,6,3.84,2.4A104.72,104.72,0,0,0,79,85.68L78.84,92,78.48,124Q77,236.1,72.72,348.48C72.12,364.8,71,381,69.6,397.2l-3.24,32.28-3.6,32L60.48,482a51.17,51.17,0,0,0-.36,8.52q.18,4,.72,7.92c.36,2.4.84,4.8,1.44,7.32l1.08,3.36c2.52-15.6,4.8-31.32,6.72-47L71.88,446c1.08-10.68,2-21.24,2.88-31.8q6.3-80.1,6.12-160.68l88.8,11.64,1.08-2.52.36-1.56v-2l-.24-2-.6-1.56-.36-.84-.48-.36-87.72-8.16,2-177.24L204.6,79ZM403.2,148.8a310.48,310.48,0,0,1,24.72,105.6,447.12,447.12,0,0,1-11,127.44c-2.52,10.68-4.68,21.24-6.72,31.92Q398.82,476,339.72,497.64a23.6,23.6,0,0,1-19.32-.84q-38.52-18.72-55.32-58.32a256.35,256.35,0,0,1-17.76-62.16,495.42,495.42,0,0,1-3.24-127.8,319.87,319.87,0,0,1,37.8-121.92Q297.72,97.8,328,91.44a148.82,148.82,0,0,0,17.52,8.64,131.69,131.69,0,0,1,47.88,33.24A52.26,52.26,0,0,1,403.2,148.8ZM390.6,114,352,84.48l-2.28-.72a76.64,76.64,0,0,0-18-4.8,43.28,43.28,0,0,0-11.16,1.68,63.62,63.62,0,0,0-35,26.28A251.94,251.94,0,0,0,244,216.24a632.24,632.24,0,0,0-5.52,79.8,544.28,544.28,0,0,0,13.08,122.52q9.72,43.38,42,75.24c21.72,21.48,45.48,23.76,71.28,7.08a84.34,84.34,0,0,0,32.28-38,459,459,0,0,0,34.08-125.16,465.75,465.75,0,0,0-1.2-126.6,264.29,264.29,0,0,0-29-87.72A95.56,95.56,0,0,0,390.6,114Zm157.32,18.36c14.52,24.12,21,50.4,19.44,79.08a180.53,180.53,0,0,1-9,48.24c-3,9.24-9.12,15.36-18.48,18.6-18.6,6.36-37.8,6.84-57.6,1.68l-13.56-3.72a1090.17,1090.17,0,0,0-6.84-174.84c-.6-5.28-1.32-10.56-2.28-15.72q3.24,64.44,4,130,.9,72.54-2.16,145.2c-1.56,39-3.48,78-5.52,116.88a159.64,159.64,0,0,0,2.4,37,24.1,24.1,0,0,0,2.52,6.72,401,401,0,0,0,7.68-99q-3.06-67.5,0-135a95.42,95.42,0,0,0,46.08,9.6,73.24,73.24,0,0,0,29.52-7.2,21.81,21.81,0,0,0,11-11.64,195,195,0,0,0,13.56-94.08c-.72-6.84-1.68-13.68-3-20.52a104.62,104.62,0,0,0-17.28-42.12A113.05,113.05,0,0,0,517,91.08,92,92,0,0,0,476.52,76.8a90.8,90.8,0,0,0-23.52.12l.24,7.2a97.75,97.75,0,0,1,44.64,7.08,115.47,115.47,0,0,1,31.92,19.56A94.27,94.27,0,0,1,547.92,132.36Z" transform="translate(-60.07 -59.88)"/></svg>