<svg id="Layer_1" data-name="Layer 1" xmlns="http://www.w3.org/2000/svg" viewBox="0 0 486.97 347.61"><defs><style>.cls-1{fill-rule:evenodd;}</style></defs><path class="cls-1" d="M122.28,230.64a331.9,331.9,0,0,0-4,44.52C117.24,318,115.2,360.48,112,402.6c-2,5.64-1.56,11.4,1.32,17.16a10.56,10.56,0,0,0,1.92,3.36l.24.12.84,1.32.24-1.08a215.39,215.39,0,0,0,72.84,2.4,8.22,8.22,0,0,0,2.28-4,16.49,16.49,0,0,0-2.76-14.76c-3.72.72-6.24.36-7.68-1.08l.12-.72a11.53,11.53,0,0,0-.36-4.08l-.36.12a25.43,25.43,0,0,0-.48,5.28c-20.28,1.92-40.92,3.36-61.8,4.2,2.28-16.92,4.2-34.32,5.52-52a763.71,763.71,0,0,0-1.08-128.4ZM98.52,84.6a42.85,42.85,0,0,0-14.64,2.76L83.4,89l-1-1.56a415.84,415.84,0,0,0-10.08,59.88q-4.86,52.38-6.48,104.88-2.52,79.2-9,157.92l-.6-11.4a41.7,41.7,0,0,0-.6,17.64l.48,1.68,1.08,3.36a22.67,22.67,0,0,0,3.36,6,195.34,195.34,0,0,0,8.16-52.68Q70,310.5,73.08,246.48l1.44-26a250.75,250.75,0,0,0,66.36-.12L150.6,219a13.58,13.58,0,0,0,1.92-10.68l-.6-1.92-.84-2-1.2-1.92L75.6,206.76q6.84-53.46,10-107.16a616.59,616.59,0,0,1,88.08,5.16l3.24-7.92-2.16-8A518.75,518.75,0,0,0,98.52,84.6ZM322.8,97.2c-6.84,6.72-8.16,14.52-4.08,23.52l1.56.84c.84.24,1-.12.36-1.2,1.08.24,1.68,2,1.92,5.4a1008.8,1008.8,0,0,1,1.56,129.12A345.2,345.2,0,0,1,293,381.48l-7.08,6a61.44,61.44,0,0,1-27.72,14.28q-32.76,7.38-36.48-22.92a689.83,689.83,0,0,1-3.6-127.92c2.64-42.6,6.48-85,11.52-127.32,1.32-12-.12-22.44-4.56-31.32-2,13.68-4,28.32-5.64,43.92q-6.66,63.9-9.24,128.52a876.08,876.08,0,0,0,4,125.64c1.56,14.52,8.88,24.24,22.08,29.16a35.76,35.76,0,0,0,25.68.12c25-9.24,41-26.4,48.36-51.72a585.37,585.37,0,0,0,22-128.76q2.16-39.6,1.8-79.56a264.57,264.57,0,0,0-7.8-63.24ZM429.72,103c-13.8-10.32-27.6-9.72-41.16,1.92a56.56,56.56,0,0,0-20.16,38.76,174.64,174.64,0,0,0,.84,43.32A143.12,143.12,0,0,0,383,230.88a232.22,232.22,0,0,0,21.48,34.8A134.88,134.88,0,0,1,425.76,307a81.7,81.7,0,0,1-22.56,84.48c-11.88,10.92-26,14.64-42.24,10.92A56.4,56.4,0,0,1,337.68,391l.84-7-3.12,5.64-3.84-4.08h-4.68c-4.44,12.24-.84,22.2,10.8,30a68.75,68.75,0,0,0,34.2,11.4,37,37,0,0,0,15.84-3.12,63.67,63.67,0,0,0,22.44-16.2,103.87,103.87,0,0,0,26.28-82,190.75,190.75,0,0,0-39.12-96,113.13,113.13,0,0,1-23.88-60.84c-2-25.08,7.08-42.24,27.48-51.72,12.84-5.88,24.24-3.84,34.2,6.24,2.28-5.88,1.32-11.4-2.64-16.56Zm103.8,43.92-7.32,87.84a10,10,0,0,1-4.56-.6,1.19,1.19,0,0,0-.6.84,6.54,6.54,0,0,1-3.12,3.12,12.43,12.43,0,0,1,6.48.6q-31.14.18-62.64,13.2l2-21.48a1217.17,1217.17,0,0,0,5.88-127.32l.36-.84a7.68,7.68,0,0,0-.36-6.48l-.84-.72-1.08-.84c-2.64,17.88-4.44,36.6-5.4,56.28q-2.88,64.08-9.12,127.56Q446.76,342.48,436.68,406c-1.68,10.32.36,18.12,6,23.4a449.59,449.59,0,0,0,10.56-71.28c2-30.36,4.32-60.6,7.08-90.72l.24.24A186.21,186.21,0,0,1,524,259.08l-1.32,15.12q-5.76,63.54-10.8,127.32v-1.08a66.17,66.17,0,0,0-2.16-13.8c.24,14.28.36,28.56.24,43.08a5.42,5.42,0,0,0,2.52,2.4c4.32-1.44,6.72-4.92,7.08-10.44,1.92-24.84,4.08-49.8,6.6-74.64Q532.32,283.5,538,219.6A1083.19,1083.19,0,0,0,541.44,92,421.48,421.48,0,0,0,533.52,146.88Z" transform="translate(-55.01 -84.51)"/></svg>