<svg id="Layer_1" data-name="Layer 1" xmlns="http://www.w3.org/2000/svg" xmlns:xlink="http://www.w3.org/1999/xlink" viewBox="0 0 579.6 602.28"><defs><style>.cls-1{fill:none;}.cls-2{clip-path:url(#clip-path);}.cls-3{fill-rule:evenodd;}</style><clipPath id="clip-path" transform="translate(-13.8 2.76)"><rect class="cls-1" x="13.8" width="579.72" height="599.64"/></clipPath></defs><g class="cls-2"><path class="cls-3" d="M334.44,522.36a5.34,5.34,0,0,1,1.08,2.4v4.92l-.36.48-.72.84-2.52-.48-1.56-3-7.8-1.08c-10.08,0-17.88,6.12-23.52,18.48A66.89,66.89,0,0,0,294.72,558a41.3,41.3,0,0,0-1.08,6.72,20.24,20.24,0,0,0,3,10.2c2.88,5,7,7.56,12.12,7.56,11.64,0,21.24-3.12,28.8-9.48a81.57,81.57,0,0,0,7.08-7.2c2.28-2.52,4-4,5.28-4.44.12.84-.72,2.64-2.28,5.52a60.23,60.23,0,0,1-6.84,9.84c-8,9-17,13.56-26.88,13.56-10.68,0-17.76-4.2-21.12-12.6a30,30,0,0,1-1.92-8.88v-4.2a58.23,58.23,0,0,1,6.72-27.84c7.08-13.2,18.36-18.6,33.84-16.32A4.86,4.86,0,0,1,334.44,522.36Zm6.6-90.12.24,2.64c0,.72-3.24,11.76-9.72,33.24-6.6,22-10.32,37.2-10.92,45.84l-.48.48-.84.84q-7.74-27-15.48-60.6h-.48q-1.44,9-3.6,28.44c-2,11.4-5.64,21.12-10.8,28.92l-1.56-1.32c2.76-7.56,5.52-19.56,8.16-36q3.6-22,9.72-34.56c1.32,7.56,3.36,17.4,6.24,29.76l7,30.24a326.44,326.44,0,0,1,9.6-42.24c4.8-16.68,8.88-25.8,12.12-27.6Zm-37.8-58.08-.6,9.84,13.08-1.8c7.08-1.08,12.48-1.56,16.32-1.32l.48,3.24-.84,1.56a5.27,5.27,0,0,1-2.52,1.8c-3.24,1.32-10,2.28-20.4,2.88h-6.48v.36l-1,16.32-1,16.2c0,5.28-.72,9.48-2.16,12.48l-1.08.36-.6-1.08-.24-2.52c0-7.8.84-22.44,2.64-44.16,1.8-23.16,3.36-35.28,4.44-36.12l.72,2.28.12,3Zm3.6-15.72a2.9,2.9,0,0,0-1.92-.36l-.24-1.2.36-3.24a11.71,11.71,0,0,1,.72-3.36l3.48.12,17.64-.36,12.24.24.72,1.08a7.3,7.3,0,0,1,.36,2.64,5,5,0,0,1-.48,2.52l-1,1.08-6.12.24-6.84.84ZM45.24,255.36a4.59,4.59,0,0,1,2.64-2.76l1.32,25.56c.36,9.48.6,18,.6,25.56L49.44,319l-.72,22.92c-.36,8-.36,20.4,0,37q0,12.06-2.52,58.68c-1.92,34.56-3.6,56-5,64.32l16.92-1.56,16.56-1.2,10.56.48,18.12.84a11.24,11.24,0,0,1,1.92,6.6l-.36,2.88a4,4,0,0,1-3.12,3L89.28,511.8l-40.56,1.32a12.69,12.69,0,0,0-2.64.84,10.61,10.61,0,0,1-3.84.84c-3,0-4.92-1.92-5.52-5.64l.12-6c0-6.72.84-16.92,2.52-30.72q2.7-21.6,2.88-31l1.2-30.84c.48-13.08.84-23.28,1-30.84l.48-75.48V257.16A4,4,0,0,1,45.24,255.36ZM79.8,96.48c0,4.44-.84,17.76-2.4,40l-3,36.6-1.32.24a27.71,27.71,0,0,1-1.68-10.56c0-24.36.12-39.48.36-45.12.84-21.12,3-33.12,6.48-36.12C79.32,84.72,79.8,89.64,79.8,96.48ZM138.6,19.8l-98.52-.36-16.56-.6C26.28,34.56,28,52.92,28.68,73.68c.36,8.76.6,30.36.6,64.68,0,17.76-.72,37.92-2,60.48,3.12-.84,7.8-.24,13.92,1.56l5,.24,5.76.84H82.32c7.32.12,12.12.84,14.28,2.28,1.32.84,1.92,2.64,1.92,5.16,0,2.16-.24,3.6-.84,4.44-.72,1.08-2.28,1.56-4.56,1.56l-10.8-1.08-15.48-.24-16-.84-10.8-1.08-13.56-.36L24.12,244v54.36q1.08,8.82,1.08,28.44c0,11.88-.36,20.88-1.08,26.76v57.6l-2.64,56c-1,22.44-1.2,41-.6,56v46.2a69.27,69.27,0,0,0-1.08,10,17.39,17.39,0,0,1-4.08,9c-1.32-1.8-1.92-4.56-1.92-8l1.08-15.12Q16,550.26,16,542.88l-.48-21.48-.6-14.52c0-33.24,1.44-66.6,4.32-100.32V349.68a341.88,341.88,0,0,0,0-47V240.12c1.8-21,3.12-37.68,4-50.28,1.08-19.08,1.68-36.12,1.68-51.24l-2.52-44C20.76,64,19.92,38.16,19.8,17.4A2.28,2.28,0,0,1,19,16.08V14.4q0-2.88,1.8-4c2.88-1.8,9.36-2.4,19.32-1.8L87.72,8.4l51.12.24,1.44,2.28a6.8,6.8,0,0,1,.48,3A7.88,7.88,0,0,1,138.6,19.8ZM282.48,167.64c.6.36,1.2,2.4,2,5.88a33.61,33.61,0,0,1,1.2,5.88c0,4.92-.84,22.68-2.64,53.28l-3.24,55.08v47q-.72,11.34-1.44,31.32l-.72,20.64c0,9.48.72,23.76,2.16,42.72S282,462.6,282,472.08a159.55,159.55,0,0,1-7.56,48.72,147.11,147.11,0,0,1-20,40.56c-8.52,11.88-18,21.24-28.56,27.84-10.92,6.84-22,10.32-33.12,10.32q-31,0-50.28-24.12-15.48-19.26-22.8-53a276.2,276.2,0,0,1-5.88-53.28l.48-24.6q0-53.64.84-77.88,1.26-32.94,6.12-87V231.72c.6-4.2,1-9.72,1.2-16.32l.48-17c.6-13.92,2.28-24.84,5.16-32.64a9.46,9.46,0,0,1,1.2,3.36l.36,3.6-1,15.6-1,15.6-.6,13.32c-.48,8-1,14.4-1.56,19.2v43.8l.36,7.68-3.24,40.68c-2.28,26.28-3.36,47-3.36,62,0,5.88.12,10.56.36,13.8v75.48a135.61,135.61,0,0,0,3.6,37.8A131.65,131.65,0,0,0,136,551.16c5.64,10.08,11.88,18,18.84,23.76C162.12,581,169.56,584,177,584q62.1,0,87.12-56A146.72,146.72,0,0,0,275,489.48c.6-4.44,1.08-8.76,1.32-12.84l.24-4.92c0-6.48-.72-20.16-2.16-40.92s-2.16-35.52-2.16-44l.6-22.32c.6-14.88,1.08-26.4,1.56-34.44V282.12c.6-6.6,1.2-16.08,1.68-28.44.6-14,1.08-23.76,1.56-29.28.6-4.2,1-13.92,1.08-28.92C278.88,183.84,280.08,174.48,282.48,167.64Zm-85.32-156a67.59,67.59,0,0,1,19.08,16.44c5.76,7.56,8.64,15.48,8.64,24,0,9.84-2.4,18.36-7.32,25.56a39.07,39.07,0,0,1-18.72,15.12c4.44,5.88,10.44,14.88,18.12,27.12q13.86,22.32,27.72,47.4a9.93,9.93,0,0,1-1.92,6q-11.52-12.78-33-48.24c-8.4-13.68-14.28-23.64-17.52-30a83.76,83.76,0,0,1-22.32,2.64,19.71,19.71,0,0,1-6.36-1c-1.08,7.8-3.12,19.44-6,34.92q-6.66,36.18-9,42.48c-1.56-1.44-2.4-3.72-2.4-6.84,0-1.56,2-13.32,6-35,3.12-16.92,5.4-29.88,6.72-38.88A9.16,9.16,0,0,1,157,87.72V83.88c.36-1.32,1.08-1.92,2.16-1.92l1.32.12,4.68-39.84c1.68-14.16,3.12-25.56,4.44-34.32l-.12-.6a3,3,0,0,1,.36-1.56L170.16,3,171,4.68l7.08-.36C183.84,5.16,190.2,7.68,197.16,11.64Zm-19.68,2a35.38,35.38,0,0,1-4.8-2.4l.24,2.64c0,4.68-1.44,18.24-4.2,40.44l-3.84,30c1.08,1.32,2.76,1.92,5,1.92,20.64,0,35.28-5.16,43.8-15.36C218.64,65,221,58.68,221,51.84c0-13.08-8.64-23.52-25.8-31.2ZM326.4,53.28a49.19,49.19,0,0,1-4.92,22C316.32,85.68,308,91,296.64,91c-21.72,0-36.24-5-43.56-15.24-3.12-4.2-4.68-10-4.68-17,0-10.08,1.68-18.84,5.16-26.16,4.8-10.56,13-18.12,24.6-22.56Q326.4,13.38,326.4,53.28Zm-3.36.36c0-7.08-2.88-13.68-8.64-20-6.84-7.44-16.32-12.6-28.68-15.48-13,.6-22.44,6.24-28.32,17.16a47.56,47.56,0,0,0-5.76,23c0,4,1.68,8.52,4.92,13.44C261,78.6,267.12,82,274.92,82c20.76,0,34.92-4.08,42.48-12.36C321.12,65.4,323,60.12,323,53.64ZM425.64,425.4l.24,2.76c0,3.36-8,16.92-24.12,40.8l-10.32,15.12a36.57,36.57,0,0,1,1.92,5.52l3.6,13.56L401,516.48c1.68,5.64,3.12,10.2,4.32,13.44q18.72,51.66,18.72,54.36a5.93,5.93,0,0,1-.48,2.88l-1.2,2c-3-5.16-9.48-22.2-19.56-51.24-8.16-23.64-13.2-39.84-15-48.6-7.08,10.08-12.72,17.64-16.8,22.8v26.76l-1.68,23.4a231.56,231.56,0,0,1-2.64,24.48l-1.44.24a23.82,23.82,0,0,1-1.32-8.88q0-27.54,3.24-44.64v-41.4c3.24-22.56,4.92-42.6,4.92-60.12a5.05,5.05,0,0,1,.84-3.12,3,3,0,0,1,1.8-1.2,28.09,28.09,0,0,1,1.32,9.72l-.84,14.28-1,14.16c0,12.24-1.08,22.56-3.24,30.84v7.68c2-3.48,5.64-8.76,10.68-15.84l5.4-7.44v-.36l.6-1.68.6.36,10.32-14.64,13.68-23q7.74-13.14,12.24-18.36A6.78,6.78,0,0,1,425.64,425.4Zm-27-74.88a4.54,4.54,0,0,1,0,1.8q-.54,1.44-4.32,1.44l-8.16-.72-17.4-.6-1.2,26.4.48-.48,28.44.36.72.84a5.17,5.17,0,0,1,.36,2.4,4.91,4.91,0,0,1-.36,2.28l-.72,1h-29l-.24-.36-.24,4.8c-1.32,21.48-1.92,34-1.92,37.44l-.48.48-.84,1c-1-2-1.44-5.4-1.44-10.32,0-18.36.24-31.2.6-38.52.84-15.24,2.64-27.12,5.4-35.4l.36,1,.12.72,1.44-1.08a195.84,195.84,0,0,1,27.84,2.4Zm-47.88-31.68c-7.44,16.8-20.4,25.2-39,25.2-11.88,0-20.16-5.52-24.6-16.56a49.5,49.5,0,0,1-3.24-18.6,67.93,67.93,0,0,1,1.8-11.76l2.52-11a1.44,1.44,0,0,0-1.32.24l-1.2.84-2.64-.24c2.4-2,5-4.2,8-6.48a9.71,9.71,0,0,1,1.92,6.48c0,1.8-.72,5.16-2.28,10.08a41.81,41.81,0,0,0-2.28,12.24c0,3.84,1.2,8.28,3.72,13.44,3.36,6.84,7.68,10.32,13.08,10.32,20.16,0,34.08-7.08,41.88-21.36a50.65,50.65,0,0,0,6-24.48c0-15.48-2.76-32.64-8.28-51.36-4-13.56-10-29.76-18.12-48.6-8.76-19.68-14.88-33.72-18.12-42q-8.28-20.88-8.28-31.68a28.2,28.2,0,0,1,6.84-19.08A29.51,29.51,0,0,1,322.44,85q8.82-2.34,15.12,1.08c4.68,2.52,7,6.6,7,12.48l-.36,6.24a6.26,6.26,0,0,1-4.32,4.8c0,.24-.12.12-.48-.24l1.44-4.44a16.49,16.49,0,0,0,1-4.44c0-2-1.56-4-4.56-5.76A19.12,19.12,0,0,0,327.48,92c-9.12,0-15.84,3.36-20,10.2-2.52,4.08-3.84,7.92-3.84,11.4,0,6.24,2.76,15.72,8.4,28.44,3.24,7.56,9.36,20.76,18.24,39.6q12.24,27.18,18.36,49,8.28,29.34,8.28,56.16Q356.88,305,350.76,318.84Zm34.32-57.6.24,2.64c0,3-.84,15-2.64,36-1.8,21.24-3,35-3.84,41.4l-.48.36-.6.48c-1.56-1.56-2.4-2.76-2.4-3.84,0-4,.84-10.68,2.64-20.4s2.76-16.32,2.76-19.8c.12-18.6,1.44-31.2,3.72-37.92ZM417,263.16c.36,2.76.6,6.48.84,11.16l.24,8.28-.48,9.12,1.08.12.24,1.08.24,2.52c0,.72-.6,1.44-1.92,2.16l-.84,13.68c-1.08,18.36-1.56,29.64-1.56,33.84l-.48.48-.84.84a12.71,12.71,0,0,1-1.2-4.56,39.15,39.15,0,0,1-.24-4.44c0-12,.36-24.72,1.2-38.28-5.64,2-13.92,3-24.72,3l-3.72-.12-1.68-.24a13.93,13.93,0,0,1-.24-3.24c0-1.68,2.28-3.24,6.84-4.56,5.64-1.56,13.56-2.4,23.76-2.4h.24c.6-9.24,1.44-18.72,2.4-28.44Zm85.8-91.8a8.61,8.61,0,0,1,1.08-4.8q24.66,11.16,40,27.72a104.62,104.62,0,0,1,20,33.24c3.12,8.28,6.36,20,9.72,35.52,3.48,16.2,6.36,27.72,8.76,34.44q4.86,46.62,6.72,67.08,4.32,48.06,4.32,72.6c0,5.64-.84,19.92-2.4,42.72-1.68,23.88-3,37.56-3.84,40.92-1.08,4.44-3.36,10.08-6.72,17.16A158.27,158.27,0,0,1,565,564.12q-25.2,34.38-56.28,34.32c-6.6,0-11.4-1.56-14.4-4.8-2.4-2.52-3.12-4.8-2-6.6l-3.36-.36-3.36,1-2.28.24a15.75,15.75,0,0,1,6.72-5.16,16,16,0,0,1,5.28-1.32l1.08-8,3.72-25q5.4-39.24,5.4-69.48c0-14.28-.6-36.24-1.92-66-1.2-26.76-1.68-49.44-1.32-68.28v-41.4c.6-7.08.48-25.2-.36-54.6l-1.44-47.28c0-9.48.12-15.48.24-18a45.83,45.83,0,0,1,2.16-11.76Zm5.64,5.76a34.46,34.46,0,0,1-4-2.88l-.24,12.84-.12,13.8c0,27.48.24,47.88.6,61.2l2.16,78.48,1.8,68.52c.72,29.16,1.08,52.56,1.08,70.32q0,31.5-2.52,51.84c-1.08,8.64-3.72,26-7.8,52.2l3.12,1.68c23.16,0,43.2-11,59.88-33.12a129.61,129.61,0,0,0,14.64-24.48,85.26,85.26,0,0,0,5.52-14.64q1.26-5.22,3.6-34.92c1.56-19.8,2.4-33.36,2.4-40.92q0-12.24-4.92-71.76c-3.24-38-5.16-59.52-6-64.32q-3.42-19.08-7.56-34.2a274.37,274.37,0,0,0-11.64-34q-13-30.6-36-47Q519.78,184,508.44,177.12Zm-31.08-1.2c4.2,4.2,6.24,7.2,6.24,8.88a18.41,18.41,0,0,1-1.68,7.68l-7-8.76c-3.84-4.92-7-7.44-9.48-7.44-6.6,0-11.76,3.6-15.72,10.8a42,42,0,0,0-3.12,7.44l-1,3.72v52c.12,4.2,0,10.44-.36,18.48l-.48,12.72,1.92,56.88,32.88-3.6c2,0,3.36.36,3.84,1.08a11.84,11.84,0,0,1,.36,3.84c0,2.64-1.56,4.8-4.56,6.36-4.8,2.52-13.08,3.72-24.72,3.72l-7.56-.12c0,13.08-.36,28.8-1,47.16L444,445c-.36,7.56-1.56,23.64-3.72,48.24-1.8,21.12-2.76,37.56-2.76,49.2,0,4.56,1.08,10.56,3.24,17.88,3.24,10.8,7.44,16.2,12.72,16.2,8.88,0,15.72-5.4,20.4-16.2,3-7.08,4.56-13.44,4.56-19.08,0-1-1.32-2.28-3.84-4a7.66,7.66,0,0,1,4.08,0c1,.24,1.8-.6,2.4-2.4a6.67,6.67,0,0,1,2.88,3.6l.12,3.72a61.83,61.83,0,0,1-1.32,9.84,99.43,99.43,0,0,1-4.32,16.2c-5.4,14.4-12.72,21.6-21.72,21.6C447,589.8,440,582,436,566.52a105,105,0,0,1-2.76-16.32,74.21,74.21,0,0,1-.48-8q9.9-176.22,10-194.88l-2.16-66.6.6-12.48.72-18.36v-56a85.33,85.33,0,0,1,6.84-15c3.48-6.36,7-10.68,10.32-13.08l7.8.24Zm-88,10.8c0,2.52,1.68,5.76,5.16,9.72l11.28,11.76c10.92,11.4,16.32,21.12,16.32,29.28,0,5.4-.6,9.36-1.92,12.12-3,6.48-9.24,9.72-18.84,9.72-9.84,0-17-4.2-21.72-12.72a30.28,30.28,0,0,1-3.36-8.88,22.94,22.94,0,0,1-.72-4.44,46.09,46.09,0,0,1,.24-6,71,71,0,0,1,4.08-8.28l.6.72a7.5,7.5,0,0,1,.24,2.16,19.81,19.81,0,0,1-1.44,5.64,18.64,18.64,0,0,0-1.56,6.12c0,2.76,1.44,6.24,4.32,10.56q5.76,8.64,14,8.64c10.2,0,17.16-2,20.88-6.24,2-2.28,3-5.28,3-9.24s-1.68-8.52-5-13.32c-2-3-5.76-7.08-11-12.48a133.77,133.77,0,0,1-11.16-12.36c-3.36-4.56-5-8.64-5-12.36a19.3,19.3,0,0,1,2.52-8.88,17.67,17.67,0,0,1,6.84-7.8c7.32-4.56,14.64-.6,22.08,11.76-1.68-1.68-3.36-3.12-4.92-4.44a17.91,17.91,0,0,0-11-3.6c-4.08,0-7.56,2-10.56,6.24C390.48,183.24,389.4,185.4,389.4,186.72ZM424.8,8.4a9.13,9.13,0,0,1,3,3.12l.6,1.68c0,2.64-2.76,14.52-8.16,35.76-5.28,20.4-9.48,35.88-12.72,46.32l-1.08.24L391.68,56.76c-6.12-16.44-11.16-29.4-15-39.12l-.6-.6q-1.62,11.34-7.2,32c-4.2,16.2-6.84,27-7.92,32.16l-1.08.24L358.8,79c2.76-14.88,5.64-28.56,8.52-41,4-16.44,7.08-27.12,9.6-32.28l14.88,37.8,14.64,37.44,7.44-36C416.88,30.12,420.6,18,424.8,8.4ZM561.72,3.12c0,3-1.92,5.16-5.88,6.24-3.24,1-9.84,1.68-19.8,2l-28.56,1.2.12,6.12c0,12.12-1.08,22.32-3.24,30.84v62.52a108.43,108.43,0,0,0-1,12.6l-.24,12.72c-.36,10.44-2.16,18.84-5.28,25.32-1.56-1.32-2.4-3.48-2.4-6.24,0-13.68,1.56-30.12,4.56-49.32V44.64l2.4-21.24c.48-4.08,1-7.68,1.44-10.68l-4.56.24c-18.6,1.08-37.56,2.88-56.88,5.16a35.31,35.31,0,0,1-.6-5.28,15.11,15.11,0,0,1,.24-3.12,5,5,0,0,1,2.76-3.48q34.2-3.78,111-9c3,0,4.92,1,5.76,2.76A5.49,5.49,0,0,1,561.72,3.12Z" transform="translate(-13.8 2.76)"/></g></svg>