<svg id="Layer_1" data-name="Layer 1" xmlns="http://www.w3.org/2000/svg" xmlns:xlink="http://www.w3.org/1999/xlink" viewBox="0 0 571.44 595.2"><defs><style>.cls-1{fill:none;}.cls-2{clip-path:url(#clip-path);}.cls-3{fill-rule:evenodd;}</style><clipPath id="clip-path" transform="translate(-13.56 1.08)"><rect class="cls-1" x="13.56" width="571.56" height="594.24"/></clipPath></defs><g class="cls-2"><path class="cls-3" d="M227.28,443c.36,4.32.6,9.6.6,16,0,7-1.08,20.76-3.12,41.28a25.6,25.6,0,0,0,7.92-1,2.31,2.31,0,0,1,1.44-.48,41,41,0,0,0,14.16-9.12,51.56,51.56,0,0,0,8-9.24q2.88-4.5,2.88-6.84c0-10.2-5.76-18.12-17.16-23.88l-11.76-5.16Zm-2.4-3a15.92,15.92,0,0,1,.84-5.4c15.48,4.92,25.92,11.16,31.2,18.72,3.72,5.16,5.52,12.6,5.52,22.44q0,2-2.16,6.84A56.51,56.51,0,0,1,254,493.8q-7.38,10.62-15.84,13.68l7.08,13.8L256.8,544c1,1.92,5.52,10.08,13.56,24.48,7.08,12.36,10.56,19.08,10.56,19.92l-.36,3.24-.48.48-.84,1c-8.28-11.64-16.92-27.12-25.68-46.44L243,522.84l-7-14.76-4.44.48-7.68-.24-2.28,21.6c-3.84,34.44-6.24,53.64-7.08,57.72-1.32-.84-1.92-2.52-1.92-5.28,0-4.44,1.44-17.4,4.2-39.12l4.56-35.16c0-11.4.48-23.76,1.44-37.2.84-11,1.8-20.76,2.88-29A2.5,2.5,0,0,1,224.88,440Zm70.8,75.72.12,4.2-1,11.16c-.6,6.6-1,10.32-1,11.16l-2.64,17.28c-1.8,11.64-2.88,19.44-3,23.4l.48-.36a4.23,4.23,0,0,1,2.4-.48l13.8.84,20,1.68a8.27,8.27,0,0,1,2.64,2.76,5.12,5.12,0,0,1,1,2.52,5.18,5.18,0,0,1-.48,2.64l-1.2,1.56C317.64,592.68,305.4,592,290,592c-3.24,0-5.28-1.2-5.88-3.48v-4.2c0-8.4,1.44-22.32,4.2-41.64s5-29.52,6.36-30.84A12,12,0,0,1,295.68,515.76Zm22.8-61.8c0,5.16-2.16,9.72-6.48,13.8a28.35,28.35,0,0,1-11.52,6.48c7.68,6.12,16,18.72,24.84,37.68a6.61,6.61,0,0,1-.6,3l-1.08,1.44c-4.32-4.32-10.44-12.12-18.24-23.28-6-8.76-9.72-14.52-11-17.4l-11.64,1c-.72,14.88-2.76,27.48-6.12,37.92l-1.08.24a12.77,12.77,0,0,1-1.08-5.64c0-.84.48-6.84,1.56-18.24s1.68-18.24,1.68-20.76c1.32-3.6,1.56-10.68.72-21.12q-1.26-13.86,2.16-17.28l.36,1.32,1-.6c2-.84,7.68-1.2,16.92-1.32Q313,440,315,442C317.28,444.36,318.48,448.32,318.48,454Zm-5.16-4.44a31.17,31.17,0,0,0-31.8-10.68l.72,10.08.84,15.24-.12,5.28.84-.24,13.08-3.6c12.6-3.6,19-7.56,19-11.76Q315.84,452.58,313.32,449.52ZM322,354.36c-13.92-2.76-25.68.36-35.4,9.36a39.34,39.34,0,0,0-9.12,12.12,27,27,0,0,0-3,11.64c0,1.44.72,3.84,2,7.2a64.37,64.37,0,0,0,5.76,11c6.36,9.72,13.2,14.64,20.28,14.64,9.36,0,15.48-1.92,18.36-5.64a12.07,12.07,0,0,0,2-4.32,21.38,21.38,0,0,1,1-3l1.44-.36,1.08,1.08v-.36l-.48-5.28-.36-5.64L309,396l-.6-1-.24-2.28a14.15,14.15,0,0,1,.24-2.64l.12-.6,18.36-.24c.6,2.64,1.2,6.12,1.8,10.56a77.06,77.06,0,0,1,1,8.52l-.6,9.48-.84,13.56-.6.48-1.2.6c-1.08-1.56-1.32-5.88-1-12.72l.24-2.76c-3.84,8.52-8.88,12.84-15,12.84-14,0-24.72-6.72-32.28-20.28A67.86,67.86,0,0,1,272.64,395a37.6,37.6,0,0,1-1.44-7.8c0-11.16,2.64-20.16,7.92-27.24a35.39,35.39,0,0,1,17.64-12.48,34.09,34.09,0,0,1,17.52-1.32c5.4,1.08,8,2.88,8,5.64Q322.32,354.54,322,354.36Zm-89.4,2.4.48,8.64c0,6.36-.72,17.88-2.16,34.8L229,420.12l2.16-1.08c2.16-1.08,6.12-2.88,12-5.4C254.76,408,260.64,401.4,260.64,394c0-16.08-5.16-28.32-15.6-36.72a46.74,46.74,0,0,0-10.68-6.72l-2.28-1.2Zm-2.76-11.88c12.6-1.68,21.84,4.44,27.72,18.24a78.13,78.13,0,0,1,5.76,30.6c0,21.48-11.28,32.64-33.84,33.72l-1.32-.36-.6,3.24c-1.2-.72-1.8-2.4-1.8-5.16V423l.12-.48,1.68-25.44c1.08-18.72,1.68-32.88,1.68-42.6l.24-5.16.36-1.44-.36-.48a8.56,8.56,0,0,1,.24-2.28Zm48.6-86.4a6,6,0,0,1,1.08,2.16l.36,2.76c0,.36-6.24,8.76-18.84,25.2q-20.52,26.82-26.64,40l3.12-.48,4.92-.84,5.64.48,10.92.84,4.8.84,4.68.84,8.88.6,1.08,1.8a7.76,7.76,0,0,1,.36,2.64,9.69,9.69,0,0,1-.36,3,7.88,7.88,0,0,1-1.32,1.92l-9.72-.72q-8.1-.54-8.64-1.08l-10.8-1.08-10.2,1.56c-6.12,1.08-9.6,1.92-10.44,2.4-2.52-1.68-3.72-3.24-3.72-4.68,0-4.56,7.32-17,22-37.56C256.2,284.16,264,274,268.68,268.32l.6-.6-11.16.48c-6.36.24-15.12.36-26.52.36-3.6,0-5.88-.6-6.72-1.92a8.29,8.29,0,0,1-.24-2.4,10.07,10.07,0,0,1-.12-2.52c.12-.84,1-1.44,2.4-1.92,3-1,11.76-1.92,26.4-2.88H262l4.56.84Zm60.72,4.32.24,2.76c0,1.44-6.36,10.32-19,26.76-12.36,16.2-21.48,27.24-27.12,33.36l.6-.36,2.76-.24a148.75,148.75,0,0,1,23.64,1.56l13.32,1.92a11,11,0,0,1,2,2.52,7.14,7.14,0,0,1,.72,3.24v3.48c-.12.84-.72,1.32-1.92,1.32l-5.64-.84-4.08-1-6.84-1.44-4.56-.72q-17.1,0-20.88,1.44l-1.92,1-3.72.48-3-.12a4.93,4.93,0,0,1-1.56-1,28.58,28.58,0,0,1-.24-4c0-1.8,6.6-11.16,19.68-28.08,11.4-14.76,20.88-26.52,28.2-35L296,269l-1.92-2.64a4.23,4.23,0,0,1-1.08-2.76c0-1.8.48-2.88,1.32-3.24,1.56-.72,5.64-.72,12,0l31.68.24A6,6,0,0,1,339.12,262.8ZM125,2.4a10.6,10.6,0,0,1,1.32,9.6l-1.92,3.12-7.8.36-8.4.72L76,16c-21.6-.12-32.52-.36-32.88-.48l-5.16-.36-5.4-.72L21.6,14V56l.36.84v83.4c.72,3.24,1.08,8.28,1.08,15l-1,14.88c-.6,10-1,17.28-1,22.08L21,198.48l1.08-.24,41.76-4.92v-.6l27.6.36,6,5.76,1.32,1.44c0,6.24-3,7.92-8.88,5.16l-27.12.36-27.48,3.36-14.52,1.32L20,228.72A93.78,93.78,0,0,0,21.12,245v43q1.08,43.92,1.08,131.16,0,27.54-2.16,95.4c-1.44,46.68-2.64,72.84-3.48,78.72-1.56-1.08-2.4-3.36-2.76-6.72-.12-1.32-.24-4.08-.24-8.28q3.24-136.8,3.24-159.6,0-83.52-1.08-125.76V250.68a158.78,158.78,0,0,1-1.08-21.48L15.12,208l-.24-.36a5.45,5.45,0,0,1-.48-2.16,7.58,7.58,0,0,1,1-4.08l.48-18L17,145.92v-89l.24-.84V10.56A16.06,16.06,0,0,1,17,7.44a15,15,0,0,1,.24-2.52V3.24a9.21,9.21,0,0,1,1.2-2.16C19,.36,19.44,0,19.8,0l1.08,1.68c2.76-.72,7.44-.6,13.8.24L44.64,3l62.52-.24,2.64-.24C112.92,2.4,118,2.28,125,2.4Zm88.68,83.4A19.16,19.16,0,0,1,216,95c0,12.72-1,34.56-2.76,65.52s-2.76,61.32-2.76,91.44l1.08,71.52c.24,18.48.84,32,1.92,40.8a284.65,284.65,0,0,1,1.32,29.4l-.24,44.52c-.36,9.12-1.92,26.88-4.56,53.28a151.19,151.19,0,0,1-7,31.8,182.46,182.46,0,0,1-13,31.32c-5.28,10.2-10.68,18.12-16.08,24-6,6.36-11.52,9.48-16.56,9.48q-32.76,0-44.28-52.2c-3.72-16.32-5.52-36.84-5.52-61.68,0-13.92.24-25.8.6-35.76.48-13.44,1.44-25.56,2.76-36.48V321.6l2.52-41.76c1-17.16.6-31.08-1.2-41.88V175.44l.24-.84V101.76c.48-1.08.84-4.56,1.2-10.32.24-4.56,1.32-7.56,3.36-8.88a7.87,7.87,0,0,1,1.32,3.36l.36,3.48-.6,7.68c-.36,4-.84,7.2-1.32,9.84v68l.24.72v56.88c1.2,11.16,1.44,25.8.72,44.16-1.08,25.32-1.56,40.32-1.44,45.12v86c-1.32,10-2.28,20.88-2.76,32.88-.36,8.88-.48,19.68-.48,32.52l.6,16.32a250.89,250.89,0,0,0,4.8,34.44c7.08,33,19.68,49.44,37.56,49.44q21.42,0,36.36-39.72A214.51,214.51,0,0,0,204.84,484c1.8-13.8,3-28.8,3.72-45,.6-13.08.84-28.08.84-45.12,0-13-.36-23.16-1-30.6-1.2-12.6-2.16-26.16-2.76-40.8-.48-9.84-.72-24.24-.72-43.32l.12-27.72q0-46.62.36-69.48l2-31c1.32-20.64,1.92-32.88,1.92-36.72l-.24-14.88-1.32,1.08-1.32-.48a3.75,3.75,0,0,1-.36-2.16c0-.84.72-2.64,2-5.4C210,88.8,211.8,86.64,213.72,85.8ZM196.2,74.4l.24,2.52a6.8,6.8,0,0,1-.48,3l-1.08,1.56L167,82.56,143.4,84.48c-.72-1.68-1.08-4.44-1.08-8.16a401.08,401.08,0,0,1,2.28-40.08c1.44-14.64,3.12-27.12,5-37.32q1.08,4.86,1.08,16.2c0,8.16-.48,18-1.56,29.64l-3.36,29.4L170.16,73l17-.72,7.92.24Zm79.56-47A56.58,56.58,0,0,0,253.2,16c-9.24-2.28-16.8-1.92-22.68,1.2-6.84,3.48-10.2,10.2-10.2,20a67.53,67.53,0,0,0,4.56,24Q232.44,80.64,249,80.64c14.64,0,25.2-5.64,31.56-17a36.85,36.85,0,0,0,5.52-18.72C286.08,38.88,282.6,33,275.76,27.36Zm14,17.52a52.19,52.19,0,0,1-1.08,9,71.94,71.94,0,0,1-4.8,15.36c-6.36,14-16.2,21.12-29.52,21.12-16.92,0-28.2-8.52-33.84-25.68a74.74,74.74,0,0,1-3.36-18.24l-.12-9.36c0-12.36,3.72-21.24,11.28-26.64,6.72-4.68,15.12-6.12,25.08-4.08a48.18,48.18,0,0,1,25,13.2C286,27.12,289.8,35.52,289.8,44.88Zm84.12,209.4c4.44-.36,8.16.6,11.16,3.12,3.24,2.52,4.8,6.24,4.8,10.92a6.56,6.56,0,0,1-.48,2.88l-1.68,1.92a47.45,47.45,0,0,0-4-6.6c-2.28-3-5.64-4.44-10.32-4.44q-16.56,0-22,35.64a206.18,206.18,0,0,0-2.16,36.6c0,10.44-.36,26.76-1.08,48.84L348,391.8l7.08.6,18.36.6c3.24,0,5.16.84,6,2.4a5.33,5.33,0,0,1,.24,2.76l-.48,3.36q-1.62,2.88-6.84,2.88l-24.72-1.2c-.36,12.48-.48,22.56-.48,30.12q0,15.66-3.24,57.6l-3.24,40.32c0,3.72,1,11.88,3,24.72,2.16,13.2,3.72,20.76,4.8,22.68,10.68-1.32,17.4-4.8,20.4-10.32a24.31,24.31,0,0,0,2.28-6.72,30.13,30.13,0,0,1,1.2-6,101.25,101.25,0,0,0,4.08-12.48c1.44-5.28,2-9.36,1.92-12.12h1.8l.24,1.32.12,2.76a104.38,104.38,0,0,1-4.68,30.36c-4.32,14.4-10.56,22.56-18.6,24.36l-9.24-.36c-2.52-3.24-5-13-7.68-29.28C338,546,337,536.28,337,531c0-2.64.84-18.24,2.64-46.68s2.76-58.56,2.76-90.48c0-7.32.48-21.72,1.44-43.08,1-20.64,1.68-32.76,2-36.48a288.39,288.39,0,0,1,7.08-39.84,28.2,28.2,0,0,1,8.64-14.64A21.1,21.1,0,0,1,373.92,254.28Zm-18.36-76.2c0,2.76-3.24,14.76-9.6,36.12-6.72,22.44-11.88,37.56-15.6,45.36-8-9.6-16.08-21.72-24.36-36.48-8.88-16.92-15.84-29.64-20.76-38.16a180.17,180.17,0,0,1-6.6,34.2,220.14,220.14,0,0,1-13.44,35l-1.8-.24c-.6-.12-1-.84-1-1.92,0-3.72,2-10.8,6-21.24l8.16-20.16a50.48,50.48,0,0,1,1.2-10.32,44.55,44.55,0,0,1,3.12-10l.6-10.2c.36-4.56,1.08-7.56,2.4-9q22.5,42.12,45.36,77.64,6.3-14.22,13-37.44c4.68-17.52,8.4-30.6,10.92-39.12l1.08-.24A11.58,11.58,0,0,1,355.56,178.08ZM384,48.84c0,9.72-1.68,18.24-4.92,25.56-6.48,15-18.48,22.44-36,22.44-18.48,0-30.24-5.64-35.16-17a34.64,34.64,0,0,1-2.52-12.6l.36-7.68q0-23,12.24-37.8c7.32-8.88,16.2-13.92,26.88-15.12s19.56,1.8,26.88,8.76Q384,27.06,384,48.84ZM373.92,29.52c-5.4-7.8-13.08-11.64-23.16-11.64a31.09,31.09,0,0,0-11.16,1.8,35.29,35.29,0,0,0-8.88,5.52h-1.08a47.13,47.13,0,0,1,6.72-5.28l8.4-6.12.48-.6c-10.68,2-19.8,8.76-27.12,20.16C312,42.84,309,51.84,309,60.12a28.64,28.64,0,0,0,3.6,14.52c4.44,8,12.24,12,23.52,12,19.68,0,32.88-6.24,39.72-18.72a32.2,32.2,0,0,0,4.32-19A32.64,32.64,0,0,0,373.92,29.52Zm32.52-19.08c.6,5.88,1.08,12.84,1.2,21.12.12,13.56.72,23.16,1.8,29,1.32,7.68,1.8,17.28,1.68,28.68l-.6,28.8,2.4,57.24q0,25.2-8.16,179.16-8.28,154.8-14.28,220c1.68-1.8,5.16-4,10.32-6.72L429.48,554c31.8-15,54.72-29.16,69-42.48,9.24-8.76,18.24-20.52,26.88-35.4,9-17,15.48-29.28,19.68-36.84q13.86-25.56,24.36-69.84,10.26-43,10.2-73.44,0-31.86-10.32-77.64c-6.84-30.12-14.4-53.88-22.92-71.4A317,317,0,0,0,525,109.92a236.34,236.34,0,0,0-30.12-36.6A311,311,0,0,0,431,24.72L410.64,13.2ZM552.6,140.88a416.06,416.06,0,0,1,24.24,77.4,387.18,387.18,0,0,1,8.16,78,347.4,347.4,0,0,1-8.28,74,353.25,353.25,0,0,1-24.48,73.32c-6.84,15-12.84,27.24-18.24,36.72a211.38,211.38,0,0,1-26.4,37.2c-4.08,4.56-11.16,10.56-21.12,18.12-10.2,7.56-21,14.88-32.52,22.08q-42.84,26.46-60,26.52a4.19,4.19,0,0,1-4.2-2.76l-.6,5.76c-1.56-.24-2.64-1.68-3.12-4.32l-.12-4.92q0-6.84,3.84-86.16,3.6-74.88,5.88-116.4l6-91.2q5.94-90.54,5.88-109.8L405.12,99q-2.52-68.76-2.52-88.68a32.13,32.13,0,0,1,.24-4.92,4.1,4.1,0,0,1,1.44-2.88c1.2-1.32,3.24-1.8,6.12-1.68,4.92.36,11.76,2.88,20.4,7.68C450.6,19.44,473.28,37.68,498.72,63a325.91,325.91,0,0,1,31.68,38.52A212.67,212.67,0,0,1,552.6,140.88Z" transform="translate(-13.56 1.08)"/></g></svg>