<svg id="Layer_1" data-name="Layer 1" xmlns="http://www.w3.org/2000/svg" viewBox="0 0 406.81 354.76"><defs><style>.cls-1{fill-rule:evenodd;}</style></defs><path class="cls-1" d="M95.52,102c-4.32,9.72-6.24,20.64-5.88,32.76.6,15.72.48,31.44-.36,47.28l-1.2,23.88-1.32,32-1.2,32-1.32,32.16L83,334.08a296.8,296.8,0,0,1-4.2,40,158.06,158.06,0,0,0-1.2,45.12,34.54,34.54,0,0,0,3,10.8A794.82,794.82,0,0,0,92.76,298.2c.12-20.64.84-41.28,2-61.92a112.22,112.22,0,0,0,49.68,3.24,12.08,12.08,0,0,0,1.8-10l-.48-1.32-.6-1.44-.24-.36a169.79,169.79,0,0,1-48.72-1.68L95.4,113.28l74.16-3.72c3.48-5.28,3-10.08-1.32-14.52A284.43,284.43,0,0,0,95.52,102Zm106.56,98.28q-.36,47.7-1.56,95.76-1.26,42.84,36,59.88A52.15,52.15,0,0,0,265,360.48a27.42,27.42,0,0,0,17.76-9.24,129,129,0,0,0,32.4-70.68,384.61,384.61,0,0,0-4-128.52c-2.88.24-4.2,1.8-4.08,4.8q.54,11.7,1.8,23.76a318.77,318.77,0,0,1-10.8,127.08,51.43,51.43,0,0,1-13.2,22.44q-28.26,28.44-63.12,1.68a13.13,13.13,0,0,1-4.56-6.36,207.09,207.09,0,0,1-10.08-74.16q2.52-65,4.2-128.16A327.48,327.48,0,0,0,202.08,200.28ZM441.84,96.36l-.72.12-2.28,1.44c-1.8,5.64-3.24,11.28-4.44,16.92L423.6,165c-8.52,38.52-17.88,76.68-28.08,114.24l-.6-4.08c-2.52-15.72-5-31.44-7.44-47.28-6.36-42.6-11.76-84.72-16-126.12a9.71,9.71,0,0,0-2.76,2l-.48-6.36a200,200,0,0,0-7.8,37.92q-7.38,63.54-20.76,126T318,387.24a160,160,0,0,1-7.08,31.08c-4,11.88-3.48,22.32,1.32,31.32a150.46,150.46,0,0,0,9.24-37.32q7-63.54,20.16-126,13-62.64,24-125.64c1.08-5.64,1.8-11.28,2.4-16.92.84,7.56,2,15,3.6,22.56a931.29,931.29,0,0,1,17,126.48,102.63,102.63,0,0,0,1.92,14.28,38.23,38.23,0,0,0,3.84,14.16l.48-1.68,2,3.84a9.24,9.24,0,0,0,2.16-6.48l-.6-11.88c4.2-17.28,8.28-34.68,12.24-52.32q14-62.28,28.92-124.44v-.12c.6,8.76,1.56,17.4,2.76,25.92,5.88,42.36,10.68,84.72,14.16,127.32s8.4,84.72,14.76,126.36c2.76,12.6,5.64,24.84,8.64,36.48,2.28-.48,3.48-2,3.36-4.8a722.42,722.42,0,0,0-9.12-86.4c-7.08-42.12-12.12-84.48-15.36-127.2a1012.28,1012.28,0,0,0-16.44-119.76A84.55,84.55,0,0,0,441.84,96.36Z" transform="translate(-76.56 -94.88)"/></svg>