<svg id="Layer_1" data-name="Layer 1" xmlns="http://www.w3.org/2000/svg" viewBox="0 0 449.78 389.64"><defs><style>.cls-1{fill-rule:evenodd;}</style></defs><path class="cls-1" d="M338.52,267.48a145.6,145.6,0,0,1,7.08,16.08,843.48,843.48,0,0,1,34.2,123.12c2.88,14.88,5.16,29.88,6.72,44.88.84,9.36,3.84,16.32,8.76,20.88a12.84,12.84,0,0,0,1.2-7.32,767.69,767.69,0,0,0-26.64-124.56A1113.77,1113.77,0,0,0,326,220.8c-1.68.48-2.4,1.68-2.16,3.72a.94.94,0,0,0-1.2.84q-2.7,37.8-3.48,76.32-1.26,64.62-5.64,129c-.84,12.24,1,22.8,5.16,31.68a3.18,3.18,0,0,0,1.44-2.4l5.64-107A1047.72,1047.72,0,0,0,324.36,227,145.06,145.06,0,0,0,338.52,267.48ZM107.28,320.4q-.18,37.8-2.88,76.2A370.38,370.38,0,0,0,105.48,460L175.56,461l.48-.84a13.86,13.86,0,0,0-.48-12.12,4.33,4.33,0,0,0-2.88-.72,325.69,325.69,0,0,1-62.88-3.84c1.2-20.76,2.16-41.64,3-62.52a274.91,274.91,0,0,0-4.32-61.68C107.64,319.2,107.28,319.56,107.28,320.4ZM89.52,90.12Q78.36,210.9,76.92,333.36c-.12,10.68-.36,21.48-.72,32.28l-1.08,23.88-.6,11.88-.72,11.88-.36,6.48V426l.12,6.12.48,6c.36,4,1,7.8,1.68,11.64L77.88,461A2319.85,2319.85,0,0,0,88.32,215.52a119.06,119.06,0,0,0,59.16,2,16.71,16.71,0,0,0,1.44-9.72,5.14,5.14,0,0,0-2.16-3.6,140.22,140.22,0,0,1-57.84-.48A693.32,693.32,0,0,0,92.28,99.12l80.28,3.72a8.45,8.45,0,0,0,2.52-5.64,12.37,12.37,0,0,0-2-6.84l-68.16-3.48Zm212.76,8.76c-1.56,17.4-2.28,35.4-2.16,54.24q.54,64.08,2.16,128.28a319.35,319.35,0,0,1-23,129c-9.48,23.4-27,31.8-52.8,25q-19.08-16.92-17.28-42.84c1.08-14.64,1.8-29.28,2.28-43.8q2.34-64.26.12-129-2-64.8-1.32-128.28a172.24,172.24,0,0,0-5,43.92l1.92,129q1.26,64.26-2.64,128.28a100.37,100.37,0,0,0,3,31.2c5.64,22.2,20.16,32,43.44,29.28a25,25,0,0,0,19-11.28q35.64-53.1,37-118.2c.84-43.08,1.08-86,.72-129.12-.12-21.6.48-43.2,1.68-64.8.6-12.48-1.44-23-6.24-31.8A1.87,1.87,0,0,0,302.28,98.88ZM401.4,233q-3.42,51.84-2.76,104.64Q399.36,402.12,397,466c.84,1.92,2.16,2.4,4,1.56q5-52,5.28-106.32.18-65-4.44-128.16Zm25.68-111.72q2.34,64.44-.36,129c-1.8,42.84-2.52,85.92-2.28,129,.12,21.72-.6,43.32-2.4,64.8q-1.62,17.82,4.32,32.4,1.08-.72,1.08-1.44,4.86-60.3,4.56-121.68-.36-64.62,1.2-129.12,1.62-65-1.08-128.16Q426.54,106.74,427.08,121.32ZM372.24,98.76c-13.68,5.16-24.36,14.4-32.16,27.72a116.14,116.14,0,0,0-14.64,42c-2.28,16,1.92,30.12,12.36,42.36,10.92,12.72,24.6,17.76,41,15.24,19.08-3,28.2-13.32,27.48-31l-.48-2.76A58,58,0,0,1,374,210c-10.56,2-19.68-.72-27.36-8.16C330.48,186.12,327,166.92,336,144.12c5.88-15,16.44-24.84,31.56-29.4a45.61,45.61,0,0,1,35.4,3.6c2.28-3.12,2-6.48-1-10a27.42,27.42,0,0,0-16.8-9.48A42.59,42.59,0,0,0,372.24,98.76Zm135.6-3.24a1.8,1.8,0,0,0-1.8,1.2q-25.56,58.14-48.24,117.6a307.54,307.54,0,0,1-13.32,29.28c-8,15.24-11.64,30.12-11,44.64a24.21,24.21,0,0,0,5.4-7.56c7.08-14.76,13.68-29.76,19.68-44.88A395.54,395.54,0,0,0,467,289.44Q480.9,351.18,499,412.2,504.9,432,509,451.8c2,9.72,5.88,16.8,11.28,21.48a17.85,17.85,0,0,0,1.8-16q-17.64-50.76-30.84-103.56L460.56,230.88l1.8-4.92L507,106.08l.84-.84Q511.26,100.56,507.84,95.52Z" transform="translate(-73.44 -86.88)"/></svg>