<svg id="Layer_1" data-name="Layer 1" xmlns="http://www.w3.org/2000/svg" viewBox="0 0 476.32 317.64"><defs><style>.cls-1{fill-rule:evenodd;}</style></defs><path class="cls-1" d="M78,126a1020,1020,0,0,0-7.68,104c-1.08,43.08-2.4,86-4.2,129a314,314,0,0,1-2.76,32.16c-1.8,12.6,0,23.16,5.4,31.92a2.7,2.7,0,0,0,1-1.68,244.25,244.25,0,0,0,5-46.2Q76,311,79.44,246.36v-.24l39-1.2.48-.84c2.52-6.24,1.92-11.88-1.56-17a105,105,0,0,0-37.2,3.24c1.32-34.2,1.32-68.16-.12-101.64l1.68,1c16.44,6.24,34.2,7.92,53.28,4.92l1.08.72,1.2,1c2,2.16,4.08,2.64,6.12,1.32a14.52,14.52,0,0,0,1.92-7.32l-.12-.84v-.84l-.12-3.24a7.85,7.85,0,0,0-2.76-4.92l-2.88-.72a10.76,10.76,0,0,0-4.68-.84,209.57,209.57,0,0,1-53-2.4c-2.76,1-4.2,3.24-4.2,6.72A7.26,7.26,0,0,0,78,126Zm245.64,6a819.33,819.33,0,0,0,0,111.24A446,446,0,0,1,314,372.36q-7.92,34.74-42.12,36.48-11.16-11.16-11.52-28.44-1.44-64.62,1.32-129c1.8-43.32,2.4-86.16,1.8-128.28-3.6,2.28-5.4,6-5.52,11q-.72,43.56-2.52,87c-1.68,42.84-3,85.92-4.08,129a185.62,185.62,0,0,0,9.12,62.64c4.92,14.88,15,18.36,30.48,10.56,14.52-7.32,24-19.44,28.68-36.24a393.91,393.91,0,0,0,14-121.2q-2.34-64.44-4.2-128.16a6.67,6.67,0,0,0,4.32-3.84A8.47,8.47,0,0,0,328,132.6C326.88,130.56,325.44,130.32,323.64,132ZM180.12,118.2h-.48l-3.24.24-1.08.36-.84.84A18.72,18.72,0,0,0,173.4,127l.12,1.08q-3.78,37.62-6.84,76l-9.84,128.28c-1.56,21.36-3.72,42.72-6.6,64-1.68,12.12-.24,22.92,4.44,32.4a2.67,2.67,0,0,0,1.32-1.56,303.78,303.78,0,0,0,6.72-50.16q3.06-63,9.36-125.64a49.69,49.69,0,0,0,21.48-2.76l.6-.24c7.92,39.48,15.12,79.08,21.72,119a438.61,438.61,0,0,0,14.64,62.4l1-.84a29.28,29.28,0,0,0,2.52-19.2c2-2,3.12-4.2,3-6.48l-.6.84c-.72,1.92-1.68,3.12-2.88,3.48-3.72-15.72-6.84-31.56-9.36-47.4a977.47,977.47,0,0,0-24.72-114q30.42-14,32.88-50.76,3.42-50-38-76.32l-7.08-.24Zm34.8,35.52c9.48,13.8,12.24,28.8,8.28,44.76-3,12.36-10.2,21-21.48,25.8A228.22,228.22,0,0,1,173.64,234a780.39,780.39,0,0,0,1.68-101.88Q200.7,133,214.92,153.72Zm303.6,16.2a84.27,84.27,0,0,1,12.72,41.52,74.32,74.32,0,0,1-12.12,44.64c-8.76,13.68-21.24,22.2-37.32,25.56a1097.91,1097.91,0,0,0,.6-134.76C498.12,148.8,510.12,156.48,518.52,169.92ZM480,131.52c-2.52,1.08-3.84,3.24-3.84,6.72-.12,42.72-.24,85.44-.6,128.28s-1.68,85.68-4.2,128.28l-.36.48a5.11,5.11,0,0,0-1.8,2.4c-1.8,12.24-.36,23,4.32,32.52a1.71,1.71,0,0,0,1.2-1,366.67,366.67,0,0,0,5.76-51.72q1.26-26.82,1.08-53.64l.12-24.12c18.72-3.24,33.72-13,44.88-29.4A141.29,141.29,0,0,0,538.32,198q-4.68-48.06-48-66.24a19,19,0,0,0-10.08,1.32Zm-48.72,0c-2.28,1.08-3.72,3.24-4.44,6.48Q413,200.82,403.68,264.6l-1.2,7.2a135.26,135.26,0,0,1-1.56-16.08,883.28,883.28,0,0,0-15.12-126.6c-2.52.6-3.48,2.52-3.12,5.64l.24,2.16a898.21,898.21,0,0,0-16.2,92.28Q358.8,293.1,346.8,356a125.72,125.72,0,0,1-8.16,26.76C331.8,399,330.84,415,336,430.44a2.09,2.09,0,0,0,2.52-1.68,1095.14,1095.14,0,0,0,23-108.48q9.9-63.36,18.72-126.72c2-14,3.48-28,4.32-41.64q5.22,50.22,7.56,100.56a234.06,234.06,0,0,0,6.24,44.64,31.62,31.62,0,0,0,3.12,11.52l2.16,6.84a42.09,42.09,0,0,0,3.48-21.12c4.2-19.8,7.68-40,10.32-60.48q4-31.68,10.44-63.12l1.44-8q5.76,56.16,10.56,112.32c2.76,31.8,4.44,63.84,5.28,95.88A222.79,222.79,0,0,0,455.64,434q6.66-18.18,2.16-39.6c-1.44-.84-2.28-2.88-2.4-5.88q-3.78-63.9-8.76-127.44C443.4,219,438.24,177.6,431.4,136.8Z" transform="translate(-62.69 -116.4)"/></svg>