<svg id="Layer_1" data-name="Layer 1" xmlns="http://www.w3.org/2000/svg" viewBox="0 0 530.78 356.28"><defs><style>.cls-1{fill-rule:evenodd;}</style></defs><path class="cls-1" d="M176.64,122.88l-.24.84-.24.72L175.08,127q-41.76-4-84.6-5.88a22.63,22.63,0,0,1-9.24-1.92,156,156,0,0,1-.36,36.6q-4.5,37.8-7.8,75.84L130.32,224l1.68.84.84.84A16.66,16.66,0,0,1,133,241l-1,1.8a274.39,274.39,0,0,1-60.12,3.48L69.36,283.8c-2.64,42.84-5,85.56-7.32,128.4A153.53,153.53,0,0,1,52.68,458c-.12.48-.6.84-1.32,1.08-3.72-9.72-4.68-20.28-2.88-31.92,3.24-21,5.76-42.12,7.44-63.6q4.86-64.08,8.28-128.28a994.63,994.63,0,0,1,13.32-120c-1.2-2.88-.48-6.84,2-12,.12-.24.48-.36,1.08-.48,12.84,5.16,26.64,6.36,41.16,3.6a108.56,108.56,0,0,1,41.28.36l10.56,1.44c3,3,4.08,6.84,3.48,11.4ZM257,143.4A574.08,574.08,0,0,1,269.4,270.84a465.36,465.36,0,0,1-19.08,126.24,81.66,81.66,0,0,1-28.8,42.36q-29.7,22.68-55.32-5.16a27.58,27.58,0,0,1-7-15.12,588.75,588.75,0,0,1-2.16-128.4q3.06-31.86,4.68-64.08a575.2,575.2,0,0,1,6.72-64.8c4.44,2.4,6.24,7.32,5.52,14.76-2.16,21.24-3.84,42.6-5.16,64q-3.78,63.9-6.12,128.16a157.71,157.71,0,0,0,5.76,48.72q29.88,24.66,58-5.28a81.8,81.8,0,0,0,18.84-31.8,277.8,277.8,0,0,0,12.36-63.48,719.48,719.48,0,0,0-1.44-126.6C255.12,179.76,253.44,171,251,164a27.53,27.53,0,0,1,5.64-20.52ZM391,335.88q-7.38,68.58-66.84,103.8a77.61,77.61,0,0,1-35.76,11l-.36-.24-.72.24c-2.76-2.64-4-6.12-3.48-10.56l-5.4-2.4a11.06,11.06,0,0,1,.12-9.72l.12-.84a17.42,17.42,0,0,0,3.84-7.2l.24-.12a15.55,15.55,0,0,1-2.76,10v.6q.9,3.78,4.68,2.16c5.16-42.48,8.88-85.2,10.92-128.16q3.24-63.9,2.88-128.28c-.12-16.56-.6-32.88-1.68-49.08l-.72.12a12.29,12.29,0,0,1-2.76-10.56q1.62-8.82,10.8-9.72,42.3,5.22,61.2,42.6a266.47,266.47,0,0,1,29.16,123.84A604.55,604.55,0,0,1,391,335.88Zm96.12-192.72q-6.3-23.22-27.36-9.72c-13.8,8.88-22.32,21.12-25.56,36.84a656.41,656.41,0,0,0-13.8,120.84l-1.8,90.12a125,125,0,0,0,3.24,30A129.83,129.83,0,0,0,432,422.76l5.28,5.52c14-2.76,24.84-11.4,32.4-25.68l-.12-2.4a13.58,13.58,0,0,0-1.32-6.6l-.12-.72.12-.48a3.25,3.25,0,0,0,2-1.92l.84-1.68a14.15,14.15,0,0,0,6-3.36l1.08-.72v-1.56a24.09,24.09,0,0,1,1-5.76,120.09,120.09,0,0,1-26.28.36,16.26,16.26,0,0,1-1.32-9.84,5.65,5.65,0,0,1,1.32-3.12,192.27,192.27,0,0,1,25.44-5.4l2.76.24a106,106,0,0,1,6.24,48c-1.08,12.48-1.68,24.84-1.8,37.2q-.18,7.56-5,11.88A87.27,87.27,0,0,1,476,421.56a78.27,78.27,0,0,1-7.8,9.6L456.6,443c-6.12,6.12-13.2,8-21.24,5.52-20.28-18.12-29.28-41.16-26.76-69.12,1.8-20.76,3-41.52,3.72-62.4q2.34-64.62,8.28-128.28,3.78-41.22,32.76-69.84a38.39,38.39,0,0,1,15.24-9.36c18.36,3.84,24.72,14.76,19.08,32.88Zm-135.84,6.48c-14-16.2-31-23.88-50.64-22.8a438,438,0,0,1,6.6,100l-5.88,128.28a584.39,584.39,0,0,1-8.64,74.64q67.86-19.62,84.84-87.36a285.43,285.43,0,0,0,8.4-63.6q1.26-68-33.12-125.88A20,20,0,0,1,351.24,149.64Zm224.52-2.76c-2.52-3.72-4.92-7.92-7.32-12.36a10.69,10.69,0,0,0-4.32-4.32q-26.64,4.5-33.84,32.76a491.29,491.29,0,0,0-14.76,106l-.12,4.92a208,208,0,0,1,40.32-8.64c3.72,5,4.08,10.44,1,16.08l-.6,1a150.13,150.13,0,0,1-40.92,3.84c-.84,37.08-1,74-.12,111.12a42.36,42.36,0,0,0,8.16,25.08,20.7,20.7,0,0,0,7.92,6.36,28,28,0,0,0,16.56,2.16,103.6,103.6,0,0,0,13.08-13.08l1.2-1.56-.36-1.56a5,5,0,0,1-.12-3.24L562,411l.24.48a2.31,2.31,0,0,0,1.8-1.2l1-1a6.24,6.24,0,0,0,2.76-.84,3.55,3.55,0,0,0,1.32-1.8,2.34,2.34,0,0,1,2.4-1.32l3,.48c4,15.24-1.32,28-16.08,38.16q-25.38,17.64-43.08-9.84a31.42,31.42,0,0,1-4.92-15.36q-4.14-63.18-2.52-126.6a609.19,609.19,0,0,1,16.32-127.92,124.05,124.05,0,0,1,17-39.36c4.44-6.84,10.92-10.8,19.44-12.12l3.84.36c11.4,7.8,15.72,18.24,13.2,31.56A2.31,2.31,0,0,1,575.76,146.88Z" transform="translate(-47.6 -102.84)"/></svg>