<svg id="Layer_1" data-name="Layer 1" xmlns="http://www.w3.org/2000/svg" viewBox="0 0 304.88 206.4"><defs><style>.cls-1{fill-rule:evenodd;}</style></defs><path class="cls-1" d="M314.88,291.36a127.48,127.48,0,0,0-3.24,44.88c1.8,15.48-3.24,28.44-15,38.76q-23.94,21.06-36-6.72A73.15,73.15,0,0,1,256,325.8a93.1,93.1,0,0,0-1.44-40,295.83,295.83,0,0,0-3,85.44c1.68,15.72,9.6,24.84,23.88,27.36,10.44,1.8,19.44-1.56,26.76-10a85.78,85.78,0,0,0,21.24-48.24,103.25,103.25,0,0,0-1.8-33.24A48.55,48.55,0,0,0,314.88,291.36Zm-82-90.36L189,199.2l-27.84-2.4a2.49,2.49,0,0,1-1.44.6l-.12-.72a77.5,77.5,0,0,0-4.32,26.64q2.16,81.9-3.72,163.68A16.68,16.68,0,0,0,155,398.76l1.32,1.68,6-99a215.64,215.64,0,0,0,41.16,5h5.88a5.19,5.19,0,0,0,1.44-2.64l.36-1.44.24-1.44.12-1.44v-.72l-.36-1.68-.48-1.68-.84-1.92-47.4-4.08-2.16-82.32A150,150,0,0,0,195.84,214a153.22,153.22,0,0,0,37.08-1.56Zm164.4,171.36c-3.84-18.12-7.68-36.48-11.4-55.2a876.11,876.11,0,0,0-33.6-122.28c-1.68,0-2.52.84-2.64,2.64a72.23,72.23,0,0,0,3.24,24.84q18.9,61.38,31.92,124.32A146.22,146.22,0,0,1,388,370.56q.9,15.84,7.92,26.64l1.32,4.08.6-1.32.24.24.6-.84.84-3a607.51,607.51,0,0,0,32.4-92.16c5.4-20.76,11.4-41.16,17.76-61.2a131.13,131.13,0,0,0,6.6-46.8,75.8,75.8,0,0,0-12.84,28.92,1268.78,1268.78,0,0,1-34.68,122.64A74.41,74.41,0,0,1,402,362.52,66.16,66.16,0,0,0,397.32,372.36Z" transform="translate(-151.5 -194.88)"/></svg>