<svg id="Layer_1" data-name="Layer 1" xmlns="http://www.w3.org/2000/svg" viewBox="0 0 391.91 358.32"><defs><style>.cls-1{fill-rule:evenodd;}</style></defs><path class="cls-1" d="M179.52,408.84c-1.8,12.6-.36,23.16,4.2,31.68a292.59,292.59,0,0,0,6.72-58.44q1.08-64.26,5.16-128.16a1177.93,1177.93,0,0,0,1.56-128.4,850.21,850.21,0,0,0-8.28,91.08q-2.52,64.08-4.32,128.4A627,627,0,0,1,179.52,408.84ZM85.8,115.8l-.72,6V122L85,123.12A745.52,745.52,0,0,0,80.4,220.8c.72,43.08,1,86,.84,129.12,0,21.6-.6,43.2-1.92,64.8-.6,12.6,1.32,23,5.88,31.44a494.84,494.84,0,0,0,3.48-72.24q-1.44-64.44-1-129V241.2a182.14,182.14,0,0,0,40.44.48l.48-.6c3-5.64,2.4-10.08-2-13.2-13.08.48-26,1.56-38.88,3.12.12-34.92-.48-69.48-1.56-103.8a4.78,4.78,0,0,0,2.52,1.08l1.2.24a198.21,198.21,0,0,1,61.32,1.92,9.51,9.51,0,0,0,1.68-4.08L153,124a12.09,12.09,0,0,0-1.08-4.08l-.48-.84a1.2,1.2,0,0,0-.6-.48,204.81,204.81,0,0,0-38.28-4.68,136.1,136.1,0,0,1-19.44,3.72,14.4,14.4,0,0,0-7.2,2.52Zm172.08,25.92q36.54,14.94,28.44,54.36-7.92,38.34-43,47.16c2.76-34.68,4.8-69.12,6.36-103.44A26.19,26.19,0,0,1,257.88,141.72Zm-12.12-12.84-.6.24-.48.48-1.44,1.68-.6.72-.24,3.36a9.4,9.4,0,0,0,.48,3.12l.36.84,3,.36h.48a180.25,180.25,0,0,0-6.48,40.68L232.8,308.88c-2.52,43.08-7.2,85.68-13.8,128-1.2,7.56.6,12.36,5.28,14.64a368.58,368.58,0,0,0,9.48-67.2q3.24-63.72,8.4-127a31.38,31.38,0,0,0,16.8-4.68l.6,3.84L272,308.64q14.58,61.74,23.52,124.68c1.56,11.64,5.16,21.72,10.68,30.12l.6-.6a60,60,0,0,0,0-29.88l-.12-.48c-1.08.48-1.32,1.56-1,3.12A620.22,620.22,0,0,1,291.36,364a731.61,731.61,0,0,0-26.64-115.68C288.84,226,297.6,198.6,291.24,166.2q-6.66-33.84-40.2-37.68l-.84.12ZM388,127l-2.64-.6-80.16,4.32-.6,1.68a12.67,12.67,0,0,0,.36,7.32,271.9,271.9,0,0,0,49.56,4.44V145q-2.16,50.4-2.88,101.52-1.08,64.44-3.36,129.12c-.84,21.6-2.64,43.2-5.52,64.68-1.68,12.12-.36,22.8,4.08,31.92a556,556,0,0,0,8.52-82.08q2-64.44,3.36-129c.84-39.48.84-78.6.12-117.12L388,141.84l1-1.56a13.88,13.88,0,0,0-.12-12.84A1.93,1.93,0,0,0,388,127Zm16.68,31.44c-3.72,39.72-6.24,79.68-7.32,120-.84,32-2.28,64-4.08,95.88C391.92,396,389.88,417.6,387,439c-1.56,11.88-.36,22.68,3.72,32.4A4,4,0,0,0,392,469.8a59.9,59.9,0,0,0,3.36-15.12c1.68-16.32,2.88-32.88,3.48-49.56l4.2-99.48A435.37,435.37,0,0,0,456,304.32L452.76,367c-1.2,21.48-3.36,42.72-6.6,63.84-1.92,12.48-.6,23.28,4.08,32.4a428.2,428.2,0,0,0,9.84-79.92Q461.34,343,463,302.52l.24-.6a11.86,11.86,0,0,0,.12-10.08l1.68-37q2.7-64.62,6.12-127.44a5.71,5.71,0,0,0-3.6,4.92q-7,52.74-9,106.2l-1.8,50.16a189.7,189.7,0,0,0-53.28,6.6l.72-18.6q2.52-64.62,3-128.16A29.58,29.58,0,0,0,404.64,158.4Z" transform="translate(-79.21 -113.88)"/></svg>