<svg id="Layer_1" data-name="Layer 1" xmlns="http://www.w3.org/2000/svg" viewBox="0 0 342.28 381.14"><defs><style>.cls-1{fill-rule:evenodd;}</style></defs><path class="cls-1" d="M207.12,239l26.76-114L253,240.24A125.7,125.7,0,0,0,207.12,239ZM236.4,87.36a81,81,0,0,0-8.28,23.52L201.72,236.4q-13.32,62.1-24.48,124.68A324.75,324.75,0,0,1,160,423c-4.8,12.36-4.8,22.8-.12,31.32a298.73,298.73,0,0,0,16.44-53.64q13-62.82,24.12-125.76l4.8-25.8c16.44,1.92,32.88,3.12,49.56,3.48,2.88,18.12,6,36.24,9.24,54.36,7.32,41.88,13.32,83.88,17.76,126,1.32,12.12,4.68,22.32,10.2,30.48a5.38,5.38,0,0,0,2-4,129.49,129.49,0,0,0-1.8-27.24q-8.46-45.54-16.56-91.08-8.1-44.82-15.24-89.88a8.32,8.32,0,0,0,1-3.36v-.84l-.12-1.68a15.71,15.71,0,0,0-.72-3.24l-.48-.84-.84-.48h-.48l-4-25.44q-9.54-62.46-18.24-123.72Zm-48.12,17.28.36-.48.36-.72.24-.72.24-.72c1.2-4.2.48-7.68-2.28-10.56-13.08-1.08-26.28-2.52-39.48-4.56a150.49,150.49,0,0,0-46.44.72l-2.88.84a5.13,5.13,0,0,0-1.2,3.48l-6.6,130.2Q85,327.42,84.12,432.6a13.48,13.48,0,0,0,.48,3.84l1.08,3.6L87,443.52l1.44,3.24,8-204.36a115.24,115.24,0,0,0,16.68,3.72,215.11,215.11,0,0,0,49.68,2.52l.6-.6.48-.6.36-.6.36-.72.24-.72a13,13,0,0,0-1.56-10.8l-16.2.6a271.26,271.26,0,0,1-48.36-4.08l-1.8.24L100,97.8l87.84,7.44Zm199.92-4.2a434,434,0,0,1,4,46.92c.12,7.08.12,14.16-.12,21.24l-1.32,32.28-1.44,32-2,32-2.16,31.8L382.8,329l-2,32.28c-.6,10.68-.84,21.48-.48,32.28a191.32,191.32,0,0,1-4.08,45.24c-2.28,10.68-1,19.92,3.72,27.72L394.2,259.08l30.12.24A11.35,11.35,0,0,0,425.76,249a16.82,16.82,0,0,0-1.8-3.6l-1.32-1.8-27.84,3.24a861.53,861.53,0,0,0-1.44-140.76l25.8-1.32L418.68,93l-29,1.68Zm-24.6-5.16a54.52,54.52,0,0,0-29.76-2.16,7.7,7.7,0,0,0-1.92,8.88,4.32,4.32,0,0,0,1.44,2.16L321.72,350c-1.56,32.76-3.36,65.28-5.4,97.8a19.88,19.88,0,0,0,1,7.44l1.32,3.6,1.44,3.24a1478.06,1478.06,0,0,0,15.12-206.4L356,257.88l3.72,1.8A11.33,11.33,0,0,0,362.4,251l-.48-2.52L361,246l-.84-1.08a47.88,47.88,0,0,0-24.36-.84,1045.09,1045.09,0,0,0-.36-139.8L364,106.56Z" transform="translate(-84.12 -85.42)"/></svg>