<svg id="Layer_1" data-name="Layer 1" xmlns="http://www.w3.org/2000/svg" viewBox="0 0 566.79 584.92"><defs><style>.cls-1{fill-rule:evenodd;}</style></defs><path class="cls-1" d="M448.8,477.24c-1.8-1.8-2.76-3.36-2.76-4.68l4.68-.36,22.44.36c2.76,6.6,4.08,16.8,4.08,30.84a35.64,35.64,0,0,1-.84,9h-.84c-.24-1.8-.72-7.44-1.32-17l-.72-7.2A42.89,42.89,0,0,1,468.6,500c-5.16,8.52-12.36,12.84-21.72,12.84-17.52,0-29.4-6.72-35.64-20-3-6.12-4.44-13.56-4.44-22.32,0-5.16,1.44-11.64,4.32-19.32,3.36-9.12,7.68-16.44,12.84-22.08,6.48-6.84,13.68-10.08,21.48-9.72,9.48.6,19.44,6.36,30.12,17.52l-.24,1.56-.36.24c-4.44-2.88-8.4-5.4-11.88-7.44-6.84-4-11.28-6-13.56-6-14.16,0-25.08,7.32-32.88,21.84a75.42,75.42,0,0,0-6.12,15.6,37,37,0,0,0-1.56,7.92l.84,5.76A82.46,82.46,0,0,0,413,488.64c4.32,11.64,10.56,17.52,18.72,17.52,17.28,0,29-3.24,35.28-9.6a19.44,19.44,0,0,0,4.32-7.32l1.68-4.68-1.32-6.24ZM54.72,265.68v15.84c0,13.08-.12,25.44-.48,37.08-.36,11.4-.6,28.56-.6,51.48l-1,16c-.6,10.68-1.08,18.6-1.2,23.76v.6c4.44,0,12.48.12,24.12.48s23.16.6,34.68.6c2.88,0,4.68,1,5.4,3a6.34,6.34,0,0,1,.24,3.36A8.32,8.32,0,0,1,114.6,423c-1.56,2-4.8,3-9.72,3l-35.76-1.56L48,422.28a25.79,25.79,0,0,1-1.56-9.72c0-1.92.24-6.36.6-13.44.6-8.28,1.2-14.88,1.8-19.92V325.68c.36-2.28.72-5.64,1.08-10.32s.72-8.4,1.08-10.8V253.44c.6-1.56,1.32-2.52,2.16-2.76A80,80,0,0,1,54.72,265.68ZM135.6,17l-1.32,2.16c-19.8,0-30.6-.12-32.4-.48s-13.08-.6-33.84-.6l-7.8-.24L54,17.28c-12.24.84-20.28,0-24.24-2.28-.12,6.6-.72,16.2-1.68,28.92-1.08,13.44-1.56,24-1.32,31.8V169.8l-.84,28.8,3.84-.36,55.8-2.16,1.32,2.16a11.13,11.13,0,0,1,.36,3.12,6.53,6.53,0,0,1-1.92,5.16l-20.16,1-15,1L25.68,208,20.52,380.88V462c.72,13.08,1.08,32.52,1.08,58.44l.12,29.88c-.48,19.44-2.16,32.28-4.92,38.64a8.94,8.94,0,0,1-1.2-2.4,9.05,9.05,0,0,1-.48-3.36,54.51,54.51,0,0,1,.72-6.84c.48-3.24,1-6.12,1.44-8.52V472.08c-.48-6.84-.72-16.92-.84-30.24l-.24-20.16v-46.2c1.44-12.12,2-20.76,1.92-25.92-.6-5.88-.84-12.6-.84-19.92q0-31.5,2.16-80l2-44.88-.36-1.2a7.19,7.19,0,0,1,.6-3.12L23,169.2v-94c.12-4.2.24-9.84.12-17.16V40.44c.12-12.36,1.56-22.44,4.2-30a3.87,3.87,0,0,1,0-1.68c.12-.84,1-1.44,2.28-1.8,3.72-1.2,12.12-1,25.44.6C94,6,118.2,5.76,127.8,7.08c4.2.48,6.72,1.32,7.56,2.64.36.48.6,1.92.6,4.2A11.13,11.13,0,0,1,135.6,17ZM257.52,88.8l.72,5.88.24,8c0,6.36-.24,13.32-.84,21.12,12.36-1.08,20.28-3.24,23.76-6.72a8,8,0,0,0,2.4-4.8l-.12-4.56c0-3.72-2.52-7.8-7.56-12a27.28,27.28,0,0,0-18.12-7Zm-3.84-5.16c13.8,1.2,23,5,27.72,11.4,2.76,3.84,4.2,10.08,4.2,18.6a12.88,12.88,0,0,1-4.56,9.72c-3,2.76-7.08,4.56-12.36,5.4L277.2,146a90,90,0,0,1,7.32,21.6l-.48.48-.6.84c-2.28-3.72-5.88-10.92-10.56-21.72-4.44-10.44-6.72-16.32-6.72-17.64v-.48l-5.52.24-3.48-.12-.72,6.6c-1.32,11.4-2.88,22.08-4.92,32l-1.08.24a21,21,0,0,1-.6-6c0-3.72,1-14.64,2.88-32.64l.48-3.84.12-1.08c1.32-14.64,2.16-26.64,2.28-36l-.48-.12-1-.24-.24-1.8ZM212,35q-4.5,29.34-16.92,101.28L166.56,302.64,159.48,344a35.2,35.2,0,0,0,15.72,3.48l9.36-.12,7.92-.6,9.72-1.08,13.2-1.08a38.59,38.59,0,0,0,6.36-1.44l30.12.36-5.76-42L235.8,229.08q-5.76-41.4-8.88-72c-3-30.36-5.16-54.36-6.24-72.12L214.92,52.2C213.84,45.72,212.88,40,212,35ZM209.88,9.72l1.2,4.8,2.28-4.8a5.34,5.34,0,0,1,1.08,2.4l.24,3.36-1,9Q225.6,73.62,234,149.64l7.68,72.6q4.68,42.66,9.24,72,8.82,58.68,19.2,144.48c1.56,13,6.12,40.32,13.44,82.2,6.84,38.28,10.2,58.8,10.2,61.56a14.54,14.54,0,0,1-2.76,8.64q-15.66-58.68-26.76-144.84-5.94-52.38-10.8-90.36h-.36l-31.56.36-20.4,2.4-4.56.36-5.16.72q-26.1-.36-33.48-4.68l-.36-.12q-8.1,45.36-17.52,91.32c-3.24,16.2-8.16,43.08-14.76,80.88q-9.36,47.52-18.84,62.28a9.71,9.71,0,0,1-1.92-6.48c0-1.56,4.32-21,12.84-58.2q14.22-61.38,18-85.44,3.78-22.86,13.8-72,9.54-47,13.32-71.76,2.7-18.36,13-71.76c5.64-30,9.6-54,11.64-71.88,3.6-9,6.24-20.76,7.92-35.4l1.92-18.24c.72-7.08,1.56-13,2.4-17.64S200.88,70,201.6,62.4l2.16-18.24a117.89,117.89,0,0,1,6.12-26.28l-.36-4.8A9.3,9.3,0,0,1,209.88,9.72Zm68.16,0a5.94,5.94,0,0,1,.24-2l.24-.36c19.8,1.32,34.44,7.8,44,19.2a44.1,44.1,0,0,1,10.68,29A26,26,0,0,1,326,73.92C319,81.6,307.2,85.8,291,86.64l-19-.36-.36-.72a9.2,9.2,0,0,1-.12-2.16,16.16,16.16,0,0,1,.12-2.64l.12-.72h1.92V79c0-8.76.6-20.64,1.92-35.52l2.76-32.88A1.09,1.09,0,0,1,278,9.72Zm8.28,4.68a32,32,0,0,1-6.6-2.64c.36,4.2.48,9.6.48,16.44A269,269,0,0,1,278,56.76L275.28,80l14.88-.48c13.44-1.2,24-4.56,31.56-10,6.24-4.56,9.36-9.36,9.36-14.28,0-16.2-8.88-27.84-26.52-35C301.8,19.08,295.68,17.16,286.32,14.4Zm78.36,331.8a53.42,53.42,0,0,1,.48,7.32q0,17.28-5.64,95.76V495.6c-1.32,10.68-2.4,26.64-3.48,47.64-1.56,18.72-4.56,34.44-9.24,47.28-6-15.84-10.8-34.44-14.28-55.92q-2.34-14.76-7.2-56.88c-1.68-15.24-4.68-34.08-8.88-56.28l-11-56.52-.6-.6c-.36,4.68-.84,10.68-1.2,18.12l-.72,12.72L305,470.64c0,24.6-.24,44.28-.72,58.92-.72,22.2-2.16,42-4.44,59.64h-1.32l-.6-18.72-.24-13,1.08-10.08a137.84,137.84,0,0,0,1.08-14.28c0-3.12.24-7.8.6-13.92l.48-10-.24-7V443.88c-.48-7.08-1-16.92-1.44-29.4l-.72-19.32c0-14.52.12-24.48.48-29.76.84-11.64,2.52-21,5.28-28.08q13.5,46.8,24,116.64l8.28,58.44c3.24,23.52,6.36,43.08,9.12,58.68h.48q2-12.06,4-39.24c1.44-17.64,2.88-31.08,4.44-40.32V443.64c.36-4.44,1.2-22.08,2.52-52.8.84-21.84,2.64-39.48,5.28-52.8C363.48,339.12,364.2,341.88,364.68,346.2Zm-8-151.32-.72.84a12.69,12.69,0,0,1-3.6-3.24,58.5,58.5,0,0,0-5.16-4.92c-5.4-4.2-12.36-6.36-21-6.36q-30.24,0-43.44,31.68a98,98,0,0,0-6.24,22.68,74.21,74.21,0,0,0-1.2,12.12A168.39,168.39,0,0,0,281,291.6Q291.3,329.94,316,330q40.68,0,38.4-34.08l.6-.36,1-.72.84.72-.48-8.64-19.68-1.44-9.36-.72-.6-.84-.24-2.4c0-2.16.6-3.6,1.68-4.2,1.68-1,4.92-1,9.72.12q23.22,2.52,24.48,4c.36.36,0,1-.84,1.8a4.59,4.59,0,0,0-1.68,2.88l.6,12,.48,9.12-.24,14.52c-.24,3.24-1.32,9-3.24,17.16-1.68-.84-2.52-2.64-2.52-5.64,0-.84.48-5.4,1.44-13.44l1.08-10a81.44,81.44,0,0,1-4.92,12.84c-5.64,11.88-12,17.88-19.2,17.88q-37.08,0-52.8-35.52a104.78,104.78,0,0,1-7.32-25.2,91.34,91.34,0,0,1-1.32-13.32A311.8,311.8,0,0,1,273.48,233c1.56-14.76,4.2-24.84,7.8-30.24,5-7.56,8.64-12.72,10.92-15.36a58.17,58.17,0,0,1,18.24-14.16c2.88-1.32,7.2-1.68,13.08-1.08A71.71,71.71,0,0,1,340.44,176c6.12,2.28,10.56,4.8,13.56,7.8,3.48,3.36,4.56,6.84,3,10.56ZM357,169.2l-.36.48-.72,1q-5.4-13.5-9-34.92-5.22-31.14-6.12-35.28c-.84,2.76-3,12.72-6.72,29.88-2.76,13.2-6,23.4-9.48,30.48q-1.44-9.36-2.16-28.8a289.78,289.78,0,0,0-2.16-29.16l-.36-.6q-1.62,13.14-9,32l-13.68,32.28-.48-.48-.12-2c0-1.08,3.24-11.76,9.84-31.8,7.32-22.44,12-37.8,14-46L321.6,86q1.62,12.42,2.52,31.68l1.56,31.2a256,256,0,0,0,8.52-30.72q2.88-13.14,5.76-32.4H341L348,125c3,16,6,29.16,9,39.36ZM557.64,84.72l-1.44,3-4.92-14.28a106.43,106.43,0,0,0-10.44-21.6q-18.18-28.26-48.72-28.32-37.26,0-54.72,21.36A51.3,51.3,0,0,0,429,60.12,25.75,25.75,0,0,0,427.08,68q0,28.44,24.12,65.76,8.28,12.78,24.84,34.92l28.32,38.4q35.46,50.22,53.16,95,24.12,61.38,24.12,130.68l.24,11c.12,6.72-.12,13.2-.48,19.44-1.32,19.2-5,36.36-11,51.48q-27.9,70-115.92,70.08c-34.44,0-58.08-15.24-71.16-45.72-6.48-15.24-9.72-32.76-9.72-52.32q0-12.6,1.08-18.36c-.12-.12,0-.36.24-.48a3.09,3.09,0,0,1,2.16-.6c1.32,0,2.16,2.88,2.4,8.64.12,2.88.12,5.88,0,8.88,0,17.4,3.24,32.64,9.6,45.84q18.18,38,65.4,37.92,82.26,0,109.56-61.44c6.12-13.44,10-28.8,11.52-46q.72-8.1.72-28.8a318.89,318.89,0,0,0-24.12-122Q534.84,268.5,499,217l-28.44-39.72c-10.68-15-18.84-27.24-24.72-37Q421.68,100,421.68,68.16c0-20.52,7.08-36.12,21.36-46.68,12.84-9.48,28.44-13.32,46.8-11.4S523.92,18.84,536.76,31q21.42,20.16,21.36,50.52A8.39,8.39,0,0,1,557.64,84.72Z" transform="translate(-15.12 -6.2)"/></svg>