<svg id="Layer_1" data-name="Layer 1" xmlns="http://www.w3.org/2000/svg" viewBox="0 0 486.96 449.88"><defs><style>.cls-1{fill-rule:evenodd;}</style></defs><path class="cls-1" d="M196,91.8q0-7,1.8-9c1.68-1.56,3.84,1,6.6,7.8l.24,19.08-.72,14.52q-.72,13.5-1.44,21.6v79.44a286.75,286.75,0,0,0,0,43.08v55.92l-9.6,74.16q-6.3,48.06-9.36,74.16l19-.84,34.08.36A63,63,0,0,1,248,474.36a79,79,0,0,0,15.36,2.52l28.68-.24a22.53,22.53,0,0,1,7,0l6.36,1.2c5.4.6,11.4-1.08,18.12-5,1.2.72,2,2,2.64,4.08a19,19,0,0,1,.6,4.56,14.3,14.3,0,0,1-.72,5.16,21.08,21.08,0,0,1-3.6,5.76l-23.52,1.08q-6.84.54-7.92,1.08l-27.6-.24a71.44,71.44,0,0,1-13.92-2q-9.18-2.34-13-2.88l-17.76.24-18.48.6L177,489.84a12.56,12.56,0,0,1-2.76-8q0-3.78,9.24-69.72c6.84-48.6,10.92-79.68,12.48-93.48V273.12a17.28,17.28,0,0,1-1.08-4.08V224.4l1.08-4.68V140.16c.48-4.08,1-9.48,1.44-16.32l.72-11.76L197,102Zm4.8-45a12.23,12.23,0,0,1,1.92,4.2,12,12,0,0,1,.84,4.32,19,19,0,0,1-.6,4.56,6.63,6.63,0,0,1-2.64,4l-5.16.36-5.64.72-67.68.6c-2.28.24-12.6,2.28-31.2,6.24L69.84,76.2l.36,1.44c1,4.2,2,10.08,3.36,17.64v50.28a35.67,35.67,0,0,1,1.08,4.92v43.8a183.25,183.25,0,0,1,1.08,19.92l41.16-3.72V210c19.08.12,28.92.48,29.52.84l13.2.48a18.53,18.53,0,0,1,2,4.08,14.77,14.77,0,0,1,.72,4.32,19.82,19.82,0,0,1-.6,4.56,7.2,7.2,0,0,1-2.64,4l-14.4-.84-29.4.24c-2.76,1-13.32,2.28-31.92,3.84l-8.16-.24-.48,12.36c-.72,16.68-1.08,29.16-1.2,37.44-.12,13.56.24,34.08,1.08,61.68,0,19.32-.48,39.84-1.56,61.56L71.4,439l1.08,17.28,1.08,17.16a98.46,98.46,0,0,1-.48,10.68c-.48,5.64-1.44,9.12-2.76,10.44-2-.24-3.6-1.92-4.56-5a20.66,20.66,0,0,1-.84-6.24A47.12,47.12,0,0,1,66,476.76a42,42,0,0,0,1.08-6.48L66,454.92l-1.08-15.48c0-12.84.12-23,.48-30.84.6-11,1.44-21.24,2.76-30.48v-71.4c-1.44-11.4-1.68-26-.72-43.8,1.2-25.68,1.8-40.2,1.8-43.44q0-13.32-1.08-19.8v-43.8L67.08,151V101.52L63.24,87.6C61.68,81.84,60.6,77.52,60,74.52l-.24-.84V73.2L59.52,71,59.64,70l-.12-.36c0-3.72.36-6.12,1.2-7.44,1.08-1.56,3.48-3,7.32-4.08,3-.84,9.36-2,19.08-3.84l36.24-6.6,66.12-.6c.72-.12,1.08-.36,1.08-.48ZM367.08,264.6l-11.16-82L341.64,78.72l-.36-.48q-17.1,37.26-30.48,91.44c-2.52,10.2-6,25.56-10.44,46.2-4.44,20.16-7.92,35.4-10.44,45.6-1.2,4.92-2.4,10.32-3.72,16.2q23.76-3.24,45.36-7.2l26.76-5.28Zm-8.16-107.16,7.32,54.72q4.5,33.48,7.56,54.72Q379.38,304.5,389.88,386q11.52,89.46,11.52,99.72a14.77,14.77,0,0,1-.72,4.32,16.72,16.72,0,0,1-1.92,4.2c-3.72-13.68-6.72-30.84-9.12-51.6-2.28-23.4-4.08-40.92-5.52-52.32l-7-51.48-7.08-52.44-.84-5.88-.84,1.56L328,289.44c-15,2.64-30.12,4.8-45.6,6.6l-2,10.56-9.12,46.68c-2,10-4.68,28-8,53.76-3.48,21.6-7.8,34.08-12.72,37.44a8.15,8.15,0,0,1-2.52-5.28l-.24-6.12q0-6.12,14.88-81.36,14.4-73.26,23-111.84,14.58-64.8,23.4-97c10-36.24,21-68,32.88-95.28,6.24,13.92,10.32,31.92,12.36,53.88l2,28C357,140.88,357.84,150.24,358.92,157.44ZM534,200.88Q513.12,246.06,462,252l-6.36-.12-6.84-.6-9.12-.84-7.32-.84c2.52,31.8,3.72,55.92,3.72,72.12,0,7-.36,22.56-1.08,46.68l-1.08,39.72a376.13,376.13,0,0,1-9.72,85.08,11.71,11.71,0,0,1-2.64-5.76,21.36,21.36,0,0,1-.72-4.56c0-3.6,1-14.4,2.76-32.52s2.76-38.52,2.76-61.2l1.56-32.4,1.68-35.88q0-22.32-4.32-78.48c-3-37.56-4.44-64.56-4.44-81.24,0-4.44.6-19.8,1.68-46.32s1.68-43.92,1.68-52c0-3,.12-5.76.24-8l-.24-2.4a5.81,5.81,0,0,1,.84-3.12,11.06,11.06,0,0,1,1.8-4.68l1.68,1.92a21.69,21.69,0,0,1,5.64-1.32c6.48-.84,14.88-.12,25.2,2.4a168.35,168.35,0,0,1,33.12,11.64A169.88,169.88,0,0,1,526.2,79.56c13.56,14.52,20.28,33.24,20.28,56.4Q546.48,173.58,534,200.88Zm6-64.8a58,58,0,0,0-3.12-18,65.78,65.78,0,0,0-14.4-24.24q-27.54-29.34-90-30.24v1.2a128.39,128.39,0,0,1-.72,16.44q0,10.62-2.16,42.84t-2.16,37.08q0,24.48,3.36,69.72l1.44-.24,5.88-.36a24.94,24.94,0,0,1,12.24,4.2q52.92.72,75.84-42.36a113.19,113.19,0,0,0,11.4-33.24A124,124,0,0,0,540,136.08Z" transform="translate(-59.52 -44.64)"/></svg>