<svg id="Layer_1" data-name="Layer 1" xmlns="http://www.w3.org/2000/svg" viewBox="0 0 362.9 375.48"><defs><style>.cls-1{fill-rule:evenodd;}</style></defs><path class="cls-1" d="M108.48,264.36q.72,64.62-.24,129a219.37,219.37,0,0,1-2.64,32.16c-1.56,10.32.36,18.24,5.88,23.64l.48-3.48a135.19,135.19,0,0,0,56.52,3.24l.72-1c3.12-5.76,2.76-11.16-1-16.08l-54.84,3.36a561.08,561.08,0,0,0,4.32-67.2q.54-65.34-3.6-129.12C110.28,245.64,108.36,254.16,108.48,264.36Zm-3-170.76a91.56,91.56,0,0,0-18.36,2.76,16,16,0,0,0-1.32,8.88l.24.84.36,1.56.72,1.68h.12Q82.74,157,81,205.56c-1.68,43.08-1.92,86-.72,129.12a582.71,582.71,0,0,1-1.8,64.8,150.46,150.46,0,0,0,3.24,48c.72-.24,1.08-.48,1.08-.84A472.92,472.92,0,0,0,88,354.24,1287.06,1287.06,0,0,1,89,225.12l.24-4.08a426.34,426.34,0,0,1,49.8,2.16,6,6,0,0,0,2.16-3.24,18.13,18.13,0,0,0-1.32-13.68l-.84-.84-1.56-.24a88.5,88.5,0,0,0-29.28-1.68L90,205.92c1.32-32.52,1.32-64.8,0-96.6l76.08,3c3.24-4.08,4-8.64,2.16-13.8l-.24-.84a6.58,6.58,0,0,0-3-3.24L162,94,125.52,92Zm132,81.84c6.12,37.08,11.52,74.4,16,111.84l-17.52-1.8v.12l-21.6,4.56q8.1-63.18,21.48-124.8l.12-.48Zm0-77.16H237a235.18,235.18,0,0,0-2.64,24.12c-3.84,18.72-7.56,37.56-11.28,56.4Q211,242,203.28,305.64,195.36,368.82,182,431.28c-2,10-.36,17.52,5.16,22.68A259.09,259.09,0,0,0,196,417.6q9.18-56.7,16.56-113.52a220.73,220.73,0,0,1,42.6-.84,1191.69,1191.69,0,0,1,7.32,126.12c.12,12.36,3.36,22.68,9.72,30.84a16.6,16.6,0,0,0,4-13.8q-5.94-47.16-9.36-94.8c-1.08-16.2-2.52-32.4-4.2-48.48l.36-1a19.11,19.11,0,0,0,1.08-9.72,7.65,7.65,0,0,0-2.64-4.8h-.48c-2.4-21-5.28-41.88-8.52-62.76-4.68-30.24-8.64-60.48-11.64-90.84a250.73,250.73,0,0,0,.84-31.44,13.91,13.91,0,0,0-3.36,4.08Zm116.4,253.56A299.16,299.16,0,0,0,319.56,233a262.17,262.17,0,0,1-22.92-60c-5.16-20.88-1.68-39.12,10.68-54.84a31.79,31.79,0,0,1,22.8-.48,35.52,35.52,0,0,1,6.6,6.84,10,10,0,0,0,7.2,4.56,11.89,11.89,0,0,0,1-10.44,31.48,31.48,0,0,0-14.28-17.16l-3.12-.72A88.72,88.72,0,0,0,316,99c-.24.36-.72.48-1.56.6a14,14,0,0,0-11,6.6q-22.5,34.2-11.76,76.32a402.24,402.24,0,0,0,28.2,77.16A269,269,0,0,1,347,379.56q0,34.92-27.48,53.4a65.63,65.63,0,0,1-22.32,1.32l-3.6-.12-.12.12-.84.36H291.6L290,434.4l-.6.12a16.92,16.92,0,0,0-4,12.84,11.91,11.91,0,0,0,5,8.88,163,163,0,0,0,28.68-1.44q29.34-16.92,33.48-50.64A272.19,272.19,0,0,0,353.88,351.84ZM379.56,103a300.24,300.24,0,0,0-5,46.92l-4.08,128.28q-2.16,64.62-5.76,129a288.65,288.65,0,0,1-3.6,32.28c-1.68,10.32.24,18.12,5.76,23.52a3.34,3.34,0,0,0,1.08-1.68q5.4-49.86,8.16-100.56c1.32-22.08,2.28-44.16,3-66.36a203.33,203.33,0,0,1,43.68-3.72q-5,56-8.88,112.32a322.61,322.61,0,0,1-4.08,32.16q-3.42,18.18,3.6,32.4c5.76-15.72,8.52-33,8.16-51.6a514.81,514.81,0,0,1,2-52.92l6.48-72.12,7.68.6.84-1c3.12-6,2.88-11.64-.84-16.92l-6.12-.6L435,235a889.21,889.21,0,0,0,1.68-127.56c-4.2,11.52-6.36,24.48-6.36,39-.12,42.36-2.16,84.36-6,126.24a115.83,115.83,0,0,0-44.76,7.8l1.2-48.84q.54-32.4,2.52-64.8a299.14,299.14,0,0,0-2.88-64.2C379.8,102.72,379.56,102.84,379.56,103Z" transform="translate(-77.86 -92.04)"/></svg>