<svg id="Layer_1" data-name="Layer 1" xmlns="http://www.w3.org/2000/svg" viewBox="0 0 421.9 340.32"><defs><style>.cls-1{fill-rule:evenodd;}</style></defs><path class="cls-1" d="M157.92,240q-34.74.54-67.32,4.32l-.24.84a10.48,10.48,0,0,0,.48,6.36l.6,1a637.3,637.3,0,0,0,72.48-.84,2.25,2.25,0,0,0,2.76,1.44l.72-.36a10.45,10.45,0,0,0,2-8.16,7.92,7.92,0,0,0-1.44-3.24,1.93,1.93,0,0,0-.84-.48ZM273.36,130.2,306.6,276.36a536.22,536.22,0,0,0-68.4,8l-19.44,3a1318,1318,0,0,1,49.08-134.64Zm-.12-8.16a12.33,12.33,0,0,0-6.48,7.32q-22.5,60.3-43.08,121.8-20.34,61.2-37.8,122.76a145.78,145.78,0,0,1-12.24,30q-10.62,19.62-7.56,38.16a155.31,155.31,0,0,0,20.4-44.76q14.22-51.66,30.12-103A770,770,0,0,0,309.24,288l8.52,37.68q7,31.32,12,62.88a331.57,331.57,0,0,0,14.88,60.6,2.34,2.34,0,0,0,1.32-2.4,417.18,417.18,0,0,0-10.68-75.6q-14.76-62.46-28.8-124.92-13.86-61.92-33.12-122Zm-94.68-5.88c-28.68-.12-56.64-1.44-84-3.72l-.12-3.12-.36,3.12-1-.12-.84.6-.48.48-.36.84a5.37,5.37,0,0,0-.48,2.4,6.16,6.16,0,0,0,1.8,4.92l.48.24c-3,31.32-5.4,63.48-7.08,96.24l-4.92,95.88q-3.42,64.62-10.08,128.16a3,3,0,0,0,2.4,2.16,347.64,347.64,0,0,0,10.56-78.36q1.62-64.26,6.6-128.4,4.68-57.78,4-114.84a18.44,18.44,0,0,0,8.88,1.8A413.21,413.21,0,0,1,217.8,136.92a8.61,8.61,0,0,0,1.08-3.24l.24-1.68v-1.56A10.53,10.53,0,0,0,217,124,99.36,99.36,0,0,0,178.56,116.16Zm247.8,22A66.77,66.77,0,0,1,452,173.52c4.56,14.76,2.52,28.56-6,41.4a124.66,124.66,0,0,1-32.88,33.48,121,121,0,0,1-33.24,15.84,792.49,792.49,0,0,0,2.52-143.16A96.86,96.86,0,0,1,426.36,138.12Zm-46-19.56a5.9,5.9,0,0,0,.6,2.4h.36a4.33,4.33,0,0,0-1.2,3Q378.54,187.5,375,251.4L374,266l-4.44,1.08a16.59,16.59,0,0,0-1.2,4.8v3.24a5.63,5.63,0,0,0,2.28,4.08l2.64-.6q-3.24,50.58-7.92,100.92a190.43,190.43,0,0,1-5.64,32c-3.36,12.84-2.52,23.4,2.52,31.92a397,397,0,0,0,10.56-66.6q3.78-49.86,6.48-99.72c6.48-1.8,13-4.08,19.44-6.6,3.12-1.2,6.12-2.52,8.88-3.84a187.23,187.23,0,0,0,16.92,46.56q29.34,56.7,53.52,115.8c3.48,8.52,7.68,15.36,12.72,20.52a9.36,9.36,0,0,0,1.92-8.64A220.6,220.6,0,0,0,479,402.72q-27.36-58.5-58.56-114.48l-.12-.84a216.19,216.19,0,0,0-9.12-22.56c28-15,44-38.76,48-71.28a45.42,45.42,0,0,0-1.08-18q-14.94-57.24-76.08-61.68l-.72.72a3.17,3.17,0,0,0-.84,2.28Z" transform="translate(-71.16 -109.32)"/></svg>