<svg id="Layer_1" data-name="Layer 1" xmlns="http://www.w3.org/2000/svg" viewBox="0 0 298.7 211.2"><defs><style>.cls-1{fill-rule:evenodd;}</style></defs><path class="cls-1" d="M298.2,307.08a444.49,444.49,0,0,0-.84,89.28,17.91,17.91,0,0,0,10,3A40.91,40.91,0,0,0,321,391.44c9.48-8.52,12.6-17.52,9.12-26.76q-11.52,17.64-29.52,17.64v-.84a696.45,696.45,0,0,0,1.92-82Q298.74,301.68,298.2,307.08Zm5.88-45.36-.72.6c-4.92,6-5,11.16-.36,15.6l1.44-1.56c3.36-4.2,4.32-8.64,2.88-13.56a1.39,1.39,0,0,0-.84-.6ZM230.52,193.8l-65.4,4.56-.24.72-.12-4c-2.76,4.44-4.2,9.84-4.44,16.2-1.56,42.6-2.76,85.44-3.48,128.28a157.9,157.9,0,0,1-3.6,32c-2.52,12.24-1.56,22.92,3.12,32a45.83,45.83,0,0,0,5.28-20.28l2.16-60,.84-28.2c20,.84,40.32.84,61,.24l.72-.6c2.64-5.16,2.4-10-.72-14.52A352.17,352.17,0,0,0,165,284q.72-39.42,0-78.12a6.93,6.93,0,0,0,2.28,3,463.35,463.35,0,0,0,73.2-1.08,10.33,10.33,0,0,0,1.56-4.92,9.37,9.37,0,0,0-3.48-8l-1.56-.36Zm165.24,17a39.6,39.6,0,0,1,16.8,6.48q30.24,19.62,13.08,52.2A62.44,62.44,0,0,1,399.36,288l-1.08-1.68a2.53,2.53,0,0,0-1.56,2.52,70.09,70.09,0,0,1-23.28,3c.6-29.16.48-58.08-.6-87A93.21,93.21,0,0,0,395.76,210.84Zm-23.76-12-.12.84-.12,2a243.87,243.87,0,0,0-4.68,46.92,1001.89,1001.89,0,0,1-8.28,128.88c-1.32,9.72.24,17.52,4.56,23.4a522.47,522.47,0,0,0,8.76-74.52l.84-19a53.58,53.58,0,0,0,16.44-1.56,95.24,95.24,0,0,0,12.12-4.2,1115.51,1115.51,0,0,0,47,103.32,4.78,4.78,0,0,0,1.8-5.4,266.88,266.88,0,0,0-20.64-56c-7.68-15.24-15.6-29.88-23.64-43.92q29.34-14.94,30.6-50.64a41.7,41.7,0,0,0-4.56-21.24q-16-31.86-54.12-31.08h-.24a6.23,6.23,0,0,0-5.52,1.44Z" transform="translate(-151.88 -193.8)"/></svg>