<svg id="Layer_1" data-name="Layer 1" xmlns="http://www.w3.org/2000/svg" viewBox="0 0 374.81 538.94"><defs><style>.cls-1{fill-rule:evenodd;}</style></defs><path class="cls-1" d="M123.12,276.6q-10.44,146.7-14.28,292.8a10.74,10.74,0,0,0,1.32,4.8q8.46-90.9,11.52-182.28l22-6.36A902,902,0,0,0,201.12,540a207.85,207.85,0,0,0,11.52,20.52A513.43,513.43,0,0,0,165.12,430a323.62,323.62,0,0,1-19.32-45q36.18-10.26,39.72-48.6a89.06,89.06,0,0,0-3-33.36,58.61,58.61,0,0,0-22.32-31.68c-8.4-6.12-17.52-8-27.36-5.88a41.28,41.28,0,0,0-14.64,5.88l-3.48,2.28-.24,3.6,4.08,2.88,4.56-3.48-.84,104.76,5.16-1.56a180.07,180.07,0,0,0,40-19.2c13.56-8.76,18.48-22.08,14.52-40a70.93,70.93,0,0,0-23.4-39.36C146.28,270.84,134.52,269.28,123.12,276.6ZM256.68,213c1.08,42.84,1,85.92-.36,129-1.2,42.84-1.8,85.68-1.68,128.28a493.5,493.5,0,0,1-4.08,64c-1.56,12.12-.84,22.68,2.16,31.8a5.15,5.15,0,0,0,1.32-2.52,818.62,818.62,0,0,0,6.6-127.32c-1.08-43.2-.6-86.28,1.2-129.12a1127.92,1127.92,0,0,0-1.92-129,869.14,869.14,0,0,1-.24-127.44,372.31,372.31,0,0,0-4.8,65.76Q255.42,164.64,256.68,213ZM189.48,49.8a216.47,216.47,0,0,0-38.4-11.28,159.29,159.29,0,0,0-44.64-2.76,266,266,0,0,0-40.2,6.48L66.6,47l3.48.84L70.56,139q.54,72.9,3.84,145.68a1746,1746,0,0,1-5.88,241.68c-1.08,12.48-.12,23.76,3,33.84a42.38,42.38,0,0,0,6.24-19.8q3.24-43.92,2.52-88.08Q78.84,348.42,76.2,244.8l70.44-.48,1.2-2,.12-1,.24-1.8-.12-1.8-.24-1.8-.72-1.8-.36-.36-70.68,6.36L71.64,47.52a226.81,226.81,0,0,1,52.56-3A212,212,0,0,1,167.76,52a182.87,182.87,0,0,1,21.12,7.32ZM306.6,98.28q-.36,64.44.6,129c.6,32,.12,64.08-1.44,95.88-2,42.84-2.4,85.92-1.08,129a296.36,296.36,0,0,1-2.52,48.48,290.1,290.1,0,0,0-1.8,64.32,55.11,55.11,0,0,0,20.76.6,183,183,0,0,1,82.08,4.8c2.52-3.72,2.88-7.68,1.32-12.12-11-2.76-22.44-5.16-34.2-7.44a85.36,85.36,0,0,0-20.64-1.32c-15.84,1.08-30.84,1.44-45,1.2A723.23,723.23,0,0,0,309,441.12,1285.61,1285.61,0,0,1,310.8,312,1187.64,1187.64,0,0,0,312,182.88q-2.7-64.62,0-128.16A180.41,180.41,0,0,0,306.6,98.28Zm63.84-47.16a342.73,342.73,0,0,0-5.76,69c.72,42.84.48,85.68-.72,128.28l-3.84,129.12q-2,65-6.48,128.16c29.4-7.2,58.08-6.24,85.8,2.76a13.35,13.35,0,0,0,.24-12.24,139.31,139.31,0,0,0-80.4-4.32c1.44-18.36,2.16-36.72,2-55.08q-.18-64.26,4.68-128.4a1155.51,1155.51,0,0,0,2.4-129A1233,1233,0,0,1,370.44,51.12Z" transform="translate(-66.24 -35.26)"/></svg>