<svg id="Layer_1" data-name="Layer 1" xmlns="http://www.w3.org/2000/svg" viewBox="0 0 458.3 458.04"><defs><style>.cls-1{fill-rule:evenodd;}</style></defs><path class="cls-1" d="M264.72,158.52c-.12,42.6-1.32,85.2-3.6,127.56-2.28,42.84-5.64,85.56-10.32,128.16-2.4,21.72-4.32,43.08-5.64,64.08a1436.28,1436.28,0,0,1,150.72,10.32c2.76-4.44,2.88-9,.48-13.8a1098.21,1098.21,0,0,0-144-11.4q5-38.7,7.68-77.88,4.32-63.9,8-128.16a1016.3,1016.3,0,0,0-.48-128.28A139.58,139.58,0,0,0,264.72,158.52ZM226.56,86.76,99.6,70.92a4.25,4.25,0,0,0-1.44,1.2l-.72,1.44a15.56,15.56,0,0,0-.24,4.08v1.68a3.52,3.52,0,0,0,.48,1.92,67.63,67.63,0,0,0-3.48,22.08c-.12,43.08-.72,86-2,129.12q-2,64.26-2.28,129.12T85.2,489.72a3.29,3.29,0,0,0,2.52,2.16,118.14,118.14,0,0,0,5.64-29.64c3-42.6,4.08-85.68,3.48-129.12-.36-31.56-.36-63,.24-94.44l.12.24.72.48q61.2,6.3,122.4,13.92a4.8,4.8,0,0,0,1.2-2.16,16.73,16.73,0,0,0,.36-4.92,7.37,7.37,0,0,0-3-4.92l-.84-.12c-40.08-3-79.92-6.72-119.52-11.4L98,230l-.84,1,.6-27q1.8-61.38,2-121.32L125,85.92q58.68,7,116,16.32l1-1.68.6-1.56.24-3.24-.12-1.56a4.73,4.73,0,0,0-1.2-3.24A54.26,54.26,0,0,0,226.56,86.76ZM375.48,124c-.72,32-1.92,64.56-3.72,97.32l-7.32,128.28c-.72,12.12.6,22.68,4.08,31.68a1.09,1.09,0,0,0,.36-.84q2.7-63.9,7.8-128.16A775.6,775.6,0,0,0,375.84,124ZM531,138.6a127.38,127.38,0,0,0-25.08-38.76,102,102,0,0,0-37.68-25.32,122.35,122.35,0,0,0-40.92-8.16l-1.08,6.48,4,1.8c0,26.76.48,53.4,1.56,80.16,1.8,43.56,1.92,87.24.36,130.8l-15.72-3.36v11.4l15.48,4.56C431,336.12,429.36,374,426.6,412a656.7,656.7,0,0,0,1,105.36,31.36,31.36,0,0,0,1.56,7.08A152.21,152.21,0,0,0,432.84,494q1.8-97,5.4-194.16A115.67,115.67,0,0,0,477,306.24a68,68,0,0,0,39.72-15.36,60.35,60.35,0,0,0,21.24-34,217.27,217.27,0,0,0,3.6-77.76A153.13,153.13,0,0,0,531,138.6Zm8.28,68.64q5.94,45.54-27.36,75.12a24.06,24.06,0,0,1-13.2,5.88,239.64,239.64,0,0,1-60.12-1.56l1.32-54.48.48-32.52a750,750,0,0,0-8.76-124.56L451,80q68.94,16.74,81.48,83.88C535.08,178.2,537.36,192.72,539.28,207.24Z" transform="translate(-85.2 -66.36)"/></svg>