<svg id="Layer_1" data-name="Layer 1" xmlns="http://www.w3.org/2000/svg" viewBox="0 0 357.87 414.36"><defs><style>.cls-1{fill-rule:evenodd;}</style></defs><path class="cls-1" d="M210.72,230.64q2.52-64.8-.48-128.4a1155.46,1155.46,0,0,0-7.68,115.32q-1.26,64.26-6.24,128.16c-3.24,42.84-5.64,85.8-7,129.12-.24,7.56,2,12.36,6.72,14.64a4.83,4.83,0,0,0,1.08-2.4q1.26-64.44,6.12-128.28T210.72,230.64Zm-96.6,91.92A704.25,704.25,0,0,0,99,480.84l66.84,1.92a19.76,19.76,0,0,0,2-6.72,19.07,19.07,0,0,0-1.2-7.68l-.84-1.92a314.53,314.53,0,0,1-61-3.48l10.68-108.6ZM127.8,104l.36-1.68a10.45,10.45,0,0,0-1.2-6.24l-1-1.68L88.2,95l-.84,1.32-.6-2.4L80.64,255.12Q76.5,358.44,70,461.52a35.83,35.83,0,0,0,1.32,11.76A48.47,48.47,0,0,0,74,480.6h.48l13.56-224,33.36-1.08,1-2.28.36-1.32.24-1.56a11.71,11.71,0,0,0-.24-4.08,10.71,10.71,0,0,0-1.8-3.72l-16.08-1.44-16.32,4.2a994.53,994.53,0,0,0-.36-139L126,108l1.2-2.28Zm126.48,13.08,7.32,19.56q-5.76,15.12-21.6,20.16a37.28,37.28,0,0,1-10.92,1.92l2.64-42.24,16.68-3.36ZM232,106.44l-.24-5.16a534.44,534.44,0,0,0-11.16,85.8l-1.2,24.48,2.88,2.16,5.64-42.6,12.72-1.44a224.86,224.86,0,0,1,15.24,41.4,31.19,31.19,0,0,0,4.2,9.6l1.92,2.4a111.91,111.91,0,0,0-15.24-56.28,48.07,48.07,0,0,0,17.52-22.56,27.81,27.81,0,0,0,2-9.12,34.46,34.46,0,0,0-.84-9.36,52.44,52.44,0,0,0-12.72-23.16l-10.32-1.08Zm175.56,222-1.68-.24q-36.72,66.6-22.08,144A79.61,79.61,0,0,0,391.2,494l13.32-.24,14.88-15.12c-2.52,11.4-.84,21.24,4.92,29.64a241,241,0,0,0,.48-63.72,35.06,35.06,0,0,0-23,7.56l.6,8,11.64-.36v6.6L403.68,477l-11.4-.24Q377,407.46,405.6,343.44h11.64a21.51,21.51,0,0,1,6.6,10.08c.72,2,1.8,2.76,3.12,1.92Q431.82,331.5,407.52,328.44Zm-34.2-218.88q-3.6,53.46-3.84,108-.54,64.62-6.84,128.16c-3.48,34.2-5.76,68.64-7,103.08L334.8,357.36Q320.58,294.9,311,231.48c-5.88-39-13.08-77.64-21.84-115.8l-.84-9.84h-.48l-.36,2.76-.48-2c-1.08.12-1.68.84-1.56,2.16l.84,11.28c-1.68,16.8-2.64,34-2.76,51.6q-.72,64.26-4.92,128.16c-2.76,42.72-6.12,85.44-9.84,128.16a308.94,308.94,0,0,0,1,64.2c1.32.36,2.16-.24,2.28-1.68q7-63.54,10.68-128l7.2-128.28q2.16-36.9,1.32-73.44,9.54,61.74,21.84,123.12,12.42,63.18,25.56,126c4.44,21.12,8,42.36,11,63.72,1.8,12,5.28,22.32,10.68,30.84l1-1a33.75,33.75,0,0,0,1.8-21.24l-.84-3.84q2.52-55.8,7.2-112.2,5.22-63.72,6.6-128.28,1.44-65-2.4-128.28Z" transform="translate(-69.9 -93.96)"/></svg>