<svg id="Layer_1" data-name="Layer 1" xmlns="http://www.w3.org/2000/svg" viewBox="0 0 330 430.44"><defs><style>.cls-1{fill-rule:evenodd;}</style></defs><path class="cls-1" d="M152.52,272.28a43.47,43.47,0,0,1,28.08,7.8c12.84,8.88,14.88,19.92,6.24,33.12-11.88,18.12-29.28,27.12-52,26.76.24-21.84,0-43.44-.72-64.92A101,101,0,0,1,152.52,272.28Zm-18.84-8v-2l-1.08,2.64-.84.36a8,8,0,0,0-2.16,6.48l.36,1.68a89.6,89.6,0,0,0-2.52,24.6c.36,16.2.24,32.4-.24,48.72-1.32,42.84-4.08,85.44-8.4,128-.84,7.56,1.2,12.48,5.88,14.76a979.53,979.53,0,0,0,9-99.84l1.08-36.36a52.67,52.67,0,0,0,17.88-.24l6.84-1.68a29.27,29.27,0,0,0,.6,15q17.1,62.1,36.84,122c4.2-5.88,5-12.72,2.64-20.52L162.84,350.16a51.44,51.44,0,0,0,22.8-17.52q28.8-38.34-5.52-69.6l-3.36-.72-5.28-1.44C157.8,258.12,145.2,259.2,133.68,264.24ZM92.28,87.6a391.84,391.84,0,0,0-7.8,74.52l-1.2,129c-.36,43.32-1.56,86.28-3.6,129.12-.48,10.8-1.32,21.6-2.4,32.28-1.32,12.12.24,22.8,4.44,31.8l.72-1.68q4.14-37.8,5-76.2,1.62-64.26,2.4-129.12.36-40.5,1.68-81.24l69.12-2.64.72-.84q3.78-7.2-.72-13.68a199.2,199.2,0,0,0-68.88,7.56l1.56-38.16c.84-20.76,1.08-40.92.48-60.48a263.89,263.89,0,0,0,79.8,3.36l.48-.6a11.6,11.6,0,0,0-.48-13c-27.48,1.2-55,1.68-82.2,1.32l-.36.6a9.13,9.13,0,0,0-.48,7.32ZM251,81.48a1019.82,1019.82,0,0,0-3.84,107.16c.72,43.08,1,86.16.6,129-.36,43.32-1.56,86.28-3.72,129.12a156.5,156.5,0,0,1-3,23.88c-2,10-.24,17.88,5.16,24a68.29,68.29,0,0,0,5.64-26c1.08-42.84,1.8-85.8,2.4-129q.9-64.44,1.32-129.12.18-65.16-4-129Zm101.88,6.36a11.25,11.25,0,0,0-4.68,1.32C321,104,303.6,127,296.28,158a567.78,567.78,0,0,0-15.12,129.12q-.54,63.54,1.32,126.48c.84,33,14.28,59.88,40.08,80.52a14.38,14.38,0,0,0,9.12,3.24c26.52-.36,44.76-13.08,55-38.28l2.16-1.68.6-.72,8.4-18.36-1.2,46.56c-.24,10.08,2.16,17.76,7.08,23.16A203.29,203.29,0,0,0,406,465a329.82,329.82,0,0,1,.36-43.56,171.49,171.49,0,0,0-3.72-51.24l-4.32.72a55.64,55.64,0,0,1-33-2.64c-2,.24-3,1.44-3.12,3.72l.12,4.08A9.26,9.26,0,0,0,364.2,381a12,12,0,0,0,4.44,2.28,65.31,65.31,0,0,0,31,2l-.84,22.8-1.08-1.68-2.16.36c-1.8.36-2.52-.36-2.4-2l-.24-.84a13.51,13.51,0,0,0-1.32,5.76l.36,9a7.24,7.24,0,0,0,.72,2.28,61.73,61.73,0,0,1-3.24,11.64l-5.16,11.88c-8.16,18.12-21.6,29.76-40.32,34.68a15,15,0,0,1-10.8-.84q-41.94-21.6-43.92-69.72-2.7-64.26-1.68-128.28a564.47,564.47,0,0,1,11.4-104.76c6-29.4,20.76-53.28,44.16-71.4l8.52-2.52c14.52-4.32,26.4-1.32,35.88,8.88,5.4,5.88,10.44,10.8,15.12,15q3.06-9.18-2.88-18a66.49,66.49,0,0,1-3.6-6.36l-1.2-1q-13.86-16.56-35.64-14.4A14.72,14.72,0,0,1,352.92,87.84Z" transform="translate(-76.82 -77.64)"/></svg>