<svg id="Layer_1" data-name="Layer 1" xmlns="http://www.w3.org/2000/svg" viewBox="0 0 496.92 487.44"><defs><style>.cls-1{fill-rule:evenodd;}</style></defs><path class="cls-1" d="M88.2,327.84a16,16,0,0,1,.6-4.08,10.19,10.19,0,0,1,1.56-3.24c4.92,8.88,7.8,21.48,8.4,37.68l.36,20.16a191.93,191.93,0,0,0,1,19.32v99.84h55c2.76.36,4.32.24,4.8-.6a3,3,0,0,1,.84-2.16c3,.84,4.44,4.32,4.44,10.56l-.36,5.4c-.48,2.16-1.32,3.24-2.4,3.24l-6.24-.6c-3.84-.6-6.6-1.32-8.16-2.4l-34.56.36c-1,.6-6.48,1.32-16.56,2.4a10.84,10.84,0,0,1-2.16-4.92V404.88c-2.4-19.8-3.84-32.88-4.44-39C88.92,351.84,88.2,339.12,88.2,327.84ZM169.92,47a7.48,7.48,0,0,1,3.24,4.32,10.21,10.21,0,0,1,.6,3.12A12.55,12.55,0,0,1,173,58.8a10.24,10.24,0,0,1-2,4l-5.16-.24-5.64-.6-16.8-1.08c-15.6,0-26.64.6-33,1.68l-6.72,1.32-8.4,1.08-9.48.36L75.72,66l-15.36-.24a113.44,113.44,0,0,1,2,15.36c.6,7.08,1,17.4,1,31,0,9.12-.48,25.08-1.32,47.76l-1.32,30,1-.6,9.72-1.08,70.44-.48a6,6,0,0,1,3.24,4.08,10.35,10.35,0,0,1,.48,3.36,17.85,17.85,0,0,1-.6,4.32,10.59,10.59,0,0,1-2,3.84l-35.4.36c-23.76.36-35.76.6-36.12.72l-11.28.84V320.52C57.84,337,56.76,356.64,57,379.32l2,59.76v41.4c-.72,2.4-1.08,7.8-1.2,16.08-.12,7.32-1.08,13-3.12,17.16-1.32-1.08-2.16-3-2.76-5.52a18.62,18.62,0,0,1-.6-4.2l1.08-57.72c.6-25.8.6-42.6,0-50.28V348.12q.54-5.22,1.08-16.2c.36-7.32.84-12.84,1.2-16.32V197.16c.72-7.68,1.44-21.12,2.16-40.2C57.6,138.6,58,123.84,58,112.44c0-12.12-.36-21.24-1.08-27.24l-2-13.44a88.37,88.37,0,0,1-1.32-13.32,12.29,12.29,0,0,1,1-4.32,6.76,6.76,0,0,1,1.8-3.24L57,52.8l1-1.68c11.76-.6,22-1.44,30.72-2.64l17.4-3c11.28-1.56,30-1,56.28,1.92Zm118.8,151.68.24-.36a3.17,3.17,0,0,1,2.16-.48q4.32,0,4.32,16.92L295.32,229a71.73,71.73,0,0,0,.72,12v75.48a422.75,422.75,0,0,1,3.12,45.12l.12,44.64q0,25.56-1.08,38.52V491c-.12.72-.72,5.28-1.56,13.8-.6,6-1.8,10.44-3.84,13.2q-7.74-29.88-33.84-142.8Q238.62,287.76,222.72,233h-.24v39l1.44,25.32.72,16.92a40.15,40.15,0,0,1-1.08,9.72V462a72.17,72.17,0,0,0-.72,13.44l.72,14c.12,11.16-2.4,18.84-7.56,23.16a13.64,13.64,0,0,1-2.28-8.16,251.13,251.13,0,0,1,4.44-47.88V319.44l.6-2a7.26,7.26,0,0,0,.48-2.88l-2.16-73.44a195.48,195.48,0,0,1-.72-20.16q.18-18.72,5-23.76Q248.94,304.44,258.24,342q20,81.18,33.48,146.52H292a12.28,12.28,0,0,1,.84-4.08v-46.2c.72-7.08,1.08-18,1.08-32.88,0-22.44-.12-36.48-.24-42.12a384.16,384.16,0,0,0-3-42.72V246.6a138.13,138.13,0,0,1-2.76-20.28c-.36-5.16-.48-12-.48-20.28A25.6,25.6,0,0,1,288.72,198.72ZM200.76,49c3.24,2.28,5.28,10.56,6.12,25q.36,7,.36,30.6c0,17.64-.12,28.08-.24,31.32-.36,5.76-2.16,18.72-5.16,38.76V307.8l1.08,4.08v43q-1.44,13.5-2.16,40.68-.9,28.08-2.16,41.4c-.84,8.76-1.68,22.44-2.4,40.8-1.08,16.44-3.12,29.88-6.24,40.32-1.32-1.08-2.16-3-2.76-5.64l-.48-3.72c0-5.88,1.68-38.52,5.16-97.68q5-85.68,4.56-98.4V169.92q.54-7.38,3.24-32.4A302.88,302.88,0,0,0,201.84,105c0-7.56-.48-17.64-1.56-30.36l-1.68-18a17.73,17.73,0,0,1,.6-4.2A9.43,9.43,0,0,1,200.76,49Zm188,147.84C397,199.2,401,205.56,401,216a14.29,14.29,0,0,1-1.08,3.72,16,16,0,0,1-2.76,5c-2.28-3-4.32-5.64-6.24-7.68-3.6-4-7.68-5.88-12.12-5.88-28.68,0-46.8,24.72-54.6,74.16a334.63,334.63,0,0,0-4,51.36c0,9.36.24,17.4.6,24.12,0,5,.6,18.12,1.68,39.36l1.68,32.88a112.09,112.09,0,0,0,1.8,18.36l3.6,18.12a82,82,0,0,1,1,9.12,19.94,19.94,0,0,0,2.88,9c4.2,6.84,14.64,12.24,31.32,16.32,10.44-3.12,18.48-7.2,24-12.12a31.5,31.5,0,0,0,9.36-14.64c.6-1.68,1.56-6.84,3.12-15.48,1.08-6.24,2.88-11.16,5.16-14.64a15.34,15.34,0,0,1,2.16,7.32,86.09,86.09,0,0,1-1.44,12,152.87,152.87,0,0,1-5.28,22.08C395,509,385.56,519.36,373.44,519.36l-6.24-.24-4.56-.48c-19.56.12-32.76-11-39.36-33.6-3-10.44-4.56-25-4.56-43.8l-1.56-36.6c-1.08-22.68-1.68-37.32-1.68-43.8,0-3,.84-18.24,2.52-45.48l2.64-48.72a74.74,74.74,0,0,1,13.56-40.2,78.56,78.56,0,0,1,27.6-24.72C372.24,196.32,381.24,194.64,388.8,196.8ZM370.56,69.6a8.23,8.23,0,0,1-3.12,4.8,68.45,68.45,0,0,0-8.76-11.88c-7.2-7.56-15.12-11.4-23.64-11.4-13.8,0-24.6,3.84-32.16,11.4a30.35,30.35,0,0,0-6,8.28,12.93,12.93,0,0,0-1.68,4.68c0,7.56,5.16,12.6,15.6,15.12a133.63,133.63,0,0,0,15.84,2.16l18.24,1.44c15.48,1.32,26.88,4.08,34.08,8.16,10.44,5.88,15.6,15.36,15.6,28.68q0,21.78-46.32,40.8a282.67,282.67,0,0,1-33.6,11.28c-9.84,2.64-16.2,4-19.2,4-24,0-40.08-5.76-48.12-17.4-3.48-5-5.88-11.64-7.2-19.68a168.89,168.89,0,0,1-1.44-25c0-6,.24-9.84.72-11.4,1.32-4.92,4.68-8.52,10.08-10.56a15.34,15.34,0,0,1,2.16,7.32c0,3.72-1.2,6.36-3.72,7.8a6.11,6.11,0,0,0-2.64,2c-.84,1.08-1.2,2.88-1.2,5.16v8.16a62.55,62.55,0,0,0,2.52,15.84c4.44,15,14,22.44,28.56,22.44q33.66,0,74.76-15.72c11.52-4.44,20.88-8.88,28.08-13.44q11.16-7,11.16-11.88c0-8-5.16-13.68-15.6-16.8-4.68-1.44-16.08-3.12-34.2-4.92q-23.76-2.34-34.2-7.56c-10.44-5.16-15.6-13.44-15.6-25.08q0-20.34,12.6-31c7.32-6.12,16.68-9.12,28-9a50.7,50.7,0,0,1,28,8.16c8.4,5.64,12.6,12.36,12.6,20.4ZM541,81.48c.36-3.24.84-10.92,1.32-23.28.36-9.48,1.32-16.8,2.76-22.2q3.24,2.34,3.24,19.44,0,20.16-6.36,94l-6.72,77.16v39a19.88,19.88,0,0,1,1.08,6,13.63,13.63,0,0,1-1.08,5V417.36l-1.08,4.92V471a33.2,33.2,0,0,1-1.08,4.8V518a8.25,8.25,0,0,1-2.64,5.4c-1.68-2.28-2.64-7.8-2.88-16.32l.12-13.8a283,283,0,0,1,1.08-28.8V417.36l1.08-4.8V278.88l-28.68.72-6,.84-5.88.84L477,281l-13-.6c-13.2-.6-21.6-1.8-25.32-3.6l.24,12.48-.24,26a141,141,0,0,1-3,25.44v62.52l-4.08,53.52a497.14,497.14,0,0,1-6.84,53.64,8.52,8.52,0,0,1-3.72-5.52,16.14,16.14,0,0,1-.6-4.2c0-6.12,1.56-24.36,4.68-54.48l5-49.44V336.72q1.08-3.42,2.16-21.6c.84-11.64,1.2-20.4,1.2-26.28L431.4,186.6l.12-37.2c.36-15.24,1.08-27.6,2.28-37.32.48-4.2,1-16.56,1.44-37.2.36-15.36,2-27.6,4.8-36.72,1.32,1,2.16,3.36,2.76,7.08a54,54,0,0,1,.48,7.92c0,3.48-.6,14-1.68,31.8-1.2,18.6-2,30.36-2.64,35.16-1.08,8-1.68,19-2,32.88l-.12,33.12,1.56,76,1.08-.24,4.92,1.56c4.92,1.2,12.12,2,21.36,2.4L495.6,265l32-1.56a13.16,13.16,0,0,1,2.16-5.64V222.6c.84-8.28,1.8-23.88,2.88-46.68,1.08-20,2.28-35.76,3.6-47.4l2.16-23.64Q539.88,89.94,541,81.48Z" transform="translate(-51.36 -36)"/></svg>