<svg id="Layer_1" data-name="Layer 1" xmlns="http://www.w3.org/2000/svg" viewBox="0 0 308.4 215.17"><defs><style>.cls-1{fill-rule:evenodd;}</style></defs><path class="cls-1" d="M324.36,363.6,303.84,381l-7.08-.84L295,310.32a174,174,0,0,0-7.2,43.44A97.49,97.49,0,0,0,296,397.44a8.37,8.37,0,0,0,8.52-.72,40.84,40.84,0,0,0,19.08-28.08Zm-27.84-95.76-.72.72a6.21,6.21,0,0,0-1.92,2l-.12.72A20.36,20.36,0,0,0,296,286.08l.6-.24C302.28,279.24,302.16,273.24,296.52,267.84Zm-59.76-64.56a18.06,18.06,0,0,0-.6-6.72,6.19,6.19,0,0,0-1.44-2.28l-43.08-2.64a32.77,32.77,0,0,0-20.88,1.08l-2.64,1.08-.12-2.16q-9.72,81-13.56,164a44.87,44.87,0,0,1-1.08,7.92l-1.8,8.64-.36,2.16A44.44,44.44,0,0,0,151,385a34,34,0,0,0,4.68,14.4A632.93,632.93,0,0,0,167.4,285.6l1,1.56,54.72-.72a13.13,13.13,0,0,0,1.68-9.72,12.44,12.44,0,0,0-2.4-5.28l-54.6,2.64.6-67.8,65.88,2.64A9.74,9.74,0,0,0,236.76,203.28ZM454.92,196a112.61,112.61,0,0,0-9.6,25.32Q429.84,283.2,414,345a146.27,146.27,0,0,1-11.52,30l-1.2,2.64-.84-4.92-18-86.16A358.78,358.78,0,0,0,350.88,196q-3.6.18-2.52,4c2.16,8,4.44,16.08,7,24.36q18.54,61.2,31.32,124.56a254.71,254.71,0,0,1,4.44,31.68q1.26,14,8.28,21.6l.36-1.2a23.07,23.07,0,0,0,2.64,4.68,324,324,0,0,0,20.16-58.2l31-123.72a21.17,21.17,0,0,1,2.16-5.64c4.68-9.24,4.68-16.92,0-23.16Z" transform="translate(-150.75 -190.43)"/></svg>