<svg id="Layer_1" data-name="Layer 1" xmlns="http://www.w3.org/2000/svg" viewBox="0 0 401.78 459.12"><defs><style>.cls-1{fill-rule:evenodd;}</style></defs><path class="cls-1" d="M245.64,364.08q-21.78,51.66-16,109.8A48.58,48.58,0,0,0,238.92,498c11.16,15.24,25.92,19.44,44,12.6l6-7.92c6.24-8.16,6.72-15.6,1.56-22.2a15.14,15.14,0,0,0-4.2,5.64c-5.76,13.2-16.2,16.32-31.44,9.24-13.44-6.12-20.16-17.16-20.16-33,0-19.32.6-38.64,1.92-57.72q2.7-41.94,45.84-40.68a14.17,14.17,0,0,1,4.44,5.16,3.25,3.25,0,0,0,3.12,2c2-1.8,2.52-4.08,1.56-6.84a43.09,43.09,0,0,0-4.56-9.84l-3-2.4-1.08-.84-7-.24a91,91,0,0,0-20.28,4.2A15.56,15.56,0,0,0,245.64,364.08Zm40.08-123.24c-1.2-19-10.92-25.2-29.28-18.84C244.8,226.2,240,234.72,242,247.44q3.78,21.6,24.12,33.48c18.48,10.68,21.12,22.68,8,35.76-12.6,12.6-24,11-34.44-4.92a9.49,9.49,0,0,0-4.92-4.08c-4.56,18.36,4,28.56,25.68,30.48,16.2,1.44,26.28-6.24,30-23a27.74,27.74,0,0,0-3.84-22.2,151.57,151.57,0,0,0-38.28-40.44q2-31.5,33.84-14.16A13.47,13.47,0,0,1,285.72,240.84ZM86.16,364.8c-.36,24.6-1,49.56-1.8,74.64a349.85,349.85,0,0,0,3.84,64.08,277.53,277.53,0,0,0,58.2-1.32,3.33,3.33,0,0,0,3.48,1.08c3.72-5.64,3.36-10.92-1.08-16a207.25,207.25,0,0,1-58.44,0v-2.4C92,441.84,92,399,90.36,356.64,87.6,358.08,86.28,360.84,86.16,364.8ZM117.48,255c-3.48,8.28-10.68,11.64-21.72,10.2l-.6-36.12Q128.1,229.62,117.48,255ZM91.2,223.56l.12,2.28.36,1.68,1.2.6a1105.88,1105.88,0,0,0-5.16,114.72A2.32,2.32,0,0,0,89.88,345l.72-.6q4-34,4.92-67.68a3.05,3.05,0,0,0,1.32,1.44c6.84.36,12.48-.36,17.16-2.28a185.83,185.83,0,0,0,28.56,68.64,4.38,4.38,0,0,0,1-4.56,459.22,459.22,0,0,0-26.76-65.4c8-4.44,12.24-13.2,12.6-26.16q.72-33.12-35.76-29.76c-1.44-.12-2.28.72-2.4,2.4ZM157.44,65.28,66,61.68v.12l-1.08.36a2.05,2.05,0,0,0-1.68,1.92,11.17,11.17,0,0,0,.12,3.48A105.44,105.44,0,0,0,60,85.68c-4.08,42.84-6.72,85.8-7.92,129.12-1.2,43.08-1.32,86-.48,129.12Q53,408.18,50.16,472.08c-.6,12.24,1.32,22.8,5.64,31.68a34.78,34.78,0,0,0,3.84-14.52L60,474.6q.36-64.26-1.56-129c-1.32-43.32-1.32-86.28.12-129.12L59,203.76l47.52,2.16a7,7,0,0,0,1.8-3,12.55,12.55,0,0,0-.84-8.88l-1-1.68-1.08-.48a57.08,57.08,0,0,0-15.6-1.68,88.27,88.27,0,0,0-30.36,3.48q1.8-36.54,6-72.72a369.74,369.74,0,0,0,2.4-51.12,419.1,419.1,0,0,0,90.36,7.32l.24-.84.48-.84.36-1.56.24-.84v-2.4a10.07,10.07,0,0,0-1.32-4.92A.91.91,0,0,0,157.44,65.28ZM209.16,63a327.55,327.55,0,0,0-4.44,56.64c.12,42.84-.12,85.92-.72,129s-1,86.16-1.08,129.12,0,85.56.48,128.16a2.87,2.87,0,0,0,3.84,1.68,329.8,329.8,0,0,0,4.32-58.2q-.72-64.62-.36-129t1.44-129.12C213.24,148.2,212.16,105.36,209.16,63ZM234,75.48q-.72,39.24-4.8,77.88a241.32,241.32,0,0,0,1.32,64l.84-1.44a136.19,136.19,0,0,0,3-21q4-64.62,2.88-128.28C235.2,68.64,234.12,71.64,234,75.48ZM238.44,66c9,30.12,19.2,60.12,30.6,90.24a212.53,212.53,0,0,1,9.36,31.32c2.52,11.28,6.6,20.88,12.48,28.68a5.48,5.48,0,0,0,1-2.52,48.41,48.41,0,0,0-4.8-24.6,18.76,18.76,0,0,0-1-4.92A1160.07,1160.07,0,0,0,239.4,64.92C238.56,64.8,238.2,65.16,238.44,66Zm56.88,1.44q-2.7,40.68-4.92,81.84a328,328,0,0,0,2.88,64,39.79,39.79,0,0,0,4.08-17.64q.36-64.62-1.68-128.16Zm131.4,3.72a6.35,6.35,0,0,0-3.24,1.92A311.51,311.51,0,0,0,406,111q-22.86,59.94-43,121.68A247.21,247.21,0,0,1,334.68,292l-2.28,4v-5.28q.18-64.8,2.52-129.12c.72-21.48,2.28-42.72,4.68-63.84,1.32-12.12.6-22.8-1.92-32.16a137.4,137.4,0,0,0-5.52,31.8q-4,64.26-4.92,129.12c-.72,43.08-1.08,86-1,129.12q.18,64.26-3.24,128.16-.9,18.36,5.4,31.68a693.53,693.53,0,0,0,4.8-95.76q-.9-48.6-.84-97.2A419.81,419.81,0,0,0,362,252.84l4.2-12.72a130,130,0,0,0,6,37.56q18.9,60.3,39.12,120.84,20.16,60.84,37.2,122.28l3.24-1.08A135.29,135.29,0,0,0,445,474.6q-19.8-60.48-40.08-121.32-20-59.94-36.24-120.24c11.52-34.2,23.76-68,36.72-101.28,4-10.08,8.28-20,12.72-29.76A91.34,91.34,0,0,0,426.72,71.16Z" transform="translate(-50.05 -61.68)"/></svg>