<svg id="Layer_1" data-name="Layer 1" xmlns="http://www.w3.org/2000/svg" viewBox="0 0 548.53 584.04"><defs><style>.cls-1{fill-rule:evenodd;}</style></defs><path class="cls-1" d="M111.72,430c-2.28,2.28-3.36,5.52-3.48,9.72-.6,17.52-.84,34.56-.6,51.12a7.85,7.85,0,0,0,5.64-2.64,59.2,59.2,0,0,1,20.64,2.4c2-4,1.44-7.56-1.68-10.56a75.58,75.58,0,0,0-21.12-2.16l.12-.72A144.66,144.66,0,0,0,111.72,430Zm154.8,75.48,2.16,1.56,8.16,17.76L240,552.84l.24,8a176.61,176.61,0,0,0,40.32-28.44l23.28,40.92,1-2.64L285.6,528c17.4-9.24,25.56-21,24.24-35.28l-28.2,27.84L267.6,497Zm5.4-69.84-15.24-3-.24-1.8a252,252,0,0,0-5.52,54.72c.12,4.68.72,8.4,1.92,11.16l4.44-34.92c5.52,1.92,10.32.48,14.4-4.2a17.35,17.35,0,0,0,4.2-13.44A14.44,14.44,0,0,0,271.92,435.6Zm.84,10.56-6.24,7.32-8-.72L257,436.92l13.2,4.32,1.08,1.68ZM289.08,437l6.6,13-7.08,4.56-2.28-16.8Zm-1.2-5.76a7.41,7.41,0,0,0-3.12,7.44l.48-.12a114.12,114.12,0,0,0-1.32,50l3.36-25.08c7.32-1.56,11-6.6,10.92-15.12a21.15,21.15,0,0,0-7.92-16.92Zm23.64-82.2a403,403,0,0,1-3.48,43.2,122.93,122.93,0,0,0,0,33.84l1.08,6.12,5-41.4,16.44-19.68a145.84,145.84,0,0,0,9.6,45.24,50.67,50.67,0,0,0,8.28,14.52,281.46,281.46,0,0,0-12.84-55.2L333,368a86,86,0,0,0,16.44-28.8,43.83,43.83,0,0,0,2.52-15.6l-37.2,58,.48-58.56A112.7,112.7,0,0,0,311.52,349.08ZM212.88,427.2a21.94,21.94,0,0,0,22.2.24l1.32-.48c1.44-14.76-4.2-27.36-17-37.56l1.08-3.36,3.6-1.32,9.12,8.52a12.89,12.89,0,0,0-2.28-12.6,15.33,15.33,0,0,0-9-5.4C213.6,390,217.44,403.92,233.16,417l-20.28,1.32-.6,4.92Zm-9.6-113.52a125.24,125.24,0,0,0,.48-46.32c-2,2.76-3.12,6.48-3.24,11-.6,16.68-.84,33-.84,48.72a40.93,40.93,0,0,1,25.68-.72,7.93,7.93,0,0,0,0-9.84L203.52,315l-.36-.6ZM264,270.12h-2.16c-21.24,16-30.6,38.52-28.32,67.92a167.39,167.39,0,0,0,7.32,36.72c2.52,8,8,12.12,16.44,12,17,0,25.2-7.8,24.6-23.4a76.69,76.69,0,0,1-22,11.64,8.3,8.3,0,0,1-8.76-1.44q-13.86-11.7-15.84-31.32-4-40.68,28.68-62.4l12.12,3.84-.12-6A15.06,15.06,0,0,0,264,270.12ZM99.24,397.56,98.52,386l7.8-2.4,8,7.08a16.33,16.33,0,0,1-13.56,6.84Zm19-9.24-.24-2.76a19,19,0,0,0-13.08-8.88L99,379.32l-1,1.56-.84-2.52a217.5,217.5,0,0,0-.6,57.84l2.76-29.76,10.56-2.28a95.3,95.3,0,0,0,19.8,33.24,89.26,89.26,0,0,0-16.32-35.64A16.9,16.9,0,0,0,118.2,388.32ZM70.56,328.2l-1-5.4c-4.32,13.8-4.92,28.56-1.8,44a72,72,0,0,1,1.2,11.4l22.44,1.32,1.08-8.28-20.28-4.56A143.18,143.18,0,0,0,70.56,328.2ZM101.64,17.88l.48-1,.24-1.2v-.84l.12-.84a12.14,12.14,0,0,0-1.56-7.32l-33-3.36A112.43,112.43,0,0,0,32.16,5.64l-.36,7.08,2.4,1.56c-1.08,9.6-1.68,19.32-1.8,29q-1.26,177.48-1.32,355,0,48.24-1.2,96.36L28.8,526.32l-1.2,31.56-4.32-17a131.58,131.58,0,0,1,1.8,23.64,38.08,38.08,0,0,0,7.08,22.44,308.84,308.84,0,0,0,3.72-40.56Q38.94,404.7,37.08,263q-.54-39.42,1.08-78.84L72.84,184l3.84.84,1.2-2.52.6-1.92.24-2-.12-1.92a10.86,10.86,0,0,0-1.2-3.48l-2.16-3.84L38.76,172.2c1.44-22.68,2.52-45.48,3.12-68.28a597.45,597.45,0,0,0-4.44-89,245.32,245.32,0,0,0,31.08,4.44,257.63,257.63,0,0,0,31.92.48Zm75.24-14c-1.08-.24-1.68.24-1.8,1.32a427.08,427.08,0,0,0-2.52,49.56q.36,64.62-1.32,129-1.8,64.62-2.16,129.12c-.12,42.84-.24,85.92-.12,129s-.36,85.68-1.56,128.28c.36,1.8,1.92,4.8,4.68,8.88a2.14,2.14,0,0,0,1.08-1.44,490.82,490.82,0,0,0,3.72-58.32l.6-129.12c.36-43.08.24-86.16-.36-129-.6-43.2.48-86.16,3-129A762,762,0,0,0,176.88,3.84ZM300,213.24q-5.58,56.34-6.12,112.08l.36-.12q3.6-23,5.4-46.08a138.34,138.34,0,0,0,25.56,1.2A296.19,296.19,0,0,0,326.88,328l.6-.6a785.33,785.33,0,0,0,5-111.12c-3,17.16-5.28,35.16-6.72,54l-4.32-.12a47.37,47.37,0,0,0-21.36,2,583,583,0,0,0,1-59.76C300.48,212.28,300.12,212.52,300,213.24Zm5.16-98c-1.8,7.32-6.12,11.76-13.08,13.44l-.48-.24L289,128l.24-18,9.72-1Zm-58.08,46.08-2.52-.6q-23.22,20.7.12,42.84,23.76,22.32,11,52.2A25.92,25.92,0,0,1,237,259.8l-11.16-7.32-2-9.6-2-1.32c-4.32,14.76,1.32,24.12,17,28.2,10.2,2.64,17.64-.6,22.08-9.84,5.52-11.28,5.88-22.56,1.08-34a134.61,134.61,0,0,0-14.88-26.4,50.88,50.88,0,0,1-9.24-23.4l10-5.4,6.84,3.24,7.8,11C263.88,172.92,258.72,165,247.08,161.28ZM215.52,60.12q-1.08,52.2-.72,103.08a63.31,63.31,0,0,1,33.6-5.4l.36-.6a9,9,0,0,0,.12-8.88,79.83,79.83,0,0,0-31.32,1.08l.24-.84a607.86,607.86,0,0,0,1.08-95.76C216.72,54.24,215.64,56.64,215.52,60.12Zm72.72,45.24a183.07,183.07,0,0,0-4.92,54.84,30.47,30.47,0,0,0,1.08,6.48l4.32-30.6,1.8,2.16,8.52-3.72a55.66,55.66,0,0,0,16.68,28.92c2.28-7.32.36-13.8-6-19.2a29,29,0,0,1-8.52-12.12c6-6.36,7.68-13.2,4.92-20.76-1.92-5.4-5.88-8.76-11.76-9.84l-4.32,2ZM475.08,216a2.94,2.94,0,0,0-1.44,2.16,6,6,0,0,0,.48,3.84l.12.36a136.59,136.59,0,0,0-1.92,25.8c.6,42.72.84,85.44,1,128.16q.18,65-4,129.12c-1.08,16.32-2.88,32.52-5.52,48.48a35.26,35.26,0,0,0,.48,16l-1.08.6c-1.32.84-1.68,1.56-1.08,2.28a11.29,11.29,0,0,0,2.64-1.44,23.33,23.33,0,0,0,3.84,7,2.54,2.54,0,0,0,1-1.44v-.12q28.62,3.42,53.28-13.44a51.5,51.5,0,0,0,14.4-14.88q34.38-54.54,34.56-121A625.25,625.25,0,0,0,559.56,300q-13.86-69.3-82.8-83.76l-.24-3.84-1,3.6Zm43.56,32.4c22.2,19.2,35.64,43.68,40.08,73.56A516.92,516.92,0,0,1,562,449.64a192.76,192.76,0,0,1-16.68,61.8c-14.28,31.56-38.88,47.28-73.56,47q4.68-43.74,6.6-88,2.7-64.08,2.52-129-.18-58.14-3.48-115.2a66,66,0,0,1,21,7.68A128.88,128.88,0,0,1,518.64,248.4Zm-98.76-39.24A23.54,23.54,0,0,0,407,216.84q-25.38,28.62-28.92,68c-4,42.48-6.84,85.2-8.88,128.28A634.5,634.5,0,0,0,376,541.44a39.87,39.87,0,0,0,7.92,18.48c15.24,19.56,32.88,21.6,52.68,6.36,15.24-11.88,19.8-25.68,13.68-41.64l1.32-6.36a7.92,7.92,0,0,0,0-3.36,99.11,99.11,0,0,1-9.12,22.44c-7.8,13.92-19.56,20.28-35.4,19.2a16.59,16.59,0,0,1-12-6.12c-10.92-13.2-16.68-29-17.28-47.4q-1.8-58.86,1.08-117.72a115.41,115.41,0,0,1,38.64-5.4l.6-1c2.76-5.16,2.4-10-.84-14.4l-24.36,1.2c-5.88.6-10.32,1.92-13.2,4,1.08-19.68,1.68-39.36,1.92-59,.36-33,11-61.08,32-84.48,7.68-3.48,14.4-2.4,20,3.24l.72,1.56,1.32,3.36a2.16,2.16,0,0,0,1.8,1.56,13.72,13.72,0,0,0,1.68-6.48c.12-8-3.24-14.16-10.08-18.6a10.25,10.25,0,0,1-2.88-1.08A6.85,6.85,0,0,0,419.88,209.16ZM403.2,6.72,323.64,9.24l-.48.84a13.67,13.67,0,0,0,.12,10.44L369,22.68a597.63,597.63,0,0,0-6.48,64c-2,42.36-2,84.84-.24,127.44a2.43,2.43,0,0,0,3.24,2.16,14.63,14.63,0,0,0,2.52-9,923,923,0,0,1,2.88-128.88,332.36,332.36,0,0,0,.36-55.68l31.92-1.32.6-1A12.13,12.13,0,0,0,403.2,6.72Z" transform="translate(-23.28 -2.88)"/></svg>