<svg id="Layer_1" data-name="Layer 1" xmlns="http://www.w3.org/2000/svg" viewBox="0 0 497.38 441.84"><defs><style>.cls-1{fill-rule:evenodd;}</style></defs><path class="cls-1" d="M140.64,63.6l-.24-3.36a5.65,5.65,0,0,0-1.32-3.12l-.48-.6-16.32-1.8a179.68,179.68,0,0,0-43.92,10.2l-4.8,1.92q-3.06,37.62-5.28,76.08-4.86,83.7-8.64,167.64-2.16,48.24-5.28,96.84C53.52,422.16,53,437.16,53,452.16c0,4.08.12,8.16.36,12.12l.6,6.12.72,5.76,2.16,11.4c8.28-18.36,11.64-39.24,9.84-62.88a375.87,375.87,0,0,1-.6-49.32q4.14-75.24,6.36-150.72l41.64,4,1.92,1.2c3.48-.84,5-3.36,4.8-7.56a33.57,33.57,0,0,0-1.56-7.68,4.7,4.7,0,0,0-2-2.52L73,210.24c.12-39,1.8-77.76,4.92-116.52a73.68,73.68,0,0,0-.36-14.52,195.48,195.48,0,0,1,60.72-7.8A11.41,11.41,0,0,0,140.64,63.6Zm43,32a333.3,333.3,0,0,0-19.2,41.52,193.75,193.75,0,0,0-11.52,45c-2,14.28-3.84,28.56-5.4,43l-4.2,43.2-.84.24-.48.6-1.32,56.76a650,650,0,0,0,5.88,102.48,106.38,106.38,0,0,0,8.4,29.52l2.76,5.64a78.9,78.9,0,0,0,8.88,12.84c6.36,7.44,14.88,9,25.44,4.68l15.48-5.88q6.12-2,11.88-4.32c6.6-2.76,13.2-5.76,19.8-8.88,10.44-5.16,15.6-13.08,15.72-23.88a19.71,19.71,0,0,0-3.24-10.92l-7.2,6.48-.72-9.72-.84,10.2a155.43,155.43,0,0,1-52.08,27.12,25.51,25.51,0,0,1-17.88-1,21.61,21.61,0,0,1-12.6-14l-1.08-4.56a244.6,244.6,0,0,1-4.8-31.2,1159.41,1159.41,0,0,1-5.16-130.8,220.77,220.77,0,0,0,55.56-2A17,17,0,0,0,204,259.8l-54.48,7.56a419.48,419.48,0,0,1,19.92-119.88A150,150,0,0,1,186.12,112a153.85,153.85,0,0,1,25.44-29.64c14.88-4.2,28-1.56,39.12,7.68a6.6,6.6,0,0,0,4,1.68,7.26,7.26,0,0,0,2.16-6.48,16.27,16.27,0,0,0-3.12-7.8,56.43,56.43,0,0,0-8.52-9.24,74.22,74.22,0,0,0-18.48-4.44l-9.12.36C202.8,70.44,191.52,81,183.6,95.64ZM356.16,61.32a102.45,102.45,0,0,1-32.52-.48,570.62,570.62,0,0,0-59,5.16,8,8,0,0,0-1.08,2.52,18.66,18.66,0,0,0,.72,9.6l.36.84c16.44.12,32.88.12,49.32-.12a71.8,71.8,0,0,0-2,14.16q-2,39.6-2.88,79.68-1.26,63.9-4.56,128.16-3.24,64.44-8.28,129a161.93,161.93,0,0,0,3.12,48c2.76-1,4.2-3.12,4.56-6.48,1.68-15.72,2.76-31.68,3.36-47.88,1.56-42.6,3.36-85.44,5.4-128.28s3.24-85.92,3.6-129A610.33,610.33,0,0,1,320,101.28a83.14,83.14,0,0,0-.24-22.56l37.56-1.08,1.2-1.68a13.38,13.38,0,0,0-.12-13.56l-.72-1Zm87.12,26.4q-7.2-19.62-32-18.72c-12.84,3-22.08,10.08-28,21.48a267.47,267.47,0,0,0-23.16,61.44A672.1,672.1,0,0,0,341.4,278a727.13,727.13,0,0,0,4.2,127.44,137.35,137.35,0,0,0,23.52,62.4c6.48,9.36,15.12,13,25.92,10.92a104,104,0,0,0,20.88-6c17.4-7.08,29.16-19.2,35-36.36,3-8.52,1.56-14.64-4.2-18.36-1.8,3.24-3.84,6.48-6,9.6Q426.36,449.1,400,459c-8.52,3.12-15.6,1.44-21.36-5.16q-27.54-31.14-29.28-74.16-2.7-64.08.6-128.4A406.65,406.65,0,0,1,375,128.64a109.74,109.74,0,0,1,11.76-23q22.86-33.66,56.76-10.08A13.28,13.28,0,0,0,443.28,87.72Zm103.44-9.6c-3.24,42.6-5.28,85.44-6.36,128.4l-1.2,37.68a501.55,501.55,0,0,0-60.84,5.88l2-56c2-43.08,2.52-85.92,1.56-128.28a7.31,7.31,0,0,0-3,5.88c-3,42.6-5,85.44-6.12,128.28C471.72,243,470.52,286,469,329q-2.34,64.26-6.84,127.68l-.36-.48a63.4,63.4,0,0,1,1.44-26c-5.4,17.64-4.8,34.68,1.68,51.12a1.71,1.71,0,0,0,1.2-1A407.61,407.61,0,0,0,474,411.6c1.32-43.08,2.52-86,3.48-129.12l.36-16.8,60.6-3.48c-1.08,24.36-2.4,48.84-4.08,73.2l-8,127.8-.12-.48a224.3,224.3,0,0,0-2.4-32.52c.48,6.84.72,13.8.84,21.12a150.05,150.05,0,0,1-1.44,20.88c-1.56,10.56.36,18.72,6,24.36a139.82,139.82,0,0,0,8-43.08c.48-14.4,1.08-28.92,1.8-43.68l4-79.8,2.88-68.16,1.2-.12a7.21,7.21,0,0,0,2.64-3.84,13.87,13.87,0,0,0-2.64-13l-.48-.12,1.8-43.8q2.52-65,1.92-128.16C548.16,73.44,547,75.24,546.72,78.12Z" transform="translate(-53.04 -54.72)"/></svg>