<svg id="Layer_1" data-name="Layer 1" xmlns="http://www.w3.org/2000/svg" viewBox="0 0 353.16 404.29"><defs><style>.cls-1{fill-rule:evenodd;}</style></defs><path class="cls-1" d="M139.08,282c-.6,15.72-7.32,28.2-20,37.32A52.46,52.46,0,0,1,109,325a389.29,389.29,0,0,0,3.24-70.8C130.92,253.8,139.92,263,139.08,282Zm-30.6-40.8-.84-.24-1.8,2.76-3.6,2.28v8l1.8,1.08L101.4,327.6a11.91,11.91,0,0,0-3.36,9,9.34,9.34,0,0,0,2.52,6Q95.16,400,94.32,456a9.26,9.26,0,0,0,1.44,4.8,654.12,654.12,0,0,0,12.12-119.4l11.28-5.52a390,390,0,0,0,39.6,126Q151,397.26,122.4,333.48q41.58-40,11.64-87.6c-6.84-5.16-14.28-6.72-22.56-4.44l-2.28.72ZM156.36,65.28l-1.08-1.92A183.56,183.56,0,0,0,89.4,69.84,9.61,9.61,0,0,0,83,75.48l-.6-1.56a1156.45,1156.45,0,0,0-7.32,139.92q1.26,113-5.16,225.24l-2.88-7.68,3,21.24,6.24,2.4a615.45,615.45,0,0,0,7.32-123.48q-2.16-52-2.4-103.92a296.19,296.19,0,0,0,59.28-4.08,13.09,13.09,0,0,0,.84-14.52l-1.2-2-58.68,5.76q4-59.76,3.12-119.64l-.24-6.36a158.41,158.41,0,0,1,61.92-4.56q6.48.72,9.72-3.6A13.22,13.22,0,0,0,156.36,65.28ZM285.24,93.36l1-.24c-3-16.92-13.08-24-30.24-21.36a82.57,82.57,0,0,0-27.72,9.84C215.4,88.68,206,99.24,200,113a212.61,212.61,0,0,0-13.2,41A277.37,277.37,0,0,0,181,196.32l-2.64,41.52c-1.08,15.84-1.56,31.68-1.44,47.4.12,11.64.36,23.16.84,34.8.48,13.44,1.44,26.76,2.76,40s2.76,26.4,4.32,39.6A99.58,99.58,0,0,0,199,440.76c8.52,13.8,20.64,19.2,36.36,16.08a79.35,79.35,0,0,0,40.32-20c10.2-9.24,13-20.28,8.4-33.12L280,406.44l-4.32-.12,1.44,2.76q-15.12,25.2-44.16,28.56A72.56,72.56,0,0,1,216,437.4a11.21,11.21,0,0,1-10.44-7.8,318,318,0,0,1-14.64-53c-1.32-7.32-2.52-14.88-3.48-22.44-1.32-10.08-2.16-20.28-2.52-30.48-.6-13.32-1.08-26.52-1.44-39.72L183.12,269l53.76-1.56a13.42,13.42,0,0,0,2-10.08,13.68,13.68,0,0,0-2.52-5.76,199,199,0,0,0-53.4,4.68q-5.94-77.4,31-142.2A50.65,50.65,0,0,1,231.12,96a73.3,73.3,0,0,1,35.64-11.88A31,31,0,0,0,285.24,93.36Zm12.12-9.48q-2,61.38-7.2,122.52a285.19,285.19,0,0,0,1.44,64.2,83.29,83.29,0,0,1,43.92-2.76c4-6.36,3.72-12.6-.6-18.6-4.32.24-6.6-1.44-6.72-4.92a165.09,165.09,0,0,1-31.44,5.76c0-18.84.72-37.44,2.16-56q5.22-64.44,5.76-127.44c-.6.12-1,.24-1.2.6A27,27,0,0,0,297.36,83.88Zm117.72-17.4-68.76-2v.12A54.64,54.64,0,0,0,322,66.84l-.6,2.4a16.73,16.73,0,0,0-.36,4.92l.12.84.12.72.84,2.4.72.84,51.72,2.76a618,618,0,0,0-3.72,71.76q.36,64.44-.72,129-1.26,64.8-6.48,129A252.36,252.36,0,0,1,359,443.4c-2.16,10.32-.24,18.24,5.64,23.64a19.56,19.56,0,0,0,3.36-8.88q7-63.72,8.28-128.28l2.52-129.12q1.08-60.3-1.44-118.92l39.84,2.64,1.08-1.56a15.32,15.32,0,0,0,1.44-11.28l-.12-.72-.24-.84a4.77,4.77,0,0,0-3-3.24Z" transform="translate(-67.08 -62.75)"/></svg>