<svg id="Layer_1" data-name="Layer 1" xmlns="http://www.w3.org/2000/svg" viewBox="0 0 296.33 211.45"><defs><style>.cls-1{fill-rule:evenodd;}</style></defs><path class="cls-1" d="M318.48,293.28q-20.34-17.1-39,3.24a73.47,73.47,0,0,0-18.84,40.8,111.73,111.73,0,0,0,3.36,46c3.84,12.84,13.08,19,27.6,18.12,19.08-.6,30.24-9.24,33.72-25.68a10.24,10.24,0,0,0-2-8.52,131.61,131.61,0,0,1-19.56,12,48.92,48.92,0,0,1-24.24,5.52c-7.56-3.6-11.52-10.08-12.12-19.32-.24-5-.24-10.2-.12-15.36L316,341a13.3,13.3,0,0,0,2-10.2,16,16,0,0,0-2.52-5.64,177.27,177.27,0,0,0-46,9c2.52-13.68,9.84-23.4,21.84-29.16a37.18,37.18,0,0,1,27.36-2Zm-91.32-87.72.48-1.2.36-1.2.12-1.32a10.78,10.78,0,0,0-.6-4.32l-1.08-2.4-45.72-2.28a66.56,66.56,0,0,0-19.44,2.52l-.6-1.92a13.89,13.89,0,0,0-3.24,8.52Q154,296.1,148.68,389.64a10.57,10.57,0,0,0,.48,3.84l1.08,3.84a12.59,12.59,0,0,0,1.68,3.36h.6a141.47,141.47,0,0,0,5.76-31q2.88-39.6,3.36-79.32l41.28.72,1.32-2,.48-1.08.24-1.2.36-1.2a14.61,14.61,0,0,0,.12-4,13,13,0,0,0-2-5.16,81.8,81.8,0,0,1-17-2.16,39,39,0,0,0-24,1.44l-1.08-68.64,64.56,1Zm146.28,6q33.48-9.36,54.84,14.88c6.12,7,7.08,14.52,3,22.8q-19.26,38.7-62.64,39.84a692.63,692.63,0,0,0-1-77.4A10.45,10.45,0,0,0,373.44,211.56Zm-6.6-11.4-.48-5c-3.72,5.88-5.64,13.2-5.64,22q.18,63.72-2.76,128.16a131.42,131.42,0,0,1-3.36,24c-2.88,11.88-2.4,22.8,1.44,32.52A129.07,129.07,0,0,0,365.4,355c.36-15.72,1.08-31.68,2.16-47.76l.24-2.76a79.69,79.69,0,0,0,21.6-3.36,25,25,0,0,0,3.84,7.56A152,152,0,0,1,406,330l22.2,46.8a185.24,185.24,0,0,0,15.6,27.48,5.08,5.08,0,0,0,1.2-4,130.8,130.8,0,0,0-19.68-56.64q-14.4-23-27.36-45.72a86.44,86.44,0,0,0,24.84-16.56q20.34-19.26,15.72-47.16-6.66-39.6-49.92-38.88a62,62,0,0,0-17.28,2.88A18.4,18.4,0,0,0,366.84,200.16Z" transform="translate(-148.65 -192.83)"/></svg>