<svg id="Layer_1" data-name="Layer 1" xmlns="http://www.w3.org/2000/svg" viewBox="0 0 485.64 446.02"><defs><style>.cls-1{fill-rule:evenodd;}</style></defs><path class="cls-1" d="M149.76,251.52Q176,260,179.64,289c-8.88,27-27,41.4-54.36,43l2.52-28.56a315.42,315.42,0,0,0,.48-51C135.12,249.36,142.2,249.12,149.76,251.52Zm14.16-9.12a50.23,50.23,0,0,0-7.44-4.08,60,60,0,0,0-15.84-4.56l-14.28,5.64-5.76,4.68a20.73,20.73,0,0,0-.48,8.16,3.26,3.26,0,0,0,2,2.64l.6.24.48-.12.72-.24-6.6,77.16-4.08-.12c-3.72,6.48-3.48,12.36.84,17.76l1.8.24q-15.3,76.5-13,149.52,13.86-74.16,20.52-149.52l23.16-5.28q14.22,72.54,32.4,145l1.68,1.56,4.8,8.16q-2.7-79.92-32.64-157.68c17-8.52,27.36-22.2,31-40.8l.72-6.84a88.05,88.05,0,0,0-.24-14.88,53.19,53.19,0,0,0-12.84-30.12A38.63,38.63,0,0,0,163.92,242.4ZM160.68,82.56A609.74,609.74,0,0,1,154.56,174a162,162,0,0,0-.36,48.12l19-1.8c7.8-.36,13.32,1,16.8,4,4-2.52,8.64-2.88,14-1.32,4.44-6.24,4.08-12.12-.84-17.52l-43-1.68v-.84a552.46,552.46,0,0,0,3.72-125Q160.68,78.6,160.68,82.56Zm-3.36-10.92a11.83,11.83,0,0,0,.84-4.56,12.88,12.88,0,0,0-2-7.08l-50-2.88a76.69,76.69,0,0,0-27.72,3.6l-3.12,1.2-.12,9.72q-3.06,85.86-6.48,172.44Q64.86,343.8,59.76,443.4L58,470.28a38.9,38.9,0,0,0,1,12.36L60,486.48l1.32,3.72a8.64,8.64,0,0,0,1.8,3.24l.36-.24Q74.82,358.74,77.64,223.08l56.76,4a15.24,15.24,0,0,0,2-4.8,23.34,23.34,0,0,0,0-7.08,10.24,10.24,0,0,0-2-4.32,176.94,176.94,0,0,0-56.16-2L79,73.44l76.56,1.2A7.72,7.72,0,0,0,157.32,71.64ZM327.48,73.8a68.24,68.24,0,0,0-40.68-6.36q-36.9,13.68-47.52,52.08a510.27,510.27,0,0,0-16.08,91.92c-1.32,16.68-2.52,33.36-3.36,50a12.15,12.15,0,0,0-.36,7.68q-1.8,35.46-1.92,71.28A328.07,328.07,0,0,0,241.44,467a52.87,52.87,0,0,0,8.76,14.88Q270.54,506.4,301,490.2a100.43,100.43,0,0,0,24.12-18c11.76-11.88,14.52-24.48,8.28-37.68l-13.68,18.84a55.68,55.68,0,0,1-22,17.76c-22.44,10.44-38.64,6-48.84-13.32a33.6,33.6,0,0,0-2.76-8.28,149.62,149.62,0,0,1-8-23.76,451.63,451.63,0,0,1-12.36-94.56c-.6-19.56-.48-39.12.24-58.44,25.08-1.92,50-4.68,74.64-8.16l.48-.84c2-5.4,1.44-10.2-1.8-14.52a543,543,0,0,0-72.72,9.6c1-18.72,2.52-37.32,4.56-55.8,1.8-15.84,3.84-31.68,6-47.52a97.76,97.76,0,0,1,21.36-49.44c20-24.6,45.12-29,75.36-13.56l1.08-.24,2.4-1.32.36-.6a17.26,17.26,0,0,0-1.8-8.28,28.86,28.86,0,0,0-4.44-6.36L330.6,75Zm55.2,300.84a732.07,732.07,0,0,0-14.4,88.08c-3-22.08-6.72-44-10.92-66-1.68-8.88-4.68-16.08-8.88-21.48a214.57,214.57,0,0,0-4.92,41.4,196.28,196.28,0,0,1-5.4,41c-2.52,10.8-1.68,19.8,2.52,26.88l.84-1.68a369.28,369.28,0,0,0,9.12-71.4,217.77,217.77,0,0,1,7,40c1.2,14.64,5.16,27.6,12,38.88a43,43,0,0,0,6.36-18.6c1.8-18.12,4.44-36.24,7.92-54.24a107.33,107.33,0,0,0-.24-43.32C383,374,382.8,374.28,382.68,374.64Zm27.48-1.56a20.38,20.38,0,0,0-8,8.52,162.6,162.6,0,0,0-17.64,62.88,59.93,59.93,0,0,0,3.12,23.88c4.92,14.64,13.32,17.4,25.2,8.16,14.76-11.4,19.08-24.12,13.08-38.16a3.69,3.69,0,0,0-1.2,1.8c-4.8,13.32-13.56,21.48-26.16,24.36a10.68,10.68,0,0,1-4.44-3.48,15.87,15.87,0,0,1-1.8-3.48,70.81,70.81,0,0,0,.84-11.4C393,424.44,398.88,405.6,411,389.4l3.24-.12.24.12a6.79,6.79,0,0,0,4.32,2.16l.84-.36a8.75,8.75,0,0,0,1.92-4c1.2-6.12-1-10.8-6.48-13.92Zm-13-300.24a33,33,0,0,0-13.08,8.52,70.49,70.49,0,0,0-17.64,32.76c-6.36,26.88-1.56,51.6,14.16,74a386.36,386.36,0,0,1,36.84,64.56c12.84,28.92,7.32,53-16.68,72.6-19.8,16.2-39.6,16.56-59.4,1.32A60.09,60.09,0,0,1,325,307.44q-10.62,25.74,15.48,40.8,38.88,22.86,70.44-10.44a63.63,63.63,0,0,0,13.68-22.2c9.72-26.76,8.88-53.52-2.76-80.4a205.7,205.7,0,0,0-31.2-50.4q-27.72-33.12-13.8-73.08,6.3-18.36,24.84-20.88c15.24-2,24.36,3.48,27.48,16.32a16,16,0,0,0,2.52-10.56C429.72,78.36,418.2,70.44,397.2,72.84Zm144.72,70.44A311.1,311.1,0,0,0,541.68,79a150,150,0,0,0-8.4,49.8q-.54,64.44-.72,129.12v7.68l-16.32-1.2c-16.68,1.8-33.48,4-50.28,6.72l-.12-3.72q-1.26-64.62,1.8-129a543.48,543.48,0,0,0-.6-64.2c-3.48,2.28-5.4,6-5.76,11Q457,149.28,458.4,213.48q1.62,64.26,1.08,129.12-.54,64.44-7,128c-1.2,12.12.24,22.92,4.2,32.4a2.67,2.67,0,0,0,1.08-1.56q4.68-39.24,8.88-78.6l-.6,1.2-2.28,9.6c1.08-12.36,1.68-24.84,1.92-37.32.84-36.84,1.08-73.68.48-110.64l66.24-3.36c-.12,24.12-.6,48.12-1.2,72.12q-1.8,64.08-1.68,128.28c-2-4.68-4-9.48-5.76-14.64a76.65,76.65,0,0,0,10.8,31.08,2.42,2.42,0,0,0,1.8-2.16q2.16-31,1.44-63.36c-1.08-43.2-.6-86.16,1.2-129s2.16-85.92,1.56-129A290.18,290.18,0,0,1,541.92,143.28Z" transform="translate(-57.82 -57.02)"/></svg>