<svg id="Layer_1" data-name="Layer 1" xmlns="http://www.w3.org/2000/svg" viewBox="0 0 296.23 213.24"><defs><style>.cls-1{fill-rule:evenodd;}</style></defs><path class="cls-1" d="M277.44,281.28c7.56-24.36,15.48-48.6,23.52-72.72,3.84,13.44,7.44,26.88,10.92,40.2L319,277.2C304.2,275.4,290.4,276.72,277.44,281.28Zm24.72-87a11.93,11.93,0,0,0-2,4.92,1027.66,1027.66,0,0,0-39,106.92,381.43,381.43,0,0,1-16.8,44.52,183.5,183.5,0,0,0-14,46.32c.36,1.8,1.56,2.64,3.48,2.64a100.06,100.06,0,0,0,10.68-19.68,583.77,583.77,0,0,0,21-59l8-26.52A164.48,164.48,0,0,1,322,290.28c6.36,27.24,12.36,54.72,17.76,82.44a103.08,103.08,0,0,0,10.92,30.48,3.39,3.39,0,0,0,2-3.48,203.61,203.61,0,0,0-10.08-50A326.14,326.14,0,0,1,333.84,318l-6.48-28.8a12.6,12.6,0,0,0,1-4.2,9.84,9.84,0,0,0-1.44-5.76l-.6-.48-1.56-.36q-9.9-41.58-20.64-82.44l-.84-.84Zm-73.32,5.52a354.56,354.56,0,0,0-56.16-6.36l-9.24.36L163,194l-.6.48-.72,1.2-.12-1.44c-.48-.12-.72-.12-.72.24q-5,63-9.12,126.36l-2.28,32.4a358.17,358.17,0,0,0-.6,48c4.2-5,6.36-11.52,6.6-19.44.6-19.68,1.68-39.48,3.12-59.28l1.8-32.64a189.09,189.09,0,0,1,41.52-8.52l.72-.84c2.88-4.2,2.64-8.28-.72-12.12a119.38,119.38,0,0,0-40.92,9.12q1.44-37.8.84-75.24l.12.36.24.84q34,3.24,67.32,8l1.2-4a11.77,11.77,0,0,0-.36-5.76l-.36-.84-.48-.72A.61.61,0,0,0,228.84,199.8Zm154.56,0v-6.6A100.86,100.86,0,0,0,379,217.8c-1.32,21.24-2.4,42.36-3.36,63.6l-.72,1.56a23.37,23.37,0,0,0-.48,5.76,12.55,12.55,0,0,0,.72,4.32c-.84,17.88-1.44,35.88-1.92,53.76A200.14,200.14,0,0,1,371,370.92c-1.92,12.36-.84,22.92,3.12,31.68A7.85,7.85,0,0,0,376.8,397l3.48-75.48,1.08-24.6a47.2,47.2,0,0,0,28.56.84c15.48-4.08,25.68-13.56,30.6-28.56q9.72-29.34-4.32-57.48c-7.08-14-19.44-21.36-36.84-21.72l-6.48,2.52a32.65,32.65,0,0,0-9.24,5.88Zm1.32,9.24q26.1-16.38,46.08,10.08c10,13.08,11.16,26.64,3.84,40.68-8.28,15.84-21.36,24-39.12,24.36a43.77,43.77,0,0,1-13.68-1.8l1.56-75.24Z" transform="translate(-148.27 -189.96)"/></svg>