<svg id="Layer_1" data-name="Layer 1" xmlns="http://www.w3.org/2000/svg" viewBox="0 0 561 593.84"><defs><style>.cls-1{fill-rule:evenodd;}</style></defs><path class="cls-1" d="M57.84,499.2a10.8,10.8,0,0,1,.36,3c0,7.08-.24,13-.6,17.64A100,100,0,0,1,55,536.76v37.32l16.44-.72a67.51,67.51,0,0,1,12-.12q11-1.26,14.4,2.16c1.08,1,1.56,2.52,1.56,4.8s-.48,3.72-1.56,4.32c-2.4,1.68-7.56,1.32-15.48-1l-10.92.72-15.6.84q-3.42-4.86-4.32-14.4c-.24-2.28-.36-7.2-.36-14.64,0-13.8.36-24,1.08-30.48a146.64,146.64,0,0,1,.24-15.12c.6-6.36,2-10.8,4.08-13.56Zm108.48-99.12,19-1,15-1.44v-.6l18,.24q-16.74-112.86-20-163.32-3.78,23.58-11.52,65.16-14,75.78-19.8,98.52ZM126.12,16.56a14.56,14.56,0,0,1,2.16,7.2,15,15,0,0,1-2.16,7.32H95.76L95,30.6c-14.4-.36-22.32-1.08-23.88-2.16l-27,.24a3.36,3.36,0,0,1-2.64,2.4l-3.12,62c-2.16,39.72-3.24,61.8-3.24,66.48l.24,16,.36-.24,54.12-3.72c0-.24.36-.36,1.2-.36h9a7.12,7.12,0,0,1,2.64,4.08,18.61,18.61,0,0,1,.6,4.08v2a8,8,0,0,1-1.2,3.6c-1.92,3.24-5.76,3.72-11.52,1.56l-4.68.72a27.12,27.12,0,0,0-4.68.84L65,189.24l-8.76,1.08-10.56.36L35.64,191c.36,27.48.48,62.52.6,104.88a57.11,57.11,0,0,1-1.08,11.28V382a296.46,296.46,0,0,1,0,43.8v45.48c-1.08,12.36-2.52,31.2-4.2,56.64-1.68,22.92-3.84,41.64-6.6,56.16-1.56-.36-2.64-1.8-3-4.32a44.18,44.18,0,0,1-.24-5.4q0-7.74,4-55.08,3.42-42.66,4.68-53.64V420.84a179.64,179.64,0,0,0,0-34.08V303.24q.9-4.86,1.08-5.76V175.08l-1.08-4.92V128c.6-7.68,1.08-17.28,1.32-28.68l.6-28.68A304.68,304.68,0,0,1,35.4,28.92a6.09,6.09,0,0,1-1.08-2.16l-.24-4.44a14.33,14.33,0,0,1,.6-4.92c1.2-2.76,4.08-4,8.64-3.84V13L72,13.2c1.44,1.08,9.6,1.92,24.6,2.76Zm29.76,3.24-4.56.12-4.56.48-2.52,31.32.36-.12L154.8,48c10-3.48,14.88-7.92,14.88-13.2,0-2-1.92-4.92-5.64-8.52A43.44,43.44,0,0,0,155.88,19.8Zm44.4,178.08c2.4,6.12,4.08,14,4.92,23.76l2,24.48q3.06,22.32,4.32,47.88c.84,13.68,2.16,29.64,4.2,47.88,1.32,11.76,3.24,27.72,5.88,47.88,1.8,13.56,7.8,49.08,18,106.8,9.48,52.68,14.16,81,14.16,85.2s-.84,7.32-2.64,9.84Q247.56,577,239,526.8c-6.12-35.4-12.24-72.6-18.12-111.6l-.48-3.24L201,412.8l-4.68.84-4.68.72-4.56.36-5.28.72-9.48.36-10.08.48c-5,20-11.4,46.08-19,77.88-9.48,37.56-18.72,69.36-28,95.28-1.44-2.16-2.16-5.16-2.16-8.88q0-5.94,20.64-83.52c16.44-61.92,26-98.16,28.56-108.84q9.36-38.88,19.56-96.24c7.32-42.72,13-74.28,16.68-94.8l1.32,1.08ZM177,101.52c-2-2.76-5.88-9.24-11.76-19.56-5.64-9.72-9.12-16.8-10.56-21l-6.36.72-5-.12c-1.8,18.6-3.24,31.2-4.44,37.8a11.84,11.84,0,0,1-2.4-4A10.19,10.19,0,0,1,135.6,92c0-6.36,1.32-21,4.08-43.92,1.56-13,2.76-22.68,3.84-29.16a28.56,28.56,0,0,1-.36-4.32,14.22,14.22,0,0,1,.6-3.84,4.45,4.45,0,0,1,1.32-2.16c11.76-.36,20,3.24,24.84,10.68A26.23,26.23,0,0,1,174,34.08c0,4.92-1.56,10.08-4.56,15.48a24.72,24.72,0,0,1-9.24,9.36l8.52,14.76c7.08,12.84,10.68,20.16,10.68,22.2C179.4,98.52,178.56,100.44,177,101.52Zm91.44-68.28-9.72-10.8c-5.16-5.4-9.48-8-13-8Q204.9,14.4,192.48,55a109.91,109.91,0,0,0-4.56,41.16c3-.36,10,.72,21,3.24,16.8-.24,25.56-.48,26.28-.6l1.2,2.28a9.69,9.69,0,0,1,.36,3,8.37,8.37,0,0,1-2.64,6.12h-25.8l-.48-.6-11.76-1.08-8-1.32-.12,7.2a268.74,268.74,0,0,0,2.4,31.56q6.3,44.1,28.32,44.16c14.76,0,25.2-6.36,31.32-19.2a48.91,48.91,0,0,0,4.92-21l.48-.48,1.2-1.08a19.51,19.51,0,0,1,1.92,9.24,37.46,37.46,0,0,1-1.56,9.24,66.92,66.92,0,0,1-5.28,14.76c-6.6,13.08-15.72,19.56-27.6,19.56q-29.7,0-37.56-50.16a242.4,242.4,0,0,1-2.64-35.52l.48-18c0-6.72,1-17.76,3-33.24C189.48,48,191.4,38.28,193,34.92c5.88-12.36,13.44-21.24,22.68-26.52a39.22,39.22,0,0,1,25.44-4.8,41.34,41.34,0,0,1,20.76,9.12c5.64,4.68,8.52,9.6,8.52,14.76l-.24,4.44-.6.48Zm21.12-21.36-1.08,14.4-1.08,16.8c0,4.44.48,19.32,1.56,44.4s1.68,51.48,1.68,79q0,53.82-.72,67a323.64,323.64,0,0,1-9.6,67.08c-1.32-.84-2.16-2.52-2.52-4.92-.12-.84-.12-2.88-.12-6.12,1.2-12.84,2.4-27.6,3.72-44q3.78-49.32,3.84-78.12c0-22.8-.6-46-1.68-69.36S282,56.4,282,43.08a137.79,137.79,0,0,1-.72-17c.24-10.8,2-18,5.52-21.48a10.7,10.7,0,0,1,2,3.24A12.19,12.19,0,0,1,289.56,11.88ZM524,407.4c8.52,2.76,16.44,4.92,23.64,6.72a52.53,52.53,0,0,1,14.52,10.8c4.68,4.68,8,9.48,9.84,14.16,2.64,6.6,5,15.84,7.08,27.72a171.08,171.08,0,0,1,3,29q0,32.76-10.44,52.2-16.74,31-61.92,41.76l-11.88,1.08-3.84-.12-1.44-.12-1.2,2a10.24,10.24,0,0,1-1.56-3,13.83,13.83,0,0,1-.36-3.6,121.21,121.21,0,0,1,4.32-31.2v-52.8c.6-9.48,1-21,1.08-34.44V432.72c0-14.88.48-25.56,1.44-32.16l1.68,1.56.84-.36c1.8-.6,4.8-.24,9.12.84Zm-22.92,9.48c-.12,4.68-.6,11.64-1.32,20.64l-.6,26.88-1.56,41.76v54.36c-.36,2.52-.84,6.24-1.2,11.4L499,567a8.74,8.74,0,0,1,1.92,5.28,13.23,13.23,0,0,1-1.08,6.12l11-.6q39.78-8.82,56.4-36.48c7.32-12.36,11-27.48,11-45.24,0-6.12-1.08-14.88-3.12-26-2-11.76-4.2-19.56-6.36-23.4a64.56,64.56,0,0,0-8.16-11.88,47.46,47.46,0,0,0-14.52-9.84,90.88,90.88,0,0,0-15.36-4.8l-16.44-3.6c-5.88-1.32-10.32-2.64-13.32-4.2ZM367.44,400.8c0,1.92-7.56,17.28-22.8,46.2l-2.88,5.64q12.6,24.66,32.64,75.84,21.24,54.18,21.24,59.28L395.4,593c-.6,2.64-2,4-4.08,4-.36,0-4.2-9-11.76-27-8-19.56-13.8-34.32-17.28-44.4-1.44-4.32-6.48-17.88-15.24-40.68l-9.12-24.84q-21.24,40.5-27.24,53.64l-.48-.36-1,23.28c-1.68,25.2-5,43.56-10,55-1.44-2.52-2.16-6-2.16-10.56,0-10.68,1.44-30.24,4.32-58.56l5.4-55.08V411.48a58.36,58.36,0,0,1,.72-8.16c.6-3.48,2.16-5.4,4.68-6a16.33,16.33,0,0,1,2.16,7.8q0,2.52-2.16,13.32v55.2c-.36,5.28-.72,12-1.08,20.28,2.16-5.4,5.52-12.6,10-21.36l13.32-25.2q7.74-18.54,13-28.44c6-11.4,12-20,17.88-25.92A16.33,16.33,0,0,1,367.44,400.8ZM472.68,298.32c4.44-.12,8.52,1.92,12.12,6a20.47,20.47,0,0,1,5.28,13.8l-.24,4.8-.6.48-1.08.84a78.54,78.54,0,0,0-4.32-7.92c-2.76-4.44-6-6.6-9.72-6.6-11.4,0-19.32,14.28-23.88,42.84-1.44,9-2.64,20.52-3.72,34.44l-1.92,26.28L442.8,434l1,1,4.56.24,5.16.48,8.76-.72,10,.24,1.2,2.28a6.8,6.8,0,0,1,.48,3A7,7,0,0,1,472,445.8l-5.16.36-5.64.72h-17.4l-1.92-.12-1.68,21.84c-2,28-3.12,44-3.12,48.24l.24,10.08a193.81,193.81,0,0,0,1.92,20.4c2.88,19.44,8,29.16,15.36,29.16l7.92-.24c4.2-5.16,7.44-12.24,9.72-21.36L474.72,544a75.83,75.83,0,0,1,2.88-10l1.08-.24a13,13,0,0,1,1.32,3.36l.36,3.6c0,9.48-1,17-2.88,22.56-2,6.12-6.72,14-13.92,24H453c-7.32-3-12.72-14.4-16.32-34.08a203.26,203.26,0,0,1-3.48-35.76c0-10.68,1.32-32.52,4.08-65.4l4.56-55.2,4.8-29.28c1.92-11.88,3.36-22.08,4.2-30.84,1.32-13.2,4.2-23.16,8.64-29.76C463.2,301.32,467.52,298.44,472.68,298.32ZM417.24,105.84q0,10.44-9.24,89.88-8.64,73.8-12.6,101.52l-.72.48-1.2.6Q383.4,269.7,367.56,208.2q-15.12-58.5-26.88-90-4.86,29.52-11.16,89.52-6.48,61.74-11,90.6A9.83,9.83,0,0,1,316,296a2.89,2.89,0,0,1-.48-1.8q0-10.26,9.36-88.08c4.68-38.76,8.88-71.52,12.36-98.52l.48-.48,1.08-1.08q16.56,34.2,30.72,87.72l11.28,44.28c4.44,17.4,8.64,32.16,12.48,44v.24L400,237.12c2.52-17.64,4.32-33,5.4-46.2.48-5.88.84-13.56,1.2-23.16l1.08-23.28c1.08-18.36,3.36-32.88,7-43.8a5.29,5.29,0,0,1,2,1.92A8.21,8.21,0,0,1,417.24,105.84ZM351.6,20.52c-3.48-2-5.52-3.36-6.36-4-10.2-5-18.48,2.64-24.84,23.16a172.34,172.34,0,0,0-5,22.92,107.39,107.39,0,0,0-1.44,13.08,18.5,18.5,0,0,0,3,10.32c2.88,4.44,7.32,6.72,13.2,6.72,6.84,0,15.72-4.92,26.52-14.88q1.08-8.64,1.08-10.44l-2.64.24-4.32.48-17.88-.24L332,66.6a14.57,14.57,0,0,1-.24-2.76l.12-2.4,1-1.68c13.8-4.08,22.56-4,26.4.24,1.92,2,2.52,4.8,1.68,8.16l-.72,7.8.48.84.24,2.64a13.34,13.34,0,0,1-1.44,4.8l-.24.48c-1.08,8.88-2,14.52-2.88,16.8a5.52,5.52,0,0,1-1.56-2.64,13.43,13.43,0,0,1-.36-3.48l.48-4.08-.36.36a28.38,28.38,0,0,1-22.32,10.08c-14.76,0-22.2-8.52-22.2-25.44,0-12.6,2.4-26.52,7.08-41.88,5.4-17.64,11.52-26.52,18.36-26.88,9,1.32,15.6,3,19.8,5.28,3.72,2,5.64,4.56,5.64,7.56a7.5,7.5,0,0,1-.48,3l-1.08,1.44C357.84,24.12,355.2,22.68,351.6,20.52ZM405.12,10C406,12.72,406.44,17,406.44,23s-.36,10.2-1.08,13V52.68l.6.84a6.32,6.32,0,0,1,.48,2.76l-.24,2.4L405.36,60V81.48c-.36,1.32-.84,4.68-1.68,10.08a45,45,0,0,1-2.16,10.2C399,100.68,397.8,98.4,397.8,95a47.83,47.83,0,0,1,4.32-19.32V60.6l-22.2,1.08-4.68-.48-.12,1.56c-1.56,16.92-2.4,29.16-2.52,36.6-1.32-1.32-1.92-3.72-1.92-7.32,0-6.36.48-17.28,1.56-32.64l-.12-.12a2.89,2.89,0,0,1-.48-1.8l.12-1a21.71,21.71,0,0,1,.24-3l.12-1.08h.48l.24-4.44c1.44-20.88,2.4-32.52,3-34.8.84,2.76,1.32,7.08,1.32,13.08,0,6.6-.36,15.12-1.08,25.8l3.84-.12,22.2.24V31.92c1.2-2.16,1.32-6.24.36-12.36C401.64,14.52,402.48,11.28,405.12,10ZM516,14.88a13.06,13.06,0,0,1,.84,5,17.85,17.85,0,0,1-.6,4.32,12.33,12.33,0,0,1-2,4l-50.64-.12q-18.54,279.54-37.68,372c-2.16-1.32-3.48-3.6-4.08-7.08l-.24-5.16c0-3.36,2.16-17.64,6.48-43,3.6-21.72,6.48-38.4,8.76-50l4-46.8,3.84-46.56c1.08-12.36,2.16-28,3.24-46.68l2.88-47c2-31.32,4.68-57.84,7.92-79.8l-36-.12a13.43,13.43,0,0,1-2.16-7.68,22.48,22.48,0,0,1,.24-4.32c.6-2,2.16-3.12,4.68-3.12l84.36-.24C512.76,11.4,514.8,12.12,516,14.88Z" transform="translate(-21.12 -3.16)"/></svg>