<svg id="Layer_1" data-name="Layer 1" xmlns="http://www.w3.org/2000/svg" viewBox="0 0 297.52 207.83"><defs><style>.cls-1{fill-rule:evenodd;}</style></defs><path class="cls-1" d="M282.24,274.32l-25.92,4.08,18.24-58.92Zm50.52-65.16,4.32,9.72a7.33,7.33,0,0,0,2.76-4.56,18.29,18.29,0,0,0-1.56-10.68,19.75,19.75,0,0,0-5.52-7c-16,1.08-26.64,10.2-31.8,27.6a84.32,84.32,0,0,0-.72,46.92c5.52,21,16.08,24,31.56,8.76,4.2-4.2,5.52-9.12,4-15-7.92,6.84-16.92,10.2-27,10l-5-22.68,23.88-8.4.36-6.48c-3.24-3.48-7.2-4.32-11.64-2.76l-12,4q.9-15.84,13.68-24.48A28.16,28.16,0,0,1,332.76,209.16Zm-58.92-12.48a147,147,0,0,0-10.8,28q-16.56,61.74-36.6,121.92a103.5,103.5,0,0,1-10.2,21.84c-7.32,11.64-8.4,22-3.24,30.72a55.57,55.57,0,0,0,7.56-13.92c11.64-31.08,22.2-62.64,31.92-94.44,10.68-1.32,21.36-2.28,31.92-2.88,2,12.36,4.2,24.84,6.72,37.44a416.6,416.6,0,0,1,6.6,47.16c1.08,12,4.68,22.44,10.68,31.2a3,3,0,0,0,2-3.12,585.31,585.31,0,0,0-11-74.16q-6.66-31.5-10.56-63.36a265.87,265.87,0,0,0-12.12-53.76A24.42,24.42,0,0,0,273.84,196.68Zm-52.56,2-17.76-2.28a108.44,108.44,0,0,0-41.88,3.72l-.12-3.72c-2.4,2.28-3.6,5.52-3.72,9.72-1.08,42.84-2.16,85.92-3,129.12a289.68,289.68,0,0,1-2.16,32.28c-1.32,12-.12,22.56,3.72,31.8a3.39,3.39,0,0,0,1.08-2.4c1.56-23.88,2.88-48,3.72-72.24l1-37,.48,1A232.8,232.8,0,0,0,205.08,285a4.64,4.64,0,0,0,1.44-2.28,13.68,13.68,0,0,0-.6-10.44l-1-.6-2.52-.48a198.48,198.48,0,0,0-40.2,7.8q.36-34-.36-67.68a279,279,0,0,1,56.76,2.16l2.64-.72.84-.6a14.05,14.05,0,0,0,1.2-10.56,6.46,6.46,0,0,0-1.2-2.4A.91.91,0,0,0,221.28,198.72ZM449.64,224c-3.48-18.36-14.52-26.4-33.24-24.12-15,1.56-26.76,8.76-35.28,21.48a129.54,129.54,0,0,0-17.4,36.84,213.45,213.45,0,0,0-8.52,46.56,352.79,352.79,0,0,0-.24,46.44c1.08,16.68,7.44,29.4,19,38.16,12.48,9.6,26.28,12.6,41.52,8.88a58.14,58.14,0,0,0,21.48-10.2l1.56,13.68c9.48-15.24,12.84-32.88,10.32-52.92l-1.32-12.24A39.35,39.35,0,0,0,424,346.8l.12,5.28,18.84-1.68L439.44,365c-12.6,12.84-27.84,18.6-45.72,17.52-16.68-1.2-26.64-10.56-29.88-28a161.49,161.49,0,0,1-2.52-37.32,241.13,241.13,0,0,1,5.4-39.24A156.93,156.93,0,0,1,382,236.64a47.91,47.91,0,0,1,21.72-20.76c12.6-6.36,25.08-6,37.2,1.08A41.23,41.23,0,0,1,449.64,224Z" transform="translate(-152.12 -195.85)"/></svg>