<svg id="Layer_1" data-name="Layer 1" xmlns="http://www.w3.org/2000/svg" viewBox="0 0 537.71 487.32"><defs><style>.cls-1{fill-rule:evenodd;}</style></defs><path class="cls-1" d="M63.6,415q-4.14,64.62-3.48,128.4,38.34-.18,75.72,1.56a10.59,10.59,0,0,0,.6-11.4c-23.88,0-48-1.08-72.6-3.24l.24-6.36c2.28-43.08,3.48-85.92,3.36-128.4A70.69,70.69,0,0,0,63.6,415Zm38.16-189.84c-13.56-5.88-25.44-4-35.52,5.76l4.68,2.28L66.48,286.8l-2.88-.48v8.88l2.16.36q-5.22,45.54-6.12,89.64l2-1.32,3.24-24.24-1.08-1.8,6.36-61.68a80.26,80.26,0,0,0,21.48-1q20.34,44.28,37.2,90a20.44,20.44,0,0,0,5.28,7.92,286.15,286.15,0,0,0-38.64-98.76C114.12,291.6,124,281,125,262.92S118.44,232.2,101.76,225.12Zm20.16,31.56,1.8,6.84c-7.32,14.64-19.8,22.8-37.56,24.6l-15.48-.72,2-54.48q25.38-7.2,42.48,11.16A30.51,30.51,0,0,1,121.92,256.68ZM144,68.16q-42.3-3.06-83.16-8.64l-2.28-.36-2.28-.48v.24c-.6.12-1.08.6-1.2,1.68a5.38,5.38,0,0,0,1,4.08h.12c-2.52,31.8-4.32,63.72-5.64,96-1.56,43.08-3.72,86-6.36,129.12-2.52,42.6-4.2,85.44-4.92,128.28-.36,21.36-1.2,42.72-2.4,64A330.87,330.87,0,0,0,39,546a717.5,717.5,0,0,0,5.16-101.16c-.72-43.32.24-86.28,3-129.12q3.42-52,5.88-104.28c25.08-2.52,50.52-4.2,76.08-5.28l.24-.72a9.65,9.65,0,0,0-1.08-9.84,329.68,329.68,0,0,0-74.76,8.16l.72-16.2q2.88-61.38,4.32-121.92l1.68.48A737.26,737.26,0,0,0,143.4,77.64a6,6,0,0,0,1.32-2A9.93,9.93,0,0,0,144,68.16Zm101.76,67.32Q257.46,198.66,267.6,262L271,283.32l-.36-.24q-35.82,4.14-71.28,11.28c8.52-34.2,15.48-68.64,21-103.56q8.28-53.28,19.2-105.48A421.07,421.07,0,0,0,245.76,135.48Zm-2-71a4.78,4.78,0,0,0-1.08-2.52,15.45,15.45,0,0,0-2.64,3.6l-.6-3.24c-.48-.12-.72-.12-.72.24l.12,5.4a25.6,25.6,0,0,0-1.56,5.4Q227,136,215.4,198.48q-11.52,62.1-29,123Q168.54,384.3,153.12,447c-5.16,20.76-9.6,41.64-13.56,62.64-2.28,11.88-1.68,22.2,1.68,31.2a12.71,12.71,0,0,0,2.52-6.48A699,699,0,0,1,161,439.68q16-61.92,32.64-123.84l3.84-14.28q37.08-2.52,75-7.68,7,47.16,12.84,94.56,5.58,47.16,9.72,94.44a397.69,397.69,0,0,0,10.08,62.88,1.52,1.52,0,0,0,.84-1.32,747.42,747.42,0,0,0-8.28-103.08q-9.36-63.18-17.52-126.6T260.88,188q-10.08-56.7-19.32-112.68l2.16-10.2Zm244.8,351.84,3.84,39.84c1.56,16.92,8.64,30,21.36,39.48,5.64,4.32,11.88,4.68,18.72,1.2a76.31,76.31,0,0,0,32.64-30.48A62.09,62.09,0,0,0,573.6,428a85.71,85.71,0,0,1-28.8,45.72,55.1,55.1,0,0,1-31.56,13A222.91,222.91,0,0,1,488,411ZM370.92,94q-12.06,64.62-22.68,129.24-10.44,63.9-19.08,128.16T317,478.32a218.37,218.37,0,0,0,5-28.8q5.22-43.38,10.56-86.64,8.1-64.44,18.36-128.52,10.26-63.9,22.08-127.44c-1.68,22.44-3,45.12-3.84,67.92a844.4,844.4,0,0,0,4.32,128,878.65,878.65,0,0,1,4.8,128.4,241.08,241.08,0,0,0,5.88,63.84,663.88,663.88,0,0,0,15.48-93.72l11.76-128.52L422.64,146.4l1.08,8.16q6.66,64.26,15.24,128.16,8.64,64.62,20.28,128.4a524.21,524.21,0,0,1,7.56,64.08c.6,12.24,3,22.68,7,31.32a315.52,315.52,0,0,0-4.8-77q-11.7-63.9-21.48-128.4-9.54-63.9-17.16-128.16a439.1,439.1,0,0,1-2.88-64.08c.36-12.48-1.8-22.92-6.48-31.44a9.73,9.73,0,0,0-1.32,4.92q-1.26,64.8-6.6,129.12c-3.6,42.84-7.44,85.68-11.52,128.28s-9.72,84.84-17,126.48c.12-23.64-.12-47.16-1-70.56-1.44-43.08-4.2-85.8-8.16-128.4a437.23,437.23,0,0,1-1.32-64q3.24-64.44,2.88-127.56A66.48,66.48,0,0,0,370.92,94Zm197.4,3.12,3.12,3.84c-3-17.88-13.68-25.44-31.92-22.56-16.08,2.52-27.36,11.52-34,26.88a390,390,0,0,0-15.48,43,257.66,257.66,0,0,0-9,45c-1.08,10.68-2,21.24-2.76,31.92s-1,21.12-1.08,31.8,0,21.24.36,31.92,1,21.24,1.8,31.8,1.68,21.36,2.76,32l3.24,31.8.6,6c-.48-8.64-.48-17.4-.12-26.4a335.9,335.9,0,0,0-1.2-47.88c-1-10.2-1.8-20.52-2.4-30.84l41.28,4,3.24-3.24-.12-7-44.76-1.56q-8.64-92.34,33.36-171c9.24-17.16,22.44-23.28,39.6-18.12A27.24,27.24,0,0,1,568.32,97.08Z" transform="translate(-36.2 -58.68)"/></svg>