<svg id="Layer_1" data-name="Layer 1" xmlns="http://www.w3.org/2000/svg" viewBox="0 0 298.3 210.4"><defs><style>.cls-1{fill-rule:evenodd;}</style></defs><path class="cls-1" d="M263.4,288,284,214.44l13,67.8ZM151.56,211.32q-.72,64.08-3.36,128.28a412.38,412.38,0,0,0,2.28,63.84,82.43,82.43,0,0,0,4.56-29q-.18-24.48.72-49.32l1-29.28a152.7,152.7,0,0,0,33.48-1.92l.6-1a10.15,10.15,0,0,0-.84-11.28,70.07,70.07,0,0,0-33.12,4.56q.54-44.82-1.8-89.52C152.76,200.64,151.68,205.44,151.56,211.32ZM283,200.4a43.7,43.7,0,0,0-7.2,15.24q-16.2,61.56-33.72,122a78.17,78.17,0,0,1-5.88,14.52c-8.28,15.72-11.88,31.44-10.56,47.16a220.21,220.21,0,0,0,19.8-48.12l15.12-53.16a78.78,78.78,0,0,0,38.76-2.76L308,343a263.31,263.31,0,0,0,19.32,61.32,6.06,6.06,0,0,0,1.8-5.52q-6.66-38.7-15.12-77.64-13.86-62.64-28.92-123.84a1.62,1.62,0,0,0-1.08.6ZM208.32,202A280.88,280.88,0,0,0,158,199.2c-1.92,1.32-2.76,3.36-2.52,6.24l.24,2.28.48,2.52.48.84a1,1,0,0,0,.72.36l51.24,2.28a9.39,9.39,0,0,0,1.8-7.2l-.12-1a7.24,7.24,0,0,0-.72-2.28l-.48-.84A.91.91,0,0,0,208.32,202Zm145.92,17.28Q362,197.1,336.6,195.12q-34.38,41.22-19.08,94a21.49,21.49,0,0,0,6.36,10.44c20.88.12,30.48-9.72,28.92-29.76-5.88,11-15,16.32-27.6,16l-3.72-2.28-1.32-29.64c20.28,6.36,29.52,1.68,27.84-14l-27,4.08c-1.2-22,7.92-33.84,27.48-35.52L353,213Zm58,69.84c15.84,4.92,25,16.56,27.48,34.92,2.16,16.32-1.8,31-12,43.92-7,9-16.44,14.16-28.44,15.72a88.07,88.07,0,0,1-22.44.48l.36-88.08C390.12,300.12,401.76,297.84,412.2,289.08ZM377.28,208.2l2.76-1.08q25.2-10.62,39.24,14.4,12.42,22.14-1.8,43.56c-8.52,12.84-20.64,18.84-36.48,18l-3.12-3.6L374.76,196a950.16,950.16,0,0,0-3.12,188.4,11.55,11.55,0,0,0-3.36,11.16,8.11,8.11,0,0,0,4.44,6l.36,2.16.24-.24.24-.12c30.6,4.68,51.84-6.12,64-32.16q16.92-36.36.72-72.84a36.79,36.79,0,0,0-16.92-18.24c12.6-17,15.72-35.76,9.12-56.16-7.08-22.32-22-32.16-44.4-29.52C377.28,195.48,374.4,200.16,377.28,208.2Z" transform="translate(-147.86 -193.98)"/></svg>