<svg id="Layer_1" data-name="Layer 1" xmlns="http://www.w3.org/2000/svg" viewBox="0 0 448.19 461.29"><defs><style>.cls-1{fill-rule:evenodd;}</style></defs><path class="cls-1" d="M221.28,294.48,251.16,124.8,266,290.52ZM104.4,282a185.5,185.5,0,0,0-7.2,47.88Q95.58,394,92.52,458.16a200.86,200.86,0,0,1-2.52,24q-2.34,15.66,1.8,28.8l1,2.64.36,1.08,1.32-.72,60,2.28a11,11,0,0,0,2.28-9.72l-.36-1.68A9.15,9.15,0,0,0,154,500l-.84.24a59.75,59.75,0,0,1-30.84-1.56l-2.16.12a98,98,0,0,0-23.88,3.24c2.52-30.6,4.56-61.2,6.36-91.8Q106.38,345.48,104.4,282ZM256.2,82.8l-3.48-6.48Q232,169.2,218.64,267.72l-4,28-1,1A1332.71,1332.71,0,0,1,180,494.4l-.48,2.28-.36,2.16-.24,2.16-.24,4.2.12,3.84a36.06,36.06,0,0,0,3.84,14,1405.44,1405.44,0,0,0,34.44-198c.6-6.36,1.44-12.72,2.4-19.08l48.24-.48q9.36,106.38,23.52,211.2a9.92,9.92,0,0,0,2,4.44,1468.93,1468.93,0,0,0-19.2-228.48c-1.08-6.6-2-13.32-2.76-20l-2-20.16-2-20.28L265.32,212l-2.76-31.32-7.92-94Zm-75-10c-35.16,0-70.2.84-104.88,2.4a10,10,0,0,0,.84,10.08c-3.24,36.6-5.4,73.8-6.48,111.36q-1.62,64.08-5,128.16Q62.22,389.1,61.32,454c-.12,10.92-.36,21.84-.72,32.52-.48,12.12,1.32,22.8,5.4,32.16a3.68,3.68,0,0,0,2.76-3.72c1.2-17.64,1.68-35.16,1.44-52.8q-1.08-64.44,2.4-128.28l4.56-94a275.1,275.1,0,0,0,71.64.36l.6-.6c3.24-6.12,2.4-11-2.28-14.76A528.82,528.82,0,0,0,77.64,230l1-25.2c1.56-40,1.68-79.68.24-118.92A766.7,766.7,0,0,0,181.2,87.36l.72-.84Q185.88,79.32,181.2,72.84Zm250.08,10.8A211.5,211.5,0,0,0,399,143q-21.78,61-47.52,120.36a115.31,115.31,0,0,1-18,28.68,52,52,0,0,0-6.24,8.88q1.44-47.34,5.4-94.56l5.28-64A523.87,523.87,0,0,0,339,78.24,27.28,27.28,0,0,0,334.56,92q-4.68,64.08-8.88,128.28-4.32,63.9-5.64,128.16a1050.39,1050.39,0,0,1-8.16,112q-4.14,33.48,1.92,64a2.85,2.85,0,0,0,1.08-1.44C317,503,319,483.12,320.52,463.08c3.48-42.6,5.4-85.32,6-128.4l.12-6.12.84-1.08a608.82,608.82,0,0,0,29.88-55.92q2.34,36.54,7.32,73.08,9,63.54,20.64,126.48a203.31,203.31,0,0,1,3.6,31.68c.6,12.24,3.6,22.44,9.12,30.48a36.06,36.06,0,0,0,2.88-23q-11.34-62.64-20.4-125.64c-5.88-40.44-12.6-80.52-19.92-120q12.06-26.28,21.72-53.76A872.19,872.19,0,0,1,433.2,94.2l.24-.84A8.67,8.67,0,0,0,431.28,83.64Zm30,15.84a110.94,110.94,0,0,0-16.92,31.8A459.25,459.25,0,0,0,420.12,260q-2.7,63.36-4.2,127.44a501,501,0,0,0,8,102.36c3.12,17.28,10.68,31,22.8,41l1.32,1.32.84.72,1.32,1c16,1.68,27.84-5.16,35.52-20.4a93.56,93.56,0,0,1,10.92-17c11.4-14,14.76-28.2,9.84-42.72a6.25,6.25,0,0,0-1.68,1.92,24.78,24.78,0,0,1-3.72,5.16l-.24.12h-.24L499,463.08l.6,1.44.24,1v.72a336.43,336.43,0,0,0-17.64,31.32c-6.6,13.2-16.68,19.44-30.36,18.72a23.37,23.37,0,0,1-5.16-5.16c-12.6-18.36-19.92-39.24-22-62.4a849.23,849.23,0,0,1-3-95.76c.36-16.08,1.08-32,2-48a141.13,141.13,0,0,0,41.4-.72l.6-1c3.24-6.24,2.4-11.28-2.52-15-13.08,1.56-26,3.6-38.88,6.36,1.56-23.16,3.84-46.08,6.6-69a412.42,412.42,0,0,1,25.8-101.52,24.81,24.81,0,0,1,8.64-11.4c16.32-12.12,29.28-10.2,39,5.52l.6-.84q2-28.08-31-27A27,27,0,0,0,461.28,99.48Z" transform="translate(-60.52 -72.84)"/></svg>