<svg id="Layer_1" data-name="Layer 1" xmlns="http://www.w3.org/2000/svg" viewBox="0 0 295.46 208.92"><defs><style>.cls-1{fill-rule:evenodd;}</style></defs><path class="cls-1" d="M281.28,198.48c-29.4,18.84-46.8,46.2-52.2,82.32a338.14,338.14,0,0,0-3.72,43.08q-1.08,38.16,25.2,62.52a18.4,18.4,0,0,0,11.4,5q43.2,3.06,67.8-31.32a19.14,19.14,0,0,1,1.44-3.24,18.65,18.65,0,0,0,2-14.76c-.6-2.4-1.92-3.84-4.2-4.2a4.45,4.45,0,0,0-2,1.56L326,342l-.24,1.56-.36.84-.24.84a57.12,57.12,0,0,1-21.6,21.48c-14.76,8.52-30.12,10.56-46,5.88a18.94,18.94,0,0,1-13-11.52Q231.18,328,235,294.84l52.32-8.28.48-.84a13.48,13.48,0,0,0-1.56-13,148.06,148.06,0,0,0-49.2,9.48,149.64,149.64,0,0,1,11.16-33.12,66.44,66.44,0,0,1,24.72-28.8q32.58-21.42,61.8,3.48l.24-.72C330.48,201.36,315.6,192,290,194.88A25.11,25.11,0,0,0,281.28,198.48Zm-64.56-2.88-58.32-1.68a11.85,11.85,0,0,0-2.16,6.24q-6.12,91.62-8.52,183.48a29.53,29.53,0,0,0,.72,7.92l.84,3.84,2.28,7.44a294.67,294.67,0,0,0,5.16-53.28,571.72,571.72,0,0,1,3.12-57.24l43.44-.12a12.16,12.16,0,0,0,2.28-6.6,18,18,0,0,0-.36-3.48,12,12,0,0,0-1.2-3.48l-1.08-1.8-42.36,2.76-.36-73.68a186,186,0,0,0,56.52,1.92Zm220.8,55.68c1.8,9.6-1.56,16.8-9.84,21.48a116.22,116.22,0,0,1-54.24,14.88q-.54-38.52-2.16-76.32c18.12-4,34.32-.24,48.84,11A45.65,45.65,0,0,1,437.52,251.28Zm-67.68-53.64a865.73,865.73,0,0,0-4.08,111.84A275.21,275.21,0,0,1,360.12,374c-2.16,10.2-.6,18.12,4.56,23.64a298.36,298.36,0,0,0,8.88-71.4V302.16a125.93,125.93,0,0,0,46.56-8.4,29.88,29.88,0,0,0,14.76-12q11.7-18.36,6.84-40.68c-6.36-28.8-24.72-43.44-55.32-44-2.76.6-5.76,1.32-9,2.28l-4.56,1-.6.48-.72.84-.6.72-.24-5C370.08,197.4,369.84,197.52,369.84,197.64Z" transform="translate(-147.69 -193.92)"/></svg>