<svg id="Layer_1" data-name="Layer 1" xmlns="http://www.w3.org/2000/svg" xmlns:xlink="http://www.w3.org/1999/xlink" viewBox="0 0 562.92 598.32"><defs><style>.cls-1{fill:none;}.cls-2{clip-path:url(#clip-path);}.cls-3{fill-rule:evenodd;}</style><clipPath id="clip-path" transform="translate(-25.44 3.48)"><rect class="cls-1" x="25.44" width="563.04" height="594.96"/></clipPath></defs><g class="cls-2"><path class="cls-3" d="M390.6,534.48c0,3-.84,10.68-2.52,23.16A31.61,31.61,0,0,0,398.16,556l.12-.84.12-.24.36-.36.48,1.08a23.7,23.7,0,0,0,6.12-4.08q4.68-4.5,4.68-9c0-2.76-1.68-5.4-5.16-8.16a16.61,16.61,0,0,0-14.4-3.12Zm-.72-7.56.12-.48c8.76-1,14.88.72,18.6,5q3.6,4.32,3.6,11.16c0,2.76-1.32,5.76-3.84,9a78.27,78.27,0,0,1-7.2,7.32c2.52,4.92,4.56,8.88,5.88,12.12,3,7.08,4.8,13.44,5.16,19.2l-.36.48-.72.84c-6.84-14.76-10.92-24.84-12.36-30.48l-2.76,2.4-8.64-.12c-2.28,16.44-4.44,27-6.24,31.44A5.57,5.57,0,0,1,379,590l4.68-26.52.12-.24h-.24l-.36-.72a9.2,9.2,0,0,1-.12-2.16,7.88,7.88,0,0,1,.24-2.28l.84-.6.6.12c2.52-14.88,3.84-25,4-30.12h1.08l.12.12Zm-55.2-.6,7.32-.48,15.36-1.08c-.36-4.92-.72-11-1-18.6-.48-11.64-.72-19.92-.72-25.08l-.12-1.44-4.08,9-14,31.08Zm-10.08,7.2a8.85,8.85,0,0,1-.36-3.36,15.28,15.28,0,0,1,.24-2.64l.12-.6,4.08-.24q18.54-42.84,26.76-55.56a4.39,4.39,0,0,1,1.92-2.64c.48,5.52,1.08,15.36,1.8,29.64.6,11.16,1.2,20.28,1.92,27.12l.24.6.36,2.76a7.7,7.7,0,0,0,.6,2.4,1.15,1.15,0,0,1-.36,1.2c.84,5.64,2.76,15.36,5.64,29.16,3.48,16.44,5.16,25.2,5.16,26.16l-.24,2.64L371.4,592c-3.6-7.08-6.36-16.08-8.28-27.12-1.8-12.6-3.24-22-4.44-28.08l-.6-3.6L331.2,534c-10.68,24.72-17.4,42.84-20.4,54.36l-.6.48-.84,1a10,10,0,0,1-2.16-1.56,5.4,5.4,0,0,1-.48-2.76c0-4.92,6.36-22.2,19-51.84ZM75.24,407.76c0,6.48-.72,22.2-2.16,47.28q-2.34,43-4.32,55.44v6.24l9.12-.84,23.4.84c10.2-.12,16.32.36,18.6,1.32a2.14,2.14,0,0,1,1.68,1.8v2.52l.36,3.48c0,.72-.6,1.2-1.68,1.44H94.92a8.69,8.69,0,0,0,4.8-1.92L89,525.6l-11.16.6c-6.6,1.8-10.92,1.68-12.72-.6a4.21,4.21,0,0,1-.84-2.76l.12-1.56q0-9.54,2.16-30.6c1.44-14,2.16-24.72,2.16-31.92,0-6.48.72-16.8,2.16-30.84l-1.08-16.8c0-6.6,1.32-11.16,4.08-13.44C74.76,399.84,75.24,403.2,75.24,407.76ZM88.8,24.84l.12,3C88.92,35,87,55.2,83,88.32L87.6,89,95,90.12c16.92,0,29.28-5.28,37.08-16,4.92-6.6,7.32-13.56,7.32-20.76,0-7.56-3-13.92-9.12-19.08C121.56,27,107.76,23.76,88.8,24.84Zm6.48-6.6c5.88-.6,12.12.24,19,2.28a42.7,42.7,0,0,1,18.84,11.16,31.5,31.5,0,0,1,8.52,22.2,46.6,46.6,0,0,1-7.8,25.92,39.53,39.53,0,0,1-23.16,16.56,56.77,56.77,0,0,1,6.48,19l2.16,13.56a57.77,57.77,0,0,0,4,13.44l11,24.12c6.72,15.36,10.08,25,10.08,28.68l-.24,2.88L143,199.92q-7-14.22-22.32-55.32c-9-24.36-14.28-40-15.72-47l-10,.72q-8.82,0-13-1.44L80.4,110.52q-8.82,72-13,88.68H66a32.19,32.19,0,0,1-.24-4.08q0-1.26,5.76-37.44,5.94-38.52,7.2-51.12l.84-11-.24-.24a2.5,2.5,0,0,1-.84-2.16L78.72,92A14.15,14.15,0,0,1,79,89.4v-.6l-.36-.48Q78.42,88,80,88h.12l2-25.8C83.52,46.92,85,34.32,86.76,24.6V22.8a2.63,2.63,0,0,1,.84-2l.24-1,.24.6Q90.06,18.78,95.28,18.24Zm15-4.68L99.12,13.2l-11.64-.72-5,.24-5.64.48c-22,1.44-37.32,3-46.2,4.56v51Q33.3,97.2,33.84,122c.12,5.76.24,22.44.24,50.16,0,10.92-.12,24.36-.48,40.2l10.68-.84,11.16-1.08,1.56-.24,7.92-.84v-.48q17.64-.18,22.32,1.8c1.08.48,1.8,1.08,1.92,1.8v1.8l-.24,2.4-1.08,1.68-7.44-.6-7.56.24-7.92.6-4.08.36-4.56.72-9,.72-3.48.36-10.44-.24-.72,26Q31,293.94,31.08,324.24v68.28l1.08,3.24v66.48L32,463l.12,2.16c0,1.08-.12,1.68-.48,1.68l-.6-.48v52a200.26,200.26,0,0,1,.36,34.08,344.33,344.33,0,0,1-4.08,34.2c-1-1.32-1.56-4.08-1.8-8.16-.12-1.44-.12-4.32-.12-8.52l1-18.6c.6-12.6,1-22,1-28.08V461.52l1.08-3.24V408.72l-.6.6c-.36.12-.48-.36-.48-1.44l.36-5.16a23.19,23.19,0,0,0-.36-6.12V324.24q0-36.72,1.8-79.68l1-27-.12-.84.12-1.32q.72-24.48.72-43.56V123.12l-1.56-21.6C28.2,88.2,27.6,79.44,27.6,75.24c0-3.24.12-5.76.24-7.32V16.68A14.15,14.15,0,0,1,27.6,14a12.84,12.84,0,0,1,.24-3H28c.36-1.08.84-1.56,1.44-1.56A21.35,21.35,0,0,1,32.64,8c6.6-2.16,21.6-3.72,45.24-4.56V3l10.68.84,22.8,1.08c7.44.36,12.24,1.32,14.28,2.76,1,.6,1.44,1.92,1.44,3.72a5.69,5.69,0,0,1-.48,2.76L125.4,16l-4.2-1ZM256.44,87.12a54.55,54.55,0,0,1,7.8,13.56,32.22,32.22,0,0,1,2.4,10.8l-.24,9.72-.48.48-.84,1a34.3,34.3,0,0,0-1.56-9.12,53,53,0,0,0-6.12-14c-7.8-12.36-19.56-18.6-35.16-18.6-19.08,0-35,17.4-48.12,52.08A275.87,275.87,0,0,0,163.44,170c-2.28,10.2-3.36,16.8-3.36,19.68l-6.36,69.48-1.32,15.72L169,273.6c3.12-.36,5.16-.72,6.24-1.32l29.16-.48c1.08-.6,4.08-.84,8.76-.84,3,0,4.92,1,5.88,2.76a7.4,7.4,0,0,1,.6,3.24q0,3.6-1.08,5a3.93,3.93,0,0,1-3.12,1.08l-5-.24a22.93,22.93,0,0,0-7.08.84l-28.32.6-23.52,2q-4.14,53.28-4.08,76.56a94.07,94.07,0,0,0,1.08,16.56v48l4.2,38.88c1.68,15.72,4.08,28.68,7.08,39a123.53,123.53,0,0,0,19,38.16q14.76,19.8,39.84,36.48h14A115,115,0,0,0,262,555.6c3.48-4.08,9.72-12.6,18.48-25.44a12.16,12.16,0,0,1,2.16,7.2c0,7.56-5.52,17.52-16.68,29.88A141.51,141.51,0,0,1,233,594.36H219q-41.4-17.46-61.68-82.08A315.92,315.92,0,0,1,146.4,464a249.93,249.93,0,0,1-2.88-32V383.28c-.72-4.32-1.08-11.16-1.08-20.64a1113.45,1113.45,0,0,1,10.08-148.92c5.64-41.88,13.44-74.64,23.16-98.52q18.18-44.46,45-44.52C235.56,70.68,247.44,76.2,256.44,87.12Zm-1.8-50.64c-1.32,18.12-2.64,28.8-3.72,32-.6-.72-1.32-3-2.28-6.84a40.85,40.85,0,0,1-1.44-7.56c0-5.16.72-14.52,2-28.2,1.68-16.56,3.48-26.4,5.28-29.4a13.43,13.43,0,0,1,2.16,7.68C256.68,9.24,256,20,254.64,36.48ZM437.4,334c0,2.4-.6,9.72-1.68,22.08-1.2,12.6-2,20.16-2.64,22.92v10.32l2.4-.6,3.84-.48,14,.6,25.2,1.56.72,1.08a7,7,0,0,1,.36,2.52,7.3,7.3,0,0,1-.36,2.64l-1,1.08c-9.12-.12-16.32-.72-21.6-1.92-2.64-.6-10.2,0-22.8,1.56-1.68-.84-2.76-2.76-3.24-5.88a37.54,37.54,0,0,1-.36-6.12q0-11,1.08-25.2c1.08-15.84,2.64-26.64,4.92-32.28A14,14,0,0,1,437.4,334Zm-52.2-35.64a32.72,32.72,0,0,1-6.72,20.28c-7.08,9.24-19,13.8-35.52,13.8l-4.8-.48H338l-3.24-.6,1.08-2.76,1.08-2.88h.12l3.72-24.12c2.88-17.76,4.44-30.48,4.56-38h1.08c.6,1.68.84,4.32.84,8A235.65,235.65,0,0,1,345,302a196.41,196.41,0,0,1-4,22.8c16.32-3.6,27.36-7.2,33.24-10.68s8.76-8.88,8.76-15.84a33.63,33.63,0,0,0-5.4-18.84c-5.88-9.24-15.84-13.2-29.76-12l-.48-.36a6,6,0,0,1-.12-1.92,4.58,4.58,0,0,1,.36-2.28l.72-.48c16.32-.36,27.24,4.2,32.76,13.92C383.88,281.28,385.2,288.6,385.2,298.32ZM384.48,40.8l-1.2,1.92q-1.44-1.08-4.68-6.84A69.21,69.21,0,0,0,371.52,25c-8-9.6-19.44-14.4-34-14.4-18.12,0-30.84,10.8-38.16,32.28a136.81,136.81,0,0,0-5.52,24.84c-.6,4.92-1.2,10.56-1.8,16.8l-6.24,38.16-6.48,38.88c-1.56,10.44-3.24,29.16-4.92,56.16l3.6.12h72.48c1.32.36,2.4,1.68,3,3.84a13.54,13.54,0,0,1,.48,3.6c0,2.88-.36,4.68-1.2,5.28-1.08.72-3.72,1.08-8.16,1.08l-26.88-1.08-40,.36a7.75,7.75,0,0,1-4.08,0l-.24,3.24q-2.7,51.84-2.76,81.48l.12,24a416.36,416.36,0,0,0,4.2,49.2Q285.66,459,317.28,459c15.72,0,30-6.24,43-18.6a90.61,90.61,0,0,0,17.4-22.8c2.64-5.16,5-12.6,7.08-22.56C387,383.64,388.8,376.2,390,373c1.8,1.08,2.76,3.48,3.12,7l.12,8.16c0,9.72-2.28,19.92-6.72,30.6A108,108,0,0,1,369.84,446a98.77,98.77,0,0,1-21.36,19.8c-7.68,5-14.52,7.56-20.64,7.56q-34.38,0-46.08-26.28c-2.64-6.12-4.92-14.52-6.72-25.2-1.8-11.88-3.24-20.52-4.32-26.16a249.05,249.05,0,0,1-4.44-40.2c-.36-6.72-.48-19.92-.48-39.72q0-47.7,2.64-95.76c2.28-40.56,5.4-69.6,9.6-87.24,5-25.32,10.92-55.68,17.52-90.84,3.24-16.32,9.72-28.08,19.68-35.4,8.52-6.24,18.6-8.4,30-6.6a49.66,49.66,0,0,1,27.6,13.2c8,7.44,12.12,15.72,12.12,24.72A6.56,6.56,0,0,1,384.48,40.8ZM467.4,8.4l11.16.48L479.64,11l.24,2.76c0,.36-10,13.56-30,39.48C428,81.48,411.12,103,399,117.48l-.24.24,6.12-1.08,5.16-.84,16.56.24,15.24,2.88,21.24,1.8,14.4.48,1.08,2,.24,2.88-.24,2.88-1.08,1.92c-.6,0-1-.12-1.08-.48l-7-.36-7.44-.72-12.84-.72-5-1.2c-5.76-.72-8.76-1.2-9.12-1.56l-4.2-.36-4.44-.72a154.57,154.57,0,0,0-23.76,1.56c-3.36.48-7.32,1.32-12,2.4a4.67,4.67,0,0,1-2.16-1.68,6.26,6.26,0,0,1-.6-3q0-2.88,31.68-44.52L467.4,17.28l-1.08-.72-9-.36L448,15.48l-40.56-.84-.84-1.2a10.92,10.92,0,0,1-.24-2.52,11.37,11.37,0,0,1,.24-2.64l1.32-1.56c12.36,0,18.48-.12,18.48-.24L449,7.32Zm99.12,167.28a13.38,13.38,0,0,1-.36,3.24l-1.08,2.4c-1.56-1.8-3.12-4.92-4.8-9.24a32.52,32.52,0,0,0-5.4-9.72c-6.6-7.68-21.36-13.08-44.16-16.2-16.08,1.32-28.2,8.16-36.24,20.52-5.64,8.52-8.4,17.16-8.4,25.8q0,23.58,17.16,56.52c4.2,8,10.08,18.12,17.64,30.48L521,312.36q25.56,42.3,37.8,75.12C570.24,418.08,576,448.8,576,479.4a261,261,0,0,1-2,30.36c-1.8,14-4.08,23.64-7,28.8a108.73,108.73,0,0,1-9.72,14,177.83,177.83,0,0,1-16.8,18.48c-16.08,15.36-30.36,23-42.72,23q-53.46,0-67.32-35.52a63.38,63.38,0,0,1-4.32-24.72l1-12.12c0-13.08,2-19.68,6.24-19.68.48,0,1.08-.6,1.92-1.8l2.4-3.84h.84l-3.6,12.72c-1.92,7.32-2.88,11.4-2.88,12.36,0,4.68.12,8.28.24,10.68a83.28,83.28,0,0,0,4.08,20.16q10.08,28.44,39.24,28.44c21.24,0,38.76-4.56,52.68-13.68,10.44-7,21.84-19,34-36.12,3.36-4.68,5.76-13.2,7.32-25.44a201.16,201.16,0,0,0,1.56-26q0-42.3-17-86c-7.8-20-20.16-44.4-37.32-73.2l-20-33.24c-7.32-12.48-13.08-23.16-17.4-32.16q-17.1-35.1-17-63a63.84,63.84,0,0,1,8.64-32.64c8.76-15,22.32-22.56,40.92-22.8,17-1.92,31.08,3.12,42.12,15a53.65,53.65,0,0,1,9.6,14.16C565.56,169.8,566.52,173.16,566.52,175.68Zm18.6-154.8-1,.36-2.76.36c-4,0-9.12-1.44-15.24-4.2a75.64,75.64,0,0,0-20.76-6.6q-38.34,2.34-56,29.52A72.15,72.15,0,0,0,480,62l-.36,1.44c4-1,10.68-1.68,20.28-2.28v-.6l17,.6,14.4,1.08,18.6.48,1.08,1.8.24,2.64a7.5,7.5,0,0,1-.48,3l-1.08,1.56-9.6-.24-10-.6L519.6,70.2,515,69.6l-8.76.12-7.44.6-13.32,1-7.2,1h-.24a56,56,0,0,0-.36,6.24A48.5,48.5,0,0,0,479.4,90a57.76,57.76,0,0,0,6.48,14.64c7.8,12.12,19.08,18.12,34.08,18.24l28.92-.24a67.62,67.62,0,0,0,22.92-10.92c6.72-4.92,10.32-9.6,10.92-14a18,18,0,0,1,4.08-3L588,97.2a12.08,12.08,0,0,1,.36,3.24c0,5.16-4.44,11.4-13.32,18.48s-17.64,11.52-26.4,13.44L520,132c-18.6-1.8-31.56-9.48-38.88-23.16-4.44-8.28-6.6-18.36-6.6-30.48,0-2.88.12-5.64.36-8.4l-.12-1.68a6.35,6.35,0,0,1,0-2.16,2.52,2.52,0,0,1,.72-1,78.69,78.69,0,0,1,10.92-30.6Q504.9,4.5,546.48,3.24c5-.24,12.84,1.68,23.28,5.76s15.72,7.2,15.72,9.36Q585.48,21.06,585.12,20.88Z" transform="translate(-25.44 3.48)"/></g></svg>