<svg id="Layer_1" data-name="Layer 1" xmlns="http://www.w3.org/2000/svg" viewBox="0 0 378.86 402.84"><defs><style>.cls-1{fill-rule:evenodd;}</style></defs><path class="cls-1" d="M102.84,370.2a451.79,451.79,0,0,1-.24,52.56,346.21,346.21,0,0,0,.72,57L162.84,477a15.9,15.9,0,0,0-.24-13.8l-55.2.84v-.84a491.72,491.72,0,0,0-1.08-109.56A29.65,29.65,0,0,0,102.84,370.2Zm7.92-104.76.36-32.88c16.32-4,27.48,1.32,33.6,16.08-6.84,12.72-17.4,18.48-31.92,17.16Zm37.56-25.2A20.51,20.51,0,0,0,138.24,225a22.71,22.71,0,0,0-4.2-2,58.12,58.12,0,0,0-12.84-2.64l-10.32,1.32-2.64,1.92.24,7.8A368.22,368.22,0,0,0,103,340.44a3,3,0,0,0,1,1.68l6.24-63.24,16.68.24q9.18,35.28,29.4,58.32a172.66,172.66,0,0,0-24-60c10.56-6.36,16.08-15.84,16.56-28.68A40.18,40.18,0,0,0,148.32,240.24Zm4.2-148.8A483,483,0,0,1,88,86a3.59,3.59,0,0,0-1.2.48,6.85,6.85,0,0,0-1.68,1.56l-.24.6a9.26,9.26,0,0,0,0,4.44q-4.5,46.26-6.6,93.6-2.88,64.44-4.08,129.12Q72.9,380.1,70.2,444c-.24,7.2-.84,11-1.68,11.64-1.8,9.6-.48,18.12,4,25.68a8.74,8.74,0,0,0,3.12-6.72c1.56-43,2.52-85.92,3.12-129s2.52-85.68,6-128.28l.84-10.8,2.16.48a238,238,0,0,1,48.84,1.68,14.51,14.51,0,0,0,1.92-4.92,15.18,15.18,0,0,0-.72-7.32l-.72-1.56-.48-.84-1.32-.48a171.24,171.24,0,0,1-27-1.44,64.22,64.22,0,0,0-20.76,2.76l-1.32.48A902.77,902.77,0,0,0,86.4,95a179.6,179.6,0,0,0,71.88,10l1-2.52.48-2.4.12-1.56V96.84a6.88,6.88,0,0,0-3-5.64Zm119.16,9.48c-13.08,3.6-26.28,7.68-39.36,12.24q-29.88,10.44-37.44,42.12a428.89,428.89,0,0,0-11.52,78.24c-2.52,42.72-3.48,85.44-3.12,128.28A291.91,291.91,0,0,0,197,457.32a19.54,19.54,0,0,0,8.76,10.8q43.92,26.28,87.24-2.88c21.36-14.52,28.8-33.24,22.44-56.4a4.5,4.5,0,0,0-4,2.4l-.24.12-1.44-1.2q-3.06-1.26-1.08,2.16a9.56,9.56,0,0,1,.24,9.48q-23.76,47.34-80.64,40.44c-15.24-1.8-24.72-10.08-28.44-24.6a452,452,0,0,1-14.28-127.8l.6-15.24.48.6a342.5,342.5,0,0,0,59.76-1.92l.72-.84c2.76-5.16,2.4-10.08-1-14.52l-59.52,5q2.7-50.4,9.36-99.84,4-30.06,24.72-50.16a45.63,45.63,0,0,1,16.68-10.44q39.06-14.58,71.76,3l.6-.72.48-1,.24-.72.36-.84-.24-1.56a14.39,14.39,0,0,0-2.64-5.88l-1-1.56-.6-1.56a39.27,39.27,0,0,0-5.76-4.2L296.64,105,295,103.68,292.8,103A49.87,49.87,0,0,0,271.68,100.92ZM389.4,375.6l-.84-4.08-53.28,91.56c-5.16,8.88-4.56,15.84,1.8,21,8.16-15.24,16.44-30.48,25-45.72l44.64-3.12q16,27.9,32.16,53.64a4.76,4.76,0,0,0,2.16-4A46.13,46.13,0,0,0,433.8,459a479.84,479.84,0,0,1-42.6-85.32Zm-1.08,13.56,10.44,31-29.4,5.16Zm49.44-259a3.8,3.8,0,0,0,1.92-1.68l1.08-2a6.54,6.54,0,0,0,0-3.72,5.89,5.89,0,0,0-1.56-3.24,9.51,9.51,0,0,0-4.08-2.76c-15.12-7.8-30.24-8.28-45.24-1.56a88.63,88.63,0,0,0-35.52,28.56A172.48,172.48,0,0,0,333,182.28a211.79,211.79,0,0,0-12.48,45.36A420.33,420.33,0,0,0,316,271.8a90.94,90.94,0,0,0,9.12,45.36,76.51,76.51,0,0,0,30.36,33.12c13.56,8.16,28.2,10.08,43.8,5.76a83.34,83.34,0,0,0,39-23.64c8.28-9,10.44-19.08,6.36-30.48l-4.08.36-1.92,4.8-5.16-.72,5,5.28a66.82,66.82,0,0,1-26,22.92q-31.32,16-61.08-2.88a44.61,44.61,0,0,1-19.56-25.92,170.26,170.26,0,0,1-7.08-45.24,116.42,116.42,0,0,0,53-1.2,11.13,11.13,0,0,0,1.92-4.2,12.29,12.29,0,0,0-.12-5.52,16.26,16.26,0,0,0-2.4-5.28l-52.32,4.56A163.13,163.13,0,0,1,372.36,142a55.87,55.87,0,0,1,36.48-16.68A70.35,70.35,0,0,1,437.76,130.2Z" transform="translate(-67.74 -86.04)"/></svg>