<svg id="Layer_1" data-name="Layer 1" xmlns="http://www.w3.org/2000/svg" viewBox="0 0 303.34 309.88"><defs><style>.cls-1{fill-rule:evenodd;}</style></defs><path class="cls-1" d="M240.36,168.48c8.76-14.64,21.12-23,37.2-25.2q12.6-1.62,18.72,10.44a21.34,21.34,0,0,0-2-16.92C290.28,130,284.16,126,276,125a59.19,59.19,0,0,0-32.88,24,145.7,145.7,0,0,0-23.88,59.4,597,597,0,0,0,.24,197.64q3.78,22.68,27.36,24.48c9.6.24,18.24-3.12,25.8-10a58.39,58.39,0,0,0,15.24-22.44,63.18,63.18,0,0,0,3.12-12l.6-4.44a29.87,29.87,0,0,0-12.72,12.84c-4.8,9-12,14.76-21.6,17.16A38,38,0,0,1,228.84,408a94.7,94.7,0,0,1-10.44-44.28q.18-38.7,2.76-77a223.33,223.33,0,0,0,56.4-6.84,10.83,10.83,0,0,0,1.56-4.68,14.18,14.18,0,0,0-.36-5.52,16,16,0,0,0-2.28-5.28L222.12,274l5.52-64.08A92.26,92.26,0,0,1,240.36,168.48Zm-48.12,4.8a309.92,309.92,0,0,0-8.64,65.4q-2,64.44-9.12,128.28L172.2,382.8c-2.28,12.36-1.08,22.92,3.6,31.92a29.81,29.81,0,0,0,4.32-14.52c1.68-33.48,3.84-66.72,6.6-100q5.58-64.44,6.48-127.32C192.6,172.8,192.24,172.92,192.24,173.28Zm-10.08-38.52.36-1.56.24-1.44a16.36,16.36,0,0,0-1.32-7.2l-.48-.84c-15.6-1-31.2-1.2-46.8-.84a110.94,110.94,0,0,0-22.56,2.52l-.6,2c-3.48,36.24-6.72,73-10,110l-2,.6,1.08,9q-3.42,36.54-8.16,73.08a659.45,659.45,0,0,0-5,112.44l2.16-.48a237.51,237.51,0,0,0,2.52-25.8q3.78-79.74,13.92-158.88l44.16-1.2,1.08-2.76.6-1.8.24-1.68a10.12,10.12,0,0,0-1.68-6.72l-1.08-1.68a144,144,0,0,0-16.08.12,157.48,157.48,0,0,0-25.92,4.08c2-16.44,3.6-32.88,4.44-49.44s1.08-32.76.84-49.2l68.88.36Zm204.72-9.24-57.12,3.84-.12.84a18.59,18.59,0,0,0-.24,5.76,20.61,20.61,0,0,0-1.32,6.24c-2,32-3.36,64.2-3.84,96.72q-1.08,64.8-4.8,129.12a201.73,201.73,0,0,1-4.2,32c-2.64,12.72-1.44,23.28,3.72,31.8A3.34,3.34,0,0,0,320,430.2q6.48-53.1,9.12-107.16,1.8-35.28,3.12-70.92a277.19,277.19,0,0,0,37.32-.72,2.67,2.67,0,0,0,3.48.84l.84-.6a17.26,17.26,0,0,0,1-12.24,14.93,14.93,0,0,0-1.2-2.4l-1.44-.48-13-.6a140.29,140.29,0,0,1-26.52,3L334.08,194c.36-18.84.36-37.08-.12-55a182.87,182.87,0,0,0,53.76,1.08l.48-.84C390.48,134.28,390.12,129.72,386.88,125.52Z" transform="translate(-86.32 -122.72)"/></svg>