<svg id="Layer_1" data-name="Layer 1" xmlns="http://www.w3.org/2000/svg" viewBox="0 0 555.02 564.48"><defs><style>.cls-1{fill-rule:evenodd;}</style></defs><path class="cls-1" d="M524.76,590.16h.12L525,590ZM82.2,553.32A474.33,474.33,0,0,1,88,490.56a505.23,505.23,0,0,1-.24,82l-.36.84C83.64,568.56,82,561.84,82.2,553.32Zm223.2-52.44a11.26,11.26,0,0,1,.84-6.6H307l.12-.6c0-.12.24-.36.84-.48l.12,1.08a140.45,140.45,0,0,0,31.8-4.8l7,.6a1.93,1.93,0,0,1,.84.48,12.62,12.62,0,0,1,1,4.08,10.19,10.19,0,0,1-1.2,6.48,88.87,88.87,0,0,1-38.88,2.52c.36,7.32.36,14.76.12,22.2l30.6-2.52c2.76,4,2.76,7.92,0,12.12l-.72.84a95.36,95.36,0,0,1-30.36.48,290.22,290.22,0,0,1-4.92,36.72q0,.36-.72.36A308.12,308.12,0,0,1,305.64,502Zm-40.08-213-1.92,7.32-24.24,87.12a272.18,272.18,0,0,1,35.64-7.44A637.91,637.91,0,0,1,265.92,299Zm2.52-33.36,1.92-6.12a159.26,159.26,0,0,1-1,19.92,1002.12,1002.12,0,0,0,13.92,106.92,12.25,12.25,0,0,1,1.08,5.88c3,15.72,6.36,31.44,10.08,46.92a162.64,162.64,0,0,1,4,50.28c-5.28-4.68-7.92-11.88-7.92-21.84a117.46,117.46,0,0,0-4.08-31.56c-3.36-12.84-6.36-25.8-8.88-38.76-13.44,1.92-26.76,3.36-40.08,4.32L229.08,418c-5.88,20-11.28,40.08-16.44,60.12-3.84-9-3.84-19.08,0-30.48Q233,387.12,248.16,324.84c4.92-20.28,10.32-40.2,16.2-59.52l-.12-3.6c-.12-4.56,1-8,3.36-10.56ZM71.28,404.88l-3.84,24.48a37.76,37.76,0,0,0,27.6-14Q86.22,404,71.28,404.88Zm11-6.48,3.48.72L95,405.6l2.4,1.56C99.6,419.88,96.12,429,87,434.4A99.06,99.06,0,0,1,94.56,449l.12.6a6.36,6.36,0,0,0,2.52,2.52,78.7,78.7,0,0,1,8.4,26,3.66,3.66,0,0,1-1,3.12c-7.2-14.16-15-28.92-23.52-44.28a60.79,60.79,0,0,1-10.68,2.52l-4.56-.24-6.24,39.36-.36.72C55.56,474.72,54.84,468.24,57,460a153,153,0,0,0,4.44-30.6,62.3,62.3,0,0,1,5.76-24.6l-.12-.24,1.2-1.92,1.56-2.76.48.72q3.6-2.88,9.72-2.88ZM103.08,102a683.41,683.41,0,0,1,1.08,119.4v.72a158.17,158.17,0,0,0,27,5.4,13,13,0,0,1,.24,9.72l-.48.84a63.09,63.09,0,0,1-30.48-3.48q1.26-61.2-.84-123.36C99.48,107.16,100.56,104,103.08,102Zm26.16-70.08a226.3,226.3,0,0,1-.36,64.92l-.36.84c-3.6-6.36-4.8-14.4-3.72-24.24a170.29,170.29,0,0,0,.84-32.28C125.4,36.84,126.6,33.72,129.24,31.92Zm-28.56,9.72q-34.74-2-69.72-6.36c.48,39.24.12,78.72-1.08,118.68q-.18,8.1,0,16.2l.48,20A543.46,543.46,0,0,0,86,185.88a9.66,9.66,0,0,1,.72,10.44l-.72,1a226.4,226.4,0,0,1-55.56.36c.6,33.84,1,67.68.84,101.64Q31,363.9,28.68,428.4t-2.76,129a23.7,23.7,0,0,1-4.32,14.28A293.16,293.16,0,0,1,18,507.84q3.24-64.62,5.88-129c1.8-43,2-86,1-129.12s-1.44-86.16-1-129A833.6,833.6,0,0,1,29.16,35l-1-.12L28,34.08l-.12-.84v-.72L28,30.84,28.2,30a3.1,3.1,0,0,1,1.68-1.32l.36-2.88.6-.12L31,28.44h.48L45.36,28l.12-.12,50,3.12,4.08.12,1.2,1.68.36.84.48,1.56.12.84v.84l-.12.72A11.93,11.93,0,0,1,100.68,41.64Zm153.6,123.48h.36a135.56,135.56,0,0,1,21.48-52,10,10,0,0,1,3.6-3l3.84-1.92c13.56-1.08,19.56,4.08,18,15.6l-.48,1c-14.4-8.76-25.08-5.4-32,9.84a118,118,0,0,0-9,29.64l34.32-3.84,5.64.6.84.48.72,2.52a9.16,9.16,0,0,1-.72,5.64,188.34,188.34,0,0,1-41.76,3,103.47,103.47,0,0,0,7.32,46.56,12.91,12.91,0,0,0,4.92,6.12c8,1.92,14.88,0,20.64-5.88a5.14,5.14,0,0,0,1.8-2.16,28.94,28.94,0,0,1,4.68-8.4l.84-.6.6-.12,1.2-.36.72-1a3.06,3.06,0,0,1,1.92-1.92l2-.12.6.36.84,1.56.12.84a3.15,3.15,0,0,1-.6,2.28,33.21,33.21,0,0,0-3.12,6.6l-.6,1.68a67.54,67.54,0,0,1-14.4,17,26.8,26.8,0,0,1-6.12,4q-25.38-2.34-28.8-28.8a145.8,145.8,0,0,1,0-39.6v-.12A8.57,8.57,0,0,1,254.28,165.12ZM185.4,52q-25,33.66-27.48,77-2,35.82-5.4,71.64a598.74,598.74,0,0,0-2.64,64l.24,25.92c11.88-1.32,23.64-3.24,35.4-5.52,2.64,3.72,3,7.68,1.08,12.12l-.48.84a179.27,179.27,0,0,1-36,2.16q.18,46.8,0,93.6-.54,64.62,5.28,128.4,3.42,39.24,44.28,33.6a87.74,87.74,0,0,0,23.76-41.64,21.66,21.66,0,0,1,8.4-12.72c1.8,14.28-1.32,28.8-9.36,43.8a78.23,78.23,0,0,1-14.16,19C197.64,574.68,185,575.64,170.76,567c-12.24-7.44-19.2-18.6-20.76-33.36a1217.15,1217.15,0,0,1-6.24-127.56c.12-43,0-85.92-.6-129a930.56,930.56,0,0,1,7.08-128.4A710.85,710.85,0,0,1,163,77.28q6.84-30.06,32.88-46.68c17.88.36,28.2,8.28,30.72,23.52l-.12.84c-5.64-2.76-12.24-5.88-19.8-9.12Q194.22,40.26,185.4,52Zm91.92-13.8c0,5.88-.24,11.88-.6,17.88a7,7,0,0,1,2.16,1.32c7.8,1.2,13.32-1.44,16.8-7.8v-.84a5.46,5.46,0,0,1,.6-2.4l.24-.84-.12-1.56a23.73,23.73,0,0,0-2.16-5.76l-.36-.84c-4.68-2.88-9.24-2.64-13.8.72l-.36.36-.48.12Zm6.24-10.8c6.48-1.08,11.4,1,14.88,6.24l.48.72q6.48,20-9,29.16a103.18,103.18,0,0,1,18,38.16,2.76,2.76,0,0,1-1.68,3.6A32.19,32.19,0,0,1,301,95.88l-.6-.84a95.94,95.94,0,0,1-14.28-29.52L285,66a12.35,12.35,0,0,1-9.24.36,312.91,312.91,0,0,1-5.16,32.4l-.36.84c-3.72-4-4.8-9.6-3.24-17,2.64-13.32,4.68-26.76,6-40.32a27.33,27.33,0,0,1,3-10.32l.48-1.32.36-.24.48-.6v.48c2-.84,4.08-1.68,6.12-2.76ZM352,318.48a6.77,6.77,0,0,1,1.32,2.4,10.35,10.35,0,0,1-.36,6.6l-.36.72a34.61,34.61,0,0,0-18.48,1.08c-.12,13,6,23.52,18.36,31.56a17.15,17.15,0,0,1,8.16,15.24c-.12,17.16-8.4,23.52-24.6,19q-16.2-4.5-11.88-18.36c7.8,8.76,16.92,11.28,27.12,7.56l2.16-.84.6-1.68.36-.6,1.32-4.2.36-.84a40.55,40.55,0,0,0-14.4-18,39.86,39.86,0,0,1-10.8-11.16,62.18,62.18,0,0,1-2.4-17c0-6.84,3.12-11.4,9.24-13.8L351.12,318A1.93,1.93,0,0,1,352,318.48ZM518.4,172.32q49.86,2.7,53,48.24l-.48.24c-11.64-28.44-33.12-39.6-64.44-33.24q-23.76,23.22-16.68,57.84,4.86,24.3,23.76,39.24,38.16,36.18,47.64,88.2c3,16.56,5.64,33.12,7.68,49.8a453.49,453.49,0,0,1,.84,109q-3.78,34.56-33,50.4a22.87,22.87,0,0,1-5.28,1.92q-36,8.64-54-20.16a23.08,23.08,0,0,1-3.6-12,278.66,278.66,0,0,1,3.24-55.08,1.68,1.68,0,0,1,1-.48,6.44,6.44,0,0,1,1.56,3.84v4.8a11.68,11.68,0,0,1-.72,4.08A222.28,222.28,0,0,0,484.68,558a8.53,8.53,0,0,0,4.68,5.88q31.5,15.48,58.08-5.16a21.71,21.71,0,0,0,7.56-10.8,253.6,253.6,0,0,0,10.56-101.16A397.81,397.81,0,0,0,539,336.24,84.24,84.24,0,0,0,516.48,304c-19.56-17.4-30.48-39.12-33-64.92-2.28-23.52,4-43.44,18.48-59.64A20.35,20.35,0,0,1,518.4,172.32Zm-142.32,5.76q45.54-6.3,92-9.72a10.48,10.48,0,0,1,1,10.44l-.48.84-41.16,5.16q2.16,61.56,1.92,123.36c-.12,27.24-.72,54.12-2,80.76l5.28-6.36,1.44-1.32q5.22,1.8,3.6,7.56l-.12.84c-10,11.4-19.92,22.56-30.12,33.48a273.62,273.62,0,0,1,23,60,2.73,2.73,0,0,1-1.08,3.12,180.47,180.47,0,0,1-18.48-33.12,98,98,0,0,1-7.32-25.8l-17.4,18.12q-1.62,21.06-5,42.12l-.48.84C376.8,482,375.72,474,377.52,464a252.45,252.45,0,0,0,4-37.92,172.33,172.33,0,0,1,4.68-35.52,1.44,1.44,0,0,1,1.56-1.2c.36,15.84.12,31.68-.84,47.52l15.84-18.84.72-.84,21.84-26c-3-5.64-4.2-13-3.36-21.72.48-5.16.72-10.56.72-16.08-.12-43.08,0-86.16.12-129.12,0-7.92-.24-16-.6-24.24a53.5,53.5,0,0,1,1.2-14.88l-46.2,3.48C374.88,185.52,374.52,182,376.08,178.08Zm14-132.84-.24.72c-15.48-5-27.84-.12-37.08,14.64a104.68,104.68,0,0,0-16,65C338.4,146,348.72,157,368,158.4a16.41,16.41,0,0,0,6.36-1l9.36-6.36a37.17,37.17,0,0,1,6.12-4.2c1.32,10.56-3.84,18.48-15.6,23.64a25.59,25.59,0,0,1-17.64,1.32c-19.56-14.28-28.08-34.2-25.8-59.88a227.73,227.73,0,0,1,9.48-48.6,86.62,86.62,0,0,1,17.64-23,44.88,44.88,0,0,1,15.36-9.48C386,29.76,391.68,34.56,390.12,45.24Zm79-8.52a7.43,7.43,0,0,0,2.28.84,17.48,17.48,0,0,1,7.2,8.4,9.16,9.16,0,0,1-.48,7.92,50.13,50.13,0,0,0-19.44-6.24c-13,10-21.48,21.84-25.68,35.64a328.74,328.74,0,0,1,34.56-8h4.32l2.28,1.2,3.12,2,.48,1.56a5.86,5.86,0,0,1-.72,4.08A210.83,210.83,0,0,1,430.68,94.2a81,81,0,0,0,.12,22.2,31.73,31.73,0,0,0,12.12,21.84c15.24,2,28.2-2.4,39-13.2a4.93,4.93,0,0,1,1.44,4.08,19.42,19.42,0,0,1-2.52,8.88q-19.44,23.22-43.68,7.2a16.3,16.3,0,0,1-6.36-8.52Q413,82.86,450.24,41.76a29.62,29.62,0,0,1,8.64-6.6A13.56,13.56,0,0,1,469.08,36.72Z" transform="translate(-17.62 -25.68)"/></svg>