<svg id="Layer_1" data-name="Layer 1" xmlns="http://www.w3.org/2000/svg" viewBox="0 0 418.96 371.9"><defs><style>.cls-1{fill-rule:evenodd;}</style></defs><path class="cls-1" d="M111.48,75.48a436.58,436.58,0,0,0-58.2,3.72v-1l-.24,1-2.4.36a9,9,0,0,0,.84,8.4,355.36,355.36,0,0,0-5,72.24q1.8,64.8,2.88,129.12a920.23,920.23,0,0,1-6.84,128.76c-1.32,10.32.6,18.24,5.64,23.76A705.63,705.63,0,0,0,55,335.52l-.48-72,.24.36,49.44-2.52.48-.84c2.76-6.12,1.8-10.8-3-14-16.92-2.76-32.64-1-47.28,5.64l-.12-45.6q-.18-59.58-.84-117.12a350.83,350.83,0,0,0,71.88-1.2l.6-1a11.85,11.85,0,0,0,.36-9.48l-.48-1a1.09,1.09,0,0,0-.84-.36ZM190.08,91q-29.88,18-39.36,52.8A598.12,598.12,0,0,0,131.4,258.6a1221.83,1221.83,0,0,0-2.28,127.56,78.47,78.47,0,0,0,16.44,46.2c13.8,18.12,29.88,19.8,48.12,5.28a184.72,184.72,0,0,0,31.8-32.4c8.28-10.92,12-22.08,10.92-33.48-13.68,15.72-27.84,31.44-42.48,47.4-8.76,9.6-19.2,12.6-31.44,8.88-10-3-16.44-9.72-19.2-20.16a301.83,301.83,0,0,1-9.6-91.44c.84-18.36,2.16-36.6,3.84-54.84,13.68,5.52,28.2,5.52,43.68.12l5.16-4.08.36-1.68a8.25,8.25,0,0,0-.36-4.8l-.6-.72-2.4-1.8a204.69,204.69,0,0,1-44.88,4c2.16-21,4.92-41.88,8.16-62.64A170.24,170.24,0,0,1,172.8,122q23-35.28,57.12-9.72l2.16.48a2.79,2.79,0,0,1,2.16,1.8l.6.72.24-.48c-4.68-17.28-16.68-26.28-36-27.12A22.73,22.73,0,0,0,190.08,91ZM313.8,93.12a67.85,67.85,0,0,0-28.08,18.24,133.74,133.74,0,0,0-33.84,65.76,410.94,410.94,0,0,0-6.72,43.32c-1.8,19.56-3.24,39.24-4.2,59a399.64,399.64,0,0,0,14.16,126.6A24.19,24.19,0,0,0,261.36,417q28.62,28.8,61.2,1.32a170.69,170.69,0,0,0,23.16-23.4c9.12-11.16,12.36-22.32,9.84-33.72l-5,8.64a138.12,138.12,0,0,1-23.4,29Q304.26,421,274.44,410.4c-9.24-3.36-14.76-9.72-16.68-19.08-2.76-13-5.16-25.92-7.2-39A352.9,352.9,0,0,1,246,287.88l.84-23.16a482.32,482.32,0,0,0,52.44-2.52,8.57,8.57,0,0,0,2-5.64,8.66,8.66,0,0,0-2-5.76l-1.2-.48-5.88-.6q-23.94-3.42-44.64,4.32c1.08-15.36,2.76-30.6,4.92-45.6a221.32,221.32,0,0,1,21.12-67.32q17.46-34.2,55.44-34.8a55.06,55.06,0,0,1,9.6,10.2c1.08,1.56,2.28,1.68,3.6.6a28.65,28.65,0,0,0-3.6-13.2,32.74,32.74,0,0,0-9.12-10.32l-10.32-.36Zm68.76,115.44c-2.28,42.6-4.2,85.44-5.88,128.28-.84,21.48-2.52,42.72-5.28,64-1.56,11.88-.48,22.68,3,32.4a2.57,2.57,0,0,0,1.2-1.44L376,429a558.23,558.23,0,0,0,82.68,6.84,8.65,8.65,0,0,0,2.4-5.64v-1.56l-.12-1.68-.36-3.24a8.41,8.41,0,0,0-2.16-4.08h-1.08c-25.08-1.08-50.16-1.8-75.24-1.92V418l-2.16.12-2.16.24-.24.12a607.26,607.26,0,0,0,5.16-67.68c.84-43.08,2.88-85.8,5.88-128.4q4.68-64.44,8.88-127.32A710.65,710.65,0,0,0,382.56,208.56Z" transform="translate(-42.08 -75.48)"/></svg>