<svg id="Layer_1" data-name="Layer 1" xmlns="http://www.w3.org/2000/svg" viewBox="0 0 306.12 216.96"><defs><style>.cls-1{fill-rule:evenodd;}</style></defs><path class="cls-1" d="M265.68,213.24q-1.8,38.7-1.68,77.76a138.62,138.62,0,0,0-44.76,4.08c-.12-25.08-.6-49.92-1.2-74.52-3.24,9.12-4.92,19.68-5.16,31.68q-.9,56.34-3.36,112.68c-.48,11.88,1.08,22.68,4.8,32.28a259.36,259.36,0,0,0,4.8-48.48l.12-44.16a200,200,0,0,0,45,2.64c.12,11.64.48,23.4,1,35a241.2,241.2,0,0,1-1,32.28c-1.32,12.24.24,22.92,4.68,31.92A410.89,410.89,0,0,0,273.24,322l-.84-19.56a15.05,15.05,0,0,0-.24-6.12q-2.16-51.66-2.4-102.48A58.1,58.1,0,0,0,265.68,213.24Zm-29.88-10,.36-.84.12-.84.12-1.44v-1.32a9.79,9.79,0,0,0-1.68-5.64L195,189.48,150.12,193,149,203.88l41.16.36Q182.82,284,181.32,364c-.24,12.12,1.8,22.8,6.24,32q3.78-39.42,4.8-79.2l2.4-112.56,40.32.6ZM354,355.08c-2.4,24.12-16.8,34.2-43.08,30.48a18.71,18.71,0,0,0-4.92-2.4,175.64,175.64,0,0,1-7-61.8q3.78-64.62,1.32-128.16a162.86,162.86,0,0,0-5.64,42.72c-.36,42.6-.48,85.44-.6,128.28a58.66,58.66,0,0,0,4.8,23.64c6.24,14.52,18.12,19,35.52,13.2a22.38,22.38,0,0,0,11.28-7.8q22-28.8,19.68-67.2-2.88-48.24-3.84-96.6c-.24-12-2.28-22.56-6-31.68a129.33,129.33,0,0,0-2.4,44.76A534.83,534.83,0,0,1,354,355.08Zm90.24-60.72q-.72,39.06-2.16,77.16c-5.28,5.4-11.52,6.84-18.6,4.08a9.38,9.38,0,0,0-5.16-4.92q-7.38,12.78,4.32,22.68c3.72.24,7.56.36,11.4.36,12.12-5.16,17.64-14.4,16.8-27.72q-2.52-41.94-1.44-81.84C446,286.2,444.36,289.56,444.24,294.36ZM454,248.88c-.84-1.56-1.8-2.4-2.88-2.4s-2,.84-2.88,2.4a12.2,12.2,0,0,0,0,11c.84,1.56,1.8,2.28,2.88,2.28s2-.72,2.88-2.28a13.3,13.3,0,0,0,0-11ZM369.6,213.24c11.16-.36,22.08-.6,32.88-.48-1.44,20-2.52,40.2-3.12,60.48a1167.28,1167.28,0,0,0,2.76,128.28c.6-.24,1-.6,1-1a576.47,576.47,0,0,0,3.84-64.8q.18-62.1-1.44-123c12.48.12,24.72.36,36.6,1a4.83,4.83,0,0,0,1.08-2.4,23.37,23.37,0,0,0,.36-8.16,9.63,9.63,0,0,0-1.68-4.8.91.91,0,0,0-.84-.48,170.26,170.26,0,0,1-19-3.6A377.1,377.1,0,0,1,368.52,201l-.72,2.52a16.22,16.22,0,0,0-.36,4.8A7.19,7.19,0,0,0,369.6,213.24Z" transform="translate(-149.04 -189.48)"/></svg>