<svg id="Layer_1" data-name="Layer 1" xmlns="http://www.w3.org/2000/svg" viewBox="0 0 302.33 210.48"><defs><style>.cls-1{fill-rule:evenodd;}</style></defs><path class="cls-1" d="M273.72,262.8c.6-21.24.36-42.48-.72-63.6L261.84,300.84l-25.8.6-.72-76.56A199.94,199.94,0,0,0,229,271.56q-.54,17.64-1.44,35.28l-2.28,44.76c-.6,13.32-1.08,26.64-1.32,40-.12,6.6,1.08,9.12,3.6,7.44a223.26,223.26,0,0,0,6.12-40c1-15.36,1.68-30.6,2.16-45.84l26,1.08-1.92,91.32a717.94,717.94,0,0,0,11.76-94.8C272.64,294.84,273.36,278.88,273.72,262.8ZM246,201.6l-.84-1.68a553.89,553.89,0,0,1-93.6,1.44l-.24,10.56,47,4.8q-8.1,66.42-10.08,133.32l-.84,25.2a44.22,44.22,0,0,0,4.92,22.44,957,957,0,0,0,7.92-120.12c0-20.28.24-40.44.84-60.72l44.52-4A11.13,11.13,0,0,0,246,201.6ZM385,392.52a235,235,0,0,0,66.12-.72,6.54,6.54,0,0,0,2-3.24,13.36,13.36,0,0,0-2.4-12.24l-3.72-.24-16.2.6L417,376.2c-13.56-1.8-24,1-31.2,8.28,1.8-20,3-40.2,3.6-60.6.72-21.48,2-42.84,4.08-64A273.12,273.12,0,0,0,392,195.6c-3.24,23.28-5.64,47.64-7,73.08q-3.42,63.9-4.08,127.44c.48,2,1.68,2.52,3.48,1.56ZM362.28,219.84c.6-10.44-1.56-18-6.48-22.8-1.08,34.56-.84,69.48,1,104.64a180.08,180.08,0,0,1-6.12,55.68c-5.16,18.36-18,25.68-38.4,22.08a11.71,11.71,0,0,1-9.72-8,117.79,117.79,0,0,1-5.88-48.24c3.24-43.08,4.8-85.8,4.44-128a169.27,169.27,0,0,0-6.72,42.6c-1.8,42.6-2.4,85.32-2,128.4C292.56,389,304.8,399.6,329,398c17.4-6.24,27.36-18.6,29.64-37.08a608.77,608.77,0,0,0,3.72-108.72C361.8,241.32,361.8,230.52,362.28,219.84Z" transform="translate(-151.32 -195.12)"/></svg>