<svg id="Layer_1" data-name="Layer 1" xmlns="http://www.w3.org/2000/svg" viewBox="0 0 290.72 219.84"><defs><style>.cls-1{fill-rule:evenodd;}</style></defs><path class="cls-1" d="M228.12,190.56l-10.56-1.08A613.56,613.56,0,0,1,151,196.2a11.21,11.21,0,0,0,0,9.6l1.08,1.8q20.52.54,40.68,0a888.84,888.84,0,0,0-5.16,97.32c-.12,10.92-.6,21.72-1.56,32.4a359.36,359.36,0,0,0-.48,64.2,1.71,1.71,0,0,0,1.2-1A444.66,444.66,0,0,0,195,324.48c.84-39.48.72-78.48-.6-117l34.44-1.8a10.84,10.84,0,0,0,2.76-9.84,14.92,14.92,0,0,0-1.92-4.8Zm23.64,4.32c-3.24,32.52-5.52,65.16-7.08,97.92l-26-1.08v.12l-3,.84q.54-36.36,0-72.12a494.72,494.72,0,0,0-7.92,91.68,483.72,483.72,0,0,1-3.84,64.68c-1.56,12-.24,22.8,3.84,32.4a2.15,2.15,0,0,0,2.16-2.16,579.28,579.28,0,0,0,4.56-58.32l1.08-43.44a138.42,138.42,0,0,0,28.56,2.4l-.6,14.16c-.48,16.08-1.8,32-3.84,47.76-1.56,12.24-.12,22.8,4.44,31.8a6.71,6.71,0,0,0,2.4-4.92q3.42-36.54,5.4-73.68l.72-15.84h.12a18.23,18.23,0,0,0,1-10.44l-.12-1-.48-1.32q1.62-50.22-.36-99.84C252.12,194.4,251.88,194.52,251.76,194.88Zm99.72,48.48a164.28,164.28,0,0,0-5.16-48c-.72.6-1.08,1.08-1.08,1.68a476.31,476.31,0,0,0,.84,91.56,162.22,162.22,0,0,1-5.88,64.08c-6.6,21.48-21.48,31.2-44.4,28.92a5.17,5.17,0,0,1-4.32-2.88c-8.4-16.92-11.88-35.4-10.32-55.44A1040.84,1040.84,0,0,0,283,195.12c-1.44-.12-2.28.6-2.4,2.16-2.16,19-3.48,38.16-3.84,57.6-.36,20.52-1.2,41-2.4,61.56a205.76,205.76,0,0,0,8.16,71.4c1.8,6.12,5.76,9.72,11.88,10.56,23.64,3.6,39.48-5.88,47.76-28.32q16.56-45,10.8-94.44A207,207,0,0,1,351.48,243.36Zm46.2,53.76q24.84,3.06,31.68,27c4.56,15.84.84,29.76-11.16,41.88-11.4,11.4-25.32,16.92-41.88,16.32l-2.76-1.56,4.2-81.84Zm-18-86.28c20.52-1.8,34.68,6.84,42.36,25.68,6,14.76,1.56,27-13.32,36.84a59.46,59.46,0,0,1-30.6,10.32l-1-85.92A986.15,986.15,0,0,0,366.6,391.32l.6,7.8,2.64-1.2q29,5.4,50.88-14A56.51,56.51,0,0,0,440,347.4a61.06,61.06,0,0,0-7.56-38.88,48.86,48.86,0,0,0-4-5.76,53.15,53.15,0,0,0-13.44-11.88l-3.36-2c15.84-11.4,23-26.88,21.6-46.68-1-13.32-6.36-24.24-16.32-32.76a54.8,54.8,0,0,0-27.36-13l-8.88,3.12-2.28,8Z" transform="translate(-149.88 -189.48)"/></svg>