<svg id="Layer_1" data-name="Layer 1" xmlns="http://www.w3.org/2000/svg" viewBox="0 0 303.48 213"><defs><style>.cls-1{fill-rule:evenodd;}</style></defs><path class="cls-1" d="M266,297.12q.72-49.86-1.68-99-4.14,6.48-3.6,16.2a499.68,499.68,0,0,1,0,56.88l-1.2,24.48-41.64,2.52c.84-22,1.56-43.8,2-65.52a62.75,62.75,0,0,0-6.6,24.6c-1.8,26.16-4,52.32-6.24,78.6a348.68,348.68,0,0,0,.12,64.32,5.18,5.18,0,0,0,4.44-5.16c1.08-11.4,1.92-23,2.76-34.8q1.62-24.84,2.88-49.32a185.82,185.82,0,0,0,41.64,0q-1.8,44.28-2.52,88.44c.6,2,1.8,2.52,3.6,1.56a78.36,78.36,0,0,0,3.24-18.6l2-55.92.48-15.12.12-.12a9.94,9.94,0,0,0,2.28-4.8,14.51,14.51,0,0,0-1.68-9Zm70-41.64q12.42,23.58,2.52,49.92-7.2,19.44-28.44,15.48a61.21,61.21,0,0,1-2.4-43.56,54.08,54.08,0,0,1,16.92-25.8l2.76,4Zm-11.28-17a9.4,9.4,0,0,0-5.4,3.36Q292,275.28,301.08,319.68A16.1,16.1,0,0,0,307.56,330c12.84,9.72,22.92,7,30.48-8.16,9.24-18.24,13.08-38,11.76-59.52C348.84,246.12,340.44,238.2,324.72,238.44Zm-96-41.16-1-1.68a258,258,0,0,0-76.8,6.84l.48,8.76,39-.72-5.52,188.4,2.52-.12a1465.37,1465.37,0,0,0,7.32-167l-.36-21.24,34.56-1.8A13.54,13.54,0,0,0,228.72,197.28Zm209-1.32c-15.6-.12-27.24,7.44-34.8,22.8a103.34,103.34,0,0,0-9.72,32.76l-4.32,39.72c-1.56,15.72-2.64,31.44-3,47.16a101.74,101.74,0,0,0,8.88,44.16c7.68,17.16,19.8,21.48,36.24,13.2a46.35,46.35,0,0,0,15-11.88l1.8,20.4,2.88-.6a230.18,230.18,0,0,0,2-69.12l-1-5.52-30.84,5-.24,9,4.08,2.64,23.52-1.8-1,7.92c-1.08-.36-2.28.6-3.48,2.64a10.39,10.39,0,0,0-1.32,7.32l1.2,4.8c-5.88,9.48-14.52,14.52-26,14.88-6.6.48-11.88-2.16-15.6-7.8L399.48,370a19.23,19.23,0,0,1-3.36-8.28,322.48,322.48,0,0,1-.72-94.92,96.41,96.41,0,0,1,16.68-42.12c6.24-8.76,14.88-12.84,25.92-12a17.26,17.26,0,0,1,5.28,5.76,20.42,20.42,0,0,0,5.16,6.36,4.91,4.91,0,0,0,4.2,1.2,14.24,14.24,0,0,0-.36-12.84A48.94,48.94,0,0,0,437.76,196Zm-74.4,3.36A1152.92,1152.92,0,0,1,361.56,318a109.13,109.13,0,0,1-9.72,39q-14,30.6-48.48,18.48a8.62,8.62,0,0,1-5.4-5.4c-5.88-16.44-8.16-34.2-6.84-53l4.44-61.44a553.21,553.21,0,0,0,1.56-64.32c-4.2,5.64-6.48,12.84-7.08,21.48q-4,62.46-4.56,126a150.66,150.66,0,0,0,3,32.16c3.48,16.92,14.4,24.24,32.52,22.2q37.8-4.32,42.48-43.56a1229,1229,0,0,0,8.76-128.16c.12-10.2-2.52-18.12-8-23.64A2.25,2.25,0,0,0,363.36,199.32Z" transform="translate(-150.96 -191.28)"/></svg>