<svg id="Layer_1" data-name="Layer 1" xmlns="http://www.w3.org/2000/svg" viewBox="0 0 553.68 431.59"><defs><style>.cls-1{fill-rule:evenodd;}</style></defs><path class="cls-1" d="M88.44,95.88c0,8.64,0,13.56-.12,14.76L85.2,131.28V184.8l-2.4,43.08c-1,18-1.92,32.28-3,43V375.6l-1.8,29c-.72,11.64-1.2,21.48-1.44,29.28-.12,6.48-.12,16.2.24,29.28-.36,11.4-2.4,20.88-6.12,28.56a15.87,15.87,0,0,1-3.12-6.84c-.12-.84-.12-2.76-.12-5.64q0-19.26,2.52-58l4-52.8V263.88c.84-9.24,1.8-23.52,2.64-43.08s1.8-33.84,2.76-43V123.36c2.88-12.84,4.2-20.52,3.84-23l-1-4.8-.6-5.28-3.48-.12-8.4-.72-15.6,1-24.6,3.48L16.2,96.12c-2.52,0-4.2-1.32-4.8-4.08L11,87.72c0-3.72,1.32-6.36,3.84-7.92S22.32,77,29.64,76.2l30.24-2.28L110.4,69.6,148,69c6.48-2.88,10.8-2.64,12.84.72.84,1.32,1.32,3.6,1.32,6.84l-.24,4.08a6.5,6.5,0,0,1-2.76,4.56l-5.52.36-6.36.72-38.16.36C100.8,88.2,94,89.28,88.44,89.88Zm104.88-1.44c.12,3.48.12,11.28.12,23.16q0,37.44-16.68,206-13.14,133-17.4,167c-1.56-1.32-2.64-3.48-3-6.48a62,62,0,0,1-.24-6.48q0-14.76,7.68-101.76Q169.2,314,172,287.52L146,290,127.68,292l-10.56-.12-4.8,75.36v51L107.64,455a291.23,291.23,0,0,1-7.56,37.8c-1.44-1.08-2.4-3-3-5.64l-.48-3.6c0-6.6,1.44-19.44,4.44-38.76l5.28-34V360.72L111,290.4a15.13,15.13,0,0,1-1.44-6.84,14.09,14.09,0,0,1,2.16-8H112l3-48.72V173.16c1.08-6.84,2.16-16.8,3.24-30.12,1.44-15.84,2.16-27.36,2.16-34.44a14.3,14.3,0,0,1,2.28-8.52c2.28,1.32,3.72,4.08,4.44,8.52a69.33,69.33,0,0,1,.36,8.52c0,5.88-2.16,26.64-6.48,62.52v54.48L118.2,275l17.4-1.68,25.68-1.92v-.6l12.48.36L190,70.92C191.76,77,192.84,85,193.32,94.44ZM307.68,97.8c-5.16-5.28-10.44-7.92-15.72-7.92q-32.22,0-55,41.4-18.18,33.3-29.4,91.8c-3.24,16.2-5.88,33.48-7.92,51.6l.72.12a20.56,20.56,0,0,1,6.6,2.28l24.6-1,18.72-1.44a2.51,2.51,0,0,1,1.2-1,2.68,2.68,0,0,1,1.2-.36,18.27,18.27,0,0,1,2.4,9.24L255,288a5.35,5.35,0,0,1-2.76,4l-17,1.32-10.08.84-10.68-.24-9-.6-7.8-.24L195.72,316c-1.56,19.8-2.28,34.92-2.28,45.24,0,4.44.24,10.8.84,19.08a383,383,0,0,0,4.08,39q8.82,55.62,29.16,55.68,48.78,0,63-32.28c2.4-5.4,4.56-13.32,6.6-24,1.68-8.28,3.48-13.08,5.4-14.52,1.56,3,2.4,7.08,2.4,12.12,0,2.76-.84,7.44-2.64,14a114.52,114.52,0,0,1-10.2,25.8q-20.16,36-58.32,36-29.7,0-40.8-62.52a354.42,354.42,0,0,1-4.8-44.4c-.36-7.56-.6-15.36-.6-23.4A680.21,680.21,0,0,1,191.4,292a15.34,15.34,0,0,1-1.68-7.32,22.37,22.37,0,0,1,.6-5.64c.6-2.16,1.56-3.6,3-4.32q4-31.68,11.52-73.08a322.16,322.16,0,0,1,10.2-39c3.24-10,7.92-23.52,14.16-40.56,5.52-15,13.56-26.76,24-35A54,54,0,0,1,283,74.64c10-.84,18.36,1.2,25.32,5.88q10.8,7.2,10.8,19.08a13.61,13.61,0,0,1-2.52,8c-.84-.36-2-1.68-3.72-3.84ZM440,76.32Q441.48,72,447.6,72c1.08,0,1.8,1.2,2.16,3.48l.24,5.4c0,7.32-1.92,25.32-5.76,54.12l-6.36,48.24-4.32,51.12c-1.8,20-3.6,37.08-5.52,51.12q-2.34,17.64-6.12,51.12c-2.52,23.16-4.44,40.2-5.88,51.12q-8.1,59.58-23.16,101.88Q383,461.16,375.6,419,368,371,364,348l-.6-.6q-4.68,44.46-9.24,68c-4.92,25.32-11.76,48-20.76,67.92-2.76-1.92-4.08-9.72-4.08-23.28,0-9,.6-19.08,1.68-30.24s1.56-20.52,1.56-27.84a39.14,39.14,0,0,0-1.08-8.16v-67.2c-.48-1.56-.84-3-1.08-4.08V256.8a65.47,65.47,0,0,0,1.08-10.2,38.24,38.24,0,0,0-1.08-9.24V182.88c-.72-7.8-1.56-22.68-2.64-44.64C326.64,114.48,326,97.32,326,86.76a97.24,97.24,0,0,1,.36-10.68c.36-4.44,1.32-7.2,2.88-8.4,3.36,1.68,4.8,4.8,4.44,9.24-.24,2.52-.84,6-1.68,10.56,0,13.56.36,28.68,1.2,45.36.84,16.08,1.92,30.36,3.12,42.84V230a170.85,170.85,0,0,1,0,33.24v52l1.08,3.24v68c.72,3.24,1.08,8.28,1.08,15,0,6.36-1.08,23.64-3.24,52.08,4.2-9,7.68-20.28,10.56-34,1-4.32,3-15.84,6.24-34.44a290,290,0,0,1,4-37.2c2.28-14.4,4.68-24.48,7.08-30.36C370.44,336,376.32,359.88,381,389l5.64,36.36c2.28,14.4,4.56,26.88,7.08,37.44l.84,1.08c7.32-25.08,13.2-56.76,17.4-95q6.12-64.26,10.68-96.12,4.14-28.26,10.8-107.16,6.3-73.8,6.24-84.36A11,11,0,0,1,440,76.32Zm119.16,25a7.86,7.86,0,0,1-2.88,4.56q-1.62-.9-3.24-4.68L549.72,94c-3.72-6.36-9.48-9.48-17.4-9.48q-34.56,0-50.88,31.32a88.88,88.88,0,0,0-8,22.44,69.12,69.12,0,0,0-1.68,12,80.84,80.84,0,0,0,14.52,46.44,187.61,187.61,0,0,0,14.88,18.72l17,19.44q21.6,25.74,32,52.32,14.58,37.08,14.52,88.68c0,17.4-.12,28.2-.48,32.52-1.08,12.48-3.72,23.4-8.16,32.88-2.52,5.16-7.08,11-13.68,17.76a179.69,179.69,0,0,1-22.56,18.72q-29.7,20.88-49,20.88l-7.44-.24-5.88-.6c-12.6-.72-21.36-9.48-26-26.4-2.52-8.88-3.72-20.16-3.72-33.72a152.53,152.53,0,0,1,2.76-28.56c2.4-13,6.12-21.6,11-25.8a5.09,5.09,0,0,1,2.88,4.08l.12,4.44a32.29,32.29,0,0,1-1.68,9.48l-3.72,9.6a71.12,71.12,0,0,0-5.4,26.4c0,2.28,1.56,10.08,4.56,23.16a11.81,11.81,0,0,1,1.32,5.4,20.1,20.1,0,0,0,1.08,5.64c1.8,4.32,8,7.68,18.48,10.08,44.76-8.88,74.28-24.84,88.32-47.88,5.28-8.64,8.64-18.72,10.2-30.12q1.08-8.46,1.08-28.08c0-29.88-4.92-56.16-14.64-78.6-6.6-15.24-17.16-31.8-31.92-49.68l-17.16-20.64a195.9,195.9,0,0,1-14.88-21.24c-9.72-16.68-14.52-35-14.52-55.08,0-16.92,3.12-31.68,9.24-44,8.88-17.64,23.76-30.48,44.64-38.28,14.52-1.2,25.44,2.52,32.64,11A32.06,32.06,0,0,1,557.88,89a21.78,21.78,0,0,1,1.44,6.84Z" transform="translate(-11.04 -67.01)"/></svg>