<svg id="Layer_1" data-name="Layer 1" xmlns="http://www.w3.org/2000/svg" viewBox="0 0 304.79 209.4"><defs><style>.cls-1{fill-rule:evenodd;}</style></defs><path class="cls-1" d="M214.68,222.84l-5.28,128.4a86.79,86.79,0,0,1-2.16,15.84c-3,12.36-2,23.28,2.76,32.52a226.82,226.82,0,0,0,8.28-56.28l.84-36.72c10.8,5.64,22.68,7.08,35.52,4.2l.12,36A205.57,205.57,0,0,1,252,379.08q-2.7,15.48,5,23.76A531.79,531.79,0,0,0,262.2,325a1184.27,1184.27,0,0,0-7.56-128.28,62,62,0,0,0-2.4,21.12c1.08,26,1.92,52,2.28,78A132.72,132.72,0,0,1,220,297.36l-.72-.72c.36-27.48.24-54.6-.12-81.48C216.36,216.48,214.8,219,214.68,222.84Zm13.08-23.4c-25.2.84-50.28,1.44-75.12,1.56l-.48.84a11.28,11.28,0,0,0,.24,8.16q18.54,2.34,37.44,2.88a154.31,154.31,0,0,0-3,34.68c.84,43.2-.24,86.16-3,129-.6,9.72,1.08,17.52,5.28,23.28a516.59,516.59,0,0,0,5-67.32c.6-40.2-.12-80-1.92-119.52,11.52.36,23.16.12,34.8-.6l.84-1A10.68,10.68,0,0,0,227.76,199.44Zm133.92-1.92A456.79,456.79,0,0,0,364,280.44a149.13,149.13,0,0,1-6.6,64.2q-13.86,41.58-57.24,39.72a5.19,5.19,0,0,1-4.8-2.88c-7.56-16.2-10.68-34.08-9.12-53.64q4.68-63.72,6.24-127.32l-.24-.84a4.67,4.67,0,0,0-1.92-2.4c-1.68.84-2.52,2.4-2.64,4.8q-3.24,58.68-5.52,117.72c-.36,7.8-1.08,15.6-2.16,23.28Q275.1,376,293.88,399.36a40.52,40.52,0,0,0,30.84-2.64q43.74-21.78,46-72.6a607.72,607.72,0,0,0-7.56-127.44C362.28,196.56,361.8,196.8,361.68,197.52Zm30.36.6-.6,1.08h-.72a12.09,12.09,0,0,0-1.08,4.08,31.94,31.94,0,0,0-1.32,10.44c1.2,43.08.84,86-1.2,129.12A320.94,320.94,0,0,1,383.76,375c-1.56,9.72-.12,17.64,4.56,23.52a614.58,614.58,0,0,0,6.6-72.12l.48-17.76a74.48,74.48,0,0,0,36.72-.48l.48-.84a13.83,13.83,0,0,0-1.32-13.8,199.43,199.43,0,0,1-35.64,3.6q.36-44.28-2.76-87.84a153.27,153.27,0,0,0,61.44-1.68,9.26,9.26,0,0,0,1.92-4.92,10.1,10.1,0,0,0-3.36-8.88l-5.88-.36a157.05,157.05,0,0,1-54.84,5.88Z" transform="translate(-151.51 -193.44)"/></svg>