<svg id="Layer_1" data-name="Layer 1" xmlns="http://www.w3.org/2000/svg" viewBox="0 0 544.2 521.28"><defs><style>.cls-1{fill-rule:evenodd;}</style></defs><path class="cls-1" d="M303.48,295.8c8.64,3.72,13,9.48,13,17.16l-.12,4.92a5.67,5.67,0,0,1-3.12,4.2,22.46,22.46,0,0,0-3.48-7.44c-3-4-7.92-6-14.88-6q-33.84,0-47.88,24.12c-3.6,6.36-6.6,14.52-8.88,24.48q-2,7.74-5,27.72c-1.2,8.16-2.16,17.16-2.88,27.12l5.64-.36v-.6c19.08.24,28.92.48,29.28.84l34.08.6a14.56,14.56,0,0,1,2.16,7.2,15,15,0,0,1-2.16,7.32h-18c-12-.12-18.12-.24-18.24-.48l-27.36.24c-.84.48-1.8,1-3,1.56l-3.36,1.08c-.36,9.24-.48,20.16-.48,32.52l-1,12.84a161.27,161.27,0,0,0,1,27c3.48,25.92,13.8,38.88,31.2,38.88,18.36,0,32.88-4.68,43.56-14.16,9.48-8.52,16.68-21.72,21.6-39.36,2.16.36,3.48,1.8,4.08,4.44a40.22,40.22,0,0,1,.24,5.28c0,1.92-1.08,5.76-3.36,11.64a109.15,109.15,0,0,1-10.44,20c-12,18.36-25.92,27.6-41.88,27.6q-39.78,0-48.36-35.64c-2-8.28-3-18.6-2.88-31.2.6-13.56.84-22.92.84-28.2,0-14,.12-25.2.24-33.36a7.65,7.65,0,0,1-1-1.68,14.8,14.8,0,0,1-.36-4.2,15.7,15.7,0,0,1,.84-5.28l.72-1.8v-.12a354.37,354.37,0,0,1,6-49.32q1.26-30.24,15.12-49.32c7.8-10.68,17.64-17.76,29.64-21.12C285.24,291.84,294.84,292.08,303.48,295.8ZM165.12,258l10.08-9.12a53.11,53.11,0,0,0,10.08-12.36,40.16,40.16,0,0,0,4.56-19.2c0-17.52-4.56-29.64-13.56-36.24L167,175.32c-.12,12.24-.6,26.16-1.44,41.64L163,260.64ZM125.88,39.24a14,14,0,0,1,2.28,7.32,14.35,14.35,0,0,1-2.28,7.32l-14.52.48-15.24.84L90,55.56l-6.84.72L67.44,57.72l-1.2,10.92a137,137,0,0,0-1,17.64l.84,17.64.24,12.48q0,5.22-6.12,103.44l-9,145.56v41.4c-.12,1.32-.72,8.28-1.56,21.12A134.18,134.18,0,0,1,46.92,449v45.48A125.11,125.11,0,0,0,45.72,511L46,527.4c.12,13.56-1.32,24.6-4.44,32.88a5.62,5.62,0,0,1-3-4.08,37.54,37.54,0,0,1-.24-4.92c0-25,1.08-45.84,3.24-62.52V443.4q7.74-155.34,10-198.72,5.76-106,11.52-186.6L39.84,59.52c-7.68-.36-12.72,0-15.24,1.2a22,22,0,0,1-9.48,2c-3.24,0-5.4-1.44-6.36-4.32L8.16,54a10.87,10.87,0,0,1,2.64-7.44L56.52,43,97.2,39.48V39Zm17.4,0q4.86,7,6.12,30.24c.24,4.44.36,16.2.36,35q0,26.28-4.2,79.92c-3.36,43.08-5.16,68-5.52,74.64v10.56l.48,1.08a11.71,11.71,0,0,1,.6,4.08,9.79,9.79,0,0,1-1.08,4.8v81a33.2,33.2,0,0,1,1.08,4.8V475q-.54,3.78-1.08,11.52c-.36,5.4-.72,9.48-1.08,12.12v43a71.36,71.36,0,0,0-.6,7.92c-.36,3.48-1.2,6-2.64,7.56-1.56-1.32-2.52-3.72-3-7.08l-.24-5.16a45,45,0,0,1,1.08-11.28V491.28c.36-2.4.72-6.24,1.08-11.4s.72-8.88,1.08-11.4V371.16a18.89,18.89,0,0,1-1.08-4.08V283.32c-4.2,1.68-10.56,2.76-19,3.36L100.56,285l-18.84-1.68c-1.2,17.76-1.92,31.56-2.28,41.28v85.2c-.36,3.72-.72,9.6-1.08,17.52s-.72,13.68-1.08,17.4v81.12c-.24.84-1,6.24-2,16.32q-1.26,10.62-4,16.2a4.34,4.34,0,0,1-3.48-3.48,19,19,0,0,1-.36-4.44,120,120,0,0,1,1.8-16.32c.84-5.4,1.68-10.32,2.52-15V439.56c.36-3.72.84-9.6,1.2-17.4s.72-13.68,1.08-17.52V320.28c1-11.16,1.92-24.36,2.88-39.36l-.84-2.28a17.42,17.42,0,0,1-1-4V268c.12-.72,1.08-.84,2.64-.48l.48-9.84,3.48-63.36q4.68-76.14,13.92-123.6a15.55,15.55,0,0,1,2.16,7.68q0,3.24-8.4,105.12-4.14,50.76-6.72,85.2a117.13,117.13,0,0,0,24.6,2.52l27.36-3.84V253.44c.36-6.12,2.28-30.84,6-74.28q3.78-44.82,3.72-74.16c0-6.24-.6-17.4-1.68-33.36l-1.56-23.52C141.12,44.4,141.84,41.4,143.28,39.24ZM190.56,183A52.23,52.23,0,0,1,195,201c.12,1.8.24,7.32.24,16.56,0,12.24-1.8,22-5.28,29.28a57.89,57.89,0,0,1-12.72,16.92q6.12,25.38,20.64,82.68,15.66,62.28,15.72,65.76l-.12,4.2a5.47,5.47,0,0,1-3.12,4.2q-6.12-18.36-22-80.4Q174.54,285.48,172,268.56c-2.76,2.28-5.88,4.68-9.24,7.08l-.48-1c-.48,10.56-.72,22.68-.72,36.48l.12,47.16L161.52,387l-4.2,39a10,10,0,0,1-2.64-5.16,27.57,27.57,0,0,1-.6-5.4l.72-12.84q.72-11.52,1.44-18.72v-52c-.72-3.24-1.08-8.28-1.08-15,0-13.32.6-35.64,1.92-67.08q2.34-56.16,5.76-81.24l-.12-.84a9.67,9.67,0,0,1,.84-4.56l.24-1.68.6.6a3.11,3.11,0,0,1,2-1.08c2-.36,4.92.72,8.4,3.24a58,58,0,0,1,9.36,8.88A38.46,38.46,0,0,1,190.56,183Zm18.72,23-.12,13.44a116.32,116.32,0,0,0,1.44,19.08c1.2,5.16,5.4,11.76,12.6,19.68s12.6,11.88,16.08,11.88q38.88,0,54.24-42.48a137.07,137.07,0,0,0,6.84-30.12,150.8,150.8,0,0,0,1-15.72q0-59.58-32.52-121.68l-12.12-.36q-23.4,9.9-37.08,67a394.79,394.79,0,0,0-7.92,45.36A304.11,304.11,0,0,0,209.28,206Zm76.56-127.8,7.68,17.64c2.76,7.08,4.56,12.84,5.28,17.28,2.52,13.32,4.32,24.84,5.52,34.44a299.39,299.39,0,0,1,2.4,34.8q0,40.68-16,70.2-17.82,32.94-47.4,33c-8,0-16.32-5.28-25.08-16a98.37,98.37,0,0,1-8.76-13c-2.28-4.2-3.72-7.56-4.08-10.08-.84-5.4-1.32-13.32-1.56-23.76V206.52a371,371,0,0,1,2.4-38.64,404.25,404.25,0,0,1,8.28-49.68q14.58-62.1,41.76-73.8c12.6-5.64,20.76-3,24.36,7.68,1.08,3,1.92,7.68,2.76,14.28C284.28,72.48,285,76.44,285.84,78.24Zm204.84,224q0,4.14-17.88,55.8c-14,40.44-22.08,63.84-24,70.44-3.6,11.88-9.48,35.76-17.64,71.88-6.6,29-11.64,46.8-15.12,53.4-6.12-23.16-11.16-43.44-14.88-61-4.68-21.84-8-42.12-10.32-60.84-2.4,13.08-5.52,32.88-9.24,59.4-3.72,23.76-8.4,43.56-13.8,59.4-4.2-7.92-7.08-17.88-8.52-29.76-1-13.56-1.92-23.76-3-30.6C353.64,473.28,351.6,453,350,429.6l-8.76-54.24q-8.64-54-8.64-66.72c0-5.64.72-10,2.16-13.08a8.35,8.35,0,0,1,4.8,4.44,9.5,9.5,0,0,1,.6,2.88,12.05,12.05,0,0,1-1.08,4.08A12.76,12.76,0,0,0,338,311c0,1.08,2.52,16.68,7.56,47q8.1,49,9.84,64.2l6.12,55,6.24,55.2,11.64-65.64q6.3-38.34,9-67l.72-.48,1.44-1.2,12.48,66q7.92,41.94,13,67.2l.24.24L430,472.08c5.52-23.88,10.8-43.8,15.84-59.52q14.76-47,22.56-69.12,13.86-39.78,20.16-49A16.33,16.33,0,0,1,490.68,302.28ZM416,185.16c3-9.6,7.2-16.68,12.36-21.24a19.9,19.9,0,0,1,14.28-5.64A18.19,18.19,0,0,1,454.44,163c3.24,2.76,4.92,5.88,4.92,9.12l-.24,4.08a5.83,5.83,0,0,1-3,4.32,31.57,31.57,0,0,0-5.52-4.32c-2.88-1.8-5.28-2.76-7.2-2.76-11,0-19.32,9.36-24.72,28.08a138.88,138.88,0,0,0-4.8,28.8v6.6a37.28,37.28,0,0,0,2.76,12.48c4.8,11.64,15,17.52,30.48,17.52,5.16,0,9.24-2.4,12.12-7.32l2.88-5.52a9.83,9.83,0,0,1,2.64-3.84l.84,1.68.24-14.4-17.4-.84a12.33,12.33,0,0,1-1.2-11.76,6.29,6.29,0,0,1,1.8-3.12l21.12.24a10.17,10.17,0,0,1,2.4,8.28L471.24,237l1.08,19.2,1.08,19a22.44,22.44,0,0,1-2.16,10.2c-3.36-6-5.28-13.32-5.76-22.08l-3.12,7.2q-5.58,11.88-11.16,11.88c-21.6,0-35.16-8.52-40.8-25.68a53.56,53.56,0,0,1-2.52-18l.6-8.88c0-8.88.36-15.72,1.2-20.64C410.52,203.76,412.68,195.72,416,185.16ZM394.32,46.8c4.92,4.56,7.08,13.08,6.24,25.68l-1.8,15.84a139,139,0,0,0-1.08,14c0,39.48-1.68,72.12-5,97.68q-8.64,66.06-31.8,85.32h-7.56c-16.44-4.08-27.6-13.92-33.24-29.4-3.12-8.4-4.68-20.16-4.68-35.16,0-8.4.36-14.52,1.08-18.24V157.2c.6-7.56,1.2-17.16,1.68-28.56L319.44,100c1.32-22.92,3.48-41.76,6.72-56.4a5.48,5.48,0,0,1,3.12,4.08l.12,4.8q0,15.3-7.56,111.24V209a60.31,60.31,0,0,0-1.08,11.76,76,76,0,0,0,4.68,26.4c5.64,15.24,15.12,22.92,28.56,22.92,11,0,19.2-8.28,24.48-25a164.88,164.88,0,0,0,4.68-20.4L386,208.2c1.56-6.84,2.64-17,3.24-30.84.84-14.28,1.8-24.6,2.88-30.72V51.72A10.84,10.84,0,0,1,394.32,46.8Zm158,123.36a249.86,249.86,0,0,1-4.32,46.2v1.44a12.71,12.71,0,0,1,1.08,5,13.63,13.63,0,0,1-1.08,5v39.6q-.18.9-.36,11.52c-.12,4.92-1.32,8.64-3.36,10.92a10,10,0,0,1-3.12-4.32,7.92,7.92,0,0,1-.72-3.24c0-1.44.24-4.56.72-9.24.48-4.92,1-9.24,1.44-12.72V230.16l-4.92-.12-9.72-.48-4,.24-4.68.6-23-.36h-1.2c-.84,15-1.2,31-1.2,48-.84,4.08-2.28,6.84-4.32,8.4q-1.62-2.7-2.52-13.68c-.48-5.16-.72-9.24-.72-12.36,0-7.92.6-18.84,1.68-32.76a12.71,12.71,0,0,1-.6-3.72v-3.36a4.65,4.65,0,0,1,1.32-3.12l1.08-11.52c2.52-27.24,5-43.56,7.32-48.72a15.34,15.34,0,0,1,2.16,7.32c0,7.56-.84,21.84-2.64,43.08l-.6,7.2,9.84-.6,13,.12,11.28.6,12.48.48v-5.28c.6-3.48,1.44-12.6,2.64-27.24,1-11.64,2.28-20.16,3.84-25.68,1.8,1.32,2.76,3.6,3.12,6.6Z" transform="translate(-8.16 -39)"/></svg>