<svg id="Layer_1" data-name="Layer 1" xmlns="http://www.w3.org/2000/svg" viewBox="0 0 303.48 205.55"><defs><style>.cls-1{fill-rule:evenodd;}</style></defs><path class="cls-1" d="M275.52,196.2a714.36,714.36,0,0,0-2.88,75.24l.24,22.2-.12-.12L231,298.2c-.12-24.6-.84-49-2.4-73.08a213.33,213.33,0,0,0-4.32,42.24q-.54,64.44-2.76,128.16a3.29,3.29,0,0,0,2.52,2.16,214.34,214.34,0,0,0,6-44.28c.6-14.88.84-29.76,1-44.52a91.45,91.45,0,0,0,41.88-.72q-.54,46.08-3.36,91.44a2.84,2.84,0,0,0,3.72,1.68,441.41,441.41,0,0,0,7.32-77.16q.54-64.8-4.32-128.16C275.88,195.84,275.64,195.84,275.52,196.2Zm-31.8,4.44L243,199.2l-3.36,1.56L151.8,200l-.48,10.8,46,3.36q-6.48,66.42-8.16,133.44c-.24,8-.72,16.2-1.56,24.24-1,9.36,1,17.4,5.76,24a1411.56,1411.56,0,0,0,6.24-181.68l44.64-2.88A12,12,0,0,0,243.72,200.64Zm151.08-3.36a668.56,668.56,0,0,0-5.64,71.4Q387.36,333.12,385,397c.48,1.92,1.56,2.64,3.36,2.16a526,526,0,0,0,6.72-63.6l21.84-43.68a445.19,445.19,0,0,0,31.2,107.76c2.52-2,3.36-4.8,2.52-8.4q-14-52.38-31.44-103.92l24.48-47c7.56-14.4,11.28-29,11.16-43.8-8.76,19.68-18.36,39.6-29,59.88-6.6,12.48-13.68,24.72-21,36.6a86.41,86.41,0,0,0-9,19.56Q397,254.34,395.28,197C394.92,197.16,394.8,197.16,394.8,197.28Zm-38,16.2,4.68,127.44c-.84,3.72-1.8,7.44-2.88,10.92-6.6,21.24-21.36,31-44.28,29.4a5.3,5.3,0,0,1-5-3.36c-7.68-16.68-10.44-34.68-8.4-53.88a1199.39,1199.39,0,0,0,6.84-127.32c-3.12,3.12-4.8,7.2-5,12.36-1.92,36.36-4,72.6-6.24,109-.72,10.68-1.56,21.48-2.64,32.16-2,20.28,4.2,36.24,18.48,48.12q29.52,3.42,46-20.64a36.55,36.55,0,0,0,6.36-19c1.8-42.48,2.52-85.2,1.92-128.16-.12-12-1.92-22.56-5.52-31.68A22.87,22.87,0,0,0,356.76,213.48Z" transform="translate(-151.32 -195.89)"/></svg>