<svg id="Layer_1" data-name="Layer 1" xmlns="http://www.w3.org/2000/svg" viewBox="0 0 306.61 213.96"><defs><style>.cls-1{fill-rule:evenodd;}</style></defs><path class="cls-1" d="M340,401.16c3.24-25.08,5.28-50.4,6.24-76.2,1.56-43.08,1.32-85.92-.72-128.28a248.71,248.71,0,0,0-4.56,44.64c-.6,43.08-2.52,86.16-5.76,129-1,11.88.24,22.68,3.6,32.28A2,2,0,0,0,340,401.16ZM286.68,297c.36-26.28.24-52.56-.12-78.72L286,193.2a209.75,209.75,0,0,0-7.08,94.32A67.73,67.73,0,0,0,254,291.84l-3.12,1.32-4-72.84a433.38,433.38,0,0,0-3.84,82.8c.48,10.68.72,21.24.6,31.92l-1.08,64.8a1.2,1.2,0,0,0,.6,1.2q8.1-5.76,7.56-20.16c-.12-5.4-.12-10.68.12-16.08,1-20.52,1.08-40.8.36-61.08l27.6-2.16a560.36,560.36,0,0,1-3.24,85.2l-.12,4a33.84,33.84,0,0,0,3.72,12.72L280,405a253,253,0,0,0,7.44-83.64C286.8,313.32,286.56,305.16,286.68,297ZM250.2,197l-.72-1.44A563.61,563.61,0,0,0,151,201.36l.36,8.88,52.56,1L201.12,401q8.28-17.1,8.28-41.4l.36-23.76q1.26-55.26-2-110.52l-.84-14.28L250.8,207A10.82,10.82,0,0,0,250.2,197Zm123.6,15.6,41.76-.36q-1.26,94-4.2,187.44a22.67,22.67,0,0,0,1,7.44A473.41,473.41,0,0,0,423,286.32c-1-24.6-2-49.32-3.36-73.92l35.4,2.16a9.46,9.46,0,0,0,2.52-7,10.93,10.93,0,0,0-2-6L385.2,198l-11.52,4.92Z" transform="translate(-150.96 -193.2)"/></svg>