<svg id="Layer_1" data-name="Layer 1" xmlns="http://www.w3.org/2000/svg" viewBox="0 0 288.24 207.21"><defs><style>.cls-1{fill-rule:evenodd;}</style></defs><path class="cls-1" d="M231.84,218.16a857.26,857.26,0,0,0-9.48,119.28,206.53,206.53,0,0,1-2.76,32.16c-2,12.12-.72,22.8,3.84,31.92a97,97,0,0,0,4.8-27.6c.24-9.36.72-18.84,1.32-28.32.84-13.32,1.56-26.64,2-40l32.4-2.4-.72,18.48a352.41,352.41,0,0,1-5,47.64q-3.06,17.82,2.52,32.4a2.15,2.15,0,0,0,2.16-2.16c3.72-24,6.24-48.36,7.8-73a879.39,879.39,0,0,0-1-128.28c-2,30.12-3.84,60.6-5.16,91.68A134.54,134.54,0,0,0,232,294.36Q233,256,231.84,218.16Zm79.32-10.92c-2.28,43-4.32,86-6.36,129.12a492.63,492.63,0,0,0,1,64.08,1.75,1.75,0,0,0,1.08-1,558.33,558.33,0,0,0,6.72-75.36q1.26-65,1.68-128.16C312.72,198.72,311.4,202.56,311.16,207.24Zm-70.32-9.12a633.88,633.88,0,0,0-87.12,5.16l-.48.72a11.93,11.93,0,0,0,.24,8.16l44.28,1.56q-4.68,45.72-6.36,92.76-1.08,32.22-4.68,64.08c-1.32,12.12.12,22.68,4.32,31.8a520.06,520.06,0,0,0,7.08-63.24c2.28-42.12,2.52-84,.72-125.4l42-2.64.6-1A10.67,10.67,0,0,0,240.84,198.12Zm162.84.72q-20.88,2.88-31.32,23.76a185.14,185.14,0,0,0-13.92,38,247.33,247.33,0,0,0-6.6,39.36,212.71,212.71,0,0,0,1.56,47A116.93,116.93,0,0,0,368,389.52q13.14,22.5,38.64,7.92a95.59,95.59,0,0,0,25.44-21.12c-1.56,8.76,0,16.08,4.92,21.84a167.19,167.19,0,0,0,2.28-58.32l-35.64-.6L402.36,348A59.75,59.75,0,0,0,432,353.88c-11.4,16.68-27,26.88-46.8,30.84l-5.88.24a85.56,85.56,0,0,1-20.4-48.24,172.5,172.5,0,0,1,.84-43.08A219,219,0,0,1,366,264.36a192.3,192.3,0,0,1,13.2-33.48,31,31,0,0,1,16-14.52q23.22-9.54,45.72,0Q433,195.84,410.64,198Z" transform="translate(-152.64 -195.96)"/></svg>