<svg id="Layer_1" data-name="Layer 1" xmlns="http://www.w3.org/2000/svg" viewBox="0 0 297.81 212.64"><defs><style>.cls-1{fill-rule:evenodd;}</style></defs><path class="cls-1" d="M266.52,306.48a11.7,11.7,0,0,0,1.08-8l-.36-1.56-.48-1.32c.6-33.24.24-66.12-1.08-98.88-4,13.8-5.76,28.92-5.4,45.48.36,16.08.36,32,.12,47.88l-.12,4.68-13.8-.84-12.48.48q.54-39.24-1.92-78.12c-4,3.36-5.88,8.28-5.76,14.64q.9,64.26-4.32,128.16a87.17,87.17,0,0,1-2.52,15.84q-4.5,18.36,2.88,32A4.14,4.14,0,0,0,224,404.4,451.6,451.6,0,0,0,232,344.52q1.26-19.8,1.8-39.6a113.22,113.22,0,0,0,26.16,2,461.77,461.77,0,0,1-7.44,63.24c-2.28,12.12-1.08,22.8,3.48,31.92A324.65,324.65,0,0,0,262.8,364c1.56-12.84,2.52-25.8,3-38.88l.6-18.6Zm73.8-86.16a32.37,32.37,0,0,0-3.24,16.44l.36,2.16q15.66-20.34,1.56-42.48a30.48,30.48,0,0,0,.24,20.88ZM306.48,210c-1,43.08-2.28,86-3.84,129.12-.48,10.68-1.44,21.36-2.76,32q-2.52,18.9,5,31.68a717.91,717.91,0,0,0,6-77.88c1.08-43.32,1.08-86,.24-128.28Q306.66,201.54,306.48,210Zm-65.76-12.48-.72-.72a336.7,336.7,0,0,0-88,4.56,13.16,13.16,0,0,0,1.08,13l41-3.72q-2,80.46-8.4,160.44l-.6,4.56a38.7,38.7,0,0,0,4,24.84,455.94,455.94,0,0,0,9.36-99.36q-.36-30.24,0-60.48l.36-30.24,42.84-1.08C244.2,205.08,244,201.24,240.72,197.52Zm127.92,13.8c-1.56,42.72-3.48,85.44-6,128.16-1.32,22-1.8,43.32-1.68,64.2q2,2.16,4.32,0,5.22-36.72,7-74.16a23.67,23.67,0,0,0,2.76,6.24c8.64-15,17.52-30,26.52-44.76q17.64,57.42,37.32,113.76,2,2.16,4.32,0a13.07,13.07,0,0,0,1.08-11.16Q425.7,338.52,406,283.92q14.4-23.22,29.64-46.08c9.36-14,13.68-28.56,13-43.32q-26.46,41.94-52.92,85.92c-5.52,9.24-11.4,18.12-17.76,26.88a39.59,39.59,0,0,0-5.16,10c1.56-41.64,2.16-82.56,2-123C370.8,198.72,368.76,204.48,368.64,211.32Z" transform="translate(-150.83 -194.28)"/></svg>