<svg id="Layer_1" data-name="Layer 1" xmlns="http://www.w3.org/2000/svg" viewBox="0 0 538.44 455.64"><defs><style>.cls-1{fill-rule:evenodd;}</style></defs><path class="cls-1" d="M171.48,73.2l.6.36a12.32,12.32,0,0,1,1.68,5.76,10.36,10.36,0,0,1-2.28,7L104.4,87.72c1.08,38.76.6,77.76-1.44,117.24-2,42.84-3.84,85.92-5.16,129-1.32,42.84-3.24,85.68-6,128.28-1.2,19.8-2.88,39.6-4.92,59.16a3.27,3.27,0,0,1-3,3.24,479.68,479.68,0,0,1,1.2-64.08q5.22-64.26,7.44-129.12l4.2-128.28C98,164.4,100.2,126,103,87.84c-26.52.6-53,1.44-79.44,2.28l-.6-2.52a14.11,14.11,0,0,1,.84-8Q93.42,74,163.44,72.48Zm95,59.88c-.24,40-1.56,80.16-4.08,120.84-1.08,18.36-2.4,36.6-3.84,54.84a66.17,66.17,0,0,0,20.88-7.56v-1.68l.24,1.44a75.56,75.56,0,0,0,15.36-11.52,80.62,80.62,0,0,0,25-52.56,174.36,174.36,0,0,0-2.52-48.72A83.76,83.76,0,0,0,290,140.4a76.82,76.82,0,0,0-23.28-7.08Zm0-6.48.84-.72c27.24,4,44.64,19.56,52,47q17.82,65.7-17.76,122.52a46.64,46.64,0,0,1-15.72,15.24l-3.6,2.28a895.9,895.9,0,0,0,31.2,109.92c6.12,17.4,13.08,34.56,20.64,51.6s11.4,34.08,11.28,51.48a2.59,2.59,0,0,1-.72,1.68q-11.16-29-22.2-61Q301.74,406.74,285,346a148.49,148.49,0,0,1-5.52-31.2c-3.6,2.52-7.08,5-10.56,7.8a34,34,0,0,1-11.52.84c-1.68,19.56-3.48,39.12-5.52,58.56q-6.66,63.72-12.24,127.68a54.5,54.5,0,0,1-4.8,18.48q-6.3-9.54-3.24-24.12c1.08-5.16,2-10.44,2.64-15.84q8.1-64.08,14.4-128.4l3.48-37.8a5.08,5.08,0,0,1-1.68-3.48,16,16,0,0,1,1.2-8.16l.24-.72,1.2-.12,3.12-45.36c2.52-42.36,4.8-85,6.72-127.56.12-4.2,1.32-7.68,3.6-10.2Zm-45.84,2.52.12.72A782.3,782.3,0,0,0,213,258.12c.24,10.8.24,21.6.12,32.4a32.2,32.2,0,0,1,14.64,2.76l.84.6.36.72a10.36,10.36,0,0,1,.48,5.76l-.84,3.24-15.72.6c-.48,16.68-1.44,33.24-2.76,49.8q-5.22,64.26-9.24,128.28a295.54,295.54,0,0,1-5.28,40.44c-4-8.64-5.4-19.2-4.2-31.56q6.3-64.26,11.88-128.88c1.8-19.2,3-38.52,3.84-58l-66.48,3.24c-.84,21.48-1.92,42.84-3.24,64.2-2.64,42.84-5,85.56-7.2,128.4a65.3,65.3,0,0,1-5.76,24q-4.5-14.76-2.52-32.4,7-64.26,10.44-128.88,3.42-64.26,5.16-128.28,1.44-53.1,5.88-105.48c.48-5.88,2.16-10.44,5.16-13.8-3,41.88-4.92,84.72-5.88,128.28-.36,18.12-1,36.24-1.68,54.36a360.21,360.21,0,0,0,66.6-6.84c.6-19,.72-37.92.48-57a605.89,605.89,0,0,1,6.36-96A19.36,19.36,0,0,1,220,126.6Zm263.64,24a2.93,2.93,0,0,1-2.88-1.68,9.68,9.68,0,0,0-3.12-3.12Q444.12,160,436,196.92A592.29,592.29,0,0,0,425.28,260,997.15,997.15,0,0,0,419,387.12c.36,29.64,1.8,59.28,4.32,88.68,1,11.16,5.64,19.44,14.16,25a21.94,21.94,0,0,0,9.48,3.36q18.54-7,25.92-27,1.44-3.78,4.68-2.52a3,3,0,0,0,1.68-2.64,7.51,7.51,0,0,1,2.64-5.28A80.61,80.61,0,0,1,468,505.08a46.5,46.5,0,0,1-14,13.32c-21,1.56-32.88-8.28-35.52-29.52a865.39,865.39,0,0,1-6.72-121.08,1036.47,1036.47,0,0,1,9.6-128.4A213.78,213.78,0,0,1,451,155.16a47.84,47.84,0,0,1,9.48-11.28,49.09,49.09,0,0,1,12.48-8.28c10.56,1.08,14.52,6.72,11.76,16.68ZM380.64,135.36l.6.72q-1.62,63.9-.72,128.28c.24,10.68.24,21.6.12,32.52-.36,43-.84,85.92-1.68,129a558.62,558.62,0,0,1-8.88,90.6,76.85,76.85,0,0,1-2.76-32.28q6.84-63.9,8.16-128.88,1.26-64.62-.24-129.12-.9-44.28,1.08-88.56c.12-2.16,1.08-3.48,2.76-4Zm178,12.84,1,.6.24.84.24.84.24.72.84,1.92a75.58,75.58,0,0,0-36.72,19.2,57.11,57.11,0,0,0-18.48,35.88,1069.67,1069.67,0,0,0-9.24,112.68,214.93,214.93,0,0,0,31.44-7.8l13.32,1,.84.36.6,2.52.12,2.28a7.76,7.76,0,0,1-.72,2.52c-1.8,1.8-4.56,2.52-8.16,2.16l-.6.72-1.08,1a104.06,104.06,0,0,1-36,4.68l-.12,5.52q-1.26,65,2.16,129.24A126.3,126.3,0,0,0,507,504.6a35.46,35.46,0,0,0,8.64,4.08l3,1.32c15.48-5.52,25.68-16.8,30.72-33.72,1.32-4.44,3.72-7.44,7.2-8.76l.84-.36.48.48.24.72.12.84a70.7,70.7,0,0,1-14.88,41.16,58,58,0,0,1-18.48,16.2c-20.28-2.88-31-14.88-32-35.88-2.28-41.16-3-82.56-2.4-124.32q.9-64.8,4.56-129.12a138.19,138.19,0,0,1,23.4-70.68,45.93,45.93,0,0,1,30.36-20.16A17.44,17.44,0,0,1,558.6,148.2Z" transform="translate(-22.68 -72.48)"/></svg>