<svg id="Layer_1" data-name="Layer 1" xmlns="http://www.w3.org/2000/svg" viewBox="0 0 289.04 209.83"><defs><style>.cls-1{fill-rule:evenodd;}</style></defs><path class="cls-1" d="M325.44,197.16a136.49,136.49,0,0,0-3.84,28.2l-5.16,128.28a77.59,77.59,0,0,1-2.28,15.84c-3,12.6-2.16,23.16,2.64,31.8a43.15,43.15,0,0,0,4.08-11.4c1.92-21.36,3.48-43,4.8-64.8a1207.06,1207.06,0,0,0,.6-128.4C325.68,196.8,325.44,196.92,325.44,197.16Zm-49.92-2c-3.72,32.4-6,65.16-7.08,98.28l-1.08-.12a116.36,116.36,0,0,0-33.24,3.48q.72-39.6-.12-78.6a256.57,256.57,0,0,0-6.48,53.76q-.9,65-4.08,128.28c1.44,1.32,2.76,1.2,4.08-.36,2.52-17.52,4.2-35.4,5-53.52l1.32-39.12a131.48,131.48,0,0,0,34.2,2.4L268,321.48A409.43,409.43,0,0,1,264.72,370c-1.56,12.24-.12,22.8,4.2,31.8a3,3,0,0,0,1-1.68c3-25.32,5-51,5.88-77l.48-16.92.6-1.92a10.42,10.42,0,0,0-.36-6.12c.6-34.8.6-69.24-.24-103.2C275.88,194.76,275.64,194.76,275.52,195.12Zm-33.84-1.44-.84-1.56a296.64,296.64,0,0,0-89.52,10.56v8.16l43.44-1.2q-2.88,67.5-7,135c-.6,9.6-1.32,19.08-2.4,28.56a48.75,48.75,0,0,0,4.8,27,766.3,766.3,0,0,0,8-130.68l-1.56-60L240,206.76l2.16-2.4A10.92,10.92,0,0,0,241.68,193.68Zm139.56,8.52-.84-1.68q-17.46,48.06-20.88,106.32c-.6,10.56-1.56,21.12-3.12,31.56l-.6,4.08-.72,3.84a62.6,62.6,0,0,1-4.68,15.24c-6.12,13.2-6.6,26.28-1.32,39.36a691.57,691.57,0,0,0,29.28-169,407.88,407.88,0,0,0,17.16,88.32,681.45,681.45,0,0,0,23.16-90.6Q417.6,319.5,440,401.4a608.2,608.2,0,0,0-8.28-121.2l-2.16-14-3.84-28.08c-.6-4.68-1.44-9.24-2.28-13.8A95,95,0,0,1,421.92,199c.24-4.08-.6-4.8-2.64-2l-.24-.6h-.6l-.24.12a542.43,542.43,0,0,0-22.32,94.68L381.12,204Z" transform="translate(-151.32 -191.93)"/></svg>