<svg id="Layer_1" data-name="Layer 1" xmlns="http://www.w3.org/2000/svg" viewBox="0 0 555.38 451.8"><defs><style>.cls-1{fill-rule:evenodd;}</style></defs><path class="cls-1" d="M172.2,122.28a22.88,22.88,0,0,1,3.36-10.56q-2,63.54-4.44,128.28-2.7,64.08-4,128.28c-.84,43.08-3.24,85.8-7,128.28a10,10,0,0,1-2.76,6.48c-4.08-9-5.4-19.68-3.84-31.8A1277.15,1277.15,0,0,0,163,342.36l.84-37.08L107.52,307l.24,24q1.08,64.44-1.08,129.12A133.94,133.94,0,0,1,101.76,493a3,3,0,0,1-2.4-2.16q.54-64.08,2.52-128.28l.72-32.4c.6-42.72.6-85.44.24-128.28a498.58,498.58,0,0,1,7.8-94.92q-.72,63-2.4,128.28-.9,30.78-.72,61.56a187.37,187.37,0,0,1,56.4-4.56l.12.24,2.16-79.2Q167.46,167.52,172.2,122.28ZM122.52,73.92a16.41,16.41,0,0,1,1.08,4.8,11.89,11.89,0,0,1-.48,4.08l-.36.72-.48.84-.6.6Q99,84.78,76.32,83.88c1.2,39.48.84,79.2-1.2,119.4-2.16,42.84-2.76,85.92-1.92,129,.84,43.32.36,86.4-1.68,129.12A169.17,169.17,0,0,1,68,489.72a3.18,3.18,0,0,1-1.44,2.4c-3.48-6.24-4.92-14.16-4.08-23.64q5.76-63.9,5.28-128.88c-.36-43.08.36-86.16,1.92-129.12q2.52-63.36,3.6-126.84L20,80a22.28,22.28,0,0,1-3.48-3.24,16,16,0,0,1-.72-4.8,9.69,9.69,0,0,1,1-4.08l.6-.6,1-.6V66.6a6.18,6.18,0,0,1,3,1.92l.24.24L119,72.36A6.18,6.18,0,0,1,122.52,73.92ZM313.8,210.72l-1.08-.24q-7,1.26-13.32,11.52a118.43,118.43,0,0,0-17.64,60.48q-1.08,48.42,26.64,87.72,30.42,5.94,41.52-23.4Q373.5,285.06,347.4,224c-4.92-11.28-13.68-16.92-26.52-17l-1.2,1-.72.72-1.32.12-1.08.12A4.67,4.67,0,0,1,313.8,210.72Zm-64.68-59q-9.9-30.42-38.88-28.8.18,59-2.76,119l-1.2,23.76q45.18-34.56,46.2-91.68A61.94,61.94,0,0,0,249.12,151.68Zm-33.72-40.2c20.52,4,33.6,16.68,39.24,38.4q16.2,63.18-28.92,111.24Q244.62,320,268,378.48a1193.74,1193.74,0,0,1,40.8,121,15.61,15.61,0,0,1-1.08,11.4c-5.88-4.44-9.36-11.4-10.68-20.88a182.64,182.64,0,0,0-6.84-30.36q-18.9-59.76-43.8-118.32-13.5-32-23.64-64.56a34,34,0,0,1-1.56-11l-.6.6a120.61,120.61,0,0,1-14.88,12.48c-1.56,30.48-3.48,61-5.52,91.44-2.76,42.6-7.32,84.84-13.44,126.48a1.89,1.89,0,0,1-2.28,1.68c-2.28-10.2-2.28-21.12-.24-32.64a606.46,606.46,0,0,0,8-64.68q4.32-59,7.68-118.44l-4.56,2.64-1.08-1.8a14.38,14.38,0,0,1-.84-5.52,12.09,12.09,0,0,1,1.08-4.08l6-4c2.28-41.76,3.84-83.52,4.92-125.4a132.1,132.1,0,0,1,2.4-21.36l-2.52.24-.24-.72a12.19,12.19,0,0,1-.72-4.08,9,9,0,0,1,1.2-4.08l1.2-.72a50.56,50.56,0,0,1,8.64-2.16ZM363.84,252.24q14.58,66.06-21.72,121.32a27.31,27.31,0,0,1-7.08,7.32c-9.6,6.72-19.32,7.2-29.28,1.44Q270.84,330.12,277.68,267a122.16,122.16,0,0,1,21-56.76,53.07,53.07,0,0,1,13.8-7.44A9.64,9.64,0,0,0,316,201l.6-1.32.48-1.56.6-1.68a14.33,14.33,0,0,1,11.88-3Q357.06,205,361,235.8A127.35,127.35,0,0,0,363.84,252.24Zm34-100.32q-7.74,54.18-11.16,109.2-2.34,34.56-5,69.12l35-7c-2.88-19.92-5.64-39.84-8.28-59.88q-7.2-54.9-10.44-110.52Zm2.88-24.24q3.6,64.26,12.48,127.8c3,22.2,6.36,44.4,9.84,66.6l5.88-1.2c1.32,6.72.12,11.64-3.6,14.88l7.56,45.84a1004.63,1004.63,0,0,1,13.68,125.28,2.36,2.36,0,0,1-1.2,2.28c-5.16-5.52-7.92-13.32-8.4-23.4a951.5,951.5,0,0,0-10.32-95.88L418.92,339a39.05,39.05,0,0,1-9.84,1.32l-28.56,1.32-4.32,47c-4,39.72-9.6,78.84-17.16,117.6q-2.7.72-3.24-2.16c4.44-42.12,9.24-84.24,14.28-126.6S379,292.68,381.24,250A611.33,611.33,0,0,1,399.6,130.44l.12.6ZM473.76,84.6a250.09,250.09,0,0,0-53.88,5.28A69,69,0,0,1,397.68,91l-.6-1a14.88,14.88,0,0,1-1.32-5.52,9.21,9.21,0,0,1,1.2-4.8l.72-1a344.48,344.48,0,0,0,70.92-8,138.76,138.76,0,0,1,46,7l.84.6.36.72a16.48,16.48,0,0,1,.6,3.36,10.86,10.86,0,0,1-.72,5.52l-.48,1A226.46,226.46,0,0,0,477,84.6q2.88,58.5,6.6,116.76,4.14,64.26,6.48,128.28c1.56,43.08,2.52,86.16,2.88,129a216.91,216.91,0,0,1-4.92,48.6,2.39,2.39,0,0,1-1,1.44c-3.24-9.6-4.56-20.4-4-32.28,1.8-42.6,2.64-85.32,2.28-128.16s-2-85.8-5.16-128.4Q475.56,155.58,473.52,91A36.66,36.66,0,0,1,473.76,84.6Zm93.36,40.2c-8.64-13.56-21.6-18.24-39-13.8-12.6,17.76-16.56,38-11.64,60.72q13.5,63,32.88,124.8a495.17,495.17,0,0,1,15,61.92A454.79,454.79,0,0,1,568.8,484.2a46.08,46.08,0,0,1-5,16.92,107.58,107.58,0,0,1-10.92,17.28c-18-.24-30.24-10-36.84-29.16-2.64-7.92-2.16-15.12,1.56-21.72,3.72,18.6,14,29.28,31.2,32,2.16.36,3.72-.6,4.8-2.76q18-36.36,12.12-79.32c-2.76-20.52-5.88-41-9.48-61.56a719.84,719.84,0,0,0-33.12-124.08q-21.42-59.22-5-118.8c2.4-8.64,7.56-14.52,15.48-17.76,22.8-1,34.08,8.64,33.72,28.68Z" transform="translate(-15.84 -66.6)"/></svg>