<svg id="Layer_1" data-name="Layer 1" xmlns="http://www.w3.org/2000/svg" viewBox="0 0 305.52 214.08"><defs><style>.cls-1{fill-rule:evenodd;}</style></defs><path class="cls-1" d="M283.8,198.6c-2.28,31.56-4.44,63.24-6.24,95l-6.6-.84-10.2-.36-10.68.72-8.28,1.32c.12-25.32-.12-50.4-1-75.24-.6,0-.84.12-.84.24a1128,1128,0,0,0-7.08,116,289.68,289.68,0,0,1-2.16,32.28c-1.56,12.6,0,23,4.92,31.56a4.77,4.77,0,0,0,1.68-3.24c1.68-16.08,2.76-32.28,3.36-48.72.48-13.8.84-27.48,1-41.28l35,2.52-1.08,18.24c-.84,16-2.4,31.8-4.44,47.64-1.56,12.12-.24,22.8,4.2,31.92a3.7,3.7,0,0,0,.84-1.68q5.4-41.94,7.8-84.36c2.52-43,3.6-85.44,3-127.44C285,194,283.92,195.84,283.8,198.6Zm-60.36-6.24q-36.54,2.16-71,1.08a15.07,15.07,0,0,0-.6,9.72l.24.84.36.84a5.31,5.31,0,0,0,2.88.84l40.8,1.08a122.72,122.72,0,0,0-1.2,15.36q-.9,64.08-3,128.28A86.61,86.61,0,0,1,190,366.24c-2.52,11.88-1.56,22.8,2.76,32.52a5.24,5.24,0,0,0,2.88-4.56q3.06-33.84,4.56-68.16,2.34-59.58.6-119.16c16.44.24,32.64.36,48.72.36a15.27,15.27,0,0,0,.36-11.28l-.36-1-.36-.72a.87.87,0,0,0-.72-.48ZM359.52,365.28c-8.88,14.4-21.48,19.44-37.92,15-11.4-3-17.64-11.88-19-26.76a354.32,354.32,0,0,1,4.56-92.4,77.07,77.07,0,0,1,21.6-41.4,90,90,0,0,1,13.44-11c16.92,6.12,27,19.32,30,39.36a232.49,232.49,0,0,1-3.72,88.68A202,202,0,0,1,359.52,365.28ZM405.24,238.2a73.25,73.25,0,0,1,17.16-23,37.14,37.14,0,0,1,30,3.72c-2-19.2-12.6-24.24-31.44-15.12-11.88,5.76-19.32,15.48-22.08,29-2.52,12.12-4.8,24.36-6.72,36.48a257.84,257.84,0,0,0-2.76,37.32c.12,15.24-.24,30.36-1,45.6q-1.26,25,18.36,40.32,20.7,16.2,40.56-2.88l1.44-1.32,2.28,16.2A142.4,142.4,0,0,0,454,336.36l-14,1.8-1.2,9.84,10.68,2.88L447.84,369c-11.16,15-24.24,16.2-39.24,3.84-10-8.28-14.52-19.8-13.8-34.32.84-15.84,1.44-31.68,1.8-47.64a252.22,252.22,0,0,1,2.4-31.56A69,69,0,0,1,405.24,238.2Zm-51.36-42A39.52,39.52,0,0,1,342,194.28a32.45,32.45,0,0,0-10.32,6.48c-15.84,15-25.8,33.36-30,55.32a337.21,337.21,0,0,0,.24,127.44,13.72,13.72,0,0,0,3.6,7.2c13.56,14.28,28.2,15,44,2.4,14.28-11.4,23.16-26.4,26.64-44.76a326.74,326.74,0,0,0,4.32-95.52q-3.42-33.66-25-56.64Z" transform="translate(-151.27 -192.36)"/></svg>