<svg id="Layer_1" data-name="Layer 1" xmlns="http://www.w3.org/2000/svg" viewBox="0 0 455.34 335.57"><defs><style>.cls-1{fill-rule:evenodd;}</style></defs><path class="cls-1" d="M50.28,137.52c16.08-5.16,32.28-9.48,48.6-13.2a500.38,500.38,0,0,0-4.44,58.92q-1.08,64.08-3.84,128.28c-1,21.6-2.64,43.08-5.16,64.56-1.44,12.36.24,23,4.92,31.92A4.14,4.14,0,0,0,92,405.48a219.14,219.14,0,0,0,4.2-34.68q2.52-64.08,5.4-128.4,2.7-59.76,0-118.68c16.56-3.72,33.24-6.84,50.16-9.24l.48-.84c2.28-5.16,1.92-10.08-1.32-14.64A357.34,357.34,0,0,0,49.2,125.28,12.34,12.34,0,0,0,50.28,137.52Zm205-2.28a78.15,78.15,0,0,1,7.56,45.48,101.16,101.16,0,0,1-15.48,42A91.13,91.13,0,0,1,213.84,254a804.88,804.88,0,0,0,6.84-144.24C236.4,112.2,247.92,120.72,255.24,135.24ZM185.76,98.76q-4.5,59.76-8.28,120l-1.56,24.72-46.32,3.36q1.62-25,4-49.68a546.46,546.46,0,0,0,2.28-63.48,1.92,1.92,0,0,0-2.28,1.56,340.2,340.2,0,0,0-8.88,58.44c-2.88,42.6-5.28,85.44-7.08,128.28a472,472,0,0,1-6.84,63.84c-2,12.12-.6,22.56,4.44,31.2a574.74,574.74,0,0,0,10.44-91.68c.72-22.32,1.8-44.52,3.12-66.72a206.53,206.53,0,0,0,46.2,1.32l-5.52,87.24a242.66,242.66,0,0,1-4,32.16c-2.28,12.12-1.2,22.92,3.36,32.52a227.94,227.94,0,0,0,9.36-58.2c1.08-31.56,2.64-63,4.8-94.56l2.88-.36.72-1c3.12-6.12,2.28-11-2.52-14.64l1.44-17.76A974,974,0,0,0,187.44,97.2C186.36,97.08,185.88,97.68,185.76,98.76Zm29.52,6,.36,3.24.24.84,1.2.6a160.88,160.88,0,0,0-2.52,22.2q-3.6,63.9-8.64,127.56-5,63.9-12.48,127.2c-1.56,7.56-.48,15.48,3.48,23.76a5.9,5.9,0,0,0,3.36-5.28q2.88-43,7-85.44L212,271.2l.6.48,4.92.24a77.21,77.21,0,0,0,9.84-7.68,169.71,169.71,0,0,0,8,47q9.9,31,17.4,62.4a296.2,296.2,0,0,1,5.52,30.84c1.08,9.6,4.56,16.56,10.32,20.76a154.64,154.64,0,0,0-6.84-57.72q-16.74-54-29.52-108.36,45.36-48.42,35.16-115-5.76-37.8-42.36-45.72l-5,.36L220,96.36l-.72,2.76-.6.12a4.12,4.12,0,0,0-2.76,2.28l-.24.72A4.63,4.63,0,0,0,215.28,104.76ZM357.36,256.32a89.89,89.89,0,0,1-7.8,44.16c-7,15.48-18.36,24.84-34.08,28.32-17.4,3.72-29.52-2.52-36.12-18.72a133.57,133.57,0,0,1-9.84-42.6,198.33,198.33,0,0,1,2.16-44.64,225.1,225.1,0,0,1,12-43.32c6-15.36,16.56-22.32,31.8-21l.12,3.84L316,165a8.22,8.22,0,0,0,5.16,5.88,17.1,17.1,0,0,0,7.32,1.2,40,40,0,0,1,10.08,8.4,58.88,58.88,0,0,1,13.92,31C354.6,226.2,356.28,241.2,357.36,256.32ZM351,179c-9.36-20.52-26-31.92-50.16-34A20.35,20.35,0,0,0,288.24,156a256.44,256.44,0,0,0-26.76,111.6,118.59,118.59,0,0,0,16.2,62.64A30.55,30.55,0,0,0,294.6,344q39.6,13,55.08-24.36,25-60.48,7-125A109.3,109.3,0,0,0,351,179Zm133.92-78.36a10.87,10.87,0,0,0-7.44,5.4c-9.72,15.48-14.4,32.64-14,51.72q.54,30.24-.72,60.12-2.88,64.44-7.2,128.28l-3.12,44.4c-1.08,15,1.2,28.56,7.08,40.68a18.47,18.47,0,0,0,14.28-1.92,66.78,66.78,0,0,0,9.72-13.56c2.52-4.68,5.16-9.24,7.8-13.68,6.24-10.32,5.88-18.72-1-25.2a5.84,5.84,0,0,0-1.68,2.52,97.32,97.32,0,0,1-19,32c-3.72,2.16-6.36,2-8-.24Q460,353.46,464,296.76l1.44-20,2,.24,2.16.12a52.88,52.88,0,0,1,19.8-5.88,21,21,0,0,0,1.56-3.36,15.9,15.9,0,0,0-2.4-14.52l-3.72-.36q-8.82,4-18.36,7.2l2.64-42.84A357.82,357.82,0,0,0,469,172c-1.32-20,2.88-38.16,12.6-54.48l2-.84c2-1.2,3.72-1.08,5.28.48a12.65,12.65,0,0,1,2.64,3.6c3,6.72,6.6,11.76,10.68,15.12a8.82,8.82,0,0,0,1.2-4.92,46,46,0,0,0-11.76-28.32l-1.68-.72Zm-43.08,5.4q-5.58,63.72-6.48,128.28c-.6,43.32-3.24,86.4-7.8,129-.6,5.88-1.08,8.28-1.68,7.08l-4.2,22.08c-.84-11.64-2.16-23.16-4-34.68q-9.54-63.18-20-126.36-10.62-63-18.6-126a11.87,11.87,0,0,0-2.52,6l-.72-10.32a114.55,114.55,0,0,0-5.16,31.08q-2.16,63.9-3.48,128.4c-1.08,43.32-3.48,86.28-7.44,129.12-.6,5.88-1.2,8.16-2,6.84l-.12-.36c-1.32,1.92-1.32,4.32.12,7.2l-.12.84a34.86,34.86,0,0,0-.24,21,3.53,3.53,0,0,0,4.08,1.44,191.55,191.55,0,0,0,6.24-36.48c3.24-42.6,5.4-85.32,6.72-128.28.36-10.92,1-21.72,1.68-32.4a957,957,0,0,0,1.32-99.84q4.32,56.52,13.68,112.44,10.44,63,16.8,126.6A295.35,295.35,0,0,0,421,431.52a2,2,0,0,0,1.8-2.16v-11a33.8,33.8,0,0,0,2.52,4.56,627.09,627.09,0,0,0,16.56-126.6q2-63.9,4.32-128.28a470.5,470.5,0,0,0-1.92-64.08C442.8,103.8,442,104.52,441.84,106.08Z" transform="translate(-48.07 -96.36)"/></svg>