<svg id="Layer_1" data-name="Layer 1" xmlns="http://www.w3.org/2000/svg" viewBox="0 0 304.52 215.32"><defs><style>.cls-1{fill-rule:evenodd;}</style></defs><path class="cls-1" d="M309.12,309.72,316.44,296l.6,2.88a11.89,11.89,0,0,0,9.84-1.8,6.45,6.45,0,0,0,2.28-2.52c-.36,10.2,2.4,18.48,8.4,24.84.72-17.88-3.24-34.2-11.76-48.84-13.56,9.24-19.2,22.32-16.92,39.48Zm9.84-19.2c1.8-4.32,3.48-8.64,4.8-12.84a32.26,32.26,0,0,1,4.32,10.68A16.84,16.84,0,0,0,319,290.52ZM264.6,197.76a387,387,0,0,0-6.48,52.8L255,300.84c-9.12-.6-18.24-1.68-27.24-3h-.48l-4.32.36-5.28,1q.9-35.82.12-71a535.55,535.55,0,0,0-6.72,76.2,567.06,567.06,0,0,1-4.8,64c-1.68,12.12-.24,22.8,4.2,31.92a372.39,372.39,0,0,0,4.92-43.92c.84-14.52,1.56-28.92,1.92-43.32l36.6,2.4q-2.34,31.68-5.4,63.36-1.62,15.3,5.76,23.4a32.09,32.09,0,0,0,3.84-13.8q1.62-36.18,3.72-72.36h.6a12.11,12.11,0,0,0,2.4-9.36l-.12-.84a8.81,8.81,0,0,0-1.44-4.08l-.6-.36,2.76-41.16c1.56-22,2.28-43.44,2.16-64.2h-.24A3.41,3.41,0,0,0,264.6,197.76ZM248.4,202l.24-2.64v-1.2l-.24-1.44-.12-.72-.84-2.4-.48-.84A274.64,274.64,0,0,0,209.4,189a182.1,182.1,0,0,0-42,3.12,39.69,39.69,0,0,0-17.52,8.4l.12,8,41.52-3.6q-4,57.42-6.48,115l-2,52.56a165.75,165.75,0,0,0,1.8,31.68,297.92,297.92,0,0,0,6.48-41.64c1.32-14.28,2.4-28.44,3.24-42.6a995.4,995.4,0,0,0,.6-115.08,364,364,0,0,1,51.12,1.68A8.5,8.5,0,0,0,248.4,202ZM363.84,319a160.79,160.79,0,0,1-14.64,45c-7.68,15.48-20,21.84-37,18.84a66.39,66.39,0,0,1-11.16-3.48,100.53,100.53,0,0,1-11-23.88,103.19,103.19,0,0,1-4.56-30.24A256.25,256.25,0,0,1,296,249.36q10.44-35.64,37.92-39.24l4.56-.72,11.88,7.08,6,15.48a181.9,181.9,0,0,1,8.76,39.84A177.23,177.23,0,0,1,363.84,319Zm1.92-94.08c-3.48-20.28-15-30.48-34.56-30.36a43.81,43.81,0,0,0-19.32,9.6,70.68,70.68,0,0,0-23.76,38.52,304.47,304.47,0,0,0-3.36,127.92c3.84,20.16,16,30.24,36.36,30.36,13.8,0,24.24-6.6,31.2-19.92q30.42-58.14,19-124.2Zm43.08-25.56q-14.76,61.74-26.28,124.08a373.65,373.65,0,0,1-12,47.28c-3.72,11.4-4.44,22-2.28,31.44A124.27,124.27,0,0,0,381,367.32q13.14-63.18,25.68-126.72c-.12,20.76,0,41.52.36,62.16.12,8.52,2.16,15.24,6.12,20a467.7,467.7,0,0,0,23-82q5.58,63.9,7.08,128.16c.24,12.36,3.24,22.56,8.88,30.6a4.77,4.77,0,0,0,1.68-3.24,141.31,141.31,0,0,0,.12-23.64l-10.44-128a121.62,121.62,0,0,1,0-16.2c.72-12.12-1-22.56-5.16-31.2-7.32,31.8-15.36,64-23.88,96.6a420.5,420.5,0,0,1-.24-49.2,151.81,151.81,0,0,0-4.08-47.16A3.48,3.48,0,0,0,408.84,199.32Z" transform="translate(-149.88 -188.84)"/></svg>