<svg id="Layer_1" data-name="Layer 1" xmlns="http://www.w3.org/2000/svg" viewBox="0 0 309.04 208.96"><defs><style>.cls-1{fill-rule:evenodd;}</style></defs><path class="cls-1" d="M271.68,290a100.38,100.38,0,0,0-31.8,3.36q-.54-36.9-2.64-73.44c-.36.12-.48.24-.48.36q-3.42,44.46-3.6,90a583.12,583.12,0,0,1-3.6,64.8q-1.62,14.58,5,23.4a326,326,0,0,0,4.92-50.28q.54-22.5.36-44.64h38.4c-1.08,22.2-2.64,44.52-4.68,66.72-1.08,12.6.6,23,5.28,31.44A30.94,30.94,0,0,0,283,387.24q2.88-63.9,5.16-128.16c.84-22,1.2-43.44,1.08-64.2a132.6,132.6,0,0,0-8.88,47.28c-.24,16.44-.72,32.76-1.44,49.08Zm-30.36-93-47-2.88a140.4,140.4,0,0,0-45.36,4.56l-.84,8.76,46.2.12c-1.08,41.28-3.6,82.44-7.8,123.36a241.11,241.11,0,0,0,1.8,64.44,17.72,17.72,0,0,0,3,7.44q4.32-45.9,6.48-91.8A804.07,804.07,0,0,0,196.2,207.6l45.36.72Zm125.4,161.64q-11.16,32.94-47.16,20.4a21.92,21.92,0,0,1-4.2-5.4c-11.76-22.2-15.48-46.68-11.16-73.2A152.21,152.21,0,0,0,305.88,274c-1.2-33.24,13-55.92,42.6-67.8,4.32-.72,7.44.72,9.48,4.2,14.64,25.8,21.36,54.36,20.16,85.44A222.12,222.12,0,0,1,366.72,358.68Zm30.24-151c-1.68,43.08-3.12,86-4.44,129.12-.36,10.8-1.08,21.6-2.4,32.28-1.56,12-.6,22.8,2.76,32.4a2.05,2.05,0,0,0,2-2.16c2.76-22.92,4.44-46.08,5-69.72,6.6-10.8,12.84-21.84,18.84-33A136.1,136.1,0,0,0,422,327.72c3.84,17.4,7.2,34.68,10.08,52,1.56,9.48,4.92,17,10,22.44a3.4,3.4,0,0,0,1.32-3.24q-8.82-55.62-19.8-111,14-26.64,26.28-54.84C455.4,220.32,457.8,208,457,196h-.24L454.56,197,434.64,243.6a241.83,241.83,0,0,1-25.56,46.32,76.7,76.7,0,0,0-8.76,16.2q.72-55.44.6-109.68C398.52,199,397.2,202.8,397,207.72ZM362.88,196.2l-6,.24c-15.72-3.48-28.8,2.16-39.24,17.16A96.56,96.56,0,0,0,301.08,257c-1.8,14.52-3.12,29-3.72,43.56q-.72,18.18,0,36a110.92,110.92,0,0,0,10.92,44.16c5.4,10.92,14.4,16.56,27.24,16.92,17.52.6,29.4-7.56,35.64-24.24A216.29,216.29,0,0,0,382,332.52a237.28,237.28,0,0,0,3.24-45.12A212.91,212.91,0,0,0,366,202.8Z" transform="translate(-148.08 -193.88)"/></svg>