<svg id="Layer_1" data-name="Layer 1" xmlns="http://www.w3.org/2000/svg" viewBox="0 0 451.53 355.95"><defs><style>.cls-1{fill-rule:evenodd;}</style></defs><path class="cls-1" d="M38.4,143l26.52,1A307.68,307.68,0,0,0,107,142.92c-3.6,29.16-5.76,59.28-6.6,90.12q-1.62,64.08-5,128.16-1.62,31.86-2.88,64.08c-.36,9.72,1.56,17.52,5.76,23.28a530.24,530.24,0,0,0,4.08-60.84q.9-64.08,4.32-128.16,3.24-59,2.16-116.88c9.84-1.08,19.68-2.52,29.4-4.56,11.64-2.4,21.84-2.4,30.84-.12,4,.84,6.36-1,7-5.64a10.15,10.15,0,0,0-3.48-9.72l-11.28-.36A511.62,511.62,0,0,1,38.4,131.52a10.59,10.59,0,0,0-1.2,10.2l.36.84Zm164.28-13.2A512.26,512.26,0,0,0,191,230L190,281.64a5.48,5.48,0,0,0-2.52,1,11.83,11.83,0,0,1-3,1.56l-1.08-.6A68.63,68.63,0,0,0,164.52,279l-23,2.52.24-3.84q4-64.62,4.68-127.44c-.48-.12-.72-.12-.84.24a267.47,267.47,0,0,0-7.8,57.36l-2.52,76.8-.12.24a18.56,18.56,0,0,0-.12,5.76L133.2,337q-2.52,63.9-4.44,127.32c.6,2,1.68,2.52,3.48,1.68,1.32-19.8,2.28-39.6,3.12-59.4q2-56.52,5.4-112.68a61.42,61.42,0,0,0,20.28-1.2,12.27,12.27,0,0,1,8.28.72c7.32,3.48,14.16,4.2,20.28,2.28L187.8,359c-.72,21.48-2.16,42.72-4.32,64-1.32,12.36.24,22.56,4.56,30.72a3.18,3.18,0,0,0,1.44-2.4,584.07,584.07,0,0,0,4.68-64.92q1.26-64.26,3.24-128.28t7.08-126.6l-.72-.84Zm166.8,56.88q-13.32-38.7-51.36-50l-3,1.44a4.28,4.28,0,0,0-1.2,1.32l-.6,1.56c-11-1.44-22.2,1.2-33.36,7.8a103.88,103.88,0,0,0-36.84,37.08,160.08,160.08,0,0,0-19.92,55,442.7,442.7,0,0,0-2.28,127.8q4.86,40,35.28,65.64,25.74,21.78,57.36,12.36a48.49,48.49,0,0,0,24.72-16.92q39.6-51.12,46-116.28A297.94,297.94,0,0,0,369.48,186.72Zm-8.76,190.8c-8,24.12-23.4,41.4-46.2,52.08a25.07,25.07,0,0,1-10.92,2.52q-57.42.54-70.92-54a315.46,315.46,0,0,1-5.4-127.2,166,166,0,0,1,18.48-54.24q20.88-38,62.64-45.36a54.79,54.79,0,0,1,37.2,17.76,69.4,69.4,0,0,1,12.6,19.44,235.47,235.47,0,0,1,17.16,124.92A335.09,335.09,0,0,1,360.72,377.52ZM481.8,139.32q1.08,64.44-1.32,128.28l-.72,16.8a98.76,98.76,0,0,1-26.52-1.08l-10.56.72-2.52.72,1.08-18.84q4.32-64.44,6-127.32c-5.88,12.72-8.76,27-8.76,43-.12,43.08-1.8,85.8-4.8,128.28q-4.5,64.26-10.8,128.16c-.72,7.56,1.32,12.36,6,14.64a322.79,322.79,0,0,0,6.72-58.44q1.08-48.78,3.84-97.2a62.7,62.7,0,0,1,10.44,1.56c10.56,2.4,20.28,2.28,29.16-.48-1.8,32.88-4.2,65.76-7.44,98.52a279.45,279.45,0,0,0,.6,64.2c1-.36,1.44-.84,1.56-1.32q5.94-41.94,8.16-85,3.24-64.08,5-128.28,1.8-65,.36-128.28C483.48,124.08,481.68,131.16,481.8,139.32Zm-69.6-23.76-48.84,8.16-.24,8a25.93,25.93,0,0,0,15,3.24l31.68-3.36-7.2,172q-3.24,79.74-.72,157.92a19.13,19.13,0,0,0,.72,3.6,4.11,4.11,0,0,0,2.76-3.84q7.56-159.3,11.64-319a86.71,86.71,0,0,0-.36-11.16l28.44-.72,1.08-2.4.6-2.52a13.64,13.64,0,0,0-.36-4.44,16.48,16.48,0,0,0-1.32-4.32l-.36-.48a52.59,52.59,0,0,0-8.76-2.52,40.41,40.41,0,0,0-21.36,1.08l-1.2-4.44Z" transform="translate(-36.43 -110.4)"/></svg>