<svg id="Layer_1" data-name="Layer 1" xmlns="http://www.w3.org/2000/svg" viewBox="0 0 300.96 214.18"><defs><style>.cls-1{fill-rule:evenodd;}</style></defs><path class="cls-1" d="M220.8,229a627.37,627.37,0,0,0-8.52,107.88,241.48,241.48,0,0,1-1.8,32.28c-1.44,11.88-.12,22.68,3.84,32.4a168.3,168.3,0,0,0,5.88-44.4l.48-53.16a275.1,275.1,0,0,1,35.88-.84l-.6,46.44a160.9,160.9,0,0,1-2.16,24.12c-1.8,11.88-1,22.68,2.64,32.4a2.15,2.15,0,0,0,2.16-2.16,733,733,0,0,0,4.92-74.64c.72-43.56-.48-86.64-3.48-129-3.12,5.64-4.56,12.48-4.32,20.28.6,22.44.84,44.76.84,67.08a72.9,72.9,0,0,0-21.72-.84,86.3,86.3,0,0,1-14,4l.48-61.8Zm94.44,79.2c17.4,15.24,23.52,34,18.6,56-1.68,7.44-5.88,12.72-12.48,15.72-12.36,5.4-22.68,3.48-31.08-6-11.64-13-14-27.72-7.44-44.4a50.35,50.35,0,0,1,13.68-19.44,28.56,28.56,0,0,1,16.44-2.4ZM287,304a70.29,70.29,0,0,0-15.6,33.36q-6.3,35.46,19,57c6.6,5.76,14.28,6.84,22.92,3.36q36.9-14.58,31-56.16A140.39,140.39,0,0,0,340.44,323c-5.52-19.32-18-28.92-37.44-28.68A28.07,28.07,0,0,0,287,304Zm-65.76-102.6a278.84,278.84,0,0,0-44.88-1.44,117.51,117.51,0,0,0-24.24,1.44l-1.2.48a15.42,15.42,0,0,0-.84,4.08,11.22,11.22,0,0,0,1.2,5.52l.72,1,32.52,1.32c-1.08,39.72-2,79.56-2.88,119.28a242.34,242.34,0,0,1-3.36,36.36c-2,12.12-1.08,22.8,3,31.92a3.41,3.41,0,0,0,1.44-2.52,523.67,523.67,0,0,0,6.12-67.32c1.08-39.48.6-78.72-1.68-117.72l34.08.84a9.15,9.15,0,0,0,2.28-4.56,12.78,12.78,0,0,0-1.08-7.32l-.36-.84A1.93,1.93,0,0,0,221.28,201.36Zm209.4,10.08a55.59,55.59,0,0,1,12.48,10q1.62-17.1-15.12-25.92l-2.28-1c-15-5.64-28.44-2.16-40.2,10.44a78.84,78.84,0,0,0-18.84,35.28,435.18,435.18,0,0,0-8.52,46.56c-2,15.72-3.48,31.56-4.2,47.4a87.17,87.17,0,0,0,9.36,43.44c7.32,14,18.72,22.08,34.2,24.36,16.44,2.52,30.36-2,42-13.92l1.2-1.32,2.4,13.68c8.52-19.08,10.2-39.12,4.8-60.36l-30.6-1.32.24,7.8,26.64,6-1,9.36-.6-1.56a101.39,101.39,0,0,1-20,21.12,27.2,27.2,0,0,1-16.92,6.24,54.56,54.56,0,0,1-12.48-1.44,53.4,53.4,0,0,1-13.2-5.64,28.33,28.33,0,0,1-13.56-17.76A206.18,206.18,0,0,1,359,304.2a158.9,158.9,0,0,1,18.72-73.44c7.68-14.28,18.84-22.2,33.6-23.64A32.34,32.34,0,0,1,430.68,211.44Z" transform="translate(-150.1 -191.9)"/></svg>