<svg id="Layer_1" data-name="Layer 1" xmlns="http://www.w3.org/2000/svg" viewBox="0 0 545.26 357.76"><defs><style>.cls-1{fill-rule:evenodd;}</style></defs><path class="cls-1" d="M322.44,329.88l13.32-39-2.16,34.68ZM310.56,277.8Q292,333.06,278.16,390.48A463.29,463.29,0,0,1,269.64,312c-.24-10-2.52-18.48-6.72-25.44A2.71,2.71,0,0,0,261,289a759.88,759.88,0,0,1-17.52,97.68,399.36,399.36,0,0,1-8.4-49.08c-1.08-10.08-1.8-20.16-2.4-30.24-.72-11.16-4-19.44-9.72-25.08q4.5,33.3,8.16,67.44A333.9,333.9,0,0,0,243,410.4l1.08-1.68a498,498,0,0,0,19.2-95.4q1.8,25.2,3.24,50.4c1,17.4,5,33.12,12.12,47a700.13,700.13,0,0,0,20.52-70.56,175.8,175.8,0,0,1,7.32-23.76c5.16-13.32,6.72-26.28,4.68-38.76ZM119,106.44,91,111.6,63,117l-27.84,5.28v8.16A239.5,239.5,0,0,0,118.8,117Q110,272.16,112.2,424.8A2317,2317,0,0,0,121,116.52a137,137,0,0,1,62.4,2.52c-.36-17.4-11.28-23.76-32.52-19.08C140.28,102.36,129.72,104.52,119,106.44Zm199.32,24.72q11.16,53.82-19.92,98.28l-6-.24A113.2,113.2,0,0,1,290.88,182c2.88-16.44,1.68-31.44-3.6-45.12a320.37,320.37,0,0,1-3.48,64.68c-2.28,14.64.84,27.48,9.36,38.64,1.32,1.8,2.64,1.92,3.84.48q42.3-50.22,23.88-114.6Q317.46,127,318.36,131.16ZM200,194.88c.6,22,1.08,43.8,1.2,65.76-17.4-1.68-33.48,1.08-48.24,8.4l.48-6.12a1031.78,1031.78,0,0,0,2.64-127.56A270.69,270.69,0,0,0,149.88,188c-.84,31.92-1.92,63.84-3,95.88s-3.12,63.84-5.76,95.64a317.31,317.31,0,0,0,1.2,64.2c.6-.24,1-.6,1-1a1077.23,1077.23,0,0,0,7.32-115.08c.12-16.56.72-33,1.8-49.44a129.73,129.73,0,0,1,49-4.08L201,323.88a552.61,552.61,0,0,1-4.44,64.8c-1.56,12.12-.24,22.8,4.2,31.8a42.27,42.27,0,0,0,3.84-16.2c1.8-42.84,2.76-85.92,3.12-129.12s-1-85.92-4-128.28A213.52,213.52,0,0,0,200,194.88Zm26.4,2.4q-3.6,33.3,22.68,50.4c2.76,1.8,5.16,1.56,7.2-.84,18.12-21.72,25.08-47,21-76.2-2.52-17.76-10.08-32-22.68-43q-16.92,11.88-22,33.12A293.36,293.36,0,0,0,226.44,197.28ZM262.2,151.8q17.28,26.82,7,60.6a80.46,80.46,0,0,1-12.72,25.2c-18.24-6.24-26.88-20.52-26-43a84.25,84.25,0,0,1,9.36-35.76,59.89,59.89,0,0,1,15.36-19.08l6,6.6Zm92.4,171.84-12.36-.24a153.65,153.65,0,0,0-5.16-47.88,284.77,284.77,0,0,0-24.24,57l-1.32,3.6-5.76,4.32c-2.52,17.4-5.4,35-8.64,52.68l19.44-47.4L333.48,338l5.28,60.48a497.39,497.39,0,0,0,2.52-63l13.44-5.16ZM372.84,281l2.4-7.44,3-1.32q18.54,27.54-4,49.2l1.56-32.76Q355.14,336.6,360.48,380l11.28-50q4.86,45.9,36.48,68.76a11.86,11.86,0,0,0-.24-12.12l-4.32-2.16a237.87,237.87,0,0,1-27-55.2c18.72-20.76,19.56-42.12,2.4-64.32-4.92,3.72-7.08,9.24-6.6,16.44Zm17.76-92.16c-2.4,21-1.08,40.56,3.84,58.68l.36-.84a905.13,905.13,0,0,0,3.72-116.88Q394.2,158.1,390.6,188.88Zm-10.32,4.56a609.51,609.51,0,0,0-3.6,61.44l.48-.6a158.5,158.5,0,0,0,4.08-68.16,137.24,137.24,0,0,1-14.88,4.08,16.53,16.53,0,0,0,13.8,2.52Zm-16.68-63A120.84,120.84,0,0,0,341,175.08c-4,14.76-2.64,28.68,4.2,41.88,9.84,19.32,18.12,17.64,25-4.8,2.52-8.4.48-15.84-6-22.2a14,14,0,0,0,.36,9.36,18.18,18.18,0,0,0,4.8,6.84c-.48,8.76-4.44,13.08-12,13-4.32.48-7.2-1.68-8.52-6.6-7.2-26.28-2.4-50.28,14.52-71.76l4.8.24,2.16,2-2.16-11.76ZM424.8,138l-7.92,44.28-17.76,9,.72,8.16L415,194.52a101.13,101.13,0,0,0,.12,16,76.5,76.5,0,0,0,6.48,24.12,6.28,6.28,0,0,0,1.2-3.24c.12-7.44.24-15,.12-22.56-.12-6.36,0-12.84.48-19.2l1.08-1.68.6-1.68-.12-1.68-1-3.24,3.24-46.44Zm151.44,12.84c5.4-18.48-.6-31.2-17.76-38.28q-27.18,20.34-26.64,56.88A326.12,326.12,0,0,0,554.4,283.92c4.08,10.44,8.64,20.64,13.56,30.72,7.08,14,8.52,28.44,4.56,43a13.59,13.59,0,0,1-7.68,9.24c-32.16,15.48-61.2,12.6-87.24-8.88a10.41,10.41,0,0,0,1.8,8c13.56,19.08,32.88,27.6,58,25.8,26.76-1.92,41.16-15.48,43-40.56a30.86,30.86,0,0,0-1.56-12.48Q557.34,277.38,538.2,215.4q-14-45.18,12-83.88a6.39,6.39,0,0,1,4-2.76c12.6-2.28,19.68,3.84,21.36,18.12a4.74,4.74,0,0,0-.48,2.52l.36,1.56.36.6Zm-41.88-62a27.52,27.52,0,0,0-18.12-2.16,962.49,962.49,0,0,1-128.76,4,5.06,5.06,0,0,0-1.2,2.4,13.15,13.15,0,0,0,.6,5.76l.24.84a368.77,368.77,0,0,0,89.16,3.12,312.21,312.21,0,0,0-2.88,40.2q-.18,64.62-6.12,128.28-6.12,64.26-8.4,128.16c.6,2,1.68,2.52,3.48,1.56a198.67,198.67,0,0,0,6.72-48.6q.9-64.44,7.68-128.16a644.25,644.25,0,0,0,1.68-121.68L494,100.8q18-2.34,30.6,1.8a3.51,3.51,0,0,0,3,2.52l1.08.12,5.4-2,1.08-.6.84-1.8a14.63,14.63,0,0,0,.36-9.6l-.72-1.68Z" transform="translate(-35.16 -86)"/></svg>