<svg id="Layer_1" data-name="Layer 1" xmlns="http://www.w3.org/2000/svg" viewBox="0 0 566.52 482.64"><defs><style>.cls-1{fill-rule:evenodd;}</style></defs><path class="cls-1" d="M233.4,62.88l-1,19.92c-.72,13.44-1.08,23.4-1,30,.12,10.92.48,27,1.08,48.36,0,4.68-.36,16-1.2,33.72-1,21-1.92,35-2.88,42v49.56l-4.2,60c-1.56,23.4-2.28,43.68-2.28,61q0,10.08-1.44,29.52c-1.08,14.52-1.68,24.6-1.8,30.48L218.52,497a169,169,0,0,1-3.24,30.24c-1.2-2.76-1.92-7-2.28-12.36l-.24-12.12q0-15.48,4.8-109.56c2.76-53.64,4.68-89.76,5.88-108.12l-1.08.24-43.92,5.16-14-.36-1.8-.84-2.4,31.56-8.64,111q-4,53.28-4,69.6c0,6.12-.12,10-.24,11.76q-.54,7.38-3.24,11.88c-1.32-1.32-2.16-4.68-2.52-10.32l-.24-9.24q0-25.92,4-75.36l8.88-100.08Q167,183.24,167,84.24A5.52,5.52,0,0,1,170,79c.72,3.72,1.32,8.4,1.92,14.28l.84,10.08q0,48.42-9.36,175.32l1.44-.12,13.8-.48,19.08-3.12,15.48-2q7-.54,10.44,1.08V232.8c3.72-14,5.4-31.68,5.16-52.68-1.08-23.64-1.68-41.28-1.68-52.68q0-47.7,4.56-69.84L233,59.88A9.69,9.69,0,0,1,233.4,62.88Zm-47.88.84q-.9,1.62-4.68,2.52l-45.72,4.08c-16.2,0-25.8.24-28.92.72,1.56,7.32,2.88,20.88,4.2,40.56s2,33.24,2,41.28l-1.68,29.4c-1.08,18.24-1.56,36.36-1.56,54.48,0,15.72,0,25.68.12,29.76.24,7.08,1,18.48,2.28,34v52l1.08,4.92v55.92l1.56,40.2.6,25.56c0,7.08-.12,13.2-.36,18.6-.6,11.64-1.56,18.84-3.12,21.72-1.8-1.56-2.76-4.08-2.76-7.44a60,60,0,0,1,1.32-8.52V453.12c-.36-3.84-.72-9.6-1.08-17.4s-.72-13.8-1.08-17.52V361.32a33.2,33.2,0,0,0-1.08-4.8V302.88c-.6-9.24-1.08-22.68-1.44-40.2l-.36-25.92c0-21.84.6-41.4,1.68-58.68s1.8-37,1.8-58.92a170.22,170.22,0,0,0-2.76-29C103.8,79.92,103,74.16,103,73l.12-1.68-26.88.48c-1.56.72-8,1.56-19.56,2.64a28.07,28.07,0,0,1-7.44.12l-9.84-.6c-8.52-.36-14.28,1-17.16,3.72l-7.8-.24-1-2-.24-2.88V69.12c.36-.84,1.68-1.44,3.72-1.8L57.24,63l14-1.08q4.5-.54,5.4-1.08l29.76-.48,15.24-1,14.52-1,45.12-4c2.52,0,4,.36,4.32,1.2l.12,3.72ZM285.6,76.56c4,5.16,6,10.08,6,14.52,0,9.48-2.88,17.64-8.52,24.36-4.68,5.64-11.88,10.8-21.48,15.72l-.12.6c0,7.08,4.56,26.88,13.8,59.16,4.68,16.08,9.24,31.44,13.8,46.2a9.2,9.2,0,0,1-.48,3.24l-.84,2.52-1.08.72c-3.36-6.6-8.88-23.64-16.56-51.36-7.92-28.68-12-48.48-12.36-59.28l-6.12,2.76c-3.84,46.44-6.72,79.08-8.76,97.68l-.6.48-1.08.84c-1.32-1.68-1.92-4.44-1.92-8.28q0-27.54,6.24-90.12,5.22-53.1,9.24-71.76c-.6-.36-.84-.6-.84-.84,0-2.28.72-3.84,2.16-4.56l.24-1,.6.48.12.12,2.76-.24q5.4.54,13,5.76A52.1,52.1,0,0,1,285.6,76.56Zm-14.4-4.32c-6.72-2.76-11.52-4.8-14.28-6.24l-4.56,60.48,1.2-.72,5.52-3.36a4.73,4.73,0,0,1,1.92-2.52l.6,1,6.12-3.84c13.68-9.24,20.52-18,20.52-26C288.24,84.24,282.6,78,271.2,72.24ZM373.44,321.12q4.68,54.54,7.92,103.44Q386,492.24,386,520.32a30.91,30.91,0,0,1-.6,5.28,21.59,21.59,0,0,1-1.92,5.76c-2.76-6.6-5-22.44-6.72-47.52-1.32-19.68-1.92-38-1.92-55.2,0-4.68-.84-19.68-2.64-44.88L369.48,343c-.12-4.2-.6-11.28-1.44-21.36l-9,.48-21,.84-24.84,1.92-24.12-1.2q-7.56,39.78-19.56,93.24l-27,118.2c-1.32-.36-2.28-1.8-2.64-4.32a50.92,50.92,0,0,1-.24-5.4q0-3.6,21.12-97.92,15.12-67.5,22.44-105.24l-1.32-.6c-1.32-.72-1.92-1.56-1.8-2.64l.6-2.28a19.8,19.8,0,0,1,.36-4.08l4,.12,3.6-21.12c2-10.8,6.48-30.36,13.44-58.56,6.12-24.6,10.2-44,12.24-58.2,2.88-19.8,6.6-39.36,11.28-58.92A469.54,469.54,0,0,1,340,65.52L340.2,62c.36-1.56,1-2.64,1.92-3l.24.84.6,1a5.54,5.54,0,0,1,.6,2.76l-.12.72q11,48.06,26.64,219.6l2.28,24.84,2.28.12a9.12,9.12,0,0,1,1.92,6.12,9,9,0,0,1-2.16,6Zm-7.8-25.8c-2.28-23.88-3.48-36.24-3.48-37.2q0-17.46-11-104.4L341.28,76.2Q336.6,98.88,322.68,161q-23.22,103.68-29.28,138.6l-2.4,13.8,3.24.24c15.48,0,25.32-.48,29.64-1.44A83.87,83.87,0,0,1,338.64,310l17.88-.36,8-.48,1.32-.36h1Zm213.6-235.8.48,5.4q0,10.44-13.08,111c-9.24,70.68-14.16,112.32-15,125q-5.4,77.94-9.84,117.24c-5.16,44-12.24,83.28-21.36,118L496,435c-10-40.44-18.84-74.28-26.88-101.52l-.24-.48c-3.72,22-8.76,55.08-15.36,99.48-6.36,39.24-13.44,72.48-21.24,100q-5.58-11.16-6.48-28.8c-.12-13.08-.48-22.8-1.32-29.16-.84-6.6-1.56-16.32-2-29.16-.6-13.08-1.2-22.92-2-29.28-1.56-12.6-3-32-4.56-58.44-1.56-25.56-3.12-45.12-4.92-58.44Q407.28,272,391.08,164c-9.36-62.28-14-95-14-98.52a14.68,14.68,0,0,1,1.68-7.32q22.5,102.06,36,222.24,11.34,100.62,17.52,223c8.28-25.2,15.12-57.6,20.76-97.2q8.1-65.88,13.92-97.92a139.29,139.29,0,0,1,9.84,24L484.2,357c2.16,7.08,4.44,15.24,6.72,24.72,2,8.64,4,16.92,5.52,24.84,2.52,12.36,6.48,28.8,11.76,49.32L521,505.56l.24.36q9.36-49.14,16.08-112.92c2.16-20.52,5.52-58.56,10.08-113.88q5.94-72,11-113.52,7.74-62.28,18.84-112.08A20.75,20.75,0,0,1,579.24,59.52Z" transform="translate(-13.2 -53.52)"/></svg>