<svg id="Layer_1" data-name="Layer 1" xmlns="http://www.w3.org/2000/svg" viewBox="0 0 559.5 471.68"><defs><style>.cls-1{fill-rule:evenodd;}</style></defs><path class="cls-1" d="M384.84,453.6c-3,20.16-6,40-8.76,59.4a186.3,186.3,0,0,0,15.12-57.36,549.08,549.08,0,0,0,6.48,66.6c8.52-16.44,13.56-34.56,15.24-54.48.36,18.6,3.72,35.52,10.2,50.88a4.59,4.59,0,0,0,2.28-4,70.14,70.14,0,0,0-.72-15.84c-3.48-20.64-6.6-41-9.6-61.32a586,586,0,0,0-14.64,61.2v-.6c-1.92-21.48-4.68-42.6-8.16-63.36A39.72,39.72,0,0,0,384.84,453.6ZM447,442.08l-9.72,1.08L434.16,475a7.41,7.41,0,0,0-3,6.84,8.8,8.8,0,0,0,1.44,4.2l.6,1c-2.4,11.76-1.32,22.56,3.36,32.28l3.24-29.76c13.56-1.56,20-10.32,19.2-26.4C458.64,454.2,454.56,447.24,447,442.08Zm1.32,10.32,4.08,3c3.48,5.64,3.72,11.28.6,16.92l-1.68,2.52-10.8,1.32-.36-25.08ZM148.8,70.32,21.12,78.48l-.6.6a11.83,11.83,0,0,0-.24,10.44L90.6,87.24q-1.26,48.24-1.8,97.8c-.48,43.32-1.56,86.28-3.12,129.12q-2.34,64.8-7,129a316.58,316.58,0,0,0,1.68,64.2c.84-.24,1.2-.6,1.32-1.08a239.83,239.83,0,0,0,4.92-53.4c-.36-18.36-.24-36.84.48-55.2l4.68-129c1.56-42.84,2.88-85.92,4-129a362.06,362.06,0,0,0-2.64-52.56l56.52-4.56.24-.84A10.9,10.9,0,0,0,148.8,70.32Zm166,97.56A599.73,599.73,0,0,0,313.08,75a261.73,261.73,0,0,0-3.36,40.56,370.72,370.72,0,0,0,2.52,46.32C312.6,164.88,313.44,166.8,314.76,167.88ZM239.64,214.2c-.12-11.52-.84-23-1.92-34.44,12.6-.84,20.28,4.68,23,16.44C255.84,205.56,248.88,211.56,239.64,214.2Zm-5.52-37.68-.36,2.88.12.36.12.24.12.12,1.2-.12-1.2,35.28-1.68.12,1.32,10a101.39,101.39,0,0,0,1.92,52l4-52,6.36-3.24q.18,31.5,15.84,55.08l-13.08-56.64q24.66-15.84,11.28-41.88c-8.28-5.64-16.56-6.6-25.08-2.64ZM218.64,70.68a459.38,459.38,0,0,0-6.6,94.08q1.62,58.86,2.64,117.72a107.74,107.74,0,0,0-23.16-3.24l-47.64,5.4-.36-24c-.24-13.56-.24-27.12-.12-40.68q.72-64.8-4.32-128.28c-3.36,3-4.92,7.32-4.8,13.08,1,43.08,1.68,86.16,2.28,129,.48,43.08.72,86,.72,129.12s-1.92,86-5.52,128.88c-1,12,.6,22.8,4.56,32.4a7.06,7.06,0,0,0,3.48-6.24q3.24-64.08,4-128.28.54-47,.12-94.2a549.67,549.67,0,0,1,70.92,3q.9,62.64-3.48,124.44-2.34,32.4-6.12,64.8-2.34,18.18,4.68,32.4,1.08-.72,1.08-1.44,7.2-62.46,9.72-125.76c1.68-42.84,1.92-85.92.72-129s-1.68-86-1.56-129.12q.18-33.12-.72-64.08ZM434.4,410.88,444.12,398a102.15,102.15,0,0,0,3,33,46.26,46.26,0,0,0,8.16,17.64l-9.84-52.32A49.61,49.61,0,0,0,456,378.24a30,30,0,0,0,1-15.6l-19.32,30.84,1-33.84a161.3,161.3,0,0,0-11.4,35.76,86.31,86.31,0,0,0,2.16,42.12l2.76-9.72Zm-34.08-38.16a230.39,230.39,0,0,0-3.24,25.44,196,196,0,0,0,.48,33.72l6.72-40.32a143.58,143.58,0,0,0,10.2,44.28,64.55,64.55,0,0,0,5.4-13.32c1.32-4.68,2.52-9.48,3.6-14.16a154,154,0,0,0,3.24-39.12,12.74,12.74,0,0,0-3.6-8l-8.88,53.88-9.48-54.84A38.62,38.62,0,0,0,400.32,372.72ZM388,190c1.32,16.92,1.92,34.32,1.8,52-.12,42.84-1.68,85.68-4.92,128.28-.84,10.92-1.44,21.72-1.92,32.52Q380.58,460.5,339,499.2l-9.36,3.72c-10.56,4.44-18.72,1.8-24.48-7.8q-17.46-28.44-15.84-63.84c1.8-42.36,3.24-85.08,4.56-128.16q1.62-65-2.52-129.12a77,77,0,0,0-3.72,27q.9,63-2.16,125.76c-2.16,42.6-3.12,85.2-2.88,127.56q.18,32.94,19.92,58a15.69,15.69,0,0,0,9.84,5.76c19.08,3.48,34.68-3.48,46.56-20.76a168.91,168.91,0,0,0,29.52-82.08q5.58-64.26,8.16-129.12a617.86,617.86,0,0,0-4-96.6c-1-1.8-2.28-2.28-4.08-1.2A2,2,0,0,0,388,190ZM423.12,72.48Q403.5,95.7,418,125a230,230,0,0,1,24,108,61.41,61.41,0,0,1-6.6,27,15.23,15.23,0,0,1-7.92,7.56,19.65,19.65,0,0,1-7.8,1.92,11.88,11.88,0,0,1-3.72-9.84,8.52,8.52,0,0,0-4.68-8.28c-5.4,11-3.72,21.72,4.92,32.16q31.86.18,33.48-41.88A239.09,239.09,0,0,0,442.92,177a380.46,380.46,0,0,0-18.24-55.92,68.83,68.83,0,0,1-5-31.8l5.16-3.36a43,43,0,0,1,20.88,11.52c1.68-14.4-4.8-22.56-19.32-24.48Zm-55.32,10c10.56,11.64,10,23-1.68,34.2L355.2,118.2c.36-12.24.24-24.48-.48-36.72,3.36,1.8,7.68,2,13,.48Zm-13.32-5-.36-3q-5.22,29.7-9,59.4a79.28,79.28,0,0,0,3.36,36.36,5.1,5.1,0,0,0,1.2,2l5.16-44.64,3,1.32,22.92,44.88a89.6,89.6,0,0,0-16.56-45c11.76-8.28,17-19.44,15.72-33.48A28.59,28.59,0,0,0,368.28,74.4Zm97.68,4.08,18.72,4q-4.14,75.6-7,151.44a274.24,274.24,0,0,0,.84,33,57.12,57.12,0,0,0,1.32,7.68l2,7.08a1468.9,1468.9,0,0,0,4.2-199.08L494,88.44a8.11,8.11,0,0,0,.24-9.72l-40.8-5.4Zm95.4,13.32c11,3.72,19.32,10,24.72,18.6l.24-.84Q571.8,81.42,539,78.72a10.36,10.36,0,0,1-4.2,1.8,12.11,12.11,0,0,0-7.92,5q-30.06,42.48-10.8,92a421.51,421.51,0,0,1,19.08,64q13.5,62.82,25.32,125.88A519.84,519.84,0,0,1,569,490.32c-.72,15.84-7.8,25.92-21.36,30.24q-28.62,9.18-41.76-13.92a63.12,63.12,0,0,1-7.08-19.44c-2.52-13.8-4.44-27.12-5.64-40.2-6.12,13.32-7.32,27.72-3.72,43.44a81.3,81.3,0,0,0,25.68,43.32q12.6,11.16,31.68,7.2a21,21,0,0,0,12.6-7.68c13.44-16.92,19.8-36.48,19.2-58.92a763.91,763.91,0,0,0-13.8-125.16q-12.06-61.92-26.76-123.12A734.37,734.37,0,0,0,513.6,144q1.26-9,1.8-18c.6-11.88,5.28-21.24,13.92-28.08C534.72,93.48,540.84,92.52,547.56,94.8Z" transform="translate(-19.18 -70.32)"/></svg>