<svg id="Layer_1" data-name="Layer 1" xmlns="http://www.w3.org/2000/svg" viewBox="0 0 486.38 350.4"><defs><style>.cls-1{fill-rule:evenodd;}</style></defs><path class="cls-1" d="M247.44,153.12q-.9,46.8-4.32,93.36l-60.24-2.64V244l-1-.24a791.75,791.75,0,0,0,.36-119.28l-.48.12q-4.5,48.06-8.28,97.32c-3.36,42.36-5.4,85.2-6,128.28a327.19,327.19,0,0,0,5,64.08,1.71,1.71,0,0,0,1.2-1,374.63,374.63,0,0,0,4.08-64.8,872.1,872.1,0,0,1,2.88-90.36c20.28,2.52,40.68,4.32,61.08,5.28l-.12,1.68a1100.94,1100.94,0,0,0-3.36,127.56l-.24.48a2.45,2.45,0,0,0-1.08,2.4l.12.84a16.68,16.68,0,0,0,1.44,4.92l-.12.84a31.7,31.7,0,0,0,.48,18.6,2.92,2.92,0,0,0,4.08.84,28.65,28.65,0,0,0,4.32-17.88,408.89,408.89,0,0,1-.72-54.24l4.32-85.68,2.88.12a6.25,6.25,0,0,0,2.4-3.84l.6-4.92v-.72l-.24-1.68a7.35,7.35,0,0,0-2.76-5.64l-2-.24,1.08-25.8c.6-16,1.44-31.8,2.4-47.76a576.12,576.12,0,0,0,.72-64.2C250.56,122.28,247.68,136.92,247.44,153.12Zm-45.24-72L200.76,80Q118.5,91,37.08,106.92c-2.76,5-2.28,10,1.32,14.64l80.4-12.72Q108.54,257.16,112,404.76A2441.88,2441.88,0,0,0,124.56,151q-.18-21.6-1.08-42.84l82.8-7.32C210.24,93,208.92,86.52,202.2,81.12Zm184.44,44.76Q387.18,107,378,94.2c-5.76,10.2-6.24,19.8-1.32,28.92q3.78,59.94,7.2,120c2,38.4-3.84,75-17.88,109.92q-16.56,41.58-61.32,41.52a5.11,5.11,0,0,1-4.2-1.8c-10.32-14-14.88-30.36-13.68-48.72L295,216c2.76-42.84,4.44-85.44,5-127.56-.84-.12-1.44.36-1.68,1.44A269.63,269.63,0,0,0,292.56,132L290,178.44c-2.28,42.84-5.4,85.44-9.48,128a253.64,253.64,0,0,0,8.28,93.36,13.67,13.67,0,0,0,8.4,9.48q26.1,10.44,48.84-9.84,36-32.22,40.68-81.36A748.93,748.93,0,0,0,388.08,190,633,633,0,0,1,386.64,125.88Zm96.12-27q-29.52,25.38-41.28,64.44a513.84,513.84,0,0,0-21.24,126.24c-.72,15.12-1.56,30.24-2.64,45.24q-2.34,33.84,15.36,61.44C440.52,408,451.8,413,467,411.48a78.48,78.48,0,0,0,20-15.6l13.68-14.76a52,52,0,0,0,8.76-12.84l-1.92,14.28a138,138,0,0,0,1.56,47.88c4.92-7.56,7.2-16.8,6.84-27.6a128.42,128.42,0,0,1,2.16-28.8,167.34,167.34,0,0,0,1.92-57.12,279.58,279.58,0,0,0-44.64,8l-.36.84a13.43,13.43,0,0,0,1.08,10.56,185.24,185.24,0,0,0,37.68-1.68l-1.56,12.24a35.36,35.36,0,0,0-1.92-6.72,8.57,8.57,0,0,0-7.08,2.16,28.52,28.52,0,0,0-2.88,6.12c-.6,2.16-1.2,4.44-1.68,6.84h-.12a8.61,8.61,0,0,0-.72-3.48,24.19,24.19,0,0,0-2.16-3.84,4.51,4.51,0,0,0-.48,3.36c1.8,8.76-.72,16.92-7.56,24.72Q469.5,397.14,443.16,388l-3-3.48a48.3,48.3,0,0,1-7.2-12.24,120.35,120.35,0,0,1-8.16-44.76,583.1,583.1,0,0,1,13.68-122.76,229.2,229.2,0,0,1,40.44-89.16c5.28-3.48,10.68-4.2,16.08-1.92,10.2,4.2,18.36,10.44,24.24,19,.36-.36.48-.6.48-.84.84-19.92-9.36-32.28-30.48-37.08A23.93,23.93,0,0,0,482.76,98.88Z" transform="translate(-35.31 -80.04)"/></svg>