<svg id="Layer_1" data-name="Layer 1" xmlns="http://www.w3.org/2000/svg" viewBox="0 0 302.2 211.56"><defs><style>.cls-1{fill-rule:evenodd;}</style></defs><path class="cls-1" d="M265.08,295.44a148.06,148.06,0,0,0-28.92,5.4l-1.08-58.68c-1.8.72-2.88,2.28-3.12,4.8q-3.78,53.82-2.52,108a78.18,78.18,0,0,1-1.2,16c-2.28,12.12-1.08,22.68,3.84,31.92a114.27,114.27,0,0,0,4.56-32.4l-.24-56.16a289.67,289.67,0,0,1,36.48-3.12c-.36,20.52-1.44,41-3,61.56-1,11.88.36,22.68,4,32.28a14.61,14.61,0,0,0,4.08-10.2q1.62-36.36,2.52-73.08,1.8-65,1.2-128.28a577.8,577.8,0,0,0-8.52,99v3.48Zm-24.24-95.16-59.76-1.92c-7.92-.36-16-.6-24.12-.6l-.12.24-.48.12-.72.48-.84.84a16.89,16.89,0,0,0-.72,9.72l.12.84.72,1.44,1.44,1.8,13,1.08,26.52,1.8a631.31,631.31,0,0,0-1.2,72.36c.6,16,.48,31.92-.36,47.76a520.73,520.73,0,0,0,0,64.2,2.27,2.27,0,0,0,1.2-1.2,306.17,306.17,0,0,0,6.84-64.8q-.18-59.58-4.08-118.32a374,374,0,0,0,43.32-1.32,15,15,0,0,0,1.68-10.44l-.24-.84L242,202ZM352.56,309.72c-.72-3-1.56-6-2.4-8.88a50.1,50.1,0,0,0-3.12,27.6,78.81,78.81,0,0,1-7.8,49.56,28.39,28.39,0,0,1-22.44,3.84c-10.56-2.28-15.12-9.36-13.68-21a343.64,343.64,0,0,0,1.56-64.8,250.65,250.65,0,0,0-10.44,56.76q-1.62,23,13.32,40.32c7.08,8.16,15.6,9.36,25.56,3.48,15.72-9.24,23.28-23,22.56-41.4A148.47,148.47,0,0,0,352.56,309.72Zm31.2,73.2q1.62-28.26,2.52-56.88c1.32-43.08.72-85.92-1.8-128.28a710.86,710.86,0,0,0-4.56,73.08q-1.08,64.44-3.24,128.28a2.32,2.32,0,0,0,2.16,2.16A43.4,43.4,0,0,0,383.76,382.92ZM454,195.36a172.1,172.1,0,0,0-5.88,46.32c.24,21.48-.12,43.08-1,64.68s-2.16,43-3.72,64.32l-.6,11.4L386.64,198.84a147.79,147.79,0,0,0,6.24,44.28c4,13.56,8.4,26.88,13.08,40.2,5.16,14.88,9.84,30,14,45.24s7.68,30.48,10.68,46a66.76,66.76,0,0,0,13.56,29.76l1.68-2.76,1.8.72q4.5-37.8,5.28-76.2,1.26-64.08,2.88-128.28Z" transform="translate(-153.68 -193.44)"/></svg>