<svg id="Layer_1" data-name="Layer 1" xmlns="http://www.w3.org/2000/svg" viewBox="0 0 300.67 212.88"><defs><style>.cls-1{fill-rule:evenodd;}</style></defs><path class="cls-1" d="M317,339.6l12.12-.12,10.68,39.36a32.81,32.81,0,0,1-11.16,4.8c-10.44,2.28-18.72-.72-24.72-9.24a72.08,72.08,0,0,1,6.24-25.08A31,31,0,0,1,317,339.6ZM285.72,195.12q-3.78,48.06-5.88,97.32l-.24,5.4-9-1.08-25.2,3.12c.72-24.36.24-48.48-1.32-72.6q-1.44-.18-1.44,1.08Q239.22,291.9,233,355a136.09,136.09,0,0,1-2.4,15.84c-2.64,12.6-1.32,23.16,4,31.8l.84-1.68c2.76-15.24,4.8-30.6,6.36-46.08,1.44-14.4,2.52-28.68,3.12-43a159.51,159.51,0,0,0,33.84.24l-2.52,28.08a303.2,303.2,0,0,0,0,64.32c.84-.24,1.2-.6,1.32-1a712.88,712.88,0,0,0,9.6-80.16,933.18,933.18,0,0,0-1-128.28Zm-110.4,2.16-22.2,1.92v13l50.28.36q-1.8,47.16-3.12,94.32a306.47,306.47,0,0,1-4.44,43.2,127.38,127.38,0,0,0,.6,49.08,9.75,9.75,0,0,0,1.44,3.48,2.22,2.22,0,0,0,1.44-1.8,300,300,0,0,0,5-32.52,945.28,945.28,0,0,0,2.76-140.4l-.84-15.24,46.08,2.16.72-1.56.6-1.68.36-2.4.12-1.56v-1.68a9.07,9.07,0,0,0-1.32-4.2l-1.2-1.44-38.4-3A285.6,285.6,0,0,0,175.32,197.28ZM350.76,370.8c-5.64-13.8-11-27.84-16.08-42.12a149.19,149.19,0,0,0-17.52-34.32l-3,.6c-1.92,10.44,1.32,20.64,9.6,30.36l-6.72.12Q290.4,349.38,301,382.92a21.88,21.88,0,0,0,12.36,14c11.64,5.16,22.08,3.36,31.56-5.16l7.92,15.36C356.52,395.28,355.92,383.16,350.76,370.8ZM451.2,205l-2.64-4a51.84,51.84,0,0,0-9.6-4.2,49.76,49.76,0,0,0-15.84-2.52,80.57,80.57,0,0,0-31.56,28.08A99.56,99.56,0,0,0,376,261.6c-2.4,13.8-4.32,27.6-5.64,41.52a182.08,182.08,0,0,0,1,42,133.18,133.18,0,0,0,14.64,44.52q12.78,23.94,37.32,8.28c9.24-5.88,15-13.32,17.4-22.32a45.15,45.15,0,0,0,5.4,22.32,193.52,193.52,0,0,0,4.68-62.16L420.24,345l.48,8,25.44-2.4a80.29,80.29,0,0,0-4.32,13.56l-.24-4.44L441,356a27.45,27.45,0,0,0-11.4,14A20.83,20.83,0,0,1,417.84,382a44.9,44.9,0,0,1-11.28,3.12,19.32,19.32,0,0,1-10.44-1.8,18.14,18.14,0,0,1-9.24-10.08Q368,323.7,378,270.6,384.12,238,409.08,218q21.24-17.1,40.32-.72l1.44,3.48c2.52-2.28,3.36-5.52,2.76-9.72A14.86,14.86,0,0,0,451.2,205Z" transform="translate(-153.12 -194.28)"/></svg>