<svg id="Layer_1" data-name="Layer 1" xmlns="http://www.w3.org/2000/svg" viewBox="0 0 542.08 469.82"><defs><style>.cls-1{fill-rule:evenodd;}</style></defs><path class="cls-1" d="M91,68.52h-.12a414.58,414.58,0,0,1-78.36,9.36,20.25,20.25,0,0,0-.6,6.6,7.28,7.28,0,0,0,1,3.12l.72.84a83.38,83.38,0,0,0,27.84,0q14.94-2.52,29.88-4c-2.64,14.76-4.68,30.24-6,46.32q-5.4,63.36-5.52,127.68a1212.8,1212.8,0,0,1-7.2,129.12q-6.84,63.54-8.16,127.32a2.15,2.15,0,0,0,2.16,2.16,1.86,1.86,0,0,0,.84-1.44q3.24-36.9,7.08-73.8L59,396.6c4-42.48,5.76-85.32,5.64-128.4a585.08,585.08,0,0,1,3.24-64.92A1040.87,1040.87,0,0,0,73,84.36a363.94,363.94,0,0,1,49.8-1,9.45,9.45,0,0,0,2.52-6.6A10.07,10.07,0,0,0,124,71.88l-.36-.72a.91.91,0,0,0-.84-.48A140.45,140.45,0,0,0,91,68.52ZM182,73.32a69.77,69.77,0,0,0-6.72,26.76q-4.32,63.54-4.56,127.44c-.12,19.2-.48,38.28-1.08,57.36l-3-.24a303.5,303.5,0,0,0-59.28,3.24c.36-22.92,1.08-45.84,1.92-68.76q2.34-64.8-.84-129a30.93,30.93,0,0,0-2.76,14c.36,42.84-.36,85.68-2.28,128.28s-3.6,85.32-5.16,128.16q-2.34,64.8-9.36,128.88c-1.08,9.84.48,17.64,4.92,23.52A790.56,790.56,0,0,0,103,427.8c2.16-42.84,3.6-85.92,4.2-129l.12-1.2q31.14-.54,61.92.72c-.84,19.44-2,38.88-3.48,58.2l-7.32,96a285.5,285.5,0,0,1-4.32,32c-2.4,12.36-1.32,22.92,3.36,31.92a19.11,19.11,0,0,0,3.6-9.72c1.8-22,3.84-43.8,6.24-65.52q5.94-55.44,7.08-111.36l.84-37.2V291q1.08-45.18,2.64-90.12ZM310.2,202q11,61.74,23.88,122.88a479,479,0,0,0-60.48,16.44L275,332c6.12-42.12,11.4-84.24,15.72-126.6q5.22-53.1,6.72-105.6C300,133.8,304.2,167.76,310.2,202ZM263.28,92.76a1061.81,1061.81,0,0,1-17.64,126.48,262.21,262.21,0,0,1-15.12-60.6Q228.9,146,223,138.84c-4,21.72-8.4,43.44-13.08,65.16l-.48-3c-3.48-42.36-7.32-84.48-11.64-126.6l-.84-.84-.84-.72a321.13,321.13,0,0,0,1.8,65.88,600.82,600.82,0,0,1,4.56,64c.12,11.76,2.52,22.08,7,30.84q8.82-32.4,14.88-65.76a366.83,366.83,0,0,0,21.36,72.48,225.47,225.47,0,0,0,12.6-49.92c2.28-16.8,4.68-33.48,7.44-50.16a272.08,272.08,0,0,0,3.24-63.6C265.68,80.76,263.76,86.16,263.28,92.76Zm33.48-14.88c-.36-.12-.6,0-.6.24l.12,1.92a17.36,17.36,0,0,0-2.88,9.48c-2,42-5.4,84-9.84,125.88q-6.84,63.54-16.92,126.48l-.36,1.92-.36.12-.24.84a11.71,11.71,0,0,0-.24,4.08c-6.6,40.44-14.16,80.64-22.8,120.36a185.63,185.63,0,0,0-4.08,48.12A2.62,2.62,0,0,0,240,516a466.61,466.61,0,0,0,14.4-58.08c6.36-35.52,12.36-71.16,17.76-106.92l1.2-.24a471.91,471.91,0,0,1,63-15.12Q348.6,394.14,360,452.88q6.12,31.68,10.08,63.6c1.08,9.72,4.44,17,10.08,21.72a4.14,4.14,0,0,0,.36-1.56,763.55,763.55,0,0,0-12.24-83.16q-12.42-60.3-25.68-120.72a9.11,9.11,0,0,0-1.2-9.36l-.84.12C331.8,283.8,324,243.84,316.92,203.64Q306.48,143.7,297.84,84.72V77.88l-.84,1.2Zm165.12,346,2.64.36A31.26,31.26,0,0,0,462.36,398L458.88,397c-3.24,4.68-4,10.2-2.16,16.44l4.2,1.2ZM460,329.64A794.71,794.71,0,0,1,431,205.92c-3,22.56-1.2,45.72,5.64,69.36q8.82,30.42,14.76,61.56c2.28,11.76,6,22,11.28,30.6C465,355.2,464,342.6,460,329.64Zm-86,71.64,46-6.84a776.75,776.75,0,0,0-5.52,84.72,242.11,242.11,0,0,1-2.52,32.28c-1.56,9.72,0,17.52,4.56,23.52a29.56,29.56,0,0,0,4.44-16.32q-.36-62.64,3.6-124.8l26.64-3.72.6-.84a10.38,10.38,0,0,0-1-11.28,445.6,445.6,0,0,0-77.64,14.28l-.24,1A10.5,10.5,0,0,0,373.92,401.28Zm21.72-146-.6.36a485,485,0,0,1-8.64,96.72L366.84,251.88a833,833,0,0,0-6.12,116.4L369.6,293c1.32,27.24,7.08,52.2,17.28,75.12a304.47,304.47,0,0,0,12.36-104.52l-.48-7.08C398.4,254.88,397.32,254.4,395.64,255.24ZM472.2,84.12a54.78,54.78,0,0,0-13.8,25,629.09,629.09,0,0,1-43.56,116l.6-17,4.8-128.28A211.93,211.93,0,0,0,414.12,122q-2.7,58.32-4.8,116.76a30.31,30.31,0,0,0-.48,13.08c-.84,21-2,42.12-3.84,63.24a178.87,178.87,0,0,0,1.92,47.76,87.85,87.85,0,0,0,4.56-25.68c.72-30.12,1.56-60.12,2.64-90.24a351,351,0,0,1,19.08-46A356.54,356.54,0,0,0,456,144.72C462.36,124.2,467.76,103.92,472.2,84.12ZM369,85.56q-24.66-9-32,22.44A400.78,400.78,0,0,0,329,153a430.7,430.7,0,0,0-2.88,46.44c-.12,17.76,7,30.6,21.12,38.64a16.47,16.47,0,0,0,6.6,2.16c11.52-4.08,18.84-11.88,22-23.28.6-2.16.24-3.36-1.08-3.72-7.92,10.08-17.64,13.56-29,10.44a6.94,6.94,0,0,1-4.92-5.16,203.1,203.1,0,0,1-6.36-31.92A158.33,158.33,0,0,1,344,110c3.48-9,10.08-14.4,19.56-16.44l3.24,2,1.8,2.64c2.76-1.32,3.6-3.84,2.76-7.32A18.15,18.15,0,0,0,369,85.56ZM553.8,93c-3.24-14.4-13.56-20.28-31.08-17.52q-36.36,18.36-36.84,61.44a204.88,204.88,0,0,0,5.64,50.88q15.3,63.54,34.32,126.36a538.57,538.57,0,0,1,21.48,122.28,118.29,118.29,0,0,1-6.6,46.44c-5.4,15-16.08,24.72-32,29.28-19.44,5.4-30.48-.72-33.24-18.6q-2.52-15.84-9-26.28a83.7,83.7,0,0,0,.72,37c2.28,9.12,7.08,16,14.4,20.64C497,534.72,512.28,534,527,522.72c13.2-10.08,20.76-23.16,22.56-39.36a383.42,383.42,0,0,0-5.88-127.2,1116.35,1116.35,0,0,0-34-122.52,352.65,352.65,0,0,1-17.16-78.12,85.52,85.52,0,0,1,9.12-48.84,24.84,24.84,0,0,1,11-11.16c15.24-8,28.68-7.56,40.56,1.32A6.14,6.14,0,0,0,553.8,93Z" transform="translate(-11.84 -68.38)"/></svg>