<svg id="Layer_1" data-name="Layer 1" xmlns="http://www.w3.org/2000/svg" viewBox="0 0 564.01 484.68"><defs><style>.cls-1{fill-rule:evenodd;}</style></defs><path class="cls-1" d="M219.24,80.64c-2.28,26-4.08,52.2-5.16,78.72-1.8,42.36-3,84.72-3.84,127.32l-6.84-.36c-20.28.24-40.44,1.44-60.48,3.48.84-26.28,2-52.44,3.6-78.72q4-64.44,3.12-127.44c-2,1.32-3.12,3.6-3.24,6.72l-6.72,128.28q-1.8,35.82-3,71.88l-1.44.12-.36.84a12.75,12.75,0,0,0-.12,5.64l.24.84,1.44.12c-.6,16.2-1,32.52-1.2,48.84-.84,43.08-3.48,85.8-8.16,128.16-1.44,12.6.12,23,4.68,31.44a273.21,273.21,0,0,0,5.16-38.88c2.76-42.48,4.32-85.2,4.92-128.28l.84-40.68a568.84,568.84,0,0,0,67.2,1.44l-2.16,116.52c-.36,21.48-1.8,42.84-4.08,64-1.32,12.12.12,22.92,4.08,32.4a1.62,1.62,0,0,0,1.08-1.44,1078.27,1078.27,0,0,0,6.12-118.44q-.18-64.62,2.52-129l5.28-128.28c1-22.08,1.08-43.44.48-64.08C220.92,73.8,219.6,76.68,219.24,80.64ZM188.4,65.16A10.88,10.88,0,0,0,187.8,53a227.68,227.68,0,0,0-29.88,2.28Q90.42,65,24.6,78.24l-.36.84a13.6,13.6,0,0,0,.36,9.72,76.25,76.25,0,0,0,23.88-2.28q30.06-7.74,60.72-12.6-1.62,56.34-5.88,114-3.6,48.24-4.2,96.72-.9,64.26-3.6,128.28c-.84,21.36-2.52,42.6-5.28,63.84-1.56,12.24-.12,22.92,4.44,31.92a591.19,591.19,0,0,0,6.84-60q3.78-64.26,2.52-129.12a1064.62,1064.62,0,0,1,5.28-128.4,640.73,640.73,0,0,0,1.2-117.48A663.46,663.46,0,0,1,187.8,66ZM320.52,91c-3.6,20.28-6.48,40.8-8.52,61.44q-6.48,63.54-17,126.36a1216.07,1216.07,0,0,1-13.08-121.68c-.6-12.12-3.36-22.32-8-30.48a3.18,3.18,0,0,0-.6,1.68c-1.92,40.2-5.64,80.16-11,119.64-1.8-17.76-3.6-35.52-5.16-53.4-3.72-42.6-8.52-84.72-14.4-126.6q-2,0-1.8,2.16Q245.16,130,251.16,190.2c2.16,21.24,3.48,42.72,3.84,64.2.12,11.76,2.28,22.08,6.36,30.84l.48-1A605.06,605.06,0,0,0,275.4,171a32.38,32.38,0,0,1,.84,4.92A1137.92,1137.92,0,0,0,293,302.52a3.32,3.32,0,0,0,2.4,2.16,268.82,268.82,0,0,0,12.24-51.48q9-63.9,14.28-128.52a87.94,87.94,0,0,1,5.4-23.64c4.68-12.24,4.44-22.68-.48-31.2A91.9,91.9,0,0,0,320.52,91ZM463.44,311.52a323.06,323.06,0,0,0-3.72,44.64q-1.26,63.72-8.64,126.84c-3.24-28.8-7.56-57.36-13.2-85.8a519.25,519.25,0,0,1-8.64-64.2c-.6-7.2-2.64-12-6.36-14.52q-1.44,63.9.72,128.28A180.82,180.82,0,0,1,421.92,479c-1.8,12.24-.72,22.8,3.12,31.56a7.56,7.56,0,0,0,1.2-3.24A753.12,753.12,0,0,0,428,379.92a943.75,943.75,0,0,1,14.52,100.56c1.2,12.36,4.8,22.8,10.68,31.2a11.93,11.93,0,0,0,2-4.92q5.58-34.56,8.64-69.6a907.16,907.16,0,0,0,2-127.56A2.07,2.07,0,0,0,463.44,311.52ZM354.72,58.68a487.63,487.63,0,0,0,6,109.68c7.2,41.64,13,83.4,17.28,125.52a510.74,510.74,0,0,0-68.16,17.28l1.2-6.48,11.16-62.76q11.16-62.82,24.72-125A256,256,0,0,0,353,54.12a270.48,270.48,0,0,0-9.48,38.28q-3.42,20-7.92,39.6-12.42,54.18-20.52,109.32c-3.48,24.12-7.56,48.24-12,72.24l-2.76.84a9.72,9.72,0,0,0,.84,8.76c-2.76,14.88-5.76,29.76-9,44.52-2.28,10.44-4.68,21-7.44,31.44a433.88,433.88,0,0,0-11.52,63,88.71,88.71,0,0,1-4.08,18.6c-4.2,12.24-3.72,22.8,1.44,31.8a4.24,4.24,0,0,0,2.16-3c3.72-26.76,8.28-53.16,13.92-79.44Q298,376.26,307.92,321.84l71.28-16.68L385,358.44c4.68,42.36,9.6,84.6,15,126.72,1.56,11.88,4.8,22,10,30.24a5.91,5.91,0,0,0,1.8-4.8c-1.8-24.12-4.32-48.36-7.56-72.48L386.88,311.64q-8.82-63.18-18.12-126.36-9.18-63.36-13.56-126.84C354.84,58.56,354.72,58.56,354.72,58.68ZM441.84,91q4.68-13.14-8.28-22l-2.28-1.56-8.16-.36q-35.82,38.7-35.64,95.28,0,45.18,1.2,90.12a85.79,85.79,0,0,0,3.6,22.08A76.38,76.38,0,0,0,398.4,289l3.12,5.4c14.64,2.88,25.68-3.12,33.12-18.12a49.36,49.36,0,0,0,5.28-21.48v-5c-6.84,14.28-17.52,23.88-31.8,28.8l-4.92,1a407.59,407.59,0,0,1-1.68-163.92,57.64,57.64,0,0,1,17.4-31.92l3.12-3,9.84.24L435.6,85l2.76,1.92,1.08,2.64ZM581.16,51.72q-24.66,64.62-45,132.6c-9.72,32.28-19.92,64.44-30.36,96.48a81,81,0,0,1-6,14l-1.32,3q.36-113.58,4.56-226.92a116.84,116.84,0,0,0-.6-16q-17.82,58.14-11,122.16a458.11,458.11,0,0,1,2.4,64.2c-.72,21.48-1.68,43-2.88,64.32s-1.92,42.84-2,64.32L488.76,386l-.48,16.08-.6,16.2q-1.26,32.4-3.6,64.44a127.08,127.08,0,0,1-2.4,17.64l-.36,3.12.12,2.76.6,3.84a11.39,11.39,0,0,0,2,4.2l2.28,2.64q14.22-93.78,11.28-196.44l.72,2A379,379,0,0,0,526.44,242q22.14,116.64,46.32,233.28c4.32,21.24,9.12,41.52,14.4,61.08l.36-.12a734.15,734.15,0,0,0-26.4-178.2L545,298.2q-8.1-29.7-17.64-59A1347.47,1347.47,0,0,0,573.84,91.08a138.89,138.89,0,0,1,9.84-27.48c2-4,1.56-7.56-1.32-10.68Z" transform="translate(-23.51 -51.72)"/></svg>