<svg id="Layer_1" data-name="Layer 1" xmlns="http://www.w3.org/2000/svg" viewBox="0 0 411.73 371.64"><defs><style>.cls-1{fill-rule:evenodd;}</style></defs><path class="cls-1" d="M319.56,169.08a576.43,576.43,0,0,0,5.76,60.36q5.4,37.44,9.72,75c-13.32.36-26.52.24-39.84-.48l13.56-90.24a197.81,197.81,0,0,1,7.2-31.08C317.4,178.08,318.6,173.52,319.56,169.08ZM238,174c-.84,41.64-2.28,83.4-4.32,125a83.18,83.18,0,0,1-28.32-.6l-17.16,1-.12.12c.84-21,1.32-42,1.68-63,.36-22.08.12-43.44-.84-64.2-5.76,13.8-8.4,29.28-8,46.32a1199.78,1199.78,0,0,1-3.72,128.28q-5.4,64.8-4.56,128.16c1.08,0,1.68-.24,1.92-.6a58.08,58.08,0,0,0,6.36-26.16q.72-41.76,3.6-83.4c1.08-17.16,2-34.44,2.88-51.72A189.94,189.94,0,0,0,232.68,316l-6,115.32A163.45,163.45,0,0,0,231,479.16c1.32.12,2-.36,2.16-1.68,1.8-18.84,3.12-37.68,4-56.64l5.28-128.4c1.8-43.32,1.92-86,.6-128.16Q238.14,167,238,174ZM224,124.8a214.67,214.67,0,0,1-44.16,7.08,178.61,178.61,0,0,0-38.16,6.36A346.63,346.63,0,0,1,50.64,151.8l-1,1.68c-2.16,5.64-1.2,10.56,2.76,14.52a87.13,87.13,0,0,0,38.16-1.2c16.32-4.2,32.76-7.92,49.2-11.16a49.12,49.12,0,0,0-2,13.2c-1.56,42.6-2.88,85.44-3.72,128.28q-1.44,64.62-3.6,129a191.42,191.42,0,0,1-3.84,32.16c-2.64,12.84-1,23.4,5.16,31.68a56.89,56.89,0,0,0,5.16-20.88q4.14-63.72,4.2-128.4c-.12-43.08,1.08-86.16,3.6-129a391.87,391.87,0,0,0-.6-57q41.4-7.92,83.4-11.76l1-1.8c2.52-5.88,1.92-11.28-1.8-16.08Zm127.8,263.4q-5.22-64.08-13.32-127.56-7.38-58.5-16.92-115.56-.18-5-.72-10.08l-.6,1.68-.48-2.52c-.6.12-.84.24-.84.36V140a335.17,335.17,0,0,0-18,69.48L282.12,335.64A973.15,973.15,0,0,1,254.76,461c-3.36,11.88-2.76,22.44,1.68,31.68a3.32,3.32,0,0,0,1.32-1.56,182.82,182.82,0,0,0,8-26.16q14.4-62.1,24-125.28l3.12-20.64,2.52.12,41.52,2,3.6,35.52q5.94,63.9,11.4,126.72l1.68,1.68c-.24,5.52,1.68,8.88,5.64,10.2a209.55,209.55,0,0,0-2-67.44A371.44,371.44,0,0,1,351.84,388.2Zm51.6-247.92c-2.52,41.88-3.6,83.88-3.24,126.24.36,32.16,0,64.32-.84,96.6C398,406,397.68,448.8,398,491.4a3.38,3.38,0,0,0,3.48,1.8c4.08-4.92,5-10.68,2.76-17.52l3.6-9-.84-2.76-2.28,5.52L407,390.12q1.44-64.62,1.56-129c.12-40.92-.24-81.24-1-121.2a275,275,0,0,1,49.68.48l.6-.6c3.36-5.64,3.12-11-.6-16.08a725.89,725.89,0,0,0-117.24,8.88l-.24.84a14.71,14.71,0,0,0,.48,11.28,46.51,46.51,0,0,0,27.48,1.44A262.69,262.69,0,0,1,403.44,140.28Z" transform="translate(-48.55 -123.72)"/></svg>