<svg id="Layer_1" data-name="Layer 1" xmlns="http://www.w3.org/2000/svg" viewBox="0 0 479.41 420"><defs><style>.cls-1{fill-rule:evenodd;}</style></defs><path class="cls-1" d="M148.8,157q-1.62,64.44-6.36,128.28l-.6,7.92a173.93,173.93,0,0,0-31.68,4.68l1.44-47.28q1.8-65,1.2-128.28a432.68,432.68,0,0,0-7.2,69.84q-1.44,64.08-4.32,128.16Q98.4,384.54,96,449.4c-.36,11.88,1.2,22.68,4.68,32.16a1.68,1.68,0,0,0,1-1.32q1.8-50.58,4.68-101.4c1.32-23.16,2.4-46.2,3.36-69.36l31.08-1.92q-4.14,53.1-9,105.84c-1,10.8-2.16,21.6-3.72,32.28-1.8,12.6-.24,23,4.8,31.56q5.94-51.66,9-104.64l3.72-65.52,4.56-.48.72-1c2.28-4.56,2-8.88-1-12.84l-3.48.12,2.76-48.72c2.52-43.08,5.28-85.44,8-127.32L157,117a6.37,6.37,0,0,0-3,3.36A161.24,161.24,0,0,0,148.8,157Zm4.32-86.64A1236.69,1236.69,0,0,0,28.92,110.4a9,9,0,0,0-1.08,9.72q29.16-9,58.56-17.64a118.24,118.24,0,0,0-2.64,25.8c-.24,42.6-.84,85.44-1.92,128.28q-1.26,48.06-6.48,95.52a567.24,567.24,0,0,0-.12,128.4q2.52-.18,2.52-3.24A1236.22,1236.22,0,0,1,82.32,349q5.58-63.9,5.76-128.16c.12-40.2.48-79.92.84-119,21.24-6.24,42.72-12.36,64.2-18.36l.72-1A10.67,10.67,0,0,0,153.12,70.32Zm141.84,76q-5.76,40.14-7.92,81.24c-2.28,42.6-3.84,85.32-4.92,128.28a86.61,86.61,0,0,1-1.92,15.84c-2.64,12.36-1.2,23.28,4.44,32.64a2.67,2.67,0,0,0,1.08-1.56,460.11,460.11,0,0,0,5.64-67.2c.6-42.84,2.28-85.68,5.16-128.28,1.44-21.84,2-43.2,1.68-64.08C296.4,143.16,295.32,144.24,295,146.28Zm-87.6-75a14,14,0,0,0-5.4,4.8l-.36.72a16.73,16.73,0,0,0-.36,4.92,8.77,8.77,0,0,0,1,4l.36.48c-4,32.16-7.08,64.56-9.12,97.2-2.76,42.72-5.16,85.56-7.44,128.4S180.24,397.44,175.56,440q-1.26,9.9-2.16,12.6a47,47,0,0,0,0,27.6c4.8-4.44,7.56-10.68,8.16-18.48q5.76-64.08,9-128.4c2.28-42.84,5-85.56,8.52-128.28,3.24-40,5-79.68,5.64-118.92a3.89,3.89,0,0,0,2.4-2.16,1.86,1.86,0,0,1,1-1,3.83,3.83,0,0,1,1.68-.36c3.84-.24,7.68-.24,11.52-.12q47,35.64,34.56,93.72a250.59,250.59,0,0,1-48.36,103.56l-8.16,7.56a52,52,0,0,0-5.64,5.88l-.6,3.36a22.57,22.57,0,0,0,.36,8,3.25,3.25,0,0,0,1.92,2.4A33.45,33.45,0,0,0,206,299.16a9.18,9.18,0,0,0,2-4.2l1.44-1.68a151,151,0,0,0,3.84,40.8q14.22,62.46,27.48,124.8c2,9.48,5.4,16.8,10.2,22.2l.72-.84A34.64,34.64,0,0,0,253,455v.84a9.61,9.61,0,0,1-.6,7.92,276.14,276.14,0,0,1-15.24-54.48Q226.86,349,211.68,290.64a201.17,201.17,0,0,0,21.84-33.24,309.14,309.14,0,0,0,24.72-61.8Q273,142.5,247.44,95.4c-8.4-15.48-20.88-24-37.56-25.56Zm187,13.8.6-1.08a19,19,0,0,0,.84-9.36,4.62,4.62,0,0,0-2.4-3.6,130.64,130.64,0,0,0-45.84.6l-7.2,1.44a17.6,17.6,0,0,0-2.88,7.68,2131.44,2131.44,0,0,0-10.92,218.16c.12,21.6-.6,43.08-1.92,64.44-1.08,16-2.52,32-4.32,48l-4,31.68-2,16-.48,3.6v3.48l.84,6.24a24.09,24.09,0,0,0,1.92,5.64l2.64,5a139.06,139.06,0,0,0,6.48-32.76q8.46-105.66,10.56-211.8L382.8,230l.48-1,.6-1.92a13.1,13.1,0,0,0-1.32-10.8l-1.08-1.8L336.6,225.48,341.88,84l52.2,1.56Zm109.44-21A495.12,495.12,0,0,0,403.2,96.84c-2.76,4-2.76,7.92,0,12a543.28,543.28,0,0,1,59.4-20.52c-3.72,38.52-6,77.28-6.84,116.52-.84,42.84-2.4,85.68-4.44,128.28Q448.44,397.38,447,461l-3.84-3.48a224.08,224.08,0,0,0,7.08,26.52c3.36-4.2,5-9.6,5-16q0-64.62,2.64-129l5.52-128.28q2.88-62.1.36-122.76,19.8-5.58,40-9.36l.72-.84C507.12,73.08,506.88,68.52,503.76,64.08Z" transform="translate(-26.89 -64.08)"/></svg>