<svg id="Layer_1" data-name="Layer 1" xmlns="http://www.w3.org/2000/svg" viewBox="0 0 298.61 211.2"><defs><style>.cls-1{fill-rule:evenodd;}</style></defs><path class="cls-1" d="M310.92,288.84a350.16,350.16,0,0,0-3,104.4c.36,2.76,1.68,4,4.2,3.84,16.2-1.08,23.64-9.12,22.32-24-4.92,1.8-9.72,5.4-14.4,10.56-3.12,1.56-5.76,1.32-8-.48a150.57,150.57,0,0,1-.6-24.36,631.52,631.52,0,0,0,.6-70.56C311.4,288,311,288.24,310.92,288.84Zm1.32-26.64.24,9,3.48,1.56c5.16-5.52,5.52-11.16,1.08-17ZM274,202.2c-2,27.72-3.6,55.68-4.56,83.64-9.6.84-19.32,2.16-29.16,3.84l-.84-65.4a37.5,37.5,0,0,0-4,16.2c-1.56,42.84-2.64,85.92-3.48,129.12-.24,12.12,1.56,22.68,5.52,31.68a240.75,240.75,0,0,0,3.84-48.72l-1-53.52A76.82,76.82,0,0,0,269,299l-.6,31.32a302.79,302.79,0,0,1-3.12,40.44c-1.68,12.12-.48,22.8,3.6,31.8a446.75,446.75,0,0,0,6.6-77.88q0-64.8.72-128.28A9.06,9.06,0,0,0,274,202.2Zm-69.6,5.64,38.4-1.44a9.93,9.93,0,0,0-.12-9.84l-.72-1.44a298.84,298.84,0,0,0-89.52,5.16V210l48.36-2Q190.86,295.8,188,384.48a38.29,38.29,0,0,0,1.68,12.72c1,3.24,2.52,5.64,4.56,7q4-89.46,10.8-178.68A65.48,65.48,0,0,0,205,213.6Zm171.48,49.32q4.68-32.58,6.48-63.36A48.73,48.73,0,0,0,374.76,215q-8.82,62.82-20,125.16A145,145,0,0,1,345.48,371c-5.16,12.24-5.4,22.68-.48,31.32a59.89,59.89,0,0,0,8.4-20.16Q366.72,319.74,375.84,257.16Zm55.08-59.64-27.84,104.4L383.4,193a216.7,216.7,0,0,0,1.2,45.72C386.4,253,388.8,267,391.8,281c3.24,15.48,6.12,30.72,8.76,45.84a14.06,14.06,0,0,0,2,5.88,5.87,5.87,0,0,0,4.2-4.44c4.32-15.12,8-30.48,11-46.08,4.2-22.08,7.92-44.16,10.92-66.36a272,272,0,0,0,1.2,51.36q6.3,53.46,12.24,106.92a67.76,67.76,0,0,0,8.52,26.28,213.77,213.77,0,0,0-1.8-41l-9.84-71.16A810.05,810.05,0,0,1,431.4,200C431.4,198.6,431.28,197.76,430.92,197.52Z" transform="translate(-152.4 -192.96)"/></svg>