<svg id="Layer_1" data-name="Layer 1" xmlns="http://www.w3.org/2000/svg" viewBox="0 0 548.35 528.12"><defs><style>.cls-1{fill-rule:evenodd;}</style></defs><path class="cls-1" d="M316.08,394.68l11.4,65.16c-9.6,2.28-19.08,4.92-28.32,7.92l-3.12,1L290,471a346.24,346.24,0,0,1,22.8-66A38.29,38.29,0,0,0,316.08,394.68Zm.84-13.8-.6-4a5.25,5.25,0,0,0-4.68,3.72,1073.17,1073.17,0,0,0-40.08,122.88,213.61,213.61,0,0,1-10.32,30.24c-4.92,11.64-4.8,21.84.12,30.72a7.49,7.49,0,0,0,2-3.36l22.44-75.84a64.29,64.29,0,0,0,14-2.64A92.59,92.59,0,0,1,317,479.16q7.92-.9,12.24-3.6,4,34.92,5.64,70.2l-.12.72C332.28,554,333.6,559.2,339,562a200.46,200.46,0,0,0,1.56-59.4c-2.52-20-4.68-40.08-6.72-60.12a188.24,188.24,0,0,0-16.8-61.8ZM197.52,39.24A854.17,854.17,0,0,1,96.84,74.52Q68.76,82.44,40.32,89.64c-13.92,3.48-18.84,10.8-14.88,21.84A360.29,360.29,0,0,1,60.72,99.24Q89.52,91,118,81.72a329.62,329.62,0,0,0-1.08,34.68l2.64,129q1.26,64.62,1.08,129,0,64.44-5.28,128.16a228.72,228.72,0,0,0,.72,48.12c1-.36,1.44-.84,1.56-1.44a232.54,232.54,0,0,0,8.16-58.2q.9-64.44,1.32-129,.18-64.62-.72-129-.9-64.62-1.44-128.28a92.81,92.81,0,0,0-3-24.36Q160.44,67.62,198.36,53l.48-.84A12.85,12.85,0,0,0,197.52,39.24Zm60.84,8.28a196.6,196.6,0,0,0-4.08,38.76q-.18,64.26-2.52,128.28c-1.2,32.28-2.64,64.32-4.32,96.36q-30.78-2-61.92-1.08.18-49-.12-97.92c-.36-43.32-1.44-86-3-128.28-3.48,3.72-5.16,8.76-5.16,15.36l1,129.12q.54,64.08,1.8,128.16-3.78,51.84-4.92,103.92a485.13,485.13,0,0,1-5.76,64.8c-1.8,12.12-.72,22.8,3.36,31.8a476.47,476.47,0,0,0,10.44-87.6c1.08-42.84,1.8-85.68,2.16-128.28l.24-17.28,2.76.12,58.44,1.92L245.64,343c-2.52,43-4.56,85.92-5.88,129a444.36,444.36,0,0,1-6.84,64.56c-1.8,10.2-.12,18.12,5.16,23.52a11.47,11.47,0,0,0,2.4-5.52,540.49,540.49,0,0,0,6.12-74q1.08-63.9,5.16-128.16,4-64.08,6.24-128.28c.6-16.08,1.44-32.28,2.4-48.6A935.12,935.12,0,0,0,259.2,47C258.6,47.16,258.36,47.28,258.36,47.52Zm47.64.84a159.72,159.72,0,0,0-2.64,42.84c2.88,42.36,4.32,85.2,4.32,128.28a807.22,807.22,0,0,1-10.32,128.88c-2,12.48-.6,23,4.32,31.56,3.6-24.6,6.12-49.44,7.68-74.76q4.14-64.26,4.2-129a1222.28,1222.28,0,0,0-6.72-128.28C306.24,48,306,48.12,306,48.36ZM458.52,60.72c-1.08,17.16-1.8,34.44-1.92,52.08q-.72,63.54-2,127.44-1.26,64.44-8.64,128.16-7,60.66-11.16,121.68c-2.52-21.84-4.56-43.8-5.88-66-2.76-42.6-6.24-85.08-10.68-127.44s-9.36-84.72-14.76-126.84a1134.28,1134.28,0,0,0-23-124.92,2.38,2.38,0,0,0-2.4,1.68c-1.8.24-2.64,1.44-2.52,3.48q4,63.18,4,127.44-.18,64.08-1.8,128.28-1.62,64.8-7.32,129.12L359,563a3.78,3.78,0,0,0,3.48,1.92,6.81,6.81,0,0,0,3.24-5.4Q373.5,496,378.12,432.12t6.36-128.28q1.8-64.62,2.52-129c.36-24.12-.48-47.88-2.28-71.4L388,123.12q11.16,63.72,18.6,127.92c4.92,42.36,9,84.84,12.48,127.44,3.48,42.12,6.6,84.36,9.6,126.6.6,9.24,1.68,18.24,3.12,27.12a29.77,29.77,0,0,0,2.4,14c1.56,7.08,3.24,14.16,5.28,21.12,3.6-4.2,4.92-9.6,3.84-16.08l-2.52-15.84,2.64-41q4.32-63.9,11.16-127.56,6.66-63.54,7.44-128.16c.36-43.08,1.32-86.16,2.64-129.12.6-22.08.72-43.44.24-64.08C461,49.2,458.88,54.24,458.52,60.72ZM543.36,165.6q-51.3,38.7-60.6,105.72A161.61,161.61,0,0,0,493.2,356a46.29,46.29,0,0,0,19.08,22.56,19.51,19.51,0,0,0,15.24,2.64,54.83,54.83,0,0,0,17-7.2,68,68,0,0,0,11.52-9.6c-.12,8.76,1.68,16.44,5.52,22.92a259,259,0,0,0,5-88.08l-33.84,3.24a15.56,15.56,0,0,0-1.44,6.6,10,10,0,0,0,1.68,5.52L562,316.32l-.72,7.56a10.64,10.64,0,0,0-4,7.32,15,15,0,0,0,1,7.56c-17.88,26.76-35.64,29-53.28,7.08-11-13.68-15.72-29.4-14-47.28a246.59,246.59,0,0,1,16.8-69.24,182.56,182.56,0,0,1,15-28.8,33.47,33.47,0,0,1,11.88-11.28,35.32,35.32,0,0,1,20.88-4.68,122.72,122.72,0,0,0,15.6,16,4.31,4.31,0,0,0,1.2.84c1.56-19.08-6.84-30.72-25.2-35Z" transform="translate(-24.12 -39.24)"/></svg>