<svg id="Layer_1" data-name="Layer 1" xmlns="http://www.w3.org/2000/svg" viewBox="0 0 490.93 431.76"><defs><style>.cls-1{fill-rule:evenodd;}</style></defs><path class="cls-1" d="M188.28,189.72l.24,36-.12,36L188,285.6a175.84,175.84,0,0,0-47.64.72l3.72-153.48A189.17,189.17,0,0,0,135,198c.84,30.12.84,60.12-.24,90.24l-1.32,1.68c.6,23.64.36,47.76-1,72.36-1.32,23.16-2.52,46.56-3.6,70-.24,4.08-.36,8.16-.24,12.24l.24,12c.12,5.64.6,11.4,1.2,17.28,5.16-2.52,7.56-7.32,7.44-14.64-.36-16.44-.36-32.76.12-49.2l1.08-42.72,1-46,.48-23,47.52-.36Q184.8,377.22,179.4,456a35.78,35.78,0,0,0,1.08,12.36,55.46,55.46,0,0,0,2.28,7.2,16.2,16.2,0,0,0,1.8,3.12l8.76-180.6,1.68.12V286.08l-1.44-.48,2.52-167.88a186.65,186.65,0,0,0-7.32,44.64C188.28,171.48,188.16,180.6,188.28,189.72ZM233.76,90.6c12.84,11.64,19,26.88,18.12,45.48q-1.62,33.66-31.8,42.24,1.44-43,1.92-85.68Zm-13.08-7.8-.84,4.8-.48,2a306.78,306.78,0,0,0-4.8,51.6,1226.44,1226.44,0,0,1-8,128c-1.44,12.36,0,22.92,4.2,31.68q6.12-44.82,8.16-91l.84-19.92a36.38,36.38,0,0,0,11-2.76,458.9,458.9,0,0,0,21.6,110.4,4.2,4.2,0,0,0,3.6,2.4A3.14,3.14,0,0,0,257,297q-12.42-54.9-24.36-110.52c8.28-4.2,14.4-11.52,18.36-22.2a92.07,92.07,0,0,0,6-30q1.26-33.48-23-53.4l-4.56-.24-5.76,3a4.93,4.93,0,0,0-1.56,1V81.72A1.12,1.12,0,0,0,220.68,82.8Zm-35.16-.72-15.6-.6c-15.12,1.8-30.6,3-46.56,3.36a67.22,67.22,0,0,0-14.76,1.92,470.35,470.35,0,0,1-76.08,13.32,13.43,13.43,0,0,0-.72,10.56l.36.84a36.12,36.12,0,0,0,24.36,1,423.93,423.93,0,0,1,49.68-11.28c-2.76,40-4.44,80-5.16,120.48-.84,42.84-2,85.68-3.84,128.28-1,21.36-2.4,42.6-4.32,63.84a310.69,310.69,0,0,0,.48,64.32c.84-.24,1.2-.6,1.32-1.08a184.37,184.37,0,0,0,6.6-46.8L103.92,302q.9-40,3.24-79.56a1111,1111,0,0,0,.6-121.56,394.5,394.5,0,0,1,79-4.56,16.74,16.74,0,0,0,.12-13l-.48-.84ZM380.88,298a50.48,50.48,0,0,0-4.8,24.6,818.59,818.59,0,0,1-1.8,90.84,346.67,346.67,0,0,0,1,64.2l1.44-.24a369.15,369.15,0,0,0,5.4-54.24c.48-17.64.72-35.4.84-53a73.58,73.58,0,0,0,32.16-2.88l.36-.84c2-5.16,1.56-9.72-1.44-13.8q-15.66,2.7-31,6.48c.12-18.24,0-36.36-.24-54.36a58.33,58.33,0,0,1,26.88-1.56l1-1.8c2.28-4.68,1.56-8.64-2-12l-2.76-.36a32.73,32.73,0,0,0-24.36,6ZM354.48,107c-2-21.72-15.36-29.52-40-23.64-9.48,2.28-16.44,8.28-20.88,18.24a205.47,205.47,0,0,0-14.4,45.84,662.7,662.7,0,0,0-9.36,72.36c-1.08,14.88-1.56,29.76-1.32,44.76a156.65,156.65,0,0,1-.48,16.68c-1.68,23.4-2.64,47-2.88,70.68l-.48,31.44A321.35,321.35,0,0,0,266.4,425a93.88,93.88,0,0,0,3.84,19.2,92.37,92.37,0,0,0,22,36.84l3.48,3.48c15.12,1.32,28.08-3.24,39-13.68a95.78,95.78,0,0,0,22.68-32.76,17.32,17.32,0,0,0-.72-15.36l-1.08-2-3.6,5.4-1.92.24a68.9,68.9,0,0,1-24.12,30.48,53,53,0,0,1-25,9.72l-4.2.48A70.23,70.23,0,0,1,275.4,421q-4.86-66.06-3.48-132.36l42.48,2.52c2.52-5,2.4-9.72-.48-13.92l-41.64,1.08q-3.78-81.54,23.28-156.48A89.06,89.06,0,0,1,309,97.2c16.92-7.56,31.44-4.68,43.32,8.76Zm25-24.48a207.86,207.86,0,0,0-2.52,59.88l5.4,53a153.73,153.73,0,0,0-22.2-2.76c4.44-21.48,8.52-43.08,12.48-64.68a269.29,269.29,0,0,0,4.32-47.16q-.72.18-.72.36c-7.08,36.84-14.64,73.8-22.68,111.12q-6.84,31.32-16.2,61.92c-3.72,12.12-3.36,22.56,1.2,31.2,3.24-10.68,6-21.48,8.52-32.4,3.84-16.92,7.56-33.72,11-50.64,8.64,1.68,17,3.12,25.32,4.2l6.48,61.2c-.48,4.44,1.2,8.28,5.16,11.4,3.84-5,4.8-11,2.88-17.88A282.44,282.44,0,0,1,388.8,209q-4.86-63.9-8.64-126.72C379.68,82.2,379.44,82.2,379.44,82.56ZM519,71.76c-40.68,1.32-81,3.48-120.72,6.72l-.6.84A11.17,11.17,0,0,0,397,90.6c23.64.36,47.28.24,71-.6q-3.78,61.56-3.84,124.08.18,64.62-4.68,128.4-4.86,64.44-8.16,128.76c-.6,12.12,1.2,22.92,5.4,32.28a2.14,2.14,0,0,0,1.08-1.44,192.86,192.86,0,0,0,3.72-36.48q.18-64.08,5.16-128.16c3.24-42.36,5-85.2,5.28-128.28l.48-119.28,47.88-2.76.48-.84C522.84,80.88,522.24,76.08,519,71.76Z" transform="translate(-31.05 -71.76)"/></svg>