<svg id="Layer_1" data-name="Layer 1" xmlns="http://www.w3.org/2000/svg" viewBox="0 0 487.23 372.24"><defs><style>.cls-1{fill-rule:evenodd;}</style></defs><path class="cls-1" d="M270.6,112.32a746.55,746.55,0,0,0-7.32,100.92c-.12,22.44-.48,44.88-1,67.32A241.65,241.65,0,0,0,185.16,287v-.6q5-64.62,5.52-128.16a849.06,849.06,0,0,0-10.2,97.56q-3.06,63.9-6,128.4c-1,21.48-2.88,42.72-5.64,64-1.32,9.72.12,17.52,4.08,23.4a422.77,422.77,0,0,0,5.52-56.88c1.08-40.44,3.24-80.64,6.24-120.72l.84,2q38.16.36,76.44-1.8l-1.56,48.12q-1.44,40.32-5.88,80.16a153.35,153.35,0,0,0,1.92,47.76,461.57,461.57,0,0,0,7.08-67.92l3-108.48h.24l.36-.84c1.56-3.72,1.56-7.08-.24-10.32l.24-9.36q1.62-64.8,6.12-129.12A97.15,97.15,0,0,0,270.6,112.32ZM217.2,108a457.47,457.47,0,0,0-47-2.64l-45.6,1.44c-14.16.72-28.44,1-42.84.84l-27.84,1.44-.24,6.48,76.68,2.52c-3,22.2-4.8,44.52-5.64,67q-1.08,32-2.88,64.08L112.68,409.2A385.51,385.51,0,0,0,114,473a2.36,2.36,0,0,0,1.56-2l1.56-9.24A469,469,0,0,0,122,400.92q2.16-116.1,11.28-231.84l.72-14.64c.12-7.32-.12-14.52-.72-21.84L132,118.08l84.72,1.2Zm190.08,31.2C399,124.56,385.8,118,367.92,119.28q-44.46,14.76-64.56,58a181.79,181.79,0,0,0-16.92,65.4,831.08,831.08,0,0,0,1,128.16c1,11,2.28,22,3.84,32.88C295,427.8,306,447.6,324.48,462.84Q349,483,373.56,466.08a258.34,258.34,0,0,0,26.28-20.64c9-8,9.84-15.72,2.76-23A141.88,141.88,0,0,0,384,441.72c-9.48,11.88-21.48,16.68-35.88,14.4-20.16-3.24-33.72-14.28-40.68-33.36A299,299,0,0,1,289,312l.48-19.32a663.55,663.55,0,0,0,79.08,4,10,10,0,0,0,2.4-7.08v-2.4l-.24-1-.24-1.56a8.66,8.66,0,0,0-1.08-2.4c-.36-.36-.6-.48-.84-.48q-35.1,0-69.84-1.44a11.86,11.86,0,0,0-7.56.84l-.84.72-.72.72.36-18.48a185.52,185.52,0,0,1,20.4-81.84A100.36,100.36,0,0,1,341.64,146q32.4-22.86,65.88-6.12Zm132.36-10.08a1128.85,1128.85,0,0,0-6.12,121.44q.18,64.62-5.76,128.28c-1.92,20.52-4.56,41-8,61.32q-10.26-32.22-18-65.28-14.58-62.64-26-125.52-11.52-63.18-26.28-124.92l-1,.6-.12-4.32-.48,4.8q-2.88,2.34-2.16,6.84l-.48.24c-1.56,3.24-1.32,5.88.84,7.8q-4,36.9-6.36,75.6l-2.88,47.64c-1.44,21.36-2.28,42.84-2.52,64.32a1088.08,1088.08,0,0,1-8.4,126.36v-.84a11.37,11.37,0,0,0-.6-4.92c-2.76,9.72-1.68,18.36,3.36,25.8a2.67,2.67,0,0,0,1.08-1.56A656.9,656.9,0,0,0,439,376.32q1.44-64.26,6-128.16,3.42-50.94,3.6-100.92c3.24,16.68,6.36,33.36,9.24,50q11,62.82,25.32,124.68,14.4,62.46,27.72,125.16c2.52,11.88,6.36,22.08,11.64,30.48a34.79,34.79,0,0,0,2.76-16.32q5.58-37.62,8.88-75.84c3.72-42.6,5.76-85.32,6.36-128.4.6-43.44.48-86.16-.12-128.28Q539.64,128.58,539.64,129.12Z" transform="translate(-53.64 -105.36)"/></svg>