<svg id="Layer_1" data-name="Layer 1" xmlns="http://www.w3.org/2000/svg" viewBox="0 0 307.34 215.14"><defs><style>.cls-1{fill-rule:evenodd;}</style></defs><path class="cls-1" d="M253.56,304.8,278,308.4a823.53,823.53,0,0,0-.72,87.72c.12,3.24,1.2,5.64,3.12,7a916.42,916.42,0,0,0,7.2-114.84l-.36-95.88a266.87,266.87,0,0,0-8.76,100.08l-24.72,1.92a470,470,0,0,0-4.44-77.64Q247.2,299,239.28,380.88a33.79,33.79,0,0,0,1.2,12.48,20.48,20.48,0,0,0,3.84,7.32,536.12,536.12,0,0,0,9-85.92ZM240.24,190.56a447.46,447.46,0,0,1-89.52,9.72l-.6,1.56a11.31,11.31,0,0,0-.24,5.64l.36.84a6.47,6.47,0,0,0,4.56,2.28c13.68.84,27.36,1.2,41,.84q0,63,.6,125.64a206.48,206.48,0,0,1-2.16,32.28c-1.8,11.88-1,22.68,2.76,32.4a2.14,2.14,0,0,0,1.08-1.44,351.26,351.26,0,0,0,6.48-73c-.6-39-2-77.76-4.32-116a442.18,442.18,0,0,0,50.28-4.56,10.15,10.15,0,0,0,2.88-8.16,16,16,0,0,0-2.16-6.48,2.41,2.41,0,0,0-1.56-.48Zm112.08,142.2-43.56,5.76q11-41.94,48.6-29.52-3.6-29.52-31.2-12.36A54.74,54.74,0,0,0,301.32,330,106.7,106.7,0,0,0,299,375.24c3,17.88,12.6,28,28.8,30.12,16.8,1.92,30-4.32,39.48-18.72,4.8-7.08,4.32-13.68-1.56-19.8-9,16.68-22.44,23.4-40.44,20.16-7.56-1.2-12.48-5.88-15-13.92a71.47,71.47,0,0,1-3.24-21.36l45.6-3.12Q357.54,340.68,352.32,332.76Zm63.84-31.32A195.63,195.63,0,0,0,421.8,332c4.68,17.16,9.12,34.56,13.56,52.08,2.28,9,5.88,16.08,10.56,21.24a5.55,5.55,0,0,0,1.08-4.68,938,938,0,0,0-27.12-107l26.76-56.28c7.08-15,10.56-30.12,10.32-45.24-15.84,31.56-31.2,63.6-46.08,96.36a112.7,112.7,0,0,1-12.48,21,44.46,44.46,0,0,0-4.32,6.6l.6-27.84c.12-10.32.84-20.52,1.92-30.72a340.35,340.35,0,0,0,1.08-64.32c-3.72,7.08-5.76,15.36-6.24,25.08-2.28,43-4.32,86-5.88,129.12a237.42,237.42,0,0,1-3.36,32.16c-1.8,10.2-.12,18.12,5.28,23.64l.6-1c3.48-9.24,4.44-17.16,2.64-24l2.16-34.92a125,125,0,0,0,13.92-22.56Z" transform="translate(-149.63 -190.56)"/></svg>