<svg id="Layer_1" data-name="Layer 1" xmlns="http://www.w3.org/2000/svg" viewBox="0 0 277.56 206.16"><defs><style>.cls-1{fill-rule:evenodd;}</style></defs><path class="cls-1" d="M273.84,285.24a135.67,135.67,0,0,0-29.4,4.92q-.18-32-1.44-63.72c-2,.36-3.24,1.8-3.36,4.32-2.28,42.6-3.6,85.32-3.72,128.28a69.7,69.7,0,0,1-1.8,15.84c-2.28,9.84-1,17.76,3.72,23.64a10.88,10.88,0,0,0,2.76-5.64A306.76,306.76,0,0,0,244,354.72c.36-17.88.6-35.76.6-53.64l42.72-1c-.36,15-.48,30.12-.48,45.12q-2.34,14-4.32,28.08c-1.56,11.64.48,21.12,6.24,28.44q3.06-23.22,4-47.88l1.56-29q4.32-64.62,2.52-127.56a49.35,49.35,0,0,0-5.64,20.4q-2.34,34.74-3.36,69.24A74.86,74.86,0,0,1,273.84,285.24Zm-31.08-88L241.32,196l-89.28,7,.36,9.6,46.08.72q-4.32,81-13.68,161.52a37.3,37.3,0,0,0,.48,12.12,44,44,0,0,0,3.6,10.8,404.13,404.13,0,0,0,10.8-78.36c.6-15.24,1.08-30.36,1.2-45.6.24-20,0-40.2-.84-60.48L243.72,210C246.48,205.32,246.24,201.12,242.76,197.28ZM421.92,352.44l-3.36,23.28c-1.56,10-.12,18.36,4.08,25.2l.48-.84a435.2,435.2,0,0,0,5.76-99.72L424,338a56.72,56.72,0,0,0-21.6,3.48,198.14,198.14,0,0,0-3.84-40.92c-1.92,22.68-3.12,46.56-3.72,71.4a47.11,47.11,0,0,1-1.68,10.92c-2.52,8.64-1,15,4.56,19.2a3.7,3.7,0,0,0,.84-1.68c1.56-15.84,2.76-31.92,3.6-48.12A83.88,83.88,0,0,0,421.92,352.44ZM359.28,297.6Q330.84,312.9,330,347.88a100.65,100.65,0,0,0,7.2,40.2c4.2,10.68,12.12,13.56,23.64,8.52,14.16-6.24,19.2-15.84,15.24-28.68-5.4,9.36-13.2,14.76-23.52,16.32-7.92.84-13-2.52-15.12-10.32a55.52,55.52,0,0,1-1.92-20.4,52.35,52.35,0,0,0,29.16-1.44l-.36-9.24-27.24,1.08a63.48,63.48,0,0,1,21.12-33.36l2.16-1.8,15.72,7v-7.8Z" transform="translate(-152.04 -195.96)"/></svg>