<svg id="Layer_1" data-name="Layer 1" xmlns="http://www.w3.org/2000/svg" viewBox="0 0 299.52 213.34"><defs><style>.cls-1{fill-rule:evenodd;}</style></defs><path class="cls-1" d="M340.92,293.52c-15.48-8.88-28.32-5.88-38.76,8.88a82.36,82.36,0,0,0-15.12,44,81.22,81.22,0,0,0,9.84,43.8c8.28,15.36,20.76,18.24,37.2,8.52,10-5.76,13.32-14.28,10-25.44l-3.12-.6-4.56,6.36q-28.08,20-38.76-5.76a62.64,62.64,0,0,1-4.8-27.84H336a10.52,10.52,0,0,0,2-8.64,12.63,12.63,0,0,0-2-4.92l-42.12,3.36q8.28-38.88,47.88-33.6ZM272.76,220.8l-1.92-24.36a394.18,394.18,0,0,0-4.08,61.8c.12,10.32,0,20.64-.36,30.84a86.87,86.87,0,0,0-30-.24l-3.84,1.08.36-77.52a86.32,86.32,0,0,0-5.64,27.48c-1.44,32-3.84,64-7.2,96a240.09,240.09,0,0,0,.72,57.24c.48,3.72,1.44,6,2.88,6.72a834.16,834.16,0,0,0,8.52-99.6l33.6,2.64a593.15,593.15,0,0,1-5.88,68.4,82.15,82.15,0,0,0-.84,13.2,45.72,45.72,0,0,0,4.44,19,17.23,17.23,0,0,0,3.84-9.6l5.76-81.24.84-12.12c.84-14.28,1.08-28.56.72-43.08C274.32,245.16,273.6,232.92,272.76,220.8ZM240,202l.24-.84.36-2.52-.48-3.24-.72-2.4a154,154,0,0,0-43.32-.72l-44.28,5.88-.72,7.2,43.8-.12c-3.24,39.84-6,79.68-8,119.52a414.24,414.24,0,0,0,2.88,76A408.4,408.4,0,0,0,197,334.32q1.62-64.44-.36-129.12l42.48-1.68Zm176.64-5.76c-22.08,17.64-36.24,40.2-42.36,67.92a241.87,241.87,0,0,0,3,117.84q2.52,9.18,11.88,13a45.65,45.65,0,0,0,17.28,3.36,31.53,31.53,0,0,0,13.2-2.88,44.11,44.11,0,0,0,12.6-8.28,59.6,59.6,0,0,0,6.6-6.84,34.75,34.75,0,0,0,.12,7.92q.9,7,4.68,10.8a144.78,144.78,0,0,0,1.68-61.32L425,342.24v8.16l16.56,1.08-.84,9.24-2.4-3.36L435,366.48c-11.76,12.84-26.4,18.12-43.8,15.84q-20.34-37.08-17.28-80a148.8,148.8,0,0,1,28.68-79,132.69,132.69,0,0,1,9.72-12l4.32-2.16,28.44,2.4,5.52,5.16c-.24-11.88-6.84-18.72-19.8-20.64A40.1,40.1,0,0,0,416.64,196.2Z" transform="translate(-151.08 -191.05)"/></svg>