<svg id="Layer_1" data-name="Layer 1" xmlns="http://www.w3.org/2000/svg" viewBox="0 0 406.56 402.53"><defs><style>.cls-1{fill-rule:evenodd;}</style></defs><path class="cls-1" d="M287.28,372.24l22.8-58.44,9.24,57.36Zm27.24-74-1.68-2.52c-3.24,1.92-4.44,5.64-3.72,11.28L276.6,373l-2.52.12-.24,6.48a260.91,260.91,0,0,1-32.16,66,16.26,16.26,0,0,0-2.4,5.28,22,22,0,0,0,.84,14.16l.72,1.68L283,382.08a94.68,94.68,0,0,0,38.52-.36,539.6,539.6,0,0,0,24.84,91.08,255.52,255.52,0,0,0-12.36-81q-7-22.32-12.24-45.36a217.5,217.5,0,0,1-5.4-51Zm-91-227.52a561.94,561.94,0,0,0-6.84,76c-.84,40-1.56,80.16-2.16,120.36a143.58,143.58,0,0,1-61.08-6l.12-6.36q2.52-65.16,6.84-127.44a135.9,135.9,0,0,0-9.36,46.2q-1.62,44.1-4.08,88.44l-.36,2,.12,1.92-2.28,35.76q-4.5,64.26-10.8,128.16c-1.08,11.76-.24,22.56,2.64,32.4a2,2,0,0,0,1-1.44q5.4-38.52,8.64-77.64Q150.6,326.7,153,270a101.33,101.33,0,0,0,61.44,7.32q-.9,63.72-7.56,126.6a251.28,251.28,0,0,0,.84,63.84,734.48,734.48,0,0,0,7.08-76l2.64-64.2,4.56-129c1.56-43.32,2.28-86.16,2.28-128.28A.5.5,0,0,0,223.56,70.68Zm-37.44,0h-.36c-43.08.6-86.28,2.76-129.48,6.24l-11,1.32-.12,7.92c22,.12,44.76-.24,68.4-1.2Q97.32,267.3,87.6,450.6a57.51,57.51,0,0,0,.6,12l1.08,7.68a3510.74,3510.74,0,0,0,25-355.92l.6-29.4,73.8-1.44A16.33,16.33,0,0,0,186.12,70.68Zm146.4,3.24c-15.84-4.68-30.36-1.44-43.44,9.6a102.5,102.5,0,0,0-26.28,34.32,241.09,241.09,0,0,0-15,41.76,207.51,207.51,0,0,0-6.36,44.52,108.17,108.17,0,0,0,7.08,42.36,105.81,105.81,0,0,0,22.8,35.64c10.44,10.68,23.52,13.68,39.48,8.76q23.22-7,36.72-26.28a19.33,19.33,0,0,0,3.36-14.52q-29.7,22.5-64.44,23.4a20.35,20.35,0,0,1-12.36-4.08,59.2,59.2,0,0,1-22.44-31.92,113.39,113.39,0,0,1-3.84-44l.84-8.28,59,4.32.84-2.88.48-4.08a6.67,6.67,0,0,0-.48-2.76l-1.32-2.88a194,194,0,0,0-57.12-1.2,154.35,154.35,0,0,1,34.44-74.16q13-15.3,33.12-15.84A63.17,63.17,0,0,1,336,88l3.36,3.72a1.39,1.39,0,0,0,1.92-1.2A11.82,11.82,0,0,0,341,83.4a27.43,27.43,0,0,0-4-7.08Zm88.2,235.68c9.84,2.88,15.84,3.84,18,3q-12.42-26.1-37.2-12.72c-12.48,6.6-20,17-22.8,31.32-2.88,14.88-5.16,29.88-7,45.12a172.42,172.42,0,0,0,.72,45.84c2.4,16.08,10.08,28.8,22.92,38q20.16,14.76,38.88-5.64a57.45,57.45,0,0,0,15.12-33q-17.46,31.86-46.08,26.28c-13.92-2.76-22.08-11.16-24.36-25.32a179.93,179.93,0,0,1-2.28-30.12,118.69,118.69,0,0,0,48.6-3.36,9.07,9.07,0,0,0-2.64-9.72,112.73,112.73,0,0,0-46.56,2.88c-3-33,8.16-56.88,33.48-71.4A14.29,14.29,0,0,1,420.72,309.6ZM376.2,76.08a211.64,211.64,0,0,0,34,69,3.71,3.71,0,0,0,1.44-4.92,348.67,348.67,0,0,0-34.92-64.92A.68.68,0,0,0,376.2,76.08Zm73,1.8q-19.62,54-40.68,108.6a622.25,622.25,0,0,0-33.24,121.44l.72.72,1.8,1.44a2.92,2.92,0,0,0,1.2-1.56q8.28-27.9,17.16-56.16,19.26-61,40.2-121.68a278.19,278.19,0,0,1,12-29.64C452.52,92,452.76,84.24,449.16,77.88Z" transform="translate(-45.12 -70.28)"/></svg>