<svg id="Layer_1" data-name="Layer 1" xmlns="http://www.w3.org/2000/svg" viewBox="0 0 407.18 350.04"><defs><style>.cls-1{fill-rule:evenodd;}</style></defs><path class="cls-1" d="M307.08,133.8a66.72,66.72,0,0,0-8.4-2.28,45.42,45.42,0,0,0-12.48,6.36C266.28,152.4,254.28,172.2,250.08,197a1218.75,1218.75,0,0,0-14.64,127.68L233,356.16c-3,35.76,4.92,67.8,24,96l1.08.72,2.52,1.08,1.8,1.08a19.18,19.18,0,0,0,13.68-.48,60.44,60.44,0,0,0,15.12-9.12c14.64-12,20.52-25.68,17.76-40.92a27.09,27.09,0,0,0-8.52,9.12c-9,15.48-21.36,23.76-37.2,24.72l-.36-.36-.6-.36-3.12-1.44a42,42,0,0,1-3.84-6.72q-18.72-40.86-14.88-88.08L244,299.64a109.1,109.1,0,0,1,48.24,5.64A13.23,13.23,0,0,0,299,294.36c.36-5.4-1.2-8.28-4.92-8.88l-.6,1.68a5.82,5.82,0,0,1-2.4,3.24l-1.56.12a136.09,136.09,0,0,1-24.48-6.36,29.26,29.26,0,0,0-20,3q3.24-35.46,6.84-70.8,4.68-47,42.48-71.28a12.81,12.81,0,0,1,12.12.72,25.62,25.62,0,0,1,2.76,5,13.86,13.86,0,0,0,4.92,6.36,8.8,8.8,0,0,0,1.08-6.48,48.52,48.52,0,0,0-6.84-16.2Zm-88.44,37.8q-1.26,57.06-4.32,113.76l-1.08-.12a155.53,155.53,0,0,0-46.44,11.88l.36-6q4-64.8,3-128.16c-2.52,2.88-3.84,6.6-4,11.28l-3.6,93.36q-2.7,64.26-9.48,128.16a277.36,277.36,0,0,0,.48,64,324.25,324.25,0,0,0,5.16-40.32l7.44-112.08a315.18,315.18,0,0,0,47.28-7.68v.24q-3.78,64.26-11.52,128c-1.44,12.12,0,22.8,4.2,31.8,3.24-25.92,5.64-52.2,7.44-78.72l8.28-128.28c2.76-43.08,3.48-85.92,2.4-128.28A232.85,232.85,0,0,0,218.64,171.6Zm-28-45a17.05,17.05,0,0,0-.12-5.52,2.79,2.79,0,0,0-1.8-2.28,131.64,131.64,0,0,1-43.44,2.4,257.51,257.51,0,0,0-45.12-.12,279.4,279.4,0,0,0-44.4,7.68l-.24,7.8c15.48,2,31.32,1,47.76-3a42.51,42.51,0,0,1,19.44-.48q-5.58,65.88-7,132.24-1.44,64.44-8.64,128.4a244.7,244.7,0,0,0,.24,57,52.13,52.13,0,0,0,1.32,7.08,1800.23,1800.23,0,0,0,14.52-200.52q.9-46.62.72-93.12l-.24-30.84a121,121,0,0,0,49.56.84,127.34,127.34,0,0,0,16.08-4.32A5,5,0,0,0,190.68,126.6Zm160.2,43.56c-2,42.6-4.56,85.2-7.32,127.56a1234.08,1234.08,0,0,1-15.24,128c-2,11.88-1.08,22.56,2.88,32.28a562.74,562.74,0,0,0,10.68-70.32Q347.46,324,351,260.28q3.6-65,5.28-128.28A192.44,192.44,0,0,0,350.88,170.16Zm79.2-2.52a64,64,0,0,1,15.12,42.72,86.14,86.14,0,0,1-11.88,44.16,102.11,102.11,0,0,1-29.64,32.4c-5.88,4.08-11.88,7.8-18.12,11.28l7.68-151.44A59,59,0,0,1,430.08,167.64ZM399.36,136.2a16.8,16.8,0,0,0-6,0v-.12a1.67,1.67,0,0,0-1.68.6,6.08,6.08,0,0,0-1.8.84,4.63,4.63,0,0,0-1,2.4A15.5,15.5,0,0,0,389,144l.36,1.56,1,.48q-5.76,48.06-7.68,97.2-2.7,64.44-8.88,128.4a569.34,569.34,0,0,1-9.84,63.6c-2.52,12.12-1.8,22.8,2.4,32a473.54,473.54,0,0,0,12.24-76.2l6.12-81.24,1.08,1.08A74,74,0,0,0,406,299.28l1-.84,12.48,49.92a726.17,726.17,0,0,0,41.16,120.48,5.11,5.11,0,0,0,2.16-4,61.75,61.75,0,0,0-4.92-25.56,307.15,307.15,0,0,1-10.44-30.12q-16-57.78-37.2-113.4Q459.3,253.14,447,187.2q-7.56-40.86-47.64-51.12Z" transform="translate(-55.56 -118.8)"/></svg>