<svg id="Layer_1" data-name="Layer 1" xmlns="http://www.w3.org/2000/svg" viewBox="0 0 301.32 216.35"><defs><style>.cls-1{fill-rule:evenodd;}</style></defs><path class="cls-1" d="M301.68,294.36c5.64-27,10.44-53.76,14.28-80.52.6,25.92,2.16,51.84,4.92,77.64A57.33,57.33,0,0,0,301.68,294.36Zm15.48-94.68c-3.24,9.48-6.6,21.84-10.32,36.84-2.76,11-5.28,22.08-7.68,33.12-3.48,15.36-7,30.6-10.68,45.84-3.12,13-6.72,25.8-10.68,38.52l-11.28,34.8C264.36,395,265,399.72,268.44,403l2.64.24a688,688,0,0,0,22.32-72.72l6-25.44,22.8-1.8q6.3,43.56,8.64,87.36a41.91,41.91,0,0,0,1.68,8.76c1.08,3.24,2.52,5.4,4.32,6.6a192.29,192.29,0,0,0,.36-37.2c-.72-8.88-1.68-17.76-3-26.52l-5.28-39.72.36-9.84L327.6,292l-9.12-96.6ZM230.76,197l-.84-1.44a219.44,219.44,0,0,0-78.6,6v8.16l38.16-.84q-6.3,71.64-8.16,143.88c-.24,10.92.12,22,1,33a43.82,43.82,0,0,0,3.6,14.4,1357.52,1357.52,0,0,0,4.92-191.4L230.64,206A9.24,9.24,0,0,0,230.76,197Zm25.56,1.8c-2.76,30.72-4.56,61.68-5.64,93l-2.88-.12L220.2,295c.36-24.84.36-49.56-.24-74.16a48.93,48.93,0,0,0-4,18.72q-1.62,64.26-6.36,128.16c-1,12,.36,22.56,4.08,31.68a449.14,449.14,0,0,0,4.8-50.28c.72-15.48,1.2-31,1.56-46.32a91.35,91.35,0,0,0,30.24,1.44v1c-.48,21.48-1.8,42.72-4,64-1.32,12.12.12,22.8,4.2,31.8a674.6,674.6,0,0,0,6.48-73.8l.6-24.12,2.4-.48a7.78,7.78,0,0,0,.48-8.88l-.48-1-.84-.36-1.44-.12c.36-31.32.12-62.52-1-93.36Zm165,.36h-.48q-5.94,40.86-8.28,83.28-3.78,64.62-5.88,128.28c4.32-3.24,6.6-8.76,7-16.32l-1.56-3.72q3.06-30.24,4.32-60.84l1.08-26.4,24.24.72-2,35.52c-1.08,21.72-1.68,43.2-1.68,64.2,5-3.72,7.8-9.84,8.4-18.48,1.32-20.16,2.4-40.44,3.12-61,1.56-43,2.52-85.44,3.12-127.44a26.26,26.26,0,0,0-4.92,14.52q-2.88,39.06-5.16,78.12l-3.12-.12a60.45,60.45,0,0,0-21.36,2.64l4.32-90.6-.36-.84Zm-49.08,13.56c-5.88,18.36-5.76,37.08.36,56.4,6.6,20.52,13.44,41,20.4,61.32q9.36,27.9-5.52,49.44a37.24,37.24,0,0,1-20.16,1,2.57,2.57,0,0,1-2-1.56,245.49,245.49,0,0,0-15.12-33,6,6,0,0,0-2.88,5.64,81.19,81.19,0,0,0,2.88,18.36,48.84,48.84,0,0,0,13,22.56c5.4,5.4,11.76,6.48,19.08,3q26.1-12.6,19.8-43.68-11.34-55.62-27.6-110.52c-5.16-17.28.84-27.12,17.88-29.52a23.15,23.15,0,0,1,7.8,6.6,8,8,0,0,0,4.92,3.36,11,11,0,0,0-1.56-9.6,16.72,16.72,0,0,1-1.92-4.2l-.72-.84q-7-7.92-17.64-6.12A17.27,17.27,0,0,0,372.24,212.76Z" transform="translate(-151.32 -194.41)"/></svg>