<svg id="Layer_1" data-name="Layer 1" xmlns="http://www.w3.org/2000/svg" viewBox="0 0 519.15 337.47"><defs><style>.cls-1{fill-rule:evenodd;}</style></defs><path class="cls-1" d="M58.2,121.56a12.35,12.35,0,0,0-.6,10.68l1,1.8a291.11,291.11,0,0,0,67-2.28q-11.16,154.08-7.68,307A2.6,2.6,0,0,0,119,441q10.08-154.26,10-309.72a180.39,180.39,0,0,1,72.6,0c-2.52-15.48-13.56-21.72-33.36-19-14.52,2.28-29.28,4.2-44.16,5.64L84.6,120.84Zm228.6,3.72A69.85,69.85,0,0,0,256.32,166a448.6,448.6,0,0,0-15.48,83.64l-2.4,27.24c-1.08,13.2-1.68,26.52-1.8,40.08,0,12.36.24,24.72.84,37.2a209,209,0,0,0,3.72,28.56,124.08,124.08,0,0,0,17,42.12c4.44,6.84,9.84,8.28,16.44,4.32q24.84-15.12,32.64-43.8a114.75,114.75,0,0,0,3.6-24.12l-3.6,1.92a217.39,217.39,0,0,1-20.76,42.48,12.37,12.37,0,0,1-7.44,5.52l-6.12,1.2a18.44,18.44,0,0,1-11-1.68,14.78,14.78,0,0,1-5.64-4.44,28.23,28.23,0,0,1-5.4-12.24,397.11,397.11,0,0,1-7.2-67.56c-.24-12.6-.12-25.32.36-37.92l45.12-.6a10.41,10.41,0,0,0,1.32-8.64L289.2,276l-1.32-2.28-43.08,2.16a455.43,455.43,0,0,1,20.88-113.64,33.08,33.08,0,0,1,12.12-16.68,31.81,31.81,0,0,1,7.92-4.56l5.88-2.4,9.48,5.52,2-2.16-7.32-14.28Zm-61.44-2.4a126.36,126.36,0,0,0-7.2,37.2q-2.34,56.16-5.4,112.2v.12l-19.08-1.8-14.16,1.8-3.72,1Q179.58,217,179.88,161q-.9-.18-1.08.36a739.76,739.76,0,0,0-7.68,80.16l-2.28,48c-2.28,43-5.4,85.68-9.6,128.16-1.2,12.6.48,23,4.92,31.44a390,390,0,0,0,4.32-47.88q1.8-56.16,6.12-112l.48-5.64,37,2c-2.28,38.28-5.28,76.56-8.76,114.72-.48,5.28-1.2,10.56-2,16-1.56,10.2.24,18.12,5.4,23.52a463.79,463.79,0,0,0,6.72-62.4q2.88-64.08,7.56-128.16c3.24-42.84,4.92-85.32,5.28-127.56A1.36,1.36,0,0,0,225.36,122.88ZM363,249.84,361.92,247q-23-50-42.12-102.48c-2.52,1.08-3.24,3.36-2.28,6.6,5.4,17.64,10.68,35.4,15.72,53.28q9,32.4,27.36,57.12c-7.32,35-15,70-22.8,104.88-2.4,10.56-5.28,21-8.52,31.32-4,12.24-3.36,22.68,1.56,31.2a307.32,307.32,0,0,0,10.92-39.72q12.78-62.46,26.64-124.8,13.86-62.82,24.72-125.28A788.83,788.83,0,0,0,364.8,241.44Zm148.92-98.28c-7.44,30.12-13.56,60.36-18.36,91q-9.9,63.36-19,126.84l-1.92,12.24-9.84-115.8c-3.72-42.72-8.28-85.2-13.44-127.56-2.76,8.52-3.6,17.88-2.76,28.08l7.56,89.52,10.44,127.32a243.45,243.45,0,0,1,.72,32.4c-.48,12.36,1.92,22.92,7.08,31.68A89.83,89.83,0,0,0,478,411.48,179.87,179.87,0,0,0,481,393q7.38-63.54,18.24-126.6,11-63.72,19.44-126C515.4,142.92,513.12,146.64,511.92,151.56Zm-94.2-25.68c-7.56,7.8-8.76,16.68-3.72,26.52h4.32l4.08-5.88L424,152.4l-7,14.52-3,2.52.36,9.72c13.32-10.68,17.16-24.48,11.76-41.4a40.88,40.88,0,0,0-5.88-11.64Zm136.44,13.44a88.3,88.3,0,0,0-22.68,38.4,376.49,376.49,0,0,0-10.8,49.08,885.29,885.29,0,0,0-10.56,127.68c-.24,19.56-.24,39.12-.12,58.44.12,16.92,8.28,25.92,24.6,27a58.26,58.26,0,0,0,17.16-11.52c18.36-17.4,26.28-38.28,23.52-62.52a30.2,30.2,0,0,0-2,4.92,11.22,11.22,0,0,0-.48,4l-1.92,3.48c-3.24,7-6.6,13.68-10.32,20.16-8.4,14.76-20.64,22.08-36.72,22.08l-2.4-1.68-.84-.72a471.48,471.48,0,0,1-1.92-104l2-20,.48.72a82.37,82.37,0,0,0,40.32-2.52,8,8,0,0,0,2.16-4,13.49,13.49,0,0,0-2.52-11.4l-4.8-.24A106.78,106.78,0,0,1,522,281.16l.72-6.6c1.44-13.08,2.52-26.16,3.12-39.24,1.32-30.6,10.68-57.84,28.32-81.84l3.48-.24.24.24,2.76,4.2a62,62,0,0,0,8.64,11.16,5,5,0,0,0,1.56-4.08A36.74,36.74,0,0,0,559,139.68Z" transform="translate(-56.66 -111.69)"/></svg>