<svg id="Layer_1" data-name="Layer 1" xmlns="http://www.w3.org/2000/svg" viewBox="0 0 450.49 363.48"><defs><style>.cls-1{fill-rule:evenodd;}</style></defs><path class="cls-1" d="M169.92,180.72Q157.5,283.5,149.16,388.08l-.84,7.92-2.16,16-2,15.84-.48,4.32-.36,4.2-.12,4.08a53.22,53.22,0,0,0,1.2,11.64l1.68,7.44a818.79,818.79,0,0,0,14.64-119.76c.6-11.64,1.56-23.28,2.76-34.92a102.78,102.78,0,0,0,43.2-1l-.12-8.4L164,297.6l7.44-85.44ZM290,199.8q3.78,47.52,6.48,95a201,201,0,0,1-31.92-2.28l10.8-46.92a536.38,536.38,0,0,0,14.88-126q-5,37.44-12.12,76.44-8.64,47-17.76,93.72l-.48,2.28H258.6a5.57,5.57,0,0,0-4.32,2.28l-.24.84-.12,1.68-.12,1.56a6.27,6.27,0,0,0,.48,2.52l3.72.84c-7.8,38-16.68,75.84-26.88,113.4-2.76,10.56-5.88,21-9.24,31.2q-4.68,14.22,1.8,23,14.22-48.6,24.48-99.12,6.84-33.84,14.16-67.56a146.06,146.06,0,0,0,34.8,2.28l1.08,23a1233.38,1233.38,0,0,0,13.44,128.16,3,3,0,0,0,3.84,1.56,2.36,2.36,0,0,0,1.08-2.28q-4.14-33.66-6.48-68.4-4.32-64.26-9.24-128.16c-3.24-42.84-5.76-85.56-7.32-128.28A258.23,258.23,0,0,0,290,199.8Zm-89.76-76.56a436,436,0,0,1-88-4.68c-13.32-2.16-26.76-3.72-40.2-4.68l-20.76-.36-.72,9.36A203.57,203.57,0,0,0,99,125.4a33.39,33.39,0,0,1,10.92.12l11,1.56,2.4.6Q110.94,256.56,99.12,385.32c-.84,9.24-1.8,18.36-3,27.6-.84,5.4-1.44,10.92-1.92,16.44A186.27,186.27,0,0,0,96.36,477q11.7-112,21.24-224.28l2.52-31.44c.84-10.44,1.68-20.76,2.28-31.2,1.2-20.76,1.68-41.52,1.32-62.28a226.2,226.2,0,0,0,76.68,4.56l.84-6Zm22.32,4.44q-2,56.16-7.2,112l-9,96-6.24,63.84a320.7,320.7,0,0,0-.48,64.32,2.09,2.09,0,0,0,1.2-1.32A592.81,592.81,0,0,0,209,380.76q2.16-64.26,10.2-127.8a736.23,736.23,0,0,0,5-127.92C223.2,125.4,222.72,126.24,222.6,127.68Zm133.68,4.08c-2.28,21.6-4,44.28-4.8,68.16Q349.14,264,345.36,328.2c-2.64,42.84-4.44,85.68-5.52,128.28a2.32,2.32,0,0,0,2.16,2.16,7.07,7.07,0,0,0,3.36-6.24q4-63.9,7.32-128.16c2.28-42.72,4.56-85.44,7.08-128.28A277.35,277.35,0,0,0,356.28,131.76Zm72.6,3.24c-.48-.12-.72,0-.84.36A1141,1141,0,0,0,397.68,259.8l-22.92,126a274,274,0,0,1-7.32,31.2,139.46,139.46,0,0,0-6.24,47.52c.84,0,1.44-.12,1.56-.48a151.64,151.64,0,0,0,9.36-30.48l24.12-125.64Q408.48,245.1,422.4,182.4c1.56-7.44,2.88-14.76,4-22.08,0,21,.72,42,2,63q3.78,58.32,9,116.4l-.48,9.12,1.2-.12.24,2c.48,1.92,1.68,2.4,3.48,1.56l.24-16.92a962.85,962.85,0,0,0,22.68-105.12,480.07,480.07,0,0,1,13.68-61.2c1.56,36,2.4,72.24,2.76,108.6l.48,47.88a733,733,0,0,0,7.44,96.36,74.63,74.63,0,0,1,.6,16.32c-1.08,12.72,1.8,23.28,8.64,31.8a12.57,12.57,0,0,0,2.52-10.56A774.88,774.88,0,0,1,488,332c-.36-21.36-.48-42.72-.48-64.2,0-39.24-1.8-77.76-5.52-115.8a70.41,70.41,0,0,0-.12-16.68l-.72.12-2.28,1.44a676.88,676.88,0,0,0-19.68,86q-5.22,31.68-13.32,62.88c-1.56,6.12-3,12.36-4.2,18.48-.36-12.36-1-24.84-1.92-37.44-2.88-41.4-6.72-82.32-11.52-123Z" transform="translate(-50.64 -113.52)"/></svg>