<svg id="Layer_1" data-name="Layer 1" xmlns="http://www.w3.org/2000/svg" viewBox="0 0 305.99 215.61"><defs><style>.cls-1{fill-rule:evenodd;}</style></defs><path class="cls-1" d="M277.32,245.52l-2,47.16-1.44-.24a147.86,147.86,0,0,1-29.28,3.24l-1,.36-2.4.84.36-13.56a331.94,331.94,0,0,0-4.32-64.08A766.93,766.93,0,0,0,234,301.92a613.25,613.25,0,0,1-2.76,64.8c-1.08,12,.24,22.56,4.08,31.8a105.74,105.74,0,0,0,4.32-29.16c.24-20.76.6-41.64,1.2-62.64a7.11,7.11,0,0,0,3.72-.72,180.27,180.27,0,0,0,30.12-.12L271,374.4c-.84,12.48.72,22.92,4.68,31.44q3.78-40.14,4.68-82l.36-19.2a5.44,5.44,0,0,0,1-2.64,12.91,12.91,0,0,0-.84-6.72c.36-33.48.36-66.72-.24-99.72-3.36,6.48-4.68,14.4-3.84,23.88A210.72,210.72,0,0,1,277.32,245.52ZM253.8,199,223.2,197l-39.12-.6a95.69,95.69,0,0,0-34.92,6.24v8.16l47.4-1.92q-1.26,21.24-1.8,42.48c-.48,14.28-.72,28.56-.84,42.84q-.36,47.34-2.28,94.32a38.78,38.78,0,0,0,1.08,11.76l1.08,3.6c1.2-4.8,2.16-9.6,3-14.28.36-2.52.6-4.92.72-7.32,1.8-39,3.12-78,3.72-117.24.12-9.36,0-18.72-.6-28.2s-1.44-18.72-2.76-28l56.4,1.08.36-10.56Zm104.76-4.2-19.8-1q-33.84,16-39.36,54.36c-2.28,15.72-4.2,31.44-5.52,47.4l-1.2.48-.12.84a9.63,9.63,0,0,0,.72,7.32l-1.2,23.4a158.54,158.54,0,0,0,10.56,63.84,16,16,0,0,0,5.64,7.2q30.24,22,61.68-2.76a80.23,80.23,0,0,0,16-16.56c9.36-12.84,10.56-25,3.72-36.24-4.2,2.52-5.88,6.24-5.16,11.4l.36,2.4.12.84c-2.28,3.84-4.68,7.56-7.32,11.28q-24.12,33.84-65.16,19.56A54,54,0,0,1,299.76,357c-.72-10.68-1.08-21.24-1.2-31.8-.12-7,.12-13.92.48-20.76,21.24-2.28,42.24-4.92,63-8.16l.72-.84a12.54,12.54,0,0,0-.72-13.8,302.79,302.79,0,0,0-62.28,12.12,325.92,325.92,0,0,1,8.16-49.56q9.54-38,49-37A8.16,8.16,0,0,1,363,210a75.5,75.5,0,0,1,11.16,15.36A30.06,30.06,0,0,0,372,205a22.15,22.15,0,0,0-8.88-9.6Zm24.24,14.4c13.44.36,27,.36,40.56,0a579.31,579.31,0,0,0-6.24,64.68q-2.52,65-2.88,128.28c1.44.84,2.28.48,2.4-1.08a578.56,578.56,0,0,0,7-71.16q2.16-61.2,1.08-120.72l28.2-1.32.48-.6c2.52-4.8,2.4-9.36-.48-13.8a283.86,283.86,0,0,0-70.32,6.84l-.24.72A15.69,15.69,0,0,0,382.8,209.16Z" transform="translate(-149.16 -193.35)"/></svg>