<svg id="Layer_1" data-name="Layer 1" xmlns="http://www.w3.org/2000/svg" viewBox="0 0 564.64 451.32"><defs><style>.cls-1{fill-rule:evenodd;}</style></defs><path class="cls-1" d="M126,65.64a1.09,1.09,0,0,1,.84.36,19.57,19.57,0,0,1,2.64,8.88,16.22,16.22,0,0,1-2.64,9.84l-.6-.24a6.9,6.9,0,0,1-2-5.52C107.28,80.4,90,82.32,72.36,84.84A857.13,857.13,0,0,1,72.6,205.2c-1.44,21.72-2,43.32-1.68,64.92.6,43.08.24,86.16-1.2,129-1.08,29.4-2.52,58.68-4.56,87.6A19.38,19.38,0,0,1,64.68,503c-5.88-8.52-7.92-19-6.12-31.56a524.27,524.27,0,0,0,5.64-64.8q2-64.26.72-129-1.26-65,2.52-129.24A511.15,511.15,0,0,0,67.8,94.2a35.27,35.27,0,0,1,.6-8.88L56,87.12a243.13,243.13,0,0,1-37.92,3l-.48-1.68a14.29,14.29,0,0,1,.48-9.72,505.57,505.57,0,0,0,97.68-13.8Zm59.16,141.12q-.36,64.44.6,129c.72,43.32.48,86.28-.6,129.12a127.24,127.24,0,0,1-4.32,30.6q-.54,2.16-2.52,1.08,1.08-63.54,1-128.28c-.12-30.12.12-60.12.48-90l-63,3.36-1.08,58.2Q114.6,404.1,112,468.24a91.06,91.06,0,0,1-5.88,29.64,247.29,247.29,0,0,1-1.32-64.08c2.76-26.52,4.32-53.28,4.92-80.16l2.4-129,2-128.28c.12-5.64,1.44-10.32,4.08-13.8,1.08,42.12,1.08,85,0,128.28L117,271.92c14.52-4.92,30.36-6.84,47.64-5.52l15.24.72.48-28q1.26-65-2.64-129Q176.64,92.52,182,78.48,185.64,141.66,185.16,206.76Zm86.64-69.6C268.44,108,253.56,90.36,227,84.48q-2.34,59.58-3.6,120.12l-1,34.8c27.72-14.28,44-37.08,48.72-68.64A121.26,121.26,0,0,0,271.8,137.16Zm-49.92-63.6A60.42,60.42,0,0,1,252.72,83l1.32.84q34,45.36,20,101A104.72,104.72,0,0,1,258,220.2a97.54,97.54,0,0,1-18.84,20.16Q260,296.16,279.24,352.8q20.7,60.84,42.24,121.2c4.56,12.6,5.52,25,2.88,36.84a96.64,96.64,0,0,1-12.48-28.44q-12.24-45.54-26-91.08a1131.09,1131.09,0,0,0-44-120.72c-4.08-9.48-6.24-18.6-6.36-27.36A108.29,108.29,0,0,1,222,251.4l-2.4,49c-2.52,42.84-4,85.56-4.56,128.28a366,366,0,0,1-8.4,74.4,2.55,2.55,0,0,1-2.16-2.16q3.78-63.54,6.6-127.44,2.7-60.12,6.84-120l-4.2,1.68-1.08-1.68a11,11,0,0,1-.84-4.8,13.05,13.05,0,0,1,.84-4.8l6.12-2.64a997.3,997.3,0,0,0,.48-124.2,95.78,95.78,0,0,1,3.48-33.24l-2.28-.36-.24-.84a11.37,11.37,0,0,1-.6-4.92,4.39,4.39,0,0,1,2.16-3.84ZM423.72,193a20,20,0,0,1,8.76,15.36,22.31,22.31,0,0,1-.12,4.92,5.35,5.35,0,0,1-4.2-2.4l-2.88-4.08-2.4-.48a36.62,36.62,0,0,0-5.16-.12q-21.78,25.2-26.28,53.88c13.08-10.56,28.44-16.08,46.08-16.44a9,9,0,0,1,1,9.6L438,254a206.84,206.84,0,0,0-47.64,17,113.64,113.64,0,0,0,5.16,37.68,26.48,26.48,0,0,0,11.64,14.76,75,75,0,0,1,7.32,5.28l1.68.36,5.88.12a114.21,114.21,0,0,0,15-13.44.73.73,0,0,1,.72-.36c1.8,9.72-2,17.76-11.4,24.36a17.36,17.36,0,0,0-2.64,2.52c-15.72-1.08-26.76-9.36-33-24.84A106.34,106.34,0,0,1,384.48,261c4.2-27.36,15.72-50.16,34.32-68.28ZM362.4,194a13,13,0,0,1,1.8,7.32c-15.36-6.6-27.72-3-37.2,10.8a102.91,102.91,0,0,0-16.92,43.92,88.13,88.13,0,0,1,31.08-9.24,13.74,13.74,0,0,0,5.52.6l.48.48a7.38,7.38,0,0,1,.84,4,6.94,6.94,0,0,1-.84,2.52c-12.36,5.28-25.08,10.08-38,14.28l-.12,3.6V290c-.12,17.88,6,33,18.48,45.12,7.08,7.08,15.6,8.88,25.56,5.52A234.5,234.5,0,0,0,383.4,328c.36,14.28-8.52,23.16-26.4,26.52q-34.74,6.48-45.36-27.24a179.35,179.35,0,0,1-7.92-53.16l.12-3.72-.84.24c-2.88-1.32-4-3.6-3.24-7.08L300,262l4.56-2.88a153.92,153.92,0,0,1,14.4-51.6c5.16-10.68,13.2-18.12,24.12-22.08l4.32.12,4.92.36A18,18,0,0,1,362.4,194ZM463.68,93q1.62,59.94,2.52,121.2c13.44-5.16,22.92-15.24,28.44-30.36a95.85,95.85,0,0,0,5.64-25.2,129,129,0,0,0-1.92-36.6c-2.64-13.32-9.48-23.4-20.64-30a9.31,9.31,0,0,0-9.36-.24A9.71,9.71,0,0,1,463.68,93Zm-.48-11.88c3.24.36,5.76,0,7.56-1.32q25.38,5.94,31.32,33.48a160.15,160.15,0,0,1,3.6,44.16,113.22,113.22,0,0,1-13.32,47.16,53,53,0,0,1-22.44,22.32,14.55,14.55,0,0,1-3.6,1.32q.54,57.6-1.2,115.2c-1.2,42.84-2.88,85.68-5,128.28a171.52,171.52,0,0,1-7.92,44.52c-5-8.64-6-19.32-2.88-31.92a114.17,114.17,0,0,0,2.52-15.6c3.48-42.84,5.88-85.8,7.2-129.12q1.8-56,.6-112L458,227a4.45,4.45,0,0,1-2-2.4,8,8,0,0,1,.24-5.76l.24-.72.84-.84,1.08-.84,1-.24-.12-5.76A1000.86,1000.86,0,0,1,462.72,93l-.84-.24a7.42,7.42,0,0,1-1.08-3.24,23.71,23.71,0,0,1,.72-7.2l.36-.84A1.5,1.5,0,0,1,463.2,81.12Zm93.6-3.36,2.16.48a47.52,47.52,0,0,1,12.72,20.4,7.92,7.92,0,0,1-.48,6.36,99.32,99.32,0,0,0-16.32-13.68,6.12,6.12,0,0,0-4-1Q520.5,121.14,527,166.44a269.11,269.11,0,0,0,23.28,77.16,320.68,320.68,0,0,1,30.84,121.08,328.48,328.48,0,0,1-13.08,112.08c-4.68,15.6-13.68,27.48-27.24,35.52-2,1.2-4.2,1.08-6.6-.36A67.47,67.47,0,0,1,515,494.16q-21.78-29.7-6.12-58.32l.84.12a2.37,2.37,0,0,1,.72,1.32l.12.72c-3.24,17.4,1.32,33.36,13.68,47.64,2.88,3.24,5.88,6.36,9,9.24l9.48.84Q577,452,575.64,394.2a375.86,375.86,0,0,0-6.24-60.6A477.89,477.89,0,0,0,536,227.52Q507.42,164,532.8,100a109.63,109.63,0,0,1,6.72-14.16,40.92,40.92,0,0,1,8-7l3.36-2Z" transform="translate(-17.01 -64.92)"/></svg>