<svg id="Layer_1" data-name="Layer 1" xmlns="http://www.w3.org/2000/svg" viewBox="0 0 450.22 329.31"><defs><style>.cls-1{fill-rule:evenodd;}</style></defs><path class="cls-1" d="M290,135.36a417.14,417.14,0,0,0-6.12,58.32q-2.7,64.26-7.2,128.28c-.84,11.88.72,22.68,4.68,32.28a2.06,2.06,0,0,0,1-1.44q4.14-44.82,7.08-90a1076.48,1076.48,0,0,0,1.08-127.44Zm-110.88,5.16a881.57,881.57,0,0,0-11.28,102.72q-3.24,63.9-6.24,128.16c-.6,12,1.08,22.8,5,32.28a1.69,1.69,0,0,0,1-1.44c1.92-23.16,3.24-46.32,4-69.72.6-24.12,1.8-48.36,3.36-72.48a464.31,464.31,0,0,0,70.8-5.64c-1.32,34.2-2.88,68.28-4.92,102.48a242.66,242.66,0,0,1-4,32.16c-1.8,10.2.36,18.12,6.6,23.52a368.8,368.8,0,0,0,6-53.52l4.92-128.16q2.52-65,.48-128.28c-3.12,4-4.8,9.12-4.92,15.6l-3.24,109.56-.36,10.2-22.44,1.56A230.3,230.3,0,0,0,175.8,247c1-14.16,2-28.32,3.36-42.48a428,428,0,0,0,1-64.32C179.52,140,179.28,140.16,179.16,140.52Zm41-40.68-1.56-.24a188.9,188.9,0,0,0-44.4-2.4A719.91,719.91,0,0,0,42.72,109.32a8.66,8.66,0,0,0-2.28,7.32,10.68,10.68,0,0,0,1.44,4.68l.84,1,11.4-.48a648.71,648.71,0,0,1,77.28-7.92c-1.8,28-4.32,55.92-7.32,83.88Q117.42,261.48,115.8,326c-.48,21.48-1.92,42.72-4.44,63.84-1.44,12,0,22.8,4.44,32.52a2.67,2.67,0,0,0,1.08-1.56A826.05,826.05,0,0,0,123,329.28a817.1,817.1,0,0,1,6.6-95.64A588.82,588.82,0,0,0,133,113.88a624.07,624.07,0,0,1,87.24,2.76,11.28,11.28,0,0,0,3.24-7.8,14.3,14.3,0,0,0-2.28-8Zm178.08,40c3.6-14.4-2.52-22.08-18.36-23.16-34.92,14.28-56.16,40-63.48,76.92a549.82,549.82,0,0,0-10.56,106.32A173.25,173.25,0,0,0,317,362.52q11,29.34,37.56,14.16c20.76-12,31.8-28.8,32.88-50.28a211.42,211.42,0,0,0-24.72,25,28.71,28.71,0,0,1-15.72,10c-16.68,4.2-26.28-2.52-28.68-20.16a469.07,469.07,0,0,1-3.72-87,338.3,338.3,0,0,0,58.2-4.08l.48-1c2.52-5.64,1.92-10.68-1.56-15.36-19.08,1.8-37.8,4.2-56.4,7.2.72-8.76,1.68-17.64,2.76-26.52,5.16-38.52,25.32-65.76,60.72-81.6l7.2.24a21.87,21.87,0,0,1,6,1.92l.6.84,3.24,3.72,1.8,1.2Zm87.36-40.2a415.87,415.87,0,0,1-62.52-2.76l-.48.36a6.24,6.24,0,0,0-2.16,5.4v.72l.12,2.52v.72l.12,1.08a25.1,25.1,0,0,0-1,6.12q-4.5,64.08-8,128.4l-7.56,128.28a220.88,220.88,0,0,1-4.2,32c-2,10.44,0,18.24,5.88,23.64a13.16,13.16,0,0,0,2.88-7.32q4.86-63.9,8.16-128.16L419,251.4c19.56-3.48,39.24-6.12,59-7.8l.72-1c2.64-5.16,2.28-10.08-1-14.52a275.74,275.74,0,0,0-58,9.48c1.56-25.08,3.36-50,5.4-75.12a458.4,458.4,0,0,0,1.2-51.12,376.34,376.34,0,0,0,62.16,4.44l.48-.84a15.39,15.39,0,0,0,1.44-7.32v-.72l-.12-.84-.48-2.4a6.19,6.19,0,0,0-2.4-4.08Z" transform="translate(-40.36 -96.81)"/></svg>