<svg id="Layer_1" data-name="Layer 1" xmlns="http://www.w3.org/2000/svg" viewBox="0 0 548.12 481.79"><defs><style>.cls-1{fill-rule:evenodd;}</style></defs><path class="cls-1" d="M99,73l-.24-3.72a241.6,241.6,0,0,0-29,52.2A168.75,168.75,0,0,1,44.4,164.16l-5,6.48,2.28-104C34.8,77.76,32.16,91,33.72,106.08a209.13,209.13,0,0,1,.12,39.72q-5.58,60.66-10.32,121.32c-.6,8.16,1.08,14.16,4.92,18.12,7.08-4.68,9.48-13.44,7.44-26.28q-7.92-49.32,18-90c7,25.56,13.8,51.12,20.4,76.92A134,134,0,0,0,88.68,281l1.92,3.12a573.13,573.13,0,0,0-20.52-92.28A323.8,323.8,0,0,0,58.32,160.8L91.68,98.64A45.11,45.11,0,0,0,99,73Zm117.24,19.8-1.08,76.32c-.72,43.08-.6,86,.48,129.12,1.08,42.84,1.2,85.92.36,129a563.6,563.6,0,0,1-4.08,57.12c-2.28-14.52-4.08-28.92-5.52-43.44a1159.26,1159.26,0,0,0-19.92-126.72Q173.34,251.7,157.8,189.84q-15.3-61.92-34.92-121.92l-.36-2.76a1.44,1.44,0,0,0-1.56,1.2,51.61,51.61,0,0,0-1.68,15.36q3.6,64.62,1,129.12t-6.6,128.88q-3.78,64.26-4.32,129.12c-.12,8.16-.48,16.32-1.08,24.36-1,12.72,1.08,23.16,6.12,31.44a11.21,11.21,0,0,0,2.88-8.16q-1.8-64.62,2.64-128.88,4.14-64.08,4.68-129.12c.12-21.72,1-43.32,2.4-64.92a634.75,634.75,0,0,0-1.32-101.4c3.48,19.56,7.92,39.12,13.2,58.56q16.92,63,31.68,126.24A1069.2,1069.2,0,0,1,191.64,401.4c4.68,41.76,10.8,82.8,18.6,123.24a21.36,21.36,0,0,0,2.76-3.72l1.32,3.48a4.1,4.1,0,0,0,2.64-3.84c3.84-42.36,6-85.2,6.48-128.28s0-86.16-1.32-129c-.72-21.72-1-43.32-.84-64.92.24-43.56.6-86.4,1.08-128.28Q216.42,79.26,216.24,92.76Zm81.36-8.28,5,1.32,3.84,1.32a47.31,47.31,0,0,1,15.36,24.48c6.24,23.64,11.52,47.52,16,71.4a661.71,661.71,0,0,1,10.68,129,517.15,517.15,0,0,1-18.24,128.16c-3,11.16-6.12,22.2-9.6,33.12q-9.72,31.32-40.92,38.4c-14.16-12.36-22.2-28.08-24.24-47.4q-6.48-63.54-7.32-128.52-.9-64.62,2.88-129.12l1.68-32.52q2-46.62,28.68-83.52a5.51,5.51,0,0,0,1.92-.84A30.87,30.87,0,0,1,297.6,84.48ZM294.36,71.4c-11.76,2.88-20.4,9.84-25.92,21a192.36,192.36,0,0,0-19.68,67.08,1199.51,1199.51,0,0,0-6.36,128.4q.18,64.8,2,129.12a291.33,291.33,0,0,0,17.76,93.12,22.6,22.6,0,0,0,9.12,11.64q21.42,13.86,36.36-9.72a279.4,279.4,0,0,0,40.68-111.72,762.44,762.44,0,0,0,6.72-128.4,660,660,0,0,0-16.2-126.6,204.42,204.42,0,0,1-4-23.76q-3.24-30.24-25.44-48l-.48.36-1.92.72H306l-1.32-.72A25.15,25.15,0,0,0,294.36,71.4ZM428,67.08c-.72-.12-1.08,0-1.2.6a403.3,403.3,0,0,0-.24,90.84c4.68,42.48,7.68,85.2,9.24,128.28a772.46,772.46,0,0,1-6.24,128.28c-1.44,11-3.12,22-5,32.88a170.19,170.19,0,0,1-32.76,75.12,8.77,8.77,0,0,1-8.64-.6l-4.92-3.24a262.32,262.32,0,0,1-6.48-71.4c1.8-42.84,3-85.68,3.6-128.28.6-42.84-.24-85.68-2.28-128.28L366.84,69.6a242.92,242.92,0,0,0-4,59.28c2.28,42.12,4.32,84.36,6.36,126.6A1157.92,1157.92,0,0,1,367.8,384.6a1144.51,1144.51,0,0,0-1.44,128.28c.84,17.88,9.48,27.24,25.92,28.32a51.35,51.35,0,0,0,16.2-20.76,392.75,392.75,0,0,0,31.8-125.88,945.73,945.73,0,0,0,1.56-129.12c-1.32-21.36-3-42.6-5.28-63.84a830,830,0,0,1-4.2-122,41.63,41.63,0,0,1,8.4-7.32,20.37,20.37,0,0,0-9.24,5.16l-.24-.6A13,13,0,0,0,428,67.08Zm15.12,9A16,16,0,0,0,444.6,85a123.6,123.6,0,0,1,22-2c-.84,15-1.2,30.48-1.08,46.2Q466,193.74,462.84,258c-.48,10,1.68,17.52,6.36,22.92A728.53,728.53,0,0,0,473,199.2c-.36-38.88-1.32-77.64-2.64-116.16l16.08,1.44a5.81,5.81,0,0,0,2-3.24Q490.5,74,486,69l-2.76-.12-2.76-.36A97.34,97.34,0,0,0,444.6,72,8,8,0,0,0,443.16,76.08ZM527,64.44a22.44,22.44,0,0,0-10,9.24,112.39,112.39,0,0,0-13.8,43.56A141.25,141.25,0,0,0,517.56,197L523,225.6q11.7,63,20.52,126.36a631.64,631.64,0,0,1,4.8,124.2q-2.88,49-52.56,52.56-17.1,1.26-23.4-15.84A71.56,71.56,0,0,1,468,487.32c.24-11.88-2.4-21.6-8-28.92l-1.2,1.68-.36.72-.48,1.68-.12.72-1.56.6.12,3.12.36.12A195.12,195.12,0,0,0,466,523.2c4.56,14,13.8,21.6,27.6,22.56,17.64,1.2,32-4.8,43.08-17.88Q559,501.42,558.36,465.6A1056.66,1056.66,0,0,0,549,339q-8.28-62.28-20.88-124a562.7,562.7,0,0,0-15.36-58.32,96.33,96.33,0,0,1-4.32-37c1.2-15.48,6.36-28.68,15.36-39.72q13-4.32,24.12,2.52,15.3,9.18,23,22.68a24.43,24.43,0,0,0-2.16-16.32,50.67,50.67,0,0,0-15.24-18.6l-1.92-.72A37.15,37.15,0,0,0,527,64.44Z" transform="translate(-23.4 -64.12)"/></svg>