<svg id="Layer_1" data-name="Layer 1" xmlns="http://www.w3.org/2000/svg" viewBox="0 0 315.48 210"><defs><style>.cls-1{fill-rule:evenodd;}</style></defs><path class="cls-1" d="M237.84,198.72c-3,14.52-5.64,29-8,43.68q-9.9,62.82-19.32,125.52-8.82-37.62-16.56-75.6c-4.32-21.24-7.8-42.48-10.56-64a100.34,100.34,0,0,0-8.52-30.6,863.46,863.46,0,0,0-12.6,94.2c-1.68,21.12-4.32,42.12-8,63a161.54,161.54,0,0,0-1.56,47.16,120.29,120.29,0,0,0,9.84-37.8l12.84-125.64,7.32,38.4q12.78,63.9,28.44,125.28a123.92,123.92,0,0,0,9.12-34.56q7.38-63.18,20.76-125.64a121.1,121.1,0,0,0,1-47.28C239.64,195,238.32,196.32,237.84,198.72ZM364.92,228.6c1.56-12.12-.12-22.8-5-31.92a244.92,244.92,0,0,0-4.92,52.8,404.57,404.57,0,0,1-9.84,95.64q-8.28,36.18-46.92,32.52a6.9,6.9,0,0,1-3.72-1.56c-10.44-9-15.6-21.12-15.6-36.48.12-16.56.48-33,1.08-49.44a877.65,877.65,0,0,0-1.32-95.88l-.48.12c-2.52,16.68-4.44,33.6-5.76,51A572.4,572.4,0,0,0,277.2,373c1.8,12.48,8.88,19.44,21,20.88q40,4.86,50.4-32.64a405.72,405.72,0,0,0,14.64-108.48A181.07,181.07,0,0,1,364.92,228.6Zm96.72-31.92-9.36,61a890.06,890.06,0,0,1-27.72,124.68c-1.08-9.24-2.52-18.6-4.32-27.84L394.68,228.36q-3.78-17.82-12.6-30.24a297,297,0,0,0,10.08,60.12q7.92,29.7,13.92,59.52a552.39,552.39,0,0,1,9.12,63.84c.72,9.72,4,17.28,9.6,22.68a416.13,416.13,0,0,0,28-98q4.86-31.86,11.52-63.12c3.48-16.44,3.72-32.28.6-47.52A3.85,3.85,0,0,0,461.64,196.68Z" transform="translate(-151.58 -194.28)"/></svg>