<svg id="Layer_1" data-name="Layer 1" xmlns="http://www.w3.org/2000/svg" viewBox="0 0 504.48 428.52"><defs><style>.cls-1{fill-rule:evenodd;}</style></defs><path class="cls-1" d="M211,59.76V60l-2,1.32q-9.9,121.86-15.48,245-2.34,54.72-8.52,109.32l-1.92,15Q134,238.44,89.4,50.88l-.36.48-1.44,1.2q-11,166.86-23.16,333.36a373.08,373.08,0,0,1-6.72,47.64l-.48,2.4-.36,2.28-.24,2.28-.24,2.16V447l.36,4,.6,4a25.76,25.76,0,0,0,1.68,5.4l2.4,5Q81.42,323.7,88,180q1.62-38.34,2.16-76.8V90.48L90,77.76q38.88,166.5,76.68,333,5.4,23.58,12.24,46.8l1.44,3.84,1.56,3.48,1.8,3.36,1.8,3.12q16-127.44,21.72-259.8,2.34-52,2.88-104l.36-8.16.84-7.92,1.08-8A46.43,46.43,0,0,0,211,59.76ZM373.32,171.12q-4-54-36.24-95.64h-1.56l-1.08.36-.84.72-2.28-.24a2.12,2.12,0,0,1-1-.6l-.84-.72A41,41,0,0,0,297.6,62.52,19.2,19.2,0,0,1,289,65.64,25.11,25.11,0,0,0,275.4,71.4q-35.1,30.42-45.36,77a612.94,612.94,0,0,0-14.16,126.72q-.54,63.9,2.52,126.72,1.8,37.44,30.24,58.92l1.44,1.32,4.8,4.08L256,467l2.4.24.6.6.6.72,1.2.84a40.59,40.59,0,0,0,17.16-2.4,122.9,122.9,0,0,0,47.52-31.2,20.66,20.66,0,0,1,2.88-4.08,88.09,88.09,0,0,0,15.48-24.12,360.25,360.25,0,0,0,28-108A753.7,753.7,0,0,0,373.32,171.12Zm58.8,143.28a407.62,407.62,0,0,1,12.24,41.28,125.54,125.54,0,0,1,2.76,44.88,98.74,98.74,0,0,1-15.48,43c-9.36,14.4-22.56,20.28-39.6,17.76A65.6,65.6,0,0,1,378.6,423a280.17,280.17,0,0,1,14.88-99.84c3.24-9.48,10.32-14.4,21-14.64A26,26,0,0,1,432.12,314.4Zm-36.12-13a35.62,35.62,0,0,0-9.72,17.28q-7.56,32.94-14.4,66.6-10.44,51.3,20.4,91.2a24.9,24.9,0,0,0,17.16-1.44q37.08-16.74,41.64-57.6a342.9,342.9,0,0,0,1.2-61.8c-1.32-19.32-7.08-36.6-17.16-51.84l-1.32,1-.72.24-.48-.12-2-1.68-.72-.6-1-1-2.4-.72a48.54,48.54,0,0,0-23.88-3.84A18.45,18.45,0,0,0,396,301.44Zm-28.08-97.68A600.84,600.84,0,0,1,365.4,292c-1,15.84-2.64,31.56-5.16,47.16a173.63,173.63,0,0,1-11.64,40.44,157.65,157.65,0,0,1-21.12,35.88,149.88,149.88,0,0,1-33.36,31.2c-13.92,9.48-27.84,10.08-41.64,1.68-13.2-8-21.48-19.92-25-35.88a198.31,198.31,0,0,1-4.68-44.52l-.12-16.08-.48-32.16v-32.4q.18-16.2.72-32.4c.36-12,1-24,1.68-35.88.84-14.4,2.4-28.8,4.44-43.08A162.22,162.22,0,0,1,240.84,134a158.79,158.79,0,0,1,21.6-36.6,168.33,168.33,0,0,1,14.64-16.2c5.28-1.32,10.56-2.88,16-4.68,10.8-3.84,20.76-2.16,29.88,5.16a40.45,40.45,0,0,0,9.36,5.64L343,107.16l.84-4.08a80.34,80.34,0,0,1,7,14.4A285,285,0,0,1,367.92,203.76ZM446.76,76.08c.6,42.6.24,85.32-.84,128.28-.12,5.4-.12,10.8.12,16.08.84,19.2-4.56,35.16-16.32,48a76.93,76.93,0,0,1-22.2,1.08c-4.92-3-7.8-7.08-8.64-12.48a397.34,397.34,0,0,1-3.48-106.2c1.56-15.72,2.88-31.68,4-47.64.72-12-.6-22.44-4.08-31.44q-3.06,61.38-6.48,122.52c-.48,8-1.32,16.08-2.4,24.12q-5.58,38.88,19.44,64.32a49.25,49.25,0,0,0,24.36,0,15.46,15.46,0,0,1,5.4-3.24,19.42,19.42,0,0,0,6.48-10.8A498.88,498.88,0,0,0,453,141.48a147.51,147.51,0,0,1,1-24.12,124,124,0,0,0-3.24-48.12Q446.58,70.86,446.76,76.08Zm111.36,4.56q-3.6,64.08-6.12,128.28l-5.52,128.16c-1,21.48-2.76,42.72-5.28,64a297.27,297.27,0,0,0-2,37c-7.56-38.16-13.8-76.56-18.48-115.2q-7.74-63.36-16.92-126.48T481.56,71.16l-.36-.72-1-1.32V69l-.36-.72-1.2-1.68a8.39,8.39,0,0,0-3.12,6.72c-1.08,18.84-1.32,37.8-1,56.88q1.44,64.26-1,128.28-2.52,64.62-7.56,128.88-2.34,32.4-7.56,64.8c-1.56,9.72,0,17.64,4.44,23.52a94.36,94.36,0,0,0,4.68-21.84q6.3-63.54,9.12-127.44,3.06-64.44,3.36-129.12l.24-120.84q4.5,31.32,9.72,64c6.6,42.12,12.24,84.24,17,126.6s10.08,84.6,16,126.72c2.88,21.24,5.64,42.36,8.16,63.6,1.08,9.48,4.32,16.8,9.6,22.08a59.27,59.27,0,0,0,2-15.36,5.17,5.17,0,0,0,1.44-3.48Q551,396.84,553,332.28,555.12,268,557.76,204q2.7-65,3.12-128.28C559.2,76.56,558.24,78.24,558.12,80.64Z" transform="translate(-56.4 -50.88)"/></svg>