<svg id="Layer_1" data-name="Layer 1" xmlns="http://www.w3.org/2000/svg" viewBox="0 0 276.02 214.8"><defs><style>.cls-1{fill-rule:evenodd;}</style></defs><path class="cls-1" d="M287.52,398.16a574.56,574.56,0,0,0,4.92-73.8q.18-65.16-1.08-128.16a540.49,540.49,0,0,0-6.84,93.6q.36,32.4-1.44,64.8a301.84,301.84,0,0,0,1,48A4.78,4.78,0,0,0,287.52,398.16Zm34.32-178.44a41.53,41.53,0,0,0-4.44-22.44l-1,40.56A44.62,44.62,0,0,0,321.84,219.72Zm-160.2-27.84a1014.72,1014.72,0,0,0-9.36,135.24c0,17.64-.6,35.16-1.92,52.68-.12,2.76-.12,5.64,0,8.52l1.08,7.92a47.42,47.42,0,0,0,1.92,7.08l1.2,3.36q9.18-98.28,10-197,23.94,94.86,54.72,187.56l1.2,3.24,1.08-1.32,1.44,2.4a1178.61,1178.61,0,0,0,12.12-206.64Q225.9,281.46,220,368.4q-23.4-87.3-54.6-171.6Zm198.24,19c17-4.92,30.24.6,39.48,16.68,8.16,13.92,9.24,28.44,3.24,43.68s-17,25-32.76,29.4a60.15,60.15,0,0,1-10.32,1.92l-2.88-1.68-.36-103.32a1405.39,1405.39,0,0,0-8.64,208.08,466.22,466.22,0,0,0,8-90.6c13,2.76,24.12-.6,33.36-10.2,16.92,6.24,27.12,18.36,30.84,36.48,2.88,14-1.44,25.32-12.84,34Q383.1,393.6,353,385.8a18.58,18.58,0,0,0-.48,12.48l1.08,2.64c13.68,6.12,27.6,6.12,41.64.24A45.41,45.41,0,0,0,417,382.08c9.24-16,11.64-32.52,7-49.92a66.25,66.25,0,0,0-21.12-33.36l-1.08-.84-2-1.32-2.28-1.08q19.08-24.3,13-55c-3.6-18.12-13.56-31.32-29.88-39.48A41.12,41.12,0,0,0,365.64,197l-6.12,2.88-.6,9.24Z" transform="translate(-150.27 -191.88)"/></svg>