<svg id="Layer_1" data-name="Layer 1" xmlns="http://www.w3.org/2000/svg" viewBox="0 0 302.47 216.6"><defs><style>.cls-1{fill-rule:evenodd;}</style></defs><path class="cls-1" d="M164,191.28q-5.58,5.58-5.76,15.48c-.36,42.72-2.28,85.44-5.52,128.16a381.46,381.46,0,0,0,.36,64.2,1.71,1.71,0,0,0,1.2-1,748.42,748.42,0,0,0,7.32-79.44c1.32-35.64,2.16-70.92,2.28-105.84,6.12,22.68,12.72,45.24,19.8,67.92q19.26,61.38,37.08,121a4.28,4.28,0,0,0,2.28-2.88l1,2.64a1.69,1.69,0,0,0,1-1.44l5.64-76.92a897.51,897.51,0,0,0,.12-128.28,290.37,290.37,0,0,0-4.8,46.2q-1.62,64.26-6,128.16a79.48,79.48,0,0,0-.12,9.24c-4.2-21-9.48-41.76-15.72-62.52Q185.58,254.22,164,194.28Zm141.12,4.44A1235.79,1235.79,0,0,0,297.6,323c-.12,16-.72,31.92-1.56,47.88q-1.08,18.18,5.4,31.68A17.9,17.9,0,0,0,304.92,388l1.92-3.24q-.36-4-2.52,0c-.84-20.28-.72-40.56.12-60.84q2.7-64.8,1.32-128.28Zm67.08-1.92a190.64,190.64,0,0,0-7,49.44c-.6,43.08-2.4,86.16-5.64,129-.84,12.12.6,22.68,4.56,31.68a34.85,34.85,0,0,0,5-17.88c.12-17,.36-34.2.84-51.36q15.66-25.92,33.36-51.6a176,176,0,0,0,9,40.56c6.24,17.88,12,36.12,17.16,54.48,3.24,11.52,8,20.88,14.64,28,3-4.2,3.48-9,1.56-14.16q-21.06-56.16-39.48-113l11.16-16c9.12-12.72,18-25.56,26.64-38.4,7.8-11.64,11-23.28,9.6-35h-.12a1156.49,1156.49,0,0,1-72,104.64,62.25,62.25,0,0,0-11,21.24c.6-19.08,1.44-38.28,2.52-57.48a542.57,542.57,0,0,0-.24-64.08Z" transform="translate(-151.58 -189.48)"/></svg>