<svg id="Layer_1" data-name="Layer 1" xmlns="http://www.w3.org/2000/svg" viewBox="0 0 280.86 211.56"><defs><style>.cls-1{fill-rule:evenodd;}</style></defs><path class="cls-1" d="M304,369.72c-1.32,11.88-.24,22.68,3.36,32.4a36.36,36.36,0,0,0,5.52-18.36c.72-19.08,1-38,.84-56.88A1130.73,1130.73,0,0,0,305.4,198.6c-1.8,40-1.8,81.12.24,123.36A275.25,275.25,0,0,1,304,369.72Zm-68.28-174c-4,36.36-6.12,73.2-6.48,110.28-.24,21.72-1.08,43.32-2.4,64.92l-.12,4.32a542.86,542.86,0,0,0-19.2-66.36q-22-60.12-47-118.08c-1,.12-1.44.48-1.44,1.32l-.72-.84q-.72-.18-.72.36a744,744,0,0,0-5.28,112.44c.6,21.72.24,43.32-1,64.92q-.9,18.18,4,31.68A404.13,404.13,0,0,0,159.6,322q-2.52-62.82.48-125.16a872.14,872.14,0,0,0,28.2,87.48q22.32,58.86,40.08,118.08a5.76,5.76,0,0,0,2.52-3.36l1.56,3.36a3.29,3.29,0,0,0,1.32-2.52c1-25.32,1.8-50.64,2.52-76.2q1.8-64.8.12-128.28Q235.68,195.54,235.68,195.72Zm188.16,67.56c-2.76,15.72-12.24,26.16-28.68,31.32a63,63,0,0,1-19.32,3l-2.28-2L369.12,207c15.72.36,29.4,6,41.28,16.68C422,234.36,426.6,247.56,423.84,263.28Zm-56-66.6c-2,35.52-3,71.52-2.64,108a484.34,484.34,0,0,1-4,64.8c-1.56,11.88-.48,22.56,3.48,32.28a466.39,466.39,0,0,0,7.8-76.8l.24-11.76.6.36c18.36.84,34.08-5.76,47-19.56a39.84,39.84,0,0,0,11.16-24.36q5.4-54.9-45.72-75.6c-6.84-1.56-12.6-.12-17.28,4.56l-.12.48-.12-2.4Z" transform="translate(-151.18 -190.8)"/></svg>