<svg id="Layer_1" data-name="Layer 1" xmlns="http://www.w3.org/2000/svg" xmlns:xlink="http://www.w3.org/1999/xlink" viewBox="0 0 577.32 595.44"><defs><style>.cls-1{fill:none;}.cls-2{clip-path:url(#clip-path);}.cls-3{fill-rule:evenodd;}</style><clipPath id="clip-path" transform="translate(-6.48 1.92)"><rect class="cls-1" x="6.48" width="577.44" height="593.64"/></clipPath></defs><g class="cls-2"><path class="cls-3" d="M10.08,403.08l1,4v42.24L10,452.52l.36.84V481.8c3-8.76,8.4-21.84,16.32-39.24,9.24-20,16.2-34.44,20.88-43.08L49.68,401a5.4,5.4,0,0,1,.48,2.76c0,1.56-4.92,13.56-14.88,36.24l-6.24,14L42.84,528c7.08,37.56,10.56,57.48,10.56,59.76l-.24,3L52.08,593c-4.68-10.8-10.32-35.76-17.16-74.88-4.8-27.84-7.68-47-8.76-57.6l-15.84,34.2,1.2,39,.6,25.2L12,576.36c-.24,7.2-1,13-2.28,17.16A12.28,12.28,0,0,1,9.48,584V532.92L7.8,498.48l-.12-3-.12-2.28.12-.6L7.08,476c-.24-12.48-.36-24.36-.24-35.52.12-21.72.72-35.64,2-41.52A21.72,21.72,0,0,1,10.08,403.08ZM42.84,102.24c4.56,1.56,6.84,4.2,6.84,8l-.24,2.52-.6,1.08a13.65,13.65,0,0,0-3.6-4.2c-2.76-2.28-7-3.36-12.6-3.36-8.76,0-15.48,7.68-19.92,23a107.69,107.69,0,0,0-4.08,24.36q0,14.94,2.52,22c3.6,10.2,11,15.24,22.2,15.24,5.28,0,8.88-2.64,10.92-7.92a27.36,27.36,0,0,0,1.2-4.32l-.24-14.16-8.64.84q-3.6.54-4.32,1.08a2.44,2.44,0,0,1-1.68-.72,3.76,3.76,0,0,1-.48-2.4c0-1.8.72-2.88,2-3.36l14.52-1.68.84,13.92.24-.12.84,2.28.24,3a18.16,18.16,0,0,1-.84,5.52l.6,11.4a43.3,43.3,0,0,1-.6,8.52l-1.08.24-1-14.52-.72,1.32c-2.88,5.64-6.48,8.4-10.8,8.4-13.32,0-21.84-6.48-25.8-19.32A54.81,54.81,0,0,1,6.48,164V153.72c0-13.92,2.28-25.44,6.72-34.44C16.92,112,22,106.8,28.08,103.8,33.24,101.28,38.16,100.68,42.84,102.24ZM165.12,0l.6,3.24a581.22,581.22,0,0,0-4.44,60.84c-.12,11.64,0,29.88.36,54.84,0,20.4-.24,37.2-.6,50.28-.48,17.88-1.44,34.56-2.88,49.8v45.48q-1.08,22.68-1.08,69.48l.6,41.4L159,441.48l2.4,50.76c1.44,26.64,2.16,45.48,2.16,56.4,0,10.32-.12,16-.24,16.92L159,591.36q-9-56.7-17.64-142.32L126.72,306.72q-6.84-60.66-21.24-142.44L79.44,22h-.6q-3.78,65.34-8.4,112V216.6c-2.52,29.88-3.84,48-4.2,54.6-.24,5.52-.36,20.16-.36,44q0,39.78,1.56,70.56c1.08,20.52,1.68,35,1.68,43.44,0,16.2-.48,28.44-1.32,36.6v80.4l-1,22.32-1,22.32A3.41,3.41,0,0,1,64.2,592q-.54-8.46-.36-22.32L64,547.32V461.16l.6-1.08a5,5,0,0,0,.48-2.52L64.92,456l-.12.36V407.64c-1.56-19.44-2.64-35.64-3-48.6-.12-6.36-.24-21-.24-43.92,0-25.44.12-41.28.24-47.4.36-11.88,1.68-30.36,3.84-55.68V129.36c2-15.72,4.32-37.68,6.6-65.76C74.88,32.16,76.8,10.92,78-.24q29.16,122,49.56,281,7.56,59.22,16.08,140.64l14.52,140.4a125.34,125.34,0,0,0,.48-13.56L155.4,454.8q-3.24-94.14-3.24-121.32c0-33,.36-57.72,1.08-73.92V214.2c3.12-21,4.44-45.24,4-73q-1.8-46.8-1.8-71c0-9.24.6-20,1.68-32.52C158.88,18,161.64,5.4,165.12,0Zm98.4,18.12a134.43,134.43,0,0,0-23.4-9.48c-6-1.8-13.2,1.44-21.48,9.6a67.09,67.09,0,0,0-8.4,10C208,31.44,206.52,34,206,35.76c-8.16,15.72-14.28,34.44-18.36,55.92a304.84,304.84,0,0,0-5.16,56.88l2.4,81.48c0,14.28-.12,25.8-.48,34.56-.48,12.36-1.44,23.64-2.76,34V398.4c-.72,8.16-1.08,20.52-1.08,37v37.2a348.66,348.66,0,0,0,3.24,46.08q8.46,55.62,37.8,55.68,40.32,0,58.32-78.24c6-26.52,9.6-57.6,10.8-93V316.2L294,278V202.56c.72-3.84,1.08-9.84,1.08-17.88,0-4.8-.48-14.16-1.32-28.08-.84-13.56-1.56-21.72-1.92-24.6V85a83.93,83.93,0,0,1-1.32-14.28l-.24-14.4C289.44,44.88,286,36,279.6,29.52,275.88,25.68,270.48,21.84,263.52,18.12Zm19.2,5.64L291,30.84c1.44,5.4,2.52,13.2,3.36,23.52.84,11.76,1.56,19.56,2.28,23.52V126.6c1.8,7.92,2.76,17.76,3.12,29.64l.12,29.16q0,15.66-1.08,23V283.2l-1.56,18.6-1.68,18.72v85.2q-4.5,65.16-19.44,113.4Q255.42,587,221.76,587c-16.92,0-29-10.92-36.24-32.76a124.34,124.34,0,0,1-6-40.08l-1.68-34.32c-1.08-22.44-1.56-37.2-1.56-44.4,0-19,.36-33,1.08-42.24v-99a43.5,43.5,0,0,0,.48-8.76l-.48-7.08c0-3.48.6-13.44,1.8-29.76s1.68-30.12,1.68-41.28l-2.16-59c0-16,.36-28.44,1-37.44a211.92,211.92,0,0,1,6.24-39.12A139.23,139.23,0,0,1,233.64-1.92c15.24,3.84,28.08,9.48,38.52,17C275.28,17.4,278.76,20.28,282.72,23.76Zm84.36,373.8.24,2.76q0,7.2-8.4,80.88-9.18,79.38-14.64,112.32-3.78-11.16-6.84-29.52l-5.28-30.48c-1.8-8.52-3.36-18.6-4.68-30.36L324,472.56l-.24-.48c-1.92,13.2-4.32,33.12-7.32,59.64-3.12,23.4-7.32,43.2-12.48,59.4-.6-8.52-1.08-21-1.68-37.2l-.72-24.24q0-17.1,1.08-25.2V403.08l.6-3.24,1.08-.36a13.89,13.89,0,0,1,1.08,4.08V508.32c-.48,9-.6,20.4-.48,34.08l.48,33.84c3.6-18,6.84-38.64,9.84-61.92q3.06-24.84,6.84-63.36l.48-.48,1-1.2,9.72,62.16,10,62.64h.6a351.81,351.81,0,0,0,7-44.88c.84-9,2-24.24,3.48-45.84,1.32-19.56,2.52-34.56,3.72-45.12a276.35,276.35,0,0,1,8-42.84Zm18.36-81.36c0,3.72-.36,6.48-1.08,8v41.4c-1.08,8.76-1.92,19.8-2.76,33l-1.8,32.76q-2.7,39.6-10.56,65.76h-.84l-.36-1.08a10.92,10.92,0,0,1-.24-2.52l.36-5.28.24-5.64.84-.36.24,5.76h.6c2.64-16.32,4.92-37.2,6.84-62.52l4.68-63.36v-41.4c.84-1.92,1.08-6.48,1-13.8-.12-6.24.84-10.32,2.88-12.12,3.72,20.52,9.72,51.48,18,93.12q10.44,55.44,13.68,93.6h.24q5.76-34.2,7.32-91.32L426,344.4c.6-17.52,1.68-33,3-46.32l.48-.48,1.2-1.2a16.41,16.41,0,0,1,1.56,7.8q0,17.82-3.84,82.8Q423.54,468.9,418,498.6q-3.24-17.82-15.36-90-9.36-56.34-16.92-91.92Zm101.4-183.12-.72,1.08c-.6-.6-1.32-2.28-2-4.8a34.83,34.83,0,0,0-2.4-7c-3-6-9.24-9-18.6-9-6.6,0-12,9.24-16,27.6A200.39,200.39,0,0,0,443,169.44l-2.16,37.08-1.56,30.84,20.52-1.8V235l11.16.36,1,1.2a8.06,8.06,0,0,1,.36,2.76,5.17,5.17,0,0,1-.36,2.4l-1.32,1.44-5,.36-5.76.72L439,245.76l-.24,6.24,1.08,22.56,1.08,22.56L439.8,319.2l-1.08,22.08-.24,9a103.51,103.51,0,0,0,1.32,17c2.76,15.84,9.48,23.76,20,23.76l7.92-.24c5.64-6.12,9.84-14,12.36-23.52,2.16-10.92,3.84-19,5.16-24.36l.72-.48,1.2-.6c.84,1.32,1.32,3.48,1.32,6.48,0,6.12-2.16,15.48-6.6,27.84-4.68,13.08-9.12,21.12-13.08,24.12h-9.48C447.72,400.44,440.28,392,437,375a114.66,114.66,0,0,1-1.68-19.68l.12-13.56,1.08-22.08,1.08-22.2-1.08-23-1.08-23.16.24-6.12-.6-.6a5.13,5.13,0,0,1-.48-2.76,19,19,0,0,1,.36-4.08l1-.12,1.8-33.12c1.32-24.12,2-37.44,2.4-40-.72-9.48-.84-17.28-.24-23.16.84-8.64,3.24-15.48,7-20.64,11.88-16.2,22.08-20.4,30.6-12.36,3,2.76,5.4,6.72,7.32,11.88,1.56,4.2,2.4,7.68,2.4,10.32Zm-125.28,64.8-.24,1.44-.48.36-1.08.72c-3.6-11.4-6.36-25.32-8.16-41.76L347.88,116c-1.32,4.8-4.56,19.32-10,43.56-4,17.88-7.92,32.52-12,43.68h-2.4l-.84-40c-.36-16.92-.6-30.24-.6-40.2-5.16,25-9.36,51.12-12.36,78.6l-.6.24a58,58,0,0,1-.84-10.56c0-1,1.08-7.68,3.12-20L316,144.48,319.2,120c1.2-9.24,3.12-16.44,5.64-21.48,0,41.64.36,73,1.08,93.72,4.08-11.4,8-26.52,11.88-45.24,5.16-25,8.52-40.44,10.08-46.56,1.68,7.32,4.32,22.32,7.8,44.88,4,25.8,6,42.48,6,50.28ZM541.08,19C521.28,19,508,25.44,501,38.4c-3.24,6.12-4.92,13.68-4.92,22.8q0,9.18,13.68,42.84c15,36.6,25.08,62.28,30.24,76.8q43.74,122.94,43.8,237c0,11.28-1.8,25.44-5.4,42.6a296.8,296.8,0,0,1-17,55.44q-13,30.78-30,48.48c-13.44,13.92-28.2,21.12-44.4,21.6q-46.62-.36-64.8-24.48c-6.84-9.12-10.2-20.52-10.2-34.2a54.79,54.79,0,0,1,.48-7,53.94,53.94,0,0,1,1.44-8.52A130.66,130.66,0,0,1,417,527.4a142.13,142.13,0,0,0,3.36,16.08C422.64,550.56,428.52,557,438,563c9.24,5.76,17.76,8.64,25.68,8.64,19,0,33.24-1.32,43-4.08a43.49,43.49,0,0,0,22.56-13.8c4.08-4.92,9-13.8,14.88-26.4,8.88-19.32,15.6-33.24,20.28-41.88,4.44-8.4,8.16-22.56,10.92-42.48a333.09,333.09,0,0,0,3.36-45.48q0-48.24-13.68-106.92c-6.84-29.76-16.92-63.12-30-100.2l-30.12-81.12c-9-24.84-13.56-41.16-13.56-49a70.65,70.65,0,0,1,6.12-29.52q10.08-22.14,32.76-23c15.72.24,28.2,6.48,37.2,18.72a58.2,58.2,0,0,1,7.92,15.36,39.35,39.35,0,0,1,2.28,12.36,10.29,10.29,0,0,1-.6,3.24,6.94,6.94,0,0,1-2.4,3.36,98.64,98.64,0,0,0-7.92-23.4C560.4,25.08,551.88,19,541.08,19Zm12.48,25.32-.6,1c-2-2.52-4.2-4.92-6.24-7.08-4-4.2-7.68-6.24-11-6.24-9.48,0-16.32,5.4-20.4,16.2a67.21,67.21,0,0,0-2.52,10l.12-.12,19.56-.6v-.48l10,.24.72,1.08a7,7,0,0,1,.36,2.52,7.76,7.76,0,0,1-.36,2.64l-1,1.56a32.3,32.3,0,0,0-5.28,0l-5.52.6-7.92.24-8.4.84a4.31,4.31,0,0,1-2.88-1.8l-.12.84a17.33,17.33,0,0,0,1.68,5.52,44.4,44.4,0,0,0,4.92,8.64c5.4,7.56,11.76,11.4,18.84,11.4l8.16-.24,4-3.24a12.73,12.73,0,0,1,4.68-2.52l.6.72a6.3,6.3,0,0,1,.24,2.16,8.45,8.45,0,0,1-2.88,6.24L546.48,99c-16.68-2.76-27.72-7.68-32.88-14.76a21.35,21.35,0,0,1-3.84-9.6,82,82,0,0,1-.36-9.36,74.71,74.71,0,0,1,2.16-16.56c1.8-7.8,4.2-13.8,7.32-18C527.64,18.6,539.28,23,554,43.8Z" transform="translate(-6.48 1.92)"/></g></svg>