<svg id="Layer_1" data-name="Layer 1" xmlns="http://www.w3.org/2000/svg" viewBox="0 0 479.01 409.32"><defs><style>.cls-1{fill-rule:evenodd;}</style></defs><path class="cls-1" d="M102.24,233a371.72,371.72,0,0,0-20.52,53.64,143.21,143.21,0,0,1-13.8,31.68,106.8,106.8,0,0,0-7.68,16.44,1033.84,1033.84,0,0,0,3.12-103.68c-4.2,10-6.24,21.36-6.24,34.08A427,427,0,0,1,53.28,326a1014.46,1014.46,0,0,0-9.12,127.44l1.32-.24Q53,408.6,57.84,362.64,67.56,344.1,76.2,325.2a303.9,303.9,0,0,0,11,48.24q9.18,29.34,17,59.4a144,144,0,0,0,10.92,29.52c3.72-7.56,4.2-15.84,1.44-24.6q-18.18-59.94-38-118,9-20.52,16.56-41.76A111.07,111.07,0,0,0,102.24,233ZM156.12,75.72q-4.32,34-6,69-3.06,63.9-5.4,128.28l-5,128.28a207.63,207.63,0,0,1-3.6,32.28c-2.4,12.72-1,23.28,4.32,31.56a194.55,194.55,0,0,0,6.48-44.64q2-64.26,4.44-128.28,2.34-64.26,6-128.16.9-16,2.16-32.4a501.35,501.35,0,0,0,1.2-64.2C158.16,69,156.6,71.76,156.12,75.72Zm107.76-2.64a571.66,571.66,0,0,0-8.4,72.12q-3.6,64.08-6.48,128.4c-2,43-4.92,85.68-8.4,128.28L239.16,416q-9.36-45.72-20.4-91.08Q203.82,263,191.64,200.4t-26-124.32v-.84q.72-5.4-3.24-7.56l-.24.48a460.33,460.33,0,0,0,7.2,55.92l23.4,124.32c4,20.76,8.52,41.28,13.8,61.8A995.12,995.12,0,0,1,230.4,435.84c1.56,11.88,5.16,22.2,10.92,31.2,4.2-4.68,5.76-10.32,4.44-17l-1.8-9.36q6.48-56,9-112.92,3.06-64.08,7.32-128.28Q264.78,135,265.68,72,264.06,71.82,263.88,73.08Zm243,243.72q-13,63.54-20.88,127.44l-11-57.36a187,187,0,0,1-2.76-19.56c-1-10.32-4-18.6-9-24.72-5.4,31.32-11.52,62.76-18.12,94.32-.6-40-1.44-79.8-2.4-119.76-.48-22-1.44-43.44-2.76-64.2-4.68,16.32-6.48,34.08-5.4,53.16q3.24,64.44,2.28,129c-.24,11.88,1.68,22.68,5.88,32.16a330.55,330.55,0,0,0,22.2-86.88c5.4,24.36,9.84,48.72,13.08,73.2,1.32,10,4.8,17.64,10.2,23.16A475.31,475.31,0,0,0,497,422.4a885.85,885.85,0,0,1,23.88-128.64c3.24-12.24,3-22.92-.84-32A27.07,27.07,0,0,0,513.6,273,435,435,0,0,1,506.88,316.8ZM357.72,90.6c22.8,2.52,37.44,15,44,37.2,4.2,14,7.68,28.32,10.68,42.84a358.57,358.57,0,0,1,3.12,128,405.43,405.43,0,0,1-38.64,121.44,78.76,78.76,0,0,1-22.92,28q-13.14,10.08-27.36,1.44a43,43,0,0,1-18.6-22,177,177,0,0,1-10.92-46.92,1272.14,1272.14,0,0,1-6-128.4A590.86,590.86,0,0,1,302,140.88c5.16-26.28,19.92-44.16,44-53.76a60,60,0,0,1,24,2.76Zm26.88-7.44A63.14,63.14,0,0,0,346.32,71.4l-1.08.36-3.24.48a99.86,99.86,0,0,0-12.48,7.32c-2.4,1.56-4.92,3.12-7.56,4.56a120.33,120.33,0,0,0-27.12,58.68,647.27,647.27,0,0,0-9.6,95.64,991.72,991.72,0,0,0,4.68,128.16,293.6,293.6,0,0,1,1.56,32.52q-.54,36.9,23.64,62.28a21.09,21.09,0,0,0,7.08,5.16q31.5,14.58,50.16-16a352.1,352.1,0,0,0,46.08-121.92,481.68,481.68,0,0,0,5.76-127.44q-2-23.76-5-47.52-5-40-30.12-69.6L386.4,84l-1.08-.12Z" transform="translate(-44.16 -67.44)"/></svg>