<svg id="Layer_1" data-name="Layer 1" xmlns="http://www.w3.org/2000/svg" viewBox="0 0 308.87 210.72"><defs><style>.cls-1{fill-rule:evenodd;}</style></defs><path class="cls-1" d="M344.4,226.2c-4-20.76-16-31.8-36-33-22.68.48-37.8,11.52-45.6,33.12a285.32,285.32,0,0,0-14.88,64.2Q242,340.74,266.64,383.4a25.6,25.6,0,0,0,18.12,13.2q36.54,7.56,53.76-26.4,30.78-60.12,10.92-124A195.78,195.78,0,0,1,344.4,226.2ZM158.88,197q-1.26,63.9-5.4,127.44A383.68,383.68,0,0,1,147.36,372c-2.4,12-1.56,22.68,2.52,31.92A231.32,231.32,0,0,0,158,348c.48-18.84,1.68-37.8,3.48-56.64a450.11,450.11,0,0,0-.84-96C159.48,195.24,158.88,195.72,158.88,197Zm2.52.24q10.44,41.58,22.08,83.28l34.08,121.2a5.31,5.31,0,0,0,2.88-5.4l-.24-7.2c3.72-21.72,6.84-43.92,9.12-66.84q6.48-64.44,6.84-127.44a253.77,253.77,0,0,0-7,43.68q-5,62.46-13,124.56l-1.2-4.44C211,344.4,207,330,203.28,315.6A1153.65,1153.65,0,0,0,164,194.28C161.76,194.28,160.92,195.24,161.4,197.28Zm123.12,14.64a66.87,66.87,0,0,1,28.2-6.84l7.08.48a4.27,4.27,0,0,1,3.48,1.68l11.4,22.32q31.5,63.18.72,125.88-17.46,35.64-56.16,24.48-20.7-19.44-24.72-48.6a160.58,160.58,0,0,1-1.68-29.4q1.26-49.86,29.64-89.28Zm82.2-18.72a645.23,645.23,0,0,0,14.16,85.08q14.4,61.56,25.8,123.24c2.88.24,4.92-1.32,6-4.68a786,786,0,0,0,29.64-125A171.78,171.78,0,0,1,450,240.6c5.64-16.44,6.36-32,2.4-46.8a375.28,375.28,0,0,0-14.52,60.84,855.64,855.64,0,0,1-28.2,123.12q-5.94-30.42-12.24-61Q384.3,254,367.2,193.2Z" transform="translate(-146.03 -193.2)"/></svg>