<svg id="Layer_1" data-name="Layer 1" xmlns="http://www.w3.org/2000/svg" viewBox="0 0 314.82 215.28"><defs><style>.cls-1{fill-rule:evenodd;}</style></defs><path class="cls-1" d="M293.28,273.48l2.16,10.08-6.72.6Zm-1.2-6.24c-11.88,12.84-18.24,27.6-19.08,44.16a9.82,9.82,0,0,0,1.56,5.64l9.6-22.2,14.4,1.32c.84,10.68,4,19.56,9.6,26.4,2-8.16,1.32-17.28-1.92-27.24l2.76-.72a7.78,7.78,0,0,0,.12-8.76l-1.56-1.92-5.28-.84-9.84-19.8Zm30.48-32.88c14.76,31.08,17.28,63.48,7.32,97.08a77.34,77.34,0,0,1-16.92,30c-19.08,20.76-37.56,20.88-55.68.36l-.48-1.68-.36-.84-.24-.84c-9.24-22.44-12-46.32-8.4-71.4.84-5.76,1.44-11.52,2-17.16,2.52-25,13-44.52,31.56-58.8a53.51,53.51,0,0,1,31.32,7.08l.12,3.24Q313.2,230.94,322.56,234.36ZM273.84,200C256,221.52,245.4,246.48,241.92,274.8a355.45,355.45,0,0,0-1.8,61.92q2.7,44.1,42.36,59.64,32.94-4.86,46.44-36Q351.24,308.7,341.28,253c-6.12-34.68-26.52-53.76-61-57A11.79,11.79,0,0,0,273.84,200Zm-57.48,9.84q-2.34,64.44-8.64,128.28l-1.8,17.4c-.84-4.44-1.8-9-3-13.68-4.68-18.12-9.36-36.24-13.92-54.48a566.34,566.34,0,0,0-28.44-85.08l-1-8.52q-2.7,0-3.24,3.24a576.47,576.47,0,0,0-7.08,75.48c-1.32,42.6-2.4,85-3.48,127.32a3.69,3.69,0,0,0,2.52,2.28,1.86,1.86,0,0,0,.84-1.44c3.24-36.6,5.4-73.32,6.24-110.4.48-21.48,1.92-42.84,4.44-63.84l.48-4.68q17.1,56.16,31.92,113.28a182.05,182.05,0,0,1,5.52,31c1.08,11.52,4.2,21.48,9.48,29.88l.36-3.48,1.08,1.56q4.86-34.92,7.8-70.56Q221.7,259.14,221,196A22.35,22.35,0,0,0,216.36,209.88Zm240.24-18q-4.32,48.6-4.32,98.28-18.18-3.06-33.48,4-.18-48.06-4.08-95.52a382.72,382.72,0,0,0-3.24,64.92,701.13,701.13,0,0,1-7.56,129c-1.08,7.56.72,12.36,5.4,14.64a444.56,444.56,0,0,0,9.12-80.28l.36-19,33.6-1.44.12,8.4a447.44,447.44,0,0,1-3.24,64.8c-1.32,10,.48,18,5.28,24a2.89,2.89,0,0,0,1.8-2.52q4-40.14,4.2-81.12.54-65-3.6-128.16Zm-82.2,4.56c-18.12,20.4-23.52,44-16,70.92a155.21,155.21,0,0,0,19.44,43.2q13.14,20.34,7.56,43.56a43.17,43.17,0,0,1-12.12,21.12l-32.4,3a16.9,16.9,0,0,0-1.44,16.8c15.6,5.88,28.44,2.88,38.64-9.24a71.47,71.47,0,0,0,16.92-47,68.25,68.25,0,0,0-14.52-42.84,82.84,82.84,0,0,1-17.28-47.16,68.38,68.38,0,0,1,7.68-35.28,30.77,30.77,0,0,1,24.6-.24c1.56-12.6-4.44-18.36-18-17Z" transform="translate(-145.8 -191.88)"/></svg>