<svg id="Layer_1" data-name="Layer 1" xmlns="http://www.w3.org/2000/svg" viewBox="0 0 306.14 210.96"><defs><style>.cls-1{fill-rule:evenodd;}</style></defs><path class="cls-1" d="M285.72,283.92l-3.12-.36,2.4-5.76Zm-1.44-21.24q-18.72,22.5-21.36,52.56a3,3,0,0,0,3.84,1.56,188.88,188.88,0,0,1,8.88-20.28l12.24-.36a137.16,137.16,0,0,0,10.32,29.28,5.91,5.91,0,0,0,1.8-4.8,225.55,225.55,0,0,0-12.24-53.4,54.06,54.06,0,0,0,.36-8.76H288l-2.52,2.76-.36-.6c-.6-.12-.84-.12-.84.24Zm-123.6-68.4-1.08,1.56A1460.44,1460.44,0,0,0,150.72,348l-.36,8.16-.36,4-.48,4.08-3.12,19.56a28.94,28.94,0,0,0,3.84,19.92,1015.38,1015.38,0,0,0,11.52-177.24l-.36-13.68q15.66,91.26,31.92,182.4a33.1,33.1,0,0,0,1,3.24l1.32,3,.24-.24.48-.36,1.68-.6a1115.4,1115.4,0,0,0,12.24-204q-9.18,70-13.08,141.36l-1.44,16-.36,3.36A930.12,930.12,0,0,0,160.8,196.8Zm146.4,16.8a59.9,59.9,0,0,1,13.8,16.44,126.9,126.9,0,0,1,17,52.44q5.22,54.54-32,91.68-24.48,24.3-56.16,12.6a40.73,40.73,0,0,1-9.24-19.8,234.7,234.7,0,0,1,4.56-99.6c8.52-32.76,28.92-52,61.2-57.84,1.08-.12,1.44.24.84,1.32l-1.32,3C305.4,212.16,305.88,212,307.08,211.08Zm-26.16-8.52Q239.7,230.82,233,282.36c-2.52,20.4-4.44,40.92-5.52,61.68q-1.62,35.28,23.76,57.72a13.45,13.45,0,0,0,9,3.48c27.12.12,48.36-11.52,63.6-35.16A134.31,134.31,0,0,0,345.24,307q5.22-63.18-31.92-111.36l-1.56-.12c-4,.12-8,.12-12-.12A41.19,41.19,0,0,0,280.92,202.56Zm104.76,11.28a104.39,104.39,0,0,0-17.28,38,311.38,311.38,0,0,0-7,43.2,218.89,218.89,0,0,0,.36,43.44A61.45,61.45,0,0,0,380.88,378c12.36,11.88,26.52,14.16,42.48,7.08a40.69,40.69,0,0,0,14.88-10.8L441.12,398a157.78,157.78,0,0,0,4.68-71.76,37.38,37.38,0,0,0-24.48,3l.24,10.56,20,3-.24,3A122.54,122.54,0,0,1,423.48,365a24.22,24.22,0,0,1-18,6A57.24,57.24,0,0,1,390,367.92a18.82,18.82,0,0,1-8.76-6.12,45.26,45.26,0,0,1-9.12-19.56,197.92,197.92,0,0,1-2.4-62.4,98.85,98.85,0,0,1,26.52-56.76q22.86-24.48,52.56-3.48l3.36,2.28c-2.28-17-12-26-29.16-26.88C407.64,194.28,395.16,200.52,385.68,213.84Z" transform="translate(-146.02 -194.28)"/></svg>