<svg id="Layer_1" data-name="Layer 1" xmlns="http://www.w3.org/2000/svg" viewBox="0 0 526.51 360.99"><defs><style>.cls-1{fill-rule:evenodd;}</style></defs><path class="cls-1" d="M63.36,77.28a462.1,462.1,0,0,0-9.6,73.44c-2,42.84-3.36,85.8-3.84,129.12-.36,42.6-1.92,85-4.68,127.32l-.24.24-.12-3.12q-1.62-.54-2.52,4.68c-1.44,9.72.72,17,6.36,21.84A71.31,71.31,0,0,0,54,406.44c1.8-34,2.88-67.92,3.24-102.12a205.37,205.37,0,0,0,17-33.12l18-44.16A474.46,474.46,0,0,0,104,300.24Q119,362,131.76,424.2q1.44,2.88,4.32,2.16a3.46,3.46,0,0,0,1.32-3.12,532.42,532.42,0,0,0-14.52-84.72Q107.58,278.76,95.52,219L123,153.24a306.25,306.25,0,0,1,14-28.92c7.08-12.84,9.6-25.56,7.44-38.28A171.17,171.17,0,0,0,125,122Q101.46,181.26,76.8,240.36a190,190,0,0,1-15,29,59.24,59.24,0,0,0-4.32,8.16c.12-43.08,1.68-85.8,4.68-128.4q.9-12.06,2.52-24.12a162.26,162.26,0,0,0-.24-48.24C63.84,76.68,63.48,76.92,63.36,77.28ZM269,96.6A931.36,931.36,0,0,0,258.6,224q-.72,64.62-3.84,129.12a340.88,340.88,0,0,1-4.32,41.4,500,500,0,0,1-15.72-53.16Q220.14,279.3,206.16,217T183.48,92l-.12-1.44-1,1.2-1.08,1.32a29.47,29.47,0,0,0-5,14.52c-1.8,19.56-2.88,39.24-3.48,59.28-.84,26.76-1.2,53.64-1.32,80.4q-.18,65.16-4.92,129.12a195.77,195.77,0,0,1-3.24,24c-2.52,12.48-1.32,23.28,3.36,32.52a5,5,0,0,0,3.12-4.56q5.58-63.9,5.52-128.28c.12-43.32,1.44-86.4,4.2-129.24L182,138.6l.48-6.36a361.86,361.86,0,0,0,8,51.72L219.48,307.8Q234.24,370.62,249.72,433a3.48,3.48,0,0,0,3.48,1.8,51.36,51.36,0,0,0,2.16-12.12l.36.24a48.41,48.41,0,0,0,3.36-14.52q5.22-63.72,6.12-128.28.9-64.26,4-128.28a289,289,0,0,1,3.24-32.16c1.32-9,.36-16.92-2.88-23.52C269.16,96.24,269,96.48,269,96.6Zm107.28,140q-2.7-49.32-49.44-65.64l-.12.24-1,.36-2.16,1.08a9.5,9.5,0,0,0-4.92.84q-25.74,12.78-34.2,42a240.66,240.66,0,0,0-8.64,91.68,91.58,91.58,0,0,0,8.64,31q14.94,30.6,50.4,21.24,19.62-7.56,27-27.36A232.05,232.05,0,0,0,376.32,236.64ZM361,310.44q-7.74,27.54-36,31-35.64,4.32-40.32-28.8a222,222,0,0,1,4.56-85.8q7.38-29.52,32.28-42l.48.12.6,2.28a5.75,5.75,0,0,0,1.08,2.52,115.45,115.45,0,0,1,23,11.64,28.38,28.38,0,0,1,11.88,14.88C369.12,246.84,370,278.16,361,310.44Zm78.48-207.36q-45.18,24.48-49.68,79.08c-2.28,28.32-4.32,56.64-5.88,85.08a881.17,881.17,0,0,0,1.8,128.4,69.52,69.52,0,0,0,10.56,31.68,14.39,14.39,0,0,0,10.2,6.72c23.88,4,43.32-4.08,58.08-23.88q12.6-16.74,2.16-30.24a10.63,10.63,0,0,0-3.6,2.88l-.84.72-1,.72a15.9,15.9,0,0,1-3,9.48c-12.12,16.68-28.2,23.88-48.48,21.6-7-.84-11-4.56-12.24-11.28a482.56,482.56,0,0,1-7.08-120c1.44-21.72,1.92-43.32,1.56-64.8q-1.08-47,25-84.48,17.46-25.38,44.64-11.88l2.64-.24.84-.36.48-.24q1.62-4.86-2.88-9.72c-2.52-2.52-5-5-7.68-7.32l-2.28-.72A29.12,29.12,0,0,0,439.44,103.08Zm119,13.8Q537.42,176.64,510.84,235a91.47,91.47,0,0,1-8.16,14.64A92.13,92.13,0,0,0,497.4,259l.36-30.36q.9-65-.48-128.16-.72.18-.72.36A888.43,888.43,0,0,0,489.84,207l-1.08,129.12A389.2,389.2,0,0,1,483,400.8c-2,12.12-.72,22.92,4.08,32.4a2.57,2.57,0,0,0,1.2-1.44,378.56,378.56,0,0,1,8.64-49.56l.48-7.92-2,5.88c.6-7.56.84-15,1-22.44l.72-71.16q13.14-24.66,25-50,4.68,39.42,13,78.84Q548.1,378,557.88,437.76V437c-.48-3,.48-3.24,2.76-.84,4.44-6.6,5.64-14.16,3.84-22.68q-7.2-33.3-13-66.6a1074,1074,0,0,0-26.88-115.8l2.16-4.68a638.58,638.58,0,0,0,41.64-120.36A17.14,17.14,0,0,0,558.48,116.88Z" transform="translate(-41.93 -76.77)"/></svg>