<svg id="Layer_1" data-name="Layer 1" xmlns="http://www.w3.org/2000/svg" viewBox="0 0 433.09 344.52"><defs><style>.cls-1{fill-rule:evenodd;}</style></defs><path class="cls-1" d="M220.2,118c-.84-.12-1.44.12-1.56,1a593,593,0,0,0-13.2,100.44c-2,42.84-4.44,85.56-7.32,128.4a297,297,0,0,1-6.84,46l-.24-.6c-4.68-13.56-9-27.24-12.84-41L144,228.72,109.8,105.48l-1.56,5.16-.6-4.32c-.6.12-.84.24-.84.36q-5.94,34-9.24,68.88c-3.84,42.6-6.84,85.44-9,128.28-1.56,32-4.68,64-9.36,95.52-1.68,11.76-.84,22.44,2.52,31.92L85,430.2a11.69,11.69,0,0,0,1.44-4.92q6.12-63.9,9.72-128.16Q99.9,233,107.64,169.8A255.3,255.3,0,0,0,109.56,143l.24.84C114,157.44,118,171,121.92,184.56q17.28,60.66,36.24,121.56a971,971,0,0,1,30.12,123.6,8.64,8.64,0,0,0,7.08,6.12,80.27,80.27,0,0,0,1-14.16,72.29,72.29,0,0,0,4.2-17c4.92-42.24,8.28-84.72,9.84-127.56s5-85.2,10.2-127.32A117,117,0,0,0,220.2,118ZM391,334.68Q379.08,406,312.12,427.44c-7.08,2.28-14.52,1.92-22.32-1q-42.3-16-50.28-60.48a320.61,320.61,0,0,1-4.8-57,311.93,311.93,0,0,1,25.92-124.68c13.08-30.12,35.52-48.36,67.32-55l1,.6a3.28,3.28,0,0,1,1,2.28,9.62,9.62,0,0,0,.6,2.52l.72,1.68a13.83,13.83,0,0,0,4.2,2.64,111.91,111.91,0,0,1,13.32,6.24,197.09,197.09,0,0,1,13.56,20.16q33.3,56,32.76,121.92A295.83,295.83,0,0,1,391,334.68Zm16,72.6a14.59,14.59,0,0,1-1.8,9.48c-1,1.68-1.92,2.4-2.76,2.16ZM442.32,133c29.88,3.48,48.36,20.4,55.68,50.76a72.21,72.21,0,0,1,.12,34q-12.6,54.9-68.28,62.28l8.76-96.84a446.54,446.54,0,0,0,1.92-50.4ZM365.64,148.8c-6.6-20.16-20.52-31.32-42-33.48a46.45,46.45,0,0,0-22,8Q256.5,154,242,207.84a424.16,424.16,0,0,0-12,63.36,315.5,315.5,0,0,0,8.76,119.16A81.53,81.53,0,0,0,255,421.92q30.24,36.9,75.36,17.76,43.2-18.18,58.44-63.36a285.85,285.85,0,0,0,13-127.2,232.2,232.2,0,0,0-34.56-97.8h1.08a5.6,5.6,0,0,0-2.16-1.68ZM437,132.12A740.83,740.83,0,0,0,427.92,213c-1,16-2.16,31.8-3.72,47.76l-2.4,24.6a11.9,11.9,0,0,0-.48,4.2v.6c-3.48,33-7.32,66-11.76,98.88a25.14,25.14,0,0,1-2.16,7.56c-4.68,10-6.24,19.56-4.56,29-1.92,6.24-.6,11,4.08,14.28a2.55,2.55,0,0,0,2.16-2.16A1183.57,1183.57,0,0,0,427,311l1.2-13.32a58.3,58.3,0,0,0,31-8.88L466,284.4a49.18,49.18,0,0,0,1.2,19.92q11.16,43,24.6,85.32A293.51,293.51,0,0,1,504.6,450c-.36-4.68,1-7.2,4.08-7.56a5.27,5.27,0,0,0,2.76-5.16,138.82,138.82,0,0,0-6.48-37.8q-18.54-58.68-34.68-118.2,48.6-36.9,35-100.8-10.26-48.78-56.16-61.68a29.67,29.67,0,0,0-9.12,1.08l-.12-1.08-.48.12L439.2,120l-1.92.72a13.72,13.72,0,0,0-1.68,6.48,10.6,10.6,0,0,0,1.32,4.8Z" transform="translate(-78.36 -105.48)"/></svg>