<svg id="Layer_1" data-name="Layer 1" xmlns="http://www.w3.org/2000/svg" viewBox="0 0 440.07 305.4"><defs><style>.cls-1{fill-rule:evenodd;}</style></defs><path class="cls-1" d="M179,112.8a46,46,0,0,0-4.32,15q-7.38,70-13,140.28c-1.2,15.36-2.64,30.72-4.44,46.2l-3.72,30.6c-6.36-24.12-12.36-48.24-17.76-72.6Q116.76,187,99.48,103l-.12.36-.48.72-.12-.36c-2.76,14.88-5.28,29.88-7.56,44.88Q74.82,258,61.68,367.92a44.67,44.67,0,0,0,.24,12l1.56,7.68,1,3.6A11.15,11.15,0,0,0,69,383c2-19.68,4.44-39.36,7.08-59l4-29.64,3.6-29.64q3.42-33.84,8-67.32c2.16-15.72,4.68-31.44,7.44-47.16l.84-4.56Q114.18,220,130.92,294q10.8,48.42,23.88,94.92l3.48-.6L176.76,177ZM250.56,148l-2.64-.6a37.33,37.33,0,0,0-14.16-1.56c-22.68,11.88-37.08,30.48-43.44,55.68a295.81,295.81,0,0,0-4.2,126C191,355,208.08,367.2,237,364.2a50.09,50.09,0,0,0,25.32-9.72c26.28-19.56,39.36-46.08,39.48-79.56,0-16-.72-31.68-2-47.28-2.52-28.92-14.52-52.56-35.76-70.92l-.84-1,.36-.6,1.56-1a31.09,31.09,0,0,1-7.8-1.92A14.81,14.81,0,0,1,250.56,148Zm-5.16,12a4.52,4.52,0,0,0,2,4.32c8.76,6.48,17.28,13.2,25.8,20a125.8,125.8,0,0,1,18.84,47.52q7,40-8,76.8Q266.4,352,217.56,346.08a20,20,0,0,1-8.88-3.48c-14-10.44-21.24-25-21.84-43.8a347.49,347.49,0,0,1,2.28-51.36,179.77,179.77,0,0,1,18.72-62q12.06-23.22,36.72-26.28C245.16,159,245.4,159.36,245.4,160Zm204.72-36.6-.48-4.08c-14.52,33-20.4,68.52-17.88,106.8a429.18,429.18,0,0,1,0,55.56c-2,32-4.44,63.84-7,95.52l-1.32,1.92a52.49,52.49,0,0,0-.6,16.2c.48,4.2,1.92,6.72,4.2,7.68A934.94,934.94,0,0,0,442,267l47.4,1.92q-2,62.46-9.84,124.32a20.6,20.6,0,0,0,2,11.64l1.56,2.4.84,1.08c9-23.52,13.08-51,12-82.56-.72-19.2-.6-38.4.48-57.6l1.92-.36a11.59,11.59,0,0,0,1.8-4.92,14.33,14.33,0,0,0-.36-5.52,14,14,0,0,0-2.52-4.56,816.66,816.66,0,0,0,3-125.88A540.09,540.09,0,0,0,490,252.24L442.56,255,448,152.16A88.93,88.93,0,0,0,450.12,123.36Zm-74-10.92-83-2.52a167.4,167.4,0,0,0-26.88,1.2,123.7,123.7,0,0,0-25.68,6.36l-.24.72-.6,3.36-.12,4,.12.84a4.44,4.44,0,0,0,2.28,4.08,799.22,799.22,0,0,1,84.48-3.36,609.69,609.69,0,0,0-8.64,109.2,919.11,919.11,0,0,1-7.68,127.92L310,365a4.23,4.23,0,0,0,1.2,3.24q-4.5,13.86,3.24,22.68a641.08,641.08,0,0,0,11.16-110.4c.6-32,1.44-64.2,2.76-96.48.84-19.44,1-38.4.36-57l44.4,2h.84l1.56.12a9.57,9.57,0,0,0,1.92-1l.72-1.68.84-3.24a12.89,12.89,0,0,0-.24-5.64l-.12-.84a17.21,17.21,0,0,0-1.68-4.08A1.09,1.09,0,0,0,376.08,112.44Zm24.36,38.88a38.4,38.4,0,0,0-7.56-2.76,82.17,82.17,0,0,0-30.72,31.08,154.57,154.57,0,0,0-16,40.08,283.69,283.69,0,0,0-7.44,46.08c-1,13.8-1.32,27.6-1,41.28a104.86,104.86,0,0,0,10.32,43.2c5.4,11.16,14.16,17.64,26.28,19.68A64,64,0,0,0,405,345.12a18.26,18.26,0,0,0,2.28-15.6l-2.28-1.2a86.51,86.51,0,0,1-23.52,19,16.21,16.21,0,0,1-16.92-.48,34.56,34.56,0,0,1-13.2-13.08,37,37,0,0,1-5-16.56,310.79,310.79,0,0,1,11-106.68c4.92-17.4,14.52-31.2,29-41.52a38.39,38.39,0,0,1,10.8-5.52l4.32,1.92,9.12,8.64,3.36-3.84a28.48,28.48,0,0,0-5.28-11.64A26.42,26.42,0,0,0,400.44,151.32Z" transform="translate(-61.38 -102.96)"/></svg>