<svg id="Layer_1" data-name="Layer 1" xmlns="http://www.w3.org/2000/svg" viewBox="0 0 454.48 328.6"><defs><style>.cls-1{fill-rule:evenodd;}</style></defs><path class="cls-1" d="M149.88,93.6a118.12,118.12,0,0,0-11.28,21.48q-23.94,59.58-49,118.2A181.69,181.69,0,0,1,73.92,262.2l-1,1.32c3.24-37.08,7-74,11.4-110.76A322.6,322.6,0,0,0,86,89.28,2.69,2.69,0,0,0,83.4,92C79,134.28,74.88,176.52,70.92,218.76Q65,282.66,58,346.2a204.79,204.79,0,0,1-5.88,31.92q-5.22,18.9,4,31l.84-1.68Q65.7,350,70.68,292.08a152.74,152.74,0,0,0,11.88-21.36l16.32-37.08a416.67,416.67,0,0,0,25,97.2,237.64,237.64,0,0,1,14.76,61.08c1.08,9.72,4.32,16.68,10,21a138.39,138.39,0,0,0-7.8-59.4Q119.34,293,99.84,232.68h-.48q17.1-39.42,33.24-79.8c4-10,8.4-19.68,13.32-29.28,5.4-10.68,7.8-20.88,7.2-30.84h-.6A4.32,4.32,0,0,0,149.88,93.6Zm134.52.72c-4.56,29.16-7.92,58.92-10.2,89-3.24,42.84-7,85.56-10.92,128.28-1.32,13.32-3,26.64-5.16,39.84l-2-10.32Q242.94,278.7,228.6,216.48,214.38,154,202.32,92.28l-.6-.72-1.2-1a1.91,1.91,0,0,0-1.44.48c-.24,0-.36.12-.36.48l-.12.6v.12L198,96.6q-6.84,54-10.8,109l-9.72,128.28a276.47,276.47,0,0,1-7.8,47.52c-3,12.12-2.64,23,1.32,32.64a2.92,2.92,0,0,0,1.2-1.56,348.8,348.8,0,0,0,11.4-66.36c3.24-42.6,6.72-85,10.44-127.32,3.24-36.84,5-73.44,5.28-109.56,6.84,40,14.64,79.8,23.64,119.52Q236.82,291,247.44,353.88a527.39,527.39,0,0,0,14.4,62,4.35,4.35,0,0,0,2.76-4.56q-.54-15.3-2.16-30.24c4-21,6.84-42.24,8.76-64l8.64-95.64q5.58-64.44,5.28-127.68C284.64,94,284.4,94.08,284.4,94.32ZM475.2,234.6q35.1,59.22,12.12,124.2A55.25,55.25,0,0,1,464.88,388c-12.12,8-25.68,10.92-40.68,8.88a306.45,306.45,0,0,0,6.48-42.24q5-61.2,5.28-123.24c5.64.6,10.8-1.2,15.36-5.4l2.52-1.2a64.63,64.63,0,0,0,7.56-5.16l.48,1.44A37,37,0,0,1,475.2,234.6ZM475,162.36q1.26,41.94-39,55c-.12-37.8-1.08-75.12-3.12-111.84A29.67,29.67,0,0,1,445,109.2Q473.94,125.76,475,162.36Zm-76.8-25.56q-8.1-41.4-49.68-39.6a63.22,63.22,0,0,0-28.68,31.68,322.12,322.12,0,0,0-12.72,34.56,396.27,396.27,0,0,0-16,92.76,538.17,538.17,0,0,0,8.28,127.68c3.72,19.92,15.12,31.2,34.2,33.72q14.4,2,23.76-10.08,35.82-45.72,45.84-103.8a402.59,402.59,0,0,0,1.68-127.56C403,163.08,400.68,149.88,398.16,136.8Zm-17.76-12a268.58,268.58,0,0,1,21.12,123.36A333.18,333.18,0,0,1,369.24,373.8C358.92,395.52,342.12,403,319,395.88,305.88,377,299.28,355.32,299.16,331l-.84-62.52A315,315,0,0,1,321.48,142.8q11.52-28.62,41-30.24l3.24.72-.48.36a2.52,2.52,0,0,0-1.32.84L362,115.92a1.45,1.45,0,0,0-.84.84v.72a6.77,6.77,0,0,0,4.08-.12l1.32-.24,1.32.36A39.42,39.42,0,0,0,378,123.72ZM432,98c-.36.12-.48.12-.48.24-3,40.2-4.32,81.24-4,123.36a1152.23,1152.23,0,0,1-6.12,129,241.33,241.33,0,0,1-5.4,32A51.3,51.3,0,0,0,414.72,400c-1,.36-1,1,0,1.92l.36.24a31,31,0,0,0,1.08,4.8l.12,1.44a12.36,12.36,0,0,0,1.8,4.8l1.08.48.48.84.24-.6a61.75,61.75,0,0,0,28.32,2.64,32.44,32.44,0,0,0,18.24-8.64c21.24-19.8,33.48-44.64,37-74.76q7.38-64.08-28-116l-1.56-1-5-3.72.6-.84a89,89,0,0,0,8.4-23.76,126.49,126.49,0,0,0,2.16-38c-2.52-26.16-14.88-44.4-36.84-54.72-4.2-1.8-7.56-1.56-10.2.72Z" transform="translate(-50.19 -89.28)"/></svg>