<svg id="Layer_1" data-name="Layer 1" xmlns="http://www.w3.org/2000/svg" viewBox="0 0 510.49 328.2"><defs><style>.cls-1{fill-rule:evenodd;}</style></defs><path class="cls-1" d="M80.88,102.84l-.24-1.92a128.66,128.66,0,0,0-7.08,34.56q-4.5,64.08-10.08,128.28-5.58,63.54-8,127.44l-.36.36a2.87,2.87,0,0,0-1.8,2.4c-1.56,9,.24,16.2,5.16,21.6a2.89,2.89,0,0,0,2.4-3l6.72-86.76q4.86-64.08,8.64-128.28a283.43,283.43,0,0,1,3.6-32.16c.84-4.68,1.44-9.36,1.92-14,1.08,6.48,2.4,13,4.08,19.44q16,61.92,28,124.56L125.4,358.2a459.62,459.62,0,0,0,15.24,62c3.72-3.72,5.28-8.52,4.56-14.4q-.9-7.74-1.44-15.48l-.36-4.44A22.37,22.37,0,0,0,145,374.16c3-1.32,3.12-2,.6-2.4Q147,335.76,152,300q8.82-63.36,16-127.2a280.9,280.9,0,0,0,.24-63.48c-.6.12-.84.24-.84.36C163,139.2,159.24,169,156,198.84c-4.56,42.6-9.48,85.2-14.76,127.56q-2,16.2-5,32l-.24,1.68L134.28,353q-14.4-62.46-27.84-124.8-13.5-62.82-24.72-125.4Zm117.6,83.88a57.53,57.53,0,0,1,18.24-21.48c12.12-8.52,24.72-11.88,37.92-10l2.16,7.2q29.7,13.86,42.84,44.76a141.91,141.91,0,0,1,10.8,47.88,176.27,176.27,0,0,1-4.2,46.92A139.76,139.76,0,0,1,292.8,337.8a74.88,74.88,0,0,1-30.24,30.84q-24.66,13.68-45.36-1.92A77.72,77.72,0,0,1,192,335.28c-10.92-24.12-14.52-49.68-11-76.44,2-15.48,4.8-31,8.28-46.2A130.65,130.65,0,0,1,198.48,186.72Zm30.12-42.84c-21.48,11-35.52,28.44-42.36,52.2A288.06,288.06,0,0,0,178.8,322.8a104.49,104.49,0,0,0,30.48,59.4,28.76,28.76,0,0,0,9.6,6.24q35.28,13.68,61.68-14A132.73,132.73,0,0,0,315.48,306q12.42-65.7-15-126C288.12,152.76,267,139.56,237,140.16,234.24,141.24,231.48,142.44,228.6,143.88Zm160.8-7.56a40.13,40.13,0,0,0-11-13.2,44.21,44.21,0,0,0-12.72-6.6l-7.44-2.28-13.56,4c-1.56,4.08-1.2,7.8,1.08,11a1347.67,1347.67,0,0,1-8.64,189.24L336.84,306a523.23,523.23,0,0,0-8.52,112.8,4.9,4.9,0,0,0,2.52,4.44,609.78,609.78,0,0,0,17.52-139.56L368,271.56A1263.53,1263.53,0,0,0,407,428l.24-.12,5-31.32L409,403.8q-14.22-68.22-35.64-136.92Q403.74,232,399.6,184.44C399,177,398,169.56,396.84,162l-2.16-11.52A53.28,53.28,0,0,0,392.4,143,67.39,67.39,0,0,0,389.4,136.32Zm-37.8-7.68,12.6.36q18.54,12.78,25.2,35.64a104,104,0,0,1,3.36,42.12,75.58,75.58,0,0,1-18.6,41.52,59.78,59.78,0,0,1-25.08,17.28l4.08-118A77.88,77.88,0,0,0,351.6,128.64Zm177.36,3-.48,1.44c-1.2,0-1.8.6-1.68,1.68v3.6a617.82,617.82,0,0,0-22,98.64,504.45,504.45,0,0,1-12.72,61c-1.08-13.32-2.64-26.4-4.44-39.48L472.32,147.36a218,218,0,0,0-1-25.08,347.07,347.07,0,0,0-11.88,53.52Q450.66,239,443.64,302.52a553.14,553.14,0,0,1-18.24,93.72c-3.48,12-2.88,22.68,1.56,32a2,2,0,0,0,1.32-1,665,665,0,0,0,22-115.08Q456.72,248.7,468.36,186l.6-2.88c1.44,10.32,2.64,20.64,3.72,31.08,4.2,42.84,9.84,85.08,17,126.48,3.36-1.92,4.92-5.16,4.68-9.84v-.6a226.69,226.69,0,0,0,9.84-41.4c4.2-31.56,9.84-62.76,16.8-93.84a347.37,347.37,0,0,0,6.48-37.32q1.26,24.12,4.32,48.6,8.1,63.36,14,127.32c2,21.36,3.72,42.84,5.28,64.32a68.6,68.6,0,0,0,9.48,31.2,2.14,2.14,0,0,0,1.08-1.44,128.58,128.58,0,0,0-.24-40.68c-6.84-42.12-12.12-84.6-16-127.2q-5.58-62.28-16.2-123.36l.24-4.92Z" transform="translate(-52.73 -100.92)"/></svg>