<svg id="Layer_1" data-name="Layer 1" xmlns="http://www.w3.org/2000/svg" viewBox="0 0 523.95 524.64"><defs><style>.cls-1{fill-rule:evenodd;}</style></defs><path class="cls-1" d="M112.8,269.76V266a488,488,0,0,0-31.2,71.64A511.66,511.66,0,0,1,57,397.08a161.42,161.42,0,0,1-9.72,17.16l-1.44,2.4A1399.82,1399.82,0,0,0,43.56,262.8q-6.84,95-5,190.68c.36,24.6.12,49.08-.72,73.68A63.29,63.29,0,0,0,39,543l1.56,7.08c8.64-39,10.32-79.2,5.16-120.36,10.2-9.24,17-20.88,20.64-34.8a760,760,0,0,1,35.28,97.44,490.41,490.41,0,0,0,17.52,50.4c2.88,7.08,6.12,14,9.6,20.88q-2.34-42.66-20-87.6Q97,446.52,83.4,417.84C79,408.24,74,398.76,68.88,389.4l38.64-93A72.2,72.2,0,0,0,112.8,269.76ZM168,39a255.86,255.86,0,0,0-5.16,69c2.28,43,4,85.92,4.8,129S169,323,169,366.12s-1.44,86-4.32,129a408.55,408.55,0,0,0,.36,64.2c2.4-.6,3.72-2.16,3.84-4.92q3.78-64.26,5-129.12c.84-42.84.84-85.8.24-129s-1.8-86.16-3.6-129Q168,102.48,168,39Zm104.64,62.52c.12,18.48-.36,37.08-1.2,55.92-2,42.84-2.4,85.92-1.32,129.12s1,86.4-.24,129c-.48,15-.84,29.88-1,44.88-2-15.48-4.2-31-6.48-46.32A1128.6,1128.6,0,0,0,236,288.84L202.32,164.76Q185.58,103,170.16,41.64c-.6-.12-.84,0-.84.48a420,420,0,0,0,13.32,76.8q16.92,62.46,33.6,125.28,16.38,62.1,29.28,124.68,12.6,61,19.32,123.12c1.08,10.32,1.8,20.52,2,30.72a81.58,81.58,0,0,0,2.28,17.76v3.36a3.71,3.71,0,0,0,1.44,1.8c1,2.52,2,5,3.24,7.44a14.25,14.25,0,0,0,4-11.52l-3.48-35.88,2.28-71.4c1.08-42.84,1.08-85.8-.24-129s-1-86.28.6-129.12c1.56-43.56,2.76-86.4,3.6-128.28A175.66,175.66,0,0,0,272.64,101.52Zm154.08,173.4a.94.94,0,0,0-1.2.84q-1.26,15.66-1.8,31.68c-1.32,42.84-1.92,85.92-1.8,129,.12,16.2-.48,32.4-1.68,48.6a326,326,0,0,0,1.32,64.2c44.52-.12,88.8-.84,132.84-1.92l.48-.72a15.5,15.5,0,0,0-.48-13.8l-10.8-1c-39.72.84-78.72.48-117.24-1.2q3.78-62.64,2.88-125.88c-.6-43.08-.72-85.8-.6-128.16l-.84-.84ZM435.36,47c-7.08,14.52-10.56,30.72-10.2,48.48q1.26,64.62-1.56,129-.72,18.72,6.12,32a2.38,2.38,0,0,0,1.68-1.68,38.54,38.54,0,0,0,2-13.8c-1.32-43.08-1.92-86-1.56-129a190.68,190.68,0,0,1,2.64-32.16A117.15,117.15,0,0,0,435.36,47ZM378.24,79.8q5,40.86,6.72,82.44l5.16,129.24a734.82,734.82,0,0,1-6,129,303.47,303.47,0,0,1-37.8,112c-6.6,5.16-13.68,6.36-21.36,3.6a26.93,26.93,0,0,1-9.48-16.32,659.89,659.89,0,0,1-10-128.16c.84-43.08.24-86.16-1.56-129.12a993.1,993.1,0,0,1,2.76-128.28c1-10.92,2.28-21.84,3.84-32.64C314,77.16,327,61.8,349.56,55.2c10-1.32,17.88,2.28,23.52,10.8A31.28,31.28,0,0,1,378.24,79.8ZM381.6,68c-4.92-15.36-15.24-23.76-31-25.32a2.67,2.67,0,0,1-1.56.6c-10.92,1.56-19.2,6.84-24.72,15.84a168.2,168.2,0,0,0-24.24,77.64,1255.28,1255.28,0,0,0-1.68,127.56q2.34,64.08,1.08,128.28a887.39,887.39,0,0,0,6.84,129.12c2.4,18.84,12.48,29.88,30.24,32.88a32.25,32.25,0,0,0,12.72-10.56A214.47,214.47,0,0,0,383.16,466a686.05,686.05,0,0,0,15-128.52A1144.92,1144.92,0,0,0,393.6,209c-1.08-10.92-1.68-21.6-1.92-32.28q-1.08-56-5.64-110.52l-2.28-.12a2.36,2.36,0,0,0-1.56,1.08l-.48.72ZM484.32,49c-3,3.84-4.56,9-4.8,15.36q-1.8,56.52-2.16,113.76c-.36,43.08-1.2,86-2.76,129s-4,86.16-7.44,129a186.9,186.9,0,0,0,2,48A642.28,642.28,0,0,1,559,485.4l.72-.84A14.59,14.59,0,0,0,559.8,470L474,466.2l4.92-126.6c1.68-43.08,2.64-86,2.88-129.12s1.8-86.16,4.68-128.88A110.82,110.82,0,0,0,484.32,49Z" transform="translate(-37.73 -39)"/></svg>