<svg id="Layer_1" data-name="Layer 1" xmlns="http://www.w3.org/2000/svg" viewBox="0 0 310.93 211.85"><defs><style>.cls-1{fill-rule:evenodd;}</style></defs><path class="cls-1" d="M312.72,304.92q7,38.88-13,70.68a84.39,84.39,0,0,1-22.44,5.64c-8.52-4.92-12.6-12.48-12-22.8a460,460,0,0,0-1-68.16,132.18,132.18,0,0,0-4.2,33.36c-.12,12.12-.6,24.24-1.68,36.36-1.56,19.92,6.36,32.52,24,37.68a41.35,41.35,0,0,0,13.8-6.36c15.12-10.44,23.16-25.44,24-45.24q.54-16.38,1.8-33.12c.72-9.24-1.68-15.36-7.2-18.6A14.57,14.57,0,0,0,312.72,304.92ZM230.52,193.8a850.32,850.32,0,0,0-7.44,112.68,529,529,0,0,1-3.84,61.8c-3.6-16.68-7.92-33.36-12.84-49.92a1015.92,1015.92,0,0,0-44.52-120l-1.08.12-.12-2.52h-.48a670.13,670.13,0,0,0-7.44,77c-1.8,42.84-2.88,85.68-3.36,128.28a2.15,2.15,0,0,0,2.16,2.16,756.55,756.55,0,0,0,7.8-79.2c1.8-39,2.28-77.4,1.68-115.32A181.74,181.74,0,0,0,172.8,249a677,677,0,0,1,38.52,121.44,103.28,103.28,0,0,0,9.48,26.4,60.07,60.07,0,0,0,2.16,6,2.23,2.23,0,0,0,1.08-1.32,1072.44,1072.44,0,0,0,6.24-111.24A321.21,321.21,0,0,1,231.84,258a273,273,0,0,0-.84-64.2ZM451.8,308.52a350.83,350.83,0,0,1-3.48,64.56c-1.8,12.48-.48,23.28,4.08,32.52a379.23,379.23,0,0,0,7.92-81.48c-.36-43.32-1.92-86-4.44-128.16a724.47,724.47,0,0,0-4.56,87.84,148.41,148.41,0,0,0-38.4,7.68c-.36-32-1.2-63.72-2.52-95.28A321.44,321.44,0,0,0,404.52,272q2.34,64.08-1.08,128.16a3.27,3.27,0,0,0,3.48,2.64,507,507,0,0,0,6.24-78.48L413,304.44a204.55,204.55,0,0,0,38.52-6Zm-83.88-110.4q-18.18,13.5-18.36,36a162.75,162.75,0,0,0,17.28,72.72,222,222,0,0,1,14.64,37.8A41.46,41.46,0,0,1,383.16,358q-.9,27.18-29.16,30.24l-2.52.36L348,386l-14.28-4.44c-2.64,2.64-3.6,6.24-3,10.8a17.93,17.93,0,0,0,2,6.36q26.1,16.74,45.36-7.2A52.08,52.08,0,0,0,390,360.84a96.38,96.38,0,0,0-2.16-27.48,51.64,51.64,0,0,0-7.08-17.4,150,150,0,0,1-23.28-74.64c-.84-22.44,9.24-30.6,30.48-24.36a8.12,8.12,0,0,0,1.56-5,13.9,13.9,0,0,0-2.28-8,8,8,0,0,0-4.08-3.12Z" transform="translate(-149.4 -193.8)"/></svg>