<svg id="Layer_1" data-name="Layer 1" xmlns="http://www.w3.org/2000/svg" viewBox="0 0 482.68 296.35"><defs><style>.cls-1{fill-rule:evenodd;}</style></defs><path class="cls-1" d="M94.44,128.4,93.6,125c-2.76,1.08-4.32,3.36-4.44,7-1.56,42.6-3.48,85.44-5.88,128.28Q79.5,324,73.92,387.12l-.6-.12c-1.32.12-1.32,1.8.24,5.28q-5.4,14,4.32,20.88a565.31,565.31,0,0,0,8-63.24c3-42.6,5.4-85.32,7-128.28a290.73,290.73,0,0,1,3-32.28c.84-5.52,1.32-11,1.68-16.44,1.92,9.36,4.08,18.72,6.48,28q15.84,61.38,32.52,123,10.26,37.8,19,74.76a23.19,23.19,0,0,0,1.92,8.52l2.16,9.24c5.4-5.88,7-13.44,4.8-22.56,1.68-22.32,2.88-44.76,3.6-67.2,1.44-42.84,3.72-85.68,6.84-128.28,1.56-22.08,2.28-43.44,2-64.2-5.16,10.08-8,21.84-8.64,35.16-2,42.84-4.44,85.56-7,128.4-.6,10.8-1,21.6-.84,32.4a393.54,393.54,0,0,1-2,45.24c-1.56-4.8-2.88-9.6-4-14.52-8.88-36.6-18-73-27.48-109.32q-16-61.74-32.28-123.24Zm119.88,6.72a902.16,902.16,0,0,0-7.92,93c-1.44,42.84-3.12,85.92-5.16,129q-1.8,37.26,20.64,64.2c24.6,1.08,42.12-9.84,52.56-32.52A219.61,219.61,0,0,0,294.84,299c.6-42.6.36-85.44-.72-128.28q-.36-18.18-7.92-31.68a6.39,6.39,0,0,0-2.88,4.92c-.24,1.2-1.44,1.68-3.6,1.56l-2.4,3v.84a21.48,21.48,0,0,1,.24,4.8v.48c1.2,0,1.56-.72,1.08-2.28,1.92-2,3.36-1.8,4.32.48q2.7,38,4.68,76.32a467.74,467.74,0,0,1-10.92,128.88q-9.9,43.2-53.28,45.6a10.67,10.67,0,0,1-4-4.92Q206.7,365.64,209,328.08c2.76-42.84,5.16-85.8,7-128.88a540.55,540.55,0,0,0-1.2-64.2ZM522.48,278.76q32.76,34.56,22.44,82.56a31.85,31.85,0,0,1-7,14.28q-22.5,26.82-59.88,26.88.36-57.78,2.52-115.32l10.92-1.8a61,61,0,0,0,22.08-9.84l2,.6Zm-9.84-106.44q27.9,31.32,12.24,72.6a109.43,109.43,0,0,1-43.68,25q2-55.08.36-109.2C493.92,158.88,504.24,162.72,512.64,172.32Zm-19.08-27.48a44.62,44.62,0,0,0-13.8,4l-.36.84a16.63,16.63,0,0,0-.84,6.48,10.29,10.29,0,0,0,.6,3.24c-3.48,35.16-5.64,70.56-6.24,106.32q-1.08,63-3.6,125.4l-.48-2.76h-.36a16.59,16.59,0,0,0,.72,9.72c-2,10.08-.36,17.88,4.8,23.28l1.44-2.76,1.08,2.4A90.32,90.32,0,0,0,520,411.6c21.72-10.44,33.12-28.2,34.2-53a207.61,207.61,0,0,0-5.76-57.36c-4-16.2-12.24-28.08-24.84-35.52a52.21,52.21,0,0,0,7.32-13.8A123.31,123.31,0,0,0,538.56,210q.72-49.86-45-65.28Zm-87.12,1.8a99,99,0,0,0-12.12,34.2l-21,121.56a256.76,256.76,0,0,0-2.16-33c-5.4-41.64-12-82.8-19.56-123.72l-.36-3.84A300.63,300.63,0,0,0,339.6,198.6q-7,63.36-19.44,126.12c-4.2,21-8.88,41.76-13.92,62.52-2.76,11.76-2,22.44,2.16,31.92a359.9,359.9,0,0,0,13.2-56.52q9.54-63.18,20.64-126.12L348,205.44c1.44-7.32,2.52-14.76,3.24-22.08Q359,238.08,365.88,292.8c.84,6.36.24,11.4-1.68,14.88a67,67,0,0,0,7,20q1.08-.72,1.08-1.44l.24-2.88a28.91,28.91,0,0,0,2.76,4.32,11.84,11.84,0,0,0,4.44-8q8.82-63.18,22-125.64a243.19,243.19,0,0,0,4.08-26.88,637.88,637.88,0,0,0,6.36,65.4q9.54,63.18,21.36,125.88a200.05,200.05,0,0,1,3.48,31.44q.54,19.26,11.16,30.6l.36-.84a140.39,140.39,0,0,0-.12-32.52c-3.72-18.12-7.32-36.6-10.56-55.56s-6.24-38-9-57.12q-9-63-22.32-124.2Z" transform="translate(-71.63 -125.04)"/></svg>