<svg id="Layer_1" data-name="Layer 1" xmlns="http://www.w3.org/2000/svg" viewBox="0 0 444.59 381.24"><defs><style>.cls-1{fill-rule:evenodd;}</style></defs><path class="cls-1" d="M296.76,305.52l-6.84,77.16c-2.52,28-15.84,48.12-40,60.24-8.52.6-15-2.76-19.44-9.84-6.48-10.44-9.24-22.08-8.4-34.92a493,493,0,0,0-1.92-93.24c-3,7.92-4.44,17.16-4.08,27.72q1.44,40.14,0,81Q214.86,450.9,250,459.12a51.74,51.74,0,0,0,24.36-14.88,100,100,0,0,0,7.8-15.12A231.66,231.66,0,0,0,298.2,304.68C297.24,304.56,296.76,304.8,296.76,305.52ZM201.84,85.8c-4,9.24-6.12,19.8-6.24,31.92Q194.88,182,192.24,246c-.84,21.6-1.92,43.2-3.12,64.8q-3.24,57.42-7.08,114.12l-8.16-29.52c-6.36-23-12.72-46-19.32-68.88q-17.64-61.74-36.72-123.24-18.9-61.2-36.6-122.4l-1-.84-1-.72V77.88l-.24,1.68c-2.16,2.16-2.64,5-1.56,8.76l.24.72c-4.92,36.36-8.4,73.44-10.44,111.48Q63.9,264.6,62.4,328.8a724.36,724.36,0,0,1-8.52,95.52c-1.8,12-1.08,22.8,2.4,32.4a16.59,16.59,0,0,0,4.92-11q5.58-63.9,7.08-128.28,1.26-56.34,5.76-112,4.5-56,5.16-111.6,10.62,35.64,20.28,71.88Q116.4,228,135.84,289.8q19.08,60.84,32.28,123.36a243.66,243.66,0,0,0,14.16,45.24,51.74,51.74,0,0,0,2.52-17.16,4.77,4.77,0,0,0,1.68-3.24q6.66-63.54,8.88-127.44,1.62-48.42,4.32-96.48Q203.28,149.28,201.84,85.8Zm74.88,19.68a260.79,260.79,0,0,1,18.48,49.2q17.46,65-16,123.72c-4.2,7.56-10.8,11.88-19.68,12.72-13,1.32-21.48-5.16-25.68-19.32A230.66,230.66,0,0,1,225.36,188c.84-10.68,2.16-21.24,4-31.92,4.2-25.8,17.4-44.16,39.84-55h3.24l1.44.36A12,12,0,0,1,276.72,105.48Zm-7.2-17.76c-16.2,4.44-27.36,14.52-33.72,30.12a249.26,249.26,0,0,0-18.24,85.32A197.21,197.21,0,0,0,235.2,293q9.54,20.7,30.24,13.32a21.31,21.31,0,0,0,10.92-8.4Q312.9,243.42,306,176.52c-1.08-10.92-2.76-21.6-4.8-32q-6.66-34-26.28-60A8.53,8.53,0,0,0,269.52,87.72ZM419.4,84.84a161.27,161.27,0,0,0-5.88,33.6q-4.5,63.72-3.36,128.4a814.65,814.65,0,0,1-7.92,128,197.23,197.23,0,0,0-2.16,26.28q-7-35.46-15.48-70.56l-30-124.92q-14.94-62.1-26.28-124L328.2,80l-.12,1.2c-1.08.12-1.68.72-1.56,1.8L327,90.6a409.14,409.14,0,0,0-2.16,54.72c1.2,43.08,1,86-.6,129.12-1.8,43.08-4.2,86.16-7.32,129-.84,10.68-1.8,21.48-3,32.28q-1.62,14.76,5,23.4a26.33,26.33,0,0,0,4.92-15.36q.9-52.74,2.16-105.48,1.62-64.8,4-129.12,1.44-41.94.24-83.4a488.67,488.67,0,0,0,10.2,53.52L370.68,303q14.94,62.1,24.24,125.28c1.8,12.24,5.76,22.32,11.76,30.36l.48-.84a138.33,138.33,0,0,0-.36-33c1.08-6.48,1.8-13.08,2.4-19.68q5.22-63.9,6.12-128.28c.36-21.6,1.08-43.2,2.28-64.8C420,169,421,126.36,420.48,84.48Q419.58,84.3,419.4,84.84ZM461,81.48c-12.84,9.24-19.92,22.32-21.24,39.36a1028.08,1028.08,0,0,0-2.88,118.68,161.24,161.24,0,0,0,8.4,47.4q10.08,29.88,36.72,9c14.4-11.4,18.72-24.36,13.08-39.12a71.42,71.42,0,0,1-24.24,28.32,10.55,10.55,0,0,1-10.08,1.32c-9.72-3.72-14.88-11.16-15.72-22.44q-2.7-36.72-2.16-73.32a58.05,58.05,0,0,0,33.84.36l.6-1c3-5.28,2.76-10.32-.6-15.24a145.74,145.74,0,0,1-33.6,4.32q.54-21.42,2.16-42.84a70.64,70.64,0,0,1,8-27.6c7.44-13.92,16.8-14.28,28-1.08a6,6,0,0,0,1.2-4q-.72-16-16.56-22Z" transform="translate(-52.93 -77.88)"/></svg>