<svg id="Layer_1" data-name="Layer 1" xmlns="http://www.w3.org/2000/svg" viewBox="0 0 406.59 324.31"><defs><style>.cls-1{fill-rule:evenodd;}</style></defs><path class="cls-1" d="M230,130.44a98.87,98.87,0,0,0-9.72,37.92q-3.6,64.44-5.52,129-1.62,48.06-5.4,95.76c-.12,2-.24,4-.24,5.88l-7.32-29.16L170.16,246q-16-62.1-33.24-123.36-1.62-.36-1.8,1.08l-.24,1.08-.36.6Q131.64,156,128,187c-3,26.4-5.16,52.92-6.24,79.68-1.8,42.36-4.44,84.12-8.16,125.16a2.51,2.51,0,0,1-.24-1.56c.12-1.56-.24-2.76-1.2-3.36l-.12.84a17.76,17.76,0,0,0,1.56,10.56l-.24.84a59.55,59.55,0,0,0-.6,28.32,4.93,4.93,0,0,0,2.4,2.52q1.62-.36,1.8-1.08a737.7,737.7,0,0,0,9.84-113.4,864.69,864.69,0,0,1,10.44-127.2,205.23,205.23,0,0,0,2.16-23.88L171,278.16a1182.53,1182.53,0,0,1,27.48,124.08c2,12.12,6.24,22.08,12.48,29.64a19.33,19.33,0,0,0,3-7.32l.36.72a2.14,2.14,0,0,0,1.08-1.44,530.9,530.9,0,0,0,5.4-68q.9-64.62,3.12-129.12a405.74,405.74,0,0,1,6.84-63.84A90.55,90.55,0,0,0,231,130.2,1.55,1.55,0,0,0,230,130.44ZM371.52,160a423.62,423.62,0,0,0,2,47.88,545.74,545.74,0,0,1-2.4,128.28,147.5,147.5,0,0,1-24.36,63.24q-22,32.22-60,24.12a86.48,86.48,0,0,1-13.32-39A644.22,644.22,0,0,1,274,256.32a825.84,825.84,0,0,0,3.36-127.56,63.39,63.39,0,0,0-6.12,25.92c-1.32,41.88-3.6,83.52-6.84,125.16A542.6,542.6,0,0,0,269.64,407a62.89,62.89,0,0,0,8.4,22.8q17.28,28.26,50,9.6a55.11,55.11,0,0,0,15.24-13.08q34-43.38,38.28-99a816,816,0,0,0-.24-128.16,208.6,208.6,0,0,1,0-32.4c1-12.84-1.32-23.4-7-31.44a12.46,12.46,0,0,0-2.88,9.72l-.6.84a19.16,19.16,0,0,0-1.56,11.28l.6.6A3.23,3.23,0,0,1,371.52,160ZM403.2,149.4a456.86,456.86,0,0,0,60.12-.12,30.57,30.57,0,0,0-1,7.68q-1.26,64.44-3,129.12c-1.32,42.6-2.4,85.32-3.48,128.16a3.88,3.88,0,0,1-2.16,3.24l.12.84a12.71,12.71,0,0,0,1.2,4.56c-2.64,7.68-1.2,13.68,4.44,17.88a3.55,3.55,0,0,0,1.56-2.52c3.24-34.92,5.28-70.08,6.36-105.36,1.32-42.84,2.52-85.92,3.36-129.12a461.38,461.38,0,0,0-1.8-55,432,432,0,0,0,46.2-6.48l.72-1c3.12-6.24,2.76-12.12-1.2-17.64q-55.62,7.38-111.48,12.72l-.48.84A15.71,15.71,0,0,0,403.2,149.4Z" transform="translate(-111.38 -122.57)"/></svg>