<svg id="Layer_1" data-name="Layer 1" xmlns="http://www.w3.org/2000/svg" viewBox="0 0 524.85 353.92"><defs><style>.cls-1{fill-rule:evenodd;}</style></defs><path class="cls-1" d="M162,168.6q-.18,48.06-.84,95.76-1.08,65.16-5.52,129.12a216.76,216.76,0,0,1-4.44,32c-2,9.72-1.2,17.76,2.4,24.12a382.21,382.21,0,0,0,8.28-71.16c1.08-42.84,2.28-85.92,3.84-129s1.8-85.92,1.2-128.28A230.64,230.64,0,0,0,162,168.6ZM60.84,118.2l-.48.24.6,3c-1.68,13.68-2.76,28.08-3.12,43.08Q56,228.6,53.16,292.68q-2.88,64.44-10.08,128.16c-1.32,12-.36,22.56,2.88,31.8Q51.9,411.78,54.48,370c2.52-42.6,4.8-85.44,6.84-128.28,1.8-37.56,2.28-75,1.2-112.08,5.64,28.2,12.48,56.16,20.4,84.12l21.24,75.72Q121.44,351.18,137,413.16a88.33,88.33,0,0,1,2.64,15.6c.84,9.72,4.2,16.44,10,20.16a453.24,453.24,0,0,0-18.36-84Q112,304.26,96.12,242.52T62.52,119.88l-.24-.24-.36-6.24-.6,5.28ZM195.6,142.92q2.16,60.3.12,121c-.48,14.28-1.44,28.56-2.76,42.84a299.62,299.62,0,0,0,10.2,111.84q9.9,33.84,45.72,25.2a61.21,61.21,0,0,0,19.56-13.44,115.05,115.05,0,0,0,30.84-57,520.74,520.74,0,0,0,12.36-127.56c-1.08-43.2-3.84-85.92-8-128.28H303a790.65,790.65,0,0,0,1.32,99.6A508.16,508.16,0,0,1,298.08,346a182,182,0,0,1-23,61.56c-7.08,11.88-17.4,19.08-30.84,21.36-25.56,4.44-39.72-6.6-42.48-32.88-.84-7.44-1.32-14.76-1.56-22.08-1.56-42.36-1.68-84.84-.12-127.44a1267.94,1267.94,0,0,0-1.8-128.28A77.51,77.51,0,0,0,195.6,142.92ZM363.12,305.76q-8.82,22.32-33.48,24.48l-2.76.12,4.2-68,22.8,1.08C366,276.24,369.12,290.4,363.12,305.76Zm4.8-32.64c-5.88-13-16-19.8-30.24-20.64l-9.6,5Q318.9,335.28,312.24,414a179.16,179.16,0,0,0-.24,31,477.48,477.48,0,0,0,14.28-106.2l18.84-1.92a489.18,489.18,0,0,0,31,107.64,615.72,615.72,0,0,0-28.56-108.6A33.73,33.73,0,0,0,360.6,325.8a40.9,40.9,0,0,0,6-9.48C374.16,302.16,374.52,287.76,367.92,273.12ZM516.48,271c4.32-6.72,10.32-10,17.88-9.72a47.74,47.74,0,0,1,19.2,4.2l.12-.84c-1.08-10-7.44-15-19.08-14.88-19.8,5.76-30,19.44-30.48,41.16q-.9,46.8-.72,93.36a214.32,214.32,0,0,0,10,63.72c1.56,4.44,4.68,6.36,9.6,5.52q37.44-6.66,44.4-45.24a37.74,37.74,0,0,0-9,10.44c-9.6,16.68-23.28,24-41,21.84a29.31,29.31,0,0,1-5.4-15.36c-1.68-25.32-2.76-50.52-3.24-75.84a77.87,77.87,0,0,0,37.92-5.16l.36-.84c1.68-4.44.84-7.8-2.52-10a166.74,166.74,0,0,1-35.88,7.92q-.36-21.78,0-43.56A49.89,49.89,0,0,1,516.48,271ZM394.68,113l-67.8,4.08-.36,5.76,38.52,1A987.42,987.42,0,0,0,363.6,240a279.07,279.07,0,0,0,5.76-67.8c-.36-10.92-.6-21.84-.72-32.88a107.15,107.15,0,0,0-1.08-12.48l-.6-3,27.48-2.64,1.32-3ZM417,128.52c-11.88,22-13.08,45.24-3.36,69.84a200.76,200.76,0,0,0,24,43.92,327.57,327.57,0,0,1,51.48,109.08c8.76,33.72,3,63.6-17.52,89.64a41,41,0,0,1-25.44,6.84,44.06,44.06,0,0,0-10.92-4,21.28,21.28,0,0,1-10-5Q400.62,416,395,381.48a64.83,64.83,0,0,1-1,8.28,49.28,49.28,0,0,0,1.68,24q12.24,37.44,49.56,47a30.88,30.88,0,0,0,15.84-1.2,31.5,31.5,0,0,0,13.8-9.84q29.88-36.72,21.72-86A274.1,274.1,0,0,0,453,253.44a453.82,453.82,0,0,1-36.24-64.92c-10.44-22.92-7.44-42.84,9.24-59.64,9.6-9.72,20.64-12.12,33-7,13.32,5.52,21,15.24,22.92,29A21.61,21.61,0,0,0,483,138a42.75,42.75,0,0,0-10.8-20.28l-1.68-.84a35.15,35.15,0,0,0-24.6-9.48,51.4,51.4,0,0,0-17.28,7.92A38.46,38.46,0,0,0,417,128.52Z" transform="translate(-42.51 -107.4)"/></svg>