<svg id="Layer_1" data-name="Layer 1" xmlns="http://www.w3.org/2000/svg" viewBox="0 0 312.89 209.4"><defs><style>.cls-1{fill-rule:evenodd;}</style></defs><path class="cls-1" d="M290.52,342.84c4.92,12.36,10.08,24.48,15.6,36.6l-7.68,6.12a47.67,47.67,0,0,1-20.28-1.92,17.42,17.42,0,0,1-4.32-10.2q-1.26-19.26,13-31ZM279,316.68a75.24,75.24,0,0,1,6.12,12.48q-17.46,16.38-16.56,41a56.58,56.58,0,0,0,9,28.92c9.12,3.72,17.64,3.36,25.68-1.2a33.8,33.8,0,0,0,7.44-5.64l6.72,11.16c6.36-5.16,7.2-12.48,2.28-22.2C310.56,363.36,302,345,294,326.4a286.7,286.7,0,0,0-16.92-33.12C273.12,300.36,273.84,308.16,279,316.68ZM238.8,198.12q-4.68,34.56-6.36,70.2-2.7,56-.72,111.24a378.72,378.72,0,0,0-18-60q-22.86-58.86-46.44-117.12l-.6-.84A18.44,18.44,0,0,0,160.2,194a7.7,7.7,0,0,0-2.4,8.16,145.33,145.33,0,0,0-5.4,45.36c1.32,43.2.72,86.16-2,129-.6,9.72,1.08,17.52,5.28,23.28q3.24-36.9,3.72-75.48.54-59.58.36-117.36c11.4,25.68,22.2,51.72,32.16,78a1165,1165,0,0,1,38,118.2c2.76-1.56,4.32-3.6,4.68-6.36l.24-1.08c2.52-22.68,4.2-46,5-69.6q2.16-64.62-.24-128.4C239,197.64,238.8,197.76,238.8,198.12ZM454,284.64l-48,9.48L402.6,235.8A71.24,71.24,0,0,0,399.24,259q.72,71.46,4.2,143.16A4.71,4.71,0,0,0,408,397.2a646.21,646.21,0,0,0-1.44-91.44l48.12-4.92a303.68,303.68,0,0,1,.12,43.08,300.89,300.89,0,0,0,.6,45.36,53,53,0,0,0,2.4,11.16A80.43,80.43,0,0,0,462.72,375q1.08-40.14-.6-80-2-46.44-5.16-93.12a531.7,531.7,0,0,0-3.24,61.8C453.72,270.72,453.84,277.68,454,284.64ZM396.6,201a64.39,64.39,0,0,0-16.68-1.08,595.39,595.39,0,0,1-75.84,4.44,13.94,13.94,0,0,0-1.08,8.88,5.22,5.22,0,0,0,1.2,2.28l1.56,1.8c18.12.6,36.12,1,54,.84a150.76,150.76,0,0,0-1.56,22.68q-.18,64.44-2.88,129c-.6,12.48,1.44,23.16,6.12,31.92a1.48,1.48,0,0,0,1.44-1.56q.54-63.54,3.24-128.28a294.06,294.06,0,0,0-2.76-53.76c14.76-.12,29.52-.48,44.16-1.08a15.67,15.67,0,0,0,1.44-5.76,35.93,35.93,0,0,0-.12-8,4.62,4.62,0,0,0-1.92-3.36l-1.08.84-1.08.84Z" transform="translate(-150.24 -194.04)"/></svg>