<svg id="Layer_1" data-name="Layer 1" xmlns="http://www.w3.org/2000/svg" viewBox="0 0 320.92 312.01"><defs><style>.cls-1{fill-rule:evenodd;}</style></defs><path class="cls-1" d="M252.12,248.52l26.16-110.16L292.2,250.44l-29.28-2.52Zm27.12-123.24a101.59,101.59,0,0,0-.84-13.56,213.18,213.18,0,0,0-10.8,33.36q-12.78,54-27.36,107.52-16.92,62.46-31.92,123.72v-.72a55.64,55.64,0,0,1,.48-17.88l-.48.84a44.85,44.85,0,0,0-.6,21.84l-.24.84a20.6,20.6,0,0,0,.84,17c4.44-.6,7.08-3.48,8.16-8.64q7.2-37.8,17.88-74.64c5.16-17.64,10-35.4,14.52-53.28,14.88,1.92,29.88,3.36,45.12,4.2l.12.84q7.74,63.18,15.6,126L305.16,375a379.18,379.18,0,0,0,7.32,37.32,3.57,3.57,0,0,0,3.48,1.92c3.84-13.08,4.32-27.12,1.56-42.24q-11.52-62.64-19-126.24Q291,181.86,281.64,119A25.91,25.91,0,0,0,279.24,125.28Zm-75.12-13.44a960.22,960.22,0,0,0-9.72,115q-1.44,64.26-4.32,128.28l-.48,5.52-2.4-8.4q-19.62-60.66-37.68-122.52C139.08,193.56,130.2,157,123,120.12c-.24-6-.72-12-1.32-17.88-.48,0-.84.12-1,.48L119,105.48l-.84-.48h-.36l.12,2.76a33.86,33.86,0,0,0-2.52,12.36q-2,64.26-7.32,128.4t-8,125.64a55.24,55.24,0,0,0,2.16,26.76c3.48-.36,5.28-2.4,5.4-6.36,1.08-33.48,2.76-67.08,4.8-100.68q3.78-63.72,9.36-127.44l.84-10.68c1.44,9.12,3.24,18.24,5.28,27.24q14.22,61.74,34.44,122.4a529.76,529.76,0,0,1,16.68,63c2.28,11.4,6.24,21.36,12,29.64a3.7,3.7,0,0,0,.84-1.68c.36-3.72.6-7.56.72-11.28a159.72,159.72,0,0,0,6-39.84L199.92,304q2.34-64.08,5.52-128.28a571.4,571.4,0,0,0-.36-64.2C204.48,111.36,204.24,111.48,204.12,111.84ZM413,345.72a28,28,0,0,0-2.64-5.4l3-.12ZM383.4,125.52a59.32,59.32,0,0,0-33.12,25.92,98.53,98.53,0,0,0-13.44,35.88L330.72,226c-2,12.84-3.6,25.8-4.92,38.88a243.81,243.81,0,0,0-.6,43.92,347.14,347.14,0,0,0,5.64,41.64q5.22,26.28,28.08,34.92c16.2,6.12,30.36,3.12,42.48-8.76a59.26,59.26,0,0,0,8.88-11.4c-3.84,14-1.68,26,6.6,36.24a340.58,340.58,0,0,0,2.28-75.84l-33.6-1.68L379.92,322q-.9,20.7,27.72,18.36L405.48,342c-5.28,18.72-18,28.44-38,29a13.26,13.26,0,0,1-12.72-5.16A96.58,96.58,0,0,1,339.6,340,121.46,121.46,0,0,1,335,325.8a89.19,89.19,0,0,1-2.28-14.88,462.37,462.37,0,0,1,.36-60.48,333.39,333.39,0,0,1,10.44-62c6.84-25.08,22.2-40.68,46.32-46.8a43.44,43.44,0,0,1,24.12.72C412,125.16,401.76,119.52,383.4,125.52Z" transform="translate(-99.36 -102.24)"/></svg>