<svg id="Layer_1" data-name="Layer 1" xmlns="http://www.w3.org/2000/svg" viewBox="0 0 295.23 213.72"><defs><style>.cls-1{fill-rule:evenodd;}</style></defs><path class="cls-1" d="M292.68,356.28c3.24,6.72,6.84,13.32,10.56,19.8l-16.68,6a3.45,3.45,0,0,1-3.6-.48c-9.84-8.52-9.6-17.28.84-26A12.69,12.69,0,0,0,292.68,356.28ZM272,302.88l14.16,39.6-3.72-.72a36.52,36.52,0,0,0-14,21.6c-3,13.8,1.08,23.64,12.36,29.64,7.44,4.08,15.36,4.32,23.76.84a78,78,0,0,0,7.32-3.36l12.84,18.84a24.37,24.37,0,0,0,1.56-18.6,31.23,31.23,0,0,0-5.88-11.16l-.48-8.16-5.28.48L275.4,300.36ZM217.44,197q-4.5,51.84-5.64,104.64A323.53,323.53,0,0,1,204,365.4l-.24,1.32L202.08,360c-4-13.2-7.2-26.4-9.84-39.6q-13-62.46-31.44-122.52l-.12-2.28-.48.12-.48,3.12c-2.88,4-3.48,8.88-1.8,14.88q-3.24,29-4.32,59-2.34,64.62-2.28,128.16,1.26,0,1.44-.36a134.64,134.64,0,0,0,6.12-37c.36-13.08,1-26.28,1.68-39.6,1.8-32,2.28-64,1.44-95.52,10,36.36,19,72.84,27.24,109.68a321.76,321.76,0,0,1,5.28,31.92c1.32,12,4.92,21.84,10.92,29.52l.48-4.92,1.32,2.76a489.24,489.24,0,0,0,9.84-72.24A1203,1203,0,0,0,217.8,197Zm137,13.44A1115.5,1115.5,0,0,1,376,326.4c2,15.72,3.6,31.44,4.44,47.4.6,11.88,3.6,21.84,9.24,30.12a2.78,2.78,0,0,0,1.8-1.68,32,32,0,0,0,1.92-8.88,168.84,168.84,0,0,0,9-27.6q14.58-61.92,34-122.76c1.68-5.16,3.48-10.2,5.4-15,4.44-11.4,5.76-21.72,4.2-31a15.44,15.44,0,0,0-3.72,5.88q-21.6,60.3-39.12,122.64-4.32,15.3-10.08,30.24a96.72,96.72,0,0,0-4,13.2c-4.56-30.6-9.6-61.32-15.12-91.92a421.47,421.47,0,0,1-6-47.52c-.84-12.24-4.8-22.32-11.88-30.12a3.17,3.17,0,0,0-1.92,2.16A14.08,14.08,0,0,0,354.48,210.48Z" transform="translate(-151.32 -195.6)"/></svg>