<svg id="Layer_1" data-name="Layer 1" xmlns="http://www.w3.org/2000/svg" viewBox="0 0 429.95 410.76"><defs><style>.cls-1{fill-rule:evenodd;}</style></defs><path class="cls-1" d="M95.52,92A701.2,701.2,0,0,0,83,176.88c-3.6,42.6-6.84,85.44-9.6,128.28q-4.32,63.72-9.24,127.56A62.29,62.29,0,0,1,62,444.36c-3.48,12.24-2.28,22.56,3.72,31.08Q73,432.06,76.08,387c3-42.6,5.64-85.44,8.16-128.28,2.52-42.6,6.48-85.08,11.64-127.32l1.68-17.64q3.78,36.36,8,72.6,7.74,63.18,19.32,125.64a813.61,813.61,0,0,1,13.56,126.6c.36,12.12,3.24,22.68,8.64,31.44a1.9,1.9,0,0,0,1.56-1.92l-.12-3.48.24.24q9.36-60.66,13.08-123.36,3.78-63.9,5.52-128.28c.6-21.72,1.44-43.32,2.52-64.92,1.2-21.84,1.68-43.2,1.32-64.2a39,39,0,0,0-6.72,21c-2.28,42.6-4,85.32-5.16,128.4-1.08,42.84-3.24,85.68-6.36,128.28-1.56,20.52-3.72,41-6.6,61.32l-2.16-24q-3.06-32.22-8.88-63.84Q123.84,272.46,116.28,209q-7.74-63.9-18.6-126.48c-2,.84-2.88,2.64-2.64,5.4Zm184.92.12q-10.8,34.92-18.36,71.16Q250,220.38,234.36,277.08h-.12v.24l-3,10.68q-17.46,61.56-29.64,124.08a184.08,184.08,0,0,1-8.88,31.08c-4.68,12.36-4.44,22.68.72,31.2a635.42,635.42,0,0,0,18.36-74q10.8-57.42,26.52-114.12a387.31,387.31,0,0,0,61.08,1.56l4.32,38q7.74,63.54,13.32,127.08l-3.24-5.4a55.79,55.79,0,0,1,4,22c-.12,9.24,2.64,16.2,8,20.88A37.86,37.86,0,0,0,329,469q-7.92-63.36-16.2-126.6l-7-55h1a10.35,10.35,0,0,0,2.52-6.48,10.6,10.6,0,0,0-.24-3.36,6,6,0,0,0-1-2.4l-1.08-1.56a1.35,1.35,0,0,0-1.32-.36l-1.56.12q-3.42-29-6.48-58c-4.44-42.6-8.4-85.08-11.76-127.68A163.24,163.24,0,0,0,283.8,142q3.42,28.44,6.12,56.88,3.78,37.62,7.92,75a184,184,0,0,1-37.08-1.92l-18.84,1.44q17.1-60.3,30.36-121.44,7-31.68,11.52-62.4A3.15,3.15,0,0,0,280.44,92.16Zm90.12-2-.36,2.4.12,1.92c-2.88,7.8-4.08,16.56-3.72,26.52q2,48.24,0,95.76c-1.8,42.84-2.64,85.8-2.64,129.12,0,43.08-1.44,86.16-4.2,129-.48,7.56,1.68,12.36,6.36,14.64a36.89,36.89,0,0,0,3.36-14.64c1.32-42.84,1.8-85.92,1.68-129q-.18-37.8.36-75.48c5.28,6.48,13.56,7.32,24.84,2.4l.72-1.68a13.25,13.25,0,0,0-.72-11.28l-.84-.6-2.64-.48-21.24,1.8,1.2-43.8q2.16-59.94.36-119.16a199.08,199.08,0,0,1,41.88,5.76l.24-.72a13.45,13.45,0,0,0,.84-8.16,6.77,6.77,0,0,0-3.24-4.92l-3.48-.84a106.62,106.62,0,0,0-18.72-4.56l-5.76.36a44.62,44.62,0,0,0-13.8,4Zm77.88,3.24q-2.34,54.9-5.4,109.56c-1.32,22.2-2.4,44.52-3.36,66.72v.12a10.81,10.81,0,0,0-.24,6.72l-2,55.56q-1.44,47.88-3.72,95.76c-.48,10.8-1.32,21.6-2.64,32.28-1.44,12.6.12,23,4.8,31.56a13.79,13.79,0,0,0,3-8c.84-17.52,1.56-35.16,2-52.8l2.64-87.72c.6-21.12,1.32-42.24,2.16-63.24a77.88,77.88,0,0,0,27-3.84l.6-1c2.76-5.16,2.4-10-.84-14.4a176.56,176.56,0,0,0-26.16,6.24c.84-17.64,1.68-35.28,2.76-52.8q3.78-59.76,2.28-119.64a138.81,138.81,0,0,1,36.48,4.32,7.36,7.36,0,0,0,2-4.08,14.92,14.92,0,0,0-.12-5.64,9.7,9.7,0,0,0-1.32-3.24,1.39,1.39,0,0,0-.84-.6,119.14,119.14,0,0,0-24.36-4.32l-13.56.84A5.43,5.43,0,0,0,448,85.56a29.18,29.18,0,0,0-.24,5.64A5.74,5.74,0,0,0,448.44,93.36Z" transform="translate(-60.11 -80.88)"/></svg>