<svg id="Layer_1" data-name="Layer 1" xmlns="http://www.w3.org/2000/svg" viewBox="0 0 302.24 215.88"><defs><style>.cls-1{fill-rule:evenodd;}</style></defs><path class="cls-1" d="M287.88,343.08l7.56,1.56,12.84,29.76a24.65,24.65,0,0,1-15.72,5,27.41,27.41,0,0,1-13.08-3.6L276,366.12,285.12,345Zm-12-48.84.24,11.64,4.68.36,2.76,2.52,6.12,19.8-1.8-.12q-31.32,28.8-7.44,64.68L283,396.6c12.12,3,22.44-.24,30.72-9.48l12.12,19.56q3.6-36.18-20.76-71.4a59.81,59.81,0,0,1-9-19.68,47.45,47.45,0,0,0-14.64-24.12ZM234,194.88a836.09,836.09,0,0,0-12,181.2q-25.74-77.58-54.84-153.84a134.21,134.21,0,0,0-9-18.72l-.72-9.24-3.12,2.88C149.4,227.52,148,261.72,150,299.52c.6,12.24,1.2,24.36,1.56,36.48.12,6,0,12.12-.48,18.24-.84,11-1.92,22-3,32.88a42.42,42.42,0,0,0,4,23,182.52,182.52,0,0,0,7.08-64.56c-1.08-18.36-1.68-36.72-1.56-55.08.12-16.08.36-32.16.84-48.24l.48-17.52,62.88,173a8.75,8.75,0,0,0,3,4A955,955,0,0,0,235.2,242.64l-.72-32ZM443.16,303.24a309.24,309.24,0,0,1-9.48,80.4c-2.88,2.28-6.12,2.64-9.72,1.32a60.19,60.19,0,0,0-15.12-9.36,18.31,18.31,0,0,0-.6,17.76l15.48,10.56c4,.84,7.08-.24,9.36-3.36,10.56-14.76,16-31.92,16.32-51.48s0-38.52-.84-56.88C444.84,294.48,443,298.2,443.16,303.24Zm4.32-64.8-.6.12c-5.88,11.16-5.88,20.88.12,29l.36-.84A39.09,39.09,0,0,0,447.48,238.44ZM444,197.76l-27.36-2.16q-38.34,3.78-76,8.4a9,9,0,0,0-1.44,4.92v1.56a10.11,10.11,0,0,0,.48,3.24l.6,1.68a3.83,3.83,0,0,0,3.24,1.2l42-3a113.44,113.44,0,0,0-2.4,26.16,1237.08,1237.08,0,0,1-5.28,128.16c-1.2,12.12.24,22.8,4.2,32.28.84-.48,1.44-1,1.56-1.56a223.31,223.31,0,0,0,3.6-31.32q3.24-63.9,2.16-127.56l.12-.84a116,116,0,0,0,1.08-25.68c19-.84,37.8-1,56.64-.6a14.09,14.09,0,0,0,1.92-7.2l-.36-3.24a5.76,5.76,0,0,0-2.4-4.08Z" transform="translate(-147.83 -194.28)"/></svg>