<svg id="Layer_1" data-name="Layer 1" xmlns="http://www.w3.org/2000/svg" viewBox="0 0 569.45 502.08"><defs><style>.cls-1{fill-rule:evenodd;}</style></defs><path class="cls-1" d="M30.48,313.68a8.06,8.06,0,0,1,.36,2.76c0,4.44-1.2,18.6-3.48,42.6,3.24-5.76,8-13.32,14.52-22.8C52.32,321,60,310.2,65.16,304l1.08,2a9.36,9.36,0,0,1,.36,2.88c0,.84-6.12,10.08-18.24,28l-1,1.32c1.56,5.16,5.76,18.48,12.84,40.08C68,401.88,72,415.44,72,419l-.24,3.24a10.58,10.58,0,0,1-1.08,2.4c-4.56-8.4-10.2-23.88-16.92-46.56-5.88-20.16-8.88-31.44-8.88-33.84l.24-2.64q-14,20.7-19.08,31C23.64,397,22,412.08,20.88,418c-.12,0-.36.12-.48.48a1.6,1.6,0,0,0-.36.84,7.13,7.13,0,0,1-1.8-3.24,18.57,18.57,0,0,1-.36-4c0-5.52.84-13.8,2.52-25l2.16-14.88-.12-1.56a5.45,5.45,0,0,1,.48-2.16l.36-7.2c-.36-11.52-.48-20-.24-25.68q.72-14.94,6.48-24.12Zm48-136.56c1.32,2,1.92,3.6,1.92,4.44a9.36,9.36,0,0,1-.36,2.88l-1.32,2-1.32.24a2.75,2.75,0,0,1-.48-2v-1.8c-.36-1.2-2.4-1.8-6.24-1.8q-32,0-46.08,33.72A110.85,110.85,0,0,0,18,238.92a85.92,85.92,0,0,0-1.2,12.72l-.48,8a46.12,46.12,0,0,0,1.8,13.44c3.72,12.36,13.2,18.48,28.2,18.48,11.16,0,18.48-2.52,22.2-7.44a17,17,0,0,0,2.28-4.92c.12-6.12.48-13,1.2-20.4l-7.2.24-3.12.24-11.4-.24-2.4-2.28a2.21,2.21,0,0,1-.48-1.56,5.8,5.8,0,0,1-.12-1.92c.12-.6.84-1,2.16-1.2l23.64-2.28c1,1,1.68,3,2,6.12l.12,5.28-.72,18.36c-.6,11.88-1.08,21.24-1.68,28a99.72,99.72,0,0,1-2.16-20.88L69,289.92c-4.08,7.56-9.24,11.4-15.48,11.4-21,0-34-8.16-38.88-24.36a48,48,0,0,1-1.92-17l.84-8.52c0-22.44,5.4-41.4,16.2-56.64Q47.22,169.92,75,172.32A24.93,24.93,0,0,1,78.48,177.12Zm224.4-88.2q-5.4,44.1-24.48,172.92l-4.68,31.32,9.72-.84,19.44-.48v-.6c9.6-.84,16.56-.24,20.76,1.56q-8.1-53.46-13.32-101.52C305.4,147.48,303,113.28,302.88,88.92ZM231.6,41.64,232,44.4q0,30.06-2.76,74.76l-4.92,74.64V306.48c-.48,9.24-1.08,23-1.68,41.4a380.17,380.17,0,0,1-3.72,41.4v72.24c-.36,3.24-.48,8.64-.6,16.2a133.47,133.47,0,0,1-.72,16.2l-.24,16c-.12,6.36-1.32,11.4-3.6,15.24V525a18.82,18.82,0,0,1-2.16,5.76q-13.32-43-28.2-122.88c-5.64-29.88-9.6-50.4-11.88-61.8q-7.2-34.56-14.76-61.56c-5.16-18.24-10-38.64-14.16-61.08-3-16.68-6.36-37.44-10-62.16-1.8-12.36-6-36.6-12.72-72.48l-6.36-34.92Q112.44,94.74,100.32,274,87.18,467.1,81.48,528.6a6.46,6.46,0,0,1-3.36-3.6l-.24-3.24q0-30.06,13.8-227.16,13.14-185.22,19.56-254.52L111,37.92q0-3.78,1.8-4.32,15.48,45,27.48,121.56L150,216.48c4,23.4,8,43.92,12.36,61.32q11,44.46,31.2,140c9,42.6,15.12,72.12,18.12,88.68l.6-14,1.8-38.88V382.2c1.2-9.36,2.16-22.92,3-40.56.84-19.56,1.56-33.36,2.4-41.4v-112l4.92-74.76c2-29.64,4.2-54.12,6.48-73.2Zm71,7,.6-5.88A132.13,132.13,0,0,1,304.8,57L305,67.08l-.24,4.68,7.68,90.36c4.2,47.16,9,86.52,14.52,118.32q6.12,35.82,28.32,140.16,19.8,93.24,19.8,97a15.09,15.09,0,0,1-.6,4c-.6,2-1.56,3.48-2.88,4.08-5.76-13.8-12.72-40-20.88-78.24q-11.34-54.18-22.44-123.84l-2.64-17.28-2.76,1.8-51.48-.24q-23,152.82-36.6,224.88c-1.56-1.8-2.4-4.56-2.4-8.28q0-6.3,9.36-66.12L263.16,323q28.26-179.1,37.56-257.4c-.84-9.24-1.32-14.88-1.32-17a6.14,6.14,0,0,1,1-3.36,4,4,0,0,1,1.8-1.68Zm94.2,365.76-2.16-1.68a63.42,63.42,0,0,1,.48,9c0,4.92-1.08,16.08-3.24,33.6l.12-.12,6.72-3.6a1.05,1.05,0,0,1,.72-.84l.24.24.84-.48c8.28-4.68,12.48-9.84,12.48-15.6s-3.24-11-9.6-16Zm-3-3.24c0-3.24,1.08-4.56,3.36-4.08s4.68,2.16,7.68,5.16a51.51,51.51,0,0,1,7.44,10.68c2.28,4.44,3.48,8.52,3.48,12a55.6,55.6,0,0,1-.48,9.48,11.21,11.21,0,0,1-2.88,6.12c-1.08,1.2-4.44,3.48-10,7,3.12,7.56,7.2,18.36,12.12,32.4,6.72,18.84,10.08,29.4,10.08,31.44l-.24,3.24L424,525l-1,.84c-3.72-6.36-8.88-19.32-15.6-38.88-4.44-13.08-7.32-22.08-8.64-27.12l-7.92,4.68-1.92,14.16-6.48,46.08h-1.32a16.81,16.81,0,0,1-.72-3.36l-.12-3.48c0-4.2,1.92-21,5.76-50.16,2.52-19.08,5.16-37.92,7.8-56.4ZM360.36,303.36a22.88,22.88,0,0,1,13.2-5,23.11,23.11,0,0,1,12,2c3.48,1.68,5.28,3.72,5.28,6.12l-.24,3.24.36.48c.12.36-.36.6-1.44.6L384,308.64c-3.72-1.44-6.12-2.16-7.44-2.16-10.92,0-18.36,7.56-22.44,22.68a98.32,98.32,0,0,0-3,25.56,94.39,94.39,0,0,0,2.64,23.16c3.48,13.92,9.72,20.88,18.48,20.88,7.8,0,13.32-1.56,16.56-4.8l2.88-3.84a12,12,0,0,1,2.4-3h1.08a19.93,19.93,0,0,1-2.76,11c-2.28,4-6,7.32-11,10-14.28,5.64-24.12-.84-29.52-19.68-2.64-9.36-4-20.64-4-33.72,0-1.56.48-7.32,1.56-17.28,1.08-10.2,1.8-16.56,2.16-18.84C353,312,355.92,307,360.36,303.36ZM471.84,302l.24,2.64c0,1.32-3.12,10-9.36,26-7.32,18.84-11.64,30.12-12.84,33.6l-5.64,19.08,2.28,33c1,15.72,2,28,3.36,37,.24,2,2.52,13.32,6.84,33.72,4.08,20.76,6.12,34.08,6.12,40.2l-.24,4.8-.6.48-1.08,1q-10.08-45.18-13.32-64.8a381.75,381.75,0,0,1-5.88-64.08l.24-13.08-.6,1.68a198.54,198.54,0,0,1-9.24,27q-2.88,56.34-6.36,92.16l-1.08.24c-.84-3.24-1.32-8.28-1.32-15,0-8,.48-26.28,1.56-55,1.08-27,1.68-41.88,1.92-44.52,1.32-12.12,2.4-28.68,3.24-49.56l.84-25.92q.9-14.58,3.24-23c.84,2.76,1.32,7.2,1.32,13.44q0,36.54-2.52,91.56c2.52-9,7-22.56,13.08-40.44,10.92-32,19.32-53.28,25-64Zm-77.52-135.6-.24,2.76-.84,1.8-4.08.36c-2.76.24-4.32.48-4.56.72l-7.32.36-7.8.72-10.08,1c.24,2.52.36,5.64.36,9.24,0,10.68-.84,25.8-2.64,45.36-1.8,21.24-2.88,37-3.12,47.4l-.6.48-1.2.6a196.37,196.37,0,0,1-1.08-23.88c0-19.44.72-33.84,2.16-43.32.48-3,1.2-10.2,2.16-21.36.6-5.64,1.2-10.44,1.8-14.28-3.84.36-5.88.72-6.12,1l-12.72,1.2-8.4.72-8.16-.24-3-3a3.11,3.11,0,0,1-1.08-2q0-4.86,2.16-4.68l3,.72,4.2.6,12.6.48a22.24,22.24,0,0,0,11.88-3.48l38.76-3.36c2.28-.12,3.48,0,3.84.6ZM373.32,78c0-7.8-2.16-14-6.6-18.6-5.88-6.24-16.2-10.08-30.84-11.52q-.18,22.86-2.16,56.16c1-.48,2.16-1.08,3.48-1.68,2.76-1.08,7.56-3,14.64-5.52C366.12,91.2,373.32,84.84,373.32,78Zm1.2,7.56a51.46,51.46,0,0,1-6.84,11.28c-8.16,10-18.36,14.88-30.72,14.88l-3.72-.12c-1.56,23.16-3.12,40.08-4.92,50.52a11.23,11.23,0,0,1-2.64-3.36,4.49,4.49,0,0,1-.6-1.8c0-16,1-36.84,2.88-62.76C329.64,71,331.44,55,333.24,45.84V44.16a3.65,3.65,0,0,1,1.2-3l.12-.6.24.36a8,8,0,0,1,5.28-1.2c4.44.12,9.36,1.8,15,4.92A45.26,45.26,0,0,1,370,57.84,33.51,33.51,0,0,1,376.8,78C376.8,79.68,376.08,82.2,374.52,85.56ZM567.6,85A63.71,63.71,0,0,0,561.24,68c-5.16-9.24-12.48-13.92-21.84-13.92q-40,0-55.2,25c-6.84,11.16-10.32,27.72-10.32,49.44q0,31.68,16.92,61.32A265.84,265.84,0,0,0,508.08,216l19.68,27.6q25,35.82,37.08,71.16,16.74,49,16.8,113.64l.36,15.84c.12,4.92.12,8.88-.12,11.76-.6,7.2-3.48,17.64-8.64,31.2-.72,2-3.36,5.76-8,10.92a205.06,205.06,0,0,1-16.08,16.32c-15.48,14.16-27.24,21.24-35.16,21.24-14.28,0-25.08-5.28-32.4-15.72a43.18,43.18,0,0,1-5.64-11.28,21.3,21.3,0,0,1-1.44-5.76,39.67,39.67,0,0,1,1.08-6,36.11,36.11,0,0,0,1.08-7.08h.84A35.72,35.72,0,0,0,478.8,496a56.3,56.3,0,0,0,4.2,10.32c4.92,9.24,10.92,13.92,18,13.92q43.74,0,62.52-33.84c8.52-15.24,12.72-34.56,12.72-58,0-40-5.52-75.24-16.68-106.08-7.8-21.48-19.92-44.4-36.6-68.76l-19.68-28.08a280,280,0,0,1-17-28.2,147.66,147.66,0,0,1-16.68-68.76q0-37.8,15.72-61.08,13.5-20,34.56-24.84c12.84-3,24.36-1.2,34.44,5.4C564.72,54.84,570,64.56,570,77.4a19,19,0,0,1-1.32,7.32Z" transform="translate(-12.63 -33.6)"/></svg>