<svg id="Layer_1" data-name="Layer 1" xmlns="http://www.w3.org/2000/svg" viewBox="0 0 310.11 207.24"><defs><style>.cls-1{fill-rule:evenodd;}</style></defs><path class="cls-1" d="M283.8,344.16l20.64,35.64a36.09,36.09,0,0,1-12.84,2.64l-9.84-.84-3.36-1-3.84-6.48a51.7,51.7,0,0,1,3.36-20.76l2-5.16Zm30,27a547.87,547.87,0,0,1-40.56-76c-2.28,10.08-.48,21.36,5.4,33.72l1.8,4.2q-21.42,26.82-5,57.72a54.41,54.41,0,0,0,4.08,6.6,40.46,40.46,0,0,0,31-4.2l1.44-1,7.32,11.64c4.56-8.16,4.92-17,1.08-26.52a29,29,0,0,0-4.56-7.8ZM159.6,198.84a2.49,2.49,0,0,0-1.2-.72l-1.56.12q-7.2,76.14-6.84,154a59.06,59.06,0,0,1-.48,8l-.84,8-.24,4.56.12,8.52a50.53,50.53,0,0,0,4.56,18.84,1570.34,1570.34,0,0,0,8.16-172,822.18,822.18,0,0,0,58.44,170.52l1.56-3.48.12-.6.48.6a1056.56,1056.56,0,0,0,8.88-197.76,1709.39,1709.39,0,0,0-12.24,185.4l-58.68-181.8ZM370.08,204l.36-6.48-.6.36c-7.56,38.76-13.08,77.88-16.8,117.6A476.53,476.53,0,0,1,342.6,379.2c-2.28,9.6-1.2,17.28,3.48,22.92a584.25,584.25,0,0,0,13.8-77.88q4.86-44.46,8-88.2c.36,2.88.84,5.76,1.44,8.76Q377.1,281.7,381.6,319a86.58,86.58,0,0,0,8.76,29l.36,1.8.24-.72.24.48a6,6,0,0,0,2.16-3.24,42.86,42.86,0,0,0,.84-6.72,320.41,320.41,0,0,0,11.16-46.2,244.56,244.56,0,0,1,8-33.6,200.1,200.1,0,0,0,8.4-43.32A116.88,116.88,0,0,0,427,251.76a565.49,565.49,0,0,1,23.16,124.68c.72,9.72,3.24,17.16,7.68,22.32a268.34,268.34,0,0,0-4.44-72.36q-12.42-62.82-29.64-124c-.6.12-.84.24-.84.36l-.48,4.92v-11A494.13,494.13,0,0,0,407,248.52c-4.44,18.12-9,36.12-13.8,54-1.08,4.2-2,8.4-2.76,12.6q-11.88-56.16-20-112.44Z" transform="translate(-148.44 -196.68)"/></svg>