<svg id="Layer_1" data-name="Layer 1" xmlns="http://www.w3.org/2000/svg" viewBox="0 0 301.65 207"><defs><style>.cls-1{fill-rule:evenodd;}</style></defs><path class="cls-1" d="M274.56,354.6c-3,16.92-.48,32.28,7.32,45.84A39.74,39.74,0,0,0,295,401.52q14.58-10.08,10.44-25.92c-5.64,8.28-13.08,11.16-22.44,8.64a48.58,48.58,0,0,1-2.52-22.08c2.16-21,3.24-41.52,3.36-61.56a100.54,100.54,0,0,0-7.08,33.24A148.41,148.41,0,0,1,274.56,354.6Zm11.16-71.28a15.72,15.72,0,0,0,4.92-14.4q-.54-4.5-3.24-6.12-8.28,8.28-2.88,18.72Zm-126-84.6-.12-2c-.6-.12-.84,0-1,.36a748.4,748.4,0,0,0-6.36,75.84q-2.34,64.44-5,128.4a2.32,2.32,0,0,0,2.16,2.16A501.45,501.45,0,0,0,158.52,325q2.34-55.26,1.56-109.44Q181,275.64,196,338a444.92,444.92,0,0,0,18.84,59.64l.72-.84.36.6.36-2,.24-1.32c5.16-32.28,8.88-65.28,10.92-98.88.72-10.8,1.8-21.6,3.12-32.28a296.48,296.48,0,0,0,1.32-64.32,968.82,968.82,0,0,0-12.12,103.08,630.2,630.2,0,0,1-7.56,63.84c-3-15.72-6.6-31.44-10.92-46.92q-17.46-61.92-40.8-121.32Zm255,182.52-9.12-7.32c-3.72,10.2-.72,17.52,9.12,22,16.92,3.6,25.32-5.28,25.2-26.76,0-15.72-.6-31.56-1.8-47.28-.72-9.12-1.32-18.24-1.68-27.48-2.28,29.16-5.16,58.2-8.4,86.88ZM439.44,259c-4.32,4-5.28,8.64-2.76,14,5.76-2,8-6,6.72-11.88a2.08,2.08,0,0,0-1.44-1.56Zm7-62.52c-33.72.12-67.44,1-101.16,2.76l-1.68,1.56-.24.84a10.22,10.22,0,0,0,1.32,9.72l44.64-.24a815.55,815.55,0,0,0-10.92,96.84,454.71,454.71,0,0,1-7.8,63.84c-2.28,12.24-1.08,22.56,3.6,30.84a22.64,22.64,0,0,0,3.6-10.56q5.94-63.36,11.52-127.32c1.56-18.12,2.16-36,1.92-53.64l55.56-.84.6-1A11.43,11.43,0,0,0,446.4,196.44Z" transform="translate(-147.24 -196.44)"/></svg>