<svg id="Layer_1" data-name="Layer 1" xmlns="http://www.w3.org/2000/svg" viewBox="0 0 287.5 338.42"><defs><style>.cls-1{fill-rule:evenodd;}</style></defs><path class="cls-1" d="M292.68,135.84q-3.42,43-5,86.76-2.52,64.08-4.08,128.4a643.54,643.54,0,0,1-5,64.68c-1.56,12.6,0,23,4.8,31.56v-.6l.72,1.2a320.15,320.15,0,0,0,93.36,1.08l.72-1c3.12-5.76,2.76-11.16-1-16.08l-44.88,2.76-9.6-.6c-13.56-2.28-26-1.68-37.68,1.8a362.44,362.44,0,0,0,3.24-48.72q.54-64.62,4.44-128.28c2.76-43.32,3.84-86,3-128.16C293.88,131.64,292.92,133.32,292.68,135.84Zm-42.12,36c-.24,14.88-.84,29.76-1.92,44.52q-4,55.8-5.52,112.2c-.84,32-3.36,64-7.32,95.52-1.32,10.2.48,18,5.52,23.4A306.92,306.92,0,0,0,247.56,385q-.18-64.62,5-128.28,5.22-64.8,4.44-128.16A144.57,144.57,0,0,0,250.56,171.84ZM211.68,124c-5.16,41.88-8.4,84.36-9.72,127.2-1.32,42.6-2.4,85.32-3.48,128.16a206.66,206.66,0,0,1-3.12,31.2l-25.2-101.4c-5.88-23.16-11.88-46.2-18.24-69.24q-16.2-58.86-31.2-117.36l-.12-9.12c-4,5.16-6,11.64-6.12,19.68q-1.26,64.62-8.88,128.52-7.38,63.18-9.12,127.2a222.76,222.76,0,0,1-3.12,32.28c-1.68,9.84,0,17.64,4.92,23.52a383.27,383.27,0,0,0,7.08-75.48,950.85,950.85,0,0,1,7.92-128.4,913.68,913.68,0,0,0,7.32-98.4l6.72,26.88c8,30.84,15.48,62,22.44,93.36q13.86,62.1,31,123.72a248.44,248.44,0,0,1,6.6,31.2c1.68,11.64,5.4,21.48,11.28,29.76a15.61,15.61,0,0,0,2.4-13.68l-.6-2.76q6.48-56.7,7.56-114.72,1.26-64.26,4.08-128.28c1.08-22.08,1.2-43.44.6-64.08C212,123.6,211.8,123.6,211.68,124Z" transform="translate(-92.73 -113.4)"/></svg>