<svg id="Layer_1" data-name="Layer 1" xmlns="http://www.w3.org/2000/svg" viewBox="0 0 230.26 210.96"><defs><style>.cls-1{fill-rule:evenodd;}</style></defs><path class="cls-1" d="M180.48,198.36a663.46,663.46,0,0,0-5.88,71.4q-2,64.44-7.08,128.28.54,2.88,3.24,2.16a534.45,534.45,0,0,0,9-73.8q3.6-65,1.32-128.28C180.72,198.24,180.48,198.24,180.48,198.36Zm2.16-3.24a161.71,161.71,0,0,0,12.6,43,392.43,392.43,0,0,0,19.08,37.44,388.14,388.14,0,0,1,20.52,42,308.16,308.16,0,0,1,14.64,44.64A155.62,155.62,0,0,0,267,405a13.09,13.09,0,0,0,3.12-7.08c5.16-40.92,9-81.84,11.28-123,1.56-26.52,1.92-53,1.32-79.56a368.51,368.51,0,0,0-8.64,63q-2.7,56-10.08,111.36l-.24,2.52a633.17,633.17,0,0,0-37.32-92.4c-14.4-28.92-28.32-57.6-41.64-85.8Zm190.68,181.8a185.78,185.78,0,0,1,1.08-20.16,320.52,320.52,0,0,0,1.44-58.56,216.41,216.41,0,0,0-10.2,58.08,94.44,94.44,0,0,0,4.92,35.52c1.44,4.2,4.08,5.52,8,4,14.52-5.64,20.76-15.36,18.84-28.92a115.55,115.55,0,0,1-20.76,13.8A6.81,6.81,0,0,1,373.32,376.92Zm4.44-124.44-.84.72c-6.12,10.08-5.88,19.68.84,28.8a4,4,0,0,0,1.92-1.8,30.18,30.18,0,0,0,1.56-26.64l-.84-.6Z" transform="translate(-167.52 -194.04)"/></svg>