<svg id="Layer_1" data-name="Layer 1" xmlns="http://www.w3.org/2000/svg" viewBox="0 0 427.26 393.68"><defs><style>.cls-1{fill-rule:evenodd;}</style></defs><path class="cls-1" d="M256,247.08a1270.35,1270.35,0,0,0-.24-128.28c-2.28,31.8-3.84,64.44-4.92,97.68L247.2,345.6l-3.48,128.16c.6,2,1.8,2.76,3.84,2.16a207.43,207.43,0,0,0,3.6-34.92q.9-64.62,2.4-129C254.16,290.28,254.88,268.68,256,247.08Zm82.44,38.64c17.88,19.32,28.08,42.48,30.84,69.36a156.63,156.63,0,0,1-11.76,78.36c-11.64,27.6-32.4,38.64-62,33.24a1.61,1.61,0,0,1-.72-.84,3.47,3.47,0,0,0-1.92-2.16A678.14,678.14,0,0,0,298.2,375q-.18-43,.84-86c11.16-.36,20.52-5,27.84-13.8l.36-.48C331.08,278.16,334.8,281.88,338.4,285.72ZM83.64,164.64q-5,63.9-7.44,128.4T66.36,421.2c-1.32,10.8-2.88,21.6-4.8,32.28-1.68,9.6-1,17.4,2,23.52a809.17,809.17,0,0,0,13-111.24c2-42.84,4.92-85.44,8.4-128,3.48-42.84,5.64-85.44,6.24-127.56A476.77,476.77,0,0,0,83.64,164.64Zm18.24,6.12q18.72,61.38,38.28,123.36a960,960,0,0,1,30,122.52,504.21,504.21,0,0,0,14.28,60.6,2.51,2.51,0,0,0,1-2.28,737.27,737.27,0,0,0-21.48-122.64q-16-61.38-37-122.64A1179.94,1179.94,0,0,1,92.28,107.16C92,127.92,95.28,149,101.88,170.76ZM350.4,211.2a72,72,0,0,1-16.2,42,67.28,67.28,0,0,1-34.8,22.92l6-153.6,17.16,9q16.56,12.78,22.68,33.84A131.57,131.57,0,0,1,350.4,211.2Zm-147-95.4a152.3,152.3,0,0,0-4.08,29.52l-6.6,128.16q-3.06,64.44-8.88,128.28A275.2,275.2,0,0,0,185,465.6a24.39,24.39,0,0,0,4.08-13.44q2.16-64.08,6-128.28c2.52-42.6,4.2-85.44,4.8-128.28A315.28,315.28,0,0,1,204.24,148C206.16,136,205.92,125.28,203.4,115.8ZM373.92,350q-3.78-50.76-42.48-80.76,28.44-38.7,22.2-89.76-5.76-47.88-49.56-64l-.48.36a3.28,3.28,0,0,0-1,2.28l.36,3.36.36.12c-2.76,24.84-4.56,49.92-5.64,75q-2.88,64.44-3.24,129.12a1103,1103,0,0,1-8.16,128c-1.2,9.72.36,17.52,4.56,23.4V477a16.13,16.13,0,0,0,4.08,5.16,7.46,7.46,0,0,1,5.4,2.76,38.1,38.1,0,0,0,24-2.64c24.6-11.28,39.72-30.48,45.12-57.6A272.81,272.81,0,0,0,373.92,350Zm40-226.44c-18.72,18.12-28.2,40.44-28.32,67.2a126.11,126.11,0,0,0,23.88,75.48,227.09,227.09,0,0,0,28.8,32.88c27.72,25.92,42.48,58.56,44.52,97.8,1.56,31.44-7.92,58.8-28.2,82.2q-40,9.36-54.36-29a112.91,112.91,0,0,1-7.08-34.2l-.72.12-1.68,1.44-.6.84A80.74,80.74,0,0,0,392.88,459q10.26,31.32,41.76,41.16a14.68,14.68,0,0,0,12.6-1.8c22.2-14.52,35-35.52,38.76-63a212.58,212.58,0,0,0-14.4-110.52,82.67,82.67,0,0,0-28.2-36q-59.22-42.84-49.32-114a58.88,58.88,0,0,1,14.28-31.2q26.28-29.52,56.64-2.88a77.41,77.41,0,0,1,15.84,18.6l.24-.72Q475,116.16,429.72,115A33.19,33.19,0,0,0,413.88,123.6Z" transform="translate(-60.67 -107.16)"/></svg>