<svg id="Layer_1" data-name="Layer 1" xmlns="http://www.w3.org/2000/svg" viewBox="0 0 412.72 281.64"><defs><style>.cls-1{fill-rule:evenodd;}</style></defs><path class="cls-1" d="M273.12,302.76c5.4,27.24,1.2,52.92-12.6,77.28-9.48,16.92-23.4,23.64-41.76,20.4l4-125,.48-15.24a23.68,23.68,0,0,0,12.48-2.28,50.78,50.78,0,0,0,7.44-4.44l2.52.6a31.51,31.51,0,0,1,18.72,18.6A179.67,179.67,0,0,1,273.12,302.76Zm36.6-43,9.36-5.88,13.2,3.72a165.09,165.09,0,0,1,16.44,56,116.83,116.83,0,0,1-1.56,36,58.45,58.45,0,0,1-17,31.56c-9.72,9.48-19.2,12.48-28.56,9.24l-1.44,1.44,7.56-134.16Zm-152-108.24a581.68,581.68,0,0,0-4.92,86q.9,64.8-2.76,129.12l-.72,9.36a363.5,363.5,0,0,0-6.6-46.44c-4.32-21-8.16-42.24-11.4-63.48q-9.72-63.36-22.8-125.4l-.84,1.2-1.08-4.44h-.48q-4.5,43.74-8.88,88.32-6.12,63.72-11.76,127.68A134,134,0,0,1,83,369.24c-2.52,12-.84,22.44,5.16,31.2a2.59,2.59,0,0,0,.72-1.68q1.62-47.52,7.32-94.92,7.38-60.3,13-121.2l16.92,102.6q10.26,64.08,23.16,125.52a2.06,2.06,0,0,0,1-1.44l.12-3.84a17.15,17.15,0,0,0,3.6,4.2,5.71,5.71,0,0,0,.84-2.52q3.42-64.26,4.68-129,1.08-65.16-.12-127.92A1.31,1.31,0,0,0,157.68,151.56Zm153.48,15.12c15.84,6.24,23.52,18.36,22.92,36.48q-.54,24.66-20.16,39.6l-5.76,4.08,1.68-81.48ZM309,153.48l-.24-.6c-2.88,2-4.44,5-4.56,9.12q-1.44,35.46-2.64,71.52-2,64.26-6.12,128.28a177.84,177.84,0,0,1-4.68,32c-2.4,10.2-.6,18,5.52,23.64a8.21,8.21,0,0,0,2.52-5.64l.12-1.92A26.64,26.64,0,0,0,317,407.28c17.64-9.24,28.32-23.4,32.28-42.36A227.84,227.84,0,0,0,350,274.8c-2.88-15.24-10.44-25.2-22.56-29.88,8.4-10.92,13-24,13.56-39.48,1.08-24.84-9.24-42.36-31.2-52.32ZM186.6,191a1146.17,1146.17,0,0,1-3.24,128.4l-5.64,63.84c-1.08,12.12.36,22.8,4.56,31.8a25.29,25.29,0,0,0,3.36-12.24c1-42.84,2.76-85.68,5.28-128.28a1202.81,1202.81,0,0,0,.84-128.16A145.25,145.25,0,0,0,186.6,191Zm72.84,11c2.28,26.28-9.72,41.28-36,44.76.36-29.88-.12-59.4-1.68-88.8C244.68,163,257.28,177.72,259.44,202.08ZM221,146.88v-.48l-.12.6a5.49,5.49,0,0,0-1.32,2.64,17.09,17.09,0,0,0-.24,5.52,195.32,195.32,0,0,0-2.28,36.12q1.62,65-1.8,129-1.8,32.58-5,64.8a67,67,0,0,0,.6,19.2,13.52,13.52,0,0,0-.24,3.84,11.46,11.46,0,0,0,2,6.36l1.56.48.84,1.68.72-1.2,2.16.72q18.18,7,31.32-5.76,33.66-32.22,31-80.52l-1.92-37.44q-1.62-32.94-28-45.72c14-15,19-33.84,14.76-56.28q-7.2-37.62-43.2-44Zm228,37.68c23.16,29.76,36.48,64,39.72,102.6A143.05,143.05,0,0,1,474,364.44q-16.74,33.66-52.92,29.4c3.24-36.12,5.4-72.36,6.72-108.72,1.32-37.08,1.44-73.68.6-109.8C437.16,175.08,444,178.2,449,184.56Zm-44.76-20.88a26.49,26.49,0,0,0-16.8-8q-36.18,59.22-30.72,134.64Q360.18,338,359.4,386a25.9,25.9,0,0,0,1.8,10.44,23.61,23.61,0,0,0,3.84,6.24l1.32,1.44,1.32,1.2,1.56,1.2a19.59,19.59,0,0,0,5.16,2.76Q404.64,389.7,399.12,358c-3.6,15-12.6,26.16-26.88,33.36-8-27.6-10-57.72-6-90.24a49,49,0,0,0,31-5.88,10.59,10.59,0,0,0-.6-11.4,9.56,9.56,0,0,0-1.8-2l-28.32,6.48q-3.78-61.92,21.24-114c1.56-3.36,4.68-4.56,9.24-3.6l5.4,1.2Zm23.76-.24L427.8,157a63.15,63.15,0,0,0-2.28,7.2l-1.2.36-.6.6a15,15,0,0,0-.84,5.64l.6,3.24.12.48c-.36,3.24-.72,6.48-.84,10q-1.44,45.36-1.44,91.08c0,21.48-.72,42.84-2.28,64.2a343.74,343.74,0,0,1-6.36,47.4c-2.4,12.36-1.2,23,3.48,32a10.36,10.36,0,0,0,3.12-6.48v-.12q33.3,6.66,53.4-22.68l.84-.6,1-.6,1.2-.72a154.11,154.11,0,0,0,18.72-69,289.9,289.9,0,0,0-22.92-125.64c-8-19.08-22-29.28-41.76-30.36Z" transform="translate(-81.91 -137.52)"/></svg>