<svg id="Layer_1" data-name="Layer 1" xmlns="http://www.w3.org/2000/svg" viewBox="0 0 452.92 342.74"><defs><style>.cls-1{fill-rule:evenodd;}</style></defs><path class="cls-1" d="M218.28,106.32c-3.24,15.24-6,30.72-8.4,46.32q-10.08,63.18-18.24,126.72c-5.4,41.64-11.4,83.16-18.24,124.56a964.32,964.32,0,0,0-29.16-113A870.26,870.26,0,0,1,113.76,164.4a201.71,201.71,0,0,1-2.52-31.8c.12-11.88-1.8-22.08-5.76-30.84A193.75,193.75,0,0,0,100,131.64q-7.2,63.54-15.48,126.84Q76.38,321.84,65.76,385a111.57,111.57,0,0,1-4,15.72c-3.24,9.24-2.88,17.16,1,23.88A105.23,105.23,0,0,0,70,401q11.16-63,19.44-126.6c5.52-42.12,10.68-83.28,15.48-123.72,4.2,26,9.24,52,15.24,77.52q14.94,64.08,32.64,127.44a370.4,370.4,0,0,1,9.84,46.92c1.68,11.88,5.4,22.08,11,30.6l1-1.8q13.86-62.1,21.6-125.64,7.56-63.54,18.12-126.6c1.8-10.56,4-21,6.6-31.32,4.32-16.56,4.8-32.4,1.44-47.4l-1,.12a7.61,7.61,0,0,0-2.76,2.28l-.48-.36C217.32,103.08,217.32,104.4,218.28,106.32Zm141,28.2c-3.72-23.4-20.76-35.64-51.12-36.48-16.68-.48-29.88,6.6-39.72,21.36a226,226,0,0,0-31.44,71,410,410,0,0,0-10.08,61.44,789.61,789.61,0,0,0-2.64,82.56c.36,13.56,1.08,27.12,2.28,40.68a70.6,70.6,0,0,0,4.92,20.28c1.32,3,2.76,6,4.32,8.88a60.32,60.32,0,0,0,5.28,8.28,69.22,69.22,0,0,0,23.16,19.68c9.6,5.16,19.68,5.88,30.24,2.28,15.24-5.16,27.6-14.52,37.2-28.08a123.48,123.48,0,0,0,20.28-46,27.17,27.17,0,0,0-2.88-19.8l-3.36,3.24q-9.36,52.92-57.84,70.32c-10.68,3.84-21,2.52-30.72-4-10.68-7.08-17-17.4-19.2-30.72-2.4-14.52-4.32-29.28-5.88-44.28a298.38,298.38,0,0,1-1.2-45.12l.84-15.36,66-4.68c3-5.16,2.88-10.08-.6-15A213.24,213.24,0,0,0,233,261.48Q232.5,171.66,296.16,118a18.8,18.8,0,0,1,10.56-4,76.82,76.82,0,0,1,46.68,13Zm69-27.72c-6.72,22.68-12.48,46.08-17.16,70.44q-12.42,64.62-26.76,128.88-14.22,64.62-23.4,128.4a60.4,60.4,0,0,0,10-24.12q12.24-65,25.68-129.72,13.32-63.9,27.36-127.56c.36,8.16.48,16.32.36,24.36q-1.26,64.8.36,129.12c.6,21.6,0,43.2-1.56,64.8-.72,10.32,1.68,18.24,7.08,23.64,9-35.16,17.4-70.92,25-107.28q13.5-64.44,23.16-126.72,4.86,63.9,11.52,127.44,7,64.44,10.44,129.12c.48,10,3.24,17.64,8.4,23.16A119,119,0,0,0,512.52,414l-.12-.84c-.36-1.8-.72-1.68-1.32.48q-4.5-37.62-8.52-79-6.12-64.62-13.08-129a450.48,450.48,0,0,1-2.28-64.92q.54-18.18-6.12-31.68Q467.94,167.94,457.56,229q-11,64.44-25.44,127.68a559.84,559.84,0,0,0-.24-56.76c-2.28-43.08-2.64-86-1-129.12a472,472,0,0,0-1.8-64.2Z" transform="translate(-59.6 -98.02)"/></svg>