<svg id="Layer_1" data-name="Layer 1" xmlns="http://www.w3.org/2000/svg" viewBox="0 0 442.7 442.92"><defs><style>.cls-1{fill-rule:evenodd;}</style></defs><path class="cls-1" d="M101.64,316.44a510.34,510.34,0,0,1-36.48,83.64l-.72,1.56Q66.06,345.3,63.36,290a2.79,2.79,0,0,0-3,1.08c-.36,7.8-.48,15.6-.48,23.64q0,65-5.4,128.88a116.09,116.09,0,0,1-2.16,16c-2,9.84-.72,17.88,4,24.24a415.75,415.75,0,0,0,7-53.88l.12.24c5.4-11.88,10.8-23.88,16-36l5.76-13.68a581.06,581.06,0,0,0,22.56,109.8c2.28-1.08,3.12-3,2.76-5.76-6.24-35.88-13.8-71.76-22.68-107.4l-.84-.72c5.88-13.56,11.88-27.12,18-40.44q10.62-22.68,9-45.36A114,114,0,0,0,101.64,316.44ZM233.76,78.84a861.51,861.51,0,0,0-10.08,103.8c-1.44,43.08-2.64,86-3.6,129.12-.48,21.36-1.32,42.72-2.52,64a518.57,518.57,0,0,0-.24,56.28c-8.28-35.4-15.84-71.16-22.44-107.28Q183.18,261.9,172,199q-9.18-52-19.68-103.32L151,70.92a11.3,11.3,0,0,0-3.12,3.6l-.12-.6q-2.7.18-2.52,3.24l.48,7.32q.18,53.28-.6,106.56c-.6,43.08-1,86-.84,129.12s-1,85.92-3.12,129a132.9,132.9,0,0,1-3.36,24c-2.4,10-.84,17.88,4.56,23.88a130.8,130.8,0,0,0,7.08-39.72c1.08-43.08,1.68-86,1.8-129.12s.72-85.92,1.8-129c.48-18.12.6-36.12.48-54l1.2,6q12.42,62.64,23.64,125.64,11.34,62.82,23.16,125.76c4,21.12,7.68,42.36,10.92,63.6A76.19,76.19,0,0,0,224,497.28a1.68,1.68,0,0,0,1-1.32,136,136,0,0,0-1.44-36.84c1.8-19.32,2.64-39,2.76-58.92.24-43.08,1-86.16,2-129s3.12-85.68,6-128.28a458.24,458.24,0,0,0-.12-64.2ZM280.2,92.52a208.18,208.18,0,0,0-35,93.48,931.61,931.61,0,0,0-6.6,128.4,950.73,950.73,0,0,0,10,124.32c4.2,29,16.68,53.4,37.68,73a13.28,13.28,0,0,0,10.92-1.44,84.79,84.79,0,0,0,28.68-28.92c3.72-6.12,7.68-12.12,11.76-18,7.32-10.32,7.32-19.56.12-27.72A204.75,204.75,0,0,0,323,461.16c-7.8,16.68-19.92,27-36.24,30.72a75.32,75.32,0,0,1-23.16-39A592.64,592.64,0,0,1,246.48,325c-.24-9.12-.36-18.24-.24-27.24a228,228,0,0,0,50.52,2.64,15.67,15.67,0,0,0,1.8-12.24l-.24-.72-.12-.84a5.67,5.67,0,0,0-2.76-3.24l-2.76.12a297.38,297.38,0,0,1-46.32-1.8q.9-40.68,5.64-80.76a333.05,333.05,0,0,1,17.16-73.2,12.69,12.69,0,0,0,3.6-5.64q9.9-29.7,38.4-23.76a26.84,26.84,0,0,1,11.28,4.8,19.87,19.87,0,0,0,9.84,3.84l.36-.72c-3.72-18.12-16.44-27-38.28-26.4A37.69,37.69,0,0,0,280.2,92.52Zm91,244.2a638,638,0,0,0-9,84A259.36,259.36,0,0,1,357,462.6q-5.22,25.2-.36,48.24a93.61,93.61,0,0,0,38.4-5.4l3.72-.6q6.84-9.18,0-18.36a74.35,74.35,0,0,1-35.88,4.32c1.44-8.88,2.64-17.76,3.72-26.76a857.08,857.08,0,0,0,5.16-127.44ZM353.52,180c-17.64-1-25.8,7.92-24.24,26.76,1.32,16.32,9.48,28.32,24.24,35.88,17.16,8.76,21.84,20.28,14.28,34.68-1.8,3.24-4.92,5.64-9.12,7.08a63.43,63.43,0,0,1-39.48,0c-2.52,6.12-2.28,11.76.72,17.16q40.32,17.64,56.64-16.32c9.72-20.28,4.68-36.12-14.88-47.64-12.84-7.56-20.88-18-24.24-31.32a18.78,18.78,0,0,1-.36-6.36q23.58-13.68,39.6,7.32C380.28,189.36,372.6,180.36,353.52,180ZM488.16,72,474,70.92c-39.24,3.72-78.36,8.76-117.36,15.36a18.29,18.29,0,0,0-1.92,12.24,5.07,5.07,0,0,0,1.92,3.24q39.78-5.4,79.8-8.16a319.32,319.32,0,0,0-6.36,65.52q.18,64.44.72,129.12c.36,43.32-.6,86.28-3,129.12-1.2,21.72-3.48,43.32-6.72,64.56-1.92,12.48-.48,23.16,4.2,31.92q1.08-.72,1.08-1.44,7.74-62.46,10.32-125.76c1.8-43.08,2.52-86.16,2.16-129-.36-43.2.48-86.16,2.28-129,.48-12.12.36-23.88-.24-35.28L491,91a15.23,15.23,0,0,0,2.76-12.24,10.34,10.34,0,0,0-4.08-6.48Z" transform="translate(-51.39 -70.92)"/></svg>