<svg id="Layer_1" data-name="Layer 1" xmlns="http://www.w3.org/2000/svg" viewBox="0 0 371.85 308.35"><defs><style>.cls-1{fill-rule:evenodd;}</style></defs><path class="cls-1" d="M278.16,143.16q36.18-5.4,50,26.76a8.32,8.32,0,0,0,1.2-6.48c-4.8-24.12-20.4-36.36-46.92-36.48a64.38,64.38,0,0,0-26.76,25.8q-30.42,52.74-33.6,115.32l-.36.48a11.83,11.83,0,0,0-.24,10.44h.24q-1.62,40.14-2.16,80.88c-.36,24.12,7.8,43.68,24.72,58.92,12.12,8,25.56,9.72,40.08,4.8q41.94-14.22,51.12-55.44c1.92-8.64.24-14.76-4.92-18.24a9.94,9.94,0,0,0-3,8.64c1.08,10.44-2.28,19.68-10.08,28q-32.94,34-75.12,14.76a74.54,74.54,0,0,1-16.08-48.72q.54-36.18,3.12-71.76a188.48,188.48,0,0,0,72,.84l.48-.84a13.31,13.31,0,0,0-1.56-13.68,403,403,0,0,1-70.08,1.44l1.56-17.4a255.59,255.59,0,0,1,20.28-79.56A165.78,165.78,0,0,0,263,158.76,103.12,103.12,0,0,1,278.16,143.16Zm-59.76,28c4-16.44,4.56-32.28,1.8-47.4q-4.14,2-5.4,7.56l-8.4,60c-3.72,26.16-7.8,52.32-12.48,78.36q-11,62.82-18.6,125.64c-3.6-16.32-6.84-32.64-9.84-49.08Q154,283,146.16,219.48c-2.64-21-4.2-42.12-4.8-63.36q-.54-18.54-8.28-30.6-13,54.36-22.2,110.4Q100.62,298.74,91,361.8a192.55,192.55,0,0,1-7.56,31.08c-3.12,9.36-3.12,17.16,0,23.28a6.35,6.35,0,0,0,1.92-3.24q14.94-62.1,24.24-125.88,9.36-63.36,23.52-124.92c3,34.44,7,68.76,12.12,103q9.54,63.54,19.92,127c1.92,12,6,22.08,12.12,30.36a27.33,27.33,0,0,0,5.28-13.68c3.48-32,7.8-64,13.2-95.76q10.62-62.82,19.68-126A136.72,136.72,0,0,1,218.4,171.12ZM396.84,281q29.34,2.7,42.12,29.52a75.69,75.69,0,0,1,7.32,36.12c-.6,19.32-6.6,36.24-18.12,51a31,31,0,0,1-22.44,12.24,312.1,312.1,0,0,1-48.48.24c1.08-7.32,1.8-14.64,2.16-22.08,1.44-34.44,3.48-68.88,6.12-103.08Q383.34,288.24,396.84,281ZM375.24,140.4q29.7,1.44,45.36,30.84a76.25,76.25,0,0,1,8.52,45.12,64.07,64.07,0,0,1-18.72,38.88,131,131,0,0,1-10.8,9.36l-32.88,5.52a910.89,910.89,0,0,0,3.36-129.24l3.24,1.2Zm4.68-13L375,128.76l-.84.84-.84.84-2.16.6-.48.24-.6.48-.36.84v.12l-.12-1.2c-.84-.24-1.32,0-1.44.84q-3.06,43.92-6,88.32-4.14,63.9-7.2,128.4a289.45,289.45,0,0,1-3.48,32.16,142.34,142.34,0,0,0-1.92,28.2l-.48-.12-.6,8.16a11.41,11.41,0,0,0,1.68,6.48l1,.48.84,4.92q1.26-.36,1.44-1.08l.72-2.64c26,10.44,50.76,8.16,73.92-6.84l4.56-6a101.67,101.67,0,0,1,7.92-9.36,32,32,0,0,1,1.92-6.6,171.49,171.49,0,0,0,10.08-46.08q4.5-56.52-43.68-79.08l.12-.12c24.36-26,31.92-57.24,22.44-93.36-7.2-27.48-24-44.4-50.4-51Z" transform="translate(-81.06 -123.72)"/></svg>