<svg id="Layer_1" data-name="Layer 1" xmlns="http://www.w3.org/2000/svg" viewBox="0 0 453.05 410.16"><defs><style>.cls-1{fill-rule:evenodd;}</style></defs><path class="cls-1" d="M224.64,189.24q5.22-46.8,39.72-77.76l3.48-1.8.84-.6c10.2-1,20,1.32,29.52,6.72a18.1,18.1,0,0,1,4.56,5.52q3.24,5.94,8.64,5l.12-.84c-3.72-21-17.28-32.4-40.92-34.08a80,80,0,0,0-34.92,40,335.88,335.88,0,0,0-24.6,102.72q-3.78,48.06-5.28,96.6a560.41,560.41,0,0,0,9.84,124.08q3.6,18.36,20.52,27c13.44,6.84,26.16,6,38.16-2.28a84.05,84.05,0,0,0,22.2-22.44c7.8-11.52,7.92-21.24.6-29.28-2.52,4.2-4.92,8.4-7.2,12.72A117.47,117.47,0,0,1,276.24,461a62.21,62.21,0,0,1-13.56,4.56q-33.3,7-39.6-24.12A530.67,530.67,0,0,1,213,329q.18-20.34,1.44-40.68l53.4-3.12.72-1c2.88-5.4,2.64-10.44-.72-15.36a261.73,261.73,0,0,0-52.44,5.28q2.34-34.92,7.2-69.24Zm-36.36-92c-1.8,20.28-2.88,41.16-3.24,62.4-1,42.84-2.64,85.68-5.16,128.28Q176.1,352.14,170.4,416a207.86,207.86,0,0,0,.36,42.36q-2.88-21.42-6.48-42.84-6.66-39.24-15.48-78.12Q134.76,275,122.4,212T94.68,88c-2.52.6-3.48,2.52-3,5.64L92,95.52a39.1,39.1,0,0,0-2.4,16.8c2,42.6,2.64,85.44,1.8,128.28l-2.52,129a404.24,404.24,0,0,1-3.84,48.48,213.64,213.64,0,0,0,.72,64.32c2.76-.84,4.32-2.88,4.56-6.36,2.76-42.6,4.32-85.44,4.8-128.28q.72-64.62,3.12-129.12c1.08-31.08.84-61.92-1-92.52,4.8,26.52,10,53.16,15.36,79.68q12.78,62.46,27.12,124.8a324.18,324.18,0,0,1,5.88,31.92,955.88,955.88,0,0,0,24.24,123.72q4-3.06,3.24-8.64l-1.44-12c.72,4.92,1.68,9.72,2.76,14.64,1.44.24,2.16-.24,2.16-1.56q2-62.46,5.76-125l7.68-128.28a950.22,950.22,0,0,0-1.2-128.16Zm166.2,205.92-9.24-.84q-34.74,19.26-32.88,65.88c.6,15.6.36,31.32-.48,47a214.65,214.65,0,0,0,1.32,38.28,75.15,75.15,0,0,0,3,13.68,81.06,81.06,0,0,0,13.32,24.48q30.06-9.54,27.48-40.8a11.54,11.54,0,0,0-2-5.76c-4.44,13-12.72,22.2-24.84,27.84q-19.26-67.32-1.56-137.52A21.37,21.37,0,0,1,341,320.52a43.17,43.17,0,0,1,12.84-3.36l3.48,3,2.4-7.44ZM380.4,306a717.54,717.54,0,0,0-7,85.2A452.52,452.52,0,0,1,367.56,455c-2,12.12-.84,23,3.6,32.52a12.08,12.08,0,0,0,4.32-8.64c2.28-25.08,4.32-50.28,6-75.36l2.16,4q4.86-10.8,9-22l.48,3.24,13.2,69.84q3.42,18,13.32,29.52l.6-1c2.76-6.72,3.24-12.12,1.32-16.08l-.12.36-25-97.32a164.67,164.67,0,0,1,14.64-31.68c8-13.32,11.52-26.88,10.44-40.44A155.29,155.29,0,0,0,400,340c-5.4,13.44-11,26.76-16.92,40.08l1.56-29.28a332.74,332.74,0,0,0-1-48Q380.94,302.94,380.4,306ZM359.88,119.28c4.68-12.12.6-19.44-12-21.84l-2.64-.24q-35.82,19.62-18.36,58.68a205.63,205.63,0,0,0,26.52,44c9.72,12.36,12.72,26,9.12,40.92-2.28,9.36-7.68,15.84-16.32,19.44-15.84,6.6-31.44,5.88-46.68-2.4-3.24,18.36,6.72,27.6,30.12,27.48,12.36-.12,22.44-5,30.24-14.88a56.45,56.45,0,0,0,12.36-30,48.3,48.3,0,0,0-4.32-26.64q-19.44-41.58-36.72-82.44-1.8-4.32,1.44-9c5.76-8,13-10.2,21.48-6.72A17.94,17.94,0,0,1,359.88,119.28Zm14.4-18.84a15.69,15.69,0,0,0,.72,10.44l1.08,1.68q13.14-1.62,25.92-2.16l-6.12,120.24q-.9,16.2-3.24,32c-1.56,10.2.36,18.12,5.64,23.64a7.14,7.14,0,0,0,1.56-4.08L404,223.8q4-57.24,2.76-113.64,11.7-.54,23.4,0A15.41,15.41,0,0,0,433,96.24a7.26,7.26,0,0,0-2.76-4l-2.76-.36-15.12-.72c-12.6,2.16-25.2,4.68-37.56,7.56Zm98.4-16.8c-20.16,26-26.88,55.8-20.28,89.52a168.58,168.58,0,0,0,9.48,32.16q12.24,30.06,26.28,58.8a536.37,536.37,0,0,1,31.92,82.2c8.76,29.64,7.56,58.32-3.84,86.16q-17.46,42.84-64.44,31.8a29.85,29.85,0,0,1-9.84-16.2,18.34,18.34,0,0,0-7.44-11.4q-7.56,15.48,2.88,32a57,57,0,0,0,7.08,9c12.6,12.84,27.84,14.64,46,5.16,14-7.32,24.6-18.24,31.92-32.76a127.17,127.17,0,0,0,13.56-63.48,219.51,219.51,0,0,0-21.72-88,1219.77,1219.77,0,0,1-50.76-122.52q-14.58-41.58,11.64-75.24a19.13,19.13,0,0,1,13.2.72,117.28,117.28,0,0,1,22.8,12.6,7.88,7.88,0,0,0,1.44,2l1.08.84a22.3,22.3,0,0,0,5.16,1.44q.36.18.72-.36a3.36,3.36,0,0,0,.48-3c-5.88-21.48-20.88-32.64-44.88-33.72A9.75,9.75,0,0,0,472.68,83.64Z" transform="translate(-83 -81.48)"/></svg>