<svg id="Layer_1" data-name="Layer 1" xmlns="http://www.w3.org/2000/svg" viewBox="0 0 308.89 216.96"><defs><style>.cls-1{fill-rule:evenodd;}</style></defs><path class="cls-1" d="M280.56,296a136.91,136.91,0,0,0-15.24,54.24C264,370.2,269,387.6,280.56,402.36a50.86,50.86,0,0,0,20.28-3q26.82-9.72,17.28-31.68c-9.24,11.52-21.48,17.16-36.48,17l-.48-.48-1.08-.84-.84-.84a70.77,70.77,0,0,1-5.52-31.68l.6.84a301.66,301.66,0,0,1,33.84-5.4l.72-.84c2.76-5.16,2.4-10.08-1-14.64a61.54,61.54,0,0,0-32.64,7.56A104.68,104.68,0,0,1,284,311.16c12.12-3.48,23.52-3.12,34.08,1.08l.12-.72c-1.32-14.64-10.44-21.24-27.12-19.8a24.66,24.66,0,0,0-8,2.76ZM160.8,200.28l-.12-3.84q-4.5,4.14-4.68,11.88-2,64.08-3.6,129.12a623,623,0,0,0,1.8,64.08c1.08.48,1.8.24,1.92-.6a665.85,665.85,0,0,0,5.4-76.2c.6-36.36.48-72.48-.24-108.12l.6,1.56a699.23,699.23,0,0,1,40.32,123q7.2,31.68,16.44,60.6a47.51,47.51,0,0,0,2.4-9.24,38,38,0,0,0,2.64,6,23.4,23.4,0,0,0,3.36-11.4L233,259c1.08-22.08,1.56-43.44,1.2-64.08-4.8,7.8-7.2,17-7.2,27.84.12,43-1.32,85.68-4.56,128.28a114.36,114.36,0,0,1-2.16,15.84l-.72,4.44-.36-1.2c-5-17.64-9.84-35.28-14.28-52.92a749.42,749.42,0,0,0-42-120.48A28.57,28.57,0,0,0,160.8,200.28Zm296.76-10a831.79,831.79,0,0,0-6.24,93.48l-5.4-.48v.12a41.2,41.2,0,0,0-19.8,6,468.29,468.29,0,0,0-6.72-65.16c-1.08-.12-1.56.24-1.56,1.08q.36,62.46-1.08,125.88a233.5,233.5,0,0,1-2,24.12c-1.8,12.6-.24,23.16,4.92,31.56a4.47,4.47,0,0,0,1.8-3.24q3.42-41.4,4.68-83.64l.24-17.16a99.35,99.35,0,0,1,25-3.48v7.68A386.34,386.34,0,0,1,447,371.76c-1.92,12.6-.24,23.16,5.16,31.68a476.07,476.07,0,0,0,7.2-85.32V299.28a15.08,15.08,0,0,0,1.2-11.16,13.41,13.41,0,0,0-1.32-3c-.12-32-.6-63.72-1.2-95.16C457.68,190.08,457.56,190.2,457.56,190.32Zm-37.08,7.8a529.73,529.73,0,0,1-89.88,5.64l-.24.84a10.13,10.13,0,0,0,1.56,8.88,258.76,258.76,0,0,0,43.08,3.6,145.29,145.29,0,0,0-4.2,41,1183.92,1183.92,0,0,1-2.4,129c-.48,7.56,1.68,12.36,6.36,14.64,2-21,3.24-42.36,3.84-64.08q1.26-61.2-1.08-120.6a277.36,277.36,0,0,0,43-3.84l.6-.6C423.72,207.48,423.48,202.68,420.48,198.12Z" transform="translate(-152.24 -189.96)"/></svg>