<svg id="Layer_1" data-name="Layer 1" xmlns="http://www.w3.org/2000/svg" viewBox="0 0 495.3 392.01"><defs><style>.cls-1{fill-rule:evenodd;}</style></defs><path class="cls-1" d="M339.48,123.12q40.5,37.44,34.2,93.6c-3.72,32.52-20.64,53.52-51,62.76l2.4-45.12a1009.74,1009.74,0,0,0-1.32-116A18.56,18.56,0,0,1,339.48,123.12Zm-80-3.84a30.55,30.55,0,0,0,6.24,4c8.76,4.08,16.92,7.68,24.6,10.92a4.23,4.23,0,0,0,1.68-2.4,13.48,13.48,0,0,0,.24-4.92,9.55,9.55,0,0,0-.84-2.4l-.6-.72A81.15,81.15,0,0,0,250,102.6q-23.76,14.94-33.36,42.48a356.79,356.79,0,0,0-19.92,107.64L196,278.4l-.12,4.56q-1.26,49.14-1.8,98-.18,40.68,19.2,74.76a15.38,15.38,0,0,0,8.16,7.2c12.36,4.68,24.6,4.32,37-1.08a60.64,60.64,0,0,0,28-24.36c6.84-11.16,6.72-20.28-.12-27.6-10.92,28.68-32.4,41-64.68,37.08q-20-26.82-19.92-61.68,0-48.6,1.56-97.32a210.26,210.26,0,0,0,66.6-1.2,14.05,14.05,0,0,0,1.2-10.56,6.46,6.46,0,0,0-1.2-2.4l-.84-.48-11.4-.6a312.88,312.88,0,0,1-54,4l.84-19.68c.84-20.76,2.4-41.4,4.44-61.92q4.68-44.82,37.92-75.24A20.08,20.08,0,0,1,259.44,119.28Zm-80.16-15q-7.92,62.28-9.84,126.24-2,64.44-7.2,128.4c-1.8,21.36-4.08,42.6-7.08,63.84l-.24,2.52L151.2,408l-13.56-61.8q-13.86-62.46-24.12-125.28L93.6,95c-.6,0-.84.12-.84.24l-.12,2.16L91.44,92l-.6.12c-3.72,18.6-6.6,37.56-8.64,57.12q-7,63.9-10.08,128.4-3.06,64.08-10.56,127.2a281.59,281.59,0,0,0-.72,63.48c3.24-1.56,5-4.44,5.4-8.88Q71.1,395.4,74.16,331.2q3.24-64.44,10.32-128.28Q87.9,171.06,93,139.2l.48-2.76q.9,9,2.52,18l22,124.8,11.4,63.12q11.7,63,25.08,125.4a3.68,3.68,0,0,0,3.48,1.92c2.52-1.8,3.6-4.44,3.36-7.8l-1.08-9.48a122.68,122.68,0,0,0,4.2-27.84c1.92-42.84,4.44-85.56,7.56-128.4q4.86-63.9,7.56-128.16c1-22,1.2-43.32.6-64.08C179.52,103.8,179.28,103.92,179.28,104.28Zm198,61.68a92.34,92.34,0,0,0-18.36-40.32A62.63,62.63,0,0,0,330.12,105L319,107.4l-.6,1.2-.24,1.32-.24,2.76.12,2.88.12,1,.24.72a2.52,2.52,0,0,0,.84,1.32l.84.36c.12,16.08-.12,33.24-.72,51.6q-4.5,120.42-17.76,239.88a233.47,233.47,0,0,0,1.32,64.2,8.2,8.2,0,0,0,3.36-5.52q7.38-52.92,11.16-106.32l4.44-69.6,17-4.44c2.28,23.16,5.76,46.08,10.2,68.76q12.42,62.82,29.76,124.44a4.81,4.81,0,0,0,2.28-4.68,873.5,873.5,0,0,0-24.24-132.6q-7.56-29-14.64-58A84.26,84.26,0,0,0,355.08,276a93.35,93.35,0,0,0,25.68-63.6A206.84,206.84,0,0,0,377.28,166Zm14.52-61.68a354.13,354.13,0,0,0,2,77q8.46,63.54,14.64,127.44c4,42.36,6.12,84.84,6.24,127.44A150.58,150.58,0,0,0,422,483a2.85,2.85,0,0,0,1.08-1.44l1.08-13.92v-.48c4.92-33.12,9.84-66.36,15-99.72q9.72-63.18,18.72-126.6l9.48-63a284.86,284.86,0,0,0,2.88-63.6,413.18,413.18,0,0,0-13.68,69.6q-7.2,63.54-16.92,126.72l-15.6,102c-.84-18.36-2-36.48-3.48-54.48-3.48-42.6-7.68-85-12.48-127.32-4.92-42.6-10.2-84.72-15.84-126.6Zm134.64,16a26.07,26.07,0,0,0-11.28-2.76l-6,2.88A26.44,26.44,0,0,0,495.84,134a297.5,297.5,0,0,0-22.2,93.48Q469,291.6,468,356.64a790.46,790.46,0,0,0,4.32,95.64,42.35,42.35,0,0,0,4.92,15.6q15.3,27.72,40.68,7.92a127.92,127.92,0,0,0,13.32-12q18.72-20,9.36-40.32a239.44,239.44,0,0,1-16,24.12A40.17,40.17,0,0,1,508,460.8c-15.72,6.84-25.08,2.16-27.84-14.16a358,358,0,0,1-5-62.4c.24-29.4,1.08-58.56,2.4-87.72l34.2,3.36a14,14,0,0,0,2.52-10.68,7.79,7.79,0,0,0-2.76-4.8l-4.44-.48-10.8-1.2a39.48,39.48,0,0,0-18.12,1L479.64,256a609.37,609.37,0,0,1,14.16-96.48c4.44-19.32,16.08-26.88,35.16-22.56a14.77,14.77,0,0,0,4,3.36A135.12,135.12,0,0,1,550.32,151a2.47,2.47,0,0,0,3.24-.84l.6-.72a7.92,7.92,0,0,0-1.08-7.56,64.78,64.78,0,0,0-19-18.48l-2.64-1-1.68-1.2A10.81,10.81,0,0,1,526.44,120.24Z" transform="translate(-59.38 -92.04)"/></svg>