<svg id="Layer_1" data-name="Layer 1" xmlns="http://www.w3.org/2000/svg" viewBox="0 0 487.67 520.15"><defs><style>.cls-1{fill-rule:evenodd;}</style></defs><path class="cls-1" d="M342,529l4.56,4.92c-1.68,19.32-12.24,26-31.8,19.92l-2.76-.48,1.2-23.52a23.55,23.55,0,0,0,19.2-2.88Zm-32.16-34.68-3.6,28L310,567.12l1-4.8,9.12,4.56,1.92,1.56c9.6,1.32,17.28-1.8,22.92-9.48q17.46-23.4-5.76-38.52c2.52-11.76-1.32-20.64-11.64-26.64C321.6,490.56,315.72,490.68,309.84,494.28Zm12.72,5.64A48.48,48.48,0,0,1,336,512.16a27.49,27.49,0,0,1-23,8.64,190.41,190.41,0,0,0-2.16-20.28,27.3,27.3,0,0,1,11.76-.72Zm-20.64-36.36a382.69,382.69,0,0,0-16-63.36c-5.64,10.92-11.28,22.44-16.92,34.44a102.75,102.75,0,0,0-9.84,38.64q12.42-29.7,25.92-59.88c5.4,23.4,10.8,46.2,16,68.16L325.2,421q11.7,33.48,24.12,63.12a13.65,13.65,0,0,0,.72-10.2c-7.32-23.4-14.88-46.44-22.68-69.36A223.33,223.33,0,0,0,301.92,464Zm-17.4-215.4,3.36-.84q19.8,30.06-10.56,44.28l2.76-40.32Zm1.2-10.08-4.56,4.2-.48.24c-.12-.12-.12-.24-.12-.6A335.79,335.79,0,0,0,269,299.76l-5.88,54.84a35.21,35.21,0,0,0,2.76,18l10-66.6,7-2.52L302,377.76l1.92-1.32a258.16,258.16,0,0,0-18.48-75.12q23-22.5,10.32-51.12a48,48,0,0,0-7.92-12.12ZM33.84,55c-1.8.84-2.76,2.4-3,4.8L25.2,109.92l-.36,4-.36,3.6a218.83,218.83,0,0,0,.72,47l.36-.84,4.08-46.56Q35.94,106.86,43,97a174.57,174.57,0,0,0,21.48,79,3.52,3.52,0,0,0,.84-3.84,711.7,711.7,0,0,1-20.4-77.76A348,348,0,0,1,72.48,61.2l.36-.84a9.23,9.23,0,0,0-.84-9q-21.24,24.3-41.28,51.48Zm211.8,3-4.8,2.4q-41.94,66.78-42.6,148.08-1.44,154.62,3.6,308.64a137.35,137.35,0,0,0,5.4,34.08q30.6,24.66,56.52-1c10.2-10,14.76-22.2,13.8-36.6q-11.88,31.5-42.6,31.32-32-1.8-32-39.24c0-11.28.12-22.56.48-33.84q2-74.34,2-148.8v-19.8a161.65,161.65,0,0,0,48.12.36,9.71,9.71,0,0,0,.36-8.16l-1.2-2.4-47.28,1.56q-9.72-103.14,22.92-198.72a81.35,81.35,0,0,1,12.48-23.4q25.74-7.56,41,14.4c-1.08-17.16-10.44-26.64-28.2-28.68Zm-56-.36c-2.76,1.68-4.32,4.32-4.68,8q-3.78,34.74-6.24,69.84-4.32,63.9-6.48,128.4l-4.32,129q-2,52.38-4.8,104.76l-.72-6.12Q154.8,427.8,141.6,365.16,128.46,302.7,119.88,239.4c-5.64-42.12-9.72-84.36-12.12-127a382.91,382.91,0,0,0-7-54.24l.36-7.92L99.6,53.16l-.84-4c-1.8,1.08-2.64,3-2.4,5.76l.36,4.68A74.19,74.19,0,0,0,92,81q-5,64.08-9.24,128.4T74.64,337.68c-2.52,42.6-4.8,85.08-7.08,127.44-1.08,21.48-2.64,42.72-4.68,64-1.08,11.64-.12,22.08,3.12,31.56a2.42,2.42,0,0,0,1.8-2.16q3.78-29.52,4.68-60.12,1.8-64.26,5.28-128.28c2.28-42.84,4.92-85.56,7.68-128.16q4.32-64.44,10.68-128.16L98.88,85q4.14,48.78,9.6,97.32,7,63.18,18,125.64,11,63.36,20.28,127.08c6.12,41.88,11.4,84.12,15.6,126.48a2.32,2.32,0,0,0,2.16,2.16c1.8-.84,2.64-2.4,2.64-4.68l-.24-7.92a26,26,0,0,0,2.64-11.28q.54-64.26,2.76-128.28,2.16-64.62,4-129c1.08-43.08,3.36-85.8,6.6-128.28,1.68-21.36,3.72-42.6,6.12-63.84A167.38,167.38,0,0,0,189.6,57.6Zm102.84,7.8-5.16,119.4a224.32,224.32,0,0,1,45.48-2.16,11.69,11.69,0,0,0-.24-10.56,219.3,219.3,0,0,0-41.64,0v-.84a935.84,935.84,0,0,0,4.8-114.36C293.64,58.8,292.56,61.68,292.44,65.4Zm76.2,181.92c-1,21-11.64,32.52-31.92,34.44,2.52-26,4.08-52.08,4.44-78a39.46,39.46,0,0,1,18.72,8.64A60.27,60.27,0,0,1,368.64,247.32Zm-7.2,68.16L340.92,372.6l-20.28-63.36a136.62,136.62,0,0,0,3.12,19.92c3,13.08,6.48,25.92,10.44,38.64l6.12,19.32a4.32,4.32,0,0,0,3-2.76c3.24-8,6.72-16,10.32-23.76a84.41,84.41,0,0,0,8.16-40.44Zm-8.52-118-14.16-3.24c-2.28,21-4.2,42.72-6,65a143.11,143.11,0,0,0,0,22.68H328l-.36,11.28,6.72,1.08.72,1.8c15-1.56,26.28-9.48,34.08-23.88a51.42,51.42,0,0,0,5.88-29,75,75,0,0,0-18.72-44.4Zm-1.44-47.88-35.16-2.16,1.08-85.2a460.59,460.59,0,0,0-6,99l40.32.6a10.93,10.93,0,0,0,.6-10.68ZM465.6,81.84c21.72,10.92,36.24,27.24,43.32,48.84a22.21,22.21,0,0,0,.72-16.68,81.85,81.85,0,0,0-7.92-16.68C491,80.4,476.4,70,457.8,66.24a28.88,28.88,0,0,0-7.08,5.16q-34.38,34.74-40.92,84.36a253.6,253.6,0,0,0,11.64,117.12A472.26,472.26,0,0,0,453.84,347,474.76,474.76,0,0,1,500,471.48a144.63,144.63,0,0,1,2.4,49.2A27.45,27.45,0,0,1,489,541.8q-32,19.44-70.92,8.16a31,31,0,0,1-11.52-6c-10.32-8.4-15.12-20-14.28-35,.48-9.72-1.44-17.28-5.88-22.68a11.31,11.31,0,0,0-1.08,5.64A292.08,292.08,0,0,0,394,546.12,9.66,9.66,0,0,0,397.8,552c17.76,12.84,38.16,18.48,61.2,17.16q32.58-2,45.6-31.8a79.63,79.63,0,0,0,6.12-41,374,374,0,0,0-32.76-118,627.41,627.41,0,0,0-29.88-57,263.09,263.09,0,0,1-37-126.72A177.15,177.15,0,0,1,432.72,103a47.21,47.21,0,0,1,23-21.24A11.29,11.29,0,0,1,465.6,81.84Z" transform="translate(-23.55 -49.2)"/></svg>