<svg id="Layer_1" data-name="Layer 1" xmlns="http://www.w3.org/2000/svg" viewBox="0 0 312.96 215.99"><defs><style>.cls-1{fill-rule:evenodd;}</style></defs><path class="cls-1" d="M318.12,291.24l-32.88,1.08q6.84-31,14.64-61.68a101.06,101.06,0,0,0,3.36-20.16,297.59,297.59,0,0,0,11.16,67.68ZM159.84,202.08,159.6,196c-.84-.24-1.44,0-1.56.84a163.58,163.58,0,0,0-3.36,21.72c-3.48,42.36-5.52,85.2-6.12,128.28a206.84,206.84,0,0,1-3,32.16q-3.06,18.18,3.24,32a188.31,188.31,0,0,0,6.48-43.8c.48-14.52,1.2-29,2-43.8q3.24-52.92,2.76-105l1.2,4.2Q181.62,283.08,199,344.16q9.18,31.68,20.16,59.76a6.24,6.24,0,0,0,2.16-3.84,24.39,24.39,0,0,0,3.36-11.76q2.16-64.08,5.52-128.16a543.46,543.46,0,0,0-.48-64.2,47.88,47.88,0,0,0-5.28,21.24c-1.44,42.84-3.12,85.56-5.16,128.4a241.75,241.75,0,0,1-2.64,28.08,519.81,519.81,0,0,0-15.12-56.28L161.52,197A22.61,22.61,0,0,0,159.84,202.08Zm143.52-3.24-.12-.24a128.45,128.45,0,0,0-13.68,37.92Q277,299.34,263.16,361.8a82.24,82.24,0,0,1-5,15.36Q250.38,395,257,408.84a279.89,279.89,0,0,0,15.6-53.52c3-17,6.36-34.08,10.08-51a135.28,135.28,0,0,0,39.48,1.8c8.52,31.56,16,63.36,22.44,95.16q2.34,2.16,4.68,1.08a3.33,3.33,0,0,0,1-3.12A672.85,672.85,0,0,0,334,322.08l-5-18.72a11.71,11.71,0,0,0-1.56-11.64l-1.56-.12c-8-30.84-15.12-61.92-21.48-93A.93.93,0,0,0,303.36,198.84ZM418.08,395.52c9.84,8.28,19.32,7.92,28.32-1.32a374,374,0,0,0,5.16-101.52,341.78,341.78,0,0,1-13.08,85.08c-1.2,4-4.08,6.48-8.52,7.56a16.91,16.91,0,0,0-9.84-4.2l-2,.72Zm32.4-129.36,1.68,3.36a42,42,0,0,0,1.8-27.6C448.08,249.36,446.88,257.4,450.48,266.16ZM353.64,210c15.36.36,30.72.48,46.2.6a499.64,499.64,0,0,0-6,61.56c-.6,21.6-1.56,43.2-2.76,64.8a367.43,367.43,0,0,0,2.28,64.32c.84-.36,1.32-.84,1.32-1.2q4.14-34,5-69.72L402,210.6c17.64.12,35.52,0,53.4-.36a8.63,8.63,0,0,0,1.44-2.52,13.27,13.27,0,0,0-.48-9.6l-.48-.84a1.39,1.39,0,0,0-.84-.6,75.88,75.88,0,0,0-18.84-1.32A368.89,368.89,0,0,0,353.88,201a4.83,4.83,0,0,0-1.08,2.4,10.38,10.38,0,0,0,.6,5.76Z" transform="translate(-144.56 -195.01)"/></svg>