<svg id="Layer_1" data-name="Layer 1" xmlns="http://www.w3.org/2000/svg" viewBox="0 0 304.32 213.96"><defs><style>.cls-1{fill-rule:evenodd;}</style></defs><path class="cls-1" d="M270.84,305.76l17-73.92,7.92,71.28Zm21.6-109.32-1.68,5.16-.48-3.24c-6.84,26.52-13.32,53-19.32,79.8-3.24,13.8-6.6,27.6-10.2,41.16L243.24,385.2c-1.56,5.88-.84,10.56,2,14,7.8-10.92,13.08-24.48,15.72-40.56,2.4-14.52,5-28.92,7.92-43.44l28.44,1.2A170.54,170.54,0,0,0,314,397.92a8.28,8.28,0,0,0,2.16,2.88,361.22,361.22,0,0,0-4.68-57.36q-8.64-52-15.6-104.4l-3.84-28.44Zm-68.4-1.8a649.21,649.21,0,0,0-7,74.28Q216,301,212.4,333a216.47,216.47,0,0,0-1.56,27.6c-3-15.72-6.72-31.56-10.92-47.4q-16.74-61.74-37-121.56a9.78,9.78,0,0,0-3.72,6.12c-2.52,5.88-3.72,12.84-3.48,20.88,1.08,42.84.72,85.68-1.08,128.28a188.78,188.78,0,0,1-4.2,32c-2.16,9.72-1.08,17.76,3.24,24.24a429.7,429.7,0,0,0,8.16-80.4q.72-57.78-.72-113.88,15.3,49.32,28.68,99.24A615.37,615.37,0,0,1,202.92,370c1.92,11.88,6,21.72,12.24,29.4a3.59,3.59,0,0,0,1.2-3l.84-.84.48-.72a23.87,23.87,0,0,0,1.44-8.16,21.74,21.74,0,0,1-3-7.08c2.76-18.72,4.8-37.56,5.88-56.64q4.14-64.8,2.52-128.4Zm193.56,3.84a163.66,163.66,0,0,0-6.6,43.44q-1.26,64.44-4.92,129c-.72,12.36,1,22.92,4.92,31.44l.48-.84a44.89,44.89,0,0,0,3.24-19.44l-.36-.6a4.32,4.32,0,0,1-1.44-2.16c1-17.64,1.68-35.52,2.28-53.52l.36-14.16a227.06,227.06,0,0,0,31-2.4l-.12,32.52a287.27,287.27,0,0,1-1.8,32.16q-2.34,18.72,4.32,31.68A600.53,600.53,0,0,0,453.36,326c-.36-43.32-.24-86.16.36-128.28A37.73,37.73,0,0,0,450,212.64q-2.34,41-3.24,82.32a116.12,116.12,0,0,0-30.84,6q1.44-52,2.16-102.6Zm-38.28-2.88q-26.46-.18-30.6,26.64a67.35,67.35,0,0,0,8.64,44.4c5.4,9.24,10.56,18.48,15.48,28,7,13.2,13.32,26.64,19.08,40.44,6.6,15.6,3.72,28.92-8.76,40-13,11.4-25.92,11.88-38.88,1.2-7.68-6.36-11.76-14.76-12.24-25.44l-1.68-40.44q-12.24,32.22-1.56,65.4c3.24,10.2,9.6,17.4,19.08,21.36l4.2,1.44a29.71,29.71,0,0,0,10.8,1.32c13.8-1.32,24-7.92,30.48-19.92,8-15,9.24-31.2,3.6-48.48a263.12,263.12,0,0,0-37-72.12c-10.32-14.28-11.16-28.56-2.4-42.6,4.92-8,12.36-11.76,22.32-11q9.54,10.8,8.64,26.28c3.84-12.6,1.68-23.64-6.48-33.36Z" transform="translate(-149.4 -191.64)"/></svg>