<svg id="Layer_1" data-name="Layer 1" xmlns="http://www.w3.org/2000/svg" viewBox="0 0 293.61 209.88"><defs><style>.cls-1{fill-rule:evenodd;}</style></defs><path class="cls-1" d="M322,288l-27.72,5.52L311.4,222.6l7.8,50.64ZM157.44,211.8c-1.8,18.84-2.64,38.28-2.76,58.32l-.12,128.16c2.16.6,3.36-.6,3.6-3.36q3.42-36,4.2-73,.9-50.76-1.44-100.8c4.08,10.92,8.28,21.72,12.48,32.4Q197.34,313.32,218,373.68a165.27,165.27,0,0,0,13,28.92l1-1.2c4.68-4.92,6.36-11.16,5-18.84l-.36-.72-1.32-1.92,4-56.88a1118.09,1118.09,0,0,0,2.28-128.16q-4.5,38.34-6.36,79.32c-1,21.36-2.64,42.6-4.92,63.84a276.58,276.58,0,0,0-1.68,35.64,121.6,121.6,0,0,0-6-16.32c-6.6-14.4-13-29.16-18.84-44.28Q180,253.32,159.6,193.2c-4.92,2.88-6.24,7.68-3.72,14.52ZM312.36,202l-.36-9.24A147.55,147.55,0,0,0,304.68,215Q289.74,277.14,277,339.72a170.25,170.25,0,0,1-9.6,30.84c-4.92,11.88-5,22.32-.6,31.56a585.21,585.21,0,0,0,22.32-84.36L292,303.6a223,223,0,0,0,32.28-3.36q8.82,48.6,19.08,97a3.83,3.83,0,0,0,3.48,2.4,81.9,81.9,0,0,0-3.12-37,281.24,281.24,0,0,1-8.4-35.76L330.6,299l2.76-.6a22.65,22.65,0,0,0,1.08-4.08,7.45,7.45,0,0,0-1.92-6.48l-1.32-.36-2.64-.12q-7.56-42.66-15.84-85Zm63.12,5.52c-1.8,42.84-3.84,85.56-6.36,128.28a339,339,0,0,0,2,63.84,28.45,28.45,0,0,0,5.52-18.36l-.48-.72a5.1,5.1,0,0,1-1.2-2q.18-23,1.44-46.08l.24.36.36-.24a69.28,69.28,0,0,0,9.84-19.2l18.84-29.64a243.63,243.63,0,0,0,5,28.68l10.56,44.52a156.51,156.51,0,0,0,18.12,44.88l.6-.6c4-6.72,3.48-12.24-1.2-16.44l-.24-.84L408.72,278.76c10.92-17.64,21.48-35.4,31.92-53.4,5.64-10,8-19.44,7.44-28.68C435,219.12,421.32,242,406.92,265.2a40.55,40.55,0,0,0-8.16,9.84c-6.6,10.68-13.2,21.36-20,32l-1.08,1.8q2.52-56.34,1.44-111.36A15,15,0,0,0,375.48,207.48Z" transform="translate(-154.56 -192.72)"/></svg>