<svg id="Layer_1" data-name="Layer 1" xmlns="http://www.w3.org/2000/svg" viewBox="0 0 535.11 520.93"><defs><style>.cls-1{fill-rule:evenodd;}</style></defs><path class="cls-1" d="M56.28,473.28A270.22,270.22,0,0,1,29,510.6a117.58,117.58,0,0,0-8.76,11.28l.84-41.64a66.72,66.72,0,0,0-10.56,37.32A278.26,278.26,0,0,0,14.4,561l1.2,4.8L19,538.32l1.08,2L37,515.88c4.2,20.16,12.12,37.32,23.52,51.48a217.17,217.17,0,0,0-20.28-56,68.05,68.05,0,0,0,15.24-29.64A39.12,39.12,0,0,0,56.28,473.28ZM231.24,348l31.08-191.52L289.56,345ZM344.4,266c-.6-15.72-6-31.2-16.08-46.44L313.8,197.52a89.41,89.41,0,0,0,16.32,43.8A148.71,148.71,0,0,1,344.4,266ZM90.12,51.72A305.72,305.72,0,0,0,80,127.2l-1.2,129.12q-.54,64.26-3.24,129-2.7,64.26-1.56,129a125.29,125.29,0,0,1-3.48,32.16c-2.52,10.2-1.32,18.24,3.6,23.88A265.05,265.05,0,0,0,80.52,503c-1.32-43.32-1-86.28,1.08-129.12,2-43.08,2.88-86.16,2.76-129Q84,180.12,87.24,115.8Zm175.32,72-1.08.6v-.6l-.24.72a7.53,7.53,0,0,0-3,5.16q-12.6,62.82-22.56,126.6c-4.8,30.84-9.36,61.56-13.8,92.4l-.48,3.12-4.44,31.08c-5.76,41.88-11.28,83.76-16.44,125.88-1.32,10.44-2.88,20.88-4.92,31.32q-3.42,18.36,3.6,31a36.92,36.92,0,0,0,3.36-13.08q5.22-63.72,14-126.72L230,356.4a187.45,187.45,0,0,0,59.4-1.68,12.2,12.2,0,0,0,1.56-3.36c3.24,19.8,6.6,39.48,10.2,59.16q11.34,63.36,24.12,126.24a92.25,92.25,0,0,0,11.28,30.6,2.33,2.33,0,0,0,1.56-2.76c-5.64-31.8-11.76-63.72-18.36-96Q310.26,422,302.16,375L280.44,249.6q-9.54-56-14.88-112.2A86.52,86.52,0,0,0,265.44,123.72Zm-61.68-62c-.48-.12-.72,0-.84.36a327.3,327.3,0,0,0-8,57.24c-2.16,42.84-3.6,85.8-4.44,129.12l-2.52,129q-.9,49.32-2.88,98.28l-2-16q-8.1-63.18-21.84-125.64T130.68,209.76l-8.28-31.44q-16.2-61.56-28.2-123.6l-.84-.84L92.28,53A151.5,151.5,0,0,0,95.88,100q10.62,47.34,23.64,94.2Q137,256.8,151.32,320.52A1195.66,1195.66,0,0,1,172.56,444q5,42.12,10.8,84.12a288.37,288.37,0,0,0,3.84,41.4,1.52,1.52,0,0,0,.84-1.32l.24-5.4.84,5.16q.54,2.88,3.24,2.16a3,3,0,0,0,1.08-2.4c-1-14.76-2.16-29.64-3.48-44.52.84-24.48,1.56-49,1.92-73.56.6-43.08,1.56-86.16,2.64-129l3.72-129c1.32-42.84,3.72-85.44,7.32-127.56l-.36-.72Zm100.44,44.4a306.36,306.36,0,0,1-3.72,52.56c-1.92,12.36-.84,22.92,3.36,31.56a14.59,14.59,0,0,0,2.88-8C309,139.32,310,96.84,309.84,54.72A203.08,203.08,0,0,0,304.2,106.08Zm-27.48-25.8-26.88-.6c6.84-13.56,19.08-16.68,37-9.48C284.28,53,274,49.92,255.72,61.08c-11.16,6.84-15.84,17.16-14,30.72,2.28,17.16,12.24,26.52,29.64,27.84,13.2.6,19.56-5.76,19-19q-17.82,15.48-37.08,1.08L248,90l29.28-1.2Zm109,346.32Q374,489.24,363.12,551.76l-3-16c-3-16.2-5.64-32.52-8.16-49q-5-34.56-19.68-61.56c5.88,26.52,11,53.4,15.72,80.64a540,540,0,0,0,14.52,62.88,257.4,257.4,0,0,0,17-72.72,201.46,201.46,0,0,1,3.6-24.12,231.9,231.9,0,0,0,4.8-47.4A2.15,2.15,0,0,0,385.68,426.6ZM371,322.92q-9.72,38.16-19.56,74.76v-1.56a308,308,0,0,0-4.68-70.56q-7.74,21.24-15.12,43.2a162.46,162.46,0,0,0-8.64,44.4q13.14-32.58,23-66.48l.24,1.56a672.17,672.17,0,0,0,3.48,69,377.63,377.63,0,0,0,20.64-73.32,280.47,280.47,0,0,0,11,73.08l.36-.84c-1.92-31.32-5.4-62.52-10.32-93.36Zm60.84,11.28,10,6.6,3.84-4c-4.56-8.52-11.76-12.84-21.48-13q-34.74,47.7-33,112c.6,20.52.24,40.92-1.08,61.44q-2.34,34.38,17.64,59.16a10.71,10.71,0,0,0,6.48,4,13.88,13.88,0,0,0,3.84.12,14.55,14.55,0,0,0,3.6-1.32,50.85,50.85,0,0,0,16.2-12.84c9.84-11.88,13.2-25.44,10.2-40.68-3.24,30.12-16.44,41.76-39.84,35-3-.72-4.8-3-5.64-6.72a279.15,279.15,0,0,1-5.76-58.2c.12-7.32.48-14.52,1.08-21.84L399,441.84l31.56-2.52.84-1.92a8.69,8.69,0,0,0-1.2-9.12,67,67,0,0,0-30.36,3q-3.78-52.92,24.12-96.6Zm-46.44-115c4.2-8.28,5.64-15.36,4.2-21.48Q376.32,221,365,246a264.82,264.82,0,0,1-29,49.68c-7.56,10.2-9.72,19.68-6.24,28.2q13.5-27.36,28.2-53.52C367.44,253.44,376.68,236.4,385.44,219.24Zm-8.76-39.84-36-1.92a163.58,163.58,0,0,0,1.8-44.64,136.12,136.12,0,0,0-5,56.64,110.76,110.76,0,0,0,39.36-1.2Zm17.52-79.2h2.4l.48,38.52,3.84-39,2-3.24-1.68-2.28L401.4,60l-4.32,32L382.2,91.8l-1-33.6a188.34,188.34,0,0,0-7.92,41,123.72,123.72,0,0,0,2.88,40.44l4.92-44.76A18.12,18.12,0,0,0,394.2,100.2Zm-33,3.72-.84-3q-13,27.9-31.92-1.2c-4.2-6.36-4-12.72.6-19.08,9.24-13.08,21.36-16.8,36.48-11.4Q356,45.66,331.44,66.36C319.08,76.92,315.72,90,321.6,105.72q9.9,26.64,34.2,16.2a8.26,8.26,0,0,0,3.72-3.84l2.76,14.76a70.35,70.35,0,0,0,.84-42.48L341.28,89l.12,6.24,20,2.16Zm183.6,1.92C539.4,79.92,522.6,66.6,494.64,66l-3.24,2.16Q469.44,84.54,464,113a247.4,247.4,0,0,0-4,49.92,326.55,326.55,0,0,0,27.48,123.48,744.17,744.17,0,0,1,40.8,120.72A432.51,432.51,0,0,1,541,512.76q-.18,33.84-33.6,46.08c-5.4,1.92-10.08,1.08-14-2.4a58.41,58.41,0,0,1-18.72-32c-4.2,13.8-1.68,27.24,7.56,40.56a13.21,13.21,0,0,0,6,4.92q24.3,8.82,44.28-10.56A29,29,0,0,0,541.08,543a320.42,320.42,0,0,0-3.48-125.52c-2.52-10.8-5-21.48-7.8-32.16a563.9,563.9,0,0,0-31-89.88,555.16,555.16,0,0,1-22.68-61,281.44,281.44,0,0,1-10-47.76,175.13,175.13,0,0,1,13.08-91c7.2-16.68,19.68-21,37.56-12.72,14.28,6.6,23.28,16.56,27,30.12A10.35,10.35,0,0,0,544.8,105.84Z" transform="translate(-10.56 -51.72)"/></svg>