<svg id="Layer_1" data-name="Layer 1" xmlns="http://www.w3.org/2000/svg" viewBox="0 0 302.53 211.5"><defs><style>.cls-1{fill-rule:evenodd;}</style></defs><path class="cls-1" d="M278.76,273.24l.84,7.2-3.6-.12Zm55.08-75.48A94.84,94.84,0,0,0,292.2,191c-16,4.32-27.6,14-35.16,29.28a199,199,0,0,0-14.64,40.2,164.37,164.37,0,0,0-4.8,46.56,169.79,169.79,0,0,0,7.44,43.2A69.92,69.92,0,0,0,270.72,387c13.2,10,28,12.48,44.4,7.44s25.68-16,27.72-32.64a11.17,11.17,0,0,0-3-9.48,38.32,38.32,0,0,1-20.76,23A47.75,47.75,0,0,1,285,378.12a37.33,37.33,0,0,1-19.8-13.2,101.33,101.33,0,0,1-18.48-37.44,105.68,105.68,0,0,1-3.12-33l20.88-.6-8,28.32c3.72-.48,5.52-2.64,5.64-6.48.12-7.8,3-15,8.4-21.72l11.64.24,12.24,34.2-5.28-34.08,30.72.24,1.56-2.64a12.19,12.19,0,0,0,.72-3l-.24-2.88-1-3.36-.6-1.08-34.68-1.08-4.2-13.8,2.76-5.4-3-1.56-1.32,2.28-1.8-3.72.12,6.6-8,15.12-25.32,2.16a151.24,151.24,0,0,1,20.16-56,31.92,31.92,0,0,1,13.44-12.72,62.64,62.64,0,0,1,37.56-7,65,65,0,0,1,31.68,12.36,10.26,10.26,0,0,0-1.8-8.16A55.9,55.9,0,0,0,333.84,197.76ZM217.68,210.12c-3.24,42.72-6.24,85.56-8.76,128.4-.6,10.68-1.68,21.48-3.12,32.16l-.36,3.12-11.28-55.44q-12.42-62.64-29-123.84a10.83,10.83,0,0,0-3,4.44l-.6-5.16a201,201,0,0,0-2.4,53.52,500,500,0,0,1,1.08,56.88,546.53,546.53,0,0,1-5.88,64.68c-1.8,12.12-1.08,22.68,2,31.8a29.85,29.85,0,0,0,4.8-14.52q4-63.9,3.72-128.28c0-15.24-.48-30.24-1.56-44.88,3.48,13.8,6.36,27.6,8.88,41.64q11.16,62.82,25.2,125.16c2.16,9.72,6.12,16.8,11.76,21.48l.6-1.32,1.32,2.4a5.35,5.35,0,0,0,2.52-3.48,47.25,47.25,0,0,0,1.32-12.24,1034.85,1034.85,0,0,1,7-128.16,279.9,279.9,0,0,0,.24-63.36A33.43,33.43,0,0,0,217.68,210.12Zm169-18.84a50.07,50.07,0,0,0-8,22.56l-9.12,75a466.17,466.17,0,0,1-8.16,46.56,270,270,0,0,0-6.6,63.72q1.26,0,1.44-.36a514,514,0,0,0,16.92-81.48Q379,268,383.88,219.72a132.23,132.23,0,0,0,3.72,25,223.35,223.35,0,0,1,6.12,53.52c-.12,11.88,1.92,22.08,6.12,30.84l.36-.36v3.84q1.26,0,1.44-.36A193.47,193.47,0,0,0,410.4,296,262.93,262.93,0,0,1,419,257.52a246.2,246.2,0,0,0,10.2-52.2c3.48,36.12,7.56,72.48,12.12,108.84q4.14,31.5,5.4,63.36c.48,10,3.48,17.16,9.12,21.84a704.41,704.41,0,0,0-4.68-77.28Q443.64,258.36,430,196.44h-.12l.12-1.92-.84,2-.48,1.44A491.29,491.29,0,0,0,407,270a264.31,264.31,0,0,0-5.28,31.68,774.38,774.38,0,0,0-15.6-105.36Z" transform="translate(-153.35 -190.86)"/></svg>