<svg id="Layer_1" data-name="Layer 1" xmlns="http://www.w3.org/2000/svg" viewBox="0 0 311.49 218.42"><defs><style>.cls-1{fill-rule:evenodd;}</style></defs><path class="cls-1" d="M332.4,197.4q-20-17.46-41.28-2.52a65.33,65.33,0,0,0-23.88,30.72,294.06,294.06,0,0,0-12.12,38.64,221.51,221.51,0,0,0-6,47,214.73,214.73,0,0,0,3.6,44.76Q257.4,380.7,279,391.68c14,7.08,28,5.52,41.52-4.68,11.88-9,19.32-20,22.2-33.36.6-2.76-.36-5-2.88-7.08-10.68,16.92-25.56,27-44.88,30.36a43,43,0,0,1-25.2-2.52,141.77,141.77,0,0,1-13.08-79.2,211.83,211.83,0,0,1,56.4-5.4,13.32,13.32,0,0,0,2-6.48,14,14,0,0,0-2.16-8l-.36-.36a112.1,112.1,0,0,0-53.4,4.68,194.14,194.14,0,0,1,31.32-71.52c11.88-5.64,23.28-5.28,34.44.84a31.91,31.91,0,0,1,15.12,17.88,23.35,23.35,0,0,0-.24-17.76A33.91,33.91,0,0,0,332.4,197.4Zm-104.28-2.76A978,978,0,0,0,220,317.88c0,16.2-.6,32.4-1.68,48.6l-.12,3.6a85.56,85.56,0,0,0-4.32-12.48c-5.76-14.16-11-28.56-16-43.08q-20.7-61.74-39.36-122.16l-.84,2.16-.24-2.16h-.6l-.48,6.36a31.33,31.33,0,0,0-.72,8.28l-6,71.28a1053.89,1053.89,0,0,0-2.76,127.56c1.56,1,2.28.72,2.4-.84,1.56-18.36,2.64-37,3.48-55.92.36-9.72,1.08-19.44,2-29a753.23,753.23,0,0,0,4-98.52q20.16,59.76,38.4,120a524.63,524.63,0,0,0,22,59.4,4.34,4.34,0,0,0,1.68-3.24l.12-6.12a52.57,52.57,0,0,0,2.76,6.48,3.41,3.41,0,0,0,1.44-2.52l2.4-73c1.2-43.32,1.68-86.16,1.32-128.28Q228.12,194.46,228.12,194.64ZM447.6,287.4l-3,85.2-5.16,4.32c-6.36,2-12,1.2-17-2.76a14.45,14.45,0,0,0-9-8q-4.86,8.1,0,16.56c6.12,10.68,14.76,14.28,26,10.8a8.38,8.38,0,0,0,5-4.2q11.16-21.78,9.36-48.6c-1.32-19.8-2.4-39.36-3.12-58.44C448.68,283,447.72,284.64,447.6,287.4ZM454,222.72q-.9-.18-1.08.36c-5.16,10.2-5.64,20-1.56,29.4l.72-.72C456.72,242,457.44,232.32,454,222.72Zm-61.44-11.4q-4.68,36.9-5.76,75.24c-.84,26.76-2,53.52-3.84,80.28q-1.26,18.18,5,31.68c4.44-7.32,5.76-13.68,3.84-19-.12-15.84.12-33,.84-51.36q2.52-59,2-116.76c20,.84,40.2,1.2,60.36,1a5.94,5.94,0,0,0,2-3.12,13.12,13.12,0,0,0-2.28-11.52l-.84-.6a30.78,30.78,0,0,0-8-1.56c-30-.12-60.12.6-90.36,1.92a6.21,6.21,0,0,0-1.92,3.84,12.78,12.78,0,0,0,1.08,7.32Z" transform="translate(-146.07 -187.99)"/></svg>