<svg id="Layer_1" data-name="Layer 1" xmlns="http://www.w3.org/2000/svg" viewBox="0 0 305.8 214.7"><defs><style>.cls-1{fill-rule:evenodd;}</style></defs><path class="cls-1" d="M160.2,198.12q-3.06,38-4.2,77.88-1.26,48.06-7.2,95.64c-1.56,11.88-.24,22.56,3.84,32.28a2,2,0,0,0,1-1.44,1003.08,1003.08,0,0,0,8.28-107.88c.36-10.68,1.08-21.48,2.16-32.28a204.83,204.83,0,0,0-3.36-64.2Zm2.52-1.44a175.9,175.9,0,0,0,10.68,51,1162.42,1162.42,0,0,1,37.08,122.16c2.76,11.64,6.84,21.48,12.12,29.52a5.89,5.89,0,0,0,1.68-5.52l-.24-1.32a393.79,393.79,0,0,0,7.44-71q.54-32,2.88-64.08a395.23,395.23,0,0,0-.12-64.2,282.26,282.26,0,0,0-8.88,74.64,724.43,724.43,0,0,1-5.64,95.64c-.24,1.8-.36,3.6-.48,5.4-4-17.88-8.64-35.76-13.8-53.4Q187.26,253.92,165.12,194C163.44,194,162.6,194.88,162.72,196.68Zm152-3.72-8.52-.6c-13.68,6.24-24.12,16.44-31.44,30.72a139.34,139.34,0,0,0-13.8,42,346.21,346.21,0,0,0-4.32,47.4c-.36,15.72-.24,31.44.48,47.16.84,16.68,7.32,30,19.44,39.84,12.84,10.44,26.28,10.08,40.08-1,12.72-10.2,19.92-23.52,21.6-39.84l.24-3.72L335.4,353A69.21,69.21,0,0,1,302,384.84a46.77,46.77,0,0,1-22.56,4.2c-11.4-12.72-17.28-28-17.64-45.6a406.05,406.05,0,0,1,1.08-45.24l52.8-.6a9,9,0,0,0,2.64-7.68L318,286.2a5.93,5.93,0,0,0-1.56-3.12c-15.24.24-30.6,0-46.08-.84a15.09,15.09,0,0,0-5.4,1.44q5.22-38.52,31.08-65.4c6.12-6.36,13.68-9.12,22.92-8.4a28.77,28.77,0,0,1,15.84,6.36,35.07,35.07,0,0,1,8.28,9.12A29,29,0,0,0,333.24,201,31.61,31.61,0,0,0,314.76,193Zm54.48,14.64c-.84,42.84-1.92,85.92-3.24,129a288.23,288.23,0,0,1-2.76,32.16c-1.8,12.6-.36,23.16,4.44,31.68a17.14,17.14,0,0,0,3.6-9.6c1.44-22.68,2.52-45.36,3.36-68.28l.84-26.52c14-.36,28.44-1.32,43.08-3l1-1c3.6-5.16,3.6-10.32-.12-15.24a141.27,141.27,0,0,0-43.8,7.08c.36-26.88-.12-53.52-1.2-80l77.4,7.44a6.58,6.58,0,0,0,1.92-3.72l.24-4.08v-.84l-.12-.84a10.37,10.37,0,0,0-.84-2.52l-.36-.72a1.93,1.93,0,0,0-.84-.48,471.81,471.81,0,0,0-66.48-5.76v.12l-3.24.24-3.24.12a10.52,10.52,0,0,0-5,1.32l-1,.72-.24.72V196A21.2,21.2,0,0,0,369.24,207.6Z" transform="translate(-148.16 -192.36)"/></svg>