<svg id="Layer_1" data-name="Layer 1" xmlns="http://www.w3.org/2000/svg" viewBox="0 0 289.52 212.4"><defs><style>.cls-1{fill-rule:evenodd;}</style></defs><path class="cls-1" d="M289.44,287.52l6.24-12.84,1.8,13.56h-2ZM159.6,198l-.24-4q-4.5,39.06-5.76,81.12-1.62,64.26-3.12,128.28a2.32,2.32,0,0,0,2.16,2.16,15.05,15.05,0,0,0,4-10.32c.24-10.2.72-20.4,1.32-30.72l2.52-42.24c1.8-36.12,1.92-72.12.12-108a418.6,418.6,0,0,0,13,44,1196.33,1196.33,0,0,1,36.6,121.56c2.16,8.88,5.52,15.84,10.08,20.76a5.36,5.36,0,0,0,1.8-5.28l-.72-3.72q4.86-32.22,7-66.12,4.14-64.44,3.6-127.44c-4.44,12.24-6.84,25.68-7.44,40.44q-2.16,63.36-8.76,126.6-5.94-25.38-14-50.76L163,193.2A12.06,12.06,0,0,0,159.6,198Zm136.56,2.88q-27.54,18.18-35.52,51.84a221,221,0,0,0,5,121.68,22.11,22.11,0,0,0,8.76,11.76c15.36,10.68,30.72,9.84,46-2.28q17.46-13.86,6.48-28.08a49.1,49.1,0,0,1-24.36,20.28c-13.08,5.16-22.92,2.28-29.4-8.88a97.43,97.43,0,0,1-12.24-36.36,183.37,183.37,0,0,1-1.32-26.76l17.4-.72a41.09,41.09,0,0,0,.36,21.6l.72-1.68a182.16,182.16,0,0,1,5.4-20l17-.6a172.63,172.63,0,0,0,9.36,28.2,73.13,73.13,0,0,0-1.2-28.32l21.12-.36a11.16,11.16,0,0,0,1.68-10.44l-.24-.84-.36-.84-.48-.72a.91.91,0,0,0-.84-.48c-8.4-.36-16.92-.6-25.44-.6-2.16-6.36-4.08-12.48-5.64-18.6l1.32-2.28.24-.84c.6-3.12-.6-5-3.48-5.88l-.24.24-.84-3.48c-.48.12-.72.6-.72,1.32l.12,3.6a25.43,25.43,0,0,0-3,5L283.32,287a72.72,72.72,0,0,0-22.8,3.12,167.84,167.84,0,0,1,15.84-54.72,32.32,32.32,0,0,1,15.48-15.72q29.88-14.58,47.4,10.08l.6-.24c-2.28-21-15.24-31.32-39-31A16.83,16.83,0,0,0,296.16,200.88ZM406,274.32a50.31,50.31,0,0,1-33.84,17l-1.8-80.64c16.8,1.08,29.52,8.4,38.28,21.84C418.32,247.56,417.36,261.48,406,274.32Zm-12.6,25,2.28-1.08c16.68,3,28,12.48,34.08,28.44q7,17.82-5,31-22.32,24.84-55.8,21.24l2.88-75.36A49.27,49.27,0,0,0,393.36,299.28ZM369.84,203.4l-.48-6.12c-2.28,1.2-3.36,3.36-3.36,6.48.36,43.2-.6,86.28-2.64,129.12-.6,10.8-1.44,21.48-2.52,32.16-1.32,11.88,0,22.68,3.84,32.4l2-1.92.72.84a73.23,73.23,0,0,0,45.48-10.2q35.46-20.88,24.48-62Q430.74,298.56,409,289.2c9.72-9.48,14.16-22.8,13.2-40C420.84,223.08,407.4,207,382.08,201l-6.48-.12c-2.52-.12-4.44.6-5.76,2.4Z" transform="translate(-150.48 -193.2)"/></svg>