<svg id="Layer_1" data-name="Layer 1" xmlns="http://www.w3.org/2000/svg" viewBox="0 0 422.36 355.8"><defs><style>.cls-1{fill-rule:evenodd;}</style></defs><path class="cls-1" d="M182.64,149.76Q178.14,214,176.16,279c-.6,21.48-1.56,43.08-2.76,64.8-1.2,22.44-1.8,44.88-1.92,67.08-8-32-16.8-64-26.28-96Q131.52,268.44,119.28,222,102.72,160.26,82.44,99.84c-1.56.48-2.28,1.8-2,4.08l.24,2v.12q-1.62,44.1-5.4,88.32a894.27,894.27,0,0,0-2.76,96.72,759.77,759.77,0,0,1-7.56,128.16c-1.8,12.24-.48,22.8,3.72,31.8,2.52-15,4.44-30.48,5.76-46.2A1216.52,1216.52,0,0,0,78,275.76a321.15,321.15,0,0,1,1.2-32.28,1170.87,1170.87,0,0,0,4.56-117.84A222.78,222.78,0,0,0,90,149.76c11.4,35.64,22,71.52,31.92,107.4l33.84,123.36c1.44,5.4,2.76,10.8,3.84,16a180.72,180.72,0,0,0,12.12,38.76v4.44l1.44-.24.24-.72,1.32,2.88.72-.84a28.65,28.65,0,0,0,1.2-22.68l-.12-.12c1.32-10.68,2-21.6,2.4-32.64l.6-19.44q1.44-65,5.4-129c2.76-43.08,3.6-85.8,2.52-128.4C185.28,121.68,183.72,135.48,182.64,149.76Zm67.56-22.2a215.62,215.62,0,0,0-32,89.52c-4,31.68-6.72,63.6-8.52,95.64A355.11,355.11,0,0,0,224.52,436.8q7.38,23.58,32,17.64a84.61,84.61,0,0,0,45.12-27.12c10.08-11.4,13.92-23.52,11.4-36.6A38,38,0,0,0,302.4,402.6c-13.8,23.64-34.32,35.64-61.32,36.24-13.56-12.84-21-28.92-22.32-48.48a916.53,916.53,0,0,1-.84-113.4l2.88,1a3.66,3.66,0,0,1,2.64,2.16c15.48-1.8,31.08-4,46.56-6.72a4.34,4.34,0,0,1,2.76-2.28l1.56-.48a6.32,6.32,0,0,0,1.44-4.56,10.78,10.78,0,0,0-.84-3.24c-.36-.36-.6-.48-.84-.48a59.3,59.3,0,0,1-9-1.68,319,319,0,0,0-46.8,8.88l.48-7.68a406.46,406.46,0,0,1,8.76-60.36A190.79,190.79,0,0,1,260,129.6c21.36-9,38.76-5.28,52.2,11.4a7.85,7.85,0,0,0,.36-4.68c-4.8-18.6-18.48-27.36-40.92-26.16v.12l-3.24,1-4.92,1.32-1.44,1.56-1.92,1.56-2.88,1.44ZM371.64,263.88l-40.08,4.56L356.76,151l12.6,91ZM356.4,120.12c-1.56,6.72-2.88,13.44-4.08,20.28-4.92,28-10.8,55.68-17.4,83.4Q320,286.08,306.12,348.48a76.74,76.74,0,0,1-5.16,15.6c-5.52,12.24-5.64,22.68-.36,31.2a134.38,134.38,0,0,0,8.76-26.76q9.54-45.18,19.8-90.12a282.76,282.76,0,0,0,43.92-.24q4.5,45.18,8.28,90.48c1.68,21.48,2.76,42.84,3.24,64.32.24,10,3.12,17.28,8.52,21.84a45.11,45.11,0,0,0,2.16-22c-2.76-21.36-5-42.72-6.72-64.2q-3.6-45.72-8.88-91.08l1.8-.24.48-.6c3-5.64,2.4-10-2-13.2l-1.8.12-2.88-22.44c-2.76-21.24-5.76-42.48-9.24-63.72a291.48,291.48,0,0,1-3.48-63.6l-.48-.72-1.44-1.68a41.2,41.2,0,0,0-2.28,5.28A6.24,6.24,0,0,0,356.4,120.12Zm71-1.8-.48,2.16c-2,20.64-3.48,41.52-4.56,62.64q-3.24,64.08-7.32,128.28-4.14,63.9-6,127.44c1,1.56,2.28,1.8,3.84.84,4.44-33,7.44-66.6,8.88-100.56L424.32,282a11.75,11.75,0,0,0,3.72-1.08,207.47,207.47,0,0,0,16-14.76,75.07,75.07,0,0,0,1,25.2l7.56,38.28q12.06,63.54,29.4,124.68c4.08-3,5.4-7.56,4.08-13.68L472.44,381q-13.32-59.4-25.08-118.44,38.16-40.86,31.92-96.36c-2.88-26-15.48-44.28-37.68-55a15.28,15.28,0,0,0-12.24,2.16,6.42,6.42,0,0,0-1.92,4.8Zm5.16,4.08c18.12,1.08,30.48,10.68,37.08,28.92A74.82,74.82,0,0,1,474,184.68c-3.24,35.88-19.44,62.52-48.84,80.16L428,210.72c1.08-21.24,2.64-42.6,4.68-63.84A118.92,118.92,0,0,0,432.6,122.4Z" transform="translate(-64.14 -99.84)"/></svg>