<svg id="Layer_1" data-name="Layer 1" xmlns="http://www.w3.org/2000/svg" viewBox="0 0 310.22 209.16"><defs><style>.cls-1{fill-rule:evenodd;}</style></defs><path class="cls-1" d="M336.36,215.16l.24.84.36,1.44.84,2.64-.36.72-.6.48-1.92.36h-2.16c-13.08-10.44-27.6-13.56-43.8-9.48q-39.78,21.78-43.2,67.32l-.6,11a315,315,0,0,0,43.8-4.44l9.24.24a8.13,8.13,0,0,1,4.44,6.36,15.47,15.47,0,0,1-1.2,9,316.74,316.74,0,0,1-56.4-.36,235.77,235.77,0,0,0,6.24,52,70.11,70.11,0,0,0,10.56,24.12c25.44,8.28,46.8,2.4,64.2-17.88,7.32,9.12,5.64,17.64-5,25.68-16.2,12.12-34.2,15.48-53.76,10.08a22.77,22.77,0,0,1-16.08-15.36Q231,321.42,242.4,259.56c5.88-32.4,24.36-53.88,55.2-64.44,15.72.84,28.44,7.32,38.16,19.2Zm-111.84-19.8q.18,63-3.6,127.56-1.08,20-1.08,39.6,0,21.42-7.2,38.16l-.36-1.2a4.64,4.64,0,0,1-1.44,2.28c-5.76-8-10-17.88-12.6-29.4a976.65,976.65,0,0,0-37-121.44L159,244q-1.44,57.42-3.72,114.36a247.68,247.68,0,0,1-4.32,38,5.47,5.47,0,0,1-1.8,3.24c-4.92-8.52-6.12-19.08-3.72-31.68a114.36,114.36,0,0,0,2.16-15.84A1185.59,1185.59,0,0,0,151,223a82.35,82.35,0,0,1,2.76-25.68l1.92,5.16,1.8-8.4a728.53,728.53,0,0,0,29,107.64l8.4,24.48a449.21,449.21,0,0,1,14,52.32A80.8,80.8,0,0,1,210,367.92a237.37,237.37,0,0,0,3.24-32.16q2-64.44,5.4-128.28C219,202.08,220.92,198,224.52,195.36Zm128.88,1.08.72.84q17.28,60.66,31.8,122.4c4.32,18.6,7.8,37.2,10.32,55.8a26.71,26.71,0,0,1,1.92-5.16,213.61,213.61,0,0,0,10.32-30.24q16.2-62.28,34-123.6A59.36,59.36,0,0,1,454,194c1.56,12.72-.48,25.56-6,38.64a217.84,217.84,0,0,0-10.44,30.12L404,386.4a97.36,97.36,0,0,1-4.92,14,2.58,2.58,0,0,1-1.92,2.76q-15.66-59.94-30.48-122-9.72-41-16.8-82.32c-.36-2.16.48-3.24,2.4-3.24Z" transform="translate(-144.24 -194.04)"/></svg>