<svg id="Layer_1" data-name="Layer 1" xmlns="http://www.w3.org/2000/svg" viewBox="0 0 306.44 206.16"><defs><style>.cls-1{fill-rule:evenodd;}</style></defs><path class="cls-1" d="M322.56,202.56a180.87,180.87,0,0,0-3.36,53.16c1.44,18.84,2.4,37.44,2.88,55.92.84,28.56-10.56,49.8-34,63.6a30.85,30.85,0,0,1-11.52-.72q-31.5-8.46-28.92-43.68c1.2-16.2,2.52-32.4,3.84-48.48a272.67,272.67,0,0,0-1.56-64.2,2.1,2.1,0,0,0-.84,1.68A1166.18,1166.18,0,0,0,242.88,348q.18,22.68,17.64,36.36,24.48,19.08,46.32-4.2c12.6-13.44,19.56-29.88,20.64-49.44A652.52,652.52,0,0,0,323,202.44Zm-93.12-9.12a443.9,443.9,0,0,0-80.28,6.84,14,14,0,0,0-.36,8.88l.36.84c15.72.36,31.32.12,47-.6a149.77,149.77,0,0,0-1.44,18.36L190,356.16A86.61,86.61,0,0,1,188,372c-2,10.08-.24,17.88,5.4,23.52a4.43,4.43,0,0,0,1.32-3.24c.6-31.8,1.8-64.08,3.84-96.6.6-10.68,1.56-21.48,2.88-32.28a199.62,199.62,0,0,0-1.2-54.24l40.2-3.24a12.44,12.44,0,0,0,.72-9.72l-.72-1.68-.84-.48ZM385.08,398.52A1013.82,1013.82,0,0,0,427.8,291.84q10.8-31.86,23.4-62.76c4.92-12.36,4.68-22.8-1-31.32q-9.72,27.9-19,56Q410.4,317.16,385.8,377.4l-6.6-57.6a732.4,732.4,0,0,0-25.8-124.92c-4.44,4-5.64,9.36-3.84,16.08a835.42,835.42,0,0,1,22.92,126.36,401.91,401.91,0,0,0,11.16,62.28A2.32,2.32,0,0,0,385.08,398.52Z" transform="translate(-148.25 -193.44)"/></svg>