<svg id="Layer_1" data-name="Layer 1" xmlns="http://www.w3.org/2000/svg" viewBox="0 0 569.9 406.97"><defs><style>.cls-1{fill-rule:evenodd;}</style></defs><path class="cls-1" d="M142.2,147.24a58.15,58.15,0,0,1,.84,44.64A105.84,105.84,0,0,1,119.4,229a109.61,109.61,0,0,1-21.12,16.68l6.6-112Q131.16,120.9,142.2,147.24Zm8.64,1.8-1.08-3.48-1.08-3.36-1.32-3.36-1.44-3.36-1.68-3.36-3.6-6.72-4.08-6.84c-12.12-9.36-22.68-8.64-31.92,2l-.6,1-1-3.36Q88.86,276.06,77.64,435.72a101.71,101.71,0,0,0,3.6,35.4l.24-.12a1122.34,1122.34,0,0,0,16-207.6l21.36-15.72a2220.4,2220.4,0,0,0,53.76,227.16q6.3-47.16-10.56-97.08Q149,339.42,138.6,300l-15-56.52Q151.32,215.22,154,176a78,78,0,0,0-2.16-23.64Zm-17.16-62.4q-58.14,9.18-115.56,22.2c-3,5.16-2.64,10,.84,14.52l50-8.64a191.46,191.46,0,0,0-3.6,39.84c.12,18.12.12,36.24-.24,54.36l-1.44,79.56c-.48,42.6-1.44,85.44-3,128.28a111.4,111.4,0,0,1-3.6,23.76c-3.48,12.72-2.16,23.4,4.08,32.16a55.81,55.81,0,0,0,5.52-20.16c1.8-20.16,3-40.44,3.84-61Q72.9,327.66,72,263.28q-.18-16.38.36-32.4c1.44-39.24,1.44-78.24.12-116.76l61.44-10.44.72-1C137.64,97,137.4,91.56,133.68,86.64ZM200.16,111a242.43,242.43,0,0,1-5.88,126.24c-3.6,11.4-10.68,15.6-21.36,12.6a5.48,5.48,0,0,1-4-3.6,100.29,100.29,0,0,1-5.88-39.36,530.27,530.27,0,0,1,6-57C172,132,179.4,117,191.28,104.76c3.72-.72,6.48.12,8.4,2.64l.12,1.68-.12,1.56Zm-9.72-20.4-.6,1q-25.74,29.52-29.52,70.8c-1.92,21-3.72,42-5.4,63.12-1.56,19.32,5,34.2,19.56,44.88,15.48-2,25.2-11.16,29.16-27.24a384.72,384.72,0,0,0,11.28-87.84A147.05,147.05,0,0,0,204,96.12h-1.32l-1-.12-1.56-1-.6-.84A13.08,13.08,0,0,0,190.44,90.6Zm124.32,8.64A38.91,38.91,0,0,1,316.68,111a40.66,40.66,0,0,1-1.44,10.92l.12,14.76c.84,42.72.72,85.44-.12,128.28a1085.58,1085.58,0,0,1-10.68,128.28c-3.48,24.6-13.2,46-28.92,64.08a37.84,37.84,0,0,1-29.76-3.24,6.42,6.42,0,0,1-3.6-4.68,472.22,472.22,0,0,1-7.8-102q1.8-63.9,5-128.16,3.24-65.16,2.4-128.28c-3.24,2.16-4.92,5.64-5,10.56q-1.08,44.82-2.76,89.28-2.52,64.8-5.52,129.12a1129.34,1129.34,0,0,0,1.08,127.44c1.08,17.52,10.08,28.32,26.88,32.28a21.39,21.39,0,0,0,15.84-2.28c15.72-8.88,25.92-22.56,30.84-41a585.32,585.32,0,0,0,19-128.64c1.56-42.84,1.92-85.8,1-129.12-.36-21.24.24-42.48,1.92-64q1.26-15.66-7.2-23.4A18.47,18.47,0,0,0,314.76,99.24Zm67.44,5.64c-3.24,41.88-7.08,83.76-11.52,125.4-4.8-26.52-8.4-53.16-10.8-80.16a489.29,489.29,0,0,0-9.72-63.24h-.6a570.6,570.6,0,0,0-6.84,68.64A627.61,627.61,0,0,1,337,219.36a235.68,235.68,0,0,0-2,47.4l.6-.12A486.31,486.31,0,0,0,350.88,148.8q5.4,45.54,11.64,91.08c1.56,11.4,4.56,21.36,9.24,29.88a323.82,323.82,0,0,0,11.16-68.88,602.52,602.52,0,0,1,7.08-64c2.76-16.56,2.52-32.4-1-47.4l-3.48.84A48.41,48.41,0,0,0,382.2,104.88ZM460,83.64c-28.44,17.4-44.88,43.2-49.32,77.64q-8.28,64.26-12.72,129-4.32,63.54-3,127.44A126.81,126.81,0,0,0,410,475.44q8.64,16,27.72,15.12c18.84-.84,32.76-10.32,41.88-28.44a21.61,21.61,0,0,1,.84-4.56,15.65,15.65,0,0,1,4.44-6.6l.72-2.88c1.8-7.2,0-12.12-5.64-14.64a8.92,8.92,0,0,0-3.84,4.56,75.88,75.88,0,0,1-21.6,30.36,34.64,34.64,0,0,1-29.64,0,15.61,15.61,0,0,1-8.52-8.52q-16.38-41-14.16-87,3.06-63.9,6.48-127.44a501.52,501.52,0,0,1,16-102.24q9.18-34.92,42.84-42.48a19.8,19.8,0,0,1,5.76,5.16,29.77,29.77,0,0,0,11.88,10,7.2,7.2,0,0,0,1.32-6.48,40.15,40.15,0,0,0-18.36-25.2l-3.84-.36Zm88.56,17.28q-32.76,52.56-37.08,116c-1.32,19.56-2.28,39.12-3.12,58.68l-.24,4.08c-.84,21.84-1.32,43.68-1.56,65.52-.12,16-.48,31.92-1.2,47.88q-2,53.1,28.8,94.2c10.2,3.24,19.56,2,27.84-3.84a54.44,54.44,0,0,0,9.84-8.4q20.34-21.24,11.52-45.12l-2.88,1.68-1.08.72L575,441.84l-5.52,10.8q-12.42,20-35.64,13a44.32,44.32,0,0,1-7.56-13.8,275.26,275.26,0,0,1-13.08-92.4Q514.32,323,516,286.92a110.88,110.88,0,0,0,32.16.72l.72-.6q5-8.64-.72-16.2l-31.44,1.44c.72-13.68,1.56-27.36,2.4-41.16a325.68,325.68,0,0,1,24.6-106c5.64-13.8,15.48-20.88,29.4-21a28.7,28.7,0,0,1,7,4.8,3.05,3.05,0,0,0,1.92.6,11,11,0,0,0,1.2-8,20.7,20.7,0,0,0-10.08-13.8l-9.24-.36A35.58,35.58,0,0,0,548.52,100.92Z" transform="translate(-16.09 -83.64)"/></svg>