<svg id="Layer_1" data-name="Layer 1" xmlns="http://www.w3.org/2000/svg" viewBox="0 0 554.17 498.12"><defs><style>.cls-1{fill-rule:evenodd;}</style></defs><path class="cls-1" d="M230.52,361.2c8.64,15,7.08,28.32-4.68,40.08-10.92,11-24.72,15-41.4,11.76l-7.2-1,4-61.8a66.5,66.5,0,0,1,45,6.12Zm1.68-6a31.08,31.08,0,0,0-13.56-10.92A54.17,54.17,0,0,0,198.12,340l-5.52.24-8.76,1.68a15.27,15.27,0,0,0-8.16,4.8v4h4l-8.28,60.72a373.3,373.3,0,0,0-4.68,44c-1,15-2.16,30-3.72,44.88a43,43,0,0,0,2.16,18.36l10.8-96.24a51.8,51.8,0,0,0,20.4,3.84l9-1a66.55,66.55,0,0,0,11.4-3.72l54.6,103.68a10.29,10.29,0,0,0,0-10.8q-25.38-47.7-51.12-94.56a31.85,31.85,0,0,0,15.48-15.24,46.8,46.8,0,0,0,4.56-23.88,50.73,50.73,0,0,0-6.12-22.08ZM229.44,83a64.21,64.21,0,0,0-32.76,26.88A141.41,141.41,0,0,0,179,152a184.52,184.52,0,0,0-4.92,46.56l.6,46.8a97.66,97.66,0,0,0,11.4,45.24,85.89,85.89,0,0,0,31,33.24c8.88,1.68,16.56-1,23-7.8a157.29,157.29,0,0,0,20.52-27.24A153.21,153.21,0,0,0,273,263.64c1.44-3.72,2.76-7.56,4-11.28a157.38,157.38,0,0,0,6.48-31.44,198.93,198.93,0,0,0,.24-36.84A185.78,185.78,0,0,0,245.16,85.2l-2.76.36a5.57,5.57,0,0,0-3.24-1.8Zm9.6,11.4.6,1.32a25.82,25.82,0,0,1,8.76,8.52q36.9,57.42,28.08,124.92c-4.56,35.16-21,62.52-49.44,82.32l-9.24.48-.24-.24c-14.4-6.36-24.48-16.92-30.36-31.68a386.74,386.74,0,0,1-7.8-107.28q3.6-54.36,50-80.52A41.44,41.44,0,0,1,239,94.44ZM196.2,69q-79.38-5.76-158.52-6.24l-2.28.12L33.12,63H30.84l-7.32-.84q-3.42,3.6-1.8,9l.36,1.32,94.44,7.2a1114.21,1114.21,0,0,0-.84,118.44q.36,8.1.36,16.2l-.24,16.08-.36,16.08q-2.7,72.54-4.2,145.08c-1,44-3.36,87.6-7.32,130.44l2.16.36a504.51,504.51,0,0,0,10.44-117.48q-.18-8.1,0-16.2l.36-16.08.24-16.2q1.62-72.54,3.6-145.2,1.8-65.7-1.68-131.4l77.16.6,1.2-4.08ZM379.56,338.28q2.52,49.5,1.8,99.72a115.33,115.33,0,0,1-14,54.48c-8.16,15-20.52,23.28-37.2,24.84a6.44,6.44,0,0,1-5.88-2.64C313.32,500.52,308,484.2,308.4,465.6c.84-43.08,2.76-85.8,6-128.16l-.24-.84a8.66,8.66,0,0,0-1.08-2.4,1.67,1.67,0,0,0-1.8,1.68,265.38,265.38,0,0,0-4.68,51.84q.18,27.36-2.16,55.08-3.6,43.38,14.28,79.68c6.36,6.6,14.28,7.92,23.52,4.08q31-12.78,37.2-44.64A456.68,456.68,0,0,0,386,352.68Q385.14,342.06,379.56,338.28Zm-8-236.52c1.56-1,2.88-.84,3.72.36a159.94,159.94,0,0,1,32.28,83.52,526.61,526.61,0,0,1-6.24,68.88c-5.4,33-25.44,51.72-60.12,55.92a101.85,101.85,0,0,1-24.6-17.88,252.7,252.7,0,0,1-8.76-83.76c1.32-21.6,3.48-43,6.48-64.2,3-22.68,14-39.12,32.88-49.32q12.78-3.06,22.68,3.24l.12.84a4.3,4.3,0,0,0,.48,1.32Zm-.6-11.4A29.12,29.12,0,0,0,347.4,85c-14.28,4.92-23.52,14.52-28,28.8a375,375,0,0,0-16,123.48q.54,16,.72,31.68c.12,19.08,7.68,34.08,22.68,44.76q25.38,18.18,50.88-3.6a42.65,42.65,0,0,0,19.56-23,259.07,259.07,0,0,0,16.32-98.4Q412,133.56,379.08,88.8a14.11,14.11,0,0,0-3.6-1.2,1.5,1.5,0,0,0-1.32.36l-1.8,3.12-.36.12Zm73.08,0c1.2,42.84.72,85.56-1.44,128.4s-3.48,85.92-4.32,129q-1.26,65.16-7.56,129.12a254.73,254.73,0,0,1-5.16,32c-2.28,9.72-1.32,17.64,2.76,23.52a1130.56,1130.56,0,0,0,12.48-126.6L444,326.4l4.44-128.28q2-59.76-1.68-118.92l58.92,4.68.84-2.4a7.51,7.51,0,0,0,.36-3.24,11.69,11.69,0,0,0-1.44-4.92,212,212,0,0,0-26.76-3.12l-48.36-2.64a765.18,765.18,0,0,1-105.6-13.68l-.12.12-.36.24-.72.72a10,10,0,0,0-1.2,4.08,7.17,7.17,0,0,0,1.56,5.64A125.68,125.68,0,0,0,366,74L444.48,79A70.69,70.69,0,0,0,444,90.36Zm130.92,3a698.66,698.66,0,0,0-8.28,121.8c.36,21,.36,41.88,0,62.88l-10.32-.72q-42.66-.36-84.24,2.4c.36-15.24,1-30.36,1.8-45.6,2.28-43.32,3.6-86,3.72-128.28-.6-.12-1,0-1,.6q-5.58,55.44-7.92,111.84Q466,282.72,467.4,347.4a984.65,984.65,0,0,1-5.64,129.12c-1.2,10.68-2.64,21.48-4.32,32.16q-2.34,14.58,3.6,24.12l.72-1a294,294,0,0,0,6-40.32q5-63.72,3.84-128.4c-.36-25.32-.36-50.52.24-75.84a458.28,458.28,0,0,0,94.56,3.6c-.48,17.52-1.2,35-2,52.44-1.56,27-3.48,53.76-5.76,80.52Q553,488.64,550.68,552q1.26,0,1.44-.36a142.54,142.54,0,0,0,6.6-41,906,906,0,0,1,7-95.52,914.87,914.87,0,0,0,6.84-128.52c-.6-43.08,0-86.16,1.92-129C575.52,135.6,575.64,114.24,574.92,93.36Z" transform="translate(-21.2 -53.88)"/></svg>