<svg id="Layer_1" data-name="Layer 1" xmlns="http://www.w3.org/2000/svg" viewBox="0 0 515 392.76"><defs><style>.cls-1{fill-rule:evenodd;}</style></defs><path class="cls-1" d="M178.08,136.08l2.64-1.32q23.22-11.16,38.52,12.12a56.43,56.43,0,0,1,8.28,43A99.36,99.36,0,0,1,210,230.52a73.76,73.76,0,0,1-36.12,26.88,46.84,46.84,0,0,1-14.16,2.52,1323.71,1323.71,0,0,0,15.84-137.64,764,764,0,0,0-22.44,137.64q-14.22,106-23.88,216.72l2.52.36Q148.5,375.66,158,272.88a28.77,28.77,0,0,0,19.32-5.52,920,920,0,0,0,66,211.2,27.05,27.05,0,0,0,.36-20.76l-1.32-1q-32-95-60.84-191.76a96.83,96.83,0,0,0,43.8-49.92,107.76,107.76,0,0,0,7.8-36.24,67.11,67.11,0,0,0-12.84-42.72,44.82,44.82,0,0,0-31-19.32C177.6,121.2,173.88,127.56,178.08,136.08Zm45.36-44.4q-90.54,7.92-180.72,9l-.24.84a13.18,13.18,0,0,0,.6,8A930.17,930.17,0,0,0,138,112.68a266.46,266.46,0,0,0-6.72,40.68c-4,42.6-7.08,85.44-9.24,128.28-2.28,42.6-5,85.2-8.52,127.56-1,10.68-2.28,21.36-4.08,32q-3.06,18.36,3.6,32A979.38,979.38,0,0,0,123.72,361.2Q126.24,296.94,132,233q5.22-60.84,7.56-120.36c28.08-.6,56.16-2.52,84.12-5.52l.72-1C227.16,101,226.8,96.12,223.44,91.68Zm259.8,271.56a378.63,378.63,0,0,0-1.56,43.68c.36,14.52,1.2,28.92,2.64,43.2q3.06,31.5,30.36,17C529.8,459.24,538,446.88,539,430a40,40,0,0,0-.6-10.08,144.92,144.92,0,0,1-34.32,37.68l-7-.24c-10.44-13.92-13.8-30.84-9.84-50.88a58.48,58.48,0,0,0,1.2-12.12l1.2,2,42.24-11a13.76,13.76,0,0,0,2-8.88,13.43,13.43,0,0,0-3.12-7.32A143.43,143.43,0,0,0,488.76,384c-5-28.2,2.16-50.64,21.6-67.56A32.34,32.34,0,0,1,533,308.16l3.36.84a7.16,7.16,0,0,0,1.92-5.28,10.32,10.32,0,0,0-2.88-7.44l-1.08-1.08-13.8-.84c-14.76,4.2-24.6,13.92-29.4,29.16A186.43,186.43,0,0,0,483.24,363.24Zm-124,14.52q-5,39.78-34.56,66.84c-19,17.4-36.72,17.52-53.4.6a22,22,0,0,1-5.88-10.68,495.8,495.8,0,0,1-11.28-110q.72-64.8,7.68-128.4c3.24-28.68,12.6-54.72,28.2-77.88l2.16-.6A132.53,132.53,0,0,1,317,112.32a15.11,15.11,0,0,1,10.08,1.56,71.5,71.5,0,0,0,4.2,7q26.46,40,33.36,89.28a457.91,457.91,0,0,1-.12,127.44C362.76,351,361,364.44,359.28,377.76Zm31.08-80a573.72,573.72,0,0,0-8,85.08,264.57,264.57,0,0,1-2,29.16,86.46,86.46,0,0,0,6.84,46.8c5.4,12,14.4,13.92,26.76,5.88a17.91,17.91,0,0,0,5-4.92,147.52,147.52,0,0,0,25.68-80.16c.6-18.6,1.56-37.2,3.12-55.8q1.26-15.12-6.12-23.4A58.51,58.51,0,0,0,439,324.72q6.12,63.54-20.4,120.12c-7.92,7-16.56,8.64-25.92,5.16a41.29,41.29,0,0,1-5.76-24.36q4.14-65,4.32-128.28A1.85,1.85,0,0,0,390.36,297.72Zm-36.72-165.6c-3.72-15-12-24.72-24.6-29.28l-1-.72a21.54,21.54,0,0,0-14.28-2.28A97,97,0,0,1,301,102.48c-6.48.84-11.28,3.84-14.52,9A216.42,216.42,0,0,0,253.32,211.8q-5,63.54-4.32,128.4.36,32,.36,64.08c-.12,28.08,10.56,50.16,31.8,66.24l1.08,1.32.84.84,1,.84,3.24,1a19.85,19.85,0,0,0,14.16.12q42.48-15.12,54.48-57A512.91,512.91,0,0,0,375.6,290.88,451.71,451.71,0,0,0,361.8,164.4Zm77.64-12q22.5,58,9.48,119.52c-4.32,20-16.44,30.36-36.48,30.84q-3.42.18-4.68-2.52-16.38-30.24-12.6-66.72a180.75,180.75,0,0,0,.84-26.64Q386,135.36,417.72,116l9.24,1.08a12.71,12.71,0,0,0,2.4,1.44A3.21,3.21,0,0,1,431.28,120.12Zm-12.12-16.2c-17.28,6.24-27.72,18.36-31.2,36.36-2.52,12.84-4.44,25.8-6,38.88a243.77,243.77,0,0,0,7.68,95.16,10.42,10.42,0,0,0,5.52,6.72c18.36,8.76,32.4,4.08,42.12-13.8a116.92,116.92,0,0,0,13.92-48,444.31,444.31,0,0,0,.24-61.92c-1.56-23.88-10.08-44-25.56-60.72a2.76,2.76,0,0,0-1.68.24L421,99a5.82,5.82,0,0,0-1,2.52A8.15,8.15,0,0,1,419.16,103.92Zm55.92-10.8-.36,1.56A552.38,552.38,0,0,0,470,184c1.2,42.84.72,85.68-1.56,128.28q-3.42,64.62-10.68,128.88c-1.32,12.24.24,22.8,4.92,31.8a6.57,6.57,0,0,0,2.28-4.08,194.83,194.83,0,0,0,3.36-25q4.32-63.9,6.6-128.4,1.62-48.24,1.68-96.6,0-61.38.84-121a20.89,20.89,0,0,0,9.48.48A17.69,17.69,0,0,1,499.68,101q33.3,20.34,45,58.8a100.73,100.73,0,0,1,0,60.12q-14.76,47.88-66,47.88a24.64,24.64,0,0,0-1.68,9.84,9.18,9.18,0,0,0,3,6.48c9.84,2,19,1.32,27.48-2.4a64.43,64.43,0,0,0,28.8-24.84q36.54-57.6,9-121.44-16.2-37.26-52.8-49.68a159,159,0,0,0-16.32,2.64,4.83,4.83,0,0,0-1.08,2.4Z" transform="translate(-42.12 -85.8)"/></svg>