<svg id="Layer_1" data-name="Layer 1" xmlns="http://www.w3.org/2000/svg" viewBox="0 0 572.18 515.16"><defs><style>.cls-1{fill-rule:evenodd;}</style></defs><path class="cls-1" d="M144.72,82c12.6-4.2,21,1.56,25.44,17.4-2.4,17.16-12.12,27.12-29,29.88l2.4-43.8Zm-1-7.2-2.4,2.76L139.56,79q-4.86,52.38-7.8,105.48a181.36,181.36,0,0,0,1.08,32.64c2.16.48,3.36-.6,3.48-3.36q2.52-37.44,4.32-74.64a30.17,30.17,0,0,0,11-1A352.06,352.06,0,0,0,179,218.4a3.75,3.75,0,0,0,1.32-3.84,455.5,455.5,0,0,0-26.16-77.4c5.52-2.52,10-7,13.44-13.56,11.88-22.68,7.2-40-14-51.6l-6.48.24A22.32,22.32,0,0,0,143.76,74.76Zm68.88-31.2A1553,1553,0,0,0,23.28,76.08a8.81,8.81,0,0,0-2.4,9l.48,1.56q47.7-6.48,95-16.68-5.94,179.64-10,359.52c-.36,13.32-.84,26.76-1.68,40.32l-1.2,16.2L102,502.2l-3.24,24.12a68.79,68.79,0,0,0,3,32.4,524.14,524.14,0,0,0,15-139c-.84-32.28-1-64.68-.6-97l.6-64.44.84-64.56c.36-20.88.84-41.76,1.44-62.52l1.92-62,91.68-11a11.63,11.63,0,0,0,1.08-13ZM296.76,88.2c2,6.72,4.2,13.44,6.48,20A678.18,678.18,0,0,1,331.32,216.6a524.66,524.66,0,0,1,6.36,128,531.29,531.29,0,0,1-24,124.92A104.13,104.13,0,0,1,286.8,513q-22.86,22.14-52.56,10.8a16.8,16.8,0,0,1-7.56-5.52c-13.68-18.12-21.36-39.24-23-63.12q-4.5-63.9-3.12-128.28A1224.5,1224.5,0,0,1,210,198.72L213.72,166q6.66-62.82,61.2-89.64A19.4,19.4,0,0,1,291.6,80L293,83.4A8.68,8.68,0,0,0,296.76,88.2Zm-4.92-19.08a23,23,0,0,0-18-4.68q-49.5,22.32-60.48,76.92-6.12,30.42-9.72,61.2-7.56,63.54-9.48,128.16c-1.32,42.12-.6,84,2.16,125.88q2.88,44.46,27.12,80.28c13.32,9.48,27.84,11.4,43.32,6q35.64-12.42,48.6-48.24a511.26,511.26,0,0,0,28.08-125.52,683.77,683.77,0,0,0,.12-128.28,384.34,384.34,0,0,0-10.92-63C323.16,141,312,105.24,299.28,70.32L297.36,70l-.6-.36-1.32-.84-1.32.84-.84.24h-.84ZM427,360.12Q451.62,381,456.12,414a142.42,142.42,0,0,1-.48,42.24,153.75,153.75,0,0,1-11.28,38.64,70.37,70.37,0,0,1-22.68,28.56,67.72,67.72,0,0,1-44.28,13.32l-3.24-.24c-15.24-22.92-22-48.48-20.28-76.92A312.39,312.39,0,0,1,362.64,403,65.53,65.53,0,0,1,375.36,377c12.36-15.84,28.68-23.28,48.72-22.2l1.08.36,1.8,2.52Zm-3.84-16.56a53,53,0,0,0-15.12-1q-30.06,6.66-41.4,35.64Q343,438,350.4,502.92c2.28,20,10.2,36.84,23.52,50.4a49.35,49.35,0,0,0,28-2.4q38-14.58,51.6-52.56a230.77,230.77,0,0,0,13.2-75.24c.24-30.36-10.8-55.56-33.24-75.36a4.59,4.59,0,0,1-3.72-.84l-3.24-2-.84-.72Zm6.24-277.32C424.68,90.12,420.48,114.36,417,139c-2,14.88-3.6,29.88-4.56,44.88a956.38,956.38,0,0,1-16.56,125.4,660.82,660.82,0,0,1-8.4-87.12q-.54-17.1-7.56-28.08a2.8,2.8,0,0,0-1.2,2.4,525.28,525.28,0,0,1-11,107.4q-7.2-54.9-14-110-7.92-64.08-20.88-125a18,18,0,0,0-1.32,9.72c6.24,42.12,11.88,84.48,16.8,126.84s10.56,84.24,17,125.64c.72-.36,1.2-.72,1.32-1.2a247.07,247.07,0,0,0,15.48-78.12l.12.84A372.36,372.36,0,0,0,395,334.2a265.73,265.73,0,0,0,16.32-78.48,929,929,0,0,1,16.08-126.6,198.92,198.92,0,0,0,2.76-63.36C429.6,65.88,429.36,66,429.36,66.24Zm73.08-8c-4.92,8-7.56,17.52-7.92,28.32q-1.26,34.74-3,69.72-3.42,63.9-5.4,128.4-2,64.26-6.48,128.16c-3,42.6-4.32,85.08-3.72,127.56l1.68,1.56a29.61,29.61,0,0,0,14.88,1.92q48.78-5.58,97.32-6.48c4-6.36,3.84-12.6-.48-18.72a3.71,3.71,0,0,1-3.24-.72l-.12-.84c-.72-2.28-1.44-2.76-2-1.32l.72,1.08-102.72,8.88q1.62-40.14,4.08-80.28c2.52-42.6,4.44-85.44,5.64-128.28s2.4-85.68,3.72-128.28q2.16-64.26,8.76-127.44l-.36-.84A6.77,6.77,0,0,0,502.44,58.2Zm-37.2,11.28-2-1c-22,18.6-33.36,43.2-34.2,74-.6,23-2.4,46.08-5.16,69A306.54,306.54,0,0,0,426.36,303a6,6,0,0,0,1,2.4l3.24,4a18.53,18.53,0,0,0,6,4.68,40.45,40.45,0,0,0,8.16,2.64l3.12.48c16.2-11.88,22.08-27,17.64-45.6l-1-2.88a60.17,60.17,0,0,1-17.76,32.52l-9.48-1.08a198.26,198.26,0,0,1-5-91.2q21.6,7.74,35.28-8.64Q452.22,188,433,199.92q-5.94-60.66,22-111.72a13.37,13.37,0,0,1,10-7.2,5.58,5.58,0,0,1,4.44,6.12c0,3,.84,5.28,2.4,6.72l.12-.12C476.88,83.4,474.72,75.36,465.24,69.48Z" transform="translate(-20.49 -43.56)"/></svg>