<svg id="Layer_1" data-name="Layer 1" xmlns="http://www.w3.org/2000/svg" viewBox="0 0 501.75 474.98"><defs><style>.cls-1{fill-rule:evenodd;}</style></defs><path class="cls-1" d="M296.88,419.76c-4.44,23.4-7.8,46.56-10.32,69.72v-.84a410,410,0,0,0-16.8-99.84h-.36a245.22,245.22,0,0,0,4.08,49,340.55,340.55,0,0,1,5.4,51.72c.36,12.12,3,22.32,7.68,30.6l.72-1.68a500.12,500.12,0,0,0,11.64-72.24c2.88,16.2,6.12,32.28,9.6,48.24q3.6,16.38,11.52,27a447.7,447.7,0,0,0,14.16-61.68,99.62,99.62,0,0,1,5.52-20.52c6.6-16.56,8.4-32.4,5.52-47.64a510.89,510.89,0,0,0-26,107.64c-2.76-8.28-5.16-16.8-7.08-25.32a222.55,222.55,0,0,1-4.44-26.28q-2-17.82-10.08-29.52A4.21,4.21,0,0,0,296.88,419.76ZM142.44,394.32a366.72,366.72,0,0,1,3.6-103.8c4-22.08,17-35.16,39-39.12a36.35,36.35,0,0,1,23.52,4.92l.6,2.4.24,1.56.24.84,3.84,4.68q34.56,44.1,35.4,100.92.9,66.78-38.28,120.12c-9.72,13.2-22.32,20.52-38,22.08-2.28.12-4-.6-4.92-2.16-15-24.72-22.68-52.2-23.28-82.56C144.12,414.24,143.52,404.28,142.44,394.32Zm-6.12-99.72a616.79,616.79,0,0,0-2.4,78.84,667.17,667.17,0,0,0,16.44,125.64,45.58,45.58,0,0,0,10.56,20.4c6.24,6.84,13.44,8.28,21.72,4.2q38.16-19.08,54.24-60.36a264.1,264.1,0,0,0,16.8-126.84c-3.84-35.64-17.76-66.24-41.64-91.56l-1.32.72-.72.12-.84-.36-1.32-.84c-9.72-6.12-20.64-8.4-32.52-7C151.92,249.48,138.84,268.44,136.32,294.6Zm59-186c-1.32,18.12-10.56,28-27.6,29.28.36-15.72.24-31.44-.12-47l.12.12A22.36,22.36,0,0,1,188,89.88C193.44,95.16,196,101.4,195.36,108.6ZM182.88,76.8l-11.4,1.92L168.36,82l-1.2-3.24a668.81,668.81,0,0,0-10.92,149q15.66-35.82,11.16-77.64l13.32-.84q3.6,43.38,21.36,78.24l1-1.68A388.55,388.55,0,0,0,183.12,148l3.36-2.88q17.1-18,13.68-42.48C198.6,91.32,192.84,82.68,182.88,76.8ZM203.4,51.36A638.15,638.15,0,0,1,126,54.84a605.66,605.66,0,0,0-94.92,6A8,8,0,0,0,30,63.36a15.54,15.54,0,0,0,.84,8.76l1.08,1.8q49.14-.54,97.68-1.8a303.08,303.08,0,0,0-5.16,49.08q-1.8,63.9-2.52,128.28-.9,64.62-2.64,129c-1.32,42.84-3,85.68-5.16,128.28a23.77,23.77,0,0,1-11.88,4.92A53,53,0,0,0,115,512.76a5,5,0,0,0,4.08,4.56A299.42,299.42,0,0,0,125.76,450q-.72-64.26,1-128.28l3.72-129q2-61,1-120.6L222.12,69a6.46,6.46,0,0,0,1.2-2.4,16.27,16.27,0,0,0-.84-12.12l-1.2-1.68L217,52.32ZM360,428.28a172.06,172.06,0,0,0-6.48,46.8A79.37,79.37,0,0,0,366,518.76l4.68,7c10.2,1.92,19.32-.6,27.24-7.68A32.77,32.77,0,0,0,407,505a25.26,25.26,0,0,0,.48-16.56c-8.76,12.6-20.76,19.92-36,22.2-10.2-14.52-14-30.84-11.52-48.84l1.2,3.12L397,467a13,13,0,0,0,2.16-5.88,11.71,11.71,0,0,0-1-5.76l-1.08-2.16-35.16-1.56c2.16-13.2,8.28-26.28,18.24-39.12l7.8-2.4,7.08,2.16a8.06,8.06,0,0,0,1.56,3.6,6.33,6.33,0,0,0,4.08,2.76h1.8a17.15,17.15,0,0,0-5.4-16.2,20,20,0,0,0-9.6-5.28C373.32,403.08,364.2,413.4,360,428.28Zm58.44-362-2.88-.48Q379.74,98.88,381.36,153c.72,23.4,1.68,46.68,3,70.08a38,38,0,0,0,8.76,22.56,23.85,23.85,0,0,0,8.76,6.6,18.14,18.14,0,0,0,9.72,1.56c13.08-1.92,22.92-8.88,29.28-21,4.68-8.64,5-17,1.2-25.2l-3.72,2.88-1.68.6c.12,12.6-6.36,20.88-19.68,25a33.91,33.91,0,0,1-19.56.48q-12.6-34.38-7-72.24l1.08,2.64,24.36-2.4a15.35,15.35,0,0,0,1.56-6,10.51,10.51,0,0,0-2-7.32A28.79,28.79,0,0,0,391,154l-.48,1.56A152.45,152.45,0,0,1,409.68,83c8.52-4,15.72-2.4,21.48,4.8a21.63,21.63,0,0,0,4.32,4.44C437.52,78.24,431.88,69.6,418.44,66.24ZM358.8,75.48l.84,29.28L361.8,233l.6,32.4q1.44,54.18-30.12,95.76A39.72,39.72,0,0,1,311,369.36a7.44,7.44,0,0,1-5.52-1.68c-13.68-12-20.28-28.2-19.68-48.6,1.08-42.84,2.4-85.68,3.84-128.28q2.16-64.8-1.32-128.28c-.72.24-1.08.48-1.08.84-1.8,33.48-3,67-3.48,100.68-.36,21-1.2,42.12-2.64,63.12a682,682,0,0,0,3.24,129.12c2.52,19.8,13.32,30,32.64,30.84a76.84,76.84,0,0,0,19.68-13.32,46.17,46.17,0,0,0,10.56-14.88c14.88-32.76,22.08-67.8,21.6-104.88q-.54-64.62,0-129a296.68,296.68,0,0,0-5.76-64.2l-.36.12a84,84,0,0,0-7.2,19.44l.6-.48A15,15,0,0,1,358.8,75.48Zm115,3.24c13.08,5.88,23.28,15.6,30.48,28.92A104.78,104.78,0,0,1,517,150.72,157.16,157.16,0,0,1,515,190.44a169.88,169.88,0,0,1-14,42.72,78.4,78.4,0,0,1-30.6,33.12,85.73,85.73,0,0,1-17.88,8q5.58-98.82,4.32-197.4ZM452.4,66.84l-.48.84a16.63,16.63,0,0,0-.72,4.8,9.62,9.62,0,0,0,.6,2.52l.36.72.12.12c-.6,4.92-.84,10.08-1,15.6q-.18,16-.72,32.4Q448.08,188.1,446.88,253L445,349.56c-1,43.08-3.48,85.68-7.44,128l-.12-1.08c-.36-6.12-.84-11.88-1.56-17l-.12.72c.12,21,0,41.52-.36,61.68a3.21,3.21,0,0,0,4.08,1.44,30.65,30.65,0,0,0,3.36-11.4c4.08-42.36,6.6-85.2,7.44-128.28l2-93.6a11.49,11.49,0,0,0,9.6-1.44,5.3,5.3,0,0,1,1.92-.72,84,84,0,0,0,11.76-7.32l.24,2.16c3.12,18.48,6.72,37,10.68,55.32q13.5,62.28,25.2,124.56c2,10.68,3.84,21.36,5.52,32,1.8,12.12,5.76,22.2,11.76,30.24a10.6,10.6,0,0,0,2.16-9.6Q518,452.82,505.92,390.36,494.76,332.22,482.16,275a90.48,90.48,0,0,0,15.48-19.2q35.28-58,21.72-123a258.15,258.15,0,0,0-9-32.28q-12.6-35.28-50.4-34.8v.12l-4.32.36-.6-4L454,66.36l-1,.12Z" transform="translate(-29.71 -51.36)"/></svg>