<svg id="Layer_1" data-name="Layer 1" xmlns="http://www.w3.org/2000/svg" viewBox="0 0 536.3 345.24"><defs><style>.cls-1{fill-rule:evenodd;}</style></defs><path class="cls-1" d="M301.44,211Q308.1,230.4,313,249.84q16.56,64.62-13.08,124.68c-10.44,20.88-26.76,34.32-49.2,40.44-21.48,5.76-36-1.2-43.8-21q-23.94-60.66-11.28-125.4c2-10.56,3.84-21.12,5.28-31.8,5.4-38.64,27.48-61.56,66.48-68.76,1.8-.36,2,.12.48,1.56a3.61,3.61,0,0,0-1.08,3.12l.12.48,1.56.24,1.08-.24C285.12,181.68,295.8,194.28,301.44,211ZM213.72,186.6a304.18,304.18,0,0,0-28,94.92q-8.28,65.7,15.6,126.6a40.59,40.59,0,0,0,18.72,21.24c15.24,8.4,30.24,8,45-1.2,24.36-15.12,41-36.72,50.28-64.68q20.7-62.64,3.84-126.36l-8.52-32.4q-10.26-40.14-48.84-48.6a89.17,89.17,0,0,0-32,12.48A43.22,43.22,0,0,0,213.72,186.6ZM276,104.28l-15.24-1.44-48.12,1.68q-36.18,2.16-71.76,6.48c-34,4.08-67.68,7.68-101.4,10.8l-.84,1.32a12.6,12.6,0,0,0-.36,8.88l.36.84a392.54,392.54,0,0,0,71.16-1.92l48.12-5a257.7,257.7,0,0,0-4.08,30.36q-4.32,64.08-7,128.4c-1.68,43.08-5.4,85.68-11.16,128-1.68,12.12-.36,22.92,3.84,32.4a9.08,9.08,0,0,0,4.2-7.8q3.78-55.62,7-111.36,2.34-39.78,6.12-79.2a817,817,0,0,0,2.88-121c39.36-3.48,78.6-5.28,117.84-5.64a16.07,16.07,0,0,0,.72-13.68l-1-1.68A1.8,1.8,0,0,0,276,104.28Zm129.84,80.4c18,13.8,30.12,32.4,36.24,55.56a150.85,150.85,0,0,1-8.16,84,385.74,385.74,0,0,1-30.24,60.6c-7.2,11.88-17,19.92-29.64,24.12-2.64,1-4.68.72-6.24-.72q-31.5-27.9-33-71.64a796.2,796.2,0,0,1,2.64-95.88q4.5-50.4,52.68-62.4c1.92,3.84,5.4,5.52,10.32,4.92A7.15,7.15,0,0,1,405.84,184.68Zm-16-15.6q-41.94,3.24-51.24,45.36A511.62,511.62,0,0,0,327,301.08c-1.8,38.52,5.28,74.76,21.48,108.6A34.11,34.11,0,0,0,360.84,424c9.36,6.12,18.12,5.16,26.28-3a228.22,228.22,0,0,0,44.16-62.16q28.62-59.4,17-124.56a193.13,193.13,0,0,0-8.88-32.64c-7.2-19.56-20.16-32.28-39-37.92v.12a10.91,10.91,0,0,0-9.24,2l-.36.84-.72,1.68Zm166.2-30.48q-29,49.14-54.6,99.6a293.73,293.73,0,0,1-19.8,33.6c-1.08,1.68-2,3.36-2.88,4.92l1.32-32.64q2.34-64.8-1.44-128.28c-4,6.6-5.88,14.52-5.64,23.52,1.32,43,.84,85.68-1.2,128.28q-3.24,65-10.08,129c-.6,5.4-1.44,10.68-2.52,16-2.52,12.12-1.2,23,4,32.52a2.37,2.37,0,0,0,1.32-1.56,666.06,666.06,0,0,0,8.76-71.16c1.8-25.32,3.24-50.64,4.56-76.08a26.08,26.08,0,0,0,2.64,4.08c8-13,15.48-26.52,22.56-40.56l1.32-2.76a68.21,68.21,0,0,0,3.12,17.16q14.4,45.18,26,90.84l15.72,62.4c2.28,9.72,6.6,16.56,13,20.64a26.43,26.43,0,0,0,1-22.32c-3-7.56-5.52-15.12-7.8-22.68L542,358.2q-16.56-56.52-31.56-113,25.38-49.68,54.12-97.68c6.84-11.64,10-23.4,9.24-35.4a12.32,12.32,0,0,0-5.52,5.28Z" transform="translate(-37.64 -102.84)"/></svg>