<svg id="Layer_1" data-name="Layer 1" xmlns="http://www.w3.org/2000/svg" viewBox="0 0 308.48 210.72"><defs><style>.cls-1{fill-rule:evenodd;}</style></defs><path class="cls-1" d="M334.92,225.12a449.31,449.31,0,0,1-8.16,104.64,85.62,85.62,0,0,1-27.48,48.48c-12.12,10.8-25.2,13.08-39,7a6.37,6.37,0,0,1-3.48-3.6q-12.42-38.16-6.48-80a367.64,367.64,0,0,0,3.48-63.12,279.06,279.06,0,0,0-10.32,62.4c-1.2,21.36-1.8,42.72-1.92,64.2-.12,14.16,4.92,25.56,14.88,34.32q9.18,8.1,20.16,5,29.34-7.92,43-34.32a205.27,205.27,0,0,0,22.8-83.76A225.69,225.69,0,0,0,337.08,223Q334.74,222.78,334.92,225.12Zm-73.8-29-.84-1.56a1109.1,1109.1,0,0,1-111.12,3.84v8.16l55.92,5.64q-2,75.42-7.56,151.2l-1,9.72a42,42,0,0,0,1.32,18.12A29.31,29.31,0,0,0,201,398,430.62,430.62,0,0,0,210.6,301l-.48-44.52q-.18-22.14-1.44-44.28a211.36,211.36,0,0,0,52.56-5.52A11.33,11.33,0,0,0,261.12,196.08Zm111.24,3.84a213.18,213.18,0,0,0-2.88,37.44c0,10.68-.12,21.48-.36,32.28l-.84,32.16c-.36,10.8-.36,21.6-.12,32.28a166.85,166.85,0,0,1-4.8,43.8,29.54,29.54,0,0,0,3.48,22.8c6-23.64,8.88-49.32,8.76-77.28V310l-.12-6.72-.36-6.84,55.44-4.8c3.72-5.52,3.6-11-.36-16.44L375,281.4a347.64,347.64,0,0,0,0-68.88,261.43,261.43,0,0,0,80.88,6.12,13.94,13.94,0,0,0,1.44-9.84l-.6-1.92-.84-1.92-.24-.48a353.46,353.46,0,0,1-82.8-5Z" transform="translate(-149.16 -194.52)"/></svg>