<svg id="Layer_1" data-name="Layer 1" xmlns="http://www.w3.org/2000/svg" viewBox="0 0 549 490.2"><defs><style>.cls-1{fill-rule:evenodd;}</style></defs><path class="cls-1" d="M146.88,286.8,146,304.92l-1.32,27.72c-.12,6,0,15,.6,27l.84,17.76q40.5-4.86,55.08-14.76a22.92,22.92,0,0,0,8.4-9.72,28.8,28.8,0,0,0,1.68-10.44q0-47-34.56-58.8A102.46,102.46,0,0,0,164,280.44l-11.16-2-6.24-1.92Zm-1.56-19c2.52-.6,6.48-.6,11.88.24a87.87,87.87,0,0,1,29.28,9.36l11.88,10.68a52.6,52.6,0,0,1,8.4,10.2c1.56,2.76,3.48,10.56,5.64,23.4,1.8,11.16,2.76,18.12,2.76,20.88q0,15.3-7.92,26.28c-6.12,8.76-15.24,14.88-27.48,18.36,5.16,7.8,11.64,17.28,19.56,28.68,10.44,16,17.28,29.4,20.4,40.2.48,1.68,6.36,14,17.52,37.2,11,23.52,16.56,37.68,16.56,42.36,0,3.36-1.08,5.64-3.24,6.72q-14.58-29.16-36-81.24c-2.88-7.08-11.28-22.32-25.32-45.84-7.08-12-12.12-20.88-15.24-26.64a118,118,0,0,1-23.52,2.16,12.29,12.29,0,0,1-5-.84c-.84,12.12-2.76,31.56-5.52,58.56-4.44,43.8-8,72.48-10.8,86.28q-2.52-2.16-2.52-6.48c0-1.32,2.4-24.48,7.08-69.72s7.08-78.84,7.08-100.8c0-19.2.24-34.08.6-44.64.6-11.4,1.56-24,3.12-37.92a5.15,5.15,0,0,1-2.4-4.08c0-1.56,1.08-2.76,3.24-3.36v0ZM216.72,63a5.6,5.6,0,0,1,.6,1.92l-.48,1.92a10.77,10.77,0,0,1-2.52,3.24H187L121.32,79l-3.12.36.36,6.24c0,7.92-.24,13.8-.84,17.52v59.28c-1.92,12.6-3.6,32.16-5,58.44-1.56,25.56-3.36,45-5.52,58.32v55.2a33.2,33.2,0,0,0-1.08,4.8V384.6c-.72,5.64-1.08,15.36-1.2,29.28-.12,12.36-.72,22.08-2,29.16v52.8a39.14,39.14,0,0,0-1.08,8.16,96.44,96.44,0,0,0,1.56,11L105,525.48a18.44,18.44,0,0,1-1.32,7l-1.44.24c-2.52-5.88-4.08-10.8-4.44-14.64-.24-1.56-.36-6.24-.36-13.8q0-8.82,1.08-13v-52c1.32-7.08,1.92-16.92,2-29.28.12-13.8.48-23.52,1.2-29.16V335.4a35.67,35.67,0,0,1,1.08-4.92v-55.2c1.56-10.44,3-29.88,4.44-58.44,1.2-24.6,3.36-44,6.6-58.32V102.6a111.17,111.17,0,0,0,.72-17l-.24-5.76Q69.72,85.74,32.52,89H15.12L13,87.24a5.4,5.4,0,0,1-.48-2.76A5.93,5.93,0,0,1,13,81.6a9.25,9.25,0,0,1,2.16-1.8q46.26-4.14,107.76-11.88c29.4-3.72,59.88-6.36,91.44-8.16A14.08,14.08,0,0,1,216.72,63ZM300.6,74.64q0,49.5-1.8,99.6-2.16,57.78-6.24,95.88v44.64l-3.72,57.72q-2,34.38-1.44,57.6c.12,7.2-.72,16.68-2.4,28.44l-4.08,29.16L277.44,519c-1.56,12.6-3.36,21.24-5.16,25.8-1.08-1.32-1.8-3.48-2-6.36-.12-1.2-.12-3.48-.12-7,0-9.6,2-29.28,6-59.16,4-29.64,5.88-46.92,5.88-51.72-.24-31.56,1.68-68.28,5.64-110.4V264.72q4.5-38.34,6.72-103.44c1.68-50.52,3.24-84.6,4.68-102C300.12,62.52,300.6,67.56,300.6,74.64Zm60.72,319.44-8.76-41.88c-5-24.72-8.52-43.32-10.44-55.68q-2.88,35.1-17.76,105.6l1,.12c10.2,0,21.12-2.4,33-7.08A23.35,23.35,0,0,1,361.32,394.08Zm-4.08,14.64c-7.68,3.24-17.64,4.92-29.76,4.92l-5.4-.84-2.76,12.48q-8.46,39.24-17.88,76.2c-5.64,22.2-9.6,36.84-11.88,43.68a9.24,9.24,0,0,1-2.4-4.08,12.71,12.71,0,0,1-.6-3.72c0-3,2.76-13.92,8.16-32.76,5.76-20.4,8.76-31.56,9.12-33.36l5.4-33c2.16-12.72,4.44-23.28,6.72-31.68l-.12-1.68a16.16,16.16,0,0,1,.12-2.64l.12-.6,1.44-.24q6.66-24.12,13-62.4c5-30.6,8.4-50.28,10-59.28l.36-1.68.48-2.4.48.84.6-.36q14,61.38,26.16,121.2,21.78,106.74,21.72,136.56A22.27,22.27,0,0,1,388.08,544q-5.22-12.42-7.92-32l-3.72-33.6Q373,450.6,365.28,412.56l-1.56-7.44A23.06,23.06,0,0,1,357.24,408.72ZM431.4,84.84l.48,29.52-.48,24.36L430,176.4v55.08q-3.42,49.14-7.44,149-4.68,89.64-14.4,148.92l-.36.48c.84,0,5.28-1.08,13.2-3.12s12.6-3.12,14.16-3.12L499.8,526C527.28,528.12,541,531.6,541,536.4a14,14,0,0,1-.72,4.2c-.48,2-1.2,3.36-2.28,4l-42-2.76-43.8-2.64a126.86,126.86,0,0,0-30.84,3.72c-8.28,2.4-13.08,3.6-14.28,3.6-2.76,0-4.32-2.28-4.92-6.72v-7.32c0-4.44,2.4-28.68,7.08-72.48,4.92-46,7.68-72.6,8-80.16l4-75.84q2.52-51.66,4-76.8V172.08c.6-7.92.84-17.64.84-29.16l-.24-30c0-24.48,1.44-43.32,4.2-56.64C430.44,58.56,430.92,68,431.4,84.84Zm123.12-5.28-.24.72c-.24.36-1,.6-2,.6s-2.16-.6-3.72-1.8L543.72,75c-5.4-4-12.12-6-20.16-6q-41.22,0-55.8,53.88c-3.12,11.88-5.28,26.4-6.36,43.68l.12-.12c1.92-.6,8.28-.72,19.08-.24l39.24.24a9.61,9.61,0,0,1,2.16,6.48,12.19,12.19,0,0,1-.72,4.08,13.54,13.54,0,0,1-1.68,3.24H472l-9.24-.6-1.8-2.4c-.24,5.76-.36,11.76-.36,18.12,0,5.4.12,10.32.36,14.64a230.88,230.88,0,0,0,2.88,28c4.68,26.28,13.32,39.48,26,39.48q37.62,0,55.8-22.92a68.4,68.4,0,0,0,9.72-17.16c2.88-6.84,4.44-10.56,4.8-11a11.24,11.24,0,0,1,1.32,5.4c0,2.16-.84,6-2.64,11.52a98.88,98.88,0,0,1-9.72,21c-12.36,19.44-29.52,29.16-51.24,29.16q-30.42,0-39.48-42.72a195.82,195.82,0,0,1-3.36-33l.12-22.56a238,238,0,0,1,3.24-37.92c2.64-16.44,4.32-31.32,5.16-44.4C464.4,98,469.68,85.68,479.4,76c8.28-8.4,18.72-13.92,31.2-16.68,11.52-2.52,21.72-2.16,30.48,1.2,9.12,3.48,13.68,9,13.68,16.68C554.76,79,554.64,79.68,554.52,79.56Z" transform="translate(-12.48 -56.28)"/></svg>