<svg id="Layer_1" data-name="Layer 1" xmlns="http://www.w3.org/2000/svg" viewBox="0 0 428.37 452.86"><defs><style>.cls-1{fill-rule:evenodd;}</style></defs><path class="cls-1" d="M253,336.84l-.24-3.72A342.12,342.12,0,0,0,215.28,407a282.87,282.87,0,0,0-35.64-75.6q3.06,43.74,30.48,88.32L182.4,501.48c-1.32-.48-2,2.52-2.28,9.12a27.52,27.52,0,0,0,2.16,11.64,350.72,350.72,0,0,0,28-70.32A342.57,342.57,0,0,1,226,407c6.36-14.64,13.08-29,20.28-43.32A51.77,51.77,0,0,0,253,336.84ZM218,152.4q.36,64.26-3.72,128.16a288.65,288.65,0,0,1-3.6,32.28c-1.68,10.2,0,17.76,5.16,22.92q5.94-47.34,8.16-96.24,2.88-64.8-.6-128.28C219.72,123.48,217.92,137.16,218,152.4Zm34.68,17c9.72.36,19.56.48,29.52.24l.48-.84a12.06,12.06,0,0,0-.84-13c-11.16-1.32-21.12.24-29.64,4.92q4.86-24.3,26.64-38.52l2.64,1.92c2,1.56,3.84,1.56,5.28.24l.24-.72c1.32-7.8-1.92-12.48-10-14.16-15.36,9-24.84,22.44-28.56,40.56-1.68,8.16-3,16.44-4,25-1.92,17.16,3.72,30.24,16.92,39.12a11.73,11.73,0,0,0,9.24,2c14.52-2.88,20-11.64,16.32-26.28-9,14.76-20.16,16.2-33.24,4.08a52.34,52.34,0,0,1-3-16.2,82.25,82.25,0,0,1,.48-11A11.29,11.29,0,0,0,252.72,169.44ZM223,84.24c-19.08-2.88-38.16-5-57.36-6.36L35.16,82.8l-1,1.44-.6,1.56A7.51,7.51,0,0,0,33.24,89V90.6a7.42,7.42,0,0,0,1.08,3.24,194.73,194.73,0,0,0,45.12,2c17.4-1.08,34.8-1.56,52.2-1.32a43.89,43.89,0,0,0,.12,6.84A421.25,421.25,0,0,1,134,163c-1.56,43.08-2.64,86-3.48,129-.84,43.2-2.4,86.16-4.44,129q-1.62,32.58-6.12,64.8c-1.8,12.6-.12,23.16,4.92,31.8a114.33,114.33,0,0,0,6.48-33.24q2.7-63.9,3.84-128.16l2-129.12q.54-40.32,3.6-80.28a203.08,203.08,0,0,0-2.4-52.08,619.87,619.87,0,0,1,88.2,8.4,5.82,5.82,0,0,0,2.4-3.24,14.91,14.91,0,0,0,.72-5.64,22.08,22.08,0,0,0-.48-4.92,6.35,6.35,0,0,0-4.2-4.8ZM461.4,233.76c-4-16-15.72-22.56-35-20A32.54,32.54,0,0,0,408.12,228q-25.2,40-24.84,87.84c.36,43,1.44,85.68,3,128.16a287.16,287.16,0,0,0,13.8,79.32,7.67,7.67,0,0,0,5.16,5.16c20.52,6.36,36.12-.72,47-21a57.83,57.83,0,0,0,6.48-19.56,80.84,80.84,0,0,0-2.88-34.68,62.29,62.29,0,0,1-6.36,34.8c-8.28,17.28-21.6,25.68-39.84,25.2a13.15,13.15,0,0,1-6-9.12,782.13,782.13,0,0,1-11.52-123.36,167.71,167.71,0,0,1,34.8,4.8A14.39,14.39,0,0,0,430.32,375a11.44,11.44,0,0,0-3.36-8l-1.68-.12-14-1.8a52.61,52.61,0,0,0-19.32,2.52q-.36-11.88-1.44-23.76-4.32-52,18.24-96.84a25.3,25.3,0,0,1,10-10.44q21.78-11.88,42.12,1.08A4.91,4.91,0,0,0,461.4,233.76ZM363,175.68q-5.94,60.3-54.24,96.24l2.64-56.76a1085.9,1085.9,0,0,0-.72-115.32,22.75,22.75,0,0,1,14.4.12c17.52,5.88,28.92,17.64,34.32,35.52A102.8,102.8,0,0,1,363,175.68Zm-5.64-63c-7.44-15-19.44-24-35.88-27A20.12,20.12,0,0,0,309,87a144.11,144.11,0,0,0-7.56,50.4q2.34,136.62-8.16,272.52-3.06,40.14-8.16,79.8l-1.56-10.8A181.85,181.85,0,0,0,287,526l3.84-.72q9.9-90.9,14.4-181.92l2.64-53.4,14.64-10.68A640.58,640.58,0,0,0,345.72,384c11.52,36.84,21.24,74.28,29.16,112.08,2.16,10.2,4.68,20.28,7.68,30.24,6.6-6.6,8.64-15.36,6.12-26.4q-9.18-39.06-20.28-77.52-21.24-72.9-43.08-145.68a130.1,130.1,0,0,0,26.52-33.36,145.31,145.31,0,0,0,16.32-41.16,130,130,0,0,0,2.28-46.2A133.23,133.23,0,0,0,357.36,112.68Z" transform="translate(-33.19 -77.88)"/></svg>