<svg id="Layer_1" data-name="Layer 1" xmlns="http://www.w3.org/2000/svg" viewBox="0 0 563.48 566.53"><defs><style>.cls-1{fill-rule:evenodd;}</style></defs><path class="cls-1" d="M413.76,459.72l-.6-1.08c-22.44-3.48-43.8.48-64.08,11.64-1.8,11.16,3,13.8,14.52,8a66.08,66.08,0,0,1,20.16-6.48,373,373,0,0,0-4.68,95.4,80.16,80.16,0,0,0,2.28,13.92,1043.89,1043.89,0,0,0,5.28-109.68l26.52-1.2A10.69,10.69,0,0,0,413.76,459.72Zm-169.2,14.64q-41.76,34-19.56,85.32c3.48,8.28,9.72,13.2,18.6,14.64a32.89,32.89,0,0,0,16.68-1.2l7.2-10.44,4.2,10.8a123.47,123.47,0,0,0,1.32-45l-22,5v6.6h18.12l-.24,4.44c-7,14.76-18.72,19.08-35.16,13.08Q206,515.16,246.48,490a22.33,22.33,0,0,1,6.48-2.88l12.48,9.72c2.76-14.64-3.72-22.08-19.2-22.44Zm89,42.6-.84-1.56,1.08-46a104.08,104.08,0,0,0-7.44,47.28l-34.8,5.52.84-50.4a263.47,263.47,0,0,0-5.76,105,5.63,5.63,0,0,0,1.08,2.64L291.24,530a94.92,94.92,0,0,0,34.44-.6c-4.8,16.68-4.44,31.92,1,46L333,527.64A10.37,10.37,0,0,0,333.6,517ZM204.12,410.52c-4,37.08-6.36,74.4-7,112a138.22,138.22,0,0,1-1.8,20c-1.92,11.88-1.08,22.68,2.64,32.4a2.05,2.05,0,0,0,2-2.16c4-38.28,6.24-77,6.72-116,.12-16.56,0-32.52-.6-47.88A1.64,1.64,0,0,0,204.12,410.52Zm55.68-75A1107,1107,0,0,0,250,463a2.32,2.32,0,0,0,2.16,2.16,350.43,350.43,0,0,0,7.68-49.8c8.28-5.76,15.24-13.8,20.76-24.12l4.92-7.92a330.74,330.74,0,0,0,25.68,94.8,4.18,4.18,0,0,0,1.32-3.84,538.45,538.45,0,0,0-25.68-93.12A417.12,417.12,0,0,1,319.2,337l.36-.84c2-4.8.84-7.92-3.6-9.48v.12A448.06,448.06,0,0,0,273.24,385a110.12,110.12,0,0,1-12.48,15.48l.12-3.12c.84-22,1.32-43.32,1.56-64.2C260.88,333,260,333.84,259.8,335.52Zm-29-91.44L206,292.44l-31.32-51.12a137.16,137.16,0,0,0,18.72,45.48l9,15c-5.88,18-12,35.88-18.12,53.76a122.35,122.35,0,0,0-6.24,28.68,86.15,86.15,0,0,0-.12,16.68l3-1.08a758.27,758.27,0,0,1,42.12-124.68,101.84,101.84,0,0,0,6.36-19.68A51.08,51.08,0,0,0,230.76,244.08ZM125.4,413.28c10.92-3.84,19.08-1.2,24.48,8l-2.4,2.4-1.08.84-21,1.2C125.52,421.56,125.52,417.48,125.4,413.28Zm-.72-7.2a192.33,192.33,0,0,0-11.28,56.16,32.4,32.4,0,0,0,3.12,15.36l7.8-40.92,18.36.24L172.2,481.8A79.81,79.81,0,0,0,161,449.52a140.65,140.65,0,0,0-11.64-16.08c5.16-5.64,6.36-12,3.6-19a19.31,19.31,0,0,0-11.64-11.28,9.35,9.35,0,0,0-7.2,0,24.22,24.22,0,0,1-7.08,2.16l-1.2,1.68Zm33.72-382-1-1.68c-41.88,5.28-84,9-126.12,11l-19.92.84a8.72,8.72,0,0,0-.84,10l.84,1.44,75.84-4.08Q85.62,143.7,87,246c.24,16.2.36,32.28.24,48.48-.12,21.48-.84,43-2.4,64.44a1864.62,1864.62,0,0,0-3.6,193.8,28.65,28.65,0,0,0,1.32,7.68l2.4,7q4.86-72.72,5.4-147,.36-40,2.4-80.16c1.08-21.48,1.44-43,1.2-64.44L91.68,41.28A576.66,576.66,0,0,1,156.6,37.2l1.92-1.8A12.46,12.46,0,0,0,158.4,24.12ZM285.72,184.8q-2.88,41-6.72,82.56a270.47,270.47,0,0,0,1.32,64.08A50.49,50.49,0,0,0,285,313.2a956,956,0,0,0,1.2-128.4Zm1.44,3c14.76,1.68,26.52,9.36,35.52,23.16,7.08,10.92,5,20.76-6.12,29.64l-27.36.24L289,252.12q19.62,10.8,34.56-5.76a37.61,37.61,0,0,0,10.08-28,39.11,39.11,0,0,0-11.16-26.16q-15.12-15.66-34.56-10.08ZM196,122.52c-2-15-11-22.56-27.12-22.68L158.52,103a890.69,890.69,0,0,0-22,110.76,34.8,34.8,0,0,0,2.52,18.48l15-70.08A17.16,17.16,0,0,0,167.16,164l4-.72,40.44,71.88q-7.2-39.24-33.84-74C192.12,152.64,198.24,139.68,196,122.52Zm-3.12.6L190,133.8c-5.52,14.16-15.72,19.68-30.72,16.56l-2.88-.72,3.84-38.28c12.12-3.24,22.32-.48,30.36,8.52A15.71,15.71,0,0,1,192.84,123.12Zm9.48-92.4L181.8,83l-.36-.36q-6.66-15.3-13.68-29.88a154.38,154.38,0,0,0-12,22.92,5.81,5.81,0,0,1-.36-2.16,82,82,0,0,0-6.12-32.4,3.15,3.15,0,0,0-1.56,3.24c1.44,15.6,3.6,31,6.48,46.2A122,122,0,0,0,168,67.08c3.12,12.24,8,22.32,14.88,30.12,3.12-7,6.12-14,8.88-21.12a188.62,188.62,0,0,1,10-21.12c5.4-9.72,6-18.12,1.68-25.44A1.82,1.82,0,0,0,202.32,30.72Zm50.88-3.36q-4.86,37.8-6.48,77c-1.68,42.84-3.12,85.68-4.32,128.28.6,2,1.68,2.52,3.48,1.68,3.48-25.92,5.88-52.2,7.44-78.72a1271.21,1271.21,0,0,0,.48-128.28Zm87.36,20.28L342,43.92q-12.42-25-36.48-11.52C291.72,40.08,282.6,52,278.16,67.92a162.4,162.4,0,0,0-5.88,46.92A120.41,120.41,0,0,0,281,158.76c6.48,16.2,18.48,21.48,36,15.72,16.44-5.4,24.6-16.8,24.72-34.08L339.24,139c-6.72,12.84-17.4,20.88-32.16,23.88-6.72,1.32-12.12-.72-16.08-6a54.13,54.13,0,0,1-10.08-23.28,151.77,151.77,0,0,1-2.52-39q2.7-44.1,40.44-51.6A27.94,27.94,0,0,1,340.56,47.64Zm120.12,179q7-36.18,44.16-35.28,41.94,1.08,50.64,37.8a21.11,21.11,0,0,0,.6-14.88q-11.52-37.8-55-40.08-37.26,5.22-45,42.84a145,145,0,0,0,40,132.12A314.52,314.52,0,0,1,537,398.52a145,145,0,0,1,8.16,13.56c16,29.64,22.68,61.56,20.4,95.88a91.66,91.66,0,0,1-11.88,39.72c-6.12,10.68-15.36,17.16-28,19.56a128.81,128.81,0,0,1-19.2,2.16c-28.44,1-49.2-10.92-62.52-35.52a102.12,102.12,0,0,1,4.44-23.4q3.06-10.26-2.52-17.28C439.56,505,436.56,518.28,437,533c.6,15.72,7.68,28.68,21.36,39q37.44,28.26,81.72,9.36a34,34,0,0,0,19.2-20c13.08-34.44,16.68-70.44,10.8-108.24a129.43,129.43,0,0,0-14.4-42.72,364.74,364.74,0,0,0-69.48-90.84A132,132,0,0,1,468,289.8,103.85,103.85,0,0,1,460.68,226.68ZM441,42.24a36.79,36.79,0,0,0-26.52-8.4,11.94,11.94,0,0,1-5.16,2,59.13,59.13,0,0,0-29.16,15.24,48.34,48.34,0,0,0-8,17,557.48,557.48,0,0,0-17,122.64q-1.44,48.24-4.68,96.48a365.37,365.37,0,0,0,13.2,127c3.48,12.36,11.16,21.12,23,26.4q32.22,14.22,53.4-16.32c8.76-12.6,10.92-25.44,6.36-38.52a2.15,2.15,0,0,0-1.2,1.08c-3.84,18.24-14.28,31.44-31.2,39.72-12.24,6-22.68,3.84-31.2-6.36-16-18.84-24.36-41.16-25-67.08-.84-32-.48-64,.84-95.88l.48-11.88a367.57,367.57,0,0,0,53.16-4.32l.48-.84c2-4.32,1.8-8.4-1-12.12-17.52,1.32-34.8,3.48-52,6.24l-.24.12q2.34-47.7,5.76-94.8a237.34,237.34,0,0,1,18.24-75.6,56.81,56.81,0,0,0,7.92-5.28c10.68-8.64,22.8-11.16,36.36-7.68,11.88,3,20.64,9.24,26.4,18.48A15,15,0,0,0,455,56.4,23.27,23.27,0,0,0,441.6,42.72Z" transform="translate(-9.38 -22.44)"/></svg>