<svg id="Layer_1" data-name="Layer 1" xmlns="http://www.w3.org/2000/svg" viewBox="0 0 309.24 209.22"><defs><style>.cls-1{fill-rule:evenodd;}</style></defs><path class="cls-1" d="M306.84,196.68Q299.46,286,298,377.4a30.36,30.36,0,0,0,3.36,21.24l1.44,2.28a954.82,954.82,0,0,0,5.4-172.2l-.72-16Zm-59-3.24A566.38,566.38,0,0,0,151,200.28a22.29,22.29,0,0,0-.72,4.08,11.61,11.61,0,0,0,1.08,4.8c18.12.6,36.24.6,54.48,0a584.47,584.47,0,0,0-4.92,64.68c-1.08,43.08-1.68,85.92-2,128.28,1.44.84,2.28.6,2.64-1a555.16,555.16,0,0,0,6.48-73c.84-40.08.72-79.8-.6-119.16l45-3.12a7.43,7.43,0,0,0,1.32-3.24,11.38,11.38,0,0,0-1.32-8.16,1.93,1.93,0,0,0-.84-.48Zm164.52,80.64a251.08,251.08,0,0,0-32.4,3.24c-.24-26.76-1.2-53.52-3-80q-4,51.84-4.56,106.32c-.24,21.72-1.56,43.32-3.84,64.8-1.32,12.12.12,22.68,4.32,31.8a549.38,549.38,0,0,0,6.72-73.92c.36-12.72.48-25.44.48-38a116.65,116.65,0,0,0,34.2,0l.72-1C418,281.64,417.12,277.2,412.32,274.08ZM380.4,210.24l76.92,3.24a9.1,9.1,0,0,0,1.92-4.56l.24-1.56v-1.68l-.36-2a9.42,9.42,0,0,0-1.44-3.12c-20.64-1.32-41.16-3.72-61.56-7-6.6-.84-12.12,1.2-16.8,6.12Z" transform="translate(-150.24 -193.38)"/></svg>