<svg id="Layer_1" data-name="Layer 1" xmlns="http://www.w3.org/2000/svg" viewBox="0 0 481.36 419.16"><defs><style>.cls-1{fill-rule:evenodd;}</style></defs><path class="cls-1" d="M246.12,312.48q-4.14,63.9-5.64,128.28a262.12,262.12,0,0,1-2.64,32.16c-1.32,10,.48,18,5.64,24.12a21.24,21.24,0,0,0,4.92-14.64,1197.25,1197.25,0,0,1,4.2-128.16,293.53,293.53,0,0,0-1.32-64.2A66.32,66.32,0,0,0,246.12,312.48ZM150,302.28q31.5-3.42,46.08,21.6a87.56,87.56,0,0,1-9.36,24.24c-8.52,15.12-21,21.72-37.56,19.68C150.48,345.84,150.72,324,150,302.28Zm-4.92-3.48a7.92,7.92,0,0,0,.72,3.24l.36.12-.12,1.08c-1.08,21.12-2.64,42.12-4.68,63.12l-1-.24a15.16,15.16,0,0,0-2.28,8.88,8.52,8.52,0,0,0,1.8,5c-1.8,16.68-4,33.36-6.48,49.92-1.2,8-2.76,16.08-4.68,23.88-2.88,12.36-2,23,2.64,32.16l1-1.8c4.56-19.32,8.28-39,11-58.92q3.06-21.24,4.68-42.48h.72a35.25,35.25,0,0,0,12.84-1.32l6.36-2.4c-.24,12.84,3.12,25.32,10.08,37.56A232.51,232.51,0,0,1,198,463c3.48,11.4,8.4,20.88,14.88,28.44a6,6,0,0,0,1.92-4.08A53.4,53.4,0,0,0,209.64,460q-19.26-41.4-37.92-82.56c15.24-7.8,24.84-21.12,28.92-40q8.1-37.44-31.32-47.4A41.42,41.42,0,0,0,146,293l-.6,1.68A11.53,11.53,0,0,0,145.08,298.8ZM200.4,109c2.16-5.4,1.56-10.2-1.8-14.52Q120.3,99.3,43.08,111.72l-.6,1A12.44,12.44,0,0,0,43.8,124.8l81.6-8.16a830.81,830.81,0,0,0-6.72,92.76q-.9,39.78-3.24,79.44L108,418.08c-.84,13.56-2.16,27-4.08,40.32-1.8,12.6-.12,23.16,5,31.56A429.11,429.11,0,0,0,116,425.88c1.56-42.84,3.84-85.68,6.84-128.28,1.44-21.24,2.64-42.6,3.48-64,1.68-39.48,1.92-78.6.84-117.12l72.72-6.6Zm-19.68,14.76c.6,16.44,6.72,33.24,18.24,50.52,5.64,8.52,11.16,17,16.56,25.8Q190.14,235.86,190,277.68a1006.51,1006.51,0,0,1,55.32-106.44c6.48-10.92,12.48-22,17.88-33.12a27.76,27.76,0,0,0,2.88-14.4l-.36-3.84A337.46,337.46,0,0,0,219.24,193,316.51,316.51,0,0,0,185,128Zm197.64,18.72c7.56-15,10.68-29.88,9.6-44.76q-22.32,49.14-47.88,99.48l-21.36,42.6v.12l-6.84,13.92a197.12,197.12,0,0,0-14.76,40.08L301,222.72q3.78-64.8,3.36-128.28a86.9,86.9,0,0,0-7.2,33.12Q295,191.28,292.2,255.12c-1.92,42.84-4.44,85.68-7.68,128.28-1.56,21.48-4,42.72-7.08,64a192.16,192.16,0,0,0,1.2,64.32c.72-.24,1.2-.6,1.32-1.08a168.43,168.43,0,0,0,5.52-32.16c3.24-42.36,6.12-85,8.4-127.56l2-35.52,1.44-.12a256.48,256.48,0,0,0,13.08-28l8.64-21.48,1.32,4.32q16.56,45.36,30,91.32c5.88,20.4,11.64,40.8,17,61.08q8.1,30.78,16.8,61.68c3.24,11.64,7.92,21.48,14,29.4a3.45,3.45,0,0,0,1.08-2.52,397.23,397.23,0,0,0-.84-46.2c-.84.12-1.32.84-1.2,1.92a95.41,95.41,0,0,1-.36,18.6c-4.92-16.44-10.2-32.88-15.6-49.08-8.52-24.84-16.2-50-23.28-75.36Q343,306.6,324,254q18.18-42.48,39.84-83.52Zm87-38.76a147.86,147.86,0,0,0-48.48,79.2,425.84,425.84,0,0,0-11.76,96.24,1306.76,1306.76,0,0,0,7.44,150.24,87.71,87.71,0,0,0,7.56,27.12,120.61,120.61,0,0,0,9.12,16.32,101.07,101.07,0,0,0,10.32,13.08,34.76,34.76,0,0,0,7,5.4l2,1,2,1A39.25,39.25,0,0,0,461,495.84a31,31,0,0,0,25-7.08,110.41,110.41,0,0,0,34.8-50.28c3.84-11.28,2.28-22.08-4.56-32.4l-1.2-1.56,2.76,10.68q-10.8,39.6-47.4,59.88c-8.4,4.68-16.44,3.6-24.12-3.48a84.73,84.73,0,0,1-23.88-37.08,179.92,179.92,0,0,1-9.12-54.84q-.54-44.1-1-88.32l55.8-2a14.92,14.92,0,0,0-.84-16.32l-55.08,5q-2-70.74,32-131.28a116.37,116.37,0,0,1,20.88-26.88c20-1.08,37.32,5,51.72,18.12l3.48,3.48q.18-24.66-25.2-34.56A57.21,57.21,0,0,0,465.36,103.68Z" transform="translate(-41.49 -94.44)"/></svg>