<svg id="Layer_1" data-name="Layer 1" xmlns="http://www.w3.org/2000/svg" viewBox="0 0 497.64 547.56"><defs><style>.cls-1{fill-rule:evenodd;}</style></defs><path class="cls-1" d="M249.12,404.88c0-5.88,3-8.88,8.88-8.88,5.52,0,12.12,2.4,19.68,7.2a69.33,69.33,0,0,1,19.56,19.2c5.88,8.76,8.88,17.64,8.88,26.64,0,6.36-2.28,12.72-7,19.32-6.36,8.76-15.12,13.2-26.52,13.2-8.76,0-15.24-.72-19.2-2.16v25.08c0,18.12-.12,29-.24,32.64-.6,13.56-2.28,23.64-4.92,30.12-1.32-1.8-1.92-4.56-1.92-8l2.16-55.56L246.36,433c0-8.52.12-13.92.36-16.44a35.28,35.28,0,0,1,2.4-10.32Zm6.6,5.28-4.08,1.8c1,22.44,1.56,37.92,1.68,46.44l.12,7.2,4.68,1.2,6.36,1.44c10.68,0,19.92-2.88,27.6-8.64a34.72,34.72,0,0,0,6.72-6.48c1.44-1.92,2.16-3.36,2.16-4.2a31.36,31.36,0,0,0-2.16-9.6,56.48,56.48,0,0,0-7.2-13.56c-8.28-11.52-18.84-17.28-31.44-17.28A31.18,31.18,0,0,0,255.72,410.16Zm50.76-158.64c1,.12.6.24-1.2.24L286.92,245c-19.56,0-32.52,15-39.12,44.88a187,187,0,0,0-4.2,47.52c0,10.32.72,18.24,2,23.88,3,13.32,9.12,20,18.36,20,10.68,0,18.12-2.88,22.56-8.52a29.46,29.46,0,0,0,3-5.16q1.26-10.62,3.6-23v-9l-9.24.72-6.12.6a3.1,3.1,0,0,1-3.24-2,7,7,0,0,1-.36-2.52c0-1.32,1.2-2.88,3.6-4.8a18.37,18.37,0,0,1,8-3.84c7.8-1.44,11.64,4.08,11.64,16.44,0,5.16-.6,14.52-1.92,28.08-1.68,17-3.6,28-5.64,32.88q-2.16-2.52-2.16-8.28c0-3,.12-6.36.36-10-5.76,8.28-13.08,12.48-22,12.48-12.84,0-21.12-8.88-25.08-26.64a112.92,112.92,0,0,1-2.16-19.2V339.12c0-10.2.6-21.6,1.8-34,1.44-14.4,3.24-24.84,5.4-31.44l5.52-16.44a44.48,44.48,0,0,1,10.44-16.08,24.57,24.57,0,0,1,12.36-6.12,36.94,36.94,0,0,1,14.52-.24,27.18,27.18,0,0,1,12.36,5.4A13.94,13.94,0,0,1,307,250.68l-.12.12ZM139.92,401a11.59,11.59,0,0,1,1.32-3.12c5.4,4.2,15.24,12.84,29.4,25.92,13.56,12.36,22.08,21.12,25.8,26.28,4.56-8.28,9.24-16.32,14-24.36,8.4-14,14.4-23.4,17.88-27.84,2,2,3,4,3,5.76,0,.84-6.36,11.76-19.2,32.64q-21.24,34.56-27.6,49.8c-12.84,30.36-23.28,57.24-31.44,80.88a5.24,5.24,0,0,1-3.72-3.12,15.66,15.66,0,0,1-.24-3.24q0-21.42,34.68-87.36l8.28-15.48q-7.74-6.66-24.84-22.32c-18.36-17-27.6-27.36-27.6-31A24.82,24.82,0,0,1,139.92,401ZM193.8,94.8c0,8.16-2.64,15.84-7.92,23.16a38.52,38.52,0,0,1-22.08,15.12c3.36,8.28,8.52,21.72,15.36,40.32q18.18,48.6,18.12,59.16c0,3.36-.84,6-2.4,7.8q-8.64-17.82-23.16-62.88c-7.2-22.2-11.52-36.6-13.08-43.32l-10.92.84-7.32-.48-1.56,14.28c-.72,9.72-1.68,25-2.76,45.48a324,324,0,0,1-6.24,45.84c-1.56-1.8-2.4-4.68-2.4-8.64q0-18.72,6.36-85.68l1.56-15.72v-2.52a10.27,10.27,0,0,1,.72-4.44q5.22-48.6,9.72-67.56c-1.56-1.08-2.4-2.16-2.4-3.24a41,41,0,0,1,.24-4.44c19.8,3.72,33.6,10.44,41.52,19.92Q193.8,78.06,193.8,94.8Zm-4.32-1c0-11.4-7.68-21-23-28.56L150.6,58.2l-1.2-.6q-.36,10.44-5,46.08l-2.28,18.24,1.56.12c9.72,1.08,19.32-.72,29-5.4,6-3,10.44-6.72,13.32-11.4A21.14,21.14,0,0,0,189.48,93.84ZM203.4,30l.12,3.36-.12,4.32c-.24,1.56-1,2.4-2,2.4-7,.12-13.92,0-20.76-.36-13.32-.84-22.56-2.4-27.48-4.8L105,34.44V84.12a35.23,35.23,0,0,1,1.32,7.32v53.64c.84,6.84,2.28,41.4,4.44,103.92q3.06,93.06,3.12,116.28,0,18.9-1.44,52.2l-2.52,49.68c-.36,7.2-1.2,15.72-2.4,25.68l-3.36,25.44q-.9,7.92-1.8,24.84c-.84,10.2-2.76,18.48-5.52,25-1.2-2.52-1.8-6-1.8-10.56l7-84.24q7-87.84,7.08-107.64,0-22.32-3.24-114.12-3.24-91.44-4.32-101.28V93.36l-.84-3.24V39L100,36.72,99.6,34.2,88,33.72,72.48,33.6c-5.28,0-14.28,1.2-27,3.48L24.36,40.56c-4.08,0-6.6-.84-7.56-2.64a13.93,13.93,0,0,1-.24-3.24q0-4,19.44-9a144.87,144.87,0,0,1,36.48-5.16L88,20.76l14.28.6,50.88.6c24.48,1.32,39.84,3,46,5C201.48,27.84,202.92,28.8,203.4,30Zm25.2,11.52V53.28c0,9.48-.6,30-1.92,61.44l-2.4,52.2c-.6,15.48-.72,38.64-.36,69.36l.72,43.32c0,30.6-.12,49.2-.48,55.8a395.09,395.09,0,0,1-7.68,60,9.38,9.38,0,0,1-3-4.32,8.35,8.35,0,0,1-.48-2.76c0-10.92.6-23.16,1.92-36.72l4.32-36.84V239.28l-.84-2.4V194l1.8-40.56,1.44-41.4,1.08-41.4c-.24-9.48-.24-16.44-.12-21,.36-8,1.56-14.4,3.84-19.08C227.52,32.28,228.24,35.88,228.6,41.52ZM425.4,404.28A25.12,25.12,0,0,1,436.8,401c11.88-1,24.36,2.28,37.44,9.84l15.84,12.72c6.24,5.28,10.44,9.72,12.48,13.32,5.88,9.72,9.48,18.6,10.8,26.52.6,3.6.84,11.64.84,24.24,0,10.68-.24,17.76-.84,21.24-1.08,6.12-3.84,14-8.52,23.76-1.56,3.12-5.16,6.6-11,10.44q-2.52,1.62-13.68,7.92c-4.92,2.76-13.8,6-26.64,9.48-12.24,3.48-20.16,5.16-23.88,5.16L416,565.44a22.09,22.09,0,0,1-2.52-5,25.53,25.53,0,0,1-1.08-3.24l-1.32,7.44c-1.08-.84-1.68-2.52-1.92-5a51.05,51.05,0,0,1-.24-5.64q0-14.4,4.68-73.68,4.86-61.92,7.56-74.52l.6,1.92A9,9,0,0,1,425.4,404.28ZM423,420c0,7.32-1.2,27.84-3.48,61.32q-3.42,48.06-6.6,72.36l17.52-3c14.76-2.76,27.12-6.24,37-10.44,2.76-1.2,8.64-3.24,17.88-6.12a27.05,27.05,0,0,0,11.4-7.2c5-5.16,8.52-11.76,10.56-19.68a81.29,81.29,0,0,0,2.16-20c0-18.84-4.32-34-13.08-45.48-14-18.72-38.4-27.36-73.32-25.8Zm-34.8-1.32a3.73,3.73,0,0,1-1.32,2.52,4.5,4.5,0,0,1-2.76,1.32l-9.24-1.08-9.24-1.08q-38,0-51.12,36.24A100.51,100.51,0,0,0,310,475.8a78.62,78.62,0,0,1,9.72-2.52l20.52-3.6,28.68-5.16v-.6l13.32.24a10.05,10.05,0,0,1,2.16,6.48,9.05,9.05,0,0,1-.48,3.36l-1.68,3.24c-17.76,2.28-28.32,4.32-31.56,6l-3.24.6L333,484a72.43,72.43,0,0,0-17.16,1.8l-7.32,2.4c-.6,7.44-1,15.72-1,25l-.24,7.44a87.29,87.29,0,0,0,1,13.2c2,12.12,6.72,18.12,14.16,18.12a100.87,100.87,0,0,0,50-12.84q14.76-8.28,22.68-18a14.09,14.09,0,0,1,2.16,8c0,2.52-1.08,5.52-3.24,9.24a44.74,44.74,0,0,1-11,12.48c-13.2,10.68-31.2,16-54.12,16-14,0-22.56-8.64-25.68-25.92a78.82,78.82,0,0,1-1.2-18.12l.6-8.76c0-14.88.12-23.4.48-25.68l.36-2.16-.12-.6a21.27,21.27,0,0,1-.12-2.88,5.07,5.07,0,0,1,1.56-3.84l4.56-27.36a146.71,146.71,0,0,1,6-16.08,39.6,39.6,0,0,1,12.48-15.24c11.16-8.28,24.12-12,39.12-11.4q9.18.36,15.12,3.24C386.16,413.76,388.2,416,388.2,418.68Zm-28-170.76q0,22-4.32,84.84c-2.76,40.2-4.92,64.2-6.24,72.12-1.2-.84-2.28-2.52-3.12-5.16a17.6,17.6,0,0,1-.84-4.56q0-17.1,4.8-74.76l-1.8.12-5.16.84L326,322.8l-10.08.6L314,348.6v48l-1.32,2.16a12.8,12.8,0,0,1-2.76,2.88,8.23,8.23,0,0,1-1.56-3.48,17.39,17.39,0,0,1-.36-3.84,20.39,20.39,0,0,1,1.08-6.48V342.48c.48-5.4.84-12.12,1-20.16l-.6-1.44a8.06,8.06,0,0,1-.36-2.76,6.1,6.1,0,0,1,1.2-3.84c.12-14.16.36-22.8.48-25.8q1.26-31.86,8.64-51.84a14.91,14.91,0,0,1,1.92,7.68c0,4.68-1.08,21.84-3.24,51.24L317,310.44c5.16-1.32,13.8-2.28,25.92-2.64l1.44-.36h7.32c3.6-41.64,5.88-64.8,6.72-69.72C359.64,240.24,360.24,243.6,360.24,247.92ZM479.88,65v2.28l-.24,1.44-.24.36c-.12.36-.72.48-1.8.48q-2.88,0-7.2-2.88c-3.12-2.16-7.56-3.48-13.2-4H444.48q-20.16,2.88-31,60.36l-1.68,10.2a35.42,35.42,0,0,1,4.68-1l29.52.24a6.85,6.85,0,0,1,2,2.64,7.31,7.31,0,0,1,.72,3.36c0,2-1,4.08-3,6.12H416.52l-6.72,2.16q-1.26,10.26-2.16,21.24c-1.08,12.72-1.68,23.28-1.68,31.8a29.77,29.77,0,0,0,2,11.4c2.52,6.36,7,9.48,13.44,9.48q16.74,0,29.88-13.68A87.93,87.93,0,0,0,463.08,191l1.32,1.56a6.47,6.47,0,0,1,.36,2.64c-9.48,26.88-21.12,40.32-35.16,40.32s-23-5.4-26.76-16.08a33.58,33.58,0,0,1-1.92-12l.24-7.56q0-45.18,7-81.36c7.32-38.52,19.44-61.2,36.6-68.28,13.32.12,23,1.92,28.92,5.52C477.84,58.32,479.88,61.44,479.88,65Zm-27.6-38.28c9.24-.48,15.48.6,18.6,3.36a6.42,6.42,0,0,1,2.28,5.28c0,3-.36,4.68-1,4.92a85.13,85.13,0,0,1-9.12.24l-6.6.24-5.28.6-6,.36-7,.72-43.56.36c.6,7.32,1.2,17.64,1.56,31.08a257.46,257.46,0,0,1-4.32,47.88v53.52c-1.56,17-2.88,36.24-3.72,57.48-.6,15-1.2,34.56-1.68,58.44C386.16,311.76,385.08,331,383,349c-.72,6.6-1.56,16.32-2.64,28.92A90.28,90.28,0,0,1,372.72,406a12.91,12.91,0,0,1-1.56-3.48,17,17,0,0,1-.36-3.72q0-3.42,7.32-97.56,7.74-99.18,9-132.12V115.56c3-29.64,4.8-53.88,5.64-72.72l-20.52.24L356,45l-17.4,1.8L311,48.24l-10.92,1c-2.76,0-4.32-1-4.8-2.76V43.08c0-2.28.24-3.6.72-4.08.84-.6,3.36-1.08,7.8-1.56q41.22-4.32,69.48-8.52l66-.48,2-.36,10.92-.72Z" transform="translate(-16.56 -20.52)"/></svg>