<svg id="Layer_1" data-name="Layer 1" xmlns="http://www.w3.org/2000/svg" viewBox="0 0 552.46 536.55"><defs><style>.cls-1{fill-rule:evenodd;}</style></defs><path class="cls-1" d="M553.8,505.44a86.32,86.32,0,0,1,11.88,4.08,12.94,12.94,0,0,0-2-9.84c-4.92-7.2-12.12-10.2-21.36-9.12a99.55,99.55,0,0,0-30.48,35.28Q499.38,549.78,521.88,565q21.24,14.4,40.92-4.2c5.16-4.92,6.6-10.92,4.32-18.24a46.6,46.6,0,0,1-21.84,13.56c-14.28,4.2-25.44.12-33.6-12.48l2.88-7.32,39.6-.6a11.09,11.09,0,0,0,1.32-6.24l-.24-1.2-1-2.52-.72-1.32-32.88,2.16,18.6-22a37.09,37.09,0,0,1,11.52.12ZM225.48,427.68q-1.26,32-.72,63.36c15.24,1.8,30.72,3.12,46.32,3.84,2.76-4.08,3-8.4.6-13l-42-3.84.12-.84a286.32,286.32,0,0,0-.12-61.68A20.44,20.44,0,0,0,225.48,427.68Zm3.24-60.12c-4.92,10.68-6.84,20.76-5.76,30.48a455.13,455.13,0,0,0,23.76-58.2,355,355,0,0,1,1.8,35.76c.12,13.2,2.4,25,6.84,35.16a301.4,301.4,0,0,0,23.28-63.36,273.76,273.76,0,0,0,2.64,34.44c1.8,12.84,5,24,9.6,33.48a73.42,73.42,0,0,0-1.2-35.28,116.55,116.55,0,0,1-4.2-35.28c.36-9.24-1.32-16.92-5.16-23q-11,36.36-24.12,73.08l-.24-.6q-2.52-37.8-6.84-74.64a76.26,76.26,0,0,0-10.8,22.68A215.09,215.09,0,0,1,228.72,367.56Zm38.64-147c3.6,15.36-1.92,24.84-16.44,28.56-.12,0-.36-.12-.6-.48l.12-36.6a20.57,20.57,0,0,1,16,7.32ZM144.72,116.28A19.57,19.57,0,0,1,160.56,126a26.3,26.3,0,0,1,3.36,9L162,141.48l-3.24,4.92L155,149.64l-3.6,1.32-15.6.84.72-35.52A31,31,0,0,1,144.72,116.28ZM158,113.52a40,40,0,0,0-15.24-6.36l-7.32,1.92c-3,24.72-5.76,49.68-8,74.88A45,45,0,0,0,129.72,203l2,5,3.6-45.24,13.44.6C151.56,182.76,159,199,171,212a155.33,155.33,0,0,0-19.56-49.32c9.24-3.72,14.64-10.8,16.08-21.24a44.6,44.6,0,0,0,.12-12A21.49,21.49,0,0,0,158,113.52ZM146,34.68A525.13,525.13,0,0,1,16.8,48.48a17.23,17.23,0,0,0-1,8.16,3.72,3.72,0,0,0,2,3.12L86.52,57A266.18,266.18,0,0,0,80,121.2c.48,42.84.36,85.68-.48,128.28q-1.26,64.62-5,129c-2.52,42.84-3.84,85.8-4.08,129.12a87.79,87.79,0,0,1-1.68,16c-2.4,12.6-1.2,23.16,3.48,31.68a33.68,33.68,0,0,0,4-15.48c.36-34.44,1.56-68.76,3.84-103q4.32-63.9,6.24-128.28c1.32-43,1.68-86,1.32-129.12q-.54-61.92.24-122.52,34.56-3.06,68.28-9a12.76,12.76,0,0,0,1.32-8.16,7.66,7.66,0,0,0-1.92-4,1.8,1.8,0,0,0-1.32-.48Zm103.8,168.84A690.74,690.74,0,0,0,239,292.2,28.78,28.78,0,0,0,241,304.56l1.32,2.4,6.36-46.8,7.8.48a103.46,103.46,0,0,0,8.16,31.08l6.6,14.88c1.08,2.52,2.4,3,3.84,1.68a139.64,139.64,0,0,0-10.92-36.84L259.2,260a18.36,18.36,0,0,0,10.92-10.44,54.63,54.63,0,0,0,3.48-12.12,34.41,34.41,0,0,0-6.84-28,37.79,37.79,0,0,0-6.72-7.08l-9-.24ZM211.2,52.2q-3.42,52.92-4.8,106.32-1.8,64.62-4,129.12-2.16,64.26-1.68,128.28t-1.68,127.44c-2.64,7.32-1.68,13.2,2.76,17.76a100.91,100.91,0,0,0,6.12-38c-1.32-43.32-1.92-86.28-2-129.12q-.18-64.8,3-129c2-42.72,3.48-85.44,4.08-128.28.24-21.72,1.44-43.32,3.48-64.8a175,175,0,0,0,.24-32.64C213.36,42.48,211.56,46.8,211.2,52.2Zm142.2-2.76A128.91,128.91,0,0,0,323,69a106.9,106.9,0,0,0-16,36.72,567.56,567.56,0,0,0-14.16,107.76,1118.09,1118.09,0,0,0,2.76,128.4,653.74,653.74,0,0,0,22.68,127.44,31.4,31.4,0,0,0,9,15q22.86,21.06,45.6-.36a100,100,0,0,0,17.52-22q15.66-26.82,11.64-54.48c-5.88,13-11.52,26.76-17,41.52q-11.88,31.68-44.64,27.84a9.9,9.9,0,0,1-6.24-3.24,81.52,81.52,0,0,1-16.68-35.28,788.6,788.6,0,0,1-14.76-95.16q-2.88-31.14-4-62.28c20.52,1.8,40.68,4.08,60.48,6.72l.84-1.68a13.05,13.05,0,0,0,.84-4.8v-.84l-.12-.84-.12-.84a9.9,9.9,0,0,0-1.2-3.12.87.87,0,0,0-.72-.48c-20-2.16-40.2-3.6-60.24-4.44-.48-18.6-.36-37.2.24-55.8a735.51,735.51,0,0,1,8.88-93.6C311.16,99.48,322,83,339.84,71.64q35.64-22.5,57.12,9.24l.24-.84c-.36-21.84-13-32.76-37.92-32.64A24.54,24.54,0,0,0,353.4,49.44ZM508.08,94.32a184.59,184.59,0,0,1,33.12,66.36A401.39,401.39,0,0,1,554,287.16a642.84,642.84,0,0,1-19.92,128.4q-17.46,66.6-67.2,111.48a35.24,35.24,0,0,1-5.64,4.08,136.46,136.46,0,0,1-53,17.52c4.2-32.28,8.16-64.68,11.64-97.2l2.52-23.76a815.82,815.82,0,0,0,1.8-128.16q-4.14-64.26-7.32-128.28a752.35,752.35,0,0,1,2.88-116.52Q456.84,49.5,486,71.4A153.47,153.47,0,0,1,508.08,94.32Zm31.44,43.8-4-10.56-4.32-10.32a196.79,196.79,0,0,0-13-25A5.69,5.69,0,0,0,516,90.12,101.71,101.71,0,0,0,484,58.2a107.66,107.66,0,0,0-44.16-16,52.25,52.25,0,0,0-19.32,1.08l-1.32-1.08-.48,1.56-3.12,1.08.12,10.56a374.5,374.5,0,0,0-7.32,96.84l8,143.4a1065.2,1065.2,0,0,1-15.6,250.8l-1.56,10.92a13.39,13.39,0,0,0,.6,5.4l1.2,2.64,2.76,1,1.8,1.44.24-.12a142,142,0,0,0,33.6-6.6,70.55,70.55,0,0,0,29.4-17,39.32,39.32,0,0,0,17.4-12.6,233.22,233.22,0,0,0,28.92-45.72,442.27,442.27,0,0,0,42.12-152.64c1.92-20.76,2.88-41.52,3-62.52a358.77,358.77,0,0,0-2-41c-.84-9-2-18-3.36-26.88S552,184.8,550.2,175.92a181.9,181.9,0,0,0-5.52-21.84Z" transform="translate(-15.7 -34.68)"/></svg>