<svg id="Layer_1" data-name="Layer 1" xmlns="http://www.w3.org/2000/svg" viewBox="0 0 303.72 209.4"><defs><style>.cls-1{fill-rule:evenodd;}</style></defs><path class="cls-1" d="M303.72,211c14.28,2.28,24.36,11.4,30,27.6a177.17,177.17,0,0,1,9.36,43.08,148.22,148.22,0,0,1-2.76,44.88,76.06,76.06,0,0,1-22.8,40.56c-12.24,11.64-26.4,14.76-42.36,9.12-13.92-4.92-22.56-15.12-26-30.48a182.2,182.2,0,0,1-4.56-44.88,188.31,188.31,0,0,1,6.12-45,64.89,64.89,0,0,1,26-38A57.65,57.65,0,0,1,304,207.6Zm-4.92-15.24c-24.48,4.2-40.92,18.24-49.44,42.36q-22.5,63.18-2.28,126.12a44.52,44.52,0,0,0,8.16,15.24q25.56,31.32,60.72,9.12a40.16,40.16,0,0,0,14.4-16q29.16-58.68,16.2-124.2c-4.92-25.32-18-44.16-39.24-56.28l-.84.72a6,6,0,0,0-1.8,2l-.36.48Zm-53.88.72-.84-1.56-93.6,5-.24,9,45.84,2.4q-3.42,73.62-4.56,148.2a64.3,64.3,0,0,1-1.44,11.76,47.72,47.72,0,0,0,.84,25.32c.84,2.52,1.92,4.2,3.48,4.92A946,946,0,0,0,201,300.36l.24-29.88c.12-19.8-.24-39.48-1.08-59.16l44.52-4.44A10.47,10.47,0,0,0,244.92,196.44Zm124.68,4.32-.24-3.72a367.8,367.8,0,0,0-7.08,76.56c.36,32-.6,64-3.12,95.64-1,12.6.84,23,5.28,31.44a390.92,390.92,0,0,0,4.68-75.48c-.24-10.56-.36-21.12-.24-31.8a91.09,91.09,0,0,0,43.68-3.12,6.49,6.49,0,0,0,1.32-3.12,11.29,11.29,0,0,0-1.32-8.16,1.39,1.39,0,0,0-.84-.6l-3.72-.48A166.09,166.09,0,0,1,369.24,282c.12-6.84.48-13.8.84-20.76a437.8,437.8,0,0,0,.24-50.16l.36.24,1.68.36a383.89,383.89,0,0,0,79.44,5l1.08-1.32.36-.84.6-2.4.12-.84v-3.24l-.36-1.68a6.72,6.72,0,0,0-1-2.4l-.84-.36a760.64,760.64,0,0,1-77.4-4.44v.12l-2,.36Z" transform="translate(-150.24 -192.12)"/></svg>