<svg id="Layer_1" data-name="Layer 1" xmlns="http://www.w3.org/2000/svg" viewBox="0 0 475.43 322.8"><defs><style>.cls-1{fill-rule:evenodd;}</style></defs><path class="cls-1" d="M234.24,165.84c16.32,5.88,29.64,16.2,40.08,30.72q32.58,45.54,17.76,101.52-9.72,36.54-42.6,55.32c-14.28,8-28.56,8.4-43.08.84-23.88-12.36-36.6-31.44-37.92-57.48A348.09,348.09,0,0,1,172.8,221q8.28-49.32,57.12-61.68c1-.24,1.44.36,1.44,1.68a4.43,4.43,0,0,0,1.32,3.24Zm.6-18.12a71.69,71.69,0,0,0-40.8,18,37.41,37.41,0,0,0-10,13.32A276.62,276.62,0,0,0,159.6,287.88q-1.26,54,45,82.68c9.72,6.12,20.4,7.32,31.8,3.6q49.5-15.84,62-67a202.28,202.28,0,0,0,5.64-59.4q-3.42-65.34-60-98.64l-4.56-.6ZM193.92,97.8q-38.52-1.08-77-1.44a484.6,484.6,0,0,0-73.08,10.2l-.72.36a6.46,6.46,0,0,0-1.2,2.4A17.15,17.15,0,0,0,42,118.2a13,13,0,0,0,1,2.28l.84,1.08,3.72-.72a493.67,493.67,0,0,1,83.88-9.72,467.81,467.81,0,0,1-3.12,83q-7.92,63.36-11,127.32a567.17,567.17,0,0,1-6.84,63.84q-3.06,17.82,3.24,32.4a2.14,2.14,0,0,0,1.08-1.44A1001.51,1001.51,0,0,0,124.8,308.52c1.08-26.52,3.36-53,6.6-79.32A659.24,659.24,0,0,0,135.84,111a508.51,508.51,0,0,1,72.48,3.72,12.44,12.44,0,0,0,2.64-11.4,9.67,9.67,0,0,0-1.68-4l-1-.84ZM414,99.36c-.6,0-.84.12-.84.36l-1,3.48a8.65,8.65,0,0,0-1.44,5.64c-8.52,33.24-16.2,67-22.8,101.16-4,20-8.76,39.72-14.64,59.28A331.3,331.3,0,0,0,370,230.4Q360.42,166.68,353,103.92a24.68,24.68,0,0,0-2.52,5.76l-.36-4.2a644.5,644.5,0,0,0-19.32,85.2c-3.72,23.4-8,46.8-12.72,70.08Q305.34,323.4,293.52,386l-.48.24c-1.56-.12-1.68.72-.36,2.76q-7.56,14.58,1.44,24.12a418.14,418.14,0,0,0,15.12-57.24q10.26-54.36,18-109.44A777.45,777.45,0,0,1,346.32,153a144.8,144.8,0,0,0,4-22.08q7.74,59.94,13,120.24c.84,10.56,1.32,21.12,1.32,31.56-.12,9.84,2.52,17.4,7.68,22.56l.48-5.16,1.44,3a165.28,165.28,0,0,0,9.48-31.56q12.06-62.46,25.44-124.92a218.57,218.57,0,0,0,3.84-24.12c6,37.8,10.2,76,12.48,114.24,2.64,42.84,7.32,85.2,14.16,127.32a230.78,230.78,0,0,1,3,32.52c.24,10,3.12,17.4,8.76,22.56a4.78,4.78,0,0,0,1.08-2.52,297.53,297.53,0,0,0-4.8-61.8,1077.56,1077.56,0,0,1-15.12-127.32A669.35,669.35,0,0,0,414,103Zm79.56,3.72Q456.3,146.82,459.24,211a620.51,620.51,0,0,1-2.88,92q-5.58,53.46,9.72,101.88a11.07,11.07,0,0,0,5.16,6.12,28.81,28.81,0,0,0,9,3.24c23.88-9,34.68-25.32,32.28-48.72l-.6-2.64c-7.32,16.56-19.56,27.84-36.48,33.72l-4.32-2.52a683,683,0,0,1-2.64-142.8,49.13,49.13,0,0,0,30.72-2.64,14.72,14.72,0,0,0-.84-16.2l-29.52,8.16Q460,175.26,490.32,119.28q14.58-5.22,23.76,9.36a5.92,5.92,0,0,0,2.16,2c2.64-15.72-4.32-24.84-21-27.36Z" transform="translate(-41.35 -96.36)"/></svg>