<svg id="Layer_1" data-name="Layer 1" xmlns="http://www.w3.org/2000/svg" xmlns:xlink="http://www.w3.org/1999/xlink" viewBox="0 0 583.22 508.4"><defs><style>.cls-1{fill:none;}.cls-2{clip-path:url(#clip-path);}.cls-3{fill-rule:evenodd;}</style><clipPath id="clip-path" transform="translate(0.01 -60.12)"><rect class="cls-1" y="60.12" width="586.8" height="514.8"/></clipPath></defs><g class="cls-2"><path class="cls-3" d="M310.68,504.36A54.48,54.48,0,0,1,291,505.8c-5.88,12.36-12.24,24.6-19.08,37-.12.36-.72.6-1.68.6a130.16,130.16,0,0,1,11.64-38.28c10-20.76,19.44-40.92,28.2-60.48a310.92,310.92,0,0,0,7,46.68l.84,3.84.48,2.76a300.47,300.47,0,0,1,5,38.4,3.93,3.93,0,0,1-1.2,3.24c-5.16-9.48-9-21-11.28-34.32Zm22.44-47.52a13.52,13.52,0,0,1,6.72-10.44c16.44,1.44,22.32,10,17.88,25.44l-.6.6-.72-.72a9.12,9.12,0,0,1-1.32-4l-.12-2.4a10,10,0,0,0-7.68-5.52,30.88,30.88,0,0,0-7.44-.12c-3,11.16,1.2,20.76,12.36,28.68a10.36,10.36,0,0,1,4,5.88q7.92,29-18.48,43.92a16.9,16.9,0,0,1-7.08,2.16,11,11,0,0,1-5.16-8.88c-.24-4.2,1.08-7.2,4.08-9l.72.84,1,1.56.72,1.44,4.68-.6,1.56-.48a27.83,27.83,0,0,0,11.76-12.36l3.12-7.2a29.73,29.73,0,0,0-13-18.6,18.29,18.29,0,0,1-5.16-4.92A56.55,56.55,0,0,1,333.12,456.84Zm-26,12.36c-3.36,8.52-7,16.92-10.92,25.44a92.27,92.27,0,0,1,12.84-2c-.6-4.8-1.2-9.6-1.56-14.52ZM73.08,193l1,3c4.92-1.8,9.12-5.28,12.84-10.32-.72-17.76-10-24.84-27.72-21.12.24,10.68.12,21.48-.36,32.28a29.32,29.32,0,0,0,11.64.12l-.12-.72C70.2,194,71.16,193,73.08,193Zm-18.36-36.6a6.25,6.25,0,0,1,3.84-2.4A17.57,17.57,0,0,0,66,150.72c18.6,2.28,27.48,13,26.52,32.16-.72,13.56-5.64,22.44-14.64,26.4A221.19,221.19,0,0,1,85,261.12l-.24.84c-5.64-5.76-9.36-14.16-10.92-25.08-1.32-8.52-2.16-17.16-2.76-25.68a47.57,47.57,0,0,1-13.08,0C56.88,226.08,55.32,241,53,255.84l-.6,1c-5-5.76-6.84-13.92-5.52-24.6L55.56,165l-.72-1.44a8.05,8.05,0,0,1-.72-4.68Zm57-88.2a12.36,12.36,0,0,1,1.8,4.8,15.47,15.47,0,0,1-1.44,9.84,276.4,276.4,0,0,1-71.64,4.68,329.12,329.12,0,0,1-.24,54.36Q34.44,205.56,33,270.12q-1.44,64.08-5.88,128c-2.28,34.44-5.28,68.76-8.88,103.2A44.88,44.88,0,0,0,19,516.48L18.12,519l-.24.72c1.56,10.68-.24,19.92-5.4,27.6a200.52,200.52,0,0,1-1.2-64.08Q19.92,419.52,23,355.08c2-42.72,3.48-85.44,4.56-128.28s3.12-85.2,6.12-127.56a71.2,71.2,0,0,1,1.92-12.12,304.14,304.14,0,0,1-34-4.8A6.47,6.47,0,0,1,.24,79.08a15.47,15.47,0,0,1,1.44-9.84A315.79,315.79,0,0,0,99.6,66.6L110,67.68A6.88,6.88,0,0,1,111.72,68.16Zm157.2,45.48c-14.4-22-34.44-34.32-60-36.84q-38.7,9.54-55.44,47.16A412,412,0,0,0,121,247.44c-1.56,15.84-3.84,31.68-6.84,47.4A636.55,636.55,0,0,0,102.84,422c.36,29,8.16,55.56,23.64,79.56,10.68,16.68,26,26.76,45.84,30q36.72,6.12,65.76-17.16c20.28-16.2,33.6-37.2,39.72-63,7.56-31.32,14.4-62.64,20.76-94.08a217,217,0,0,0,4-39.48,852.32,852.32,0,0,0-8.76-127.56A237.6,237.6,0,0,0,268.92,113.64ZM210,60.12a57.41,57.41,0,0,1,35.4,13.8l.84.72c15,4.44,25.8,14.4,32.16,30a406.68,406.68,0,0,1,29,121.92c1.68,21.24,3.12,42.72,4.2,64.2a358,358,0,0,1-16,128c-6.24,19.8-12.36,39.72-18.24,59.52q-18.36,61-82.92,72.6a61.36,61.36,0,0,1-42.84-7.44Q112.08,520.8,103.44,475a435.27,435.27,0,0,1-4.68-127.32q7-63.9,18.36-126.84,5.58-31,13.2-61.56,13.32-54.18,55.2-89A44.34,44.34,0,0,1,210,60.12ZM370.44,290l-.36.84a304.45,304.45,0,0,1-19.32,25.2A250,250,0,0,1,362,390.24,485.82,485.82,0,0,0,421,379.08c3.6,2,4.56,5.4,3,10l-.24.84c-10.68,3-21.48,5.88-32.52,8.64a298.86,298.86,0,0,1,1,55.92l-7.08,89.88a2.75,2.75,0,0,1-2.52,2.76,458.82,458.82,0,0,1,.12-64.2c1.92-28,4-55.92,6-83.64l-15.12,3.48c-11.64,2.52-22.2,1.56-31.8-3.12a8.27,8.27,0,0,1-.24-5.64l.48-1.68,19.2-1.92a241.25,241.25,0,0,1-13-71.52c-6.12,7-12.6,13.56-19.32,19.92-1,12-2.16,24-3.72,36v.84a43.49,43.49,0,0,1-4.08,13.8c-4-7.32-4.8-16.56-2.52-27.6a285.8,285.8,0,0,0,5-42.84,174.68,174.68,0,0,1,6.72-40.8c.36,16.2.12,32.64-.72,49.08a352.35,352.35,0,0,0,40-49.32A12.42,12.42,0,0,1,370.44,290ZM357.36,84.48a23.7,23.7,0,0,0-8.88-7.32,27.13,27.13,0,0,1-11,1.32q1.44,37.08-.72,74.16c22.44-2,33-14.88,31.68-38.28A54.48,54.48,0,0,0,357.36,84.48Zm-6.12,80a22.81,22.81,0,0,1-15.48,1.8c-.84,10.68-1.92,21.24-3.24,31.92l-6.24,52.92a39.15,39.15,0,0,1-3,21.6c-4.32-8.76-5.52-19.32-3.48-31.68a918,918,0,0,0,11.76-127.2,202.69,202.69,0,0,1,3.84-35.64l-2.4-.6a30.15,30.15,0,0,1-.48-3.24,15.93,15.93,0,0,1,.48-4.8A40.33,40.33,0,0,1,344.16,66c16.92,5.64,26.52,17.88,28.56,36.6,2.16,19.2-1.44,36.6-10.92,52.2A25.82,25.82,0,0,1,351.24,164.52ZM468.6,63.36C486,68,493.68,80,491.4,99.24l-.36.84c-3.36-5.4-7-11.52-10.92-18.48-3.12-5.64-7.8-7.32-13.92-4.8Q445,110.64,444.36,152.4c-.36,21-.84,42-1.56,63.24l-1.2,33.12a257.58,257.58,0,0,1,28.56,3.48l1,.48.6,1.68.48,1.56a13.73,13.73,0,0,1,.24,4.92,8.11,8.11,0,0,1-2.16,4.56,123.26,123.26,0,0,0-22.2-2.4L441,262.8v-.12q-1.8,40.68-4.2,81.24a344.5,344.5,0,0,0,4.2,79.56,48.39,48.39,0,0,0,9.72,9.48,30.55,30.55,0,0,0,6.24,4c18.6-7.32,30.6-21.12,36-41.64l2,.48a3.66,3.66,0,0,1,1.56,1.2q-1.44,34.2-30.84,53.76l-1.92,1.44c-19.8-2.76-30.24-14.52-31.32-35.52a1024.87,1024.87,0,0,1,0-112c2.28-42.72,4.2-85.44,5.52-128.28a369.69,369.69,0,0,1,14.52-93.48C455.16,73.8,460.56,67.32,468.6,63.36ZM538,61.2c28.68,1.32,43.68,15.6,45.24,43a14,14,0,0,1-2.28,8.16c-3-6.36-6.6-13.32-11-21a23.34,23.34,0,0,0-16-11.52c-19.56-4.2-31.56,3.48-36,23.28-7.32,32.28-5.64,64.68,5,97.44q19.8,61,35.76,123.36,11.88,46.44,20.4,93.48,11.34,62.28-12.48,118.8a27.72,27.72,0,0,1-8.76,11.28q-44.28,35.28-94,11.52-36.9-17.64-39.6-57.12c-.12-1.56-1-2-2.76-1.56a5,5,0,0,0,1.68-2.52l.72-4a6.43,6.43,0,0,1,3.48-5.4c4.56,5.76,7.2,13.08,7.8,22.08a15.84,15.84,0,0,0,3.84,9.12Q474.9,562.8,529.32,544q43-14.94,44.76-60.48a397.2,397.2,0,0,0-15-125.52c-5.88-20.52-11.52-41.16-17.16-62q-16.74-62.28-32-124.8-14.22-57.78,20.4-104.4A14.46,14.46,0,0,1,538,61.2Z" transform="translate(0.01 -60.12)"/></g></svg>