<svg id="Layer_1" data-name="Layer 1" xmlns="http://www.w3.org/2000/svg" viewBox="0 0 463.22 340.32"><defs><style>.cls-1{fill-rule:evenodd;}</style></defs><path class="cls-1" d="M254.64,152.88l17.52.6a16.48,16.48,0,0,1,8.64,3.72q44.1,35.82,58.56,91.44a44.73,44.73,0,0,1-.48,25.44q-15.48,50-54.72,87.24A68,68,0,0,1,255,377.88q-47.7,13.5-64.56-31.68-23-61-11.88-126,8.82-51.3,57.36-64.92a3.88,3.88,0,0,0,3.24,2.16l7.32-3.48a21.47,21.47,0,0,1,12.48,5.4l-.24-.6A16.73,16.73,0,0,1,254.64,152.88Zm-19.32-8.4q-57.06,17.82-64.56,77a308.09,308.09,0,0,0,9.84,127q9.54,33.3,40.92,46.8a31.83,31.83,0,0,0,23,1c32.4-10.68,58.08-31.08,77.16-61a190.5,190.5,0,0,0,13-23.76q28.26-61.92-9.24-121.8a171.1,171.1,0,0,1-9.24-16.32q-17.28-34.38-54.36-38a69.52,69.52,0,0,0-15.6,1.56A16.73,16.73,0,0,0,235.32,144.48Zm-32.16-41.16Q143.4,109.8,83.64,118.8a274.57,274.57,0,0,0-34.08,7.32,16.46,16.46,0,0,0,1,12.84l.84,1a297.85,297.85,0,0,0,44.52-5.16c14.28-2.64,28.56-5,42.84-7.08a134,134,0,0,0-4.44,31.2c-1.08,42.84-3.84,85.68-8,128.28A1107.59,1107.59,0,0,0,121,414.48c1.68.84,2.76.24,3.36-1.8a165.53,165.53,0,0,0,5-39.48c.24-43.08,2.4-85.8,6.36-128.4q5.58-59.4,6.48-117.6,42.84-5.94,85.56-7.56c3.48-4.92,3.6-10.08.48-15.24l-1.56-1.8-16.8-.36Zm240.36,155.4v10.2l39-6.12c2.88-5.16,2.76-10.08-.36-14.88A60.06,60.06,0,0,0,443.52,258.72Zm45.72-96.84q-34.2,11.34-43,47.52a437.14,437.14,0,0,0-11.64,111.24,64.4,64.4,0,0,0,19.56,45.84c10.56,10.44,22,11.88,34.32,4.32C506.4,359.88,514,345,511.44,326A210,210,0,0,1,490,352.56c-4.92,5.16-10.8,6.84-17.76,5-20.52-5.4-31.08-19.08-31.44-41.28-.36-15-.24-30,.6-44.76a174.91,174.91,0,0,1,20.76-74.88c8-15,19.92-21.12,35.76-18.36l3.36,4.08a8.49,8.49,0,0,0,6.6,3.48,8.56,8.56,0,0,0,.24-4.92A30.65,30.65,0,0,0,496.2,163.2l-3.24-.6Zm-34.32-63a87.71,87.71,0,0,0-17.52,24q-29,57.42-57.6,115l-2.88,6.48.84-12.12q4.68-64.26,4.8-127.44c-2.52,1.92-3.84,4.92-4.2,9.12q-5.22,63.54-9.12,127.44Q365.1,305.76,357.6,369.6a178.07,178.07,0,0,1-4.44,23.88c-3.36,12.84-2.16,23.4,3.72,31.8a439.58,439.58,0,0,0,10.44-64.8q3.78-40.14,6.84-80.52a5.43,5.43,0,0,0,1.92-2.76,256,256,0,0,1,9.48-24.72l1,3.48,9.12,30.36q13.86,45.9,26.76,91.8a247.84,247.84,0,0,0,25.68,60.72,5.31,5.31,0,0,0,2.28-5.28,143.66,143.66,0,0,0-10.92-39.48c-6.36-14.76-12-29.52-17.16-44.52Q403.92,296.1,390.6,241.92q25.74-54.54,54-107.52a43.4,43.4,0,0,1,4.2-6.24c7.8-9.6,10.32-19.44,7.44-29.64A2.16,2.16,0,0,0,454.92,98.88Z" transform="translate(-48.69 -98.52)"/></svg>