<svg id="Layer_1" data-name="Layer 1" xmlns="http://www.w3.org/2000/svg" viewBox="0 0 417.85 374.52"><defs><style>.cls-1{fill-rule:evenodd;}</style></defs><path class="cls-1" d="M226.2,92.76c-10.2,1.08-20.52,2.64-31,4.56a248.4,248.4,0,0,1-32.4,3.84,463.31,463.31,0,0,0-122.28,22.2,13.27,13.27,0,0,0,.36,11.28l.72,1c8.52-2.28,17.16-4.32,25.92-5.88q17.46-3.24,34.92-5.4L143,119.4v1c-3.24,43.08-6.24,86-8.76,129.12-2.52,42.48-3.48,85.2-3.12,128.28a249.12,249.12,0,0,1-4.08,47.52q-3.6,19.08,3.6,31.68a2.63,2.63,0,0,0,1.2-1.68,588.66,588.66,0,0,0,6.6-90c-.12-43.08,1.2-86,3.72-128.88,2.28-39.48,4-78.72,5-117.48q52.92-6.12,105.48-10.44a16.76,16.76,0,0,0,.24-13.8l-.6-.84-.72-.36C243.12,93.12,234.72,92.88,226.2,92.76ZM353.52,306.6a316.65,316.65,0,0,1-50.64,117c-9.24,13.2-21.6,21.48-37.32,24.72q-34.38,7.2-54.48-18A82.12,82.12,0,0,1,195,397.56a331,331,0,0,1-8.28-49,434.42,434.42,0,0,1,6.36-127.8q13.5-68.94,80.16-92.28A35.68,35.68,0,0,1,294.36,132a35.21,35.21,0,0,0-.36,4.92c0,1.92.6,3.24,1.92,4,28.44,16.44,46.8,40.56,55.32,72.36A201.22,201.22,0,0,1,353.52,306.6Zm8.88-85.44q-7.74-59.22-57.48-89.88l-.36-.84c-6.48-10.92-16.32-16.32-29.64-16a101.93,101.93,0,0,0-55.44,34.08,108.06,108.06,0,0,0-19.56,34,372.79,372.79,0,0,0-21,121.08l-.36,31.68q-.72,55.44,24.24,103.56a31.84,31.84,0,0,0,7.32,9.48q34.56,30.06,78,9a136,136,0,0,0,24.6-27.84,307.06,307.06,0,0,0,38.88-81.24A296,296,0,0,0,362.4,221.16Zm6,206c-.6,11.88,1.32,22.2,5.52,30.84a580.63,580.63,0,0,0,23-107q9,43.56,14.28,87.84,2,17.1,11.88,28.44A230.77,230.77,0,0,0,440,410.16q4.68-29.34,11.52-58.32c3.84-16.44,4-32.16.24-47.4C448,309,445.56,315,444.72,322.32A1099.49,1099.49,0,0,1,422,447q-5.22-30.42-9.36-60.84A203.29,203.29,0,0,0,395,326a1.13,1.13,0,0,0-.72,1l-18,97.8q-2.52-45-1.92-90.36c.12-11.4-1.92-21-6.12-28.92-.6,29.88-.6,60.24.24,90.84C368.88,406.8,368.76,417,368.4,427.2Zm19.08-220.08L387.6,196q.18-47,39.24-70.92a14.2,14.2,0,0,1,13.68-.84l16.8,7.08a26.35,26.35,0,0,0-3.12-10.56,27.61,27.61,0,0,0-8.88-9.72l-2.4-.6a34.18,34.18,0,0,0-12.12-1.08q-28.8,11-38.4,40Q372.06,211.2,388.8,273c3.48,12.84,11.64,18,24.72,15.6q37.26-7,35.88-41.76c-11.64,18.6-28.32,27-49.8,25.44a122,122,0,0,1-12.48-54.48l41.16-2.4a7.37,7.37,0,0,0,.48-5.76l-.84-2.4-.48-.72a1.39,1.39,0,0,0-.84-.6,83,83,0,0,0-21.84-2.4A40.06,40.06,0,0,0,389,206.4Z" transform="translate(-39.47 -92.76)"/></svg>