<svg id="Layer_1" data-name="Layer 1" xmlns="http://www.w3.org/2000/svg" viewBox="0 0 307.75 210.7"><defs><style>.cls-1{fill-rule:evenodd;}</style></defs><path class="cls-1" d="M304.92,208.32a6.5,6.5,0,0,0,2.16,4.2c21.36,17.4,34.08,40.2,38,68.64,5.16,36.36-5.76,66.12-32.52,89.4-7.2,6.24-15.6,8-25.08,5.4q-31-8.64-35.64-41.28-8.64-59.58,22.2-109.56A7.61,7.61,0,0,0,278.4,221a4.21,4.21,0,0,0,1.68-.72,146.35,146.35,0,0,1,21.84-12.48l.36-.24C304.32,206.76,305.16,207,304.92,208.32Zm-34.68,5.4a125.13,125.13,0,0,0-9.48,17.16Q233.94,290.82,250,354.6c6.84,27,24,40.32,51.48,40.2,20.28-9.48,34.08-24.6,41.4-45.12q22.14-63.36-7.08-124.56-9.36-19.44-27.36-28.44a79.69,79.69,0,0,0-31.32,11.64l-3.36,2.76C272.64,211.92,271.44,212.76,270.24,213.72Zm-25.68-24-94.68,8.88a16.63,16.63,0,0,0-.84,6.48A9.26,9.26,0,0,0,151,210l48.6-2.16A563.83,563.83,0,0,1,198,268.32a1156.5,1156.5,0,0,0-3.12,127.56A2.32,2.32,0,0,0,197,398a70.37,70.37,0,0,0,4.68-28.2,454.91,454.91,0,0,1,1.68-46.08,720.68,720.68,0,0,0,.36-116l48.6-3.12a14,14,0,0,0,1.92-6.48,13.14,13.14,0,0,0-1.92-7.32.87.87,0,0,0-.72-.48ZM445.2,289.44a713.5,713.5,0,0,1-5.28,91c-5.64,3.24-10.92,3.36-16,.36a52.67,52.67,0,0,1-14-11.76,15.14,15.14,0,0,0-1.8,9.72c3.24,19.32,14.52,25.68,34,19.32a14.67,14.67,0,0,0,4.44-7.8,233.3,233.3,0,0,0,5.28-52.8q-.54-31-2.16-60.12C446.64,280.08,445.2,284.16,445.2,289.44ZM449,229.2a53.56,53.56,0,0,0-3.48,33.24,1.55,1.55,0,0,0,1.44,1.44,101,101,0,0,0,6-27.36,8.67,8.67,0,0,0-1.2-4.8ZM387.12,214a20.36,20.36,0,0,0-.36,5.52c.84,17.4.84,34.8.12,52-1.32,32-3.72,64-7,95.52-1.32,12.24.36,22.8,4.8,31.8a531,531,0,0,0,6.48-65.64c1.56-40.2,2-79.8,1.32-119,20.52.48,41.16.24,61.8-.84l.6-1c2.76-5.16,2.4-10.08-1-14.52-33.36-.36-66.72.72-100.08,3l-.36.84a14,14,0,0,0,.12,10.56Z" transform="translate(-149.01 -189.72)"/></svg>