<svg id="Layer_1" data-name="Layer 1" xmlns="http://www.w3.org/2000/svg" viewBox="0 0 304.21 212.6"><defs><style>.cls-1{fill-rule:evenodd;}</style></defs><path class="cls-1" d="M290.28,282.72,285,278.64l2.88-8.76a64,64,0,0,0,12.72,31.2c-1.08-17.4-5.16-32.88-12.48-46.68-12.84,11.52-18.24,25.2-16.32,41a7.57,7.57,0,0,0,1,2.76l7.08-9.72,9.36-1.68Zm9-72-3,6.6,5.4-4.32A113.77,113.77,0,0,1,334,274.68,106.34,106.34,0,0,1,331.44,323,110.6,110.6,0,0,1,312,361.2c-7,8.88-16,13.68-26.88,14.4q-31,1.62-39.48-32.76-10.08-40.32,1.08-82a97.6,97.6,0,0,1,13.44-29.16,86.68,86.68,0,0,1,17.88-19c7.2-5.52,14.16-6.48,20.76-3C299,209.88,299.16,210.24,299.28,210.72ZM289,195.12a32.71,32.71,0,0,0-20.52,10.44,106.53,106.53,0,0,0-24,39.36q-21.78,63.18,1.68,124.32a40.09,40.09,0,0,0,9.48,14.52q27.18,26.46,54.6-1.56,30.6-31.86,34.44-76.8,5.58-63.9-38.88-107.28l-1.56.36-1,.12h-1.56l-1.56-.84A17.62,17.62,0,0,0,289,195.12Zm-47.64-1.92-90.84,6.48a8.81,8.81,0,0,0-1.44,4.08,10.44,10.44,0,0,0,1.92,7.32c16.44-.24,33-.72,49.44-1.32q-3.6,39.42-5.64,79.2t-5.28,79.44c-1,11.88.48,22.68,4.32,32.28a5,5,0,0,0,2.64-4.56q1.44-35.64,4-71.4,4-58.14,2.64-115.08l43.2-2.64a8.11,8.11,0,0,0,2.16-4.56,13.65,13.65,0,0,0-1.44-8.16.91.91,0,0,0-.84-.48Zm192.24,9.36Q407.1,190.14,392.16,213a162.06,162.06,0,0,0-18.72,38.64,212.77,212.77,0,0,0-8.16,34.56c-2.28,15.6-4,31.32-4.92,47a95.41,95.41,0,0,0,7.8,44.4,84.85,84.85,0,0,0,19.8,28c18.36,1.32,34.44-4,48.48-16.08a41.39,41.39,0,0,0,6-6.12l6.12,18.84a163.42,163.42,0,0,0,1.56-70.32,62.7,62.7,0,0,0-35.64-2.16c-2.76,7.8,0,11.76,8,11.64a55.89,55.89,0,0,1,23.4,4.68l-.84,10.8-2.64,2c-7.32,12.24-18.24,20.64-32.64,25.32A31.77,31.77,0,0,1,388,383.4a12.54,12.54,0,0,1-7.2-6.6,98,98,0,0,1-4.8-12.12,149.63,149.63,0,0,1-6.84-47.16,177,177,0,0,1,9.6-55.44,209.73,209.73,0,0,1,20.64-43.92c13.44-5.64,26.52-5.16,39.12,1.56a51,51,0,0,1,4.68,3,13.72,13.72,0,0,0-1.68-11.64,73.71,73.71,0,0,0-5.88-7.8Z" transform="translate(-148.99 -193.2)"/></svg>