<svg id="Layer_1" data-name="Layer 1" xmlns="http://www.w3.org/2000/svg" viewBox="0 0 581.35 532.85"><defs><style>.cls-1{fill-rule:evenodd;}</style></defs><path class="cls-1" d="M461.28,477.84l-46.56-3a113.13,113.13,0,0,0,3.36-47q-13.5,27.18-6.72,61.32l.6,1a146.89,146.89,0,0,1,48.6.48,11.93,11.93,0,0,0,1.32-11.16ZM271.56,508.68l.6,2.4a103.59,103.59,0,0,1,17.4,39.84,51.51,51.51,0,0,0,2.64,8.64A142.24,142.24,0,0,1,324,518.28l.84-.12,20.88,43,4.08-.72c8-12.84,15.72-25.8,23.28-39a31.08,31.08,0,0,0,4.32-15.24c.12-3.36-.72-5.16-2.4-5.52l-27.72,45-19.08-40.8c-10-.84-18.24,4.8-24.72,16.8q-5.58,10.26-10.8,20.88a84.49,84.49,0,0,0-19.2-42.72C271.2,502.08,270.6,505.08,271.56,508.68Zm58.8-78.48a10.57,10.57,0,0,0-3.84,8,409,409,0,0,0-.24,52.8,169.27,169.27,0,0,1,49.56-4.8l.24-.72a12,12,0,0,0-.24-10.68c-16.44-3-31.68-2.64-45.48.84l.12-.72A106.18,106.18,0,0,0,330.36,430.2ZM57.12,106a209.58,209.58,0,0,0-9,51.84,94.8,94.8,0,0,0,2.16,26.52L58,139.68l17,.48a217.25,217.25,0,0,0,24,47.4c.12-13.08-3.84-25.8-11.76-37.92l-6.6-10.32c7.92-1.92,13-7.08,15.12-15.36a24.88,24.88,0,0,0-2.88-19.8A23.32,23.32,0,0,0,87.12,98,27.06,27.06,0,0,0,62,94.92L58.2,96.36l-1.92,7.32Zm19.2-1.56a21.71,21.71,0,0,1,14.28,9.36l1.44,2-2.16,6.48-3.36,2.28L59,127.8l1-21.72A28.13,28.13,0,0,1,76.32,104.4Zm54.6-68.52a195.74,195.74,0,0,0-66.84-3.24c-20.28,2.52-40.44,4.44-60.6,6a16.88,16.88,0,0,0-.12,13.44l.48,1.08,33.48-2.4a2042.49,2042.49,0,0,0-1.92,230q3.06,64.44,2.76,129l-.48,48.36A691.35,691.35,0,0,1,31,546a17.19,17.19,0,0,0,.72,7.8l1.68,4,.72,1.2.84,1.08,1.92,2.16A811.91,811.91,0,0,0,47.76,394L42.84,265q-1.62-40.32-1.08-80.64.9-66.78-1.32-133.8a629.16,629.16,0,0,1,90.24.36L133,41.16ZM304.08,167.76a558.56,558.56,0,0,1-3.72,128.16,1240.64,1240.64,0,0,1-24.84,125.16q-14.94,58.32-60.36,93.72a33.09,33.09,0,0,1-17.28,7.08c-14.76,1.32-26.76-4.2-35.88-16.56q-38.16-52-46-117.36a803.74,803.74,0,0,1-4.56-128.52,382.55,382.55,0,0,1,26.64-124.8c3.12-8,6.36-15.84,9.72-23.64,12.84-29.64,34.56-48.24,65.4-55.8q52.92-8.28,72.24,37.92A240.18,240.18,0,0,1,304.08,167.76ZM279,62.16c-16.44-19.8-37.92-27.72-64.68-23.76a53.62,53.62,0,0,0-28.68,12.12q-44.82,37.26-61.2,94.8a522.67,522.67,0,0,0-19.68,125,734.13,734.13,0,0,0,6.36,128.16,581,581,0,0,0,12.6,64.68q12.42,48.6,52.92,75.48a20.07,20.07,0,0,0,11.16,3.48c15.36-.12,29.28-5.76,41.64-16.68l9.48-11.64a290.12,290.12,0,0,0,54.36-121.2q12.42-63,18.6-127a545,545,0,0,0-2.4-127.44A216.9,216.9,0,0,0,284,61.2l-1.56.36-1.32.72-1,.72h-.48ZM448.32,378.6a46.41,46.41,0,0,1,25-.36q30.06,7.38,15.6,33A70.65,70.65,0,0,1,447.36,425,401.07,401.07,0,0,0,448.32,378.6Zm-.84-13.08-1.56,1.32-3,4.08,1.32,9c-6.6,21.72-6,41.76,1.68,59.88l.36-2.52c22.2,1.2,38.52-7.56,49.2-26.16a30.08,30.08,0,0,0,3-23,65.19,65.19,0,0,0-4.2-11.76l-7.8-5.64-11-2.76-1.92-1.56a48,48,0,0,0-26-.48Zm-66.36,42,15,31.08c3.84-12.6,2.28-25-4.68-37.32a180.94,180.94,0,0,1-17.52-43.56,319.12,319.12,0,0,0-19.44,40.8,55.46,55.46,0,0,0-2.76,33.72L359.88,411ZM365,397.32,373.32,375l4.08,20.4Zm32.16-51-.84-2.16q-14.76-31.32-16-68.4l-30.6,68.16a215,215,0,0,0-13.2-67.08c-12.72,23.4-20.4,47.28-22.92,71.88a3.18,3.18,0,0,0,1,2.76l22.2-56.28c.36,23.76,4.68,45,12.72,63.6l1.56-1.08,27.12-61.2a166,166,0,0,0,13.44,62.88l3.12,1A13.61,13.61,0,0,0,397.2,346.32Zm-6.6-158q-13.32,36.54-27.48,73.44a88.34,88.34,0,0,1-12.84-34.44q-3.06-20-12.6-33.84c-2.16,6.12-4.08,12.24-5.88,18.36A214,214,0,0,0,323,264.12l1.08-1.08a394.06,394.06,0,0,0,15.12-51.48A281,281,0,0,0,361,275.76l4.32-.84a83.06,83.06,0,0,0,5.28-11.52q5.94-16,13-31.68c6.72-14.76,9.24-29.28,7.68-43.68Zm-4.2-69.84a20.85,20.85,0,0,0,0-14.76,404.72,404.72,0,0,0-31.2,61.44L329.64,104a143.5,143.5,0,0,0,20.4,67.8l4.92,8.88,11.88-23.4A226.85,226.85,0,0,0,386.4,118.44ZM461,38.16a52.35,52.35,0,0,0-26.28,23.28,204.71,204.71,0,0,0-25.56,82.68c-1.44,16.2-2.64,32.52-3.72,48.84l-2-.24a11.55,11.55,0,0,0-2,6.48,10.44,10.44,0,0,0,2.88,7.32h.48c-1.32,22-2.28,43.92-2.88,66a308.62,308.62,0,0,0,3.6,55.8C408,344,417,353.64,432.72,357.12a32.22,32.22,0,0,0,18.24-1.2q32.4-12.42,48.36-45c4.32-9,3.48-16-2.52-21.12a253.68,253.68,0,0,1-15.36,27.84q-18.36,29-52.2,21.6c-6.48-1.32-10.8-5-12.84-11a166.88,166.88,0,0,1-8.76-64.44l1.44-32.52c.36-8,.72-16,1.32-23.76a172.33,172.33,0,0,0,54.48-1,17.87,17.87,0,0,0,1.68-6.6,10.94,10.94,0,0,0-3.84-9.72l-7.08-.24a131.2,131.2,0,0,1-44.16,3.6,755.39,755.39,0,0,1,12.24-87.24,84,84,0,0,1,17.4-37.08q23-28.62,42.72-2.16a8.65,8.65,0,0,0,2.4-8.52,28.56,28.56,0,0,0-12.72-18.84l-3.36-1A12.45,12.45,0,0,0,461,38.16ZM576.36,58.44q-13.5-27.54-48.24-22.68a47.48,47.48,0,0,0-10.8,4.68,37,37,0,0,0-16.56,19.68q-20,55.26,2.64,110.52a1138.42,1138.42,0,0,1,42.48,123.72,992.13,992.13,0,0,1,26,120.72,166.83,166.83,0,0,1-1.44,58.8c-4.92,23.88-18.12,42.84-39.36,56.76a341.57,341.57,0,0,1-70.68,13.08A22.85,22.85,0,0,1,448,541.44a219.38,219.38,0,0,1-37.8-24.6c-5.16,4.92-5.88,10.56-2.28,17.16a49.53,49.53,0,0,0,7.32,10c12.6,13.32,27.72,19.92,45.36,20l16.68-.24q56-1.44,86.16-46.2c15-22.2,21.48-46.92,19.68-74.4a624.08,624.08,0,0,0-13.68-94.44,1014.29,1014.29,0,0,0-35.28-121.2Q517.74,182,503,136.08q-10.44-32.58,2.52-63.36a25,25,0,0,1,17.16-15.36c20.28-5.88,38-2.88,53.28,9.24A8.28,8.28,0,0,0,576.36,58.44Z" transform="translate(-2.02 -31.15)"/></svg>