<svg id="Layer_1" data-name="Layer 1" xmlns="http://www.w3.org/2000/svg" viewBox="0 0 563.52 518.04"><defs><style>.cls-1{fill-rule:evenodd;}</style></defs><path class="cls-1" d="M153.84,305.88l.12,33.48c0,15.24-.24,31.8-.72,49.44a37.9,37.9,0,0,1,7.32-5c9.72-5,17.28-9.12,22.8-12.36,10-5.64,17.64-11.28,22.8-16.8,6.84-7.32,10.32-15,10.32-23q0-31.68-33.72-42.84c-4.68-1.56-12.48-3.36-23.16-5.4l-6.84-1.68C153.36,287,153.72,295.2,153.84,305.88Zm-5.64-22.8c-.12-2.64.12-4.56,1-5.88a4.94,4.94,0,0,1,1.08-3c1.32-1.56,4.32-2.4,8.88-2.4q40,0,54.6,28.44c4.92,9.48,7.32,21.12,7.32,34.92,0,11.88-6.24,24.12-18.84,36.72a114.65,114.65,0,0,1-19.44,15.24c10.08,17.16,20.76,39,32.16,65.76L231.6,493.2c6.84,16.68,12.24,29.64,16.44,38.88l.24-3a2.91,2.91,0,0,1,.48-1.56l1.2,8.28.72,6.72a15.41,15.41,0,0,1-2.4,8.52q-16.2-28.62-45.12-99.36c-12.48-30.6-20.64-51.24-24.36-62.16a125.49,125.49,0,0,1-25.92,10.92c-.72,18.6-1.68,38.64-2.88,59.88q-4.68,79.38-10.32,95c-1.68-1.8-2.52-4.56-2.52-8.16,0-1,.36-4.56,1-10.8l1-10.8c0-1.56,1.44-22.32,4.2-62q4.68-65.88,5.88-85.68V293.4ZM271.56,41.64a7.16,7.16,0,0,1,.24,3.6V49c-.36,1.32-1.56,2.28-3.72,3.12-5.28,1.8-19.2,3-41.88,3.36l-59.28-.24-31.08-1.8-10.44-1,.12,3.36v47.88l.36.72v43.08c1.2,12,1.92,25.8,2.28,41.4l.12,41.28L128,281.64c-.36,19.08-1.44,36.24-3,51.6v53.52L124,390.84V486.6l-1.08,3.24v59.28a21.83,21.83,0,0,1-2.16,4.92c-3.84-3.24-5.52-8.88-5.16-17.16a175.44,175.44,0,0,0,1.92-21q0-25.2,1.08-38.16V384.36l1.08-4.08V326.76c.72-5.16,1.08-14.64,1-28.44-.12-12.48.72-22.2,2.28-29.28V184l.24-.6V181.2l-2.16-52c0-11.64.12-20.16.24-25.56L121.44,52,115,51.12l-50.52.24L53.4,53l-9,.84-8.88-.48L22,52.44a12.32,12.32,0,0,1-1.44-6A9.34,9.34,0,0,1,21,43a7,7,0,0,1,1.68-2.64L32,40.8c3.36.12,7.8.24,13.2.12l7.68-1.08,12-1.44v-.48l50.64.24L129,40l37.92,1.68h60.6A193.76,193.76,0,0,1,249,39.12l16.08-.72Q270.3,38.4,271.56,41.64ZM388.92,61.2c2,8.52,5,19.08,9,31.56l10.32,32c8.16,26.28,12.6,47.76,13.2,64.68.12,2.52,2.4,22.08,6.84,58.56q6.3,52.56,6.36,68.28,0,31.14-6.24,70.32-6.84,42.84-18.84,78.6-13.68,41.22-31.56,64.2C364.44,547.08,349.68,556,333.72,556q-30.06,0-41.4-14.76a37.21,37.21,0,0,1-5.4-11.4,59.1,59.1,0,0,0-1.92-7.68c-7.08-16.68-11.4-29.16-13.2-37.32A500.72,500.72,0,0,1,261,410c-2.88-35.4-4.8-60.84-5.88-76.08q-2.52-38-2.52-72.48l-.12-32.4c0-11,.36-20.52,1-28.56q2-29.52,12.12-66.36,11-40.32,26.28-64.08c4.92-7.68,12.36-14.28,22.08-19.92a84.62,84.62,0,0,1,29.76-10.32c10.92-1.56,20.4-.72,28.2,2.64A28,28,0,0,1,388.92,61.2Zm-2.64,13.56c-.84-6.24-2.76-11-5.64-14.4-8.28-9.72-27.6-11.4-58.2-5.16C308.88,62.52,298.56,71.76,291.72,83q-5.22,8.46-11.52,28.44c-3.72,11.4-8.16,29.16-13.32,53.16-6.12,28.44-9.12,48.48-9.12,60,0,4,.12,7.08.24,9.24v49.56q2,9.9,4.32,58.32,2.52,54.36,6.48,85.68,14,111.42,59.76,111.48c20.52,0,38.16-11.28,53.16-33.72Q399.9,478,412,430.44a576.63,576.63,0,0,0,16.8-113.76c0-8.76-2-29.16-6.24-61.32s-6.24-49.56-6.24-52.08c.12-14.4-3.6-33.24-10.92-56.52L396,118.08c-3.48-11.16-6.12-20.76-7.8-28.56Zm197.4-34.44a11.13,11.13,0,0,1,.36,3.12c0,2-6.36,19.68-19.08,53.16q-23,60.48-28,74.64-7.74,22.68-15.12,63.48-8.28,46.44-13.08,63.84-13.32,48.78-35.88,127.2-28.08,97.56-36.6,127.68v.48l-2,.36c-1.56,0-2.64-1.2-3.12-3.6l-.24-4.08q0-5.76,29.52-106.8,36.9-126.18,43-148.56c2.4-9,4.8-19.56,7.2-31.8l2.52-14c-4.08-5.16-10.32-17.64-18.84-37.68L480,174.24c-5.4-12.6-9.72-21.72-12.84-27.6-8-14.28-16-29-23.76-44.4q-23.22-45.9-23.28-57c0-2.4.48-4.08,1.32-4.92q7.2,15.66,54.72,103.56,31.5,59.22,40.44,82.8c4.92-26.4,10.2-47.28,16.08-62.64,5.52-14.52,14-39.12,25.56-74q15.3-43.38,24.24-51.84Z" transform="translate(-20.52 -37.92)"/></svg>