<svg id="Layer_1" data-name="Layer 1" xmlns="http://www.w3.org/2000/svg" viewBox="0 0 529.2 376.8"><defs><style>.cls-1{fill-rule:evenodd;}</style></defs><path class="cls-1" d="M340.32,189a185.15,185.15,0,0,1,25.32,81.72q4.86,66.78-32.28,121.44A263.47,263.47,0,0,1,309.6,422.4q-27.18,29.88-64.44,16a45.15,45.15,0,0,1-22.68-18.12,162.57,162.57,0,0,1-25.68-76.8,414.19,414.19,0,0,1,9.36-127.68q13.14-56.16,68.76-69.36,29.34,3.24,50.88,24.24A85.11,85.11,0,0,1,340.32,189Zm-112.8-84.72c-8-.36-16.08-.48-24.12-.6-9,2.52-18.24,4.56-27.84,6.24a302.31,302.31,0,0,1-34.44,3.84q-49,2.88-96.24,8.52a13.53,13.53,0,0,0,0,8.16l.36.84c14,.36,28.56,0,43.56-.84l30.12-2.64,25.44-3.12a435.19,435.19,0,0,0-2.64,56.64q.9,64.26-1.8,128.16-2.7,64.44-7.32,129c-.84,12.12.6,22.68,4.32,31.8q5-45.36,7.2-91.68c2-43,3-86,3.12-129.12l-.12-125.16,81-9.84a10.94,10.94,0,0,0,.6-8.88l-.36-.84A.91.91,0,0,0,227.52,104.28ZM364.2,217.92a112.46,112.46,0,0,0-21.84-45q-26.46-32.76-65.88-43.08a2.35,2.35,0,0,0-2.4,1.08,8.81,8.81,0,0,0-1.44,4.08l-.12.84-.12.84c-23.76,4.92-41.64,17.88-53.52,38.64a207.61,207.61,0,0,0-26.52,83.16,456.48,456.48,0,0,0,5.4,127.92c4.44,23.88,15.84,43.32,34.32,58.08,19.8,15.72,39.84,16.8,60.36,3.12q56.34-37.8,71.64-102.6A272.38,272.38,0,0,0,364.2,217.92Zm84.24-18.12a81.68,81.68,0,0,1-24.24,38.52,76.67,76.67,0,0,1-25.68,15.36l12.12-124.2c17.64.12,29.52,8,35.88,24A69,69,0,0,1,448.44,199.8Zm24.48-5.52A80.79,80.79,0,0,0,457.56,222q-16.74,52.92-.72,106.56c4.44,14.88,13.8,20.64,28.32,17.28a82.65,82.65,0,0,0,22-8.52c15-8.52,22.08-19.56,21.36-33.12a193,193,0,0,1-46.56,28.2,7.78,7.78,0,0,1-7.92-.72C464,324.36,457.8,314,455.52,301c-5.16-29.52-1.08-57.36,12.48-83.4,8.28-15.84,19.08-19.56,32.28-11l.12-.84c-.24-10.92-5.76-16.56-16.56-17l-2.16,1.2A74.92,74.92,0,0,1,472.92,194.28Zm-67.8-65.76c-4.92,41.4-9.12,83-12.36,124.92l-.12,2.28-.84.24a13.72,13.72,0,0,0-1.68,6.48,11.69,11.69,0,0,0,1.44,4.92h.12Q387,324.6,380.88,381.72a218.5,218.5,0,0,1-5.88,32c-3.24,12.24-2.76,22.92,1.68,31.92a5.88,5.88,0,0,0,2.4-3.6,444,444,0,0,0,9.72-61.56q5-56,8.88-112.32a85.35,85.35,0,0,0,12.12-5,98.69,98.69,0,0,0,3.72,30.12q17.1,61.56,31.92,123.6c2.76,11.4,6.36,21.24,11,29.28a4.46,4.46,0,0,0,1.8-4,250.21,250.21,0,0,0-10.68-59.76Q429.06,322.32,412,262.08c16.92-9.24,28.8-23.52,35.4-42.84a170.39,170.39,0,0,0,9-50.16q1.26-42.84-41.88-47.88a30.1,30.1,0,0,0-9.12,1.08l-.36.6a8.87,8.87,0,0,0-.24,4Zm136.32-1.08c-5.88,20.28-8.4,42-7.8,64.92A882.21,882.21,0,0,1,528,319.8q-7.38,64.44-13.68,129-1.62,18.36,4.68,31.68l9.6-93.12q5-50.22,8-100.56a51.74,51.74,0,0,0,28.08-2.52l-.36,6.48q-3.24,64.44-7.92,129c-.72,10.2,1.44,18,6.36,23.4q3.24-23.76,4.68-48.6c2.28-42.6,4.08-85.44,5.28-128.28q1.8-65-1.08-128.28c-3.72,7.08-5.4,15.24-5.28,24.6q1.08,54.18-1.08,108H565a127.47,127.47,0,0,0-27.72,7.32l.84-18.24q3.06-64.26,2.52-128.16l.6-1A3.56,3.56,0,0,0,541.44,127.44Z" transform="translate(-44.25 -103.68)"/></svg>