<svg id="Layer_1" data-name="Layer 1" xmlns="http://www.w3.org/2000/svg" viewBox="0 0 313.63 213.72"><defs><style>.cls-1{fill-rule:evenodd;}</style></defs><path class="cls-1" d="M306.84,293.28a43.49,43.49,0,0,0-12.48,0c-12.6,7.8-21,19.08-25.44,34.08a79.33,79.33,0,0,0-.24,44.88c4.92,17.28,16.68,25.2,35.52,23.76,17.16-1.56,28.8-10.44,34.8-26.64a75.7,75.7,0,0,0,2.28-45.24,61.35,61.35,0,0,0-11.76-23.76A87.44,87.44,0,0,0,306.84,293.28Zm16.8,21.36c14,10.2,17.88,23.88,11.4,41-5.88,15.36-17.16,23.16-34,23.28-17.4.24-27.36-8.76-30-26.88-2.52-16.8,3.24-29.76,17.16-38.76,10.44-6.84,22-8.52,34.32-5.16ZM243.72,211.2l.36-.84.24-1.68.12-1.56-.12-1.68-.36-1.68-.24-.72-1.08-2.52c-14.16.12-28.44-.12-42.84-.48-15.84-.36-31.56-.48-47.16-.12l-2.76.84L151,211.32l44.88,3.48A490.8,490.8,0,0,0,193,264.6q-.18,52-4.2,103.8c-.84,11.88.6,22.56,4.56,32a5.23,5.23,0,0,0,1.8-3.6q3.78-39.6,4.68-79.56,1.08-51.12-1.8-102.36l44.16-1.44A6.4,6.4,0,0,0,243.72,211.2Zm207.6,2.64,2.16,73.08-5.4-.6c-11.16,2-22.2,4.44-33.36,7.32q-.18-30.78-1.08-61.2a535.17,535.17,0,0,0-6.12,88.68,314.65,314.65,0,0,1-3.24,47.64c-1.8,12.6-.36,23.16,4.56,31.68a180.17,180.17,0,0,0,5.28-39.84c.36-18.6.6-37.2.6-55.68L454,301.56l1,40.44a168.55,168.55,0,0,1-2.28,32.16c-2,12.24-.84,22.92,3.6,31.92a321.15,321.15,0,0,0,7-82.8c-1.8-43-4.2-85.68-7-128.16C452.76,199.92,451.2,206.16,451.32,213.84Zm-63.72-6.72a279.87,279.87,0,0,0-4.68,43.68q-1.8,64.44-8.4,128c-1.08,9.84.6,17.64,5,23.52a3.7,3.7,0,0,0,.84-1.68q3.6-38,6.6-76.32a1131.41,1131.41,0,0,0,3.24-117.24l37.56,1.2A12.67,12.67,0,0,0,429,201l-.48-2.4L428,197l-.6-.84-1.56-1.68L413.64,194l-43.56-1.68v.12a50.66,50.66,0,0,1-14,2.4l-3.12.48-2.76,1.08a13.2,13.2,0,0,0-.84,5.76v.72l.24,1.56.24,1,.48.6,1,1C363.36,206.88,375.48,206.88,387.6,207.12Z" transform="translate(-149.88 -192.36)"/></svg>