<svg id="Layer_1" data-name="Layer 1" xmlns="http://www.w3.org/2000/svg" xmlns:xlink="http://www.w3.org/1999/xlink" viewBox="0 0 584.4 601.39"><defs><style>.cls-1{fill:none;}.cls-2{clip-path:url(#clip-path);}.cls-3{fill-rule:evenodd;}</style><clipPath id="clip-path" transform="translate(-1.32 2.11)"><rect class="cls-1" x="1.32" width="584.52" height="599.4"/></clipPath></defs><g class="cls-2"><path class="cls-3" d="M390.36,491.28q25,0,31.32-2.52a6,6,0,0,0,2-1.32q.36-.36,1.8,0l.84,1.92.24,2.64a6.54,6.54,0,0,1-1.32,4.44c-2,2.16-6.48,3.24-13.08,3.24H407v1.08c0,2.76-.72,9.48-2,20.28-1.44,11.28-2.52,17.76-3.36,19.44h-2.4a20.46,20.46,0,0,1-.24-3.6,153.35,153.35,0,0,1,2.16-22.68,127.57,127.57,0,0,1,3.12-14.64c-10.92-.12-17.64-.84-20.16-2-1.08-.48-1.44-1.08-1.08-1.68l.84-1.2v-2.16l.24-1.44,2.16.12Zm26.52-56.16c0,4-1.44,14-4.32,30.48l-4.44,25.08a9,9,0,0,1-3.24-3.12,3.28,3.28,0,0,1-.48-1.68q0-5.4,3.24-23h-.84l-7.8-.24-6-.6-7.08-.24-4.56,26.52-1.08.24-.72-2.16-.12-3.12c0-2.52.84-9.72,2.52-21.72h-.6l-.6-1.08-.24-2.64c0-2.16.48-3.6,1.44-4.2H383c1.8-12.36,3.24-20.52,4.56-24.6a12,12,0,0,1,1,3.84l.12,4a141.17,141.17,0,0,1-1.56,16.8h20.76l1.32.24c2.28-11.88,4-20.28,5.16-25.08a4.09,4.09,0,0,1,2.4,3.12Zm-81.72,109,.24-1.2c1.8-.6,2.88.72,3.36,3.72l.12,7.44a72,72,0,0,1-.84,10.8,146.09,146.09,0,0,1,14.52-9.24c14.76-8,23.88-13.2,27.24-15.36a7,7,0,0,1,1.92,1.56,5.4,5.4,0,0,1,.48,2.76c0,.36-6.84,5.4-20.64,14.88l22,13.32c10.2,6.6,16.92,12.84,20.28,18.6l.24.72c.12.36-.48.6-1.56.6-2.52,0-11-4.8-25.32-14.52-11.16-7.56-18-12.6-20.4-15.36-12.36,8.4-18.72,12.6-19.2,12.6l-1.44-.12a166.85,166.85,0,0,1-4.8,16.08H330a39.15,39.15,0,0,1-.24-4.44c0-.6.84-5.52,2.64-14.76a136.12,136.12,0,0,0,2.76-25.8Zm-143.76,5.4-10.08.24-10.44.84-13,1.08-2.64-.12A369.76,369.76,0,0,1,134,594.6l-1-1.08a7.3,7.3,0,0,1-.36-2.64c0-1.56,5.52-15.6,16.44-42l25.44-60.36c4.68,7.56,12,25.32,22,53.52,9.72,27.48,14.64,43.68,14.64,48.36l-.12,2.28-.12,1.44.36.36q.18.36-1.44.36c-3.72,0-5.64-1.56-5.76-4.56L205.2,585c0-2.52-3.84-15.24-11.52-37.92Zm-.12-9.48c-6.84-19.92-12-33.72-15.6-41.4-7,19.2-12.48,34-16.68,44.28l11.88-1.56,18.48-1.08Zm70.44,2.88a8.06,8.06,0,0,1,.36,2.76c0,1.56-1.08,7.2-3.12,16.68-2,9-3.48,15.24-4.44,18.72l17-.72,3.48.12,3.84.6c8.76-1.8,14.28-1.44,16.8.84a3.63,3.63,0,0,1,1,4.2,9.69,9.69,0,0,1-.36,3l-1,1.44H252l-2.16-.24a48.22,48.22,0,0,1-.24-5.28c0-3.24.84-9.36,2.64-18.36,2.4-12.12,5.28-20.52,8.76-25.08Zm80.16-21.48c-2.76,7.92-6,14.4-9.72,19.32-1.56-1.32-2.4-2.64-2.4-3.84q0-2.7,6.48-19.8c5-13.08,9.48-22.56,13.44-28.56,4,8.64,7.32,20.52,10.08,35.76a.66.66,0,0,1,.6.36l.24.72a52.57,52.57,0,0,0,2.4-9.24c.84-4.8,1.56-8.4,2-10.8,1.8-8.76,4.56-14.52,8.28-17a5.84,5.84,0,0,1,1.92,1.92,8.39,8.39,0,0,1,.48,3.24c0,1.32-2,8.4-6.24,21.24-4.32,13.32-6.72,21.12-7.08,23.4a2.15,2.15,0,0,0-1,.48l-1.2.84c-1-2.76-2.64-9.36-5-19.68-2-8.76-4.08-15.24-6.24-19.56C347,505.08,344.64,512.16,341.88,521.4Zm-1.68-46.68,6,4.68c10.08-.36,16-2.4,17.52-6a14.47,14.47,0,0,0,.72-4.44,5.47,5.47,0,0,1,.84-2.88l-.12-.24-4.68.48-5,.6-1.44-2a5.93,5.93,0,0,1-.48-2.88,8.06,8.06,0,0,1,.36-2.76,5.74,5.74,0,0,1,1-1.32l9.72-.48v-.6c2.4,1.56,3.6,4.68,3.6,9.24l-.72,8.4L366,486.36l-.72.48-1.2.6a16.81,16.81,0,0,1-.72-3.36v-.84L357,487.68l-11.28-.24c-5.4-3.24-8.76-6.36-10-9.24-.36-1.2-.6-4.32-.6-9.36q0-44.28,29.76-33.12V443l-.72.48a2.83,2.83,0,0,1-1.2.6l-1.44-2.64a4.92,4.92,0,0,0-4.2-2.16c-7,0-12.24,4.8-16,14.4-2.4,6.12-3.6,11.16-3.6,15.36A7.81,7.81,0,0,0,340.2,474.72ZM316.44,439.8l-.6-1.08-.24-2.52a21.1,21.1,0,0,1,.24-3.72,2.12,2.12,0,0,1,2.28-1.56l4.56.24c.72,3.84,1.08,9.72,1.08,17.52,0,4.44-.24,10-.6,16.56a270.53,270.53,0,0,1-3.72,32.52Q311.16,544,291,544c-12.24,0-19.92-5-23-15a35.3,35.3,0,0,1-1.32-11l.24-6.12c0-9.72,1.44-24,4.32-42.6q4.5-28.8,4.68-43.2,3.06.36,3.6,5a51.9,51.9,0,0,1-.12,7.32c0,3-1.68,14.4-4.92,34.2s-4.8,32.88-4.8,38.88a41.83,41.83,0,0,0,2.16,14.16c2.52,6.72,6.6,10.08,12.48,10.08,15.48,0,26-11,31.44-33a164.84,164.84,0,0,0,4.08-26.16L321,457.2V439.32ZM75.84,386q0,8.82-3.6,37.44c10.68.12,18.72-2.76,23.88-8.4,3.48-3.72,5.16-7.56,5.16-11.64,0-7.32-3.84-12.6-11.52-15.72L81,385a17.92,17.92,0,0,1-5.16-2.28Zm-.48-7.2v-2.28c12.6.72,21,4.08,25.2,10.2,2.28,3.48,3.48,8.88,3.48,16.44s-1.32,13.56-4,17.76a22.63,22.63,0,0,1-6.48,6.6l12.24,24.6c6.12,12,11.28,21.72,15.48,29v8.16l-.48.48-.84.84c-4.2-7.2-9.6-17.4-16.32-30.6Q92.16,437.4,90,429.48c-5,2.16-11.4,3.12-19,2.88l-1.32,9.48-6.84,46.44-.48.48-.84.84a3.83,3.83,0,0,1-1.2-2.4,22.44,22.44,0,0,1-.12-3.36q0-6.12,4.68-44.28,5.4-43.74,9.84-62.52ZM122.64,1.68a13.61,13.61,0,0,1,2.52,8,14,14,0,0,1-2.52,8.16L76.8,21.36l.36,2.16a124.71,124.71,0,0,1,.36,13q0,13.14-5.4,75.6l-5.4,64.08c-.36,19.2-1.2,42.24-2.64,69.24l-3.84,69.36Q57,374,51.48,453.6l-10,138.84c-2.28-1.8-3.48-6.6-3.48-14.64q0-39.42,7.44-143.64,8.46-117,8.76-127.44c.6-17.64,1.68-40.08,3-67.32l3.48-68.16,5.52-61.44q5.22-58,5.28-73.32a72.88,72.88,0,0,0-1.08-7.68l-1-7-6,.48-60,4.2c-1.08,0-1.8-1-2-3l-.12-5.16a24.23,24.23,0,0,1,.36-5.28C2.4,10.44,4,9,6.48,8.88l101.64-7v-.6ZM240.12.84q44.82,4.86,63.24,90.84,11.16,52,11.16,123.12,0,37.08-7.32,81.36c-5.4,32-12.72,61.44-22.08,88-10.68,30.12-23,53.52-36.84,70.44q-23.58,28.8-51.48,28.8c-15.36,0-27.6-2.4-36.6-7.2a40.71,40.71,0,0,1-18.48-19.8c-3.36-7.32-5.64-17.16-7-29.52l-2.64-36.48-4.32-57.24q-1.08-13.5-1.08-38.16,0-31.5,5.4-74.28c4.44-34.68,10.56-66.36,18.6-95.28,9.72-35.28,21.24-63.24,34.8-84C201.48,16.8,219.72,3.36,240.12.84Zm29.64,35a4.07,4.07,0,0,1-1.44,1.44A34.57,34.57,0,0,1,261.24,30a81.77,81.77,0,0,0-8.88-10.2c-2.52-2.4-9.72-1.92-21.48,1.56-10.92,3.24-17.64,6-20.28,8.4a81.33,81.33,0,0,0-17,18.48c-2.28,3.48-6.12,10-11.28,19.68-8.52,15.72-14.76,28.2-18.84,37.56-6.12,13.92-10.08,26.52-12.12,37.92-8,46.44-12.48,72.24-13.2,77.16a518.67,518.67,0,0,0-5.4,73.68c0,11.28.72,25.92,2.16,43.8q2.7,35.28,3.24,43.92c1.32,26.76,4.8,46.8,10.44,60,6.84,16.2,17.64,24.36,32.28,24.36q41.76,0,71.16-38.88c15.72-20.76,28.56-49.44,38.28-85.8q10.44-39.06,15.48-86.28c1.08-10,1.8-19.56,2.4-28.92l.48-11.52q0-54.18-6-94.92-9.36-63.18-31.92-85.68ZM399.48,225h-7.8c-3.24.84-6,3.72-8,8.76a29.61,29.61,0,0,0-2.52,11.16c0,2.16,1.68,5,4.92,8.52,3.72,4.08,7.8,6.12,12.12,6.12,7.2,0,12.36-1.32,15.6-4.08l-.24-.24c-2.52-1.08-6-1.56-10.44-1.56l-.6-1.08-.24-2.52c0-6.6,4.44-7.32,13.2-2.28l1.8,1,.12-3c0-3.36-2.28-7.2-6.72-11.52Zm61.44,62.76-14.64-.24c-.12,9.6-.36,20.52-1,32.64l-1.92,37.68c-.48,8.4-.72,21-.84,37.8-.48,14.76-2.16,27.36-5.16,37.68a9.3,9.3,0,0,1-2.28-4,10.74,10.74,0,0,1-.72-3.72c0-8.76.84-27.6,2.52-56.4l2.88-47.88V287.28l-12.36-.6-6.36-.36-6.72-.72-19.68.24a7.87,7.87,0,0,1-3.12-4,7.26,7.26,0,0,1-.48-2.64,11.21,11.21,0,0,1,1.08-4.8,14.29,14.29,0,0,1,2.76-3.72l21.6.84,12,1.08,34.56,1.08,14.4-.36a7.84,7.84,0,0,1,2.64,3.6,10.23,10.23,0,0,1,.84,4,13.44,13.44,0,0,1-.72,4.2,11.58,11.58,0,0,1-1.92,3.48l-8.52-.24Zm-16.2-29.4-7.56,7.44c-5.28-.36-9.48-1.32-12.48-2.76a23.47,23.47,0,0,1-6-4l-.12-.24c-2,6.12-5.52,9.12-10.68,9.12-13.44,0-22.32-3.36-26.76-10.2-1.8-2.88-2.76-7-2.76-12.24a52.33,52.33,0,0,1,2.28-16.44c2.28-7,5.88-11.16,11-12.48l8.88.24,16.56,15.72c2,2.64,3,7.2,3,13.68l-.12,4.32,5.16,3.48c3.24,2.28,5,3.36,5.52,3.36l7.56-.24a21.23,21.23,0,0,0,3.36-3.84l3.6-5a2.94,2.94,0,0,1,1.56,1.32,7.6,7.6,0,0,1,.36,2.76A9.58,9.58,0,0,1,444.72,258.36Zm34.92-37.2a15.34,15.34,0,0,1,2.16,7.32c0,5-1.2,11.76-3.72,20.28-3.6,12.12-8.28,18.12-13.92,18.12q-10.62,0-13-6.48a13.59,13.59,0,0,1-.6-5.28l.36-4c0-6.12.12-9.6.24-10.68l3-16.56c.36,0,.72-.24,1.32-.84a5.62,5.62,0,0,1,1.92,1.8,6.48,6.48,0,0,1,.48,3c0,2.28-.72,6.24-2.16,11.76s-2.16,9.12-2.16,10.92c0,2.28,2.76,4.92,8.16,7.92q11.7,0,14.4-15.12L477.72,231C478.08,226.2,478.8,223,479.64,221.16Zm42.24,13-.12.6c-.12.36-.72.6-1.8.6l-5.52-3a63.34,63.34,0,0,0-5.64-3c-6,0-11,3.36-15,10.08l-1.2,1.92a23.74,23.74,0,0,1,6.24-1.68,15.78,15.78,0,0,1,7.56.12c2.28.72,3.48,2,3.48,3.84s-.36,3-1.2,3.48c-1.68,1-6,1.8-13.08,2.52l-6.24-.24v.36a8.38,8.38,0,0,0,2.4,5.4,51.53,51.53,0,0,0,6,5.52l8.88-.24,7.68-7.56a41.09,41.09,0,0,0,5.64-6.72,4,4,0,0,1,1.44,1.68,7.75,7.75,0,0,1,.48,3.12c0,2.76-1.56,5.4-4.8,8.16a53.92,53.92,0,0,0-9.6,10c-10.2-.48-16.68-3.24-19.44-8.4a14.51,14.51,0,0,1-1.56-6.24l.12-4.92c0-6,1-10.92,2.88-14.64,2.16-4.44,6.36-9,12.6-13.92q16.2,2.16,19.8,7.56ZM368.64,199c0,9.48-2.16,17-6.36,22.44q-4.68,5.94-13.68,10.8,2,6.48,5.76,16.92c3.84,10.68,6.48,18.72,7.8,24.24,1.8,7.32,5.88,17.16,12,29.4,3,6.12,5.88,11.64,8.64,16.44a11.72,11.72,0,0,1-1,4l-1.56,3.24c-6.36-8.28-14.28-25.8-23.52-52.44-3.24-9.48-6.24-18.6-8.88-27.36-1.92-6.24-3-10.32-3.36-12.24-4,1.8-8.52,3.6-13.44,5.28l-1.44,17.16q-4.5,54-6.72,71.76a6.71,6.71,0,0,1-2.16-4.2l-.24-4.56c0-5.76,1.08-20.4,3.12-43.92l3.36-36,.24-2.4a4,4,0,0,1-1.32-2.76,4.31,4.31,0,0,1,1.92-3.24l2.4-31.44.24-19.92c.24-8.28,1.2-14.28,3-18.24l.6,1.68a6.49,6.49,0,0,1,4-.84c3.72.24,7.8,1.92,12.48,5.16A43.43,43.43,0,0,1,363,180.6,33.94,33.94,0,0,1,368.64,199ZM355,184a110.13,110.13,0,0,0-19.08-13l-.72,2.28c-.12,10.68-1.2,29.28-3.24,55.56l.12-.12c2.4-1.2,6.84-3.24,13.32-6,13.08-6.36,19.56-14.28,19.56-23.88C364.92,194.76,361.56,189.84,355,184Zm74.4-57.24c-1.56,2-2.28,3.24-2.28,3.84,0,2.28,2.28,5.28,6.84,9.24l14.88,11.76c14.4,11.88,21.6,23.28,21.6,34A40.79,40.79,0,0,1,465.84,205c-5.64,10.2-15.84,15.36-30.36,15.36-17.28,0-28.92-5.88-34.8-17.76-3-5.88-4.44-13.68-4.44-23.64a21.36,21.36,0,0,1,.72-4.56,13.24,13.24,0,0,1,1.8-4.92q5.58.72,4.32,4.32L401.4,177a7,7,0,0,0-1.08,3c0,5.64,2,11.52,6.24,17.64q8.28,12.24,22,12.24c14,0,24.48-3.6,31.44-10.8a27.72,27.72,0,0,0,5.28-8.28,14,14,0,0,0,1.44-5.28q0-5.94-6.84-12.6c-1.8-1.68-6.72-5.52-14.88-11.64-6.84-5.16-11.76-9.6-14.88-13.44-4.44-5.64-6.72-11.64-6.72-17.88,0-4.68.36-7.92,1.08-9.6,1.08-2.76,4-6,8.4-9.72,13.32-.24,22,1.44,26.16,5.16,1.8,1.56,2.76,4.08,2.76,7.44a14.32,14.32,0,0,1-1.32,6.12l-4.56-4.44c-2.88-2.52-5.64-3.72-8.16-3.72l-14.16.36A40.68,40.68,0,0,0,429.36,126.72ZM392.28,53.88l7.2.84.84,1.2.24,2.76-.24,3.24a1.66,1.66,0,0,0-1.08.6l-4.08-.24-4.56-.6-9,.12-8.16.36.12.84q0,5.4-.72,13l7-.48V75l13.2.24.84,1.32a14.57,14.57,0,0,1,.24,2.76l-.24,2.4L392.76,83l-6.24.36-6.72.72-8-.12-.36,2.64L368.16,111h-1.44c-.12-1.68-.24-4.32-.24-7.8q0-34.38,4.68-46.8a5.71,5.71,0,0,1,2.16-3.12l17.52.24Zm1.8-35.52a16,16,0,0,1-2.88,9,13,13,0,0,1-11.4,5.88l-14.52-.12L365,35.88a99.41,99.41,0,0,1-5.88,25.32,11.26,11.26,0,0,1-1.2-3.36,28.47,28.47,0,0,1-.12-3.72c0-4.56.72-12.48,2.16-23.64a146.08,146.08,0,0,1,3-18.24,1.52,1.52,0,0,1-.84-1.2V7.56c0-2.52,1.68-4.2,5-4.8,3-.6,6.72-.24,10.92,1a30,30,0,0,1,11,5.64C392.4,12.12,394.08,15.12,394.08,18.36Zm-5.28,3.36a5.51,5.51,0,0,1,1.8-3.36l-3.72-5.88a3.8,3.8,0,0,0-3-1.44A112.93,112.93,0,0,1,366,12.48l-.24,12.36q20,0,22-1.08A3.25,3.25,0,0,0,388.8,21.72ZM445.56,74A5.69,5.69,0,0,1,446,76.8l-.24,2.4-.6,1.44-12.36.24-11.52.6C419.88,95.76,418.8,105.6,418,111h-2.52a45.68,45.68,0,0,1-.24-4.92,252.1,252.1,0,0,1,2.16-29.16c1.56-13.2,3.12-21.36,4.92-24.48l.72,1.32V54a18,18,0,0,1,6.6-1.2l2-.36H446l.72,1.32.36,2.76-.24,2.4-1.08,1.44-7.92.36-8.28.72L423,62,422,73c4-1.44,11.28-1.8,21.84-1ZM554.4,183.12l1-2.64c3.72-9.36,7.56-15.36,11.64-17.88,7.68.84,12.84,2.16,15.48,4.2,2.16,1.56,2.88,4,2.16,7l.24.72c0,.36-.6.6-1.68.6-.84,0-2.28-.72-4.44-2s-3.84-2-4.92-2c-7.56,0-13.08,4.08-16.56,12.12l15.48.24.72,1.2a8.06,8.06,0,0,1,.36,2.76l-.36,2.4-1.08,1.44-17.52-.24a33.71,33.71,0,0,0-.6,5.88,11.12,11.12,0,0,0,1.92,6.48c1.92,3,4.8,4.44,8.64,4.44l7.92-.36,5.52-7,5.52-7.32a3.13,3.13,0,0,1,1.44,1.32,5.4,5.4,0,0,1,.48,2.76c0,1.68-1.8,4.92-5.28,9.72a62.69,62.69,0,0,1-8,9.12c-9.24.84-15.6-1.44-19.08-6.6a18.21,18.21,0,0,1-2.76-10.2,36.22,36.22,0,0,1,1.44-9l-.24-.36-.12-2.64c0-2.16.48-3.6,1.32-4.2ZM571.68,39.6a4.22,4.22,0,0,1-4.2,3.12c-2,0-3.84-1.44-5.28-4.44-.48-1.08-1.56-4.32-3.36-9.84-1.44-4.56-2.88-7.8-4.44-9.84-2.16-3-4.92-4.56-8.16-4.56-21.24,0-36,8.16-44.4,24.36a59.17,59.17,0,0,0-6.48,27.24c0,.36,4.56,13.56,13.8,39.48,11.88,33.24,22,62.76,30.48,88.56Q584.1,328.5,584,375.6c0,10.2-1.2,30.84-3.72,61.92-2.52,30.48-4.2,47.52-5.16,51.24q-2,8.64-6.12,28.44a206.88,206.88,0,0,1-7.68,28.44,50,50,0,0,1-23.52,27.6L518.28,587q-17.82,12.24-23.76,12.24-32,0-49.2-33.12a110,110,0,0,1-9.6-26.52,90.23,90.23,0,0,1-2.64-20A23.29,23.29,0,0,1,434.4,511a.23.23,0,0,1,0-.36,3.52,3.52,0,0,1,2-.36q.18,0,3.6,11.16a225,225,0,0,0,8.76,24.84c10.44,23.88,22.8,35.88,37.32,35.88s29.76-6.48,45.72-19.44a115.12,115.12,0,0,0,16.56-16.8c4.44-5.52,7.44-10.32,8.88-14.28a192.53,192.53,0,0,0,6.84-25.92c2.4-12.12,4.2-20.88,5.28-26,1.32-5.88,3.12-21.84,5.4-48.12,2.28-26.64,3.36-45.48,3.36-56.64q0-29.7-14.4-77.52c-11.64-35.4-19.56-61.2-23.52-77.52-1.32-5.4-4.92-15.36-10.68-29.88-7.56-18.36-13.32-32.52-17.28-42.6-15.24-39-22.92-66-22.92-81.24a88.31,88.31,0,0,1,4.44-27.48q5.58-17.82,16.92-28.08,25-22.68,45.36-4.8a52.23,52.23,0,0,1,12,16.08c2.76,5.52,4.08,9.84,4.08,12.84A17.24,17.24,0,0,1,571.68,39.6Z" transform="translate(-1.32 2.11)"/></g></svg>