<svg id="Layer_1" data-name="Layer 1" xmlns="http://www.w3.org/2000/svg" viewBox="0 0 301.65 206.4"><defs><style>.cls-1{fill-rule:evenodd;}</style></defs><path class="cls-1" d="M317.4,314.88c10.44,13.44,13.44,28,9.24,43.68-4.8,17.64-16.32,26-34.44,25.08a45.87,45.87,0,0,1-16.2-4.8q-20.52-37.62,11.88-60.12A31.27,31.27,0,0,1,316,314.28Zm-46.2-1.2c-8.52,17.76-11.4,36.72-8.88,57s14.76,29.4,36.72,27q34.38-3.6,37.44-38.64a86,86,0,0,0-8.16-45.48c-7.2-14.88-20.64-20.16-40.44-15.72A29.22,29.22,0,0,0,271.2,313.68ZM241.92,197.16l-59-1.56a163.79,163.79,0,0,0-26.28,3.24l-2.88.72c-.84.36-1.8.72-2.76,1.2a15.24,15.24,0,0,0-.48,8l.24,1,.36.72,1,.84,44-1.44a845.21,845.21,0,0,0-4.44,94.2,555.24,555.24,0,0,1-3,64.8c-1.32,12.6.24,23,4.8,31.56a363.67,363.67,0,0,0,6.36-68.16c-.12-41.28-.72-82.08-2-122.4,14.64-.12,29.4,0,44.16.36a11.32,11.32,0,0,0,1.68-10.32l-.24-.72-.36-1-.36-.72Zm143.88-2.88a744.84,744.84,0,0,0-20.88,111.48,433.14,433.14,0,0,1-7.8,46.56c-3.72,16.56-4.68,32.4-2.64,47.52a135.45,135.45,0,0,0,12.6-47.28,868.71,868.71,0,0,1,13.56-94.68c1.2-6.12,2.16-12.12,3-18.24a247.72,247.72,0,0,0,6.12,45.6,149.75,149.75,0,0,1,3.72,30A104.56,104.56,0,0,0,396.6,338l-.48,3.72a2.55,2.55,0,0,0,2.16,2.16l.12-.12,1,2.76a32.91,32.91,0,0,0,3.84-15.84q7.38-37.44,17.4-73.8a244.27,244.27,0,0,0,7.92-46.44,587.25,587.25,0,0,0,8.4,104.4,444.2,444.2,0,0,1,6,63.12c.36,10,3,17.16,8.16,21.6a2.58,2.58,0,0,0,.72-1.56,534.47,534.47,0,0,0-5.4-73q-8.82-63.54-16.2-126.72c-.6-.12-1.08-.12-1.32.24V194A229.07,229.07,0,0,0,421,217.32a887,887,0,0,0-20.4,93.6Q391.92,254.76,386,198.84Z" transform="translate(-150.15 -194.04)"/></svg>