<svg id="Layer_1" data-name="Layer 1" xmlns="http://www.w3.org/2000/svg" viewBox="0 0 303.06 217.8"><defs><style>.cls-1{fill-rule:evenodd;}</style></defs><path class="cls-1" d="M282.72,395.52q28.62,12.42,47.64-12.24a53.08,53.08,0,0,0,11-32c.6-34.2-15.72-53.88-49.2-58.8-13.8,11.4-22,26.28-24.72,44.76a97.8,97.8,0,0,0,3.84,45.72A20.2,20.2,0,0,0,282.72,395.52ZM293,307.92a31.88,31.88,0,0,1,21.72,4.56l.36.6c13.32,10.92,19,25,16.8,42-1.92,14.76-10,23.64-24.12,26.52q-37.62,7.74-34.44-34.08a59.54,59.54,0,0,1,18-39.12ZM226.2,190.8a394.49,394.49,0,0,1-73.8,6.48,10.21,10.21,0,0,0,.48,10.44l1.32,1.68a367.68,367.68,0,0,0,39.84,0q-2.88,49.68-3.12,100.08a647.35,647.35,0,0,1-3.48,64.8c-1.32,12.24.24,22.8,4.68,31.8A18.13,18.13,0,0,0,196,395.64l2.28-69.12C199.32,287,198.6,248,196,209.28a378.32,378.32,0,0,0,41.88-4.44,11.81,11.81,0,0,0,1.68-10.56,6.46,6.46,0,0,0-1.2-2.4.91.91,0,0,0-.84-.48Zm190,98a36.7,36.7,0,0,1,20.52,10.44,116.8,116.8,0,0,1,10.08,59.28,7.08,7.08,0,0,1-2.64,5.28q-22.86,19.26-53.64,17.4,2.88-42.12,4.44-84.72a24.72,24.72,0,0,0,11.4-2.4A76.47,76.47,0,0,0,416.16,288.84Zm8.64-76.44c7.32,9,10.44,19.2,9.12,30.6-2.52,23.4-15.48,36.6-38.64,39.48l.6-24.6a244.41,244.41,0,0,0-4.2-50.76c5.4-4.56,11.88-6.36,19.56-5.28A36.22,36.22,0,0,1,424.8,212.4Zm-35.16-15-.84-3.6h-.36c-1,14.28-1.32,29-1,44.28q.54,22.5.36,45h-.12l-.24.72a17.17,17.17,0,0,0-.84,8.16,5.58,5.58,0,0,0,1.08,2.76q-.72,36.36-3.36,72.48a32.47,32.47,0,0,1-1.92,9.12c-.48,1.32-.84,2.64-1.2,4l-3.48-.72a17.91,17.91,0,0,0-1.8,4.8,13.5,13.5,0,0,0,4.2,13.08l4.2.6,1.44,1.56.84-1.32a105,105,0,0,0,50-7.44,16.75,16.75,0,0,0,9.48-9.48,116.28,116.28,0,0,0,6.48-62.16c-2.76-17.4-11-30.72-24.6-40,12.6-13.32,16.56-31,12.12-53.16-4.2-20.52-16.08-33.12-35.4-37.8a35.18,35.18,0,0,1-6.84,2.4,16.86,16.86,0,0,0-7.8,4.68l-.24.84Z" transform="translate(-151.19 -188.28)"/></svg>