<svg id="Layer_1" data-name="Layer 1" xmlns="http://www.w3.org/2000/svg" viewBox="0 0 472.7 269.76"><defs><style>.cls-1{fill-rule:evenodd;}</style></defs><path class="cls-1" d="M41.4,151.8a17.28,17.28,0,0,0,.24,13q31.5-3.24,63-7.92-4.32,33.66-6.36,68.28-3.6,63.54-4.92,127.44c-2.88,3.48-3,6-.24,7.32l.12.84a30.11,30.11,0,0,0,1.2,7.32,3.11,3.11,0,0,0,4.08,2.16,91.92,91.92,0,0,0,4.8-30c-.12-42.84,1.32-85.68,4.56-128.28a357.13,357.13,0,0,0-.36-55.56c18.84-2.88,37.56-6.12,56.4-9.72l.72-.6c3.72-6.24,3.48-12.12-.72-17.76Q102.72,138.9,42,151ZM218,157.44a246,246,0,0,0-4.44,57.72,441.51,441.51,0,0,1-1.92,61.8q-4.86,48.24-42.36,77.76l-3.72-.24a28.51,28.51,0,0,1-5.76-9.24,84.9,84.9,0,0,1-5.28-24.72A674.19,674.19,0,0,1,158.4,193.2c1.44-11.88,0-22.32-4.2-31.08a611.28,611.28,0,0,0-7.8,109.56c.24,13.08,0,25.92-.72,38.76q-2,35.64,18,62.64a6.91,6.91,0,0,0,6.72,1.08q34.74-24.84,43.2-67a510.9,510.9,0,0,0,9.12-123.48,6.78,6.78,0,0,1,1-6l-1.08-.48.12-.84q1.8-11-3.6-19.44C218.52,156.84,218.16,157.08,218,157.44ZM360.72,349l-.48-2.4-1.8,3q-5-42.48-11.64-85-9.72-63.18-20.52-125.76l-.72,1.2-.36-4a595.94,595.94,0,0,0-28.8,103.08c-1.2,6.12-2.64,12.24-4.32,18.24l-1.32,5.16v-.36A1121.54,1121.54,0,0,0,270,136.44a51,51,0,0,0-3.48,18.36c-.12-5.4-.36-10.68-.84-16-.6.12-.84.24-.84.36-4.2,24.48-9,49.08-14.16,73.68q-13.5,62.82-26.4,126a84.07,84.07,0,0,1-4.8,15.6c-4.32,10.2-2.76,17.76,4.56,22.92a6,6,0,0,0,1.92-3.12l10.2-46.92q13.14-62.46,25.8-125a214.21,214.21,0,0,0,4.56-44.88,71.46,71.46,0,0,0,1.8,13.68A652,652,0,0,1,281.64,265,93.74,93.74,0,0,0,289,296.28l1.92-4.44,1.32,4.8a4.72,4.72,0,0,0,2.76-4A1070.17,1070.17,0,0,1,322.2,168l1.2-4.8q5.58,29.88,10.08,60.12c6.12,42.12,11,84.36,14.52,126.84,1.08,12.36,4.44,22.68,10.2,31.08,4.8-8.76,5-18.48.6-28.92ZM510.6,145.32a832.06,832.06,0,0,0-13.32,103.8l-.72,11.16a190.58,190.58,0,0,0-33.12,2.4,1210.37,1210.37,0,0,0,0-121.68,909.5,909.5,0,0,0-7.92,100.92c-1.08,43.08-3.72,85.8-8.16,128.16-1.08,10.2,1,17.88,6.12,23.28a469,469,0,0,0,6.6-61.56c.72-18.48,1.56-37,2.64-55.56a212.84,212.84,0,0,0,32.64.72c-2.16,33-4.44,66.12-7,99.12l-.36-.6a33.91,33.91,0,0,0-2-4.8c-.24.36-.36.6-.24.84a15.71,15.71,0,0,0,.72,3.24c-.72,8.76,1,16.56,4.92,23.28a2.85,2.85,0,0,0,1.08-1.44A555.51,555.51,0,0,0,502,320.4c2.28-42.84,5.52-85.56,9.48-128.16a323.86,323.86,0,0,0,1.08-48C511.44,144.12,510.72,144.48,510.6,145.32Zm-100.44-3.84c-15.24,4.92-25.08,15.6-29.4,31.92a70.79,70.79,0,0,0,2.52,45.6,237.79,237.79,0,0,0,20.88,40.8,182.41,182.41,0,0,1,19.44,41.28,59.51,59.51,0,0,1-2.28,44q-12.42,27.36-34,15A59.16,59.16,0,0,1,381,355.8l-1.92-8-5.4-2.16c-4.44,7.32-4.32,15.24.48,23.64a32.67,32.67,0,0,0,20.28,16l6,1.44a69.23,69.23,0,0,0,30.36-35.52,75.4,75.4,0,0,0,4.32-36.48,137.52,137.52,0,0,0-6.24-26.76,122.61,122.61,0,0,0-14.16-28.32,175.18,175.18,0,0,1-27.84-69.48c-1.92-11.4,1.92-20.16,11.64-26.16a41.15,41.15,0,0,1,19.2-6.48L432.6,171c2.52-10.44-.48-18.6-9.12-24.36A30.66,30.66,0,0,0,410.16,141.48Z" transform="translate(-40.26 -128.28)"/></svg>