<svg id="Layer_1" data-name="Layer 1" xmlns="http://www.w3.org/2000/svg" viewBox="0 0 522.33 448.08"><defs><style>.cls-1{fill-rule:evenodd;}</style></defs><path class="cls-1" d="M270.6,404.52c9.48,11,8.16,19.92-4.08,26.76a9.4,9.4,0,0,1-6,1.2l-1-24.12,4.2-3.6Zm13,13.32a19,19,0,0,0-7.8-18.24A24.81,24.81,0,0,0,264,394.44l-5.88,4.92a227.63,227.63,0,0,0-3.6,35q-.9,19.44-2.52,38.88a204.72,204.72,0,0,0,.12,39.36,113.67,113.67,0,0,0,5.76-27.72L259,471.48c.84-9.12,1.44-18.24,1.56-27.36l6.84.48A295.19,295.19,0,0,0,282,509c1.08,3,2.16,6,3.48,9l.12-.24A240.44,240.44,0,0,0,272,443.52a30.3,30.3,0,0,0,10.8-19.8Zm-125.28-84.6q-2.34,63.36-5.4,126.72a107.78,107.78,0,0,0,7.92,46.44c2.52,6,6.84,9.12,13.2,9.36q28.8.9,46.8-24.24,24.84-34.92,24.24-78.6c-.36-21.6,0-43.2,1.08-64.92q.72-15.66-7.2-22.68a45.21,45.21,0,0,0-2.52,13.8l.72.12,1,1.2c.36,13.44,1,26.88,1.92,40.44q3.78,52.38-20.88,95.88a236.06,236.06,0,0,1-20,19.44L191.76,499c-17.88,7.8-28.2,3-30.72-14.64a155.76,155.76,0,0,1-1.44-31.68q3.42-64.8,3.24-128.16C160,326,158.4,329,158.28,333.24Zm44.4-220.08a64.22,64.22,0,0,1,26.76,26.28A168.09,168.09,0,0,1,250.56,221q.18,43.74-30.24,73.32a39,39,0,0,1-20.4,10.56q-37.62,6.48-44-29A297.65,297.65,0,0,1,160,148.56q7.92-31.14,37-40.56l3.84.72.84.36.24,1.56.24.84.24.84ZM242,144.6q-11.16-39.42-49.44-49.08Q160.92,111,152.76,147.24a370.53,370.53,0,0,0-9,88,189.53,189.53,0,0,0,10.92,62,21.31,21.31,0,0,0,3.84,7.32q23.94,31.32,58.44,10.92a86,86,0,0,0,28-37.8q23.94-62.46,0-124.44Q243.3,149.1,242,144.6Zm-41.28-70-13,1.56q-34,4.68-68,10.68-48.6,8.46-96.48,15.36c-1.56,4-1.2,7.56,1.08,10.56a607.81,607.81,0,0,0,71.52-8.4l17.28-3.12a851.38,851.38,0,0,0-3.24,86.52l.84,129.12c.24,43.08-.72,86.16-3,129Q107.22,458,105.6,470c-1.56,12.48-.12,23,4.44,31.56a82.2,82.2,0,0,0,3.36-21.84c1.08-43.08,2-86,2.64-129s1.2-86,1.32-129.12q.18-60.84-3-120.6c28.68-4.8,57.12-9,85.56-12.6l1-1C203.64,83.16,203.64,78.84,200.76,74.64ZM485.64,145q2.52,34.74-15.36,61.8l-6.84,1.08a16.74,16.74,0,0,0-4.56-2.4,151.56,151.56,0,0,1-1.92-43.8L461,117.36c1-10.92.12-20.76-2.64-29.4a175.84,175.84,0,0,0-6.12,47.88,312.23,312.23,0,0,1-3,48.48c-2.16,16,1.92,28.68,12.36,38.16a17.2,17.2,0,0,0,7.68-2.64c11.52-7.8,18-18.84,19.44-33,1.32-12.36,2.4-24.84,3-37.44A317.87,317.87,0,0,0,488.64,86c-4,7.8-5.64,17.28-4.92,28.32ZM391.08,99c-1.08,42.6-2.16,85.44-3.12,128.28S386,313.2,384.72,356.4c-.84,31.08-2.16,62-3.84,93.12Q372.42,391,362,332.88q-11.34-62.82-22.2-125.64C333,168.48,326.16,130,319.08,91.44l-.6-10.8c-.72-.12-1.08.24-1.08.84V82c-.36.12-.6.24-.6.36a103.38,103.38,0,0,0-.36,22.8q-1.62,44.46-1.68,90,0,64.26-.36,129.12-.36,64.62-4,129c-.6,10.8-1.68,21.6-3,32.28-1.44,11.88-.36,22.68,3.12,32.4a2.92,2.92,0,0,0,1.2-1.56,318,318,0,0,0,5.88-50.16q2.52-64.08,2.76-128.16.18-64.62,1.08-129.12c.36-25.32.12-50.28-.6-75.12l18.24,107,21.36,125.52a1263.52,1263.52,0,0,1,14.88,125.88c.84,12.12,3.72,22.2,8.52,30.48l1-12.6a246.13,246.13,0,0,0,4.2-37.68c1.32-42.6,2.28-85.44,3.12-128.28.84-43.08,1.56-86,1.92-129q.72-65.7,2.28-128.28C393,89.64,391.2,93.72,391.08,99ZM435.6,87.36c-18.36,3.24-27.72,17.4-28,42.6-.24,15.48.12,31.08,1,46.8a101.59,101.59,0,0,0,7.32,32.64,4.12,4.12,0,0,0,1.56,1.92,19.47,19.47,0,0,0,13.44-2.4,7.15,7.15,0,0,0,3.6-4.32L438,215.16a133,133,0,0,0,1.08-47.76l-8.28-1-3.36,2.4v6.24l8.76,1.08-2,18.24-.72-2.28q-5.94,6.66-14,6.84H419c-10.92-34.68-8.28-67.8,8.16-99.36l7,.12,4.68,4.68c2.76-5.76,1.92-11-2.28-15.84Zm95.52-3.48-1.92-.48c-24.12,21.24-34.68,49.32-31.44,84.12a199.6,199.6,0,0,0,5.88,32.4,72.51,72.51,0,0,0,10,22c16.32,1.08,26.52-6.36,30.6-22.56a14,14,0,0,0-.36-8.28L519.72,209.4c-13.8-10.44-18.12-27-12.72-49.8a58.4,58.4,0,0,0,29.88-2.76,11.5,11.5,0,0,0,.36-11.76l-1-1.68L507,150.12c-4.44-25.8,4.08-44.28,25.44-55.68a39.49,39.49,0,0,0,10.8,7.68l.12-.48C544.08,92.4,540,86.52,531.12,83.88Z" transform="translate(-22.33 -74.64)"/></svg>