<svg id="Layer_1" data-name="Layer 1" xmlns="http://www.w3.org/2000/svg" viewBox="0 0 305.18 205.73"><defs><style>.cls-1{fill-rule:evenodd;}</style></defs><path class="cls-1" d="M266.52,297.24l-2,27.6a189.36,189.36,0,0,0,5,60.72c2.76,10.92,10,15.72,21.48,14.16q39.78-5,49-43.2a130,130,0,0,0,3.48-35.4c-.48-10.68-3.12-19.2-7.92-25.68a103.09,103.09,0,0,0-.6,37.44,35.84,35.84,0,0,1-3,21.84c-10.8,22.68-28.56,32.16-53.28,28.68a14.07,14.07,0,0,1-2.28-3.6,84.6,84.6,0,0,1-6.6-42.84,227.35,227.35,0,0,0,0-46.08C267.84,292.2,266.76,294.24,266.52,297.24Zm-11.64-99.72q-52,4.68-103.32,4.32l-.48.84a10.8,10.8,0,0,0,.24,6.48,333.57,333.57,0,0,0,51.48,4.32q-3.42,60.66-1.2,121.8c.84,22.08,2.16,43.32,4.08,63.84a247.07,247.07,0,0,0,4.2-60.72l-6-124.92a333.72,333.72,0,0,0,51-3.72l.48-1C257.4,204.84,257.28,201.12,254.88,197.52Zm197.28,35.76,1.08-7.92c1.32-10.32,2.28-20.64,2.64-31.08A764.28,764.28,0,0,0,426,328.2,78.29,78.29,0,0,1,423.72,340l-2,7.8-1.32,3.84a177.48,177.48,0,0,0-5.64,17.64L361.8,200.52c-3.72,13.08-1.68,28,5.88,44.64a286.35,286.35,0,0,1,14.88,41.28l7.92,29.88c2.52,10.2,4.68,20.4,6.48,30.84A153.6,153.6,0,0,0,411.12,391c1.8,3.6,3.36,5.88,4.92,6.84q14.4-33.48,21.24-78.12,5.4-35.46,12.24-70.56Z" transform="translate(-150.7 -194.28)"/></svg>