<svg id="Layer_1" data-name="Layer 1" xmlns="http://www.w3.org/2000/svg" viewBox="0 0 523.7 468.3"><defs><style>.cls-1{fill-rule:evenodd;}</style></defs><path class="cls-1" d="M165.72,307.2a18.1,18.1,0,0,1,13.2-3q27.54,3.78,27.36,31Q206.1,365,180.72,374.4a88.45,88.45,0,0,1-17,4.2v-70Zm-2.76,2a644.91,644.91,0,0,0-6.6,72.6,16.22,16.22,0,0,0-.36,4.8l.24,1.92-.24,10c-.48,43.08-1.68,85.92-3.48,128.28a2.55,2.55,0,0,0,2.16,2.16l1-1.44A803.26,803.26,0,0,0,163,432.6l.6-40.2a55.15,55.15,0,0,0,15.84-1.32l2.4-.6.36,1.32q16.74,61.74,27.36,124.08c2,12.12,6.48,22,13.08,29.64a3.3,3.3,0,0,0,1.32-3.12c-2-13.92-4.8-28-8-42.24q-13-56.7-27-113.4l2.28-2c12.36-12.12,19.44-27.36,21.24-45.6q3.78-36.9-30.6-49.56v.12c-8.52.6-15.12,4.44-20,11.52v.72a9.37,9.37,0,0,0-.12,4.08,7.56,7.56,0,0,0,1.2,3.24ZM177.84,78.72l-27.72-1A281,281,0,0,0,120,77.52L72.72,79.8A188,188,0,0,0,42,84.48v6.36l92.52-1.2c-.36,2.16-.72,4.44-1,6.72l-.12,2.4-.6,32.28-2.28,129.12c-.36,21.48-1.68,42.72-4,63.84a1023,1023,0,0,0-3.24,185.76,31.36,31.36,0,0,0,1.56,7.08A50.12,50.12,0,0,0,129,486.48a142.94,142.94,0,0,1-1.56-27.84l1.08-28.08q3.78-78.3,6.6-156.48,1.8-54.9,3-109.92c.6-24.84.48-49.8-.12-74.64l95.76-2.16v-8l-.6-.24-27.72-.24ZM453.72,301a168.25,168.25,0,0,0-12.6,43,259.26,259.26,0,0,1-11.64,45.84l-1.56,4.92a426,426,0,0,0-14.16-92l-.84-4.92a47.77,47.77,0,0,0-9.6,24.24q-7.56,71.82-17.76,143.16a568.06,568.06,0,0,0-5.88,64.68h2.64l31.32-216.12,13.08,105.48,1.56-4.44,1.92,4.68,18.12-70a1209.42,1209.42,0,0,1,1.8,125.16,291.71,291.71,0,0,0,4.44,63.84,56.3,56.3,0,0,0,5-26.52q-5-98.64-5.64-197.52Zm-58.2-174.24Q397,108.18,389,95a91.2,91.2,0,0,0-2.28,31.68q4.5,46.26,6.84,93.12a778.51,778.51,0,0,1-4.2,128.52,618.38,618.38,0,0,1-28,125.16q-9.54,28.08-35.4,41.4c-14.64,7.56-27.36,6-38.16-4.92a54.74,54.74,0,0,1-13.2-20.88,256.17,256.17,0,0,1-14.16-97.56c1.92-43.08,3-86,3.12-129.12a1266.15,1266.15,0,0,1,7-128.16,310.85,310.85,0,0,0,1.56-48c-4,5.28-6.24,11.88-6.84,19.68q-5,63.18-7.2,126.72Q256,296.94,255.72,361c0,13.32-.48,26.52-1.56,39.6-3,38.64,3.24,74.88,19,108.72q15.66,34,51.36,22.68c10.56-3.36,18.6-9.6,24-18.84a330,330,0,0,0,40.8-112.68A726,726,0,0,0,399.36,271.2c-.36-42.84-1.68-85.68-4-128.28A121.64,121.64,0,0,1,395.52,126.72Zm86.4-36.12c-4,11.88-5.64,24.84-5.28,39q1.62,64.08,1.44,128.28,0,64.8-4.44,129c-3,42.84-5.64,85.92-8,129-.36,7.56,1.8,12.48,6.6,14.76a429.47,429.47,0,0,0,4.8-54.48q1.8-64.26,5.28-128.16c1-16.68,1.68-33.48,2-50.16l1.2,2.4,1,1a77.72,77.72,0,0,0,24.72-.6q39.42-7,47.88-45.36a266.82,266.82,0,0,0-2-126.48q-11.88-46.26-61.32-43.2l-.6.12-11.28,4.2-.6.24-1.32,2Zm77.52,93.48a260.22,260.22,0,0,1-.12,45.36c-1.56,16.32-8.28,29.88-20.28,40.8a62.65,62.65,0,0,1-41.88,16.44l-12.24-1-1.68-182c15.48-7.2,30.36-6.6,44.64,1.92,12.6,7.56,20.76,19.08,24.48,34.44A303.28,303.28,0,0,1,559.44,184.08Z" transform="translate(-42 -77.22)"/></svg>