<svg id="Layer_1" data-name="Layer 1" xmlns="http://www.w3.org/2000/svg" viewBox="0 0 323.38 309.71"><defs><style>.cls-1{fill-rule:evenodd;}</style></defs><path class="cls-1" d="M253.92,155.76a544.42,544.42,0,0,0,4.44,59.88c2,15.72,4.32,31.56,6.84,47.4l-41.88,1.32q11.34-46.8,24.84-92.88c1.2-4,2.52-7.8,4.08-11.64ZM254,146l-.24-.6c-13.92,21-23.52,46.32-28.8,76.2q-3.78,21.78-9.72,43.2l-1.8.12-.24,6.48q-13.14,50.22-27.84,100.8a134.45,134.45,0,0,1-5.28,15.24c-1.56,3.84-3.12,7.8-4.56,11.88a39.62,39.62,0,0,0-2.16,15.84,29.48,29.48,0,0,0,2,8.52l.72,1.56L220.92,273a163,163,0,0,0,45.84,1.44q4.86,60.84,14,120.84a83.39,83.39,0,0,0,3.84,15.24c1.32,3.72,2.76,7.44,4.32,11l1.56,3.48q4.32-15.48-1.8-33.48a104.78,104.78,0,0,1-4.32-19.32L278,318q-10.44-88-23.76-174.6Zm-.84-23.52Q165.18,127,77.88,135l-.6,1.68a13.6,13.6,0,0,0,.36,9.72,20.16,20.16,0,0,0,10.2,1.44l82.2-7.2a572.55,572.55,0,0,0-12.84,77.64c-4.2,42.36-7.8,85-10.92,127.56-1.2,16-3,31.92-5.4,47.64-1.8,11.88-1,22.2,2.52,31.08a4.94,4.94,0,0,0,1.2-2.52q5.94-63.54,11.16-127.44c3.72-42.6,8.88-85.08,15.48-127.2a139.14,139.14,0,0,0,1.56-27L259,133.68l.48-1.68a9.9,9.9,0,0,0-.48-8l-1-.72-2.64-1Zm136.92,270A736.24,736.24,0,0,0,348.24,271.8C363,258.72,373.32,241.56,379,220.32a112.31,112.31,0,0,0,3.72-38.88q-3.42-42.84-45-48.84a77,77,0,0,0-16.2,4.32l-.48.84a12.92,12.92,0,0,0-.12,4.8l.24,1.68,3.12-.12A168.9,168.9,0,0,0,318.12,176q-5.58,52.56-8.4,105.72l-4.8,1.8A16.9,16.9,0,0,0,303.6,290a7.43,7.43,0,0,0,2.16,4.92l3.36-1.08-.48,10.56a542,542,0,0,1-6.36,64,324,324,0,0,0-3.84,63.48c4-1.08,6.24-4.2,6.84-9.6q6.3-63.54,9.48-127.56l.12-3A118.26,118.26,0,0,0,344,275.4a19.38,19.38,0,0,0,1.2,4.08,238.74,238.74,0,0,1,10.56,29.4Q373.62,370.26,394,430.2a3,3,0,0,0,3.72,1.68,9.11,9.11,0,0,0,1.56-9.48A307.6,307.6,0,0,1,390.12,392.52Zm-13-188.64a72.66,72.66,0,0,1-7.56,24.48q-18.18,34.38-54,50.88Q319,223.08,326,167.4a162.6,162.6,0,0,0,1.32-23.52c6.12-.12,12.36-.12,19,.24a19.63,19.63,0,0,1,13,5.76Q380.88,171.48,377.16,203.88Z" transform="translate(-76.55 -122.28)"/></svg>