<svg id="Layer_1" data-name="Layer 1" xmlns="http://www.w3.org/2000/svg" viewBox="0 0 564.72 512.22"><defs><style>.cls-1{fill-rule:evenodd;}</style></defs><path class="cls-1" d="M194.76,91.56c-.12-1.8-.24-4.68-.24-8.52H194Q164,177.36,140.64,310.92l-.6,3.72,2.4-.12,12.84-.24,11.4-.84L208.8,313q-9.9-79.38-13.2-143.88V99.36A62.13,62.13,0,0,1,194.76,91.56Zm4.8-14.28c-.12,8.88.12,14.64,1,17.4V168.6q1.62,22.14,20.28,194.4,16.74,156.24,16.8,174.84a16.1,16.1,0,0,1-2.76,9.48c-3-12.36-5.28-28-6.72-46.56-1.2-21.24-2.28-37.2-3.24-47.64l-4.44-47.76c-1.8-17.64-3.72-33.36-5.64-47.28l-4.32-32.16L208.92,327l-21.36.36-22,.72H146.16l-8.16-.6h-.12c-4.08,24.12-9.36,56.76-16,98.16Q110,501.42,103.08,540.72l-.48.48-.84,1a8.75,8.75,0,0,1-2.28-3.36,8.84,8.84,0,0,1-.72-3.24q0-5.94,14.76-100.08L135,297c2.52-16.44,6.6-36.36,12.48-59.76L162.6,177.6,169,148a285.67,285.67,0,0,1,7.2-29.4L185.88,83c4.08-13.92,7.56-21.72,10.56-23.28C198.6,63.72,199.68,69.48,199.56,77.28Zm12-35.88a10.6,10.6,0,0,1,1.32,9.6l-1.8,3.12-88.92,11L120.72,76.8,119,88.44,117.6,100.8c-1.08,7.32-1.56,11.64-1.56,12.84,0,36.6-1.8,69.48-5.52,98.88l-6.12,46.56q-4.32,33.66-7.8,70.32l-4.8,54.24c-2,21.48-4.32,39.36-6.84,53.76-1.32,7.32-2.4,16.32-3.24,26.88-.48,6-1.2,15.12-2,27.24-1.8,22.32-5,40.08-9.84,53.28A7.38,7.38,0,0,1,65.76,538L79,436.8Q92.64,332.94,94.44,295.56c.6-12.72,2.88-32.64,6.84-59.88,3.84-27,6.12-47.28,6.72-61.08l.84-30.36c.36-12.12,1-22.2,1.8-30.36C112,100.2,113.16,90,114,83.16c.84-6.36,1.92-12.12,3.12-17.28L96.36,68.52C63.12,73,36.24,76.92,15.72,80.64a9.12,9.12,0,0,1-1.92-6.12c0-7.8,28.2-15.12,84.48-22.2,29.4-3.72,64.8-7.2,106.32-10.68v-.48Zm67,13.8a72,72,0,0,1-8.76-4.08,354.19,354.19,0,0,1,2.16,41.4c0,8.52-.36,21-1,37.44-.72,16.8-1.08,29.52-1.2,38,0,10.32-.72,23-2,38.16-1.32,14.88-2,26.88-2,36l-.12,10.32,8.76-5.76q21.78-13.86,23-15.48c4.2-5.16,8.16-10.68,11.88-16.32a101.27,101.27,0,0,0,8.76-16.2l13-32.64c4.32-12.48,6.48-23.28,6.48-32.52q0-44.28-34.92-66.6A154.55,154.55,0,0,0,278.52,55.2Zm-9.6-11.64q45.54,13,62.4,41.28c7.32,12.24,11,28.44,11,48.72q0,19.62-7.92,43.92a225.61,225.61,0,0,1-19.68,44c-8,13.56-16.32,24.6-24.84,33l2.88,7.2a307,307,0,0,1,14.88,50.64q4.32,21.42,16.56,77.16l15.72,68c10.44,47.16,15.6,76,15.6,86.16a19.88,19.88,0,0,1-2.16,9c-4.92-9.48-8.52-21.72-10.8-36.84-2-17.52-3.84-30.72-5.4-39.48q-2.16-11.34-8.64-38.16c-4.2-17-7-29.76-8.4-38.16q-4.32-24.48-22-90.36C292,286.2,287.52,269.28,285,258.84c-7.2,6-13.92,9.36-20,10-.72,12.24-1.8,27-3.12,44.16q-4.5,54-5,67.56c-.36,8.76-1.2,20.28-2.76,34.68l-3.48,34.32-1.92,34.08c-.72,13.8-2,25.08-4,34-1-1.08-1.92-3.24-2.76-6.72a28.05,28.05,0,0,1-1.08-5.64q5.76-72.54,11.52-154.44l5.52-82.32a6.34,6.34,0,0,1-3-1.44c-.36-.48-.48-1.8-.48-4.08,0-1.08,1.32-2.88,4.08-5.16,3.6-57.24,5.4-96.6,5.4-117.84A278.2,278.2,0,0,1,265,111.48l1.56-16.32.84-11.76L267.84,67c-.12-6.72-1.2-10.68-3.24-12,.72-1.08,1.32-3.24,1.8-6.36.36-2.52,1.08-4.08,2.28-4.8l.12.24ZM402.6,421.68c-2.52,0-4.2-1-4.8-2.88l-.24-3.36q0-6.66,29.52-13.68c10-2.4,20.28-4.44,31.08-6a14.62,14.62,0,0,1,1.8,4.32,20.71,20.71,0,0,1,.6,4.56c0,2.76-1,7.8-2.76,15.24l-3.72,15.6v94.2a71.36,71.36,0,0,0-.6,7.92c-.36,3.48-1.2,6-2.64,7.56-1.56-.48-2.64-1.92-3-4.44a53.47,53.47,0,0,1-.24-6.12,40.48,40.48,0,0,1,1.08-9.84V430.68l2.16-9.72a52.21,52.21,0,0,0,1.08-9.84v-.72l-23.28,6.72C418,420.12,409.2,421.68,402.6,421.68Zm55.08-349-1,2.28c-.84-4.8-2.16-8.64-4.08-11.4-3.48-5-9.72-7.56-18.6-7.56q-39.78,0-52.8,54c-2.76,11.16-4.56,24.6-5.64,40.32l-1.68,24.84v88.44c-.36,1.68-.72,4.32-1.08,7.8a72.51,72.51,0,0,1-1.08,7.68v57.6l-2.52,52.68c-.48,8-.72,21.36-.72,39.84,0,6.6.12,12.36.36,17.52a244.38,244.38,0,0,0,3.84,33.72q8.64,47.34,32.64,47.28c9.48,0,18.24-8.16,26-24.6a122.9,122.9,0,0,0,6.6-17c1.56-4.68,2.28-7.44,2.28-8.16,0-1.32-.84-4.8-2.64-10.56-1.68-5.52-2.64-8.52-3-8.88,4.68,4.32,7.8,8.52,9.24,12.72,1.08,3,1.56,7.32,1.56,13,0,.84-.84,4.2-2.52,9.84a189.71,189.71,0,0,1-7.2,20.28c-8.28,19.32-17.16,28.92-26.52,28.92q-31.68,0-42-56.28a265.79,265.79,0,0,1-4-39l-.12-18.24c0-24.84.12-39.36.24-43.68.12-6.12,1.2-24.24,3-54.12V275l1.08-8.52c.36-3.72.72-6.6,1.08-8.52V171.24c.6-4.92,1.08-11.28,1.44-19.32l1-20.16q1.62-24.3,6.84-39.24C383.28,76.8,390.84,64.68,400.32,56c8.16-7.56,17-11.64,26.52-12.48,8.64-.72,16,1.32,22.08,6.24a24.47,24.47,0,0,1,9.24,19.8ZM554.4,42.48a39.09,39.09,0,0,1,16.44,11.76c4.44,5.16,6.6,9.6,6.6,13.56a20.64,20.64,0,0,1-2.16,9.36l-1.08.24c-.6-4.2-3.36-9-8-14.52-5.88-6.72-11.88-10.08-18.24-10.08-16.68,0-31.32,15.48-43.68,46.44a242.39,242.39,0,0,0-13.68,46.92q-.9,18.54-3.6,46.44l-4.8,47.52v22l4.32-.72,16.68-1.56,30.72-3.72c1.68.24,2.88,1.44,3.6,3.48a12.19,12.19,0,0,1,.72,4.08c0,7.56-15.6,11.4-46.8,11.4a31.35,31.35,0,0,1-9.24-1.08v18.12c-1.2,7.68-2.64,29.16-4.2,64.44q-2.34,50.4-2.28,75.24c0,12.6.12,21.48.48,26.52a124.75,124.75,0,0,0,3.6,25c4.44,17.64,14.64,35.4,30.36,53.16l7-.24q35.28-14.94,46.8-35.64a60.1,60.1,0,0,0,6.36-18.36l2.88-18.24,4.2,9a25.13,25.13,0,0,1,1.2,8.52c0,3.48-1.56,8.76-4.8,16A124.14,124.14,0,0,1,560.52,520q-20.88,29-43.68,31.68h-7.56c-17.88-18.12-29.52-38.4-34.68-60.6a172.23,172.23,0,0,1-4-29.64q-.36-7.74-.36-29.52,0-22.5,2.64-79c1.68-36.84,3-59.16,3.84-66.84V235c1.8-24.84,3.36-43.68,4.56-56.4,2-22.32,4.68-41,8.16-56.28,1.8-7.56,5.16-17,10.08-28.32,2.16-4.8,6.72-14.28,13.56-28.44C518.64,54,525.36,46.44,533.4,42.84,540,39.84,547,39.72,554.4,42.48Z" transform="translate(-13.8 -40.5)"/></svg>