<svg id="Layer_1" data-name="Layer 1" xmlns="http://www.w3.org/2000/svg" viewBox="0 0 525.03 465.24"><defs><style>.cls-1{fill-rule:evenodd;}</style></defs><path class="cls-1" d="M238,74.64q-6.48,32.94-26.16,96L190,238l-10.44,32.52,4.44.72h10.92l13.32-1.08L218.64,269l12.24-.48,10.44-1.2,13.68-.48q-4-37.26-10.8-116.28Q239.88,100,238,74.64Zm-26.64-25a11.1,11.1,0,0,1-.48,3.48l-1.44,3.12-55.68.6-30.36,2.64-2.76.12c-1.08,12.12-4.56,43.08-10.32,93.12Q98.76,252.66,96.6,281c-1,12-2.16,31-3.72,56.76-1.56,24.84-2.76,43.68-3.84,56.64q-5.22,65.7-16.2,113c-1.8-1.56-2.76-4-2.76-7.32q0-5.94,10.32-98.64,10.44-95.22,11.28-127.8,6.12-82.08,9.6-114.12,6.12-57.24,15.6-100l-21.12.48-4.08.72-4,.84L53,62.28l-15.12.48c-9.48,0-15.12-.84-17-2.64A2.42,2.42,0,0,1,20.16,58l.36-1.56a12.69,12.69,0,0,1,.36-4.08q.72-2,4-2.52l29.28-1.08,35.16-.6,4.08-.72,4.08-.84,27-.6,10.32-1.08,20-1.08v-.48l54.36.24A9.54,9.54,0,0,1,211.32,49.68Zm26.52-3.24,1.68-3.12a11.26,11.26,0,0,1,1.56,6.48,95.17,95.17,0,0,1-.72,10.56Q248.46,122.46,264,285q17.46,182.34,17.52,210.48l-.12,4.08a8.68,8.68,0,0,1-2.88,3.84c-5.64-29.16-10.08-67-13.44-113.16l-3.84-56.64c-1.56-21.24-3.24-39.72-4.92-55.32l-16.08.24-4.68,1-5,1-6.12.36-6.84.72-15.84.72-4.68.36-8.16-.6-6.24-.72a55,55,0,0,1-6.48-.12L160.8,337q-9,32.94-15.24,56.88l-16.92,65.4c-7,25.8-12.12,42-15.48,48.48a8.49,8.49,0,0,1-1.56-3.36,12.82,12.82,0,0,1-.36-3.48c0-5.16,7.8-37.32,23.52-96.72q22-82.8,35.16-125.4a5.47,5.47,0,0,1-.48-2.64,5.74,5.74,0,0,1,1.32-4.08l1.56-1,17.4-56.76q10.44-33.3,19.44-57.12,7-18.18,16.68-64.68c4.2-20,7.68-34.2,10.68-42.48C236.64,48.24,237,47,237.84,46.44Zm51.84,8-2.4-1.2.6,6.24c.12,4,.12,8.4-.12,13.32,0,14-.48,29.52-1.56,46.44a31.45,31.45,0,0,1,3.24-2q4.14-2.34,15.12-7.2c6.72-3.24,11.76-6.48,15-9.48,4.56-4.08,6.84-8.64,6.84-13.56,0-11.28-7.2-20.16-21.72-26.52C297.36,57.72,292.44,55.68,289.68,54.48Zm.72-9.72c4.92.72,10.32,3,16.44,6.72a58,58,0,0,1,16.44,14.88c5,6.84,7.56,13.8,7.56,21,0,9-3.36,17.16-10.2,24.48a52,52,0,0,1-15.24,11.28c4.44,12.36,9.6,28.32,15.6,48.12,7.56,25,11.4,39,11.4,42a9.05,9.05,0,0,1-.48,3.36l-1.68,3.12c-2.28-4-7.8-19.08-16.44-45.12-7.8-23.88-12.48-40.2-13.8-49.2a82.43,82.43,0,0,1-14.52,4.2l-1.8,21.6c-3.24,33.84-6.84,55.56-11,65a8.49,8.49,0,0,1-1.8-3.6,17.39,17.39,0,0,1-.36-3.84c0-2.76.6-9,1.8-18.6l4-33.12a977.66,977.66,0,0,0,5.88-107.4,6.8,6.8,0,0,1,.48-3,3.05,3.05,0,0,1,1.32-1.44l.48.36C285.6,44.76,287.64,44.4,290.4,44.76ZM458.64,295.2a75.3,75.3,0,0,0-1.8,13.44c0,1.8.72,5,2,10A110.66,110.66,0,0,0,465,335.4q10.62,23,25.2,23c15.36,0,26.88-3.36,34.44-10.2a26.14,26.14,0,0,0,5.52-7.32V319.68c-13.32-1.32-21.84-2.4-25.56-3.48-1.2-.36-1.8-.72-1.92-1.08l.24-.36a13.38,13.38,0,0,1,.24-3.12c.36-.72,1.32-1.2,2.88-1.56l25.8-2q.54,0,1.44,1.44a13.56,13.56,0,0,1,1.32,2.64v56a15,15,0,0,1,1.08,6.48,11.5,11.5,0,0,1-.6,3.72,6.41,6.41,0,0,1-2.16,3,18.25,18.25,0,0,1-2.76-5.64V352.44l-1.2,2.28a38.93,38.93,0,0,1-5.76,7.68c-6.36,6.84-13,10.32-20,10.32q-31,0-44-31.44a97.89,97.89,0,0,1-6.12-22,86.14,86.14,0,0,1-1-10.8c0-11.16.72-19.92,2.16-26.4,1.68-7.08,5.28-16.92,10.8-29.28q9.9-22.5,22.68-27c18.6-6.6,33.6-7.68,44.88-3.12a27.71,27.71,0,0,1,9.6,6.84c2,2.28,3,4.44,3,6.24a5.54,5.54,0,0,1-.6,2.76l-1.32,1.8-11.16-3.48c-6.36-2.16-10.8-3.24-13.2-3.24q-35.64,0-52.2,36A111.7,111.7,0,0,0,458.64,295.2ZM455.16,52.08l.36,7.44c0,2.64-1.08,10.2-3.12,22.8s-3.12,22.08-3.12,28.32c0,1.68-.72,7.44-2.28,17.16-2.28,14.28-4.08,25.56-5.16,33.84-4.92,36.12-7.44,68.52-7.44,97.44,0,9.12-.72,27.12-2.16,53.88s-2.16,45.6-2.16,56.52l1.08,22.92,1.08,22.92q0,6.66-1.44,33.48c-1.08,20.4-2.16,33.72-3.12,40v.48a2.62,2.62,0,0,1-1.08.36l.24,4.68a11.39,11.39,0,0,1-2.64,7.8c-3.72-7.08-6.24-16.44-7.44-27.84L415,445.8l-2.16-28.44-2.16-28.44c-1.08-16.2-3-34.92-5.52-56.4-1.68-13.32-4.2-32.16-7.44-56.4-1.08-7.56-3.36-26.4-6.72-56.76-2.64-23.28-5.16-41.88-7.68-55.92l-5-28.68c-2-11.16-4-20.64-5.76-28.2-1.56-6.6-4.56-17.76-9-33.24q-.54,60.84-21.48,244.44-8.1,71.82-15.72,128.4-7.38,55.8-9,58.32a7.92,7.92,0,0,1-3.48-4.2,9.36,9.36,0,0,1-.36-2.64c0-3.48,2.4-20.76,7.2-52.08,5.28-34.92,8.28-55.56,9.12-62l6.6-56.28,6.36-56.52q4.32-41,10-113.64,4.86-64.26,7.56-95.28c-1.8-6.48-2.64-10.08-2.64-10.8a8.62,8.62,0,0,1,.24-2,5.91,5.91,0,0,1,2.76-2.64l.84,2.4.24-2.76.6,5.4c10.44,30.6,18.84,66.24,25.44,106.92q6.12,37.26,15.36,111.84c3.6,26.28,6.12,45,7.44,56C413,347,415,365.76,416,382.2c.24,3.84,2.16,22.92,5.88,57.24l2.16,20.76c1.8-25.56,2.76-40.56,2.76-45l-1.08-22.92-1.08-22.92c0-5.4,1-30.12,2.76-74.4q2.7-63.18,4-89.88l3.72-40.68c1.56-16.92,3.24-30.6,5.28-41.28L443.88,103l3.24-20.4c.36-2.76.6-6.36.72-10.92L448,60.36c.36-8.88,2.28-14.88,5.64-17.88A53.3,53.3,0,0,1,455.16,52.08Z" transform="translate(-20.13 -42.48)"/></svg>