<svg id="Layer_1" data-name="Layer 1" xmlns="http://www.w3.org/2000/svg" viewBox="0 0 553.39 569.52"><defs><style>.cls-1{fill-rule:evenodd;}</style></defs><path class="cls-1" d="M347.76,579.6q2.88-51.48,7-102.6a20.64,20.64,0,0,1,1.92,5.16c7.92,34.92,17.4,69,28.56,102.48a219.82,219.82,0,0,0,10.32-49.08c1.56-16.44,3.24-33,5-49.56,1.08-9.84,0-18.36-3.48-25.56l-.6.6a10.16,10.16,0,0,0-1,9.12l-.24,2a659.06,659.06,0,0,1-10.44,97.68c-5.52-17.88-10.2-36.12-14-54.6a208.48,208.48,0,0,0-17.28-50.88,71.58,71.58,0,0,0-3.12,15.24A916.92,916.92,0,0,0,346.8,582,4,4,0,0,0,347.76,579.6Zm-183-475.92a63.83,63.83,0,0,1-19.08,13.92l-.72-3.12a4.67,4.67,0,0,0-1.44,4.08,68.9,68.9,0,0,1-13.68,4.08Q131.28,85,131.76,48c10.92-1.08,20.16,2.28,27.84,10.32Q180.66,80.1,164.76,103.68Zm10.56-27a45.44,45.44,0,0,0-13.56-24.84,33.66,33.66,0,0,0-11.16-7A38.42,38.42,0,0,0,142.44,43a27.62,27.62,0,0,0-13.32,1.44l-3.6,78.72-1.8.24-.36,8.52,1.56.72a257,257,0,0,1-3.72,39.48l-1.56,8.52a34.49,34.49,0,0,0,2.76,22.2l7-70.92L145,127.2c1.56,8,3.36,15.84,5.52,23.52L154,162a241.54,241.54,0,0,0,25,53.16,4,4,0,0,0,1-3.24l-.6-2a426.8,426.8,0,0,1-31.56-84,46,46,0,0,0,9.84-6l4.56-3.84a40,40,0,0,0,14-30.84A41.84,41.84,0,0,0,175.32,76.68Zm13.92-50.76a238.8,238.8,0,0,0-34.8-2.28Q83.7,28.86,13.68,35.52a10.12,10.12,0,0,0-1,5.28l.12.6a17.13,17.13,0,0,0,1,2.64l.72.72A136,136,0,0,0,40.68,44c20.52-2.52,41.16-4.32,61.68-5.64a529.38,529.38,0,0,0-4.56,73.68q.36,52.38-.6,104.52c-.6,35.16-.72,70.2-.36,105.36.36,34.92,0,69.84-1.08,104.52L92.28,531.72c-.24,8.76-.84,17.52-1.92,26.28-1.08,10,.12,18.6,3.6,26a766.36,766.36,0,0,0,5.16-80.16q.54-52.38,1.8-104.52,1.26-52.56.36-105.24c-.6-34.92-.48-69.72.36-104.64s1.08-70.08,1.08-105.24A214.67,214.67,0,0,1,104.4,58a68,68,0,0,0,.24-19.68c28.2-1.8,56.52-2.4,84.72-2a8.09,8.09,0,0,0,1.68-6v-.6l-.48-2-.6-1.32Zm71,9.12a402.29,402.29,0,0,0,7.44,50.16c2.76,12.84,5,25.8,6.84,38.76q7.56,51.3,10.56,103.08L291.72,331q3.6,52.2,10.32,103.92c4.44,34.2,8.4,68.4,12.12,102.6.84,8.76,1.68,17.4,2.28,25.92a59.34,59.34,0,0,0,7,25.08l.6-1.32c-1.8-32.76-4.92-65.76-9.36-98.76-4.68-34.32-9-68.76-13.2-103.2s-7-69-8.4-103.92c-1.56-34.68-3.72-69.36-6.72-103.92-1.56-17.28-4-34.44-7.2-51.36q-9.18-46.8-17.88-93.36a14.19,14.19,0,0,0,.24-6.36l-1.08,2.16-.72-4,.24,4.8A109.13,109.13,0,0,0,253.8,46c-9.48,33.36-17.4,66.84-24,100.56q-7.56,38.34-14,76.44-5.94,36.18-12.6,72.12l-.24.12a5.14,5.14,0,0,0-.6,1.92v2.28l-4.68,25.44q-9.72,51.3-22.8,101.88c-8.76,34-17.64,67.92-26.88,101.76a224.34,224.34,0,0,0-7.8,50.4,1.73,1.73,0,0,0,1.08-.24,181.93,181.93,0,0,0,10.2-32.76q11.34-50.58,24.48-100.68,13.32-50.58,23.16-101.88L206.76,302a312.55,312.55,0,0,1,80-15.84l1.08-1.8a6.26,6.26,0,0,0-.84-6.12l-.72-.36-2.16-.12a236.24,236.24,0,0,0-75.84,15.72l8.88-52.08c5.64-34,11.88-68,18.48-102s14.52-67.32,24-100.56l-.12-.72-.12-1.32.24-.6Zm108.6,277a36.18,36.18,0,0,0-18.72,22.68c-4,12.6-.24,22.56,11.16,29.76A68,68,0,0,1,385.92,391c6.12,11.88,5.64,23.4-1.32,34.68-6.84,11-16.32,16.92-28.44,17.52-14.28,1.08-22.92-5.16-25.92-19a46.24,46.24,0,0,1-.84-5.88l1.44-1.56.12-.48a2.71,2.71,0,0,0-.48-2,3.61,3.61,0,0,0-1.92-1.56l-1.32-.24-1.8.12a41.09,41.09,0,0,0,5.16,28.8c5.16,8.64,12.6,13,22.44,13.08,8.76.12,16.08-3.24,22.2-10a68.56,68.56,0,0,0,15.24-28.68q7.38-28.62-14.76-49.08a41.48,41.48,0,0,1-18.12-11.64,29,29,0,0,1-6.6-11.52c1.92-9.36,7-16,15.24-19.92a19.74,19.74,0,0,1,15.24-.84l3.36,3.6a2.37,2.37,0,0,0,1.08-2.28,9,9,0,0,0-2-6.36l-4.2-4.68ZM406.2,49.2c2-1.56,2.16-4,.48-7a53.58,53.58,0,0,1-3.36-7.56q-16.38-13-32.4-1.08a69.53,69.53,0,0,0-20.76,24.12C345,67.44,340.44,77.4,336.24,87.6A222,222,0,0,0,326.4,119a240.48,240.48,0,0,0-4.56,26.28c-1.08,8.52-1.92,17-2.64,25.56s-1.56,17-2.16,25.68l-1.32,25.56L314,257.88a63.5,63.5,0,0,0,8.52,35.76q11,18.72,31.32,15.84a47.64,47.64,0,0,0,31.8-17.64A23.05,23.05,0,0,0,391.2,276c-13.08,18.84-29.76,26.16-49.8,21.72a22.49,22.49,0,0,1-15.48-11,25.14,25.14,0,0,1-3.24-8.52,205.31,205.31,0,0,1-3.36-31c-.36-10.92-.24-21.72.24-32.52.24-6.84.6-13.8,1.2-20.64.72-8.28,1.56-16.44,2.64-24.6s2.28-16.32,3.72-24.36a300.59,300.59,0,0,1,13-50,147.78,147.78,0,0,1,28.68-49.32c9.12-10.56,19.08-11.64,29.88-3.12A82.71,82.71,0,0,1,406.2,49.2Zm159-24.84A7.64,7.64,0,0,0,562.08,27a114.67,114.67,0,0,0-17.4,30.48q-11.52,30.42-20.88,61.2Q508.86,168,490,216l-38.52,97.68a115.82,115.82,0,0,0-3.84,12q1.08-48.42,1.44-96.84.54-52.74.12-105.24L448.56,19a485.87,485.87,0,0,0-3.36,64.2l1.08,104.64Q447,240,445.2,292.32C444,327.24,443,362,442.44,397q-.9,52.74-2.88,105.12c-.72,17.64-2,35.28-4,52.8-1.08,10-.24,18.6,2.52,26a162.23,162.23,0,0,0,5.4-37.68Q445,491,445.68,438.6c.36-30.84,1-61.56,1.56-92.16a881.22,881.22,0,0,1,32.64-88.56,94.82,94.82,0,0,0,3,27.24q12.78,50,24.12,100.56c7.68,33.72,15.12,67.32,22.44,101A962.61,962.61,0,0,0,556.8,587c3.84-4.8,4.2-9.12,1-13-7.08-22.8-13.68-46-19.56-69.48-8.52-33.48-16.08-67.32-22.68-101.28L505.08,352q-10.44-49.5-23.88-97.32a772.46,772.46,0,0,0,34.08-96.84,922.77,922.77,0,0,1,33.24-98.52A88.61,88.61,0,0,1,562.2,36.12C566,31.44,567,27.6,565.2,24.36Z" transform="translate(-12.69 -18.96)"/></svg>