<svg id="Layer_1" data-name="Layer 1" xmlns="http://www.w3.org/2000/svg" viewBox="0 0 469.2 486"><defs><style>.cls-1{fill-rule:evenodd;}</style></defs><path class="cls-1" d="M183,146.88c-8.4,13.44-20.64,20.16-36.84,20.28L144.72,90.6c16-5.76,28.68-1.2,38.16,13.56C191.88,118.2,192,132.48,183,146.88Zm69.24-12q5,63.54,14.28,126.6l1.8,11.88c-17.88-.36-34.44,2.4-49.68,8.4l10-60.6q9.9-59.94,22.68-119.4C251,112.68,251.4,123.72,252.24,134.88Zm76.92,62.88q-7.38,63.18-20.28,125.52a297,297,0,0,0-6.36,63.6,512.41,512.41,0,0,0,15.84-72.24q9.18-63.54,15.24-125.76C331.08,190.92,329.64,193.92,329.16,197.76ZM197.64,125c.84-16.8-5.76-29.76-19.56-38.76a41.35,41.35,0,0,0-26-6.72l-7.44,4.08L144.12,82q-7.38,86.58-11,174.24c-.36,7.56-.24,15.36.12,23.16a37.94,37.94,0,0,0,4,14.52,681.53,681.53,0,0,0,8.76-116l19.56-3.24a1180,1180,0,0,0,24.6,118.08,457.28,457.28,0,0,0-21-119.76l9.12-6.48Q196.38,149.88,197.64,125Zm50.52-50.76q-12.24,62.46-22.92,125.28l-21.36,126Q193.26,388.38,179.64,451c-2.28,10.56-5,21-8,31.2-4.92,16.44-6.36,32.4-4.44,47.64a2.34,2.34,0,0,0,1.32-1.32,781.79,781.79,0,0,0,22.08-87.36c6-31.32,11.64-62.52,17-93.84l9.24-55.08,53.64-3.84c4.68,33.12,8.88,66.36,12.84,99.6l14.88,127.2-.24-.24a8.22,8.22,0,0,0-4.08-6.48c3.48,10.68,7.2,20.88,11.28,30.6a2.06,2.06,0,0,0,1-1.44,691.26,691.26,0,0,0-7.44-95.16c-6.36-42.12-12.12-84.24-17.52-126.36L265.44,189.36c-4.68-38.88-8-77.64-10.32-116.4a81.27,81.27,0,0,0-.24-9.36l-.24.12v-1.8l-.36,2C251.16,66.24,249.12,69.6,248.16,74.28ZM187.68,54.84l-1-1.8Q125.34,59,64.68,67.8a184.12,184.12,0,0,1-38.16,1.44V82.32a323.53,323.53,0,0,0,82.32-6.24q-7.74,122.22-7.32,244.44c.12,29.52-.6,59-1.92,88.56-1.08,26.76-2.88,53.64-5.4,80.4A202.44,202.44,0,0,0,93.84,519a42.5,42.5,0,0,0,5.52,18.12q9.18-90.18,9.6-181c.12-21.36-.12-42.72-.6-64.2q-1.08-56.52,1.56-113,1.62-37.26,4.2-74.52c.6-9.6.84-19.2.48-28.92l72.12-7.32C189.72,64.08,190,59.64,187.68,54.84ZM364.8,196.56l-1.2-1.2-1,1.08.24-4.32a840.74,840.74,0,0,0-23.16,100.8,591.09,591.09,0,0,0-5.28-101q-3.6,56.16-1.68,112.68a65.88,65.88,0,0,0,4.68,22.56l1.08-4.92,1.08,3.12,19-91.8a771.79,771.79,0,0,0,7.2,156.12,1062,1062,0,0,0-.6-120.36,524.89,524.89,0,0,1-.12-64.44C367.32,202,367.32,199.2,364.8,196.56ZM402.36,64.68,402.24,67a37.36,37.36,0,0,0-2.4,12.6q-1.44,64.08.48,128.28c1.32,43.08,1.2,86.16-.24,129Q397.92,401.46,394.8,466c-.84,16.2-2,32.28-3.84,48.48-1.08,9.84.72,17.88,5.16,24A1.57,1.57,0,0,0,397,537c2.76-29.88,4.8-59.88,5.88-90,1.56-42.84,2.88-85.56,3.72-128.28q1.44-64.62-.12-129-1.26-59.58-1.08-118.08a40.28,40.28,0,0,1,25-.36c20.52,6.12,34.92,18.72,43,38q25.56,61.38,10,126.12a55.86,55.86,0,0,1-17.52,29.4c-15.48,13.8-33.72,19.44-55,16.8a9,9,0,0,0-1.56,4.08,23.45,23.45,0,0,0-.12,6.48,6.32,6.32,0,0,0,2.76,4.92c4.2.24,8.28.36,12.36.24,32.76-.6,53.52-16.8,62.28-48.84a248.77,248.77,0,0,0,2-126.6c-9.12-37.8-33.12-59.76-71.88-65.64l-2.16.24a18.08,18.08,0,0,0-11,4.08A12.09,12.09,0,0,0,402.36,64.68Z" transform="translate(-26.52 -53.04)"/></svg>