<svg id="Layer_1" data-name="Layer 1" xmlns="http://www.w3.org/2000/svg" viewBox="0 0 351.14 269.92"><defs><style>.cls-1{fill-rule:evenodd;}</style></defs><path class="cls-1" d="M295.32,144.12l9.6,114.36-35.76,1.92,23-90.48ZM295,138a1355.53,1355.53,0,0,0-40,146.76c-3.72,17-8,33.84-13,50.52l-2.64,7.8L235,354.6l-3.24,7.56a46.67,46.67,0,0,0-4.08,16.68,33.72,33.72,0,0,0,2.88,15.36,904.49,904.49,0,0,0,35.76-122.4,95.6,95.6,0,0,0,40,2A375.87,375.87,0,0,0,320,395.28,1882.81,1882.81,0,0,0,304.92,182c-2-15.72-4.32-31.56-6.72-47.28Zm-49.8-6q-85.32,2-168.84,1.68c-1.56,4-1.2,7.44,1.08,10.56q43.92,2,88.32,2.16a582,582,0,0,0-6.36,91.44q.54,65-4.68,129c-1,12.12.72,22.68,4.92,31.68a985.24,985.24,0,0,0,5.52-115.2c-.36-27,.6-53.76,2.64-80.28a343.17,343.17,0,0,0-.12-56.64q38.7,0,77.52-1.32l.6-1A10.88,10.88,0,0,0,245.16,132ZM388.32,276.84A72.73,72.73,0,0,1,415,314.28a67.7,67.7,0,0,1-1.44,45.12c-6.12,16.08-17.88,24.24-35.16,24.36a39.67,39.67,0,0,1-20.52-5.28L360,275.64Zm27.36-68c.36,16.8-5.52,30.84-17.76,42a50.6,50.6,0,0,1-29.64,13.56l-3.72-2.52.6-4.08-.36-.6h-.24l-1.44,1.32-.24,1.8-1.92,1.2L359.88,149.4A64.35,64.35,0,0,1,398,167.76Q415.14,184.32,415.68,208.8Zm-56.52-73-.36,1.92-.24.36a9.46,9.46,0,0,0-1.44,7.2l.36,1.2a400.39,400.39,0,0,0-4.2,65.4c.6,43.08.24,86.16-1.32,129a256.09,256.09,0,0,1-3.12,32.16q-2.52,14.94,5,24.12a5.23,5.23,0,0,0,2.28-2.28l.72,1.68c16.2,7.32,32.64,7.08,49.56-.72a44.91,44.91,0,0,0,13.32-20.52,141.13,141.13,0,0,0,5.52-61.68c-2.64-20.16-11.64-34.92-26.88-44.4a60.77,60.77,0,0,0,11.28-13.44q22-35.1,8.52-74.16c-9.48-27.6-28.92-42.36-58.56-44.4l-.12-1.44Z" transform="translate(-75.37 -132)"/></svg>