<svg id="Layer_1" data-name="Layer 1" xmlns="http://www.w3.org/2000/svg" viewBox="0 0 558.84 558.36"><defs><style>.cls-1{fill-rule:evenodd;}</style></defs><path class="cls-1" d="M345.24,266.88v-.48c2.16,2.4,3.24,4.44,3.24,6.24a9.85,9.85,0,0,1-3.24,7.32l-4.44.24-5.28.84-17.88,1.08-8,1.08-22,.36,1.2,13.8c1.08,12.24,1.56,21.36,1.56,27.48l-.84,142.92c0,11.64-.72,30.24-2.16,55.92l-2.16,35.4a22.58,22.58,0,0,1-2.76,11.4,5,5,0,0,1-3-3.24,16.24,16.24,0,0,1-.24-3.36q0-31,4.92-68.52v-61.8c-.6-6.48-.84-16.8-.84-30.84l2.4-95.28L284.64,295l-1-11.4-6.6.12-7.68.84-7.44.84-8.4.48-4.08.6c-15.6,0-25-1-28.08-2.76-1.08-.6-1.44-1.32-1.08-2l.72-1.56V277.2c.36-.84,1.56-1.44,3.6-1.92,3.72-.84,16.44-2,38.4-3.48l15.12-1.08,32.52-.6c1-.48,9.24-1.32,24.84-2.64ZM151.8,14.4l1.2,2.16a6.8,6.8,0,0,1,.48,3,6.8,6.8,0,0,1-1.92,5.28l-8.88.36-9.6.72-31,.36L84,26.64l.12,14q0,16.38.36,22.32v46.32a112.86,112.86,0,0,1,2.28,24.36L85.8,158V205.8a491.17,491.17,0,0,1,4.08,50.4c.12,5.52.24,21.72.24,48.6,0,26.64-.12,43-.24,48.84-.36,15-1.32,32.88-3,53.4v43.08C85.8,458.64,85,468.84,84.36,481L82.8,511.44c-1.44,24.48-4.56,44.76-9.24,61a10.43,10.43,0,0,1-2.4-7q0-7.92,5-60.84L82,444.48V402.24c1.68-21.12,2.76-38.28,3.12-51.48.12-5.4.12-20.64.12-46q0-45.54-4.32-94.92V154q1.44-4.86,1.44-15.84L80,87.84c-.48-9.24-.72-18.6-.72-28.32.12-13.8.84-24.72,2.28-32.88l-11.28.48-35.64.48c-2.88,1.32-9.36,3.36-19.56,6l-4.56-.36A35.31,35.31,0,0,1,10,28a8.44,8.44,0,0,1,.72-4.2c.48-.84,1.56-1.44,3.12-2,6.6-1.32,13.92-3.24,22-5.52L71.4,15.12l61-.48.72-.6Zm31.68,126.12c0,2.52-2,21.48-6.24,56.88l-8.88,77.4c-1.68,14.4-3.36,36.48-5.16,66.12q-3.42,40-11.4,67c-3.12-7.8-5.4-18.12-7-31-1.32-14.76-2.4-25.8-3.36-33.12l-4.32-31.92c-1.8-13.08-2.88-23.76-3.48-32.28h-.24L130,309.84c-1.44,12.36-2.76,22.8-4.08,31.08q-5.76,35.82-16.56,61.08c-1.56-.36-2.52-1-2.88-1.92l-.36-2.4V316.44a17.28,17.28,0,0,1-1.08-4.08V245q-4.14-34-4.08-77.16l.6-29.88.36-.48,1.2-.6c1.2,12,2.28,29.16,3.36,51.36,1.08,24.48,2,42,2.88,52.44V308l1.08,4.08V386c4-8.76,6.84-20.76,8.76-36l2.28-18.84A182.93,182.93,0,0,1,124.2,313c.84-16.44,1.68-28.8,2.52-36.84,1.32-14,4-26,8-35.76q2.16,22.5,8.52,69.84c4.2,31.32,7,54.84,8.52,70.68v.24q5.22-39.24,14.88-137,9.18-93.6,9.24-103.68c0-.12.72-1.32,2-3.48s2.52-3.6,3.36-4.08A13.43,13.43,0,0,1,183.48,140.52Zm25.68-35.28V240.72q3.78,39.42,4.32,56.16l.24,46.56c0,22.08-.36,40.32-1,54.84-.72,16.2-2.16,36-4.44,59.16l-3.12,28.44c-1.32,11.88-2.16,21.24-2.28,28.32l-.12,14a112,112,0,0,1-1.2,14.4,81.1,81.1,0,0,0-.12,13.8q-.18,9-4,14a9.66,9.66,0,0,1-3-6.36c-.12-1-.24-3.48-.24-7.44,0-13.56.72-28.32,2.28-44l4.8-44.28a1136.26,1136.26,0,0,0,7-125.52c0-14.28-.48-26.64-1.32-37.08-1.08-11.4-1.68-27.6-1.92-48.6l-.72-84q0-138.06,2.64-158a313.46,313.46,0,0,1,3.36,45.12C210.48,69.72,210,84.72,209.16,105.24Zm118-77.52q0,20.88-5.88,100.56c-4.68,62.88-9.12,104.16-13.56,123.72-3.36-6.36-6.48-15.12-9.48-26.4-3-12.6-5.16-21.72-6.72-27.12l-8.16-27.24c-3.84-12.12-6.6-21.12-8.16-27-6.72-23.64-17.64-60-32.76-108.84h-.24q-2.52,34.74-4.68,105c-2,42.24-5.64,77.52-11,106h-1.56a35.31,35.31,0,0,1-.6-5.28c0-6,.84-15.36,2.64-28.08s2.52-22.56,2.52-29.16c.6-4.68.84-14,.72-28-.12-11.64.72-21,2.28-27.84.6-7.2,1.08-16.56,1.44-28L235,71.4c1-23,2.88-41.28,5.88-54.84,11.52,30.6,23.16,66.36,35,107l29.64,107,.48.24c4-14.28,6.48-32,7.44-53,.6-23.64,1.32-41.52,2.4-53.64.48-6.6.84-15.6,1.2-27l1-28.44c1-22.68,3.24-39.48,7-50.4A18.62,18.62,0,0,1,327.12,27.72Zm37,268.08a68.14,68.14,0,0,1,3.84-6.24,27.52,27.52,0,0,1,14.76-9.6c15.12-4.32,27.24-5,36.48-2.16a19.5,19.5,0,0,1,8.4,4.68,8,8,0,0,1,2.64,5.76l-.24,3.6.24.36c0,.36-.6.48-1.68.48a7.92,7.92,0,0,1-3.84-1l-2.88-1.8c-3-1.8-7.92-2.76-14.52-2.76-31.8,0-53.64,26.16-65.28,78.36a350.4,350.4,0,0,0-8,82.68l-.12,14.28a178.53,178.53,0,0,0,3.36,29.64Q346,534.6,373.92,534.6c12.84,0,21.24-.24,25.08-.6,6.24-.6,11.28-1.92,15.12-4.2s8-6.12,12.72-11.76l17.76-23.28h.6l.24,1.2a75,75,0,0,1-13.2,32.52c-10.08,14-23.16,21-39.36,21q-44.28,0-57.84-38.16c-3.24-9.12-5.28-20.16-6.12-33.24-.24-4.68-.36-14.52-.36-29.64a414.61,414.61,0,0,1,2.88-48.72c1.68-13.8,4.44-30.24,8.16-49.2,3-15.24,10-31.56,21.12-48.72Zm109.56,12q.72,14.94.72,35.28c0,1.44-.24,4.2-.6,8.16l-1.56,10.92v43a61.16,61.16,0,0,1,11.64-4.44,292.34,292.34,0,0,1,66.84-9.24l4.32.12c.24-11.4.6-24,1.2-37.92q2.7-60.66,8-85.68a31.6,31.6,0,0,1,1.92,11.88l-1,10.68c-.6,6.24-1,9.84-1,10.8l-1.92,56-.6,13.32-1.56,19.92v1.32c3.72.48,5.64,1.44,5.64,2.88,0,2.52-.24,4.08-.72,4.92-.72,1.08-2.4,2-4.92,2.88v34.32c.72,3.72,1.08,10,1.08,18.6,0,7.2-1.56,26.88-4.8,59.16-3.12,31.44-5.16,49.08-6,52.92a9.55,9.55,0,0,1-3.24-7.68c0-3.24.36-9.24,1.2-18l2.52-29.64q3.78-47.7,3.84-98.16V403.68c-7.2,1.32-21.84,3.36-43.92,6.36l-16.08,1.32-15.48,1.2a8.52,8.52,0,0,0-3.72,1.44,5.7,5.7,0,0,1-3.12,1.2h-.24c-1.08,16.32-1.92,40.8-2.76,73.56q-1.62,45.18-7.8,75.6a11,11,0,0,1-2.64-5,21.7,21.7,0,0,1-.6-4.32l3.24-31.56c2.16-20.76,3.24-34.8,3.24-41.88q0-28.44,2.4-72.36V358.08a237.35,237.35,0,0,0,1.44-33.84c-.6-14.76-.84-25.92-.84-33.48a35.14,35.14,0,0,1-1.2-8c-.36-5.52.72-9.12,3.36-10.68A332.05,332.05,0,0,1,473.64,307.8ZM433.56,38l-1.08.6a57.49,57.49,0,0,0-9.84-5.4A33.56,33.56,0,0,0,409.44,30q-34.92,0-51.6,72.36a389.8,389.8,0,0,0-9.84,74l-.24,11.28a107.1,107.1,0,0,0,2.4,21.6c4.68,20.4,15.12,30.6,31.44,30.6a52,52,0,0,0,17.28-3.48,69.52,69.52,0,0,0,17.64-9.6c12.84-9.72,18.12-20.52,16-32.16l.48-.84a38.64,38.64,0,0,1,2.76,9l.24-1.68V163.44l-21.12,1.68L394,166.2l-8-.36a5.65,5.65,0,0,1-1.2-2.4,11.18,11.18,0,0,1,0-6.48,5.65,5.65,0,0,1,1.2-2.4,313.53,313.53,0,0,0,35-2l16-1c2.52.6,4,3,4.2,7.2.12,3,0,10.56-.36,22.56,0,10.32-.6,21.6-1.68,33.72-1.56,16.92-2.64,29.88-3.12,38.88l-.72.48-1.2.84q-1.62-1.26-2.16-6.84l-.24-5.88c0-2.28.48-8,1.44-17.16a108.19,108.19,0,0,1-9.48,11.88c-11.4,12-22.32,18-32.88,18q-35.64,0-45.48-37.8a114.82,114.82,0,0,1-3.12-26.88l.48-13.8q0-49.5,14.28-92.28c3-8.76,5.88-16.44,8.88-23a144.57,144.57,0,0,1,13.08-23.28c2.28-3.36,6.24-7.32,11.64-12,6.12-5.16,10.92-8,14.4-8.52,10.2-1.56,18.12.24,23.88,5.28,5,4.44,6.84,9.24,5.28,14.64Zm127.56-8.16c3,1.08,4.44,3.12,4.44,5.88,0,3-1.2,4.56-3.48,4.56l-6.36-1.08-6.36-1.08-19.2.84q-30.78,13.86-48.6,68.4a239.66,239.66,0,0,0-6.48,23.88q12.06-2.34,15.48-4c2.88-.6,15.12-1.68,36.6-3.36v-.6l20,.36c2.28,2.28,3.48,4.32,3.48,5.88l-.24,2.88a5.94,5.94,0,0,1-3.24,3.6l-10.32.48-10.8,1A301.17,301.17,0,0,0,493.92,141l-14.4,2.64c-3,0-5.28-.6-6.6-1.68l-1.68,9.48a233.85,233.85,0,0,0-3.12,34.68c0,15.84,3.12,29.76,9.24,41.88q10.44,20.52,27.36,20.52c13.8,0,27.72-5.64,41.76-17A74.32,74.32,0,0,0,561,216.36c3.72-5.4,5.52-10.2,5.64-14.4h1.68a37,37,0,0,1,.48,6.12c0,14.52-8.16,28-24.6,40.2a104.14,104.14,0,0,1-19.68,11.28c-6.36,2.76-11.28,4.08-14.76,4.08q-31.5,0-42.48-38.16a125.1,125.1,0,0,1-4.32-26.4l-.24-12.48A268.14,268.14,0,0,1,476,101.88q18-54,54.36-75.36C546,26.88,556.2,28.08,561.12,29.88Z" transform="translate(-9.96 -14.04)"/></svg>