<svg id="Layer_1" data-name="Layer 1" xmlns="http://www.w3.org/2000/svg" viewBox="0 0 311.64 329.89"><defs><style>.cls-1{fill-rule:evenodd;}</style></defs><path class="cls-1" d="M190.68,417c-1.92,11.88-1,22.68,3,32.4A412.85,412.85,0,0,0,203.4,371c1.32-43,2.88-86,4.44-129.12a596.69,596.69,0,0,0-.84-64.08,177.7,177.7,0,0,0-6,46.2q-.18,64.62-3.48,128.28A576,576,0,0,1,190.68,417Zm-13.2-291.24a186.57,186.57,0,0,0-37.32,3.72c-14,3-28.2,5.28-42.6,7l-32,2.88.6,11.76a93.55,93.55,0,0,0,28.32-.72l27.24-4.08,17.88-2.4c-3.12,39.24-5.52,78.36-7.32,117.6-1,21.36-1.44,42.72-1.56,64.08a473.36,473.36,0,0,1-3.84,59.88,121.67,121.67,0,0,0,4.56,52.32,136.27,136.27,0,0,0,5.16-38.88c-.24-18.12-.36-36.12-.24-54.12.12-21.48.72-43,1.92-64.56,2.52-45.48,4.2-91,4.8-136.56a407,407,0,0,1,61.68-1.32l8.76.6a12.76,12.76,0,0,0,1.56-6.6l-.48-4-.72-2.4-.36-.84A179.47,179.47,0,0,0,177.48,125.76Zm76,4.8a6.76,6.76,0,0,0-1.8,5.52v1.44q-6.3,63-10.8,126.48c-1.56,21.36-2.28,42.72-2.28,64.2a476.69,476.69,0,0,1-9.48,95.52c-2.52,12.6-.72,23.16,5.16,31.92a3,3,0,0,0,1.56-2.4q7.38-63.54,10.08-128.16c.72-17.52,1.56-35,2.64-52.44,11.88,2.64,23.64.84,35.28-5.28A7.5,7.5,0,0,0,285,265a13.52,13.52,0,0,0-1.2-10.56l-.84-.6-2.64-.48c-10.44,3.24-20.88,6.24-31.2,9,1.32-22,2.76-43.8,4.44-65.52,1.44-18.36,1.92-36.24,1.56-53.88l6.84.72a190.58,190.58,0,0,1,37.32,5.76l.48-.6a8,8,0,0,0,1.44-4.08l.12-.72.12-1.68a16.47,16.47,0,0,0-.84-4.08,1.1,1.1,0,0,0-.72-.48,115.2,115.2,0,0,0-45.6-7.92ZM375,141.84l-46.44-3.6-.12-1.32-.6,1.56-.72.36a4,4,0,0,0-1.44,2,6,6,0,0,0-.24,2.52v.84a7.1,7.1,0,0,0,.12,2.28,73.22,73.22,0,0,0-1,18.12,1141.65,1141.65,0,0,1,1.08,128.16c-2,43.32-5.64,86.28-10.56,128.88-1.32,12.36.24,22.92,4.68,31.8a443.14,443.14,0,0,0,7.2-60l6.12-125.88a77.23,77.23,0,0,0,36.24-1.08,6.43,6.43,0,0,0,1.32-3.24,12.78,12.78,0,0,0-4.32-12.12l-3.84-.36c-9.72,2.52-19.32,4.68-28.92,6.48A722.19,722.19,0,0,0,330,150.12a164.24,164.24,0,0,0,45.6,5.16l.72-1.68a14.66,14.66,0,0,0,.72-3.12l.12-2.52v-.72a13.6,13.6,0,0,0-1.32-4.92A1.93,1.93,0,0,0,375,141.84Z" transform="translate(-65.52 -125.75)"/></svg>