<svg id="Layer_1" data-name="Layer 1" xmlns="http://www.w3.org/2000/svg" viewBox="0 0 476.03 505.44"><defs><style>.cls-1{fill-rule:evenodd;}</style></defs><path class="cls-1" d="M289.8,471l1.32-47.4c14.52-3.24,22.44,3,23.52,18.84C312.84,457.92,304.56,467.52,289.8,471Zm1.56-57.6q-10.08,16.56-8.64,40a237.76,237.76,0,0,1-1.56,44.28,141.91,141.91,0,0,0,1.32,44.52A48.6,48.6,0,0,0,284.4,549a309.12,309.12,0,0,0,5-68.52L301,477.6a184.48,184.48,0,0,0,16.92,68,45.49,45.49,0,0,0,2.4,4.08l-16-73.92a29.74,29.74,0,0,0,11.4-14.52,60.52,60.52,0,0,0,3.36-12.12,34.9,34.9,0,0,0-2.88-21.48,36.26,36.26,0,0,0-15.36-15.84ZM114.6,315q2,37.26,5,73.92,5.22,63,5.76,126.48c.12,11.88,2.4,22.32,6.6,31.2l.6-.6a705.5,705.5,0,0,0,21.6-121q8.82,49.14,16.68,98.28a92.93,92.93,0,0,0,10.32,30.6,32.5,32.5,0,0,0,4.2-13.8q4.86-64.08,13.32-127.44,4.14-31.68,10.32-63a167.14,167.14,0,0,0,2.52-47.4h-.24a159.44,159.44,0,0,0-13.08,60.6l.48-1.68a248,248,0,0,1,4-26.52c-2.52,23.88-5.52,47.64-8.88,71.52Q185.16,469,180.48,531.12c-4.44-20.16-8.4-40.44-12.12-60.72s-6.84-40.68-9.48-61.2c-1-7.08-3.12-11.88-6.6-14.4a10.78,10.78,0,0,0-.84,3.24,1223.07,1223.07,0,0,1-19.2,125.52q-3.6-46.26-4.68-93.6-1.26-47.7-5.76-95.16A148.5,148.5,0,0,0,116,304.44,30.42,30.42,0,0,0,114.6,315Zm59.64-120.72c-3.6,17.16-14.16,26.28-31.68,27.48.6-15.24.72-30.36.6-45.48C158.88,174.48,169.32,180.48,174.24,194.28Zm-31.08-24.84-.12-4.68a302.26,302.26,0,0,0-6,59,285.44,285.44,0,0,1-4.44,50.52A36.56,36.56,0,0,0,133.92,293a36,36,0,0,0,2.16,4.92l6.12-66.48,17.28-3.36a163.25,163.25,0,0,0,14.88,67.08l2,4.08-13.92-73.2c12.12-10,16.68-22.56,13.92-37.8a32,32,0,0,0-9.48-17.52,35.68,35.68,0,0,0-19-2.28ZM264.6,50.64c-3.24,4.92-4.56,11.28-4,19a501.12,501.12,0,0,1,1.8,60q-2,64.62-.36,129.12c1.08,42.84,1.08,85.92.12,129s-1.56,85.68-1.92,128c-2.64,11.28-1.92,21.84,2.16,31.56,4-2.88,5.88-7.2,6-13l2.28-97.44c1.08-42.72,1.2-85.68.12-129q-1.44-64.44-1-129A1260.78,1260.78,0,0,0,264.6,50.64Zm-61.2-1.32-28.08-.84Q97.2,53.34,19,53.28a12.27,12.27,0,0,0-.6,9l.36.72.36.72,1,1c30.12,1.32,60,2,89.88,2l-.12.72q-.54,38.34-3,76.32c-2.76,42.6-4.2,85.32-4.08,128.16,0,43.32-1.2,86.28-3.48,129.12Q95.82,464.58,95,528.48l-.36-.12a41,41,0,0,1-3.48-11.28,14.72,14.72,0,0,0-.24,7.68c1.8,9.72,4.56,17.64,8.4,24q5.22-52.2,6.24-105.6c.84-42.6,1.68-85.32,2.28-128.16q.9-64.8,4.2-129,3.06-60.48,1.92-119.28,45.72-.18,91.08-2.28A15.64,15.64,0,0,0,206,53l-.48-1.68-.72-1.56A2.31,2.31,0,0,0,203.4,49.32ZM353.88,379.56q-23-.72-46.08-.72a25.79,25.79,0,0,0-12.36,3A448.16,448.16,0,0,0,298,330.6q-.54-81.36,4.2-162.72a602.82,602.82,0,0,0,.48-64.2L301.56,87.6c-.84-10.68-1.8-21.24-3-31.8l-.36.12q.18,40.5-.84,81-3.06,114.66-7.2,229.2a83.51,83.51,0,0,0,1,16.44l.84,3.72,1.92,7.08.48-3.48,59.28-.48ZM371.4,73.92c.12,42.84.84,85.56,1.92,128.28q1.62,64.44,4.08,129c1.68,42.84,1.92,85.92.6,129a580.13,580.13,0,0,1-5.52,64.8q-1.62,11.34,2.16,19.08a8.34,8.34,0,0,0,2.52,6.6q57.24-2.7,114.24-2.52a10.82,10.82,0,0,0,2-4.8,15.85,15.85,0,0,0-1.8-11.4l-1.44-.48-5.88-.6-19.92,1a68.63,68.63,0,0,1-14,0c-24.12-2.4-47.16-.48-68.88,5.76a42.73,42.73,0,0,0,.84-11.88l.6-.48c1.32-.36,1.92-.84,1.56-1.68l-1-.24c.48-25.32,1.08-50.76,1.8-76.56,1.08-43.08.72-86-1.2-129.12s-3.12-85.92-3.84-129-2-85.92-4.2-128.28C372.84,63.48,371.28,68,371.4,73.92Z" transform="translate(-17.78 -48.48)"/></svg>