<svg id="Layer_1" data-name="Layer 1" xmlns="http://www.w3.org/2000/svg" viewBox="0 0 524.43 409.32"><defs><style>.cls-1{fill-rule:evenodd;}</style></defs><path class="cls-1" d="M245.4,175.56a105.72,105.72,0,0,1-15.12,48.72C219.6,242.4,205.08,254.4,186.6,260l3.48-31.68q6.48-60.12,10-119c18.36,3,31.32,13.32,39,31A77.51,77.51,0,0,1,245.4,175.56Zm-42-75.84-5.64,1.2-.36,2.4a14.63,14.63,0,0,0,0,3.24l.36,2.52,1.2.12a782.53,782.53,0,0,0-11.76,89.16c-1.56,21-3.36,42-5.4,62.88l-6,1.2-.6.72a11.72,11.72,0,0,0-1.32,6.36,7.33,7.33,0,0,0,1.2,4.08,16,16,0,0,0,5.28,2l-5.88,49.56q-8.28,63.54-17.16,127.08c-1.68,11.4-1.08,22,1.8,31.56a3,3,0,0,0,.84-1.44q8.64-63.18,15.84-126.6l9.12-80.28a14,14,0,0,0,4-1.68,140.79,140.79,0,0,0,14.64-9.72,34.47,34.47,0,0,0,.84,9q9.54,43,17.76,86.16A680.75,680.75,0,0,0,258.6,483.84a1.86,1.86,0,0,0,.84-1.44,150.51,150.51,0,0,0-10.2-50.64A316.42,316.42,0,0,1,234,379.92Q221.58,320,207.36,261.12q30.06-24.66,41.52-64.44c5.88-20.28,4.8-40.2-3.24-60S223.44,104.4,203.4,99.6Zm-9-15.84a741.76,741.76,0,0,0-135.6,1L43.8,86l-1.2,9.12,77.76-.72q-11.7,166.14-19,332.16c-.6,15.24-.72,30.24-.24,45.24a63,63,0,0,0,1.44,11.64l1.8,7.08q8.28-83.34,9.6-169.2c.6-37.44,1.32-74.88,2.4-112.32.36-16,1.32-31.92,2.64-47.88,1.8-22.32,3.36-44.52,4.44-66.72l71.52-.6ZM408.24,334.2,396.72,448.92,349.8,332.28h-1a2,2,0,0,1-1.2-1.08,299.32,299.32,0,0,0-20.28,103.32,461.87,461.87,0,0,0,22-98.28A989.17,989.17,0,0,0,402.6,485.4a615.73,615.73,0,0,0,5.16-87.24C407.64,376.8,407.76,355.44,408.24,334.2ZM373.68,217.32l19-83.52,8.28,82.08Zm21.6-113.64a56.17,56.17,0,0,0-6.12,16.08q-14.22,62.46-28.32,125.16c-2.28,10.44-5.16,20.76-8.4,31-3.84,11.88-3.84,22.44-.12,31.56a46.4,46.4,0,0,0,6-16.08c4.2-22.2,8.64-44.16,13.56-66a77.51,77.51,0,0,0,30.24.48q4.32,33.3,9,66.36a150.72,150.72,0,0,0,7.68,31.44c3-14.4,2-29.4-2.64-44.88a225,225,0,0,1-8.76-44.88l-1.08-10.8a6.35,6.35,0,0,0,.12-3.36l-.36-1.56-.24-.84-.12-.12q-5.22-52.38-10.8-104.4Zm66.24,8.4a197.8,197.8,0,0,1,61.2,47.28q31.68,42.3,37.08,95.76a376.76,376.76,0,0,1-8,126.12c-6.6,28.2-22,50.4-46,66.36a26.45,26.45,0,0,1-10.68,4.32,553.11,553.11,0,0,1-67.2,7.44q5-52.74,9-106.2,4.68-63.9,5.76-128.28l2.16-116.52a23.17,23.17,0,0,0,4.32.72A30.25,30.25,0,0,1,461.52,112.08Zm-109.68,9.6,4.08.12Q339.72,91.74,306.6,109c-10.2,5.4-17.16,13.92-20.76,25.68a559.33,559.33,0,0,0-20.52,95.52q-5,40-7.68,80.16l-.84,16.08-.36,16v16c.12,7.8.36,15.84.84,23.88.84,13.08,2,26.28,3.48,39.36a155.74,155.74,0,0,0,7.08,31.32A59.85,59.85,0,0,0,282,476c10.92,11,23.4,13,37.44,5.88a104.91,104.91,0,0,0,35-28.92c6.84-8.76,9.12-18.12,7.08-28.08q-20,38.52-59.4,42.48c-15.24,1.32-24.6-5.76-28-21.24-2.4-10.92-4.68-21.84-6.84-33-1.56-8.88-2.76-17.76-3.6-26.76l-.84-13.56-.24-13.8.6-20,2-39.6a275.7,275.7,0,0,0,58.8,5.28c2.88-3.48,3-7.32.48-11.4L266,290.88q-3.78-94.68,39.72-174.24c15.6-5.88,30.6-4.56,45.12,3.72ZM444.24,97l-.12.72h-.36l-1.08.6-.6,1.68a15.93,15.93,0,0,0-.36,4.8l.12.72.48,1.44a314.09,314.09,0,0,0-4.92,58.68c.36,42.84-.84,85.68-3.36,128.28q-3.78,64.62-10.08,129L421.32,447c-1.44,12.12.12,22.8,4.56,31.92l.48-5.28.6.36a28.73,28.73,0,0,0,15.6.36l4-.24q35.82,6.12,64.8-13.44a66.42,66.42,0,0,0,18.36-18.24,197.78,197.78,0,0,0,33.72-87.36A394.37,394.37,0,0,0,560,227.76q-12.42-65.7-63-108.12A97,97,0,0,0,447,97.2l-1.92.36v-1C444.6,96.48,444.36,96.6,444.24,97Z" transform="translate(-42.6 -81.24)"/></svg>