<svg id="Layer_1" data-name="Layer 1" xmlns="http://www.w3.org/2000/svg" viewBox="0 0 540.64 471.12"><defs><style>.cls-1{fill-rule:evenodd;}</style></defs><path class="cls-1" d="M313.2,107.4c-7.68-11.64-19.32-15.6-35-11.88-27.24,8.76-46.8,26.76-58.56,53.76a270.34,270.34,0,0,0-19.8,69.84,963.32,963.32,0,0,0-10.2,126.72,555.63,555.63,0,0,0,12.48,127.08q11.16,51.3,59.76,64.08c13.08,3.36,25.08,1.92,36-4.2a83.08,83.08,0,0,0,29.64-28.44c9-14.28,11.4-28.68,7-43.08l-1.32,1-1.2,1.08-.12-.12-.48-.72-.48-.84-.6-.48a4.9,4.9,0,0,0,.24,2.88l.24.84.36.84.12.72a94.13,94.13,0,0,1-23.76,39.12,38.2,38.2,0,0,1-19.92,10.68c-20.16,4-37.92-.12-53.16-12a58.93,58.93,0,0,1-20.76-30,381.37,381.37,0,0,1-16.44-111.36c0-17.88.24-35.76.72-53.52a351.29,351.29,0,0,0,92.64-10.92l.72-.84q4-7.2-.72-13.68a680,680,0,0,1-92.28,14.28l.48-15a375.29,375.29,0,0,1,24.84-120.6c13.8-36.12,40.08-53.88,78.6-53.28a18.19,18.19,0,0,0,6,4.44,6.14,6.14,0,0,0,5,0l1.2-1A7.27,7.27,0,0,0,313.2,107.4ZM263.76,76.32l-1.32-1.68-2.16-.36a176.05,176.05,0,0,0-29.76-1.44Q137.46,79.32,44.16,83A10.33,10.33,0,0,0,42.6,88a29.31,29.31,0,0,0,.24,6.48L43.32,96l.84,1.68,16.44-.84,90.12-4.2c-1.32,13.68-2.16,27.48-2.64,41.52C147,166,146.52,198,146.76,230q.54,64.62-1.8,129c-1.56,43.08-3.84,85.8-6.84,128.4-.84,10.68-1.8,21.48-3,32.16-1.08,9.72.72,17.88,5.52,24.24a1.82,1.82,0,0,0,1.8-1.56,198.89,198.89,0,0,0,4-34.2l4.08-128.16q2.16-64.44,1.8-129.12c-.12-13.56.36-27,1.2-40.44a1073.65,1073.65,0,0,0,1.2-117.84q54.18-1.62,108-.84a7.57,7.57,0,0,0,2.4-4,17.93,17.93,0,0,0-.6-9.72ZM395.52,208c-4,37.56-23,63.36-57,77.4,2.64-35.16,4.08-70.56,4.2-106a647.35,647.35,0,0,1,3.48-64.8,92.5,92.5,0,0,0,0-18.24l1.32-.24a23.08,23.08,0,0,1,14.28,1.2q32.58,14.22,34.92,51.12A339.48,339.48,0,0,1,395.52,208Zm2.64-82q-3.78-25-25.2-38.16a40.37,40.37,0,0,0-33.12-4.68l-1,9.6,2,2.28q-6.3,71.1-8.4,142.92A1251.14,1251.14,0,0,1,319.2,384.72,139.94,139.94,0,0,0,323.64,447a873.37,873.37,0,0,0,13.44-144.84l13.44-5.4Q370.14,370.92,385.2,446q9.18,45.18,27.48,83.4a29.3,29.3,0,0,0,1.8-15.72,33.92,33.92,0,0,0-3-9.12l-.24-9.48-.84,4.68q-20.52-81.9-41.64-163.56c-3.72-14.4-8-28.68-12.72-42.84a72.87,72.87,0,0,0,27.24-32A221.83,221.83,0,0,0,400.8,142.2C400.2,136.8,399.24,131.4,398.16,126ZM552.24,81.24A138.89,138.89,0,0,0,549,128.4c4,42.36,6.36,84.72,7.44,127.32.24,10.92.6,21.84,1.08,32.52q2.88,64.62,10.32,128.16c2.52,21.36,4.2,42.72,4.92,64.2.48,12.12,3.24,22.92,8.4,32.16a2.85,2.85,0,0,0,1.08-1.44A260.64,260.64,0,0,0,580,448.8q-9.72-63-13.2-127.32-2.88-56-4.8-112.08Q560,144.42,552.24,81.24Zm-4.8-1.08a744.46,744.46,0,0,0-23,99.72q-9.9,61-24.24,121.08Q494,254,489.6,206.64,483.66,142.56,473.28,80c-2.16,1.2-3.12,3.36-2.76,6.36a46.21,46.21,0,0,0-4.92,15.36q-9.9,63-14.88,126.6-5.22,64.08-13.32,127.56-8.1,63.72-19,127c-1.68,10,.24,17.64,5.76,22.8a156.29,156.29,0,0,0,6.24-29q5.4-44.28,11.4-88.44,8.64-63.54,13.2-127.56c3-42.6,7-85.2,12-127.56a83.87,83.87,0,0,1,3.36-15.6,57.7,57.7,0,0,0,2.16-8.4L476,148.44q5.94,63.72,14.88,127.08a339,339,0,0,1,3.36,48.12c-.12,10.08,2.64,17.4,8.16,22a19,19,0,0,0,2.28-12.24l-1-6.6c4.56-18.6,8.52-37.8,12-57.6q11-62.82,23.28-125.64c1-5.4,2.16-10.68,3.48-15.84A156.8,156.8,0,0,0,547.92,80Z" transform="translate(-42.53 -72.72)"/></svg>