<svg id="Layer_1" data-name="Layer 1" xmlns="http://www.w3.org/2000/svg" viewBox="0 0 293.29 210.72"><defs><style>.cls-1{fill-rule:evenodd;}</style></defs><path class="cls-1" d="M295.44,293.28c-13.56,7.08-22.44,18.36-26.64,33.6a118.77,118.77,0,0,0-4,45C266.88,392,276.72,401,294.6,399c19.2-2.16,26.52-11.28,22.08-27.24-8,9.6-19.08,14-33.12,13.44l-3-.48a48.59,48.59,0,0,1-9.48-26.4l-.48-7.92,35.88-3.6a11.8,11.8,0,0,0,2.28-8.28,6.8,6.8,0,0,0-2.16-4.44l-1.44-1.32a67.7,67.7,0,0,0-33.6,6.48c1.2-14.64,8.4-24.48,21.72-29.4a34.23,34.23,0,0,1,17-1.68l9.12,4q1.26-8.82-6.84-14.76a24.41,24.41,0,0,0-14.4-4.2ZM266.76,198.6a682.44,682.44,0,0,0-113.28,4.68L153,204a13.32,13.32,0,0,0,1.2,12.24l53.88-3.12c-1.08,41.88-2.64,83.76-4.92,125.64-.6,10.8-1.56,21.6-2.64,32.28-1.32,12.24.24,22.8,4.56,31.8a3.18,3.18,0,0,0,1.44-2.4c2-22.32,3.84-44.76,5.16-67.32A1058,1058,0,0,0,212,212.88c18.36-.6,36.6-.72,55-.48l.72-.84C270,207,269.76,202.68,266.76,198.6Zm103.56,12.72q34.56-6.3,55.32,22.8a35.05,35.05,0,0,1-4.8,29.4c-13.44,20.28-32.28,29.16-56.52,26.4q1.26-39.42,1.44-78.84ZM364,196a392.37,392.37,0,0,0-7.44,92.64h-.6l-.84,1,.72,12.72q-3.6,43.56-4.44,87a11.1,11.1,0,0,0,.48,3.48,34.38,34.38,0,0,0,2.88,6.84,278,278,0,0,0,7.92-63.6l.24-8.52,1-23.64a61.92,61.92,0,0,0,24.84-.72,328.87,328.87,0,0,0,36.12,72.36l1,2.16a67.33,67.33,0,0,0,16.68,29c3.48-4.92,3.84-10.08,1.08-15.6l-.72-1.8a894.64,894.64,0,0,0-48.48-87.84,51.5,51.5,0,0,0,21.48-14.88l1.68-1.92A61.59,61.59,0,0,0,430,262.08l1-4.08a51.57,51.57,0,0,0,1-14.88,50.73,50.73,0,0,0-18.72-35.76,46.07,46.07,0,0,0-9.48-5.88,56.77,56.77,0,0,0-13.8-4.68,33.57,33.57,0,0,0-24.12,3.72Z" transform="translate(-152.06 -195.96)"/></svg>