<svg id="Layer_1" data-name="Layer 1" xmlns="http://www.w3.org/2000/svg" viewBox="0 0 526.6 325.08"><defs><style>.cls-1{fill-rule:evenodd;}</style></defs><path class="cls-1" d="M148.2,161.88a512.24,512.24,0,0,0-.12,86.88q5.22,63.9,4.56,128.16a405.68,405.68,0,0,0,4.2,63.84,2,2,0,0,0,1-1.44l.48-7.56.72-1.56,11-57.36q11.7-63.36,21-125.28l-1,.24q-16,59.76-27.48,122.28l-2.52,13q.18-14.4-.36-28.8c-1.2-43.08-3.24-85.8-6.24-128.4l-4.68-64ZM271,213.72a375,375,0,0,0-9,39.84,348.3,348.3,0,0,0-4.56,40.32L255,337a162.43,162.43,0,0,0,4,46.92,61.7,61.7,0,0,0,24,36.72q16.74,12.42,32-5.4,12.6-14.58,10.8-32.76a129.36,129.36,0,0,0-21.48,24,7.25,7.25,0,0,1-2.52,2l-3.24.48a35.93,35.93,0,0,1-8-.12,18.44,18.44,0,0,1-14.4-8.64q-14.58-22.14-14-50c.36-17.4,1-34.68,2-52a132.83,132.83,0,0,0,43.56-.48l-.36-6.84c-12.84-5.64-26-6.24-39.72-1.8l-2.88,1.08c-2.52-35.4,6.6-65.4,27.12-90.24a20.25,20.25,0,0,1,13-7.32l7.2-.72,6.36,4.92q2.52-4.32-3.6-12.24l-2.52-3.24-13.56-1.08Q277.44,190.86,271,213.72Zm-20.76-30A385.79,385.79,0,0,0,235.32,255q-7,63.54-18,126.48a132.91,132.91,0,0,0-1.92,29.76c-1.2-11.64-2.64-23.28-4.44-34.92-6.12-42.36-11.88-84.48-17-126.6a75.42,75.42,0,0,0-2.52,33.84q8.64,63.36,16.44,126.36,2.34,17.82,9.36,30.6a2.15,2.15,0,0,0,.48-1.56l-1.2-16.68,1.08,6.36q10.8-60.12,17.88-122.4c4.68-42.48,10.8-84.36,18.12-125.76-.36.12-.48.24-.48.36A3.88,3.88,0,0,1,250.2,183.72Zm-67.32-63.84-31.56,3.48q-51.66,4-102.6,11.4a4.83,4.83,0,0,0-1.08,2.4,18.07,18.07,0,0,0,.36,8l.48,1a21,21,0,0,0,13.32.24,116.75,116.75,0,0,1,44.64-3.6A55.92,55.92,0,0,0,124.8,142l1.68-.24q-7.2,57.6-8.88,118.08-1.8,64.44-8.28,128.16l-3.72,32.28c-1.2,9.72.24,17.52,4.44,23.52q4.14-23.94,6.12-48.6c3.24-42.6,5.64-85.32,7.2-128.4.72-21.24,2-42.6,3.84-64a348.78,348.78,0,0,0,0-61.32,335.79,335.79,0,0,1,77.88-5.88l1-1.44a13.26,13.26,0,0,0-.36-11.28l-.6-.84-1.32-.6A29.5,29.5,0,0,0,182.88,119.88ZM388,415.32c-14.52.12-28.2-.12-41.16-.6a217.16,217.16,0,0,0,3.84-26.52c2.28-26.64,3.6-53.52,3.72-80.52l.84-128.28a307.55,307.55,0,0,0-5.64,74.4,642.32,642.32,0,0,1-4.92,111.84A323.2,323.2,0,0,0,342.48,430a571,571,0,0,1,57.12,3.72,14.89,14.89,0,0,0,0-14.52A25.28,25.28,0,0,1,388,415.32ZM394,178a622.3,622.3,0,0,0,12.72,101.88L432.84,405.6c2.4,11.88,6.36,22,11.76,30.24A399.93,399.93,0,0,0,456,390.36q11.7-62.46,22.8-124.8,5.58-31.86,12.48-63.12c2.28-10.2.72-17.52-4.56-22.2Q476.46,233,468.36,286.68,458.82,349.5,443.52,411c-8.88-36.36-17.16-72.72-24.72-109.32Q406,238.86,395.28,176.76A1.07,1.07,0,0,0,394,178ZM541.2,182.4a75.11,75.11,0,0,0-29.64,35A245.81,245.81,0,0,0,497.16,264a374.54,374.54,0,0,0-3.48,127.8,77.54,77.54,0,0,0,21.72,44.4c5.52,5.52,12,6.48,19.44,2.76a100.16,100.16,0,0,0,37.68-32.88l.6-1.56a17.66,17.66,0,0,0-.24-11.4,3.24,3.24,0,0,0-4.08-2.4,19.29,19.29,0,0,0-5,6.24c-9.72,17.88-24.12,26.76-43.44,26.52a29.4,29.4,0,0,1-12.6-15.36,207.41,207.41,0,0,1-10.08-100,188.25,188.25,0,0,0,47.28,1.68l.48-.6a11.6,11.6,0,0,0-.48-13l-45.72,1.56c1.2-7.08,2.16-14.28,2.76-21.48,2.76-30.6,14.76-56.76,36-78.24,11.76-2.4,22.44-1.68,31.92,2.16l.36-1.68a13.53,13.53,0,0,0-2.76-9.84,14.86,14.86,0,0,0-3-3.12l-3.48-1A41.84,41.84,0,0,0,541.2,182.4Z" transform="translate(-47.35 -118.68)"/></svg>