<svg id="Layer_1" data-name="Layer 1" xmlns="http://www.w3.org/2000/svg" viewBox="0 0 483.75 406.08"><defs><style>.cls-1{fill-rule:evenodd;}</style></defs><path class="cls-1" d="M293.88,354.48q.54,65-1.2,128.28a88.05,88.05,0,0,0,38.76,1.8,14.89,14.89,0,0,0,0-14.52l-31.92-1.92v-.84a51.69,51.69,0,0,0-1.32-13l.24-.84a913.13,913.13,0,0,0-.6-128.16A92.21,92.21,0,0,0,293.88,354.48ZM189.12,297.36a363.76,363.76,0,0,0,41.16-.24l.6-1q3.6-7.74-2.52-11.52a82.94,82.94,0,0,0-39.24,4.68l-.24,1.56A13.19,13.19,0,0,0,189.12,297.36Zm-17-34.2a488.14,488.14,0,0,0-10.92,64.68Q154.68,391.2,145.56,454c-3.6-14.28-6.6-28.8-9-43.44A358.39,358.39,0,0,1,132,366.6q-.72-17.1-7.56-28.08a3.18,3.18,0,0,0-.6,1.68A875.73,875.73,0,0,1,113,446.76c0-6.72-.12-13.44-.36-20-2-42.12-3.36-84.36-3.72-126.6-.12-11.76-1.44-22.2-4.08-31.2a224.8,224.8,0,0,0-2.88,51c2.28,42.12,3.84,84.36,4.44,126.48q.18,18.18,5.76,30.6l.48-.84a408.64,408.64,0,0,0,13.68-88.68c4.68,33.48,10.8,66.12,18.12,98.16,5.28-9.36,8.52-20.28,9.72-32.64,4.2-42.36,9.6-84.48,16-126.6a275.46,275.46,0,0,0,2.4-63.36Zm-1.92-159.24-1-1.68-.72-.84-25.32-1.56c-15.24.84-30.6,1.2-45.84,1.08a159.48,159.48,0,0,1-42.6-6c-6-1.8-12-3.72-17.88-5.88l-2,9.72c8.76,7.32,19.44,11.28,31.8,11.88l32.16,1.68q-10.44,88-13.2,176.64c-1.08,32.28-2.64,64.44-4.92,96.48a438.49,438.49,0,0,0,2.52,88.8,36,36,0,0,0,1.8,7.08,222.2,222.2,0,0,0,6-67.08,891.33,891.33,0,0,1,2-131.52q7.74-85,7-170.28a633.46,633.46,0,0,0,69,2.4,12.84,12.84,0,0,0,1.92-6.84l-.24-2.16Zm166,39a1237.84,1237.84,0,0,1-3.24,126.6l-.6-1.68q-5.58-18.54-9.72-37.44a1023.62,1023.62,0,0,0-34.68-121.56.91.91,0,0,0-.72,1,212.41,212.41,0,0,0,6.48,41.76q16,61.74,29.76,124.2c2.52,11.52,6.72,21.48,12.6,29.76a2.77,2.77,0,0,0,1.44-2.4v-2.4a585.9,585.9,0,0,0,4.68-58.8c1.32-43.32,1.44-86.16.12-128.28C337.8,121.68,335.76,131.52,336.12,142.92ZM221.88,107.4a13,13,0,0,0-4.2,2.64c-13.32,13.2-21.36,29.4-24.36,48.6a961.2,961.2,0,0,0-11,129.24c-.72,41.64-.84,83.4-.36,125a140.19,140.19,0,0,0,14.76,61.68c16.44,13.56,33.84,14.88,52.44,4a82.2,82.2,0,0,0,24.6-22.32c8-10.92,8.76-20.4,2.28-28.44l-1.2,1.68-3.12,5.28a8.62,8.62,0,0,1-3,3.24c-.84.6-.72,1.32.48,1.92l-5.88,7.8C252.12,462,237.84,469,220.2,468.6a18.15,18.15,0,0,1-14-6.48c-12.6-15.24-19.08-33.36-19.32-54.6-.36-32.28,0-64.44.84-96.6q1.8-63,8.16-125A137.91,137.91,0,0,1,217.2,124.2c20.28-6.24,37.08-2.28,50.16,11.88,1.8-6,.48-11.64-4.2-16.92a45,45,0,0,0-10.44-8.76l-2.52-.48A101.34,101.34,0,0,0,221.88,107.4Zm63.84-.48a736.74,736.74,0,0,0-9.12,99.84A512.89,512.89,0,0,1,271,270.6c-1.92,12.12-.84,22.8,3.36,31.92a131,131,0,0,0,6.48-34l1.8-34.2q3.06-64.44,3.6-127.44Zm86.52,263.76a77.78,77.78,0,0,1-21,5.76c-.12-16-1-31.56-2.52-46.68a81.84,81.84,0,0,0,22.2-1.56,4.63,4.63,0,0,0,2,1.32l2,.36.6-.72c4-8.28,1.8-13.8-6.6-16.32a84.16,84.16,0,0,0-25.44,5.88l-.84,4.08a7.59,7.59,0,0,0,1.92,6.48l2.16.24q-2.16,45.18-3.72,90.36a288,288,0,0,1-2.88,32.28c-1.8,12.6-.24,23.16,4.8,31.68a864.62,864.62,0,0,0,6.24-95.52c9.24,2.52,18.72,1.8,28.32-1.92a9.19,9.19,0,0,0,2.64-5.64,12.88,12.88,0,0,0-2.88-9.84ZM446.16,151a912.17,912.17,0,0,0-3.6,108.84q1.62,64.8-2,129c-1.2,21.72-3.24,43.2-6.12,64.68-1.56,12.24-.12,22.92,4.44,31.92A895.37,895.37,0,0,0,448,394.56q2-42.66,2.28-85.44l1.08.12,1.32-.84.84-.72,46.8-5.16c-1.56,39.72-4.08,79.32-7.32,118.92a278.27,278.27,0,0,0,1.92,64.2c.84-.24,1.2-.48,1.32-.84q5.94-58.14,9.36-116.76c1.32-22.08,2.28-44.16,3.12-66.36l6.24-.48.72-1c4.32-6.48,3.84-11.88-1.56-16.32l-4.68.24,1.2-44.4c1-43.32.36-86.16-1.68-128.28a201.54,201.54,0,0,0-6.36,52.8q.36,60.3-1.68,120.72a279,279,0,0,0-50.52,10.08l-.24-29.64q-.72-64.8-.72-128.28A39.54,39.54,0,0,0,446.16,151ZM457.92,101a5.5,5.5,0,0,0-1.68-2.52A74.82,74.82,0,0,0,411,94.92c-13.2,3.24-26.4,6.12-39.6,8.88l-13.2,2.76-.6,10.56a128.62,128.62,0,0,0,44.28-4.68,63,63,0,0,1,8.52-1.56q-6.12,164.34-14,328.56a114.88,114.88,0,0,1-3.6,23.88c-3,11.88-1.2,22.44,5.52,31.8a2136.55,2136.55,0,0,0,12.6-215c.36-32.28,1.56-64.56,3.84-96.84a407.57,407.57,0,0,0-1.68-72.6,195.56,195.56,0,0,1,44.28,1.68,17,17,0,0,0,1.44-5.76A12.41,12.41,0,0,0,457.92,101Z" transform="translate(-34.8 -89.04)"/></svg>