<svg id="Layer_1" data-name="Layer 1" xmlns="http://www.w3.org/2000/svg" viewBox="0 0 578.01 592.32"><defs><style>.cls-1{fill-rule:evenodd;}</style></defs><path class="cls-1" d="M386.64,542.28q-32.4-2-10.56,25a25.37,25.37,0,0,0,11,8c-10.8,7.44-22.2,7.44-34.08,0l-.72,8.88c11.64,11.16,22.56,11.28,32.64.12,7.32-8,6.24-15.84-3.12-23.16-3.84-3-7.8-5.88-11.76-8.64l17-4.08Zm-14.4-23,6.6-9.48q4,22.32,20.52,31.32l-18.6-34.68,8-26.64c-9.84,12.36-15.36,25.32-16.68,38.88Zm-1.56-35.16-1.32-2.52a260.43,260.43,0,0,0-5.16,52,12.93,12.93,0,0,0,1.92,7.2,99.51,99.51,0,0,0,3.72-36.6l-.48-5.4ZM125,492.48A20.48,20.48,0,0,0,136.92,494q25,14.94,2.88,34.92a54.87,54.87,0,0,1-14.4,3.48Q126.12,512.46,125,492.48ZM176.52,593a172.39,172.39,0,0,0-28-49.68l-5.28-6.48a34.54,34.54,0,0,0,10.44-19.2q4.14-22.14-16.56-31.68l-1.92-.84-11.88,1.56a221.62,221.62,0,0,1-5,49c-4.08,18.48-3.6,35.16,1.56,50l5-44a22,22,0,0,0,12.12-1.2l3.48-1.56a375,375,0,0,0,35,55.8ZM267.6,428.88A122.83,122.83,0,0,0,259,448.44c-3.48,10.68-6.72,21.36-9.6,31.92a11.48,11.48,0,0,0,.12,6.36l17.28-44,8.64,45.48,15.72-39.6c1.08,6.36,1.8,12.6,2.4,18.84a40.09,40.09,0,0,0,8,21.12c1.8.12,2.28-1.2,1.68-3.84-4.08-16.92-7.68-34.2-10.8-51.72L277,474.36Zm80-100.32,4.68,2.64c8.76,15.6,4.44,27.72-13.2,36.24a22,22,0,0,1-5.4,2l1.08-40.68Zm-6.72-7.08L334.68,323c-3.72,11.16-6.12,24-7.44,38.52q-1.8,20.34-2.88,42.48a102.38,102.38,0,0,0,1.8,26.16l7-52.56,10.44-3.48q3.6,34.92,24.84,59.52l-23-60.6c12.36-9,17.64-21.12,16.08-36.24-.84-8-5.4-12.84-13.68-14.52ZM320.4,218l-10.92,94-.24-1.08c-6.84-32.4-13.8-64.56-21.12-96.6h-.36A999.14,999.14,0,0,0,271.08,326c1,.12,1.56-.48,1.8-1.56q9-47.7,15.48-95,6.3,37.62,13,75c1.68,9.6,4.68,17.4,9,23.28a275,275,0,0,0,7.32-42.24c1.44-14.28,3.24-28.56,5.52-42.84,1.68-10.2,1.32-19.56-1.2-27.84A5.19,5.19,0,0,0,320.4,218ZM109.56,375.84a186.33,186.33,0,0,0,13.8,56.76l10-21.36,13.8,23a261.54,261.54,0,0,0,14.64-36.12,36.49,36.49,0,0,0,0-22.08l-15.12,46L132,399.84l-8.88,21.48ZM113,97.2l-7.8-46.32A173.64,173.64,0,0,0,109.32,95l3.48,14L125.28,79l12.36,35.76q7.74-11,14.4-22.68a64.36,64.36,0,0,0,8.4-33.48l-.24-3.84L137.4,102.6,124.68,66ZM148.8,8.64q-67,3.42-133.92,11.16c-2.28,4.68-1.92,9,.84,13l66.24-5A410.32,410.32,0,0,0,78.72,88Q80,152.76,82,217.08c.6,21.6.6,43.2-.12,64.8q-2,64.26.36,129.12a1159.34,1159.34,0,0,1-2.52,129.12c-.6,8-1.44,16.08-2.52,24-1.44,10.56.48,18.12,5.88,22.8,2-18.12,3.6-36.48,4.44-55.2Q90.72,466.92,89,402.6c-1.08-43.2-1.32-86.16-1-129q.54-64.8-1.56-129.12-2-59-2.76-116.88l65-3.84.6-.6A13.52,13.52,0,0,0,148.8,8.64ZM259.2,164l23.28-18.84,12.48,23L287,141.36c12.12-6.12,19.32-15.24,21.48-27.6l.24-3.12-24.84,24.12L270,114.6c-1.08,8.76,1.92,17,9.24,24.6l-20.88,18.24Zm-4.44,7.68-.48,13.92,13.8,16.08c-3.48,6.12-10,8.4-19.2,6.6l-5.52-3.72-1.2,8.88q18,10.26,26.28-7.92c3.48-7.44,1.68-13.44-5.4-18.12a12.1,12.1,0,0,1-6-9.48,19.74,19.74,0,0,1,13.8,1.8,3.72,3.72,0,0,1,1.56.72Q274,172.74,267,170a15.1,15.1,0,0,0-9.48-.6ZM244.32,55.8l-.6.36A195.18,195.18,0,0,0,240.24,108a53.16,53.16,0,0,0,17.4,1.92,46.31,46.31,0,0,0,10.8-1.92l-.36-7.32L243,99.36A151.59,151.59,0,0,0,244.32,55.8Zm52.56-2.88-4.44,1.2v58.2l2.76-30.6,19.44.84-.24-7.68L303,73.32l-7.56,2.76.6-16.8,16.44-1.08-1-6.24a24.33,24.33,0,0,0-10.2-.24Zm21.36-12c-1.2-20.64-13.08-30.84-35.76-30.6-23.52,2.28-42.6,13.2-57.12,33a138.44,138.44,0,0,0-26.28,64.32l-7.92,55.8a707.83,707.83,0,0,0-6.36,126.84c1.56,42.84,4.56,85.56,8.76,128.16a667.73,667.73,0,0,0,25,127.32,39.2,39.2,0,0,0,8.4,15.12c17.16,19.32,39.48,26.16,67.2,20.28a27.31,27.31,0,0,0,11.4-5.16,103.54,103.54,0,0,0,28.32-32.88q18-33.3-.48-64.44c5.16,20,1.68,39.24-10.2,57.84a58.74,58.74,0,0,1-13.08,14.64c-19.68,15.72-42,17.88-67,6.24a22.07,22.07,0,0,1-8.52-7,131.93,131.93,0,0,1-22.68-53.88q-11.52-63.36-17-127.68a913.17,913.17,0,0,1-3.36-96,296.86,296.86,0,0,0,54.12-11.16l.48-1a11.45,11.45,0,0,0-.24-11.28l-.72-.84-1.08-.72q-25.92,6.66-52.2,12.6l.72-19.92c2-42.24,6.12-84.24,12-126a131.65,131.65,0,0,1,19-52,80.17,80.17,0,0,1,43.32-34.32q32.58-11.16,51,13.32ZM549,319.8l-.24,7.32,26.76-2.4v-8.28Zm-4.32-11.52a116.31,116.31,0,0,0,.48,44.16c4,20,14.88,27.48,32.52,22.2,10.2-2.88,14.64-9.84,13.56-21-5,8.28-12.36,13.2-21.84,14.52-3.72.48-6.72-1-9-4.2q-22.14-30.6-8.76-66.24c4.2-11.4,12.36-17.4,24.36-18.24l8.4,8.76a5.28,5.28,0,0,0,.84-6,57.91,57.91,0,0,0-3.6-6.6L580.08,273l-11.88-3.48C555.36,278.88,547.56,291.84,544.68,308.28ZM413.16,382.56a17.71,17.71,0,0,1,13.56.12q21.24,8.64,10.8,28.8a3.82,3.82,0,0,0-3.24,3.24,115,115,0,0,1-19.08,7.2,179.93,179.93,0,0,0-3.48-37.08Zm-.6-7.8a13,13,0,0,0-3.48,7.68c-.36,3,.12,4.2,1.44,3.72l-.72,37.08-1,1.92a9.39,9.39,0,0,0-.6,4.08,2.62,2.62,0,0,0,1.2,2.52A117.83,117.83,0,0,0,411,490.32l3.84-57.72c10.44-1.08,18.48-6.24,24.12-15.24,7.56-12.12,7.2-23.64-1-34.56a36,36,0,0,0-11.64-10ZM369,60.12l-43.8-1.56L325,64.44l22.92,1.68q-6.66,75.06-8.16,150.48a423.13,423.13,0,0,0,2.52,55.08,849.59,849.59,0,0,0,6.36-112q-.18-46.8.12-93.6l20-.36ZM362.52,4.56c-16.68.24-23.4,10.56-20.4,30.84a32.16,32.16,0,0,0,8,17q9.36,4.86,15.84-1.8a8.23,8.23,0,0,0,2.28-6.24c-8,3.48-15.12,2.16-21.48-3.84-4.68-16.56.12-25.8,14.4-27.84l.36.72a.61.61,0,0,0,.6.48l3.12-.12a3.88,3.88,0,0,0,.84-2.64A8,8,0,0,0,362.52,4.56Zm56,47.52c.84-15.72,1.56-31.44,1.92-47.16L420,4.08l-.84-1.68a128.72,128.72,0,0,0-4.56,34.92c0,5-.12,10.08-.48,15.12L389.28,54.6c.72-16.2,1-32.28.6-48.36-2,2.88-3.12,6.72-3.24,11.4a334,334,0,0,1-2.76,39.48,170.73,170.73,0,0,0,.6,51.36l.48-.84c1.8-15.72,3.24-31.44,4.08-47.16A75.57,75.57,0,0,0,413.4,61.8L412,74.4c-2,15.48-1.92,29.88.6,43.32l.6-.84c2-18.6,3.6-37.08,4.92-55.68l4-.84.36-.84Q424,54.3,419.88,52Zm108.36-2Q530.16,11,488.16,6.72c-19.32,7.8-32.28,21.6-39.12,41.52a142.21,142.21,0,0,0,3,101.16q25.38,61,46.92,123.84a610.28,610.28,0,0,1,28,118.8c1.92,14.76,4.08,29.64,6.6,44.4a244,244,0,0,1-2.76,93.72,50.39,50.39,0,0,1-11.28,22.44q-24.12,27.54-59.28,20.52c-12.12-8.76-18.12-20.88-18-36.6.12-9.12-1.92-16.32-6-21.6a44.63,44.63,0,0,0-3.6,17q-.9,37.44,26.88,59c14.76,4.44,29.28,3.12,43.32-4a45,45,0,0,0,20.28-19.2q24.12-43.38,20.4-94.32c-1.32-18.84-2.76-37.56-4.44-56.16A599.08,599.08,0,0,0,514.56,294a879,879,0,0,0-46.2-118.32A245.56,245.56,0,0,1,448.2,113.4q-8.28-45.54,21.6-79.8c6.24-7.2,14-10.68,23.4-10.32A28.25,28.25,0,0,1,512.88,32a73,73,0,0,1,13.68,18.84A1.6,1.6,0,0,0,526.92,50Z" transform="translate(-13.38 -2.4)"/></svg>