<svg id="Layer_1" data-name="Layer 1" xmlns="http://www.w3.org/2000/svg" viewBox="0 0 497.7 421.11"><defs><style>.cls-1{fill-rule:evenodd;}</style></defs><path class="cls-1" d="M213.24,75.48l-85.56-1.92q-48.24,3.78-96.84,4.68a3.35,3.35,0,0,0-1,2.4l-.12,1.68V83l.24,2.4a13.71,13.71,0,0,0,1.08,3.12l.84,1q50,0,100,.48-3.6,33.3-5.4,68.52c-2.28,42.84-4,85.92-5.28,129.12-1.32,42.6-2,85.44-2.4,128.28Q118.62,449,120.6,480a1.64,1.64,0,0,0,2-1.68c1.56-37.32,2.64-74.88,3-112.68q.72-64.62,3.12-129.24c.36-10.8,1.08-21.6,1.92-32.28A1136.35,1136.35,0,0,0,133.8,90q41.76.18,83.4,1A7.84,7.84,0,0,0,219.72,86V82a12.66,12.66,0,0,0-1.92-5.52l-.84-1ZM349.08,91c12.72,6.24,18.84,16.44,18.24,30.48Q365.7,156,337.44,167.28q3.42-38.34,5.52-76.56Zm-65.52-10.2a72.43,72.43,0,0,0-37.08,21.36,156.41,156.41,0,0,0-39,74.64A671.64,671.64,0,0,0,192.6,299.88q-.9,32.22,1.08,64.08Q198.54,439,256.2,486.12c12.6,10.44,25.92,11.28,40,2.76a177.08,177.08,0,0,0,43.56-37.32c8-9.48,8.76-17.88,2.28-25.2-5.88,8.88-12,17.64-18.48,26.16-14,18.6-32.16,27.12-54.36,25.32a128.63,128.63,0,0,1-31.68-25.2,92.92,92.92,0,0,1-16.68-25.92Q194.7,366.78,197.4,300l.84-18.84.36-.24a4.57,4.57,0,0,1,2.64-.84,234.47,234.47,0,0,0,85.32-13.32l.6-.84a10.38,10.38,0,0,0-1-11.28L251,264.36a36.74,36.74,0,0,1-16.92.72c-14.16-2.64-26-.24-35.52,7.2l1-20.16A285.7,285.7,0,0,1,231,135.72a83,83,0,0,1,26.16-30c22.32-15.72,44.16-16.32,65.64-2l-.36-1.56-1.08-2.64-.24-.72-.24-.84-.72-.84C313,85.8,302.52,79.92,289,79.32Zm119.28,2a576.39,576.39,0,0,0-4.32,65.76q-.54,64.08-2.4,128.28c-1.2,43.08-2.76,86-4.68,129.12-.48,10.68-1.2,21.48-2.28,32.28a206.16,206.16,0,0,0,1,48.84c4.68-4.2,7-10.2,7-17.88q.54-64.26,3.6-128.28c2-42.84,3.48-85.92,4.32-129C406,168.6,405.24,125.64,402.84,82.8Zm-30,44.64c2.4-16.92-3.36-30.24-17.28-39.84a46.05,46.05,0,0,0-9.24-5L340.8,85.2l-8.88,83.88-2.16.6,1.32,7.44a368.1,368.1,0,0,0-8.52,97.56,501.73,501.73,0,0,0,14-97.8L349,171.12q13.86,63.72,29,120.6a644.83,644.83,0,0,0-25.68-123.6A69.08,69.08,0,0,0,372.84,127.44ZM424,182.88q9.72,31.14,17.28,62.76c7.2,30.6,15.72,61,25.56,90.84,3.48,10.32,6.6,20.88,9.48,31.68Q493,429.18,507,490.32c1.44,1.44,2.88,1.44,4.44,0A19,19,0,0,0,513,477.24q-14.94-62.46-32.88-123.72l-9-31.68q-15.48-57.78-33-114.72-18.9-61-34.2-122.64c-1,15.12.84,31.2,5.4,48.36C413.88,149.52,418.8,166.2,424,182.88Zm102.72-93.6c-3,34.32-5.28,68.88-7.08,103.68-2.28,42.6-3.48,85.44-3.84,128.28s-1.92,85.44-4.8,128.16c-.84,12.12.84,22.68,4.8,31.68a179.08,179.08,0,0,0,4.08-39l-.24-96.48q-.54-64.44,4-128.4c3-43.08,4.2-85.8,3.84-128.16C526.92,88.92,526.68,88.92,526.68,89.28Z" transform="translate(-29.76 -73.56)"/></svg>