<svg id="Layer_1" data-name="Layer 1" xmlns="http://www.w3.org/2000/svg" viewBox="0 0 563.47 521.24"><defs><style>.cls-1{fill-rule:evenodd;}</style></defs><path class="cls-1" d="M403.08,460.08q-7-1.62-14-2.52a14.3,14.3,0,0,0-10.8,2.4l.24,8.88,2.76.12-4.08,33.84-5.4-.36a17.88,17.88,0,0,0-1.44,7.92,6.78,6.78,0,0,0,2.88,5.28,13,13,0,0,0,3.6,1.92c-4.92,18.72-4.2,35.88,1.92,51.6L383.28,518c14.88,0,25.56-6.36,32.16-19.2,5.28-10.44,5-20.4-.72-30.12A17.94,17.94,0,0,0,403.08,460.08Zm10.56,21.24c-2.16,12.84-10.92,19.68-26.28,20.76l-3.6.36-.12-33.36a61.12,61.12,0,0,1,28.92,9ZM155.76,78.24a2.82,2.82,0,0,0-1.44,1.92L154,83.4a14,14,0,0,0,.48,3.84c-2.52,16.8-4.68,34.2-6.36,52.08-4,42.6-8.28,85.2-13.2,127.56-2.52,21.36-5.88,42.6-10.32,63.6q-3.78,18,2.52,31.32A97.86,97.86,0,0,0,134.76,331c4-42.6,8.76-85,14.28-127.32l2-16.92c3.84,2.4,8.28,2.76,13.32,1l1-.36q11,57.42,26.4,114.24a304.11,304.11,0,0,1,7.08,31Q201.9,350,209.64,362a11.19,11.19,0,0,0,2-8,338.27,338.27,0,0,0-10.56-52.44q-16.56-58.32-31.32-116c21.24-9.12,32.52-25.92,34.08-50.28,2.28-33.48-13.68-52.56-47.76-57V76.8l-.24,1.44ZM333.6,63.6a578.47,578.47,0,0,0-9,60.84q-4.5,47.7-7.8,95.76c-.84,12.24,1.32,22.8,6.24,31.68l4.2-60.84C330,148,332,105.48,333.6,63.6ZM190.92,153.84c-9.12,13.08-21.72,19.32-37.68,18.72l3-84.84c16.44,1.32,28.68,9,36.72,22.92C201.48,125.28,200.88,139.68,190.92,153.84Zm-10.2-94.56c-24.84.24-49.8.84-74.64,1.8a429,429,0,0,1-88.8-5.88l-1,.6-.6.72-.24.84-.36.84-.24,1.56v4.08A7.42,7.42,0,0,0,16,67.08a62.61,62.61,0,0,0,13.8,3.12c22.68,2.52,45.6,4.08,68.52,4.92a75.77,75.77,0,0,0-1.8,15.24Q94.86,154.62,95,219.48q0,64.44-5.52,128.16c-3.72,42.84-5.88,85.8-6.72,129.12-.36,21.72-1.68,43.32-3.72,64.8q-1.44,14.58,5,23.4a3,3,0,0,0,1.8-2.4Q89.16,506,91.2,448.92q2.34-64.26,6.36-128.4,3.78-64.26,4.92-128.88.9-58.68,0-116.4c26.16.84,52.44.72,78.72-.6a6.52,6.52,0,0,0,2.16-4l.12-.84.12-.84.12-.84-.12-1.56-.48-4.08A4.28,4.28,0,0,0,180.72,59.28Zm93.6,34.8q8.1,63,17.64,125.76,5.22,32.94,11.28,65.88l-15.36-.48a224.65,224.65,0,0,0-54.6,5.88l10.2-50.28q12.42-63,22.92-126.12a180.86,180.86,0,0,1,7.32-28.8C273.84,88.56,274,91.32,274.32,94.08Zm1.8-28.2a19.92,19.92,0,0,0-2.28-5.76,50.73,50.73,0,0,0-6.84,17c-4.2,19.56-8.28,39.36-12,59.16l-23.88,125.4L225,293.28h-.48a13.1,13.1,0,0,0-.48,4.8q-9,44.64-18.72,89-13.86,63-26.88,126.12a134.13,134.13,0,0,1-10.32,31c-4.68,9.84-4,17.64,2.28,23.52a413.79,413.79,0,0,0,22-76.2q12.06-62.82,25.32-125.4L231.12,302l74.76-3c3,15.36,6.24,30.72,9.6,46Q329.16,407.46,340,470.28q5.58,31.86,9,63.72c1.32,12.12,4.8,22.44,10.32,31a1.54,1.54,0,0,0,1.32-1.56,334.86,334.86,0,0,0-6.12-61.2q-12.24-62.64-24-125.52t-24-125.4q-12.24-62.82-20.4-126.36l-8.52-63.24ZM576.6,374.4c4.56-13.08.24-22.68-13.08-28.68a27.6,27.6,0,0,0-10.44-2.28Q516.54,387.9,545.52,441a197.79,197.79,0,0,1,21.84,63.72,64.43,64.43,0,0,1-2.28,30.6,74.91,74.91,0,0,1-9.84,20.16,31,31,0,0,1-21.72,2.16c-2.52-6.36-6.6-10.56-12.36-12.72-4.92,14.52.6,24.48,16.68,30.12,8.52,3,15.84,1.2,22.2-5.52a32.44,32.44,0,0,0,7.8-14.16,166.16,166.16,0,0,0,5.28-33.6A151,151,0,0,0,568.2,475a400.87,400.87,0,0,0-20.76-59c-7.44-16.92-8-34.08-1.92-51.72l7.32-5.64,10.8-.24,4.32,1.92,4.8,12ZM385.92,403.56,389.4,417l24.84,32.16a4.51,4.51,0,0,0,.48-5.4q-11.7-22.32-25.2-43.56A110.15,110.15,0,0,0,404,386.76a29.17,29.17,0,0,0,5.88-9.6,28.42,28.42,0,0,0,1.56-14.52L373.92,403.8l2.4-33.84a171.18,171.18,0,0,0-9.36,34.8,169.14,169.14,0,0,0-1.8,36.48,2,2,0,0,0,.84,1.2c.84.36,1.44.12,1.56-.6A214.79,214.79,0,0,0,372.72,414Zm10.08-140c-12.12-12.36-24.84-10.2-38.16,6.24-10.2,12.6-14.4,27-12.72,43.32,1.68,16.56,9.84,28.8,24.48,36.84a39.15,39.15,0,0,0,28.08,3.48,25.05,25.05,0,0,0,9.72-14.52c.6-2.52,0-4.56-1.92-6-8,6.84-17.16,8.88-27.24,6.36a37.08,37.08,0,0,1-19.44-11.76c-9-10.44-10.8-22.44-5.28-35.76,7.32-17.52,20.4-25.2,39.36-23l2.52-1.92ZM514.68,177c-.84-15-9.72-21.48-26.52-19.56-12.72,7.56-19.32,19-19.92,34.2-.48,12.36-1.2,24.48-2.28,36.6q-5.4,63.9-9.84,128t-8.28,128.28a390.76,390.76,0,0,0,1.32,61.56q3.6,33.66,37.32,25.32A101.5,101.5,0,0,0,509.76,535l13.8-36.84c4-10.2,2.88-18.48-3-24.6l-14.64,46.2-2.4,7.8c-6.12,19.8-18.72,29.4-37.92,28.8a41.58,41.58,0,0,1-4.2-5.88c-7.68-12.72-10.8-27.36-9.48-43.8q5.4-64.08,9.84-128.16l1.32-19.92a259.89,259.89,0,0,0,41-2.16l.6-1c2.76-4.8,2.4-9.12-1-12.84-13.32.84-26.64,2.16-40,4.08q3.06-48.06,5-96.36c.48-10.92.72-21.72.6-32.52q-.18-29,18.36-47.88c10.68-.6,19.44,2,26.52,7.92ZM353.16,205.08a183.1,183.1,0,0,0-2.52,54.48l.6-.72a562.51,562.51,0,0,0,13.8-107Q358.38,177.36,353.16,205.08Zm14.76-52.68L365.28,155l.72,6.84c13.8-3.72,23.88.36,30.36,12.24-3.72,9-10.92,13.8-21.6,14.16l-7.32-.48-1.2,10.2c13.56,4.92,23,.48,28.56-13.32,7.08-17.28,1.68-27.84-16-31.68A33.13,33.13,0,0,0,367.92,152.4ZM352,64.08l.36,6.6,39.12-3.6A226.42,226.42,0,0,0,388.8,148a316,316,0,0,0,5-81l31.8.12-1-7.56a227.2,227.2,0,0,0-53.4,1.56ZM467.76,75a13.89,13.89,0,0,0,5,2.88l-.6-12.36L461.64,58.2c-16.56,1.2-27,11.16-31.44,29.88a99.65,99.65,0,0,0,0,46.08,192.22,192.22,0,0,0,14.88,41.16,127.87,127.87,0,0,1,12.24,43c2,19.08-5.28,29.28-21.84,30.6-18.36,1.44-27.36-7.44-26.76-26.76a9.46,9.46,0,0,0-4.2-8.4q-6.3,23.94,8.64,44.28c6.24,8.64,14.64,12.12,25.32,10.32,12.48-1.92,20.16-9.48,22.92-22.68a73.49,73.49,0,0,0-2.76-41C450.12,181,442.56,157,436.08,132.84Q425.28,92.7,457,73.68C460.44,71.52,464,72,467.76,75Z" transform="translate(-14.88 -55.2)"/></svg>