<svg id="Layer_1" data-name="Layer 1" xmlns="http://www.w3.org/2000/svg" viewBox="0 0 505.41 435.02"><defs><style>.cls-1{fill-rule:evenodd;}</style></defs><path class="cls-1" d="M269,283.92l25.92-153,18.84,149.4A122.77,122.77,0,0,0,269,283.92Zm-109.32,3.6a49.1,49.1,0,0,1,17.76.12,30.66,30.66,0,0,1,12.24,20.52q6.12,40.5-31.44,55.8C159.6,338.4,160.08,312.84,159.72,287.52Zm-.24-10.44-.12-3.24-2,4.08-2.88,1.56.84,9Q145.74,391.08,145,492.84a11,11,0,0,0,.6,3.36A1185.52,1185.52,0,0,0,157.44,376l14.76-7.56a466,466,0,0,0,28.56,122.4A520.32,520.32,0,0,0,174.6,366.72c14.16-10.68,21.72-25.08,22.68-43.08l.24-8.88-.24-4.68-.36-3.6-.48-3.48a33.45,33.45,0,0,0-4.56-11.88A34.71,34.71,0,0,0,170.28,275a10.1,10.1,0,0,0-6.24.48l-2.76,1ZM216.72,95c-14.76-2.16-29.52-4-44.52-5.52a283.91,283.91,0,0,0-44-.24l-43.44,3C70.44,93.84,56,95.64,41.64,97.92l.48,10.2a17.87,17.87,0,0,0,9.36,1.32c19.08-2.76,38.28-4.56,57.48-5.64l19.08-.72c-3,44-4.68,88.32-5,132.6q-.36,48.42-1.92,96.84l-2.76,96.12c-.6,22.08-.48,43.8.36,65.28l.12.24c1.68.84,2.76.12,3.24-1.92l1.68-6.84a49,49,0,0,0,.84-7.2c.6-43.8,1.32-87.72,2.16-131.52q2.34-121.86,6.12-243.72l83.88,3.36Zm79.56,7.08L296,95.76l-.6.12a1090.82,1090.82,0,0,0-22,112.56q-5.58,38.52-12,76.92l-.72.12A8.88,8.88,0,0,0,258.6,292l.24,2.4.6,2.52h.12l-6.84,37.68Q241,398.1,223.8,460.92c-3.24,11.64-2.76,22.08,1.32,31.56a18.32,18.32,0,0,0,6.24-11.64q6.3-43.2,15.84-85.92c7.32-32.64,13.8-65.4,19.68-98.28l48.6-1.68c4.68,40,8.52,80.16,11.64,120.36,1.56,18.36,2.64,36.84,3.36,55.2.48,12.24,3.6,22.56,9.36,31.08a4.87,4.87,0,0,0,2.52-3.72,105,105,0,0,0-.48-23.76q-8.82-63.36-14.4-127.2-5.76-63.54-15-126.48Q303.12,157.08,298.2,93.6c-.6.12-.84.24-.84.36Zm63.24,186A746.09,746.09,0,0,0,353,395q.18,32.4-1.8,64.8c-.84,12.6,1.08,23,5.64,31.56q3.42-36.54,3.24-74.76-.36-65,.48-129C360,287.4,359.64,287.52,359.52,288.12ZM463.92,101Q441.42,161,413.4,217.8c-7.08,14.4-14.64,28.44-22.44,42.12a76.33,76.33,0,0,0-8.4,20.64c.72-40.44,2-81,4.08-121.44,1.08-22,1.92-43.32,2.4-64.08a1.41,1.41,0,0,0-1.92,1.32,707.2,707.2,0,0,0-10.2,99.84c-1.32,42.6-2.16,85.44-2.28,128.28a1250.45,1250.45,0,0,1-7.32,129l-2.28,16c-2,12.84-.12,23.4,5.88,31.68l.48-.84a206.74,206.74,0,0,0,3.36-46.8c1.68-20.76,3-41.52,4.08-62.28,1.56-29.16,2.64-58.32,3.36-87.72l.36,2L403.2,260a129.79,129.79,0,0,0,4.56,30Q424.5,351.78,436,414.48c4.8,26,8.64,52.08,11.4,78.36,1.32,12.12,4.92,22.32,11,30.72a3,3,0,0,0,1.68-2.4A91.75,91.75,0,0,0,459,490.92L434.28,366q-11.7-58.14-26.64-115.44c8.4-18.36,16.92-36.72,25.56-55.32,9-19.32,17.16-39.12,24.48-59.16a143.08,143.08,0,0,1,10.08-21.24c5.16-8.76,5.88-16.56,1.92-23.16A28.07,28.07,0,0,0,463.92,101Zm82.92,23.4c1.56-14.28-5.64-24.12-21.6-29.28a25.71,25.71,0,0,0-12.72-.72q-46.08,50.94-48.72,122.4a276.49,276.49,0,0,0,2.4,48.84,58.19,58.19,0,0,0,19.44,35.16A20.56,20.56,0,0,0,502,305.76c13.32.12,24.48-4.8,33.6-14.64A36.93,36.93,0,0,0,546,261.84a69.77,69.77,0,0,0-1.08-7c-5.88,1.56-7.56,3.12-4.8,4.68-4.2,15.12-16.08,24.48-35.52,28.2A22.8,22.8,0,0,1,490,285.84a17.22,17.22,0,0,1-6.84-6.6,88.27,88.27,0,0,1-8.4-19.56,95.75,95.75,0,0,1-4.08-23.16,137.4,137.4,0,0,1,2-32.88l.84,3.48a100.2,100.2,0,0,0,44.64-.36l1.56-2.4,3-1.56-.36-9.6c-16.92-5.52-33.12-4.08-48.6,4.2q7.2-50.76,41.64-83.16c2.52-2.28,5.76-3.12,10-2.52a34,34,0,0,1,16.44,7.56A67.91,67.91,0,0,1,546.84,124.44Z" transform="translate(-41.64 -88.54)"/></svg>