<svg id="Layer_1" data-name="Layer 1" xmlns="http://www.w3.org/2000/svg" viewBox="0 0 460.56 354.43"><defs><style>.cls-1{fill-rule:evenodd;}</style></defs><path class="cls-1" d="M215.4,117.48l-42-2-42-3.24a192,192,0,0,0-43.92.48,320.39,320.39,0,0,1-34,2l-2,2.28-.12,8a69.94,69.94,0,0,0,24.12,1l20-2.28a147.45,147.45,0,0,1,39.12,1.2,588,588,0,0,0-8.76,68.16c-1.08,16-1.8,31.92-2.16,48q-1.08,44.46-3.6,88.68-3.42,62.46-4.68,124.56a5.38,5.38,0,0,0,2,4.68,8.48,8.48,0,0,0,3.12,1.56c.6-14.4,1.44-28.92,2.28-43.56l1.8-28.56q3.06-45.9,4.92-92.16Q133,210.78,135.48,125l21.12,2.88,14.4.72A180.1,180.1,0,0,0,213.48,124Zm25.92,32.4a1246.78,1246.78,0,0,0,13.2,127l.12,1a6.17,6.17,0,0,0-1.08-2.64c-15.48,2.52-31,4.44-46.2,5.64l8.16-37.92q13.86-62.28,29-123.6l-.6-.72-1-.84A783.47,783.47,0,0,0,213.24,225L201.6,281.28l-2.52.12a6.82,6.82,0,0,0,1.2,6.24l-13.2,62.52c-4.44,20.76-10,41.4-16.44,61.68a145.71,145.71,0,0,0-7.56,46.8c.84,0,1.44-.12,1.56-.48a87.36,87.36,0,0,0,8.88-21.24c6.36-22.8,11.64-45.84,16.08-69,5.16-26.4,10.44-52.8,16.08-79.08a100,100,0,0,0,47.52-4.68l.6-.84a7.84,7.84,0,0,0,1.08-4.44q9.54,61.92,15.36,124.32,3.24,34,16,62.4a2.92,2.92,0,0,0,1.2-3.12c-5.4-28.56-9.48-57.6-12.48-87q-6.48-63.72-17.16-126.6a901.88,901.88,0,0,1-13-126.6A70.74,70.74,0,0,0,241.32,149.88Zm241.44-23.64-2.28-.36q-25.38,25.74-30,63.72a975.91,975.91,0,0,0-7.44,111c-.24,22.68.24,45.48,1.56,68.16.36,8.88,1,17.76,1.8,26.76l1.32,12.12,1,6.48a60,60,0,0,0,2.4,9.12,85.67,85.67,0,0,0,11.16,22.2l3.72,5q26.1-7.56,40-31.68a36.5,36.5,0,0,0,5-17.16,15.77,15.77,0,0,0-2.28-9q-9.36,28.44-36.12,39.36a23.73,23.73,0,0,1-6.36,1.68,346.32,346.32,0,0,1-17.52-149l37,1.92c.24-11.64-6.12-16.44-19.08-14.64L449,274.68q-5.58-72,27.12-134.76c11.76-2,22.08,1.68,30.84,11l1.56-.12,3.36,2c-1.8-9-7.2-15.48-16.2-19.2A23.65,23.65,0,0,0,482.76,126.24Zm-87.84,4.2-.12-.6-.6-1.56c-.36-.12-.48,0-.6.36a756.61,756.61,0,0,0-25.2,117.24q-4.32,31.86-10.44,63l-.72,5.4c-.48-5.16-1.2-10.44-2-15.72-2.52-15.48-4.56-31-6-46.68q-5.94-64.08-9.12-127.68l-.36.12-1.08,5.76L339,124q-9.72,38-16.44,78.72Q312.3,266,306.48,330.12a323.63,323.63,0,0,1-7.68,46.68c-4,16.56-4.68,32.28-2.28,47.16A595.92,595.92,0,0,0,314.16,313.8a994.69,994.69,0,0,1,17-126.48c2.28-11.16,4-22.2,5.28-33.24A205.32,205.32,0,0,0,338,186q7.92,63.18,9.84,127.32c.36,12.24,3.24,22.8,8.76,31.68l.84-11.52a63.12,63.12,0,0,0,1.8,7.2,2.45,2.45,0,0,0,1-1.56q8.1-40.68,13.8-82.44,7.74-57.42,18.6-113.76v3.24a535.83,535.83,0,0,0,2.76,53.76q6.66,63,16.44,125.64,9.9,63.9,25.08,126.6.72,2.88,3.24,2.16a5.8,5.8,0,0,0,1.44-4.8q-5.22-32.58-11.88-65.16-12.78-62.46-21-125.76c-5.64-42.12-9.6-84.24-12.12-126.6l-.48-.84-.84-1.56Z" transform="translate(-51.36 -111.17)"/></svg>