<svg id="Layer_1" data-name="Layer 1" xmlns="http://www.w3.org/2000/svg" viewBox="0 0 285.89 210.02"><defs><style>.cls-1{fill-rule:evenodd;}</style></defs><path class="cls-1" d="M310.32,292.2,266,296l23.88-77.52Zm-17.88-95.52-.72,1.32-.36-1-1.56,4.44a154.48,154.48,0,0,0-14.28,35.88A788.29,788.29,0,0,1,232.8,358.44,85.42,85.42,0,0,1,224.64,373c-8,11.4-9.72,21.84-4.92,31.32a102,102,0,0,0,6.84-11.64q19.8-41.58,35.4-85l51.72-1.56c2.76,12.12,5.4,24.24,7.8,36.48,4.44,22.44,11.88,42.72,22.44,60.6a28,28,0,0,0-.72-25.08A239.92,239.92,0,0,1,323,319.8q-12.42-61-30.72-119.88Zm-50,1.2-25.92-.6c-22.32,2.28-44.52,3.6-66.6,4.08l-.24,1.56a10.87,10.87,0,0,0,.24,6.48l.36.84,49.68,1.8A527,527,0,0,0,195,272.52l-3.36,128.16c.48,2,1.68,2.52,3.48,1.68,2.52-22.44,4.2-45.48,4.8-69Q201.36,272,201.6,212c14.52,0,29.16-.36,43.8-1.2l.48-1a10.43,10.43,0,0,0-.36-11.16l-1-1ZM378.24,299.52l11-6.36,15.24-.12c18.6,16.8,25.68,37.92,21.48,63.24a30,30,0,0,1-13.32,20.88q-16.2,11-36,7.56l-1.32-1.2-3.72.6,4.92-84.6Zm35.88-54.36q-4.86,31.5-37.2,41.88.9-41.58,1.08-82.44,17.1.54,28.08,13A32.67,32.67,0,0,1,414.12,245.16Zm-38.52-47-.36.72-.36,2.52a7.92,7.92,0,0,0,.72,3.24h.24a127.18,127.18,0,0,0-4.92,34.56q-.72,64.08-4.68,128.16A103,103,0,0,0,369,399.6l.84-.84.84,1.68a41,41,0,0,0,33-2.4q35.46-19.44,31-61-3.78-34.2-28.44-55.2a48.94,48.94,0,0,0,13.2-27.6q6.3-42.12-30.84-58.32A21.64,21.64,0,0,0,375.6,198.12ZM355.32,208.8c1.08-10.08-3.72-14.88-14.4-14.52q-37.44,39.42-16.56,92.52,33.66,9.9,34.92-24c-7.92,14-18.72,18.36-32.4,12.72a55.82,55.82,0,0,1-4.44-29c15.72,4.92,24.24,1,25.8-11.88a34.94,34.94,0,0,0-24.48,2.88c2.52-19.32,11.76-29.64,28-30.72Z" transform="translate(-149.26 -194.26)"/></svg>