<svg id="Layer_1" data-name="Layer 1" xmlns="http://www.w3.org/2000/svg" viewBox="0 0 304.59 216.72"><defs><style>.cls-1{fill-rule:evenodd;}</style></defs><path class="cls-1" d="M296.52,197.76a322.82,322.82,0,0,0,7.08,80.64l2.76,14a73.05,73.05,0,0,0-30.72,2.64l9.84-39.36A327.33,327.33,0,0,0,295.68,193a400.48,400.48,0,0,0-19.44,66.72,958.79,958.79,0,0,1-33.84,124.2l-1.92,1.68c-2,5.4-1.56,10.2,1.44,14.64A144.71,144.71,0,0,0,263.4,349c3-14.16,6.24-28.2,9.48-42.24,11.88-.36,23.76-.48,35.88-.24,2,11.64,3.6,23.4,4.92,35.16a354.84,354.84,0,0,0,12.12,62c2.88-3,4.08-7,3.72-11.88a72.79,72.79,0,0,1-4.2-16.92c-2.16-17.4-4.68-34.56-7.56-51.72l-3-17.16a8.74,8.74,0,0,0,1.8-4.8,11.83,11.83,0,0,0-1.32-7.32,1.24,1.24,0,0,0-1-.48l-1.68-.24q-7.92-47.7-15.48-95.4Zm-61.68-3.24a299.7,299.7,0,0,0-82.8,8.16l-.24.84a16,16,0,0,0,.12,8.88l.48.84c16.92-1.8,34-3.12,51.12-3.72a110.34,110.34,0,0,0-4.2,28.32Q198.06,302.1,193.8,366c-.84,12.12.72,22.68,4.8,31.68q3.78-31.14,4.68-64.08c1.08-41.88,1.68-83.28,1.56-124.08q22.68-.9,45.72-.36l.6-1a12.2,12.2,0,0,0,.36-11.16l-.48-.84a1.8,1.8,0,0,0-1.32-.48Zm180.48,49-.72,16.8q-2.52,72.18.72,141.48a99.15,99.15,0,0,0,4.44-19c.6-4.2,1-8.4,1.2-12.6a632.7,632.7,0,0,0,.48-65.76l24.6-.12c-1.32,34.68-1.2,69.48.6,104.28a2.45,2.45,0,0,0,.6,1.08c3.24-13,4.92-27.6,5.28-44,.24-14.28.72-28.68,1.44-43.08Q457,258.48,455,194.28l-8.52,96.24-25.2,3.24-2.16-71.28A81.21,81.21,0,0,0,415.32,243.48Zm4.56-45.36a521.85,521.85,0,0,0-79,6.72l-.48,1.68a7.06,7.06,0,0,0,1.32,7.2l39.48-.72a854.63,854.63,0,0,0-6.6,97.32,514,514,0,0,1-4.44,63.84c-1.56,12.24-.36,22.92,3.72,31.92a12.05,12.05,0,0,0,4-8.88l5.88-128.28A480.27,480.27,0,0,0,383,213l40.68-.84,1-1.68a11.34,11.34,0,0,0-.12-10.56l-1-.6Z" transform="translate(-151.23 -192.96)"/></svg>