<svg id="Layer_1" data-name="Layer 1" xmlns="http://www.w3.org/2000/svg" viewBox="0 0 474.47 516.14"><defs><style>.cls-1{fill-rule:evenodd;}</style></defs><path class="cls-1" d="M124.8,419.4q1.26,63.9,8,127.44l1.32-.36a420.35,420.35,0,0,0,14.64-73.8,303,303,0,0,0,15.12,73.92,37,37,0,0,0,7.2-18.84A448.85,448.85,0,0,1,181,471.24a127.11,127.11,0,0,0,3-46.68,634.5,634.5,0,0,0-20,100.32,360.77,360.77,0,0,1-9.6-62.76c-.6-8.4-2.64-15.12-6.12-20l-.24.84c-4,26.16-8.28,52.08-12.72,77.88l-.12-.72a831,831,0,0,0-9.36-101.52C125.16,418.44,124.8,418.8,124.8,419.4Zm20.16-101L144.24,290a21.9,21.9,0,0,1,18.12-2.4c7.2,13.08,2.52,22.92-14.16,29.76Zm14.16-39.6-9.24.48L142,286.32l.6,4.8,1.44-1c-2.76,18.6-4.68,37.32-5.88,56.16a168.48,168.48,0,0,1-4.44,28.92c-2.76,11.76-1.92,22.44,2.64,32.16a470,470,0,0,0,8.4-78.84l5.76-.72a237.17,237.17,0,0,0,17.16,79.32l.24-.12a460.2,460.2,0,0,0-12.36-70.8L153,326.4c9.36-5.4,15-13.56,17-24.24A17.59,17.59,0,0,0,169,291.6,33.52,33.52,0,0,0,159.12,278.76Zm73.8-214.2c2-5.4,1.44-10.2-1.92-14.52L122.28,52a886.63,886.63,0,0,0-102,7.56l-.36.84a10.42,10.42,0,0,0,1.2,10.56q56.16-.18,112.08-1.68a140.3,140.3,0,0,0-2.88,23.28q-3.6,64.08-8,128.28t-8.16,128.28q-3.78,64.08-5.76,128.28a447.44,447.44,0,0,1-4.2,47.64c-1.44,9.84.12,17.64,4.8,23.4a5.83,5.83,0,0,0,2-4q4.14-52,6.72-104.64l6.36-128.28q3.24-64.26,8-128.28,4.32-57.42,4.68-114.12l95.64-3.6Zm87.36,29.28c.24-22.08-11.28-33.48-34.56-34.08a112.93,112.93,0,0,0-47.4,28.44,185.42,185.42,0,0,0-19.56,47.64A541.24,541.24,0,0,0,203,231c-3.24,42.6-5,85.68-5.16,129.12a1138.59,1138.59,0,0,0,6.72,128.4,118.17,118.17,0,0,0,14.76,46.08c12.84,22.2,31.92,28.8,57.24,19.56a47.45,47.45,0,0,0,21.6-15.36,159.74,159.74,0,0,0,27.36-49.32c4.68-13.44,4.8-26,.24-37.92A4.24,4.24,0,0,0,323,454c-.36.84-1,1-1.56.24l-.84-1c-.6.36-.6,1.56,0,3.36l.84,2.4.24.72a246.37,246.37,0,0,1-7.44,26.88,129.15,129.15,0,0,1-12.6,26.64c-12.84,21-31.56,29-56.4,24.12q-15.48-3.06-20.88-17.64a278.35,278.35,0,0,1-17.28-85.44q-2.7-57.06-1.08-114.12a504.83,504.83,0,0,1,62.88-4.32l.48-1A13.25,13.25,0,0,0,267.84,302a168.9,168.9,0,0,0-61.44,5.16l.12-2A1228.63,1228.63,0,0,1,217.8,178.68q2.34-16,5-32,6.48-39.06,39.12-60.48C286.56,70,305.88,72.72,320,94.68Zm85.56,94.56c-11.88,1.32-21.36,6.72-28.2,16.08a140.86,140.86,0,0,0-25.08,58.2,758.89,758.89,0,0,0-11.28,94.92l-.12,2-1,21.84a661.61,661.61,0,0,0,9.24,128.28q5,29.52,30.24,45.72c11.76,7.44,25.2,11,40.2,10.68a69,69,0,0,0,46.92-18.84A89.11,89.11,0,0,0,492,506.64c2.88-9.72,1.56-17.4-3.84-22.8l-1.32,1.68-.36.72-.36.48-.72.84-1.08.12-.48-.12-1.08-.48-.48.84c-.12.24,0,.36.12.48a13.92,13.92,0,0,0,2.52,1.92A62.35,62.35,0,0,1,471,522.6c-17.64,22-41.4,29.88-71,23.88a41.62,41.62,0,0,1-10.32-3.36c-22.44-10.2-34.8-27.6-37.32-52.2a858.27,858.27,0,0,1-3.84-126.84,214.53,214.53,0,0,0,61.92-5.76l.48-1a12.35,12.35,0,0,0-1.2-12.84l-60.72,10a603.21,603.21,0,0,1,17.16-114.72c4.68-18.72,16.32-30.12,34.68-34.32q34.92-7.92,66.24,3.24a7.45,7.45,0,0,0-.48-5.76,31.52,31.52,0,0,0-3.36-4.8l-1.44-1.68-1.56-1.56-2.4-.6a193.22,193.22,0,0,0-45.48-7.08Zm.24-108a218.37,218.37,0,0,0,9.72,34.32l-7.8-.24a48.42,48.42,0,0,0-18.12,3.12,179.18,179.18,0,0,1,14.28-33ZM405.84,63a199.15,199.15,0,0,0-18.72,41.88A411.7,411.7,0,0,1,371,148c-4.2,9.72-4.32,19.44-.12,29L387,126.72l33.48-.48,25.2,55.32q-8.1-56.7-36.72-112.92Z" transform="translate(-19.01 -50.04)"/></svg>