<svg id="Layer_1" data-name="Layer 1" xmlns="http://www.w3.org/2000/svg" viewBox="0 0 484.41 444.4"><defs><style>.cls-1{fill-rule:evenodd;}</style></defs><path class="cls-1" d="M176.88,54.72q-72,11-143.88,19.92l-.24.84a14.53,14.53,0,0,0,.48,8.16,6.45,6.45,0,0,0,2.52.6q35.82-.72,71.52-3.84-7.38,60.3-9.12,121.44c-1.32,43-3.12,85.8-5.64,128.4C90,373.08,85.92,415.8,80,458.16c-1.68,12.48,0,23,4.92,31.8a141.77,141.77,0,0,0,6.24-34.8q4-64.08,7.44-128.28T104,198.6a563.07,563.07,0,0,1,5.4-63.84,271.47,271.47,0,0,0,2-54.72q32.76-3.06,65.4-8.28l.84-1.08C180.48,65.16,180.24,59.88,176.88,54.72ZM211,88.92c10.92-1.08,18.6,3.24,22.8,12.84l.36-.6c1.56-18.6-8-27.12-28.56-25.68-25.32,18.12-41.28,43.08-48.12,74.88A743.61,743.61,0,0,0,141.6,278.88c-1.56,42.6-1.8,85.2-.72,127.56A111.74,111.74,0,0,0,160.68,468c9.84,14.52,22.2,17.4,37.08,8.4a109.56,109.56,0,0,0,15.48-11c14.4-12.24,19.08-25.8,14-40.56a143.31,143.31,0,0,1-33.72,36c-4.08,3.24-8.4,4-12.84,2.28-18.48-6.84-28.56-20.64-30.24-41.52a1248.8,1248.8,0,0,1-3.12-129l.24-7.8a89.4,89.4,0,0,0,43.08-6l.48-1c2.4-5,2-9.6-1.2-13.68a234.29,234.29,0,0,1-41.88,7.8,847.84,847.84,0,0,1,11.76-104.76c5.64-31.8,20.52-57.6,44.64-77.64Zm65.52,4.68a209.25,209.25,0,0,0-29.16,86.64l-4.56,40.44q-1.62,14.76-2.52,29.52c-1.32,21.24-1.8,42.6-1.32,64.08l1,31.8c.36,10.44.72,21,1.32,31.68l1.44,31.44a163.49,163.49,0,0,0,2.64,22.92A44.78,44.78,0,0,0,254,451.2q16.56,21.06,36.84,3.36c12.84-11.28,17.52-25.08,13.8-41.4l-5.88,4.92-.36.24a4.3,4.3,0,0,0,.48,1.32c-3.48,11.88-10.68,19.68-21.72,23.16l-7.44.6a51.48,51.48,0,0,1-7.2-1.56,8.66,8.66,0,0,1-4.44-3.84,5.63,5.63,0,0,1-1.08-2.64c-1.08-5.88-2-11.64-2.88-17.52-1.44-10.68-2.76-21.24-3.84-31.92-1.8-16.08-3-32.16-3.84-48.36-1-19.8-1.2-39.72-.72-59.52a120.15,120.15,0,0,0,43.44,1q4.14-7-.36-13.32l-2-2.4-40.56,2.88Q240.84,183.9,276.72,114A56.43,56.43,0,0,1,284,103.56l3-3.12c10.68-2.64,19.68-.48,26.88,6.36,2-10.68-3-17.52-15.36-20.52a27.8,27.8,0,0,0-10-.72,7,7,0,0,0-5.28,1.92Zm218,180.24-1,.24Q456.66,329.7,461,401.28c1.2,19.32,1.68,38.64,1.56,58.2a44.69,44.69,0,0,0,1.08,9.72,67.63,67.63,0,0,0,3.72,12.12l2.64,5.76a101,101,0,0,0,6.72,10.8c16.44,4,29-1.56,37.68-16.8a17.78,17.78,0,0,0,2-6.48,23.36,23.36,0,0,0-.72-9.12l-1.68-4.92c-8.76,13.08-20.76,19.44-36.24,18.84a228,228,0,0,1-6.72-94.08l27.6-1q4.86-7.92-.36-15.84l-26.64,3.6q-7.74-57.24,33-80.28,4.68-2.7,10.44.72c3.36-6.84,1.56-12.84-5.4-17.76l-1.44-.84A15.89,15.89,0,0,0,494.52,273.84Zm-109-209.76-.48-1.2a741.43,741.43,0,0,1-89.64-6c-2.76,3-3.48,6.6-1.92,11,17.64,5.88,36.72,7.8,57.12,5.64q-7.2,187.92-19.92,375.36a25.56,25.56,0,0,0,3.36,14.4l.12-.24q15.66-149.94,21.12-300.84c.72-19.8.72-39.36,0-58.92l-1.2-29.52,29.52,1.68A11.77,11.77,0,0,0,385.56,64.08ZM448.8,75c-2.4,41.64-3.72,83.64-4.08,125.76-.12,22.44-.72,44.88-1.56,67.32l-8.88-.12a251.82,251.82,0,0,1-32.76-1.68v.12H397.2a18.5,18.5,0,0,0-6.84.84c1.32-18.36,3-36.72,4.92-54.84a716.66,716.66,0,0,0,2.4-128.28c-.6-.12-.84,0-.84.36-2.76,34.56-5.16,69.36-7,104.4l-3.6,64.2L378.6,381.36a591.53,591.53,0,0,1-7.32,63.72c-2,12-1.08,22.8,3.12,32.52a12.47,12.47,0,0,0,4.2-8.76q5.94-63.9,7.92-128.16.9-30.78,2.88-61.2a231.24,231.24,0,0,0,53,4.32q-1.08,22.68-2.52,45.36-4.5,64.62-14.88,128.16l-.36.48c-.84.24-1.08.84-1,1.92-1.92,10.08-.72,19,3.72,26.52a91.76,91.76,0,0,0,8-28.68c4.92-42.36,8.64-84.84,11.28-127.68q4.14-63.9,5.52-128.28,1.62-64.8-1.8-128.28C449.4,73.2,448.92,73.8,448.8,75Z" transform="translate(-32.39 -54.72)"/></svg>