<svg id="Layer_1" data-name="Layer 1" xmlns="http://www.w3.org/2000/svg" viewBox="0 0 549.36 515.88"><defs><style>.cls-1{fill-rule:evenodd;}</style></defs><path class="cls-1" d="M191.88,83.76c0,5.16-1,12.12-3,21.12-2.16,9.36-3.36,17-3.48,23.16-.12,4.68-.6,11.76-1.44,21q-1.62,15.84-1.8,22c-.36,4.56-1.08,11.76-2.28,21.72-1.2,9.6-1.92,16.92-2,22l-1,21.12a86.16,86.16,0,0,1-4.2,21.36c-1.56-1.08-2.4-2.76-2.76-5.16a56.25,56.25,0,0,1-.24-6.24c0-3.12,1.2-16.92,3.72-41.52,2.52-25.68,4-40.2,4.08-43.56.24-4.56.36-11.76.36-21.48s.12-17,.36-22c1.08-17,4.92-30.72,11.76-41.16A14.91,14.91,0,0,1,191.88,83.76ZM189.48,52l33,.24a11.36,11.36,0,0,1,1.8,6.12,10.57,10.57,0,0,1-.6,3.48,12.16,12.16,0,0,1-1.8,3.12l-33.6.6-59.16,4.56-1.44,46-1.8,52.56q-2.16,47.88-2.16,98.88c0,13.44-1,33.6-2.76,60.48s-2.76,49.44-2.76,67.8l.72,18.36c.6,11.88,1.08,21.12,1.44,27.84v87.72l1.56,11.52.72,8.76c0,1.56-1.32,7.44-4.08,17.88a5.34,5.34,0,0,1-4.8-4.44,21.06,21.06,0,0,1-.36-4.92,16.73,16.73,0,0,1,1.56-7.8,13.25,13.25,0,0,0,1.68-6.36,32.76,32.76,0,0,0-1.08-9.72V446.88q-.72-11.16-1.44-31l-.72-20.16c0-5.76.84-24.24,2.4-55.44,1.56-29,2.52-46.56,3-52.56v-41.4a272.76,272.76,0,0,1-.84-37.8c.36-8.76,1.44-21.36,3-37.56V96.72a100.88,100.88,0,0,1,3.12-26.16l-10.56,1L19,80.88a10.67,10.67,0,0,1-3-7.32,9.19,9.19,0,0,1,2.4-6.48l95.76-8.64,75.36-6Zm106.8,29.52q-29.34,0-48.24,37c-7.08,13.56-12.24,29-15.6,46.32l-8.28,41.4c-3.12,16.68-5.28,31-6.36,43l-5.16,54.12,4.2-.72c3.12-1.08,7-2.16,11.52-3.36,2.76-.72,8.16-1.08,16-1.08a67.81,67.81,0,0,0,20.88-3.24c9.84-3.24,16.2-4.44,19-3.72,2,.48,3,2.52,3,6.24,0,4.44-9.48,8.76-28.44,13.2q-26.46,6.12-47.16,6.12h-.24l-3.12,29.16q-2.34,26.1-2.28,71.28v30a308.22,308.22,0,0,0,2.4,37.8q6.12,47.16,28.2,60.24,31.5,8.28,54-29.52a241.93,241.93,0,0,0,13.68-28.56c4.2-10.2,6.84-16,8-17.16a11.12,11.12,0,0,1,1.92,6.48c0,1.56-1.44,6.36-4.32,14.16a201,201,0,0,1-12.72,28.08q-22.32,39.78-50.28,39.72-25.74,0-35.28-29.52a120.67,120.67,0,0,1-4.8-23.4c-1-9-1.68-14.64-2.16-17.16-1.68-8-2.76-19.56-3.24-34.44-.24-6.12-.36-18.12-.36-36.24q0-57.78,2.28-81.84c.72-7.56,2.16-20,4.32-37.2l7.8-63.6c2.52-22.92,4.44-38.16,5.64-45.48a253.54,253.54,0,0,1,11.4-46.08q3.42-9.36,9-22l11-23.52a48.8,48.8,0,0,1,16.32-19.8,45.21,45.21,0,0,1,20-8.28c6.72-1.08,12.36-.6,17,1.44s7.2,5.4,7.2,9.6a25.41,25.41,0,0,1-.24,4.08,6.13,6.13,0,0,1-3.24,4.56c-.84-1-3.12-2.52-6.6-4.68C299.28,82.56,297.12,81.48,296.28,81.48ZM383.4,367.2v1.68l3.72,16q31,135.54,31,161.28a10.56,10.56,0,0,1-2.4,6.84c-3.72-9.72-7-22.08-9.84-37.2C403,498.6,400.68,486,399.12,478c-1.56-8.28-4.32-20.52-8.16-36.72-4.32-17.76-7.32-30.36-8.88-37.92l-5.52-25.68L368,379.8l-26.64,4.8-22.08,3.84-10.56-.24q-12.42,42.66-18,60.12-11.34,36.18-22.32,63.48c-1.8-.24-2.88-1.44-3.36-3.48l-.12-4.44a42,42,0,0,1,1.8-11.28c1.56-5.28,3.36-7.56,5.52-6.72q17.1-63.18,35.88-119.16c2.52-7.32,5.64-17.28,9.36-29.76,4.56-15.48,7.56-25.68,9.12-30.6,7.56-24.12,15.48-43.56,23.52-58.32l.36.48.12-1.56c.36-3.72,1.32-5.88,2.76-6.6q1.62,8.82,27.84,119.4l.36-.24A16.12,16.12,0,0,1,383.4,367.2ZM351.12,258.6c-2,7.44-7.56,24.12-16.32,50-10.44,30.6-17.64,52.56-21.84,65.76,15.72-2.28,29.16-4.56,40.56-6.84q12.6-2.52,19.8-4.68l-10.08-46C356.64,286.56,352.68,267.12,351.12,258.6Zm180.6-131.28a112.64,112.64,0,0,0-16.56-29.88q-28.8-36.54-75.48-28.32l-.6,6.72-1.56,11v92.4q-.54,11.16-1.44,31l-.72,20.16c0,11.16.24,24.72.84,40.8l.48-.24c1.56-1,5-2.28,10.68-4q20-6.12,33.48-18c.48-2.88,1.08-4.8,1.92-5.64l1.08,2.88,15.36-14.76a113.4,113.4,0,0,0,14.4-17.28c4.08-6.36,8.88-17.28,14.28-32.52,5.88-16.44,8.76-28.2,8.76-35.16C536.64,142.32,535,135.84,531.72,127.32Zm9.72,19.56c0,16.08-3.72,32.76-11,49.92A183,183,0,0,1,503.16,241a185.83,185.83,0,0,1-15.48,16.44c2.16,6.48,4.32,13.8,6.6,22,2.76,10,6,22.44,9.6,37.32l8.64,36.84c3.72,14.76,7,27.12,10,37.08q42.84,142,42.84,146.52l-.24,4.56c-.36,2-1.2,3.12-2.76,3.48a34.69,34.69,0,0,1-8.16-17.76,108.65,108.65,0,0,0-3-18.84c-1.08-3.72-3-10-6-18.48-2.76-8-4.8-14-5.88-18l-20.52-72.24q-10.08-35.1-23-83.16-10.8-39.78-14-54a121.62,121.62,0,0,1-13,9.72c-12.12,8-22.8,12-32.16,12.12.6,17.28,1.56,37,2.64,59.16q3.78,75.6,3.72,112.8c0,6.48-1,21.12-2.76,44-1.8,22.2-2.88,34.2-3.36,35.88a8,8,0,0,1-3.72-5.16,31.7,31.7,0,0,1-.36-5.4q5.4-60.12,5.4-69.36c0-10.08-.48-30.72-1.44-61.8l-1.8-51.48-2.4-52.2c-1.32-30-1.92-50-1.92-60.12l.72-21.72q.72-21.42,1.44-33.12V81.24l.36-11.76.12-1.92a12.77,12.77,0,0,1-.48-4l-.12-3.36a2.57,2.57,0,0,1,1-2.28c1.2-1.08,4.92-1.56,11.28-1.68,0-1.44,2-2.4,6.24-2.76a58.5,58.5,0,0,1,15.72,1.32,88.85,88.85,0,0,1,41.88,19.8,52.1,52.1,0,0,1,10.44,12.24c1.8,2.76,4.08,6.72,7,12.12,6.6,11.4,10.68,19.68,12.48,24.84Q541.44,132.66,541.44,146.88Z" transform="translate(-15.96 -51.96)"/></svg>