<svg id="Layer_1" data-name="Layer 1" xmlns="http://www.w3.org/2000/svg" viewBox="0 0 488.97 328.56"><defs><style>.cls-1{fill-rule:evenodd;}</style></defs><path class="cls-1" d="M298.2,127.44Q283.26,187,265.56,247l-1.56,5.4A101.81,101.81,0,0,0,306.48,245l-6.72-57.24A330.4,330.4,0,0,1,298.2,127.44Zm.6-6,.12-2.64c4.44,42.12,9.36,84.24,14.88,126.6s12.6,84.48,21.12,126.36l3.6,19c1.32,7.08.36,13.2-3,18.36A894.6,894.6,0,0,1,311,283l-3.24-26.64a75.33,75.33,0,0,1-46.08,4.08c-7.32,25.08-14.28,50.28-21.12,75.48a116,116,0,0,1-12.24,29.76c-5.64-9-4.92-19.32,2.28-31a55.89,55.89,0,0,0,6.24-14.52c5.64-22,11.64-43.68,18-65.4l.24-3.12.6.12c5.4-18.36,11.16-36.6,17-54.84q13-40.14,24-78.36A9.68,9.68,0,0,1,298.8,121.44ZM185,108.84v.72l-.36,1.56-.48,1-.48.72a458.71,458.71,0,0,1-63.24,5.4q-2.34,61.92-2.16,124.56c.12,43.08-.6,86-2.4,128.88-.84,20.28-2.16,40.44-4,60.24q-5.4-13.68-3.6-31.68a1279,1279,0,0,0,6.72-129q0-64.26-.36-128.28a162.67,162.67,0,0,1,1.56-24.72c-7.08,0-14-.12-21.12-.36a77.88,77.88,0,0,0-21.72,2.4,105.51,105.51,0,0,0-22.32,8.28l-.24.24a11.8,11.8,0,0,0-3.6-.12l-.72.12-4.8-.84-.84-.48-.24-.84-.36-2.4v-.84a7.87,7.87,0,0,1,.12-2.4l.24-.84.24-.84a117.57,117.57,0,0,0,22-6.6,128.24,128.24,0,0,1,36.72-8.76l4.2-.6q41,.72,80.16,4.08Q184.86,107.4,185,108.84Zm63.12,29.4-.36.6c-2.28-12.6-10.32-16.8-24.24-12.6q-40.86,12.42-48.48,56.52-5.76,34.74-10,69.6A218.29,218.29,0,0,1,206.64,246c13.44-3.36,21.6.12,24.6,10.32a4.16,4.16,0,0,1-1.56,4.56,598.54,598.54,0,0,0-65.64.24c-1.8,15.72-3.24,31.56-4.56,47.52q-3.42,42.48,16.56,77.88a13.31,13.31,0,0,0,8.28,6.48c26.28,8.16,46.44,1,60.72-21.48a66.88,66.88,0,0,0,5.76-10.8l1.08-1,1.2-1.2,1.56-1.08q-2,41.22-43.56,52.8c-16.68,4.68-30,.6-40.2-12A58.18,58.18,0,0,1,158,367.68a483.8,483.8,0,0,1,2-127.68l6.48-46.2q5.4-39.6,31.68-67.56a48.92,48.92,0,0,1,14.16-10.32,30.54,30.54,0,0,1,12.72-3.12C243.84,112.44,251.52,120.84,248.16,138.24Zm277.08-24.36q.18,61.2-2.16,123.36a9.16,9.16,0,0,1,3.36,1.08l1,.6a9.15,9.15,0,0,1,1.68,7.32,7.27,7.27,0,0,1-1.68,4.08l-4.92,1.2q-2.34,59.76-2.88,119.64a154.37,154.37,0,0,1-5.52,40.32c-4-9.6-5.4-20.4-4.08-32.28,3.48-31.56,5.52-63.48,5.88-95.64l.48-30.72a266.51,266.51,0,0,1-46.44,5.52q-2.7,59.4-6.6,118.32a268.49,268.49,0,0,1-4.44,35.52,2.14,2.14,0,0,1-1.08,1.44q-6.66-14.22-4.32-32.4c1.44-10.8,2.64-21.6,3.72-32.28,2.76-30.84,4.92-61.8,6.24-92.88l-.12-1a11.63,11.63,0,0,1,.36-2.76l1.08-32.4a993.46,993.46,0,0,1,7.44-99.84q.72,63.72-1.92,128.28v.48a243.61,243.61,0,0,1,46.56-11q1.26-41.76,4-83.4C521.88,140.16,523.32,126.72,525.24,113.88ZM431,137.76v.84a5.72,5.72,0,0,1-.48,2.4l-.36.84c-15.48-9.48-31.08-7-46.8,7.32-20.28,18.6-31.68,42.12-34,70.44-2.16,26.52-4.68,53.16-7.68,79.68q-5.4,48.78,25,84.24a11.76,11.76,0,0,0,9.12,4.2c19.32.36,36.6-6.24,51.6-20q5.94-5.22,12.24-5.4c.84.36,1.56,0,1.92-1.08a4.24,4.24,0,0,1,2.52-2.28l.12.48a2.45,2.45,0,0,1-.12,2.4l-2.52,4.08-.6.84c-5.64,13.8-16,24.48-31.08,31.92a57.58,57.58,0,0,1-19.44,5.64q-29.34,3.42-40.68-23.76a193.06,193.06,0,0,1-13.92-93.6A632.86,632.86,0,0,1,359,168.24a53,53,0,0,1,15.84-24.72,91.28,91.28,0,0,1,36.36-20.4c9,.84,15.48,5.4,19.44,13.8Z" transform="translate(-40.27 -103.32)"/></svg>