<svg id="Layer_1" data-name="Layer 1" xmlns="http://www.w3.org/2000/svg" viewBox="0 0 304.33 219.24"><defs><style>.cls-1{fill-rule:evenodd;}</style></defs><path class="cls-1" d="M334.32,214.08a19,19,0,0,1,9.72,9.84l.6,1.08c1-9.72-4.2-17.88-15.36-24.36a37.64,37.64,0,0,0-15.36-5.16,72,72,0,0,0-15.24.12c-15.36,3.48-27,12.36-34.8,26.4A208.25,208.25,0,0,0,248,257.4a175.44,175.44,0,0,0-8.52,39.48,196.27,196.27,0,0,0,1.08,46,96.34,96.34,0,0,0,16.32,41.64q14.4,20.7,39.6,12.6a102.52,102.52,0,0,0,40-23.76c7.44-7,9.24-15.36,5.52-25.08q-17.82,26.1-49,33.12a52.36,52.36,0,0,1-20.28.84,19.47,19.47,0,0,1-11.4-6.12,48.58,48.58,0,0,1-10.56-18,132.45,132.45,0,0,1-5.64-55.32l66-6a11.45,11.45,0,0,0,1.68-5.4,12.54,12.54,0,0,0-.84-6.24,7.71,7.71,0,0,0-2.16-3A199.73,199.73,0,0,0,247.08,289q7.2-44.64,41.4-72.84a32.26,32.26,0,0,1,18.72-7.44A58.44,58.44,0,0,1,334.32,214.08Zm-88.56-10.8.36-1.08.12-1.2-.12-2.64L246,197a3.8,3.8,0,0,0-1.56-2.76l-42-1.56-53.28,6.72v8.16a155,155,0,0,0,49.92-.6,333.32,333.32,0,0,0-5.88,55.68q-1.44,69.3.12,137.88c2,.84,3.36-.36,4-3.48l1-4.68a33.32,33.32,0,0,0,1.32-7.56,6.15,6.15,0,0,0-1.44-4.56l3.12-173.4,42.84-.12A13.29,13.29,0,0,0,245.76,203.28Zm138.72-9.84-1.32,5.16-1.92.6a16.64,16.64,0,0,0-.24,7.32l.24,1.08a170.25,170.25,0,0,0-2.52,27.84c-.12,14.4-.48,28.92-1.08,43.68-1.92,43.08-2.76,85.8-2.4,128.4,5-4,7.44-10.56,7.08-19.56l-.24-.84a4.32,4.32,0,0,0-1.44-2.16l2.88-63.24,1-24.84a158.25,158.25,0,0,0,44.4-1.92l1.2-2.4c1.56-4.68,1-8.76-2-12.24l-2.76-.24-40.44,4.56q.9-37.8.12-75.24c21-2.28,42-4.08,63.12-5.4a2,2,0,0,0,2.64,1.32l.84-.48a14,14,0,0,0,1.92-6.48,10.46,10.46,0,0,0-4.92-9.72l-7-.36a298.08,298.08,0,0,0-57,10Z" transform="translate(-149.16 -188.28)"/></svg>