<svg id="Layer_1" data-name="Layer 1" xmlns="http://www.w3.org/2000/svg" viewBox="0 0 551.14 516.36"><defs><style>.cls-1{fill-rule:evenodd;}</style></defs><path class="cls-1" d="M103.68,283.92a1154.26,1154.26,0,0,0,6.12,115.32,1247.73,1247.73,0,0,1,6.84,127.32c.12,11.88,1.92,22.56,5.64,32.16a141.68,141.68,0,0,0,11.4-44.16l11.88-127.68c5.88,33,10.8,66.12,14.76,99.6,2.52,21.36,4.56,42.72,5.88,64.2.36,7.32,2.76,12.24,7.2,14.52a696.63,696.63,0,0,0,11-82.56q4.86-63.9,11-127.68A201.85,201.85,0,0,1,201.12,323c3.24-12.84,2.28-23.4-3.12-31.92a1013.65,1013.65,0,0,0-14.28,107.16q-5.22,63.54-11.64,127c-2.52-19.08-4.8-38.28-7-57.48a1104.88,1104.88,0,0,0-21.24-127.32,3.58,3.58,0,0,0-2.52,3.24c-1.68,15.48-3.12,31.2-4.44,46.92-3.36,42.6-7.56,85-12.48,127.32-.84-36.36-2.88-72.36-6-108.24-3.72-42.84-8-85.32-13.2-127.44C104.16,282.12,103.68,282.72,103.68,283.92Zm24.84-95.16a253.39,253.39,0,0,0,1.2-28.2l2.16-.12c18.84-3.72,31.68,2,38.76,17.4-11.4,10.56-25.56,14.4-42.24,11.52Zm18.36-38.52-7.32-.36L129.24,152q-14.4,39.06-16.2,84.24a129.49,129.49,0,0,0,1.8,27.24l1,5.16L127.2,201l21-.48a291.69,291.69,0,0,0,34.56,67.56,161.75,161.75,0,0,0-29.28-68.52c16-2,22.56-10.68,20-26.16a26.33,26.33,0,0,0-6.12-13.2A27.72,27.72,0,0,0,146.88,150.24Zm17.88-90.6q-44.64-5-90.72-6.36L27.48,50.16,11.64,48.84a6.16,6.16,0,0,0-2.4,5.52V56l.24,2.4.24,1.08.36.84.6.72L88.8,69.72a773.94,773.94,0,0,0-5,102.72q.72,47.7-.24,95.4c-.36,16.08-1.2,32.16-2.64,48.24Q70.62,431.46,65.52,546.24a19.28,19.28,0,0,0,2.4,10.32Q79.26,468.9,85,381q2.52-40,4.68-80t3-80.52Q94.08,145.2,90.6,70l74.16,5,1.56-10.56Zm109.08,7.44a64.31,64.31,0,0,0-21,25.08,200.6,200.6,0,0,0-19.56,76.44c-1.08,21.48-1.56,42.84-1.2,64.08.48,42.84-.48,85.92-2.88,129a620.68,620.68,0,0,0,5.64,126q6.66,44.82,47.88,59.16c5.28,4.68,11.52,5.64,18.6,2.88C313.44,545,322.92,537,330,525.6q19.8-32,13.32-70a131.33,131.33,0,0,1-20.52,60.6c-8.28,12.84-19.68,17.4-34.32,13.92q-33.84-8.1-41.76-41.64a408,408,0,0,1-10.44-119.76c1.32-22.68,1.92-45.12,1.8-67.56l78.24-.24a11.53,11.53,0,0,0,1.32-3.36,14.82,14.82,0,0,0,.12-5.64l-.24-.84-.84-2.28-1.2-1.68L314.4,287a190,190,0,0,1-46-.24l-10.8.6L238,289.92q-.36-24.66-1.8-49.32a349.74,349.74,0,0,1,14.4-123.48,61.63,61.63,0,0,1,20.88-31q24.12-19.08,43.2.48l3,.12.48-.48.36-.72q-.9-25.2-28.44-22l-11.88,2.28ZM412.92,416.4l29.76-2.16a768.92,768.92,0,0,0-7.68,80A207.27,207.27,0,0,1,431.64,524c-1.8,10-.24,17.88,4.56,23.88a564,564,0,0,0,8.52-75.12c1-20,1.2-39.6.84-58.68l32-1.8.36-.84c1.68-4.44,1.32-8.4-1.2-12.12a217.5,217.5,0,0,0-64.44,7.32A9.15,9.15,0,0,0,412.92,416.4Zm-49.44,6.12a295.57,295.57,0,0,0-10.32,96.24,45,45,0,0,0,9.72,26.4q4.86,5.94,13,5c20.52-2.64,31-13.92,31.32-34l-1.2-.12L386,535A25.79,25.79,0,0,1,364,531.72a252.28,252.28,0,0,1-4.92-56,182.35,182.35,0,0,0,41.88-1.32l.48-.6c2.52-4.56,2.28-8.88-.48-13a363.2,363.2,0,0,0-41.52,4.92c.48-7.56,1.32-15.12,2.4-22.8,2.88-18.84,13.2-27.6,30.84-26.28l.24,1.68a2.82,2.82,0,0,0,2.28,2.64l.72-.24.36-.84c3.6-12.24-1.08-18.48-14.16-18.6C372.48,405.48,366.24,412.56,363.48,422.52Zm82.2-158.4q-3.06,63.54-2.16,127.44a2.43,2.43,0,0,0,3.24,2.16,3.6,3.6,0,0,0,1.2-2.52c1.32-14.76,2-29.4,2.28-44.16l.48,1.44c4.68-7.2,9-14.64,13.2-22.2a103.26,103.26,0,0,0,9.12,37.2A225.11,225.11,0,0,0,498.72,408a5.52,5.52,0,0,0,1.08-6q-16-41-32.76-81.48l5.64-10.92a74,74,0,0,1,7.8-12.6c8.16-10.8,11.16-21.72,9-32.88a181.4,181.4,0,0,0-15.84,25.32,203.9,203.9,0,0,1-16.08,26.4,46.5,46.5,0,0,0-7.32,14,608.92,608.92,0,0,0-4.08-66C445.8,264,445.68,264,445.68,264.12ZM367,147.84l4,47.16c1.8,23.88,4.32,47.76,7.8,71.52A403.18,403.18,0,0,0,337,270.6l16.2-76.8a612.21,612.21,0,0,0,11.76-84C365,122.4,365.76,135,367,147.84Zm-1.32-77.4q-5.58,36.9-12.24,75.84-10.62,62.82-22.92,125.16A353,353,0,0,1,312,334c-6.48,16.32-8.52,32.28-6.24,47.76l1.2-1a654.24,654.24,0,0,0,26.64-94.08l1.68-7.68a136.33,136.33,0,0,0,45.24.12c2.28,14.4,4.92,28.8,7.8,43.08a250.63,250.63,0,0,1,4.32,32.64c.84,12,4.08,22.2,9.48,30.72,3.24-5.16,4.08-10.92,2.76-17.28-6.36-31.56-12-63.12-16.92-94.92a10.13,10.13,0,0,0-.72-4.68l-1.32-9.12c-3.12-20.88-5.88-41.88-8.16-63-4.68-42.36-8.52-84.48-11.64-126.6V67.68l-.36,2.16h-.12Zm105.72,3.12A451.77,451.77,0,0,1,394,68.64L382.68,67.2l-1,7.8,47.16,7.8q-3.24,76.86-8.88,153.48a90.91,90.91,0,0,0,.48,17.16,45.45,45.45,0,0,0,4.32,14.76,512.49,512.49,0,0,0,6-66.6q1.26-51.84.6-103.92l-.24-14.76,40.44,1.56,1.68-6.6Zm88.8,10.8c-4.56-16.56-17-23.52-37.44-20.76C507,68.52,497.16,79.32,493,95.88A263.74,263.74,0,0,0,492.24,222Q507,283.56,526.08,344.88a321.87,321.87,0,0,1,13.56,126.84c-2.28,24.24-11.88,44.76-29,61.56A27,27,0,0,1,494.88,532a70.93,70.93,0,0,1-20.28-12.24l-1.32-4.8a3.47,3.47,0,0,0-2.64-2.76,1.29,1.29,0,0,0-1.2.36A15.07,15.07,0,0,0,468.6,525q10.26,29.52,44.16,26.76a96.4,96.4,0,0,0,29.28-52,361.59,361.59,0,0,0,6.72-52.08,245.44,245.44,0,0,0-4.92-63.6,857.41,857.41,0,0,0-35.16-122A291.17,291.17,0,0,1,491,135.36a99.37,99.37,0,0,1,13.8-44.16c8.64-14.52,21.72-17.76,39.36-10l15.6,7A5.42,5.42,0,0,0,560.16,84.36Z" transform="translate(-9.23 -48.84)"/></svg>