<svg id="Layer_1" data-name="Layer 1" xmlns="http://www.w3.org/2000/svg" viewBox="0 0 309.12 211.7"><defs><style>.cls-1{fill-rule:evenodd;}</style></defs><path class="cls-1" d="M312.84,213.24l8.88,6.36q-13-36.18-52.44-15.12a75.36,75.36,0,0,0-35.52,40.68,218.72,218.72,0,0,0-13.44,58.08,201.7,201.7,0,0,0,.48,40.8,78.91,78.91,0,0,0,7.44,26.16,38.67,38.67,0,0,0,20.52,19.44c17.16,7.2,34.08,5.88,50.52-3.84,10.92-6.6,16.92-16,18.12-28.2a24.45,24.45,0,0,0-1.44-11q-30.78,46.62-76.2,19.08a20.16,20.16,0,0,1-9.72-13.8,239.39,239.39,0,0,1-4.56-53.16l54.24-4.08c3-4.44,3-8.88,0-13.44A172,172,0,0,0,227.28,288q4-62.46,64-76.68A34.49,34.49,0,0,1,312.84,213.24Zm-74.16-8.16.36-2.76-.24-2.88-.24-.72L237.24,197l-44.64,1.68a361.77,361.77,0,0,1-41,1l-.6,6.48,39,2.4q-2.7,79.74-7.44,159.12a72.52,72.52,0,0,0,5.28,31.92,684.09,684.09,0,0,0,6-100.44q-.54-45.18.12-90.6L238.2,207Zm191-7.44a434.24,434.24,0,0,0-6.48,77.52L424,403.44q.72,2.88,3.24,2.16a43,43,0,0,0,4.68-12q2-8.46-1.08-9.36l-.24-58.44-.12-27.6h.36a60.16,60.16,0,0,0,16.68,2.28c-1.08,34-1.08,67.56,0,101q2,2.16,4.32,0a148.38,148.38,0,0,0,1.68-24.36C453.36,359,454,341,455,322.92l1.2-23,1.32-.12a9.16,9.16,0,0,0,2.52-6.48A19.33,19.33,0,0,0,459,286.8a3.87,3.87,0,0,0-1.68-2.4H457q1.62-45.18.36-89.88l-.6.12a757.57,757.57,0,0,0-8,78.6l-.6,11.4H447l-16.2-.48v.12l-.36.12-.24-86.88Zm-56.4-3.6q-41.22,37.62,1.56,85.56,30.24,33.84,31.68,78.84c.36,10-4.08,17-13.2,21.36a48.65,48.65,0,0,1-26.64,4.32c-9.72-1.08-16.08-6-19.08-14.64-3.84-10.92-7.2-22.08-10.2-33.72a11.66,11.66,0,0,0-1.92-4.32q-14.94,54.9,36.72,64.44c22.32,4,35.64-5.28,40-27.48a83.5,83.5,0,0,0-6.12-51.72,156.54,156.54,0,0,0-20.16-32.52,175.5,175.5,0,0,1-23.64-37.8c-7.8-16.92-4.44-29.28,10.08-36.84,8.52-4.32,16.68-3.36,24.6,2.88l7.68,16.08c3-17.64-4.08-28.56-21.12-33A47.52,47.52,0,0,0,373.32,194Z" transform="translate(-150.96 -194.04)"/></svg>